<?xml version="1.0" encoding="UTF-8" standalone="no"?>
<!DOCTYPE svg PUBLIC "-//W3C//DTD SVG 1.1//EN"
 "http://www.w3.org/Graphics/SVG/1.1/DTD/svg11.dtd">
<!-- Generated by graphviz version 2.43.0 (0)
 -->
<!-- Title: ColorButton::ColorButton Pages: 1 -->
<svg width="650pt" height="64pt"
 viewBox="0.00 0.00 650.00 64.00" xmlns="http://www.w3.org/2000/svg" xmlns:xlink="http://www.w3.org/1999/xlink">
<g id="graph0" class="graph" transform="scale(1 1) rotate(0) translate(4 60)">
<title>ColorButton::ColorButton</title>
<!-- Node1 -->
<g id="Node000001" class="node">
<title>Node1</title>
<g id="a_Node000001"><a xlink:title=" ">
<polygon fill="#999999" stroke="#666666" points="138,-37 0,-37 0,-18 138,-18 138,-37"/>
<text text-anchor="middle" x="69" y="-25" font-family="Helvetica,sans-Serif" font-size="10.00">ColorButton::ColorButton</text>
</a>
</g>
</g>
<!-- Node2 -->
<g id="Node000002" class="node">
<title>Node2</title>
<g id="a_Node000002"><a xlink:href="../../dc/dfa/classColorButton.html#a9cd98ab11ac0c98e3c2ff7b3432c6928" target="_top" xlink:title=" ">
<polygon fill="white" stroke="#666666" points="300,-37 174,-37 174,-18 300,-18 300,-37"/>
<text text-anchor="middle" x="237" y="-25" font-family="Helvetica,sans-Serif" font-size="10.00">ColorButton::pickColor</text>
</a>
</g>
</g>
<!-- Node1&#45;&gt;Node2 -->
<g id="edge1_Node000001_Node000002" class="edge">
<title>Node1&#45;&gt;Node2</title>
<g id="a_edge1_Node000001_Node000002"><a xlink:title=" ">
<path fill="none" stroke="#63b8ff" d="M138.48,-27.5C148.44,-27.5 158.69,-27.5 168.63,-27.5"/>
<polygon fill="#63b8ff" stroke="#63b8ff" points="173.8,-27.5 168.8,-29.75 171.3,-27.5 168.8,-27.5 168.8,-27.5 168.8,-27.5 171.3,-27.5 168.8,-25.25 173.8,-27.5 173.8,-27.5"/>
</a>
</g>
</g>
<!-- Node3 -->
<g id="Node000003" class="node">
<title>Node3</title>
<g id="a_Node000003"><a xlink:href="../../dc/dfa/classColorButton.html#a58874567814aa8d070d760531cf1a52f" target="_top" xlink:title=" ">
<polygon fill="white" stroke="#666666" points="457,-37 336,-37 336,-18 457,-18 457,-37"/>
<text text-anchor="middle" x="396.5" y="-25" font-family="Helvetica,sans-Serif" font-size="10.00">ColorButton::setColor</text>
</a>
</g>
</g>
<!-- Node2&#45;&gt;Node3 -->
<g id="edge2_Node000002_Node000003" class="edge">
<title>Node2&#45;&gt;Node3</title>
<g id="a_edge2_Node000002_Node000003"><a xlink:title=" ">
<path fill="none" stroke="#63b8ff" d="M300.25,-27.5C310.21,-27.5 320.53,-27.5 330.55,-27.5"/>
<polygon fill="#63b8ff" stroke="#63b8ff" points="335.76,-27.5 330.76,-29.75 333.26,-27.5 330.76,-27.5 330.76,-27.5 330.76,-27.5 333.26,-27.5 330.76,-25.25 335.76,-27.5 335.76,-27.5"/>
</a>
</g>
</g>
<!-- Node4 -->
<g id="Node000004" class="node">
<title>Node4</title>
<g id="a_Node000004"><a xlink:href="../../dc/dfa/classColorButton.html#ad89587b4f31859919bbb465ef90e5090" target="_top" xlink:title=" ">
<polygon fill="white" stroke="#666666" points="641,-56 494,-56 494,-37 641,-37 641,-56"/>
<text text-anchor="middle" x="567.5" y="-44" font-family="Helvetica,sans-Serif" font-size="10.00">ColorButton::colorChanged</text>
</a>
</g>
</g>
<!-- Node3&#45;&gt;Node4 -->
<g id="edge3_Node000003_Node000004" class="edge">
<title>Node3&#45;&gt;Node4</title>
<g id="a_edge3_Node000003_Node000004"><a xlink:title=" ">
<path fill="none" stroke="#63b8ff" d="M457.08,-34.2C467.29,-35.35 478.03,-36.55 488.63,-37.75"/>
<polygon fill="#63b8ff" stroke="#63b8ff" points="493.82,-38.33 488.6,-40.01 491.34,-38.05 488.86,-37.77 488.86,-37.77 488.86,-37.77 491.34,-38.05 489.11,-35.53 493.82,-38.33 493.82,-38.33"/>
</a>
</g>
</g>
<!-- Node5 -->
<g id="Node000005" class="node">
<title>Node5</title>
<g id="a_Node000005"><a xlink:href="../../dc/dfa/classColorButton.html#a33fe75df7dbc8f1f76389975a9776332" target="_top" xlink:title=" ">
<polygon fill="white" stroke="#666666" points="642,-19 493,-19 493,0 642,0 642,-19"/>
<text text-anchor="middle" x="567.5" y="-7" font-family="Helvetica,sans-Serif" font-size="10.00">ColorButton::updateSwatch</text>
</a>
</g>
</g>
<!-- Node3&#45;&gt;Node5 -->
<g id="edge4_Node000003_Node000005" class="edge">
<title>Node3&#45;&gt;Node5</title>
<g id="a_edge4_Node000003_Node000005"><a xlink:title=" ">
<path fill="none" stroke="#63b8ff" d="M457.08,-21.15C467.05,-20.09 477.52,-18.98 487.87,-17.87"/>
<polygon fill="#63b8ff" stroke="#63b8ff" points="492.94,-17.33 488.21,-20.1 490.45,-17.6 487.97,-17.86 487.97,-17.86 487.97,-17.86 490.45,-17.6 487.73,-15.63 492.94,-17.33 492.94,-17.33"/>
</a>
</g>
</g>
</g>
</svg>
