<?xml version="1.0" encoding="UTF-8" standalone="no"?>
<!DOCTYPE svg PUBLIC "-//W3C//DTD SVG 1.1//EN"
 "http://www.w3.org/Graphics/SVG/1.1/DTD/svg11.dtd">
<!-- Generated by graphviz version 2.43.0 (0)
 -->
<!-- Title: UserListPainter::drawCountryFlag Pages: 1 -->
<svg width="575pt" height="38pt"
 viewBox="0.00 0.00 575.00 38.00" xmlns="http://www.w3.org/2000/svg" xmlns:xlink="http://www.w3.org/1999/xlink">
<g id="graph0" class="graph" transform="scale(1 1) rotate(0) translate(4 34)">
<title>UserListPainter::drawCountryFlag</title>
<!-- Node1 -->
<g id="Node000001" class="node">
<title>Node1</title>
<g id="a_Node000001"><a xlink:title=" ">
<polygon fill="#999999" stroke="#666666" points="179,-24.5 0,-24.5 0,-5.5 179,-5.5 179,-24.5"/>
<text text-anchor="middle" x="89.5" y="-12.5" font-family="Helvetica,sans-Serif" font-size="10.00">UserListPainter::drawCountryFlag</text>
</a>
</g>
</g>
<!-- Node2 -->
<g id="Node000002" class="node">
<title>Node2</title>
<g id="a_Node000002"><a xlink:href="../../db/d2a/classCountryPixmapGenerator.html#ae96ee5076391365a20cbb37c9792328e" target="_top" xlink:title=" ">
<polygon fill="white" stroke="#666666" points="355,-30 215,-30 215,0 355,0 355,-30"/>
<text text-anchor="start" x="223" y="-18" font-family="Helvetica,sans-Serif" font-size="10.00">CountryPixmapGenerator</text>
<text text-anchor="middle" x="285" y="-7" font-family="Helvetica,sans-Serif" font-size="10.00">::generatePixmap</text>
</a>
</g>
</g>
<!-- Node1&#45;&gt;Node2 -->
<g id="edge1_Node000001_Node000002" class="edge">
<title>Node1&#45;&gt;Node2</title>
<g id="a_edge1_Node000001_Node000002"><a xlink:title=" ">
<path fill="none" stroke="#63b8ff" d="M179.04,-15C189.29,-15 199.67,-15 209.71,-15"/>
<polygon fill="#63b8ff" stroke="#63b8ff" points="214.92,-15 209.92,-17.25 212.42,-15 209.92,-15 209.92,-15 209.92,-15 212.42,-15 209.92,-12.75 214.92,-15 214.92,-15"/>
</a>
</g>
</g>
<!-- Node3 -->
<g id="Node000003" class="node">
<title>Node3</title>
<g id="a_Node000003"><a xlink:href="../../de/db8/pixel__map__generator_8cpp.html#a6cfe65fb28ed67863cea38029bcf9654" target="_top" xlink:title=" ">
<polygon fill="white" stroke="#666666" points="475,-24.5 391,-24.5 391,-5.5 475,-5.5 475,-24.5"/>
<text text-anchor="middle" x="433" y="-12.5" font-family="Helvetica,sans-Serif" font-size="10.00">tryLoadImage</text>
</a>
</g>
</g>
<!-- Node2&#45;&gt;Node3 -->
<g id="edge2_Node000002_Node000003" class="edge">
<title>Node2&#45;&gt;Node3</title>
<g id="a_edge2_Node000002_Node000003"><a xlink:title=" ">
<path fill="none" stroke="#63b8ff" d="M355.15,-15C365.57,-15 376.09,-15 385.87,-15"/>
<polygon fill="#63b8ff" stroke="#63b8ff" points="390.91,-15 385.91,-17.25 388.41,-15 385.91,-15 385.91,-15 385.91,-15 388.41,-15 385.91,-12.75 390.91,-15 390.91,-15"/>
</a>
</g>
</g>
<!-- Node4 -->
<g id="Node000004" class="node">
<title>Node4</title>
<g id="a_Node000004"><a xlink:href="../../de/db8/pixel__map__generator_8cpp.html#a6752fa5d3c1c1130fe5ea7d1461addd5" target="_top" xlink:title=" ">
<polygon fill="white" stroke="#666666" points="567,-24.5 511,-24.5 511,-5.5 567,-5.5 567,-24.5"/>
<text text-anchor="middle" x="539" y="-12.5" font-family="Helvetica,sans-Serif" font-size="10.00">loadSvg</text>
</a>
</g>
</g>
<!-- Node3&#45;&gt;Node4 -->
<g id="edge3_Node000003_Node000004" class="edge">
<title>Node3&#45;&gt;Node4</title>
<g id="a_edge3_Node000003_Node000004"><a xlink:title=" ">
<path fill="none" stroke="#63b8ff" d="M475.1,-15C485.26,-15 496,-15 505.67,-15"/>
<polygon fill="#63b8ff" stroke="#63b8ff" points="510.92,-15 505.92,-17.25 508.42,-15 505.92,-15 505.92,-15 505.92,-15 508.42,-15 505.92,-12.75 510.92,-15 510.92,-15"/>
</a>
</g>
</g>
</g>
</svg>
