<?xml version="1.0" encoding="UTF-8" standalone="no"?>
<!DOCTYPE svg PUBLIC "-//W3C//DTD SVG 1.1//EN"
 "http://www.w3.org/Graphics/SVG/1.1/DTD/svg11.dtd">
<!-- Generated by graphviz version 2.43.0 (0)
 -->
<!-- Title: DeckViewScene::setDeck Pages: 1 -->
<!--zoomable 392 -->

<svg id="main" version="1.1" xmlns="http://www.w3.org/2000/svg" xmlns:xlink="http://www.w3.org/1999/xlink" xml:space="preserve" onload="init(evt)">

<style type="text/css"><![CDATA[
.node, .edge {opacity: 0.7;}
.node.selected, .edge.selected {opacity: 1;}
.edge:hover path { stroke: red; }
.edge:hover polygon { stroke: red; fill: red; }
]]></style>

<defs>
  <circle id="rim" cx="0" cy="0" r="7"/>
  <circle id="rim2" cx="0" cy="0" r="3.5"/>
  <g id="zoomPlus">
    <use xlink:href="#rim" fill="#404040"><set attributeName="fill" to="#808080" begin="zoomplus.mouseover" end="zoomplus.mouseout"/></use>
    <path d="M-4,0h8M0,-4v8" fill="none" stroke="white" stroke-width="1.5" pointer-events="none"/>
  </g>
  <g id="zoomMin">
    <use xlink:href="#rim" fill="#404040"><set attributeName="fill" to="#808080" begin="zoomminus.mouseover" end="zoomminus.mouseout"/></use>
    <path d="M-4,0h8" fill="none" stroke="white" stroke-width="1.5" pointer-events="none"/>
  </g>
  <g id="arrowUp" transform="translate(30 24)">
    <use xlink:href="#rim"/>
    <path pointer-events="none" fill="none" stroke="white" stroke-width="1.5" d="M0,-3.0v7 M-2.5,-0.5L0,-3.0L2.5,-0.5"/>
  </g>
  <g id="arrowRight" transform="rotate(90) translate(36 -43)">
    <use xlink:href="#rim"/>
    <path pointer-events="none" fill="none" stroke="white" stroke-width="1.5" d="M0,-3.0v7 M-2.5,-0.5L0,-3.0L2.5,-0.5"/>
  </g>
  <g id="arrowDown" transform="rotate(180) translate(-30 -48)">
    <use xlink:href="#rim"/>
    <path pointer-events="none" fill="none" stroke="white" stroke-width="1.5" d="M0,-3.0v7 M-2.5,-0.5L0,-3.0L2.5,-0.5"/>
  </g>
  <g id="arrowLeft" transform="rotate(270) translate(-36 17)">
    <use xlink:href="#rim"/>
    <path pointer-events="none" fill="none" stroke="white" stroke-width="1.5" d="M0,-3.0v7 M-2.5,-0.5L0,-3.0L2.5,-0.5"/>
  </g>
  <g id="resetDef">
    <use xlink:href="#rim2" fill="#404040"><set attributeName="fill" to="#808080" begin="reset.mouseover" end="reset.mouseout"/></use>
  </g>
</defs>
<script type="application/ecmascript">
var viewWidth = 981;
var viewHeight = 392;
var sectionId = 'dynsection-13';
</script>
<script type="application/ecmascript" xlink:href="../../svg.min.js"/>
<svg id="graph" class="graph">
<g id="viewport">
<title>DeckViewScene::setDeck</title>
<!-- Node1 -->
<g id="Node000001" class="node">
<title>Node1</title>
<g id="a_Node000001"><a xlink:title=" ">
<polygon fill="#999999" stroke="#666666" points="140,-153 0,-153 0,-134 140,-134 140,-153"/>
<text text-anchor="middle" x="70" y="-141" font-family="Helvetica,sans-Serif" font-size="10.00">DeckViewScene::setDeck</text>
</a>
</g>
</g>
<!-- Node2 -->
<g id="Node000002" class="node">
<title>Node2</title>
<g id="a_Node000002"><a xlink:href="../../db/db5/classDeckViewScene.html#a1dc6963016019597efef2eddee57c0ea" target="_top" xlink:title=" ">
<polygon fill="white" stroke="#666666" points="373,-306 176,-306 176,-287 373,-287 373,-306"/>
<text text-anchor="middle" x="274.5" y="-294" font-family="Helvetica,sans-Serif" font-size="10.00">DeckViewScene::applySideboardPlan</text>
</a>
</g>
</g>
<!-- Node1&#45;&gt;Node2 -->
<g id="edge1_Node000001_Node000002" class="edge">
<title>Node1&#45;&gt;Node2</title>
<g id="a_edge1_Node000001_Node000002"><a xlink:title=" ">
<path fill="none" stroke="#63b8ff" d="M83.67,-153.07C118.76,-179.58 217.22,-253.98 256.76,-283.85"/>
<polygon fill="#63b8ff" stroke="#63b8ff" points="260.84,-286.93 255.49,-285.71 258.84,-285.43 256.85,-283.92 256.85,-283.92 256.85,-283.92 258.84,-285.43 258.2,-282.12 260.84,-286.93 260.84,-286.93"/>
</a>
</g>
</g>
<!-- Node12 -->
<g id="Node000012" class="node">
<title>Node12</title>
<g id="a_Node000012"><a xlink:href="../../db/db5/classDeckViewScene.html#a94676f138bf786b37359bf247b50d415" target="_top" xlink:title=" ">
<polygon fill="white" stroke="#666666" points="348.5,-115.5 200.5,-115.5 200.5,-85.5 348.5,-85.5 348.5,-115.5"/>
<text text-anchor="start" x="208.5" y="-103.5" font-family="Helvetica,sans-Serif" font-size="10.00">DeckViewScene::rearrange</text>
<text text-anchor="middle" x="274.5" y="-92.5" font-family="Helvetica,sans-Serif" font-size="10.00">Items</text>
</a>
</g>
</g>
<!-- Node1&#45;&gt;Node12 -->
<g id="edge15_Node000001_Node000012" class="edge">
<title>Node1&#45;&gt;Node12</title>
<g id="a_edge15_Node000001_Node000012"><a xlink:title=" ">
<path fill="none" stroke="#63b8ff" d="M115.94,-133.96C139.96,-128.86 170.19,-122.44 197.72,-116.59"/>
<polygon fill="#63b8ff" stroke="#63b8ff" points="202.83,-115.51 198.41,-118.75 200.39,-116.03 197.94,-116.54 197.94,-116.54 197.94,-116.54 200.39,-116.03 197.47,-114.34 202.83,-115.51 202.83,-115.51"/>
</a>
</g>
</g>
<!-- Node19 -->
<g id="Node000019" class="node">
<title>Node19</title>
<g id="a_Node000019"><a xlink:href="../../db/db5/classDeckViewScene.html#a2da677e406174d2ba26a206dccb38cd8" target="_top" xlink:title=" ">
<polygon fill="white" stroke="#666666" points="352,-196 197,-196 197,-177 352,-177 352,-196"/>
<text text-anchor="middle" x="274.5" y="-184" font-family="Helvetica,sans-Serif" font-size="10.00">DeckViewScene::rebuildTree</text>
</a>
</g>
</g>
<!-- Node1&#45;&gt;Node19 -->
<g id="edge23_Node000001_Node000019" class="edge">
<title>Node1&#45;&gt;Node19</title>
<g id="a_edge23_Node000001_Node000019"><a xlink:title=" ">
<path fill="none" stroke="#63b8ff" d="M115.94,-153.04C147.79,-159.81 190.55,-168.89 223.49,-175.88"/>
<polygon fill="#63b8ff" stroke="#63b8ff" points="228.68,-176.98 223.33,-178.15 226.24,-176.46 223.79,-175.94 223.79,-175.94 223.79,-175.94 226.24,-176.46 224.26,-173.74 228.68,-176.98 228.68,-176.98"/>
</a>
</g>
</g>
<!-- Node23 -->
<g id="Node000023" class="node">
<title>Node23</title>
<g id="a_Node000023"><a xlink:href="../../da/d68/classDeckList.html#a79d6a068df3b2a323a04621fb3ecb8b0" target="_top" xlink:title=" ">
<polygon fill="white" stroke="#666666" points="338.5,-46.5 210.5,-46.5 210.5,-16.5 338.5,-16.5 338.5,-46.5"/>
<text text-anchor="start" x="218.5" y="-34.5" font-family="Helvetica,sans-Serif" font-size="10.00">DeckList::writeToString</text>
<text text-anchor="middle" x="274.5" y="-23.5" font-family="Helvetica,sans-Serif" font-size="10.00">_Native</text>
</a>
</g>
</g>
<!-- Node1&#45;&gt;Node23 -->
<g id="edge28_Node000001_Node000023" class="edge">
<title>Node1&#45;&gt;Node23</title>
<g id="a_edge28_Node000001_Node000023"><a xlink:title=" ">
<path fill="none" stroke="#63b8ff" d="M84.9,-133.77C104.65,-120.14 142.22,-94.96 176,-76.5 194.24,-66.53 215.09,-56.71 232.82,-48.79"/>
<polygon fill="#63b8ff" stroke="#63b8ff" points="237.73,-46.61 234.07,-50.7 235.44,-47.63 233.16,-48.64 233.16,-48.64 233.16,-48.64 235.44,-47.63 232.25,-46.59 237.73,-46.61 237.73,-46.61"/>
</a>
</g>
</g>
<!-- Node3 -->
<g id="Node000003" class="node">
<title>Node3</title>
<g id="a_Node000003"><a xlink:href="../../d9/dfc/classDeckViewCardContainer.html#a2f04cd76b308f9489c05af9a5d1d1980" target="_top" xlink:title=" ">
<polygon fill="white" stroke="#666666" points="563.5,-287.5 428.5,-287.5 428.5,-257.5 563.5,-257.5 563.5,-287.5"/>
<text text-anchor="start" x="436.5" y="-275.5" font-family="Helvetica,sans-Serif" font-size="10.00">DeckViewCardContainer</text>
<text text-anchor="middle" x="496" y="-264.5" font-family="Helvetica,sans-Serif" font-size="10.00">::addCard</text>
</a>
</g>
</g>
<!-- Node2&#45;&gt;Node3 -->
<g id="edge2_Node000002_Node000003" class="edge">
<title>Node2&#45;&gt;Node3</title>
<g id="a_edge2_Node000002_Node000003"><a xlink:title=" ">
<path fill="none" stroke="#63b8ff" d="M362.57,-286.98C382.59,-284.79 403.66,-282.49 422.97,-280.38"/>
<polygon fill="#63b8ff" stroke="#63b8ff" points="428.36,-279.79 423.64,-282.57 425.88,-280.06 423.39,-280.33 423.39,-280.33 423.39,-280.33 425.88,-280.06 423.15,-278.09 428.36,-279.79 428.36,-279.79"/>
</a>
</g>
</g>
<!-- Node10 -->
<g id="Node000010" class="node">
<title>Node10</title>
<g id="a_Node000010"><a xlink:href="../../d9/dfc/classDeckViewCardContainer.html#a0cecec39c2cf1622a03a9c59f7b7ee30" target="_top" xlink:title=" ">
<polygon fill="white" stroke="#666666" points="563.5,-383.5 428.5,-383.5 428.5,-353.5 563.5,-353.5 563.5,-383.5"/>
<text text-anchor="start" x="436.5" y="-371.5" font-family="Helvetica,sans-Serif" font-size="10.00">DeckViewCardContainer</text>
<text text-anchor="middle" x="496" y="-360.5" font-family="Helvetica,sans-Serif" font-size="10.00">::getCards</text>
</a>
</g>
</g>
<!-- Node2&#45;&gt;Node10 -->
<g id="edge9_Node000002_Node000010" class="edge">
<title>Node2&#45;&gt;Node10</title>
<g id="a_edge9_Node000002_Node000010"><a xlink:title=" ">
<path fill="none" stroke="#63b8ff" d="M300.41,-306.07C327.09,-316.18 370.75,-332.3 409,-344.5 416.95,-347.03 425.36,-349.56 433.68,-351.98"/>
<polygon fill="#63b8ff" stroke="#63b8ff" points="438.85,-353.47 433.42,-354.25 436.45,-352.78 434.04,-352.08 434.04,-352.08 434.04,-352.08 436.45,-352.78 434.67,-349.92 438.85,-353.47 438.85,-353.47"/>
</a>
</g>
</g>
<!-- Node11 -->
<g id="Node000011" class="node">
<title>Node11</title>
<g id="a_Node000011"><a xlink:href="../../d9/dfc/classDeckViewCardContainer.html#afda869561e43c22d93638920c3736f8c" target="_top" xlink:title=" ">
<polygon fill="white" stroke="#666666" points="563.5,-335.5 428.5,-335.5 428.5,-305.5 563.5,-305.5 563.5,-335.5"/>
<text text-anchor="start" x="436.5" y="-323.5" font-family="Helvetica,sans-Serif" font-size="10.00">DeckViewCardContainer</text>
<text text-anchor="middle" x="496" y="-312.5" font-family="Helvetica,sans-Serif" font-size="10.00">::removeCard</text>
</a>
</g>
</g>
<!-- Node2&#45;&gt;Node11 -->
<g id="edge10_Node000002_Node000011" class="edge">
<title>Node2&#45;&gt;Node11</title>
<g id="a_edge10_Node000002_Node000011"><a xlink:title=" ">
<path fill="none" stroke="#63b8ff" d="M362.57,-306.02C382.59,-308.21 403.66,-310.51 422.97,-312.62"/>
<polygon fill="#63b8ff" stroke="#63b8ff" points="428.36,-313.21 423.15,-314.91 425.88,-312.94 423.39,-312.67 423.39,-312.67 423.39,-312.67 425.88,-312.94 423.64,-310.43 428.36,-313.21 428.36,-313.21"/>
</a>
</g>
</g>
<!-- Node4 -->
<g id="Node000004" class="node">
<title>Node4</title>
<g id="a_Node000004"><a xlink:href="../../d4/db9/classAbstractCardItem.html#aa79097093eccf85abf0459c37765d2d3" target="_top" xlink:title=" ">
<polygon fill="white" stroke="#666666" points="774.5,-250 628.5,-250 628.5,-231 774.5,-231 774.5,-250"/>
<text text-anchor="middle" x="701.5" y="-238" font-family="Helvetica,sans-Serif" font-size="10.00">AbstractCardItem::getCard</text>
</a>
</g>
</g>
<!-- Node3&#45;&gt;Node4 -->
<g id="edge3_Node000003_Node000004" class="edge">
<title>Node3&#45;&gt;Node4</title>
<g id="a_edge3_Node000003_Node000004"><a xlink:title=" ">
<path fill="none" stroke="#63b8ff" d="M563.63,-262.02C586.48,-258.43 612.02,-254.41 634.79,-250.83"/>
<polygon fill="#63b8ff" stroke="#63b8ff" points="639.91,-250.03 635.32,-253.03 637.44,-250.42 634.97,-250.8 634.97,-250.8 634.97,-250.8 637.44,-250.42 634.62,-248.58 639.91,-250.03 639.91,-250.03"/>
</a>
</g>
</g>
<!-- Node5 -->
<g id="Node000005" class="node">
<title>Node5</title>
<g id="a_Node000005"><a xlink:href="../../d4/db9/classAbstractCardItem.html#aeda9d0b5eb73ed0e3076a1390e5d8e99" target="_top" xlink:title=" ">
<polygon fill="white" stroke="#666666" points="784,-361 619,-361 619,-342 784,-342 784,-361"/>
<text text-anchor="middle" x="701.5" y="-349" font-family="Helvetica,sans-Serif" font-size="10.00">AbstractCardItem::getCardInfo</text>
</a>
</g>
</g>
<!-- Node3&#45;&gt;Node5 -->
<g id="edge4_Node000003_Node000005" class="edge">
<title>Node3&#45;&gt;Node5</title>
<g id="a_edge4_Node000003_Node000005"><a xlink:title=" ">
<path fill="none" stroke="#63b8ff" d="M563.74,-287.28C570.45,-289.89 577,-292.94 583,-296.5 602.73,-308.21 598.96,-322.33 619,-333.5 623.65,-336.09 628.65,-338.31 633.79,-340.21"/>
<polygon fill="#63b8ff" stroke="#63b8ff" points="638.56,-341.86 633.09,-342.35 636.19,-341.04 633.83,-340.22 633.83,-340.22 633.83,-340.22 636.19,-341.04 634.57,-338.1 638.56,-341.86 638.56,-341.86"/>
</a>
</g>
</g>
<!-- Node6 -->
<g id="Node000006" class="node">
<title>Node6</title>
<g id="a_Node000006"><a xlink:href="../../dd/dd2/classCardInfo.html#ad330081e324e48e4ec53f389713c7a09" target="_top" xlink:title=" ">
<polygon fill="white" stroke="#666666" points="776,-324 627,-324 627,-305 776,-305 776,-324"/>
<text text-anchor="middle" x="701.5" y="-312" font-family="Helvetica,sans-Serif" font-size="10.00">CardInfo::getMainCardType</text>
</a>
</g>
</g>
<!-- Node3&#45;&gt;Node6 -->
<g id="edge5_Node000003_Node000006" class="edge">
<title>Node3&#45;&gt;Node6</title>
<g id="a_edge5_Node000003_Node000006"><a xlink:title=" ">
<path fill="none" stroke="#63b8ff" d="M563.63,-286.25C591.45,-291.99 623.27,-298.56 649.21,-303.92"/>
<polygon fill="#63b8ff" stroke="#63b8ff" points="654.32,-304.97 648.97,-306.16 651.87,-304.46 649.43,-303.96 649.43,-303.96 649.43,-303.96 651.87,-304.46 649.88,-301.76 654.32,-304.97 654.32,-304.97"/>
</a>
</g>
</g>
<!-- Node9 -->
<g id="Node000009" class="node">
<title>Node9</title>
<g id="a_Node000009"><a xlink:href="../../df/d4e/classExactCard.html#afcc79d97461c45bb10dbceab00f5d57a" target="_top" xlink:title="Indicates whether this ExactCard represents no valid card.">
<polygon fill="white" stroke="#666666" points="757.5,-287 645.5,-287 645.5,-268 757.5,-268 757.5,-287"/>
<text text-anchor="middle" x="701.5" y="-275" font-family="Helvetica,sans-Serif" font-size="10.00">ExactCard::isEmpty</text>
</a>
</g>
</g>
<!-- Node3&#45;&gt;Node9 -->
<g id="edge8_Node000003_Node000009" class="edge">
<title>Node3&#45;&gt;Node9</title>
<g id="a_edge8_Node000003_Node000009"><a xlink:title=" ">
<path fill="none" stroke="#63b8ff" d="M563.63,-274.14C588.31,-274.74 616.12,-275.43 640.2,-276.02"/>
<polygon fill="#63b8ff" stroke="#63b8ff" points="645.28,-276.14 640.23,-278.27 642.78,-276.08 640.28,-276.02 640.28,-276.02 640.28,-276.02 642.78,-276.08 640.34,-273.77 645.28,-276.14 645.28,-276.14"/>
</a>
</g>
</g>
<!-- Node7 -->
<g id="Node000007" class="node">
<title>Node7</title>
<g id="a_Node000007"><a xlink:href="../../dd/dd2/classCardInfo.html#abbd0d10e28cfb3ea1ec54d6c764b97a4" target="_top" xlink:title=" ">
<polygon fill="white" stroke="#666666" points="957,-342 836,-342 836,-323 957,-323 957,-342"/>
<text text-anchor="middle" x="896.5" y="-330" font-family="Helvetica,sans-Serif" font-size="10.00">CardInfo::getProperty</text>
</a>
</g>
</g>
<!-- Node6&#45;&gt;Node7 -->
<g id="edge6_Node000006_Node000007" class="edge">
<title>Node6&#45;&gt;Node7</title>
<g id="a_edge6_Node000006_Node000007"><a xlink:title=" ">
<path fill="none" stroke="#63b8ff" d="M776.02,-321.36C793.97,-323.03 813.06,-324.81 830.58,-326.45"/>
<polygon fill="#63b8ff" stroke="#63b8ff" points="835.96,-326.95 830.78,-328.72 833.47,-326.72 830.98,-326.48 830.98,-326.48 830.98,-326.48 833.47,-326.72 831.19,-324.24 835.96,-326.95 835.96,-326.95"/>
</a>
</g>
</g>
<!-- Node8 -->
<g id="Node000008" class="node">
<title>Node8</title>
<g id="a_Node000008"><a xlink:href="../../db/d09/namespaceMtg.html#a8b1a66b6f4507b51736651f1d13e5215" target="_top" xlink:title=" ">
<polygon fill="white" stroke="#666666" points="951.5,-305 841.5,-305 841.5,-286 951.5,-286 951.5,-305"/>
<text text-anchor="middle" x="896.5" y="-293" font-family="Helvetica,sans-Serif" font-size="10.00">Mtg::MainCardType</text>
</a>
</g>
</g>
<!-- Node6&#45;&gt;Node8 -->
<g id="edge7_Node000006_Node000008" class="edge">
<title>Node6&#45;&gt;Node8</title>
<g id="a_edge7_Node000006_Node000008"><a xlink:title=" ">
<path fill="none" stroke="#63b8ff" d="M776.02,-307.26C795.88,-305.31 817.12,-303.22 836.11,-301.35"/>
<polygon fill="#63b8ff" stroke="#63b8ff" points="841.4,-300.83 836.64,-303.56 838.91,-301.07 836.42,-301.32 836.42,-301.32 836.42,-301.32 838.91,-301.07 836.2,-299.08 841.4,-300.83 841.4,-300.83"/>
</a>
</g>
</g>
<!-- Node11&#45;&gt;Node4 -->
<g id="edge11_Node000011_Node000004" class="edge">
<title>Node11&#45;&gt;Node4</title>
<g id="a_edge11_Node000011_Node000004"><a xlink:title=" ">
<path fill="none" stroke="#63b8ff" d="M563.74,-305.72C570.45,-303.11 577,-300.06 583,-296.5 602.73,-284.79 599.02,-270.78 619,-259.5 624.34,-256.49 630.13,-253.95 636.08,-251.81"/>
<polygon fill="#63b8ff" stroke="#63b8ff" points="641.11,-250.11 637.09,-253.85 638.74,-250.92 636.37,-251.72 636.37,-251.72 636.37,-251.72 638.74,-250.92 635.65,-249.58 641.11,-250.11 641.11,-250.11"/>
</a>
</g>
</g>
<!-- Node11&#45;&gt;Node5 -->
<g id="edge12_Node000011_Node000005" class="edge">
<title>Node11&#45;&gt;Node5</title>
<g id="a_edge12_Node000011_Node000005"><a xlink:title=" ">
<path fill="none" stroke="#63b8ff" d="M563.63,-330.65C585.83,-334.03 610.58,-337.8 632.85,-341.19"/>
<polygon fill="#63b8ff" stroke="#63b8ff" points="637.86,-341.96 632.58,-343.43 635.39,-341.58 632.92,-341.2 632.92,-341.2 632.92,-341.2 635.39,-341.58 633.26,-338.98 637.86,-341.96 637.86,-341.96"/>
</a>
</g>
</g>
<!-- Node11&#45;&gt;Node6 -->
<g id="edge13_Node000011_Node000006" class="edge">
<title>Node11&#45;&gt;Node6</title>
<g id="a_edge13_Node000011_Node000006"><a xlink:title=" ">
<path fill="none" stroke="#63b8ff" d="M563.63,-318.54C582.07,-317.99 602.26,-317.4 621.33,-316.83"/>
<polygon fill="#63b8ff" stroke="#63b8ff" points="626.68,-316.68 621.75,-319.07 624.18,-316.75 621.68,-316.82 621.68,-316.82 621.68,-316.82 624.18,-316.75 621.62,-314.57 626.68,-316.68 626.68,-316.68"/>
</a>
</g>
</g>
<!-- Node11&#45;&gt;Node9 -->
<g id="edge14_Node000011_Node000009" class="edge">
<title>Node11&#45;&gt;Node9</title>
<g id="a_edge14_Node000011_Node000009"><a xlink:title=" ">
<path fill="none" stroke="#63b8ff" d="M563.63,-306.42C591.78,-300.47 624.01,-293.66 650.12,-288.14"/>
<polygon fill="#63b8ff" stroke="#63b8ff" points="655.26,-287.06 650.83,-290.29 652.82,-287.58 650.37,-288.09 650.37,-288.09 650.37,-288.09 652.82,-287.58 649.9,-285.89 655.26,-287.06 655.26,-287.06"/>
</a>
</g>
</g>
<!-- Node13 -->
<g id="Node000013" class="node">
<title>Node13</title>
<g id="a_Node000013"><a xlink:href="../../d9/dfc/classDeckViewCardContainer.html#a1ed24c7d009751a75381c9cc4d20ded4" target="_top" xlink:title=" ">
<polygon fill="white" stroke="#666666" points="563.5,-67.5 428.5,-67.5 428.5,-37.5 563.5,-37.5 563.5,-67.5"/>
<text text-anchor="start" x="436.5" y="-55.5" font-family="Helvetica,sans-Serif" font-size="10.00">DeckViewCardContainer</text>
<text text-anchor="middle" x="496" y="-44.5" font-family="Helvetica,sans-Serif" font-size="10.00">::boundingRect</text>
</a>
</g>
</g>
<!-- Node12&#45;&gt;Node13 -->
<g id="edge16_Node000012_Node000013" class="edge">
<title>Node12&#45;&gt;Node13</title>
<g id="a_edge16_Node000012_Node000013"><a xlink:title=" ">
<path fill="none" stroke="#63b8ff" d="M344.35,-85.44C369.46,-79.95 397.89,-73.74 423.25,-68.19"/>
<polygon fill="#63b8ff" stroke="#63b8ff" points="428.27,-67.09 423.87,-70.36 425.83,-67.63 423.39,-68.16 423.39,-68.16 423.39,-68.16 425.83,-67.63 422.91,-65.96 428.27,-67.09 428.27,-67.09"/>
</a>
</g>
</g>
<!-- Node14 -->
<g id="Node000014" class="node">
<title>Node14</title>
<g id="a_Node000014"><a xlink:href="../../d9/dfc/classDeckViewCardContainer.html#af037a05119c26971d5392ddab0e4e981" target="_top" xlink:title=" ">
<polygon fill="white" stroke="#666666" points="563.5,-115.5 428.5,-115.5 428.5,-85.5 563.5,-85.5 563.5,-115.5"/>
<text text-anchor="start" x="436.5" y="-103.5" font-family="Helvetica,sans-Serif" font-size="10.00">DeckViewCardContainer</text>
<text text-anchor="middle" x="496" y="-92.5" font-family="Helvetica,sans-Serif" font-size="10.00">::rearrangeItems</text>
</a>
</g>
</g>
<!-- Node12&#45;&gt;Node14 -->
<g id="edge17_Node000012_Node000014" class="edge">
<title>Node12&#45;&gt;Node14</title>
<g id="a_edge17_Node000012_Node000014"><a xlink:title=" ">
<path fill="none" stroke="#63b8ff" d="M348.59,-100.5C372.58,-100.5 399.2,-100.5 423.09,-100.5"/>
<polygon fill="#63b8ff" stroke="#63b8ff" points="428.15,-100.5 423.15,-102.75 425.65,-100.5 423.15,-100.5 423.15,-100.5 423.15,-100.5 425.65,-100.5 423.15,-98.25 428.15,-100.5 428.15,-100.5"/>
</a>
</g>
</g>
<!-- Node15 -->
<g id="Node000015" class="node">
<title>Node15</title>
<g id="a_Node000015"><a xlink:href="../../d9/dfc/classDeckViewCardContainer.html#a33c7725956d034775640232285473a5b" target="_top" xlink:title=" ">
<polygon fill="white" stroke="#666666" points="769,-115.5 634,-115.5 634,-85.5 769,-85.5 769,-115.5"/>
<text text-anchor="start" x="642" y="-103.5" font-family="Helvetica,sans-Serif" font-size="10.00">DeckViewCardContainer</text>
<text text-anchor="middle" x="701.5" y="-92.5" font-family="Helvetica,sans-Serif" font-size="10.00">::calculateBoundingRect</text>
</a>
</g>
</g>
<!-- Node14&#45;&gt;Node15 -->
<g id="edge18_Node000014_Node000015" class="edge">
<title>Node14&#45;&gt;Node15</title>
<g id="a_edge18_Node000014_Node000015"><a xlink:title=" ">
<path fill="none" stroke="#63b8ff" d="M563.63,-100.5C584.45,-100.5 607.51,-100.5 628.67,-100.5"/>
<polygon fill="#63b8ff" stroke="#63b8ff" points="633.72,-100.5 628.72,-102.75 631.22,-100.5 628.72,-100.5 628.72,-100.5 628.72,-100.5 631.22,-100.5 628.72,-98.25 633.72,-100.5 633.72,-100.5"/>
</a>
</g>
</g>
<!-- Node16 -->
<g id="Node000016" class="node">
<title>Node16</title>
<g id="a_Node000016"><a xlink:href="../../d9/dfc/classDeckViewCardContainer.html#a4d4db6d2504e3d8adde93af44d5487c6" target="_top" xlink:title=" ">
<polygon fill="white" stroke="#666666" points="964,-94.5 829,-94.5 829,-64.5 964,-64.5 964,-94.5"/>
<text text-anchor="start" x="837" y="-82.5" font-family="Helvetica,sans-Serif" font-size="10.00">DeckViewCardContainer</text>
<text text-anchor="middle" x="896.5" y="-71.5" font-family="Helvetica,sans-Serif" font-size="10.00">::getCardTypeTextWidth</text>
</a>
</g>
</g>
<!-- Node14&#45;&gt;Node16 -->
<g id="edge20_Node000014_Node000016" class="edge">
<title>Node14&#45;&gt;Node16</title>
<g id="a_edge20_Node000014_Node000016"><a xlink:title=" ">
<path fill="none" stroke="#63b8ff" d="M561.24,-85.44C579.77,-81.75 600.09,-78.34 619,-76.5 691.99,-69.39 710.67,-75.51 784,-76.5 796.82,-76.67 810.47,-76.96 823.66,-77.28"/>
<polygon fill="#63b8ff" stroke="#63b8ff" points="828.88,-77.41 823.83,-79.54 826.38,-77.35 823.88,-77.29 823.88,-77.29 823.88,-77.29 826.38,-77.35 823.94,-75.04 828.88,-77.41 828.88,-77.41"/>
</a>
</g>
</g>
<!-- Node17 -->
<g id="Node000017" class="node">
<title>Node17</title>
<g id="a_Node000017"><a xlink:href="../../d9/dfc/classDeckViewCardContainer.html#a08dbc75e11163c8ee6deced736721bf9" target="_top" xlink:title=" ">
<polygon fill="white" stroke="#666666" points="769,-163.5 634,-163.5 634,-133.5 769,-133.5 769,-163.5"/>
<text text-anchor="start" x="642" y="-151.5" font-family="Helvetica,sans-Serif" font-size="10.00">DeckViewCardContainer</text>
<text text-anchor="middle" x="701.5" y="-140.5" font-family="Helvetica,sans-Serif" font-size="10.00">::sortCardsByName</text>
</a>
</g>
</g>
<!-- Node14&#45;&gt;Node17 -->
<g id="edge21_Node000014_Node000017" class="edge">
<title>Node14&#45;&gt;Node17</title>
<g id="a_edge21_Node000014_Node000017"><a xlink:title=" ">
<path fill="none" stroke="#63b8ff" d="M560.83,-115.56C583.47,-120.89 609.02,-126.92 632.03,-132.35"/>
<polygon fill="#63b8ff" stroke="#63b8ff" points="636.9,-133.5 631.51,-134.54 634.46,-132.92 632.03,-132.35 632.03,-132.35 632.03,-132.35 634.46,-132.92 632.55,-130.16 636.9,-133.5 636.9,-133.5"/>
</a>
</g>
</g>
<!-- Node15&#45;&gt;Node16 -->
<g id="edge19_Node000015_Node000016" class="edge">
<title>Node15&#45;&gt;Node16</title>
<g id="a_edge19_Node000015_Node000016"><a xlink:title=" ">
<path fill="none" stroke="#63b8ff" d="M769.19,-93.24C786.82,-91.33 805.92,-89.25 823.8,-87.3"/>
<polygon fill="#63b8ff" stroke="#63b8ff" points="828.81,-86.76 824.08,-89.53 826.32,-87.03 823.84,-87.3 823.84,-87.3 823.84,-87.3 826.32,-87.03 823.59,-85.06 828.81,-86.76 828.81,-86.76"/>
</a>
</g>
</g>
<!-- Node18 -->
<g id="Node000018" class="node">
<title>Node18</title>
<g id="a_Node000018"><a xlink:href="../../d4/db9/classAbstractCardItem.html#aa5991994d37be76d90226cec44488002" target="_top" xlink:title=" ">
<polygon fill="white" stroke="#666666" points="973,-158 820,-158 820,-139 973,-139 973,-158"/>
<text text-anchor="middle" x="896.5" y="-146" font-family="Helvetica,sans-Serif" font-size="10.00">AbstractCardItem::getName</text>
</a>
</g>
</g>
<!-- Node17&#45;&gt;Node18 -->
<g id="edge22_Node000017_Node000018" class="edge">
<title>Node17&#45;&gt;Node18</title>
<g id="a_edge22_Node000017_Node000018"><a xlink:title=" ">
<path fill="none" stroke="#63b8ff" d="M769.19,-148.5C783.87,-148.5 799.58,-148.5 814.75,-148.5"/>
<polygon fill="#63b8ff" stroke="#63b8ff" points="819.87,-148.5 814.87,-150.75 817.37,-148.5 814.87,-148.5 814.87,-148.5 814.87,-148.5 817.37,-148.5 814.87,-146.25 819.87,-148.5 819.87,-148.5"/>
</a>
</g>
</g>
<!-- Node19&#45;&gt;Node3 -->
<g id="edge24_Node000019_Node000003" class="edge">
<title>Node19&#45;&gt;Node3</title>
<g id="a_edge24_Node000019_Node000003"><a xlink:title=" ">
<path fill="none" stroke="#63b8ff" d="M293.67,-196.1C318.99,-209.2 366.56,-232.84 409,-248.5 416.09,-251.12 423.6,-253.61 431.11,-255.92"/>
<polygon fill="#63b8ff" stroke="#63b8ff" points="436.3,-257.5 430.86,-258.2 433.91,-256.77 431.52,-256.05 431.52,-256.05 431.52,-256.05 433.91,-256.77 432.17,-253.89 436.3,-257.5 436.3,-257.5"/>
</a>
</g>
</g>
<!-- Node20 -->
<g id="Node000020" class="node">
<title>Node20</title>
<g id="a_Node000020"><a xlink:href="../../db/db5/classDeckViewScene.html#a703ee020b0ce6652e7c10886088fc0d5" target="_top" xlink:title=" ">
<polygon fill="white" stroke="#666666" points="580,-239 412,-239 412,-220 580,-220 580,-239"/>
<text text-anchor="middle" x="496" y="-227" font-family="Helvetica,sans-Serif" font-size="10.00">DeckViewScene::clearContents</text>
</a>
</g>
</g>
<!-- Node19&#45;&gt;Node20 -->
<g id="edge25_Node000019_Node000020" class="edge">
<title>Node19&#45;&gt;Node20</title>
<g id="a_edge25_Node000019_Node000020"><a xlink:title=" ">
<path fill="none" stroke="#63b8ff" d="M324.21,-196.04C358.88,-202.83 405.47,-211.96 441.23,-218.97"/>
<polygon fill="#63b8ff" stroke="#63b8ff" points="446.42,-219.98 441.08,-221.23 443.97,-219.5 441.52,-219.02 441.52,-219.02 441.52,-219.02 443.97,-219.5 441.95,-216.81 446.42,-219.98 446.42,-219.98"/>
</a>
</g>
</g>
<!-- Node21 -->
<g id="Node000021" class="node">
<title>Node21</title>
<g id="a_Node000021"><a xlink:href="../../d9/dfc/classDeckViewCardContainer.html#a09cd92dcdf042e29b0eeb276270758d6" target="_top" xlink:title=" ">
<polygon fill="white" stroke="#666666" points="563.5,-201.5 428.5,-201.5 428.5,-171.5 563.5,-171.5 563.5,-201.5"/>
<text text-anchor="start" x="436.5" y="-189.5" font-family="Helvetica,sans-Serif" font-size="10.00">DeckViewCardContainer</text>
<text text-anchor="middle" x="496" y="-178.5" font-family="Helvetica,sans-Serif" font-size="10.00">::getName</text>
</a>
</g>
</g>
<!-- Node19&#45;&gt;Node21 -->
<g id="edge26_Node000019_Node000021" class="edge">
<title>Node19&#45;&gt;Node21</title>
<g id="a_edge26_Node000019_Node000021"><a xlink:title=" ">
<path fill="none" stroke="#63b8ff" d="M352.27,-186.5C375.37,-186.5 400.62,-186.5 423.38,-186.5"/>
<polygon fill="#63b8ff" stroke="#63b8ff" points="428.5,-186.5 423.5,-188.75 426,-186.5 423.5,-186.5 423.5,-186.5 423.5,-186.5 426,-186.5 423.5,-184.25 428.5,-186.5 428.5,-186.5"/>
</a>
</g>
</g>
<!-- Node22 -->
<g id="Node000022" class="node">
<title>Node22</title>
<g id="a_Node000022"><a xlink:href="../../db/db5/classDeckViewScene.html#ae9ddc44fbd89544efcb848b433e17dd2" target="_top" xlink:title=" ">
<polygon fill="white" stroke="#666666" points="583,-153 409,-153 409,-134 583,-134 583,-153"/>
<text text-anchor="middle" x="496" y="-141" font-family="Helvetica,sans-Serif" font-size="10.00">DeckViewScene::newCardAdded</text>
</a>
</g>
</g>
<!-- Node19&#45;&gt;Node22 -->
<g id="edge27_Node000019_Node000022" class="edge">
<title>Node19&#45;&gt;Node22</title>
<g id="a_edge27_Node000019_Node000022"><a xlink:title=" ">
<path fill="none" stroke="#63b8ff" d="M324.21,-176.96C358.88,-170.17 405.47,-161.04 441.23,-154.03"/>
<polygon fill="#63b8ff" stroke="#63b8ff" points="446.42,-153.02 441.95,-156.19 443.97,-153.5 441.52,-153.98 441.52,-153.98 441.52,-153.98 443.97,-153.5 441.08,-151.77 446.42,-153.02 446.42,-153.02"/>
</a>
</g>
</g>
<!-- Node24 -->
<g id="Node000024" class="node">
<title>Node24</title>
<g id="a_Node000024"><a xlink:href="../../da/d68/classDeckList.html#a9bef2e38b0a9b7f7138f0a1010c98ab8" target="_top" xlink:title=" ">
<polygon fill="white" stroke="#666666" points="540.5,-19 451.5,-19 451.5,0 540.5,0 540.5,-19"/>
<text text-anchor="middle" x="496" y="-7" font-family="Helvetica,sans-Serif" font-size="10.00">DeckList::write</text>
</a>
</g>
</g>
<!-- Node23&#45;&gt;Node24 -->
<g id="edge29_Node000023_Node000024" class="edge">
<title>Node23&#45;&gt;Node24</title>
<g id="a_edge29_Node000023_Node000024"><a xlink:title=" ">
<path fill="none" stroke="#63b8ff" d="M338.69,-25.17C372.96,-21.73 414.65,-17.55 446.36,-14.38"/>
<polygon fill="#63b8ff" stroke="#63b8ff" points="451.36,-13.87 446.6,-16.61 448.87,-14.12 446.38,-14.37 446.38,-14.37 446.38,-14.37 448.87,-14.12 446.16,-12.13 451.36,-13.87 451.36,-13.87"/>
</a>
</g>
</g>
</g>
</svg>

<g id="navigator" transform="translate(0 0)" fill="#404254">
  <rect fill="#f2f5e9" fill-opacity="0.5" stroke="#606060" stroke-width=".5" x="0" y="0" width="60" height="60"/>
  <use id="zoomplus" xlink:href="#zoomPlus" x="17" y="9" onmousedown="handleZoom(evt,'in')"/>
  <use id="zoomminus" xlink:href="#zoomMin" x="42" y="9" onmousedown="handleZoom(evt,'out')"/>
  <use id="reset" xlink:href="#resetDef" x="30" y="36" onmousedown="handleReset()"/>
   <use id="arrowup" xlink:href="#arrowUp" x="0" y="0" onmousedown="handlePan(0,-1)"/>
  <use id="arrowright" xlink:href="#arrowRight" x="0" y="0" onmousedown="handlePan(1,0)"/>
  <use id="arrowdown" xlink:href="#arrowDown" x="0" y="0" onmousedown="handlePan(0,1)"/>
  <use id="arrowleft" xlink:href="#arrowLeft" x="0" y="0" onmousedown="handlePan(-1,0)"/>
</g>
<svg viewBox="0 0 15 15" width="100%" height="30px" preserveAspectRatio="xMaxYMin meet">
 <g id="arrow_out" transform="scale(0.3 0.3)">
  <a xlink:href="classDeckViewScene_a105c89b7b15ea5d42259fe4878174aec_cgraph_org.svg" target="_base">
   <rect id="button" ry="5" rx="5" y="6" x="6" height="38" width="38"
        fill="#f2f5e9" fill-opacity="0.5" stroke="#606060" stroke-width="1.0"/>
   <path id="arrow"
     d="M 11.500037,31.436501 C 11.940474,20.09759 22.043105,11.32322 32.158766,21.979434 L 37.068811,17.246167 C 37.068811,17.246167 37.088388,32 37.088388,32 L 22.160133,31.978069 C 22.160133,31.978069 26.997745,27.140456 26.997745,27.140456 C 18.528582,18.264221 13.291696,25.230495 11.500037,31.436501 z"
     style="fill:#404040;"/>
  </a>
 </g>
</svg>

<style type='text/css'>
<![CDATA[
[data-mouse-over-selected='false'] { opacity: 0.7; }
[data-mouse-over-selected='true']  { opacity: 1.0; }
]]>
</style>
<script type="application/ecmascript"><![CDATA[
document.addEventListener('DOMContentLoaded', (event) => {
  highlightEdges();
  highlightAdjacentNodes();
});
]]></script>
</svg>
