<?xml version="1.0" encoding="UTF-8" standalone="no"?>
<!DOCTYPE svg PUBLIC "-//W3C//DTD SVG 1.1//EN"
 "http://www.w3.org/Graphics/SVG/1.1/DTD/svg11.dtd">
<!-- Generated by graphviz version 2.43.0 (0)
 -->
<!-- Title: DeckCardZoneDisplayWidget::onActiveSortCriteriaChanged Pages: 1 -->
<!--zoomable 184 -->

<svg id="main" version="1.1" xmlns="http://www.w3.org/2000/svg" xmlns:xlink="http://www.w3.org/1999/xlink" xml:space="preserve" onload="init(evt)">

<style type="text/css"><![CDATA[
.node, .edge {opacity: 0.7;}
.node.selected, .edge.selected {opacity: 1;}
.edge:hover path { stroke: red; }
.edge:hover polygon { stroke: red; fill: red; }
]]></style>

<defs>
  <circle id="rim" cx="0" cy="0" r="7"/>
  <circle id="rim2" cx="0" cy="0" r="3.5"/>
  <g id="zoomPlus">
    <use xlink:href="#rim" fill="#404040"><set attributeName="fill" to="#808080" begin="zoomplus.mouseover" end="zoomplus.mouseout"/></use>
    <path d="M-4,0h8M0,-4v8" fill="none" stroke="white" stroke-width="1.5" pointer-events="none"/>
  </g>
  <g id="zoomMin">
    <use xlink:href="#rim" fill="#404040"><set attributeName="fill" to="#808080" begin="zoomminus.mouseover" end="zoomminus.mouseout"/></use>
    <path d="M-4,0h8" fill="none" stroke="white" stroke-width="1.5" pointer-events="none"/>
  </g>
  <g id="arrowUp" transform="translate(30 24)">
    <use xlink:href="#rim"/>
    <path pointer-events="none" fill="none" stroke="white" stroke-width="1.5" d="M0,-3.0v7 M-2.5,-0.5L0,-3.0L2.5,-0.5"/>
  </g>
  <g id="arrowRight" transform="rotate(90) translate(36 -43)">
    <use xlink:href="#rim"/>
    <path pointer-events="none" fill="none" stroke="white" stroke-width="1.5" d="M0,-3.0v7 M-2.5,-0.5L0,-3.0L2.5,-0.5"/>
  </g>
  <g id="arrowDown" transform="rotate(180) translate(-30 -48)">
    <use xlink:href="#rim"/>
    <path pointer-events="none" fill="none" stroke="white" stroke-width="1.5" d="M0,-3.0v7 M-2.5,-0.5L0,-3.0L2.5,-0.5"/>
  </g>
  <g id="arrowLeft" transform="rotate(270) translate(-36 17)">
    <use xlink:href="#rim"/>
    <path pointer-events="none" fill="none" stroke="white" stroke-width="1.5" d="M0,-3.0v7 M-2.5,-0.5L0,-3.0L2.5,-0.5"/>
  </g>
  <g id="resetDef">
    <use xlink:href="#rim2" fill="#404040"><set attributeName="fill" to="#808080" begin="reset.mouseover" end="reset.mouseout"/></use>
  </g>
</defs>
<script type="application/ecmascript">
var viewWidth = 1188;
var viewHeight = 184;
var sectionId = 'dynsection-16';
</script>
<script type="application/ecmascript" xlink:href="../../svg.min.js"/>
<svg id="graph" class="graph">
<g id="viewport">
<title>DeckCardZoneDisplayWidget::onActiveSortCriteriaChanged</title>
<!-- Node1 -->
<g id="Node000001" class="node">
<title>Node1</title>
<g id="a_Node000001"><a xlink:title=" ">
<polygon fill="#999999" stroke="#666666" points="1180,-89.5 1016,-89.5 1016,-59.5 1180,-59.5 1180,-89.5"/>
<text text-anchor="start" x="1024" y="-77.5" font-family="Helvetica,sans-Serif" font-size="10.00">DeckCardZoneDisplayWidget</text>
<text text-anchor="middle" x="1098" y="-66.5" font-family="Helvetica,sans-Serif" font-size="10.00">::onActiveSortCriteriaChanged</text>
</a>
</g>
</g>
<!-- Node2 -->
<g id="Node000002" class="node">
<title>Node2</title>
<g id="a_Node000002"><a xlink:href="../../da/d1e/classVisualDeckEditorWidget.html#a5100195137e9b8c84ffecb9383866449" target="_top" xlink:title=" ">
<polygon fill="white" stroke="#666666" points="980,-116.5 811,-116.5 811,-86.5 980,-86.5 980,-116.5"/>
<text text-anchor="start" x="819" y="-104.5" font-family="Helvetica,sans-Serif" font-size="10.00">VisualDeckEditorWidget</text>
<text text-anchor="middle" x="895.5" y="-93.5" font-family="Helvetica,sans-Serif" font-size="10.00">::constructZoneWidgetForIndex</text>
</a>
</g>
</g>
<!-- Node1&#45;&gt;Node2 -->
<g id="edge1_Node000001_Node000002" class="edge">
<title>Node1&#45;&gt;Node2</title>
<g id="a_edge1_Node000001_Node000002"><a xlink:title=" ">
<path fill="none" stroke="#63b8ff" d="M1010.77,-86.11C1000.62,-87.48 990.28,-88.87 980.16,-90.23"/>
<polygon fill="#63b8ff" stroke="#63b8ff" points="1015.74,-85.44 1011.08,-88.34 1013.26,-85.78 1010.78,-86.11 1010.78,-86.11 1010.78,-86.11 1013.26,-85.78 1010.48,-83.88 1015.74,-85.44 1015.74,-85.44"/>
</a>
</g>
</g>
<!-- Node8 -->
<g id="Node000008" class="node">
<title>Node8</title>
<g id="a_Node000008"><a xlink:href="../../d0/d7f/classArchidektApiResponseDeckDisplayWidget.html#a13d7b3acc1e74efcd05174a9caba2826" target="_top" xlink:title="Builds DeckCardZoneDisplayWidget instances from the current DeckListModel.">
<polygon fill="white" stroke="#666666" points="977.5,-68 813.5,-68 813.5,-27 977.5,-27 977.5,-68"/>
<text text-anchor="start" x="821.5" y="-56" font-family="Helvetica,sans-Serif" font-size="10.00">ArchidektApiResponseDeck</text>
<text text-anchor="start" x="821.5" y="-45" font-family="Helvetica,sans-Serif" font-size="10.00">DisplayWidget::constructZone</text>
<text text-anchor="middle" x="895.5" y="-34" font-family="Helvetica,sans-Serif" font-size="10.00">WidgetsFromDeckListModel</text>
</a>
</g>
</g>
<!-- Node1&#45;&gt;Node8 -->
<g id="edge9_Node000001_Node000008" class="edge">
<title>Node1&#45;&gt;Node8</title>
<g id="a_edge9_Node000001_Node000008"><a xlink:title=" ">
<path fill="none" stroke="#63b8ff" d="M1010.7,-62.88C999.7,-61.4 988.47,-59.88 977.55,-58.41"/>
<polygon fill="#63b8ff" stroke="#63b8ff" points="1015.74,-63.56 1010.48,-65.12 1013.26,-63.22 1010.78,-62.89 1010.78,-62.89 1010.78,-62.89 1013.26,-63.22 1011.08,-60.66 1015.74,-63.56 1015.74,-63.56"/>
</a>
</g>
</g>
<!-- Node3 -->
<g id="Node000003" class="node">
<title>Node3</title>
<g id="a_Node000003"><a xlink:href="../../da/d1e/classVisualDeckEditorWidget.html#a151318bf881404217834b7913f5086d3" target="_top" xlink:title=" ">
<polygon fill="white" stroke="#666666" points="771,-122 589,-122 589,-81 771,-81 771,-122"/>
<text text-anchor="start" x="597" y="-110" font-family="Helvetica,sans-Serif" font-size="10.00">VisualDeckEditorWidget</text>
<text text-anchor="start" x="597" y="-99" font-family="Helvetica,sans-Serif" font-size="10.00">::constructZoneWidgetsFromDeck</text>
<text text-anchor="middle" x="680" y="-88" font-family="Helvetica,sans-Serif" font-size="10.00">ListModel</text>
</a>
</g>
</g>
<!-- Node2&#45;&gt;Node3 -->
<g id="edge2_Node000002_Node000003" class="edge">
<title>Node2&#45;&gt;Node3</title>
<g id="a_edge2_Node000002_Node000003"><a xlink:title=" ">
<path fill="none" stroke="#63b8ff" d="M805.54,-101.5C794.2,-101.5 782.58,-101.5 771.22,-101.5"/>
<polygon fill="#63b8ff" stroke="#63b8ff" points="810.73,-101.5 805.73,-103.75 808.23,-101.5 805.73,-101.5 805.73,-101.5 805.73,-101.5 808.23,-101.5 805.73,-99.25 810.73,-101.5 810.73,-101.5"/>
</a>
</g>
</g>
<!-- Node7 -->
<g id="Node000007" class="node">
<title>Node7</title>
<g id="a_Node000007"><a xlink:href="../../da/d1e/classVisualDeckEditorWidget.html#a0c8e1b7017ba152a23b85d0e08d4adf6" target="_top" xlink:title=" ">
<polygon fill="white" stroke="#666666" points="514.5,-175.5 380.5,-175.5 380.5,-145.5 514.5,-145.5 514.5,-175.5"/>
<text text-anchor="start" x="388.5" y="-163.5" font-family="Helvetica,sans-Serif" font-size="10.00">VisualDeckEditorWidget</text>
<text text-anchor="middle" x="447.5" y="-152.5" font-family="Helvetica,sans-Serif" font-size="10.00">::onCardAddition</text>
</a>
</g>
</g>
<!-- Node2&#45;&gt;Node7 -->
<g id="edge7_Node000002_Node000007" class="edge">
<title>Node2&#45;&gt;Node7</title>
<g id="a_edge7_Node000002_Node000007"><a xlink:title=" ">
<path fill="none" stroke="#63b8ff" d="M837.3,-117.8C817.69,-122.87 795.51,-128.04 775,-131.5 685.5,-146.61 580.78,-154.15 514.55,-157.69"/>
<polygon fill="#63b8ff" stroke="#63b8ff" points="842.23,-116.52 837.96,-119.96 839.81,-117.15 837.39,-117.78 837.39,-117.78 837.39,-117.78 839.81,-117.15 836.82,-115.6 842.23,-116.52 842.23,-116.52"/>
</a>
</g>
</g>
<!-- Node4 -->
<g id="Node000004" class="node">
<title>Node4</title>
<g id="a_Node000004"><a xlink:href="../../da/d1e/classVisualDeckEditorWidget.html#a241de5f6dd9a0cd49cc226e1998153b0" target="_top" xlink:title=" ">
<polygon fill="white" stroke="#666666" points="514.5,-127.5 380.5,-127.5 380.5,-97.5 514.5,-97.5 514.5,-127.5"/>
<text text-anchor="start" x="388.5" y="-115.5" font-family="Helvetica,sans-Serif" font-size="10.00">VisualDeckEditorWidget</text>
<text text-anchor="middle" x="447.5" y="-104.5" font-family="Helvetica,sans-Serif" font-size="10.00">::decklistModelReset</text>
</a>
</g>
</g>
<!-- Node3&#45;&gt;Node4 -->
<g id="edge3_Node000003_Node000004" class="edge">
<title>Node3&#45;&gt;Node4</title>
<g id="a_edge3_Node000003_Node000004"><a xlink:title=" ">
<path fill="none" stroke="#63b8ff" d="M583.65,-106.05C560.45,-107.16 536.14,-108.32 514.64,-109.34"/>
<polygon fill="#63b8ff" stroke="#63b8ff" points="588.89,-105.8 584.01,-108.29 586.4,-105.92 583.9,-106.04 583.9,-106.04 583.9,-106.04 586.4,-105.92 583.79,-103.79 588.89,-105.8 588.89,-105.8"/>
</a>
</g>
</g>
<!-- Node6 -->
<g id="Node000006" class="node">
<title>Node6</title>
<g id="a_Node000006"><a xlink:href="../../da/d1e/classVisualDeckEditorWidget.html#a27242b08de167b572dce420b0a355887" target="_top" xlink:title=" ">
<polygon fill="white" stroke="#666666" points="140,-105.5 0,-105.5 0,-75.5 140,-75.5 140,-105.5"/>
<text text-anchor="start" x="8" y="-93.5" font-family="Helvetica,sans-Serif" font-size="10.00">VisualDeckEditorWidget</text>
<text text-anchor="middle" x="70" y="-82.5" font-family="Helvetica,sans-Serif" font-size="10.00">::VisualDeckEditorWidget</text>
</a>
</g>
</g>
<!-- Node3&#45;&gt;Node6 -->
<g id="edge6_Node000003_Node000006" class="edge">
<title>Node3&#45;&gt;Node6</title>
<g id="a_edge6_Node000003_Node000006"><a xlink:title=" ">
<path fill="none" stroke="#63b8ff" d="M583.86,-90.88C572.13,-89.9 560.3,-89.06 549,-88.5 403.75,-81.26 233.36,-84.87 140.32,-87.87"/>
<polygon fill="#63b8ff" stroke="#63b8ff" points="588.87,-91.31 583.7,-93.13 586.38,-91.1 583.89,-90.89 583.89,-90.89 583.89,-90.89 586.38,-91.1 584.08,-88.65 588.87,-91.31 588.87,-91.31"/>
</a>
</g>
</g>
<!-- Node5 -->
<g id="Node000005" class="node">
<title>Node5</title>
<g id="a_Node000005"><a xlink:href="../../da/d1e/classVisualDeckEditorWidget.html#a9751649c4a632e0a45fa8e9bf2b00ca9" target="_top" xlink:title=" ">
<polygon fill="white" stroke="#666666" points="310,-127.5 176,-127.5 176,-97.5 310,-97.5 310,-127.5"/>
<text text-anchor="start" x="184" y="-115.5" font-family="Helvetica,sans-Serif" font-size="10.00">VisualDeckEditorWidget</text>
<text text-anchor="middle" x="243" y="-104.5" font-family="Helvetica,sans-Serif" font-size="10.00">::connectDeckListModel</text>
</a>
</g>
</g>
<!-- Node4&#45;&gt;Node5 -->
<g id="edge4_Node000004_Node000005" class="edge">
<title>Node4&#45;&gt;Node5</title>
<g id="a_edge4_Node000004_Node000005"><a xlink:title=" ">
<path fill="none" stroke="#63b8ff" d="M375.42,-112.5C354.25,-112.5 331.14,-112.5 310.28,-112.5"/>
<polygon fill="#63b8ff" stroke="#63b8ff" points="380.47,-112.5 375.47,-114.75 377.97,-112.5 375.47,-112.5 375.47,-112.5 375.47,-112.5 377.97,-112.5 375.47,-110.25 380.47,-112.5 380.47,-112.5"/>
</a>
</g>
</g>
<!-- Node5&#45;&gt;Node6 -->
<g id="edge5_Node000005_Node000006" class="edge">
<title>Node5&#45;&gt;Node6</title>
<g id="a_edge5_Node000005_Node000006"><a xlink:title=" ">
<path fill="none" stroke="#63b8ff" d="M170.9,-103.35C160.7,-102.04 150.21,-100.69 140.05,-99.38"/>
<polygon fill="#63b8ff" stroke="#63b8ff" points="175.89,-103.99 170.64,-105.59 173.41,-103.68 170.93,-103.36 170.93,-103.36 170.93,-103.36 173.41,-103.68 171.21,-101.12 175.89,-103.99 175.89,-103.99"/>
</a>
</g>
</g>
<!-- Node7&#45;&gt;Node5 -->
<g id="edge8_Node000007_Node000005" class="edge">
<title>Node7&#45;&gt;Node5</title>
<g id="a_edge8_Node000007_Node000005"><a xlink:title=" ">
<path fill="none" stroke="#63b8ff" d="M377.85,-144.23C355.01,-138.81 329.7,-132.81 307.29,-127.5"/>
<polygon fill="#63b8ff" stroke="#63b8ff" points="382.98,-145.44 377.6,-146.48 380.55,-144.87 378.12,-144.29 378.12,-144.29 378.12,-144.29 380.55,-144.87 378.64,-142.1 382.98,-145.44 382.98,-145.44"/>
</a>
</g>
</g>
<!-- Node9 -->
<g id="Node000009" class="node">
<title>Node9</title>
<g id="a_Node000009"><a xlink:href="../../d0/d7f/classArchidektApiResponseDeckDisplayWidget.html#a2b6a3cc86183f2d99750ed6be7b6b975" target="_top" xlink:title="Handles model reset by clearing and reconstructing display widgets.">
<polygon fill="white" stroke="#666666" points="775,-53.5 585,-53.5 585,-23.5 775,-23.5 775,-53.5"/>
<text text-anchor="start" x="593" y="-41.5" font-family="Helvetica,sans-Serif" font-size="10.00">ArchidektApiResponseDeck</text>
<text text-anchor="middle" x="680" y="-30.5" font-family="Helvetica,sans-Serif" font-size="10.00">DisplayWidget::decklistModelReset</text>
</a>
</g>
</g>
<!-- Node8&#45;&gt;Node9 -->
<g id="edge10_Node000008_Node000009" class="edge">
<title>Node8&#45;&gt;Node9</title>
<g id="a_edge10_Node000008_Node000009"><a xlink:title=" ">
<path fill="none" stroke="#63b8ff" d="M808.47,-43.87C797.53,-43.41 786.28,-42.94 775.21,-42.47"/>
<polygon fill="#63b8ff" stroke="#63b8ff" points="813.48,-44.08 808.39,-46.12 810.98,-43.98 808.48,-43.87 808.48,-43.87 808.48,-43.87 810.98,-43.98 808.58,-41.63 813.48,-44.08 813.48,-44.08"/>
</a>
</g>
</g>
<!-- Node10 -->
<g id="Node000010" class="node">
<title>Node10</title>
<g id="a_Node000010"><a xlink:href="../../d0/d7f/classArchidektApiResponseDeckDisplayWidget.html#a52d5becc9646000673701210f0eb8244" target="_top" xlink:title="Constructs a display widget for an Archidekt deck.">
<polygon fill="white" stroke="#666666" points="549,-41 346,-41 346,0 549,0 549,-41"/>
<text text-anchor="start" x="354" y="-29" font-family="Helvetica,sans-Serif" font-size="10.00">ArchidektApiResponseDeck</text>
<text text-anchor="start" x="354" y="-18" font-family="Helvetica,sans-Serif" font-size="10.00">DisplayWidget::ArchidektApiResponse</text>
<text text-anchor="middle" x="447.5" y="-7" font-family="Helvetica,sans-Serif" font-size="10.00">DeckDisplayWidget</text>
</a>
</g>
</g>
<!-- Node9&#45;&gt;Node10 -->
<g id="edge11_Node000009_Node000010" class="edge">
<title>Node9&#45;&gt;Node10</title>
<g id="a_edge11_Node000009_Node000010"><a xlink:title=" ">
<path fill="none" stroke="#63b8ff" d="M579.91,-30.76C569.68,-29.96 559.28,-29.15 549.03,-28.35"/>
<polygon fill="#63b8ff" stroke="#63b8ff" points="584.91,-31.15 579.75,-33.01 582.42,-30.96 579.93,-30.76 579.93,-30.76 579.93,-30.76 582.42,-30.96 580.1,-28.52 584.91,-31.15 584.91,-31.15"/>
</a>
</g>
</g>
</g>
</svg>

<g id="navigator" transform="translate(0 0)" fill="#404254">
  <rect fill="#f2f5e9" fill-opacity="0.5" stroke="#606060" stroke-width=".5" x="0" y="0" width="60" height="60"/>
  <use id="zoomplus" xlink:href="#zoomPlus" x="17" y="9" onmousedown="handleZoom(evt,'in')"/>
  <use id="zoomminus" xlink:href="#zoomMin" x="42" y="9" onmousedown="handleZoom(evt,'out')"/>
  <use id="reset" xlink:href="#resetDef" x="30" y="36" onmousedown="handleReset()"/>
   <use id="arrowup" xlink:href="#arrowUp" x="0" y="0" onmousedown="handlePan(0,-1)"/>
  <use id="arrowright" xlink:href="#arrowRight" x="0" y="0" onmousedown="handlePan(1,0)"/>
  <use id="arrowdown" xlink:href="#arrowDown" x="0" y="0" onmousedown="handlePan(0,1)"/>
  <use id="arrowleft" xlink:href="#arrowLeft" x="0" y="0" onmousedown="handlePan(-1,0)"/>
</g>
<svg viewBox="0 0 15 15" width="100%" height="30px" preserveAspectRatio="xMaxYMin meet">
 <g id="arrow_out" transform="scale(0.3 0.3)">
  <a xlink:href="classDeckCardZoneDisplayWidget_adcef5ce2168c36a2b10c1165a949775c_icgraph_org.svg" target="_base">
   <rect id="button" ry="5" rx="5" y="6" x="6" height="38" width="38"
        fill="#f2f5e9" fill-opacity="0.5" stroke="#606060" stroke-width="1.0"/>
   <path id="arrow"
     d="M 11.500037,31.436501 C 11.940474,20.09759 22.043105,11.32322 32.158766,21.979434 L 37.068811,17.246167 C 37.068811,17.246167 37.088388,32 37.088388,32 L 22.160133,31.978069 C 22.160133,31.978069 26.997745,27.140456 26.997745,27.140456 C 18.528582,18.264221 13.291696,25.230495 11.500037,31.436501 z"
     style="fill:#404040;"/>
  </a>
 </g>
</svg>

<style type='text/css'>
<![CDATA[
[data-mouse-over-selected='false'] { opacity: 0.7; }
[data-mouse-over-selected='true']  { opacity: 1.0; }
]]>
</style>
<script type="application/ecmascript"><![CDATA[
document.addEventListener('DOMContentLoaded', (event) => {
  highlightEdges();
  highlightAdjacentNodes();
});
]]></script>
</svg>
