<?xml version="1.0" encoding="UTF-8" standalone="no"?>
<!DOCTYPE svg PUBLIC "-//W3C//DTD SVG 1.1//EN"
 "http://www.w3.org/Graphics/SVG/1.1/DTD/svg11.dtd">
<!-- Generated by graphviz version 2.43.0 (0)
 -->
<!-- Title: DeckCardZoneDisplayWidget::constructAppropriateWidget Pages: 1 -->
<svg width="1754pt" height="247pt"
 viewBox="0.00 0.00 1754.00 246.89" xmlns="http://www.w3.org/2000/svg" xmlns:xlink="http://www.w3.org/1999/xlink">
<g id="graph0" class="graph" transform="scale(1 1) rotate(0) translate(4 242.89)">
<title>DeckCardZoneDisplayWidget::constructAppropriateWidget</title>
<!-- Node1 -->
<g id="Node000001" class="node">
<title>Node1</title>
<g id="a_Node000001"><a xlink:title=" ">
<polygon fill="#999999" stroke="#666666" points="1746,-187.89 1586,-187.89 1586,-157.89 1746,-157.89 1746,-187.89"/>
<text text-anchor="start" x="1594" y="-175.89" font-family="Helvetica,sans-Serif" font-size="10.00">DeckCardZoneDisplayWidget</text>
<text text-anchor="middle" x="1666" y="-164.89" font-family="Helvetica,sans-Serif" font-size="10.00">::constructAppropriateWidget</text>
</a>
</g>
</g>
<!-- Node2 -->
<g id="Node000002" class="node">
<title>Node2</title>
<g id="a_Node000002"><a xlink:href="../../d8/d9f/classDeckCardZoneDisplayWidget.html#a450095dd20206e5d03b8a4cd74b2799e" target="_top" xlink:title=" ">
<polygon fill="white" stroke="#666666" points="1550,-147.89 1390,-147.89 1390,-117.89 1550,-117.89 1550,-147.89"/>
<text text-anchor="start" x="1398" y="-135.89" font-family="Helvetica,sans-Serif" font-size="10.00">DeckCardZoneDisplayWidget</text>
<text text-anchor="middle" x="1470" y="-124.89" font-family="Helvetica,sans-Serif" font-size="10.00">::displayCards</text>
</a>
</g>
</g>
<!-- Node1&#45;&gt;Node2 -->
<g id="edge1_Node000001_Node000002" class="edge">
<title>Node1&#45;&gt;Node2</title>
<g id="a_edge1_Node000001_Node000002"><a xlink:title=" ">
<path fill="none" stroke="#63b8ff" d="M1586.99,-156.81C1572.76,-153.87 1557.95,-150.82 1543.88,-147.92"/>
<polygon fill="#63b8ff" stroke="#63b8ff" points="1592.21,-157.88 1586.86,-159.07 1589.76,-157.38 1587.31,-156.87 1587.31,-156.87 1587.31,-156.87 1589.76,-157.38 1587.77,-154.67 1592.21,-157.88 1592.21,-157.88"/>
</a>
</g>
</g>
<!-- Node11 -->
<g id="Node000011" class="node">
<title>Node11</title>
<g id="a_Node000011"><a xlink:href="../../d8/d9f/classDeckCardZoneDisplayWidget.html#a70b55869f59899b5ee070a4811d470ce" target="_top" xlink:title=" ">
<polygon fill="white" stroke="#666666" points="930,-238.89 770,-238.89 770,-208.89 930,-208.89 930,-238.89"/>
<text text-anchor="start" x="778" y="-226.89" font-family="Helvetica,sans-Serif" font-size="10.00">DeckCardZoneDisplayWidget</text>
<text text-anchor="middle" x="850" y="-215.89" font-family="Helvetica,sans-Serif" font-size="10.00">::onCategoryAddition</text>
</a>
</g>
</g>
<!-- Node1&#45;&gt;Node11 -->
<g id="edge24_Node000001_Node000011" class="edge">
<title>Node1&#45;&gt;Node11</title>
<g id="a_edge24_Node000001_Node000011"><a xlink:title=" ">
<path fill="none" stroke="#63b8ff" d="M1580.78,-184.35C1478.11,-197.68 1299.21,-218.9 1145,-226.89 1072.21,-230.66 1053.88,-227.73 981,-226.89 964.52,-226.7 946.87,-226.37 930.05,-226.01"/>
<polygon fill="#63b8ff" stroke="#63b8ff" points="1585.91,-183.68 1581.24,-186.55 1583.43,-184 1580.95,-184.32 1580.95,-184.32 1580.95,-184.32 1583.43,-184 1580.66,-182.09 1585.91,-183.68 1585.91,-183.68"/>
</a>
</g>
</g>
<!-- Node3 -->
<g id="Node000003" class="node">
<title>Node3</title>
<g id="a_Node000003"><a xlink:href="../../d8/d9f/classDeckCardZoneDisplayWidget.html#afb56898a33ea9b496ccd6876e731928c" target="_top" xlink:title=" ">
<polygon fill="white" stroke="#666666" points="1350.5,-179.89 1184.5,-179.89 1184.5,-149.89 1350.5,-149.89 1350.5,-179.89"/>
<text text-anchor="start" x="1192.5" y="-167.89" font-family="Helvetica,sans-Serif" font-size="10.00">DeckCardZoneDisplayWidget</text>
<text text-anchor="middle" x="1267.5" y="-156.89" font-family="Helvetica,sans-Serif" font-size="10.00">::DeckCardZoneDisplayWidget</text>
</a>
</g>
</g>
<!-- Node2&#45;&gt;Node3 -->
<g id="edge2_Node000002_Node000003" class="edge">
<title>Node2&#45;&gt;Node3</title>
<g id="a_edge2_Node000002_Node000003"><a xlink:title=" ">
<path fill="none" stroke="#63b8ff" d="M1384.63,-146.35C1373.43,-148.14 1361.95,-149.97 1350.79,-151.76"/>
<polygon fill="#63b8ff" stroke="#63b8ff" points="1389.76,-145.54 1385.17,-148.55 1387.29,-145.93 1384.82,-146.32 1384.82,-146.32 1384.82,-146.32 1387.29,-145.93 1384.46,-144.1 1389.76,-145.54 1389.76,-145.54"/>
</a>
</g>
</g>
<!-- Node13 -->
<g id="Node000013" class="node">
<title>Node13</title>
<g id="a_Node000013"><a xlink:href="../../d8/d9f/classDeckCardZoneDisplayWidget.html#a79eb3bce6baa261d25fb188a62b11518" target="_top" xlink:title=" ">
<polygon fill="white" stroke="#666666" points="1354,-114.89 1181,-114.89 1181,-84.89 1354,-84.89 1354,-114.89"/>
<text text-anchor="start" x="1189" y="-102.89" font-family="Helvetica,sans-Serif" font-size="10.00">DeckCardZoneDisplayWidget</text>
<text text-anchor="middle" x="1267.5" y="-91.89" font-family="Helvetica,sans-Serif" font-size="10.00">::onActiveGroupCriteriaChanged</text>
</a>
</g>
</g>
<!-- Node2&#45;&gt;Node13 -->
<g id="edge16_Node000002_Node000013" class="edge">
<title>Node2&#45;&gt;Node13</title>
<g id="a_edge16_Node000002_Node000013"><a xlink:title=" ">
<path fill="none" stroke="#63b8ff" d="M1384.79,-119.03C1374.64,-117.36 1364.27,-115.65 1354.1,-113.98"/>
<polygon fill="#63b8ff" stroke="#63b8ff" points="1389.76,-119.85 1384.46,-121.25 1387.29,-119.44 1384.82,-119.03 1384.82,-119.03 1384.82,-119.03 1387.29,-119.44 1385.19,-116.81 1389.76,-119.85 1389.76,-119.85"/>
</a>
</g>
</g>
<!-- Node17 -->
<g id="Node000017" class="node">
<title>Node17</title>
<g id="a_Node000017"><a xlink:href="../../d8/d9f/classDeckCardZoneDisplayWidget.html#ac140319cdb3e43681bf8c3256a24b7ed" target="_top" xlink:title=" ">
<polygon fill="white" stroke="#666666" points="1347.5,-65.89 1187.5,-65.89 1187.5,-35.89 1347.5,-35.89 1347.5,-65.89"/>
<text text-anchor="start" x="1195.5" y="-53.89" font-family="Helvetica,sans-Serif" font-size="10.00">DeckCardZoneDisplayWidget</text>
<text text-anchor="middle" x="1267.5" y="-42.89" font-family="Helvetica,sans-Serif" font-size="10.00">::refreshDisplayType</text>
</a>
</g>
</g>
<!-- Node2&#45;&gt;Node17 -->
<g id="edge21_Node000002_Node000017" class="edge">
<title>Node2&#45;&gt;Node17</title>
<g id="a_edge21_Node000002_Node000017"><a xlink:title=" ">
<path fill="none" stroke="#63b8ff" d="M1437.31,-115.29C1414.59,-103.15 1382.99,-87.21 1354,-75.89 1344.78,-72.29 1334.83,-68.93 1325.08,-65.91"/>
<polygon fill="#63b8ff" stroke="#63b8ff" points="1441.73,-117.67 1436.26,-117.29 1439.53,-116.49 1437.33,-115.3 1437.33,-115.3 1437.33,-115.3 1439.53,-116.49 1438.39,-113.32 1441.73,-117.67 1441.73,-117.67"/>
</a>
</g>
</g>
<!-- Node4 -->
<g id="Node000004" class="node">
<title>Node4</title>
<g id="a_Node000004"><a xlink:href="../../d8/d9f/classDeckCardZoneDisplayWidget.html#a53668d7e88c065f823cdb182ef4cbee0" target="_top" xlink:title=" ">
<polygon fill="white" stroke="#666666" points="1143,-195.89 983,-195.89 983,-165.89 1143,-165.89 1143,-195.89"/>
<text text-anchor="start" x="991" y="-183.89" font-family="Helvetica,sans-Serif" font-size="10.00">DeckCardZoneDisplayWidget</text>
<text text-anchor="middle" x="1063" y="-172.89" font-family="Helvetica,sans-Serif" font-size="10.00">::requestCleanup</text>
</a>
</g>
</g>
<!-- Node3&#45;&gt;Node4 -->
<g id="edge3_Node000003_Node000004" class="edge">
<title>Node3&#45;&gt;Node4</title>
<g id="a_edge3_Node000003_Node000004"><a xlink:title=" ">
<path fill="none" stroke="#63b8ff" d="M1179.31,-171.78C1167.32,-172.73 1155.07,-173.69 1143.24,-174.63"/>
<polygon fill="#63b8ff" stroke="#63b8ff" points="1184.43,-171.37 1179.62,-174.01 1181.94,-171.57 1179.44,-171.77 1179.44,-171.77 1179.44,-171.77 1181.94,-171.57 1179.27,-169.52 1184.43,-171.37 1184.43,-171.37"/>
</a>
</g>
</g>
<!-- Node5 -->
<g id="Node000005" class="node">
<title>Node5</title>
<g id="a_Node000005"><a xlink:href="../../da/d1e/classVisualDeckEditorWidget.html#a5100195137e9b8c84ffecb9383866449" target="_top" xlink:title=" ">
<polygon fill="white" stroke="#666666" points="934.5,-114.89 765.5,-114.89 765.5,-84.89 934.5,-84.89 934.5,-114.89"/>
<text text-anchor="start" x="773.5" y="-102.89" font-family="Helvetica,sans-Serif" font-size="10.00">VisualDeckEditorWidget</text>
<text text-anchor="middle" x="850" y="-91.89" font-family="Helvetica,sans-Serif" font-size="10.00">::constructZoneWidgetForIndex</text>
</a>
</g>
</g>
<!-- Node4&#45;&gt;Node5 -->
<g id="edge4_Node000004_Node000005" class="edge">
<title>Node4&#45;&gt;Node5</title>
<g id="a_edge4_Node000004_Node000005"><a xlink:title=" ">
<path fill="none" stroke="#63b8ff" d="M1017.83,-163.93C980.18,-149.48 926.54,-128.89 890.34,-114.99"/>
<polygon fill="#63b8ff" stroke="#63b8ff" points="1022.81,-165.84 1017.33,-166.15 1020.47,-164.95 1018.14,-164.05 1018.14,-164.05 1018.14,-164.05 1020.47,-164.95 1018.95,-161.95 1022.81,-165.84 1022.81,-165.84"/>
</a>
</g>
</g>
<!-- Node4&#45;&gt;Node11 -->
<g id="edge12_Node000004_Node000011" class="edge">
<title>Node4&#45;&gt;Node11</title>
<g id="a_edge12_Node000004_Node000011"><a xlink:title=" ">
<path fill="none" stroke="#63b8ff" d="M982.86,-197.02C963.82,-200.9 943.55,-205.03 924.76,-208.86"/>
<polygon fill="#63b8ff" stroke="#63b8ff" points="988.2,-195.93 983.75,-199.13 985.75,-196.43 983.3,-196.93 983.3,-196.93 983.3,-196.93 985.75,-196.43 982.85,-194.72 988.2,-195.93 988.2,-195.93"/>
</a>
</g>
</g>
<!-- Node12 -->
<g id="Node000012" class="node">
<title>Node12</title>
<g id="a_Node000012"><a xlink:href="../../d8/d9f/classDeckCardZoneDisplayWidget.html#a11a19ab2165c2dbd9592fc8a2687fd71" target="_top" xlink:title=" ">
<polygon fill="white" stroke="#666666" points="930,-176.89 770,-176.89 770,-146.89 930,-146.89 930,-176.89"/>
<text text-anchor="start" x="778" y="-164.89" font-family="Helvetica,sans-Serif" font-size="10.00">DeckCardZoneDisplayWidget</text>
<text text-anchor="middle" x="850" y="-153.89" font-family="Helvetica,sans-Serif" font-size="10.00">::onCategoryRemoval</text>
</a>
</g>
</g>
<!-- Node4&#45;&gt;Node12 -->
<g id="edge14_Node000004_Node000012" class="edge">
<title>Node4&#45;&gt;Node12</title>
<g id="a_edge14_Node000004_Node000012"><a xlink:title=" ">
<path fill="none" stroke="#63b8ff" d="M977.56,-173.29C961.96,-171.88 945.71,-170.42 930.26,-169.03"/>
<polygon fill="#63b8ff" stroke="#63b8ff" points="982.83,-173.76 977.65,-175.55 980.34,-173.54 977.85,-173.31 977.85,-173.31 977.85,-173.31 980.34,-173.54 978.05,-171.07 982.83,-173.76 982.83,-173.76"/>
</a>
</g>
</g>
<!-- Node6 -->
<g id="Node000006" class="node">
<title>Node6</title>
<g id="a_Node000006"><a xlink:href="../../da/d1e/classVisualDeckEditorWidget.html#a151318bf881404217834b7913f5086d3" target="_top" xlink:title=" ">
<polygon fill="white" stroke="#666666" points="708.5,-169.39 526.5,-169.39 526.5,-128.39 708.5,-128.39 708.5,-169.39"/>
<text text-anchor="start" x="534.5" y="-157.39" font-family="Helvetica,sans-Serif" font-size="10.00">VisualDeckEditorWidget</text>
<text text-anchor="start" x="534.5" y="-146.39" font-family="Helvetica,sans-Serif" font-size="10.00">::constructZoneWidgetsFromDeck</text>
<text text-anchor="middle" x="617.5" y="-135.39" font-family="Helvetica,sans-Serif" font-size="10.00">ListModel</text>
</a>
</g>
</g>
<!-- Node5&#45;&gt;Node6 -->
<g id="edge5_Node000005_Node000006" class="edge">
<title>Node5&#45;&gt;Node6</title>
<g id="a_edge5_Node000005_Node000006"><a xlink:title=" ">
<path fill="none" stroke="#63b8ff" d="M773.34,-115.97C752.68,-120.37 730.07,-125.17 708.68,-129.72"/>
<polygon fill="#63b8ff" stroke="#63b8ff" points="778.28,-114.92 773.85,-118.16 775.83,-115.44 773.39,-115.96 773.39,-115.96 773.39,-115.96 775.83,-115.44 772.92,-113.76 778.28,-114.92 778.28,-114.92"/>
</a>
</g>
</g>
<!-- Node10 -->
<g id="Node000010" class="node">
<title>Node10</title>
<g id="a_Node000010"><a xlink:href="../../da/d1e/classVisualDeckEditorWidget.html#a0c8e1b7017ba152a23b85d0e08d4adf6" target="_top" xlink:title=" ">
<polygon fill="white" stroke="#666666" points="480,-114.89 346,-114.89 346,-84.89 480,-84.89 480,-114.89"/>
<text text-anchor="start" x="354" y="-102.89" font-family="Helvetica,sans-Serif" font-size="10.00">VisualDeckEditorWidget</text>
<text text-anchor="middle" x="413" y="-91.89" font-family="Helvetica,sans-Serif" font-size="10.00">::onCardAddition</text>
</a>
</g>
</g>
<!-- Node5&#45;&gt;Node10 -->
<g id="edge10_Node000005_Node000010" class="edge">
<title>Node5&#45;&gt;Node10</title>
<g id="a_edge10_Node000005_Node000010"><a xlink:title=" ">
<path fill="none" stroke="#63b8ff" d="M759.97,-99.89C676.96,-99.89 555.03,-99.89 480.28,-99.89"/>
<polygon fill="#63b8ff" stroke="#63b8ff" points="765.39,-99.89 760.39,-102.14 762.89,-99.89 760.39,-99.89 760.39,-99.89 760.39,-99.89 762.89,-99.89 760.39,-97.64 765.39,-99.89 765.39,-99.89"/>
</a>
</g>
</g>
<!-- Node7 -->
<g id="Node000007" class="node">
<title>Node7</title>
<g id="a_Node000007"><a xlink:href="../../da/d1e/classVisualDeckEditorWidget.html#a241de5f6dd9a0cd49cc226e1998153b0" target="_top" xlink:title=" ">
<polygon fill="white" stroke="#666666" points="480,-162.89 346,-162.89 346,-132.89 480,-132.89 480,-162.89"/>
<text text-anchor="start" x="354" y="-150.89" font-family="Helvetica,sans-Serif" font-size="10.00">VisualDeckEditorWidget</text>
<text text-anchor="middle" x="413" y="-139.89" font-family="Helvetica,sans-Serif" font-size="10.00">::decklistModelReset</text>
</a>
</g>
</g>
<!-- Node6&#45;&gt;Node7 -->
<g id="edge6_Node000006_Node000007" class="edge">
<title>Node6&#45;&gt;Node7</title>
<g id="a_edge6_Node000006_Node000007"><a xlink:title=" ">
<path fill="none" stroke="#63b8ff" d="M521.11,-148.42C507.25,-148.35 493.24,-148.28 480.13,-148.22"/>
<polygon fill="#63b8ff" stroke="#63b8ff" points="526.21,-148.44 521.2,-150.67 523.71,-148.43 521.21,-148.42 521.21,-148.42 521.21,-148.42 523.71,-148.43 521.22,-146.17 526.21,-148.44 526.21,-148.44"/>
</a>
</g>
</g>
<!-- Node9 -->
<g id="Node000009" class="node">
<title>Node9</title>
<g id="a_Node000009"><a xlink:href="../../da/d1e/classVisualDeckEditorWidget.html#a27242b08de167b572dce420b0a355887" target="_top" xlink:title=" ">
<polygon fill="white" stroke="#666666" points="140,-183.89 0,-183.89 0,-153.89 140,-153.89 140,-183.89"/>
<text text-anchor="start" x="8" y="-171.89" font-family="Helvetica,sans-Serif" font-size="10.00">VisualDeckEditorWidget</text>
<text text-anchor="middle" x="70" y="-160.89" font-family="Helvetica,sans-Serif" font-size="10.00">::VisualDeckEditorWidget</text>
</a>
</g>
</g>
<!-- Node6&#45;&gt;Node9 -->
<g id="edge9_Node000006_Node000009" class="edge">
<title>Node6&#45;&gt;Node9</title>
<g id="a_edge9_Node000006_Node000009"><a xlink:title=" ">
<path fill="none" stroke="#63b8ff" d="M521.37,-167C507.54,-169.03 493.44,-170.77 480,-171.89 360.94,-181.85 221.71,-177.42 140.26,-173.22"/>
<polygon fill="#63b8ff" stroke="#63b8ff" points="526.46,-166.24 521.84,-169.21 523.98,-166.61 521.51,-166.98 521.51,-166.98 521.51,-166.98 523.98,-166.61 521.18,-164.76 526.46,-166.24 526.46,-166.24"/>
</a>
</g>
</g>
<!-- Node8 -->
<g id="Node000008" class="node">
<title>Node8</title>
<g id="a_Node000008"><a xlink:href="../../da/d1e/classVisualDeckEditorWidget.html#a9751649c4a632e0a45fa8e9bf2b00ca9" target="_top" xlink:title=" ">
<polygon fill="white" stroke="#666666" points="310,-162.89 176,-162.89 176,-132.89 310,-132.89 310,-162.89"/>
<text text-anchor="start" x="184" y="-150.89" font-family="Helvetica,sans-Serif" font-size="10.00">VisualDeckEditorWidget</text>
<text text-anchor="middle" x="243" y="-139.89" font-family="Helvetica,sans-Serif" font-size="10.00">::connectDeckListModel</text>
</a>
</g>
</g>
<!-- Node7&#45;&gt;Node8 -->
<g id="edge7_Node000007_Node000008" class="edge">
<title>Node7&#45;&gt;Node8</title>
<g id="a_edge7_Node000007_Node000008"><a xlink:title=" ">
<path fill="none" stroke="#63b8ff" d="M340.39,-147.89C330.37,-147.89 320.1,-147.89 310.19,-147.89"/>
<polygon fill="#63b8ff" stroke="#63b8ff" points="345.6,-147.89 340.6,-150.14 343.1,-147.89 340.6,-147.89 340.6,-147.89 340.6,-147.89 343.1,-147.89 340.6,-145.64 345.6,-147.89 345.6,-147.89"/>
</a>
</g>
</g>
<!-- Node8&#45;&gt;Node9 -->
<g id="edge8_Node000008_Node000009" class="edge">
<title>Node8&#45;&gt;Node9</title>
<g id="a_edge8_Node000008_Node000009"><a xlink:title=" ">
<path fill="none" stroke="#63b8ff" d="M170.9,-156.62C160.7,-157.87 150.21,-159.16 140.05,-160.41"/>
<polygon fill="#63b8ff" stroke="#63b8ff" points="175.89,-156.01 171.2,-158.85 173.41,-156.31 170.92,-156.62 170.92,-156.62 170.92,-156.62 173.41,-156.31 170.65,-154.38 175.89,-156.01 175.89,-156.01"/>
</a>
</g>
</g>
<!-- Node10&#45;&gt;Node8 -->
<g id="edge11_Node000010_Node000008" class="edge">
<title>Node10&#45;&gt;Node8</title>
<g id="a_edge11_Node000010_Node000008"><a xlink:title=" ">
<path fill="none" stroke="#63b8ff" d="M354.09,-116.44C335.39,-121.78 314.79,-127.66 296.51,-132.89"/>
<polygon fill="#63b8ff" stroke="#63b8ff" points="359.3,-114.95 355.12,-118.48 356.9,-115.63 354.5,-116.32 354.5,-116.32 354.5,-116.32 356.9,-115.63 353.88,-114.16 359.3,-114.95 359.3,-114.95"/>
</a>
</g>
</g>
<!-- Node11&#45;&gt;Node3 -->
<g id="edge13_Node000011_Node000003" class="edge">
<title>Node11&#45;&gt;Node3</title>
<g id="a_edge13_Node000011_Node000003"><a xlink:title=" ">
<path fill="none" stroke="#63b8ff" d="M935.6,-224.08C994.74,-222.83 1075.3,-218.39 1145,-204.89 1173.89,-199.29 1205.42,-188.78 1229.12,-179.93"/>
<polygon fill="#63b8ff" stroke="#63b8ff" points="930.31,-224.18 935.26,-221.83 932.81,-224.13 935.3,-224.08 935.3,-224.08 935.3,-224.08 932.81,-224.13 935.35,-226.33 930.31,-224.18 930.31,-224.18"/>
</a>
</g>
</g>
<!-- Node12&#45;&gt;Node3 -->
<g id="edge15_Node000012_Node000003" class="edge">
<title>Node12&#45;&gt;Node3</title>
<g id="a_edge15_Node000012_Node000003"><a xlink:title=" ">
<path fill="none" stroke="#63b8ff" d="M935.19,-158.18C950.43,-157.64 966.19,-157.17 981,-156.89 1053.88,-155.49 1072.15,-154.49 1145,-156.89 1157.68,-157.31 1171.09,-157.97 1184.19,-158.73"/>
<polygon fill="#63b8ff" stroke="#63b8ff" points="930.04,-158.36 934.96,-155.93 932.54,-158.27 935.04,-158.18 935.04,-158.18 935.04,-158.18 932.54,-158.27 935.12,-160.43 930.04,-158.36 930.04,-158.36"/>
</a>
</g>
</g>
<!-- Node13&#45;&gt;Node5 -->
<g id="edge17_Node000013_Node000005" class="edge">
<title>Node13&#45;&gt;Node5</title>
<g id="a_edge17_Node000013_Node000005"><a xlink:title=" ">
<path fill="none" stroke="#63b8ff" d="M1175.79,-99.89C1104.02,-99.89 1004.59,-99.89 934.7,-99.89"/>
<polygon fill="#63b8ff" stroke="#63b8ff" points="1180.91,-99.89 1175.91,-102.14 1178.41,-99.89 1175.91,-99.89 1175.91,-99.89 1175.91,-99.89 1178.41,-99.89 1175.91,-97.64 1180.91,-99.89 1180.91,-99.89"/>
</a>
</g>
</g>
<!-- Node14 -->
<g id="Node000014" class="node">
<title>Node14</title>
<g id="a_Node000014"><a xlink:href="../../d0/d7f/classArchidektApiResponseDeckDisplayWidget.html#a13d7b3acc1e74efcd05174a9caba2826" target="_top" xlink:title="Builds DeckCardZoneDisplayWidget instances from the current DeckListModel.">
<polygon fill="white" stroke="#666666" points="1145,-71.39 981,-71.39 981,-30.39 1145,-30.39 1145,-71.39"/>
<text text-anchor="start" x="989" y="-59.39" font-family="Helvetica,sans-Serif" font-size="10.00">ArchidektApiResponseDeck</text>
<text text-anchor="start" x="989" y="-48.39" font-family="Helvetica,sans-Serif" font-size="10.00">DisplayWidget::constructZone</text>
<text text-anchor="middle" x="1063" y="-37.39" font-family="Helvetica,sans-Serif" font-size="10.00">WidgetsFromDeckListModel</text>
</a>
</g>
</g>
<!-- Node13&#45;&gt;Node14 -->
<g id="edge18_Node000013_Node000014" class="edge">
<title>Node13&#45;&gt;Node14</title>
<g id="a_edge18_Node000013_Node000014"><a xlink:title=" ">
<path fill="none" stroke="#63b8ff" d="M1199.5,-83.68C1182.08,-79.46 1163.13,-74.88 1145.07,-70.51"/>
<polygon fill="#63b8ff" stroke="#63b8ff" points="1204.37,-84.85 1198.98,-85.87 1201.94,-84.27 1199.51,-83.68 1199.51,-83.68 1199.51,-83.68 1201.94,-84.27 1200.04,-81.49 1204.37,-84.85 1204.37,-84.85"/>
</a>
</g>
</g>
<!-- Node15 -->
<g id="Node000015" class="node">
<title>Node15</title>
<g id="a_Node000015"><a xlink:href="../../d0/d7f/classArchidektApiResponseDeckDisplayWidget.html#a2b6a3cc86183f2d99750ed6be7b6b975" target="_top" xlink:title="Handles model reset by clearing and reconstructing display widgets.">
<polygon fill="white" stroke="#666666" points="945,-65.89 755,-65.89 755,-35.89 945,-35.89 945,-65.89"/>
<text text-anchor="start" x="763" y="-53.89" font-family="Helvetica,sans-Serif" font-size="10.00">ArchidektApiResponseDeck</text>
<text text-anchor="middle" x="850" y="-42.89" font-family="Helvetica,sans-Serif" font-size="10.00">DisplayWidget::decklistModelReset</text>
</a>
</g>
</g>
<!-- Node14&#45;&gt;Node15 -->
<g id="edge19_Node000014_Node000015" class="edge">
<title>Node14&#45;&gt;Node15</title>
<g id="a_edge19_Node000014_Node000015"><a xlink:title=" ">
<path fill="none" stroke="#63b8ff" d="M975.53,-50.89C965.55,-50.89 955.34,-50.89 945.26,-50.89"/>
<polygon fill="#63b8ff" stroke="#63b8ff" points="980.72,-50.89 975.72,-53.14 978.22,-50.89 975.72,-50.89 975.72,-50.89 975.72,-50.89 978.22,-50.89 975.72,-48.64 980.72,-50.89 980.72,-50.89"/>
</a>
</g>
</g>
<!-- Node16 -->
<g id="Node000016" class="node">
<title>Node16</title>
<g id="a_Node000016"><a xlink:href="../../d0/d7f/classArchidektApiResponseDeckDisplayWidget.html#a52d5becc9646000673701210f0eb8244" target="_top" xlink:title="Constructs a display widget for an Archidekt deck.">
<polygon fill="white" stroke="#666666" points="719,-71.39 516,-71.39 516,-30.39 719,-30.39 719,-71.39"/>
<text text-anchor="start" x="524" y="-59.39" font-family="Helvetica,sans-Serif" font-size="10.00">ArchidektApiResponseDeck</text>
<text text-anchor="start" x="524" y="-48.39" font-family="Helvetica,sans-Serif" font-size="10.00">DisplayWidget::ArchidektApiResponse</text>
<text text-anchor="middle" x="617.5" y="-37.39" font-family="Helvetica,sans-Serif" font-size="10.00">DeckDisplayWidget</text>
</a>
</g>
</g>
<!-- Node15&#45;&gt;Node16 -->
<g id="edge20_Node000015_Node000016" class="edge">
<title>Node15&#45;&gt;Node16</title>
<g id="a_edge20_Node000015_Node000016"><a xlink:title=" ">
<path fill="none" stroke="#63b8ff" d="M749.91,-50.89C739.68,-50.89 729.28,-50.89 719.03,-50.89"/>
<polygon fill="#63b8ff" stroke="#63b8ff" points="754.91,-50.89 749.91,-53.14 752.41,-50.89 749.91,-50.89 749.91,-50.89 749.91,-50.89 752.41,-50.89 749.91,-48.64 754.91,-50.89 754.91,-50.89"/>
</a>
</g>
</g>
<!-- Node17&#45;&gt;Node5 -->
<g id="edge22_Node000017_Node000005" class="edge">
<title>Node17&#45;&gt;Node5</title>
<g id="a_edge22_Node000017_Node000005"><a xlink:title=" ">
<path fill="none" stroke="#63b8ff" d="M1228.2,-33.86C1170.81,-11.09 1060.71,21.77 981,-20.89 955.57,-34.5 968.45,-58.1 945,-74.89 939.65,-78.72 933.74,-81.97 927.58,-84.72"/>
<polygon fill="#63b8ff" stroke="#63b8ff" points="1232.92,-35.76 1227.44,-35.98 1230.6,-34.83 1228.28,-33.89 1228.28,-33.89 1228.28,-33.89 1230.6,-34.83 1229.12,-31.81 1232.92,-35.76 1232.92,-35.76"/>
</a>
</g>
</g>
<!-- Node17&#45;&gt;Node14 -->
<g id="edge23_Node000017_Node000014" class="edge">
<title>Node17&#45;&gt;Node14</title>
<g id="a_edge23_Node000017_Node000014"><a xlink:title=" ">
<path fill="none" stroke="#63b8ff" d="M1182.11,-50.89C1169.87,-50.89 1157.29,-50.89 1145.11,-50.89"/>
<polygon fill="#63b8ff" stroke="#63b8ff" points="1187.34,-50.89 1182.34,-53.14 1184.84,-50.89 1182.34,-50.89 1182.34,-50.89 1182.34,-50.89 1184.84,-50.89 1182.34,-48.64 1187.34,-50.89 1187.34,-50.89"/>
</a>
</g>
</g>
</g>
</svg>
