<?xml version="1.0" encoding="UTF-8" standalone="no"?>
<!DOCTYPE svg PUBLIC "-//W3C//DTD SVG 1.1//EN"
 "http://www.w3.org/Graphics/SVG/1.1/DTD/svg11.dtd">
<!-- Generated by graphviz version 2.43.0 (0)
 -->
<!-- Title: DlgLoadDeckFromClipboard::actOK Pages: 1 -->
<svg width="1044pt" height="164pt"
 viewBox="0.00 0.00 1044.00 164.00" xmlns="http://www.w3.org/2000/svg" xmlns:xlink="http://www.w3.org/1999/xlink">
<g id="graph0" class="graph" transform="scale(1 1) rotate(0) translate(4 160)">
<title>DlgLoadDeckFromClipboard::actOK</title>
<!-- Node1 -->
<g id="Node000001" class="node">
<title>Node1</title>
<g id="a_Node000001"><a xlink:title=" ">
<polygon fill="#999999" stroke="#666666" points="152,-123.5 0,-123.5 0,-93.5 152,-93.5 152,-123.5"/>
<text text-anchor="start" x="8" y="-111.5" font-family="Helvetica,sans-Serif" font-size="10.00">DlgLoadDeckFromClipboard</text>
<text text-anchor="middle" x="76" y="-100.5" font-family="Helvetica,sans-Serif" font-size="10.00">::actOK</text>
</a>
</g>
</g>
<!-- Node2 -->
<g id="Node000002" class="node">
<title>Node2</title>
<g id="a_Node000002"><a xlink:href="../../d6/d3e/classAbstractDlgDeckTextEdit.html#a05dff5a87c3b693aa9e120d26d392e76" target="_top" xlink:title=" ">
<polygon fill="white" stroke="#666666" points="325,-123.5 188,-123.5 188,-93.5 325,-93.5 325,-123.5"/>
<text text-anchor="start" x="196" y="-111.5" font-family="Helvetica,sans-Serif" font-size="10.00">AbstractDlgDeckTextEdit</text>
<text text-anchor="middle" x="256.5" y="-100.5" font-family="Helvetica,sans-Serif" font-size="10.00">::loadIntoDeck</text>
</a>
</g>
</g>
<!-- Node1&#45;&gt;Node2 -->
<g id="edge1_Node000001_Node000002" class="edge">
<title>Node1&#45;&gt;Node2</title>
<g id="a_edge1_Node000001_Node000002"><a xlink:title=" ">
<path fill="none" stroke="#63b8ff" d="M152.18,-108.5C162.24,-108.5 172.55,-108.5 182.57,-108.5"/>
<polygon fill="#63b8ff" stroke="#63b8ff" points="187.78,-108.5 182.78,-110.75 185.28,-108.5 182.78,-108.5 182.78,-108.5 182.78,-108.5 185.28,-108.5 182.78,-106.25 187.78,-108.5 187.78,-108.5"/>
</a>
</g>
</g>
<!-- Node3 -->
<g id="Node000003" class="node">
<title>Node3</title>
<g id="a_Node000003"><a xlink:href="../../da/d68/classDeckList.html#a6ca4bb25dda768a1733396f89f8277e0" target="_top" xlink:title="Apply a function to every card in the deck tree.">
<polygon fill="white" stroke="#666666" points="492.5,-156 368.5,-156 368.5,-137 492.5,-137 492.5,-156"/>
<text text-anchor="middle" x="430.5" y="-144" font-family="Helvetica,sans-Serif" font-size="10.00">DeckList::forEachCard</text>
</a>
</g>
</g>
<!-- Node2&#45;&gt;Node3 -->
<g id="edge2_Node000002_Node000003" class="edge">
<title>Node2&#45;&gt;Node3</title>
<g id="a_edge2_Node000002_Node000003"><a xlink:title=" ">
<path fill="none" stroke="#63b8ff" d="M325.48,-123.52C344.12,-127.64 363.93,-132.01 381.22,-135.83"/>
<polygon fill="#63b8ff" stroke="#63b8ff" points="386.5,-137 381.13,-138.12 384.05,-136.46 381.61,-135.92 381.61,-135.92 381.61,-135.92 384.05,-136.46 382.1,-133.72 386.5,-137 386.5,-137"/>
</a>
</g>
</g>
<!-- Node4 -->
<g id="Node000004" class="node">
<title>Node4</title>
<g id="a_Node000004"><a xlink:href="../../da/d68/classDeckList.html#ad0a59ff0fd21322f9557c0ac1871a733" target="_top" xlink:title=" ">
<polygon fill="white" stroke="#666666" points="682,-123.5 536,-123.5 536,-93.5 682,-93.5 682,-123.5"/>
<text text-anchor="start" x="544" y="-111.5" font-family="Helvetica,sans-Serif" font-size="10.00">DeckList::loadFromStream</text>
<text text-anchor="middle" x="609" y="-100.5" font-family="Helvetica,sans-Serif" font-size="10.00">_Plain</text>
</a>
</g>
</g>
<!-- Node2&#45;&gt;Node4 -->
<g id="edge3_Node000002_Node000004" class="edge">
<title>Node2&#45;&gt;Node4</title>
<g id="a_edge3_Node000002_Node000004"><a xlink:title=" ">
<path fill="none" stroke="#63b8ff" d="M325.08,-108.5C383.9,-108.5 469.14,-108.5 530.67,-108.5"/>
<polygon fill="#63b8ff" stroke="#63b8ff" points="535.8,-108.5 530.8,-110.75 533.3,-108.5 530.8,-108.5 530.8,-108.5 530.8,-108.5 533.3,-108.5 530.8,-106.25 535.8,-108.5 535.8,-108.5"/>
</a>
</g>
</g>
<!-- Node7 -->
<g id="Node000007" class="node">
<title>Node7</title>
<g id="a_Node000007"><a xlink:href="../../da/d68/classDeckList.html#a3d51a040ee02249b4e4623988f9dd041" target="_top" xlink:title=" ">
<polygon fill="white" stroke="#666666" points="500,-80.5 361,-80.5 361,-50.5 500,-50.5 500,-80.5"/>
<text text-anchor="start" x="369" y="-68.5" font-family="Helvetica,sans-Serif" font-size="10.00">DeckList::loadFromString</text>
<text text-anchor="middle" x="430.5" y="-57.5" font-family="Helvetica,sans-Serif" font-size="10.00">_Native</text>
</a>
</g>
</g>
<!-- Node2&#45;&gt;Node7 -->
<g id="edge7_Node000002_Node000007" class="edge">
<title>Node2&#45;&gt;Node7</title>
<g id="a_edge7_Node000002_Node000007"><a xlink:title=" ">
<path fill="none" stroke="#63b8ff" d="M317.66,-93.46C332.71,-89.7 348.94,-85.64 364.23,-81.82"/>
<polygon fill="#63b8ff" stroke="#63b8ff" points="369.38,-80.53 365.07,-83.93 366.95,-81.14 364.53,-81.74 364.53,-81.74 364.53,-81.74 366.95,-81.14 363.98,-79.56 369.38,-80.53 369.38,-80.53"/>
</a>
</g>
</g>
<!-- Node5 -->
<g id="Node000005" class="node">
<title>Node5</title>
<g id="a_Node000005"><a xlink:href="../../da/d68/classDeckList.html#a773dea93b32b04d5251565251b4800ea" target="_top" xlink:title=" ">
<polygon fill="white" stroke="#666666" points="835.5,-113 727.5,-113 727.5,-94 835.5,-94 835.5,-113"/>
<text text-anchor="middle" x="781.5" y="-101" font-family="Helvetica,sans-Serif" font-size="10.00">DeckList::cleanList</text>
</a>
</g>
</g>
<!-- Node4&#45;&gt;Node5 -->
<g id="edge4_Node000004_Node000005" class="edge">
<title>Node4&#45;&gt;Node5</title>
<g id="a_edge4_Node000004_Node000005"><a xlink:title=" ">
<path fill="none" stroke="#63b8ff" d="M682.31,-106.38C695.69,-105.99 709.5,-105.58 722.4,-105.2"/>
<polygon fill="#63b8ff" stroke="#63b8ff" points="727.48,-105.05 722.55,-107.45 724.98,-105.13 722.48,-105.2 722.48,-105.2 722.48,-105.2 724.98,-105.13 722.41,-102.95 727.48,-105.05 727.48,-105.05"/>
</a>
</g>
</g>
<!-- Node6 -->
<g id="Node000006" class="node">
<title>Node6</title>
<g id="a_Node000006"><a xlink:href="../../da/d68/classDeckList.html#a4854d1f1622e53e8d0261b0536f7c546" target="_top" xlink:title=" ">
<polygon fill="white" stroke="#666666" points="1033,-113 884,-113 884,-94 1033,-94 1033,-113"/>
<text text-anchor="middle" x="958.5" y="-101" font-family="Helvetica,sans-Serif" font-size="10.00">DeckList::refreshDeckHash</text>
</a>
</g>
</g>
<!-- Node4&#45;&gt;Node6 -->
<g id="edge6_Node000004_Node000006" class="edge">
<title>Node4&#45;&gt;Node6</title>
<g id="a_edge6_Node000004_Node000006"><a xlink:title=" ">
<path fill="none" stroke="#63b8ff" d="M682.2,-119.17C694.14,-120.55 706.4,-121.75 718,-122.5 774.33,-126.14 788.75,-127.22 845,-122.5 865.21,-120.81 887.24,-117.43 906.42,-113.98"/>
<polygon fill="#63b8ff" stroke="#63b8ff" points="911.74,-113.01 907.23,-116.12 909.28,-113.46 906.82,-113.91 906.82,-113.91 906.82,-113.91 909.28,-113.46 906.42,-111.7 911.74,-113.01 911.74,-113.01"/>
</a>
</g>
</g>
<!-- Node5&#45;&gt;Node6 -->
<g id="edge5_Node000005_Node000006" class="edge">
<title>Node5&#45;&gt;Node6</title>
<g id="a_edge5_Node000005_Node000006"><a xlink:title=" ">
<path fill="none" stroke="#63b8ff" d="M835.96,-103.5C849.39,-103.5 864.08,-103.5 878.47,-103.5"/>
<polygon fill="#63b8ff" stroke="#63b8ff" points="883.75,-103.5 878.75,-105.75 881.25,-103.5 878.75,-103.5 878.75,-103.5 878.75,-103.5 881.25,-103.5 878.75,-101.25 883.75,-103.5 883.75,-103.5"/>
</a>
</g>
</g>
<!-- Node8 -->
<g id="Node000008" class="node">
<title>Node8</title>
<g id="a_Node000008"><a xlink:href="../../da/d68/classDeckList.html#a79ee05fb6b1be4dcf5d07cab77c39437" target="_top" xlink:title=" ">
<polygon fill="white" stroke="#666666" points="674,-75 544,-75 544,-56 674,-56 674,-75"/>
<text text-anchor="middle" x="609" y="-63" font-family="Helvetica,sans-Serif" font-size="10.00">DeckList::loadFromXml</text>
</a>
</g>
</g>
<!-- Node7&#45;&gt;Node8 -->
<g id="edge8_Node000007_Node000008" class="edge">
<title>Node7&#45;&gt;Node8</title>
<g id="a_edge8_Node000007_Node000008"><a xlink:title=" ">
<path fill="none" stroke="#63b8ff" d="M500.24,-65.5C512.89,-65.5 526.1,-65.5 538.76,-65.5"/>
<polygon fill="#63b8ff" stroke="#63b8ff" points="543.77,-65.5 538.77,-67.75 541.27,-65.5 538.77,-65.5 538.77,-65.5 538.77,-65.5 541.27,-65.5 538.77,-63.25 543.77,-65.5 543.77,-65.5"/>
</a>
</g>
</g>
<!-- Node8&#45;&gt;Node5 -->
<g id="edge9_Node000008_Node000005" class="edge">
<title>Node8&#45;&gt;Node5</title>
<g id="a_edge9_Node000008_Node000005"><a xlink:title=" ">
<path fill="none" stroke="#63b8ff" d="M653.02,-75.09C677.35,-80.51 707.81,-87.3 732.85,-92.88"/>
<polygon fill="#63b8ff" stroke="#63b8ff" points="737.79,-93.98 732.42,-95.09 735.34,-93.44 732.9,-92.89 732.9,-92.89 732.9,-92.89 735.34,-93.44 733.39,-90.7 737.79,-93.98 737.79,-93.98"/>
</a>
</g>
</g>
<!-- Node8&#45;&gt;Node6 -->
<g id="edge13_Node000008_Node000006" class="edge">
<title>Node8&#45;&gt;Node6</title>
<g id="a_edge13_Node000008_Node000006"><a xlink:title=" ">
<path fill="none" stroke="#63b8ff" d="M674.24,-69.19C721.56,-72.27 787.42,-77.32 845,-84.5 863.51,-86.81 883.62,-89.99 901.65,-93.08"/>
<polygon fill="#63b8ff" stroke="#63b8ff" points="906.67,-93.96 901.36,-95.32 904.21,-93.53 901.75,-93.1 901.75,-93.1 901.75,-93.1 904.21,-93.53 902.13,-90.89 906.67,-93.96 906.67,-93.96"/>
</a>
</g>
</g>
<!-- Node9 -->
<g id="Node000009" class="node">
<title>Node9</title>
<g id="a_Node000009"><a xlink:href="../../da/d68/classDeckList.html#a011d41232bbf43b948d82271a49fa4d8" target="_top" xlink:title=" ">
<polygon fill="white" stroke="#666666" points="845,-37 718,-37 718,-18 845,-18 845,-37"/>
<text text-anchor="middle" x="781.5" y="-25" font-family="Helvetica,sans-Serif" font-size="10.00">DeckList::readElement</text>
</a>
</g>
</g>
<!-- Node8&#45;&gt;Node9 -->
<g id="edge10_Node000008_Node000009" class="edge">
<title>Node8&#45;&gt;Node9</title>
<g id="a_edge10_Node000008_Node000009"><a xlink:title=" ">
<path fill="none" stroke="#63b8ff" d="M653.02,-55.91C677.35,-50.49 707.81,-43.7 732.85,-38.12"/>
<polygon fill="#63b8ff" stroke="#63b8ff" points="737.79,-37.02 733.39,-40.3 735.34,-37.56 732.9,-38.11 732.9,-38.11 732.9,-38.11 735.34,-37.56 732.42,-35.91 737.79,-37.02 737.79,-37.02"/>
</a>
</g>
</g>
<!-- Node10 -->
<g id="Node000010" class="node">
<title>Node10</title>
<g id="a_Node000010"><a xlink:href="../../dc/d8b/classSideboardPlan.html#a9becc8f13ae1fcb944970547c4eeaf34" target="_top" xlink:title=" ">
<polygon fill="white" stroke="#666666" points="1027,-56 890,-56 890,-37 1027,-37 1027,-56"/>
<text text-anchor="middle" x="958.5" y="-44" font-family="Helvetica,sans-Serif" font-size="10.00">SideboardPlan::getName</text>
</a>
</g>
</g>
<!-- Node9&#45;&gt;Node10 -->
<g id="edge11_Node000009_Node000010" class="edge">
<title>Node9&#45;&gt;Node10</title>
<g id="a_edge11_Node000009_Node000010"><a xlink:title=" ">
<path fill="none" stroke="#63b8ff" d="M845.18,-34.31C858,-35.7 871.59,-37.17 884.72,-38.6"/>
<polygon fill="#63b8ff" stroke="#63b8ff" points="889.92,-39.16 884.71,-40.86 887.44,-38.89 884.95,-38.62 884.95,-38.62 884.95,-38.62 887.44,-38.89 885.19,-36.39 889.92,-39.16 889.92,-39.16"/>
</a>
</g>
</g>
<!-- Node11 -->
<g id="Node000011" class="node">
<title>Node11</title>
<g id="a_Node000011"><a xlink:href="../../dc/d8b/classSideboardPlan.html#a968cef119c90e00140629c0ea98be828" target="_top" xlink:title="Read a SideboardPlan from an XML stream.">
<polygon fill="white" stroke="#666666" points="1036,-19 881,-19 881,0 1036,0 1036,-19"/>
<text text-anchor="middle" x="958.5" y="-7" font-family="Helvetica,sans-Serif" font-size="10.00">SideboardPlan::readElement</text>
</a>
</g>
</g>
<!-- Node9&#45;&gt;Node11 -->
<g id="edge12_Node000009_Node000011" class="edge">
<title>Node9&#45;&gt;Node11</title>
<g id="a_edge12_Node000009_Node000011"><a xlink:title=" ">
<path fill="none" stroke="#63b8ff" d="M845.18,-21.05C855.13,-20.03 865.54,-18.96 875.84,-17.9"/>
<polygon fill="#63b8ff" stroke="#63b8ff" points="880.89,-17.38 876.15,-20.13 878.4,-17.64 875.92,-17.89 875.92,-17.89 875.92,-17.89 878.4,-17.64 875.69,-15.65 880.89,-17.38 880.89,-17.38"/>
</a>
</g>
</g>
</g>
</svg>
