<?xml version="1.0" encoding="UTF-8" standalone="no"?>
<!DOCTYPE svg PUBLIC "-//W3C//DTD SVG 1.1//EN"
 "http://www.w3.org/Graphics/SVG/1.1/DTD/svg11.dtd">
<!-- Generated by graphviz version 2.43.0 (0)
 -->
<!-- Title: Server_ProtocolHandler Pages: 1 -->
<svg width="242pt" height="192pt"
 viewBox="0.00 0.00 242.00 192.00" xmlns="http://www.w3.org/2000/svg" xmlns:xlink="http://www.w3.org/1999/xlink">

<svg id="main" version="1.1" xmlns="http://www.w3.org/2000/svg" xmlns:xlink="http://www.w3.org/1999/xlink" xml:space="preserve" onload="init(evt)">
<style type="text/css"><![CDATA[
.node, .edge {opacity: 0.7;}
.node.selected, .edge.selected {opacity: 1;}
.edge:hover path { stroke: red; }
.edge:hover polygon { stroke: red; fill: red; }
]]></style>
<script type="application/ecmascript" xlink:href="../../svg.min.js"/>
<svg id="graph" class="graph">
<g id="graph0" class="graph" transform="scale(1 1) rotate(0) translate(4 188)">
<title>Server_ProtocolHandler</title>
<!-- Node1 -->
<g id="Node000001" class="node">
<title>Node1</title>
<g id="a_Node000001"><a xlink:title=" ">
<polygon fill="#999999" stroke="#666666" points="156.5,-74 25.5,-74 25.5,-55 156.5,-55 156.5,-74"/>
<text text-anchor="middle" x="91" y="-62" font-family="Helvetica,sans-Serif" font-size="10.00">Server_ProtocolHandler</text>
</a>
</g>
</g>
<!-- Node5 -->
<g id="Node000005" class="node">
<title>Node5</title>
<g id="a_Node000005"><a xlink:href="../../d0/dc3/classLocalServerInterface.html" target="_top" xlink:title=" ">
<polygon fill="white" stroke="#666666" points="149.5,-19 32.5,-19 32.5,0 149.5,0 149.5,-19"/>
<text text-anchor="middle" x="91" y="-7" font-family="Helvetica,sans-Serif" font-size="10.00">LocalServerInterface</text>
</a>
</g>
</g>
<!-- Node1&#45;&gt;Node5 -->
<g id="edge4_Node000001_Node000005" class="edge">
<title>Node1&#45;&gt;Node5</title>
<g id="a_edge4_Node000001_Node000005"><a xlink:title=" ">
<path fill="none" stroke="#63b8ff" d="M91,-49.72C91,-40.03 91,-27.37 91,-19.09"/>
<polygon fill="#63b8ff" stroke="#63b8ff" points="91,-54.75 88.75,-49.75 91,-52.25 91,-49.75 91,-49.75 91,-49.75 91,-52.25 93.25,-49.75 91,-54.75 91,-54.75"/>
</a>
</g>
</g>
<!-- Node2 -->
<g id="Node000002" class="node">
<title>Node2</title>
<g id="a_Node000002"><a xlink:title=" ">
<polygon fill="white" stroke="#666666" points="56,-129 0,-129 0,-110 56,-110 56,-129"/>
<text text-anchor="middle" x="28" y="-117" font-family="Helvetica,sans-Serif" font-size="10.00">QObject</text>
</a>
</g>
</g>
<!-- Node2&#45;&gt;Node1 -->
<g id="edge1_Node000001_Node000002" class="edge">
<title>Node2&#45;&gt;Node1</title>
<g id="a_edge1_Node000001_Node000002"><a xlink:title=" ">
<path fill="none" stroke="#63b8ff" d="M42.2,-106.55C53.9,-96.71 70.22,-82.98 80.69,-74.17"/>
<polygon fill="#63b8ff" stroke="#63b8ff" points="38.12,-109.98 40.5,-105.04 40.04,-108.38 41.95,-106.77 41.95,-106.77 41.95,-106.77 40.04,-108.38 43.4,-108.49 38.12,-109.98 38.12,-109.98"/>
</a>
</g>
</g>
<!-- Node3 -->
<g id="Node000003" class="node">
<title>Node3</title>
<g id="a_Node000003"><a xlink:href="../../d5/d9c/classServer__AbstractUserInterface.html" target="_top" xlink:title=" ">
<polygon fill="white" stroke="#666666" points="234,-129 74,-129 74,-110 234,-110 234,-129"/>
<text text-anchor="middle" x="154" y="-117" font-family="Helvetica,sans-Serif" font-size="10.00">Server_AbstractUserInterface</text>
</a>
</g>
</g>
<!-- Node3&#45;&gt;Node1 -->
<g id="edge2_Node000001_Node000003" class="edge">
<title>Node3&#45;&gt;Node1</title>
<g id="a_edge2_Node000001_Node000003"><a xlink:title=" ">
<path fill="none" stroke="#63b8ff" d="M139.8,-106.55C128.1,-96.71 111.78,-82.98 101.31,-74.17"/>
<polygon fill="#63b8ff" stroke="#63b8ff" points="143.88,-109.98 138.6,-108.49 141.96,-108.38 140.05,-106.77 140.05,-106.77 140.05,-106.77 141.96,-108.38 141.5,-105.04 143.88,-109.98 143.88,-109.98"/>
</a>
</g>
</g>
<!-- Node4 -->
<g id="Node000004" class="node">
<title>Node4</title>
<g id="a_Node000004"><a xlink:href="../../d9/d5b/classServerInfo__User__Container.html" target="_top" xlink:title=" ">
<polygon fill="white" stroke="#666666" points="227.5,-184 80.5,-184 80.5,-165 227.5,-165 227.5,-184"/>
<text text-anchor="middle" x="154" y="-172" font-family="Helvetica,sans-Serif" font-size="10.00">ServerInfo_User_Container</text>
</a>
</g>
</g>
<!-- Node4&#45;&gt;Node3 -->
<g id="edge3_Node000003_Node000004" class="edge">
<title>Node4&#45;&gt;Node3</title>
<g id="a_edge3_Node000003_Node000004"><a xlink:title=" ">
<path fill="none" stroke="#63b8ff" d="M154,-159.72C154,-150.03 154,-137.37 154,-129.09"/>
<polygon fill="#63b8ff" stroke="#63b8ff" points="154,-164.75 151.75,-159.75 154,-162.25 154,-159.75 154,-159.75 154,-159.75 154,-162.25 156.25,-159.75 154,-164.75 154,-164.75"/>
</a>
</g>
</g>
</g>
</svg>
</svg>

<style type='text/css'>
<![CDATA[
[data-mouse-over-selected='false'] { opacity: 0.7; }
[data-mouse-over-selected='true']  { opacity: 1.0; }
]]>
</style>
<script type="application/ecmascript"><![CDATA[
document.addEventListener('DOMContentLoaded', (event) => {
  highlightEdges();
  highlightAdjacentNodes();
});
]]></script>
</svg>
