<?xml version="1.0" encoding="UTF-8" standalone="no"?>
<!DOCTYPE svg PUBLIC "-//W3C//DTD SVG 1.1//EN"
 "http://www.w3.org/Graphics/SVG/1.1/DTD/svg11.dtd">
<!-- Generated by graphviz version 2.43.0 (0)
 -->
<!-- Title: DebugSettings::DebugSettings Pages: 1 -->
<svg width="555pt" height="38pt"
 viewBox="0.00 0.00 555.00 38.00" xmlns="http://www.w3.org/2000/svg" xmlns:xlink="http://www.w3.org/1999/xlink">
<g id="graph0" class="graph" transform="scale(1 1) rotate(0) translate(4 34)">
<title>DebugSettings::DebugSettings</title>
<!-- Node1 -->
<g id="Node000001" class="node">
<title>Node1</title>
<g id="a_Node000001"><a xlink:title=" ">
<polygon fill="#999999" stroke="#666666" points="165,-24.5 0,-24.5 0,-5.5 165,-5.5 165,-24.5"/>
<text text-anchor="middle" x="82.5" y="-12.5" font-family="Helvetica,sans-Serif" font-size="10.00">DebugSettings::DebugSettings</text>
</a>
</g>
</g>
<!-- Node2 -->
<g id="Node000002" class="node">
<title>Node2</title>
<g id="a_Node000002"><a xlink:href="../../d9/d00/classDebugSettings.html#a2cebc90e8450f938d237c6cc5f27582c" target="_top" xlink:title=" ">
<polygon fill="white" stroke="#666666" points="366,-24.5 201,-24.5 201,-5.5 366,-5.5 366,-24.5"/>
<text text-anchor="middle" x="283.5" y="-12.5" font-family="Helvetica,sans-Serif" font-size="10.00">DebugSettings::DebugSettings</text>
</a>
</g>
</g>
<!-- Node1&#45;&gt;Node2 -->
<g id="edge1_Node000001_Node000002" class="edge">
<title>Node1&#45;&gt;Node2</title>
<g id="a_edge1_Node000001_Node000002"><a xlink:title=" ">
<path fill="none" stroke="#63b8ff" d="M165.02,-15C175.16,-15 185.57,-15 195.79,-15"/>
<polygon fill="#63b8ff" stroke="#63b8ff" points="200.79,-15 195.79,-17.25 198.29,-15 195.79,-15 195.79,-15 195.79,-15 198.29,-15 195.79,-12.75 200.79,-15 200.79,-15"/>
</a>
</g>
</g>
<!-- Node3 -->
<g id="Node000003" class="node">
<title>Node3</title>
<g id="a_Node000003"><a xlink:href="../../d1/dea/classSettingsManager.html#a7be922bcff08d4de81a60f4882601f18" target="_top" xlink:title=" ">
<polygon fill="white" stroke="#666666" points="547,-30 402,-30 402,0 547,0 547,-30"/>
<text text-anchor="start" x="410" y="-18" font-family="Helvetica,sans-Serif" font-size="10.00">SettingsManager::Settings</text>
<text text-anchor="middle" x="474.5" y="-7" font-family="Helvetica,sans-Serif" font-size="10.00">Manager</text>
</a>
</g>
</g>
<!-- Node2&#45;&gt;Node3 -->
<g id="edge2_Node000002_Node000003" class="edge">
<title>Node2&#45;&gt;Node3</title>
<g id="a_edge2_Node000002_Node000003"><a xlink:title=" ">
<path fill="none" stroke="#63b8ff" d="M366.02,-15C376.15,-15 386.48,-15 396.53,-15"/>
<polygon fill="#63b8ff" stroke="#63b8ff" points="401.76,-15 396.76,-17.25 399.26,-15 396.76,-15 396.76,-15 396.76,-15 399.26,-15 396.76,-12.75 401.76,-15 401.76,-15"/>
</a>
</g>
</g>
</g>
</svg>
