<?xml version="1.0" encoding="UTF-8" standalone="no"?>
<!DOCTYPE svg PUBLIC "-//W3C//DTD SVG 1.1//EN"
 "http://www.w3.org/Graphics/SVG/1.1/DTD/svg11.dtd">
<!-- Generated by graphviz version 2.43.0 (0)
 -->
<!-- Title: Server_AbstractParticipant::getJudge Pages: 1 -->
<svg width="1770pt" height="175pt"
 viewBox="0.00 0.00 1770.00 174.50" xmlns="http://www.w3.org/2000/svg" xmlns:xlink="http://www.w3.org/1999/xlink">
<g id="graph0" class="graph" transform="scale(1 1) rotate(0) translate(4 170.5)">
<title>Server_AbstractParticipant::getJudge</title>
<!-- Node1 -->
<g id="Node000001" class="node">
<title>Node1</title>
<g id="a_Node000001"><a xlink:title=" ">
<polygon fill="#999999" stroke="#666666" points="1762,-123.5 1616,-123.5 1616,-93.5 1762,-93.5 1762,-123.5"/>
<text text-anchor="start" x="1624" y="-111.5" font-family="Helvetica,sans-Serif" font-size="10.00">Server_AbstractParticipant</text>
<text text-anchor="middle" x="1689" y="-100.5" font-family="Helvetica,sans-Serif" font-size="10.00">::getJudge</text>
</a>
</g>
</g>
<!-- Node2 -->
<g id="Node000002" class="node">
<title>Node2</title>
<g id="a_Node000002"><a xlink:href="../../da/d99/classServer__AbstractPlayer.html#a33de413937d09783edc3e413827a0a47" target="_top" xlink:title=" ">
<polygon fill="white" stroke="#666666" points="1553,-147.5 1428,-147.5 1428,-117.5 1553,-117.5 1553,-147.5"/>
<text text-anchor="start" x="1436" y="-135.5" font-family="Helvetica,sans-Serif" font-size="10.00">Server_AbstractPlayer</text>
<text text-anchor="middle" x="1490.5" y="-124.5" font-family="Helvetica,sans-Serif" font-size="10.00">::cmdRevealCards</text>
</a>
</g>
</g>
<!-- Node1&#45;&gt;Node2 -->
<g id="edge1_Node000001_Node000002" class="edge">
<title>Node1&#45;&gt;Node2</title>
<g id="a_edge1_Node000001_Node000002"><a xlink:title=" ">
<path fill="none" stroke="#63b8ff" d="M1610.6,-117.95C1591.55,-120.28 1571.39,-122.74 1553.19,-124.96"/>
<polygon fill="#63b8ff" stroke="#63b8ff" points="1615.95,-117.3 1611.26,-120.14 1613.46,-117.6 1610.98,-117.91 1610.98,-117.91 1610.98,-117.91 1613.46,-117.6 1610.71,-115.67 1615.95,-117.3 1615.95,-117.3"/>
</a>
</g>
</g>
<!-- Node3 -->
<g id="Node000003" class="node">
<title>Node3</title>
<g id="a_Node000003"><a xlink:href="../../df/d89/classServer__Game.html#acea57cbc97a75287ccf40305961f92c3" target="_top" xlink:title=" ">
<polygon fill="white" stroke="#666666" points="1580,-99.5 1401,-99.5 1401,-69.5 1580,-69.5 1580,-99.5"/>
<text text-anchor="start" x="1409" y="-87.5" font-family="Helvetica,sans-Serif" font-size="10.00">Server_Game::createGameJoined</text>
<text text-anchor="middle" x="1490.5" y="-76.5" font-family="Helvetica,sans-Serif" font-size="10.00">Event</text>
</a>
</g>
</g>
<!-- Node1&#45;&gt;Node3 -->
<g id="edge2_Node000001_Node000003" class="edge">
<title>Node1&#45;&gt;Node3</title>
<g id="a_edge2_Node000001_Node000003"><a xlink:title=" ">
<path fill="none" stroke="#63b8ff" d="M1610.74,-99.06C1600.74,-97.84 1590.43,-96.58 1580.25,-95.34"/>
<polygon fill="#63b8ff" stroke="#63b8ff" points="1615.95,-99.7 1610.71,-101.33 1613.46,-99.4 1610.98,-99.09 1610.98,-99.09 1610.98,-99.09 1613.46,-99.4 1611.26,-96.86 1615.95,-99.7 1615.95,-99.7"/>
</a>
</g>
</g>
<!-- Node4 -->
<g id="Node000004" class="node">
<title>Node4</title>
<g id="a_Node000004"><a xlink:href="../../df/d89/classServer__Game.html#ae148abd9d42256a5b47ad78779575873" target="_top" xlink:title=" ">
<polygon fill="white" stroke="#666666" points="1365,-75 1228,-75 1228,-56 1365,-56 1365,-75"/>
<text text-anchor="middle" x="1296.5" y="-63" font-family="Helvetica,sans-Serif" font-size="10.00">Server_Game::addPlayer</text>
</a>
</g>
</g>
<!-- Node3&#45;&gt;Node4 -->
<g id="edge3_Node000003_Node000004" class="edge">
<title>Node3&#45;&gt;Node4</title>
<g id="a_edge3_Node000003_Node000004"><a xlink:title=" ">
<path fill="none" stroke="#63b8ff" d="M1395.74,-75.22C1385.42,-74.2 1375.06,-73.17 1365.14,-72.19"/>
<polygon fill="#63b8ff" stroke="#63b8ff" points="1400.81,-75.72 1395.61,-77.47 1398.32,-75.48 1395.83,-75.23 1395.83,-75.23 1395.83,-75.23 1398.32,-75.48 1396.05,-72.99 1400.81,-75.72 1400.81,-75.72"/>
</a>
</g>
</g>
<!-- Node19 -->
<g id="Node000019" class="node">
<title>Node19</title>
<g id="a_Node000019"><a xlink:href="../../d5/d9c/classServer__AbstractUserInterface.html#a30f0ce2f69847bbcec89e524227db527" target="_top" xlink:title=" ">
<polygon fill="white" stroke="#666666" points="1192,-123.5 1032,-123.5 1032,-93.5 1192,-93.5 1192,-123.5"/>
<text text-anchor="start" x="1040" y="-111.5" font-family="Helvetica,sans-Serif" font-size="10.00">Server_AbstractUserInterface</text>
<text text-anchor="middle" x="1112" y="-100.5" font-family="Helvetica,sans-Serif" font-size="10.00">::joinPersistentGames</text>
</a>
</g>
</g>
<!-- Node3&#45;&gt;Node19 -->
<g id="edge18_Node000003_Node000019" class="edge">
<title>Node3&#45;&gt;Node19</title>
<g id="a_edge18_Node000003_Node000019"><a xlink:title=" ">
<path fill="none" stroke="#63b8ff" d="M1395.52,-90.49C1332.89,-94.48 1251.52,-99.67 1192.19,-103.45"/>
<polygon fill="#63b8ff" stroke="#63b8ff" points="1400.75,-90.16 1395.9,-92.72 1398.26,-90.32 1395.76,-90.48 1395.76,-90.48 1395.76,-90.48 1398.26,-90.32 1395.62,-88.23 1400.75,-90.16 1400.75,-90.16"/>
</a>
</g>
</g>
<!-- Node5 -->
<g id="Node000005" class="node">
<title>Node5</title>
<g id="a_Node000005"><a xlink:href="../../d1/d15/classServer__Room.html#a2ddf4e59d67ca8ab6adb24a2f5fc8cde" target="_top" xlink:title=" ">
<polygon fill="white" stroke="#666666" points="1183.5,-75.5 1040.5,-75.5 1040.5,-45.5 1183.5,-45.5 1183.5,-75.5"/>
<text text-anchor="start" x="1048.5" y="-63.5" font-family="Helvetica,sans-Serif" font-size="10.00">Server_Room::processJoin</text>
<text text-anchor="middle" x="1112" y="-52.5" font-family="Helvetica,sans-Serif" font-size="10.00">GameCommand</text>
</a>
</g>
</g>
<!-- Node4&#45;&gt;Node5 -->
<g id="edge4_Node000004_Node000005" class="edge">
<title>Node4&#45;&gt;Node5</title>
<g id="a_edge4_Node000004_Node000005"><a xlink:title=" ">
<path fill="none" stroke="#63b8ff" d="M1222.71,-63.51C1209.84,-63.15 1196.45,-62.79 1183.64,-62.44"/>
<polygon fill="#63b8ff" stroke="#63b8ff" points="1227.8,-63.65 1222.74,-65.76 1225.3,-63.58 1222.8,-63.51 1222.8,-63.51 1222.8,-63.51 1225.3,-63.58 1222.87,-61.26 1227.8,-63.65 1227.8,-63.65"/>
</a>
</g>
</g>
<!-- Node6 -->
<g id="Node000006" class="node">
<title>Node6</title>
<g id="a_Node000006"><a xlink:href="../../d0/d23/classServer__ProtocolHandler.html#a80a629f238d2f278fa85e82569ce5db5" target="_top" xlink:title=" ">
<polygon fill="white" stroke="#666666" points="988,-78.5 857,-78.5 857,-48.5 988,-48.5 988,-78.5"/>
<text text-anchor="start" x="865" y="-66.5" font-family="Helvetica,sans-Serif" font-size="10.00">Server_ProtocolHandler</text>
<text text-anchor="middle" x="922.5" y="-55.5" font-family="Helvetica,sans-Serif" font-size="10.00">::cmdJoinGame</text>
</a>
</g>
</g>
<!-- Node5&#45;&gt;Node6 -->
<g id="edge5_Node000005_Node000006" class="edge">
<title>Node5&#45;&gt;Node6</title>
<g id="a_edge5_Node000005_Node000006"><a xlink:title=" ">
<path fill="none" stroke="#63b8ff" d="M1035.13,-61.71C1019.56,-61.96 1003.32,-62.22 988.19,-62.47"/>
<polygon fill="#63b8ff" stroke="#63b8ff" points="1040.38,-61.63 1035.42,-63.96 1037.88,-61.67 1035.38,-61.71 1035.38,-61.71 1035.38,-61.71 1037.88,-61.67 1035.35,-59.46 1040.38,-61.63 1040.38,-61.63"/>
</a>
</g>
</g>
<!-- Node15 -->
<g id="Node000015" class="node">
<title>Node15</title>
<g id="a_Node000015"><a xlink:href="../../db/d00/classServer.html#a788482387416335455df80db85ea8b41" target="_top" xlink:title=" ">
<polygon fill="white" stroke="#666666" points="993.5,-30.5 851.5,-30.5 851.5,-0.5 993.5,-0.5 993.5,-30.5"/>
<text text-anchor="start" x="859.5" y="-18.5" font-family="Helvetica,sans-Serif" font-size="10.00">Server::externalJoinGame</text>
<text text-anchor="middle" x="922.5" y="-7.5" font-family="Helvetica,sans-Serif" font-size="10.00">CommandReceived</text>
</a>
</g>
</g>
<!-- Node5&#45;&gt;Node15 -->
<g id="edge14_Node000005_Node000015" class="edge">
<title>Node5&#45;&gt;Node15</title>
<g id="a_edge14_Node000005_Node000015"><a xlink:title=" ">
<path fill="none" stroke="#63b8ff" d="M1043.1,-44.2C1024.5,-39.74 1004.43,-34.92 986.14,-30.53"/>
<polygon fill="#63b8ff" stroke="#63b8ff" points="1048.3,-45.45 1042.92,-46.47 1045.87,-44.87 1043.44,-44.29 1043.44,-44.29 1043.44,-44.29 1045.87,-44.87 1043.97,-42.1 1048.3,-45.45 1048.3,-45.45"/>
</a>
</g>
</g>
<!-- Node7 -->
<g id="Node000007" class="node">
<title>Node7</title>
<g id="a_Node000007"><a xlink:href="../../d0/d23/classServer__ProtocolHandler.html#a0e26caee42790f25027eb553089365ca" target="_top" xlink:title=" ">
<polygon fill="white" stroke="#666666" points="808.5,-87.5 622.5,-87.5 622.5,-57.5 808.5,-57.5 808.5,-87.5"/>
<text text-anchor="start" x="630.5" y="-75.5" font-family="Helvetica,sans-Serif" font-size="10.00">Server_ProtocolHandler</text>
<text text-anchor="middle" x="715.5" y="-64.5" font-family="Helvetica,sans-Serif" font-size="10.00">::processRoomCommandContainer</text>
</a>
</g>
</g>
<!-- Node6&#45;&gt;Node7 -->
<g id="edge6_Node000006_Node000007" class="edge">
<title>Node6&#45;&gt;Node7</title>
<g id="a_edge6_Node000006_Node000007"><a xlink:title=" ">
<path fill="none" stroke="#63b8ff" d="M851.83,-66.56C837.89,-67.17 823.06,-67.82 808.5,-68.46"/>
<polygon fill="#63b8ff" stroke="#63b8ff" points="856.92,-66.34 852.02,-68.8 854.42,-66.45 851.92,-66.55 851.92,-66.55 851.92,-66.55 854.42,-66.45 851.82,-64.31 856.92,-66.34 856.92,-66.34"/>
</a>
</g>
</g>
<!-- Node8 -->
<g id="Node000008" class="node">
<title>Node8</title>
<g id="a_Node000008"><a xlink:href="../../d0/d23/classServer__ProtocolHandler.html#a5d3b699ffcf0dcfb4a3f42d180a8a2f7" target="_top" xlink:title=" ">
<polygon fill="white" stroke="#666666" points="582,-118.5 424,-118.5 424,-88.5 582,-88.5 582,-118.5"/>
<text text-anchor="start" x="432" y="-106.5" font-family="Helvetica,sans-Serif" font-size="10.00">Server_ProtocolHandler</text>
<text text-anchor="middle" x="503" y="-95.5" font-family="Helvetica,sans-Serif" font-size="10.00">::processCommandContainer</text>
</a>
</g>
</g>
<!-- Node7&#45;&gt;Node8 -->
<g id="edge7_Node000007_Node000008" class="edge">
<title>Node7&#45;&gt;Node8</title>
<g id="a_edge7_Node000007_Node000008"><a xlink:title=" ">
<path fill="none" stroke="#63b8ff" d="M617.4,-86.8C605.54,-88.55 593.54,-90.31 582.01,-92.01"/>
<polygon fill="#63b8ff" stroke="#63b8ff" points="622.48,-86.05 617.86,-89.01 620,-86.42 617.53,-86.78 617.53,-86.78 617.53,-86.78 620,-86.42 617.2,-84.55 622.48,-86.05 622.48,-86.05"/>
</a>
</g>
</g>
<!-- Node9 -->
<g id="Node000009" class="node">
<title>Node9</title>
<g id="a_Node000009"><a xlink:href="../../de/db1/classWebsocketServerSocketInterface.html#a2f1e03f4baab144726729ddd833bdc20" target="_top" xlink:title=" ">
<polygon fill="white" stroke="#666666" points="388,-166.5 212,-166.5 212,-136.5 388,-136.5 388,-166.5"/>
<text text-anchor="start" x="220" y="-154.5" font-family="Helvetica,sans-Serif" font-size="10.00">WebsocketServerSocketInterface</text>
<text text-anchor="middle" x="300" y="-143.5" font-family="Helvetica,sans-Serif" font-size="10.00">::binaryMessageReceived</text>
</a>
</g>
</g>
<!-- Node8&#45;&gt;Node9 -->
<g id="edge8_Node000008_Node000009" class="edge">
<title>Node8&#45;&gt;Node9</title>
<g id="a_edge8_Node000008_Node000009"><a xlink:title=" ">
<path fill="none" stroke="#63b8ff" d="M433.86,-119.77C411.19,-125.19 386.07,-131.19 363.82,-136.5"/>
<polygon fill="#63b8ff" stroke="#63b8ff" points="438.95,-118.56 434.61,-121.91 436.52,-119.14 434.09,-119.72 434.09,-119.72 434.09,-119.72 436.52,-119.14 433.57,-117.53 438.95,-118.56 438.95,-118.56"/>
</a>
</g>
</g>
<!-- Node11 -->
<g id="Node000011" class="node">
<title>Node11</title>
<g id="a_Node000011"><a xlink:href="../../d0/dc3/classLocalServerInterface.html#a82c6e84346069a3b7506835a6ec58c4a" target="_top" xlink:title=" ">
<polygon fill="white" stroke="#666666" points="358.5,-118.5 241.5,-118.5 241.5,-88.5 358.5,-88.5 358.5,-118.5"/>
<text text-anchor="start" x="249.5" y="-106.5" font-family="Helvetica,sans-Serif" font-size="10.00">LocalServerInterface</text>
<text text-anchor="middle" x="300" y="-95.5" font-family="Helvetica,sans-Serif" font-size="10.00">::itemFromClient</text>
</a>
</g>
</g>
<!-- Node8&#45;&gt;Node11 -->
<g id="edge10_Node000008_Node000011" class="edge">
<title>Node8&#45;&gt;Node11</title>
<g id="a_edge10_Node000008_Node000011"><a xlink:title=" ">
<path fill="none" stroke="#63b8ff" d="M418.6,-103.5C398.39,-103.5 377.24,-103.5 358.53,-103.5"/>
<polygon fill="#63b8ff" stroke="#63b8ff" points="423.71,-103.5 418.71,-105.75 421.21,-103.5 418.71,-103.5 418.71,-103.5 418.71,-103.5 421.21,-103.5 418.71,-101.25 423.71,-103.5 423.71,-103.5"/>
</a>
</g>
</g>
<!-- Node13 -->
<g id="Node000013" class="node">
<title>Node13</title>
<g id="a_Node000013"><a xlink:href="../../dd/d13/classTcpServerSocketInterface.html#a3154613eadb2b50691fb77b7827fb733" target="_top" xlink:title=" ">
<polygon fill="white" stroke="#666666" points="370,-70.5 230,-70.5 230,-40.5 370,-40.5 370,-70.5"/>
<text text-anchor="start" x="238" y="-58.5" font-family="Helvetica,sans-Serif" font-size="10.00">TcpServerSocketInterface</text>
<text text-anchor="middle" x="300" y="-47.5" font-family="Helvetica,sans-Serif" font-size="10.00">::readClient</text>
</a>
</g>
</g>
<!-- Node8&#45;&gt;Node13 -->
<g id="edge12_Node000008_Node000013" class="edge">
<title>Node8&#45;&gt;Node13</title>
<g id="a_edge12_Node000008_Node000013"><a xlink:title=" ">
<path fill="none" stroke="#63b8ff" d="M433.86,-87.23C411.19,-81.81 386.07,-75.81 363.82,-70.5"/>
<polygon fill="#63b8ff" stroke="#63b8ff" points="438.95,-88.44 433.57,-89.47 436.52,-87.86 434.09,-87.28 434.09,-87.28 434.09,-87.28 436.52,-87.86 434.61,-85.09 438.95,-88.44 438.95,-88.44"/>
</a>
</g>
</g>
<!-- Node10 -->
<g id="Node000010" class="node">
<title>Node10</title>
<g id="a_Node000010"><a xlink:href="../../de/db1/classWebsocketServerSocketInterface.html#a8dbc72a33ea9c1ce299a7fa7a2a21744" target="_top" xlink:title=" ">
<polygon fill="white" stroke="#666666" points="176,-166.5 0,-166.5 0,-136.5 176,-136.5 176,-166.5"/>
<text text-anchor="start" x="8" y="-154.5" font-family="Helvetica,sans-Serif" font-size="10.00">WebsocketServerSocketInterface</text>
<text text-anchor="middle" x="88" y="-143.5" font-family="Helvetica,sans-Serif" font-size="10.00">::initConnection</text>
</a>
</g>
</g>
<!-- Node9&#45;&gt;Node10 -->
<g id="edge9_Node000009_Node000010" class="edge">
<title>Node9&#45;&gt;Node10</title>
<g id="a_edge9_Node000009_Node000010"><a xlink:title=" ">
<path fill="none" stroke="#63b8ff" d="M206.53,-151.5C196.48,-151.5 186.28,-151.5 176.3,-151.5"/>
<polygon fill="#63b8ff" stroke="#63b8ff" points="211.77,-151.5 206.77,-153.75 209.27,-151.5 206.77,-151.5 206.77,-151.5 206.77,-151.5 209.27,-151.5 206.77,-149.25 211.77,-151.5 211.77,-151.5"/>
</a>
</g>
</g>
<!-- Node12 -->
<g id="Node000012" class="node">
<title>Node12</title>
<g id="a_Node000012"><a xlink:href="../../df/d75/classLocalClient.html#addefec8fa45b1636777b33c42ac033f5" target="_top" xlink:title=" ">
<polygon fill="white" stroke="#666666" points="163,-118.5 13,-118.5 13,-88.5 163,-88.5 163,-118.5"/>
<text text-anchor="start" x="21" y="-106.5" font-family="Helvetica,sans-Serif" font-size="10.00">LocalClient::sendCommand</text>
<text text-anchor="middle" x="88" y="-95.5" font-family="Helvetica,sans-Serif" font-size="10.00">Container</text>
</a>
</g>
</g>
<!-- Node11&#45;&gt;Node12 -->
<g id="edge11_Node000011_Node000012" class="edge">
<title>Node11&#45;&gt;Node12</title>
<g id="a_edge11_Node000011_Node000012"><a xlink:title=" ">
<path fill="none" stroke="#63b8ff" d="M236.18,-103.5C213.2,-103.5 186.98,-103.5 163.1,-103.5"/>
<polygon fill="#63b8ff" stroke="#63b8ff" points="241.34,-103.5 236.34,-105.75 238.84,-103.5 236.34,-103.5 236.34,-103.5 236.34,-103.5 238.84,-103.5 236.34,-101.25 241.34,-103.5 241.34,-103.5"/>
</a>
</g>
</g>
<!-- Node14 -->
<g id="Node000014" class="node">
<title>Node14</title>
<g id="a_Node000014"><a xlink:href="../../dd/d13/classTcpServerSocketInterface.html#a076f21dfced18c70a378fd3010683915" target="_top" xlink:title=" ">
<polygon fill="white" stroke="#666666" points="161,-70.5 15,-70.5 15,-40.5 161,-40.5 161,-70.5"/>
<text text-anchor="start" x="23" y="-58.5" font-family="Helvetica,sans-Serif" font-size="10.00">TcpServerSocketInterface</text>
<text text-anchor="middle" x="88" y="-47.5" font-family="Helvetica,sans-Serif" font-size="10.00">::TcpServerSocketInterface</text>
</a>
</g>
</g>
<!-- Node13&#45;&gt;Node14 -->
<g id="edge13_Node000013_Node000014" class="edge">
<title>Node13&#45;&gt;Node14</title>
<g id="a_edge13_Node000013_Node000014"><a xlink:title=" ">
<path fill="none" stroke="#63b8ff" d="M224.75,-55.5C204.15,-55.5 181.83,-55.5 161.34,-55.5"/>
<polygon fill="#63b8ff" stroke="#63b8ff" points="229.95,-55.5 224.95,-57.75 227.45,-55.5 224.95,-55.5 224.95,-55.5 224.95,-55.5 227.45,-55.5 224.95,-53.25 229.95,-55.5 229.95,-55.5"/>
</a>
</g>
</g>
<!-- Node16 -->
<g id="Node000016" class="node">
<title>Node16</title>
<g id="a_Node000016"><a xlink:href="../../d5/d0e/classServatrice.html#afce52a443698f524f6ab1f5c47791c90" target="_top" xlink:title=" ">
<polygon fill="white" stroke="#666666" points="788,-37 643,-37 643,-18 788,-18 788,-37"/>
<text text-anchor="middle" x="715.5" y="-25" font-family="Helvetica,sans-Serif" font-size="10.00">Servatrice::addIslInterface</text>
</a>
</g>
</g>
<!-- Node15&#45;&gt;Node16 -->
<g id="edge15_Node000015_Node000016" class="edge">
<title>Node15&#45;&gt;Node16</title>
<g id="a_edge15_Node000015_Node000016"><a xlink:title=" ">
<path fill="none" stroke="#63b8ff" d="M845.94,-19.92C827.02,-21.03 806.78,-22.22 788.06,-23.31"/>
<polygon fill="#63b8ff" stroke="#63b8ff" points="851.24,-19.61 846.38,-22.15 848.74,-19.76 846.25,-19.91 846.25,-19.91 846.25,-19.91 848.74,-19.76 846.11,-17.66 851.24,-19.61 851.24,-19.61"/>
</a>
</g>
</g>
<!-- Node17 -->
<g id="Node000017" class="node">
<title>Node17</title>
<g id="a_Node000017"><a xlink:href="../../d0/de8/classIslInterface.html#ac9bfb4a7691221d1e566a5a2c8515baa" target="_top" xlink:title=" ">
<polygon fill="white" stroke="#666666" points="564,-56 442,-56 442,-37 564,-37 564,-56"/>
<text text-anchor="middle" x="503" y="-44" font-family="Helvetica,sans-Serif" font-size="10.00">IslInterface::initClient</text>
</a>
</g>
</g>
<!-- Node16&#45;&gt;Node17 -->
<g id="edge16_Node000016_Node000017" class="edge">
<title>Node16&#45;&gt;Node17</title>
<g id="a_edge16_Node000016_Node000017"><a xlink:title=" ">
<path fill="none" stroke="#63b8ff" d="M637.8,-34.42C613.53,-36.61 587.08,-39 564.15,-41.07"/>
<polygon fill="#63b8ff" stroke="#63b8ff" points="642.94,-33.96 638.16,-36.65 640.45,-34.18 637.96,-34.41 637.96,-34.41 637.96,-34.41 640.45,-34.18 637.76,-32.17 642.94,-33.96 642.94,-33.96"/>
</a>
</g>
</g>
<!-- Node18 -->
<g id="Node000018" class="node">
<title>Node18</title>
<g id="a_Node000018"><a xlink:href="../../d0/de8/classIslInterface.html#a9ce4eacbf440122d6f6fb24fa02b2835" target="_top" xlink:title=" ">
<polygon fill="white" stroke="#666666" points="565.5,-19 440.5,-19 440.5,0 565.5,0 565.5,-19"/>
<text text-anchor="middle" x="503" y="-7" font-family="Helvetica,sans-Serif" font-size="10.00">IslInterface::initServer</text>
</a>
</g>
</g>
<!-- Node16&#45;&gt;Node18 -->
<g id="edge17_Node000016_Node000018" class="edge">
<title>Node16&#45;&gt;Node18</title>
<g id="a_edge17_Node000016_Node000018"><a xlink:title=" ">
<path fill="none" stroke="#63b8ff" d="M637.89,-20.95C614.09,-18.91 588.16,-16.7 565.52,-14.76"/>
<polygon fill="#63b8ff" stroke="#63b8ff" points="642.94,-21.38 637.77,-23.2 640.45,-21.17 637.96,-20.95 637.96,-20.95 637.96,-20.95 640.45,-21.17 638.15,-18.71 642.94,-21.38 642.94,-21.38"/>
</a>
</g>
</g>
<!-- Node20 -->
<g id="Node000020" class="node">
<title>Node20</title>
<g id="a_Node000020"><a xlink:href="../../d0/d23/classServer__ProtocolHandler.html#a89bec8d718f524f9bea8459b2c1c1642" target="_top" xlink:title=" ">
<polygon fill="white" stroke="#666666" points="988,-164.5 857,-164.5 857,-134.5 988,-134.5 988,-164.5"/>
<text text-anchor="start" x="865" y="-152.5" font-family="Helvetica,sans-Serif" font-size="10.00">Server_ProtocolHandler</text>
<text text-anchor="middle" x="922.5" y="-141.5" font-family="Helvetica,sans-Serif" font-size="10.00">::cmdLogin</text>
</a>
</g>
</g>
<!-- Node19&#45;&gt;Node20 -->
<g id="edge19_Node000019_Node000020" class="edge">
<title>Node19&#45;&gt;Node20</title>
<g id="a_edge19_Node000019_Node000020"><a xlink:title=" ">
<path fill="none" stroke="#63b8ff" d="M1037.25,-124.63C1021.05,-128.17 1004.01,-131.9 988.19,-135.35"/>
<polygon fill="#63b8ff" stroke="#63b8ff" points="1042.25,-123.53 1037.84,-126.8 1039.8,-124.07 1037.36,-124.6 1037.36,-124.6 1037.36,-124.6 1039.8,-124.07 1036.88,-122.4 1042.25,-123.53 1042.25,-123.53"/>
</a>
</g>
</g>
<!-- Node22 -->
<g id="Node000022" class="node">
<title>Node22</title>
<g id="a_Node000022"><a xlink:href="../../db/d00/classServer.html#a230cbe0e8e10a9c7ff6304e981324d4a" target="_top" xlink:title=" ">
<polygon fill="white" stroke="#666666" points="996,-116 849,-116 849,-97 996,-97 996,-116"/>
<text text-anchor="middle" x="922.5" y="-104" font-family="Helvetica,sans-Serif" font-size="10.00">Server::externalUserJoined</text>
</a>
</g>
</g>
<!-- Node19&#45;&gt;Node22 -->
<g id="edge22_Node000019_Node000022" class="edge">
<title>Node19&#45;&gt;Node22</title>
<g id="a_edge22_Node000019_Node000022"><a xlink:title=" ">
<path fill="none" stroke="#63b8ff" d="M1026.48,-107.6C1016.38,-107.49 1006.12,-107.38 996.2,-107.28"/>
<polygon fill="#63b8ff" stroke="#63b8ff" points="1031.75,-107.65 1026.73,-109.85 1029.26,-107.63 1026.76,-107.6 1026.76,-107.6 1026.76,-107.6 1029.26,-107.63 1026.78,-105.35 1031.75,-107.65 1031.75,-107.65"/>
</a>
</g>
</g>
<!-- Node21 -->
<g id="Node000021" class="node">
<title>Node21</title>
<g id="a_Node000021"><a xlink:href="../../d0/d23/classServer__ProtocolHandler.html#a68e611b6964cf6d151b078665e397d01" target="_top" xlink:title=" ">
<polygon fill="white" stroke="#666666" points="813,-154.5 618,-154.5 618,-124.5 813,-124.5 813,-154.5"/>
<text text-anchor="start" x="626" y="-142.5" font-family="Helvetica,sans-Serif" font-size="10.00">Server_ProtocolHandler</text>
<text text-anchor="middle" x="715.5" y="-131.5" font-family="Helvetica,sans-Serif" font-size="10.00">::processSessionCommandContainer</text>
</a>
</g>
</g>
<!-- Node20&#45;&gt;Node21 -->
<g id="edge20_Node000020_Node000021" class="edge">
<title>Node20&#45;&gt;Node21</title>
<g id="a_edge20_Node000020_Node000021"><a xlink:title=" ">
<path fill="none" stroke="#63b8ff" d="M851.63,-146.09C839.19,-145.48 826.03,-144.84 813,-144.21"/>
<polygon fill="#63b8ff" stroke="#63b8ff" points="856.92,-146.35 851.81,-148.35 854.42,-146.23 851.92,-146.11 851.92,-146.11 851.92,-146.11 854.42,-146.23 852.03,-143.86 856.92,-146.35 856.92,-146.35"/>
</a>
</g>
</g>
<!-- Node21&#45;&gt;Node8 -->
<g id="edge21_Node000021_Node000008" class="edge">
<title>Node21&#45;&gt;Node8</title>
<g id="a_edge21_Node000021_Node000008"><a xlink:title=" ">
<path fill="none" stroke="#63b8ff" d="M621.54,-123.6C608.41,-121.36 595.02,-119.07 582.21,-116.88"/>
<polygon fill="#63b8ff" stroke="#63b8ff" points="626.75,-124.49 621.45,-125.87 624.29,-124.07 621.82,-123.65 621.82,-123.65 621.82,-123.65 624.29,-124.07 622.2,-121.43 626.75,-124.49 626.75,-124.49"/>
</a>
</g>
</g>
<!-- Node22&#45;&gt;Node16 -->
<g id="edge23_Node000022_Node000016" class="edge">
<title>Node22&#45;&gt;Node16</title>
<g id="a_edge23_Node000022_Node000016"><a xlink:title=" ">
<path fill="none" stroke="#63b8ff" d="M865.28,-95.24C859.59,-93.09 854.05,-90.54 849,-87.5 828.78,-75.35 833.47,-60.22 813,-48.5 804.52,-43.65 795.03,-39.91 785.4,-37.04"/>
<polygon fill="#63b8ff" stroke="#63b8ff" points="870.09,-96.96 864.62,-97.4 867.73,-96.12 865.38,-95.28 865.38,-95.28 865.38,-95.28 867.73,-96.12 866.13,-93.16 870.09,-96.96 870.09,-96.96"/>
</a>
</g>
</g>
</g>
</svg>
