<?xml version="1.0" encoding="UTF-8" standalone="no"?>
<!DOCTYPE svg PUBLIC "-//W3C//DTD SVG 1.1//EN"
 "http://www.w3.org/Graphics/SVG/1.1/DTD/svg11.dtd">
<!-- Generated by graphviz version 2.43.0 (0)
 -->
<!-- Title: Server_AbstractParticipant::cmdLeaveGame Pages: 1 -->
<svg width="1221pt" height="915pt"
 viewBox="0.00 0.00 1221.00 915.34" xmlns="http://www.w3.org/2000/svg" xmlns:xlink="http://www.w3.org/1999/xlink">
<g id="graph0" class="graph" transform="scale(1 1) rotate(0) translate(4 911.34)">
<title>Server_AbstractParticipant::cmdLeaveGame</title>
<!-- Node1 -->
<g id="Node000001" class="node">
<title>Node1</title>
<g id="a_Node000001"><a xlink:title=" ">
<polygon fill="#999999" stroke="#666666" points="146,-421 0,-421 0,-391 146,-391 146,-421"/>
<text text-anchor="start" x="8" y="-409" font-family="Helvetica,sans-Serif" font-size="10.00">Server_AbstractParticipant</text>
<text text-anchor="middle" x="73" y="-398" font-family="Helvetica,sans-Serif" font-size="10.00">::cmdLeaveGame</text>
</a>
</g>
</g>
<!-- Node2 -->
<g id="Node000002" class="node">
<title>Node2</title>
<g id="a_Node000002"><a xlink:href="../../df/d89/classServer__Game.html#a9352f37fe919fef8df4d7e4541656ed1" target="_top" xlink:title=" ">
<polygon fill="white" stroke="#666666" points="360,-415.5 182,-415.5 182,-396.5 360,-396.5 360,-415.5"/>
<text text-anchor="middle" x="271" y="-403.5" font-family="Helvetica,sans-Serif" font-size="10.00">Server_Game::removeParticipant</text>
</a>
</g>
</g>
<!-- Node1&#45;&gt;Node2 -->
<g id="edge1_Node000001_Node000002" class="edge">
<title>Node1&#45;&gt;Node2</title>
<g id="a_edge1_Node000001_Node000002"><a xlink:title=" ">
<path fill="none" stroke="#63b8ff" d="M146.15,-406C156.09,-406 166.42,-406 176.67,-406"/>
<polygon fill="#63b8ff" stroke="#63b8ff" points="181.7,-406 176.7,-408.25 179.2,-406 176.7,-406 176.7,-406 176.7,-406 179.2,-406 176.7,-403.75 181.7,-406 181.7,-406"/>
</a>
</g>
</g>
<!-- Node3 -->
<g id="Node000003" class="node">
<title>Node3</title>
<g id="a_Node000003"><a xlink:href="../../de/d8f/classGameEventStorage.html#acd9c2f6ebbfa52476072e591d0b19a83" target="_top" xlink:title=" ">
<polygon fill="white" stroke="#666666" points="787.5,-895 628.5,-895 628.5,-865 787.5,-865 787.5,-895"/>
<text text-anchor="start" x="636.5" y="-883" font-family="Helvetica,sans-Serif" font-size="10.00">GameEventStorage::enqueue</text>
<text text-anchor="middle" x="708" y="-872" font-family="Helvetica,sans-Serif" font-size="10.00">GameEvent</text>
</a>
</g>
</g>
<!-- Node2&#45;&gt;Node3 -->
<g id="edge2_Node000002_Node000003" class="edge">
<title>Node2&#45;&gt;Node3</title>
<g id="a_edge2_Node000002_Node000003"><a xlink:title=" ">
<path fill="none" stroke="#63b8ff" d="M273.11,-415.72C280.26,-476.42 321.86,-803.02 396,-863 465.75,-919.43 575.74,-909.85 644.5,-896.13"/>
<polygon fill="#63b8ff" stroke="#63b8ff" points="649.79,-895.05 645.34,-898.25 647.34,-895.55 644.89,-896.05 644.89,-896.05 644.89,-896.05 647.34,-895.55 644.44,-893.84 649.79,-895.05 649.79,-895.05"/>
</a>
</g>
</g>
<!-- Node4 -->
<g id="Node000004" class="node">
<title>Node4</title>
<g id="a_Node000004"><a xlink:href="../../df/d89/classServer__Game.html#a16d4b8a7306d0fc4f6528d25961bcb8c" target="_top" xlink:title=" ">
<polygon fill="white" stroke="#666666" points="797,-528.5 619,-528.5 619,-509.5 797,-509.5 797,-528.5"/>
<text text-anchor="middle" x="708" y="-516.5" font-family="Helvetica,sans-Serif" font-size="10.00">Server_Game::gameInfoChanged</text>
</a>
</g>
</g>
<!-- Node2&#45;&gt;Node4 -->
<g id="edge3_Node000002_Node000004" class="edge">
<title>Node2&#45;&gt;Node4</title>
<g id="a_edge3_Node000002_Node000004"><a xlink:title=" ">
<path fill="none" stroke="#63b8ff" d="M283.41,-415.55C304.25,-432.41 350.54,-467.15 396,-483 466.39,-507.54 550.62,-516.12 613.65,-518.8"/>
<polygon fill="#63b8ff" stroke="#63b8ff" points="618.92,-519.01 613.83,-521.05 616.42,-518.91 613.92,-518.81 613.92,-518.81 613.92,-518.81 616.42,-518.91 614.01,-516.56 618.92,-519.01 618.92,-519.01"/>
</a>
</g>
</g>
<!-- Node5 -->
<g id="Node000005" class="node">
<title>Node5</title>
<g id="a_Node000005"><a xlink:href="../../d1/d15/classServer__Room.html#ac4518ebbe7b77749141192a1a6d5cb7c" target="_top" xlink:title=" ">
<polygon fill="white" stroke="#666666" points="764.5,-491.5 651.5,-491.5 651.5,-472.5 764.5,-472.5 764.5,-491.5"/>
<text text-anchor="middle" x="708" y="-479.5" font-family="Helvetica,sans-Serif" font-size="10.00">Server_Room::getId</text>
</a>
</g>
</g>
<!-- Node2&#45;&gt;Node5 -->
<g id="edge4_Node000002_Node000005" class="edge">
<title>Node2&#45;&gt;Node5</title>
<g id="a_edge4_Node000002_Node000005"><a xlink:title=" ">
<path fill="none" stroke="#63b8ff" d="M289.86,-415.65C313.42,-427.87 356.52,-448.46 396,-458 481.12,-478.56 582.79,-482.73 646.14,-483"/>
<polygon fill="#63b8ff" stroke="#63b8ff" points="651.4,-483.01 646.39,-485.25 648.9,-483.01 646.4,-483 646.4,-483 646.4,-483 648.9,-483.01 646.4,-480.75 651.4,-483.01 651.4,-483.01"/>
</a>
</g>
</g>
<!-- Node6 -->
<g id="Node000006" class="node">
<title>Node6</title>
<g id="a_Node000006"><a xlink:href="../../df/d89/classServer__Game.html#ab29a10e86bf358a04d0f7a73ad586e1a" target="_top" xlink:title=" ">
<polygon fill="white" stroke="#666666" points="571,-378.5 407,-378.5 407,-359.5 571,-359.5 571,-378.5"/>
<text text-anchor="middle" x="489" y="-366.5" font-family="Helvetica,sans-Serif" font-size="10.00">Server_Game::getPlayerCount</text>
</a>
</g>
</g>
<!-- Node2&#45;&gt;Node6 -->
<g id="edge5_Node000002_Node000006" class="edge">
<title>Node2&#45;&gt;Node6</title>
<g id="a_edge5_Node000002_Node000006"><a xlink:title=" ">
<path fill="none" stroke="#63b8ff" d="M327.63,-396.47C358.12,-391.25 395.96,-384.77 427.23,-379.41"/>
<polygon fill="#63b8ff" stroke="#63b8ff" points="432.19,-378.56 427.64,-381.62 429.72,-378.98 427.26,-379.4 427.26,-379.4 427.26,-379.4 429.72,-378.98 426.88,-377.19 432.19,-378.56 432.19,-378.56"/>
</a>
</g>
</g>
<!-- Node7 -->
<g id="Node000007" class="node">
<title>Node7</title>
<g id="a_Node000007"><a xlink:href="../../df/d89/classServer__Game.html#a33b1b32840eea3bd61eea403dd3c2a81" target="_top" xlink:title=" ">
<polygon fill="white" stroke="#666666" points="783.5,-330 632.5,-330 632.5,-300 783.5,-300 783.5,-330"/>
<text text-anchor="start" x="640.5" y="-318" font-family="Helvetica,sans-Serif" font-size="10.00">Server_Game::getSpectator</text>
<text text-anchor="middle" x="708" y="-307" font-family="Helvetica,sans-Serif" font-size="10.00">Count</text>
</a>
</g>
</g>
<!-- Node2&#45;&gt;Node7 -->
<g id="edge11_Node000002_Node000007" class="edge">
<title>Node2&#45;&gt;Node7</title>
<g id="a_edge11_Node000002_Node000007"><a xlink:title=" ">
<path fill="none" stroke="#63b8ff" d="M289.04,-396.44C312.4,-383.81 356.01,-361.91 396,-351 472.76,-330.06 563.42,-321.29 626.99,-317.63"/>
<polygon fill="#63b8ff" stroke="#63b8ff" points="632.29,-317.33 627.42,-319.86 629.79,-317.47 627.3,-317.61 627.3,-317.61 627.3,-317.61 629.79,-317.47 627.17,-315.37 632.29,-317.33 632.29,-317.33"/>
</a>
</g>
</g>
<!-- Node8 -->
<g id="Node000008" class="node">
<title>Node8</title>
<g id="a_Node000008"><a xlink:href="../../d0/d00/classServer__AbstractParticipant.html#a1ce5bd3a2ecb61abf21583b75ebc6185" target="_top" xlink:title=" ">
<polygon fill="white" stroke="#666666" points="562,-303 416,-303 416,-273 562,-273 562,-303"/>
<text text-anchor="start" x="424" y="-291" font-family="Helvetica,sans-Serif" font-size="10.00">Server_AbstractParticipant</text>
<text text-anchor="middle" x="489" y="-280" font-family="Helvetica,sans-Serif" font-size="10.00">::getPlayerId</text>
</a>
</g>
</g>
<!-- Node2&#45;&gt;Node8 -->
<g id="edge7_Node000002_Node000008" class="edge">
<title>Node2&#45;&gt;Node8</title>
<g id="a_edge7_Node000002_Node000008"><a xlink:title=" ">
<path fill="none" stroke="#63b8ff" d="M282.84,-396.36C303.5,-378.45 350.5,-339.77 396,-317 405.27,-312.36 415.43,-308.27 425.51,-304.74"/>
<polygon fill="#63b8ff" stroke="#63b8ff" points="430.45,-303.05 426.45,-306.79 428.09,-303.86 425.72,-304.67 425.72,-304.67 425.72,-304.67 428.09,-303.86 424.99,-302.54 430.45,-303.05 430.45,-303.05"/>
</a>
</g>
</g>
<!-- Node9 -->
<g id="Node000009" class="node">
<title>Node9</title>
<g id="a_Node000009"><a xlink:href="../../df/d89/classServer__Game.html#a540b85be4a6fdaab1ebb548a4d2424a5" target="_top" xlink:title=" ">
<polygon fill="white" stroke="#666666" points="1198.5,-729.5 1058.5,-729.5 1058.5,-710.5 1198.5,-710.5 1198.5,-729.5"/>
<text text-anchor="middle" x="1128.5" y="-717.5" font-family="Helvetica,sans-Serif" font-size="10.00">Server_Game::getPlayers</text>
</a>
</g>
</g>
<!-- Node2&#45;&gt;Node9 -->
<g id="edge8_Node000002_Node000009" class="edge">
<title>Node2&#45;&gt;Node9</title>
<g id="a_edge8_Node000002_Node000009"><a xlink:title=" ">
<path fill="none" stroke="#63b8ff" d="M273.31,-415.63C279.24,-455.32 307.21,-607.73 396,-684 603.66,-862.38 979.42,-766.18 1093.66,-731.09"/>
<polygon fill="#63b8ff" stroke="#63b8ff" points="1098.58,-729.56 1094.47,-733.19 1096.19,-730.3 1093.8,-731.04 1093.8,-731.04 1093.8,-731.04 1096.19,-730.3 1093.13,-728.89 1098.58,-729.56 1098.58,-729.56"/>
</a>
</g>
</g>
<!-- Node10 -->
<g id="Node000010" class="node">
<title>Node10</title>
<g id="a_Node000010"><a xlink:href="../../d1/d15/classServer__Room.html#a537f7d548ff11133bed30f0b08c01df7" target="_top" xlink:title=" ">
<polygon fill="white" stroke="#666666" points="556.5,-254.5 421.5,-254.5 421.5,-235.5 556.5,-235.5 556.5,-254.5"/>
<text text-anchor="middle" x="489" y="-242.5" font-family="Helvetica,sans-Serif" font-size="10.00">Server_Room::getServer</text>
</a>
</g>
</g>
<!-- Node2&#45;&gt;Node10 -->
<g id="edge9_Node000002_Node000010" class="edge">
<title>Node2&#45;&gt;Node10</title>
<g id="a_edge9_Node000002_Node000010"><a xlink:title=" ">
<path fill="none" stroke="#63b8ff" d="M277.46,-396.14C292.53,-369.92 337.49,-298.15 396,-264 402.29,-260.33 409.19,-257.36 416.3,-254.96"/>
<polygon fill="#63b8ff" stroke="#63b8ff" points="421.24,-253.38 417.16,-257.04 418.86,-254.14 416.48,-254.9 416.48,-254.9 416.48,-254.9 418.86,-254.14 415.8,-252.75 421.24,-253.38 421.24,-253.38"/>
</a>
</g>
</g>
<!-- Node11 -->
<g id="Node000011" class="node">
<title>Node11</title>
<g id="a_Node000011"><a xlink:href="../../d0/d00/classServer__AbstractParticipant.html#ac0c73b9dceaaa20a4b04ddcbb813aec7" target="_top" xlink:title=" ">
<polygon fill="white" stroke="#666666" points="562,-217 416,-217 416,-187 562,-187 562,-217"/>
<text text-anchor="start" x="424" y="-205" font-family="Helvetica,sans-Serif" font-size="10.00">Server_AbstractParticipant</text>
<text text-anchor="middle" x="489" y="-194" font-family="Helvetica,sans-Serif" font-size="10.00">::getSpectator</text>
</a>
</g>
</g>
<!-- Node2&#45;&gt;Node11 -->
<g id="edge10_Node000002_Node000011" class="edge">
<title>Node2&#45;&gt;Node11</title>
<g id="a_edge10_Node000002_Node000011"><a xlink:title=" ">
<path fill="none" stroke="#63b8ff" d="M275.75,-396.48C288.07,-366.53 330.24,-273.47 396,-227 400.75,-223.64 405.93,-220.73 411.34,-218.22"/>
<polygon fill="#63b8ff" stroke="#63b8ff" points="415.93,-216.19 412.26,-220.27 413.64,-217.2 411.35,-218.21 411.35,-218.21 411.35,-218.21 413.64,-217.2 410.44,-216.15 415.93,-216.19 415.93,-216.19"/>
</a>
</g>
</g>
<!-- Node12 -->
<g id="Node000012" class="node">
<title>Node12</title>
<g id="a_Node000012"><a xlink:href="../../d9/d5b/classServerInfo__User__Container.html#a4864fbb9b45940f5f5dedfa4fa808cf4" target="_top" xlink:title=" ">
<polygon fill="white" stroke="#666666" points="562.5,-169 415.5,-169 415.5,-139 562.5,-139 562.5,-169"/>
<text text-anchor="start" x="423.5" y="-157" font-family="Helvetica,sans-Serif" font-size="10.00">ServerInfo_User_Container</text>
<text text-anchor="middle" x="489" y="-146" font-family="Helvetica,sans-Serif" font-size="10.00">::getUserInfo</text>
</a>
</g>
</g>
<!-- Node2&#45;&gt;Node12 -->
<g id="edge12_Node000002_Node000012" class="edge">
<title>Node2&#45;&gt;Node12</title>
<g id="a_edge12_Node000002_Node000012"><a xlink:title=" ">
<path fill="none" stroke="#63b8ff" d="M274.27,-396.42C283.11,-361.31 318.64,-238.53 396,-178 400.48,-174.5 405.42,-171.5 410.61,-168.94"/>
<polygon fill="#63b8ff" stroke="#63b8ff" points="415.45,-166.71 411.85,-170.84 413.18,-167.75 410.91,-168.8 410.91,-168.8 410.91,-168.8 413.18,-167.75 409.97,-166.76 415.45,-166.71 415.45,-166.71"/>
</a>
</g>
</g>
<!-- Node13 -->
<g id="Node000013" class="node">
<title>Node13</title>
<g id="a_Node000013"><a xlink:href="../../df/d89/classServer__Game.html#a364c5a0716a166aea4cb7c60eaa96829" target="_top" xlink:title=" ">
<polygon fill="white" stroke="#666666" points="554.5,-615.5 423.5,-615.5 423.5,-596.5 554.5,-596.5 554.5,-615.5"/>
<text text-anchor="middle" x="489" y="-603.5" font-family="Helvetica,sans-Serif" font-size="10.00">Server_Game::nextTurn</text>
</a>
</g>
</g>
<!-- Node2&#45;&gt;Node13 -->
<g id="edge13_Node000002_Node000013" class="edge">
<title>Node2&#45;&gt;Node13</title>
<g id="a_edge13_Node000002_Node000013"><a xlink:title=" ">
<path fill="none" stroke="#63b8ff" d="M276.33,-415.8C289.69,-444.93 333.22,-531.77 396,-577 406.92,-584.86 420.04,-590.65 432.91,-594.88"/>
<polygon fill="#63b8ff" stroke="#63b8ff" points="438.02,-596.49 432.57,-597.14 435.63,-595.74 433.25,-594.99 433.25,-594.99 433.25,-594.99 435.63,-595.74 433.92,-592.84 438.02,-596.49 438.02,-596.49"/>
</a>
</g>
</g>
<!-- Node15 -->
<g id="Node000015" class="node">
<title>Node15</title>
<g id="a_Node000015"><a xlink:href="../../df/d89/classServer__Game.html#a325a1eb708f9158e554a7a955914cae6" target="_top" xlink:title=" ">
<polygon fill="white" stroke="#666666" points="1206,-621 1051,-621 1051,-591 1206,-591 1206,-621"/>
<text text-anchor="start" x="1059" y="-609" font-family="Helvetica,sans-Serif" font-size="10.00">Server_Game::prepareGame</text>
<text text-anchor="middle" x="1128.5" y="-598" font-family="Helvetica,sans-Serif" font-size="10.00">Event</text>
</a>
</g>
</g>
<!-- Node2&#45;&gt;Node15 -->
<g id="edge27_Node000002_Node000015" class="edge">
<title>Node2&#45;&gt;Node15</title>
<g id="a_edge27_Node000002_Node000015"><a xlink:title=" ">
<path fill="none" stroke="#63b8ff" d="M274.09,-415.64C282.29,-450.91 315.86,-573.51 396,-625 625.28,-772.31 753.27,-759.85 1008,-663 1028.01,-655.39 1025.3,-641.43 1044,-631 1049.37,-628.01 1055.14,-625.33 1061.04,-622.95"/>
<polygon fill="#63b8ff" stroke="#63b8ff" points="1066.03,-621.02 1062.18,-624.93 1063.7,-621.93 1061.36,-622.83 1061.36,-622.83 1061.36,-622.83 1063.7,-621.93 1060.55,-620.73 1066.03,-621.02 1066.03,-621.02"/>
</a>
</g>
</g>
<!-- Node16 -->
<g id="Node000016" class="node">
<title>Node16</title>
<g id="a_Node000016"><a xlink:href="../../df/d89/classServer__Game.html#a30da97b384f2a8a08178bd1534339eb2" target="_top" xlink:title=" ">
<polygon fill="white" stroke="#666666" points="1213,-516 1044,-516 1044,-486 1213,-486 1213,-516"/>
<text text-anchor="start" x="1052" y="-504" font-family="Helvetica,sans-Serif" font-size="10.00">Server_Game::sendGameEvent</text>
<text text-anchor="middle" x="1128.5" y="-493" font-family="Helvetica,sans-Serif" font-size="10.00">Container</text>
</a>
</g>
</g>
<!-- Node2&#45;&gt;Node16 -->
<g id="edge32_Node000002_Node000016" class="edge">
<title>Node2&#45;&gt;Node16</title>
<g id="a_edge32_Node000002_Node000016"><a xlink:title=" ">
<path fill="none" stroke="#63b8ff" d="M327.11,-415.53C348.55,-418.96 373.37,-422.57 396,-425 666.96,-454.11 740.12,-412.88 1008,-463 1033.56,-467.78 1061.29,-476.38 1083.6,-484.18"/>
<polygon fill="#63b8ff" stroke="#63b8ff" points="1088.56,-485.94 1083.1,-486.39 1086.21,-485.11 1083.85,-484.27 1083.85,-484.27 1083.85,-484.27 1086.21,-485.11 1084.6,-482.15 1088.56,-485.94 1088.56,-485.94"/>
</a>
</g>
</g>
<!-- Node19 -->
<g id="Node000019" class="node">
<title>Node19</title>
<g id="a_Node000019"><a xlink:href="../../d0/d00/classServer__AbstractParticipant.html#a243926ed25d6cec8514de52abfe57e46" target="_top" xlink:title=" ">
<polygon fill="white" stroke="#666666" points="562,-121 416,-121 416,-91 562,-91 562,-121"/>
<text text-anchor="start" x="424" y="-109" font-family="Helvetica,sans-Serif" font-size="10.00">Server_AbstractParticipant</text>
<text text-anchor="middle" x="489" y="-98" font-family="Helvetica,sans-Serif" font-size="10.00">::prepareDestroy</text>
</a>
</g>
</g>
<!-- Node2&#45;&gt;Node19 -->
<g id="edge23_Node000002_Node000019" class="edge">
<title>Node2&#45;&gt;Node19</title>
<g id="a_edge23_Node000002_Node000019"><a xlink:title=" ">
<path fill="none" stroke="#63b8ff" d="M273.31,-396.41C279.22,-356.87 307.15,-205.12 396,-130 400.53,-126.17 405.6,-122.94 410.97,-120.22"/>
<polygon fill="#63b8ff" stroke="#63b8ff" points="415.55,-118.06 411.99,-122.23 413.29,-119.13 411.03,-120.2 411.03,-120.2 411.03,-120.2 413.29,-119.13 410.07,-118.16 415.55,-118.06 415.55,-118.06"/>
</a>
</g>
</g>
<!-- Node23 -->
<g id="Node000023" class="node">
<title>Node23</title>
<g id="a_Node000023"><a xlink:href="../../df/d89/classServer__Game.html#a68736140f833d4a574cf1a162061938c" target="_top" xlink:title=" ">
<polygon fill="white" stroke="#666666" points="569,-854 409,-854 409,-824 569,-824 569,-854"/>
<text text-anchor="start" x="417" y="-842" font-family="Helvetica,sans-Serif" font-size="10.00">Server_Game::removeArrows</text>
<text text-anchor="middle" x="489" y="-831" font-family="Helvetica,sans-Serif" font-size="10.00">RelatedToPlayer</text>
</a>
</g>
</g>
<!-- Node2&#45;&gt;Node23 -->
<g id="edge28_Node000002_Node000023" class="edge">
<title>Node2&#45;&gt;Node23</title>
<g id="a_edge28_Node000002_Node000023"><a xlink:title=" ">
<path fill="none" stroke="#63b8ff" d="M271.9,-415.5C271.89,-464.57 278.42,-691.53 396,-810 400.42,-814.46 405.53,-818.23 411.01,-821.43"/>
<polygon fill="#63b8ff" stroke="#63b8ff" points="415.7,-823.98 410.24,-823.57 413.51,-822.78 411.31,-821.59 411.31,-821.59 411.31,-821.59 413.51,-822.78 412.39,-819.61 415.7,-823.98 415.7,-823.98"/>
</a>
</g>
</g>
<!-- Node24 -->
<g id="Node000024" class="node">
<title>Node24</title>
<g id="a_Node000024"><a xlink:href="../../db/d00/classServer.html#a5510eb79f0e72b283c8aa9b2d4564fa6" target="_top" xlink:title=" ">
<polygon fill="white" stroke="#666666" points="559,-73 419,-73 419,-43 559,-43 559,-73"/>
<text text-anchor="start" x="427" y="-61" font-family="Helvetica,sans-Serif" font-size="10.00">Server::removePersistent</text>
<text text-anchor="middle" x="489" y="-50" font-family="Helvetica,sans-Serif" font-size="10.00">Player</text>
</a>
</g>
</g>
<!-- Node2&#45;&gt;Node24 -->
<g id="edge31_Node000002_Node000024" class="edge">
<title>Node2&#45;&gt;Node24</title>
<g id="a_edge31_Node000002_Node000024"><a xlink:title=" ">
<path fill="none" stroke="#63b8ff" d="M272.62,-396.3C275.93,-352.56 295.49,-171.99 396,-82 401.4,-77.17 407.64,-73.29 414.29,-70.18"/>
<polygon fill="#63b8ff" stroke="#63b8ff" points="418.96,-68.14 415.28,-72.2 416.67,-69.14 414.38,-70.14 414.38,-70.14 414.38,-70.14 416.67,-69.14 413.48,-68.08 418.96,-68.14 418.96,-68.14"/>
</a>
</g>
</g>
<!-- Node25 -->
<g id="Node000025" class="node">
<title>Node25</title>
<g id="a_Node000025"><a xlink:href="../../de/d8f/classGameEventStorage.html#ab1523dfae2f027b764238ebfab03a478" target="_top" xlink:title=" ">
<polygon fill="white" stroke="#666666" points="579,-415.5 399,-415.5 399,-396.5 579,-396.5 579,-415.5"/>
<text text-anchor="middle" x="489" y="-403.5" font-family="Helvetica,sans-Serif" font-size="10.00">GameEventStorage::sendToGame</text>
</a>
</g>
</g>
<!-- Node2&#45;&gt;Node25 -->
<g id="edge33_Node000002_Node000025" class="edge">
<title>Node2&#45;&gt;Node25</title>
<g id="a_edge33_Node000002_Node000025"><a xlink:title=" ">
<path fill="none" stroke="#63b8ff" d="M360.17,-406C371.19,-406 382.51,-406 393.62,-406"/>
<polygon fill="#63b8ff" stroke="#63b8ff" points="398.71,-406 393.71,-408.25 396.21,-406 393.71,-406 393.71,-406 393.71,-406 396.21,-406 393.71,-403.75 398.71,-406 398.71,-406"/>
</a>
</g>
</g>
<!-- Node27 -->
<g id="Node000027" class="node">
<title>Node27</title>
<g id="a_Node000027"><a xlink:href="../../df/d89/classServer__Game.html#a042625cfa763abbc19149a99aa84a69c" target="_top" xlink:title=" ">
<polygon fill="white" stroke="#666666" points="582,-567.5 396,-567.5 396,-548.5 582,-548.5 582,-567.5"/>
<text text-anchor="middle" x="489" y="-555.5" font-family="Helvetica,sans-Serif" font-size="10.00">Server_Game::stopGameIfFinished</text>
</a>
</g>
</g>
<!-- Node2&#45;&gt;Node27 -->
<g id="edge36_Node000002_Node000027" class="edge">
<title>Node2&#45;&gt;Node27</title>
<g id="a_edge36_Node000002_Node000027"><a xlink:title=" ">
<path fill="none" stroke="#63b8ff" d="M278.52,-415.76C295.11,-439.8 341.49,-502.19 396,-534 405.4,-539.48 416.05,-543.73 426.7,-547.02"/>
<polygon fill="#63b8ff" stroke="#63b8ff" points="431.58,-548.47 426.15,-549.21 429.18,-547.76 426.79,-547.05 426.79,-547.05 426.79,-547.05 429.18,-547.76 427.42,-544.89 431.58,-548.47 431.58,-548.47"/>
</a>
</g>
</g>
<!-- Node30 -->
<g id="Node000030" class="node">
<title>Node30</title>
<g id="a_Node000030"><a xlink:href="../../df/d89/classServer__Game.html#afa5ba8b52fc5f5ceb50a748314317513" target="_top" xlink:title=" ">
<polygon fill="white" stroke="#666666" points="568.5,-24.5 409.5,-24.5 409.5,-5.5 568.5,-5.5 568.5,-24.5"/>
<text text-anchor="middle" x="489" y="-12.5" font-family="Helvetica,sans-Serif" font-size="10.00">Server_Game::unattachCards</text>
</a>
</g>
</g>
<!-- Node2&#45;&gt;Node30 -->
<g id="edge43_Node000002_Node000030" class="edge">
<title>Node2&#45;&gt;Node30</title>
<g id="a_edge43_Node000002_Node000030"><a xlink:title=" ">
<path fill="none" stroke="#63b8ff" d="M271.97,-396.4C272.36,-348.81 280.72,-136.41 396,-34 398.93,-31.39 402.13,-29.11 405.51,-27.11"/>
<polygon fill="#63b8ff" stroke="#63b8ff" points="410.23,-24.56 406.9,-28.91 408.03,-25.75 405.83,-26.94 405.83,-26.94 405.83,-26.94 408.03,-25.75 404.76,-24.96 410.23,-24.56 410.23,-24.56"/>
</a>
</g>
</g>
<!-- Node6&#45;&gt;Node7 -->
<g id="edge6_Node000006_Node000007" class="edge">
<title>Node6&#45;&gt;Node7</title>
<g id="a_edge6_Node000006_Node000007"><a xlink:title=" ">
<path fill="none" stroke="#63b8ff" d="M528.3,-359.47C559.62,-351.68 604.62,-340.48 641.63,-331.27"/>
<polygon fill="#63b8ff" stroke="#63b8ff" points="646.57,-330.04 642.26,-333.43 644.14,-330.64 641.71,-331.25 641.71,-331.25 641.71,-331.25 644.14,-330.64 641.17,-329.06 646.57,-330.04 646.57,-330.04"/>
</a>
</g>
</g>
<!-- Node13&#45;&gt;Node9 -->
<g id="edge14_Node000013_Node000009" class="edge">
<title>Node13&#45;&gt;Node9</title>
<g id="a_edge14_Node000013_Node000009"><a xlink:title=" ">
<path fill="none" stroke="#63b8ff" d="M499.5,-615.67C519.36,-635.16 567.63,-678.75 618,-696 765.88,-746.64 952.07,-738.86 1053.43,-729.14"/>
<polygon fill="#63b8ff" stroke="#63b8ff" points="1058.49,-728.65 1053.73,-731.37 1056,-728.89 1053.51,-729.13 1053.51,-729.13 1053.51,-729.13 1056,-728.89 1053.29,-726.89 1058.49,-728.65 1058.49,-728.65"/>
</a>
</g>
</g>
<!-- Node14 -->
<g id="Node000014" class="node">
<title>Node14</title>
<g id="a_Node000014"><a xlink:href="../../df/d89/classServer__Game.html#ae1239a9d283d784e137434d4ecb0143a" target="_top" xlink:title=" ">
<polygon fill="white" stroke="#666666" points="790.5,-615.5 625.5,-615.5 625.5,-596.5 790.5,-596.5 790.5,-615.5"/>
<text text-anchor="middle" x="708" y="-603.5" font-family="Helvetica,sans-Serif" font-size="10.00">Server_Game::setActivePlayer</text>
</a>
</g>
</g>
<!-- Node13&#45;&gt;Node14 -->
<g id="edge15_Node000013_Node000014" class="edge">
<title>Node13&#45;&gt;Node14</title>
<g id="a_edge15_Node000013_Node000014"><a xlink:title=" ">
<path fill="none" stroke="#63b8ff" d="M554.52,-606C575.11,-606 598.24,-606 620.14,-606"/>
<polygon fill="#63b8ff" stroke="#63b8ff" points="625.38,-606 620.38,-608.25 622.88,-606 620.38,-606 620.38,-606 620.38,-606 622.88,-606 620.38,-603.75 625.38,-606 625.38,-606"/>
</a>
</g>
</g>
<!-- Node14&#45;&gt;Node15 -->
<g id="edge16_Node000014_Node000015" class="edge">
<title>Node14&#45;&gt;Node15</title>
<g id="a_edge16_Node000014_Node000015"><a xlink:title=" ">
<path fill="none" stroke="#63b8ff" d="M790.68,-606C864.32,-606 972.05,-606 1045.71,-606"/>
<polygon fill="#63b8ff" stroke="#63b8ff" points="1050.96,-606 1045.96,-608.25 1048.46,-606 1045.96,-606 1045.96,-606 1045.96,-606 1048.46,-606 1045.96,-603.75 1050.96,-606 1050.96,-606"/>
</a>
</g>
</g>
<!-- Node14&#45;&gt;Node16 -->
<g id="edge17_Node000014_Node000016" class="edge">
<title>Node14&#45;&gt;Node16</title>
<g id="a_edge17_Node000014_Node000016"><a xlink:title=" ">
<path fill="none" stroke="#63b8ff" d="M752.97,-596.41C767.35,-593.19 783.37,-589.53 798,-586 891.89,-563.35 1000.25,-534.96 1066.3,-517.4"/>
<polygon fill="#63b8ff" stroke="#63b8ff" points="1071.37,-516.05 1067.12,-519.51 1068.96,-516.69 1066.54,-517.34 1066.54,-517.34 1066.54,-517.34 1068.96,-516.69 1065.96,-515.16 1071.37,-516.05 1071.37,-516.05"/>
</a>
</g>
</g>
<!-- Node17 -->
<g id="Node000017" class="node">
<title>Node17</title>
<g id="a_Node000017"><a xlink:href="../../df/d89/classServer__Game.html#a098acc96fc68f8f7035711fc5bd35b95" target="_top" xlink:title=" ">
<polygon fill="white" stroke="#666666" points="1003,-653.5 839,-653.5 839,-634.5 1003,-634.5 1003,-653.5"/>
<text text-anchor="middle" x="921" y="-641.5" font-family="Helvetica,sans-Serif" font-size="10.00">Server_Game::setActivePhase</text>
</a>
</g>
</g>
<!-- Node14&#45;&gt;Node17 -->
<g id="edge18_Node000014_Node000017" class="edge">
<title>Node14&#45;&gt;Node17</title>
<g id="a_edge18_Node000014_Node000017"><a xlink:title=" ">
<path fill="none" stroke="#63b8ff" d="M761.97,-615.54C792.45,-621.03 830.77,-627.93 862.05,-633.56"/>
<polygon fill="#63b8ff" stroke="#63b8ff" points="867.01,-634.46 861.69,-635.78 864.55,-634.01 862.09,-633.57 862.09,-633.57 862.09,-633.57 864.55,-634.01 862.48,-631.36 867.01,-634.46 867.01,-634.46"/>
</a>
</g>
</g>
<!-- Node17&#45;&gt;Node9 -->
<g id="edge20_Node000017_Node000009" class="edge">
<title>Node17&#45;&gt;Node9</title>
<g id="a_edge20_Node000017_Node000009"><a xlink:title=" ">
<path fill="none" stroke="#63b8ff" d="M960.46,-653.51C975.44,-657.54 992.66,-662.55 1008,-668 1041.78,-680 1079.52,-697.06 1103.38,-708.33"/>
<polygon fill="#63b8ff" stroke="#63b8ff" points="1107.96,-710.5 1102.48,-710.39 1105.7,-709.43 1103.44,-708.36 1103.44,-708.36 1103.44,-708.36 1105.7,-709.43 1104.41,-706.32 1107.96,-710.5 1107.96,-710.5"/>
</a>
</g>
</g>
<!-- Node17&#45;&gt;Node15 -->
<g id="edge21_Node000017_Node000015" class="edge">
<title>Node17&#45;&gt;Node15</title>
<g id="a_edge21_Node000017_Node000015"><a xlink:title=" ">
<path fill="none" stroke="#63b8ff" d="M973.59,-634.46C995.35,-630.44 1021.21,-625.65 1045.47,-621.17"/>
<polygon fill="#63b8ff" stroke="#63b8ff" points="1050.62,-620.22 1046.11,-623.34 1048.16,-620.67 1045.7,-621.13 1045.7,-621.13 1045.7,-621.13 1048.16,-620.67 1045.29,-618.91 1050.62,-620.22 1050.62,-620.22"/>
</a>
</g>
</g>
<!-- Node17&#45;&gt;Node16 -->
<g id="edge22_Node000017_Node000016" class="edge">
<title>Node17&#45;&gt;Node16</title>
<g id="a_edge22_Node000017_Node000016"><a xlink:title=" ">
<path fill="none" stroke="#63b8ff" d="M935.8,-634.4C969.72,-610.8 1057.56,-549.67 1101.57,-519.05"/>
<polygon fill="#63b8ff" stroke="#63b8ff" points="1105.69,-516.18 1102.87,-520.88 1103.63,-517.61 1101.58,-519.04 1101.58,-519.04 1101.58,-519.04 1103.63,-517.61 1100.3,-517.19 1105.69,-516.18 1105.69,-516.18"/>
</a>
</g>
</g>
<!-- Node18 -->
<g id="Node000018" class="node">
<title>Node18</title>
<g id="a_Node000018"><a xlink:href="../../df/d3b/classServer__Arrow.html#ac3d0e97cf7825bb5bf2ac70fed1164bd" target="_top" xlink:title=" ">
<polygon fill="white" stroke="#666666" points="1184.5,-658.5 1072.5,-658.5 1072.5,-639.5 1184.5,-639.5 1184.5,-658.5"/>
<text text-anchor="middle" x="1128.5" y="-646.5" font-family="Helvetica,sans-Serif" font-size="10.00">Server_Arrow::getId</text>
</a>
</g>
</g>
<!-- Node17&#45;&gt;Node18 -->
<g id="edge19_Node000017_Node000018" class="edge">
<title>Node17&#45;&gt;Node18</title>
<g id="a_edge19_Node000017_Node000018"><a xlink:title=" ">
<path fill="none" stroke="#63b8ff" d="M1003.22,-645.98C1024.63,-646.5 1047.34,-647.05 1067.42,-647.54"/>
<polygon fill="#63b8ff" stroke="#63b8ff" points="1072.46,-647.66 1067.41,-649.79 1069.96,-647.6 1067.46,-647.54 1067.46,-647.54 1067.46,-647.54 1069.96,-647.6 1067.52,-645.29 1072.46,-647.66 1072.46,-647.66"/>
</a>
</g>
</g>
<!-- Node20 -->
<g id="Node000020" class="node">
<title>Node20</title>
<g id="a_Node000020"><a xlink:href="../../d0/d00/classServer__AbstractParticipant.html#aa52e957246a1f7b3ec0a96bbfd38c93e" target="_top" xlink:title=" ">
<polygon fill="white" stroke="#666666" points="781,-121 635,-121 635,-91 781,-91 781,-121"/>
<text text-anchor="start" x="643" y="-109" font-family="Helvetica,sans-Serif" font-size="10.00">Server_AbstractParticipant</text>
<text text-anchor="middle" x="708" y="-98" font-family="Helvetica,sans-Serif" font-size="10.00">::removeFromGame</text>
</a>
</g>
</g>
<!-- Node19&#45;&gt;Node20 -->
<g id="edge24_Node000019_Node000020" class="edge">
<title>Node19&#45;&gt;Node20</title>
<g id="a_edge24_Node000019_Node000020"><a xlink:title=" ">
<path fill="none" stroke="#63b8ff" d="M562.26,-106C583.83,-106 607.56,-106 629.46,-106"/>
<polygon fill="#63b8ff" stroke="#63b8ff" points="634.69,-106 629.69,-108.25 632.19,-106 629.69,-106 629.69,-106 629.69,-106 632.19,-106 629.69,-103.75 634.69,-106 634.69,-106"/>
</a>
</g>
</g>
<!-- Node21 -->
<g id="Node000021" class="node">
<title>Node21</title>
<g id="a_Node000021"><a xlink:href="../../d5/d9c/classServer__AbstractUserInterface.html#aa7820d3ebd1d5201147e614dd38188f8" target="_top" xlink:title=" ">
<polygon fill="white" stroke="#666666" points="1001,-121 841,-121 841,-91 1001,-91 1001,-121"/>
<text text-anchor="start" x="849" y="-109" font-family="Helvetica,sans-Serif" font-size="10.00">Server_AbstractUserInterface</text>
<text text-anchor="middle" x="921" y="-98" font-family="Helvetica,sans-Serif" font-size="10.00">::playerRemovedFromGame</text>
</a>
</g>
</g>
<!-- Node20&#45;&gt;Node21 -->
<g id="edge25_Node000020_Node000021" class="edge">
<title>Node20&#45;&gt;Node21</title>
<g id="a_edge25_Node000020_Node000021"><a xlink:title=" ">
<path fill="none" stroke="#63b8ff" d="M781.02,-106C798.59,-106 817.54,-106 835.63,-106"/>
<polygon fill="#63b8ff" stroke="#63b8ff" points="840.71,-106 835.71,-108.25 838.21,-106 835.71,-106 835.71,-106 835.71,-106 838.21,-106 835.71,-103.75 840.71,-106 840.71,-106"/>
</a>
</g>
</g>
<!-- Node22 -->
<g id="Node000022" class="node">
<title>Node22</title>
<g id="a_Node000022"><a xlink:href="../../df/d89/classServer__Game.html#ae5d52d87721a4f422815f85e46de570b" target="_top" xlink:title=" ">
<polygon fill="white" stroke="#666666" points="1200,-115.5 1057,-115.5 1057,-96.5 1200,-96.5 1200,-115.5"/>
<text text-anchor="middle" x="1128.5" y="-103.5" font-family="Helvetica,sans-Serif" font-size="10.00">Server_Game::getGameId</text>
</a>
</g>
</g>
<!-- Node21&#45;&gt;Node22 -->
<g id="edge26_Node000021_Node000022" class="edge">
<title>Node21&#45;&gt;Node22</title>
<g id="a_edge26_Node000021_Node000022"><a xlink:title=" ">
<path fill="none" stroke="#63b8ff" d="M1001.16,-106C1017.76,-106 1035.23,-106 1051.7,-106"/>
<polygon fill="#63b8ff" stroke="#63b8ff" points="1056.78,-106 1051.78,-108.25 1054.28,-106 1051.78,-106 1051.78,-106 1051.78,-106 1054.28,-106 1051.78,-103.75 1056.78,-106 1056.78,-106"/>
</a>
</g>
</g>
<!-- Node23&#45;&gt;Node3 -->
<g id="edge29_Node000023_Node000003" class="edge">
<title>Node23&#45;&gt;Node3</title>
<g id="a_edge29_Node000023_Node000003"><a xlink:title=" ">
<path fill="none" stroke="#63b8ff" d="M569.26,-853.98C586.86,-857.3 605.56,-860.83 623.33,-864.19"/>
<polygon fill="#63b8ff" stroke="#63b8ff" points="628.31,-865.13 622.98,-866.42 625.86,-864.67 623.4,-864.2 623.4,-864.2 623.4,-864.2 625.86,-864.67 623.82,-861.99 628.31,-865.13 628.31,-865.13"/>
</a>
</g>
</g>
<!-- Node23&#45;&gt;Node9 -->
<g id="edge30_Node000023_Node000009" class="edge">
<title>Node23&#45;&gt;Node9</title>
<g id="a_edge30_Node000023_Node000009"><a xlink:title=" ">
<path fill="none" stroke="#63b8ff" d="M569.19,-848.47C673.34,-857.86 860.39,-864 1008,-810 1053.01,-793.54 1095.21,-754.05 1115.28,-733.28"/>
<polygon fill="#63b8ff" stroke="#63b8ff" points="1118.76,-729.63 1116.94,-734.8 1117.04,-731.44 1115.31,-733.25 1115.31,-733.25 1115.31,-733.25 1117.04,-731.44 1113.68,-731.7 1118.76,-729.63 1118.76,-729.63"/>
</a>
</g>
</g>
<!-- Node25&#45;&gt;Node16 -->
<g id="edge34_Node000025_Node000016" class="edge">
<title>Node25&#45;&gt;Node16</title>
<g id="a_edge34_Node000025_Node000016"><a xlink:title=" ">
<path fill="none" stroke="#63b8ff" d="M579.25,-397.23C684.25,-389.83 862.69,-386.45 1008,-430 1044.56,-440.96 1081.56,-465.47 1104.5,-482.62"/>
<polygon fill="#63b8ff" stroke="#63b8ff" points="1108.61,-485.73 1103.27,-484.51 1106.62,-484.22 1104.62,-482.71 1104.62,-482.71 1104.62,-482.71 1106.62,-484.22 1105.98,-480.92 1108.61,-485.73 1108.61,-485.73"/>
</a>
</g>
</g>
<!-- Node26 -->
<g id="Node000026" class="node">
<title>Node26</title>
<g id="a_Node000026"><a xlink:href="../../de/d8f/classGameEventStorage.html#a6dc7b9a868d61cac421240d16acfe672" target="_top" xlink:title=" ">
<polygon fill="white" stroke="#666666" points="798,-378 618,-378 618,-348 798,-348 798,-378"/>
<text text-anchor="start" x="626" y="-366" font-family="Helvetica,sans-Serif" font-size="10.00">GameEventStorage::setOverwrite</text>
<text text-anchor="middle" x="708" y="-355" font-family="Helvetica,sans-Serif" font-size="10.00">Ownership</text>
</a>
</g>
</g>
<!-- Node25&#45;&gt;Node26 -->
<g id="edge35_Node000025_Node000026" class="edge">
<title>Node25&#45;&gt;Node26</title>
<g id="a_edge35_Node000025_Node000026"><a xlink:title=" ">
<path fill="none" stroke="#63b8ff" d="M539.19,-396.42C553.04,-393.71 568.11,-390.75 582,-388 596.53,-385.13 612.01,-382.04 626.95,-379.06"/>
<polygon fill="#63b8ff" stroke="#63b8ff" points="631.99,-378.06 627.53,-381.24 629.54,-378.55 627.08,-379.03 627.08,-379.03 627.08,-379.03 629.54,-378.55 626.64,-376.83 631.99,-378.06 631.99,-378.06"/>
</a>
</g>
</g>
<!-- Node27&#45;&gt;Node4 -->
<g id="edge37_Node000027_Node000004" class="edge">
<title>Node27&#45;&gt;Node4</title>
<g id="a_edge37_Node000027_Node000004"><a xlink:title=" ">
<path fill="none" stroke="#63b8ff" d="M543.08,-548.46C575.12,-542.7 615.97,-535.36 648.88,-529.45"/>
<polygon fill="#63b8ff" stroke="#63b8ff" points="654.09,-528.51 649.57,-531.61 651.63,-528.95 649.17,-529.39 649.17,-529.39 649.17,-529.39 651.63,-528.95 648.77,-527.18 654.09,-528.51 654.09,-528.51"/>
</a>
</g>
</g>
<!-- Node27&#45;&gt;Node5 -->
<g id="edge38_Node000027_Node000005" class="edge">
<title>Node27&#45;&gt;Node5</title>
<g id="a_edge38_Node000027_Node000005"><a xlink:title=" ">
<path fill="none" stroke="#63b8ff" d="M508.18,-548.45C532.57,-535.97 577.52,-514.17 618,-501 627.68,-497.85 638.13,-495.08 648.35,-492.7"/>
<polygon fill="#63b8ff" stroke="#63b8ff" points="653.34,-491.56 648.96,-494.87 650.9,-492.12 648.46,-492.67 648.46,-492.67 648.46,-492.67 650.9,-492.12 647.96,-490.48 653.34,-491.56 653.34,-491.56"/>
</a>
</g>
</g>
<!-- Node27&#45;&gt;Node9 -->
<g id="edge39_Node000027_Node000009" class="edge">
<title>Node27&#45;&gt;Node9</title>
<g id="a_edge39_Node000027_Node000009"><a xlink:title=" ">
<path fill="none" stroke="#63b8ff" d="M533.57,-567.53C549.55,-572.21 567.31,-578.85 582,-588 601.47,-600.13 597.77,-614.17 618,-625 758.99,-700.51 949.82,-716.96 1053.31,-719.96"/>
<polygon fill="#63b8ff" stroke="#63b8ff" points="1058.48,-720.1 1053.42,-722.22 1055.98,-720.04 1053.48,-719.97 1053.48,-719.97 1053.48,-719.97 1055.98,-720.04 1053.54,-717.72 1058.48,-720.1 1058.48,-720.1"/>
</a>
</g>
</g>
<!-- Node28 -->
<g id="Node000028" class="node">
<title>Node28</title>
<g id="a_Node000028"><a xlink:href="../../df/d89/classServer__Game.html#a03820f49c6252407e7f800b727832fb9" target="_top" xlink:title=" ">
<polygon fill="white" stroke="#666666" points="791.5,-577 624.5,-577 624.5,-547 791.5,-547 791.5,-577"/>
<text text-anchor="start" x="632.5" y="-565" font-family="Helvetica,sans-Serif" font-size="10.00">Server_Game::sendGameState</text>
<text text-anchor="middle" x="708" y="-554" font-family="Helvetica,sans-Serif" font-size="10.00">ToPlayers</text>
</a>
</g>
</g>
<!-- Node27&#45;&gt;Node28 -->
<g id="edge40_Node000027_Node000028" class="edge">
<title>Node27&#45;&gt;Node28</title>
<g id="a_edge40_Node000027_Node000028"><a xlink:title=" ">
<path fill="none" stroke="#63b8ff" d="M582.03,-559.7C594.36,-559.92 606.98,-560.16 619.24,-560.38"/>
<polygon fill="#63b8ff" stroke="#63b8ff" points="624.46,-560.48 619.42,-562.64 621.96,-560.43 619.46,-560.39 619.46,-560.39 619.46,-560.39 621.96,-560.43 619.51,-558.14 624.46,-560.48 624.46,-560.48"/>
</a>
</g>
</g>
<!-- Node28&#45;&gt;Node15 -->
<g id="edge42_Node000028_Node000015" class="edge">
<title>Node28&#45;&gt;Node15</title>
<g id="a_edge42_Node000028_Node000015"><a xlink:title=" ">
<path fill="none" stroke="#63b8ff" d="M791.68,-570.69C865.31,-578.43 972.42,-589.7 1045.76,-597.41"/>
<polygon fill="#63b8ff" stroke="#63b8ff" points="1050.98,-597.96 1045.77,-599.67 1048.5,-597.69 1046.01,-597.43 1046.01,-597.43 1046.01,-597.43 1048.5,-597.69 1046.24,-595.19 1050.98,-597.96 1050.98,-597.96"/>
</a>
</g>
</g>
<!-- Node29 -->
<g id="Node000029" class="node">
<title>Node29</title>
<g id="a_Node000029"><a xlink:href="../../df/d89/classServer__Game.html#af1d68099b6544a7c7eba4847e305e1cb" target="_top" xlink:title=" ">
<polygon fill="white" stroke="#666666" points="1008,-502 834,-502 834,-472 1008,-472 1008,-502"/>
<text text-anchor="start" x="842" y="-490" font-family="Helvetica,sans-Serif" font-size="10.00">Server_Game::createGameState</text>
<text text-anchor="middle" x="921" y="-479" font-family="Helvetica,sans-Serif" font-size="10.00">ChangedEvent</text>
</a>
</g>
</g>
<!-- Node28&#45;&gt;Node29 -->
<g id="edge41_Node000028_Node000029" class="edge">
<title>Node28&#45;&gt;Node29</title>
<g id="a_edge41_Node000028_Node000029"><a xlink:title=" ">
<path fill="none" stroke="#63b8ff" d="M773.44,-546.98C781.83,-544.34 790.21,-541.35 798,-538 815.23,-530.59 817.01,-523.93 834,-516 843.57,-511.53 854.02,-507.41 864.24,-503.77"/>
<polygon fill="#63b8ff" stroke="#63b8ff" points="869.24,-502.02 865.26,-505.8 866.88,-502.85 864.52,-503.68 864.52,-503.68 864.52,-503.68 866.88,-502.85 863.77,-501.55 869.24,-502.02 869.24,-502.02"/>
</a>
</g>
</g>
<!-- Node31 -->
<g id="Node000031" class="node">
<title>Node31</title>
<g id="a_Node000031"><a xlink:href="../../da/d99/classServer__AbstractPlayer.html#acb13829ad009e505b9c3e76349150549" target="_top" xlink:title=" ">
<polygon fill="white" stroke="#666666" points="770.5,-30 645.5,-30 645.5,0 770.5,0 770.5,-30"/>
<text text-anchor="start" x="653.5" y="-18" font-family="Helvetica,sans-Serif" font-size="10.00">Server_AbstractPlayer</text>
<text text-anchor="middle" x="708" y="-7" font-family="Helvetica,sans-Serif" font-size="10.00">::getZones</text>
</a>
</g>
</g>
<!-- Node30&#45;&gt;Node31 -->
<g id="edge44_Node000030_Node000031" class="edge">
<title>Node30&#45;&gt;Node31</title>
<g id="a_edge44_Node000030_Node000031"><a xlink:title=" ">
<path fill="none" stroke="#63b8ff" d="M568.65,-15C592.1,-15 617.58,-15 640.2,-15"/>
<polygon fill="#63b8ff" stroke="#63b8ff" points="645.28,-15 640.28,-17.25 642.78,-15 640.28,-15 640.28,-15 640.28,-15 642.78,-15 640.28,-12.75 645.28,-15 645.28,-15"/>
</a>
</g>
</g>
</g>
</svg>
