<?xml version="1.0" encoding="UTF-8" standalone="no"?>
<!DOCTYPE svg PUBLIC "-//W3C//DTD SVG 1.1//EN"
 "http://www.w3.org/Graphics/SVG/1.1/DTD/svg11.dtd">
<!-- Generated by graphviz version 2.43.0 (0)
 -->
<!-- Title: Server_AbstractParticipant::getPlayerProperties Pages: 1 -->
<svg width="1630pt" height="153pt"
 viewBox="0.00 0.00 1630.00 153.00" xmlns="http://www.w3.org/2000/svg" xmlns:xlink="http://www.w3.org/1999/xlink">
<g id="graph0" class="graph" transform="scale(1 1) rotate(0) translate(4 149)">
<title>Server_AbstractParticipant::getPlayerProperties</title>
<!-- Node1 -->
<g id="Node000001" class="node">
<title>Node1</title>
<g id="a_Node000001"><a xlink:title=" ">
<polygon fill="#999999" stroke="#666666" points="1622,-78 1476,-78 1476,-48 1622,-48 1622,-78"/>
<text text-anchor="start" x="1484" y="-66" font-family="Helvetica,sans-Serif" font-size="10.00">Server_AbstractParticipant</text>
<text text-anchor="middle" x="1549" y="-55" font-family="Helvetica,sans-Serif" font-size="10.00">::getPlayerProperties</text>
</a>
</g>
</g>
<!-- Node2 -->
<g id="Node000002" class="node">
<title>Node2</title>
<g id="a_Node000002"><a xlink:href="../../d0/d00/classServer__AbstractParticipant.html#a34a1c3f1dfe454eb511f786bade699bc" target="_top" xlink:title=" ">
<polygon fill="white" stroke="#666666" points="1440,-78 1294,-78 1294,-48 1440,-48 1440,-78"/>
<text text-anchor="start" x="1302" y="-66" font-family="Helvetica,sans-Serif" font-size="10.00">Server_AbstractParticipant</text>
<text text-anchor="middle" x="1367" y="-55" font-family="Helvetica,sans-Serif" font-size="10.00">::getProperties</text>
</a>
</g>
</g>
<!-- Node1&#45;&gt;Node2 -->
<g id="edge1_Node000001_Node000002" class="edge">
<title>Node1&#45;&gt;Node2</title>
<g id="a_edge1_Node000001_Node000002"><a xlink:title=" ">
<path fill="none" stroke="#63b8ff" d="M1470.57,-63C1460.49,-63 1450.19,-63 1440.19,-63"/>
<polygon fill="#63b8ff" stroke="#63b8ff" points="1475.82,-63 1470.82,-65.25 1473.32,-63 1470.82,-63 1470.82,-63 1470.82,-63 1473.32,-63 1470.82,-60.75 1475.82,-63 1475.82,-63"/>
</a>
</g>
</g>
<!-- Node3 -->
<g id="Node000003" class="node">
<title>Node3</title>
<g id="a_Node000003"><a xlink:href="../../df/d89/classServer__Game.html#ae148abd9d42256a5b47ad78779575873" target="_top" xlink:title=" ">
<polygon fill="white" stroke="#666666" points="1253.5,-115.5 1116.5,-115.5 1116.5,-96.5 1253.5,-96.5 1253.5,-115.5"/>
<text text-anchor="middle" x="1185" y="-103.5" font-family="Helvetica,sans-Serif" font-size="10.00">Server_Game::addPlayer</text>
</a>
</g>
</g>
<!-- Node2&#45;&gt;Node3 -->
<g id="edge2_Node000002_Node000003" class="edge">
<title>Node2&#45;&gt;Node3</title>
<g id="a_edge2_Node000002_Node000003"><a xlink:title=" ">
<path fill="none" stroke="#63b8ff" d="M1297.89,-79.27C1273.59,-85.08 1247.01,-91.43 1225.86,-96.48"/>
<polygon fill="#63b8ff" stroke="#63b8ff" points="1303.04,-78.04 1298.7,-81.39 1300.61,-78.62 1298.18,-79.2 1298.18,-79.2 1298.18,-79.2 1300.61,-78.62 1297.66,-77.01 1303.04,-78.04 1303.04,-78.04"/>
</a>
</g>
</g>
<!-- Node11 -->
<g id="Node000011" class="node">
<title>Node11</title>
<g id="a_Node000011"><a xlink:href="../../da/d99/classServer__AbstractPlayer.html#aaf5f13baa8a123b1ae207ba30bed1c0f" target="_top" xlink:title=" ">
<polygon fill="white" stroke="#666666" points="1247.5,-78 1122.5,-78 1122.5,-48 1247.5,-48 1247.5,-78"/>
<text text-anchor="start" x="1130.5" y="-66" font-family="Helvetica,sans-Serif" font-size="10.00">Server_AbstractPlayer</text>
<text text-anchor="middle" x="1185" y="-55" font-family="Helvetica,sans-Serif" font-size="10.00">::getInfo</text>
</a>
</g>
</g>
<!-- Node2&#45;&gt;Node11 -->
<g id="edge10_Node000002_Node000011" class="edge">
<title>Node2&#45;&gt;Node11</title>
<g id="a_edge10_Node000002_Node000011"><a xlink:title=" ">
<path fill="none" stroke="#63b8ff" d="M1288.79,-63C1275.09,-63 1260.97,-63 1247.76,-63"/>
<polygon fill="#63b8ff" stroke="#63b8ff" points="1293.82,-63 1288.82,-65.25 1291.32,-63 1288.82,-63 1288.82,-63 1288.82,-63 1291.32,-63 1288.82,-60.75 1293.82,-63 1293.82,-63"/>
</a>
</g>
</g>
<!-- Node13 -->
<g id="Node000013" class="node">
<title>Node13</title>
<g id="a_Node000013"><a xlink:href="../../d0/d00/classServer__AbstractParticipant.html#ac2a3d360d3c7bd54cef251bb56f883a6" target="_top" xlink:title=" ">
<polygon fill="white" stroke="#666666" points="1258,-30 1112,-30 1112,0 1258,0 1258,-30"/>
<text text-anchor="start" x="1120" y="-18" font-family="Helvetica,sans-Serif" font-size="10.00">Server_AbstractParticipant</text>
<text text-anchor="middle" x="1185" y="-7" font-family="Helvetica,sans-Serif" font-size="10.00">::getInfo</text>
</a>
</g>
</g>
<!-- Node2&#45;&gt;Node13 -->
<g id="edge12_Node000002_Node000013" class="edge">
<title>Node2&#45;&gt;Node13</title>
<g id="a_edge12_Node000002_Node000013"><a xlink:title=" ">
<path fill="none" stroke="#63b8ff" d="M1304.46,-46.59C1284.3,-41.21 1262.01,-35.27 1242.26,-30"/>
<polygon fill="#63b8ff" stroke="#63b8ff" points="1309.54,-47.94 1304.13,-48.83 1307.13,-47.3 1304.71,-46.66 1304.71,-46.66 1304.71,-46.66 1307.13,-47.3 1305.29,-44.48 1309.54,-47.94 1309.54,-47.94"/>
</a>
</g>
</g>
<!-- Node4 -->
<g id="Node000004" class="node">
<title>Node4</title>
<g id="a_Node000004"><a xlink:href="../../d1/d15/classServer__Room.html#a2ddf4e59d67ca8ab6adb24a2f5fc8cde" target="_top" xlink:title=" ">
<polygon fill="white" stroke="#666666" points="1076,-121 933,-121 933,-91 1076,-91 1076,-121"/>
<text text-anchor="start" x="941" y="-109" font-family="Helvetica,sans-Serif" font-size="10.00">Server_Room::processJoin</text>
<text text-anchor="middle" x="1004.5" y="-98" font-family="Helvetica,sans-Serif" font-size="10.00">GameCommand</text>
</a>
</g>
</g>
<!-- Node3&#45;&gt;Node4 -->
<g id="edge3_Node000003_Node000004" class="edge">
<title>Node3&#45;&gt;Node4</title>
<g id="a_edge3_Node000003_Node000004"><a xlink:title=" ">
<path fill="none" stroke="#63b8ff" d="M1111,-106C1099.5,-106 1087.61,-106 1076.16,-106"/>
<polygon fill="#63b8ff" stroke="#63b8ff" points="1116.26,-106 1111.26,-108.25 1113.76,-106 1111.26,-106 1111.26,-106 1111.26,-106 1113.76,-106 1111.26,-103.75 1116.26,-106 1116.26,-106"/>
</a>
</g>
</g>
<!-- Node5 -->
<g id="Node000005" class="node">
<title>Node5</title>
<g id="a_Node000005"><a xlink:href="../../d0/d23/classServer__ProtocolHandler.html#a80a629f238d2f278fa85e82569ce5db5" target="_top" xlink:title=" ">
<polygon fill="white" stroke="#666666" points="891.5,-145 760.5,-145 760.5,-115 891.5,-115 891.5,-145"/>
<text text-anchor="start" x="768.5" y="-133" font-family="Helvetica,sans-Serif" font-size="10.00">Server_ProtocolHandler</text>
<text text-anchor="middle" x="826" y="-122" font-family="Helvetica,sans-Serif" font-size="10.00">::cmdJoinGame</text>
</a>
</g>
</g>
<!-- Node4&#45;&gt;Node5 -->
<g id="edge4_Node000004_Node000005" class="edge">
<title>Node4&#45;&gt;Node5</title>
<g id="a_edge4_Node000004_Node000005"><a xlink:title=" ">
<path fill="none" stroke="#63b8ff" d="M927.84,-116.29C915.8,-117.92 903.44,-119.61 891.69,-121.2"/>
<polygon fill="#63b8ff" stroke="#63b8ff" points="932.98,-115.59 928.33,-118.49 930.5,-115.93 928.03,-116.26 928.03,-116.26 928.03,-116.26 930.5,-115.93 927.72,-114.03 932.98,-115.59 932.98,-115.59"/>
</a>
</g>
</g>
<!-- Node10 -->
<g id="Node000010" class="node">
<title>Node10</title>
<g id="a_Node000010"><a xlink:href="../../db/d00/classServer.html#a788482387416335455df80db85ea8b41" target="_top" xlink:title=" ">
<polygon fill="white" stroke="#666666" points="897,-97 755,-97 755,-67 897,-67 897,-97"/>
<text text-anchor="start" x="763" y="-85" font-family="Helvetica,sans-Serif" font-size="10.00">Server::externalJoinGame</text>
<text text-anchor="middle" x="826" y="-74" font-family="Helvetica,sans-Serif" font-size="10.00">CommandReceived</text>
</a>
</g>
</g>
<!-- Node4&#45;&gt;Node10 -->
<g id="edge9_Node000004_Node000010" class="edge">
<title>Node4&#45;&gt;Node10</title>
<g id="a_edge9_Node000004_Node000010"><a xlink:title=" ">
<path fill="none" stroke="#63b8ff" d="M927.98,-95.73C917.73,-94.34 907.26,-92.91 897.12,-91.53"/>
<polygon fill="#63b8ff" stroke="#63b8ff" points="932.98,-96.41 927.72,-97.97 930.5,-96.07 928.03,-95.74 928.03,-95.74 928.03,-95.74 930.5,-96.07 928.33,-93.51 932.98,-96.41 932.98,-96.41"/>
</a>
</g>
</g>
<!-- Node6 -->
<g id="Node000006" class="node">
<title>Node6</title>
<g id="a_Node000006"><a xlink:href="../../d0/d23/classServer__ProtocolHandler.html#a0e26caee42790f25027eb553089365ca" target="_top" xlink:title=" ">
<polygon fill="white" stroke="#666666" points="719,-145 533,-145 533,-115 719,-115 719,-145"/>
<text text-anchor="start" x="541" y="-133" font-family="Helvetica,sans-Serif" font-size="10.00">Server_ProtocolHandler</text>
<text text-anchor="middle" x="626" y="-122" font-family="Helvetica,sans-Serif" font-size="10.00">::processRoomCommandContainer</text>
</a>
</g>
</g>
<!-- Node5&#45;&gt;Node6 -->
<g id="edge5_Node000005_Node000006" class="edge">
<title>Node5&#45;&gt;Node6</title>
<g id="a_edge5_Node000005_Node000006"><a xlink:title=" ">
<path fill="none" stroke="#63b8ff" d="M755.13,-130C743.49,-130 731.25,-130 719.15,-130"/>
<polygon fill="#63b8ff" stroke="#63b8ff" points="760.44,-130 755.44,-132.25 757.94,-130 755.44,-130 755.44,-130 755.44,-130 757.94,-130 755.44,-127.75 760.44,-130 760.44,-130"/>
</a>
</g>
</g>
<!-- Node7 -->
<g id="Node000007" class="node">
<title>Node7</title>
<g id="a_Node000007"><a xlink:href="../../d0/d23/classServer__ProtocolHandler.html#a5d3b699ffcf0dcfb4a3f42d180a8a2f7" target="_top" xlink:title=" ">
<polygon fill="white" stroke="#666666" points="497,-145 339,-145 339,-115 497,-115 497,-145"/>
<text text-anchor="start" x="347" y="-133" font-family="Helvetica,sans-Serif" font-size="10.00">Server_ProtocolHandler</text>
<text text-anchor="middle" x="418" y="-122" font-family="Helvetica,sans-Serif" font-size="10.00">::processCommandContainer</text>
</a>
</g>
</g>
<!-- Node6&#45;&gt;Node7 -->
<g id="edge6_Node000006_Node000007" class="edge">
<title>Node6&#45;&gt;Node7</title>
<g id="a_edge6_Node000006_Node000007"><a xlink:title=" ">
<path fill="none" stroke="#63b8ff" d="M527.82,-130C517.56,-130 507.23,-130 497.23,-130"/>
<polygon fill="#63b8ff" stroke="#63b8ff" points="532.85,-130 527.85,-132.25 530.35,-130 527.85,-130 527.85,-130 527.85,-130 530.35,-130 527.85,-127.75 532.85,-130 532.85,-130"/>
</a>
</g>
</g>
<!-- Node8 -->
<g id="Node000008" class="node">
<title>Node8</title>
<g id="a_Node000008"><a xlink:href="../../d0/dc3/classLocalServerInterface.html#a82c6e84346069a3b7506835a6ec58c4a" target="_top" xlink:title=" ">
<polygon fill="white" stroke="#666666" points="303,-145 186,-145 186,-115 303,-115 303,-145"/>
<text text-anchor="start" x="194" y="-133" font-family="Helvetica,sans-Serif" font-size="10.00">LocalServerInterface</text>
<text text-anchor="middle" x="244.5" y="-122" font-family="Helvetica,sans-Serif" font-size="10.00">::itemFromClient</text>
</a>
</g>
</g>
<!-- Node7&#45;&gt;Node8 -->
<g id="edge7_Node000007_Node000008" class="edge">
<title>Node7&#45;&gt;Node8</title>
<g id="a_edge7_Node000007_Node000008"><a xlink:title=" ">
<path fill="none" stroke="#63b8ff" d="M333.7,-130C323.34,-130 312.94,-130 303.09,-130"/>
<polygon fill="#63b8ff" stroke="#63b8ff" points="338.78,-130 333.78,-132.25 336.28,-130 333.78,-130 333.78,-130 333.78,-130 336.28,-130 333.78,-127.75 338.78,-130 338.78,-130"/>
</a>
</g>
</g>
<!-- Node9 -->
<g id="Node000009" class="node">
<title>Node9</title>
<g id="a_Node000009"><a xlink:href="../../df/d75/classLocalClient.html#addefec8fa45b1636777b33c42ac033f5" target="_top" xlink:title=" ">
<polygon fill="white" stroke="#666666" points="150,-145 0,-145 0,-115 150,-115 150,-145"/>
<text text-anchor="start" x="8" y="-133" font-family="Helvetica,sans-Serif" font-size="10.00">LocalClient::sendCommand</text>
<text text-anchor="middle" x="75" y="-122" font-family="Helvetica,sans-Serif" font-size="10.00">Container</text>
</a>
</g>
</g>
<!-- Node8&#45;&gt;Node9 -->
<g id="edge8_Node000008_Node000009" class="edge">
<title>Node8&#45;&gt;Node9</title>
<g id="a_edge8_Node000008_Node000009"><a xlink:title=" ">
<path fill="none" stroke="#63b8ff" d="M180.67,-130C170.67,-130 160.25,-130 150.02,-130"/>
<polygon fill="#63b8ff" stroke="#63b8ff" points="185.86,-130 180.86,-132.25 183.36,-130 180.86,-130 180.86,-130 180.86,-130 183.36,-130 180.86,-127.75 185.86,-130 185.86,-130"/>
</a>
</g>
</g>
<!-- Node12 -->
<g id="Node000012" class="node">
<title>Node12</title>
<g id="a_Node000012"><a xlink:href="../../d8/d21/classServer__Player.html#a8919f52850043f7a6f7ad5b8cb472685" target="_top" xlink:title=" ">
<polygon fill="white" stroke="#666666" points="1067,-72.5 942,-72.5 942,-53.5 1067,-53.5 1067,-72.5"/>
<text text-anchor="middle" x="1004.5" y="-60.5" font-family="Helvetica,sans-Serif" font-size="10.00">Server_Player::getInfo</text>
</a>
</g>
</g>
<!-- Node11&#45;&gt;Node12 -->
<g id="edge11_Node000011_Node000012" class="edge">
<title>Node11&#45;&gt;Node12</title>
<g id="a_edge11_Node000011_Node000012"><a xlink:title=" ">
<path fill="none" stroke="#63b8ff" d="M1117.26,-63C1100.85,-63 1083.35,-63 1067.18,-63"/>
<polygon fill="#63b8ff" stroke="#63b8ff" points="1122.32,-63 1117.32,-65.25 1119.82,-63 1117.32,-63 1117.32,-63 1117.32,-63 1119.82,-63 1117.32,-60.75 1122.32,-63 1122.32,-63"/>
</a>
</g>
</g>
</g>
</svg>
