<?xml version="1.0" encoding="UTF-8" standalone="no"?>
<!DOCTYPE svg PUBLIC "-//W3C//DTD SVG 1.1//EN"
 "http://www.w3.org/Graphics/SVG/1.1/DTD/svg11.dtd">
<!-- Generated by graphviz version 2.43.0 (0)
 -->
<!-- Title: RemoteClient::doHashedLogin Pages: 1 -->
<svg width="982pt" height="190pt"
 viewBox="0.00 0.00 982.00 189.50" xmlns="http://www.w3.org/2000/svg" xmlns:xlink="http://www.w3.org/1999/xlink">
<g id="graph0" class="graph" transform="scale(1 1) rotate(0) translate(4 185.5)">
<title>RemoteClient::doHashedLogin</title>
<!-- Node1 -->
<g id="Node000001" class="node">
<title>Node1</title>
<g id="a_Node000001"><a xlink:title=" ">
<polygon fill="#999999" stroke="#666666" points="974,-65.5 810,-65.5 810,-46.5 974,-46.5 974,-65.5"/>
<text text-anchor="middle" x="892" y="-53.5" font-family="Helvetica,sans-Serif" font-size="10.00">RemoteClient::doHashedLogin</text>
</a>
</g>
</g>
<!-- Node2 -->
<g id="Node000002" class="node">
<title>Node2</title>
<g id="a_Node000002"><a xlink:href="../../db/d53/classRemoteClient.html#aaa8af462dc06132f65e6eb4c59e7bdca" target="_top" xlink:title=" ">
<polygon fill="white" stroke="#666666" points="774,-86.5 646,-86.5 646,-67.5 774,-67.5 774,-86.5"/>
<text text-anchor="middle" x="710" y="-74.5" font-family="Helvetica,sans-Serif" font-size="10.00">RemoteClient::doLogin</text>
</a>
</g>
</g>
<!-- Node1&#45;&gt;Node2 -->
<g id="edge1_Node000001_Node000002" class="edge">
<title>Node1&#45;&gt;Node2</title>
<g id="a_edge1_Node000001_Node000002"><a xlink:title=" ">
<path fill="none" stroke="#63b8ff" d="M804.86,-66.05C794.48,-67.26 784.03,-68.48 774.06,-69.64"/>
<polygon fill="#63b8ff" stroke="#63b8ff" points="809.95,-65.46 805.25,-68.27 807.47,-65.75 804.99,-66.04 804.99,-66.04 804.99,-66.04 807.47,-65.75 804.72,-63.8 809.95,-65.46 809.95,-65.46"/>
</a>
</g>
</g>
<!-- Node6 -->
<g id="Node000006" class="node">
<title>Node6</title>
<g id="a_Node000006"><a xlink:href="../../db/d53/classRemoteClient.html#a8203596b00d006b733b11c17e84b2e73" target="_top" xlink:title=" ">
<polygon fill="white" stroke="#666666" points="599.5,-30 444.5,-30 444.5,0 599.5,0 599.5,-30"/>
<text text-anchor="start" x="452.5" y="-18" font-family="Helvetica,sans-Serif" font-size="10.00">RemoteClient::passwordSalt</text>
<text text-anchor="middle" x="522" y="-7" font-family="Helvetica,sans-Serif" font-size="10.00">Response</text>
</a>
</g>
</g>
<!-- Node1&#45;&gt;Node6 -->
<g id="edge11_Node000001_Node000006" class="edge">
<title>Node1&#45;&gt;Node6</title>
<g id="a_edge11_Node000001_Node000006"><a xlink:title=" ">
<path fill="none" stroke="#63b8ff" d="M804.59,-46.37C742.44,-39.45 659.39,-30.2 599.61,-23.53"/>
<polygon fill="#63b8ff" stroke="#63b8ff" points="809.79,-46.95 804.57,-48.63 807.3,-46.67 804.82,-46.4 804.82,-46.4 804.82,-46.4 807.3,-46.67 805.07,-44.16 809.79,-46.95 809.79,-46.95"/>
</a>
</g>
</g>
<!-- Node3 -->
<g id="Node000003" class="node">
<title>Node3</title>
<g id="a_Node000003"><a xlink:href="../../db/d53/classRemoteClient.html#ab26648a2334091721f9afd6f5c3c5da0" target="_top" xlink:title=" ">
<polygon fill="white" stroke="#666666" points="610,-181.5 434,-181.5 434,-162.5 610,-162.5 610,-181.5"/>
<text text-anchor="middle" x="522" y="-169.5" font-family="Helvetica,sans-Serif" font-size="10.00">RemoteClient::activateResponse</text>
</a>
</g>
</g>
<!-- Node2&#45;&gt;Node3 -->
<g id="edge2_Node000002_Node000003" class="edge">
<title>Node2&#45;&gt;Node3</title>
<g id="a_edge2_Node000002_Node000003"><a xlink:title=" ">
<path fill="none" stroke="#63b8ff" d="M694.32,-90.11C675.87,-105.95 642.65,-132.4 610,-148 597.28,-154.08 582.75,-158.85 569.25,-162.48"/>
<polygon fill="#63b8ff" stroke="#63b8ff" points="698.24,-86.71 695.94,-91.68 696.36,-88.35 694.47,-89.98 694.47,-89.98 694.47,-89.98 696.36,-88.35 692.99,-88.28 698.24,-86.71 698.24,-86.71"/>
</a>
</g>
</g>
<!-- Node4 -->
<g id="Node000004" class="node">
<title>Node4</title>
<g id="a_Node000004"><a xlink:href="../../db/d53/classRemoteClient.html#a1dacfbdba8d2bf0eb618cd4cba40d6b5" target="_top" xlink:title=" ">
<polygon fill="white" stroke="#666666" points="374,-149 216,-149 216,-119 374,-119 374,-149"/>
<text text-anchor="start" x="224" y="-137" font-family="Helvetica,sans-Serif" font-size="10.00">RemoteClient::processServer</text>
<text text-anchor="middle" x="295" y="-126" font-family="Helvetica,sans-Serif" font-size="10.00">IdentificationEvent</text>
</a>
</g>
</g>
<!-- Node2&#45;&gt;Node4 -->
<g id="edge8_Node000002_Node000004" class="edge">
<title>Node2&#45;&gt;Node4</title>
<g id="a_edge8_Node000002_Node000004"><a xlink:title=" ">
<path fill="none" stroke="#63b8ff" d="M684.66,-88.76C665,-97.66 636.37,-109.28 610,-115 530.87,-132.15 438.09,-135.81 374,-135.85"/>
<polygon fill="#63b8ff" stroke="#63b8ff" points="689.45,-86.56 685.84,-90.69 687.18,-87.6 684.91,-88.64 684.91,-88.64 684.91,-88.64 687.18,-87.6 683.97,-86.6 689.45,-86.56 689.45,-86.56"/>
</a>
</g>
</g>
<!-- Node2&#45;&gt;Node6 -->
<g id="edge5_Node000002_Node000006" class="edge">
<title>Node2&#45;&gt;Node6</title>
<g id="a_edge5_Node000002_Node000006"><a xlink:title=" ">
<path fill="none" stroke="#63b8ff" d="M675.3,-65.77C645.36,-55.79 601.36,-41.12 568.35,-30.12"/>
<polygon fill="#63b8ff" stroke="#63b8ff" points="680.35,-67.45 674.89,-68 677.97,-66.66 675.6,-65.87 675.6,-65.87 675.6,-65.87 677.97,-66.66 676.31,-63.73 680.35,-67.45 680.35,-67.45"/>
</a>
</g>
</g>
<!-- Node8 -->
<g id="Node000008" class="node">
<title>Node8</title>
<g id="a_Node000008"><a xlink:href="../../db/d53/classRemoteClient.html#a360b18eedad828edd891deea0cc94937" target="_top" xlink:title=" ">
<polygon fill="white" stroke="#666666" points="609,-105.5 435,-105.5 435,-86.5 609,-86.5 609,-105.5"/>
<text text-anchor="middle" x="522" y="-93.5" font-family="Helvetica,sans-Serif" font-size="10.00">RemoteClient::registerResponse</text>
</a>
</g>
</g>
<!-- Node2&#45;&gt;Node8 -->
<g id="edge9_Node000002_Node000008" class="edge">
<title>Node2&#45;&gt;Node8</title>
<g id="a_edge9_Node000002_Node000008"><a xlink:title=" ">
<path fill="none" stroke="#63b8ff" d="M640.75,-83.97C630.46,-85.02 619.73,-86.12 609.12,-87.2"/>
<polygon fill="#63b8ff" stroke="#63b8ff" points="645.77,-83.46 641.02,-86.21 643.28,-83.71 640.8,-83.97 640.8,-83.97 640.8,-83.97 643.28,-83.71 640.57,-81.73 645.77,-83.46 645.77,-83.46"/>
</a>
</g>
</g>
<!-- Node3&#45;&gt;Node4 -->
<g id="edge3_Node000003_Node000004" class="edge">
<title>Node3&#45;&gt;Node4</title>
<g id="a_edge3_Node000003_Node000004"><a xlink:title=" ">
<path fill="none" stroke="#63b8ff" d="M459.32,-161.58C433.03,-157.14 402.06,-151.91 374.19,-147.21"/>
<polygon fill="#63b8ff" stroke="#63b8ff" points="464.51,-162.46 459.21,-163.85 462.05,-162.04 459.58,-161.63 459.58,-161.63 459.58,-161.63 462.05,-162.04 459.96,-159.41 464.51,-162.46 464.51,-162.46"/>
</a>
</g>
</g>
<!-- Node5 -->
<g id="Node000005" class="node">
<title>Node5</title>
<g id="a_Node000005"><a xlink:href="../../db/d53/classRemoteClient.html#a37f95399d855ffda07836178e244cce7" target="_top" xlink:title=" ">
<polygon fill="white" stroke="#666666" points="156,-143.5 0,-143.5 0,-124.5 156,-124.5 156,-143.5"/>
<text text-anchor="middle" x="78" y="-131.5" font-family="Helvetica,sans-Serif" font-size="10.00">RemoteClient::RemoteClient</text>
</a>
</g>
</g>
<!-- Node4&#45;&gt;Node5 -->
<g id="edge4_Node000004_Node000005" class="edge">
<title>Node4&#45;&gt;Node5</title>
<g id="a_edge4_Node000004_Node000005"><a xlink:title=" ">
<path fill="none" stroke="#63b8ff" d="M210.73,-134C192.75,-134 173.82,-134 156.09,-134"/>
<polygon fill="#63b8ff" stroke="#63b8ff" points="215.77,-134 210.77,-136.25 213.27,-134 210.77,-134 210.77,-134 210.77,-134 213.27,-134 210.77,-131.75 215.77,-134 215.77,-134"/>
</a>
</g>
</g>
<!-- Node7 -->
<g id="Node000007" class="node">
<title>Node7</title>
<g id="a_Node000007"><a xlink:href="../../db/d53/classRemoteClient.html#ab7d09a5323416d70e7940e0c5bef6b86" target="_top" xlink:title=" ">
<polygon fill="white" stroke="#666666" points="398,-46.5 192,-46.5 192,-27.5 398,-27.5 398,-46.5"/>
<text text-anchor="middle" x="295" y="-34.5" font-family="Helvetica,sans-Serif" font-size="10.00">RemoteClient::doRequestPasswordSalt</text>
</a>
</g>
</g>
<!-- Node6&#45;&gt;Node7 -->
<g id="edge6_Node000006_Node000007" class="edge">
<title>Node6&#45;&gt;Node7</title>
<g id="a_edge6_Node000006_Node000007"><a xlink:title=" ">
<path fill="none" stroke="#63b8ff" d="M439.2,-23C424.37,-24.45 408.77,-25.97 393.54,-27.46"/>
<polygon fill="#63b8ff" stroke="#63b8ff" points="444.2,-22.51 439.44,-25.24 441.71,-22.75 439.22,-23 439.22,-23 439.22,-23 441.71,-22.75 439,-20.76 444.2,-22.51 444.2,-22.51"/>
</a>
</g>
</g>
<!-- Node7&#45;&gt;Node2 -->
<g id="edge7_Node000007_Node000002" class="edge">
<title>Node7&#45;&gt;Node2</title>
<g id="a_edge7_Node000007_Node000002"><a xlink:title=" ">
<path fill="none" stroke="#63b8ff" d="M399.21,-47C476.68,-54.5 580.27,-64.53 645.82,-70.88"/>
<polygon fill="#63b8ff" stroke="#63b8ff" points="394.14,-46.51 399.34,-44.75 396.63,-46.75 399.12,-46.99 399.12,-46.99 399.12,-46.99 396.63,-46.75 398.9,-49.23 394.14,-46.51 394.14,-46.51"/>
</a>
</g>
</g>
<!-- Node8&#45;&gt;Node4 -->
<g id="edge10_Node000008_Node000004" class="edge">
<title>Node8&#45;&gt;Node4</title>
<g id="a_edge10_Node000008_Node000004"><a xlink:title=" ">
<path fill="none" stroke="#63b8ff" d="M459.32,-106.42C433.03,-110.86 402.06,-116.09 374.19,-120.79"/>
<polygon fill="#63b8ff" stroke="#63b8ff" points="464.51,-105.54 459.96,-108.59 462.05,-105.96 459.58,-106.37 459.58,-106.37 459.58,-106.37 462.05,-105.96 459.21,-104.15 464.51,-105.54 464.51,-105.54"/>
</a>
</g>
</g>
</g>
</svg>
