<?xml version="1.0" encoding="UTF-8" standalone="no"?>
<!DOCTYPE svg PUBLIC "-//W3C//DTD SVG 1.1//EN"
 "http://www.w3.org/Graphics/SVG/1.1/DTD/svg11.dtd">
<!-- Generated by graphviz version 2.43.0 (0)
 -->
<!-- Title: RemoteClient::doLogin Pages: 1 -->
<svg width="1390pt" height="597pt"
 viewBox="0.00 0.00 1390.00 596.97" xmlns="http://www.w3.org/2000/svg" xmlns:xlink="http://www.w3.org/1999/xlink">
<g id="graph0" class="graph" transform="scale(1 1) rotate(0) translate(4 592.97)">
<title>RemoteClient::doLogin</title>
<!-- Node1 -->
<g id="Node000001" class="node">
<title>Node1</title>
<g id="a_Node000001"><a xlink:title=" ">
<polygon fill="#999999" stroke="#666666" points="128,-286.47 0,-286.47 0,-267.47 128,-267.47 128,-286.47"/>
<text text-anchor="middle" x="64" y="-274.47" font-family="Helvetica,sans-Serif" font-size="10.00">RemoteClient::doLogin</text>
</a>
</g>
</g>
<!-- Node2 -->
<g id="Node000002" class="node">
<title>Node2</title>
<g id="a_Node000002"><a xlink:href="../../db/d53/classRemoteClient.html#ad8f6c81f52b6104e5da9b58160817bdd" target="_top" xlink:title=" ">
<polygon fill="white" stroke="#666666" points="764,-223.47 600,-223.47 600,-204.47 764,-204.47 764,-223.47"/>
<text text-anchor="middle" x="682" y="-211.47" font-family="Helvetica,sans-Serif" font-size="10.00">RemoteClient::doHashedLogin</text>
</a>
</g>
</g>
<!-- Node1&#45;&gt;Node2 -->
<g id="edge1_Node000001_Node000002" class="edge">
<title>Node1&#45;&gt;Node2</title>
<g id="a_edge1_Node000001_Node000002"><a xlink:title=" ">
<path fill="none" stroke="#63b8ff" d="M128.03,-270.53C238.95,-259.18 469.16,-235.64 594.73,-222.8"/>
<polygon fill="#63b8ff" stroke="#63b8ff" points="599.89,-222.27 595.15,-225.02 597.4,-222.52 594.92,-222.78 594.92,-222.78 594.92,-222.78 597.4,-222.52 594.69,-220.54 599.89,-222.27 599.89,-222.27"/>
</a>
</g>
</g>
<!-- Node3 -->
<g id="Node000003" class="node">
<title>Node3</title>
<g id="a_Node000003"><a xlink:href="../../d8/d62/classPendingCommand.html#a592d604b15abf4153c4b401484396324" target="_top" xlink:title=" ">
<polygon fill="white" stroke="#666666" points="969.5,-450.47 819.5,-450.47 819.5,-431.47 969.5,-431.47 969.5,-450.47"/>
<text text-anchor="middle" x="894.5" y="-438.47" font-family="Helvetica,sans-Serif" font-size="10.00">PendingCommand::finished</text>
</a>
</g>
</g>
<!-- Node1&#45;&gt;Node3 -->
<g id="edge28_Node000001_Node000003" class="edge">
<title>Node1&#45;&gt;Node3</title>
<g id="a_edge28_Node000001_Node000003"><a xlink:title=" ">
<path fill="none" stroke="#63b8ff" d="M71.07,-286.75C84.8,-308.02 120.49,-358.61 164,-383.97 386.45,-513.65 713.96,-473.71 840.71,-451.46"/>
<polygon fill="#63b8ff" stroke="#63b8ff" points="845.87,-450.54 841.34,-453.63 843.4,-450.98 840.94,-451.42 840.94,-451.42 840.94,-451.42 843.4,-450.98 840.55,-449.2 845.87,-450.54 845.87,-450.54"/>
</a>
</g>
</g>
<!-- Node4 -->
<g id="Node000004" class="node">
<title>Node4</title>
<g id="a_Node000004"><a xlink:href="../../db/d53/classRemoteClient.html#af54d2fee9bad595f0152cea6579923e0" target="_top" xlink:title=" ">
<polygon fill="white" stroke="#666666" points="986,-71.97 803,-71.97 803,-41.97 986,-41.97 986,-71.97"/>
<text text-anchor="start" x="811" y="-59.97" font-family="Helvetica,sans-Serif" font-size="10.00">RemoteClient::generateCommand</text>
<text text-anchor="middle" x="894.5" y="-48.97" font-family="Helvetica,sans-Serif" font-size="10.00">Login</text>
</a>
</g>
</g>
<!-- Node1&#45;&gt;Node4 -->
<g id="edge29_Node000001_Node000004" class="edge">
<title>Node1&#45;&gt;Node4</title>
<g id="a_edge29_Node000001_Node000004"><a xlink:title=" ">
<path fill="none" stroke="#63b8ff" d="M66.59,-267.16C72.46,-234.49 96.23,-129.05 164,-85.97 377.34,49.62 701.02,-8.45 833.64,-40.74"/>
<polygon fill="#63b8ff" stroke="#63b8ff" points="838.66,-41.97 833.27,-42.96 836.23,-41.37 833.8,-40.78 833.8,-40.78 833.8,-40.78 836.23,-41.37 834.34,-38.59 838.66,-41.97 838.66,-41.97"/>
</a>
</g>
</g>
<!-- Node6 -->
<g id="Node000006" class="node">
<title>Node6</title>
<g id="a_Node000006"><a xlink:href="../../db/d53/classRemoteClient.html#a5baec5a706e5752fbfc49427443ced38" target="_top" xlink:title=" ">
<polygon fill="white" stroke="#666666" points="975,-487.47 814,-487.47 814,-468.47 975,-468.47 975,-487.47"/>
<text text-anchor="middle" x="894.5" y="-475.47" font-family="Helvetica,sans-Serif" font-size="10.00">RemoteClient::loginResponse</text>
</a>
</g>
</g>
<!-- Node1&#45;&gt;Node6 -->
<g id="edge30_Node000001_Node000006" class="edge">
<title>Node1&#45;&gt;Node6</title>
<g id="a_edge30_Node000001_Node000006"><a xlink:title=" ">
<path fill="none" stroke="#63b8ff" d="M68.05,-286.64C77.37,-314.51 108.3,-395.54 164,-433.97 383.44,-585.39 734.12,-517.88 852.76,-488.83"/>
<polygon fill="#63b8ff" stroke="#63b8ff" points="857.9,-487.56 853.58,-490.94 855.47,-488.16 853.04,-488.76 853.04,-488.76 853.04,-488.76 855.47,-488.16 852.5,-486.57 857.9,-487.56 857.9,-487.56"/>
</a>
</g>
</g>
<!-- Node12 -->
<g id="Node000012" class="node">
<title>Node12</title>
<g id="a_Node000012"><a xlink:href="../../dc/d86/classAbstractClient.html#aaf039f2109abe9e5f98e18bfc1125017" target="_top" xlink:title=" ">
<polygon fill="white" stroke="#666666" points="1170.5,-249.47 1033.5,-249.47 1033.5,-230.47 1170.5,-230.47 1170.5,-249.47"/>
<text text-anchor="middle" x="1102" y="-237.47" font-family="Helvetica,sans-Serif" font-size="10.00">AbstractClient::setStatus</text>
</a>
</g>
</g>
<!-- Node1&#45;&gt;Node12 -->
<g id="edge33_Node000001_Node000012" class="edge">
<title>Node1&#45;&gt;Node12</title>
<g id="a_edge33_Node000001_Node000012"><a xlink:title=" ">
<path fill="none" stroke="#63b8ff" d="M73.23,-267.32C89.02,-249.41 125.41,-210.97 164,-189.97 293.22,-119.68 335.4,-99.97 482.5,-99.97 482.5,-99.97 482.5,-99.97 683,-99.97 819.64,-99.97 860.77,-97.31 986,-151.97 1027.91,-170.26 1068.31,-206.98 1088.2,-226.71"/>
<polygon fill="#63b8ff" stroke="#63b8ff" points="1091.9,-230.42 1086.77,-228.47 1090.13,-228.65 1088.37,-226.88 1088.37,-226.88 1088.37,-226.88 1090.13,-228.65 1089.96,-225.29 1091.9,-230.42 1091.9,-230.42"/>
</a>
</g>
</g>
<!-- Node15 -->
<g id="Node000015" class="node">
<title>Node15</title>
<g id="a_Node000015"><a xlink:href="../../dc/d86/classAbstractClient.html#afd7538b953c3e9d204b68d076b0c6ab1" target="_top" xlink:title=" ">
<polygon fill="white" stroke="#666666" points="978,-190.97 811,-190.97 811,-160.97 978,-160.97 978,-190.97"/>
<text text-anchor="start" x="819" y="-178.97" font-family="Helvetica,sans-Serif" font-size="10.00">AbstractClient::prepareSession</text>
<text text-anchor="middle" x="894.5" y="-167.97" font-family="Helvetica,sans-Serif" font-size="10.00">Command</text>
</a>
</g>
</g>
<!-- Node1&#45;&gt;Node15 -->
<g id="edge31_Node000001_Node000015" class="edge">
<title>Node1&#45;&gt;Node15</title>
<g id="a_edge31_Node000001_Node000015"><a xlink:title=" ">
<path fill="none" stroke="#63b8ff" d="M89.94,-267.36C109.78,-259.97 138.38,-249.88 164,-242.97 424.65,-172.71 497.12,-163.58 767,-169.97 779.52,-170.27 792.72,-170.73 805.69,-171.27"/>
<polygon fill="#63b8ff" stroke="#63b8ff" points="810.84,-171.49 805.75,-173.52 808.35,-171.38 805.85,-171.28 805.85,-171.28 805.85,-171.28 808.35,-171.38 805.94,-169.03 810.84,-171.49 810.84,-171.49"/>
</a>
</g>
</g>
<!-- Node16 -->
<g id="Node000016" class="node">
<title>Node16</title>
<g id="a_Node000016"><a xlink:href="../../dc/d86/classAbstractClient.html#a759acefdf58266cafdf63284c55c5711" target="_top" xlink:title=" ">
<polygon fill="white" stroke="#666666" points="977,-336.47 812,-336.47 812,-317.47 977,-317.47 977,-336.47"/>
<text text-anchor="middle" x="894.5" y="-324.47" font-family="Helvetica,sans-Serif" font-size="10.00">AbstractClient::sendCommand</text>
</a>
</g>
</g>
<!-- Node1&#45;&gt;Node16 -->
<g id="edge32_Node000001_Node000016" class="edge">
<title>Node1&#45;&gt;Node16</title>
<g id="a_edge32_Node000001_Node000016"><a xlink:title=" ">
<path fill="none" stroke="#63b8ff" d="M125.89,-286.47C138.47,-288.19 151.64,-289.8 164,-290.97 395.5,-313.01 669.69,-321.95 806.61,-325.25"/>
<polygon fill="#63b8ff" stroke="#63b8ff" points="811.82,-325.37 806.77,-327.5 809.32,-325.31 806.82,-325.25 806.82,-325.25 806.82,-325.25 809.32,-325.31 806.87,-323 811.82,-325.37 811.82,-325.37"/>
</a>
</g>
</g>
<!-- Node17 -->
<g id="Node000017" class="node">
<title>Node17</title>
<g id="a_Node000017"><a xlink:href="../../db/d53/classRemoteClient.html#ab7d09a5323416d70e7940e0c5bef6b86" target="_top" xlink:title=" ">
<polygon fill="white" stroke="#666666" points="370,-374.47 164,-374.47 164,-355.47 370,-355.47 370,-374.47"/>
<text text-anchor="middle" x="267" y="-362.47" font-family="Helvetica,sans-Serif" font-size="10.00">RemoteClient::doRequestPasswordSalt</text>
</a>
</g>
</g>
<!-- Node1&#45;&gt;Node17 -->
<g id="edge18_Node000001_Node000017" class="edge">
<title>Node1&#45;&gt;Node17</title>
<g id="a_edge18_Node000001_Node000017"><a xlink:title=" ">
<path fill="none" stroke="#63b8ff" d="M76.74,-286.5C94.54,-300.48 129.92,-326.46 164,-340.97 176.89,-346.46 191.27,-350.82 205.06,-354.23"/>
<polygon fill="#63b8ff" stroke="#63b8ff" points="210.11,-355.45 204.72,-356.47 207.68,-354.86 205.25,-354.28 205.25,-354.28 205.25,-354.28 207.68,-354.86 205.77,-352.09 210.11,-355.45 210.11,-355.45"/>
</a>
</g>
</g>
<!-- Node2&#45;&gt;Node3 -->
<g id="edge2_Node000002_Node000003" class="edge">
<title>Node2&#45;&gt;Node3</title>
<g id="a_edge2_Node000002_Node000003"><a xlink:title=" ">
<path fill="none" stroke="#63b8ff" d="M755.43,-223.66C759.62,-225.95 763.53,-228.69 767,-231.97 811.17,-273.77 770.39,-312.65 803,-363.97 820.87,-392.1 852.21,-415.38 872.92,-428.74"/>
<polygon fill="#63b8ff" stroke="#63b8ff" points="877.16,-431.44 871.74,-430.66 875.05,-430.1 872.94,-428.76 872.94,-428.76 872.94,-428.76 875.05,-430.1 874.15,-426.86 877.16,-431.44 877.16,-431.44"/>
</a>
</g>
</g>
<!-- Node2&#45;&gt;Node4 -->
<g id="edge3_Node000002_Node000004" class="edge">
<title>Node2&#45;&gt;Node4</title>
<g id="a_edge3_Node000002_Node000004"><a xlink:title=" ">
<path fill="none" stroke="#63b8ff" d="M695.85,-204.39C730.09,-178.85 823.98,-108.82 868.91,-75.31"/>
<polygon fill="#63b8ff" stroke="#63b8ff" points="873.1,-72.19 870.44,-76.98 871.1,-73.68 869.1,-75.17 869.1,-75.17 869.1,-75.17 871.1,-73.68 867.75,-73.37 873.1,-72.19 873.1,-72.19"/>
</a>
</g>
</g>
<!-- Node2&#45;&gt;Node6 -->
<g id="edge5_Node000002_Node000006" class="edge">
<title>Node2&#45;&gt;Node6</title>
<g id="a_edge5_Node000002_Node000006"><a xlink:title=" ">
<path fill="none" stroke="#63b8ff" d="M756.62,-223.69C760.41,-225.99 763.92,-228.72 767,-231.97 837.54,-306.46 731.91,-386.01 803,-459.97 805.01,-462.07 807.19,-463.95 809.51,-465.65"/>
<polygon fill="#63b8ff" stroke="#63b8ff" points="813.81,-468.51 808.4,-467.62 811.73,-467.13 809.65,-465.75 809.65,-465.75 809.65,-465.75 811.73,-467.13 810.89,-463.87 813.81,-468.51 813.81,-468.51"/>
</a>
</g>
</g>
<!-- Node2&#45;&gt;Node12 -->
<g id="edge17_Node000002_Node000012" class="edge">
<title>Node2&#45;&gt;Node12</title>
<g id="a_edge17_Node000002_Node000012"><a xlink:title=" ">
<path fill="none" stroke="#63b8ff" d="M764.09,-219.02C840.6,-223.78 954.27,-230.85 1028.01,-235.43"/>
<polygon fill="#63b8ff" stroke="#63b8ff" points="1033.25,-235.76 1028.12,-237.69 1030.76,-235.6 1028.26,-235.45 1028.26,-235.45 1028.26,-235.45 1030.76,-235.6 1028.4,-233.2 1033.25,-235.76 1033.25,-235.76"/>
</a>
</g>
</g>
<!-- Node2&#45;&gt;Node15 -->
<g id="edge14_Node000002_Node000015" class="edge">
<title>Node2&#45;&gt;Node15</title>
<g id="a_edge14_Node000002_Node000015"><a xlink:title=" ">
<path fill="none" stroke="#63b8ff" d="M735.85,-204.43C756.99,-200.62 781.93,-196.11 805.66,-191.83"/>
<polygon fill="#63b8ff" stroke="#63b8ff" points="810.7,-190.92 806.18,-194.02 808.24,-191.36 805.78,-191.81 805.78,-191.81 805.78,-191.81 808.24,-191.36 805.38,-189.59 810.7,-190.92 810.7,-190.92"/>
</a>
</g>
</g>
<!-- Node2&#45;&gt;Node16 -->
<g id="edge15_Node000002_Node000016" class="edge">
<title>Node2&#45;&gt;Node16</title>
<g id="a_edge15_Node000002_Node000016"><a xlink:title=" ">
<path fill="none" stroke="#63b8ff" d="M743.23,-223.55C751.4,-225.8 759.54,-228.57 767,-231.97 813.11,-252.99 858.47,-293.06 880.2,-313.8"/>
<polygon fill="#63b8ff" stroke="#63b8ff" points="883.98,-317.44 878.82,-315.59 882.18,-315.71 880.38,-313.97 880.38,-313.97 880.38,-313.97 882.18,-315.71 881.94,-312.35 883.98,-317.44 883.98,-317.44"/>
</a>
</g>
</g>
<!-- Node5 -->
<g id="Node000005" class="node">
<title>Node5</title>
<g id="a_Node000005"><a xlink:href="../../db/d53/classRemoteClient.html#aeffeb82f1f913d5141d9520cabf445c6" target="_top" xlink:title=" ">
<polygon fill="white" stroke="#666666" points="1182,-66.47 1022,-66.47 1022,-47.47 1182,-47.47 1182,-66.47"/>
<text text-anchor="middle" x="1102" y="-54.47" font-family="Helvetica,sans-Serif" font-size="10.00">RemoteClient::getSrvClientID</text>
</a>
</g>
</g>
<!-- Node4&#45;&gt;Node5 -->
<g id="edge4_Node000004_Node000005" class="edge">
<title>Node4&#45;&gt;Node5</title>
<g id="a_edge4_Node000004_Node000005"><a xlink:title=" ">
<path fill="none" stroke="#63b8ff" d="M986.23,-56.97C996.31,-56.97 1006.53,-56.97 1016.52,-56.97"/>
<polygon fill="#63b8ff" stroke="#63b8ff" points="1021.72,-56.97 1016.72,-59.22 1019.22,-56.97 1016.72,-56.97 1016.72,-56.97 1016.72,-56.97 1019.22,-56.97 1016.72,-54.72 1021.72,-56.97 1021.72,-56.97"/>
</a>
</g>
</g>
<!-- Node7 -->
<g id="Node000007" class="node">
<title>Node7</title>
<g id="a_Node000007"><a xlink:href="../../dc/d86/classAbstractClient.html#a847c2cfbfc9574b2bdfa6cd3cb60cfb5" target="_top" xlink:title=" ">
<polygon fill="white" stroke="#666666" points="1171.5,-540.97 1032.5,-540.97 1032.5,-510.97 1171.5,-510.97 1171.5,-540.97"/>
<text text-anchor="start" x="1040.5" y="-528.97" font-family="Helvetica,sans-Serif" font-size="10.00">AbstractClient::buddyList</text>
<text text-anchor="middle" x="1102" y="-517.97" font-family="Helvetica,sans-Serif" font-size="10.00">Received</text>
</a>
</g>
</g>
<!-- Node6&#45;&gt;Node7 -->
<g id="edge6_Node000006_Node000007" class="edge">
<title>Node6&#45;&gt;Node7</title>
<g id="a_edge6_Node000006_Node000007"><a xlink:title=" ">
<path fill="none" stroke="#63b8ff" d="M936.59,-487.57C963.72,-493.91 999.95,-502.37 1031.49,-509.74"/>
<polygon fill="#63b8ff" stroke="#63b8ff" points="1036.51,-510.91 1031.13,-511.96 1034.08,-510.34 1031.64,-509.77 1031.64,-509.77 1031.64,-509.77 1034.08,-510.34 1032.15,-507.58 1036.51,-510.91 1036.51,-510.91"/>
</a>
</g>
</g>
<!-- Node8 -->
<g id="Node000008" class="node">
<title>Node8</title>
<g id="a_Node000008"><a xlink:href="../../dc/d86/classAbstractClient.html#a43a5112e2c9719bbb52e38e7c5e1dc27" target="_top" xlink:title=" ">
<polygon fill="white" stroke="#666666" points="1172,-492.97 1032,-492.97 1032,-462.97 1172,-462.97 1172,-492.97"/>
<text text-anchor="start" x="1040" y="-480.97" font-family="Helvetica,sans-Serif" font-size="10.00">AbstractClient::ignoreList</text>
<text text-anchor="middle" x="1102" y="-469.97" font-family="Helvetica,sans-Serif" font-size="10.00">Received</text>
</a>
</g>
</g>
<!-- Node6&#45;&gt;Node8 -->
<g id="edge7_Node000006_Node000008" class="edge">
<title>Node6&#45;&gt;Node8</title>
<g id="a_edge7_Node000006_Node000008"><a xlink:title=" ">
<path fill="none" stroke="#63b8ff" d="M975.25,-477.97C992.22,-477.97 1010.07,-477.97 1026.83,-477.97"/>
<polygon fill="#63b8ff" stroke="#63b8ff" points="1031.99,-477.97 1026.99,-480.22 1029.49,-477.97 1026.99,-477.97 1026.99,-477.97 1026.99,-477.97 1029.49,-477.97 1026.99,-475.72 1031.99,-477.97 1031.99,-477.97"/>
</a>
</g>
</g>
<!-- Node9 -->
<g id="Node000009" class="node">
<title>Node9</title>
<g id="a_Node000009"><a xlink:href="../../db/d53/classRemoteClient.html#a81b294c8ac9577a2162394433653f53c" target="_top" xlink:title=" ">
<polygon fill="white" stroke="#666666" points="1170.5,-327.47 1033.5,-327.47 1033.5,-308.47 1170.5,-308.47 1170.5,-327.47"/>
<text text-anchor="middle" x="1102" y="-315.47" font-family="Helvetica,sans-Serif" font-size="10.00">RemoteClient::loginError</text>
</a>
</g>
</g>
<!-- Node6&#45;&gt;Node9 -->
<g id="edge8_Node000006_Node000009" class="edge">
<title>Node6&#45;&gt;Node9</title>
<g id="a_edge8_Node000006_Node000009"><a xlink:title=" ">
<path fill="none" stroke="#63b8ff" d="M973.21,-468.46C977.81,-466.13 982.13,-463.33 986,-459.97 1022.33,-428.49 990.28,-394.09 1022,-357.97 1033.3,-345.11 1049.73,-335.86 1064.68,-329.52"/>
<polygon fill="#63b8ff" stroke="#63b8ff" points="1069.68,-327.49 1065.9,-331.46 1067.37,-328.43 1065.05,-329.37 1065.05,-329.37 1065.05,-329.37 1067.37,-328.43 1064.2,-327.29 1069.68,-327.49 1069.68,-327.49"/>
</a>
</g>
</g>
<!-- Node10 -->
<g id="Node000010" class="node">
<title>Node10</title>
<g id="a_Node000010"><a xlink:href="../../db/d53/classRemoteClient.html#a3db224a468abc96541e95112bd0b68e0" target="_top" xlink:title=" ">
<polygon fill="white" stroke="#666666" points="1175.5,-444.97 1028.5,-444.97 1028.5,-414.97 1175.5,-414.97 1175.5,-444.97"/>
<text text-anchor="start" x="1036.5" y="-432.97" font-family="Helvetica,sans-Serif" font-size="10.00">RemoteClient::newMissing</text>
<text text-anchor="middle" x="1102" y="-421.97" font-family="Helvetica,sans-Serif" font-size="10.00">FeatureFound</text>
</a>
</g>
</g>
<!-- Node6&#45;&gt;Node10 -->
<g id="edge9_Node000006_Node000010" class="edge">
<title>Node6&#45;&gt;Node10</title>
<g id="a_edge9_Node000006_Node000010"><a xlink:title=" ">
<path fill="none" stroke="#63b8ff" d="M946.35,-468.41C959.31,-465.82 973.2,-462.91 986,-459.97 1004.01,-455.84 1023.5,-450.92 1041.23,-446.28"/>
<polygon fill="#63b8ff" stroke="#63b8ff" points="1046.18,-444.98 1041.91,-448.42 1043.76,-445.61 1041.34,-446.25 1041.34,-446.25 1041.34,-446.25 1043.76,-445.61 1040.77,-444.07 1046.18,-444.98 1046.18,-444.98"/>
</a>
</g>
</g>
<!-- Node11 -->
<g id="Node000011" class="node">
<title>Node11</title>
<g id="a_Node000011"><a xlink:href="../../db/d53/classRemoteClient.html#a8bdb5ca024d9270ab33e513c2f6f913b" target="_top" xlink:title=" ">
<polygon fill="white" stroke="#666666" points="1172,-396.97 1032,-396.97 1032,-366.97 1172,-366.97 1172,-396.97"/>
<text text-anchor="start" x="1040" y="-384.97" font-family="Helvetica,sans-Serif" font-size="10.00">RemoteClient::notifyUser</text>
<text text-anchor="middle" x="1102" y="-373.97" font-family="Helvetica,sans-Serif" font-size="10.00">AboutUpdate</text>
</a>
</g>
</g>
<!-- Node6&#45;&gt;Node11 -->
<g id="edge10_Node000006_Node000011" class="edge">
<title>Node6&#45;&gt;Node11</title>
<g id="a_edge10_Node000006_Node000011"><a xlink:title=" ">
<path fill="none" stroke="#63b8ff" d="M969.6,-468.41C975.39,-466.13 980.94,-463.36 986,-459.97 1009.97,-443.94 998.84,-423.17 1022,-405.97 1025.16,-403.62 1028.56,-401.5 1032.1,-399.58"/>
<polygon fill="#63b8ff" stroke="#63b8ff" points="1037.01,-397.1 1033.57,-401.36 1034.78,-398.23 1032.55,-399.36 1032.55,-399.36 1032.55,-399.36 1034.78,-398.23 1031.54,-397.35 1037.01,-397.1 1037.01,-397.1"/>
</a>
</g>
</g>
<!-- Node6&#45;&gt;Node12 -->
<g id="edge11_Node000006_Node000012" class="edge">
<title>Node6&#45;&gt;Node12</title>
<g id="a_edge11_Node000006_Node000012"><a xlink:title=" ">
<path fill="none" stroke="#63b8ff" d="M974.93,-468.27C978.94,-465.96 982.67,-463.22 986,-459.97 1038.18,-409.08 982.59,-361.29 1022,-299.97 1035.56,-278.87 1059.27,-262.36 1077.18,-252.04"/>
<polygon fill="#63b8ff" stroke="#63b8ff" points="1081.6,-249.56 1078.35,-253.97 1079.42,-250.78 1077.24,-252.01 1077.24,-252.01 1077.24,-252.01 1079.42,-250.78 1076.14,-250.05 1081.6,-249.56 1081.6,-249.56"/>
</a>
</g>
</g>
<!-- Node14 -->
<g id="Node000014" class="node">
<title>Node14</title>
<g id="a_Node000014"><a xlink:href="../../dc/d86/classAbstractClient.html#aac217e9beadf502fe88401f3edd9ae49" target="_top" xlink:title=" ">
<polygon fill="white" stroke="#666666" points="1167.5,-588.97 1036.5,-588.97 1036.5,-558.97 1167.5,-558.97 1167.5,-588.97"/>
<text text-anchor="start" x="1044.5" y="-576.97" font-family="Helvetica,sans-Serif" font-size="10.00">AbstractClient::userInfo</text>
<text text-anchor="middle" x="1102" y="-565.97" font-family="Helvetica,sans-Serif" font-size="10.00">Changed</text>
</a>
</g>
</g>
<!-- Node6&#45;&gt;Node14 -->
<g id="edge13_Node000006_Node000014" class="edge">
<title>Node6&#45;&gt;Node14</title>
<g id="a_edge13_Node000006_Node000014"><a xlink:title=" ">
<path fill="none" stroke="#63b8ff" d="M909.75,-487.5C932.62,-502.44 979.29,-531.6 1022,-549.97 1027.98,-552.55 1034.33,-554.96 1040.72,-557.19"/>
<polygon fill="#63b8ff" stroke="#63b8ff" points="1045.61,-558.86 1040.15,-559.38 1043.25,-558.06 1040.88,-557.25 1040.88,-557.25 1040.88,-557.25 1043.25,-558.06 1041.61,-555.12 1045.61,-558.86 1045.61,-558.86"/>
</a>
</g>
</g>
<!-- Node13 -->
<g id="Node000013" class="node">
<title>Node13</title>
<g id="a_Node000013"><a xlink:href="../../dc/d86/classAbstractClient.html#aa8ffda0d0b2f5f59041c7d2562c6ee47" target="_top" xlink:title=" ">
<polygon fill="white" stroke="#666666" points="1382,-249.47 1218,-249.47 1218,-230.47 1382,-230.47 1382,-249.47"/>
<text text-anchor="middle" x="1300" y="-237.47" font-family="Helvetica,sans-Serif" font-size="10.00">AbstractClient::statusChanged</text>
</a>
</g>
</g>
<!-- Node12&#45;&gt;Node13 -->
<g id="edge12_Node000012_Node000013" class="edge">
<title>Node12&#45;&gt;Node13</title>
<g id="a_edge12_Node000012_Node000013"><a xlink:title=" ">
<path fill="none" stroke="#63b8ff" d="M1170.73,-239.97C1184.23,-239.97 1198.58,-239.97 1212.61,-239.97"/>
<polygon fill="#63b8ff" stroke="#63b8ff" points="1217.76,-239.97 1212.76,-242.22 1215.26,-239.97 1212.76,-239.97 1212.76,-239.97 1212.76,-239.97 1215.26,-239.97 1212.76,-237.72 1217.76,-239.97 1217.76,-239.97"/>
</a>
</g>
</g>
<!-- Node16&#45;&gt;Node16 -->
<g id="edge16_Node000016_Node000016" class="edge">
<title>Node16&#45;&gt;Node16</title>
<g id="a_edge16_Node000016_Node000016"><a xlink:title=" ">
<path fill="none" stroke="#63b8ff" d="M862.75,-336.56C847.3,-345.21 857.89,-354.47 894.5,-354.47 927.11,-354.47 939.07,-347.12 930.38,-339.4"/>
<polygon fill="#63b8ff" stroke="#63b8ff" points="926.25,-336.56 931.64,-337.54 928.31,-337.97 930.37,-339.39 930.37,-339.39 930.37,-339.39 928.31,-337.97 929.09,-341.25 926.25,-336.56 926.25,-336.56"/>
</a>
</g>
</g>
<!-- Node17&#45;&gt;Node3 -->
<g id="edge19_Node000017_Node000003" class="edge">
<title>Node17&#45;&gt;Node3</title>
<g id="a_edge19_Node000017_Node000003"><a xlink:title=" ">
<path fill="none" stroke="#63b8ff" d="M287.53,-374.56C313.75,-386.91 362.13,-407.86 406,-416.97 547.42,-446.34 716.64,-447.24 813.94,-444.56"/>
<polygon fill="#63b8ff" stroke="#63b8ff" points="819.09,-444.42 814.16,-446.81 816.59,-444.49 814.1,-444.56 814.1,-444.56 814.1,-444.56 816.59,-444.49 814.03,-442.31 819.09,-444.42 819.09,-444.42"/>
</a>
</g>
</g>
<!-- Node17&#45;&gt;Node12 -->
<g id="edge27_Node000017_Node000012" class="edge">
<title>Node17&#45;&gt;Node12</title>
<g id="a_edge27_Node000017_Node000012"><a xlink:title=" ">
<path fill="none" stroke="#63b8ff" d="M344.93,-374.5C507.51,-393.11 879.86,-427.23 986,-363.97 1014.03,-347.27 1000.56,-324.58 1022,-299.97 1038.86,-280.63 1062.85,-263.48 1079.97,-252.52"/>
<polygon fill="#63b8ff" stroke="#63b8ff" points="1084.6,-249.6 1081.57,-254.17 1082.49,-250.93 1080.37,-252.26 1080.37,-252.26 1080.37,-252.26 1082.49,-250.93 1079.17,-250.36 1084.6,-249.6 1084.6,-249.6"/>
</a>
</g>
</g>
<!-- Node17&#45;&gt;Node15 -->
<g id="edge25_Node000017_Node000015" class="edge">
<title>Node17&#45;&gt;Node15</title>
<g id="a_edge25_Node000017_Node000015"><a xlink:title=" ">
<path fill="none" stroke="#63b8ff" d="M277.1,-355.4C297.93,-334 351.5,-281.92 406,-252.97 533.25,-185.38 703.68,-173.36 805.65,-173.07"/>
<polygon fill="#63b8ff" stroke="#63b8ff" points="810.75,-173.07 805.75,-175.32 808.25,-173.07 805.75,-173.07 805.75,-173.07 805.75,-173.07 808.25,-173.07 805.75,-170.82 810.75,-173.07 810.75,-173.07"/>
</a>
</g>
</g>
<!-- Node17&#45;&gt;Node16 -->
<g id="edge26_Node000017_Node000016" class="edge">
<title>Node17&#45;&gt;Node16</title>
<g id="a_edge26_Node000017_Node000016"><a xlink:title=" ">
<path fill="none" stroke="#63b8ff" d="M370.38,-361.91C471.33,-358.45 629.96,-351.84 767,-340.97 780.63,-339.89 795.07,-338.51 809.12,-337.05"/>
<polygon fill="#63b8ff" stroke="#63b8ff" points="814.28,-336.5 809.55,-339.27 811.8,-336.77 809.31,-337.03 809.31,-337.03 809.31,-337.03 811.8,-336.77 809.07,-334.79 814.28,-336.5 814.28,-336.5"/>
</a>
</g>
</g>
<!-- Node18 -->
<g id="Node000018" class="node">
<title>Node18</title>
<g id="a_Node000018"><a xlink:href="../../db/d53/classRemoteClient.html#a8203596b00d006b733b11c17e84b2e73" target="_top" xlink:title=" ">
<polygon fill="white" stroke="#666666" points="561,-291.97 406,-291.97 406,-261.97 561,-261.97 561,-291.97"/>
<text text-anchor="start" x="414" y="-279.97" font-family="Helvetica,sans-Serif" font-size="10.00">RemoteClient::passwordSalt</text>
<text text-anchor="middle" x="483.5" y="-268.97" font-family="Helvetica,sans-Serif" font-size="10.00">Response</text>
</a>
</g>
</g>
<!-- Node17&#45;&gt;Node18 -->
<g id="edge20_Node000017_Node000018" class="edge">
<title>Node17&#45;&gt;Node18</title>
<g id="a_edge20_Node000017_Node000018"><a xlink:title=" ">
<path fill="none" stroke="#63b8ff" d="M291.36,-355.39C327.19,-340.69 396.23,-312.37 440.79,-294.09"/>
<polygon fill="#63b8ff" stroke="#63b8ff" points="445.56,-292.13 441.79,-296.11 443.25,-293.08 440.93,-294.03 440.93,-294.03 440.93,-294.03 443.25,-293.08 440.08,-291.94 445.56,-292.13 445.56,-292.13"/>
</a>
</g>
</g>
<!-- Node18&#45;&gt;Node1 -->
<g id="edge23_Node000018_Node000001" class="edge">
<title>Node18&#45;&gt;Node1</title>
<g id="a_edge23_Node000018_Node000001"><a xlink:title=" ">
<path fill="none" stroke="#63b8ff" d="M405.7,-276.97C327.86,-276.97 208.53,-276.97 133.72,-276.97"/>
<polygon fill="#63b8ff" stroke="#63b8ff" points="128.41,-276.97 133.41,-274.72 130.91,-276.97 133.41,-276.97 133.41,-276.97 133.41,-276.97 130.91,-276.97 133.41,-279.22 128.41,-276.97 128.41,-276.97"/>
</a>
</g>
</g>
<!-- Node18&#45;&gt;Node2 -->
<g id="edge22_Node000018_Node000002" class="edge">
<title>Node18&#45;&gt;Node2</title>
<g id="a_edge22_Node000018_Node000002"><a xlink:title=" ">
<path fill="none" stroke="#63b8ff" d="M517.93,-261.87C540.04,-252.31 569.84,-240.25 597,-231.97 605.79,-229.3 615.21,-226.86 624.45,-224.72"/>
<polygon fill="#63b8ff" stroke="#63b8ff" points="629.56,-223.55 625.19,-226.86 627.12,-224.11 624.69,-224.66 624.69,-224.66 624.69,-224.66 627.12,-224.11 624.19,-222.47 629.56,-223.55 629.56,-223.55"/>
</a>
</g>
</g>
<!-- Node18&#45;&gt;Node9 -->
<g id="edge24_Node000018_Node000009" class="edge">
<title>Node18&#45;&gt;Node9</title>
<g id="a_edge24_Node000018_Node000009"><a xlink:title=" ">
<path fill="none" stroke="#63b8ff" d="M561.42,-281.54C659.86,-287.46 835.67,-298.29 986,-308.97 999.61,-309.94 1014.12,-311.03 1028.09,-312.11"/>
<polygon fill="#63b8ff" stroke="#63b8ff" points="1033.21,-312.5 1028.05,-314.36 1030.72,-312.31 1028.22,-312.12 1028.22,-312.12 1028.22,-312.12 1030.72,-312.31 1028.4,-309.88 1033.21,-312.5 1033.21,-312.5"/>
</a>
</g>
</g>
<!-- Node19 -->
<g id="Node000019" class="node">
<title>Node19</title>
<g id="a_Node000019"><a xlink:href="../../d0/d46/classPasswordHasher.html#a631434f9f28d93932956314f52944da9" target="_top" xlink:title=" ">
<polygon fill="white" stroke="#666666" points="767,-260.47 597,-260.47 597,-241.47 767,-241.47 767,-260.47"/>
<text text-anchor="middle" x="682" y="-248.47" font-family="Helvetica,sans-Serif" font-size="10.00">PasswordHasher::computeHash</text>
</a>
</g>
</g>
<!-- Node18&#45;&gt;Node19 -->
<g id="edge21_Node000018_Node000019" class="edge">
<title>Node18&#45;&gt;Node19</title>
<g id="a_edge21_Node000018_Node000019"><a xlink:title=" ">
<path fill="none" stroke="#63b8ff" d="M561.03,-266.85C575.14,-264.98 589.88,-263.03 604,-261.16"/>
<polygon fill="#63b8ff" stroke="#63b8ff" points="609.17,-260.48 604.51,-263.36 606.7,-260.8 604.22,-261.13 604.22,-261.13 604.22,-261.13 606.7,-260.8 603.92,-258.9 609.17,-260.48 609.17,-260.48"/>
</a>
</g>
</g>
</g>
</svg>
