<?xml version="1.0" encoding="UTF-8" standalone="no"?>
<!DOCTYPE svg PUBLIC "-//W3C//DTD SVG 1.1//EN"
 "http://www.w3.org/Graphics/SVG/1.1/DTD/svg11.dtd">
<!-- Generated by graphviz version 2.43.0 (0)
 -->
<!-- Title: RemoteClient::newMissingFeatureFound Pages: 1 -->
<svg width="370pt" height="76pt"
 viewBox="0.00 0.00 370.00 75.50" xmlns="http://www.w3.org/2000/svg" xmlns:xlink="http://www.w3.org/1999/xlink">
<g id="graph0" class="graph" transform="scale(1 1) rotate(0) translate(4 71.5)">
<title>RemoteClient::newMissingFeatureFound</title>
<!-- Node1 -->
<g id="Node000001" class="node">
<title>Node1</title>
<g id="a_Node000001"><a xlink:title=" ">
<polygon fill="#999999" stroke="#666666" points="147,-45.5 0,-45.5 0,-15.5 147,-15.5 147,-45.5"/>
<text text-anchor="start" x="8" y="-33.5" font-family="Helvetica,sans-Serif" font-size="10.00">RemoteClient::newMissing</text>
<text text-anchor="middle" x="73.5" y="-22.5" font-family="Helvetica,sans-Serif" font-size="10.00">FeatureFound</text>
</a>
</g>
</g>
<!-- Node2 -->
<g id="Node000002" class="node">
<title>Node2</title>
<g id="a_Node000002"><a xlink:href="../../d5/d88/classSettingsCache.html#a192239317756a780f6ac15f65891ee79" target="_top" xlink:title=" ">
<polygon fill="white" stroke="#666666" points="362,-67.5 183,-67.5 183,-37.5 362,-37.5 362,-67.5"/>
<text text-anchor="start" x="191" y="-55.5" font-family="Helvetica,sans-Serif" font-size="10.00">SettingsCache::getKnownMissing</text>
<text text-anchor="middle" x="272.5" y="-44.5" font-family="Helvetica,sans-Serif" font-size="10.00">Features</text>
</a>
</g>
</g>
<!-- Node1&#45;&gt;Node2 -->
<g id="edge1_Node000001_Node000002" class="edge">
<title>Node1&#45;&gt;Node2</title>
<g id="a_edge1_Node000001_Node000002"><a xlink:title=" ">
<path fill="none" stroke="#63b8ff" d="M147.02,-38.6C157.01,-39.71 167.39,-40.87 177.7,-42.02"/>
<polygon fill="#63b8ff" stroke="#63b8ff" points="182.75,-42.59 177.53,-44.27 180.27,-42.31 177.78,-42.03 177.78,-42.03 177.78,-42.03 180.27,-42.31 178.03,-39.8 182.75,-42.59 182.75,-42.59"/>
</a>
</g>
</g>
<!-- Node3 -->
<g id="Node000003" class="node">
<title>Node3</title>
<g id="a_Node000003"><a xlink:href="../../d5/d88/classSettingsCache.html#adfa7f9f975919981b992db1fca9e4957" target="_top" xlink:title=" ">
<polygon fill="white" stroke="#666666" points="339.5,-19 205.5,-19 205.5,0 339.5,0 339.5,-19"/>
<text text-anchor="middle" x="272.5" y="-7" font-family="Helvetica,sans-Serif" font-size="10.00">SettingsCache::instance</text>
</a>
</g>
</g>
<!-- Node1&#45;&gt;Node3 -->
<g id="edge2_Node000001_Node000003" class="edge">
<title>Node1&#45;&gt;Node3</title>
<g id="a_edge2_Node000001_Node000003"><a xlink:title=" ">
<path fill="none" stroke="#63b8ff" d="M147.02,-22.77C164.32,-20.93 182.77,-18.96 200.02,-17.12"/>
<polygon fill="#63b8ff" stroke="#63b8ff" points="205.33,-16.55 200.6,-19.32 202.85,-16.82 200.36,-17.08 200.36,-17.08 200.36,-17.08 202.85,-16.82 200.12,-14.85 205.33,-16.55 205.33,-16.55"/>
</a>
</g>
</g>
</g>
</svg>
