<?xml version="1.0" encoding="UTF-8" standalone="no"?>
<!DOCTYPE svg PUBLIC "-//W3C//DTD SVG 1.1//EN"
 "http://www.w3.org/Graphics/SVG/1.1/DTD/svg11.dtd">
<!-- Generated by graphviz version 2.43.0 (0)
 -->
<!-- Title: cockatrice/src/game/zones/card_zone_logic.h Pages: 1 -->
<svg width="372pt" height="148pt"
 viewBox="0.00 0.00 372.00 148.00" xmlns="http://www.w3.org/2000/svg" xmlns:xlink="http://www.w3.org/1999/xlink">
<g id="graph0" class="graph" transform="scale(1 1) rotate(0) translate(4 144)">
<title>cockatrice/src/game/zones/card_zone_logic.h</title>
<!-- Node1 -->
<g id="Node000001" class="node">
<title>Node1</title>
<g id="a_Node000001"><a xlink:title=" ">
<polygon fill="#999999" stroke="#666666" points="308,-140 170,-140 170,-110 308,-110 308,-140"/>
<text text-anchor="start" x="178" y="-128" font-family="Helvetica,sans-Serif" font-size="10.00">cockatrice/src/game</text>
<text text-anchor="middle" x="239" y="-117" font-family="Helvetica,sans-Serif" font-size="10.00">/zones/card_zone_logic.h</text>
</a>
</g>
</g>
<!-- Node2 -->
<g id="Node000002" class="node">
<title>Node2</title>
<g id="a_Node000002"><a xlink:href="../../d6/d94/translation_8h.html" target="_top" xlink:title=" ">
<polygon fill="white" stroke="#666666" points="126,-74 0,-74 0,-55 126,-55 126,-74"/>
<text text-anchor="middle" x="63" y="-62" font-family="Helvetica,sans-Serif" font-size="10.00">../../client/translation.h</text>
</a>
</g>
</g>
<!-- Node1&#45;&gt;Node2 -->
<g id="edge1_Node000001_Node000002" class="edge">
<title>Node1&#45;&gt;Node2</title>
<g id="a_edge1_Node000001_Node000002"><a xlink:title=" ">
<path fill="none" stroke="#63b8ff" d="M196.84,-109.99C165.02,-99.41 122.11,-85.15 93.54,-75.65"/>
<polygon fill="#63b8ff" stroke="#63b8ff" points="88.73,-74.05 94.19,-73.5 91.11,-74.84 93.48,-75.63 93.48,-75.63 93.48,-75.63 91.11,-74.84 92.77,-77.77 88.73,-74.05 88.73,-74.05"/>
</a>
</g>
</g>
<!-- Node3 -->
<g id="Node000003" class="node">
<title>Node3</title>
<g id="a_Node000003"><a xlink:href="../../df/d73/card__list_8h.html" target="_top" xlink:title=" ">
<polygon fill="white" stroke="#666666" points="251.5,-74 144.5,-74 144.5,-55 251.5,-55 251.5,-74"/>
<text text-anchor="middle" x="198" y="-62" font-family="Helvetica,sans-Serif" font-size="10.00">../board/card_list.h</text>
</a>
</g>
</g>
<!-- Node1&#45;&gt;Node3 -->
<g id="edge2_Node000001_Node000003" class="edge">
<title>Node1&#45;&gt;Node3</title>
<g id="a_edge2_Node000001_Node000003"><a xlink:title=" ">
<path fill="none" stroke="#63b8ff" d="M229.08,-109.84C222.39,-100.31 213.65,-87.83 207.14,-78.54"/>
<polygon fill="#63b8ff" stroke="#63b8ff" points="204.14,-74.27 208.86,-77.07 205.58,-76.31 207.01,-78.36 207.01,-78.36 207.01,-78.36 205.58,-76.31 205.17,-79.65 204.14,-74.27 204.14,-74.27"/>
</a>
</g>
</g>
<!-- Node5 -->
<g id="Node000005" class="node">
<title>Node5</title>
<g id="a_Node000005"><a xlink:title=" ">
<polygon fill="#e0e0e0" stroke="#999999" points="333.5,-19 226.5,-19 226.5,0 333.5,0 333.5,-19"/>
<text text-anchor="middle" x="280" y="-7" font-family="Helvetica,sans-Serif" font-size="10.00">QLoggingCategory</text>
</a>
</g>
</g>
<!-- Node1&#45;&gt;Node5 -->
<g id="edge5_Node000001_Node000005" class="edge">
<title>Node1&#45;&gt;Node5</title>
<g id="a_edge5_Node000001_Node000005"><a xlink:title=" ">
<path fill="none" stroke="#63b8ff" d="M245.42,-109.7C249.78,-99.78 255.53,-86.2 260,-74 266.2,-57.1 272.26,-37.26 276.05,-24.31"/>
<polygon fill="#63b8ff" stroke="#63b8ff" points="277.53,-19.21 278.3,-24.64 276.84,-21.61 276.14,-24.01 276.14,-24.01 276.14,-24.01 276.84,-21.61 273.98,-23.39 277.53,-19.21 277.53,-19.21"/>
</a>
</g>
</g>
<!-- Node6 -->
<g id="Node000006" class="node">
<title>Node6</title>
<g id="a_Node000006"><a xlink:title=" ">
<polygon fill="#e0e0e0" stroke="#999999" points="364,-74 308,-74 308,-55 364,-55 364,-74"/>
<text text-anchor="middle" x="336" y="-62" font-family="Helvetica,sans-Serif" font-size="10.00">QObject</text>
</a>
</g>
</g>
<!-- Node1&#45;&gt;Node6 -->
<g id="edge6_Node000001_Node000006" class="edge">
<title>Node1&#45;&gt;Node6</title>
<g id="a_edge6_Node000001_Node000006"><a xlink:title=" ">
<path fill="none" stroke="#63b8ff" d="M262.48,-109.84C279.25,-99.73 301.51,-86.3 317.13,-76.88"/>
<polygon fill="#63b8ff" stroke="#63b8ff" points="321.75,-74.09 318.63,-78.6 319.61,-75.39 317.47,-76.68 317.47,-76.68 317.47,-76.68 319.61,-75.39 316.31,-74.75 321.75,-74.09 321.75,-74.09"/>
</a>
</g>
</g>
<!-- Node4 -->
<g id="Node000004" class="node">
<title>Node4</title>
<g id="a_Node000004"><a xlink:title=" ">
<polygon fill="#e0e0e0" stroke="#999999" points="208.5,-19 167.5,-19 167.5,0 208.5,0 208.5,-19"/>
<text text-anchor="middle" x="188" y="-7" font-family="Helvetica,sans-Serif" font-size="10.00">QList</text>
</a>
</g>
</g>
<!-- Node3&#45;&gt;Node4 -->
<g id="edge3_Node000003_Node000004" class="edge">
<title>Node3&#45;&gt;Node4</title>
<g id="a_edge3_Node000003_Node000004"><a xlink:title=" ">
<path fill="none" stroke="#63b8ff" d="M196.35,-54.75C194.78,-46.41 192.39,-33.74 190.56,-24.09"/>
<polygon fill="#63b8ff" stroke="#63b8ff" points="189.62,-19.09 192.76,-23.59 190.08,-21.55 190.55,-24 190.55,-24 190.55,-24 190.08,-21.55 188.34,-24.42 189.62,-19.09 189.62,-19.09"/>
</a>
</g>
</g>
<!-- Node3&#45;&gt;Node5 -->
<g id="edge4_Node000003_Node000005" class="edge">
<title>Node3&#45;&gt;Node5</title>
<g id="a_edge4_Node000003_Node000005"><a xlink:title=" ">
<path fill="none" stroke="#63b8ff" d="M211.17,-54.98C224.96,-46.07 246.69,-32.03 262.04,-22.11"/>
<polygon fill="#63b8ff" stroke="#63b8ff" points="266.59,-19.17 263.61,-23.77 264.49,-20.53 262.39,-21.88 262.39,-21.88 262.39,-21.88 264.49,-20.53 261.16,-19.99 266.59,-19.17 266.59,-19.17"/>
</a>
</g>
</g>
</g>
</svg>
