<?xml version="1.0" encoding="UTF-8" standalone="no"?>
<!DOCTYPE svg PUBLIC "-//W3C//DTD SVG 1.1//EN"
 "http://www.w3.org/Graphics/SVG/1.1/DTD/svg11.dtd">
<!-- Generated by graphviz version 2.43.0 (0)
 -->
<!-- Title: GameEventHandler::sendGameCommand Pages: 1 -->
<svg width="1695pt" height="413pt"
 viewBox="0.00 0.00 1695.00 413.13" xmlns="http://www.w3.org/2000/svg" xmlns:xlink="http://www.w3.org/1999/xlink">
<g id="graph0" class="graph" transform="scale(1 1) rotate(0) translate(4 409.13)">
<title>GameEventHandler::sendGameCommand</title>
<!-- Node1 -->
<g id="Node000001" class="node">
<title>Node1</title>
<g id="a_Node000001"><a xlink:title=" ">
<polygon fill="#999999" stroke="#666666" points="1687,-222 1517,-222 1517,-192 1687,-192 1687,-222"/>
<text text-anchor="start" x="1525" y="-210" font-family="Helvetica,sans-Serif" font-size="10.00">GameEventHandler::sendGame</text>
<text text-anchor="middle" x="1602" y="-199" font-family="Helvetica,sans-Serif" font-size="10.00">Command</text>
</a>
</g>
</g>
<!-- Node2 -->
<g id="Node000002" class="node">
<title>Node2</title>
<g id="a_Node000002"><a xlink:href="../../de/d08/classTabGame.html#a0ba75f214cedabb749d69e1e5af7c79f" target="_top" xlink:title=" ">
<polygon fill="white" stroke="#666666" points="1281,-394.5 1104,-394.5 1104,-375.5 1281,-375.5 1281,-394.5"/>
<text text-anchor="middle" x="1192.5" y="-382.5" font-family="Helvetica,sans-Serif" font-size="10.00">TabGame::createPlayAreaWidget</text>
</a>
</g>
</g>
<!-- Node1&#45;&gt;Node2 -->
<g id="edge1_Node000001_Node000002" class="edge">
<title>Node1&#45;&gt;Node2</title>
<g id="a_edge1_Node000001_Node000002"><a xlink:title=" ">
<path fill="none" stroke="#63b8ff" d="M1593.7,-226.94C1578.96,-263.93 1541.75,-342.39 1481,-375 1402.89,-416.93 1294.88,-405.52 1235.99,-394.58"/>
<polygon fill="#63b8ff" stroke="#63b8ff" points="1595.55,-222.21 1595.82,-227.69 1594.64,-224.54 1593.73,-226.87 1593.73,-226.87 1593.73,-226.87 1594.64,-224.54 1591.63,-226.05 1595.55,-222.21 1595.55,-222.21"/>
</a>
</g>
</g>
<!-- Node15 -->
<g id="Node000015" class="node">
<title>Node15</title>
<g id="a_Node000015"><a xlink:href="../../d7/db2/classGameEventHandler.html#a3e7f5be4294ec643ab81d9f9f204a9d1" target="_top" xlink:title=" ">
<polygon fill="white" stroke="#666666" points="1475,-126 1323,-126 1323,-96 1475,-96 1475,-126"/>
<text text-anchor="start" x="1331" y="-114" font-family="Helvetica,sans-Serif" font-size="10.00">GameEventHandler::handle</text>
<text text-anchor="middle" x="1399" y="-103" font-family="Helvetica,sans-Serif" font-size="10.00">ActiveLocalPlayerConceded</text>
</a>
</g>
</g>
<!-- Node1&#45;&gt;Node15 -->
<g id="edge15_Node000001_Node000015" class="edge">
<title>Node1&#45;&gt;Node15</title>
<g id="a_edge15_Node000001_Node000015"><a xlink:title=" ">
<path fill="none" stroke="#63b8ff" d="M1575.09,-188.82C1551.46,-172.89 1515.13,-150.01 1481,-135 1473.48,-131.69 1465.38,-128.69 1457.3,-126"/>
<polygon fill="#63b8ff" stroke="#63b8ff" points="1579.35,-191.71 1573.95,-190.76 1577.28,-190.31 1575.21,-188.9 1575.21,-188.9 1575.21,-188.9 1577.28,-190.31 1576.47,-187.04 1579.35,-191.71 1579.35,-191.71"/>
</a>
</g>
</g>
<!-- Node17 -->
<g id="Node000017" class="node">
<title>Node17</title>
<g id="a_Node000017"><a xlink:href="../../d7/db2/classGameEventHandler.html#a90717b933b41fd7acd66f713f097d73d" target="_top" xlink:title=" ">
<polygon fill="white" stroke="#666666" points="1481,-78 1317,-78 1317,-48 1481,-48 1481,-78"/>
<text text-anchor="start" x="1325" y="-66" font-family="Helvetica,sans-Serif" font-size="10.00">GameEventHandler::handle</text>
<text text-anchor="middle" x="1399" y="-55" font-family="Helvetica,sans-Serif" font-size="10.00">ActiveLocalPlayerUnconceded</text>
</a>
</g>
</g>
<!-- Node1&#45;&gt;Node17 -->
<g id="edge18_Node000001_Node000017" class="edge">
<title>Node1&#45;&gt;Node17</title>
<g id="a_edge18_Node000001_Node000017"><a xlink:title=" ">
<path fill="none" stroke="#63b8ff" d="M1586.75,-187.61C1566.25,-161.09 1525.94,-113.74 1481,-87 1475.33,-83.63 1469.15,-80.7 1462.81,-78.16"/>
<polygon fill="#63b8ff" stroke="#63b8ff" points="1589.87,-191.69 1585.04,-189.08 1588.35,-189.7 1586.83,-187.72 1586.83,-187.72 1586.83,-187.72 1588.35,-189.7 1588.61,-186.35 1589.87,-191.69 1589.87,-191.69"/>
</a>
</g>
</g>
<!-- Node18 -->
<g id="Node000018" class="node">
<title>Node18</title>
<g id="a_Node000018"><a xlink:href="../../d7/db2/classGameEventHandler.html#af4d64c6216dc200cdccb2768438a94b9" target="_top" xlink:title=" ">
<polygon fill="white" stroke="#666666" points="1474.5,-30 1323.5,-30 1323.5,0 1474.5,0 1474.5,-30"/>
<text text-anchor="start" x="1331.5" y="-18" font-family="Helvetica,sans-Serif" font-size="10.00">GameEventHandler::handle</text>
<text text-anchor="middle" x="1399" y="-7" font-family="Helvetica,sans-Serif" font-size="10.00">ActivePhaseChanged</text>
</a>
</g>
</g>
<!-- Node1&#45;&gt;Node18 -->
<g id="edge20_Node000001_Node000018" class="edge">
<title>Node1&#45;&gt;Node18</title>
<g id="a_edge20_Node000001_Node000018"><a xlink:title=" ">
<path fill="none" stroke="#63b8ff" d="M1592.16,-186.96C1575.56,-151.67 1536.36,-78.46 1481,-39 1476.22,-35.59 1470.96,-32.67 1465.48,-30.15"/>
<polygon fill="#63b8ff" stroke="#63b8ff" points="1594.44,-191.88 1590.29,-188.29 1593.39,-189.61 1592.34,-187.34 1592.34,-187.34 1592.34,-187.34 1593.39,-189.61 1594.38,-186.4 1594.44,-191.88 1594.44,-191.88"/>
</a>
</g>
</g>
<!-- Node19 -->
<g id="Node000019" class="node">
<title>Node19</title>
<g id="a_Node000019"><a xlink:href="../../d7/db2/classGameEventHandler.html#a408d70eba50f6292cd3080d46294f1f2" target="_top" xlink:title=" ">
<polygon fill="white" stroke="#666666" points="1474.5,-270 1323.5,-270 1323.5,-240 1474.5,-240 1474.5,-270"/>
<text text-anchor="start" x="1331.5" y="-258" font-family="Helvetica,sans-Serif" font-size="10.00">GameEventHandler::handle</text>
<text text-anchor="middle" x="1399" y="-247" font-family="Helvetica,sans-Serif" font-size="10.00">ArrowDeletion</text>
</a>
</g>
</g>
<!-- Node1&#45;&gt;Node19 -->
<g id="edge22_Node000001_Node000019" class="edge">
<title>Node1&#45;&gt;Node19</title>
<g id="a_edge22_Node000001_Node000019"><a xlink:title=" ">
<path fill="none" stroke="#63b8ff" d="M1532.86,-223.27C1510.19,-228.69 1485.07,-234.69 1462.82,-240"/>
<polygon fill="#63b8ff" stroke="#63b8ff" points="1537.95,-222.06 1533.61,-225.41 1535.52,-222.64 1533.09,-223.22 1533.09,-223.22 1533.09,-223.22 1535.52,-222.64 1532.57,-221.03 1537.95,-222.06 1537.95,-222.06"/>
</a>
</g>
</g>
<!-- Node20 -->
<g id="Node000020" class="node">
<title>Node20</title>
<g id="a_Node000020"><a xlink:href="../../d7/db2/classGameEventHandler.html#aa5bd8649c46daafb2319ece1586736c2" target="_top" xlink:title=" ">
<polygon fill="white" stroke="#666666" points="1474.5,-366 1323.5,-366 1323.5,-336 1474.5,-336 1474.5,-366"/>
<text text-anchor="start" x="1331.5" y="-354" font-family="Helvetica,sans-Serif" font-size="10.00">GameEventHandler::handle</text>
<text text-anchor="middle" x="1399" y="-343" font-family="Helvetica,sans-Serif" font-size="10.00">ChatMessageSent</text>
</a>
</g>
</g>
<!-- Node1&#45;&gt;Node20 -->
<g id="edge24_Node000001_Node000020" class="edge">
<title>Node1&#45;&gt;Node20</title>
<g id="a_edge24_Node000001_Node000020"><a xlink:title=" ">
<path fill="none" stroke="#63b8ff" d="M1586.75,-226.39C1566.25,-252.91 1525.94,-300.26 1481,-327 1475.33,-330.37 1469.15,-333.3 1462.81,-335.84"/>
<polygon fill="#63b8ff" stroke="#63b8ff" points="1589.87,-222.31 1588.61,-227.65 1588.35,-224.3 1586.83,-226.28 1586.83,-226.28 1586.83,-226.28 1588.35,-224.3 1585.04,-224.92 1589.87,-222.31 1589.87,-222.31"/>
</a>
</g>
</g>
<!-- Node22 -->
<g id="Node000022" class="node">
<title>Node22</title>
<g id="a_Node000022"><a xlink:href="../../d7/db2/classGameEventHandler.html#ad102a88c7c5538da90f7cda1926f8e9e" target="_top" xlink:title=" ">
<polygon fill="white" stroke="#666666" points="1474.5,-318 1323.5,-318 1323.5,-288 1474.5,-288 1474.5,-318"/>
<text text-anchor="start" x="1331.5" y="-306" font-family="Helvetica,sans-Serif" font-size="10.00">GameEventHandler::handle</text>
<text text-anchor="middle" x="1399" y="-295" font-family="Helvetica,sans-Serif" font-size="10.00">GameLeft</text>
</a>
</g>
</g>
<!-- Node1&#45;&gt;Node22 -->
<g id="edge28_Node000001_Node000022" class="edge">
<title>Node1&#45;&gt;Node22</title>
<g id="a_edge28_Node000001_Node000022"><a xlink:title=" ">
<path fill="none" stroke="#63b8ff" d="M1575.09,-225.18C1551.46,-241.11 1515.13,-263.99 1481,-279 1473.48,-282.31 1465.38,-285.31 1457.3,-288"/>
<polygon fill="#63b8ff" stroke="#63b8ff" points="1579.35,-222.29 1576.47,-226.96 1577.28,-223.69 1575.21,-225.1 1575.21,-225.1 1575.21,-225.1 1577.28,-223.69 1573.95,-223.24 1579.35,-222.29 1579.35,-222.29"/>
</a>
</g>
</g>
<!-- Node24 -->
<g id="Node000024" class="node">
<title>Node24</title>
<g id="a_Node000024"><a xlink:href="../../d7/db2/classGameEventHandler.html#a0301a250d83437cd66fd535ad6548cf0" target="_top" xlink:title=" ">
<polygon fill="white" stroke="#666666" points="1474.5,-222 1323.5,-222 1323.5,-192 1474.5,-192 1474.5,-222"/>
<text text-anchor="start" x="1331.5" y="-210" font-family="Helvetica,sans-Serif" font-size="10.00">GameEventHandler::handle</text>
<text text-anchor="middle" x="1399" y="-199" font-family="Helvetica,sans-Serif" font-size="10.00">NextTurn</text>
</a>
</g>
</g>
<!-- Node1&#45;&gt;Node24 -->
<g id="edge32_Node000001_Node000024" class="edge">
<title>Node1&#45;&gt;Node24</title>
<g id="a_edge32_Node000001_Node000024"><a xlink:title=" ">
<path fill="none" stroke="#63b8ff" d="M1511.66,-207C1499.34,-207 1486.8,-207 1474.78,-207"/>
<polygon fill="#63b8ff" stroke="#63b8ff" points="1516.92,-207 1511.92,-209.25 1514.42,-207 1511.92,-207 1511.92,-207 1511.92,-207 1514.42,-207 1511.92,-204.75 1516.92,-207 1516.92,-207"/>
</a>
</g>
</g>
<!-- Node25 -->
<g id="Node000025" class="node">
<title>Node25</title>
<g id="a_Node000025"><a xlink:href="../../d7/db2/classGameEventHandler.html#a897ebe20e24915c632bf1af9b25f9796" target="_top" xlink:title=" ">
<polygon fill="white" stroke="#666666" points="1474.5,-174 1323.5,-174 1323.5,-144 1474.5,-144 1474.5,-174"/>
<text text-anchor="start" x="1331.5" y="-162" font-family="Helvetica,sans-Serif" font-size="10.00">GameEventHandler::handle</text>
<text text-anchor="middle" x="1399" y="-151" font-family="Helvetica,sans-Serif" font-size="10.00">ReverseTurn</text>
</a>
</g>
</g>
<!-- Node1&#45;&gt;Node25 -->
<g id="edge34_Node000001_Node000025" class="edge">
<title>Node1&#45;&gt;Node25</title>
<g id="a_edge34_Node000001_Node000025"><a xlink:title=" ">
<path fill="none" stroke="#63b8ff" d="M1532.86,-190.73C1510.19,-185.31 1485.07,-179.31 1462.82,-174"/>
<polygon fill="#63b8ff" stroke="#63b8ff" points="1537.95,-191.94 1532.57,-192.97 1535.52,-191.36 1533.09,-190.78 1533.09,-190.78 1533.09,-190.78 1535.52,-191.36 1533.61,-188.59 1537.95,-191.94 1537.95,-191.94"/>
</a>
</g>
</g>
<!-- Node3 -->
<g id="Node000003" class="node">
<title>Node3</title>
<g id="a_Node000003"><a xlink:href="../../de/d08/classTabGame.html#a2b6beeea83d5e1e5b29712929e9eb08b" target="_top" xlink:title=" ">
<polygon fill="white" stroke="#666666" points="1068,-357.5 954,-357.5 954,-338.5 1068,-338.5 1068,-357.5"/>
<text text-anchor="middle" x="1011" y="-345.5" font-family="Helvetica,sans-Serif" font-size="10.00">TabGame::TabGame</text>
</a>
</g>
</g>
<!-- Node2&#45;&gt;Node3 -->
<g id="edge2_Node000002_Node000003" class="edge">
<title>Node2&#45;&gt;Node3</title>
<g id="a_edge2_Node000002_Node000003"><a xlink:title=" ">
<path fill="none" stroke="#63b8ff" d="M1140.14,-374.44C1128.27,-372 1115.7,-369.41 1104,-367 1089.14,-363.94 1072.94,-360.59 1058.33,-357.58"/>
<polygon fill="#63b8ff" stroke="#63b8ff" points="1145.18,-375.48 1139.83,-376.67 1142.73,-374.97 1140.28,-374.47 1140.28,-374.47 1140.28,-374.47 1142.73,-374.97 1140.74,-372.27 1145.18,-375.48 1145.18,-375.48"/>
</a>
</g>
</g>
<!-- Node4 -->
<g id="Node000004" class="node">
<title>Node4</title>
<g id="a_Node000004"><a xlink:href="../../de/d08/classTabGame.html#a0198c02f04e49adcbc708d2a0abfb80b" target="_top" xlink:title=" ">
<polygon fill="white" stroke="#666666" points="1068,-317.5 954,-317.5 954,-298.5 1068,-298.5 1068,-317.5"/>
<text text-anchor="middle" x="1011" y="-305.5" font-family="Helvetica,sans-Serif" font-size="10.00">TabGame::TabGame</text>
</a>
</g>
</g>
<!-- Node2&#45;&gt;Node4 -->
<g id="edge3_Node000002_Node000004" class="edge">
<title>Node2&#45;&gt;Node4</title>
<g id="a_edge3_Node000002_Node000004"><a xlink:title=" ">
<path fill="none" stroke="#63b8ff" d="M1119.2,-373.78C1113.92,-371.87 1108.79,-369.62 1104,-367 1083.88,-355.98 1087.11,-342.7 1068,-330 1060.43,-324.97 1051.54,-320.82 1043.1,-317.53"/>
<polygon fill="#63b8ff" stroke="#63b8ff" points="1124.09,-375.45 1118.63,-375.97 1121.73,-374.64 1119.36,-373.84 1119.36,-373.84 1119.36,-373.84 1121.73,-374.64 1120.09,-371.71 1124.09,-375.45 1124.09,-375.45"/>
</a>
</g>
</g>
<!-- Node5 -->
<g id="Node000005" class="node">
<title>Node5</title>
<g id="a_Node000005"><a xlink:href="../../de/d08/classTabGame.html#ad7e4437118782d8e2b678f5c3564b5ea" target="_top" xlink:title=" ">
<polygon fill="white" stroke="#666666" points="918,-317.5 786,-317.5 786,-298.5 918,-298.5 918,-317.5"/>
<text text-anchor="middle" x="852" y="-305.5" font-family="Helvetica,sans-Serif" font-size="10.00">TabGame::gameClosing</text>
</a>
</g>
</g>
<!-- Node4&#45;&gt;Node5 -->
<g id="edge4_Node000004_Node000005" class="edge">
<title>Node4&#45;&gt;Node5</title>
<g id="a_edge4_Node000004_Node000005"><a xlink:title=" ">
<path fill="none" stroke="#63b8ff" d="M948.59,-308C938.62,-308 928.26,-308 918.2,-308"/>
<polygon fill="#63b8ff" stroke="#63b8ff" points="953.76,-308 948.76,-310.25 951.26,-308 948.76,-308 948.76,-308 948.76,-308 951.26,-308 948.76,-305.75 953.76,-308 953.76,-308"/>
</a>
</g>
</g>
<!-- Node6 -->
<g id="Node000006" class="node">
<title>Node6</title>
<g id="a_Node000006"><a xlink:href="../../de/d08/classTabGame.html#a122426c1db587d20d7ace36e5c1c5997" target="_top" xlink:title=" ">
<polygon fill="white" stroke="#666666" points="736.5,-373.5 614.5,-373.5 614.5,-354.5 736.5,-354.5 736.5,-373.5"/>
<text text-anchor="middle" x="675.5" y="-361.5" font-family="Helvetica,sans-Serif" font-size="10.00">TabGame::closeEvent</text>
</a>
</g>
</g>
<!-- Node5&#45;&gt;Node6 -->
<g id="edge5_Node000005_Node000006" class="edge">
<title>Node5&#45;&gt;Node6</title>
<g id="a_edge5_Node000005_Node000006"><a xlink:title=" ">
<path fill="none" stroke="#63b8ff" d="M823.32,-319.44C803.2,-327.5 775.19,-338.21 750,-346 740.08,-349.07 729.29,-351.96 719.1,-354.48"/>
<polygon fill="#63b8ff" stroke="#63b8ff" points="828.01,-317.55 824.21,-321.51 825.69,-318.49 823.37,-319.42 823.37,-319.42 823.37,-319.42 825.69,-318.49 822.53,-317.33 828.01,-317.55 828.01,-317.55"/>
</a>
</g>
</g>
<!-- Node7 -->
<g id="Node000007" class="node">
<title>Node7</title>
<g id="a_Node000007"><a xlink:href="../../dd/d81/classTabSupervisor.html#a6396f49593a8033e85531a822d264622" target="_top" xlink:title=" ">
<polygon fill="white" stroke="#666666" points="554.5,-298.5 405.5,-298.5 405.5,-279.5 554.5,-279.5 554.5,-298.5"/>
<text text-anchor="middle" x="480" y="-286.5" font-family="Helvetica,sans-Serif" font-size="10.00">TabSupervisor::gameJoined</text>
</a>
</g>
</g>
<!-- Node5&#45;&gt;Node7 -->
<g id="edge6_Node000005_Node000007" class="edge">
<title>Node5&#45;&gt;Node7</title>
<g id="a_edge6_Node000005_Node000007"><a xlink:title=" ">
<path fill="none" stroke="#63b8ff" d="M780.71,-304.39C715.97,-301.07 620.27,-296.15 554.53,-292.78"/>
<polygon fill="#63b8ff" stroke="#63b8ff" points="785.7,-304.65 780.59,-306.64 783.21,-304.52 780.71,-304.39 780.71,-304.39 780.71,-304.39 783.21,-304.52 780.83,-302.14 785.7,-304.65 785.7,-304.65"/>
</a>
</g>
</g>
<!-- Node9 -->
<g id="Node000009" class="node">
<title>Node9</title>
<g id="a_Node000009"><a xlink:href="../../dd/d81/classTabSupervisor.html#ad7ae9e932602258473ab1afd8e4b88a6" target="_top" xlink:title=" ">
<polygon fill="white" stroke="#666666" points="747,-261 604,-261 604,-231 747,-231 747,-261"/>
<text text-anchor="start" x="612" y="-249" font-family="Helvetica,sans-Serif" font-size="10.00">TabSupervisor::localGame</text>
<text text-anchor="middle" x="675.5" y="-238" font-family="Helvetica,sans-Serif" font-size="10.00">Joined</text>
</a>
</g>
</g>
<!-- Node5&#45;&gt;Node9 -->
<g id="edge8_Node000005_Node000009" class="edge">
<title>Node5&#45;&gt;Node9</title>
<g id="a_edge8_Node000005_Node000009"><a xlink:title=" ">
<path fill="none" stroke="#63b8ff" d="M819.38,-296.77C791.29,-286.79 750.02,-272.12 719.04,-261.12"/>
<polygon fill="#63b8ff" stroke="#63b8ff" points="824.12,-298.45 818.65,-298.89 821.76,-297.61 819.41,-296.77 819.41,-296.77 819.41,-296.77 821.76,-297.61 820.16,-294.65 824.12,-298.45 824.12,-298.45"/>
</a>
</g>
</g>
<!-- Node11 -->
<g id="Node000011" class="node">
<title>Node11</title>
<g id="a_Node000011"><a xlink:href="../../dd/d81/classTabSupervisor.html#a94d81248b94e52661eb0f104a0366b8a" target="_top" xlink:title=" ">
<polygon fill="white" stroke="#666666" points="750,-336.5 601,-336.5 601,-317.5 750,-317.5 750,-336.5"/>
<text text-anchor="middle" x="675.5" y="-324.5" font-family="Helvetica,sans-Serif" font-size="10.00">TabSupervisor::openReplay</text>
</a>
</g>
</g>
<!-- Node5&#45;&gt;Node11 -->
<g id="edge10_Node000005_Node000011" class="edge">
<title>Node5&#45;&gt;Node11</title>
<g id="a_edge10_Node000005_Node000011"><a xlink:title=" ">
<path fill="none" stroke="#63b8ff" d="M780.37,-315.69C770.45,-316.77 760.23,-317.88 750.25,-318.97"/>
<polygon fill="#63b8ff" stroke="#63b8ff" points="785.53,-315.13 780.8,-317.91 783.04,-315.4 780.56,-315.67 780.56,-315.67 780.56,-315.67 783.04,-315.4 780.31,-313.43 785.53,-315.13 785.53,-315.13"/>
</a>
</g>
</g>
<!-- Node8 -->
<g id="Node000008" class="node">
<title>Node8</title>
<g id="a_Node000008"><a xlink:href="../../dd/d81/classTabSupervisor.html#a5e6baf23ec25ba9c7d95138c2b76b234" target="_top" xlink:title=" ">
<polygon fill="white" stroke="#666666" points="159,-335.5 0,-335.5 0,-316.5 159,-316.5 159,-335.5"/>
<text text-anchor="middle" x="79.5" y="-323.5" font-family="Helvetica,sans-Serif" font-size="10.00">TabSupervisor::TabSupervisor</text>
</a>
</g>
</g>
<!-- Node7&#45;&gt;Node8 -->
<g id="edge7_Node000007_Node000008" class="edge">
<title>Node7&#45;&gt;Node8</title>
<g id="a_edge7_Node000007_Node000008"><a xlink:title=" ">
<path fill="none" stroke="#63b8ff" d="M400.2,-292.92C343.12,-296.15 264.16,-301.44 195,-309 176.62,-311.01 156.66,-313.77 138.64,-316.48"/>
<polygon fill="#63b8ff" stroke="#63b8ff" points="405.31,-292.63 400.44,-295.16 402.81,-292.77 400.31,-292.91 400.31,-292.91 400.31,-292.91 402.81,-292.77 400.19,-290.66 405.31,-292.63 405.31,-292.63"/>
</a>
</g>
</g>
<!-- Node10 -->
<g id="Node000010" class="node">
<title>Node10</title>
<g id="a_Node000010"><a xlink:href="../../dd/d81/classTabSupervisor.html#a8074f0055d28b105a9cbebae8b1c7b25" target="_top" xlink:title=" ">
<polygon fill="white" stroke="#666666" points="549.5,-255.5 410.5,-255.5 410.5,-236.5 549.5,-236.5 549.5,-255.5"/>
<text text-anchor="middle" x="480" y="-243.5" font-family="Helvetica,sans-Serif" font-size="10.00">TabSupervisor::startLocal</text>
</a>
</g>
</g>
<!-- Node9&#45;&gt;Node10 -->
<g id="edge9_Node000009_Node000010" class="edge">
<title>Node9&#45;&gt;Node10</title>
<g id="a_edge9_Node000009_Node000010"><a xlink:title=" ">
<path fill="none" stroke="#63b8ff" d="M598.81,-246C582.57,-246 565.5,-246 549.55,-246"/>
<polygon fill="#63b8ff" stroke="#63b8ff" points="603.82,-246 598.82,-248.25 601.32,-246 598.82,-246 598.82,-246 598.82,-246 601.32,-246 598.82,-243.75 603.82,-246 603.82,-246"/>
</a>
</g>
</g>
<!-- Node12 -->
<g id="Node000012" class="node">
<title>Node12</title>
<g id="a_Node000012"><a xlink:href="../../dd/d81/classTabSupervisor.html#a61bbb0cc631dbf748b14d2a0f424e208" target="_top" xlink:title=" ">
<polygon fill="white" stroke="#666666" points="565,-336.5 395,-336.5 395,-317.5 565,-317.5 565,-336.5"/>
<text text-anchor="middle" x="480" y="-324.5" font-family="Helvetica,sans-Serif" font-size="10.00">TabSupervisor::openTabReplays</text>
</a>
</g>
</g>
<!-- Node11&#45;&gt;Node12 -->
<g id="edge11_Node000011_Node000012" class="edge">
<title>Node11&#45;&gt;Node12</title>
<g id="a_edge11_Node000011_Node000012"><a xlink:title=" ">
<path fill="none" stroke="#63b8ff" d="M595.58,-327C585.56,-327 575.28,-327 565.18,-327"/>
<polygon fill="#63b8ff" stroke="#63b8ff" points="600.79,-327 595.79,-329.25 598.29,-327 595.79,-327 595.79,-327 595.79,-327 598.29,-327 595.79,-324.75 600.79,-327 600.79,-327"/>
</a>
</g>
</g>
<!-- Node13 -->
<g id="Node000013" class="node">
<title>Node13</title>
<g id="a_Node000013"><a xlink:href="../../dd/d81/classTabSupervisor.html#a7f72ffb352830f222002f68faf8a7b23" target="_top" xlink:title=" ">
<polygon fill="white" stroke="#666666" points="357.5,-373.5 196.5,-373.5 196.5,-354.5 357.5,-354.5 357.5,-373.5"/>
<text text-anchor="middle" x="277" y="-361.5" font-family="Helvetica,sans-Serif" font-size="10.00">TabSupervisor::actTabReplays</text>
</a>
</g>
</g>
<!-- Node12&#45;&gt;Node13 -->
<g id="edge12_Node000012_Node000013" class="edge">
<title>Node12&#45;&gt;Node13</title>
<g id="a_edge12_Node000012_Node000013"><a xlink:title=" ">
<path fill="none" stroke="#63b8ff" d="M422.27,-337.44C393.27,-342.78 358.22,-349.23 329.94,-354.44"/>
<polygon fill="#63b8ff" stroke="#63b8ff" points="427.24,-336.53 422.73,-339.65 424.78,-336.98 422.32,-337.43 422.32,-337.43 422.32,-337.43 424.78,-336.98 421.91,-335.22 427.24,-336.53 427.24,-336.53"/>
</a>
</g>
</g>
<!-- Node14 -->
<g id="Node000014" class="node">
<title>Node14</title>
<g id="a_Node000014"><a xlink:href="../../dd/d81/classTabSupervisor.html#aee1c4492654fe6a12894135b5968b150" target="_top" xlink:title=" ">
<polygon fill="white" stroke="#666666" points="359,-336.5 195,-336.5 195,-317.5 359,-317.5 359,-336.5"/>
<text text-anchor="middle" x="277" y="-324.5" font-family="Helvetica,sans-Serif" font-size="10.00">TabSupervisor::initStartupTabs</text>
</a>
</g>
</g>
<!-- Node12&#45;&gt;Node14 -->
<g id="edge14_Node000012_Node000014" class="edge">
<title>Node12&#45;&gt;Node14</title>
<g id="a_edge14_Node000012_Node000014"><a xlink:title=" ">
<path fill="none" stroke="#63b8ff" d="M389.91,-327C379.68,-327 369.29,-327 359.17,-327"/>
<polygon fill="#63b8ff" stroke="#63b8ff" points="394.92,-327 389.92,-329.25 392.42,-327 389.92,-327 389.92,-327 389.92,-327 392.42,-327 389.92,-324.75 394.92,-327 394.92,-327"/>
</a>
</g>
</g>
<!-- Node13&#45;&gt;Node8 -->
<g id="edge13_Node000013_Node000008" class="edge">
<title>Node13&#45;&gt;Node8</title>
<g id="a_edge13_Node000013_Node000008"><a xlink:title=" ">
<path fill="none" stroke="#63b8ff" d="M221.97,-353.5C193.06,-347.88 157.72,-341.01 129.6,-335.54"/>
<polygon fill="#63b8ff" stroke="#63b8ff" points="226.92,-354.46 221.58,-355.71 224.47,-353.98 222.01,-353.51 222.01,-353.51 222.01,-353.51 224.47,-353.98 222.44,-351.3 226.92,-354.46 226.92,-354.46"/>
</a>
</g>
</g>
<!-- Node16 -->
<g id="Node000016" class="node">
<title>Node16</title>
<g id="a_Node000016"><a xlink:href="../../de/d08/classTabGame.html#af5115487ce05482e74edc99f15232437" target="_top" xlink:title=" ">
<polygon fill="white" stroke="#666666" points="1269.5,-168.5 1115.5,-168.5 1115.5,-149.5 1269.5,-149.5 1269.5,-168.5"/>
<text text-anchor="middle" x="1192.5" y="-156.5" font-family="Helvetica,sans-Serif" font-size="10.00">TabGame::createMenuItems</text>
</a>
</g>
</g>
<!-- Node15&#45;&gt;Node16 -->
<g id="edge16_Node000015_Node000016" class="edge">
<title>Node15&#45;&gt;Node16</title>
<g id="a_edge16_Node000015_Node000016"><a xlink:title=" ">
<path fill="none" stroke="#63b8ff" d="M1328.85,-127.23C1297.4,-134.61 1261.27,-143.09 1234.25,-149.44"/>
<polygon fill="#63b8ff" stroke="#63b8ff" points="1333.86,-126.06 1329.5,-129.39 1331.42,-126.63 1328.99,-127.2 1328.99,-127.2 1328.99,-127.2 1331.42,-126.63 1328.47,-125.01 1333.86,-126.06 1333.86,-126.06"/>
</a>
</g>
</g>
<!-- Node16&#45;&gt;Node4 -->
<g id="edge17_Node000016_Node000004" class="edge">
<title>Node16&#45;&gt;Node4</title>
<g id="a_edge17_Node000016_Node000004"><a xlink:title=" ">
<path fill="none" stroke="#63b8ff" d="M1175.94,-171.91C1140.6,-201.26 1054.88,-272.41 1023.64,-298.34"/>
<polygon fill="#63b8ff" stroke="#63b8ff" points="1180,-168.55 1177.59,-173.47 1178.07,-170.14 1176.15,-171.74 1176.15,-171.74 1176.15,-171.74 1178.07,-170.14 1174.71,-170.01 1180,-168.55 1180,-168.55"/>
</a>
</g>
</g>
<!-- Node17&#45;&gt;Node16 -->
<g id="edge19_Node000017_Node000016" class="edge">
<title>Node17&#45;&gt;Node16</title>
<g id="a_edge19_Node000017_Node000016"><a xlink:title=" ">
<path fill="none" stroke="#63b8ff" d="M1335.81,-79.76C1329.38,-81.98 1323.01,-84.4 1317,-87 1275.08,-105.12 1229.62,-134.39 1207.36,-149.42"/>
<polygon fill="#63b8ff" stroke="#63b8ff" points="1340.74,-78.09 1336.72,-81.82 1338.37,-78.89 1336,-79.69 1336,-79.69 1336,-79.69 1338.37,-78.89 1335.28,-77.56 1340.74,-78.09 1340.74,-78.09"/>
</a>
</g>
</g>
<!-- Node18&#45;&gt;Node16 -->
<g id="edge21_Node000018_Node000016" class="edge">
<title>Node18&#45;&gt;Node16</title>
<g id="a_edge21_Node000018_Node000016"><a xlink:title=" ">
<path fill="none" stroke="#63b8ff" d="M1330.82,-32.07C1326.03,-34.14 1321.37,-36.44 1317,-39 1264.88,-69.5 1218.12,-126.58 1200.71,-149.31"/>
<polygon fill="#63b8ff" stroke="#63b8ff" points="1335.66,-30.07 1331.9,-34.06 1333.35,-31.03 1331.04,-31.98 1331.04,-31.98 1331.04,-31.98 1333.35,-31.03 1330.18,-29.9 1335.66,-30.07 1335.66,-30.07"/>
</a>
</g>
</g>
<!-- Node19&#45;&gt;Node16 -->
<g id="edge23_Node000019_Node000016" class="edge">
<title>Node19&#45;&gt;Node16</title>
<g id="a_edge23_Node000019_Node000016"><a xlink:title=" ">
<path fill="none" stroke="#63b8ff" d="M1335.81,-238.24C1329.38,-236.02 1323.01,-233.6 1317,-231 1275.08,-212.88 1229.62,-183.61 1207.36,-168.58"/>
<polygon fill="#63b8ff" stroke="#63b8ff" points="1340.74,-239.91 1335.28,-240.44 1338.37,-239.11 1336,-238.31 1336,-238.31 1336,-238.31 1338.37,-239.11 1336.72,-236.18 1340.74,-239.91 1340.74,-239.91"/>
</a>
</g>
</g>
<!-- Node21 -->
<g id="Node000021" class="node">
<title>Node21</title>
<g id="a_Node000021"><a xlink:href="../../de/d08/classTabGame.html#ac76bfb14375c313bf24446d7d3d15670" target="_top" xlink:title=" ">
<polygon fill="white" stroke="#666666" points="1276,-357.5 1109,-357.5 1109,-338.5 1276,-338.5 1276,-357.5"/>
<text text-anchor="middle" x="1192.5" y="-345.5" font-family="Helvetica,sans-Serif" font-size="10.00">TabGame::createMessageDock</text>
</a>
</g>
</g>
<!-- Node20&#45;&gt;Node21 -->
<g id="edge25_Node000020_Node000021" class="edge">
<title>Node20&#45;&gt;Node21</title>
<g id="a_edge25_Node000020_Node000021"><a xlink:title=" ">
<path fill="none" stroke="#63b8ff" d="M1318.26,-349.83C1304.48,-349.63 1290.14,-349.42 1276.28,-349.21"/>
<polygon fill="#63b8ff" stroke="#63b8ff" points="1323.3,-349.9 1318.27,-352.08 1320.8,-349.87 1318.3,-349.83 1318.3,-349.83 1318.3,-349.83 1320.8,-349.87 1318.34,-347.58 1323.3,-349.9 1323.3,-349.9"/>
</a>
</g>
</g>
<!-- Node21&#45;&gt;Node3 -->
<g id="edge26_Node000021_Node000003" class="edge">
<title>Node21&#45;&gt;Node3</title>
<g id="a_edge26_Node000021_Node000003"><a xlink:title=" ">
<path fill="none" stroke="#63b8ff" d="M1103.66,-348C1091.55,-348 1079.4,-348 1068.08,-348"/>
<polygon fill="#63b8ff" stroke="#63b8ff" points="1108.84,-348 1103.84,-350.25 1106.34,-348 1103.84,-348 1103.84,-348 1103.84,-348 1106.34,-348 1103.84,-345.75 1108.84,-348 1108.84,-348"/>
</a>
</g>
</g>
<!-- Node21&#45;&gt;Node4 -->
<g id="edge27_Node000021_Node000004" class="edge">
<title>Node21&#45;&gt;Node4</title>
<g id="a_edge27_Node000021_Node000004"><a xlink:title=" ">
<path fill="none" stroke="#63b8ff" d="M1142.07,-337.36C1129.63,-334.66 1116.32,-331.74 1104,-329 1087.37,-325.3 1069.07,-321.14 1053.2,-317.5"/>
<polygon fill="#63b8ff" stroke="#63b8ff" points="1146.97,-338.43 1141.6,-339.56 1144.52,-337.89 1142.08,-337.36 1142.08,-337.36 1142.08,-337.36 1144.52,-337.89 1142.56,-335.17 1146.97,-338.43 1146.97,-338.43"/>
</a>
</g>
</g>
<!-- Node23 -->
<g id="Node000023" class="node">
<title>Node23</title>
<g id="a_Node000023"><a xlink:href="../../de/d08/classTabGame.html#af3cdacabac70dcb0e440101911feefe9" target="_top" xlink:title=" ">
<polygon fill="white" stroke="#666666" points="1279.5,-320 1105.5,-320 1105.5,-290 1279.5,-290 1279.5,-320"/>
<text text-anchor="start" x="1113.5" y="-308" font-family="Helvetica,sans-Serif" font-size="10.00">TabGame::connectToGameEvent</text>
<text text-anchor="middle" x="1192.5" y="-297" font-family="Helvetica,sans-Serif" font-size="10.00">Handler</text>
</a>
</g>
</g>
<!-- Node22&#45;&gt;Node23 -->
<g id="edge29_Node000022_Node000023" class="edge">
<title>Node22&#45;&gt;Node23</title>
<g id="a_edge29_Node000022_Node000023"><a xlink:title=" ">
<path fill="none" stroke="#63b8ff" d="M1318.3,-303.78C1305.67,-303.9 1292.55,-304.03 1279.77,-304.16"/>
<polygon fill="#63b8ff" stroke="#63b8ff" points="1323.3,-303.73 1318.33,-306.03 1320.8,-303.76 1318.3,-303.78 1318.3,-303.78 1318.3,-303.78 1320.8,-303.76 1318.28,-301.53 1323.3,-303.73 1323.3,-303.73"/>
</a>
</g>
</g>
<!-- Node23&#45;&gt;Node3 -->
<g id="edge30_Node000023_Node000003" class="edge">
<title>Node23&#45;&gt;Node3</title>
<g id="a_edge30_Node000023_Node000003"><a xlink:title=" ">
<path fill="none" stroke="#63b8ff" d="M1123.58,-321.27C1099.34,-327.08 1072.84,-333.43 1051.75,-338.48"/>
<polygon fill="#63b8ff" stroke="#63b8ff" points="1128.72,-320.04 1124.38,-323.39 1126.29,-320.62 1123.86,-321.2 1123.86,-321.2 1123.86,-321.2 1126.29,-320.62 1123.33,-319.02 1128.72,-320.04 1128.72,-320.04"/>
</a>
</g>
</g>
<!-- Node23&#45;&gt;Node4 -->
<g id="edge31_Node000023_Node000004" class="edge">
<title>Node23&#45;&gt;Node4</title>
<g id="a_edge31_Node000023_Node000004"><a xlink:title=" ">
<path fill="none" stroke="#63b8ff" d="M1100.37,-306.52C1089.36,-306.71 1078.38,-306.89 1068.09,-307.06"/>
<polygon fill="#63b8ff" stroke="#63b8ff" points="1105.43,-306.44 1100.47,-308.77 1102.93,-306.48 1100.43,-306.52 1100.43,-306.52 1100.43,-306.52 1102.93,-306.48 1100.39,-304.27 1105.43,-306.44 1105.43,-306.44"/>
</a>
</g>
</g>
<!-- Node24&#45;&gt;Node16 -->
<g id="edge33_Node000024_Node000016" class="edge">
<title>Node24&#45;&gt;Node16</title>
<g id="a_edge33_Node000024_Node000016"><a xlink:title=" ">
<path fill="none" stroke="#63b8ff" d="M1328.85,-190.77C1297.4,-183.39 1261.27,-174.91 1234.25,-168.56"/>
<polygon fill="#63b8ff" stroke="#63b8ff" points="1333.86,-191.94 1328.47,-192.99 1331.42,-191.37 1328.99,-190.8 1328.99,-190.8 1328.99,-190.8 1331.42,-191.37 1329.5,-188.61 1333.86,-191.94 1333.86,-191.94"/>
</a>
</g>
</g>
<!-- Node25&#45;&gt;Node16 -->
<g id="edge35_Node000025_Node000016" class="edge">
<title>Node25&#45;&gt;Node16</title>
<g id="a_edge35_Node000025_Node000016"><a xlink:title=" ">
<path fill="none" stroke="#63b8ff" d="M1317.95,-159C1302.08,-159 1285.45,-159 1269.71,-159"/>
<polygon fill="#63b8ff" stroke="#63b8ff" points="1323.3,-159 1318.3,-161.25 1320.8,-159 1318.3,-159 1318.3,-159 1318.3,-159 1320.8,-159 1318.3,-156.75 1323.3,-159 1323.3,-159"/>
</a>
</g>
</g>
</g>
</svg>
