<?xml version="1.0" encoding="UTF-8" standalone="no"?>
<!DOCTYPE svg PUBLIC "-//W3C//DTD SVG 1.1//EN"
 "http://www.w3.org/Graphics/SVG/1.1/DTD/svg11.dtd">
<!-- Generated by graphviz version 2.43.0 (0)
 -->
<!-- Title: SayMenu::initSayMenu Pages: 1 -->
<svg width="1152pt" height="1054pt"
 viewBox="0.00 0.00 1152.00 1053.50" xmlns="http://www.w3.org/2000/svg" xmlns:xlink="http://www.w3.org/1999/xlink">
<g id="graph0" class="graph" transform="scale(1 1) rotate(0) translate(4 1049.5)">
<title>SayMenu::initSayMenu</title>
<!-- Node1 -->
<g id="Node000001" class="node">
<title>Node1</title>
<g id="a_Node000001"><a xlink:title=" ">
<polygon fill="#999999" stroke="#666666" points="128,-885.5 0,-885.5 0,-866.5 128,-866.5 128,-885.5"/>
<text text-anchor="middle" x="64" y="-873.5" font-family="Helvetica,sans-Serif" font-size="10.00">SayMenu::initSayMenu</text>
</a>
</g>
</g>
<!-- Node2 -->
<g id="Node000002" class="node">
<title>Node2</title>
<g id="a_Node000002"><a xlink:href="../../d2/d23/classPlayerActions.html#a9eb1e8c7f7fa91e80d8de1c7128d022f" target="_top" xlink:title=" ">
<polygon fill="white" stroke="#666666" points="330,-941.5 164,-941.5 164,-922.5 330,-922.5 330,-941.5"/>
<text text-anchor="middle" x="247" y="-929.5" font-family="Helvetica,sans-Serif" font-size="10.00">PlayerActions::actSayMessage</text>
</a>
</g>
</g>
<!-- Node1&#45;&gt;Node2 -->
<g id="edge1_Node000001_Node000002" class="edge">
<title>Node1&#45;&gt;Node2</title>
<g id="a_edge1_Node000001_Node000002"><a xlink:title=" ">
<path fill="none" stroke="#63b8ff" d="M87.08,-885.58C106.93,-893.92 137.02,-905.91 164,-914 172.83,-916.65 182.31,-919.09 191.57,-921.26"/>
<polygon fill="#63b8ff" stroke="#63b8ff" points="196.69,-922.44 191.32,-923.51 194.26,-921.88 191.82,-921.32 191.82,-921.32 191.82,-921.32 194.26,-921.88 192.33,-919.12 196.69,-922.44 196.69,-922.44"/>
</a>
</g>
</g>
<!-- Node4 -->
<g id="Node000004" class="node">
<title>Node4</title>
<g id="a_Node000004"><a xlink:href="../../d3/dc1/classMessageSettings.html#aa08a9f3ffd5ec16590bd92600440db53" target="_top" xlink:title=" ">
<polygon fill="white" stroke="#666666" points="322,-904.5 172,-904.5 172,-885.5 322,-885.5 322,-904.5"/>
<text text-anchor="middle" x="247" y="-892.5" font-family="Helvetica,sans-Serif" font-size="10.00">MessageSettings::getCount</text>
</a>
</g>
</g>
<!-- Node1&#45;&gt;Node4 -->
<g id="edge3_Node000001_Node000004" class="edge">
<title>Node1&#45;&gt;Node4</title>
<g id="a_edge3_Node000001_Node000004"><a xlink:title=" ">
<path fill="none" stroke="#63b8ff" d="M128.05,-882.62C140.57,-883.93 153.86,-885.33 166.84,-886.69"/>
<polygon fill="#63b8ff" stroke="#63b8ff" points="171.99,-887.23 166.78,-888.95 169.5,-886.97 167.02,-886.71 167.02,-886.71 167.02,-886.71 169.5,-886.97 167.25,-884.47 171.99,-887.23 171.99,-887.23"/>
</a>
</g>
</g>
<!-- Node6 -->
<g id="Node000006" class="node">
<title>Node6</title>
<g id="a_Node000006"><a xlink:href="../../d5/d88/classSettingsCache.html#adfa7f9f975919981b992db1fca9e4957" target="_top" xlink:title=" ">
<polygon fill="white" stroke="#666666" points="314,-608.5 180,-608.5 180,-589.5 314,-589.5 314,-608.5"/>
<text text-anchor="middle" x="247" y="-596.5" font-family="Helvetica,sans-Serif" font-size="10.00">SettingsCache::instance</text>
</a>
</g>
</g>
<!-- Node1&#45;&gt;Node6 -->
<g id="edge5_Node000001_Node000006" class="edge">
<title>Node1&#45;&gt;Node6</title>
<g id="a_edge5_Node000001_Node000006"><a xlink:title=" ">
<path fill="none" stroke="#63b8ff" d="M71.23,-866.47C98.15,-825.27 204.55,-662.44 236.73,-613.19"/>
<polygon fill="#63b8ff" stroke="#63b8ff" points="239.61,-608.78 238.76,-614.2 238.24,-610.87 236.87,-612.97 236.87,-612.97 236.87,-612.97 238.24,-610.87 234.99,-611.74 239.61,-608.78 239.61,-608.78"/>
</a>
</g>
</g>
<!-- Node17 -->
<g id="Node000017" class="node">
<title>Node17</title>
<g id="a_Node000017"><a xlink:href="../../d5/d88/classSettingsCache.html#afaf64ee1ba054d076e47e35577edfdbe" target="_top" xlink:title=" ">
<polygon fill="white" stroke="#666666" points="934,-1045.5 792,-1045.5 792,-1026.5 934,-1026.5 934,-1045.5"/>
<text text-anchor="middle" x="863" y="-1033.5" font-family="Helvetica,sans-Serif" font-size="10.00">SettingsCache::messages</text>
</a>
</g>
</g>
<!-- Node1&#45;&gt;Node17 -->
<g id="edge53_Node000001_Node000017" class="edge">
<title>Node1&#45;&gt;Node17</title>
<g id="a_edge53_Node000001_Node000017"><a xlink:title=" ">
<path fill="none" stroke="#63b8ff" d="M117.18,-866.46C208.77,-851.82 403.4,-830.11 558,-877 666.29,-909.84 665.34,-974.97 770,-1018 776.73,-1020.77 783.91,-1023.11 791.18,-1025.11"/>
<polygon fill="#63b8ff" stroke="#63b8ff" points="796.23,-1026.43 790.82,-1027.34 793.81,-1025.8 791.39,-1025.16 791.39,-1025.16 791.39,-1025.16 793.81,-1025.8 791.96,-1022.99 796.23,-1026.43 796.23,-1026.43"/>
</a>
</g>
</g>
<!-- Node3 -->
<g id="Node000003" class="node">
<title>Node3</title>
<g id="a_Node000003"><a xlink:href="../../d2/d23/classPlayerActions.html#a24052faefdf622e1bea1afb4c601644b" target="_top" xlink:title=" ">
<polygon fill="white" stroke="#666666" points="558,-941.5 366,-941.5 366,-922.5 558,-922.5 558,-941.5"/>
<text text-anchor="middle" x="462" y="-929.5" font-family="Helvetica,sans-Serif" font-size="10.00">PlayerActions::sendGameCommand</text>
</a>
</g>
</g>
<!-- Node2&#45;&gt;Node3 -->
<g id="edge2_Node000002_Node000003" class="edge">
<title>Node2&#45;&gt;Node3</title>
<g id="a_edge2_Node000002_Node000003"><a xlink:title=" ">
<path fill="none" stroke="#63b8ff" d="M330.05,-932C340.12,-932 350.5,-932 360.8,-932"/>
<polygon fill="#63b8ff" stroke="#63b8ff" points="365.85,-932 360.85,-934.25 363.35,-932 360.85,-932 360.85,-932 360.85,-932 363.35,-932 360.85,-929.75 365.85,-932 365.85,-932"/>
</a>
</g>
</g>
<!-- Node5 -->
<g id="Node000005" class="node">
<title>Node5</title>
<g id="a_Node000005"><a xlink:href="../../d1/dea/classSettingsManager.html#a5397c727f94408c7d66f3f1377b5ed76" target="_top" xlink:title=" ">
<polygon fill="white" stroke="#666666" points="536,-904.5 388,-904.5 388,-885.5 536,-885.5 536,-904.5"/>
<text text-anchor="middle" x="462" y="-892.5" font-family="Helvetica,sans-Serif" font-size="10.00">SettingsManager::getValue</text>
</a>
</g>
</g>
<!-- Node4&#45;&gt;Node5 -->
<g id="edge4_Node000004_Node000005" class="edge">
<title>Node4&#45;&gt;Node5</title>
<g id="a_edge4_Node000004_Node000005"><a xlink:title=" ">
<path fill="none" stroke="#63b8ff" d="M322.2,-895C341.79,-895 362.99,-895 382.79,-895"/>
<polygon fill="#63b8ff" stroke="#63b8ff" points="387.79,-895 382.79,-897.25 385.29,-895 382.79,-895 382.79,-895 382.79,-895 385.29,-895 382.79,-892.75 387.79,-895 387.79,-895"/>
</a>
</g>
</g>
<!-- Node6&#45;&gt;Node6 -->
<g id="edge6_Node000006_Node000006" class="edge">
<title>Node6&#45;&gt;Node6</title>
<g id="a_edge6_Node000006_Node000006"><a xlink:title=" ">
<path fill="none" stroke="#63b8ff" d="M218.95,-608.58C205.3,-617.23 214.65,-626.5 247,-626.5 275.3,-626.5 286,-619.41 279.09,-611.84"/>
<polygon fill="#63b8ff" stroke="#63b8ff" points="275.05,-608.58 280.36,-609.97 277,-610.15 278.95,-611.72 278.95,-611.72 278.95,-611.72 277,-610.15 277.53,-613.47 275.05,-608.58 275.05,-608.58"/>
</a>
</g>
</g>
<!-- Node7 -->
<g id="Node000007" class="node">
<title>Node7</title>
<g id="a_Node000007"><a xlink:href="../../d5/d88/classSettingsCache.html#a123df429cbb9f9aebff30f35e1d80685" target="_top" xlink:title=" ">
<polygon fill="white" stroke="#666666" points="543,-432.5 381,-432.5 381,-413.5 543,-413.5 543,-432.5"/>
<text text-anchor="middle" x="462" y="-420.5" font-family="Helvetica,sans-Serif" font-size="10.00">SettingsCache::SettingsCache</text>
</a>
</g>
</g>
<!-- Node6&#45;&gt;Node7 -->
<g id="edge7_Node000006_Node000007" class="edge">
<title>Node6&#45;&gt;Node7</title>
<g id="a_edge7_Node000006_Node000007"><a xlink:title=" ">
<path fill="none" stroke="#63b8ff" d="M259.76,-589.29C295.76,-559.54 404.53,-469.66 445.32,-435.95"/>
<polygon fill="#63b8ff" stroke="#63b8ff" points="449.28,-432.68 446.86,-437.6 447.35,-434.28 445.43,-435.87 445.43,-435.87 445.43,-435.87 447.35,-434.28 443.99,-434.13 449.28,-432.68 449.28,-432.68"/>
</a>
</g>
</g>
<!-- Node8 -->
<g id="Node000008" class="node">
<title>Node8</title>
<g id="a_Node000008"><a xlink:href="../../d5/d88/classSettingsCache.html#a4df0cf9669274d37491074c277c987d1" target="_top" xlink:title=" ">
<polygon fill="white" stroke="#666666" points="947.5,-180.5 778.5,-180.5 778.5,-161.5 947.5,-161.5 947.5,-180.5"/>
<text text-anchor="middle" x="863" y="-168.5" font-family="Helvetica,sans-Serif" font-size="10.00">SettingsCache::getSettingsPath</text>
</a>
</g>
</g>
<!-- Node7&#45;&gt;Node8 -->
<g id="edge8_Node000007_Node000008" class="edge">
<title>Node7&#45;&gt;Node8</title>
<g id="a_edge8_Node000007_Node000008"><a xlink:title=" ">
<path fill="none" stroke="#63b8ff" d="M472.51,-413.11C507.95,-376.87 637.2,-250.33 770,-190 776.88,-186.88 784.28,-184.26 791.78,-182.07"/>
<polygon fill="#63b8ff" stroke="#63b8ff" points="796.99,-180.62 792.78,-184.13 794.59,-181.29 792.18,-181.96 792.18,-181.96 792.18,-181.96 794.59,-181.29 791.57,-179.79 796.99,-180.62 796.99,-180.62"/>
</a>
</g>
</g>
<!-- Node10 -->
<g id="Node000010" class="node">
<title>Node10</title>
<g id="a_Node000010"><a xlink:href="../../d5/d88/classSettingsCache.html#ad2f1a79bfdd2ed465b60aa089f7c2596" target="_top" xlink:title=" ">
<polygon fill="white" stroke="#666666" points="734,-104.5 594,-104.5 594,-85.5 734,-85.5 734,-104.5"/>
<text text-anchor="middle" x="664" y="-92.5" font-family="Helvetica,sans-Serif" font-size="10.00">SettingsCache::loadPaths</text>
</a>
</g>
</g>
<!-- Node7&#45;&gt;Node10 -->
<g id="edge10_Node000007_Node000010" class="edge">
<title>Node7&#45;&gt;Node10</title>
<g id="a_edge10_Node000007_Node000010"><a xlink:title=" ">
<path fill="none" stroke="#63b8ff" d="M468.99,-413.18C497.62,-366.22 620.66,-164.44 654.41,-109.09"/>
<polygon fill="#63b8ff" stroke="#63b8ff" points="657.04,-104.78 656.36,-110.22 655.74,-106.91 654.43,-109.05 654.43,-109.05 654.43,-109.05 655.74,-106.91 652.51,-107.88 657.04,-104.78 657.04,-104.78"/>
</a>
</g>
</g>
<!-- Node14 -->
<g id="Node000014" class="node">
<title>Node14</title>
<g id="a_Node000014"><a xlink:href="../../d5/d88/classSettingsCache.html#a551fa1f2049b53d0d40bc64f0793db0e" target="_top" xlink:title=" ">
<polygon fill="white" stroke="#666666" points="732,-627 596,-627 596,-597 732,-597 732,-627"/>
<text text-anchor="start" x="604" y="-615" font-family="Helvetica,sans-Serif" font-size="10.00">SettingsCache::translate</text>
<text text-anchor="middle" x="664" y="-604" font-family="Helvetica,sans-Serif" font-size="10.00">LegacySettings</text>
</a>
</g>
</g>
<!-- Node7&#45;&gt;Node14 -->
<g id="edge15_Node000007_Node000014" class="edge">
<title>Node7&#45;&gt;Node14</title>
<g id="a_edge15_Node000007_Node000014"><a xlink:title=" ">
<path fill="none" stroke="#63b8ff" d="M473.19,-432.63C504.73,-462.44 601.13,-553.53 643.11,-593.2"/>
<polygon fill="#63b8ff" stroke="#63b8ff" points="647,-596.88 641.82,-595.08 645.18,-595.16 643.36,-593.44 643.36,-593.44 643.36,-593.44 645.18,-595.16 644.91,-591.81 647,-596.88 647,-596.88"/>
</a>
</g>
</g>
<!-- Node9 -->
<g id="Node000009" class="node">
<title>Node9</title>
<g id="a_Node000009"><a xlink:href="../../d5/d88/classSettingsCache.html#a5b9f6307bce45f0c84ed722a64f9ba07" target="_top" xlink:title=" ">
<polygon fill="white" stroke="#666666" points="1144,-161.5 992,-161.5 992,-142.5 1144,-142.5 1144,-161.5"/>
<text text-anchor="middle" x="1068" y="-149.5" font-family="Helvetica,sans-Serif" font-size="10.00">SettingsCache::getDataPath</text>
</a>
</g>
</g>
<!-- Node8&#45;&gt;Node9 -->
<g id="edge9_Node000008_Node000009" class="edge">
<title>Node8&#45;&gt;Node9</title>
<g id="a_edge9_Node000008_Node000009"><a xlink:title=" ">
<path fill="none" stroke="#63b8ff" d="M947.74,-163.16C960.66,-161.95 973.98,-160.71 986.82,-159.5"/>
<polygon fill="#63b8ff" stroke="#63b8ff" points="991.9,-159.03 987.13,-161.74 989.41,-159.26 986.92,-159.49 986.92,-159.49 986.92,-159.49 989.41,-159.26 986.71,-157.25 991.9,-159.03 991.9,-159.03"/>
</a>
</g>
</g>
<!-- Node10&#45;&gt;Node9 -->
<g id="edge12_Node000010_Node000009" class="edge">
<title>Node10&#45;&gt;Node9</title>
<g id="a_edge12_Node000010_Node000009"><a xlink:title=" ">
<path fill="none" stroke="#63b8ff" d="M718.08,-104.52C734.68,-107.38 753.08,-110.44 770,-113 843.27,-124.09 926.99,-134.91 986.83,-142.34"/>
<polygon fill="#63b8ff" stroke="#63b8ff" points="991.82,-142.95 986.58,-144.57 989.34,-142.65 986.85,-142.34 986.85,-142.34 986.85,-142.34 989.34,-142.65 987.13,-140.11 991.82,-142.95 991.82,-142.95"/>
</a>
</g>
</g>
<!-- Node11 -->
<g id="Node000011" class="node">
<title>Node11</title>
<g id="a_Node000011"><a xlink:href="../../d5/d88/classSettingsCache.html#a77ffc38b601d1128c21f348ed425426b" target="_top" xlink:title=" ">
<polygon fill="white" stroke="#666666" points="942.5,-67.5 783.5,-67.5 783.5,-48.5 942.5,-48.5 942.5,-67.5"/>
<text text-anchor="middle" x="863" y="-55.5" font-family="Helvetica,sans-Serif" font-size="10.00">SettingsCache::getCachePath</text>
</a>
</g>
</g>
<!-- Node10&#45;&gt;Node11 -->
<g id="edge11_Node000010_Node000011" class="edge">
<title>Node10&#45;&gt;Node11</title>
<g id="a_edge11_Node000010_Node000011"><a xlink:title=" ">
<path fill="none" stroke="#63b8ff" d="M715.73,-85.47C743.31,-80.29 777.49,-73.87 805.87,-68.54"/>
<polygon fill="#63b8ff" stroke="#63b8ff" points="811.1,-67.56 806.6,-70.69 808.64,-68.02 806.18,-68.48 806.18,-68.48 806.18,-68.48 808.64,-68.02 805.77,-66.27 811.1,-67.56 811.1,-67.56"/>
</a>
</g>
</g>
<!-- Node12 -->
<g id="Node000012" class="node">
<title>Node12</title>
<g id="a_Node000012"><a xlink:href="../../d5/d88/classSettingsCache.html#a3778996fd17a75e0b4860dfcc3a2ce6d" target="_top" xlink:title=" ">
<polygon fill="white" stroke="#666666" points="943.5,-30 782.5,-30 782.5,0 943.5,0 943.5,-30"/>
<text text-anchor="start" x="790.5" y="-18" font-family="Helvetica,sans-Serif" font-size="10.00">SettingsCache::getSafeConfig</text>
<text text-anchor="middle" x="863" y="-7" font-family="Helvetica,sans-Serif" font-size="10.00">FilePath</text>
</a>
</g>
</g>
<!-- Node10&#45;&gt;Node12 -->
<g id="edge13_Node000010_Node000012" class="edge">
<title>Node10&#45;&gt;Node12</title>
<g id="a_edge13_Node000010_Node000012"><a xlink:title=" ">
<path fill="none" stroke="#63b8ff" d="M680.11,-85.47C700.04,-73.25 736.52,-52.09 770,-39 776.87,-36.31 784.15,-33.84 791.47,-31.57"/>
<polygon fill="#63b8ff" stroke="#63b8ff" points="796.55,-30.04 792.42,-33.64 794.16,-30.76 791.77,-31.49 791.77,-31.49 791.77,-31.49 794.16,-30.76 791.12,-29.33 796.55,-30.04 796.55,-30.04"/>
</a>
</g>
</g>
<!-- Node13 -->
<g id="Node000013" class="node">
<title>Node13</title>
<g id="a_Node000013"><a xlink:href="../../d5/d88/classSettingsCache.html#a958f00fd81be250f52efd0331e3c2b1e" target="_top" xlink:title=" ">
<polygon fill="white" stroke="#666666" points="954,-104.5 772,-104.5 772,-85.5 954,-85.5 954,-104.5"/>
<text text-anchor="middle" x="863" y="-92.5" font-family="Helvetica,sans-Serif" font-size="10.00">SettingsCache::getSafeConfigPath</text>
</a>
</g>
</g>
<!-- Node10&#45;&gt;Node13 -->
<g id="edge14_Node000010_Node000013" class="edge">
<title>Node10&#45;&gt;Node13</title>
<g id="a_edge14_Node000010_Node000013"><a xlink:title=" ">
<path fill="none" stroke="#63b8ff" d="M734.18,-95C744.75,-95 755.83,-95 766.84,-95"/>
<polygon fill="#63b8ff" stroke="#63b8ff" points="771.9,-95 766.9,-97.25 769.4,-95 766.9,-95 766.9,-95 766.9,-95 769.4,-95 766.9,-92.75 771.9,-95 771.9,-95"/>
</a>
</g>
</g>
<!-- Node14&#45;&gt;Node8 -->
<g id="edge18_Node000014_Node000008" class="edge">
<title>Node14&#45;&gt;Node8</title>
<g id="a_edge18_Node000014_Node000008"><a xlink:title=" ">
<path fill="none" stroke="#63b8ff" d="M668.83,-596.74C679.31,-555.02 709.3,-435.47 734,-336 750.1,-271.14 721.85,-236.35 770,-190 772.67,-187.43 775.58,-185.17 778.68,-183.18"/>
<polygon fill="#63b8ff" stroke="#63b8ff" points="783.02,-180.64 779.85,-185.11 780.86,-181.9 778.71,-183.17 778.71,-183.17 778.71,-183.17 780.86,-181.9 777.57,-181.23 783.02,-180.64 783.02,-180.64"/>
</a>
</g>
</g>
<!-- Node15 -->
<g id="Node000015" class="node">
<title>Node15</title>
<g id="a_Node000015"><a xlink:href="../../d5/d88/classSettingsCache.html#a6142af053f52838bf022a7c5d0e0ce4c" target="_top" xlink:title=" ">
<polygon fill="white" stroke="#666666" points="943,-762.5 783,-762.5 783,-743.5 943,-743.5 943,-762.5"/>
<text text-anchor="middle" x="863" y="-750.5" font-family="Helvetica,sans-Serif" font-size="10.00">SettingsCache::cardDatabase</text>
</a>
</g>
</g>
<!-- Node14&#45;&gt;Node15 -->
<g id="edge16_Node000014_Node000015" class="edge">
<title>Node14&#45;&gt;Node15</title>
<g id="a_edge16_Node000014_Node000015"><a xlink:title=" ">
<path fill="none" stroke="#63b8ff" d="M673.4,-627.37C688.78,-653.95 724.18,-708.23 770,-735 774.32,-737.52 778.93,-739.7 783.7,-741.58"/>
<polygon fill="#63b8ff" stroke="#63b8ff" points="788.52,-743.36 783.05,-743.74 786.17,-742.49 783.83,-741.63 783.83,-741.63 783.83,-741.63 786.17,-742.49 784.61,-739.52 788.52,-743.36 788.52,-743.36"/>
</a>
</g>
</g>
<!-- Node16 -->
<g id="Node000016" class="node">
<title>Node16</title>
<g id="a_Node000016"><a xlink:href="../../d5/d88/classSettingsCache.html#a9203086f195726592cc2f1ebabb97a1f" target="_top" xlink:title=" ">
<polygon fill="white" stroke="#666666" points="938,-725.5 788,-725.5 788,-706.5 938,-706.5 938,-725.5"/>
<text text-anchor="middle" x="863" y="-713.5" font-family="Helvetica,sans-Serif" font-size="10.00">SettingsCache::gameFilters</text>
</a>
</g>
</g>
<!-- Node14&#45;&gt;Node16 -->
<g id="edge17_Node000014_Node000016" class="edge">
<title>Node14&#45;&gt;Node16</title>
<g id="a_edge17_Node000014_Node000016"><a xlink:title=" ">
<path fill="none" stroke="#63b8ff" d="M678.68,-627.11C697.32,-646.7 732.69,-680.45 770,-698 775.75,-700.71 781.89,-703 788.16,-704.96"/>
<polygon fill="#63b8ff" stroke="#63b8ff" points="792.98,-706.38 787.54,-707.12 790.58,-705.67 788.18,-704.96 788.18,-704.96 788.18,-704.96 790.58,-705.67 788.82,-702.81 792.98,-706.38 792.98,-706.38"/>
</a>
</g>
</g>
<!-- Node14&#45;&gt;Node17 -->
<g id="edge19_Node000014_Node000017" class="edge">
<title>Node14&#45;&gt;Node17</title>
<g id="a_edge19_Node000014_Node000017"><a xlink:title=" ">
<path fill="none" stroke="#63b8ff" d="M669.98,-627.01C682.03,-663.63 713.26,-760.6 734,-843 753.38,-920 713.58,-962.12 770,-1018 774.88,-1022.84 780.66,-1026.57 786.9,-1029.43"/>
<polygon fill="#63b8ff" stroke="#63b8ff" points="791.76,-1031.45 786.28,-1031.6 789.45,-1030.49 787.14,-1029.53 787.14,-1029.53 787.14,-1029.53 789.45,-1030.49 788.01,-1027.45 791.76,-1031.45 791.76,-1031.45"/>
</a>
</g>
</g>
<!-- Node18 -->
<g id="Node000018" class="node">
<title>Node18</title>
<g id="a_Node000018"><a xlink:href="../../d5/d88/classSettingsCache.html#a7037026b8832432a3a208fd25ea9156a" target="_top" xlink:title=" ">
<polygon fill="white" stroke="#666666" points="927,-688.5 799,-688.5 799,-669.5 927,-669.5 927,-688.5"/>
<text text-anchor="middle" x="863" y="-676.5" font-family="Helvetica,sans-Serif" font-size="10.00">SettingsCache::servers</text>
</a>
</g>
</g>
<!-- Node14&#45;&gt;Node18 -->
<g id="edge20_Node000014_Node000018" class="edge">
<title>Node14&#45;&gt;Node18</title>
<g id="a_edge20_Node000014_Node000018"><a xlink:title=" ">
<path fill="none" stroke="#63b8ff" d="M693.27,-627.04C714.01,-637.54 743.14,-651.21 770,-660 779.72,-663.18 790.21,-665.95 800.49,-668.3"/>
<polygon fill="#63b8ff" stroke="#63b8ff" points="805.52,-669.43 800.15,-670.53 803.08,-668.88 800.64,-668.34 800.64,-668.34 800.64,-668.34 803.08,-668.88 801.14,-666.14 805.52,-669.43 805.52,-669.43"/>
</a>
</g>
</g>
<!-- Node19 -->
<g id="Node000019" class="node">
<title>Node19</title>
<g id="a_Node000019"><a xlink:href="../../df/db1/classServersSettings.html#ac8fb70f4260de103d41c9310db3f1730" target="_top" xlink:title=" ">
<polygon fill="white" stroke="#666666" points="931.5,-229 794.5,-229 794.5,-199 931.5,-199 931.5,-229"/>
<text text-anchor="start" x="802.5" y="-217" font-family="Helvetica,sans-Serif" font-size="10.00">ServersSettings::setAuto</text>
<text text-anchor="middle" x="863" y="-206" font-family="Helvetica,sans-Serif" font-size="10.00">Connect</text>
</a>
</g>
</g>
<!-- Node14&#45;&gt;Node19 -->
<g id="edge21_Node000014_Node000019" class="edge">
<title>Node14&#45;&gt;Node19</title>
<g id="a_edge21_Node000014_Node000019"><a xlink:title=" ">
<path fill="none" stroke="#63b8ff" d="M668.88,-596.55C686.24,-527.65 756.52,-251.23 770,-238 775.55,-232.55 782.18,-228.29 789.29,-224.98"/>
<polygon fill="#63b8ff" stroke="#63b8ff" points="794.29,-222.83 790.59,-226.87 791.99,-223.81 789.7,-224.8 789.7,-224.8 789.7,-224.8 791.99,-223.81 788.81,-222.74 794.29,-222.83 794.29,-222.83"/>
</a>
</g>
</g>
<!-- Node21 -->
<g id="Node000021" class="node">
<title>Node21</title>
<g id="a_Node000021"><a xlink:href="../../d3/dc1/classMessageSettings.html#aa9733545c935a109f990a75a67341391" target="_top" xlink:title=" ">
<polygon fill="white" stroke="#666666" points="937.5,-1008.5 788.5,-1008.5 788.5,-989.5 937.5,-989.5 937.5,-1008.5"/>
<text text-anchor="middle" x="863" y="-996.5" font-family="Helvetica,sans-Serif" font-size="10.00">MessageSettings::setCount</text>
</a>
</g>
</g>
<!-- Node14&#45;&gt;Node21 -->
<g id="edge23_Node000014_Node000021" class="edge">
<title>Node14&#45;&gt;Node21</title>
<g id="a_edge23_Node000014_Node000021"><a xlink:title=" ">
<path fill="none" stroke="#63b8ff" d="M669.7,-627.08C681.11,-663.87 711.04,-761.19 734,-843 751.01,-903.61 724.31,-936.69 770,-980 774.08,-983.87 778.72,-987.04 783.71,-989.63"/>
<polygon fill="#63b8ff" stroke="#63b8ff" points="788.38,-991.85 782.9,-991.73 786.13,-990.77 783.87,-989.7 783.87,-989.7 783.87,-989.7 786.13,-990.77 784.83,-987.67 788.38,-991.85 788.38,-991.85"/>
</a>
</g>
</g>
<!-- Node22 -->
<g id="Node000022" class="node">
<title>Node22</title>
<g id="a_Node000022"><a xlink:href="../../de/dbe/classCardDatabaseSettings.html#aad6d6521443d33a3a80c74fb12ea2b7d" target="_top" xlink:title=" ">
<polygon fill="white" stroke="#666666" points="925.5,-971 800.5,-971 800.5,-941 925.5,-941 925.5,-971"/>
<text text-anchor="start" x="808.5" y="-959" font-family="Helvetica,sans-Serif" font-size="10.00">CardDatabaseSettings</text>
<text text-anchor="middle" x="863" y="-948" font-family="Helvetica,sans-Serif" font-size="10.00">::setEnabled</text>
</a>
</g>
</g>
<!-- Node14&#45;&gt;Node22 -->
<g id="edge25_Node000014_Node000022" class="edge">
<title>Node14&#45;&gt;Node22</title>
<g id="a_edge25_Node000014_Node000022"><a xlink:title=" ">
<path fill="none" stroke="#63b8ff" d="M669.56,-627.26C688.21,-689.45 758.2,-920.91 770,-932 777.17,-938.74 785.99,-943.64 795.3,-947.2"/>
<polygon fill="#63b8ff" stroke="#63b8ff" points="800.21,-948.93 794.74,-949.39 797.85,-948.1 795.49,-947.27 795.49,-947.27 795.49,-947.27 797.85,-948.1 796.25,-945.14 800.21,-948.93 800.21,-948.93"/>
</a>
</g>
</g>
<!-- Node23 -->
<g id="Node000023" class="node">
<title>Node23</title>
<g id="a_Node000023"><a xlink:href="../../df/db1/classServersSettings.html#af541f9f138d997de84423bc2460a71ea" target="_top" xlink:title=" ">
<polygon fill="white" stroke="#666666" points="952,-922.5 774,-922.5 774,-903.5 952,-903.5 952,-922.5"/>
<text text-anchor="middle" x="863" y="-910.5" font-family="Helvetica,sans-Serif" font-size="10.00">ServersSettings::setFPHostName</text>
</a>
</g>
</g>
<!-- Node14&#45;&gt;Node23 -->
<g id="edge27_Node000014_Node000023" class="edge">
<title>Node14&#45;&gt;Node23</title>
<g id="a_edge27_Node000014_Node000023"><a xlink:title=" ">
<path fill="none" stroke="#63b8ff" d="M668.55,-627.14C681.35,-680.44 726.67,-858.18 770,-895 772.52,-897.14 775.23,-899.06 778.06,-900.77"/>
<polygon fill="#63b8ff" stroke="#63b8ff" points="782.63,-903.3 777.17,-902.85 780.44,-902.09 778.25,-900.88 778.25,-900.88 778.25,-900.88 780.44,-902.09 779.34,-898.91 782.63,-903.3 782.63,-903.3"/>
</a>
</g>
</g>
<!-- Node24 -->
<g id="Node000024" class="node">
<title>Node24</title>
<g id="a_Node000024"><a xlink:href="../../df/db1/classServersSettings.html#af8bd3309b53957bb64f557461ac7d9ea" target="_top" xlink:title=" ">
<polygon fill="white" stroke="#666666" points="956,-885.5 770,-885.5 770,-866.5 956,-866.5 956,-885.5"/>
<text text-anchor="middle" x="863" y="-873.5" font-family="Helvetica,sans-Serif" font-size="10.00">ServersSettings::setFPPlayerName</text>
</a>
</g>
</g>
<!-- Node14&#45;&gt;Node24 -->
<g id="edge29_Node000014_Node000024" class="edge">
<title>Node14&#45;&gt;Node24</title>
<g id="a_edge29_Node000014_Node000024"><a xlink:title=" ">
<path fill="none" stroke="#63b8ff" d="M666.61,-627.03C672.1,-670.42 694.19,-796.66 770,-858 772.66,-860.15 775.5,-862.07 778.47,-863.78"/>
<polygon fill="#63b8ff" stroke="#63b8ff" points="783.25,-866.3 777.78,-865.96 781.04,-865.13 778.83,-863.97 778.83,-863.97 778.83,-863.97 781.04,-865.13 779.88,-861.98 783.25,-866.3 783.25,-866.3"/>
</a>
</g>
</g>
<!-- Node25 -->
<g id="Node000025" class="node">
<title>Node25</title>
<g id="a_Node000025"><a xlink:href="../../df/db1/classServersSettings.html#ac023a258e6b20ff793c419e2ce1cf0a9" target="_top" xlink:title=" ">
<polygon fill="white" stroke="#666666" points="936,-848.5 790,-848.5 790,-829.5 936,-829.5 936,-848.5"/>
<text text-anchor="middle" x="863" y="-836.5" font-family="Helvetica,sans-Serif" font-size="10.00">ServersSettings::setFPPort</text>
</a>
</g>
</g>
<!-- Node14&#45;&gt;Node25 -->
<g id="edge31_Node000014_Node000025" class="edge">
<title>Node14&#45;&gt;Node25</title>
<g id="a_edge31_Node000014_Node000025"><a xlink:title=" ">
<path fill="none" stroke="#63b8ff" d="M667.94,-627.19C676.3,-666.03 704,-769.46 770,-820 774.65,-823.56 779.81,-826.5 785.25,-828.92"/>
<polygon fill="#63b8ff" stroke="#63b8ff" points="789.87,-830.83 784.39,-831 787.56,-829.87 785.25,-828.92 785.25,-828.92 785.25,-828.92 787.56,-829.87 786.11,-826.84 789.87,-830.83 789.87,-830.83"/>
</a>
</g>
</g>
<!-- Node26 -->
<g id="Node000026" class="node">
<title>Node26</title>
<g id="a_Node000026"><a xlink:href="../../df/dd0/classGameFiltersSettings.html#abe3e0fad71cc3919bfcf0ed164e28bd8" target="_top" xlink:title=" ">
<polygon fill="white" stroke="#666666" points="945.5,-811 780.5,-811 780.5,-781 945.5,-781 945.5,-811"/>
<text text-anchor="start" x="788.5" y="-799" font-family="Helvetica,sans-Serif" font-size="10.00">GameFiltersSettings</text>
<text text-anchor="middle" x="863" y="-788" font-family="Helvetica,sans-Serif" font-size="10.00">::setGameHashedTypeEnabled</text>
</a>
</g>
</g>
<!-- Node14&#45;&gt;Node26 -->
<g id="edge33_Node000014_Node000026" class="edge">
<title>Node14&#45;&gt;Node26</title>
<g id="a_edge33_Node000014_Node000026"><a xlink:title=" ">
<path fill="none" stroke="#63b8ff" d="M670.5,-627.01C682.97,-658.9 716.56,-733.64 770,-772 773.47,-774.49 777.18,-776.72 781.04,-778.72"/>
<polygon fill="#63b8ff" stroke="#63b8ff" points="785.64,-780.97 780.16,-780.8 783.39,-779.87 781.15,-778.78 781.15,-778.78 781.15,-778.78 783.39,-779.87 782.13,-776.75 785.64,-780.97 785.64,-780.97"/>
</a>
</g>
</g>
<!-- Node27 -->
<g id="Node000027" class="node">
<title>Node27</title>
<g id="a_Node000027"><a xlink:href="../../df/dd0/classGameFiltersSettings.html#a83937896519de48f99f8e3b196c4fef5" target="_top" xlink:title=" ">
<polygon fill="white" stroke="#666666" points="923.5,-651 802.5,-651 802.5,-621 923.5,-621 923.5,-651"/>
<text text-anchor="start" x="810.5" y="-639" font-family="Helvetica,sans-Serif" font-size="10.00">GameFiltersSettings</text>
<text text-anchor="middle" x="863" y="-628" font-family="Helvetica,sans-Serif" font-size="10.00">::setGameNameFilter</text>
</a>
</g>
</g>
<!-- Node14&#45;&gt;Node27 -->
<g id="edge35_Node000014_Node000027" class="edge">
<title>Node14&#45;&gt;Node27</title>
<g id="a_edge35_Node000014_Node000027"><a xlink:title=" ">
<path fill="none" stroke="#63b8ff" d="M732.25,-620.19C753.3,-622.76 776.47,-625.58 797.34,-628.12"/>
<polygon fill="#63b8ff" stroke="#63b8ff" points="802.31,-628.73 797.08,-630.36 799.83,-628.43 797.35,-628.12 797.35,-628.12 797.35,-628.12 799.83,-628.43 797.62,-625.89 802.31,-628.73 802.31,-628.73"/>
</a>
</g>
</g>
<!-- Node28 -->
<g id="Node000028" class="node">
<title>Node28</title>
<g id="a_Node000028"><a xlink:href="../../df/dd0/classGameFiltersSettings.html#a1362067b0415249084e2f5f89f2c5bfb" target="_top" xlink:title=" ">
<polygon fill="white" stroke="#666666" points="940,-603 786,-603 786,-573 940,-573 940,-603"/>
<text text-anchor="start" x="794" y="-591" font-family="Helvetica,sans-Serif" font-size="10.00">GameFiltersSettings</text>
<text text-anchor="middle" x="863" y="-580" font-family="Helvetica,sans-Serif" font-size="10.00">::setHideIgnoredUserGames</text>
</a>
</g>
</g>
<!-- Node14&#45;&gt;Node28 -->
<g id="edge37_Node000014_Node000028" class="edge">
<title>Node14&#45;&gt;Node28</title>
<g id="a_edge37_Node000014_Node000028"><a xlink:title=" ">
<path fill="none" stroke="#63b8ff" d="M732.25,-603.81C747.9,-601.9 764.73,-599.85 780.92,-597.88"/>
<polygon fill="#63b8ff" stroke="#63b8ff" points="785.92,-597.27 781.23,-600.11 783.44,-597.57 780.96,-597.87 780.96,-597.87 780.96,-597.87 783.44,-597.57 780.68,-595.64 785.92,-597.27 785.92,-597.27"/>
</a>
</g>
</g>
<!-- Node29 -->
<g id="Node000029" class="node">
<title>Node29</title>
<g id="a_Node000029"><a xlink:href="../../de/dbe/classCardDatabaseSettings.html#a06bb3199840818021504d99a472818a7" target="_top" xlink:title=" ">
<polygon fill="white" stroke="#666666" points="925.5,-555 800.5,-555 800.5,-525 925.5,-525 925.5,-555"/>
<text text-anchor="start" x="808.5" y="-543" font-family="Helvetica,sans-Serif" font-size="10.00">CardDatabaseSettings</text>
<text text-anchor="middle" x="863" y="-532" font-family="Helvetica,sans-Serif" font-size="10.00">::setIsKnown</text>
</a>
</g>
</g>
<!-- Node14&#45;&gt;Node29 -->
<g id="edge39_Node000014_Node000029" class="edge">
<title>Node14&#45;&gt;Node29</title>
<g id="a_edge39_Node000014_Node000029"><a xlink:title=" ">
<path fill="none" stroke="#63b8ff" d="M694.3,-596.94C715.05,-586.69 743.75,-573.34 770,-564 777.98,-561.16 786.47,-558.49 794.93,-556.04"/>
<polygon fill="#63b8ff" stroke="#63b8ff" points="800.19,-554.55 795.99,-558.08 797.78,-555.23 795.38,-555.91 795.38,-555.91 795.38,-555.91 797.78,-555.23 794.76,-553.75 800.19,-554.55 800.19,-554.55"/>
</a>
</g>
</g>
<!-- Node30 -->
<g id="Node000030" class="node">
<title>Node30</title>
<g id="a_Node000030"><a xlink:href="../../df/dd0/classGameFiltersSettings.html#abd3ff2823682e59bfa87c38e09a093c0" target="_top" xlink:title=" ">
<polygon fill="white" stroke="#666666" points="921,-507 805,-507 805,-477 921,-477 921,-507"/>
<text text-anchor="start" x="813" y="-495" font-family="Helvetica,sans-Serif" font-size="10.00">GameFiltersSettings</text>
<text text-anchor="middle" x="863" y="-484" font-family="Helvetica,sans-Serif" font-size="10.00">::setMaxPlayers</text>
</a>
</g>
</g>
<!-- Node14&#45;&gt;Node30 -->
<g id="edge41_Node000014_Node000030" class="edge">
<title>Node14&#45;&gt;Node30</title>
<g id="a_edge41_Node000014_Node000030"><a xlink:title=" ">
<path fill="none" stroke="#63b8ff" d="M677.24,-596.9C695.3,-575.64 731.16,-537.12 770,-516 779.22,-510.99 789.54,-506.98 799.84,-503.8"/>
<polygon fill="#63b8ff" stroke="#63b8ff" points="804.89,-502.3 800.74,-505.88 802.49,-503.01 800.1,-503.72 800.1,-503.72 800.1,-503.72 802.49,-503.01 799.46,-501.56 804.89,-502.3 804.89,-502.3"/>
</a>
</g>
</g>
<!-- Node31 -->
<g id="Node000031" class="node">
<title>Node31</title>
<g id="a_Node000031"><a xlink:href="../../d3/dc1/classMessageSettings.html#a778994c40f5eccf153d5ad855eac706e" target="_top" xlink:title=" ">
<polygon fill="white" stroke="#666666" points="950.5,-458.5 775.5,-458.5 775.5,-439.5 950.5,-439.5 950.5,-458.5"/>
<text text-anchor="middle" x="863" y="-446.5" font-family="Helvetica,sans-Serif" font-size="10.00">MessageSettings::setMessageAt</text>
</a>
</g>
</g>
<!-- Node14&#45;&gt;Node31 -->
<g id="edge43_Node000014_Node000031" class="edge">
<title>Node14&#45;&gt;Node31</title>
<g id="a_edge43_Node000014_Node000031"><a xlink:title=" ">
<path fill="none" stroke="#63b8ff" d="M671.4,-596.93C684.9,-567.12 719.28,-500.67 770,-468 774.62,-465.02 779.62,-462.5 784.81,-460.37"/>
<polygon fill="#63b8ff" stroke="#63b8ff" points="789.63,-458.51 785.77,-462.41 787.3,-459.41 784.96,-460.31 784.96,-460.31 784.96,-460.31 787.3,-459.41 784.16,-458.21 789.63,-458.51 789.63,-458.51"/>
</a>
</g>
</g>
<!-- Node32 -->
<g id="Node000032" class="node">
<title>Node32</title>
<g id="a_Node000032"><a xlink:href="../../df/dd0/classGameFiltersSettings.html#a3b0d80a6360c0ed8f43656f702b3f0f1" target="_top" xlink:title=" ">
<polygon fill="white" stroke="#666666" points="921,-421 805,-421 805,-391 921,-391 921,-421"/>
<text text-anchor="start" x="813" y="-409" font-family="Helvetica,sans-Serif" font-size="10.00">GameFiltersSettings</text>
<text text-anchor="middle" x="863" y="-398" font-family="Helvetica,sans-Serif" font-size="10.00">::setMinPlayers</text>
</a>
</g>
</g>
<!-- Node14&#45;&gt;Node32 -->
<g id="edge45_Node000014_Node000032" class="edge">
<title>Node14&#45;&gt;Node32</title>
<g id="a_edge45_Node000014_Node000032"><a xlink:title=" ">
<path fill="none" stroke="#63b8ff" d="M669.36,-596.95C680.23,-562.13 711.96,-475.6 770,-431 778.76,-424.27 789.21,-419.34 799.88,-415.75"/>
<polygon fill="#63b8ff" stroke="#63b8ff" points="804.78,-414.19 800.7,-417.84 802.4,-414.94 800.02,-415.7 800.02,-415.7 800.02,-415.7 802.4,-414.94 799.34,-413.56 804.78,-414.19 804.78,-414.19"/>
</a>
</g>
</g>
<!-- Node33 -->
<g id="Node000033" class="node">
<title>Node33</title>
<g id="a_Node000033"><a xlink:href="../../df/db1/classServersSettings.html#a8436f13d3dbef9de86b6b41616aed38d" target="_top" xlink:title=" ">
<polygon fill="white" stroke="#666666" points="941,-373 785,-373 785,-343 941,-343 941,-373"/>
<text text-anchor="start" x="793" y="-361" font-family="Helvetica,sans-Serif" font-size="10.00">ServersSettings::setPrevious</text>
<text text-anchor="middle" x="863" y="-350" font-family="Helvetica,sans-Serif" font-size="10.00">HostList</text>
</a>
</g>
</g>
<!-- Node14&#45;&gt;Node33 -->
<g id="edge47_Node000014_Node000033" class="edge">
<title>Node14&#45;&gt;Node33</title>
<g id="a_edge47_Node000014_Node000033"><a xlink:title=" ">
<path fill="none" stroke="#63b8ff" d="M667.32,-596.97C674.47,-555.86 700.1,-440.74 770,-382 773.04,-379.44 776.32,-377.16 779.77,-375.11"/>
<polygon fill="#63b8ff" stroke="#63b8ff" points="784.58,-372.47 781.28,-376.85 782.39,-373.67 780.2,-374.88 780.2,-374.88 780.2,-374.88 782.39,-373.67 779.11,-372.91 784.58,-372.47 784.58,-372.47"/>
</a>
</g>
</g>
<!-- Node34 -->
<g id="Node000034" class="node">
<title>Node34</title>
<g id="a_Node000034"><a xlink:href="../../df/db1/classServersSettings.html#a0742cf1f663eaaaccddae7bf6f03b670" target="_top" xlink:title=" ">
<polygon fill="white" stroke="#666666" points="941,-325 785,-325 785,-295 941,-295 941,-325"/>
<text text-anchor="start" x="793" y="-313" font-family="Helvetica,sans-Serif" font-size="10.00">ServersSettings::setPrevious</text>
<text text-anchor="middle" x="863" y="-302" font-family="Helvetica,sans-Serif" font-size="10.00">HostLogin</text>
</a>
</g>
</g>
<!-- Node14&#45;&gt;Node34 -->
<g id="edge49_Node000014_Node000034" class="edge">
<title>Node14&#45;&gt;Node34</title>
<g id="a_edge49_Node000014_Node000034"><a xlink:title=" ">
<path fill="none" stroke="#63b8ff" d="M666,-597C669.95,-550.46 688.48,-407.31 770,-334 773.18,-331.14 776.65,-328.62 780.33,-326.39"/>
<polygon fill="#63b8ff" stroke="#63b8ff" points="784.74,-323.91 781.49,-328.32 782.56,-325.13 780.38,-326.36 780.38,-326.36 780.38,-326.36 782.56,-325.13 779.28,-324.4 784.74,-323.91 784.74,-323.91"/>
</a>
</g>
</g>
<!-- Node35 -->
<g id="Node000035" class="node">
<title>Node35</title>
<g id="a_Node000035"><a xlink:href="../../de/dbe/classCardDatabaseSettings.html#a638768afda3a6eb230aaf7b6ced129b4" target="_top" xlink:title=" ">
<polygon fill="white" stroke="#666666" points="925.5,-277 800.5,-277 800.5,-247 925.5,-247 925.5,-277"/>
<text text-anchor="start" x="808.5" y="-265" font-family="Helvetica,sans-Serif" font-size="10.00">CardDatabaseSettings</text>
<text text-anchor="middle" x="863" y="-254" font-family="Helvetica,sans-Serif" font-size="10.00">::setSortKey</text>
</a>
</g>
</g>
<!-- Node14&#45;&gt;Node35 -->
<g id="edge51_Node000014_Node000035" class="edge">
<title>Node14&#45;&gt;Node35</title>
<g id="a_edge51_Node000014_Node000035"><a xlink:title=" ">
<path fill="none" stroke="#63b8ff" d="M667.9,-596.74C679.28,-538.45 722.57,-330.82 770,-286 777.15,-279.24 785.96,-274.33 795.27,-270.77"/>
<polygon fill="#63b8ff" stroke="#63b8ff" points="800.17,-269.03 796.21,-272.82 797.82,-269.86 795.46,-270.7 795.46,-270.7 795.46,-270.7 797.82,-269.86 794.71,-268.58 800.17,-269.03 800.17,-269.03"/>
</a>
</g>
</g>
<!-- Node20 -->
<g id="Node000020" class="node">
<title>Node20</title>
<g id="a_Node000020"><a xlink:href="../../d1/dea/classSettingsManager.html#a969f11d98d00ca6d3d776d2175d31714" target="_top" xlink:title=" ">
<polygon fill="white" stroke="#666666" points="1141.5,-573.5 994.5,-573.5 994.5,-554.5 1141.5,-554.5 1141.5,-573.5"/>
<text text-anchor="middle" x="1068" y="-561.5" font-family="Helvetica,sans-Serif" font-size="10.00">SettingsManager::setValue</text>
</a>
</g>
</g>
<!-- Node19&#45;&gt;Node20 -->
<g id="edge22_Node000019_Node000020" class="edge">
<title>Node19&#45;&gt;Node20</title>
<g id="a_edge22_Node000019_Node000020"><a xlink:title=" ">
<path fill="none" stroke="#63b8ff" d="M931.86,-223.35C940.73,-226.85 949.11,-231.59 956,-238 1050.64,-325.98 1064.6,-497.76 1066.65,-549.14"/>
<polygon fill="#63b8ff" stroke="#63b8ff" points="1066.83,-554.27 1064.4,-549.35 1066.74,-551.77 1066.65,-549.27 1066.65,-549.27 1066.65,-549.27 1066.74,-551.77 1068.9,-549.19 1066.83,-554.27 1066.83,-554.27"/>
</a>
</g>
</g>
<!-- Node21&#45;&gt;Node20 -->
<g id="edge24_Node000021_Node000020" class="edge">
<title>Node21&#45;&gt;Node20</title>
<g id="a_edge24_Node000021_Node000020"><a xlink:title=" ">
<path fill="none" stroke="#63b8ff" d="M937.6,-991.83C944.36,-988.89 950.66,-985.04 956,-980 1016.92,-922.46 1056.27,-646.64 1065.11,-579"/>
<polygon fill="#63b8ff" stroke="#63b8ff" points="1065.78,-573.8 1067.37,-579.05 1065.46,-576.28 1065.14,-578.76 1065.14,-578.76 1065.14,-578.76 1065.46,-576.28 1062.91,-578.47 1065.78,-573.8 1065.78,-573.8"/>
</a>
</g>
</g>
<!-- Node22&#45;&gt;Node20 -->
<g id="edge26_Node000022_Node000020" class="edge">
<title>Node22&#45;&gt;Node20</title>
<g id="a_edge26_Node000022_Node000020"><a xlink:title=" ">
<path fill="none" stroke="#63b8ff" d="M925.94,-949.09C937.03,-945.44 947.68,-940.01 956,-932 1061.03,-830.86 1067.63,-634.29 1067.31,-578.87"/>
<polygon fill="#63b8ff" stroke="#63b8ff" points="1067.26,-573.67 1069.56,-578.64 1067.29,-576.17 1067.31,-578.67 1067.31,-578.67 1067.31,-578.67 1067.29,-576.17 1065.06,-578.69 1067.26,-573.67 1067.26,-573.67"/>
</a>
</g>
</g>
<!-- Node23&#45;&gt;Node20 -->
<g id="edge28_Node000023_Node000020" class="edge">
<title>Node23&#45;&gt;Node20</title>
<g id="a_edge28_Node000023_Node000020"><a xlink:title=" ">
<path fill="none" stroke="#63b8ff" d="M943.49,-903.44C947.98,-901.11 952.21,-898.33 956,-895 1054.68,-808.41 1065.84,-631.38 1066.93,-578.95"/>
<polygon fill="#63b8ff" stroke="#63b8ff" points="1067.02,-573.72 1069.19,-578.76 1066.98,-576.22 1066.94,-578.72 1066.94,-578.72 1066.94,-578.72 1066.98,-576.22 1064.69,-578.69 1067.02,-573.72 1067.02,-573.72"/>
</a>
</g>
</g>
<!-- Node24&#45;&gt;Node20 -->
<g id="edge30_Node000024_Node000020" class="edge">
<title>Node24&#45;&gt;Node20</title>
<g id="a_edge30_Node000024_Node000020"><a xlink:title=" ">
<path fill="none" stroke="#63b8ff" d="M942.91,-866.49C947.6,-864.16 952.02,-861.36 956,-858 1045.29,-782.56 1062.87,-627.48 1066.23,-578.89"/>
<polygon fill="#63b8ff" stroke="#63b8ff" points="1066.56,-573.76 1068.48,-578.89 1066.4,-576.26 1066.24,-578.75 1066.24,-578.75 1066.24,-578.75 1066.4,-576.26 1063.99,-578.61 1066.56,-573.76 1066.56,-573.76"/>
</a>
</g>
</g>
<!-- Node25&#45;&gt;Node20 -->
<g id="edge32_Node000025_Node000020" class="edge">
<title>Node25&#45;&gt;Node20</title>
<g id="a_edge32_Node000025_Node000020"><a xlink:title=" ">
<path fill="none" stroke="#63b8ff" d="M936.41,-831.17C943.48,-828.38 950.18,-824.73 956,-820 1035.48,-755.38 1059.39,-622.85 1065.31,-578.69"/>
<polygon fill="#63b8ff" stroke="#63b8ff" points="1065.97,-573.52 1067.57,-578.76 1065.65,-576 1065.33,-578.48 1065.33,-578.48 1065.33,-578.48 1065.65,-576 1063.1,-578.19 1065.97,-573.52 1065.97,-573.52"/>
</a>
</g>
</g>
<!-- Node26&#45;&gt;Node20 -->
<g id="edge34_Node000026_Node000020" class="edge">
<title>Node26&#45;&gt;Node20</title>
<g id="a_edge34_Node000026_Node000020"><a xlink:title=" ">
<path fill="none" stroke="#63b8ff" d="M941.62,-781C946.73,-778.45 951.59,-775.48 956,-772 1022.16,-719.81 1053.7,-617.04 1063.51,-578.8"/>
<polygon fill="#63b8ff" stroke="#63b8ff" points="1064.8,-573.64 1065.77,-579.03 1064.19,-576.06 1063.59,-578.49 1063.59,-578.49 1063.59,-578.49 1064.19,-576.06 1061.4,-577.94 1064.8,-573.64 1064.8,-573.64"/>
</a>
</g>
</g>
<!-- Node27&#45;&gt;Node20 -->
<g id="edge36_Node000027_Node000020" class="edge">
<title>Node27&#45;&gt;Node20</title>
<g id="a_edge36_Node000027_Node000020"><a xlink:title=" ">
<path fill="none" stroke="#63b8ff" d="M923.79,-621.83C934.59,-618.86 945.7,-615.55 956,-612 986.58,-601.47 1020.55,-586.23 1042.76,-575.77"/>
<polygon fill="#63b8ff" stroke="#63b8ff" points="1047.31,-573.61 1043.76,-577.78 1045.05,-574.68 1042.79,-575.75 1042.79,-575.75 1042.79,-575.75 1045.05,-574.68 1041.83,-573.71 1047.31,-573.61 1047.31,-573.61"/>
</a>
</g>
</g>
<!-- Node28&#45;&gt;Node20 -->
<g id="edge38_Node000028_Node000020" class="edge">
<title>Node28&#45;&gt;Node20</title>
<g id="a_edge38_Node000028_Node000020"><a xlink:title=" ">
<path fill="none" stroke="#63b8ff" d="M940.17,-579C956.28,-577.09 973.3,-575.08 989.45,-573.17"/>
<polygon fill="#63b8ff" stroke="#63b8ff" points="994.44,-572.58 989.74,-575.4 991.96,-572.87 989.47,-573.17 989.47,-573.17 989.47,-573.17 991.96,-572.87 989.21,-570.93 994.44,-572.58 994.44,-572.58"/>
</a>
</g>
</g>
<!-- Node29&#45;&gt;Node20 -->
<g id="edge40_Node000029_Node000020" class="edge">
<title>Node29&#45;&gt;Node20</title>
<g id="a_edge40_Node000029_Node000020"><a xlink:title=" ">
<path fill="none" stroke="#63b8ff" d="M925.73,-547.3C945.71,-549.66 968.13,-552.31 989.12,-554.79"/>
<polygon fill="#63b8ff" stroke="#63b8ff" points="994.14,-555.39 988.91,-557.03 991.66,-555.09 989.18,-554.8 989.18,-554.8 989.18,-554.8 991.66,-555.09 989.44,-552.56 994.14,-555.39 994.14,-555.39"/>
</a>
</g>
</g>
<!-- Node30&#45;&gt;Node20 -->
<g id="edge42_Node000030_Node000020" class="edge">
<title>Node30&#45;&gt;Node20</title>
<g id="a_edge42_Node000030_Node000020"><a xlink:title=" ">
<path fill="none" stroke="#63b8ff" d="M921.33,-505.51C932.91,-508.64 944.92,-512.18 956,-516 986.58,-526.53 1020.55,-541.77 1042.76,-552.23"/>
<polygon fill="#63b8ff" stroke="#63b8ff" points="1047.31,-554.39 1041.83,-554.29 1045.05,-553.32 1042.79,-552.25 1042.79,-552.25 1042.79,-552.25 1045.05,-553.32 1043.76,-550.22 1047.31,-554.39 1047.31,-554.39"/>
</a>
</g>
</g>
<!-- Node31&#45;&gt;Node20 -->
<g id="edge44_Node000031_Node000020" class="edge">
<title>Node31&#45;&gt;Node20</title>
<g id="a_edge44_Node000031_Node000020"><a xlink:title=" ">
<path fill="none" stroke="#63b8ff" d="M930.69,-458.54C939.44,-461 948.1,-464.1 956,-468 997.98,-488.72 1036.89,-529.15 1055.5,-550.33"/>
<polygon fill="#63b8ff" stroke="#63b8ff" points="1058.95,-554.29 1053.97,-551.99 1057.31,-552.41 1055.67,-550.52 1055.67,-550.52 1055.67,-550.52 1057.31,-552.41 1057.36,-549.04 1058.95,-554.29 1058.95,-554.29"/>
</a>
</g>
</g>
<!-- Node32&#45;&gt;Node20 -->
<g id="edge46_Node000032_Node000020" class="edge">
<title>Node32&#45;&gt;Node20</title>
<g id="a_edge46_Node000032_Node000020"><a xlink:title=" ">
<path fill="none" stroke="#63b8ff" d="M921.27,-415.77C933.33,-419.38 945.55,-424.3 956,-431 1005.06,-462.47 1043.45,-522.51 1059.21,-549.83"/>
<polygon fill="#63b8ff" stroke="#63b8ff" points="1061.72,-554.23 1057.29,-551 1060.48,-552.06 1059.24,-549.89 1059.24,-549.89 1059.24,-549.89 1060.48,-552.06 1061.2,-548.77 1061.72,-554.23 1061.72,-554.23"/>
</a>
</g>
</g>
<!-- Node33&#45;&gt;Node20 -->
<g id="edge48_Node000033_Node000020" class="edge">
<title>Node33&#45;&gt;Node20</title>
<g id="a_edge48_Node000033_Node000020"><a xlink:title=" ">
<path fill="none" stroke="#63b8ff" d="M940.94,-373.07C946.27,-375.6 951.36,-378.55 956,-382 1016.06,-426.64 1050.49,-514.29 1062.31,-549.17"/>
<polygon fill="#63b8ff" stroke="#63b8ff" points="1064.01,-554.3 1060.3,-550.26 1063.22,-551.93 1062.44,-549.56 1062.44,-549.56 1062.44,-549.56 1063.22,-551.93 1064.57,-548.85 1064.01,-554.3 1064.01,-554.3"/>
</a>
</g>
</g>
<!-- Node34&#45;&gt;Node20 -->
<g id="edge50_Node000034_Node000020" class="edge">
<title>Node34&#45;&gt;Node20</title>
<g id="a_edge50_Node000034_Node000020"><a xlink:title=" ">
<path fill="none" stroke="#63b8ff" d="M941.33,-324.57C946.58,-327.22 951.54,-330.33 956,-334 1027.45,-392.75 1056.16,-508.5 1064.34,-549.33"/>
<polygon fill="#63b8ff" stroke="#63b8ff" points="1065.32,-554.36 1062.16,-549.88 1064.85,-551.91 1064.37,-549.45 1064.37,-549.45 1064.37,-549.45 1064.85,-551.91 1066.58,-549.02 1065.32,-554.36 1065.32,-554.36"/>
</a>
</g>
</g>
<!-- Node35&#45;&gt;Node20 -->
<g id="edge52_Node000035_Node000020" class="edge">
<title>Node35&#45;&gt;Node20</title>
<g id="a_edge52_Node000035_Node000020"><a xlink:title=" ">
<path fill="none" stroke="#63b8ff" d="M925.88,-269.65C936.84,-273.25 947.46,-278.46 956,-286 1038.94,-359.19 1060.69,-502.85 1065.67,-549.2"/>
<polygon fill="#63b8ff" stroke="#63b8ff" points="1066.2,-554.36 1063.45,-549.62 1065.94,-551.88 1065.69,-549.39 1065.69,-549.39 1065.69,-549.39 1065.94,-551.88 1067.93,-549.16 1066.2,-554.36 1066.2,-554.36"/>
</a>
</g>
</g>
</g>
</svg>
