<?xml version="1.0" encoding="UTF-8" standalone="no"?>
<!DOCTYPE svg PUBLIC "-//W3C//DTD SVG 1.1//EN"
 "http://www.w3.org/Graphics/SVG/1.1/DTD/svg11.dtd">
<!-- Generated by graphviz version 2.43.0 (0)
 -->
<!-- Title: ManaCurveWidget::loadConfig Pages: 1 -->
<svg width="551pt" height="82pt"
 viewBox="0.00 0.00 551.00 82.00" xmlns="http://www.w3.org/2000/svg" xmlns:xlink="http://www.w3.org/1999/xlink">
<g id="graph0" class="graph" transform="scale(1 1) rotate(0) translate(4 78)">
<title>ManaCurveWidget::loadConfig</title>
<!-- Node1 -->
<g id="Node000001" class="node">
<title>Node1</title>
<g id="a_Node000001"><a xlink:title=" ">
<polygon fill="#999999" stroke="#666666" points="164,-55 0,-55 0,-36 164,-36 164,-55"/>
<text text-anchor="middle" x="82" y="-43" font-family="Helvetica,sans-Serif" font-size="10.00">ManaCurveWidget::loadConfig</text>
</a>
</g>
</g>
<!-- Node2 -->
<g id="Node000002" class="node">
<title>Node2</title>
<g id="a_Node000002"><a xlink:href="../../d6/d55/structManaCurveConfig.html#ab5e39183d782417acb647cc7eb8d27ab" target="_top" xlink:title=" ">
<polygon fill="white" stroke="#666666" points="367.5,-74 215.5,-74 215.5,-55 367.5,-55 367.5,-74"/>
<text text-anchor="middle" x="291.5" y="-62" font-family="Helvetica,sans-Serif" font-size="10.00">ManaCurveConfig::fromJson</text>
</a>
</g>
</g>
<!-- Node1&#45;&gt;Node2 -->
<g id="edge1_Node000001_Node000002" class="edge">
<title>Node1&#45;&gt;Node2</title>
<g id="a_edge1_Node000001_Node000002"><a xlink:title=" ">
<path fill="none" stroke="#63b8ff" d="M164.12,-52.93C179.23,-54.31 195.02,-55.76 210.11,-57.14"/>
<polygon fill="#63b8ff" stroke="#63b8ff" points="215.2,-57.61 210.02,-59.39 212.71,-57.38 210.22,-57.15 210.22,-57.15 210.22,-57.15 212.71,-57.38 210.43,-54.91 215.2,-57.61 215.2,-57.61"/>
</a>
</g>
</g>
<!-- Node3 -->
<g id="Node000003" class="node">
<title>Node3</title>
<g id="a_Node000003"><a xlink:href="../../d2/da3/classManaCurveWidget.html#a214a825b43fd988b8ee5c9424afbe3c9" target="_top" xlink:title=" ">
<polygon fill="white" stroke="#666666" points="383,-37 200,-37 200,-18 383,-18 383,-37"/>
<text text-anchor="middle" x="291.5" y="-25" font-family="Helvetica,sans-Serif" font-size="10.00">ManaCurveWidget::updateDisplay</text>
</a>
</g>
</g>
<!-- Node1&#45;&gt;Node3 -->
<g id="edge2_Node000001_Node000003" class="edge">
<title>Node1&#45;&gt;Node3</title>
<g id="a_edge2_Node000001_Node000003"><a xlink:title=" ">
<path fill="none" stroke="#63b8ff" d="M164.12,-38.46C174.18,-37.59 184.54,-36.69 194.79,-35.8"/>
<polygon fill="#63b8ff" stroke="#63b8ff" points="199.82,-35.37 195.03,-38.04 197.33,-35.58 194.83,-35.8 194.83,-35.8 194.83,-35.8 197.33,-35.58 194.64,-33.56 199.82,-35.37 199.82,-35.37"/>
</a>
</g>
</g>
<!-- Node4 -->
<g id="Node000004" class="node">
<title>Node4</title>
<g id="a_Node000004"><a xlink:href="../../df/d3e/mana__curve__widget_8cpp.html#aef75eb9139879fdb765d54726d3fb530" target="_top" xlink:title=" ">
<polygon fill="white" stroke="#666666" points="543,-56 419,-56 419,-37 543,-37 543,-56"/>
<text text-anchor="middle" x="481" y="-44" font-family="Helvetica,sans-Serif" font-size="10.00">buildMapsByCategory</text>
</a>
</g>
</g>
<!-- Node3&#45;&gt;Node4 -->
<g id="edge3_Node000003_Node000004" class="edge">
<title>Node3&#45;&gt;Node4</title>
<g id="a_edge3_Node000003_Node000004"><a xlink:title=" ">
<path fill="none" stroke="#63b8ff" d="M383.23,-36.69C393.5,-37.73 403.81,-38.78 413.69,-39.78"/>
<polygon fill="#63b8ff" stroke="#63b8ff" points="418.81,-40.3 413.6,-42.03 416.32,-40.05 413.83,-39.79 413.83,-39.79 413.83,-39.79 416.32,-40.05 414.06,-37.56 418.81,-40.3 418.81,-40.3"/>
</a>
</g>
</g>
<!-- Node5 -->
<g id="Node000005" class="node">
<title>Node5</title>
<g id="a_Node000005"><a xlink:href="../../df/d3e/mana__curve__widget_8cpp.html#a546dfd67431dfb43aa56236af1977640" target="_top" xlink:title=" ">
<polygon fill="white" stroke="#666666" points="540.5,-19 421.5,-19 421.5,0 540.5,0 540.5,-19"/>
<text text-anchor="middle" x="481" y="-7" font-family="Helvetica,sans-Serif" font-size="10.00">findGlobalCmcRange</text>
</a>
</g>
</g>
<!-- Node3&#45;&gt;Node5 -->
<g id="edge4_Node000003_Node000005" class="edge">
<title>Node3&#45;&gt;Node5</title>
<g id="a_edge4_Node000003_Node000005"><a xlink:title=" ">
<path fill="none" stroke="#63b8ff" d="M383.23,-18.79C394.4,-17.72 405.62,-16.64 416.26,-15.62"/>
<polygon fill="#63b8ff" stroke="#63b8ff" points="421.44,-15.12 416.68,-17.84 418.95,-15.36 416.46,-15.6 416.46,-15.6 416.46,-15.6 418.95,-15.36 416.25,-13.36 421.44,-15.12 421.44,-15.12"/>
</a>
</g>
</g>
</g>
</svg>
