<?xml version="1.0" encoding="UTF-8" standalone="no"?>
<!DOCTYPE svg PUBLIC "-//W3C//DTD SVG 1.1//EN"
 "http://www.w3.org/Graphics/SVG/1.1/DTD/svg11.dtd">
<!-- Generated by graphviz version 2.43.0 (0)
 -->
<!-- Title: DeckListHistoryManagerWidget Pages: 1 -->
<svg width="1125pt" height="364pt"
 viewBox="0.00 0.00 1125.00 364.00" xmlns="http://www.w3.org/2000/svg" xmlns:xlink="http://www.w3.org/1999/xlink">
<g id="graph0" class="graph" transform="scale(1 1) rotate(0) translate(4 360)">
<title>DeckListHistoryManagerWidget</title>
<!-- Node1 -->
<g id="Node000001" class="node">
<title>Node1</title>
<g id="a_Node000001"><a xlink:title=" ">
<polygon fill="#999999" stroke="#666666" points="1117,-241 946,-241 946,-222 1117,-222 1117,-241"/>
<text text-anchor="middle" x="1031.5" y="-229" font-family="Helvetica,sans-Serif" font-size="10.00">DeckListHistoryManagerWidget</text>
</a>
</g>
</g>
<!-- Node2 -->
<g id="Node000002" class="node">
<title>Node2</title>
<g id="a_Node000002"><a xlink:title=" ">
<polygon fill="white" stroke="#666666" points="298,-318 239,-318 239,-299 298,-299 298,-318"/>
<text text-anchor="middle" x="268.5" y="-306" font-family="Helvetica,sans-Serif" font-size="10.00">QWidget</text>
</a>
</g>
</g>
<!-- Node2&#45;&gt;Node1 -->
<g id="edge1_Node000001_Node000002" class="edge">
<title>Node2&#45;&gt;Node1</title>
<g id="a_edge1_Node000001_Node000002"><a xlink:title=" ">
<path fill="none" stroke="#63b8ff" d="M303.13,-305.77C400.17,-297.77 689,-273.24 928,-245.5 939.6,-244.15 951.91,-242.59 963.83,-241"/>
<polygon fill="#63b8ff" stroke="#63b8ff" points="298.1,-306.18 302.9,-303.53 300.6,-305.97 303.09,-305.77 303.09,-305.77 303.09,-305.77 300.6,-305.97 303.27,-308.01 298.1,-306.18 298.1,-306.18"/>
</a>
</g>
</g>
<!-- Node14 -->
<g id="Node000014" class="node">
<title>Node14</title>
<g id="a_Node000014"><a xlink:href="../../d2/dd6/classSettingsButtonWidget.html" target="_top" xlink:title=" ">
<polygon fill="white" stroke="#666666" points="836,-318 713,-318 713,-299 836,-299 836,-318"/>
<text text-anchor="middle" x="774.5" y="-306" font-family="Helvetica,sans-Serif" font-size="10.00">SettingsButtonWidget</text>
</a>
</g>
</g>
<!-- Node2&#45;&gt;Node14 -->
<g id="edge17_Node000014_Node000002" class="edge">
<title>Node2&#45;&gt;Node14</title>
<g id="a_edge17_Node000014_Node000002"><a xlink:title=" ">
<path fill="none" stroke="#63b8ff" d="M303.12,-308.5C386.91,-308.5 605.93,-308.5 712.92,-308.5"/>
<polygon fill="#63b8ff" stroke="#63b8ff" points="298.04,-308.5 303.04,-306.25 300.54,-308.5 303.04,-308.5 303.04,-308.5 303.04,-308.5 300.54,-308.5 303.04,-310.75 298.04,-308.5 298.04,-308.5"/>
</a>
</g>
</g>
<!-- Node15 -->
<g id="Node000015" class="node">
<title>Node15</title>
<g id="a_Node000015"><a xlink:href="../../d1/d7d/classSettingsPopupWidget.html" target="_top" xlink:title=" ">
<polygon fill="white" stroke="#666666" points="539.5,-356 418.5,-356 418.5,-337 539.5,-337 539.5,-356"/>
<text text-anchor="middle" x="479" y="-344" font-family="Helvetica,sans-Serif" font-size="10.00">SettingsPopupWidget</text>
</a>
</g>
</g>
<!-- Node2&#45;&gt;Node15 -->
<g id="edge19_Node000015_Node000002" class="edge">
<title>Node2&#45;&gt;Node15</title>
<g id="a_edge19_Node000015_Node000002"><a xlink:title=" ">
<path fill="none" stroke="#63b8ff" d="M303.49,-315.42C315.06,-317.73 328.09,-320.28 340,-322.5 366.78,-327.49 396.54,-332.7 421.55,-336.99"/>
<polygon fill="#63b8ff" stroke="#63b8ff" points="298.28,-314.38 303.63,-313.15 300.73,-314.87 303.19,-315.36 303.19,-315.36 303.19,-315.36 300.73,-314.87 302.74,-317.57 298.28,-314.38 298.28,-314.38"/>
</a>
</g>
</g>
<!-- Node3 -->
<g id="Node000003" class="node">
<title>Node3</title>
<g id="a_Node000003"><a xlink:href="../../d9/de1/classDeckListModel.html" target="_top" xlink:title="Qt model representing a decklist for use in views (tree/table).">
<polygon fill="white" stroke="#666666" points="819,-171 730,-171 730,-152 819,-152 819,-171"/>
<text text-anchor="middle" x="774.5" y="-159" font-family="Helvetica,sans-Serif" font-size="10.00">DeckListModel</text>
</a>
</g>
</g>
<!-- Node3&#45;&gt;Node1 -->
<g id="edge2_Node000001_Node000003" class="edge">
<title>Node3&#45;&gt;Node1</title>
<g id="a_edge2_Node000001_Node000003"><a xlink:title=" ">
<path fill="none" stroke="#9a32cd" stroke-dasharray="5,2" d="M815.13,-172.38C864.57,-185.95 948.34,-208.95 995.51,-221.9"/>
<polygon fill="#9a32cd" stroke="#9a32cd" points="810.16,-171.01 815.57,-170.17 812.57,-171.68 814.98,-172.34 814.98,-172.34 814.98,-172.34 812.57,-171.68 814.38,-174.51 810.16,-171.01 810.16,-171.01"/>
</a>
</g>
<text text-anchor="middle" x="891" y="-205.5" font-family="Helvetica,sans-Serif" font-size="10.00" fill="grey"> deckListModel</text>
</g>
<!-- Node4 -->
<g id="Node000004" class="node">
<title>Node4</title>
<g id="a_Node000004"><a xlink:title=" ">
<polygon fill="white" stroke="#666666" points="537.5,-154 420.5,-154 420.5,-135 537.5,-135 537.5,-154"/>
<text text-anchor="middle" x="479" y="-142" font-family="Helvetica,sans-Serif" font-size="10.00">QAbstractItemModel</text>
</a>
</g>
</g>
<!-- Node4&#45;&gt;Node3 -->
<g id="edge3_Node000003_Node000004" class="edge">
<title>Node4&#45;&gt;Node3</title>
<g id="a_edge3_Node000003_Node000004"><a xlink:title=" ">
<path fill="none" stroke="#63b8ff" d="M542.67,-148.13C599,-151.39 680.28,-156.1 729.84,-158.97"/>
<polygon fill="#63b8ff" stroke="#63b8ff" points="537.64,-147.84 542.76,-145.88 540.13,-147.98 542.63,-148.13 542.63,-148.13 542.63,-148.13 540.13,-147.98 542.5,-150.37 537.64,-147.84 537.64,-147.84"/>
</a>
</g>
</g>
<!-- Node5 -->
<g id="Node000005" class="node">
<title>Node5</title>
<g id="a_Node000005"><a xlink:href="../../da/d68/classDeckList.html" target="_top" xlink:title="Represents a complete deck, including metadata, zones, cards, and sideboard plans.">
<polygon fill="white" stroke="#666666" points="508.5,-191 449.5,-191 449.5,-172 508.5,-172 508.5,-191"/>
<text text-anchor="middle" x="479" y="-179" font-family="Helvetica,sans-Serif" font-size="10.00">DeckList</text>
</a>
</g>
</g>
<!-- Node5&#45;&gt;Node3 -->
<g id="edge4_Node000003_Node000005" class="edge">
<title>Node5&#45;&gt;Node3</title>
<g id="a_edge4_Node000003_Node000005"><a xlink:title=" ">
<path fill="none" stroke="#9a32cd" stroke-dasharray="5,2" d="M513.67,-179.21C566.99,-175.57 670.81,-168.5 729.8,-164.48"/>
<polygon fill="#9a32cd" stroke="#9a32cd" points="508.68,-179.55 513.51,-176.96 511.17,-179.38 513.66,-179.21 513.66,-179.21 513.66,-179.21 511.17,-179.38 513.82,-181.45 508.68,-179.55 508.68,-179.55"/>
</a>
</g>
<text text-anchor="middle" x="626.5" y="-178.5" font-family="Helvetica,sans-Serif" font-size="10.00" fill="grey"> deckList</text>
</g>
<!-- Node6 -->
<g id="Node000006" class="node">
<title>Node6</title>
<g id="a_Node000006"><a xlink:title=" ">
<polygon fill="white" stroke="#666666" points="296.5,-235 240.5,-235 240.5,-216 296.5,-216 296.5,-235"/>
<text text-anchor="middle" x="268.5" y="-223" font-family="Helvetica,sans-Serif" font-size="10.00">QObject</text>
</a>
</g>
</g>
<!-- Node6&#45;&gt;Node5 -->
<g id="edge5_Node000005_Node000006" class="edge">
<title>Node6&#45;&gt;Node5</title>
<g id="a_edge5_Node000005_Node000006"><a xlink:title=" ">
<path fill="none" stroke="#63b8ff" d="M302.03,-218.63C342.48,-210.1 410.87,-195.67 449.4,-187.54"/>
<polygon fill="#63b8ff" stroke="#63b8ff" points="296.76,-219.75 301.19,-216.51 299.2,-219.23 301.65,-218.72 301.65,-218.72 301.65,-218.72 299.2,-219.23 302.11,-220.92 296.76,-219.75 296.76,-219.75"/>
</a>
</g>
</g>
<!-- Node13 -->
<g id="Node000013" class="node">
<title>Node13</title>
<g id="a_Node000013"><a xlink:href="../../dc/d3c/classDeckListHistoryManager.html" target="_top" xlink:title=" ">
<polygon fill="white" stroke="#666666" points="695,-242 558,-242 558,-223 695,-223 695,-242"/>
<text text-anchor="middle" x="626.5" y="-230" font-family="Helvetica,sans-Serif" font-size="10.00">DeckListHistoryManager</text>
</a>
</g>
</g>
<!-- Node6&#45;&gt;Node13 -->
<g id="edge15_Node000013_Node000006" class="edge">
<title>Node6&#45;&gt;Node13</title>
<g id="a_edge15_Node000013_Node000006"><a xlink:title=" ">
<path fill="none" stroke="#63b8ff" d="M301.58,-226.13C359.12,-227.26 480.99,-229.66 557.75,-231.17"/>
<polygon fill="#63b8ff" stroke="#63b8ff" points="296.55,-226.03 301.59,-223.88 299.05,-226.08 301.55,-226.13 301.55,-226.13 301.55,-226.13 299.05,-226.08 301.5,-228.38 296.55,-226.03 296.55,-226.03"/>
</a>
</g>
</g>
<!-- Node7 -->
<g id="Node000007" class="node">
<title>Node7</title>
<g id="a_Node000007"><a xlink:href="../../d1/d66/structCardRef.html" target="_top" xlink:title=" ">
<polygon fill="white" stroke="#666666" points="296.5,-191 240.5,-191 240.5,-172 296.5,-172 296.5,-191"/>
<text text-anchor="middle" x="268.5" y="-179" font-family="Helvetica,sans-Serif" font-size="10.00">CardRef</text>
</a>
</g>
</g>
<!-- Node7&#45;&gt;Node5 -->
<g id="edge6_Node000005_Node000007" class="edge">
<title>Node7&#45;&gt;Node5</title>
<g id="a_edge6_Node000005_Node000007"><a xlink:title=" ">
<path fill="none" stroke="#9a32cd" stroke-dasharray="5,2" d="M302.03,-181.5C342.48,-181.5 410.87,-181.5 449.4,-181.5"/>
<polygon fill="#9a32cd" stroke="#9a32cd" points="296.76,-181.5 301.76,-179.25 299.26,-181.5 301.76,-181.5 301.76,-181.5 301.76,-181.5 299.26,-181.5 301.76,-183.75 296.76,-181.5 296.76,-181.5"/>
</a>
</g>
<text text-anchor="middle" x="370" y="-184.5" font-family="Helvetica,sans-Serif" font-size="10.00" fill="grey"> bannerCard</text>
</g>
<!-- Node8 -->
<g id="Node000008" class="node">
<title>Node8</title>
<g id="a_Node000008"><a xlink:href="../../d4/d55/classInnerDecklistNode.html" target="_top" xlink:title="Represents a container node in the deck list hierarchy (zones and groupings).">
<polygon fill="white" stroke="#666666" points="322,-107 215,-107 215,-88 322,-88 322,-107"/>
<text text-anchor="middle" x="268.5" y="-95" font-family="Helvetica,sans-Serif" font-size="10.00">InnerDecklistNode</text>
</a>
</g>
</g>
<!-- Node8&#45;&gt;Node3 -->
<g id="edge11_Node000003_Node000008" class="edge">
<title>Node8&#45;&gt;Node3</title>
<g id="a_edge11_Node000003_Node000008"><a xlink:title=" ">
<path fill="none" stroke="#9a32cd" stroke-dasharray="5,2" d="M319.35,-86.97C348.05,-81.45 384.89,-75.27 418,-72.5 472.03,-67.98 486.67,-62.68 540,-72.5 624.05,-87.98 717.02,-132.34 755.4,-151.96"/>
<polygon fill="#9a32cd" stroke="#9a32cd" points="314.09,-87.99 318.57,-84.83 316.55,-87.52 319,-87.04 319,-87.04 319,-87.04 316.55,-87.52 319.43,-89.25 314.09,-87.99 314.09,-87.99"/>
</a>
</g>
<text text-anchor="middle" x="479" y="-75.5" font-family="Helvetica,sans-Serif" font-size="10.00" fill="grey"> root</text>
</g>
<!-- Node8&#45;&gt;Node5 -->
<g id="edge7_Node000005_Node000008" class="edge">
<title>Node8&#45;&gt;Node5</title>
<g id="a_edge7_Node000005_Node000008"><a xlink:title=" ">
<path fill="none" stroke="#9a32cd" stroke-dasharray="5,2" d="M293.7,-109.39C322.77,-123.42 373.23,-146.91 418,-163.5 428.1,-167.24 439.36,-170.78 449.37,-173.71"/>
<polygon fill="#9a32cd" stroke="#9a32cd" points="288.87,-107.06 294.35,-107.21 291.12,-108.15 293.37,-109.24 293.37,-109.24 293.37,-109.24 291.12,-108.15 292.39,-111.26 288.87,-107.06 288.87,-107.06"/>
</a>
</g>
<text text-anchor="middle" x="370" y="-158.5" font-family="Helvetica,sans-Serif" font-size="10.00" fill="grey"> root</text>
</g>
<!-- Node9 -->
<g id="Node000009" class="node">
<title>Node9</title>
<g id="a_Node000009"><a xlink:href="../../dc/dd8/classAbstractDecklistNode.html" target="_top" xlink:title="Base class for all nodes in the deck list tree.">
<polygon fill="white" stroke="#666666" points="540,-111 418,-111 418,-92 540,-92 540,-111"/>
<text text-anchor="middle" x="479" y="-99" font-family="Helvetica,sans-Serif" font-size="10.00">AbstractDecklistNode</text>
</a>
</g>
</g>
<!-- Node8&#45;&gt;Node9 -->
<g id="edge9_Node000009_Node000008" class="edge">
<title>Node8&#45;&gt;Node9</title>
<g id="a_edge9_Node000009_Node000008"><a xlink:title=" ">
<path fill="none" stroke="#9a32cd" stroke-dasharray="5,2" d="M327.3,-98.61C355.41,-99.15 389.2,-99.8 417.65,-100.34"/>
<polygon fill="#9a32cd" stroke="#9a32cd" points="322.11,-98.51 327.16,-96.36 324.61,-98.56 327.11,-98.61 327.11,-98.61 327.11,-98.61 324.61,-98.56 327.07,-100.85 322.11,-98.51 322.11,-98.51"/>
</a>
</g>
<text text-anchor="middle" x="370" y="-102.5" font-family="Helvetica,sans-Serif" font-size="10.00" fill="grey"> parent</text>
</g>
<!-- Node9&#45;&gt;Node8 -->
<g id="edge8_Node000008_Node000009" class="edge">
<title>Node9&#45;&gt;Node8</title>
<g id="a_edge8_Node000008_Node000009"><a xlink:title=" ">
<path fill="none" stroke="#63b8ff" d="M412.87,-95.22C408.52,-94.93 404.2,-94.69 400,-94.5 373.36,-93.31 366.66,-93.93 340,-94.5 334.24,-94.62 328.22,-94.8 322.23,-95.01"/>
<polygon fill="#63b8ff" stroke="#63b8ff" points="417.99,-95.57 412.85,-97.47 415.5,-95.4 413,-95.23 413,-95.23 413,-95.23 415.5,-95.4 413.16,-92.98 417.99,-95.57 417.99,-95.57"/>
</a>
</g>
</g>
<!-- Node10 -->
<g id="Node000010" class="node">
<title>Node10</title>
<g id="a_Node000010"><a xlink:title=" ">
<polygon fill="white" stroke="#666666" points="178,-107 0,-107 0,-88 178,-88 178,-107"/>
<text text-anchor="middle" x="89" y="-95" font-family="Helvetica,sans-Serif" font-size="10.00">QList&lt; AbstractDecklistNode * &gt;</text>
</a>
</g>
</g>
<!-- Node10&#45;&gt;Node8 -->
<g id="edge10_Node000008_Node000010" class="edge">
<title>Node10&#45;&gt;Node8</title>
<g id="a_edge10_Node000008_Node000010"><a xlink:title=" ">
<path fill="none" stroke="#63b8ff" d="M183.51,-97.5C194.27,-97.5 204.93,-97.5 214.86,-97.5"/>
<polygon fill="#63b8ff" stroke="#63b8ff" points="178.23,-97.5 183.23,-95.25 180.73,-97.5 183.23,-97.5 183.23,-97.5 183.23,-97.5 180.73,-97.5 183.23,-99.75 178.23,-97.5 178.23,-97.5"/>
</a>
</g>
</g>
<!-- Node11 -->
<g id="Node000011" class="node">
<title>Node11</title>
<g id="a_Node000011"><a xlink:href="../../d7/dea/classDeckListStyleProxy.html" target="_top" xlink:title=" ">
<polygon fill="white" stroke="#666666" points="830,-85 719,-85 719,-66 830,-66 830,-85"/>
<text text-anchor="middle" x="774.5" y="-73" font-family="Helvetica,sans-Serif" font-size="10.00">DeckListStyleProxy</text>
</a>
</g>
</g>
<!-- Node11&#45;&gt;Node1 -->
<g id="edge12_Node000001_Node000011" class="edge">
<title>Node11&#45;&gt;Node1</title>
<g id="a_edge12_Node000001_Node000011"><a xlink:title=" ">
<path fill="none" stroke="#9a32cd" stroke-dasharray="5,2" d="M796.01,-87.98C825.3,-105.8 880.8,-139.6 928,-168.5 958.82,-187.37 994.79,-209.51 1014.88,-221.88"/>
<polygon fill="#9a32cd" stroke="#9a32cd" points="791.54,-85.26 796.98,-85.93 793.67,-86.56 795.81,-87.86 795.81,-87.86 795.81,-87.86 793.67,-86.56 794.64,-89.78 791.54,-85.26 791.54,-85.26"/>
</a>
</g>
<text text-anchor="middle" x="891" y="-171.5" font-family="Helvetica,sans-Serif" font-size="10.00" fill="grey"> styleProxy</text>
</g>
<!-- Node12 -->
<g id="Node000012" class="node">
<title>Node12</title>
<g id="a_Node000012"><a xlink:title=" ">
<polygon fill="white" stroke="#666666" points="538.5,-19 419.5,-19 419.5,0 538.5,0 538.5,-19"/>
<text text-anchor="middle" x="479" y="-7" font-family="Helvetica,sans-Serif" font-size="10.00">QIdentityProxyModel</text>
</a>
</g>
</g>
<!-- Node12&#45;&gt;Node11 -->
<g id="edge13_Node000011_Node000012" class="edge">
<title>Node12&#45;&gt;Node11</title>
<g id="a_edge13_Node000011_Node000012"><a xlink:title=" ">
<path fill="none" stroke="#63b8ff" d="M544.02,-14.62C587.27,-19.14 645.31,-27.31 695,-41.5 716.42,-47.62 739.69,-58.24 755.29,-65.99"/>
<polygon fill="#63b8ff" stroke="#63b8ff" points="538.82,-14.08 544.02,-12.36 541.31,-14.34 543.79,-14.59 543.79,-14.59 543.79,-14.59 541.31,-14.34 543.56,-16.83 538.82,-14.08 538.82,-14.08"/>
</a>
</g>
</g>
<!-- Node13&#45;&gt;Node1 -->
<g id="edge14_Node000001_Node000013" class="edge">
<title>Node13&#45;&gt;Node1</title>
<g id="a_edge14_Node000001_Node000013"><a xlink:title=" ">
<path fill="none" stroke="#9a32cd" stroke-dasharray="5,2" d="M700.73,-232.32C769.8,-232.15 873.27,-231.89 945.84,-231.71"/>
<polygon fill="#9a32cd" stroke="#9a32cd" points="695.41,-232.33 700.4,-230.07 697.91,-232.33 700.41,-232.32 700.41,-232.32 700.41,-232.32 697.91,-232.33 700.41,-234.57 695.41,-232.33 695.41,-232.33"/>
</a>
</g>
<text text-anchor="middle" x="774.5" y="-234.5" font-family="Helvetica,sans-Serif" font-size="10.00" fill="grey"> historyManager</text>
</g>
<!-- Node14&#45;&gt;Node1 -->
<g id="edge16_Node000001_Node000014" class="edge">
<title>Node14&#45;&gt;Node1</title>
<g id="a_edge16_Node000001_Node000014"><a xlink:title=" ">
<path fill="none" stroke="#9a32cd" stroke-dasharray="5,2" d="M841.31,-302.2C868.59,-298.44 900.27,-292.57 928,-283.5 960.62,-272.83 995.68,-253.03 1015.17,-241.18"/>
<polygon fill="#9a32cd" stroke="#9a32cd" points="836.27,-302.88 840.92,-299.98 838.75,-302.54 841.22,-302.21 841.22,-302.21 841.22,-302.21 838.75,-302.54 841.52,-304.44 836.27,-302.88 836.27,-302.88"/>
</a>
</g>
<text text-anchor="middle" x="891" y="-302.5" font-family="Helvetica,sans-Serif" font-size="10.00" fill="grey"> historyButton</text>
</g>
<!-- Node15&#45;&gt;Node14 -->
<g id="edge18_Node000014_Node000015" class="edge">
<title>Node15&#45;&gt;Node14</title>
<g id="a_edge18_Node000014_Node000015"><a xlink:title=" ">
<path fill="none" stroke="#9a32cd" stroke-dasharray="5,2" d="M545.01,-339.77C587.71,-335.14 644.76,-328.58 695,-321.5 702.39,-320.46 710.15,-319.28 717.8,-318.07"/>
<polygon fill="#9a32cd" stroke="#9a32cd" points="539.88,-340.32 544.61,-337.55 542.36,-340.05 544.85,-339.79 544.85,-339.79 544.85,-339.79 542.36,-340.05 545.09,-342.02 539.88,-340.32 539.88,-340.32"/>
</a>
</g>
<text text-anchor="middle" x="626.5" y="-340.5" font-family="Helvetica,sans-Serif" font-size="10.00" fill="grey"> popup</text>
</g>
</g>
</svg>
