<?xml version="1.0" encoding="UTF-8" standalone="no"?>
<!DOCTYPE svg PUBLIC "-//W3C//DTD SVG 1.1//EN"
 "http://www.w3.org/Graphics/SVG/1.1/DTD/svg11.dtd">
<!-- Generated by graphviz version 2.43.0 (0)
 -->
<!-- Title: PhasesToolbar::PhasesToolbar Pages: 1 -->
<svg width="593pt" height="272pt"
 viewBox="0.00 0.00 593.00 272.00" xmlns="http://www.w3.org/2000/svg" xmlns:xlink="http://www.w3.org/1999/xlink">
<g id="graph0" class="graph" transform="scale(1 1) rotate(0) translate(4 268)">
<title>PhasesToolbar::PhasesToolbar</title>
<!-- Node1 -->
<g id="Node000001" class="node">
<title>Node1</title>
<g id="a_Node000001"><a xlink:title=" ">
<polygon fill="#999999" stroke="#666666" points="162,-153 0,-153 0,-134 162,-134 162,-153"/>
<text text-anchor="middle" x="81" y="-141" font-family="Helvetica,sans-Serif" font-size="10.00">PhasesToolbar::PhasesToolbar</text>
</a>
</g>
</g>
<!-- Node2 -->
<g id="Node000002" class="node">
<title>Node2</title>
<g id="a_Node000002"><a xlink:href="../../d7/d23/classPhasesToolbar.html#aa63aa3121bf6618930dcfe4e5af33e27" target="_top" xlink:title=" ">
<polygon fill="white" stroke="#666666" points="353.5,-264 198.5,-264 198.5,-245 353.5,-245 353.5,-264"/>
<text text-anchor="middle" x="276" y="-252" font-family="Helvetica,sans-Serif" font-size="10.00">PhasesToolbar::actDrawCard</text>
</a>
</g>
</g>
<!-- Node1&#45;&gt;Node2 -->
<g id="edge1_Node000001_Node000002" class="edge">
<title>Node1&#45;&gt;Node2</title>
<g id="a_edge1_Node000001_Node000002"><a xlink:title=" ">
<path fill="none" stroke="#63b8ff" d="M90.91,-153.07C109.12,-172.05 152.74,-214.48 198,-236.5 203.5,-239.17 209.41,-241.46 215.43,-243.42"/>
<polygon fill="#63b8ff" stroke="#63b8ff" points="220.51,-244.98 215.07,-245.66 218.12,-244.25 215.73,-243.51 215.73,-243.51 215.73,-243.51 218.12,-244.25 216.39,-241.36 220.51,-244.98 220.51,-244.98"/>
</a>
</g>
</g>
<!-- Node4 -->
<g id="Node000004" class="node">
<title>Node4</title>
<g id="a_Node000004"><a xlink:href="../../d7/d23/classPhasesToolbar.html#aae9c98b1ea749515bac55bf4801e8703" target="_top" xlink:title=" ">
<polygon fill="white" stroke="#666666" points="351.5,-227 200.5,-227 200.5,-208 351.5,-208 351.5,-227"/>
<text text-anchor="middle" x="276" y="-215" font-family="Helvetica,sans-Serif" font-size="10.00">PhasesToolbar::actNextTurn</text>
</a>
</g>
</g>
<!-- Node1&#45;&gt;Node4 -->
<g id="edge3_Node000001_Node000004" class="edge">
<title>Node1&#45;&gt;Node4</title>
<g id="a_edge3_Node000001_Node000004"><a xlink:title=" ">
<path fill="none" stroke="#63b8ff" d="M98.79,-153.07C120.91,-165.32 161.31,-186.53 198,-199.5 205.61,-202.19 213.79,-204.59 221.87,-206.7"/>
<polygon fill="#63b8ff" stroke="#63b8ff" points="226.88,-207.97 221.48,-208.92 224.46,-207.36 222.04,-206.74 222.04,-206.74 222.04,-206.74 224.46,-207.36 222.59,-204.56 226.88,-207.97 226.88,-207.97"/>
</a>
</g>
</g>
<!-- Node5 -->
<g id="Node000005" class="node">
<title>Node5</title>
<g id="a_Node000005"><a xlink:href="../../d7/d23/classPhasesToolbar.html#af7e0bfac25bc3626b185249b335d0bcd" target="_top" xlink:title=" ">
<polygon fill="white" stroke="#666666" points="350.5,-190 201.5,-190 201.5,-171 350.5,-171 350.5,-190"/>
<text text-anchor="middle" x="276" y="-178" font-family="Helvetica,sans-Serif" font-size="10.00">PhasesToolbar::actUntapAll</text>
</a>
</g>
</g>
<!-- Node1&#45;&gt;Node5 -->
<g id="edge5_Node000001_Node000005" class="edge">
<title>Node1&#45;&gt;Node5</title>
<g id="a_edge5_Node000001_Node000005"><a xlink:title=" ">
<path fill="none" stroke="#63b8ff" d="M131.7,-153.03C158.72,-158.21 192.21,-164.63 220.01,-169.96"/>
<polygon fill="#63b8ff" stroke="#63b8ff" points="225.13,-170.94 219.8,-172.21 222.68,-170.47 220.22,-170 220.22,-170 220.22,-170 222.68,-170.47 220.64,-167.79 225.13,-170.94 225.13,-170.94"/>
</a>
</g>
</g>
<!-- Node6 -->
<g id="Node000006" class="node">
<title>Node6</title>
<g id="a_Node000006"><a xlink:href="../../da/d20/classPhaseButton.html#a49ddc75992a769124ce6d374cf447fe3" target="_top" xlink:title=" ">
<polygon fill="white" stroke="#666666" points="335,-153 217,-153 217,-134 335,-134 335,-153"/>
<text text-anchor="middle" x="276" y="-141" font-family="Helvetica,sans-Serif" font-size="10.00">PhaseButton::clicked</text>
</a>
</g>
</g>
<!-- Node1&#45;&gt;Node6 -->
<g id="edge7_Node000001_Node000006" class="edge">
<title>Node1&#45;&gt;Node6</title>
<g id="a_edge7_Node000001_Node000006"><a xlink:title=" ">
<path fill="none" stroke="#63b8ff" d="M162.17,-143.5C178.64,-143.5 195.77,-143.5 211.55,-143.5"/>
<polygon fill="#63b8ff" stroke="#63b8ff" points="216.85,-143.5 211.85,-145.75 214.35,-143.5 211.85,-143.5 211.85,-143.5 211.85,-143.5 214.35,-143.5 211.85,-141.25 216.85,-143.5 216.85,-143.5"/>
</a>
</g>
</g>
<!-- Node7 -->
<g id="Node000007" class="node">
<title>Node7</title>
<g id="a_Node000007"><a xlink:href="../../d7/d23/classPhasesToolbar.html#ae6037e83507d0f8f8f69ef8fde95f256" target="_top" xlink:title=" ">
<polygon fill="white" stroke="#666666" points="353,-115.5 199,-115.5 199,-85.5 353,-85.5 353,-115.5"/>
<text text-anchor="start" x="207" y="-103.5" font-family="Helvetica,sans-Serif" font-size="10.00">PhasesToolbar::phaseButton</text>
<text text-anchor="middle" x="276" y="-92.5" font-family="Helvetica,sans-Serif" font-size="10.00">Clicked</text>
</a>
</g>
</g>
<!-- Node1&#45;&gt;Node7 -->
<g id="edge8_Node000001_Node000007" class="edge">
<title>Node1&#45;&gt;Node7</title>
<g id="a_edge8_Node000001_Node000007"><a xlink:title=" ">
<path fill="none" stroke="#63b8ff" d="M124.83,-133.96C147.63,-128.88 176.3,-122.49 202.45,-116.66"/>
<polygon fill="#63b8ff" stroke="#63b8ff" points="207.65,-115.51 203.26,-118.79 205.21,-116.05 202.77,-116.59 202.77,-116.59 202.77,-116.59 205.21,-116.05 202.28,-114.4 207.65,-115.51 207.65,-115.51"/>
</a>
</g>
</g>
<!-- Node8 -->
<g id="Node000008" class="node">
<title>Node8</title>
<g id="a_Node000008"><a xlink:href="../../d7/d23/classPhasesToolbar.html#a64b9bfa5d89549febef8620d4700078c" target="_top" xlink:title=" ">
<polygon fill="white" stroke="#666666" points="346,-67.5 206,-67.5 206,-37.5 346,-37.5 346,-67.5"/>
<text text-anchor="start" x="214" y="-55.5" font-family="Helvetica,sans-Serif" font-size="10.00">PhasesToolbar::rearrange</text>
<text text-anchor="middle" x="276" y="-44.5" font-family="Helvetica,sans-Serif" font-size="10.00">Buttons</text>
</a>
</g>
</g>
<!-- Node1&#45;&gt;Node8 -->
<g id="edge10_Node000001_Node000008" class="edge">
<title>Node1&#45;&gt;Node8</title>
<g id="a_edge10_Node000001_Node000008"><a xlink:title=" ">
<path fill="none" stroke="#63b8ff" d="M96.11,-133.97C117.42,-119.89 159.44,-93.39 198,-76.5 203.93,-73.9 210.22,-71.46 216.56,-69.2"/>
<polygon fill="#63b8ff" stroke="#63b8ff" points="221.42,-67.51 217.43,-71.28 219.06,-68.34 216.69,-69.16 216.69,-69.16 216.69,-69.16 219.06,-68.34 215.95,-67.03 221.42,-67.51 221.42,-67.51"/>
</a>
</g>
</g>
<!-- Node9 -->
<g id="Node000009" class="node">
<title>Node9</title>
<g id="a_Node000009"><a xlink:href="../../d7/d23/classPhasesToolbar.html#a48ce48593e89952f021b759a3fb949b4" target="_top" xlink:title=" ">
<polygon fill="white" stroke="#666666" points="354,-19 198,-19 198,0 354,0 354,-19"/>
<text text-anchor="middle" x="276" y="-7" font-family="Helvetica,sans-Serif" font-size="10.00">PhasesToolbar::retranslateUi</text>
</a>
</g>
</g>
<!-- Node1&#45;&gt;Node9 -->
<g id="edge11_Node000001_Node000009" class="edge">
<title>Node1&#45;&gt;Node9</title>
<g id="a_edge11_Node000001_Node000009"><a xlink:title=" ">
<path fill="none" stroke="#63b8ff" d="M88.88,-133.72C105.13,-111.38 148.3,-56.4 198,-28.5 203.55,-25.39 209.6,-22.78 215.8,-20.59"/>
<polygon fill="#63b8ff" stroke="#63b8ff" points="220.56,-19 216.53,-22.72 218.19,-19.79 215.82,-20.58 215.82,-20.58 215.82,-20.58 218.19,-19.79 215.11,-18.45 220.56,-19 220.56,-19"/>
</a>
</g>
</g>
<!-- Node3 -->
<g id="Node000003" class="node">
<title>Node3</title>
<g id="a_Node000003"><a xlink:href="../../d7/d23/classPhasesToolbar.html#ab9b5297e9db753c9a2d68e1f6a1f94cb" target="_top" xlink:title=" ">
<polygon fill="white" stroke="#666666" points="585,-208 390,-208 390,-189 585,-189 585,-208"/>
<text text-anchor="middle" x="487.5" y="-196" font-family="Helvetica,sans-Serif" font-size="10.00">PhasesToolbar::sendGameCommand</text>
</a>
</g>
</g>
<!-- Node2&#45;&gt;Node3 -->
<g id="edge2_Node000002_Node000003" class="edge">
<title>Node2&#45;&gt;Node3</title>
<g id="a_edge2_Node000002_Node000003"><a xlink:title=" ">
<path fill="none" stroke="#63b8ff" d="M319.46,-244.97C330.71,-242.34 342.84,-239.4 354,-236.5 386.7,-227.99 423.64,-217.31 450.2,-209.44"/>
<polygon fill="#63b8ff" stroke="#63b8ff" points="455.03,-208 450.88,-211.58 452.63,-208.71 450.24,-209.43 450.24,-209.43 450.24,-209.43 452.63,-208.71 449.6,-207.27 455.03,-208 455.03,-208"/>
</a>
</g>
</g>
<!-- Node4&#45;&gt;Node3 -->
<g id="edge4_Node000004_Node000003" class="edge">
<title>Node4&#45;&gt;Node3</title>
<g id="a_edge4_Node000004_Node000003"><a xlink:title=" ">
<path fill="none" stroke="#63b8ff" d="M351.75,-210.72C362.45,-209.75 373.6,-208.74 384.71,-207.73"/>
<polygon fill="#63b8ff" stroke="#63b8ff" points="389.81,-207.27 385.04,-209.96 387.33,-207.49 384.84,-207.72 384.84,-207.72 384.84,-207.72 387.33,-207.49 384.63,-205.48 389.81,-207.27 389.81,-207.27"/>
</a>
</g>
</g>
<!-- Node5&#45;&gt;Node3 -->
<g id="edge6_Node000005_Node000003" class="edge">
<title>Node5&#45;&gt;Node3</title>
<g id="a_edge6_Node000005_Node000003"><a xlink:title=" ">
<path fill="none" stroke="#63b8ff" d="M350.57,-186.82C361.61,-187.77 373.16,-188.76 384.66,-189.75"/>
<polygon fill="#63b8ff" stroke="#63b8ff" points="389.94,-190.2 384.77,-192.02 387.45,-189.99 384.96,-189.78 384.96,-189.78 384.96,-189.78 387.45,-189.99 385.16,-187.53 389.94,-190.2 389.94,-190.2"/>
</a>
</g>
</g>
<!-- Node7&#45;&gt;Node3 -->
<g id="edge9_Node000007_Node000003" class="edge">
<title>Node7&#45;&gt;Node3</title>
<g id="a_edge9_Node000007_Node000003"><a xlink:title=" ">
<path fill="none" stroke="#63b8ff" d="M328.04,-115.56C336.81,-118.57 345.75,-121.92 354,-125.5 395.75,-143.58 441.66,-170.62 466.99,-186.21"/>
<polygon fill="#63b8ff" stroke="#63b8ff" points="471.48,-188.98 466.04,-188.27 469.35,-187.67 467.22,-186.35 467.22,-186.35 467.22,-186.35 469.35,-187.67 468.41,-184.44 471.48,-188.98 471.48,-188.98"/>
</a>
</g>
</g>
<!-- Node10 -->
<g id="Node000010" class="node">
<title>Node10</title>
<g id="a_Node000010"><a xlink:href="../../d7/d23/classPhasesToolbar.html#a5a4c63d928bc8ac23c936a672b3da57f" target="_top" xlink:title=" ">
<polygon fill="white" stroke="#666666" points="582.5,-19 392.5,-19 392.5,0 582.5,0 582.5,-19"/>
<text text-anchor="middle" x="487.5" y="-7" font-family="Helvetica,sans-Serif" font-size="10.00">PhasesToolbar::getLongPhaseName</text>
</a>
</g>
</g>
<!-- Node9&#45;&gt;Node10 -->
<g id="edge12_Node000009_Node000010" class="edge">
<title>Node9&#45;&gt;Node10</title>
<g id="a_edge12_Node000009_Node000010"><a xlink:title=" ">
<path fill="none" stroke="#63b8ff" d="M354.12,-9.5C364.94,-9.5 376.19,-9.5 387.36,-9.5"/>
<polygon fill="#63b8ff" stroke="#63b8ff" points="392.48,-9.5 387.48,-11.75 389.98,-9.5 387.48,-9.5 387.48,-9.5 387.48,-9.5 389.98,-9.5 387.48,-7.25 392.48,-9.5 392.48,-9.5"/>
</a>
</g>
</g>
</g>
</svg>
