<?xml version="1.0" encoding="UTF-8" standalone="no"?>
<!DOCTYPE svg PUBLIC "-//W3C//DTD SVG 1.1//EN"
 "http://www.w3.org/Graphics/SVG/1.1/DTD/svg11.dtd">
<!-- Generated by graphviz version 2.43.0 (0)
 -->
<!-- Title: libcockatrice_card/libcockatrice/card/relation/card_relation.h Pages: 1 -->
<svg width="2116pt" height="137pt"
 viewBox="0.00 0.00 2116.00 137.00" xmlns="http://www.w3.org/2000/svg" xmlns:xlink="http://www.w3.org/1999/xlink">
<g id="graph0" class="graph" transform="scale(1 1) rotate(0) translate(4 133)">
<title>libcockatrice_card/libcockatrice/card/relation/card_relation.h</title>
<!-- Node1 -->
<g id="Node000001" class="node">
<title>Node1</title>
<g id="a_Node000001"><a xlink:title=" ">
<polygon fill="#999999" stroke="#666666" points="1112.5,-129 979.5,-129 979.5,-88 1112.5,-88 1112.5,-129"/>
<text text-anchor="start" x="987.5" y="-117" font-family="Helvetica,sans-Serif" font-size="10.00">libcockatrice_card</text>
<text text-anchor="start" x="987.5" y="-106" font-family="Helvetica,sans-Serif" font-size="10.00">/libcockatrice/card</text>
<text text-anchor="middle" x="1046" y="-95" font-family="Helvetica,sans-Serif" font-size="10.00">/relation/card_relation.h</text>
</a>
</g>
</g>
<!-- Node2 -->
<g id="Node000002" class="node">
<title>Node2</title>
<g id="a_Node000002"><a xlink:href="../../dc/d18/card__menu_8cpp.html" target="_top" xlink:title=" ">
<polygon fill="white" stroke="#666666" points="158,-41 0,-41 0,-11 158,-11 158,-41"/>
<text text-anchor="start" x="8" y="-29" font-family="Helvetica,sans-Serif" font-size="10.00">cockatrice/src/game</text>
<text text-anchor="middle" x="79" y="-18" font-family="Helvetica,sans-Serif" font-size="10.00">/player/menu/card_menu.cpp</text>
</a>
</g>
</g>
<!-- Node1&#45;&gt;Node2 -->
<g id="edge1_Node000001_Node000002" class="edge">
<title>Node1&#45;&gt;Node2</title>
<g id="a_edge1_Node000001_Node000002"><a xlink:title=" ">
<path fill="none" stroke="#63b8ff" d="M974,-108.13C823.16,-108.33 463.39,-102.86 167,-52 151.97,-49.42 135.84,-45.26 121.55,-41.07"/>
<polygon fill="#63b8ff" stroke="#63b8ff" points="979.28,-108.12 974.28,-110.38 976.78,-108.13 974.28,-108.13 974.28,-108.13 974.28,-108.13 976.78,-108.13 974.27,-105.88 979.28,-108.12 979.28,-108.12"/>
</a>
</g>
</g>
<!-- Node3 -->
<g id="Node000003" class="node">
<title>Node3</title>
<g id="a_Node000003"><a xlink:href="../../da/d78/player__actions_8cpp.html" target="_top" xlink:title=" ">
<polygon fill="white" stroke="#666666" points="321.5,-41 176.5,-41 176.5,-11 321.5,-11 321.5,-41"/>
<text text-anchor="start" x="184.5" y="-29" font-family="Helvetica,sans-Serif" font-size="10.00">cockatrice/src/game</text>
<text text-anchor="middle" x="249" y="-18" font-family="Helvetica,sans-Serif" font-size="10.00">/player/player_actions.cpp</text>
</a>
</g>
</g>
<!-- Node1&#45;&gt;Node3 -->
<g id="edge2_Node000001_Node000003" class="edge">
<title>Node1&#45;&gt;Node3</title>
<g id="a_edge2_Node000001_Node000003"><a xlink:title=" ">
<path fill="none" stroke="#63b8ff" d="M973.9,-107.18C844,-105.43 562.54,-96.33 330,-52 316.27,-49.38 301.57,-45.26 288.52,-41.12"/>
<polygon fill="#63b8ff" stroke="#63b8ff" points="979.21,-107.25 974.18,-109.43 976.71,-107.21 974.21,-107.18 974.21,-107.18 974.21,-107.18 976.71,-107.21 974.24,-104.93 979.21,-107.25 979.21,-107.25"/>
</a>
</g>
</g>
<!-- Node4 -->
<g id="Node000004" class="node">
<title>Node4</title>
<g id="a_Node000004"><a xlink:href="../../d2/d59/card__info__frame__widget_8cpp.html" target="_top" xlink:title=" ">
<polygon fill="white" stroke="#666666" points="474.5,-46.5 339.5,-46.5 339.5,-5.5 474.5,-5.5 474.5,-46.5"/>
<text text-anchor="start" x="347.5" y="-34.5" font-family="Helvetica,sans-Serif" font-size="10.00">cockatrice/src/interface</text>
<text text-anchor="start" x="347.5" y="-23.5" font-family="Helvetica,sans-Serif" font-size="10.00">/widgets/cards/card_info</text>
<text text-anchor="middle" x="407" y="-12.5" font-family="Helvetica,sans-Serif" font-size="10.00">_frame_widget.cpp</text>
</a>
</g>
</g>
<!-- Node1&#45;&gt;Node4 -->
<g id="edge3_Node000001_Node000004" class="edge">
<title>Node1&#45;&gt;Node4</title>
<g id="a_edge3_Node000001_Node000004"><a xlink:title=" ">
<path fill="none" stroke="#63b8ff" d="M974.36,-105.46C866.65,-101.27 657.06,-88.74 483,-52 476.07,-50.54 468.88,-48.66 461.82,-46.6"/>
<polygon fill="#63b8ff" stroke="#63b8ff" points="979.41,-105.66 974.33,-107.71 976.91,-105.56 974.41,-105.47 974.41,-105.47 974.41,-105.47 976.91,-105.56 974.5,-103.22 979.41,-105.66 979.41,-105.66"/>
</a>
</g>
</g>
<!-- Node5 -->
<g id="Node000005" class="node">
<title>Node5</title>
<g id="a_Node000005"><a xlink:href="../../da/d63/card__info__picture__widget_8cpp.html" target="_top" xlink:title=" ">
<polygon fill="white" stroke="#666666" points="627.5,-46.5 492.5,-46.5 492.5,-5.5 627.5,-5.5 627.5,-46.5"/>
<text text-anchor="start" x="500.5" y="-34.5" font-family="Helvetica,sans-Serif" font-size="10.00">cockatrice/src/interface</text>
<text text-anchor="start" x="500.5" y="-23.5" font-family="Helvetica,sans-Serif" font-size="10.00">/widgets/cards/card_info</text>
<text text-anchor="middle" x="560" y="-12.5" font-family="Helvetica,sans-Serif" font-size="10.00">_picture_widget.cpp</text>
</a>
</g>
</g>
<!-- Node1&#45;&gt;Node5 -->
<g id="edge4_Node000001_Node000005" class="edge">
<title>Node1&#45;&gt;Node5</title>
<g id="a_edge4_Node000001_Node000005"><a xlink:title=" ">
<path fill="none" stroke="#63b8ff" d="M973.94,-101.77C891.49,-94.29 752.79,-78.87 636,-52 629.37,-50.47 622.49,-48.62 615.7,-46.61"/>
<polygon fill="#63b8ff" stroke="#63b8ff" points="979.29,-102.25 974.11,-104.05 976.8,-102.03 974.31,-101.81 974.31,-101.81 974.31,-101.81 976.8,-102.03 974.51,-99.56 979.29,-102.25 979.29,-102.25"/>
</a>
</g>
</g>
<!-- Node6 -->
<g id="Node000006" class="node">
<title>Node6</title>
<g id="a_Node000006"><a xlink:href="../../dd/d25/card__info__text__widget_8cpp.html" target="_top" xlink:title=" ">
<polygon fill="white" stroke="#666666" points="780.5,-46.5 645.5,-46.5 645.5,-5.5 780.5,-5.5 780.5,-46.5"/>
<text text-anchor="start" x="653.5" y="-34.5" font-family="Helvetica,sans-Serif" font-size="10.00">cockatrice/src/interface</text>
<text text-anchor="start" x="653.5" y="-23.5" font-family="Helvetica,sans-Serif" font-size="10.00">/widgets/cards/card_info</text>
<text text-anchor="middle" x="713" y="-12.5" font-family="Helvetica,sans-Serif" font-size="10.00">_text_widget.cpp</text>
</a>
</g>
</g>
<!-- Node1&#45;&gt;Node6 -->
<g id="edge5_Node000001_Node000006" class="edge">
<title>Node1&#45;&gt;Node6</title>
<g id="a_edge5_Node000001_Node000006"><a xlink:title=" ">
<path fill="none" stroke="#63b8ff" d="M974.33,-93.97C922.74,-83.74 851.67,-68.65 790,-52 783.89,-50.35 777.56,-48.51 771.25,-46.59"/>
<polygon fill="#63b8ff" stroke="#63b8ff" points="979.26,-94.94 973.91,-96.18 976.8,-94.46 974.35,-93.97 974.35,-93.97 974.35,-93.97 976.8,-94.46 974.79,-91.76 979.26,-94.94 979.26,-94.94"/>
</a>
</g>
</g>
<!-- Node7 -->
<g id="Node000007" class="node">
<title>Node7</title>
<g id="a_Node000007"><a xlink:href="../../db/d0e/deck__editor__database__display__widget_8cpp.html" target="_top" xlink:title=" ">
<polygon fill="white" stroke="#666666" points="943,-52 799,-52 799,0 943,0 943,-52"/>
<text text-anchor="start" x="807" y="-40" font-family="Helvetica,sans-Serif" font-size="10.00">cockatrice/src/interface</text>
<text text-anchor="start" x="807" y="-29" font-family="Helvetica,sans-Serif" font-size="10.00">/widgets/deck_editor/deck</text>
<text text-anchor="start" x="807" y="-18" font-family="Helvetica,sans-Serif" font-size="10.00">_editor_database_display</text>
<text text-anchor="middle" x="871" y="-7" font-family="Helvetica,sans-Serif" font-size="10.00">_widget.cpp</text>
</a>
</g>
</g>
<!-- Node1&#45;&gt;Node7 -->
<g id="edge6_Node000001_Node000007" class="edge">
<title>Node1&#45;&gt;Node7</title>
<g id="a_edge6_Node000001_Node000007"><a xlink:title=" ">
<path fill="none" stroke="#63b8ff" d="M998.46,-85.63C975.96,-75.28 948.96,-62.86 925.62,-52.13"/>
<polygon fill="#63b8ff" stroke="#63b8ff" points="1003.19,-87.81 997.71,-87.76 1000.92,-86.76 998.65,-85.72 998.65,-85.72 998.65,-85.72 1000.92,-86.76 999.59,-83.67 1003.19,-87.81 1003.19,-87.81"/>
</a>
</g>
</g>
<!-- Node8 -->
<g id="Node000008" class="node">
<title>Node8</title>
<g id="a_Node000008"><a xlink:href="../../d3/d23/printing__selector__card__overlay__widget_8cpp.html" target="_top" xlink:title=" ">
<polygon fill="white" stroke="#666666" points="1131,-52 961,-52 961,0 1131,0 1131,-52"/>
<text text-anchor="start" x="969" y="-40" font-family="Helvetica,sans-Serif" font-size="10.00">cockatrice/src/interface</text>
<text text-anchor="start" x="969" y="-29" font-family="Helvetica,sans-Serif" font-size="10.00">/widgets/printing_selector</text>
<text text-anchor="start" x="969" y="-18" font-family="Helvetica,sans-Serif" font-size="10.00">/printing_selector_card_overlay</text>
<text text-anchor="middle" x="1046" y="-7" font-family="Helvetica,sans-Serif" font-size="10.00">_widget.cpp</text>
</a>
</g>
</g>
<!-- Node1&#45;&gt;Node8 -->
<g id="edge7_Node000001_Node000008" class="edge">
<title>Node1&#45;&gt;Node8</title>
<g id="a_edge7_Node000001_Node000008"><a xlink:title=" ">
<path fill="none" stroke="#63b8ff" d="M1046,-82.41C1046,-72.78 1046,-61.79 1046,-52.16"/>
<polygon fill="#63b8ff" stroke="#63b8ff" points="1046,-87.6 1043.75,-82.6 1046,-85.1 1046,-82.6 1046,-82.6 1046,-82.6 1046,-85.1 1048.25,-82.6 1046,-87.6 1046,-87.6"/>
</a>
</g>
</g>
<!-- Node9 -->
<g id="Node000009" class="node">
<title>Node9</title>
<g id="a_Node000009"><a xlink:href="../../dd/d52/card__info_8cpp.html" target="_top" xlink:title=" ">
<polygon fill="white" stroke="#666666" points="1254.5,-46.5 1149.5,-46.5 1149.5,-5.5 1254.5,-5.5 1254.5,-46.5"/>
<text text-anchor="start" x="1157.5" y="-34.5" font-family="Helvetica,sans-Serif" font-size="10.00">libcockatrice_card</text>
<text text-anchor="start" x="1157.5" y="-23.5" font-family="Helvetica,sans-Serif" font-size="10.00">/libcockatrice/card</text>
<text text-anchor="middle" x="1202" y="-12.5" font-family="Helvetica,sans-Serif" font-size="10.00">/card_info.cpp</text>
</a>
</g>
</g>
<!-- Node1&#45;&gt;Node9 -->
<g id="edge8_Node000001_Node000009" class="edge">
<title>Node1&#45;&gt;Node9</title>
<g id="a_edge8_Node000001_Node000009"><a xlink:title=" ">
<path fill="none" stroke="#63b8ff" d="M1088.79,-85.42C1112.31,-73.28 1141.24,-58.36 1163.96,-46.63"/>
<polygon fill="#63b8ff" stroke="#63b8ff" points="1084.16,-87.81 1087.57,-83.52 1086.38,-86.66 1088.61,-85.51 1088.61,-85.51 1088.61,-85.51 1086.38,-86.66 1089.64,-87.51 1084.16,-87.81 1084.16,-87.81"/>
</a>
</g>
</g>
<!-- Node10 -->
<g id="Node000010" class="node">
<title>Node10</title>
<g id="a_Node000010"><a xlink:href="../../dc/d8b/card__database_8cpp.html" target="_top" xlink:title=" ">
<polygon fill="white" stroke="#666666" points="1431.5,-46.5 1272.5,-46.5 1272.5,-5.5 1431.5,-5.5 1431.5,-46.5"/>
<text text-anchor="start" x="1280.5" y="-34.5" font-family="Helvetica,sans-Serif" font-size="10.00">libcockatrice_card</text>
<text text-anchor="start" x="1280.5" y="-23.5" font-family="Helvetica,sans-Serif" font-size="10.00">/libcockatrice/card</text>
<text text-anchor="middle" x="1352" y="-12.5" font-family="Helvetica,sans-Serif" font-size="10.00">/database/card_database.cpp</text>
</a>
</g>
</g>
<!-- Node1&#45;&gt;Node10 -->
<g id="edge9_Node000001_Node000010" class="edge">
<title>Node1&#45;&gt;Node10</title>
<g id="a_edge9_Node000001_Node000010"><a xlink:title=" ">
<path fill="none" stroke="#63b8ff" d="M1117.78,-89.75C1160.35,-79.1 1215.34,-65.1 1264,-52 1270.44,-50.27 1277.14,-48.43 1283.83,-46.57"/>
<polygon fill="#63b8ff" stroke="#63b8ff" points="1112.91,-90.97 1117.22,-87.58 1115.34,-90.36 1117.76,-89.76 1117.76,-89.76 1117.76,-89.76 1115.34,-90.36 1118.31,-91.94 1112.91,-90.97 1112.91,-90.97"/>
</a>
</g>
</g>
<!-- Node11 -->
<g id="Node000011" class="node">
<title>Node11</title>
<g id="a_Node000011"><a xlink:href="../../df/d13/cockatrice__xml__3_8cpp.html" target="_top" xlink:title=" ">
<polygon fill="white" stroke="#666666" points="1600.5,-52 1449.5,-52 1449.5,0 1600.5,0 1600.5,-52"/>
<text text-anchor="start" x="1457.5" y="-40" font-family="Helvetica,sans-Serif" font-size="10.00">libcockatrice_card</text>
<text text-anchor="start" x="1457.5" y="-29" font-family="Helvetica,sans-Serif" font-size="10.00">/libcockatrice/card</text>
<text text-anchor="start" x="1457.5" y="-18" font-family="Helvetica,sans-Serif" font-size="10.00">/database/parser/cockatrice</text>
<text text-anchor="middle" x="1525" y="-7" font-family="Helvetica,sans-Serif" font-size="10.00">_xml_3.cpp</text>
</a>
</g>
</g>
<!-- Node1&#45;&gt;Node11 -->
<g id="edge10_Node000001_Node000011" class="edge">
<title>Node1&#45;&gt;Node11</title>
<g id="a_edge10_Node000001_Node000011"><a xlink:title=" ">
<path fill="none" stroke="#63b8ff" d="M1117.75,-100.68C1197.34,-92.37 1329.27,-76.33 1441,-52 1443.68,-51.42 1446.39,-50.79 1449.13,-50.14"/>
<polygon fill="#63b8ff" stroke="#63b8ff" points="1112.58,-101.22 1117.32,-98.46 1115.07,-100.96 1117.56,-100.7 1117.56,-100.7 1117.56,-100.7 1115.07,-100.96 1117.79,-102.94 1112.58,-101.22 1112.58,-101.22"/>
</a>
</g>
</g>
<!-- Node12 -->
<g id="Node000012" class="node">
<title>Node12</title>
<g id="a_Node000012"><a xlink:href="../../d2/dbc/cockatrice__xml__4_8cpp.html" target="_top" xlink:title=" ">
<polygon fill="white" stroke="#666666" points="1769.5,-52 1618.5,-52 1618.5,0 1769.5,0 1769.5,-52"/>
<text text-anchor="start" x="1626.5" y="-40" font-family="Helvetica,sans-Serif" font-size="10.00">libcockatrice_card</text>
<text text-anchor="start" x="1626.5" y="-29" font-family="Helvetica,sans-Serif" font-size="10.00">/libcockatrice/card</text>
<text text-anchor="start" x="1626.5" y="-18" font-family="Helvetica,sans-Serif" font-size="10.00">/database/parser/cockatrice</text>
<text text-anchor="middle" x="1694" y="-7" font-family="Helvetica,sans-Serif" font-size="10.00">_xml_4.cpp</text>
</a>
</g>
</g>
<!-- Node1&#45;&gt;Node12 -->
<g id="edge11_Node000001_Node000012" class="edge">
<title>Node1&#45;&gt;Node12</title>
<g id="a_edge11_Node000001_Node000012"><a xlink:title=" ">
<path fill="none" stroke="#63b8ff" d="M1117.64,-104.84C1225.37,-99.85 1435.12,-86.3 1610,-52 1612.69,-51.47 1615.41,-50.9 1618.16,-50.28"/>
<polygon fill="#63b8ff" stroke="#63b8ff" points="1112.59,-105.07 1117.48,-102.59 1115.08,-104.95 1117.58,-104.84 1117.58,-104.84 1117.58,-104.84 1115.08,-104.95 1117.68,-107.09 1112.59,-105.07 1112.59,-105.07"/>
</a>
</g>
</g>
<!-- Node13 -->
<g id="Node000013" class="node">
<title>Node13</title>
<g id="a_Node000013"><a xlink:href="../../df/ddc/card__relation_8cpp.html" target="_top" xlink:title=" ">
<polygon fill="white" stroke="#666666" points="1932,-46.5 1788,-46.5 1788,-5.5 1932,-5.5 1932,-46.5"/>
<text text-anchor="start" x="1796" y="-34.5" font-family="Helvetica,sans-Serif" font-size="10.00">libcockatrice_card</text>
<text text-anchor="start" x="1796" y="-23.5" font-family="Helvetica,sans-Serif" font-size="10.00">/libcockatrice/card</text>
<text text-anchor="middle" x="1860" y="-12.5" font-family="Helvetica,sans-Serif" font-size="10.00">/relation/card_relation.cpp</text>
</a>
</g>
</g>
<!-- Node1&#45;&gt;Node13 -->
<g id="edge12_Node000001_Node000013" class="edge">
<title>Node1&#45;&gt;Node13</title>
<g id="a_edge12_Node000001_Node000013"><a xlink:title=" ">
<path fill="none" stroke="#63b8ff" d="M1117.62,-107.37C1249.6,-105.96 1539.61,-97.41 1779,-52 1786.52,-50.57 1794.33,-48.7 1801.99,-46.61"/>
<polygon fill="#63b8ff" stroke="#63b8ff" points="1112.6,-107.42 1117.58,-105.12 1115.1,-107.39 1117.6,-107.37 1117.6,-107.37 1117.6,-107.37 1115.1,-107.39 1117.63,-109.62 1112.6,-107.42 1112.6,-107.42"/>
</a>
</g>
</g>
<!-- Node14 -->
<g id="Node000014" class="node">
<title>Node14</title>
<g id="a_Node000014"><a xlink:href="../../d9/d21/oracleimporter_8cpp.html" target="_top" xlink:title=" ">
<polygon fill="white" stroke="#666666" points="2108,-35.5 1950,-35.5 1950,-16.5 2108,-16.5 2108,-35.5"/>
<text text-anchor="middle" x="2029" y="-23.5" font-family="Helvetica,sans-Serif" font-size="10.00">oracle/src/oracleimporter.cpp</text>
</a>
</g>
</g>
<!-- Node1&#45;&gt;Node14 -->
<g id="edge13_Node000001_Node000014" class="edge">
<title>Node1&#45;&gt;Node14</title>
<g id="a_edge13_Node000001_Node000014"><a xlink:title=" ">
<path fill="none" stroke="#63b8ff" d="M1117.87,-108.25C1270.59,-108.71 1638.26,-103.77 1941,-52 1962.76,-48.28 1986.83,-41.23 2004.29,-35.56"/>
<polygon fill="#63b8ff" stroke="#63b8ff" points="1112.53,-108.23 1117.53,-106 1115.03,-108.24 1117.53,-108.25 1117.53,-108.25 1117.53,-108.25 1115.03,-108.24 1117.52,-110.5 1112.53,-108.23 1112.53,-108.23"/>
</a>
</g>
</g>
</g>
</svg>
