<?xml version="1.0" encoding="UTF-8" standalone="no"?>
<!DOCTYPE svg PUBLIC "-//W3C//DTD SVG 1.1//EN"
 "http://www.w3.org/Graphics/SVG/1.1/DTD/svg11.dtd">
<!-- Generated by graphviz version 2.43.0 (0)
 -->
<!-- Title: CardAmountWidget::removePrintingMainboard Pages: 1 -->
<svg width="588pt" height="76pt"
 viewBox="0.00 0.00 588.00 75.50" xmlns="http://www.w3.org/2000/svg" xmlns:xlink="http://www.w3.org/1999/xlink">
<g id="graph0" class="graph" transform="scale(1 1) rotate(0) translate(4 71.5)">
<title>CardAmountWidget::removePrintingMainboard</title>
<!-- Node1 -->
<g id="Node000001" class="node">
<title>Node1</title>
<g id="a_Node000001"><a xlink:title="Removes a printing from the mainboard zone.">
<polygon fill="#999999" stroke="#666666" points="155,-51 0,-51 0,-21 155,-21 155,-51"/>
<text text-anchor="start" x="8" y="-39" font-family="Helvetica,sans-Serif" font-size="10.00">CardAmountWidget::remove</text>
<text text-anchor="middle" x="77.5" y="-28" font-family="Helvetica,sans-Serif" font-size="10.00">PrintingMainboard</text>
</a>
</g>
</g>
<!-- Node2 -->
<g id="Node000002" class="node">
<title>Node2</title>
<g id="a_Node000002"><a xlink:href="../../dc/d15/classCardAmountWidget.html#af71524865134ef927c642e7594defd2b" target="_top" xlink:title="Helper function to decrement the card count for a given zone.">
<polygon fill="white" stroke="#666666" points="361,-51 191,-51 191,-21 361,-21 361,-51"/>
<text text-anchor="start" x="199" y="-39" font-family="Helvetica,sans-Serif" font-size="10.00">CardAmountWidget::decrement</text>
<text text-anchor="middle" x="276" y="-28" font-family="Helvetica,sans-Serif" font-size="10.00">CardHelper</text>
</a>
</g>
</g>
<!-- Node1&#45;&gt;Node2 -->
<g id="edge1_Node000001_Node000002" class="edge">
<title>Node1&#45;&gt;Node2</title>
<g id="a_edge1_Node000001_Node000002"><a xlink:title=" ">
<path fill="none" stroke="#63b8ff" d="M155.03,-36C165.13,-36 175.55,-36 185.83,-36"/>
<polygon fill="#63b8ff" stroke="#63b8ff" points="190.86,-36 185.86,-38.25 188.36,-36 185.86,-36 185.86,-36 185.86,-36 188.36,-36 185.86,-33.75 190.86,-36 190.86,-36"/>
</a>
</g>
</g>
<!-- Node3 -->
<g id="Node000003" class="node">
<title>Node3</title>
<g id="a_Node000003"><a xlink:href="../../dc/d15/classCardAmountWidget.html#a9759fcbe79ff3d583022588926152fc7" target="_top" xlink:title=" ">
<polygon fill="white" stroke="#666666" points="580,-67.5 397,-67.5 397,-48.5 580,-48.5 580,-67.5"/>
<text text-anchor="middle" x="488.5" y="-55.5" font-family="Helvetica,sans-Serif" font-size="10.00">CardAmountWidget::deckModified</text>
</a>
</g>
</g>
<!-- Node2&#45;&gt;Node3 -->
<g id="edge2_Node000002_Node000003" class="edge">
<title>Node2&#45;&gt;Node3</title>
<g id="a_edge2_Node000002_Node000003"><a xlink:title=" ">
<path fill="none" stroke="#63b8ff" d="M361.1,-44.79C371.24,-45.85 381.65,-46.94 391.93,-48.01"/>
<polygon fill="#63b8ff" stroke="#63b8ff" points="396.97,-48.54 391.76,-50.26 394.48,-48.28 392,-48.02 392,-48.02 392,-48.02 394.48,-48.28 392.23,-45.78 396.97,-48.54 396.97,-48.54"/>
</a>
</g>
</g>
<!-- Node4 -->
<g id="Node000004" class="node">
<title>Node4</title>
<g id="a_Node000004"><a xlink:href="../../dc/d15/classCardAmountWidget.html#aebb99211b99910dc95bca4675cbb2c6a" target="_top" xlink:title="Offsets the card count at the specified index by the given amount.">
<polygon fill="white" stroke="#666666" points="561.5,-30 415.5,-30 415.5,0 561.5,0 561.5,-30"/>
<text text-anchor="start" x="423.5" y="-18" font-family="Helvetica,sans-Serif" font-size="10.00">CardAmountWidget::offset</text>
<text text-anchor="middle" x="488.5" y="-7" font-family="Helvetica,sans-Serif" font-size="10.00">CountAtIndex</text>
</a>
</g>
</g>
<!-- Node2&#45;&gt;Node4 -->
<g id="edge3_Node000002_Node000004" class="edge">
<title>Node2&#45;&gt;Node4</title>
<g id="a_edge3_Node000002_Node000004"><a xlink:title=" ">
<path fill="none" stroke="#63b8ff" d="M361.1,-27.61C377.26,-26 394.1,-24.32 410.03,-22.73"/>
<polygon fill="#63b8ff" stroke="#63b8ff" points="415.4,-22.19 410.65,-24.93 412.91,-22.44 410.42,-22.69 410.42,-22.69 410.42,-22.69 412.91,-22.44 410.2,-20.45 415.4,-22.19 415.4,-22.19"/>
</a>
</g>
</g>
</g>
</svg>
