<?xml version="1.0" encoding="UTF-8" standalone="no"?>
<!DOCTYPE svg PUBLIC "-//W3C//DTD SVG 1.1//EN"
 "http://www.w3.org/Graphics/SVG/1.1/DTD/svg11.dtd">
<!-- Generated by graphviz version 2.43.0 (0)
 -->
<!-- Title: cockatrice/src/interface/widgets/tabs/api/archidekt/api_response/deck/archidekt_api_response_deck_category.h Pages: 1 -->
<svg width="692pt" height="313pt"
 viewBox="0.00 0.00 692.00 313.00" xmlns="http://www.w3.org/2000/svg" xmlns:xlink="http://www.w3.org/1999/xlink">
<g id="graph0" class="graph" transform="scale(1 1) rotate(0) translate(4 309)">
<title>cockatrice/src/interface/widgets/tabs/api/archidekt/api_response/deck/archidekt_api_response_deck_category.h</title>
<!-- Node1 -->
<g id="Node000001" class="node">
<title>Node1</title>
<g id="a_Node000001"><a xlink:title=" ">
<polygon fill="#999999" stroke="#666666" points="378,-305 208,-305 208,-253 378,-253 378,-305"/>
<text text-anchor="start" x="216" y="-293" font-family="Helvetica,sans-Serif" font-size="10.00">cockatrice/src/interface</text>
<text text-anchor="start" x="216" y="-282" font-family="Helvetica,sans-Serif" font-size="10.00">/widgets/tabs/api/archidekt</text>
<text text-anchor="start" x="216" y="-271" font-family="Helvetica,sans-Serif" font-size="10.00">/api_response/deck/archidekt</text>
<text text-anchor="middle" x="293" y="-260" font-family="Helvetica,sans-Serif" font-size="10.00">_api_response_deck_category.h</text>
</a>
</g>
</g>
<!-- Node2 -->
<g id="Node000002" class="node">
<title>Node2</title>
<g id="a_Node000002"><a xlink:href="../../d0/da9/archidekt__api__response__card_8h.html" target="_top" xlink:title=" ">
<polygon fill="white" stroke="#666666" points="488,-151 372,-151 372,-121 488,-121 488,-151"/>
<text text-anchor="start" x="380" y="-139" font-family="Helvetica,sans-Serif" font-size="10.00">../card/archidekt_api</text>
<text text-anchor="middle" x="430" y="-128" font-family="Helvetica,sans-Serif" font-size="10.00">_response_card.h</text>
</a>
</g>
</g>
<!-- Node1&#45;&gt;Node2 -->
<g id="edge1_Node000001_Node000002" class="edge">
<title>Node1&#45;&gt;Node2</title>
<g id="a_edge1_Node000001_Node000002"><a xlink:title=" ">
<path fill="none" stroke="#63b8ff" d="M369.89,-252.92C386.99,-244.04 403.45,-232.31 415,-217 428.19,-199.52 430.91,-173.89 431,-156.38"/>
<polygon fill="#63b8ff" stroke="#63b8ff" points="430.95,-151.22 433.25,-156.2 430.97,-153.72 431,-156.22 431,-156.22 431,-156.22 430.97,-153.72 428.75,-156.24 430.95,-151.22 430.95,-151.22"/>
</a>
</g>
</g>
<!-- Node4 -->
<g id="Node000004" class="node">
<title>Node4</title>
<g id="a_Node000004"><a xlink:title=" ">
<polygon fill="#e0e0e0" stroke="#999999" points="56,-19 0,-19 0,0 56,0 56,-19"/>
<text text-anchor="middle" x="28" y="-7" font-family="Helvetica,sans-Serif" font-size="10.00">QDebug</text>
</a>
</g>
</g>
<!-- Node1&#45;&gt;Node4 -->
<g id="edge26_Node000001_Node000004" class="edge">
<title>Node1&#45;&gt;Node4</title>
<g id="a_edge26_Node000001_Node000004"><a xlink:title=" ">
<path fill="none" stroke="#63b8ff" d="M223.98,-252.91C202.42,-243.4 179.26,-231.33 160,-217 97.59,-170.54 80.12,-154.43 45,-85 35.08,-65.39 30.88,-39.96 29.15,-24.46"/>
<polygon fill="#63b8ff" stroke="#63b8ff" points="28.62,-19.23 31.36,-23.97 28.87,-21.71 29.12,-24.2 29.12,-24.2 29.12,-24.2 28.87,-21.71 26.89,-24.43 28.62,-19.23 28.62,-19.23"/>
</a>
</g>
</g>
<!-- Node5 -->
<g id="Node000005" class="node">
<title>Node5</title>
<g id="a_Node000005"><a xlink:title=" ">
<polygon fill="#e0e0e0" stroke="#999999" points="145.5,-19 74.5,-19 74.5,0 145.5,0 145.5,-19"/>
<text text-anchor="middle" x="110" y="-7" font-family="Helvetica,sans-Serif" font-size="10.00">QJsonArray</text>
</a>
</g>
</g>
<!-- Node1&#45;&gt;Node5 -->
<g id="edge27_Node000001_Node000005" class="edge">
<title>Node1&#45;&gt;Node5</title>
<g id="a_edge27_Node000001_Node000005"><a xlink:title=" ">
<path fill="none" stroke="#63b8ff" d="M248.39,-252.92C197.51,-221.38 117.34,-161.9 86,-85 77.45,-64.02 90.22,-38.76 100.16,-23.7"/>
<polygon fill="#63b8ff" stroke="#63b8ff" points="103.13,-19.37 102.16,-24.77 101.72,-21.43 100.31,-23.49 100.31,-23.49 100.31,-23.49 101.72,-21.43 98.45,-22.22 103.13,-19.37 103.13,-19.37"/>
</a>
</g>
</g>
<!-- Node6 -->
<g id="Node000006" class="node">
<title>Node6</title>
<g id="a_Node000006"><a xlink:title=" ">
<polygon fill="#e0e0e0" stroke="#999999" points="684,-19 608,-19 608,0 684,0 684,-19"/>
<text text-anchor="middle" x="646" y="-7" font-family="Helvetica,sans-Serif" font-size="10.00">QJsonObject</text>
</a>
</g>
</g>
<!-- Node1&#45;&gt;Node6 -->
<g id="edge28_Node000001_Node000006" class="edge">
<title>Node1&#45;&gt;Node6</title>
<g id="a_edge28_Node000001_Node000006"><a xlink:title=" ">
<path fill="none" stroke="#63b8ff" d="M378,-257.24C410.94,-247.43 448.27,-234.07 480,-217 521.51,-194.67 532.05,-186.55 563,-151 599.1,-109.53 628.16,-50.2 640.11,-23.91"/>
<polygon fill="#63b8ff" stroke="#63b8ff" points="642.27,-19.11 642.28,-24.59 641.25,-21.39 640.22,-23.67 640.22,-23.67 640.22,-23.67 641.25,-21.39 638.17,-22.75 642.27,-19.11 642.27,-19.11"/>
</a>
</g>
</g>
<!-- Node7 -->
<g id="Node000007" class="node">
<title>Node7</title>
<g id="a_Node000007"><a xlink:title=" ">
<polygon fill="#e0e0e0" stroke="#999999" points="366.5,-19 313.5,-19 313.5,0 366.5,0 366.5,-19"/>
<text text-anchor="middle" x="340" y="-7" font-family="Helvetica,sans-Serif" font-size="10.00">QString</text>
</a>
</g>
</g>
<!-- Node1&#45;&gt;Node7 -->
<g id="edge29_Node000001_Node000007" class="edge">
<title>Node1&#45;&gt;Node7</title>
<g id="a_edge29_Node000001_Node000007"><a xlink:title=" ">
<path fill="none" stroke="#63b8ff" d="M279.1,-252.98C273.89,-242.24 268.61,-229.35 266,-217 263.24,-203.96 263.37,-200.07 266,-187 278.95,-122.64 315.98,-52.5 332.22,-23.83"/>
<polygon fill="#63b8ff" stroke="#63b8ff" points="334.82,-19.28 334.29,-24.74 333.58,-21.45 332.34,-23.62 332.34,-23.62 332.34,-23.62 333.58,-21.45 330.38,-22.5 334.82,-19.28 334.82,-19.28"/>
</a>
</g>
</g>
<!-- Node8 -->
<g id="Node000008" class="node">
<title>Node8</title>
<g id="a_Node000008"><a xlink:title=" ">
<polygon fill="#e0e0e0" stroke="#999999" points="589.5,-19 534.5,-19 534.5,0 589.5,0 589.5,-19"/>
<text text-anchor="middle" x="562" y="-7" font-family="Helvetica,sans-Serif" font-size="10.00">QVector</text>
</a>
</g>
</g>
<!-- Node1&#45;&gt;Node8 -->
<g id="edge30_Node000001_Node000008" class="edge">
<title>Node1&#45;&gt;Node8</title>
<g id="a_edge30_Node000001_Node000008"><a xlink:title=" ">
<path fill="none" stroke="#63b8ff" d="M363.49,-252.96C415.29,-231.88 484.9,-197.68 534,-151 560.48,-125.83 571.53,-119.69 583,-85 590.03,-63.72 578.99,-38.56 570.44,-23.59"/>
<polygon fill="#63b8ff" stroke="#63b8ff" points="567.89,-19.29 572.38,-22.45 569.17,-21.44 570.44,-23.59 570.44,-23.59 570.44,-23.59 569.17,-21.44 568.51,-24.74 567.89,-19.29 567.89,-19.29"/>
</a>
</g>
</g>
<!-- Node9 -->
<g id="Node000009" class="node">
<title>Node9</title>
<g id="a_Node000009"><a xlink:href="../../da/d79/archidekt__api__response__card__entry_8h.html" target="_top" xlink:title=" ">
<polygon fill="white" stroke="#666666" points="405.5,-217 274.5,-217 274.5,-187 405.5,-187 405.5,-217"/>
<text text-anchor="start" x="282.5" y="-205" font-family="Helvetica,sans-Serif" font-size="10.00">../card/archidekt_api</text>
<text text-anchor="middle" x="340" y="-194" font-family="Helvetica,sans-Serif" font-size="10.00">_response_card_entry.h</text>
</a>
</g>
</g>
<!-- Node1&#45;&gt;Node9 -->
<g id="edge13_Node000001_Node000009" class="edge">
<title>Node1&#45;&gt;Node9</title>
<g id="a_edge13_Node000001_Node000009"><a xlink:title=" ">
<path fill="none" stroke="#63b8ff" d="M308.91,-252.61C315.23,-242.53 322.36,-231.14 328.2,-221.82"/>
<polygon fill="#63b8ff" stroke="#63b8ff" points="330.96,-217.43 330.21,-222.86 329.63,-219.55 328.3,-221.66 328.3,-221.66 328.3,-221.66 329.63,-219.55 326.4,-220.47 330.96,-217.43 330.96,-217.43"/>
</a>
</g>
</g>
<!-- Node10 -->
<g id="Node000010" class="node">
<title>Node10</title>
<g id="a_Node000010"><a xlink:href="../../d8/d5a/archidekt__api__response__deck__owner_8h.html" target="_top" xlink:title=" ">
<polygon fill="white" stroke="#666666" points="274,-85 116,-85 116,-55 274,-55 274,-85"/>
<text text-anchor="start" x="124" y="-73" font-family="Helvetica,sans-Serif" font-size="10.00">../deck_listings/archidekt</text>
<text text-anchor="middle" x="195" y="-62" font-family="Helvetica,sans-Serif" font-size="10.00">_api_response_deck_owner.h</text>
</a>
</g>
</g>
<!-- Node1&#45;&gt;Node10 -->
<g id="edge20_Node000001_Node000010" class="edge">
<title>Node1&#45;&gt;Node10</title>
<g id="a_edge20_Node000001_Node000010"><a xlink:title=" ">
<path fill="none" stroke="#63b8ff" d="M261.53,-252.75C250.77,-242.66 239.55,-230.28 232,-217 208.53,-175.69 199.73,-119.48 196.61,-90.32"/>
<polygon fill="#63b8ff" stroke="#63b8ff" points="196.09,-85.2 198.83,-89.95 196.34,-87.69 196.59,-90.18 196.59,-90.18 196.59,-90.18 196.34,-87.69 194.36,-90.4 196.09,-85.2 196.09,-85.2"/>
</a>
</g>
</g>
<!-- Node3 -->
<g id="Node000003" class="node">
<title>Node3</title>
<g id="a_Node000003"><a xlink:href="../../d5/d22/archidekt__api__response__edition_8h.html" target="_top" xlink:title=" ">
<polygon fill="white" stroke="#666666" points="538,-85 406,-85 406,-55 538,-55 538,-85"/>
<text text-anchor="start" x="414" y="-73" font-family="Helvetica,sans-Serif" font-size="10.00">archidekt_api_response</text>
<text text-anchor="middle" x="472" y="-62" font-family="Helvetica,sans-Serif" font-size="10.00">_edition.h</text>
</a>
</g>
</g>
<!-- Node2&#45;&gt;Node3 -->
<g id="edge2_Node000002_Node000003" class="edge">
<title>Node2&#45;&gt;Node3</title>
<g id="a_edge2_Node000002_Node000003"><a xlink:title=" ">
<path fill="none" stroke="#63b8ff" d="M439.32,-120.8C445.36,-111.6 453.28,-99.53 459.81,-89.57"/>
<polygon fill="#63b8ff" stroke="#63b8ff" points="462.7,-85.16 461.84,-90.58 461.33,-87.25 459.96,-89.34 459.96,-89.34 459.96,-89.34 461.33,-87.25 458.08,-88.11 462.7,-85.16 462.7,-85.16"/>
</a>
</g>
</g>
<!-- Node2&#45;&gt;Node4 -->
<g id="edge8_Node000002_Node000004" class="edge">
<title>Node2&#45;&gt;Node4</title>
<g id="a_edge8_Node000002_Node000004"><a xlink:title=" ">
<path fill="none" stroke="#63b8ff" d="M371.97,-131.08C289.11,-124.68 141.74,-110.13 95,-85 68.11,-70.54 46.6,-40.9 35.73,-23.68"/>
<polygon fill="#63b8ff" stroke="#63b8ff" points="32.95,-19.18 37.49,-22.25 34.27,-21.3 35.58,-23.43 35.58,-23.43 35.58,-23.43 34.27,-21.3 33.66,-24.61 32.95,-19.18 32.95,-19.18"/>
</a>
</g>
</g>
<!-- Node2&#45;&gt;Node5 -->
<g id="edge9_Node000002_Node000005" class="edge">
<title>Node2&#45;&gt;Node5</title>
<g id="a_edge9_Node000002_Node000005"><a xlink:title=" ">
<path fill="none" stroke="#63b8ff" d="M371.95,-127.99C281.31,-116.76 115.56,-94.99 107,-85 92.49,-68.08 98.86,-40.22 104.58,-23.79"/>
<polygon fill="#63b8ff" stroke="#63b8ff" points="106.31,-19.08 106.7,-24.55 105.45,-21.42 104.59,-23.77 104.59,-23.77 104.59,-23.77 105.45,-21.42 102.48,-22.99 106.31,-19.08 106.31,-19.08"/>
</a>
</g>
</g>
<!-- Node2&#45;&gt;Node6 -->
<g id="edge10_Node000002_Node000006" class="edge">
<title>Node2&#45;&gt;Node6</title>
<g id="a_edge10_Node000002_Node000006"><a xlink:title=" ">
<path fill="none" stroke="#63b8ff" d="M483.68,-120.96C509.96,-112.74 541.36,-100.83 567,-85 595.1,-67.66 621.73,-39.17 635.75,-22.91"/>
<polygon fill="#63b8ff" stroke="#63b8ff" points="639.03,-19.05 637.5,-24.32 637.41,-20.95 635.79,-22.86 635.79,-22.86 635.79,-22.86 637.41,-20.95 634.08,-21.4 639.03,-19.05 639.03,-19.05"/>
</a>
</g>
</g>
<!-- Node2&#45;&gt;Node7 -->
<g id="edge11_Node000002_Node000007" class="edge">
<title>Node2&#45;&gt;Node7</title>
<g id="a_edge11_Node000002_Node000007"><a xlink:title=" ">
<path fill="none" stroke="#63b8ff" d="M419.68,-120.72C402.02,-96.29 366.27,-46.85 349.32,-23.4"/>
<polygon fill="#63b8ff" stroke="#63b8ff" points="346.19,-19.07 350.95,-21.8 347.66,-21.1 349.12,-23.12 349.12,-23.12 349.12,-23.12 347.66,-21.1 347.3,-24.44 346.19,-19.07 346.19,-19.07"/>
</a>
</g>
</g>
<!-- Node2&#45;&gt;Node8 -->
<g id="edge12_Node000002_Node000008" class="edge">
<title>Node2&#45;&gt;Node8</title>
<g id="a_edge12_Node000002_Node000008"><a xlink:title=" ">
<path fill="none" stroke="#63b8ff" d="M488.22,-122.33C509.63,-114.86 532.23,-103.17 547,-85 561.06,-67.71 563.1,-40.8 562.86,-24.5"/>
<polygon fill="#63b8ff" stroke="#63b8ff" points="562.7,-19.4 565.1,-24.33 562.78,-21.9 562.85,-24.4 562.85,-24.4 562.85,-24.4 562.78,-21.9 560.6,-24.47 562.7,-19.4 562.7,-19.4"/>
</a>
</g>
</g>
<!-- Node3&#45;&gt;Node4 -->
<g id="edge3_Node000003_Node000004" class="edge">
<title>Node3&#45;&gt;Node4</title>
<g id="a_edge3_Node000003_Node000004"><a xlink:title=" ">
<path fill="none" stroke="#63b8ff" d="M405.78,-62.99C324.98,-55.17 184.37,-39.99 65,-19 63.75,-18.78 62.48,-18.55 61.2,-18.3"/>
<polygon fill="#63b8ff" stroke="#63b8ff" points="56.22,-17.3 61.57,-16.08 58.67,-17.79 61.12,-18.28 61.12,-18.28 61.12,-18.28 58.67,-17.79 60.68,-20.49 56.22,-17.3 56.22,-17.3"/>
</a>
</g>
</g>
<!-- Node3&#45;&gt;Node5 -->
<g id="edge4_Node000003_Node000005" class="edge">
<title>Node3&#45;&gt;Node5</title>
<g id="a_edge4_Node000003_Node000005"><a xlink:title=" ">
<path fill="none" stroke="#63b8ff" d="M405.6,-58.27C331.15,-46.24 212.76,-27.11 150.81,-17.1"/>
<polygon fill="#63b8ff" stroke="#63b8ff" points="145.73,-16.27 151.02,-14.85 148.19,-16.67 150.66,-17.07 150.66,-17.07 150.66,-17.07 148.19,-16.67 150.3,-19.29 145.73,-16.27 145.73,-16.27"/>
</a>
</g>
</g>
<!-- Node3&#45;&gt;Node6 -->
<g id="edge5_Node000003_Node000006" class="edge">
<title>Node3&#45;&gt;Node6</title>
<g id="a_edge5_Node000003_Node000006"><a xlink:title=" ">
<path fill="none" stroke="#63b8ff" d="M513.68,-54.99C545.14,-44.41 587.56,-30.15 615.8,-20.65"/>
<polygon fill="#63b8ff" stroke="#63b8ff" points="620.56,-19.05 616.54,-22.78 618.19,-19.85 615.82,-20.65 615.82,-20.65 615.82,-20.65 618.19,-19.85 615.1,-18.51 620.56,-19.05 620.56,-19.05"/>
</a>
</g>
</g>
<!-- Node3&#45;&gt;Node7 -->
<g id="edge6_Node000003_Node000007" class="edge">
<title>Node3&#45;&gt;Node7</title>
<g id="a_edge6_Node000003_Node000007"><a xlink:title=" ">
<path fill="none" stroke="#63b8ff" d="M440.38,-54.99C416.98,-44.62 385.58,-30.7 364.17,-21.21"/>
<polygon fill="#63b8ff" stroke="#63b8ff" points="359.49,-19.14 364.98,-19.11 361.78,-20.15 364.06,-21.17 364.06,-21.17 364.06,-21.17 361.78,-20.15 363.15,-23.22 359.49,-19.14 359.49,-19.14"/>
</a>
</g>
</g>
<!-- Node3&#45;&gt;Node8 -->
<g id="edge7_Node000003_Node000008" class="edge">
<title>Node3&#45;&gt;Node8</title>
<g id="a_edge7_Node000003_Node000008"><a xlink:title=" ">
<path fill="none" stroke="#63b8ff" d="M493.79,-54.84C509.34,-44.73 530,-31.3 544.49,-21.88"/>
<polygon fill="#63b8ff" stroke="#63b8ff" points="548.78,-19.09 545.81,-23.71 546.68,-20.46 544.59,-21.82 544.59,-21.82 544.59,-21.82 546.68,-20.46 543.36,-19.93 548.78,-19.09 548.78,-19.09"/>
</a>
</g>
</g>
<!-- Node9&#45;&gt;Node2 -->
<g id="edge14_Node000009_Node000002" class="edge">
<title>Node9&#45;&gt;Node2</title>
<g id="a_edge14_Node000009_Node000002"><a xlink:title=" ">
<path fill="none" stroke="#63b8ff" d="M359.97,-186.8C373.49,-177.18 391.42,-164.43 405.76,-154.24"/>
<polygon fill="#63b8ff" stroke="#63b8ff" points="410.08,-151.16 407.31,-155.9 408.04,-152.61 406.01,-154.06 406.01,-154.06 406.01,-154.06 408.04,-152.61 404.7,-152.23 410.08,-151.16 410.08,-151.16"/>
</a>
</g>
</g>
<!-- Node9&#45;&gt;Node4 -->
<g id="edge15_Node000009_Node000004" class="edge">
<title>Node9&#45;&gt;Node4</title>
<g id="a_edge15_Node000009_Node000004"><a xlink:title=" ">
<path fill="none" stroke="#63b8ff" d="M274.41,-198.05C229.07,-193.22 169.2,-181.08 125,-151 76.55,-118.03 45.09,-52.19 33.26,-23.91"/>
<polygon fill="#63b8ff" stroke="#63b8ff" points="31.29,-19.09 35.26,-22.86 32.23,-21.4 33.18,-23.71 33.18,-23.71 33.18,-23.71 32.23,-21.4 31.1,-24.57 31.29,-19.09 31.29,-19.09"/>
</a>
</g>
</g>
<!-- Node9&#45;&gt;Node5 -->
<g id="edge16_Node000009_Node000005" class="edge">
<title>Node9&#45;&gt;Node5</title>
<g id="a_edge16_Node000009_Node000005"><a xlink:title=" ">
<path fill="none" stroke="#63b8ff" d="M274.47,-189.99C216.13,-176.35 134.14,-146.83 95,-85 82.98,-66.01 93.6,-39.3 102.05,-23.55"/>
<polygon fill="#63b8ff" stroke="#63b8ff" points="104.58,-19.04 104.1,-24.5 103.36,-21.22 102.14,-23.4 102.14,-23.4 102.14,-23.4 103.36,-21.22 100.17,-22.3 104.58,-19.04 104.58,-19.04"/>
</a>
</g>
</g>
<!-- Node9&#45;&gt;Node6 -->
<g id="edge17_Node000009_Node000006" class="edge">
<title>Node9&#45;&gt;Node6</title>
<g id="a_edge17_Node000009_Node000006"><a xlink:title=" ">
<path fill="none" stroke="#63b8ff" d="M405.8,-193.07C445.02,-186.21 494.67,-173.66 534,-151 587.66,-120.09 625.45,-52.63 639.71,-23.9"/>
<polygon fill="#63b8ff" stroke="#63b8ff" points="641.95,-19.31 641.78,-24.79 640.85,-21.56 639.76,-23.8 639.76,-23.8 639.76,-23.8 640.85,-21.56 637.73,-22.82 641.95,-19.31 641.95,-19.31"/>
</a>
</g>
</g>
<!-- Node9&#45;&gt;Node7 -->
<g id="edge18_Node000009_Node000007" class="edge">
<title>Node9&#45;&gt;Node7</title>
<g id="a_edge18_Node000009_Node000007"><a xlink:title=" ">
<path fill="none" stroke="#63b8ff" d="M340,-186.99C340,-151.76 340,-59.75 340,-24.51"/>
<polygon fill="#63b8ff" stroke="#63b8ff" points="340,-19.36 342.25,-24.36 340,-21.86 340,-24.36 340,-24.36 340,-24.36 340,-21.86 337.75,-24.36 340,-19.36 340,-19.36"/>
</a>
</g>
</g>
<!-- Node9&#45;&gt;Node8 -->
<g id="edge19_Node000009_Node000008" class="edge">
<title>Node9&#45;&gt;Node8</title>
<g id="a_edge19_Node000009_Node000008"><a xlink:title=" ">
<path fill="none" stroke="#63b8ff" d="M405.78,-187.08C434.99,-179.17 469.02,-167.47 497,-151 533.85,-129.3 550.06,-124.26 567,-85 575.58,-65.11 570.83,-39.44 566.49,-24.01"/>
<polygon fill="#63b8ff" stroke="#63b8ff" points="565.06,-19.2 568.64,-23.35 565.77,-21.59 566.49,-23.99 566.49,-23.99 566.49,-23.99 565.77,-21.59 564.33,-24.63 565.06,-19.2 565.06,-19.2"/>
</a>
</g>
</g>
<!-- Node10&#45;&gt;Node4 -->
<g id="edge21_Node000010_Node000004" class="edge">
<title>Node10&#45;&gt;Node4</title>
<g id="a_edge21_Node000010_Node000004"><a xlink:title=" ">
<path fill="none" stroke="#63b8ff" d="M155,-54.99C125.02,-44.49 84.67,-30.35 57.56,-20.86"/>
<polygon fill="#63b8ff" stroke="#63b8ff" points="52.66,-19.14 58.13,-18.67 55.02,-19.97 57.38,-20.79 57.38,-20.79 57.38,-20.79 55.02,-19.97 56.64,-22.92 52.66,-19.14 52.66,-19.14"/>
</a>
</g>
</g>
<!-- Node10&#45;&gt;Node5 -->
<g id="edge22_Node000010_Node000005" class="edge">
<title>Node10&#45;&gt;Node5</title>
<g id="a_edge22_Node000010_Node000005"><a xlink:title=" ">
<path fill="none" stroke="#63b8ff" d="M174.42,-54.84C159.95,-44.87 140.79,-31.69 127.14,-22.3"/>
<polygon fill="#63b8ff" stroke="#63b8ff" points="122.74,-19.27 128.13,-20.25 124.8,-20.68 126.86,-22.1 126.86,-22.1 126.86,-22.1 124.8,-20.68 125.58,-23.95 122.74,-19.27 122.74,-19.27"/>
</a>
</g>
</g>
<!-- Node10&#45;&gt;Node6 -->
<g id="edge23_Node000010_Node000006" class="edge">
<title>Node10&#45;&gt;Node6</title>
<g id="a_edge23_Node000010_Node000006"><a xlink:title=" ">
<path fill="none" stroke="#63b8ff" d="M274.14,-60.53C355.72,-51.48 486.51,-36.12 599,-19 600.26,-18.81 601.53,-18.61 602.81,-18.41"/>
<polygon fill="#63b8ff" stroke="#63b8ff" points="607.81,-17.59 603.24,-20.62 605.34,-17.99 602.88,-18.4 602.88,-18.4 602.88,-18.4 605.34,-17.99 602.51,-16.18 607.81,-17.59 607.81,-17.59"/>
</a>
</g>
</g>
<!-- Node10&#45;&gt;Node7 -->
<g id="edge24_Node000010_Node000007" class="edge">
<title>Node10&#45;&gt;Node7</title>
<g id="a_edge24_Node000010_Node000007"><a xlink:title=" ">
<path fill="none" stroke="#63b8ff" d="M229.73,-54.99C255.54,-44.57 290.22,-30.58 313.74,-21.09"/>
<polygon fill="#63b8ff" stroke="#63b8ff" points="318.59,-19.14 314.79,-23.1 316.27,-20.07 313.95,-21.01 313.95,-21.01 313.95,-21.01 316.27,-20.07 313.11,-18.92 318.59,-19.14 318.59,-19.14"/>
</a>
</g>
</g>
<!-- Node10&#45;&gt;Node8 -->
<g id="edge25_Node000010_Node000008" class="edge">
<title>Node10&#45;&gt;Node8</title>
<g id="a_edge25_Node000010_Node000008"><a xlink:title=" ">
<path fill="none" stroke="#63b8ff" d="M274.18,-56.38C353.75,-43.7 472.5,-24.77 529.36,-15.7"/>
<polygon fill="#63b8ff" stroke="#63b8ff" points="534.34,-14.91 529.76,-17.92 531.87,-15.3 529.4,-15.7 529.4,-15.7 529.4,-15.7 531.87,-15.3 529.05,-13.47 534.34,-14.91 534.34,-14.91"/>
</a>
</g>
</g>
</g>
</svg>
