<?xml version="1.0" encoding="UTF-8" standalone="no"?>
<!DOCTYPE svg PUBLIC "-//W3C//DTD SVG 1.1//EN"
 "http://www.w3.org/Graphics/SVG/1.1/DTD/svg11.dtd">
<!-- Generated by graphviz version 2.43.0 (0)
 -->
<!-- Title: TabDeckEditorVisual::processCardClickDatabaseDisplay Pages: 1 -->
<!--zoomable 155 -->

<svg id="main" version="1.1" xmlns="http://www.w3.org/2000/svg" xmlns:xlink="http://www.w3.org/1999/xlink" xml:space="preserve" onload="init(evt)">

<style type="text/css"><![CDATA[
.node, .edge {opacity: 0.7;}
.node.selected, .edge.selected {opacity: 1;}
.edge:hover path { stroke: red; }
.edge:hover polygon { stroke: red; fill: red; }
]]></style>

<defs>
  <circle id="rim" cx="0" cy="0" r="7"/>
  <circle id="rim2" cx="0" cy="0" r="3.5"/>
  <g id="zoomPlus">
    <use xlink:href="#rim" fill="#404040"><set attributeName="fill" to="#808080" begin="zoomplus.mouseover" end="zoomplus.mouseout"/></use>
    <path d="M-4,0h8M0,-4v8" fill="none" stroke="white" stroke-width="1.5" pointer-events="none"/>
  </g>
  <g id="zoomMin">
    <use xlink:href="#rim" fill="#404040"><set attributeName="fill" to="#808080" begin="zoomminus.mouseover" end="zoomminus.mouseout"/></use>
    <path d="M-4,0h8" fill="none" stroke="white" stroke-width="1.5" pointer-events="none"/>
  </g>
  <g id="arrowUp" transform="translate(30 24)">
    <use xlink:href="#rim"/>
    <path pointer-events="none" fill="none" stroke="white" stroke-width="1.5" d="M0,-3.0v7 M-2.5,-0.5L0,-3.0L2.5,-0.5"/>
  </g>
  <g id="arrowRight" transform="rotate(90) translate(36 -43)">
    <use xlink:href="#rim"/>
    <path pointer-events="none" fill="none" stroke="white" stroke-width="1.5" d="M0,-3.0v7 M-2.5,-0.5L0,-3.0L2.5,-0.5"/>
  </g>
  <g id="arrowDown" transform="rotate(180) translate(-30 -48)">
    <use xlink:href="#rim"/>
    <path pointer-events="none" fill="none" stroke="white" stroke-width="1.5" d="M0,-3.0v7 M-2.5,-0.5L0,-3.0L2.5,-0.5"/>
  </g>
  <g id="arrowLeft" transform="rotate(270) translate(-36 17)">
    <use xlink:href="#rim"/>
    <path pointer-events="none" fill="none" stroke="white" stroke-width="1.5" d="M0,-3.0v7 M-2.5,-0.5L0,-3.0L2.5,-0.5"/>
  </g>
  <g id="resetDef">
    <use xlink:href="#rim2" fill="#404040"><set attributeName="fill" to="#808080" begin="reset.mouseover" end="reset.mouseout"/></use>
  </g>
</defs>
<script type="application/ecmascript">
var viewWidth = 661;
var viewHeight = 155;
var sectionId = 'dynsection-19';
</script>
<script type="application/ecmascript" xlink:href="../../svg.min.js"/>
<svg id="graph" class="graph">
<g id="viewport">
<title>TabDeckEditorVisual::processCardClickDatabaseDisplay</title>
<!-- Node1 -->
<g id="Node000001" class="node">
<title>Node1</title>
<g id="a_Node000001"><a xlink:title="Handle card clicks in the database visual display.">
<polygon fill="#999999" stroke="#666666" points="153,-83.5 0,-83.5 0,-42.5 153,-42.5 153,-83.5"/>
<text text-anchor="start" x="8" y="-71.5" font-family="Helvetica,sans-Serif" font-size="10.00">TabDeckEditorVisual</text>
<text text-anchor="start" x="8" y="-60.5" font-family="Helvetica,sans-Serif" font-size="10.00">::processCardClickDatabase</text>
<text text-anchor="middle" x="76.5" y="-49.5" font-family="Helvetica,sans-Serif" font-size="10.00">Display</text>
</a>
</g>
</g>
<!-- Node2 -->
<g id="Node000002" class="node">
<title>Node2</title>
<g id="a_Node000002"><a xlink:href="../../d1/d53/classAbstractTabDeckEditor.html#a86fddfe318be81f8fe4aa54e980fcdd1" target="_top" xlink:title="Adds a card to the main deck or sideboard based on Ctrl key.">
<polygon fill="white" stroke="#666666" points="316,-126 189,-126 189,-96 316,-96 316,-126"/>
<text text-anchor="start" x="197" y="-114" font-family="Helvetica,sans-Serif" font-size="10.00">AbstractTabDeckEditor</text>
<text text-anchor="middle" x="252.5" y="-103" font-family="Helvetica,sans-Serif" font-size="10.00">::actAddCard</text>
</a>
</g>
</g>
<!-- Node1&#45;&gt;Node2 -->
<g id="edge1_Node000001_Node000002" class="edge">
<title>Node1&#45;&gt;Node2</title>
<g id="a_edge1_Node000001_Node000002"><a xlink:title=" ">
<path fill="none" stroke="#63b8ff" d="M152.05,-83.57C165.4,-87.25 179.16,-91.04 192.02,-94.59"/>
<polygon fill="#63b8ff" stroke="#63b8ff" points="197.09,-95.99 191.67,-96.83 194.68,-95.33 192.27,-94.66 192.27,-94.66 192.27,-94.66 194.68,-95.33 192.87,-92.49 197.09,-95.99 197.09,-95.99"/>
</a>
</g>
</g>
<!-- Node5 -->
<g id="Node000005" class="node">
<title>Node5</title>
<g id="a_Node000005"><a xlink:href="../../d1/d53/classAbstractTabDeckEditor.html#ad3695aa2697226b04e4d9b9185446a7d" target="_top" xlink:title="Decrements a card from the main deck.">
<polygon fill="white" stroke="#666666" points="316,-78 189,-78 189,-48 316,-48 316,-78"/>
<text text-anchor="start" x="197" y="-66" font-family="Helvetica,sans-Serif" font-size="10.00">AbstractTabDeckEditor</text>
<text text-anchor="middle" x="252.5" y="-55" font-family="Helvetica,sans-Serif" font-size="10.00">::actDecrementCard</text>
</a>
</g>
</g>
<!-- Node1&#45;&gt;Node5 -->
<g id="edge5_Node000001_Node000005" class="edge">
<title>Node1&#45;&gt;Node5</title>
<g id="a_edge5_Node000001_Node000005"><a xlink:title=" ">
<path fill="none" stroke="#63b8ff" d="M153.06,-63C163.21,-63 173.58,-63 183.59,-63"/>
<polygon fill="#63b8ff" stroke="#63b8ff" points="188.79,-63 183.79,-65.25 186.29,-63 183.79,-63 183.79,-63 183.79,-63 186.29,-63 183.79,-60.75 188.79,-63 188.79,-63"/>
</a>
</g>
</g>
<!-- Node6 -->
<g id="Node000006" class="node">
<title>Node6</title>
<g id="a_Node000006"><a xlink:href="../../dd/dd2/classCardInfoPictureWidget.html#adace469451bad01b966f966366081d49" target="_top" xlink:title=" ">
<polygon fill="white" stroke="#666666" points="315.5,-30 189.5,-30 189.5,0 315.5,0 315.5,-30"/>
<text text-anchor="start" x="197.5" y="-18" font-family="Helvetica,sans-Serif" font-size="10.00">CardInfoPictureWidget</text>
<text text-anchor="middle" x="252.5" y="-7" font-family="Helvetica,sans-Serif" font-size="10.00">::getCard</text>
</a>
</g>
</g>
<!-- Node1&#45;&gt;Node6 -->
<g id="edge6_Node000001_Node000006" class="edge">
<title>Node1&#45;&gt;Node6</title>
<g id="a_edge6_Node000001_Node000006"><a xlink:title=" ">
<path fill="none" stroke="#63b8ff" d="M152.05,-42.43C165.4,-38.75 179.16,-34.96 192.02,-31.41"/>
<polygon fill="#63b8ff" stroke="#63b8ff" points="197.09,-30.01 192.87,-33.51 194.68,-30.67 192.27,-31.34 192.27,-31.34 192.27,-31.34 194.68,-30.67 191.67,-29.17 197.09,-30.01 197.09,-30.01"/>
</a>
</g>
</g>
<!-- Node3 -->
<g id="Node000003" class="node">
<title>Node3</title>
<g id="a_Node000003"><a xlink:href="../../d1/d53/classAbstractTabDeckEditor.html#ad81c6e4ddfb67cdb61cc8bc6179bb5c6" target="_top" xlink:title="Adds a card to the sideboard explicitly.">
<polygon fill="white" stroke="#666666" points="490,-147 352,-147 352,-117 490,-117 490,-147"/>
<text text-anchor="start" x="360" y="-135" font-family="Helvetica,sans-Serif" font-size="10.00">AbstractTabDeckEditor</text>
<text text-anchor="middle" x="421" y="-124" font-family="Helvetica,sans-Serif" font-size="10.00">::actAddCardToSideboard</text>
</a>
</g>
</g>
<!-- Node2&#45;&gt;Node3 -->
<g id="edge2_Node000002_Node000003" class="edge">
<title>Node2&#45;&gt;Node3</title>
<g id="a_edge2_Node000002_Node000003"><a xlink:title=" ">
<path fill="none" stroke="#63b8ff" d="M316.45,-118.94C326.42,-120.2 336.8,-121.51 346.98,-122.79"/>
<polygon fill="#63b8ff" stroke="#63b8ff" points="351.96,-123.42 346.72,-125.02 349.48,-123.11 347,-122.79 347,-122.79 347,-122.79 349.48,-123.11 347.28,-120.56 351.96,-123.42 351.96,-123.42"/>
</a>
</g>
</g>
<!-- Node4 -->
<g id="Node000004" class="node">
<title>Node4</title>
<g id="a_Node000004"><a xlink:href="../../d1/d53/classAbstractTabDeckEditor.html#a12545751adcf49163142c29f958e4b24" target="_top" xlink:title="Helper function to add a card to a specific deck zone.">
<polygon fill="white" stroke="#666666" points="653,-125 526,-125 526,-95 653,-95 653,-125"/>
<text text-anchor="start" x="534" y="-113" font-family="Helvetica,sans-Serif" font-size="10.00">AbstractTabDeckEditor</text>
<text text-anchor="middle" x="589.5" y="-102" font-family="Helvetica,sans-Serif" font-size="10.00">::addCardHelper</text>
</a>
</g>
</g>
<!-- Node2&#45;&gt;Node4 -->
<g id="edge4_Node000002_Node000004" class="edge">
<title>Node2&#45;&gt;Node4</title>
<g id="a_edge4_Node000002_Node000004"><a xlink:title=" ">
<path fill="none" stroke="#63b8ff" d="M316.02,-108.81C327.96,-108.47 340.37,-108.18 352,-108 413.33,-107.07 428.67,-107.38 490,-108 499.99,-108.1 510.56,-108.26 520.91,-108.45"/>
<polygon fill="#63b8ff" stroke="#63b8ff" points="525.97,-108.54 520.93,-110.7 523.47,-108.49 520.98,-108.45 520.98,-108.45 520.98,-108.45 523.47,-108.49 521.02,-106.2 525.97,-108.54 525.97,-108.54"/>
</a>
</g>
</g>
<!-- Node3&#45;&gt;Node4 -->
<g id="edge3_Node000003_Node000004" class="edge">
<title>Node3&#45;&gt;Node4</title>
<g id="a_edge3_Node000003_Node000004"><a xlink:title=" ">
<path fill="none" stroke="#63b8ff" d="M490.2,-122.99C500.22,-121.66 510.54,-120.3 520.55,-118.98"/>
<polygon fill="#63b8ff" stroke="#63b8ff" points="525.76,-118.29 521.1,-121.18 523.28,-118.62 520.8,-118.95 520.8,-118.95 520.8,-118.95 523.28,-118.62 520.51,-116.71 525.76,-118.29 525.76,-118.29"/>
</a>
</g>
</g>
</g>
</svg>

<g id="navigator" transform="translate(0 0)" fill="#404254">
  <rect fill="#f2f5e9" fill-opacity="0.5" stroke="#606060" stroke-width=".5" x="0" y="0" width="60" height="60"/>
  <use id="zoomplus" xlink:href="#zoomPlus" x="17" y="9" onmousedown="handleZoom(evt,'in')"/>
  <use id="zoomminus" xlink:href="#zoomMin" x="42" y="9" onmousedown="handleZoom(evt,'out')"/>
  <use id="reset" xlink:href="#resetDef" x="30" y="36" onmousedown="handleReset()"/>
   <use id="arrowup" xlink:href="#arrowUp" x="0" y="0" onmousedown="handlePan(0,-1)"/>
  <use id="arrowright" xlink:href="#arrowRight" x="0" y="0" onmousedown="handlePan(1,0)"/>
  <use id="arrowdown" xlink:href="#arrowDown" x="0" y="0" onmousedown="handlePan(0,1)"/>
  <use id="arrowleft" xlink:href="#arrowLeft" x="0" y="0" onmousedown="handlePan(-1,0)"/>
</g>
<svg viewBox="0 0 15 15" width="100%" height="30px" preserveAspectRatio="xMaxYMin meet">
 <g id="arrow_out" transform="scale(0.3 0.3)">
  <a xlink:href="classTabDeckEditorVisual_a735f0020e6916150378bd44aa3c977c8_cgraph_org.svg" target="_base">
   <rect id="button" ry="5" rx="5" y="6" x="6" height="38" width="38"
        fill="#f2f5e9" fill-opacity="0.5" stroke="#606060" stroke-width="1.0"/>
   <path id="arrow"
     d="M 11.500037,31.436501 C 11.940474,20.09759 22.043105,11.32322 32.158766,21.979434 L 37.068811,17.246167 C 37.068811,17.246167 37.088388,32 37.088388,32 L 22.160133,31.978069 C 22.160133,31.978069 26.997745,27.140456 26.997745,27.140456 C 18.528582,18.264221 13.291696,25.230495 11.500037,31.436501 z"
     style="fill:#404040;"/>
  </a>
 </g>
</svg>

<style type='text/css'>
<![CDATA[
[data-mouse-over-selected='false'] { opacity: 0.7; }
[data-mouse-over-selected='true']  { opacity: 1.0; }
]]>
</style>
<script type="application/ecmascript"><![CDATA[
document.addEventListener('DOMContentLoaded', (event) => {
  highlightEdges();
  highlightAdjacentNodes();
});
]]></script>
</svg>
