<?xml version="1.0" encoding="UTF-8" standalone="no"?>
<!DOCTYPE svg PUBLIC "-//W3C//DTD SVG 1.1//EN"
 "http://www.w3.org/Graphics/SVG/1.1/DTD/svg11.dtd">
<!-- Generated by graphviz version 2.43.0 (0)
 -->
<!-- Title: TabDeckEditorVisual::loadLayout Pages: 1 -->
<svg width="487pt" height="432pt"
 viewBox="0.00 0.00 487.00 432.22" xmlns="http://www.w3.org/2000/svg" xmlns:xlink="http://www.w3.org/1999/xlink">

<svg id="main" version="1.1" xmlns="http://www.w3.org/2000/svg" xmlns:xlink="http://www.w3.org/1999/xlink" xml:space="preserve" onload="init(evt)">
<style type="text/css"><![CDATA[
.node, .edge {opacity: 0.7;}
.node.selected, .edge.selected {opacity: 1;}
.edge:hover path { stroke: red; }
.edge:hover polygon { stroke: red; fill: red; }
]]></style>
<script type="application/ecmascript" xlink:href="../../svg.min.js"/>
<svg id="graph" class="graph">
<g id="graph0" class="graph" transform="scale(1 1) rotate(0) translate(4 428.22)">
<title>TabDeckEditorVisual::loadLayout</title>
<!-- Node1 -->
<g id="Node000001" class="node">
<title>Node1</title>
<g id="a_Node000001"><a xlink:title="Load the editor layout from settings.">
<polygon fill="#999999" stroke="#666666" points="116,-208.22 0,-208.22 0,-178.22 116,-178.22 116,-208.22"/>
<text text-anchor="start" x="8" y="-196.22" font-family="Helvetica,sans-Serif" font-size="10.00">TabDeckEditorVisual</text>
<text text-anchor="middle" x="58" y="-185.22" font-family="Helvetica,sans-Serif" font-size="10.00">::loadLayout</text>
</a>
</g>
</g>
<!-- Node2 -->
<g id="Node000002" class="node">
<title>Node2</title>
<g id="a_Node000002"><a xlink:href="../../dc/d63/classTabDeckEditorVisual.html#a67b7ef1d5a99c4a05becb219553d0160" target="_top" xlink:title="Set size restrictions for free floating dock widgets.">
<polygon fill="white" stroke="#666666" points="463,-119.22 347,-119.22 347,-89.22 463,-89.22 463,-119.22"/>
<text text-anchor="start" x="355" y="-107.22" font-family="Helvetica,sans-Serif" font-size="10.00">TabDeckEditorVisual</text>
<text text-anchor="middle" x="405" y="-96.22" font-family="Helvetica,sans-Serif" font-size="10.00">::freeDocksSize</text>
</a>
</g>
</g>
<!-- Node1&#45;&gt;Node2 -->
<g id="edge1_Node000001_Node000002" class="edge">
<title>Node1&#45;&gt;Node2</title>
<g id="a_edge1_Node000001_Node000002"><a xlink:title=" ">
<path fill="none" stroke="#63b8ff" d="M82.94,-178.18C101.2,-167.39 127.33,-153.36 152,-145.22 214.77,-124.49 289.92,-114 341.73,-108.85"/>
<polygon fill="#63b8ff" stroke="#63b8ff" points="346.99,-108.34 342.23,-111.07 344.5,-108.58 342.01,-108.83 342.01,-108.83 342.01,-108.83 344.5,-108.58 341.79,-106.59 346.99,-108.34 346.99,-108.34"/>
</a>
</g>
</g>
<!-- Node3 -->
<g id="Node000003" class="node">
<title>Node3</title>
<g id="a_Node000003"><a xlink:href="../../d3/d58/classLayoutsSettings.html#a5533a38d2253d9a3bdd6f4f04b9cdc45" target="_top" xlink:title=" ">
<polygon fill="white" stroke="#666666" points="294,-232.22 153,-232.22 153,-202.22 294,-202.22 294,-232.22"/>
<text text-anchor="start" x="161" y="-220.22" font-family="Helvetica,sans-Serif" font-size="10.00">LayoutsSettings::getDeck</text>
<text text-anchor="middle" x="223.5" y="-209.22" font-family="Helvetica,sans-Serif" font-size="10.00">EditorCardSize</text>
</a>
</g>
</g>
<!-- Node1&#45;&gt;Node3 -->
<g id="edge2_Node000001_Node000003" class="edge">
<title>Node1&#45;&gt;Node3</title>
<g id="a_edge2_Node000001_Node000003"><a xlink:title=" ">
<path fill="none" stroke="#63b8ff" d="M116.18,-201.61C126.39,-203.11 137.17,-204.69 147.78,-206.25"/>
<polygon fill="#63b8ff" stroke="#63b8ff" points="152.97,-207.01 147.7,-208.51 150.5,-206.65 148.03,-206.29 148.03,-206.29 148.03,-206.29 150.5,-206.65 148.35,-204.06 152.97,-207.01 152.97,-207.01"/>
</a>
</g>
</g>
<!-- Node5 -->
<g id="Node000005" class="node">
<title>Node5</title>
<g id="a_Node000005"><a xlink:href="../../d3/d58/classLayoutsSettings.html#a482bd7dd8a2c86ee0e87c3311b6f0c0e" target="_top" xlink:title=" ">
<polygon fill="white" stroke="#666666" points="294,-184.22 153,-184.22 153,-154.22 294,-154.22 294,-184.22"/>
<text text-anchor="start" x="161" y="-172.22" font-family="Helvetica,sans-Serif" font-size="10.00">LayoutsSettings::getDeck</text>
<text text-anchor="middle" x="223.5" y="-161.22" font-family="Helvetica,sans-Serif" font-size="10.00">EditorDeckSize</text>
</a>
</g>
</g>
<!-- Node1&#45;&gt;Node5 -->
<g id="edge4_Node000001_Node000005" class="edge">
<title>Node1&#45;&gt;Node5</title>
<g id="a_edge4_Node000001_Node000005"><a xlink:title=" ">
<path fill="none" stroke="#63b8ff" d="M116.18,-184.82C126.39,-183.32 137.17,-181.74 147.78,-180.19"/>
<polygon fill="#63b8ff" stroke="#63b8ff" points="152.97,-179.42 148.35,-182.38 150.5,-179.79 148.03,-180.15 148.03,-180.15 148.03,-180.15 150.5,-179.79 147.7,-177.92 152.97,-179.42 152.97,-179.42"/>
</a>
</g>
</g>
<!-- Node6 -->
<g id="Node000006" class="node">
<title>Node6</title>
<g id="a_Node000006"><a xlink:href="../../d3/d58/classLayoutsSettings.html#a29b7b617d8853f4dc76f1aa2d4a1b448" target="_top" xlink:title=" ">
<polygon fill="white" stroke="#666666" points="294,-424.22 153,-424.22 153,-394.22 294,-394.22 294,-424.22"/>
<text text-anchor="start" x="161" y="-412.22" font-family="Helvetica,sans-Serif" font-size="10.00">LayoutsSettings::getDeck</text>
<text text-anchor="middle" x="223.5" y="-401.22" font-family="Helvetica,sans-Serif" font-size="10.00">EditorFilterSize</text>
</a>
</g>
</g>
<!-- Node1&#45;&gt;Node6 -->
<g id="edge6_Node000001_Node000006" class="edge">
<title>Node1&#45;&gt;Node6</title>
<g id="a_edge6_Node000001_Node000006"><a xlink:title=" ">
<path fill="none" stroke="#63b8ff" d="M62.13,-208.36C70.32,-244.32 95.81,-335.54 152,-385.22 154.54,-387.47 157.31,-389.5 160.22,-391.35"/>
<polygon fill="#63b8ff" stroke="#63b8ff" points="164.9,-394.11 159.45,-393.51 162.75,-392.84 160.59,-391.57 160.59,-391.57 160.59,-391.57 162.75,-392.84 161.73,-389.63 164.9,-394.11 164.9,-394.11"/>
</a>
</g>
</g>
<!-- Node7 -->
<g id="Node000007" class="node">
<title>Node7</title>
<g id="a_Node000007"><a xlink:href="../../d3/d58/classLayoutsSettings.html#aba797144e544fd543569fecfeaddbf33" target="_top" xlink:title=" ">
<polygon fill="white" stroke="#666666" points="294,-376.22 153,-376.22 153,-346.22 294,-346.22 294,-376.22"/>
<text text-anchor="start" x="161" y="-364.22" font-family="Helvetica,sans-Serif" font-size="10.00">LayoutsSettings::getDeck</text>
<text text-anchor="middle" x="223.5" y="-353.22" font-family="Helvetica,sans-Serif" font-size="10.00">EditorGeometry</text>
</a>
</g>
</g>
<!-- Node1&#45;&gt;Node7 -->
<g id="edge8_Node000001_Node000007" class="edge">
<title>Node1&#45;&gt;Node7</title>
<g id="a_edge8_Node000001_Node000007"><a xlink:title=" ">
<path fill="none" stroke="#63b8ff" d="M64.9,-208.67C76.86,-237.98 106.72,-301.88 152,-337.22 155.01,-339.57 158.27,-341.7 161.68,-343.62"/>
<polygon fill="#63b8ff" stroke="#63b8ff" points="166.4,-346.13 160.93,-345.77 164.19,-344.96 161.98,-343.79 161.98,-343.79 161.98,-343.79 164.19,-344.96 163.04,-341.8 166.4,-346.13 166.4,-346.13"/>
</a>
</g>
</g>
<!-- Node8 -->
<g id="Node000008" class="node">
<title>Node8</title>
<g id="a_Node000008"><a xlink:href="../../d3/d58/classLayoutsSettings.html#a9d8742f786665c504b20579c384c356a" target="_top" xlink:title=" ">
<polygon fill="white" stroke="#666666" points="294,-328.22 153,-328.22 153,-298.22 294,-298.22 294,-328.22"/>
<text text-anchor="start" x="161" y="-316.22" font-family="Helvetica,sans-Serif" font-size="10.00">LayoutsSettings::getDeck</text>
<text text-anchor="middle" x="223.5" y="-305.22" font-family="Helvetica,sans-Serif" font-size="10.00">EditorLayoutState</text>
</a>
</g>
</g>
<!-- Node1&#45;&gt;Node8 -->
<g id="edge10_Node000001_Node000008" class="edge">
<title>Node1&#45;&gt;Node8</title>
<g id="a_edge10_Node000001_Node000008"><a xlink:title=" ">
<path fill="none" stroke="#63b8ff" d="M69.92,-208.37C85.78,-229.34 117.11,-267.11 152,-289.22 155.93,-291.71 160.15,-293.97 164.5,-296.02"/>
<polygon fill="#63b8ff" stroke="#63b8ff" points="169.26,-298.17 163.77,-298.17 166.98,-297.14 164.7,-296.12 164.7,-296.12 164.7,-296.12 166.98,-297.14 165.62,-294.06 169.26,-298.17 169.26,-298.17"/>
</a>
</g>
</g>
<!-- Node9 -->
<g id="Node000009" class="node">
<title>Node9</title>
<g id="a_Node000009"><a xlink:href="../../d3/d58/classLayoutsSettings.html#acb2cbf022f7e40f33b3971b5dc688a65" target="_top" xlink:title=" ">
<polygon fill="white" stroke="#666666" points="295,-280.22 152,-280.22 152,-250.22 295,-250.22 295,-280.22"/>
<text text-anchor="start" x="160" y="-268.22" font-family="Helvetica,sans-Serif" font-size="10.00">LayoutsSettings::getDeck</text>
<text text-anchor="middle" x="223.5" y="-257.22" font-family="Helvetica,sans-Serif" font-size="10.00">EditorPrintingSelectorSize</text>
</a>
</g>
</g>
<!-- Node1&#45;&gt;Node9 -->
<g id="edge12_Node000001_Node000009" class="edge">
<title>Node1&#45;&gt;Node9</title>
<g id="a_edge12_Node000001_Node000009"><a xlink:title=" ">
<path fill="none" stroke="#63b8ff" d="M85.76,-208.37C104.07,-218.41 129.09,-231.47 152,-241.22 157.88,-243.72 164.11,-246.15 170.35,-248.44"/>
<polygon fill="#63b8ff" stroke="#63b8ff" points="175.11,-250.17 169.64,-250.58 172.76,-249.31 170.41,-248.46 170.41,-248.46 170.41,-248.46 172.76,-249.31 171.18,-246.35 175.11,-250.17 175.11,-250.17"/>
</a>
</g>
</g>
<!-- Node10 -->
<g id="Node000010" class="node">
<title>Node10</title>
<g id="a_Node000010"><a xlink:href="../../d5/d88/classSettingsCache.html#adfa7f9f975919981b992db1fca9e4957" target="_top" xlink:title=" ">
<polygon fill="white" stroke="#666666" points="472,-51.72 338,-51.72 338,-32.72 472,-32.72 472,-51.72"/>
<text text-anchor="middle" x="405" y="-39.72" font-family="Helvetica,sans-Serif" font-size="10.00">SettingsCache::instance</text>
</a>
</g>
</g>
<!-- Node1&#45;&gt;Node10 -->
<g id="edge14_Node000001_Node000010" class="edge">
<title>Node1&#45;&gt;Node10</title>
<g id="a_edge14_Node000001_Node000010"><a xlink:title=" ">
<path fill="none" stroke="#63b8ff" d="M61.81,-178.17C69.25,-143.12 93.1,-56.33 152,-21.22 224.19,21.81 329.32,-11.25 377.77,-30.67"/>
<polygon fill="#63b8ff" stroke="#63b8ff" points="382.55,-32.62 377.07,-32.82 380.24,-31.68 377.92,-30.73 377.92,-30.73 377.92,-30.73 380.24,-31.68 378.77,-28.65 382.55,-32.62 382.55,-32.62"/>
</a>
</g>
</g>
<!-- Node11 -->
<g id="Node000011" class="node">
<title>Node11</title>
<g id="a_Node000011"><a xlink:href="../../d5/d88/classSettingsCache.html#a26fa69b700de9f239f01d227730d6d1b" target="_top" xlink:title=" ">
<polygon fill="white" stroke="#666666" points="287.5,-49.72 159.5,-49.72 159.5,-30.72 287.5,-30.72 287.5,-49.72"/>
<text text-anchor="middle" x="223.5" y="-37.72" font-family="Helvetica,sans-Serif" font-size="10.00">SettingsCache::layouts</text>
</a>
</g>
</g>
<!-- Node1&#45;&gt;Node11 -->
<g id="edge15_Node000001_Node000011" class="edge">
<title>Node1&#45;&gt;Node11</title>
<g id="a_edge15_Node000001_Node000011"><a xlink:title=" ">
<path fill="none" stroke="#63b8ff" d="M65.2,-178.15C77.46,-150.25 107.55,-90.53 152,-59.22 156.12,-56.32 160.66,-53.86 165.39,-51.77"/>
<polygon fill="#63b8ff" stroke="#63b8ff" points="170.18,-49.81 166.4,-53.79 167.86,-50.76 165.55,-51.71 165.55,-51.71 165.55,-51.71 167.86,-50.76 164.7,-49.63 170.18,-49.81 170.18,-49.81"/>
</a>
</g>
</g>
<!-- Node12 -->
<g id="Node000012" class="node">
<title>Node12</title>
<g id="a_Node000012"><a xlink:href="../../dc/d63/classTabDeckEditorVisual.html#a7b29a1688ef8781eeb2bd92b1a8a1b6e" target="_top" xlink:title="Reset and restart the layout to default.">
<polygon fill="white" stroke="#666666" points="281.5,-98.22 165.5,-98.22 165.5,-68.22 281.5,-68.22 281.5,-98.22"/>
<text text-anchor="start" x="173.5" y="-86.22" font-family="Helvetica,sans-Serif" font-size="10.00">TabDeckEditorVisual</text>
<text text-anchor="middle" x="223.5" y="-75.22" font-family="Helvetica,sans-Serif" font-size="10.00">::restartLayout</text>
</a>
</g>
</g>
<!-- Node1&#45;&gt;Node12 -->
<g id="edge16_Node000001_Node000012" class="edge">
<title>Node1&#45;&gt;Node12</title>
<g id="a_edge16_Node000001_Node000012"><a xlink:title=" ">
<path fill="none" stroke="#63b8ff" d="M73.26,-178.1C90.55,-160.44 121.22,-131.24 152,-112.22 159.09,-107.84 166.95,-103.86 174.78,-100.35"/>
<polygon fill="#63b8ff" stroke="#63b8ff" points="179.64,-98.23 175.96,-102.29 177.35,-99.23 175.06,-100.23 175.06,-100.23 175.06,-100.23 177.35,-99.23 174.16,-98.17 179.64,-98.23 179.64,-98.23"/>
</a>
</g>
</g>
<!-- Node4 -->
<g id="Node000004" class="node">
<title>Node4</title>
<g id="a_Node000004"><a xlink:href="../../d1/dea/classSettingsManager.html#a1d8eb7bc26d0feda4e9eb8210cd13a2f" target="_top" xlink:title=" ">
<polygon fill="white" stroke="#666666" points="479,-298.72 331,-298.72 331,-279.72 479,-279.72 479,-298.72"/>
<text text-anchor="middle" x="405" y="-286.72" font-family="Helvetica,sans-Serif" font-size="10.00">SettingsManager::getValue</text>
</a>
</g>
</g>
<!-- Node3&#45;&gt;Node4 -->
<g id="edge3_Node000003_Node000004" class="edge">
<title>Node3&#45;&gt;Node4</title>
<g id="a_edge3_Node000003_Node000004"><a xlink:title=" ">
<path fill="none" stroke="#63b8ff" d="M270.6,-232.27C278.77,-235.12 287.17,-238.17 295,-241.22 324.2,-252.59 357.02,-267.32 378.95,-277.44"/>
<polygon fill="#63b8ff" stroke="#63b8ff" points="383.73,-279.66 378.25,-279.6 381.46,-278.61 379.19,-277.56 379.19,-277.56 379.19,-277.56 381.46,-278.61 380.14,-275.52 383.73,-279.66 383.73,-279.66"/>
</a>
</g>
</g>
<!-- Node5&#45;&gt;Node4 -->
<g id="edge5_Node000005_Node000004" class="edge">
<title>Node5&#45;&gt;Node4</title>
<g id="a_edge5_Node000005_Node000004"><a xlink:title=" ">
<path fill="none" stroke="#63b8ff" d="M276.37,-184.23C282.82,-186.86 289.18,-189.85 295,-193.22 334.89,-216.33 373.39,-255.39 392.15,-275.83"/>
<polygon fill="#63b8ff" stroke="#63b8ff" points="395.63,-279.66 390.6,-277.48 393.95,-277.81 392.27,-275.96 392.27,-275.96 392.27,-275.96 393.95,-277.81 393.93,-274.45 395.63,-279.66 395.63,-279.66"/>
</a>
</g>
</g>
<!-- Node6&#45;&gt;Node4 -->
<g id="edge7_Node000006_Node000004" class="edge">
<title>Node6&#45;&gt;Node4</title>
<g id="a_edge7_Node000006_Node000004"><a xlink:title=" ">
<path fill="none" stroke="#63b8ff" d="M276.37,-394.21C282.82,-391.58 289.18,-388.59 295,-385.22 334.89,-362.11 373.39,-323.05 392.15,-302.6"/>
<polygon fill="#63b8ff" stroke="#63b8ff" points="395.63,-298.77 393.93,-303.99 393.95,-300.62 392.27,-302.47 392.27,-302.47 392.27,-302.47 393.95,-300.62 390.6,-300.96 395.63,-298.77 395.63,-298.77"/>
</a>
</g>
</g>
<!-- Node7&#45;&gt;Node4 -->
<g id="edge9_Node000007_Node000004" class="edge">
<title>Node7&#45;&gt;Node4</title>
<g id="a_edge9_Node000007_Node000004"><a xlink:title=" ">
<path fill="none" stroke="#63b8ff" d="M270.6,-346.17C278.77,-343.32 287.17,-340.27 295,-337.22 324.2,-325.84 357.02,-311.12 378.95,-300.99"/>
<polygon fill="#63b8ff" stroke="#63b8ff" points="383.73,-298.78 380.14,-302.92 381.46,-299.83 379.19,-300.88 379.19,-300.88 379.19,-300.88 381.46,-299.83 378.25,-298.84 383.73,-298.78 383.73,-298.78"/>
</a>
</g>
</g>
<!-- Node8&#45;&gt;Node4 -->
<g id="edge11_Node000008_Node000004" class="edge">
<title>Node8&#45;&gt;Node4</title>
<g id="a_edge11_Node000008_Node000004"><a xlink:title=" ">
<path fill="none" stroke="#63b8ff" d="M294.16,-303.9C305.18,-302.43 316.63,-300.9 327.8,-299.41"/>
<polygon fill="#63b8ff" stroke="#63b8ff" points="332.9,-298.72 328.24,-301.62 330.42,-299.05 327.95,-299.39 327.95,-299.39 327.95,-299.39 330.42,-299.05 327.65,-297.16 332.9,-298.72 332.9,-298.72"/>
</a>
</g>
</g>
<!-- Node9&#45;&gt;Node4 -->
<g id="edge13_Node000009_Node000004" class="edge">
<title>Node9&#45;&gt;Node4</title>
<g id="a_edge13_Node000009_Node000004"><a xlink:title=" ">
<path fill="none" stroke="#63b8ff" d="M295.19,-274.67C305.81,-276.09 316.81,-277.56 327.54,-278.99"/>
<polygon fill="#63b8ff" stroke="#63b8ff" points="332.79,-279.7 327.54,-281.26 330.31,-279.37 327.83,-279.03 327.83,-279.03 327.83,-279.03 330.31,-279.37 328.13,-276.8 332.79,-279.7 332.79,-279.7"/>
</a>
</g>
</g>
<!-- Node12&#45;&gt;Node2 -->
<g id="edge17_Node000012_Node000002" class="edge">
<title>Node12&#45;&gt;Node2</title>
<g id="a_edge17_Node000012_Node000002"><a xlink:title=" ">
<path fill="none" stroke="#63b8ff" d="M281.79,-89.92C300.83,-92.15 322.12,-94.64 341.53,-96.91"/>
<polygon fill="#63b8ff" stroke="#63b8ff" points="346.95,-97.54 341.72,-99.2 344.46,-97.25 341.98,-96.96 341.98,-96.96 341.98,-96.96 344.46,-97.25 342.24,-94.73 346.95,-97.54 346.95,-97.54"/>
</a>
</g>
</g>
<!-- Node12&#45;&gt;Node10 -->
<g id="edge18_Node000012_Node000010" class="edge">
<title>Node12&#45;&gt;Node10</title>
<g id="a_edge18_Node000012_Node000010"><a xlink:title=" ">
<path fill="none" stroke="#63b8ff" d="M281.79,-70.13C306.11,-64.58 334.11,-58.18 357.17,-52.91"/>
<polygon fill="#63b8ff" stroke="#63b8ff" points="362.31,-51.74 357.94,-55.05 359.88,-52.3 357.44,-52.85 357.44,-52.85 357.44,-52.85 359.88,-52.3 356.94,-50.66 362.31,-51.74 362.31,-51.74"/>
</a>
</g>
</g>
</g>
</svg>
</svg>

<style type='text/css'>
<![CDATA[
[data-mouse-over-selected='false'] { opacity: 0.7; }
[data-mouse-over-selected='true']  { opacity: 1.0; }
]]>
</style>
<script type="application/ecmascript"><![CDATA[
document.addEventListener('DOMContentLoaded', (event) => {
  highlightEdges();
  highlightAdjacentNodes();
});
]]></script>
</svg>
