<?xml version="1.0" encoding="UTF-8" standalone="no"?>
<!DOCTYPE svg PUBLIC "-//W3C//DTD SVG 1.1//EN"
 "http://www.w3.org/Graphics/SVG/1.1/DTD/svg11.dtd">
<!-- Generated by graphviz version 2.43.0 (0)
 -->
<!-- Title: libcockatrice_network/libcockatrice/network/client/remote/remote_client.h Pages: 1 -->
<svg width="741pt" height="126pt"
 viewBox="0.00 0.00 740.50 126.00" xmlns="http://www.w3.org/2000/svg" xmlns:xlink="http://www.w3.org/1999/xlink">
<g id="graph0" class="graph" transform="scale(1 1) rotate(0) translate(4 122)">
<title>libcockatrice_network/libcockatrice/network/client/remote/remote_client.h</title>
<!-- Node1 -->
<g id="Node000001" class="node">
<title>Node1</title>
<g id="a_Node000001"><a xlink:title="TODO: Document this.">
<polygon fill="#999999" stroke="#666666" points="466.5,-118 302.5,-118 302.5,-77 466.5,-77 466.5,-118"/>
<text text-anchor="start" x="310.5" y="-106" font-family="Helvetica,sans-Serif" font-size="10.00">libcockatrice_network</text>
<text text-anchor="start" x="310.5" y="-95" font-family="Helvetica,sans-Serif" font-size="10.00">/libcockatrice/network</text>
<text text-anchor="middle" x="384.5" y="-84" font-family="Helvetica,sans-Serif" font-size="10.00">/client/remote/remote_client.h</text>
</a>
</g>
</g>
<!-- Node2 -->
<g id="Node000002" class="node">
<title>Node2</title>
<g id="a_Node000002"><a xlink:href="../../d5/de3/remote__connection__controller_8cpp.html" target="_top" xlink:title=" ">
<polygon fill="white" stroke="#666666" points="185,-41 0,-41 0,0 185,0 185,-41"/>
<text text-anchor="start" x="8" y="-29" font-family="Helvetica,sans-Serif" font-size="10.00">cockatrice/src/client</text>
<text text-anchor="start" x="8" y="-18" font-family="Helvetica,sans-Serif" font-size="10.00">/network/connection_controller</text>
<text text-anchor="middle" x="92.5" y="-7" font-family="Helvetica,sans-Serif" font-size="10.00">/remote_connection_controller.cpp</text>
</a>
</g>
</g>
<!-- Node1&#45;&gt;Node2 -->
<g id="edge1_Node000001_Node000002" class="edge">
<title>Node1&#45;&gt;Node2</title>
<g id="a_edge1_Node000001_Node000002"><a xlink:title=" ">
<path fill="none" stroke="#63b8ff" d="M303.45,-75.68C261.27,-64.85 210.01,-51.68 168.58,-41.04"/>
<polygon fill="#63b8ff" stroke="#63b8ff" points="308.54,-76.99 303.14,-77.93 306.12,-76.37 303.7,-75.75 303.7,-75.75 303.7,-75.75 306.12,-76.37 304.26,-73.57 308.54,-76.99 308.54,-76.99"/>
</a>
</g>
</g>
<!-- Node3 -->
<g id="Node000003" class="node">
<title>Node3</title>
<g id="a_Node000003"><a xlink:href="../../d2/ddc/home__widget_8cpp.html" target="_top" xlink:title=" ">
<polygon fill="white" stroke="#666666" points="390,-35.5 203,-35.5 203,-5.5 390,-5.5 390,-35.5"/>
<text text-anchor="start" x="211" y="-23.5" font-family="Helvetica,sans-Serif" font-size="10.00">cockatrice/src/interface</text>
<text text-anchor="middle" x="296.5" y="-12.5" font-family="Helvetica,sans-Serif" font-size="10.00">/widgets/general/home_widget.cpp</text>
</a>
</g>
</g>
<!-- Node1&#45;&gt;Node3 -->
<g id="edge2_Node000001_Node000003" class="edge">
<title>Node1&#45;&gt;Node3</title>
<g id="a_edge2_Node000001_Node000003"><a xlink:title=" ">
<path fill="none" stroke="#63b8ff" d="M357.38,-73.38C342.9,-61.04 325.54,-46.25 313.07,-35.63"/>
<polygon fill="#63b8ff" stroke="#63b8ff" points="361.38,-76.79 356.11,-75.26 359.48,-75.17 357.57,-73.55 357.57,-73.55 357.57,-73.55 359.48,-75.17 359.03,-71.84 361.38,-76.79 361.38,-76.79"/>
</a>
</g>
</g>
<!-- Node4 -->
<g id="Node000004" class="node">
<title>Node4</title>
<g id="a_Node000004"><a xlink:href="../../d2/d4f/window__main_8cpp.html" target="_top" xlink:title=" ">
<polygon fill="white" stroke="#666666" points="538.5,-35.5 408.5,-35.5 408.5,-5.5 538.5,-5.5 538.5,-35.5"/>
<text text-anchor="start" x="416.5" y="-23.5" font-family="Helvetica,sans-Serif" font-size="10.00">cockatrice/src/interface</text>
<text text-anchor="middle" x="473.5" y="-12.5" font-family="Helvetica,sans-Serif" font-size="10.00">/window_main.cpp</text>
</a>
</g>
</g>
<!-- Node1&#45;&gt;Node4 -->
<g id="edge3_Node000001_Node000004" class="edge">
<title>Node1&#45;&gt;Node4</title>
<g id="a_edge3_Node000001_Node000004"><a xlink:title=" ">
<path fill="none" stroke="#63b8ff" d="M411.93,-73.38C426.58,-61.04 444.13,-46.25 456.74,-35.63"/>
<polygon fill="#63b8ff" stroke="#63b8ff" points="407.88,-76.79 410.26,-71.85 409.8,-75.18 411.71,-73.57 411.71,-73.57 411.71,-73.57 409.8,-75.18 413.16,-75.29 407.88,-76.79 407.88,-76.79"/>
</a>
</g>
</g>
<!-- Node5 -->
<g id="Node000005" class="node">
<title>Node5</title>
<g id="a_Node000005"><a xlink:href="../../d2/d94/remote__client_8cpp.html" target="_top" xlink:title=" ">
<polygon fill="white" stroke="#666666" points="732.5,-41 556.5,-41 556.5,0 732.5,0 732.5,-41"/>
<text text-anchor="start" x="564.5" y="-29" font-family="Helvetica,sans-Serif" font-size="10.00">libcockatrice_network</text>
<text text-anchor="start" x="564.5" y="-18" font-family="Helvetica,sans-Serif" font-size="10.00">/libcockatrice/network</text>
<text text-anchor="middle" x="644.5" y="-7" font-family="Helvetica,sans-Serif" font-size="10.00">/client/remote/remote_client.cpp</text>
</a>
</g>
</g>
<!-- Node1&#45;&gt;Node5 -->
<g id="edge4_Node000001_Node000005" class="edge">
<title>Node1&#45;&gt;Node5</title>
<g id="a_edge4_Node000001_Node000005"><a xlink:title=" ">
<path fill="none" stroke="#63b8ff" d="M457.13,-75.55C494.6,-64.74 540.02,-51.64 576.75,-41.04"/>
<polygon fill="#63b8ff" stroke="#63b8ff" points="452.13,-76.99 456.31,-73.44 454.54,-76.3 456.94,-75.6 456.94,-75.6 456.94,-75.6 454.54,-76.3 457.56,-77.77 452.13,-76.99 452.13,-76.99"/>
</a>
</g>
</g>
</g>
</svg>
