<?xml version="1.0" encoding="UTF-8" standalone="no"?>
<!DOCTYPE svg PUBLIC "-//W3C//DTD SVG 1.1//EN"
 "http://www.w3.org/Graphics/SVG/1.1/DTD/svg11.dtd">
<!-- Generated by graphviz version 2.43.0 (0)
 -->
<!-- Title: cockatrice/src/client/sound_engine.h Pages: 1 -->
<svg width="1170pt" height="104pt"
 viewBox="0.00 0.00 1170.00 104.00" xmlns="http://www.w3.org/2000/svg" xmlns:xlink="http://www.w3.org/1999/xlink">
<g id="graph0" class="graph" transform="scale(1 1) rotate(0) translate(4 100)">
<title>cockatrice/src/client/sound_engine.h</title>
<!-- Node1 -->
<g id="Node000001" class="node">
<title>Node1</title>
<g id="a_Node000001"><a xlink:title="TODO: Document this.">
<polygon fill="#999999" stroke="#666666" points="650,-96 537,-96 537,-66 650,-66 650,-96"/>
<text text-anchor="start" x="545" y="-84" font-family="Helvetica,sans-Serif" font-size="10.00">cockatrice/src/client</text>
<text text-anchor="middle" x="593.5" y="-73" font-family="Helvetica,sans-Serif" font-size="10.00">/sound_engine.h</text>
</a>
</g>
</g>
<!-- Node2 -->
<g id="Node000002" class="node">
<title>Node2</title>
<g id="a_Node000002"><a xlink:href="../../d4/dd2/sound__engine_8cpp.html" target="_top" xlink:title=" ">
<polygon fill="white" stroke="#666666" points="113,-30 0,-30 0,0 113,0 113,-30"/>
<text text-anchor="start" x="8" y="-18" font-family="Helvetica,sans-Serif" font-size="10.00">cockatrice/src/client</text>
<text text-anchor="middle" x="56.5" y="-7" font-family="Helvetica,sans-Serif" font-size="10.00">/sound_engine.cpp</text>
</a>
</g>
</g>
<!-- Node1&#45;&gt;Node2 -->
<g id="edge1_Node000001_Node000002" class="edge">
<title>Node1&#45;&gt;Node2</title>
<g id="a_edge1_Node000001_Node000002"><a xlink:title=" ">
<path fill="none" stroke="#63b8ff" d="M531.67,-75.48C441.39,-68.43 268.36,-53.15 122.5,-30 119.49,-29.52 116.41,-29 113.31,-28.44"/>
<polygon fill="#63b8ff" stroke="#63b8ff" points="536.7,-75.88 531.54,-77.73 534.21,-75.68 531.72,-75.49 531.72,-75.49 531.72,-75.49 534.21,-75.68 531.89,-73.24 536.7,-75.88 536.7,-75.88"/>
</a>
</g>
</g>
<!-- Node3 -->
<g id="Node000003" class="node">
<title>Node3</title>
<g id="a_Node000003"><a xlink:href="../../dd/d7b/dlg__settings_8cpp.html" target="_top" xlink:title=" ">
<polygon fill="white" stroke="#666666" points="253.5,-30 131.5,-30 131.5,0 253.5,0 253.5,-30"/>
<text text-anchor="start" x="139.5" y="-18" font-family="Helvetica,sans-Serif" font-size="10.00">cockatrice/src/dialogs</text>
<text text-anchor="middle" x="192.5" y="-7" font-family="Helvetica,sans-Serif" font-size="10.00">/dlg_settings.cpp</text>
</a>
</g>
</g>
<!-- Node1&#45;&gt;Node3 -->
<g id="edge2_Node000001_Node000003" class="edge">
<title>Node1&#45;&gt;Node3</title>
<g id="a_edge2_Node000001_Node000003"><a xlink:title=" ">
<path fill="none" stroke="#63b8ff" d="M531.73,-71.56C465.14,-62.26 356.09,-46.42 262.5,-30 259.57,-29.49 256.57,-28.95 253.55,-28.39"/>
<polygon fill="#63b8ff" stroke="#63b8ff" points="536.85,-72.28 531.59,-73.81 534.37,-71.93 531.9,-71.59 531.9,-71.59 531.9,-71.59 534.37,-71.93 532.21,-69.36 536.85,-72.28 536.85,-72.28"/>
</a>
</g>
</g>
<!-- Node4 -->
<g id="Node000004" class="node">
<title>Node4</title>
<g id="a_Node000004"><a xlink:href="../../dd/dfc/message__log__widget_8cpp.html" target="_top" xlink:title=" ">
<polygon fill="white" stroke="#666666" points="433,-30 272,-30 272,0 433,0 433,-30"/>
<text text-anchor="start" x="280" y="-18" font-family="Helvetica,sans-Serif" font-size="10.00">cockatrice/src/game</text>
<text text-anchor="middle" x="352.5" y="-7" font-family="Helvetica,sans-Serif" font-size="10.00">/log/message_log_widget.cpp</text>
</a>
</g>
</g>
<!-- Node1&#45;&gt;Node4 -->
<g id="edge3_Node000001_Node000004" class="edge">
<title>Node1&#45;&gt;Node4</title>
<g id="a_edge3_Node000001_Node000004"><a xlink:title=" ">
<path fill="none" stroke="#63b8ff" d="M535.35,-64.56C495.73,-54.04 443.69,-40.22 405.27,-30.01"/>
<polygon fill="#63b8ff" stroke="#63b8ff" points="540.61,-65.95 535.2,-66.85 538.2,-65.31 535.78,-64.67 535.78,-64.67 535.78,-64.67 538.2,-65.31 536.36,-62.5 540.61,-65.95 540.61,-65.95"/>
</a>
</g>
</g>
<!-- Node5 -->
<g id="Node000005" class="node">
<title>Node5</title>
<g id="a_Node000005"><a xlink:href="../../df/d0a/main_8cpp.html" target="_top" xlink:title=" ">
<polygon fill="white" stroke="#666666" points="582,-24.5 451,-24.5 451,-5.5 582,-5.5 582,-24.5"/>
<text text-anchor="middle" x="516.5" y="-12.5" font-family="Helvetica,sans-Serif" font-size="10.00">cockatrice/src/main.cpp</text>
</a>
</g>
</g>
<!-- Node1&#45;&gt;Node5 -->
<g id="edge4_Node000001_Node000005" class="edge">
<title>Node1&#45;&gt;Node5</title>
<g id="a_edge4_Node000001_Node000005"><a xlink:title=" ">
<path fill="none" stroke="#63b8ff" d="M572.4,-62.46C557.72,-50.26 538.78,-34.52 527.14,-24.84"/>
<polygon fill="#63b8ff" stroke="#63b8ff" points="576.41,-65.8 571.13,-64.33 574.49,-64.2 572.57,-62.6 572.57,-62.6 572.57,-62.6 574.49,-64.2 574,-60.87 576.41,-65.8 576.41,-65.8"/>
</a>
</g>
</g>
<!-- Node6 -->
<g id="Node000006" class="node">
<title>Node6</title>
<g id="a_Node000006"><a xlink:href="../../d1/d19/chat__view_8cpp.html" target="_top" xlink:title=" ">
<polygon fill="white" stroke="#666666" points="741,-30 600,-30 600,0 741,0 741,-30"/>
<text text-anchor="start" x="608" y="-18" font-family="Helvetica,sans-Serif" font-size="10.00">cockatrice/src/server</text>
<text text-anchor="middle" x="670.5" y="-7" font-family="Helvetica,sans-Serif" font-size="10.00">/chat_view/chat_view.cpp</text>
</a>
</g>
</g>
<!-- Node1&#45;&gt;Node6 -->
<g id="edge5_Node000001_Node000006" class="edge">
<title>Node1&#45;&gt;Node6</title>
<g id="a_edge5_Node000001_Node000006"><a xlink:title=" ">
<path fill="none" stroke="#63b8ff" d="M614.61,-62.45C626.83,-52.3 642.01,-39.68 653.46,-30.16"/>
<polygon fill="#63b8ff" stroke="#63b8ff" points="610.59,-65.8 613,-60.87 612.51,-64.2 614.43,-62.6 614.43,-62.6 614.43,-62.6 612.51,-64.2 615.87,-64.33 610.59,-65.8 610.59,-65.8"/>
</a>
</g>
</g>
<!-- Node7 -->
<g id="Node000007" class="node">
<title>Node7</title>
<g id="a_Node000007"><a xlink:href="../../d9/d8e/user__list__manager_8cpp.html" target="_top" xlink:title=" ">
<polygon fill="white" stroke="#666666" points="912,-30 759,-30 759,0 912,0 912,-30"/>
<text text-anchor="start" x="767" y="-18" font-family="Helvetica,sans-Serif" font-size="10.00">cockatrice/src/server</text>
<text text-anchor="middle" x="835.5" y="-7" font-family="Helvetica,sans-Serif" font-size="10.00">/user/user_list_manager.cpp</text>
</a>
</g>
</g>
<!-- Node1&#45;&gt;Node7 -->
<g id="edge6_Node000001_Node000007" class="edge">
<title>Node1&#45;&gt;Node7</title>
<g id="a_edge6_Node000001_Node000007"><a xlink:title=" ">
<path fill="none" stroke="#63b8ff" d="M651.89,-64.56C691.68,-54.04 743.93,-40.22 782.52,-30.01"/>
<polygon fill="#63b8ff" stroke="#63b8ff" points="646.61,-65.95 650.87,-62.5 649.02,-65.32 651.44,-64.68 651.44,-64.68 651.44,-64.68 649.02,-65.32 652.02,-66.85 646.61,-65.95 646.61,-65.95"/>
</a>
</g>
</g>
<!-- Node8 -->
<g id="Node000008" class="node">
<title>Node8</title>
<g id="a_Node000008"><a xlink:href="../../d1/d72/tab__account_8cpp.html" target="_top" xlink:title=" ">
<polygon fill="white" stroke="#666666" points="1037,-30 930,-30 930,0 1037,0 1037,-30"/>
<text text-anchor="start" x="938" y="-18" font-family="Helvetica,sans-Serif" font-size="10.00">cockatrice/src/tabs</text>
<text text-anchor="middle" x="983.5" y="-7" font-family="Helvetica,sans-Serif" font-size="10.00">/tab_account.cpp</text>
</a>
</g>
</g>
<!-- Node1&#45;&gt;Node8 -->
<g id="edge7_Node000001_Node000008" class="edge">
<title>Node1&#45;&gt;Node8</title>
<g id="a_edge7_Node000001_Node000008"><a xlink:title=" ">
<path fill="none" stroke="#63b8ff" d="M655.08,-71.94C721.17,-62.98 829.1,-47.45 921.5,-30 924.21,-29.49 926.98,-28.94 929.78,-28.37"/>
<polygon fill="#63b8ff" stroke="#63b8ff" points="650,-72.63 654.66,-69.73 652.48,-72.29 654.96,-71.95 654.96,-71.95 654.96,-71.95 652.48,-72.29 655.26,-74.18 650,-72.63 650,-72.63"/>
</a>
</g>
</g>
<!-- Node9 -->
<g id="Node000009" class="node">
<title>Node9</title>
<g id="a_Node000009"><a xlink:href="../../d6/d73/tab__message_8cpp.html" target="_top" xlink:title=" ">
<polygon fill="white" stroke="#666666" points="1162,-30 1055,-30 1055,0 1162,0 1162,-30"/>
<text text-anchor="start" x="1063" y="-18" font-family="Helvetica,sans-Serif" font-size="10.00">cockatrice/src/tabs</text>
<text text-anchor="middle" x="1108.5" y="-7" font-family="Helvetica,sans-Serif" font-size="10.00">/tab_message.cpp</text>
</a>
</g>
</g>
<!-- Node1&#45;&gt;Node9 -->
<g id="edge8_Node000001_Node000009" class="edge">
<title>Node1&#45;&gt;Node9</title>
<g id="a_edge8_Node000001_Node000009"><a xlink:title=" ">
<path fill="none" stroke="#63b8ff" d="M655.42,-75.38C742.93,-68.35 907.63,-53.27 1046.5,-30 1049.22,-29.54 1052,-29.04 1054.8,-28.51"/>
<polygon fill="#63b8ff" stroke="#63b8ff" points="650.28,-75.79 655.08,-73.15 652.77,-75.59 655.26,-75.39 655.26,-75.39 655.26,-75.39 652.77,-75.59 655.44,-77.63 650.28,-75.79 650.28,-75.79"/>
</a>
</g>
</g>
</g>
</svg>
