<?xml version="1.0" encoding="UTF-8" standalone="no"?>
<!DOCTYPE svg PUBLIC "-//W3C//DTD SVG 1.1//EN"
 "http://www.w3.org/Graphics/SVG/1.1/DTD/svg11.dtd">
<!-- Generated by graphviz version 2.43.0 (0)
 -->
<!-- Title: peg::CaptureScope::parse_core Pages: 1 -->
<svg width="303pt" height="86pt"
 viewBox="0.00 0.00 303.00 86.00" xmlns="http://www.w3.org/2000/svg" xmlns:xlink="http://www.w3.org/1999/xlink">
<g id="graph0" class="graph" transform="scale(1 1) rotate(0) translate(4 82)">
<title>peg::CaptureScope::parse_core</title>
<!-- Node1 -->
<g id="Node000001" class="node">
<title>Node1</title>
<g id="a_Node000001"><a xlink:title=" ">
<polygon fill="#999999" stroke="#666666" points="114,-54 0,-54 0,-24 114,-24 114,-54"/>
<text text-anchor="start" x="8" y="-42" font-family="Helvetica,sans-Serif" font-size="10.00">peg::CaptureScope::</text>
<text text-anchor="middle" x="57" y="-31" font-family="Helvetica,sans-Serif" font-size="10.00">parse_core</text>
</a>
</g>
</g>
<!-- Node2 -->
<g id="Node000002" class="node">
<title>Node2</title>
<g id="a_Node000002"><a xlink:href="../../df/d94/classpeg_1_1Context.html#ac3038d83aacd1c2992239eae43f9f120" target="_top" xlink:title=" ">
<polygon fill="white" stroke="#666666" points="295,-78 150,-78 150,-48 295,-48 295,-78"/>
<text text-anchor="start" x="158" y="-66" font-family="Helvetica,sans-Serif" font-size="10.00">peg::Context::pop_capture</text>
<text text-anchor="middle" x="222.5" y="-55" font-family="Helvetica,sans-Serif" font-size="10.00">_scope</text>
</a>
</g>
</g>
<!-- Node1&#45;&gt;Node2 -->
<g id="edge1_Node000001_Node000002" class="edge">
<title>Node1&#45;&gt;Node2</title>
<g id="a_edge1_Node000001_Node000002"><a xlink:title=" ">
<path fill="none" stroke="#63b8ff" d="M114.27,-47.26C124.11,-48.7 134.5,-50.23 144.79,-51.74"/>
<polygon fill="#63b8ff" stroke="#63b8ff" points="149.82,-52.48 144.55,-53.98 147.35,-52.12 144.88,-51.75 144.88,-51.75 144.88,-51.75 147.35,-52.12 145.2,-49.53 149.82,-52.48 149.82,-52.48"/>
</a>
</g>
</g>
<!-- Node3 -->
<g id="Node000003" class="node">
<title>Node3</title>
<g id="a_Node000003"><a xlink:href="../../df/d94/classpeg_1_1Context.html#a5be010190aa699d634fb3b552b417111" target="_top" xlink:title=" ">
<polygon fill="white" stroke="#666666" points="276.5,-30 168.5,-30 168.5,0 276.5,0 276.5,-30"/>
<text text-anchor="start" x="176.5" y="-18" font-family="Helvetica,sans-Serif" font-size="10.00">peg::Context::push</text>
<text text-anchor="middle" x="222.5" y="-7" font-family="Helvetica,sans-Serif" font-size="10.00">_capture_scope</text>
</a>
</g>
</g>
<!-- Node1&#45;&gt;Node3 -->
<g id="edge2_Node000001_Node000003" class="edge">
<title>Node1&#45;&gt;Node3</title>
<g id="a_edge2_Node000001_Node000003"><a xlink:title=" ">
<path fill="none" stroke="#63b8ff" d="M114.27,-30.74C130.04,-28.43 147.21,-25.91 163.1,-23.57"/>
<polygon fill="#63b8ff" stroke="#63b8ff" points="168.43,-22.79 163.81,-25.74 165.96,-23.15 163.49,-23.52 163.49,-23.52 163.49,-23.52 165.96,-23.15 163.16,-21.29 168.43,-22.79 168.43,-22.79"/>
</a>
</g>
</g>
</g>
</svg>
