<?xml version="1.0" encoding="UTF-8" standalone="no"?>
<!DOCTYPE svg PUBLIC "-//W3C//DTD SVG 1.1//EN"
 "http://www.w3.org/Graphics/SVG/1.1/DTD/svg11.dtd">
<!-- Generated by graphviz version 2.43.0 (0)
 -->
<!-- Title: libcockatrice_network/libcockatrice/network/client/abstract/abstract_client.cpp Pages: 1 -->
<!--zoomable 203 -->

<svg id="main" version="1.1" xmlns="http://www.w3.org/2000/svg" xmlns:xlink="http://www.w3.org/1999/xlink" xml:space="preserve" onload="init(evt)">

<style type="text/css"><![CDATA[
.node, .edge {opacity: 0.7;}
.node.selected, .edge.selected {opacity: 1;}
.edge:hover path { stroke: red; }
.edge:hover polygon { stroke: red; fill: red; }
]]></style>

<defs>
  <circle id="rim" cx="0" cy="0" r="7"/>
  <circle id="rim2" cx="0" cy="0" r="3.5"/>
  <g id="zoomPlus">
    <use xlink:href="#rim" fill="#404040"><set attributeName="fill" to="#808080" begin="zoomplus.mouseover" end="zoomplus.mouseout"/></use>
    <path d="M-4,0h8M0,-4v8" fill="none" stroke="white" stroke-width="1.5" pointer-events="none"/>
  </g>
  <g id="zoomMin">
    <use xlink:href="#rim" fill="#404040"><set attributeName="fill" to="#808080" begin="zoomminus.mouseover" end="zoomminus.mouseout"/></use>
    <path d="M-4,0h8" fill="none" stroke="white" stroke-width="1.5" pointer-events="none"/>
  </g>
  <g id="arrowUp" transform="translate(30 24)">
    <use xlink:href="#rim"/>
    <path pointer-events="none" fill="none" stroke="white" stroke-width="1.5" d="M0,-3.0v7 M-2.5,-0.5L0,-3.0L2.5,-0.5"/>
  </g>
  <g id="arrowRight" transform="rotate(90) translate(36 -43)">
    <use xlink:href="#rim"/>
    <path pointer-events="none" fill="none" stroke="white" stroke-width="1.5" d="M0,-3.0v7 M-2.5,-0.5L0,-3.0L2.5,-0.5"/>
  </g>
  <g id="arrowDown" transform="rotate(180) translate(-30 -48)">
    <use xlink:href="#rim"/>
    <path pointer-events="none" fill="none" stroke="white" stroke-width="1.5" d="M0,-3.0v7 M-2.5,-0.5L0,-3.0L2.5,-0.5"/>
  </g>
  <g id="arrowLeft" transform="rotate(270) translate(-36 17)">
    <use xlink:href="#rim"/>
    <path pointer-events="none" fill="none" stroke="white" stroke-width="1.5" d="M0,-3.0v7 M-2.5,-0.5L0,-3.0L2.5,-0.5"/>
  </g>
  <g id="resetDef">
    <use xlink:href="#rim2" fill="#404040"><set attributeName="fill" to="#808080" begin="reset.mouseover" end="reset.mouseout"/></use>
  </g>
</defs>
<script type="application/ecmascript">
var viewWidth = 3370;
var viewHeight = 203;
var sectionId = 'dynsection-0';
</script>
<script type="application/ecmascript" xlink:href="../../svg.min.js"/>
<svg id="graph" class="graph">
<g id="viewport">
<title>libcockatrice_network/libcockatrice/network/client/abstract/abstract_client.cpp</title>
<!-- Node1 -->
<g id="Node000001" class="node">
<title>Node1</title>
<g id="a_Node000001"><a xlink:title=" ">
<polygon fill="#999999" stroke="#666666" points="1696.5,-195 1564.5,-195 1564.5,-143 1696.5,-143 1696.5,-195"/>
<text text-anchor="start" x="1572.5" y="-183" font-family="Helvetica,sans-Serif" font-size="10.00">libcockatrice_network</text>
<text text-anchor="start" x="1572.5" y="-172" font-family="Helvetica,sans-Serif" font-size="10.00">/libcockatrice/network</text>
<text text-anchor="start" x="1572.5" y="-161" font-family="Helvetica,sans-Serif" font-size="10.00">/client/abstract/abstract</text>
<text text-anchor="middle" x="1630.5" y="-150" font-family="Helvetica,sans-Serif" font-size="10.00">_client.cpp</text>
</a>
</g>
</g>
<!-- Node2 -->
<g id="Node000002" class="node">
<title>Node2</title>
<g id="a_Node000002"><a xlink:href="../../d5/db3/abstract__client_8h.html" target="_top" xlink:title="TODO: Document this.">
<polygon fill="white" stroke="#666666" points="294.5,-96 196.5,-96 196.5,-77 294.5,-77 294.5,-96"/>
<text text-anchor="middle" x="245.5" y="-84" font-family="Helvetica,sans-Serif" font-size="10.00">abstract_client.h</text>
</a>
</g>
</g>
<!-- Node1&#45;&gt;Node2 -->
<g id="edge1_Node000001_Node000002" class="edge">
<title>Node1&#45;&gt;Node2</title>
<g id="a_edge1_Node000001_Node000002"><a xlink:title=" ">
<path fill="none" stroke="#63b8ff" d="M1564.21,-167.39C1331.01,-164.85 549.31,-153.04 303.5,-107 292.64,-104.97 281.04,-101.37 271.08,-97.81"/>
<polygon fill="#63b8ff" stroke="#63b8ff" points="266.34,-96.07 271.8,-95.68 268.68,-96.93 271.03,-97.79 271.03,-97.79 271.03,-97.79 268.68,-96.93 270.26,-99.91 266.34,-96.07 266.34,-96.07"/>
</a>
</g>
</g>
<!-- Node7 -->
<g id="Node000007" class="node">
<title>Node7</title>
<g id="a_Node000007"><a xlink:title=" ">
<polygon fill="#e0e0e0" stroke="#999999" points="644.5,-96 490.5,-96 490.5,-77 644.5,-77 644.5,-96"/>
<text text-anchor="middle" x="567.5" y="-84" font-family="Helvetica,sans-Serif" font-size="10.00">google/protobuf/descriptor.h</text>
</a>
</g>
</g>
<!-- Node1&#45;&gt;Node7 -->
<g id="edge6_Node000001_Node000007" class="edge">
<title>Node1&#45;&gt;Node7</title>
<g id="a_edge6_Node000001_Node000007"><a xlink:title=" ">
<path fill="none" stroke="#63b8ff" d="M1564.37,-167.53C1406.18,-165.6 993.73,-155.87 653.5,-107 637.3,-104.67 619.63,-100.89 604.54,-97.27"/>
<polygon fill="#63b8ff" stroke="#63b8ff" points="599.53,-96.05 604.92,-95.05 601.96,-96.64 604.39,-97.23 604.39,-97.23 604.39,-97.23 601.96,-96.64 603.86,-99.42 599.53,-96.05 599.53,-96.05"/>
</a>
</g>
</g>
<!-- Node8 -->
<g id="Node000008" class="node">
<title>Node8</title>
<g id="a_Node000008"><a xlink:href="../../d5/d84/featureset_8h.html" target="_top" xlink:title=" ">
<polygon fill="white" stroke="#666666" points="784,-101.5 663,-101.5 663,-71.5 784,-71.5 784,-101.5"/>
<text text-anchor="start" x="671" y="-89.5" font-family="Helvetica,sans-Serif" font-size="10.00">libcockatrice/protocol</text>
<text text-anchor="middle" x="723.5" y="-78.5" font-family="Helvetica,sans-Serif" font-size="10.00">/featureset.h</text>
</a>
</g>
</g>
<!-- Node1&#45;&gt;Node8 -->
<g id="edge7_Node000001_Node000008" class="edge">
<title>Node1&#45;&gt;Node8</title>
<g id="a_edge7_Node000001_Node000008"><a xlink:title=" ">
<path fill="none" stroke="#63b8ff" d="M1564.31,-167.63C1422.11,-165.87 1077.36,-156.37 793.5,-107 787.06,-105.88 780.36,-104.42 773.77,-102.79"/>
<polygon fill="#63b8ff" stroke="#63b8ff" points="768.76,-101.52 774.16,-100.57 771.19,-102.13 773.61,-102.75 773.61,-102.75 773.61,-102.75 771.19,-102.13 773.06,-104.93 768.76,-101.52 768.76,-101.52"/>
</a>
</g>
</g>
<!-- Node12 -->
<g id="Node000012" class="node">
<title>Node12</title>
<g id="a_Node000012"><a xlink:href="../../d2/d8b/get__pb__extension_8h.html" target="_top" xlink:title=" ">
<polygon fill="white" stroke="#666666" points="923,-101.5 802,-101.5 802,-71.5 923,-71.5 923,-101.5"/>
<text text-anchor="start" x="810" y="-89.5" font-family="Helvetica,sans-Serif" font-size="10.00">libcockatrice/protocol</text>
<text text-anchor="middle" x="862.5" y="-78.5" font-family="Helvetica,sans-Serif" font-size="10.00">/get_pb_extension.h</text>
</a>
</g>
</g>
<!-- Node1&#45;&gt;Node12 -->
<g id="edge11_Node000001_Node000012" class="edge">
<title>Node1&#45;&gt;Node12</title>
<g id="a_edge11_Node000001_Node000012"><a xlink:title=" ">
<path fill="none" stroke="#63b8ff" d="M1564.04,-166.27C1439.3,-162.12 1162,-148.63 932.5,-107 926.17,-105.85 919.58,-104.39 913.09,-102.78"/>
<polygon fill="#63b8ff" stroke="#63b8ff" points="908.16,-101.52 913.56,-100.57 910.58,-102.14 913,-102.75 913,-102.75 913,-102.75 910.58,-102.14 912.45,-104.93 908.16,-101.52 908.16,-101.52"/>
</a>
</g>
</g>
<!-- Node13 -->
<g id="Node000013" class="node">
<title>Node13</title>
<g id="a_Node000013"><a xlink:title=" ">
<polygon fill="#e0e0e0" stroke="#999999" points="563,-30 442,-30 442,0 563,0 563,-30"/>
<text text-anchor="start" x="450" y="-18" font-family="Helvetica,sans-Serif" font-size="10.00">libcockatrice/protocol</text>
<text text-anchor="middle" x="502.5" y="-7" font-family="Helvetica,sans-Serif" font-size="10.00">/pb/commands.pb.h</text>
</a>
</g>
</g>
<!-- Node1&#45;&gt;Node13 -->
<g id="edge12_Node000001_Node000013" class="edge">
<title>Node1&#45;&gt;Node13</title>
<g id="a_edge12_Node000001_Node000013"><a xlink:title=" ">
<path fill="none" stroke="#63b8ff" d="M1564.13,-166.97C1324.9,-162.94 518.94,-146.48 481.5,-107 462.93,-87.42 477.38,-54.84 489.76,-34.44"/>
<polygon fill="#63b8ff" stroke="#63b8ff" points="492.52,-30.03 491.78,-35.46 491.2,-32.15 489.87,-34.27 489.87,-34.27 489.87,-34.27 491.2,-32.15 487.96,-33.08 492.52,-30.03 492.52,-30.03"/>
</a>
</g>
</g>
<!-- Node14 -->
<g id="Node000014" class="node">
<title>Node14</title>
<g id="a_Node000014"><a xlink:title=" ">
<polygon fill="#e0e0e0" stroke="#999999" points="1086,-101.5 941,-101.5 941,-71.5 1086,-71.5 1086,-101.5"/>
<text text-anchor="start" x="949" y="-89.5" font-family="Helvetica,sans-Serif" font-size="10.00">libcockatrice/protocol</text>
<text text-anchor="middle" x="1013.5" y="-78.5" font-family="Helvetica,sans-Serif" font-size="10.00">/pb/event_add_to_list.pb.h</text>
</a>
</g>
</g>
<!-- Node1&#45;&gt;Node14 -->
<g id="edge13_Node000001_Node000014" class="edge">
<title>Node1&#45;&gt;Node14</title>
<g id="a_edge13_Node000001_Node000014"><a xlink:title=" ">
<path fill="none" stroke="#63b8ff" d="M1564.24,-163.02C1462.79,-154.81 1263.09,-136.37 1095.5,-107 1088.36,-105.75 1080.91,-104.25 1073.53,-102.65"/>
<polygon fill="#63b8ff" stroke="#63b8ff" points="1068.45,-101.52 1073.82,-100.41 1070.89,-102.06 1073.33,-102.6 1073.33,-102.6 1073.33,-102.6 1070.89,-102.06 1072.84,-104.8 1068.45,-101.52 1068.45,-101.52"/>
</a>
</g>
</g>
<!-- Node15 -->
<g id="Node000015" class="node">
<title>Node15</title>
<g id="a_Node000015"><a xlink:title=" ">
<polygon fill="#e0e0e0" stroke="#999999" points="1286.5,-101.5 1104.5,-101.5 1104.5,-71.5 1286.5,-71.5 1286.5,-101.5"/>
<text text-anchor="start" x="1112.5" y="-89.5" font-family="Helvetica,sans-Serif" font-size="10.00">libcockatrice/protocol</text>
<text text-anchor="middle" x="1195.5" y="-78.5" font-family="Helvetica,sans-Serif" font-size="10.00">/pb/event_connection_closed.pb.h</text>
</a>
</g>
</g>
<!-- Node1&#45;&gt;Node15 -->
<g id="edge14_Node000001_Node000015" class="edge">
<title>Node1&#45;&gt;Node15</title>
<g id="a_edge14_Node000001_Node000015"><a xlink:title=" ">
<path fill="none" stroke="#63b8ff" d="M1564.24,-156.1C1496.82,-143.95 1389.34,-124.44 1296.5,-107 1288.8,-105.55 1280.77,-104.03 1272.75,-102.5"/>
<polygon fill="#63b8ff" stroke="#63b8ff" points="1267.76,-101.54 1273.09,-100.27 1270.21,-102.01 1272.67,-102.48 1272.67,-102.48 1272.67,-102.48 1270.21,-102.01 1272.25,-104.69 1267.76,-101.54 1267.76,-101.54"/>
</a>
</g>
</g>
<!-- Node16 -->
<g id="Node000016" class="node">
<title>Node16</title>
<g id="a_Node000016"><a xlink:title=" ">
<polygon fill="#e0e0e0" stroke="#999999" points="1460,-101.5 1305,-101.5 1305,-71.5 1460,-71.5 1460,-101.5"/>
<text text-anchor="start" x="1313" y="-89.5" font-family="Helvetica,sans-Serif" font-size="10.00">libcockatrice/protocol</text>
<text text-anchor="middle" x="1382.5" y="-78.5" font-family="Helvetica,sans-Serif" font-size="10.00">/pb/event_game_joined.pb.h</text>
</a>
</g>
</g>
<!-- Node1&#45;&gt;Node16 -->
<g id="edge15_Node000001_Node000016" class="edge">
<title>Node1&#45;&gt;Node16</title>
<g id="a_edge15_Node000001_Node000016"><a xlink:title=" ">
<path fill="none" stroke="#63b8ff" d="M1564.37,-146.53C1522.35,-132.89 1468.9,-115.54 1430.84,-103.19"/>
<polygon fill="#63b8ff" stroke="#63b8ff" points="1425.81,-101.56 1431.26,-100.96 1428.19,-102.33 1430.56,-103.1 1430.56,-103.1 1430.56,-103.1 1428.19,-102.33 1429.87,-105.24 1425.81,-101.56 1425.81,-101.56"/>
</a>
</g>
</g>
<!-- Node17 -->
<g id="Node000017" class="node">
<title>Node17</title>
<g id="a_Node000017"><a xlink:title=" ">
<polygon fill="#e0e0e0" stroke="#999999" points="1621,-101.5 1478,-101.5 1478,-71.5 1621,-71.5 1621,-101.5"/>
<text text-anchor="start" x="1486" y="-89.5" font-family="Helvetica,sans-Serif" font-size="10.00">libcockatrice/protocol</text>
<text text-anchor="middle" x="1549.5" y="-78.5" font-family="Helvetica,sans-Serif" font-size="10.00">/pb/event_list_rooms.pb.h</text>
</a>
</g>
</g>
<!-- Node1&#45;&gt;Node17 -->
<g id="edge16_Node000001_Node000017" class="edge">
<title>Node1&#45;&gt;Node17</title>
<g id="a_edge16_Node000001_Node000017"><a xlink:title=" ">
<path fill="none" stroke="#63b8ff" d="M1605.32,-142.97C1593.13,-130.86 1578.78,-116.6 1567.68,-105.57"/>
<polygon fill="#63b8ff" stroke="#63b8ff" points="1564.05,-101.96 1569.18,-103.89 1565.82,-103.72 1567.59,-105.48 1567.59,-105.48 1567.59,-105.48 1565.82,-103.72 1566.01,-107.08 1564.05,-101.96 1564.05,-101.96"/>
</a>
</g>
</g>
<!-- Node18 -->
<g id="Node000018" class="node">
<title>Node18</title>
<g id="a_Node000018"><a xlink:title=" ">
<polygon fill="#e0e0e0" stroke="#999999" points="1784,-101.5 1639,-101.5 1639,-71.5 1784,-71.5 1784,-101.5"/>
<text text-anchor="start" x="1647" y="-89.5" font-family="Helvetica,sans-Serif" font-size="10.00">libcockatrice/protocol</text>
<text text-anchor="middle" x="1711.5" y="-78.5" font-family="Helvetica,sans-Serif" font-size="10.00">/pb/event_notify_user.pb.h</text>
</a>
</g>
</g>
<!-- Node1&#45;&gt;Node18 -->
<g id="edge17_Node000001_Node000018" class="edge">
<title>Node1&#45;&gt;Node18</title>
<g id="a_edge17_Node000001_Node000018"><a xlink:title=" ">
<path fill="none" stroke="#63b8ff" d="M1655.68,-142.97C1667.87,-130.86 1682.22,-116.6 1693.32,-105.57"/>
<polygon fill="#63b8ff" stroke="#63b8ff" points="1696.95,-101.96 1694.99,-107.08 1695.18,-103.72 1693.41,-105.48 1693.41,-105.48 1693.41,-105.48 1695.18,-103.72 1691.82,-103.89 1696.95,-101.96 1696.95,-101.96"/>
</a>
</g>
</g>
<!-- Node19 -->
<g id="Node000019" class="node">
<title>Node19</title>
<g id="a_Node000019"><a xlink:title=" ">
<polygon fill="#e0e0e0" stroke="#999999" points="1936.5,-107 1802.5,-107 1802.5,-66 1936.5,-66 1936.5,-107"/>
<text text-anchor="start" x="1810.5" y="-95" font-family="Helvetica,sans-Serif" font-size="10.00">libcockatrice/protocol</text>
<text text-anchor="start" x="1810.5" y="-84" font-family="Helvetica,sans-Serif" font-size="10.00">/pb/event_remove_from</text>
<text text-anchor="middle" x="1869.5" y="-73" font-family="Helvetica,sans-Serif" font-size="10.00">_list.pb.h</text>
</a>
</g>
</g>
<!-- Node1&#45;&gt;Node19 -->
<g id="edge18_Node000001_Node000019" class="edge">
<title>Node1&#45;&gt;Node19</title>
<g id="a_edge18_Node000001_Node000019"><a xlink:title=" ">
<path fill="none" stroke="#63b8ff" d="M1696.76,-145.68C1730.99,-134.15 1772.55,-120.15 1806.33,-108.78"/>
<polygon fill="#63b8ff" stroke="#63b8ff" points="1811.26,-107.12 1807.24,-110.85 1808.89,-107.92 1806.52,-108.71 1806.52,-108.71 1806.52,-108.71 1808.89,-107.92 1805.8,-106.58 1811.26,-107.12 1811.26,-107.12"/>
</a>
</g>
</g>
<!-- Node20 -->
<g id="Node000020" class="node">
<title>Node20</title>
<g id="a_Node000020"><a xlink:title=" ">
<polygon fill="#e0e0e0" stroke="#999999" points="2112.5,-101.5 1954.5,-101.5 1954.5,-71.5 2112.5,-71.5 2112.5,-101.5"/>
<text text-anchor="start" x="1962.5" y="-89.5" font-family="Helvetica,sans-Serif" font-size="10.00">libcockatrice/protocol</text>
<text text-anchor="middle" x="2033.5" y="-78.5" font-family="Helvetica,sans-Serif" font-size="10.00">/pb/event_replay_added.pb.h</text>
</a>
</g>
</g>
<!-- Node1&#45;&gt;Node20 -->
<g id="edge19_Node000001_Node000020" class="edge">
<title>Node1&#45;&gt;Node20</title>
<g id="a_edge19_Node000001_Node000020"><a xlink:title=" ">
<path fill="none" stroke="#63b8ff" d="M1696.67,-155.72C1760.48,-143.75 1859.73,-124.8 1945.5,-107 1952.09,-105.63 1958.96,-104.17 1965.81,-102.69"/>
<polygon fill="#63b8ff" stroke="#63b8ff" points="1971.05,-101.56 1966.64,-104.81 1968.61,-102.08 1966.16,-102.61 1966.16,-102.61 1966.16,-102.61 1968.61,-102.08 1965.69,-100.42 1971.05,-101.56 1971.05,-101.56"/>
</a>
</g>
</g>
<!-- Node21 -->
<g id="Node000021" class="node">
<title>Node21</title>
<g id="a_Node000021"><a xlink:title=" ">
<polygon fill="#e0e0e0" stroke="#999999" points="2322,-101.5 2131,-101.5 2131,-71.5 2322,-71.5 2322,-101.5"/>
<text text-anchor="start" x="2139" y="-89.5" font-family="Helvetica,sans-Serif" font-size="10.00">libcockatrice/protocol</text>
<text text-anchor="middle" x="2226.5" y="-78.5" font-family="Helvetica,sans-Serif" font-size="10.00">/pb/event_server_identification.pb.h</text>
</a>
</g>
</g>
<!-- Node1&#45;&gt;Node21 -->
<g id="edge20_Node000001_Node000021" class="edge">
<title>Node1&#45;&gt;Node21</title>
<g id="a_edge20_Node000001_Node000021"><a xlink:title=" ">
<path fill="none" stroke="#63b8ff" d="M1696.59,-161.06C1791.04,-150.86 1969.98,-130.46 2121.5,-107 2130.39,-105.62 2139.68,-104.07 2148.9,-102.45"/>
<polygon fill="#63b8ff" stroke="#63b8ff" points="2154.01,-101.55 2149.48,-104.63 2151.55,-101.98 2149.09,-102.42 2149.09,-102.42 2149.09,-102.42 2151.55,-101.98 2148.7,-100.2 2154.01,-101.55 2154.01,-101.55"/>
</a>
</g>
</g>
<!-- Node22 -->
<g id="Node000022" class="node">
<title>Node22</title>
<g id="a_Node000022"><a xlink:title=" ">
<polygon fill="#e0e0e0" stroke="#999999" points="2512.5,-101.5 2340.5,-101.5 2340.5,-71.5 2512.5,-71.5 2512.5,-101.5"/>
<text text-anchor="start" x="2348.5" y="-89.5" font-family="Helvetica,sans-Serif" font-size="10.00">libcockatrice/protocol</text>
<text text-anchor="middle" x="2426.5" y="-78.5" font-family="Helvetica,sans-Serif" font-size="10.00">/pb/event_server_message.pb.h</text>
</a>
</g>
</g>
<!-- Node1&#45;&gt;Node22 -->
<g id="edge21_Node000001_Node000022" class="edge">
<title>Node1&#45;&gt;Node22</title>
<g id="a_edge21_Node000001_Node000022"><a xlink:title=" ">
<path fill="none" stroke="#63b8ff" d="M1696.51,-164.81C1821.14,-158.21 2099.4,-140.8 2331.5,-107 2340.22,-105.73 2349.34,-104.17 2358.33,-102.48"/>
<polygon fill="#63b8ff" stroke="#63b8ff" points="2363.31,-101.53 2358.82,-104.68 2360.86,-102 2358.4,-102.47 2358.4,-102.47 2358.4,-102.47 2360.86,-102 2357.98,-100.26 2363.31,-101.53 2363.31,-101.53"/>
</a>
</g>
</g>
<!-- Node23 -->
<g id="Node000023" class="node">
<title>Node23</title>
<g id="a_Node000023"><a xlink:title=" ">
<polygon fill="#e0e0e0" stroke="#999999" points="2706,-101.5 2531,-101.5 2531,-71.5 2706,-71.5 2706,-101.5"/>
<text text-anchor="start" x="2539" y="-89.5" font-family="Helvetica,sans-Serif" font-size="10.00">libcockatrice/protocol</text>
<text text-anchor="middle" x="2618.5" y="-78.5" font-family="Helvetica,sans-Serif" font-size="10.00">/pb/event_server_shutdown.pb.h</text>
</a>
</g>
</g>
<!-- Node1&#45;&gt;Node23 -->
<g id="edge22_Node000001_Node000023" class="edge">
<title>Node1&#45;&gt;Node23</title>
<g id="a_edge22_Node000001_Node000023"><a xlink:title=" ">
<path fill="none" stroke="#63b8ff" d="M1696.74,-166.41C1845.07,-162.2 2214.92,-148.13 2521.5,-107 2530.71,-105.76 2540.35,-104.18 2549.84,-102.45"/>
<polygon fill="#63b8ff" stroke="#63b8ff" points="2554.78,-101.54 2550.28,-104.66 2552.32,-101.99 2549.87,-102.45 2549.87,-102.45 2549.87,-102.45 2552.32,-101.99 2549.46,-100.23 2554.78,-101.54 2554.78,-101.54"/>
</a>
</g>
</g>
<!-- Node24 -->
<g id="Node000024" class="node">
<title>Node24</title>
<g id="a_Node000024"><a xlink:title=" ">
<polygon fill="#e0e0e0" stroke="#999999" points="2872.5,-101.5 2724.5,-101.5 2724.5,-71.5 2872.5,-71.5 2872.5,-101.5"/>
<text text-anchor="start" x="2732.5" y="-89.5" font-family="Helvetica,sans-Serif" font-size="10.00">libcockatrice/protocol</text>
<text text-anchor="middle" x="2798.5" y="-78.5" font-family="Helvetica,sans-Serif" font-size="10.00">/pb/event_user_joined.pb.h</text>
</a>
</g>
</g>
<!-- Node1&#45;&gt;Node24 -->
<g id="edge23_Node000001_Node000024" class="edge">
<title>Node1&#45;&gt;Node24</title>
<g id="a_edge23_Node000001_Node000024"><a xlink:title=" ">
<path fill="none" stroke="#63b8ff" d="M1696.64,-168.29C1866.66,-168.15 2332.48,-162.33 2715.5,-107 2723.39,-105.86 2731.62,-104.34 2739.72,-102.64"/>
<polygon fill="#63b8ff" stroke="#63b8ff" points="2744.74,-101.57 2740.32,-104.82 2742.29,-102.09 2739.85,-102.62 2739.85,-102.62 2739.85,-102.62 2742.29,-102.09 2739.38,-100.42 2744.74,-101.57 2744.74,-101.57"/>
</a>
</g>
</g>
<!-- Node25 -->
<g id="Node000025" class="node">
<title>Node25</title>
<g id="a_Node000025"><a xlink:title=" ">
<polygon fill="#e0e0e0" stroke="#999999" points="3024.5,-101.5 2890.5,-101.5 2890.5,-71.5 3024.5,-71.5 3024.5,-101.5"/>
<text text-anchor="start" x="2898.5" y="-89.5" font-family="Helvetica,sans-Serif" font-size="10.00">libcockatrice/protocol</text>
<text text-anchor="middle" x="2957.5" y="-78.5" font-family="Helvetica,sans-Serif" font-size="10.00">/pb/event_user_left.pb.h</text>
</a>
</g>
</g>
<!-- Node1&#45;&gt;Node25 -->
<g id="edge24_Node000001_Node000025" class="edge">
<title>Node1&#45;&gt;Node25</title>
<g id="a_edge24_Node000001_Node000025"><a xlink:title=" ">
<path fill="none" stroke="#63b8ff" d="M1696.74,-166.54C1920.87,-161.32 2649.7,-142.02 2881.5,-107 2888.72,-105.91 2896.25,-104.42 2903.65,-102.75"/>
<polygon fill="#63b8ff" stroke="#63b8ff" points="2908.74,-101.56 2904.38,-104.89 2906.31,-102.13 2903.87,-102.69 2903.87,-102.69 2903.87,-102.69 2906.31,-102.13 2903.36,-100.5 2908.74,-101.56 2908.74,-101.56"/>
</a>
</g>
</g>
<!-- Node26 -->
<g id="Node000026" class="node">
<title>Node26</title>
<g id="a_Node000026"><a xlink:title=" ">
<polygon fill="#e0e0e0" stroke="#999999" points="3204.5,-101.5 3042.5,-101.5 3042.5,-71.5 3204.5,-71.5 3204.5,-101.5"/>
<text text-anchor="start" x="3050.5" y="-89.5" font-family="Helvetica,sans-Serif" font-size="10.00">libcockatrice/protocol</text>
<text text-anchor="middle" x="3123.5" y="-78.5" font-family="Helvetica,sans-Serif" font-size="10.00">/pb/event_user_message.pb.h</text>
</a>
</g>
</g>
<!-- Node1&#45;&gt;Node26 -->
<g id="edge25_Node000001_Node000026" class="edge">
<title>Node1&#45;&gt;Node26</title>
<g id="a_edge25_Node000001_Node000026"><a xlink:title=" ">
<path fill="none" stroke="#63b8ff" d="M1696.64,-166.62C1937.86,-161.34 2769.94,-141.03 3033.5,-107 3042.33,-105.86 3051.58,-104.29 3060.64,-102.54"/>
<polygon fill="#63b8ff" stroke="#63b8ff" points="3065.66,-101.55 3061.19,-104.72 3063.2,-102.03 3060.75,-102.52 3060.75,-102.52 3060.75,-102.52 3063.2,-102.03 3060.31,-100.31 3065.66,-101.55 3065.66,-101.55"/>
</a>
</g>
</g>
<!-- Node27 -->
<g id="Node000027" class="node">
<title>Node27</title>
<g id="a_Node000027"><a xlink:title=" ">
<polygon fill="#e0e0e0" stroke="#999999" points="3362,-101.5 3223,-101.5 3223,-71.5 3362,-71.5 3362,-101.5"/>
<text text-anchor="start" x="3231" y="-89.5" font-family="Helvetica,sans-Serif" font-size="10.00">libcockatrice/protocol</text>
<text text-anchor="middle" x="3292.5" y="-78.5" font-family="Helvetica,sans-Serif" font-size="10.00">/pb/server_message.pb.h</text>
</a>
</g>
</g>
<!-- Node1&#45;&gt;Node27 -->
<g id="edge26_Node000001_Node000027" class="edge">
<title>Node1&#45;&gt;Node27</title>
<g id="a_edge26_Node000001_Node000027"><a xlink:title=" ">
<path fill="none" stroke="#63b8ff" d="M1696.5,-167.25C1956.91,-163.99 2913.43,-149.37 3213.5,-107 3221.26,-105.9 3229.37,-104.37 3237.31,-102.63"/>
<polygon fill="#63b8ff" stroke="#63b8ff" points="3242.23,-101.53 3237.84,-104.82 3239.79,-102.08 3237.35,-102.62 3237.35,-102.62 3237.35,-102.62 3239.79,-102.08 3236.85,-100.43 3242.23,-101.53 3242.23,-101.53"/>
</a>
</g>
</g>
<!-- Node28 -->
<g id="Node000028" class="node">
<title>Node28</title>
<g id="a_Node000028"><a xlink:href="../../d9/d07/pending__command_8h.html" target="_top" xlink:title="TODO: Document this.">
<polygon fill="white" stroke="#666666" points="434.5,-101.5 312.5,-101.5 312.5,-71.5 434.5,-71.5 434.5,-101.5"/>
<text text-anchor="start" x="320.5" y="-89.5" font-family="Helvetica,sans-Serif" font-size="10.00">libcockatrice/protocol</text>
<text text-anchor="middle" x="373.5" y="-78.5" font-family="Helvetica,sans-Serif" font-size="10.00">/pending_command.h</text>
</a>
</g>
</g>
<!-- Node1&#45;&gt;Node28 -->
<g id="edge27_Node000001_Node000028" class="edge">
<title>Node1&#45;&gt;Node28</title>
<g id="a_edge27_Node000001_Node000028"><a xlink:title=" ">
<path fill="none" stroke="#63b8ff" d="M1564.18,-166.35C1348.16,-160.69 666.18,-140.56 448.5,-107 441.37,-105.9 433.94,-104.41 426.64,-102.73"/>
<polygon fill="#63b8ff" stroke="#63b8ff" points="421.61,-101.54 427,-100.5 424.05,-102.12 426.48,-102.69 426.48,-102.69 426.48,-102.69 424.05,-102.12 425.96,-104.88 421.61,-101.54 421.61,-101.54"/>
</a>
</g>
</g>
<!-- Node3 -->
<g id="Node000003" class="node">
<title>Node3</title>
<g id="a_Node000003"><a xlink:title=" ">
<polygon fill="#e0e0e0" stroke="#999999" points="55,-24.5 0,-24.5 0,-5.5 55,-5.5 55,-24.5"/>
<text text-anchor="middle" x="27.5" y="-12.5" font-family="Helvetica,sans-Serif" font-size="10.00">QMutex</text>
</a>
</g>
</g>
<!-- Node2&#45;&gt;Node3 -->
<g id="edge2_Node000002_Node000003" class="edge">
<title>Node2&#45;&gt;Node3</title>
<g id="a_edge2_Node000002_Node000003"><a xlink:title=" ">
<path fill="none" stroke="#63b8ff" d="M215.52,-76.95C179.47,-66.52 117.21,-48.03 64.5,-30 61.1,-28.84 57.55,-27.57 54.05,-26.28"/>
<polygon fill="#63b8ff" stroke="#63b8ff" points="49.33,-24.53 54.8,-24.16 51.67,-25.4 54.02,-26.27 54.02,-26.27 54.02,-26.27 51.67,-25.4 53.23,-28.38 49.33,-24.53 49.33,-24.53"/>
</a>
</g>
</g>
<!-- Node4 -->
<g id="Node000004" class="node">
<title>Node4</title>
<g id="a_Node000004"><a xlink:title=" ">
<polygon fill="#e0e0e0" stroke="#999999" points="285,-24.5 226,-24.5 226,-5.5 285,-5.5 285,-24.5"/>
<text text-anchor="middle" x="255.5" y="-12.5" font-family="Helvetica,sans-Serif" font-size="10.00">QVariant</text>
</a>
</g>
</g>
<!-- Node2&#45;&gt;Node4 -->
<g id="edge3_Node000002_Node000004" class="edge">
<title>Node2&#45;&gt;Node4</title>
<g id="a_edge3_Node000002_Node000004"><a xlink:title=" ">
<path fill="none" stroke="#63b8ff" d="M246.73,-76.98C248.42,-65.2 251.5,-43.82 253.52,-29.76"/>
<polygon fill="#63b8ff" stroke="#63b8ff" points="254.26,-24.59 255.78,-29.86 253.91,-27.07 253.55,-29.54 253.55,-29.54 253.55,-29.54 253.91,-27.07 251.32,-29.22 254.26,-24.59 254.26,-24.59"/>
</a>
</g>
</g>
<!-- Node5 -->
<g id="Node000005" class="node">
<title>Node5</title>
<g id="a_Node000005"><a xlink:title=" ">
<polygon fill="#e0e0e0" stroke="#999999" points="424,-30 303,-30 303,0 424,0 424,-30"/>
<text text-anchor="start" x="311" y="-18" font-family="Helvetica,sans-Serif" font-size="10.00">libcockatrice/protocol</text>
<text text-anchor="middle" x="363.5" y="-7" font-family="Helvetica,sans-Serif" font-size="10.00">/pb/response.pb.h</text>
</a>
</g>
</g>
<!-- Node2&#45;&gt;Node5 -->
<g id="edge4_Node000002_Node000005" class="edge">
<title>Node2&#45;&gt;Node5</title>
<g id="a_edge4_Node000002_Node000005"><a xlink:title=" ">
<path fill="none" stroke="#63b8ff" d="M259.97,-76.98C278.62,-65.99 311.48,-46.64 335.18,-32.68"/>
<polygon fill="#63b8ff" stroke="#63b8ff" points="339.5,-30.14 336.33,-34.61 337.34,-31.41 335.19,-32.68 335.19,-32.68 335.19,-32.68 337.34,-31.41 334.05,-30.74 339.5,-30.14 339.5,-30.14"/>
</a>
</g>
</g>
<!-- Node6 -->
<g id="Node000006" class="node">
<title>Node6</title>
<g id="a_Node000006"><a xlink:title=" ">
<polygon fill="#e0e0e0" stroke="#999999" points="207.5,-30 73.5,-30 73.5,0 207.5,0 207.5,-30"/>
<text text-anchor="start" x="81.5" y="-18" font-family="Helvetica,sans-Serif" font-size="10.00">libcockatrice/protocol</text>
<text text-anchor="middle" x="140.5" y="-7" font-family="Helvetica,sans-Serif" font-size="10.00">/pb/serverinfo_user.pb.h</text>
</a>
</g>
</g>
<!-- Node2&#45;&gt;Node6 -->
<g id="edge5_Node000002_Node000006" class="edge">
<title>Node2&#45;&gt;Node6</title>
<g id="a_edge5_Node000002_Node000006"><a xlink:title=" ">
<path fill="none" stroke="#63b8ff" d="M232.62,-76.98C216.16,-66.08 187.27,-46.96 166.22,-33.03"/>
<polygon fill="#63b8ff" stroke="#63b8ff" points="161.86,-30.14 167.27,-31.02 163.94,-31.52 166.03,-32.9 166.03,-32.9 166.03,-32.9 163.94,-31.52 164.79,-34.77 161.86,-30.14 161.86,-30.14"/>
</a>
</g>
</g>
<!-- Node9 -->
<g id="Node000009" class="node">
<title>Node9</title>
<g id="a_Node000009"><a xlink:title=" ">
<polygon fill="#e0e0e0" stroke="#999999" points="677,-24.5 632,-24.5 632,-5.5 677,-5.5 677,-24.5"/>
<text text-anchor="middle" x="654.5" y="-12.5" font-family="Helvetica,sans-Serif" font-size="10.00">QMap</text>
</a>
</g>
</g>
<!-- Node8&#45;&gt;Node9 -->
<g id="edge8_Node000008_Node000009" class="edge">
<title>Node8&#45;&gt;Node9</title>
<g id="a_edge8_Node000008_Node000009"><a xlink:title=" ">
<path fill="none" stroke="#63b8ff" d="M709.54,-71.44C697.08,-58.89 679.02,-40.69 667.02,-28.61"/>
<polygon fill="#63b8ff" stroke="#63b8ff" points="663.2,-24.77 668.32,-26.73 664.97,-26.54 666.73,-28.32 666.73,-28.32 666.73,-28.32 664.97,-26.54 665.13,-29.9 663.2,-24.77 663.2,-24.77"/>
</a>
</g>
</g>
<!-- Node10 -->
<g id="Node000010" class="node">
<title>Node10</title>
<g id="a_Node000010"><a xlink:title=" ">
<polygon fill="#e0e0e0" stroke="#999999" points="751.5,-24.5 695.5,-24.5 695.5,-5.5 751.5,-5.5 751.5,-24.5"/>
<text text-anchor="middle" x="723.5" y="-12.5" font-family="Helvetica,sans-Serif" font-size="10.00">QObject</text>
</a>
</g>
</g>
<!-- Node8&#45;&gt;Node10 -->
<g id="edge9_Node000008_Node000010" class="edge">
<title>Node8&#45;&gt;Node10</title>
<g id="a_edge9_Node000008_Node000010"><a xlink:title=" ">
<path fill="none" stroke="#63b8ff" d="M723.5,-71.44C723.5,-59.33 723.5,-41.95 723.5,-29.9"/>
<polygon fill="#63b8ff" stroke="#63b8ff" points="723.5,-24.77 725.75,-29.77 723.5,-27.27 723.5,-29.77 723.5,-29.77 723.5,-29.77 723.5,-27.27 721.25,-29.77 723.5,-24.77 723.5,-24.77"/>
</a>
</g>
</g>
<!-- Node11 -->
<g id="Node000011" class="node">
<title>Node11</title>
<g id="a_Node000011"><a xlink:title=" ">
<polygon fill="#e0e0e0" stroke="#999999" points="823,-24.5 770,-24.5 770,-5.5 823,-5.5 823,-24.5"/>
<text text-anchor="middle" x="796.5" y="-12.5" font-family="Helvetica,sans-Serif" font-size="10.00">QString</text>
</a>
</g>
</g>
<!-- Node8&#45;&gt;Node11 -->
<g id="edge10_Node000008_Node000011" class="edge">
<title>Node8&#45;&gt;Node11</title>
<g id="a_edge10_Node000008_Node000011"><a xlink:title=" ">
<path fill="none" stroke="#63b8ff" d="M738.27,-71.44C751.56,-58.78 770.9,-40.38 783.58,-28.3"/>
<polygon fill="#63b8ff" stroke="#63b8ff" points="787.29,-24.77 785.22,-29.84 785.48,-26.49 783.67,-28.21 783.67,-28.21 783.67,-28.21 785.48,-26.49 782.12,-26.59 787.29,-24.77 787.29,-24.77"/>
</a>
</g>
</g>
<!-- Node28&#45;&gt;Node4 -->
<g id="edge28_Node000028_Node000004" class="edge">
<title>Node28&#45;&gt;Node4</title>
<g id="a_edge28_Node000028_Node000004"><a xlink:title=" ">
<path fill="none" stroke="#63b8ff" d="M349.62,-71.44C327.46,-58.38 294.9,-39.2 274.46,-27.17"/>
<polygon fill="#63b8ff" stroke="#63b8ff" points="270.05,-24.57 275.5,-25.17 272.2,-25.84 274.36,-27.11 274.36,-27.11 274.36,-27.11 272.2,-25.84 273.21,-29.04 270.05,-24.57 270.05,-24.57"/>
</a>
</g>
</g>
<!-- Node28&#45;&gt;Node5 -->
<g id="edge30_Node000028_Node000005" class="edge">
<title>Node28&#45;&gt;Node5</title>
<g id="a_edge30_Node000028_Node000005"><a xlink:title=" ">
<path fill="none" stroke="#63b8ff" d="M371.48,-71.44C369.97,-60.98 367.9,-46.59 366.25,-35.1"/>
<polygon fill="#63b8ff" stroke="#63b8ff" points="365.52,-30.04 368.46,-34.67 365.88,-32.52 366.23,-34.99 366.23,-34.99 366.23,-34.99 365.88,-32.52 364.01,-35.31 365.52,-30.04 365.52,-30.04"/>
</a>
</g>
</g>
<!-- Node28&#45;&gt;Node13 -->
<g id="edge29_Node000028_Node000013" class="edge">
<title>Node28&#45;&gt;Node13</title>
<g id="a_edge29_Node000028_Node000013"><a xlink:title=" ">
<path fill="none" stroke="#63b8ff" d="M399.61,-71.44C420.5,-60.18 449.85,-44.37 471.85,-32.51"/>
<polygon fill="#63b8ff" stroke="#63b8ff" points="476.43,-30.04 473.1,-34.4 474.23,-31.23 472.03,-32.42 472.03,-32.42 472.03,-32.42 474.23,-31.23 470.96,-30.43 476.43,-30.04 476.43,-30.04"/>
</a>
</g>
</g>
</g>
</svg>

<g id="navigator" transform="translate(0 0)" fill="#404254">
  <rect fill="#f2f5e9" fill-opacity="0.5" stroke="#606060" stroke-width=".5" x="0" y="0" width="60" height="60"/>
  <use id="zoomplus" xlink:href="#zoomPlus" x="17" y="9" onmousedown="handleZoom(evt,'in')"/>
  <use id="zoomminus" xlink:href="#zoomMin" x="42" y="9" onmousedown="handleZoom(evt,'out')"/>
  <use id="reset" xlink:href="#resetDef" x="30" y="36" onmousedown="handleReset()"/>
   <use id="arrowup" xlink:href="#arrowUp" x="0" y="0" onmousedown="handlePan(0,-1)"/>
  <use id="arrowright" xlink:href="#arrowRight" x="0" y="0" onmousedown="handlePan(1,0)"/>
  <use id="arrowdown" xlink:href="#arrowDown" x="0" y="0" onmousedown="handlePan(0,1)"/>
  <use id="arrowleft" xlink:href="#arrowLeft" x="0" y="0" onmousedown="handlePan(-1,0)"/>
</g>
<svg viewBox="0 0 15 15" width="100%" height="30px" preserveAspectRatio="xMaxYMin meet">
 <g id="arrow_out" transform="scale(0.3 0.3)">
  <a xlink:href="abstract__client_8cpp__incl_org.svg" target="_base">
   <rect id="button" ry="5" rx="5" y="6" x="6" height="38" width="38"
        fill="#f2f5e9" fill-opacity="0.5" stroke="#606060" stroke-width="1.0"/>
   <path id="arrow"
     d="M 11.500037,31.436501 C 11.940474,20.09759 22.043105,11.32322 32.158766,21.979434 L 37.068811,17.246167 C 37.068811,17.246167 37.088388,32 37.088388,32 L 22.160133,31.978069 C 22.160133,31.978069 26.997745,27.140456 26.997745,27.140456 C 18.528582,18.264221 13.291696,25.230495 11.500037,31.436501 z"
     style="fill:#404040;"/>
  </a>
 </g>
</svg>

<style type='text/css'>
<![CDATA[
[data-mouse-over-selected='false'] { opacity: 0.7; }
[data-mouse-over-selected='true']  { opacity: 1.0; }
]]>
</style>
<script type="application/ecmascript"><![CDATA[
document.addEventListener('DOMContentLoaded', (event) => {
  highlightEdges();
  highlightAdjacentNodes();
});
]]></script>
</svg>
