<?xml version="1.0" encoding="UTF-8" standalone="no"?>
<!DOCTYPE svg PUBLIC "-//W3C//DTD SVG 1.1//EN"
 "http://www.w3.org/Graphics/SVG/1.1/DTD/svg11.dtd">
<!-- Generated by graphviz version 2.43.0 (0)
 -->
<!-- Title: VisualDatabaseDisplaySubTypeFilterWidget::updateSubTypeButtonsVisibility Pages: 1 -->
<svg width="644pt" height="136pt"
 viewBox="0.00 0.00 644.00 135.50" xmlns="http://www.w3.org/2000/svg" xmlns:xlink="http://www.w3.org/1999/xlink">
<g id="graph0" class="graph" transform="scale(1 1) rotate(0) translate(4 131.5)">
<title>VisualDatabaseDisplaySubTypeFilterWidget::updateSubTypeButtonsVisibility</title>
<!-- Node1 -->
<g id="Node000001" class="node">
<title>Node1</title>
<g id="a_Node000001"><a xlink:title=" ">
<polygon fill="#999999" stroke="#666666" points="636,-78.5 457,-78.5 457,-37.5 636,-37.5 636,-78.5"/>
<text text-anchor="start" x="465" y="-66.5" font-family="Helvetica,sans-Serif" font-size="10.00">VisualDatabaseDisplaySub</text>
<text text-anchor="start" x="465" y="-55.5" font-family="Helvetica,sans-Serif" font-size="10.00">TypeFilterWidget::updateSubType</text>
<text text-anchor="middle" x="546.5" y="-44.5" font-family="Helvetica,sans-Serif" font-size="10.00">ButtonsVisibility</text>
</a>
</g>
</g>
<!-- Node2 -->
<g id="Node000002" class="node">
<title>Node2</title>
<g id="a_Node000002"><a xlink:href="../../da/d71/classVisualDatabaseDisplaySubTypeFilterWidget.html#a371c3ea41bf4f642e2de51f2b37502c3" target="_top" xlink:title=" ">
<polygon fill="white" stroke="#666666" points="407,-127.5 231,-127.5 231,-86.5 407,-86.5 407,-127.5"/>
<text text-anchor="start" x="239" y="-115.5" font-family="Helvetica,sans-Serif" font-size="10.00">VisualDatabaseDisplaySub</text>
<text text-anchor="start" x="239" y="-104.5" font-family="Helvetica,sans-Serif" font-size="10.00">TypeFilterWidget::createSubType</text>
<text text-anchor="middle" x="319" y="-93.5" font-family="Helvetica,sans-Serif" font-size="10.00">Buttons</text>
</a>
</g>
</g>
<!-- Node1&#45;&gt;Node2 -->
<g id="edge1_Node000001_Node000002" class="edge">
<title>Node1&#45;&gt;Node2</title>
<g id="a_edge1_Node000001_Node000002"><a xlink:title=" ">
<path fill="none" stroke="#63b8ff" d="M451.72,-78.38C436.99,-81.58 421.82,-84.88 407.24,-88.04"/>
<polygon fill="#63b8ff" stroke="#63b8ff" points="456.7,-77.3 452.29,-80.56 454.26,-77.83 451.81,-78.36 451.81,-78.36 451.81,-78.36 454.26,-77.83 451.34,-76.16 456.7,-77.3 456.7,-77.3"/>
</a>
</g>
</g>
<!-- Node3 -->
<g id="Node000003" class="node">
<title>Node3</title>
<g id="a_Node000003"><a xlink:href="../../da/d71/classVisualDatabaseDisplaySubTypeFilterWidget.html#acf27861aeef4ab49f047d594cafa6ac2" target="_top" xlink:title=" ">
<polygon fill="white" stroke="#666666" points="181,-78.5 0,-78.5 0,-37.5 181,-37.5 181,-78.5"/>
<text text-anchor="start" x="8" y="-66.5" font-family="Helvetica,sans-Serif" font-size="10.00">VisualDatabaseDisplaySub</text>
<text text-anchor="start" x="8" y="-55.5" font-family="Helvetica,sans-Serif" font-size="10.00">TypeFilterWidget::VisualDatabase</text>
<text text-anchor="middle" x="90.5" y="-44.5" font-family="Helvetica,sans-Serif" font-size="10.00">DisplaySubTypeFilterWidget</text>
</a>
</g>
</g>
<!-- Node1&#45;&gt;Node3 -->
<g id="edge5_Node000001_Node000003" class="edge">
<title>Node1&#45;&gt;Node3</title>
<g id="a_edge5_Node000001_Node000003"><a xlink:title=" ">
<path fill="none" stroke="#63b8ff" d="M451.71,-58C372.3,-58 259.23,-58 181.05,-58"/>
<polygon fill="#63b8ff" stroke="#63b8ff" points="456.89,-58 451.89,-60.25 454.39,-58 451.89,-58 451.89,-58 451.89,-58 454.39,-58 451.89,-55.75 456.89,-58 456.89,-58"/>
</a>
</g>
</g>
<!-- Node4 -->
<g id="Node000004" class="node">
<title>Node4</title>
<g id="a_Node000004"><a xlink:href="../../da/d71/classVisualDatabaseDisplaySubTypeFilterWidget.html#ae9121afdc95ebe569e86c52bad3605dd" target="_top" xlink:title=" ">
<polygon fill="white" stroke="#666666" points="421,-30 217,-30 217,0 421,0 421,-30"/>
<text text-anchor="start" x="225" y="-18" font-family="Helvetica,sans-Serif" font-size="10.00">VisualDatabaseDisplaySub</text>
<text text-anchor="middle" x="319" y="-7" font-family="Helvetica,sans-Serif" font-size="10.00">TypeFilterWidget::syncWithFilterModel</text>
</a>
</g>
</g>
<!-- Node1&#45;&gt;Node4 -->
<g id="edge3_Node000001_Node000004" class="edge">
<title>Node1&#45;&gt;Node4</title>
<g id="a_edge3_Node000001_Node000004"><a xlink:title=" ">
<path fill="none" stroke="#63b8ff" d="M451.76,-40.12C434.16,-36.77 415.92,-33.29 398.84,-30.03"/>
<polygon fill="#63b8ff" stroke="#63b8ff" points="456.7,-41.07 451.37,-42.34 454.24,-40.6 451.79,-40.13 451.79,-40.13 451.79,-40.13 454.24,-40.6 452.21,-37.92 456.7,-41.07 456.7,-41.07"/>
</a>
</g>
</g>
<!-- Node2&#45;&gt;Node3 -->
<g id="edge2_Node000002_Node000003" class="edge">
<title>Node2&#45;&gt;Node3</title>
<g id="a_edge2_Node000002_Node000003"><a xlink:title=" ">
<path fill="none" stroke="#63b8ff" d="M225.8,-87.05C211.12,-83.88 195.95,-80.6 181.33,-77.43"/>
<polygon fill="#63b8ff" stroke="#63b8ff" points="230.75,-88.13 225.39,-89.27 228.31,-87.6 225.87,-87.07 225.87,-87.07 225.87,-87.07 228.31,-87.6 226.34,-84.87 230.75,-88.13 230.75,-88.13"/>
</a>
</g>
</g>
<!-- Node4&#45;&gt;Node3 -->
<g id="edge4_Node000004_Node000003" class="edge">
<title>Node4&#45;&gt;Node3</title>
<g id="a_edge4_Node000004_Node000003"><a xlink:title=" ">
<path fill="none" stroke="#63b8ff" d="M233.51,-31.04C216.42,-34.28 198.39,-37.71 181.13,-40.98"/>
<polygon fill="#63b8ff" stroke="#63b8ff" points="238.78,-30.04 234.29,-33.18 236.33,-30.51 233.87,-30.97 233.87,-30.97 233.87,-30.97 236.33,-30.51 233.45,-28.76 238.78,-30.04 238.78,-30.04"/>
</a>
</g>
</g>
</g>
</svg>
