<?xml version="1.0" encoding="UTF-8" standalone="no"?>
<!DOCTYPE svg PUBLIC "-//W3C//DTD SVG 1.1//EN"
 "http://www.w3.org/Graphics/SVG/1.1/DTD/svg11.dtd">
<!-- Generated by graphviz version 2.43.0 (0)
 -->
<!-- Title: TabDeckStorage::actOpenLocalDeck Pages: 1 -->
<svg width="1173pt" height="238pt"
 viewBox="0.00 0.00 1173.00 238.00" xmlns="http://www.w3.org/2000/svg" xmlns:xlink="http://www.w3.org/1999/xlink">
<g id="graph0" class="graph" transform="scale(1 1) rotate(0) translate(4 234)">
<title>TabDeckStorage::actOpenLocalDeck</title>
<!-- Node1 -->
<g id="Node000001" class="node">
<title>Node1</title>
<g id="a_Node000001"><a xlink:title=" ">
<polygon fill="#999999" stroke="#666666" points="192,-90 0,-90 0,-71 192,-71 192,-90"/>
<text text-anchor="middle" x="96" y="-78" font-family="Helvetica,sans-Serif" font-size="10.00">TabDeckStorage::actOpenLocalDeck</text>
</a>
</g>
</g>
<!-- Node2 -->
<g id="Node000002" class="node">
<title>Node2</title>
<g id="a_Node000002"><a xlink:href="../../de/de9/classDeckLoader.html#a1f9a7cb6f8a175c62d02d1bac2591f1d" target="_top" xlink:title="Loads a deck from a local file.">
<polygon fill="white" stroke="#666666" points="374.5,-112 231.5,-112 231.5,-93 374.5,-93 374.5,-112"/>
<text text-anchor="middle" x="303" y="-100" font-family="Helvetica,sans-Serif" font-size="10.00">DeckLoader::loadFromFile</text>
</a>
</g>
</g>
<!-- Node1&#45;&gt;Node2 -->
<g id="edge1_Node000001_Node000002" class="edge">
<title>Node1&#45;&gt;Node2</title>
<g id="a_edge1_Node000001_Node000002"><a xlink:title=" ">
<path fill="none" stroke="#63b8ff" d="M185.72,-90.02C199.19,-91.47 212.99,-92.95 226.15,-94.36"/>
<polygon fill="#63b8ff" stroke="#63b8ff" points="231.36,-94.92 226.14,-96.62 228.87,-94.65 226.38,-94.39 226.38,-94.39 226.38,-94.39 228.87,-94.65 226.62,-92.15 231.36,-94.92 231.36,-94.92"/>
</a>
</g>
</g>
<!-- Node17 -->
<g id="Node000017" class="node">
<title>Node17</title>
<g id="a_Node000017"><a xlink:href="../../d1/dd7/classTabDeckStorage.html#ad2e7fef55ef4270b4599b2e20f4abcdb" target="_top" xlink:title=" ">
<polygon fill="white" stroke="#666666" points="378,-74.5 228,-74.5 228,-44.5 378,-44.5 378,-74.5"/>
<text text-anchor="start" x="236" y="-62.5" font-family="Helvetica,sans-Serif" font-size="10.00">TabDeckStorage::openDeck</text>
<text text-anchor="middle" x="303" y="-51.5" font-family="Helvetica,sans-Serif" font-size="10.00">Editor</text>
</a>
</g>
</g>
<!-- Node1&#45;&gt;Node17 -->
<g id="edge19_Node000001_Node000017" class="edge">
<title>Node1&#45;&gt;Node17</title>
<g id="a_edge19_Node000001_Node000017"><a xlink:title=" ">
<path fill="none" stroke="#63b8ff" d="M189.9,-70.98C200.83,-69.86 211.9,-68.73 222.62,-67.63"/>
<polygon fill="#63b8ff" stroke="#63b8ff" points="227.85,-67.1 223.1,-69.84 225.36,-67.35 222.87,-67.61 222.87,-67.61 222.87,-67.61 225.36,-67.35 222.64,-65.37 227.85,-67.1 227.85,-67.1"/>
</a>
</g>
</g>
<!-- Node3 -->
<g id="Node000003" class="node">
<title>Node3</title>
<g id="a_Node000003"><a xlink:href="../../da/d68/classDeckList.html#a8df3b058ff21ffcb90d6bf524cebd2c1" target="_top" xlink:title=" ">
<polygon fill="white" stroke="#666666" points="563,-169.5 435,-169.5 435,-139.5 563,-139.5 563,-169.5"/>
<text text-anchor="start" x="443" y="-157.5" font-family="Helvetica,sans-Serif" font-size="10.00">DeckList::loadFromFile</text>
<text text-anchor="middle" x="499" y="-146.5" font-family="Helvetica,sans-Serif" font-size="10.00">_Native</text>
</a>
</g>
</g>
<!-- Node2&#45;&gt;Node3 -->
<g id="edge2_Node000002_Node000003" class="edge">
<title>Node2&#45;&gt;Node3</title>
<g id="a_edge2_Node000002_Node000003"><a xlink:title=" ">
<path fill="none" stroke="#63b8ff" d="M339.58,-112.04C366.68,-119.3 404.65,-129.48 436.62,-138.05"/>
<polygon fill="#63b8ff" stroke="#63b8ff" points="441.7,-139.41 436.28,-140.29 439.28,-138.76 436.87,-138.11 436.87,-138.11 436.87,-138.11 439.28,-138.76 437.45,-135.94 441.7,-139.41 441.7,-139.41"/>
</a>
</g>
</g>
<!-- Node10 -->
<g id="Node000010" class="node">
<title>Node10</title>
<g id="a_Node000010"><a xlink:href="../../da/d68/classDeckList.html#a767977a643f6fc5c1b5bfca2b3f21515" target="_top" xlink:title=" ">
<polygon fill="white" stroke="#666666" points="563,-117.5 435,-117.5 435,-87.5 563,-87.5 563,-117.5"/>
<text text-anchor="start" x="443" y="-105.5" font-family="Helvetica,sans-Serif" font-size="10.00">DeckList::loadFromFile</text>
<text text-anchor="middle" x="499" y="-94.5" font-family="Helvetica,sans-Serif" font-size="10.00">_Plain</text>
</a>
</g>
</g>
<!-- Node2&#45;&gt;Node10 -->
<g id="edge10_Node000002_Node000010" class="edge">
<title>Node2&#45;&gt;Node10</title>
<g id="a_edge10_Node000002_Node000010"><a xlink:title=" ">
<path fill="none" stroke="#63b8ff" d="M374.59,-102.5C392.61,-102.5 411.95,-102.5 429.85,-102.5"/>
<polygon fill="#63b8ff" stroke="#63b8ff" points="434.86,-102.5 429.86,-104.75 432.36,-102.5 429.86,-102.5 429.86,-102.5 429.86,-102.5 432.36,-102.5 429.86,-100.25 434.86,-102.5 434.86,-102.5"/>
</a>
</g>
</g>
<!-- Node12 -->
<g id="Node000012" class="node">
<title>Node12</title>
<g id="a_Node000012"><a xlink:href="../../de/de9/classDeckLoader.html#aa19219934f8a1ed72682a41ec7208de8" target="_top" xlink:title="Updates the lastLoadedTimestamp field in the file corresponding to the deck, without changing the Fil...">
<polygon fill="white" stroke="#666666" points="584,-67.5 414,-67.5 414,-37.5 584,-37.5 584,-67.5"/>
<text text-anchor="start" x="422" y="-55.5" font-family="Helvetica,sans-Serif" font-size="10.00">DeckLoader::updateLastLoaded</text>
<text text-anchor="middle" x="499" y="-44.5" font-family="Helvetica,sans-Serif" font-size="10.00">Timestamp</text>
</a>
</g>
</g>
<!-- Node2&#45;&gt;Node12 -->
<g id="edge14_Node000002_Node000012" class="edge">
<title>Node2&#45;&gt;Node12</title>
<g id="a_edge14_Node000002_Node000012"><a xlink:title=" ">
<path fill="none" stroke="#63b8ff" d="M341.27,-92.94C353.02,-89.93 366.05,-86.58 378,-83.5 396.38,-78.77 416.34,-73.61 434.61,-68.89"/>
<polygon fill="#63b8ff" stroke="#63b8ff" points="439.72,-67.58 435.44,-71 437.3,-68.2 434.87,-68.83 434.87,-68.83 434.87,-68.83 437.3,-68.2 434.31,-66.65 439.72,-67.58 439.72,-67.58"/>
</a>
</g>
</g>
<!-- Node4 -->
<g id="Node000004" class="node">
<title>Node4</title>
<g id="a_Node000004"><a xlink:href="../../da/d68/classDeckList.html#a79ee05fb6b1be4dcf5d07cab77c39437" target="_top" xlink:title=" ">
<polygon fill="white" stroke="#666666" points="780.5,-173 650.5,-173 650.5,-154 780.5,-154 780.5,-173"/>
<text text-anchor="middle" x="715.5" y="-161" font-family="Helvetica,sans-Serif" font-size="10.00">DeckList::loadFromXml</text>
</a>
</g>
</g>
<!-- Node3&#45;&gt;Node4 -->
<g id="edge3_Node000003_Node000004" class="edge">
<title>Node3&#45;&gt;Node4</title>
<g id="a_edge3_Node000003_Node000004"><a xlink:title=" ">
<path fill="none" stroke="#63b8ff" d="M563.2,-157.15C588.92,-158.23 618.73,-159.48 645.05,-160.59"/>
<polygon fill="#63b8ff" stroke="#63b8ff" points="650.27,-160.81 645.18,-162.84 647.77,-160.7 645.27,-160.6 645.27,-160.6 645.27,-160.6 647.77,-160.7 645.37,-158.35 650.27,-160.81 650.27,-160.81"/>
</a>
</g>
</g>
<!-- Node5 -->
<g id="Node000005" class="node">
<title>Node5</title>
<g id="a_Node000005"><a xlink:href="../../da/d68/classDeckList.html#a773dea93b32b04d5251565251b4800ea" target="_top" xlink:title=" ">
<polygon fill="white" stroke="#666666" points="964.5,-136 856.5,-136 856.5,-117 964.5,-117 964.5,-136"/>
<text text-anchor="middle" x="910.5" y="-124" font-family="Helvetica,sans-Serif" font-size="10.00">DeckList::cleanList</text>
</a>
</g>
</g>
<!-- Node4&#45;&gt;Node5 -->
<g id="edge4_Node000004_Node000005" class="edge">
<title>Node4&#45;&gt;Node5</title>
<g id="a_edge4_Node000004_Node000005"><a xlink:title=" ">
<path fill="none" stroke="#63b8ff" d="M766.2,-153.97C793.22,-148.79 826.71,-142.37 854.51,-137.04"/>
<polygon fill="#63b8ff" stroke="#63b8ff" points="859.63,-136.06 855.14,-139.21 857.18,-136.53 854.72,-137 854.72,-137 854.72,-137 857.18,-136.53 854.3,-134.79 859.63,-136.06 859.63,-136.06"/>
</a>
</g>
</g>
<!-- Node6 -->
<g id="Node000006" class="node">
<title>Node6</title>
<g id="a_Node000006"><a xlink:href="../../da/d68/classDeckList.html#a4854d1f1622e53e8d0261b0536f7c546" target="_top" xlink:title=" ">
<polygon fill="white" stroke="#666666" points="1162,-136 1013,-136 1013,-117 1162,-117 1162,-136"/>
<text text-anchor="middle" x="1087.5" y="-124" font-family="Helvetica,sans-Serif" font-size="10.00">DeckList::refreshDeckHash</text>
</a>
</g>
</g>
<!-- Node4&#45;&gt;Node6 -->
<g id="edge9_Node000004_Node000006" class="edge">
<title>Node4&#45;&gt;Node6</title>
<g id="a_edge9_Node000004_Node000006"><a xlink:title=" ">
<path fill="none" stroke="#63b8ff" d="M780.69,-160.75C832.88,-158.1 908.36,-153.32 974,-145.5 992.79,-143.26 1013.22,-140.05 1031.45,-136.9"/>
<polygon fill="#63b8ff" stroke="#63b8ff" points="1036.53,-136.01 1031.99,-139.09 1034.07,-136.44 1031.6,-136.87 1031.6,-136.87 1031.6,-136.87 1034.07,-136.44 1031.22,-134.66 1036.53,-136.01 1036.53,-136.01"/>
</a>
</g>
</g>
<!-- Node7 -->
<g id="Node000007" class="node">
<title>Node7</title>
<g id="a_Node000007"><a xlink:href="../../da/d68/classDeckList.html#a011d41232bbf43b948d82271a49fa4d8" target="_top" xlink:title=" ">
<polygon fill="white" stroke="#666666" points="974,-212 847,-212 847,-193 974,-193 974,-212"/>
<text text-anchor="middle" x="910.5" y="-200" font-family="Helvetica,sans-Serif" font-size="10.00">DeckList::readElement</text>
</a>
</g>
</g>
<!-- Node4&#45;&gt;Node7 -->
<g id="edge6_Node000004_Node000007" class="edge">
<title>Node4&#45;&gt;Node7</title>
<g id="a_edge6_Node000004_Node000007"><a xlink:title=" ">
<path fill="none" stroke="#63b8ff" d="M763.71,-173.04C792.09,-178.77 828.24,-186.08 857.44,-191.98"/>
<polygon fill="#63b8ff" stroke="#63b8ff" points="862.44,-192.99 857.09,-194.21 859.99,-192.5 857.54,-192 857.54,-192 857.54,-192 859.99,-192.5 857.98,-189.79 862.44,-192.99 862.44,-192.99"/>
</a>
</g>
</g>
<!-- Node5&#45;&gt;Node6 -->
<g id="edge5_Node000005_Node000006" class="edge">
<title>Node5&#45;&gt;Node6</title>
<g id="a_edge5_Node000005_Node000006"><a xlink:title=" ">
<path fill="none" stroke="#63b8ff" d="M964.96,-126.5C978.39,-126.5 993.08,-126.5 1007.47,-126.5"/>
<polygon fill="#63b8ff" stroke="#63b8ff" points="1012.75,-126.5 1007.75,-128.75 1010.25,-126.5 1007.75,-126.5 1007.75,-126.5 1007.75,-126.5 1010.25,-126.5 1007.75,-124.25 1012.75,-126.5 1012.75,-126.5"/>
</a>
</g>
</g>
<!-- Node8 -->
<g id="Node000008" class="node">
<title>Node8</title>
<g id="a_Node000008"><a xlink:href="../../dc/d8b/classSideboardPlan.html#a9becc8f13ae1fcb944970547c4eeaf34" target="_top" xlink:title=" ">
<polygon fill="white" stroke="#666666" points="1156,-230 1019,-230 1019,-211 1156,-211 1156,-230"/>
<text text-anchor="middle" x="1087.5" y="-218" font-family="Helvetica,sans-Serif" font-size="10.00">SideboardPlan::getName</text>
</a>
</g>
</g>
<!-- Node7&#45;&gt;Node8 -->
<g id="edge7_Node000007_Node000008" class="edge">
<title>Node7&#45;&gt;Node8</title>
<g id="a_edge7_Node000007_Node000008"><a xlink:title=" ">
<path fill="none" stroke="#63b8ff" d="M974.18,-208.95C987,-210.27 1000.59,-211.66 1013.72,-213.01"/>
<polygon fill="#63b8ff" stroke="#63b8ff" points="1018.92,-213.55 1013.72,-215.28 1016.44,-213.29 1013.95,-213.04 1013.95,-213.04 1013.95,-213.04 1016.44,-213.29 1014.18,-210.8 1018.92,-213.55 1018.92,-213.55"/>
</a>
</g>
</g>
<!-- Node9 -->
<g id="Node000009" class="node">
<title>Node9</title>
<g id="a_Node000009"><a xlink:href="../../dc/d8b/classSideboardPlan.html#a968cef119c90e00140629c0ea98be828" target="_top" xlink:title="Read a SideboardPlan from an XML stream.">
<polygon fill="white" stroke="#666666" points="1165,-193 1010,-193 1010,-174 1165,-174 1165,-193"/>
<text text-anchor="middle" x="1087.5" y="-181" font-family="Helvetica,sans-Serif" font-size="10.00">SideboardPlan::readElement</text>
</a>
</g>
</g>
<!-- Node7&#45;&gt;Node9 -->
<g id="edge8_Node000007_Node000009" class="edge">
<title>Node7&#45;&gt;Node9</title>
<g id="a_edge8_Node000007_Node000009"><a xlink:title=" ">
<path fill="none" stroke="#63b8ff" d="M974.18,-195.69C984.13,-194.61 994.54,-193.48 1004.84,-192.37"/>
<polygon fill="#63b8ff" stroke="#63b8ff" points="1009.89,-191.82 1005.16,-194.59 1007.41,-192.09 1004.92,-192.36 1004.92,-192.36 1004.92,-192.36 1007.41,-192.09 1004.68,-190.12 1009.89,-191.82 1009.89,-191.82"/>
</a>
</g>
</g>
<!-- Node11 -->
<g id="Node000011" class="node">
<title>Node11</title>
<g id="a_Node000011"><a xlink:href="../../da/d68/classDeckList.html#af067641c4cd0fceeaac592a4a5b48572" target="_top" xlink:title=" ">
<polygon fill="white" stroke="#666666" points="788.5,-117.5 642.5,-117.5 642.5,-87.5 788.5,-87.5 788.5,-117.5"/>
<text text-anchor="start" x="650.5" y="-105.5" font-family="Helvetica,sans-Serif" font-size="10.00">DeckList::loadFromStream</text>
<text text-anchor="middle" x="715.5" y="-94.5" font-family="Helvetica,sans-Serif" font-size="10.00">_Plain</text>
</a>
</g>
</g>
<!-- Node10&#45;&gt;Node11 -->
<g id="edge11_Node000010_Node000011" class="edge">
<title>Node10&#45;&gt;Node11</title>
<g id="a_edge11_Node000010_Node000011"><a xlink:title=" ">
<path fill="none" stroke="#63b8ff" d="M563.2,-102.5C586.39,-102.5 612.9,-102.5 637.19,-102.5"/>
<polygon fill="#63b8ff" stroke="#63b8ff" points="642.34,-102.5 637.34,-104.75 639.84,-102.5 637.34,-102.5 637.34,-102.5 637.34,-102.5 639.84,-102.5 637.34,-100.25 642.34,-102.5 642.34,-102.5"/>
</a>
</g>
</g>
<!-- Node11&#45;&gt;Node5 -->
<g id="edge12_Node000011_Node000005" class="edge">
<title>Node11&#45;&gt;Node5</title>
<g id="a_edge12_Node000011_Node000005"><a xlink:title=" ">
<path fill="none" stroke="#63b8ff" d="M788.64,-111.47C809.37,-114.05 831.7,-116.83 851.46,-119.28"/>
<polygon fill="#63b8ff" stroke="#63b8ff" points="856.43,-119.9 851.19,-121.52 853.94,-119.59 851.46,-119.28 851.46,-119.28 851.46,-119.28 853.94,-119.59 851.74,-117.05 856.43,-119.9 856.43,-119.9"/>
</a>
</g>
</g>
<!-- Node11&#45;&gt;Node6 -->
<g id="edge13_Node000011_Node000006" class="edge">
<title>Node11&#45;&gt;Node6</title>
<g id="a_edge13_Node000011_Node000006"><a xlink:title=" ">
<path fill="none" stroke="#63b8ff" d="M788.52,-101.58C840.23,-101.55 911.54,-102.8 974,-108.5 992.73,-110.21 1013.06,-113.13 1031.22,-116.13"/>
<polygon fill="#63b8ff" stroke="#63b8ff" points="1036.28,-116.97 1030.98,-118.37 1033.82,-116.56 1031.35,-116.15 1031.35,-116.15 1031.35,-116.15 1033.82,-116.56 1031.72,-113.93 1036.28,-116.97 1036.28,-116.97"/>
</a>
</g>
</g>
<!-- Node13 -->
<g id="Node000013" class="node">
<title>Node13</title>
<g id="a_Node000013"><a xlink:href="../../da/d68/classDeckList.html#a4db0ab66583b74a417a82c661b958c9b" target="_top" xlink:title=" ">
<polygon fill="white" stroke="#666666" points="773.5,-67.5 657.5,-67.5 657.5,-37.5 773.5,-37.5 773.5,-67.5"/>
<text text-anchor="start" x="665.5" y="-55.5" font-family="Helvetica,sans-Serif" font-size="10.00">DeckList::saveToFile</text>
<text text-anchor="middle" x="715.5" y="-44.5" font-family="Helvetica,sans-Serif" font-size="10.00">_Native</text>
</a>
</g>
</g>
<!-- Node12&#45;&gt;Node13 -->
<g id="edge15_Node000012_Node000013" class="edge">
<title>Node12&#45;&gt;Node13</title>
<g id="a_edge15_Node000012_Node000013"><a xlink:title=" ">
<path fill="none" stroke="#63b8ff" d="M584.16,-52.5C606.87,-52.5 631.03,-52.5 652.3,-52.5"/>
<polygon fill="#63b8ff" stroke="#63b8ff" points="657.36,-52.5 652.36,-54.75 654.86,-52.5 652.36,-52.5 652.36,-52.5 652.36,-52.5 654.86,-52.5 652.36,-50.25 657.36,-52.5 657.36,-52.5"/>
</a>
</g>
</g>
<!-- Node16 -->
<g id="Node000016" class="node">
<title>Node16</title>
<g id="a_Node000016"><a xlink:href="../../da/d68/classDeckList.html#a26993d1ecf902c97868eefe08a9ccf0e" target="_top" xlink:title=" ">
<polygon fill="white" stroke="#666666" points="811,-19 620,-19 620,0 811,0 811,-19"/>
<text text-anchor="middle" x="715.5" y="-7" font-family="Helvetica,sans-Serif" font-size="10.00">DeckList::setLastLoadedTimestamp</text>
</a>
</g>
</g>
<!-- Node12&#45;&gt;Node16 -->
<g id="edge18_Node000012_Node000016" class="edge">
<title>Node12&#45;&gt;Node16</title>
<g id="a_edge18_Node000012_Node000016"><a xlink:title=" ">
<path fill="none" stroke="#63b8ff" d="M575.02,-37.46C603.68,-31.72 635.72,-25.29 661.85,-20.05"/>
<polygon fill="#63b8ff" stroke="#63b8ff" points="667,-19.02 662.54,-22.21 664.55,-19.51 662.1,-20.01 662.1,-20.01 662.1,-20.01 664.55,-19.51 661.65,-17.8 667,-19.02 667,-19.02"/>
</a>
</g>
</g>
<!-- Node14 -->
<g id="Node000014" class="node">
<title>Node14</title>
<g id="a_Node000014"><a xlink:href="../../da/d68/classDeckList.html#a9bef2e38b0a9b7f7138f0a1010c98ab8" target="_top" xlink:title=" ">
<polygon fill="white" stroke="#666666" points="955,-60 866,-60 866,-41 955,-41 955,-60"/>
<text text-anchor="middle" x="910.5" y="-48" font-family="Helvetica,sans-Serif" font-size="10.00">DeckList::write</text>
</a>
</g>
</g>
<!-- Node13&#45;&gt;Node14 -->
<g id="edge16_Node000013_Node000014" class="edge">
<title>Node13&#45;&gt;Node14</title>
<g id="a_edge16_Node000013_Node000014"><a xlink:title=" ">
<path fill="none" stroke="#63b8ff" d="M773.62,-51.91C801.24,-51.62 834.05,-51.28 860.5,-51.01"/>
<polygon fill="#63b8ff" stroke="#63b8ff" points="865.71,-50.95 860.73,-53.26 863.21,-50.98 860.71,-51.01 860.71,-51.01 860.71,-51.01 863.21,-50.98 860.69,-48.76 865.71,-50.95 865.71,-50.95"/>
</a>
</g>
</g>
<!-- Node15 -->
<g id="Node000015" class="node">
<title>Node15</title>
<g id="a_Node000015"><a xlink:href="../../d3/d94/deck__list_8cpp.html#a83e055facb9cec78e1ee9a95eec13ab8" target="_top" xlink:title=" ">
<polygon fill="white" stroke="#666666" points="1131.5,-60 1043.5,-60 1043.5,-41 1131.5,-41 1131.5,-60"/>
<text text-anchor="middle" x="1087.5" y="-48" font-family="Helvetica,sans-Serif" font-size="10.00">writeMetadata</text>
</a>
</g>
</g>
<!-- Node14&#45;&gt;Node15 -->
<g id="edge17_Node000014_Node000015" class="edge">
<title>Node14&#45;&gt;Node15</title>
<g id="a_edge17_Node000014_Node000015"><a xlink:title=" ">
<path fill="none" stroke="#63b8ff" d="M955.21,-50.5C980.45,-50.5 1012.25,-50.5 1038.23,-50.5"/>
<polygon fill="#63b8ff" stroke="#63b8ff" points="1043.35,-50.5 1038.35,-52.75 1040.85,-50.5 1038.35,-50.5 1038.35,-50.5 1038.35,-50.5 1040.85,-50.5 1038.35,-48.25 1043.35,-50.5 1043.35,-50.5"/>
</a>
</g>
</g>
</g>
</svg>
