<?xml version="1.0" encoding="UTF-8" standalone="no"?>
<!DOCTYPE svg PUBLIC "-//W3C//DTD SVG 1.1//EN"
 "http://www.w3.org/Graphics/SVG/1.1/DTD/svg11.dtd">
<!-- Generated by graphviz version 2.43.0 (0)
 -->
<!-- Title: TabDeckStorage::actNewFolder Pages: 1 -->
<svg width="1728pt" height="330pt"
 viewBox="0.00 0.00 1728.00 329.51" xmlns="http://www.w3.org/2000/svg" xmlns:xlink="http://www.w3.org/1999/xlink">
<g id="graph0" class="graph" transform="scale(1 1) rotate(0) translate(4 325.51)">
<title>TabDeckStorage::actNewFolder</title>
<!-- Node1 -->
<g id="Node000001" class="node">
<title>Node1</title>
<g id="a_Node000001"><a xlink:title=" ">
<polygon fill="#999999" stroke="#666666" points="168,-70.01 0,-70.01 0,-51.01 168,-51.01 168,-70.01"/>
<text text-anchor="middle" x="84" y="-58.01" font-family="Helvetica,sans-Serif" font-size="10.00">TabDeckStorage::actNewFolder</text>
</a>
</g>
</g>
<!-- Node2 -->
<g id="Node000002" class="node">
<title>Node2</title>
<g id="a_Node000002"><a xlink:href="../../d1/dd7/classTabDeckStorage.html#a23a0235e9e0b223f4ff3f5ac2dcce7af" target="_top" xlink:title=" ">
<polygon fill="white" stroke="#666666" points="372,-70.01 204,-70.01 204,-51.01 372,-51.01 372,-70.01"/>
<text text-anchor="middle" x="288" y="-58.01" font-family="Helvetica,sans-Serif" font-size="10.00">TabDeckStorage::getTargetPath</text>
</a>
</g>
</g>
<!-- Node1&#45;&gt;Node2 -->
<g id="edge1_Node000001_Node000002" class="edge">
<title>Node1&#45;&gt;Node2</title>
<g id="a_edge1_Node000001_Node000002"><a xlink:title=" ">
<path fill="none" stroke="#63b8ff" d="M168.04,-60.51C178.23,-60.51 188.67,-60.51 198.94,-60.51"/>
<polygon fill="#63b8ff" stroke="#63b8ff" points="203.96,-60.51 198.96,-62.76 201.46,-60.51 198.96,-60.51 198.96,-60.51 198.96,-60.51 201.46,-60.51 198.96,-58.26 203.96,-60.51 203.96,-60.51"/>
</a>
</g>
</g>
<!-- Node11 -->
<g id="Node000011" class="node">
<title>Node11</title>
<g id="a_Node000011"><a xlink:href="../../de/daa/get__text__with__max_8cpp.html#aac9694d0bb73ba9504f5f3aaf74a946f" target="_top" xlink:title=" ">
<polygon fill="white" stroke="#666666" points="336,-33.01 240,-33.01 240,-14.01 336,-14.01 336,-33.01"/>
<text text-anchor="middle" x="288" y="-21.01" font-family="Helvetica,sans-Serif" font-size="10.00">getTextWithMax</text>
</a>
</g>
</g>
<!-- Node1&#45;&gt;Node11 -->
<g id="edge13_Node000001_Node000011" class="edge">
<title>Node1&#45;&gt;Node11</title>
<g id="a_edge13_Node000001_Node000011"><a xlink:title=" ">
<path fill="none" stroke="#63b8ff" d="M137.02,-50.99C167.08,-45.48 204.77,-38.58 234.85,-33.07"/>
<polygon fill="#63b8ff" stroke="#63b8ff" points="239.99,-32.13 235.48,-35.24 237.53,-32.58 235.07,-33.03 235.07,-33.03 235.07,-33.03 237.53,-32.58 234.67,-30.81 239.99,-32.13 239.99,-32.13"/>
</a>
</g>
</g>
<!-- Node12 -->
<g id="Node000012" class="node">
<title>Node12</title>
<g id="a_Node000012"><a xlink:href="../../d1/dd7/classTabDeckStorage.html#a950af308ba562fb3556e0efe435ffe07" target="_top" xlink:title=" ">
<polygon fill="white" stroke="#666666" points="562.5,-157.51 410.5,-157.51 410.5,-127.51 562.5,-127.51 562.5,-157.51"/>
<text text-anchor="start" x="418.5" y="-145.51" font-family="Helvetica,sans-Serif" font-size="10.00">TabDeckStorage::newFolder</text>
<text text-anchor="middle" x="486.5" y="-134.51" font-family="Helvetica,sans-Serif" font-size="10.00">Finished</text>
</a>
</g>
</g>
<!-- Node1&#45;&gt;Node12 -->
<g id="edge14_Node000001_Node000012" class="edge">
<title>Node1&#45;&gt;Node12</title>
<g id="a_edge14_Node000001_Node000012"><a xlink:title=" ">
<path fill="none" stroke="#63b8ff" d="M131.73,-70.08C199.16,-83.89 324.66,-109.58 406.61,-126.36"/>
<polygon fill="#63b8ff" stroke="#63b8ff" points="411.94,-127.45 406.59,-128.66 409.49,-126.95 407.05,-126.45 407.05,-126.45 407.05,-126.45 409.49,-126.95 407.5,-124.25 411.94,-127.45 411.94,-127.45"/>
</a>
</g>
</g>
<!-- Node3 -->
<g id="Node000003" class="node">
<title>Node3</title>
<g id="a_Node000003"><a xlink:href="../../d7/dd0/classRemoteDeckList__TreeWidget.html#a55f28d8bfd6e479ca52ed4157eb09bfb" target="_top" xlink:title=" ">
<polygon fill="white" stroke="#666666" points="565,-109.51 408,-109.51 408,-79.51 565,-79.51 565,-109.51"/>
<text text-anchor="start" x="416" y="-97.51" font-family="Helvetica,sans-Serif" font-size="10.00">RemoteDeckList_TreeWidget</text>
<text text-anchor="middle" x="486.5" y="-86.51" font-family="Helvetica,sans-Serif" font-size="10.00">::getCurrentItem</text>
</a>
</g>
</g>
<!-- Node2&#45;&gt;Node3 -->
<g id="edge2_Node000002_Node000003" class="edge">
<title>Node2&#45;&gt;Node3</title>
<g id="a_edge2_Node000002_Node000003"><a xlink:title=" ">
<path fill="none" stroke="#63b8ff" d="M344,-70.03C362.21,-73.18 382.9,-76.76 402.73,-80.19"/>
<polygon fill="#63b8ff" stroke="#63b8ff" points="407.75,-81.06 402.44,-82.43 405.28,-80.64 402.82,-80.21 402.82,-80.21 402.82,-80.21 405.28,-80.64 403.2,-77.99 407.75,-81.06 407.75,-81.06"/>
</a>
</g>
</g>
<!-- Node8 -->
<g id="Node000008" class="node">
<title>Node8</title>
<g id="a_Node000008"><a xlink:href="../../da/d72/classRemoteDeckList__TreeModel_1_1Node.html#a3fd99bfc862fd3e6d9536bae14858aad" target="_top" xlink:title=" ">
<polygon fill="white" stroke="#666666" points="1720,-230.51 1568,-230.51 1568,-200.51 1720,-200.51 1720,-230.51"/>
<text text-anchor="start" x="1576" y="-218.51" font-family="Helvetica,sans-Serif" font-size="10.00">RemoteDeckList_TreeModel</text>
<text text-anchor="middle" x="1644" y="-207.51" font-family="Helvetica,sans-Serif" font-size="10.00">::Node::getParent</text>
</a>
</g>
</g>
<!-- Node2&#45;&gt;Node8 -->
<g id="edge10_Node000002_Node000008" class="edge">
<title>Node2&#45;&gt;Node8</title>
<g id="a_edge10_Node000002_Node000008"><a xlink:title=" ">
<path fill="none" stroke="#63b8ff" d="M340.53,-50.92C351.09,-48.34 362.02,-45.22 372,-41.51 388.96,-35.22 390.6,-27.48 408,-22.51 523.9,10.54 557.98,-3.51 678.5,-3.51 678.5,-3.51 678.5,-3.51 1269,-3.51 1424.67,-3.51 1574.93,-144.23 1625.27,-196.38"/>
<polygon fill="#63b8ff" stroke="#63b8ff" points="1629,-200.27 1623.92,-198.22 1627.27,-198.46 1625.54,-196.66 1625.54,-196.66 1625.54,-196.66 1627.27,-198.46 1627.17,-195.1 1629,-200.27 1629,-200.27"/>
</a>
</g>
</g>
<!-- Node10 -->
<g id="Node000010" class="node">
<title>Node10</title>
<g id="a_Node000010"><a xlink:href="../../dc/d19/classRemoteDeckList__TreeModel_1_1DirectoryNode.html#a59648106ce1eb07f95db6ccaeddddf0a" target="_top" xlink:title=" ">
<polygon fill="white" stroke="#666666" points="562.5,-61.51 410.5,-61.51 410.5,-31.51 562.5,-31.51 562.5,-61.51"/>
<text text-anchor="start" x="418.5" y="-49.51" font-family="Helvetica,sans-Serif" font-size="10.00">RemoteDeckList_TreeModel</text>
<text text-anchor="middle" x="486.5" y="-38.51" font-family="Helvetica,sans-Serif" font-size="10.00">::DirectoryNode::getPath</text>
</a>
</g>
</g>
<!-- Node2&#45;&gt;Node10 -->
<g id="edge11_Node000002_Node000010" class="edge">
<title>Node2&#45;&gt;Node10</title>
<g id="a_edge11_Node000002_Node000010"><a xlink:title=" ">
<path fill="none" stroke="#63b8ff" d="M372.05,-54.6C383.04,-53.81 394.29,-53.01 405.23,-52.23"/>
<polygon fill="#63b8ff" stroke="#63b8ff" points="410.24,-51.88 405.41,-54.48 407.74,-52.05 405.25,-52.23 405.25,-52.23 405.25,-52.23 407.74,-52.05 405.09,-49.99 410.24,-51.88 410.24,-51.88"/>
</a>
</g>
</g>
<!-- Node4 -->
<g id="Node000004" class="node">
<title>Node4</title>
<g id="a_Node000004"><a xlink:href="../../d7/dd0/classRemoteDeckList__TreeWidget.html#a5caed9ad570d4d6c916a96fdb81c51ef" target="_top" xlink:title=" ">
<polygon fill="white" stroke="#666666" points="758,-107.51 601,-107.51 601,-77.51 758,-77.51 758,-107.51"/>
<text text-anchor="start" x="609" y="-95.51" font-family="Helvetica,sans-Serif" font-size="10.00">RemoteDeckList_TreeWidget</text>
<text text-anchor="middle" x="679.5" y="-84.51" font-family="Helvetica,sans-Serif" font-size="10.00">::getNode</text>
</a>
</g>
</g>
<!-- Node3&#45;&gt;Node4 -->
<g id="edge3_Node000003_Node000004" class="edge">
<title>Node3&#45;&gt;Node4</title>
<g id="a_edge3_Node000003_Node000004"><a xlink:title=" ">
<path fill="none" stroke="#63b8ff" d="M565.19,-93.7C575.21,-93.6 585.51,-93.49 595.62,-93.38"/>
<polygon fill="#63b8ff" stroke="#63b8ff" points="600.88,-93.33 595.91,-95.63 598.38,-93.35 595.88,-93.38 595.88,-93.38 595.88,-93.38 598.38,-93.35 595.86,-91.13 600.88,-93.33 600.88,-93.33"/>
</a>
</g>
</g>
<!-- Node5 -->
<g id="Node000005" class="node">
<title>Node5</title>
<g id="a_Node000005"><a xlink:href="../../d8/dcf/classRemoteDeckList__TreeModel.html#ab6f0885532fc5955d56d4178c19e9bc0" target="_top" xlink:title=" ">
<polygon fill="white" stroke="#666666" points="957,-103.51 805,-103.51 805,-73.51 957,-73.51 957,-103.51"/>
<text text-anchor="start" x="813" y="-91.51" font-family="Helvetica,sans-Serif" font-size="10.00">RemoteDeckList_TreeModel</text>
<text text-anchor="middle" x="881" y="-80.51" font-family="Helvetica,sans-Serif" font-size="10.00">::getNode</text>
</a>
</g>
</g>
<!-- Node4&#45;&gt;Node5 -->
<g id="edge4_Node000004_Node000005" class="edge">
<title>Node4&#45;&gt;Node5</title>
<g id="a_edge4_Node000004_Node000005"><a xlink:title=" ">
<path fill="none" stroke="#63b8ff" d="M758.2,-90.96C771.84,-90.68 786.07,-90.4 799.77,-90.12"/>
<polygon fill="#63b8ff" stroke="#63b8ff" points="804.8,-90.02 799.85,-92.37 802.3,-90.07 799.8,-90.12 799.8,-90.12 799.8,-90.12 802.3,-90.07 799.76,-87.87 804.8,-90.02 804.8,-90.02"/>
</a>
</g>
</g>
<!-- Node6 -->
<g id="Node000006" class="node">
<title>Node6</title>
<g id="a_Node000006"><a xlink:href="../../d8/dcf/classRemoteDeckList__TreeModel.html#a39ee6be8d35592e8b90a874bd6d65503" target="_top" xlink:title=" ">
<polygon fill="white" stroke="#666666" points="1156,-101.51 1004,-101.51 1004,-71.51 1156,-71.51 1156,-101.51"/>
<text text-anchor="start" x="1012" y="-89.51" font-family="Helvetica,sans-Serif" font-size="10.00">RemoteDeckList_TreeModel</text>
<text text-anchor="middle" x="1080" y="-78.51" font-family="Helvetica,sans-Serif" font-size="10.00">::index</text>
</a>
</g>
</g>
<!-- Node5&#45;&gt;Node6 -->
<g id="edge5_Node000005_Node000006" class="edge">
<title>Node5&#45;&gt;Node6</title>
<g id="a_edge5_Node000005_Node000006"><a xlink:title=" ">
<path fill="none" stroke="#63b8ff" d="M957.04,-87.75C970.69,-87.61 984.99,-87.47 998.78,-87.33"/>
<polygon fill="#63b8ff" stroke="#63b8ff" points="1003.84,-87.28 998.87,-89.58 1001.34,-87.3 998.84,-87.33 998.84,-87.33 998.84,-87.33 1001.34,-87.3 998.82,-85.08 1003.84,-87.28 1003.84,-87.28"/>
</a>
</g>
</g>
<!-- Node7 -->
<g id="Node000007" class="node">
<title>Node7</title>
<g id="a_Node000007"><a xlink:href="../../d8/dcf/classRemoteDeckList__TreeModel.html#a9af29f72f87fc4e5eb8df62f130d2fa5" target="_top" xlink:title=" ">
<polygon fill="white" stroke="#666666" points="1344,-230.51 1192,-230.51 1192,-200.51 1344,-200.51 1344,-230.51"/>
<text text-anchor="start" x="1200" y="-218.51" font-family="Helvetica,sans-Serif" font-size="10.00">RemoteDeckList_TreeModel</text>
<text text-anchor="middle" x="1268" y="-207.51" font-family="Helvetica,sans-Serif" font-size="10.00">::parent</text>
</a>
</g>
</g>
<!-- Node6&#45;&gt;Node7 -->
<g id="edge6_Node000006_Node000007" class="edge">
<title>Node6&#45;&gt;Node7</title>
<g id="a_edge6_Node000006_Node000007"><a xlink:title=" ">
<path fill="none" stroke="#63b8ff" d="M1127.87,-101.6C1137.49,-105.53 1147.32,-110.18 1156,-115.51 1193.24,-138.4 1229.55,-174.49 1250.02,-196.48"/>
<polygon fill="#63b8ff" stroke="#63b8ff" points="1253.65,-200.42 1248.6,-198.27 1251.95,-198.58 1250.26,-196.74 1250.26,-196.74 1250.26,-196.74 1251.95,-198.58 1251.91,-195.22 1253.65,-200.42 1253.65,-200.42"/>
</a>
</g>
</g>
<!-- Node7&#45;&gt;Node8 -->
<g id="edge7_Node000007_Node000008" class="edge">
<title>Node7&#45;&gt;Node8</title>
<g id="a_edge7_Node000007_Node000008"><a xlink:title=" ">
<path fill="none" stroke="#63b8ff" d="M1344.23,-215.51C1407.64,-215.51 1498.13,-215.51 1562.88,-215.51"/>
<polygon fill="#63b8ff" stroke="#63b8ff" points="1567.89,-215.51 1562.89,-217.76 1565.39,-215.51 1562.89,-215.51 1562.89,-215.51 1562.89,-215.51 1565.39,-215.51 1562.89,-213.26 1567.89,-215.51 1567.89,-215.51"/>
</a>
</g>
</g>
<!-- Node9 -->
<g id="Node000009" class="node">
<title>Node9</title>
<g id="a_Node000009"><a xlink:href="../../d8/dcf/classRemoteDeckList__TreeModel.html#a3d867313540af51bc8cabb2b34e48274" target="_top" xlink:title=" ">
<polygon fill="white" stroke="#666666" points="1532,-273.51 1380,-273.51 1380,-243.51 1532,-243.51 1532,-273.51"/>
<text text-anchor="start" x="1388" y="-261.51" font-family="Helvetica,sans-Serif" font-size="10.00">RemoteDeckList_TreeModel</text>
<text text-anchor="middle" x="1456" y="-250.51" font-family="Helvetica,sans-Serif" font-size="10.00">::nodeToIndex</text>
</a>
</g>
</g>
<!-- Node7&#45;&gt;Node9 -->
<g id="edge8_Node000007_Node000009" class="edge">
<title>Node7&#45;&gt;Node9</title>
<g id="a_edge8_Node000007_Node000009"><a xlink:title=" ">
<path fill="none" stroke="#63b8ff" d="M1334.05,-230.55C1350.48,-234.35 1368.18,-238.44 1384.85,-242.3"/>
<polygon fill="#63b8ff" stroke="#63b8ff" points="1389.98,-243.48 1384.6,-244.55 1387.55,-242.92 1385.11,-242.36 1385.11,-242.36 1385.11,-242.36 1387.55,-242.92 1385.62,-240.17 1389.98,-243.48 1389.98,-243.48"/>
</a>
</g>
</g>
<!-- Node9&#45;&gt;Node8 -->
<g id="edge9_Node000009_Node000008" class="edge">
<title>Node9&#45;&gt;Node8</title>
<g id="a_edge9_Node000009_Node000008"><a xlink:title=" ">
<path fill="none" stroke="#63b8ff" d="M1522.05,-243.48C1538.48,-239.68 1556.18,-235.59 1572.85,-231.73"/>
<polygon fill="#63b8ff" stroke="#63b8ff" points="1577.98,-230.55 1573.62,-233.86 1575.55,-231.11 1573.11,-231.67 1573.11,-231.67 1573.11,-231.67 1575.55,-231.11 1572.6,-229.48 1577.98,-230.55 1577.98,-230.55"/>
</a>
</g>
</g>
<!-- Node10&#45;&gt;Node7 -->
<g id="edge12_Node000010_Node000007" class="edge">
<title>Node10&#45;&gt;Node7</title>
<g id="a_edge12_Node000010_Node000007"><a xlink:title=" ">
<path fill="none" stroke="#63b8ff" d="M562.68,-40.11C715.19,-28.44 1055.02,-9.49 1156,-62.51 1210.83,-91.31 1245.14,-160.8 1259.39,-195.33"/>
<polygon fill="#63b8ff" stroke="#63b8ff" points="1261.35,-200.16 1257.39,-196.37 1260.41,-197.85 1259.47,-195.53 1259.47,-195.53 1259.47,-195.53 1260.41,-197.85 1261.56,-194.69 1261.35,-200.16 1261.35,-200.16"/>
</a>
</g>
</g>
<!-- Node13 -->
<g id="Node000013" class="node">
<title>Node13</title>
<g id="a_Node000013"><a xlink:href="../../d7/dd0/classRemoteDeckList__TreeWidget.html#aa72ded726f4651e8fa68c62c8b2ccac7" target="_top" xlink:title=" ">
<polygon fill="white" stroke="#666666" points="758,-238.51 601,-238.51 601,-208.51 758,-208.51 758,-238.51"/>
<text text-anchor="start" x="609" y="-226.51" font-family="Helvetica,sans-Serif" font-size="10.00">RemoteDeckList_TreeWidget</text>
<text text-anchor="middle" x="679.5" y="-215.51" font-family="Helvetica,sans-Serif" font-size="10.00">::addFolderToTree</text>
</a>
</g>
</g>
<!-- Node12&#45;&gt;Node13 -->
<g id="edge15_Node000012_Node000013" class="edge">
<title>Node12&#45;&gt;Node13</title>
<g id="a_edge15_Node000012_Node000013"><a xlink:title=" ">
<path fill="none" stroke="#63b8ff" d="M522.98,-157.56C555.57,-171.38 603.86,-191.86 637.96,-206.32"/>
<polygon fill="#63b8ff" stroke="#63b8ff" points="642.89,-208.41 637.41,-208.53 640.59,-207.44 638.29,-206.46 638.29,-206.46 638.29,-206.46 640.59,-207.44 639.16,-204.39 642.89,-208.41 642.89,-208.41"/>
</a>
</g>
</g>
<!-- Node17 -->
<g id="Node000017" class="node">
<title>Node17</title>
<g id="a_Node000017"><a xlink:href="../../d7/dd0/classRemoteDeckList__TreeWidget.html#ada39e9775c84cc7da48f4a6b68fdc4fd" target="_top" xlink:title=" ">
<polygon fill="white" stroke="#666666" points="758,-157.51 601,-157.51 601,-127.51 758,-127.51 758,-157.51"/>
<text text-anchor="start" x="609" y="-145.51" font-family="Helvetica,sans-Serif" font-size="10.00">RemoteDeckList_TreeWidget</text>
<text text-anchor="middle" x="679.5" y="-134.51" font-family="Helvetica,sans-Serif" font-size="10.00">::getNodeByPath</text>
</a>
</g>
</g>
<!-- Node12&#45;&gt;Node17 -->
<g id="edge25_Node000012_Node000017" class="edge">
<title>Node12&#45;&gt;Node17</title>
<g id="a_edge25_Node000012_Node000017"><a xlink:title=" ">
<path fill="none" stroke="#63b8ff" d="M562.71,-142.51C573.58,-142.51 584.81,-142.51 595.81,-142.51"/>
<polygon fill="#63b8ff" stroke="#63b8ff" points="600.84,-142.51 595.84,-144.76 598.34,-142.51 595.84,-142.51 595.84,-142.51 595.84,-142.51 598.34,-142.51 595.84,-140.26 600.84,-142.51 600.84,-142.51"/>
</a>
</g>
</g>
<!-- Node14 -->
<g id="Node000014" class="node">
<title>Node14</title>
<g id="a_Node000014"><a xlink:href="../../d8/dcf/classRemoteDeckList__TreeModel.html#a9acb694a6d69756f292b99294316e492" target="_top" xlink:title=" ">
<polygon fill="white" stroke="#666666" points="957,-268.51 805,-268.51 805,-238.51 957,-238.51 957,-268.51"/>
<text text-anchor="start" x="813" y="-256.51" font-family="Helvetica,sans-Serif" font-size="10.00">RemoteDeckList_TreeModel</text>
<text text-anchor="middle" x="881" y="-245.51" font-family="Helvetica,sans-Serif" font-size="10.00">::addFolderToTree</text>
</a>
</g>
</g>
<!-- Node13&#45;&gt;Node14 -->
<g id="edge16_Node000013_Node000014" class="edge">
<title>Node13&#45;&gt;Node14</title>
<g id="a_edge16_Node000013_Node000014"><a xlink:title=" ">
<path fill="none" stroke="#63b8ff" d="M758.2,-235.2C771.84,-237.25 786.07,-239.39 799.77,-241.45"/>
<polygon fill="#63b8ff" stroke="#63b8ff" points="804.8,-242.21 799.52,-243.69 802.33,-241.83 799.86,-241.46 799.86,-241.46 799.86,-241.46 802.33,-241.83 800.19,-239.24 804.8,-242.21 804.8,-242.21"/>
</a>
</g>
</g>
<!-- Node14&#45;&gt;Node7 -->
<g id="edge24_Node000014_Node000007" class="edge">
<title>Node14&#45;&gt;Node7</title>
<g id="a_edge24_Node000014_Node000007"><a xlink:title=" ">
<path fill="none" stroke="#63b8ff" d="M957.04,-240.83C972.53,-238.49 988.77,-236.25 1004,-234.51 1065.14,-227.56 1134.58,-222.67 1186.75,-219.59"/>
<polygon fill="#63b8ff" stroke="#63b8ff" points="1191.74,-219.3 1186.88,-221.84 1189.25,-219.45 1186.75,-219.59 1186.75,-219.59 1186.75,-219.59 1189.25,-219.45 1186.62,-217.35 1191.74,-219.3 1191.74,-219.3"/>
</a>
</g>
</g>
<!-- Node14&#45;&gt;Node14 -->
<g id="edge20_Node000014_Node000014" class="edge">
<title>Node14&#45;&gt;Node14</title>
<g id="a_edge20_Node000014_Node000014"><a xlink:title=" ">
<path fill="none" stroke="#63b8ff" d="M846.2,-268.79C838.46,-277.92 850.06,-286.51 881,-286.51 906.62,-286.51 918.98,-280.62 918.08,-273.41"/>
<polygon fill="#63b8ff" stroke="#63b8ff" points="915.8,-268.79 920.03,-272.28 916.91,-271.03 918.01,-273.28 918.01,-273.28 918.01,-273.28 916.91,-271.03 915.99,-274.27 915.8,-268.79 915.8,-268.79"/>
</a>
</g>
</g>
<!-- Node15 -->
<g id="Node000015" class="node">
<title>Node15</title>
<g id="a_Node000015"><a xlink:href="../../d8/dcf/classRemoteDeckList__TreeModel.html#a5e2cf74e3c3193fd36019b14b24d6df3" target="_top" xlink:title=" ">
<polygon fill="white" stroke="#666666" points="1156,-321.51 1004,-321.51 1004,-291.51 1156,-291.51 1156,-321.51"/>
<text text-anchor="start" x="1012" y="-309.51" font-family="Helvetica,sans-Serif" font-size="10.00">RemoteDeckList_TreeModel</text>
<text text-anchor="middle" x="1080" y="-298.51" font-family="Helvetica,sans-Serif" font-size="10.00">::addFileToTree</text>
</a>
</g>
</g>
<!-- Node14&#45;&gt;Node15 -->
<g id="edge17_Node000014_Node000015" class="edge">
<title>Node14&#45;&gt;Node15</title>
<g id="a_edge17_Node000014_Node000015"><a xlink:title=" ">
<path fill="none" stroke="#63b8ff" d="M937.93,-268.56C962.88,-275.27 992.35,-283.2 1017.88,-290.07"/>
<polygon fill="#63b8ff" stroke="#63b8ff" points="1022.93,-291.43 1017.52,-292.31 1020.52,-290.78 1018.11,-290.13 1018.11,-290.13 1018.11,-290.13 1020.52,-290.78 1018.69,-287.96 1022.93,-291.43 1022.93,-291.43"/>
</a>
</g>
</g>
<!-- Node16 -->
<g id="Node000016" class="node">
<title>Node16</title>
<g id="a_Node000016"><a xlink:href="../../d8/dcf/classRemoteDeckList__TreeModel.html#a3c0f10ab1290523bfe8ad0a422208ae9" target="_top" xlink:title=" ">
<polygon fill="white" stroke="#666666" points="1156,-273.51 1004,-273.51 1004,-243.51 1156,-243.51 1156,-273.51"/>
<text text-anchor="start" x="1012" y="-261.51" font-family="Helvetica,sans-Serif" font-size="10.00">RemoteDeckList_TreeModel</text>
<text text-anchor="middle" x="1080" y="-250.51" font-family="Helvetica,sans-Serif" font-size="10.00">::addNamedFolderToTree</text>
</a>
</g>
</g>
<!-- Node14&#45;&gt;Node16 -->
<g id="edge21_Node000014_Node000016" class="edge">
<title>Node14&#45;&gt;Node16</title>
<g id="a_edge21_Node000014_Node000016"><a xlink:title=" ">
<path fill="none" stroke="#63b8ff" d="M957.04,-255.42C970.69,-255.77 984.99,-256.13 998.78,-256.48"/>
<polygon fill="#63b8ff" stroke="#63b8ff" points="1003.84,-256.61 998.79,-258.73 1001.34,-256.54 998.84,-256.48 998.84,-256.48 998.84,-256.48 1001.34,-256.54 998.9,-254.23 1003.84,-256.61 1003.84,-256.61"/>
</a>
</g>
</g>
<!-- Node15&#45;&gt;Node7 -->
<g id="edge19_Node000015_Node000007" class="edge">
<title>Node15&#45;&gt;Node7</title>
<g id="a_edge19_Node000015_Node000007"><a xlink:title=" ">
<path fill="none" stroke="#63b8ff" d="M1133.64,-291.4C1141.25,-288.72 1148.91,-285.74 1156,-282.51 1186.55,-268.64 1219.16,-248.21 1241.07,-233.56"/>
<polygon fill="#63b8ff" stroke="#63b8ff" points="1245.3,-230.71 1242.41,-235.37 1243.23,-232.1 1241.15,-233.5 1241.15,-233.5 1241.15,-233.5 1243.23,-232.1 1239.9,-231.63 1245.3,-230.71 1245.3,-230.71"/>
</a>
</g>
</g>
<!-- Node15&#45;&gt;Node9 -->
<g id="edge18_Node000015_Node000009" class="edge">
<title>Node15&#45;&gt;Node9</title>
<g id="a_edge18_Node000015_Node000009"><a xlink:title=" ">
<path fill="none" stroke="#63b8ff" d="M1156.23,-296.86C1219.64,-288.72 1310.13,-277.11 1374.88,-268.8"/>
<polygon fill="#63b8ff" stroke="#63b8ff" points="1379.89,-268.16 1375.21,-271.02 1377.41,-268.47 1374.93,-268.79 1374.93,-268.79 1374.93,-268.79 1377.41,-268.47 1374.64,-266.56 1379.89,-268.16 1379.89,-268.16"/>
</a>
</g>
</g>
<!-- Node16&#45;&gt;Node7 -->
<g id="edge23_Node000016_Node000007" class="edge">
<title>Node16&#45;&gt;Node7</title>
<g id="a_edge23_Node000016_Node000007"><a xlink:title=" ">
<path fill="none" stroke="#63b8ff" d="M1146.05,-243.48C1162.48,-239.68 1180.18,-235.59 1196.85,-231.73"/>
<polygon fill="#63b8ff" stroke="#63b8ff" points="1201.98,-230.55 1197.62,-233.86 1199.55,-231.11 1197.11,-231.67 1197.11,-231.67 1197.11,-231.67 1199.55,-231.11 1196.6,-229.48 1201.98,-230.55 1201.98,-230.55"/>
</a>
</g>
</g>
<!-- Node16&#45;&gt;Node9 -->
<g id="edge22_Node000016_Node000009" class="edge">
<title>Node16&#45;&gt;Node9</title>
<g id="a_edge22_Node000016_Node000009"><a xlink:title=" ">
<path fill="none" stroke="#63b8ff" d="M1156.23,-258.51C1219.64,-258.51 1310.13,-258.51 1374.88,-258.51"/>
<polygon fill="#63b8ff" stroke="#63b8ff" points="1379.89,-258.51 1374.89,-260.76 1377.39,-258.51 1374.89,-258.51 1374.89,-258.51 1374.89,-258.51 1377.39,-258.51 1374.89,-256.26 1379.89,-258.51 1379.89,-258.51"/>
</a>
</g>
</g>
<!-- Node18 -->
<g id="Node000018" class="node">
<title>Node18</title>
<g id="a_Node000018"><a xlink:href="../../dc/d19/classRemoteDeckList__TreeModel_1_1DirectoryNode.html#ade63b2138cd5762bc6ecc1373ef8df26" target="_top" xlink:title=" ">
<polygon fill="white" stroke="#666666" points="968,-154.51 794,-154.51 794,-124.51 968,-124.51 968,-154.51"/>
<text text-anchor="start" x="802" y="-142.51" font-family="Helvetica,sans-Serif" font-size="10.00">RemoteDeckList_TreeModel</text>
<text text-anchor="middle" x="881" y="-131.51" font-family="Helvetica,sans-Serif" font-size="10.00">::DirectoryNode::getNodeByPath</text>
</a>
</g>
</g>
<!-- Node17&#45;&gt;Node18 -->
<g id="edge26_Node000017_Node000018" class="edge">
<title>Node17&#45;&gt;Node18</title>
<g id="a_edge26_Node000017_Node000018"><a xlink:title=" ">
<path fill="none" stroke="#63b8ff" d="M758.2,-141.35C768.26,-141.2 778.64,-141.04 788.89,-140.88"/>
<polygon fill="#63b8ff" stroke="#63b8ff" points="793.91,-140.81 788.95,-143.13 791.41,-140.85 788.91,-140.88 788.91,-140.88 788.91,-140.88 791.41,-140.85 788.88,-138.63 793.91,-140.81 793.91,-140.81"/>
</a>
</g>
</g>
<!-- Node20 -->
<g id="Node000020" class="node">
<title>Node20</title>
<g id="a_Node000020"><a xlink:href="../../d8/dcf/classRemoteDeckList__TreeModel.html#af557f37373569891e4e85558f013c4a6" target="_top" xlink:title=" ">
<polygon fill="white" stroke="#666666" points="957,-220.51 805,-220.51 805,-190.51 957,-190.51 957,-220.51"/>
<text text-anchor="start" x="813" y="-208.51" font-family="Helvetica,sans-Serif" font-size="10.00">RemoteDeckList_TreeModel</text>
<text text-anchor="middle" x="881" y="-197.51" font-family="Helvetica,sans-Serif" font-size="10.00">::getRoot</text>
</a>
</g>
</g>
<!-- Node17&#45;&gt;Node20 -->
<g id="edge30_Node000017_Node000020" class="edge">
<title>Node17&#45;&gt;Node20</title>
<g id="a_edge30_Node000017_Node000020"><a xlink:title=" ">
<path fill="none" stroke="#63b8ff" d="M722.35,-157.55C743.69,-165.06 770.13,-174.09 794,-181.51 802.09,-184.03 810.65,-186.57 819.1,-189"/>
<polygon fill="#63b8ff" stroke="#63b8ff" points="824.34,-190.5 818.92,-191.29 821.94,-189.81 819.54,-189.12 819.54,-189.12 819.54,-189.12 821.94,-189.81 820.16,-186.96 824.34,-190.5 824.34,-190.5"/>
</a>
</g>
</g>
<!-- Node18&#45;&gt;Node7 -->
<g id="edge29_Node000018_Node000007" class="edge">
<title>Node18&#45;&gt;Node7</title>
<g id="a_edge29_Node000018_Node000007"><a xlink:title=" ">
<path fill="none" stroke="#63b8ff" d="M968.02,-131.34C1022.91,-128.79 1094.96,-130.44 1156,-148.51 1189.59,-158.46 1223.36,-181.08 1244.68,-197.28"/>
<polygon fill="#63b8ff" stroke="#63b8ff" points="1248.77,-200.43 1243.44,-199.16 1246.79,-198.9 1244.81,-197.38 1244.81,-197.38 1244.81,-197.38 1246.79,-198.9 1246.18,-195.6 1248.77,-200.43 1248.77,-200.43"/>
</a>
</g>
</g>
<!-- Node18&#45;&gt;Node18 -->
<g id="edge28_Node000018_Node000018" class="edge">
<title>Node18&#45;&gt;Node18</title>
<g id="a_edge28_Node000018_Node000018"><a xlink:title=" ">
<path fill="none" stroke="#63b8ff" d="M846.2,-154.79C838.46,-163.92 850.06,-172.51 881,-172.51 906.62,-172.51 918.98,-166.62 918.08,-159.41"/>
<polygon fill="#63b8ff" stroke="#63b8ff" points="915.8,-154.79 920.03,-158.28 916.91,-157.03 918.01,-159.28 918.01,-159.28 918.01,-159.28 916.91,-157.03 915.99,-160.27 915.8,-154.79 915.8,-154.79"/>
</a>
</g>
</g>
<!-- Node19 -->
<g id="Node000019" class="node">
<title>Node19</title>
<g id="a_Node000019"><a xlink:href="../../da/d72/classRemoteDeckList__TreeModel_1_1Node.html#a3d7ec7b06522a66cdbb2cfa264de766d" target="_top" xlink:title=" ">
<polygon fill="white" stroke="#666666" points="1156,-187.51 1004,-187.51 1004,-157.51 1156,-157.51 1156,-187.51"/>
<text text-anchor="start" x="1012" y="-175.51" font-family="Helvetica,sans-Serif" font-size="10.00">RemoteDeckList_TreeModel</text>
<text text-anchor="middle" x="1080" y="-164.51" font-family="Helvetica,sans-Serif" font-size="10.00">::Node::getName</text>
</a>
</g>
</g>
<!-- Node18&#45;&gt;Node19 -->
<g id="edge27_Node000018_Node000019" class="edge">
<title>Node18&#45;&gt;Node19</title>
<g id="a_edge27_Node000018_Node000019"><a xlink:title=" ">
<path fill="none" stroke="#63b8ff" d="M968.12,-153.94C978.35,-155.66 988.77,-157.4 998.91,-159.1"/>
<polygon fill="#63b8ff" stroke="#63b8ff" points="1003.86,-159.93 998.56,-161.32 1001.4,-159.52 998.93,-159.1 998.93,-159.1 998.93,-159.1 1001.4,-159.52 999.31,-156.88 1003.86,-159.93 1003.86,-159.93"/>
</a>
</g>
</g>
</g>
</svg>
