<?xml version="1.0" encoding="UTF-8" standalone="no"?>
<!DOCTYPE svg PUBLIC "-//W3C//DTD SVG 1.1//EN"
 "http://www.w3.org/Graphics/SVG/1.1/DTD/svg11.dtd">
<!-- Generated by graphviz version 2.43.0 (0)
 -->
<!-- Title: FlowLayout::horizontalSpacing Pages: 1 -->
<!--zoomable 296 -->

<svg id="main" version="1.1" xmlns="http://www.w3.org/2000/svg" xmlns:xlink="http://www.w3.org/1999/xlink" xml:space="preserve" onload="init(evt)">
<style type="text/css"><![CDATA[
.node, .edge {opacity: 0.7;}
.node.selected, .edge.selected {opacity: 1;}
.edge:hover path { stroke: red; }
.edge:hover polygon { stroke: red; fill: red; }
]]></style>

<defs>
  <circle id="rim" cx="0" cy="0" r="7"/>
  <circle id="rim2" cx="0" cy="0" r="3.5"/>
  <g id="zoomPlus">
    <use xlink:href="#rim" fill="#404040"><set attributeName="fill" to="#808080" begin="zoomplus.mouseover" end="zoomplus.mouseout"/></use>
    <path d="M-4,0h8M0,-4v8" fill="none" stroke="white" stroke-width="1.5" pointer-events="none"/>
  </g>
  <g id="zoomMin">
    <use xlink:href="#rim" fill="#404040"><set attributeName="fill" to="#808080" begin="zoomminus.mouseover" end="zoomminus.mouseout"/></use>
    <path d="M-4,0h8" fill="none" stroke="white" stroke-width="1.5" pointer-events="none"/>
  </g>
  <g id="arrowUp" transform="translate(30 24)">
    <use xlink:href="#rim"/>
    <path pointer-events="none" fill="none" stroke="white" stroke-width="1.5" d="M0,-3.0v7 M-2.5,-0.5L0,-3.0L2.5,-0.5"/>
  </g>
  <g id="arrowRight" transform="rotate(90) translate(36 -43)">
    <use xlink:href="#rim"/>
    <path pointer-events="none" fill="none" stroke="white" stroke-width="1.5" d="M0,-3.0v7 M-2.5,-0.5L0,-3.0L2.5,-0.5"/>
  </g>
  <g id="arrowDown" transform="rotate(180) translate(-30 -48)">
    <use xlink:href="#rim"/>
    <path pointer-events="none" fill="none" stroke="white" stroke-width="1.5" d="M0,-3.0v7 M-2.5,-0.5L0,-3.0L2.5,-0.5"/>
  </g>
  <g id="arrowLeft" transform="rotate(270) translate(-36 17)">
    <use xlink:href="#rim"/>
    <path pointer-events="none" fill="none" stroke="white" stroke-width="1.5" d="M0,-3.0v7 M-2.5,-0.5L0,-3.0L2.5,-0.5"/>
  </g>
  <g id="resetDef">
    <use xlink:href="#rim2" fill="#404040"><set attributeName="fill" to="#808080" begin="reset.mouseover" end="reset.mouseout"/></use>
  </g>
</defs>
<script type="application/ecmascript">
var viewWidth = 744;
var viewHeight = 296;
var sectionId = 'dynsection-16';
</script>
<script type="application/ecmascript" xlink:href="../../svg.min.js"/>
<svg id="graph" class="graph">
<g id="viewport">
<title>FlowLayout::horizontalSpacing</title>
<!-- Node1 -->
<g id="Node000001" class="node">
<title>Node1</title>
<g id="a_Node000001"><a xlink:title="Gets the horizontal spacing between items.">
<polygon fill="#999999" stroke="#666666" points="736,-138 570,-138 570,-119 736,-119 736,-138"/>
<text text-anchor="middle" x="653" y="-126" font-family="Helvetica,sans-Serif" font-size="10.00">FlowLayout::horizontalSpacing</text>
</a>
</g>
</g>
<!-- Node2 -->
<g id="Node000002" class="node">
<title>Node2</title>
<g id="a_Node000002"><a xlink:href="../../de/d8b/classFlowLayout.html#a44391114bc7e2cf6ea47a1457306d1a9" target="_top" xlink:title="Calculates the minimum size for horizontal flow direction.">
<polygon fill="white" stroke="#666666" points="534,-287.5 364,-287.5 364,-257.5 534,-257.5 534,-287.5"/>
<text text-anchor="start" x="372" y="-275.5" font-family="Helvetica,sans-Serif" font-size="10.00">FlowLayout::calculateMinimum</text>
<text text-anchor="middle" x="449" y="-264.5" font-family="Helvetica,sans-Serif" font-size="10.00">SizeHorizontal</text>
</a>
</g>
</g>
<!-- Node1&#45;&gt;Node2 -->
<g id="edge1_Node000001_Node000002" class="edge">
<title>Node1&#45;&gt;Node2</title>
<g id="a_edge1_Node000001_Node000002"><a xlink:title=" ">
<path fill="none" stroke="#63b8ff" d="M642.08,-142.6C623.68,-167.69 581.77,-220.12 534,-248.5 528.26,-251.91 522.02,-254.85 515.6,-257.4"/>
<polygon fill="#63b8ff" stroke="#63b8ff" points="645.24,-138.24 644.12,-143.61 643.77,-140.27 642.3,-142.29 642.3,-142.29 642.3,-142.29 643.77,-140.27 640.48,-140.97 645.24,-138.24 645.24,-138.24"/>
</a>
</g>
</g>
<!-- Node4 -->
<g id="Node000004" class="node">
<title>Node4</title>
<g id="a_Node000004"><a xlink:href="../../de/d8b/classFlowLayout.html#af151935256b2d6d735a4233db4e2a3fb" target="_top" xlink:title="Calculates the minimum size for vertical flow direction.">
<polygon fill="white" stroke="#666666" points="534,-239.5 364,-239.5 364,-209.5 534,-209.5 534,-239.5"/>
<text text-anchor="start" x="372" y="-227.5" font-family="Helvetica,sans-Serif" font-size="10.00">FlowLayout::calculateMinimum</text>
<text text-anchor="middle" x="449" y="-216.5" font-family="Helvetica,sans-Serif" font-size="10.00">SizeVertical</text>
</a>
</g>
</g>
<!-- Node1&#45;&gt;Node4 -->
<g id="edge3_Node000001_Node000004" class="edge">
<title>Node1&#45;&gt;Node4</title>
<g id="a_edge3_Node000001_Node000004"><a xlink:title=" ">
<path fill="none" stroke="#63b8ff" d="M634.63,-141.18C612.31,-156.97 571.92,-183.88 534,-200.5 526.5,-203.79 518.42,-206.76 510.35,-209.39"/>
<polygon fill="#63b8ff" stroke="#63b8ff" points="638.85,-138.18 636.08,-142.91 636.81,-139.63 634.77,-141.08 634.77,-141.08 634.77,-141.08 636.81,-139.63 633.47,-139.24 638.85,-138.18 638.85,-138.18"/>
</a>
</g>
</g>
<!-- Node5 -->
<g id="Node000005" class="node">
<title>Node5</title>
<g id="a_Node000005"><a xlink:href="../../de/d8b/classFlowLayout.html#a0b45060dd3b55adee463e376f6f3b05b" target="_top" xlink:title="Calculates the size hint for horizontal flow direction.">
<polygon fill="white" stroke="#666666" points="520.5,-191.5 377.5,-191.5 377.5,-161.5 520.5,-161.5 520.5,-191.5"/>
<text text-anchor="start" x="385.5" y="-179.5" font-family="Helvetica,sans-Serif" font-size="10.00">FlowLayout::calculateSize</text>
<text text-anchor="middle" x="449" y="-168.5" font-family="Helvetica,sans-Serif" font-size="10.00">HintHorizontal</text>
</a>
</g>
</g>
<!-- Node1&#45;&gt;Node5 -->
<g id="edge5_Node000001_Node000005" class="edge">
<title>Node1&#45;&gt;Node5</title>
<g id="a_edge5_Node000001_Node000005"><a xlink:title=" ">
<path fill="none" stroke="#63b8ff" d="M606.57,-139.3C579.08,-145.83 543.61,-154.26 513.39,-161.44"/>
<polygon fill="#63b8ff" stroke="#63b8ff" points="611.61,-138.1 607.26,-141.44 609.18,-138.68 606.74,-139.25 606.74,-139.25 606.74,-139.25 609.18,-138.68 606.22,-137.07 611.61,-138.1 611.61,-138.1"/>
</a>
</g>
</g>
<!-- Node7 -->
<g id="Node000007" class="node">
<title>Node7</title>
<g id="a_Node000007"><a xlink:href="../../de/d8b/classFlowLayout.html#ab4664dbef5b95ff8ea9a2bd4ae6ef861" target="_top" xlink:title="Calculates the size hint for vertical flow direction.">
<polygon fill="white" stroke="#666666" points="520.5,-143.5 377.5,-143.5 377.5,-113.5 520.5,-113.5 520.5,-143.5"/>
<text text-anchor="start" x="385.5" y="-131.5" font-family="Helvetica,sans-Serif" font-size="10.00">FlowLayout::calculateSize</text>
<text text-anchor="middle" x="449" y="-120.5" font-family="Helvetica,sans-Serif" font-size="10.00">HintVertical</text>
</a>
</g>
</g>
<!-- Node1&#45;&gt;Node7 -->
<g id="edge7_Node000001_Node000007" class="edge">
<title>Node1&#45;&gt;Node7</title>
<g id="a_edge7_Node000001_Node000007"><a xlink:title=" ">
<path fill="none" stroke="#63b8ff" d="M564.48,-128.5C549.87,-128.5 534.88,-128.5 520.76,-128.5"/>
<polygon fill="#63b8ff" stroke="#63b8ff" points="569.84,-128.5 564.84,-130.75 567.34,-128.5 564.84,-128.5 564.84,-128.5 564.84,-128.5 567.34,-128.5 564.84,-126.25 569.84,-128.5 569.84,-128.5"/>
</a>
</g>
</g>
<!-- Node8 -->
<g id="Node000008" class="node">
<title>Node8</title>
<g id="a_Node000008"><a xlink:href="../../de/d8b/classFlowLayout.html#a70f090083d687b4a47d1cdcb190f3fce" target="_top" xlink:title="Calculates the required height to display all items within the specified width.">
<polygon fill="white" stroke="#666666" points="525.5,-95 372.5,-95 372.5,-76 525.5,-76 525.5,-95"/>
<text text-anchor="middle" x="449" y="-83" font-family="Helvetica,sans-Serif" font-size="10.00">FlowLayout::heightForWidth</text>
</a>
</g>
</g>
<!-- Node1&#45;&gt;Node8 -->
<g id="edge9_Node000001_Node000008" class="edge">
<title>Node1&#45;&gt;Node8</title>
<g id="a_edge9_Node000001_Node000008"><a xlink:title=" ">
<path fill="none" stroke="#63b8ff" d="M601.98,-117.85C569.1,-110.85 526.45,-101.77 494.71,-95.02"/>
<polygon fill="#63b8ff" stroke="#63b8ff" points="607.17,-118.96 601.81,-120.12 604.72,-118.44 602.28,-117.92 602.28,-117.92 602.28,-117.92 604.72,-118.44 602.75,-115.72 607.17,-118.96 607.17,-118.96"/>
</a>
</g>
</g>
<!-- Node9 -->
<g id="Node000009" class="node">
<title>Node9</title>
<g id="a_Node000009"><a xlink:href="../../de/d8b/classFlowLayout.html#aae1c8ad3c845b0194a7f49185be9c033" target="_top" xlink:title="Lays out items into rows according to the available width, starting from a given origin....">
<polygon fill="white" stroke="#666666" points="328,-38 179,-38 179,-19 328,-19 328,-38"/>
<text text-anchor="middle" x="253.5" y="-26" font-family="Helvetica,sans-Serif" font-size="10.00">FlowLayout::layoutAllRows</text>
</a>
</g>
</g>
<!-- Node1&#45;&gt;Node9 -->
<g id="edge10_Node000001_Node000009" class="edge">
<title>Node1&#45;&gt;Node9</title>
<g id="a_edge10_Node000001_Node000009"><a xlink:title=" ">
<path fill="none" stroke="#63b8ff" d="M633.15,-116.18C610.55,-102.04 571.09,-79.29 534,-67.5 466.18,-45.93 385.34,-36.29 328.09,-31.97"/>
<polygon fill="#63b8ff" stroke="#63b8ff" points="637.43,-118.89 632.01,-118.12 635.32,-117.55 633.21,-116.22 633.21,-116.22 633.21,-116.22 635.32,-117.55 634.41,-114.32 637.43,-118.89 637.43,-118.89"/>
</a>
</g>
</g>
<!-- Node11 -->
<g id="Node000011" class="node">
<title>Node11</title>
<g id="a_Node000011"><a xlink:href="../../de/d8b/classFlowLayout.html#a5a289862ef61d808f4756208cd82eed6" target="_top" xlink:title="Arranges a single row of items within specified x and y starting positions.">
<polygon fill="white" stroke="#666666" points="529.5,-19 368.5,-19 368.5,0 529.5,0 529.5,-19"/>
<text text-anchor="middle" x="449" y="-7" font-family="Helvetica,sans-Serif" font-size="10.00">FlowLayout::layoutSingleRow</text>
</a>
</g>
</g>
<!-- Node1&#45;&gt;Node11 -->
<g id="edge12_Node000001_Node000011" class="edge">
<title>Node1&#45;&gt;Node11</title>
<g id="a_edge12_Node000001_Node000011"><a xlink:title=" ">
<path fill="none" stroke="#63b8ff" d="M639.3,-115.32C618.93,-94.92 576.87,-55.71 534,-33.5 522.15,-27.36 508.52,-22.6 495.74,-19.01"/>
<polygon fill="#63b8ff" stroke="#63b8ff" points="642.85,-118.91 637.73,-116.94 641.09,-117.13 639.33,-115.35 639.33,-115.35 639.33,-115.35 641.09,-117.13 640.93,-113.77 642.85,-118.91 642.85,-118.91"/>
</a>
</g>
</g>
<!-- Node3 -->
<g id="Node000003" class="node">
<title>Node3</title>
<g id="a_Node000003"><a xlink:href="../../de/d8b/classFlowLayout.html#a18816b6e9008a0731af92749975ce63f" target="_top" xlink:title="Calculates the minimum size required by the layout based on the flow direction.">
<polygon fill="white" stroke="#666666" points="326.5,-258 180.5,-258 180.5,-239 326.5,-239 326.5,-258"/>
<text text-anchor="middle" x="253.5" y="-246" font-family="Helvetica,sans-Serif" font-size="10.00">FlowLayout::minimumSize</text>
</a>
</g>
</g>
<!-- Node2&#45;&gt;Node3 -->
<g id="edge2_Node000002_Node000003" class="edge">
<title>Node2&#45;&gt;Node3</title>
<g id="a_edge2_Node000002_Node000003"><a xlink:title=" ">
<path fill="none" stroke="#63b8ff" d="M359,-261.46C348.16,-260.12 337.18,-258.76 326.63,-257.45"/>
<polygon fill="#63b8ff" stroke="#63b8ff" points="363.97,-262.08 358.73,-263.7 361.49,-261.77 359.01,-261.46 359.01,-261.46 359.01,-261.46 361.49,-261.77 359.29,-259.23 363.97,-262.08 363.97,-262.08"/>
</a>
</g>
</g>
<!-- Node4&#45;&gt;Node3 -->
<g id="edge4_Node000004_Node000003" class="edge">
<title>Node4&#45;&gt;Node3</title>
<g id="a_edge4_Node000004_Node000003"><a xlink:title=" ">
<path fill="none" stroke="#63b8ff" d="M359,-235.54C348.16,-236.88 337.18,-238.24 326.63,-239.55"/>
<polygon fill="#63b8ff" stroke="#63b8ff" points="363.97,-234.92 359.29,-237.77 361.49,-235.23 359.01,-235.54 359.01,-235.54 359.01,-235.54 361.49,-235.23 358.73,-233.3 363.97,-234.92 363.97,-234.92"/>
</a>
</g>
</g>
<!-- Node6 -->
<g id="Node000006" class="node">
<title>Node6</title>
<g id="a_Node000006"><a xlink:href="../../de/d8b/classFlowLayout.html#a44acc6a84aaeee36b9d119096f6aa30c" target="_top" xlink:title="Calculates the preferred size of the layout based on the flow direction.">
<polygon fill="white" stroke="#666666" points="313,-162 194,-162 194,-143 313,-143 313,-162"/>
<text text-anchor="middle" x="253.5" y="-150" font-family="Helvetica,sans-Serif" font-size="10.00">FlowLayout::sizeHint</text>
</a>
</g>
</g>
<!-- Node5&#45;&gt;Node6 -->
<g id="edge6_Node000005_Node000006" class="edge">
<title>Node5&#45;&gt;Node6</title>
<g id="a_edge6_Node000005_Node000006"><a xlink:title=" ">
<path fill="none" stroke="#63b8ff" d="M372.36,-167.12C352.72,-164.68 331.86,-162.09 313.23,-159.78"/>
<polygon fill="#63b8ff" stroke="#63b8ff" points="377.32,-167.73 372.08,-169.35 374.84,-167.43 372.36,-167.12 372.36,-167.12 372.36,-167.12 374.84,-167.43 372.64,-164.89 377.32,-167.73 377.32,-167.73"/>
</a>
</g>
</g>
<!-- Node7&#45;&gt;Node6 -->
<g id="edge8_Node000007_Node000006" class="edge">
<title>Node7&#45;&gt;Node6</title>
<g id="a_edge8_Node000007_Node000006"><a xlink:title=" ">
<path fill="none" stroke="#63b8ff" d="M372.36,-137.88C352.72,-140.32 331.86,-142.91 313.23,-145.22"/>
<polygon fill="#63b8ff" stroke="#63b8ff" points="377.32,-137.27 372.64,-140.11 374.84,-137.57 372.36,-137.88 372.36,-137.88 372.36,-137.88 374.84,-137.57 372.08,-135.65 377.32,-137.27 377.32,-137.27"/>
</a>
</g>
</g>
<!-- Node10 -->
<g id="Node000010" class="node">
<title>Node10</title>
<g id="a_Node000010"><a xlink:href="../../de/d8b/classFlowLayout.html#a64fb2f42cfdb3bcabf4d511092d032af" target="_top" xlink:title="Arranges layout items in rows within the specified rectangle bounds.">
<polygon fill="white" stroke="#666666" points="143,-38 0,-38 0,-19 143,-19 143,-38"/>
<text text-anchor="middle" x="71.5" y="-26" font-family="Helvetica,sans-Serif" font-size="10.00">FlowLayout::setGeometry</text>
</a>
</g>
</g>
<!-- Node9&#45;&gt;Node10 -->
<g id="edge11_Node000009_Node000010" class="edge">
<title>Node9&#45;&gt;Node10</title>
<g id="a_edge11_Node000009_Node000010"><a xlink:title=" ">
<path fill="none" stroke="#63b8ff" d="M173.51,-28.5C163.43,-28.5 153.16,-28.5 143.21,-28.5"/>
<polygon fill="#63b8ff" stroke="#63b8ff" points="178.77,-28.5 173.77,-30.75 176.27,-28.5 173.77,-28.5 173.77,-28.5 173.77,-28.5 176.27,-28.5 173.77,-26.25 178.77,-28.5 178.77,-28.5"/>
</a>
</g>
</g>
<!-- Node11&#45;&gt;Node9 -->
<g id="edge13_Node000011_Node000009" class="edge">
<title>Node11&#45;&gt;Node9</title>
<g id="a_edge13_Node000011_Node000009"><a xlink:title=" ">
<path fill="none" stroke="#63b8ff" d="M363.44,-17.8C351.68,-18.96 339.67,-20.14 328.14,-21.27"/>
<polygon fill="#63b8ff" stroke="#63b8ff" points="368.46,-17.31 363.7,-20.04 365.97,-17.55 363.48,-17.8 363.48,-17.8 363.48,-17.8 365.97,-17.55 363.26,-15.56 368.46,-17.31 368.46,-17.31"/>
</a>
</g>
</g>
</g>
</svg>

<g id="navigator" transform="translate(0 0)" fill="#404254">
  <rect fill="#f2f5e9" fill-opacity="0.5" stroke="#606060" stroke-width=".5" x="0" y="0" width="60" height="60"/>
  <use id="zoomplus" xlink:href="#zoomPlus" x="17" y="9" onmousedown="handleZoom(evt,'in')"/>
  <use id="zoomminus" xlink:href="#zoomMin" x="42" y="9" onmousedown="handleZoom(evt,'out')"/>
  <use id="reset" xlink:href="#resetDef" x="30" y="36" onmousedown="handleReset()"/>
   <use id="arrowup" xlink:href="#arrowUp" x="0" y="0" onmousedown="handlePan(0,-1)"/>
  <use id="arrowright" xlink:href="#arrowRight" x="0" y="0" onmousedown="handlePan(1,0)"/>
  <use id="arrowdown" xlink:href="#arrowDown" x="0" y="0" onmousedown="handlePan(0,1)"/>
  <use id="arrowleft" xlink:href="#arrowLeft" x="0" y="0" onmousedown="handlePan(-1,0)"/>
</g>
<svg viewBox="0 0 15 15" width="100%" height="30px" preserveAspectRatio="xMaxYMin meet">
 <g id="arrow_out" transform="scale(0.3 0.3)">
  <a xlink:href="classFlowLayout_a05a9929bf2d7749c8d45afe1fc15b27e_icgraph_org.svg" target="_base">
   <rect id="button" ry="5" rx="5" y="6" x="6" height="38" width="38"
        fill="#f2f5e9" fill-opacity="0.5" stroke="#606060" stroke-width="1.0"/>
   <path id="arrow"
     d="M 11.500037,31.436501 C 11.940474,20.09759 22.043105,11.32322 32.158766,21.979434 L 37.068811,17.246167 C 37.068811,17.246167 37.088388,32 37.088388,32 L 22.160133,31.978069 C 22.160133,31.978069 26.997745,27.140456 26.997745,27.140456 C 18.528582,18.264221 13.291696,25.230495 11.500037,31.436501 z"
     style="fill:#404040;"/>
  </a>
 </g>
</svg>

<style type='text/css'>
<![CDATA[
[data-mouse-over-selected='false'] { opacity: 0.7; }
[data-mouse-over-selected='true']  { opacity: 1.0; }
]]>
</style>
<script type="application/ecmascript"><![CDATA[
document.addEventListener('DOMContentLoaded', (event) => {
  highlightEdges();
  highlightAdjacentNodes();
});
]]></script>
</svg>
