<?xml version="1.0" encoding="UTF-8" standalone="no"?>
<!DOCTYPE svg PUBLIC "-//W3C//DTD SVG 1.1//EN"
 "http://www.w3.org/Graphics/SVG/1.1/DTD/svg11.dtd">
<!-- Generated by graphviz version 2.43.0 (0)
 -->
<!-- Title: FlowLayout::layoutSingleColumn Pages: 1 -->
<svg width="520pt" height="38pt"
 viewBox="0.00 0.00 520.00 38.00" xmlns="http://www.w3.org/2000/svg" xmlns:xlink="http://www.w3.org/1999/xlink">
<g id="graph0" class="graph" transform="scale(1 1) rotate(0) translate(4 34)">
<title>FlowLayout::layoutSingleColumn</title>
<!-- Node1 -->
<g id="Node000001" class="node">
<title>Node1</title>
<g id="a_Node000001"><a xlink:title="Sets the geometry for every item in colItems, starting at (x, y).">
<polygon fill="#999999" stroke="#666666" points="140,-30 0,-30 0,0 140,0 140,-30"/>
<text text-anchor="start" x="8" y="-18" font-family="Helvetica,sans-Serif" font-size="10.00">FlowLayout::layoutSingle</text>
<text text-anchor="middle" x="70" y="-7" font-family="Helvetica,sans-Serif" font-size="10.00">Column</text>
</a>
</g>
</g>
<!-- Node2 -->
<g id="Node000002" class="node">
<title>Node2</title>
<g id="a_Node000002"><a xlink:href="../../de/d8b/classFlowLayout.html#a06210851533f6e9d0d09477968aa0eb5" target="_top" xlink:title="Gets the vertical spacing between items.">
<polygon fill="white" stroke="#666666" points="330,-24.5 176,-24.5 176,-5.5 330,-5.5 330,-24.5"/>
<text text-anchor="middle" x="253" y="-12.5" font-family="Helvetica,sans-Serif" font-size="10.00">FlowLayout::verticalSpacing</text>
</a>
</g>
</g>
<!-- Node1&#45;&gt;Node2 -->
<g id="edge1_Node000001_Node000002" class="edge">
<title>Node1&#45;&gt;Node2</title>
<g id="a_edge1_Node000001_Node000002"><a xlink:title=" ">
<path fill="none" stroke="#63b8ff" d="M140.2,-15C150.24,-15 160.64,-15 170.89,-15"/>
<polygon fill="#63b8ff" stroke="#63b8ff" points="175.9,-15 170.9,-17.25 173.4,-15 170.9,-15 170.9,-15 170.9,-15 173.4,-15 170.9,-12.75 175.9,-15 175.9,-15"/>
</a>
</g>
</g>
<!-- Node3 -->
<g id="Node000003" class="node">
<title>Node3</title>
<g id="a_Node000003"><a xlink:href="../../de/d8b/classFlowLayout.html#aa8c99ccccc834c47f125040205f1aac8" target="_top" xlink:title="Calculates smart spacing based on the parent widget style.">
<polygon fill="white" stroke="#666666" points="512,-24.5 366,-24.5 366,-5.5 512,-5.5 512,-24.5"/>
<text text-anchor="middle" x="439" y="-12.5" font-family="Helvetica,sans-Serif" font-size="10.00">FlowLayout::smartSpacing</text>
</a>
</g>
</g>
<!-- Node2&#45;&gt;Node3 -->
<g id="edge2_Node000002_Node000003" class="edge">
<title>Node2&#45;&gt;Node3</title>
<g id="a_edge2_Node000002_Node000003"><a xlink:title=" ">
<path fill="none" stroke="#63b8ff" d="M330.17,-15C340.19,-15 350.46,-15 360.5,-15"/>
<polygon fill="#63b8ff" stroke="#63b8ff" points="365.73,-15 360.73,-17.25 363.23,-15 360.73,-15 360.73,-15 360.73,-15 363.23,-15 360.73,-12.75 365.73,-15 365.73,-15"/>
</a>
</g>
</g>
</g>
</svg>
