<?xml version="1.0" encoding="UTF-8" standalone="no"?>
<!DOCTYPE svg PUBLIC "-//W3C//DTD SVG 1.1//EN"
 "http://www.w3.org/Graphics/SVG/1.1/DTD/svg11.dtd">
<!-- Generated by graphviz version 2.43.0 (0)
 -->
<!-- Title: FilterTreeNode::preRemoveChild Pages: 1 -->
<svg width="518pt" height="70pt"
 viewBox="0.00 0.00 518.00 69.50" xmlns="http://www.w3.org/2000/svg" xmlns:xlink="http://www.w3.org/1999/xlink">
<g id="graph0" class="graph" transform="scale(1 1) rotate(0) translate(4 65.5)">
<title>FilterTreeNode::preRemoveChild</title>
<!-- Node1 -->
<g id="Node000001" class="node">
<title>Node1</title>
<g id="a_Node000001"><a xlink:title=" ">
<polygon fill="#999999" stroke="#666666" points="149,-43.5 0,-43.5 0,-13.5 149,-13.5 149,-43.5"/>
<text text-anchor="start" x="8" y="-31.5" font-family="Helvetica,sans-Serif" font-size="10.00">FilterTreeNode::preRemove</text>
<text text-anchor="middle" x="74.5" y="-20.5" font-family="Helvetica,sans-Serif" font-size="10.00">Child</text>
</a>
</g>
</g>
<!-- Node1&#45;&gt;Node1 -->
<g id="edge4_Node000001_Node000001" class="edge">
<title>Node1&#45;&gt;Node1</title>
<g id="a_edge4_Node000001_Node000001"><a xlink:title=" ">
<path fill="none" stroke="#63b8ff" d="M44.27,-43.78C37.55,-52.91 47.62,-61.5 74.5,-61.5 96.76,-61.5 107.49,-55.61 106.71,-48.39"/>
<polygon fill="#63b8ff" stroke="#63b8ff" points="104.73,-43.78 108.77,-47.49 105.72,-46.07 106.7,-48.37 106.7,-48.37 106.7,-48.37 105.72,-46.07 104.63,-49.26 104.73,-43.78 104.73,-43.78"/>
</a>
</g>
</g>
<!-- Node2 -->
<g id="Node000002" class="node">
<title>Node2</title>
<g id="a_Node000002"><a xlink:href="../../db/d51/classFilterTreeNode.html#adb7d59dd330324703f4bf27614eb58f8" target="_top" xlink:title=" ">
<polygon fill="white" stroke="#666666" points="510,-38 346,-38 346,-19 510,-19 510,-38"/>
<text text-anchor="middle" x="428" y="-26" font-family="Helvetica,sans-Serif" font-size="10.00">FilterTreeNode::FilterTreeNode</text>
</a>
</g>
</g>
<!-- Node1&#45;&gt;Node2 -->
<g id="edge1_Node000001_Node000002" class="edge">
<title>Node1&#45;&gt;Node2</title>
<g id="a_edge1_Node000001_Node000002"><a xlink:title=" ">
<path fill="none" stroke="#63b8ff" d="M149.19,-28.5C204.98,-28.5 281.77,-28.5 340.48,-28.5"/>
<polygon fill="#63b8ff" stroke="#63b8ff" points="345.74,-28.5 340.74,-30.75 343.24,-28.5 340.74,-28.5 340.74,-28.5 340.74,-28.5 343.24,-28.5 340.74,-26.25 345.74,-28.5 345.74,-28.5"/>
</a>
</g>
</g>
<!-- Node3 -->
<g id="Node000003" class="node">
<title>Node3</title>
<g id="a_Node000003"><a xlink:href="../../db/d51/classFilterTreeNode.html#a4a2b08fee2006fbd9adb2eeac2bae082" target="_top" xlink:title=" ">
<polygon fill="white" stroke="#666666" points="310,-19 185,-19 185,0 310,0 310,-19"/>
<text text-anchor="middle" x="247.5" y="-7" font-family="Helvetica,sans-Serif" font-size="10.00">FilterTreeNode::parent</text>
</a>
</g>
</g>
<!-- Node1&#45;&gt;Node3 -->
<g id="edge2_Node000001_Node000003" class="edge">
<title>Node1&#45;&gt;Node3</title>
<g id="a_edge2_Node000001_Node000003"><a xlink:title=" ">
<path fill="none" stroke="#63b8ff" d="M149.01,-20.33C159.19,-19.2 169.59,-18.05 179.64,-16.93"/>
<polygon fill="#63b8ff" stroke="#63b8ff" points="184.86,-16.35 180.13,-19.14 182.37,-16.63 179.89,-16.9 179.89,-16.9 179.89,-16.9 182.37,-16.63 179.64,-14.67 184.86,-16.35 184.86,-16.35"/>
</a>
</g>
</g>
<!-- Node3&#45;&gt;Node2 -->
<g id="edge3_Node000003_Node000002" class="edge">
<title>Node3&#45;&gt;Node2</title>
<g id="a_edge3_Node000003_Node000002"><a xlink:title=" ">
<path fill="none" stroke="#63b8ff" d="M310.18,-16.07C320.05,-17.12 330.42,-18.22 340.74,-19.32"/>
<polygon fill="#63b8ff" stroke="#63b8ff" points="345.8,-19.86 340.59,-21.56 343.31,-19.59 340.83,-19.33 340.83,-19.33 340.83,-19.33 343.31,-19.59 341.07,-17.09 345.8,-19.86 345.8,-19.86"/>
</a>
</g>
</g>
</g>
</svg>
