<?xml version="1.0" encoding="UTF-8" standalone="no"?>
<!DOCTYPE svg PUBLIC "-//W3C//DTD SVG 1.1//EN"
 "http://www.w3.org/Graphics/SVG/1.1/DTD/svg11.dtd">
<!-- Generated by graphviz version 2.43.0 (0)
 -->
<!-- Title: Server::sendIsl_SessionEvent Pages: 1 -->
<!--zoomable 156 -->

<svg id="main" version="1.1" xmlns="http://www.w3.org/2000/svg" xmlns:xlink="http://www.w3.org/1999/xlink" xml:space="preserve" onload="init(evt)">
<style type="text/css"><![CDATA[
.node, .edge {opacity: 0.7;}
.node.selected, .edge.selected {opacity: 1;}
.edge:hover path { stroke: red; }
.edge:hover polygon { stroke: red; fill: red; }
]]></style>

<defs>
  <circle id="rim" cx="0" cy="0" r="7"/>
  <circle id="rim2" cx="0" cy="0" r="3.5"/>
  <g id="zoomPlus">
    <use xlink:href="#rim" fill="#404040"><set attributeName="fill" to="#808080" begin="zoomplus.mouseover" end="zoomplus.mouseout"/></use>
    <path d="M-4,0h8M0,-4v8" fill="none" stroke="white" stroke-width="1.5" pointer-events="none"/>
  </g>
  <g id="zoomMin">
    <use xlink:href="#rim" fill="#404040"><set attributeName="fill" to="#808080" begin="zoomminus.mouseover" end="zoomminus.mouseout"/></use>
    <path d="M-4,0h8" fill="none" stroke="white" stroke-width="1.5" pointer-events="none"/>
  </g>
  <g id="arrowUp" transform="translate(30 24)">
    <use xlink:href="#rim"/>
    <path pointer-events="none" fill="none" stroke="white" stroke-width="1.5" d="M0,-3.0v7 M-2.5,-0.5L0,-3.0L2.5,-0.5"/>
  </g>
  <g id="arrowRight" transform="rotate(90) translate(36 -43)">
    <use xlink:href="#rim"/>
    <path pointer-events="none" fill="none" stroke="white" stroke-width="1.5" d="M0,-3.0v7 M-2.5,-0.5L0,-3.0L2.5,-0.5"/>
  </g>
  <g id="arrowDown" transform="rotate(180) translate(-30 -48)">
    <use xlink:href="#rim"/>
    <path pointer-events="none" fill="none" stroke="white" stroke-width="1.5" d="M0,-3.0v7 M-2.5,-0.5L0,-3.0L2.5,-0.5"/>
  </g>
  <g id="arrowLeft" transform="rotate(270) translate(-36 17)">
    <use xlink:href="#rim"/>
    <path pointer-events="none" fill="none" stroke="white" stroke-width="1.5" d="M0,-3.0v7 M-2.5,-0.5L0,-3.0L2.5,-0.5"/>
  </g>
  <g id="resetDef">
    <use xlink:href="#rim2" fill="#404040"><set attributeName="fill" to="#808080" begin="reset.mouseover" end="reset.mouseout"/></use>
  </g>
</defs>
<script type="application/ecmascript">
var viewWidth = 1300;
var viewHeight = 156;
var sectionId = 'dynsection-71';
</script>
<script type="application/ecmascript" xlink:href="../../svg.min.js"/>
<svg id="graph" class="graph">
<g id="viewport">
<title>Server::sendIsl_SessionEvent</title>
<!-- Node1 -->
<g id="Node000001" class="node">
<title>Node1</title>
<g id="a_Node000001"><a xlink:title=" ">
<polygon fill="#999999" stroke="#666666" points="1292,-85.5 1133,-85.5 1133,-66.5 1292,-66.5 1292,-85.5"/>
<text text-anchor="middle" x="1212.5" y="-73.5" font-family="Helvetica,sans-Serif" font-size="10.00">Server::sendIsl_SessionEvent</text>
</a>
</g>
</g>
<!-- Node2 -->
<g id="Node000002" class="node">
<title>Node2</title>
<g id="a_Node000002"><a xlink:href="../../db/d00/classServer.html#a38ec4b8035107714c1fe0a0563172af7" target="_top" xlink:title=" ">
<polygon fill="white" stroke="#666666" points="1097,-144.5 931,-144.5 931,-125.5 1097,-125.5 1097,-144.5"/>
<text text-anchor="middle" x="1014" y="-132.5" font-family="Helvetica,sans-Serif" font-size="10.00">Server::broadcastRoomUpdate</text>
</a>
</g>
</g>
<!-- Node1&#45;&gt;Node2 -->
<g id="edge1_Node000001_Node000002" class="edge">
<title>Node1&#45;&gt;Node2</title>
<g id="a_edge1_Node000001_Node000002"><a xlink:title=" ">
<path fill="none" stroke="#63b8ff" d="M1179.63,-87.24C1156.76,-95.14 1125.14,-105.74 1097,-114 1083.32,-118.02 1068.24,-122 1054.77,-125.41"/>
<polygon fill="#63b8ff" stroke="#63b8ff" points="1184.37,-85.6 1180.38,-89.36 1182.01,-86.42 1179.64,-87.23 1179.64,-87.23 1179.64,-87.23 1182.01,-86.42 1178.91,-85.11 1184.37,-85.6 1184.37,-85.6"/>
</a>
</g>
</g>
<!-- Node5 -->
<g id="Node000005" class="node">
<title>Node5</title>
<g id="a_Node000005"><a xlink:href="../../db/d00/classServer.html#a5de08fbf684ccdbeb508b1fe53f38481" target="_top" xlink:title=" ">
<polygon fill="white" stroke="#666666" points="1064.5,-104.5 963.5,-104.5 963.5,-85.5 1064.5,-85.5 1064.5,-104.5"/>
<text text-anchor="middle" x="1014" y="-92.5" font-family="Helvetica,sans-Serif" font-size="10.00">Server::loginUser</text>
</a>
</g>
</g>
<!-- Node1&#45;&gt;Node5 -->
<g id="edge4_Node000001_Node000005" class="edge">
<title>Node1&#45;&gt;Node5</title>
<g id="a_edge4_Node000001_Node000005"><a xlink:title=" ">
<path fill="none" stroke="#63b8ff" d="M1127.83,-84.09C1106.27,-86.18 1083.75,-88.35 1064.56,-90.21"/>
<polygon fill="#63b8ff" stroke="#63b8ff" points="1132.99,-83.59 1128.23,-86.31 1130.5,-83.83 1128.01,-84.07 1128.01,-84.07 1128.01,-84.07 1130.5,-83.83 1127.8,-81.83 1132.99,-83.59 1132.99,-83.59"/>
</a>
</g>
</g>
<!-- Node11 -->
<g id="Node000011" class="node">
<title>Node11</title>
<g id="a_Node000011"><a xlink:href="../../db/d00/classServer.html#a050f2edc18929a84b52aa4dbad4c0764" target="_top" xlink:title=" ">
<polygon fill="white" stroke="#666666" points="1074,-67.5 954,-67.5 954,-48.5 1074,-48.5 1074,-67.5"/>
<text text-anchor="middle" x="1014" y="-55.5" font-family="Helvetica,sans-Serif" font-size="10.00">Server::removeClient</text>
</a>
</g>
</g>
<!-- Node1&#45;&gt;Node11 -->
<g id="edge10_Node000001_Node000011" class="edge">
<title>Node1&#45;&gt;Node11</title>
<g id="a_edge10_Node000001_Node000011"><a xlink:title=" ">
<path fill="none" stroke="#63b8ff" d="M1127.9,-68.34C1109.77,-66.68 1090.96,-64.96 1074.01,-63.41"/>
<polygon fill="#63b8ff" stroke="#63b8ff" points="1132.99,-68.81 1127.81,-70.59 1130.5,-68.58 1128.01,-68.35 1128.01,-68.35 1128.01,-68.35 1130.5,-68.58 1128.22,-66.11 1132.99,-68.81 1132.99,-68.81"/>
</a>
</g>
</g>
<!-- Node15 -->
<g id="Node000015" class="node">
<title>Node15</title>
<g id="a_Node000015"><a xlink:href="../../d8/d6a/classServer__RemoteUserInterface.html#ac3ab96057a7bedfdfdcc7c36d4e3faa3" target="_top" xlink:title=" ">
<polygon fill="white" stroke="#666666" points="1093,-30 935,-30 935,0 1093,0 1093,-30"/>
<text text-anchor="start" x="943" y="-18" font-family="Helvetica,sans-Serif" font-size="10.00">Server_RemoteUserInterface</text>
<text text-anchor="middle" x="1014" y="-7" font-family="Helvetica,sans-Serif" font-size="10.00">::sendProtocolItem</text>
</a>
</g>
</g>
<!-- Node1&#45;&gt;Node15 -->
<g id="edge14_Node000001_Node000015" class="edge">
<title>Node1&#45;&gt;Node15</title>
<g id="a_edge14_Node000001_Node000015"><a xlink:title=" ">
<path fill="none" stroke="#63b8ff" d="M1177.38,-64.7C1154.65,-57.24 1124.1,-47.34 1097,-39 1087.36,-36.03 1077.06,-32.95 1067.12,-30.02"/>
<polygon fill="#63b8ff" stroke="#63b8ff" points="1182.39,-66.35 1176.94,-66.92 1180.02,-65.57 1177.64,-64.79 1177.64,-64.79 1177.64,-64.79 1180.02,-65.57 1178.35,-62.65 1182.39,-66.35 1182.39,-66.35"/>
</a>
</g>
</g>
<!-- Node3 -->
<g id="Node000003" class="node">
<title>Node3</title>
<g id="a_Node000003"><a xlink:href="../../db/d00/classServer.html#a79f1893e316cce06ed224fb767bb14f0" target="_top" xlink:title=" ">
<polygon fill="white" stroke="#666666" points="880,-147.5 779,-147.5 779,-128.5 880,-128.5 880,-147.5"/>
<text text-anchor="middle" x="829.5" y="-135.5" font-family="Helvetica,sans-Serif" font-size="10.00">Server::addRoom</text>
</a>
</g>
</g>
<!-- Node2&#45;&gt;Node3 -->
<g id="edge2_Node000002_Node000003" class="edge">
<title>Node2&#45;&gt;Node3</title>
<g id="a_edge2_Node000002_Node000003"><a xlink:title=" ">
<path fill="none" stroke="#63b8ff" d="M925.54,-136.44C909.93,-136.69 894.17,-136.95 880.09,-137.18"/>
<polygon fill="#63b8ff" stroke="#63b8ff" points="930.83,-136.35 925.86,-138.68 928.33,-136.39 925.83,-136.43 925.83,-136.43 925.83,-136.43 928.33,-136.39 925.79,-134.18 930.83,-136.35 930.83,-136.35"/>
</a>
</g>
</g>
<!-- Node4 -->
<g id="Node000004" class="node">
<title>Node4</title>
<g id="a_Node000004"><a xlink:href="../../d2/d40/classLocalServer.html#ab883e8dd26068c56c42580fa4073c4cc" target="_top" xlink:title=" ">
<polygon fill="white" stroke="#666666" points="699,-147.5 562,-147.5 562,-128.5 699,-128.5 699,-147.5"/>
<text text-anchor="middle" x="630.5" y="-135.5" font-family="Helvetica,sans-Serif" font-size="10.00">LocalServer::LocalServer</text>
</a>
</g>
</g>
<!-- Node3&#45;&gt;Node4 -->
<g id="edge3_Node000003_Node000004" class="edge">
<title>Node3&#45;&gt;Node4</title>
<g id="a_edge3_Node000003_Node000004"><a xlink:title=" ">
<path fill="none" stroke="#63b8ff" d="M773.62,-138C750.5,-138 723.38,-138 699.06,-138"/>
<polygon fill="#63b8ff" stroke="#63b8ff" points="778.79,-138 773.79,-140.25 776.29,-138 773.79,-138 773.79,-138 773.79,-138 776.29,-138 773.79,-135.75 778.79,-138 778.79,-138"/>
</a>
</g>
</g>
<!-- Node6 -->
<g id="Node000006" class="node">
<title>Node6</title>
<g id="a_Node000006"><a xlink:href="../../d0/d23/classServer__ProtocolHandler.html#a89bec8d718f524f9bea8459b2c1c1642" target="_top" xlink:title=" ">
<polygon fill="white" stroke="#666666" points="895,-110 764,-110 764,-80 895,-80 895,-110"/>
<text text-anchor="start" x="772" y="-98" font-family="Helvetica,sans-Serif" font-size="10.00">Server_ProtocolHandler</text>
<text text-anchor="middle" x="829.5" y="-87" font-family="Helvetica,sans-Serif" font-size="10.00">::cmdLogin</text>
</a>
</g>
</g>
<!-- Node5&#45;&gt;Node6 -->
<g id="edge5_Node000005_Node000006" class="edge">
<title>Node5&#45;&gt;Node6</title>
<g id="a_edge5_Node000005_Node000006"><a xlink:title=" ">
<path fill="none" stroke="#63b8ff" d="M957.89,-95C938.09,-95 915.58,-95 895.05,-95"/>
<polygon fill="#63b8ff" stroke="#63b8ff" points="963.13,-95 958.13,-97.25 960.63,-95 958.13,-95 958.13,-95 958.13,-95 960.63,-95 958.13,-92.75 963.13,-95 963.13,-95"/>
</a>
</g>
</g>
<!-- Node7 -->
<g id="Node000007" class="node">
<title>Node7</title>
<g id="a_Node000007"><a xlink:href="../../d0/d23/classServer__ProtocolHandler.html#a68e611b6964cf6d151b078665e397d01" target="_top" xlink:title=" ">
<polygon fill="white" stroke="#666666" points="728,-110 533,-110 533,-80 728,-80 728,-110"/>
<text text-anchor="start" x="541" y="-98" font-family="Helvetica,sans-Serif" font-size="10.00">Server_ProtocolHandler</text>
<text text-anchor="middle" x="630.5" y="-87" font-family="Helvetica,sans-Serif" font-size="10.00">::processSessionCommandContainer</text>
</a>
</g>
</g>
<!-- Node6&#45;&gt;Node7 -->
<g id="edge6_Node000006_Node000007" class="edge">
<title>Node6&#45;&gt;Node7</title>
<g id="a_edge6_Node000006_Node000007"><a xlink:title=" ">
<path fill="none" stroke="#63b8ff" d="M758.85,-95C748.94,-95 738.61,-95 728.3,-95"/>
<polygon fill="#63b8ff" stroke="#63b8ff" points="763.99,-95 758.99,-97.25 761.49,-95 758.99,-95 758.99,-95 758.99,-95 761.49,-95 758.99,-92.75 763.99,-95 763.99,-95"/>
</a>
</g>
</g>
<!-- Node8 -->
<g id="Node000008" class="node">
<title>Node8</title>
<g id="a_Node000008"><a xlink:href="../../d0/d23/classServer__ProtocolHandler.html#a5d3b699ffcf0dcfb4a3f42d180a8a2f7" target="_top" xlink:title=" ">
<polygon fill="white" stroke="#666666" points="497,-110 339,-110 339,-80 497,-80 497,-110"/>
<text text-anchor="start" x="347" y="-98" font-family="Helvetica,sans-Serif" font-size="10.00">Server_ProtocolHandler</text>
<text text-anchor="middle" x="418" y="-87" font-family="Helvetica,sans-Serif" font-size="10.00">::processCommandContainer</text>
</a>
</g>
</g>
<!-- Node7&#45;&gt;Node8 -->
<g id="edge7_Node000007_Node000008" class="edge">
<title>Node7&#45;&gt;Node8</title>
<g id="a_edge7_Node000007_Node000008"><a xlink:title=" ">
<path fill="none" stroke="#63b8ff" d="M527.81,-95C517.47,-95 507.09,-95 497.06,-95"/>
<polygon fill="#63b8ff" stroke="#63b8ff" points="532.88,-95 527.88,-97.25 530.38,-95 527.88,-95 527.88,-95 527.88,-95 530.38,-95 527.88,-92.75 532.88,-95 532.88,-95"/>
</a>
</g>
</g>
<!-- Node9 -->
<g id="Node000009" class="node">
<title>Node9</title>
<g id="a_Node000009"><a xlink:href="../../d0/dc3/classLocalServerInterface.html#a82c6e84346069a3b7506835a6ec58c4a" target="_top" xlink:title=" ">
<polygon fill="white" stroke="#666666" points="303,-110 186,-110 186,-80 303,-80 303,-110"/>
<text text-anchor="start" x="194" y="-98" font-family="Helvetica,sans-Serif" font-size="10.00">LocalServerInterface</text>
<text text-anchor="middle" x="244.5" y="-87" font-family="Helvetica,sans-Serif" font-size="10.00">::itemFromClient</text>
</a>
</g>
</g>
<!-- Node8&#45;&gt;Node9 -->
<g id="edge8_Node000008_Node000009" class="edge">
<title>Node8&#45;&gt;Node9</title>
<g id="a_edge8_Node000008_Node000009"><a xlink:title=" ">
<path fill="none" stroke="#63b8ff" d="M333.7,-95C323.34,-95 312.94,-95 303.09,-95"/>
<polygon fill="#63b8ff" stroke="#63b8ff" points="338.78,-95 333.78,-97.25 336.28,-95 333.78,-95 333.78,-95 333.78,-95 336.28,-95 333.78,-92.75 338.78,-95 338.78,-95"/>
</a>
</g>
</g>
<!-- Node10 -->
<g id="Node000010" class="node">
<title>Node10</title>
<g id="a_Node000010"><a xlink:href="../../df/d75/classLocalClient.html#addefec8fa45b1636777b33c42ac033f5" target="_top" xlink:title=" ">
<polygon fill="white" stroke="#666666" points="150,-110 0,-110 0,-80 150,-80 150,-110"/>
<text text-anchor="start" x="8" y="-98" font-family="Helvetica,sans-Serif" font-size="10.00">LocalClient::sendCommand</text>
<text text-anchor="middle" x="75" y="-87" font-family="Helvetica,sans-Serif" font-size="10.00">Container</text>
</a>
</g>
</g>
<!-- Node9&#45;&gt;Node10 -->
<g id="edge9_Node000009_Node000010" class="edge">
<title>Node9&#45;&gt;Node10</title>
<g id="a_edge9_Node000009_Node000010"><a xlink:title=" ">
<path fill="none" stroke="#63b8ff" d="M180.67,-95C170.67,-95 160.25,-95 150.02,-95"/>
<polygon fill="#63b8ff" stroke="#63b8ff" points="185.86,-95 180.86,-97.25 183.36,-95 180.86,-95 180.86,-95 180.86,-95 183.36,-95 180.86,-92.75 185.86,-95 185.86,-95"/>
</a>
</g>
</g>
<!-- Node12 -->
<g id="Node000012" class="node">
<title>Node12</title>
<g id="a_Node000012"><a xlink:href="../../d0/d23/classServer__ProtocolHandler.html#a0f94276b2db58629559aae863bae8a89" target="_top" xlink:title=" ">
<polygon fill="white" stroke="#666666" points="895,-62 764,-62 764,-32 895,-32 895,-62"/>
<text text-anchor="start" x="772" y="-50" font-family="Helvetica,sans-Serif" font-size="10.00">Server_ProtocolHandler</text>
<text text-anchor="middle" x="829.5" y="-39" font-family="Helvetica,sans-Serif" font-size="10.00">::prepareDestroy</text>
</a>
</g>
</g>
<!-- Node11&#45;&gt;Node12 -->
<g id="edge11_Node000011_Node000012" class="edge">
<title>Node11&#45;&gt;Node12</title>
<g id="a_edge11_Node000011_Node000012"><a xlink:title=" ">
<path fill="none" stroke="#63b8ff" d="M948.68,-54.12C931.36,-53.08 912.63,-51.95 895.29,-50.91"/>
<polygon fill="#63b8ff" stroke="#63b8ff" points="954,-54.44 948.87,-56.39 951.5,-54.29 949.01,-54.14 949.01,-54.14 949.01,-54.14 951.5,-54.29 949.14,-51.9 954,-54.44 954,-54.44"/>
</a>
</g>
</g>
<!-- Node13 -->
<g id="Node000013" class="node">
<title>Node13</title>
<g id="a_Node000013"><a xlink:href="../../d0/d23/classServer__ProtocolHandler.html#a9002341e1339924be576c87433a15856" target="_top" xlink:title=" ">
<polygon fill="white" stroke="#666666" points="696,-62 565,-62 565,-32 696,-32 696,-62"/>
<text text-anchor="start" x="573" y="-50" font-family="Helvetica,sans-Serif" font-size="10.00">Server_ProtocolHandler</text>
<text text-anchor="middle" x="630.5" y="-39" font-family="Helvetica,sans-Serif" font-size="10.00">::pingClockTimeout</text>
</a>
</g>
</g>
<!-- Node12&#45;&gt;Node13 -->
<g id="edge12_Node000012_Node000013" class="edge">
<title>Node12&#45;&gt;Node13</title>
<g id="a_edge12_Node000012_Node000013"><a xlink:title=" ">
<path fill="none" stroke="#63b8ff" d="M758.85,-47C738.44,-47 716.23,-47 696.15,-47"/>
<polygon fill="#63b8ff" stroke="#63b8ff" points="763.99,-47 758.99,-49.25 761.49,-47 758.99,-47 758.99,-47 758.99,-47 761.49,-47 758.99,-44.75 763.99,-47 763.99,-47"/>
</a>
</g>
</g>
<!-- Node14 -->
<g id="Node000014" class="node">
<title>Node14</title>
<g id="a_Node000014"><a xlink:href="../../d0/d23/classServer__ProtocolHandler.html#ada81817845263d57c5c0a8770008531d" target="_top" xlink:title=" ">
<polygon fill="white" stroke="#666666" points="486.5,-62 349.5,-62 349.5,-32 486.5,-32 486.5,-62"/>
<text text-anchor="start" x="357.5" y="-50" font-family="Helvetica,sans-Serif" font-size="10.00">Server_ProtocolHandler</text>
<text text-anchor="middle" x="418" y="-39" font-family="Helvetica,sans-Serif" font-size="10.00">::Server_ProtocolHandler</text>
</a>
</g>
</g>
<!-- Node13&#45;&gt;Node14 -->
<g id="edge13_Node000013_Node000014" class="edge">
<title>Node13&#45;&gt;Node14</title>
<g id="a_edge13_Node000013_Node000014"><a xlink:title=" ">
<path fill="none" stroke="#63b8ff" d="M559.64,-47C536.17,-47 510.05,-47 486.75,-47"/>
<polygon fill="#63b8ff" stroke="#63b8ff" points="564.91,-47 559.91,-49.25 562.41,-47 559.91,-47 559.91,-47 559.91,-47 562.41,-47 559.91,-44.75 564.91,-47 564.91,-47"/>
</a>
</g>
</g>
</g>
</svg>

<g id="navigator" transform="translate(0 0)" fill="#404254">
  <rect fill="#f2f5e9" fill-opacity="0.5" stroke="#606060" stroke-width=".5" x="0" y="0" width="60" height="60"/>
  <use id="zoomplus" xlink:href="#zoomPlus" x="17" y="9" onmousedown="handleZoom(evt,'in')"/>
  <use id="zoomminus" xlink:href="#zoomMin" x="42" y="9" onmousedown="handleZoom(evt,'out')"/>
  <use id="reset" xlink:href="#resetDef" x="30" y="36" onmousedown="handleReset()"/>
   <use id="arrowup" xlink:href="#arrowUp" x="0" y="0" onmousedown="handlePan(0,-1)"/>
  <use id="arrowright" xlink:href="#arrowRight" x="0" y="0" onmousedown="handlePan(1,0)"/>
  <use id="arrowdown" xlink:href="#arrowDown" x="0" y="0" onmousedown="handlePan(0,1)"/>
  <use id="arrowleft" xlink:href="#arrowLeft" x="0" y="0" onmousedown="handlePan(-1,0)"/>
</g>
<svg viewBox="0 0 15 15" width="100%" height="30px" preserveAspectRatio="xMaxYMin meet">
 <g id="arrow_out" transform="scale(0.3 0.3)">
  <a xlink:href="classServer_ac812fb4e53cc5696fdf9bc34f01c02b1_icgraph_org.svg" target="_base">
   <rect id="button" ry="5" rx="5" y="6" x="6" height="38" width="38"
        fill="#f2f5e9" fill-opacity="0.5" stroke="#606060" stroke-width="1.0"/>
   <path id="arrow"
     d="M 11.500037,31.436501 C 11.940474,20.09759 22.043105,11.32322 32.158766,21.979434 L 37.068811,17.246167 C 37.068811,17.246167 37.088388,32 37.088388,32 L 22.160133,31.978069 C 22.160133,31.978069 26.997745,27.140456 26.997745,27.140456 C 18.528582,18.264221 13.291696,25.230495 11.500037,31.436501 z"
     style="fill:#404040;"/>
  </a>
 </g>
</svg>

<style type='text/css'>
<![CDATA[
[data-mouse-over-selected='false'] { opacity: 0.7; }
[data-mouse-over-selected='true']  { opacity: 1.0; }
]]>
</style>
<script type="application/ecmascript"><![CDATA[
document.addEventListener('DOMContentLoaded', (event) => {
  highlightEdges();
  highlightAdjacentNodes();
});
]]></script>
</svg>
