<?xml version="1.0" encoding="UTF-8" standalone="no"?>
<!DOCTYPE svg PUBLIC "-//W3C//DTD SVG 1.1//EN"
 "http://www.w3.org/Graphics/SVG/1.1/DTD/svg11.dtd">
<!-- Generated by graphviz version 2.43.0 (0)
 -->
<!-- Title: Server::setDatabaseInterface Pages: 1 -->
<svg width="346pt" height="76pt"
 viewBox="0.00 0.00 346.00 75.50" xmlns="http://www.w3.org/2000/svg" xmlns:xlink="http://www.w3.org/1999/xlink">
<g id="graph0" class="graph" transform="scale(1 1) rotate(0) translate(4 71.5)">
<title>Server::setDatabaseInterface</title>
<!-- Node1 -->
<g id="Node000001" class="node">
<title>Node1</title>
<g id="a_Node000001"><a xlink:title=" ">
<polygon fill="#999999" stroke="#666666" points="159,-45.5 0,-45.5 0,-26.5 159,-26.5 159,-45.5"/>
<text text-anchor="middle" x="79.5" y="-33.5" font-family="Helvetica,sans-Serif" font-size="10.00">Server::setDatabaseInterface</text>
</a>
</g>
</g>
<!-- Node2 -->
<g id="Node000002" class="node">
<title>Node2</title>
<g id="a_Node000002"><a xlink:href="../../db/d00/classServer.html#ab9d826143e9d3ff1c4a34963c3573f18" target="_top" xlink:title=" ">
<polygon fill="white" stroke="#666666" points="321.5,-67.5 211.5,-67.5 211.5,-48.5 321.5,-48.5 321.5,-67.5"/>
<text text-anchor="middle" x="266.5" y="-55.5" font-family="Helvetica,sans-Serif" font-size="10.00">Server::endSession</text>
</a>
</g>
</g>
<!-- Node1&#45;&gt;Node2 -->
<g id="edge1_Node000001_Node000002" class="edge">
<title>Node1&#45;&gt;Node2</title>
<g id="a_edge1_Node000001_Node000002"><a xlink:title=" ">
<path fill="none" stroke="#63b8ff" d="M159.22,-45.36C175.04,-47.24 191.41,-49.19 206.42,-50.97"/>
<polygon fill="#63b8ff" stroke="#63b8ff" points="211.45,-51.57 206.22,-53.22 208.97,-51.28 206.49,-50.98 206.49,-50.98 206.49,-50.98 208.97,-51.28 206.75,-48.75 211.45,-51.57 211.45,-51.57"/>
</a>
</g>
</g>
<!-- Node3 -->
<g id="Node000003" class="node">
<title>Node3</title>
<g id="a_Node000003"><a xlink:href="../../d2/d12/classServer__DatabaseInterface.html#a22109bbc75ccc18c646a1601ee87b0b6" target="_top" xlink:title=" ">
<polygon fill="white" stroke="#666666" points="338,-30 195,-30 195,0 338,0 338,-30"/>
<text text-anchor="start" x="203" y="-18" font-family="Helvetica,sans-Serif" font-size="10.00">Server_DatabaseInterface</text>
<text text-anchor="middle" x="266.5" y="-7" font-family="Helvetica,sans-Serif" font-size="10.00">::endSession</text>
</a>
</g>
</g>
<!-- Node1&#45;&gt;Node3 -->
<g id="edge2_Node000001_Node000003" class="edge">
<title>Node1&#45;&gt;Node3</title>
<g id="a_edge2_Node000001_Node000003"><a xlink:title=" ">
<path fill="none" stroke="#63b8ff" d="M159.22,-27.06C169.27,-25.92 179.55,-24.76 189.55,-23.62"/>
<polygon fill="#63b8ff" stroke="#63b8ff" points="194.76,-23.03 190.04,-25.83 192.27,-23.31 189.79,-23.59 189.79,-23.59 189.79,-23.59 192.27,-23.31 189.53,-21.36 194.76,-23.03 194.76,-23.03"/>
</a>
</g>
</g>
</g>
</svg>
