<?xml version="1.0" encoding="UTF-8" standalone="no"?>
<!DOCTYPE svg PUBLIC "-//W3C//DTD SVG 1.1//EN"
 "http://www.w3.org/Graphics/SVG/1.1/DTD/svg11.dtd">
<!-- Generated by graphviz version 2.43.0 (0)
 -->
<!-- Title: Server::getRequiredFeatures Pages: 1 -->
<svg width="587pt" height="38pt"
 viewBox="0.00 0.00 587.00 38.00" xmlns="http://www.w3.org/2000/svg" xmlns:xlink="http://www.w3.org/1999/xlink">
<g id="graph0" class="graph" transform="scale(1 1) rotate(0) translate(4 34)">
<title>Server::getRequiredFeatures</title>
<!-- Node1 -->
<g id="Node000001" class="node">
<title>Node1</title>
<g id="a_Node000001"><a xlink:title=" ">
<polygon fill="#999999" stroke="#666666" points="579,-24.5 424,-24.5 424,-5.5 579,-5.5 579,-24.5"/>
<text text-anchor="middle" x="501.5" y="-12.5" font-family="Helvetica,sans-Serif" font-size="10.00">Server::getRequiredFeatures</text>
</a>
</g>
</g>
<!-- Node2 -->
<g id="Node000002" class="node">
<title>Node2</title>
<g id="a_Node000002"><a xlink:href="../../dd/dea/classAbstractServerSocketInterface.html#a99160020a07ee2f5ed72bc2daa1332db" target="_top" xlink:title=" ">
<polygon fill="white" stroke="#666666" points="388,-30 224,-30 224,0 388,0 388,-30"/>
<text text-anchor="start" x="232" y="-18" font-family="Helvetica,sans-Serif" font-size="10.00">AbstractServerSocketInterface</text>
<text text-anchor="middle" x="306" y="-7" font-family="Helvetica,sans-Serif" font-size="10.00">::cmdReloadConfig</text>
</a>
</g>
</g>
<!-- Node1&#45;&gt;Node2 -->
<g id="edge1_Node000001_Node000002" class="edge">
<title>Node1&#45;&gt;Node2</title>
<g id="a_edge1_Node000001_Node000002"><a xlink:title=" ">
<path fill="none" stroke="#63b8ff" d="M418.51,-15C408.44,-15 398.16,-15 388.11,-15"/>
<polygon fill="#63b8ff" stroke="#63b8ff" points="423.75,-15 418.75,-17.25 421.25,-15 418.75,-15 418.75,-15 418.75,-15 421.25,-15 418.75,-12.75 423.75,-15 423.75,-15"/>
</a>
</g>
</g>
<!-- Node3 -->
<g id="Node000003" class="node">
<title>Node3</title>
<g id="a_Node000003"><a xlink:href="../../dd/dea/classAbstractServerSocketInterface.html#a5f9a06042276d7fefc8773529199a253" target="_top" xlink:title=" ">
<polygon fill="white" stroke="#666666" points="188,-30 0,-30 0,0 188,0 188,-30"/>
<text text-anchor="start" x="8" y="-18" font-family="Helvetica,sans-Serif" font-size="10.00">AbstractServerSocketInterface</text>
<text text-anchor="middle" x="94" y="-7" font-family="Helvetica,sans-Serif" font-size="10.00">::processExtendedAdminCommand</text>
</a>
</g>
</g>
<!-- Node2&#45;&gt;Node3 -->
<g id="edge2_Node000002_Node000003" class="edge">
<title>Node2&#45;&gt;Node3</title>
<g id="a_edge2_Node000002_Node000003"><a xlink:title=" ">
<path fill="none" stroke="#63b8ff" d="M218.59,-15C208.57,-15 198.32,-15 188.21,-15"/>
<polygon fill="#63b8ff" stroke="#63b8ff" points="223.81,-15 218.81,-17.25 221.31,-15 218.81,-15 218.81,-15 218.81,-15 221.31,-15 218.81,-12.75 223.81,-15 223.81,-15"/>
</a>
</g>
</g>
</g>
</svg>
