<?xml version="1.0" encoding="UTF-8" standalone="no"?>
<!DOCTYPE svg PUBLIC "-//W3C//DTD SVG 1.1//EN"
 "http://www.w3.org/Graphics/SVG/1.1/DTD/svg11.dtd">
<!-- Generated by graphviz version 2.43.0 (0)
 -->
<!-- Title: AbstractTabDeckEditor::actAnalyzeDeckDeckstats Pages: 1 -->
<!--zoomable 305 -->

<svg id="main" version="1.1" xmlns="http://www.w3.org/2000/svg" xmlns:xlink="http://www.w3.org/1999/xlink" xml:space="preserve" onload="init(evt)">

<style type="text/css"><![CDATA[
.node, .edge {opacity: 0.7;}
.node.selected, .edge.selected {opacity: 1;}
.edge:hover path { stroke: red; }
.edge:hover polygon { stroke: red; fill: red; }
]]></style>

<defs>
  <circle id="rim" cx="0" cy="0" r="7"/>
  <circle id="rim2" cx="0" cy="0" r="3.5"/>
  <g id="zoomPlus">
    <use xlink:href="#rim" fill="#404040"><set attributeName="fill" to="#808080" begin="zoomplus.mouseover" end="zoomplus.mouseout"/></use>
    <path d="M-4,0h8M0,-4v8" fill="none" stroke="white" stroke-width="1.5" pointer-events="none"/>
  </g>
  <g id="zoomMin">
    <use xlink:href="#rim" fill="#404040"><set attributeName="fill" to="#808080" begin="zoomminus.mouseover" end="zoomminus.mouseout"/></use>
    <path d="M-4,0h8" fill="none" stroke="white" stroke-width="1.5" pointer-events="none"/>
  </g>
  <g id="arrowUp" transform="translate(30 24)">
    <use xlink:href="#rim"/>
    <path pointer-events="none" fill="none" stroke="white" stroke-width="1.5" d="M0,-3.0v7 M-2.5,-0.5L0,-3.0L2.5,-0.5"/>
  </g>
  <g id="arrowRight" transform="rotate(90) translate(36 -43)">
    <use xlink:href="#rim"/>
    <path pointer-events="none" fill="none" stroke="white" stroke-width="1.5" d="M0,-3.0v7 M-2.5,-0.5L0,-3.0L2.5,-0.5"/>
  </g>
  <g id="arrowDown" transform="rotate(180) translate(-30 -48)">
    <use xlink:href="#rim"/>
    <path pointer-events="none" fill="none" stroke="white" stroke-width="1.5" d="M0,-3.0v7 M-2.5,-0.5L0,-3.0L2.5,-0.5"/>
  </g>
  <g id="arrowLeft" transform="rotate(270) translate(-36 17)">
    <use xlink:href="#rim"/>
    <path pointer-events="none" fill="none" stroke="white" stroke-width="1.5" d="M0,-3.0v7 M-2.5,-0.5L0,-3.0L2.5,-0.5"/>
  </g>
  <g id="resetDef">
    <use xlink:href="#rim2" fill="#404040"><set attributeName="fill" to="#808080" begin="reset.mouseover" end="reset.mouseout"/></use>
  </g>
</defs>
<script type="application/ecmascript">
var viewWidth = 1240;
var viewHeight = 305;
var sectionId = 'dynsection-4';
</script>
<script type="application/ecmascript" xlink:href="../../svg.min.js"/>
<svg id="graph" class="graph">
<g id="viewport">
<title>AbstractTabDeckEditor::actAnalyzeDeckDeckstats</title>
<!-- Node1 -->
<g id="Node000001" class="node">
<title>Node1</title>
<g id="a_Node000001"><a xlink:title="Analyzes the deck using deckstats.net.">
<polygon fill="#999999" stroke="#666666" points="150,-67.5 0,-67.5 0,-37.5 150,-37.5 150,-67.5"/>
<text text-anchor="start" x="8" y="-55.5" font-family="Helvetica,sans-Serif" font-size="10.00">AbstractTabDeckEditor</text>
<text text-anchor="middle" x="75" y="-44.5" font-family="Helvetica,sans-Serif" font-size="10.00">::actAnalyzeDeckDeckstats</text>
</a>
</g>
</g>
<!-- Node2 -->
<g id="Node000002" class="node">
<title>Node2</title>
<g id="a_Node000002"><a xlink:href="../../da/dcf/classDeckStatsInterface.html#a2cf1bbca11ec66b0b5ad91d855444013" target="_top" xlink:title=" ">
<polygon fill="white" stroke="#666666" points="296,-67.5 186,-67.5 186,-37.5 296,-37.5 296,-67.5"/>
<text text-anchor="start" x="194" y="-55.5" font-family="Helvetica,sans-Serif" font-size="10.00">DeckStatsInterface</text>
<text text-anchor="middle" x="241" y="-44.5" font-family="Helvetica,sans-Serif" font-size="10.00">::analyzeDeck</text>
</a>
</g>
</g>
<!-- Node1&#45;&gt;Node2 -->
<g id="edge1_Node000001_Node000002" class="edge">
<title>Node1&#45;&gt;Node2</title>
<g id="a_edge1_Node000001_Node000002"><a xlink:title=" ">
<path fill="none" stroke="#63b8ff" d="M150.32,-52.5C160.43,-52.5 170.69,-52.5 180.48,-52.5"/>
<polygon fill="#63b8ff" stroke="#63b8ff" points="185.56,-52.5 180.56,-54.75 183.06,-52.5 180.56,-52.5 180.56,-52.5 180.56,-52.5 183.06,-52.5 180.56,-50.25 185.56,-52.5 185.56,-52.5"/>
</a>
</g>
</g>
<!-- Node3 -->
<g id="Node000003" class="node">
<title>Node3</title>
<g id="a_Node000003"><a xlink:href="../../da/dcf/classDeckStatsInterface.html#a15130037870effb6f47ec25d44af5967" target="_top" xlink:title=" ">
<polygon fill="white" stroke="#666666" points="472,-67.5 332,-67.5 332,-37.5 472,-37.5 472,-67.5"/>
<text text-anchor="start" x="340" y="-55.5" font-family="Helvetica,sans-Serif" font-size="10.00">DeckStatsInterface</text>
<text text-anchor="middle" x="402" y="-44.5" font-family="Helvetica,sans-Serif" font-size="10.00">::getAnalyzeRequestData</text>
</a>
</g>
</g>
<!-- Node2&#45;&gt;Node3 -->
<g id="edge2_Node000002_Node000003" class="edge">
<title>Node2&#45;&gt;Node3</title>
<g id="a_edge2_Node000002_Node000003"><a xlink:title=" ">
<path fill="none" stroke="#63b8ff" d="M296.27,-52.5C306.09,-52.5 316.48,-52.5 326.76,-52.5"/>
<polygon fill="#63b8ff" stroke="#63b8ff" points="331.79,-52.5 326.79,-54.75 329.29,-52.5 326.79,-52.5 326.79,-52.5 326.79,-52.5 329.29,-52.5 326.79,-50.25 331.79,-52.5 331.79,-52.5"/>
</a>
</g>
</g>
<!-- Node4 -->
<g id="Node000004" class="node">
<title>Node4</title>
<g id="a_Node000004"><a xlink:href="../../da/dcf/classDeckStatsInterface.html#a81f1c84537f89ddc6723f47277db33d9" target="_top" xlink:title=" ">
<polygon fill="white" stroke="#666666" points="650,-156.5 508,-156.5 508,-126.5 650,-126.5 650,-156.5"/>
<text text-anchor="start" x="516" y="-144.5" font-family="Helvetica,sans-Serif" font-size="10.00">DeckStatsInterface</text>
<text text-anchor="middle" x="579" y="-133.5" font-family="Helvetica,sans-Serif" font-size="10.00">::copyDeckWithoutTokens</text>
</a>
</g>
</g>
<!-- Node3&#45;&gt;Node4 -->
<g id="edge3_Node000003_Node000004" class="edge">
<title>Node3&#45;&gt;Node4</title>
<g id="a_edge3_Node000003_Node000004"><a xlink:title=" ">
<path fill="none" stroke="#63b8ff" d="M432.69,-67.6C463.45,-83.24 511.48,-107.67 543.81,-124.11"/>
<polygon fill="#63b8ff" stroke="#63b8ff" points="548.46,-126.48 542.98,-126.22 546.23,-125.34 544,-124.21 544,-124.21 544,-124.21 546.23,-125.34 545.02,-122.2 548.46,-126.48 548.46,-126.48"/>
</a>
</g>
</g>
<!-- Node14 -->
<g id="Node000014" class="node">
<title>Node14</title>
<g id="a_Node000014"><a xlink:href="../../da/d68/classDeckList.html#a79d884815abdd7b61694bf9657d27c56" target="_top" xlink:title=" ">
<polygon fill="white" stroke="#666666" points="634,-19 524,-19 524,0 634,0 634,-19"/>
<text text-anchor="middle" x="579" y="-7" font-family="Helvetica,sans-Serif" font-size="10.00">DeckList::getName</text>
</a>
</g>
</g>
<!-- Node3&#45;&gt;Node14 -->
<g id="edge14_Node000003_Node000014" class="edge">
<title>Node3&#45;&gt;Node14</title>
<g id="a_edge14_Node000003_Node000014"><a xlink:title=" ">
<path fill="none" stroke="#63b8ff" d="M464.21,-37.46C487.29,-31.79 513.07,-25.45 534.25,-20.25"/>
<polygon fill="#63b8ff" stroke="#63b8ff" points="539.25,-19.02 534.93,-22.4 536.82,-19.62 534.39,-20.22 534.39,-20.22 534.39,-20.22 536.82,-19.62 533.85,-18.03 539.25,-19.02 539.25,-19.02"/>
</a>
</g>
</g>
<!-- Node15 -->
<g id="Node000015" class="node">
<title>Node15</title>
<g id="a_Node000015"><a xlink:href="../../da/d68/classDeckList.html#ab8a20fd18e8bec39bd5148a80fca5248" target="_top" xlink:title=" ">
<polygon fill="white" stroke="#666666" points="643,-67.5 515,-67.5 515,-37.5 643,-37.5 643,-67.5"/>
<text text-anchor="start" x="523" y="-55.5" font-family="Helvetica,sans-Serif" font-size="10.00">DeckList::writeToString</text>
<text text-anchor="middle" x="579" y="-44.5" font-family="Helvetica,sans-Serif" font-size="10.00">_Plain</text>
</a>
</g>
</g>
<!-- Node3&#45;&gt;Node15 -->
<g id="edge15_Node000003_Node000015" class="edge">
<title>Node3&#45;&gt;Node15</title>
<g id="a_edge15_Node000003_Node000015"><a xlink:title=" ">
<path fill="none" stroke="#63b8ff" d="M472.16,-52.5C484.45,-52.5 497.25,-52.5 509.52,-52.5"/>
<polygon fill="#63b8ff" stroke="#63b8ff" points="514.74,-52.5 509.74,-54.75 512.24,-52.5 509.74,-52.5 509.74,-52.5 509.74,-52.5 512.24,-52.5 509.74,-50.25 514.74,-52.5 514.74,-52.5"/>
</a>
</g>
</g>
<!-- Node5 -->
<g id="Node000005" class="node">
<title>Node5</title>
<g id="a_Node000005"><a xlink:href="../../da/d68/classDeckList.html#ae59e29e363c6979ebaac6347d07a09ae" target="_top" xlink:title=" ">
<polygon fill="white" stroke="#666666" points="820.5,-208 715.5,-208 715.5,-189 820.5,-189 820.5,-208"/>
<text text-anchor="middle" x="768" y="-196" font-family="Helvetica,sans-Serif" font-size="10.00">DeckList::addCard</text>
</a>
</g>
</g>
<!-- Node4&#45;&gt;Node5 -->
<g id="edge4_Node000004_Node000005" class="edge">
<title>Node4&#45;&gt;Node5</title>
<g id="a_edge4_Node000004_Node000005"><a xlink:title=" ">
<path fill="none" stroke="#63b8ff" d="M627.71,-156.51C645.93,-162.2 666.91,-168.7 686,-174.5 700.12,-178.79 715.66,-183.42 729.32,-187.45"/>
<polygon fill="#63b8ff" stroke="#63b8ff" points="734.26,-188.91 728.83,-189.65 731.86,-188.2 729.46,-187.49 729.46,-187.49 729.46,-187.49 731.86,-188.2 730.1,-185.34 734.26,-188.91 734.26,-188.91"/>
</a>
</g>
</g>
<!-- Node7 -->
<g id="Node000007" class="node">
<title>Node7</title>
<g id="a_Node000007"><a xlink:href="../../da/d68/classDeckList.html#a6ca4bb25dda768a1733396f89f8277e0" target="_top" xlink:title="Apply a function to every card in the deck tree.">
<polygon fill="white" stroke="#666666" points="1022.5,-106 898.5,-106 898.5,-87 1022.5,-87 1022.5,-106"/>
<text text-anchor="middle" x="960.5" y="-94" font-family="Helvetica,sans-Serif" font-size="10.00">DeckList::forEachCard</text>
</a>
</g>
</g>
<!-- Node4&#45;&gt;Node7 -->
<g id="edge6_Node000004_Node000007" class="edge">
<title>Node4&#45;&gt;Node7</title>
<g id="a_edge6_Node000004_Node000007"><a xlink:title=" ">
<path fill="none" stroke="#63b8ff" d="M650.07,-148.41C704.99,-152.11 783.06,-153.57 850,-140.5 881.41,-134.37 915.25,-119.34 936.87,-108.55"/>
<polygon fill="#63b8ff" stroke="#63b8ff" points="941.55,-106.18 938.11,-110.45 939.32,-107.31 937.09,-108.44 937.09,-108.44 937.09,-108.44 939.32,-107.31 936.08,-106.43 941.55,-106.18 941.55,-106.18"/>
</a>
</g>
</g>
<!-- Node8 -->
<g id="Node000008" class="node">
<title>Node8</title>
<g id="a_Node000008"><a xlink:href="../../d8/dbe/classCardDatabaseQuerier.html#aadf83692b2220aedcfb3e9b36070acb7" target="_top" xlink:title="Retrieves a card by its exact name.">
<polygon fill="white" stroke="#666666" points="829,-94.5 707,-94.5 707,-64.5 829,-64.5 829,-94.5"/>
<text text-anchor="start" x="715" y="-82.5" font-family="Helvetica,sans-Serif" font-size="10.00">CardDatabaseQuerier</text>
<text text-anchor="middle" x="768" y="-71.5" font-family="Helvetica,sans-Serif" font-size="10.00">::getCardInfo</text>
</a>
</g>
</g>
<!-- Node4&#45;&gt;Node8 -->
<g id="edge7_Node000004_Node000008" class="edge">
<title>Node4&#45;&gt;Node8</title>
<g id="a_edge7_Node000004_Node000008"><a xlink:title=" ">
<path fill="none" stroke="#63b8ff" d="M620.34,-126.44C640.05,-119.23 664.17,-110.64 686,-103.5 693.62,-101.01 701.68,-98.49 709.64,-96.06"/>
<polygon fill="#63b8ff" stroke="#63b8ff" points="714.58,-94.56 710.45,-98.17 712.19,-95.29 709.79,-96.01 709.79,-96.01 709.79,-96.01 712.19,-95.29 709.14,-93.86 714.58,-94.56 714.58,-94.56"/>
</a>
</g>
</g>
<!-- Node9 -->
<g id="Node000009" class="node">
<title>Node9</title>
<g id="a_Node000009"><a xlink:href="../../dc/db4/classCardDatabaseManager.html#a7dc153d2d7691d69916d2154a05c5ed1" target="_top" xlink:title="Returns the CardDatabaseQuerier of the singleton database.">
<polygon fill="white" stroke="#666666" points="832,-256.5 704,-256.5 704,-226.5 832,-226.5 832,-256.5"/>
<text text-anchor="start" x="712" y="-244.5" font-family="Helvetica,sans-Serif" font-size="10.00">CardDatabaseManager</text>
<text text-anchor="middle" x="768" y="-233.5" font-family="Helvetica,sans-Serif" font-size="10.00">::query</text>
</a>
</g>
</g>
<!-- Node4&#45;&gt;Node9 -->
<g id="edge8_Node000004_Node000009" class="edge">
<title>Node4&#45;&gt;Node9</title>
<g id="a_edge8_Node000004_Node000009"><a xlink:title=" ">
<path fill="none" stroke="#63b8ff" d="M597.64,-156.66C617.82,-173.34 652.43,-199.97 686,-216.5 692,-219.45 698.42,-222.15 704.92,-224.58"/>
<polygon fill="#63b8ff" stroke="#63b8ff" points="709.9,-226.38 704.43,-226.79 707.55,-225.53 705.2,-224.68 705.2,-224.68 705.2,-224.68 707.55,-225.53 705.97,-222.56 709.9,-226.38 709.9,-226.38"/>
</a>
</g>
</g>
<!-- Node13 -->
<g id="Node000013" class="node">
<title>Node13</title>
<g id="a_Node000013"><a xlink:href="../../d5/d22/classDecklistCardNode.html#a5be01b02fd01036a8fdfc256742c40ba" target="_top" xlink:title=" ">
<polygon fill="white" stroke="#666666" points="850,-132 686,-132 686,-113 850,-113 850,-132"/>
<text text-anchor="middle" x="768" y="-120" font-family="Helvetica,sans-Serif" font-size="10.00">DecklistCardNode::setNumber</text>
</a>
</g>
</g>
<!-- Node4&#45;&gt;Node13 -->
<g id="edge13_Node000004_Node000013" class="edge">
<title>Node4&#45;&gt;Node13</title>
<g id="a_edge13_Node000004_Node000013"><a xlink:title=" ">
<path fill="none" stroke="#63b8ff" d="M650.16,-134.37C660.14,-133.36 670.49,-132.31 680.73,-131.27"/>
<polygon fill="#63b8ff" stroke="#63b8ff" points="685.74,-130.76 681,-133.5 683.26,-131.01 680.77,-131.26 680.77,-131.26 680.77,-131.26 683.26,-131.01 680.54,-129.02 685.74,-130.76 685.74,-130.76"/>
</a>
</g>
</g>
<!-- Node6 -->
<g id="Node000006" class="node">
<title>Node6</title>
<g id="a_Node000006"><a xlink:href="../../da/d68/classDeckList.html#a4854d1f1622e53e8d0261b0536f7c546" target="_top" xlink:title=" ">
<polygon fill="white" stroke="#666666" points="1035,-208 886,-208 886,-189 1035,-189 1035,-208"/>
<text text-anchor="middle" x="960.5" y="-196" font-family="Helvetica,sans-Serif" font-size="10.00">DeckList::refreshDeckHash</text>
</a>
</g>
</g>
<!-- Node5&#45;&gt;Node6 -->
<g id="edge5_Node000005_Node000006" class="edge">
<title>Node5&#45;&gt;Node6</title>
<g id="a_edge5_Node000005_Node000006"><a xlink:title=" ">
<path fill="none" stroke="#63b8ff" d="M820.55,-198.5C839.04,-198.5 860.33,-198.5 880.6,-198.5"/>
<polygon fill="#63b8ff" stroke="#63b8ff" points="885.73,-198.5 880.73,-200.75 883.23,-198.5 880.73,-198.5 880.73,-198.5 880.73,-198.5 883.23,-198.5 880.73,-196.25 885.73,-198.5 885.73,-198.5"/>
</a>
</g>
</g>
<!-- Node10 -->
<g id="Node000010" class="node">
<title>Node10</title>
<g id="a_Node000010"><a xlink:href="../../dc/db4/classCardDatabaseManager.html#ad3973b040eb93df3be6bd2e790c53d59" target="_top" xlink:title="Returns the singleton CardDatabase instance.">
<polygon fill="white" stroke="#666666" points="1024.5,-296.5 896.5,-296.5 896.5,-266.5 1024.5,-266.5 1024.5,-296.5"/>
<text text-anchor="start" x="904.5" y="-284.5" font-family="Helvetica,sans-Serif" font-size="10.00">CardDatabaseManager</text>
<text text-anchor="middle" x="960.5" y="-273.5" font-family="Helvetica,sans-Serif" font-size="10.00">::getInstance</text>
</a>
</g>
</g>
<!-- Node9&#45;&gt;Node10 -->
<g id="edge9_Node000009_Node000010" class="edge">
<title>Node9&#45;&gt;Node10</title>
<g id="a_edge9_Node000009_Node000010"><a xlink:title=" ">
<path fill="none" stroke="#63b8ff" d="M832.17,-254.76C850.98,-258.71 871.68,-263.06 890.82,-267.08"/>
<polygon fill="#63b8ff" stroke="#63b8ff" points="896.18,-268.2 890.82,-269.38 893.73,-267.69 891.28,-267.18 891.28,-267.18 891.28,-267.18 893.73,-267.69 891.75,-264.97 896.18,-268.2 896.18,-268.2"/>
</a>
</g>
</g>
<!-- Node11 -->
<g id="Node000011" class="node">
<title>Node11</title>
<g id="a_Node000011"><a xlink:href="../../d5/d45/classCardDatabase.html#affe0baec75387712dc3a93199b56fc08" target="_top" xlink:title="Returns the querier for performing card lookups.">
<polygon fill="white" stroke="#666666" points="1020,-248 901,-248 901,-229 1020,-229 1020,-248"/>
<text text-anchor="middle" x="960.5" y="-236" font-family="Helvetica,sans-Serif" font-size="10.00">CardDatabase::query</text>
</a>
</g>
</g>
<!-- Node9&#45;&gt;Node11 -->
<g id="edge10_Node000009_Node000011" class="edge">
<title>Node9&#45;&gt;Node11</title>
<g id="a_edge10_Node000009_Node000011"><a xlink:title=" ">
<path fill="none" stroke="#63b8ff" d="M832.17,-240.51C852.54,-240.18 875.12,-239.83 895.55,-239.51"/>
<polygon fill="#63b8ff" stroke="#63b8ff" points="900.69,-239.43 895.73,-241.75 898.19,-239.47 895.69,-239.5 895.69,-239.5 895.69,-239.5 898.19,-239.47 895.65,-237.26 900.69,-239.43 900.69,-239.43"/>
</a>
</g>
</g>
<!-- Node12 -->
<g id="Node000012" class="node">
<title>Node12</title>
<g id="a_Node000012"><a xlink:href="../../d5/d45/classCardDatabase.html#ac86d4003efc8430ad7363557149e0e5a" target="_top" xlink:title=" ">
<polygon fill="white" stroke="#666666" points="1232,-253.5 1071,-253.5 1071,-223.5 1232,-223.5 1232,-253.5"/>
<text text-anchor="start" x="1079" y="-241.5" font-family="Helvetica,sans-Serif" font-size="10.00">CardDatabase::CardDatabase</text>
<text text-anchor="middle" x="1151.5" y="-230.5" font-family="Helvetica,sans-Serif" font-size="10.00">Querier</text>
</a>
</g>
</g>
<!-- Node11&#45;&gt;Node12 -->
<g id="edge11_Node000011_Node000012" class="edge">
<title>Node11&#45;&gt;Node12</title>
<g id="a_edge11_Node000011_Node000012"><a xlink:title=" ">
<path fill="none" stroke="#63b8ff" d="M1020.01,-238.5C1034.42,-238.5 1050.15,-238.5 1065.54,-238.5"/>
<polygon fill="#63b8ff" stroke="#63b8ff" points="1070.74,-238.5 1065.74,-240.75 1068.24,-238.5 1065.74,-238.5 1065.74,-238.5 1065.74,-238.5 1068.24,-238.5 1065.74,-236.25 1070.74,-238.5 1070.74,-238.5"/>
</a>
</g>
</g>
<!-- Node12&#45;&gt;Node12 -->
<g id="edge12_Node000012_Node000012" class="edge">
<title>Node12&#45;&gt;Node12</title>
<g id="a_edge12_Node000012_Node000012"><a xlink:title=" ">
<path fill="none" stroke="#63b8ff" d="M1118.1,-253.78C1110.68,-262.91 1121.81,-271.5 1151.5,-271.5 1176.08,-271.5 1187.95,-265.61 1187.08,-258.39"/>
<polygon fill="#63b8ff" stroke="#63b8ff" points="1184.9,-253.78 1189.07,-257.34 1185.97,-256.04 1187.03,-258.3 1187.03,-258.3 1187.03,-258.3 1185.97,-256.04 1185,-259.26 1184.9,-253.78 1184.9,-253.78"/>
</a>
</g>
</g>
<!-- Node16 -->
<g id="Node000016" class="node">
<title>Node16</title>
<g id="a_Node000016"><a xlink:href="../../da/d68/classDeckList.html#ad2e03d9aa659732905514d8bc4a0f1f9" target="_top" xlink:title=" ">
<polygon fill="white" stroke="#666666" points="835,-46.5 701,-46.5 701,-16.5 835,-16.5 835,-46.5"/>
<text text-anchor="start" x="709" y="-34.5" font-family="Helvetica,sans-Serif" font-size="10.00">DeckList::saveToStream</text>
<text text-anchor="middle" x="768" y="-23.5" font-family="Helvetica,sans-Serif" font-size="10.00">_Plain</text>
</a>
</g>
</g>
<!-- Node15&#45;&gt;Node16 -->
<g id="edge16_Node000015_Node000016" class="edge">
<title>Node15&#45;&gt;Node16</title>
<g id="a_edge16_Node000015_Node000016"><a xlink:title=" ">
<path fill="none" stroke="#63b8ff" d="M643.05,-45.42C659.86,-43.53 678.16,-41.48 695.39,-39.54"/>
<polygon fill="#63b8ff" stroke="#63b8ff" points="700.71,-38.94 695.99,-41.74 698.22,-39.22 695.74,-39.5 695.74,-39.5 695.74,-39.5 698.22,-39.22 695.49,-37.27 700.71,-38.94 700.71,-38.94"/>
</a>
</g>
</g>
<!-- Node16&#45;&gt;Node7 -->
<g id="edge17_Node000016_Node000007" class="edge">
<title>Node16&#45;&gt;Node7</title>
<g id="a_edge17_Node000016_Node000007"><a xlink:title=" ">
<path fill="none" stroke="#63b8ff" d="M821.89,-46.59C831.29,-49.44 840.96,-52.47 850,-55.5 877.56,-64.73 908.54,-76.46 930.5,-85.01"/>
<polygon fill="#63b8ff" stroke="#63b8ff" points="935.32,-86.89 929.84,-87.17 932.99,-85.98 930.66,-85.07 930.66,-85.07 930.66,-85.07 932.99,-85.98 931.48,-82.97 935.32,-86.89 935.32,-86.89"/>
</a>
</g>
</g>
</g>
</svg>

<g id="navigator" transform="translate(0 0)" fill="#404254">
  <rect fill="#f2f5e9" fill-opacity="0.5" stroke="#606060" stroke-width=".5" x="0" y="0" width="60" height="60"/>
  <use id="zoomplus" xlink:href="#zoomPlus" x="17" y="9" onmousedown="handleZoom(evt,'in')"/>
  <use id="zoomminus" xlink:href="#zoomMin" x="42" y="9" onmousedown="handleZoom(evt,'out')"/>
  <use id="reset" xlink:href="#resetDef" x="30" y="36" onmousedown="handleReset()"/>
   <use id="arrowup" xlink:href="#arrowUp" x="0" y="0" onmousedown="handlePan(0,-1)"/>
  <use id="arrowright" xlink:href="#arrowRight" x="0" y="0" onmousedown="handlePan(1,0)"/>
  <use id="arrowdown" xlink:href="#arrowDown" x="0" y="0" onmousedown="handlePan(0,1)"/>
  <use id="arrowleft" xlink:href="#arrowLeft" x="0" y="0" onmousedown="handlePan(-1,0)"/>
</g>
<svg viewBox="0 0 15 15" width="100%" height="30px" preserveAspectRatio="xMaxYMin meet">
 <g id="arrow_out" transform="scale(0.3 0.3)">
  <a xlink:href="classAbstractTabDeckEditor_a8aa41b44203e6f6bd933a59d6332dbe5_cgraph_org.svg" target="_base">
   <rect id="button" ry="5" rx="5" y="6" x="6" height="38" width="38"
        fill="#f2f5e9" fill-opacity="0.5" stroke="#606060" stroke-width="1.0"/>
   <path id="arrow"
     d="M 11.500037,31.436501 C 11.940474,20.09759 22.043105,11.32322 32.158766,21.979434 L 37.068811,17.246167 C 37.068811,17.246167 37.088388,32 37.088388,32 L 22.160133,31.978069 C 22.160133,31.978069 26.997745,27.140456 26.997745,27.140456 C 18.528582,18.264221 13.291696,25.230495 11.500037,31.436501 z"
     style="fill:#404040;"/>
  </a>
 </g>
</svg>

<style type='text/css'>
<![CDATA[
[data-mouse-over-selected='false'] { opacity: 0.7; }
[data-mouse-over-selected='true']  { opacity: 1.0; }
]]>
</style>
<script type="application/ecmascript"><![CDATA[
document.addEventListener('DOMContentLoaded', (event) => {
  highlightEdges();
  highlightAdjacentNodes();
});
]]></script>
</svg>
