<?xml version="1.0" encoding="UTF-8" standalone="no"?>
<!DOCTYPE svg PUBLIC "-//W3C//DTD SVG 1.1//EN"
 "http://www.w3.org/Graphics/SVG/1.1/DTD/svg11.dtd">
<!-- Generated by graphviz version 2.43.0 (0)
 -->
<!-- Title: AbstractTabDeckEditor::confirmOpen Pages: 1 -->
<svg width="895pt" height="324pt"
 viewBox="0.00 0.00 895.00 324.00" xmlns="http://www.w3.org/2000/svg" xmlns:xlink="http://www.w3.org/1999/xlink">
<g id="graph0" class="graph" transform="scale(1 1) rotate(0) translate(4 320)">
<title>AbstractTabDeckEditor::confirmOpen</title>
<!-- Node1 -->
<g id="Node000001" class="node">
<title>Node1</title>
<g id="a_Node000001"><a xlink:title="Confirms deck open action based on settings and modified state.">
<polygon fill="#999999" stroke="#666666" points="127,-94 0,-94 0,-64 127,-64 127,-94"/>
<text text-anchor="start" x="8" y="-82" font-family="Helvetica,sans-Serif" font-size="10.00">AbstractTabDeckEditor</text>
<text text-anchor="middle" x="63.5" y="-71" font-family="Helvetica,sans-Serif" font-size="10.00">::confirmOpen</text>
</a>
</g>
</g>
<!-- Node2 -->
<g id="Node000002" class="node">
<title>Node2</title>
<g id="a_Node000002"><a xlink:href="../../d1/d53/classAbstractTabDeckEditor.html#a2fb4b503822747d142abc340a0567afc" target="_top" xlink:title="Saves the current deck.">
<polygon fill="white" stroke="#666666" points="316,-208 189,-208 189,-178 316,-178 316,-208"/>
<text text-anchor="start" x="197" y="-196" font-family="Helvetica,sans-Serif" font-size="10.00">AbstractTabDeckEditor</text>
<text text-anchor="middle" x="252.5" y="-185" font-family="Helvetica,sans-Serif" font-size="10.00">::actSaveDeck</text>
</a>
</g>
</g>
<!-- Node1&#45;&gt;Node2 -->
<g id="edge1_Node000001_Node000002" class="edge">
<title>Node1&#45;&gt;Node2</title>
<g id="a_edge1_Node000001_Node000002"><a xlink:title=" ">
<path fill="none" stroke="#63b8ff" d="M89.33,-94.14C123.8,-115.15 186,-153.07 222.54,-175.34"/>
<polygon fill="#63b8ff" stroke="#63b8ff" points="226.86,-177.98 221.42,-177.3 224.73,-176.68 222.59,-175.38 222.59,-175.38 222.59,-175.38 224.73,-176.68 223.76,-173.46 226.86,-177.98 226.86,-177.98"/>
</a>
</g>
</g>
<!-- Node6 -->
<g id="Node000006" class="node">
<title>Node6</title>
<g id="a_Node000006"><a xlink:href="../../d5/d88/classSettingsCache.html#adfa7f9f975919981b992db1fca9e4957" target="_top" xlink:title=" ">
<polygon fill="white" stroke="#666666" points="697,-103.5 563,-103.5 563,-84.5 697,-84.5 697,-103.5"/>
<text text-anchor="middle" x="630" y="-91.5" font-family="Helvetica,sans-Serif" font-size="10.00">SettingsCache::instance</text>
</a>
</g>
</g>
<!-- Node1&#45;&gt;Node6 -->
<g id="edge16_Node000001_Node000006" class="edge">
<title>Node1&#45;&gt;Node6</title>
<g id="a_edge16_Node000001_Node000006"><a xlink:title=" ">
<path fill="none" stroke="#63b8ff" d="M127.03,-77.54C138.97,-77.31 151.37,-77.12 163,-77 242.55,-76.19 262.48,-74.65 342,-77 415.61,-79.18 499.71,-84.49 557.75,-88.6"/>
<polygon fill="#63b8ff" stroke="#63b8ff" points="562.93,-88.97 557.79,-90.86 560.44,-88.8 557.95,-88.62 557.95,-88.62 557.95,-88.62 560.44,-88.8 558.11,-86.37 562.93,-88.97 562.93,-88.97"/>
</a>
</g>
</g>
<!-- Node13 -->
<g id="Node000013" class="node">
<title>Node13</title>
<g id="a_Node000013"><a xlink:href="../../d1/d53/classAbstractTabDeckEditor.html#a02a22dd0833c0b5d7ff9aac7416b7af0" target="_top" xlink:title="Creates a save confirmation message box.">
<polygon fill="white" stroke="#666666" points="342,-30 163,-30 163,0 342,0 342,-30"/>
<text text-anchor="start" x="171" y="-18" font-family="Helvetica,sans-Serif" font-size="10.00">AbstractTabDeckEditor</text>
<text text-anchor="middle" x="252.5" y="-7" font-family="Helvetica,sans-Serif" font-size="10.00">::createSaveConfirmationWindow</text>
</a>
</g>
</g>
<!-- Node1&#45;&gt;Node13 -->
<g id="edge15_Node000001_Node000013" class="edge">
<title>Node1&#45;&gt;Node13</title>
<g id="a_edge15_Node000001_Node000013"><a xlink:title=" ">
<path fill="none" stroke="#63b8ff" d="M106.12,-63.96C123.64,-57.69 144.28,-50.39 163,-44 174.89,-39.94 187.71,-35.68 199.81,-31.7"/>
<polygon fill="#63b8ff" stroke="#63b8ff" points="204.58,-30.14 200.53,-33.83 202.2,-30.91 199.83,-31.69 199.83,-31.69 199.83,-31.69 202.2,-30.91 199.13,-29.56 204.58,-30.14 204.58,-30.14"/>
</a>
</g>
</g>
<!-- Node14 -->
<g id="Node000014" class="node">
<title>Node14</title>
<g id="a_Node000014"><a xlink:href="../../d1/d53/classAbstractTabDeckEditor.html#ab259b2375922fa38d3c12524297e784d" target="_top" xlink:title="Returns true if the tab is a blank newly created deck.">
<polygon fill="white" stroke="#666666" points="316,-116 189,-116 189,-86 316,-86 316,-116"/>
<text text-anchor="start" x="197" y="-104" font-family="Helvetica,sans-Serif" font-size="10.00">AbstractTabDeckEditor</text>
<text text-anchor="middle" x="252.5" y="-93" font-family="Helvetica,sans-Serif" font-size="10.00">::isBlankNewDeck</text>
</a>
</g>
</g>
<!-- Node1&#45;&gt;Node14 -->
<g id="edge17_Node000001_Node000014" class="edge">
<title>Node1&#45;&gt;Node14</title>
<g id="a_edge17_Node000001_Node000014"><a xlink:title=" ">
<path fill="none" stroke="#63b8ff" d="M127.03,-86.36C145.18,-88.49 165.08,-90.83 183.54,-93.01"/>
<polygon fill="#63b8ff" stroke="#63b8ff" points="188.71,-93.61 183.48,-95.26 186.23,-93.32 183.75,-93.03 183.75,-93.03 183.75,-93.03 186.23,-93.32 184.01,-90.79 188.71,-93.61 188.71,-93.61"/>
</a>
</g>
</g>
<!-- Node3 -->
<g id="Node000003" class="node">
<title>Node3</title>
<g id="a_Node000003"><a xlink:href="../../d1/d53/classAbstractTabDeckEditor.html#abe3bcc1bb730f063aadb75edae9aa130" target="_top" xlink:title="Saves the current deck under a new name.">
<polygon fill="white" stroke="#666666" points="516,-230 389,-230 389,-200 516,-200 516,-230"/>
<text text-anchor="start" x="397" y="-218" font-family="Helvetica,sans-Serif" font-size="10.00">AbstractTabDeckEditor</text>
<text text-anchor="middle" x="452.5" y="-207" font-family="Helvetica,sans-Serif" font-size="10.00">::actSaveDeckAs</text>
</a>
</g>
</g>
<!-- Node2&#45;&gt;Node3 -->
<g id="edge2_Node000002_Node000003" class="edge">
<title>Node2&#45;&gt;Node3</title>
<g id="a_edge2_Node000002_Node000003"><a xlink:title=" ">
<path fill="none" stroke="#63b8ff" d="M316.15,-199.96C337.65,-202.35 361.81,-205.03 383.7,-207.47"/>
<polygon fill="#63b8ff" stroke="#63b8ff" points="388.92,-208.05 383.7,-209.73 386.43,-207.77 383.95,-207.49 383.95,-207.49 383.95,-207.49 386.43,-207.77 384.2,-205.26 388.92,-208.05 388.92,-208.05"/>
</a>
</g>
</g>
<!-- Node4 -->
<g id="Node000004" class="node">
<title>Node4</title>
<g id="a_Node000004"><a xlink:href="../../d1/d53/classAbstractTabDeckEditor.html#a361af89dbe49e3ef9e00db869ec71bb5" target="_top" xlink:title="Returns the currently active deck.">
<polygon fill="white" stroke="#666666" points="693.5,-187 566.5,-187 566.5,-157 693.5,-157 693.5,-187"/>
<text text-anchor="start" x="574.5" y="-175" font-family="Helvetica,sans-Serif" font-size="10.00">AbstractTabDeckEditor</text>
<text text-anchor="middle" x="630" y="-164" font-family="Helvetica,sans-Serif" font-size="10.00">::getDeckList</text>
</a>
</g>
</g>
<!-- Node2&#45;&gt;Node4 -->
<g id="edge11_Node000002_Node000004" class="edge">
<title>Node2&#45;&gt;Node4</title>
<g id="a_edge11_Node000002_Node000004"><a xlink:title=" ">
<path fill="none" stroke="#63b8ff" d="M316.35,-189.49C384.01,-185.7 491.27,-179.7 560.89,-175.81"/>
<polygon fill="#63b8ff" stroke="#63b8ff" points="566.26,-175.51 561.39,-178.03 563.76,-175.65 561.27,-175.79 561.27,-175.79 561.27,-175.79 563.76,-175.65 561.14,-173.54 566.26,-175.51 566.26,-175.51"/>
</a>
</g>
</g>
<!-- Node8 -->
<g id="Node000008" class="node">
<title>Node8</title>
<g id="a_Node000008"><a xlink:href="../../d1/d53/classAbstractTabDeckEditor.html#a48a6009c99632c86d892f97c1c626875" target="_top" xlink:title="Sets the modified state of the tab.">
<polygon fill="white" stroke="#666666" points="693.5,-273 566.5,-273 566.5,-243 693.5,-243 693.5,-273"/>
<text text-anchor="start" x="574.5" y="-261" font-family="Helvetica,sans-Serif" font-size="10.00">AbstractTabDeckEditor</text>
<text text-anchor="middle" x="630" y="-250" font-family="Helvetica,sans-Serif" font-size="10.00">::setModified</text>
</a>
</g>
</g>
<!-- Node2&#45;&gt;Node8 -->
<g id="edge14_Node000002_Node000008" class="edge">
<title>Node2&#45;&gt;Node8</title>
<g id="a_edge14_Node000002_Node000008"><a xlink:title=" ">
<path fill="none" stroke="#63b8ff" d="M286.56,-208.09C311.22,-218.64 346.03,-232.03 378,-239 439.09,-252.32 510.31,-256.69 561.24,-257.95"/>
<polygon fill="#63b8ff" stroke="#63b8ff" points="566.42,-258.07 561.36,-260.2 563.92,-258.01 561.42,-257.95 561.42,-257.95 561.42,-257.95 563.92,-258.01 561.47,-255.7 566.42,-258.07 566.42,-258.07"/>
</a>
</g>
</g>
<!-- Node11 -->
<g id="Node000011" class="node">
<title>Node11</title>
<g id="a_Node000011"><a xlink:href="../../dd/d81/classTabSupervisor.html#a485fb1129ab1f3207ab8aff431799f8e" target="_top" xlink:title=" ">
<polygon fill="white" stroke="#666666" points="520,-143.5 385,-143.5 385,-124.5 520,-124.5 520,-143.5"/>
<text text-anchor="middle" x="452.5" y="-131.5" font-family="Helvetica,sans-Serif" font-size="10.00">TabSupervisor::getClient</text>
</a>
</g>
</g>
<!-- Node2&#45;&gt;Node11 -->
<g id="edge10_Node000002_Node000011" class="edge">
<title>Node2&#45;&gt;Node11</title>
<g id="a_edge10_Node000002_Node000011"><a xlink:title=" ">
<path fill="none" stroke="#63b8ff" d="M303.98,-177.96C338.45,-167.69 383.36,-154.3 414.53,-145.02"/>
<polygon fill="#63b8ff" stroke="#63b8ff" points="419.41,-143.56 415.26,-147.15 417.01,-144.28 414.62,-144.99 414.62,-144.99 414.62,-144.99 417.01,-144.28 413.97,-142.83 419.41,-143.56 419.41,-143.56"/>
</a>
</g>
</g>
<!-- Node12 -->
<g id="Node000012" class="node">
<title>Node12</title>
<g id="a_Node000012"><a xlink:href="../../d1/d53/classAbstractTabDeckEditor.html#a1dad3c8663363428d1b144e1d0a7c9c0" target="_top" xlink:title="Callback when a remote deck save finishes.">
<polygon fill="white" stroke="#666666" points="527,-316 378,-316 378,-286 527,-286 527,-316"/>
<text text-anchor="start" x="386" y="-304" font-family="Helvetica,sans-Serif" font-size="10.00">AbstractTabDeckEditor</text>
<text text-anchor="middle" x="452.5" y="-293" font-family="Helvetica,sans-Serif" font-size="10.00">::saveDeckRemoteFinished</text>
</a>
</g>
</g>
<!-- Node2&#45;&gt;Node12 -->
<g id="edge12_Node000002_Node000012" class="edge">
<title>Node2&#45;&gt;Node12</title>
<g id="a_edge12_Node000002_Node000012"><a xlink:title=" ">
<path fill="none" stroke="#63b8ff" d="M274.8,-208.28C299.02,-225.23 340.13,-252.73 378,-272 386.36,-276.25 395.49,-280.3 404.39,-283.95"/>
<polygon fill="#63b8ff" stroke="#63b8ff" points="409.3,-285.94 403.82,-286.15 406.98,-285 404.67,-284.06 404.67,-284.06 404.67,-284.06 406.98,-285 405.51,-281.98 409.3,-285.94 409.3,-285.94"/>
</a>
</g>
</g>
<!-- Node3&#45;&gt;Node4 -->
<g id="edge3_Node000003_Node000004" class="edge">
<title>Node3&#45;&gt;Node4</title>
<g id="a_edge3_Node000003_Node000004"><a xlink:title=" ">
<path fill="none" stroke="#63b8ff" d="M514.88,-199.96C530.24,-196.2 546.8,-192.14 562.4,-188.32"/>
<polygon fill="#63b8ff" stroke="#63b8ff" points="567.65,-187.03 563.33,-190.41 565.23,-187.63 562.8,-188.22 562.8,-188.22 562.8,-188.22 565.23,-187.63 562.26,-186.04 567.65,-187.03 567.65,-187.03"/>
</a>
</g>
</g>
<!-- Node3&#45;&gt;Node6 -->
<g id="edge5_Node000003_Node000006" class="edge">
<title>Node3&#45;&gt;Node6</title>
<g id="a_edge5_Node000003_Node000006"><a xlink:title=" ">
<path fill="none" stroke="#63b8ff" d="M475.37,-199.92C510.37,-175.79 578.32,-128.94 610.82,-106.53"/>
<polygon fill="#63b8ff" stroke="#63b8ff" points="614.98,-103.66 612.14,-108.36 612.92,-105.08 610.87,-106.5 610.87,-106.5 610.87,-106.5 612.92,-105.08 609.59,-104.65 614.98,-103.66 614.98,-103.66"/>
</a>
</g>
</g>
<!-- Node7 -->
<g id="Node000007" class="node">
<title>Node7</title>
<g id="a_Node000007"><a xlink:href="../../d5/d88/classSettingsCache.html#ae49cf02215fea76cdfb8d33ea525ca8c" target="_top" xlink:title=" ">
<polygon fill="white" stroke="#666666" points="694,-224.5 566,-224.5 566,-205.5 694,-205.5 694,-224.5"/>
<text text-anchor="middle" x="630" y="-212.5" font-family="Helvetica,sans-Serif" font-size="10.00">SettingsCache::recents</text>
</a>
</g>
</g>
<!-- Node3&#45;&gt;Node7 -->
<g id="edge6_Node000003_Node000007" class="edge">
<title>Node3&#45;&gt;Node7</title>
<g id="a_edge6_Node000003_Node000007"><a xlink:title=" ">
<path fill="none" stroke="#63b8ff" d="M516.36,-215C530.73,-215 546.07,-215 560.65,-215"/>
<polygon fill="#63b8ff" stroke="#63b8ff" points="565.99,-215 560.99,-217.25 563.49,-215 560.99,-215 560.99,-215 560.99,-215 563.49,-215 560.99,-212.75 565.99,-215 565.99,-215"/>
</a>
</g>
</g>
<!-- Node3&#45;&gt;Node8 -->
<g id="edge7_Node000003_Node000008" class="edge">
<title>Node3&#45;&gt;Node8</title>
<g id="a_edge7_Node000003_Node000008"><a xlink:title=" ">
<path fill="none" stroke="#63b8ff" d="M514.88,-230.04C530.24,-233.8 546.8,-237.86 562.4,-241.68"/>
<polygon fill="#63b8ff" stroke="#63b8ff" points="567.65,-242.97 562.26,-243.96 565.23,-242.37 562.8,-241.78 562.8,-241.78 562.8,-241.78 565.23,-242.37 563.33,-239.59 567.65,-242.97 567.65,-242.97"/>
</a>
</g>
</g>
<!-- Node5 -->
<g id="Node000005" class="node">
<title>Node5</title>
<g id="a_Node000005"><a xlink:href="../../d9/df7/classDeckEditorDeckDockWidget.html#a4ea662ecce406d0c9e2bdeae737a0e6f" target="_top" xlink:title=" ">
<polygon fill="white" stroke="#666666" points="887,-187 733,-187 733,-157 887,-157 887,-187"/>
<text text-anchor="start" x="741" y="-175" font-family="Helvetica,sans-Serif" font-size="10.00">DeckEditorDeckDockWidget</text>
<text text-anchor="middle" x="810" y="-164" font-family="Helvetica,sans-Serif" font-size="10.00">::getDeckList</text>
</a>
</g>
</g>
<!-- Node4&#45;&gt;Node5 -->
<g id="edge4_Node000004_Node000005" class="edge">
<title>Node4&#45;&gt;Node5</title>
<g id="a_edge4_Node000004_Node000005"><a xlink:title=" ">
<path fill="none" stroke="#63b8ff" d="M693.51,-172C704.54,-172 716.17,-172 727.63,-172"/>
<polygon fill="#63b8ff" stroke="#63b8ff" points="732.88,-172 727.88,-174.25 730.38,-172 727.88,-172 727.88,-172 727.88,-172 730.38,-172 727.88,-169.75 732.88,-172 732.88,-172"/>
</a>
</g>
</g>
<!-- Node9 -->
<g id="Node000009" class="node">
<title>Node9</title>
<g id="a_Node000009"><a xlink:href="../../d1/d53/classAbstractTabDeckEditor.html#a113dd4dda838bccf9e50448e0377c237" target="_top" xlink:title="Returns the display text for the tab.">
<polygon fill="white" stroke="#666666" points="873.5,-254 746.5,-254 746.5,-224 873.5,-224 873.5,-254"/>
<text text-anchor="start" x="754.5" y="-242" font-family="Helvetica,sans-Serif" font-size="10.00">AbstractTabDeckEditor</text>
<text text-anchor="middle" x="810" y="-231" font-family="Helvetica,sans-Serif" font-size="10.00">::getTabText</text>
</a>
</g>
</g>
<!-- Node8&#45;&gt;Node9 -->
<g id="edge8_Node000008_Node000009" class="edge">
<title>Node8&#45;&gt;Node9</title>
<g id="a_edge8_Node000008_Node000009"><a xlink:title=" ">
<path fill="none" stroke="#63b8ff" d="M693.51,-251.33C708.9,-249.69 725.45,-247.92 741.08,-246.25"/>
<polygon fill="#63b8ff" stroke="#63b8ff" points="746.34,-245.69 741.61,-248.46 743.86,-245.95 741.37,-246.22 741.37,-246.22 741.37,-246.22 743.86,-245.95 741.13,-243.98 746.34,-245.69 746.34,-245.69"/>
</a>
</g>
</g>
<!-- Node10 -->
<g id="Node000010" class="node">
<title>Node10</title>
<g id="a_Node000010"><a xlink:href="../../de/d9c/classTab.html#a409c727ef0d8c34fd96c01cc0bdf786f" target="_top" xlink:title=" ">
<polygon fill="white" stroke="#666666" points="869,-291.5 751,-291.5 751,-272.5 869,-272.5 869,-291.5"/>
<text text-anchor="middle" x="810" y="-279.5" font-family="Helvetica,sans-Serif" font-size="10.00">Tab::tabTextChanged</text>
</a>
</g>
</g>
<!-- Node8&#45;&gt;Node10 -->
<g id="edge9_Node000008_Node000010" class="edge">
<title>Node8&#45;&gt;Node10</title>
<g id="a_edge9_Node000008_Node000010"><a xlink:title=" ">
<path fill="none" stroke="#63b8ff" d="M693.51,-266.43C710.39,-268.7 728.68,-271.17 745.61,-273.45"/>
<polygon fill="#63b8ff" stroke="#63b8ff" points="750.82,-274.16 745.56,-275.72 748.34,-273.82 745.86,-273.49 745.86,-273.49 745.86,-273.49 748.34,-273.82 746.16,-271.26 750.82,-274.16 750.82,-274.16"/>
</a>
</g>
</g>
<!-- Node12&#45;&gt;Node8 -->
<g id="edge13_Node000012_Node000008" class="edge">
<title>Node12&#45;&gt;Node8</title>
<g id="a_edge13_Node000012_Node000008"><a xlink:title=" ">
<path fill="none" stroke="#63b8ff" d="M514.88,-285.96C530.24,-282.2 546.8,-278.14 562.4,-274.32"/>
<polygon fill="#63b8ff" stroke="#63b8ff" points="567.65,-273.03 563.33,-276.41 565.23,-273.63 562.8,-274.22 562.8,-274.22 562.8,-274.22 565.23,-273.63 562.26,-272.04 567.65,-273.03 567.65,-273.03"/>
</a>
</g>
</g>
<!-- Node14&#45;&gt;Node4 -->
<g id="edge18_Node000014_Node000004" class="edge">
<title>Node14&#45;&gt;Node4</title>
<g id="a_edge18_Node000014_Node000004"><a xlink:title=" ">
<path fill="none" stroke="#63b8ff" d="M316.2,-96.22C372.51,-93.8 456.87,-94.81 527,-115 555.45,-123.19 584.62,-140.57 604.44,-154"/>
<polygon fill="#63b8ff" stroke="#63b8ff" points="608.77,-156.97 603.37,-156 606.71,-155.56 604.64,-154.14 604.64,-154.14 604.64,-154.14 606.71,-155.56 605.92,-152.29 608.77,-156.97 608.77,-156.97"/>
</a>
</g>
</g>
</g>
</svg>
