<?xml version="1.0" encoding="UTF-8" standalone="no"?>
<!DOCTYPE svg PUBLIC "-//W3C//DTD SVG 1.1//EN"
 "http://www.w3.org/Graphics/SVG/1.1/DTD/svg11.dtd">
<!-- Generated by graphviz version 2.43.0 (0)
 -->
<!-- Title: AbstractTabDeckEditor::addCardHelper Pages: 1 -->
<!--zoomable 199 -->

<svg id="main" version="1.1" xmlns="http://www.w3.org/2000/svg" xmlns:xlink="http://www.w3.org/1999/xlink" xml:space="preserve" onload="init(evt)">

<style type="text/css"><![CDATA[
.node, .edge {opacity: 0.7;}
.node.selected, .edge.selected {opacity: 1;}
.edge:hover path { stroke: red; }
.edge:hover polygon { stroke: red; fill: red; }
]]></style>

<defs>
  <circle id="rim" cx="0" cy="0" r="7"/>
  <circle id="rim2" cx="0" cy="0" r="3.5"/>
  <g id="zoomPlus">
    <use xlink:href="#rim" fill="#404040"><set attributeName="fill" to="#808080" begin="zoomplus.mouseover" end="zoomplus.mouseout"/></use>
    <path d="M-4,0h8M0,-4v8" fill="none" stroke="white" stroke-width="1.5" pointer-events="none"/>
  </g>
  <g id="zoomMin">
    <use xlink:href="#rim" fill="#404040"><set attributeName="fill" to="#808080" begin="zoomminus.mouseover" end="zoomminus.mouseout"/></use>
    <path d="M-4,0h8" fill="none" stroke="white" stroke-width="1.5" pointer-events="none"/>
  </g>
  <g id="arrowUp" transform="translate(30 24)">
    <use xlink:href="#rim"/>
    <path pointer-events="none" fill="none" stroke="white" stroke-width="1.5" d="M0,-3.0v7 M-2.5,-0.5L0,-3.0L2.5,-0.5"/>
  </g>
  <g id="arrowRight" transform="rotate(90) translate(36 -43)">
    <use xlink:href="#rim"/>
    <path pointer-events="none" fill="none" stroke="white" stroke-width="1.5" d="M0,-3.0v7 M-2.5,-0.5L0,-3.0L2.5,-0.5"/>
  </g>
  <g id="arrowDown" transform="rotate(180) translate(-30 -48)">
    <use xlink:href="#rim"/>
    <path pointer-events="none" fill="none" stroke="white" stroke-width="1.5" d="M0,-3.0v7 M-2.5,-0.5L0,-3.0L2.5,-0.5"/>
  </g>
  <g id="arrowLeft" transform="rotate(270) translate(-36 17)">
    <use xlink:href="#rim"/>
    <path pointer-events="none" fill="none" stroke="white" stroke-width="1.5" d="M0,-3.0v7 M-2.5,-0.5L0,-3.0L2.5,-0.5"/>
  </g>
  <g id="resetDef">
    <use xlink:href="#rim2" fill="#404040"><set attributeName="fill" to="#808080" begin="reset.mouseover" end="reset.mouseout"/></use>
  </g>
</defs>
<script type="application/ecmascript">
var viewWidth = 1077;
var viewHeight = 199;
var sectionId = 'dynsection-43';
</script>
<script type="application/ecmascript" xlink:href="../../svg.min.js"/>
<svg id="graph" class="graph">
<g id="viewport">
<title>AbstractTabDeckEditor::addCardHelper</title>
<!-- Node1 -->
<g id="Node000001" class="node">
<title>Node1</title>
<g id="a_Node000001"><a xlink:title="Helper function to add a card to a specific deck zone.">
<polygon fill="#999999" stroke="#666666" points="1069,-101.5 942,-101.5 942,-71.5 1069,-71.5 1069,-101.5"/>
<text text-anchor="start" x="950" y="-89.5" font-family="Helvetica,sans-Serif" font-size="10.00">AbstractTabDeckEditor</text>
<text text-anchor="middle" x="1005.5" y="-78.5" font-family="Helvetica,sans-Serif" font-size="10.00">::addCardHelper</text>
</a>
</g>
</g>
<!-- Node2 -->
<g id="Node000002" class="node">
<title>Node2</title>
<g id="a_Node000002"><a xlink:href="../../d1/d53/classAbstractTabDeckEditor.html#a86fddfe318be81f8fe4aa54e980fcdd1" target="_top" xlink:title="Adds a card to the main deck or sideboard based on Ctrl key.">
<polygon fill="white" stroke="#666666" points="732,-123.5 605,-123.5 605,-93.5 732,-93.5 732,-123.5"/>
<text text-anchor="start" x="613" y="-111.5" font-family="Helvetica,sans-Serif" font-size="10.00">AbstractTabDeckEditor</text>
<text text-anchor="middle" x="668.5" y="-100.5" font-family="Helvetica,sans-Serif" font-size="10.00">::actAddCard</text>
</a>
</g>
</g>
<!-- Node1&#45;&gt;Node2 -->
<g id="edge1_Node000001_Node000002" class="edge">
<title>Node1&#45;&gt;Node2</title>
<g id="a_edge1_Node000001_Node000002"><a xlink:title=" ">
<path fill="none" stroke="#63b8ff" d="M936.54,-90.96C876.7,-94.89 790.27,-100.57 732.09,-104.39"/>
<polygon fill="#63b8ff" stroke="#63b8ff" points="941.88,-90.61 937.04,-93.19 939.39,-90.78 936.89,-90.94 936.89,-90.94 936.89,-90.94 939.39,-90.78 936.75,-88.69 941.88,-90.61 941.88,-90.61"/>
</a>
</g>
</g>
<!-- Node10 -->
<g id="Node000010" class="node">
<title>Node10</title>
<g id="a_Node000010"><a xlink:href="../../d1/d53/classAbstractTabDeckEditor.html#ad81c6e4ddfb67cdb61cc8bc6179bb5c6" target="_top" xlink:title="Adds a card to the sideboard explicitly.">
<polygon fill="white" stroke="#666666" points="906,-80.5 768,-80.5 768,-50.5 906,-50.5 906,-80.5"/>
<text text-anchor="start" x="776" y="-68.5" font-family="Helvetica,sans-Serif" font-size="10.00">AbstractTabDeckEditor</text>
<text text-anchor="middle" x="837" y="-57.5" font-family="Helvetica,sans-Serif" font-size="10.00">::actAddCardToSideboard</text>
</a>
</g>
</g>
<!-- Node1&#45;&gt;Node10 -->
<g id="edge10_Node000001_Node000010" class="edge">
<title>Node1&#45;&gt;Node10</title>
<g id="a_edge10_Node000001_Node000010"><a xlink:title=" ">
<path fill="none" stroke="#63b8ff" d="M936.35,-77.9C926.35,-76.64 916.04,-75.34 906.04,-74.08"/>
<polygon fill="#63b8ff" stroke="#63b8ff" points="941.55,-78.56 936.31,-80.17 939.07,-78.25 936.59,-77.94 936.59,-77.94 936.59,-77.94 939.07,-78.25 936.87,-75.7 941.55,-78.56 941.55,-78.56"/>
</a>
</g>
</g>
<!-- Node3 -->
<g id="Node000003" class="node">
<title>Node3</title>
<g id="a_Node000003"><a xlink:href="../../d1/d94/classDeckEditorCardDatabaseDockWidget.html#ad6dd3c0e2db7647a68c4518d9d11ed81" target="_top" xlink:title=" ">
<polygon fill="white" stroke="#666666" points="569,-35.5 373,-35.5 373,-5.5 569,-5.5 569,-35.5"/>
<text text-anchor="start" x="381" y="-23.5" font-family="Helvetica,sans-Serif" font-size="10.00">DeckEditorCardDatabaseDock</text>
<text text-anchor="middle" x="471" y="-12.5" font-family="Helvetica,sans-Serif" font-size="10.00">Widget::createDatabaseDisplayDock</text>
</a>
</g>
</g>
<!-- Node2&#45;&gt;Node3 -->
<g id="edge2_Node000002_Node000003" class="edge">
<title>Node2&#45;&gt;Node3</title>
<g id="a_edge2_Node000002_Node000003"><a xlink:title=" ">
<path fill="none" stroke="#63b8ff" d="M644.41,-90.3C625.21,-75.98 596.65,-56.5 569,-44.5 561.2,-41.12 552.84,-38.15 544.4,-35.56"/>
<polygon fill="#63b8ff" stroke="#63b8ff" points="648.6,-93.46 643.26,-92.25 646.61,-91.95 644.61,-90.45 644.61,-90.45 644.61,-90.45 646.61,-91.95 645.96,-88.65 648.6,-93.46 648.6,-93.46"/>
</a>
</g>
</g>
<!-- Node5 -->
<g id="Node000005" class="node">
<title>Node5</title>
<g id="a_Node000005"><a xlink:href="../../dc/d63/classTabDeckEditorVisual.html#a735f0020e6916150378bd44aa3c977c8" target="_top" xlink:title="Handle card clicks in the database visual display.">
<polygon fill="white" stroke="#666666" points="547.5,-191 394.5,-191 394.5,-150 547.5,-150 547.5,-191"/>
<text text-anchor="start" x="402.5" y="-179" font-family="Helvetica,sans-Serif" font-size="10.00">TabDeckEditorVisual</text>
<text text-anchor="start" x="402.5" y="-168" font-family="Helvetica,sans-Serif" font-size="10.00">::processCardClickDatabase</text>
<text text-anchor="middle" x="471" y="-157" font-family="Helvetica,sans-Serif" font-size="10.00">Display</text>
</a>
</g>
</g>
<!-- Node2&#45;&gt;Node5 -->
<g id="edge4_Node000002_Node000005" class="edge">
<title>Node2&#45;&gt;Node5</title>
<g id="a_edge4_Node000002_Node000005"><a xlink:title=" ">
<path fill="none" stroke="#63b8ff" d="M616.34,-125.27C601.12,-130.22 584.4,-135.62 569,-140.5 559.25,-143.59 548.95,-146.82 538.83,-149.97"/>
<polygon fill="#63b8ff" stroke="#63b8ff" points="621.44,-123.61 617.38,-127.3 619.06,-124.39 616.69,-125.16 616.69,-125.16 616.69,-125.16 619.06,-124.39 615.99,-123.02 621.44,-123.61 621.44,-123.61"/>
</a>
</g>
</g>
<!-- Node8 -->
<g id="Node000008" class="node">
<title>Node8</title>
<g id="a_Node000008"><a xlink:href="../../dc/d63/classTabDeckEditorVisual.html#a222b01da4168b156b7027fca2ac37806" target="_top" xlink:title="Handle card clicks in the mainboard visual deck.">
<polygon fill="white" stroke="#666666" points="550,-83.5 392,-83.5 392,-53.5 550,-53.5 550,-83.5"/>
<text text-anchor="start" x="400" y="-71.5" font-family="Helvetica,sans-Serif" font-size="10.00">TabDeckEditorVisual</text>
<text text-anchor="middle" x="471" y="-60.5" font-family="Helvetica,sans-Serif" font-size="10.00">::processMainboardCardClick</text>
</a>
</g>
</g>
<!-- Node2&#45;&gt;Node8 -->
<g id="edge7_Node000002_Node000008" class="edge">
<title>Node2&#45;&gt;Node8</title>
<g id="a_edge7_Node000002_Node000008"><a xlink:title=" ">
<path fill="none" stroke="#63b8ff" d="M599.93,-94.67C582.38,-91.08 563.4,-87.2 545.56,-83.55"/>
<polygon fill="#63b8ff" stroke="#63b8ff" points="604.84,-95.68 599.49,-96.88 602.39,-95.18 599.94,-94.68 599.94,-94.68 599.94,-94.68 602.39,-95.18 600.39,-92.47 604.84,-95.68 604.84,-95.68"/>
</a>
</g>
</g>
<!-- Node9 -->
<g id="Node000009" class="node">
<title>Node9</title>
<g id="a_Node000009"><a xlink:href="../../d9/dcf/classTabDeckEditorVisualTabWidget.html#a6ab3167cf58404d8d266120a6c3a9a51" target="_top" xlink:title="Construct the tab widget with required models.">
<polygon fill="white" stroke="#666666" points="557.5,-131.5 384.5,-131.5 384.5,-101.5 557.5,-101.5 557.5,-131.5"/>
<text text-anchor="start" x="392.5" y="-119.5" font-family="Helvetica,sans-Serif" font-size="10.00">TabDeckEditorVisualTabWidget</text>
<text text-anchor="middle" x="471" y="-108.5" font-family="Helvetica,sans-Serif" font-size="10.00">::TabDeckEditorVisualTabWidget</text>
</a>
</g>
</g>
<!-- Node2&#45;&gt;Node9 -->
<g id="edge9_Node000002_Node000009" class="edge">
<title>Node2&#45;&gt;Node9</title>
<g id="a_edge9_Node000002_Node000009"><a xlink:title=" ">
<path fill="none" stroke="#63b8ff" d="M599.53,-111.28C586.07,-111.83 571.79,-112.42 557.83,-112.99"/>
<polygon fill="#63b8ff" stroke="#63b8ff" points="604.84,-111.06 599.93,-113.52 602.34,-111.17 599.84,-111.27 599.84,-111.27 599.84,-111.27 602.34,-111.17 599.75,-109.02 604.84,-111.06 604.84,-111.06"/>
</a>
</g>
</g>
<!-- Node4 -->
<g id="Node000004" class="node">
<title>Node4</title>
<g id="a_Node000004"><a xlink:href="../../d1/d94/classDeckEditorCardDatabaseDockWidget.html#aee72aa0c592d265f6b1785daf732e7ff" target="_top" xlink:title=" ">
<polygon fill="white" stroke="#666666" points="337,-41 158,-41 158,0 337,0 337,-41"/>
<text text-anchor="start" x="166" y="-29" font-family="Helvetica,sans-Serif" font-size="10.00">DeckEditorCardDatabaseDock</text>
<text text-anchor="start" x="166" y="-18" font-family="Helvetica,sans-Serif" font-size="10.00">Widget::DeckEditorCardDatabase</text>
<text text-anchor="middle" x="247.5" y="-7" font-family="Helvetica,sans-Serif" font-size="10.00">DockWidget</text>
</a>
</g>
</g>
<!-- Node3&#45;&gt;Node4 -->
<g id="edge3_Node000003_Node000004" class="edge">
<title>Node3&#45;&gt;Node4</title>
<g id="a_edge3_Node000003_Node000004"><a xlink:title=" ">
<path fill="none" stroke="#63b8ff" d="M367.83,-20.5C357.6,-20.5 347.27,-20.5 337.2,-20.5"/>
<polygon fill="#63b8ff" stroke="#63b8ff" points="372.85,-20.5 367.85,-22.75 370.35,-20.5 367.85,-20.5 367.85,-20.5 367.85,-20.5 370.35,-20.5 367.85,-18.25 372.85,-20.5 372.85,-20.5"/>
</a>
</g>
</g>
<!-- Node6 -->
<g id="Node000006" class="node">
<title>Node6</title>
<g id="a_Node000006"><a xlink:href="../../dc/d63/classTabDeckEditorVisual.html#ae20d58ad11818d4afe126e8f13cbb27d" target="_top" xlink:title="Create central frame for visual widgets.">
<polygon fill="white" stroke="#666666" points="307,-137.5 188,-137.5 188,-107.5 307,-107.5 307,-137.5"/>
<text text-anchor="start" x="196" y="-125.5" font-family="Helvetica,sans-Serif" font-size="10.00">TabDeckEditorVisual</text>
<text text-anchor="middle" x="247.5" y="-114.5" font-family="Helvetica,sans-Serif" font-size="10.00">::createCentralFrame</text>
</a>
</g>
</g>
<!-- Node5&#45;&gt;Node6 -->
<g id="edge5_Node000005_Node000006" class="edge">
<title>Node5&#45;&gt;Node6</title>
<g id="a_edge5_Node000005_Node000006"><a xlink:title=" ">
<path fill="none" stroke="#63b8ff" d="M389.36,-153.02C362.22,-147.14 332.48,-140.7 307.34,-135.25"/>
<polygon fill="#63b8ff" stroke="#63b8ff" points="394.39,-154.12 389.03,-155.26 391.95,-153.59 389.51,-153.06 389.51,-153.06 389.51,-153.06 391.95,-153.59 389.98,-150.86 394.39,-154.12 394.39,-154.12"/>
</a>
</g>
</g>
<!-- Node7 -->
<g id="Node000007" class="node">
<title>Node7</title>
<g id="a_Node000007"><a xlink:href="../../dc/d63/classTabDeckEditorVisual.html#a81c50a180d397ad489b4ff049cd809da" target="_top" xlink:title="Constructs a visual deck editor tab.">
<polygon fill="white" stroke="#666666" points="122,-137.5 0,-137.5 0,-107.5 122,-107.5 122,-137.5"/>
<text text-anchor="start" x="8" y="-125.5" font-family="Helvetica,sans-Serif" font-size="10.00">TabDeckEditorVisual</text>
<text text-anchor="middle" x="61" y="-114.5" font-family="Helvetica,sans-Serif" font-size="10.00">::TabDeckEditorVisual</text>
</a>
</g>
</g>
<!-- Node6&#45;&gt;Node7 -->
<g id="edge6_Node000006_Node000007" class="edge">
<title>Node6&#45;&gt;Node7</title>
<g id="a_edge6_Node000006_Node000007"><a xlink:title=" ">
<path fill="none" stroke="#63b8ff" d="M182.65,-122.5C163,-122.5 141.45,-122.5 122.06,-122.5"/>
<polygon fill="#63b8ff" stroke="#63b8ff" points="187.87,-122.5 182.87,-124.75 185.37,-122.5 182.87,-122.5 182.87,-122.5 182.87,-122.5 185.37,-122.5 182.87,-120.25 187.87,-122.5 187.87,-122.5"/>
</a>
</g>
</g>
<!-- Node8&#45;&gt;Node6 -->
<g id="edge8_Node000008_Node000006" class="edge">
<title>Node8&#45;&gt;Node6</title>
<g id="a_edge8_Node000008_Node000006"><a xlink:title=" ">
<path fill="none" stroke="#63b8ff" d="M403.43,-84.73C372.81,-92.19 336.8,-100.97 307.2,-108.19"/>
<polygon fill="#63b8ff" stroke="#63b8ff" points="408.3,-83.54 403.98,-86.91 405.87,-84.13 403.44,-84.73 403.44,-84.73 403.44,-84.73 405.87,-84.13 402.91,-82.54 408.3,-83.54 408.3,-83.54"/>
</a>
</g>
</g>
<!-- Node10&#45;&gt;Node2 -->
<g id="edge11_Node000010_Node000002" class="edge">
<title>Node10&#45;&gt;Node2</title>
<g id="a_edge11_Node000010_Node000002"><a xlink:title=" ">
<path fill="none" stroke="#63b8ff" d="M772.78,-81.83C757.98,-85.65 742.27,-89.71 727.7,-93.47"/>
<polygon fill="#63b8ff" stroke="#63b8ff" points="777.77,-80.54 773.49,-83.97 775.35,-81.16 772.93,-81.79 772.93,-81.79 772.93,-81.79 775.35,-81.16 772.36,-79.61 777.77,-80.54 777.77,-80.54"/>
</a>
</g>
</g>
<!-- Node10&#45;&gt;Node3 -->
<g id="edge12_Node000010_Node000003" class="edge">
<title>Node10&#45;&gt;Node3</title>
<g id="a_edge12_Node000010_Node000003"><a xlink:title=" ">
<path fill="none" stroke="#63b8ff" d="M762.98,-56.47C707.32,-49.59 630.12,-40.05 569.23,-32.52"/>
<polygon fill="#63b8ff" stroke="#63b8ff" points="767.96,-57.09 762.72,-58.71 765.48,-56.78 763,-56.48 763,-56.48 763,-56.48 765.48,-56.78 763.28,-54.24 767.96,-57.09 767.96,-57.09"/>
</a>
</g>
</g>
<!-- Node10&#45;&gt;Node8 -->
<g id="edge13_Node000010_Node000008" class="edge">
<title>Node10&#45;&gt;Node8</title>
<g id="a_edge13_Node000010_Node000008"><a xlink:title=" ">
<path fill="none" stroke="#63b8ff" d="M762.82,-66.1C701.16,-66.61 613.15,-67.34 550.13,-67.86"/>
<polygon fill="#63b8ff" stroke="#63b8ff" points="767.96,-66.06 762.98,-68.35 765.46,-66.08 762.96,-66.1 762.96,-66.1 762.96,-66.1 765.46,-66.08 762.94,-63.85 767.96,-66.06 767.96,-66.06"/>
</a>
</g>
</g>
</g>
</svg>

<g id="navigator" transform="translate(0 0)" fill="#404254">
  <rect fill="#f2f5e9" fill-opacity="0.5" stroke="#606060" stroke-width=".5" x="0" y="0" width="60" height="60"/>
  <use id="zoomplus" xlink:href="#zoomPlus" x="17" y="9" onmousedown="handleZoom(evt,'in')"/>
  <use id="zoomminus" xlink:href="#zoomMin" x="42" y="9" onmousedown="handleZoom(evt,'out')"/>
  <use id="reset" xlink:href="#resetDef" x="30" y="36" onmousedown="handleReset()"/>
   <use id="arrowup" xlink:href="#arrowUp" x="0" y="0" onmousedown="handlePan(0,-1)"/>
  <use id="arrowright" xlink:href="#arrowRight" x="0" y="0" onmousedown="handlePan(1,0)"/>
  <use id="arrowdown" xlink:href="#arrowDown" x="0" y="0" onmousedown="handlePan(0,1)"/>
  <use id="arrowleft" xlink:href="#arrowLeft" x="0" y="0" onmousedown="handlePan(-1,0)"/>
</g>
<svg viewBox="0 0 15 15" width="100%" height="30px" preserveAspectRatio="xMaxYMin meet">
 <g id="arrow_out" transform="scale(0.3 0.3)">
  <a xlink:href="classAbstractTabDeckEditor_a12545751adcf49163142c29f958e4b24_icgraph_org.svg" target="_base">
   <rect id="button" ry="5" rx="5" y="6" x="6" height="38" width="38"
        fill="#f2f5e9" fill-opacity="0.5" stroke="#606060" stroke-width="1.0"/>
   <path id="arrow"
     d="M 11.500037,31.436501 C 11.940474,20.09759 22.043105,11.32322 32.158766,21.979434 L 37.068811,17.246167 C 37.068811,17.246167 37.088388,32 37.088388,32 L 22.160133,31.978069 C 22.160133,31.978069 26.997745,27.140456 26.997745,27.140456 C 18.528582,18.264221 13.291696,25.230495 11.500037,31.436501 z"
     style="fill:#404040;"/>
  </a>
 </g>
</svg>

<style type='text/css'>
<![CDATA[
[data-mouse-over-selected='false'] { opacity: 0.7; }
[data-mouse-over-selected='true']  { opacity: 1.0; }
]]>
</style>
<script type="application/ecmascript"><![CDATA[
document.addEventListener('DOMContentLoaded', (event) => {
  highlightEdges();
  highlightAdjacentNodes();
});
]]></script>
</svg>
