<?xml version="1.0" encoding="UTF-8" standalone="no"?>
<!DOCTYPE svg PUBLIC "-//W3C//DTD SVG 1.1//EN"
 "http://www.w3.org/Graphics/SVG/1.1/DTD/svg11.dtd">
<!-- Generated by graphviz version 2.43.0 (0)
 -->
<!-- Title: AbstractTabDeckEditor::editDeckInClipboard Pages: 1 -->
<svg width="548pt" height="86pt"
 viewBox="0.00 0.00 548.00 86.00" xmlns="http://www.w3.org/2000/svg" xmlns:xlink="http://www.w3.org/1999/xlink">
<g id="graph0" class="graph" transform="scale(1 1) rotate(0) translate(4 82)">
<title>AbstractTabDeckEditor::editDeckInClipboard</title>
<!-- Node1 -->
<g id="Node000001" class="node">
<title>Node1</title>
<g id="a_Node000001"><a xlink:title="Helper for editing decks from the clipboard.">
<polygon fill="#999999" stroke="#666666" points="540,-54 413,-54 413,-24 540,-24 540,-54"/>
<text text-anchor="start" x="421" y="-42" font-family="Helvetica,sans-Serif" font-size="10.00">AbstractTabDeckEditor</text>
<text text-anchor="middle" x="476.5" y="-31" font-family="Helvetica,sans-Serif" font-size="10.00">::editDeckInClipboard</text>
</a>
</g>
</g>
<!-- Node2 -->
<g id="Node000002" class="node">
<title>Node2</title>
<g id="a_Node000002"><a xlink:href="../../d1/d53/classAbstractTabDeckEditor.html#a89ac1c1da43aeec561bd2a63c195acce" target="_top" xlink:title="Opens a deck editor for clipboard contents.">
<polygon fill="white" stroke="#666666" points="366.5,-78 229.5,-78 229.5,-48 366.5,-48 366.5,-78"/>
<text text-anchor="start" x="237.5" y="-66" font-family="Helvetica,sans-Serif" font-size="10.00">AbstractTabDeckEditor</text>
<text text-anchor="middle" x="298" y="-55" font-family="Helvetica,sans-Serif" font-size="10.00">::actEditDeckInClipboard</text>
</a>
</g>
</g>
<!-- Node1&#45;&gt;Node2 -->
<g id="edge1_Node000001_Node000002" class="edge">
<title>Node1&#45;&gt;Node2</title>
<g id="a_edge1_Node000001_Node000002"><a xlink:title=" ">
<path fill="none" stroke="#63b8ff" d="M407.47,-48.25C394.07,-50.07 380,-51.99 366.61,-53.81"/>
<polygon fill="#63b8ff" stroke="#63b8ff" points="412.78,-47.53 408.12,-50.43 410.3,-47.87 407.82,-48.2 407.82,-48.2 407.82,-48.2 410.3,-47.87 407.52,-45.97 412.78,-47.53 412.78,-47.53"/>
</a>
</g>
</g>
<!-- Node4 -->
<g id="Node000004" class="node">
<title>Node4</title>
<g id="a_Node000004"><a xlink:href="../../d1/d53/classAbstractTabDeckEditor.html#a4d87165960fbd0657273a1032bdc4153" target="_top" xlink:title="Opens a raw clipboard deck editor.">
<polygon fill="white" stroke="#666666" points="377,-30 219,-30 219,0 377,0 377,-30"/>
<text text-anchor="start" x="227" y="-18" font-family="Helvetica,sans-Serif" font-size="10.00">AbstractTabDeckEditor</text>
<text text-anchor="middle" x="298" y="-7" font-family="Helvetica,sans-Serif" font-size="10.00">::actEditDeckInClipboardRaw</text>
</a>
</g>
</g>
<!-- Node1&#45;&gt;Node4 -->
<g id="edge3_Node000001_Node000004" class="edge">
<title>Node1&#45;&gt;Node4</title>
<g id="a_edge3_Node000001_Node000004"><a xlink:title=" ">
<path fill="none" stroke="#63b8ff" d="M407.62,-29.77C397.69,-28.42 387.39,-27.02 377.27,-25.64"/>
<polygon fill="#63b8ff" stroke="#63b8ff" points="412.78,-30.47 407.52,-32.03 410.3,-30.13 407.82,-29.8 407.82,-29.8 407.82,-29.8 410.3,-30.13 408.12,-27.57 412.78,-30.47 412.78,-30.47"/>
</a>
</g>
</g>
<!-- Node3 -->
<g id="Node000003" class="node">
<title>Node3</title>
<g id="a_Node000003"><a xlink:href="../../dc/d76/classDeckEditorMenu.html#ad84a243999560804eeb65f6984a6e959" target="_top" xlink:title=" ">
<polygon fill="white" stroke="#666666" points="183,-48.5 0,-48.5 0,-29.5 183,-29.5 183,-48.5"/>
<text text-anchor="middle" x="91.5" y="-36.5" font-family="Helvetica,sans-Serif" font-size="10.00">DeckEditorMenu::DeckEditorMenu</text>
</a>
</g>
</g>
<!-- Node2&#45;&gt;Node3 -->
<g id="edge2_Node000002_Node000003" class="edge">
<title>Node2&#45;&gt;Node3</title>
<g id="a_edge2_Node000002_Node000003"><a xlink:title=" ">
<path fill="none" stroke="#63b8ff" d="M224.39,-54.48C207.9,-52.54 190.29,-50.48 173.47,-48.5"/>
<polygon fill="#63b8ff" stroke="#63b8ff" points="229.47,-55.07 224.24,-56.73 226.99,-54.78 224.51,-54.49 224.51,-54.49 224.51,-54.49 226.99,-54.78 224.77,-52.26 229.47,-55.07 229.47,-55.07"/>
</a>
</g>
</g>
<!-- Node4&#45;&gt;Node3 -->
<g id="edge4_Node000004_Node000003" class="edge">
<title>Node4&#45;&gt;Node3</title>
<g id="a_edge4_Node000004_Node000003"><a xlink:title=" ">
<path fill="none" stroke="#63b8ff" d="M213.59,-24.79C200.42,-26.33 186.82,-27.93 173.7,-29.47"/>
<polygon fill="#63b8ff" stroke="#63b8ff" points="218.81,-24.18 214.11,-26.99 216.33,-24.47 213.85,-24.76 213.85,-24.76 213.85,-24.76 216.33,-24.47 213.58,-22.52 218.81,-24.18 218.81,-24.18"/>
</a>
</g>
</g>
</g>
</svg>
