<?xml version="1.0" encoding="UTF-8" standalone="no"?>
<!DOCTYPE svg PUBLIC "-//W3C//DTD SVG 1.1//EN"
 "http://www.w3.org/Graphics/SVG/1.1/DTD/svg11.dtd">
<!-- Generated by graphviz version 2.43.0 (0)
 -->
<!-- Title: AbstractTabDeckEditor::exportToDecklistWebsite Pages: 1 -->
<svg width="705pt" height="161pt"
 viewBox="0.00 0.00 705.00 160.50" xmlns="http://www.w3.org/2000/svg" xmlns:xlink="http://www.w3.org/1999/xlink">
<g id="graph0" class="graph" transform="scale(1 1) rotate(0) translate(4 156.5)">
<title>AbstractTabDeckEditor::exportToDecklistWebsite</title>
<!-- Node1 -->
<g id="Node000001" class="node">
<title>Node1</title>
<g id="a_Node000001"><a xlink:title="Helper for exporting decks to websites.">
<polygon fill="#999999" stroke="#666666" points="143,-95.5 0,-95.5 0,-65.5 143,-65.5 143,-95.5"/>
<text text-anchor="start" x="8" y="-83.5" font-family="Helvetica,sans-Serif" font-size="10.00">AbstractTabDeckEditor</text>
<text text-anchor="middle" x="71.5" y="-72.5" font-family="Helvetica,sans-Serif" font-size="10.00">::exportToDecklistWebsite</text>
</a>
</g>
</g>
<!-- Node2 -->
<g id="Node000002" class="node">
<title>Node2</title>
<g id="a_Node000002"><a xlink:href="../../de/de9/classDeckLoader.html#a6064b8db44bf7a7f5441a6197ebbe411" target="_top" xlink:title=" ">
<polygon fill="white" stroke="#666666" points="326,-119.5 179,-119.5 179,-89.5 326,-89.5 326,-119.5"/>
<text text-anchor="start" x="187" y="-107.5" font-family="Helvetica,sans-Serif" font-size="10.00">DeckLoader::exportDeckTo</text>
<text text-anchor="middle" x="252.5" y="-96.5" font-family="Helvetica,sans-Serif" font-size="10.00">Decklist</text>
</a>
</g>
</g>
<!-- Node1&#45;&gt;Node2 -->
<g id="edge1_Node000001_Node000002" class="edge">
<title>Node1&#45;&gt;Node2</title>
<g id="a_edge1_Node000001_Node000002"><a xlink:title=" ">
<path fill="none" stroke="#63b8ff" d="M143.25,-89.99C153.32,-91.34 163.73,-92.73 173.93,-94.1"/>
<polygon fill="#63b8ff" stroke="#63b8ff" points="178.92,-94.77 173.66,-96.33 176.44,-94.44 173.96,-94.1 173.96,-94.1 173.96,-94.1 176.44,-94.44 174.26,-91.87 178.92,-94.77 178.92,-94.77"/>
</a>
</g>
</g>
<!-- Node10 -->
<g id="Node000010" class="node">
<title>Node10</title>
<g id="a_Node000010"><a xlink:href="../../d1/d53/classAbstractTabDeckEditor.html#a42ab01571390cc68803ee41386329239" target="_top" xlink:title="Returns the currently active deck list.">
<polygon fill="white" stroke="#666666" points="316,-71.5 189,-71.5 189,-41.5 316,-41.5 316,-71.5"/>
<text text-anchor="start" x="197" y="-59.5" font-family="Helvetica,sans-Serif" font-size="10.00">AbstractTabDeckEditor</text>
<text text-anchor="middle" x="252.5" y="-48.5" font-family="Helvetica,sans-Serif" font-size="10.00">::getDeckList</text>
</a>
</g>
</g>
<!-- Node1&#45;&gt;Node10 -->
<g id="edge9_Node000001_Node000010" class="edge">
<title>Node1&#45;&gt;Node10</title>
<g id="a_edge9_Node000001_Node000010"><a xlink:title=" ">
<path fill="none" stroke="#63b8ff" d="M143.25,-71.01C156.53,-69.23 170.39,-67.37 183.59,-65.61"/>
<polygon fill="#63b8ff" stroke="#63b8ff" points="188.81,-64.91 184.15,-67.8 186.33,-65.24 183.85,-65.57 183.85,-65.57 183.85,-65.57 186.33,-65.24 183.55,-63.34 188.81,-64.91 188.81,-64.91"/>
</a>
</g>
</g>
<!-- Node3 -->
<g id="Node000003" class="node">
<title>Node3</title>
<g id="a_Node000003"><a xlink:href="../../da/d68/classDeckList.html#a94f2d40c4642afb281c569697d1c5051" target="_top" xlink:title=" ">
<polygon fill="white" stroke="#666666" points="496,-151 362,-151 362,-132 496,-132 496,-151"/>
<text text-anchor="middle" x="429" y="-139" font-family="Helvetica,sans-Serif" font-size="10.00">DeckList::getCardNodes</text>
</a>
</g>
</g>
<!-- Node2&#45;&gt;Node3 -->
<g id="edge2_Node000002_Node000003" class="edge">
<title>Node2&#45;&gt;Node3</title>
<g id="a_edge2_Node000002_Node000003"><a xlink:title=" ">
<path fill="none" stroke="#63b8ff" d="M324.48,-119.55C342.43,-123.36 361.34,-127.37 378.02,-130.9"/>
<polygon fill="#63b8ff" stroke="#63b8ff" points="383.12,-131.98 377.76,-133.15 380.67,-131.47 378.23,-130.95 378.23,-130.95 378.23,-130.95 380.67,-131.47 378.69,-128.75 383.12,-131.98 383.12,-131.98"/>
</a>
</g>
</g>
<!-- Node4 -->
<g id="Node000004" class="node">
<title>Node4</title>
<g id="a_Node000004"><a xlink:href="../../de/db7/deck__loader_8cpp.html#a592d32d8239cd3192211eb5bead466d9" target="_top" xlink:title=" ">
<polygon fill="white" stroke="#666666" points="491.5,-114 366.5,-114 366.5,-95 491.5,-95 491.5,-114"/>
<text text-anchor="middle" x="429" y="-102" font-family="Helvetica,sans-Serif" font-size="10.00">getDomainForWebsite</text>
</a>
</g>
</g>
<!-- Node2&#45;&gt;Node4 -->
<g id="edge3_Node000002_Node000004" class="edge">
<title>Node2&#45;&gt;Node4</title>
<g id="a_edge3_Node000002_Node000004"><a xlink:title=" ">
<path fill="none" stroke="#63b8ff" d="M326.24,-104.5C337.84,-104.5 349.79,-104.5 361.24,-104.5"/>
<polygon fill="#63b8ff" stroke="#63b8ff" points="366.46,-104.5 361.46,-106.75 363.96,-104.5 361.46,-104.5 361.46,-104.5 361.46,-104.5 363.96,-104.5 361.46,-102.25 366.46,-104.5 366.46,-104.5"/>
</a>
</g>
</g>
<!-- Node5 -->
<g id="Node000005" class="node">
<title>Node5</title>
<g id="a_Node000005"><a xlink:href="../../de/db7/deck__loader_8cpp.html#a97d87c139537d3123de2bfc5dd3eaf1d" target="_top" xlink:title=" ">
<polygon fill="white" stroke="#666666" points="492,-77 366,-77 366,-58 492,-58 492,-77"/>
<text text-anchor="middle" x="429" y="-65" font-family="Helvetica,sans-Serif" font-size="10.00">toDecklistExportString</text>
</a>
</g>
</g>
<!-- Node2&#45;&gt;Node5 -->
<g id="edge4_Node000002_Node000005" class="edge">
<title>Node2&#45;&gt;Node5</title>
<g id="a_edge4_Node000002_Node000005"><a xlink:title=" ">
<path fill="none" stroke="#63b8ff" d="M324.48,-89.45C342.43,-85.64 361.34,-81.63 378.02,-78.1"/>
<polygon fill="#63b8ff" stroke="#63b8ff" points="383.12,-77.02 378.69,-80.25 380.67,-77.53 378.23,-78.05 378.23,-78.05 378.23,-78.05 380.67,-77.53 377.76,-75.85 383.12,-77.02 383.12,-77.02"/>
</a>
</g>
</g>
<!-- Node6 -->
<g id="Node000006" class="node">
<title>Node6</title>
<g id="a_Node000006"><a xlink:href="../../d5/d22/classDecklistCardNode.html#a9ac40ee141bf59076787ccdedd2273a2" target="_top" xlink:title=" ">
<polygon fill="white" stroke="#666666" points="689,-152.5 540,-152.5 540,-122.5 689,-122.5 689,-152.5"/>
<text text-anchor="start" x="548" y="-140.5" font-family="Helvetica,sans-Serif" font-size="10.00">DecklistCardNode::getCard</text>
<text text-anchor="middle" x="614.5" y="-129.5" font-family="Helvetica,sans-Serif" font-size="10.00">CollectorNumber</text>
</a>
</g>
</g>
<!-- Node5&#45;&gt;Node6 -->
<g id="edge5_Node000005_Node000006" class="edge">
<title>Node5&#45;&gt;Node6</title>
<g id="a_edge5_Node000005_Node000006"><a xlink:title=" ">
<path fill="none" stroke="#63b8ff" d="M471.71,-77.02C479.97,-79.59 488.42,-82.73 496,-86.5 513.9,-95.41 514.12,-104.53 532,-113.5 537.25,-116.14 542.85,-118.53 548.54,-120.7"/>
<polygon fill="#63b8ff" stroke="#63b8ff" points="553.35,-122.47 547.88,-122.85 551,-121.6 548.66,-120.74 548.66,-120.74 548.66,-120.74 551,-121.6 549.43,-118.63 553.35,-122.47 553.35,-122.47"/>
</a>
</g>
</g>
<!-- Node7 -->
<g id="Node000007" class="node">
<title>Node7</title>
<g id="a_Node000007"><a xlink:href="../../d5/d22/classDecklistCardNode.html#a830840732f66a33c50340037d3d612a0" target="_top" xlink:title=" ">
<polygon fill="white" stroke="#666666" points="689,-104.5 540,-104.5 540,-74.5 689,-74.5 689,-104.5"/>
<text text-anchor="start" x="548" y="-92.5" font-family="Helvetica,sans-Serif" font-size="10.00">DecklistCardNode::getCard</text>
<text text-anchor="middle" x="614.5" y="-81.5" font-family="Helvetica,sans-Serif" font-size="10.00">SetShortName</text>
</a>
</g>
</g>
<!-- Node5&#45;&gt;Node7 -->
<g id="edge6_Node000005_Node000007" class="edge">
<title>Node5&#45;&gt;Node7</title>
<g id="a_edge6_Node000005_Node000007"><a xlink:title=" ">
<path fill="none" stroke="#63b8ff" d="M492.12,-74.95C505.74,-76.58 520.32,-78.33 534.5,-80.03"/>
<polygon fill="#63b8ff" stroke="#63b8ff" points="539.7,-80.65 534.47,-82.29 537.22,-80.35 534.73,-80.06 534.73,-80.06 534.73,-80.06 537.22,-80.35 535,-77.82 539.7,-80.65 539.7,-80.65"/>
</a>
</g>
</g>
<!-- Node8 -->
<g id="Node000008" class="node">
<title>Node8</title>
<g id="a_Node000008"><a xlink:href="../../d5/d22/classDecklistCardNode.html#aab4795fc5949ba2b2c623dcd7d0aea57" target="_top" xlink:title=" ">
<polygon fill="white" stroke="#666666" points="692,-56 537,-56 537,-37 692,-37 692,-56"/>
<text text-anchor="middle" x="614.5" y="-44" font-family="Helvetica,sans-Serif" font-size="10.00">DecklistCardNode::getName</text>
</a>
</g>
</g>
<!-- Node5&#45;&gt;Node8 -->
<g id="edge7_Node000005_Node000008" class="edge">
<title>Node5&#45;&gt;Node8</title>
<g id="a_edge7_Node000005_Node000008"><a xlink:title=" ">
<path fill="none" stroke="#63b8ff" d="M492.12,-60.39C504.79,-58.94 518.3,-57.39 531.54,-55.88"/>
<polygon fill="#63b8ff" stroke="#63b8ff" points="536.79,-55.28 532.08,-58.08 534.31,-55.56 531.82,-55.85 531.82,-55.85 531.82,-55.85 534.31,-55.56 531.57,-53.61 536.79,-55.28 536.79,-55.28"/>
</a>
</g>
</g>
<!-- Node9 -->
<g id="Node000009" class="node">
<title>Node9</title>
<g id="a_Node000009"><a xlink:href="../../d5/d22/classDecklistCardNode.html#aea1e2bdd423742e4de058e27c96f5ab3" target="_top" xlink:title=" ">
<polygon fill="white" stroke="#666666" points="697,-19 532,-19 532,0 697,0 697,-19"/>
<text text-anchor="middle" x="614.5" y="-7" font-family="Helvetica,sans-Serif" font-size="10.00">DecklistCardNode::getNumber</text>
</a>
</g>
</g>
<!-- Node5&#45;&gt;Node9 -->
<g id="edge8_Node000005_Node000009" class="edge">
<title>Node5&#45;&gt;Node9</title>
<g id="a_edge8_Node000005_Node000009"><a xlink:title=" ">
<path fill="none" stroke="#63b8ff" d="M451.54,-57.91C471.95,-49.11 503.61,-36.14 532,-27.5 540.77,-24.83 550.19,-22.38 559.39,-20.2"/>
<polygon fill="#63b8ff" stroke="#63b8ff" points="564.48,-19.02 560.12,-22.35 562.04,-19.59 559.61,-20.15 559.61,-20.15 559.61,-20.15 562.04,-19.59 559.1,-17.96 564.48,-19.02 564.48,-19.02"/>
</a>
</g>
</g>
</g>
</svg>
