<?xml version="1.0" encoding="UTF-8" standalone="no"?>
<!DOCTYPE svg PUBLIC "-//W3C//DTD SVG 1.1//EN"
 "http://www.w3.org/Graphics/SVG/1.1/DTD/svg11.dtd">
<!-- Generated by graphviz version 2.43.0 (0)
 -->
<!-- Title: cockatrice/src/game/deckview/deck_view.h Pages: 1 -->
<svg width="1007pt" height="335pt"
 viewBox="0.00 0.00 1007.00 335.00" xmlns="http://www.w3.org/2000/svg" xmlns:xlink="http://www.w3.org/1999/xlink">
<g id="graph0" class="graph" transform="scale(1 1) rotate(0) translate(4 331)">
<title>cockatrice/src/game/deckview/deck_view.h</title>
<!-- Node1 -->
<g id="Node000001" class="node">
<title>Node1</title>
<g id="a_Node000001"><a xlink:title="TODO: Document this.">
<polygon fill="#999999" stroke="#666666" points="698.5,-327 569.5,-327 569.5,-297 698.5,-297 698.5,-327"/>
<text text-anchor="start" x="577.5" y="-315" font-family="Helvetica,sans-Serif" font-size="10.00">cockatrice/src/game</text>
<text text-anchor="middle" x="634" y="-304" font-family="Helvetica,sans-Serif" font-size="10.00">/deckview/deck_view.h</text>
</a>
</g>
</g>
<!-- Node2 -->
<g id="Node000002" class="node">
<title>Node2</title>
<g id="a_Node000002"><a xlink:href="../../d9/d54/abstract__card__drag__item_8h.html" target="_top" xlink:title="TODO: Document this.">
<polygon fill="white" stroke="#666666" points="370,-261 248,-261 248,-231 370,-231 370,-261"/>
<text text-anchor="start" x="256" y="-249" font-family="Helvetica,sans-Serif" font-size="10.00">../board/abstract_card</text>
<text text-anchor="middle" x="309" y="-238" font-family="Helvetica,sans-Serif" font-size="10.00">_drag_item.h</text>
</a>
</g>
</g>
<!-- Node1&#45;&gt;Node2 -->
<g id="edge1_Node000001_Node000002" class="edge">
<title>Node1&#45;&gt;Node2</title>
<g id="a_edge1_Node000001_Node000002"><a xlink:title=" ">
<path fill="none" stroke="#63b8ff" d="M569.27,-298.38C517.72,-288.31 443.72,-273.82 379,-261 377.72,-260.75 376.43,-260.49 375.13,-260.23"/>
<polygon fill="#63b8ff" stroke="#63b8ff" points="370.08,-259.23 375.42,-258 372.53,-259.72 374.98,-260.2 374.98,-260.2 374.98,-260.2 372.53,-259.72 374.55,-262.41 370.08,-259.23 370.08,-259.23"/>
</a>
</g>
</g>
<!-- Node11 -->
<g id="Node000011" class="node">
<title>Node11</title>
<g id="a_Node000011"><a xlink:title=" ">
<polygon fill="#e0e0e0" stroke="#999999" points="484,-255.5 388,-255.5 388,-236.5 484,-236.5 484,-255.5"/>
<text text-anchor="middle" x="436" y="-243.5" font-family="Helvetica,sans-Serif" font-size="10.00">QGraphicsScene</text>
</a>
</g>
</g>
<!-- Node1&#45;&gt;Node11 -->
<g id="edge11_Node000001_Node000011" class="edge">
<title>Node1&#45;&gt;Node11</title>
<g id="a_edge11_Node000001_Node000011"><a xlink:title=" ">
<path fill="none" stroke="#63b8ff" d="M590.55,-296.95C553.38,-284.94 500.76,-267.93 467.51,-257.19"/>
<polygon fill="#63b8ff" stroke="#63b8ff" points="462.35,-255.52 467.8,-254.91 464.73,-256.29 467.11,-257.06 467.11,-257.06 467.11,-257.06 464.73,-256.29 466.42,-259.2 462.35,-255.52 462.35,-255.52"/>
</a>
</g>
</g>
<!-- Node12 -->
<g id="Node000012" class="node">
<title>Node12</title>
<g id="a_Node000012"><a xlink:title=" ">
<polygon fill="#e0e0e0" stroke="#999999" points="593.5,-255.5 502.5,-255.5 502.5,-236.5 593.5,-236.5 593.5,-255.5"/>
<text text-anchor="middle" x="548" y="-243.5" font-family="Helvetica,sans-Serif" font-size="10.00">QGraphicsView</text>
</a>
</g>
</g>
<!-- Node1&#45;&gt;Node12 -->
<g id="edge12_Node000001_Node000012" class="edge">
<title>Node1&#45;&gt;Node12</title>
<g id="a_edge12_Node000001_Node000012"><a xlink:title=" ">
<path fill="none" stroke="#63b8ff" d="M614.91,-296.8C599.67,-285.45 578.54,-269.72 564.13,-259"/>
<polygon fill="#63b8ff" stroke="#63b8ff" points="559.88,-255.84 565.24,-257.02 561.89,-257.34 563.9,-258.83 563.9,-258.83 563.9,-258.83 561.89,-257.34 562.55,-260.63 559.88,-255.84 559.88,-255.84"/>
</a>
</g>
</g>
<!-- Node13 -->
<g id="Node000013" class="node">
<title>Node13</title>
<g id="a_Node000013"><a xlink:title=" ">
<polygon fill="#e0e0e0" stroke="#999999" points="656.5,-255.5 611.5,-255.5 611.5,-236.5 656.5,-236.5 656.5,-255.5"/>
<text text-anchor="middle" x="634" y="-243.5" font-family="Helvetica,sans-Serif" font-size="10.00">QMap</text>
</a>
</g>
</g>
<!-- Node1&#45;&gt;Node13 -->
<g id="edge13_Node000001_Node000013" class="edge">
<title>Node1&#45;&gt;Node13</title>
<g id="a_edge13_Node000001_Node000013"><a xlink:title=" ">
<path fill="none" stroke="#63b8ff" d="M634,-296.8C634,-286.13 634,-271.61 634,-261"/>
<polygon fill="#63b8ff" stroke="#63b8ff" points="634,-255.84 636.25,-260.84 634,-258.34 634,-260.84 634,-260.84 634,-260.84 634,-258.34 631.75,-260.84 634,-255.84 634,-255.84"/>
</a>
</g>
</g>
<!-- Node14 -->
<g id="Node000014" class="node">
<title>Node14</title>
<g id="a_Node000014"><a xlink:title=" ">
<polygon fill="#e0e0e0" stroke="#999999" points="745,-255.5 675,-255.5 675,-236.5 745,-236.5 745,-255.5"/>
<text text-anchor="middle" x="710" y="-243.5" font-family="Helvetica,sans-Serif" font-size="10.00">QMultiMap</text>
</a>
</g>
</g>
<!-- Node1&#45;&gt;Node14 -->
<g id="edge14_Node000001_Node000014" class="edge">
<title>Node1&#45;&gt;Node14</title>
<g id="a_edge14_Node000001_Node000014"><a xlink:title=" ">
<path fill="none" stroke="#63b8ff" d="M650.87,-296.8C664.23,-285.55 682.69,-270 695.42,-259.28"/>
<polygon fill="#63b8ff" stroke="#63b8ff" points="699.5,-255.84 697.12,-260.79 697.59,-257.45 695.67,-259.07 695.67,-259.07 695.67,-259.07 697.59,-257.45 694.22,-257.34 699.5,-255.84 699.5,-255.84"/>
</a>
</g>
</g>
<!-- Node15 -->
<g id="Node000015" class="node">
<title>Node15</title>
<g id="a_Node000015"><a xlink:title=" ">
<polygon fill="#e0e0e0" stroke="#999999" points="824.5,-255.5 763.5,-255.5 763.5,-236.5 824.5,-236.5 824.5,-255.5"/>
<text text-anchor="middle" x="794" y="-243.5" font-family="Helvetica,sans-Serif" font-size="10.00">QPixmap</text>
</a>
</g>
</g>
<!-- Node1&#45;&gt;Node15 -->
<g id="edge15_Node000001_Node000015" class="edge">
<title>Node1&#45;&gt;Node15</title>
<g id="a_edge15_Node000001_Node000015"><a xlink:title=" ">
<path fill="none" stroke="#63b8ff" d="M669.11,-296.95C698.9,-285.04 740.97,-268.21 767.87,-257.45"/>
<polygon fill="#63b8ff" stroke="#63b8ff" points="772.71,-255.52 768.9,-259.46 770.39,-256.45 768.06,-257.37 768.06,-257.37 768.06,-257.37 770.39,-256.45 767.23,-255.29 772.71,-255.52 772.71,-255.52"/>
</a>
</g>
</g>
<!-- Node16 -->
<g id="Node000016" class="node">
<title>Node16</title>
<g id="a_Node000016"><a xlink:title=" ">
<polygon fill="#e0e0e0" stroke="#999999" points="999,-261 843,-261 843,-231 999,-231 999,-261"/>
<text text-anchor="start" x="851" y="-249" font-family="Helvetica,sans-Serif" font-size="10.00">libcockatrice/protocol</text>
<text text-anchor="middle" x="921" y="-238" font-family="Helvetica,sans-Serif" font-size="10.00">/pb/move_card_to_zone.pb.h</text>
</a>
</g>
</g>
<!-- Node1&#45;&gt;Node16 -->
<g id="edge16_Node000001_Node000016" class="edge">
<title>Node1&#45;&gt;Node16</title>
<g id="a_edge16_Node000001_Node000016"><a xlink:title=" ">
<path fill="none" stroke="#63b8ff" d="M696.98,-296.95C743.15,-286.66 805.76,-272.7 853.06,-262.15"/>
<polygon fill="#63b8ff" stroke="#63b8ff" points="858.16,-261.01 853.77,-264.3 855.72,-261.56 853.28,-262.1 853.28,-262.1 853.28,-262.1 855.72,-261.56 852.79,-259.9 858.16,-261.01 858.16,-261.01"/>
</a>
</g>
</g>
<!-- Node3 -->
<g id="Node000003" class="node">
<title>Node3</title>
<g id="a_Node000003"><a xlink:href="../../d2/d73/abstract__card__item_8h.html" target="_top" xlink:title="TODO: Document this.">
<polygon fill="white" stroke="#666666" points="368.5,-195 249.5,-195 249.5,-176 368.5,-176 368.5,-195"/>
<text text-anchor="middle" x="309" y="-183" font-family="Helvetica,sans-Serif" font-size="10.00">abstract_card_item.h</text>
</a>
</g>
</g>
<!-- Node2&#45;&gt;Node3 -->
<g id="edge2_Node000002_Node000003" class="edge">
<title>Node2&#45;&gt;Node3</title>
<g id="a_edge2_Node000002_Node000003"><a xlink:title=" ">
<path fill="none" stroke="#63b8ff" d="M309,-230.84C309,-221.57 309,-209.51 309,-200.31"/>
<polygon fill="#63b8ff" stroke="#63b8ff" points="309,-195.27 311.25,-200.27 309,-197.77 309,-200.27 309,-200.27 309,-200.27 309,-197.77 306.75,-200.27 309,-195.27 309,-195.27"/>
</a>
</g>
</g>
<!-- Node4 -->
<g id="Node000004" class="node">
<title>Node4</title>
<g id="a_Node000004"><a xlink:href="../../dc/dda/arrow__target_8h.html" target="_top" xlink:title="TODO: Document this.">
<polygon fill="white" stroke="#666666" points="223,-134.5 135,-134.5 135,-115.5 223,-115.5 223,-134.5"/>
<text text-anchor="middle" x="179" y="-122.5" font-family="Helvetica,sans-Serif" font-size="10.00">arrow_target.h</text>
</a>
</g>
</g>
<!-- Node3&#45;&gt;Node4 -->
<g id="edge3_Node000003_Node000004" class="edge">
<title>Node3&#45;&gt;Node4</title>
<g id="a_edge3_Node000003_Node000004"><a xlink:title=" ">
<path fill="none" stroke="#63b8ff" d="M290.1,-175.99C266.99,-165.6 227.87,-147.99 202.75,-136.69"/>
<polygon fill="#63b8ff" stroke="#63b8ff" points="197.93,-134.52 203.41,-134.52 200.21,-135.54 202.49,-136.57 202.49,-136.57 202.49,-136.57 200.21,-135.54 201.56,-138.62 197.93,-134.52 197.93,-134.52"/>
</a>
</g>
</g>
<!-- Node8 -->
<g id="Node000008" class="node">
<title>Node8</title>
<g id="a_Node000008"><a xlink:href="../../de/d83/graphics__item__type_8h.html" target="_top" xlink:title="TODO: Document this.">
<polygon fill="white" stroke="#666666" points="340,-74 218,-74 218,-55 340,-55 340,-74"/>
<text text-anchor="middle" x="279" y="-62" font-family="Helvetica,sans-Serif" font-size="10.00">graphics_item_type.h</text>
</a>
</g>
</g>
<!-- Node3&#45;&gt;Node8 -->
<g id="edge7_Node000003_Node000008" class="edge">
<title>Node3&#45;&gt;Node8</title>
<g id="a_edge7_Node000003_Node000008"><a xlink:title=" ">
<path fill="none" stroke="#63b8ff" d="M302.57,-175.83C296.58,-167.22 288,-153.42 284,-140 277.94,-119.64 277.59,-94.82 278.12,-79.59"/>
<polygon fill="#63b8ff" stroke="#63b8ff" points="278.35,-74.44 280.38,-79.53 278.24,-76.94 278.13,-79.43 278.13,-79.43 278.13,-79.43 278.24,-76.94 275.88,-79.34 278.35,-74.44 278.35,-74.44"/>
</a>
</g>
</g>
<!-- Node9 -->
<g id="Node000009" class="node">
<title>Node9</title>
<g id="a_Node000009"><a xlink:title=" ">
<polygon fill="#e0e0e0" stroke="#999999" points="415,-140 293,-140 293,-110 415,-110 415,-140"/>
<text text-anchor="start" x="301" y="-128" font-family="Helvetica,sans-Serif" font-size="10.00">libcockatrice/card</text>
<text text-anchor="middle" x="354" y="-117" font-family="Helvetica,sans-Serif" font-size="10.00">/printing/exact_card.h</text>
</a>
</g>
</g>
<!-- Node3&#45;&gt;Node9 -->
<g id="edge9_Node000003_Node000009" class="edge">
<title>Node3&#45;&gt;Node9</title>
<g id="a_edge9_Node000003_Node000009"><a xlink:title=" ">
<path fill="none" stroke="#63b8ff" d="M315.64,-175.87C322.03,-167.56 331.89,-154.75 340.01,-144.18"/>
<polygon fill="#63b8ff" stroke="#63b8ff" points="343.14,-140.11 341.88,-145.45 341.62,-142.1 340.09,-144.08 340.09,-144.08 340.09,-144.08 341.62,-142.1 338.31,-142.71 343.14,-140.11 343.14,-140.11"/>
</a>
</g>
</g>
<!-- Node10 -->
<g id="Node000010" class="node">
<title>Node10</title>
<g id="a_Node000010"><a xlink:title=" ">
<polygon fill="#e0e0e0" stroke="#999999" points="543,-140 433,-140 433,-110 543,-110 543,-140"/>
<text text-anchor="start" x="441" y="-128" font-family="Helvetica,sans-Serif" font-size="10.00">libcockatrice/utility</text>
<text text-anchor="middle" x="488" y="-117" font-family="Helvetica,sans-Serif" font-size="10.00">/card_ref.h</text>
</a>
</g>
</g>
<!-- Node3&#45;&gt;Node10 -->
<g id="edge10_Node000003_Node000010" class="edge">
<title>Node3&#45;&gt;Node10</title>
<g id="a_edge10_Node000003_Node000010"><a xlink:title=" ">
<path fill="none" stroke="#63b8ff" d="M335.03,-175.99C362.48,-167.02 406.33,-152.69 440.07,-141.67"/>
<polygon fill="#63b8ff" stroke="#63b8ff" points="444.97,-140.06 440.91,-143.76 442.59,-140.84 440.21,-141.62 440.21,-141.62 440.21,-141.62 442.59,-140.84 439.51,-139.48 444.97,-140.06 444.97,-140.06"/>
</a>
</g>
</g>
<!-- Node5 -->
<g id="Node000005" class="node">
<title>Node5</title>
<g id="a_Node000005"><a xlink:href="../../d5/d21/abstract__graphics__item_8h.html" target="_top" xlink:title="TODO: Document this.">
<polygon fill="white" stroke="#666666" points="140,-74 0,-74 0,-55 140,-55 140,-74"/>
<text text-anchor="middle" x="70" y="-62" font-family="Helvetica,sans-Serif" font-size="10.00">abstract_graphics_item.h</text>
</a>
</g>
</g>
<!-- Node4&#45;&gt;Node5 -->
<g id="edge4_Node000004_Node000005" class="edge">
<title>Node4&#45;&gt;Node5</title>
<g id="a_edge4_Node000004_Node000005"><a xlink:title=" ">
<path fill="none" stroke="#63b8ff" d="M162.92,-115.37C143.76,-105.09 111.71,-87.89 90.71,-76.62"/>
<polygon fill="#63b8ff" stroke="#63b8ff" points="86.15,-74.17 91.62,-74.55 88.35,-75.35 90.55,-76.53 90.55,-76.53 90.55,-76.53 88.35,-75.35 89.49,-78.51 86.15,-74.17 86.15,-74.17"/>
</a>
</g>
</g>
<!-- Node7 -->
<g id="Node000007" class="node">
<title>Node7</title>
<g id="a_Node000007"><a xlink:title=" ">
<polygon fill="#e0e0e0" stroke="#999999" points="199.5,-74 158.5,-74 158.5,-55 199.5,-55 199.5,-74"/>
<text text-anchor="middle" x="179" y="-62" font-family="Helvetica,sans-Serif" font-size="10.00">QList</text>
</a>
</g>
</g>
<!-- Node4&#45;&gt;Node7 -->
<g id="edge6_Node000004_Node000007" class="edge">
<title>Node4&#45;&gt;Node7</title>
<g id="a_edge6_Node000004_Node000007"><a xlink:title=" ">
<path fill="none" stroke="#63b8ff" d="M179,-115.37C179,-105.86 179,-90.45 179,-79.27"/>
<polygon fill="#63b8ff" stroke="#63b8ff" points="179,-74.17 181.25,-79.17 179,-76.67 179,-79.17 179,-79.17 179,-79.17 179,-76.67 176.75,-79.17 179,-74.17 179,-74.17"/>
</a>
</g>
</g>
<!-- Node6 -->
<g id="Node000006" class="node">
<title>Node6</title>
<g id="a_Node000006"><a xlink:title=" ">
<polygon fill="#e0e0e0" stroke="#999999" points="218.5,-19 129.5,-19 129.5,0 218.5,0 218.5,-19"/>
<text text-anchor="middle" x="174" y="-7" font-family="Helvetica,sans-Serif" font-size="10.00">QGraphicsItem</text>
</a>
</g>
</g>
<!-- Node5&#45;&gt;Node6 -->
<g id="edge5_Node000005_Node000006" class="edge">
<title>Node5&#45;&gt;Node6</title>
<g id="a_edge5_Node000005_Node000006"><a xlink:title=" ">
<path fill="none" stroke="#63b8ff" d="M86.71,-54.98C104.49,-45.92 132.71,-31.54 152.22,-21.6"/>
<polygon fill="#63b8ff" stroke="#63b8ff" points="156.99,-19.17 153.55,-23.45 154.76,-20.31 152.53,-21.44 152.53,-21.44 152.53,-21.44 154.76,-20.31 151.51,-19.44 156.99,-19.17 156.99,-19.17"/>
</a>
</g>
</g>
<!-- Node8&#45;&gt;Node6 -->
<g id="edge8_Node000008_Node000006" class="edge">
<title>Node8&#45;&gt;Node6</title>
<g id="a_edge8_Node000008_Node000006"><a xlink:title=" ">
<path fill="none" stroke="#63b8ff" d="M262.13,-54.98C244.17,-45.92 215.69,-31.54 195.99,-21.6"/>
<polygon fill="#63b8ff" stroke="#63b8ff" points="191.18,-19.17 196.65,-19.41 193.41,-20.3 195.64,-21.42 195.64,-21.42 195.64,-21.42 193.41,-20.3 194.63,-23.43 191.18,-19.17 191.18,-19.17"/>
</a>
</g>
</g>
</g>
</svg>
