<?xml version="1.0" encoding="UTF-8" standalone="no"?>
<!DOCTYPE svg PUBLIC "-//W3C//DTD SVG 1.1//EN"
 "http://www.w3.org/Graphics/SVG/1.1/DTD/svg11.dtd">
<!-- Generated by graphviz version 2.43.0 (0)
 -->
<!-- Title: Server_Counter::setCount Pages: 1 -->
<svg width="350pt" height="64pt"
 viewBox="0.00 0.00 350.00 64.00" xmlns="http://www.w3.org/2000/svg" xmlns:xlink="http://www.w3.org/1999/xlink">

<svg id="main" version="1.1" xmlns="http://www.w3.org/2000/svg" xmlns:xlink="http://www.w3.org/1999/xlink" xml:space="preserve" onload="init(evt)">
<style type="text/css"><![CDATA[
.node, .edge {opacity: 0.7;}
.node.selected, .edge.selected {opacity: 1;}
.edge:hover path { stroke: red; }
.edge:hover polygon { stroke: red; fill: red; }
]]></style>
<script type="application/ecmascript" xlink:href="../../svg.min.js"/>
<svg id="graph" class="graph">
<g id="graph0" class="graph" transform="scale(1 1) rotate(0) translate(4 60)">
<title>Server_Counter::setCount</title>
<!-- Node1 -->
<g id="Node000001" class="node">
<title>Node1</title>
<g id="a_Node000001"><a xlink:title=" ">
<polygon fill="#999999" stroke="#666666" points="342,-37 201,-37 201,-18 342,-18 342,-37"/>
<text text-anchor="middle" x="271.5" y="-25" font-family="Helvetica,sans-Serif" font-size="10.00">Server_Counter::setCount</text>
</a>
</g>
</g>
<!-- Node2 -->
<g id="Node000002" class="node">
<title>Node2</title>
<g id="a_Node000002"><a xlink:href="../../d8/d21/classServer__Player.html#ac51e8f6ab0cff879b9551d1b67cfd1d0" target="_top" xlink:title=" ">
<polygon fill="white" stroke="#666666" points="164.5,-56 0.5,-56 0.5,-37 164.5,-37 164.5,-56"/>
<text text-anchor="middle" x="82.5" y="-44" font-family="Helvetica,sans-Serif" font-size="10.00">Server_Player::cmdIncCounter</text>
</a>
</g>
</g>
<!-- Node1&#45;&gt;Node2 -->
<g id="edge1_Node000001_Node000002" class="edge">
<title>Node1&#45;&gt;Node2</title>
<g id="a_edge1_Node000001_Node000002"><a xlink:title=" ">
<path fill="none" stroke="#63b8ff" d="M195.84,-35.09C185.55,-36.13 174.94,-37.21 164.54,-38.27"/>
<polygon fill="#63b8ff" stroke="#63b8ff" points="200.87,-34.57 196.12,-37.32 198.38,-34.83 195.89,-35.08 195.89,-35.08 195.89,-35.08 198.38,-34.83 195.67,-32.84 200.87,-34.57 200.87,-34.57"/>
</a>
</g>
</g>
<!-- Node3 -->
<g id="Node000003" class="node">
<title>Node3</title>
<g id="a_Node000003"><a xlink:href="../../d8/d21/classServer__Player.html#adbfad6a6eb8b32ede88e8369642cd4a1" target="_top" xlink:title=" ">
<polygon fill="white" stroke="#666666" points="165,-19 0,-19 0,0 165,0 165,-19"/>
<text text-anchor="middle" x="82.5" y="-7" font-family="Helvetica,sans-Serif" font-size="10.00">Server_Player::cmdSetCounter</text>
</a>
</g>
</g>
<!-- Node1&#45;&gt;Node3 -->
<g id="edge2_Node000001_Node000003" class="edge">
<title>Node1&#45;&gt;Node3</title>
<g id="a_edge2_Node000001_Node000003"><a xlink:title=" ">
<path fill="none" stroke="#63b8ff" d="M195.66,-20.3C185.63,-19.33 175.31,-18.34 165.18,-17.36"/>
<polygon fill="#63b8ff" stroke="#63b8ff" points="200.87,-20.8 195.68,-22.56 198.38,-20.56 195.89,-20.32 195.89,-20.32 195.89,-20.32 198.38,-20.56 196.11,-18.08 200.87,-20.8 200.87,-20.8"/>
</a>
</g>
</g>
</g>
</svg>
</svg>

<style type='text/css'>
<![CDATA[
[data-mouse-over-selected='false'] { opacity: 0.7; }
[data-mouse-over-selected='true']  { opacity: 1.0; }
]]>
</style>
<script type="application/ecmascript"><![CDATA[
document.addEventListener('DOMContentLoaded', (event) => {
  highlightEdges();
  highlightAdjacentNodes();
});
]]></script>
</svg>
