<?xml version="1.0" encoding="UTF-8" standalone="no"?>
<!DOCTYPE svg PUBLIC "-//W3C//DTD SVG 1.1//EN"
 "http://www.w3.org/Graphics/SVG/1.1/DTD/svg11.dtd">
<!-- Generated by graphviz version 2.43.0 (0)
 -->
<!-- Title: MainWindow::actReloadCardDatabase Pages: 1 -->
<!--zoomable 523 -->

<svg id="main" version="1.1" xmlns="http://www.w3.org/2000/svg" xmlns:xlink="http://www.w3.org/1999/xlink" xml:space="preserve" onload="init(evt)">
<style type="text/css"><![CDATA[
.node, .edge {opacity: 0.7;}
.node.selected, .edge.selected {opacity: 1;}
.edge:hover path { stroke: red; }
.edge:hover polygon { stroke: red; fill: red; }
]]></style>

<defs>
  <circle id="rim" cx="0" cy="0" r="7"/>
  <circle id="rim2" cx="0" cy="0" r="3.5"/>
  <g id="zoomPlus">
    <use xlink:href="#rim" fill="#404040"><set attributeName="fill" to="#808080" begin="zoomplus.mouseover" end="zoomplus.mouseout"/></use>
    <path d="M-4,0h8M0,-4v8" fill="none" stroke="white" stroke-width="1.5" pointer-events="none"/>
  </g>
  <g id="zoomMin">
    <use xlink:href="#rim" fill="#404040"><set attributeName="fill" to="#808080" begin="zoomminus.mouseover" end="zoomminus.mouseout"/></use>
    <path d="M-4,0h8" fill="none" stroke="white" stroke-width="1.5" pointer-events="none"/>
  </g>
  <g id="arrowUp" transform="translate(30 24)">
    <use xlink:href="#rim"/>
    <path pointer-events="none" fill="none" stroke="white" stroke-width="1.5" d="M0,-3.0v7 M-2.5,-0.5L0,-3.0L2.5,-0.5"/>
  </g>
  <g id="arrowRight" transform="rotate(90) translate(36 -43)">
    <use xlink:href="#rim"/>
    <path pointer-events="none" fill="none" stroke="white" stroke-width="1.5" d="M0,-3.0v7 M-2.5,-0.5L0,-3.0L2.5,-0.5"/>
  </g>
  <g id="arrowDown" transform="rotate(180) translate(-30 -48)">
    <use xlink:href="#rim"/>
    <path pointer-events="none" fill="none" stroke="white" stroke-width="1.5" d="M0,-3.0v7 M-2.5,-0.5L0,-3.0L2.5,-0.5"/>
  </g>
  <g id="arrowLeft" transform="rotate(270) translate(-36 17)">
    <use xlink:href="#rim"/>
    <path pointer-events="none" fill="none" stroke="white" stroke-width="1.5" d="M0,-3.0v7 M-2.5,-0.5L0,-3.0L2.5,-0.5"/>
  </g>
  <g id="resetDef">
    <use xlink:href="#rim2" fill="#404040"><set attributeName="fill" to="#808080" begin="reset.mouseover" end="reset.mouseout"/></use>
  </g>
</defs>
<script type="application/ecmascript">
var viewWidth = 1155;
var viewHeight = 523;
var sectionId = 'dynsection-35';
</script>
<script type="application/ecmascript" xlink:href="../../svg.min.js"/>
<svg id="graph" class="graph">
<g id="viewport">
<title>MainWindow::actReloadCardDatabase</title>
<!-- Node1 -->
<g id="Node000001" class="node">
<title>Node1</title>
<g id="a_Node000001"><a xlink:title=" ">
<polygon fill="#999999" stroke="#666666" points="156,-434 0,-434 0,-404 156,-404 156,-434"/>
<text text-anchor="start" x="8" y="-422" font-family="Helvetica,sans-Serif" font-size="10.00">MainWindow::actReloadCard</text>
<text text-anchor="middle" x="78" y="-411" font-family="Helvetica,sans-Serif" font-size="10.00">Database</text>
</a>
</g>
</g>
<!-- Node2 -->
<g id="Node000002" class="node">
<title>Node2</title>
<g id="a_Node000002"><a xlink:href="../../d5/d88/classSettingsCache.html#ab2d0f544c3638f37ebdb8cd515e5e327" target="_top" xlink:title=" ">
<polygon fill="white" stroke="#666666" points="358,-514.5 213,-514.5 213,-495.5 358,-495.5 358,-514.5"/>
<text text-anchor="middle" x="285.5" y="-502.5" font-family="Helvetica,sans-Serif" font-size="10.00">SettingsCache::downloads</text>
</a>
</g>
</g>
<!-- Node1&#45;&gt;Node2 -->
<g id="edge1_Node000001_Node000002" class="edge">
<title>Node1&#45;&gt;Node2</title>
<g id="a_edge1_Node000001_Node000002"><a xlink:title=" ">
<path fill="none" stroke="#63b8ff" d="M99.58,-434.08C121.44,-449.39 157.54,-472.68 192,-486 200.39,-489.24 209.42,-491.97 218.45,-494.25"/>
<polygon fill="#63b8ff" stroke="#63b8ff" points="223.46,-495.47 218.07,-496.47 221.03,-494.88 218.6,-494.28 218.6,-494.28 218.6,-494.28 221.03,-494.88 219.14,-492.1 223.46,-495.47 223.46,-495.47"/>
</a>
</g>
</g>
<!-- Node3 -->
<g id="Node000003" class="node">
<title>Node3</title>
<g id="a_Node000003"><a xlink:href="../../dc/db4/classCardDatabaseManager.html#ad3973b040eb93df3be6bd2e790c53d59" target="_top" xlink:title=" ">
<polygon fill="white" stroke="#666666" points="349.5,-477 221.5,-477 221.5,-447 349.5,-447 349.5,-477"/>
<text text-anchor="start" x="229.5" y="-465" font-family="Helvetica,sans-Serif" font-size="10.00">CardDatabaseManager</text>
<text text-anchor="middle" x="285.5" y="-454" font-family="Helvetica,sans-Serif" font-size="10.00">::getInstance</text>
</a>
</g>
</g>
<!-- Node1&#45;&gt;Node3 -->
<g id="edge2_Node000001_Node000003" class="edge">
<title>Node1&#45;&gt;Node3</title>
<g id="a_edge2_Node000001_Node000003"><a xlink:title=" ">
<path fill="none" stroke="#63b8ff" d="M150.87,-434.04C172.09,-438.48 195.24,-443.32 216.23,-447.71"/>
<polygon fill="#63b8ff" stroke="#63b8ff" points="221.23,-448.76 215.87,-449.94 218.78,-448.25 216.33,-447.74 216.33,-447.74 216.33,-447.74 218.78,-448.25 216.79,-445.53 221.23,-448.76 221.23,-448.76"/>
</a>
</g>
</g>
<!-- Node4 -->
<g id="Node000004" class="node">
<title>Node4</title>
<g id="a_Node000004"><a xlink:href="../../d5/d88/classSettingsCache.html#adfa7f9f975919981b992db1fca9e4957" target="_top" xlink:title=" ">
<polygon fill="white" stroke="#666666" points="939.5,-429.5 805.5,-429.5 805.5,-410.5 939.5,-410.5 939.5,-429.5"/>
<text text-anchor="middle" x="872.5" y="-417.5" font-family="Helvetica,sans-Serif" font-size="10.00">SettingsCache::instance</text>
</a>
</g>
</g>
<!-- Node1&#45;&gt;Node4 -->
<g id="edge3_Node000001_Node000004" class="edge">
<title>Node1&#45;&gt;Node4</title>
<g id="a_edge3_Node000001_Node000004"><a xlink:title=" ">
<path fill="none" stroke="#63b8ff" d="M156.07,-419.1C309.54,-419.29 651.36,-419.72 800.08,-419.91"/>
<polygon fill="#63b8ff" stroke="#63b8ff" points="805.29,-419.92 800.29,-422.16 802.79,-419.91 800.29,-419.91 800.29,-419.91 800.29,-419.91 802.79,-419.91 800.29,-417.66 805.29,-419.92 805.29,-419.92"/>
</a>
</g>
</g>
<!-- Node5 -->
<g id="Node000005" class="node">
<title>Node5</title>
<g id="a_Node000005"><a xlink:href="../../d5/d45/classCardDatabase.html#a4f94e38e40632d33d584187d7e1614f5" target="_top" xlink:title=" ">
<polygon fill="white" stroke="#666666" points="379,-390.5 192,-390.5 192,-371.5 379,-371.5 379,-390.5"/>
<text text-anchor="middle" x="285.5" y="-378.5" font-family="Helvetica,sans-Serif" font-size="10.00">CardDatabase::loadCardDatabases</text>
</a>
</g>
</g>
<!-- Node1&#45;&gt;Node5 -->
<g id="edge4_Node000001_Node000005" class="edge">
<title>Node1&#45;&gt;Node5</title>
<g id="a_edge4_Node000001_Node000005"><a xlink:title=" ">
<path fill="none" stroke="#63b8ff" d="M156.11,-404.74C179.93,-400.34 205.72,-395.57 227.89,-391.47"/>
<polygon fill="#63b8ff" stroke="#63b8ff" points="232.85,-390.55 228.35,-393.67 230.4,-391 227.94,-391.46 227.94,-391.46 227.94,-391.46 230.4,-391 227.53,-389.25 232.85,-390.55 232.85,-390.55"/>
</a>
</g>
</g>
<!-- Node24 -->
<g id="Node000024" class="node">
<title>Node24</title>
<g id="a_Node000024"><a xlink:href="../../d1/dea/classSettingsManager.html#a3b183f2b7c0e13753e2eb64f7cb5f1f5" target="_top" xlink:title=" ">
<polygon fill="white" stroke="#666666" points="349.5,-353.5 221.5,-353.5 221.5,-334.5 349.5,-334.5 349.5,-353.5"/>
<text text-anchor="middle" x="285.5" y="-341.5" font-family="Helvetica,sans-Serif" font-size="10.00">SettingsManager::sync</text>
</a>
</g>
</g>
<!-- Node1&#45;&gt;Node24 -->
<g id="edge25_Node000001_Node000024" class="edge">
<title>Node1&#45;&gt;Node24</title>
<g id="a_edge25_Node000001_Node000024"><a xlink:title=" ">
<path fill="none" stroke="#63b8ff" d="M104.15,-403.78C126.49,-390.88 160.4,-372.81 192,-362 200.08,-359.24 208.7,-356.85 217.32,-354.81"/>
<polygon fill="#63b8ff" stroke="#63b8ff" points="222.68,-353.58 218.31,-356.89 220.24,-354.14 217.8,-354.7 217.8,-354.7 217.8,-354.7 220.24,-354.14 217.3,-352.5 222.68,-353.58 222.68,-353.58"/>
</a>
</g>
</g>
<!-- Node6 -->
<g id="Node000006" class="node">
<title>Node6</title>
<g id="a_Node000006"><a xlink:href="../../d2/d1b/classCardDatabaseLoader.html#ac0cd4d50fa61eeebb743b527f7564fea" target="_top" xlink:title=" ">
<polygon fill="white" stroke="#666666" points="534,-244 415,-244 415,-214 534,-214 534,-244"/>
<text text-anchor="start" x="423" y="-232" font-family="Helvetica,sans-Serif" font-size="10.00">CardDatabaseLoader</text>
<text text-anchor="middle" x="474.5" y="-221" font-family="Helvetica,sans-Serif" font-size="10.00">::loadCardDatabases</text>
</a>
</g>
</g>
<!-- Node5&#45;&gt;Node6 -->
<g id="edge5_Node000005_Node000006" class="edge">
<title>Node5&#45;&gt;Node6</title>
<g id="a_edge5_Node000005_Node000006"><a xlink:title=" ">
<path fill="none" stroke="#63b8ff" d="M359.78,-371.42C366.56,-368.94 373.09,-365.85 379,-362 422.06,-333.92 451.57,-278.8 465.09,-249.1"/>
<polygon fill="#63b8ff" stroke="#63b8ff" points="467.28,-244.21 467.29,-249.69 466.26,-246.49 465.24,-248.78 465.24,-248.78 465.24,-248.78 466.26,-246.49 463.18,-247.86 467.28,-244.21 467.28,-244.21"/>
</a>
</g>
</g>
<!-- Node6&#45;&gt;Node4 -->
<g id="edge18_Node000006_Node000004" class="edge">
<title>Node6&#45;&gt;Node4</title>
<g id="a_edge18_Node000006_Node000004"><a xlink:title=" ">
<path fill="none" stroke="#63b8ff" d="M482.01,-244.32C494.63,-272.01 525.16,-330.2 570,-359 589.79,-371.71 725.07,-395.8 807.55,-409.6"/>
<polygon fill="#63b8ff" stroke="#63b8ff" points="812.91,-410.5 807.6,-411.89 810.44,-410.09 807.97,-409.67 807.97,-409.67 807.97,-409.67 810.44,-410.09 808.34,-407.45 812.91,-410.5 812.91,-410.5"/>
</a>
</g>
</g>
<!-- Node7 -->
<g id="Node000007" class="node">
<title>Node7</title>
<g id="a_Node000007"><a xlink:href="../../d5/d45/classCardDatabase.html#a574a373af165a06fe47abed197c69740" target="_top" xlink:title=" ">
<polygon fill="white" stroke="#666666" points="757,-296.5 570,-296.5 570,-277.5 757,-277.5 757,-296.5"/>
<text text-anchor="middle" x="663.5" y="-284.5" font-family="Helvetica,sans-Serif" font-size="10.00">CardDatabase::checkUnknownSets</text>
</a>
</g>
</g>
<!-- Node6&#45;&gt;Node7 -->
<g id="edge6_Node000006_Node000007" class="edge">
<title>Node6&#45;&gt;Node7</title>
<g id="a_edge6_Node000006_Node000007"><a xlink:title=" ">
<path fill="none" stroke="#63b8ff" d="M507.75,-244.09C525.76,-252.06 548.79,-261.51 570,-268 580.33,-271.16 591.47,-273.96 602.33,-276.36"/>
<polygon fill="#63b8ff" stroke="#63b8ff" points="607.29,-277.44 601.92,-278.58 604.84,-276.91 602.4,-276.38 602.4,-276.38 602.4,-276.38 604.84,-276.91 602.88,-274.18 607.29,-277.44 607.29,-277.44"/>
</a>
</g>
</g>
<!-- Node13 -->
<g id="Node000013" class="node">
<title>Node13</title>
<g id="a_Node000013"><a xlink:href="../../d5/d45/classCardDatabase.html#a6b94e105b2f10c150e9fc81a8fbd48df" target="_top" xlink:title=" ">
<polygon fill="white" stroke="#666666" points="721.5,-259.5 605.5,-259.5 605.5,-240.5 721.5,-240.5 721.5,-259.5"/>
<text text-anchor="middle" x="663.5" y="-247.5" font-family="Helvetica,sans-Serif" font-size="10.00">CardDatabase::clear</text>
</a>
</g>
</g>
<!-- Node6&#45;&gt;Node13 -->
<g id="edge12_Node000006_Node000013" class="edge">
<title>Node6&#45;&gt;Node13</title>
<g id="a_edge12_Node000006_Node000013"><a xlink:title=" ">
<path fill="none" stroke="#63b8ff" d="M534.15,-235.59C555.18,-237.95 578.94,-240.62 600.26,-243.01"/>
<polygon fill="#63b8ff" stroke="#63b8ff" points="605.33,-243.58 600.11,-245.26 602.85,-243.3 600.37,-243.02 600.37,-243.02 600.37,-243.02 602.85,-243.3 600.62,-240.79 605.33,-243.58 605.33,-243.58"/>
</a>
</g>
</g>
<!-- Node17 -->
<g id="Node000017" class="node">
<title>Node17</title>
<g id="a_Node000017"><a xlink:href="../../d2/d1b/classCardDatabaseLoader.html#aa1b7a8668bc802a93f63b275305b2988" target="_top" xlink:title=" ">
<polygon fill="white" stroke="#666666" points="746,-350 581,-350 581,-320 746,-320 746,-350"/>
<text text-anchor="start" x="589" y="-338" font-family="Helvetica,sans-Serif" font-size="10.00">CardDatabaseLoader</text>
<text text-anchor="middle" x="663.5" y="-327" font-family="Helvetica,sans-Serif" font-size="10.00">::collectCustomDatabasePaths</text>
</a>
</g>
</g>
<!-- Node6&#45;&gt;Node17 -->
<g id="edge16_Node000006_Node000017" class="edge">
<title>Node6&#45;&gt;Node17</title>
<g id="a_edge16_Node000006_Node000017"><a xlink:title=" ">
<path fill="none" stroke="#63b8ff" d="M490.61,-244.11C508.28,-261.03 539.07,-288.28 570,-305 579.4,-310.08 589.81,-314.48 600.15,-318.23"/>
<polygon fill="#63b8ff" stroke="#63b8ff" points="604.9,-319.91 599.43,-320.36 602.54,-319.08 600.18,-318.24 600.18,-318.24 600.18,-318.24 602.54,-319.08 600.93,-316.12 604.9,-319.91 604.9,-319.91"/>
</a>
</g>
</g>
<!-- Node18 -->
<g id="Node000018" class="node">
<title>Node18</title>
<g id="a_Node000018"><a xlink:href="../../d2/d1b/classCardDatabaseLoader.html#a770f7109e9fd981cb238999206017d59" target="_top" xlink:title=" ">
<polygon fill="white" stroke="#666666" points="723,-222 604,-222 604,-192 723,-192 723,-222"/>
<text text-anchor="start" x="612" y="-210" font-family="Helvetica,sans-Serif" font-size="10.00">CardDatabaseLoader</text>
<text text-anchor="middle" x="663.5" y="-199" font-family="Helvetica,sans-Serif" font-size="10.00">::loadCardDatabase</text>
</a>
</g>
</g>
<!-- Node6&#45;&gt;Node18 -->
<g id="edge19_Node000006_Node000018" class="edge">
<title>Node6&#45;&gt;Node18</title>
<g id="a_edge19_Node000006_Node000018"><a xlink:title=" ">
<path fill="none" stroke="#63b8ff" d="M534.15,-222.1C554.68,-219.68 577.82,-216.96 598.75,-214.5"/>
<polygon fill="#63b8ff" stroke="#63b8ff" points="603.73,-213.91 599.03,-216.73 601.25,-214.21 598.77,-214.5 598.77,-214.5 598.77,-214.5 601.25,-214.21 598.5,-212.26 603.73,-213.91 603.73,-213.91"/>
</a>
</g>
</g>
<!-- Node20 -->
<g id="Node000020" class="node">
<title>Node20</title>
<g id="a_Node000020"><a xlink:href="../../d2/d1b/classCardDatabaseLoader.html#a0713a543ff21174c295adae0ce62afda" target="_top" xlink:title=" ">
<polygon fill="white" stroke="#666666" points="723,-174 604,-174 604,-144 723,-144 723,-174"/>
<text text-anchor="start" x="612" y="-162" font-family="Helvetica,sans-Serif" font-size="10.00">CardDatabaseLoader</text>
<text text-anchor="middle" x="663.5" y="-151" font-family="Helvetica,sans-Serif" font-size="10.00">::loadingFailed</text>
</a>
</g>
</g>
<!-- Node6&#45;&gt;Node20 -->
<g id="edge21_Node000006_Node000020" class="edge">
<title>Node6&#45;&gt;Node20</title>
<g id="a_edge21_Node000006_Node000020"><a xlink:title=" ">
<path fill="none" stroke="#63b8ff" d="M502.98,-213.82C521.5,-204.03 546.72,-191.59 570,-183 579.15,-179.63 588.97,-176.54 598.67,-173.78"/>
<polygon fill="#63b8ff" stroke="#63b8ff" points="603.73,-172.37 599.52,-175.88 601.32,-173.04 598.91,-173.71 598.91,-173.71 598.91,-173.71 601.32,-173.04 598.31,-171.54 603.73,-172.37 603.73,-172.37"/>
</a>
</g>
</g>
<!-- Node21 -->
<g id="Node000021" class="node">
<title>Node21</title>
<g id="a_Node000021"><a xlink:href="../../d2/d1b/classCardDatabaseLoader.html#a109926cdfec10dd979c64b7aa436bf27" target="_top" xlink:title=" ">
<polygon fill="white" stroke="#666666" points="723,-126 604,-126 604,-96 723,-96 723,-126"/>
<text text-anchor="start" x="612" y="-114" font-family="Helvetica,sans-Serif" font-size="10.00">CardDatabaseLoader</text>
<text text-anchor="middle" x="663.5" y="-103" font-family="Helvetica,sans-Serif" font-size="10.00">::loadingFinished</text>
</a>
</g>
</g>
<!-- Node6&#45;&gt;Node21 -->
<g id="edge22_Node000006_Node000021" class="edge">
<title>Node6&#45;&gt;Node21</title>
<g id="a_edge22_Node000006_Node000021"><a xlink:title=" ">
<path fill="none" stroke="#63b8ff" d="M486.51,-213.82C502.51,-192.88 534.22,-155.41 570,-135 578.92,-129.91 588.93,-125.89 598.98,-122.7"/>
<polygon fill="#63b8ff" stroke="#63b8ff" points="603.92,-121.2 599.79,-124.81 601.52,-121.93 599.13,-122.65 599.13,-122.65 599.13,-122.65 601.52,-121.93 598.48,-120.5 603.92,-121.2 603.92,-121.2"/>
</a>
</g>
</g>
<!-- Node22 -->
<g id="Node000022" class="node">
<title>Node22</title>
<g id="a_Node000022"><a xlink:href="../../d2/d1b/classCardDatabaseLoader.html#a202ed30a19622cd54e7e351473bfcc77" target="_top" xlink:title=" ">
<polygon fill="white" stroke="#666666" points="723,-78 604,-78 604,-48 723,-48 723,-78"/>
<text text-anchor="start" x="612" y="-66" font-family="Helvetica,sans-Serif" font-size="10.00">CardDatabaseLoader</text>
<text text-anchor="middle" x="663.5" y="-55" font-family="Helvetica,sans-Serif" font-size="10.00">::loadingStarted</text>
</a>
</g>
</g>
<!-- Node6&#45;&gt;Node22 -->
<g id="edge23_Node000006_Node000022" class="edge">
<title>Node6&#45;&gt;Node22</title>
<g id="a_edge23_Node000006_Node000022"><a xlink:title=" ">
<path fill="none" stroke="#63b8ff" d="M481.21,-213.91C493.06,-184.69 523.2,-120.32 570,-87 578.59,-80.88 588.63,-76.32 598.85,-72.92"/>
<polygon fill="#63b8ff" stroke="#63b8ff" points="603.88,-71.35 599.79,-74.99 601.5,-72.09 599.11,-72.84 599.11,-72.84 599.11,-72.84 601.5,-72.09 598.44,-70.69 603.88,-71.35 603.88,-71.35"/>
</a>
</g>
</g>
<!-- Node23 -->
<g id="Node000023" class="node">
<title>Node23</title>
<g id="a_Node000023"><a xlink:href="../../d5/d45/classCardDatabase.html#a3bc03b512064c4cbf97fc61c4488afbe" target="_top" xlink:title=" ">
<polygon fill="white" stroke="#666666" points="744.5,-30 582.5,-30 582.5,0 744.5,0 744.5,-30"/>
<text text-anchor="start" x="590.5" y="-18" font-family="Helvetica,sans-Serif" font-size="10.00">CardDatabase::refreshCached</text>
<text text-anchor="middle" x="663.5" y="-7" font-family="Helvetica,sans-Serif" font-size="10.00">ReverseRelatedCards</text>
</a>
</g>
</g>
<!-- Node6&#45;&gt;Node23 -->
<g id="edge24_Node000006_Node000023" class="edge">
<title>Node6&#45;&gt;Node23</title>
<g id="a_edge24_Node000006_Node000023"><a xlink:title=" ">
<path fill="none" stroke="#63b8ff" d="M478.51,-214C486.53,-177.98 511.92,-86.12 570,-39 572.92,-36.63 576.05,-34.49 579.33,-32.56"/>
<polygon fill="#63b8ff" stroke="#63b8ff" points="583.89,-30.05 580.59,-34.43 581.7,-31.26 579.51,-32.46 579.51,-32.46 579.51,-32.46 581.7,-31.26 578.43,-30.49 583.89,-30.05 583.89,-30.05"/>
</a>
</g>
</g>
<!-- Node8 -->
<g id="Node000008" class="node">
<title>Node8</title>
<g id="a_Node000008"><a xlink:href="../../d5/d45/classCardDatabase.html#a03b65551376df53526a834ace1b7e844" target="_top" xlink:title=" ">
<polygon fill="white" stroke="#666666" points="952,-392 793,-392 793,-362 952,-362 952,-392"/>
<text text-anchor="start" x="801" y="-380" font-family="Helvetica,sans-Serif" font-size="10.00">CardDatabase::cardDatabase</text>
<text text-anchor="middle" x="872.5" y="-369" font-family="Helvetica,sans-Serif" font-size="10.00">AllNewSetsEnabled</text>
</a>
</g>
</g>
<!-- Node7&#45;&gt;Node8 -->
<g id="edge7_Node000007_Node000008" class="edge">
<title>Node7&#45;&gt;Node8</title>
<g id="a_edge7_Node000007_Node000008"><a xlink:title=" ">
<path fill="none" stroke="#63b8ff" d="M723.46,-296.57C735.12,-300.01 746.87,-304.67 757,-311 777.86,-324.02 772.43,-339.54 793,-353 796.85,-355.52 800.98,-357.79 805.26,-359.83"/>
<polygon fill="#63b8ff" stroke="#63b8ff" points="809.95,-361.95 804.47,-361.94 807.68,-360.92 805.4,-359.89 805.4,-359.89 805.4,-359.89 807.68,-360.92 806.33,-357.84 809.95,-361.95 809.95,-361.95"/>
</a>
</g>
</g>
<!-- Node9 -->
<g id="Node000009" class="node">
<title>Node9</title>
<g id="a_Node000009"><a xlink:href="../../d5/d45/classCardDatabase.html#a1eb7590a33df0f848f67562dbc179187" target="_top" xlink:title=" ">
<polygon fill="white" stroke="#666666" points="952,-344 793,-344 793,-314 952,-314 952,-344"/>
<text text-anchor="start" x="801" y="-332" font-family="Helvetica,sans-Serif" font-size="10.00">CardDatabase::cardDatabase</text>
<text text-anchor="middle" x="872.5" y="-321" font-family="Helvetica,sans-Serif" font-size="10.00">NewSetsFound</text>
</a>
</g>
</g>
<!-- Node7&#45;&gt;Node9 -->
<g id="edge8_Node000007_Node000009" class="edge">
<title>Node7&#45;&gt;Node9</title>
<g id="a_edge8_Node000007_Node000009"><a xlink:title=" ">
<path fill="none" stroke="#63b8ff" d="M711.47,-296.53C735.39,-301.38 765.12,-307.42 792.44,-312.96"/>
<polygon fill="#63b8ff" stroke="#63b8ff" points="797.51,-313.99 792.16,-315.2 795.06,-313.49 792.61,-312.99 792.61,-312.99 792.61,-312.99 795.06,-313.49 793.06,-310.79 797.51,-313.99 797.51,-313.99"/>
</a>
</g>
</g>
<!-- Node10 -->
<g id="Node000010" class="node">
<title>Node10</title>
<g id="a_Node000010"><a xlink:href="../../d5/d45/classCardDatabase.html#a57aff9cd51f83c06bd58794f4c52dba2" target="_top" xlink:title=" ">
<polygon fill="white" stroke="#666666" points="942.5,-295.5 802.5,-295.5 802.5,-276.5 942.5,-276.5 942.5,-295.5"/>
<text text-anchor="middle" x="872.5" y="-283.5" font-family="Helvetica,sans-Serif" font-size="10.00">CardDatabase::getSetList</text>
</a>
</g>
</g>
<!-- Node7&#45;&gt;Node10 -->
<g id="edge9_Node000007_Node000010" class="edge">
<title>Node7&#45;&gt;Node10</title>
<g id="a_edge9_Node000007_Node000010"><a xlink:title=" ">
<path fill="none" stroke="#63b8ff" d="M757.1,-286.55C770.5,-286.49 784.15,-286.42 797.13,-286.36"/>
<polygon fill="#63b8ff" stroke="#63b8ff" points="802.26,-286.33 797.27,-288.61 799.76,-286.35 797.26,-286.36 797.26,-286.36 797.26,-286.36 799.76,-286.35 797.25,-284.11 802.26,-286.33 802.26,-286.33"/>
</a>
</g>
</g>
<!-- Node11 -->
<g id="Node000011" class="node">
<title>Node11</title>
<g id="a_Node000011"><a xlink:href="../../d5/d45/classCardDatabase.html#a56a3727444527703459220022c118025" target="_top" xlink:title=" ">
<polygon fill="white" stroke="#666666" points="951.5,-258 793.5,-258 793.5,-228 951.5,-228 951.5,-258"/>
<text text-anchor="start" x="801.5" y="-246" font-family="Helvetica,sans-Serif" font-size="10.00">CardDatabase::notifyEnabled</text>
<text text-anchor="middle" x="872.5" y="-235" font-family="Helvetica,sans-Serif" font-size="10.00">SetsChanged</text>
</a>
</g>
</g>
<!-- Node7&#45;&gt;Node11 -->
<g id="edge10_Node000007_Node000011" class="edge">
<title>Node7&#45;&gt;Node11</title>
<g id="a_edge10_Node000007_Node000011"><a xlink:title=" ">
<path fill="none" stroke="#63b8ff" d="M711.58,-277.45C726.15,-274.46 742.24,-271.13 757,-268 770.38,-265.16 784.64,-262.09 798.38,-259.11"/>
<polygon fill="#63b8ff" stroke="#63b8ff" points="803.42,-258.01 799.01,-261.27 800.97,-258.54 798.53,-259.07 798.53,-259.07 798.53,-259.07 800.97,-258.54 798.05,-256.88 803.42,-258.01 803.42,-258.01"/>
</a>
</g>
</g>
<!-- Node12 -->
<g id="Node000012" class="node">
<title>Node12</title>
<g id="a_Node000012"><a xlink:href="../../d5/d45/classCardDatabase.html#a4a8f2b397614d45d8db3ce25e7fa2d88" target="_top" xlink:title=" ">
<polygon fill="white" stroke="#666666" points="1147,-258 988,-258 988,-228 1147,-228 1147,-258"/>
<text text-anchor="start" x="996" y="-246" font-family="Helvetica,sans-Serif" font-size="10.00">CardDatabase::cardDatabase</text>
<text text-anchor="middle" x="1067.5" y="-235" font-family="Helvetica,sans-Serif" font-size="10.00">EnabledSetsChanged</text>
</a>
</g>
</g>
<!-- Node11&#45;&gt;Node12 -->
<g id="edge11_Node000011_Node000012" class="edge">
<title>Node11&#45;&gt;Node12</title>
<g id="a_edge11_Node000011_Node000012"><a xlink:title=" ">
<path fill="none" stroke="#63b8ff" d="M951.72,-243C961.96,-243 972.48,-243 982.8,-243"/>
<polygon fill="#63b8ff" stroke="#63b8ff" points="987.85,-243 982.85,-245.25 985.35,-243 982.85,-243 982.85,-243 982.85,-243 985.35,-243 982.85,-240.75 987.85,-243 987.85,-243"/>
</a>
</g>
</g>
<!-- Node14 -->
<g id="Node000014" class="node">
<title>Node14</title>
<g id="a_Node000014"><a xlink:href="../../d4/dfe/classICardDatabaseParser.html#a2586623f68369edcd6fcaa28d6ac1355" target="_top" xlink:title=" ">
<polygon fill="white" stroke="#666666" points="932,-210 813,-210 813,-180 932,-180 932,-210"/>
<text text-anchor="start" x="821" y="-198" font-family="Helvetica,sans-Serif" font-size="10.00">ICardDatabaseParser</text>
<text text-anchor="middle" x="872.5" y="-187" font-family="Helvetica,sans-Serif" font-size="10.00">::clearSetlist</text>
</a>
</g>
</g>
<!-- Node13&#45;&gt;Node14 -->
<g id="edge13_Node000013_Node000014" class="edge">
<title>Node13&#45;&gt;Node14</title>
<g id="a_edge13_Node000013_Node000014"><a xlink:title=" ">
<path fill="none" stroke="#63b8ff" d="M716.61,-240.43C729.86,-237.69 744.02,-234.48 757,-231 773.29,-226.63 776.93,-224.13 793,-219 800.64,-216.56 808.72,-214.03 816.68,-211.57"/>
<polygon fill="#63b8ff" stroke="#63b8ff" points="821.61,-210.05 817.49,-213.67 819.22,-210.78 816.83,-211.52 816.83,-211.52 816.83,-211.52 819.22,-210.78 816.17,-209.37 821.61,-210.05 821.61,-210.05"/>
</a>
</g>
</g>
<!-- Node15 -->
<g id="Node000015" class="node">
<title>Node15</title>
<g id="a_Node000015"><a xlink:href="../../d5/d45/classCardDatabase.html#ad58ff025ac9f4aab3bc840deeb689dd1" target="_top" xlink:title=" ">
<polygon fill="white" stroke="#666666" points="948.5,-161.5 796.5,-161.5 796.5,-142.5 948.5,-142.5 948.5,-161.5"/>
<text text-anchor="middle" x="872.5" y="-149.5" font-family="Helvetica,sans-Serif" font-size="10.00">CardDatabase::removeCard</text>
</a>
</g>
</g>
<!-- Node13&#45;&gt;Node15 -->
<g id="edge14_Node000013_Node000015" class="edge">
<title>Node13&#45;&gt;Node15</title>
<g id="a_edge14_Node000013_Node000015"><a xlink:title=" ">
<path fill="none" stroke="#63b8ff" d="M721.82,-245.83C734.23,-242.93 746.7,-238.3 757,-231 782.37,-213.02 767.94,-189.42 793,-171 796.98,-168.07 801.36,-165.59 805.94,-163.49"/>
<polygon fill="#63b8ff" stroke="#63b8ff" points="810.58,-161.51 806.87,-165.54 808.28,-162.49 805.98,-163.47 805.98,-163.47 805.98,-163.47 808.28,-162.49 805.1,-161.4 810.58,-161.51 810.58,-161.51"/>
</a>
</g>
</g>
<!-- Node16 -->
<g id="Node000016" class="node">
<title>Node16</title>
<g id="a_Node000016"><a xlink:href="../../d5/d45/classCardDatabase.html#a68b4169947d4d9ddbe3b76a19ddea3eb" target="_top" xlink:title=" ">
<polygon fill="white" stroke="#666666" points="1147,-161.5 988,-161.5 988,-142.5 1147,-142.5 1147,-161.5"/>
<text text-anchor="middle" x="1067.5" y="-149.5" font-family="Helvetica,sans-Serif" font-size="10.00">CardDatabase::cardRemoved</text>
</a>
</g>
</g>
<!-- Node15&#45;&gt;Node16 -->
<g id="edge15_Node000015_Node000016" class="edge">
<title>Node15&#45;&gt;Node16</title>
<g id="a_edge15_Node000015_Node000016"><a xlink:title=" ">
<path fill="none" stroke="#63b8ff" d="M948.67,-152C959.78,-152 971.28,-152 982.55,-152"/>
<polygon fill="#63b8ff" stroke="#63b8ff" points="987.71,-152 982.71,-154.25 985.21,-152 982.71,-152 982.71,-152 982.71,-152 985.21,-152 982.71,-149.75 987.71,-152 987.71,-152"/>
</a>
</g>
</g>
<!-- Node17&#45;&gt;Node4 -->
<g id="edge17_Node000017_Node000004" class="edge">
<title>Node17&#45;&gt;Node4</title>
<g id="a_edge17_Node000017_Node000004"><a xlink:title=" ">
<path fill="none" stroke="#63b8ff" d="M722.54,-350.01C734.38,-354.28 746.44,-359.57 757,-366 776.06,-377.61 773.46,-390.22 793,-401 798.58,-404.08 804.64,-406.66 810.86,-408.83"/>
<polygon fill="#63b8ff" stroke="#63b8ff" points="815.63,-410.41 810.17,-410.97 813.25,-409.62 810.88,-408.84 810.88,-408.84 810.88,-408.84 813.25,-409.62 811.59,-406.7 815.63,-410.41 815.63,-410.41"/>
</a>
</g>
</g>
<!-- Node19 -->
<g id="Node000019" class="node">
<title>Node19</title>
<g id="a_Node000019"><a xlink:href="../../d2/d1b/classCardDatabaseLoader.html#aa1b6ffc4fc12c80961f07474705fc188" target="_top" xlink:title=" ">
<polygon fill="white" stroke="#666666" points="932,-124 813,-124 813,-94 932,-94 932,-124"/>
<text text-anchor="start" x="821" y="-112" font-family="Helvetica,sans-Serif" font-size="10.00">CardDatabaseLoader</text>
<text text-anchor="middle" x="872.5" y="-101" font-family="Helvetica,sans-Serif" font-size="10.00">::loadFromFile</text>
</a>
</g>
</g>
<!-- Node18&#45;&gt;Node19 -->
<g id="edge20_Node000018_Node000019" class="edge">
<title>Node18&#45;&gt;Node19</title>
<g id="a_edge20_Node000018_Node000019"><a xlink:title=" ">
<path fill="none" stroke="#63b8ff" d="M723.4,-198.23C735.19,-194.73 747.01,-189.84 757,-183 779.6,-167.53 770.74,-148.95 793,-133 797.71,-129.63 802.9,-126.72 808.3,-124.22"/>
<polygon fill="#63b8ff" stroke="#63b8ff" points="812.88,-122.21 809.2,-126.28 810.59,-123.21 808.3,-124.22 808.3,-124.22 808.3,-124.22 810.59,-123.21 807.39,-122.16 812.88,-122.21 812.88,-122.21"/>
</a>
</g>
</g>
</g>
</svg>

<g id="navigator" transform="translate(0 0)" fill="#404254">
  <rect fill="#f2f5e9" fill-opacity="0.5" stroke="#606060" stroke-width=".5" x="0" y="0" width="60" height="60"/>
  <use id="zoomplus" xlink:href="#zoomPlus" x="17" y="9" onmousedown="handleZoom(evt,'in')"/>
  <use id="zoomminus" xlink:href="#zoomMin" x="42" y="9" onmousedown="handleZoom(evt,'out')"/>
  <use id="reset" xlink:href="#resetDef" x="30" y="36" onmousedown="handleReset()"/>
   <use id="arrowup" xlink:href="#arrowUp" x="0" y="0" onmousedown="handlePan(0,-1)"/>
  <use id="arrowright" xlink:href="#arrowRight" x="0" y="0" onmousedown="handlePan(1,0)"/>
  <use id="arrowdown" xlink:href="#arrowDown" x="0" y="0" onmousedown="handlePan(0,1)"/>
  <use id="arrowleft" xlink:href="#arrowLeft" x="0" y="0" onmousedown="handlePan(-1,0)"/>
</g>
<svg viewBox="0 0 15 15" width="100%" height="30px" preserveAspectRatio="xMaxYMin meet">
 <g id="arrow_out" transform="scale(0.3 0.3)">
  <a xlink:href="classMainWindow_ad4ad29563ec97c8a4944bcd94f89e845_cgraph_org.svg" target="_base">
   <rect id="button" ry="5" rx="5" y="6" x="6" height="38" width="38"
        fill="#f2f5e9" fill-opacity="0.5" stroke="#606060" stroke-width="1.0"/>
   <path id="arrow"
     d="M 11.500037,31.436501 C 11.940474,20.09759 22.043105,11.32322 32.158766,21.979434 L 37.068811,17.246167 C 37.068811,17.246167 37.088388,32 37.088388,32 L 22.160133,31.978069 C 22.160133,31.978069 26.997745,27.140456 26.997745,27.140456 C 18.528582,18.264221 13.291696,25.230495 11.500037,31.436501 z"
     style="fill:#404040;"/>
  </a>
 </g>
</svg>

<style type='text/css'>
<![CDATA[
[data-mouse-over-selected='false'] { opacity: 0.7; }
[data-mouse-over-selected='true']  { opacity: 1.0; }
]]>
</style>
<script type="application/ecmascript"><![CDATA[
document.addEventListener('DOMContentLoaded', (event) => {
  highlightEdges();
  highlightAdjacentNodes();
});
]]></script>
</svg>
