<?xml version="1.0" encoding="UTF-8" standalone="no"?>
<!DOCTYPE svg PUBLIC "-//W3C//DTD SVG 1.1//EN"
 "http://www.w3.org/Graphics/SVG/1.1/DTD/svg11.dtd">
<!-- Generated by graphviz version 2.43.0 (0)
 -->
<!-- Title: cockatrice/src/interface/widgets/tabs/tab_deck_storage.h Pages: 1 -->
<svg width="676pt" height="247pt"
 viewBox="0.00 0.00 676.00 247.00" xmlns="http://www.w3.org/2000/svg" xmlns:xlink="http://www.w3.org/1999/xlink">
<g id="graph0" class="graph" transform="scale(1 1) rotate(0) translate(4 243)">
<title>cockatrice/src/interface/widgets/tabs/tab_deck_storage.h</title>
<!-- Node1 -->
<g id="Node000001" class="node">
<title>Node1</title>
<g id="a_Node000001"><a xlink:title="TODO: Document this.">
<polygon fill="#999999" stroke="#666666" points="236,-239 106,-239 106,-198 236,-198 236,-239"/>
<text text-anchor="start" x="114" y="-227" font-family="Helvetica,sans-Serif" font-size="10.00">cockatrice/src/interface</text>
<text text-anchor="start" x="114" y="-216" font-family="Helvetica,sans-Serif" font-size="10.00">/widgets/tabs/tab_deck</text>
<text text-anchor="middle" x="171" y="-205" font-family="Helvetica,sans-Serif" font-size="10.00">_storage.h</text>
</a>
</g>
</g>
<!-- Node2 -->
<g id="Node000002" class="node">
<title>Node2</title>
<g id="a_Node000002"><a xlink:title=" ">
<polygon fill="#e0e0e0" stroke="#999999" points="132,-162 0,-162 0,-121 132,-121 132,-162"/>
<text text-anchor="start" x="8" y="-150" font-family="Helvetica,sans-Serif" font-size="10.00">../interface/widgets</text>
<text text-anchor="start" x="8" y="-139" font-family="Helvetica,sans-Serif" font-size="10.00">/server/remote/remote</text>
<text text-anchor="middle" x="66" y="-128" font-family="Helvetica,sans-Serif" font-size="10.00">_decklist_tree_widget.h</text>
</a>
</g>
</g>
<!-- Node1&#45;&gt;Node2 -->
<g id="edge1_Node000001_Node000002" class="edge">
<title>Node1&#45;&gt;Node2</title>
<g id="a_edge1_Node000001_Node000002"><a xlink:title=" ">
<path fill="none" stroke="#63b8ff" d="M143.69,-197.99C129.7,-188 112.59,-175.78 97.99,-165.35"/>
<polygon fill="#63b8ff" stroke="#63b8ff" points="93.54,-162.17 98.92,-163.25 95.58,-163.63 97.61,-165.08 97.61,-165.08 97.61,-165.08 95.58,-163.63 96.3,-166.91 93.54,-162.17 93.54,-162.17"/>
</a>
</g>
</g>
<!-- Node3 -->
<g id="Node000003" class="node">
<title>Node3</title>
<g id="a_Node000003"><a xlink:href="../../d3/ddf/tab_8h.html" target="_top" xlink:title="TODO: Document this.">
<polygon fill="white" stroke="#666666" points="191.5,-151 150.5,-151 150.5,-132 191.5,-132 191.5,-151"/>
<text text-anchor="middle" x="171" y="-139" font-family="Helvetica,sans-Serif" font-size="10.00">tab.h</text>
</a>
</g>
</g>
<!-- Node1&#45;&gt;Node3 -->
<g id="edge2_Node000001_Node000003" class="edge">
<title>Node1&#45;&gt;Node3</title>
<g id="a_edge2_Node000001_Node000003"><a xlink:title=" ">
<path fill="none" stroke="#63b8ff" d="M171,-197.79C171,-184.82 171,-168.13 171,-156.5"/>
<polygon fill="#63b8ff" stroke="#63b8ff" points="171,-151.24 173.25,-156.24 171,-153.74 171,-156.24 171,-156.24 171,-156.24 171,-153.74 168.75,-156.24 171,-151.24 171,-151.24"/>
</a>
</g>
</g>
<!-- Node7 -->
<g id="Node000007" class="node">
<title>Node7</title>
<g id="a_Node000007"><a xlink:href="../../d5/db3/abstract__client_8h.html" target="_top" xlink:title="TODO: Document this.">
<polygon fill="white" stroke="#666666" points="413,-162 281,-162 281,-121 413,-121 413,-162"/>
<text text-anchor="start" x="289" y="-150" font-family="Helvetica,sans-Serif" font-size="10.00">libcockatrice/network</text>
<text text-anchor="start" x="289" y="-139" font-family="Helvetica,sans-Serif" font-size="10.00">/client/abstract/abstract</text>
<text text-anchor="middle" x="347" y="-128" font-family="Helvetica,sans-Serif" font-size="10.00">_client.h</text>
</a>
</g>
</g>
<!-- Node1&#45;&gt;Node7 -->
<g id="edge6_Node000001_Node000007" class="edge">
<title>Node1&#45;&gt;Node7</title>
<g id="a_edge6_Node000001_Node000007"><a xlink:title=" ">
<path fill="none" stroke="#63b8ff" d="M216.78,-197.99C241.23,-187.57 271.38,-174.72 296.51,-164.02"/>
<polygon fill="#63b8ff" stroke="#63b8ff" points="301.14,-162.04 297.42,-166.07 298.84,-163.02 296.54,-164 296.54,-164 296.54,-164 298.84,-163.02 295.66,-161.93 301.14,-162.04 301.14,-162.04"/>
</a>
</g>
</g>
<!-- Node4 -->
<g id="Node000004" class="node">
<title>Node4</title>
<g id="a_Node000004"><a xlink:title=" ">
<polygon fill="#e0e0e0" stroke="#999999" points="97.5,-79.5 10.5,-79.5 10.5,-60.5 97.5,-60.5 97.5,-79.5"/>
<text text-anchor="middle" x="54" y="-67.5" font-family="Helvetica,sans-Serif" font-size="10.00">QMainWindow</text>
</a>
</g>
</g>
<!-- Node3&#45;&gt;Node4 -->
<g id="edge3_Node000003_Node000004" class="edge">
<title>Node3&#45;&gt;Node4</title>
<g id="a_edge3_Node000003_Node000004"><a xlink:title=" ">
<path fill="none" stroke="#63b8ff" d="M158.25,-131.99C152.96,-128.52 146.72,-124.5 141,-121 118.45,-107.21 92.07,-92.2 74.32,-82.26"/>
<polygon fill="#63b8ff" stroke="#63b8ff" points="69.55,-79.6 75.01,-80.07 71.73,-80.82 73.92,-82.04 73.92,-82.04 73.92,-82.04 71.73,-80.82 72.82,-84 69.55,-79.6 69.55,-79.6"/>
</a>
</g>
</g>
<!-- Node5 -->
<g id="Node000005" class="node">
<title>Node5</title>
<g id="a_Node000005"><a xlink:href="../../dc/d89/card__ref_8h.html" target="_top" xlink:title=" ">
<polygon fill="white" stroke="#666666" points="226,-85 116,-85 116,-55 226,-55 226,-85"/>
<text text-anchor="start" x="124" y="-73" font-family="Helvetica,sans-Serif" font-size="10.00">libcockatrice/utility</text>
<text text-anchor="middle" x="171" y="-62" font-family="Helvetica,sans-Serif" font-size="10.00">/card_ref.h</text>
</a>
</g>
</g>
<!-- Node3&#45;&gt;Node5 -->
<g id="edge4_Node000003_Node000005" class="edge">
<title>Node3&#45;&gt;Node5</title>
<g id="a_edge4_Node000003_Node000005"><a xlink:title=" ">
<path fill="none" stroke="#63b8ff" d="M171,-131.98C171,-121.67 171,-104.02 171,-90.34"/>
<polygon fill="#63b8ff" stroke="#63b8ff" points="171,-85.14 173.25,-90.14 171,-87.64 171,-90.14 171,-90.14 171,-90.14 171,-87.64 168.75,-90.14 171,-85.14 171,-85.14"/>
</a>
</g>
</g>
<!-- Node6 -->
<g id="Node000006" class="node">
<title>Node6</title>
<g id="a_Node000006"><a xlink:title=" ">
<polygon fill="#e0e0e0" stroke="#999999" points="197.5,-19 144.5,-19 144.5,0 197.5,0 197.5,-19"/>
<text text-anchor="middle" x="171" y="-7" font-family="Helvetica,sans-Serif" font-size="10.00">QString</text>
</a>
</g>
</g>
<!-- Node5&#45;&gt;Node6 -->
<g id="edge5_Node000005_Node000006" class="edge">
<title>Node5&#45;&gt;Node6</title>
<g id="a_edge5_Node000005_Node000006"><a xlink:title=" ">
<path fill="none" stroke="#63b8ff" d="M171,-54.84C171,-45.57 171,-33.51 171,-24.31"/>
<polygon fill="#63b8ff" stroke="#63b8ff" points="171,-19.27 173.25,-24.27 171,-21.77 171,-24.27 171,-24.27 171,-24.27 171,-21.77 168.75,-24.27 171,-19.27 171,-19.27"/>
</a>
</g>
</g>
<!-- Node8 -->
<g id="Node000008" class="node">
<title>Node8</title>
<g id="a_Node000008"><a xlink:title=" ">
<polygon fill="#e0e0e0" stroke="#999999" points="299.5,-79.5 244.5,-79.5 244.5,-60.5 299.5,-60.5 299.5,-79.5"/>
<text text-anchor="middle" x="272" y="-67.5" font-family="Helvetica,sans-Serif" font-size="10.00">QMutex</text>
</a>
</g>
</g>
<!-- Node7&#45;&gt;Node8 -->
<g id="edge7_Node000007_Node000008" class="edge">
<title>Node7&#45;&gt;Node8</title>
<g id="a_edge7_Node000007_Node000008"><a xlink:title=" ">
<path fill="none" stroke="#63b8ff" d="M325.71,-120.77C312.75,-108.76 296.59,-93.79 285.4,-83.42"/>
<polygon fill="#63b8ff" stroke="#63b8ff" points="281.52,-79.82 286.71,-81.57 283.35,-81.52 285.19,-83.22 285.19,-83.22 285.19,-83.22 283.35,-81.52 283.66,-84.87 281.52,-79.82 281.52,-79.82"/>
</a>
</g>
</g>
<!-- Node9 -->
<g id="Node000009" class="node">
<title>Node9</title>
<g id="a_Node000009"><a xlink:title=" ">
<polygon fill="#e0e0e0" stroke="#999999" points="376.5,-79.5 317.5,-79.5 317.5,-60.5 376.5,-60.5 376.5,-79.5"/>
<text text-anchor="middle" x="347" y="-67.5" font-family="Helvetica,sans-Serif" font-size="10.00">QVariant</text>
</a>
</g>
</g>
<!-- Node7&#45;&gt;Node9 -->
<g id="edge8_Node000007_Node000009" class="edge">
<title>Node7&#45;&gt;Node9</title>
<g id="a_edge8_Node000007_Node000009"><a xlink:title=" ">
<path fill="none" stroke="#63b8ff" d="M347,-120.77C347,-109.39 347,-95.36 347,-85.09"/>
<polygon fill="#63b8ff" stroke="#63b8ff" points="347,-79.82 349.25,-84.82 347,-82.32 347,-84.82 347,-84.82 347,-84.82 347,-82.32 344.75,-84.82 347,-79.82 347,-79.82"/>
</a>
</g>
</g>
<!-- Node10 -->
<g id="Node000010" class="node">
<title>Node10</title>
<g id="a_Node000010"><a xlink:title=" ">
<polygon fill="#e0e0e0" stroke="#999999" points="515.5,-85 394.5,-85 394.5,-55 515.5,-55 515.5,-85"/>
<text text-anchor="start" x="402.5" y="-73" font-family="Helvetica,sans-Serif" font-size="10.00">libcockatrice/protocol</text>
<text text-anchor="middle" x="455" y="-62" font-family="Helvetica,sans-Serif" font-size="10.00">/pb/response.pb.h</text>
</a>
</g>
</g>
<!-- Node7&#45;&gt;Node10 -->
<g id="edge9_Node000007_Node000010" class="edge">
<title>Node7&#45;&gt;Node10</title>
<g id="a_edge9_Node000007_Node000010"><a xlink:title=" ">
<path fill="none" stroke="#63b8ff" d="M377.37,-120.96C393.57,-110.53 413.3,-97.84 428.81,-87.85"/>
<polygon fill="#63b8ff" stroke="#63b8ff" points="433.07,-85.11 430.08,-89.71 430.97,-86.47 428.86,-87.82 428.86,-87.82 428.86,-87.82 430.97,-86.47 427.65,-85.93 433.07,-85.11 433.07,-85.11"/>
</a>
</g>
</g>
<!-- Node11 -->
<g id="Node000011" class="node">
<title>Node11</title>
<g id="a_Node000011"><a xlink:title=" ">
<polygon fill="#e0e0e0" stroke="#999999" points="668,-85 534,-85 534,-55 668,-55 668,-85"/>
<text text-anchor="start" x="542" y="-73" font-family="Helvetica,sans-Serif" font-size="10.00">libcockatrice/protocol</text>
<text text-anchor="middle" x="601" y="-62" font-family="Helvetica,sans-Serif" font-size="10.00">/pb/serverinfo_user.pb.h</text>
</a>
</g>
</g>
<!-- Node7&#45;&gt;Node11 -->
<g id="edge10_Node000007_Node000011" class="edge">
<title>Node7&#45;&gt;Node11</title>
<g id="a_edge10_Node000007_Node000011"><a xlink:title=" ">
<path fill="none" stroke="#63b8ff" d="M413.07,-122.42C453.87,-111.26 505.66,-97.09 544.53,-86.45"/>
<polygon fill="#63b8ff" stroke="#63b8ff" points="549.69,-85.04 545.46,-88.53 547.28,-85.7 544.86,-86.36 544.86,-86.36 544.86,-86.36 547.28,-85.7 544.27,-84.19 549.69,-85.04 549.69,-85.04"/>
</a>
</g>
</g>
</g>
</svg>
