<?xml version="1.0" encoding="UTF-8" standalone="no"?>
<!DOCTYPE svg PUBLIC "-//W3C//DTD SVG 1.1//EN"
 "http://www.w3.org/Graphics/SVG/1.1/DTD/svg11.dtd">
<!-- Generated by graphviz version 2.43.0 (0)
 -->
<!-- Title: ExactCard::getPrinting Pages: 1 -->
<!--zoomable 565 -->

<svg id="main" version="1.1" xmlns="http://www.w3.org/2000/svg" xmlns:xlink="http://www.w3.org/1999/xlink" xml:space="preserve" onload="init(evt)">

<style type="text/css"><![CDATA[
.node, .edge {opacity: 0.7;}
.node.selected, .edge.selected {opacity: 1;}
.edge:hover path { stroke: red; }
.edge:hover polygon { stroke: red; fill: red; }
]]></style>

<defs>
  <circle id="rim" cx="0" cy="0" r="7"/>
  <circle id="rim2" cx="0" cy="0" r="3.5"/>
  <g id="zoomPlus">
    <use xlink:href="#rim" fill="#404040"><set attributeName="fill" to="#808080" begin="zoomplus.mouseover" end="zoomplus.mouseout"/></use>
    <path d="M-4,0h8M0,-4v8" fill="none" stroke="white" stroke-width="1.5" pointer-events="none"/>
  </g>
  <g id="zoomMin">
    <use xlink:href="#rim" fill="#404040"><set attributeName="fill" to="#808080" begin="zoomminus.mouseover" end="zoomminus.mouseout"/></use>
    <path d="M-4,0h8" fill="none" stroke="white" stroke-width="1.5" pointer-events="none"/>
  </g>
  <g id="arrowUp" transform="translate(30 24)">
    <use xlink:href="#rim"/>
    <path pointer-events="none" fill="none" stroke="white" stroke-width="1.5" d="M0,-3.0v7 M-2.5,-0.5L0,-3.0L2.5,-0.5"/>
  </g>
  <g id="arrowRight" transform="rotate(90) translate(36 -43)">
    <use xlink:href="#rim"/>
    <path pointer-events="none" fill="none" stroke="white" stroke-width="1.5" d="M0,-3.0v7 M-2.5,-0.5L0,-3.0L2.5,-0.5"/>
  </g>
  <g id="arrowDown" transform="rotate(180) translate(-30 -48)">
    <use xlink:href="#rim"/>
    <path pointer-events="none" fill="none" stroke="white" stroke-width="1.5" d="M0,-3.0v7 M-2.5,-0.5L0,-3.0L2.5,-0.5"/>
  </g>
  <g id="arrowLeft" transform="rotate(270) translate(-36 17)">
    <use xlink:href="#rim"/>
    <path pointer-events="none" fill="none" stroke="white" stroke-width="1.5" d="M0,-3.0v7 M-2.5,-0.5L0,-3.0L2.5,-0.5"/>
  </g>
  <g id="resetDef">
    <use xlink:href="#rim2" fill="#404040"><set attributeName="fill" to="#808080" begin="reset.mouseover" end="reset.mouseout"/></use>
  </g>
</defs>
<script type="application/ecmascript">
var viewWidth = 1348;
var viewHeight = 565;
var sectionId = 'dynsection-8';
</script>
<script type="application/ecmascript" xlink:href="../../svg.min.js"/>
<svg id="graph" class="graph">
<g id="viewport">
<title>ExactCard::getPrinting</title>
<!-- Node1 -->
<g id="Node000001" class="node">
<title>Node1</title>
<g id="a_Node000001"><a xlink:title="Returns the printing information associated with this card.">
<polygon fill="#999999" stroke="#666666" points="1340,-272.5 1215,-272.5 1215,-253.5 1340,-253.5 1340,-272.5"/>
<text text-anchor="middle" x="1277.5" y="-260.5" font-family="Helvetica,sans-Serif" font-size="10.00">ExactCard::getPrinting</text>
</a>
</g>
</g>
<!-- Node2 -->
<g id="Node000002" class="node">
<title>Node2</title>
<g id="a_Node000002"><a xlink:href="../../d2/d23/classPlayerActions.html#abb75c4d4d4f7831f1bb6cac19cf36ef9" target="_top" xlink:title=" ">
<polygon fill="white" stroke="#666666" points="737,-336 600,-336 600,-306 737,-306 737,-336"/>
<text text-anchor="start" x="608" y="-324" font-family="Helvetica,sans-Serif" font-size="10.00">PlayerActions::actCreate</text>
<text text-anchor="middle" x="668.5" y="-313" font-family="Helvetica,sans-Serif" font-size="10.00">RelatedCard</text>
</a>
</g>
</g>
<!-- Node1&#45;&gt;Node2 -->
<g id="edge1_Node000001_Node000002" class="edge">
<title>Node1&#45;&gt;Node2</title>
<g id="a_edge1_Node000001_Node000002"><a xlink:title=" ">
<path fill="none" stroke="#63b8ff" d="M1267.09,-276.87C1251.63,-298.24 1218.62,-338.38 1179,-354 1098.78,-385.62 1071.11,-358.49 985,-354 899.2,-349.53 800.81,-338.25 737.04,-330.12"/>
<polygon fill="#63b8ff" stroke="#63b8ff" points="1270.11,-272.61 1269.05,-277.99 1268.66,-274.65 1267.22,-276.68 1267.22,-276.68 1267.22,-276.68 1268.66,-274.65 1265.38,-275.38 1270.11,-272.61 1270.11,-272.61"/>
</a>
</g>
</g>
<!-- Node9 -->
<g id="Node000009" class="node">
<title>Node9</title>
<g id="a_Node000009"><a xlink:href="../../d9/df7/classDeckEditorDeckDockWidget.html#adfb689307eebe46c0a599afc3639bdf8" target="_top" xlink:title=" ">
<polygon fill="white" stroke="#666666" points="1159,-471 1005,-471 1005,-441 1159,-441 1159,-471"/>
<text text-anchor="start" x="1013" y="-459" font-family="Helvetica,sans-Serif" font-size="10.00">DeckEditorDeckDockWidget</text>
<text text-anchor="middle" x="1082" y="-448" font-family="Helvetica,sans-Serif" font-size="10.00">::actSwapCard</text>
</a>
</g>
</g>
<!-- Node1&#45;&gt;Node9 -->
<g id="edge12_Node000001_Node000009" class="edge">
<title>Node1&#45;&gt;Node9</title>
<g id="a_edge12_Node000001_Node000009"><a xlink:title=" ">
<path fill="none" stroke="#63b8ff" d="M1272.35,-277.72C1262.25,-310.77 1233.16,-391.15 1179,-432 1172.97,-436.55 1166.17,-440.25 1159.05,-443.25"/>
<polygon fill="#63b8ff" stroke="#63b8ff" points="1273.81,-272.84 1274.54,-278.28 1273.1,-275.24 1272.38,-277.63 1272.38,-277.63 1272.38,-277.63 1273.1,-275.24 1270.22,-276.99 1273.81,-272.84 1273.81,-272.84"/>
</a>
</g>
</g>
<!-- Node10 -->
<g id="Node000010" class="node">
<title>Node10</title>
<g id="a_Node000010"><a xlink:href="../../d1/d29/card__amount__widget_8cpp.html#ad431b00749f2b7e3f48c4ce84f22d61f" target="_top" xlink:title=" ">
<polygon fill="white" stroke="#666666" points="937.5,-510.5 802.5,-510.5 802.5,-491.5 937.5,-491.5 937.5,-510.5"/>
<text text-anchor="middle" x="870" y="-498.5" font-family="Helvetica,sans-Serif" font-size="10.00">addAndReplacePrintings</text>
</a>
</g>
</g>
<!-- Node1&#45;&gt;Node10 -->
<g id="edge13_Node000001_Node000010" class="edge">
<title>Node1&#45;&gt;Node10</title>
<g id="a_edge13_Node000001_Node000010"><a xlink:title=" ">
<path fill="none" stroke="#63b8ff" d="M1274.92,-277.98C1269.76,-318.57 1249.42,-430.96 1179,-480 1098.51,-536.05 975.71,-522.7 912.22,-510.52"/>
<polygon fill="#63b8ff" stroke="#63b8ff" points="1275.58,-272.52 1277.21,-277.76 1275.28,-275.01 1274.98,-277.49 1274.98,-277.49 1274.98,-277.49 1275.28,-275.01 1272.75,-277.22 1275.58,-272.52 1275.58,-272.52"/>
</a>
</g>
</g>
<!-- Node15 -->
<g id="Node000015" class="node">
<title>Node15</title>
<g id="a_Node000015"><a xlink:href="../../d9/de1/classDeckListModel.html#ac31406c75864382e2499851f3c84460e" target="_top" xlink:title="Adds an ExactCard to the specified zone.">
<polygon fill="white" stroke="#666666" points="1149.5,-422.5 1014.5,-422.5 1014.5,-403.5 1149.5,-403.5 1149.5,-422.5"/>
<text text-anchor="middle" x="1082" y="-410.5" font-family="Helvetica,sans-Serif" font-size="10.00">DeckListModel::addCard</text>
</a>
</g>
</g>
<!-- Node1&#45;&gt;Node15 -->
<g id="edge19_Node000001_Node000015" class="edge">
<title>Node1&#45;&gt;Node15</title>
<g id="a_edge19_Node000001_Node000015"><a xlink:title=" ">
<path fill="none" stroke="#63b8ff" d="M1269.29,-277.3C1255.46,-303.26 1222.65,-358.12 1179,-387 1167.84,-394.38 1154.64,-399.68 1141.65,-403.48"/>
<polygon fill="#63b8ff" stroke="#63b8ff" points="1271.66,-272.8 1271.32,-278.27 1270.49,-275.01 1269.33,-277.23 1269.33,-277.23 1269.33,-277.23 1270.49,-275.01 1267.34,-276.18 1271.66,-272.8 1271.66,-272.8"/>
</a>
</g>
</g>
<!-- Node22 -->
<g id="Node000022" class="node">
<title>Node22</title>
<g id="a_Node000022"><a xlink:href="../../dd/dab/classDeckStateManager.html#a2676714f994e6e30d44d6a13b1529020" target="_top" xlink:title="Adds the given card to the given zone. Saves the operation to history if successful.">
<polygon fill="white" stroke="#666666" points="1160,-344.5 1004,-344.5 1004,-325.5 1160,-325.5 1160,-344.5"/>
<text text-anchor="middle" x="1082" y="-332.5" font-family="Helvetica,sans-Serif" font-size="10.00">DeckStateManager::addCard</text>
</a>
</g>
</g>
<!-- Node1&#45;&gt;Node22 -->
<g id="edge28_Node000001_Node000022" class="edge">
<title>Node1&#45;&gt;Node22</title>
<g id="a_edge28_Node000001_Node000022"><a xlink:title=" ">
<path fill="none" stroke="#63b8ff" d="M1258.08,-275.57C1239.09,-287.95 1208.2,-306.49 1179,-317 1169.59,-320.39 1159.41,-323.17 1149.33,-325.45"/>
<polygon fill="#63b8ff" stroke="#63b8ff" points="1262.65,-272.56 1259.71,-277.19 1260.56,-273.94 1258.47,-275.31 1258.47,-275.31 1258.47,-275.31 1260.56,-273.94 1257.24,-273.43 1262.65,-272.56 1262.65,-272.56"/>
</a>
</g>
</g>
<!-- Node23 -->
<g id="Node000023" class="node">
<title>Node23</title>
<g id="a_Node000023"><a xlink:href="../../db/dcd/classCardPictureLoaderRequestStatusDisplayWidget.html#a5f0483dd0c005f47d653abce22563c46" target="_top" xlink:title="Constructs a new status widget for a specific card image request.">
<polygon fill="white" stroke="#666666" points="1177.5,-307.5 986.5,-307.5 986.5,-266.5 1177.5,-266.5 1177.5,-307.5"/>
<text text-anchor="start" x="994.5" y="-295.5" font-family="Helvetica,sans-Serif" font-size="10.00">CardPictureLoaderRequest</text>
<text text-anchor="start" x="994.5" y="-284.5" font-family="Helvetica,sans-Serif" font-size="10.00">StatusDisplayWidget::CardPicture</text>
<text text-anchor="middle" x="1082" y="-273.5" font-family="Helvetica,sans-Serif" font-size="10.00">LoaderRequestStatusDisplayWidget</text>
</a>
</g>
</g>
<!-- Node1&#45;&gt;Node23 -->
<g id="edge29_Node000001_Node000023" class="edge">
<title>Node1&#45;&gt;Node23</title>
<g id="a_edge29_Node000001_Node000023"><a xlink:title=" ">
<path fill="none" stroke="#63b8ff" d="M1209.71,-271.28C1199.35,-272.57 1188.5,-273.92 1177.67,-275.26"/>
<polygon fill="#63b8ff" stroke="#63b8ff" points="1214.74,-270.66 1210.06,-273.51 1212.26,-270.97 1209.78,-271.28 1209.78,-271.28 1209.78,-271.28 1212.26,-270.97 1209.5,-269.04 1214.74,-270.66 1214.74,-270.66"/>
</a>
</g>
</g>
<!-- Node24 -->
<g id="Node000024" class="node">
<title>Node24</title>
<g id="a_Node000024"><a xlink:href="../../d2/d23/classPlayerActions.html#a2d905a181bc7f9023c4b2451b24406ce" target="_top" xlink:title=" ">
<polygon fill="white" stroke="#666666" points="1153.5,-248.5 1010.5,-248.5 1010.5,-229.5 1153.5,-229.5 1153.5,-248.5"/>
<text text-anchor="middle" x="1082" y="-236.5" font-family="Helvetica,sans-Serif" font-size="10.00">PlayerActions::createCard</text>
</a>
</g>
</g>
<!-- Node1&#45;&gt;Node24 -->
<g id="edge30_Node000001_Node000024" class="edge">
<title>Node1&#45;&gt;Node24</title>
<g id="a_edge30_Node000001_Node000024"><a xlink:title=" ">
<path fill="none" stroke="#63b8ff" d="M1209.68,-254.71C1191.57,-252.47 1171.91,-250.03 1153.59,-247.76"/>
<polygon fill="#63b8ff" stroke="#63b8ff" points="1214.74,-255.34 1209.5,-256.96 1212.26,-255.03 1209.78,-254.72 1209.78,-254.72 1209.78,-254.72 1212.26,-255.03 1210.06,-252.49 1214.74,-255.34 1214.74,-255.34"/>
</a>
</g>
</g>
<!-- Node27 -->
<g id="Node000027" class="node">
<title>Node27</title>
<g id="a_Node000027"><a xlink:href="../../dd/dab/classDeckStateManager.html#aa5f13d667210b56500b37f937795713b" target="_top" xlink:title="Removes 1 copy of the given card from the given zone. Saves the operation to history if successful.">
<polygon fill="white" stroke="#666666" points="1177.5,-211.5 986.5,-211.5 986.5,-192.5 1177.5,-192.5 1177.5,-211.5"/>
<text text-anchor="middle" x="1082" y="-199.5" font-family="Helvetica,sans-Serif" font-size="10.00">DeckStateManager::decrementCard</text>
</a>
</g>
</g>
<!-- Node1&#45;&gt;Node27 -->
<g id="edge36_Node000001_Node000027" class="edge">
<title>Node1&#45;&gt;Node27</title>
<g id="a_edge36_Node000001_Node000027"><a xlink:title=" ">
<path fill="none" stroke="#63b8ff" d="M1252.79,-251.11C1233.37,-241.78 1204.96,-229.06 1179,-221 1166.99,-217.27 1153.91,-214.11 1141.37,-211.5"/>
<polygon fill="#63b8ff" stroke="#63b8ff" points="1257.53,-253.4 1252.05,-253.25 1255.28,-252.31 1253.03,-251.22 1253.03,-251.22 1253.03,-251.22 1255.28,-252.31 1254.01,-249.2 1257.53,-253.4 1257.53,-253.4"/>
</a>
</g>
</g>
<!-- Node28 -->
<g id="Node000028" class="node">
<title>Node28</title>
<g id="a_Node000028"><a xlink:href="../../d1/d5a/card__picture__to__load_8cpp.html#a3c62c4c2a1a09ba5065d6cb15f0301fb" target="_top" xlink:title=" ">
<polygon fill="white" stroke="#666666" points="1133.5,-174.5 1030.5,-174.5 1030.5,-155.5 1133.5,-155.5 1133.5,-174.5"/>
<text text-anchor="middle" x="1082" y="-162.5" font-family="Helvetica,sans-Serif" font-size="10.00">findPrintingForSet</text>
</a>
</g>
</g>
<!-- Node1&#45;&gt;Node28 -->
<g id="edge37_Node000001_Node000028" class="edge">
<title>Node1&#45;&gt;Node28</title>
<g id="a_edge37_Node000001_Node000028"><a xlink:title=" ">
<path fill="none" stroke="#63b8ff" d="M1264.25,-249.64C1247.03,-231.74 1213.85,-200.33 1179,-184 1165,-177.44 1148.82,-173.14 1133.78,-170.33"/>
<polygon fill="#63b8ff" stroke="#63b8ff" points="1267.87,-253.46 1262.8,-251.38 1266.15,-251.64 1264.43,-249.83 1264.43,-249.83 1264.43,-249.83 1266.15,-251.64 1266.06,-248.28 1267.87,-253.46 1267.87,-253.46"/>
</a>
</g>
</g>
<!-- Node33 -->
<g id="Node000033" class="node">
<title>Node33</title>
<g id="a_Node000033"><a xlink:href="../../d9/db3/classPrintingSelectorCardDisplayWidget.html#a0f6cb8e03cc6849a1c37a9bf5bd51c3f" target="_top" xlink:title="Constructs a PrintingSelectorCardDisplayWidget to display card information.">
<polygon fill="white" stroke="#666666" points="1179,-137.5 985,-137.5 985,-96.5 1179,-96.5 1179,-137.5"/>
<text text-anchor="start" x="993" y="-125.5" font-family="Helvetica,sans-Serif" font-size="10.00">PrintingSelectorCardDisplay</text>
<text text-anchor="start" x="993" y="-114.5" font-family="Helvetica,sans-Serif" font-size="10.00">Widget::PrintingSelectorCardDisplay</text>
<text text-anchor="middle" x="1082" y="-103.5" font-family="Helvetica,sans-Serif" font-size="10.00">Widget</text>
</a>
</g>
</g>
<!-- Node1&#45;&gt;Node33 -->
<g id="edge43_Node000001_Node000033" class="edge">
<title>Node1&#45;&gt;Node33</title>
<g id="a_edge43_Node000001_Node000033"><a xlink:title=" ">
<path fill="none" stroke="#63b8ff" d="M1268.39,-248.6C1253.76,-223.91 1220.55,-173.5 1179,-146 1174.35,-142.92 1169.37,-140.17 1164.2,-137.69"/>
<polygon fill="#63b8ff" stroke="#63b8ff" points="1271.07,-253.18 1266.6,-250 1269.81,-251.02 1268.55,-248.86 1268.55,-248.86 1268.55,-248.86 1269.81,-251.02 1270.49,-247.73 1271.07,-253.18 1271.07,-253.18"/>
</a>
</g>
</g>
<!-- Node34 -->
<g id="Node000034" class="node">
<title>Node34</title>
<g id="a_Node000034"><a xlink:href="../../dd/d82/classCardInfoTextWidget.html#ad91cf0fc3cd154c5cd61225636d3a643" target="_top" xlink:title=" ">
<polygon fill="white" stroke="#666666" points="1138.5,-78 1025.5,-78 1025.5,-48 1138.5,-48 1138.5,-78"/>
<text text-anchor="start" x="1033.5" y="-66" font-family="Helvetica,sans-Serif" font-size="10.00">CardInfoTextWidget</text>
<text text-anchor="middle" x="1082" y="-55" font-family="Helvetica,sans-Serif" font-size="10.00">::setCard</text>
</a>
</g>
</g>
<!-- Node1&#45;&gt;Node34 -->
<g id="edge44_Node000001_Node000034" class="edge">
<title>Node1&#45;&gt;Node34</title>
<g id="a_edge44_Node000001_Node000034"><a xlink:title=" ">
<path fill="none" stroke="#63b8ff" d="M1272.68,-248.16C1263.1,-214.07 1234.75,-129.82 1179,-87 1167.42,-78.11 1152.94,-72.47 1138.78,-68.91"/>
<polygon fill="#63b8ff" stroke="#63b8ff" points="1274.05,-253.19 1270.56,-248.96 1273.39,-250.78 1272.73,-248.36 1272.73,-248.36 1272.73,-248.36 1273.39,-250.78 1274.9,-247.77 1274.05,-253.19 1274.05,-253.19"/>
</a>
</g>
</g>
<!-- Node35 -->
<g id="Node000035" class="node">
<title>Node35</title>
<g id="a_Node000035"><a xlink:href="../../dd/d17/classCardPictureLoaderLocal.html#a7ca2cb014bc650647c5b22b2e5ef68d3" target="_top" xlink:title="Attempts to load a card image from local disk or custom folders.">
<polygon fill="white" stroke="#666666" points="1147.5,-30 1016.5,-30 1016.5,0 1147.5,0 1147.5,-30"/>
<text text-anchor="start" x="1024.5" y="-18" font-family="Helvetica,sans-Serif" font-size="10.00">CardPictureLoaderLocal</text>
<text text-anchor="middle" x="1082" y="-7" font-family="Helvetica,sans-Serif" font-size="10.00">::tryLoad</text>
</a>
</g>
</g>
<!-- Node1&#45;&gt;Node35 -->
<g id="edge45_Node000001_Node000035" class="edge">
<title>Node1&#45;&gt;Node35</title>
<g id="a_edge45_Node000001_Node000035"><a xlink:title=" ">
<path fill="none" stroke="#63b8ff" d="M1274.57,-248.15C1268.54,-207.9 1246.22,-95.92 1179,-39 1170.08,-31.45 1159.13,-26.22 1147.85,-22.61"/>
<polygon fill="#63b8ff" stroke="#63b8ff" points="1275.29,-253.13 1272.35,-248.5 1274.93,-250.65 1274.58,-248.18 1274.58,-248.18 1274.58,-248.18 1274.93,-250.65 1276.81,-247.86 1275.29,-253.13 1275.29,-253.13"/>
</a>
</g>
</g>
<!-- Node3 -->
<g id="Node000003" class="node">
<title>Node3</title>
<g id="a_Node000003"><a xlink:href="../../d8/d6d/classCardMenu.html#aeb960e68af7e87347f27aebce235e8db" target="_top" xlink:title=" ">
<polygon fill="white" stroke="#666666" points="534.5,-312 384.5,-312 384.5,-282 534.5,-282 534.5,-312"/>
<text text-anchor="start" x="392.5" y="-300" font-family="Helvetica,sans-Serif" font-size="10.00">CardMenu::addRelatedCard</text>
<text text-anchor="middle" x="459.5" y="-289" font-family="Helvetica,sans-Serif" font-size="10.00">Actions</text>
</a>
</g>
</g>
<!-- Node2&#45;&gt;Node3 -->
<g id="edge2_Node000002_Node000003" class="edge">
<title>Node2&#45;&gt;Node3</title>
<g id="a_edge2_Node000002_Node000003"><a xlink:title=" ">
<path fill="none" stroke="#63b8ff" d="M594.29,-312.51C574.9,-310.26 553.94,-307.83 534.51,-305.58"/>
<polygon fill="#63b8ff" stroke="#63b8ff" points="599.72,-313.14 594.49,-314.8 597.24,-312.85 594.75,-312.57 594.75,-312.57 594.75,-312.57 597.24,-312.85 595.01,-310.33 599.72,-313.14 599.72,-313.14"/>
</a>
</g>
</g>
<!-- Node4 -->
<g id="Node000004" class="node">
<title>Node4</title>
<g id="a_Node000004"><a xlink:href="../../d8/d6d/classCardMenu.html#adaa6e8c16c2d807206afc5164f1bec64" target="_top" xlink:title=" ">
<polygon fill="white" stroke="#666666" points="122,-306.5 0,-306.5 0,-287.5 122,-287.5 122,-306.5"/>
<text text-anchor="middle" x="61" y="-294.5" font-family="Helvetica,sans-Serif" font-size="10.00">CardMenu::CardMenu</text>
</a>
</g>
</g>
<!-- Node3&#45;&gt;Node4 -->
<g id="edge3_Node000003_Node000004" class="edge">
<title>Node3&#45;&gt;Node4</title>
<g id="a_edge3_Node000003_Node000004"><a xlink:title=" ">
<path fill="none" stroke="#63b8ff" d="M379.32,-283.55C365.27,-281.66 350.73,-280.01 337,-279 257.66,-273.15 237.21,-271.64 158,-279 140.1,-280.66 120.57,-284.04 103.82,-287.42"/>
<polygon fill="#63b8ff" stroke="#63b8ff" points="384.48,-284.26 379.22,-285.81 382,-283.92 379.53,-283.58 379.53,-283.58 379.53,-283.58 382,-283.92 379.83,-281.35 384.48,-284.26 384.48,-284.26"/>
</a>
</g>
</g>
<!-- Node5 -->
<g id="Node000005" class="node">
<title>Node5</title>
<g id="a_Node000005"><a xlink:href="../../d8/d6d/classCardMenu.html#ab78919b3fc8b38792d93dfb2c12fea43" target="_top" xlink:title=" ">
<polygon fill="white" stroke="#666666" points="324.5,-231 170.5,-231 170.5,-201 324.5,-201 324.5,-231"/>
<text text-anchor="start" x="178.5" y="-219" font-family="Helvetica,sans-Serif" font-size="10.00">CardMenu::createGraveyard</text>
<text text-anchor="middle" x="247.5" y="-208" font-family="Helvetica,sans-Serif" font-size="10.00">OrExileMenu</text>
</a>
</g>
</g>
<!-- Node3&#45;&gt;Node5 -->
<g id="edge4_Node000003_Node000005" class="edge">
<title>Node3&#45;&gt;Node5</title>
<g id="a_edge4_Node000003_Node000005"><a xlink:title=" ">
<path fill="none" stroke="#63b8ff" d="M420.9,-279.9C397.07,-269.31 365.48,-255.74 337,-245 324.14,-240.15 310.06,-235.33 297,-231.04"/>
<polygon fill="#63b8ff" stroke="#63b8ff" points="425.56,-281.97 420.07,-281.99 423.27,-280.95 420.99,-279.94 420.99,-279.94 420.99,-279.94 423.27,-280.95 421.91,-277.88 425.56,-281.97 425.56,-281.97"/>
</a>
</g>
</g>
<!-- Node6 -->
<g id="Node000006" class="node">
<title>Node6</title>
<g id="a_Node000006"><a xlink:href="../../d8/d6d/classCardMenu.html#ab8a09888953de543cd17d243bff357f2" target="_top" xlink:title=" ">
<polygon fill="white" stroke="#666666" points="336,-392 159,-392 159,-362 336,-362 336,-392"/>
<text text-anchor="start" x="167" y="-380" font-family="Helvetica,sans-Serif" font-size="10.00">CardMenu::createHandOrCustom</text>
<text text-anchor="middle" x="247.5" y="-369" font-family="Helvetica,sans-Serif" font-size="10.00">ZoneMenu</text>
</a>
</g>
</g>
<!-- Node3&#45;&gt;Node6 -->
<g id="edge6_Node000003_Node000006" class="edge">
<title>Node3&#45;&gt;Node6</title>
<g id="a_edge6_Node000003_Node000006"><a xlink:title=" ">
<path fill="none" stroke="#63b8ff" d="M424.45,-314.56C400.44,-326.47 367.29,-342 337,-353 328.17,-356.21 318.71,-359.21 309.38,-361.93"/>
<polygon fill="#63b8ff" stroke="#63b8ff" points="429.12,-312.23 425.65,-316.47 426.89,-313.34 424.65,-314.46 424.65,-314.46 424.65,-314.46 426.89,-313.34 423.65,-312.44 429.12,-312.23 429.12,-312.23"/>
</a>
</g>
</g>
<!-- Node7 -->
<g id="Node000007" class="node">
<title>Node7</title>
<g id="a_Node000007"><a xlink:href="../../d8/d6d/classCardMenu.html#a8e62393f0e47bc6b3a879120f89a7574" target="_top" xlink:title=" ">
<polygon fill="white" stroke="#666666" points="326,-343.5 169,-343.5 169,-324.5 326,-324.5 326,-343.5"/>
<text text-anchor="middle" x="247.5" y="-331.5" font-family="Helvetica,sans-Serif" font-size="10.00">CardMenu::createStackMenu</text>
</a>
</g>
</g>
<!-- Node3&#45;&gt;Node7 -->
<g id="edge8_Node000003_Node000007" class="edge">
<title>Node3&#45;&gt;Node7</title>
<g id="a_edge8_Node000003_Node000007"><a xlink:title=" ">
<path fill="none" stroke="#63b8ff" d="M379.38,-310.94C353.82,-315.44 326.08,-320.33 302.74,-324.44"/>
<polygon fill="#63b8ff" stroke="#63b8ff" points="384.46,-310.04 379.93,-313.13 382,-310.48 379.54,-310.91 379.54,-310.91 379.54,-310.91 382,-310.48 379.15,-308.7 384.46,-310.04 384.46,-310.04"/>
</a>
</g>
</g>
<!-- Node8 -->
<g id="Node000008" class="node">
<title>Node8</title>
<g id="a_Node000008"><a xlink:href="../../d8/d6d/classCardMenu.html#ab9efcc99ec4aaa0c47b50ba23916e167" target="_top" xlink:title=" ">
<polygon fill="white" stroke="#666666" points="325,-306.5 170,-306.5 170,-287.5 325,-287.5 325,-306.5"/>
<text text-anchor="middle" x="247.5" y="-294.5" font-family="Helvetica,sans-Serif" font-size="10.00">CardMenu::createTableMenu</text>
</a>
</g>
</g>
<!-- Node3&#45;&gt;Node8 -->
<g id="edge10_Node000003_Node000008" class="edge">
<title>Node3&#45;&gt;Node8</title>
<g id="a_edge10_Node000003_Node000008"><a xlink:title=" ">
<path fill="none" stroke="#63b8ff" d="M379.01,-297C361.33,-297 342.62,-297 325.07,-297"/>
<polygon fill="#63b8ff" stroke="#63b8ff" points="384.46,-297 379.46,-299.25 381.96,-297 379.46,-297 379.46,-297 379.46,-297 381.96,-297 379.46,-294.75 384.46,-297 384.46,-297"/>
</a>
</g>
</g>
<!-- Node5&#45;&gt;Node4 -->
<g id="edge5_Node000005_Node000004" class="edge">
<title>Node5&#45;&gt;Node4</title>
<g id="a_edge5_Node000005_Node000004"><a xlink:title=" ">
<path fill="none" stroke="#63b8ff" d="M190.4,-232.69C179.52,-236.4 168.3,-240.56 158,-245 128.58,-257.67 96.16,-276.27 77.53,-287.45"/>
<polygon fill="#63b8ff" stroke="#63b8ff" points="195.37,-231.02 191.35,-234.75 193,-231.82 190.63,-232.62 190.63,-232.62 190.63,-232.62 193,-231.82 189.92,-230.48 195.37,-231.02 195.37,-231.02"/>
</a>
</g>
</g>
<!-- Node6&#45;&gt;Node4 -->
<g id="edge7_Node000006_Node000004" class="edge">
<title>Node6&#45;&gt;Node4</title>
<g id="a_edge7_Node000006_Node000004"><a xlink:title=" ">
<path fill="none" stroke="#63b8ff" d="M178.18,-360.43C171.28,-358.17 164.44,-355.7 158,-353 127.03,-340.04 93.81,-318.82 75.71,-306.57"/>
<polygon fill="#63b8ff" stroke="#63b8ff" points="182.96,-361.95 177.52,-362.58 180.58,-361.19 178.2,-360.44 178.2,-360.44 178.2,-360.44 180.58,-361.19 178.88,-358.29 182.96,-361.95 182.96,-361.95"/>
</a>
</g>
</g>
<!-- Node7&#45;&gt;Node4 -->
<g id="edge9_Node000007_Node000004" class="edge">
<title>Node7&#45;&gt;Node4</title>
<g id="a_edge9_Node000007_Node000004"><a xlink:title=" ">
<path fill="none" stroke="#63b8ff" d="M193.76,-323.42C167.27,-318.11 135.42,-311.72 109.67,-306.56"/>
<polygon fill="#63b8ff" stroke="#63b8ff" points="198.99,-324.47 193.64,-325.69 196.54,-323.98 194.08,-323.49 194.08,-323.49 194.08,-323.49 196.54,-323.98 194.53,-321.28 198.99,-324.47 198.99,-324.47"/>
</a>
</g>
</g>
<!-- Node8&#45;&gt;Node4 -->
<g id="edge11_Node000008_Node000004" class="edge">
<title>Node8&#45;&gt;Node4</title>
<g id="a_edge11_Node000008_Node000004"><a xlink:title=" ">
<path fill="none" stroke="#63b8ff" d="M164.61,-297C150.31,-297 135.67,-297 122.1,-297"/>
<polygon fill="#63b8ff" stroke="#63b8ff" points="169.86,-297 164.86,-299.25 167.36,-297 164.86,-297 164.86,-297 164.86,-297 167.36,-297 164.86,-294.75 169.86,-297 169.86,-297"/>
</a>
</g>
</g>
<!-- Node11 -->
<g id="Node000011" class="node">
<title>Node11</title>
<g id="a_Node000011"><a xlink:href="../../dc/d15/classCardAmountWidget.html#ac906400975077c0d604ff7112a489a4f" target="_top" xlink:title="Adds a printing of the card to the specified zone (Mainboard or Sideboard).">
<polygon fill="white" stroke="#666666" points="755,-510.5 582,-510.5 582,-491.5 755,-491.5 755,-510.5"/>
<text text-anchor="middle" x="668.5" y="-498.5" font-family="Helvetica,sans-Serif" font-size="10.00">CardAmountWidget::addPrinting</text>
</a>
</g>
</g>
<!-- Node10&#45;&gt;Node11 -->
<g id="edge14_Node000010_Node000011" class="edge">
<title>Node10&#45;&gt;Node11</title>
<g id="a_edge14_Node000010_Node000011"><a xlink:title=" ">
<path fill="none" stroke="#63b8ff" d="M796.95,-501C783.44,-501 769.18,-501 755.3,-501"/>
<polygon fill="#63b8ff" stroke="#63b8ff" points="802.29,-501 797.29,-503.25 799.79,-501 797.29,-501 797.29,-501 797.29,-501 799.79,-501 797.29,-498.75 802.29,-501 802.29,-501"/>
</a>
</g>
</g>
<!-- Node12 -->
<g id="Node000012" class="node">
<title>Node12</title>
<g id="a_Node000012"><a xlink:href="../../dc/d15/classCardAmountWidget.html#aeba2373a04841c9c9c76b7a1c83d969c" target="_top" xlink:title="Adds a printing to the mainboard zone.">
<polygon fill="white" stroke="#666666" points="546,-557 373,-557 373,-527 546,-527 546,-557"/>
<text text-anchor="start" x="381" y="-545" font-family="Helvetica,sans-Serif" font-size="10.00">CardAmountWidget::addPrinting</text>
<text text-anchor="middle" x="459.5" y="-534" font-family="Helvetica,sans-Serif" font-size="10.00">Mainboard</text>
</a>
</g>
</g>
<!-- Node11&#45;&gt;Node12 -->
<g id="edge15_Node000011_Node000012" class="edge">
<title>Node11&#45;&gt;Node12</title>
<g id="a_edge15_Node000011_Node000012"><a xlink:title=" ">
<path fill="none" stroke="#63b8ff" d="M614.51,-511.5C590.84,-516.18 562.5,-521.8 536.62,-526.92"/>
<polygon fill="#63b8ff" stroke="#63b8ff" points="619.49,-510.51 615.02,-513.69 617.04,-511 614.59,-511.48 614.59,-511.48 614.59,-511.48 617.04,-511 614.15,-509.27 619.49,-510.51 619.49,-510.51"/>
</a>
</g>
</g>
<!-- Node14 -->
<g id="Node000014" class="node">
<title>Node14</title>
<g id="a_Node000014"><a xlink:href="../../dc/d15/classCardAmountWidget.html#aedf81cc186bace12827aa73b0eede4e1" target="_top" xlink:title="Adds a printing to the sideboard zone.">
<polygon fill="white" stroke="#666666" points="546,-509 373,-509 373,-479 546,-479 546,-509"/>
<text text-anchor="start" x="381" y="-497" font-family="Helvetica,sans-Serif" font-size="10.00">CardAmountWidget::addPrinting</text>
<text text-anchor="middle" x="459.5" y="-486" font-family="Helvetica,sans-Serif" font-size="10.00">Sideboard</text>
</a>
</g>
</g>
<!-- Node11&#45;&gt;Node14 -->
<g id="edge17_Node000011_Node000014" class="edge">
<title>Node11&#45;&gt;Node14</title>
<g id="a_edge17_Node000011_Node000014"><a xlink:title=" ">
<path fill="none" stroke="#63b8ff" d="M576.54,-497.92C566.43,-497.58 556.16,-497.23 546.12,-496.9"/>
<polygon fill="#63b8ff" stroke="#63b8ff" points="581.81,-498.1 576.74,-500.18 579.31,-498.02 576.81,-497.93 576.81,-497.93 576.81,-497.93 579.31,-498.02 576.89,-495.68 581.81,-498.1 581.81,-498.1"/>
</a>
</g>
</g>
<!-- Node13 -->
<g id="Node000013" class="node">
<title>Node13</title>
<g id="a_Node000013"><a xlink:href="../../dc/d15/classCardAmountWidget.html#aa53fea0b4b7d37ba10b5982720aeadd8" target="_top" xlink:title="Constructs a widget for displaying and controlling the card count in a specific zone.">
<polygon fill="white" stroke="#666666" points="337,-533 158,-533 158,-503 337,-503 337,-533"/>
<text text-anchor="start" x="166" y="-521" font-family="Helvetica,sans-Serif" font-size="10.00">CardAmountWidget::CardAmount</text>
<text text-anchor="middle" x="247.5" y="-510" font-family="Helvetica,sans-Serif" font-size="10.00">Widget</text>
</a>
</g>
</g>
<!-- Node12&#45;&gt;Node13 -->
<g id="edge16_Node000012_Node000013" class="edge">
<title>Node12&#45;&gt;Node13</title>
<g id="a_edge16_Node000012_Node000013"><a xlink:title=" ">
<path fill="none" stroke="#63b8ff" d="M367.79,-531.63C357.58,-530.47 347.19,-529.28 337.01,-528.12"/>
<polygon fill="#63b8ff" stroke="#63b8ff" points="372.78,-532.2 367.56,-533.87 370.3,-531.92 367.81,-531.64 367.81,-531.64 367.81,-531.64 370.3,-531.92 368.07,-529.4 372.78,-532.2 372.78,-532.2"/>
</a>
</g>
</g>
<!-- Node14&#45;&gt;Node13 -->
<g id="edge18_Node000014_Node000013" class="edge">
<title>Node14&#45;&gt;Node13</title>
<g id="a_edge18_Node000014_Node000013"><a xlink:title=" ">
<path fill="none" stroke="#63b8ff" d="M367.79,-504.37C357.58,-505.53 347.19,-506.72 337.01,-507.88"/>
<polygon fill="#63b8ff" stroke="#63b8ff" points="372.78,-503.8 368.07,-506.6 370.3,-504.08 367.81,-504.36 367.81,-504.36 367.81,-504.36 370.3,-504.08 367.56,-502.13 372.78,-503.8 372.78,-503.8"/>
</a>
</g>
</g>
<!-- Node15&#45;&gt;Node10 -->
<g id="edge20_Node000015_Node000010" class="edge">
<title>Node15&#45;&gt;Node10</title>
<g id="a_edge20_Node000015_Node000010"><a xlink:title=" ">
<path fill="none" stroke="#63b8ff" d="M1009.6,-421.25C1000.96,-423.92 992.54,-427.42 985,-432 963.11,-445.29 970.18,-462.6 949,-477 939.74,-483.29 928.77,-487.99 918.03,-491.47"/>
<polygon fill="#63b8ff" stroke="#63b8ff" points="1014.43,-419.85 1010.25,-423.4 1012.03,-420.54 1009.62,-421.24 1009.62,-421.24 1009.62,-421.24 1012.03,-420.54 1009,-419.08 1014.43,-419.85 1014.43,-419.85"/>
</a>
</g>
</g>
<!-- Node16 -->
<g id="Node000016" class="node">
<title>Node16</title>
<g id="a_Node000016"><a xlink:href="../../d9/de1/classDeckListModel.html#a889fd2a14a47f7433a130ac36562cb17" target="_top" xlink:title="Adds a card using the preferred printing if available.">
<polygon fill="white" stroke="#666666" points="949,-435 791,-435 791,-405 949,-405 949,-435"/>
<text text-anchor="start" x="799" y="-423" font-family="Helvetica,sans-Serif" font-size="10.00">DeckListModel::addPreferred</text>
<text text-anchor="middle" x="870" y="-412" font-family="Helvetica,sans-Serif" font-size="10.00">PrintingCard</text>
</a>
</g>
</g>
<!-- Node15&#45;&gt;Node16 -->
<g id="edge21_Node000015_Node000016" class="edge">
<title>Node15&#45;&gt;Node16</title>
<g id="a_edge21_Node000015_Node000016"><a xlink:title=" ">
<path fill="none" stroke="#63b8ff" d="M1008.89,-415.4C989.68,-416.04 968.83,-416.74 949.3,-417.39"/>
<polygon fill="#63b8ff" stroke="#63b8ff" points="1014.27,-415.22 1009.34,-417.64 1011.77,-415.31 1009.27,-415.39 1009.27,-415.39 1009.27,-415.39 1011.77,-415.31 1009.19,-413.14 1014.27,-415.22 1014.27,-415.22"/>
</a>
</g>
</g>
<!-- Node17 -->
<g id="Node000017" class="node">
<title>Node17</title>
<g id="a_Node000017"><a xlink:href="../../df/d8c/deck__state__manager_8cpp.html#aa3e1ffa21bd288dfdab1d668da0eee3d" target="_top" xlink:title=" ">
<polygon fill="white" stroke="#666666" points="707,-448.5 630,-448.5 630,-429.5 707,-429.5 707,-448.5"/>
<text text-anchor="middle" x="668.5" y="-436.5" font-family="Helvetica,sans-Serif" font-size="10.00">doSwapCard</text>
</a>
</g>
</g>
<!-- Node15&#45;&gt;Node17 -->
<g id="edge24_Node000015_Node000017" class="edge">
<title>Node15&#45;&gt;Node17</title>
<g id="a_edge24_Node000015_Node000017"><a xlink:title=" ">
<path fill="none" stroke="#63b8ff" d="M1021.49,-423.56C1009.35,-426.06 996.71,-428.9 985,-432 968.7,-436.31 965.65,-441.3 949,-444 879.68,-455.25 861.21,-445.44 791,-444 762.93,-443.42 731.23,-442.1 707.25,-440.95"/>
<polygon fill="#63b8ff" stroke="#63b8ff" points="1026.65,-422.51 1022.2,-425.71 1024.2,-423.01 1021.75,-423.51 1021.75,-423.51 1021.75,-423.51 1024.2,-423.01 1021.31,-421.3 1026.65,-422.51 1026.65,-422.51"/>
</a>
</g>
</g>
<!-- Node19 -->
<g id="Node000019" class="node">
<title>Node19</title>
<g id="a_Node000019"><a xlink:href="../../dc/d15/dlg__select__set__for__cards_8cpp.html#aaa4cbe22ba5cbc2ae3857b7cbea51283" target="_top" xlink:title=" ">
<polygon fill="white" stroke="#666666" points="910,-386.5 830,-386.5 830,-367.5 910,-367.5 910,-386.5"/>
<text text-anchor="middle" x="870" y="-374.5" font-family="Helvetica,sans-Serif" font-size="10.00">swapPrinting</text>
</a>
</g>
</g>
<!-- Node15&#45;&gt;Node19 -->
<g id="edge25_Node000015_Node000019" class="edge">
<title>Node15&#45;&gt;Node19</title>
<g id="a_edge25_Node000015_Node000019"><a xlink:title=" ">
<path fill="none" stroke="#63b8ff" d="M1020.38,-402.61C984.88,-396.52 941.09,-389.02 910.12,-383.71"/>
<polygon fill="#63b8ff" stroke="#63b8ff" points="1025.55,-403.49 1020.24,-404.87 1023.09,-403.07 1020.62,-402.65 1020.62,-402.65 1020.62,-402.65 1023.09,-403.07 1021,-400.43 1025.55,-403.49 1025.55,-403.49"/>
</a>
</g>
</g>
<!-- Node16&#45;&gt;Node17 -->
<g id="edge22_Node000016_Node000017" class="edge">
<title>Node16&#45;&gt;Node17</title>
<g id="a_edge22_Node000016_Node000017"><a xlink:title=" ">
<path fill="none" stroke="#63b8ff" d="M785.65,-427.94C758.39,-430.53 729.43,-433.29 707.26,-435.4"/>
<polygon fill="#63b8ff" stroke="#63b8ff" points="790.72,-427.45 785.96,-430.17 788.24,-427.69 785.75,-427.93 785.75,-427.93 785.75,-427.93 788.24,-427.69 785.53,-425.69 790.72,-427.45 790.72,-427.45"/>
</a>
</g>
</g>
<!-- Node18 -->
<g id="Node000018" class="node">
<title>Node18</title>
<g id="a_Node000018"><a xlink:href="../../dd/dab/classDeckStateManager.html#aac8bb40a3b2705db7a04cf880972e63f" target="_top" xlink:title="Swaps one copy of the card at the given index between the maindeck and sideboard. No&#45;ops if index is ...">
<polygon fill="white" stroke="#666666" points="541.5,-454 377.5,-454 377.5,-424 541.5,-424 541.5,-454"/>
<text text-anchor="start" x="385.5" y="-442" font-family="Helvetica,sans-Serif" font-size="10.00">DeckStateManager::swapCard</text>
<text text-anchor="middle" x="459.5" y="-431" font-family="Helvetica,sans-Serif" font-size="10.00">AtIndex</text>
</a>
</g>
</g>
<!-- Node17&#45;&gt;Node18 -->
<g id="edge23_Node000017_Node000018" class="edge">
<title>Node17&#45;&gt;Node18</title>
<g id="a_edge23_Node000017_Node000018"><a xlink:title=" ">
<path fill="none" stroke="#63b8ff" d="M624.52,-439C600.53,-439 569.85,-439 541.54,-439"/>
<polygon fill="#63b8ff" stroke="#63b8ff" points="629.53,-439 624.53,-441.25 627.03,-439 624.53,-439 624.53,-439 624.53,-439 627.03,-439 624.53,-436.75 629.53,-439 629.53,-439"/>
</a>
</g>
</g>
<!-- Node20 -->
<g id="Node000020" class="node">
<title>Node20</title>
<g id="a_Node000020"><a xlink:href="../../de/d26/classDlgSelectSetForCards.html#afc4fba26e6ae2ded0871a40cc35de04e" target="_top" xlink:title=" ">
<polygon fill="white" stroke="#666666" points="729.5,-392 607.5,-392 607.5,-362 729.5,-362 729.5,-392"/>
<text text-anchor="start" x="615.5" y="-380" font-family="Helvetica,sans-Serif" font-size="10.00">DlgSelectSetForCards</text>
<text text-anchor="middle" x="668.5" y="-369" font-family="Helvetica,sans-Serif" font-size="10.00">::actOK</text>
</a>
</g>
</g>
<!-- Node19&#45;&gt;Node20 -->
<g id="edge26_Node000019_Node000020" class="edge">
<title>Node19&#45;&gt;Node20</title>
<g id="a_edge26_Node000019_Node000020"><a xlink:title=" ">
<path fill="none" stroke="#63b8ff" d="M824.47,-377C796.53,-377 760.16,-377 729.67,-377"/>
<polygon fill="#63b8ff" stroke="#63b8ff" points="829.59,-377 824.59,-379.25 827.09,-377 824.59,-377 824.59,-377 824.59,-377 827.09,-377 824.59,-374.75 829.59,-377 829.59,-377"/>
</a>
</g>
</g>
<!-- Node21 -->
<g id="Node000021" class="node">
<title>Node21</title>
<g id="a_Node000021"><a xlink:href="../../de/d26/classDlgSelectSetForCards.html#a5dcdea65584bb80ef387657cd1b11bed" target="_top" xlink:title=" ">
<polygon fill="white" stroke="#666666" points="523.5,-392 395.5,-392 395.5,-362 523.5,-362 523.5,-392"/>
<text text-anchor="start" x="403.5" y="-380" font-family="Helvetica,sans-Serif" font-size="10.00">DlgSelectSetForCards</text>
<text text-anchor="middle" x="459.5" y="-369" font-family="Helvetica,sans-Serif" font-size="10.00">::DlgSelectSetForCards</text>
</a>
</g>
</g>
<!-- Node20&#45;&gt;Node21 -->
<g id="edge27_Node000020_Node000021" class="edge">
<title>Node20&#45;&gt;Node21</title>
<g id="a_edge27_Node000020_Node000021"><a xlink:title=" ">
<path fill="none" stroke="#63b8ff" d="M602.06,-377C577.01,-377 548.52,-377 523.69,-377"/>
<polygon fill="#63b8ff" stroke="#63b8ff" points="607.35,-377 602.35,-379.25 604.85,-377 602.35,-377 602.35,-377 602.35,-377 604.85,-377 602.35,-374.75 607.35,-377 607.35,-377"/>
</a>
</g>
</g>
<!-- Node25 -->
<g id="Node000025" class="node">
<title>Node25</title>
<g id="a_Node000025"><a xlink:href="../../d2/d23/classPlayerActions.html#aa45ef95eb5f2cfa1b0cbc98ff25999b3" target="_top" xlink:title=" ">
<polygon fill="white" stroke="#666666" points="737,-288 600,-288 600,-258 737,-258 737,-288"/>
<text text-anchor="start" x="608" y="-276" font-family="Helvetica,sans-Serif" font-size="10.00">PlayerActions::actCreate</text>
<text text-anchor="middle" x="668.5" y="-265" font-family="Helvetica,sans-Serif" font-size="10.00">AllRelatedCards</text>
</a>
</g>
</g>
<!-- Node24&#45;&gt;Node25 -->
<g id="edge31_Node000024_Node000025" class="edge">
<title>Node24&#45;&gt;Node25</title>
<g id="a_edge31_Node000024_Node000025"><a xlink:title=" ">
<path fill="none" stroke="#63b8ff" d="M1005.06,-242.78C946.5,-245.98 863.53,-251.15 791,-258 773.54,-259.65 754.72,-261.79 737.22,-263.94"/>
<polygon fill="#63b8ff" stroke="#63b8ff" points="1010.29,-242.5 1005.42,-245.01 1007.8,-242.63 1005.3,-242.77 1005.3,-242.77 1005.3,-242.77 1007.8,-242.63 1005.18,-240.52 1010.29,-242.5 1010.29,-242.5"/>
</a>
</g>
</g>
<!-- Node26 -->
<g id="Node000026" class="node">
<title>Node26</title>
<g id="a_Node000026"><a xlink:href="../../d2/d23/classPlayerActions.html#afec363d2b09d55ae1b0663962e91b1e9" target="_top" xlink:title=" ">
<polygon fill="white" stroke="#666666" points="949,-297 791,-297 791,-267 949,-267 949,-297"/>
<text text-anchor="start" x="799" y="-285" font-family="Helvetica,sans-Serif" font-size="10.00">PlayerActions::createRelated</text>
<text text-anchor="middle" x="870" y="-274" font-family="Helvetica,sans-Serif" font-size="10.00">FromRelation</text>
</a>
</g>
</g>
<!-- Node24&#45;&gt;Node26 -->
<g id="edge33_Node000024_Node000026" class="edge">
<title>Node24&#45;&gt;Node26</title>
<g id="a_edge33_Node000024_Node000026"><a xlink:title=" ">
<path fill="none" stroke="#63b8ff" d="M1027.13,-249.54C1013.38,-252.27 998.64,-255.21 985,-258 971.03,-260.85 956.11,-263.95 941.82,-266.95"/>
<polygon fill="#63b8ff" stroke="#63b8ff" points="1032.14,-248.55 1027.67,-251.73 1029.69,-249.04 1027.23,-249.52 1027.23,-249.52 1027.23,-249.52 1029.69,-249.04 1026.8,-247.31 1032.14,-248.55 1032.14,-248.55"/>
</a>
</g>
</g>
<!-- Node25&#45;&gt;Node3 -->
<g id="edge32_Node000025_Node000003" class="edge">
<title>Node25&#45;&gt;Node3</title>
<g id="a_edge32_Node000025_Node000003"><a xlink:title=" ">
<path fill="none" stroke="#63b8ff" d="M594.29,-281.49C574.9,-283.74 553.94,-286.17 534.51,-288.42"/>
<polygon fill="#63b8ff" stroke="#63b8ff" points="599.72,-280.86 595.01,-283.67 597.24,-281.15 594.75,-281.43 594.75,-281.43 594.75,-281.43 597.24,-281.15 594.49,-279.2 599.72,-280.86 599.72,-280.86"/>
</a>
</g>
</g>
<!-- Node26&#45;&gt;Node2 -->
<g id="edge35_Node000026_Node000002" class="edge">
<title>Node26&#45;&gt;Node2</title>
<g id="a_edge35_Node000026_Node000002"><a xlink:title=" ">
<path fill="none" stroke="#63b8ff" d="M787.03,-298.02C770.46,-301.26 753.21,-304.64 737.19,-307.77"/>
<polygon fill="#63b8ff" stroke="#63b8ff" points="792.15,-297.02 787.68,-300.19 789.7,-297.5 787.25,-297.98 787.25,-297.98 787.25,-297.98 789.7,-297.5 786.81,-295.77 792.15,-297.02 792.15,-297.02"/>
</a>
</g>
</g>
<!-- Node26&#45;&gt;Node25 -->
<g id="edge34_Node000026_Node000025" class="edge">
<title>Node26&#45;&gt;Node25</title>
<g id="a_edge34_Node000026_Node000025"><a xlink:title=" ">
<path fill="none" stroke="#63b8ff" d="M785.73,-278.24C769.56,-277.51 752.8,-276.76 737.2,-276.05"/>
<polygon fill="#63b8ff" stroke="#63b8ff" points="790.72,-278.47 785.63,-280.49 788.23,-278.36 785.73,-278.24 785.73,-278.24 785.73,-278.24 788.23,-278.36 785.83,-276 790.72,-278.47 790.72,-278.47"/>
</a>
</g>
</g>
<!-- Node29 -->
<g id="Node000029" class="node">
<title>Node29</title>
<g id="a_Node000029"><a xlink:href="../../da/da3/classCardPictureToLoad.html#a33a38486572b8ddf1856a85cf64466c1" target="_top" xlink:title="Populates the currentSetUrls list with URLs for the current set.">
<polygon fill="white" stroke="#666666" points="725,-174 612,-174 612,-144 725,-144 725,-174"/>
<text text-anchor="start" x="620" y="-162" font-family="Helvetica,sans-Serif" font-size="10.00">CardPictureToLoad::</text>
<text text-anchor="middle" x="668.5" y="-151" font-family="Helvetica,sans-Serif" font-size="10.00">populateSetUrls</text>
</a>
</g>
</g>
<!-- Node28&#45;&gt;Node29 -->
<g id="edge38_Node000028_Node000029" class="edge">
<title>Node28&#45;&gt;Node29</title>
<g id="a_edge38_Node000028_Node000029"><a xlink:title=" ">
<path fill="none" stroke="#63b8ff" d="M1025.26,-164.28C966.87,-163.51 872.49,-162.23 791,-161 769.48,-160.67 745.83,-160.29 725.15,-159.95"/>
<polygon fill="#63b8ff" stroke="#63b8ff" points="1030.45,-164.34 1025.42,-166.53 1027.95,-164.31 1025.45,-164.28 1025.45,-164.28 1025.45,-164.28 1027.95,-164.31 1025.48,-162.03 1030.45,-164.34 1030.45,-164.34"/>
</a>
</g>
</g>
<!-- Node32 -->
<g id="Node000032" class="node">
<title>Node32</title>
<g id="a_Node000032"><a xlink:href="../../da/da3/classCardPictureToLoad.html#a08ded2d3e1511a346a7d4d1828de611b" target="_top" xlink:title="Transforms a URL template into a concrete URL for this card/set.">
<polygon fill="white" stroke="#666666" points="926.5,-152 813.5,-152 813.5,-122 926.5,-122 926.5,-152"/>
<text text-anchor="start" x="821.5" y="-140" font-family="Helvetica,sans-Serif" font-size="10.00">CardPictureToLoad::</text>
<text text-anchor="middle" x="870" y="-129" font-family="Helvetica,sans-Serif" font-size="10.00">transformUrl</text>
</a>
</g>
</g>
<!-- Node28&#45;&gt;Node32 -->
<g id="edge41_Node000028_Node000032" class="edge">
<title>Node28&#45;&gt;Node32</title>
<g id="a_edge41_Node000028_Node000032"><a xlink:title=" ">
<path fill="none" stroke="#63b8ff" d="M1025.22,-157.56C994.74,-153.5 957.12,-148.48 926.66,-144.42"/>
<polygon fill="#63b8ff" stroke="#63b8ff" points="1030.43,-158.26 1025.18,-159.83 1027.95,-157.93 1025.48,-157.6 1025.48,-157.6 1025.48,-157.6 1027.95,-157.93 1025.77,-155.37 1030.43,-158.26 1030.43,-158.26"/>
</a>
</g>
</g>
<!-- Node30 -->
<g id="Node000030" class="node">
<title>Node30</title>
<g id="a_Node000030"><a xlink:href="../../da/da3/classCardPictureToLoad.html#a9a66e6cbc4dba7aeb488d2b25f5aedb8" target="_top" xlink:title="Advance to the next set in the list.">
<polygon fill="white" stroke="#666666" points="516,-174 403,-174 403,-144 516,-144 516,-174"/>
<text text-anchor="start" x="411" y="-162" font-family="Helvetica,sans-Serif" font-size="10.00">CardPictureToLoad::</text>
<text text-anchor="middle" x="459.5" y="-151" font-family="Helvetica,sans-Serif" font-size="10.00">nextSet</text>
</a>
</g>
</g>
<!-- Node29&#45;&gt;Node30 -->
<g id="edge39_Node000029_Node000030" class="edge">
<title>Node29&#45;&gt;Node30</title>
<g id="a_edge39_Node000029_Node000030"><a xlink:title=" ">
<path fill="none" stroke="#63b8ff" d="M606.49,-159C577.95,-159 544.2,-159 516.34,-159"/>
<polygon fill="#63b8ff" stroke="#63b8ff" points="611.76,-159 606.76,-161.25 609.26,-159 606.76,-159 606.76,-159 606.76,-159 609.26,-159 606.76,-156.75 611.76,-159 611.76,-159"/>
</a>
</g>
</g>
<!-- Node31 -->
<g id="Node000031" class="node">
<title>Node31</title>
<g id="a_Node000031"><a xlink:href="../../da/da3/classCardPictureToLoad.html#aec3e3eef21d2724300416387ecaf6a2e" target="_top" xlink:title="Constructs a CardPictureToLoad for a given ExactCard.">
<polygon fill="white" stroke="#666666" points="304,-174 191,-174 191,-144 304,-144 304,-174"/>
<text text-anchor="start" x="199" y="-162" font-family="Helvetica,sans-Serif" font-size="10.00">CardPictureToLoad::</text>
<text text-anchor="middle" x="247.5" y="-151" font-family="Helvetica,sans-Serif" font-size="10.00">CardPictureToLoad</text>
</a>
</g>
</g>
<!-- Node30&#45;&gt;Node31 -->
<g id="edge40_Node000030_Node000031" class="edge">
<title>Node30&#45;&gt;Node31</title>
<g id="a_edge40_Node000030_Node000031"><a xlink:title=" ">
<path fill="none" stroke="#63b8ff" d="M397.71,-159C368.18,-159 332.94,-159 304.12,-159"/>
<polygon fill="#63b8ff" stroke="#63b8ff" points="402.78,-159 397.78,-161.25 400.28,-159 397.78,-159 397.78,-159 397.78,-159 400.28,-159 397.78,-156.75 402.78,-159 402.78,-159"/>
</a>
</g>
</g>
<!-- Node32&#45;&gt;Node29 -->
<g id="edge42_Node000032_Node000029" class="edge">
<title>Node32&#45;&gt;Node29</title>
<g id="a_edge42_Node000032_Node000029"><a xlink:title=" ">
<path fill="none" stroke="#63b8ff" d="M808.2,-143.7C781.75,-146.62 750.96,-150.02 725.12,-152.87"/>
<polygon fill="#63b8ff" stroke="#63b8ff" points="813.43,-143.13 808.7,-145.91 810.94,-143.4 808.46,-143.68 808.46,-143.68 808.46,-143.68 810.94,-143.4 808.21,-141.44 813.43,-143.13 813.43,-143.13"/>
</a>
</g>
</g>
</g>
</svg>

<g id="navigator" transform="translate(0 0)" fill="#404254">
  <rect fill="#f2f5e9" fill-opacity="0.5" stroke="#606060" stroke-width=".5" x="0" y="0" width="60" height="60"/>
  <use id="zoomplus" xlink:href="#zoomPlus" x="17" y="9" onmousedown="handleZoom(evt,'in')"/>
  <use id="zoomminus" xlink:href="#zoomMin" x="42" y="9" onmousedown="handleZoom(evt,'out')"/>
  <use id="reset" xlink:href="#resetDef" x="30" y="36" onmousedown="handleReset()"/>
   <use id="arrowup" xlink:href="#arrowUp" x="0" y="0" onmousedown="handlePan(0,-1)"/>
  <use id="arrowright" xlink:href="#arrowRight" x="0" y="0" onmousedown="handlePan(1,0)"/>
  <use id="arrowdown" xlink:href="#arrowDown" x="0" y="0" onmousedown="handlePan(0,1)"/>
  <use id="arrowleft" xlink:href="#arrowLeft" x="0" y="0" onmousedown="handlePan(-1,0)"/>
</g>
<svg viewBox="0 0 15 15" width="100%" height="30px" preserveAspectRatio="xMaxYMin meet">
 <g id="arrow_out" transform="scale(0.3 0.3)">
  <a xlink:href="classExactCard_af1114a393f7e751f0086952b90f82f1b_icgraph_org.svg" target="_base">
   <rect id="button" ry="5" rx="5" y="6" x="6" height="38" width="38"
        fill="#f2f5e9" fill-opacity="0.5" stroke="#606060" stroke-width="1.0"/>
   <path id="arrow"
     d="M 11.500037,31.436501 C 11.940474,20.09759 22.043105,11.32322 32.158766,21.979434 L 37.068811,17.246167 C 37.068811,17.246167 37.088388,32 37.088388,32 L 22.160133,31.978069 C 22.160133,31.978069 26.997745,27.140456 26.997745,27.140456 C 18.528582,18.264221 13.291696,25.230495 11.500037,31.436501 z"
     style="fill:#404040;"/>
  </a>
 </g>
</svg>

<style type='text/css'>
<![CDATA[
[data-mouse-over-selected='false'] { opacity: 0.7; }
[data-mouse-over-selected='true']  { opacity: 1.0; }
]]>
</style>
<script type="application/ecmascript"><![CDATA[
document.addEventListener('DOMContentLoaded', (event) => {
  highlightEdges();
  highlightAdjacentNodes();
});
]]></script>
</svg>
