<?xml version="1.0" encoding="UTF-8" standalone="no"?>
<!DOCTYPE svg PUBLIC "-//W3C//DTD SVG 1.1//EN"
 "http://www.w3.org/Graphics/SVG/1.1/DTD/svg11.dtd">
<!-- Generated by graphviz version 2.43.0 (0)
 -->
<!-- Title: DlgForgotPasswordRequest::getHost Pages: 1 -->
<svg width="921pt" height="175pt"
 viewBox="0.00 0.00 921.00 175.00" xmlns="http://www.w3.org/2000/svg" xmlns:xlink="http://www.w3.org/1999/xlink">
<g id="graph0" class="graph" transform="scale(1 1) rotate(0) translate(4 171)">
<title>DlgForgotPasswordRequest::getHost</title>
<!-- Node1 -->
<g id="Node000001" class="node">
<title>Node1</title>
<g id="a_Node000001"><a xlink:title=" ">
<polygon fill="#999999" stroke="#666666" points="913,-135.5 764,-135.5 764,-105.5 913,-105.5 913,-135.5"/>
<text text-anchor="start" x="772" y="-123.5" font-family="Helvetica,sans-Serif" font-size="10.00">DlgForgotPasswordRequest</text>
<text text-anchor="middle" x="838.5" y="-112.5" font-family="Helvetica,sans-Serif" font-size="10.00">::getHost</text>
</a>
</g>
</g>
<!-- Node2 -->
<g id="Node000002" class="node">
<title>Node2</title>
<g id="a_Node000002"><a xlink:href="../../d6/d1a/classMainWindow.html#aac93e51c5ce4522c1c587904de52b6ea" target="_top" xlink:title=" ">
<polygon fill="white" stroke="#666666" points="728,-135.5 552,-135.5 552,-105.5 728,-105.5 728,-135.5"/>
<text text-anchor="start" x="560" y="-123.5" font-family="Helvetica,sans-Serif" font-size="10.00">MainWindow::actForgotPassword</text>
<text text-anchor="middle" x="640" y="-112.5" font-family="Helvetica,sans-Serif" font-size="10.00">Request</text>
</a>
</g>
</g>
<!-- Node1&#45;&gt;Node2 -->
<g id="edge1_Node000001_Node000002" class="edge">
<title>Node1&#45;&gt;Node2</title>
<g id="a_edge1_Node000001_Node000002"><a xlink:title=" ">
<path fill="none" stroke="#63b8ff" d="M758.55,-120.5C748.52,-120.5 738.21,-120.5 728.05,-120.5"/>
<polygon fill="#63b8ff" stroke="#63b8ff" points="763.77,-120.5 758.77,-122.75 761.27,-120.5 758.77,-120.5 758.77,-120.5 758.77,-120.5 761.27,-120.5 758.77,-118.25 763.77,-120.5 763.77,-120.5"/>
</a>
</g>
</g>
<!-- Node3 -->
<g id="Node000003" class="node">
<title>Node3</title>
<g id="a_Node000003"><a xlink:href="../../d6/d1a/classMainWindow.html#a427da61ae9f7331f752fa02fc4504eff" target="_top" xlink:title=" ">
<polygon fill="white" stroke="#666666" points="516,-111 376,-111 376,-92 516,-92 516,-111"/>
<text text-anchor="middle" x="446" y="-99" font-family="Helvetica,sans-Serif" font-size="10.00">MainWindow::actConnect</text>
</a>
</g>
</g>
<!-- Node2&#45;&gt;Node3 -->
<g id="edge2_Node000002_Node000003" class="edge">
<title>Node2&#45;&gt;Node3</title>
<g id="a_edge2_Node000002_Node000003"><a xlink:title=" ">
<path fill="none" stroke="#63b8ff" d="M546.91,-111.39C536.56,-110.36 526.15,-109.33 516.16,-108.34"/>
<polygon fill="#63b8ff" stroke="#63b8ff" points="551.99,-111.89 546.79,-113.64 549.5,-111.64 547.01,-111.4 547.01,-111.4 547.01,-111.4 549.5,-111.64 547.23,-109.16 551.99,-111.89 551.99,-111.89"/>
</a>
</g>
</g>
<!-- Node6 -->
<g id="Node000006" class="node">
<title>Node6</title>
<g id="a_Node000006"><a xlink:href="../../d6/d1a/classMainWindow.html#a62cd8712fb41a754298f6f60eead2cb0" target="_top" xlink:title=" ">
<polygon fill="white" stroke="#666666" points="338,-167 186,-167 186,-148 338,-148 338,-167"/>
<text text-anchor="middle" x="262" y="-155" font-family="Helvetica,sans-Serif" font-size="10.00">MainWindow::createActions</text>
</a>
</g>
</g>
<!-- Node2&#45;&gt;Node6 -->
<g id="edge13_Node000002_Node000006" class="edge">
<title>Node2&#45;&gt;Node6</title>
<g id="a_edge13_Node000002_Node000006"><a xlink:title=" ">
<path fill="none" stroke="#63b8ff" d="M546.44,-129.61C482.39,-135.91 398.23,-144.19 338.3,-150.09"/>
<polygon fill="#63b8ff" stroke="#63b8ff" points="551.79,-129.08 547.04,-131.81 549.3,-129.33 546.82,-129.57 546.82,-129.57 546.82,-129.57 549.3,-129.33 546.6,-127.33 551.79,-129.08 551.79,-129.08"/>
</a>
</g>
</g>
<!-- Node4 -->
<g id="Node000004" class="node">
<title>Node4</title>
<g id="a_Node000004"><a xlink:href="../../d6/d1a/classMainWindow.html#af3dc551a8b7ef6eac47af065a1649b22" target="_top" xlink:title=" ">
<polygon fill="white" stroke="#666666" points="336,-130 188,-130 188,-111 336,-111 336,-130"/>
<text text-anchor="middle" x="262" y="-118" font-family="Helvetica,sans-Serif" font-size="10.00">MainWindow::activateError</text>
</a>
</g>
</g>
<!-- Node3&#45;&gt;Node4 -->
<g id="edge3_Node000003_Node000004" class="edge">
<title>Node3&#45;&gt;Node4</title>
<g id="a_edge3_Node000003_Node000004"><a xlink:title=" ">
<path fill="none" stroke="#63b8ff" d="M370.73,-109.25C359.36,-110.44 347.62,-111.67 336.26,-112.85"/>
<polygon fill="#63b8ff" stroke="#63b8ff" points="375.93,-108.71 371.19,-111.47 373.45,-108.97 370.96,-109.23 370.96,-109.23 370.96,-109.23 373.45,-108.97 370.73,-106.99 375.93,-108.71 375.93,-108.71"/>
</a>
</g>
</g>
<!-- Node3&#45;&gt;Node6 -->
<g id="edge5_Node000003_Node000006" class="edge">
<title>Node3&#45;&gt;Node6</title>
<g id="a_edge5_Node000003_Node000006"><a xlink:title=" ">
<path fill="none" stroke="#63b8ff" d="M416.21,-112.96C395.28,-121.03 366.15,-131.74 340,-139.5 329.73,-142.55 318.58,-145.41 308.02,-147.91"/>
<polygon fill="#63b8ff" stroke="#63b8ff" points="421.08,-111.07 417.23,-114.97 418.75,-111.97 416.42,-112.88 416.42,-112.88 416.42,-112.88 418.75,-111.97 415.6,-110.78 421.08,-111.07 421.08,-111.07"/>
</a>
</g>
</g>
<!-- Node7 -->
<g id="Node000007" class="node">
<title>Node7</title>
<g id="a_Node000007"><a xlink:href="../../d6/d1a/classMainWindow.html#a166d87b0de19c021bec7f04c2ffbff3f" target="_top" xlink:title=" ">
<polygon fill="white" stroke="#666666" points="328,-93 196,-93 196,-74 328,-74 328,-93"/>
<text text-anchor="middle" x="262" y="-81" font-family="Helvetica,sans-Serif" font-size="10.00">MainWindow::loginError</text>
</a>
</g>
</g>
<!-- Node3&#45;&gt;Node7 -->
<g id="edge7_Node000003_Node000007" class="edge">
<title>Node3&#45;&gt;Node7</title>
<g id="a_edge7_Node000003_Node000007"><a xlink:title=" ">
<path fill="none" stroke="#63b8ff" d="M370.76,-94.16C356.63,-92.76 341.94,-91.31 328.12,-89.94"/>
<polygon fill="#63b8ff" stroke="#63b8ff" points="375.93,-94.67 370.74,-96.42 373.45,-94.42 370.96,-94.18 370.96,-94.18 370.96,-94.18 373.45,-94.42 371.18,-91.94 375.93,-94.67 375.93,-94.67"/>
</a>
</g>
</g>
<!-- Node8 -->
<g id="Node000008" class="node">
<title>Node8</title>
<g id="a_Node000008"><a xlink:href="../../d6/d1a/classMainWindow.html#a5ddc5d40005a4245e6106868286c0d69" target="_top" xlink:title=" ">
<polygon fill="white" stroke="#666666" points="340,-56 184,-56 184,-37 340,-37 340,-56"/>
<text text-anchor="middle" x="262" y="-44" font-family="Helvetica,sans-Serif" font-size="10.00">MainWindow::serverTimeout</text>
</a>
</g>
</g>
<!-- Node3&#45;&gt;Node8 -->
<g id="edge9_Node000003_Node000008" class="edge">
<title>Node3&#45;&gt;Node8</title>
<g id="a_edge9_Node000003_Node000008"><a xlink:title=" ">
<path fill="none" stroke="#63b8ff" d="M414.45,-90.23C393.62,-82.74 365.33,-72.95 340,-65.5 328.64,-62.16 316.22,-58.92 304.74,-56.09"/>
<polygon fill="#63b8ff" stroke="#63b8ff" points="419.31,-91.98 413.85,-92.4 416.96,-91.13 414.61,-90.28 414.61,-90.28 414.61,-90.28 416.96,-91.13 415.37,-88.17 419.31,-91.98 419.31,-91.98"/>
</a>
</g>
</g>
<!-- Node9 -->
<g id="Node000009" class="node">
<title>Node9</title>
<g id="a_Node000009"><a xlink:href="../../d6/d1a/classMainWindow.html#ad6cdfe7201b0cc261ed2e30b1cc96bea" target="_top" xlink:title=" ">
<polygon fill="white" stroke="#666666" points="332,-19 192,-19 192,0 332,0 332,-19"/>
<text text-anchor="middle" x="262" y="-7" font-family="Helvetica,sans-Serif" font-size="10.00">MainWindow::socketError</text>
</a>
</g>
</g>
<!-- Node3&#45;&gt;Node9 -->
<g id="edge11_Node000003_Node000009" class="edge">
<title>Node3&#45;&gt;Node9</title>
<g id="a_edge11_Node000003_Node000009"><a xlink:title=" ">
<path fill="none" stroke="#63b8ff" d="M430.43,-88.43C411.13,-71.81 375.37,-43.37 340,-27.5 332.48,-24.13 324.26,-21.35 316.08,-19.07"/>
<polygon fill="#63b8ff" stroke="#63b8ff" points="434.52,-91.99 429.27,-90.41 432.63,-90.35 430.75,-88.71 430.75,-88.71 430.75,-88.71 432.63,-90.35 432.22,-87.01 434.52,-91.99 434.52,-91.99"/>
</a>
</g>
</g>
<!-- Node5 -->
<g id="Node000005" class="node">
<title>Node5</title>
<g id="a_Node000005"><a xlink:href="../../d6/d1a/classMainWindow.html#a996c5a2b6f77944776856f08ec30858d" target="_top" xlink:title=" ">
<polygon fill="white" stroke="#666666" points="148,-93 0,-93 0,-74 148,-74 148,-93"/>
<text text-anchor="middle" x="74" y="-81" font-family="Helvetica,sans-Serif" font-size="10.00">MainWindow::MainWindow</text>
</a>
</g>
</g>
<!-- Node4&#45;&gt;Node5 -->
<g id="edge4_Node000004_Node000005" class="edge">
<title>Node4&#45;&gt;Node5</title>
<g id="a_edge4_Node000004_Node000005"><a xlink:title=" ">
<path fill="none" stroke="#63b8ff" d="M208.17,-109.99C181.4,-104.66 149.13,-98.25 123.06,-93.06"/>
<polygon fill="#63b8ff" stroke="#63b8ff" points="213.1,-110.97 207.76,-112.2 210.65,-110.48 208.2,-110 208.2,-110 208.2,-110 210.65,-110.48 208.64,-107.79 213.1,-110.97 213.1,-110.97"/>
</a>
</g>
</g>
<!-- Node6&#45;&gt;Node5 -->
<g id="edge6_Node000006_Node000005" class="edge">
<title>Node6&#45;&gt;Node5</title>
<g id="a_edge6_Node000006_Node000005"><a xlink:title=" ">
<path fill="none" stroke="#63b8ff" d="M207.13,-146.69C199.28,-144.6 191.36,-142.21 184,-139.5 149.25,-126.73 111.38,-105.45 90.69,-93.13"/>
<polygon fill="#63b8ff" stroke="#63b8ff" points="212,-147.95 206.59,-148.87 209.58,-147.32 207.16,-146.7 207.16,-146.7 207.16,-146.7 209.58,-147.32 207.72,-144.52 212,-147.95 212,-147.95"/>
</a>
</g>
</g>
<!-- Node7&#45;&gt;Node5 -->
<g id="edge8_Node000007_Node000005" class="edge">
<title>Node7&#45;&gt;Node5</title>
<g id="a_edge8_Node000007_Node000005"><a xlink:title=" ">
<path fill="none" stroke="#63b8ff" d="M190.86,-83.5C176.94,-83.5 162.3,-83.5 148.28,-83.5"/>
<polygon fill="#63b8ff" stroke="#63b8ff" points="195.95,-83.5 190.95,-85.75 193.45,-83.5 190.95,-83.5 190.95,-83.5 190.95,-83.5 193.45,-83.5 190.95,-81.25 195.95,-83.5 195.95,-83.5"/>
</a>
</g>
</g>
<!-- Node8&#45;&gt;Node5 -->
<g id="edge10_Node000008_Node000005" class="edge">
<title>Node8&#45;&gt;Node5</title>
<g id="a_edge10_Node000008_Node000005"><a xlink:title=" ">
<path fill="none" stroke="#63b8ff" d="M208.17,-57.01C181.4,-62.34 149.13,-68.75 123.06,-73.94"/>
<polygon fill="#63b8ff" stroke="#63b8ff" points="213.1,-56.03 208.64,-59.21 210.65,-56.52 208.2,-57 208.2,-57 208.2,-57 210.65,-56.52 207.76,-54.8 213.1,-56.03 213.1,-56.03"/>
</a>
</g>
</g>
<!-- Node9&#45;&gt;Node5 -->
<g id="edge12_Node000009_Node000005" class="edge">
<title>Node9&#45;&gt;Node5</title>
<g id="a_edge12_Node000009_Node000005"><a xlink:title=" ">
<path fill="none" stroke="#63b8ff" d="M207.13,-20.31C199.28,-22.4 191.36,-24.79 184,-27.5 149.25,-40.27 111.38,-61.55 90.69,-73.87"/>
<polygon fill="#63b8ff" stroke="#63b8ff" points="212,-19.05 207.72,-22.48 209.58,-19.68 207.16,-20.3 207.16,-20.3 207.16,-20.3 209.58,-19.68 206.59,-18.13 212,-19.05 212,-19.05"/>
</a>
</g>
</g>
</g>
</svg>
