<?xml version="1.0" encoding="UTF-8" standalone="no"?>
<!DOCTYPE svg PUBLIC "-//W3C//DTD SVG 1.1//EN"
 "http://www.w3.org/Graphics/SVG/1.1/DTD/svg11.dtd">
<!-- Generated by graphviz version 2.43.0 (0)
 -->
<!-- Title: TabGame::retranslateUi Pages: 1 -->
<!--zoomable 245 -->

<svg id="main" version="1.1" xmlns="http://www.w3.org/2000/svg" xmlns:xlink="http://www.w3.org/1999/xlink" xml:space="preserve" onload="init(evt)">

<style type="text/css"><![CDATA[
.node, .edge {opacity: 0.7;}
.node.selected, .edge.selected {opacity: 1;}
.edge:hover path { stroke: red; }
.edge:hover polygon { stroke: red; fill: red; }
]]></style>

<defs>
  <circle id="rim" cx="0" cy="0" r="7"/>
  <circle id="rim2" cx="0" cy="0" r="3.5"/>
  <g id="zoomPlus">
    <use xlink:href="#rim" fill="#404040"><set attributeName="fill" to="#808080" begin="zoomplus.mouseover" end="zoomplus.mouseout"/></use>
    <path d="M-4,0h8M0,-4v8" fill="none" stroke="white" stroke-width="1.5" pointer-events="none"/>
  </g>
  <g id="zoomMin">
    <use xlink:href="#rim" fill="#404040"><set attributeName="fill" to="#808080" begin="zoomminus.mouseover" end="zoomminus.mouseout"/></use>
    <path d="M-4,0h8" fill="none" stroke="white" stroke-width="1.5" pointer-events="none"/>
  </g>
  <g id="arrowUp" transform="translate(30 24)">
    <use xlink:href="#rim"/>
    <path pointer-events="none" fill="none" stroke="white" stroke-width="1.5" d="M0,-3.0v7 M-2.5,-0.5L0,-3.0L2.5,-0.5"/>
  </g>
  <g id="arrowRight" transform="rotate(90) translate(36 -43)">
    <use xlink:href="#rim"/>
    <path pointer-events="none" fill="none" stroke="white" stroke-width="1.5" d="M0,-3.0v7 M-2.5,-0.5L0,-3.0L2.5,-0.5"/>
  </g>
  <g id="arrowDown" transform="rotate(180) translate(-30 -48)">
    <use xlink:href="#rim"/>
    <path pointer-events="none" fill="none" stroke="white" stroke-width="1.5" d="M0,-3.0v7 M-2.5,-0.5L0,-3.0L2.5,-0.5"/>
  </g>
  <g id="arrowLeft" transform="rotate(270) translate(-36 17)">
    <use xlink:href="#rim"/>
    <path pointer-events="none" fill="none" stroke="white" stroke-width="1.5" d="M0,-3.0v7 M-2.5,-0.5L0,-3.0L2.5,-0.5"/>
  </g>
  <g id="resetDef">
    <use xlink:href="#rim2" fill="#404040"><set attributeName="fill" to="#808080" begin="reset.mouseover" end="reset.mouseout"/></use>
  </g>
</defs>
<script type="application/ecmascript">
var viewWidth = 1665;
var viewHeight = 245;
var sectionId = 'dynsection-110';
</script>
<script type="application/ecmascript" xlink:href="../../svg.min.js"/>
<svg id="graph" class="graph">
<g id="viewport">
<title>TabGame::retranslateUi</title>
<!-- Node1 -->
<g id="Node000001" class="node">
<title>Node1</title>
<g id="a_Node000001"><a xlink:title=" ">
<polygon fill="#999999" stroke="#666666" points="1657,-157.59 1525,-157.59 1525,-138.59 1657,-138.59 1657,-157.59"/>
<text text-anchor="middle" x="1591" y="-145.59" font-family="Helvetica,sans-Serif" font-size="10.00">TabGame::retranslateUi</text>
</a>
</g>
</g>
<!-- Node2 -->
<g id="Node000002" class="node">
<title>Node2</title>
<g id="a_Node000002"><a xlink:href="../../de/d08/classTabGame.html#ab7f63134f141f73682faf33d3c501757" target="_top" xlink:title=" ">
<polygon fill="white" stroke="#666666" points="1264,-203.09 1116,-203.09 1116,-173.09 1264,-173.09 1264,-203.09"/>
<text text-anchor="start" x="1124" y="-191.09" font-family="Helvetica,sans-Serif" font-size="10.00">TabGame::connectToPlayer</text>
<text text-anchor="middle" x="1190" y="-180.09" font-family="Helvetica,sans-Serif" font-size="10.00">Manager</text>
</a>
</g>
</g>
<!-- Node1&#45;&gt;Node2 -->
<g id="edge1_Node000001_Node000002" class="edge">
<title>Node1&#45;&gt;Node2</title>
<g id="a_edge1_Node000001_Node000002"><a xlink:title=" ">
<path fill="none" stroke="#63b8ff" d="M1519.46,-155.16C1447.7,-162.35 1336.99,-173.45 1264.26,-180.74"/>
<polygon fill="#63b8ff" stroke="#63b8ff" points="1524.56,-154.65 1519.81,-157.39 1522.07,-154.9 1519.58,-155.15 1519.58,-155.15 1519.58,-155.15 1522.07,-154.9 1519.36,-152.91 1524.56,-154.65 1524.56,-154.65"/>
</a>
</g>
</g>
<!-- Node3 -->
<g id="Node000003" class="node">
<title>Node3</title>
<g id="a_Node000003"><a xlink:href="../../de/d08/classTabGame.html#a2b6beeea83d5e1e5b29712929e9eb08b" target="_top" xlink:title=" ">
<polygon fill="white" stroke="#666666" points="1068,-135.59 954,-135.59 954,-116.59 1068,-116.59 1068,-135.59"/>
<text text-anchor="middle" x="1011" y="-123.59" font-family="Helvetica,sans-Serif" font-size="10.00">TabGame::TabGame</text>
</a>
</g>
</g>
<!-- Node1&#45;&gt;Node3 -->
<g id="edge28_Node000001_Node000003" class="edge">
<title>Node1&#45;&gt;Node3</title>
<g id="a_edge28_Node000001_Node000003"><a xlink:title=" ">
<path fill="none" stroke="#63b8ff" d="M1565.07,-159.72C1491.58,-192.29 1270.54,-277.81 1104,-212.09 1064.34,-196.44 1031.72,-154.73 1018.43,-135.74"/>
<polygon fill="#63b8ff" stroke="#63b8ff" points="1569.69,-157.65 1566.04,-161.75 1567.41,-158.67 1565.13,-159.69 1565.13,-159.69 1565.13,-159.69 1567.41,-158.67 1564.21,-157.64 1569.69,-157.65 1569.69,-157.65"/>
</a>
</g>
</g>
<!-- Node4 -->
<g id="Node000004" class="node">
<title>Node4</title>
<g id="a_Node000004"><a xlink:href="../../de/d08/classTabGame.html#a0198c02f04e49adcbc708d2a0abfb80b" target="_top" xlink:title=" ">
<polygon fill="white" stroke="#666666" points="1068,-98.59 954,-98.59 954,-79.59 1068,-79.59 1068,-98.59"/>
<text text-anchor="middle" x="1011" y="-86.59" font-family="Helvetica,sans-Serif" font-size="10.00">TabGame::TabGame</text>
</a>
</g>
</g>
<!-- Node1&#45;&gt;Node4 -->
<g id="edge29_Node000001_Node000004" class="edge">
<title>Node1&#45;&gt;Node4</title>
<g id="a_edge29_Node000001_Node000004"><a xlink:title=" ">
<path fill="none" stroke="#63b8ff" d="M1571.49,-135.8C1551.67,-122.99 1519.01,-102.91 1489,-89.09 1397.97,-47.17 1374.82,-31.76 1276,-15.09 1200.62,-2.37 1176.1,10.31 1104,-15.09 1067.27,-28.03 1034.38,-62.52 1019.87,-79.45"/>
<polygon fill="#63b8ff" stroke="#63b8ff" points="1575.76,-138.57 1570.34,-137.73 1573.66,-137.21 1571.57,-135.85 1571.57,-135.85 1571.57,-135.85 1573.66,-137.21 1572.79,-133.96 1575.76,-138.57 1575.76,-138.57"/>
</a>
</g>
</g>
<!-- Node15 -->
<g id="Node000015" class="node">
<title>Node15</title>
<g id="a_Node000015"><a xlink:href="../../de/d08/classTabGame.html#a535e2e3daea6c31eaf515c9103416e63" target="_top" xlink:title=" ">
<polygon fill="white" stroke="#666666" points="1489,-117.59 1312,-117.59 1312,-98.59 1489,-98.59 1489,-117.59"/>
<text text-anchor="middle" x="1400.5" y="-105.59" font-family="Helvetica,sans-Serif" font-size="10.00">TabGame::dockTopLevelChanged</text>
</a>
</g>
</g>
<!-- Node1&#45;&gt;Node15 -->
<g id="edge15_Node000001_Node000015" class="edge">
<title>Node1&#45;&gt;Node15</title>
<g id="a_edge15_Node000001_Node000015"><a xlink:title=" ">
<path fill="none" stroke="#63b8ff" d="M1539.87,-137.45C1510.77,-131.28 1474.42,-123.56 1446.28,-117.59"/>
<polygon fill="#63b8ff" stroke="#63b8ff" points="1544.85,-138.51 1539.49,-139.67 1542.4,-137.99 1539.96,-137.47 1539.96,-137.47 1539.96,-137.47 1542.4,-137.99 1540.43,-135.27 1544.85,-138.51 1544.85,-138.51"/>
</a>
</g>
</g>
<!-- Node2&#45;&gt;Node3 -->
<g id="edge2_Node000002_Node000003" class="edge">
<title>Node2&#45;&gt;Node3</title>
<g id="a_edge2_Node000002_Node000003"><a xlink:title=" ">
<path fill="none" stroke="#63b8ff" d="M1127.15,-171.54C1119.31,-169.17 1111.44,-166.66 1104,-164.09 1079.34,-155.55 1051.77,-143.86 1033.29,-135.71"/>
<polygon fill="#63b8ff" stroke="#63b8ff" points="1132.02,-172.99 1126.58,-173.72 1129.62,-172.27 1127.23,-171.56 1127.23,-171.56 1127.23,-171.56 1129.62,-172.27 1127.87,-169.4 1132.02,-172.99 1132.02,-172.99"/>
</a>
</g>
</g>
<!-- Node2&#45;&gt;Node4 -->
<g id="edge3_Node000002_Node000004" class="edge">
<title>Node2&#45;&gt;Node4</title>
<g id="a_edge3_Node000002_Node000004"><a xlink:title=" ">
<path fill="none" stroke="#63b8ff" d="M1113.96,-170.43C1110.47,-168.53 1107.13,-166.42 1104,-164.09 1079.99,-146.16 1091.68,-125.44 1068,-107.09 1063.56,-103.65 1058.44,-100.85 1053.15,-98.59"/>
<polygon fill="#63b8ff" stroke="#63b8ff" points="1118.79,-172.9 1113.32,-172.63 1116.57,-171.76 1114.34,-170.63 1114.34,-170.63 1114.34,-170.63 1116.57,-171.76 1115.36,-168.62 1118.79,-172.9 1118.79,-172.9"/>
</a>
</g>
</g>
<!-- Node5 -->
<g id="Node000005" class="node">
<title>Node5</title>
<g id="a_Node000005"><a xlink:href="../../de/d08/classTabGame.html#ad7e4437118782d8e2b678f5c3564b5ea" target="_top" xlink:title=" ">
<polygon fill="white" stroke="#666666" points="918,-98.59 786,-98.59 786,-79.59 918,-79.59 918,-98.59"/>
<text text-anchor="middle" x="852" y="-86.59" font-family="Helvetica,sans-Serif" font-size="10.00">TabGame::gameClosing</text>
</a>
</g>
</g>
<!-- Node4&#45;&gt;Node5 -->
<g id="edge4_Node000004_Node000005" class="edge">
<title>Node4&#45;&gt;Node5</title>
<g id="a_edge4_Node000004_Node000005"><a xlink:title=" ">
<path fill="none" stroke="#63b8ff" d="M948.59,-89.09C938.62,-89.09 928.26,-89.09 918.2,-89.09"/>
<polygon fill="#63b8ff" stroke="#63b8ff" points="953.76,-89.09 948.76,-91.34 951.26,-89.09 948.76,-89.09 948.76,-89.09 948.76,-89.09 951.26,-89.09 948.76,-86.84 953.76,-89.09 953.76,-89.09"/>
</a>
</g>
</g>
<!-- Node6 -->
<g id="Node000006" class="node">
<title>Node6</title>
<g id="a_Node000006"><a xlink:href="../../de/d08/classTabGame.html#a122426c1db587d20d7ace36e5c1c5997" target="_top" xlink:title=" ">
<polygon fill="white" stroke="#666666" points="736.5,-154.59 614.5,-154.59 614.5,-135.59 736.5,-135.59 736.5,-154.59"/>
<text text-anchor="middle" x="675.5" y="-142.59" font-family="Helvetica,sans-Serif" font-size="10.00">TabGame::closeEvent</text>
</a>
</g>
</g>
<!-- Node5&#45;&gt;Node6 -->
<g id="edge5_Node000005_Node000006" class="edge">
<title>Node5&#45;&gt;Node6</title>
<g id="a_edge5_Node000005_Node000006"><a xlink:title=" ">
<path fill="none" stroke="#63b8ff" d="M823.32,-100.52C803.2,-108.59 775.19,-119.3 750,-127.09 740.08,-130.15 729.29,-133.04 719.1,-135.57"/>
<polygon fill="#63b8ff" stroke="#63b8ff" points="828.01,-98.64 824.21,-102.59 825.69,-99.57 823.37,-100.51 823.37,-100.51 823.37,-100.51 825.69,-99.57 822.53,-98.42 828.01,-98.64 828.01,-98.64"/>
</a>
</g>
</g>
<!-- Node7 -->
<g id="Node000007" class="node">
<title>Node7</title>
<g id="a_Node000007"><a xlink:href="../../dd/d81/classTabSupervisor.html#a6396f49593a8033e85531a822d264622" target="_top" xlink:title=" ">
<polygon fill="white" stroke="#666666" points="554.5,-79.59 405.5,-79.59 405.5,-60.59 554.5,-60.59 554.5,-79.59"/>
<text text-anchor="middle" x="480" y="-67.59" font-family="Helvetica,sans-Serif" font-size="10.00">TabSupervisor::gameJoined</text>
</a>
</g>
</g>
<!-- Node5&#45;&gt;Node7 -->
<g id="edge6_Node000005_Node000007" class="edge">
<title>Node5&#45;&gt;Node7</title>
<g id="a_edge6_Node000005_Node000007"><a xlink:title=" ">
<path fill="none" stroke="#63b8ff" d="M780.71,-85.48C715.97,-82.15 620.27,-77.24 554.53,-73.86"/>
<polygon fill="#63b8ff" stroke="#63b8ff" points="785.7,-85.73 780.59,-87.72 783.21,-85.61 780.71,-85.48 780.71,-85.48 780.71,-85.48 783.21,-85.61 780.83,-83.23 785.7,-85.73 785.7,-85.73"/>
</a>
</g>
</g>
<!-- Node9 -->
<g id="Node000009" class="node">
<title>Node9</title>
<g id="a_Node000009"><a xlink:href="../../dd/d81/classTabSupervisor.html#ad7ae9e932602258473ab1afd8e4b88a6" target="_top" xlink:title=" ">
<polygon fill="white" stroke="#666666" points="747,-42.09 604,-42.09 604,-12.09 747,-12.09 747,-42.09"/>
<text text-anchor="start" x="612" y="-30.09" font-family="Helvetica,sans-Serif" font-size="10.00">TabSupervisor::localGame</text>
<text text-anchor="middle" x="675.5" y="-19.09" font-family="Helvetica,sans-Serif" font-size="10.00">Joined</text>
</a>
</g>
</g>
<!-- Node5&#45;&gt;Node9 -->
<g id="edge8_Node000005_Node000009" class="edge">
<title>Node5&#45;&gt;Node9</title>
<g id="a_edge8_Node000005_Node000009"><a xlink:title=" ">
<path fill="none" stroke="#63b8ff" d="M819.38,-77.85C791.29,-67.87 750.02,-53.21 719.04,-42.2"/>
<polygon fill="#63b8ff" stroke="#63b8ff" points="824.12,-79.54 818.65,-79.98 821.76,-78.7 819.41,-77.86 819.41,-77.86 819.41,-77.86 821.76,-78.7 820.16,-75.74 824.12,-79.54 824.12,-79.54"/>
</a>
</g>
</g>
<!-- Node11 -->
<g id="Node000011" class="node">
<title>Node11</title>
<g id="a_Node000011"><a xlink:href="../../dd/d81/classTabSupervisor.html#a94d81248b94e52661eb0f104a0366b8a" target="_top" xlink:title=" ">
<polygon fill="white" stroke="#666666" points="750,-117.59 601,-117.59 601,-98.59 750,-98.59 750,-117.59"/>
<text text-anchor="middle" x="675.5" y="-105.59" font-family="Helvetica,sans-Serif" font-size="10.00">TabSupervisor::openReplay</text>
</a>
</g>
</g>
<!-- Node5&#45;&gt;Node11 -->
<g id="edge10_Node000005_Node000011" class="edge">
<title>Node5&#45;&gt;Node11</title>
<g id="a_edge10_Node000005_Node000011"><a xlink:title=" ">
<path fill="none" stroke="#63b8ff" d="M780.37,-96.78C770.45,-97.86 760.23,-98.97 750.25,-100.06"/>
<polygon fill="#63b8ff" stroke="#63b8ff" points="785.53,-96.22 780.8,-98.99 783.04,-96.49 780.56,-96.76 780.56,-96.76 780.56,-96.76 783.04,-96.49 780.31,-94.52 785.53,-96.22 785.53,-96.22"/>
</a>
</g>
</g>
<!-- Node8 -->
<g id="Node000008" class="node">
<title>Node8</title>
<g id="a_Node000008"><a xlink:href="../../dd/d81/classTabSupervisor.html#a5e6baf23ec25ba9c7d95138c2b76b234" target="_top" xlink:title=" ">
<polygon fill="white" stroke="#666666" points="159,-116.59 0,-116.59 0,-97.59 159,-97.59 159,-116.59"/>
<text text-anchor="middle" x="79.5" y="-104.59" font-family="Helvetica,sans-Serif" font-size="10.00">TabSupervisor::TabSupervisor</text>
</a>
</g>
</g>
<!-- Node7&#45;&gt;Node8 -->
<g id="edge7_Node000007_Node000008" class="edge">
<title>Node7&#45;&gt;Node8</title>
<g id="a_edge7_Node000007_Node000008"><a xlink:title=" ">
<path fill="none" stroke="#63b8ff" d="M400.18,-73.47C343.09,-76.38 264.12,-81.36 195,-89.09 175.2,-91.3 153.59,-94.49 134.53,-97.58"/>
<polygon fill="#63b8ff" stroke="#63b8ff" points="405.29,-73.21 400.41,-75.71 402.79,-73.34 400.29,-73.47 400.29,-73.47 400.29,-73.47 402.79,-73.34 400.18,-71.22 405.29,-73.21 405.29,-73.21"/>
</a>
</g>
</g>
<!-- Node10 -->
<g id="Node000010" class="node">
<title>Node10</title>
<g id="a_Node000010"><a xlink:href="../../dd/d81/classTabSupervisor.html#a8074f0055d28b105a9cbebae8b1c7b25" target="_top" xlink:title=" ">
<polygon fill="white" stroke="#666666" points="549.5,-36.59 410.5,-36.59 410.5,-17.59 549.5,-17.59 549.5,-36.59"/>
<text text-anchor="middle" x="480" y="-24.59" font-family="Helvetica,sans-Serif" font-size="10.00">TabSupervisor::startLocal</text>
</a>
</g>
</g>
<!-- Node9&#45;&gt;Node10 -->
<g id="edge9_Node000009_Node000010" class="edge">
<title>Node9&#45;&gt;Node10</title>
<g id="a_edge9_Node000009_Node000010"><a xlink:title=" ">
<path fill="none" stroke="#63b8ff" d="M598.81,-27.09C582.57,-27.09 565.5,-27.09 549.55,-27.09"/>
<polygon fill="#63b8ff" stroke="#63b8ff" points="603.82,-27.09 598.82,-29.34 601.32,-27.09 598.82,-27.09 598.82,-27.09 598.82,-27.09 601.32,-27.09 598.82,-24.84 603.82,-27.09 603.82,-27.09"/>
</a>
</g>
</g>
<!-- Node12 -->
<g id="Node000012" class="node">
<title>Node12</title>
<g id="a_Node000012"><a xlink:href="../../dd/d81/classTabSupervisor.html#a61bbb0cc631dbf748b14d2a0f424e208" target="_top" xlink:title=" ">
<polygon fill="white" stroke="#666666" points="565,-117.59 395,-117.59 395,-98.59 565,-98.59 565,-117.59"/>
<text text-anchor="middle" x="480" y="-105.59" font-family="Helvetica,sans-Serif" font-size="10.00">TabSupervisor::openTabReplays</text>
</a>
</g>
</g>
<!-- Node11&#45;&gt;Node12 -->
<g id="edge11_Node000011_Node000012" class="edge">
<title>Node11&#45;&gt;Node12</title>
<g id="a_edge11_Node000011_Node000012"><a xlink:title=" ">
<path fill="none" stroke="#63b8ff" d="M595.58,-108.09C585.56,-108.09 575.28,-108.09 565.18,-108.09"/>
<polygon fill="#63b8ff" stroke="#63b8ff" points="600.79,-108.09 595.79,-110.34 598.29,-108.09 595.79,-108.09 595.79,-108.09 595.79,-108.09 598.29,-108.09 595.79,-105.84 600.79,-108.09 600.79,-108.09"/>
</a>
</g>
</g>
<!-- Node13 -->
<g id="Node000013" class="node">
<title>Node13</title>
<g id="a_Node000013"><a xlink:href="../../dd/d81/classTabSupervisor.html#a7f72ffb352830f222002f68faf8a7b23" target="_top" xlink:title=" ">
<polygon fill="white" stroke="#666666" points="357.5,-154.59 196.5,-154.59 196.5,-135.59 357.5,-135.59 357.5,-154.59"/>
<text text-anchor="middle" x="277" y="-142.59" font-family="Helvetica,sans-Serif" font-size="10.00">TabSupervisor::actTabReplays</text>
</a>
</g>
</g>
<!-- Node12&#45;&gt;Node13 -->
<g id="edge12_Node000012_Node000013" class="edge">
<title>Node12&#45;&gt;Node13</title>
<g id="a_edge12_Node000012_Node000013"><a xlink:title=" ">
<path fill="none" stroke="#63b8ff" d="M422.27,-118.53C393.27,-123.87 358.22,-130.32 329.94,-135.53"/>
<polygon fill="#63b8ff" stroke="#63b8ff" points="427.24,-117.62 422.73,-120.73 424.78,-118.07 422.32,-118.52 422.32,-118.52 422.32,-118.52 424.78,-118.07 421.91,-116.31 427.24,-117.62 427.24,-117.62"/>
</a>
</g>
</g>
<!-- Node14 -->
<g id="Node000014" class="node">
<title>Node14</title>
<g id="a_Node000014"><a xlink:href="../../dd/d81/classTabSupervisor.html#aee1c4492654fe6a12894135b5968b150" target="_top" xlink:title=" ">
<polygon fill="white" stroke="#666666" points="359,-117.59 195,-117.59 195,-98.59 359,-98.59 359,-117.59"/>
<text text-anchor="middle" x="277" y="-105.59" font-family="Helvetica,sans-Serif" font-size="10.00">TabSupervisor::initStartupTabs</text>
</a>
</g>
</g>
<!-- Node12&#45;&gt;Node14 -->
<g id="edge14_Node000012_Node000014" class="edge">
<title>Node12&#45;&gt;Node14</title>
<g id="a_edge14_Node000012_Node000014"><a xlink:title=" ">
<path fill="none" stroke="#63b8ff" d="M389.91,-108.09C379.68,-108.09 369.29,-108.09 359.17,-108.09"/>
<polygon fill="#63b8ff" stroke="#63b8ff" points="394.92,-108.09 389.92,-110.34 392.42,-108.09 389.92,-108.09 389.92,-108.09 389.92,-108.09 392.42,-108.09 389.92,-105.84 394.92,-108.09 394.92,-108.09"/>
</a>
</g>
</g>
<!-- Node13&#45;&gt;Node8 -->
<g id="edge13_Node000013_Node000008" class="edge">
<title>Node13&#45;&gt;Node8</title>
<g id="a_edge13_Node000013_Node000008"><a xlink:title=" ">
<path fill="none" stroke="#63b8ff" d="M221.97,-134.59C193.06,-128.97 157.72,-122.1 129.6,-116.63"/>
<polygon fill="#63b8ff" stroke="#63b8ff" points="226.92,-135.55 221.58,-136.8 224.47,-135.07 222.01,-134.59 222.01,-134.59 222.01,-134.59 224.47,-135.07 222.44,-132.38 226.92,-135.55 226.92,-135.55"/>
</a>
</g>
</g>
<!-- Node16 -->
<g id="Node000016" class="node">
<title>Node16</title>
<g id="a_Node000016"><a xlink:href="../../de/d08/classTabGame.html#a865b3026c7fb4b5945d6e443111551ed" target="_top" xlink:title=" ">
<polygon fill="white" stroke="#666666" points="1272.5,-117.59 1107.5,-117.59 1107.5,-98.59 1272.5,-98.59 1272.5,-117.59"/>
<text text-anchor="middle" x="1190" y="-105.59" font-family="Helvetica,sans-Serif" font-size="10.00">TabGame::createCardInfoDock</text>
</a>
</g>
</g>
<!-- Node15&#45;&gt;Node16 -->
<g id="edge16_Node000015_Node000016" class="edge">
<title>Node15&#45;&gt;Node16</title>
<g id="a_edge16_Node000015_Node000016"><a xlink:title=" ">
<path fill="none" stroke="#63b8ff" d="M1306.77,-108.09C1295.39,-108.09 1283.83,-108.09 1272.64,-108.09"/>
<polygon fill="#63b8ff" stroke="#63b8ff" points="1311.98,-108.09 1306.98,-110.34 1309.48,-108.09 1306.98,-108.09 1306.98,-108.09 1306.98,-108.09 1309.48,-108.09 1306.98,-105.84 1311.98,-108.09 1311.98,-108.09"/>
</a>
</g>
</g>
<!-- Node17 -->
<g id="Node000017" class="node">
<title>Node17</title>
<g id="a_Node000017"><a xlink:href="../../de/d08/classTabGame.html#ac76bfb14375c313bf24446d7d3d15670" target="_top" xlink:title=" ">
<polygon fill="white" stroke="#666666" points="1273.5,-80.59 1106.5,-80.59 1106.5,-61.59 1273.5,-61.59 1273.5,-80.59"/>
<text text-anchor="middle" x="1190" y="-68.59" font-family="Helvetica,sans-Serif" font-size="10.00">TabGame::createMessageDock</text>
</a>
</g>
</g>
<!-- Node15&#45;&gt;Node17 -->
<g id="edge19_Node000015_Node000017" class="edge">
<title>Node15&#45;&gt;Node17</title>
<g id="a_edge19_Node000015_Node000017"><a xlink:title=" ">
<path fill="none" stroke="#63b8ff" d="M1340.65,-97.64C1310.57,-92.31 1274.22,-85.85 1244.87,-80.65"/>
<polygon fill="#63b8ff" stroke="#63b8ff" points="1345.81,-98.56 1340.49,-99.9 1343.34,-98.12 1340.88,-97.69 1340.88,-97.69 1340.88,-97.69 1343.34,-98.12 1341.28,-95.47 1345.81,-98.56 1345.81,-98.56"/>
</a>
</g>
</g>
<!-- Node18 -->
<g id="Node000018" class="node">
<title>Node18</title>
<g id="a_Node000018"><a xlink:href="../../de/d08/classTabGame.html#ac36c67bd4d548537f189c9ee424c51c5" target="_top" xlink:title=" ">
<polygon fill="white" stroke="#666666" points="1276,-43.59 1104,-43.59 1104,-24.59 1276,-24.59 1276,-43.59"/>
<text text-anchor="middle" x="1190" y="-31.59" font-family="Helvetica,sans-Serif" font-size="10.00">TabGame::createPlayerListDock</text>
</a>
</g>
</g>
<!-- Node15&#45;&gt;Node18 -->
<g id="edge22_Node000015_Node000018" class="edge">
<title>Node15&#45;&gt;Node18</title>
<g id="a_edge22_Node000015_Node000018"><a xlink:title=" ">
<path fill="none" stroke="#63b8ff" d="M1376.94,-96.05C1352.62,-83.52 1312.49,-64.07 1276,-52.09 1266.11,-48.84 1255.38,-46.04 1244.97,-43.67"/>
<polygon fill="#63b8ff" stroke="#63b8ff" points="1381.58,-98.46 1376.11,-98.16 1379.36,-97.31 1377.15,-96.16 1377.15,-96.16 1377.15,-96.16 1379.36,-97.31 1378.18,-94.16 1381.58,-98.46 1381.58,-98.46"/>
</a>
</g>
</g>
<!-- Node19 -->
<g id="Node000019" class="node">
<title>Node19</title>
<g id="a_Node000019"><a xlink:href="../../de/d08/classTabGame.html#acb6851a338be85c0d5e65d628a47df7d" target="_top" xlink:title=" ">
<polygon fill="white" stroke="#666666" points="1269,-154.59 1111,-154.59 1111,-135.59 1269,-135.59 1269,-154.59"/>
<text text-anchor="middle" x="1190" y="-142.59" font-family="Helvetica,sans-Serif" font-size="10.00">TabGame::createReplayDock</text>
</a>
</g>
</g>
<!-- Node15&#45;&gt;Node19 -->
<g id="edge25_Node000015_Node000019" class="edge">
<title>Node15&#45;&gt;Node19</title>
<g id="a_edge25_Node000015_Node000019"><a xlink:title=" ">
<path fill="none" stroke="#63b8ff" d="M1340.65,-118.53C1310.57,-123.87 1274.22,-130.32 1244.87,-135.53"/>
<polygon fill="#63b8ff" stroke="#63b8ff" points="1345.81,-117.62 1341.28,-120.7 1343.34,-118.05 1340.88,-118.49 1340.88,-118.49 1340.88,-118.49 1343.34,-118.05 1340.49,-116.27 1345.81,-117.62 1345.81,-117.62"/>
</a>
</g>
</g>
<!-- Node16&#45;&gt;Node3 -->
<g id="edge17_Node000016_Node000003" class="edge">
<title>Node16&#45;&gt;Node3</title>
<g id="a_edge17_Node000016_Node000003"><a xlink:title=" ">
<path fill="none" stroke="#63b8ff" d="M1102.48,-116.89C1090.78,-118.08 1079.04,-119.27 1068.06,-120.39"/>
<polygon fill="#63b8ff" stroke="#63b8ff" points="1107.49,-116.38 1102.75,-119.12 1105.01,-116.63 1102.52,-116.88 1102.52,-116.88 1102.52,-116.88 1105.01,-116.63 1102.29,-114.64 1107.49,-116.38 1107.49,-116.38"/>
</a>
</g>
</g>
<!-- Node16&#45;&gt;Node4 -->
<g id="edge18_Node000016_Node000004" class="edge">
<title>Node16&#45;&gt;Node4</title>
<g id="a_edge18_Node000016_Node000004"><a xlink:title=" ">
<path fill="none" stroke="#63b8ff" d="M1102.48,-98.8C1090.78,-97.54 1079.04,-96.28 1068.06,-95.11"/>
<polygon fill="#63b8ff" stroke="#63b8ff" points="1107.49,-99.34 1102.28,-101.04 1105.01,-99.07 1102.52,-98.8 1102.52,-98.8 1102.52,-98.8 1105.01,-99.07 1102.76,-96.57 1107.49,-99.34 1107.49,-99.34"/>
</a>
</g>
</g>
<!-- Node17&#45;&gt;Node3 -->
<g id="edge20_Node000017_Node000003" class="edge">
<title>Node17&#45;&gt;Node3</title>
<g id="a_edge20_Node000017_Node000003"><a xlink:title=" ">
<path fill="none" stroke="#63b8ff" d="M1128.41,-81.93C1120.12,-83.99 1111.78,-86.37 1104,-89.09 1087.11,-94.99 1084.51,-100.2 1068,-107.09 1059.85,-110.49 1050.86,-113.75 1042.51,-116.58"/>
<polygon fill="#63b8ff" stroke="#63b8ff" points="1133.57,-80.69 1129.23,-84.05 1131.14,-81.27 1128.71,-81.86 1128.71,-81.86 1128.71,-81.86 1131.14,-81.27 1128.18,-79.67 1133.57,-80.69 1133.57,-80.69"/>
</a>
</g>
</g>
<!-- Node17&#45;&gt;Node4 -->
<g id="edge21_Node000017_Node000004" class="edge">
<title>Node17&#45;&gt;Node4</title>
<g id="a_edge21_Node000017_Node000004"><a xlink:title=" ">
<path fill="none" stroke="#63b8ff" d="M1101.28,-80.01C1090.01,-81.15 1078.71,-82.3 1068.13,-83.38"/>
<polygon fill="#63b8ff" stroke="#63b8ff" points="1106.46,-79.48 1101.71,-82.23 1103.97,-79.73 1101.49,-79.99 1101.49,-79.99 1101.49,-79.99 1103.97,-79.73 1101.26,-77.75 1106.46,-79.48 1106.46,-79.48"/>
</a>
</g>
</g>
<!-- Node18&#45;&gt;Node3 -->
<g id="edge23_Node000018_Node000003" class="edge">
<title>Node18&#45;&gt;Node3</title>
<g id="a_edge23_Node000018_Node000003"><a xlink:title=" ">
<path fill="none" stroke="#63b8ff" d="M1115.44,-45.67C1111.43,-47.51 1107.58,-49.64 1104,-52.09 1079.89,-68.58 1091.09,-89.19 1068,-107.09 1063.05,-110.92 1057.28,-114.01 1051.36,-116.49"/>
<polygon fill="#63b8ff" stroke="#63b8ff" points="1120.21,-43.63 1116.5,-47.66 1117.91,-44.61 1115.61,-45.59 1115.61,-45.59 1115.61,-45.59 1117.91,-44.61 1114.73,-43.52 1120.21,-43.63 1120.21,-43.63"/>
</a>
</g>
</g>
<!-- Node18&#45;&gt;Node4 -->
<g id="edge24_Node000018_Node000004" class="edge">
<title>Node18&#45;&gt;Node4</title>
<g id="a_edge24_Node000018_Node000004"><a xlink:title=" ">
<path fill="none" stroke="#63b8ff" d="M1132.03,-44.72C1122.6,-46.89 1112.97,-49.36 1104,-52.09 1078.97,-59.71 1051.23,-71.32 1032.82,-79.5"/>
<polygon fill="#63b8ff" stroke="#63b8ff" points="1136.94,-43.61 1132.56,-46.91 1134.5,-44.16 1132.06,-44.71 1132.06,-44.71 1132.06,-44.71 1134.5,-44.16 1131.57,-42.52 1136.94,-43.61 1136.94,-43.61"/>
</a>
</g>
</g>
<!-- Node19&#45;&gt;Node3 -->
<g id="edge26_Node000019_Node000003" class="edge">
<title>Node19&#45;&gt;Node3</title>
<g id="a_edge26_Node000019_Node000003"><a xlink:title=" ">
<path fill="none" stroke="#63b8ff" d="M1105.79,-136.16C1093.06,-134.79 1080.18,-133.41 1068.22,-132.12"/>
<polygon fill="#63b8ff" stroke="#63b8ff" points="1110.85,-136.7 1105.64,-138.4 1108.36,-136.43 1105.88,-136.16 1105.88,-136.16 1105.88,-136.16 1108.36,-136.43 1106.12,-133.93 1110.85,-136.7 1110.85,-136.7"/>
</a>
</g>
</g>
<!-- Node19&#45;&gt;Node4 -->
<g id="edge27_Node000019_Node000004" class="edge">
<title>Node19&#45;&gt;Node4</title>
<g id="a_edge27_Node000019_Node000004"><a xlink:title=" ">
<path fill="none" stroke="#63b8ff" d="M1127.17,-134.27C1119.27,-132.22 1111.37,-129.84 1104,-127.09 1086.86,-120.68 1084.79,-114.37 1068,-107.09 1060.79,-103.96 1052.84,-101.09 1045.27,-98.59"/>
<polygon fill="#63b8ff" stroke="#63b8ff" points="1132.09,-135.5 1126.69,-136.47 1129.66,-134.89 1127.24,-134.28 1127.24,-134.28 1127.24,-134.28 1129.66,-134.89 1127.78,-132.1 1132.09,-135.5 1132.09,-135.5"/>
</a>
</g>
</g>
</g>
</svg>

<g id="navigator" transform="translate(0 0)" fill="#404254">
  <rect fill="#f2f5e9" fill-opacity="0.5" stroke="#606060" stroke-width=".5" x="0" y="0" width="60" height="60"/>
  <use id="zoomplus" xlink:href="#zoomPlus" x="17" y="9" onmousedown="handleZoom(evt,'in')"/>
  <use id="zoomminus" xlink:href="#zoomMin" x="42" y="9" onmousedown="handleZoom(evt,'out')"/>
  <use id="reset" xlink:href="#resetDef" x="30" y="36" onmousedown="handleReset()"/>
   <use id="arrowup" xlink:href="#arrowUp" x="0" y="0" onmousedown="handlePan(0,-1)"/>
  <use id="arrowright" xlink:href="#arrowRight" x="0" y="0" onmousedown="handlePan(1,0)"/>
  <use id="arrowdown" xlink:href="#arrowDown" x="0" y="0" onmousedown="handlePan(0,1)"/>
  <use id="arrowleft" xlink:href="#arrowLeft" x="0" y="0" onmousedown="handlePan(-1,0)"/>
</g>
<svg viewBox="0 0 15 15" width="100%" height="30px" preserveAspectRatio="xMaxYMin meet">
 <g id="arrow_out" transform="scale(0.3 0.3)">
  <a xlink:href="classTabGame_a5be706a6530029b3666d537567045f34_icgraph_org.svg" target="_base">
   <rect id="button" ry="5" rx="5" y="6" x="6" height="38" width="38"
        fill="#f2f5e9" fill-opacity="0.5" stroke="#606060" stroke-width="1.0"/>
   <path id="arrow"
     d="M 11.500037,31.436501 C 11.940474,20.09759 22.043105,11.32322 32.158766,21.979434 L 37.068811,17.246167 C 37.068811,17.246167 37.088388,32 37.088388,32 L 22.160133,31.978069 C 22.160133,31.978069 26.997745,27.140456 26.997745,27.140456 C 18.528582,18.264221 13.291696,25.230495 11.500037,31.436501 z"
     style="fill:#404040;"/>
  </a>
 </g>
</svg>

<style type='text/css'>
<![CDATA[
[data-mouse-over-selected='false'] { opacity: 0.7; }
[data-mouse-over-selected='true']  { opacity: 1.0; }
]]>
</style>
<script type="application/ecmascript"><![CDATA[
document.addEventListener('DOMContentLoaded', (event) => {
  highlightEdges();
  highlightAdjacentNodes();
});
]]></script>
</svg>
