<?xml version="1.0" encoding="UTF-8" standalone="no"?>
<!DOCTYPE svg PUBLIC "-//W3C//DTD SVG 1.1//EN"
 "http://www.w3.org/Graphics/SVG/1.1/DTD/svg11.dtd">
<!-- Generated by graphviz version 2.43.0 (0)
 -->
<!-- Title: TabGame::actCompleterChanged Pages: 1 -->
<!--zoomable 1041 -->

<svg id="main" version="1.1" xmlns="http://www.w3.org/2000/svg" xmlns:xlink="http://www.w3.org/1999/xlink" xml:space="preserve" onload="init(evt)">

<style type="text/css"><![CDATA[
.node, .edge {opacity: 0.7;}
.node.selected, .edge.selected {opacity: 1;}
.edge:hover path { stroke: red; }
.edge:hover polygon { stroke: red; fill: red; }
]]></style>

<defs>
  <circle id="rim" cx="0" cy="0" r="7"/>
  <circle id="rim2" cx="0" cy="0" r="3.5"/>
  <g id="zoomPlus">
    <use xlink:href="#rim" fill="#404040"><set attributeName="fill" to="#808080" begin="zoomplus.mouseover" end="zoomplus.mouseout"/></use>
    <path d="M-4,0h8M0,-4v8" fill="none" stroke="white" stroke-width="1.5" pointer-events="none"/>
  </g>
  <g id="zoomMin">
    <use xlink:href="#rim" fill="#404040"><set attributeName="fill" to="#808080" begin="zoomminus.mouseover" end="zoomminus.mouseout"/></use>
    <path d="M-4,0h8" fill="none" stroke="white" stroke-width="1.5" pointer-events="none"/>
  </g>
  <g id="arrowUp" transform="translate(30 24)">
    <use xlink:href="#rim"/>
    <path pointer-events="none" fill="none" stroke="white" stroke-width="1.5" d="M0,-3.0v7 M-2.5,-0.5L0,-3.0L2.5,-0.5"/>
  </g>
  <g id="arrowRight" transform="rotate(90) translate(36 -43)">
    <use xlink:href="#rim"/>
    <path pointer-events="none" fill="none" stroke="white" stroke-width="1.5" d="M0,-3.0v7 M-2.5,-0.5L0,-3.0L2.5,-0.5"/>
  </g>
  <g id="arrowDown" transform="rotate(180) translate(-30 -48)">
    <use xlink:href="#rim"/>
    <path pointer-events="none" fill="none" stroke="white" stroke-width="1.5" d="M0,-3.0v7 M-2.5,-0.5L0,-3.0L2.5,-0.5"/>
  </g>
  <g id="arrowLeft" transform="rotate(270) translate(-36 17)">
    <use xlink:href="#rim"/>
    <path pointer-events="none" fill="none" stroke="white" stroke-width="1.5" d="M0,-3.0v7 M-2.5,-0.5L0,-3.0L2.5,-0.5"/>
  </g>
  <g id="resetDef">
    <use xlink:href="#rim2" fill="#404040"><set attributeName="fill" to="#808080" begin="reset.mouseover" end="reset.mouseout"/></use>
  </g>
</defs>
<script type="application/ecmascript">
var viewWidth = 1175;
var viewHeight = 1041;
var sectionId = 'dynsection-5';
</script>
<script type="application/ecmascript" xlink:href="../../svg.min.js"/>
<svg id="graph" class="graph">
<g id="viewport">
<title>TabGame::actCompleterChanged</title>
<!-- Node1 -->
<g id="Node000001" class="node">
<title>Node1</title>
<g id="a_Node000001"><a xlink:title=" ">
<polygon fill="#999999" stroke="#666666" points="177,-914 0,-914 0,-895 177,-895 177,-914"/>
<text text-anchor="middle" x="88.5" y="-902" font-family="Helvetica,sans-Serif" font-size="10.00">TabGame::actCompleterChanged</text>
</a>
</g>
</g>
<!-- Node2 -->
<g id="Node000002" class="node">
<title>Node2</title>
<g id="a_Node000002"><a xlink:href="../../d5/d88/classSettingsCache.html#a4613a20b17d77921ae78a65ae7a473a7" target="_top" xlink:title=" ">
<polygon fill="white" stroke="#666666" points="383,-950.5 213,-950.5 213,-920.5 383,-920.5 383,-950.5"/>
<text text-anchor="start" x="221" y="-938.5" font-family="Helvetica,sans-Serif" font-size="10.00">SettingsCache::getChatMention</text>
<text text-anchor="middle" x="298" y="-927.5" font-family="Helvetica,sans-Serif" font-size="10.00">Completer</text>
</a>
</g>
</g>
<!-- Node1&#45;&gt;Node2 -->
<g id="edge1_Node000001_Node000002" class="edge">
<title>Node1&#45;&gt;Node2</title>
<g id="a_edge1_Node000001_Node000002"><a xlink:title=" ">
<path fill="none" stroke="#63b8ff" d="M153.17,-914.01C170.37,-916.58 189.32,-919.41 207.65,-922.15"/>
<polygon fill="#63b8ff" stroke="#63b8ff" points="212.8,-922.92 207.52,-924.41 210.33,-922.55 207.85,-922.18 207.85,-922.18 207.85,-922.18 210.33,-922.55 208.19,-919.96 212.8,-922.92 212.8,-922.92"/>
</a>
</g>
</g>
<!-- Node3 -->
<g id="Node000003" class="node">
<title>Node3</title>
<g id="a_Node000003"><a xlink:href="../../d5/d88/classSettingsCache.html#adfa7f9f975919981b992db1fca9e4957" target="_top" xlink:title=" ">
<polygon fill="white" stroke="#666666" points="365,-884 231,-884 231,-865 365,-865 365,-884"/>
<text text-anchor="middle" x="298" y="-872" font-family="Helvetica,sans-Serif" font-size="10.00">SettingsCache::instance</text>
</a>
</g>
</g>
<!-- Node1&#45;&gt;Node3 -->
<g id="edge2_Node000001_Node000003" class="edge">
<title>Node1&#45;&gt;Node3</title>
<g id="a_edge2_Node000001_Node000003"><a xlink:title=" ">
<path fill="none" stroke="#63b8ff" d="M155.44,-894.97C177.95,-891.71 203.2,-888.06 226.08,-884.75"/>
<polygon fill="#63b8ff" stroke="#63b8ff" points="231.23,-884.01 226.61,-886.95 228.76,-884.37 226.28,-884.72 226.28,-884.72 226.28,-884.72 228.76,-884.37 225.96,-882.5 231.23,-884.01 231.23,-884.01"/>
</a>
</g>
</g>
<!-- Node3&#45;&gt;Node3 -->
<g id="edge3_Node000003_Node000003" class="edge">
<title>Node3&#45;&gt;Node3</title>
<g id="a_edge3_Node000003_Node000003"><a xlink:title=" ">
<path fill="none" stroke="#63b8ff" d="M266.87,-884.08C251.72,-892.73 262.1,-902 298,-902 329.41,-902 341.29,-894.91 333.62,-887.34"/>
<polygon fill="#63b8ff" stroke="#63b8ff" points="329.13,-884.08 334.5,-885.2 331.16,-885.55 333.18,-887.02 333.18,-887.02 333.18,-887.02 331.16,-885.55 331.86,-888.84 329.13,-884.08 329.13,-884.08"/>
</a>
</g>
</g>
<!-- Node4 -->
<g id="Node000004" class="node">
<title>Node4</title>
<g id="a_Node000004"><a xlink:href="../../d5/d88/classSettingsCache.html#a123df429cbb9f9aebff30f35e1d80685" target="_top" xlink:title=" ">
<polygon fill="white" stroke="#666666" points="581,-884 419,-884 419,-865 581,-865 581,-884"/>
<text text-anchor="middle" x="500" y="-872" font-family="Helvetica,sans-Serif" font-size="10.00">SettingsCache::SettingsCache</text>
</a>
</g>
</g>
<!-- Node3&#45;&gt;Node4 -->
<g id="edge4_Node000003_Node000004" class="edge">
<title>Node3&#45;&gt;Node4</title>
<g id="a_edge4_Node000003_Node000004"><a xlink:title=" ">
<path fill="none" stroke="#63b8ff" d="M365.04,-874.5C380.61,-874.5 397.43,-874.5 413.71,-874.5"/>
<polygon fill="#63b8ff" stroke="#63b8ff" points="418.75,-874.5 413.75,-876.75 416.25,-874.5 413.75,-874.5 413.75,-874.5 413.75,-874.5 416.25,-874.5 413.75,-872.25 418.75,-874.5 418.75,-874.5"/>
</a>
</g>
</g>
<!-- Node5 -->
<g id="Node000005" class="node">
<title>Node5</title>
<g id="a_Node000005"><a xlink:href="../../d5/d88/classSettingsCache.html#a4df0cf9669274d37491074c277c987d1" target="_top" xlink:title=" ">
<polygon fill="white" stroke="#666666" points="970.5,-884 801.5,-884 801.5,-865 970.5,-865 970.5,-884"/>
<text text-anchor="middle" x="886" y="-872" font-family="Helvetica,sans-Serif" font-size="10.00">SettingsCache::getSettingsPath</text>
</a>
</g>
</g>
<!-- Node4&#45;&gt;Node5 -->
<g id="edge5_Node000004_Node000005" class="edge">
<title>Node4&#45;&gt;Node5</title>
<g id="a_edge5_Node000004_Node000005"><a xlink:title=" ">
<path fill="none" stroke="#63b8ff" d="M581.03,-874.5C643.91,-874.5 731.4,-874.5 796.39,-874.5"/>
<polygon fill="#63b8ff" stroke="#63b8ff" points="801.42,-874.5 796.42,-876.75 798.92,-874.5 796.42,-874.5 796.42,-874.5 796.42,-874.5 798.92,-874.5 796.42,-872.25 801.42,-874.5 801.42,-874.5"/>
</a>
</g>
</g>
<!-- Node7 -->
<g id="Node000007" class="node">
<title>Node7</title>
<g id="a_Node000007"><a xlink:href="../../d5/d88/classSettingsCache.html#ad2f1a79bfdd2ed465b60aa089f7c2596" target="_top" xlink:title=" ">
<polygon fill="white" stroke="#666666" points="757,-964 617,-964 617,-945 757,-945 757,-964"/>
<text text-anchor="middle" x="687" y="-952" font-family="Helvetica,sans-Serif" font-size="10.00">SettingsCache::loadPaths</text>
</a>
</g>
</g>
<!-- Node4&#45;&gt;Node7 -->
<g id="edge7_Node000004_Node000007" class="edge">
<title>Node4&#45;&gt;Node7</title>
<g id="a_edge7_Node000004_Node000007"><a xlink:title=" ">
<path fill="none" stroke="#63b8ff" d="M523.32,-884.15C557.44,-898.91 622.47,-927.03 659.13,-942.88"/>
<polygon fill="#63b8ff" stroke="#63b8ff" points="663.89,-944.94 658.41,-945.02 661.6,-943.95 659.3,-942.96 659.3,-942.96 659.3,-942.96 661.6,-943.95 660.2,-940.89 663.89,-944.94 663.89,-944.94"/>
</a>
</g>
</g>
<!-- Node11 -->
<g id="Node000011" class="node">
<title>Node11</title>
<g id="a_Node000011"><a xlink:href="../../d5/d88/classSettingsCache.html#a551fa1f2049b53d0d40bc64f0793db0e" target="_top" xlink:title=" ">
<polygon fill="white" stroke="#666666" points="755,-511.5 619,-511.5 619,-481.5 755,-481.5 755,-511.5"/>
<text text-anchor="start" x="627" y="-499.5" font-family="Helvetica,sans-Serif" font-size="10.00">SettingsCache::translate</text>
<text text-anchor="middle" x="687" y="-488.5" font-family="Helvetica,sans-Serif" font-size="10.00">LegacySettings</text>
</a>
</g>
</g>
<!-- Node4&#45;&gt;Node11 -->
<g id="edge12_Node000004_Node000011" class="edge">
<title>Node4&#45;&gt;Node11</title>
<g id="a_edge12_Node000004_Node000011"><a xlink:title=" ">
<path fill="none" stroke="#63b8ff" d="M505.76,-864.78C530.28,-814.67 642.53,-585.31 676.34,-516.24"/>
<polygon fill="#63b8ff" stroke="#63b8ff" points="678.64,-511.55 678.46,-517.03 677.54,-513.79 676.44,-516.04 676.44,-516.04 676.44,-516.04 677.54,-513.79 674.42,-515.05 678.64,-511.55 678.64,-511.55"/>
</a>
</g>
</g>
<!-- Node6 -->
<g id="Node000006" class="node">
<title>Node6</title>
<g id="a_Node000006"><a xlink:href="../../d5/d88/classSettingsCache.html#a5b9f6307bce45f0c84ed722a64f9ba07" target="_top" xlink:title=" ">
<polygon fill="white" stroke="#666666" points="1167,-964 1015,-964 1015,-945 1167,-945 1167,-964"/>
<text text-anchor="middle" x="1091" y="-952" font-family="Helvetica,sans-Serif" font-size="10.00">SettingsCache::getDataPath</text>
</a>
</g>
</g>
<!-- Node5&#45;&gt;Node6 -->
<g id="edge6_Node000005_Node000006" class="edge">
<title>Node5&#45;&gt;Node6</title>
<g id="a_edge6_Node000005_Node000006"><a xlink:title=" ">
<path fill="none" stroke="#63b8ff" d="M946.63,-884.1C957.56,-886.62 968.75,-889.72 979,-893.5 1013.48,-906.21 1050.24,-928.32 1071.62,-942.14"/>
<polygon fill="#63b8ff" stroke="#63b8ff" points="1075.94,-944.96 1070.52,-944.11 1073.84,-943.59 1071.75,-942.23 1071.75,-942.23 1071.75,-942.23 1073.84,-943.59 1072.98,-940.34 1075.94,-944.96 1075.94,-944.96"/>
</a>
</g>
</g>
<!-- Node7&#45;&gt;Node6 -->
<g id="edge9_Node000007_Node000006" class="edge">
<title>Node7&#45;&gt;Node6</title>
<g id="a_edge9_Node000007_Node000006"><a xlink:title=" ">
<path fill="none" stroke="#63b8ff" d="M699.33,-964.02C717.62,-978.7 755.42,-1006.23 793,-1016.5 872.74,-1038.29 899,-1037.33 979,-1016.5 1015.69,-1006.95 1053.12,-982.3 1073.78,-967.11"/>
<polygon fill="#63b8ff" stroke="#63b8ff" points="1077.93,-964.03 1075.26,-968.82 1075.92,-965.52 1073.91,-967.01 1073.91,-967.01 1073.91,-967.01 1075.92,-965.52 1072.57,-965.21 1077.93,-964.03 1077.93,-964.03"/>
</a>
</g>
</g>
<!-- Node8 -->
<g id="Node000008" class="node">
<title>Node8</title>
<g id="a_Node000008"><a xlink:href="../../d5/d88/classSettingsCache.html#a77ffc38b601d1128c21f348ed425426b" target="_top" xlink:title=" ">
<polygon fill="white" stroke="#666666" points="965.5,-1007 806.5,-1007 806.5,-988 965.5,-988 965.5,-1007"/>
<text text-anchor="middle" x="886" y="-995" font-family="Helvetica,sans-Serif" font-size="10.00">SettingsCache::getCachePath</text>
</a>
</g>
</g>
<!-- Node7&#45;&gt;Node8 -->
<g id="edge8_Node000007_Node000008" class="edge">
<title>Node7&#45;&gt;Node8</title>
<g id="a_edge8_Node000007_Node000008"><a xlink:title=" ">
<path fill="none" stroke="#63b8ff" d="M728.84,-964.05C748.26,-968.53 771.8,-973.89 793,-978.5 805.8,-981.28 819.63,-984.19 832.58,-986.87"/>
<polygon fill="#63b8ff" stroke="#63b8ff" points="837.68,-987.93 832.33,-989.12 835.24,-987.42 832.79,-986.92 832.79,-986.92 832.79,-986.92 835.24,-987.42 833.24,-984.71 837.68,-987.93 837.68,-987.93"/>
</a>
</g>
</g>
<!-- Node9 -->
<g id="Node000009" class="node">
<title>Node9</title>
<g id="a_Node000009"><a xlink:href="../../d5/d88/classSettingsCache.html#a3778996fd17a75e0b4860dfcc3a2ce6d" target="_top" xlink:title=" ">
<polygon fill="white" stroke="#666666" points="966.5,-969.5 805.5,-969.5 805.5,-939.5 966.5,-939.5 966.5,-969.5"/>
<text text-anchor="start" x="813.5" y="-957.5" font-family="Helvetica,sans-Serif" font-size="10.00">SettingsCache::getSafeConfig</text>
<text text-anchor="middle" x="886" y="-946.5" font-family="Helvetica,sans-Serif" font-size="10.00">FilePath</text>
</a>
</g>
</g>
<!-- Node7&#45;&gt;Node9 -->
<g id="edge10_Node000007_Node000009" class="edge">
<title>Node7&#45;&gt;Node9</title>
<g id="a_edge10_Node000007_Node000009"><a xlink:title=" ">
<path fill="none" stroke="#63b8ff" d="M757.18,-954.5C771,-954.5 785.67,-954.5 799.96,-954.5"/>
<polygon fill="#63b8ff" stroke="#63b8ff" points="805.2,-954.5 800.2,-956.75 802.7,-954.5 800.2,-954.5 800.2,-954.5 800.2,-954.5 802.7,-954.5 800.2,-952.25 805.2,-954.5 805.2,-954.5"/>
</a>
</g>
</g>
<!-- Node10 -->
<g id="Node000010" class="node">
<title>Node10</title>
<g id="a_Node000010"><a xlink:href="../../d5/d88/classSettingsCache.html#a958f00fd81be250f52efd0331e3c2b1e" target="_top" xlink:title=" ">
<polygon fill="white" stroke="#666666" points="977,-921 795,-921 795,-902 977,-902 977,-921"/>
<text text-anchor="middle" x="886" y="-909" font-family="Helvetica,sans-Serif" font-size="10.00">SettingsCache::getSafeConfigPath</text>
</a>
</g>
</g>
<!-- Node7&#45;&gt;Node10 -->
<g id="edge11_Node000007_Node000010" class="edge">
<title>Node7&#45;&gt;Node10</title>
<g id="a_edge11_Node000007_Node000010"><a xlink:title=" ">
<path fill="none" stroke="#63b8ff" d="M728.84,-944.95C748.26,-940.47 771.8,-935.11 793,-930.5 805.8,-927.72 819.63,-924.81 832.58,-922.13"/>
<polygon fill="#63b8ff" stroke="#63b8ff" points="837.68,-921.07 833.24,-924.29 835.24,-921.58 832.79,-922.08 832.79,-922.08 832.79,-922.08 835.24,-921.58 832.33,-919.88 837.68,-921.07 837.68,-921.07"/>
</a>
</g>
</g>
<!-- Node11&#45;&gt;Node5 -->
<g id="edge15_Node000011_Node000005" class="edge">
<title>Node11&#45;&gt;Node5</title>
<g id="a_edge15_Node000011_Node000005"><a xlink:title=" ">
<path fill="none" stroke="#63b8ff" d="M687.37,-511.54C685.96,-566.68 688.93,-759.53 793,-855.5 795.8,-858.08 798.86,-860.36 802.1,-862.35"/>
<polygon fill="#63b8ff" stroke="#63b8ff" points="806.63,-864.9 801.17,-864.41 804.45,-863.67 802.28,-862.45 802.28,-862.45 802.28,-862.45 804.45,-863.67 803.38,-860.48 806.63,-864.9 806.63,-864.9"/>
</a>
</g>
</g>
<!-- Node12 -->
<g id="Node000012" class="node">
<title>Node12</title>
<g id="a_Node000012"><a xlink:href="../../d5/d88/classSettingsCache.html#a6142af053f52838bf022a7c5d0e0ce4c" target="_top" xlink:title=" ">
<polygon fill="white" stroke="#666666" points="966,-638 806,-638 806,-619 966,-619 966,-638"/>
<text text-anchor="middle" x="886" y="-626" font-family="Helvetica,sans-Serif" font-size="10.00">SettingsCache::cardDatabase</text>
</a>
</g>
</g>
<!-- Node11&#45;&gt;Node12 -->
<g id="edge13_Node000011_Node000012" class="edge">
<title>Node11&#45;&gt;Node12</title>
<g id="a_edge13_Node000011_Node000012"><a xlink:title=" ">
<path fill="none" stroke="#63b8ff" d="M697.2,-511.53C713.3,-536.43 749.08,-585.94 793,-610.5 797.68,-613.11 802.67,-615.35 807.83,-617.27"/>
<polygon fill="#63b8ff" stroke="#63b8ff" points="812.6,-618.95 807.14,-619.42 810.24,-618.12 807.88,-617.29 807.88,-617.29 807.88,-617.29 810.24,-618.12 808.63,-615.17 812.6,-618.95 812.6,-618.95"/>
</a>
</g>
</g>
<!-- Node13 -->
<g id="Node000013" class="node">
<title>Node13</title>
<g id="a_Node000013"><a xlink:href="../../d5/d88/classSettingsCache.html#a9203086f195726592cc2f1ebabb97a1f" target="_top" xlink:title=" ">
<polygon fill="white" stroke="#666666" points="961,-601 811,-601 811,-582 961,-582 961,-601"/>
<text text-anchor="middle" x="886" y="-589" font-family="Helvetica,sans-Serif" font-size="10.00">SettingsCache::gameFilters</text>
</a>
</g>
</g>
<!-- Node11&#45;&gt;Node13 -->
<g id="edge14_Node000011_Node000013" class="edge">
<title>Node11&#45;&gt;Node13</title>
<g id="a_edge14_Node000011_Node000013"><a xlink:title=" ">
<path fill="none" stroke="#63b8ff" d="M703.67,-511.51C723.05,-529.18 757.8,-558.08 793,-573.5 799.18,-576.21 805.76,-578.51 812.47,-580.47"/>
<polygon fill="#63b8ff" stroke="#63b8ff" points="817.61,-581.9 812.19,-582.72 815.2,-581.23 812.8,-580.56 812.8,-580.56 812.8,-580.56 815.2,-581.23 813.4,-578.39 817.61,-581.9 817.61,-581.9"/>
</a>
</g>
</g>
<!-- Node14 -->
<g id="Node000014" class="node">
<title>Node14</title>
<g id="a_Node000014"><a xlink:href="../../d5/d88/classSettingsCache.html#afaf64ee1ba054d076e47e35577edfdbe" target="_top" xlink:title=" ">
<polygon fill="white" stroke="#666666" points="957,-564 815,-564 815,-545 957,-545 957,-564"/>
<text text-anchor="middle" x="886" y="-552" font-family="Helvetica,sans-Serif" font-size="10.00">SettingsCache::messages</text>
</a>
</g>
</g>
<!-- Node11&#45;&gt;Node14 -->
<g id="edge16_Node000011_Node000014" class="edge">
<title>Node11&#45;&gt;Node14</title>
<g id="a_edge16_Node000011_Node000014"><a xlink:title=" ">
<path fill="none" stroke="#63b8ff" d="M722.97,-511.54C743.15,-519.79 769.18,-529.69 793,-536.5 802.68,-539.27 813.06,-541.75 823.23,-543.92"/>
<polygon fill="#63b8ff" stroke="#63b8ff" points="828.2,-544.96 822.84,-546.14 825.75,-544.45 823.31,-543.94 823.31,-543.94 823.31,-543.94 825.75,-544.45 823.77,-541.74 828.2,-544.96 828.2,-544.96"/>
</a>
</g>
</g>
<!-- Node15 -->
<g id="Node000015" class="node">
<title>Node15</title>
<g id="a_Node000015"><a xlink:href="../../d5/d88/classSettingsCache.html#a7037026b8832432a3a208fd25ea9156a" target="_top" xlink:title=" ">
<polygon fill="white" stroke="#666666" points="950,-527 822,-527 822,-508 950,-508 950,-527"/>
<text text-anchor="middle" x="886" y="-515" font-family="Helvetica,sans-Serif" font-size="10.00">SettingsCache::servers</text>
</a>
</g>
</g>
<!-- Node11&#45;&gt;Node15 -->
<g id="edge17_Node000011_Node000015" class="edge">
<title>Node11&#45;&gt;Node15</title>
<g id="a_edge17_Node000011_Node000015"><a xlink:title=" ">
<path fill="none" stroke="#63b8ff" d="M755.25,-503.67C775.08,-505.78 796.79,-508.1 816.69,-510.22"/>
<polygon fill="#63b8ff" stroke="#63b8ff" points="821.71,-510.75 816.5,-512.46 819.22,-510.49 816.74,-510.22 816.74,-510.22 816.74,-510.22 819.22,-510.49 816.98,-507.99 821.71,-510.75 821.71,-510.75"/>
</a>
</g>
</g>
<!-- Node16 -->
<g id="Node000016" class="node">
<title>Node16</title>
<g id="a_Node000016"><a xlink:href="../../df/db1/classServersSettings.html#ac8fb70f4260de103d41c9310db3f1730" target="_top" xlink:title=" ">
<polygon fill="white" stroke="#666666" points="954.5,-67.5 817.5,-67.5 817.5,-37.5 954.5,-37.5 954.5,-67.5"/>
<text text-anchor="start" x="825.5" y="-55.5" font-family="Helvetica,sans-Serif" font-size="10.00">ServersSettings::setAuto</text>
<text text-anchor="middle" x="886" y="-44.5" font-family="Helvetica,sans-Serif" font-size="10.00">Connect</text>
</a>
</g>
</g>
<!-- Node11&#45;&gt;Node16 -->
<g id="edge18_Node000011_Node000016" class="edge">
<title>Node11&#45;&gt;Node16</title>
<g id="a_edge18_Node000011_Node000016"><a xlink:title=" ">
<path fill="none" stroke="#63b8ff" d="M689.74,-481.26C697.8,-413.02 733.78,-136.33 793,-76.5 798.47,-70.97 805.05,-66.67 812.13,-63.32"/>
<polygon fill="#63b8ff" stroke="#63b8ff" points="817.11,-61.15 813.43,-65.21 814.82,-62.15 812.53,-63.15 812.53,-63.15 812.53,-63.15 814.82,-62.15 811.63,-61.08 817.11,-61.15 817.11,-61.15"/>
</a>
</g>
</g>
<!-- Node18 -->
<g id="Node000018" class="node">
<title>Node18</title>
<g id="a_Node000018"><a xlink:href="../../d3/dc1/classMessageSettings.html#aa9733545c935a109f990a75a67341391" target="_top" xlink:title=" ">
<polygon fill="white" stroke="#666666" points="960.5,-19 811.5,-19 811.5,0 960.5,0 960.5,-19"/>
<text text-anchor="middle" x="886" y="-7" font-family="Helvetica,sans-Serif" font-size="10.00">MessageSettings::setCount</text>
</a>
</g>
</g>
<!-- Node11&#45;&gt;Node18 -->
<g id="edge20_Node000011_Node000018" class="edge">
<title>Node11&#45;&gt;Node18</title>
<g id="a_edge20_Node000011_Node000018"><a xlink:title=" ">
<path fill="none" stroke="#63b8ff" d="M689.22,-481.44C695.44,-408.7 725.9,-94.47 793,-28.5 797.01,-24.56 801.6,-21.34 806.55,-18.71"/>
<polygon fill="#63b8ff" stroke="#63b8ff" points="811.19,-16.46 807.68,-20.67 808.95,-17.55 806.7,-18.64 806.7,-18.64 806.7,-18.64 808.95,-17.55 805.71,-16.62 811.19,-16.46 811.19,-16.46"/>
</a>
</g>
</g>
<!-- Node19 -->
<g id="Node000019" class="node">
<title>Node19</title>
<g id="a_Node000019"><a xlink:href="../../de/dbe/classCardDatabaseSettings.html#aad6d6521443d33a3a80c74fb12ea2b7d" target="_top" xlink:title=" ">
<polygon fill="white" stroke="#666666" points="948.5,-846.5 823.5,-846.5 823.5,-816.5 948.5,-816.5 948.5,-846.5"/>
<text text-anchor="start" x="831.5" y="-834.5" font-family="Helvetica,sans-Serif" font-size="10.00">CardDatabaseSettings</text>
<text text-anchor="middle" x="886" y="-823.5" font-family="Helvetica,sans-Serif" font-size="10.00">::setEnabled</text>
</a>
</g>
</g>
<!-- Node11&#45;&gt;Node19 -->
<g id="edge22_Node000011_Node000019" class="edge">
<title>Node11&#45;&gt;Node19</title>
<g id="a_edge22_Node000011_Node000019"><a xlink:title=" ">
<path fill="none" stroke="#63b8ff" d="M688.33,-511.8C690.29,-562.14 703.58,-724.16 793,-807.5 800.2,-814.21 809.03,-819.09 818.35,-822.64"/>
<polygon fill="#63b8ff" stroke="#63b8ff" points="823.26,-824.38 817.8,-824.83 820.9,-823.54 818.55,-822.71 818.55,-822.71 818.55,-822.71 820.9,-823.54 819.3,-820.59 823.26,-824.38 823.26,-824.38"/>
</a>
</g>
</g>
<!-- Node20 -->
<g id="Node000020" class="node">
<title>Node20</title>
<g id="a_Node000020"><a xlink:href="../../df/db1/classServersSettings.html#af541f9f138d997de84423bc2460a71ea" target="_top" xlink:title=" ">
<polygon fill="white" stroke="#666666" points="975,-798 797,-798 797,-779 975,-779 975,-798"/>
<text text-anchor="middle" x="886" y="-786" font-family="Helvetica,sans-Serif" font-size="10.00">ServersSettings::setFPHostName</text>
</a>
</g>
</g>
<!-- Node11&#45;&gt;Node20 -->
<g id="edge24_Node000011_Node000020" class="edge">
<title>Node11&#45;&gt;Node20</title>
<g id="a_edge24_Node000011_Node000020"><a xlink:title=" ">
<path fill="none" stroke="#63b8ff" d="M688.89,-511.51C692.49,-558.03 710.14,-700.84 793,-770.5 795.62,-772.7 798.42,-774.66 801.37,-776.4"/>
<polygon fill="#63b8ff" stroke="#63b8ff" points="806.11,-778.97 800.64,-778.57 803.91,-777.78 801.71,-776.59 801.71,-776.59 801.71,-776.59 803.91,-777.78 802.78,-774.61 806.11,-778.97 806.11,-778.97"/>
</a>
</g>
</g>
<!-- Node21 -->
<g id="Node000021" class="node">
<title>Node21</title>
<g id="a_Node000021"><a xlink:href="../../df/db1/classServersSettings.html#af8bd3309b53957bb64f557461ac7d9ea" target="_top" xlink:title=" ">
<polygon fill="white" stroke="#666666" points="979,-761 793,-761 793,-742 979,-742 979,-761"/>
<text text-anchor="middle" x="886" y="-749" font-family="Helvetica,sans-Serif" font-size="10.00">ServersSettings::setFPPlayerName</text>
</a>
</g>
</g>
<!-- Node11&#45;&gt;Node21 -->
<g id="edge26_Node000011_Node000021" class="edge">
<title>Node11&#45;&gt;Node21</title>
<g id="a_edge26_Node000011_Node000021"><a xlink:title=" ">
<path fill="none" stroke="#63b8ff" d="M689.88,-511.6C696.02,-553.99 719.48,-674.84 793,-733.5 795.89,-735.8 798.98,-737.84 802.23,-739.64"/>
<polygon fill="#63b8ff" stroke="#63b8ff" points="806.75,-741.95 801.27,-741.67 804.52,-740.81 802.3,-739.67 802.3,-739.67 802.3,-739.67 804.52,-740.81 803.32,-737.67 806.75,-741.95 806.75,-741.95"/>
</a>
</g>
</g>
<!-- Node22 -->
<g id="Node000022" class="node">
<title>Node22</title>
<g id="a_Node000022"><a xlink:href="../../df/db1/classServersSettings.html#ac023a258e6b20ff793c419e2ce1cf0a9" target="_top" xlink:title=" ">
<polygon fill="white" stroke="#666666" points="959,-724 813,-724 813,-705 959,-705 959,-724"/>
<text text-anchor="middle" x="886" y="-712" font-family="Helvetica,sans-Serif" font-size="10.00">ServersSettings::setFPPort</text>
</a>
</g>
</g>
<!-- Node11&#45;&gt;Node22 -->
<g id="edge28_Node000011_Node000022" class="edge">
<title>Node11&#45;&gt;Node22</title>
<g id="a_edge28_Node000011_Node000022"><a xlink:title=" ">
<path fill="none" stroke="#63b8ff" d="M691.29,-511.59C700.3,-549.2 729.14,-647.51 793,-695.5 797.69,-699.02 802.87,-701.93 808.32,-704.32"/>
<polygon fill="#63b8ff" stroke="#63b8ff" points="812.95,-706.22 807.47,-706.41 810.64,-705.27 808.32,-704.33 808.32,-704.33 808.32,-704.33 810.64,-705.27 809.17,-702.24 812.95,-706.22 812.95,-706.22"/>
</a>
</g>
</g>
<!-- Node23 -->
<g id="Node000023" class="node">
<title>Node23</title>
<g id="a_Node000023"><a xlink:href="../../df/dd0/classGameFiltersSettings.html#abe3e0fad71cc3919bfcf0ed164e28bd8" target="_top" xlink:title=" ">
<polygon fill="white" stroke="#666666" points="968.5,-686.5 803.5,-686.5 803.5,-656.5 968.5,-656.5 968.5,-686.5"/>
<text text-anchor="start" x="811.5" y="-674.5" font-family="Helvetica,sans-Serif" font-size="10.00">GameFiltersSettings</text>
<text text-anchor="middle" x="886" y="-663.5" font-family="Helvetica,sans-Serif" font-size="10.00">::setGameHashedTypeEnabled</text>
</a>
</g>
</g>
<!-- Node11&#45;&gt;Node23 -->
<g id="edge30_Node000011_Node000023" class="edge">
<title>Node11&#45;&gt;Node23</title>
<g id="a_edge30_Node000011_Node000023"><a xlink:title=" ">
<path fill="none" stroke="#63b8ff" d="M694.14,-511.59C707.39,-542.2 741.67,-611.69 793,-647.5 796.5,-649.94 800.24,-652.14 804.12,-654.11"/>
<polygon fill="#63b8ff" stroke="#63b8ff" points="808.74,-656.32 803.26,-656.19 806.49,-655.24 804.23,-654.16 804.23,-654.16 804.23,-654.16 806.49,-655.24 805.21,-652.14 808.74,-656.32 808.74,-656.32"/>
</a>
</g>
</g>
<!-- Node24 -->
<g id="Node000024" class="node">
<title>Node24</title>
<g id="a_Node000024"><a xlink:href="../../df/dd0/classGameFiltersSettings.html#a83937896519de48f99f8e3b196c4fef5" target="_top" xlink:title=" ">
<polygon fill="white" stroke="#666666" points="946.5,-489.5 825.5,-489.5 825.5,-459.5 946.5,-459.5 946.5,-489.5"/>
<text text-anchor="start" x="833.5" y="-477.5" font-family="Helvetica,sans-Serif" font-size="10.00">GameFiltersSettings</text>
<text text-anchor="middle" x="886" y="-466.5" font-family="Helvetica,sans-Serif" font-size="10.00">::setGameNameFilter</text>
</a>
</g>
</g>
<!-- Node11&#45;&gt;Node24 -->
<g id="edge32_Node000011_Node000024" class="edge">
<title>Node11&#45;&gt;Node24</title>
<g id="a_edge32_Node000011_Node000024"><a xlink:title=" ">
<path fill="none" stroke="#63b8ff" d="M755.25,-488.99C776.3,-486.64 799.47,-484.05 820.34,-481.72"/>
<polygon fill="#63b8ff" stroke="#63b8ff" points="825.31,-481.17 820.59,-483.96 822.83,-481.44 820.34,-481.72 820.34,-481.72 820.34,-481.72 822.83,-481.44 820.09,-479.48 825.31,-481.17 825.31,-481.17"/>
</a>
</g>
</g>
<!-- Node25 -->
<g id="Node000025" class="node">
<title>Node25</title>
<g id="a_Node000025"><a xlink:href="../../df/dd0/classGameFiltersSettings.html#a1362067b0415249084e2f5f89f2c5bfb" target="_top" xlink:title=" ">
<polygon fill="white" stroke="#666666" points="963,-441.5 809,-441.5 809,-411.5 963,-411.5 963,-441.5"/>
<text text-anchor="start" x="817" y="-429.5" font-family="Helvetica,sans-Serif" font-size="10.00">GameFiltersSettings</text>
<text text-anchor="middle" x="886" y="-418.5" font-family="Helvetica,sans-Serif" font-size="10.00">::setHideIgnoredUserGames</text>
</a>
</g>
</g>
<!-- Node11&#45;&gt;Node25 -->
<g id="edge34_Node000011_Node000025" class="edge">
<title>Node11&#45;&gt;Node25</title>
<g id="a_edge34_Node000011_Node000025"><a xlink:title=" ">
<path fill="none" stroke="#63b8ff" d="M719.19,-481.29C739.81,-471.62 767.62,-459.31 793,-450.5 800.62,-447.86 808.68,-445.35 816.74,-443.02"/>
<polygon fill="#63b8ff" stroke="#63b8ff" points="821.75,-441.59 817.56,-445.12 819.35,-442.27 816.94,-442.96 816.94,-442.96 816.94,-442.96 819.35,-442.27 816.33,-440.8 821.75,-441.59 821.75,-441.59"/>
</a>
</g>
</g>
<!-- Node26 -->
<g id="Node000026" class="node">
<title>Node26</title>
<g id="a_Node000026"><a xlink:href="../../de/dbe/classCardDatabaseSettings.html#a06bb3199840818021504d99a472818a7" target="_top" xlink:title=" ">
<polygon fill="white" stroke="#666666" points="948.5,-393.5 823.5,-393.5 823.5,-363.5 948.5,-363.5 948.5,-393.5"/>
<text text-anchor="start" x="831.5" y="-381.5" font-family="Helvetica,sans-Serif" font-size="10.00">CardDatabaseSettings</text>
<text text-anchor="middle" x="886" y="-370.5" font-family="Helvetica,sans-Serif" font-size="10.00">::setIsKnown</text>
</a>
</g>
</g>
<!-- Node11&#45;&gt;Node26 -->
<g id="edge36_Node000011_Node000026" class="edge">
<title>Node11&#45;&gt;Node26</title>
<g id="a_edge36_Node000011_Node000026"><a xlink:title=" ">
<path fill="none" stroke="#63b8ff" d="M700.62,-481.38C718.85,-460.5 754.63,-423.1 793,-402.5 800.85,-398.28 809.49,-394.78 818.22,-391.87"/>
<polygon fill="#63b8ff" stroke="#63b8ff" points="823.08,-390.32 819.01,-393.98 820.7,-391.08 818.32,-391.84 818.32,-391.84 818.32,-391.84 820.7,-391.08 817.63,-389.7 823.08,-390.32 823.08,-390.32"/>
</a>
</g>
</g>
<!-- Node27 -->
<g id="Node000027" class="node">
<title>Node27</title>
<g id="a_Node000027"><a xlink:href="../../df/dd0/classGameFiltersSettings.html#abd3ff2823682e59bfa87c38e09a093c0" target="_top" xlink:title=" ">
<polygon fill="white" stroke="#666666" points="944,-345.5 828,-345.5 828,-315.5 944,-315.5 944,-345.5"/>
<text text-anchor="start" x="836" y="-333.5" font-family="Helvetica,sans-Serif" font-size="10.00">GameFiltersSettings</text>
<text text-anchor="middle" x="886" y="-322.5" font-family="Helvetica,sans-Serif" font-size="10.00">::setMaxPlayers</text>
</a>
</g>
</g>
<!-- Node11&#45;&gt;Node27 -->
<g id="edge38_Node000011_Node000027" class="edge">
<title>Node11&#45;&gt;Node27</title>
<g id="a_edge38_Node000011_Node000027"><a xlink:title=" ">
<path fill="none" stroke="#63b8ff" d="M694.82,-481.41C708.83,-452.19 743.73,-387.82 793,-354.5 802.01,-348.41 812.48,-343.86 823.06,-340.47"/>
<polygon fill="#63b8ff" stroke="#63b8ff" points="827.92,-338.99 823.79,-342.59 825.53,-339.71 823.14,-340.44 823.14,-340.44 823.14,-340.44 825.53,-339.71 822.49,-338.29 827.92,-338.99 827.92,-338.99"/>
</a>
</g>
</g>
<!-- Node28 -->
<g id="Node000028" class="node">
<title>Node28</title>
<g id="a_Node000028"><a xlink:href="../../d3/dc1/classMessageSettings.html#a778994c40f5eccf153d5ad855eac706e" target="_top" xlink:title=" ">
<polygon fill="white" stroke="#666666" points="973.5,-297 798.5,-297 798.5,-278 973.5,-278 973.5,-297"/>
<text text-anchor="middle" x="886" y="-285" font-family="Helvetica,sans-Serif" font-size="10.00">MessageSettings::setMessageAt</text>
</a>
</g>
</g>
<!-- Node11&#45;&gt;Node28 -->
<g id="edge40_Node000011_Node000028" class="edge">
<title>Node11&#45;&gt;Node28</title>
<g id="a_edge40_Node000011_Node000028"><a xlink:title=" ">
<path fill="none" stroke="#63b8ff" d="M691.72,-481.27C701.47,-444.76 731.4,-351.87 793,-306.5 796.76,-303.73 800.83,-301.34 805.1,-299.29"/>
<polygon fill="#63b8ff" stroke="#63b8ff" points="809.79,-297.18 806.15,-301.28 807.51,-298.2 805.23,-299.22 805.23,-299.22 805.23,-299.22 807.51,-298.2 804.31,-297.17 809.79,-297.18 809.79,-297.18"/>
</a>
</g>
</g>
<!-- Node29 -->
<g id="Node000029" class="node">
<title>Node29</title>
<g id="a_Node000029"><a xlink:href="../../df/dd0/classGameFiltersSettings.html#a3b0d80a6360c0ed8f43656f702b3f0f1" target="_top" xlink:title=" ">
<polygon fill="white" stroke="#666666" points="944,-259.5 828,-259.5 828,-229.5 944,-229.5 944,-259.5"/>
<text text-anchor="start" x="836" y="-247.5" font-family="Helvetica,sans-Serif" font-size="10.00">GameFiltersSettings</text>
<text text-anchor="middle" x="886" y="-236.5" font-family="Helvetica,sans-Serif" font-size="10.00">::setMinPlayers</text>
</a>
</g>
</g>
<!-- Node11&#45;&gt;Node29 -->
<g id="edge42_Node000011_Node000029" class="edge">
<title>Node11&#45;&gt;Node29</title>
<g id="a_edge42_Node000011_Node000029"><a xlink:title=" ">
<path fill="none" stroke="#63b8ff" d="M690.47,-481.41C697.94,-440.67 724.17,-327.64 793,-269.5 801.55,-262.28 812.01,-257.12 822.76,-253.45"/>
<polygon fill="#63b8ff" stroke="#63b8ff" points="827.72,-251.87 823.64,-255.53 825.34,-252.63 822.96,-253.39 822.96,-253.39 822.96,-253.39 825.34,-252.63 822.27,-251.25 827.72,-251.87 827.72,-251.87"/>
</a>
</g>
</g>
<!-- Node30 -->
<g id="Node000030" class="node">
<title>Node30</title>
<g id="a_Node000030"><a xlink:href="../../df/db1/classServersSettings.html#a8436f13d3dbef9de86b6b41616aed38d" target="_top" xlink:title=" ">
<polygon fill="white" stroke="#666666" points="964,-211.5 808,-211.5 808,-181.5 964,-181.5 964,-211.5"/>
<text text-anchor="start" x="816" y="-199.5" font-family="Helvetica,sans-Serif" font-size="10.00">ServersSettings::setPrevious</text>
<text text-anchor="middle" x="886" y="-188.5" font-family="Helvetica,sans-Serif" font-size="10.00">HostList</text>
</a>
</g>
</g>
<!-- Node11&#45;&gt;Node30 -->
<g id="edge44_Node000011_Node000030" class="edge">
<title>Node11&#45;&gt;Node30</title>
<g id="a_edge44_Node000011_Node000030"><a xlink:title=" ">
<path fill="none" stroke="#63b8ff" d="M689.07,-481.27C693.18,-434.73 712.1,-293.08 793,-220.5 796.18,-217.65 799.66,-215.13 803.34,-212.9"/>
<polygon fill="#63b8ff" stroke="#63b8ff" points="807.75,-210.42 804.49,-214.83 805.57,-211.64 803.39,-212.87 803.39,-212.87 803.39,-212.87 805.57,-211.64 802.29,-210.91 807.75,-210.42 807.75,-210.42"/>
</a>
</g>
</g>
<!-- Node31 -->
<g id="Node000031" class="node">
<title>Node31</title>
<g id="a_Node000031"><a xlink:href="../../df/db1/classServersSettings.html#a0742cf1f663eaaaccddae7bf6f03b670" target="_top" xlink:title=" ">
<polygon fill="white" stroke="#666666" points="964,-163.5 808,-163.5 808,-133.5 964,-133.5 964,-163.5"/>
<text text-anchor="start" x="816" y="-151.5" font-family="Helvetica,sans-Serif" font-size="10.00">ServersSettings::setPrevious</text>
<text text-anchor="middle" x="886" y="-140.5" font-family="Helvetica,sans-Serif" font-size="10.00">HostLogin</text>
</a>
</g>
</g>
<!-- Node11&#45;&gt;Node31 -->
<g id="edge46_Node000011_Node000031" class="edge">
<title>Node11&#45;&gt;Node31</title>
<g id="a_edge46_Node000011_Node000031"><a xlink:title=" ">
<path fill="none" stroke="#63b8ff" d="M688.09,-481.3C689.27,-429.76 700.31,-259.94 793,-172.5 796.19,-169.49 799.72,-166.84 803.46,-164.52"/>
<polygon fill="#63b8ff" stroke="#63b8ff" points="807.96,-161.94 804.75,-166.38 805.79,-163.18 803.63,-164.43 803.63,-164.43 803.63,-164.43 805.79,-163.18 802.51,-162.48 807.96,-161.94 807.96,-161.94"/>
</a>
</g>
</g>
<!-- Node32 -->
<g id="Node000032" class="node">
<title>Node32</title>
<g id="a_Node000032"><a xlink:href="../../de/dbe/classCardDatabaseSettings.html#a638768afda3a6eb230aaf7b6ced129b4" target="_top" xlink:title=" ">
<polygon fill="white" stroke="#666666" points="948.5,-115.5 823.5,-115.5 823.5,-85.5 948.5,-85.5 948.5,-115.5"/>
<text text-anchor="start" x="831.5" y="-103.5" font-family="Helvetica,sans-Serif" font-size="10.00">CardDatabaseSettings</text>
<text text-anchor="middle" x="886" y="-92.5" font-family="Helvetica,sans-Serif" font-size="10.00">::setSortKey</text>
</a>
</g>
</g>
<!-- Node11&#45;&gt;Node32 -->
<g id="edge48_Node000011_Node000032" class="edge">
<title>Node11&#45;&gt;Node32</title>
<g id="a_edge48_Node000011_Node000032"><a xlink:title=" ">
<path fill="none" stroke="#63b8ff" d="M687.36,-481.5C685.83,-425.57 688.29,-227.14 793,-124.5 800.13,-117.51 809.02,-112.49 818.45,-108.89"/>
<polygon fill="#63b8ff" stroke="#63b8ff" points="823.42,-107.13 819.45,-110.92 821.06,-107.96 818.7,-108.8 818.7,-108.8 818.7,-108.8 821.06,-107.96 817.95,-106.68 823.42,-107.13 823.42,-107.13"/>
</a>
</g>
</g>
<!-- Node17 -->
<g id="Node000017" class="node">
<title>Node17</title>
<g id="a_Node000017"><a xlink:href="../../d1/dea/classSettingsManager.html#a969f11d98d00ca6d3d776d2175d31714" target="_top" xlink:title=" ">
<polygon fill="white" stroke="#666666" points="1164.5,-364 1017.5,-364 1017.5,-345 1164.5,-345 1164.5,-364"/>
<text text-anchor="middle" x="1091" y="-352" font-family="Helvetica,sans-Serif" font-size="10.00">SettingsManager::setValue</text>
</a>
</g>
</g>
<!-- Node16&#45;&gt;Node17 -->
<g id="edge19_Node000016_Node000017" class="edge">
<title>Node16&#45;&gt;Node17</title>
<g id="a_edge19_Node000016_Node000017"><a xlink:title=" ">
<path fill="none" stroke="#63b8ff" d="M954.56,-62.17C963.47,-65.63 971.95,-70.27 979,-76.5 1061.94,-149.69 1083.69,-293.35 1088.67,-339.7"/>
<polygon fill="#63b8ff" stroke="#63b8ff" points="1089.2,-344.86 1086.45,-340.12 1088.94,-342.38 1088.69,-339.89 1088.69,-339.89 1088.69,-339.89 1088.94,-342.38 1090.93,-339.66 1089.2,-344.86 1089.2,-344.86"/>
</a>
</g>
</g>
<!-- Node18&#45;&gt;Node17 -->
<g id="edge21_Node000018_Node000017" class="edge">
<title>Node18&#45;&gt;Node17</title>
<g id="a_edge21_Node000018_Node000017"><a xlink:title=" ">
<path fill="none" stroke="#63b8ff" d="M960.71,-17.24C967.37,-20.07 973.62,-23.75 979,-28.5 1076.09,-114.2 1088.35,-288.27 1089.82,-339.81"/>
<polygon fill="#63b8ff" stroke="#63b8ff" points="1089.94,-344.94 1087.57,-340 1089.88,-342.44 1089.82,-339.94 1089.82,-339.94 1089.82,-339.94 1089.88,-342.44 1092.07,-339.89 1089.94,-344.94 1089.94,-344.94"/>
</a>
</g>
</g>
<!-- Node19&#45;&gt;Node17 -->
<g id="edge23_Node000019_Node000017" class="edge">
<title>Node19&#45;&gt;Node17</title>
<g id="a_edge23_Node000019_Node000017"><a xlink:title=" ">
<path fill="none" stroke="#63b8ff" d="M948.81,-825.09C960.04,-821.41 970.77,-815.85 979,-807.5 1043.11,-742.43 1080.43,-440.19 1088.39,-369.37"/>
<polygon fill="#63b8ff" stroke="#63b8ff" points="1088.95,-364.32 1090.64,-369.54 1088.68,-366.8 1088.4,-369.29 1088.4,-369.29 1088.4,-369.29 1088.68,-366.8 1086.16,-369.04 1088.95,-364.32 1088.95,-364.32"/>
</a>
</g>
</g>
<!-- Node20&#45;&gt;Node17 -->
<g id="edge25_Node000020_Node000017" class="edge">
<title>Node20&#45;&gt;Node17</title>
<g id="a_edge25_Node000020_Node000017"><a xlink:title=" ">
<path fill="none" stroke="#63b8ff" d="M967.17,-778.98C971.44,-776.63 975.43,-773.83 979,-770.5 1040.22,-713.28 1079.34,-437.22 1088.12,-369.52"/>
<polygon fill="#63b8ff" stroke="#63b8ff" points="1088.79,-364.31 1090.38,-369.56 1088.47,-366.79 1088.15,-369.27 1088.15,-369.27 1088.15,-369.27 1088.47,-366.79 1085.92,-368.98 1088.79,-364.31 1088.79,-364.31"/>
</a>
</g>
</g>
<!-- Node21&#45;&gt;Node17 -->
<g id="edge27_Node000021_Node000017" class="edge">
<title>Node21&#45;&gt;Node17</title>
<g id="a_edge27_Node000021_Node000017"><a xlink:title=" ">
<path fill="none" stroke="#63b8ff" d="M967.07,-741.88C971.37,-739.56 975.39,-736.79 979,-733.5 1090.14,-632.11 1092.31,-426.09 1090.66,-369.29"/>
<polygon fill="#63b8ff" stroke="#63b8ff" points="1090.49,-364.27 1092.9,-369.19 1090.57,-366.77 1090.66,-369.27 1090.66,-369.27 1090.66,-369.27 1090.57,-366.77 1088.41,-369.34 1090.49,-364.27 1090.49,-364.27"/>
</a>
</g>
</g>
<!-- Node22&#45;&gt;Node17 -->
<g id="edge29_Node000022_Node000017" class="edge">
<title>Node22&#45;&gt;Node17</title>
<g id="a_edge29_Node000022_Node000017"><a xlink:title=" ">
<path fill="none" stroke="#63b8ff" d="M959.41,-707.41C966.57,-704.49 973.29,-700.61 979,-695.5 1079.73,-605.38 1089.44,-422.89 1090.07,-369.49"/>
<polygon fill="#63b8ff" stroke="#63b8ff" points="1090.1,-364.18 1092.32,-369.2 1090.09,-366.68 1090.07,-369.18 1090.07,-369.18 1090.07,-369.18 1090.09,-366.68 1087.82,-369.17 1090.1,-364.18 1090.1,-364.18"/>
</a>
</g>
</g>
<!-- Node23&#45;&gt;Node17 -->
<g id="edge31_Node000023_Node000017" class="edge">
<title>Node23&#45;&gt;Node17</title>
<g id="a_edge31_Node000023_Node000017"><a xlink:title=" ">
<path fill="none" stroke="#63b8ff" d="M966.46,-656.4C970.96,-653.86 975.19,-650.92 979,-647.5 1065.69,-569.62 1085.02,-416.88 1089.02,-369.13"/>
<polygon fill="#63b8ff" stroke="#63b8ff" points="1089.42,-364.08 1091.27,-369.24 1089.22,-366.58 1089.03,-369.07 1089.03,-369.07 1089.03,-369.07 1089.22,-366.58 1086.78,-368.89 1089.42,-364.08 1089.42,-364.08"/>
</a>
</g>
</g>
<!-- Node24&#45;&gt;Node17 -->
<g id="edge33_Node000024_Node000017" class="edge">
<title>Node24&#45;&gt;Node17</title>
<g id="a_edge33_Node000024_Node000017"><a xlink:title=" ">
<path fill="none" stroke="#63b8ff" d="M946.9,-463.13C957.92,-459.87 969.07,-455.72 979,-450.5 1020.44,-428.71 1059.58,-388.74 1078.37,-367.92"/>
<polygon fill="#63b8ff" stroke="#63b8ff" points="1081.85,-364.02 1080.2,-369.25 1080.18,-365.88 1078.52,-367.75 1078.52,-367.75 1078.52,-367.75 1080.18,-365.88 1076.84,-366.25 1081.85,-364.02 1081.85,-364.02"/>
</a>
</g>
</g>
<!-- Node25&#45;&gt;Node17 -->
<g id="edge35_Node000025_Node000017" class="edge">
<title>Node25&#45;&gt;Node17</title>
<g id="a_edge35_Node000025_Node000017"><a xlink:title=" ">
<path fill="none" stroke="#63b8ff" d="M950.23,-411.37C959.94,-408.66 969.79,-405.67 979,-402.5 1009.58,-391.97 1043.55,-376.73 1065.76,-366.27"/>
<polygon fill="#63b8ff" stroke="#63b8ff" points="1070.31,-364.11 1066.76,-368.28 1068.05,-365.18 1065.79,-366.25 1065.79,-366.25 1065.79,-366.25 1068.05,-365.18 1064.83,-364.21 1070.31,-364.11 1070.31,-364.11"/>
</a>
</g>
</g>
<!-- Node26&#45;&gt;Node17 -->
<g id="edge37_Node000026_Node000017" class="edge">
<title>Node26&#45;&gt;Node17</title>
<g id="a_edge37_Node000026_Node000017"><a xlink:title=" ">
<path fill="none" stroke="#63b8ff" d="M948.73,-371.2C968.71,-368.84 991.13,-366.19 1012.12,-363.71"/>
<polygon fill="#63b8ff" stroke="#63b8ff" points="1017.14,-363.11 1012.44,-365.94 1014.66,-363.41 1012.18,-363.7 1012.18,-363.7 1012.18,-363.7 1014.66,-363.41 1011.91,-361.47 1017.14,-363.11 1017.14,-363.11"/>
</a>
</g>
</g>
<!-- Node27&#45;&gt;Node17 -->
<g id="edge39_Node000027_Node000017" class="edge">
<title>Node27&#45;&gt;Node17</title>
<g id="a_edge39_Node000027_Node000017"><a xlink:title=" ">
<path fill="none" stroke="#63b8ff" d="M944.09,-337.25C965.24,-339.75 989.59,-342.63 1012.27,-345.31"/>
<polygon fill="#63b8ff" stroke="#63b8ff" points="1017.39,-345.92 1012.16,-347.56 1014.9,-345.62 1012.42,-345.33 1012.42,-345.33 1012.42,-345.33 1014.9,-345.62 1012.69,-343.09 1017.39,-345.92 1017.39,-345.92"/>
</a>
</g>
</g>
<!-- Node28&#45;&gt;Node17 -->
<g id="edge41_Node000028_Node000017" class="edge">
<title>Node28&#45;&gt;Node17</title>
<g id="a_edge41_Node000028_Node000017"><a xlink:title=" ">
<path fill="none" stroke="#63b8ff" d="M942.45,-297.04C954.61,-299.66 967.34,-302.82 979,-306.5 1010.21,-316.36 1044.58,-332.01 1066.68,-342.75"/>
<polygon fill="#63b8ff" stroke="#63b8ff" points="1071.2,-344.96 1065.72,-344.78 1068.96,-343.86 1066.71,-342.76 1066.71,-342.76 1066.71,-342.76 1068.96,-343.86 1067.7,-340.74 1071.2,-344.96 1071.2,-344.96"/>
</a>
</g>
</g>
<!-- Node29&#45;&gt;Node17 -->
<g id="edge43_Node000029_Node000017" class="edge">
<title>Node29&#45;&gt;Node17</title>
<g id="a_edge43_Node000029_Node000017"><a xlink:title=" ">
<path fill="none" stroke="#63b8ff" d="M944.22,-256.35C956.04,-259.81 968.17,-264.14 979,-269.5 1017.96,-288.77 1056.72,-322.67 1076.5,-341.3"/>
<polygon fill="#63b8ff" stroke="#63b8ff" points="1080.2,-344.82 1075.03,-343.01 1078.39,-343.1 1076.58,-341.37 1076.58,-341.37 1076.58,-341.37 1078.39,-343.1 1078.13,-339.74 1080.2,-344.82 1080.2,-344.82"/>
</a>
</g>
</g>
<!-- Node30&#45;&gt;Node17 -->
<g id="edge45_Node000030_Node000017" class="edge">
<title>Node30&#45;&gt;Node17</title>
<g id="a_edge45_Node000030_Node000017"><a xlink:title=" ">
<path fill="none" stroke="#63b8ff" d="M961.54,-211.54C967.66,-214.08 973.57,-217.04 979,-220.5 1028.62,-252.1 1066.98,-313.16 1082.5,-340.58"/>
<polygon fill="#63b8ff" stroke="#63b8ff" points="1084.96,-344.99 1080.56,-341.72 1083.74,-342.8 1082.52,-340.62 1082.52,-340.62 1082.52,-340.62 1083.74,-342.8 1084.48,-339.52 1084.96,-344.99 1084.96,-344.99"/>
</a>
</g>
</g>
<!-- Node31&#45;&gt;Node17 -->
<g id="edge47_Node000031_Node000017" class="edge">
<title>Node31&#45;&gt;Node17</title>
<g id="a_edge47_Node000031_Node000017"><a xlink:title=" ">
<path fill="none" stroke="#63b8ff" d="M963.94,-163.57C969.27,-166.1 974.36,-169.05 979,-172.5 1039.06,-217.14 1073.49,-304.79 1085.31,-339.67"/>
<polygon fill="#63b8ff" stroke="#63b8ff" points="1087.01,-344.8 1083.3,-340.76 1086.22,-342.43 1085.44,-340.06 1085.44,-340.06 1085.44,-340.06 1086.22,-342.43 1087.57,-339.35 1087.01,-344.8 1087.01,-344.8"/>
</a>
</g>
</g>
<!-- Node32&#45;&gt;Node17 -->
<g id="edge49_Node000032_Node000017" class="edge">
<title>Node32&#45;&gt;Node17</title>
<g id="a_edge49_Node000032_Node000017"><a xlink:title=" ">
<path fill="none" stroke="#63b8ff" d="M948.95,-108.79C959.77,-112.34 970.33,-117.37 979,-124.5 1050.45,-183.25 1079.16,-299 1087.34,-339.83"/>
<polygon fill="#63b8ff" stroke="#63b8ff" points="1088.32,-344.86 1085.16,-340.38 1087.85,-342.41 1087.37,-339.95 1087.37,-339.95 1087.37,-339.95 1087.85,-342.41 1089.58,-339.52 1088.32,-344.86 1088.32,-344.86"/>
</a>
</g>
</g>
</g>
</svg>

<g id="navigator" transform="translate(0 0)" fill="#404254">
  <rect fill="#f2f5e9" fill-opacity="0.5" stroke="#606060" stroke-width=".5" x="0" y="0" width="60" height="60"/>
  <use id="zoomplus" xlink:href="#zoomPlus" x="17" y="9" onmousedown="handleZoom(evt,'in')"/>
  <use id="zoomminus" xlink:href="#zoomMin" x="42" y="9" onmousedown="handleZoom(evt,'out')"/>
  <use id="reset" xlink:href="#resetDef" x="30" y="36" onmousedown="handleReset()"/>
   <use id="arrowup" xlink:href="#arrowUp" x="0" y="0" onmousedown="handlePan(0,-1)"/>
  <use id="arrowright" xlink:href="#arrowRight" x="0" y="0" onmousedown="handlePan(1,0)"/>
  <use id="arrowdown" xlink:href="#arrowDown" x="0" y="0" onmousedown="handlePan(0,1)"/>
  <use id="arrowleft" xlink:href="#arrowLeft" x="0" y="0" onmousedown="handlePan(-1,0)"/>
</g>
<svg viewBox="0 0 15 15" width="100%" height="30px" preserveAspectRatio="xMaxYMin meet">
 <g id="arrow_out" transform="scale(0.3 0.3)">
  <a xlink:href="classTabGame_a0222059bef0d83588a983e9d0b387d7b_cgraph_org.svg" target="_base">
   <rect id="button" ry="5" rx="5" y="6" x="6" height="38" width="38"
        fill="#f2f5e9" fill-opacity="0.5" stroke="#606060" stroke-width="1.0"/>
   <path id="arrow"
     d="M 11.500037,31.436501 C 11.940474,20.09759 22.043105,11.32322 32.158766,21.979434 L 37.068811,17.246167 C 37.068811,17.246167 37.088388,32 37.088388,32 L 22.160133,31.978069 C 22.160133,31.978069 26.997745,27.140456 26.997745,27.140456 C 18.528582,18.264221 13.291696,25.230495 11.500037,31.436501 z"
     style="fill:#404040;"/>
  </a>
 </g>
</svg>

<style type='text/css'>
<![CDATA[
[data-mouse-over-selected='false'] { opacity: 0.7; }
[data-mouse-over-selected='true']  { opacity: 1.0; }
]]>
</style>
<script type="application/ecmascript"><![CDATA[
document.addEventListener('DOMContentLoaded', (event) => {
  highlightEdges();
  highlightAdjacentNodes();
});
]]></script>
</svg>
