<?xml version="1.0" encoding="UTF-8" standalone="no"?>
<!DOCTYPE svg PUBLIC "-//W3C//DTD SVG 1.1//EN"
 "http://www.w3.org/Graphics/SVG/1.1/DTD/svg11.dtd">
<!-- Generated by graphviz version 2.43.0 (0)
 -->
<!-- Title: TabGame::dockTopLevelChanged Pages: 1 -->
<svg width="543pt" height="138pt"
 viewBox="0.00 0.00 543.00 138.00" xmlns="http://www.w3.org/2000/svg" xmlns:xlink="http://www.w3.org/1999/xlink">
<g id="graph0" class="graph" transform="scale(1 1) rotate(0) translate(4 134)">
<title>TabGame::dockTopLevelChanged</title>
<!-- Node1 -->
<g id="Node000001" class="node">
<title>Node1</title>
<g id="a_Node000001"><a xlink:title=" ">
<polygon fill="#999999" stroke="#666666" points="535,-74 358,-74 358,-55 535,-55 535,-74"/>
<text text-anchor="middle" x="446.5" y="-62" font-family="Helvetica,sans-Serif" font-size="10.00">TabGame::dockTopLevelChanged</text>
</a>
</g>
</g>
<!-- Node2 -->
<g id="Node000002" class="node">
<title>Node2</title>
<g id="a_Node000002"><a xlink:href="../../de/d08/classTabGame.html#a865b3026c7fb4b5945d6e443111551ed" target="_top" xlink:title=" ">
<polygon fill="white" stroke="#666666" points="318.5,-56 153.5,-56 153.5,-37 318.5,-37 318.5,-56"/>
<text text-anchor="middle" x="236" y="-44" font-family="Helvetica,sans-Serif" font-size="10.00">TabGame::createCardInfoDock</text>
</a>
</g>
</g>
<!-- Node1&#45;&gt;Node2 -->
<g id="edge1_Node000001_Node000002" class="edge">
<title>Node1&#45;&gt;Node2</title>
<g id="a_edge1_Node000001_Node000002"><a xlink:title=" ">
<path fill="none" stroke="#63b8ff" d="M352.77,-56.49C341.39,-55.51 329.83,-54.51 318.64,-53.55"/>
<polygon fill="#63b8ff" stroke="#63b8ff" points="357.98,-56.94 352.81,-58.76 355.49,-56.73 353,-56.51 353,-56.51 353,-56.51 355.49,-56.73 353.2,-54.27 357.98,-56.94 357.98,-56.94"/>
</a>
</g>
</g>
<!-- Node5 -->
<g id="Node000005" class="node">
<title>Node5</title>
<g id="a_Node000005"><a xlink:href="../../de/d08/classTabGame.html#ac76bfb14375c313bf24446d7d3d15670" target="_top" xlink:title=" ">
<polygon fill="white" stroke="#666666" points="319.5,-19 152.5,-19 152.5,0 319.5,0 319.5,-19"/>
<text text-anchor="middle" x="236" y="-7" font-family="Helvetica,sans-Serif" font-size="10.00">TabGame::createMessageDock</text>
</a>
</g>
</g>
<!-- Node1&#45;&gt;Node5 -->
<g id="edge4_Node000001_Node000005" class="edge">
<title>Node1&#45;&gt;Node5</title>
<g id="a_edge4_Node000001_Node000005"><a xlink:title=" ">
<path fill="none" stroke="#63b8ff" d="M411.44,-53.47C386.76,-45.68 352.5,-35.28 322,-27.5 310.31,-24.52 297.62,-21.64 285.71,-19.09"/>
<polygon fill="#63b8ff" stroke="#63b8ff" points="416.25,-54.99 410.8,-55.63 413.86,-54.24 411.48,-53.48 411.48,-53.48 411.48,-53.48 413.86,-54.24 412.16,-51.34 416.25,-54.99 416.25,-54.99"/>
</a>
</g>
</g>
<!-- Node6 -->
<g id="Node000006" class="node">
<title>Node6</title>
<g id="a_Node000006"><a xlink:href="../../de/d08/classTabGame.html#ac36c67bd4d548537f189c9ee424c51c5" target="_top" xlink:title=" ">
<polygon fill="white" stroke="#666666" points="322,-130 150,-130 150,-111 322,-111 322,-130"/>
<text text-anchor="middle" x="236" y="-118" font-family="Helvetica,sans-Serif" font-size="10.00">TabGame::createPlayerListDock</text>
</a>
</g>
</g>
<!-- Node1&#45;&gt;Node6 -->
<g id="edge7_Node000001_Node000006" class="edge">
<title>Node1&#45;&gt;Node6</title>
<g id="a_edge7_Node000001_Node000006"><a xlink:title=" ">
<path fill="none" stroke="#63b8ff" d="M411.96,-75.72C387.25,-83.76 352.74,-94.53 322,-102.5 310.32,-105.53 297.64,-108.42 285.72,-110.97"/>
<polygon fill="#63b8ff" stroke="#63b8ff" points="416.76,-74.15 412.71,-77.84 414.39,-74.92 412.01,-75.7 412.01,-75.7 412.01,-75.7 414.39,-74.92 411.31,-73.56 416.76,-74.15 416.76,-74.15"/>
</a>
</g>
</g>
<!-- Node7 -->
<g id="Node000007" class="node">
<title>Node7</title>
<g id="a_Node000007"><a xlink:href="../../de/d08/classTabGame.html#acb6851a338be85c0d5e65d628a47df7d" target="_top" xlink:title=" ">
<polygon fill="white" stroke="#666666" points="315,-93 157,-93 157,-74 315,-74 315,-93"/>
<text text-anchor="middle" x="236" y="-81" font-family="Helvetica,sans-Serif" font-size="10.00">TabGame::createReplayDock</text>
</a>
</g>
</g>
<!-- Node1&#45;&gt;Node7 -->
<g id="edge10_Node000001_Node000007" class="edge">
<title>Node1&#45;&gt;Node7</title>
<g id="a_edge10_Node000001_Node000007"><a xlink:title=" ">
<path fill="none" stroke="#63b8ff" d="M352.95,-72.93C340.28,-74.09 327.38,-75.26 315.01,-76.39"/>
<polygon fill="#63b8ff" stroke="#63b8ff" points="357.98,-72.48 353.21,-75.17 355.49,-72.7 353,-72.93 353,-72.93 353,-72.93 355.49,-72.7 352.8,-70.69 357.98,-72.48 357.98,-72.48"/>
</a>
</g>
</g>
<!-- Node3 -->
<g id="Node000003" class="node">
<title>Node3</title>
<g id="a_Node000003"><a xlink:href="../../de/d08/classTabGame.html#a2b6beeea83d5e1e5b29712929e9eb08b" target="_top" xlink:title=" ">
<polygon fill="white" stroke="#666666" points="114,-93 0,-93 0,-74 114,-74 114,-93"/>
<text text-anchor="middle" x="57" y="-81" font-family="Helvetica,sans-Serif" font-size="10.00">TabGame::TabGame</text>
</a>
</g>
</g>
<!-- Node2&#45;&gt;Node3 -->
<g id="edge2_Node000002_Node000003" class="edge">
<title>Node2&#45;&gt;Node3</title>
<g id="a_edge2_Node000002_Node000003"><a xlink:title=" ">
<path fill="none" stroke="#63b8ff" d="M184.41,-57.08C158.99,-62.39 128.44,-68.78 103.73,-73.94"/>
<polygon fill="#63b8ff" stroke="#63b8ff" points="189.42,-56.03 184.98,-59.25 186.97,-56.54 184.52,-57.05 184.52,-57.05 184.52,-57.05 186.97,-56.54 184.06,-54.85 189.42,-56.03 189.42,-56.03"/>
</a>
</g>
</g>
<!-- Node4 -->
<g id="Node000004" class="node">
<title>Node4</title>
<g id="a_Node000004"><a xlink:href="../../de/d08/classTabGame.html#a0198c02f04e49adcbc708d2a0abfb80b" target="_top" xlink:title=" ">
<polygon fill="white" stroke="#666666" points="114,-56 0,-56 0,-37 114,-37 114,-56"/>
<text text-anchor="middle" x="57" y="-44" font-family="Helvetica,sans-Serif" font-size="10.00">TabGame::TabGame</text>
</a>
</g>
</g>
<!-- Node2&#45;&gt;Node4 -->
<g id="edge3_Node000002_Node000004" class="edge">
<title>Node2&#45;&gt;Node4</title>
<g id="a_edge3_Node000002_Node000004"><a xlink:title=" ">
<path fill="none" stroke="#63b8ff" d="M148.48,-46.5C136.78,-46.5 125.04,-46.5 114.06,-46.5"/>
<polygon fill="#63b8ff" stroke="#63b8ff" points="153.49,-46.5 148.49,-48.75 150.99,-46.5 148.49,-46.5 148.49,-46.5 148.49,-46.5 150.99,-46.5 148.49,-44.25 153.49,-46.5 153.49,-46.5"/>
</a>
</g>
</g>
<!-- Node5&#45;&gt;Node3 -->
<g id="edge5_Node000005_Node000003" class="edge">
<title>Node5&#45;&gt;Node3</title>
<g id="a_edge5_Node000005_Node000003"><a xlink:title=" ">
<path fill="none" stroke="#63b8ff" d="M164.73,-20.78C159.6,-22.68 154.63,-24.9 150,-27.5 129.7,-38.87 133.69,-53.11 114,-65.5 108.64,-68.87 102.59,-71.67 96.5,-73.97"/>
<polygon fill="#63b8ff" stroke="#63b8ff" points="169.47,-19.12 165.49,-22.9 167.11,-19.95 164.75,-20.77 164.75,-20.77 164.75,-20.77 167.11,-19.95 164.01,-18.65 169.47,-19.12 169.47,-19.12"/>
</a>
</g>
</g>
<!-- Node5&#45;&gt;Node4 -->
<g id="edge6_Node000005_Node000004" class="edge">
<title>Node5&#45;&gt;Node4</title>
<g id="a_edge6_Node000005_Node000004"><a xlink:title=" ">
<path fill="none" stroke="#63b8ff" d="M184.41,-20.08C158.99,-25.39 128.44,-31.78 103.73,-36.94"/>
<polygon fill="#63b8ff" stroke="#63b8ff" points="189.42,-19.03 184.98,-22.25 186.97,-19.54 184.52,-20.05 184.52,-20.05 184.52,-20.05 186.97,-19.54 184.06,-17.85 189.42,-19.03 189.42,-19.03"/>
</a>
</g>
</g>
<!-- Node6&#45;&gt;Node3 -->
<g id="edge8_Node000006_Node000003" class="edge">
<title>Node6&#45;&gt;Node3</title>
<g id="a_edge8_Node000006_Node000003"><a xlink:title=" ">
<path fill="none" stroke="#63b8ff" d="M184.41,-109.92C158.99,-104.61 128.44,-98.22 103.73,-93.06"/>
<polygon fill="#63b8ff" stroke="#63b8ff" points="189.42,-110.97 184.06,-112.15 186.97,-110.46 184.52,-109.95 184.52,-109.95 184.52,-109.95 186.97,-110.46 184.98,-107.75 189.42,-110.97 189.42,-110.97"/>
</a>
</g>
</g>
<!-- Node6&#45;&gt;Node4 -->
<g id="edge9_Node000006_Node000004" class="edge">
<title>Node6&#45;&gt;Node4</title>
<g id="a_edge9_Node000006_Node000004"><a xlink:title=" ">
<path fill="none" stroke="#63b8ff" d="M165.1,-109.27C159.85,-107.36 154.75,-105.12 150,-102.5 129.91,-91.42 133.4,-77.75 114,-65.5 108.01,-61.72 101.18,-58.6 94.4,-56.05"/>
<polygon fill="#63b8ff" stroke="#63b8ff" points="169.96,-110.94 164.5,-111.45 167.59,-110.13 165.23,-109.32 165.23,-109.32 165.23,-109.32 167.59,-110.13 165.96,-107.19 169.96,-110.94 169.96,-110.94"/>
</a>
</g>
</g>
<!-- Node7&#45;&gt;Node3 -->
<g id="edge11_Node000007_Node000003" class="edge">
<title>Node7&#45;&gt;Node3</title>
<g id="a_edge11_Node000007_Node000003"><a xlink:title=" ">
<path fill="none" stroke="#63b8ff" d="M151.79,-83.5C139.06,-83.5 126.18,-83.5 114.22,-83.5"/>
<polygon fill="#63b8ff" stroke="#63b8ff" points="156.85,-83.5 151.85,-85.75 154.35,-83.5 151.85,-83.5 151.85,-83.5 151.85,-83.5 154.35,-83.5 151.85,-81.25 156.85,-83.5 156.85,-83.5"/>
</a>
</g>
</g>
<!-- Node7&#45;&gt;Node4 -->
<g id="edge12_Node000007_Node000004" class="edge">
<title>Node7&#45;&gt;Node4</title>
<g id="a_edge12_Node000007_Node000004"><a xlink:title=" ">
<path fill="none" stroke="#63b8ff" d="M184.41,-72.92C158.99,-67.61 128.44,-61.22 103.73,-56.06"/>
<polygon fill="#63b8ff" stroke="#63b8ff" points="189.42,-73.97 184.06,-75.15 186.97,-73.46 184.52,-72.95 184.52,-72.95 184.52,-72.95 186.97,-73.46 184.98,-70.75 189.42,-73.97 189.42,-73.97"/>
</a>
</g>
</g>
</g>
</svg>
