<?xml version="1.0" encoding="UTF-8" standalone="no"?>
<!DOCTYPE svg PUBLIC "-//W3C//DTD SVG 1.1//EN"
 "http://www.w3.org/Graphics/SVG/1.1/DTD/svg11.dtd">
<!-- Generated by graphviz version 2.43.0 (0)
 -->
<!-- Title: TabGame::leaveGame Pages: 1 -->
<svg width="351pt" height="175pt"
 viewBox="0.00 0.00 351.00 175.00" xmlns="http://www.w3.org/2000/svg" xmlns:xlink="http://www.w3.org/1999/xlink">
<g id="graph0" class="graph" transform="scale(1 1) rotate(0) translate(4 171)">
<title>TabGame::leaveGame</title>
<!-- Node1 -->
<g id="Node000001" class="node">
<title>Node1</title>
<g id="a_Node000001"><a xlink:title=" ">
<polygon fill="#999999" stroke="#666666" points="125,-93 0,-93 0,-74 125,-74 125,-93"/>
<text text-anchor="middle" x="62.5" y="-81" font-family="Helvetica,sans-Serif" font-size="10.00">TabGame::leaveGame</text>
</a>
</g>
</g>
<!-- Node2 -->
<g id="Node000002" class="node">
<title>Node2</title>
<g id="a_Node000002"><a xlink:href="../../de/d08/classTabGame.html#a09dd180b5197c356c1ca6402dc12bfb4" target="_top" xlink:title=" ">
<polygon fill="white" stroke="#666666" points="309,-167 195,-167 195,-148 309,-148 309,-167"/>
<text text-anchor="middle" x="252" y="-155" font-family="Helvetica,sans-Serif" font-size="10.00">TabGame::gameLeft</text>
</a>
</g>
</g>
<!-- Node1&#45;&gt;Node2 -->
<g id="edge1_Node000001_Node000002" class="edge">
<title>Node1&#45;&gt;Node2</title>
<g id="a_edge1_Node000001_Node000002"><a xlink:title=" ">
<path fill="none" stroke="#63b8ff" d="M77,-93.16C95.2,-105.73 129.02,-127.49 161,-139.5 170.15,-142.94 180.07,-145.76 189.88,-148.06"/>
<polygon fill="#63b8ff" stroke="#63b8ff" points="195,-149.22 189.62,-150.31 192.56,-148.67 190.12,-148.12 190.12,-148.12 190.12,-148.12 192.56,-148.67 190.62,-145.92 195,-149.22 195,-149.22"/>
</a>
</g>
</g>
<!-- Node3 -->
<g id="Node000003" class="node">
<title>Node3</title>
<g id="a_Node000003"><a xlink:href="../../d3/d44/classAbstractGame.html#a0d43480006c1087da655034a0382b0ba" target="_top" xlink:title=" ">
<polygon fill="white" stroke="#666666" points="333.5,-130 170.5,-130 170.5,-111 333.5,-111 333.5,-130"/>
<text text-anchor="middle" x="252" y="-118" font-family="Helvetica,sans-Serif" font-size="10.00">AbstractGame::getGameState</text>
</a>
</g>
</g>
<!-- Node1&#45;&gt;Node3 -->
<g id="edge2_Node000001_Node000003" class="edge">
<title>Node1&#45;&gt;Node3</title>
<g id="a_edge2_Node000001_Node000003"><a xlink:title=" ">
<path fill="none" stroke="#63b8ff" d="M111.79,-93.03C138.04,-98.21 170.57,-104.63 197.58,-109.96"/>
<polygon fill="#63b8ff" stroke="#63b8ff" points="202.55,-110.94 197.21,-112.18 200.1,-110.46 197.65,-109.97 197.65,-109.97 197.65,-109.97 200.1,-110.46 198.08,-107.76 202.55,-110.94 202.55,-110.94"/>
</a>
</g>
</g>
<!-- Node4 -->
<g id="Node000004" class="node">
<title>Node4</title>
<g id="a_Node000004"><a xlink:href="../../d3/d44/classAbstractGame.html#a30acfb1e00b1b9b1bd43356d857f5f96" target="_top" xlink:title=" ">
<polygon fill="white" stroke="#666666" points="343,-93 161,-93 161,-74 343,-74 343,-93"/>
<text text-anchor="middle" x="252" y="-81" font-family="Helvetica,sans-Serif" font-size="10.00">AbstractGame::getPlayerManager</text>
</a>
</g>
</g>
<!-- Node1&#45;&gt;Node4 -->
<g id="edge3_Node000001_Node000004" class="edge">
<title>Node1&#45;&gt;Node4</title>
<g id="a_edge3_Node000001_Node000004"><a xlink:title=" ">
<path fill="none" stroke="#63b8ff" d="M125.15,-83.5C134.97,-83.5 145.32,-83.5 155.69,-83.5"/>
<polygon fill="#63b8ff" stroke="#63b8ff" points="160.78,-83.5 155.78,-85.75 158.28,-83.5 155.78,-83.5 155.78,-83.5 155.78,-83.5 158.28,-83.5 155.78,-81.25 160.78,-83.5 160.78,-83.5"/>
</a>
</g>
</g>
<!-- Node5 -->
<g id="Node000005" class="node">
<title>Node5</title>
<g id="a_Node000005"><a xlink:href="../../d3/df3/classGameState.html#aa99d5cc7cd7f44c2554ea078c53455e1" target="_top" xlink:title=" ">
<polygon fill="white" stroke="#666666" points="326,-56 178,-56 178,-37 326,-37 326,-56"/>
<text text-anchor="middle" x="252" y="-44" font-family="Helvetica,sans-Serif" font-size="10.00">GameState::isGameClosed</text>
</a>
</g>
</g>
<!-- Node1&#45;&gt;Node5 -->
<g id="edge4_Node000001_Node000005" class="edge">
<title>Node1&#45;&gt;Node5</title>
<g id="a_edge4_Node000001_Node000005"><a xlink:title=" ">
<path fill="none" stroke="#63b8ff" d="M111.79,-73.97C138.04,-68.79 170.57,-62.37 197.58,-57.04"/>
<polygon fill="#63b8ff" stroke="#63b8ff" points="202.55,-56.06 198.08,-59.24 200.1,-56.54 197.65,-57.03 197.65,-57.03 197.65,-57.03 200.1,-56.54 197.21,-54.82 202.55,-56.06 202.55,-56.06"/>
</a>
</g>
</g>
<!-- Node6 -->
<g id="Node000006" class="node">
<title>Node6</title>
<g id="a_Node000006"><a xlink:href="../../dc/d5d/classPlayerManager.html#aa0a36fbae4264f4014fb159a03067836" target="_top" xlink:title=" ">
<polygon fill="white" stroke="#666666" points="327.5,-19 176.5,-19 176.5,0 327.5,0 327.5,-19"/>
<text text-anchor="middle" x="252" y="-7" font-family="Helvetica,sans-Serif" font-size="10.00">PlayerManager::isSpectator</text>
</a>
</g>
</g>
<!-- Node1&#45;&gt;Node6 -->
<g id="edge5_Node000001_Node000006" class="edge">
<title>Node1&#45;&gt;Node6</title>
<g id="a_edge5_Node000001_Node000006"><a xlink:title=" ">
<path fill="none" stroke="#63b8ff" d="M77.36,-73.86C95.69,-61.56 129.36,-40.44 161,-28.5 169.45,-25.31 178.55,-22.61 187.61,-20.32"/>
<polygon fill="#63b8ff" stroke="#63b8ff" points="192.64,-19.1 188.31,-22.47 190.21,-19.69 187.78,-20.28 187.78,-20.28 187.78,-20.28 190.21,-19.69 187.25,-18.1 192.64,-19.1 192.64,-19.1"/>
</a>
</g>
</g>
</g>
</svg>
