<?xml version="1.0" encoding="UTF-8" standalone="no"?>
<!DOCTYPE svg PUBLIC "-//W3C//DTD SVG 1.1//EN"
 "http://www.w3.org/Graphics/SVG/1.1/DTD/svg11.dtd">
<!-- Generated by graphviz version 2.43.0 (0)
 -->
<!-- Title: TabGame::gameLeft Pages: 1 -->
<!--zoomable 153 -->

<svg id="main" version="1.1" xmlns="http://www.w3.org/2000/svg" xmlns:xlink="http://www.w3.org/1999/xlink" xml:space="preserve" onload="init(evt)">

<style type="text/css"><![CDATA[
.node, .edge {opacity: 0.7;}
.node.selected, .edge.selected {opacity: 1;}
.edge:hover path { stroke: red; }
.edge:hover polygon { stroke: red; fill: red; }
]]></style>

<defs>
  <circle id="rim" cx="0" cy="0" r="7"/>
  <circle id="rim2" cx="0" cy="0" r="3.5"/>
  <g id="zoomPlus">
    <use xlink:href="#rim" fill="#404040"><set attributeName="fill" to="#808080" begin="zoomplus.mouseover" end="zoomplus.mouseout"/></use>
    <path d="M-4,0h8M0,-4v8" fill="none" stroke="white" stroke-width="1.5" pointer-events="none"/>
  </g>
  <g id="zoomMin">
    <use xlink:href="#rim" fill="#404040"><set attributeName="fill" to="#808080" begin="zoomminus.mouseover" end="zoomminus.mouseout"/></use>
    <path d="M-4,0h8" fill="none" stroke="white" stroke-width="1.5" pointer-events="none"/>
  </g>
  <g id="arrowUp" transform="translate(30 24)">
    <use xlink:href="#rim"/>
    <path pointer-events="none" fill="none" stroke="white" stroke-width="1.5" d="M0,-3.0v7 M-2.5,-0.5L0,-3.0L2.5,-0.5"/>
  </g>
  <g id="arrowRight" transform="rotate(90) translate(36 -43)">
    <use xlink:href="#rim"/>
    <path pointer-events="none" fill="none" stroke="white" stroke-width="1.5" d="M0,-3.0v7 M-2.5,-0.5L0,-3.0L2.5,-0.5"/>
  </g>
  <g id="arrowDown" transform="rotate(180) translate(-30 -48)">
    <use xlink:href="#rim"/>
    <path pointer-events="none" fill="none" stroke="white" stroke-width="1.5" d="M0,-3.0v7 M-2.5,-0.5L0,-3.0L2.5,-0.5"/>
  </g>
  <g id="arrowLeft" transform="rotate(270) translate(-36 17)">
    <use xlink:href="#rim"/>
    <path pointer-events="none" fill="none" stroke="white" stroke-width="1.5" d="M0,-3.0v7 M-2.5,-0.5L0,-3.0L2.5,-0.5"/>
  </g>
  <g id="resetDef">
    <use xlink:href="#rim2" fill="#404040"><set attributeName="fill" to="#808080" begin="reset.mouseover" end="reset.mouseout"/></use>
  </g>
</defs>
<script type="application/ecmascript">
var viewWidth = 1767;
var viewHeight = 153;
var sectionId = 'dynsection-69';
</script>
<script type="application/ecmascript" xlink:href="../../svg.min.js"/>
<svg id="graph" class="graph">
<g id="viewport">
<title>TabGame::gameLeft</title>
<!-- Node1 -->
<g id="Node000001" class="node">
<title>Node1</title>
<g id="a_Node000001"><a xlink:title=" ">
<polygon fill="#999999" stroke="#666666" points="1759,-88.5 1645,-88.5 1645,-69.5 1759,-69.5 1759,-88.5"/>
<text text-anchor="middle" x="1702" y="-76.5" font-family="Helvetica,sans-Serif" font-size="10.00">TabGame::gameLeft</text>
</a>
</g>
</g>
<!-- Node2 -->
<g id="Node000002" class="node">
<title>Node2</title>
<g id="a_Node000002"><a xlink:href="../../de/d08/classTabGame.html#af3cdacabac70dcb0e440101911feefe9" target="_top" xlink:title=" ">
<polygon fill="white" stroke="#666666" points="1278,-116 1104,-116 1104,-86 1278,-86 1278,-116"/>
<text text-anchor="start" x="1112" y="-104" font-family="Helvetica,sans-Serif" font-size="10.00">TabGame::connectToGameEvent</text>
<text text-anchor="middle" x="1191" y="-93" font-family="Helvetica,sans-Serif" font-size="10.00">Handler</text>
</a>
</g>
</g>
<!-- Node1&#45;&gt;Node2 -->
<g id="edge1_Node000001_Node000002" class="edge">
<title>Node1&#45;&gt;Node2</title>
<g id="a_edge1_Node000001_Node000002"><a xlink:title=" ">
<path fill="none" stroke="#63b8ff" d="M1639.56,-81.66C1549.41,-85.55 1380.92,-92.83 1278.36,-97.27"/>
<polygon fill="#63b8ff" stroke="#63b8ff" points="1644.58,-81.44 1639.69,-83.9 1642.09,-81.55 1639.59,-81.65 1639.59,-81.65 1639.59,-81.65 1642.09,-81.55 1639.49,-79.41 1644.58,-81.44 1644.58,-81.44"/>
</a>
</g>
</g>
<!-- Node15 -->
<g id="Node000015" class="node">
<title>Node15</title>
<g id="a_Node000015"><a xlink:href="../../de/d08/classTabGame.html#a3e0bfddf9b13cb6e52ea0f976110d8b3" target="_top" xlink:title=" ">
<polygon fill="white" stroke="#666666" points="1609,-69.5 1484,-69.5 1484,-50.5 1609,-50.5 1609,-69.5"/>
<text text-anchor="middle" x="1546.5" y="-57.5" font-family="Helvetica,sans-Serif" font-size="10.00">TabGame::leaveGame</text>
</a>
</g>
</g>
<!-- Node1&#45;&gt;Node15 -->
<g id="edge15_Node000001_Node000015" class="edge">
<title>Node1&#45;&gt;Node15</title>
<g id="a_edge15_Node000001_Node000015"><a xlink:title=" ">
<path fill="none" stroke="#63b8ff" d="M1639.53,-71.39C1629.55,-70.16 1619.2,-68.88 1609.21,-67.64"/>
<polygon fill="#63b8ff" stroke="#63b8ff" points="1644.71,-72.03 1639.48,-73.65 1642.23,-71.73 1639.75,-71.42 1639.75,-71.42 1639.75,-71.42 1642.23,-71.73 1640.03,-69.19 1644.71,-72.03 1644.71,-72.03"/>
</a>
</g>
</g>
<!-- Node3 -->
<g id="Node000003" class="node">
<title>Node3</title>
<g id="a_Node000003"><a xlink:href="../../de/d08/classTabGame.html#a2b6beeea83d5e1e5b29712929e9eb08b" target="_top" xlink:title=" ">
<polygon fill="white" stroke="#666666" points="1068,-48.5 954,-48.5 954,-29.5 1068,-29.5 1068,-48.5"/>
<text text-anchor="middle" x="1011" y="-36.5" font-family="Helvetica,sans-Serif" font-size="10.00">TabGame::TabGame</text>
</a>
</g>
</g>
<!-- Node2&#45;&gt;Node3 -->
<g id="edge2_Node000002_Node000003" class="edge">
<title>Node2&#45;&gt;Node3</title>
<g id="a_edge2_Node000002_Node000003"><a xlink:title=" ">
<path fill="none" stroke="#63b8ff" d="M1128.9,-84.35C1120.47,-81.73 1111.98,-78.92 1104,-76 1087.56,-69.99 1084.2,-66.63 1068,-60 1058.39,-56.07 1047.74,-52 1038.34,-48.51"/>
<polygon fill="#63b8ff" stroke="#63b8ff" points="1134.13,-85.95 1128.69,-86.64 1131.74,-85.22 1129.35,-84.49 1129.35,-84.49 1129.35,-84.49 1131.74,-85.22 1130.01,-82.33 1134.13,-85.95 1134.13,-85.95"/>
</a>
</g>
</g>
<!-- Node4 -->
<g id="Node000004" class="node">
<title>Node4</title>
<g id="a_Node000004"><a xlink:href="../../de/d08/classTabGame.html#a0198c02f04e49adcbc708d2a0abfb80b" target="_top" xlink:title=" ">
<polygon fill="white" stroke="#666666" points="1068,-88.5 954,-88.5 954,-69.5 1068,-69.5 1068,-88.5"/>
<text text-anchor="middle" x="1011" y="-76.5" font-family="Helvetica,sans-Serif" font-size="10.00">TabGame::TabGame</text>
</a>
</g>
</g>
<!-- Node2&#45;&gt;Node4 -->
<g id="edge3_Node000002_Node000004" class="edge">
<title>Node2&#45;&gt;Node4</title>
<g id="a_edge3_Node000002_Node000004"><a xlink:title=" ">
<path fill="none" stroke="#63b8ff" d="M1098.77,-89.72C1088.4,-88.44 1078.07,-87.17 1068.34,-85.96"/>
<polygon fill="#63b8ff" stroke="#63b8ff" points="1103.87,-90.35 1098.63,-91.97 1101.39,-90.05 1098.91,-89.74 1098.91,-89.74 1098.91,-89.74 1101.39,-90.05 1099.18,-87.51 1103.87,-90.35 1103.87,-90.35"/>
</a>
</g>
</g>
<!-- Node5 -->
<g id="Node000005" class="node">
<title>Node5</title>
<g id="a_Node000005"><a xlink:href="../../de/d08/classTabGame.html#ad7e4437118782d8e2b678f5c3564b5ea" target="_top" xlink:title=" ">
<polygon fill="white" stroke="#666666" points="918,-88.5 786,-88.5 786,-69.5 918,-69.5 918,-88.5"/>
<text text-anchor="middle" x="852" y="-76.5" font-family="Helvetica,sans-Serif" font-size="10.00">TabGame::gameClosing</text>
</a>
</g>
</g>
<!-- Node4&#45;&gt;Node5 -->
<g id="edge4_Node000004_Node000005" class="edge">
<title>Node4&#45;&gt;Node5</title>
<g id="a_edge4_Node000004_Node000005"><a xlink:title=" ">
<path fill="none" stroke="#63b8ff" d="M948.59,-79C938.62,-79 928.26,-79 918.2,-79"/>
<polygon fill="#63b8ff" stroke="#63b8ff" points="953.76,-79 948.76,-81.25 951.26,-79 948.76,-79 948.76,-79 948.76,-79 951.26,-79 948.76,-76.75 953.76,-79 953.76,-79"/>
</a>
</g>
</g>
<!-- Node6 -->
<g id="Node000006" class="node">
<title>Node6</title>
<g id="a_Node000006"><a xlink:href="../../de/d08/classTabGame.html#a122426c1db587d20d7ace36e5c1c5997" target="_top" xlink:title=" ">
<polygon fill="white" stroke="#666666" points="736.5,-144.5 614.5,-144.5 614.5,-125.5 736.5,-125.5 736.5,-144.5"/>
<text text-anchor="middle" x="675.5" y="-132.5" font-family="Helvetica,sans-Serif" font-size="10.00">TabGame::closeEvent</text>
</a>
</g>
</g>
<!-- Node5&#45;&gt;Node6 -->
<g id="edge5_Node000005_Node000006" class="edge">
<title>Node5&#45;&gt;Node6</title>
<g id="a_edge5_Node000005_Node000006"><a xlink:title=" ">
<path fill="none" stroke="#63b8ff" d="M823.32,-90.44C803.2,-98.5 775.19,-109.21 750,-117 740.08,-120.07 729.29,-122.96 719.1,-125.48"/>
<polygon fill="#63b8ff" stroke="#63b8ff" points="828.01,-88.55 824.21,-92.51 825.69,-89.49 823.37,-90.42 823.37,-90.42 823.37,-90.42 825.69,-89.49 822.53,-88.33 828.01,-88.55 828.01,-88.55"/>
</a>
</g>
</g>
<!-- Node7 -->
<g id="Node000007" class="node">
<title>Node7</title>
<g id="a_Node000007"><a xlink:href="../../dd/d81/classTabSupervisor.html#a6396f49593a8033e85531a822d264622" target="_top" xlink:title=" ">
<polygon fill="white" stroke="#666666" points="554.5,-69.5 405.5,-69.5 405.5,-50.5 554.5,-50.5 554.5,-69.5"/>
<text text-anchor="middle" x="480" y="-57.5" font-family="Helvetica,sans-Serif" font-size="10.00">TabSupervisor::gameJoined</text>
</a>
</g>
</g>
<!-- Node5&#45;&gt;Node7 -->
<g id="edge6_Node000005_Node000007" class="edge">
<title>Node5&#45;&gt;Node7</title>
<g id="a_edge6_Node000005_Node000007"><a xlink:title=" ">
<path fill="none" stroke="#63b8ff" d="M780.71,-75.39C715.97,-72.07 620.27,-67.15 554.53,-63.78"/>
<polygon fill="#63b8ff" stroke="#63b8ff" points="785.7,-75.65 780.59,-77.64 783.21,-75.52 780.71,-75.39 780.71,-75.39 780.71,-75.39 783.21,-75.52 780.83,-73.14 785.7,-75.65 785.7,-75.65"/>
</a>
</g>
</g>
<!-- Node9 -->
<g id="Node000009" class="node">
<title>Node9</title>
<g id="a_Node000009"><a xlink:href="../../dd/d81/classTabSupervisor.html#ad7ae9e932602258473ab1afd8e4b88a6" target="_top" xlink:title=" ">
<polygon fill="white" stroke="#666666" points="747,-32 604,-32 604,-2 747,-2 747,-32"/>
<text text-anchor="start" x="612" y="-20" font-family="Helvetica,sans-Serif" font-size="10.00">TabSupervisor::localGame</text>
<text text-anchor="middle" x="675.5" y="-9" font-family="Helvetica,sans-Serif" font-size="10.00">Joined</text>
</a>
</g>
</g>
<!-- Node5&#45;&gt;Node9 -->
<g id="edge8_Node000005_Node000009" class="edge">
<title>Node5&#45;&gt;Node9</title>
<g id="a_edge8_Node000005_Node000009"><a xlink:title=" ">
<path fill="none" stroke="#63b8ff" d="M819.38,-67.77C791.29,-57.79 750.02,-43.12 719.04,-32.12"/>
<polygon fill="#63b8ff" stroke="#63b8ff" points="824.12,-69.45 818.65,-69.89 821.76,-68.61 819.41,-67.77 819.41,-67.77 819.41,-67.77 821.76,-68.61 820.16,-65.65 824.12,-69.45 824.12,-69.45"/>
</a>
</g>
</g>
<!-- Node11 -->
<g id="Node000011" class="node">
<title>Node11</title>
<g id="a_Node000011"><a xlink:href="../../dd/d81/classTabSupervisor.html#a94d81248b94e52661eb0f104a0366b8a" target="_top" xlink:title=" ">
<polygon fill="white" stroke="#666666" points="750,-107.5 601,-107.5 601,-88.5 750,-88.5 750,-107.5"/>
<text text-anchor="middle" x="675.5" y="-95.5" font-family="Helvetica,sans-Serif" font-size="10.00">TabSupervisor::openReplay</text>
</a>
</g>
</g>
<!-- Node5&#45;&gt;Node11 -->
<g id="edge10_Node000005_Node000011" class="edge">
<title>Node5&#45;&gt;Node11</title>
<g id="a_edge10_Node000005_Node000011"><a xlink:title=" ">
<path fill="none" stroke="#63b8ff" d="M780.37,-86.69C770.45,-87.77 760.23,-88.88 750.25,-89.97"/>
<polygon fill="#63b8ff" stroke="#63b8ff" points="785.53,-86.13 780.8,-88.91 783.04,-86.4 780.56,-86.67 780.56,-86.67 780.56,-86.67 783.04,-86.4 780.31,-84.43 785.53,-86.13 785.53,-86.13"/>
</a>
</g>
</g>
<!-- Node8 -->
<g id="Node000008" class="node">
<title>Node8</title>
<g id="a_Node000008"><a xlink:href="../../dd/d81/classTabSupervisor.html#a5e6baf23ec25ba9c7d95138c2b76b234" target="_top" xlink:title=" ">
<polygon fill="white" stroke="#666666" points="159,-106.5 0,-106.5 0,-87.5 159,-87.5 159,-106.5"/>
<text text-anchor="middle" x="79.5" y="-94.5" font-family="Helvetica,sans-Serif" font-size="10.00">TabSupervisor::TabSupervisor</text>
</a>
</g>
</g>
<!-- Node7&#45;&gt;Node8 -->
<g id="edge7_Node000007_Node000008" class="edge">
<title>Node7&#45;&gt;Node8</title>
<g id="a_edge7_Node000007_Node000008"><a xlink:title=" ">
<path fill="none" stroke="#63b8ff" d="M400.18,-63.39C343.09,-66.3 264.12,-71.27 195,-79 175.2,-81.21 153.59,-84.41 134.53,-87.49"/>
<polygon fill="#63b8ff" stroke="#63b8ff" points="405.29,-63.13 400.41,-65.63 402.79,-63.25 400.29,-63.38 400.29,-63.38 400.29,-63.38 402.79,-63.25 400.18,-61.13 405.29,-63.13 405.29,-63.13"/>
</a>
</g>
</g>
<!-- Node10 -->
<g id="Node000010" class="node">
<title>Node10</title>
<g id="a_Node000010"><a xlink:href="../../dd/d81/classTabSupervisor.html#a8074f0055d28b105a9cbebae8b1c7b25" target="_top" xlink:title=" ">
<polygon fill="white" stroke="#666666" points="549.5,-26.5 410.5,-26.5 410.5,-7.5 549.5,-7.5 549.5,-26.5"/>
<text text-anchor="middle" x="480" y="-14.5" font-family="Helvetica,sans-Serif" font-size="10.00">TabSupervisor::startLocal</text>
</a>
</g>
</g>
<!-- Node9&#45;&gt;Node10 -->
<g id="edge9_Node000009_Node000010" class="edge">
<title>Node9&#45;&gt;Node10</title>
<g id="a_edge9_Node000009_Node000010"><a xlink:title=" ">
<path fill="none" stroke="#63b8ff" d="M598.81,-17C582.57,-17 565.5,-17 549.55,-17"/>
<polygon fill="#63b8ff" stroke="#63b8ff" points="603.82,-17 598.82,-19.25 601.32,-17 598.82,-17 598.82,-17 598.82,-17 601.32,-17 598.82,-14.75 603.82,-17 603.82,-17"/>
</a>
</g>
</g>
<!-- Node12 -->
<g id="Node000012" class="node">
<title>Node12</title>
<g id="a_Node000012"><a xlink:href="../../dd/d81/classTabSupervisor.html#a61bbb0cc631dbf748b14d2a0f424e208" target="_top" xlink:title=" ">
<polygon fill="white" stroke="#666666" points="565,-107.5 395,-107.5 395,-88.5 565,-88.5 565,-107.5"/>
<text text-anchor="middle" x="480" y="-95.5" font-family="Helvetica,sans-Serif" font-size="10.00">TabSupervisor::openTabReplays</text>
</a>
</g>
</g>
<!-- Node11&#45;&gt;Node12 -->
<g id="edge11_Node000011_Node000012" class="edge">
<title>Node11&#45;&gt;Node12</title>
<g id="a_edge11_Node000011_Node000012"><a xlink:title=" ">
<path fill="none" stroke="#63b8ff" d="M595.58,-98C585.56,-98 575.28,-98 565.18,-98"/>
<polygon fill="#63b8ff" stroke="#63b8ff" points="600.79,-98 595.79,-100.25 598.29,-98 595.79,-98 595.79,-98 595.79,-98 598.29,-98 595.79,-95.75 600.79,-98 600.79,-98"/>
</a>
</g>
</g>
<!-- Node13 -->
<g id="Node000013" class="node">
<title>Node13</title>
<g id="a_Node000013"><a xlink:href="../../dd/d81/classTabSupervisor.html#a7f72ffb352830f222002f68faf8a7b23" target="_top" xlink:title=" ">
<polygon fill="white" stroke="#666666" points="357.5,-144.5 196.5,-144.5 196.5,-125.5 357.5,-125.5 357.5,-144.5"/>
<text text-anchor="middle" x="277" y="-132.5" font-family="Helvetica,sans-Serif" font-size="10.00">TabSupervisor::actTabReplays</text>
</a>
</g>
</g>
<!-- Node12&#45;&gt;Node13 -->
<g id="edge12_Node000012_Node000013" class="edge">
<title>Node12&#45;&gt;Node13</title>
<g id="a_edge12_Node000012_Node000013"><a xlink:title=" ">
<path fill="none" stroke="#63b8ff" d="M422.27,-108.44C393.27,-113.78 358.22,-120.23 329.94,-125.44"/>
<polygon fill="#63b8ff" stroke="#63b8ff" points="427.24,-107.53 422.73,-110.65 424.78,-107.98 422.32,-108.43 422.32,-108.43 422.32,-108.43 424.78,-107.98 421.91,-106.22 427.24,-107.53 427.24,-107.53"/>
</a>
</g>
</g>
<!-- Node14 -->
<g id="Node000014" class="node">
<title>Node14</title>
<g id="a_Node000014"><a xlink:href="../../dd/d81/classTabSupervisor.html#aee1c4492654fe6a12894135b5968b150" target="_top" xlink:title=" ">
<polygon fill="white" stroke="#666666" points="359,-107.5 195,-107.5 195,-88.5 359,-88.5 359,-107.5"/>
<text text-anchor="middle" x="277" y="-95.5" font-family="Helvetica,sans-Serif" font-size="10.00">TabSupervisor::initStartupTabs</text>
</a>
</g>
</g>
<!-- Node12&#45;&gt;Node14 -->
<g id="edge14_Node000012_Node000014" class="edge">
<title>Node12&#45;&gt;Node14</title>
<g id="a_edge14_Node000012_Node000014"><a xlink:title=" ">
<path fill="none" stroke="#63b8ff" d="M389.91,-98C379.68,-98 369.29,-98 359.17,-98"/>
<polygon fill="#63b8ff" stroke="#63b8ff" points="394.92,-98 389.92,-100.25 392.42,-98 389.92,-98 389.92,-98 389.92,-98 392.42,-98 389.92,-95.75 394.92,-98 394.92,-98"/>
</a>
</g>
</g>
<!-- Node13&#45;&gt;Node8 -->
<g id="edge13_Node000013_Node000008" class="edge">
<title>Node13&#45;&gt;Node8</title>
<g id="a_edge13_Node000013_Node000008"><a xlink:title=" ">
<path fill="none" stroke="#63b8ff" d="M221.97,-124.5C193.06,-118.88 157.72,-112.01 129.6,-106.54"/>
<polygon fill="#63b8ff" stroke="#63b8ff" points="226.92,-125.46 221.58,-126.71 224.47,-124.98 222.01,-124.51 222.01,-124.51 222.01,-124.51 224.47,-124.98 222.44,-122.3 226.92,-125.46 226.92,-125.46"/>
</a>
</g>
</g>
<!-- Node16 -->
<g id="Node000016" class="node">
<title>Node16</title>
<g id="a_Node000016"><a xlink:href="../../de/d08/classTabGame.html#a9335879003aa0eddfcc51771d8a8fa2e" target="_top" xlink:title=" ">
<polygon fill="white" stroke="#666666" points="1448,-67.5 1314,-67.5 1314,-48.5 1448,-48.5 1448,-67.5"/>
<text text-anchor="middle" x="1381" y="-55.5" font-family="Helvetica,sans-Serif" font-size="10.00">TabGame::closeRequest</text>
</a>
</g>
</g>
<!-- Node15&#45;&gt;Node16 -->
<g id="edge16_Node000015_Node000016" class="edge">
<title>Node15&#45;&gt;Node16</title>
<g id="a_edge16_Node000015_Node000016"><a xlink:title=" ">
<path fill="none" stroke="#63b8ff" d="M1478.5,-59.18C1468.52,-59.06 1458.23,-58.93 1448.27,-58.81"/>
<polygon fill="#63b8ff" stroke="#63b8ff" points="1483.69,-59.24 1478.66,-61.43 1481.19,-59.21 1478.69,-59.18 1478.69,-59.18 1478.69,-59.18 1481.19,-59.21 1478.72,-56.93 1483.69,-59.24 1483.69,-59.24"/>
</a>
</g>
</g>
<!-- Node17 -->
<g id="Node000017" class="node">
<title>Node17</title>
<g id="a_Node000017"><a xlink:href="../../de/d08/classTabGame.html#af5115487ce05482e74edc99f15232437" target="_top" xlink:title=" ">
<polygon fill="white" stroke="#666666" points="1268,-67.5 1114,-67.5 1114,-48.5 1268,-48.5 1268,-67.5"/>
<text text-anchor="middle" x="1191" y="-55.5" font-family="Helvetica,sans-Serif" font-size="10.00">TabGame::createMenuItems</text>
</a>
</g>
</g>
<!-- Node16&#45;&gt;Node17 -->
<g id="edge17_Node000016_Node000017" class="edge">
<title>Node16&#45;&gt;Node17</title>
<g id="a_edge17_Node000016_Node000017"><a xlink:title=" ">
<path fill="none" stroke="#63b8ff" d="M1308.74,-58C1295.47,-58 1281.56,-58 1268.15,-58"/>
<polygon fill="#63b8ff" stroke="#63b8ff" points="1313.98,-58 1308.98,-60.25 1311.48,-58 1308.98,-58 1308.98,-58 1308.98,-58 1311.48,-58 1308.98,-55.75 1313.98,-58 1313.98,-58"/>
</a>
</g>
</g>
<!-- Node18 -->
<g id="Node000018" class="node">
<title>Node18</title>
<g id="a_Node000018"><a xlink:href="../../de/d08/classTabGame.html#a583d548afddbfbe67035edb0d85d8c4a" target="_top" xlink:title=" ">
<polygon fill="white" stroke="#666666" points="1271,-30 1111,-30 1111,0 1271,0 1271,-30"/>
<text text-anchor="start" x="1119" y="-18" font-family="Helvetica,sans-Serif" font-size="10.00">TabGame::createReplayMenu</text>
<text text-anchor="middle" x="1191" y="-7" font-family="Helvetica,sans-Serif" font-size="10.00">Items</text>
</a>
</g>
</g>
<!-- Node16&#45;&gt;Node18 -->
<g id="edge19_Node000016_Node000018" class="edge">
<title>Node16&#45;&gt;Node18</title>
<g id="a_edge19_Node000016_Node000018"><a xlink:title=" ">
<path fill="none" stroke="#63b8ff" d="M1333.19,-47.29C1310.36,-42.07 1282.52,-35.7 1257.61,-30.01"/>
<polygon fill="#63b8ff" stroke="#63b8ff" points="1338.28,-48.46 1332.9,-49.54 1335.84,-47.9 1333.4,-47.34 1333.4,-47.34 1333.4,-47.34 1335.84,-47.9 1333.9,-45.15 1338.28,-48.46 1338.28,-48.46"/>
</a>
</g>
</g>
<!-- Node17&#45;&gt;Node4 -->
<g id="edge18_Node000017_Node000004" class="edge">
<title>Node17&#45;&gt;Node4</title>
<g id="a_edge18_Node000017_Node000004"><a xlink:title=" ">
<path fill="none" stroke="#63b8ff" d="M1108.93,-67.56C1095.12,-69.19 1081.07,-70.85 1068.1,-72.38"/>
<polygon fill="#63b8ff" stroke="#63b8ff" points="1114,-66.97 1109.29,-69.79 1111.51,-67.26 1109.03,-67.55 1109.03,-67.55 1109.03,-67.55 1111.51,-67.26 1108.77,-65.32 1114,-66.97 1114,-66.97"/>
</a>
</g>
</g>
<!-- Node18&#45;&gt;Node3 -->
<g id="edge20_Node000018_Node000003" class="edge">
<title>Node18&#45;&gt;Node3</title>
<g id="a_edge20_Node000018_Node000003"><a xlink:title=" ">
<path fill="none" stroke="#63b8ff" d="M1105.82,-26.35C1093.06,-28.07 1080.17,-29.81 1068.2,-31.42"/>
<polygon fill="#63b8ff" stroke="#63b8ff" points="1110.89,-25.67 1106.24,-28.56 1108.41,-26 1105.93,-26.33 1105.93,-26.33 1105.93,-26.33 1108.41,-26 1105.63,-24.1 1110.89,-25.67 1110.89,-25.67"/>
</a>
</g>
</g>
</g>
</svg>

<g id="navigator" transform="translate(0 0)" fill="#404254">
  <rect fill="#f2f5e9" fill-opacity="0.5" stroke="#606060" stroke-width=".5" x="0" y="0" width="60" height="60"/>
  <use id="zoomplus" xlink:href="#zoomPlus" x="17" y="9" onmousedown="handleZoom(evt,'in')"/>
  <use id="zoomminus" xlink:href="#zoomMin" x="42" y="9" onmousedown="handleZoom(evt,'out')"/>
  <use id="reset" xlink:href="#resetDef" x="30" y="36" onmousedown="handleReset()"/>
   <use id="arrowup" xlink:href="#arrowUp" x="0" y="0" onmousedown="handlePan(0,-1)"/>
  <use id="arrowright" xlink:href="#arrowRight" x="0" y="0" onmousedown="handlePan(1,0)"/>
  <use id="arrowdown" xlink:href="#arrowDown" x="0" y="0" onmousedown="handlePan(0,1)"/>
  <use id="arrowleft" xlink:href="#arrowLeft" x="0" y="0" onmousedown="handlePan(-1,0)"/>
</g>
<svg viewBox="0 0 15 15" width="100%" height="30px" preserveAspectRatio="xMaxYMin meet">
 <g id="arrow_out" transform="scale(0.3 0.3)">
  <a xlink:href="classTabGame_a09dd180b5197c356c1ca6402dc12bfb4_icgraph_org.svg" target="_base">
   <rect id="button" ry="5" rx="5" y="6" x="6" height="38" width="38"
        fill="#f2f5e9" fill-opacity="0.5" stroke="#606060" stroke-width="1.0"/>
   <path id="arrow"
     d="M 11.500037,31.436501 C 11.940474,20.09759 22.043105,11.32322 32.158766,21.979434 L 37.068811,17.246167 C 37.068811,17.246167 37.088388,32 37.088388,32 L 22.160133,31.978069 C 22.160133,31.978069 26.997745,27.140456 26.997745,27.140456 C 18.528582,18.264221 13.291696,25.230495 11.500037,31.436501 z"
     style="fill:#404040;"/>
  </a>
 </g>
</svg>

<style type='text/css'>
<![CDATA[
[data-mouse-over-selected='false'] { opacity: 0.7; }
[data-mouse-over-selected='true']  { opacity: 1.0; }
]]>
</style>
<script type="application/ecmascript"><![CDATA[
document.addEventListener('DOMContentLoaded', (event) => {
  highlightEdges();
  highlightAdjacentNodes();
});
]]></script>
</svg>
