<?xml version="1.0" encoding="UTF-8" standalone="no"?>
<!DOCTYPE svg PUBLIC "-//W3C//DTD SVG 1.1//EN"
 "http://www.w3.org/Graphics/SVG/1.1/DTD/svg11.dtd">
<!-- Generated by graphviz version 2.43.0 (0)
 -->
<!-- Title: TabGame::actSay Pages: 1 -->
<svg width="462pt" height="64pt"
 viewBox="0.00 0.00 462.00 64.00" xmlns="http://www.w3.org/2000/svg" xmlns:xlink="http://www.w3.org/1999/xlink">
<g id="graph0" class="graph" transform="scale(1 1) rotate(0) translate(4 60)">
<title>TabGame::actSay</title>
<!-- Node1 -->
<g id="Node000001" class="node">
<title>Node1</title>
<g id="a_Node000001"><a xlink:title=" ">
<polygon fill="#999999" stroke="#666666" points="454,-37 353,-37 353,-18 454,-18 454,-37"/>
<text text-anchor="middle" x="403.5" y="-25" font-family="Helvetica,sans-Serif" font-size="10.00">TabGame::actSay</text>
</a>
</g>
</g>
<!-- Node2 -->
<g id="Node000002" class="node">
<title>Node2</title>
<g id="a_Node000002"><a xlink:href="../../de/d08/classTabGame.html#ac76bfb14375c313bf24446d7d3d15670" target="_top" xlink:title=" ">
<polygon fill="white" stroke="#666666" points="317,-37 150,-37 150,-18 317,-18 317,-37"/>
<text text-anchor="middle" x="233.5" y="-25" font-family="Helvetica,sans-Serif" font-size="10.00">TabGame::createMessageDock</text>
</a>
</g>
</g>
<!-- Node1&#45;&gt;Node2 -->
<g id="edge1_Node000001_Node000002" class="edge">
<title>Node1&#45;&gt;Node2</title>
<g id="a_edge1_Node000001_Node000002"><a xlink:title=" ">
<path fill="none" stroke="#63b8ff" d="M347.54,-27.5C337.84,-27.5 327.56,-27.5 317.3,-27.5"/>
<polygon fill="#63b8ff" stroke="#63b8ff" points="352.55,-27.5 347.55,-29.75 350.05,-27.5 347.55,-27.5 347.55,-27.5 347.55,-27.5 350.05,-27.5 347.55,-25.25 352.55,-27.5 352.55,-27.5"/>
</a>
</g>
</g>
<!-- Node3 -->
<g id="Node000003" class="node">
<title>Node3</title>
<g id="a_Node000003"><a xlink:href="../../de/d08/classTabGame.html#a2b6beeea83d5e1e5b29712929e9eb08b" target="_top" xlink:title=" ">
<polygon fill="white" stroke="#666666" points="114,-56 0,-56 0,-37 114,-37 114,-56"/>
<text text-anchor="middle" x="57" y="-44" font-family="Helvetica,sans-Serif" font-size="10.00">TabGame::TabGame</text>
</a>
</g>
</g>
<!-- Node2&#45;&gt;Node3 -->
<g id="edge2_Node000002_Node000003" class="edge">
<title>Node2&#45;&gt;Node3</title>
<g id="a_edge2_Node000002_Node000003"><a xlink:title=" ">
<path fill="none" stroke="#63b8ff" d="M144.79,-37.05C134.48,-38.17 124.18,-39.29 114.47,-40.35"/>
<polygon fill="#63b8ff" stroke="#63b8ff" points="149.85,-36.5 145.12,-39.28 147.36,-36.77 144.88,-37.04 144.88,-37.04 144.88,-37.04 147.36,-36.77 144.63,-34.8 149.85,-36.5 149.85,-36.5"/>
</a>
</g>
</g>
<!-- Node4 -->
<g id="Node000004" class="node">
<title>Node4</title>
<g id="a_Node000004"><a xlink:href="../../de/d08/classTabGame.html#a0198c02f04e49adcbc708d2a0abfb80b" target="_top" xlink:title=" ">
<polygon fill="white" stroke="#666666" points="114,-19 0,-19 0,0 114,0 114,-19"/>
<text text-anchor="middle" x="57" y="-7" font-family="Helvetica,sans-Serif" font-size="10.00">TabGame::TabGame</text>
</a>
</g>
</g>
<!-- Node2&#45;&gt;Node4 -->
<g id="edge3_Node000002_Node000004" class="edge">
<title>Node2&#45;&gt;Node4</title>
<g id="a_edge3_Node000002_Node000004"><a xlink:title=" ">
<path fill="none" stroke="#63b8ff" d="M144.79,-18.45C134.48,-17.39 124.18,-16.33 114.47,-15.32"/>
<polygon fill="#63b8ff" stroke="#63b8ff" points="149.85,-18.97 144.64,-20.7 147.36,-18.72 144.88,-18.46 144.88,-18.46 144.88,-18.46 147.36,-18.72 145.11,-16.22 149.85,-18.97 149.85,-18.97"/>
</a>
</g>
</g>
</g>
</svg>
