<?xml version="1.0" encoding="UTF-8" standalone="no"?>
<!DOCTYPE svg PUBLIC "-//W3C//DTD SVG 1.1//EN"
 "http://www.w3.org/Graphics/SVG/1.1/DTD/svg11.dtd">
<!-- Generated by graphviz version 2.43.0 (0)
 -->
<!-- Title: PictureLoader::imageLoaded Pages: 1 -->
<svg width="533pt" height="212pt"
 viewBox="0.00 0.00 533.00 212.00" xmlns="http://www.w3.org/2000/svg" xmlns:xlink="http://www.w3.org/1999/xlink">
<g id="graph0" class="graph" transform="scale(1 1) rotate(0) translate(4 208)">
<title>PictureLoader::imageLoaded</title>
<!-- Node1 -->
<g id="Node000001" class="node">
<title>Node1</title>
<g id="a_Node000001"><a xlink:title=" ">
<polygon fill="#999999" stroke="#666666" points="155,-111 0,-111 0,-92 155,-92 155,-111"/>
<text text-anchor="middle" x="77.5" y="-99" font-family="Helvetica,sans-Serif" font-size="10.00">PictureLoader::imageLoaded</text>
</a>
</g>
</g>
<!-- Node2 -->
<g id="Node000002" class="node">
<title>Node2</title>
<g id="a_Node000002"><a xlink:href="../../df/d4e/classExactCard.html#adea1e8252a95ccfbd7554fecdb040a24" target="_top" xlink:title=" ">
<polygon fill="white" stroke="#666666" points="364,-204 191,-204 191,-185 364,-185 364,-204"/>
<text text-anchor="middle" x="277.5" y="-192" font-family="Helvetica,sans-Serif" font-size="10.00">ExactCard::emitPixmapUpdated</text>
</a>
</g>
</g>
<!-- Node1&#45;&gt;Node2 -->
<g id="edge1_Node000001_Node000002" class="edge">
<title>Node1&#45;&gt;Node2</title>
<g id="a_edge1_Node000001_Node000002"><a xlink:title=" ">
<path fill="none" stroke="#63b8ff" d="M89.79,-111.2C109.16,-127.32 150.53,-159.5 191,-176.5 197.59,-179.27 204.65,-181.63 211.79,-183.64"/>
<polygon fill="#63b8ff" stroke="#63b8ff" points="216.73,-184.97 211.32,-185.84 214.32,-184.32 211.91,-183.67 211.91,-183.67 211.91,-183.67 214.32,-184.32 212.49,-181.49 216.73,-184.97 216.73,-184.97"/>
</a>
</g>
</g>
<!-- Node3 -->
<g id="Node000003" class="node">
<title>Node3</title>
<g id="a_Node000003"><a xlink:href="../../df/d4e/classExactCard.html#a3f86411b4e295afbb68e3fde952d69f9" target="_top" xlink:title=" ">
<polygon fill="white" stroke="#666666" points="339.5,-167 215.5,-167 215.5,-148 339.5,-148 339.5,-167"/>
<text text-anchor="middle" x="277.5" y="-155" font-family="Helvetica,sans-Serif" font-size="10.00">ExactCard::getCardPtr</text>
</a>
</g>
</g>
<!-- Node1&#45;&gt;Node3 -->
<g id="edge2_Node000001_Node000003" class="edge">
<title>Node1&#45;&gt;Node3</title>
<g id="a_edge2_Node000001_Node000003"><a xlink:title=" ">
<path fill="none" stroke="#63b8ff" d="M104.15,-111.13C126.78,-119.4 160.77,-131.24 191,-139.5 200.68,-142.14 211.07,-144.62 221.16,-146.85"/>
<polygon fill="#63b8ff" stroke="#63b8ff" points="226.08,-147.92 220.71,-149.05 223.64,-147.39 221.19,-146.86 221.19,-146.86 221.19,-146.86 223.64,-147.39 221.67,-144.66 226.08,-147.92 226.08,-147.92"/>
</a>
</g>
</g>
<!-- Node4 -->
<g id="Node000004" class="node">
<title>Node4</title>
<g id="a_Node000004"><a xlink:href="../../df/d4e/classExactCard.html#a1eff501b66e24df71dc94193122e08f0" target="_top" xlink:title=" ">
<polygon fill="white" stroke="#666666" points="331,-130 224,-130 224,-111 331,-111 331,-130"/>
<text text-anchor="middle" x="277.5" y="-118" font-family="Helvetica,sans-Serif" font-size="10.00">ExactCard::getInfo</text>
</a>
</g>
</g>
<!-- Node1&#45;&gt;Node4 -->
<g id="edge3_Node000001_Node000004" class="edge">
<title>Node1&#45;&gt;Node4</title>
<g id="a_edge3_Node000001_Node000004"><a xlink:title=" ">
<path fill="none" stroke="#63b8ff" d="M155.05,-108.85C176.22,-110.88 198.83,-113.05 218.74,-114.96"/>
<polygon fill="#63b8ff" stroke="#63b8ff" points="223.74,-115.44 218.55,-117.2 221.25,-115.2 218.76,-114.96 218.76,-114.96 218.76,-114.96 221.25,-115.2 218.98,-112.72 223.74,-115.44 223.74,-115.44"/>
</a>
</g>
</g>
<!-- Node6 -->
<g id="Node000006" class="node">
<title>Node6</title>
<g id="a_Node000006"><a xlink:href="../../df/d4e/classExactCard.html#a46260730a07104ed743aca230e2e5e8f" target="_top" xlink:title=" ">
<polygon fill="white" stroke="#666666" points="336,-93 219,-93 219,-74 336,-74 336,-93"/>
<text text-anchor="middle" x="277.5" y="-81" font-family="Helvetica,sans-Serif" font-size="10.00">ExactCard::getName</text>
</a>
</g>
</g>
<!-- Node1&#45;&gt;Node6 -->
<g id="edge6_Node000001_Node000006" class="edge">
<title>Node1&#45;&gt;Node6</title>
<g id="a_edge6_Node000001_Node000006"><a xlink:title=" ">
<path fill="none" stroke="#63b8ff" d="M155.05,-94.54C174.45,-92.78 195.06,-90.9 213.69,-89.21"/>
<polygon fill="#63b8ff" stroke="#63b8ff" points="218.89,-88.74 214.11,-91.43 216.4,-88.96 213.91,-89.19 213.91,-89.19 213.91,-89.19 216.4,-88.96 213.7,-86.95 218.89,-88.74 218.89,-88.74"/>
</a>
</g>
</g>
<!-- Node7 -->
<g id="Node000007" class="node">
<title>Node7</title>
<g id="a_Node000007"><a xlink:href="../../df/d4e/classExactCard.html#a1ed6121dc01e43a0d7004ef568e07a42" target="_top" xlink:title=" ">
<polygon fill="white" stroke="#666666" points="364,-56 191,-56 191,-37 364,-37 364,-56"/>
<text text-anchor="middle" x="277.5" y="-44" font-family="Helvetica,sans-Serif" font-size="10.00">ExactCard::getPixmapCacheKey</text>
</a>
</g>
</g>
<!-- Node1&#45;&gt;Node7 -->
<g id="edge7_Node000001_Node000007" class="edge">
<title>Node1&#45;&gt;Node7</title>
<g id="a_edge7_Node000001_Node000007"><a xlink:title=" ">
<path fill="none" stroke="#63b8ff" d="M106.03,-91.92C128.68,-84.22 161.7,-73.43 191,-65.5 201.82,-62.57 213.5,-59.76 224.64,-57.23"/>
<polygon fill="#63b8ff" stroke="#63b8ff" points="229.72,-56.09 225.33,-59.38 227.28,-56.64 224.84,-57.18 224.84,-57.18 224.84,-57.18 227.28,-56.64 224.35,-54.99 229.72,-56.09 229.72,-56.09"/>
</a>
</g>
</g>
<!-- Node9 -->
<g id="Node000009" class="node">
<title>Node9</title>
<g id="a_Node000009"><a xlink:href="../../dd/dd2/classCardInfo.html#a310720e794a46c227f8b00bd657e237c" target="_top" xlink:title=" ">
<polygon fill="white" stroke="#666666" points="355,-19 200,-19 200,0 355,0 355,-19"/>
<text text-anchor="middle" x="277.5" y="-7" font-family="Helvetica,sans-Serif" font-size="10.00">CardInfo::getUpsideDownArt</text>
</a>
</g>
</g>
<!-- Node1&#45;&gt;Node9 -->
<g id="edge9_Node000001_Node000009" class="edge">
<title>Node1&#45;&gt;Node9</title>
<g id="a_edge9_Node000001_Node000009"><a xlink:title=" ">
<path fill="none" stroke="#63b8ff" d="M90.18,-91.87C109.77,-76.2 151.06,-45.25 191,-28.5 198.55,-25.33 206.7,-22.66 214.87,-20.41"/>
<polygon fill="#63b8ff" stroke="#63b8ff" points="219.96,-19.06 215.7,-22.52 217.54,-19.7 215.12,-20.34 215.12,-20.34 215.12,-20.34 217.54,-19.7 214.55,-18.17 219.96,-19.06 219.96,-19.06"/>
</a>
</g>
</g>
<!-- Node5 -->
<g id="Node000005" class="node">
<title>Node5</title>
<g id="a_Node000005"><a xlink:href="../../dd/dd2/classCardInfo.html#a8ea0b0d5a1ed44c1ce62f59e31375771" target="_top" xlink:title=" ">
<polygon fill="white" stroke="#666666" points="525,-130 400,-130 400,-111 525,-111 525,-130"/>
<text text-anchor="middle" x="462.5" y="-118" font-family="Helvetica,sans-Serif" font-size="10.00">CardInfo::newInstance</text>
</a>
</g>
</g>
<!-- Node4&#45;&gt;Node5 -->
<g id="edge4_Node000004_Node000005" class="edge">
<title>Node4&#45;&gt;Node5</title>
<g id="a_edge4_Node000004_Node000005"><a xlink:title=" ">
<path fill="none" stroke="#63b8ff" d="M331.43,-120.5C351.19,-120.5 373.88,-120.5 394.72,-120.5"/>
<polygon fill="#63b8ff" stroke="#63b8ff" points="399.97,-120.5 394.97,-122.75 397.47,-120.5 394.97,-120.5 394.97,-120.5 394.97,-120.5 397.47,-120.5 394.97,-118.25 399.97,-120.5 399.97,-120.5"/>
</a>
</g>
</g>
<!-- Node5&#45;&gt;Node5 -->
<g id="edge5_Node000005_Node000005" class="edge">
<title>Node5&#45;&gt;Node5</title>
<g id="a_edge5_Node000005_Node000005"><a xlink:title=" ">
<path fill="none" stroke="#63b8ff" d="M434.14,-130.08C420.34,-138.73 429.8,-148 462.5,-148 491.12,-148 501.93,-140.91 494.94,-133.34"/>
<polygon fill="#63b8ff" stroke="#63b8ff" points="490.86,-130.08 496.17,-131.44 492.82,-131.64 494.77,-133.2 494.77,-133.2 494.77,-133.2 492.82,-131.64 493.37,-134.96 490.86,-130.08 490.86,-130.08"/>
</a>
</g>
</g>
<!-- Node8 -->
<g id="Node000008" class="node">
<title>Node8</title>
<g id="a_Node000008"><a xlink:href="../../d6/d90/classPrintingInfo.html#adadad57308ef600c0b9f80591c244591" target="_top" xlink:title=" ">
<polygon fill="white" stroke="#666666" points="521,-56 404,-56 404,-37 521,-37 521,-56"/>
<text text-anchor="middle" x="462.5" y="-44" font-family="Helvetica,sans-Serif" font-size="10.00">PrintingInfo::getUuid</text>
</a>
</g>
</g>
<!-- Node7&#45;&gt;Node8 -->
<g id="edge8_Node000007_Node000008" class="edge">
<title>Node7&#45;&gt;Node8</title>
<g id="a_edge8_Node000007_Node000008"><a xlink:title=" ">
<path fill="none" stroke="#63b8ff" d="M364.11,-46.5C375.8,-46.5 387.63,-46.5 398.81,-46.5"/>
<polygon fill="#63b8ff" stroke="#63b8ff" points="403.91,-46.5 398.91,-48.75 401.41,-46.5 398.91,-46.5 398.91,-46.5 398.91,-46.5 401.41,-46.5 398.91,-44.25 403.91,-46.5 403.91,-46.5"/>
</a>
</g>
</g>
</g>
</svg>
