<?xml version="1.0" encoding="UTF-8" standalone="no"?>
<!DOCTYPE svg PUBLIC "-//W3C//DTD SVG 1.1//EN"
 "http://www.w3.org/Graphics/SVG/1.1/DTD/svg11.dtd">
<!-- Generated by graphviz version 2.43.0 (0)
 -->
<!-- Title: Player::newCardAdded Pages: 1 -->
<svg width="622pt" height="88pt"
 viewBox="0.00 0.00 622.00 88.00" xmlns="http://www.w3.org/2000/svg" xmlns:xlink="http://www.w3.org/1999/xlink">
<g id="graph0" class="graph" transform="scale(1 1) rotate(0) translate(4 84)">
<title>Player::newCardAdded</title>
<!-- Node1 -->
<g id="Node000001" class="node">
<title>Node1</title>
<g id="a_Node000001"><a xlink:title=" ">
<polygon fill="#999999" stroke="#666666" points="614,-58 487,-58 487,-39 614,-39 614,-58"/>
<text text-anchor="middle" x="550.5" y="-46" font-family="Helvetica,sans-Serif" font-size="10.00">Player::newCardAdded</text>
</a>
</g>
</g>
<!-- Node2 -->
<g id="Node000002" class="node">
<title>Node2</title>
<g id="a_Node000002"><a xlink:href="../../d2/d4b/classPlayer.html#a04290f06260f17fb39b2db54b05af5c0" target="_top" xlink:title=" ">
<polygon fill="white" stroke="#666666" points="439.5,-78 345.5,-78 345.5,-59 439.5,-59 439.5,-78"/>
<text text-anchor="middle" x="392.5" y="-66" font-family="Helvetica,sans-Serif" font-size="10.00">Player::addCard</text>
</a>
</g>
</g>
<!-- Node1&#45;&gt;Node2 -->
<g id="edge1_Node000001_Node000002" class="edge">
<title>Node1&#45;&gt;Node2</title>
<g id="a_edge1_Node000001_Node000002"><a xlink:title=" ">
<path fill="none" stroke="#63b8ff" d="M481.75,-57.19C467.56,-59 452.92,-60.88 439.73,-62.57"/>
<polygon fill="#63b8ff" stroke="#63b8ff" points="486.95,-56.52 482.27,-59.39 484.47,-56.84 481.99,-57.16 481.99,-57.16 481.99,-57.16 484.47,-56.84 481.7,-54.92 486.95,-56.52 486.95,-56.52"/>
</a>
</g>
</g>
<!-- Node4 -->
<g id="Node000004" class="node">
<title>Node4</title>
<g id="a_Node000004"><a xlink:href="../../de/d08/classTabGame.html#a08c4ed46c64e3a0fd3be23274c18d55e" target="_top" xlink:title=" ">
<polygon fill="white" stroke="#666666" points="451,-40 334,-40 334,-21 451,-21 451,-40"/>
<text text-anchor="middle" x="392.5" y="-28" font-family="Helvetica,sans-Serif" font-size="10.00">TabGame::addPlayer</text>
</a>
</g>
</g>
<!-- Node1&#45;&gt;Node4 -->
<g id="edge3_Node000001_Node000004" class="edge">
<title>Node1&#45;&gt;Node4</title>
<g id="a_edge3_Node000001_Node000004"><a xlink:title=" ">
<path fill="none" stroke="#63b8ff" d="M481.91,-40.7C471.62,-39.51 461.07,-38.3 451.01,-37.14"/>
<polygon fill="#63b8ff" stroke="#63b8ff" points="486.95,-41.28 481.72,-42.94 484.46,-41 481.98,-40.71 481.98,-40.71 481.98,-40.71 484.46,-41 482.24,-38.47 486.95,-41.28 486.95,-41.28"/>
</a>
</g>
</g>
<!-- Node3 -->
<g id="Node000003" class="node">
<title>Node3</title>
<g id="a_Node000003"><a xlink:href="../../d6/dbd/classCardItem.html#ae13c2b8073c2d43190e08004d73fd8fa" target="_top" xlink:title=" ">
<polygon fill="white" stroke="#666666" points="280.5,-80 167.5,-80 167.5,-61 280.5,-61 280.5,-80"/>
<text text-anchor="middle" x="224" y="-68" font-family="Helvetica,sans-Serif" font-size="10.00">CardItem::CardItem</text>
</a>
</g>
</g>
<!-- Node2&#45;&gt;Node3 -->
<g id="edge2_Node000002_Node000003" class="edge">
<title>Node2&#45;&gt;Node3</title>
<g id="a_edge2_Node000002_Node000003"><a xlink:title=" ">
<path fill="none" stroke="#63b8ff" d="M339.89,-69.12C321.07,-69.35 299.73,-69.6 280.59,-69.83"/>
<polygon fill="#63b8ff" stroke="#63b8ff" points="345.12,-69.06 340.15,-71.37 342.62,-69.09 340.12,-69.12 340.12,-69.12 340.12,-69.12 342.62,-69.09 340.09,-66.87 345.12,-69.06 345.12,-69.06"/>
</a>
</g>
</g>
<!-- Node5 -->
<g id="Node000005" class="node">
<title>Node5</title>
<g id="a_Node000005"><a xlink:href="../../de/d08/classTabGame.html#ab7f63134f141f73682faf33d3c501757" target="_top" xlink:title=" ">
<polygon fill="white" stroke="#666666" points="298,-42.5 150,-42.5 150,-12.5 298,-12.5 298,-42.5"/>
<text text-anchor="start" x="158" y="-30.5" font-family="Helvetica,sans-Serif" font-size="10.00">TabGame::connectToPlayer</text>
<text text-anchor="middle" x="224" y="-19.5" font-family="Helvetica,sans-Serif" font-size="10.00">Manager</text>
</a>
</g>
</g>
<!-- Node4&#45;&gt;Node5 -->
<g id="edge4_Node000004_Node000005" class="edge">
<title>Node4&#45;&gt;Node5</title>
<g id="a_edge4_Node000004_Node000005"><a xlink:title=" ">
<path fill="none" stroke="#63b8ff" d="M328.59,-29.37C318.67,-29.19 308.34,-29 298.21,-28.82"/>
<polygon fill="#63b8ff" stroke="#63b8ff" points="333.73,-29.46 328.69,-31.62 331.23,-29.41 328.73,-29.37 328.73,-29.37 328.73,-29.37 331.23,-29.41 328.78,-27.12 333.73,-29.46 333.73,-29.46"/>
</a>
</g>
</g>
<!-- Node6 -->
<g id="Node000006" class="node">
<title>Node6</title>
<g id="a_Node000006"><a xlink:href="../../de/d08/classTabGame.html#a2b6beeea83d5e1e5b29712929e9eb08b" target="_top" xlink:title=" ">
<polygon fill="white" stroke="#666666" points="114,-56 0,-56 0,-37 114,-37 114,-56"/>
<text text-anchor="middle" x="57" y="-44" font-family="Helvetica,sans-Serif" font-size="10.00">TabGame::TabGame</text>
</a>
</g>
</g>
<!-- Node5&#45;&gt;Node6 -->
<g id="edge5_Node000005_Node000006" class="edge">
<title>Node5&#45;&gt;Node6</title>
<g id="a_edge5_Node000005_Node000006"><a xlink:title=" ">
<path fill="none" stroke="#63b8ff" d="M144.64,-36.52C134.39,-37.7 124.05,-38.89 114.27,-40.02"/>
<polygon fill="#63b8ff" stroke="#63b8ff" points="149.67,-35.94 144.96,-38.75 147.18,-36.23 144.7,-36.52 144.7,-36.52 144.7,-36.52 147.18,-36.23 144.44,-34.28 149.67,-35.94 149.67,-35.94"/>
</a>
</g>
</g>
<!-- Node7 -->
<g id="Node000007" class="node">
<title>Node7</title>
<g id="a_Node000007"><a xlink:href="../../de/d08/classTabGame.html#a0198c02f04e49adcbc708d2a0abfb80b" target="_top" xlink:title=" ">
<polygon fill="white" stroke="#666666" points="114,-19 0,-19 0,0 114,0 114,-19"/>
<text text-anchor="middle" x="57" y="-7" font-family="Helvetica,sans-Serif" font-size="10.00">TabGame::TabGame</text>
</a>
</g>
</g>
<!-- Node5&#45;&gt;Node7 -->
<g id="edge6_Node000005_Node000007" class="edge">
<title>Node5&#45;&gt;Node7</title>
<g id="a_edge6_Node000005_Node000007"><a xlink:title=" ">
<path fill="none" stroke="#63b8ff" d="M144.64,-18.95C134.39,-17.83 124.05,-16.71 114.27,-15.64"/>
<polygon fill="#63b8ff" stroke="#63b8ff" points="149.67,-19.5 144.45,-21.19 147.18,-19.23 144.7,-18.96 144.7,-18.96 144.7,-18.96 147.18,-19.23 144.94,-16.72 149.67,-19.5 149.67,-19.5"/>
</a>
</g>
</g>
</g>
</svg>
