<?xml version="1.0" encoding="UTF-8" standalone="no"?>
<!DOCTYPE svg PUBLIC "-//W3C//DTD SVG 1.1//EN"
 "http://www.w3.org/Graphics/SVG/1.1/DTD/svg11.dtd">
<!-- Generated by graphviz version 2.43.0 (0)
 -->
<!-- Title: Player::deleteCard Pages: 1 -->
<!--zoomable 213 -->

<svg id="main" version="1.1" xmlns="http://www.w3.org/2000/svg" xmlns:xlink="http://www.w3.org/1999/xlink" xml:space="preserve" onload="init(evt)">
<style type="text/css"><![CDATA[
.node, .edge {opacity: 0.7;}
.node.selected, .edge.selected {opacity: 1;}
.edge:hover path { stroke: red; }
.edge:hover polygon { stroke: red; fill: red; }
]]></style>

<defs>
  <circle id="rim" cx="0" cy="0" r="7"/>
  <circle id="rim2" cx="0" cy="0" r="3.5"/>
  <g id="zoomPlus">
    <use xlink:href="#rim" fill="#404040"><set attributeName="fill" to="#808080" begin="zoomplus.mouseover" end="zoomplus.mouseout"/></use>
    <path d="M-4,0h8M0,-4v8" fill="none" stroke="white" stroke-width="1.5" pointer-events="none"/>
  </g>
  <g id="zoomMin">
    <use xlink:href="#rim" fill="#404040"><set attributeName="fill" to="#808080" begin="zoomminus.mouseover" end="zoomminus.mouseout"/></use>
    <path d="M-4,0h8" fill="none" stroke="white" stroke-width="1.5" pointer-events="none"/>
  </g>
  <g id="arrowUp" transform="translate(30 24)">
    <use xlink:href="#rim"/>
    <path pointer-events="none" fill="none" stroke="white" stroke-width="1.5" d="M0,-3.0v7 M-2.5,-0.5L0,-3.0L2.5,-0.5"/>
  </g>
  <g id="arrowRight" transform="rotate(90) translate(36 -43)">
    <use xlink:href="#rim"/>
    <path pointer-events="none" fill="none" stroke="white" stroke-width="1.5" d="M0,-3.0v7 M-2.5,-0.5L0,-3.0L2.5,-0.5"/>
  </g>
  <g id="arrowDown" transform="rotate(180) translate(-30 -48)">
    <use xlink:href="#rim"/>
    <path pointer-events="none" fill="none" stroke="white" stroke-width="1.5" d="M0,-3.0v7 M-2.5,-0.5L0,-3.0L2.5,-0.5"/>
  </g>
  <g id="arrowLeft" transform="rotate(270) translate(-36 17)">
    <use xlink:href="#rim"/>
    <path pointer-events="none" fill="none" stroke="white" stroke-width="1.5" d="M0,-3.0v7 M-2.5,-0.5L0,-3.0L2.5,-0.5"/>
  </g>
  <g id="resetDef">
    <use xlink:href="#rim2" fill="#404040"><set attributeName="fill" to="#808080" begin="reset.mouseover" end="reset.mouseout"/></use>
  </g>
</defs>
<script type="application/ecmascript">
var viewWidth = 872;
var viewHeight = 213;
var sectionId = 'dynsection-27';
</script>
<script type="application/ecmascript" xlink:href="../../svg.min.js"/>
<svg id="graph" class="graph">
<g id="viewport">
<title>Player::deleteCard</title>
<!-- Node1 -->
<g id="Node000001" class="node">
<title>Node1</title>
<g id="a_Node000001"><a xlink:title=" ">
<polygon fill="#999999" stroke="#666666" points="107,-111 0,-111 0,-92 107,-92 107,-111"/>
<text text-anchor="middle" x="53.5" y="-99" font-family="Helvetica,sans-Serif" font-size="10.00">Player::deleteCard</text>
</a>
</g>
</g>
<!-- Node2 -->
<g id="Node000002" class="node">
<title>Node2</title>
<g id="a_Node000002"><a xlink:href="../../d6/dbd/classCardItem.html#aaea32d499d90c7fc724d407850a08ba3" target="_top" xlink:title=" ">
<polygon fill="white" stroke="#666666" points="266,-111 143,-111 143,-92 266,-92 266,-111"/>
<text text-anchor="middle" x="204.5" y="-99" font-family="Helvetica,sans-Serif" font-size="10.00">CardItem::deleteLater</text>
</a>
</g>
</g>
<!-- Node1&#45;&gt;Node2 -->
<g id="edge1_Node000001_Node000002" class="edge">
<title>Node1&#45;&gt;Node2</title>
<g id="a_edge1_Node000001_Node000002"><a xlink:title=" ">
<path fill="none" stroke="#63b8ff" d="M107.03,-101.5C116.97,-101.5 127.48,-101.5 137.76,-101.5"/>
<polygon fill="#63b8ff" stroke="#63b8ff" points="142.79,-101.5 137.79,-103.75 140.29,-101.5 137.79,-101.5 137.79,-101.5 137.79,-101.5 140.29,-101.5 137.79,-99.25 142.79,-101.5 142.79,-101.5"/>
</a>
</g>
</g>
<!-- Node3 -->
<g id="Node000003" class="node">
<title>Node3</title>
<g id="a_Node000003"><a xlink:href="../../d6/dbd/classCardItem.html#a575b7108658ad9bc321cf18fa0f7be01" target="_top" xlink:title=" ">
<polygon fill="white" stroke="#666666" points="439,-111 302,-111 302,-92 439,-92 439,-111"/>
<text text-anchor="middle" x="370.5" y="-99" font-family="Helvetica,sans-Serif" font-size="10.00">CardItem::prepareDelete</text>
</a>
</g>
</g>
<!-- Node2&#45;&gt;Node3 -->
<g id="edge2_Node000002_Node000003" class="edge">
<title>Node2&#45;&gt;Node3</title>
<g id="a_edge2_Node000002_Node000003"><a xlink:title=" ">
<path fill="none" stroke="#63b8ff" d="M266.1,-101.5C276.14,-101.5 286.64,-101.5 296.93,-101.5"/>
<polygon fill="#63b8ff" stroke="#63b8ff" points="301.97,-101.5 296.97,-103.75 299.47,-101.5 296.97,-101.5 296.97,-101.5 296.97,-101.5 299.47,-101.5 296.97,-99.25 301.97,-101.5 301.97,-101.5"/>
</a>
</g>
</g>
<!-- Node4 -->
<g id="Node000004" class="node">
<title>Node4</title>
<g id="a_Node000004"><a xlink:href="../../d3/d44/classAbstractGame.html#a10d512d3b465fd4d50272aa0a54ed685" target="_top" xlink:title=" ">
<polygon fill="white" stroke="#666666" points="853.5,-205 692.5,-205 692.5,-186 853.5,-186 853.5,-205"/>
<text text-anchor="middle" x="773" y="-193" font-family="Helvetica,sans-Serif" font-size="10.00">AbstractGame::getActiveCard</text>
</a>
</g>
</g>
<!-- Node3&#45;&gt;Node4 -->
<g id="edge3_Node000003_Node000004" class="edge">
<title>Node3&#45;&gt;Node4</title>
<g id="a_edge3_Node000003_Node000004"><a xlink:title=" ">
<path fill="none" stroke="#63b8ff" d="M383.72,-111.07C402.28,-125.01 439.18,-150.57 475,-162.5 544.06,-185.51 626.63,-193.21 687.16,-195.47"/>
<polygon fill="#63b8ff" stroke="#63b8ff" points="692.21,-195.65 687.14,-197.72 689.72,-195.56 687.22,-195.47 687.22,-195.47 687.22,-195.47 689.72,-195.56 687.3,-193.22 692.21,-195.65 692.21,-195.65"/>
</a>
</g>
</g>
<!-- Node5 -->
<g id="Node000005" class="node">
<title>Node5</title>
<g id="a_Node000005"><a xlink:href="../../d2/d4b/classPlayer.html#af7cfc2b66a72002d9f290285499a0a3b" target="_top" xlink:title=" ">
<polygon fill="white" stroke="#666666" points="822,-168 724,-168 724,-149 822,-149 822,-168"/>
<text text-anchor="middle" x="773" y="-156" font-family="Helvetica,sans-Serif" font-size="10.00">Player::getGame</text>
</a>
</g>
</g>
<!-- Node3&#45;&gt;Node5 -->
<g id="edge4_Node000003_Node000005" class="edge">
<title>Node3&#45;&gt;Node5</title>
<g id="a_edge4_Node000003_Node000005"><a xlink:title=" ">
<path fill="none" stroke="#63b8ff" d="M391.99,-111.03C412.51,-120.08 445.22,-133.22 475,-139.5 558.79,-157.17 658.58,-159.93 718.53,-159.67"/>
<polygon fill="#63b8ff" stroke="#63b8ff" points="723.85,-159.64 718.86,-161.92 721.35,-159.65 718.85,-159.67 718.85,-159.67 718.85,-159.67 721.35,-159.65 718.83,-157.42 723.85,-159.64 723.85,-159.64"/>
</a>
</g>
</g>
<!-- Node6 -->
<g id="Node000006" class="node">
<title>Node6</title>
<g id="a_Node000006"><a xlink:href="../../d2/d4b/classPlayer.html#aaadcfdaf7cc8e84dfdbeb8e99f453974" target="_top" xlink:title=" ">
<polygon fill="white" stroke="#666666" points="624,-93 497,-93 497,-74 624,-74 624,-93"/>
<text text-anchor="middle" x="560.5" y="-81" font-family="Helvetica,sans-Serif" font-size="10.00">Player::getPlayerMenu</text>
</a>
</g>
</g>
<!-- Node3&#45;&gt;Node6 -->
<g id="edge5_Node000003_Node000006" class="edge">
<title>Node3&#45;&gt;Node6</title>
<g id="a_edge5_Node000003_Node000006"><a xlink:title=" ">
<path fill="none" stroke="#63b8ff" d="M439.11,-95.03C456.18,-93.39 474.52,-91.64 491.61,-90"/>
<polygon fill="#63b8ff" stroke="#63b8ff" points="496.88,-89.5 492.11,-92.21 494.39,-89.73 491.9,-89.97 491.9,-89.97 491.9,-89.97 494.39,-89.73 491.68,-87.73 496.88,-89.5 496.88,-89.5"/>
</a>
</g>
</g>
<!-- Node7 -->
<g id="Node000007" class="node">
<title>Node7</title>
<g id="a_Node000007"><a xlink:href="../../d6/dbd/classCardItem.html#a4580f14e9f633ac740ea1a5b80dd4fef" target="_top" xlink:title=" ">
<polygon fill="white" stroke="#666666" points="646,-56 475,-56 475,-37 646,-37 646,-56"/>
<text text-anchor="middle" x="560.5" y="-44" font-family="Helvetica,sans-Serif" font-size="10.00">CardItem::removeAttachedCard</text>
</a>
</g>
</g>
<!-- Node3&#45;&gt;Node7 -->
<g id="edge6_Node000003_Node000007" class="edge">
<title>Node3&#45;&gt;Node7</title>
<g id="a_edge6_Node000003_Node000007"><a xlink:title=" ">
<path fill="none" stroke="#63b8ff" d="M395.46,-91.9C416.25,-83.83 447.28,-72.37 475,-64.5 484.34,-61.85 494.36,-59.39 504.11,-57.19"/>
<polygon fill="#63b8ff" stroke="#63b8ff" points="509.18,-56.07 504.79,-59.34 506.74,-56.61 504.3,-57.15 504.3,-57.15 504.3,-57.15 506.74,-56.61 503.82,-54.95 509.18,-56.07 509.18,-56.07"/>
</a>
</g>
</g>
<!-- Node8 -->
<g id="Node000008" class="node">
<title>Node8</title>
<g id="a_Node000008"><a xlink:href="../../d3/d44/classAbstractGame.html#af18d64442d84bfe69e907cabe713c3ff" target="_top" xlink:title=" ">
<polygon fill="white" stroke="#666666" points="641,-19 480,-19 480,0 641,0 641,-19"/>
<text text-anchor="middle" x="560.5" y="-7" font-family="Helvetica,sans-Serif" font-size="10.00">AbstractGame::setActiveCard</text>
</a>
</g>
</g>
<!-- Node3&#45;&gt;Node8 -->
<g id="edge7_Node000003_Node000008" class="edge">
<title>Node3&#45;&gt;Node8</title>
<g id="a_edge7_Node000003_Node000008"><a xlink:title=" ">
<path fill="none" stroke="#63b8ff" d="M381.77,-91.9C399.4,-75.97 437.2,-44.17 475,-27.5 481.12,-24.8 487.68,-22.49 494.33,-20.53"/>
<polygon fill="#63b8ff" stroke="#63b8ff" points="499.43,-19.09 495.23,-22.61 497.03,-19.77 494.62,-20.45 494.62,-20.45 494.62,-20.45 497.03,-19.77 494.01,-18.28 499.43,-19.09 499.43,-19.09"/>
</a>
</g>
</g>
<!-- Node9 -->
<g id="Node000009" class="node">
<title>Node9</title>
<g id="a_Node000009"><a xlink:href="../../d7/dd6/classPlayerMenu.html#a81b1d0276dbe8490ddbe7a8a98f87548" target="_top" xlink:title=" ">
<polygon fill="white" stroke="#666666" points="642.5,-130 478.5,-130 478.5,-111 642.5,-111 642.5,-130"/>
<text text-anchor="middle" x="560.5" y="-118" font-family="Helvetica,sans-Serif" font-size="10.00">PlayerMenu::updateCardMenu</text>
</a>
</g>
</g>
<!-- Node3&#45;&gt;Node9 -->
<g id="edge8_Node000003_Node000009" class="edge">
<title>Node3&#45;&gt;Node9</title>
<g id="a_edge8_Node000003_Node000009"><a xlink:title=" ">
<path fill="none" stroke="#63b8ff" d="M439.11,-108.33C450.15,-109.45 461.73,-110.62 473.15,-111.77"/>
<polygon fill="#63b8ff" stroke="#63b8ff" points="478.39,-112.3 473.19,-114.04 475.9,-112.05 473.41,-111.8 473.41,-111.8 473.41,-111.8 475.9,-112.05 473.64,-109.56 478.39,-112.3 478.39,-112.3"/>
</a>
</g>
</g>
<!-- Node9&#45;&gt;Node4 -->
<g id="edge10_Node000009_Node000004" class="edge">
<title>Node9&#45;&gt;Node4</title>
<g id="a_edge10_Node000009_Node000004"><a xlink:title=" ">
<path fill="none" stroke="#63b8ff" d="M578.51,-130.19C601.36,-142.81 643.55,-164.77 682,-177.5 690.42,-180.29 699.44,-182.71 708.4,-184.81"/>
<polygon fill="#63b8ff" stroke="#63b8ff" points="713.36,-185.93 707.99,-187.02 710.92,-185.38 708.48,-184.83 708.48,-184.83 708.48,-184.83 710.92,-185.38 708.98,-182.63 713.36,-185.93 713.36,-185.93"/>
</a>
</g>
</g>
<!-- Node9&#45;&gt;Node5 -->
<g id="edge11_Node000009_Node000005" class="edge">
<title>Node9&#45;&gt;Node5</title>
<g id="a_edge11_Node000009_Node000005"><a xlink:title=" ">
<path fill="none" stroke="#63b8ff" d="M614.35,-130.04C646.25,-135.8 686.78,-143.12 718.76,-148.89"/>
<polygon fill="#63b8ff" stroke="#63b8ff" points="723.82,-149.8 718.5,-151.13 721.36,-149.36 718.9,-148.91 718.9,-148.91 718.9,-148.91 721.36,-149.36 719.3,-146.7 723.82,-149.8 723.82,-149.8"/>
</a>
</g>
</g>
<!-- Node10 -->
<g id="Node000010" class="node">
<title>Node10</title>
<g id="a_Node000010"><a xlink:href="../../d7/dd6/classPlayerMenu.html#a3956c4c71da8c542885d7b80f0f7b6e9" target="_top" xlink:title=" ">
<polygon fill="white" stroke="#666666" points="858,-57 688,-57 688,-38 858,-38 858,-57"/>
<text text-anchor="middle" x="773" y="-45" font-family="Helvetica,sans-Serif" font-size="10.00">PlayerMenu::cardMenuUpdated</text>
</a>
</g>
</g>
<!-- Node9&#45;&gt;Node10 -->
<g id="edge9_Node000009_Node000010" class="edge">
<title>Node9&#45;&gt;Node10</title>
<g id="a_edge9_Node000009_Node000010"><a xlink:title=" ">
<path fill="none" stroke="#63b8ff" d="M626.16,-110.91C633.07,-108.67 639.83,-105.91 646,-102.5 666.09,-91.41 661.85,-76.46 682,-65.5 686.82,-62.88 691.98,-60.63 697.29,-58.71"/>
<polygon fill="#63b8ff" stroke="#63b8ff" points="702.2,-57.04 698.19,-60.78 699.84,-57.85 697.47,-58.65 697.47,-58.65 697.47,-58.65 699.84,-57.85 696.74,-56.52 702.2,-57.04 702.2,-57.04"/>
</a>
</g>
</g>
<!-- Node11 -->
<g id="Node000011" class="node">
<title>Node11</title>
<g id="a_Node000011"><a xlink:href="../../d3/d44/classAbstractGame.html#a30acfb1e00b1b9b1bd43356d857f5f96" target="_top" xlink:title=" ">
<polygon fill="white" stroke="#666666" points="864,-20 682,-20 682,-1 864,-1 864,-20"/>
<text text-anchor="middle" x="773" y="-8" font-family="Helvetica,sans-Serif" font-size="10.00">AbstractGame::getPlayerManager</text>
</a>
</g>
</g>
<!-- Node9&#45;&gt;Node11 -->
<g id="edge12_Node000009_Node000011" class="edge">
<title>Node9&#45;&gt;Node11</title>
<g id="a_edge12_Node000009_Node000011"><a xlink:title=" ">
<path fill="none" stroke="#63b8ff" d="M632.03,-110.84C637.02,-108.58 641.75,-105.83 646,-102.5 674.8,-79.96 653.06,-50.86 682,-28.5 684.95,-26.22 688.11,-24.21 691.42,-22.44"/>
<polygon fill="#63b8ff" stroke="#63b8ff" points="696.01,-20.16 692.53,-24.4 693.77,-21.27 691.53,-22.38 691.53,-22.38 691.53,-22.38 693.77,-21.27 690.53,-20.36 696.01,-20.16 696.01,-20.16"/>
</a>
</g>
</g>
<!-- Node12 -->
<g id="Node000012" class="node">
<title>Node12</title>
<g id="a_Node000012"><a xlink:href="../../dc/d5d/classPlayerManager.html#a06aa093534865821b7c9a5ef2088841b" target="_top" xlink:title=" ">
<polygon fill="white" stroke="#666666" points="838.5,-131 707.5,-131 707.5,-112 838.5,-112 838.5,-131"/>
<text text-anchor="middle" x="773" y="-119" font-family="Helvetica,sans-Serif" font-size="10.00">PlayerManager::isJudge</text>
</a>
</g>
</g>
<!-- Node9&#45;&gt;Node12 -->
<g id="edge13_Node000009_Node000012" class="edge">
<title>Node9&#45;&gt;Node12</title>
<g id="a_edge13_Node000009_Node000012"><a xlink:title=" ">
<path fill="none" stroke="#63b8ff" d="M642.58,-120.89C662.17,-120.98 682.93,-121.08 701.96,-121.17"/>
<polygon fill="#63b8ff" stroke="#63b8ff" points="707.28,-121.19 702.27,-123.42 704.78,-121.18 702.28,-121.17 702.28,-121.17 702.28,-121.17 704.78,-121.18 702.29,-118.92 707.28,-121.19 707.28,-121.19"/>
</a>
</g>
</g>
<!-- Node13 -->
<g id="Node000013" class="node">
<title>Node13</title>
<g id="a_Node000013"><a xlink:href="../../dc/d5d/classPlayerManager.html#aa0a36fbae4264f4014fb159a03067836" target="_top" xlink:title=" ">
<polygon fill="white" stroke="#666666" points="848.5,-94 697.5,-94 697.5,-75 848.5,-75 848.5,-94"/>
<text text-anchor="middle" x="773" y="-82" font-family="Helvetica,sans-Serif" font-size="10.00">PlayerManager::isSpectator</text>
</a>
</g>
</g>
<!-- Node9&#45;&gt;Node13 -->
<g id="edge14_Node000009_Node000013" class="edge">
<title>Node9&#45;&gt;Node13</title>
<g id="a_edge14_Node000009_Node000013"><a xlink:title=" ">
<path fill="none" stroke="#63b8ff" d="M617.08,-110.99C645.98,-106.05 681.37,-100 711.02,-94.93"/>
<polygon fill="#63b8ff" stroke="#63b8ff" points="716.11,-94.06 711.56,-97.12 713.64,-94.48 711.18,-94.9 711.18,-94.9 711.18,-94.9 713.64,-94.48 710.8,-92.68 716.11,-94.06 716.11,-94.06"/>
</a>
</g>
</g>
</g>
</svg>

<g id="navigator" transform="translate(0 0)" fill="#404254">
  <rect fill="#f2f5e9" fill-opacity="0.5" stroke="#606060" stroke-width=".5" x="0" y="0" width="60" height="60"/>
  <use id="zoomplus" xlink:href="#zoomPlus" x="17" y="9" onmousedown="handleZoom(evt,'in')"/>
  <use id="zoomminus" xlink:href="#zoomMin" x="42" y="9" onmousedown="handleZoom(evt,'out')"/>
  <use id="reset" xlink:href="#resetDef" x="30" y="36" onmousedown="handleReset()"/>
   <use id="arrowup" xlink:href="#arrowUp" x="0" y="0" onmousedown="handlePan(0,-1)"/>
  <use id="arrowright" xlink:href="#arrowRight" x="0" y="0" onmousedown="handlePan(1,0)"/>
  <use id="arrowdown" xlink:href="#arrowDown" x="0" y="0" onmousedown="handlePan(0,1)"/>
  <use id="arrowleft" xlink:href="#arrowLeft" x="0" y="0" onmousedown="handlePan(-1,0)"/>
</g>
<svg viewBox="0 0 15 15" width="100%" height="30px" preserveAspectRatio="xMaxYMin meet">
 <g id="arrow_out" transform="scale(0.3 0.3)">
  <a xlink:href="classPlayer_aa405011eb56093c100eab50fbb42f19a_cgraph_org.svg" target="_base">
   <rect id="button" ry="5" rx="5" y="6" x="6" height="38" width="38"
        fill="#f2f5e9" fill-opacity="0.5" stroke="#606060" stroke-width="1.0"/>
   <path id="arrow"
     d="M 11.500037,31.436501 C 11.940474,20.09759 22.043105,11.32322 32.158766,21.979434 L 37.068811,17.246167 C 37.068811,17.246167 37.088388,32 37.088388,32 L 22.160133,31.978069 C 22.160133,31.978069 26.997745,27.140456 26.997745,27.140456 C 18.528582,18.264221 13.291696,25.230495 11.500037,31.436501 z"
     style="fill:#404040;"/>
  </a>
 </g>
</svg>

<style type='text/css'>
<![CDATA[
[data-mouse-over-selected='false'] { opacity: 0.7; }
[data-mouse-over-selected='true']  { opacity: 1.0; }
]]>
</style>
<script type="application/ecmascript"><![CDATA[
document.addEventListener('DOMContentLoaded', (event) => {
  highlightEdges();
  highlightAdjacentNodes();
});
]]></script>
</svg>
