<?xml version="1.0" encoding="UTF-8" standalone="no"?>
<!DOCTYPE svg PUBLIC "-//W3C//DTD SVG 1.1//EN"
 "http://www.w3.org/Graphics/SVG/1.1/DTD/svg11.dtd">
<!-- Generated by graphviz version 2.43.0 (0)
 -->
<!-- Title: Player::getTableZone Pages: 1 -->
<svg width="301pt" height="76pt"
 viewBox="0.00 0.00 301.00 75.50" xmlns="http://www.w3.org/2000/svg" xmlns:xlink="http://www.w3.org/1999/xlink">

<svg id="main" version="1.1" xmlns="http://www.w3.org/2000/svg" xmlns:xlink="http://www.w3.org/1999/xlink" xml:space="preserve">

<style type="text/css"><![CDATA[
.node, .edge {opacity: 0.7;}
.node.selected, .edge.selected {opacity: 1;}
.edge:hover path { stroke: red; }
.edge:hover polygon { stroke: red; fill: red; }
]]></style>
<script type="application/ecmascript" xlink:href="../../svg.min.js"/>
<svg id="graph" class="graph">
<g id="graph0" class="graph" transform="scale(1 1) rotate(0) translate(4 71.5)">
<title>Player::getTableZone</title>
<!-- Node1 -->
<g id="Node000001" class="node">
<title>Node1</title>
<g id="a_Node000001"><a xlink:title=" ">
<polygon fill="#999999" stroke="#666666" points="293,-40 174,-40 174,-21 293,-21 293,-40"/>
<text text-anchor="middle" x="233.5" y="-28" font-family="Helvetica,sans-Serif" font-size="10.00">Player::getTableZone</text>
</a>
</g>
</g>
<!-- Node2 -->
<g id="Node000002" class="node">
<title>Node2</title>
<g id="a_Node000002"><a xlink:href="../../d2/d4b/classPlayer.html#a22118fdb73dc2201939a7475995dd2c5" target="_top" xlink:title=" ">
<polygon fill="white" stroke="#666666" points="138,-67.5 0,-67.5 0,-37.5 138,-37.5 138,-67.5"/>
<text text-anchor="start" x="8" y="-55.5" font-family="Helvetica,sans-Serif" font-size="10.00">Player::incrementAllCard</text>
<text text-anchor="middle" x="69" y="-44.5" font-family="Helvetica,sans-Serif" font-size="10.00">Counters</text>
</a>
</g>
</g>
<!-- Node1&#45;&gt;Node2 -->
<g id="edge1_Node000001_Node000002" class="edge">
<title>Node1&#45;&gt;Node2</title>
<g id="a_edge1_Node000001_Node000002"><a xlink:title=" ">
<path fill="none" stroke="#63b8ff" d="M168.65,-39.14C158.67,-40.5 148.33,-41.9 138.25,-43.26"/>
<polygon fill="#63b8ff" stroke="#63b8ff" points="173.83,-38.44 169.18,-41.34 171.36,-38.78 168.88,-39.11 168.88,-39.11 168.88,-39.11 171.36,-38.78 168.58,-36.88 173.83,-38.44 173.83,-38.44"/>
</a>
</g>
</g>
<!-- Node3 -->
<g id="Node000003" class="node">
<title>Node3</title>
<g id="a_Node000003"><a xlink:href="../../d2/d4b/classPlayer.html#a52a6e1aa3661eb89b33c04bb86cf2a27" target="_top" xlink:title=" ">
<polygon fill="white" stroke="#666666" points="127.5,-19 10.5,-19 10.5,0 127.5,0 127.5,-19"/>
<text text-anchor="middle" x="69" y="-7" font-family="Helvetica,sans-Serif" font-size="10.00">Player::updateZones</text>
</a>
</g>
</g>
<!-- Node1&#45;&gt;Node3 -->
<g id="edge2_Node000001_Node000003" class="edge">
<title>Node1&#45;&gt;Node3</title>
<g id="a_edge2_Node000001_Node000003"><a xlink:title=" ">
<path fill="none" stroke="#63b8ff" d="M168.87,-22.28C155.32,-20.53 141.08,-18.69 127.76,-16.96"/>
<polygon fill="#63b8ff" stroke="#63b8ff" points="173.83,-22.92 168.59,-24.51 171.35,-22.6 168.88,-22.28 168.88,-22.28 168.88,-22.28 171.35,-22.6 169.16,-20.05 173.83,-22.92 173.83,-22.92"/>
</a>
</g>
</g>
</g>
</svg>
</svg>

<style type='text/css'>
<![CDATA[
[data-mouse-over-selected='false'] { opacity: 0.7; }
[data-mouse-over-selected='true']  { opacity: 1.0; }
]]>
</style>
<script type="application/ecmascript"><![CDATA[
document.addEventListener('DOMContentLoaded', (event) => {
  highlightEdges();
  highlightAdjacentNodes();
});
]]></script>
</svg>
