<?xml version="1.0" encoding="UTF-8" standalone="no"?>
<!DOCTYPE svg PUBLIC "-//W3C//DTD SVG 1.1//EN"
 "http://www.w3.org/Graphics/SVG/1.1/DTD/svg11.dtd">
<!-- Generated by graphviz version 2.43.0 (0)
 -->
<!-- Title: DeckStateManager::doMetadataModified Pages: 1 -->
<svg width="803pt" height="119pt"
 viewBox="0.00 0.00 803.00 118.50" xmlns="http://www.w3.org/2000/svg" xmlns:xlink="http://www.w3.org/1999/xlink">
<g id="graph0" class="graph" transform="scale(1 1) rotate(0) translate(4 114.5)">
<title>DeckStateManager::doMetadataModified</title>
<!-- Node1 -->
<g id="Node000001" class="node">
<title>Node1</title>
<g id="a_Node000001"><a xlink:title="Handles updating state and emitting signals whenever the metadata is modified.">
<polygon fill="#999999" stroke="#666666" points="174,-73 0,-73 0,-43 174,-43 174,-73"/>
<text text-anchor="start" x="8" y="-61" font-family="Helvetica,sans-Serif" font-size="10.00">DeckStateManager::doMetadata</text>
<text text-anchor="middle" x="87" y="-50" font-family="Helvetica,sans-Serif" font-size="10.00">Modified</text>
</a>
</g>
</g>
<!-- Node2 -->
<g id="Node000002" class="node">
<title>Node2</title>
<g id="a_Node000002"><a xlink:href="../../dd/dab/classDeckStateManager.html#acb83f1b33c5e6b4daf99e917b7c46aa9" target="_top" xlink:title=" ">
<polygon fill="white" stroke="#666666" points="391,-110.5 210,-110.5 210,-91.5 391,-91.5 391,-110.5"/>
<text text-anchor="middle" x="300.5" y="-98.5" font-family="Helvetica,sans-Serif" font-size="10.00">DeckStateManager::deckModified</text>
</a>
</g>
</g>
<!-- Node1&#45;&gt;Node2 -->
<g id="edge1_Node000001_Node000002" class="edge">
<title>Node1&#45;&gt;Node2</title>
<g id="a_edge1_Node000001_Node000002"><a xlink:title=" ">
<path fill="none" stroke="#63b8ff" d="M161.97,-73.04C190.23,-78.78 221.82,-85.21 247.59,-90.45"/>
<polygon fill="#63b8ff" stroke="#63b8ff" points="252.66,-91.48 247.32,-92.69 250.21,-90.98 247.76,-90.48 247.76,-90.48 247.76,-90.48 250.21,-90.98 248.21,-88.28 252.66,-91.48 252.66,-91.48"/>
</a>
</g>
</g>
<!-- Node3 -->
<g id="Node000003" class="node">
<title>Node3</title>
<g id="a_Node000003"><a xlink:href="../../dd/dab/classDeckStateManager.html#a32140e053094a89fff14eba56fa919ba" target="_top" xlink:title=" ">
<polygon fill="white" stroke="#666666" points="382,-73 219,-73 219,-43 382,-43 382,-73"/>
<text text-anchor="start" x="227" y="-61" font-family="Helvetica,sans-Serif" font-size="10.00">DeckStateManager::metadata</text>
<text text-anchor="middle" x="300.5" y="-50" font-family="Helvetica,sans-Serif" font-size="10.00">Modified</text>
</a>
</g>
</g>
<!-- Node1&#45;&gt;Node3 -->
<g id="edge2_Node000001_Node000003" class="edge">
<title>Node1&#45;&gt;Node3</title>
<g id="a_edge2_Node000001_Node000003"><a xlink:title=" ">
<path fill="none" stroke="#63b8ff" d="M174.03,-58C187.05,-58 200.49,-58 213.51,-58"/>
<polygon fill="#63b8ff" stroke="#63b8ff" points="218.67,-58 213.67,-60.25 216.17,-58 213.67,-58 213.67,-58 213.67,-58 216.17,-58 213.67,-55.75 218.67,-58 218.67,-58"/>
</a>
</g>
</g>
<!-- Node4 -->
<g id="Node000004" class="node">
<title>Node4</title>
<g id="a_Node000004"><a xlink:href="../../dd/dab/classDeckStateManager.html#a2b8582ad1977ed94c3fee0062f890786" target="_top" xlink:title="Sets the new isModified state, emitting a signal if the state changed. This class will automatically ...">
<polygon fill="white" stroke="#666666" points="387,-24.5 214,-24.5 214,-5.5 387,-5.5 387,-24.5"/>
<text text-anchor="middle" x="300.5" y="-12.5" font-family="Helvetica,sans-Serif" font-size="10.00">DeckStateManager::setModified</text>
</a>
</g>
</g>
<!-- Node1&#45;&gt;Node4 -->
<g id="edge3_Node000001_Node000004" class="edge">
<title>Node1&#45;&gt;Node4</title>
<g id="a_edge3_Node000001_Node000004"><a xlink:title=" ">
<path fill="none" stroke="#63b8ff" d="M161.97,-42.96C190.23,-37.22 221.82,-30.79 247.59,-25.55"/>
<polygon fill="#63b8ff" stroke="#63b8ff" points="252.66,-24.52 248.21,-27.72 250.21,-25.02 247.76,-25.52 247.76,-25.52 247.76,-25.52 250.21,-25.02 247.32,-23.31 252.66,-24.52 252.66,-24.52"/>
</a>
</g>
</g>
<!-- Node5 -->
<g id="Node000005" class="node">
<title>Node5</title>
<g id="a_Node000005"><a xlink:href="../../dd/dab/classDeckStateManager.html#a0cdd2896b20e4e113abcf9cc2fc051ed" target="_top" xlink:title=" ">
<polygon fill="white" stroke="#666666" points="593,-30 427,-30 427,0 593,0 593,-30"/>
<text text-anchor="start" x="435" y="-18" font-family="Helvetica,sans-Serif" font-size="10.00">DeckStateManager::isModified</text>
<text text-anchor="middle" x="510" y="-7" font-family="Helvetica,sans-Serif" font-size="10.00">Changed</text>
</a>
</g>
</g>
<!-- Node4&#45;&gt;Node5 -->
<g id="edge4_Node000004_Node000005" class="edge">
<title>Node4&#45;&gt;Node5</title>
<g id="a_edge4_Node000004_Node000005"><a xlink:title=" ">
<path fill="none" stroke="#63b8ff" d="M387.1,-15C398.52,-15 410.25,-15 421.7,-15"/>
<polygon fill="#63b8ff" stroke="#63b8ff" points="426.94,-15 421.94,-17.25 424.44,-15 421.94,-15 421.94,-15 421.94,-15 424.44,-15 421.94,-12.75 426.94,-15 426.94,-15"/>
</a>
</g>
</g>
<!-- Node6 -->
<g id="Node000006" class="node">
<title>Node6</title>
<g id="a_Node000006"><a xlink:href="../../dd/dab/classDeckStateManager.html#a42b6a4c085c3b89cafb68d05a3043d78" target="_top" xlink:title="Checks if the deck has been modified since it was last saved.">
<polygon fill="white" stroke="#666666" points="795,-24.5 629,-24.5 629,-5.5 795,-5.5 795,-24.5"/>
<text text-anchor="middle" x="712" y="-12.5" font-family="Helvetica,sans-Serif" font-size="10.00">DeckStateManager::isModified</text>
</a>
</g>
</g>
<!-- Node5&#45;&gt;Node6 -->
<g id="edge5_Node000005_Node000006" class="edge">
<title>Node5&#45;&gt;Node6</title>
<g id="a_edge5_Node000005_Node000006"><a xlink:title=" ">
<path fill="none" stroke="#63b8ff" d="M593.21,-15C603.21,-15 613.46,-15 623.53,-15"/>
<polygon fill="#63b8ff" stroke="#63b8ff" points="628.78,-15 623.78,-17.25 626.28,-15 623.78,-15 623.78,-15 623.78,-15 626.28,-15 623.78,-12.75 628.78,-15 628.78,-15"/>
</a>
</g>
</g>
</g>
</svg>
