<?xml version="1.0" encoding="UTF-8" standalone="no"?>
<!DOCTYPE svg PUBLIC "-//W3C//DTD SVG 1.1//EN"
 "http://www.w3.org/Graphics/SVG/1.1/DTD/svg11.dtd">
<!-- Generated by graphviz version 2.43.0 (0)
 -->
<!-- Title: DeckStateManager::incrementCountAtIndex Pages: 1 -->
<svg width="1369pt" height="107pt"
 viewBox="0.00 0.00 1369.00 106.50" xmlns="http://www.w3.org/2000/svg" xmlns:xlink="http://www.w3.org/1999/xlink">
<g id="graph0" class="graph" transform="scale(1 1) rotate(0) translate(4 102.5)">
<title>DeckStateManager::incrementCountAtIndex</title>
<!-- Node1 -->
<g id="Node000001" class="node">
<title>Node1</title>
<g id="a_Node000001"><a xlink:title="Increments the number of copies of the card at the given index by 1. No&#45;ops if index is invalid or no...">
<polygon fill="#999999" stroke="#666666" points="165,-67 0,-67 0,-37 165,-37 165,-67"/>
<text text-anchor="start" x="8" y="-55" font-family="Helvetica,sans-Serif" font-size="10.00">DeckStateManager::increment</text>
<text text-anchor="middle" x="82.5" y="-44" font-family="Helvetica,sans-Serif" font-size="10.00">CountAtIndex</text>
</a>
</g>
</g>
<!-- Node2 -->
<g id="Node000002" class="node">
<title>Node2</title>
<g id="a_Node000002"><a xlink:href="../../dd/dab/classDeckStateManager.html#a428aba6cb764ef94947160ce85ed2a67" target="_top" xlink:title=" ">
<polygon fill="white" stroke="#666666" points="344,-67 201,-67 201,-37 344,-37 344,-67"/>
<text text-anchor="start" x="209" y="-55" font-family="Helvetica,sans-Serif" font-size="10.00">DeckStateManager::offset</text>
<text text-anchor="middle" x="272.5" y="-44" font-family="Helvetica,sans-Serif" font-size="10.00">CountAtIndex</text>
</a>
</g>
</g>
<!-- Node1&#45;&gt;Node2 -->
<g id="edge1_Node000001_Node000002" class="edge">
<title>Node1&#45;&gt;Node2</title>
<g id="a_edge1_Node000001_Node000002"><a xlink:title=" ">
<path fill="none" stroke="#63b8ff" d="M165.14,-52C175.27,-52 185.59,-52 195.62,-52"/>
<polygon fill="#63b8ff" stroke="#63b8ff" points="200.84,-52 195.84,-54.25 198.34,-52 195.84,-52 195.84,-52 195.84,-52 198.34,-52 195.84,-49.75 200.84,-52 200.84,-52"/>
</a>
</g>
</g>
<!-- Node3 -->
<g id="Node000003" class="node">
<title>Node3</title>
<g id="a_Node000003"><a xlink:href="../../dd/dab/classDeckStateManager.html#af9605fa385a46caeb763bfc988eef0c2" target="_top" xlink:title="Modifies the cards in the deck, in a wrapped operation that is saved to the history.">
<polygon fill="white" stroke="#666666" points="554,-61.5 380,-61.5 380,-42.5 554,-42.5 554,-61.5"/>
<text text-anchor="middle" x="467" y="-49.5" font-family="Helvetica,sans-Serif" font-size="10.00">DeckStateManager::modifyDeck</text>
</a>
</g>
</g>
<!-- Node2&#45;&gt;Node3 -->
<g id="edge2_Node000002_Node000003" class="edge">
<title>Node2&#45;&gt;Node3</title>
<g id="a_edge2_Node000002_Node000003"><a xlink:title=" ">
<path fill="none" stroke="#63b8ff" d="M344.09,-52C354.05,-52 364.4,-52 374.68,-52"/>
<polygon fill="#63b8ff" stroke="#63b8ff" points="379.72,-52 374.72,-54.25 377.22,-52 374.72,-52 374.72,-52 374.72,-52 377.22,-52 374.72,-49.75 379.72,-52 379.72,-52"/>
</a>
</g>
</g>
<!-- Node4 -->
<g id="Node000004" class="node">
<title>Node4</title>
<g id="a_Node000004"><a xlink:href="../../dd/dab/classDeckStateManager.html#a231fc809c22df91ea071a89409da316a" target="_top" xlink:title="Handles updating state and emitting signals whenever the cards are modified.">
<polygon fill="white" stroke="#666666" points="740,-67 590,-67 590,-37 740,-37 740,-67"/>
<text text-anchor="start" x="598" y="-55" font-family="Helvetica,sans-Serif" font-size="10.00">DeckStateManager::doCard</text>
<text text-anchor="middle" x="665" y="-44" font-family="Helvetica,sans-Serif" font-size="10.00">Modified</text>
</a>
</g>
</g>
<!-- Node3&#45;&gt;Node4 -->
<g id="edge3_Node000003_Node000004" class="edge">
<title>Node3&#45;&gt;Node4</title>
<g id="a_edge3_Node000003_Node000004"><a xlink:title=" ">
<path fill="none" stroke="#63b8ff" d="M554.25,-52C564.4,-52 574.71,-52 584.76,-52"/>
<polygon fill="#63b8ff" stroke="#63b8ff" points="589.98,-52 584.98,-54.25 587.48,-52 584.98,-52 584.98,-52 584.98,-52 587.48,-52 584.98,-49.75 589.98,-52 589.98,-52"/>
</a>
</g>
</g>
<!-- Node5 -->
<g id="Node000005" class="node">
<title>Node5</title>
<g id="a_Node000005"><a xlink:href="../../dd/dab/classDeckStateManager.html#aa6c164ba04db772603ab41a92219b17f" target="_top" xlink:title=" ">
<polygon fill="white" stroke="#666666" points="956,-98.5 777,-98.5 777,-79.5 956,-79.5 956,-98.5"/>
<text text-anchor="middle" x="866.5" y="-86.5" font-family="Helvetica,sans-Serif" font-size="10.00">DeckStateManager::cardModified</text>
</a>
</g>
</g>
<!-- Node4&#45;&gt;Node5 -->
<g id="edge4_Node000004_Node000005" class="edge">
<title>Node4&#45;&gt;Node5</title>
<g id="a_edge4_Node000004_Node000005"><a xlink:title=" ">
<path fill="none" stroke="#63b8ff" d="M740,-65.72C762.79,-69.95 787.51,-74.54 808.93,-78.51"/>
<polygon fill="#63b8ff" stroke="#63b8ff" points="814.02,-79.45 808.69,-80.75 811.56,-79 809.1,-78.54 809.1,-78.54 809.1,-78.54 811.56,-79 809.51,-76.33 814.02,-79.45 814.02,-79.45"/>
</a>
</g>
</g>
<!-- Node6 -->
<g id="Node000006" class="node">
<title>Node6</title>
<g id="a_Node000006"><a xlink:href="../../dd/dab/classDeckStateManager.html#acb83f1b33c5e6b4daf99e917b7c46aa9" target="_top" xlink:title=" ">
<polygon fill="white" stroke="#666666" points="957,-61.5 776,-61.5 776,-42.5 957,-42.5 957,-61.5"/>
<text text-anchor="middle" x="866.5" y="-49.5" font-family="Helvetica,sans-Serif" font-size="10.00">DeckStateManager::deckModified</text>
</a>
</g>
</g>
<!-- Node4&#45;&gt;Node6 -->
<g id="edge5_Node000004_Node000006" class="edge">
<title>Node4&#45;&gt;Node6</title>
<g id="a_edge5_Node000004_Node000006"><a xlink:title=" ">
<path fill="none" stroke="#63b8ff" d="M740,-52C750.01,-52 760.39,-52 770.69,-52"/>
<polygon fill="#63b8ff" stroke="#63b8ff" points="775.74,-52 770.74,-54.25 773.24,-52 770.74,-52 770.74,-52 770.74,-52 773.24,-52 770.74,-49.75 775.74,-52 775.74,-52"/>
</a>
</g>
</g>
<!-- Node7 -->
<g id="Node000007" class="node">
<title>Node7</title>
<g id="a_Node000007"><a xlink:href="../../dd/dab/classDeckStateManager.html#a2b8582ad1977ed94c3fee0062f890786" target="_top" xlink:title="Sets the new isModified state, emitting a signal if the state changed. This class will automatically ...">
<polygon fill="white" stroke="#666666" points="953,-24.5 780,-24.5 780,-5.5 953,-5.5 953,-24.5"/>
<text text-anchor="middle" x="866.5" y="-12.5" font-family="Helvetica,sans-Serif" font-size="10.00">DeckStateManager::setModified</text>
</a>
</g>
</g>
<!-- Node4&#45;&gt;Node7 -->
<g id="edge6_Node000004_Node000007" class="edge">
<title>Node4&#45;&gt;Node7</title>
<g id="a_edge6_Node000004_Node000007"><a xlink:title=" ">
<path fill="none" stroke="#63b8ff" d="M740,-38.28C762.79,-34.05 787.51,-29.46 808.93,-25.49"/>
<polygon fill="#63b8ff" stroke="#63b8ff" points="814.02,-24.55 809.51,-27.67 811.56,-25 809.1,-25.46 809.1,-25.46 809.1,-25.46 811.56,-25 808.69,-23.25 814.02,-24.55 814.02,-24.55"/>
</a>
</g>
</g>
<!-- Node8 -->
<g id="Node000008" class="node">
<title>Node8</title>
<g id="a_Node000008"><a xlink:href="../../dd/dab/classDeckStateManager.html#a0cdd2896b20e4e113abcf9cc2fc051ed" target="_top" xlink:title=" ">
<polygon fill="white" stroke="#666666" points="1159,-30 993,-30 993,0 1159,0 1159,-30"/>
<text text-anchor="start" x="1001" y="-18" font-family="Helvetica,sans-Serif" font-size="10.00">DeckStateManager::isModified</text>
<text text-anchor="middle" x="1076" y="-7" font-family="Helvetica,sans-Serif" font-size="10.00">Changed</text>
</a>
</g>
</g>
<!-- Node7&#45;&gt;Node8 -->
<g id="edge7_Node000007_Node000008" class="edge">
<title>Node7&#45;&gt;Node8</title>
<g id="a_edge7_Node000007_Node000008"><a xlink:title=" ">
<path fill="none" stroke="#63b8ff" d="M953.1,-15C964.52,-15 976.25,-15 987.7,-15"/>
<polygon fill="#63b8ff" stroke="#63b8ff" points="992.94,-15 987.94,-17.25 990.44,-15 987.94,-15 987.94,-15 987.94,-15 990.44,-15 987.94,-12.75 992.94,-15 992.94,-15"/>
</a>
</g>
</g>
<!-- Node9 -->
<g id="Node000009" class="node">
<title>Node9</title>
<g id="a_Node000009"><a xlink:href="../../dd/dab/classDeckStateManager.html#a42b6a4c085c3b89cafb68d05a3043d78" target="_top" xlink:title="Checks if the deck has been modified since it was last saved.">
<polygon fill="white" stroke="#666666" points="1361,-24.5 1195,-24.5 1195,-5.5 1361,-5.5 1361,-24.5"/>
<text text-anchor="middle" x="1278" y="-12.5" font-family="Helvetica,sans-Serif" font-size="10.00">DeckStateManager::isModified</text>
</a>
</g>
</g>
<!-- Node8&#45;&gt;Node9 -->
<g id="edge8_Node000008_Node000009" class="edge">
<title>Node8&#45;&gt;Node9</title>
<g id="a_edge8_Node000008_Node000009"><a xlink:title=" ">
<path fill="none" stroke="#63b8ff" d="M1159.21,-15C1169.21,-15 1179.46,-15 1189.53,-15"/>
<polygon fill="#63b8ff" stroke="#63b8ff" points="1194.78,-15 1189.78,-17.25 1192.28,-15 1189.78,-15 1189.78,-15 1189.78,-15 1192.28,-15 1189.78,-12.75 1194.78,-15 1194.78,-15"/>
</a>
</g>
</g>
</g>
</svg>
