<?xml version="1.0" encoding="UTF-8" standalone="no"?>
<!DOCTYPE svg PUBLIC "-//W3C//DTD SVG 1.1//EN"
 "http://www.w3.org/Graphics/SVG/1.1/DTD/svg11.dtd">
<!-- Generated by graphviz version 2.43.0 (0)
 -->
<!-- Title: DeckStateManager::requestHistorySave Pages: 1 -->
<!--zoomable 185 -->

<svg id="main" version="1.1" xmlns="http://www.w3.org/2000/svg" xmlns:xlink="http://www.w3.org/1999/xlink" xml:space="preserve" onload="init(evt)">

<style type="text/css"><![CDATA[
.node, .edge {opacity: 0.7;}
.node.selected, .edge.selected {opacity: 1;}
.edge:hover path { stroke: red; }
.edge:hover polygon { stroke: red; fill: red; }
]]></style>

<defs>
  <circle id="rim" cx="0" cy="0" r="7"/>
  <circle id="rim2" cx="0" cy="0" r="3.5"/>
  <g id="zoomPlus">
    <use xlink:href="#rim" fill="#404040"><set attributeName="fill" to="#808080" begin="zoomplus.mouseover" end="zoomplus.mouseout"/></use>
    <path d="M-4,0h8M0,-4v8" fill="none" stroke="white" stroke-width="1.5" pointer-events="none"/>
  </g>
  <g id="zoomMin">
    <use xlink:href="#rim" fill="#404040"><set attributeName="fill" to="#808080" begin="zoomminus.mouseover" end="zoomminus.mouseout"/></use>
    <path d="M-4,0h8" fill="none" stroke="white" stroke-width="1.5" pointer-events="none"/>
  </g>
  <g id="arrowUp" transform="translate(30 24)">
    <use xlink:href="#rim"/>
    <path pointer-events="none" fill="none" stroke="white" stroke-width="1.5" d="M0,-3.0v7 M-2.5,-0.5L0,-3.0L2.5,-0.5"/>
  </g>
  <g id="arrowRight" transform="rotate(90) translate(36 -43)">
    <use xlink:href="#rim"/>
    <path pointer-events="none" fill="none" stroke="white" stroke-width="1.5" d="M0,-3.0v7 M-2.5,-0.5L0,-3.0L2.5,-0.5"/>
  </g>
  <g id="arrowDown" transform="rotate(180) translate(-30 -48)">
    <use xlink:href="#rim"/>
    <path pointer-events="none" fill="none" stroke="white" stroke-width="1.5" d="M0,-3.0v7 M-2.5,-0.5L0,-3.0L2.5,-0.5"/>
  </g>
  <g id="arrowLeft" transform="rotate(270) translate(-36 17)">
    <use xlink:href="#rim"/>
    <path pointer-events="none" fill="none" stroke="white" stroke-width="1.5" d="M0,-3.0v7 M-2.5,-0.5L0,-3.0L2.5,-0.5"/>
  </g>
  <g id="resetDef">
    <use xlink:href="#rim2" fill="#404040"><set attributeName="fill" to="#808080" begin="reset.mouseover" end="reset.mouseout"/></use>
  </g>
</defs>
<script type="application/ecmascript">
var viewWidth = 772;
var viewHeight = 185;
var sectionId = 'dynsection-31';
</script>
<script type="application/ecmascript" xlink:href="../../svg.min.js"/>
<svg id="graph" class="graph">
<g id="viewport">
<title>DeckStateManager::requestHistorySave</title>
<!-- Node1 -->
<g id="Node000001" class="node">
<title>Node1</title>
<g id="a_Node000001"><a xlink:title=" ">
<polygon fill="#999999" stroke="#666666" points="764,-108 612,-108 612,-78 764,-78 764,-108"/>
<text text-anchor="start" x="620" y="-96" font-family="Helvetica,sans-Serif" font-size="10.00">DeckStateManager::request</text>
<text text-anchor="middle" x="688" y="-85" font-family="Helvetica,sans-Serif" font-size="10.00">HistorySave</text>
</a>
</g>
</g>
<!-- Node2 -->
<g id="Node000002" class="node">
<title>Node2</title>
<g id="a_Node000002"><a xlink:href="../../dd/dab/classDeckStateManager.html#a577f309fdf221ca9c906e095fd7c593f" target="_top" xlink:title=" ">
<polygon fill="white" stroke="#666666" points="576,-176.5 388,-176.5 388,-157.5 576,-157.5 576,-176.5"/>
<text text-anchor="middle" x="482" y="-164.5" font-family="Helvetica,sans-Serif" font-size="10.00">DeckStateManager::setBannerCard</text>
</a>
</g>
</g>
<!-- Node1&#45;&gt;Node2 -->
<g id="edge1_Node000001_Node000002" class="edge">
<title>Node1&#45;&gt;Node2</title>
<g id="a_edge1_Node000001_Node000002"><a xlink:title=" ">
<path fill="none" stroke="#63b8ff" d="M657.35,-110.8C635.54,-123.18 604.79,-139.16 576,-149 566.2,-152.35 555.58,-155.14 545.16,-157.45"/>
<polygon fill="#63b8ff" stroke="#63b8ff" points="661.86,-108.22 658.64,-112.65 659.69,-109.46 657.52,-110.7 657.52,-110.7 657.52,-110.7 659.69,-109.46 656.41,-108.75 661.86,-108.22 661.86,-108.22"/>
</a>
</g>
</g>
<!-- Node3 -->
<g id="Node000003" class="node">
<title>Node3</title>
<g id="a_Node000003"><a xlink:href="../../dd/dab/classDeckStateManager.html#a49e65eff1afa3a312c287b8a8a12571e" target="_top" xlink:title=" ">
<polygon fill="white" stroke="#666666" points="574,-139.5 390,-139.5 390,-120.5 574,-120.5 574,-139.5"/>
<text text-anchor="middle" x="482" y="-127.5" font-family="Helvetica,sans-Serif" font-size="10.00">DeckStateManager::setComments</text>
</a>
</g>
</g>
<!-- Node1&#45;&gt;Node3 -->
<g id="edge2_Node000001_Node000003" class="edge">
<title>Node1&#45;&gt;Node3</title>
<g id="a_edge2_Node000001_Node000003"><a xlink:title=" ">
<path fill="none" stroke="#63b8ff" d="M606.83,-107.54C582.91,-111.88 557.31,-116.52 535.63,-120.45"/>
<polygon fill="#63b8ff" stroke="#63b8ff" points="611.91,-106.62 607.39,-109.73 609.45,-107.07 606.99,-107.51 606.99,-107.51 606.99,-107.51 609.45,-107.07 606.59,-105.3 611.91,-106.62 611.91,-106.62"/>
</a>
</g>
</g>
<!-- Node4 -->
<g id="Node000004" class="node">
<title>Node4</title>
<g id="a_Node000004"><a xlink:href="../../dd/dab/classDeckStateManager.html#a4acd90062615b7218322fdb58450039c" target="_top" xlink:title=" ">
<polygon fill="white" stroke="#666666" points="564.5,-102.5 399.5,-102.5 399.5,-83.5 564.5,-83.5 564.5,-102.5"/>
<text text-anchor="middle" x="482" y="-90.5" font-family="Helvetica,sans-Serif" font-size="10.00">DeckStateManager::setFormat</text>
</a>
</g>
</g>
<!-- Node1&#45;&gt;Node4 -->
<g id="edge3_Node000001_Node000004" class="edge">
<title>Node1&#45;&gt;Node4</title>
<g id="a_edge3_Node000001_Node000004"><a xlink:title=" ">
<path fill="none" stroke="#63b8ff" d="M606.85,-93C593.03,-93 578.66,-93 564.8,-93"/>
<polygon fill="#63b8ff" stroke="#63b8ff" points="611.91,-93 606.91,-95.25 609.41,-93 606.91,-93 606.91,-93 606.91,-93 609.41,-93 606.91,-90.75 611.91,-93 611.91,-93"/>
</a>
</g>
</g>
<!-- Node5 -->
<g id="Node000005" class="node">
<title>Node5</title>
<g id="a_Node000005"><a xlink:href="../../dd/dab/classDeckStateManager.html#ab6fa2882e597d4211eb934d1fdf8e99c" target="_top" xlink:title=" ">
<polygon fill="white" stroke="#666666" points="562,-65.5 402,-65.5 402,-46.5 562,-46.5 562,-65.5"/>
<text text-anchor="middle" x="482" y="-53.5" font-family="Helvetica,sans-Serif" font-size="10.00">DeckStateManager::setName</text>
</a>
</g>
</g>
<!-- Node1&#45;&gt;Node5 -->
<g id="edge4_Node000001_Node000005" class="edge">
<title>Node1&#45;&gt;Node5</title>
<g id="a_edge4_Node000001_Node000005"><a xlink:title=" ">
<path fill="none" stroke="#63b8ff" d="M606.83,-78.46C582.91,-74.12 557.31,-69.48 535.63,-65.55"/>
<polygon fill="#63b8ff" stroke="#63b8ff" points="611.91,-79.38 606.59,-80.7 609.45,-78.93 606.99,-78.49 606.99,-78.49 606.99,-78.49 609.45,-78.93 607.39,-76.27 611.91,-79.38 611.91,-79.38"/>
</a>
</g>
</g>
<!-- Node7 -->
<g id="Node000007" class="node">
<title>Node7</title>
<g id="a_Node000007"><a xlink:href="../../dd/dab/classDeckStateManager.html#a73a56c587e7d759cac07325f2672f02a" target="_top" xlink:title=" ">
<polygon fill="white" stroke="#666666" points="558,-27.5 406,-27.5 406,-8.5 558,-8.5 558,-27.5"/>
<text text-anchor="middle" x="482" y="-15.5" font-family="Helvetica,sans-Serif" font-size="10.00">DeckStateManager::setTags</text>
</a>
</g>
</g>
<!-- Node1&#45;&gt;Node7 -->
<g id="edge6_Node000001_Node000007" class="edge">
<title>Node1&#45;&gt;Node7</title>
<g id="a_edge6_Node000001_Node000007"><a xlink:title=" ">
<path fill="none" stroke="#63b8ff" d="M657.32,-75.29C635.49,-62.96 604.74,-46.99 576,-37 565.1,-33.21 553.21,-30.08 541.69,-27.52"/>
<polygon fill="#63b8ff" stroke="#63b8ff" points="661.84,-77.86 656.38,-77.34 659.66,-76.63 657.49,-75.39 657.49,-75.39 657.49,-75.39 659.66,-76.63 658.6,-73.43 661.84,-77.86 661.84,-77.86"/>
</a>
</g>
</g>
<!-- Node6 -->
<g id="Node000006" class="node">
<title>Node6</title>
<g id="a_Node000006"><a xlink:href="../../dd/dab/classDeckStateManager.html#a2676714f994e6e30d44d6a13b1529020" target="_top" xlink:title="Adds the given card to the given zone. Saves the operation to history if successful.">
<polygon fill="white" stroke="#666666" points="352,-67.5 196,-67.5 196,-48.5 352,-48.5 352,-67.5"/>
<text text-anchor="middle" x="274" y="-55.5" font-family="Helvetica,sans-Serif" font-size="10.00">DeckStateManager::addCard</text>
</a>
</g>
</g>
<!-- Node5&#45;&gt;Node6 -->
<g id="edge5_Node000005_Node000006" class="edge">
<title>Node5&#45;&gt;Node6</title>
<g id="a_edge5_Node000005_Node000006"><a xlink:title=" ">
<path fill="none" stroke="#63b8ff" d="M396.94,-56.82C382.12,-56.96 366.76,-57.11 352.15,-57.25"/>
<polygon fill="#63b8ff" stroke="#63b8ff" points="401.94,-56.77 396.97,-59.07 399.44,-56.79 396.94,-56.82 396.94,-56.82 396.94,-56.82 399.44,-56.79 396.92,-54.57 401.94,-56.77 401.94,-56.77"/>
</a>
</g>
</g>
<!-- Node8 -->
<g id="Node000008" class="node">
<title>Node8</title>
<g id="a_Node000008"><a xlink:href="../../d9/df7/classDeckEditorDeckDockWidget.html#af0d083e7f607e47b3fc22a45957c6a6a" target="_top" xlink:title=" ">
<polygon fill="white" stroke="#666666" points="351,-30 197,-30 197,0 351,0 351,-30"/>
<text text-anchor="start" x="205" y="-18" font-family="Helvetica,sans-Serif" font-size="10.00">DeckEditorDeckDockWidget</text>
<text text-anchor="middle" x="274" y="-7" font-family="Helvetica,sans-Serif" font-size="10.00">::createDeckDock</text>
</a>
</g>
</g>
<!-- Node7&#45;&gt;Node8 -->
<g id="edge7_Node000007_Node000008" class="edge">
<title>Node7&#45;&gt;Node8</title>
<g id="a_edge7_Node000007_Node000008"><a xlink:title=" ">
<path fill="none" stroke="#63b8ff" d="M400.71,-16.83C384.39,-16.59 367.25,-16.34 351.08,-16.11"/>
<polygon fill="#63b8ff" stroke="#63b8ff" points="405.75,-16.9 400.72,-19.08 403.26,-16.87 400.76,-16.83 400.76,-16.83 400.76,-16.83 403.26,-16.87 400.79,-14.58 405.75,-16.9 405.75,-16.9"/>
</a>
</g>
</g>
<!-- Node9 -->
<g id="Node000009" class="node">
<title>Node9</title>
<g id="a_Node000009"><a xlink:href="../../d9/df7/classDeckEditorDeckDockWidget.html#a5622dc70448c02427ce3511f07a8531c" target="_top" xlink:title=" ">
<polygon fill="white" stroke="#666666" points="160,-30 0,-30 0,0 160,0 160,-30"/>
<text text-anchor="start" x="8" y="-18" font-family="Helvetica,sans-Serif" font-size="10.00">DeckEditorDeckDockWidget</text>
<text text-anchor="middle" x="80" y="-7" font-family="Helvetica,sans-Serif" font-size="10.00">::DeckEditorDeckDockWidget</text>
</a>
</g>
</g>
<!-- Node8&#45;&gt;Node9 -->
<g id="edge8_Node000008_Node000009" class="edge">
<title>Node8&#45;&gt;Node9</title>
<g id="a_edge8_Node000008_Node000009"><a xlink:title=" ">
<path fill="none" stroke="#63b8ff" d="M191.74,-15C181.3,-15 170.62,-15 160.22,-15"/>
<polygon fill="#63b8ff" stroke="#63b8ff" points="196.84,-15 191.84,-17.25 194.34,-15 191.84,-15 191.84,-15 191.84,-15 194.34,-15 191.84,-12.75 196.84,-15 196.84,-15"/>
</a>
</g>
</g>
</g>
</svg>

<g id="navigator" transform="translate(0 0)" fill="#404254">
  <rect fill="#f2f5e9" fill-opacity="0.5" stroke="#606060" stroke-width=".5" x="0" y="0" width="60" height="60"/>
  <use id="zoomplus" xlink:href="#zoomPlus" x="17" y="9" onmousedown="handleZoom(evt,'in')"/>
  <use id="zoomminus" xlink:href="#zoomMin" x="42" y="9" onmousedown="handleZoom(evt,'out')"/>
  <use id="reset" xlink:href="#resetDef" x="30" y="36" onmousedown="handleReset()"/>
   <use id="arrowup" xlink:href="#arrowUp" x="0" y="0" onmousedown="handlePan(0,-1)"/>
  <use id="arrowright" xlink:href="#arrowRight" x="0" y="0" onmousedown="handlePan(1,0)"/>
  <use id="arrowdown" xlink:href="#arrowDown" x="0" y="0" onmousedown="handlePan(0,1)"/>
  <use id="arrowleft" xlink:href="#arrowLeft" x="0" y="0" onmousedown="handlePan(-1,0)"/>
</g>
<svg viewBox="0 0 15 15" width="100%" height="30px" preserveAspectRatio="xMaxYMin meet">
 <g id="arrow_out" transform="scale(0.3 0.3)">
  <a xlink:href="classDeckStateManager_aa911a0c2c9586b6fb0293b31cc6cdb67_icgraph_org.svg" target="_base">
   <rect id="button" ry="5" rx="5" y="6" x="6" height="38" width="38"
        fill="#f2f5e9" fill-opacity="0.5" stroke="#606060" stroke-width="1.0"/>
   <path id="arrow"
     d="M 11.500037,31.436501 C 11.940474,20.09759 22.043105,11.32322 32.158766,21.979434 L 37.068811,17.246167 C 37.068811,17.246167 37.088388,32 37.088388,32 L 22.160133,31.978069 C 22.160133,31.978069 26.997745,27.140456 26.997745,27.140456 C 18.528582,18.264221 13.291696,25.230495 11.500037,31.436501 z"
     style="fill:#404040;"/>
  </a>
 </g>
</svg>

<style type='text/css'>
<![CDATA[
[data-mouse-over-selected='false'] { opacity: 0.7; }
[data-mouse-over-selected='true']  { opacity: 1.0; }
]]>
</style>
<script type="application/ecmascript"><![CDATA[
document.addEventListener('DOMContentLoaded', (event) => {
  highlightEdges();
  highlightAdjacentNodes();
});
]]></script>
</svg>
