<?xml version="1.0" encoding="UTF-8" standalone="no"?>
<!DOCTYPE svg PUBLIC "-//W3C//DTD SVG 1.1//EN"
 "http://www.w3.org/Graphics/SVG/1.1/DTD/svg11.dtd">
<!-- Generated by graphviz version 2.43.0 (0)
 -->
<!-- Title: DecklistCardNode::setCardCollectorNumber Pages: 1 -->
<svg width="377pt" height="86pt"
 viewBox="0.00 0.00 377.00 86.00" xmlns="http://www.w3.org/2000/svg" xmlns:xlink="http://www.w3.org/1999/xlink">

<svg id="main" version="1.1" xmlns="http://www.w3.org/2000/svg" xmlns:xlink="http://www.w3.org/1999/xlink" xml:space="preserve">

<style type="text/css"><![CDATA[
.node, .edge {opacity: 0.7;}
.node.selected, .edge.selected {opacity: 1;}
.edge:hover path { stroke: red; }
.edge:hover polygon { stroke: red; fill: red; }
]]></style>
<script type="application/ecmascript" xlink:href="../../svg.min.js"/>
<svg id="graph" class="graph">
<g id="graph0" class="graph" transform="scale(1 1) rotate(0) translate(4 82)">
<title>DecklistCardNode::setCardCollectorNumber</title>
<!-- Node1 -->
<g id="Node000001" class="node">
<title>Node1</title>
<g id="a_Node000001"><a xlink:title=" ">
<polygon fill="#999999" stroke="#666666" points="369,-54 221,-54 221,-24 369,-24 369,-54"/>
<text text-anchor="start" x="229" y="-42" font-family="Helvetica,sans-Serif" font-size="10.00">DecklistCardNode::setCard</text>
<text text-anchor="middle" x="295" y="-31" font-family="Helvetica,sans-Serif" font-size="10.00">CollectorNumber</text>
</a>
</g>
</g>
<!-- Node2 -->
<g id="Node000002" class="node">
<title>Node2</title>
<g id="a_Node000002"><a xlink:href="../../d5/d31/structClearSetNameNumberAndProviderId.html#acc0768e7f533128a49c75cebab2b4b78" target="_top" xlink:title=" ">
<polygon fill="white" stroke="#666666" points="185,-78 0,-78 0,-48 185,-48 185,-78"/>
<text text-anchor="start" x="8" y="-66" font-family="Helvetica,sans-Serif" font-size="10.00">ClearSetNameNumberAndProvider</text>
<text text-anchor="middle" x="92.5" y="-55" font-family="Helvetica,sans-Serif" font-size="10.00">Id::operator()</text>
</a>
</g>
</g>
<!-- Node1&#45;&gt;Node2 -->
<g id="edge1_Node000001_Node000002" class="edge">
<title>Node1&#45;&gt;Node2</title>
<g id="a_edge1_Node000001_Node000002"><a xlink:title=" ">
<path fill="none" stroke="#63b8ff" d="M215.6,-48.38C205.67,-49.57 195.44,-50.8 185.33,-52.01"/>
<polygon fill="#63b8ff" stroke="#63b8ff" points="220.76,-47.77 216.07,-50.59 218.28,-48.06 215.8,-48.36 215.8,-48.36 215.8,-48.36 218.28,-48.06 215.53,-46.13 220.76,-47.77 220.76,-47.77"/>
</a>
</g>
</g>
<!-- Node3 -->
<g id="Node000003" class="node">
<title>Node3</title>
<g id="a_Node000003"><a xlink:href="../../de/d75/structSetProviderIdToPreferred.html#aadd42076aa0a83b1dc1ee39e81d76200" target="_top" xlink:title=" ">
<polygon fill="white" stroke="#666666" points="161,-30 24,-30 24,0 161,0 161,-30"/>
<text text-anchor="start" x="32" y="-18" font-family="Helvetica,sans-Serif" font-size="10.00">SetProviderIdToPreferred</text>
<text text-anchor="middle" x="92.5" y="-7" font-family="Helvetica,sans-Serif" font-size="10.00">::operator()</text>
</a>
</g>
</g>
<!-- Node1&#45;&gt;Node3 -->
<g id="edge2_Node000001_Node000003" class="edge">
<title>Node1&#45;&gt;Node3</title>
<g id="a_edge2_Node000001_Node000003"><a xlink:title=" ">
<path fill="none" stroke="#63b8ff" d="M215.72,-29.63C197.71,-27.47 178.72,-25.2 161.21,-23.11"/>
<polygon fill="#63b8ff" stroke="#63b8ff" points="220.76,-30.23 215.53,-31.87 218.28,-29.94 215.8,-29.64 215.8,-29.64 215.8,-29.64 218.28,-29.94 216.07,-27.41 220.76,-30.23 220.76,-30.23"/>
</a>
</g>
</g>
</g>
</svg>
</svg>

<style type='text/css'>
<![CDATA[
[data-mouse-over-selected='false'] { opacity: 0.7; }
[data-mouse-over-selected='true']  { opacity: 1.0; }
]]>
</style>
<script type="application/ecmascript"><![CDATA[
document.addEventListener('DOMContentLoaded', (event) => {
  highlightEdges();
  highlightAdjacentNodes();
});
]]></script>
</svg>
