<?xml version="1.0" encoding="UTF-8" standalone="no"?>
<!DOCTYPE svg PUBLIC "-//W3C//DTD SVG 1.1//EN"
 "http://www.w3.org/Graphics/SVG/1.1/DTD/svg11.dtd">
<!-- Generated by graphviz version 2.43.0 (0)
 -->
<!-- Title: IntentOpenSharedDeck::startDownloads Pages: 1 -->
<svg width="475pt" height="38pt"
 viewBox="0.00 0.00 475.00 38.00" xmlns="http://www.w3.org/2000/svg" xmlns:xlink="http://www.w3.org/1999/xlink">
<g id="graph0" class="graph" transform="scale(1 1) rotate(0) translate(4 34)">
<title>IntentOpenSharedDeck::startDownloads</title>
<!-- Node1 -->
<g id="Node000001" class="node">
<title>Node1</title>
<g id="a_Node000001"><a xlink:title=" ">
<polygon fill="#999999" stroke="#666666" points="467,-30 338,-30 338,0 467,0 467,-30"/>
<text text-anchor="start" x="346" y="-18" font-family="Helvetica,sans-Serif" font-size="10.00">IntentOpenSharedDeck</text>
<text text-anchor="middle" x="402.5" y="-7" font-family="Helvetica,sans-Serif" font-size="10.00">::startDownloads</text>
</a>
</g>
</g>
<!-- Node2 -->
<g id="Node000002" class="node">
<title>Node2</title>
<g id="a_Node000002"><a xlink:href="../../df/d3e/classIntentOpenSharedDeck.html#a7a89793d7952e5e039acfdf8e58c0377" target="_top" xlink:title=" ">
<polygon fill="white" stroke="#666666" points="302,-30 173,-30 173,0 302,0 302,-30"/>
<text text-anchor="start" x="181" y="-18" font-family="Helvetica,sans-Serif" font-size="10.00">IntentOpenSharedDeck</text>
<text text-anchor="middle" x="237.5" y="-7" font-family="Helvetica,sans-Serif" font-size="10.00">::listShareFinished</text>
</a>
</g>
</g>
<!-- Node1&#45;&gt;Node2 -->
<g id="edge1_Node000001_Node000002" class="edge">
<title>Node1&#45;&gt;Node2</title>
<g id="a_edge1_Node000001_Node000002"><a xlink:title=" ">
<path fill="none" stroke="#63b8ff" d="M332.31,-15C322.25,-15 311.94,-15 302,-15"/>
<polygon fill="#63b8ff" stroke="#63b8ff" points="337.55,-15 332.55,-17.25 335.05,-15 332.55,-15 332.55,-15 332.55,-15 335.05,-15 332.55,-12.75 337.55,-15 337.55,-15"/>
</a>
</g>
</g>
<!-- Node3 -->
<g id="Node000003" class="node">
<title>Node3</title>
<g id="a_Node000003"><a xlink:href="../../df/d3e/classIntentOpenSharedDeck.html#a74b9a1347cb444e9d29593856daeb8ca" target="_top" xlink:title=" ">
<polygon fill="white" stroke="#666666" points="137,-30 0,-30 0,0 137,0 137,-30"/>
<text text-anchor="start" x="8" y="-18" font-family="Helvetica,sans-Serif" font-size="10.00">IntentOpenSharedDeck</text>
<text text-anchor="middle" x="68.5" y="-7" font-family="Helvetica,sans-Serif" font-size="10.00">::onPreconditionSatisfied</text>
</a>
</g>
</g>
<!-- Node2&#45;&gt;Node3 -->
<g id="edge2_Node000002_Node000003" class="edge">
<title>Node2&#45;&gt;Node3</title>
<g id="a_edge2_Node000002_Node000003"><a xlink:title=" ">
<path fill="none" stroke="#63b8ff" d="M167.64,-15C157.55,-15 147.17,-15 137.1,-15"/>
<polygon fill="#63b8ff" stroke="#63b8ff" points="172.89,-15 167.89,-17.25 170.39,-15 167.89,-15 167.89,-15 167.89,-15 170.39,-15 167.89,-12.75 172.89,-15 172.89,-15"/>
</a>
</g>
</g>
</g>
</svg>
