<?xml version="1.0" encoding="UTF-8" standalone="no"?>
<!DOCTYPE svg PUBLIC "-//W3C//DTD SVG 1.1//EN"
 "http://www.w3.org/Graphics/SVG/1.1/DTD/svg11.dtd">
<!-- Generated by graphviz version 2.43.0 (0)
 -->
<!-- Title: SettingsCache::cardDatabase Pages: 1 -->
<svg width="538pt" height="187pt"
 viewBox="0.00 0.00 538.00 186.50" xmlns="http://www.w3.org/2000/svg" xmlns:xlink="http://www.w3.org/1999/xlink">
<g id="graph0" class="graph" transform="scale(1 1) rotate(0) translate(4 182.5)">
<title>SettingsCache::cardDatabase</title>
<!-- Node1 -->
<g id="Node000001" class="node">
<title>Node1</title>
<g id="a_Node000001"><a xlink:title=" ">
<polygon fill="#999999" stroke="#666666" points="530,-104.5 370,-104.5 370,-85.5 530,-85.5 530,-104.5"/>
<text text-anchor="middle" x="450" y="-92.5" font-family="Helvetica,sans-Serif" font-size="10.00">SettingsCache::cardDatabase</text>
</a>
</g>
</g>
<!-- Node2 -->
<g id="Node000002" class="node">
<title>Node2</title>
<g id="a_Node000002"><a xlink:href="../../d6/d3d/classCardSet.html#aac8f4705062d24c60f31b02617a931f4" target="_top" xlink:title=" ">
<polygon fill="white" stroke="#666666" points="333.5,-178.5 198.5,-178.5 198.5,-159.5 333.5,-159.5 333.5,-178.5"/>
<text text-anchor="middle" x="266" y="-166.5" font-family="Helvetica,sans-Serif" font-size="10.00">CardSet::loadSetOptions</text>
</a>
</g>
</g>
<!-- Node1&#45;&gt;Node2 -->
<g id="edge1_Node000001_Node000002" class="edge">
<title>Node1&#45;&gt;Node2</title>
<g id="a_edge1_Node000001_Node000002"><a xlink:title=" ">
<path fill="none" stroke="#63b8ff" d="M427.3,-107.12C404.57,-119.44 367.59,-138.44 334,-151 325.54,-154.16 316.28,-157.02 307.43,-159.47"/>
<polygon fill="#63b8ff" stroke="#63b8ff" points="431.92,-104.6 428.61,-108.97 429.73,-105.8 427.53,-106.99 427.53,-106.99 427.53,-106.99 429.73,-105.8 426.45,-105.02 431.92,-104.6 431.92,-104.6"/>
</a>
</g>
</g>
<!-- Node4 -->
<g id="Node000004" class="node">
<title>Node4</title>
<g id="a_Node000004"><a xlink:href="../../d6/d3d/classCardSet.html#a7a8b69b1e7d68bfc8e49ec8259f6185a" target="_top" xlink:title=" ">
<polygon fill="white" stroke="#666666" points="323.5,-141.5 208.5,-141.5 208.5,-122.5 323.5,-122.5 323.5,-141.5"/>
<text text-anchor="middle" x="266" y="-129.5" font-family="Helvetica,sans-Serif" font-size="10.00">CardSet::setEnabled</text>
</a>
</g>
</g>
<!-- Node1&#45;&gt;Node4 -->
<g id="edge3_Node000001_Node000004" class="edge">
<title>Node1&#45;&gt;Node4</title>
<g id="a_edge3_Node000001_Node000004"><a xlink:title=" ">
<path fill="none" stroke="#63b8ff" d="M396.98,-105.58C370.85,-110.89 339.43,-117.28 314.03,-122.44"/>
<polygon fill="#63b8ff" stroke="#63b8ff" points="402.13,-104.53 397.68,-107.73 399.68,-105.03 397.23,-105.52 397.23,-105.52 397.23,-105.52 399.68,-105.03 396.78,-103.32 402.13,-104.53 402.13,-104.53"/>
</a>
</g>
</g>
<!-- Node5 -->
<g id="Node000005" class="node">
<title>Node5</title>
<g id="a_Node000005"><a xlink:href="../../d6/d3d/classCardSet.html#a45cc252c2f6872a39cb4e3f44f641455" target="_top" xlink:title=" ">
<polygon fill="white" stroke="#666666" points="324.5,-104.5 207.5,-104.5 207.5,-85.5 324.5,-85.5 324.5,-104.5"/>
<text text-anchor="middle" x="266" y="-92.5" font-family="Helvetica,sans-Serif" font-size="10.00">CardSet::setIsKnown</text>
</a>
</g>
</g>
<!-- Node1&#45;&gt;Node5 -->
<g id="edge4_Node000001_Node000005" class="edge">
<title>Node1&#45;&gt;Node5</title>
<g id="a_edge4_Node000001_Node000005"><a xlink:title=" ">
<path fill="none" stroke="#63b8ff" d="M364.95,-95C351.29,-95 337.43,-95 324.59,-95"/>
<polygon fill="#63b8ff" stroke="#63b8ff" points="369.97,-95 364.97,-97.25 367.47,-95 364.97,-95 364.97,-95 364.97,-95 367.47,-95 364.97,-92.75 369.97,-95 369.97,-95"/>
</a>
</g>
</g>
<!-- Node6 -->
<g id="Node000006" class="node">
<title>Node6</title>
<g id="a_Node000006"><a xlink:href="../../d6/d3d/classCardSet.html#a13ec54ce195fc6e7eea6d4d123fe5248" target="_top" xlink:title=" ">
<polygon fill="white" stroke="#666666" points="322.5,-67.5 209.5,-67.5 209.5,-48.5 322.5,-48.5 322.5,-67.5"/>
<text text-anchor="middle" x="266" y="-55.5" font-family="Helvetica,sans-Serif" font-size="10.00">CardSet::setSortKey</text>
</a>
</g>
</g>
<!-- Node1&#45;&gt;Node6 -->
<g id="edge5_Node000001_Node000006" class="edge">
<title>Node1&#45;&gt;Node6</title>
<g id="a_edge5_Node000001_Node000006"><a xlink:title=" ">
<path fill="none" stroke="#63b8ff" d="M396.98,-84.42C370.85,-79.11 339.43,-72.72 314.03,-67.56"/>
<polygon fill="#63b8ff" stroke="#63b8ff" points="402.13,-85.47 396.78,-86.68 399.68,-84.97 397.23,-84.48 397.23,-84.48 397.23,-84.48 399.68,-84.97 397.68,-82.27 402.13,-85.47 402.13,-85.47"/>
</a>
</g>
</g>
<!-- Node7 -->
<g id="Node000007" class="node">
<title>Node7</title>
<g id="a_Node000007"><a xlink:href="../../d5/d88/classSettingsCache.html#a551fa1f2049b53d0d40bc64f0793db0e" target="_top" xlink:title=" ">
<polygon fill="white" stroke="#666666" points="334,-30 198,-30 198,0 334,0 334,-30"/>
<text text-anchor="start" x="206" y="-18" font-family="Helvetica,sans-Serif" font-size="10.00">SettingsCache::translate</text>
<text text-anchor="middle" x="266" y="-7" font-family="Helvetica,sans-Serif" font-size="10.00">LegacySettings</text>
</a>
</g>
</g>
<!-- Node1&#45;&gt;Node7 -->
<g id="edge6_Node000001_Node000007" class="edge">
<title>Node1&#45;&gt;Node7</title>
<g id="a_edge6_Node000001_Node000007"><a xlink:title=" ">
<path fill="none" stroke="#63b8ff" d="M426.27,-83.02C403.32,-71.14 366.67,-52.76 334,-39 326.71,-35.93 318.88,-32.9 311.23,-30.07"/>
<polygon fill="#63b8ff" stroke="#63b8ff" points="430.96,-85.45 425.49,-85.14 428.74,-84.3 426.52,-83.15 426.52,-83.15 426.52,-83.15 428.74,-84.3 427.56,-81.15 430.96,-85.45 430.96,-85.45"/>
</a>
</g>
</g>
<!-- Node3 -->
<g id="Node000003" class="node">
<title>Node3</title>
<g id="a_Node000003"><a xlink:href="../../d6/d3d/classCardSet.html#aedde182fcaf60408a496b62209eb5f23" target="_top" xlink:title=" ">
<polygon fill="white" stroke="#666666" points="130.5,-178.5 31.5,-178.5 31.5,-159.5 130.5,-159.5 130.5,-178.5"/>
<text text-anchor="middle" x="81" y="-166.5" font-family="Helvetica,sans-Serif" font-size="10.00">CardSet::CardSet</text>
</a>
</g>
</g>
<!-- Node2&#45;&gt;Node3 -->
<g id="edge2_Node000002_Node000003" class="edge">
<title>Node2&#45;&gt;Node3</title>
<g id="a_edge2_Node000002_Node000003"><a xlink:title=" ">
<path fill="none" stroke="#63b8ff" d="M193.4,-169C172.41,-169 149.96,-169 130.75,-169"/>
<polygon fill="#63b8ff" stroke="#63b8ff" points="198.42,-169 193.42,-171.25 195.92,-169 193.42,-169 193.42,-169 193.42,-169 195.92,-169 193.42,-166.75 198.42,-169 198.42,-169"/>
</a>
</g>
</g>
<!-- Node8 -->
<g id="Node000008" class="node">
<title>Node8</title>
<g id="a_Node000008"><a xlink:href="../../d5/d88/classSettingsCache.html#a123df429cbb9f9aebff30f35e1d80685" target="_top" xlink:title=" ">
<polygon fill="white" stroke="#666666" points="162,-24.5 0,-24.5 0,-5.5 162,-5.5 162,-24.5"/>
<text text-anchor="middle" x="81" y="-12.5" font-family="Helvetica,sans-Serif" font-size="10.00">SettingsCache::SettingsCache</text>
</a>
</g>
</g>
<!-- Node7&#45;&gt;Node8 -->
<g id="edge7_Node000007_Node000008" class="edge">
<title>Node7&#45;&gt;Node8</title>
<g id="a_edge7_Node000007_Node000008"><a xlink:title=" ">
<path fill="none" stroke="#63b8ff" d="M192.68,-15C182.65,-15 172.3,-15 162.14,-15"/>
<polygon fill="#63b8ff" stroke="#63b8ff" points="197.9,-15 192.9,-17.25 195.4,-15 192.9,-15 192.9,-15 192.9,-15 195.4,-15 192.9,-12.75 197.9,-15 197.9,-15"/>
</a>
</g>
</g>
</g>
</svg>
