<?xml version="1.0" encoding="UTF-8" standalone="no"?>
<!DOCTYPE svg PUBLIC "-//W3C//DTD SVG 1.1//EN"
 "http://www.w3.org/Graphics/SVG/1.1/DTD/svg11.dtd">
<!-- Generated by graphviz version 2.43.0 (0)
 -->
<!-- Title: SettingsCache::setTabVisualDeckStorageOpen Pages: 1 -->
<svg width="545pt" height="38pt"
 viewBox="0.00 0.00 545.00 38.00" xmlns="http://www.w3.org/2000/svg" xmlns:xlink="http://www.w3.org/1999/xlink">
<g id="graph0" class="graph" transform="scale(1 1) rotate(0) translate(4 34)">
<title>SettingsCache::setTabVisualDeckStorageOpen</title>
<!-- Node1 -->
<g id="Node000001" class="node">
<title>Node1</title>
<g id="a_Node000001"><a xlink:title=" ">
<polygon fill="#999999" stroke="#666666" points="537,-30 383,-30 383,0 537,0 537,-30"/>
<text text-anchor="start" x="391" y="-18" font-family="Helvetica,sans-Serif" font-size="10.00">SettingsCache::setTabVisual</text>
<text text-anchor="middle" x="460" y="-7" font-family="Helvetica,sans-Serif" font-size="10.00">DeckStorageOpen</text>
</a>
</g>
</g>
<!-- Node2 -->
<g id="Node000002" class="node">
<title>Node2</title>
<g id="a_Node000002"><a xlink:href="../../dd/d81/classTabSupervisor.html#a35411c5c05b38ab39d4a9dc0cc26a75e" target="_top" xlink:title=" ">
<polygon fill="white" stroke="#666666" points="347,-30 195,-30 195,0 347,0 347,-30"/>
<text text-anchor="start" x="203" y="-18" font-family="Helvetica,sans-Serif" font-size="10.00">TabSupervisor::actTabVisual</text>
<text text-anchor="middle" x="271" y="-7" font-family="Helvetica,sans-Serif" font-size="10.00">DeckStorage</text>
</a>
</g>
</g>
<!-- Node1&#45;&gt;Node2 -->
<g id="edge1_Node000001_Node000002" class="edge">
<title>Node1&#45;&gt;Node2</title>
<g id="a_edge1_Node000001_Node000002"><a xlink:title=" ">
<path fill="none" stroke="#63b8ff" d="M377.93,-15C367.68,-15 357.23,-15 347.08,-15"/>
<polygon fill="#63b8ff" stroke="#63b8ff" points="382.94,-15 377.94,-17.25 380.44,-15 377.94,-15 377.94,-15 377.94,-15 380.44,-15 377.94,-12.75 382.94,-15 382.94,-15"/>
</a>
</g>
</g>
<!-- Node3 -->
<g id="Node000003" class="node">
<title>Node3</title>
<g id="a_Node000003"><a xlink:href="../../dd/d81/classTabSupervisor.html#a5e6baf23ec25ba9c7d95138c2b76b234" target="_top" xlink:title=" ">
<polygon fill="white" stroke="#666666" points="159,-24.5 0,-24.5 0,-5.5 159,-5.5 159,-24.5"/>
<text text-anchor="middle" x="79.5" y="-12.5" font-family="Helvetica,sans-Serif" font-size="10.00">TabSupervisor::TabSupervisor</text>
</a>
</g>
</g>
<!-- Node2&#45;&gt;Node3 -->
<g id="edge2_Node000002_Node000003" class="edge">
<title>Node2&#45;&gt;Node3</title>
<g id="a_edge2_Node000002_Node000003"><a xlink:title=" ">
<path fill="none" stroke="#63b8ff" d="M189.61,-15C179.57,-15 169.32,-15 159.31,-15"/>
<polygon fill="#63b8ff" stroke="#63b8ff" points="194.83,-15 189.83,-17.25 192.33,-15 189.83,-15 189.83,-15 189.83,-15 192.33,-15 189.83,-12.75 194.83,-15 194.83,-15"/>
</a>
</g>
</g>
</g>
</svg>
