<?xml version="1.0" encoding="UTF-8" standalone="no"?>
<!DOCTYPE svg PUBLIC "-//W3C//DTD SVG 1.1//EN"
 "http://www.w3.org/Graphics/SVG/1.1/DTD/svg11.dtd">
<!-- Generated by graphviz version 2.43.0 (0)
 -->
<!-- Title: CardPictureLoader::getCardBackPixmap Pages: 1 -->
<svg width="689pt" height="142pt"
 viewBox="0.00 0.00 689.00 141.50" xmlns="http://www.w3.org/2000/svg" xmlns:xlink="http://www.w3.org/1999/xlink">
<g id="graph0" class="graph" transform="scale(1 1) rotate(0) translate(4 137.5)">
<title>CardPictureLoader::getCardBackPixmap</title>
<!-- Node1 -->
<g id="Node000001" class="node">
<title>Node1</title>
<g id="a_Node000001"><a xlink:title="Retrieve a generic card back pixmap.">
<polygon fill="#999999" stroke="#666666" points="681,-85.5 565,-85.5 565,-55.5 681,-55.5 681,-85.5"/>
<text text-anchor="start" x="573" y="-73.5" font-family="Helvetica,sans-Serif" font-size="10.00">CardPictureLoader::</text>
<text text-anchor="middle" x="623" y="-62.5" font-family="Helvetica,sans-Serif" font-size="10.00">getCardBackPixmap</text>
</a>
</g>
</g>
<!-- Node2 -->
<g id="Node000002" class="node">
<title>Node2</title>
<g id="a_Node000002"><a xlink:href="../../de/dd3/classCardInfoPictureArtCropWidget.html#a91615005a38951c9ff93bddfa827c4dc" target="_top" xlink:title=" ">
<polygon fill="white" stroke="#666666" points="526,-133.5 363,-133.5 363,-103.5 526,-103.5 526,-133.5"/>
<text text-anchor="start" x="371" y="-121.5" font-family="Helvetica,sans-Serif" font-size="10.00">CardInfoPictureArtCropWidget</text>
<text text-anchor="middle" x="444.5" y="-110.5" font-family="Helvetica,sans-Serif" font-size="10.00">::getProcessedBackground</text>
</a>
</g>
</g>
<!-- Node1&#45;&gt;Node2 -->
<g id="edge1_Node000001_Node000002" class="edge">
<title>Node1&#45;&gt;Node2</title>
<g id="a_edge1_Node000001_Node000002"><a xlink:title=" ">
<path fill="none" stroke="#63b8ff" d="M561.66,-86.91C541.89,-92.29 520.03,-98.23 500.66,-103.5"/>
<polygon fill="#63b8ff" stroke="#63b8ff" points="566.64,-85.56 562.4,-89.04 564.23,-86.21 561.81,-86.87 561.81,-86.87 561.81,-86.87 564.23,-86.21 561.22,-84.7 566.64,-85.56 566.64,-85.56"/>
</a>
</g>
</g>
<!-- Node3 -->
<g id="Node000003" class="node">
<title>Node3</title>
<g id="a_Node000003"><a xlink:href="../../d1/d0c/classCardInfoPictureEnlargedWidget.html#ab0a301aaec1551d725d4325507547fc0" target="_top" xlink:title="Loads the pixmap based on the given size and card information.">
<polygon fill="white" stroke="#666666" points="529,-85.5 360,-85.5 360,-55.5 529,-55.5 529,-85.5"/>
<text text-anchor="start" x="368" y="-73.5" font-family="Helvetica,sans-Serif" font-size="10.00">CardInfoPictureEnlargedWidget</text>
<text text-anchor="middle" x="444.5" y="-62.5" font-family="Helvetica,sans-Serif" font-size="10.00">::loadPixmap</text>
</a>
</g>
</g>
<!-- Node1&#45;&gt;Node3 -->
<g id="edge2_Node000001_Node000003" class="edge">
<title>Node1&#45;&gt;Node3</title>
<g id="a_edge2_Node000001_Node000003"><a xlink:title=" ">
<path fill="none" stroke="#63b8ff" d="M559.58,-70.5C549.71,-70.5 539.37,-70.5 529.12,-70.5"/>
<polygon fill="#63b8ff" stroke="#63b8ff" points="564.7,-70.5 559.7,-72.75 562.2,-70.5 559.7,-70.5 559.7,-70.5 559.7,-70.5 562.2,-70.5 559.7,-68.25 564.7,-70.5 564.7,-70.5"/>
</a>
</g>
</g>
<!-- Node6 -->
<g id="Node000006" class="node">
<title>Node6</title>
<g id="a_Node000006"><a xlink:href="../../d4/db9/classAbstractCardItem.html#a7e8e4b1aa9f81492695269e45e9ef731" target="_top" xlink:title=" ">
<polygon fill="white" stroke="#666666" points="528,-37 361,-37 361,-18 528,-18 528,-37"/>
<text text-anchor="middle" x="444.5" y="-25" font-family="Helvetica,sans-Serif" font-size="10.00">AbstractCardItem::paintPicture</text>
</a>
</g>
</g>
<!-- Node1&#45;&gt;Node6 -->
<g id="edge5_Node000001_Node000006" class="edge">
<title>Node1&#45;&gt;Node6</title>
<g id="a_edge5_Node000001_Node000006"><a xlink:title=" ">
<path fill="none" stroke="#63b8ff" d="M559.54,-54.12C549.34,-51.52 538.89,-48.9 529,-46.5 515.85,-43.31 501.5,-39.99 488.46,-37.03"/>
<polygon fill="#63b8ff" stroke="#63b8ff" points="564.52,-55.39 559.12,-56.33 562.1,-54.77 559.67,-54.15 559.67,-54.15 559.67,-54.15 562.1,-54.77 560.23,-51.97 564.52,-55.39 564.52,-55.39"/>
</a>
</g>
</g>
<!-- Node4 -->
<g id="Node000004" class="node">
<title>Node4</title>
<g id="a_Node000004"><a xlink:href="../../d1/d0c/classCardInfoPictureEnlargedWidget.html#aec9f39e9bffd5714800caca73b01da59" target="_top" xlink:title="Custom paint event that draws the enlarged card image with rounded corners.">
<polygon fill="white" stroke="#666666" points="324,-133.5 155,-133.5 155,-103.5 324,-103.5 324,-133.5"/>
<text text-anchor="start" x="163" y="-121.5" font-family="Helvetica,sans-Serif" font-size="10.00">CardInfoPictureEnlargedWidget</text>
<text text-anchor="middle" x="239.5" y="-110.5" font-family="Helvetica,sans-Serif" font-size="10.00">::paintEvent</text>
</a>
</g>
</g>
<!-- Node3&#45;&gt;Node4 -->
<g id="edge3_Node000003_Node000004" class="edge">
<title>Node3&#45;&gt;Node4</title>
<g id="a_edge3_Node000003_Node000004"><a xlink:title=" ">
<path fill="none" stroke="#63b8ff" d="M374.68,-86.77C351.79,-92.19 326.41,-98.19 303.95,-103.5"/>
<polygon fill="#63b8ff" stroke="#63b8ff" points="379.83,-85.56 375.48,-88.9 377.39,-86.13 374.96,-86.71 374.96,-86.71 374.96,-86.71 377.39,-86.13 374.44,-84.52 379.83,-85.56 379.83,-85.56"/>
</a>
</g>
</g>
<!-- Node5 -->
<g id="Node000005" class="node">
<title>Node5</title>
<g id="a_Node000005"><a xlink:href="../../d1/d0c/classCardInfoPictureEnlargedWidget.html#abcd54fdd222c82d3dc9bfa530b1d38af" target="_top" xlink:title="Sets the pixmap for the widget based on a provided card.">
<polygon fill="white" stroke="#666666" points="324,-85.5 155,-85.5 155,-55.5 324,-55.5 324,-85.5"/>
<text text-anchor="start" x="163" y="-73.5" font-family="Helvetica,sans-Serif" font-size="10.00">CardInfoPictureEnlargedWidget</text>
<text text-anchor="middle" x="239.5" y="-62.5" font-family="Helvetica,sans-Serif" font-size="10.00">::setCardPixmap</text>
</a>
</g>
</g>
<!-- Node3&#45;&gt;Node5 -->
<g id="edge4_Node000003_Node000005" class="edge">
<title>Node3&#45;&gt;Node5</title>
<g id="a_edge4_Node000003_Node000005"><a xlink:title=" ">
<path fill="none" stroke="#63b8ff" d="M354.49,-70.5C344.37,-70.5 334.09,-70.5 324.05,-70.5"/>
<polygon fill="#63b8ff" stroke="#63b8ff" points="359.76,-70.5 354.76,-72.75 357.26,-70.5 354.76,-70.5 354.76,-70.5 354.76,-70.5 357.26,-70.5 354.76,-68.25 359.76,-70.5 359.76,-70.5"/>
</a>
</g>
</g>
<!-- Node7 -->
<g id="Node000007" class="node">
<title>Node7</title>
<g id="a_Node000007"><a xlink:href="../../d4/db9/classAbstractCardItem.html#a714bd7b294657b25ba2f8e27fd773e2e" target="_top" xlink:title=" ">
<polygon fill="white" stroke="#666666" points="306,-37 173,-37 173,-18 306,-18 306,-37"/>
<text text-anchor="middle" x="239.5" y="-25" font-family="Helvetica,sans-Serif" font-size="10.00">AbstractCardItem::paint</text>
</a>
</g>
</g>
<!-- Node6&#45;&gt;Node7 -->
<g id="edge6_Node000006_Node000007" class="edge">
<title>Node6&#45;&gt;Node7</title>
<g id="a_edge6_Node000006_Node000007"><a xlink:title=" ">
<path fill="none" stroke="#63b8ff" d="M355.79,-27.5C339.15,-27.5 322.01,-27.5 306.2,-27.5"/>
<polygon fill="#63b8ff" stroke="#63b8ff" points="360.93,-27.5 355.93,-29.75 358.43,-27.5 355.93,-27.5 355.93,-27.5 355.93,-27.5 358.43,-27.5 355.93,-25.25 360.93,-27.5 360.93,-27.5"/>
</a>
</g>
</g>
<!-- Node8 -->
<g id="Node000008" class="node">
<title>Node8</title>
<g id="a_Node000008"><a xlink:href="../../d6/dbd/classCardItem.html#a7a28ee2cd389ca36911562487a2ade50" target="_top" xlink:title=" ">
<polygon fill="white" stroke="#666666" points="105.5,-56 13.5,-56 13.5,-37 105.5,-37 105.5,-56"/>
<text text-anchor="middle" x="59.5" y="-44" font-family="Helvetica,sans-Serif" font-size="10.00">CardItem::paint</text>
</a>
</g>
</g>
<!-- Node7&#45;&gt;Node8 -->
<g id="edge7_Node000007_Node000008" class="edge">
<title>Node7&#45;&gt;Node8</title>
<g id="a_edge7_Node000007_Node000008"><a xlink:title=" ">
<path fill="none" stroke="#63b8ff" d="M167.96,-35.03C146.95,-37.27 124.52,-39.67 105.61,-41.69"/>
<polygon fill="#63b8ff" stroke="#63b8ff" points="172.98,-34.49 168.24,-37.26 170.49,-34.76 168.01,-35.02 168.01,-35.02 168.01,-35.02 170.49,-34.76 167.77,-32.79 172.98,-34.49 172.98,-34.49"/>
</a>
</g>
</g>
<!-- Node9 -->
<g id="Node000009" class="node">
<title>Node9</title>
<g id="a_Node000009"><a xlink:href="../../dc/d0b/classDeckViewCard.html#ae15beb9524c17f72be05d8068304389a" target="_top" xlink:title=" ">
<polygon fill="white" stroke="#666666" points="119,-19 0,-19 0,0 119,0 119,-19"/>
<text text-anchor="middle" x="59.5" y="-7" font-family="Helvetica,sans-Serif" font-size="10.00">DeckViewCard::paint</text>
</a>
</g>
</g>
<!-- Node7&#45;&gt;Node9 -->
<g id="edge8_Node000007_Node000009" class="edge">
<title>Node7&#45;&gt;Node9</title>
<g id="a_edge8_Node000007_Node000009"><a xlink:title=" ">
<path fill="none" stroke="#63b8ff" d="M167.98,-20.37C151.79,-18.73 134.75,-17.01 119.12,-15.43"/>
<polygon fill="#63b8ff" stroke="#63b8ff" points="172.98,-20.87 167.78,-22.61 170.49,-20.62 168,-20.37 168,-20.37 168,-20.37 170.49,-20.62 168.23,-18.13 172.98,-20.87 172.98,-20.87"/>
</a>
</g>
</g>
</g>
</svg>
