<?xml version="1.0" encoding="UTF-8" standalone="no"?>
<!DOCTYPE svg PUBLIC "-//W3C//DTD SVG 1.1//EN"
 "http://www.w3.org/Graphics/SVG/1.1/DTD/svg11.dtd">
<!-- Generated by graphviz version 2.43.0 (0)
 -->
<!-- Title: AbstractCounter::mousePressEvent Pages: 1 -->
<svg width="1182pt" height="377pt"
 viewBox="0.00 0.00 1182.00 377.00" xmlns="http://www.w3.org/2000/svg" xmlns:xlink="http://www.w3.org/1999/xlink">
<g id="graph0" class="graph" transform="scale(1 1) rotate(0) translate(4 373)">
<title>AbstractCounter::mousePressEvent</title>
<!-- Node1 -->
<g id="Node000001" class="node">
<title>Node1</title>
<g id="a_Node000001"><a xlink:title=" ">
<polygon fill="#999999" stroke="#666666" points="161,-318.5 0,-318.5 0,-288.5 161,-288.5 161,-318.5"/>
<text text-anchor="start" x="8" y="-306.5" font-family="Helvetica,sans-Serif" font-size="10.00">AbstractCounter::mousePress</text>
<text text-anchor="middle" x="80.5" y="-295.5" font-family="Helvetica,sans-Serif" font-size="10.00">Event</text>
</a>
</g>
</g>
<!-- Node2 -->
<g id="Node000002" class="node">
<title>Node2</title>
<g id="a_Node000002"><a xlink:href="../../df/df7/classPlayerInfo.html#ab75b5c7ec44876756acffd32ad2e46a3" target="_top" xlink:title=" ">
<polygon fill="white" stroke="#666666" points="369,-369 217,-369 217,-350 369,-350 369,-369"/>
<text text-anchor="middle" x="293" y="-357" font-family="Helvetica,sans-Serif" font-size="10.00">PlayerInfo::getLocalOrJudge</text>
</a>
</g>
</g>
<!-- Node1&#45;&gt;Node2 -->
<g id="edge1_Node000001_Node000002" class="edge">
<title>Node1&#45;&gt;Node2</title>
<g id="a_edge1_Node000001_Node000002"><a xlink:title=" ">
<path fill="none" stroke="#63b8ff" d="M122.81,-318.55C144.66,-326.13 172.06,-335.06 197,-341.5 207.64,-344.25 219.05,-346.77 230.15,-348.99"/>
<polygon fill="#63b8ff" stroke="#63b8ff" points="235.22,-350 229.88,-351.23 232.76,-349.51 230.31,-349.03 230.31,-349.03 230.31,-349.03 232.76,-349.51 230.75,-346.82 235.22,-350 235.22,-350"/>
</a>
</g>
</g>
<!-- Node3 -->
<g id="Node000003" class="node">
<title>Node3</title>
<g id="a_Node000003"><a xlink:href="../../d2/d4b/classPlayer.html#ad46281e97b39abd661c138d30646f879" target="_top" xlink:title=" ">
<polygon fill="white" stroke="#666666" points="361,-332 225,-332 225,-313 361,-313 361,-332"/>
<text text-anchor="middle" x="293" y="-320" font-family="Helvetica,sans-Serif" font-size="10.00">Player::getPlayerActions</text>
</a>
</g>
</g>
<!-- Node1&#45;&gt;Node3 -->
<g id="edge2_Node000001_Node000003" class="edge">
<title>Node1&#45;&gt;Node3</title>
<g id="a_edge2_Node000001_Node000003"><a xlink:title=" ">
<path fill="none" stroke="#63b8ff" d="M161.08,-310.68C180.24,-312.41 200.6,-314.25 219.42,-315.95"/>
<polygon fill="#63b8ff" stroke="#63b8ff" points="224.68,-316.42 219.5,-318.22 222.19,-316.2 219.7,-315.97 219.7,-315.97 219.7,-315.97 222.19,-316.2 219.9,-313.73 224.68,-316.42 224.68,-316.42"/>
</a>
</g>
</g>
<!-- Node4 -->
<g id="Node000004" class="node">
<title>Node4</title>
<g id="a_Node000004"><a xlink:href="../../d2/d4b/classPlayer.html#ae518d19009a8604a8538f9c5fb083474" target="_top" xlink:title=" ">
<polygon fill="white" stroke="#666666" points="1174,-218 1055,-218 1055,-199 1174,-199 1174,-218"/>
<text text-anchor="middle" x="1114.5" y="-206" font-family="Helvetica,sans-Serif" font-size="10.00">Player::getPlayerInfo</text>
</a>
</g>
</g>
<!-- Node1&#45;&gt;Node4 -->
<g id="edge3_Node000001_Node000004" class="edge">
<title>Node1&#45;&gt;Node4</title>
<g id="a_edge3_Node000001_Node000004"><a xlink:title=" ">
<path fill="none" stroke="#63b8ff" d="M161.03,-297.85C246.84,-292.25 387.53,-284.5 509,-284.5 509,-284.5 509,-284.5 715.5,-284.5 851.39,-284.5 887.55,-281.96 1019,-247.5 1044.01,-240.95 1071.15,-229.22 1089.9,-220.34"/>
<polygon fill="#63b8ff" stroke="#63b8ff" points="1094.48,-218.14 1090.94,-222.33 1092.23,-219.22 1089.97,-220.3 1089.97,-220.3 1089.97,-220.3 1092.23,-219.22 1089,-218.27 1094.48,-218.14 1094.48,-218.14"/>
</a>
</g>
</g>
<!-- Node5 -->
<g id="Node000005" class="node">
<title>Node5</title>
<g id="a_Node000005"><a xlink:href="../../d2/d23/classPlayerActions.html#a24052faefdf622e1bea1afb4c601644b" target="_top" xlink:title=" ">
<polygon fill="white" stroke="#666666" points="389,-197 197,-197 197,-178 389,-178 389,-197"/>
<text text-anchor="middle" x="293" y="-185" font-family="Helvetica,sans-Serif" font-size="10.00">PlayerActions::sendGameCommand</text>
</a>
</g>
</g>
<!-- Node1&#45;&gt;Node5 -->
<g id="edge4_Node000001_Node000005" class="edge">
<title>Node1&#45;&gt;Node5</title>
<g id="a_edge4_Node000001_Node000005"><a xlink:title=" ">
<path fill="none" stroke="#63b8ff" d="M109.02,-288.34C151.32,-265.02 231.47,-220.86 270.1,-199.57"/>
<polygon fill="#63b8ff" stroke="#63b8ff" points="274.6,-197.09 271.3,-201.47 272.41,-198.3 270.22,-199.5 270.22,-199.5 270.22,-199.5 272.41,-198.3 269.13,-197.53 274.6,-197.09 274.6,-197.09"/>
</a>
</g>
</g>
<!-- Node5&#45;&gt;Node4 -->
<g id="edge8_Node000005_Node000004" class="edge">
<title>Node5&#45;&gt;Node4</title>
<g id="a_edge8_Node000005_Node000004"><a xlink:title=" ">
<path fill="none" stroke="#63b8ff" d="M344.84,-197.01C369.03,-201.19 398.42,-205.76 425,-208.5 687.74,-235.58 756.16,-253.66 1019,-227.5 1035.76,-225.83 1053.94,-222.54 1069.84,-219.16"/>
<polygon fill="#63b8ff" stroke="#63b8ff" points="1075.14,-218.01 1070.73,-221.27 1072.7,-218.54 1070.25,-219.07 1070.25,-219.07 1070.25,-219.07 1072.7,-218.54 1069.78,-216.87 1075.14,-218.01 1075.14,-218.01"/>
</a>
</g>
</g>
<!-- Node6 -->
<g id="Node000006" class="node">
<title>Node6</title>
<g id="a_Node000006"><a xlink:href="../../d2/d4b/classPlayer.html#af7cfc2b66a72002d9f290285499a0a3b" target="_top" xlink:title=" ">
<polygon fill="white" stroke="#666666" points="559,-132 461,-132 461,-113 559,-113 559,-132"/>
<text text-anchor="middle" x="510" y="-120" font-family="Helvetica,sans-Serif" font-size="10.00">Player::getGame</text>
</a>
</g>
</g>
<!-- Node5&#45;&gt;Node6 -->
<g id="edge5_Node000005_Node000006" class="edge">
<title>Node5&#45;&gt;Node6</title>
<g id="a_edge5_Node000005_Node000006"><a xlink:title=" ">
<path fill="none" stroke="#63b8ff" d="M318.35,-178C344.46,-168.04 387.24,-152.36 425,-141.5 435.47,-138.49 446.78,-135.65 457.61,-133.14"/>
<polygon fill="#63b8ff" stroke="#63b8ff" points="462.54,-132 458.17,-135.32 460.11,-132.56 457.67,-133.12 457.67,-133.12 457.67,-133.12 460.11,-132.56 457.17,-130.93 462.54,-132 462.54,-132"/>
</a>
</g>
</g>
<!-- Node7 -->
<g id="Node000007" class="node">
<title>Node7</title>
<g id="a_Node000007"><a xlink:href="../../d3/d44/classAbstractGame.html#a32105d86255d5dc46c72d290fdfce9c3" target="_top" xlink:title=" ">
<polygon fill="white" stroke="#666666" points="592.5,-94.5 427.5,-94.5 427.5,-64.5 592.5,-64.5 592.5,-94.5"/>
<text text-anchor="start" x="435.5" y="-82.5" font-family="Helvetica,sans-Serif" font-size="10.00">AbstractGame::getGameEvent</text>
<text text-anchor="middle" x="510" y="-71.5" font-family="Helvetica,sans-Serif" font-size="10.00">Handler</text>
</a>
</g>
</g>
<!-- Node5&#45;&gt;Node7 -->
<g id="edge6_Node000005_Node000007" class="edge">
<title>Node5&#45;&gt;Node7</title>
<g id="a_edge6_Node000005_Node000007"><a xlink:title=" ">
<path fill="none" stroke="#63b8ff" d="M306.7,-177.75C329.35,-160.77 378.68,-125.57 425,-104.5 431.64,-101.48 438.74,-98.71 445.89,-96.21"/>
<polygon fill="#63b8ff" stroke="#63b8ff" points="450.84,-94.52 446.84,-98.27 448.48,-95.33 446.11,-96.14 446.11,-96.14 446.11,-96.14 448.48,-95.33 445.39,-94.01 450.84,-94.52 450.84,-94.52"/>
</a>
</g>
</g>
<!-- Node8 -->
<g id="Node000008" class="node">
<title>Node8</title>
<g id="a_Node000008"><a xlink:href="../../df/df7/classPlayerInfo.html#a7f05edab50309334350d183e000f4b6c" target="_top" xlink:title=" ">
<polygon fill="white" stroke="#666666" points="975,-218 878,-218 878,-199 975,-199 975,-218"/>
<text text-anchor="middle" x="926.5" y="-206" font-family="Helvetica,sans-Serif" font-size="10.00">PlayerInfo::getId</text>
</a>
</g>
</g>
<!-- Node5&#45;&gt;Node8 -->
<g id="edge7_Node000005_Node000008" class="edge">
<title>Node5&#45;&gt;Node8</title>
<g id="a_edge7_Node000005_Node000008"><a xlink:title=" ">
<path fill="none" stroke="#63b8ff" d="M389.23,-190.67C524.08,-195.15 766.14,-203.2 872.7,-206.74"/>
<polygon fill="#63b8ff" stroke="#63b8ff" points="877.98,-206.92 872.9,-209 875.48,-206.84 872.98,-206.75 872.98,-206.75 872.98,-206.75 875.48,-206.84 873.05,-204.5 877.98,-206.92 877.98,-206.92"/>
</a>
</g>
</g>
<!-- Node9 -->
<g id="Node000009" class="node">
<title>Node9</title>
<g id="a_Node000009"><a xlink:href="../../d7/db2/classGameEventHandler.html#aa284e089a86d0e58970b0f9069ba1f00" target="_top" xlink:title=" ">
<polygon fill="white" stroke="#666666" points="595,-180.5 425,-180.5 425,-150.5 595,-150.5 595,-180.5"/>
<text text-anchor="start" x="433" y="-168.5" font-family="Helvetica,sans-Serif" font-size="10.00">GameEventHandler::sendGame</text>
<text text-anchor="middle" x="510" y="-157.5" font-family="Helvetica,sans-Serif" font-size="10.00">Command</text>
</a>
</g>
</g>
<!-- Node5&#45;&gt;Node9 -->
<g id="edge9_Node000005_Node000009" class="edge">
<title>Node5&#45;&gt;Node9</title>
<g id="a_edge9_Node000005_Node000009"><a xlink:title=" ">
<path fill="none" stroke="#63b8ff" d="M387.05,-177.98C397.88,-176.87 408.9,-175.74 419.68,-174.64"/>
<polygon fill="#63b8ff" stroke="#63b8ff" points="424.94,-174.1 420.2,-176.85 422.46,-174.36 419.97,-174.61 419.97,-174.61 419.97,-174.61 422.46,-174.36 419.74,-172.37 424.94,-174.1 424.94,-174.1"/>
</a>
</g>
</g>
<!-- Node10 -->
<g id="Node000010" class="node">
<title>Node10</title>
<g id="a_Node000010"><a xlink:href="../../d7/db2/classGameEventHandler.html#a13205be722399533ef81b039cd22a3ca" target="_top" xlink:title=" ">
<polygon fill="white" stroke="#666666" points="798,-78.5 631,-78.5 631,-48.5 798,-48.5 798,-78.5"/>
<text text-anchor="start" x="639" y="-66.5" font-family="Helvetica,sans-Serif" font-size="10.00">GameEventHandler::command</text>
<text text-anchor="middle" x="714.5" y="-55.5" font-family="Helvetica,sans-Serif" font-size="10.00">Finished</text>
</a>
</g>
</g>
<!-- Node9&#45;&gt;Node10 -->
<g id="edge10_Node000009_Node000010" class="edge">
<title>Node9&#45;&gt;Node10</title>
<g id="a_edge10_Node000009_Node000010"><a xlink:title=" ">
<path fill="none" stroke="#63b8ff" d="M571.91,-150.48C579.81,-147.85 587.69,-144.85 595,-141.5 630.4,-125.25 667.29,-99.31 690.32,-81.85"/>
<polygon fill="#63b8ff" stroke="#63b8ff" points="694.45,-78.7 691.84,-83.52 692.46,-80.21 690.48,-81.73 690.48,-81.73 690.48,-81.73 692.46,-80.21 689.11,-79.94 694.45,-78.7 694.45,-78.7"/>
</a>
</g>
</g>
<!-- Node12 -->
<g id="Node000012" class="node">
<title>Node12</title>
<g id="a_Node000012"><a xlink:href="../../d3/d44/classAbstractGame.html#ad5dd70c2cea1b0525d3ba2ae1092ec2f" target="_top" xlink:title=" ">
<polygon fill="white" stroke="#666666" points="790.5,-163.5 638.5,-163.5 638.5,-133.5 790.5,-133.5 790.5,-163.5"/>
<text text-anchor="start" x="646.5" y="-151.5" font-family="Helvetica,sans-Serif" font-size="10.00">AbstractGame::getClientFor</text>
<text text-anchor="middle" x="714.5" y="-140.5" font-family="Helvetica,sans-Serif" font-size="10.00">Player</text>
</a>
</g>
</g>
<!-- Node9&#45;&gt;Node12 -->
<g id="edge12_Node000009_Node000012" class="edge">
<title>Node9&#45;&gt;Node12</title>
<g id="a_edge12_Node000009_Node000012"><a xlink:title=" ">
<path fill="none" stroke="#63b8ff" d="M595.12,-158.44C607.67,-157.38 620.58,-156.3 633.05,-155.25"/>
<polygon fill="#63b8ff" stroke="#63b8ff" points="638.37,-154.81 633.58,-157.47 635.88,-155.02 633.39,-155.23 633.39,-155.23 633.39,-155.23 635.88,-155.02 633.2,-152.98 638.37,-154.81 638.37,-154.81"/>
</a>
</g>
</g>
<!-- Node11 -->
<g id="Node000011" class="node">
<title>Node11</title>
<g id="a_Node000011"><a xlink:href="../../d7/db2/classGameEventHandler.html#a2273d849f249f181eed3e812205226e2" target="_top" xlink:title=" ">
<polygon fill="white" stroke="#666666" points="1019,-19 834,-19 834,0 1019,0 1019,-19"/>
<text text-anchor="middle" x="926.5" y="-7" font-family="Helvetica,sans-Serif" font-size="10.00">GameEventHandler::gameFlooded</text>
</a>
</g>
</g>
<!-- Node10&#45;&gt;Node11 -->
<g id="edge11_Node000010_Node000011" class="edge">
<title>Node10&#45;&gt;Node11</title>
<g id="a_edge11_Node000010_Node000011"><a xlink:title=" ">
<path fill="none" stroke="#63b8ff" d="M763.11,-48.46C784.65,-41.91 810.49,-34.4 834,-28.5 845.84,-25.53 858.63,-22.66 870.78,-20.09"/>
<polygon fill="#63b8ff" stroke="#63b8ff" points="875.94,-19.01 871.51,-22.24 873.5,-19.53 871.05,-20.04 871.05,-20.04 871.05,-20.04 873.5,-19.53 870.59,-17.84 875.94,-19.01 875.94,-19.01"/>
</a>
</g>
</g>
<!-- Node12&#45;&gt;Node4 -->
<g id="edge19_Node000012_Node000004" class="edge">
<title>Node12&#45;&gt;Node4</title>
<g id="a_edge19_Node000012_Node000004"><a xlink:title=" ">
<path fill="none" stroke="#63b8ff" d="M790.81,-157.84C852.32,-165.73 941.45,-177.76 1019,-190.5 1032.65,-192.74 1047.36,-195.42 1061.01,-198.01"/>
<polygon fill="#63b8ff" stroke="#63b8ff" points="1065.99,-198.96 1060.66,-200.24 1063.54,-198.49 1061.08,-198.03 1061.08,-198.03 1061.08,-198.03 1063.54,-198.49 1061.5,-195.82 1065.99,-198.96 1065.99,-198.96"/>
</a>
</g>
</g>
<!-- Node12&#45;&gt;Node8 -->
<g id="edge18_Node000012_Node000008" class="edge">
<title>Node12&#45;&gt;Node8</title>
<g id="a_edge18_Node000012_Node000008"><a xlink:title=" ">
<path fill="none" stroke="#63b8ff" d="M763.52,-163.55C785.02,-170.16 810.72,-177.91 834,-184.5 849.76,-188.96 867.13,-193.59 882.46,-197.57"/>
<polygon fill="#63b8ff" stroke="#63b8ff" points="887.57,-198.9 882.17,-199.82 885.15,-198.27 882.73,-197.64 882.73,-197.64 882.73,-197.64 885.15,-198.27 883.3,-195.47 887.57,-198.9 887.57,-198.9"/>
</a>
</g>
</g>
<!-- Node13 -->
<g id="Node000013" class="node">
<title>Node13</title>
<g id="a_Node000013"><a xlink:href="../../dc/d5d/classPlayerManager.html#a4d7fbb7c94f87153815c698a9b80d2a9" target="_top" xlink:title=" ">
<polygon fill="white" stroke="#666666" points="998,-67.5 855,-67.5 855,-37.5 998,-37.5 998,-67.5"/>
<text text-anchor="start" x="863" y="-55.5" font-family="Helvetica,sans-Serif" font-size="10.00">PlayerManager::getActive</text>
<text text-anchor="middle" x="926.5" y="-44.5" font-family="Helvetica,sans-Serif" font-size="10.00">LocalPlayer</text>
</a>
</g>
</g>
<!-- Node12&#45;&gt;Node13 -->
<g id="edge13_Node000012_Node000013" class="edge">
<title>Node12&#45;&gt;Node13</title>
<g id="a_edge13_Node000012_Node000013"><a xlink:title=" ">
<path fill="none" stroke="#63b8ff" d="M736.82,-133.27C759.83,-117.43 798.04,-92.84 834,-77.5 841.28,-74.4 849.04,-71.58 856.86,-69.04"/>
<polygon fill="#63b8ff" stroke="#63b8ff" points="861.73,-67.51 857.64,-71.16 859.34,-68.26 856.96,-69.01 856.96,-69.01 856.96,-69.01 859.34,-68.26 856.28,-66.87 861.73,-67.51 861.73,-67.51"/>
</a>
</g>
</g>
<!-- Node15 -->
<g id="Node000015" class="node">
<title>Node15</title>
<g id="a_Node000015"><a xlink:href="../../d3/df3/classGameState.html#a958f53c63698cc7c9c635626b792d365" target="_top" xlink:title=" ">
<polygon fill="white" stroke="#666666" points="1004,-142 849,-142 849,-123 1004,-123 1004,-142"/>
<text text-anchor="middle" x="926.5" y="-130" font-family="Helvetica,sans-Serif" font-size="10.00">GameState::getActivePlayer</text>
</a>
</g>
</g>
<!-- Node12&#45;&gt;Node15 -->
<g id="edge16_Node000012_Node000015" class="edge">
<title>Node12&#45;&gt;Node15</title>
<g id="a_edge16_Node000012_Node000015"><a xlink:title=" ">
<path fill="none" stroke="#63b8ff" d="M790.72,-142.77C807.79,-141.47 826,-140.08 843.33,-138.76"/>
<polygon fill="#63b8ff" stroke="#63b8ff" points="848.68,-138.35 843.87,-140.98 846.19,-138.54 843.7,-138.73 843.7,-138.73 843.7,-138.73 846.19,-138.54 843.53,-136.49 848.68,-138.35 848.68,-138.35"/>
</a>
</g>
</g>
<!-- Node16 -->
<g id="Node000016" class="node">
<title>Node16</title>
<g id="a_Node000016"><a xlink:href="../../d3/df3/classGameState.html#a74cfe4dabf987cdbbdb2a9b27913a38f" target="_top" xlink:title=" ">
<polygon fill="white" stroke="#666666" points="990,-105 863,-105 863,-86 990,-86 990,-105"/>
<text text-anchor="middle" x="926.5" y="-93" font-family="Helvetica,sans-Serif" font-size="10.00">GameState::getClients</text>
</a>
</g>
</g>
<!-- Node12&#45;&gt;Node16 -->
<g id="edge17_Node000012_Node000016" class="edge">
<title>Node12&#45;&gt;Node16</title>
<g id="a_edge17_Node000012_Node000016"><a xlink:title=" ">
<path fill="none" stroke="#63b8ff" d="M764.86,-133.44C786.05,-127.21 811.14,-120.14 834,-114.5 845.85,-111.57 858.64,-108.73 870.8,-106.16"/>
<polygon fill="#63b8ff" stroke="#63b8ff" points="875.96,-105.08 871.53,-108.31 873.51,-105.59 871.07,-106.11 871.07,-106.11 871.07,-106.11 873.51,-105.59 870.61,-103.9 875.96,-105.08 875.96,-105.08"/>
</a>
</g>
</g>
<!-- Node13&#45;&gt;Node4 -->
<g id="edge15_Node000013_Node000004" class="edge">
<title>Node13&#45;&gt;Node4</title>
<g id="a_edge15_Node000013_Node000004"><a xlink:title=" ">
<path fill="none" stroke="#63b8ff" d="M998.16,-66.46C1005.53,-69.46 1012.64,-73.09 1019,-77.5 1063.47,-108.34 1094.6,-167.13 1107.23,-194.2"/>
<polygon fill="#63b8ff" stroke="#63b8ff" points="1109.37,-198.87 1105.24,-195.27 1108.33,-196.6 1107.28,-194.33 1107.28,-194.33 1107.28,-194.33 1108.33,-196.6 1109.33,-193.39 1109.37,-198.87 1109.37,-198.87"/>
</a>
</g>
</g>
<!-- Node14 -->
<g id="Node000014" class="node">
<title>Node14</title>
<g id="a_Node000014"><a xlink:href="../../df/df7/classPlayerInfo.html#a97bd8b8d7ecf30c076f3b38f1b28e45a" target="_top" xlink:title=" ">
<polygon fill="white" stroke="#666666" points="1171,-62 1058,-62 1058,-43 1171,-43 1171,-62"/>
<text text-anchor="middle" x="1114.5" y="-50" font-family="Helvetica,sans-Serif" font-size="10.00">PlayerInfo::getLocal</text>
</a>
</g>
</g>
<!-- Node13&#45;&gt;Node14 -->
<g id="edge14_Node000013_Node000014" class="edge">
<title>Node13&#45;&gt;Node14</title>
<g id="a_edge14_Node000013_Node000014"><a xlink:title=" ">
<path fill="none" stroke="#63b8ff" d="M998.08,-52.5C1015.97,-52.5 1035.02,-52.5 1052.39,-52.5"/>
<polygon fill="#63b8ff" stroke="#63b8ff" points="1057.73,-52.5 1052.73,-54.75 1055.23,-52.5 1052.73,-52.5 1052.73,-52.5 1052.73,-52.5 1055.23,-52.5 1052.73,-50.25 1057.73,-52.5 1057.73,-52.5"/>
</a>
</g>
</g>
</g>
</svg>
