<?xml version="1.0" encoding="UTF-8" standalone="no"?>
<!DOCTYPE svg PUBLIC "-//W3C//DTD SVG 1.1//EN"
 "http://www.w3.org/Graphics/SVG/1.1/DTD/svg11.dtd">
<!-- Generated by graphviz version 2.43.0 (0)
 -->
<!-- Title: AbstractCounter::getShownInCounterArea Pages: 1 -->
<svg width="1767pt" height="175pt"
 viewBox="0.00 0.00 1767.00 175.38" xmlns="http://www.w3.org/2000/svg" xmlns:xlink="http://www.w3.org/1999/xlink">
<g id="graph0" class="graph" transform="scale(1 1) rotate(0) translate(4 171.38)">
<title>AbstractCounter::getShownInCounterArea</title>
<!-- Node1 -->
<g id="Node000001" class="node">
<title>Node1</title>
<g id="a_Node000001"><a xlink:title=" ">
<polygon fill="#999999" stroke="#666666" points="1759,-124.5 1610,-124.5 1610,-94.5 1759,-94.5 1759,-124.5"/>
<text text-anchor="start" x="1618" y="-112.5" font-family="Helvetica,sans-Serif" font-size="10.00">AbstractCounter::getShown</text>
<text text-anchor="middle" x="1684.5" y="-101.5" font-family="Helvetica,sans-Serif" font-size="10.00">InCounterArea</text>
</a>
</g>
</g>
<!-- Node2 -->
<g id="Node000002" class="node">
<title>Node2</title>
<g id="a_Node000002"><a xlink:href="../../d3/de4/classPlayerGraphicsItem.html#aa713ab177e0f167084906f118a3f3268" target="_top" xlink:title=" ">
<polygon fill="white" stroke="#666666" points="1574,-124.5 1461,-124.5 1461,-94.5 1574,-94.5 1574,-124.5"/>
<text text-anchor="start" x="1469" y="-112.5" font-family="Helvetica,sans-Serif" font-size="10.00">PlayerGraphicsItem</text>
<text text-anchor="middle" x="1517.5" y="-101.5" font-family="Helvetica,sans-Serif" font-size="10.00">::rearrangeCounters</text>
</a>
</g>
</g>
<!-- Node1&#45;&gt;Node2 -->
<g id="edge1_Node000001_Node000002" class="edge">
<title>Node1&#45;&gt;Node2</title>
<g id="a_edge1_Node000001_Node000002"><a xlink:title=" ">
<path fill="none" stroke="#63b8ff" d="M1604.68,-109.5C1594.46,-109.5 1584.17,-109.5 1574.43,-109.5"/>
<polygon fill="#63b8ff" stroke="#63b8ff" points="1609.69,-109.5 1604.69,-111.75 1607.19,-109.5 1604.69,-109.5 1604.69,-109.5 1604.69,-109.5 1607.19,-109.5 1604.69,-107.25 1609.69,-109.5 1609.69,-109.5"/>
</a>
</g>
</g>
<!-- Node3 -->
<g id="Node000003" class="node">
<title>Node3</title>
<g id="a_Node000003"><a xlink:href="../../d3/de4/classPlayerGraphicsItem.html#ad184952fc4211247cf9ef68395bae6a8" target="_top" xlink:title=" ">
<polygon fill="white" stroke="#666666" points="1276,-146.5 1157,-146.5 1157,-116.5 1276,-116.5 1276,-146.5"/>
<text text-anchor="start" x="1165" y="-134.5" font-family="Helvetica,sans-Serif" font-size="10.00">PlayerGraphicsItem</text>
<text text-anchor="middle" x="1216.5" y="-123.5" font-family="Helvetica,sans-Serif" font-size="10.00">::PlayerGraphicsItem</text>
</a>
</g>
</g>
<!-- Node2&#45;&gt;Node3 -->
<g id="edge2_Node000002_Node000003" class="edge">
<title>Node2&#45;&gt;Node3</title>
<g id="a_edge2_Node000002_Node000003"><a xlink:title=" ">
<path fill="none" stroke="#63b8ff" d="M1455.95,-113.95C1403.46,-117.82 1327.97,-123.37 1276.06,-127.19"/>
<polygon fill="#63b8ff" stroke="#63b8ff" points="1460.96,-113.59 1456.14,-116.2 1458.47,-113.77 1455.97,-113.95 1455.97,-113.95 1455.97,-113.95 1458.47,-113.77 1455.81,-111.71 1460.96,-113.59 1460.96,-113.59"/>
</a>
</g>
</g>
<!-- Node4 -->
<g id="Node000004" class="node">
<title>Node4</title>
<g id="a_Node000004"><a xlink:href="../../d3/de4/classPlayerGraphicsItem.html#ad126bca5e51725c0130e922e114c6b0d" target="_top" xlink:title=" ">
<polygon fill="white" stroke="#666666" points="1425,-103.5 1312,-103.5 1312,-73.5 1425,-73.5 1425,-103.5"/>
<text text-anchor="start" x="1320" y="-91.5" font-family="Helvetica,sans-Serif" font-size="10.00">PlayerGraphicsItem</text>
<text text-anchor="middle" x="1368.5" y="-80.5" font-family="Helvetica,sans-Serif" font-size="10.00">::rearrangeZones</text>
</a>
</g>
</g>
<!-- Node2&#45;&gt;Node4 -->
<g id="edge3_Node000002_Node000004" class="edge">
<title>Node2&#45;&gt;Node4</title>
<g id="a_edge3_Node000002_Node000004"><a xlink:title=" ">
<path fill="none" stroke="#63b8ff" d="M1455.95,-100.85C1445.76,-99.39 1435.22,-97.89 1425.15,-96.45"/>
<polygon fill="#63b8ff" stroke="#63b8ff" points="1460.93,-101.56 1455.66,-103.08 1458.45,-101.21 1455.98,-100.85 1455.98,-100.85 1455.98,-100.85 1458.45,-101.21 1456.29,-98.63 1460.93,-101.56 1460.93,-101.56"/>
</a>
</g>
</g>
<!-- Node4&#45;&gt;Node3 -->
<g id="edge4_Node000004_Node000003" class="edge">
<title>Node4&#45;&gt;Node3</title>
<g id="a_edge4_Node000004_Node000003"><a xlink:title=" ">
<path fill="none" stroke="#63b8ff" d="M1310.2,-104.93C1296.96,-108.72 1282.95,-112.74 1269.93,-116.47"/>
<polygon fill="#63b8ff" stroke="#63b8ff" points="1315.04,-103.54 1310.85,-107.08 1312.63,-104.23 1310.23,-104.92 1310.23,-104.92 1310.23,-104.92 1312.63,-104.23 1309.61,-102.75 1315.04,-103.54 1315.04,-103.54"/>
</a>
</g>
</g>
<!-- Node5 -->
<g id="Node000005" class="node">
<title>Node5</title>
<g id="a_Node000005"><a xlink:href="../../d3/de4/classPlayerGraphicsItem.html#aba69bbc705918ca8e8d3909198194d13" target="_top" xlink:title=" ">
<polygon fill="white" stroke="#666666" points="1273,-98.5 1160,-98.5 1160,-68.5 1273,-68.5 1273,-98.5"/>
<text text-anchor="start" x="1168" y="-86.5" font-family="Helvetica,sans-Serif" font-size="10.00">PlayerGraphicsItem</text>
<text text-anchor="middle" x="1216.5" y="-75.5" font-family="Helvetica,sans-Serif" font-size="10.00">::setMirrored</text>
</a>
</g>
</g>
<!-- Node4&#45;&gt;Node5 -->
<g id="edge5_Node000004_Node000005" class="edge">
<title>Node4&#45;&gt;Node5</title>
<g id="a_edge5_Node000004_Node000005"><a xlink:title=" ">
<path fill="none" stroke="#63b8ff" d="M1306.6,-86.47C1295.54,-86.1 1284.05,-85.72 1273.15,-85.36"/>
<polygon fill="#63b8ff" stroke="#63b8ff" points="1311.65,-86.64 1306.57,-88.72 1309.15,-86.55 1306.65,-86.47 1306.65,-86.47 1306.65,-86.47 1309.15,-86.55 1306.72,-84.22 1311.65,-86.64 1311.65,-86.64"/>
</a>
</g>
</g>
<!-- Node6 -->
<g id="Node000006" class="node">
<title>Node6</title>
<g id="a_Node000006"><a xlink:href="../../db/d9f/classGameScene.html#ac7652ada89934ce1d5935fff7accf8dd" target="_top" xlink:title="Computes layout positions and scene size based on players and columns.">
<polygon fill="white" stroke="#666666" points="1121,-98.5 948,-98.5 948,-68.5 1121,-68.5 1121,-98.5"/>
<text text-anchor="start" x="956" y="-86.5" font-family="Helvetica,sans-Serif" font-size="10.00">GameScene::computeSceneSize</text>
<text text-anchor="middle" x="1034.5" y="-75.5" font-family="Helvetica,sans-Serif" font-size="10.00">AndPlayerLayout</text>
</a>
</g>
</g>
<!-- Node5&#45;&gt;Node6 -->
<g id="edge6_Node000005_Node000006" class="edge">
<title>Node5&#45;&gt;Node6</title>
<g id="a_edge6_Node000005_Node000006"><a xlink:title=" ">
<path fill="none" stroke="#63b8ff" d="M1154.34,-83.5C1143.66,-83.5 1132.37,-83.5 1121.17,-83.5"/>
<polygon fill="#63b8ff" stroke="#63b8ff" points="1159.53,-83.5 1154.53,-85.75 1157.03,-83.5 1154.53,-83.5 1154.53,-83.5 1154.53,-83.5 1157.03,-83.5 1154.53,-81.25 1159.53,-83.5 1159.53,-83.5"/>
</a>
</g>
</g>
<!-- Node7 -->
<g id="Node000007" class="node">
<title>Node7</title>
<g id="a_Node000007"><a xlink:href="../../db/d9f/classGameScene.html#adffb60d92036fee7378c8cc5aea9000d" target="_top" xlink:title="Recomputes the layout of players and the scene size.">
<polygon fill="white" stroke="#666666" points="912,-93 784,-93 784,-74 912,-74 912,-93"/>
<text text-anchor="middle" x="848" y="-81" font-family="Helvetica,sans-Serif" font-size="10.00">GameScene::rearrange</text>
</a>
</g>
</g>
<!-- Node6&#45;&gt;Node7 -->
<g id="edge7_Node000006_Node000007" class="edge">
<title>Node6&#45;&gt;Node7</title>
<g id="a_edge7_Node000006_Node000007"><a xlink:title=" ">
<path fill="none" stroke="#63b8ff" d="M942.68,-83.5C932.39,-83.5 922.08,-83.5 912.25,-83.5"/>
<polygon fill="#63b8ff" stroke="#63b8ff" points="947.73,-83.5 942.73,-85.75 945.23,-83.5 942.73,-83.5 942.73,-83.5 942.73,-83.5 945.23,-83.5 942.73,-81.25 947.73,-83.5 947.73,-83.5"/>
</a>
</g>
</g>
<!-- Node8 -->
<g id="Node000008" class="node">
<title>Node8</title>
<g id="a_Node000008"><a xlink:href="../../db/d9f/classGameScene.html#a3bd7ccad95810c9e0523006aa52f462d" target="_top" xlink:title="Adds a player to the scene and stores their graphics item.">
<polygon fill="white" stroke="#666666" points="721.5,-93 591.5,-93 591.5,-74 721.5,-74 721.5,-93"/>
<text text-anchor="middle" x="656.5" y="-81" font-family="Helvetica,sans-Serif" font-size="10.00">GameScene::addPlayer</text>
</a>
</g>
</g>
<!-- Node7&#45;&gt;Node8 -->
<g id="edge8_Node000007_Node000008" class="edge">
<title>Node7&#45;&gt;Node8</title>
<g id="a_edge8_Node000007_Node000008"><a xlink:title=" ">
<path fill="none" stroke="#63b8ff" d="M778.69,-83.5C760.08,-83.5 739.99,-83.5 721.62,-83.5"/>
<polygon fill="#63b8ff" stroke="#63b8ff" points="783.9,-83.5 778.9,-85.75 781.4,-83.5 778.9,-83.5 778.9,-83.5 778.9,-83.5 781.4,-83.5 778.9,-81.25 783.9,-83.5 783.9,-83.5"/>
</a>
</g>
</g>
<!-- Node13 -->
<g id="Node000013" class="node">
<title>Node13</title>
<g id="a_Node000013"><a xlink:href="../../db/d9f/classGameScene.html#abc2d563bac103c09cb16324d8038b774" target="_top" xlink:title="Adjusts the global rotation offset for player layout.">
<polygon fill="white" stroke="#666666" points="748,-56 565,-56 565,-37 748,-37 748,-56"/>
<text text-anchor="middle" x="656.5" y="-44" font-family="Helvetica,sans-Serif" font-size="10.00">GameScene::adjustPlayerRotation</text>
</a>
</g>
</g>
<!-- Node7&#45;&gt;Node13 -->
<g id="edge13_Node000007_Node000013" class="edge">
<title>Node7&#45;&gt;Node13</title>
<g id="a_edge13_Node000007_Node000013"><a xlink:title=" ">
<path fill="none" stroke="#63b8ff" d="M793.17,-72.99C765.9,-67.66 733.02,-61.25 706.46,-56.06"/>
<polygon fill="#63b8ff" stroke="#63b8ff" points="798.2,-73.97 792.86,-75.22 795.75,-73.49 793.29,-73.01 793.29,-73.01 793.29,-73.01 795.75,-73.49 793.72,-70.81 798.2,-73.97 798.2,-73.97"/>
</a>
</g>
</g>
<!-- Node17 -->
<g id="Node000017" class="node">
<title>Node17</title>
<g id="a_Node000017"><a xlink:href="../../de/d08/classTabGame.html#a0ba75f214cedabb749d69e1e5af7c79f" target="_top" xlink:title=" ">
<polygon fill="white" stroke="#666666" points="327,-155 150,-155 150,-136 327,-136 327,-155"/>
<text text-anchor="middle" x="238.5" y="-143" font-family="Helvetica,sans-Serif" font-size="10.00">TabGame::createPlayAreaWidget</text>
</a>
</g>
</g>
<!-- Node7&#45;&gt;Node17 -->
<g id="edge19_Node000007_Node000017" class="edge">
<title>Node7&#45;&gt;Node17</title>
<g id="a_edge19_Node000007_Node000017"><a xlink:title=" ">
<path fill="none" stroke="#63b8ff" d="M830.3,-96.48C811.5,-110.2 779.46,-131.02 748,-139.5 593.92,-181.03 403.92,-166.91 305.54,-155.02"/>
<polygon fill="#63b8ff" stroke="#63b8ff" points="834.78,-93.15 832.1,-97.94 832.77,-94.64 830.76,-96.13 830.76,-96.13 830.76,-96.13 832.77,-94.64 829.42,-94.32 834.78,-93.15 834.78,-93.15"/>
</a>
</g>
</g>
<!-- Node18 -->
<g id="Node000018" class="node">
<title>Node18</title>
<g id="a_Node000018"><a xlink:href="../../db/d9f/classGameScene.html#af0fa4b1336c9a9d880745bc8eb26091e" target="_top" xlink:title="Constructs the GameScene.">
<polygon fill="white" stroke="#666666" points="726.5,-19 586.5,-19 586.5,0 726.5,0 726.5,-19"/>
<text text-anchor="middle" x="656.5" y="-7" font-family="Helvetica,sans-Serif" font-size="10.00">GameScene::GameScene</text>
</a>
</g>
</g>
<!-- Node7&#45;&gt;Node18 -->
<g id="edge22_Node000007_Node000018" class="edge">
<title>Node7&#45;&gt;Node18</title>
<g id="a_edge22_Node000007_Node000018"><a xlink:title=" ">
<path fill="none" stroke="#63b8ff" d="M828.65,-70.74C809.4,-57.94 777.86,-38.59 748,-27.5 738.99,-24.15 729.23,-21.39 719.57,-19.11"/>
<polygon fill="#63b8ff" stroke="#63b8ff" points="833.27,-73.84 827.86,-72.92 831.19,-72.45 829.12,-71.05 829.12,-71.05 829.12,-71.05 831.19,-72.45 830.37,-69.19 833.27,-73.84 833.27,-73.84"/>
</a>
</g>
</g>
<!-- Node19 -->
<g id="Node000019" class="node">
<title>Node19</title>
<g id="a_Node000019"><a xlink:href="../../db/d9f/classGameScene.html#abeb785e267bff27f32dc599164c53a66" target="_top" xlink:title="Removes a player from the scene.">
<polygon fill="white" stroke="#666666" points="731,-130 582,-130 582,-111 731,-111 731,-130"/>
<text text-anchor="middle" x="656.5" y="-118" font-family="Helvetica,sans-Serif" font-size="10.00">GameScene::removePlayer</text>
</a>
</g>
</g>
<!-- Node7&#45;&gt;Node19 -->
<g id="edge23_Node000007_Node000019" class="edge">
<title>Node7&#45;&gt;Node19</title>
<g id="a_edge23_Node000007_Node000019"><a xlink:title=" ">
<path fill="none" stroke="#63b8ff" d="M793.17,-94.01C765.9,-99.34 733.02,-105.75 706.46,-110.94"/>
<polygon fill="#63b8ff" stroke="#63b8ff" points="798.2,-93.03 793.72,-96.19 795.75,-93.51 793.29,-93.99 793.29,-93.99 793.29,-93.99 795.75,-93.51 792.86,-91.78 798.2,-93.03 798.2,-93.03"/>
</a>
</g>
</g>
<!-- Node9 -->
<g id="Node000009" class="node">
<title>Node9</title>
<g id="a_Node000009"><a xlink:href="../../de/d08/classTabGame.html#a08c4ed46c64e3a0fd3be23274c18d55e" target="_top" xlink:title=" ">
<polygon fill="white" stroke="#666666" points="504.5,-93 387.5,-93 387.5,-74 504.5,-74 504.5,-93"/>
<text text-anchor="middle" x="446" y="-81" font-family="Helvetica,sans-Serif" font-size="10.00">TabGame::addPlayer</text>
</a>
</g>
</g>
<!-- Node8&#45;&gt;Node9 -->
<g id="edge9_Node000008_Node000009" class="edge">
<title>Node8&#45;&gt;Node9</title>
<g id="a_edge9_Node000008_Node000009"><a xlink:title=" ">
<path fill="none" stroke="#63b8ff" d="M586.01,-83.5C559.61,-83.5 529.86,-83.5 504.68,-83.5"/>
<polygon fill="#63b8ff" stroke="#63b8ff" points="591.24,-83.5 586.24,-85.75 588.74,-83.5 586.24,-83.5 586.24,-83.5 586.24,-83.5 588.74,-83.5 586.24,-81.25 591.24,-83.5 591.24,-83.5"/>
</a>
</g>
</g>
<!-- Node10 -->
<g id="Node000010" class="node">
<title>Node10</title>
<g id="a_Node000010"><a xlink:href="../../de/d08/classTabGame.html#ab7f63134f141f73682faf33d3c501757" target="_top" xlink:title=" ">
<polygon fill="white" stroke="#666666" points="312.5,-117.5 164.5,-117.5 164.5,-87.5 312.5,-87.5 312.5,-117.5"/>
<text text-anchor="start" x="172.5" y="-105.5" font-family="Helvetica,sans-Serif" font-size="10.00">TabGame::connectToPlayer</text>
<text text-anchor="middle" x="238.5" y="-94.5" font-family="Helvetica,sans-Serif" font-size="10.00">Manager</text>
</a>
</g>
</g>
<!-- Node9&#45;&gt;Node10 -->
<g id="edge10_Node000009_Node000010" class="edge">
<title>Node9&#45;&gt;Node10</title>
<g id="a_edge10_Node000009_Node000010"><a xlink:title=" ">
<path fill="none" stroke="#63b8ff" d="M382.27,-89.3C360.34,-91.33 335.53,-93.62 312.81,-95.72"/>
<polygon fill="#63b8ff" stroke="#63b8ff" points="387.48,-88.82 382.71,-91.52 384.99,-89.05 382.5,-89.28 382.5,-89.28 382.5,-89.28 384.99,-89.05 382.3,-87.04 387.48,-88.82 387.48,-88.82"/>
</a>
</g>
</g>
<!-- Node11 -->
<g id="Node000011" class="node">
<title>Node11</title>
<g id="a_Node000011"><a xlink:href="../../de/d08/classTabGame.html#a2b6beeea83d5e1e5b29712929e9eb08b" target="_top" xlink:title=" ">
<polygon fill="white" stroke="#666666" points="114,-152 0,-152 0,-133 114,-133 114,-152"/>
<text text-anchor="middle" x="57" y="-140" font-family="Helvetica,sans-Serif" font-size="10.00">TabGame::TabGame</text>
</a>
</g>
</g>
<!-- Node10&#45;&gt;Node11 -->
<g id="edge11_Node000010_Node000011" class="edge">
<title>Node10&#45;&gt;Node11</title>
<g id="a_edge11_Node000010_Node000011"><a xlink:title=" ">
<path fill="none" stroke="#63b8ff" d="M165.21,-118.61C143.32,-123.49 119.99,-128.69 100.7,-132.99"/>
<polygon fill="#63b8ff" stroke="#63b8ff" points="170.15,-117.51 165.76,-120.79 167.71,-118.05 165.27,-118.6 165.27,-118.6 165.27,-118.6 167.71,-118.05 164.78,-116.4 170.15,-117.51 170.15,-117.51"/>
</a>
</g>
</g>
<!-- Node12 -->
<g id="Node000012" class="node">
<title>Node12</title>
<g id="a_Node000012"><a xlink:href="../../de/d08/classTabGame.html#a0198c02f04e49adcbc708d2a0abfb80b" target="_top" xlink:title=" ">
<polygon fill="white" stroke="#666666" points="114,-112 0,-112 0,-93 114,-93 114,-112"/>
<text text-anchor="middle" x="57" y="-100" font-family="Helvetica,sans-Serif" font-size="10.00">TabGame::TabGame</text>
</a>
</g>
</g>
<!-- Node10&#45;&gt;Node12 -->
<g id="edge12_Node000010_Node000012" class="edge">
<title>Node10&#45;&gt;Node12</title>
<g id="a_edge12_Node000010_Node000012"><a xlink:title=" ">
<path fill="none" stroke="#63b8ff" d="M159.35,-102.5C144.14,-102.5 128.48,-102.5 114.15,-102.5"/>
<polygon fill="#63b8ff" stroke="#63b8ff" points="164.49,-102.5 159.49,-104.75 161.99,-102.5 159.49,-102.5 159.49,-102.5 159.49,-102.5 161.99,-102.5 159.49,-100.25 164.49,-102.5 164.49,-102.5"/>
</a>
</g>
</g>
<!-- Node14 -->
<g id="Node000014" class="node">
<title>Node14</title>
<g id="a_Node000014"><a xlink:href="../../de/d08/classTabGame.html#a53b0f05911e83e54750db8b688ba3db5" target="_top" xlink:title=" ">
<polygon fill="white" stroke="#666666" points="527.5,-56 364.5,-56 364.5,-37 527.5,-37 527.5,-56"/>
<text text-anchor="middle" x="446" y="-44" font-family="Helvetica,sans-Serif" font-size="10.00">TabGame::actRotateViewCCW</text>
</a>
</g>
</g>
<!-- Node13&#45;&gt;Node14 -->
<g id="edge14_Node000013_Node000014" class="edge">
<title>Node13&#45;&gt;Node14</title>
<g id="a_edge14_Node000013_Node000014"><a xlink:title=" ">
<path fill="none" stroke="#63b8ff" d="M559.71,-46.5C548.98,-46.5 538.14,-46.5 527.63,-46.5"/>
<polygon fill="#63b8ff" stroke="#63b8ff" points="564.96,-46.5 559.96,-48.75 562.46,-46.5 559.96,-46.5 559.96,-46.5 559.96,-46.5 562.46,-46.5 559.96,-44.25 564.96,-46.5 564.96,-46.5"/>
</a>
</g>
</g>
<!-- Node16 -->
<g id="Node000016" class="node">
<title>Node16</title>
<g id="a_Node000016"><a xlink:href="../../de/d08/classTabGame.html#ae7c9d445dc6b56d8a7f814f72a264044" target="_top" xlink:title=" ">
<polygon fill="white" stroke="#666666" points="524,-19 368,-19 368,0 524,0 524,-19"/>
<text text-anchor="middle" x="446" y="-7" font-family="Helvetica,sans-Serif" font-size="10.00">TabGame::actRotateViewCW</text>
</a>
</g>
</g>
<!-- Node13&#45;&gt;Node16 -->
<g id="edge17_Node000013_Node000016" class="edge">
<title>Node13&#45;&gt;Node16</title>
<g id="a_edge17_Node000013_Node000016"><a xlink:title=" ">
<path fill="none" stroke="#63b8ff" d="M596.65,-36.06C566.57,-30.72 530.22,-24.27 500.87,-19.06"/>
<polygon fill="#63b8ff" stroke="#63b8ff" points="601.81,-36.97 596.49,-38.31 599.34,-36.53 596.88,-36.1 596.88,-36.1 596.88,-36.1 599.34,-36.53 597.28,-33.88 601.81,-36.97 601.81,-36.97"/>
</a>
</g>
</g>
<!-- Node15 -->
<g id="Node000015" class="node">
<title>Node15</title>
<g id="a_Node000015"><a xlink:href="../../de/d08/classTabGame.html#af5115487ce05482e74edc99f15232437" target="_top" xlink:title=" ">
<polygon fill="white" stroke="#666666" points="315.5,-56 161.5,-56 161.5,-37 315.5,-37 315.5,-56"/>
<text text-anchor="middle" x="238.5" y="-44" font-family="Helvetica,sans-Serif" font-size="10.00">TabGame::createMenuItems</text>
</a>
</g>
</g>
<!-- Node14&#45;&gt;Node15 -->
<g id="edge15_Node000014_Node000015" class="edge">
<title>Node14&#45;&gt;Node15</title>
<g id="a_edge15_Node000014_Node000015"><a xlink:title=" ">
<path fill="none" stroke="#63b8ff" d="M359.07,-46.5C344.62,-46.5 329.71,-46.5 315.53,-46.5"/>
<polygon fill="#63b8ff" stroke="#63b8ff" points="364.37,-46.5 359.37,-48.75 361.87,-46.5 359.37,-46.5 359.37,-46.5 359.37,-46.5 361.87,-46.5 359.37,-44.25 364.37,-46.5 364.37,-46.5"/>
</a>
</g>
</g>
<!-- Node15&#45;&gt;Node12 -->
<g id="edge16_Node000015_Node000012" class="edge">
<title>Node15&#45;&gt;Node12</title>
<g id="a_edge16_Node000015_Node000012"><a xlink:title=" ">
<path fill="none" stroke="#63b8ff" d="M201.87,-57.62C168.71,-67.96 119.83,-83.21 88.45,-93"/>
<polygon fill="#63b8ff" stroke="#63b8ff" points="206.64,-56.13 202.54,-59.76 204.26,-56.87 201.87,-57.62 201.87,-57.62 201.87,-57.62 204.26,-56.87 201.2,-55.47 206.64,-56.13 206.64,-56.13"/>
</a>
</g>
</g>
<!-- Node16&#45;&gt;Node15 -->
<g id="edge18_Node000016_Node000015" class="edge">
<title>Node16&#45;&gt;Node15</title>
<g id="a_edge18_Node000016_Node000015"><a xlink:title=" ">
<path fill="none" stroke="#63b8ff" d="M387,-19.94C357.35,-25.28 321.52,-31.73 292.6,-36.94"/>
<polygon fill="#63b8ff" stroke="#63b8ff" points="392.08,-19.03 387.56,-22.13 389.62,-19.47 387.16,-19.91 387.16,-19.91 387.16,-19.91 389.62,-19.47 386.76,-17.7 392.08,-19.03 392.08,-19.03"/>
</a>
</g>
</g>
<!-- Node17&#45;&gt;Node11 -->
<g id="edge20_Node000017_Node000011" class="edge">
<title>Node17&#45;&gt;Node11</title>
<g id="a_edge20_Node000017_Node000011"><a xlink:title=" ">
<path fill="none" stroke="#63b8ff" d="M144.75,-143.95C134.35,-143.78 124,-143.6 114.27,-143.44"/>
<polygon fill="#63b8ff" stroke="#63b8ff" points="149.85,-144.04 144.82,-146.2 147.35,-143.99 144.85,-143.95 144.85,-143.95 144.85,-143.95 147.35,-143.99 144.89,-141.7 149.85,-144.04 149.85,-144.04"/>
</a>
</g>
</g>
<!-- Node17&#45;&gt;Node12 -->
<g id="edge21_Node000017_Node000012" class="edge">
<title>Node17&#45;&gt;Node12</title>
<g id="a_edge21_Node000017_Node000012"><a xlink:title=" ">
<path fill="none" stroke="#63b8ff" d="M186.87,-134.88C174.77,-132.24 161.91,-129.34 150,-126.5 131.22,-122.01 110.38,-116.61 93.3,-112.07"/>
<polygon fill="#63b8ff" stroke="#63b8ff" points="192,-135.99 186.64,-137.13 189.56,-135.46 187.12,-134.93 187.12,-134.93 187.12,-134.93 189.56,-135.46 187.6,-132.73 192,-135.99 192,-135.99"/>
</a>
</g>
</g>
<!-- Node20 -->
<g id="Node000020" class="node">
<title>Node20</title>
<g id="a_Node000020"><a xlink:href="../../de/d08/classTabGame.html#a9127975621a7fd6a417b22f7ecd2cec0" target="_top" xlink:title=" ">
<polygon fill="white" stroke="#666666" points="529,-130 363,-130 363,-111 529,-111 529,-130"/>
<text text-anchor="middle" x="446" y="-118" font-family="Helvetica,sans-Serif" font-size="10.00">TabGame::processPlayerLeave</text>
</a>
</g>
</g>
<!-- Node19&#45;&gt;Node20 -->
<g id="edge24_Node000019_Node000020" class="edge">
<title>Node19&#45;&gt;Node20</title>
<g id="a_edge24_Node000019_Node000020"><a xlink:title=" ">
<path fill="none" stroke="#63b8ff" d="M576.74,-120.5C561.16,-120.5 544.77,-120.5 529.08,-120.5"/>
<polygon fill="#63b8ff" stroke="#63b8ff" points="581.99,-120.5 576.99,-122.75 579.49,-120.5 576.99,-120.5 576.99,-120.5 576.99,-120.5 579.49,-120.5 576.99,-118.25 581.99,-120.5 581.99,-120.5"/>
</a>
</g>
</g>
<!-- Node20&#45;&gt;Node10 -->
<g id="edge25_Node000020_Node000010" class="edge">
<title>Node20&#45;&gt;Node10</title>
<g id="a_edge25_Node000020_Node000010"><a xlink:title=" ">
<path fill="none" stroke="#63b8ff" d="M357.8,-112.86C342.71,-111.54 327.17,-110.18 312.51,-108.89"/>
<polygon fill="#63b8ff" stroke="#63b8ff" points="362.9,-113.31 357.72,-115.11 360.4,-113.09 357.91,-112.87 357.91,-112.87 357.91,-112.87 360.4,-113.09 358.11,-110.63 362.9,-113.31 362.9,-113.31"/>
</a>
</g>
</g>
</g>
</svg>
