<?xml version="1.0" encoding="UTF-8" standalone="no"?>
<!DOCTYPE svg PUBLIC "-//W3C//DTD SVG 1.1//EN"
 "http://www.w3.org/Graphics/SVG/1.1/DTD/svg11.dtd">
<!-- Generated by graphviz version 2.43.0 (0)
 -->
<!-- Title: ConnectionController Pages: 1 -->
<svg width="475pt" height="227pt"
 viewBox="0.00 0.00 474.78 227.00" xmlns="http://www.w3.org/2000/svg" xmlns:xlink="http://www.w3.org/1999/xlink">

<svg id="main" version="1.1" xmlns="http://www.w3.org/2000/svg" xmlns:xlink="http://www.w3.org/1999/xlink" xml:space="preserve">

<style type="text/css"><![CDATA[
.node, .edge {opacity: 0.7;}
.node.selected, .edge.selected {opacity: 1;}
.edge:hover path { stroke: red; }
.edge:hover polygon { stroke: red; fill: red; }
]]></style>
<script type="application/ecmascript" xlink:href="../../svg.min.js"/>
<svg id="graph" class="graph">
<g id="graph0" class="graph" transform="scale(1 1) rotate(0) translate(4 223)">
<title>ConnectionController</title>
<!-- Node1 -->
<g id="Node000001" class="node">
<title>Node1</title>
<g id="a_Node000001"><a xlink:title=" ">
<polygon fill="#999999" stroke="#666666" points="185.78,-19 66.78,-19 66.78,0 185.78,0 185.78,-19"/>
<text text-anchor="middle" x="126.28" y="-7" font-family="Helvetica,sans-Serif" font-size="10.00">ConnectionController</text>
</a>
</g>
</g>
<!-- Node2 -->
<g id="Node000002" class="node">
<title>Node2</title>
<g id="a_Node000002"><a xlink:title=" ">
<polygon fill="white" stroke="#666666" points="82.28,-219 26.28,-219 26.28,-200 82.28,-200 82.28,-219"/>
<text text-anchor="middle" x="54.28" y="-207" font-family="Helvetica,sans-Serif" font-size="10.00">QObject</text>
</a>
</g>
</g>
<!-- Node2&#45;&gt;Node1 -->
<g id="edge1_Node000001_Node000002" class="edge">
<title>Node2&#45;&gt;Node1</title>
<g id="a_edge1_Node000001_Node000002"><a xlink:title=" ">
<path fill="none" stroke="#63b8ff" d="M34.1,-197.01C16.14,-185.13 -6.11,-165.35 2.28,-144 25.06,-86 86.21,-38.21 113.19,-19.26"/>
<polygon fill="#63b8ff" stroke="#63b8ff" points="38.56,-199.86 33.13,-199.06 36.45,-198.51 34.34,-197.17 34.34,-197.17 34.34,-197.17 36.45,-198.51 35.55,-195.27 38.56,-199.86 38.56,-199.86"/>
</a>
</g>
</g>
<!-- Node4 -->
<g id="Node000004" class="node">
<title>Node4</title>
<g id="a_Node000004"><a xlink:href="../../dc/d86/classAbstractClient.html" target="_top" xlink:title=" ">
<polygon fill="white" stroke="#666666" points="97.28,-163 11.28,-163 11.28,-144 97.28,-144 97.28,-163"/>
<text text-anchor="middle" x="54.28" y="-151" font-family="Helvetica,sans-Serif" font-size="10.00">AbstractClient</text>
</a>
</g>
</g>
<!-- Node2&#45;&gt;Node4 -->
<g id="edge4_Node000004_Node000002" class="edge">
<title>Node2&#45;&gt;Node4</title>
<g id="a_edge4_Node000004_Node000002"><a xlink:title=" ">
<path fill="none" stroke="#63b8ff" d="M54.28,-194.46C54.28,-184.59 54.28,-171.69 54.28,-163.25"/>
<polygon fill="#63b8ff" stroke="#63b8ff" points="54.28,-199.58 52.03,-194.58 54.28,-197.08 54.28,-194.58 54.28,-194.58 54.28,-194.58 54.28,-197.08 56.53,-194.58 54.28,-199.58 54.28,-199.58"/>
</a>
</g>
</g>
<!-- Node8 -->
<g id="Node000008" class="node">
<title>Node8</title>
<g id="a_Node000008"><a xlink:href="../../d9/ddd/classHandlePublicServers.html" target="_top" xlink:title=" ">
<polygon fill="white" stroke="#666666" points="466.78,-163 349.78,-163 349.78,-144 466.78,-144 466.78,-163"/>
<text text-anchor="middle" x="408.28" y="-151" font-family="Helvetica,sans-Serif" font-size="10.00">HandlePublicServers</text>
</a>
</g>
</g>
<!-- Node2&#45;&gt;Node8 -->
<g id="edge9_Node000008_Node000002" class="edge">
<title>Node2&#45;&gt;Node8</title>
<g id="a_edge9_Node000008_Node000002"><a xlink:title=" ">
<path fill="none" stroke="#63b8ff" d="M87.3,-203.46C148,-194.2 277.88,-174.39 352.48,-163.01"/>
<polygon fill="#63b8ff" stroke="#63b8ff" points="82.35,-204.22 86.96,-201.24 84.82,-203.84 87.3,-203.46 87.3,-203.46 87.3,-203.46 84.82,-203.84 87.63,-205.69 82.35,-204.22 82.35,-204.22"/>
</a>
</g>
</g>
<!-- Node3 -->
<g id="Node000003" class="node">
<title>Node3</title>
<g id="a_Node000003"><a xlink:href="../../db/d53/classRemoteClient.html" target="_top" xlink:title=" ">
<polygon fill="white" stroke="#666666" points="167.78,-91 84.78,-91 84.78,-72 167.78,-72 167.78,-91"/>
<text text-anchor="middle" x="126.28" y="-79" font-family="Helvetica,sans-Serif" font-size="10.00">RemoteClient</text>
</a>
</g>
</g>
<!-- Node3&#45;&gt;Node1 -->
<g id="edge2_Node000001_Node000003" class="edge">
<title>Node3&#45;&gt;Node1</title>
<g id="a_edge2_Node000001_Node000003"><a xlink:title=" ">
<path fill="none" stroke="#9a32cd" stroke-dasharray="5,2" d="M126.28,-66.72C126.28,-52.59 126.28,-31.05 126.28,-19.15"/>
<polygon fill="#9a32cd" stroke="#9a32cd" points="126.28,-71.92 124.03,-66.92 126.28,-69.42 126.28,-66.92 126.28,-66.92 126.28,-66.92 126.28,-69.42 128.53,-66.92 126.28,-71.92 126.28,-71.92"/>
</a>
</g>
<text text-anchor="start" x="129.28" y="-42.5" font-family="Helvetica,sans-Serif" font-size="10.00" fill="grey">remoteClient</text>
</g>
<!-- Node4&#45;&gt;Node3 -->
<g id="edge3_Node000003_Node000004" class="edge">
<title>Node4&#45;&gt;Node3</title>
<g id="a_edge3_Node000003_Node000004"><a xlink:title=" ">
<path fill="none" stroke="#63b8ff" d="M66.94,-140.19C81.4,-126.13 104.71,-103.47 117.38,-91.15"/>
<polygon fill="#63b8ff" stroke="#63b8ff" points="63.11,-143.92 65.12,-138.82 64.9,-142.17 66.69,-140.43 66.69,-140.43 66.69,-140.43 64.9,-142.17 68.26,-142.04 63.11,-143.92 63.11,-143.92"/>
</a>
</g>
</g>
<!-- Node5 -->
<g id="Node000005" class="node">
<title>Node5</title>
<g id="a_Node000005"><a xlink:href="../../d9/dad/classINetworkSettingsProvider.html" target="_top" xlink:title=" ">
<polygon fill="white" stroke="#666666" points="256.78,-163 115.78,-163 115.78,-144 256.78,-144 256.78,-163"/>
<text text-anchor="middle" x="186.28" y="-151" font-family="Helvetica,sans-Serif" font-size="10.00">INetworkSettingsProvider</text>
</a>
</g>
</g>
<!-- Node5&#45;&gt;Node3 -->
<g id="edge5_Node000003_Node000005" class="edge">
<title>Node5&#45;&gt;Node3</title>
<g id="a_edge5_Node000003_Node000005"><a xlink:title=" ">
<path fill="none" stroke="#9a32cd" stroke-dasharray="5,2" d="M175.42,-139.83C163.34,-125.74 144.17,-103.37 133.7,-91.15"/>
<polygon fill="#9a32cd" stroke="#9a32cd" points="178.92,-143.92 173.96,-141.58 177.29,-142.02 175.67,-140.12 175.67,-140.12 175.67,-140.12 177.29,-142.02 177.38,-138.66 178.92,-143.92 178.92,-143.92"/>
</a>
</g>
<text text-anchor="start" x="167.78" y="-114.5" font-family="Helvetica,sans-Serif" font-size="10.00" fill="grey">networkSettingsProvider</text>
</g>
<!-- Node6 -->
<g id="Node000006" class="node">
<title>Node6</title>
<g id="a_Node000006"><a xlink:href="../../d3/da4/classDlgConnect.html" target="_top" xlink:title=" ">
<polygon fill="white" stroke="#666666" points="339.78,-91 266.78,-91 266.78,-72 339.78,-72 339.78,-91"/>
<text text-anchor="middle" x="303.28" y="-79" font-family="Helvetica,sans-Serif" font-size="10.00">DlgConnect</text>
</a>
</g>
</g>
<!-- Node6&#45;&gt;Node1 -->
<g id="edge6_Node000001_Node000006" class="edge">
<title>Node6&#45;&gt;Node1</title>
<g id="a_edge6_Node000001_Node000006"><a xlink:title=" ">
<path fill="none" stroke="#9a32cd" stroke-dasharray="5,2" d="M279.25,-69.9C258.48,-60.85 227.57,-47.64 200.28,-37 184.13,-30.7 165.79,-24.13 151.41,-19.11"/>
<polygon fill="#9a32cd" stroke="#9a32cd" points="284.05,-72 278.56,-72.06 281.76,-71 279.46,-70 279.46,-70 279.46,-70 281.76,-71 280.37,-67.94 284.05,-72 284.05,-72"/>
</a>
</g>
<text text-anchor="start" x="243.78" y="-42.5" font-family="Helvetica,sans-Serif" font-size="10.00" fill="grey">dlgConnect</text>
</g>
<!-- Node7 -->
<g id="Node000007" class="node">
<title>Node7</title>
<g id="a_Node000007"><a xlink:title=" ">
<polygon fill="white" stroke="#666666" points="331.28,-163 275.28,-163 275.28,-144 331.28,-144 331.28,-163"/>
<text text-anchor="middle" x="303.28" y="-151" font-family="Helvetica,sans-Serif" font-size="10.00">QDialog</text>
</a>
</g>
</g>
<!-- Node7&#45;&gt;Node6 -->
<g id="edge7_Node000006_Node000007" class="edge">
<title>Node7&#45;&gt;Node6</title>
<g id="a_edge7_Node000006_Node000007"><a xlink:title=" ">
<path fill="none" stroke="#63b8ff" d="M303.28,-138.72C303.28,-124.59 303.28,-103.05 303.28,-91.15"/>
<polygon fill="#63b8ff" stroke="#63b8ff" points="303.28,-143.92 301.03,-138.92 303.28,-141.42 303.28,-138.92 303.28,-138.92 303.28,-138.92 303.28,-141.42 305.53,-138.92 303.28,-143.92 303.28,-143.92"/>
</a>
</g>
</g>
<!-- Node8&#45;&gt;Node6 -->
<g id="edge8_Node000006_Node000008" class="edge">
<title>Node8&#45;&gt;Node6</title>
<g id="a_edge8_Node000006_Node000008"><a xlink:title=" ">
<path fill="none" stroke="#9a32cd" stroke-dasharray="5,2" d="M391.15,-141.08C370.18,-127.1 335.13,-103.74 316.26,-91.15"/>
<polygon fill="#9a32cd" stroke="#9a32cd" points="395.4,-143.92 390,-143.02 393.32,-142.53 391.24,-141.14 391.24,-141.14 391.24,-141.14 393.32,-142.53 392.49,-139.27 395.4,-143.92 395.4,-143.92"/>
</a>
</g>
<text text-anchor="start" x="370.28" y="-114.5" font-family="Helvetica,sans-Serif" font-size="10.00" fill="grey">hps</text>
</g>
</g>
</svg>
</svg>

<style type='text/css'>
<![CDATA[
[data-mouse-over-selected='false'] { opacity: 0.7; }
[data-mouse-over-selected='true']  { opacity: 1.0; }
]]>
</style>
<script type="application/ecmascript"><![CDATA[
document.addEventListener('DOMContentLoaded', (event) => {
  highlightEdges();
  highlightAdjacentNodes();
});
]]></script>
</svg>
