<?xml version="1.0" encoding="UTF-8" standalone="no"?>
<!DOCTYPE svg PUBLIC "-//W3C//DTD SVG 1.1//EN"
 "http://www.w3.org/Graphics/SVG/1.1/DTD/svg11.dtd">
<!-- Generated by graphviz version 2.43.0 (0)
 -->
<!-- Title: GamesProxyModel::saveFilterParameters Pages: 1 -->
<svg width="357pt" height="64pt"
 viewBox="0.00 0.00 357.00 64.00" xmlns="http://www.w3.org/2000/svg" xmlns:xlink="http://www.w3.org/1999/xlink">
<g id="graph0" class="graph" transform="scale(1 1) rotate(0) translate(4 60)">
<title>GamesProxyModel::saveFilterParameters</title>
<!-- Node1 -->
<g id="Node000001" class="node">
<title>Node1</title>
<g id="a_Node000001"><a xlink:title=" ">
<polygon fill="#999999" stroke="#666666" points="163,-42.5 0,-42.5 0,-12.5 163,-12.5 163,-42.5"/>
<text text-anchor="start" x="8" y="-30.5" font-family="Helvetica,sans-Serif" font-size="10.00">GamesProxyModel::saveFilter</text>
<text text-anchor="middle" x="81.5" y="-19.5" font-family="Helvetica,sans-Serif" font-size="10.00">Parameters</text>
</a>
</g>
</g>
<!-- Node2 -->
<g id="Node000002" class="node">
<title>Node2</title>
<g id="a_Node000002"><a xlink:href="../../d5/d88/classSettingsCache.html#a9203086f195726592cc2f1ebabb97a1f" target="_top" xlink:title=" ">
<polygon fill="white" stroke="#666666" points="349,-56 199,-56 199,-37 349,-37 349,-56"/>
<text text-anchor="middle" x="274" y="-44" font-family="Helvetica,sans-Serif" font-size="10.00">SettingsCache::gameFilters</text>
</a>
</g>
</g>
<!-- Node1&#45;&gt;Node2 -->
<g id="edge1_Node000001_Node000002" class="edge">
<title>Node1&#45;&gt;Node2</title>
<g id="a_edge1_Node000001_Node000002"><a xlink:title=" ">
<path fill="none" stroke="#63b8ff" d="M163.01,-35.53C173.22,-36.55 183.66,-37.59 193.85,-38.61"/>
<polygon fill="#63b8ff" stroke="#63b8ff" points="198.83,-39.1 193.63,-40.85 196.34,-38.85 193.86,-38.61 193.86,-38.61 193.86,-38.61 196.34,-38.85 194.08,-36.37 198.83,-39.1 198.83,-39.1"/>
</a>
</g>
</g>
<!-- Node3 -->
<g id="Node000003" class="node">
<title>Node3</title>
<g id="a_Node000003"><a xlink:href="../../d5/d88/classSettingsCache.html#adfa7f9f975919981b992db1fca9e4957" target="_top" xlink:title=" ">
<polygon fill="white" stroke="#666666" points="341,-19 207,-19 207,0 341,0 341,-19"/>
<text text-anchor="middle" x="274" y="-7" font-family="Helvetica,sans-Serif" font-size="10.00">SettingsCache::instance</text>
</a>
</g>
</g>
<!-- Node1&#45;&gt;Node3 -->
<g id="edge2_Node000001_Node000003" class="edge">
<title>Node1&#45;&gt;Node3</title>
<g id="a_edge2_Node000001_Node000003"><a xlink:title=" ">
<path fill="none" stroke="#63b8ff" d="M163.01,-19.89C175.92,-18.67 189.2,-17.42 201.87,-16.22"/>
<polygon fill="#63b8ff" stroke="#63b8ff" points="206.88,-15.75 202.12,-18.46 204.39,-15.98 201.9,-16.22 201.9,-16.22 201.9,-16.22 204.39,-15.98 201.69,-13.98 206.88,-15.75 206.88,-15.75"/>
</a>
</g>
</g>
</g>
</svg>
