<?xml version="1.0" encoding="UTF-8" standalone="no"?>
<!DOCTYPE svg PUBLIC "-//W3C//DTD SVG 1.1//EN"
 "http://www.w3.org/Graphics/SVG/1.1/DTD/svg11.dtd">
<!-- Generated by graphviz version 2.43.0 (0)
 -->
<!-- Title: GamesProxyModel::resetFilterParameters Pages: 1 -->
<svg width="582pt" height="76pt"
 viewBox="0.00 0.00 582.00 75.50" xmlns="http://www.w3.org/2000/svg" xmlns:xlink="http://www.w3.org/1999/xlink">
<g id="graph0" class="graph" transform="scale(1 1) rotate(0) translate(4 71.5)">
<title>GamesProxyModel::resetFilterParameters</title>
<!-- Node1 -->
<g id="Node000001" class="node">
<title>Node1</title>
<g id="a_Node000001"><a xlink:title=" ">
<polygon fill="#999999" stroke="#666666" points="574,-51 410,-51 410,-21 574,-21 574,-51"/>
<text text-anchor="start" x="418" y="-39" font-family="Helvetica,sans-Serif" font-size="10.00">GamesProxyModel::resetFilter</text>
<text text-anchor="middle" x="492" y="-28" font-family="Helvetica,sans-Serif" font-size="10.00">Parameters</text>
</a>
</g>
</g>
<!-- Node2 -->
<g id="Node000002" class="node">
<title>Node2</title>
<g id="a_Node000002"><a xlink:href="../../df/d3f/classGameSelector.html#a7bd6f443362d8a4bcece4207860e9f7f" target="_top" xlink:title=" ">
<polygon fill="white" stroke="#666666" points="364,-67.5 207,-67.5 207,-48.5 364,-48.5 364,-67.5"/>
<text text-anchor="middle" x="285.5" y="-55.5" font-family="Helvetica,sans-Serif" font-size="10.00">GameSelector::actClearFilter</text>
</a>
</g>
</g>
<!-- Node1&#45;&gt;Node2 -->
<g id="edge1_Node000001_Node000002" class="edge">
<title>Node1&#45;&gt;Node2</title>
<g id="a_edge1_Node000001_Node000002"><a xlink:title=" ">
<path fill="none" stroke="#63b8ff" d="M404.57,-45.3C391.16,-46.74 377.38,-48.22 364.19,-49.64"/>
<polygon fill="#63b8ff" stroke="#63b8ff" points="409.88,-44.73 405.15,-47.5 407.4,-44.99 404.91,-45.26 404.91,-45.26 404.91,-45.26 407.4,-44.99 404.67,-43.02 409.88,-44.73 409.88,-44.73"/>
</a>
</g>
</g>
<!-- Node4 -->
<g id="Node000004" class="node">
<title>Node4</title>
<g id="a_Node000004"><a xlink:href="../../db/db4/classGamesProxyModel.html#aeb9700fd2923ac097d63678fddd42ef8" target="_top" xlink:title=" ">
<polygon fill="white" stroke="#666666" points="374,-30 197,-30 197,0 374,0 374,-30"/>
<text text-anchor="start" x="205" y="-18" font-family="Helvetica,sans-Serif" font-size="10.00">GamesProxyModel::GamesProxy</text>
<text text-anchor="middle" x="285.5" y="-7" font-family="Helvetica,sans-Serif" font-size="10.00">Model</text>
</a>
</g>
</g>
<!-- Node1&#45;&gt;Node4 -->
<g id="edge3_Node000001_Node000004" class="edge">
<title>Node1&#45;&gt;Node4</title>
<g id="a_edge3_Node000001_Node000004"><a xlink:title=" ">
<path fill="none" stroke="#63b8ff" d="M404.64,-27.13C394.59,-26.1 384.32,-25.05 374.25,-24.01"/>
<polygon fill="#63b8ff" stroke="#63b8ff" points="409.88,-27.67 404.68,-29.4 407.4,-27.41 404.91,-27.16 404.91,-27.16 404.91,-27.16 407.4,-27.41 405.14,-24.92 409.88,-27.67 409.88,-27.67"/>
</a>
</g>
</g>
<!-- Node3 -->
<g id="Node000003" class="node">
<title>Node3</title>
<g id="a_Node000003"><a xlink:href="../../df/d3f/classGameSelector.html#a5349eb187f8318d008fc1b805c17cf0c" target="_top" xlink:title=" ">
<polygon fill="white" stroke="#666666" points="161,-67.5 0,-67.5 0,-48.5 161,-48.5 161,-67.5"/>
<text text-anchor="middle" x="80.5" y="-55.5" font-family="Helvetica,sans-Serif" font-size="10.00">GameSelector::GameSelector</text>
</a>
</g>
</g>
<!-- Node2&#45;&gt;Node3 -->
<g id="edge2_Node000002_Node000003" class="edge">
<title>Node2&#45;&gt;Node3</title>
<g id="a_edge2_Node000002_Node000003"><a xlink:title=" ">
<path fill="none" stroke="#63b8ff" d="M201.58,-58C188.21,-58 174.39,-58 161.09,-58"/>
<polygon fill="#63b8ff" stroke="#63b8ff" points="206.89,-58 201.89,-60.25 204.39,-58 201.89,-58 201.89,-58 201.89,-58 204.39,-58 201.89,-55.75 206.89,-58 206.89,-58"/>
</a>
</g>
</g>
</g>
</svg>
