<?xml version="1.0" encoding="UTF-8" standalone="no"?>
<!DOCTYPE svg PUBLIC "-//W3C//DTD SVG 1.1//EN"
 "http://www.w3.org/Graphics/SVG/1.1/DTD/svg11.dtd">
<!-- Generated by graphviz version 2.43.0 (0)
 -->
<!-- Title: cockatrice/src/client/sound_engine.cpp Pages: 1 -->
<svg width="2083pt" height="258pt"
 viewBox="0.00 0.00 2082.85 258.00" xmlns="http://www.w3.org/2000/svg" xmlns:xlink="http://www.w3.org/1999/xlink">
<g id="graph0" class="graph" transform="scale(1 1) rotate(0) translate(4 254)">
<title>cockatrice/src/client/sound_engine.cpp</title>
<!-- Node1 -->
<g id="Node000001" class="node">
<title>Node1</title>
<g id="a_Node000001"><a xlink:title=" ">
<polygon fill="#999999" stroke="#666666" points="414,-250 301,-250 301,-220 414,-220 414,-250"/>
<text text-anchor="start" x="309" y="-238" font-family="Helvetica,sans-Serif" font-size="10.00">cockatrice/src/client</text>
<text text-anchor="middle" x="357.5" y="-227" font-family="Helvetica,sans-Serif" font-size="10.00">/sound_engine.cpp</text>
</a>
</g>
</g>
<!-- Node2 -->
<g id="Node000002" class="node">
<title>Node2</title>
<g id="a_Node000002"><a xlink:href="../../dc/d9b/sound__engine_8h.html" target="_top" xlink:title=" ">
<polygon fill="white" stroke="#666666" points="282,-184 189,-184 189,-165 282,-165 282,-184"/>
<text text-anchor="middle" x="235.5" y="-172" font-family="Helvetica,sans-Serif" font-size="10.00">sound_engine.h</text>
</a>
</g>
</g>
<!-- Node1&#45;&gt;Node2 -->
<g id="edge1_Node000001_Node000002" class="edge">
<title>Node1&#45;&gt;Node2</title>
<g id="a_edge1_Node000001_Node000002"><a xlink:title=" ">
<path fill="none" stroke="#63b8ff" d="M328.28,-219.99C306.74,-209.66 277.87,-195.82 258.09,-186.33"/>
<polygon fill="#63b8ff" stroke="#63b8ff" points="253.52,-184.14 259,-184.27 255.77,-185.22 258.03,-186.3 258.03,-186.3 258.03,-186.3 255.77,-185.22 257.05,-188.33 253.52,-184.14 253.52,-184.14"/>
</a>
</g>
</g>
<!-- Node3 -->
<g id="Node000003" class="node">
<title>Node3</title>
<g id="a_Node000003"><a xlink:title=" ">
<polygon fill="#e0e0e0" stroke="#999999" points="85,-129 0,-129 0,-110 85,-110 85,-129"/>
<text text-anchor="middle" x="42.5" y="-117" font-family="Helvetica,sans-Serif" font-size="10.00">QAudioOutput</text>
</a>
</g>
</g>
<!-- Node1&#45;&gt;Node3 -->
<g id="edge54_Node000001_Node000003" class="edge">
<title>Node1&#45;&gt;Node3</title>
<g id="a_edge54_Node000001_Node000003"><a xlink:title=" ">
<path fill="none" stroke="#63b8ff" d="M300.64,-220.51C265.33,-211.52 219.24,-198.69 179.5,-184 137.37,-168.43 90.26,-145.26 63.72,-131.63"/>
<polygon fill="#63b8ff" stroke="#63b8ff" points="59.01,-129.2 64.48,-129.5 61.23,-130.35 63.45,-131.5 63.45,-131.5 63.45,-131.5 61.23,-130.35 62.42,-133.5 59.01,-129.2 59.01,-129.2"/>
</a>
</g>
</g>
<!-- Node6 -->
<g id="Node000006" class="node">
<title>Node6</title>
<g id="a_Node000006"><a xlink:title=" ">
<polygon fill="#e0e0e0" stroke="#999999" points="400,-129 315,-129 315,-110 400,-110 400,-129"/>
<text text-anchor="middle" x="357.5" y="-117" font-family="Helvetica,sans-Serif" font-size="10.00">QMediaPlayer</text>
</a>
</g>
</g>
<!-- Node1&#45;&gt;Node6 -->
<g id="edge53_Node000001_Node000006" class="edge">
<title>Node1&#45;&gt;Node6</title>
<g id="a_edge53_Node000001_Node000006"><a xlink:title=" ">
<path fill="none" stroke="#63b8ff" d="M357.5,-219.63C357.5,-197.63 357.5,-155.9 357.5,-134.27"/>
<polygon fill="#63b8ff" stroke="#63b8ff" points="357.5,-129.23 359.75,-134.23 357.5,-131.73 357.5,-134.23 357.5,-134.23 357.5,-134.23 357.5,-131.73 355.25,-134.23 357.5,-129.23 357.5,-129.23"/>
</a>
</g>
</g>
<!-- Node9 -->
<g id="Node000009" class="node">
<title>Node9</title>
<g id="a_Node000009"><a xlink:href="../../dc/db3/cache__settings_8h.html" target="_top" xlink:title=" ">
<polygon fill="white" stroke="#666666" points="1103,-184 954,-184 954,-165 1103,-165 1103,-184"/>
<text text-anchor="middle" x="1028.5" y="-172" font-family="Helvetica,sans-Serif" font-size="10.00">../settings/cache_settings.h</text>
</a>
</g>
</g>
<!-- Node1&#45;&gt;Node9 -->
<g id="edge8_Node000001_Node000009" class="edge">
<title>Node1&#45;&gt;Node9</title>
<g id="a_edge8_Node000001_Node000009"><a xlink:title=" ">
<path fill="none" stroke="#63b8ff" d="M414.13,-229.06C533.53,-218.65 811.35,-194.43 948.7,-182.46"/>
<polygon fill="#63b8ff" stroke="#63b8ff" points="953.93,-182 949.15,-184.68 951.44,-182.22 948.95,-182.44 948.95,-182.44 948.95,-182.44 951.44,-182.22 948.76,-180.19 953.93,-182 953.93,-182"/>
</a>
</g>
</g>
<!-- Node31 -->
<g id="Node000031" class="node">
<title>Node31</title>
<g id="a_Node000031"><a xlink:title=" ">
<polygon fill="#e0e0e0" stroke="#999999" points="1158.5,-184 1120.5,-184 1120.5,-165 1158.5,-165 1158.5,-184"/>
<text text-anchor="middle" x="1139.5" y="-172" font-family="Helvetica,sans-Serif" font-size="10.00">QDir</text>
</a>
</g>
</g>
<!-- Node1&#45;&gt;Node31 -->
<g id="edge52_Node000001_Node000031" class="edge">
<title>Node1&#45;&gt;Node31</title>
<g id="a_edge52_Node000001_Node000031"><a xlink:title=" ">
<path fill="none" stroke="#63b8ff" d="M414.43,-234.84C541.08,-235.7 855.25,-232.29 1112.5,-184 1113.48,-183.82 1114.47,-183.61 1115.47,-183.38"/>
<polygon fill="#63b8ff" stroke="#63b8ff" points="1120.47,-182.11 1116.18,-185.52 1118.05,-182.73 1115.62,-183.34 1115.62,-183.34 1115.62,-183.34 1118.05,-182.73 1115.07,-181.16 1120.47,-182.11 1120.47,-182.11"/>
</a>
</g>
</g>
<!-- Node2&#45;&gt;Node3 -->
<g id="edge2_Node000002_Node000003" class="edge">
<title>Node2&#45;&gt;Node3</title>
<g id="a_edge2_Node000002_Node000003"><a xlink:title=" ">
<path fill="none" stroke="#63b8ff" d="M204.49,-164.98C170.27,-155.59 115.23,-140.47 78.96,-130.51"/>
<polygon fill="#63b8ff" stroke="#63b8ff" points="73.75,-129.08 79.17,-128.24 76.16,-129.74 78.57,-130.41 78.57,-130.41 78.57,-130.41 76.16,-129.74 77.98,-132.58 73.75,-129.08 73.75,-129.08"/>
</a>
</g>
</g>
<!-- Node4 -->
<g id="Node000004" class="node">
<title>Node4</title>
<g id="a_Node000004"><a xlink:title=" ">
<polygon fill="#e0e0e0" stroke="#999999" points="564,-74 457,-74 457,-55 564,-55 564,-74"/>
<text text-anchor="middle" x="510.5" y="-62" font-family="Helvetica,sans-Serif" font-size="10.00">QLoggingCategory</text>
</a>
</g>
</g>
<!-- Node2&#45;&gt;Node4 -->
<g id="edge3_Node000002_Node000004" class="edge">
<title>Node2&#45;&gt;Node4</title>
<g id="a_edge3_Node000002_Node000004"><a xlink:title=" ">
<path fill="none" stroke="#63b8ff" d="M242.25,-164.99C253.71,-151.16 278.36,-123.96 305.5,-110 351.4,-86.38 409.31,-75.27 451.87,-70.07"/>
<polygon fill="#63b8ff" stroke="#63b8ff" points="456.98,-69.46 452.28,-72.28 454.5,-69.75 452.02,-70.05 452.02,-70.05 452.02,-70.05 454.5,-69.75 451.75,-67.81 456.98,-69.46 456.98,-69.46"/>
</a>
</g>
</g>
<!-- Node5 -->
<g id="Node000005" class="node">
<title>Node5</title>
<g id="a_Node000005"><a xlink:title=" ">
<polygon fill="#e0e0e0" stroke="#999999" points="258,-129 213,-129 213,-110 258,-110 258,-129"/>
<text text-anchor="middle" x="235.5" y="-117" font-family="Helvetica,sans-Serif" font-size="10.00">QMap</text>
</a>
</g>
</g>
<!-- Node2&#45;&gt;Node5 -->
<g id="edge4_Node000002_Node000005" class="edge">
<title>Node2&#45;&gt;Node5</title>
<g id="a_edge4_Node000002_Node000005"><a xlink:title=" ">
<path fill="none" stroke="#63b8ff" d="M235.5,-164.75C235.5,-156.41 235.5,-143.74 235.5,-134.09"/>
<polygon fill="#63b8ff" stroke="#63b8ff" points="235.5,-129.09 237.75,-134.09 235.5,-131.59 235.5,-134.09 235.5,-134.09 235.5,-134.09 235.5,-131.59 233.25,-134.09 235.5,-129.09 235.5,-129.09"/>
</a>
</g>
</g>
<!-- Node2&#45;&gt;Node6 -->
<g id="edge5_Node000002_Node000006" class="edge">
<title>Node2&#45;&gt;Node6</title>
<g id="a_edge5_Node000002_Node000006"><a xlink:title=" ">
<path fill="none" stroke="#63b8ff" d="M255.1,-164.98C276.23,-155.81 309.91,-141.18 332.82,-131.22"/>
<polygon fill="#63b8ff" stroke="#63b8ff" points="337.54,-129.17 333.85,-133.23 335.25,-130.17 332.96,-131.16 332.96,-131.16 332.96,-131.16 335.25,-130.17 332.06,-129.1 337.54,-129.17 337.54,-129.17"/>
</a>
</g>
</g>
<!-- Node7 -->
<g id="Node000007" class="node">
<title>Node7</title>
<g id="a_Node000007"><a xlink:title=" ">
<polygon fill="#e0e0e0" stroke="#999999" points="1121.5,-19 1065.5,-19 1065.5,0 1121.5,0 1121.5,-19"/>
<text text-anchor="middle" x="1093.5" y="-7" font-family="Helvetica,sans-Serif" font-size="10.00">QObject</text>
</a>
</g>
</g>
<!-- Node2&#45;&gt;Node7 -->
<g id="edge6_Node000002_Node000007" class="edge">
<title>Node2&#45;&gt;Node7</title>
<g id="a_edge6_Node000002_Node000007"><a xlink:title=" ">
<path fill="none" stroke="#63b8ff" d="M225.07,-164.64C211.14,-151.75 189.73,-127.44 203.5,-110 268.91,-27.18 330.16,-70.83 434.5,-55 672.57,-18.88 963.49,-12.07 1060.37,-10.8"/>
<polygon fill="#63b8ff" stroke="#63b8ff" points="1065.38,-10.73 1060.41,-13.04 1062.88,-10.76 1060.38,-10.79 1060.38,-10.79 1060.38,-10.79 1062.88,-10.76 1060.35,-8.55 1065.38,-10.73 1065.38,-10.73"/>
</a>
</g>
</g>
<!-- Node8 -->
<g id="Node000008" class="node">
<title>Node8</title>
<g id="a_Node000008"><a xlink:title=" ">
<polygon fill="#e0e0e0" stroke="#999999" points="156,-129 103,-129 103,-110 156,-110 156,-129"/>
<text text-anchor="middle" x="129.5" y="-117" font-family="Helvetica,sans-Serif" font-size="10.00">QString</text>
</a>
</g>
</g>
<!-- Node2&#45;&gt;Node8 -->
<g id="edge7_Node000002_Node000008" class="edge">
<title>Node2&#45;&gt;Node8</title>
<g id="a_edge7_Node000002_Node000008"><a xlink:title=" ">
<path fill="none" stroke="#63b8ff" d="M218.47,-164.98C200.26,-155.88 171.34,-141.42 151.44,-131.47"/>
<polygon fill="#63b8ff" stroke="#63b8ff" points="146.84,-129.17 152.32,-129.39 149.08,-130.29 151.31,-131.41 151.31,-131.41 151.31,-131.41 149.08,-130.29 150.31,-133.42 146.84,-129.17 146.84,-129.17"/>
</a>
</g>
</g>
<!-- Node9&#45;&gt;Node4 -->
<g id="edge48_Node000009_Node000004" class="edge">
<title>Node9&#45;&gt;Node4</title>
<g id="a_edge48_Node000009_Node000004"><a xlink:title=" ">
<path fill="none" stroke="#63b8ff" d="M953.85,-172.87C812.39,-170.9 516.59,-162.74 485.5,-129 472.26,-114.63 486.46,-92.42 498.23,-78.43"/>
<polygon fill="#63b8ff" stroke="#63b8ff" points="501.78,-74.38 500.18,-79.62 500.13,-76.26 498.49,-78.14 498.49,-78.14 498.49,-78.14 500.13,-76.26 496.79,-76.66 501.78,-74.38 501.78,-74.38"/>
</a>
</g>
</g>
<!-- Node9&#45;&gt;Node7 -->
<g id="edge49_Node000009_Node000007" class="edge">
<title>Node9&#45;&gt;Node7</title>
<g id="a_edge49_Node000009_Node000007"><a xlink:title=" ">
<path fill="none" stroke="#63b8ff" d="M953.9,-171.45C812.36,-166.99 515.43,-154.67 476.5,-129 447.01,-109.55 423.4,-80.82 447.5,-55 489.59,-9.91 934.25,-9.43 1060.34,-10.21"/>
<polygon fill="#63b8ff" stroke="#63b8ff" points="1065.4,-10.24 1060.39,-12.46 1062.9,-10.22 1060.4,-10.21 1060.4,-10.21 1060.4,-10.21 1062.9,-10.22 1060.42,-7.96 1065.4,-10.24 1065.4,-10.24"/>
</a>
</g>
</g>
<!-- Node10 -->
<g id="Node000010" class="node">
<title>Node10</title>
<g id="a_Node000010"><a xlink:href="../../de/d3c/macros_8h.html" target="_top" xlink:title=" ">
<polygon fill="white" stroke="#666666" points="854.5,-129 752.5,-129 752.5,-110 854.5,-110 854.5,-129"/>
<text text-anchor="middle" x="803.5" y="-117" font-family="Helvetica,sans-Serif" font-size="10.00">../utility/macros.h</text>
</a>
</g>
</g>
<!-- Node9&#45;&gt;Node10 -->
<g id="edge9_Node000009_Node000010" class="edge">
<title>Node9&#45;&gt;Node10</title>
<g id="a_edge9_Node000009_Node000010"><a xlink:title=" ">
<path fill="none" stroke="#63b8ff" d="M992.35,-164.98C952.12,-155.51 887.23,-140.22 844.97,-130.27"/>
<polygon fill="#63b8ff" stroke="#63b8ff" points="839.93,-129.08 845.32,-128.04 842.37,-129.66 844.8,-130.23 844.8,-130.23 844.8,-130.23 842.37,-129.66 844.28,-132.42 839.93,-129.08 839.93,-129.08"/>
</a>
</g>
</g>
<!-- Node12 -->
<g id="Node000012" class="node">
<title>Node12</title>
<g id="a_Node000012"><a xlink:href="../../d6/d0c/card__database__settings_8h.html" target="_top" xlink:title=" ">
<polygon fill="white" stroke="#666666" points="1311,-129 1170,-129 1170,-110 1311,-110 1311,-129"/>
<text text-anchor="middle" x="1240.5" y="-117" font-family="Helvetica,sans-Serif" font-size="10.00">card_database_settings.h</text>
</a>
</g>
</g>
<!-- Node9&#45;&gt;Node12 -->
<g id="edge11_Node000009_Node000012" class="edge">
<title>Node9&#45;&gt;Node12</title>
<g id="a_edge11_Node000009_Node000012"><a xlink:title=" ">
<path fill="none" stroke="#63b8ff" d="M1062.56,-164.98C1100.31,-155.55 1161.11,-140.35 1200.94,-130.39"/>
<polygon fill="#63b8ff" stroke="#63b8ff" points="1206.17,-129.08 1201.87,-132.48 1203.75,-129.69 1201.32,-130.29 1201.32,-130.29 1201.32,-130.29 1203.75,-129.69 1200.78,-128.11 1206.17,-129.08 1206.17,-129.08"/>
</a>
</g>
</g>
<!-- Node15 -->
<g id="Node000015" class="node">
<title>Node15</title>
<g id="a_Node000015"><a xlink:title=" ">
<polygon fill="#e0e0e0" stroke="#999999" points="1788.5,-19 1718.5,-19 1718.5,0 1788.5,0 1788.5,-19"/>
<text text-anchor="middle" x="1753.5" y="-7" font-family="Helvetica,sans-Serif" font-size="10.00">QStringList</text>
</a>
</g>
</g>
<!-- Node9&#45;&gt;Node15 -->
<g id="edge51_Node000009_Node000015" class="edge">
<title>Node9&#45;&gt;Node15</title>
<g id="a_edge51_Node000009_Node000015"><a xlink:title=" ">
<path fill="none" stroke="#63b8ff" d="M1103.14,-165.63C1105.96,-165.4 1108.75,-165.19 1111.5,-165 1164.35,-161.3 2027.75,-167.16 2064.5,-129 2077.72,-115.27 2080.92,-80.02 2055.5,-55 2019.21,-19.29 1867.28,-12.11 1793.73,-10.76"/>
<polygon fill="#63b8ff" stroke="#63b8ff" points="1788.57,-10.67 1793.61,-8.51 1791.07,-10.71 1793.57,-10.76 1793.57,-10.76 1793.57,-10.76 1791.07,-10.71 1793.53,-13.01 1788.57,-10.67 1788.57,-10.67"/>
</a>
</g>
</g>
<!-- Node17 -->
<g id="Node000017" class="node">
<title>Node17</title>
<g id="a_Node000017"><a xlink:href="../../d4/d33/card__override__settings_8h.html" target="_top" xlink:title=" ">
<polygon fill="white" stroke="#666666" points="2055,-129 1918,-129 1918,-110 2055,-110 2055,-129"/>
<text text-anchor="middle" x="1986.5" y="-117" font-family="Helvetica,sans-Serif" font-size="10.00">card_override_settings.h</text>
</a>
</g>
</g>
<!-- Node9&#45;&gt;Node17 -->
<g id="edge20_Node000009_Node000017" class="edge">
<title>Node9&#45;&gt;Node17</title>
<g id="a_edge20_Node000009_Node000017"><a xlink:title=" ">
<path fill="none" stroke="#63b8ff" d="M1103.14,-165.65C1105.96,-165.42 1108.76,-165.2 1111.5,-165 1465.57,-138.9 1555.54,-156.49 1909.5,-129 1910.51,-128.92 1911.52,-128.84 1912.54,-128.76"/>
<polygon fill="#63b8ff" stroke="#63b8ff" points="1917.67,-128.32 1912.88,-130.99 1915.18,-128.53 1912.69,-128.74 1912.69,-128.74 1912.69,-128.74 1915.18,-128.53 1912.5,-126.5 1917.67,-128.32 1917.67,-128.32"/>
</a>
</g>
</g>
<!-- Node19 -->
<g id="Node000019" class="node">
<title>Node19</title>
<g id="a_Node000019"><a xlink:href="../../d9/d91/debug__settings_8h.html" target="_top" xlink:title=" ">
<polygon fill="white" stroke="#666666" points="1750.5,-129 1650.5,-129 1650.5,-110 1750.5,-110 1750.5,-129"/>
<text text-anchor="middle" x="1700.5" y="-117" font-family="Helvetica,sans-Serif" font-size="10.00">debug_settings.h</text>
</a>
</g>
</g>
<!-- Node9&#45;&gt;Node19 -->
<g id="edge24_Node000009_Node000019" class="edge">
<title>Node9&#45;&gt;Node19</title>
<g id="a_edge24_Node000009_Node000019"><a xlink:title=" ">
<path fill="none" stroke="#63b8ff" d="M1103.15,-165.73C1105.97,-165.48 1108.76,-165.23 1111.5,-165 1346.75,-144.97 1406.71,-153.85 1641.5,-129 1642.76,-128.87 1644.04,-128.73 1645.32,-128.58"/>
<polygon fill="#63b8ff" stroke="#63b8ff" points="1650.32,-127.99 1645.62,-130.81 1647.84,-128.28 1645.35,-128.58 1645.35,-128.58 1645.35,-128.58 1647.84,-128.28 1645.09,-126.34 1650.32,-127.99 1650.32,-127.99"/>
</a>
</g>
</g>
<!-- Node20 -->
<g id="Node000020" class="node">
<title>Node20</title>
<g id="a_Node000020"><a xlink:href="../../d0/de1/download__settings_8h.html" target="_top" xlink:title=" ">
<polygon fill="white" stroke="#666666" points="1152,-129 1035,-129 1035,-110 1152,-110 1152,-129"/>
<text text-anchor="middle" x="1093.5" y="-117" font-family="Helvetica,sans-Serif" font-size="10.00">download_settings.h</text>
</a>
</g>
</g>
<!-- Node9&#45;&gt;Node20 -->
<g id="edge26_Node000009_Node000020" class="edge">
<title>Node9&#45;&gt;Node20</title>
<g id="a_edge26_Node000009_Node000020"><a xlink:title=" ">
<path fill="none" stroke="#63b8ff" d="M1038.94,-164.98C1049.78,-156.15 1066.8,-142.27 1078.95,-132.36"/>
<polygon fill="#63b8ff" stroke="#63b8ff" points="1082.87,-129.17 1080.41,-134.07 1080.93,-130.75 1078.99,-132.33 1078.99,-132.33 1078.99,-132.33 1080.93,-130.75 1077.57,-130.59 1082.87,-129.17 1082.87,-129.17"/>
</a>
</g>
</g>
<!-- Node21 -->
<g id="Node000021" class="node">
<title>Node21</title>
<g id="a_Node000021"><a xlink:href="../../d9/dfd/game__filters__settings_8h.html" target="_top" xlink:title=" ">
<polygon fill="white" stroke="#666666" points="1900,-129 1769,-129 1769,-110 1900,-110 1900,-129"/>
<text text-anchor="middle" x="1834.5" y="-117" font-family="Helvetica,sans-Serif" font-size="10.00">game_filters_settings.h</text>
</a>
</g>
</g>
<!-- Node9&#45;&gt;Node21 -->
<g id="edge29_Node000009_Node000021" class="edge">
<title>Node9&#45;&gt;Node21</title>
<g id="a_edge29_Node000009_Node000021"><a xlink:title=" ">
<path fill="none" stroke="#63b8ff" d="M1103.14,-165.69C1105.96,-165.45 1108.76,-165.22 1111.5,-165 1399.05,-142.3 1472.08,-153.25 1759.5,-129 1760.81,-128.89 1762.14,-128.77 1763.48,-128.65"/>
<polygon fill="#63b8ff" stroke="#63b8ff" points="1768.67,-128.18 1763.9,-130.88 1766.18,-128.41 1763.69,-128.63 1763.69,-128.63 1763.69,-128.63 1766.18,-128.41 1763.49,-126.39 1768.67,-128.18 1768.67,-128.18"/>
</a>
</g>
</g>
<!-- Node22 -->
<g id="Node000022" class="node">
<title>Node22</title>
<g id="a_Node000022"><a xlink:href="../../d9/df1/layouts__settings_8h.html" target="_top" xlink:title=" ">
<polygon fill="white" stroke="#666666" points="1016.5,-129 910.5,-129 910.5,-110 1016.5,-110 1016.5,-129"/>
<text text-anchor="middle" x="963.5" y="-117" font-family="Helvetica,sans-Serif" font-size="10.00">layouts_settings.h</text>
</a>
</g>
</g>
<!-- Node9&#45;&gt;Node22 -->
<g id="edge31_Node000009_Node000022" class="edge">
<title>Node9&#45;&gt;Node22</title>
<g id="a_edge31_Node000009_Node000022"><a xlink:title=" ">
<path fill="none" stroke="#63b8ff" d="M1018.06,-164.98C1007.22,-156.15 990.2,-142.27 978.05,-132.36"/>
<polygon fill="#63b8ff" stroke="#63b8ff" points="974.13,-129.17 979.43,-130.59 976.07,-130.75 978.01,-132.33 978.01,-132.33 978.01,-132.33 976.07,-130.75 976.59,-134.07 974.13,-129.17 974.13,-129.17"/>
</a>
</g>
</g>
<!-- Node23 -->
<g id="Node000023" class="node">
<title>Node23</title>
<g id="a_Node000023"><a xlink:title=" ">
<polygon fill="#e0e0e0" stroke="#999999" points="985.5,-74 941.5,-74 941.5,-55 985.5,-55 985.5,-74"/>
<text text-anchor="middle" x="963.5" y="-62" font-family="Helvetica,sans-Serif" font-size="10.00">QSize</text>
</a>
</g>
</g>
<!-- Node9&#45;&gt;Node23 -->
<g id="edge50_Node000009_Node000023" class="edge">
<title>Node9&#45;&gt;Node23</title>
<g id="a_edge50_Node000009_Node000023"><a xlink:title=" ">
<path fill="none" stroke="#63b8ff" d="M958.22,-164.91C936.46,-158.57 914.75,-147.68 901.5,-129 886.96,-108.5 916.12,-88.34 939.2,-76.41"/>
<polygon fill="#63b8ff" stroke="#63b8ff" points="943.72,-74.14 940.26,-78.4 941.48,-75.26 939.25,-76.39 939.25,-76.39 939.25,-76.39 941.48,-75.26 938.24,-74.38 943.72,-74.14 943.72,-74.14"/>
</a>
</g>
</g>
<!-- Node24 -->
<g id="Node000024" class="node">
<title>Node24</title>
<g id="a_Node000024"><a xlink:href="../../db/d2c/message__settings_8h.html" target="_top" xlink:title=" ">
<polygon fill="white" stroke="#666666" points="1508.5,-129 1394.5,-129 1394.5,-110 1508.5,-110 1508.5,-129"/>
<text text-anchor="middle" x="1451.5" y="-117" font-family="Helvetica,sans-Serif" font-size="10.00">message_settings.h</text>
</a>
</g>
</g>
<!-- Node9&#45;&gt;Node24 -->
<g id="edge34_Node000009_Node000024" class="edge">
<title>Node9&#45;&gt;Node24</title>
<g id="a_edge34_Node000009_Node000024"><a xlink:title=" ">
<path fill="none" stroke="#63b8ff" d="M1097.62,-164.97C1169.54,-156.07 1285.43,-141.68 1385.5,-129 1386.75,-128.84 1388.02,-128.68 1389.3,-128.52"/>
<polygon fill="#63b8ff" stroke="#63b8ff" points="1394.26,-127.89 1389.59,-130.75 1391.78,-128.2 1389.3,-128.52 1389.3,-128.52 1389.3,-128.52 1391.78,-128.2 1389.02,-126.29 1394.26,-127.89 1394.26,-127.89"/>
</a>
</g>
</g>
<!-- Node25 -->
<g id="Node000025" class="node">
<title>Node25</title>
<g id="a_Node000025"><a xlink:href="../../db/daf/recents__settings_8h.html" target="_top" xlink:title=" ">
<polygon fill="white" stroke="#666666" points="1632.5,-129 1526.5,-129 1526.5,-110 1632.5,-110 1632.5,-129"/>
<text text-anchor="middle" x="1579.5" y="-117" font-family="Helvetica,sans-Serif" font-size="10.00">recents_settings.h</text>
</a>
</g>
</g>
<!-- Node9&#45;&gt;Node25 -->
<g id="edge36_Node000009_Node000025" class="edge">
<title>Node9&#45;&gt;Node25</title>
<g id="a_edge36_Node000009_Node000025"><a xlink:title=" ">
<path fill="none" stroke="#63b8ff" d="M1103.15,-165.81C1105.97,-165.53 1108.76,-165.26 1111.5,-165 1291.83,-147.77 1337.49,-149.31 1517.5,-129 1518.78,-128.86 1520.06,-128.71 1521.36,-128.55"/>
<polygon fill="#63b8ff" stroke="#63b8ff" points="1526.42,-127.95 1521.73,-130.78 1523.94,-128.25 1521.46,-128.54 1521.46,-128.54 1521.46,-128.54 1523.94,-128.25 1521.19,-126.31 1526.42,-127.95 1526.42,-127.95"/>
</a>
</g>
</g>
<!-- Node26 -->
<g id="Node000026" class="node">
<title>Node26</title>
<g id="a_Node000026"><a xlink:href="../../db/db0/servers__settings_8h.html" target="_top" xlink:title=" ">
<polygon fill="white" stroke="#666666" points="600.5,-129 494.5,-129 494.5,-110 600.5,-110 600.5,-129"/>
<text text-anchor="middle" x="547.5" y="-117" font-family="Helvetica,sans-Serif" font-size="10.00">servers_settings.h</text>
</a>
</g>
</g>
<!-- Node9&#45;&gt;Node26 -->
<g id="edge38_Node000009_Node000026" class="edge">
<title>Node9&#45;&gt;Node26</title>
<g id="a_edge38_Node000009_Node000026"><a xlink:title=" ">
<path fill="none" stroke="#63b8ff" d="M953.87,-166.27C870.01,-157.98 729.86,-143.64 609.5,-129 608.23,-128.85 606.94,-128.69 605.64,-128.52"/>
<polygon fill="#63b8ff" stroke="#63b8ff" points="600.59,-127.89 605.83,-126.28 603.07,-128.2 605.55,-128.51 605.55,-128.51 605.55,-128.51 603.07,-128.2 605.26,-130.75 600.59,-127.89 600.59,-127.89"/>
</a>
</g>
</g>
<!-- Node27 -->
<g id="Node000027" class="node">
<title>Node27</title>
<g id="a_Node000027"><a xlink:href="../../d0/dfd/shortcuts__settings_8h.html" target="_top" xlink:title=" ">
<polygon fill="white" stroke="#666666" points="734,-129 619,-129 619,-110 734,-110 734,-129"/>
<text text-anchor="middle" x="676.5" y="-117" font-family="Helvetica,sans-Serif" font-size="10.00">shortcuts_settings.h</text>
</a>
</g>
</g>
<!-- Node9&#45;&gt;Node27 -->
<g id="edge42_Node000009_Node000027" class="edge">
<title>Node9&#45;&gt;Node27</title>
<g id="a_edge42_Node000009_Node000027"><a xlink:title=" ">
<path fill="none" stroke="#63b8ff" d="M971.95,-164.98C908.02,-155.36 804.29,-139.74 738.29,-129.8"/>
<polygon fill="#63b8ff" stroke="#63b8ff" points="733.21,-129.04 738.49,-127.56 735.68,-129.41 738.15,-129.78 738.15,-129.78 738.15,-129.78 735.68,-129.41 737.82,-132.01 733.21,-129.04 733.21,-129.04"/>
</a>
</g>
</g>
<!-- Node30 -->
<g id="Node000030" class="node">
<title>Node30</title>
<g id="a_Node000030"><a xlink:title=" ">
<polygon fill="#e0e0e0" stroke="#999999" points="1376,-129 1329,-129 1329,-110 1376,-110 1376,-129"/>
<text text-anchor="middle" x="1352.5" y="-117" font-family="Helvetica,sans-Serif" font-size="10.00">QDate</text>
</a>
</g>
</g>
<!-- Node9&#45;&gt;Node30 -->
<g id="edge47_Node000009_Node000030" class="edge">
<title>Node9&#45;&gt;Node30</title>
<g id="a_edge47_Node000009_Node000030"><a xlink:title=" ">
<path fill="none" stroke="#63b8ff" d="M1098.8,-164.96C1158.18,-157.23 1245.32,-144.66 1320.5,-129 1321.6,-128.77 1322.71,-128.53 1323.84,-128.27"/>
<polygon fill="#63b8ff" stroke="#63b8ff" points="1328.8,-127.1 1324.45,-130.44 1326.37,-127.68 1323.94,-128.25 1323.94,-128.25 1323.94,-128.25 1326.37,-127.68 1323.42,-126.06 1328.8,-127.1 1328.8,-127.1"/>
</a>
</g>
</g>
<!-- Node11 -->
<g id="Node000011" class="node">
<title>Node11</title>
<g id="a_Node000011"><a xlink:title=" ">
<polygon fill="#e0e0e0" stroke="#999999" points="923,-74 864,-74 864,-55 923,-55 923,-74"/>
<text text-anchor="middle" x="893.5" y="-62" font-family="Helvetica,sans-Serif" font-size="10.00">QtGlobal</text>
</a>
</g>
</g>
<!-- Node10&#45;&gt;Node11 -->
<g id="edge10_Node000010_Node000011" class="edge">
<title>Node10&#45;&gt;Node11</title>
<g id="a_edge10_Node000010_Node000011"><a xlink:title=" ">
<path fill="none" stroke="#63b8ff" d="M817.96,-109.98C833.22,-101 857.35,-86.79 874.22,-76.85"/>
<polygon fill="#63b8ff" stroke="#63b8ff" points="878.78,-74.17 875.61,-78.65 876.62,-75.44 874.47,-76.71 874.47,-76.71 874.47,-76.71 876.62,-75.44 873.33,-74.77 878.78,-74.17 878.78,-74.17"/>
</a>
</g>
</g>
<!-- Node12&#45;&gt;Node7 -->
<g id="edge17_Node000012_Node000007" class="edge">
<title>Node12&#45;&gt;Node7</title>
<g id="a_edge17_Node000012_Node000007"><a xlink:title=" ">
<path fill="none" stroke="#63b8ff" d="M1228.72,-109.84C1202.48,-90.57 1139.23,-44.1 1109.48,-22.24"/>
<polygon fill="#63b8ff" stroke="#63b8ff" points="1105.34,-19.2 1110.7,-20.34 1107.35,-20.68 1109.37,-22.16 1109.37,-22.16 1109.37,-22.16 1107.35,-20.68 1108.03,-23.97 1105.34,-19.2 1105.34,-19.2"/>
</a>
</g>
</g>
<!-- Node13 -->
<g id="Node000013" class="node">
<title>Node13</title>
<g id="a_Node000013"><a xlink:href="../../d2/d62/settings__manager_8h.html" target="_top" xlink:title=" ">
<polygon fill="white" stroke="#666666" points="1401,-74 1288,-74 1288,-55 1401,-55 1401,-74"/>
<text text-anchor="middle" x="1344.5" y="-62" font-family="Helvetica,sans-Serif" font-size="10.00">settings_manager.h</text>
</a>
</g>
</g>
<!-- Node12&#45;&gt;Node13 -->
<g id="edge12_Node000012_Node000013" class="edge">
<title>Node12&#45;&gt;Node13</title>
<g id="a_edge12_Node000012_Node000013"><a xlink:title=" ">
<path fill="none" stroke="#63b8ff" d="M1257.21,-109.98C1274.99,-100.92 1303.21,-86.54 1322.72,-76.6"/>
<polygon fill="#63b8ff" stroke="#63b8ff" points="1327.49,-74.17 1324.05,-78.45 1325.26,-75.31 1323.03,-76.44 1323.03,-76.44 1323.03,-76.44 1325.26,-75.31 1322.01,-74.44 1327.49,-74.17 1327.49,-74.17"/>
</a>
</g>
</g>
<!-- Node14 -->
<g id="Node000014" class="node">
<title>Node14</title>
<g id="a_Node000014"><a xlink:title=" ">
<polygon fill="#e0e0e0" stroke="#999999" points="1253.5,-19 1189.5,-19 1189.5,0 1253.5,0 1253.5,-19"/>
<text text-anchor="middle" x="1221.5" y="-7" font-family="Helvetica,sans-Serif" font-size="10.00">QSettings</text>
</a>
</g>
</g>
<!-- Node12&#45;&gt;Node14 -->
<g id="edge18_Node000012_Node000014" class="edge">
<title>Node12&#45;&gt;Node14</title>
<g id="a_edge18_Node000012_Node000014"><a xlink:title=" ">
<path fill="none" stroke="#63b8ff" d="M1238.95,-109.66C1235.63,-90.82 1227.85,-46.59 1223.9,-24.12"/>
<polygon fill="#63b8ff" stroke="#63b8ff" points="1223.02,-19.16 1226.11,-23.69 1223.46,-21.62 1223.89,-24.08 1223.89,-24.08 1223.89,-24.08 1223.46,-21.62 1221.67,-24.47 1223.02,-19.16 1223.02,-19.16"/>
</a>
</g>
</g>
<!-- Node16 -->
<g id="Node000016" class="node">
<title>Node16</title>
<g id="a_Node000016"><a xlink:title=" ">
<polygon fill="#e0e0e0" stroke="#999999" points="1352,-19 1293,-19 1293,0 1352,0 1352,-19"/>
<text text-anchor="middle" x="1322.5" y="-7" font-family="Helvetica,sans-Serif" font-size="10.00">QVariant</text>
</a>
</g>
</g>
<!-- Node12&#45;&gt;Node16 -->
<g id="edge19_Node000012_Node000016" class="edge">
<title>Node12&#45;&gt;Node16</title>
<g id="a_edge19_Node000012_Node000016"><a xlink:title=" ">
<path fill="none" stroke="#63b8ff" d="M1245,-109.9C1251.75,-97.32 1265.23,-73.4 1279.5,-55 1288.6,-43.26 1300.41,-31.22 1309.35,-22.63"/>
<polygon fill="#63b8ff" stroke="#63b8ff" points="1312.99,-19.17 1310.92,-24.25 1311.18,-20.9 1309.37,-22.62 1309.37,-22.62 1309.37,-22.62 1311.18,-20.9 1307.82,-20.99 1312.99,-19.17 1312.99,-19.17"/>
</a>
</g>
</g>
<!-- Node13&#45;&gt;Node7 -->
<g id="edge13_Node000013_Node000007" class="edge">
<title>Node13&#45;&gt;Node7</title>
<g id="a_edge13_Node000013_Node000007"><a xlink:title=" ">
<path fill="none" stroke="#63b8ff" d="M1304.17,-54.98C1254.93,-44.59 1172.58,-27.2 1126.78,-17.53"/>
<polygon fill="#63b8ff" stroke="#63b8ff" points="1121.66,-16.45 1127.01,-15.28 1124.1,-16.96 1126.55,-17.48 1126.55,-17.48 1126.55,-17.48 1124.1,-16.96 1126.08,-19.68 1121.66,-16.45 1121.66,-16.45"/>
</a>
</g>
</g>
<!-- Node13&#45;&gt;Node14 -->
<g id="edge14_Node000013_Node000014" class="edge">
<title>Node13&#45;&gt;Node14</title>
<g id="a_edge14_Node000013_Node000014"><a xlink:title=" ">
<path fill="none" stroke="#63b8ff" d="M1324.74,-54.98C1303.44,-45.81 1269.48,-31.18 1246.38,-21.22"/>
<polygon fill="#63b8ff" stroke="#63b8ff" points="1241.62,-19.17 1247.1,-19.08 1243.92,-20.16 1246.21,-21.15 1246.21,-21.15 1246.21,-21.15 1243.92,-20.16 1245.32,-23.22 1241.62,-19.17 1241.62,-19.17"/>
</a>
</g>
</g>
<!-- Node13&#45;&gt;Node15 -->
<g id="edge15_Node000013_Node000015" class="edge">
<title>Node13&#45;&gt;Node15</title>
<g id="a_edge15_Node000013_Node000015"><a xlink:title=" ">
<path fill="none" stroke="#63b8ff" d="M1401.37,-56.13C1485.29,-45.26 1640.23,-25.18 1713.33,-15.71"/>
<polygon fill="#63b8ff" stroke="#63b8ff" points="1718.45,-15.04 1713.78,-17.92 1715.97,-15.36 1713.49,-15.69 1713.49,-15.69 1713.49,-15.69 1715.97,-15.36 1713.2,-13.45 1718.45,-15.04 1718.45,-15.04"/>
</a>
</g>
</g>
<!-- Node13&#45;&gt;Node16 -->
<g id="edge16_Node000013_Node000016" class="edge">
<title>Node13&#45;&gt;Node16</title>
<g id="a_edge16_Node000013_Node000016"><a xlink:title=" ">
<path fill="none" stroke="#63b8ff" d="M1340.87,-54.75C1337.38,-46.34 1332.05,-33.51 1328.03,-23.83"/>
<polygon fill="#63b8ff" stroke="#63b8ff" points="1326.07,-19.09 1330.06,-22.84 1327.02,-21.4 1327.98,-23.71 1327.98,-23.71 1327.98,-23.71 1327.02,-21.4 1325.9,-24.57 1326.07,-19.09 1326.07,-19.09"/>
</a>
</g>
</g>
<!-- Node17&#45;&gt;Node7 -->
<g id="edge23_Node000017_Node000007" class="edge">
<title>Node17&#45;&gt;Node7</title>
<g id="a_edge23_Node000017_Node000007"><a xlink:title=" ">
<path fill="none" stroke="#63b8ff" d="M1917.91,-110.2C1738.05,-88.45 1257.66,-30.35 1126.81,-14.53"/>
<polygon fill="#63b8ff" stroke="#63b8ff" points="1121.57,-13.89 1126.81,-12.26 1124.05,-14.2 1126.54,-14.5 1126.54,-14.5 1126.54,-14.5 1124.05,-14.2 1126.27,-16.73 1121.57,-13.89 1121.57,-13.89"/>
</a>
</g>
</g>
<!-- Node17&#45;&gt;Node13 -->
<g id="edge22_Node000017_Node000013" class="edge">
<title>Node17&#45;&gt;Node13</title>
<g id="a_edge22_Node000017_Node000013"><a xlink:title=" ">
<path fill="none" stroke="#63b8ff" d="M1917.66,-110.79C1914.91,-110.52 1912.18,-110.25 1909.5,-110 1726.71,-92.72 1510.21,-76.99 1406.26,-69.73"/>
<polygon fill="#63b8ff" stroke="#63b8ff" points="1401.09,-69.37 1406.23,-67.47 1403.58,-69.54 1406.08,-69.72 1406.08,-69.72 1406.08,-69.72 1403.58,-69.54 1405.92,-71.96 1401.09,-69.37 1401.09,-69.37"/>
</a>
</g>
</g>
<!-- Node18 -->
<g id="Node000018" class="node">
<title>Node18</title>
<g id="a_Node000018"><a xlink:title=" ">
<polygon fill="#e0e0e0" stroke="#999999" points="2046,-74 1927,-74 1927,-55 2046,-55 2046,-74"/>
<text text-anchor="middle" x="1986.5" y="-62" font-family="Helvetica,sans-Serif" font-size="10.00">../common/card_ref.h</text>
</a>
</g>
</g>
<!-- Node17&#45;&gt;Node18 -->
<g id="edge21_Node000017_Node000018" class="edge">
<title>Node17&#45;&gt;Node18</title>
<g id="a_edge21_Node000017_Node000018"><a xlink:title=" ">
<path fill="none" stroke="#63b8ff" d="M1986.5,-109.75C1986.5,-101.41 1986.5,-88.74 1986.5,-79.09"/>
<polygon fill="#63b8ff" stroke="#63b8ff" points="1986.5,-74.09 1988.75,-79.09 1986.5,-76.59 1986.5,-79.09 1986.5,-79.09 1986.5,-79.09 1986.5,-76.59 1984.25,-79.09 1986.5,-74.09 1986.5,-74.09"/>
</a>
</g>
</g>
<!-- Node19&#45;&gt;Node13 -->
<g id="edge25_Node000019_Node000013" class="edge">
<title>Node19&#45;&gt;Node13</title>
<g id="a_edge25_Node000019_Node000013"><a xlink:title=" ">
<path fill="none" stroke="#63b8ff" d="M1650.25,-111.02C1586.27,-101.49 1475.76,-85.04 1406.58,-74.74"/>
<polygon fill="#63b8ff" stroke="#63b8ff" points="1401.26,-73.95 1406.53,-72.46 1403.73,-74.32 1406.2,-74.69 1406.2,-74.69 1406.2,-74.69 1403.73,-74.32 1405.87,-76.91 1401.26,-73.95 1401.26,-73.95"/>
</a>
</g>
</g>
<!-- Node20&#45;&gt;Node7 -->
<g id="edge28_Node000020_Node000007" class="edge">
<title>Node20&#45;&gt;Node7</title>
<g id="a_edge28_Node000020_Node000007"><a xlink:title=" ">
<path fill="none" stroke="#63b8ff" d="M1093.5,-109.66C1093.5,-90.9 1093.5,-46.96 1093.5,-24.4"/>
<polygon fill="#63b8ff" stroke="#63b8ff" points="1093.5,-19.16 1095.75,-24.16 1093.5,-21.66 1093.5,-24.16 1093.5,-24.16 1093.5,-24.16 1093.5,-21.66 1091.25,-24.16 1093.5,-19.16 1093.5,-19.16"/>
</a>
</g>
</g>
<!-- Node20&#45;&gt;Node13 -->
<g id="edge27_Node000020_Node000013" class="edge">
<title>Node20&#45;&gt;Node13</title>
<g id="a_edge27_Node000020_Node000013"><a xlink:title=" ">
<path fill="none" stroke="#63b8ff" d="M1133.83,-109.98C1178.89,-100.47 1251.68,-85.1 1298.81,-75.15"/>
<polygon fill="#63b8ff" stroke="#63b8ff" points="1303.86,-74.08 1299.43,-77.32 1301.41,-74.6 1298.96,-75.12 1298.96,-75.12 1298.96,-75.12 1301.41,-74.6 1298.5,-72.91 1303.86,-74.08 1303.86,-74.08"/>
</a>
</g>
</g>
<!-- Node21&#45;&gt;Node13 -->
<g id="edge30_Node000021_Node000013" class="edge">
<title>Node21&#45;&gt;Node13</title>
<g id="a_edge30_Node000021_Node000013"><a xlink:title=" ">
<path fill="none" stroke="#63b8ff" d="M1768.65,-111.01C1765.56,-110.67 1762.5,-110.33 1759.5,-110 1634.23,-96.18 1487.61,-80.6 1406.48,-72.03"/>
<polygon fill="#63b8ff" stroke="#63b8ff" points="1401.23,-71.47 1406.44,-69.76 1403.72,-71.74 1406.21,-72 1406.21,-72 1406.21,-72 1403.72,-71.74 1405.97,-74.24 1401.23,-71.47 1401.23,-71.47"/>
</a>
</g>
</g>
<!-- Node22&#45;&gt;Node13 -->
<g id="edge32_Node000022_Node000013" class="edge">
<title>Node22&#45;&gt;Node13</title>
<g id="a_edge32_Node000022_Node000013"><a xlink:title=" ">
<path fill="none" stroke="#63b8ff" d="M1016.88,-111.07C1086.68,-101.37 1208.72,-84.39 1282.53,-74.12"/>
<polygon fill="#63b8ff" stroke="#63b8ff" points="1287.76,-73.39 1283.12,-76.31 1285.28,-73.74 1282.81,-74.08 1282.81,-74.08 1282.81,-74.08 1285.28,-73.74 1282.5,-71.85 1287.76,-73.39 1287.76,-73.39"/>
</a>
</g>
</g>
<!-- Node22&#45;&gt;Node23 -->
<g id="edge33_Node000022_Node000023" class="edge">
<title>Node22&#45;&gt;Node23</title>
<g id="a_edge33_Node000022_Node000023"><a xlink:title=" ">
<path fill="none" stroke="#63b8ff" d="M963.5,-109.75C963.5,-101.41 963.5,-88.74 963.5,-79.09"/>
<polygon fill="#63b8ff" stroke="#63b8ff" points="963.5,-74.09 965.75,-79.09 963.5,-76.59 963.5,-79.09 963.5,-79.09 963.5,-79.09 963.5,-76.59 961.25,-79.09 963.5,-74.09 963.5,-74.09"/>
</a>
</g>
</g>
<!-- Node24&#45;&gt;Node13 -->
<g id="edge35_Node000024_Node000013" class="edge">
<title>Node24&#45;&gt;Node13</title>
<g id="a_edge35_Node000024_Node000013"><a xlink:title=" ">
<path fill="none" stroke="#63b8ff" d="M1434.31,-109.98C1415.93,-100.88 1386.74,-86.42 1366.65,-76.47"/>
<polygon fill="#63b8ff" stroke="#63b8ff" points="1362,-74.17 1367.48,-74.37 1364.24,-75.28 1366.48,-76.39 1366.48,-76.39 1366.48,-76.39 1364.24,-75.28 1365.49,-78.41 1362,-74.17 1362,-74.17"/>
</a>
</g>
</g>
<!-- Node25&#45;&gt;Node13 -->
<g id="edge37_Node000025_Node000013" class="edge">
<title>Node25&#45;&gt;Node13</title>
<g id="a_edge37_Node000025_Node000013"><a xlink:title=" ">
<path fill="none" stroke="#63b8ff" d="M1541.74,-109.98C1499.64,-100.49 1431.68,-85.16 1387.55,-75.21"/>
<polygon fill="#63b8ff" stroke="#63b8ff" points="1382.55,-74.08 1387.93,-72.99 1384.99,-74.63 1387.43,-75.18 1387.43,-75.18 1387.43,-75.18 1384.99,-74.63 1386.94,-77.38 1382.55,-74.08 1382.55,-74.08"/>
</a>
</g>
</g>
<!-- Node26&#45;&gt;Node4 -->
<g id="edge40_Node000026_Node000004" class="edge">
<title>Node26&#45;&gt;Node4</title>
<g id="a_edge40_Node000026_Node000004"><a xlink:title=" ">
<path fill="none" stroke="#63b8ff" d="M541.39,-109.75C535.41,-101.18 526.23,-88.03 519.43,-78.3"/>
<polygon fill="#63b8ff" stroke="#63b8ff" points="516.5,-74.09 521.2,-76.9 517.93,-76.14 519.36,-78.19 519.36,-78.19 519.36,-78.19 517.93,-76.14 517.51,-79.48 516.5,-74.09 516.5,-74.09"/>
</a>
</g>
</g>
<!-- Node26&#45;&gt;Node7 -->
<g id="edge41_Node000026_Node000007" class="edge">
<title>Node26&#45;&gt;Node7</title>
<g id="a_edge41_Node000026_Node000007"><a xlink:title=" ">
<path fill="none" stroke="#63b8ff" d="M553.32,-109.62C563.29,-95.26 585.12,-67.32 611.5,-55 691.47,-17.67 964.65,-11.64 1060.19,-10.68"/>
<polygon fill="#63b8ff" stroke="#63b8ff" points="1065.42,-10.63 1060.44,-12.93 1062.92,-10.65 1060.42,-10.68 1060.42,-10.68 1060.42,-10.68 1062.92,-10.65 1060.39,-8.43 1065.42,-10.63 1065.42,-10.63"/>
</a>
</g>
</g>
<!-- Node26&#45;&gt;Node13 -->
<g id="edge39_Node000026_Node000013" class="edge">
<title>Node26&#45;&gt;Node13</title>
<g id="a_edge39_Node000026_Node000013"><a xlink:title=" ">
<path fill="none" stroke="#63b8ff" d="M600.57,-110.96C603.59,-110.61 606.58,-110.29 609.5,-110 858.27,-85.45 1155.83,-72.44 1282.5,-67.67"/>
<polygon fill="#63b8ff" stroke="#63b8ff" points="1287.67,-67.47 1282.76,-69.91 1285.17,-67.57 1282.67,-67.66 1282.67,-67.66 1282.67,-67.66 1285.17,-67.57 1282.59,-65.41 1287.67,-67.47 1287.67,-67.47"/>
</a>
</g>
</g>
<!-- Node27&#45;&gt;Node4 -->
<g id="edge45_Node000027_Node000004" class="edge">
<title>Node27&#45;&gt;Node4</title>
<g id="a_edge45_Node000027_Node000004"><a xlink:title=" ">
<path fill="none" stroke="#63b8ff" d="M649.83,-109.98C620.51,-100.62 573.44,-85.6 542.25,-75.64"/>
<polygon fill="#63b8ff" stroke="#63b8ff" points="537.38,-74.08 542.83,-73.46 539.76,-74.84 542.14,-75.6 542.14,-75.6 542.14,-75.6 539.76,-74.84 541.46,-77.75 537.38,-74.08 537.38,-74.08"/>
</a>
</g>
</g>
<!-- Node27&#45;&gt;Node14 -->
<g id="edge46_Node000027_Node000014" class="edge">
<title>Node27&#45;&gt;Node14</title>
<g id="a_edge46_Node000027_Node000014"><a xlink:title=" ">
<path fill="none" stroke="#63b8ff" d="M707.28,-109.93C735.73,-101.71 778.98,-88.45 815.5,-74 833.8,-66.76 836.6,-60.48 855.5,-55 886.62,-45.98 1097.45,-23.39 1184.26,-14.34"/>
<polygon fill="#63b8ff" stroke="#63b8ff" points="1189.3,-13.82 1184.56,-16.57 1186.81,-14.07 1184.33,-14.33 1184.33,-14.33 1184.33,-14.33 1186.81,-14.07 1184.09,-12.1 1189.3,-13.82 1189.3,-13.82"/>
</a>
</g>
</g>
<!-- Node28 -->
<g id="Node000028" class="node">
<title>Node28</title>
<g id="a_Node000028"><a xlink:title=" ">
<polygon fill="#e0e0e0" stroke="#999999" points="700,-74 621,-74 621,-55 700,-55 700,-74"/>
<text text-anchor="middle" x="660.5" y="-62" font-family="Helvetica,sans-Serif" font-size="10.00">QApplication</text>
</a>
</g>
</g>
<!-- Node27&#45;&gt;Node28 -->
<g id="edge43_Node000027_Node000028" class="edge">
<title>Node27&#45;&gt;Node28</title>
<g id="a_edge43_Node000027_Node000028"><a xlink:title=" ">
<path fill="none" stroke="#63b8ff" d="M673.86,-109.75C671.34,-101.41 667.52,-88.74 664.6,-79.09"/>
<polygon fill="#63b8ff" stroke="#63b8ff" points="663.09,-74.09 666.69,-78.23 663.82,-76.48 664.54,-78.88 664.54,-78.88 664.54,-78.88 663.82,-76.48 662.38,-79.53 663.09,-74.09 663.09,-74.09"/>
</a>
</g>
</g>
<!-- Node29 -->
<g id="Node000029" class="node">
<title>Node29</title>
<g id="a_Node000029"><a xlink:title=" ">
<polygon fill="#e0e0e0" stroke="#999999" points="807,-74 718,-74 718,-55 807,-55 807,-74"/>
<text text-anchor="middle" x="762.5" y="-62" font-family="Helvetica,sans-Serif" font-size="10.00">QKeySequence</text>
</a>
</g>
</g>
<!-- Node27&#45;&gt;Node29 -->
<g id="edge44_Node000027_Node000029" class="edge">
<title>Node27&#45;&gt;Node29</title>
<g id="a_edge44_Node000027_Node000029"><a xlink:title=" ">
<path fill="none" stroke="#63b8ff" d="M690.32,-109.98C704.9,-101 727.96,-86.79 744.08,-76.85"/>
<polygon fill="#63b8ff" stroke="#63b8ff" points="748.43,-74.17 745.36,-78.71 746.3,-75.48 744.17,-76.79 744.17,-76.79 744.17,-76.79 746.3,-75.48 742.99,-74.88 748.43,-74.17 748.43,-74.17"/>
</a>
</g>
</g>
</g>
</svg>
