<?xml version="1.0" encoding="UTF-8" standalone="no"?>
<!DOCTYPE svg PUBLIC "-//W3C//DTD SVG 1.1//EN"
 "http://www.w3.org/Graphics/SVG/1.1/DTD/svg11.dtd">
<!-- Generated by graphviz version 2.43.0 (0)
 -->
<!-- Title: cockatrice/src/interface/widgets/tabs/api/edhrec/display/commander/edhrec_api_response_commander_details_display_widget.h Pages: 1 -->
<svg width="631pt" height="269pt"
 viewBox="0.00 0.00 630.50 269.00" xmlns="http://www.w3.org/2000/svg" xmlns:xlink="http://www.w3.org/1999/xlink">
<g id="graph0" class="graph" transform="scale(1 1) rotate(0) translate(4 265)">
<title>cockatrice/src/interface/widgets/tabs/api/edhrec/display/commander/edhrec_api_response_commander_details_display_widget.h</title>
<!-- Node1 -->
<g id="Node000001" class="node">
<title>Node1</title>
<g id="a_Node000001"><a xlink:title="TODO: Document this.">
<polygon fill="#999999" stroke="#666666" points="504,-261 316,-261 316,-198 504,-198 504,-261"/>
<text text-anchor="start" x="324" y="-249" font-family="Helvetica,sans-Serif" font-size="10.00">cockatrice/src/interface</text>
<text text-anchor="start" x="324" y="-238" font-family="Helvetica,sans-Serif" font-size="10.00">/widgets/tabs/api/edhrec</text>
<text text-anchor="start" x="324" y="-227" font-family="Helvetica,sans-Serif" font-size="10.00">/display/commander/edhrec</text>
<text text-anchor="start" x="324" y="-216" font-family="Helvetica,sans-Serif" font-size="10.00">_api_response_commander_details</text>
<text text-anchor="middle" x="410" y="-205" font-family="Helvetica,sans-Serif" font-size="10.00">_display_widget.h</text>
</a>
</g>
</g>
<!-- Node2 -->
<g id="Node000002" class="node">
<title>Node2</title>
<g id="a_Node000002"><a xlink:href="../../d4/d92/edhrec__api__response__commander__details__display__widget_8cpp.html" target="_top" xlink:title=" ">
<polygon fill="white" stroke="#666666" points="188,-162 0,-162 0,-99 188,-99 188,-162"/>
<text text-anchor="start" x="8" y="-150" font-family="Helvetica,sans-Serif" font-size="10.00">cockatrice/src/interface</text>
<text text-anchor="start" x="8" y="-139" font-family="Helvetica,sans-Serif" font-size="10.00">/widgets/tabs/api/edhrec</text>
<text text-anchor="start" x="8" y="-128" font-family="Helvetica,sans-Serif" font-size="10.00">/display/commander/edhrec</text>
<text text-anchor="start" x="8" y="-117" font-family="Helvetica,sans-Serif" font-size="10.00">_api_response_commander_details</text>
<text text-anchor="middle" x="94" y="-106" font-family="Helvetica,sans-Serif" font-size="10.00">_display_widget.cpp</text>
</a>
</g>
</g>
<!-- Node1&#45;&gt;Node2 -->
<g id="edge1_Node000001_Node000002" class="edge">
<title>Node1&#45;&gt;Node2</title>
<g id="a_edge1_Node000001_Node000002"><a xlink:title=" ">
<path fill="none" stroke="#63b8ff" d="M310.39,-197.92C271.32,-185.93 226.7,-172.23 188.17,-160.41"/>
<polygon fill="#63b8ff" stroke="#63b8ff" points="315.62,-199.53 310.18,-200.21 313.23,-198.79 310.84,-198.06 310.84,-198.06 310.84,-198.06 313.23,-198.79 311.5,-195.91 315.62,-199.53 315.62,-199.53"/>
</a>
</g>
</g>
<!-- Node3 -->
<g id="Node000003" class="node">
<title>Node3</title>
<g id="a_Node000003"><a xlink:href="../../d8/d7a/edhrec__commander__api__response__display__widget_8cpp.html" target="_top" xlink:title=" ">
<polygon fill="white" stroke="#666666" points="397.5,-162 206.5,-162 206.5,-99 397.5,-99 397.5,-162"/>
<text text-anchor="start" x="214.5" y="-150" font-family="Helvetica,sans-Serif" font-size="10.00">cockatrice/src/interface</text>
<text text-anchor="start" x="214.5" y="-139" font-family="Helvetica,sans-Serif" font-size="10.00">/widgets/tabs/api/edhrec</text>
<text text-anchor="start" x="214.5" y="-128" font-family="Helvetica,sans-Serif" font-size="10.00">/display/commander/edhrec</text>
<text text-anchor="start" x="214.5" y="-117" font-family="Helvetica,sans-Serif" font-size="10.00">_commander_api_response_display</text>
<text text-anchor="middle" x="302" y="-106" font-family="Helvetica,sans-Serif" font-size="10.00">_widget.cpp</text>
</a>
</g>
</g>
<!-- Node1&#45;&gt;Node3 -->
<g id="edge2_Node000001_Node000003" class="edge">
<title>Node1&#45;&gt;Node3</title>
<g id="a_edge2_Node000001_Node000003"><a xlink:title=" ">
<path fill="none" stroke="#63b8ff" d="M371.94,-194.32C360.34,-183.9 347.66,-172.51 336.32,-162.32"/>
<polygon fill="#63b8ff" stroke="#63b8ff" points="375.83,-197.81 370.6,-196.14 373.97,-196.14 372.11,-194.47 372.11,-194.47 372.11,-194.47 373.97,-196.14 373.61,-192.79 375.83,-197.81 375.83,-197.81"/>
</a>
</g>
</g>
<!-- Node4 -->
<g id="Node000004" class="node">
<title>Node4</title>
<g id="a_Node000004"><a xlink:href="../../df/d95/edhrec__commander__api__response__navigation__widget_8h.html" target="_top" xlink:title="TODO: Document this.">
<polygon fill="white" stroke="#666666" points="622.5,-162 415.5,-162 415.5,-99 622.5,-99 622.5,-162"/>
<text text-anchor="start" x="423.5" y="-150" font-family="Helvetica,sans-Serif" font-size="10.00">cockatrice/src/interface</text>
<text text-anchor="start" x="423.5" y="-139" font-family="Helvetica,sans-Serif" font-size="10.00">/widgets/tabs/api/edhrec</text>
<text text-anchor="start" x="423.5" y="-128" font-family="Helvetica,sans-Serif" font-size="10.00">/display/commander/edhrec</text>
<text text-anchor="start" x="423.5" y="-117" font-family="Helvetica,sans-Serif" font-size="10.00">_commander_api_response_navigation</text>
<text text-anchor="middle" x="519" y="-106" font-family="Helvetica,sans-Serif" font-size="10.00">_widget.h</text>
</a>
</g>
</g>
<!-- Node1&#45;&gt;Node4 -->
<g id="edge3_Node000001_Node000004" class="edge">
<title>Node1&#45;&gt;Node4</title>
<g id="a_edge3_Node000001_Node000004"><a xlink:title=" ">
<path fill="none" stroke="#63b8ff" d="M441.93,-194.32C453.24,-183.9 466.08,-172.51 478.03,-162.32"/>
<polygon fill="#63b8ff" stroke="#63b8ff" points="438.16,-197.81 440.3,-192.76 439.99,-196.11 441.83,-194.41 441.83,-194.41 441.83,-194.41 439.99,-196.11 443.36,-196.06 438.16,-197.81 438.16,-197.81"/>
</a>
</g>
</g>
<!-- Node4&#45;&gt;Node1 -->
<g id="edge4_Node000004_Node000001" class="edge">
<title>Node4&#45;&gt;Node1</title>
<g id="a_edge4_Node000004_Node000001"><a xlink:title=" ">
<path fill="none" stroke="#63b8ff" d="M486.92,-165.82C475.6,-176.25 462.75,-187.64 450.82,-197.81"/>
<polygon fill="#63b8ff" stroke="#63b8ff" points="490.7,-162.32 488.56,-167.37 488.86,-164.02 487.03,-165.72 487.03,-165.72 487.03,-165.72 488.86,-164.02 485.5,-164.07 490.7,-162.32 490.7,-162.32"/>
</a>
</g>
</g>
<!-- Node5 -->
<g id="Node000005" class="node">
<title>Node5</title>
<g id="a_Node000005"><a xlink:href="../../da/d7f/edhrec__commander__api__response__navigation__widget_8cpp.html" target="_top" xlink:title=" ">
<polygon fill="white" stroke="#666666" points="622.5,-63 415.5,-63 415.5,0 622.5,0 622.5,-63"/>
<text text-anchor="start" x="423.5" y="-51" font-family="Helvetica,sans-Serif" font-size="10.00">cockatrice/src/interface</text>
<text text-anchor="start" x="423.5" y="-40" font-family="Helvetica,sans-Serif" font-size="10.00">/widgets/tabs/api/edhrec</text>
<text text-anchor="start" x="423.5" y="-29" font-family="Helvetica,sans-Serif" font-size="10.00">/display/commander/edhrec</text>
<text text-anchor="start" x="423.5" y="-18" font-family="Helvetica,sans-Serif" font-size="10.00">_commander_api_response_navigation</text>
<text text-anchor="middle" x="519" y="-7" font-family="Helvetica,sans-Serif" font-size="10.00">_widget.cpp</text>
</a>
</g>
</g>
<!-- Node4&#45;&gt;Node5 -->
<g id="edge5_Node000004_Node000005" class="edge">
<title>Node4&#45;&gt;Node5</title>
<g id="a_edge5_Node000004_Node000005"><a xlink:title=" ">
<path fill="none" stroke="#63b8ff" d="M519,-93.68C519,-83.71 519,-72.98 519,-63.32"/>
<polygon fill="#63b8ff" stroke="#63b8ff" points="519,-98.81 516.75,-93.81 519,-96.31 519,-93.81 519,-93.81 519,-93.81 519,-96.31 521.25,-93.81 519,-98.81 519,-98.81"/>
</a>
</g>
</g>
</g>
</svg>
