<?xml version="1.0" encoding="UTF-8" standalone="no"?>
<!DOCTYPE svg PUBLIC "-//W3C//DTD SVG 1.1//EN"
 "http://www.w3.org/Graphics/SVG/1.1/DTD/svg11.dtd">
<!-- Generated by graphviz version 2.43.0 (0)
 -->
<!-- Title: VisualDeckStorageTagFilterWidget::addTagIfNotPresent Pages: 1 -->
<svg width="726pt" height="86pt"
 viewBox="0.00 0.00 726.00 86.00" xmlns="http://www.w3.org/2000/svg" xmlns:xlink="http://www.w3.org/1999/xlink">
<g id="graph0" class="graph" transform="scale(1 1) rotate(0) translate(4 82)">
<title>VisualDeckStorageTagFilterWidget::addTagIfNotPresent</title>
<!-- Node1 -->
<g id="Node000001" class="node">
<title>Node1</title>
<g id="a_Node000001"><a xlink:title=" ">
<polygon fill="#999999" stroke="#666666" points="718,-54 566,-54 566,-24 718,-24 718,-54"/>
<text text-anchor="start" x="574" y="-42" font-family="Helvetica,sans-Serif" font-size="10.00">VisualDeckStorageTagFilter</text>
<text text-anchor="middle" x="642" y="-31" font-family="Helvetica,sans-Serif" font-size="10.00">Widget::addTagIfNotPresent</text>
</a>
</g>
</g>
<!-- Node2 -->
<g id="Node000002" class="node">
<title>Node2</title>
<g id="a_Node000002"><a xlink:href="../../d8/d4e/classVisualDeckStorageTagFilterWidget.html#a8e91a629a366ae7a31d951d65dee06ad" target="_top" xlink:title=" ">
<polygon fill="white" stroke="#666666" points="530,-76 372,-76 372,-46 530,-46 530,-76"/>
<text text-anchor="start" x="380" y="-64" font-family="Helvetica,sans-Serif" font-size="10.00">VisualDeckStorageTagFilter</text>
<text text-anchor="middle" x="451" y="-53" font-family="Helvetica,sans-Serif" font-size="10.00">Widget::addTagsIfNotPresent</text>
</a>
</g>
</g>
<!-- Node1&#45;&gt;Node2 -->
<g id="edge1_Node000001_Node000002" class="edge">
<title>Node1&#45;&gt;Node2</title>
<g id="a_edge1_Node000001_Node000002"><a xlink:title=" ">
<path fill="none" stroke="#63b8ff" d="M560.79,-48.34C550.61,-49.52 540.22,-50.73 530.08,-51.91"/>
<polygon fill="#63b8ff" stroke="#63b8ff" points="565.76,-47.76 561.05,-50.57 563.28,-48.05 560.79,-48.34 560.79,-48.34 560.79,-48.34 563.28,-48.05 560.53,-46.1 565.76,-47.76 565.76,-47.76"/>
</a>
</g>
</g>
<!-- Node3 -->
<g id="Node000003" class="node">
<title>Node3</title>
<g id="a_Node000003"><a xlink:href="../../d8/d4e/classVisualDeckStorageTagFilterWidget.html#a6948a3d4067403630633b5dc83f784e8" target="_top" xlink:title=" ">
<polygon fill="white" stroke="#666666" points="336,-54 186,-54 186,-24 336,-24 336,-54"/>
<text text-anchor="start" x="194" y="-42" font-family="Helvetica,sans-Serif" font-size="10.00">VisualDeckStorageTagFilter</text>
<text text-anchor="middle" x="261" y="-31" font-family="Helvetica,sans-Serif" font-size="10.00">Widget::refreshTags</text>
</a>
</g>
</g>
<!-- Node2&#45;&gt;Node3 -->
<g id="edge2_Node000002_Node000003" class="edge">
<title>Node2&#45;&gt;Node3</title>
<g id="a_edge2_Node000002_Node000003"><a xlink:title=" ">
<path fill="none" stroke="#63b8ff" d="M366.91,-51.28C356.69,-50.08 346.3,-48.87 336.23,-47.69"/>
<polygon fill="#63b8ff" stroke="#63b8ff" points="371.9,-51.86 366.68,-53.51 369.42,-51.57 366.94,-51.28 366.94,-51.28 366.94,-51.28 369.42,-51.57 367.2,-49.05 371.9,-51.86 371.9,-51.86"/>
</a>
</g>
</g>
<!-- Node3&#45;&gt;Node1 -->
<g id="edge3_Node000003_Node000001" class="edge">
<title>Node3&#45;&gt;Node1</title>
<g id="a_edge3_Node000003_Node000001"><a xlink:title=" ">
<path fill="none" stroke="#63b8ff" d="M341.31,-37.39C351.64,-37.23 362.07,-37.09 372,-37 442.22,-36.36 459.78,-36.37 530,-37 541.56,-37.1 553.8,-37.27 565.77,-37.46"/>
<polygon fill="#63b8ff" stroke="#63b8ff" points="336.26,-37.47 341.22,-35.14 338.76,-37.43 341.26,-37.39 341.26,-37.39 341.26,-37.39 338.76,-37.43 341.29,-39.64 336.26,-37.47 336.26,-37.47"/>
</a>
</g>
</g>
<!-- Node4 -->
<g id="Node000004" class="node">
<title>Node4</title>
<g id="a_Node000004"><a xlink:href="../../d5/d79/classDeckPreviewWidget.html#a35a7717bd6e54482b2394d0eeadfdac1" target="_top" xlink:title=" ">
<polygon fill="white" stroke="#666666" points="135.5,-78 14.5,-78 14.5,-48 135.5,-48 135.5,-78"/>
<text text-anchor="start" x="22.5" y="-66" font-family="Helvetica,sans-Serif" font-size="10.00">DeckPreviewWidget::</text>
<text text-anchor="middle" x="75" y="-55" font-family="Helvetica,sans-Serif" font-size="10.00">DeckPreviewWidget</text>
</a>
</g>
</g>
<!-- Node3&#45;&gt;Node4 -->
<g id="edge4_Node000003_Node000004" class="edge">
<title>Node3&#45;&gt;Node4</title>
<g id="a_edge4_Node000003_Node000004"><a xlink:title=" ">
<path fill="none" stroke="#63b8ff" d="M180.85,-49.32C165.74,-51.29 150.16,-53.33 135.78,-55.2"/>
<polygon fill="#63b8ff" stroke="#63b8ff" points="185.96,-48.66 181.29,-51.54 183.48,-48.98 181,-49.3 181,-49.3 181,-49.3 183.48,-48.98 180.71,-47.07 185.96,-48.66 185.96,-48.66"/>
</a>
</g>
</g>
<!-- Node5 -->
<g id="Node000005" class="node">
<title>Node5</title>
<g id="a_Node000005"><a xlink:href="../../d8/d4e/classVisualDeckStorageTagFilterWidget.html#a67aa390ab1f6987de3cdeb346437ba9b" target="_top" xlink:title=" ">
<polygon fill="white" stroke="#666666" points="150,-30 0,-30 0,0 150,0 150,-30"/>
<text text-anchor="start" x="8" y="-18" font-family="Helvetica,sans-Serif" font-size="10.00">VisualDeckStorageTagFilter</text>
<text text-anchor="middle" x="75" y="-7" font-family="Helvetica,sans-Serif" font-size="10.00">Widget::showEvent</text>
</a>
</g>
</g>
<!-- Node3&#45;&gt;Node5 -->
<g id="edge5_Node000003_Node000005" class="edge">
<title>Node3&#45;&gt;Node5</title>
<g id="a_edge5_Node000003_Node000005"><a xlink:title=" ">
<path fill="none" stroke="#63b8ff" d="M180.96,-28.69C170.75,-27.36 160.32,-26 150.19,-24.68"/>
<polygon fill="#63b8ff" stroke="#63b8ff" points="185.96,-29.34 180.71,-30.93 183.48,-29.02 181,-28.7 181,-28.7 181,-28.7 183.48,-29.02 181.29,-26.46 185.96,-29.34 185.96,-29.34"/>
</a>
</g>
</g>
</g>
</svg>
