<?xml version="1.0" encoding="UTF-8" standalone="no"?>
<!DOCTYPE svg PUBLIC "-//W3C//DTD SVG 1.1//EN"
 "http://www.w3.org/Graphics/SVG/1.1/DTD/svg11.dtd">
<!-- Generated by graphviz version 2.43.0 (0)
 -->
<!-- Title: ZoneViewWidget::resizeEvent Pages: 1 -->
<svg width="600pt" height="27pt"
 viewBox="0.00 0.00 600.00 27.00" xmlns="http://www.w3.org/2000/svg" xmlns:xlink="http://www.w3.org/1999/xlink">
<g id="graph0" class="graph" transform="scale(1 1) rotate(0) translate(4 23)">
<title>ZoneViewWidget::resizeEvent</title>
<!-- Node1 -->
<g id="Node000001" class="node">
<title>Node1</title>
<g id="a_Node000001"><a xlink:title=" ">
<polygon fill="#999999" stroke="#666666" points="163,-19 0,-19 0,0 163,0 163,-19"/>
<text text-anchor="middle" x="81.5" y="-7" font-family="Helvetica,sans-Serif" font-size="10.00">ZoneViewWidget::resizeEvent</text>
</a>
</g>
</g>
<!-- Node2 -->
<g id="Node000002" class="node">
<title>Node2</title>
<g id="a_Node000002"><a xlink:href="../../d0/dd9/classZoneViewWidget.html#ac12c5a0a2af1ab65fc68a7b7fd16c7d6" target="_top" xlink:title=" ">
<polygon fill="white" stroke="#666666" points="377,-19 199,-19 199,0 377,0 377,-19"/>
<text text-anchor="middle" x="288" y="-7" font-family="Helvetica,sans-Serif" font-size="10.00">ZoneViewWidget::resizeScrollbar</text>
</a>
</g>
</g>
<!-- Node1&#45;&gt;Node2 -->
<g id="edge1_Node000001_Node000002" class="edge">
<title>Node1&#45;&gt;Node2</title>
<g id="a_edge1_Node000001_Node000002"><a xlink:title=" ">
<path fill="none" stroke="#63b8ff" d="M163.03,-9.5C173.12,-9.5 183.5,-9.5 193.76,-9.5"/>
<polygon fill="#63b8ff" stroke="#63b8ff" points="198.78,-9.5 193.78,-11.75 196.28,-9.5 193.78,-9.5 193.78,-9.5 193.78,-9.5 196.28,-9.5 193.78,-7.25 198.78,-9.5 198.78,-9.5"/>
</a>
</g>
</g>
<!-- Node3 -->
<g id="Node000003" class="node">
<title>Node3</title>
<g id="a_Node000003"><a xlink:href="../../d0/db5/classZoneViewZone.html#a1619d18706e91fef744f98379e6b3043" target="_top" xlink:title=" ">
<polygon fill="white" stroke="#666666" points="592,-19 413,-19 413,0 592,0 592,-19"/>
<text text-anchor="middle" x="502.5" y="-7" font-family="Helvetica,sans-Serif" font-size="10.00">ZoneViewZone::getOptimumRect</text>
</a>
</g>
</g>
<!-- Node2&#45;&gt;Node3 -->
<g id="edge2_Node000002_Node000003" class="edge">
<title>Node2&#45;&gt;Node3</title>
<g id="a_edge2_Node000002_Node000003"><a xlink:title=" ">
<path fill="none" stroke="#63b8ff" d="M377.27,-9.5C387.27,-9.5 397.5,-9.5 407.57,-9.5"/>
<polygon fill="#63b8ff" stroke="#63b8ff" points="412.82,-9.5 407.82,-11.75 410.32,-9.5 407.82,-9.5 407.82,-9.5 407.82,-9.5 410.32,-9.5 407.82,-7.25 412.82,-9.5 412.82,-9.5"/>
</a>
</g>
</g>
</g>
</svg>
