<?xml version="1.0" encoding="UTF-8" standalone="no"?>
<!DOCTYPE svg PUBLIC "-//W3C//DTD SVG 1.1//EN"
 "http://www.w3.org/Graphics/SVG/1.1/DTD/svg11.dtd">
<!-- Generated by graphviz version 2.43.0 (0)
 -->
<!-- Title: DeckEditorDeckDockWidget::syncBannerCardComboBoxSelectionWithDeck Pages: 1 -->
<svg width="792pt" height="86pt"
 viewBox="0.00 0.00 792.00 86.00" xmlns="http://www.w3.org/2000/svg" xmlns:xlink="http://www.w3.org/1999/xlink">
<g id="graph0" class="graph" transform="scale(1 1) rotate(0) translate(4 82)">
<title>DeckEditorDeckDockWidget::syncBannerCardComboBoxSelectionWithDeck</title>
<!-- Node1 -->
<g id="Node000001" class="node">
<title>Node1</title>
<g id="a_Node000001"><a xlink:title=" ">
<polygon fill="#999999" stroke="#666666" points="784,-59.5 584,-59.5 584,-18.5 784,-18.5 784,-59.5"/>
<text text-anchor="start" x="592" y="-47.5" font-family="Helvetica,sans-Serif" font-size="10.00">DeckEditorDeckDockWidget</text>
<text text-anchor="start" x="592" y="-36.5" font-family="Helvetica,sans-Serif" font-size="10.00">::syncBannerCardComboBoxSelection</text>
<text text-anchor="middle" x="684" y="-25.5" font-family="Helvetica,sans-Serif" font-size="10.00">WithDeck</text>
</a>
</g>
</g>
<!-- Node2 -->
<g id="Node000002" class="node">
<title>Node2</title>
<g id="a_Node000002"><a xlink:href="../../d9/df7/classDeckEditorDeckDockWidget.html#a09b8551959c1d4514c16b24967f541f5" target="_top" xlink:title=" ">
<polygon fill="white" stroke="#666666" points="548,-54 386,-54 386,-24 548,-24 548,-54"/>
<text text-anchor="start" x="394" y="-42" font-family="Helvetica,sans-Serif" font-size="10.00">DeckEditorDeckDockWidget</text>
<text text-anchor="middle" x="467" y="-31" font-family="Helvetica,sans-Serif" font-size="10.00">::syncDisplayWidgetsToModel</text>
</a>
</g>
</g>
<!-- Node1&#45;&gt;Node2 -->
<g id="edge1_Node000001_Node000002" class="edge">
<title>Node1&#45;&gt;Node2</title>
<g id="a_edge1_Node000001_Node000002"><a xlink:title=" ">
<path fill="none" stroke="#63b8ff" d="M578.92,-39C568.57,-39 558.18,-39 548.14,-39"/>
<polygon fill="#63b8ff" stroke="#63b8ff" points="584,-39 579,-41.25 581.5,-39 579,-39 579,-39 579,-39 581.5,-39 579,-36.75 584,-39 584,-39"/>
</a>
</g>
</g>
<!-- Node3 -->
<g id="Node000003" class="node">
<title>Node3</title>
<g id="a_Node000003"><a xlink:href="../../d9/df7/classDeckEditorDeckDockWidget.html#af0d083e7f607e47b3fc22a45957c6a6a" target="_top" xlink:title=" ">
<polygon fill="white" stroke="#666666" points="350,-78 196,-78 196,-48 350,-48 350,-78"/>
<text text-anchor="start" x="204" y="-66" font-family="Helvetica,sans-Serif" font-size="10.00">DeckEditorDeckDockWidget</text>
<text text-anchor="middle" x="273" y="-55" font-family="Helvetica,sans-Serif" font-size="10.00">::createDeckDock</text>
</a>
</g>
</g>
<!-- Node2&#45;&gt;Node3 -->
<g id="edge2_Node000002_Node000003" class="edge">
<title>Node2&#45;&gt;Node3</title>
<g id="a_edge2_Node000002_Node000003"><a xlink:title=" ">
<path fill="none" stroke="#63b8ff" d="M380.96,-49.63C370.72,-50.91 360.31,-52.21 350.21,-53.47"/>
<polygon fill="#63b8ff" stroke="#63b8ff" points="385.97,-49 381.28,-51.86 383.48,-49.31 381,-49.62 381,-49.62 381,-49.62 383.48,-49.31 380.72,-47.39 385.97,-49 385.97,-49"/>
</a>
</g>
</g>
<!-- Node5 -->
<g id="Node000005" class="node">
<title>Node5</title>
<g id="a_Node000005"><a xlink:href="../../d9/df7/classDeckEditorDeckDockWidget.html#a2cceccf12d10aba7a3de6bb25beb594b" target="_top" xlink:title=" ">
<polygon fill="white" stroke="#666666" points="350,-30 196,-30 196,0 350,0 350,-30"/>
<text text-anchor="start" x="204" y="-18" font-family="Helvetica,sans-Serif" font-size="10.00">DeckEditorDeckDockWidget</text>
<text text-anchor="middle" x="273" y="-7" font-family="Helvetica,sans-Serif" font-size="10.00">::setDeck</text>
</a>
</g>
</g>
<!-- Node2&#45;&gt;Node5 -->
<g id="edge4_Node000002_Node000005" class="edge">
<title>Node2&#45;&gt;Node5</title>
<g id="a_edge4_Node000002_Node000005"><a xlink:title=" ">
<path fill="none" stroke="#63b8ff" d="M380.96,-28.37C370.72,-27.09 360.31,-25.79 350.21,-24.53"/>
<polygon fill="#63b8ff" stroke="#63b8ff" points="385.97,-29 380.72,-30.61 383.48,-28.69 381,-28.38 381,-28.38 381,-28.38 383.48,-28.69 381.28,-26.14 385.97,-29 385.97,-29"/>
</a>
</g>
</g>
<!-- Node4 -->
<g id="Node000004" class="node">
<title>Node4</title>
<g id="a_Node000004"><a xlink:href="../../d9/df7/classDeckEditorDeckDockWidget.html#a5622dc70448c02427ce3511f07a8531c" target="_top" xlink:title=" ">
<polygon fill="white" stroke="#666666" points="160,-78 0,-78 0,-48 160,-48 160,-78"/>
<text text-anchor="start" x="8" y="-66" font-family="Helvetica,sans-Serif" font-size="10.00">DeckEditorDeckDockWidget</text>
<text text-anchor="middle" x="80" y="-55" font-family="Helvetica,sans-Serif" font-size="10.00">::DeckEditorDeckDockWidget</text>
</a>
</g>
</g>
<!-- Node3&#45;&gt;Node4 -->
<g id="edge3_Node000003_Node000004" class="edge">
<title>Node3&#45;&gt;Node4</title>
<g id="a_edge3_Node000003_Node000004"><a xlink:title=" ">
<path fill="none" stroke="#63b8ff" d="M190.7,-63C180.6,-63 170.29,-63 160.22,-63"/>
<polygon fill="#63b8ff" stroke="#63b8ff" points="195.96,-63 190.96,-65.25 193.46,-63 190.96,-63 190.96,-63 190.96,-63 193.46,-63 190.96,-60.75 195.96,-63 195.96,-63"/>
</a>
</g>
</g>
</g>
</svg>
