<?xml version="1.0" encoding="UTF-8" standalone="no"?>
<!DOCTYPE svg PUBLIC "-//W3C//DTD SVG 1.1//EN"
 "http://www.w3.org/Graphics/SVG/1.1/DTD/svg11.dtd">
<!-- Generated by graphviz version 2.43.0 (0)
 -->
<!-- Title: DeckEditorDeckDockWidget::actIncrementSelection Pages: 1 -->
<svg width="542pt" height="86pt"
 viewBox="0.00 0.00 542.00 86.00" xmlns="http://www.w3.org/2000/svg" xmlns:xlink="http://www.w3.org/1999/xlink">
<g id="graph0" class="graph" transform="scale(1 1) rotate(0) translate(4 82)">
<title>DeckEditorDeckDockWidget::actIncrementSelection</title>
<!-- Node1 -->
<g id="Node000001" class="node">
<title>Node1</title>
<g id="a_Node000001"><a xlink:title=" ">
<polygon fill="#999999" stroke="#666666" points="154,-54 0,-54 0,-24 154,-24 154,-54"/>
<text text-anchor="start" x="8" y="-42" font-family="Helvetica,sans-Serif" font-size="10.00">DeckEditorDeckDockWidget</text>
<text text-anchor="middle" x="77" y="-31" font-family="Helvetica,sans-Serif" font-size="10.00">::actIncrementSelection</text>
</a>
</g>
</g>
<!-- Node2 -->
<g id="Node000002" class="node">
<title>Node2</title>
<g id="a_Node000002"><a xlink:href="../../d9/df7/classDeckEditorDeckDockWidget.html#a8accae8460c122c60e9f2fcbf1c3cc68" target="_top" xlink:title=" ">
<polygon fill="white" stroke="#666666" points="344,-78 190,-78 190,-48 344,-48 344,-78"/>
<text text-anchor="start" x="198" y="-66" font-family="Helvetica,sans-Serif" font-size="10.00">DeckEditorDeckDockWidget</text>
<text text-anchor="middle" x="267" y="-55" font-family="Helvetica,sans-Serif" font-size="10.00">::getSelectedCardNodes</text>
</a>
</g>
</g>
<!-- Node1&#45;&gt;Node2 -->
<g id="edge1_Node000001_Node000002" class="edge">
<title>Node1&#45;&gt;Node2</title>
<g id="a_edge1_Node000001_Node000002"><a xlink:title=" ">
<path fill="none" stroke="#63b8ff" d="M154.2,-48.73C164.16,-50 174.41,-51.31 184.46,-52.59"/>
<polygon fill="#63b8ff" stroke="#63b8ff" points="189.7,-53.26 184.45,-54.86 187.22,-52.94 184.74,-52.63 184.74,-52.63 184.74,-52.63 187.22,-52.94 185.02,-50.39 189.7,-53.26 189.7,-53.26"/>
</a>
</g>
</g>
<!-- Node4 -->
<g id="Node000004" class="node">
<title>Node4</title>
<g id="a_Node000004"><a xlink:href="../../d9/df7/classDeckEditorDeckDockWidget.html#ae62018c18651e82ea1423f9d44716059" target="_top" xlink:title="Increments or decrements the amount of the card node at the index by 1.">
<polygon fill="white" stroke="#666666" points="344,-30 190,-30 190,0 344,0 344,-30"/>
<text text-anchor="start" x="198" y="-18" font-family="Helvetica,sans-Serif" font-size="10.00">DeckEditorDeckDockWidget</text>
<text text-anchor="middle" x="267" y="-7" font-family="Helvetica,sans-Serif" font-size="10.00">::offsetCountAtIndex</text>
</a>
</g>
</g>
<!-- Node1&#45;&gt;Node4 -->
<g id="edge3_Node000001_Node000004" class="edge">
<title>Node1&#45;&gt;Node4</title>
<g id="a_edge3_Node000001_Node000004"><a xlink:title=" ">
<path fill="none" stroke="#63b8ff" d="M154.2,-29.27C164.16,-28 174.41,-26.69 184.46,-25.41"/>
<polygon fill="#63b8ff" stroke="#63b8ff" points="189.7,-24.74 185.02,-27.61 187.22,-25.06 184.74,-25.37 184.74,-25.37 184.74,-25.37 187.22,-25.06 184.45,-23.14 189.7,-24.74 189.7,-24.74"/>
</a>
</g>
</g>
<!-- Node3 -->
<g id="Node000003" class="node">
<title>Node3</title>
<g id="a_Node000003"><a xlink:href="../../d9/df7/classDeckEditorDeckDockWidget.html#a61b8573c7fd7664585a31b3384a22ef9" target="_top" xlink:title="Convenience method to get the underlying model instance from the DeckStateManager.">
<polygon fill="white" stroke="#666666" points="534,-54 380,-54 380,-24 534,-24 534,-54"/>
<text text-anchor="start" x="388" y="-42" font-family="Helvetica,sans-Serif" font-size="10.00">DeckEditorDeckDockWidget</text>
<text text-anchor="middle" x="457" y="-31" font-family="Helvetica,sans-Serif" font-size="10.00">::getModel</text>
</a>
</g>
</g>
<!-- Node2&#45;&gt;Node3 -->
<g id="edge2_Node000002_Node000003" class="edge">
<title>Node2&#45;&gt;Node3</title>
<g id="a_edge2_Node000002_Node000003"><a xlink:title=" ">
<path fill="none" stroke="#63b8ff" d="M344.2,-53.27C354.16,-52 364.41,-50.69 374.46,-49.41"/>
<polygon fill="#63b8ff" stroke="#63b8ff" points="379.7,-48.74 375.02,-51.61 377.22,-49.06 374.74,-49.37 374.74,-49.37 374.74,-49.37 377.22,-49.06 374.45,-47.14 379.7,-48.74 379.7,-48.74"/>
</a>
</g>
</g>
<!-- Node4&#45;&gt;Node3 -->
<g id="edge4_Node000004_Node000003" class="edge">
<title>Node4&#45;&gt;Node3</title>
<g id="a_edge4_Node000004_Node000003"><a xlink:title=" ">
<path fill="none" stroke="#63b8ff" d="M344.2,-24.73C354.16,-26 364.41,-27.31 374.46,-28.59"/>
<polygon fill="#63b8ff" stroke="#63b8ff" points="379.7,-29.26 374.45,-30.86 377.22,-28.94 374.74,-28.63 374.74,-28.63 374.74,-28.63 377.22,-28.94 375.02,-26.39 379.7,-29.26 379.7,-29.26"/>
</a>
</g>
</g>
</g>
</svg>
