<?xml version="1.0" encoding="UTF-8" standalone="no"?>
<!DOCTYPE svg PUBLIC "-//W3C//DTD SVG 1.1//EN"
 "http://www.w3.org/Graphics/SVG/1.1/DTD/svg11.dtd">
<!-- Generated by graphviz version 2.43.0 (0)
 -->
<!-- Title: cockatrice/src/interface/widgets/tabs/api/edhrec/api_response/average_deck/edhrec_deck_api_response.cpp Pages: 1 -->
<!--zoomable 434 -->

<svg id="main" version="1.1" xmlns="http://www.w3.org/2000/svg" xmlns:xlink="http://www.w3.org/1999/xlink" xml:space="preserve" onload="init(evt)">
<style type="text/css"><![CDATA[
.node, .edge {opacity: 0.7;}
.node.selected, .edge.selected {opacity: 1;}
.edge:hover path { stroke: red; }
.edge:hover polygon { stroke: red; fill: red; }
]]></style>

<defs>
  <circle id="rim" cx="0" cy="0" r="7"/>
  <circle id="rim2" cx="0" cy="0" r="3.5"/>
  <g id="zoomPlus">
    <use xlink:href="#rim" fill="#404040"><set attributeName="fill" to="#808080" begin="zoomplus.mouseover" end="zoomplus.mouseout"/></use>
    <path d="M-4,0h8M0,-4v8" fill="none" stroke="white" stroke-width="1.5" pointer-events="none"/>
  </g>
  <g id="zoomMin">
    <use xlink:href="#rim" fill="#404040"><set attributeName="fill" to="#808080" begin="zoomminus.mouseover" end="zoomminus.mouseout"/></use>
    <path d="M-4,0h8" fill="none" stroke="white" stroke-width="1.5" pointer-events="none"/>
  </g>
  <g id="arrowUp" transform="translate(30 24)">
    <use xlink:href="#rim"/>
    <path pointer-events="none" fill="none" stroke="white" stroke-width="1.5" d="M0,-3.0v7 M-2.5,-0.5L0,-3.0L2.5,-0.5"/>
  </g>
  <g id="arrowRight" transform="rotate(90) translate(36 -43)">
    <use xlink:href="#rim"/>
    <path pointer-events="none" fill="none" stroke="white" stroke-width="1.5" d="M0,-3.0v7 M-2.5,-0.5L0,-3.0L2.5,-0.5"/>
  </g>
  <g id="arrowDown" transform="rotate(180) translate(-30 -48)">
    <use xlink:href="#rim"/>
    <path pointer-events="none" fill="none" stroke="white" stroke-width="1.5" d="M0,-3.0v7 M-2.5,-0.5L0,-3.0L2.5,-0.5"/>
  </g>
  <g id="arrowLeft" transform="rotate(270) translate(-36 17)">
    <use xlink:href="#rim"/>
    <path pointer-events="none" fill="none" stroke="white" stroke-width="1.5" d="M0,-3.0v7 M-2.5,-0.5L0,-3.0L2.5,-0.5"/>
  </g>
  <g id="resetDef">
    <use xlink:href="#rim2" fill="#404040"><set attributeName="fill" to="#808080" begin="reset.mouseover" end="reset.mouseout"/></use>
  </g>
</defs>
<script type="application/ecmascript">
var viewWidth = 1071;
var viewHeight = 434;
var sectionId = 'dynsection-0';
</script>
<script type="application/ecmascript" xlink:href="../../svg.min.js"/>
<svg id="graph" class="graph">
<g id="viewport">
<title>cockatrice/src/interface/widgets/tabs/api/edhrec/api_response/average_deck/edhrec_deck_api_response.cpp</title>
<!-- Node1 -->
<g id="Node000001" class="node">
<title>Node1</title>
<g id="a_Node000001"><a xlink:title=" ">
<polygon fill="#999999" stroke="#666666" points="897.5,-426 726.5,-426 726.5,-374 897.5,-374 897.5,-426"/>
<text text-anchor="start" x="734.5" y="-414" font-family="Helvetica,sans-Serif" font-size="10.00">cockatrice/src/interface</text>
<text text-anchor="start" x="734.5" y="-403" font-family="Helvetica,sans-Serif" font-size="10.00">/widgets/tabs/api/edhrec</text>
<text text-anchor="start" x="734.5" y="-392" font-family="Helvetica,sans-Serif" font-size="10.00">/api_response/average_deck</text>
<text text-anchor="middle" x="812" y="-381" font-family="Helvetica,sans-Serif" font-size="10.00">/edhrec_deck_api_response.cpp</text>
</a>
</g>
</g>
<!-- Node2 -->
<g id="Node000002" class="node">
<title>Node2</title>
<g id="a_Node000002"><a xlink:href="../../d9/da2/edhrec__deck__api__response_8h.html" target="_top" xlink:title="TODO: Document this.">
<polygon fill="white" stroke="#666666" points="745.5,-338 588.5,-338 588.5,-319 745.5,-319 745.5,-338"/>
<text text-anchor="middle" x="667" y="-326" font-family="Helvetica,sans-Serif" font-size="10.00">edhrec_deck_api_response.h</text>
</a>
</g>
</g>
<!-- Node1&#45;&gt;Node2 -->
<g id="edge1_Node000001_Node000002" class="edge">
<title>Node1&#45;&gt;Node2</title>
<g id="a_edge1_Node000001_Node000002"><a xlink:title=" ">
<path fill="none" stroke="#63b8ff" d="M759.65,-373.91C735.57,-362.37 708.27,-349.28 689.58,-340.32"/>
<polygon fill="#63b8ff" stroke="#63b8ff" points="685.02,-338.14 690.5,-338.27 687.27,-339.22 689.53,-340.3 689.53,-340.3 689.53,-340.3 687.27,-339.22 688.55,-342.33 685.02,-338.14 685.02,-338.14"/>
</a>
</g>
</g>
<!-- Node3 -->
<g id="Node000003" class="node">
<title>Node3</title>
<g id="a_Node000003"><a xlink:href="../../da/d36/deck__loader_8h.html" target="_top" xlink:title="TODO: Document this.">
<polygon fill="white" stroke="#666666" points="458.5,-283 335.5,-283 335.5,-253 458.5,-253 458.5,-283"/>
<text text-anchor="start" x="343.5" y="-271" font-family="Helvetica,sans-Serif" font-size="10.00">../../../../../../deck</text>
<text text-anchor="middle" x="397" y="-260" font-family="Helvetica,sans-Serif" font-size="10.00">_loader/deck_loader.h</text>
</a>
</g>
</g>
<!-- Node1&#45;&gt;Node3 -->
<g id="edge23_Node000001_Node000003" class="edge">
<title>Node1&#45;&gt;Node3</title>
<g id="a_edge23_Node000001_Node000003"><a xlink:title=" ">
<path fill="none" stroke="#63b8ff" d="M726.44,-378.91C682.11,-367.93 627.3,-353.43 579,-338 528.79,-321.96 472.19,-299.85 435.63,-285.02"/>
<polygon fill="#63b8ff" stroke="#63b8ff" points="430.83,-283.07 436.31,-282.87 433.15,-284.01 435.46,-284.95 435.46,-284.95 435.46,-284.95 433.15,-284.01 434.62,-287.03 430.83,-283.07 430.83,-283.07"/>
</a>
</g>
</g>
<!-- Node17 -->
<g id="Node000017" class="node">
<title>Node17</title>
<g id="a_Node000017"><a xlink:title=" ">
<polygon fill="#e0e0e0" stroke="#999999" points="755,-277.5 699,-277.5 699,-258.5 755,-258.5 755,-277.5"/>
<text text-anchor="middle" x="727" y="-265.5" font-family="Helvetica,sans-Serif" font-size="10.00">QDebug</text>
</a>
</g>
</g>
<!-- Node1&#45;&gt;Node17 -->
<g id="edge25_Node000001_Node000017" class="edge">
<title>Node1&#45;&gt;Node17</title>
<g id="a_edge25_Node000001_Node000017"><a xlink:title=" ">
<path fill="none" stroke="#63b8ff" d="M795.61,-373.93C777.6,-346.38 749.36,-303.2 735.4,-281.84"/>
<polygon fill="#63b8ff" stroke="#63b8ff" points="732.64,-277.63 737.26,-280.58 734.01,-279.72 735.38,-281.82 735.38,-281.82 735.38,-281.82 734.01,-279.72 733.5,-283.05 732.64,-277.63 732.64,-277.63"/>
</a>
</g>
</g>
<!-- Node18 -->
<g id="Node000018" class="node">
<title>Node18</title>
<g id="a_Node000018"><a xlink:title=" ">
<polygon fill="#e0e0e0" stroke="#999999" points="844.5,-277.5 773.5,-277.5 773.5,-258.5 844.5,-258.5 844.5,-277.5"/>
<text text-anchor="middle" x="809" y="-265.5" font-family="Helvetica,sans-Serif" font-size="10.00">QJsonArray</text>
</a>
</g>
</g>
<!-- Node1&#45;&gt;Node18 -->
<g id="edge26_Node000001_Node000018" class="edge">
<title>Node1&#45;&gt;Node18</title>
<g id="a_edge26_Node000001_Node000018"><a xlink:title=" ">
<path fill="none" stroke="#63b8ff" d="M811.42,-373.93C810.79,-346.73 809.81,-304.28 809.32,-282.66"/>
<polygon fill="#63b8ff" stroke="#63b8ff" points="809.2,-277.63 811.56,-282.58 809.26,-280.13 809.31,-282.63 809.31,-282.63 809.31,-282.63 809.26,-280.13 807.07,-282.68 809.2,-277.63 809.2,-277.63"/>
</a>
</g>
</g>
<!-- Node19 -->
<g id="Node000019" class="node">
<title>Node19</title>
<g id="a_Node000019"><a xlink:title=" ">
<polygon fill="#e0e0e0" stroke="#999999" points="939,-277.5 863,-277.5 863,-258.5 939,-258.5 939,-277.5"/>
<text text-anchor="middle" x="901" y="-265.5" font-family="Helvetica,sans-Serif" font-size="10.00">QJsonObject</text>
</a>
</g>
</g>
<!-- Node1&#45;&gt;Node19 -->
<g id="edge27_Node000001_Node000019" class="edge">
<title>Node1&#45;&gt;Node19</title>
<g id="a_edge27_Node000001_Node000019"><a xlink:title=" ">
<path fill="none" stroke="#63b8ff" d="M829.16,-373.93C848.02,-346.38 877.59,-303.2 892.21,-281.84"/>
<polygon fill="#63b8ff" stroke="#63b8ff" points="895.09,-277.63 894.12,-283.03 893.68,-279.69 892.27,-281.76 892.27,-281.76 892.27,-281.76 893.68,-279.69 890.41,-280.49 895.09,-277.63 895.09,-277.63"/>
</a>
</g>
</g>
<!-- Node20 -->
<g id="Node000020" class="node">
<title>Node20</title>
<g id="a_Node000020"><a xlink:title=" ">
<polygon fill="#e0e0e0" stroke="#999999" points="957.5,-338 878.5,-338 878.5,-319 957.5,-319 957.5,-338"/>
<text text-anchor="middle" x="918" y="-326" font-family="Helvetica,sans-Serif" font-size="10.00">QApplication</text>
</a>
</g>
</g>
<!-- Node1&#45;&gt;Node20 -->
<g id="edge24_Node000001_Node000020" class="edge">
<title>Node1&#45;&gt;Node20</title>
<g id="a_edge24_Node000001_Node000020"><a xlink:title=" ">
<path fill="none" stroke="#63b8ff" d="M850.27,-373.91C867.32,-362.73 886.58,-350.1 900.19,-341.18"/>
<polygon fill="#63b8ff" stroke="#63b8ff" points="904.58,-338.3 901.63,-342.93 902.48,-339.67 900.39,-341.04 900.39,-341.04 900.39,-341.04 902.48,-339.67 899.16,-339.16 904.58,-338.3 904.58,-338.3"/>
</a>
</g>
</g>
<!-- Node21 -->
<g id="Node000021" class="node">
<title>Node21</title>
<g id="a_Node000021"><a xlink:title=" ">
<polygon fill="#e0e0e0" stroke="#999999" points="1062.5,-338 975.5,-338 975.5,-319 1062.5,-319 1062.5,-338"/>
<text text-anchor="middle" x="1019" y="-326" font-family="Helvetica,sans-Serif" font-size="10.00">QMainWindow</text>
</a>
</g>
</g>
<!-- Node1&#45;&gt;Node21 -->
<g id="edge28_Node000001_Node000021" class="edge">
<title>Node1&#45;&gt;Node21</title>
<g id="a_edge28_Node000001_Node000021"><a xlink:title=" ">
<path fill="none" stroke="#63b8ff" d="M886.73,-373.91C921.84,-362.12 961.74,-348.73 988.45,-339.76"/>
<polygon fill="#63b8ff" stroke="#63b8ff" points="993.28,-338.14 989.26,-341.86 990.91,-338.93 988.54,-339.73 988.54,-339.73 988.54,-339.73 990.91,-338.93 987.82,-337.59 993.28,-338.14 993.28,-338.14"/>
</a>
</g>
</g>
<!-- Node2&#45;&gt;Node3 -->
<g id="edge2_Node000002_Node000003" class="edge">
<title>Node2&#45;&gt;Node3</title>
<g id="a_edge2_Node000002_Node000003"><a xlink:title=" ">
<path fill="none" stroke="#63b8ff" d="M627.74,-318.99C584.74,-309.68 515.03,-294.57 463.48,-283.4"/>
<polygon fill="#63b8ff" stroke="#63b8ff" points="458.54,-282.33 463.91,-281.19 460.99,-282.86 463.43,-283.39 463.43,-283.39 463.43,-283.39 460.99,-282.86 462.96,-285.59 458.54,-282.33 458.54,-282.33"/>
</a>
</g>
</g>
<!-- Node13 -->
<g id="Node000013" class="node">
<title>Node13</title>
<g id="a_Node000013"><a xlink:title=" ">
<polygon fill="#e0e0e0" stroke="#999999" points="642.5,-145.5 587.5,-145.5 587.5,-126.5 642.5,-126.5 642.5,-145.5"/>
<text text-anchor="middle" x="615" y="-133.5" font-family="Helvetica,sans-Serif" font-size="10.00">QVector</text>
</a>
</g>
</g>
<!-- Node2&#45;&gt;Node13 -->
<g id="edge22_Node000002_Node000013" class="edge">
<title>Node2&#45;&gt;Node13</title>
<g id="a_edge22_Node000002_Node000013"><a xlink:title=" ">
<path fill="none" stroke="#63b8ff" d="M664.63,-318.82C656.37,-288.57 628.83,-187.65 618.74,-150.7"/>
<polygon fill="#63b8ff" stroke="#63b8ff" points="617.38,-145.73 620.87,-149.96 618.04,-148.14 618.7,-150.55 618.7,-150.55 618.7,-150.55 618.04,-148.14 616.53,-151.15 617.38,-145.73 617.38,-145.73"/>
</a>
</g>
</g>
<!-- Node16 -->
<g id="Node000016" class="node">
<title>Node16</title>
<g id="a_Node000016"><a xlink:title=" ">
<polygon fill="#e0e0e0" stroke="#999999" points="587.5,-79.5 534.5,-79.5 534.5,-60.5 587.5,-60.5 587.5,-79.5"/>
<text text-anchor="middle" x="561" y="-67.5" font-family="Helvetica,sans-Serif" font-size="10.00">QString</text>
</a>
</g>
</g>
<!-- Node2&#45;&gt;Node16 -->
<g id="edge21_Node000002_Node000016" class="edge">
<title>Node2&#45;&gt;Node16</title>
<g id="a_edge21_Node000002_Node000016"><a xlink:title=" ">
<path fill="none" stroke="#63b8ff" d="M669.02,-318.74C675.5,-288.44 692.95,-186.37 651,-121 637.77,-100.39 612.92,-87.52 592.68,-80.01"/>
<polygon fill="#63b8ff" stroke="#63b8ff" points="587.91,-78.3 593.38,-77.86 590.26,-79.14 592.62,-79.98 592.62,-79.98 592.62,-79.98 590.26,-79.14 591.86,-82.1 587.91,-78.3 587.91,-78.3"/>
</a>
</g>
</g>
<!-- Node2&#45;&gt;Node17 -->
<g id="edge18_Node000002_Node000017" class="edge">
<title>Node2&#45;&gt;Node17</title>
<g id="a_edge18_Node000002_Node000017"><a xlink:title=" ">
<path fill="none" stroke="#63b8ff" d="M675.85,-318.87C686.05,-308.93 702.86,-292.53 714.41,-281.27"/>
<polygon fill="#63b8ff" stroke="#63b8ff" points="718.11,-277.67 716.1,-282.77 716.32,-279.41 714.53,-281.16 714.53,-281.16 714.53,-281.16 716.32,-279.41 712.96,-279.55 718.11,-277.67 718.11,-277.67"/>
</a>
</g>
</g>
<!-- Node2&#45;&gt;Node18 -->
<g id="edge19_Node000002_Node000018" class="edge">
<title>Node2&#45;&gt;Node18</title>
<g id="a_edge19_Node000002_Node000018"><a xlink:title=" ">
<path fill="none" stroke="#63b8ff" d="M687.65,-318.99C712.99,-308.55 755.97,-290.85 783.4,-279.55"/>
<polygon fill="#63b8ff" stroke="#63b8ff" points="788.33,-277.52 784.56,-281.5 786.02,-278.47 783.7,-279.42 783.7,-279.42 783.7,-279.42 786.02,-278.47 782.85,-277.34 788.33,-277.52 788.33,-277.52"/>
</a>
</g>
</g>
<!-- Node2&#45;&gt;Node19 -->
<g id="edge20_Node000002_Node000019" class="edge">
<title>Node2&#45;&gt;Node19</title>
<g id="a_edge20_Node000002_Node000019"><a xlink:title=" ">
<path fill="none" stroke="#63b8ff" d="M705.84,-318.92C743.77,-310.39 803.07,-296.63 854,-283 858.59,-281.77 863.41,-280.41 868.15,-279.04"/>
<polygon fill="#63b8ff" stroke="#63b8ff" points="873.24,-277.55 869.07,-281.11 870.84,-278.25 868.44,-278.95 868.44,-278.95 868.44,-278.95 870.84,-278.25 867.81,-276.8 873.24,-277.55 873.24,-277.55"/>
</a>
</g>
</g>
<!-- Node4 -->
<g id="Node000004" class="node">
<title>Node4</title>
<g id="a_Node000004"><a xlink:title=" ">
<polygon fill="#e0e0e0" stroke="#999999" points="212.5,-211.5 105.5,-211.5 105.5,-192.5 212.5,-192.5 212.5,-211.5"/>
<text text-anchor="middle" x="159" y="-199.5" font-family="Helvetica,sans-Serif" font-size="10.00">QLoggingCategory</text>
</a>
</g>
</g>
<!-- Node3&#45;&gt;Node4 -->
<g id="edge3_Node000003_Node000004" class="edge">
<title>Node3&#45;&gt;Node4</title>
<g id="a_edge3_Node000003_Node000004"><a xlink:title=" ">
<path fill="none" stroke="#63b8ff" d="M344.77,-252.95C299.72,-240.84 235.8,-223.65 195.9,-212.92"/>
<polygon fill="#63b8ff" stroke="#63b8ff" points="190.67,-211.52 196.09,-210.64 193.09,-212.17 195.5,-212.82 195.5,-212.82 195.5,-212.82 193.09,-212.17 194.92,-214.99 190.67,-211.52 190.67,-211.52"/>
</a>
</g>
</g>
<!-- Node5 -->
<g id="Node000005" class="node">
<title>Node5</title>
<g id="a_Node000005"><a xlink:title=" ">
<polygon fill="#e0e0e0" stroke="#999999" points="287,-211.5 231,-211.5 231,-192.5 287,-192.5 287,-211.5"/>
<text text-anchor="middle" x="259" y="-199.5" font-family="Helvetica,sans-Serif" font-size="10.00">QPrinter</text>
</a>
</g>
</g>
<!-- Node3&#45;&gt;Node5 -->
<g id="edge4_Node000003_Node000005" class="edge">
<title>Node3&#45;&gt;Node5</title>
<g id="a_edge4_Node000003_Node000005"><a xlink:title=" ">
<path fill="none" stroke="#63b8ff" d="M366.72,-252.95C341.23,-241.14 305.34,-224.49 282.12,-213.72"/>
<polygon fill="#63b8ff" stroke="#63b8ff" points="277.37,-211.52 282.85,-211.58 279.63,-212.57 281.9,-213.62 281.9,-213.62 281.9,-213.62 279.63,-212.57 280.95,-215.66 277.37,-211.52 277.37,-211.52"/>
</a>
</g>
</g>
<!-- Node6 -->
<g id="Node000006" class="node">
<title>Node6</title>
<g id="a_Node000006"><a xlink:title=" ">
<polygon fill="#e0e0e0" stroke="#999999" points="381,-211.5 305,-211.5 305,-192.5 381,-192.5 381,-211.5"/>
<text text-anchor="middle" x="343" y="-199.5" font-family="Helvetica,sans-Serif" font-size="10.00">QTextCursor</text>
</a>
</g>
</g>
<!-- Node3&#45;&gt;Node6 -->
<g id="edge5_Node000003_Node000006" class="edge">
<title>Node3&#45;&gt;Node6</title>
<g id="a_edge5_Node000003_Node000006"><a xlink:title=" ">
<path fill="none" stroke="#63b8ff" d="M385.02,-252.8C375.69,-241.74 362.86,-226.54 353.84,-215.84"/>
<polygon fill="#63b8ff" stroke="#63b8ff" points="350.46,-211.84 355.41,-214.21 352.07,-213.76 353.69,-215.67 353.69,-215.67 353.69,-215.67 352.07,-213.76 351.97,-217.12 350.46,-211.84 350.46,-211.84"/>
</a>
</g>
</g>
<!-- Node7 -->
<g id="Node000007" class="node">
<title>Node7</title>
<g id="a_Node000007"><a xlink:href="../../d7/d1a/deck__list_8h.html" target="_top" xlink:title=" ">
<polygon fill="white" stroke="#666666" points="503,-217 399,-217 399,-187 503,-187 503,-217"/>
<text text-anchor="start" x="407" y="-205" font-family="Helvetica,sans-Serif" font-size="10.00">libcockatrice/deck</text>
<text text-anchor="middle" x="451" y="-194" font-family="Helvetica,sans-Serif" font-size="10.00">_list/deck_list.h</text>
</a>
</g>
</g>
<!-- Node3&#45;&gt;Node7 -->
<g id="edge6_Node000003_Node000007" class="edge">
<title>Node3&#45;&gt;Node7</title>
<g id="a_edge6_Node000003_Node000007"><a xlink:title=" ">
<path fill="none" stroke="#63b8ff" d="M408.98,-252.8C416.88,-243.43 427.3,-231.09 435.78,-221.03"/>
<polygon fill="#63b8ff" stroke="#63b8ff" points="439.05,-217.16 437.54,-222.44 437.44,-219.07 435.82,-220.99 435.82,-220.99 435.82,-220.99 437.44,-219.07 434.11,-219.53 439.05,-217.16 439.05,-217.16"/>
</a>
</g>
</g>
<!-- Node8 -->
<g id="Node000008" class="node">
<title>Node8</title>
<g id="a_Node000008"><a xlink:href="../../d9/d65/inner__deck__list__node_8h.html" target="_top" xlink:title="Defines the InnerDecklistNode class, which represents structural nodes (zones and groups) in the deck...">
<polygon fill="white" stroke="#666666" points="340,-145.5 212,-145.5 212,-126.5 340,-126.5 340,-145.5"/>
<text text-anchor="middle" x="276" y="-133.5" font-family="Helvetica,sans-Serif" font-size="10.00">inner_deck_list_node.h</text>
</a>
</g>
</g>
<!-- Node7&#45;&gt;Node8 -->
<g id="edge7_Node000007_Node000008" class="edge">
<title>Node7&#45;&gt;Node8</title>
<g id="a_edge7_Node000007_Node000008"><a xlink:title=" ">
<path fill="none" stroke="#63b8ff" d="M412.6,-186.95C379.88,-174.99 333.62,-158.07 304.22,-147.32"/>
<polygon fill="#63b8ff" stroke="#63b8ff" points="299.29,-145.52 304.76,-145.12 301.64,-146.38 303.99,-147.23 303.99,-147.23 303.99,-147.23 301.64,-146.38 303.21,-149.35 299.29,-145.52 299.29,-145.52"/>
</a>
</g>
</g>
<!-- Node10 -->
<g id="Node000010" class="node">
<title>Node10</title>
<g id="a_Node000010"><a xlink:title=" ">
<polygon fill="#e0e0e0" stroke="#999999" points="264,-19 114,-19 114,0 264,0 264,-19"/>
<text text-anchor="middle" x="189" y="-7" font-family="Helvetica,sans-Serif" font-size="10.00">QtCore/QXmlStreamReader</text>
</a>
</g>
</g>
<!-- Node7&#45;&gt;Node10 -->
<g id="edge13_Node000007_Node000010" class="edge">
<title>Node7&#45;&gt;Node10</title>
<g id="a_edge13_Node000007_Node000010"><a xlink:title=" ">
<path fill="none" stroke="#63b8ff" d="M398.78,-188.89C395.81,-188.24 392.87,-187.61 390,-187 307.19,-169.53 260.07,-213.5 203,-151 170.61,-115.53 179.6,-52.05 185.6,-24.22"/>
<polygon fill="#63b8ff" stroke="#63b8ff" points="186.75,-19.14 187.84,-24.52 186.2,-21.58 185.65,-24.02 185.65,-24.02 185.65,-24.02 186.2,-21.58 183.45,-23.52 186.75,-19.14 186.75,-19.14"/>
</a>
</g>
</g>
<!-- Node11 -->
<g id="Node000011" class="node">
<title>Node11</title>
<g id="a_Node000011"><a xlink:title=" ">
<polygon fill="#e0e0e0" stroke="#999999" points="437,-19 291,-19 291,0 437,0 437,-19"/>
<text text-anchor="middle" x="364" y="-7" font-family="Helvetica,sans-Serif" font-size="10.00">QtCore/QXmlStreamWriter</text>
</a>
</g>
</g>
<!-- Node7&#45;&gt;Node11 -->
<g id="edge14_Node000007_Node000011" class="edge">
<title>Node7&#45;&gt;Node11</title>
<g id="a_edge14_Node000007_Node000011"><a xlink:title=" ">
<path fill="none" stroke="#63b8ff" d="M424.61,-186.83C411.21,-178.24 395.91,-166.04 387,-151 362.65,-109.91 361.96,-50.79 363.08,-24.28"/>
<polygon fill="#63b8ff" stroke="#63b8ff" points="363.34,-19.13 365.33,-24.24 363.21,-21.63 363.09,-24.13 363.09,-24.13 363.09,-24.13 363.21,-21.63 360.84,-24.01 363.34,-19.13 363.34,-19.13"/>
</a>
</g>
</g>
<!-- Node12 -->
<g id="Node000012" class="node">
<title>Node12</title>
<g id="a_Node000012"><a xlink:title=" ">
<polygon fill="#e0e0e0" stroke="#999999" points="569.5,-145.5 524.5,-145.5 524.5,-126.5 569.5,-126.5 569.5,-145.5"/>
<text text-anchor="middle" x="547" y="-133.5" font-family="Helvetica,sans-Serif" font-size="10.00">QMap</text>
</a>
</g>
</g>
<!-- Node7&#45;&gt;Node12 -->
<g id="edge11_Node000007_Node000012" class="edge">
<title>Node7&#45;&gt;Node12</title>
<g id="a_edge11_Node000007_Node000012"><a xlink:title=" ">
<path fill="none" stroke="#63b8ff" d="M472.31,-186.8C489.57,-175.28 513.6,-159.27 529.7,-148.54"/>
<polygon fill="#63b8ff" stroke="#63b8ff" points="534.01,-145.66 531.1,-150.3 531.93,-147.05 529.85,-148.43 529.85,-148.43 529.85,-148.43 531.93,-147.05 528.6,-146.56 534.01,-145.66 534.01,-145.66"/>
</a>
</g>
</g>
<!-- Node7&#45;&gt;Node13 -->
<g id="edge12_Node000007_Node000013" class="edge">
<title>Node7&#45;&gt;Node13</title>
<g id="a_edge12_Node000007_Node000013"><a xlink:title=" ">
<path fill="none" stroke="#63b8ff" d="M486.99,-186.95C517.53,-175.04 560.65,-158.21 588.21,-147.45"/>
<polygon fill="#63b8ff" stroke="#63b8ff" points="593.17,-145.52 589.33,-149.43 590.85,-146.43 588.52,-147.34 588.52,-147.34 588.52,-147.34 590.85,-146.43 587.7,-145.24 593.17,-145.52 593.17,-145.52"/>
</a>
</g>
</g>
<!-- Node14 -->
<g id="Node000014" class="node">
<title>Node14</title>
<g id="a_Node000014"><a xlink:title=" ">
<polygon fill="#e0e0e0" stroke="#999999" points="156,-151 0,-151 0,-121 156,-121 156,-151"/>
<text text-anchor="start" x="8" y="-139" font-family="Helvetica,sans-Serif" font-size="10.00">libcockatrice/protocol</text>
<text text-anchor="middle" x="78" y="-128" font-family="Helvetica,sans-Serif" font-size="10.00">/pb/move_card_to_zone.pb.h</text>
</a>
</g>
</g>
<!-- Node7&#45;&gt;Node14 -->
<g id="edge15_Node000007_Node000014" class="edge">
<title>Node7&#45;&gt;Node14</title>
<g id="a_edge15_Node000007_Node000014"><a xlink:title=" ">
<path fill="none" stroke="#63b8ff" d="M398.81,-188.78C395.83,-188.16 392.88,-187.56 390,-187 347.39,-178.71 238.2,-161.55 161.06,-149.67"/>
<polygon fill="#63b8ff" stroke="#63b8ff" points="156.02,-148.89 161.31,-147.43 158.49,-149.27 160.96,-149.66 160.96,-149.66 160.96,-149.66 158.49,-149.27 160.62,-151.88 156.02,-148.89 156.02,-148.89"/>
</a>
</g>
</g>
<!-- Node15 -->
<g id="Node000015" class="node">
<title>Node15</title>
<g id="a_Node000015"><a xlink:href="../../dc/d89/card__ref_8h.html" target="_top" xlink:title=" ">
<polygon fill="white" stroke="#666666" points="506,-151 396,-151 396,-121 506,-121 506,-151"/>
<text text-anchor="start" x="404" y="-139" font-family="Helvetica,sans-Serif" font-size="10.00">libcockatrice/utility</text>
<text text-anchor="middle" x="451" y="-128" font-family="Helvetica,sans-Serif" font-size="10.00">/card_ref.h</text>
</a>
</g>
</g>
<!-- Node7&#45;&gt;Node15 -->
<g id="edge16_Node000007_Node000015" class="edge">
<title>Node7&#45;&gt;Node15</title>
<g id="a_edge16_Node000007_Node000015"><a xlink:title=" ">
<path fill="none" stroke="#63b8ff" d="M451,-186.8C451,-177.85 451,-166.18 451,-156.38"/>
<polygon fill="#63b8ff" stroke="#63b8ff" points="451,-151.16 453.25,-156.16 451,-153.66 451,-156.16 451,-156.16 451,-156.16 451,-153.66 448.75,-156.16 451,-151.16 451,-151.16"/>
</a>
</g>
</g>
<!-- Node9 -->
<g id="Node000009" class="node">
<title>Node9</title>
<g id="a_Node000009"><a xlink:href="../../d8/d7d/abstract__deck__list__node_8h.html" target="_top" xlink:title="Defines the AbstractDecklistNode base class used as the foundation for all nodes in the deck list tre...">
<polygon fill="white" stroke="#666666" points="328.5,-85 223.5,-85 223.5,-55 328.5,-55 328.5,-85"/>
<text text-anchor="start" x="231.5" y="-73" font-family="Helvetica,sans-Serif" font-size="10.00">abstract_deck_list</text>
<text text-anchor="middle" x="276" y="-62" font-family="Helvetica,sans-Serif" font-size="10.00">_node.h</text>
</a>
</g>
</g>
<!-- Node8&#45;&gt;Node9 -->
<g id="edge8_Node000008_Node000009" class="edge">
<title>Node8&#45;&gt;Node9</title>
<g id="a_edge8_Node000008_Node000009"><a xlink:title=" ">
<path fill="none" stroke="#63b8ff" d="M276,-126.37C276,-117.26 276,-102.58 276,-90.63"/>
<polygon fill="#63b8ff" stroke="#63b8ff" points="276,-85.36 278.25,-90.36 276,-87.86 276,-90.36 276,-90.36 276,-90.36 276,-87.86 273.75,-90.36 276,-85.36 276,-85.36"/>
</a>
</g>
</g>
<!-- Node9&#45;&gt;Node10 -->
<g id="edge9_Node000009_Node000010" class="edge">
<title>Node9&#45;&gt;Node10</title>
<g id="a_edge9_Node000009_Node000010"><a xlink:title=" ">
<path fill="none" stroke="#63b8ff" d="M254.94,-54.84C240.03,-44.81 220.28,-31.53 206.29,-22.13"/>
<polygon fill="#63b8ff" stroke="#63b8ff" points="201.78,-19.09 207.19,-20.02 203.86,-20.49 205.93,-21.88 205.93,-21.88 205.93,-21.88 203.86,-20.49 204.68,-23.75 201.78,-19.09 201.78,-19.09"/>
</a>
</g>
</g>
<!-- Node9&#45;&gt;Node11 -->
<g id="edge10_Node000009_Node000011" class="edge">
<title>Node9&#45;&gt;Node11</title>
<g id="a_edge10_Node000009_Node000011"><a xlink:title=" ">
<path fill="none" stroke="#63b8ff" d="M297.3,-54.84C312.51,-44.73 332.71,-31.3 346.88,-21.88"/>
<polygon fill="#63b8ff" stroke="#63b8ff" points="351.07,-19.09 348.15,-23.74 348.99,-20.48 346.91,-21.86 346.91,-21.86 346.91,-21.86 348.99,-20.48 345.66,-19.99 351.07,-19.09 351.07,-19.09"/>
</a>
</g>
</g>
<!-- Node15&#45;&gt;Node16 -->
<g id="edge17_Node000015_Node000016" class="edge">
<title>Node15&#45;&gt;Node16</title>
<g id="a_edge17_Node000015_Node000016"><a xlink:title=" ">
<path fill="none" stroke="#63b8ff" d="M475.14,-120.95C495.2,-109.29 523.35,-92.91 541.87,-82.13"/>
<polygon fill="#63b8ff" stroke="#63b8ff" points="546.36,-79.52 543.17,-83.98 544.2,-80.77 542.04,-82.03 542.04,-82.03 542.04,-82.03 544.2,-80.77 540.91,-80.09 546.36,-79.52 546.36,-79.52"/>
</a>
</g>
</g>
</g>
</svg>

<g id="navigator" transform="translate(0 0)" fill="#404254">
  <rect fill="#f2f5e9" fill-opacity="0.5" stroke="#606060" stroke-width=".5" x="0" y="0" width="60" height="60"/>
  <use id="zoomplus" xlink:href="#zoomPlus" x="17" y="9" onmousedown="handleZoom(evt,'in')"/>
  <use id="zoomminus" xlink:href="#zoomMin" x="42" y="9" onmousedown="handleZoom(evt,'out')"/>
  <use id="reset" xlink:href="#resetDef" x="30" y="36" onmousedown="handleReset()"/>
   <use id="arrowup" xlink:href="#arrowUp" x="0" y="0" onmousedown="handlePan(0,-1)"/>
  <use id="arrowright" xlink:href="#arrowRight" x="0" y="0" onmousedown="handlePan(1,0)"/>
  <use id="arrowdown" xlink:href="#arrowDown" x="0" y="0" onmousedown="handlePan(0,1)"/>
  <use id="arrowleft" xlink:href="#arrowLeft" x="0" y="0" onmousedown="handlePan(-1,0)"/>
</g>
<svg viewBox="0 0 15 15" width="100%" height="30px" preserveAspectRatio="xMaxYMin meet">
 <g id="arrow_out" transform="scale(0.3 0.3)">
  <a xlink:href="edhrec__deck__api__response_8cpp__incl_org.svg" target="_base">
   <rect id="button" ry="5" rx="5" y="6" x="6" height="38" width="38"
        fill="#f2f5e9" fill-opacity="0.5" stroke="#606060" stroke-width="1.0"/>
   <path id="arrow"
     d="M 11.500037,31.436501 C 11.940474,20.09759 22.043105,11.32322 32.158766,21.979434 L 37.068811,17.246167 C 37.068811,17.246167 37.088388,32 37.088388,32 L 22.160133,31.978069 C 22.160133,31.978069 26.997745,27.140456 26.997745,27.140456 C 18.528582,18.264221 13.291696,25.230495 11.500037,31.436501 z"
     style="fill:#404040;"/>
  </a>
 </g>
</svg>

<style type='text/css'>
<![CDATA[
[data-mouse-over-selected='false'] { opacity: 0.7; }
[data-mouse-over-selected='true']  { opacity: 1.0; }
]]>
</style>
<script type="application/ecmascript"><![CDATA[
document.addEventListener('DOMContentLoaded', (event) => {
  highlightEdges();
  highlightAdjacentNodes();
});
]]></script>
</svg>
