<?xml version="1.0" encoding="UTF-8" standalone="no"?>
<!DOCTYPE svg PUBLIC "-//W3C//DTD SVG 1.1//EN"
 "http://www.w3.org/Graphics/SVG/1.1/DTD/svg11.dtd">
<!-- Generated by graphviz version 2.43.0 (0)
 -->
<!-- Title: AnalyticsPanelWidgetFactory::AnalyticsPanelWidgetFactory Pages: 1 -->
<svg width="901pt" height="225pt"
 viewBox="0.00 0.00 901.00 225.00" xmlns="http://www.w3.org/2000/svg" xmlns:xlink="http://www.w3.org/1999/xlink">
<g id="graph0" class="graph" transform="scale(1 1) rotate(0) translate(4 221)">
<title>AnalyticsPanelWidgetFactory::AnalyticsPanelWidgetFactory</title>
<!-- Node1 -->
<g id="Node000001" class="node">
<title>Node1</title>
<g id="a_Node000001"><a xlink:title=" ">
<polygon fill="#999999" stroke="#666666" points="893,-121 729,-121 729,-91 893,-91 893,-121"/>
<text text-anchor="start" x="737" y="-109" font-family="Helvetica,sans-Serif" font-size="10.00">AnalyticsPanelWidgetFactory</text>
<text text-anchor="middle" x="811" y="-98" font-family="Helvetica,sans-Serif" font-size="10.00">::AnalyticsPanelWidgetFactory</text>
</a>
</g>
</g>
<!-- Node2 -->
<g id="Node000002" class="node">
<title>Node2</title>
<g id="a_Node000002"><a xlink:href="../../d2/df2/classAnalyticsPanelWidgetFactory.html#ae958fa0f1521e7d6de0c2db6d7fab3ae" target="_top" xlink:title=" ">
<polygon fill="white" stroke="#666666" points="693,-169 529,-169 529,-139 693,-139 693,-169"/>
<text text-anchor="start" x="537" y="-157" font-family="Helvetica,sans-Serif" font-size="10.00">AnalyticsPanelWidgetFactory</text>
<text text-anchor="middle" x="611" y="-146" font-family="Helvetica,sans-Serif" font-size="10.00">::AnalyticsPanelWidgetFactory</text>
</a>
</g>
</g>
<!-- Node1&#45;&gt;Node2 -->
<g id="edge1_Node000001_Node000002" class="edge">
<title>Node1&#45;&gt;Node2</title>
<g id="a_edge1_Node000001_Node000002"><a xlink:title=" ">
<path fill="none" stroke="#63b8ff" d="M742.87,-122.27C720.55,-127.69 695.8,-133.69 673.88,-139"/>
<polygon fill="#63b8ff" stroke="#63b8ff" points="747.89,-121.06 743.57,-124.42 745.47,-121.64 743.04,-122.23 743.04,-122.23 743.04,-122.23 745.47,-121.64 742.51,-120.05 747.89,-121.06 747.89,-121.06"/>
</a>
</g>
</g>
<!-- Node3 -->
<g id="Node000003" class="node">
<title>Node3</title>
<g id="a_Node000003"><a xlink:href="../../d2/df2/classAnalyticsPanelWidgetFactory.html#a88ea7fbbca4da5a6cf976a5f07462ed9" target="_top" xlink:title=" ">
<polygon fill="white" stroke="#666666" points="690,-121 532,-121 532,-91 690,-91 690,-121"/>
<text text-anchor="start" x="540" y="-109" font-family="Helvetica,sans-Serif" font-size="10.00">AnalyticsPanelWidgetFactory</text>
<text text-anchor="middle" x="611" y="-98" font-family="Helvetica,sans-Serif" font-size="10.00">::instance</text>
</a>
</g>
</g>
<!-- Node1&#45;&gt;Node3 -->
<g id="edge2_Node000001_Node000003" class="edge">
<title>Node1&#45;&gt;Node3</title>
<g id="a_edge2_Node000001_Node000003"><a xlink:title=" ">
<path fill="none" stroke="#63b8ff" d="M723.77,-106C712.57,-106 701.16,-106 690.1,-106"/>
<polygon fill="#63b8ff" stroke="#63b8ff" points="728.89,-106 723.89,-108.25 726.39,-106 723.89,-106 723.89,-106 723.89,-106 726.39,-106 723.89,-103.75 728.89,-106 728.89,-106"/>
</a>
</g>
</g>
<!-- Node11 -->
<g id="Node000011" class="node">
<title>Node11</title>
<g id="a_Node000011"><a xlink:href="../../d2/df2/classAnalyticsPanelWidgetFactory.html#a86e749603011cf92b488940a90235876" target="_top" xlink:title=" ">
<polygon fill="white" stroke="#666666" points="690,-73 532,-73 532,-43 690,-43 690,-73"/>
<text text-anchor="start" x="540" y="-61" font-family="Helvetica,sans-Serif" font-size="10.00">AnalyticsPanelWidgetFactory</text>
<text text-anchor="middle" x="611" y="-50" font-family="Helvetica,sans-Serif" font-size="10.00">::operator=</text>
</a>
</g>
</g>
<!-- Node1&#45;&gt;Node11 -->
<g id="edge12_Node000001_Node000011" class="edge">
<title>Node1&#45;&gt;Node11</title>
<g id="a_edge12_Node000001_Node000011"><a xlink:title=" ">
<path fill="none" stroke="#63b8ff" d="M742.87,-89.73C720.55,-84.31 695.8,-78.31 673.88,-73"/>
<polygon fill="#63b8ff" stroke="#63b8ff" points="747.89,-90.94 742.51,-91.95 745.47,-90.36 743.04,-89.77 743.04,-89.77 743.04,-89.77 745.47,-90.36 743.57,-87.58 747.89,-90.94 747.89,-90.94"/>
</a>
</g>
</g>
<!-- Node4 -->
<g id="Node000004" class="node">
<title>Node4</title>
<g id="a_Node000004"><a xlink:href="../../d3/d15/classAddAnalyticsPanelDialog.html#a15abf390a40e9e564def0cf2d07365c4" target="_top" xlink:title=" ">
<polygon fill="white" stroke="#666666" points="478.5,-217 334.5,-217 334.5,-187 478.5,-187 478.5,-217"/>
<text text-anchor="start" x="342.5" y="-205" font-family="Helvetica,sans-Serif" font-size="10.00">AddAnalyticsPanelDialog</text>
<text text-anchor="middle" x="406.5" y="-194" font-family="Helvetica,sans-Serif" font-size="10.00">::AddAnalyticsPanelDialog</text>
</a>
</g>
</g>
<!-- Node3&#45;&gt;Node4 -->
<g id="edge3_Node000003_Node000004" class="edge">
<title>Node3&#45;&gt;Node4</title>
<g id="a_edge3_Node000003_Node000004"><a xlink:title=" ">
<path fill="none" stroke="#63b8ff" d="M540.31,-123.32C536.35,-125.31 532.55,-127.53 529,-130 507.11,-145.23 515,-162.93 493,-178 488.04,-181.4 482.61,-184.32 476.96,-186.82"/>
<polygon fill="#63b8ff" stroke="#63b8ff" points="545.01,-121.09 541.46,-125.26 542.76,-122.16 540.5,-123.23 540.5,-123.23 540.5,-123.23 542.76,-122.16 539.53,-121.2 545.01,-121.09 545.01,-121.09"/>
</a>
</g>
</g>
<!-- Node5 -->
<g id="Node000005" class="node">
<title>Node5</title>
<g id="a_Node000005"><a xlink:href="../../d4/d77/classDeckAnalyticsWidget.html#a9c31eac0b5a80986d622e6ce4e7910a8" target="_top" xlink:title=" ">
<polygon fill="white" stroke="#666666" points="467,-169 346,-169 346,-139 467,-139 467,-169"/>
<text text-anchor="start" x="354" y="-157" font-family="Helvetica,sans-Serif" font-size="10.00">DeckAnalyticsWidget</text>
<text text-anchor="middle" x="406.5" y="-146" font-family="Helvetica,sans-Serif" font-size="10.00">::addDefaultPanels</text>
</a>
</g>
</g>
<!-- Node3&#45;&gt;Node5 -->
<g id="edge4_Node000003_Node000005" class="edge">
<title>Node3&#45;&gt;Node5</title>
<g id="a_edge4_Node000003_Node000005"><a xlink:title=" ">
<path fill="none" stroke="#63b8ff" d="M541.4,-122.26C517.37,-127.96 490.59,-134.3 467.34,-139.82"/>
<polygon fill="#63b8ff" stroke="#63b8ff" points="546.48,-121.06 542.14,-124.4 544.05,-121.63 541.62,-122.21 541.62,-122.21 541.62,-122.21 544.05,-121.63 541.1,-120.02 546.48,-121.06 546.48,-121.06"/>
</a>
</g>
</g>
<!-- Node8 -->
<g id="Node000008" class="node">
<title>Node8</title>
<g id="a_Node000008"><a xlink:href="../../d3/d5b/classAnalyticsPanelWidgetRegistrar.html#ad0a9f989b8c04c197b557b8ddaa6f145" target="_top" xlink:title=" ">
<polygon fill="white" stroke="#666666" points="493,-121 320,-121 320,-91 493,-91 493,-121"/>
<text text-anchor="start" x="328" y="-109" font-family="Helvetica,sans-Serif" font-size="10.00">AnalyticsPanelWidgetRegistrar</text>
<text text-anchor="middle" x="406.5" y="-98" font-family="Helvetica,sans-Serif" font-size="10.00">::AnalyticsPanelWidgetRegistrar</text>
</a>
</g>
</g>
<!-- Node3&#45;&gt;Node8 -->
<g id="edge7_Node000003_Node000008" class="edge">
<title>Node3&#45;&gt;Node8</title>
<g id="a_edge7_Node000003_Node000008"><a xlink:title=" ">
<path fill="none" stroke="#63b8ff" d="M526.91,-106C515.79,-106 504.37,-106 493.21,-106"/>
<polygon fill="#63b8ff" stroke="#63b8ff" points="532,-106 527,-108.25 529.5,-106 527,-106 527,-106 527,-106 529.5,-106 527,-103.75 532,-106 532,-106"/>
</a>
</g>
</g>
<!-- Node9 -->
<g id="Node000009" class="node">
<title>Node9</title>
<g id="a_Node000009"><a xlink:href="../../d4/d77/classDeckAnalyticsWidget.html#a7ebef514b68c9d4738265a92f29cf5d6" target="_top" xlink:title=" ">
<polygon fill="white" stroke="#666666" points="467,-73 346,-73 346,-43 467,-43 467,-73"/>
<text text-anchor="start" x="354" y="-61" font-family="Helvetica,sans-Serif" font-size="10.00">DeckAnalyticsWidget</text>
<text text-anchor="middle" x="406.5" y="-50" font-family="Helvetica,sans-Serif" font-size="10.00">::loadLayoutInternal</text>
</a>
</g>
</g>
<!-- Node3&#45;&gt;Node9 -->
<g id="edge8_Node000003_Node000009" class="edge">
<title>Node3&#45;&gt;Node9</title>
<g id="a_edge8_Node000003_Node000009"><a xlink:title=" ">
<path fill="none" stroke="#63b8ff" d="M541.4,-89.74C517.37,-84.04 490.59,-77.7 467.34,-72.18"/>
<polygon fill="#63b8ff" stroke="#63b8ff" points="546.48,-90.94 541.1,-91.98 544.05,-90.37 541.62,-89.79 541.62,-89.79 541.62,-89.79 544.05,-90.37 542.14,-87.6 546.48,-90.94 546.48,-90.94"/>
</a>
</g>
</g>
<!-- Node10 -->
<g id="Node000010" class="node">
<title>Node10</title>
<g id="a_Node000010"><a xlink:href="../../d4/d77/classDeckAnalyticsWidget.html#a419daf0651e185dd932c23abd9ab489e" target="_top" xlink:title=" ">
<polygon fill="white" stroke="#666666" points="284,-30 163,-30 163,0 284,0 284,-30"/>
<text text-anchor="start" x="171" y="-18" font-family="Helvetica,sans-Serif" font-size="10.00">DeckAnalyticsWidget</text>
<text text-anchor="middle" x="223.5" y="-7" font-family="Helvetica,sans-Serif" font-size="10.00">::onAddPanel</text>
</a>
</g>
</g>
<!-- Node3&#45;&gt;Node10 -->
<g id="edge10_Node000003_Node000010" class="edge">
<title>Node3&#45;&gt;Node10</title>
<g id="a_edge10_Node000003_Node000010"><a xlink:title=" ">
<path fill="none" stroke="#63b8ff" d="M540.31,-88.68C536.35,-86.69 532.55,-84.47 529,-82 507.11,-66.77 516.42,-46.76 493,-34 428.27,1.28 341.36,0.29 284.19,-5.66"/>
<polygon fill="#63b8ff" stroke="#63b8ff" points="545.01,-90.91 539.53,-90.8 542.76,-89.84 540.5,-88.77 540.5,-88.77 540.5,-88.77 542.76,-89.84 541.46,-86.74 545.01,-90.91 545.01,-90.91"/>
</a>
</g>
</g>
<!-- Node6 -->
<g id="Node000006" class="node">
<title>Node6</title>
<g id="a_Node000006"><a xlink:href="../../d4/d77/classDeckAnalyticsWidget.html#a69d5b24ded4a1bb10a66d933afdfe29f" target="_top" xlink:title=" ">
<polygon fill="white" stroke="#666666" points="284,-78 163,-78 163,-48 284,-48 284,-78"/>
<text text-anchor="start" x="171" y="-66" font-family="Helvetica,sans-Serif" font-size="10.00">DeckAnalyticsWidget</text>
<text text-anchor="middle" x="223.5" y="-55" font-family="Helvetica,sans-Serif" font-size="10.00">::loadLayout</text>
</a>
</g>
</g>
<!-- Node5&#45;&gt;Node6 -->
<g id="edge5_Node000005_Node000006" class="edge">
<title>Node5&#45;&gt;Node6</title>
<g id="a_edge5_Node000005_Node000006"><a xlink:title=" ">
<path fill="none" stroke="#63b8ff" d="M340.74,-138.36C333.61,-135.89 326.57,-133.11 320,-130 290.54,-116.03 260.36,-93.13 242.02,-78.06"/>
<polygon fill="#63b8ff" stroke="#63b8ff" points="345.68,-140.01 340.22,-140.56 343.31,-139.22 340.94,-138.42 340.94,-138.42 340.94,-138.42 343.31,-139.22 341.65,-136.29 345.68,-140.01 345.68,-140.01"/>
</a>
</g>
</g>
<!-- Node7 -->
<g id="Node000007" class="node">
<title>Node7</title>
<g id="a_Node000007"><a xlink:href="../../d4/d77/classDeckAnalyticsWidget.html#abe5eca714d7a9719e2635a6c6aaca0db" target="_top" xlink:title=" ">
<polygon fill="white" stroke="#666666" points="127,-54 0,-54 0,-24 127,-24 127,-54"/>
<text text-anchor="start" x="8" y="-42" font-family="Helvetica,sans-Serif" font-size="10.00">DeckAnalyticsWidget</text>
<text text-anchor="middle" x="63.5" y="-31" font-family="Helvetica,sans-Serif" font-size="10.00">::DeckAnalyticsWidget</text>
</a>
</g>
</g>
<!-- Node6&#45;&gt;Node7 -->
<g id="edge6_Node000006_Node000007" class="edge">
<title>Node6&#45;&gt;Node7</title>
<g id="a_edge6_Node000006_Node000007"><a xlink:title=" ">
<path fill="none" stroke="#63b8ff" d="M157.56,-53.14C147.53,-51.61 137.19,-50.04 127.21,-48.53"/>
<polygon fill="#63b8ff" stroke="#63b8ff" points="162.77,-53.93 157.49,-55.4 160.3,-53.55 157.82,-53.18 157.82,-53.18 157.82,-53.18 160.3,-53.55 158.16,-50.95 162.77,-53.93 162.77,-53.93"/>
</a>
</g>
</g>
<!-- Node9&#45;&gt;Node6 -->
<g id="edge9_Node000009_Node000006" class="edge">
<title>Node9&#45;&gt;Node6</title>
<g id="a_edge9_Node000009_Node000006"><a xlink:title=" ">
<path fill="none" stroke="#63b8ff" d="M340.81,-59.79C322.31,-60.3 302.23,-60.85 284.05,-61.35"/>
<polygon fill="#63b8ff" stroke="#63b8ff" points="345.98,-59.64 341.05,-62.03 343.48,-59.71 340.99,-59.78 340.99,-59.78 340.99,-59.78 343.48,-59.71 340.92,-57.53 345.98,-59.64 345.98,-59.64"/>
</a>
</g>
</g>
<!-- Node10&#45;&gt;Node7 -->
<g id="edge11_Node000010_Node000007" class="edge">
<title>Node10&#45;&gt;Node7</title>
<g id="a_edge11_Node000010_Node000007"><a xlink:title=" ">
<path fill="none" stroke="#63b8ff" d="M157.56,-24.86C147.53,-26.39 137.19,-27.96 127.21,-29.47"/>
<polygon fill="#63b8ff" stroke="#63b8ff" points="162.77,-24.07 158.16,-27.05 160.3,-24.45 157.82,-24.82 157.82,-24.82 157.82,-24.82 160.3,-24.45 157.49,-22.6 162.77,-24.07 162.77,-24.07"/>
</a>
</g>
</g>
</g>
</svg>
