<?xml version="1.0" encoding="UTF-8" standalone="no"?>
<!DOCTYPE svg PUBLIC "-//W3C//DTD SVG 1.1//EN"
 "http://www.w3.org/Graphics/SVG/1.1/DTD/svg11.dtd">
<!-- Generated by graphviz version 2.43.0 (0)
 -->
<!-- Title: FilterDisplayWidget::FilterDisplayWidget Pages: 1 -->
<svg width="471pt" height="161pt"
 viewBox="0.00 0.00 471.00 161.00" xmlns="http://www.w3.org/2000/svg" xmlns:xlink="http://www.w3.org/1999/xlink">

<svg id="main" version="1.1" xmlns="http://www.w3.org/2000/svg" xmlns:xlink="http://www.w3.org/1999/xlink" xml:space="preserve" onload="init(evt)">
<style type="text/css"><![CDATA[
.node, .edge {opacity: 0.7;}
.node.selected, .edge.selected {opacity: 1;}
.edge:hover path { stroke: red; }
.edge:hover polygon { stroke: red; fill: red; }
]]></style>
<script type="application/ecmascript" xlink:href="../../svg.min.js"/>
<svg id="graph" class="graph">
<g id="graph0" class="graph" transform="scale(1 1) rotate(0) translate(4 157)">
<title>FilterDisplayWidget::FilterDisplayWidget</title>
<!-- Node1 -->
<g id="Node000001" class="node">
<title>Node1</title>
<g id="a_Node000001"><a xlink:title=" ">
<polygon fill="#999999" stroke="#666666" points="119,-70 0,-70 0,-40 119,-40 119,-70"/>
<text text-anchor="start" x="8" y="-58" font-family="Helvetica,sans-Serif" font-size="10.00">FilterDisplayWidget</text>
<text text-anchor="middle" x="59.5" y="-47" font-family="Helvetica,sans-Serif" font-size="10.00">::FilterDisplayWidget</text>
</a>
</g>
</g>
<!-- Node2 -->
<g id="Node000002" class="node">
<title>Node2</title>
<g id="a_Node000002"><a xlink:href="../../d9/ddf/classFilterDisplayWidget.html#a440ca09ac97d3019a4a7cf5e39818d3b" target="_top" xlink:title=" ">
<polygon fill="white" stroke="#666666" points="268,-102 155,-102 155,-72 268,-72 268,-102"/>
<text text-anchor="start" x="163" y="-90" font-family="Helvetica,sans-Serif" font-size="10.00">FilterDisplayWidget</text>
<text text-anchor="middle" x="211.5" y="-79" font-family="Helvetica,sans-Serif" font-size="10.00">::deleteFilter</text>
</a>
</g>
</g>
<!-- Node1&#45;&gt;Node2 -->
<g id="edge1_Node000001_Node000002" class="edge">
<title>Node1&#45;&gt;Node2</title>
<g id="a_edge1_Node000001_Node000002"><a xlink:title=" ">
<path fill="none" stroke="#63b8ff" d="M119.35,-67.56C129.37,-69.69 139.79,-71.91 149.85,-74.06"/>
<polygon fill="#63b8ff" stroke="#63b8ff" points="154.76,-75.11 149.4,-76.27 152.31,-74.59 149.87,-74.06 149.87,-74.06 149.87,-74.06 152.31,-74.59 150.34,-71.86 154.76,-75.11 154.76,-75.11"/>
</a>
</g>
</g>
<!-- Node6 -->
<g id="Node000006" class="node">
<title>Node6</title>
<g id="a_Node000006"><a xlink:href="../../d9/ddf/classFilterDisplayWidget.html#a2c97e4e7018142ad8243041b14e0c8ee" target="_top" xlink:title=" ">
<polygon fill="white" stroke="#666666" points="268,-46 155,-46 155,-16 268,-16 268,-46"/>
<text text-anchor="start" x="163" y="-34" font-family="Helvetica,sans-Serif" font-size="10.00">FilterDisplayWidget</text>
<text text-anchor="middle" x="211.5" y="-23" font-family="Helvetica,sans-Serif" font-size="10.00">::loadFilter</text>
</a>
</g>
</g>
<!-- Node1&#45;&gt;Node6 -->
<g id="edge5_Node000001_Node000006" class="edge">
<title>Node1&#45;&gt;Node6</title>
<g id="a_edge5_Node000001_Node000006"><a xlink:title=" ">
<path fill="none" stroke="#63b8ff" d="M119.35,-45.58C129.28,-44 139.6,-42.34 149.58,-40.75"/>
<polygon fill="#63b8ff" stroke="#63b8ff" points="154.76,-39.92 150.18,-42.93 152.29,-40.31 149.82,-40.71 149.82,-40.71 149.82,-40.71 152.29,-40.31 149.46,-38.49 154.76,-39.92 154.76,-39.92"/>
</a>
</g>
</g>
<!-- Node3 -->
<g id="Node000003" class="node">
<title>Node3</title>
<g id="a_Node000003"><a xlink:href="../../d9/ddf/classFilterDisplayWidget.html#a6a6709c60c1c744d93b99f06d77d4239" target="_top" xlink:title=" ">
<polygon fill="white" stroke="#666666" points="440,-153 327,-153 327,-123 440,-123 440,-153"/>
<text text-anchor="start" x="335" y="-141" font-family="Helvetica,sans-Serif" font-size="10.00">FilterDisplayWidget</text>
<text text-anchor="middle" x="383.5" y="-130" font-family="Helvetica,sans-Serif" font-size="10.00">::filterDeleted</text>
</a>
</g>
</g>
<!-- Node2&#45;&gt;Node3 -->
<g id="edge2_Node000002_Node000003" class="edge">
<title>Node2&#45;&gt;Node3</title>
<g id="a_edge2_Node000002_Node000003"><a xlink:title=" ">
<path fill="none" stroke="#63b8ff" d="M262.59,-102.03C282.99,-108.15 306.64,-115.24 327.51,-121.5"/>
<polygon fill="#63b8ff" stroke="#63b8ff" points="332.48,-122.99 327.04,-123.71 330.08,-122.28 327.69,-121.56 327.69,-121.56 327.69,-121.56 330.08,-122.28 328.34,-119.4 332.48,-122.99 332.48,-122.99"/>
</a>
</g>
</g>
<!-- Node4 -->
<g id="Node000004" class="node">
<title>Node4</title>
<g id="a_Node000004"><a xlink:href="../../d5/d88/classSettingsCache.html#a00d98df82d0ecf8b7efd5136c85e4066" target="_top" xlink:title=" ">
<polygon fill="white" stroke="#666666" points="463,-104.5 304,-104.5 304,-85.5 463,-85.5 463,-104.5"/>
<text text-anchor="middle" x="383.5" y="-92.5" font-family="Helvetica,sans-Serif" font-size="10.00">SettingsCache::getFiltersPath</text>
</a>
</g>
</g>
<!-- Node2&#45;&gt;Node4 -->
<g id="edge3_Node000002_Node000004" class="edge">
<title>Node2&#45;&gt;Node4</title>
<g id="a_edge3_Node000002_Node000004"><a xlink:title=" ">
<path fill="none" stroke="#63b8ff" d="M268.16,-89.62C277.98,-90.08 288.4,-90.57 298.79,-91.06"/>
<polygon fill="#63b8ff" stroke="#63b8ff" points="303.88,-91.3 298.78,-93.31 301.39,-91.18 298.89,-91.07 298.89,-91.07 298.89,-91.07 301.39,-91.18 298.99,-88.82 303.88,-91.3 303.88,-91.3"/>
</a>
</g>
</g>
<!-- Node5 -->
<g id="Node000005" class="node">
<title>Node5</title>
<g id="a_Node000005"><a xlink:href="../../d5/d88/classSettingsCache.html#adfa7f9f975919981b992db1fca9e4957" target="_top" xlink:title=" ">
<polygon fill="white" stroke="#666666" points="450.5,-67.5 316.5,-67.5 316.5,-48.5 450.5,-48.5 450.5,-67.5"/>
<text text-anchor="middle" x="383.5" y="-55.5" font-family="Helvetica,sans-Serif" font-size="10.00">SettingsCache::instance</text>
</a>
</g>
</g>
<!-- Node2&#45;&gt;Node5 -->
<g id="edge4_Node000002_Node000005" class="edge">
<title>Node2&#45;&gt;Node5</title>
<g id="a_edge4_Node000002_Node000005"><a xlink:title=" ">
<path fill="none" stroke="#63b8ff" d="M268.16,-77.5C285.19,-74.6 304,-71.39 321.37,-68.43"/>
<polygon fill="#63b8ff" stroke="#63b8ff" points="326.71,-67.52 322.16,-70.58 324.25,-67.94 321.78,-68.36 321.78,-68.36 321.78,-68.36 324.25,-67.94 321.4,-66.14 326.71,-67.52 326.71,-67.52"/>
</a>
</g>
</g>
<!-- Node7 -->
<g id="Node000007" class="node">
<title>Node7</title>
<g id="a_Node000007"><a xlink:href="../../d9/ddf/classFilterDisplayWidget.html#a850e968ca6aa8e9e2994bff9e0bae499" target="_top" xlink:title=" ">
<polygon fill="white" stroke="#666666" points="443.5,-30 323.5,-30 323.5,0 443.5,0 443.5,-30"/>
<text text-anchor="start" x="331.5" y="-18" font-family="Helvetica,sans-Serif" font-size="10.00">FilterDisplayWidget</text>
<text text-anchor="middle" x="383.5" y="-7" font-family="Helvetica,sans-Serif" font-size="10.00">::filterLoadRequested</text>
</a>
</g>
</g>
<!-- Node6&#45;&gt;Node7 -->
<g id="edge6_Node000006_Node000007" class="edge">
<title>Node6&#45;&gt;Node7</title>
<g id="a_edge6_Node000006_Node000007"><a xlink:title=" ">
<path fill="none" stroke="#63b8ff" d="M268.16,-25.76C284.22,-24.25 301.88,-22.59 318.4,-21.03"/>
<polygon fill="#63b8ff" stroke="#63b8ff" points="323.49,-20.55 318.73,-23.26 321,-20.79 318.52,-21.02 318.52,-21.02 318.52,-21.02 321,-20.79 318.3,-18.78 323.49,-20.55 323.49,-20.55"/>
</a>
</g>
</g>
</g>
</svg>
</svg>

<style type='text/css'>
<![CDATA[
[data-mouse-over-selected='false'] { opacity: 0.7; }
[data-mouse-over-selected='true']  { opacity: 1.0; }
]]>
</style>
<script type="application/ecmascript"><![CDATA[
document.addEventListener('DOMContentLoaded', (event) => {
  highlightEdges();
  highlightAdjacentNodes();
});
]]></script>
</svg>
