<?xml version="1.0" encoding="UTF-8" standalone="no"?>
<!DOCTYPE svg PUBLIC "-//W3C//DTD SVG 1.1//EN"
 "http://www.w3.org/Graphics/SVG/1.1/DTD/svg11.dtd">
<!-- Generated by graphviz version 2.43.0 (0)
 -->
<!-- Title: ZoneViewZoneLogic::removeCard Pages: 1 -->
<svg width="964pt" height="324pt"
 viewBox="0.00 0.00 964.00 324.00" xmlns="http://www.w3.org/2000/svg" xmlns:xlink="http://www.w3.org/1999/xlink">
<g id="graph0" class="graph" transform="scale(1 1) rotate(0) translate(4 320)">
<title>ZoneViewZoneLogic::removeCard</title>
<!-- Node1 -->
<g id="Node000001" class="node">
<title>Node1</title>
<g id="a_Node000001"><a xlink:title=" ">
<polygon fill="#999999" stroke="#666666" points="122,-163.5 0,-163.5 0,-133.5 122,-133.5 122,-163.5"/>
<text text-anchor="start" x="8" y="-151.5" font-family="Helvetica,sans-Serif" font-size="10.00">ZoneViewZoneLogic::</text>
<text text-anchor="middle" x="61" y="-140.5" font-family="Helvetica,sans-Serif" font-size="10.00">removeCard</text>
</a>
</g>
</g>
<!-- Node2 -->
<g id="Node000002" class="node">
<title>Node2</title>
<g id="a_Node000002"><a xlink:href="../../d8/d70/classZoneViewZoneLogic.html#abef056fee9d43aff83c3b8f2130a7853" target="_top" xlink:title=" ">
<polygon fill="white" stroke="#666666" points="302.5,-271.5 180.5,-271.5 180.5,-241.5 302.5,-241.5 302.5,-271.5"/>
<text text-anchor="start" x="188.5" y="-259.5" font-family="Helvetica,sans-Serif" font-size="10.00">ZoneViewZoneLogic::</text>
<text text-anchor="middle" x="241.5" y="-248.5" font-family="Helvetica,sans-Serif" font-size="10.00">closeView</text>
</a>
</g>
</g>
<!-- Node1&#45;&gt;Node2 -->
<g id="edge1_Node000001_Node000002" class="edge">
<title>Node1&#45;&gt;Node2</title>
<g id="a_edge1_Node000001_Node000002"><a xlink:title=" ">
<path fill="none" stroke="#63b8ff" d="M75.43,-163.79C92.74,-182.58 124.59,-214.21 158,-232.5 163.42,-235.47 169.24,-238.1 175.2,-240.43"/>
<polygon fill="#63b8ff" stroke="#63b8ff" points="180.23,-242.32 174.75,-242.67 177.88,-241.44 175.54,-240.56 175.54,-240.56 175.54,-240.56 177.88,-241.44 176.34,-238.46 180.23,-242.32 180.23,-242.32"/>
</a>
</g>
</g>
<!-- Node3 -->
<g id="Node000003" class="node">
<title>Node3</title>
<g id="a_Node000003"><a xlink:href="../../d6/dbd/classCardItem.html#aaea32d499d90c7fc724d407850a08ba3" target="_top" xlink:title=" ">
<polygon fill="white" stroke="#666666" points="303,-223 180,-223 180,-204 303,-204 303,-223"/>
<text text-anchor="middle" x="241.5" y="-211" font-family="Helvetica,sans-Serif" font-size="10.00">CardItem::deleteLater</text>
</a>
</g>
</g>
<!-- Node1&#45;&gt;Node3 -->
<g id="edge2_Node000001_Node000003" class="edge">
<title>Node1&#45;&gt;Node3</title>
<g id="a_edge2_Node000001_Node000003"><a xlink:title=" ">
<path fill="none" stroke="#63b8ff" d="M89.45,-163.66C108.29,-173.55 134.1,-186.14 158,-194.5 166.86,-197.6 176.43,-200.34 185.82,-202.7"/>
<polygon fill="#63b8ff" stroke="#63b8ff" points="190.7,-203.9 185.31,-204.89 188.27,-203.3 185.84,-202.7 185.84,-202.7 185.84,-202.7 188.27,-203.3 186.38,-200.52 190.7,-203.9 190.7,-203.9"/>
</a>
</g>
</g>
<!-- Node15 -->
<g id="Node000015" class="node">
<title>Node15</title>
<g id="a_Node000015"><a xlink:href="../../d5/d88/classSettingsCache.html#a3b707d83d66a8d695a7f06248b3e497f" target="_top" xlink:title=" ">
<polygon fill="white" stroke="#666666" points="325,-185.5 158,-185.5 158,-155.5 325,-155.5 325,-185.5"/>
<text text-anchor="start" x="166" y="-173.5" font-family="Helvetica,sans-Serif" font-size="10.00">SettingsCache::getCloseEmpty</text>
<text text-anchor="middle" x="241.5" y="-162.5" font-family="Helvetica,sans-Serif" font-size="10.00">CardView</text>
</a>
</g>
</g>
<!-- Node1&#45;&gt;Node15 -->
<g id="edge16_Node000001_Node000015" class="edge">
<title>Node1&#45;&gt;Node15</title>
<g id="a_edge16_Node000001_Node000015"><a xlink:title=" ">
<path fill="none" stroke="#63b8ff" d="M122.43,-155.95C132.25,-157.16 142.6,-158.43 152.91,-159.7"/>
<polygon fill="#63b8ff" stroke="#63b8ff" points="157.97,-160.33 152.73,-161.95 155.49,-160.02 153.01,-159.72 153.01,-159.72 153.01,-159.72 155.49,-160.02 153.28,-157.48 157.97,-160.33 157.97,-160.33"/>
</a>
</g>
</g>
<!-- Node16 -->
<g id="Node000016" class="node">
<title>Node16</title>
<g id="a_Node000016"><a xlink:href="../../d5/d88/classSettingsCache.html#adfa7f9f975919981b992db1fca9e4957" target="_top" xlink:title=" ">
<polygon fill="white" stroke="#666666" points="308.5,-137 174.5,-137 174.5,-118 308.5,-118 308.5,-137"/>
<text text-anchor="middle" x="241.5" y="-125" font-family="Helvetica,sans-Serif" font-size="10.00">SettingsCache::instance</text>
</a>
</g>
</g>
<!-- Node1&#45;&gt;Node16 -->
<g id="edge17_Node000001_Node000016" class="edge">
<title>Node1&#45;&gt;Node16</title>
<g id="a_edge17_Node000001_Node000016"><a xlink:title=" ">
<path fill="none" stroke="#63b8ff" d="M122.43,-141.39C137.43,-139.63 153.63,-137.72 169.1,-135.9"/>
<polygon fill="#63b8ff" stroke="#63b8ff" points="174.31,-135.29 169.61,-138.11 171.83,-135.58 169.34,-135.87 169.34,-135.87 169.34,-135.87 171.83,-135.58 169.08,-133.64 174.31,-135.29 174.31,-135.29"/>
</a>
</g>
</g>
<!-- Node17 -->
<g id="Node000017" class="node">
<title>Node17</title>
<g id="a_Node000017"><a xlink:href="../../d1/df9/classCardZoneLogic.html#a235f64a505b9c87c199d9135bb8c57f6" target="_top" xlink:title=" ">
<polygon fill="white" stroke="#666666" points="315,-99.5 168,-99.5 168,-69.5 315,-69.5 315,-99.5"/>
<text text-anchor="start" x="176" y="-87.5" font-family="Helvetica,sans-Serif" font-size="10.00">CardZoneLogic::reorganize</text>
<text text-anchor="middle" x="241.5" y="-76.5" font-family="Helvetica,sans-Serif" font-size="10.00">Cards</text>
</a>
</g>
</g>
<!-- Node1&#45;&gt;Node17 -->
<g id="edge18_Node000001_Node000017" class="edge">
<title>Node1&#45;&gt;Node17</title>
<g id="a_edge18_Node000001_Node000017"><a xlink:title=" ">
<path fill="none" stroke="#63b8ff" d="M96.81,-133.46C114.91,-125.87 137.48,-116.76 158,-109.5 166.06,-106.65 174.64,-103.82 183.09,-101.16"/>
<polygon fill="#63b8ff" stroke="#63b8ff" points="188.33,-99.52 184.23,-103.16 185.95,-100.26 183.56,-101.01 183.56,-101.01 183.56,-101.01 185.95,-100.26 182.89,-98.86 188.33,-99.52 188.33,-99.52"/>
</a>
</g>
</g>
<!-- Node18 -->
<g id="Node000018" class="node">
<title>Node18</title>
<g id="a_Node000018"><a xlink:href="../../d8/d70/classZoneViewZoneLogic.html#a2b244dba103671db375443d545789782" target="_top" xlink:title=" ">
<polygon fill="white" stroke="#666666" points="302.5,-51.5 180.5,-51.5 180.5,-21.5 302.5,-21.5 302.5,-51.5"/>
<text text-anchor="start" x="188.5" y="-39.5" font-family="Helvetica,sans-Serif" font-size="10.00">ZoneViewZoneLogic::</text>
<text text-anchor="middle" x="241.5" y="-28.5" font-family="Helvetica,sans-Serif" font-size="10.00">updateCardIds</text>
</a>
</g>
</g>
<!-- Node1&#45;&gt;Node18 -->
<g id="edge19_Node000001_Node000018" class="edge">
<title>Node1&#45;&gt;Node18</title>
<g id="a_edge19_Node000001_Node000018"><a xlink:title=" ">
<path fill="none" stroke="#63b8ff" d="M74.39,-133.47C91.32,-113.9 123.52,-79.9 158,-60.5 163.38,-57.47 169.18,-54.79 175.12,-52.43"/>
<polygon fill="#63b8ff" stroke="#63b8ff" points="180.14,-50.53 176.27,-54.41 177.8,-51.42 175.47,-52.3 175.47,-52.3 175.47,-52.3 177.8,-51.42 174.67,-50.2 180.14,-50.53 180.14,-50.53"/>
</a>
</g>
</g>
<!-- Node4 -->
<g id="Node000004" class="node">
<title>Node4</title>
<g id="a_Node000004"><a xlink:href="../../d6/dbd/classCardItem.html#a575b7108658ad9bc321cf18fa0f7be01" target="_top" xlink:title=" ">
<polygon fill="white" stroke="#666666" points="514.5,-223 377.5,-223 377.5,-204 514.5,-204 514.5,-223"/>
<text text-anchor="middle" x="446" y="-211" font-family="Helvetica,sans-Serif" font-size="10.00">CardItem::prepareDelete</text>
</a>
</g>
</g>
<!-- Node3&#45;&gt;Node4 -->
<g id="edge3_Node000003_Node000004" class="edge">
<title>Node3&#45;&gt;Node4</title>
<g id="a_edge3_Node000003_Node000004"><a xlink:title=" ">
<path fill="none" stroke="#63b8ff" d="M303.26,-213.5C324.92,-213.5 349.54,-213.5 372.12,-213.5"/>
<polygon fill="#63b8ff" stroke="#63b8ff" points="377.2,-213.5 372.2,-215.75 374.7,-213.5 372.2,-213.5 372.2,-213.5 372.2,-213.5 374.7,-213.5 372.2,-211.25 377.2,-213.5 377.2,-213.5"/>
</a>
</g>
</g>
<!-- Node5 -->
<g id="Node000005" class="node">
<title>Node5</title>
<g id="a_Node000005"><a xlink:href="../../d3/d44/classAbstractGame.html#a10d512d3b465fd4d50272aa0a54ed685" target="_top" xlink:title=" ">
<polygon fill="white" stroke="#666666" points="945.5,-204 784.5,-204 784.5,-185 945.5,-185 945.5,-204"/>
<text text-anchor="middle" x="865" y="-192" font-family="Helvetica,sans-Serif" font-size="10.00">AbstractGame::getActiveCard</text>
</a>
</g>
</g>
<!-- Node4&#45;&gt;Node5 -->
<g id="edge4_Node000004_Node000005" class="edge">
<title>Node4&#45;&gt;Node5</title>
<g id="a_edge4_Node000004_Node000005"><a xlink:title=" ">
<path fill="none" stroke="#63b8ff" d="M514.93,-210.41C587.08,-207.12 701.27,-201.91 779.26,-198.36"/>
<polygon fill="#63b8ff" stroke="#63b8ff" points="784.34,-198.13 779.45,-200.6 781.84,-198.24 779.35,-198.36 779.35,-198.36 779.35,-198.36 781.84,-198.24 779.24,-196.11 784.34,-198.13 784.34,-198.13"/>
</a>
</g>
</g>
<!-- Node6 -->
<g id="Node000006" class="node">
<title>Node6</title>
<g id="a_Node000006"><a xlink:href="../../d2/d4b/classPlayer.html#af7cfc2b66a72002d9f290285499a0a3b" target="_top" xlink:title=" ">
<polygon fill="white" stroke="#666666" points="914,-167 816,-167 816,-148 914,-148 914,-167"/>
<text text-anchor="middle" x="865" y="-155" font-family="Helvetica,sans-Serif" font-size="10.00">Player::getGame</text>
</a>
</g>
</g>
<!-- Node4&#45;&gt;Node6 -->
<g id="edge5_Node000004_Node000006" class="edge">
<title>Node4&#45;&gt;Node6</title>
<g id="a_edge5_Node000004_Node000006"><a xlink:title=" ">
<path fill="none" stroke="#63b8ff" d="M513.32,-203.98C530.77,-201.51 549.59,-198.88 567,-196.5 652.16,-184.88 751.14,-172.01 810.61,-164.35"/>
<polygon fill="#63b8ff" stroke="#63b8ff" points="815.88,-163.67 811.21,-166.54 813.4,-163.99 810.92,-164.3 810.92,-164.3 810.92,-164.3 813.4,-163.99 810.64,-162.07 815.88,-163.67 815.88,-163.67"/>
</a>
</g>
</g>
<!-- Node7 -->
<g id="Node000007" class="node">
<title>Node7</title>
<g id="a_Node000007"><a xlink:href="../../d2/d4b/classPlayer.html#aaadcfdaf7cc8e84dfdbeb8e99f453974" target="_top" xlink:title=" ">
<polygon fill="white" stroke="#666666" points="716,-316 589,-316 589,-297 716,-297 716,-316"/>
<text text-anchor="middle" x="652.5" y="-304" font-family="Helvetica,sans-Serif" font-size="10.00">Player::getPlayerMenu</text>
</a>
</g>
</g>
<!-- Node4&#45;&gt;Node7 -->
<g id="edge6_Node000004_Node000007" class="edge">
<title>Node4&#45;&gt;Node7</title>
<g id="a_edge6_Node000004_Node000007"><a xlink:title=" ">
<path fill="none" stroke="#63b8ff" d="M459.17,-223.16C480.01,-239.2 524.41,-271.28 567,-288.5 573.78,-291.24 581.04,-293.59 588.35,-295.6"/>
<polygon fill="#63b8ff" stroke="#63b8ff" points="593.42,-296.94 588.01,-297.84 591,-296.3 588.59,-295.66 588.59,-295.66 588.59,-295.66 591,-296.3 589.16,-293.48 593.42,-296.94 593.42,-296.94"/>
</a>
</g>
</g>
<!-- Node8 -->
<g id="Node000008" class="node">
<title>Node8</title>
<g id="a_Node000008"><a xlink:href="../../d6/dbd/classCardItem.html#a4580f14e9f633ac740ea1a5b80dd4fef" target="_top" xlink:title=" ">
<polygon fill="white" stroke="#666666" points="738,-279 567,-279 567,-260 738,-260 738,-279"/>
<text text-anchor="middle" x="652.5" y="-267" font-family="Helvetica,sans-Serif" font-size="10.00">CardItem::removeAttachedCard</text>
</a>
</g>
</g>
<!-- Node4&#45;&gt;Node8 -->
<g id="edge7_Node000004_Node000008" class="edge">
<title>Node4&#45;&gt;Node8</title>
<g id="a_edge7_Node000004_Node000008"><a xlink:title=" ">
<path fill="none" stroke="#63b8ff" d="M474.42,-223.02C498.6,-231.21 534.89,-243.02 567,-251.5 576.85,-254.1 587.41,-256.59 597.62,-258.84"/>
<polygon fill="#63b8ff" stroke="#63b8ff" points="602.6,-259.92 597.24,-261.06 600.16,-259.39 597.72,-258.86 597.72,-258.86 597.72,-258.86 600.16,-259.39 598.2,-256.66 602.6,-259.92 602.6,-259.92"/>
</a>
</g>
</g>
<!-- Node9 -->
<g id="Node000009" class="node">
<title>Node9</title>
<g id="a_Node000009"><a xlink:href="../../d3/d44/classAbstractGame.html#af18d64442d84bfe69e907cabe713c3ff" target="_top" xlink:title=" ">
<polygon fill="white" stroke="#666666" points="733,-242 572,-242 572,-223 733,-223 733,-242"/>
<text text-anchor="middle" x="652.5" y="-230" font-family="Helvetica,sans-Serif" font-size="10.00">AbstractGame::setActiveCard</text>
</a>
</g>
</g>
<!-- Node4&#45;&gt;Node9 -->
<g id="edge8_Node000004_Node000009" class="edge">
<title>Node4&#45;&gt;Node9</title>
<g id="a_edge8_Node000004_Node000009"><a xlink:title=" ">
<path fill="none" stroke="#63b8ff" d="M514.53,-219.77C531.19,-221.32 549.24,-223 566.61,-224.61"/>
<polygon fill="#63b8ff" stroke="#63b8ff" points="571.97,-225.11 566.78,-226.89 569.48,-224.88 566.99,-224.65 566.99,-224.65 566.99,-224.65 569.48,-224.88 567.2,-222.41 571.97,-225.11 571.97,-225.11"/>
</a>
</g>
</g>
<!-- Node10 -->
<g id="Node000010" class="node">
<title>Node10</title>
<g id="a_Node000010"><a xlink:href="../../d7/dd6/classPlayerMenu.html#a81b1d0276dbe8490ddbe7a8a98f87548" target="_top" xlink:title=" ">
<polygon fill="white" stroke="#666666" points="734.5,-128 570.5,-128 570.5,-109 734.5,-109 734.5,-128"/>
<text text-anchor="middle" x="652.5" y="-116" font-family="Helvetica,sans-Serif" font-size="10.00">PlayerMenu::updateCardMenu</text>
</a>
</g>
</g>
<!-- Node4&#45;&gt;Node10 -->
<g id="edge9_Node000004_Node000010" class="edge">
<title>Node4&#45;&gt;Node10</title>
<g id="a_edge9_Node000004_Node000010"><a xlink:title=" ">
<path fill="none" stroke="#63b8ff" d="M460.42,-203.98C481.99,-189.06 526.07,-160.07 567,-142.5 579,-137.35 592.43,-132.96 604.98,-129.4"/>
<polygon fill="#63b8ff" stroke="#63b8ff" points="609.93,-128.02 605.72,-131.53 607.52,-128.69 605.11,-129.36 605.11,-129.36 605.11,-129.36 607.52,-128.69 604.51,-127.19 609.93,-128.02 609.93,-128.02"/>
</a>
</g>
</g>
<!-- Node10&#45;&gt;Node5 -->
<g id="edge11_Node000010_Node000005" class="edge">
<title>Node10&#45;&gt;Node5</title>
<g id="a_edge11_Node000010_Node000005"><a xlink:title=" ">
<path fill="none" stroke="#63b8ff" d="M670.1,-128.15C692.83,-140.98 735.25,-163.53 774,-176.5 782.41,-179.32 791.43,-181.76 800.38,-183.86"/>
<polygon fill="#63b8ff" stroke="#63b8ff" points="805.34,-184.99 799.97,-186.07 802.9,-184.43 800.47,-183.88 800.47,-183.88 800.47,-183.88 802.9,-184.43 800.97,-181.68 805.34,-184.99 805.34,-184.99"/>
</a>
</g>
</g>
<!-- Node10&#45;&gt;Node6 -->
<g id="edge12_Node000010_Node000006" class="edge">
<title>Node10&#45;&gt;Node6</title>
<g id="a_edge12_Node000010_Node000006"><a xlink:title=" ">
<path fill="none" stroke="#63b8ff" d="M704.99,-128.04C737.11,-133.99 778.36,-141.63 810.8,-147.64"/>
<polygon fill="#63b8ff" stroke="#63b8ff" points="815.92,-148.59 810.6,-149.89 813.47,-148.14 811.01,-147.68 811.01,-147.68 811.01,-147.68 813.47,-148.14 811.42,-145.47 815.92,-148.59 815.92,-148.59"/>
</a>
</g>
</g>
<!-- Node11 -->
<g id="Node000011" class="node">
<title>Node11</title>
<g id="a_Node000011"><a xlink:href="../../d7/dd6/classPlayerMenu.html#a3956c4c71da8c542885d7b80f0f7b6e9" target="_top" xlink:title=" ">
<polygon fill="white" stroke="#666666" points="950,-56 780,-56 780,-37 950,-37 950,-56"/>
<text text-anchor="middle" x="865" y="-44" font-family="Helvetica,sans-Serif" font-size="10.00">PlayerMenu::cardMenuUpdated</text>
</a>
</g>
</g>
<!-- Node10&#45;&gt;Node11 -->
<g id="edge10_Node000010_Node000011" class="edge">
<title>Node10&#45;&gt;Node11</title>
<g id="a_edge10_Node000010_Node000011"><a xlink:title=" ">
<path fill="none" stroke="#63b8ff" d="M671.37,-108.96C694.47,-96.99 736.22,-76.57 774,-64.5 782.71,-61.72 792.03,-59.28 801.26,-57.17"/>
<polygon fill="#63b8ff" stroke="#63b8ff" points="806.38,-56.03 801.98,-59.31 803.94,-56.57 801.5,-57.11 801.5,-57.11 801.5,-57.11 803.94,-56.57 801.01,-54.92 806.38,-56.03 806.38,-56.03"/>
</a>
</g>
</g>
<!-- Node12 -->
<g id="Node000012" class="node">
<title>Node12</title>
<g id="a_Node000012"><a xlink:href="../../d3/d44/classAbstractGame.html#a30acfb1e00b1b9b1bd43356d857f5f96" target="_top" xlink:title=" ">
<polygon fill="white" stroke="#666666" points="956,-19 774,-19 774,0 956,0 956,-19"/>
<text text-anchor="middle" x="865" y="-7" font-family="Helvetica,sans-Serif" font-size="10.00">AbstractGame::getPlayerManager</text>
</a>
</g>
</g>
<!-- Node10&#45;&gt;Node12 -->
<g id="edge13_Node000010_Node000012" class="edge">
<title>Node10&#45;&gt;Node12</title>
<g id="a_edge13_Node000010_Node000012"><a xlink:title=" ">
<path fill="none" stroke="#63b8ff" d="M663.12,-108.74C682.33,-89.85 727.61,-48.34 774,-27.5 780.02,-24.79 786.45,-22.49 793,-20.54"/>
<polygon fill="#63b8ff" stroke="#63b8ff" points="798.03,-19.11 793.84,-22.64 795.63,-19.79 793.22,-20.48 793.22,-20.48 793.22,-20.48 795.63,-19.79 792.61,-18.31 798.03,-19.11 798.03,-19.11"/>
</a>
</g>
</g>
<!-- Node13 -->
<g id="Node000013" class="node">
<title>Node13</title>
<g id="a_Node000013"><a xlink:href="../../dc/d5d/classPlayerManager.html#a06aa093534865821b7c9a5ef2088841b" target="_top" xlink:title=" ">
<polygon fill="white" stroke="#666666" points="930.5,-130 799.5,-130 799.5,-111 930.5,-111 930.5,-130"/>
<text text-anchor="middle" x="865" y="-118" font-family="Helvetica,sans-Serif" font-size="10.00">PlayerManager::isJudge</text>
</a>
</g>
</g>
<!-- Node10&#45;&gt;Node13 -->
<g id="edge14_Node000010_Node000013" class="edge">
<title>Node10&#45;&gt;Node13</title>
<g id="a_edge14_Node000010_Node000013"><a xlink:title=" ">
<path fill="none" stroke="#63b8ff" d="M734.58,-119.27C754.17,-119.46 774.93,-119.65 793.96,-119.83"/>
<polygon fill="#63b8ff" stroke="#63b8ff" points="799.28,-119.89 794.26,-122.09 796.78,-119.86 794.28,-119.84 794.28,-119.84 794.28,-119.84 796.78,-119.86 794.3,-117.59 799.28,-119.89 799.28,-119.89"/>
</a>
</g>
</g>
<!-- Node14 -->
<g id="Node000014" class="node">
<title>Node14</title>
<g id="a_Node000014"><a xlink:href="../../dc/d5d/classPlayerManager.html#aa0a36fbae4264f4014fb159a03067836" target="_top" xlink:title=" ">
<polygon fill="white" stroke="#666666" points="940.5,-93 789.5,-93 789.5,-74 940.5,-74 940.5,-93"/>
<text text-anchor="middle" x="865" y="-81" font-family="Helvetica,sans-Serif" font-size="10.00">PlayerManager::isSpectator</text>
</a>
</g>
</g>
<!-- Node10&#45;&gt;Node14 -->
<g id="edge15_Node000010_Node000014" class="edge">
<title>Node10&#45;&gt;Node14</title>
<g id="a_edge15_Node000010_Node000014"><a xlink:title=" ">
<path fill="none" stroke="#63b8ff" d="M710.74,-108.98C738.94,-104.29 772.98,-98.63 801.82,-93.84"/>
<polygon fill="#63b8ff" stroke="#63b8ff" points="806.77,-93.02 802.21,-96.06 804.3,-93.43 801.84,-93.84 801.84,-93.84 801.84,-93.84 804.3,-93.43 801.47,-91.62 806.77,-93.02 806.77,-93.02"/>
</a>
</g>
</g>
<!-- Node19 -->
<g id="Node000019" class="node">
<title>Node19</title>
<g id="a_Node000019"><a xlink:href="../../d1/df9/classCardZoneLogic.html#a1ed33bb36b0afa2ae8869322ff34ca83" target="_top" xlink:title=" ">
<polygon fill="white" stroke="#666666" points="531,-28 361,-28 361,-9 531,-9 531,-28"/>
<text text-anchor="middle" x="446" y="-16" font-family="Helvetica,sans-Serif" font-size="10.00">CardZoneLogic::contentsKnown</text>
</a>
</g>
</g>
<!-- Node18&#45;&gt;Node19 -->
<g id="edge20_Node000018_Node000019" class="edge">
<title>Node18&#45;&gt;Node19</title>
<g id="a_edge20_Node000018_Node000019"><a xlink:title=" ">
<path fill="none" stroke="#63b8ff" d="M302.71,-31.15C319.33,-29.67 337.73,-28.03 355.63,-26.44"/>
<polygon fill="#63b8ff" stroke="#63b8ff" points="360.67,-26 355.88,-28.68 358.18,-26.22 355.69,-26.44 355.69,-26.44 355.69,-26.44 358.18,-26.22 355.49,-24.2 360.67,-26 360.67,-26"/>
</a>
</g>
</g>
<!-- Node21 -->
<g id="Node000021" class="node">
<title>Node21</title>
<g id="a_Node000021"><a xlink:href="../../d1/df9/classCardZoneLogic.html#a01bc8f22df2cf2b943084b40ffc95a2d" target="_top" xlink:title=" ">
<polygon fill="white" stroke="#666666" points="515.5,-65 376.5,-65 376.5,-46 515.5,-46 515.5,-65"/>
<text text-anchor="middle" x="446" y="-53" font-family="Helvetica,sans-Serif" font-size="10.00">CardZoneLogic::getCards</text>
</a>
</g>
</g>
<!-- Node18&#45;&gt;Node21 -->
<g id="edge22_Node000018_Node000021" class="edge">
<title>Node18&#45;&gt;Node21</title>
<g id="a_edge22_Node000018_Node000021"><a xlink:title=" ">
<path fill="none" stroke="#63b8ff" d="M302.71,-42.15C324.28,-44.17 348.84,-46.48 371.41,-48.6"/>
<polygon fill="#63b8ff" stroke="#63b8ff" points="376.5,-49.07 371.31,-50.85 374.01,-48.84 371.52,-48.61 371.52,-48.61 371.52,-48.61 374.01,-48.84 371.73,-46.37 376.5,-49.07 376.5,-49.07"/>
</a>
</g>
</g>
<!-- Node20 -->
<g id="Node000020" class="node">
<title>Node20</title>
<g id="a_Node000020"><a xlink:href="../../d4/d71/classCardList.html#a220784b7d0976960222cbcc1c2e98711" target="_top" xlink:title=" ">
<polygon fill="white" stroke="#666666" points="730,-28 575,-28 575,-9 730,-9 730,-28"/>
<text text-anchor="middle" x="652.5" y="-16" font-family="Helvetica,sans-Serif" font-size="10.00">CardList::getContentsKnown</text>
</a>
</g>
</g>
<!-- Node19&#45;&gt;Node20 -->
<g id="edge21_Node000019_Node000020" class="edge">
<title>Node19&#45;&gt;Node20</title>
<g id="a_edge21_Node000019_Node000020"><a xlink:title=" ">
<path fill="none" stroke="#63b8ff" d="M531.06,-18.5C543.9,-18.5 557.13,-18.5 569.92,-18.5"/>
<polygon fill="#63b8ff" stroke="#63b8ff" points="574.98,-18.5 569.98,-20.75 572.48,-18.5 569.98,-18.5 569.98,-18.5 569.98,-18.5 572.48,-18.5 569.98,-16.25 574.98,-18.5 574.98,-18.5"/>
</a>
</g>
</g>
</g>
</svg>
