<?xml version="1.0" encoding="UTF-8" standalone="no"?>
<!DOCTYPE svg PUBLIC "-//W3C//DTD SVG 1.1//EN"
 "http://www.w3.org/Graphics/SVG/1.1/DTD/svg11.dtd">
<!-- Generated by graphviz version 2.43.0 (0)
 -->
<!-- Title: WebsocketServerSocketInterface::initWebsocketSession Pages: 1 -->
<svg width="751pt" height="182pt"
 viewBox="0.00 0.00 751.00 182.00" xmlns="http://www.w3.org/2000/svg" xmlns:xlink="http://www.w3.org/1999/xlink">
<g id="graph0" class="graph" transform="scale(1 1) rotate(0) translate(4 178)">
<title>WebsocketServerSocketInterface::initWebsocketSession</title>
<!-- Node1 -->
<g id="Node000001" class="node">
<title>Node1</title>
<g id="a_Node000001"><a xlink:title=" ">
<polygon fill="#999999" stroke="#666666" points="176,-75 0,-75 0,-45 176,-45 176,-75"/>
<text text-anchor="start" x="8" y="-63" font-family="Helvetica,sans-Serif" font-size="10.00">WebsocketServerSocketInterface</text>
<text text-anchor="middle" x="88" y="-52" font-family="Helvetica,sans-Serif" font-size="10.00">::initWebsocketSession</text>
</a>
</g>
</g>
<!-- Node2 -->
<g id="Node000002" class="node">
<title>Node2</title>
<g id="a_Node000002"><a xlink:href="../../dd/dea/classAbstractServerSocketInterface.html#aa971b9ef9acb9c4ff9fbd0d0585dcbd1" target="_top" xlink:title=" ">
<polygon fill="white" stroke="#666666" points="376,-118 212,-118 212,-88 376,-88 376,-118"/>
<text text-anchor="start" x="220" y="-106" font-family="Helvetica,sans-Serif" font-size="10.00">AbstractServerSocketInterface</text>
<text text-anchor="middle" x="294" y="-95" font-family="Helvetica,sans-Serif" font-size="10.00">::initSession</text>
</a>
</g>
</g>
<!-- Node1&#45;&gt;Node2 -->
<g id="edge1_Node000001_Node000002" class="edge">
<title>Node1&#45;&gt;Node2</title>
<g id="a_edge1_Node000001_Node000002"><a xlink:title=" ">
<path fill="none" stroke="#63b8ff" d="M160.35,-75.04C178.52,-78.87 198.12,-83 216.53,-86.88"/>
<polygon fill="#63b8ff" stroke="#63b8ff" points="221.69,-87.97 216.33,-89.14 219.24,-87.45 216.8,-86.94 216.8,-86.94 216.8,-86.94 219.24,-87.45 217.26,-84.74 221.69,-87.97 221.69,-87.97"/>
</a>
</g>
</g>
<!-- Node5 -->
<g id="Node000005" class="node">
<title>Node5</title>
<g id="a_Node000005"><a xlink:href="../../d5/d9c/classServer__AbstractUserInterface.html#a4f9b42a8a3c7cb37fb7cddda35e1b0f1" target="_top" xlink:title=" ">
<polygon fill="white" stroke="#666666" points="574,-78 414,-78 414,-48 574,-48 574,-78"/>
<text text-anchor="start" x="422" y="-66" font-family="Helvetica,sans-Serif" font-size="10.00">Server_AbstractUserInterface</text>
<text text-anchor="middle" x="494" y="-55" font-family="Helvetica,sans-Serif" font-size="10.00">::prepareSessionEvent</text>
</a>
</g>
</g>
<!-- Node1&#45;&gt;Node5 -->
<g id="edge7_Node000001_Node000005" class="edge">
<title>Node1&#45;&gt;Node5</title>
<g id="a_edge7_Node000001_Node000005"><a xlink:title=" ">
<path fill="none" stroke="#63b8ff" d="M176.16,-60.65C245,-61.16 340.49,-61.87 408.6,-62.37"/>
<polygon fill="#63b8ff" stroke="#63b8ff" points="413.87,-62.41 408.85,-64.63 411.37,-62.39 408.87,-62.38 408.87,-62.38 408.87,-62.38 411.37,-62.39 408.88,-60.13 413.87,-62.41 413.87,-62.41"/>
</a>
</g>
</g>
<!-- Node6 -->
<g id="Node000006" class="node">
<title>Node6</title>
<g id="a_Node000006"><a xlink:href="../../d0/d23/classServer__ProtocolHandler.html#a0740cc76bbd30fed5c329da5ce2bda29" target="_top" xlink:title=" ">
<polygon fill="white" stroke="#666666" points="559.5,-30 428.5,-30 428.5,0 559.5,0 559.5,-30"/>
<text text-anchor="start" x="436.5" y="-18" font-family="Helvetica,sans-Serif" font-size="10.00">Server_ProtocolHandler</text>
<text text-anchor="middle" x="494" y="-7" font-family="Helvetica,sans-Serif" font-size="10.00">::sendProtocolItem</text>
</a>
</g>
</g>
<!-- Node1&#45;&gt;Node6 -->
<g id="edge8_Node000001_Node000006" class="edge">
<title>Node1&#45;&gt;Node6</title>
<g id="a_edge8_Node000001_Node000006"><a xlink:title=" ">
<path fill="none" stroke="#63b8ff" d="M176.16,-50.29C249.98,-42.07 354.42,-30.44 422.91,-22.81"/>
<polygon fill="#63b8ff" stroke="#63b8ff" points="428.19,-22.22 423.47,-25.01 425.71,-22.5 423.22,-22.77 423.22,-22.77 423.22,-22.77 425.71,-22.5 422.97,-20.54 428.19,-22.22 428.19,-22.22"/>
</a>
</g>
</g>
<!-- Node3 -->
<g id="Node000003" class="node">
<title>Node3</title>
<g id="a_Node000003"><a xlink:href="../../dd/dea/classAbstractServerSocketInterface.html#a234a8b804690f2b4ae0fe7ce5512ee1d" target="_top" xlink:title=" ">
<polygon fill="white" stroke="#666666" points="576,-174 412,-174 412,-144 576,-144 576,-174"/>
<text text-anchor="start" x="420" y="-162" font-family="Helvetica,sans-Serif" font-size="10.00">AbstractServerSocketInterface</text>
<text text-anchor="middle" x="494" y="-151" font-family="Helvetica,sans-Serif" font-size="10.00">::getAddress</text>
</a>
</g>
</g>
<!-- Node2&#45;&gt;Node3 -->
<g id="edge2_Node000002_Node000003" class="edge">
<title>Node2&#45;&gt;Node3</title>
<g id="a_edge2_Node000002_Node000003"><a xlink:title=" ">
<path fill="none" stroke="#63b8ff" d="M348.06,-118.01C374.8,-125.57 407.3,-134.76 434.73,-142.52"/>
<polygon fill="#63b8ff" stroke="#63b8ff" points="439.79,-143.95 434.37,-144.76 437.39,-143.27 434.98,-142.59 434.98,-142.59 434.98,-142.59 437.39,-143.27 435.59,-140.43 439.79,-143.95 439.79,-143.95"/>
</a>
</g>
</g>
<!-- Node4 -->
<g id="Node000004" class="node">
<title>Node4</title>
<g id="a_Node000004"><a xlink:href="../../dd/dea/classAbstractServerSocketInterface.html#af53807686a4e9381a5bf0f48c3ee4cad" target="_top" xlink:title=" ">
<polygon fill="white" stroke="#666666" points="576,-126 412,-126 412,-96 576,-96 576,-126"/>
<text text-anchor="start" x="420" y="-114" font-family="Helvetica,sans-Serif" font-size="10.00">AbstractServerSocketInterface</text>
<text text-anchor="middle" x="494" y="-103" font-family="Helvetica,sans-Serif" font-size="10.00">::getPeerAddress</text>
</a>
</g>
</g>
<!-- Node2&#45;&gt;Node4 -->
<g id="edge3_Node000002_Node000004" class="edge">
<title>Node2&#45;&gt;Node4</title>
<g id="a_edge3_Node000002_Node000004"><a xlink:title=" ">
<path fill="none" stroke="#63b8ff" d="M376.11,-106.28C386.11,-106.68 396.37,-107.1 406.45,-107.5"/>
<polygon fill="#63b8ff" stroke="#63b8ff" points="411.7,-107.72 406.61,-109.76 409.2,-107.61 406.7,-107.51 406.7,-107.51 406.7,-107.51 409.2,-107.61 406.8,-105.27 411.7,-107.72 411.7,-107.72"/>
</a>
</g>
</g>
<!-- Node2&#45;&gt;Node5 -->
<g id="edge4_Node000002_Node000005" class="edge">
<title>Node2&#45;&gt;Node5</title>
<g id="a_edge4_Node000002_Node000005"><a xlink:title=" ">
<path fill="none" stroke="#63b8ff" d="M369.29,-87.99C383.78,-85.06 399.03,-81.98 413.68,-79.02"/>
<polygon fill="#63b8ff" stroke="#63b8ff" points="418.62,-78.03 414.17,-81.22 416.17,-78.52 413.72,-79.02 413.72,-79.02 413.72,-79.02 416.17,-78.52 413.28,-76.81 418.62,-78.03 418.62,-78.03"/>
</a>
</g>
</g>
<!-- Node2&#45;&gt;Node6 -->
<g id="edge5_Node000002_Node000006" class="edge">
<title>Node2&#45;&gt;Node6</title>
<g id="a_edge5_Node000002_Node000006"><a xlink:title=" ">
<path fill="none" stroke="#63b8ff" d="M318.9,-87.95C342.04,-73.87 378.44,-52.96 412,-39 418.15,-36.44 424.67,-34.03 431.23,-31.81"/>
<polygon fill="#63b8ff" stroke="#63b8ff" points="436.25,-30.14 432.22,-33.85 433.88,-30.93 431.51,-31.71 431.51,-31.71 431.51,-31.71 433.88,-30.93 430.8,-29.58 436.25,-30.14 436.25,-30.14"/>
</a>
</g>
</g>
<!-- Node7 -->
<g id="Node000007" class="node">
<title>Node7</title>
<g id="a_Node000007"><a xlink:href="../../d0/d23/classServer__ProtocolHandler.html#a656d5f50efcdfd0591faf5c3e078bec1" target="_top" xlink:title=" ">
<polygon fill="white" stroke="#666666" points="743,-30 612,-30 612,0 743,0 743,-30"/>
<text text-anchor="start" x="620" y="-18" font-family="Helvetica,sans-Serif" font-size="10.00">Server_ProtocolHandler</text>
<text text-anchor="middle" x="677.5" y="-7" font-family="Helvetica,sans-Serif" font-size="10.00">::transmitProtocolItem</text>
</a>
</g>
</g>
<!-- Node6&#45;&gt;Node7 -->
<g id="edge6_Node000006_Node000007" class="edge">
<title>Node6&#45;&gt;Node7</title>
<g id="a_edge6_Node000006_Node000007"><a xlink:title=" ">
<path fill="none" stroke="#63b8ff" d="M559.5,-15C574.79,-15 591.16,-15 606.68,-15"/>
<polygon fill="#63b8ff" stroke="#63b8ff" points="611.9,-15 606.9,-17.25 609.4,-15 606.9,-15 606.9,-15 606.9,-15 609.4,-15 606.9,-12.75 611.9,-15 611.9,-15"/>
</a>
</g>
</g>
</g>
</svg>
