<?xml version="1.0" encoding="UTF-8" standalone="no"?>
<!DOCTYPE svg PUBLIC "-//W3C//DTD SVG 1.1//EN"
 "http://www.w3.org/Graphics/SVG/1.1/DTD/svg11.dtd">
<!-- Generated by graphviz version 2.43.0 (0)
 -->
<!-- Title: AbstractDecklistNode::AbstractDecklistNode Pages: 1 -->
<!--zoomable 710 -->

<svg id="main" version="1.1" xmlns="http://www.w3.org/2000/svg" xmlns:xlink="http://www.w3.org/1999/xlink" xml:space="preserve" onload="init(evt)">

<style type="text/css"><![CDATA[
.node, .edge {opacity: 0.7;}
.node.selected, .edge.selected {opacity: 1;}
.edge:hover path { stroke: red; }
.edge:hover polygon { stroke: red; fill: red; }
]]></style>

<defs>
  <circle id="rim" cx="0" cy="0" r="7"/>
  <circle id="rim2" cx="0" cy="0" r="3.5"/>
  <g id="zoomPlus">
    <use xlink:href="#rim" fill="#404040"><set attributeName="fill" to="#808080" begin="zoomplus.mouseover" end="zoomplus.mouseout"/></use>
    <path d="M-4,0h8M0,-4v8" fill="none" stroke="white" stroke-width="1.5" pointer-events="none"/>
  </g>
  <g id="zoomMin">
    <use xlink:href="#rim" fill="#404040"><set attributeName="fill" to="#808080" begin="zoomminus.mouseover" end="zoomminus.mouseout"/></use>
    <path d="M-4,0h8" fill="none" stroke="white" stroke-width="1.5" pointer-events="none"/>
  </g>
  <g id="arrowUp" transform="translate(30 24)">
    <use xlink:href="#rim"/>
    <path pointer-events="none" fill="none" stroke="white" stroke-width="1.5" d="M0,-3.0v7 M-2.5,-0.5L0,-3.0L2.5,-0.5"/>
  </g>
  <g id="arrowRight" transform="rotate(90) translate(36 -43)">
    <use xlink:href="#rim"/>
    <path pointer-events="none" fill="none" stroke="white" stroke-width="1.5" d="M0,-3.0v7 M-2.5,-0.5L0,-3.0L2.5,-0.5"/>
  </g>
  <g id="arrowDown" transform="rotate(180) translate(-30 -48)">
    <use xlink:href="#rim"/>
    <path pointer-events="none" fill="none" stroke="white" stroke-width="1.5" d="M0,-3.0v7 M-2.5,-0.5L0,-3.0L2.5,-0.5"/>
  </g>
  <g id="arrowLeft" transform="rotate(270) translate(-36 17)">
    <use xlink:href="#rim"/>
    <path pointer-events="none" fill="none" stroke="white" stroke-width="1.5" d="M0,-3.0v7 M-2.5,-0.5L0,-3.0L2.5,-0.5"/>
  </g>
  <g id="resetDef">
    <use xlink:href="#rim2" fill="#404040"><set attributeName="fill" to="#808080" begin="reset.mouseover" end="reset.mouseout"/></use>
  </g>
</defs>
<script type="application/ecmascript">
var viewWidth = 936;
var viewHeight = 710;
var sectionId = 'dynsection-2';
</script>
<script type="application/ecmascript" xlink:href="../../svg.min.js"/>
<svg id="graph" class="graph">
<g id="viewport">
<title>AbstractDecklistNode::AbstractDecklistNode</title>
<!-- Node1 -->
<g id="Node000001" class="node">
<title>Node1</title>
<g id="a_Node000001"><a xlink:title="Construct a new AbstractDecklistNode and insert it into its parent.">
<polygon fill="#999999" stroke="#666666" points="928,-357 800,-357 800,-327 928,-327 928,-357"/>
<text text-anchor="start" x="808" y="-345" font-family="Helvetica,sans-Serif" font-size="10.00">AbstractDecklistNode</text>
<text text-anchor="middle" x="864" y="-334" font-family="Helvetica,sans-Serif" font-size="10.00">::AbstractDecklistNode</text>
</a>
</g>
</g>
<!-- Node2 -->
<g id="Node000002" class="node">
<title>Node2</title>
<g id="a_Node000002"><a xlink:href="../../d3/de9/classAbstractDecklistCardNode.html#a29cbc47c621c4f110d45a7e5e5d6e6e7" target="_top" xlink:title="Construct a new AbstractDecklistCardNode.">
<polygon fill="white" stroke="#666666" points="757.5,-490 606.5,-490 606.5,-460 757.5,-460 757.5,-490"/>
<text text-anchor="start" x="614.5" y="-478" font-family="Helvetica,sans-Serif" font-size="10.00">AbstractDecklistCardNode</text>
<text text-anchor="middle" x="682" y="-467" font-family="Helvetica,sans-Serif" font-size="10.00">::AbstractDecklistCardNode</text>
</a>
</g>
</g>
<!-- Node1&#45;&gt;Node2 -->
<g id="edge1_Node000001_Node000002" class="edge">
<title>Node1&#45;&gt;Node2</title>
<g id="a_edge1_Node000001_Node000002"><a xlink:title=" ">
<path fill="none" stroke="#63b8ff" d="M844.03,-360.79C824.8,-379.31 793.71,-407.85 764,-429 747.8,-440.54 728.46,-451.61 712.75,-460"/>
<polygon fill="#63b8ff" stroke="#63b8ff" points="847.72,-357.22 845.69,-362.31 845.92,-358.96 844.12,-360.7 844.12,-360.7 844.12,-360.7 845.92,-358.96 842.56,-359.08 847.72,-357.22 847.72,-357.22"/>
</a>
</g>
</g>
<!-- Node3 -->
<g id="Node000003" class="node">
<title>Node3</title>
<g id="a_Node000003"><a xlink:href="../../d3/de9/classAbstractDecklistCardNode.html#a65946ec2a41c8902065484263f789db6" target="_top" xlink:title="Compare this card node to another by name.">
<polygon fill="white" stroke="#666666" points="556,-630 411,-630 411,-600 556,-600 556,-630"/>
<text text-anchor="start" x="419" y="-618" font-family="Helvetica,sans-Serif" font-size="10.00">AbstractDecklistCardNode</text>
<text text-anchor="middle" x="483.5" y="-607" font-family="Helvetica,sans-Serif" font-size="10.00">::compareName</text>
</a>
</g>
</g>
<!-- Node1&#45;&gt;Node3 -->
<g id="edge14_Node000001_Node000003" class="edge">
<title>Node1&#45;&gt;Node3</title>
<g id="a_edge14_Node000001_Node000003"><a xlink:title=" ">
<path fill="none" stroke="#63b8ff" d="M861.51,-362.44C856.82,-410.43 837.9,-530.47 764,-586 704.72,-630.54 617.3,-632.42 556.05,-626.58"/>
<polygon fill="#63b8ff" stroke="#63b8ff" points="861.99,-357.22 863.78,-362.4 861.76,-359.71 861.53,-362.2 861.53,-362.2 861.53,-362.2 861.76,-359.71 859.29,-361.99 861.99,-357.22 861.99,-357.22"/>
</a>
</g>
</g>
<!-- Node4 -->
<g id="Node000004" class="node">
<title>Node4</title>
<g id="a_Node000004"><a xlink:href="../../d3/de9/classAbstractDecklistCardNode.html#a5c49007f00fe34492de3fe81b1057d9b" target="_top" xlink:title="Compare this card node against another for sorting.">
<polygon fill="white" stroke="#666666" points="159,-630 14,-630 14,-600 159,-600 159,-630"/>
<text text-anchor="start" x="22" y="-618" font-family="Helvetica,sans-Serif" font-size="10.00">AbstractDecklistCardNode</text>
<text text-anchor="middle" x="86.5" y="-607" font-family="Helvetica,sans-Serif" font-size="10.00">::compare</text>
</a>
</g>
</g>
<!-- Node1&#45;&gt;Node4 -->
<g id="edge11_Node000001_Node000004" class="edge">
<title>Node1&#45;&gt;Node4</title>
<g id="a_edge11_Node000001_Node000004"><a xlink:title=" ">
<path fill="none" stroke="#63b8ff" d="M862.72,-362.4C860.77,-415.09 847.63,-556.13 764,-621 568.88,-772.36 237.95,-671.05 125.9,-630.01"/>
<polygon fill="#63b8ff" stroke="#63b8ff" points="862.88,-357.29 864.97,-362.36 862.8,-359.79 862.72,-362.29 862.72,-362.29 862.72,-362.29 862.8,-359.79 860.47,-362.22 862.88,-357.29 862.88,-357.29"/>
</a>
</g>
</g>
<!-- Node5 -->
<g id="Node000005" class="node">
<title>Node5</title>
<g id="a_Node000005"><a xlink:href="../../d3/de9/classAbstractDecklistCardNode.html#a2cbfbeeb40acff13e304683fe2c76c75" target="_top" xlink:title="Compare this card node to another by quantity.">
<polygon fill="white" stroke="#666666" points="360.5,-587 215.5,-587 215.5,-557 360.5,-557 360.5,-587"/>
<text text-anchor="start" x="223.5" y="-575" font-family="Helvetica,sans-Serif" font-size="10.00">AbstractDecklistCardNode</text>
<text text-anchor="middle" x="288" y="-564" font-family="Helvetica,sans-Serif" font-size="10.00">::compareNumber</text>
</a>
</g>
</g>
<!-- Node1&#45;&gt;Node5 -->
<g id="edge19_Node000001_Node000005" class="edge">
<title>Node1&#45;&gt;Node5</title>
<g id="a_edge19_Node000001_Node000005"><a xlink:title=" ">
<path fill="none" stroke="#63b8ff" d="M856.29,-362.23C843.87,-396.32 813.92,-464.82 764,-499 641.63,-582.79 460.2,-585.41 360.71,-579.19"/>
<polygon fill="#63b8ff" stroke="#63b8ff" points="857.99,-357.46 858.43,-362.92 857.15,-359.81 856.31,-362.17 856.31,-362.17 856.31,-362.17 857.15,-359.81 854.19,-361.41 857.99,-357.46 857.99,-357.46"/>
</a>
</g>
</g>
<!-- Node9 -->
<g id="Node000009" class="node">
<title>Node9</title>
<g id="a_Node000009"><a xlink:href="../../dc/dd8/classAbstractDecklistNode.html#a48f1c141ae060e54ef6b8aa14c1345f7" target="_top" xlink:title="Compare this node against another for sorting.">
<polygon fill="white" stroke="#666666" points="743,-420 621,-420 621,-390 743,-390 743,-420"/>
<text text-anchor="start" x="629" y="-408" font-family="Helvetica,sans-Serif" font-size="10.00">AbstractDecklistNode</text>
<text text-anchor="middle" x="682" y="-397" font-family="Helvetica,sans-Serif" font-size="10.00">::compare</text>
</a>
</g>
</g>
<!-- Node1&#45;&gt;Node9 -->
<g id="edge12_Node000001_Node000009" class="edge">
<title>Node1&#45;&gt;Node9</title>
<g id="a_edge12_Node000001_Node000009"><a xlink:title=" ">
<path fill="none" stroke="#63b8ff" d="M815.15,-358.75C787.47,-368.44 752.91,-380.53 726.07,-389.92"/>
<polygon fill="#63b8ff" stroke="#63b8ff" points="819.89,-357.09 815.91,-360.87 817.53,-357.92 815.17,-358.74 815.17,-358.74 815.17,-358.74 817.53,-357.92 814.42,-356.62 819.89,-357.09 819.89,-357.09"/>
</a>
</g>
</g>
<!-- Node10 -->
<g id="Node000010" class="node">
<title>Node10</title>
<g id="a_Node000010"><a xlink:href="../../d4/d55/classInnerDecklistNode.html#ade1e5aca36502a7e16d8a5ffec3a4dbc" target="_top" xlink:title="Compare this node against another for sorting.">
<polygon fill="white" stroke="#666666" points="143,-334 30,-334 30,-304 143,-304 143,-334"/>
<text text-anchor="start" x="38" y="-322" font-family="Helvetica,sans-Serif" font-size="10.00">InnerDecklistNode::</text>
<text text-anchor="middle" x="86.5" y="-311" font-family="Helvetica,sans-Serif" font-size="10.00">compare</text>
</a>
</g>
</g>
<!-- Node1&#45;&gt;Node10 -->
<g id="edge13_Node000001_Node000010" class="edge">
<title>Node1&#45;&gt;Node10</title>
<g id="a_edge13_Node000001_Node000010"><a xlink:title=" ">
<path fill="none" stroke="#63b8ff" d="M794.84,-344.34C784.51,-344.61 773.97,-344.85 764,-345 517.3,-348.74 454.87,-353.48 209,-333 187.42,-331.2 163.74,-328.61 143.07,-326.15"/>
<polygon fill="#63b8ff" stroke="#63b8ff" points="799.9,-344.2 794.96,-346.58 797.4,-344.27 794.9,-344.34 794.9,-344.34 794.9,-344.34 797.4,-344.27 794.84,-342.09 799.9,-344.2 799.9,-344.2"/>
</a>
</g>
</g>
<!-- Node11 -->
<g id="Node000011" class="node">
<title>Node11</title>
<g id="a_Node000011"><a xlink:href="../../d4/d55/classInnerDecklistNode.html#a575bd44d01072d88ba50e3a1806b5ad5" target="_top" xlink:title="Compare this node against another for sorting.">
<polygon fill="white" stroke="#666666" points="540,-334 427,-334 427,-304 540,-304 540,-334"/>
<text text-anchor="start" x="435" y="-322" font-family="Helvetica,sans-Serif" font-size="10.00">InnerDecklistNode::</text>
<text text-anchor="middle" x="483.5" y="-311" font-family="Helvetica,sans-Serif" font-size="10.00">compareName</text>
</a>
</g>
</g>
<!-- Node1&#45;&gt;Node11 -->
<g id="edge15_Node000001_Node000011" class="edge">
<title>Node1&#45;&gt;Node11</title>
<g id="a_edge15_Node000001_Node000011"><a xlink:title=" ">
<path fill="none" stroke="#63b8ff" d="M794.47,-337.84C721.55,-333.4 607.57,-326.48 540.04,-322.37"/>
<polygon fill="#63b8ff" stroke="#63b8ff" points="799.65,-338.15 794.52,-340.09 797.15,-338 794.66,-337.85 794.66,-337.85 794.66,-337.85 797.15,-338 794.79,-335.6 799.65,-338.15 799.65,-338.15"/>
</a>
</g>
</g>
<!-- Node12 -->
<g id="Node000012" class="node">
<title>Node12</title>
<g id="a_Node000012"><a xlink:href="../../d4/d55/classInnerDecklistNode.html#a20d24c3c56a0e559f73445a6ca0100a3" target="_top" xlink:title="Compare this node against another for sorting.">
<polygon fill="white" stroke="#666666" points="344.5,-291 231.5,-291 231.5,-261 344.5,-261 344.5,-291"/>
<text text-anchor="start" x="239.5" y="-279" font-family="Helvetica,sans-Serif" font-size="10.00">InnerDecklistNode::</text>
<text text-anchor="middle" x="288" y="-268" font-family="Helvetica,sans-Serif" font-size="10.00">compareNumber</text>
</a>
</g>
</g>
<!-- Node1&#45;&gt;Node12 -->
<g id="edge20_Node000001_Node000012" class="edge">
<title>Node1&#45;&gt;Node12</title>
<g id="a_edge20_Node000001_Node000012"><a xlink:title=" ">
<path fill="none" stroke="#63b8ff" d="M794.72,-327.6C784.44,-325.61 773.96,-323.68 764,-322 675.55,-307.11 653.23,-304.1 564,-295 488.18,-287.27 400.27,-281.81 344.66,-278.78"/>
<polygon fill="#63b8ff" stroke="#63b8ff" points="799.74,-328.58 794.4,-329.83 797.28,-328.1 794.83,-327.62 794.83,-327.62 794.83,-327.62 797.28,-328.1 795.26,-325.41 799.74,-328.58 799.74,-328.58"/>
</a>
</g>
</g>
<!-- Node13 -->
<g id="Node000013" class="node">
<title>Node13</title>
<g id="a_Node000013"><a xlink:href="../../d4/d55/classInnerDecklistNode.html#a4f08f49557660bd24e2e2e705b6596b9" target="_top" xlink:title="Find a child card node by name, provider ID, and collector number.">
<polygon fill="white" stroke="#666666" points="764,-92.5 600,-92.5 600,-51.5 764,-51.5 764,-92.5"/>
<text text-anchor="start" x="608" y="-80.5" font-family="Helvetica,sans-Serif" font-size="10.00">InnerDecklistNode::</text>
<text text-anchor="start" x="608" y="-69.5" font-family="Helvetica,sans-Serif" font-size="10.00">findCardChildByNameProvider</text>
<text text-anchor="middle" x="682" y="-58.5" font-family="Helvetica,sans-Serif" font-size="10.00">IdAndNumber</text>
</a>
</g>
</g>
<!-- Node1&#45;&gt;Node13 -->
<g id="edge21_Node000001_Node000013" class="edge">
<title>Node1&#45;&gt;Node13</title>
<g id="a_edge21_Node000001_Node000013"><a xlink:title=" ">
<path fill="none" stroke="#63b8ff" d="M858.11,-321.78C847.25,-280.39 817.75,-184.7 764,-123 753.41,-110.85 739.22,-100.58 725.67,-92.52"/>
<polygon fill="#63b8ff" stroke="#63b8ff" points="859.4,-326.79 855.97,-322.51 858.77,-324.37 858.15,-321.95 858.15,-321.95 858.15,-321.95 858.77,-324.37 860.33,-321.38 859.4,-326.79 859.4,-326.79"/>
</a>
</g>
</g>
<!-- Node19 -->
<g id="Node000019" class="node">
<title>Node19</title>
<g id="a_Node000019"><a xlink:href="../../d4/d55/classInnerDecklistNode.html#adfb9abd7de7ce169130d9ca4672f0299" target="_top" xlink:title="Find a direct child node by name.">
<polygon fill="white" stroke="#666666" points="738.5,-33 625.5,-33 625.5,-3 738.5,-3 738.5,-33"/>
<text text-anchor="start" x="633.5" y="-21" font-family="Helvetica,sans-Serif" font-size="10.00">InnerDecklistNode::</text>
<text text-anchor="middle" x="682" y="-10" font-family="Helvetica,sans-Serif" font-size="10.00">findChild</text>
</a>
</g>
</g>
<!-- Node1&#45;&gt;Node19 -->
<g id="edge27_Node000001_Node000019" class="edge">
<title>Node1&#45;&gt;Node19</title>
<g id="a_edge27_Node000001_Node000019"><a xlink:title=" ">
<path fill="none" stroke="#63b8ff" d="M862.44,-321.46C859.85,-267.57 845.27,-120.81 764,-42 756.95,-35.16 748.04,-30.25 738.72,-26.74"/>
<polygon fill="#63b8ff" stroke="#63b8ff" points="862.67,-326.68 860.2,-321.78 862.56,-324.18 862.45,-321.69 862.45,-321.69 862.45,-321.69 862.56,-324.18 864.7,-321.59 862.67,-326.68 862.67,-326.68"/>
</a>
</g>
</g>
<!-- Node20 -->
<g id="Node000020" class="node">
<title>Node20</title>
<g id="a_Node000020"><a xlink:href="../../d4/d55/classInnerDecklistNode.html#a45b30bbf3de92fcf4d16b9ca097a7392" target="_top" xlink:title="Copy constructor with parent reassignment.">
<polygon fill="white" stroke="#666666" points="540,-114 427,-114 427,-84 540,-84 540,-114"/>
<text text-anchor="start" x="435" y="-102" font-family="Helvetica,sans-Serif" font-size="10.00">InnerDecklistNode::</text>
<text text-anchor="middle" x="483.5" y="-91" font-family="Helvetica,sans-Serif" font-size="10.00">InnerDecklistNode</text>
</a>
</g>
</g>
<!-- Node1&#45;&gt;Node20 -->
<g id="edge29_Node000001_Node000020" class="edge">
<title>Node1&#45;&gt;Node20</title>
<g id="a_edge29_Node000001_Node000020"><a xlink:title=" ">
<path fill="none" stroke="#63b8ff" d="M856.08,-321.76C843.36,-287.55 812.96,-218.41 764,-181 697.7,-130.34 600.75,-110.92 540.21,-103.51"/>
<polygon fill="#63b8ff" stroke="#63b8ff" points="857.83,-326.54 854,-322.62 856.97,-324.19 856.12,-321.84 856.12,-321.84 856.12,-321.84 856.97,-324.19 858.23,-321.07 857.83,-326.54 857.83,-326.54"/>
</a>
</g>
</g>
<!-- Node21 -->
<g id="Node000021" class="node">
<title>Node21</title>
<g id="a_Node000021"><a xlink:href="../../d4/d55/classInnerDecklistNode.html#ac20f2f05e6658d236abccc427f7d848c" target="_top" xlink:title="Construct a new InnerDecklistNode.">
<polygon fill="white" stroke="#666666" points="738.5,-220 625.5,-220 625.5,-190 738.5,-190 738.5,-220"/>
<text text-anchor="start" x="633.5" y="-208" font-family="Helvetica,sans-Serif" font-size="10.00">InnerDecklistNode::</text>
<text text-anchor="middle" x="682" y="-197" font-family="Helvetica,sans-Serif" font-size="10.00">InnerDecklistNode</text>
</a>
</g>
</g>
<!-- Node1&#45;&gt;Node21 -->
<g id="edge30_Node000001_Node000021" class="edge">
<title>Node1&#45;&gt;Node21</title>
<g id="a_edge30_Node000001_Node000021"><a xlink:title=" ">
<path fill="none" stroke="#63b8ff" d="M840.97,-323.5C821.12,-307 791.01,-282.38 764,-262 744.51,-247.29 721.72,-231.36 705.29,-220.09"/>
<polygon fill="#63b8ff" stroke="#63b8ff" points="845.04,-326.89 839.76,-325.42 843.12,-325.29 841.2,-323.69 841.2,-323.69 841.2,-323.69 843.12,-325.29 842.64,-321.96 845.04,-326.89 845.04,-326.89"/>
</a>
</g>
</g>
<!-- Node2&#45;&gt;Node3 -->
<g id="edge2_Node000002_Node000003" class="edge">
<title>Node2&#45;&gt;Node3</title>
<g id="a_edge2_Node000002_Node000003"><a xlink:title=" ">
<path fill="none" stroke="#63b8ff" d="M655.45,-493.2C616.23,-521.14 541.92,-574.09 505.58,-599.98"/>
<polygon fill="#63b8ff" stroke="#63b8ff" points="659.6,-490.25 656.83,-494.98 657.56,-491.7 655.52,-493.15 655.52,-493.15 655.52,-493.15 657.56,-491.7 654.22,-491.32 659.6,-490.25 659.6,-490.25"/>
</a>
</g>
</g>
<!-- Node2&#45;&gt;Node5 -->
<g id="edge6_Node000002_Node000005" class="edge">
<title>Node2&#45;&gt;Node5</title>
<g id="a_edge6_Node000002_Node000005"><a xlink:title=" ">
<path fill="none" stroke="#63b8ff" d="M614.92,-491.35C540.77,-509.7 421.49,-539.22 349.64,-556.99"/>
<polygon fill="#63b8ff" stroke="#63b8ff" points="620.18,-490.05 615.87,-493.44 617.75,-490.65 615.33,-491.25 615.33,-491.25 615.33,-491.25 617.75,-490.65 614.79,-489.07 620.18,-490.05 620.18,-490.05"/>
</a>
</g>
</g>
<!-- Node6 -->
<g id="Node000006" class="node">
<title>Node6</title>
<g id="a_Node000006"><a xlink:href="../../d5/d22/classDecklistCardNode.html#a7b120171d897d86486617f654b49546b" target="_top" xlink:title="Copy constructor with new parent assignment.">
<polygon fill="white" stroke="#666666" points="363,-489 213,-489 213,-459 363,-459 363,-489"/>
<text text-anchor="start" x="221" y="-477" font-family="Helvetica,sans-Serif" font-size="10.00">DecklistCardNode::Decklist</text>
<text text-anchor="middle" x="288" y="-466" font-family="Helvetica,sans-Serif" font-size="10.00">CardNode</text>
</a>
</g>
</g>
<!-- Node2&#45;&gt;Node6 -->
<g id="edge7_Node000002_Node000006" class="edge">
<title>Node2&#45;&gt;Node6</title>
<g id="a_edge7_Node000002_Node000006"><a xlink:title=" ">
<path fill="none" stroke="#63b8ff" d="M601.11,-476.55C588.69,-476.74 576,-476.9 564,-477 492.45,-477.61 474.55,-477.94 403,-477 390.13,-476.83 376.45,-476.55 363.19,-476.24"/>
<polygon fill="#63b8ff" stroke="#63b8ff" points="606.42,-476.47 601.45,-478.79 603.92,-476.5 601.42,-476.54 601.42,-476.54 601.42,-476.54 603.92,-476.5 601.38,-474.29 606.42,-476.47 606.42,-476.47"/>
</a>
</g>
</g>
<!-- Node7 -->
<g id="Node000007" class="node">
<title>Node7</title>
<g id="a_Node000007"><a xlink:href="../../d5/d22/classDecklistCardNode.html#a7899e940abdc0900a28209fe4ac5b300" target="_top" xlink:title="Construct a new DecklistCardNode.">
<polygon fill="white" stroke="#666666" points="558.5,-468 408.5,-468 408.5,-438 558.5,-438 558.5,-468"/>
<text text-anchor="start" x="416.5" y="-456" font-family="Helvetica,sans-Serif" font-size="10.00">DecklistCardNode::Decklist</text>
<text text-anchor="middle" x="483.5" y="-445" font-family="Helvetica,sans-Serif" font-size="10.00">CardNode</text>
</a>
</g>
</g>
<!-- Node2&#45;&gt;Node7 -->
<g id="edge8_Node000002_Node000007" class="edge">
<title>Node2&#45;&gt;Node7</title>
<g id="a_edge8_Node000002_Node000007"><a xlink:title=" ">
<path fill="none" stroke="#63b8ff" d="M601.27,-466.07C587.2,-464.5 572.6,-462.86 558.69,-461.31"/>
<polygon fill="#63b8ff" stroke="#63b8ff" points="606.43,-466.65 601.21,-468.33 603.95,-466.37 601.46,-466.09 601.46,-466.09 601.46,-466.09 603.95,-466.37 601.71,-463.86 606.43,-466.65 606.43,-466.65"/>
</a>
</g>
</g>
<!-- Node8 -->
<g id="Node000008" class="node">
<title>Node8</title>
<g id="a_Node000008"><a xlink:href="../../dd/d4f/classDecklistModelCardNode.html#a4643bccf4855fd761324fde67b08ec3c" target="_top" xlink:title="Constructs a model node wrapping a DecklistCardNode.">
<polygon fill="white" stroke="#666666" points="553.5,-420 413.5,-420 413.5,-390 553.5,-390 553.5,-420"/>
<text text-anchor="start" x="421.5" y="-408" font-family="Helvetica,sans-Serif" font-size="10.00">DecklistModelCardNode</text>
<text text-anchor="middle" x="483.5" y="-397" font-family="Helvetica,sans-Serif" font-size="10.00">::DecklistModelCardNode</text>
</a>
</g>
</g>
<!-- Node2&#45;&gt;Node8 -->
<g id="edge10_Node000002_Node000008" class="edge">
<title>Node2&#45;&gt;Node8</title>
<g id="a_edge10_Node000002_Node000008"><a xlink:title=" ">
<path fill="none" stroke="#63b8ff" d="M640.24,-458.03C617.9,-448.97 589.6,-437.88 564,-429 555.15,-425.93 545.66,-422.87 536.44,-420.02"/>
<polygon fill="#63b8ff" stroke="#63b8ff" points="644.92,-459.94 639.44,-460.14 642.6,-458.99 640.29,-458.05 640.29,-458.05 640.29,-458.05 642.6,-458.99 641.14,-455.97 644.92,-459.94 644.92,-459.94"/>
</a>
</g>
</g>
<!-- Node3&#45;&gt;Node4 -->
<g id="edge3_Node000003_Node000004" class="edge">
<title>Node3&#45;&gt;Node4</title>
<g id="a_edge3_Node000003_Node000004"><a xlink:title=" ">
<path fill="none" stroke="#63b8ff" d="M405.89,-615C334.51,-615 228.9,-615 159.17,-615"/>
<polygon fill="#63b8ff" stroke="#63b8ff" points="410.97,-615 405.97,-617.25 408.47,-615 405.97,-615 405.97,-615 405.97,-615 408.47,-615 405.97,-612.75 410.97,-615 410.97,-615"/>
</a>
</g>
</g>
<!-- Node3&#45;&gt;Node5 -->
<g id="edge4_Node000003_Node000005" class="edge">
<title>Node3&#45;&gt;Node5</title>
<g id="a_edge4_Node000003_Node000005"><a xlink:title=" ">
<path fill="none" stroke="#63b8ff" d="M409.93,-598.87C392.46,-594.99 373.87,-590.86 356.64,-587.03"/>
<polygon fill="#63b8ff" stroke="#63b8ff" points="414.82,-599.96 409.45,-601.07 412.38,-599.42 409.94,-598.88 409.94,-598.88 409.94,-598.88 412.38,-599.42 410.43,-596.68 414.82,-599.96 414.82,-599.96"/>
</a>
</g>
</g>
<!-- Node5&#45;&gt;Node4 -->
<g id="edge5_Node000005_Node000004" class="edge">
<title>Node5&#45;&gt;Node4</title>
<g id="a_edge5_Node000005_Node000004"><a xlink:title=" ">
<path fill="none" stroke="#63b8ff" d="M212.18,-588.13C194.17,-592.01 175,-596.14 157.24,-599.97"/>
<polygon fill="#63b8ff" stroke="#63b8ff" points="217.22,-587.04 212.81,-590.29 214.78,-587.57 212.34,-588.09 212.34,-588.09 212.34,-588.09 214.78,-587.57 211.86,-585.89 217.22,-587.04 217.22,-587.04"/>
</a>
</g>
</g>
<!-- Node7&#45;&gt;Node6 -->
<g id="edge9_Node000007_Node000006" class="edge">
<title>Node7&#45;&gt;Node6</title>
<g id="a_edge9_Node000007_Node000006"><a xlink:title=" ">
<path fill="none" stroke="#63b8ff" d="M403,-461.63C389.79,-463.06 376.13,-464.54 363.06,-465.96"/>
<polygon fill="#63b8ff" stroke="#63b8ff" points="408.24,-461.06 403.51,-463.84 405.76,-461.33 403.27,-461.6 403.27,-461.6 403.27,-461.6 405.76,-461.33 403.03,-459.36 408.24,-461.06 408.24,-461.06"/>
</a>
</g>
</g>
<!-- Node11&#45;&gt;Node10 -->
<g id="edge16_Node000011_Node000010" class="edge">
<title>Node11&#45;&gt;Node10</title>
<g id="a_edge16_Node000011_Node000010"><a xlink:title=" ">
<path fill="none" stroke="#63b8ff" d="M421.36,-319C345.36,-319 216.72,-319 143.29,-319"/>
<polygon fill="#63b8ff" stroke="#63b8ff" points="426.74,-319 421.74,-321.25 424.24,-319 421.74,-319 421.74,-319 421.74,-319 424.24,-319 421.74,-316.75 426.74,-319 426.74,-319"/>
</a>
</g>
</g>
<!-- Node11&#45;&gt;Node12 -->
<g id="edge17_Node000011_Node000012" class="edge">
<title>Node11&#45;&gt;Node12</title>
<g id="a_edge17_Node000011_Node000012"><a xlink:title=" ">
<path fill="none" stroke="#63b8ff" d="M421.9,-305.53C397.2,-300.04 368.82,-293.74 344.65,-288.37"/>
<polygon fill="#63b8ff" stroke="#63b8ff" points="426.79,-306.62 421.42,-307.73 424.35,-306.08 421.91,-305.54 421.91,-305.54 421.91,-305.54 424.35,-306.08 422.4,-303.34 426.79,-306.62 426.79,-306.62"/>
</a>
</g>
</g>
<!-- Node12&#45;&gt;Node10 -->
<g id="edge18_Node000012_Node000010" class="edge">
<title>Node12&#45;&gt;Node10</title>
<g id="a_edge18_Node000012_Node000010"><a xlink:title=" ">
<path fill="none" stroke="#63b8ff" d="M226.53,-289.03C200,-294.75 169.07,-301.42 143.12,-307.01"/>
<polygon fill="#63b8ff" stroke="#63b8ff" points="231.43,-287.98 227.01,-291.23 228.98,-288.5 226.54,-289.03 226.54,-289.03 226.54,-289.03 228.98,-288.5 226.07,-286.83 231.43,-287.98 231.43,-287.98"/>
</a>
</g>
</g>
<!-- Node14 -->
<g id="Node000014" class="node">
<title>Node14</title>
<g id="a_Node000014"><a xlink:href="../../d9/de1/classDeckListModel.html#ac31406c75864382e2499851f3c84460e" target="_top" xlink:title="Adds an ExactCard to the specified zone.">
<polygon fill="white" stroke="#666666" points="551,-65.5 416,-65.5 416,-46.5 551,-46.5 551,-65.5"/>
<text text-anchor="middle" x="483.5" y="-53.5" font-family="Helvetica,sans-Serif" font-size="10.00">DeckListModel::addCard</text>
</a>
</g>
</g>
<!-- Node13&#45;&gt;Node14 -->
<g id="edge22_Node000013_Node000014" class="edge">
<title>Node13&#45;&gt;Node14</title>
<g id="a_edge22_Node000013_Node000014"><a xlink:title=" ">
<path fill="none" stroke="#63b8ff" d="M594.58,-64.96C579.97,-63.77 565.01,-62.56 551.01,-61.42"/>
<polygon fill="#63b8ff" stroke="#63b8ff" points="599.94,-65.4 594.78,-67.24 597.45,-65.2 594.96,-64.99 594.96,-64.99 594.96,-64.99 597.45,-65.2 595.14,-62.75 599.94,-65.4 599.94,-65.4"/>
</a>
</g>
</g>
<!-- Node16 -->
<g id="Node000016" class="node">
<title>Node16</title>
<g id="a_Node000016"><a xlink:href="../../d9/de1/classDeckListModel.html#acae2553ca72ba83683de08e15567f7f2" target="_top" xlink:title=" ">
<polygon fill="white" stroke="#666666" points="564,-27.5 403,-27.5 403,-8.5 564,-8.5 564,-27.5"/>
<text text-anchor="middle" x="483.5" y="-15.5" font-family="Helvetica,sans-Serif" font-size="10.00">DeckListModel::findCardNode</text>
</a>
</g>
</g>
<!-- Node13&#45;&gt;Node16 -->
<g id="edge24_Node000013_Node000016" class="edge">
<title>Node13&#45;&gt;Node16</title>
<g id="a_edge24_Node000013_Node000016"><a xlink:title=" ">
<path fill="none" stroke="#63b8ff" d="M609.61,-49.95C594.59,-45.51 578.81,-40.98 564,-37 551.8,-33.72 538.48,-30.43 526.28,-27.52"/>
<polygon fill="#63b8ff" stroke="#63b8ff" points="614.67,-51.45 609.24,-52.19 612.27,-50.74 609.88,-50.03 609.88,-50.03 609.88,-50.03 612.27,-50.74 610.52,-47.87 614.67,-51.45 614.67,-51.45"/>
</a>
</g>
</g>
<!-- Node15 -->
<g id="Node000015" class="node">
<title>Node15</title>
<g id="a_Node000015"><a xlink:href="../../d9/de1/classDeckListModel.html#a889fd2a14a47f7433a130ac36562cb17" target="_top" xlink:title="Adds a card using the preferred printing if available.">
<polygon fill="white" stroke="#666666" points="367,-73 209,-73 209,-43 367,-43 367,-73"/>
<text text-anchor="start" x="217" y="-61" font-family="Helvetica,sans-Serif" font-size="10.00">DeckListModel::addPreferred</text>
<text text-anchor="middle" x="288" y="-50" font-family="Helvetica,sans-Serif" font-size="10.00">PrintingCard</text>
</a>
</g>
</g>
<!-- Node14&#45;&gt;Node15 -->
<g id="edge23_Node000014_Node000015" class="edge">
<title>Node14&#45;&gt;Node15</title>
<g id="a_edge23_Node000014_Node000015"><a xlink:title=" ">
<path fill="none" stroke="#63b8ff" d="M410.7,-56.74C396.47,-56.89 381.47,-57.04 367.04,-57.19"/>
<polygon fill="#63b8ff" stroke="#63b8ff" points="415.91,-56.69 410.93,-58.99 413.41,-56.71 410.91,-56.74 410.91,-56.74 410.91,-56.74 413.41,-56.71 410.89,-54.49 415.91,-56.69 415.91,-56.69"/>
</a>
</g>
</g>
<!-- Node17 -->
<g id="Node000017" class="node">
<title>Node17</title>
<g id="a_Node000017"><a xlink:href="../../d9/de1/classDeckListModel.html#a1d400b8fce69e71fffa9a5e0ae5d3df3" target="_top" xlink:title="Finds a card by name, zone, and optional identifiers.">
<polygon fill="white" stroke="#666666" points="355.5,-24.5 220.5,-24.5 220.5,-5.5 355.5,-5.5 355.5,-24.5"/>
<text text-anchor="middle" x="288" y="-12.5" font-family="Helvetica,sans-Serif" font-size="10.00">DeckListModel::findCard</text>
</a>
</g>
</g>
<!-- Node16&#45;&gt;Node17 -->
<g id="edge25_Node000016_Node000017" class="edge">
<title>Node16&#45;&gt;Node17</title>
<g id="a_edge25_Node000016_Node000017"><a xlink:title=" ">
<path fill="none" stroke="#63b8ff" d="M397.77,-16.69C383.65,-16.47 369.18,-16.24 355.59,-16.03"/>
<polygon fill="#63b8ff" stroke="#63b8ff" points="402.96,-16.77 397.92,-18.94 400.46,-16.73 397.96,-16.69 397.96,-16.69 397.96,-16.69 400.46,-16.73 397.99,-14.44 402.96,-16.77 402.96,-16.77"/>
</a>
</g>
</g>
<!-- Node18 -->
<g id="Node000018" class="node">
<title>Node18</title>
<g id="a_Node000018"><a xlink:href="../../de/dfd/classPrintingSelectorCardSortingWidget.html#a8e67428e0ed93f0e3bec45527671803b" target="_top" xlink:title="Prepend card printings that are contained in the deck to the list of printings.">
<polygon fill="white" stroke="#666666" points="173,-30 0,-30 0,0 173,0 173,-30"/>
<text text-anchor="start" x="8" y="-18" font-family="Helvetica,sans-Serif" font-size="10.00">PrintingSelectorCardSorting</text>
<text text-anchor="middle" x="86.5" y="-7" font-family="Helvetica,sans-Serif" font-size="10.00">Widget::prependPrintingsInDeck</text>
</a>
</g>
</g>
<!-- Node17&#45;&gt;Node18 -->
<g id="edge26_Node000017_Node000018" class="edge">
<title>Node17&#45;&gt;Node18</title>
<g id="a_edge26_Node000017_Node000018"><a xlink:title=" ">
<path fill="none" stroke="#63b8ff" d="M214.95,-15C201.44,-15 187.18,-15 173.3,-15"/>
<polygon fill="#63b8ff" stroke="#63b8ff" points="220.29,-15 215.29,-17.25 217.79,-15 215.29,-15 215.29,-15 215.29,-15 217.79,-15 215.29,-12.75 220.29,-15 220.29,-15"/>
</a>
</g>
</g>
<!-- Node19&#45;&gt;Node16 -->
<g id="edge28_Node000019_Node000016" class="edge">
<title>Node19&#45;&gt;Node16</title>
<g id="a_edge28_Node000019_Node000016"><a xlink:title=" ">
<path fill="none" stroke="#63b8ff" d="M620.05,-18C602.35,-18 582.75,-18 564.08,-18"/>
<polygon fill="#63b8ff" stroke="#63b8ff" points="625.48,-18 620.48,-20.25 622.98,-18 620.48,-18 620.48,-18 620.48,-18 622.98,-18 620.48,-15.75 625.48,-18 625.48,-18"/>
</a>
</g>
</g>
<!-- Node21&#45;&gt;Node11 -->
<g id="edge31_Node000021_Node000011" class="edge">
<title>Node21&#45;&gt;Node11</title>
<g id="a_edge31_Node000021_Node000011"><a xlink:title=" ">
<path fill="none" stroke="#63b8ff" d="M650.35,-222.78C611.86,-245.11 546.49,-283.03 510.39,-303.98"/>
<polygon fill="#63b8ff" stroke="#63b8ff" points="654.91,-220.14 651.71,-224.59 652.74,-221.39 650.58,-222.65 650.58,-222.65 650.58,-222.65 652.74,-221.39 649.45,-220.7 654.91,-220.14 654.91,-220.14"/>
</a>
</g>
</g>
<!-- Node21&#45;&gt;Node12 -->
<g id="edge32_Node000021_Node000012" class="edge">
<title>Node21&#45;&gt;Node12</title>
<g id="a_edge32_Node000021_Node000012"><a xlink:title=" ">
<path fill="none" stroke="#63b8ff" d="M619.91,-216.06C544.5,-229.72 417.33,-252.76 344.56,-265.94"/>
<polygon fill="#63b8ff" stroke="#63b8ff" points="625.25,-215.1 620.73,-218.2 622.79,-215.54 620.33,-215.99 620.33,-215.99 620.33,-215.99 622.79,-215.54 619.93,-213.77 625.25,-215.1 625.25,-215.1"/>
</a>
</g>
</g>
<!-- Node21&#45;&gt;Node20 -->
<g id="edge33_Node000021_Node000020" class="edge">
<title>Node21&#45;&gt;Node20</title>
<g id="a_edge33_Node000021_Node000020"><a xlink:title=" ">
<path fill="none" stroke="#63b8ff" d="M652.97,-187.03C637.21,-176.76 617.29,-163.47 600,-151 583.56,-139.15 582.01,-132.31 564,-123 556.57,-119.16 548.43,-115.83 540.28,-112.97"/>
<polygon fill="#63b8ff" stroke="#63b8ff" points="657.3,-189.85 651.88,-189.01 655.2,-188.49 653.11,-187.12 653.11,-187.12 653.11,-187.12 655.2,-188.49 654.33,-185.24 657.3,-189.85 657.3,-189.85"/>
</a>
</g>
</g>
<!-- Node21&#45;&gt;Node21 -->
<g id="edge34_Node000021_Node000021" class="edge">
<title>Node21&#45;&gt;Node21</title>
<g id="a_edge34_Node000021_Node000021"><a xlink:title=" ">
<path fill="none" stroke="#63b8ff" d="M716.08,-224.89C716.91,-232.11 705.55,-238 682,-238 653.56,-238 642.9,-229.41 650.01,-220.28"/>
<polygon fill="#63b8ff" stroke="#63b8ff" points="713.99,-220.28 718.1,-223.9 715.02,-222.55 716.05,-224.83 716.05,-224.83 716.05,-224.83 715.02,-222.55 714,-225.76 713.99,-220.28 713.99,-220.28"/>
</a>
</g>
</g>
<!-- Node22 -->
<g id="Node000022" class="node">
<title>Node22</title>
<g id="a_Node000022"><a xlink:href="../../d4/d55/classInnerDecklistNode.html#a2bd2961ab32a0813bc3345bed4332844" target="_top" xlink:title="Deserialize this node and its children from XML.">
<polygon fill="white" stroke="#666666" points="540,-162 427,-162 427,-132 540,-132 540,-162"/>
<text text-anchor="start" x="435" y="-150" font-family="Helvetica,sans-Serif" font-size="10.00">InnerDecklistNode::</text>
<text text-anchor="middle" x="483.5" y="-139" font-family="Helvetica,sans-Serif" font-size="10.00">readElement</text>
</a>
</g>
</g>
<!-- Node21&#45;&gt;Node22 -->
<g id="edge35_Node000021_Node000022" class="edge">
<title>Node21&#45;&gt;Node22</title>
<g id="a_edge35_Node000021_Node000022"><a xlink:title=" ">
<path fill="none" stroke="#63b8ff" d="M625.3,-188.56C597.07,-180.23 563.03,-170.18 535.49,-162.05"/>
<polygon fill="#63b8ff" stroke="#63b8ff" points="630.14,-189.99 624.71,-190.73 627.74,-189.28 625.35,-188.57 625.35,-188.57 625.35,-188.57 627.74,-189.28 625.98,-186.41 630.14,-189.99 630.14,-189.99"/>
</a>
</g>
</g>
<!-- Node24 -->
<g id="Node000024" class="node">
<title>Node24</title>
<g id="a_Node000024"><a xlink:href="../../d4/d55/classInnerDecklistNode.html#a482129682c74f0bf00377fab38d0f193" target="_top" xlink:title="Count cards recursively under this node.">
<polygon fill="white" stroke="#666666" points="540,-210 427,-210 427,-180 540,-180 540,-210"/>
<text text-anchor="start" x="435" y="-198" font-family="Helvetica,sans-Serif" font-size="10.00">InnerDecklistNode::</text>
<text text-anchor="middle" x="483.5" y="-187" font-family="Helvetica,sans-Serif" font-size="10.00">recursiveCount</text>
</a>
</g>
</g>
<!-- Node21&#45;&gt;Node24 -->
<g id="edge37_Node000021_Node000024" class="edge">
<title>Node21&#45;&gt;Node24</title>
<g id="a_edge37_Node000021_Node000024"><a xlink:title=" ">
<path fill="none" stroke="#63b8ff" d="M620.42,-201.92C594.84,-200.62 565.25,-199.11 540.22,-197.84"/>
<polygon fill="#63b8ff" stroke="#63b8ff" points="625.48,-202.17 620.37,-204.17 622.98,-202.05 620.49,-201.92 620.49,-201.92 620.49,-201.92 622.98,-202.05 620.6,-199.67 625.48,-202.17 625.48,-202.17"/>
</a>
</g>
</g>
<!-- Node23 -->
<g id="Node000023" class="node">
<title>Node23</title>
<g id="a_Node000023"><a xlink:href="../../db/df8/classDecklistNodeTree.html#ab1b6973cbdcc24db1356271cbed31e72" target="_top" xlink:title="Reads a &quot;zone&quot; section of the xml to this tree.">
<polygon fill="white" stroke="#666666" points="365.5,-162 210.5,-162 210.5,-132 365.5,-132 365.5,-162"/>
<text text-anchor="start" x="218.5" y="-150" font-family="Helvetica,sans-Serif" font-size="10.00">DecklistNodeTree::readZone</text>
<text text-anchor="middle" x="288" y="-139" font-family="Helvetica,sans-Serif" font-size="10.00">Element</text>
</a>
</g>
</g>
<!-- Node22&#45;&gt;Node23 -->
<g id="edge36_Node000022_Node000023" class="edge">
<title>Node22&#45;&gt;Node23</title>
<g id="a_edge36_Node000022_Node000023"><a xlink:title=" ">
<path fill="none" stroke="#63b8ff" d="M421.36,-147C403.64,-147 384.07,-147 365.54,-147"/>
<polygon fill="#63b8ff" stroke="#63b8ff" points="426.79,-147 421.79,-149.25 424.29,-147 421.79,-147 421.79,-147 421.79,-147 424.29,-147 421.79,-144.75 426.79,-147 426.79,-147"/>
</a>
</g>
</g>
<!-- Node24&#45;&gt;Node12 -->
<g id="edge38_Node000024_Node000012" class="edge">
<title>Node24&#45;&gt;Node12</title>
<g id="a_edge38_Node000024_Node000012"><a xlink:title=" ">
<path fill="none" stroke="#63b8ff" d="M434.59,-211.79C424.12,-215.65 413.14,-219.85 403,-224 374.62,-235.63 342.92,-250.22 320.16,-260.99"/>
<polygon fill="#63b8ff" stroke="#63b8ff" points="439.35,-210.04 435.43,-213.88 437.01,-210.9 434.66,-211.76 434.66,-211.76 434.66,-211.76 437.01,-210.9 433.89,-209.65 439.35,-210.04 439.35,-210.04"/>
</a>
</g>
</g>
</g>
</svg>

<g id="navigator" transform="translate(0 0)" fill="#404254">
  <rect fill="#f2f5e9" fill-opacity="0.5" stroke="#606060" stroke-width=".5" x="0" y="0" width="60" height="60"/>
  <use id="zoomplus" xlink:href="#zoomPlus" x="17" y="9" onmousedown="handleZoom(evt,'in')"/>
  <use id="zoomminus" xlink:href="#zoomMin" x="42" y="9" onmousedown="handleZoom(evt,'out')"/>
  <use id="reset" xlink:href="#resetDef" x="30" y="36" onmousedown="handleReset()"/>
   <use id="arrowup" xlink:href="#arrowUp" x="0" y="0" onmousedown="handlePan(0,-1)"/>
  <use id="arrowright" xlink:href="#arrowRight" x="0" y="0" onmousedown="handlePan(1,0)"/>
  <use id="arrowdown" xlink:href="#arrowDown" x="0" y="0" onmousedown="handlePan(0,1)"/>
  <use id="arrowleft" xlink:href="#arrowLeft" x="0" y="0" onmousedown="handlePan(-1,0)"/>
</g>
<svg viewBox="0 0 15 15" width="100%" height="30px" preserveAspectRatio="xMaxYMin meet">
 <g id="arrow_out" transform="scale(0.3 0.3)">
  <a xlink:href="classAbstractDecklistNode_a53333a4fadb640b224d34327c06487e1_icgraph_org.svg" target="_base">
   <rect id="button" ry="5" rx="5" y="6" x="6" height="38" width="38"
        fill="#f2f5e9" fill-opacity="0.5" stroke="#606060" stroke-width="1.0"/>
   <path id="arrow"
     d="M 11.500037,31.436501 C 11.940474,20.09759 22.043105,11.32322 32.158766,21.979434 L 37.068811,17.246167 C 37.068811,17.246167 37.088388,32 37.088388,32 L 22.160133,31.978069 C 22.160133,31.978069 26.997745,27.140456 26.997745,27.140456 C 18.528582,18.264221 13.291696,25.230495 11.500037,31.436501 z"
     style="fill:#404040;"/>
  </a>
 </g>
</svg>

<style type='text/css'>
<![CDATA[
[data-mouse-over-selected='false'] { opacity: 0.7; }
[data-mouse-over-selected='true']  { opacity: 1.0; }
]]>
</style>
<script type="application/ecmascript"><![CDATA[
document.addEventListener('DOMContentLoaded', (event) => {
  highlightEdges();
  highlightAdjacentNodes();
});
]]></script>
</svg>
