<?xml version="1.0" encoding="UTF-8" standalone="no"?>
<!DOCTYPE svg PUBLIC "-//W3C//DTD SVG 1.1//EN"
 "http://www.w3.org/Graphics/SVG/1.1/DTD/svg11.dtd">
<!-- Generated by graphviz version 2.43.0 (0)
 -->
<!-- Title: Server_Room::getServer Pages: 1 -->
<svg width="1536pt" height="454pt"
 viewBox="0.00 0.00 1536.00 454.00" xmlns="http://www.w3.org/2000/svg" xmlns:xlink="http://www.w3.org/1999/xlink">
<g id="graph0" class="graph" transform="scale(1 1) rotate(0) translate(4 450)">
<title>Server_Room::getServer</title>
<!-- Node1 -->
<g id="Node000001" class="node">
<title>Node1</title>
<g id="a_Node000001"><a xlink:title=" ">
<polygon fill="#999999" stroke="#666666" points="1528,-276 1393,-276 1393,-257 1528,-257 1528,-276"/>
<text text-anchor="middle" x="1460.5" y="-264" font-family="Helvetica,sans-Serif" font-size="10.00">Server_Room::getServer</text>
</a>
</g>
</g>
<!-- Node2 -->
<g id="Node000002" class="node">
<title>Node2</title>
<g id="a_Node000002"><a xlink:href="../../df/d89/classServer__Game.html#ae148abd9d42256a5b47ad78779575873" target="_top" xlink:title=" ">
<polygon fill="white" stroke="#666666" points="1325.5,-409 1188.5,-409 1188.5,-390 1325.5,-390 1325.5,-409"/>
<text text-anchor="middle" x="1257" y="-397" font-family="Helvetica,sans-Serif" font-size="10.00">Server_Game::addPlayer</text>
</a>
</g>
</g>
<!-- Node1&#45;&gt;Node2 -->
<g id="edge1_Node000001_Node000002" class="edge">
<title>Node1&#45;&gt;Node2</title>
<g id="a_edge1_Node000001_Node000002"><a xlink:title=" ">
<path fill="none" stroke="#63b8ff" d="M1450.45,-280.47C1434.51,-303.92 1399.1,-351 1357,-375.5 1346.07,-381.86 1333.52,-386.54 1321.12,-389.98"/>
<polygon fill="#63b8ff" stroke="#63b8ff" points="1453.38,-276.11 1452.46,-281.52 1451.99,-278.19 1450.59,-280.27 1450.59,-280.27 1450.59,-280.27 1451.99,-278.19 1448.72,-279.01 1453.38,-276.11 1453.38,-276.11"/>
</a>
</g>
</g>
<!-- Node3 -->
<g id="Node000003" class="node">
<title>Node3</title>
<g id="a_Node000003"><a xlink:href="../../d1/d15/classServer__Room.html#a2ddf4e59d67ca8ab6adb24a2f5fc8cde" target="_top" xlink:title=" ">
<polygon fill="white" stroke="#666666" points="1104,-414.5 961,-414.5 961,-384.5 1104,-384.5 1104,-414.5"/>
<text text-anchor="start" x="969" y="-402.5" font-family="Helvetica,sans-Serif" font-size="10.00">Server_Room::processJoin</text>
<text text-anchor="middle" x="1032.5" y="-391.5" font-family="Helvetica,sans-Serif" font-size="10.00">GameCommand</text>
</a>
</g>
</g>
<!-- Node1&#45;&gt;Node3 -->
<g id="edge18_Node000001_Node000003" class="edge">
<title>Node1&#45;&gt;Node3</title>
<g id="a_edge18_Node000001_Node000003"><a xlink:title=" ">
<path fill="none" stroke="#63b8ff" d="M1445.84,-279.98C1427.35,-297.37 1392.57,-327.2 1357,-342.5 1334.15,-352.33 1192.14,-375.24 1104.04,-388.84"/>
<polygon fill="#63b8ff" stroke="#63b8ff" points="1449.74,-276.25 1447.67,-281.33 1447.93,-277.98 1446.12,-279.7 1446.12,-279.7 1446.12,-279.7 1447.93,-277.98 1444.57,-278.07 1449.74,-276.25 1449.74,-276.25"/>
</a>
</g>
</g>
<!-- Node10 -->
<g id="Node000010" class="node">
<title>Node10</title>
<g id="a_Node000010"><a xlink:href="../../df/d89/classServer__Game.html#a626ba6797618028591e6dbc4d58af494" target="_top" xlink:title=" ">
<polygon fill="white" stroke="#666666" points="1324.5,-446 1189.5,-446 1189.5,-427 1324.5,-427 1324.5,-446"/>
<text text-anchor="middle" x="1257" y="-434" font-family="Helvetica,sans-Serif" font-size="10.00">Server_Game::checkJoin</text>
</a>
</g>
</g>
<!-- Node1&#45;&gt;Node10 -->
<g id="edge9_Node000001_Node000010" class="edge">
<title>Node1&#45;&gt;Node10</title>
<g id="a_edge9_Node000001_Node000010"><a xlink:title=" ">
<path fill="none" stroke="#63b8ff" d="M1454.15,-281.27C1442.08,-312.27 1409.65,-384.11 1357,-418.5 1347.35,-424.81 1336.09,-429.06 1324.7,-431.89"/>
<polygon fill="#63b8ff" stroke="#63b8ff" points="1456.04,-276.31 1456.36,-281.78 1455.14,-278.65 1454.25,-280.98 1454.25,-280.98 1454.25,-280.98 1455.14,-278.65 1452.15,-280.18 1456.04,-276.31 1456.04,-276.31"/>
</a>
</g>
</g>
<!-- Node11 -->
<g id="Node000011" class="node">
<title>Node11</title>
<g id="a_Node000011"><a xlink:href="../../d8/d21/classServer__Player.html#a0c6fbae57fde3d643f668ac443c1b50d" target="_top" xlink:title=" ">
<polygon fill="white" stroke="#666666" points="1340,-333 1174,-333 1174,-314 1340,-314 1340,-333"/>
<text text-anchor="middle" x="1257" y="-321" font-family="Helvetica,sans-Serif" font-size="10.00">Server_Player::cmdDeckSelect</text>
</a>
</g>
</g>
<!-- Node1&#45;&gt;Node11 -->
<g id="edge11_Node000001_Node000011" class="edge">
<title>Node1&#45;&gt;Node11</title>
<g id="a_edge11_Node000001_Node000011"><a xlink:title=" ">
<path fill="none" stroke="#63b8ff" d="M1426.87,-277.68C1406.82,-284.38 1380.56,-292.86 1357,-299.5 1338.62,-304.68 1318.12,-309.76 1300.57,-313.9"/>
<polygon fill="#63b8ff" stroke="#63b8ff" points="1431.83,-276.02 1427.8,-279.74 1429.46,-276.82 1427.09,-277.61 1427.09,-277.61 1427.09,-277.61 1429.46,-276.82 1426.37,-275.48 1431.83,-276.02 1431.83,-276.02"/>
</a>
</g>
</g>
<!-- Node12 -->
<g id="Node000012" class="node">
<title>Node12</title>
<g id="a_Node000012"><a xlink:href="../../d0/d00/classServer__AbstractParticipant.html#a42c76d0aa90f8f7b613aaa51085d1619" target="_top" xlink:title=" ">
<polygon fill="white" stroke="#666666" points="904.5,-69.5 758.5,-69.5 758.5,-39.5 904.5,-39.5 904.5,-69.5"/>
<text text-anchor="start" x="766.5" y="-57.5" font-family="Helvetica,sans-Serif" font-size="10.00">Server_AbstractParticipant</text>
<text text-anchor="middle" x="831.5" y="-46.5" font-family="Helvetica,sans-Serif" font-size="10.00">::cmdGameSay</text>
</a>
</g>
</g>
<!-- Node1&#45;&gt;Node12 -->
<g id="edge12_Node000001_Node000012" class="edge">
<title>Node1&#45;&gt;Node12</title>
<g id="a_edge12_Node000001_Node000012"><a xlink:title=" ">
<path fill="none" stroke="#63b8ff" d="M1452.35,-252.15C1438.07,-224.98 1403.35,-165.91 1357,-134.5 1218.6,-40.72 1012.8,-39.7 904.74,-47.05"/>
<polygon fill="#63b8ff" stroke="#63b8ff" points="1454.78,-256.84 1450.48,-253.44 1453.63,-254.62 1452.48,-252.4 1452.48,-252.4 1452.48,-252.4 1453.63,-254.62 1454.48,-251.37 1454.78,-256.84 1454.78,-256.84"/>
</a>
</g>
</g>
<!-- Node14 -->
<g id="Node000014" class="node">
<title>Node14</title>
<g id="a_Node000014"><a xlink:href="../../df/d89/classServer__Game.html#aba1c3426f031a94d6e699991cdec18a8" target="_top" xlink:title=" ">
<polygon fill="white" stroke="#666666" points="908,-219.5 755,-219.5 755,-189.5 908,-189.5 908,-219.5"/>
<text text-anchor="start" x="763" y="-207.5" font-family="Helvetica,sans-Serif" font-size="10.00">Server_Game::doStartGame</text>
<text text-anchor="middle" x="831.5" y="-196.5" font-family="Helvetica,sans-Serif" font-size="10.00">IfReady</text>
</a>
</g>
</g>
<!-- Node1&#45;&gt;Node14 -->
<g id="edge14_Node000001_Node000014" class="edge">
<title>Node1&#45;&gt;Node14</title>
<g id="a_edge14_Node000001_Node000014"><a xlink:title=" ">
<path fill="none" stroke="#63b8ff" d="M1431.2,-255.22C1410.89,-247.67 1382.7,-238.26 1357,-233.5 1199.41,-204.28 1010.99,-201.51 908.35,-202.65"/>
<polygon fill="#63b8ff" stroke="#63b8ff" points="1435.92,-257 1430.45,-257.34 1433.58,-256.12 1431.24,-255.24 1431.24,-255.24 1431.24,-255.24 1433.58,-256.12 1432.04,-253.13 1435.92,-257 1435.92,-257"/>
</a>
</g>
</g>
<!-- Node15 -->
<g id="Node000015" class="node">
<title>Node15</title>
<g id="a_Node000015"><a xlink:href="../../df/d89/classServer__Game.html#a7d8b0ff8f6ab5452f4f89fc36e0d554b" target="_top" xlink:title=" ">
<polygon fill="white" stroke="#666666" points="703.5,-257 548.5,-257 548.5,-238 703.5,-238 703.5,-257"/>
<text text-anchor="middle" x="626" y="-245" font-family="Helvetica,sans-Serif" font-size="10.00">Server_Game::Server_Game</text>
</a>
</g>
</g>
<!-- Node1&#45;&gt;Node15 -->
<g id="edge27_Node000001_Node000015" class="edge">
<title>Node1&#45;&gt;Node15</title>
<g id="a_edge27_Node000001_Node000015"><a xlink:title=" ">
<path fill="none" stroke="#63b8ff" d="M1387.78,-264.86C1231.97,-261.31 863.71,-252.9 703.58,-249.25"/>
<polygon fill="#63b8ff" stroke="#63b8ff" points="1392.78,-264.98 1387.73,-267.11 1390.28,-264.92 1387.78,-264.86 1387.78,-264.86 1387.78,-264.86 1390.28,-264.92 1387.83,-262.61 1392.78,-264.98 1392.78,-264.98"/>
</a>
</g>
</g>
<!-- Node16 -->
<g id="Node000016" class="node">
<title>Node16</title>
<g id="a_Node000016"><a xlink:href="../../df/d89/classServer__Game.html#aed17a87fc8ae58787657b3b74b46a583" target="_top" xlink:title=" ">
<polygon fill="white" stroke="#666666" points="1121,-295 944,-295 944,-276 1121,-276 1121,-295"/>
<text text-anchor="middle" x="1032.5" y="-283" font-family="Helvetica,sans-Serif" font-size="10.00">Server_Game::pingClockTimeout</text>
</a>
</g>
</g>
<!-- Node1&#45;&gt;Node16 -->
<g id="edge16_Node000001_Node000016" class="edge">
<title>Node1&#45;&gt;Node16</title>
<g id="a_edge16_Node000001_Node000016"><a xlink:title=" ">
<path fill="none" stroke="#63b8ff" d="M1387.72,-269.7C1314.31,-272.98 1200.16,-278.07 1121.38,-281.58"/>
<polygon fill="#63b8ff" stroke="#63b8ff" points="1392.94,-269.47 1388.04,-271.94 1390.44,-269.58 1387.94,-269.69 1387.94,-269.69 1387.94,-269.69 1390.44,-269.58 1387.84,-267.44 1392.94,-269.47 1392.94,-269.47"/>
</a>
</g>
</g>
<!-- Node17 -->
<g id="Node000017" class="node">
<title>Node17</title>
<g id="a_Node000017"><a xlink:href="../../df/d89/classServer__Game.html#a9352f37fe919fef8df4d7e4541656ed1" target="_top" xlink:title=" ">
<polygon fill="white" stroke="#666666" points="1346,-162 1168,-162 1168,-143 1346,-143 1346,-162"/>
<text text-anchor="middle" x="1257" y="-150" font-family="Helvetica,sans-Serif" font-size="10.00">Server_Game::removeParticipant</text>
</a>
</g>
</g>
<!-- Node1&#45;&gt;Node17 -->
<g id="edge19_Node000001_Node000017" class="edge">
<title>Node1&#45;&gt;Node17</title>
<g id="a_edge19_Node000001_Node000017"><a xlink:title=" ">
<path fill="none" stroke="#63b8ff" d="M1443.18,-253.69C1423.48,-238.59 1389.01,-213.31 1357,-195.5 1333.09,-182.2 1304.25,-170.08 1283.89,-162.13"/>
<polygon fill="#63b8ff" stroke="#63b8ff" points="1447.39,-256.93 1442.05,-255.66 1445.41,-255.41 1443.43,-253.88 1443.43,-253.88 1443.43,-253.88 1445.41,-255.41 1444.8,-252.1 1447.39,-256.93 1447.39,-256.93"/>
</a>
</g>
</g>
<!-- Node22 -->
<g id="Node000022" class="node">
<title>Node22</title>
<g id="a_Node000022"><a xlink:href="../../df/d89/classServer__Game.html#a25a2db55e58234d75cecaea351fa0b0d" target="_top" xlink:title=" ">
<polygon fill="white" stroke="#666666" points="1357,-19 1157,-19 1157,0 1357,0 1357,-19"/>
<text text-anchor="middle" x="1257" y="-7" font-family="Helvetica,sans-Serif" font-size="10.00">Server_Game::storeGameInformation</text>
</a>
</g>
</g>
<!-- Node1&#45;&gt;Node22 -->
<g id="edge28_Node000001_Node000022" class="edge">
<title>Node1&#45;&gt;Node22</title>
<g id="a_edge28_Node000001_Node000022"><a xlink:title=" ">
<path fill="none" stroke="#63b8ff" d="M1457.53,-251.6C1451.24,-210.16 1427.69,-92.69 1357,-33.5 1349.47,-27.2 1340.56,-22.5 1331.21,-19.01"/>
<polygon fill="#63b8ff" stroke="#63b8ff" points="1458.28,-256.71 1455.33,-252.09 1457.92,-254.24 1457.56,-251.76 1457.56,-251.76 1457.56,-251.76 1457.92,-254.24 1459.78,-251.44 1458.28,-256.71 1458.28,-256.71"/>
</a>
</g>
</g>
<!-- Node2&#45;&gt;Node3 -->
<g id="edge2_Node000002_Node000003" class="edge">
<title>Node2&#45;&gt;Node3</title>
<g id="a_edge2_Node000002_Node000003"><a xlink:title=" ">
<path fill="none" stroke="#63b8ff" d="M1183.31,-399.5C1157.94,-399.5 1129.52,-399.5 1104.31,-399.5"/>
<polygon fill="#63b8ff" stroke="#63b8ff" points="1188.34,-399.5 1183.34,-401.75 1185.84,-399.5 1183.34,-399.5 1183.34,-399.5 1183.34,-399.5 1185.84,-399.5 1183.34,-397.25 1188.34,-399.5 1188.34,-399.5"/>
</a>
</g>
</g>
<!-- Node4 -->
<g id="Node000004" class="node">
<title>Node4</title>
<g id="a_Node000004"><a xlink:href="../../d0/d23/classServer__ProtocolHandler.html#a80a629f238d2f278fa85e82569ce5db5" target="_top" xlink:title=" ">
<polygon fill="white" stroke="#666666" points="897,-438.5 766,-438.5 766,-408.5 897,-408.5 897,-438.5"/>
<text text-anchor="start" x="774" y="-426.5" font-family="Helvetica,sans-Serif" font-size="10.00">Server_ProtocolHandler</text>
<text text-anchor="middle" x="831.5" y="-415.5" font-family="Helvetica,sans-Serif" font-size="10.00">::cmdJoinGame</text>
</a>
</g>
</g>
<!-- Node3&#45;&gt;Node4 -->
<g id="edge3_Node000003_Node000004" class="edge">
<title>Node3&#45;&gt;Node4</title>
<g id="a_edge3_Node000003_Node000004"><a xlink:title=" ">
<path fill="none" stroke="#63b8ff" d="M955.38,-408.68C936.13,-411 915.64,-413.47 897.02,-415.72"/>
<polygon fill="#63b8ff" stroke="#63b8ff" points="960.78,-408.03 956.09,-410.86 958.3,-408.33 955.82,-408.63 955.82,-408.63 955.82,-408.63 958.3,-408.33 955.55,-406.39 960.78,-408.03 960.78,-408.03"/>
</a>
</g>
</g>
<!-- Node9 -->
<g id="Node000009" class="node">
<title>Node9</title>
<g id="a_Node000009"><a xlink:href="../../db/d00/classServer.html#a788482387416335455df80db85ea8b41" target="_top" xlink:title=" ">
<polygon fill="white" stroke="#666666" points="902.5,-390.5 760.5,-390.5 760.5,-360.5 902.5,-360.5 902.5,-390.5"/>
<text text-anchor="start" x="768.5" y="-378.5" font-family="Helvetica,sans-Serif" font-size="10.00">Server::externalJoinGame</text>
<text text-anchor="middle" x="831.5" y="-367.5" font-family="Helvetica,sans-Serif" font-size="10.00">CommandReceived</text>
</a>
</g>
</g>
<!-- Node3&#45;&gt;Node9 -->
<g id="edge8_Node000003_Node000009" class="edge">
<title>Node3&#45;&gt;Node9</title>
<g id="a_edge8_Node000003_Node000009"><a xlink:title=" ">
<path fill="none" stroke="#63b8ff" d="M955.43,-390.33C938.09,-388.23 919.74,-386.02 902.66,-383.96"/>
<polygon fill="#63b8ff" stroke="#63b8ff" points="960.78,-390.97 955.55,-392.61 958.3,-390.67 955.82,-390.37 955.82,-390.37 955.82,-390.37 958.3,-390.67 956.09,-388.14 960.78,-390.97 960.78,-390.97"/>
</a>
</g>
</g>
<!-- Node5 -->
<g id="Node000005" class="node">
<title>Node5</title>
<g id="a_Node000005"><a xlink:href="../../d0/d23/classServer__ProtocolHandler.html#a0e26caee42790f25027eb553089365ca" target="_top" xlink:title=" ">
<polygon fill="white" stroke="#666666" points="719,-438.5 533,-438.5 533,-408.5 719,-408.5 719,-438.5"/>
<text text-anchor="start" x="541" y="-426.5" font-family="Helvetica,sans-Serif" font-size="10.00">Server_ProtocolHandler</text>
<text text-anchor="middle" x="626" y="-415.5" font-family="Helvetica,sans-Serif" font-size="10.00">::processRoomCommandContainer</text>
</a>
</g>
</g>
<!-- Node4&#45;&gt;Node5 -->
<g id="edge4_Node000004_Node000005" class="edge">
<title>Node4&#45;&gt;Node5</title>
<g id="a_edge4_Node000004_Node000005"><a xlink:title=" ">
<path fill="none" stroke="#63b8ff" d="M760.55,-423.5C747.16,-423.5 732.96,-423.5 719,-423.5"/>
<polygon fill="#63b8ff" stroke="#63b8ff" points="765.83,-423.5 760.83,-425.75 763.33,-423.5 760.83,-423.5 760.83,-423.5 760.83,-423.5 763.33,-423.5 760.83,-421.25 765.83,-423.5 765.83,-423.5"/>
</a>
</g>
</g>
<!-- Node6 -->
<g id="Node000006" class="node">
<title>Node6</title>
<g id="a_Node000006"><a xlink:href="../../d0/d23/classServer__ProtocolHandler.html#a5d3b699ffcf0dcfb4a3f42d180a8a2f7" target="_top" xlink:title=" ">
<polygon fill="white" stroke="#666666" points="497,-438.5 339,-438.5 339,-408.5 497,-408.5 497,-438.5"/>
<text text-anchor="start" x="347" y="-426.5" font-family="Helvetica,sans-Serif" font-size="10.00">Server_ProtocolHandler</text>
<text text-anchor="middle" x="418" y="-415.5" font-family="Helvetica,sans-Serif" font-size="10.00">::processCommandContainer</text>
</a>
</g>
</g>
<!-- Node5&#45;&gt;Node6 -->
<g id="edge5_Node000005_Node000006" class="edge">
<title>Node5&#45;&gt;Node6</title>
<g id="a_edge5_Node000005_Node000006"><a xlink:title=" ">
<path fill="none" stroke="#63b8ff" d="M527.82,-423.5C517.56,-423.5 507.23,-423.5 497.23,-423.5"/>
<polygon fill="#63b8ff" stroke="#63b8ff" points="532.85,-423.5 527.85,-425.75 530.35,-423.5 527.85,-423.5 527.85,-423.5 527.85,-423.5 530.35,-423.5 527.85,-421.25 532.85,-423.5 532.85,-423.5"/>
</a>
</g>
</g>
<!-- Node7 -->
<g id="Node000007" class="node">
<title>Node7</title>
<g id="a_Node000007"><a xlink:href="../../d0/dc3/classLocalServerInterface.html#a82c6e84346069a3b7506835a6ec58c4a" target="_top" xlink:title=" ">
<polygon fill="white" stroke="#666666" points="303,-438.5 186,-438.5 186,-408.5 303,-408.5 303,-438.5"/>
<text text-anchor="start" x="194" y="-426.5" font-family="Helvetica,sans-Serif" font-size="10.00">LocalServerInterface</text>
<text text-anchor="middle" x="244.5" y="-415.5" font-family="Helvetica,sans-Serif" font-size="10.00">::itemFromClient</text>
</a>
</g>
</g>
<!-- Node6&#45;&gt;Node7 -->
<g id="edge6_Node000006_Node000007" class="edge">
<title>Node6&#45;&gt;Node7</title>
<g id="a_edge6_Node000006_Node000007"><a xlink:title=" ">
<path fill="none" stroke="#63b8ff" d="M333.7,-423.5C323.34,-423.5 312.94,-423.5 303.09,-423.5"/>
<polygon fill="#63b8ff" stroke="#63b8ff" points="338.78,-423.5 333.78,-425.75 336.28,-423.5 333.78,-423.5 333.78,-423.5 333.78,-423.5 336.28,-423.5 333.78,-421.25 338.78,-423.5 338.78,-423.5"/>
</a>
</g>
</g>
<!-- Node8 -->
<g id="Node000008" class="node">
<title>Node8</title>
<g id="a_Node000008"><a xlink:href="../../df/d75/classLocalClient.html#addefec8fa45b1636777b33c42ac033f5" target="_top" xlink:title=" ">
<polygon fill="white" stroke="#666666" points="150,-438.5 0,-438.5 0,-408.5 150,-408.5 150,-438.5"/>
<text text-anchor="start" x="8" y="-426.5" font-family="Helvetica,sans-Serif" font-size="10.00">LocalClient::sendCommand</text>
<text text-anchor="middle" x="75" y="-415.5" font-family="Helvetica,sans-Serif" font-size="10.00">Container</text>
</a>
</g>
</g>
<!-- Node7&#45;&gt;Node8 -->
<g id="edge7_Node000007_Node000008" class="edge">
<title>Node7&#45;&gt;Node8</title>
<g id="a_edge7_Node000007_Node000008"><a xlink:title=" ">
<path fill="none" stroke="#63b8ff" d="M180.67,-423.5C170.67,-423.5 160.25,-423.5 150.02,-423.5"/>
<polygon fill="#63b8ff" stroke="#63b8ff" points="185.86,-423.5 180.86,-425.75 183.36,-423.5 180.86,-423.5 180.86,-423.5 180.86,-423.5 183.36,-423.5 180.86,-421.25 185.86,-423.5 185.86,-423.5"/>
</a>
</g>
</g>
<!-- Node10&#45;&gt;Node3 -->
<g id="edge10_Node000010_Node000003" class="edge">
<title>Node10&#45;&gt;Node3</title>
<g id="a_edge10_Node000010_Node000003"><a xlink:title=" ">
<path fill="none" stroke="#63b8ff" d="M1193.57,-426.12C1165.75,-421.49 1132.85,-416.02 1104.13,-411.25"/>
<polygon fill="#63b8ff" stroke="#63b8ff" points="1198.7,-426.97 1193.4,-428.37 1196.23,-426.56 1193.77,-426.15 1193.77,-426.15 1193.77,-426.15 1196.23,-426.56 1194.14,-423.93 1198.7,-426.97 1198.7,-426.97"/>
</a>
</g>
</g>
<!-- Node13 -->
<g id="Node000013" class="node">
<title>Node13</title>
<g id="a_Node000013"><a xlink:href="../../d0/d00/classServer__AbstractParticipant.html#a63f552b237b346eff730db9e6e6ba9dd" target="_top" xlink:title=" ">
<polygon fill="white" stroke="#666666" points="699,-123.5 553,-123.5 553,-93.5 699,-93.5 699,-123.5"/>
<text text-anchor="start" x="561" y="-111.5" font-family="Helvetica,sans-Serif" font-size="10.00">Server_AbstractParticipant</text>
<text text-anchor="middle" x="626" y="-100.5" font-family="Helvetica,sans-Serif" font-size="10.00">::processGameCommand</text>
</a>
</g>
</g>
<!-- Node12&#45;&gt;Node13 -->
<g id="edge13_Node000012_Node000013" class="edge">
<title>Node12&#45;&gt;Node13</title>
<g id="a_edge13_Node000012_Node000013"><a xlink:title=" ">
<path fill="none" stroke="#63b8ff" d="M768.82,-70.87C741.76,-78.05 710.2,-86.42 683.73,-93.45"/>
<polygon fill="#63b8ff" stroke="#63b8ff" points="773.81,-69.54 769.56,-73 771.4,-70.18 768.98,-70.82 768.98,-70.82 768.98,-70.82 771.4,-70.18 768.4,-68.65 773.81,-69.54 773.81,-69.54"/>
</a>
</g>
</g>
<!-- Node14&#45;&gt;Node15 -->
<g id="edge15_Node000014_Node000015" class="edge">
<title>Node14&#45;&gt;Node15</title>
<g id="a_edge15_Node000014_Node000015"><a xlink:title=" ">
<path fill="none" stroke="#63b8ff" d="M754.19,-220.62C726.53,-226.47 696.18,-232.88 672.06,-237.98"/>
<polygon fill="#63b8ff" stroke="#63b8ff" points="759.33,-219.54 754.9,-222.77 756.88,-220.06 754.43,-220.57 754.43,-220.57 754.43,-220.57 756.88,-220.06 753.97,-218.37 759.33,-219.54 759.33,-219.54"/>
</a>
</g>
</g>
<!-- Node16&#45;&gt;Node15 -->
<g id="edge17_Node000016_Node000015" class="edge">
<title>Node16&#45;&gt;Node15</title>
<g id="a_edge17_Node000016_Node000015"><a xlink:title=" ">
<path fill="none" stroke="#63b8ff" d="M938.82,-277.98C885.11,-273.49 816.2,-267.5 755,-261.5 738.43,-259.87 720.66,-258.01 703.79,-256.18"/>
<polygon fill="#63b8ff" stroke="#63b8ff" points="943.97,-278.41 938.8,-280.23 941.48,-278.2 938.99,-277.99 938.99,-277.99 938.99,-277.99 941.48,-278.2 939.18,-275.75 943.97,-278.41 943.97,-278.41"/>
</a>
</g>
</g>
<!-- Node18 -->
<g id="Node000018" class="node">
<title>Node18</title>
<g id="a_Node000018"><a xlink:href="../../d0/d00/classServer__AbstractParticipant.html#a43f1696b01cab0ad2a9a1e5156ddc557" target="_top" xlink:title=" ">
<polygon fill="white" stroke="#666666" points="904.5,-123.5 758.5,-123.5 758.5,-93.5 904.5,-93.5 904.5,-123.5"/>
<text text-anchor="start" x="766.5" y="-111.5" font-family="Helvetica,sans-Serif" font-size="10.00">Server_AbstractParticipant</text>
<text text-anchor="middle" x="831.5" y="-100.5" font-family="Helvetica,sans-Serif" font-size="10.00">::cmdLeaveGame</text>
</a>
</g>
</g>
<!-- Node17&#45;&gt;Node18 -->
<g id="edge20_Node000017_Node000018" class="edge">
<title>Node17&#45;&gt;Node18</title>
<g id="a_edge20_Node000017_Node000018"><a xlink:title=" ">
<path fill="none" stroke="#63b8ff" d="M1162.92,-142.83C1085.14,-134.75 975.82,-123.39 904.57,-115.99"/>
<polygon fill="#63b8ff" stroke="#63b8ff" points="1167.99,-143.36 1162.79,-145.08 1165.51,-143.1 1163.02,-142.84 1163.02,-142.84 1163.02,-142.84 1165.51,-143.1 1163.25,-140.6 1167.99,-143.36 1167.99,-143.36"/>
</a>
</g>
</g>
<!-- Node19 -->
<g id="Node000019" class="node">
<title>Node19</title>
<g id="a_Node000019"><a xlink:href="../../d0/d00/classServer__AbstractParticipant.html#ac494c8732ffe58e8450fd708ad444f75" target="_top" xlink:title=" ">
<polygon fill="white" stroke="#666666" points="1105.5,-105.5 959.5,-105.5 959.5,-75.5 1105.5,-75.5 1105.5,-105.5"/>
<text text-anchor="start" x="967.5" y="-93.5" font-family="Helvetica,sans-Serif" font-size="10.00">Server_AbstractParticipant</text>
<text text-anchor="middle" x="1032.5" y="-82.5" font-family="Helvetica,sans-Serif" font-size="10.00">::disconnectClient</text>
</a>
</g>
</g>
<!-- Node17&#45;&gt;Node19 -->
<g id="edge22_Node000017_Node000019" class="edge">
<title>Node17&#45;&gt;Node19</title>
<g id="a_edge22_Node000017_Node000019"><a xlink:title=" ">
<path fill="none" stroke="#63b8ff" d="M1216.57,-141.51C1180.74,-131.53 1127.57,-116.71 1087.75,-105.62"/>
<polygon fill="#63b8ff" stroke="#63b8ff" points="1221.72,-142.95 1216.3,-143.77 1219.31,-142.28 1216.91,-141.61 1216.91,-141.61 1216.91,-141.61 1219.31,-142.28 1217.51,-139.44 1221.72,-142.95 1221.72,-142.95"/>
</a>
</g>
</g>
<!-- Node20 -->
<g id="Node000020" class="node">
<title>Node20</title>
<g id="a_Node000020"><a xlink:href="../../df/d89/classServer__Game.html#a90ab470c9629310d46b40db6b4deb60d" target="_top" xlink:title=" ">
<polygon fill="white" stroke="#666666" points="1113,-181 952,-181 952,-162 1113,-162 1113,-181"/>
<text text-anchor="middle" x="1032.5" y="-169" font-family="Helvetica,sans-Serif" font-size="10.00">Server_Game::kickParticipant</text>
</a>
</g>
</g>
<!-- Node17&#45;&gt;Node20 -->
<g id="edge23_Node000017_Node000020" class="edge">
<title>Node17&#45;&gt;Node20</title>
<g id="a_edge23_Node000017_Node000020"><a xlink:title=" ">
<path fill="none" stroke="#63b8ff" d="M1162.67,-160.47C1146.27,-161.87 1129.34,-163.32 1113.35,-164.68"/>
<polygon fill="#63b8ff" stroke="#63b8ff" points="1167.74,-160.04 1162.95,-162.7 1165.25,-160.25 1162.76,-160.46 1162.76,-160.46 1162.76,-160.46 1165.25,-160.25 1162.57,-158.22 1167.74,-160.04 1167.74,-160.04"/>
</a>
</g>
</g>
<!-- Node18&#45;&gt;Node13 -->
<g id="edge21_Node000018_Node000013" class="edge">
<title>Node18&#45;&gt;Node13</title>
<g id="a_edge21_Node000018_Node000013"><a xlink:title=" ">
<path fill="none" stroke="#63b8ff" d="M753.03,-108.5C735.38,-108.5 716.7,-108.5 699.28,-108.5"/>
<polygon fill="#63b8ff" stroke="#63b8ff" points="758.47,-108.5 753.47,-110.75 755.97,-108.5 753.47,-108.5 753.47,-108.5 753.47,-108.5 755.97,-108.5 753.47,-106.25 758.47,-108.5 758.47,-108.5"/>
</a>
</g>
</g>
<!-- Node20&#45;&gt;Node14 -->
<g id="edge26_Node000020_Node000014" class="edge">
<title>Node20&#45;&gt;Node14</title>
<g id="a_edge26_Node000020_Node000014"><a xlink:title=" ">
<path fill="none" stroke="#63b8ff" d="M968.85,-181.89C949.63,-185.08 928.27,-188.62 908.27,-191.93"/>
<polygon fill="#63b8ff" stroke="#63b8ff" points="974.21,-181 969.64,-184.04 971.74,-181.41 969.28,-181.82 969.28,-181.82 969.28,-181.82 971.74,-181.41 968.91,-179.6 974.21,-181 974.21,-181"/>
</a>
</g>
</g>
<!-- Node21 -->
<g id="Node000021" class="node">
<title>Node21</title>
<g id="a_Node000021"><a xlink:href="../../d0/d00/classServer__AbstractParticipant.html#a7e9e096ae8c7cbf723b57a6599998af8" target="_top" xlink:title=" ">
<polygon fill="white" stroke="#666666" points="904.5,-171.5 758.5,-171.5 758.5,-141.5 904.5,-141.5 904.5,-171.5"/>
<text text-anchor="start" x="766.5" y="-159.5" font-family="Helvetica,sans-Serif" font-size="10.00">Server_AbstractParticipant</text>
<text text-anchor="middle" x="831.5" y="-148.5" font-family="Helvetica,sans-Serif" font-size="10.00">::cmdKickFromGame</text>
</a>
</g>
</g>
<!-- Node20&#45;&gt;Node21 -->
<g id="edge24_Node000020_Node000021" class="edge">
<title>Node20&#45;&gt;Node21</title>
<g id="a_edge24_Node000020_Node000021"><a xlink:title=" ">
<path fill="none" stroke="#63b8ff" d="M946.85,-165.12C932.85,-164.06 918.45,-162.98 904.79,-161.95"/>
<polygon fill="#63b8ff" stroke="#63b8ff" points="951.99,-165.51 946.84,-167.37 949.5,-165.32 947.01,-165.13 947.01,-165.13 947.01,-165.13 949.5,-165.32 947.18,-162.89 951.99,-165.51 951.99,-165.51"/>
</a>
</g>
</g>
<!-- Node21&#45;&gt;Node13 -->
<g id="edge25_Node000021_Node000013" class="edge">
<title>Node21&#45;&gt;Node13</title>
<g id="a_edge25_Node000021_Node000013"><a xlink:title=" ">
<path fill="none" stroke="#63b8ff" d="M761.8,-140.29C738.77,-134.86 713.22,-128.84 690.6,-123.5"/>
<polygon fill="#63b8ff" stroke="#63b8ff" points="766.67,-141.44 761.29,-142.49 764.24,-140.87 761.8,-140.3 761.8,-140.3 761.8,-140.3 764.24,-140.87 762.32,-138.11 766.67,-141.44 766.67,-141.44"/>
</a>
</g>
</g>
<!-- Node23 -->
<g id="Node000023" class="node">
<title>Node23</title>
<g id="a_Node000023"><a xlink:href="../../df/d89/classServer__Game.html#a688712ac5fe43e7d1f4e8655a0911969" target="_top" xlink:title=" ">
<polygon fill="white" stroke="#666666" points="1114,-19 951,-19 951,0 1114,0 1114,-19"/>
<text text-anchor="middle" x="1032.5" y="-7" font-family="Helvetica,sans-Serif" font-size="10.00">Server_Game::~Server_Game</text>
</a>
</g>
</g>
<!-- Node22&#45;&gt;Node23 -->
<g id="edge29_Node000022_Node000023" class="edge">
<title>Node22&#45;&gt;Node23</title>
<g id="a_edge29_Node000022_Node000023"><a xlink:title=" ">
<path fill="none" stroke="#63b8ff" d="M1151.77,-9.5C1139.14,-9.5 1126.39,-9.5 1114.18,-9.5"/>
<polygon fill="#63b8ff" stroke="#63b8ff" points="1156.79,-9.5 1151.79,-11.75 1154.29,-9.5 1151.79,-9.5 1151.79,-9.5 1151.79,-9.5 1154.29,-9.5 1151.79,-7.25 1156.79,-9.5 1156.79,-9.5"/>
</a>
</g>
</g>
</g>
</svg>
