<?xml version="1.0" encoding="UTF-8" standalone="no"?>
<!DOCTYPE svg PUBLIC "-//W3C//DTD SVG 1.1//EN"
 "http://www.w3.org/Graphics/SVG/1.1/DTD/svg11.dtd">
<!-- Generated by graphviz version 2.43.0 (0)
 -->
<!-- Title: CockatriceXml4Parser::loadSetsFromXml Pages: 1 -->
<!--zoomable 76 -->

<svg id="main" version="1.1" xmlns="http://www.w3.org/2000/svg" xmlns:xlink="http://www.w3.org/1999/xlink" xml:space="preserve" onload="init(evt)">

<style type="text/css"><![CDATA[
.node, .edge {opacity: 0.7;}
.node.selected, .edge.selected {opacity: 1;}
.edge:hover path { stroke: red; }
.edge:hover polygon { stroke: red; fill: red; }
]]></style>

<defs>
  <circle id="rim" cx="0" cy="0" r="7"/>
  <circle id="rim2" cx="0" cy="0" r="3.5"/>
  <g id="zoomPlus">
    <use xlink:href="#rim" fill="#404040"><set attributeName="fill" to="#808080" begin="zoomplus.mouseover" end="zoomplus.mouseout"/></use>
    <path d="M-4,0h8M0,-4v8" fill="none" stroke="white" stroke-width="1.5" pointer-events="none"/>
  </g>
  <g id="zoomMin">
    <use xlink:href="#rim" fill="#404040"><set attributeName="fill" to="#808080" begin="zoomminus.mouseover" end="zoomminus.mouseout"/></use>
    <path d="M-4,0h8" fill="none" stroke="white" stroke-width="1.5" pointer-events="none"/>
  </g>
  <g id="arrowUp" transform="translate(30 24)">
    <use xlink:href="#rim"/>
    <path pointer-events="none" fill="none" stroke="white" stroke-width="1.5" d="M0,-3.0v7 M-2.5,-0.5L0,-3.0L2.5,-0.5"/>
  </g>
  <g id="arrowRight" transform="rotate(90) translate(36 -43)">
    <use xlink:href="#rim"/>
    <path pointer-events="none" fill="none" stroke="white" stroke-width="1.5" d="M0,-3.0v7 M-2.5,-0.5L0,-3.0L2.5,-0.5"/>
  </g>
  <g id="arrowDown" transform="rotate(180) translate(-30 -48)">
    <use xlink:href="#rim"/>
    <path pointer-events="none" fill="none" stroke="white" stroke-width="1.5" d="M0,-3.0v7 M-2.5,-0.5L0,-3.0L2.5,-0.5"/>
  </g>
  <g id="arrowLeft" transform="rotate(270) translate(-36 17)">
    <use xlink:href="#rim"/>
    <path pointer-events="none" fill="none" stroke="white" stroke-width="1.5" d="M0,-3.0v7 M-2.5,-0.5L0,-3.0L2.5,-0.5"/>
  </g>
  <g id="resetDef">
    <use xlink:href="#rim2" fill="#404040"><set attributeName="fill" to="#808080" begin="reset.mouseover" end="reset.mouseout"/></use>
  </g>
</defs>
<script type="application/ecmascript">
var viewWidth = 750;
var viewHeight = 76;
var sectionId = 'dynsection-5';
</script>
<script type="application/ecmascript" xlink:href="../../svg.min.js"/>
<svg id="graph" class="graph">
<g id="viewport">
<title>CockatriceXml4Parser::loadSetsFromXml</title>
<!-- Node1 -->
<g id="Node000001" class="node">
<title>Node1</title>
<g id="a_Node000001"><a xlink:title="Load all &lt;set&gt; elements from the XML stream.">
<polygon fill="#999999" stroke="#666666" points="123,-45.5 0,-45.5 0,-15.5 123,-15.5 123,-45.5"/>
<text text-anchor="start" x="8" y="-33.5" font-family="Helvetica,sans-Serif" font-size="10.00">CockatriceXml4Parser</text>
<text text-anchor="middle" x="61.5" y="-22.5" font-family="Helvetica,sans-Serif" font-size="10.00">::loadSetsFromXml</text>
</a>
</g>
</g>
<!-- Node2 -->
<g id="Node000002" class="node">
<title>Node2</title>
<g id="a_Node000002"><a xlink:href="../../d4/dfe/classICardDatabaseParser.html#a32a66ec769cb3c0462eeac79317fbe08" target="_top" xlink:title="Internal helper to add a set to the global set cache.">
<polygon fill="white" stroke="#666666" points="278,-45.5 159,-45.5 159,-15.5 278,-15.5 278,-45.5"/>
<text text-anchor="start" x="167" y="-33.5" font-family="Helvetica,sans-Serif" font-size="10.00">ICardDatabaseParser</text>
<text text-anchor="middle" x="218.5" y="-22.5" font-family="Helvetica,sans-Serif" font-size="10.00">::internalAddSet</text>
</a>
</g>
</g>
<!-- Node1&#45;&gt;Node2 -->
<g id="edge1_Node000001_Node000002" class="edge">
<title>Node1&#45;&gt;Node2</title>
<g id="a_edge1_Node000001_Node000002"><a xlink:title=" ">
<path fill="none" stroke="#63b8ff" d="M123.32,-30.5C133.28,-30.5 143.64,-30.5 153.67,-30.5"/>
<polygon fill="#63b8ff" stroke="#63b8ff" points="158.89,-30.5 153.89,-32.75 156.39,-30.5 153.89,-30.5 153.89,-30.5 153.89,-30.5 156.39,-30.5 153.89,-28.25 158.89,-30.5 158.89,-30.5"/>
</a>
</g>
</g>
<!-- Node3 -->
<g id="Node000003" class="node">
<title>Node3</title>
<g id="a_Node000003"><a xlink:href="../../d4/dfe/classICardDatabaseParser.html#a8c862a86d060f3d3e659b5ff169edec0" target="_top" xlink:title=" ">
<polygon fill="white" stroke="#666666" points="434.5,-67.5 315.5,-67.5 315.5,-37.5 434.5,-37.5 434.5,-67.5"/>
<text text-anchor="start" x="323.5" y="-55.5" font-family="Helvetica,sans-Serif" font-size="10.00">ICardDatabaseParser</text>
<text text-anchor="middle" x="375" y="-44.5" font-family="Helvetica,sans-Serif" font-size="10.00">::addSet</text>
</a>
</g>
</g>
<!-- Node2&#45;&gt;Node3 -->
<g id="edge2_Node000002_Node000003" class="edge">
<title>Node2&#45;&gt;Node3</title>
<g id="a_edge2_Node000002_Node000003"><a xlink:title=" ">
<path fill="none" stroke="#63b8ff" d="M278.35,-38.88C288.76,-40.36 299.64,-41.91 310.17,-43.41"/>
<polygon fill="#63b8ff" stroke="#63b8ff" points="315.31,-44.14 310.05,-45.67 312.84,-43.79 310.36,-43.44 310.36,-43.44 310.36,-43.44 312.84,-43.79 310.68,-41.21 315.31,-44.14 315.31,-44.14"/>
</a>
</g>
</g>
<!-- Node4 -->
<g id="Node000004" class="node">
<title>Node4</title>
<g id="a_Node000004"><a xlink:href="../../d6/d3d/classCardSet.html#ad03e76c9ff4ce7669d0454525afd1d16" target="_top" xlink:title="Creates and returns a new shared CardSet instance.">
<polygon fill="white" stroke="#666666" points="436,-19 314,-19 314,0 436,0 436,-19"/>
<text text-anchor="middle" x="375" y="-7" font-family="Helvetica,sans-Serif" font-size="10.00">CardSet::newInstance</text>
</a>
</g>
</g>
<!-- Node2&#45;&gt;Node4 -->
<g id="edge3_Node000002_Node000004" class="edge">
<title>Node2&#45;&gt;Node4</title>
<g id="a_edge3_Node000002_Node000004"><a xlink:title=" ">
<path fill="none" stroke="#63b8ff" d="M278.35,-22.5C288.23,-21.16 298.53,-19.76 308.56,-18.39"/>
<polygon fill="#63b8ff" stroke="#63b8ff" points="313.78,-17.69 309.12,-20.59 311.3,-18.02 308.82,-18.36 308.82,-18.36 308.82,-18.36 311.3,-18.02 308.52,-16.13 313.78,-17.69 313.78,-17.69"/>
</a>
</g>
</g>
<!-- Node5 -->
<g id="Node000005" class="node">
<title>Node5</title>
<g id="a_Node000005"><a xlink:href="../../d6/d3d/classCardSet.html#ac38426b471a1ebc442f4eaae615a2ed3" target="_top" xlink:title="Constructs a CardSet.">
<polygon fill="white" stroke="#666666" points="571,-19 472,-19 472,0 571,0 571,-19"/>
<text text-anchor="middle" x="521.5" y="-7" font-family="Helvetica,sans-Serif" font-size="10.00">CardSet::CardSet</text>
</a>
</g>
</g>
<!-- Node4&#45;&gt;Node5 -->
<g id="edge4_Node000004_Node000005" class="edge">
<title>Node4&#45;&gt;Node5</title>
<g id="a_edge4_Node000004_Node000005"><a xlink:title=" ">
<path fill="none" stroke="#63b8ff" d="M436.03,-9.5C446.19,-9.5 456.7,-9.5 466.69,-9.5"/>
<polygon fill="#63b8ff" stroke="#63b8ff" points="471.87,-9.5 466.87,-11.75 469.37,-9.5 466.87,-9.5 466.87,-9.5 466.87,-9.5 469.37,-9.5 466.87,-7.25 471.87,-9.5 471.87,-9.5"/>
</a>
</g>
</g>
<!-- Node6 -->
<g id="Node000006" class="node">
<title>Node6</title>
<g id="a_Node000006"><a xlink:href="../../d6/d3d/classCardSet.html#aac8f4705062d24c60f31b02617a931f4" target="_top" xlink:title="Loads state values (enabled, known, sort key) from configuration.">
<polygon fill="white" stroke="#666666" points="742,-19 607,-19 607,0 742,0 742,-19"/>
<text text-anchor="middle" x="674.5" y="-7" font-family="Helvetica,sans-Serif" font-size="10.00">CardSet::loadSetOptions</text>
</a>
</g>
</g>
<!-- Node5&#45;&gt;Node6 -->
<g id="edge5_Node000005_Node000006" class="edge">
<title>Node5&#45;&gt;Node6</title>
<g id="a_edge5_Node000005_Node000006"><a xlink:title=" ">
<path fill="none" stroke="#63b8ff" d="M571.11,-9.5C580.89,-9.5 591.36,-9.5 601.74,-9.5"/>
<polygon fill="#63b8ff" stroke="#63b8ff" points="606.82,-9.5 601.82,-11.75 604.32,-9.5 601.82,-9.5 601.82,-9.5 601.82,-9.5 604.32,-9.5 601.82,-7.25 606.82,-9.5 606.82,-9.5"/>
</a>
</g>
</g>
</g>
</svg>

<g id="navigator" transform="translate(0 0)" fill="#404254">
  <rect fill="#f2f5e9" fill-opacity="0.5" stroke="#606060" stroke-width=".5" x="0" y="0" width="60" height="60"/>
  <use id="zoomplus" xlink:href="#zoomPlus" x="17" y="9" onmousedown="handleZoom(evt,'in')"/>
  <use id="zoomminus" xlink:href="#zoomMin" x="42" y="9" onmousedown="handleZoom(evt,'out')"/>
  <use id="reset" xlink:href="#resetDef" x="30" y="36" onmousedown="handleReset()"/>
   <use id="arrowup" xlink:href="#arrowUp" x="0" y="0" onmousedown="handlePan(0,-1)"/>
  <use id="arrowright" xlink:href="#arrowRight" x="0" y="0" onmousedown="handlePan(1,0)"/>
  <use id="arrowdown" xlink:href="#arrowDown" x="0" y="0" onmousedown="handlePan(0,1)"/>
  <use id="arrowleft" xlink:href="#arrowLeft" x="0" y="0" onmousedown="handlePan(-1,0)"/>
</g>
<svg viewBox="0 0 15 15" width="100%" height="30px" preserveAspectRatio="xMaxYMin meet">
 <g id="arrow_out" transform="scale(0.3 0.3)">
  <a xlink:href="classCockatriceXml4Parser_a558de55444ec5e73877fd6c45af3d87b_cgraph_org.svg" target="_base">
   <rect id="button" ry="5" rx="5" y="6" x="6" height="38" width="38"
        fill="#f2f5e9" fill-opacity="0.5" stroke="#606060" stroke-width="1.0"/>
   <path id="arrow"
     d="M 11.500037,31.436501 C 11.940474,20.09759 22.043105,11.32322 32.158766,21.979434 L 37.068811,17.246167 C 37.068811,17.246167 37.088388,32 37.088388,32 L 22.160133,31.978069 C 22.160133,31.978069 26.997745,27.140456 26.997745,27.140456 C 18.528582,18.264221 13.291696,25.230495 11.500037,31.436501 z"
     style="fill:#404040;"/>
  </a>
 </g>
</svg>

<style type='text/css'>
<![CDATA[
[data-mouse-over-selected='false'] { opacity: 0.7; }
[data-mouse-over-selected='true']  { opacity: 1.0; }
]]>
</style>
<script type="application/ecmascript"><![CDATA[
document.addEventListener('DOMContentLoaded', (event) => {
  highlightEdges();
  highlightAdjacentNodes();
});
]]></script>
</svg>
