<?xml version="1.0" encoding="UTF-8" standalone="no"?>
<!DOCTYPE svg PUBLIC "-//W3C//DTD SVG 1.1//EN"
 "http://www.w3.org/Graphics/SVG/1.1/DTD/svg11.dtd">
<!-- Generated by graphviz version 2.43.0 (0)
 -->
<!-- Title: CommanderSpellbookApiAccessor::estimateBracketError Pages: 1 -->
<!--zoomable 121 -->

<svg id="main" version="1.1" xmlns="http://www.w3.org/2000/svg" xmlns:xlink="http://www.w3.org/1999/xlink" xml:space="preserve" onload="init(evt)">

<style type="text/css"><![CDATA[
.node, .edge {opacity: 0.7;}
.node.selected, .edge.selected {opacity: 1;}
.edge:hover path { stroke: red; }
.edge:hover polygon { stroke: red; fill: red; }
]]></style>

<defs>
  <circle id="rim" cx="0" cy="0" r="7"/>
  <circle id="rim2" cx="0" cy="0" r="3.5"/>
  <g id="zoomPlus">
    <use xlink:href="#rim" fill="#404040"><set attributeName="fill" to="#808080" begin="zoomplus.mouseover" end="zoomplus.mouseout"/></use>
    <path d="M-4,0h8M0,-4v8" fill="none" stroke="white" stroke-width="1.5" pointer-events="none"/>
  </g>
  <g id="zoomMin">
    <use xlink:href="#rim" fill="#404040"><set attributeName="fill" to="#808080" begin="zoomminus.mouseover" end="zoomminus.mouseout"/></use>
    <path d="M-4,0h8" fill="none" stroke="white" stroke-width="1.5" pointer-events="none"/>
  </g>
  <g id="arrowUp" transform="translate(30 24)">
    <use xlink:href="#rim"/>
    <path pointer-events="none" fill="none" stroke="white" stroke-width="1.5" d="M0,-3.0v7 M-2.5,-0.5L0,-3.0L2.5,-0.5"/>
  </g>
  <g id="arrowRight" transform="rotate(90) translate(36 -43)">
    <use xlink:href="#rim"/>
    <path pointer-events="none" fill="none" stroke="white" stroke-width="1.5" d="M0,-3.0v7 M-2.5,-0.5L0,-3.0L2.5,-0.5"/>
  </g>
  <g id="arrowDown" transform="rotate(180) translate(-30 -48)">
    <use xlink:href="#rim"/>
    <path pointer-events="none" fill="none" stroke="white" stroke-width="1.5" d="M0,-3.0v7 M-2.5,-0.5L0,-3.0L2.5,-0.5"/>
  </g>
  <g id="arrowLeft" transform="rotate(270) translate(-36 17)">
    <use xlink:href="#rim"/>
    <path pointer-events="none" fill="none" stroke="white" stroke-width="1.5" d="M0,-3.0v7 M-2.5,-0.5L0,-3.0L2.5,-0.5"/>
  </g>
  <g id="resetDef">
    <use xlink:href="#rim2" fill="#404040"><set attributeName="fill" to="#808080" begin="reset.mouseover" end="reset.mouseout"/></use>
  </g>
</defs>
<script type="application/ecmascript">
var viewWidth = 1386;
var viewHeight = 121;
var sectionId = 'dynsection-6';
</script>
<script type="application/ecmascript" xlink:href="../../svg.min.js"/>
<svg id="graph" class="graph">
<g id="viewport">
<title>CommanderSpellbookApiAccessor::estimateBracketError</title>
<!-- Node1 -->
<g id="Node000001" class="node">
<title>Node1</title>
<g id="a_Node000001"><a xlink:title=" ">
<polygon fill="#999999" stroke="#666666" points="1378,-89 1194,-89 1194,-59 1378,-59 1378,-89"/>
<text text-anchor="start" x="1202" y="-77" font-family="Helvetica,sans-Serif" font-size="10.00">CommanderSpellbookApiAccessor</text>
<text text-anchor="middle" x="1286" y="-66" font-family="Helvetica,sans-Serif" font-size="10.00">::estimateBracketError</text>
</a>
</g>
</g>
<!-- Node2 -->
<g id="Node000002" class="node">
<title>Node2</title>
<g id="a_Node000002"><a xlink:href="../../d8/d57/classCommanderBracketService.html#aafee200cb6297c998aeb7faf6c2b86dd" target="_top" xlink:title=" ">
<polygon fill="white" stroke="#666666" points="1143.5,-113 988.5,-113 988.5,-83 1143.5,-83 1143.5,-113"/>
<text text-anchor="start" x="996.5" y="-101" font-family="Helvetica,sans-Serif" font-size="10.00">CommanderBracketService</text>
<text text-anchor="middle" x="1066" y="-90" font-family="Helvetica,sans-Serif" font-size="10.00">::CommanderBracketService</text>
</a>
</g>
</g>
<!-- Node1&#45;&gt;Node2 -->
<g id="edge1_Node000001_Node000002" class="edge">
<title>Node1&#45;&gt;Node2</title>
<g id="a_edge1_Node000001_Node000002"><a xlink:title=" ">
<path fill="none" stroke="#63b8ff" d="M1188.71,-84.6C1173.63,-86.26 1158.22,-87.96 1143.66,-89.56"/>
<polygon fill="#63b8ff" stroke="#63b8ff" points="1193.81,-84.04 1189.09,-86.82 1191.33,-84.31 1188.84,-84.59 1188.84,-84.59 1188.84,-84.59 1191.33,-84.31 1188.6,-82.35 1193.81,-84.04 1193.81,-84.04"/>
</a>
</g>
</g>
<!-- Node8 -->
<g id="Node000008" class="node">
<title>Node8</title>
<g id="a_Node000008"><a xlink:href="../../de/d24/classCommanderSpellbookApiAccessor.html#ac1a3b8d5133f383ba36f0f5a2909ad48" target="_top" xlink:title=" ">
<polygon fill="white" stroke="#666666" points="1158,-65 974,-65 974,-35 1158,-35 1158,-65"/>
<text text-anchor="start" x="982" y="-53" font-family="Helvetica,sans-Serif" font-size="10.00">CommanderSpellbookApiAccessor</text>
<text text-anchor="middle" x="1066" y="-42" font-family="Helvetica,sans-Serif" font-size="10.00">::onEstimateReplyFinished</text>
</a>
</g>
</g>
<!-- Node1&#45;&gt;Node8 -->
<g id="edge9_Node000001_Node000008" class="edge">
<title>Node1&#45;&gt;Node8</title>
<g id="a_edge9_Node000001_Node000008"><a xlink:title=" ">
<path fill="none" stroke="#63b8ff" d="M1188.82,-63.41C1178.64,-62.29 1168.3,-61.15 1158.17,-60.04"/>
<polygon fill="#63b8ff" stroke="#63b8ff" points="1193.81,-63.96 1188.6,-65.65 1191.33,-63.69 1188.84,-63.41 1188.84,-63.41 1188.84,-63.41 1191.33,-63.69 1189.09,-61.18 1193.81,-63.96 1193.81,-63.96"/>
</a>
</g>
</g>
<!-- Node3 -->
<g id="Node000003" class="node">
<title>Node3</title>
<g id="a_Node000003"><a xlink:href="../../d8/d57/classCommanderBracketService.html#a209328f66ae9c814a9bdd030dc492d1d" target="_top" xlink:title=" ">
<polygon fill="white" stroke="#666666" points="718,-113 569,-113 569,-83 718,-83 718,-113"/>
<text text-anchor="start" x="577" y="-101" font-family="Helvetica,sans-Serif" font-size="10.00">CommanderBracketService</text>
<text text-anchor="middle" x="643.5" y="-90" font-family="Helvetica,sans-Serif" font-size="10.00">::instance</text>
</a>
</g>
</g>
<!-- Node2&#45;&gt;Node3 -->
<g id="edge2_Node000002_Node000003" class="edge">
<title>Node2&#45;&gt;Node3</title>
<g id="a_edge2_Node000002_Node000003"><a xlink:title=" ">
<path fill="none" stroke="#63b8ff" d="M983.35,-98C906.46,-98 792.31,-98 718.14,-98"/>
<polygon fill="#63b8ff" stroke="#63b8ff" points="988.36,-98 983.36,-100.25 985.86,-98 983.36,-98 983.36,-98 983.36,-98 985.86,-98 983.36,-95.75 988.36,-98 988.36,-98"/>
</a>
</g>
</g>
<!-- Node4 -->
<g id="Node000004" class="node">
<title>Node4</title>
<g id="a_Node000004"><a xlink:href="../../d3/d9a/classCommanderBracketWidget.html#ab052f2ad3cda10b0e879cbd179f85e24" target="_top" xlink:title=" ">
<polygon fill="white" stroke="#666666" points="154,-78 0,-78 0,-48 154,-48 154,-78"/>
<text text-anchor="start" x="8" y="-66" font-family="Helvetica,sans-Serif" font-size="10.00">CommanderBracketWidget</text>
<text text-anchor="middle" x="77" y="-55" font-family="Helvetica,sans-Serif" font-size="10.00">::CommanderBracketWidget</text>
</a>
</g>
</g>
<!-- Node3&#45;&gt;Node4 -->
<g id="edge3_Node000003_Node000004" class="edge">
<title>Node3&#45;&gt;Node4</title>
<g id="a_edge3_Node000003_Node000004"><a xlink:title=" ">
<path fill="none" stroke="#63b8ff" d="M563.76,-93.58C473.47,-88.45 321.02,-79.59 190,-71 178.43,-70.24 166.18,-69.4 154.2,-68.56"/>
<polygon fill="#63b8ff" stroke="#63b8ff" points="568.81,-93.87 563.69,-95.83 566.31,-93.73 563.82,-93.59 563.82,-93.59 563.82,-93.59 566.31,-93.73 563.95,-91.34 568.81,-93.87 568.81,-93.87"/>
</a>
</g>
</g>
<!-- Node5 -->
<g id="Node000005" class="node">
<title>Node5</title>
<g id="a_Node000005"><a xlink:href="../../d3/d9a/classCommanderBracketWidget.html#aff3aee9de91d2c90be1f66777262bd60" target="_top" xlink:title=" ">
<polygon fill="white" stroke="#666666" points="533,-67 385,-67 385,-37 533,-37 533,-67"/>
<text text-anchor="start" x="393" y="-55" font-family="Helvetica,sans-Serif" font-size="10.00">CommanderBracketWidget</text>
<text text-anchor="middle" x="459" y="-44" font-family="Helvetica,sans-Serif" font-size="10.00">::requestBracketEstimate</text>
</a>
</g>
</g>
<!-- Node3&#45;&gt;Node5 -->
<g id="edge4_Node000003_Node000005" class="edge">
<title>Node3&#45;&gt;Node5</title>
<g id="a_edge4_Node000003_Node000005"><a xlink:title=" ">
<path fill="none" stroke="#63b8ff" d="M577.47,-81.61C558.6,-76.85 538.1,-71.68 519.58,-67.02"/>
<polygon fill="#63b8ff" stroke="#63b8ff" points="582.74,-82.94 577.34,-83.9 580.32,-82.33 577.89,-81.72 577.89,-81.72 577.89,-81.72 580.32,-82.33 578.44,-79.53 582.74,-82.94 582.74,-82.94"/>
</a>
</g>
</g>
<!-- Node5&#45;&gt;Node4 -->
<g id="edge5_Node000005_Node000004" class="edge">
<title>Node5&#45;&gt;Node4</title>
<g id="a_edge5_Node000005_Node000004"><a xlink:title=" ">
<path fill="none" stroke="#63b8ff" d="M379.63,-54.27C313.61,-56.18 219.73,-58.9 154.3,-60.79"/>
<polygon fill="#63b8ff" stroke="#63b8ff" points="384.73,-54.12 379.8,-56.51 382.23,-54.19 379.73,-54.27 379.73,-54.27 379.73,-54.27 382.23,-54.19 379.67,-52.02 384.73,-54.12 384.73,-54.12"/>
</a>
</g>
</g>
<!-- Node6 -->
<g id="Node000006" class="node">
<title>Node6</title>
<g id="a_Node000006"><a xlink:href="../../d3/d9a/classCommanderBracketWidget.html#a4d43f30216019f62171acaa59b231651" target="_top" xlink:title=" ">
<polygon fill="white" stroke="#666666" points="349,-32 190,-32 190,-2 349,-2 349,-32"/>
<text text-anchor="start" x="198" y="-20" font-family="Helvetica,sans-Serif" font-size="10.00">CommanderBracketWidget</text>
<text text-anchor="middle" x="269.5" y="-9" font-family="Helvetica,sans-Serif" font-size="10.00">::maybeAutoEstimateBracket</text>
</a>
</g>
</g>
<!-- Node5&#45;&gt;Node6 -->
<g id="edge6_Node000005_Node000006" class="edge">
<title>Node5&#45;&gt;Node6</title>
<g id="a_edge6_Node000005_Node000006"><a xlink:title=" ">
<path fill="none" stroke="#63b8ff" d="M380,-37.44C369.83,-35.54 359.41,-33.6 349.22,-31.69"/>
<polygon fill="#63b8ff" stroke="#63b8ff" points="384.97,-38.37 379.64,-39.66 382.51,-37.91 380.06,-37.45 380.06,-37.45 380.06,-37.45 382.51,-37.91 380.47,-35.24 384.97,-38.37 384.97,-38.37"/>
</a>
</g>
</g>
<!-- Node6&#45;&gt;Node4 -->
<g id="edge7_Node000006_Node000004" class="edge">
<title>Node6&#45;&gt;Node4</title>
<g id="a_edge7_Node000006_Node000004"><a xlink:title=" ">
<path fill="none" stroke="#63b8ff" d="M201.12,-33.27C181.29,-38.06 159.68,-43.28 140.19,-47.98"/>
<polygon fill="#63b8ff" stroke="#63b8ff" points="206.12,-32.06 201.79,-35.42 203.69,-32.65 201.26,-33.24 201.26,-33.24 201.26,-33.24 203.69,-32.65 200.73,-31.05 206.12,-32.06 206.12,-32.06"/>
</a>
</g>
</g>
<!-- Node7 -->
<g id="Node000007" class="node">
<title>Node7</title>
<g id="a_Node000007"><a xlink:href="../../d3/d9a/classCommanderBracketWidget.html#acb21a213720ce1b01806926c0dd40d5f" target="_top" xlink:title=" ">
<polygon fill="white" stroke="#666666" points="151,-30 3,-30 3,0 151,0 151,-30"/>
<text text-anchor="start" x="11" y="-18" font-family="Helvetica,sans-Serif" font-size="10.00">CommanderBracketWidget</text>
<text text-anchor="middle" x="77" y="-7" font-family="Helvetica,sans-Serif" font-size="10.00">::setDeck</text>
</a>
</g>
</g>
<!-- Node6&#45;&gt;Node7 -->
<g id="edge8_Node000006_Node000007" class="edge">
<title>Node6&#45;&gt;Node7</title>
<g id="a_edge8_Node000006_Node000007"><a xlink:title=" ">
<path fill="none" stroke="#63b8ff" d="M184.79,-16.12C173.6,-16 162.2,-15.88 151.2,-15.77"/>
<polygon fill="#63b8ff" stroke="#63b8ff" points="189.92,-16.17 184.89,-18.37 187.42,-16.15 184.92,-16.12 184.92,-16.12 184.92,-16.12 187.42,-16.15 184.94,-13.87 189.92,-16.17 189.92,-16.17"/>
</a>
</g>
</g>
<!-- Node9 -->
<g id="Node000009" class="node">
<title>Node9</title>
<g id="a_Node000009"><a xlink:href="../../de/d24/classCommanderSpellbookApiAccessor.html#aa064c9f7cbb7376908d461512487eec5" target="_top" xlink:title=" ">
<polygon fill="white" stroke="#666666" points="938,-65 754,-65 754,-35 938,-35 938,-65"/>
<text text-anchor="start" x="762" y="-53" font-family="Helvetica,sans-Serif" font-size="10.00">CommanderSpellbookApiAccessor</text>
<text text-anchor="middle" x="846" y="-42" font-family="Helvetica,sans-Serif" font-size="10.00">::estimateBracket</text>
</a>
</g>
</g>
<!-- Node8&#45;&gt;Node9 -->
<g id="edge10_Node000008_Node000009" class="edge">
<title>Node8&#45;&gt;Node9</title>
<g id="a_edge10_Node000008_Node000009"><a xlink:title=" ">
<path fill="none" stroke="#63b8ff" d="M968.55,-50C958.45,-50 948.21,-50 938.17,-50"/>
<polygon fill="#63b8ff" stroke="#63b8ff" points="973.81,-50 968.81,-52.25 971.31,-50 968.81,-50 968.81,-50 968.81,-50 971.31,-50 968.81,-47.75 973.81,-50 973.81,-50"/>
</a>
</g>
</g>
<!-- Node10 -->
<g id="Node000010" class="node">
<title>Node10</title>
<g id="a_Node000010"><a xlink:href="../../d8/d57/classCommanderBracketService.html#a2d14da39605cd221e181c27aaedc3382" target="_top" xlink:title=" ">
<polygon fill="white" stroke="#666666" points="718,-65 569,-65 569,-35 718,-35 718,-65"/>
<text text-anchor="start" x="577" y="-53" font-family="Helvetica,sans-Serif" font-size="10.00">CommanderBracketService</text>
<text text-anchor="middle" x="643.5" y="-42" font-family="Helvetica,sans-Serif" font-size="10.00">::estimateBracket</text>
</a>
</g>
</g>
<!-- Node9&#45;&gt;Node10 -->
<g id="edge11_Node000009_Node000010" class="edge">
<title>Node9&#45;&gt;Node10</title>
<g id="a_edge11_Node000009_Node000010"><a xlink:title=" ">
<path fill="none" stroke="#63b8ff" d="M748.77,-50C738.43,-50 728.03,-50 718.01,-50"/>
<polygon fill="#63b8ff" stroke="#63b8ff" points="753.84,-50 748.84,-52.25 751.34,-50 748.84,-50 748.84,-50 748.84,-50 751.34,-50 748.84,-47.75 753.84,-50 753.84,-50"/>
</a>
</g>
</g>
<!-- Node10&#45;&gt;Node5 -->
<g id="edge12_Node000010_Node000005" class="edge">
<title>Node10&#45;&gt;Node5</title>
<g id="a_edge12_Node000010_Node000005"><a xlink:title=" ">
<path fill="none" stroke="#63b8ff" d="M563.53,-50.87C553.42,-50.98 543.1,-51.09 533.09,-51.2"/>
<polygon fill="#63b8ff" stroke="#63b8ff" points="568.8,-50.81 563.82,-53.11 566.3,-50.84 563.8,-50.86 563.8,-50.86 563.8,-50.86 566.3,-50.84 563.77,-48.61 568.8,-50.81 568.8,-50.81"/>
</a>
</g>
</g>
</g>
</svg>

<g id="navigator" transform="translate(0 0)" fill="#404254">
  <rect fill="#f2f5e9" fill-opacity="0.5" stroke="#606060" stroke-width=".5" x="0" y="0" width="60" height="60"/>
  <use id="zoomplus" xlink:href="#zoomPlus" x="17" y="9" onmousedown="handleZoom(evt,'in')"/>
  <use id="zoomminus" xlink:href="#zoomMin" x="42" y="9" onmousedown="handleZoom(evt,'out')"/>
  <use id="reset" xlink:href="#resetDef" x="30" y="36" onmousedown="handleReset()"/>
   <use id="arrowup" xlink:href="#arrowUp" x="0" y="0" onmousedown="handlePan(0,-1)"/>
  <use id="arrowright" xlink:href="#arrowRight" x="0" y="0" onmousedown="handlePan(1,0)"/>
  <use id="arrowdown" xlink:href="#arrowDown" x="0" y="0" onmousedown="handlePan(0,1)"/>
  <use id="arrowleft" xlink:href="#arrowLeft" x="0" y="0" onmousedown="handlePan(-1,0)"/>
</g>
<svg viewBox="0 0 15 15" width="100%" height="30px" preserveAspectRatio="xMaxYMin meet">
 <g id="arrow_out" transform="scale(0.3 0.3)">
  <a xlink:href="classCommanderSpellbookApiAccessor_a08029aa692892eae04571136615360ac_icgraph_org.svg" target="_base">
   <rect id="button" ry="5" rx="5" y="6" x="6" height="38" width="38"
        fill="#f2f5e9" fill-opacity="0.5" stroke="#606060" stroke-width="1.0"/>
   <path id="arrow"
     d="M 11.500037,31.436501 C 11.940474,20.09759 22.043105,11.32322 32.158766,21.979434 L 37.068811,17.246167 C 37.068811,17.246167 37.088388,32 37.088388,32 L 22.160133,31.978069 C 22.160133,31.978069 26.997745,27.140456 26.997745,27.140456 C 18.528582,18.264221 13.291696,25.230495 11.500037,31.436501 z"
     style="fill:#404040;"/>
  </a>
 </g>
</svg>

<style type='text/css'>
<![CDATA[
[data-mouse-over-selected='false'] { opacity: 0.7; }
[data-mouse-over-selected='true']  { opacity: 1.0; }
]]>
</style>
<script type="application/ecmascript"><![CDATA[
document.addEventListener('DOMContentLoaded', (event) => {
  highlightEdges();
  highlightAdjacentNodes();
});
]]></script>
</svg>
