<?xml version="1.0" encoding="UTF-8" standalone="no"?>
<!DOCTYPE svg PUBLIC "-//W3C//DTD SVG 1.1//EN"
 "http://www.w3.org/Graphics/SVG/1.1/DTD/svg11.dtd">
<!-- Generated by graphviz version 2.43.0 (0)
 -->
<!-- Title: CardDatabaseQuerier::getPreferredCard Pages: 1 -->
<!--zoomable 215 -->

<svg id="main" version="1.1" xmlns="http://www.w3.org/2000/svg" xmlns:xlink="http://www.w3.org/1999/xlink" xml:space="preserve" onload="init(evt)">
<style type="text/css"><![CDATA[
.node, .edge {opacity: 0.7;}
.node.selected, .edge.selected {opacity: 1;}
.edge:hover path { stroke: red; }
.edge:hover polygon { stroke: red; fill: red; }
]]></style>

<defs>
  <circle id="rim" cx="0" cy="0" r="7"/>
  <circle id="rim2" cx="0" cy="0" r="3.5"/>
  <g id="zoomPlus">
    <use xlink:href="#rim" fill="#404040"><set attributeName="fill" to="#808080" begin="zoomplus.mouseover" end="zoomplus.mouseout"/></use>
    <path d="M-4,0h8M0,-4v8" fill="none" stroke="white" stroke-width="1.5" pointer-events="none"/>
  </g>
  <g id="zoomMin">
    <use xlink:href="#rim" fill="#404040"><set attributeName="fill" to="#808080" begin="zoomminus.mouseover" end="zoomminus.mouseout"/></use>
    <path d="M-4,0h8" fill="none" stroke="white" stroke-width="1.5" pointer-events="none"/>
  </g>
  <g id="arrowUp" transform="translate(30 24)">
    <use xlink:href="#rim"/>
    <path pointer-events="none" fill="none" stroke="white" stroke-width="1.5" d="M0,-3.0v7 M-2.5,-0.5L0,-3.0L2.5,-0.5"/>
  </g>
  <g id="arrowRight" transform="rotate(90) translate(36 -43)">
    <use xlink:href="#rim"/>
    <path pointer-events="none" fill="none" stroke="white" stroke-width="1.5" d="M0,-3.0v7 M-2.5,-0.5L0,-3.0L2.5,-0.5"/>
  </g>
  <g id="arrowDown" transform="rotate(180) translate(-30 -48)">
    <use xlink:href="#rim"/>
    <path pointer-events="none" fill="none" stroke="white" stroke-width="1.5" d="M0,-3.0v7 M-2.5,-0.5L0,-3.0L2.5,-0.5"/>
  </g>
  <g id="arrowLeft" transform="rotate(270) translate(-36 17)">
    <use xlink:href="#rim"/>
    <path pointer-events="none" fill="none" stroke="white" stroke-width="1.5" d="M0,-3.0v7 M-2.5,-0.5L0,-3.0L2.5,-0.5"/>
  </g>
  <g id="resetDef">
    <use xlink:href="#rim2" fill="#404040"><set attributeName="fill" to="#808080" begin="reset.mouseover" end="reset.mouseout"/></use>
  </g>
</defs>
<script type="application/ecmascript">
var viewWidth = 1016;
var viewHeight = 215;
var sectionId = 'dynsection-15';
</script>
<script type="application/ecmascript" xlink:href="../../svg.min.js"/>
<svg id="graph" class="graph">
<g id="viewport">
<title>CardDatabaseQuerier::getPreferredCard</title>
<!-- Node1 -->
<g id="Node000001" class="node">
<title>Node1</title>
<g id="a_Node000001"><a xlink:title="Returns the preferred printing of a card based on user preferences and set priority.">
<polygon fill="#999999" stroke="#666666" points="1008,-121 886,-121 886,-91 1008,-91 1008,-121"/>
<text text-anchor="start" x="894" y="-109" font-family="Helvetica,sans-Serif" font-size="10.00">CardDatabaseQuerier</text>
<text text-anchor="middle" x="947" y="-98" font-family="Helvetica,sans-Serif" font-size="10.00">::getPreferredCard</text>
</a>
</g>
</g>
<!-- Node1&#45;&gt;Node1 -->
<g id="edge14_Node000001_Node000001" class="edge">
<title>Node1&#45;&gt;Node1</title>
<g id="a_edge14_Node000001_Node000001"><a xlink:title=" ">
<path fill="none" stroke="#63b8ff" d="M979.21,-125.89C979.99,-133.11 969.26,-139 947,-139 920.12,-139 910.05,-130.41 916.77,-121.28"/>
<polygon fill="#63b8ff" stroke="#63b8ff" points="977.23,-121.28 981.27,-124.99 978.22,-123.57 979.2,-125.87 979.2,-125.87 979.2,-125.87 978.22,-123.57 977.13,-126.76 977.23,-121.28 977.23,-121.28"/>
</a>
</g>
</g>
<!-- Node2 -->
<g id="Node000002" class="node">
<title>Node2</title>
<g id="a_Node000002"><a xlink:href="../../d3/d0a/classDeckEditorDatabaseDisplayWidget.html#ad02ec0cefa421a439f9b3688c5b10bd3" target="_top" xlink:title=" ">
<polygon fill="white" stroke="#666666" points="850,-121 697,-121 697,-91 850,-91 850,-121"/>
<text text-anchor="start" x="705" y="-109" font-family="Helvetica,sans-Serif" font-size="10.00">DeckEditorDatabaseDisplay</text>
<text text-anchor="middle" x="773.5" y="-98" font-family="Helvetica,sans-Serif" font-size="10.00">Widget::currentCard</text>
</a>
</g>
</g>
<!-- Node1&#45;&gt;Node2 -->
<g id="edge1_Node000001_Node000002" class="edge">
<title>Node1&#45;&gt;Node2</title>
<g id="a_edge1_Node000001_Node000002"><a xlink:title=" ">
<path fill="none" stroke="#63b8ff" d="M880.38,-106C870.46,-106 860.16,-106 850.05,-106"/>
<polygon fill="#63b8ff" stroke="#63b8ff" points="885.54,-106 880.54,-108.25 883.04,-106 880.54,-106 880.54,-106 880.54,-106 883.04,-106 880.54,-103.75 885.54,-106 885.54,-106"/>
</a>
</g>
</g>
<!-- Node3 -->
<g id="Node000003" class="node">
<title>Node3</title>
<g id="a_Node000003"><a xlink:href="../../d3/d0a/classDeckEditorDatabaseDisplayWidget.html#ad9985e48ffae89266d9afa57df1795d6" target="_top" xlink:title=" ">
<polygon fill="white" stroke="#666666" points="661,-207 488,-207 488,-177 661,-177 661,-207"/>
<text text-anchor="start" x="496" y="-195" font-family="Helvetica,sans-Serif" font-size="10.00">DeckEditorDatabaseDisplay</text>
<text text-anchor="middle" x="574.5" y="-184" font-family="Helvetica,sans-Serif" font-size="10.00">Widget::actAddCardToMainDeck</text>
</a>
</g>
</g>
<!-- Node2&#45;&gt;Node3 -->
<g id="edge2_Node000002_Node000003" class="edge">
<title>Node2&#45;&gt;Node3</title>
<g id="a_edge2_Node000002_Node000003"><a xlink:title=" ">
<path fill="none" stroke="#63b8ff" d="M740.97,-123.68C718.95,-135.63 688.67,-151.31 661,-163 649.16,-168 636.13,-172.78 623.89,-176.95"/>
<polygon fill="#63b8ff" stroke="#63b8ff" points="745.54,-121.19 742.22,-125.56 743.34,-122.38 741.15,-123.58 741.15,-123.58 741.15,-123.58 743.34,-122.38 740.07,-121.61 745.54,-121.19 745.54,-121.19"/>
</a>
</g>
</g>
<!-- Node4 -->
<g id="Node000004" class="node">
<title>Node4</title>
<g id="a_Node000004"><a xlink:href="../../d3/d0a/classDeckEditorDatabaseDisplayWidget.html#a0f2e75007ee2204fe7aaf47cf876e21b" target="_top" xlink:title=" ">
<polygon fill="white" stroke="#666666" points="424.5,-164 257.5,-164 257.5,-134 424.5,-134 424.5,-164"/>
<text text-anchor="start" x="265.5" y="-152" font-family="Helvetica,sans-Serif" font-size="10.00">DeckEditorDatabaseDisplay</text>
<text text-anchor="middle" x="341" y="-141" font-family="Helvetica,sans-Serif" font-size="10.00">Widget::databaseCustomMenu</text>
</a>
</g>
</g>
<!-- Node2&#45;&gt;Node4 -->
<g id="edge13_Node000002_Node000004" class="edge">
<title>Node2&#45;&gt;Node4</title>
<g id="a_edge13_Node000002_Node000004"><a xlink:title=" ">
<path fill="none" stroke="#63b8ff" d="M705.91,-122.07C691.2,-125.13 675.63,-128 661,-130 581.16,-140.91 489.22,-145.55 424.62,-147.53"/>
<polygon fill="#63b8ff" stroke="#63b8ff" points="710.87,-121.02 706.44,-124.25 708.42,-121.54 705.98,-122.05 705.98,-122.05 705.98,-122.05 708.42,-121.54 705.51,-119.85 710.87,-121.02 710.87,-121.02"/>
</a>
</g>
</g>
<!-- Node6 -->
<g id="Node000006" class="node">
<title>Node6</title>
<g id="a_Node000006"><a xlink:href="../../d3/d0a/classDeckEditorDatabaseDisplayWidget.html#ac63097b897346ae0de5acd4650c98ae4" target="_top" xlink:title=" ">
<polygon fill="white" stroke="#666666" points="661,-121 488,-121 488,-91 661,-91 661,-121"/>
<text text-anchor="start" x="496" y="-109" font-family="Helvetica,sans-Serif" font-size="10.00">DeckEditorDatabaseDisplay</text>
<text text-anchor="middle" x="574.5" y="-98" font-family="Helvetica,sans-Serif" font-size="10.00">Widget::actAddCardToSideboard</text>
</a>
</g>
</g>
<!-- Node2&#45;&gt;Node6 -->
<g id="edge6_Node000002_Node000006" class="edge">
<title>Node2&#45;&gt;Node6</title>
<g id="a_edge6_Node000002_Node000006"><a xlink:title=" ">
<path fill="none" stroke="#63b8ff" d="M691.65,-106C681.57,-106 671.23,-106 661.08,-106"/>
<polygon fill="#63b8ff" stroke="#63b8ff" points="696.9,-106 691.9,-108.25 694.4,-106 691.9,-106 691.9,-106 691.9,-106 694.4,-106 691.9,-103.75 696.9,-106 696.9,-106"/>
</a>
</g>
</g>
<!-- Node7 -->
<g id="Node000007" class="node">
<title>Node7</title>
<g id="a_Node000007"><a xlink:href="../../d3/d0a/classDeckEditorDatabaseDisplayWidget.html#a654cc4e123a733366976700f207b4253" target="_top" xlink:title=" ">
<polygon fill="white" stroke="#666666" points="452,-78 230,-78 230,-48 452,-48 452,-78"/>
<text text-anchor="start" x="238" y="-66" font-family="Helvetica,sans-Serif" font-size="10.00">DeckEditorDatabaseDisplay</text>
<text text-anchor="middle" x="341" y="-55" font-family="Helvetica,sans-Serif" font-size="10.00">Widget::actDecrementCardFromMainDeck</text>
</a>
</g>
</g>
<!-- Node2&#45;&gt;Node7 -->
<g id="edge9_Node000002_Node000007" class="edge">
<title>Node2&#45;&gt;Node7</title>
<g id="a_edge9_Node000002_Node000007"><a xlink:title=" ">
<path fill="none" stroke="#63b8ff" d="M705.91,-89.93C691.2,-86.87 675.63,-84 661,-82 591.88,-72.56 513.69,-67.81 452.02,-65.42"/>
<polygon fill="#63b8ff" stroke="#63b8ff" points="710.87,-90.98 705.51,-92.15 708.42,-90.46 705.98,-89.95 705.98,-89.95 705.98,-89.95 708.42,-90.46 706.44,-87.75 710.87,-90.98 710.87,-90.98"/>
</a>
</g>
</g>
<!-- Node8 -->
<g id="Node000008" class="node">
<title>Node8</title>
<g id="a_Node000008"><a xlink:href="../../d3/d0a/classDeckEditorDatabaseDisplayWidget.html#af21ce4525264188ee002c24000c81e42" target="_top" xlink:title=" ">
<polygon fill="white" stroke="#666666" points="452,-30 230,-30 230,0 452,0 452,-30"/>
<text text-anchor="start" x="238" y="-18" font-family="Helvetica,sans-Serif" font-size="10.00">DeckEditorDatabaseDisplay</text>
<text text-anchor="middle" x="341" y="-7" font-family="Helvetica,sans-Serif" font-size="10.00">Widget::actDecrementCardFromSideboard</text>
</a>
</g>
</g>
<!-- Node2&#45;&gt;Node8 -->
<g id="edge11_Node000002_Node000008" class="edge">
<title>Node2&#45;&gt;Node8</title>
<g id="a_edge11_Node000002_Node000008"><a xlink:title=" ">
<path fill="none" stroke="#63b8ff" d="M734.27,-88.87C713.06,-79.97 685.99,-69.61 661,-63 592.65,-44.91 514.13,-32.99 452.09,-25.55"/>
<polygon fill="#63b8ff" stroke="#63b8ff" points="738.98,-90.86 733.5,-90.98 736.68,-89.88 734.37,-88.91 734.37,-88.91 734.37,-88.91 736.68,-89.88 735.25,-86.84 738.98,-90.86 738.98,-90.86"/>
</a>
</g>
</g>
<!-- Node3&#45;&gt;Node4 -->
<g id="edge3_Node000003_Node000004" class="edge">
<title>Node3&#45;&gt;Node4</title>
<g id="a_edge3_Node000003_Node000004"><a xlink:title=" ">
<path fill="none" stroke="#63b8ff" d="M487.48,-176.02C466.35,-172.1 443.8,-167.91 422.92,-164.03"/>
<polygon fill="#63b8ff" stroke="#63b8ff" points="492.53,-176.96 487.21,-178.26 490.07,-176.5 487.62,-176.05 487.62,-176.05 487.62,-176.05 490.07,-176.5 488.03,-173.84 492.53,-176.96 492.53,-176.96"/>
</a>
</g>
</g>
<!-- Node5 -->
<g id="Node000005" class="node">
<title>Node5</title>
<g id="a_Node000005"><a xlink:href="../../d3/d0a/classDeckEditorDatabaseDisplayWidget.html#a90fba0fce73bc4e3355edaff6dd9842f" target="_top" xlink:title=" ">
<polygon fill="white" stroke="#666666" points="194,-126.5 0,-126.5 0,-85.5 194,-85.5 194,-126.5"/>
<text text-anchor="start" x="8" y="-114.5" font-family="Helvetica,sans-Serif" font-size="10.00">DeckEditorDatabaseDisplay</text>
<text text-anchor="start" x="8" y="-103.5" font-family="Helvetica,sans-Serif" font-size="10.00">Widget::DeckEditorDatabaseDisplay</text>
<text text-anchor="middle" x="97" y="-92.5" font-family="Helvetica,sans-Serif" font-size="10.00">Widget</text>
</a>
</g>
</g>
<!-- Node3&#45;&gt;Node5 -->
<g id="edge5_Node000003_Node000005" class="edge">
<title>Node3&#45;&gt;Node5</title>
<g id="a_edge5_Node000003_Node000005"><a xlink:title=" ">
<path fill="none" stroke="#63b8ff" d="M482.97,-197.05C412.76,-198.58 313.65,-195.47 230,-173 193.39,-163.16 155.15,-142.42 129.31,-126.6"/>
<polygon fill="#63b8ff" stroke="#63b8ff" points="487.97,-196.94 483.02,-199.3 485.47,-197 482.97,-197.05 482.97,-197.05 482.97,-197.05 485.47,-197 482.92,-194.81 487.97,-196.94 487.97,-196.94"/>
</a>
</g>
</g>
<!-- Node4&#45;&gt;Node5 -->
<g id="edge4_Node000004_Node000005" class="edge">
<title>Node4&#45;&gt;Node5</title>
<g id="a_edge4_Node000004_Node000005"><a xlink:title=" ">
<path fill="none" stroke="#63b8ff" d="M252.14,-133.39C233.38,-130.05 213.47,-126.52 194.41,-123.13"/>
<polygon fill="#63b8ff" stroke="#63b8ff" points="257.39,-134.32 252.08,-135.66 254.93,-133.88 252.47,-133.45 252.47,-133.45 252.47,-133.45 254.93,-133.88 252.86,-131.23 257.39,-134.32 257.39,-134.32"/>
</a>
</g>
</g>
<!-- Node6&#45;&gt;Node4 -->
<g id="edge7_Node000006_Node000004" class="edge">
<title>Node6&#45;&gt;Node4</title>
<g id="a_edge7_Node000006_Node000004"><a xlink:title=" ">
<path fill="none" stroke="#63b8ff" d="M487.48,-121.98C466.35,-125.9 443.8,-130.09 422.92,-133.97"/>
<polygon fill="#63b8ff" stroke="#63b8ff" points="492.53,-121.04 488.03,-124.16 490.07,-121.5 487.62,-121.95 487.62,-121.95 487.62,-121.95 490.07,-121.5 487.21,-119.74 492.53,-121.04 492.53,-121.04"/>
</a>
</g>
</g>
<!-- Node6&#45;&gt;Node5 -->
<g id="edge8_Node000006_Node000005" class="edge">
<title>Node6&#45;&gt;Node5</title>
<g id="a_edge8_Node000006_Node000005"><a xlink:title=" ">
<path fill="none" stroke="#63b8ff" d="M482.56,-106C399.97,-106 278.55,-106 194.32,-106"/>
<polygon fill="#63b8ff" stroke="#63b8ff" points="487.94,-106 482.94,-108.25 485.44,-106 482.94,-106 482.94,-106 482.94,-106 485.44,-106 482.94,-103.75 487.94,-106 487.94,-106"/>
</a>
</g>
</g>
<!-- Node7&#45;&gt;Node5 -->
<g id="edge10_Node000007_Node000005" class="edge">
<title>Node7&#45;&gt;Node5</title>
<g id="a_edge10_Node000007_Node000005"><a xlink:title=" ">
<path fill="none" stroke="#63b8ff" d="M250.23,-78.95C231.96,-82.2 212.67,-85.63 194.18,-88.91"/>
<polygon fill="#63b8ff" stroke="#63b8ff" points="255.36,-78.04 250.83,-81.13 252.9,-78.48 250.44,-78.91 250.44,-78.91 250.44,-78.91 252.9,-78.48 250.04,-76.7 255.36,-78.04 255.36,-78.04"/>
</a>
</g>
</g>
<!-- Node8&#45;&gt;Node5 -->
<g id="edge12_Node000008_Node000005" class="edge">
<title>Node8&#45;&gt;Node5</title>
<g id="a_edge12_Node000008_Node000005"><a xlink:title=" ">
<path fill="none" stroke="#63b8ff" d="M254.5,-31.39C246.14,-33.67 237.85,-36.2 230,-39 195.5,-51.29 158.51,-70.66 132.49,-85.42"/>
<polygon fill="#63b8ff" stroke="#63b8ff" points="259.72,-30.01 255.46,-33.47 257.3,-30.65 254.88,-31.29 254.88,-31.29 254.88,-31.29 257.3,-30.65 254.31,-29.12 259.72,-30.01 259.72,-30.01"/>
</a>
</g>
</g>
</g>
</svg>

<g id="navigator" transform="translate(0 0)" fill="#404254">
  <rect fill="#f2f5e9" fill-opacity="0.5" stroke="#606060" stroke-width=".5" x="0" y="0" width="60" height="60"/>
  <use id="zoomplus" xlink:href="#zoomPlus" x="17" y="9" onmousedown="handleZoom(evt,'in')"/>
  <use id="zoomminus" xlink:href="#zoomMin" x="42" y="9" onmousedown="handleZoom(evt,'out')"/>
  <use id="reset" xlink:href="#resetDef" x="30" y="36" onmousedown="handleReset()"/>
   <use id="arrowup" xlink:href="#arrowUp" x="0" y="0" onmousedown="handlePan(0,-1)"/>
  <use id="arrowright" xlink:href="#arrowRight" x="0" y="0" onmousedown="handlePan(1,0)"/>
  <use id="arrowdown" xlink:href="#arrowDown" x="0" y="0" onmousedown="handlePan(0,1)"/>
  <use id="arrowleft" xlink:href="#arrowLeft" x="0" y="0" onmousedown="handlePan(-1,0)"/>
</g>
<svg viewBox="0 0 15 15" width="100%" height="30px" preserveAspectRatio="xMaxYMin meet">
 <g id="arrow_out" transform="scale(0.3 0.3)">
  <a xlink:href="classCardDatabaseQuerier_aff312b6e86af888b25e7696dfb459d06_icgraph_org.svg" target="_base">
   <rect id="button" ry="5" rx="5" y="6" x="6" height="38" width="38"
        fill="#f2f5e9" fill-opacity="0.5" stroke="#606060" stroke-width="1.0"/>
   <path id="arrow"
     d="M 11.500037,31.436501 C 11.940474,20.09759 22.043105,11.32322 32.158766,21.979434 L 37.068811,17.246167 C 37.068811,17.246167 37.088388,32 37.088388,32 L 22.160133,31.978069 C 22.160133,31.978069 26.997745,27.140456 26.997745,27.140456 C 18.528582,18.264221 13.291696,25.230495 11.500037,31.436501 z"
     style="fill:#404040;"/>
  </a>
 </g>
</svg>

<style type='text/css'>
<![CDATA[
[data-mouse-over-selected='false'] { opacity: 0.7; }
[data-mouse-over-selected='true']  { opacity: 1.0; }
]]>
</style>
<script type="application/ecmascript"><![CDATA[
document.addEventListener('DOMContentLoaded', (event) => {
  highlightEdges();
  highlightAdjacentNodes();
});
]]></script>
</svg>
