<?xml version="1.0" encoding="UTF-8" standalone="no"?>
<!DOCTYPE svg PUBLIC "-//W3C//DTD SVG 1.1//EN"
 "http://www.w3.org/Graphics/SVG/1.1/DTD/svg11.dtd">
<!-- Generated by graphviz version 2.43.0 (0)
 -->
<!-- Title: CardDatabaseQuerier::getPreferredCard Pages: 1 -->
<!--zoomable 252 -->

<svg id="main" version="1.1" xmlns="http://www.w3.org/2000/svg" xmlns:xlink="http://www.w3.org/1999/xlink" xml:space="preserve" onload="init(evt)">

<style type="text/css"><![CDATA[
.node, .edge {opacity: 0.7;}
.node.selected, .edge.selected {opacity: 1;}
.edge:hover path { stroke: red; }
.edge:hover polygon { stroke: red; fill: red; }
]]></style>

<defs>
  <circle id="rim" cx="0" cy="0" r="7"/>
  <circle id="rim2" cx="0" cy="0" r="3.5"/>
  <g id="zoomPlus">
    <use xlink:href="#rim" fill="#404040"><set attributeName="fill" to="#808080" begin="zoomplus.mouseover" end="zoomplus.mouseout"/></use>
    <path d="M-4,0h8M0,-4v8" fill="none" stroke="white" stroke-width="1.5" pointer-events="none"/>
  </g>
  <g id="zoomMin">
    <use xlink:href="#rim" fill="#404040"><set attributeName="fill" to="#808080" begin="zoomminus.mouseover" end="zoomminus.mouseout"/></use>
    <path d="M-4,0h8" fill="none" stroke="white" stroke-width="1.5" pointer-events="none"/>
  </g>
  <g id="arrowUp" transform="translate(30 24)">
    <use xlink:href="#rim"/>
    <path pointer-events="none" fill="none" stroke="white" stroke-width="1.5" d="M0,-3.0v7 M-2.5,-0.5L0,-3.0L2.5,-0.5"/>
  </g>
  <g id="arrowRight" transform="rotate(90) translate(36 -43)">
    <use xlink:href="#rim"/>
    <path pointer-events="none" fill="none" stroke="white" stroke-width="1.5" d="M0,-3.0v7 M-2.5,-0.5L0,-3.0L2.5,-0.5"/>
  </g>
  <g id="arrowDown" transform="rotate(180) translate(-30 -48)">
    <use xlink:href="#rim"/>
    <path pointer-events="none" fill="none" stroke="white" stroke-width="1.5" d="M0,-3.0v7 M-2.5,-0.5L0,-3.0L2.5,-0.5"/>
  </g>
  <g id="arrowLeft" transform="rotate(270) translate(-36 17)">
    <use xlink:href="#rim"/>
    <path pointer-events="none" fill="none" stroke="white" stroke-width="1.5" d="M0,-3.0v7 M-2.5,-0.5L0,-3.0L2.5,-0.5"/>
  </g>
  <g id="resetDef">
    <use xlink:href="#rim2" fill="#404040"><set attributeName="fill" to="#808080" begin="reset.mouseover" end="reset.mouseout"/></use>
  </g>
</defs>
<script type="application/ecmascript">
var viewWidth = 769;
var viewHeight = 252;
var sectionId = 'dynsection-17';
</script>
<script type="application/ecmascript" xlink:href="../../svg.min.js"/>
<svg id="graph" class="graph">
<g id="viewport">
<title>CardDatabaseQuerier::getPreferredCard</title>
<!-- Node1 -->
<g id="Node000001" class="node">
<title>Node1</title>
<g id="a_Node000001"><a xlink:title="Returns the preferred printing of a card based on user preferences and set priority.">
<polygon fill="#999999" stroke="#666666" points="761,-148 639,-148 639,-118 761,-118 761,-148"/>
<text text-anchor="start" x="647" y="-136" font-family="Helvetica,sans-Serif" font-size="10.00">CardDatabaseQuerier</text>
<text text-anchor="middle" x="700" y="-125" font-family="Helvetica,sans-Serif" font-size="10.00">::getPreferredCard</text>
</a>
</g>
</g>
<!-- Node1&#45;&gt;Node1 -->
<g id="edge13_Node000001_Node000001" class="edge">
<title>Node1&#45;&gt;Node1</title>
<g id="a_edge13_Node000001_Node000001"><a xlink:title=" ">
<path fill="none" stroke="#63b8ff" d="M733.33,-152.89C734.14,-160.11 723.03,-166 700,-166 672.19,-166 661.76,-157.41 668.71,-148.28"/>
<polygon fill="#63b8ff" stroke="#63b8ff" points="731.29,-148.28 735.37,-151.94 732.3,-150.56 733.31,-152.85 733.31,-152.85 733.31,-152.85 732.3,-150.56 731.26,-153.76 731.29,-148.28 731.29,-148.28"/>
</a>
</g>
</g>
<!-- Node2 -->
<g id="Node000002" class="node">
<title>Node2</title>
<g id="a_Node000002"><a xlink:href="../../d2/d32/classVisualDatabaseDisplayWidget.html#a1ce7721f9a03094539534f8d45f40307" target="_top" xlink:title=" ">
<polygon fill="white" stroke="#666666" points="603,-244 439,-244 439,-214 603,-214 603,-244"/>
<text text-anchor="start" x="447" y="-232" font-family="Helvetica,sans-Serif" font-size="10.00">VisualDatabaseDisplayWidget</text>
<text text-anchor="middle" x="521" y="-221" font-family="Helvetica,sans-Serif" font-size="10.00">::actAddCard</text>
</a>
</g>
</g>
<!-- Node1&#45;&gt;Node2 -->
<g id="edge1_Node000001_Node000002" class="edge">
<title>Node1&#45;&gt;Node2</title>
<g id="a_edge1_Node000001_Node000002"><a xlink:title=" ">
<path fill="none" stroke="#63b8ff" d="M678.52,-151.8C660.01,-167.92 631.38,-190.73 603,-205 596.32,-208.36 589.08,-211.33 581.78,-213.94"/>
<polygon fill="#63b8ff" stroke="#63b8ff" points="682.54,-148.27 680.27,-153.26 680.67,-149.92 678.79,-151.57 678.79,-151.57 678.79,-151.57 680.67,-149.92 677.3,-149.88 682.54,-148.27 682.54,-148.27"/>
</a>
</g>
</g>
<!-- Node4 -->
<g id="Node000004" class="node">
<title>Node4</title>
<g id="a_Node000004"><a xlink:href="../../d2/d32/classVisualDatabaseDisplayWidget.html#ab8b8b188ed883333c81b82850a4f61f4" target="_top" xlink:title=" ">
<polygon fill="white" stroke="#666666" points="603,-196 439,-196 439,-166 603,-166 603,-196"/>
<text text-anchor="start" x="447" y="-184" font-family="Helvetica,sans-Serif" font-size="10.00">VisualDatabaseDisplayWidget</text>
<text text-anchor="middle" x="521" y="-173" font-family="Helvetica,sans-Serif" font-size="10.00">::actDecrementCard</text>
</a>
</g>
</g>
<!-- Node1&#45;&gt;Node4 -->
<g id="edge3_Node000001_Node000004" class="edge">
<title>Node1&#45;&gt;Node4</title>
<g id="a_edge3_Node000001_Node000004"><a xlink:title=" ">
<path fill="none" stroke="#63b8ff" d="M638.49,-149.41C618.66,-154.79 596.74,-160.73 577.32,-166"/>
<polygon fill="#63b8ff" stroke="#63b8ff" points="643.48,-148.06 639.24,-151.54 641.07,-148.71 638.66,-149.36 638.66,-149.36 638.66,-149.36 641.07,-148.71 638.07,-147.19 643.48,-148.06 643.48,-148.06"/>
</a>
</g>
</g>
<!-- Node5 -->
<g id="Node000005" class="node">
<title>Node5</title>
<g id="a_Node000005"><a xlink:href="../../d3/d0a/classDeckEditorDatabaseDisplayWidget.html#a261f6506b278d9a827a3fcf8119f9a0f" target="_top" xlink:title=" ">
<polygon fill="white" stroke="#666666" points="597.5,-148 444.5,-148 444.5,-118 597.5,-118 597.5,-148"/>
<text text-anchor="start" x="452.5" y="-136" font-family="Helvetica,sans-Serif" font-size="10.00">DeckEditorDatabaseDisplay</text>
<text text-anchor="middle" x="521" y="-125" font-family="Helvetica,sans-Serif" font-size="10.00">Widget::addCard</text>
</a>
</g>
</g>
<!-- Node1&#45;&gt;Node5 -->
<g id="edge5_Node000001_Node000005" class="edge">
<title>Node1&#45;&gt;Node5</title>
<g id="a_edge5_Node000001_Node000005"><a xlink:title=" ">
<path fill="none" stroke="#63b8ff" d="M633.31,-133C621.74,-133 609.61,-133 597.8,-133"/>
<polygon fill="#63b8ff" stroke="#63b8ff" points="638.58,-133 633.58,-135.25 636.08,-133 633.58,-133 633.58,-133 633.58,-133 636.08,-133 633.58,-130.75 638.58,-133 638.58,-133"/>
</a>
</g>
</g>
<!-- Node9 -->
<g id="Node000009" class="node">
<title>Node9</title>
<g id="a_Node000009"><a xlink:href="../../d3/d0a/classDeckEditorDatabaseDisplayWidget.html#a240922aed142d762e7ce5e54a3819a17" target="_top" xlink:title=" ">
<polygon fill="white" stroke="#666666" points="393,-62 240,-62 240,-32 393,-32 393,-62"/>
<text text-anchor="start" x="248" y="-50" font-family="Helvetica,sans-Serif" font-size="10.00">DeckEditorDatabaseDisplay</text>
<text text-anchor="middle" x="316.5" y="-39" font-family="Helvetica,sans-Serif" font-size="10.00">Widget::decrementCard</text>
</a>
</g>
</g>
<!-- Node1&#45;&gt;Node9 -->
<g id="edge11_Node000001_Node000009" class="edge">
<title>Node1&#45;&gt;Node9</title>
<g id="a_edge11_Node000001_Node000009"><a xlink:title=" ">
<path fill="none" stroke="#63b8ff" d="M635.26,-116.77C624.51,-114.12 613.45,-111.44 603,-109 530.64,-92.1 447.6,-74.24 389.8,-62.05"/>
<polygon fill="#63b8ff" stroke="#63b8ff" points="640.18,-117.99 634.78,-118.97 637.75,-117.39 635.32,-116.79 635.32,-116.79 635.32,-116.79 637.75,-117.39 635.86,-114.6 640.18,-117.99 640.18,-117.99"/>
</a>
</g>
</g>
<!-- Node10 -->
<g id="Node000010" class="node">
<title>Node10</title>
<g id="a_Node000010"><a xlink:href="../../d3/d0a/classDeckEditorDatabaseDisplayWidget.html#a349792906e1fee2bdb4a8834047cd38c" target="_top" xlink:title=" ">
<polygon fill="white" stroke="#666666" points="597.5,-30 444.5,-30 444.5,0 597.5,0 597.5,-30"/>
<text text-anchor="start" x="452.5" y="-18" font-family="Helvetica,sans-Serif" font-size="10.00">DeckEditorDatabaseDisplay</text>
<text text-anchor="middle" x="521" y="-7" font-family="Helvetica,sans-Serif" font-size="10.00">Widget::updateCard</text>
</a>
</g>
</g>
<!-- Node1&#45;&gt;Node10 -->
<g id="edge14_Node000001_Node000010" class="edge">
<title>Node1&#45;&gt;Node10</title>
<g id="a_edge14_Node000001_Node000010"><a xlink:title=" ">
<path fill="none" stroke="#63b8ff" d="M674.08,-114.69C654.87,-100.75 627.54,-81.24 603,-65 584.67,-52.87 563.52,-39.85 547.43,-30.13"/>
<polygon fill="#63b8ff" stroke="#63b8ff" points="678.29,-117.76 672.92,-116.64 676.27,-116.29 674.25,-114.82 674.25,-114.82 674.25,-114.82 676.27,-116.29 675.57,-113 678.29,-117.76 678.29,-117.76"/>
</a>
</g>
</g>
<!-- Node3 -->
<g id="Node000003" class="node">
<title>Node3</title>
<g id="a_Node000003"><a xlink:href="../../d2/d32/classVisualDatabaseDisplayWidget.html#a00bbf3a8f09d2ae03529ffd7af734658" target="_top" xlink:title=" ">
<polygon fill="white" stroke="#666666" points="401.5,-244 231.5,-244 231.5,-214 401.5,-214 401.5,-244"/>
<text text-anchor="start" x="239.5" y="-232" font-family="Helvetica,sans-Serif" font-size="10.00">VisualDatabaseDisplayWidget</text>
<text text-anchor="middle" x="316.5" y="-221" font-family="Helvetica,sans-Serif" font-size="10.00">::VisualDatabaseDisplayWidget</text>
</a>
</g>
</g>
<!-- Node2&#45;&gt;Node3 -->
<g id="edge2_Node000002_Node000003" class="edge">
<title>Node2&#45;&gt;Node3</title>
<g id="a_edge2_Node000002_Node000003"><a xlink:title=" ">
<path fill="none" stroke="#63b8ff" d="M433.63,-229C423.05,-229 412.24,-229 401.69,-229"/>
<polygon fill="#63b8ff" stroke="#63b8ff" points="438.8,-229 433.8,-231.25 436.3,-229 433.8,-229 433.8,-229 433.8,-229 436.3,-229 433.8,-226.75 438.8,-229 438.8,-229"/>
</a>
</g>
</g>
<!-- Node4&#45;&gt;Node3 -->
<g id="edge4_Node000004_Node000003" class="edge">
<title>Node4&#45;&gt;Node3</title>
<g id="a_edge4_Node000004_Node000003"><a xlink:title=" ">
<path fill="none" stroke="#63b8ff" d="M451.35,-197.27C428.51,-202.69 403.2,-208.69 380.79,-214"/>
<polygon fill="#63b8ff" stroke="#63b8ff" points="456.48,-196.06 452.14,-199.4 454.05,-196.63 451.62,-197.21 451.62,-197.21 451.62,-197.21 454.05,-196.63 451.1,-195.02 456.48,-196.06 456.48,-196.06"/>
</a>
</g>
</g>
<!-- Node6 -->
<g id="Node000006" class="node">
<title>Node6</title>
<g id="a_Node000006"><a xlink:href="../../d3/d0a/classDeckEditorDatabaseDisplayWidget.html#ad9985e48ffae89266d9afa57df1795d6" target="_top" xlink:title=" ">
<polygon fill="white" stroke="#666666" points="403,-196 230,-196 230,-166 403,-166 403,-196"/>
<text text-anchor="start" x="238" y="-184" font-family="Helvetica,sans-Serif" font-size="10.00">DeckEditorDatabaseDisplay</text>
<text text-anchor="middle" x="316.5" y="-173" font-family="Helvetica,sans-Serif" font-size="10.00">Widget::actAddCardToMainDeck</text>
</a>
</g>
</g>
<!-- Node5&#45;&gt;Node6 -->
<g id="edge6_Node000005_Node000006" class="edge">
<title>Node5&#45;&gt;Node6</title>
<g id="a_edge6_Node000005_Node000006"><a xlink:title=" ">
<path fill="none" stroke="#63b8ff" d="M451.35,-149.27C428.51,-154.69 403.2,-160.69 380.79,-166"/>
<polygon fill="#63b8ff" stroke="#63b8ff" points="456.48,-148.06 452.14,-151.4 454.05,-148.63 451.62,-149.21 451.62,-149.21 451.62,-149.21 454.05,-148.63 451.1,-147.02 456.48,-148.06 456.48,-148.06"/>
</a>
</g>
</g>
<!-- Node7 -->
<g id="Node000007" class="node">
<title>Node7</title>
<g id="a_Node000007"><a xlink:href="../../d3/d0a/classDeckEditorDatabaseDisplayWidget.html#a5a416ef229f8265159212c0ace2ae5e0" target="_top" xlink:title=" ">
<polygon fill="white" stroke="#666666" points="194,-115.5 0,-115.5 0,-74.5 194,-74.5 194,-115.5"/>
<text text-anchor="start" x="8" y="-103.5" font-family="Helvetica,sans-Serif" font-size="10.00">DeckEditorDatabaseDisplay</text>
<text text-anchor="start" x="8" y="-92.5" font-family="Helvetica,sans-Serif" font-size="10.00">Widget::DeckEditorDatabaseDisplay</text>
<text text-anchor="middle" x="97" y="-81.5" font-family="Helvetica,sans-Serif" font-size="10.00">Widget</text>
</a>
</g>
</g>
<!-- Node5&#45;&gt;Node7 -->
<g id="edge10_Node000005_Node000007" class="edge">
<title>Node5&#45;&gt;Node7</title>
<g id="a_edge10_Node000005_Node000007"><a xlink:title=" ">
<path fill="none" stroke="#63b8ff" d="M439.15,-131.94C380.85,-130.49 300.36,-127.06 230,-119 218.31,-117.66 206.1,-115.92 194.03,-113.98"/>
<polygon fill="#63b8ff" stroke="#63b8ff" points="444.37,-132.07 439.32,-134.2 441.87,-132.01 439.37,-131.95 439.37,-131.95 439.37,-131.95 441.87,-132.01 439.42,-129.7 444.37,-132.07 444.37,-132.07"/>
</a>
</g>
</g>
<!-- Node8 -->
<g id="Node000008" class="node">
<title>Node8</title>
<g id="a_Node000008"><a xlink:href="../../d3/d0a/classDeckEditorDatabaseDisplayWidget.html#ac63097b897346ae0de5acd4650c98ae4" target="_top" xlink:title=" ">
<polygon fill="white" stroke="#666666" points="403,-110 230,-110 230,-80 403,-80 403,-110"/>
<text text-anchor="start" x="238" y="-98" font-family="Helvetica,sans-Serif" font-size="10.00">DeckEditorDatabaseDisplay</text>
<text text-anchor="middle" x="316.5" y="-87" font-family="Helvetica,sans-Serif" font-size="10.00">Widget::actAddCardToSideboard</text>
</a>
</g>
</g>
<!-- Node5&#45;&gt;Node8 -->
<g id="edge8_Node000005_Node000008" class="edge">
<title>Node5&#45;&gt;Node8</title>
<g id="a_edge8_Node000005_Node000008"><a xlink:title=" ">
<path fill="none" stroke="#63b8ff" d="M439.27,-117.85C425.51,-115.27 411.24,-112.59 397.5,-110.01"/>
<polygon fill="#63b8ff" stroke="#63b8ff" points="444.31,-118.8 438.98,-120.09 441.85,-118.34 439.39,-117.87 439.39,-117.87 439.39,-117.87 441.85,-118.34 439.81,-115.66 444.31,-118.8 444.31,-118.8"/>
</a>
</g>
</g>
<!-- Node6&#45;&gt;Node7 -->
<g id="edge7_Node000006_Node000007" class="edge">
<title>Node6&#45;&gt;Node7</title>
<g id="a_edge7_Node000006_Node000007"><a xlink:title=" ">
<path fill="none" stroke="#63b8ff" d="M263.89,-164.24C252.66,-160.39 240.88,-156.19 230,-152 200.76,-140.75 168.47,-126.83 143.14,-115.56"/>
<polygon fill="#63b8ff" stroke="#63b8ff" points="268.66,-165.87 263.2,-166.39 266.3,-165.07 263.93,-164.26 263.93,-164.26 263.93,-164.26 266.3,-165.07 264.66,-162.13 268.66,-165.87 268.66,-165.87"/>
</a>
</g>
</g>
<!-- Node8&#45;&gt;Node7 -->
<g id="edge9_Node000008_Node000007" class="edge">
<title>Node8&#45;&gt;Node7</title>
<g id="a_edge9_Node000008_Node000007"><a xlink:title=" ">
<path fill="none" stroke="#63b8ff" d="M224.64,-95C214.64,-95 204.42,-95 194.36,-95"/>
<polygon fill="#63b8ff" stroke="#63b8ff" points="229.85,-95 224.85,-97.25 227.35,-95 224.85,-95 224.85,-95 224.85,-95 227.35,-95 224.85,-92.75 229.85,-95 229.85,-95"/>
</a>
</g>
</g>
<!-- Node9&#45;&gt;Node7 -->
<g id="edge12_Node000009_Node000007" class="edge">
<title>Node9&#45;&gt;Node7</title>
<g id="a_edge12_Node000009_Node000007"><a xlink:title=" ">
<path fill="none" stroke="#63b8ff" d="M242.23,-63.17C225.81,-66.79 208.19,-70.68 191.09,-74.46"/>
<polygon fill="#63b8ff" stroke="#63b8ff" points="247.28,-62.06 242.88,-65.33 244.84,-62.59 242.4,-63.13 242.4,-63.13 242.4,-63.13 244.84,-62.59 241.91,-60.94 247.28,-62.06 247.28,-62.06"/>
</a>
</g>
</g>
<!-- Node10&#45;&gt;Node7 -->
<g id="edge15_Node000010_Node000007" class="edge">
<title>Node10&#45;&gt;Node7</title>
<g id="a_edge15_Node000010_Node000007"><a xlink:title=" ">
<path fill="none" stroke="#63b8ff" d="M439.12,-7.23C380.13,-3.95 298.8,-4.44 230,-23 191.44,-33.4 151.82,-57.09 126.18,-74.46"/>
<polygon fill="#63b8ff" stroke="#63b8ff" points="444.4,-7.54 439.28,-9.49 441.91,-7.39 439.41,-7.25 439.41,-7.25 439.41,-7.25 441.91,-7.39 439.54,-5 444.4,-7.54 444.4,-7.54"/>
</a>
</g>
</g>
</g>
</svg>

<g id="navigator" transform="translate(0 0)" fill="#404254">
  <rect fill="#f2f5e9" fill-opacity="0.5" stroke="#606060" stroke-width=".5" x="0" y="0" width="60" height="60"/>
  <use id="zoomplus" xlink:href="#zoomPlus" x="17" y="9" onmousedown="handleZoom(evt,'in')"/>
  <use id="zoomminus" xlink:href="#zoomMin" x="42" y="9" onmousedown="handleZoom(evt,'out')"/>
  <use id="reset" xlink:href="#resetDef" x="30" y="36" onmousedown="handleReset()"/>
   <use id="arrowup" xlink:href="#arrowUp" x="0" y="0" onmousedown="handlePan(0,-1)"/>
  <use id="arrowright" xlink:href="#arrowRight" x="0" y="0" onmousedown="handlePan(1,0)"/>
  <use id="arrowdown" xlink:href="#arrowDown" x="0" y="0" onmousedown="handlePan(0,1)"/>
  <use id="arrowleft" xlink:href="#arrowLeft" x="0" y="0" onmousedown="handlePan(-1,0)"/>
</g>
<svg viewBox="0 0 15 15" width="100%" height="30px" preserveAspectRatio="xMaxYMin meet">
 <g id="arrow_out" transform="scale(0.3 0.3)">
  <a xlink:href="classCardDatabaseQuerier_aff312b6e86af888b25e7696dfb459d06_icgraph_org.svg" target="_base">
   <rect id="button" ry="5" rx="5" y="6" x="6" height="38" width="38"
        fill="#f2f5e9" fill-opacity="0.5" stroke="#606060" stroke-width="1.0"/>
   <path id="arrow"
     d="M 11.500037,31.436501 C 11.940474,20.09759 22.043105,11.32322 32.158766,21.979434 L 37.068811,17.246167 C 37.068811,17.246167 37.088388,32 37.088388,32 L 22.160133,31.978069 C 22.160133,31.978069 26.997745,27.140456 26.997745,27.140456 C 18.528582,18.264221 13.291696,25.230495 11.500037,31.436501 z"
     style="fill:#404040;"/>
  </a>
 </g>
</svg>

<style type='text/css'>
<![CDATA[
[data-mouse-over-selected='false'] { opacity: 0.7; }
[data-mouse-over-selected='true']  { opacity: 1.0; }
]]>
</style>
<script type="application/ecmascript"><![CDATA[
document.addEventListener('DOMContentLoaded', (event) => {
  highlightEdges();
  highlightAdjacentNodes();
});
]]></script>
</svg>
