<?xml version="1.0" encoding="UTF-8" standalone="no"?>
<!DOCTYPE svg PUBLIC "-//W3C//DTD SVG 1.1//EN"
 "http://www.w3.org/Graphics/SVG/1.1/DTD/svg11.dtd">
<!-- Generated by graphviz version 2.43.0 (0)
 -->
<!-- Title: CardInfoPictureWidget::mousePressEvent Pages: 1 -->
<svg width="668pt" height="155pt"
 viewBox="0.00 0.00 668.00 155.00" xmlns="http://www.w3.org/2000/svg" xmlns:xlink="http://www.w3.org/1999/xlink">
<g id="graph0" class="graph" transform="scale(1 1) rotate(0) translate(4 151)">
<title>CardInfoPictureWidget::mousePressEvent</title>
<!-- Node1 -->
<g id="Node000001" class="node">
<title>Node1</title>
<g id="a_Node000001"><a xlink:title=" ">
<polygon fill="#999999" stroke="#666666" points="126,-123 0,-123 0,-93 126,-93 126,-123"/>
<text text-anchor="start" x="8" y="-111" font-family="Helvetica,sans-Serif" font-size="10.00">CardInfoPictureWidget</text>
<text text-anchor="middle" x="63" y="-100" font-family="Helvetica,sans-Serif" font-size="10.00">::mousePressEvent</text>
</a>
</g>
</g>
<!-- Node2 -->
<g id="Node000002" class="node">
<title>Node2</title>
<g id="a_Node000002"><a xlink:href="../../dd/dd2/classCardInfoPictureWidget.html#acb7c335236eac6e01bffd79f89ab3ced" target="_top" xlink:title=" ">
<polygon fill="white" stroke="#666666" points="290,-147 164,-147 164,-117 290,-117 290,-147"/>
<text text-anchor="start" x="172" y="-135" font-family="Helvetica,sans-Serif" font-size="10.00">CardInfoPictureWidget</text>
<text text-anchor="middle" x="227" y="-124" font-family="Helvetica,sans-Serif" font-size="10.00">::cardClicked</text>
</a>
</g>
</g>
<!-- Node1&#45;&gt;Node2 -->
<g id="edge1_Node000001_Node000002" class="edge">
<title>Node1&#45;&gt;Node2</title>
<g id="a_edge1_Node000001_Node000002"><a xlink:title=" ">
<path fill="none" stroke="#63b8ff" d="M126.17,-117.21C136.93,-118.8 148.15,-120.47 159.03,-122.08"/>
<polygon fill="#63b8ff" stroke="#63b8ff" points="164,-122.81 158.72,-124.31 161.52,-122.45 159.05,-122.08 159.05,-122.08 159.05,-122.08 161.52,-122.45 159.38,-119.86 164,-122.81 164,-122.81"/>
</a>
</g>
</g>
<!-- Node3 -->
<g id="Node000003" class="node">
<title>Node3</title>
<g id="a_Node000003"><a xlink:href="../../dd/dd2/classCardInfoPictureWidget.html#a9a06cb9e91772515e455dde9ea6b1d34" target="_top" xlink:title=" ">
<polygon fill="white" stroke="#666666" points="292,-99 162,-99 162,-69 292,-69 292,-99"/>
<text text-anchor="start" x="170" y="-87" font-family="Helvetica,sans-Serif" font-size="10.00">CardInfoPictureWidget</text>
<text text-anchor="middle" x="227" y="-76" font-family="Helvetica,sans-Serif" font-size="10.00">::createRightClickMenu</text>
</a>
</g>
</g>
<!-- Node1&#45;&gt;Node3 -->
<g id="edge2_Node000001_Node000003" class="edge">
<title>Node1&#45;&gt;Node3</title>
<g id="a_edge2_Node000001_Node000003"><a xlink:title=" ">
<path fill="none" stroke="#63b8ff" d="M126.17,-98.79C136.22,-97.3 146.67,-95.75 156.87,-94.24"/>
<polygon fill="#63b8ff" stroke="#63b8ff" points="161.85,-93.5 157.23,-96.46 159.38,-93.87 156.9,-94.24 156.9,-94.24 156.9,-94.24 159.38,-93.87 156.57,-92.01 161.85,-93.5 161.85,-93.5"/>
</a>
</g>
</g>
<!-- Node4 -->
<g id="Node000004" class="node">
<title>Node4</title>
<g id="a_Node000004"><a xlink:href="../../dd/dd2/classCardInfoPictureWidget.html#a8b4abff9a219f1952f5eb5dc47b049ac" target="_top" xlink:title=" ">
<polygon fill="white" stroke="#666666" points="493,-123 333,-123 333,-93 493,-93 493,-123"/>
<text text-anchor="start" x="341" y="-111" font-family="Helvetica,sans-Serif" font-size="10.00">CardInfoPictureWidget</text>
<text text-anchor="middle" x="413" y="-100" font-family="Helvetica,sans-Serif" font-size="10.00">::createAddToOpenDeckMenu</text>
</a>
</g>
</g>
<!-- Node3&#45;&gt;Node4 -->
<g id="edge3_Node000003_Node000004" class="edge">
<title>Node3&#45;&gt;Node4</title>
<g id="a_edge3_Node000003_Node000004"><a xlink:title=" ">
<path fill="none" stroke="#63b8ff" d="M292.1,-92.36C303.62,-93.86 315.79,-95.45 327.79,-97.02"/>
<polygon fill="#63b8ff" stroke="#63b8ff" points="332.91,-97.68 327.66,-99.27 330.43,-97.36 327.95,-97.04 327.95,-97.04 327.95,-97.04 330.43,-97.36 328.24,-94.81 332.91,-97.68 332.91,-97.68"/>
</a>
</g>
</g>
<!-- Node6 -->
<g id="Node000006" class="node">
<title>Node6</title>
<g id="a_Node000006"><a xlink:href="../../dd/dd2/classCardInfoPictureWidget.html#af3de88c05cf038b882bba4caa0b5492a" target="_top" xlink:title=" ">
<polygon fill="white" stroke="#666666" points="498,-75 328,-75 328,-45 498,-45 498,-75"/>
<text text-anchor="start" x="336" y="-63" font-family="Helvetica,sans-Serif" font-size="10.00">CardInfoPictureWidget</text>
<text text-anchor="middle" x="413" y="-52" font-family="Helvetica,sans-Serif" font-size="10.00">::createViewRelatedCardsMenu</text>
</a>
</g>
</g>
<!-- Node3&#45;&gt;Node6 -->
<g id="edge5_Node000003_Node000006" class="edge">
<title>Node3&#45;&gt;Node6</title>
<g id="a_edge5_Node000003_Node000006"><a xlink:title=" ">
<path fill="none" stroke="#63b8ff" d="M292.1,-75.64C301.99,-74.35 312.36,-73 322.68,-71.65"/>
<polygon fill="#63b8ff" stroke="#63b8ff" points="327.74,-70.99 323.08,-73.87 325.27,-71.31 322.79,-71.64 322.79,-71.64 322.79,-71.64 325.27,-71.31 322.5,-69.41 327.74,-70.99 327.74,-70.99"/>
</a>
</g>
</g>
<!-- Node5 -->
<g id="Node000005" class="node">
<title>Node5</title>
<g id="a_Node000005"><a xlink:href="../../da/d63/card__info__picture__widget_8cpp.html#aa4b91f294db69da1d815357bbf9f2efe" target="_top" xlink:title=" ">
<polygon fill="white" stroke="#666666" points="646,-117.5 548,-117.5 548,-98.5 646,-98.5 646,-117.5"/>
<text text-anchor="middle" x="597" y="-105.5" font-family="Helvetica,sans-Serif" font-size="10.00">findMainWindow</text>
</a>
</g>
</g>
<!-- Node4&#45;&gt;Node5 -->
<g id="edge4_Node000004_Node000005" class="edge">
<title>Node4&#45;&gt;Node5</title>
<g id="a_edge4_Node000004_Node000005"><a xlink:title=" ">
<path fill="none" stroke="#63b8ff" d="M493.03,-108C509.84,-108 527.2,-108 542.77,-108"/>
<polygon fill="#63b8ff" stroke="#63b8ff" points="547.98,-108 542.98,-110.25 545.48,-108 542.98,-108 542.98,-108 542.98,-108 545.48,-108 542.98,-105.75 547.98,-108 547.98,-108"/>
</a>
</g>
</g>
<!-- Node7 -->
<g id="Node000007" class="node">
<title>Node7</title>
<g id="a_Node000007"><a xlink:href="../../dd/dd2/classCardInfoPictureWidget.html#a24918126c99c2a3ce29a1a3280573c53" target="_top" xlink:title=" ">
<polygon fill="white" stroke="#666666" points="660,-78 534,-78 534,-48 660,-48 660,-78"/>
<text text-anchor="start" x="542" y="-66" font-family="Helvetica,sans-Serif" font-size="10.00">CardInfoPictureWidget</text>
<text text-anchor="middle" x="597" y="-55" font-family="Helvetica,sans-Serif" font-size="10.00">::cardChanged</text>
</a>
</g>
</g>
<!-- Node6&#45;&gt;Node7 -->
<g id="edge6_Node000006_Node000007" class="edge">
<title>Node6&#45;&gt;Node7</title>
<g id="a_edge6_Node000006_Node000007"><a xlink:title=" ">
<path fill="none" stroke="#63b8ff" d="M498.07,-61.39C508.31,-61.55 518.65,-61.73 528.6,-61.89"/>
<polygon fill="#63b8ff" stroke="#63b8ff" points="533.76,-61.97 528.72,-64.14 531.26,-61.93 528.76,-61.89 528.76,-61.89 528.76,-61.89 531.26,-61.93 528.8,-59.64 533.76,-61.97 533.76,-61.97"/>
</a>
</g>
</g>
<!-- Node8 -->
<g id="Node000008" class="node">
<title>Node8</title>
<g id="a_Node000008"><a xlink:href="../../dd/dd2/classCardInfoPictureWidget.html#adace469451bad01b966f966366081d49" target="_top" xlink:title=" ">
<polygon fill="white" stroke="#666666" points="660,-30 534,-30 534,0 660,0 660,-30"/>
<text text-anchor="start" x="542" y="-18" font-family="Helvetica,sans-Serif" font-size="10.00">CardInfoPictureWidget</text>
<text text-anchor="middle" x="597" y="-7" font-family="Helvetica,sans-Serif" font-size="10.00">::getCard</text>
</a>
</g>
</g>
<!-- Node6&#45;&gt;Node8 -->
<g id="edge7_Node000006_Node000008" class="edge">
<title>Node6&#45;&gt;Node8</title>
<g id="a_edge7_Node000006_Node000008"><a xlink:title=" ">
<path fill="none" stroke="#63b8ff" d="M474.86,-44.95C492.61,-40.56 512.1,-35.74 530.15,-31.28"/>
<polygon fill="#63b8ff" stroke="#63b8ff" points="535.2,-30.03 530.89,-33.42 532.77,-30.63 530.35,-31.23 530.35,-31.23 530.35,-31.23 532.77,-30.63 529.81,-29.05 535.2,-30.03 535.2,-30.03"/>
</a>
</g>
</g>
</g>
</svg>
