<?xml version="1.0" encoding="UTF-8" standalone="no"?>
<!DOCTYPE svg PUBLIC "-//W3C//DTD SVG 1.1//EN"
 "http://www.w3.org/Graphics/SVG/1.1/DTD/svg11.dtd">
<!-- Generated by graphviz version 2.43.0 (0)
 -->
<!-- Title: CardInfo::cardInfoChanged Pages: 1 -->
<!--zoomable 188 -->

<svg id="main" version="1.1" xmlns="http://www.w3.org/2000/svg" xmlns:xlink="http://www.w3.org/1999/xlink" xml:space="preserve" onload="init(evt)">

<style type="text/css"><![CDATA[
.node, .edge {opacity: 0.7;}
.node.selected, .edge.selected {opacity: 1;}
.edge:hover path { stroke: red; }
.edge:hover polygon { stroke: red; fill: red; }
]]></style>

<defs>
  <circle id="rim" cx="0" cy="0" r="7"/>
  <circle id="rim2" cx="0" cy="0" r="3.5"/>
  <g id="zoomPlus">
    <use xlink:href="#rim" fill="#404040"><set attributeName="fill" to="#808080" begin="zoomplus.mouseover" end="zoomplus.mouseout"/></use>
    <path d="M-4,0h8M0,-4v8" fill="none" stroke="white" stroke-width="1.5" pointer-events="none"/>
  </g>
  <g id="zoomMin">
    <use xlink:href="#rim" fill="#404040"><set attributeName="fill" to="#808080" begin="zoomminus.mouseover" end="zoomminus.mouseout"/></use>
    <path d="M-4,0h8" fill="none" stroke="white" stroke-width="1.5" pointer-events="none"/>
  </g>
  <g id="arrowUp" transform="translate(30 24)">
    <use xlink:href="#rim"/>
    <path pointer-events="none" fill="none" stroke="white" stroke-width="1.5" d="M0,-3.0v7 M-2.5,-0.5L0,-3.0L2.5,-0.5"/>
  </g>
  <g id="arrowRight" transform="rotate(90) translate(36 -43)">
    <use xlink:href="#rim"/>
    <path pointer-events="none" fill="none" stroke="white" stroke-width="1.5" d="M0,-3.0v7 M-2.5,-0.5L0,-3.0L2.5,-0.5"/>
  </g>
  <g id="arrowDown" transform="rotate(180) translate(-30 -48)">
    <use xlink:href="#rim"/>
    <path pointer-events="none" fill="none" stroke="white" stroke-width="1.5" d="M0,-3.0v7 M-2.5,-0.5L0,-3.0L2.5,-0.5"/>
  </g>
  <g id="arrowLeft" transform="rotate(270) translate(-36 17)">
    <use xlink:href="#rim"/>
    <path pointer-events="none" fill="none" stroke="white" stroke-width="1.5" d="M0,-3.0v7 M-2.5,-0.5L0,-3.0L2.5,-0.5"/>
  </g>
  <g id="resetDef">
    <use xlink:href="#rim2" fill="#404040"><set attributeName="fill" to="#808080" begin="reset.mouseover" end="reset.mouseout"/></use>
  </g>
</defs>
<script type="application/ecmascript">
var viewWidth = 693;
var viewHeight = 188;
var sectionId = 'dynsection-6';
</script>
<script type="application/ecmascript" xlink:href="../../svg.min.js"/>
<svg id="graph" class="graph">
<g id="viewport">
<title>CardInfo::cardInfoChanged</title>
<!-- Node1 -->
<g id="Node000001" class="node">
<title>Node1</title>
<g id="a_Node000001"><a xlink:title="Emitted when card properties or state have changed.">
<polygon fill="#999999" stroke="#666666" points="685,-72 539,-72 539,-53 685,-53 685,-72"/>
<text text-anchor="middle" x="612" y="-60" font-family="Helvetica,sans-Serif" font-size="10.00">CardInfo::cardInfoChanged</text>
</a>
</g>
</g>
<!-- Node2 -->
<g id="Node000002" class="node">
<title>Node2</title>
<g id="a_Node000002"><a xlink:href="../../dd/d83/classCardDatabaseModel.html#ace9f224ca8872496b9419100c23b96d5" target="_top" xlink:title=" ">
<polygon fill="white" stroke="#666666" points="503,-136.5 381,-136.5 381,-106.5 503,-106.5 503,-136.5"/>
<text text-anchor="start" x="389" y="-124.5" font-family="Helvetica,sans-Serif" font-size="10.00">CardDatabaseModel::</text>
<text text-anchor="middle" x="442" y="-113.5" font-family="Helvetica,sans-Serif" font-size="10.00">cardAdded</text>
</a>
</g>
</g>
<!-- Node1&#45;&gt;Node2 -->
<g id="edge1_Node000001_Node000002" class="edge">
<title>Node1&#45;&gt;Node2</title>
<g id="a_edge1_Node000001_Node000002"><a xlink:title=" ">
<path fill="none" stroke="#63b8ff" d="M578.84,-73.8C552.41,-83.07 514.76,-96.3 485.79,-106.47"/>
<polygon fill="#63b8ff" stroke="#63b8ff" points="583.63,-72.11 579.66,-75.89 581.28,-72.94 578.92,-73.77 578.92,-73.77 578.92,-73.77 581.28,-72.94 578.17,-71.64 583.63,-72.11 583.63,-72.11"/>
</a>
</g>
</g>
<!-- Node5 -->
<g id="Node000005" class="node">
<title>Node5</title>
<g id="a_Node000005"><a xlink:href="../../dd/dd2/classCardInfo.html#aa810cc14f4e6cd9c3b88bcf5201f5bbd" target="_top" xlink:title=" ">
<polygon fill="white" stroke="#666666" points="502,-72 382,-72 382,-53 502,-53 502,-72"/>
<text text-anchor="middle" x="442" y="-60" font-family="Helvetica,sans-Serif" font-size="10.00">CardInfo::setProperty</text>
</a>
</g>
</g>
<!-- Node1&#45;&gt;Node5 -->
<g id="edge5_Node000001_Node000005" class="edge">
<title>Node1&#45;&gt;Node5</title>
<g id="a_edge5_Node000001_Node000005"><a xlink:title=" ">
<path fill="none" stroke="#63b8ff" d="M533.58,-62.5C522.97,-62.5 512.22,-62.5 502.01,-62.5"/>
<polygon fill="#63b8ff" stroke="#63b8ff" points="538.78,-62.5 533.78,-64.75 536.28,-62.5 533.78,-62.5 533.78,-62.5 533.78,-62.5 536.28,-62.5 533.78,-60.25 538.78,-62.5 538.78,-62.5"/>
</a>
</g>
</g>
<!-- Node9 -->
<g id="Node000009" class="node">
<title>Node9</title>
<g id="a_Node000009"><a xlink:href="../../dd/dd2/classCardInfo.html#a26f241b0c113843289738aa7a563456e" target="_top" xlink:title=" ">
<polygon fill="white" stroke="#666666" points="491.5,-35 392.5,-35 392.5,-16 491.5,-16 491.5,-35"/>
<text text-anchor="middle" x="442" y="-23" font-family="Helvetica,sans-Serif" font-size="10.00">CardInfo::setText</text>
</a>
</g>
</g>
<!-- Node1&#45;&gt;Node9 -->
<g id="edge9_Node000001_Node000009" class="edge">
<title>Node1&#45;&gt;Node9</title>
<g id="a_edge9_Node000001_Node000009"><a xlink:title=" ">
<path fill="none" stroke="#63b8ff" d="M562.68,-51.86C538.62,-46.56 509.76,-40.2 486.41,-35.06"/>
<polygon fill="#63b8ff" stroke="#63b8ff" points="567.74,-52.97 562.37,-54.09 565.29,-52.43 562.85,-51.9 562.85,-51.9 562.85,-51.9 565.29,-52.43 563.34,-49.7 567.74,-52.97 567.74,-52.97"/>
</a>
</g>
</g>
<!-- Node3 -->
<g id="Node000003" class="node">
<title>Node3</title>
<g id="a_Node000003"><a xlink:href="../../dd/d83/classCardDatabaseModel.html#addaed879cfb5971b58e2f15f6f2f6a85" target="_top" xlink:title=" ">
<polygon fill="white" stroke="#666666" points="345,-179.5 158,-179.5 158,-149.5 345,-149.5 345,-179.5"/>
<text text-anchor="start" x="166" y="-167.5" font-family="Helvetica,sans-Serif" font-size="10.00">CardDatabaseModel::</text>
<text text-anchor="middle" x="251.5" y="-156.5" font-family="Helvetica,sans-Serif" font-size="10.00">cardDatabaseEnabledSetsChanged</text>
</a>
</g>
</g>
<!-- Node2&#45;&gt;Node3 -->
<g id="edge2_Node000002_Node000003" class="edge">
<title>Node2&#45;&gt;Node3</title>
<g id="a_edge2_Node000002_Node000003"><a xlink:title=" ">
<path fill="none" stroke="#63b8ff" d="M375.65,-136.41C357.09,-140.64 336.87,-145.25 318.29,-149.49"/>
<polygon fill="#63b8ff" stroke="#63b8ff" points="380.84,-135.22 376.46,-138.53 378.4,-135.78 375.96,-136.34 375.96,-136.34 375.96,-136.34 378.4,-135.78 375.46,-134.14 380.84,-135.22 380.84,-135.22"/>
</a>
</g>
</g>
<!-- Node4 -->
<g id="Node000004" class="node">
<title>Node4</title>
<g id="a_Node000004"><a xlink:href="../../dd/d83/classCardDatabaseModel.html#a67fc0ed173b9305d84b4eb0c42c153f2" target="_top" xlink:title=" ">
<polygon fill="white" stroke="#666666" points="122,-157.5 0,-157.5 0,-127.5 122,-127.5 122,-157.5"/>
<text text-anchor="start" x="8" y="-145.5" font-family="Helvetica,sans-Serif" font-size="10.00">CardDatabaseModel::</text>
<text text-anchor="middle" x="61" y="-134.5" font-family="Helvetica,sans-Serif" font-size="10.00">CardDatabaseModel</text>
</a>
</g>
</g>
<!-- Node2&#45;&gt;Node4 -->
<g id="edge4_Node000002_Node000004" class="edge">
<title>Node2&#45;&gt;Node4</title>
<g id="a_edge4_Node000002_Node000004"><a xlink:title=" ">
<path fill="none" stroke="#63b8ff" d="M375.89,-125.11C304.62,-129.06 191.3,-135.34 122.09,-139.17"/>
<polygon fill="#63b8ff" stroke="#63b8ff" points="380.95,-124.83 376.08,-127.35 378.45,-124.97 375.95,-125.1 375.95,-125.1 375.95,-125.1 378.45,-124.97 375.83,-122.86 380.95,-124.83 380.95,-124.83"/>
</a>
</g>
</g>
<!-- Node3&#45;&gt;Node4 -->
<g id="edge3_Node000003_Node000004" class="edge">
<title>Node3&#45;&gt;Node4</title>
<g id="a_edge3_Node000003_Node000004"><a xlink:title=" ">
<path fill="none" stroke="#63b8ff" d="M152.76,-153.09C142.28,-151.87 131.87,-150.65 122.02,-149.51"/>
<polygon fill="#63b8ff" stroke="#63b8ff" points="157.91,-153.69 152.68,-155.35 155.42,-153.4 152.94,-153.11 152.94,-153.11 152.94,-153.11 155.42,-153.4 153.2,-150.88 157.91,-153.69 157.91,-153.69"/>
</a>
</g>
</g>
<!-- Node6 -->
<g id="Node000006" class="node">
<title>Node6</title>
<g id="a_Node000006"><a xlink:href="../../dd/dd2/classCardInfo.html#a07d401ac2f684b8ffcd8d61b102978f8" target="_top" xlink:title=" ">
<polygon fill="white" stroke="#666666" points="313.5,-93 189.5,-93 189.5,-74 313.5,-74 313.5,-93"/>
<text text-anchor="middle" x="251.5" y="-81" font-family="Helvetica,sans-Serif" font-size="10.00">CardInfo::setCardType</text>
</a>
</g>
</g>
<!-- Node5&#45;&gt;Node6 -->
<g id="edge6_Node000005_Node000006" class="edge">
<title>Node5&#45;&gt;Node6</title>
<g id="a_edge6_Node000005_Node000006"><a xlink:title=" ">
<path fill="none" stroke="#63b8ff" d="M376.74,-69.66C356.35,-71.93 333.86,-74.44 313.69,-76.68"/>
<polygon fill="#63b8ff" stroke="#63b8ff" points="381.87,-69.09 377.15,-71.88 379.39,-69.36 376.91,-69.64 376.91,-69.64 376.91,-69.64 379.39,-69.36 376.66,-67.4 381.87,-69.09 381.87,-69.09"/>
</a>
</g>
</g>
<!-- Node7 -->
<g id="Node000007" class="node">
<title>Node7</title>
<g id="a_Node000007"><a xlink:href="../../dd/dd2/classCardInfo.html#ab281238370cf5ebaba4e2ff05caec18c" target="_top" xlink:title=" ">
<polygon fill="white" stroke="#666666" points="306.5,-56 196.5,-56 196.5,-37 306.5,-37 306.5,-56"/>
<text text-anchor="middle" x="251.5" y="-44" font-family="Helvetica,sans-Serif" font-size="10.00">CardInfo::setColors</text>
</a>
</g>
</g>
<!-- Node5&#45;&gt;Node7 -->
<g id="edge7_Node000005_Node000007" class="edge">
<title>Node5&#45;&gt;Node7</title>
<g id="a_edge7_Node000005_Node000007"><a xlink:title=" ">
<path fill="none" stroke="#63b8ff" d="M376.75,-57.05C353.93,-55.11 328.5,-52.95 306.61,-51.09"/>
<polygon fill="#63b8ff" stroke="#63b8ff" points="381.87,-57.48 376.7,-59.3 379.38,-57.27 376.89,-57.06 376.89,-57.06 376.89,-57.06 379.38,-57.27 377.08,-54.82 381.87,-57.48 381.87,-57.48"/>
</a>
</g>
</g>
<!-- Node8 -->
<g id="Node000008" class="node">
<title>Node8</title>
<g id="a_Node000008"><a xlink:href="../../dd/dd2/classCardInfo.html#a6f2298356236c47428eea1ea3c7cef5c" target="_top" xlink:title=" ">
<polygon fill="white" stroke="#666666" points="315.5,-19 187.5,-19 187.5,0 315.5,0 315.5,-19"/>
<text text-anchor="middle" x="251.5" y="-7" font-family="Helvetica,sans-Serif" font-size="10.00">CardInfo::setPowTough</text>
</a>
</g>
</g>
<!-- Node5&#45;&gt;Node8 -->
<g id="edge8_Node000005_Node000008" class="edge">
<title>Node5&#45;&gt;Node8</title>
<g id="a_edge8_Node000005_Node000008"><a xlink:title=" ">
<path fill="none" stroke="#63b8ff" d="M401.31,-51.37C394.49,-49.23 387.5,-46.91 381,-44.5 364.58,-38.42 361.67,-33.85 345,-28.5 333.45,-24.79 320.85,-21.64 308.76,-19.04"/>
<polygon fill="#63b8ff" stroke="#63b8ff" points="406.48,-52.96 401.04,-53.64 404.09,-52.23 401.71,-51.49 401.71,-51.49 401.71,-51.49 404.09,-52.23 402.37,-49.34 406.48,-52.96 406.48,-52.96"/>
</a>
</g>
</g>
</g>
</svg>

<g id="navigator" transform="translate(0 0)" fill="#404254">
  <rect fill="#f2f5e9" fill-opacity="0.5" stroke="#606060" stroke-width=".5" x="0" y="0" width="60" height="60"/>
  <use id="zoomplus" xlink:href="#zoomPlus" x="17" y="9" onmousedown="handleZoom(evt,'in')"/>
  <use id="zoomminus" xlink:href="#zoomMin" x="42" y="9" onmousedown="handleZoom(evt,'out')"/>
  <use id="reset" xlink:href="#resetDef" x="30" y="36" onmousedown="handleReset()"/>
   <use id="arrowup" xlink:href="#arrowUp" x="0" y="0" onmousedown="handlePan(0,-1)"/>
  <use id="arrowright" xlink:href="#arrowRight" x="0" y="0" onmousedown="handlePan(1,0)"/>
  <use id="arrowdown" xlink:href="#arrowDown" x="0" y="0" onmousedown="handlePan(0,1)"/>
  <use id="arrowleft" xlink:href="#arrowLeft" x="0" y="0" onmousedown="handlePan(-1,0)"/>
</g>
<svg viewBox="0 0 15 15" width="100%" height="30px" preserveAspectRatio="xMaxYMin meet">
 <g id="arrow_out" transform="scale(0.3 0.3)">
  <a xlink:href="classCardInfo_ac7314130c21a55725413c89a857e4c95_icgraph_org.svg" target="_base">
   <rect id="button" ry="5" rx="5" y="6" x="6" height="38" width="38"
        fill="#f2f5e9" fill-opacity="0.5" stroke="#606060" stroke-width="1.0"/>
   <path id="arrow"
     d="M 11.500037,31.436501 C 11.940474,20.09759 22.043105,11.32322 32.158766,21.979434 L 37.068811,17.246167 C 37.068811,17.246167 37.088388,32 37.088388,32 L 22.160133,31.978069 C 22.160133,31.978069 26.997745,27.140456 26.997745,27.140456 C 18.528582,18.264221 13.291696,25.230495 11.500037,31.436501 z"
     style="fill:#404040;"/>
  </a>
 </g>
</svg>

<style type='text/css'>
<![CDATA[
[data-mouse-over-selected='false'] { opacity: 0.7; }
[data-mouse-over-selected='true']  { opacity: 1.0; }
]]>
</style>
<script type="application/ecmascript"><![CDATA[
document.addEventListener('DOMContentLoaded', (event) => {
  highlightEdges();
  highlightAdjacentNodes();
});
]]></script>
</svg>
