<?xml version="1.0" encoding="UTF-8" standalone="no"?>
<!DOCTYPE svg PUBLIC "-//W3C//DTD SVG 1.1//EN"
 "http://www.w3.org/Graphics/SVG/1.1/DTD/svg11.dtd">
<!-- Generated by graphviz version 2.43.0 (0)
 -->
<!-- Title: CardInfo::setCardType Pages: 1 -->
<!--zoomable 130 -->

<svg id="main" version="1.1" xmlns="http://www.w3.org/2000/svg" xmlns:xlink="http://www.w3.org/1999/xlink" xml:space="preserve">

<style type="text/css"><![CDATA[
.node, .edge {opacity: 0.7;}
.node.selected, .edge.selected {opacity: 1;}
.edge:hover path { stroke: red; }
.edge:hover polygon { stroke: red; fill: red; }
]]></style>

<defs>
  <circle id="rim" cx="0" cy="0" r="7"/>
  <circle id="rim2" cx="0" cy="0" r="3.5"/>
  <g id="zoomPlus">
    <use xlink:href="#rim" fill="#404040"><set attributeName="fill" to="#808080" begin="zoomplus.mouseover" end="zoomplus.mouseout"/></use>
    <path d="M-4,0h8M0,-4v8" fill="none" stroke="white" stroke-width="1.5" pointer-events="none"/>
  </g>
  <g id="zoomMin">
    <use xlink:href="#rim" fill="#404040"><set attributeName="fill" to="#808080" begin="zoomminus.mouseover" end="zoomminus.mouseout"/></use>
    <path d="M-4,0h8" fill="none" stroke="white" stroke-width="1.5" pointer-events="none"/>
  </g>
  <g id="arrowUp" transform="translate(30 24)">
    <use xlink:href="#rim"/>
    <path pointer-events="none" fill="none" stroke="white" stroke-width="1.5" d="M0,-3.0v7 M-2.5,-0.5L0,-3.0L2.5,-0.5"/>
  </g>
  <g id="arrowRight" transform="rotate(90) translate(36 -43)">
    <use xlink:href="#rim"/>
    <path pointer-events="none" fill="none" stroke="white" stroke-width="1.5" d="M0,-3.0v7 M-2.5,-0.5L0,-3.0L2.5,-0.5"/>
  </g>
  <g id="arrowDown" transform="rotate(180) translate(-30 -48)">
    <use xlink:href="#rim"/>
    <path pointer-events="none" fill="none" stroke="white" stroke-width="1.5" d="M0,-3.0v7 M-2.5,-0.5L0,-3.0L2.5,-0.5"/>
  </g>
  <g id="arrowLeft" transform="rotate(270) translate(-36 17)">
    <use xlink:href="#rim"/>
    <path pointer-events="none" fill="none" stroke="white" stroke-width="1.5" d="M0,-3.0v7 M-2.5,-0.5L0,-3.0L2.5,-0.5"/>
  </g>
  <g id="resetDef">
    <use xlink:href="#rim2" fill="#404040"><set attributeName="fill" to="#808080" begin="reset.mouseover" end="reset.mouseout"/></use>
  </g>
</defs>
<script type="application/ecmascript" xlink:href="../../svg.min.js"/>
<svg id="graph" class="graph" data-view-width="771" data-view-height="130" data-section-id="dynsection-55">
<g id="viewport">
<title>CardInfo::setCardType</title>
<!-- Node1 -->
<g id="Node000001" class="node">
<title>Node1</title>
<g id="a_Node000001"><a xlink:title=" ">
<polygon fill="#999999" stroke="#666666" points="124,-84.5 0,-84.5 0,-65.5 124,-65.5 124,-84.5"/>
<text text-anchor="middle" x="62" y="-72.5" font-family="Helvetica,sans-Serif" font-size="10.00">CardInfo::setCardType</text>
</a>
</g>
</g>
<!-- Node2 -->
<g id="Node000002" class="node">
<title>Node2</title>
<g id="a_Node000002"><a xlink:href="../../db/d09/namespaceMtg.html#a4bc91765ba60a174b43cddf261eee6e0" target="_top" xlink:title=" ">
<polygon fill="white" stroke="#666666" points="263,-103.5 177,-103.5 177,-84.5 263,-84.5 263,-103.5"/>
<text text-anchor="middle" x="220" y="-91.5" font-family="Helvetica,sans-Serif" font-size="10.00">Mtg::CardType</text>
</a>
</g>
</g>
<!-- Node1&#45;&gt;Node2 -->
<g id="edge1_Node000001_Node000002" class="edge">
<title>Node1&#45;&gt;Node2</title>
<g id="a_edge1_Node000001_Node000002"><a xlink:title=" ">
<path fill="none" stroke="#63b8ff" d="M124.21,-82.45C140.01,-84.38 156.77,-86.42 171.73,-88.24"/>
<polygon fill="#63b8ff" stroke="#63b8ff" points="176.74,-88.85 171.5,-90.48 174.26,-88.55 171.77,-88.25 171.77,-88.25 171.77,-88.25 174.26,-88.55 172.05,-86.01 176.74,-88.85 176.74,-88.85"/>
</a>
</g>
</g>
<!-- Node3 -->
<g id="Node000003" class="node">
<title>Node3</title>
<g id="a_Node000003"><a xlink:href="../../dd/dd2/classCardInfo.html#aa810cc14f4e6cd9c3b88bcf5201f5bbd" target="_top" xlink:title=" ">
<polygon fill="white" stroke="#666666" points="280,-66.5 160,-66.5 160,-47.5 280,-47.5 280,-66.5"/>
<text text-anchor="middle" x="220" y="-54.5" font-family="Helvetica,sans-Serif" font-size="10.00">CardInfo::setProperty</text>
</a>
</g>
</g>
<!-- Node1&#45;&gt;Node3 -->
<g id="edge3_Node000001_Node000003" class="edge">
<title>Node1&#45;&gt;Node3</title>
<g id="a_edge3_Node000001_Node000003"><a xlink:title=" ">
<path fill="none" stroke="#63b8ff" d="M124.21,-67.94C134.17,-66.79 144.51,-65.6 154.54,-64.44"/>
<polygon fill="#63b8ff" stroke="#63b8ff" points="159.76,-63.84 155.05,-66.64 157.27,-64.12 154.79,-64.41 154.79,-64.41 154.79,-64.41 157.27,-64.12 154.53,-62.17 159.76,-63.84 159.76,-63.84"/>
</a>
</g>
</g>
<!-- Node2&#45;&gt;Node2 -->
<g id="edge2_Node000002_Node000002" class="edge">
<title>Node2&#45;&gt;Node2</title>
<g id="a_edge2_Node000002_Node000002"><a xlink:title=" ">
<path fill="none" stroke="#63b8ff" d="M195.65,-103.58C183.8,-112.23 191.92,-121.5 220,-121.5 244.13,-121.5 253.52,-114.66 248.17,-107.24"/>
<polygon fill="#63b8ff" stroke="#63b8ff" points="244.35,-103.58 249.52,-105.42 246.16,-105.31 247.96,-107.04 247.96,-107.04 247.96,-107.04 246.16,-105.31 246.4,-108.67 244.35,-103.58 244.35,-103.58"/>
</a>
</g>
</g>
<!-- Node4 -->
<g id="Node000004" class="node">
<title>Node4</title>
<g id="a_Node000004"><a xlink:href="../../dd/dd2/classCardInfo.html#ac7314130c21a55725413c89a857e4c95" target="_top" xlink:title="Emitted when card properties or state have changed.">
<polygon fill="white" stroke="#666666" points="462,-88.5 316,-88.5 316,-69.5 462,-69.5 462,-88.5"/>
<text text-anchor="middle" x="389" y="-76.5" font-family="Helvetica,sans-Serif" font-size="10.00">CardInfo::cardInfoChanged</text>
</a>
</g>
</g>
<!-- Node3&#45;&gt;Node4 -->
<g id="edge4_Node000003_Node000004" class="edge">
<title>Node3&#45;&gt;Node4</title>
<g id="a_edge4_Node000003_Node000004"><a xlink:title=" ">
<path fill="none" stroke="#63b8ff" d="M280.35,-64.82C290.26,-66.12 300.66,-67.49 310.94,-68.85"/>
<polygon fill="#63b8ff" stroke="#63b8ff" points="315.97,-69.51 310.72,-71.09 313.49,-69.18 311.01,-68.86 311.01,-68.86 311.01,-68.86 313.49,-69.18 311.31,-66.63 315.97,-69.51 315.97,-69.51"/>
</a>
</g>
</g>
<!-- Node5 -->
<g id="Node000005" class="node">
<title>Node5</title>
<g id="a_Node000005"><a xlink:href="../../d9/dd0/classLazyPropertiesHash.html#afd1360870548360e3faa897bf2d32547" target="_top" xlink:title="Inserts a value into the materialized properties hash.">
<polygon fill="white" stroke="#666666" points="445.5,-51 332.5,-51 332.5,-21 445.5,-21 445.5,-51"/>
<text text-anchor="start" x="340.5" y="-39" font-family="Helvetica,sans-Serif" font-size="10.00">LazyPropertiesHash</text>
<text text-anchor="middle" x="389" y="-28" font-family="Helvetica,sans-Serif" font-size="10.00">::insert</text>
</a>
</g>
</g>
<!-- Node3&#45;&gt;Node5 -->
<g id="edge5_Node000003_Node000005" class="edge">
<title>Node3&#45;&gt;Node5</title>
<g id="a_edge5_Node000003_Node000005"><a xlink:title=" ">
<path fill="none" stroke="#63b8ff" d="M280.35,-49.54C295.59,-47.62 312.01,-45.56 327.33,-43.63"/>
<polygon fill="#63b8ff" stroke="#63b8ff" points="332.47,-42.98 327.79,-45.84 329.99,-43.29 327.51,-43.61 327.51,-43.61 327.51,-43.61 329.99,-43.29 327.23,-41.37 332.47,-42.98 332.47,-42.98"/>
</a>
</g>
</g>
<!-- Node6 -->
<g id="Node000006" class="node">
<title>Node6</title>
<g id="a_Node000006"><a xlink:href="../../d9/dd0/classLazyPropertiesHash.html#aac7fe736efd80d6e1fc5195706d83984" target="_top" xlink:title="Materializes properties from blob if not already done. Clears blob afterward. Safe to call from const...">
<polygon fill="white" stroke="#666666" points="763,-51 647,-51 647,-21 763,-21 763,-51"/>
<text text-anchor="start" x="655" y="-39" font-family="Helvetica,sans-Serif" font-size="10.00">LazyPropertiesHash</text>
<text text-anchor="middle" x="705" y="-28" font-family="Helvetica,sans-Serif" font-size="10.00">::ensureMaterialized</text>
</a>
</g>
</g>
<!-- Node5&#45;&gt;Node6 -->
<g id="edge6_Node000005_Node000006" class="edge">
<title>Node5&#45;&gt;Node6</title>
<g id="a_edge6_Node000005_Node000006"><a xlink:title=" ">
<path fill="none" stroke="#63b8ff" d="M445.77,-37.84C462.56,-38.32 481.03,-38.76 498,-39 548.22,-39.7 560.78,-39.81 611,-39 620.99,-38.84 631.59,-38.58 641.91,-38.28"/>
<polygon fill="#63b8ff" stroke="#63b8ff" points="646.95,-38.13 642.02,-40.53 644.46,-38.21 641.96,-38.28 641.96,-38.28 641.96,-38.28 644.46,-38.21 641.89,-36.03 646.95,-38.13 646.95,-38.13"/>
</a>
</g>
</g>
<!-- Node7 -->
<g id="Node000007" class="node">
<title>Node7</title>
<g id="a_Node000007"><a xlink:href="../../d9/dd0/classLazyPropertiesHash.html#a82cdcae6478fe71f31fec62655b9d116" target="_top" xlink:title="Gets the value from the materialized properties hash.">
<polygon fill="white" stroke="#666666" points="611,-30 498,-30 498,0 611,0 611,-30"/>
<text text-anchor="start" x="506" y="-18" font-family="Helvetica,sans-Serif" font-size="10.00">LazyPropertiesHash</text>
<text text-anchor="middle" x="554.5" y="-7" font-family="Helvetica,sans-Serif" font-size="10.00">::value</text>
</a>
</g>
</g>
<!-- Node5&#45;&gt;Node7 -->
<g id="edge7_Node000005_Node000007" class="edge">
<title>Node5&#45;&gt;Node7</title>
<g id="a_edge7_Node000005_Node000007"><a xlink:title=" ">
<path fill="none" stroke="#63b8ff" d="M445.81,-28.83C460.94,-26.89 477.39,-24.78 492.77,-22.8"/>
<polygon fill="#63b8ff" stroke="#63b8ff" points="497.94,-22.14 493.27,-25 495.46,-22.45 492.98,-22.77 492.98,-22.77 492.98,-22.77 495.46,-22.45 492.7,-20.54 497.94,-22.14 497.94,-22.14"/>
</a>
</g>
</g>
<!-- Node7&#45;&gt;Node6 -->
<g id="edge8_Node000007_Node000006" class="edge">
<title>Node7&#45;&gt;Node6</title>
<g id="a_edge8_Node000007_Node000006"><a xlink:title=" ">
<path fill="none" stroke="#63b8ff" d="M611.22,-22.88C621.26,-24.3 631.79,-25.79 642,-27.23"/>
<polygon fill="#63b8ff" stroke="#63b8ff" points="646.98,-27.94 641.71,-29.46 644.5,-27.59 642.03,-27.24 642.03,-27.24 642.03,-27.24 644.5,-27.59 642.34,-25.01 646.98,-27.94 646.98,-27.94"/>
</a>
</g>
</g>
</g>
</svg>

<g id="navigator" transform="translate(0 0)" fill="#404254">
  <rect fill="#f2f5e9" fill-opacity="0.5" stroke="#606060" stroke-width=".5" x="0" y="0" width="60" height="60"/>
  <use id="zoomplus" xlink:href="#zoomPlus" x="17" y="9" data-zoom="in"/>
  <use id="zoomminus" xlink:href="#zoomMin" x="42" y="9" data-zoom="out"/>
  <use id="reset" xlink:href="#resetDef" x="30" y="36" data-reset="true"/>
  <use id="arrowup" xlink:href="#arrowUp" x="0" y="0" data-pan-x="0" data-pan-y="-1"/>
  <use id="arrowright" xlink:href="#arrowRight" x="0" y="0" data-pan-x="1" data-pan-y="0"/>
  <use id="arrowdown" xlink:href="#arrowDown" x="0" y="0" data-pan-x="0" data-pan-y="1"/>
  <use id="arrowleft" xlink:href="#arrowLeft" x="0" y="0" data-pan-x="-1" data-pan-y="0"/>
</g>
<svg viewBox="0 0 15 15" width="100%" height="30px" preserveAspectRatio="xMaxYMin meet">
 <g id="arrow_out" transform="scale(0.3 0.3)">
  <a xlink:href="classCardInfo_a07d401ac2f684b8ffcd8d61b102978f8_cgraph_org.svg" target="_base">
   <rect id="button" ry="5" rx="5" y="6" x="6" height="38" width="38"
        fill="#f2f5e9" fill-opacity="0.5" stroke="#606060" stroke-width="1.0"/>
   <path id="arrow"
     d="M 11.500037,31.436501 C 11.940474,20.09759 22.043105,11.32322 32.158766,21.979434 L 37.068811,17.246167 C 37.068811,17.246167 37.088388,32 37.088388,32 L 22.160133,31.978069 C 22.160133,31.978069 26.997745,27.140456 26.997745,27.140456 C 18.528582,18.264221 13.291696,25.230495 11.500037,31.436501 z"
     style="fill:#404040;"/>
  </a>
 </g>
</svg>

<style type='text/css'>
<![CDATA[
[data-mouse-over-selected='false'] { opacity: 0.7; }
[data-mouse-over-selected='true']  { opacity: 1.0; }
]]>
</style>
</svg>
