<?xml version="1.0" encoding="UTF-8" standalone="no"?>
<!DOCTYPE svg PUBLIC "-//W3C//DTD SVG 1.1//EN"
 "http://www.w3.org/Graphics/SVG/1.1/DTD/svg11.dtd">
<!-- Generated by graphviz version 2.43.0 (0)
 -->
<!-- Title: VisualDeckEditorWidget::activeSortCriteriaChanged Pages: 1 -->
<svg width="750pt" height="154pt"
 viewBox="0.00 0.00 750.00 154.00" xmlns="http://www.w3.org/2000/svg" xmlns:xlink="http://www.w3.org/1999/xlink">
<g id="graph0" class="graph" transform="scale(1 1) rotate(0) translate(4 150)">
<title>VisualDeckEditorWidget::activeSortCriteriaChanged</title>
<!-- Node1 -->
<g id="Node000001" class="node">
<title>Node1</title>
<g id="a_Node000001"><a xlink:title=" ">
<polygon fill="#999999" stroke="#666666" points="742,-90 591,-90 591,-60 742,-60 742,-90"/>
<text text-anchor="start" x="599" y="-78" font-family="Helvetica,sans-Serif" font-size="10.00">VisualDeckEditorWidget</text>
<text text-anchor="middle" x="666.5" y="-67" font-family="Helvetica,sans-Serif" font-size="10.00">::activeSortCriteriaChanged</text>
</a>
</g>
</g>
<!-- Node2 -->
<g id="Node000002" class="node">
<title>Node2</title>
<g id="a_Node000002"><a xlink:href="../../da/d1e/classVisualDeckEditorWidget.html#ac99df567dd6a2c9595cb27085630e193" target="_top" xlink:title=" ">
<polygon fill="white" stroke="#666666" points="337,-146 176,-146 176,-116 337,-116 337,-146"/>
<text text-anchor="start" x="184" y="-134" font-family="Helvetica,sans-Serif" font-size="10.00">VisualDeckEditorWidget</text>
<text text-anchor="middle" x="256.5" y="-123" font-family="Helvetica,sans-Serif" font-size="10.00">::actChangeActiveSortCriteria</text>
</a>
</g>
</g>
<!-- Node1&#45;&gt;Node2 -->
<g id="edge1_Node000001_Node000002" class="edge">
<title>Node1&#45;&gt;Node2</title>
<g id="a_edge1_Node000001_Node000002"><a xlink:title=" ">
<path fill="none" stroke="#63b8ff" d="M612.48,-91.45C594.4,-96.51 573.96,-101.63 555,-105 481.88,-118.01 397.44,-124.6 337.24,-127.89"/>
<polygon fill="#63b8ff" stroke="#63b8ff" points="617.51,-90.03 613.31,-93.55 615.11,-90.71 612.7,-91.39 612.7,-91.39 612.7,-91.39 615.11,-90.71 612.09,-89.22 617.51,-90.03 617.51,-90.03"/>
</a>
</g>
</g>
<!-- Node4 -->
<g id="Node000004" class="node">
<title>Node4</title>
<g id="a_Node000004"><a xlink:href="../../da/d1e/classVisualDeckEditorWidget.html#a151318bf881404217834b7913f5086d3" target="_top" xlink:title=" ">
<polygon fill="white" stroke="#666666" points="555,-95.5 373,-95.5 373,-54.5 555,-54.5 555,-95.5"/>
<text text-anchor="start" x="381" y="-83.5" font-family="Helvetica,sans-Serif" font-size="10.00">VisualDeckEditorWidget</text>
<text text-anchor="start" x="381" y="-72.5" font-family="Helvetica,sans-Serif" font-size="10.00">::constructZoneWidgetsFromDeck</text>
<text text-anchor="middle" x="464" y="-61.5" font-family="Helvetica,sans-Serif" font-size="10.00">ListModel</text>
</a>
</g>
</g>
<!-- Node1&#45;&gt;Node4 -->
<g id="edge3_Node000001_Node000004" class="edge">
<title>Node1&#45;&gt;Node4</title>
<g id="a_edge3_Node000001_Node000004"><a xlink:title=" ">
<path fill="none" stroke="#63b8ff" d="M585.65,-75C575.68,-75 565.43,-75 555.32,-75"/>
<polygon fill="#63b8ff" stroke="#63b8ff" points="590.84,-75 585.84,-77.25 588.34,-75 585.84,-75 585.84,-75 585.84,-75 588.34,-75 585.84,-72.75 590.84,-75 590.84,-75"/>
</a>
</g>
</g>
<!-- Node6 -->
<g id="Node000006" class="node">
<title>Node6</title>
<g id="a_Node000006"><a xlink:href="../../da/d1e/classVisualDeckEditorWidget.html#a0c8e1b7017ba152a23b85d0e08d4adf6" target="_top" xlink:title=" ">
<polygon fill="white" stroke="#666666" points="531,-30 397,-30 397,0 531,0 531,-30"/>
<text text-anchor="start" x="405" y="-18" font-family="Helvetica,sans-Serif" font-size="10.00">VisualDeckEditorWidget</text>
<text text-anchor="middle" x="464" y="-7" font-family="Helvetica,sans-Serif" font-size="10.00">::onCardAddition</text>
</a>
</g>
</g>
<!-- Node1&#45;&gt;Node6 -->
<g id="edge7_Node000001_Node000006" class="edge">
<title>Node1&#45;&gt;Node6</title>
<g id="a_edge7_Node000001_Node000006"><a xlink:title=" ">
<path fill="none" stroke="#63b8ff" d="M610.09,-58.42C580.44,-49.55 544.2,-38.7 515.36,-30.07"/>
<polygon fill="#63b8ff" stroke="#63b8ff" points="615.16,-59.94 609.73,-60.66 612.77,-59.22 610.37,-58.5 610.37,-58.5 610.37,-58.5 612.77,-59.22 611.02,-56.35 615.16,-59.94 615.16,-59.94"/>
</a>
</g>
</g>
<!-- Node3 -->
<g id="Node000003" class="node">
<title>Node3</title>
<g id="a_Node000003"><a xlink:href="../../da/d1e/classVisualDeckEditorWidget.html#a41641d39b9faf3aae8e84919b406e2ff" target="_top" xlink:title=" ">
<polygon fill="white" stroke="#666666" points="140,-81 0,-81 0,-51 140,-51 140,-81"/>
<text text-anchor="start" x="8" y="-69" font-family="Helvetica,sans-Serif" font-size="10.00">VisualDeckEditorWidget</text>
<text text-anchor="middle" x="70" y="-58" font-family="Helvetica,sans-Serif" font-size="10.00">::VisualDeckEditorWidget</text>
</a>
</g>
</g>
<!-- Node2&#45;&gt;Node3 -->
<g id="edge2_Node000002_Node000003" class="edge">
<title>Node2&#45;&gt;Node3</title>
<g id="a_edge2_Node000002_Node000003"><a xlink:title=" ">
<path fill="none" stroke="#63b8ff" d="M207.75,-114.18C178.73,-103.95 141.97,-91 113.88,-81.11"/>
<polygon fill="#63b8ff" stroke="#63b8ff" points="212.71,-115.92 207.24,-116.38 210.35,-115.09 207.99,-114.26 207.99,-114.26 207.99,-114.26 210.35,-115.09 208.74,-112.14 212.71,-115.92 212.71,-115.92"/>
</a>
</g>
</g>
<!-- Node4&#45;&gt;Node3 -->
<g id="edge6_Node000004_Node000003" class="edge">
<title>Node4&#45;&gt;Node3</title>
<g id="a_edge6_Node000004_Node000003"><a xlink:title=" ">
<path fill="none" stroke="#63b8ff" d="M367.82,-73.19C311.94,-72.09 239.96,-70.58 176,-69 164.42,-68.71 152.13,-68.38 140.19,-68.05"/>
<polygon fill="#63b8ff" stroke="#63b8ff" points="372.83,-73.29 367.79,-75.44 370.33,-73.24 367.84,-73.19 367.84,-73.19 367.84,-73.19 370.33,-73.24 367.88,-70.94 372.83,-73.29 372.83,-73.29"/>
</a>
</g>
</g>
<!-- Node5 -->
<g id="Node000005" class="node">
<title>Node5</title>
<g id="a_Node000005"><a xlink:href="../../da/d1e/classVisualDeckEditorWidget.html#a241de5f6dd9a0cd49cc226e1998153b0" target="_top" xlink:title=" ">
<polygon fill="white" stroke="#666666" points="323.5,-60 189.5,-60 189.5,-30 323.5,-30 323.5,-60"/>
<text text-anchor="start" x="197.5" y="-48" font-family="Helvetica,sans-Serif" font-size="10.00">VisualDeckEditorWidget</text>
<text text-anchor="middle" x="256.5" y="-37" font-family="Helvetica,sans-Serif" font-size="10.00">::decklistModelReset</text>
</a>
</g>
</g>
<!-- Node4&#45;&gt;Node5 -->
<g id="edge4_Node000004_Node000005" class="edge">
<title>Node4&#45;&gt;Node5</title>
<g id="a_edge4_Node000004_Node000005"><a xlink:title=" ">
<path fill="none" stroke="#63b8ff" d="M367.83,-61.11C352.94,-58.93 337.84,-56.73 323.78,-54.68"/>
<polygon fill="#63b8ff" stroke="#63b8ff" points="372.86,-61.84 367.59,-63.35 370.39,-61.48 367.92,-61.12 367.92,-61.12 367.92,-61.12 370.39,-61.48 368.24,-58.89 372.86,-61.84 372.86,-61.84"/>
</a>
</g>
</g>
<!-- Node5&#45;&gt;Node3 -->
<g id="edge5_Node000005_Node000003" class="edge">
<title>Node5&#45;&gt;Node3</title>
<g id="a_edge5_Node000005_Node000003"><a xlink:title=" ">
<path fill="none" stroke="#63b8ff" d="M184.12,-53.13C169.64,-54.77 154.44,-56.5 140.05,-58.14"/>
<polygon fill="#63b8ff" stroke="#63b8ff" points="189.41,-52.52 184.7,-55.32 186.93,-52.8 184.44,-53.09 184.44,-53.09 184.44,-53.09 186.93,-52.8 184.19,-50.85 189.41,-52.52 189.41,-52.52"/>
</a>
</g>
</g>
<!-- Node6&#45;&gt;Node3 -->
<g id="edge8_Node000006_Node000003" class="edge">
<title>Node6&#45;&gt;Node3</title>
<g id="a_edge8_Node000006_Node000003"><a xlink:title=" ">
<path fill="none" stroke="#63b8ff" d="M391.68,-9C333.07,-5.85 248.23,-5.39 176,-21 148.28,-26.99 118.77,-40.33 98.11,-50.94"/>
<polygon fill="#63b8ff" stroke="#63b8ff" points="396.91,-9.29 391.8,-11.26 394.42,-9.15 391.92,-9.01 391.92,-9.01 391.92,-9.01 394.42,-9.15 392.05,-6.77 396.91,-9.29 396.91,-9.29"/>
</a>
</g>
</g>
</g>
</svg>
