<?xml version="1.0" encoding="UTF-8" standalone="no"?>
<!DOCTYPE svg PUBLIC "-//W3C//DTD SVG 1.1//EN"
 "http://www.w3.org/Graphics/SVG/1.1/DTD/svg11.dtd">
<!-- Generated by graphviz version 2.43.0 (0)
 -->
<!-- Title: DeckLoader Pages: 1 -->
<svg width="380pt" height="371pt"
 viewBox="0.00 0.00 379.50 371.00" xmlns="http://www.w3.org/2000/svg" xmlns:xlink="http://www.w3.org/1999/xlink">

<svg id="main" version="1.1" xmlns="http://www.w3.org/2000/svg" xmlns:xlink="http://www.w3.org/1999/xlink" xml:space="preserve">

<style type="text/css"><![CDATA[
.node, .edge {opacity: 0.7;}
.node.selected, .edge.selected {opacity: 1;}
.edge:hover path { stroke: red; }
.edge:hover polygon { stroke: red; fill: red; }
]]></style>
<script type="application/ecmascript" xlink:href="../../svg.min.js"/>
<svg id="graph" class="graph">
<g id="graph0" class="graph" transform="scale(1 1) rotate(0) translate(4 367)">
<title>DeckLoader</title>
<!-- Node1 -->
<g id="Node000001" class="node">
<title>Node1</title>
<g id="a_Node000001"><a xlink:title=" ">
<polygon fill="#999999" stroke="#666666" points="150.5,-19 76.5,-19 76.5,0 150.5,0 150.5,-19"/>
<text text-anchor="middle" x="113.5" y="-7" font-family="Helvetica,sans-Serif" font-size="10.00">DeckLoader</text>
</a>
</g>
</g>
<!-- Node2 -->
<g id="Node000002" class="node">
<title>Node2</title>
<g id="a_Node000002"><a xlink:title=" ">
<polygon fill="white" stroke="#666666" points="125.5,-91 69.5,-91 69.5,-72 125.5,-72 125.5,-91"/>
<text text-anchor="middle" x="97.5" y="-79" font-family="Helvetica,sans-Serif" font-size="10.00">QObject</text>
</a>
</g>
</g>
<!-- Node2&#45;&gt;Node1 -->
<g id="edge1_Node000001_Node000002" class="edge">
<title>Node2&#45;&gt;Node1</title>
<g id="a_edge1_Node000001_Node000002"><a xlink:title=" ">
<path fill="none" stroke="#63b8ff" d="M100.65,-66.72C103.88,-52.59 108.8,-31.05 111.52,-19.15"/>
<polygon fill="#63b8ff" stroke="#63b8ff" points="99.46,-71.92 98.38,-66.54 100.02,-69.48 100.58,-67.04 100.58,-67.04 100.58,-67.04 100.02,-69.48 102.77,-67.54 99.46,-71.92 99.46,-71.92"/>
</a>
</g>
</g>
<!-- Node3 -->
<g id="Node000003" class="node">
<title>Node3</title>
<g id="a_Node000003"><a xlink:href="../../d9/dc2/structLoadedDeck.html" target="_top" xlink:title="Represents a deck that was loaded from somewhere. Contains the DeckList itself, as well as info about...">
<polygon fill="white" stroke="#666666" points="221,-91 144,-91 144,-72 221,-72 221,-91"/>
<text text-anchor="middle" x="182.5" y="-79" font-family="Helvetica,sans-Serif" font-size="10.00">LoadedDeck</text>
</a>
</g>
</g>
<!-- Node3&#45;&gt;Node1 -->
<g id="edge2_Node000001_Node000003" class="edge">
<title>Node3&#45;&gt;Node1</title>
<g id="a_edge2_Node000001_Node000003"><a xlink:title=" ">
<path fill="none" stroke="#9a32cd" stroke-dasharray="5,2" d="M170.37,-68.19C156.51,-54.13 134.17,-31.47 122.03,-19.15"/>
<polygon fill="#9a32cd" stroke="#9a32cd" points="174.04,-71.92 168.93,-69.94 172.28,-70.14 170.53,-68.36 170.53,-68.36 170.53,-68.36 172.28,-70.14 172.13,-66.78 174.04,-71.92 174.04,-71.92"/>
</a>
</g>
<text text-anchor="start" x="159.5" y="-42.5" font-family="Helvetica,sans-Serif" font-size="10.00" fill="grey">loadedDeck</text>
</g>
<!-- Node4 -->
<g id="Node000004" class="node">
<title>Node4</title>
<g id="a_Node000004"><a xlink:href="../../da/d68/classDeckList.html" target="_top" xlink:title="Represents a complete deck, including metadata, zones, cards, and sideboard plans.">
<polygon fill="white" stroke="#666666" points="147,-163 88,-163 88,-144 147,-144 147,-163"/>
<text text-anchor="middle" x="117.5" y="-151" font-family="Helvetica,sans-Serif" font-size="10.00">DeckList</text>
</a>
</g>
</g>
<!-- Node4&#45;&gt;Node3 -->
<g id="edge3_Node000003_Node000004" class="edge">
<title>Node4&#45;&gt;Node3</title>
<g id="a_edge3_Node000003_Node000004"><a xlink:title=" ">
<path fill="none" stroke="#9a32cd" stroke-dasharray="5,2" d="M125.5,-139.26C131.29,-130.22 139.62,-118.27 148.5,-109 154.92,-102.3 163.1,-95.87 169.82,-91.03"/>
<polygon fill="#9a32cd" stroke="#9a32cd" points="122.56,-143.94 123.31,-138.51 123.89,-141.82 125.22,-139.7 125.22,-139.7 125.22,-139.7 123.89,-141.82 127.12,-140.9 122.56,-143.94 122.56,-143.94"/>
</a>
</g>
<text text-anchor="start" x="152" y="-114.5" font-family="Helvetica,sans-Serif" font-size="10.00" fill="grey">deckList</text>
</g>
<!-- Node5 -->
<g id="Node000005" class="node">
<title>Node5</title>
<g id="a_Node000005"><a xlink:href="../../d3/de4/structDeckList_1_1Metadata.html" target="_top" xlink:title=" ">
<polygon fill="white" stroke="#666666" points="111,-235 0,-235 0,-216 111,-216 111,-235"/>
<text text-anchor="middle" x="55.5" y="-223" font-family="Helvetica,sans-Serif" font-size="10.00">DeckList::Metadata</text>
</a>
</g>
</g>
<!-- Node5&#45;&gt;Node4 -->
<g id="edge4_Node000004_Node000005" class="edge">
<title>Node5&#45;&gt;Node4</title>
<g id="a_edge4_Node000004_Node000005"><a xlink:title=" ">
<path fill="none" stroke="#9a32cd" stroke-dasharray="5,2" d="M66.1,-211.69C73.4,-202.95 83.4,-191.15 92.5,-181 97.9,-174.97 104.15,-168.35 109.05,-163.23"/>
<polygon fill="#9a32cd" stroke="#9a32cd" points="62.74,-215.72 64.21,-210.44 64.34,-213.8 65.94,-211.88 65.94,-211.88 65.94,-211.88 64.34,-213.8 67.67,-213.32 62.74,-215.72 62.74,-215.72"/>
</a>
</g>
<text text-anchor="start" x="95.5" y="-186.5" font-family="Helvetica,sans-Serif" font-size="10.00" fill="grey">metadata</text>
</g>
<!-- Node6 -->
<g id="Node000006" class="node">
<title>Node6</title>
<g id="a_Node000006"><a xlink:href="../../d1/d66/structCardRef.html" target="_top" xlink:title=" ">
<polygon fill="white" stroke="#666666" points="83.5,-307 27.5,-307 27.5,-288 83.5,-288 83.5,-307"/>
<text text-anchor="middle" x="55.5" y="-295" font-family="Helvetica,sans-Serif" font-size="10.00">CardRef</text>
</a>
</g>
</g>
<!-- Node6&#45;&gt;Node5 -->
<g id="edge5_Node000005_Node000006" class="edge">
<title>Node6&#45;&gt;Node5</title>
<g id="a_edge5_Node000005_Node000006"><a xlink:title=" ">
<path fill="none" stroke="#9a32cd" stroke-dasharray="5,2" d="M55.5,-282.72C55.5,-268.59 55.5,-247.05 55.5,-235.15"/>
<polygon fill="#9a32cd" stroke="#9a32cd" points="55.5,-287.92 53.25,-282.92 55.5,-285.42 55.5,-282.92 55.5,-282.92 55.5,-282.92 55.5,-285.42 57.75,-282.92 55.5,-287.92 55.5,-287.92"/>
</a>
</g>
<text text-anchor="start" x="59" y="-258.5" font-family="Helvetica,sans-Serif" font-size="10.00" fill="grey">bannerCard</text>
</g>
<!-- Node7 -->
<g id="Node000007" class="node">
<title>Node7</title>
<g id="a_Node000007"><a xlink:href="../../db/df8/classDecklistNodeTree.html" target="_top" xlink:title=" ">
<polygon fill="white" stroke="#666666" points="231.5,-235 129.5,-235 129.5,-216 231.5,-216 231.5,-235"/>
<text text-anchor="middle" x="180.5" y="-223" font-family="Helvetica,sans-Serif" font-size="10.00">DecklistNodeTree</text>
</a>
</g>
</g>
<!-- Node7&#45;&gt;Node4 -->
<g id="edge6_Node000004_Node000007" class="edge">
<title>Node7&#45;&gt;Node4</title>
<g id="a_edge6_Node000004_Node000007"><a xlink:title=" ">
<path fill="none" stroke="#9a32cd" stroke-dasharray="5,2" d="M171.39,-211.72C164.83,-202.8 155.57,-190.79 146.5,-181 140.66,-174.69 133.55,-168.18 127.82,-163.18"/>
<polygon fill="#9a32cd" stroke="#9a32cd" points="174.38,-215.82 169.62,-213.11 172.91,-213.8 171.44,-211.78 171.44,-211.78 171.44,-211.78 172.91,-213.8 173.25,-210.45 174.38,-215.82 174.38,-215.82"/>
</a>
</g>
<text text-anchor="start" x="162.5" y="-186.5" font-family="Helvetica,sans-Serif" font-size="10.00" fill="grey">tree</text>
</g>
<!-- Node8 -->
<g id="Node000008" class="node">
<title>Node8</title>
<g id="a_Node000008"><a xlink:href="../../d4/d55/classInnerDecklistNode.html" target="_top" xlink:title="Represents a container node in the deck list hierarchy (zones and groupings).">
<polygon fill="white" stroke="#666666" points="311,-307 204,-307 204,-288 311,-288 311,-307"/>
<text text-anchor="middle" x="257.5" y="-295" font-family="Helvetica,sans-Serif" font-size="10.00">InnerDecklistNode</text>
</a>
</g>
</g>
<!-- Node8&#45;&gt;Node7 -->
<g id="edge7_Node000007_Node000008" class="edge">
<title>Node8&#45;&gt;Node7</title>
<g id="a_edge7_Node000007_Node000008"><a xlink:title=" ">
<path fill="none" stroke="#9a32cd" stroke-dasharray="5,2" d="M239.76,-284.9C233.46,-280.5 226.46,-275.28 220.5,-270 208.05,-258.99 195.34,-244.49 187.68,-235.33"/>
<polygon fill="#9a32cd" stroke="#9a32cd" points="243.99,-287.81 238.59,-286.83 241.93,-286.39 239.86,-284.98 239.86,-284.98 239.86,-284.98 241.93,-286.39 241.14,-283.12 243.99,-287.81 243.99,-287.81"/>
</a>
</g>
<text text-anchor="start" x="223.5" y="-258.5" font-family="Helvetica,sans-Serif" font-size="10.00" fill="grey">root</text>
</g>
<!-- Node9 -->
<g id="Node000009" class="node">
<title>Node9</title>
<g id="a_Node000009"><a xlink:href="../../dc/dd8/classAbstractDecklistNode.html" target="_top" xlink:title="Base class for all nodes in the deck list tree.">
<polygon fill="white" stroke="#666666" points="371.5,-235 249.5,-235 249.5,-216 371.5,-216 371.5,-235"/>
<text text-anchor="middle" x="310.5" y="-223" font-family="Helvetica,sans-Serif" font-size="10.00">AbstractDecklistNode</text>
</a>
</g>
</g>
<!-- Node8&#45;&gt;Node9 -->
<g id="edge9_Node000009_Node000008" class="edge">
<title>Node8&#45;&gt;Node9</title>
<g id="a_edge9_Node000009_Node000008"><a xlink:title=" ">
<path fill="none" stroke="#9a32cd" stroke-dasharray="5,2" d="M252.57,-282.74C250.2,-273.62 248.95,-261.77 254.5,-253 259.74,-244.73 268.33,-238.99 277.22,-235.03"/>
<polygon fill="#9a32cd" stroke="#9a32cd" points="254.04,-287.75 250.47,-283.59 253.34,-285.35 252.63,-282.95 252.63,-282.95 252.63,-282.95 253.34,-285.35 254.79,-282.32 254.04,-287.75 254.04,-287.75"/>
</a>
</g>
<text text-anchor="start" x="257.5" y="-258.5" font-family="Helvetica,sans-Serif" font-size="10.00" fill="grey">parent</text>
</g>
<!-- Node9&#45;&gt;Node8 -->
<g id="edge8_Node000008_Node000009" class="edge">
<title>Node9&#45;&gt;Node8</title>
<g id="a_edge8_Node000008_Node000009"><a xlink:title=" ">
<path fill="none" stroke="#63b8ff" d="M308.46,-240.3C306.57,-249.44 303.02,-261.29 296.5,-270 290.91,-277.47 282.56,-283.54 275.02,-287.98"/>
<polygon fill="#63b8ff" stroke="#63b8ff" points="309.4,-235.28 310.7,-240.61 308.94,-237.74 308.48,-240.2 308.48,-240.2 308.48,-240.2 308.94,-237.74 306.27,-239.79 309.4,-235.28 309.4,-235.28"/>
</a>
</g>
</g>
<!-- Node10 -->
<g id="Node000010" class="node">
<title>Node10</title>
<g id="a_Node000010"><a xlink:title=" ">
<polygon fill="white" stroke="#666666" points="346.5,-363 168.5,-363 168.5,-344 346.5,-344 346.5,-363"/>
<text text-anchor="middle" x="257.5" y="-351" font-family="Helvetica,sans-Serif" font-size="10.00">QList&lt; AbstractDecklistNode * &gt;</text>
</a>
</g>
</g>
<!-- Node10&#45;&gt;Node8 -->
<g id="edge10_Node000008_Node000010" class="edge">
<title>Node10&#45;&gt;Node8</title>
<g id="a_edge10_Node000008_Node000010"><a xlink:title=" ">
<path fill="none" stroke="#63b8ff" d="M257.5,-338.46C257.5,-328.59 257.5,-315.69 257.5,-307.25"/>
<polygon fill="#63b8ff" stroke="#63b8ff" points="257.5,-343.58 255.25,-338.58 257.5,-341.08 257.5,-338.58 257.5,-338.58 257.5,-338.58 257.5,-341.08 259.75,-338.58 257.5,-343.58 257.5,-343.58"/>
</a>
</g>
</g>
<!-- Node11 -->
<g id="Node000011" class="node">
<title>Node11</title>
<g id="a_Node000011"><a xlink:href="../../d4/d0d/structLoadedDeck_1_1LoadInfo.html" target="_top" xlink:title="Information about where the deck was loaded from.">
<polygon fill="white" stroke="#666666" points="290,-163 165,-163 165,-144 290,-144 290,-163"/>
<text text-anchor="middle" x="227.5" y="-151" font-family="Helvetica,sans-Serif" font-size="10.00">LoadedDeck::LoadInfo</text>
</a>
</g>
</g>
<!-- Node11&#45;&gt;Node3 -->
<g id="edge11_Node000003_Node000011" class="edge">
<title>Node11&#45;&gt;Node3</title>
<g id="a_edge11_Node000003_Node000011"><a xlink:title=" ">
<path fill="none" stroke="#9a32cd" stroke-dasharray="5,2" d="M219.12,-139.46C210.05,-125.36 195.85,-103.26 188.06,-91.15"/>
<polygon fill="#9a32cd" stroke="#9a32cd" points="221.98,-143.92 217.39,-140.93 220.63,-141.81 219.28,-139.71 219.28,-139.71 219.28,-139.71 220.63,-141.81 221.17,-138.49 221.98,-143.92 221.98,-143.92"/>
</a>
</g>
<text text-anchor="start" x="213" y="-114.5" font-family="Helvetica,sans-Serif" font-size="10.00" fill="grey">lastLoadInfo</text>
</g>
</g>
</svg>
</svg>

<style type='text/css'>
<![CDATA[
[data-mouse-over-selected='false'] { opacity: 0.7; }
[data-mouse-over-selected='true']  { opacity: 1.0; }
]]>
</style>
<script type="application/ecmascript"><![CDATA[
document.addEventListener('DOMContentLoaded', (event) => {
  highlightEdges();
  highlightAdjacentNodes();
});
]]></script>
</svg>
