<?xml version="1.0" encoding="UTF-8" standalone="no"?>
<!DOCTYPE svg PUBLIC "-//W3C//DTD SVG 1.1//EN"
 "http://www.w3.org/Graphics/SVG/1.1/DTD/svg11.dtd">
<!-- Generated by graphviz version 2.43.0 (0)
 -->
<!-- Title: cockatrice/src/interface/widgets/deck_editor/deck_editor_filter_dock_widget.h Pages: 1 -->
<svg width="1481pt" height="280pt"
 viewBox="0.00 0.00 1480.50 280.00" xmlns="http://www.w3.org/2000/svg" xmlns:xlink="http://www.w3.org/1999/xlink">
<g id="graph0" class="graph" transform="scale(1 1) rotate(0) translate(4 276)">
<title>cockatrice/src/interface/widgets/deck_editor/deck_editor_filter_dock_widget.h</title>
<!-- Node1 -->
<g id="Node000001" class="node">
<title>Node1</title>
<g id="a_Node000001"><a xlink:title="A Deck Editor DockWidget that displays and allows modifying filters applied to the CardDatabaseDispla...">
<polygon fill="#999999" stroke="#666666" points="1366.5,-272 1212.5,-272 1212.5,-231 1366.5,-231 1366.5,-272"/>
<text text-anchor="start" x="1220.5" y="-260" font-family="Helvetica,sans-Serif" font-size="10.00">cockatrice/src/interface</text>
<text text-anchor="start" x="1220.5" y="-249" font-family="Helvetica,sans-Serif" font-size="10.00">/widgets/deck_editor/deck</text>
<text text-anchor="middle" x="1289.5" y="-238" font-family="Helvetica,sans-Serif" font-size="10.00">_editor_filter_dock_widget.h</text>
</a>
</g>
</g>
<!-- Node2 -->
<g id="Node000002" class="node">
<title>Node2</title>
<g id="a_Node000002"><a xlink:href="../../dd/d2f/abstract__tab__deck__editor_8h.html" target="_top" xlink:title="Defines the AbstractTabDeckEditor class, which provides a base for deck editor tabs in the applicatio...">
<polygon fill="white" stroke="#666666" points="775,-195 650,-195 650,-154 775,-154 775,-195"/>
<text text-anchor="start" x="658" y="-183" font-family="Helvetica,sans-Serif" font-size="10.00">../../../interface</text>
<text text-anchor="start" x="658" y="-172" font-family="Helvetica,sans-Serif" font-size="10.00">/widgets/tabs/abstract</text>
<text text-anchor="middle" x="712.5" y="-161" font-family="Helvetica,sans-Serif" font-size="10.00">_tab_deck_editor.h</text>
</a>
</g>
</g>
<!-- Node1&#45;&gt;Node2 -->
<g id="edge1_Node000001_Node000002" class="edge">
<title>Node1&#45;&gt;Node2</title>
<g id="a_edge1_Node000001_Node000002"><a xlink:title=" ">
<path fill="none" stroke="#63b8ff" d="M1212.28,-240.46C1098.62,-225.69 888.11,-198.33 780.18,-184.3"/>
<polygon fill="#63b8ff" stroke="#63b8ff" points="775.12,-183.64 780.36,-182.05 777.59,-183.96 780.07,-184.28 780.07,-184.28 780.07,-184.28 777.59,-183.96 779.78,-186.51 775.12,-183.64 775.12,-183.64"/>
</a>
</g>
</g>
<!-- Node13 -->
<g id="Node000013" class="node">
<title>Node13</title>
<g id="a_Node000013"><a xlink:href="../../d4/d91/key__signals_8h.html" target="_top" xlink:title="TODO: Document this.">
<polygon fill="white" stroke="#666666" points="1285,-184 1184,-184 1184,-165 1285,-165 1285,-184"/>
<text text-anchor="middle" x="1234.5" y="-172" font-family="Helvetica,sans-Serif" font-size="10.00">../../key_signals.h</text>
</a>
</g>
</g>
<!-- Node1&#45;&gt;Node13 -->
<g id="edge12_Node000001_Node000013" class="edge">
<title>Node1&#45;&gt;Node13</title>
<g id="a_edge12_Node000001_Node000013"><a xlink:title=" ">
<path fill="none" stroke="#63b8ff" d="M1275.05,-230.79C1265.27,-217.46 1252.63,-200.22 1244.08,-188.56"/>
<polygon fill="#63b8ff" stroke="#63b8ff" points="1240.91,-184.24 1245.68,-186.94 1242.39,-186.25 1243.86,-188.27 1243.86,-188.27 1243.86,-188.27 1242.39,-186.25 1242.05,-189.6 1240.91,-184.24 1240.91,-184.24"/>
</a>
</g>
</g>
<!-- Node16 -->
<g id="Node000016" class="node">
<title>Node16</title>
<g id="a_Node000016"><a xlink:title=" ">
<polygon fill="#e0e0e0" stroke="#999999" points="1386,-184 1303,-184 1303,-165 1386,-165 1386,-184"/>
<text text-anchor="middle" x="1344.5" y="-172" font-family="Helvetica,sans-Serif" font-size="10.00">QDockWidget</text>
</a>
</g>
</g>
<!-- Node1&#45;&gt;Node16 -->
<g id="edge15_Node000001_Node000016" class="edge">
<title>Node1&#45;&gt;Node16</title>
<g id="a_edge15_Node000001_Node000016"><a xlink:title=" ">
<path fill="none" stroke="#63b8ff" d="M1303.95,-230.79C1313.73,-217.46 1326.37,-200.22 1334.92,-188.56"/>
<polygon fill="#63b8ff" stroke="#63b8ff" points="1338.09,-184.24 1336.95,-189.6 1336.61,-186.25 1335.14,-188.27 1335.14,-188.27 1335.14,-188.27 1336.61,-186.25 1333.32,-186.94 1338.09,-184.24 1338.09,-184.24"/>
</a>
</g>
</g>
<!-- Node17 -->
<g id="Node000017" class="node">
<title>Node17</title>
<g id="a_Node000017"><a xlink:title=" ">
<polygon fill="#e0e0e0" stroke="#999999" points="1472.5,-184 1404.5,-184 1404.5,-165 1472.5,-165 1472.5,-184"/>
<text text-anchor="middle" x="1438.5" y="-172" font-family="Helvetica,sans-Serif" font-size="10.00">QTreeView</text>
</a>
</g>
</g>
<!-- Node1&#45;&gt;Node17 -->
<g id="edge16_Node000001_Node000017" class="edge">
<title>Node1&#45;&gt;Node17</title>
<g id="a_edge16_Node000001_Node000017"><a xlink:title=" ">
<path fill="none" stroke="#63b8ff" d="M1328.26,-230.99C1356.43,-216.81 1393.55,-198.13 1416.71,-186.47"/>
<polygon fill="#63b8ff" stroke="#63b8ff" points="1421.44,-184.09 1417.98,-188.35 1419.21,-185.21 1416.97,-186.34 1416.97,-186.34 1416.97,-186.34 1419.21,-185.21 1415.96,-184.33 1421.44,-184.09 1421.44,-184.09"/>
</a>
</g>
</g>
<!-- Node3 -->
<g id="Node000003" class="node">
<title>Node3</title>
<g id="a_Node000003"><a xlink:title=" ">
<polygon fill="#e0e0e0" stroke="#999999" points="143,-112.5 0,-112.5 0,-71.5 143,-71.5 143,-112.5"/>
<text text-anchor="start" x="8" y="-100.5" font-family="Helvetica,sans-Serif" font-size="10.00">../interface/widgets</text>
<text text-anchor="start" x="8" y="-89.5" font-family="Helvetica,sans-Serif" font-size="10.00">/deck_editor/deck_editor</text>
<text text-anchor="middle" x="71.5" y="-78.5" font-family="Helvetica,sans-Serif" font-size="10.00">_card_info_dock_widget.h</text>
</a>
</g>
</g>
<!-- Node2&#45;&gt;Node3 -->
<g id="edge2_Node000002_Node000003" class="edge">
<title>Node2&#45;&gt;Node3</title>
<g id="a_edge2_Node000002_Node000003"><a xlink:title=" ">
<path fill="none" stroke="#63b8ff" d="M649.62,-171.46C545.2,-167.15 329.88,-154.3 151.5,-118 145.82,-116.84 139.97,-115.44 134.14,-113.9"/>
<polygon fill="#63b8ff" stroke="#63b8ff" points="129.25,-112.57 134.67,-111.71 131.66,-113.23 134.08,-113.88 134.08,-113.88 134.08,-113.88 131.66,-113.23 133.49,-116.05 129.25,-112.57 129.25,-112.57"/>
</a>
</g>
</g>
<!-- Node4 -->
<g id="Node000004" class="node">
<title>Node4</title>
<g id="a_Node000004"><a xlink:title=" ">
<polygon fill="#e0e0e0" stroke="#999999" points="316,-112.5 161,-112.5 161,-71.5 316,-71.5 316,-112.5"/>
<text text-anchor="start" x="169" y="-100.5" font-family="Helvetica,sans-Serif" font-size="10.00">../interface/widgets</text>
<text text-anchor="start" x="169" y="-89.5" font-family="Helvetica,sans-Serif" font-size="10.00">/deck_editor/deck_editor</text>
<text text-anchor="middle" x="238.5" y="-78.5" font-family="Helvetica,sans-Serif" font-size="10.00">_database_display_widget.h</text>
</a>
</g>
</g>
<!-- Node2&#45;&gt;Node4 -->
<g id="edge3_Node000002_Node000004" class="edge">
<title>Node2&#45;&gt;Node4</title>
<g id="a_edge3_Node000002_Node000004"><a xlink:title=" ">
<path fill="none" stroke="#63b8ff" d="M649.86,-167.29C572.76,-159.01 438.08,-142.5 324.5,-118 318.8,-116.77 312.93,-115.36 307.05,-113.86"/>
<polygon fill="#63b8ff" stroke="#63b8ff" points="302.12,-112.58 307.52,-111.66 304.53,-113.21 306.95,-113.84 306.95,-113.84 306.95,-113.84 304.53,-113.21 306.39,-116.01 302.12,-112.58 302.12,-112.58"/>
</a>
</g>
</g>
<!-- Node5 -->
<g id="Node000005" class="node">
<title>Node5</title>
<g id="a_Node000005"><a xlink:title=" ">
<polygon fill="#e0e0e0" stroke="#999999" points="471,-112.5 334,-112.5 334,-71.5 471,-71.5 471,-112.5"/>
<text text-anchor="start" x="342" y="-100.5" font-family="Helvetica,sans-Serif" font-size="10.00">../interface/widgets</text>
<text text-anchor="start" x="342" y="-89.5" font-family="Helvetica,sans-Serif" font-size="10.00">/deck_editor/deck_editor</text>
<text text-anchor="middle" x="402.5" y="-78.5" font-family="Helvetica,sans-Serif" font-size="10.00">_deck_dock_widget.h</text>
</a>
</g>
</g>
<!-- Node2&#45;&gt;Node5 -->
<g id="edge4_Node000002_Node000005" class="edge">
<title>Node2&#45;&gt;Node5</title>
<g id="a_edge4_Node000002_Node000005"><a xlink:title=" ">
<path fill="none" stroke="#63b8ff" d="M649.85,-160.01C602.74,-149.52 536.75,-134.08 479.5,-118 475.13,-116.77 470.63,-115.46 466.11,-114.09"/>
<polygon fill="#63b8ff" stroke="#63b8ff" points="461.21,-112.6 466.65,-111.9 463.6,-113.33 465.99,-114.05 465.99,-114.05 465.99,-114.05 463.6,-113.33 465.34,-116.21 461.21,-112.6 461.21,-112.6"/>
</a>
</g>
</g>
<!-- Node6 -->
<g id="Node000006" class="node">
<title>Node6</title>
<g id="a_Node000006"><a xlink:title=" ">
<polygon fill="#e0e0e0" stroke="#999999" points="626,-112.5 489,-112.5 489,-71.5 626,-71.5 626,-112.5"/>
<text text-anchor="start" x="497" y="-100.5" font-family="Helvetica,sans-Serif" font-size="10.00">../interface/widgets</text>
<text text-anchor="start" x="497" y="-89.5" font-family="Helvetica,sans-Serif" font-size="10.00">/deck_editor/deck_editor</text>
<text text-anchor="middle" x="557.5" y="-78.5" font-family="Helvetica,sans-Serif" font-size="10.00">_filter_dock_widget.h</text>
</a>
</g>
</g>
<!-- Node2&#45;&gt;Node6 -->
<g id="edge5_Node000002_Node000006" class="edge">
<title>Node2&#45;&gt;Node6</title>
<g id="a_edge5_Node000002_Node000006"><a xlink:title=" ">
<path fill="none" stroke="#63b8ff" d="M674.58,-153.81C651.98,-142.07 623.24,-127.14 599.89,-115.01"/>
<polygon fill="#63b8ff" stroke="#63b8ff" points="595.29,-112.63 600.77,-112.94 597.51,-113.78 599.73,-114.93 599.73,-114.93 599.73,-114.93 597.51,-113.78 598.69,-116.93 595.29,-112.63 595.29,-112.63"/>
</a>
</g>
</g>
<!-- Node7 -->
<g id="Node000007" class="node">
<title>Node7</title>
<g id="a_Node000007"><a xlink:title=" ">
<polygon fill="#e0e0e0" stroke="#999999" points="781,-118 644,-118 644,-66 781,-66 781,-118"/>
<text text-anchor="start" x="652" y="-106" font-family="Helvetica,sans-Serif" font-size="10.00">../interface/widgets</text>
<text text-anchor="start" x="652" y="-95" font-family="Helvetica,sans-Serif" font-size="10.00">/deck_editor/deck_editor</text>
<text text-anchor="start" x="652" y="-84" font-family="Helvetica,sans-Serif" font-size="10.00">_printing_selector_dock</text>
<text text-anchor="middle" x="712.5" y="-73" font-family="Helvetica,sans-Serif" font-size="10.00">_widget.h</text>
</a>
</g>
</g>
<!-- Node2&#45;&gt;Node7 -->
<g id="edge6_Node000002_Node000007" class="edge">
<title>Node2&#45;&gt;Node7</title>
<g id="a_edge6_Node000002_Node000007"><a xlink:title=" ">
<path fill="none" stroke="#63b8ff" d="M712.5,-153.6C712.5,-144.48 712.5,-133.47 712.5,-123.35"/>
<polygon fill="#63b8ff" stroke="#63b8ff" points="712.5,-118.16 714.75,-123.16 712.5,-120.66 712.5,-123.16 712.5,-123.16 712.5,-123.16 712.5,-120.66 710.25,-123.16 712.5,-118.16 712.5,-118.16"/>
</a>
</g>
</g>
<!-- Node8 -->
<g id="Node000008" class="node">
<title>Node8</title>
<g id="a_Node000008"><a xlink:title=" ">
<polygon fill="#e0e0e0" stroke="#999999" points="954,-107 799,-107 799,-77 954,-77 954,-107"/>
<text text-anchor="start" x="807" y="-95" font-family="Helvetica,sans-Serif" font-size="10.00">../interface/widgets</text>
<text text-anchor="middle" x="876.5" y="-84" font-family="Helvetica,sans-Serif" font-size="10.00">/menus/deck_editor_menu.h</text>
</a>
</g>
</g>
<!-- Node2&#45;&gt;Node8 -->
<g id="edge7_Node000002_Node000008" class="edge">
<title>Node2&#45;&gt;Node8</title>
<g id="a_edge7_Node000002_Node000008"><a xlink:title=" ">
<path fill="none" stroke="#63b8ff" d="M752.62,-153.81C780.38,-140.18 816.9,-122.25 843.08,-109.4"/>
<polygon fill="#63b8ff" stroke="#63b8ff" points="847.85,-107.06 844.35,-111.29 845.6,-108.16 843.36,-109.27 843.36,-109.27 843.36,-109.27 845.6,-108.16 842.37,-107.25 847.85,-107.06 847.85,-107.06"/>
</a>
</g>
</g>
<!-- Node9 -->
<g id="Node000009" class="node">
<title>Node9</title>
<g id="a_Node000009"><a xlink:title=" ">
<polygon fill="#e0e0e0" stroke="#999999" points="1131,-118 972,-118 972,-66 1131,-66 1131,-118"/>
<text text-anchor="start" x="980" y="-106" font-family="Helvetica,sans-Serif" font-size="10.00">../interface/widgets</text>
<text text-anchor="start" x="980" y="-95" font-family="Helvetica,sans-Serif" font-size="10.00">/visual_deck_storage</text>
<text text-anchor="start" x="980" y="-84" font-family="Helvetica,sans-Serif" font-size="10.00">/deck_preview/deck_preview</text>
<text text-anchor="middle" x="1051.5" y="-73" font-family="Helvetica,sans-Serif" font-size="10.00">_deck_tags_display_widget.h</text>
</a>
</g>
</g>
<!-- Node2&#45;&gt;Node9 -->
<g id="edge8_Node000002_Node000009" class="edge">
<title>Node2&#45;&gt;Node9</title>
<g id="a_edge8_Node000002_Node000009"><a xlink:title=" ">
<path fill="none" stroke="#63b8ff" d="M775.14,-160.6C825.84,-149.92 899.01,-133.95 962.5,-118 963.96,-117.63 965.43,-117.26 966.91,-116.88"/>
<polygon fill="#63b8ff" stroke="#63b8ff" points="971.98,-115.57 967.7,-119 969.56,-116.2 967.14,-116.82 967.14,-116.82 967.14,-116.82 969.56,-116.2 966.58,-114.64 971.98,-115.57 971.98,-115.57"/>
</a>
</g>
</g>
<!-- Node10 -->
<g id="Node000010" class="node">
<title>Node10</title>
<g id="a_Node000010"><a xlink:href="../../d3/ddf/tab_8h.html" target="_top" xlink:title="TODO: Document this.">
<polygon fill="white" stroke="#666666" points="1190,-101.5 1149,-101.5 1149,-82.5 1190,-82.5 1190,-101.5"/>
<text text-anchor="middle" x="1169.5" y="-89.5" font-family="Helvetica,sans-Serif" font-size="10.00">tab.h</text>
</a>
</g>
</g>
<!-- Node2&#45;&gt;Node10 -->
<g id="edge9_Node000002_Node000010" class="edge">
<title>Node2&#45;&gt;Node10</title>
<g id="a_edge9_Node000002_Node000010"><a xlink:title=" ">
<path fill="none" stroke="#63b8ff" d="M775.29,-169.65C877.66,-162.66 1075.54,-145.95 1139.5,-118 1146.23,-115.06 1152.64,-110.13 1157.79,-105.42"/>
<polygon fill="#63b8ff" stroke="#63b8ff" points="1161.47,-101.9 1159.42,-106.98 1159.67,-103.62 1157.86,-105.35 1157.86,-105.35 1157.86,-105.35 1159.67,-103.62 1156.31,-103.73 1161.47,-101.9 1161.47,-101.9"/>
</a>
</g>
</g>
<!-- Node11 -->
<g id="Node000011" class="node">
<title>Node11</title>
<g id="a_Node000011"><a xlink:title=" ">
<polygon fill="#e0e0e0" stroke="#999999" points="1154,-24.5 1067,-24.5 1067,-5.5 1154,-5.5 1154,-24.5"/>
<text text-anchor="middle" x="1110.5" y="-12.5" font-family="Helvetica,sans-Serif" font-size="10.00">QMainWindow</text>
</a>
</g>
</g>
<!-- Node10&#45;&gt;Node11 -->
<g id="edge10_Node000010_Node000011" class="edge">
<title>Node10&#45;&gt;Node11</title>
<g id="a_edge10_Node000010_Node000011"><a xlink:title=" ">
<path fill="none" stroke="#63b8ff" d="M1162.73,-82.4C1152.33,-69.17 1132.36,-43.78 1120.35,-28.52"/>
<polygon fill="#63b8ff" stroke="#63b8ff" points="1117.19,-24.5 1122.05,-27.04 1118.73,-26.47 1120.28,-28.43 1120.28,-28.43 1120.28,-28.43 1118.73,-26.47 1118.51,-29.82 1117.19,-24.5 1117.19,-24.5"/>
</a>
</g>
</g>
<!-- Node12 -->
<g id="Node000012" class="node">
<title>Node12</title>
<g id="a_Node000012"><a xlink:title=" ">
<polygon fill="#e0e0e0" stroke="#999999" points="1282.5,-30 1172.5,-30 1172.5,0 1282.5,0 1282.5,-30"/>
<text text-anchor="start" x="1180.5" y="-18" font-family="Helvetica,sans-Serif" font-size="10.00">libcockatrice/utility</text>
<text text-anchor="middle" x="1227.5" y="-7" font-family="Helvetica,sans-Serif" font-size="10.00">/card_ref.h</text>
</a>
</g>
</g>
<!-- Node10&#45;&gt;Node12 -->
<g id="edge11_Node000010_Node000012" class="edge">
<title>Node10&#45;&gt;Node12</title>
<g id="a_edge11_Node000010_Node000012"><a xlink:title=" ">
<path fill="none" stroke="#63b8ff" d="M1176.15,-82.4C1185.18,-70.72 1201.55,-49.56 1213.38,-34.26"/>
<polygon fill="#63b8ff" stroke="#63b8ff" points="1216.59,-30.11 1215.31,-35.44 1215.06,-32.09 1213.53,-34.07 1213.53,-34.07 1213.53,-34.07 1215.06,-32.09 1211.75,-32.69 1216.59,-30.11 1216.59,-30.11"/>
</a>
</g>
</g>
<!-- Node14 -->
<g id="Node000014" class="node">
<title>Node14</title>
<g id="a_Node000014"><a xlink:title=" ">
<polygon fill="#e0e0e0" stroke="#999999" points="1260.5,-101.5 1208.5,-101.5 1208.5,-82.5 1260.5,-82.5 1260.5,-101.5"/>
<text text-anchor="middle" x="1234.5" y="-89.5" font-family="Helvetica,sans-Serif" font-size="10.00">QEvent</text>
</a>
</g>
</g>
<!-- Node13&#45;&gt;Node14 -->
<g id="edge13_Node000013_Node000014" class="edge">
<title>Node13&#45;&gt;Node14</title>
<g id="a_edge13_Node000013_Node000014"><a xlink:title=" ">
<path fill="none" stroke="#63b8ff" d="M1234.5,-164.89C1234.5,-151.04 1234.5,-123.69 1234.5,-107.01"/>
<polygon fill="#63b8ff" stroke="#63b8ff" points="1234.5,-101.8 1236.75,-106.8 1234.5,-104.3 1234.5,-106.8 1234.5,-106.8 1234.5,-106.8 1234.5,-104.3 1232.25,-106.8 1234.5,-101.8 1234.5,-101.8"/>
</a>
</g>
</g>
<!-- Node15 -->
<g id="Node000015" class="node">
<title>Node15</title>
<g id="a_Node000015"><a xlink:title=" ">
<polygon fill="#e0e0e0" stroke="#999999" points="1334.5,-101.5 1278.5,-101.5 1278.5,-82.5 1334.5,-82.5 1334.5,-101.5"/>
<text text-anchor="middle" x="1306.5" y="-89.5" font-family="Helvetica,sans-Serif" font-size="10.00">QObject</text>
</a>
</g>
</g>
<!-- Node13&#45;&gt;Node15 -->
<g id="edge14_Node000013_Node000015" class="edge">
<title>Node13&#45;&gt;Node15</title>
<g id="a_edge14_Node000013_Node000015"><a xlink:title=" ">
<path fill="none" stroke="#63b8ff" d="M1242.21,-164.89C1254.91,-150.68 1280.33,-122.26 1295.12,-105.73"/>
<polygon fill="#63b8ff" stroke="#63b8ff" points="1298.63,-101.8 1296.98,-107.02 1296.97,-103.66 1295.3,-105.52 1295.3,-105.52 1295.3,-105.52 1296.97,-103.66 1293.62,-104.02 1298.63,-101.8 1298.63,-101.8"/>
</a>
</g>
</g>
</g>
</svg>
