<?xml version="1.0" encoding="UTF-8" standalone="no"?>
<!DOCTYPE svg PUBLIC "-//W3C//DTD SVG 1.1//EN"
 "http://www.w3.org/Graphics/SVG/1.1/DTD/svg11.dtd">
<!-- Generated by graphviz version 2.43.0 (0)
 -->
<!-- Title: cockatrice/src/game/game_scene.h Pages: 1 -->
<!--zoomable 214 -->

<svg id="main" version="1.1" xmlns="http://www.w3.org/2000/svg" xmlns:xlink="http://www.w3.org/1999/xlink" xml:space="preserve" onload="init(evt)">

<style type="text/css"><![CDATA[
.node, .edge {opacity: 0.7;}
.node.selected, .edge.selected {opacity: 1;}
.edge:hover path { stroke: red; }
.edge:hover polygon { stroke: red; fill: red; }
]]></style>

<defs>
  <circle id="rim" cx="0" cy="0" r="7"/>
  <circle id="rim2" cx="0" cy="0" r="3.5"/>
  <g id="zoomPlus">
    <use xlink:href="#rim" fill="#404040"><set attributeName="fill" to="#808080" begin="zoomplus.mouseover" end="zoomplus.mouseout"/></use>
    <path d="M-4,0h8M0,-4v8" fill="none" stroke="white" stroke-width="1.5" pointer-events="none"/>
  </g>
  <g id="zoomMin">
    <use xlink:href="#rim" fill="#404040"><set attributeName="fill" to="#808080" begin="zoomminus.mouseover" end="zoomminus.mouseout"/></use>
    <path d="M-4,0h8" fill="none" stroke="white" stroke-width="1.5" pointer-events="none"/>
  </g>
  <g id="arrowUp" transform="translate(30 24)">
    <use xlink:href="#rim"/>
    <path pointer-events="none" fill="none" stroke="white" stroke-width="1.5" d="M0,-3.0v7 M-2.5,-0.5L0,-3.0L2.5,-0.5"/>
  </g>
  <g id="arrowRight" transform="rotate(90) translate(36 -43)">
    <use xlink:href="#rim"/>
    <path pointer-events="none" fill="none" stroke="white" stroke-width="1.5" d="M0,-3.0v7 M-2.5,-0.5L0,-3.0L2.5,-0.5"/>
  </g>
  <g id="arrowDown" transform="rotate(180) translate(-30 -48)">
    <use xlink:href="#rim"/>
    <path pointer-events="none" fill="none" stroke="white" stroke-width="1.5" d="M0,-3.0v7 M-2.5,-0.5L0,-3.0L2.5,-0.5"/>
  </g>
  <g id="arrowLeft" transform="rotate(270) translate(-36 17)">
    <use xlink:href="#rim"/>
    <path pointer-events="none" fill="none" stroke="white" stroke-width="1.5" d="M0,-3.0v7 M-2.5,-0.5L0,-3.0L2.5,-0.5"/>
  </g>
  <g id="resetDef">
    <use xlink:href="#rim2" fill="#404040"><set attributeName="fill" to="#808080" begin="reset.mouseover" end="reset.mouseout"/></use>
  </g>
</defs>
<script type="application/ecmascript">
var viewWidth = 692;
var viewHeight = 214;
var sectionId = 'dynsection-0';
</script>
<script type="application/ecmascript" xlink:href="../../svg.min.js"/>
<svg id="graph" class="graph">
<g id="viewport">
<title>cockatrice/src/game/game_scene.h</title>
<!-- Node1 -->
<g id="Node000001" class="node">
<title>Node1</title>
<g id="a_Node000001"><a xlink:title=" ">
<polygon fill="#999999" stroke="#666666" points="519.21,-206 405.21,-206 405.21,-176 519.21,-176 519.21,-206"/>
<text text-anchor="start" x="413.21" y="-194" font-family="Helvetica,sans-Serif" font-size="10.00">cockatrice/src/game</text>
<text text-anchor="middle" x="462.21" y="-183" font-family="Helvetica,sans-Serif" font-size="10.00">/game_scene.h</text>
</a>
</g>
</g>
<!-- Node2 -->
<g id="Node000002" class="node">
<title>Node2</title>
<g id="a_Node000002"><a xlink:href="../../dd/dbf/card__zone__logic_8h.html" target="_top" xlink:title="TODO: Document this.">
<polygon fill="white" stroke="#666666" points="374.21,-140 250.21,-140 250.21,-110 374.21,-110 374.21,-140"/>
<text text-anchor="start" x="258.21" y="-128" font-family="Helvetica,sans-Serif" font-size="10.00">zones/logic/card_zone</text>
<text text-anchor="middle" x="312.21" y="-117" font-family="Helvetica,sans-Serif" font-size="10.00">_logic.h</text>
</a>
</g>
</g>
<!-- Node1&#45;&gt;Node2 -->
<g id="edge1_Node000001_Node000002" class="edge">
<title>Node1&#45;&gt;Node2</title>
<g id="a_edge1_Node000001_Node000002"><a xlink:title=" ">
<path fill="none" stroke="#63b8ff" d="M429.29,-175.95C405.85,-165.95 374.29,-152.49 349.84,-142.06"/>
<polygon fill="#63b8ff" stroke="#63b8ff" points="345.05,-140.01 350.54,-139.91 347.35,-140.99 349.65,-141.97 349.65,-141.97 349.65,-141.97 347.35,-140.99 348.77,-144.04 345.05,-140.01 345.05,-140.01"/>
</a>
</g>
</g>
<!-- Node5 -->
<g id="Node000005" class="node">
<title>Node5</title>
<g id="a_Node000005"><a xlink:title=" ">
<polygon fill="#e0e0e0" stroke="#999999" points="123.71,-19 82.71,-19 82.71,0 123.71,0 123.71,-19"/>
<text text-anchor="middle" x="103.21" y="-7" font-family="Helvetica,sans-Serif" font-size="10.00">QList</text>
</a>
</g>
</g>
<!-- Node1&#45;&gt;Node5 -->
<g id="edge9_Node000001_Node000005" class="edge">
<title>Node1&#45;&gt;Node5</title>
<g id="a_edge9_Node000001_Node000005"><a xlink:title=" ">
<path fill="none" stroke="#63b8ff" d="M404.95,-184.21C293.36,-171.61 53.45,-137.58 5.21,-74 -17.04,-44.67 41.57,-25 77.53,-16.05"/>
<polygon fill="#63b8ff" stroke="#63b8ff" points="82.66,-14.8 78.34,-18.17 80.23,-15.39 77.8,-15.98 77.8,-15.98 77.8,-15.98 80.23,-15.39 77.27,-13.79 82.66,-14.8 82.66,-14.8"/>
</a>
</g>
</g>
<!-- Node6 -->
<g id="Node000006" class="node">
<title>Node6</title>
<g id="a_Node000006"><a xlink:title=" ">
<polygon fill="#e0e0e0" stroke="#999999" points="365.71,-19 258.71,-19 258.71,0 365.71,0 365.71,-19"/>
<text text-anchor="middle" x="312.21" y="-7" font-family="Helvetica,sans-Serif" font-size="10.00">QLoggingCategory</text>
</a>
</g>
</g>
<!-- Node1&#45;&gt;Node6 -->
<g id="edge10_Node000001_Node000006" class="edge">
<title>Node1&#45;&gt;Node6</title>
<g id="a_edge10_Node000001_Node000006"><a xlink:title=" ">
<path fill="none" stroke="#63b8ff" d="M456.86,-175.75C444.44,-142.97 414.08,-64.29 405.21,-55 389.72,-38.77 367.1,-27.76 348.04,-20.75"/>
<polygon fill="#63b8ff" stroke="#63b8ff" points="343.28,-19.06 348.75,-18.62 345.64,-19.9 347.99,-20.74 347.99,-20.74 347.99,-20.74 345.64,-19.9 347.24,-22.86 343.28,-19.06 343.28,-19.06"/>
</a>
</g>
</g>
<!-- Node8 -->
<g id="Node000008" class="node">
<title>Node8</title>
<g id="a_Node000008"><a xlink:title=" ">
<polygon fill="#e0e0e0" stroke="#999999" points="548.21,-134.5 452.21,-134.5 452.21,-115.5 548.21,-115.5 548.21,-134.5"/>
<text text-anchor="middle" x="500.21" y="-122.5" font-family="Helvetica,sans-Serif" font-size="10.00">QGraphicsScene</text>
</a>
</g>
</g>
<!-- Node1&#45;&gt;Node8 -->
<g id="edge8_Node000001_Node000008" class="edge">
<title>Node1&#45;&gt;Node8</title>
<g id="a_edge8_Node000001_Node000008"><a xlink:title=" ">
<path fill="none" stroke="#63b8ff" d="M470.65,-175.8C477.09,-164.94 485.92,-150.07 492.25,-139.42"/>
<polygon fill="#63b8ff" stroke="#63b8ff" points="494.96,-134.84 494.34,-140.29 493.68,-136.99 492.41,-139.14 492.41,-139.14 492.41,-139.14 493.68,-136.99 490.47,-137.99 494.96,-134.84 494.96,-134.84"/>
</a>
</g>
</g>
<!-- Node9 -->
<g id="Node000009" class="node">
<title>Node9</title>
<g id="a_Node000009"><a xlink:title=" ">
<polygon fill="#e0e0e0" stroke="#999999" points="625.71,-134.5 566.71,-134.5 566.71,-115.5 625.71,-115.5 625.71,-134.5"/>
<text text-anchor="middle" x="596.21" y="-122.5" font-family="Helvetica,sans-Serif" font-size="10.00">QPointer</text>
</a>
</g>
</g>
<!-- Node1&#45;&gt;Node9 -->
<g id="edge11_Node000001_Node000009" class="edge">
<title>Node1&#45;&gt;Node9</title>
<g id="a_edge11_Node000001_Node000009"><a xlink:title=" ">
<path fill="none" stroke="#63b8ff" d="M491.62,-175.95C516.36,-164.14 551.22,-147.49 573.76,-136.72"/>
<polygon fill="#63b8ff" stroke="#63b8ff" points="578.38,-134.52 574.84,-138.7 576.12,-135.59 573.87,-136.67 573.87,-136.67 573.87,-136.67 576.12,-135.59 572.9,-134.64 578.38,-134.52 578.38,-134.52"/>
</a>
</g>
</g>
<!-- Node10 -->
<g id="Node000010" class="node">
<title>Node10</title>
<g id="a_Node000010"><a xlink:title=" ">
<polygon fill="#e0e0e0" stroke="#999999" points="684.21,-134.5 644.21,-134.5 644.21,-115.5 684.21,-115.5 684.21,-134.5"/>
<text text-anchor="middle" x="664.21" y="-122.5" font-family="Helvetica,sans-Serif" font-size="10.00">QSet</text>
</a>
</g>
</g>
<!-- Node1&#45;&gt;Node10 -->
<g id="edge12_Node000001_Node000010" class="edge">
<title>Node1&#45;&gt;Node10</title>
<g id="a_edge12_Node000001_Node000010"><a xlink:title=" ">
<path fill="none" stroke="#63b8ff" d="M519.49,-176.04C553.57,-167.1 597.4,-154.47 635.21,-140 637.76,-139.03 640.38,-137.91 642.97,-136.75"/>
<polygon fill="#63b8ff" stroke="#63b8ff" points="647.55,-134.63 643.96,-138.77 645.29,-135.68 643.02,-136.73 643.02,-136.73 643.02,-136.73 645.29,-135.68 642.07,-134.69 647.55,-134.63 647.55,-134.63"/>
</a>
</g>
</g>
<!-- Node3 -->
<g id="Node000003" class="node">
<title>Node3</title>
<g id="a_Node000003"><a xlink:href="../../d6/d94/translation_8h.html" target="_top" xlink:title=" ">
<polygon fill="white" stroke="#666666" points="149.71,-74 14.71,-74 14.71,-55 149.71,-55 149.71,-74"/>
<text text-anchor="middle" x="82.21" y="-62" font-family="Helvetica,sans-Serif" font-size="10.00">../../../client/translation.h</text>
</a>
</g>
</g>
<!-- Node2&#45;&gt;Node3 -->
<g id="edge2_Node000002_Node000003" class="edge">
<title>Node2&#45;&gt;Node3</title>
<g id="a_edge2_Node000002_Node000003"><a xlink:title=" ">
<path fill="none" stroke="#63b8ff" d="M257.12,-109.99C215.02,-99.28 158.06,-84.79 120.75,-75.3"/>
<polygon fill="#63b8ff" stroke="#63b8ff" points="115.84,-74.05 121.24,-73.11 118.26,-74.67 120.69,-75.29 120.69,-75.29 120.69,-75.29 118.26,-74.67 120.13,-77.47 115.84,-74.05 115.84,-74.05"/>
</a>
</g>
</g>
<!-- Node4 -->
<g id="Node000004" class="node">
<title>Node4</title>
<g id="a_Node000004"><a xlink:href="../../df/d73/card__list_8h.html" target="_top" xlink:title="TODO: Document this.">
<polygon fill="white" stroke="#666666" points="284.21,-74 168.21,-74 168.21,-55 284.21,-55 284.21,-74"/>
<text text-anchor="middle" x="226.21" y="-62" font-family="Helvetica,sans-Serif" font-size="10.00">../../board/card_list.h</text>
</a>
</g>
</g>
<!-- Node2&#45;&gt;Node4 -->
<g id="edge3_Node000002_Node000004" class="edge">
<title>Node2&#45;&gt;Node4</title>
<g id="a_edge3_Node000002_Node000004"><a xlink:title=" ">
<path fill="none" stroke="#63b8ff" d="M291.39,-109.84C276.66,-99.81 257.13,-86.53 243.3,-77.13"/>
<polygon fill="#63b8ff" stroke="#63b8ff" points="238.85,-74.09 244.25,-75.05 240.91,-75.5 242.98,-76.91 242.98,-76.91 242.98,-76.91 240.91,-75.5 241.72,-78.77 238.85,-74.09 238.85,-74.09"/>
</a>
</g>
</g>
<!-- Node2&#45;&gt;Node6 -->
<g id="edge6_Node000002_Node000006" class="edge">
<title>Node2&#45;&gt;Node6</title>
<g id="a_edge6_Node000002_Node000006"><a xlink:title=" ">
<path fill="none" stroke="#63b8ff" d="M312.21,-109.63C312.21,-87.63 312.21,-45.9 312.21,-24.27"/>
<polygon fill="#63b8ff" stroke="#63b8ff" points="312.21,-19.23 314.46,-24.23 312.21,-21.73 312.21,-24.23 312.21,-24.23 312.21,-24.23 312.21,-21.73 309.96,-24.23 312.21,-19.23 312.21,-19.23"/>
</a>
</g>
</g>
<!-- Node7 -->
<g id="Node000007" class="node">
<title>Node7</title>
<g id="a_Node000007"><a xlink:title=" ">
<polygon fill="#e0e0e0" stroke="#999999" points="396.21,-74 340.21,-74 340.21,-55 396.21,-55 396.21,-74"/>
<text text-anchor="middle" x="368.21" y="-62" font-family="Helvetica,sans-Serif" font-size="10.00">QObject</text>
</a>
</g>
</g>
<!-- Node2&#45;&gt;Node7 -->
<g id="edge7_Node000002_Node000007" class="edge">
<title>Node2&#45;&gt;Node7</title>
<g id="a_edge7_Node000002_Node000007"><a xlink:title=" ">
<path fill="none" stroke="#63b8ff" d="M325.77,-109.84C335.06,-100.13 347.27,-87.38 356.21,-78.04"/>
<polygon fill="#63b8ff" stroke="#63b8ff" points="359.82,-74.27 357.99,-79.43 358.09,-76.07 356.36,-77.88 356.36,-77.88 356.36,-77.88 358.09,-76.07 354.74,-76.32 359.82,-74.27 359.82,-74.27"/>
</a>
</g>
</g>
<!-- Node4&#45;&gt;Node5 -->
<g id="edge4_Node000004_Node000005" class="edge">
<title>Node4&#45;&gt;Node5</title>
<g id="a_edge4_Node000004_Node000005"><a xlink:title=" ">
<path fill="none" stroke="#63b8ff" d="M206.45,-54.98C185.15,-45.81 151.2,-31.18 128.09,-21.22"/>
<polygon fill="#63b8ff" stroke="#63b8ff" points="123.33,-19.17 128.82,-19.08 125.63,-20.16 127.93,-21.15 127.93,-21.15 127.93,-21.15 125.63,-20.16 127.03,-23.22 123.33,-19.17 123.33,-19.17"/>
</a>
</g>
</g>
<!-- Node4&#45;&gt;Node6 -->
<g id="edge5_Node000004_Node000006" class="edge">
<title>Node4&#45;&gt;Node6</title>
<g id="a_edge5_Node000004_Node000006"><a xlink:title=" ">
<path fill="none" stroke="#63b8ff" d="M240.03,-54.98C254.61,-46 277.67,-31.79 293.79,-21.85"/>
<polygon fill="#63b8ff" stroke="#63b8ff" points="298.14,-19.17 295.07,-23.71 296.01,-20.48 293.89,-21.79 293.89,-21.79 293.89,-21.79 296.01,-20.48 292.71,-19.88 298.14,-19.17 298.14,-19.17"/>
</a>
</g>
</g>
</g>
</svg>

<g id="navigator" transform="translate(0 0)" fill="#404254">
  <rect fill="#f2f5e9" fill-opacity="0.5" stroke="#606060" stroke-width=".5" x="0" y="0" width="60" height="60"/>
  <use id="zoomplus" xlink:href="#zoomPlus" x="17" y="9" onmousedown="handleZoom(evt,'in')"/>
  <use id="zoomminus" xlink:href="#zoomMin" x="42" y="9" onmousedown="handleZoom(evt,'out')"/>
  <use id="reset" xlink:href="#resetDef" x="30" y="36" onmousedown="handleReset()"/>
   <use id="arrowup" xlink:href="#arrowUp" x="0" y="0" onmousedown="handlePan(0,-1)"/>
  <use id="arrowright" xlink:href="#arrowRight" x="0" y="0" onmousedown="handlePan(1,0)"/>
  <use id="arrowdown" xlink:href="#arrowDown" x="0" y="0" onmousedown="handlePan(0,1)"/>
  <use id="arrowleft" xlink:href="#arrowLeft" x="0" y="0" onmousedown="handlePan(-1,0)"/>
</g>
<svg viewBox="0 0 15 15" width="100%" height="30px" preserveAspectRatio="xMaxYMin meet">
 <g id="arrow_out" transform="scale(0.3 0.3)">
  <a xlink:href="game__scene_8h__incl_org.svg" target="_base">
   <rect id="button" ry="5" rx="5" y="6" x="6" height="38" width="38"
        fill="#f2f5e9" fill-opacity="0.5" stroke="#606060" stroke-width="1.0"/>
   <path id="arrow"
     d="M 11.500037,31.436501 C 11.940474,20.09759 22.043105,11.32322 32.158766,21.979434 L 37.068811,17.246167 C 37.068811,17.246167 37.088388,32 37.088388,32 L 22.160133,31.978069 C 22.160133,31.978069 26.997745,27.140456 26.997745,27.140456 C 18.528582,18.264221 13.291696,25.230495 11.500037,31.436501 z"
     style="fill:#404040;"/>
  </a>
 </g>
</svg>

<style type='text/css'>
<![CDATA[
[data-mouse-over-selected='false'] { opacity: 0.7; }
[data-mouse-over-selected='true']  { opacity: 1.0; }
]]>
</style>
<script type="application/ecmascript"><![CDATA[
document.addEventListener('DOMContentLoaded', (event) => {
  highlightEdges();
  highlightAdjacentNodes();
});
]]></script>
</svg>
