<?xml version="1.0" encoding="UTF-8" standalone="no"?>
<!DOCTYPE svg PUBLIC "-//W3C//DTD SVG 1.1//EN"
 "http://www.w3.org/Graphics/SVG/1.1/DTD/svg11.dtd">
<!-- Generated by graphviz version 2.43.0 (0)
 -->
<!-- Title: SaveSetsPage::cleanupPage Pages: 1 -->
<svg width="339pt" height="113pt"
 viewBox="0.00 0.00 339.00 113.00" xmlns="http://www.w3.org/2000/svg" xmlns:xlink="http://www.w3.org/1999/xlink">

<svg id="main" version="1.1" xmlns="http://www.w3.org/2000/svg" xmlns:xlink="http://www.w3.org/1999/xlink" xml:space="preserve">

<style type="text/css"><![CDATA[
.node, .edge {opacity: 0.7;}
.node.selected, .edge.selected {opacity: 1;}
.edge:hover path { stroke: red; }
.edge:hover polygon { stroke: red; fill: red; }
]]></style>
<script type="application/ecmascript" xlink:href="../../svg.min.js"/>
<svg id="graph" class="graph">
<g id="graph0" class="graph" transform="scale(1 1) rotate(0) translate(4 109)">
<title>SaveSetsPage::cleanupPage</title>
<!-- Node1 -->
<g id="Node000001" class="node">
<title>Node1</title>
<g id="a_Node000001"><a xlink:title=" ">
<polygon fill="#999999" stroke="#666666" points="152,-62 0,-62 0,-43 152,-43 152,-62"/>
<text text-anchor="middle" x="76" y="-50" font-family="Helvetica,sans-Serif" font-size="10.00">SaveSetsPage::cleanupPage</text>
</a>
</g>
</g>
<!-- Node2 -->
<g id="Node000002" class="node">
<title>Node2</title>
<g id="a_Node000002"><a xlink:href="../../db/d70/classOracleImporter.html#aee18776bd3879a8b153a8a6290cd5666" target="_top" xlink:title=" ">
<polygon fill="white" stroke="#666666" points="319.5,-105 199.5,-105 199.5,-86 319.5,-86 319.5,-105"/>
<text text-anchor="middle" x="259.5" y="-93" font-family="Helvetica,sans-Serif" font-size="10.00">OracleImporter::clear</text>
</a>
</g>
</g>
<!-- Node1&#45;&gt;Node2 -->
<g id="edge1_Node000001_Node000002" class="edge">
<title>Node1&#45;&gt;Node2</title>
<g id="a_edge1_Node000001_Node000002"><a xlink:title=" ">
<path fill="none" stroke="#63b8ff" d="M117.28,-62.04C145.71,-68.78 183.84,-77.81 213.31,-84.79"/>
<polygon fill="#63b8ff" stroke="#63b8ff" points="218.33,-85.98 212.95,-87.02 215.9,-85.41 213.47,-84.83 213.47,-84.83 213.47,-84.83 215.9,-85.41 213.99,-82.64 218.33,-85.98 218.33,-85.98"/>
</a>
</g>
</g>
<!-- Node3 -->
<g id="Node000003" class="node">
<title>Node3</title>
<g id="a_Node000003"><a xlink:href="../../db/d70/classOracleImporter.html#ac995f51d181720b4f557d4502e84e921" target="_top" xlink:title=" ">
<polygon fill="white" stroke="#666666" points="328.5,-67.5 190.5,-67.5 190.5,-37.5 328.5,-37.5 328.5,-67.5"/>
<text text-anchor="start" x="198.5" y="-55.5" font-family="Helvetica,sans-Serif" font-size="10.00">OracleImporter::setIndex</text>
<text text-anchor="middle" x="259.5" y="-44.5" font-family="Helvetica,sans-Serif" font-size="10.00">Changed</text>
</a>
</g>
</g>
<!-- Node1&#45;&gt;Node3 -->
<g id="edge2_Node000001_Node000003" class="edge">
<title>Node1&#45;&gt;Node3</title>
<g id="a_edge2_Node000001_Node000003"><a xlink:title=" ">
<path fill="none" stroke="#63b8ff" d="M152.13,-52.5C163.13,-52.5 174.44,-52.5 185.39,-52.5"/>
<polygon fill="#63b8ff" stroke="#63b8ff" points="190.39,-52.5 185.39,-54.75 187.89,-52.5 185.39,-52.5 185.39,-52.5 185.39,-52.5 187.89,-52.5 185.39,-50.25 190.39,-52.5 190.39,-52.5"/>
</a>
</g>
</g>
<!-- Node4 -->
<g id="Node000004" class="node">
<title>Node4</title>
<g id="a_Node000004"><a xlink:href="../../d8/d2d/classOracleWizardPage.html#a27632e8dc2b86d6e6adf2c11f3e62e91" target="_top" xlink:title=" ">
<polygon fill="white" stroke="#666666" points="331,-19 188,-19 188,0 331,0 331,-19"/>
<text text-anchor="middle" x="259.5" y="-7" font-family="Helvetica,sans-Serif" font-size="10.00">OracleWizardPage::wizard</text>
</a>
</g>
</g>
<!-- Node1&#45;&gt;Node4 -->
<g id="edge3_Node000001_Node000004" class="edge">
<title>Node1&#45;&gt;Node4</title>
<g id="a_edge3_Node000001_Node000004"><a xlink:title=" ">
<path fill="none" stroke="#63b8ff" d="M117.28,-42.96C145.71,-36.22 183.84,-27.19 213.31,-20.21"/>
<polygon fill="#63b8ff" stroke="#63b8ff" points="218.33,-19.02 213.99,-22.36 215.9,-19.59 213.47,-20.17 213.47,-20.17 213.47,-20.17 215.9,-19.59 212.95,-17.98 218.33,-19.02 218.33,-19.02"/>
</a>
</g>
</g>
</g>
</svg>
</svg>

<style type='text/css'>
<![CDATA[
[data-mouse-over-selected='false'] { opacity: 0.7; }
[data-mouse-over-selected='true']  { opacity: 1.0; }
]]>
</style>
<script type="application/ecmascript"><![CDATA[
document.addEventListener('DOMContentLoaded', (event) => {
  highlightEdges();
  highlightAdjacentNodes();
});
]]></script>
</svg>
