<?xml version="1.0" encoding="UTF-8" standalone="no"?>
<!DOCTYPE svg PUBLIC "-//W3C//DTD SVG 1.1//EN"
 "http://www.w3.org/Graphics/SVG/1.1/DTD/svg11.dtd">
<!-- Generated by graphviz version 2.43.0 (0)
 -->
<!-- Title: Servatrice_DatabaseInterface::getUserData Pages: 1 -->
<!--zoomable 201 -->

<svg id="main" version="1.1" xmlns="http://www.w3.org/2000/svg" xmlns:xlink="http://www.w3.org/1999/xlink" xml:space="preserve" onload="init(evt)">
<style type="text/css"><![CDATA[
.node, .edge {opacity: 0.7;}
.node.selected, .edge.selected {opacity: 1;}
.edge:hover path { stroke: red; }
.edge:hover polygon { stroke: red; fill: red; }
]]></style>

<defs>
  <circle id="rim" cx="0" cy="0" r="7"/>
  <circle id="rim2" cx="0" cy="0" r="3.5"/>
  <g id="zoomPlus">
    <use xlink:href="#rim" fill="#404040"><set attributeName="fill" to="#808080" begin="zoomplus.mouseover" end="zoomplus.mouseout"/></use>
    <path d="M-4,0h8M0,-4v8" fill="none" stroke="white" stroke-width="1.5" pointer-events="none"/>
  </g>
  <g id="zoomMin">
    <use xlink:href="#rim" fill="#404040"><set attributeName="fill" to="#808080" begin="zoomminus.mouseover" end="zoomminus.mouseout"/></use>
    <path d="M-4,0h8" fill="none" stroke="white" stroke-width="1.5" pointer-events="none"/>
  </g>
  <g id="arrowUp" transform="translate(30 24)">
    <use xlink:href="#rim"/>
    <path pointer-events="none" fill="none" stroke="white" stroke-width="1.5" d="M0,-3.0v7 M-2.5,-0.5L0,-3.0L2.5,-0.5"/>
  </g>
  <g id="arrowRight" transform="rotate(90) translate(36 -43)">
    <use xlink:href="#rim"/>
    <path pointer-events="none" fill="none" stroke="white" stroke-width="1.5" d="M0,-3.0v7 M-2.5,-0.5L0,-3.0L2.5,-0.5"/>
  </g>
  <g id="arrowDown" transform="rotate(180) translate(-30 -48)">
    <use xlink:href="#rim"/>
    <path pointer-events="none" fill="none" stroke="white" stroke-width="1.5" d="M0,-3.0v7 M-2.5,-0.5L0,-3.0L2.5,-0.5"/>
  </g>
  <g id="arrowLeft" transform="rotate(270) translate(-36 17)">
    <use xlink:href="#rim"/>
    <path pointer-events="none" fill="none" stroke="white" stroke-width="1.5" d="M0,-3.0v7 M-2.5,-0.5L0,-3.0L2.5,-0.5"/>
  </g>
  <g id="resetDef">
    <use xlink:href="#rim2" fill="#404040"><set attributeName="fill" to="#808080" begin="reset.mouseover" end="reset.mouseout"/></use>
  </g>
</defs>
<script type="application/ecmascript">
var viewWidth = 925;
var viewHeight = 201;
var sectionId = 'dynsection-46';
</script>
<script type="application/ecmascript" xlink:href="../../svg.min.js"/>
<svg id="graph" class="graph">
<g id="viewport">
<title>Servatrice_DatabaseInterface::getUserData</title>
<!-- Node1 -->
<g id="Node000001" class="node">
<title>Node1</title>
<g id="a_Node000001"><a xlink:title=" ">
<polygon fill="#999999" stroke="#666666" points="161,-121 0,-121 0,-91 161,-91 161,-121"/>
<text text-anchor="start" x="8" y="-109" font-family="Helvetica,sans-Serif" font-size="10.00">Servatrice_DatabaseInterface</text>
<text text-anchor="middle" x="80.5" y="-98" font-family="Helvetica,sans-Serif" font-size="10.00">::getUserData</text>
</a>
</g>
</g>
<!-- Node2 -->
<g id="Node000002" class="node">
<title>Node2</title>
<g id="a_Node000002"><a xlink:href="../../d3/d76/classServatrice__DatabaseInterface.html#afc2024a688b5142ab2051e54c9fd2b2e" target="_top" xlink:title=" ">
<polygon fill="white" stroke="#666666" points="358,-164 197,-164 197,-134 358,-134 358,-164"/>
<text text-anchor="start" x="205" y="-152" font-family="Helvetica,sans-Serif" font-size="10.00">Servatrice_DatabaseInterface</text>
<text text-anchor="middle" x="277.5" y="-141" font-family="Helvetica,sans-Serif" font-size="10.00">::checkSql</text>
</a>
</g>
</g>
<!-- Node1&#45;&gt;Node2 -->
<g id="edge1_Node000001_Node000002" class="edge">
<title>Node1&#45;&gt;Node2</title>
<g id="a_edge1_Node000001_Node000002"><a xlink:title=" ">
<path fill="none" stroke="#63b8ff" d="M149.7,-121.04C167.07,-124.87 185.8,-129 203.4,-132.88"/>
<polygon fill="#63b8ff" stroke="#63b8ff" points="208.34,-133.97 202.97,-135.09 205.9,-133.43 203.45,-132.89 203.45,-132.89 203.45,-132.89 205.9,-133.43 203.94,-130.7 208.34,-133.97 208.34,-133.97"/>
</a>
</g>
</g>
<!-- Node4 -->
<g id="Node000004" class="node">
<title>Node4</title>
<g id="a_Node000004"><a xlink:href="../../d3/d76/classServatrice__DatabaseInterface.html#a7be1b29a72d3c6b454f4ad620a209afe" target="_top" xlink:title=" ">
<polygon fill="white" stroke="#666666" points="752,-169 591,-169 591,-139 752,-139 752,-169"/>
<text text-anchor="start" x="599" y="-157" font-family="Helvetica,sans-Serif" font-size="10.00">Servatrice_DatabaseInterface</text>
<text text-anchor="middle" x="671.5" y="-146" font-family="Helvetica,sans-Serif" font-size="10.00">::execSqlQuery</text>
</a>
</g>
</g>
<!-- Node1&#45;&gt;Node4 -->
<g id="edge8_Node000001_Node000004" class="edge">
<title>Node1&#45;&gt;Node4</title>
<g id="a_edge8_Node000001_Node000004"><a xlink:title=" ">
<path fill="none" stroke="#63b8ff" d="M100.12,-121.02C121.86,-137.49 159.62,-162.94 197,-173 335.34,-210.22 504.56,-188.01 598.65,-170.01"/>
<polygon fill="#63b8ff" stroke="#63b8ff" points="603.62,-169.04 599.14,-172.2 601.17,-169.52 598.71,-169.99 598.71,-169.99 598.71,-169.99 601.17,-169.52 598.29,-167.78 603.62,-169.04 603.62,-169.04"/>
</a>
</g>
</g>
<!-- Node5 -->
<g id="Node000005" class="node">
<title>Node5</title>
<g id="a_Node000005"><a xlink:href="../../d3/d76/classServatrice__DatabaseInterface.html#a447d886942669b059ec356b92924c7c8" target="_top" xlink:title=" ">
<polygon fill="white" stroke="#666666" points="752,-121 591,-121 591,-91 752,-91 752,-121"/>
<text text-anchor="start" x="599" y="-109" font-family="Helvetica,sans-Serif" font-size="10.00">Servatrice_DatabaseInterface</text>
<text text-anchor="middle" x="671.5" y="-98" font-family="Helvetica,sans-Serif" font-size="10.00">::prepareQuery</text>
</a>
</g>
</g>
<!-- Node1&#45;&gt;Node5 -->
<g id="edge10_Node000001_Node000005" class="edge">
<title>Node1&#45;&gt;Node5</title>
<g id="a_edge10_Node000001_Node000005"><a xlink:title=" ">
<path fill="none" stroke="#63b8ff" d="M161.24,-106C272.1,-106 471.94,-106 585.53,-106"/>
<polygon fill="#63b8ff" stroke="#63b8ff" points="590.53,-106 585.53,-108.25 588.03,-106 585.53,-106 585.53,-106 585.53,-106 588.03,-106 585.53,-103.75 590.53,-106 590.53,-106"/>
</a>
</g>
</g>
<!-- Node7 -->
<g id="Node000007" class="node">
<title>Node7</title>
<g id="a_Node000007"><a xlink:href="../../d3/d76/classServatrice__DatabaseInterface.html#a6e2b50f56f0e9746e323feb0ea67f65a" target="_top" xlink:title=" ">
<polygon fill="white" stroke="#666666" points="358,-78 197,-78 197,-48 358,-48 358,-78"/>
<text text-anchor="start" x="205" y="-66" font-family="Helvetica,sans-Serif" font-size="10.00">Servatrice_DatabaseInterface</text>
<text text-anchor="middle" x="277.5" y="-55" font-family="Helvetica,sans-Serif" font-size="10.00">::evalUserQueryResult</text>
</a>
</g>
</g>
<!-- Node1&#45;&gt;Node7 -->
<g id="edge7_Node000001_Node000007" class="edge">
<title>Node1&#45;&gt;Node7</title>
<g id="a_edge7_Node000001_Node000007"><a xlink:title=" ">
<path fill="none" stroke="#63b8ff" d="M149.7,-90.96C167.07,-87.13 185.8,-83 203.4,-79.12"/>
<polygon fill="#63b8ff" stroke="#63b8ff" points="208.34,-78.03 203.94,-81.3 205.9,-78.57 203.45,-79.11 203.45,-79.11 203.45,-79.11 205.9,-78.57 202.97,-76.91 208.34,-78.03 208.34,-78.03"/>
</a>
</g>
</g>
<!-- Node8 -->
<g id="Node000008" class="node">
<title>Node8</title>
<g id="a_Node000008"><a xlink:href="../../d5/d0e/classServatrice.html#a818d9ef866b194a90a80328b4c2603e8" target="_top" xlink:title=" ">
<polygon fill="white" stroke="#666666" points="357,-30 198,-30 198,0 357,0 357,-30"/>
<text text-anchor="start" x="206" y="-18" font-family="Helvetica,sans-Serif" font-size="10.00">Servatrice::getAuthentication</text>
<text text-anchor="middle" x="277.5" y="-7" font-family="Helvetica,sans-Serif" font-size="10.00">Method</text>
</a>
</g>
</g>
<!-- Node1&#45;&gt;Node8 -->
<g id="edge9_Node000001_Node000008" class="edge">
<title>Node1&#45;&gt;Node8</title>
<g id="a_edge9_Node000001_Node000008"><a xlink:title=" ">
<path fill="none" stroke="#63b8ff" d="M104.12,-90.75C126.82,-75.96 163.19,-53.67 197,-39 203.01,-36.39 209.39,-33.96 215.81,-31.71"/>
<polygon fill="#63b8ff" stroke="#63b8ff" points="220.73,-30.03 216.73,-33.77 218.37,-30.84 216,-31.65 216,-31.65 216,-31.65 218.37,-30.84 215.28,-29.52 220.73,-30.03 220.73,-30.03"/>
</a>
</g>
</g>
<!-- Node3 -->
<g id="Node000003" class="node">
<title>Node3</title>
<g id="a_Node000003"><a xlink:href="../../d3/d76/classServatrice__DatabaseInterface.html#a1668cb98d2b46b355e2a5f3d82f7a2d7" target="_top" xlink:title=" ">
<polygon fill="white" stroke="#666666" points="555,-164 394,-164 394,-134 555,-134 555,-164"/>
<text text-anchor="start" x="402" y="-152" font-family="Helvetica,sans-Serif" font-size="10.00">Servatrice_DatabaseInterface</text>
<text text-anchor="middle" x="474.5" y="-141" font-family="Helvetica,sans-Serif" font-size="10.00">::openDatabase</text>
</a>
</g>
</g>
<!-- Node2&#45;&gt;Node3 -->
<g id="edge2_Node000002_Node000003" class="edge">
<title>Node2&#45;&gt;Node3</title>
<g id="a_edge2_Node000002_Node000003"><a xlink:title=" ">
<path fill="none" stroke="#63b8ff" d="M358.1,-149C368.14,-149 378.45,-149 388.57,-149"/>
<polygon fill="#63b8ff" stroke="#63b8ff" points="393.84,-149 388.84,-151.25 391.34,-149 388.84,-149 388.84,-149 388.84,-149 391.34,-149 388.84,-146.75 393.84,-149 393.84,-149"/>
</a>
</g>
</g>
<!-- Node3&#45;&gt;Node4 -->
<g id="edge3_Node000003_Node000004" class="edge">
<title>Node3&#45;&gt;Node4</title>
<g id="a_edge3_Node000003_Node000004"><a xlink:title=" ">
<path fill="none" stroke="#63b8ff" d="M555.1,-144.39C565.14,-144.53 575.45,-144.78 585.57,-145.12"/>
<polygon fill="#63b8ff" stroke="#63b8ff" points="590.84,-145.31 585.77,-147.38 588.34,-145.22 585.85,-145.13 585.85,-145.13 585.85,-145.13 588.34,-145.22 585.93,-142.88 590.84,-145.31 590.84,-145.31"/>
</a>
</g>
</g>
<!-- Node3&#45;&gt;Node5 -->
<g id="edge5_Node000003_Node000005" class="edge">
<title>Node3&#45;&gt;Node5</title>
<g id="a_edge5_Node000003_Node000005"><a xlink:title=" ">
<path fill="none" stroke="#63b8ff" d="M543.7,-133.96C561.07,-130.13 579.8,-126 597.4,-122.12"/>
<polygon fill="#63b8ff" stroke="#63b8ff" points="602.34,-121.03 597.94,-124.3 599.9,-121.57 597.45,-122.11 597.45,-122.11 597.45,-122.11 599.9,-121.57 596.97,-119.91 602.34,-121.03 602.34,-121.03"/>
</a>
</g>
</g>
<!-- Node4&#45;&gt;Node3 -->
<g id="edge4_Node000004_Node000003" class="edge">
<title>Node4&#45;&gt;Node3</title>
<g id="a_edge4_Node000004_Node000003"><a xlink:title=" ">
<path fill="none" stroke="#63b8ff" d="M590.84,-158.61C580.8,-158.46 570.49,-158.22 560.37,-157.88"/>
<polygon fill="#63b8ff" stroke="#63b8ff" points="555.1,-157.69 560.17,-155.62 557.59,-157.78 560.09,-157.87 560.09,-157.87 560.09,-157.87 557.59,-157.78 560.01,-160.11 555.1,-157.69 555.1,-157.69"/>
</a>
</g>
</g>
<!-- Node6 -->
<g id="Node000006" class="node">
<title>Node6</title>
<g id="a_Node000006"><a xlink:href="../../d5/d0e/classServatrice.html#a9f623c4f5ff9cde895cbda4797d2ce64" target="_top" xlink:title=" ">
<polygon fill="white" stroke="#666666" points="917,-115.5 788,-115.5 788,-96.5 917,-96.5 917,-115.5"/>
<text text-anchor="middle" x="852.5" y="-103.5" font-family="Helvetica,sans-Serif" font-size="10.00">Servatrice::getDbPrefix</text>
</a>
</g>
</g>
<!-- Node5&#45;&gt;Node6 -->
<g id="edge6_Node000005_Node000006" class="edge">
<title>Node5&#45;&gt;Node6</title>
<g id="a_edge6_Node000005_Node000006"><a xlink:title=" ">
<path fill="none" stroke="#63b8ff" d="M752.05,-106C762.23,-106 772.58,-106 782.57,-106"/>
<polygon fill="#63b8ff" stroke="#63b8ff" points="787.76,-106 782.76,-108.25 785.26,-106 782.76,-106 782.76,-106 782.76,-106 785.26,-106 782.76,-103.75 787.76,-106 787.76,-106"/>
</a>
</g>
</g>
</g>
</svg>

<g id="navigator" transform="translate(0 0)" fill="#404254">
  <rect fill="#f2f5e9" fill-opacity="0.5" stroke="#606060" stroke-width=".5" x="0" y="0" width="60" height="60"/>
  <use id="zoomplus" xlink:href="#zoomPlus" x="17" y="9" onmousedown="handleZoom(evt,'in')"/>
  <use id="zoomminus" xlink:href="#zoomMin" x="42" y="9" onmousedown="handleZoom(evt,'out')"/>
  <use id="reset" xlink:href="#resetDef" x="30" y="36" onmousedown="handleReset()"/>
   <use id="arrowup" xlink:href="#arrowUp" x="0" y="0" onmousedown="handlePan(0,-1)"/>
  <use id="arrowright" xlink:href="#arrowRight" x="0" y="0" onmousedown="handlePan(1,0)"/>
  <use id="arrowdown" xlink:href="#arrowDown" x="0" y="0" onmousedown="handlePan(0,1)"/>
  <use id="arrowleft" xlink:href="#arrowLeft" x="0" y="0" onmousedown="handlePan(-1,0)"/>
</g>
<svg viewBox="0 0 15 15" width="100%" height="30px" preserveAspectRatio="xMaxYMin meet">
 <g id="arrow_out" transform="scale(0.3 0.3)">
  <a xlink:href="classServatrice__DatabaseInterface_ae1f64a1979bb24464b3bb83506195c88_cgraph_org.svg" target="_base">
   <rect id="button" ry="5" rx="5" y="6" x="6" height="38" width="38"
        fill="#f2f5e9" fill-opacity="0.5" stroke="#606060" stroke-width="1.0"/>
   <path id="arrow"
     d="M 11.500037,31.436501 C 11.940474,20.09759 22.043105,11.32322 32.158766,21.979434 L 37.068811,17.246167 C 37.068811,17.246167 37.088388,32 37.088388,32 L 22.160133,31.978069 C 22.160133,31.978069 26.997745,27.140456 26.997745,27.140456 C 18.528582,18.264221 13.291696,25.230495 11.500037,31.436501 z"
     style="fill:#404040;"/>
  </a>
 </g>
</svg>

<style type='text/css'>
<![CDATA[
[data-mouse-over-selected='false'] { opacity: 0.7; }
[data-mouse-over-selected='true']  { opacity: 1.0; }
]]>
</style>
<script type="application/ecmascript"><![CDATA[
document.addEventListener('DOMContentLoaded', (event) => {
  highlightEdges();
  highlightAdjacentNodes();
});
]]></script>
</svg>
