<?xml version="1.0" encoding="UTF-8" standalone="no"?>
<!DOCTYPE svg PUBLIC "-//W3C//DTD SVG 1.1//EN"
 "http://www.w3.org/Graphics/SVG/1.1/DTD/svg11.dtd">
<!-- Generated by graphviz version 2.43.0 (0)
 -->
<!-- Title: peg::ParserGenerator::perform_core Pages: 1 -->
<!--zoomable 565 -->

<svg id="main" version="1.1" xmlns="http://www.w3.org/2000/svg" xmlns:xlink="http://www.w3.org/1999/xlink" xml:space="preserve">

<style type="text/css"><![CDATA[
.node, .edge {opacity: 0.7;}
.node.selected, .edge.selected {opacity: 1;}
.edge:hover path { stroke: red; }
.edge:hover polygon { stroke: red; fill: red; }
]]></style>

<defs>
  <circle id="rim" cx="0" cy="0" r="7"/>
  <circle id="rim2" cx="0" cy="0" r="3.5"/>
  <g id="zoomPlus">
    <use xlink:href="#rim" fill="#404040"><set attributeName="fill" to="#808080" begin="zoomplus.mouseover" end="zoomplus.mouseout"/></use>
    <path d="M-4,0h8M0,-4v8" fill="none" stroke="white" stroke-width="1.5" pointer-events="none"/>
  </g>
  <g id="zoomMin">
    <use xlink:href="#rim" fill="#404040"><set attributeName="fill" to="#808080" begin="zoomminus.mouseover" end="zoomminus.mouseout"/></use>
    <path d="M-4,0h8" fill="none" stroke="white" stroke-width="1.5" pointer-events="none"/>
  </g>
  <g id="arrowUp" transform="translate(30 24)">
    <use xlink:href="#rim"/>
    <path pointer-events="none" fill="none" stroke="white" stroke-width="1.5" d="M0,-3.0v7 M-2.5,-0.5L0,-3.0L2.5,-0.5"/>
  </g>
  <g id="arrowRight" transform="rotate(90) translate(36 -43)">
    <use xlink:href="#rim"/>
    <path pointer-events="none" fill="none" stroke="white" stroke-width="1.5" d="M0,-3.0v7 M-2.5,-0.5L0,-3.0L2.5,-0.5"/>
  </g>
  <g id="arrowDown" transform="rotate(180) translate(-30 -48)">
    <use xlink:href="#rim"/>
    <path pointer-events="none" fill="none" stroke="white" stroke-width="1.5" d="M0,-3.0v7 M-2.5,-0.5L0,-3.0L2.5,-0.5"/>
  </g>
  <g id="arrowLeft" transform="rotate(270) translate(-36 17)">
    <use xlink:href="#rim"/>
    <path pointer-events="none" fill="none" stroke="white" stroke-width="1.5" d="M0,-3.0v7 M-2.5,-0.5L0,-3.0L2.5,-0.5"/>
  </g>
  <g id="resetDef">
    <use xlink:href="#rim2" fill="#404040"><set attributeName="fill" to="#808080" begin="reset.mouseover" end="reset.mouseout"/></use>
  </g>
</defs>
<script type="application/ecmascript" xlink:href="../../svg.min.js"/>
<svg id="graph" class="graph" data-view-width="811" data-view-height="565" data-section-id="dynsection-12">
<g id="viewport">
<title>peg::ParserGenerator::perform_core</title>
<!-- Node1 -->
<g id="Node000001" class="node">
<title>Node1</title>
<g id="a_Node000001"><a xlink:title=" ">
<polygon fill="#999999" stroke="#666666" points="119,-227.5 0,-227.5 0,-197.5 119,-197.5 119,-227.5"/>
<text text-anchor="start" x="8" y="-215.5" font-family="Helvetica,sans-Serif" font-size="10.00">peg::ParserGenerator</text>
<text text-anchor="middle" x="59.5" y="-204.5" font-family="Helvetica,sans-Serif" font-size="10.00">::perform_core</text>
</a>
</g>
</g>
<!-- Node2 -->
<g id="Node000002" class="node">
<title>Node2</title>
<g id="a_Node000002"><a xlink:href="../../dc/dbb/classpeg_1_1ParserGenerator.html#a4e1b5dc42ccf7c70b038a45cb052d0f7" target="_top" xlink:title=" ">
<polygon fill="white" stroke="#666666" points="323,-417.5 155,-417.5 155,-387.5 323,-387.5 323,-417.5"/>
<text text-anchor="start" x="163" y="-405.5" font-family="Helvetica,sans-Serif" font-size="10.00">peg::ParserGenerator</text>
<text text-anchor="middle" x="239" y="-394.5" font-family="Helvetica,sans-Serif" font-size="10.00">::apply_precedence_instruction</text>
</a>
</g>
</g>
<!-- Node1&#45;&gt;Node2 -->
<g id="edge1_Node000001_Node000002" class="edge">
<title>Node1&#45;&gt;Node2</title>
<g id="a_edge1_Node000001_Node000002"><a xlink:title=" ">
<path fill="none" stroke="#63b8ff" d="M68.98,-227.61C84.02,-253.52 117.32,-307.25 155,-344.5 170.54,-359.86 190.56,-373.98 207.04,-384.44"/>
<polygon fill="#63b8ff" stroke="#63b8ff" points="211.59,-387.3 206.16,-386.55 209.47,-385.97 207.36,-384.64 207.36,-384.64 207.36,-384.64 209.47,-385.97 208.55,-382.73 211.59,-387.3 211.59,-387.3"/>
</a>
</g>
</g>
<!-- Node4 -->
<g id="Node000004" class="node">
<title>Node4</title>
<g id="a_Node000004"><a xlink:href="../../dc/db2/namespacepeg.html#a271c917c846302e10267a6be78a28d49" target="_top" xlink:title=" ">
<polygon fill="white" stroke="#666666" points="463.5,-325 380.5,-325 380.5,-306 463.5,-306 463.5,-325"/>
<text text-anchor="middle" x="422" y="-313" font-family="Helvetica,sans-Serif" font-size="10.00">peg::line_info</text>
</a>
</g>
</g>
<!-- Node1&#45;&gt;Node4 -->
<g id="edge20_Node000001_Node000004" class="edge">
<title>Node1&#45;&gt;Node4</title>
<g id="a_edge20_Node000001_Node000004"><a xlink:title=" ">
<path fill="none" stroke="#63b8ff" d="M69.45,-227.81C83.99,-250.98 115.15,-294.09 155,-311.5 226.75,-342.84 320.13,-334.43 375.02,-325.17"/>
<polygon fill="#63b8ff" stroke="#63b8ff" points="380.21,-324.27 375.66,-327.34 377.74,-324.7 375.28,-325.12 375.28,-325.12 375.28,-325.12 377.74,-324.7 374.9,-322.9 380.21,-324.27 380.21,-324.27"/>
</a>
</g>
</g>
<!-- Node10 -->
<g id="Node000010" class="node">
<title>Node10</title>
<g id="a_Node000010"><a xlink:href="../../de/d67/structpeg_1_1IsLiteralToken.html#ae68025d2c11e7c9815c8d07333ba8ba3" target="_top" xlink:title=" ">
<polygon fill="white" stroke="#666666" points="292.5,-254.5 185.5,-254.5 185.5,-224.5 292.5,-224.5 292.5,-254.5"/>
<text text-anchor="start" x="193.5" y="-242.5" font-family="Helvetica,sans-Serif" font-size="10.00">peg::IsLiteralToken</text>
<text text-anchor="middle" x="239" y="-231.5" font-family="Helvetica,sans-Serif" font-size="10.00">::check</text>
</a>
</g>
</g>
<!-- Node1&#45;&gt;Node10 -->
<g id="edge15_Node000001_Node000010" class="edge">
<title>Node1&#45;&gt;Node10</title>
<g id="a_edge15_Node000001_Node000010"><a xlink:title=" ">
<path fill="none" stroke="#63b8ff" d="M119.11,-221.42C138.76,-224.4 160.65,-227.73 180.24,-230.71"/>
<polygon fill="#63b8ff" stroke="#63b8ff" points="185.43,-231.5 180.15,-232.98 182.96,-231.13 180.49,-230.75 180.49,-230.75 180.49,-230.75 182.96,-231.13 180.83,-228.53 185.43,-231.5 185.43,-231.5"/>
</a>
</g>
</g>
<!-- Node12 -->
<g id="Node000012" class="node">
<title>Node12</title>
<g id="a_Node000012"><a xlink:href="../../dc/dbb/classpeg_1_1ParserGenerator.html#aa14774e3fd10c4d030309763717d73fc" target="_top" xlink:title=" ">
<polygon fill="white" stroke="#666666" points="298.5,-302.5 179.5,-302.5 179.5,-272.5 298.5,-272.5 298.5,-302.5"/>
<text text-anchor="start" x="187.5" y="-290.5" font-family="Helvetica,sans-Serif" font-size="10.00">peg::ParserGenerator</text>
<text text-anchor="middle" x="239" y="-279.5" font-family="Helvetica,sans-Serif" font-size="10.00">::detect_infiniteLoop</text>
</a>
</g>
</g>
<!-- Node1&#45;&gt;Node12 -->
<g id="edge17_Node000001_Node000012" class="edge">
<title>Node1&#45;&gt;Node12</title>
<g id="a_edge17_Node000001_Node000012"><a xlink:title=" ">
<path fill="none" stroke="#63b8ff" d="M85.06,-227.64C103.73,-238.68 130.32,-253.41 155,-263.5 161.31,-266.08 167.99,-268.5 174.71,-270.73"/>
<polygon fill="#63b8ff" stroke="#63b8ff" points="179.86,-272.41 174.41,-273 177.48,-271.63 175.1,-270.86 175.1,-270.86 175.1,-270.86 177.48,-271.63 175.8,-268.72 179.86,-272.41 179.86,-272.41"/>
</a>
</g>
</g>
<!-- Node14 -->
<g id="Node000014" class="node">
<title>Node14</title>
<g id="a_Node000014"><a xlink:href="../../df/d30/classpeg_1_1ParserGenerator_1_1SyntaxErrorException.html#ae91e68f297279b7f0f999559ab3dadbf" target="_top" xlink:title=" ">
<polygon fill="white" stroke="#666666" points="303,-206 175,-206 175,-165 303,-165 303,-206"/>
<text text-anchor="start" x="183" y="-194" font-family="Helvetica,sans-Serif" font-size="10.00">peg::ParserGenerator</text>
<text text-anchor="start" x="183" y="-183" font-family="Helvetica,sans-Serif" font-size="10.00">::SyntaxErrorException</text>
<text text-anchor="middle" x="239" y="-172" font-family="Helvetica,sans-Serif" font-size="10.00">::line_info</text>
</a>
</g>
</g>
<!-- Node1&#45;&gt;Node14 -->
<g id="edge21_Node000001_Node000014" class="edge">
<title>Node1&#45;&gt;Node14</title>
<g id="a_edge21_Node000001_Node000014"><a xlink:title=" ">
<path fill="none" stroke="#63b8ff" d="M119.11,-203.58C135.31,-201.12 153.03,-198.43 169.72,-195.89"/>
<polygon fill="#63b8ff" stroke="#63b8ff" points="174.87,-195.1 170.26,-198.08 172.4,-195.48 169.93,-195.86 169.93,-195.86 169.93,-195.86 172.4,-195.48 169.59,-193.63 174.87,-195.1 174.87,-195.1"/>
</a>
</g>
</g>
<!-- Node15 -->
<g id="Node000015" class="node">
<title>Node15</title>
<g id="a_Node000015"><a xlink:href="../../dc/db2/namespacepeg.html#a0732a7c9cff98a072f59196f73b96a75" target="_top" xlink:title=" ">
<polygon fill="white" stroke="#666666" points="266,-129 212,-129 212,-110 266,-110 266,-129"/>
<text text-anchor="middle" x="239" y="-117" font-family="Helvetica,sans-Serif" font-size="10.00">peg::ref</text>
</a>
</g>
</g>
<!-- Node1&#45;&gt;Node15 -->
<g id="edge22_Node000001_Node000015" class="edge">
<title>Node1&#45;&gt;Node15</title>
<g id="a_edge22_Node000001_Node000015"><a xlink:title=" ">
<path fill="none" stroke="#63b8ff" d="M83.69,-197.32C102.52,-185.28 129.97,-168.41 155,-155.5 172.46,-146.5 192.67,-137.7 208.77,-131.06"/>
<polygon fill="#63b8ff" stroke="#63b8ff" points="213.63,-129.06 209.86,-133.04 211.32,-130.01 209.01,-130.96 209.01,-130.96 209.01,-130.96 211.32,-130.01 208.15,-128.88 213.63,-129.06 213.63,-129.06"/>
</a>
</g>
</g>
<!-- Node16 -->
<g id="Node000016" class="node">
<title>Node16</title>
<g id="a_Node000016"><a xlink:href="../../dc/db2/namespacepeg.html#a11e5037e2db094a3ab3d3af322aed216" target="_top" xlink:title=" ">
<polygon fill="white" stroke="#666666" points="267,-74 211,-74 211,-55 267,-55 267,-74"/>
<text text-anchor="middle" x="239" y="-62" font-family="Helvetica,sans-Serif" font-size="10.00">peg::tok</text>
</a>
</g>
</g>
<!-- Node1&#45;&gt;Node16 -->
<g id="edge24_Node000001_Node000016" class="edge">
<title>Node1&#45;&gt;Node16</title>
<g id="a_edge24_Node000001_Node000016"><a xlink:title=" ">
<path fill="none" stroke="#63b8ff" d="M70.06,-197.15C85.41,-173.58 117.65,-128.29 155,-100.5 170.3,-89.12 189.77,-80.43 206,-74.45"/>
<polygon fill="#63b8ff" stroke="#63b8ff" points="210.92,-72.68 206.98,-76.48 208.57,-73.52 206.22,-74.37 206.22,-74.37 206.22,-74.37 208.57,-73.52 205.46,-72.25 210.92,-72.68 210.92,-72.68"/>
</a>
</g>
</g>
<!-- Node17 -->
<g id="Node000017" class="node">
<title>Node17</title>
<g id="a_Node000017"><a xlink:href="../../dc/db2/namespacepeg.html#a36efa719a391921ca76025dde8a3e6a4" target="_top" xlink:title=" ">
<polygon fill="white" stroke="#666666" points="269,-19 209,-19 209,0 269,0 269,-19"/>
<text text-anchor="middle" x="239" y="-7" font-family="Helvetica,sans-Serif" font-size="10.00">peg::wsp</text>
</a>
</g>
</g>
<!-- Node1&#45;&gt;Node17 -->
<g id="edge26_Node000001_Node000017" class="edge">
<title>Node1&#45;&gt;Node17</title>
<g id="a_edge26_Node000001_Node000017"><a xlink:title=" ">
<path fill="none" stroke="#63b8ff" d="M65.3,-197.46C76.25,-165.39 105.96,-89.61 155,-45.5 168.86,-33.03 187.72,-24.38 203.95,-18.7"/>
<polygon fill="#63b8ff" stroke="#63b8ff" points="208.9,-17.03 204.88,-20.76 206.53,-17.83 204.16,-18.63 204.16,-18.63 204.16,-18.63 206.53,-17.83 203.44,-16.49 208.9,-17.03 208.9,-17.03"/>
</a>
</g>
</g>
<!-- Node3 -->
<g id="Node000003" class="node">
<title>Node3</title>
<g id="a_Node000003"><a xlink:href="../../d8/d94/classpeg_1_1Definition.html#af29e29263e5c23c7e3f866ddb2ea2388" target="_top" xlink:title=" ">
<polygon fill="white" stroke="#666666" points="477,-446.5 367,-446.5 367,-416.5 477,-416.5 477,-446.5"/>
<text text-anchor="start" x="375" y="-434.5" font-family="Helvetica,sans-Serif" font-size="10.00">peg::Definition::get</text>
<text text-anchor="middle" x="422" y="-423.5" font-family="Helvetica,sans-Serif" font-size="10.00">_core_operator</text>
</a>
</g>
</g>
<!-- Node2&#45;&gt;Node3 -->
<g id="edge2_Node000002_Node000003" class="edge">
<title>Node2&#45;&gt;Node3</title>
<g id="a_edge2_Node000002_Node000003"><a xlink:title=" ">
<path fill="none" stroke="#63b8ff" d="M323.08,-415.81C336.09,-417.9 349.31,-420.01 361.65,-421.99"/>
<polygon fill="#63b8ff" stroke="#63b8ff" points="366.88,-422.83 361.58,-424.26 364.41,-422.43 361.94,-422.04 361.94,-422.04 361.94,-422.04 364.41,-422.43 362.3,-419.82 366.88,-422.83 366.88,-422.83"/>
</a>
</g>
</g>
<!-- Node2&#45;&gt;Node4 -->
<g id="edge3_Node000002_Node000004" class="edge">
<title>Node2&#45;&gt;Node4</title>
<g id="a_edge3_Node000002_Node000004"><a xlink:title=" ">
<path fill="none" stroke="#63b8ff" d="M271.53,-387.35C307.05,-370.27 364.05,-342.87 396.43,-327.31"/>
<polygon fill="#63b8ff" stroke="#63b8ff" points="401.03,-325.1 397.49,-329.3 398.77,-326.18 396.52,-327.27 396.52,-327.27 396.52,-327.27 398.77,-326.18 395.54,-325.24 401.03,-325.1 401.03,-325.1"/>
</a>
</g>
</g>
<!-- Node7 -->
<g id="Node000007" class="node">
<title>Node7</title>
<g id="a_Node000007"><a xlink:href="../../dc/db2/namespacepeg.html#a45933e7f137e0b1367791583d16d2cbb" target="_top" xlink:title=" ">
<polygon fill="white" stroke="#666666" points="450,-380 394,-380 394,-361 450,-361 450,-380"/>
<text text-anchor="middle" x="422" y="-368" font-family="Helvetica,sans-Serif" font-size="10.00">peg::pre</text>
</a>
</g>
</g>
<!-- Node2&#45;&gt;Node7 -->
<g id="edge9_Node000002_Node000007" class="edge">
<title>Node2&#45;&gt;Node7</title>
<g id="a_edge9_Node000002_Node000007"><a xlink:title=" ">
<path fill="none" stroke="#63b8ff" d="M323.08,-387.81C346.36,-383.7 370.29,-379.46 388.67,-376.22"/>
<polygon fill="#63b8ff" stroke="#63b8ff" points="393.7,-375.33 389.17,-378.41 391.24,-375.76 388.78,-376.2 388.78,-376.2 388.78,-376.2 391.24,-375.76 388.39,-373.98 393.7,-375.33 393.7,-375.33"/>
</a>
</g>
</g>
<!-- Node8 -->
<g id="Node000008" class="node">
<title>Node8</title>
<g id="a_Node000008"><a xlink:href="../../dc/db2/namespacepeg.html#a9d85c89cbd1ef2cd7566c3d96e82ab46" target="_top" xlink:title=" ">
<polygon fill="white" stroke="#666666" points="450,-539 394,-539 394,-520 450,-520 450,-539"/>
<text text-anchor="middle" x="422" y="-527" font-family="Helvetica,sans-Serif" font-size="10.00">peg::rep</text>
</a>
</g>
</g>
<!-- Node2&#45;&gt;Node8 -->
<g id="edge11_Node000002_Node000008" class="edge">
<title>Node2&#45;&gt;Node8</title>
<g id="a_edge11_Node000002_Node000008"><a xlink:title=" ">
<path fill="none" stroke="#63b8ff" d="M252.28,-417.52C272.25,-440.98 314.06,-486.24 359,-511.5 368.24,-516.69 379.11,-520.5 389.14,-523.25"/>
<polygon fill="#63b8ff" stroke="#63b8ff" points="393.99,-524.51 388.59,-525.43 391.57,-523.88 389.15,-523.25 389.15,-523.25 389.15,-523.25 391.57,-523.88 389.72,-521.07 393.99,-524.51 393.99,-524.51"/>
</a>
</g>
</g>
<!-- Node9 -->
<g id="Node000009" class="node">
<title>Node9</title>
<g id="a_Node000009"><a xlink:href="../../dc/db2/namespacepeg.html#ab1798dbf62bcb036155cd728c87e0203" target="_top" xlink:title=" ">
<polygon fill="white" stroke="#666666" points="451,-484 393,-484 393,-465 451,-465 451,-484"/>
<text text-anchor="middle" x="422" y="-472" font-family="Helvetica,sans-Serif" font-size="10.00">peg::seq</text>
</a>
</g>
</g>
<!-- Node2&#45;&gt;Node9 -->
<g id="edge13_Node000002_Node000009" class="edge">
<title>Node2&#45;&gt;Node9</title>
<g id="a_edge13_Node000002_Node000009"><a xlink:title=" ">
<path fill="none" stroke="#63b8ff" d="M270.89,-417.5C294.66,-428.74 328.5,-444.08 359,-455.5 368.34,-459 378.63,-462.35 388.11,-465.23"/>
<polygon fill="#63b8ff" stroke="#63b8ff" points="392.98,-466.7 387.54,-467.41 390.59,-465.98 388.19,-465.26 388.19,-465.26 388.19,-465.26 390.59,-465.98 388.84,-463.1 392.98,-466.7 392.98,-466.7"/>
</a>
</g>
</g>
<!-- Node4&#45;&gt;Node4 -->
<g id="edge8_Node000004_Node000004" class="edge">
<title>Node4&#45;&gt;Node4</title>
<g id="a_edge8_Node000004_Node000004"><a xlink:title=" ">
<path fill="none" stroke="#63b8ff" d="M397.65,-325.08C385.8,-333.73 393.92,-343 422,-343 446.13,-343 455.52,-336.16 450.17,-328.74"/>
<polygon fill="#63b8ff" stroke="#63b8ff" points="446.35,-325.08 451.52,-326.92 448.16,-326.81 449.96,-328.54 449.96,-328.54 449.96,-328.54 448.16,-326.81 448.4,-330.17 446.35,-325.08 446.35,-325.08"/>
</a>
</g>
</g>
<!-- Node5 -->
<g id="Node000005" class="node">
<title>Node5</title>
<g id="a_Node000005"><a xlink:href="../../dc/db2/namespacepeg.html#a1b2d4c46617c0fd0f1db581c12dfdc74" target="_top" xlink:title=" ">
<polygon fill="white" stroke="#666666" points="642,-325 521,-325 521,-306 642,-306 642,-325"/>
<text text-anchor="middle" x="581.5" y="-313" font-family="Helvetica,sans-Serif" font-size="10.00">peg::codepoint_count</text>
</a>
</g>
</g>
<!-- Node4&#45;&gt;Node5 -->
<g id="edge4_Node000004_Node000005" class="edge">
<title>Node4&#45;&gt;Node5</title>
<g id="a_edge4_Node000004_Node000005"><a xlink:title=" ">
<path fill="none" stroke="#63b8ff" d="M463.56,-315.5C479.34,-315.5 497.81,-315.5 515.36,-315.5"/>
<polygon fill="#63b8ff" stroke="#63b8ff" points="520.77,-315.5 515.77,-317.75 518.27,-315.5 515.77,-315.5 515.77,-315.5 515.77,-315.5 518.27,-315.5 515.77,-313.25 520.77,-315.5 520.77,-315.5"/>
</a>
</g>
</g>
<!-- Node5&#45;&gt;Node5 -->
<g id="edge5_Node000005_Node000005" class="edge">
<title>Node5&#45;&gt;Node5</title>
<g id="a_edge5_Node000005_Node000005"><a xlink:title=" ">
<path fill="none" stroke="#63b8ff" d="M557.15,-325.08C545.3,-333.73 553.42,-343 581.5,-343 605.63,-343 615.02,-336.16 609.67,-328.74"/>
<polygon fill="#63b8ff" stroke="#63b8ff" points="605.85,-325.08 611.02,-326.92 607.66,-326.81 609.46,-328.54 609.46,-328.54 609.46,-328.54 607.66,-326.81 607.9,-330.17 605.85,-325.08 605.85,-325.08"/>
</a>
</g>
</g>
<!-- Node6 -->
<g id="Node000006" class="node">
<title>Node6</title>
<g id="a_Node000006"><a xlink:href="../../dc/db2/namespacepeg.html#a5da61379c82a173a0c44ac7b0575323a" target="_top" xlink:title=" ">
<polygon fill="white" stroke="#666666" points="803,-325 678,-325 678,-306 803,-306 803,-325"/>
<text text-anchor="middle" x="740.5" y="-313" font-family="Helvetica,sans-Serif" font-size="10.00">peg::codepoint_length</text>
</a>
</g>
</g>
<!-- Node5&#45;&gt;Node6 -->
<g id="edge6_Node000005_Node000006" class="edge">
<title>Node5&#45;&gt;Node6</title>
<g id="a_edge6_Node000005_Node000006"><a xlink:title=" ">
<path fill="none" stroke="#63b8ff" d="M642.3,-315.5C652.19,-315.5 662.5,-315.5 672.55,-315.5"/>
<polygon fill="#63b8ff" stroke="#63b8ff" points="677.78,-315.5 672.78,-317.75 675.28,-315.5 672.78,-315.5 672.78,-315.5 672.78,-315.5 675.28,-315.5 672.78,-313.25 677.78,-315.5 677.78,-315.5"/>
</a>
</g>
</g>
<!-- Node6&#45;&gt;Node6 -->
<g id="edge7_Node000006_Node000006" class="edge">
<title>Node6&#45;&gt;Node6</title>
<g id="a_edge7_Node000006_Node000006"><a xlink:title=" ">
<path fill="none" stroke="#63b8ff" d="M716.15,-325.08C704.3,-333.73 712.42,-343 740.5,-343 764.63,-343 774.02,-336.16 768.67,-328.74"/>
<polygon fill="#63b8ff" stroke="#63b8ff" points="764.85,-325.08 770.02,-326.92 766.66,-326.81 768.46,-328.54 768.46,-328.54 768.46,-328.54 766.66,-326.81 766.9,-330.17 764.85,-325.08 764.85,-325.08"/>
</a>
</g>
</g>
<!-- Node7&#45;&gt;Node7 -->
<g id="edge10_Node000007_Node000007" class="edge">
<title>Node7&#45;&gt;Node7</title>
<g id="a_edge10_Node000007_Node000007"><a xlink:title=" ">
<path fill="none" stroke="#63b8ff" d="M397.65,-380.08C385.8,-388.73 393.92,-398 422,-398 446.13,-398 455.52,-391.16 450.17,-383.74"/>
<polygon fill="#63b8ff" stroke="#63b8ff" points="446.35,-380.08 451.52,-381.92 448.16,-381.81 449.96,-383.54 449.96,-383.54 449.96,-383.54 448.16,-381.81 448.4,-385.17 446.35,-380.08 446.35,-380.08"/>
</a>
</g>
</g>
<!-- Node8&#45;&gt;Node8 -->
<g id="edge12_Node000008_Node000008" class="edge">
<title>Node8&#45;&gt;Node8</title>
<g id="a_edge12_Node000008_Node000008"><a xlink:title=" ">
<path fill="none" stroke="#63b8ff" d="M397.65,-539.08C385.8,-547.73 393.92,-557 422,-557 446.13,-557 455.52,-550.16 450.17,-542.74"/>
<polygon fill="#63b8ff" stroke="#63b8ff" points="446.35,-539.08 451.52,-540.92 448.16,-540.81 449.96,-542.54 449.96,-542.54 449.96,-542.54 448.16,-540.81 448.4,-544.17 446.35,-539.08 446.35,-539.08"/>
</a>
</g>
</g>
<!-- Node9&#45;&gt;Node9 -->
<g id="edge14_Node000009_Node000009" class="edge">
<title>Node9&#45;&gt;Node9</title>
<g id="a_edge14_Node000009_Node000009"><a xlink:title=" ">
<path fill="none" stroke="#63b8ff" d="M397.65,-484.08C385.8,-492.73 393.92,-502 422,-502 446.13,-502 455.52,-495.16 450.17,-487.74"/>
<polygon fill="#63b8ff" stroke="#63b8ff" points="446.35,-484.08 451.52,-485.92 448.16,-485.81 449.96,-487.54 449.96,-487.54 449.96,-487.54 448.16,-485.81 448.4,-489.17 446.35,-484.08 446.35,-484.08"/>
</a>
</g>
</g>
<!-- Node11 -->
<g id="Node000011" class="node">
<title>Node11</title>
<g id="a_Node000011"><a xlink:href="../../d2/d66/classpeg_1_1Ope.html#af57615cfe8938c0f4c9a0dd6df9da560" target="_top" xlink:title=" ">
<polygon fill="white" stroke="#666666" points="471,-249 373,-249 373,-230 471,-230 471,-249"/>
<text text-anchor="middle" x="422" y="-237" font-family="Helvetica,sans-Serif" font-size="10.00">peg::Ope::accept</text>
</a>
</g>
</g>
<!-- Node10&#45;&gt;Node11 -->
<g id="edge16_Node000010_Node000011" class="edge">
<title>Node10&#45;&gt;Node11</title>
<g id="a_edge16_Node000010_Node000011"><a xlink:title=" ">
<path fill="none" stroke="#63b8ff" d="M292.84,-239.5C316.32,-239.5 343.91,-239.5 367.46,-239.5"/>
<polygon fill="#63b8ff" stroke="#63b8ff" points="372.73,-239.5 367.73,-241.75 370.23,-239.5 367.73,-239.5 367.73,-239.5 367.73,-239.5 370.23,-239.5 367.73,-237.25 372.73,-239.5 372.73,-239.5"/>
</a>
</g>
</g>
<!-- Node12&#45;&gt;Node4 -->
<g id="edge19_Node000012_Node000004" class="edge">
<title>Node12&#45;&gt;Node4</title>
<g id="a_edge19_Node000012_Node000004"><a xlink:title=" ">
<path fill="none" stroke="#63b8ff" d="M298.77,-296.59C323.52,-300.42 351.91,-304.81 375.1,-308.4"/>
<polygon fill="#63b8ff" stroke="#63b8ff" points="380.26,-309.2 374.98,-310.66 377.79,-308.82 375.32,-308.43 375.32,-308.43 375.32,-308.43 377.79,-308.82 375.66,-306.21 380.26,-309.2 380.26,-309.2"/>
</a>
</g>
</g>
<!-- Node13 -->
<g id="Node000013" class="node">
<title>Node13</title>
<g id="a_Node000013"><a xlink:href="../../d8/d94/classpeg_1_1Definition.html#ada8991cee43bd63b8273eccd8a29c33b" target="_top" xlink:title=" ">
<polygon fill="white" stroke="#666666" points="485,-288 359,-288 359,-269 485,-269 485,-288"/>
<text text-anchor="middle" x="422" y="-276" font-family="Helvetica,sans-Serif" font-size="10.00">peg::Definition::accept</text>
</a>
</g>
</g>
<!-- Node12&#45;&gt;Node13 -->
<g id="edge18_Node000012_Node000013" class="edge">
<title>Node12&#45;&gt;Node13</title>
<g id="a_edge18_Node000012_Node000013"><a xlink:title=" ">
<path fill="none" stroke="#63b8ff" d="M298.77,-284.58C316.32,-283.71 335.69,-282.74 353.74,-281.84"/>
<polygon fill="#63b8ff" stroke="#63b8ff" points="358.79,-281.59 353.91,-284.09 356.29,-281.72 353.8,-281.84 353.8,-281.84 353.8,-281.84 356.29,-281.72 353.69,-279.59 358.79,-281.59 358.79,-281.59"/>
</a>
</g>
</g>
<!-- Node15&#45;&gt;Node15 -->
<g id="edge23_Node000015_Node000015" class="edge">
<title>Node15&#45;&gt;Node15</title>
<g id="a_edge23_Node000015_Node000015"><a xlink:title=" ">
<path fill="none" stroke="#63b8ff" d="M211.57,-129.08C198.22,-137.73 207.36,-147 239,-147 266.68,-147 277.14,-139.91 270.39,-132.34"/>
<polygon fill="#63b8ff" stroke="#63b8ff" points="266.43,-129.08 271.72,-130.52 268.36,-130.67 270.29,-132.26 270.29,-132.26 270.29,-132.26 268.36,-130.67 268.86,-134 266.43,-129.08 266.43,-129.08"/>
</a>
</g>
</g>
<!-- Node16&#45;&gt;Node16 -->
<g id="edge25_Node000016_Node000016" class="edge">
<title>Node16&#45;&gt;Node16</title>
<g id="a_edge25_Node000016_Node000016"><a xlink:title=" ">
<path fill="none" stroke="#63b8ff" d="M211.57,-74.08C198.22,-82.73 207.36,-92 239,-92 266.68,-92 277.14,-84.91 270.39,-77.34"/>
<polygon fill="#63b8ff" stroke="#63b8ff" points="266.43,-74.08 271.72,-75.52 268.36,-75.67 270.29,-77.26 270.29,-77.26 270.29,-77.26 268.36,-75.67 268.86,-79 266.43,-74.08 266.43,-74.08"/>
</a>
</g>
</g>
<!-- Node17&#45;&gt;Node17 -->
<g id="edge27_Node000017_Node000017" class="edge">
<title>Node17&#45;&gt;Node17</title>
<g id="a_edge27_Node000017_Node000017"><a xlink:title=" ">
<path fill="none" stroke="#63b8ff" d="M211.57,-19.08C198.22,-27.73 207.36,-37 239,-37 266.68,-37 277.14,-29.91 270.39,-22.34"/>
<polygon fill="#63b8ff" stroke="#63b8ff" points="266.43,-19.08 271.72,-20.52 268.36,-20.67 270.29,-22.26 270.29,-22.26 270.29,-22.26 268.36,-20.67 268.86,-24 266.43,-19.08 266.43,-19.08"/>
</a>
</g>
</g>
</g>
</svg>

<g id="navigator" transform="translate(0 0)" fill="#404254">
  <rect fill="#f2f5e9" fill-opacity="0.5" stroke="#606060" stroke-width=".5" x="0" y="0" width="60" height="60"/>
  <use id="zoomplus" xlink:href="#zoomPlus" x="17" y="9" data-zoom="in"/>
  <use id="zoomminus" xlink:href="#zoomMin" x="42" y="9" data-zoom="out"/>
  <use id="reset" xlink:href="#resetDef" x="30" y="36" data-reset="true"/>
  <use id="arrowup" xlink:href="#arrowUp" x="0" y="0" data-pan-x="0" data-pan-y="-1"/>
  <use id="arrowright" xlink:href="#arrowRight" x="0" y="0" data-pan-x="1" data-pan-y="0"/>
  <use id="arrowdown" xlink:href="#arrowDown" x="0" y="0" data-pan-x="0" data-pan-y="1"/>
  <use id="arrowleft" xlink:href="#arrowLeft" x="0" y="0" data-pan-x="-1" data-pan-y="0"/>
</g>
<svg viewBox="0 0 15 15" width="100%" height="30px" preserveAspectRatio="xMaxYMin meet">
 <g id="arrow_out" transform="scale(0.3 0.3)">
  <a xlink:href="classpeg_1_1ParserGenerator_a28cc2c9f6200d6bf55270d2808e9833a_cgraph_org.svg" target="_base">
   <rect id="button" ry="5" rx="5" y="6" x="6" height="38" width="38"
        fill="#f2f5e9" fill-opacity="0.5" stroke="#606060" stroke-width="1.0"/>
   <path id="arrow"
     d="M 11.500037,31.436501 C 11.940474,20.09759 22.043105,11.32322 32.158766,21.979434 L 37.068811,17.246167 C 37.068811,17.246167 37.088388,32 37.088388,32 L 22.160133,31.978069 C 22.160133,31.978069 26.997745,27.140456 26.997745,27.140456 C 18.528582,18.264221 13.291696,25.230495 11.500037,31.436501 z"
     style="fill:#404040;"/>
  </a>
 </g>
</svg>

<style type='text/css'>
<![CDATA[
[data-mouse-over-selected='false'] { opacity: 0.7; }
[data-mouse-over-selected='true']  { opacity: 1.0; }
]]>
</style>
</svg>
