<?xml version="1.0" encoding="UTF-8" standalone="no"?>
<!DOCTYPE svg PUBLIC "-//W3C//DTD SVG 1.1//EN"
 "http://www.w3.org/Graphics/SVG/1.1/DTD/svg11.dtd">
<!-- Generated by graphviz version 2.43.0 (0)
 -->
<!-- Title: TabLog::getClicked Pages: 1 -->
<svg width="301pt" height="76pt"
 viewBox="0.00 0.00 301.00 75.50" xmlns="http://www.w3.org/2000/svg" xmlns:xlink="http://www.w3.org/1999/xlink">
<g id="graph0" class="graph" transform="scale(1 1) rotate(0) translate(4 71.5)">
<title>TabLog::getClicked</title>
<!-- Node1 -->
<g id="Node000001" class="node">
<title>Node1</title>
<g id="a_Node000001"><a xlink:title=" ">
<polygon fill="#999999" stroke="#666666" points="107,-45.5 0,-45.5 0,-26.5 107,-26.5 107,-45.5"/>
<text text-anchor="middle" x="53.5" y="-33.5" font-family="Helvetica,sans-Serif" font-size="10.00">TabLog::getClicked</text>
</a>
</g>
</g>
<!-- Node2 -->
<g id="Node000002" class="node">
<title>Node2</title>
<g id="a_Node000002"><a xlink:href="../../d8/d62/classPendingCommand.html#a592d604b15abf4153c4b401484396324" target="_top" xlink:title=" ">
<polygon fill="white" stroke="#666666" points="293,-67.5 143,-67.5 143,-48.5 293,-48.5 293,-67.5"/>
<text text-anchor="middle" x="218" y="-55.5" font-family="Helvetica,sans-Serif" font-size="10.00">PendingCommand::finished</text>
</a>
</g>
</g>
<!-- Node1&#45;&gt;Node2 -->
<g id="edge1_Node000001_Node000002" class="edge">
<title>Node1&#45;&gt;Node2</title>
<g id="a_edge1_Node000001_Node000002"><a xlink:title=" ">
<path fill="none" stroke="#63b8ff" d="M107.26,-43.14C118.29,-44.64 130.12,-46.24 141.78,-47.82"/>
<polygon fill="#63b8ff" stroke="#63b8ff" points="146.77,-48.49 141.51,-50.05 144.29,-48.16 141.81,-47.82 141.81,-47.82 141.81,-47.82 144.29,-48.16 142.11,-45.59 146.77,-48.49 146.77,-48.49"/>
</a>
</g>
</g>
<!-- Node3 -->
<g id="Node000003" class="node">
<title>Node3</title>
<g id="a_Node000003"><a xlink:href="../../d9/ded/classTabLog.html#a5655893af9a446da70d340f11ad19776" target="_top" xlink:title=" ">
<polygon fill="white" stroke="#666666" points="284,-30 152,-30 152,0 284,0 284,-30"/>
<text text-anchor="start" x="160" y="-18" font-family="Helvetica,sans-Serif" font-size="10.00">TabLog::viewLogHistory</text>
<text text-anchor="middle" x="218" y="-7" font-family="Helvetica,sans-Serif" font-size="10.00">_processResponse</text>
</a>
</g>
</g>
<!-- Node1&#45;&gt;Node3 -->
<g id="edge2_Node000001_Node000003" class="edge">
<title>Node1&#45;&gt;Node3</title>
<g id="a_edge2_Node000001_Node000003"><a xlink:title=" ">
<path fill="none" stroke="#63b8ff" d="M107.26,-29.18C119.78,-27.56 133.33,-25.81 146.49,-24.11"/>
<polygon fill="#63b8ff" stroke="#63b8ff" points="151.71,-23.44 147.04,-26.31 149.23,-23.76 146.76,-24.08 146.76,-24.08 146.76,-24.08 149.23,-23.76 146.47,-21.85 151.71,-23.44 151.71,-23.44"/>
</a>
</g>
</g>
</g>
</svg>
