<?xml version="1.0" encoding="UTF-8" standalone="no"?>
<!DOCTYPE svg PUBLIC "-//W3C//DTD SVG 1.1//EN"
 "http://www.w3.org/Graphics/SVG/1.1/DTD/svg11.dtd">
<!-- Generated by graphviz version 2.43.0 (0)
 -->
<!-- Title: cockatrice/src/interface/widgets/tabs/api/edhrec/api_response/average_deck/edhrec_average_deck_api_response.cpp Pages: 1 -->
<!--zoomable 522 -->

<svg id="main" version="1.1" xmlns="http://www.w3.org/2000/svg" xmlns:xlink="http://www.w3.org/1999/xlink" xml:space="preserve" onload="init(evt)">
<style type="text/css"><![CDATA[
.node, .edge {opacity: 0.7;}
.node.selected, .edge.selected {opacity: 1;}
.edge:hover path { stroke: red; }
.edge:hover polygon { stroke: red; fill: red; }
]]></style>

<defs>
  <circle id="rim" cx="0" cy="0" r="7"/>
  <circle id="rim2" cx="0" cy="0" r="3.5"/>
  <g id="zoomPlus">
    <use xlink:href="#rim" fill="#404040"><set attributeName="fill" to="#808080" begin="zoomplus.mouseover" end="zoomplus.mouseout"/></use>
    <path d="M-4,0h8M0,-4v8" fill="none" stroke="white" stroke-width="1.5" pointer-events="none"/>
  </g>
  <g id="zoomMin">
    <use xlink:href="#rim" fill="#404040"><set attributeName="fill" to="#808080" begin="zoomminus.mouseover" end="zoomminus.mouseout"/></use>
    <path d="M-4,0h8" fill="none" stroke="white" stroke-width="1.5" pointer-events="none"/>
  </g>
  <g id="arrowUp" transform="translate(30 24)">
    <use xlink:href="#rim"/>
    <path pointer-events="none" fill="none" stroke="white" stroke-width="1.5" d="M0,-3.0v7 M-2.5,-0.5L0,-3.0L2.5,-0.5"/>
  </g>
  <g id="arrowRight" transform="rotate(90) translate(36 -43)">
    <use xlink:href="#rim"/>
    <path pointer-events="none" fill="none" stroke="white" stroke-width="1.5" d="M0,-3.0v7 M-2.5,-0.5L0,-3.0L2.5,-0.5"/>
  </g>
  <g id="arrowDown" transform="rotate(180) translate(-30 -48)">
    <use xlink:href="#rim"/>
    <path pointer-events="none" fill="none" stroke="white" stroke-width="1.5" d="M0,-3.0v7 M-2.5,-0.5L0,-3.0L2.5,-0.5"/>
  </g>
  <g id="arrowLeft" transform="rotate(270) translate(-36 17)">
    <use xlink:href="#rim"/>
    <path pointer-events="none" fill="none" stroke="white" stroke-width="1.5" d="M0,-3.0v7 M-2.5,-0.5L0,-3.0L2.5,-0.5"/>
  </g>
  <g id="resetDef">
    <use xlink:href="#rim2" fill="#404040"><set attributeName="fill" to="#808080" begin="reset.mouseover" end="reset.mouseout"/></use>
  </g>
</defs>
<script type="application/ecmascript">
var viewWidth = 1675;
var viewHeight = 522;
var sectionId = 'dynsection-0';
</script>
<script type="application/ecmascript" xlink:href="../../svg.min.js"/>
<svg id="graph" class="graph">
<g id="viewport">
<title>cockatrice/src/interface/widgets/tabs/api/edhrec/api_response/average_deck/edhrec_average_deck_api_response.cpp</title>
<!-- Node1 -->
<g id="Node000001" class="node">
<title>Node1</title>
<g id="a_Node000001"><a xlink:title=" ">
<polygon fill="#999999" stroke="#666666" points="1024,-514 808,-514 808,-462 1024,-462 1024,-514"/>
<text text-anchor="start" x="816" y="-502" font-family="Helvetica,sans-Serif" font-size="10.00">cockatrice/src/interface</text>
<text text-anchor="start" x="816" y="-491" font-family="Helvetica,sans-Serif" font-size="10.00">/widgets/tabs/api/edhrec</text>
<text text-anchor="start" x="816" y="-480" font-family="Helvetica,sans-Serif" font-size="10.00">/api_response/average_deck</text>
<text text-anchor="middle" x="916" y="-469" font-family="Helvetica,sans-Serif" font-size="10.00">/edhrec_average_deck_api_response.cpp</text>
</a>
</g>
</g>
<!-- Node2 -->
<g id="Node000002" class="node">
<title>Node2</title>
<g id="a_Node000002"><a xlink:href="../../dc/d50/edhrec__average__deck__api__response_8h.html" target="_top" xlink:title=" ">
<polygon fill="white" stroke="#666666" points="1079.5,-426 956.5,-426 956.5,-396 1079.5,-396 1079.5,-426"/>
<text text-anchor="start" x="964.5" y="-414" font-family="Helvetica,sans-Serif" font-size="10.00">edhrec_average_deck</text>
<text text-anchor="middle" x="1018" y="-403" font-family="Helvetica,sans-Serif" font-size="10.00">_api_response.h</text>
</a>
</g>
</g>
<!-- Node1&#45;&gt;Node2 -->
<g id="edge1_Node000001_Node000002" class="edge">
<title>Node1&#45;&gt;Node2</title>
<g id="a_edge1_Node000001_Node000002"><a xlink:title=" ">
<path fill="none" stroke="#63b8ff" d="M950.25,-461.82C964.81,-451.11 981.42,-438.9 994.54,-429.25"/>
<polygon fill="#63b8ff" stroke="#63b8ff" points="998.86,-426.08 996.16,-430.85 996.84,-427.56 994.83,-429.04 994.83,-429.04 994.83,-429.04 996.84,-427.56 993.49,-427.23 998.86,-426.08 998.86,-426.08"/>
</a>
</g>
</g>
<!-- Node4 -->
<g id="Node000004" class="node">
<title>Node4</title>
<g id="a_Node000004"><a xlink:title=" ">
<polygon fill="#e0e0e0" stroke="#999999" points="745,-277.5 689,-277.5 689,-258.5 745,-258.5 745,-277.5"/>
<text text-anchor="middle" x="717" y="-265.5" font-family="Helvetica,sans-Serif" font-size="10.00">QDebug</text>
</a>
</g>
</g>
<!-- Node1&#45;&gt;Node4 -->
<g id="edge55_Node000001_Node000004" class="edge">
<title>Node1&#45;&gt;Node4</title>
<g id="a_edge55_Node000001_Node000004"><a xlink:title=" ">
<path fill="none" stroke="#63b8ff" d="M852.38,-461.97C809.1,-441.4 754.66,-407.81 726,-360 711.57,-335.94 712.78,-301.73 714.9,-282.85"/>
<polygon fill="#63b8ff" stroke="#63b8ff" points="715.58,-277.52 717.18,-282.76 715.26,-280 714.95,-282.48 714.95,-282.48 714.95,-282.48 715.26,-280 712.72,-282.19 715.58,-277.52 715.58,-277.52"/>
</a>
</g>
</g>
<!-- Node11 -->
<g id="Node000011" class="node">
<title>Node11</title>
<g id="a_Node000011"><a xlink:title=" ">
<polygon fill="#e0e0e0" stroke="#999999" points="887.5,-211.5 816.5,-211.5 816.5,-192.5 887.5,-192.5 887.5,-211.5"/>
<text text-anchor="middle" x="852" y="-199.5" font-family="Helvetica,sans-Serif" font-size="10.00">QJsonArray</text>
</a>
</g>
</g>
<!-- Node1&#45;&gt;Node11 -->
<g id="edge56_Node000001_Node000011" class="edge">
<title>Node1&#45;&gt;Node11</title>
<g id="a_edge56_Node000001_Node000011"><a xlink:title=" ">
<path fill="none" stroke="#63b8ff" d="M915.17,-461.88C913.62,-428.73 909.24,-368.74 897,-319 887.54,-280.55 868.55,-237.69 858.54,-216.45"/>
<polygon fill="#63b8ff" stroke="#63b8ff" points="856.31,-211.77 860.49,-215.32 857.38,-214.03 858.46,-216.28 858.46,-216.28 858.46,-216.28 857.38,-214.03 856.43,-217.25 856.31,-211.77 856.31,-211.77"/>
</a>
</g>
</g>
<!-- Node3 -->
<g id="Node000003" class="node">
<title>Node3</title>
<g id="a_Node000003"><a xlink:href="../../d8/d33/edhrec__api__response__archidekt__links_8h.html" target="_top" xlink:title=" ">
<polygon fill="white" stroke="#666666" points="888,-360 766,-360 766,-319 888,-319 888,-360"/>
<text text-anchor="start" x="774" y="-348" font-family="Helvetica,sans-Serif" font-size="10.00">../archidekt_links</text>
<text text-anchor="start" x="774" y="-337" font-family="Helvetica,sans-Serif" font-size="10.00">/edhrec_api_response</text>
<text text-anchor="middle" x="827" y="-326" font-family="Helvetica,sans-Serif" font-size="10.00">_archidekt_links.h</text>
</a>
</g>
</g>
<!-- Node2&#45;&gt;Node3 -->
<g id="edge2_Node000002_Node000003" class="edge">
<title>Node2&#45;&gt;Node3</title>
<g id="a_edge2_Node000002_Node000003"><a xlink:title=" ">
<path fill="none" stroke="#63b8ff" d="M979.35,-395.94C952.45,-386.15 916.08,-372.91 885.63,-361.83"/>
<polygon fill="#63b8ff" stroke="#63b8ff" points="880.79,-360.07 886.26,-359.67 883.14,-360.93 885.49,-361.78 885.49,-361.78 885.49,-361.78 883.14,-360.93 884.72,-363.9 880.79,-360.07 880.79,-360.07"/>
</a>
</g>
</g>
<!-- Node2&#45;&gt;Node4 -->
<g id="edge52_Node000002_Node000004" class="edge">
<title>Node2&#45;&gt;Node4</title>
<g id="a_edge52_Node000002_Node000004"><a xlink:title=" ">
<path fill="none" stroke="#63b8ff" d="M956.22,-404.78C889.02,-397.97 787.12,-384.01 757,-360 732.47,-340.45 722.61,-302.79 718.95,-282.59"/>
<polygon fill="#63b8ff" stroke="#63b8ff" points="718.11,-277.62 721.16,-282.17 718.53,-280.08 718.95,-282.55 718.95,-282.55 718.95,-282.55 718.53,-280.08 716.73,-282.92 718.11,-277.62 718.11,-277.62"/>
</a>
</g>
</g>
<!-- Node5 -->
<g id="Node000005" class="node">
<title>Node5</title>
<g id="a_Node000005"><a xlink:title=" ">
<polygon fill="#e0e0e0" stroke="#999999" points="1303,-145.5 1227,-145.5 1227,-126.5 1303,-126.5 1303,-145.5"/>
<text text-anchor="middle" x="1265" y="-133.5" font-family="Helvetica,sans-Serif" font-size="10.00">QJsonObject</text>
</a>
</g>
</g>
<!-- Node2&#45;&gt;Node5 -->
<g id="edge53_Node000002_Node000005" class="edge">
<title>Node2&#45;&gt;Node5</title>
<g id="a_edge53_Node000002_Node000005"><a xlink:title=" ">
<path fill="none" stroke="#63b8ff" d="M1079.85,-408.82C1183.31,-405.86 1386.15,-395.57 1447,-360 1483.53,-338.64 1485.79,-321.66 1503,-283 1520.54,-243.61 1544.36,-220.32 1517,-187 1491.09,-155.44 1373.33,-143.45 1308.36,-139.18"/>
<polygon fill="#63b8ff" stroke="#63b8ff" points="1303.01,-138.83 1308.14,-136.91 1305.5,-138.99 1308,-139.15 1308,-139.15 1308,-139.15 1305.5,-138.99 1307.86,-141.4 1303.01,-138.83 1303.01,-138.83"/>
</a>
</g>
</g>
<!-- Node6 -->
<g id="Node000006" class="node">
<title>Node6</title>
<g id="a_Node000006"><a xlink:title=" ">
<polygon fill="#e0e0e0" stroke="#999999" points="1011.5,-79.5 958.5,-79.5 958.5,-60.5 1011.5,-60.5 1011.5,-79.5"/>
<text text-anchor="middle" x="985" y="-67.5" font-family="Helvetica,sans-Serif" font-size="10.00">QString</text>
</a>
</g>
</g>
<!-- Node2&#45;&gt;Node6 -->
<g id="edge54_Node000002_Node000006" class="edge">
<title>Node2&#45;&gt;Node6</title>
<g id="a_edge54_Node000002_Node000006"><a xlink:title=" ">
<path fill="none" stroke="#63b8ff" d="M1079.64,-409.61C1241.64,-406.92 1667,-388.48 1667,-269 1667,-269 1667,-269 1667,-201 1667,-105.26 1559.95,-143.94 1467,-121 1301.09,-80.06 1095.01,-72.61 1016.96,-71.28"/>
<polygon fill="#63b8ff" stroke="#63b8ff" points="1011.56,-71.19 1016.6,-69.02 1014.06,-71.23 1016.56,-71.27 1016.56,-71.27 1016.56,-71.27 1014.06,-71.23 1016.53,-73.52 1011.56,-71.19 1011.56,-71.19"/>
</a>
</g>
</g>
<!-- Node8 -->
<g id="Node000008" class="node">
<title>Node8</title>
<g id="a_Node000008"><a xlink:href="../../da/dd4/edhrec__api__response__card__container_8h.html" target="_top" xlink:title="TODO: Document this.">
<polygon fill="white" stroke="#666666" points="1107,-354.5 955,-354.5 955,-324.5 1107,-324.5 1107,-354.5"/>
<text text-anchor="start" x="963" y="-342.5" font-family="Helvetica,sans-Serif" font-size="10.00">../cards/edhrec_api</text>
<text text-anchor="middle" x="1031" y="-331.5" font-family="Helvetica,sans-Serif" font-size="10.00">_response_card_container.h</text>
</a>
</g>
</g>
<!-- Node2&#45;&gt;Node8 -->
<g id="edge7_Node000002_Node000008" class="edge">
<title>Node2&#45;&gt;Node8</title>
<g id="a_edge7_Node000002_Node000008"><a xlink:title=" ">
<path fill="none" stroke="#63b8ff" d="M1020.63,-395.94C1022.59,-385.48 1025.28,-371.09 1027.43,-359.6"/>
<polygon fill="#63b8ff" stroke="#63b8ff" points="1028.37,-354.54 1029.67,-359.87 1027.91,-357 1027.45,-359.46 1027.45,-359.46 1027.45,-359.46 1027.91,-357 1025.24,-359.04 1028.37,-354.54 1028.37,-354.54"/>
</a>
</g>
</g>
<!-- Node15 -->
<g id="Node000015" class="node">
<title>Node15</title>
<g id="a_Node000015"><a xlink:href="../../d1/dac/edhrec__commander__api__response__average__deck__statistics_8h.html" target="_top" xlink:title=" ">
<polygon fill="white" stroke="#666666" points="1438,-360 1288,-360 1288,-319 1438,-319 1438,-360"/>
<text text-anchor="start" x="1296" y="-348" font-family="Helvetica,sans-Serif" font-size="10.00">../commander/edhrec</text>
<text text-anchor="start" x="1296" y="-337" font-family="Helvetica,sans-Serif" font-size="10.00">_commander_api_response</text>
<text text-anchor="middle" x="1363" y="-326" font-family="Helvetica,sans-Serif" font-size="10.00">_average_deck_statistics.h</text>
</a>
</g>
</g>
<!-- Node2&#45;&gt;Node15 -->
<g id="edge28_Node000002_Node000015" class="edge">
<title>Node2&#45;&gt;Node15</title>
<g id="a_edge28_Node000002_Node000015"><a xlink:title=" ">
<path fill="none" stroke="#63b8ff" d="M1079.68,-397.57C1136.33,-386.16 1220.63,-369.18 1282.55,-356.71"/>
<polygon fill="#63b8ff" stroke="#63b8ff" points="1287.72,-355.67 1283.26,-358.86 1285.27,-356.16 1282.82,-356.65 1282.82,-356.65 1282.82,-356.65 1285.27,-356.16 1282.37,-354.45 1287.72,-355.67 1287.72,-355.67"/>
</a>
</g>
</g>
<!-- Node16 -->
<g id="Node000016" class="node">
<title>Node16</title>
<g id="a_Node000016"><a xlink:href="../../d9/da2/edhrec__deck__api__response_8h.html" target="_top" xlink:title="TODO: Document this.">
<polygon fill="white" stroke="#666666" points="671.5,-349 514.5,-349 514.5,-330 671.5,-330 671.5,-349"/>
<text text-anchor="middle" x="593" y="-337" font-family="Helvetica,sans-Serif" font-size="10.00">edhrec_deck_api_response.h</text>
</a>
</g>
</g>
<!-- Node2&#45;&gt;Node16 -->
<g id="edge30_Node000002_Node000016" class="edge">
<title>Node2&#45;&gt;Node16</title>
<g id="a_edge30_Node000002_Node000016"><a xlink:title=" ">
<path fill="none" stroke="#63b8ff" d="M956.2,-399.89C874.09,-386.47 730.13,-362.92 650.33,-349.88"/>
<polygon fill="#63b8ff" stroke="#63b8ff" points="645.17,-349.03 650.47,-347.62 647.64,-349.43 650.1,-349.84 650.1,-349.84 650.1,-349.84 647.64,-349.43 649.74,-352.06 645.17,-349.03 645.17,-349.03"/>
</a>
</g>
</g>
<!-- Node3&#45;&gt;Node4 -->
<g id="edge3_Node000003_Node000004" class="edge">
<title>Node3&#45;&gt;Node4</title>
<g id="a_edge3_Node000003_Node000004"><a xlink:title=" ">
<path fill="none" stroke="#63b8ff" d="M796.07,-318.96C776.32,-306.48 751.41,-290.74 734.89,-280.3"/>
<polygon fill="#63b8ff" stroke="#63b8ff" points="730.46,-277.5 735.89,-278.27 732.57,-278.84 734.69,-280.17 734.69,-280.17 734.69,-280.17 732.57,-278.84 733.48,-282.08 730.46,-277.5 730.46,-277.5"/>
</a>
</g>
</g>
<!-- Node3&#45;&gt;Node5 -->
<g id="edge4_Node000003_Node000005" class="edge">
<title>Node3&#45;&gt;Node5</title>
<g id="a_edge4_Node000003_Node000005"><a xlink:title=" ">
<path fill="none" stroke="#63b8ff" d="M888.02,-327.93C965,-314.37 1089.85,-291.59 1110,-283 1156.96,-262.98 1167.2,-252.38 1204,-217 1225.87,-195.98 1246.14,-166.66 1256.92,-149.98"/>
<polygon fill="#63b8ff" stroke="#63b8ff" points="1259.7,-145.62 1258.9,-151.05 1258.35,-147.73 1257,-149.84 1257,-149.84 1257,-149.84 1258.35,-147.73 1255.11,-148.63 1259.7,-145.62 1259.7,-145.62"/>
</a>
</g>
</g>
<!-- Node3&#45;&gt;Node6 -->
<g id="edge5_Node000003_Node000006" class="edge">
<title>Node3&#45;&gt;Node6</title>
<g id="a_edge5_Node000003_Node000006"><a xlink:title=" ">
<path fill="none" stroke="#63b8ff" d="M817.41,-318.98C804.03,-288.76 783.87,-229.69 807,-187 838.14,-129.54 911.43,-96.05 953.62,-80.88"/>
<polygon fill="#63b8ff" stroke="#63b8ff" points="958.35,-79.21 954.39,-82.99 956,-80.04 953.64,-80.87 953.64,-80.87 953.64,-80.87 956,-80.04 952.89,-78.75 958.35,-79.21 958.35,-79.21"/>
</a>
</g>
</g>
<!-- Node7 -->
<g id="Node000007" class="node">
<title>Node7</title>
<g id="a_Node000007"><a xlink:title=" ">
<polygon fill="#e0e0e0" stroke="#999999" points="716.5,-145.5 661.5,-145.5 661.5,-126.5 716.5,-126.5 716.5,-145.5"/>
<text text-anchor="middle" x="689" y="-133.5" font-family="Helvetica,sans-Serif" font-size="10.00">QVector</text>
</a>
</g>
</g>
<!-- Node3&#45;&gt;Node7 -->
<g id="edge6_Node000003_Node000007" class="edge">
<title>Node3&#45;&gt;Node7</title>
<g id="a_edge6_Node000003_Node000007"><a xlink:title=" ">
<path fill="none" stroke="#63b8ff" d="M811.16,-318.79C792.43,-295.16 760.67,-254.08 736,-217 720.8,-194.15 705.01,-166.28 696.15,-150.19"/>
<polygon fill="#63b8ff" stroke="#63b8ff" points="693.64,-145.6 698.01,-148.9 694.84,-147.79 696.04,-149.98 696.04,-149.98 696.04,-149.98 694.84,-147.79 694.07,-151.06 693.64,-145.6 693.64,-145.6"/>
</a>
</g>
</g>
<!-- Node8&#45;&gt;Node4 -->
<g id="edge23_Node000008_Node000004" class="edge">
<title>Node8&#45;&gt;Node4</title>
<g id="a_edge23_Node000008_Node000004"><a xlink:title=" ">
<path fill="none" stroke="#63b8ff" d="M967.46,-324.44C901.79,-309.9 801.84,-287.78 750.31,-276.37"/>
<polygon fill="#63b8ff" stroke="#63b8ff" points="745.17,-275.24 750.54,-274.12 747.61,-275.78 750.05,-276.32 750.05,-276.32 750.05,-276.32 747.61,-275.78 749.57,-278.51 745.17,-275.24 745.17,-275.24"/>
</a>
</g>
</g>
<!-- Node8&#45;&gt;Node5 -->
<g id="edge25_Node000008_Node000005" class="edge">
<title>Node8&#45;&gt;Node5</title>
<g id="a_edge25_Node000008_Node000005"><a xlink:title=" ">
<path fill="none" stroke="#63b8ff" d="M1107.03,-327.27C1159.47,-317.93 1222.87,-302.95 1241,-283 1275.01,-245.57 1270.91,-179.36 1267.19,-150.78"/>
<polygon fill="#63b8ff" stroke="#63b8ff" points="1266.47,-145.58 1269.39,-150.22 1266.81,-148.06 1267.16,-150.53 1267.16,-150.53 1267.16,-150.53 1266.81,-148.06 1264.93,-150.84 1266.47,-145.58 1266.47,-145.58"/>
</a>
</g>
</g>
<!-- Node8&#45;&gt;Node6 -->
<g id="edge26_Node000008_Node000006" class="edge">
<title>Node8&#45;&gt;Node6</title>
<g id="a_edge26_Node000008_Node000006"><a xlink:title=" ">
<path fill="none" stroke="#63b8ff" d="M1107.24,-332.87C1226.85,-323.47 1448.14,-303.58 1478,-283 1515.4,-257.23 1533.84,-227.35 1513,-187 1489.74,-141.97 1467.33,-139.13 1420,-121 1345.96,-92.64 1103.77,-77.3 1016.61,-72.59"/>
<polygon fill="#63b8ff" stroke="#63b8ff" points="1011.59,-72.32 1016.7,-70.34 1014.08,-72.46 1016.58,-72.59 1016.58,-72.59 1016.58,-72.59 1014.08,-72.46 1016.46,-74.84 1011.59,-72.32 1011.59,-72.32"/>
</a>
</g>
</g>
<!-- Node8&#45;&gt;Node7 -->
<g id="edge27_Node000008_Node000007" class="edge">
<title>Node8&#45;&gt;Node7</title>
<g id="a_edge27_Node000008_Node000007"><a xlink:title=" ">
<path fill="none" stroke="#63b8ff" d="M1003.73,-324.28C982.48,-313.15 952.29,-297.24 926,-283 872.82,-254.2 858.53,-248.67 807,-217 769.64,-194.04 727.47,-164.54 705.04,-148.55"/>
<polygon fill="#63b8ff" stroke="#63b8ff" points="700.83,-145.54 706.2,-146.61 702.86,-146.99 704.9,-148.44 704.9,-148.44 704.9,-148.44 702.86,-146.99 703.59,-150.28 700.83,-145.54 700.83,-145.54"/>
</a>
</g>
</g>
<!-- Node9 -->
<g id="Node000009" class="node">
<title>Node9</title>
<g id="a_Node000009"><a xlink:href="../../d9/da8/edhrec__api__response__card__list_8h.html" target="_top" xlink:title="TODO: Document this.">
<polygon fill="white" stroke="#666666" points="1101.5,-283 982.5,-283 982.5,-253 1101.5,-253 1101.5,-283"/>
<text text-anchor="start" x="990.5" y="-271" font-family="Helvetica,sans-Serif" font-size="10.00">edhrec_api_response</text>
<text text-anchor="middle" x="1042" y="-260" font-family="Helvetica,sans-Serif" font-size="10.00">_card_list.h</text>
</a>
</g>
</g>
<!-- Node8&#45;&gt;Node9 -->
<g id="edge8_Node000008_Node000009" class="edge">
<title>Node8&#45;&gt;Node9</title>
<g id="a_edge8_Node000008_Node000009"><a xlink:title=" ">
<path fill="none" stroke="#63b8ff" d="M1033.23,-324.44C1034.88,-313.98 1037.16,-299.59 1038.98,-288.1"/>
<polygon fill="#63b8ff" stroke="#63b8ff" points="1039.78,-283.04 1041.22,-288.33 1039.39,-285.51 1039,-287.98 1039,-287.98 1039,-287.98 1039.39,-285.51 1036.77,-287.63 1039.78,-283.04 1039.78,-283.04"/>
</a>
</g>
</g>
<!-- Node8&#45;&gt;Node11 -->
<g id="edge24_Node000008_Node000011" class="edge">
<title>Node8&#45;&gt;Node11</title>
<g id="a_edge24_Node000008_Node000011"><a xlink:title=" ">
<path fill="none" stroke="#63b8ff" d="M1015.44,-324.2C996.05,-306.65 961.6,-276.34 930,-253 910.61,-238.67 887.18,-223.98 871.09,-214.26"/>
<polygon fill="#63b8ff" stroke="#63b8ff" points="866.76,-211.66 872.2,-212.31 868.9,-212.95 871.05,-214.23 871.05,-214.23 871.05,-214.23 868.9,-212.95 869.89,-216.16 866.76,-211.66 866.76,-211.66"/>
</a>
</g>
</g>
<!-- Node13 -->
<g id="Node000013" class="node">
<title>Node13</title>
<g id="a_Node000013"><a xlink:href="../../dc/deb/edhrec__commander__api__response__commander__details_8h.html" target="_top" xlink:title="TODO: Document this.">
<polygon fill="white" stroke="#666666" points="1469.5,-283 1292.5,-283 1292.5,-253 1469.5,-253 1469.5,-283"/>
<text text-anchor="start" x="1300.5" y="-271" font-family="Helvetica,sans-Serif" font-size="10.00">edhrec_commander_api</text>
<text text-anchor="middle" x="1381" y="-260" font-family="Helvetica,sans-Serif" font-size="10.00">_response_commander_details.h</text>
</a>
</g>
</g>
<!-- Node8&#45;&gt;Node13 -->
<g id="edge16_Node000008_Node000013" class="edge">
<title>Node8&#45;&gt;Node13</title>
<g id="a_edge16_Node000008_Node000013"><a xlink:title=" ">
<path fill="none" stroke="#63b8ff" d="M1101.83,-324.44C1160.89,-312.71 1244.84,-296.04 1305.24,-284.04"/>
<polygon fill="#63b8ff" stroke="#63b8ff" points="1310.28,-283.04 1305.81,-286.22 1307.83,-283.53 1305.37,-284.02 1305.37,-284.02 1305.37,-284.02 1307.83,-283.53 1304.94,-281.81 1310.28,-283.04 1310.28,-283.04"/>
</a>
</g>
</g>
<!-- Node9&#45;&gt;Node5 -->
<g id="edge13_Node000009_Node000005" class="edge">
<title>Node9&#45;&gt;Node5</title>
<g id="a_edge13_Node000009_Node000005"><a xlink:title=" ">
<path fill="none" stroke="#63b8ff" d="M1087.71,-252.98C1112.64,-244.37 1143.52,-232.1 1169,-217 1202.32,-197.26 1235.85,-166.15 1253.09,-149.13"/>
<polygon fill="#63b8ff" stroke="#63b8ff" points="1256.72,-145.52 1254.76,-150.64 1254.95,-147.28 1253.18,-149.05 1253.18,-149.05 1253.18,-149.05 1254.95,-147.28 1251.59,-147.45 1256.72,-145.52 1256.72,-145.52"/>
</a>
</g>
</g>
<!-- Node9&#45;&gt;Node6 -->
<g id="edge15_Node000009_Node000006" class="edge">
<title>Node9&#45;&gt;Node6</title>
<g id="a_edge15_Node000009_Node000006"><a xlink:title=" ">
<path fill="none" stroke="#63b8ff" d="M1010.74,-252.84C996.47,-244.59 981,-232.68 973,-217 950.46,-172.83 969.22,-111.24 979.44,-84.39"/>
<polygon fill="#63b8ff" stroke="#63b8ff" points="981.36,-79.5 981.63,-84.98 980.44,-81.83 979.53,-84.16 979.53,-84.16 979.53,-84.16 980.44,-81.83 977.44,-83.34 981.36,-79.5 981.36,-79.5"/>
</a>
</g>
</g>
<!-- Node10 -->
<g id="Node000010" class="node">
<title>Node10</title>
<g id="a_Node000010"><a xlink:href="../../d6/de1/edhrec__api__response__card__details_8h.html" target="_top" xlink:title="TODO: Document this.">
<polygon fill="white" stroke="#666666" points="1101.5,-217 982.5,-217 982.5,-187 1101.5,-187 1101.5,-217"/>
<text text-anchor="start" x="990.5" y="-205" font-family="Helvetica,sans-Serif" font-size="10.00">edhrec_api_response</text>
<text text-anchor="middle" x="1042" y="-194" font-family="Helvetica,sans-Serif" font-size="10.00">_card_details.h</text>
</a>
</g>
</g>
<!-- Node9&#45;&gt;Node10 -->
<g id="edge9_Node000009_Node000010" class="edge">
<title>Node9&#45;&gt;Node10</title>
<g id="a_edge9_Node000009_Node000010"><a xlink:title=" ">
<path fill="none" stroke="#63b8ff" d="M1042,-252.8C1042,-243.85 1042,-232.18 1042,-222.38"/>
<polygon fill="#63b8ff" stroke="#63b8ff" points="1042,-217.16 1044.25,-222.16 1042,-219.66 1042,-222.16 1042,-222.16 1042,-222.16 1042,-219.66 1039.75,-222.16 1042,-217.16 1042,-217.16"/>
</a>
</g>
</g>
<!-- Node9&#45;&gt;Node11 -->
<g id="edge12_Node000009_Node000011" class="edge">
<title>Node9&#45;&gt;Node11</title>
<g id="a_edge12_Node000009_Node000011"><a xlink:title=" ">
<path fill="none" stroke="#63b8ff" d="M1000.3,-252.95C964.63,-240.94 914.14,-223.93 882.24,-213.19"/>
<polygon fill="#63b8ff" stroke="#63b8ff" points="877.29,-211.52 882.74,-210.98 879.65,-212.32 882.02,-213.11 882.02,-213.11 882.02,-213.11 879.65,-212.32 881.31,-215.25 877.29,-211.52 877.29,-211.52"/>
</a>
</g>
</g>
<!-- Node12 -->
<g id="Node000012" class="node">
<title>Node12</title>
<g id="a_Node000012"><a xlink:title=" ">
<polygon fill="#e0e0e0" stroke="#999999" points="1160.5,-211.5 1119.5,-211.5 1119.5,-192.5 1160.5,-192.5 1160.5,-211.5"/>
<text text-anchor="middle" x="1140" y="-199.5" font-family="Helvetica,sans-Serif" font-size="10.00">QList</text>
</a>
</g>
</g>
<!-- Node9&#45;&gt;Node12 -->
<g id="edge14_Node000009_Node000012" class="edge">
<title>Node9&#45;&gt;Node12</title>
<g id="a_edge14_Node000009_Node000012"><a xlink:title=" ">
<path fill="none" stroke="#63b8ff" d="M1063.75,-252.8C1081.38,-241.28 1105.9,-225.27 1122.33,-214.54"/>
<polygon fill="#63b8ff" stroke="#63b8ff" points="1126.74,-211.66 1123.79,-216.28 1124.65,-213.03 1122.56,-214.39 1122.56,-214.39 1122.56,-214.39 1124.65,-213.03 1121.33,-212.51 1126.74,-211.66 1126.74,-211.66"/>
</a>
</g>
</g>
<!-- Node10&#45;&gt;Node5 -->
<g id="edge10_Node000010_Node000005" class="edge">
<title>Node10&#45;&gt;Node5</title>
<g id="a_edge10_Node000010_Node000005"><a xlink:title=" ">
<path fill="none" stroke="#63b8ff" d="M1090.94,-186.95C1133.15,-174.84 1193.04,-157.65 1230.43,-146.92"/>
<polygon fill="#63b8ff" stroke="#63b8ff" points="1235.32,-145.52 1231.14,-149.06 1232.92,-146.21 1230.52,-146.9 1230.52,-146.9 1230.52,-146.9 1232.92,-146.21 1229.9,-144.73 1235.32,-145.52 1235.32,-145.52"/>
</a>
</g>
</g>
<!-- Node10&#45;&gt;Node6 -->
<g id="edge11_Node000010_Node000006" class="edge">
<title>Node10&#45;&gt;Node6</title>
<g id="a_edge11_Node000010_Node000006"><a xlink:title=" ">
<path fill="none" stroke="#63b8ff" d="M1035.79,-186.84C1024.75,-161.65 1001.83,-109.38 990.96,-84.6"/>
<polygon fill="#63b8ff" stroke="#63b8ff" points="988.84,-79.75 992.9,-83.42 989.84,-82.04 990.84,-84.33 990.84,-84.33 990.84,-84.33 989.84,-82.04 988.78,-85.23 988.84,-79.75 988.84,-79.75"/>
</a>
</g>
</g>
<!-- Node13&#45;&gt;Node5 -->
<g id="edge20_Node000013_Node000005" class="edge">
<title>Node13&#45;&gt;Node5</title>
<g id="a_edge20_Node000013_Node000005"><a xlink:title=" ">
<path fill="none" stroke="#63b8ff" d="M1362.14,-252.99C1350,-243.52 1334.27,-230.34 1322,-217 1302.17,-195.43 1283.28,-166.77 1273,-150.26"/>
<polygon fill="#63b8ff" stroke="#63b8ff" points="1270.34,-145.94 1274.88,-149.01 1271.65,-148.07 1272.96,-150.19 1272.96,-150.19 1272.96,-150.19 1271.65,-148.07 1271.05,-151.38 1270.34,-145.94 1270.34,-145.94"/>
</a>
</g>
</g>
<!-- Node13&#45;&gt;Node6 -->
<g id="edge21_Node000013_Node000006" class="edge">
<title>Node13&#45;&gt;Node6</title>
<g id="a_edge21_Node000013_Node000006"><a xlink:title=" ">
<path fill="none" stroke="#63b8ff" d="M1433.44,-252.96C1473.04,-239.62 1517.2,-217.13 1496,-187 1439.88,-107.25 1119.4,-79.72 1016.68,-72.88"/>
<polygon fill="#63b8ff" stroke="#63b8ff" points="1011.66,-72.55 1016.8,-70.63 1014.16,-72.71 1016.65,-72.88 1016.65,-72.88 1016.65,-72.88 1014.16,-72.71 1016.5,-75.12 1011.66,-72.55 1011.66,-72.55"/>
</a>
</g>
</g>
<!-- Node13&#45;&gt;Node7 -->
<g id="edge22_Node000013_Node000007" class="edge">
<title>Node13&#45;&gt;Node7</title>
<g id="a_edge22_Node000013_Node000007"><a xlink:title=" ">
<path fill="none" stroke="#63b8ff" d="M1292.29,-262.52C1208.85,-256.81 1080.96,-244.19 973,-217 937.38,-208.03 931.04,-198 896,-187 835.45,-167.99 763.03,-151.99 721.88,-143.51"/>
<polygon fill="#63b8ff" stroke="#63b8ff" points="716.78,-142.47 722.13,-141.27 719.23,-142.97 721.68,-143.47 721.68,-143.47 721.68,-143.47 719.23,-142.97 721.23,-145.68 716.78,-142.47 716.78,-142.47"/>
</a>
</g>
</g>
<!-- Node13&#45;&gt;Node11 -->
<g id="edge19_Node000013_Node000011" class="edge">
<title>Node13&#45;&gt;Node11</title>
<g id="a_edge19_Node000013_Node000011"><a xlink:title=" ">
<path fill="none" stroke="#63b8ff" d="M1292.06,-262.22C1195.39,-255.99 1036.69,-242.7 902,-217 896.19,-215.89 890.07,-214.43 884.19,-212.87"/>
<polygon fill="#63b8ff" stroke="#63b8ff" points="879.31,-211.55 884.73,-210.69 881.72,-212.2 884.13,-212.86 884.13,-212.86 884.13,-212.86 881.72,-212.2 883.54,-215.03 879.31,-211.55 879.31,-211.55"/>
</a>
</g>
</g>
<!-- Node14 -->
<g id="Node000014" class="node">
<title>Node14</title>
<g id="a_Node000014"><a xlink:href="../../de/d02/edhrec__api__response__card__prices_8h.html" target="_top" xlink:title="TODO: Document this.">
<polygon fill="white" stroke="#666666" points="1487,-217 1331,-217 1331,-187 1487,-187 1487,-217"/>
<text text-anchor="start" x="1339" y="-205" font-family="Helvetica,sans-Serif" font-size="10.00">../card_prices/edhrec</text>
<text text-anchor="middle" x="1409" y="-194" font-family="Helvetica,sans-Serif" font-size="10.00">_api_response_card_prices.h</text>
</a>
</g>
</g>
<!-- Node13&#45;&gt;Node14 -->
<g id="edge17_Node000013_Node000014" class="edge">
<title>Node13&#45;&gt;Node14</title>
<g id="a_edge17_Node000013_Node000014"><a xlink:title=" ">
<path fill="none" stroke="#63b8ff" d="M1387.21,-252.8C1391.2,-243.68 1396.42,-231.74 1400.76,-221.84"/>
<polygon fill="#63b8ff" stroke="#63b8ff" points="1402.8,-217.16 1402.86,-222.65 1401.8,-219.45 1400.8,-221.74 1400.8,-221.74 1400.8,-221.74 1401.8,-219.45 1398.74,-220.84 1402.8,-217.16 1402.8,-217.16"/>
</a>
</g>
</g>
<!-- Node14&#45;&gt;Node5 -->
<g id="edge18_Node000014_Node000005" class="edge">
<title>Node14&#45;&gt;Node5</title>
<g id="a_edge18_Node000014_Node000005"><a xlink:title=" ">
<path fill="none" stroke="#63b8ff" d="M1377.4,-186.95C1350.7,-175.09 1313.04,-158.35 1288.82,-147.59"/>
<polygon fill="#63b8ff" stroke="#63b8ff" points="1284.16,-145.52 1289.65,-145.49 1286.45,-146.53 1288.73,-147.55 1288.73,-147.55 1288.73,-147.55 1286.45,-146.53 1287.82,-149.6 1284.16,-145.52 1284.16,-145.52"/>
</a>
</g>
</g>
<!-- Node15&#45;&gt;Node5 -->
<g id="edge29_Node000015_Node000005" class="edge">
<title>Node15&#45;&gt;Node5</title>
<g id="a_edge29_Node000015_Node000005"><a xlink:title=" ">
<path fill="none" stroke="#63b8ff" d="M1427.46,-318.93C1446.04,-310.51 1464.82,-298.85 1478,-283 1505.76,-249.62 1523.26,-220.79 1496,-187 1472.93,-158.4 1369.08,-145.35 1308.77,-140.08"/>
<polygon fill="#63b8ff" stroke="#63b8ff" points="1303.43,-139.63 1308.6,-137.81 1305.92,-139.84 1308.41,-140.05 1308.41,-140.05 1308.41,-140.05 1305.92,-139.84 1308.22,-142.29 1303.43,-139.63 1303.43,-139.63"/>
</a>
</g>
</g>
<!-- Node16&#45;&gt;Node4 -->
<g id="edge47_Node000016_Node000004" class="edge">
<title>Node16&#45;&gt;Node4</title>
<g id="a_edge47_Node000016_Node000004"><a xlink:title=" ">
<path fill="none" stroke="#63b8ff" d="M608.2,-329.98C630.61,-317.42 672.5,-293.94 697.26,-280.07"/>
<polygon fill="#63b8ff" stroke="#63b8ff" points="701.67,-277.59 698.41,-282 699.49,-278.81 697.31,-280.04 697.31,-280.04 697.31,-280.04 699.49,-278.81 696.21,-278.07 701.67,-277.59 701.67,-277.59"/>
</a>
</g>
</g>
<!-- Node16&#45;&gt;Node5 -->
<g id="edge49_Node000016_Node000005" class="edge">
<title>Node16&#45;&gt;Node5</title>
<g id="a_edge49_Node000016_Node000005"><a xlink:title=" ">
<path fill="none" stroke="#63b8ff" d="M595.4,-329.97C600.59,-313 614.41,-274.82 639,-253 699.01,-199.76 729.11,-206.19 807,-187 956.14,-150.26 1139.25,-140.5 1221.44,-137.92"/>
<polygon fill="#63b8ff" stroke="#63b8ff" points="1226.71,-137.76 1221.78,-140.16 1224.21,-137.84 1221.71,-137.92 1221.71,-137.92 1221.71,-137.92 1224.21,-137.84 1221.64,-135.67 1226.71,-137.76 1226.71,-137.76"/>
</a>
</g>
</g>
<!-- Node16&#45;&gt;Node6 -->
<g id="edge50_Node000016_Node000006" class="edge">
<title>Node16&#45;&gt;Node6</title>
<g id="a_edge50_Node000016_Node000006"><a xlink:title=" ">
<path fill="none" stroke="#63b8ff" d="M514.41,-331.29C345.65,-313.04 -26.07,-256.53 102,-121 131.8,-89.46 797.56,-74.63 952.83,-71.6"/>
<polygon fill="#63b8ff" stroke="#63b8ff" points="958.14,-71.49 953.18,-73.84 955.64,-71.54 953.14,-71.59 953.14,-71.59 953.14,-71.59 955.64,-71.54 953.1,-69.34 958.14,-71.49 958.14,-71.49"/>
</a>
</g>
</g>
<!-- Node16&#45;&gt;Node7 -->
<g id="edge51_Node000016_Node000007" class="edge">
<title>Node16&#45;&gt;Node7</title>
<g id="a_edge51_Node000016_Node000007"><a xlink:title=" ">
<path fill="none" stroke="#63b8ff" d="M593.43,-329.91C594.47,-314.12 597.92,-279.63 609,-253 626.29,-211.46 660.03,-169.74 677.66,-149.53"/>
<polygon fill="#63b8ff" stroke="#63b8ff" points="681.16,-145.55 679.54,-150.79 679.51,-147.43 677.86,-149.31 677.86,-149.31 677.86,-149.31 679.51,-147.43 676.17,-147.82 681.16,-145.55 681.16,-145.55"/>
</a>
</g>
</g>
<!-- Node16&#45;&gt;Node11 -->
<g id="edge48_Node000016_Node000011" class="edge">
<title>Node16&#45;&gt;Node11</title>
<g id="a_edge48_Node000016_Node000011"><a xlink:title=" ">
<path fill="none" stroke="#63b8ff" d="M599.4,-329.8C612.54,-312.55 644.37,-273.87 680,-253 721.18,-228.88 774.79,-215.71 811.14,-209.03"/>
<polygon fill="#63b8ff" stroke="#63b8ff" points="816.37,-208.09 811.85,-211.19 813.91,-208.53 811.45,-208.98 811.45,-208.98 811.45,-208.98 813.91,-208.53 811.05,-206.76 816.37,-208.09 816.37,-208.09"/>
</a>
</g>
</g>
<!-- Node17 -->
<g id="Node000017" class="node">
<title>Node17</title>
<g id="a_Node000017"><a xlink:href="../../da/d36/deck__loader_8h.html" target="_top" xlink:title="TODO: Document this.">
<polygon fill="white" stroke="#666666" points="547.5,-283 424.5,-283 424.5,-253 547.5,-253 547.5,-283"/>
<text text-anchor="start" x="432.5" y="-271" font-family="Helvetica,sans-Serif" font-size="10.00">../../../../../../deck</text>
<text text-anchor="middle" x="486" y="-260" font-family="Helvetica,sans-Serif" font-size="10.00">_loader/deck_loader.h</text>
</a>
</g>
</g>
<!-- Node16&#45;&gt;Node17 -->
<g id="edge31_Node000016_Node000017" class="edge">
<title>Node16&#45;&gt;Node17</title>
<g id="a_edge31_Node000016_Node000017"><a xlink:title=" ">
<path fill="none" stroke="#63b8ff" d="M579.88,-329.98C563.1,-319.08 533.66,-299.96 512.21,-286.03"/>
<polygon fill="#63b8ff" stroke="#63b8ff" points="507.77,-283.14 513.18,-283.97 509.86,-284.5 511.96,-285.86 511.96,-285.86 511.96,-285.86 509.86,-284.5 510.73,-287.75 507.77,-283.14 507.77,-283.14"/>
</a>
</g>
</g>
<!-- Node18 -->
<g id="Node000018" class="node">
<title>Node18</title>
<g id="a_Node000018"><a xlink:title=" ">
<polygon fill="#e0e0e0" stroke="#999999" points="439.5,-211.5 332.5,-211.5 332.5,-192.5 439.5,-192.5 439.5,-211.5"/>
<text text-anchor="middle" x="386" y="-199.5" font-family="Helvetica,sans-Serif" font-size="10.00">QLoggingCategory</text>
</a>
</g>
</g>
<!-- Node17&#45;&gt;Node18 -->
<g id="edge32_Node000017_Node000018" class="edge">
<title>Node17&#45;&gt;Node18</title>
<g id="a_edge32_Node000017_Node000018"><a xlink:title=" ">
<path fill="none" stroke="#63b8ff" d="M463.81,-252.8C445.82,-241.28 420.79,-225.27 404.03,-214.54"/>
<polygon fill="#63b8ff" stroke="#63b8ff" points="399.53,-211.66 404.95,-212.46 401.63,-213.01 403.74,-214.35 403.74,-214.35 403.74,-214.35 401.63,-213.01 402.53,-216.25 399.53,-211.66 399.53,-211.66"/>
</a>
</g>
</g>
<!-- Node19 -->
<g id="Node000019" class="node">
<title>Node19</title>
<g id="a_Node000019"><a xlink:title=" ">
<polygon fill="#e0e0e0" stroke="#999999" points="514,-211.5 458,-211.5 458,-192.5 514,-192.5 514,-211.5"/>
<text text-anchor="middle" x="486" y="-199.5" font-family="Helvetica,sans-Serif" font-size="10.00">QPrinter</text>
</a>
</g>
</g>
<!-- Node17&#45;&gt;Node19 -->
<g id="edge33_Node000017_Node000019" class="edge">
<title>Node17&#45;&gt;Node19</title>
<g id="a_edge33_Node000017_Node000019"><a xlink:title=" ">
<path fill="none" stroke="#63b8ff" d="M486,-252.8C486,-242.13 486,-227.61 486,-217"/>
<polygon fill="#63b8ff" stroke="#63b8ff" points="486,-211.84 488.25,-216.84 486,-214.34 486,-216.84 486,-216.84 486,-216.84 486,-214.34 483.75,-216.84 486,-211.84 486,-211.84"/>
</a>
</g>
</g>
<!-- Node20 -->
<g id="Node000020" class="node">
<title>Node20</title>
<g id="a_Node000020"><a xlink:title=" ">
<polygon fill="#e0e0e0" stroke="#999999" points="608,-211.5 532,-211.5 532,-192.5 608,-192.5 608,-211.5"/>
<text text-anchor="middle" x="570" y="-199.5" font-family="Helvetica,sans-Serif" font-size="10.00">QTextCursor</text>
</a>
</g>
</g>
<!-- Node17&#45;&gt;Node20 -->
<g id="edge34_Node000017_Node000020" class="edge">
<title>Node17&#45;&gt;Node20</title>
<g id="a_edge34_Node000017_Node000020"><a xlink:title=" ">
<path fill="none" stroke="#63b8ff" d="M504.64,-252.8C519.54,-241.45 540.17,-225.72 554.25,-215"/>
<polygon fill="#63b8ff" stroke="#63b8ff" points="558.39,-211.84 555.78,-216.66 556.4,-213.36 554.41,-214.87 554.41,-214.87 554.41,-214.87 556.4,-213.36 553.05,-213.08 558.39,-211.84 558.39,-211.84"/>
</a>
</g>
</g>
<!-- Node21 -->
<g id="Node000021" class="node">
<title>Node21</title>
<g id="a_Node000021"><a xlink:href="../../d7/d1a/deck__list_8h.html" target="_top" xlink:title=" ">
<polygon fill="white" stroke="#666666" points="314,-217 210,-217 210,-187 314,-187 314,-217"/>
<text text-anchor="start" x="218" y="-205" font-family="Helvetica,sans-Serif" font-size="10.00">libcockatrice/deck</text>
<text text-anchor="middle" x="262" y="-194" font-family="Helvetica,sans-Serif" font-size="10.00">_list/deck_list.h</text>
</a>
</g>
</g>
<!-- Node17&#45;&gt;Node21 -->
<g id="edge35_Node000017_Node000021" class="edge">
<title>Node17&#45;&gt;Node21</title>
<g id="a_edge35_Node000017_Node000021"><a xlink:title=" ">
<path fill="none" stroke="#63b8ff" d="M436.84,-252.95C401.1,-242.74 352.73,-228.92 315.93,-218.41"/>
<polygon fill="#63b8ff" stroke="#63b8ff" points="311.04,-217.01 316.47,-216.22 313.45,-217.7 315.85,-218.39 315.85,-218.39 315.85,-218.39 313.45,-217.7 315.23,-220.55 311.04,-217.01 311.04,-217.01"/>
</a>
</g>
</g>
<!-- Node21&#45;&gt;Node7 -->
<g id="edge41_Node000021_Node000007" class="edge">
<title>Node21&#45;&gt;Node7</title>
<g id="a_edge41_Node000021_Node000007"><a xlink:title=" ">
<path fill="none" stroke="#63b8ff" d="M314.16,-188.61C317.15,-188.03 320.11,-187.49 323,-187 468.04,-162.51 508.96,-185.3 652,-151 655.94,-150.05 660.04,-148.8 664,-147.43"/>
<polygon fill="#63b8ff" stroke="#63b8ff" points="668.93,-145.65 665,-149.46 666.58,-146.5 664.23,-147.35 664.23,-147.35 664.23,-147.35 666.58,-146.5 663.47,-145.23 668.93,-145.65 668.93,-145.65"/>
</a>
</g>
</g>
<!-- Node22 -->
<g id="Node000022" class="node">
<title>Node22</title>
<g id="a_Node000022"><a xlink:href="../../d9/d65/inner__deck__list__node_8h.html" target="_top" xlink:title="Defines the InnerDecklistNode class, which represents structural nodes (zones and groups) in the deck...">
<polygon fill="white" stroke="#666666" points="239,-145.5 111,-145.5 111,-126.5 239,-126.5 239,-145.5"/>
<text text-anchor="middle" x="175" y="-133.5" font-family="Helvetica,sans-Serif" font-size="10.00">inner_deck_list_node.h</text>
</a>
</g>
</g>
<!-- Node21&#45;&gt;Node22 -->
<g id="edge36_Node000021_Node000022" class="edge">
<title>Node21&#45;&gt;Node22</title>
<g id="a_edge36_Node000021_Node000022"><a xlink:title=" ">
<path fill="none" stroke="#63b8ff" d="M242.69,-186.8C227.18,-175.38 205.64,-159.54 191.06,-148.81"/>
<polygon fill="#63b8ff" stroke="#63b8ff" points="186.77,-145.66 192.13,-146.81 188.78,-147.14 190.8,-148.62 190.8,-148.62 190.8,-148.62 188.78,-147.14 189.46,-150.43 186.77,-145.66 186.77,-145.66"/>
</a>
</g>
</g>
<!-- Node24 -->
<g id="Node000024" class="node">
<title>Node24</title>
<g id="a_Node000024"><a xlink:title=" ">
<polygon fill="#e0e0e0" stroke="#999999" points="328,-19 178,-19 178,0 328,0 328,-19"/>
<text text-anchor="middle" x="253" y="-7" font-family="Helvetica,sans-Serif" font-size="10.00">QtCore/QXmlStreamReader</text>
</a>
</g>
</g>
<!-- Node21&#45;&gt;Node24 -->
<g id="edge42_Node000021_Node000024" class="edge">
<title>Node21&#45;&gt;Node24</title>
<g id="a_edge42_Node000021_Node000024"><a xlink:title=" ">
<path fill="none" stroke="#63b8ff" d="M261.34,-186.99C259.67,-151.76 255.33,-59.75 253.66,-24.51"/>
<polygon fill="#63b8ff" stroke="#63b8ff" points="253.42,-19.36 255.9,-24.25 253.54,-21.86 253.65,-24.36 253.65,-24.36 253.65,-24.36 253.54,-21.86 251.41,-24.46 253.42,-19.36 253.42,-19.36"/>
</a>
</g>
</g>
<!-- Node25 -->
<g id="Node000025" class="node">
<title>Node25</title>
<g id="a_Node000025"><a xlink:title=" ">
<polygon fill="#e0e0e0" stroke="#999999" points="146,-19 0,-19 0,0 146,0 146,-19"/>
<text text-anchor="middle" x="73" y="-7" font-family="Helvetica,sans-Serif" font-size="10.00">QtCore/QXmlStreamWriter</text>
</a>
</g>
</g>
<!-- Node21&#45;&gt;Node25 -->
<g id="edge43_Node000021_Node000025" class="edge">
<title>Node21&#45;&gt;Node25</title>
<g id="a_edge43_Node000021_Node000025"><a xlink:title=" ">
<path fill="none" stroke="#63b8ff" d="M209.68,-198.06C174.31,-193.24 129.25,-181.1 102,-151 69.25,-114.82 69.64,-51.72 71.63,-24.1"/>
<polygon fill="#63b8ff" stroke="#63b8ff" points="72.04,-19.07 73.88,-24.23 71.84,-21.56 71.64,-24.05 71.64,-24.05 71.64,-24.05 71.84,-21.56 69.39,-23.87 72.04,-19.07 72.04,-19.07"/>
</a>
</g>
</g>
<!-- Node26 -->
<g id="Node000026" class="node">
<title>Node26</title>
<g id="a_Node000026"><a xlink:title=" ">
<polygon fill="#e0e0e0" stroke="#999999" points="340.5,-145.5 295.5,-145.5 295.5,-126.5 340.5,-126.5 340.5,-145.5"/>
<text text-anchor="middle" x="318" y="-133.5" font-family="Helvetica,sans-Serif" font-size="10.00">QMap</text>
</a>
</g>
</g>
<!-- Node21&#45;&gt;Node26 -->
<g id="edge40_Node000021_Node000026" class="edge">
<title>Node21&#45;&gt;Node26</title>
<g id="a_edge40_Node000021_Node000026"><a xlink:title=" ">
<path fill="none" stroke="#63b8ff" d="M274.43,-186.8C284.1,-175.74 297.41,-160.54 306.76,-149.84"/>
<polygon fill="#63b8ff" stroke="#63b8ff" points="310.26,-145.84 308.66,-151.09 308.61,-147.73 306.97,-149.61 306.97,-149.61 306.97,-149.61 308.61,-147.73 305.28,-148.13 310.26,-145.84 310.26,-145.84"/>
</a>
</g>
</g>
<!-- Node27 -->
<g id="Node000027" class="node">
<title>Node27</title>
<g id="a_Node000027"><a xlink:title=" ">
<polygon fill="#e0e0e0" stroke="#999999" points="515,-151 359,-151 359,-121 515,-121 515,-151"/>
<text text-anchor="start" x="367" y="-139" font-family="Helvetica,sans-Serif" font-size="10.00">libcockatrice/protocol</text>
<text text-anchor="middle" x="437" y="-128" font-family="Helvetica,sans-Serif" font-size="10.00">/pb/move_card_to_zone.pb.h</text>
</a>
</g>
</g>
<!-- Node21&#45;&gt;Node27 -->
<g id="edge44_Node000021_Node000027" class="edge">
<title>Node21&#45;&gt;Node27</title>
<g id="a_edge44_Node000021_Node000027"><a xlink:title=" ">
<path fill="none" stroke="#63b8ff" d="M300.4,-186.95C327.99,-176.87 365.19,-163.26 393.81,-152.8"/>
<polygon fill="#63b8ff" stroke="#63b8ff" points="398.69,-151.01 394.76,-154.84 396.34,-151.87 393.99,-152.73 393.99,-152.73 393.99,-152.73 396.34,-151.87 393.22,-150.62 398.69,-151.01 398.69,-151.01"/>
</a>
</g>
</g>
<!-- Node28 -->
<g id="Node000028" class="node">
<title>Node28</title>
<g id="a_Node000028"><a xlink:href="../../dc/d89/card__ref_8h.html" target="_top" xlink:title=" ">
<polygon fill="white" stroke="#666666" points="643,-151 533,-151 533,-121 643,-121 643,-151"/>
<text text-anchor="start" x="541" y="-139" font-family="Helvetica,sans-Serif" font-size="10.00">libcockatrice/utility</text>
<text text-anchor="middle" x="588" y="-128" font-family="Helvetica,sans-Serif" font-size="10.00">/card_ref.h</text>
</a>
</g>
</g>
<!-- Node21&#45;&gt;Node28 -->
<g id="edge45_Node000021_Node000028" class="edge">
<title>Node21&#45;&gt;Node28</title>
<g id="a_edge45_Node000021_Node000028"><a xlink:title=" ">
<path fill="none" stroke="#63b8ff" d="M314.21,-188.84C317.18,-188.21 320.13,-187.59 323,-187 411.92,-168.84 434.99,-168.7 524,-151 525.27,-150.75 526.55,-150.49 527.84,-150.23"/>
<polygon fill="#63b8ff" stroke="#63b8ff" points="532.87,-149.2 528.42,-152.41 530.42,-149.7 527.97,-150.2 527.97,-150.2 527.97,-150.2 530.42,-149.7 527.52,-148 532.87,-149.2 532.87,-149.2"/>
</a>
</g>
</g>
<!-- Node23 -->
<g id="Node000023" class="node">
<title>Node23</title>
<g id="a_Node000023"><a xlink:href="../../d8/d7d/abstract__deck__list__node_8h.html" target="_top" xlink:title="Defines the AbstractDecklistNode base class used as the foundation for all nodes in the deck list tre...">
<polygon fill="white" stroke="#666666" points="227.5,-85 122.5,-85 122.5,-55 227.5,-55 227.5,-85"/>
<text text-anchor="start" x="130.5" y="-73" font-family="Helvetica,sans-Serif" font-size="10.00">abstract_deck_list</text>
<text text-anchor="middle" x="175" y="-62" font-family="Helvetica,sans-Serif" font-size="10.00">_node.h</text>
</a>
</g>
</g>
<!-- Node22&#45;&gt;Node23 -->
<g id="edge37_Node000022_Node000023" class="edge">
<title>Node22&#45;&gt;Node23</title>
<g id="a_edge37_Node000022_Node000023"><a xlink:title=" ">
<path fill="none" stroke="#63b8ff" d="M175,-126.37C175,-117.26 175,-102.58 175,-90.63"/>
<polygon fill="#63b8ff" stroke="#63b8ff" points="175,-85.36 177.25,-90.36 175,-87.86 175,-90.36 175,-90.36 175,-90.36 175,-87.86 172.75,-90.36 175,-85.36 175,-85.36"/>
</a>
</g>
</g>
<!-- Node23&#45;&gt;Node24 -->
<g id="edge38_Node000023_Node000024" class="edge">
<title>Node23&#45;&gt;Node24</title>
<g id="a_edge38_Node000023_Node000024"><a xlink:title=" ">
<path fill="none" stroke="#63b8ff" d="M193.88,-54.84C207.17,-44.87 224.74,-31.69 237.27,-22.3"/>
<polygon fill="#63b8ff" stroke="#63b8ff" points="241.31,-19.27 238.66,-24.07 239.31,-20.77 237.31,-22.27 237.31,-22.27 237.31,-22.27 239.31,-20.77 235.96,-20.47 241.31,-19.27 241.31,-19.27"/>
</a>
</g>
</g>
<!-- Node23&#45;&gt;Node25 -->
<g id="edge39_Node000023_Node000025" class="edge">
<title>Node23&#45;&gt;Node25</title>
<g id="a_edge39_Node000023_Node000025"><a xlink:title=" ">
<path fill="none" stroke="#63b8ff" d="M150.57,-54.99C132.79,-44.79 109.04,-31.17 92.52,-21.69"/>
<polygon fill="#63b8ff" stroke="#63b8ff" points="88.06,-19.14 93.52,-19.68 90.23,-20.38 92.4,-21.63 92.4,-21.63 92.4,-21.63 90.23,-20.38 91.28,-23.58 88.06,-19.14 88.06,-19.14"/>
</a>
</g>
</g>
<!-- Node28&#45;&gt;Node6 -->
<g id="edge46_Node000028_Node000006" class="edge">
<title>Node28&#45;&gt;Node6</title>
<g id="a_edge46_Node000028_Node000006"><a xlink:title=" ">
<path fill="none" stroke="#63b8ff" d="M643.11,-122.7C646.11,-122.11 649.09,-121.54 652,-121 761.94,-100.74 893.44,-82.85 952.95,-75.09"/>
<polygon fill="#63b8ff" stroke="#63b8ff" points="958.14,-74.42 953.47,-77.29 955.66,-74.74 953.18,-75.06 953.18,-75.06 953.18,-75.06 955.66,-74.74 952.89,-72.83 958.14,-74.42 958.14,-74.42"/>
</a>
</g>
</g>
</g>
</svg>

<g id="navigator" transform="translate(0 0)" fill="#404254">
  <rect fill="#f2f5e9" fill-opacity="0.5" stroke="#606060" stroke-width=".5" x="0" y="0" width="60" height="60"/>
  <use id="zoomplus" xlink:href="#zoomPlus" x="17" y="9" onmousedown="handleZoom(evt,'in')"/>
  <use id="zoomminus" xlink:href="#zoomMin" x="42" y="9" onmousedown="handleZoom(evt,'out')"/>
  <use id="reset" xlink:href="#resetDef" x="30" y="36" onmousedown="handleReset()"/>
   <use id="arrowup" xlink:href="#arrowUp" x="0" y="0" onmousedown="handlePan(0,-1)"/>
  <use id="arrowright" xlink:href="#arrowRight" x="0" y="0" onmousedown="handlePan(1,0)"/>
  <use id="arrowdown" xlink:href="#arrowDown" x="0" y="0" onmousedown="handlePan(0,1)"/>
  <use id="arrowleft" xlink:href="#arrowLeft" x="0" y="0" onmousedown="handlePan(-1,0)"/>
</g>
<svg viewBox="0 0 15 15" width="100%" height="30px" preserveAspectRatio="xMaxYMin meet">
 <g id="arrow_out" transform="scale(0.3 0.3)">
  <a xlink:href="edhrec__average__deck__api__response_8cpp__incl_org.svg" target="_base">
   <rect id="button" ry="5" rx="5" y="6" x="6" height="38" width="38"
        fill="#f2f5e9" fill-opacity="0.5" stroke="#606060" stroke-width="1.0"/>
   <path id="arrow"
     d="M 11.500037,31.436501 C 11.940474,20.09759 22.043105,11.32322 32.158766,21.979434 L 37.068811,17.246167 C 37.068811,17.246167 37.088388,32 37.088388,32 L 22.160133,31.978069 C 22.160133,31.978069 26.997745,27.140456 26.997745,27.140456 C 18.528582,18.264221 13.291696,25.230495 11.500037,31.436501 z"
     style="fill:#404040;"/>
  </a>
 </g>
</svg>

<style type='text/css'>
<![CDATA[
[data-mouse-over-selected='false'] { opacity: 0.7; }
[data-mouse-over-selected='true']  { opacity: 1.0; }
]]>
</style>
<script type="application/ecmascript"><![CDATA[
document.addEventListener('DOMContentLoaded', (event) => {
  highlightEdges();
  highlightAdjacentNodes();
});
]]></script>
</svg>
