<?xml version="1.0" encoding="UTF-8" standalone="no"?>
<!DOCTYPE svg PUBLIC "-//W3C//DTD SVG 1.1//EN"
 "http://www.w3.org/Graphics/SVG/1.1/DTD/svg11.dtd">
<!-- Generated by graphviz version 2.43.0 (0)
 -->
<!-- Title: peg::ErrorInfo::heuristic_error_token Pages: 1 -->
<svg width="788pt" height="193pt"
 viewBox="0.00 0.00 788.00 193.00" xmlns="http://www.w3.org/2000/svg" xmlns:xlink="http://www.w3.org/1999/xlink">
<g id="graph0" class="graph" transform="scale(1 1) rotate(0) translate(4 189)">
<title>peg::ErrorInfo::heuristic_error_token</title>
<!-- Node1 -->
<g id="Node000001" class="node">
<title>Node1</title>
<g id="a_Node000001"><a xlink:title=" ">
<polygon fill="#999999" stroke="#666666" points="780,-97.5 649,-97.5 649,-67.5 780,-67.5 780,-97.5"/>
<text text-anchor="start" x="657" y="-85.5" font-family="Helvetica,sans-Serif" font-size="10.00">peg::ErrorInfo::heuristic</text>
<text text-anchor="middle" x="714.5" y="-74.5" font-family="Helvetica,sans-Serif" font-size="10.00">_error_token</text>
</a>
</g>
</g>
<!-- Node2 -->
<g id="Node000002" class="node">
<title>Node2</title>
<g id="a_Node000002"><a xlink:href="../../db/da9/structpeg_1_1ErrorInfo.html#aba50700eda63a4a6e099ea86e20f87ed" target="_top" xlink:title=" ">
<polygon fill="white" stroke="#666666" points="613,-92 473,-92 473,-73 613,-73 613,-92"/>
<text text-anchor="middle" x="543" y="-80" font-family="Helvetica,sans-Serif" font-size="10.00">peg::ErrorInfo::output_log</text>
</a>
</g>
</g>
<!-- Node1&#45;&gt;Node2 -->
<g id="edge1_Node000001_Node000002" class="edge">
<title>Node1&#45;&gt;Node2</title>
<g id="a_edge1_Node000001_Node000002"><a xlink:title=" ">
<path fill="none" stroke="#63b8ff" d="M643.7,-82.5C633.62,-82.5 623.25,-82.5 613.18,-82.5"/>
<polygon fill="#63b8ff" stroke="#63b8ff" points="648.94,-82.5 643.94,-84.75 646.44,-82.5 643.94,-82.5 643.94,-82.5 643.94,-82.5 646.44,-82.5 643.94,-80.25 648.94,-82.5 648.94,-82.5"/>
</a>
</g>
</g>
<!-- Node3 -->
<g id="Node000003" class="node">
<title>Node3</title>
<g id="a_Node000003"><a xlink:href="../../d4/d83/classpeg_1_1Recovery.html#a12e6a15fe93b9ec446aa34f342f98588" target="_top" xlink:title=" ">
<polygon fill="white" stroke="#666666" points="437,-111 292,-111 292,-92 437,-92 437,-111"/>
<text text-anchor="middle" x="364.5" y="-99" font-family="Helvetica,sans-Serif" font-size="10.00">peg::Recovery::parse_core</text>
</a>
</g>
</g>
<!-- Node2&#45;&gt;Node3 -->
<g id="edge2_Node000002_Node000003" class="edge">
<title>Node2&#45;&gt;Node3</title>
<g id="a_edge2_Node000002_Node000003"><a xlink:title=" ">
<path fill="none" stroke="#63b8ff" d="M467.52,-90.52C457.46,-91.6 447.17,-92.71 437.17,-93.79"/>
<polygon fill="#63b8ff" stroke="#63b8ff" points="472.75,-89.95 468.02,-92.73 470.26,-90.22 467.78,-90.49 467.78,-90.49 467.78,-90.49 470.26,-90.22 467.54,-88.25 472.75,-89.95 472.75,-89.95"/>
</a>
</g>
</g>
<!-- Node4 -->
<g id="Node000004" class="node">
<title>Node4</title>
<g id="a_Node000004"><a xlink:href="../../da/d7b/classpeg_1_1parser.html#abc8ac1571f4e173ba58b1a6050d99744" target="_top" xlink:title=" ">
<polygon fill="white" stroke="#666666" points="435,-74 294,-74 294,-55 435,-55 435,-74"/>
<text text-anchor="middle" x="364.5" y="-62" font-family="Helvetica,sans-Serif" font-size="10.00">peg::parser::post_process</text>
</a>
</g>
</g>
<!-- Node2&#45;&gt;Node4 -->
<g id="edge3_Node000002_Node000004" class="edge">
<title>Node2&#45;&gt;Node4</title>
<g id="a_edge3_Node000002_Node000004"><a xlink:title=" ">
<path fill="none" stroke="#63b8ff" d="M467.51,-74.9C456.77,-73.81 445.76,-72.69 435.13,-71.6"/>
<polygon fill="#63b8ff" stroke="#63b8ff" points="472.75,-75.44 467.55,-77.17 470.26,-75.18 467.77,-74.93 467.77,-74.93 467.77,-74.93 470.26,-75.18 468,-72.69 472.75,-75.44 472.75,-75.44"/>
</a>
</g>
</g>
<!-- Node5 -->
<g id="Node000005" class="node">
<title>Node5</title>
<g id="a_Node000005"><a xlink:href="../../da/d7b/classpeg_1_1parser.html#aecf69400627989cb4c080479471f8d7c" target="_top" xlink:title=" ">
<polygon fill="white" stroke="#666666" points="256,-130 140,-130 140,-111 256,-111 256,-130"/>
<text text-anchor="middle" x="198" y="-118" font-family="Helvetica,sans-Serif" font-size="10.00">peg::parser::parse_n</text>
</a>
</g>
</g>
<!-- Node4&#45;&gt;Node5 -->
<g id="edge4_Node000004_Node000005" class="edge">
<title>Node4&#45;&gt;Node5</title>
<g id="a_edge4_Node000004_Node000005"><a xlink:title=" ">
<path fill="none" stroke="#63b8ff" d="M316,-75.51C307.89,-77.84 299.63,-80.52 292,-83.5 275.15,-90.09 272.69,-95.53 256,-102.5 248.63,-105.58 240.53,-108.44 232.82,-110.92"/>
<polygon fill="#63b8ff" stroke="#63b8ff" points="321.02,-74.1 316.82,-77.61 318.62,-74.77 316.21,-75.45 316.21,-75.45 316.21,-75.45 318.62,-74.77 315.6,-73.28 321.02,-74.1 321.02,-74.1"/>
</a>
</g>
</g>
<!-- Node10 -->
<g id="Node000010" class="node">
<title>Node10</title>
<g id="a_Node000010"><a xlink:href="../../da/d7b/classpeg_1_1parser.html#a3d2138de61805b8d8918fbd6c4af1b06" target="_top" xlink:title=" ">
<polygon fill="white" stroke="#666666" points="256,-93 140,-93 140,-74 256,-74 256,-93"/>
<text text-anchor="middle" x="198" y="-81" font-family="Helvetica,sans-Serif" font-size="10.00">peg::parser::parse_n</text>
</a>
</g>
</g>
<!-- Node4&#45;&gt;Node10 -->
<g id="edge9_Node000004_Node000010" class="edge">
<title>Node4&#45;&gt;Node10</title>
<g id="a_edge9_Node000004_Node000010"><a xlink:title=" ">
<path fill="none" stroke="#63b8ff" d="M288.73,-73.14C277.8,-74.4 266.69,-75.68 256.18,-76.9"/>
<polygon fill="#63b8ff" stroke="#63b8ff" points="293.74,-72.56 289.03,-75.37 291.25,-72.84 288.77,-73.13 288.77,-73.13 288.77,-73.13 291.25,-72.84 288.51,-70.9 293.74,-72.56 293.74,-72.56"/>
</a>
</g>
</g>
<!-- Node11 -->
<g id="Node000011" class="node">
<title>Node11</title>
<g id="a_Node000011"><a xlink:href="../../da/d7b/classpeg_1_1parser.html#a1de7147cf3d59ed082a7ada7aa2b1ad2" target="_top" xlink:title=" ">
<polygon fill="white" stroke="#666666" points="256,-56 140,-56 140,-37 256,-37 256,-56"/>
<text text-anchor="middle" x="198" y="-44" font-family="Helvetica,sans-Serif" font-size="10.00">peg::parser::parse_n</text>
</a>
</g>
</g>
<!-- Node4&#45;&gt;Node11 -->
<g id="edge10_Node000004_Node000011" class="edge">
<title>Node4&#45;&gt;Node11</title>
<g id="a_edge10_Node000004_Node000011"><a xlink:title=" ">
<path fill="none" stroke="#63b8ff" d="M288.73,-56.32C277.8,-55.12 266.69,-53.91 256.18,-52.76"/>
<polygon fill="#63b8ff" stroke="#63b8ff" points="293.74,-56.87 288.52,-58.56 291.25,-56.59 288.77,-56.32 288.77,-56.32 288.77,-56.32 291.25,-56.59 289.01,-54.09 293.74,-56.87 293.74,-56.87"/>
</a>
</g>
</g>
<!-- Node12 -->
<g id="Node000012" class="node">
<title>Node12</title>
<g id="a_Node000012"><a xlink:href="../../da/d7b/classpeg_1_1parser.html#a8c1fbb31c7b3c9f402ce77f38876ecfd" target="_top" xlink:title=" ">
<polygon fill="white" stroke="#666666" points="256,-19 140,-19 140,0 256,0 256,-19"/>
<text text-anchor="middle" x="198" y="-7" font-family="Helvetica,sans-Serif" font-size="10.00">peg::parser::parse_n</text>
</a>
</g>
</g>
<!-- Node4&#45;&gt;Node12 -->
<g id="edge11_Node000004_Node000012" class="edge">
<title>Node4&#45;&gt;Node12</title>
<g id="a_edge11_Node000004_Node000012"><a xlink:title=" ">
<path fill="none" stroke="#63b8ff" d="M331.19,-53.14C309.88,-45.71 281.34,-35.86 256,-27.5 247.52,-24.7 238.31,-21.75 229.81,-19.07"/>
<polygon fill="#63b8ff" stroke="#63b8ff" points="336.17,-54.88 330.71,-55.35 333.81,-54.05 331.45,-53.23 331.45,-53.23 331.45,-53.23 333.81,-54.05 332.19,-51.1 336.17,-54.88 336.17,-54.88"/>
</a>
</g>
</g>
<!-- Node6 -->
<g id="Node000006" class="node">
<title>Node6</title>
<g id="a_Node000006"><a xlink:href="../../da/d7b/classpeg_1_1parser.html#aed32355c4ec5d1448da6f828f290f466" target="_top" xlink:title=" ">
<polygon fill="white" stroke="#666666" points="104,-185 0,-185 0,-166 104,-166 104,-185"/>
<text text-anchor="middle" x="52" y="-173" font-family="Helvetica,sans-Serif" font-size="10.00">peg::parser::parse</text>
</a>
</g>
</g>
<!-- Node5&#45;&gt;Node6 -->
<g id="edge5_Node000005_Node000006" class="edge">
<title>Node5&#45;&gt;Node6</title>
<g id="a_edge5_Node000005_Node000006"><a xlink:title=" ">
<path fill="none" stroke="#63b8ff" d="M168.77,-132.07C150.39,-139.51 125.86,-149.3 104,-157.5 96.44,-160.34 88.2,-163.3 80.6,-165.98"/>
<polygon fill="#63b8ff" stroke="#63b8ff" points="173.78,-130.03 170,-134 171.47,-130.97 169.15,-131.91 169.15,-131.91 169.15,-131.91 171.47,-130.97 168.31,-129.83 173.78,-130.03 173.78,-130.03"/>
</a>
</g>
</g>
<!-- Node7 -->
<g id="Node000007" class="node">
<title>Node7</title>
<g id="a_Node000007"><a xlink:href="../../da/d7b/classpeg_1_1parser.html#a985babb67451165bb14c8a73c1e1bac9" target="_top" xlink:title=" ">
<polygon fill="white" stroke="#666666" points="104,-148 0,-148 0,-129 104,-129 104,-148"/>
<text text-anchor="middle" x="52" y="-136" font-family="Helvetica,sans-Serif" font-size="10.00">peg::parser::parse</text>
</a>
</g>
</g>
<!-- Node5&#45;&gt;Node7 -->
<g id="edge6_Node000005_Node000007" class="edge">
<title>Node5&#45;&gt;Node7</title>
<g id="a_edge6_Node000005_Node000007"><a xlink:title=" ">
<path fill="none" stroke="#63b8ff" d="M134.68,-128.29C124.46,-129.57 113.98,-130.88 104.07,-132.12"/>
<polygon fill="#63b8ff" stroke="#63b8ff" points="139.67,-127.67 134.99,-130.52 137.19,-127.98 134.71,-128.29 134.71,-128.29 134.71,-128.29 137.19,-127.98 134.43,-126.05 139.67,-127.67 139.67,-127.67"/>
</a>
</g>
</g>
<!-- Node8 -->
<g id="Node000008" class="node">
<title>Node8</title>
<g id="a_Node000008"><a xlink:href="../../da/d7b/classpeg_1_1parser.html#ab5d7044894b769eecb3d203b0a4c9b94" target="_top" xlink:title=" ">
<polygon fill="white" stroke="#666666" points="104,-111 0,-111 0,-92 104,-92 104,-111"/>
<text text-anchor="middle" x="52" y="-99" font-family="Helvetica,sans-Serif" font-size="10.00">peg::parser::parse</text>
</a>
</g>
</g>
<!-- Node5&#45;&gt;Node8 -->
<g id="edge7_Node000005_Node000008" class="edge">
<title>Node5&#45;&gt;Node8</title>
<g id="a_edge7_Node000005_Node000008"><a xlink:title=" ">
<path fill="none" stroke="#63b8ff" d="M134.68,-112.28C124.46,-110.93 113.98,-109.55 104.07,-108.24"/>
<polygon fill="#63b8ff" stroke="#63b8ff" points="139.67,-112.94 134.42,-114.51 137.2,-112.61 134.72,-112.28 134.72,-112.28 134.72,-112.28 137.2,-112.61 135.01,-110.05 139.67,-112.94 139.67,-112.94"/>
</a>
</g>
</g>
<!-- Node9 -->
<g id="Node000009" class="node">
<title>Node9</title>
<g id="a_Node000009"><a xlink:href="../../da/d7b/classpeg_1_1parser.html#adc45f75e845d39c157fd8a1141f86f6a" target="_top" xlink:title=" ">
<polygon fill="white" stroke="#666666" points="104,-74 0,-74 0,-55 104,-55 104,-74"/>
<text text-anchor="middle" x="52" y="-62" font-family="Helvetica,sans-Serif" font-size="10.00">peg::parser::parse</text>
</a>
</g>
</g>
<!-- Node5&#45;&gt;Node9 -->
<g id="edge8_Node000005_Node000009" class="edge">
<title>Node5&#45;&gt;Node9</title>
<g id="a_edge8_Node000005_Node000009"><a xlink:title=" ">
<path fill="none" stroke="#63b8ff" d="M158.08,-109.24C151.96,-107.18 145.76,-104.91 140,-102.5 123.31,-95.53 120.51,-90.9 104,-83.5 96.5,-80.14 88.2,-76.87 80.52,-74.01"/>
<polygon fill="#63b8ff" stroke="#63b8ff" points="163.18,-110.92 157.73,-111.49 160.81,-110.14 158.43,-109.36 158.43,-109.36 158.43,-109.36 160.81,-110.14 159.14,-107.22 163.18,-110.92 163.18,-110.92"/>
</a>
</g>
</g>
</g>
</svg>
