<?xml version="1.0" encoding="UTF-8" standalone="no"?>
<!DOCTYPE svg PUBLIC "-//W3C//DTD SVG 1.1//EN"
 "http://www.w3.org/Graphics/SVG/1.1/DTD/svg11.dtd">
<!-- Generated by graphviz version 2.43.0 (0)
 -->
<!-- Title: cockatrice/src/client/network/update/client/update_downloader.cpp Pages: 1 -->
<svg width="193pt" height="159pt"
 viewBox="0.00 0.00 193.00 159.00" xmlns="http://www.w3.org/2000/svg" xmlns:xlink="http://www.w3.org/1999/xlink">

<svg id="main" version="1.1" xmlns="http://www.w3.org/2000/svg" xmlns:xlink="http://www.w3.org/1999/xlink" xml:space="preserve">

<style type="text/css"><![CDATA[
.node, .edge {opacity: 0.7;}
.node.selected, .edge.selected {opacity: 1;}
.edge:hover path { stroke: red; }
.edge:hover polygon { stroke: red; fill: red; }
]]></style>
<script type="application/ecmascript" xlink:href="../../svg.min.js"/>
<svg id="graph" class="graph">
<g id="graph0" class="graph" transform="scale(1 1) rotate(0) translate(4 155)">
<title>cockatrice/src/client/network/update/client/update_downloader.cpp</title>
<!-- Node1 -->
<g id="Node000001" class="node">
<title>Node1</title>
<g id="a_Node000001"><a xlink:title=" ">
<polygon fill="#999999" stroke="#666666" points="184.5,-151 49.5,-151 49.5,-110 184.5,-110 184.5,-151"/>
<text text-anchor="start" x="57.5" y="-139" font-family="Helvetica,sans-Serif" font-size="10.00">cockatrice/src/client</text>
<text text-anchor="start" x="57.5" y="-128" font-family="Helvetica,sans-Serif" font-size="10.00">/network/update/client</text>
<text text-anchor="middle" x="117" y="-117" font-family="Helvetica,sans-Serif" font-size="10.00">/update_downloader.cpp</text>
</a>
</g>
</g>
<!-- Node2 -->
<g id="Node000002" class="node">
<title>Node2</title>
<g id="a_Node000002"><a xlink:href="../../de/d38/update__downloader_8h.html" target="_top" xlink:title="TODO: Document this.">
<polygon fill="white" stroke="#666666" points="128.5,-74 7.5,-74 7.5,-55 128.5,-55 128.5,-74"/>
<text text-anchor="middle" x="68" y="-62" font-family="Helvetica,sans-Serif" font-size="10.00">update_downloader.h</text>
</a>
</g>
</g>
<!-- Node1&#45;&gt;Node2 -->
<g id="edge1_Node000001_Node000002" class="edge">
<title>Node1&#45;&gt;Node2</title>
<g id="a_edge1_Node000001_Node000002"><a xlink:title=" ">
<path fill="none" stroke="#63b8ff" d="M102.03,-109.95C94.2,-99.71 84.82,-87.47 77.89,-78.42"/>
<polygon fill="#63b8ff" stroke="#63b8ff" points="74.71,-74.26 79.53,-76.86 76.23,-76.25 77.75,-78.23 77.75,-78.23 77.75,-78.23 76.23,-76.25 75.96,-79.6 74.71,-74.26 74.71,-74.26"/>
</a>
</g>
</g>
<!-- Node5 -->
<g id="Node000005" class="node">
<title>Node5</title>
<g id="a_Node000005"><a xlink:title=" ">
<polygon fill="#e0e0e0" stroke="#999999" points="185,-74 147,-74 147,-55 185,-55 185,-74"/>
<text text-anchor="middle" x="166" y="-62" font-family="Helvetica,sans-Serif" font-size="10.00">QUrl</text>
</a>
</g>
</g>
<!-- Node1&#45;&gt;Node5 -->
<g id="edge4_Node000001_Node000005" class="edge">
<title>Node1&#45;&gt;Node5</title>
<g id="a_edge4_Node000001_Node000005"><a xlink:title=" ">
<path fill="none" stroke="#63b8ff" d="M131.97,-109.95C139.8,-99.71 149.18,-87.47 156.11,-78.42"/>
<polygon fill="#63b8ff" stroke="#63b8ff" points="159.29,-74.26 158.04,-79.6 157.77,-76.25 156.25,-78.23 156.25,-78.23 156.25,-78.23 157.77,-76.25 154.47,-76.86 159.29,-74.26 159.29,-74.26"/>
</a>
</g>
</g>
<!-- Node3 -->
<g id="Node000003" class="node">
<title>Node3</title>
<g id="a_Node000003"><a xlink:title=" ">
<polygon fill="#e0e0e0" stroke="#999999" points="56,-19 0,-19 0,0 56,0 56,-19"/>
<text text-anchor="middle" x="28" y="-7" font-family="Helvetica,sans-Serif" font-size="10.00">QObject</text>
</a>
</g>
</g>
<!-- Node2&#45;&gt;Node3 -->
<g id="edge2_Node000002_Node000003" class="edge">
<title>Node2&#45;&gt;Node3</title>
<g id="a_edge2_Node000002_Node000003"><a xlink:title=" ">
<path fill="none" stroke="#63b8ff" d="M61.39,-54.75C54.93,-46.18 45.01,-33.03 37.66,-23.3"/>
<polygon fill="#63b8ff" stroke="#63b8ff" points="34.48,-19.09 39.29,-21.72 35.99,-21.08 37.49,-23.08 37.49,-23.08 37.49,-23.08 35.99,-21.08 35.7,-24.44 34.48,-19.09 34.48,-19.09"/>
</a>
</g>
</g>
<!-- Node4 -->
<g id="Node000004" class="node">
<title>Node4</title>
<g id="a_Node000004"><a xlink:title=" ">
<polygon fill="#e0e0e0" stroke="#999999" points="143.5,-19 74.5,-19 74.5,0 143.5,0 143.5,-19"/>
<text text-anchor="middle" x="109" y="-7" font-family="Helvetica,sans-Serif" font-size="10.00">QtNetwork</text>
</a>
</g>
</g>
<!-- Node2&#45;&gt;Node4 -->
<g id="edge3_Node000002_Node000004" class="edge">
<title>Node2&#45;&gt;Node4</title>
<g id="a_edge3_Node000002_Node000004"><a xlink:title=" ">
<path fill="none" stroke="#63b8ff" d="M74.77,-54.75C81.4,-46.18 91.57,-33.03 99.1,-23.3"/>
<polygon fill="#63b8ff" stroke="#63b8ff" points="102.36,-19.09 101.08,-24.42 100.83,-21.07 99.3,-23.04 99.3,-23.04 99.3,-23.04 100.83,-21.07 97.52,-21.67 102.36,-19.09 102.36,-19.09"/>
</a>
</g>
</g>
</g>
</svg>
</svg>

<style type='text/css'>
<![CDATA[
[data-mouse-over-selected='false'] { opacity: 0.7; }
[data-mouse-over-selected='true']  { opacity: 1.0; }
]]>
</style>
<script type="application/ecmascript"><![CDATA[
document.addEventListener('DOMContentLoaded', (event) => {
  highlightEdges();
  highlightAdjacentNodes();
});
]]></script>
</svg>
