<?xml version="1.0" encoding="UTF-8" standalone="no"?>
<!DOCTYPE svg PUBLIC "-//W3C//DTD SVG 1.1//EN"
 "http://www.w3.org/Graphics/SVG/1.1/DTD/svg11.dtd">
<!-- Generated by graphviz version 2.43.0 (0)
 -->
<!-- Title: cockatrice/src/interface/widgets/general/display/charts/pies/color_pie.h Pages: 1 -->
<!--zoomable 225 -->

<svg id="main" version="1.1" xmlns="http://www.w3.org/2000/svg" xmlns:xlink="http://www.w3.org/1999/xlink" xml:space="preserve" onload="init(evt)">

<style type="text/css"><![CDATA[
.node, .edge {opacity: 0.7;}
.node.selected, .edge.selected {opacity: 1;}
.edge:hover path { stroke: red; }
.edge:hover polygon { stroke: red; fill: red; }
]]></style>

<defs>
  <circle id="rim" cx="0" cy="0" r="7"/>
  <circle id="rim2" cx="0" cy="0" r="3.5"/>
  <g id="zoomPlus">
    <use xlink:href="#rim" fill="#404040"><set attributeName="fill" to="#808080" begin="zoomplus.mouseover" end="zoomplus.mouseout"/></use>
    <path d="M-4,0h8M0,-4v8" fill="none" stroke="white" stroke-width="1.5" pointer-events="none"/>
  </g>
  <g id="zoomMin">
    <use xlink:href="#rim" fill="#404040"><set attributeName="fill" to="#808080" begin="zoomminus.mouseover" end="zoomminus.mouseout"/></use>
    <path d="M-4,0h8" fill="none" stroke="white" stroke-width="1.5" pointer-events="none"/>
  </g>
  <g id="arrowUp" transform="translate(30 24)">
    <use xlink:href="#rim"/>
    <path pointer-events="none" fill="none" stroke="white" stroke-width="1.5" d="M0,-3.0v7 M-2.5,-0.5L0,-3.0L2.5,-0.5"/>
  </g>
  <g id="arrowRight" transform="rotate(90) translate(36 -43)">
    <use xlink:href="#rim"/>
    <path pointer-events="none" fill="none" stroke="white" stroke-width="1.5" d="M0,-3.0v7 M-2.5,-0.5L0,-3.0L2.5,-0.5"/>
  </g>
  <g id="arrowDown" transform="rotate(180) translate(-30 -48)">
    <use xlink:href="#rim"/>
    <path pointer-events="none" fill="none" stroke="white" stroke-width="1.5" d="M0,-3.0v7 M-2.5,-0.5L0,-3.0L2.5,-0.5"/>
  </g>
  <g id="arrowLeft" transform="rotate(270) translate(-36 17)">
    <use xlink:href="#rim"/>
    <path pointer-events="none" fill="none" stroke="white" stroke-width="1.5" d="M0,-3.0v7 M-2.5,-0.5L0,-3.0L2.5,-0.5"/>
  </g>
  <g id="resetDef">
    <use xlink:href="#rim2" fill="#404040"><set attributeName="fill" to="#808080" begin="reset.mouseover" end="reset.mouseout"/></use>
  </g>
</defs>
<script type="application/ecmascript">
var viewWidth = 758;
var viewHeight = 225;
var sectionId = 'dynsection-1';
</script>
<script type="application/ecmascript" xlink:href="../../svg.min.js"/>
<svg id="graph" class="graph">
<g id="viewport">
<title>cockatrice/src/interface/widgets/general/display/charts/pies/color_pie.h</title>
<!-- Node1 -->
<g id="Node000001" class="node">
<title>Node1</title>
<g id="a_Node000001"><a xlink:title=" ">
<polygon fill="#999999" stroke="#666666" points="454,-217 318,-217 318,-176 454,-176 454,-217"/>
<text text-anchor="start" x="326" y="-205" font-family="Helvetica,sans-Serif" font-size="10.00">cockatrice/src/interface</text>
<text text-anchor="start" x="326" y="-194" font-family="Helvetica,sans-Serif" font-size="10.00">/widgets/general/display</text>
<text text-anchor="middle" x="386" y="-183" font-family="Helvetica,sans-Serif" font-size="10.00">/charts/pies/color_pie.h</text>
</a>
</g>
</g>
<!-- Node2 -->
<g id="Node000002" class="node">
<title>Node2</title>
<g id="a_Node000002"><a xlink:href="../../d4/d3b/mana__base__widget_8cpp.html" target="_top" xlink:title=" ">
<polygon fill="white" stroke="#666666" points="168,-140 0,-140 0,-88 168,-88 168,-140"/>
<text text-anchor="start" x="8" y="-128" font-family="Helvetica,sans-Serif" font-size="10.00">cockatrice/src/interface</text>
<text text-anchor="start" x="8" y="-117" font-family="Helvetica,sans-Serif" font-size="10.00">/widgets/deck_analytics</text>
<text text-anchor="start" x="8" y="-106" font-family="Helvetica,sans-Serif" font-size="10.00">/analyzer_modules/mana_base</text>
<text text-anchor="middle" x="84" y="-95" font-family="Helvetica,sans-Serif" font-size="10.00">/mana_base_widget.cpp</text>
</a>
</g>
</g>
<!-- Node1&#45;&gt;Node2 -->
<g id="edge1_Node000001_Node000002" class="edge">
<title>Node1&#45;&gt;Node2</title>
<g id="a_edge1_Node000001_Node000002"><a xlink:title=" ">
<path fill="none" stroke="#63b8ff" d="M312.9,-176.15C272.77,-165.51 222.13,-152.06 177,-140 174.09,-139.22 171.13,-138.43 168.15,-137.63"/>
<polygon fill="#63b8ff" stroke="#63b8ff" points="317.74,-177.43 312.33,-178.32 315.33,-176.79 312.91,-176.15 312.91,-176.15 312.91,-176.15 315.33,-176.79 313.49,-173.97 317.74,-177.43 317.74,-177.43"/>
</a>
</g>
</g>
<!-- Node3 -->
<g id="Node000003" class="node">
<title>Node3</title>
<g id="a_Node000003"><a xlink:href="../../df/d8f/mana__devotion__widget_8cpp.html" target="_top" xlink:title=" ">
<polygon fill="white" stroke="#666666" points="374,-140 186,-140 186,-88 374,-88 374,-140"/>
<text text-anchor="start" x="194" y="-128" font-family="Helvetica,sans-Serif" font-size="10.00">cockatrice/src/interface</text>
<text text-anchor="start" x="194" y="-117" font-family="Helvetica,sans-Serif" font-size="10.00">/widgets/deck_analytics</text>
<text text-anchor="start" x="194" y="-106" font-family="Helvetica,sans-Serif" font-size="10.00">/analyzer_modules/mana_devotion</text>
<text text-anchor="middle" x="280" y="-95" font-family="Helvetica,sans-Serif" font-size="10.00">/mana_devotion_widget.cpp</text>
</a>
</g>
</g>
<!-- Node1&#45;&gt;Node3 -->
<g id="edge2_Node000001_Node000003" class="edge">
<title>Node1&#45;&gt;Node3</title>
<g id="a_edge2_Node000001_Node000003"><a xlink:title=" ">
<path fill="none" stroke="#63b8ff" d="M356.02,-172.73C342.7,-162.61 326.97,-150.67 313.28,-140.28"/>
<polygon fill="#63b8ff" stroke="#63b8ff" points="360.07,-175.81 354.73,-174.58 358.08,-174.3 356.09,-172.78 356.09,-172.78 356.09,-172.78 358.08,-174.3 357.45,-170.99 360.07,-175.81 360.07,-175.81"/>
</a>
</g>
</g>
<!-- Node4 -->
<g id="Node000004" class="node">
<title>Node4</title>
<g id="a_Node000004"><a xlink:href="../../d3/db7/mana__distribution__widget_8h.html" target="_top" xlink:title=" ">
<polygon fill="white" stroke="#666666" points="592,-140 392,-140 392,-88 592,-88 592,-140"/>
<text text-anchor="start" x="400" y="-128" font-family="Helvetica,sans-Serif" font-size="10.00">cockatrice/src/interface</text>
<text text-anchor="start" x="400" y="-117" font-family="Helvetica,sans-Serif" font-size="10.00">/widgets/deck_analytics</text>
<text text-anchor="start" x="400" y="-106" font-family="Helvetica,sans-Serif" font-size="10.00">/analyzer_modules/mana_distribution</text>
<text text-anchor="middle" x="492" y="-95" font-family="Helvetica,sans-Serif" font-size="10.00">/mana_distribution_widget.h</text>
</a>
</g>
</g>
<!-- Node1&#45;&gt;Node4 -->
<g id="edge3_Node000001_Node000004" class="edge">
<title>Node1&#45;&gt;Node4</title>
<g id="a_edge3_Node000001_Node000004"><a xlink:title=" ">
<path fill="none" stroke="#63b8ff" d="M415.98,-172.73C429.3,-162.61 445.03,-150.67 458.72,-140.28"/>
<polygon fill="#63b8ff" stroke="#63b8ff" points="411.93,-175.81 414.55,-170.99 413.92,-174.3 415.91,-172.78 415.91,-172.78 415.91,-172.78 413.92,-174.3 417.27,-174.58 411.93,-175.81 411.93,-175.81"/>
</a>
</g>
</g>
<!-- Node6 -->
<g id="Node000006" class="node">
<title>Node6</title>
<g id="a_Node000006"><a xlink:href="../../dd/df4/color__pie_8cpp.html" target="_top" xlink:title=" ">
<polygon fill="white" stroke="#666666" points="750,-134.5 610,-134.5 610,-93.5 750,-93.5 750,-134.5"/>
<text text-anchor="start" x="618" y="-122.5" font-family="Helvetica,sans-Serif" font-size="10.00">cockatrice/src/interface</text>
<text text-anchor="start" x="618" y="-111.5" font-family="Helvetica,sans-Serif" font-size="10.00">/widgets/general/display</text>
<text text-anchor="middle" x="680" y="-100.5" font-family="Helvetica,sans-Serif" font-size="10.00">/charts/pies/color_pie.cpp</text>
</a>
</g>
</g>
<!-- Node1&#45;&gt;Node6 -->
<g id="edge5_Node000001_Node000006" class="edge">
<title>Node1&#45;&gt;Node6</title>
<g id="a_edge5_Node000001_Node000006"><a xlink:title=" ">
<path fill="none" stroke="#63b8ff" d="M459.07,-177.68C500.79,-167.24 554,-153.49 601,-140 606.95,-138.29 613.12,-136.45 619.29,-134.58"/>
<polygon fill="#63b8ff" stroke="#63b8ff" points="454.04,-178.93 458.34,-175.54 456.46,-178.33 458.89,-177.72 458.89,-177.72 458.89,-177.72 456.46,-178.33 459.43,-179.9 454.04,-178.93 454.04,-178.93"/>
</a>
</g>
</g>
<!-- Node5 -->
<g id="Node000005" class="node">
<title>Node5</title>
<g id="a_Node000005"><a xlink:href="../../d8/df0/mana__distribution__widget_8cpp.html" target="_top" xlink:title=" ">
<polygon fill="white" stroke="#666666" points="592,-52 392,-52 392,0 592,0 592,-52"/>
<text text-anchor="start" x="400" y="-40" font-family="Helvetica,sans-Serif" font-size="10.00">cockatrice/src/interface</text>
<text text-anchor="start" x="400" y="-29" font-family="Helvetica,sans-Serif" font-size="10.00">/widgets/deck_analytics</text>
<text text-anchor="start" x="400" y="-18" font-family="Helvetica,sans-Serif" font-size="10.00">/analyzer_modules/mana_distribution</text>
<text text-anchor="middle" x="492" y="-7" font-family="Helvetica,sans-Serif" font-size="10.00">/mana_distribution_widget.cpp</text>
</a>
</g>
</g>
<!-- Node4&#45;&gt;Node5 -->
<g id="edge4_Node000004_Node000005" class="edge">
<title>Node4&#45;&gt;Node5</title>
<g id="a_edge4_Node000004_Node000005"><a xlink:title=" ">
<path fill="none" stroke="#63b8ff" d="M492,-82.56C492,-72.61 492,-61.67 492,-52.16"/>
<polygon fill="#63b8ff" stroke="#63b8ff" points="492,-87.66 489.75,-82.66 492,-85.16 492,-82.66 492,-82.66 492,-82.66 492,-85.16 494.25,-82.66 492,-87.66 492,-87.66"/>
</a>
</g>
</g>
</g>
</svg>

<g id="navigator" transform="translate(0 0)" fill="#404254">
  <rect fill="#f2f5e9" fill-opacity="0.5" stroke="#606060" stroke-width=".5" x="0" y="0" width="60" height="60"/>
  <use id="zoomplus" xlink:href="#zoomPlus" x="17" y="9" onmousedown="handleZoom(evt,'in')"/>
  <use id="zoomminus" xlink:href="#zoomMin" x="42" y="9" onmousedown="handleZoom(evt,'out')"/>
  <use id="reset" xlink:href="#resetDef" x="30" y="36" onmousedown="handleReset()"/>
   <use id="arrowup" xlink:href="#arrowUp" x="0" y="0" onmousedown="handlePan(0,-1)"/>
  <use id="arrowright" xlink:href="#arrowRight" x="0" y="0" onmousedown="handlePan(1,0)"/>
  <use id="arrowdown" xlink:href="#arrowDown" x="0" y="0" onmousedown="handlePan(0,1)"/>
  <use id="arrowleft" xlink:href="#arrowLeft" x="0" y="0" onmousedown="handlePan(-1,0)"/>
</g>
<svg viewBox="0 0 15 15" width="100%" height="30px" preserveAspectRatio="xMaxYMin meet">
 <g id="arrow_out" transform="scale(0.3 0.3)">
  <a xlink:href="color__pie_8h__dep__incl_org.svg" target="_base">
   <rect id="button" ry="5" rx="5" y="6" x="6" height="38" width="38"
        fill="#f2f5e9" fill-opacity="0.5" stroke="#606060" stroke-width="1.0"/>
   <path id="arrow"
     d="M 11.500037,31.436501 C 11.940474,20.09759 22.043105,11.32322 32.158766,21.979434 L 37.068811,17.246167 C 37.068811,17.246167 37.088388,32 37.088388,32 L 22.160133,31.978069 C 22.160133,31.978069 26.997745,27.140456 26.997745,27.140456 C 18.528582,18.264221 13.291696,25.230495 11.500037,31.436501 z"
     style="fill:#404040;"/>
  </a>
 </g>
</svg>

<style type='text/css'>
<![CDATA[
[data-mouse-over-selected='false'] { opacity: 0.7; }
[data-mouse-over-selected='true']  { opacity: 1.0; }
]]>
</style>
<script type="application/ecmascript"><![CDATA[
document.addEventListener('DOMContentLoaded', (event) => {
  highlightEdges();
  highlightAdjacentNodes();
});
]]></script>
</svg>
