<?xml version="1.0" encoding="UTF-8" standalone="no"?>
<!DOCTYPE svg PUBLIC "-//W3C//DTD SVG 1.1//EN"
 "http://www.w3.org/Graphics/SVG/1.1/DTD/svg11.dtd">
<!-- Generated by graphviz version 2.43.0 (0)
 -->
<!-- Title: DeckListStatisticsAnalyzer::DeckListStatisticsAnalyzer Pages: 1 -->
<!--zoomable 278 -->

<svg id="main" version="1.1" xmlns="http://www.w3.org/2000/svg" xmlns:xlink="http://www.w3.org/1999/xlink" xml:space="preserve" onload="init(evt)">

<style type="text/css"><![CDATA[
.node, .edge {opacity: 0.7;}
.node.selected, .edge.selected {opacity: 1;}
.edge:hover path { stroke: red; }
.edge:hover polygon { stroke: red; fill: red; }
]]></style>

<defs>
  <circle id="rim" cx="0" cy="0" r="7"/>
  <circle id="rim2" cx="0" cy="0" r="3.5"/>
  <g id="zoomPlus">
    <use xlink:href="#rim" fill="#404040"><set attributeName="fill" to="#808080" begin="zoomplus.mouseover" end="zoomplus.mouseout"/></use>
    <path d="M-4,0h8M0,-4v8" fill="none" stroke="white" stroke-width="1.5" pointer-events="none"/>
  </g>
  <g id="zoomMin">
    <use xlink:href="#rim" fill="#404040"><set attributeName="fill" to="#808080" begin="zoomminus.mouseover" end="zoomminus.mouseout"/></use>
    <path d="M-4,0h8" fill="none" stroke="white" stroke-width="1.5" pointer-events="none"/>
  </g>
  <g id="arrowUp" transform="translate(30 24)">
    <use xlink:href="#rim"/>
    <path pointer-events="none" fill="none" stroke="white" stroke-width="1.5" d="M0,-3.0v7 M-2.5,-0.5L0,-3.0L2.5,-0.5"/>
  </g>
  <g id="arrowRight" transform="rotate(90) translate(36 -43)">
    <use xlink:href="#rim"/>
    <path pointer-events="none" fill="none" stroke="white" stroke-width="1.5" d="M0,-3.0v7 M-2.5,-0.5L0,-3.0L2.5,-0.5"/>
  </g>
  <g id="arrowDown" transform="rotate(180) translate(-30 -48)">
    <use xlink:href="#rim"/>
    <path pointer-events="none" fill="none" stroke="white" stroke-width="1.5" d="M0,-3.0v7 M-2.5,-0.5L0,-3.0L2.5,-0.5"/>
  </g>
  <g id="arrowLeft" transform="rotate(270) translate(-36 17)">
    <use xlink:href="#rim"/>
    <path pointer-events="none" fill="none" stroke="white" stroke-width="1.5" d="M0,-3.0v7 M-2.5,-0.5L0,-3.0L2.5,-0.5"/>
  </g>
  <g id="resetDef">
    <use xlink:href="#rim2" fill="#404040"><set attributeName="fill" to="#808080" begin="reset.mouseover" end="reset.mouseout"/></use>
  </g>
</defs>
<script type="application/ecmascript">
var viewWidth = 909;
var viewHeight = 278;
var sectionId = 'dynsection-2';
</script>
<script type="application/ecmascript" xlink:href="../../svg.min.js"/>
<svg id="graph" class="graph">
<g id="viewport">
<title>DeckListStatisticsAnalyzer::DeckListStatisticsAnalyzer</title>
<!-- Node1 -->
<g id="Node000001" class="node">
<title>Node1</title>
<g id="a_Node000001"><a xlink:title=" ">
<polygon fill="#999999" stroke="#666666" points="152,-128 0,-128 0,-98 152,-98 152,-128"/>
<text text-anchor="start" x="8" y="-116" font-family="Helvetica,sans-Serif" font-size="10.00">DeckListStatisticsAnalyzer</text>
<text text-anchor="middle" x="76" y="-105" font-family="Helvetica,sans-Serif" font-size="10.00">::DeckListStatisticsAnalyzer</text>
</a>
</g>
</g>
<!-- Node2 -->
<g id="Node000002" class="node">
<title>Node2</title>
<g id="a_Node000002"><a xlink:href="../../d7/d02/classDeckListStatisticsAnalyzer.html#ae7642e6a97e18fca75423596fe33d885" target="_top" xlink:title=" ">
<polygon fill="white" stroke="#666666" points="343,-150 197,-150 197,-120 343,-120 343,-150"/>
<text text-anchor="start" x="205" y="-138" font-family="Helvetica,sans-Serif" font-size="10.00">DeckListStatisticsAnalyzer</text>
<text text-anchor="middle" x="270" y="-127" font-family="Helvetica,sans-Serif" font-size="10.00">::analyze</text>
</a>
</g>
</g>
<!-- Node1&#45;&gt;Node2 -->
<g id="edge1_Node000001_Node000002" class="edge">
<title>Node1&#45;&gt;Node2</title>
<g id="a_edge1_Node000001_Node000002"><a xlink:title=" ">
<path fill="none" stroke="#63b8ff" d="M152.06,-121.6C165.06,-123.09 178.59,-124.64 191.65,-126.14"/>
<polygon fill="#63b8ff" stroke="#63b8ff" points="196.83,-126.73 191.6,-128.4 194.34,-126.45 191.86,-126.16 191.86,-126.16 191.86,-126.16 194.34,-126.45 192.11,-123.93 196.83,-126.73 196.83,-126.73"/>
</a>
</g>
</g>
<!-- Node12 -->
<g id="Node000012" class="node">
<title>Node12</title>
<g id="a_Node000012"><a xlink:href="../../d9/de1/classDeckListModel.html#a54240971b92dc74155ef7d72c6ce6496" target="_top" xlink:title="Emitted whenever the cards in the deck changes. This includes when the deck is replaced.">
<polygon fill="white" stroke="#666666" points="352,-101.5 188,-101.5 188,-82.5 352,-82.5 352,-101.5"/>
<text text-anchor="middle" x="270" y="-89.5" font-family="Helvetica,sans-Serif" font-size="10.00">DeckListModel::cardsChanged</text>
</a>
</g>
</g>
<!-- Node1&#45;&gt;Node12 -->
<g id="edge12_Node000001_Node000012" class="edge">
<title>Node1&#45;&gt;Node12</title>
<g id="a_edge12_Node000001_Node000012"><a xlink:title=" ">
<path fill="none" stroke="#63b8ff" d="M152.06,-104.79C162.18,-103.68 172.63,-102.54 182.93,-101.41"/>
<polygon fill="#63b8ff" stroke="#63b8ff" points="187.97,-100.86 183.24,-103.64 185.48,-101.13 183,-101.41 183,-101.41 183,-101.41 185.48,-101.13 182.75,-99.17 187.97,-100.86 187.97,-100.86"/>
</a>
</g>
</g>
<!-- Node3 -->
<g id="Node000003" class="node">
<title>Node3</title>
<g id="a_Node000003"><a xlink:href="../../d7/d02/classDeckListStatisticsAnalyzer.html#ae95d25270e7176b4e395580e8af2422c" target="_top" xlink:title=" ">
<polygon fill="white" stroke="#666666" points="537,-270 391,-270 391,-240 537,-240 537,-270"/>
<text text-anchor="start" x="399" y="-258" font-family="Helvetica,sans-Serif" font-size="10.00">DeckListStatisticsAnalyzer</text>
<text text-anchor="middle" x="464" y="-247" font-family="Helvetica,sans-Serif" font-size="10.00">::clearData</text>
</a>
</g>
</g>
<!-- Node2&#45;&gt;Node3 -->
<g id="edge2_Node000002_Node000003" class="edge">
<title>Node2&#45;&gt;Node3</title>
<g id="a_edge2_Node000002_Node000003"><a xlink:title=" ">
<path fill="none" stroke="#63b8ff" d="M285.53,-150.08C306.4,-170.96 346.92,-208.64 388,-231 392.69,-233.55 397.69,-235.88 402.8,-238"/>
<polygon fill="#63b8ff" stroke="#63b8ff" points="407.53,-239.89 402.05,-240.12 405.2,-238.96 402.88,-238.03 402.88,-238.03 402.88,-238.03 405.2,-238.96 403.72,-235.94 407.53,-239.89 407.53,-239.89"/>
</a>
</g>
</g>
<!-- Node4 -->
<g id="Node000004" class="node">
<title>Node4</title>
<g id="a_Node000004"><a xlink:href="../../d7/d02/classDeckListStatisticsAnalyzer.html#a2f5ee403ba975e997ee779da9eb9d1f9" target="_top" xlink:title=" ">
<polygon fill="white" stroke="#666666" points="537,-222 391,-222 391,-192 537,-192 537,-222"/>
<text text-anchor="start" x="399" y="-210" font-family="Helvetica,sans-Serif" font-size="10.00">DeckListStatisticsAnalyzer</text>
<text text-anchor="middle" x="464" y="-199" font-family="Helvetica,sans-Serif" font-size="10.00">::countManaSymbols</text>
</a>
</g>
</g>
<!-- Node2&#45;&gt;Node4 -->
<g id="edge3_Node000002_Node000004" class="edge">
<title>Node2&#45;&gt;Node4</title>
<g id="a_edge3_Node000002_Node000004"><a xlink:title=" ">
<path fill="none" stroke="#63b8ff" d="M305.53,-150.01C328.68,-159.87 359.95,-172.78 388,-183 394.78,-185.47 401.96,-187.95 409.08,-190.32"/>
<polygon fill="#63b8ff" stroke="#63b8ff" points="413.99,-191.94 408.54,-192.51 411.62,-191.15 409.24,-190.37 409.24,-190.37 409.24,-190.37 411.62,-191.15 409.95,-188.23 413.99,-191.94 413.99,-191.94"/>
</a>
</g>
</g>
<!-- Node5 -->
<g id="Node000005" class="node">
<title>Node5</title>
<g id="a_Node000005"><a xlink:href="../../d7/d02/classDeckListStatisticsAnalyzer.html#a1fc67df7fcd0f0794256df594ec24b76" target="_top" xlink:title=" ">
<polygon fill="white" stroke="#666666" points="540,-174 388,-174 388,-144 540,-144 540,-174"/>
<text text-anchor="start" x="396" y="-162" font-family="Helvetica,sans-Serif" font-size="10.00">DeckListStatisticsAnalyzer</text>
<text text-anchor="middle" x="464" y="-151" font-family="Helvetica,sans-Serif" font-size="10.00">::determineManaProduction</text>
</a>
</g>
</g>
<!-- Node2&#45;&gt;Node5 -->
<g id="edge4_Node000002_Node000005" class="edge">
<title>Node2&#45;&gt;Node5</title>
<g id="a_edge4_Node000002_Node000005"><a xlink:title=" ">
<path fill="none" stroke="#63b8ff" d="M343.04,-144C356,-145.63 369.59,-147.32 382.77,-148.97"/>
<polygon fill="#63b8ff" stroke="#63b8ff" points="387.99,-149.62 382.75,-151.24 385.51,-149.31 383.03,-149 383.03,-149 383.03,-149 385.51,-149.31 383.31,-146.77 387.99,-149.62 387.99,-149.62"/>
</a>
</g>
</g>
<!-- Node6 -->
<g id="Node000006" class="node">
<title>Node6</title>
<g id="a_Node000006"><a xlink:href="../../d8/dbe/classCardDatabaseQuerier.html#aadf83692b2220aedcfb3e9b36070acb7" target="_top" xlink:title="Retrieves a card by its exact name.">
<polygon fill="white" stroke="#666666" points="525,-126 403,-126 403,-96 525,-96 525,-126"/>
<text text-anchor="start" x="411" y="-114" font-family="Helvetica,sans-Serif" font-size="10.00">CardDatabaseQuerier</text>
<text text-anchor="middle" x="464" y="-103" font-family="Helvetica,sans-Serif" font-size="10.00">::getCardInfo</text>
</a>
</g>
</g>
<!-- Node2&#45;&gt;Node6 -->
<g id="edge5_Node000002_Node000006" class="edge">
<title>Node2&#45;&gt;Node6</title>
<g id="a_edge5_Node000002_Node000006"><a xlink:title=" ">
<path fill="none" stroke="#63b8ff" d="M343.04,-126C360.88,-123.77 379.9,-121.39 397.41,-119.2"/>
<polygon fill="#63b8ff" stroke="#63b8ff" points="402.8,-118.53 398.11,-121.38 400.32,-118.84 397.83,-119.15 397.83,-119.15 397.83,-119.15 400.32,-118.84 397.56,-116.91 402.8,-118.53 402.8,-118.53"/>
</a>
</g>
</g>
<!-- Node7 -->
<g id="Node000007" class="node">
<title>Node7</title>
<g id="a_Node000007"><a xlink:href="../../dc/db4/classCardDatabaseManager.html#a7dc153d2d7691d69916d2154a05c5ed1" target="_top" xlink:title="Returns the CardDatabaseQuerier of the singleton database.">
<polygon fill="white" stroke="#666666" points="528,-78 400,-78 400,-48 528,-48 528,-78"/>
<text text-anchor="start" x="408" y="-66" font-family="Helvetica,sans-Serif" font-size="10.00">CardDatabaseManager</text>
<text text-anchor="middle" x="464" y="-55" font-family="Helvetica,sans-Serif" font-size="10.00">::query</text>
</a>
</g>
</g>
<!-- Node2&#45;&gt;Node7 -->
<g id="edge6_Node000002_Node000007" class="edge">
<title>Node2&#45;&gt;Node7</title>
<g id="a_edge6_Node000002_Node000007"><a xlink:title=" ">
<path fill="none" stroke="#63b8ff" d="M329.74,-119.88C337.36,-117.26 344.96,-114.3 352,-111 369.41,-102.84 370.68,-95.34 388,-87 393.29,-84.45 398.92,-82.08 404.62,-79.9"/>
<polygon fill="#63b8ff" stroke="#63b8ff" points="409.43,-78.12 405.52,-81.97 407.08,-78.99 404.74,-79.86 404.74,-79.86 404.74,-79.86 407.08,-78.99 403.96,-77.75 409.43,-78.12 409.43,-78.12"/>
</a>
</g>
</g>
<!-- Node11 -->
<g id="Node000011" class="node">
<title>Node11</title>
<g id="a_Node000011"><a xlink:href="../../d7/d02/classDeckListStatisticsAnalyzer.html#a73994afbeb44a01460daa0d9f2e89ae6" target="_top" xlink:title=" ">
<polygon fill="white" stroke="#666666" points="537,-30 391,-30 391,0 537,0 537,-30"/>
<text text-anchor="start" x="399" y="-18" font-family="Helvetica,sans-Serif" font-size="10.00">DeckListStatisticsAnalyzer</text>
<text text-anchor="middle" x="464" y="-7" font-family="Helvetica,sans-Serif" font-size="10.00">::statsUpdated</text>
</a>
</g>
</g>
<!-- Node2&#45;&gt;Node11 -->
<g id="edge11_Node000002_Node000011" class="edge">
<title>Node2&#45;&gt;Node11</title>
<g id="a_edge11_Node000002_Node000011"><a xlink:title=" ">
<path fill="none" stroke="#63b8ff" d="M338.68,-119.81C343.44,-117.3 347.95,-114.39 352,-111 379.42,-88.02 360.83,-62.28 388,-39 390.78,-36.62 393.81,-34.47 396.99,-32.53"/>
<polygon fill="#63b8ff" stroke="#63b8ff" points="401.42,-30.02 398.18,-34.44 399.24,-31.25 397.07,-32.49 397.07,-32.49 397.07,-32.49 399.24,-31.25 395.96,-30.53 401.42,-30.02 401.42,-30.02"/>
</a>
</g>
</g>
<!-- Node8 -->
<g id="Node000008" class="node">
<title>Node8</title>
<g id="a_Node000008"><a xlink:href="../../dc/db4/classCardDatabaseManager.html#ad3973b040eb93df3be6bd2e790c53d59" target="_top" xlink:title="Returns the singleton CardDatabase instance.">
<polygon fill="white" stroke="#666666" points="704,-99 576,-99 576,-69 704,-69 704,-99"/>
<text text-anchor="start" x="584" y="-87" font-family="Helvetica,sans-Serif" font-size="10.00">CardDatabaseManager</text>
<text text-anchor="middle" x="640" y="-76" font-family="Helvetica,sans-Serif" font-size="10.00">::getInstance</text>
</a>
</g>
</g>
<!-- Node7&#45;&gt;Node8 -->
<g id="edge7_Node000007_Node000008" class="edge">
<title>Node7&#45;&gt;Node8</title>
<g id="a_edge7_Node000007_Node000008"><a xlink:title=" ">
<path fill="none" stroke="#63b8ff" d="M528.31,-70.64C542.07,-72.3 556.69,-74.07 570.63,-75.75"/>
<polygon fill="#63b8ff" stroke="#63b8ff" points="575.74,-76.36 570.5,-78 573.25,-76.07 570.77,-75.77 570.77,-75.77 570.77,-75.77 573.25,-76.07 571.04,-73.53 575.74,-76.36 575.74,-76.36"/>
</a>
</g>
</g>
<!-- Node9 -->
<g id="Node000009" class="node">
<title>Node9</title>
<g id="a_Node000009"><a xlink:href="../../d5/d45/classCardDatabase.html#affe0baec75387712dc3a93199b56fc08" target="_top" xlink:title="Returns the querier for performing card lookups.">
<polygon fill="white" stroke="#666666" points="699.5,-50.5 580.5,-50.5 580.5,-31.5 699.5,-31.5 699.5,-50.5"/>
<text text-anchor="middle" x="640" y="-38.5" font-family="Helvetica,sans-Serif" font-size="10.00">CardDatabase::query</text>
</a>
</g>
</g>
<!-- Node7&#45;&gt;Node9 -->
<g id="edge8_Node000007_Node000009" class="edge">
<title>Node7&#45;&gt;Node9</title>
<g id="a_edge8_Node000007_Node000009"><a xlink:title=" ">
<path fill="none" stroke="#63b8ff" d="M528.31,-55C543.59,-53.06 559.92,-51 575.22,-49.06"/>
<polygon fill="#63b8ff" stroke="#63b8ff" points="580.37,-48.41 575.69,-51.27 577.89,-48.73 575.4,-49.04 575.4,-49.04 575.4,-49.04 577.89,-48.73 575.12,-46.81 580.37,-48.41 580.37,-48.41"/>
</a>
</g>
</g>
<!-- Node10 -->
<g id="Node000010" class="node">
<title>Node10</title>
<g id="a_Node000010"><a xlink:href="../../d5/d45/classCardDatabase.html#ac86d4003efc8430ad7363557149e0e5a" target="_top" xlink:title=" ">
<polygon fill="white" stroke="#666666" points="901,-56 740,-56 740,-26 901,-26 901,-56"/>
<text text-anchor="start" x="748" y="-44" font-family="Helvetica,sans-Serif" font-size="10.00">CardDatabase::CardDatabase</text>
<text text-anchor="middle" x="820.5" y="-33" font-family="Helvetica,sans-Serif" font-size="10.00">Querier</text>
</a>
</g>
</g>
<!-- Node9&#45;&gt;Node10 -->
<g id="edge9_Node000009_Node000010" class="edge">
<title>Node9&#45;&gt;Node10</title>
<g id="a_edge9_Node000009_Node000010"><a xlink:title=" ">
<path fill="none" stroke="#63b8ff" d="M699.94,-41C711.14,-41 723.06,-41 734.87,-41"/>
<polygon fill="#63b8ff" stroke="#63b8ff" points="739.92,-41 734.92,-43.25 737.42,-41 734.92,-41 734.92,-41 734.92,-41 737.42,-41 734.92,-38.75 739.92,-41 739.92,-41"/>
</a>
</g>
</g>
<!-- Node10&#45;&gt;Node10 -->
<g id="edge10_Node000010_Node000010" class="edge">
<title>Node10&#45;&gt;Node10</title>
<g id="a_edge10_Node000010_Node000010"><a xlink:title=" ">
<path fill="none" stroke="#63b8ff" d="M788.86,-56.28C781.83,-65.41 792.38,-74 820.5,-74 843.79,-74 855.03,-68.11 854.21,-60.89"/>
<polygon fill="#63b8ff" stroke="#63b8ff" points="852.14,-56.28 856.24,-59.92 853.16,-58.56 854.18,-60.84 854.18,-60.84 854.18,-60.84 853.16,-58.56 852.13,-61.76 852.14,-56.28 852.14,-56.28"/>
</a>
</g>
</g>
</g>
</svg>

<g id="navigator" transform="translate(0 0)" fill="#404254">
  <rect fill="#f2f5e9" fill-opacity="0.5" stroke="#606060" stroke-width=".5" x="0" y="0" width="60" height="60"/>
  <use id="zoomplus" xlink:href="#zoomPlus" x="17" y="9" onmousedown="handleZoom(evt,'in')"/>
  <use id="zoomminus" xlink:href="#zoomMin" x="42" y="9" onmousedown="handleZoom(evt,'out')"/>
  <use id="reset" xlink:href="#resetDef" x="30" y="36" onmousedown="handleReset()"/>
   <use id="arrowup" xlink:href="#arrowUp" x="0" y="0" onmousedown="handlePan(0,-1)"/>
  <use id="arrowright" xlink:href="#arrowRight" x="0" y="0" onmousedown="handlePan(1,0)"/>
  <use id="arrowdown" xlink:href="#arrowDown" x="0" y="0" onmousedown="handlePan(0,1)"/>
  <use id="arrowleft" xlink:href="#arrowLeft" x="0" y="0" onmousedown="handlePan(-1,0)"/>
</g>
<svg viewBox="0 0 15 15" width="100%" height="30px" preserveAspectRatio="xMaxYMin meet">
 <g id="arrow_out" transform="scale(0.3 0.3)">
  <a xlink:href="classDeckListStatisticsAnalyzer_a3fae189638ecd3d3b3f6b2b8f9af83b8_cgraph_org.svg" target="_base">
   <rect id="button" ry="5" rx="5" y="6" x="6" height="38" width="38"
        fill="#f2f5e9" fill-opacity="0.5" stroke="#606060" stroke-width="1.0"/>
   <path id="arrow"
     d="M 11.500037,31.436501 C 11.940474,20.09759 22.043105,11.32322 32.158766,21.979434 L 37.068811,17.246167 C 37.068811,17.246167 37.088388,32 37.088388,32 L 22.160133,31.978069 C 22.160133,31.978069 26.997745,27.140456 26.997745,27.140456 C 18.528582,18.264221 13.291696,25.230495 11.500037,31.436501 z"
     style="fill:#404040;"/>
  </a>
 </g>
</svg>

<style type='text/css'>
<![CDATA[
[data-mouse-over-selected='false'] { opacity: 0.7; }
[data-mouse-over-selected='true']  { opacity: 1.0; }
]]>
</style>
<script type="application/ecmascript"><![CDATA[
document.addEventListener('DOMContentLoaded', (event) => {
  highlightEdges();
  highlightAdjacentNodes();
});
]]></script>
</svg>
