<?xml version="1.0" encoding="UTF-8" standalone="no"?>
<!DOCTYPE svg PUBLIC "-//W3C//DTD SVG 1.1//EN"
 "http://www.w3.org/Graphics/SVG/1.1/DTD/svg11.dtd">
<!-- Generated by graphviz version 2.43.0 (0)
 -->
<!-- Title: TabDeckEditorVisualTabWidget::cardDecremented Pages: 1 -->
<svg width="542pt" height="86pt"
 viewBox="0.00 0.00 542.00 86.00" xmlns="http://www.w3.org/2000/svg" xmlns:xlink="http://www.w3.org/1999/xlink">
<g id="graph0" class="graph" transform="scale(1 1) rotate(0) translate(4 82)">
<title>TabDeckEditorVisualTabWidget::cardDecremented</title>
<!-- Node1 -->
<g id="Node000001" class="node">
<title>Node1</title>
<g id="a_Node000001"><a xlink:title=" ">
<polygon fill="#999999" stroke="#666666" points="534,-54 367,-54 367,-24 534,-24 534,-54"/>
<text text-anchor="start" x="375" y="-42" font-family="Helvetica,sans-Serif" font-size="10.00">TabDeckEditorVisualTabWidget</text>
<text text-anchor="middle" x="450.5" y="-31" font-family="Helvetica,sans-Serif" font-size="10.00">::cardDecremented</text>
</a>
</g>
</g>
<!-- Node2 -->
<g id="Node000002" class="node">
<title>Node2</title>
<g id="a_Node000002"><a xlink:href="../../dc/d63/classTabDeckEditorVisual.html#ae20d58ad11818d4afe126e8f13cbb27d" target="_top" xlink:title="Create central frame for visual widgets.">
<polygon fill="white" stroke="#666666" points="304,-78 185,-78 185,-48 304,-48 304,-78"/>
<text text-anchor="start" x="193" y="-66" font-family="Helvetica,sans-Serif" font-size="10.00">TabDeckEditorVisual</text>
<text text-anchor="middle" x="244.5" y="-55" font-family="Helvetica,sans-Serif" font-size="10.00">::createCentralFrame</text>
</a>
</g>
</g>
<!-- Node1&#45;&gt;Node2 -->
<g id="edge1_Node000001_Node000002" class="edge">
<title>Node1&#45;&gt;Node2</title>
<g id="a_edge1_Node000001_Node000002"><a xlink:title=" ">
<path fill="none" stroke="#63b8ff" d="M361.39,-49.37C342.05,-51.64 322.04,-54 304.2,-56.09"/>
<polygon fill="#63b8ff" stroke="#63b8ff" points="366.82,-48.73 362.12,-51.55 364.34,-49.02 361.85,-49.31 361.85,-49.31 361.85,-49.31 364.34,-49.02 361.59,-47.08 366.82,-48.73 366.82,-48.73"/>
</a>
</g>
</g>
<!-- Node4 -->
<g id="Node000004" class="node">
<title>Node4</title>
<g id="a_Node000004"><a xlink:href="../../d9/dcf/classTabDeckEditorVisualTabWidget.html#af10392afb62b1d5edc4b79a1fdc45774" target="_top" xlink:title="Construct the tab widget with required models.">
<polygon fill="white" stroke="#666666" points="331,-30 158,-30 158,0 331,0 331,-30"/>
<text text-anchor="start" x="166" y="-18" font-family="Helvetica,sans-Serif" font-size="10.00">TabDeckEditorVisualTabWidget</text>
<text text-anchor="middle" x="244.5" y="-7" font-family="Helvetica,sans-Serif" font-size="10.00">::TabDeckEditorVisualTabWidget</text>
</a>
</g>
</g>
<!-- Node1&#45;&gt;Node4 -->
<g id="edge3_Node000001_Node000004" class="edge">
<title>Node1&#45;&gt;Node4</title>
<g id="a_edge3_Node000001_Node000004"><a xlink:title=" ">
<path fill="none" stroke="#63b8ff" d="M361.58,-28.66C351.54,-27.48 341.31,-26.27 331.29,-25.09"/>
<polygon fill="#63b8ff" stroke="#63b8ff" points="366.82,-29.27 361.59,-30.92 364.34,-28.98 361.85,-28.69 361.85,-28.69 361.85,-28.69 364.34,-28.98 362.12,-26.45 366.82,-29.27 366.82,-29.27"/>
</a>
</g>
</g>
<!-- Node3 -->
<g id="Node000003" class="node">
<title>Node3</title>
<g id="a_Node000003"><a xlink:href="../../dc/d63/classTabDeckEditorVisual.html#a81c50a180d397ad489b4ff049cd809da" target="_top" xlink:title="Constructs a visual deck editor tab.">
<polygon fill="white" stroke="#666666" points="122,-78 0,-78 0,-48 122,-48 122,-78"/>
<text text-anchor="start" x="8" y="-66" font-family="Helvetica,sans-Serif" font-size="10.00">TabDeckEditorVisual</text>
<text text-anchor="middle" x="61" y="-55" font-family="Helvetica,sans-Serif" font-size="10.00">::TabDeckEditorVisual</text>
</a>
</g>
</g>
<!-- Node2&#45;&gt;Node3 -->
<g id="edge2_Node000002_Node000003" class="edge">
<title>Node2&#45;&gt;Node3</title>
<g id="a_edge2_Node000002_Node000003"><a xlink:title=" ">
<path fill="none" stroke="#63b8ff" d="M179.59,-63C160.88,-63 140.49,-63 122.03,-63"/>
<polygon fill="#63b8ff" stroke="#63b8ff" points="184.82,-63 179.82,-65.25 182.32,-63 179.82,-63 179.82,-63 179.82,-63 182.32,-63 179.82,-60.75 184.82,-63 184.82,-63"/>
</a>
</g>
</g>
</g>
</svg>
