<?xml version="1.0" encoding="UTF-8" standalone="no"?>
<!DOCTYPE svg PUBLIC "-//W3C//DTD SVG 1.1//EN"
 "http://www.w3.org/Graphics/SVG/1.1/DTD/svg11.dtd">
<!-- Generated by graphviz version 2.43.0 (0)
 -->
<!-- Title: cockatrice/src/game/log/message_log_widget.h Pages: 1 -->
<!--zoomable 324 -->

<svg id="main" version="1.1" xmlns="http://www.w3.org/2000/svg" xmlns:xlink="http://www.w3.org/1999/xlink" xml:space="preserve" onload="init(evt)">

<style type="text/css"><![CDATA[
.node, .edge {opacity: 0.7;}
.node.selected, .edge.selected {opacity: 1;}
.edge:hover path { stroke: red; }
.edge:hover polygon { stroke: red; fill: red; }
]]></style>

<defs>
  <circle id="rim" cx="0" cy="0" r="7"/>
  <circle id="rim2" cx="0" cy="0" r="3.5"/>
  <g id="zoomPlus">
    <use xlink:href="#rim" fill="#404040"><set attributeName="fill" to="#808080" begin="zoomplus.mouseover" end="zoomplus.mouseout"/></use>
    <path d="M-4,0h8M0,-4v8" fill="none" stroke="white" stroke-width="1.5" pointer-events="none"/>
  </g>
  <g id="zoomMin">
    <use xlink:href="#rim" fill="#404040"><set attributeName="fill" to="#808080" begin="zoomminus.mouseover" end="zoomminus.mouseout"/></use>
    <path d="M-4,0h8" fill="none" stroke="white" stroke-width="1.5" pointer-events="none"/>
  </g>
  <g id="arrowUp" transform="translate(30 24)">
    <use xlink:href="#rim"/>
    <path pointer-events="none" fill="none" stroke="white" stroke-width="1.5" d="M0,-3.0v7 M-2.5,-0.5L0,-3.0L2.5,-0.5"/>
  </g>
  <g id="arrowRight" transform="rotate(90) translate(36 -43)">
    <use xlink:href="#rim"/>
    <path pointer-events="none" fill="none" stroke="white" stroke-width="1.5" d="M0,-3.0v7 M-2.5,-0.5L0,-3.0L2.5,-0.5"/>
  </g>
  <g id="arrowDown" transform="rotate(180) translate(-30 -48)">
    <use xlink:href="#rim"/>
    <path pointer-events="none" fill="none" stroke="white" stroke-width="1.5" d="M0,-3.0v7 M-2.5,-0.5L0,-3.0L2.5,-0.5"/>
  </g>
  <g id="arrowLeft" transform="rotate(270) translate(-36 17)">
    <use xlink:href="#rim"/>
    <path pointer-events="none" fill="none" stroke="white" stroke-width="1.5" d="M0,-3.0v7 M-2.5,-0.5L0,-3.0L2.5,-0.5"/>
  </g>
  <g id="resetDef">
    <use xlink:href="#rim2" fill="#404040"><set attributeName="fill" to="#808080" begin="reset.mouseover" end="reset.mouseout"/></use>
  </g>
</defs>
<script type="application/ecmascript">
var viewWidth = 1576;
var viewHeight = 324;
var sectionId = 'dynsection-0';
</script>
<script type="application/ecmascript" xlink:href="../../svg.min.js"/>
<svg id="graph" class="graph">
<g id="viewport">
<title>cockatrice/src/game/log/message_log_widget.h</title>
<!-- Node1 -->
<g id="Node000001" class="node">
<title>Node1</title>
<g id="a_Node000001"><a xlink:title="TODO: Document this.">
<polygon fill="#999999" stroke="#666666" points="1100,-316 951,-316 951,-286 1100,-286 1100,-316"/>
<text text-anchor="start" x="959" y="-304" font-family="Helvetica,sans-Serif" font-size="10.00">cockatrice/src/game</text>
<text text-anchor="middle" x="1025.5" y="-293" font-family="Helvetica,sans-Serif" font-size="10.00">/log/message_log_widget.h</text>
</a>
</g>
</g>
<!-- Node2 -->
<g id="Node000002" class="node">
<title>Node2</title>
<g id="a_Node000002"><a xlink:href="../../d8/d9f/chat__view_8h.html" target="_top" xlink:title="TODO: Document this.">
<polygon fill="white" stroke="#666666" points="759,-250 632,-250 632,-209 759,-209 759,-250"/>
<text text-anchor="start" x="640" y="-238" font-family="Helvetica,sans-Serif" font-size="10.00">../../interface/widgets</text>
<text text-anchor="start" x="640" y="-227" font-family="Helvetica,sans-Serif" font-size="10.00">/server/chat_view/chat</text>
<text text-anchor="middle" x="695.5" y="-216" font-family="Helvetica,sans-Serif" font-size="10.00">_view.h</text>
</a>
</g>
</g>
<!-- Node1&#45;&gt;Node2 -->
<g id="edge1_Node000001_Node000002" class="edge">
<title>Node1&#45;&gt;Node2</title>
<g id="a_edge1_Node000001_Node000002"><a xlink:title=" ">
<path fill="none" stroke="#63b8ff" d="M958.72,-285.94C902.14,-274.02 821.33,-257 764.21,-244.97"/>
<polygon fill="#63b8ff" stroke="#63b8ff" points="759.1,-243.89 764.46,-242.72 761.55,-244.41 763.99,-244.93 763.99,-244.93 763.99,-244.93 761.55,-244.41 763.53,-247.13 759.1,-243.89 759.1,-243.89"/>
</a>
</g>
</g>
<!-- Node22 -->
<g id="Node000022" class="node">
<title>Node22</title>
<g id="a_Node000022"><a xlink:href="../../dd/dbf/card__zone__logic_8h.html" target="_top" xlink:title="TODO: Document this.">
<polygon fill="white" stroke="#666666" points="1449.5,-244.5 1345.5,-244.5 1345.5,-214.5 1449.5,-214.5 1449.5,-244.5"/>
<text text-anchor="start" x="1353.5" y="-232.5" font-family="Helvetica,sans-Serif" font-size="10.00">../zones/logic/card</text>
<text text-anchor="middle" x="1397.5" y="-221.5" font-family="Helvetica,sans-Serif" font-size="10.00">_zone_logic.h</text>
</a>
</g>
</g>
<!-- Node1&#45;&gt;Node22 -->
<g id="edge23_Node000001_Node000022" class="edge">
<title>Node1&#45;&gt;Node22</title>
<g id="a_edge23_Node000001_Node000022"><a xlink:title=" ">
<path fill="none" stroke="#63b8ff" d="M1100.33,-286.02C1171.15,-272.79 1275.94,-253.21 1340.3,-241.19"/>
<polygon fill="#63b8ff" stroke="#63b8ff" points="1345.25,-240.26 1340.75,-243.39 1342.79,-240.72 1340.34,-241.18 1340.34,-241.18 1340.34,-241.18 1342.79,-240.72 1339.92,-238.97 1345.25,-240.26 1345.25,-240.26"/>
</a>
</g>
</g>
<!-- Node3 -->
<g id="Node000003" class="node">
<title>Node3</title>
<g id="a_Node000003"><a xlink:title=" ">
<polygon fill="#e0e0e0" stroke="#999999" points="341.5,-167.5 217.5,-167.5 217.5,-137.5 341.5,-137.5 341.5,-167.5"/>
<text text-anchor="start" x="225.5" y="-155.5" font-family="Helvetica,sans-Serif" font-size="10.00">../../interface/widgets</text>
<text text-anchor="middle" x="279.5" y="-144.5" font-family="Helvetica,sans-Serif" font-size="10.00">/tabs/tab_supervisor.h</text>
</a>
</g>
</g>
<!-- Node2&#45;&gt;Node3 -->
<g id="edge2_Node000002_Node000003" class="edge">
<title>Node2&#45;&gt;Node3</title>
<g id="a_edge2_Node000002_Node000003"><a xlink:title=" ">
<path fill="none" stroke="#63b8ff" d="M631.84,-220.37C562.32,-211 447.88,-194.14 350.5,-173 344.74,-171.75 338.76,-170.32 332.81,-168.81"/>
<polygon fill="#63b8ff" stroke="#63b8ff" points="327.83,-167.53 333.23,-166.6 330.25,-168.15 332.67,-168.77 332.67,-168.77 332.67,-168.77 330.25,-168.15 332.11,-170.95 327.83,-167.53 327.83,-167.53"/>
</a>
</g>
</g>
<!-- Node4 -->
<g id="Node000004" class="node">
<title>Node4</title>
<g id="a_Node000004"><a xlink:href="../../d9/d2a/user__list__widget_8h.html" target="_top" xlink:title="TODO: Document this.">
<polygon fill="white" stroke="#666666" points="497.5,-162 359.5,-162 359.5,-143 497.5,-143 497.5,-162"/>
<text text-anchor="middle" x="428.5" y="-150" font-family="Helvetica,sans-Serif" font-size="10.00">../user/user_list_widget.h</text>
</a>
</g>
</g>
<!-- Node2&#45;&gt;Node4 -->
<g id="edge3_Node000002_Node000004" class="edge">
<title>Node2&#45;&gt;Node4</title>
<g id="a_edge3_Node000002_Node000004"><a xlink:title=" ">
<path fill="none" stroke="#63b8ff" d="M631.89,-210.63C579.42,-195.89 506.89,-175.52 464.12,-163.5"/>
<polygon fill="#63b8ff" stroke="#63b8ff" points="459.05,-162.08 464.47,-161.27 461.46,-162.76 463.87,-163.43 463.87,-163.43 463.87,-163.43 461.46,-162.76 463.26,-165.6 459.05,-162.08 459.05,-162.08"/>
</a>
</g>
</g>
<!-- Node11 -->
<g id="Node000011" class="node">
<title>Node11</title>
<g id="a_Node000011"><a xlink:href="../../db/da4/user__level_8h.html" target="_top" xlink:title=" ">
<polygon fill="white" stroke="#666666" points="938,-96 787,-96 787,-66 938,-66 938,-96"/>
<text text-anchor="start" x="795" y="-84" font-family="Helvetica,sans-Serif" font-size="10.00">libcockatrice/network</text>
<text text-anchor="middle" x="862.5" y="-73" font-family="Helvetica,sans-Serif" font-size="10.00">/server/remote/user_level.h</text>
</a>
</g>
</g>
<!-- Node2&#45;&gt;Node11 -->
<g id="edge22_Node000002_Node000011" class="edge">
<title>Node2&#45;&gt;Node11</title>
<g id="a_edge22_Node000002_Node000011"><a xlink:title=" ">
<path fill="none" stroke="#63b8ff" d="M631.88,-222.02C600.08,-215.2 564.24,-201.29 544.5,-173 534.07,-158.06 532.64,-145.83 544.5,-132 578.6,-92.23 725.76,-104.26 777.5,-96 778.95,-95.77 780.42,-95.53 781.9,-95.3"/>
<polygon fill="#63b8ff" stroke="#63b8ff" points="786.96,-94.48 782.38,-97.5 784.49,-94.88 782.03,-95.28 782.03,-95.28 782.03,-95.28 784.49,-94.88 781.67,-93.05 786.96,-94.48 786.96,-94.48"/>
</a>
</g>
</g>
<!-- Node15 -->
<g id="Node000015" class="node">
<title>Node15</title>
<g id="a_Node000015"><a xlink:title=" ">
<polygon fill="#e0e0e0" stroke="#999999" points="609,-162 554,-162 554,-143 609,-143 609,-162"/>
<text text-anchor="middle" x="581.5" y="-150" font-family="Helvetica,sans-Serif" font-size="10.00">QAction</text>
</a>
</g>
</g>
<!-- Node2&#45;&gt;Node15 -->
<g id="edge14_Node000002_Node000015" class="edge">
<title>Node2&#45;&gt;Node15</title>
<g id="a_edge14_Node000002_Node000015"><a xlink:title=" ">
<path fill="none" stroke="#63b8ff" d="M665.85,-208.99C644.56,-194.99 616.6,-176.6 598.84,-164.91"/>
<polygon fill="#63b8ff" stroke="#63b8ff" points="594.55,-162.09 599.97,-162.96 596.64,-163.46 598.73,-164.84 598.73,-164.84 598.73,-164.84 596.64,-163.46 597.49,-166.72 594.55,-162.09 594.55,-162.09"/>
</a>
</g>
</g>
<!-- Node16 -->
<g id="Node000016" class="node">
<title>Node16</title>
<g id="a_Node000016"><a xlink:title=" ">
<polygon fill="#e0e0e0" stroke="#999999" points="677.5,-162 627.5,-162 627.5,-143 677.5,-143 677.5,-162"/>
<text text-anchor="middle" x="652.5" y="-150" font-family="Helvetica,sans-Serif" font-size="10.00">QColor</text>
</a>
</g>
</g>
<!-- Node2&#45;&gt;Node16 -->
<g id="edge15_Node000002_Node000016" class="edge">
<title>Node2&#45;&gt;Node16</title>
<g id="a_edge15_Node000002_Node000016"><a xlink:title=" ">
<path fill="none" stroke="#63b8ff" d="M684.2,-208.79C676.63,-195.58 666.85,-178.53 660.17,-166.87"/>
<polygon fill="#63b8ff" stroke="#63b8ff" points="657.51,-162.24 661.95,-165.45 658.75,-164.41 660,-166.57 660,-166.57 660,-166.57 658.75,-164.41 658.04,-167.69 657.51,-162.24 657.51,-162.24"/>
</a>
</g>
</g>
<!-- Node17 -->
<g id="Node000017" class="node">
<title>Node17</title>
<g id="a_Node000017"><a xlink:title=" ">
<polygon fill="#e0e0e0" stroke="#999999" points="779.5,-162 695.5,-162 695.5,-143 779.5,-143 779.5,-162"/>
<text text-anchor="middle" x="737.5" y="-150" font-family="Helvetica,sans-Serif" font-size="10.00">QTextBrowser</text>
</a>
</g>
</g>
<!-- Node2&#45;&gt;Node17 -->
<g id="edge16_Node000002_Node000017" class="edge">
<title>Node2&#45;&gt;Node17</title>
<g id="a_edge16_Node000002_Node000017"><a xlink:title=" ">
<path fill="none" stroke="#63b8ff" d="M706.54,-208.79C713.94,-195.58 723.49,-178.53 730.01,-166.87"/>
<polygon fill="#63b8ff" stroke="#63b8ff" points="732.61,-162.24 732.13,-167.7 731.39,-164.42 730.16,-166.6 730.16,-166.6 730.16,-166.6 731.39,-164.42 728.2,-165.5 732.61,-162.24 732.61,-162.24"/>
</a>
</g>
</g>
<!-- Node18 -->
<g id="Node000018" class="node">
<title>Node18</title>
<g id="a_Node000018"><a xlink:title=" ">
<polygon fill="#e0e0e0" stroke="#999999" points="873.5,-162 797.5,-162 797.5,-143 873.5,-143 873.5,-162"/>
<text text-anchor="middle" x="835.5" y="-150" font-family="Helvetica,sans-Serif" font-size="10.00">QTextCursor</text>
</a>
</g>
</g>
<!-- Node2&#45;&gt;Node18 -->
<g id="edge17_Node000002_Node000018" class="edge">
<title>Node2&#45;&gt;Node18</title>
<g id="a_edge17_Node000002_Node000018"><a xlink:title=" ">
<path fill="none" stroke="#63b8ff" d="M731.92,-208.99C758.39,-194.81 793.26,-176.13 815.03,-164.47"/>
<polygon fill="#63b8ff" stroke="#63b8ff" points="819.47,-162.09 816.12,-166.43 817.27,-163.27 815.06,-164.45 815.06,-164.45 815.06,-164.45 817.27,-163.27 814,-162.47 819.47,-162.09 819.47,-162.09"/>
</a>
</g>
</g>
<!-- Node19 -->
<g id="Node000019" class="node">
<title>Node19</title>
<g id="a_Node000019"><a xlink:title=" ">
<polygon fill="#e0e0e0" stroke="#999999" points="983,-162 892,-162 892,-143 983,-143 983,-162"/>
<text text-anchor="middle" x="937.5" y="-150" font-family="Helvetica,sans-Serif" font-size="10.00">QTextFragment</text>
</a>
</g>
</g>
<!-- Node2&#45;&gt;Node19 -->
<g id="edge18_Node000002_Node000019" class="edge">
<title>Node2&#45;&gt;Node19</title>
<g id="a_edge18_Node000002_Node000019"><a xlink:title=" ">
<path fill="none" stroke="#63b8ff" d="M759.37,-210.44C795.63,-199.96 841.76,-186.26 882.5,-173 891.2,-170.17 900.6,-166.91 909.13,-163.88"/>
<polygon fill="#63b8ff" stroke="#63b8ff" points="914.31,-162.02 910.36,-165.83 911.96,-162.87 909.6,-163.71 909.6,-163.71 909.6,-163.71 911.96,-162.87 908.84,-161.59 914.31,-162.02 914.31,-162.02"/>
</a>
</g>
</g>
<!-- Node20 -->
<g id="Node000020" class="node">
<title>Node20</title>
<g id="a_Node000020"><a xlink:href="../../da/d67/room__message__type_8h.html" target="_top" xlink:title=" ">
<polygon fill="white" stroke="#666666" points="1168,-173 1001,-173 1001,-132 1168,-132 1168,-173"/>
<text text-anchor="start" x="1009" y="-161" font-family="Helvetica,sans-Serif" font-size="10.00">libcockatrice/network</text>
<text text-anchor="start" x="1009" y="-150" font-family="Helvetica,sans-Serif" font-size="10.00">/server/remote/room_message</text>
<text text-anchor="middle" x="1084.5" y="-139" font-family="Helvetica,sans-Serif" font-size="10.00">_type.h</text>
</a>
</g>
</g>
<!-- Node2&#45;&gt;Node20 -->
<g id="edge19_Node000002_Node000020" class="edge">
<title>Node2&#45;&gt;Node20</title>
<g id="a_edge19_Node000002_Node000020"><a xlink:title=" ">
<path fill="none" stroke="#63b8ff" d="M759.09,-216.98C819.08,-206.02 911.5,-188.89 991.5,-173 992.94,-172.71 994.39,-172.42 995.86,-172.13"/>
<polygon fill="#63b8ff" stroke="#63b8ff" points="1000.87,-171.12 996.41,-174.32 998.41,-171.62 995.96,-172.11 995.96,-172.11 995.96,-172.11 998.41,-171.62 995.52,-169.9 1000.87,-171.12 1000.87,-171.12"/>
</a>
</g>
</g>
<!-- Node5 -->
<g id="Node000005" class="node">
<title>Node5</title>
<g id="a_Node000005"><a xlink:title=" ">
<polygon fill="#e0e0e0" stroke="#999999" points="77,-90.5 0,-90.5 0,-71.5 77,-71.5 77,-90.5"/>
<text text-anchor="middle" x="38.5" y="-78.5" font-family="Helvetica,sans-Serif" font-size="10.00">QComboBox</text>
</a>
</g>
</g>
<!-- Node4&#45;&gt;Node5 -->
<g id="edge4_Node000004_Node000005" class="edge">
<title>Node4&#45;&gt;Node5</title>
<g id="a_edge4_Node000004_Node000005"><a xlink:title=" ">
<path fill="none" stroke="#63b8ff" d="M397.55,-142.93C383.3,-139.21 366.13,-135.01 350.5,-132 234.22,-109.61 202.33,-120.65 86.5,-96 81.17,-94.87 75.57,-93.45 70.15,-91.95"/>
<polygon fill="#63b8ff" stroke="#63b8ff" points="65.23,-90.56 70.66,-89.75 67.64,-91.24 70.04,-91.92 70.04,-91.92 70.04,-91.92 67.64,-91.24 69.43,-94.08 65.23,-90.56 65.23,-90.56"/>
</a>
</g>
</g>
<!-- Node6 -->
<g id="Node000006" class="node">
<title>Node6</title>
<g id="a_Node000006"><a xlink:title=" ">
<polygon fill="#e0e0e0" stroke="#999999" points="151.5,-90.5 95.5,-90.5 95.5,-71.5 151.5,-71.5 151.5,-90.5"/>
<text text-anchor="middle" x="123.5" y="-78.5" font-family="Helvetica,sans-Serif" font-size="10.00">QDialog</text>
</a>
</g>
</g>
<!-- Node4&#45;&gt;Node6 -->
<g id="edge5_Node000004_Node000006" class="edge">
<title>Node4&#45;&gt;Node6</title>
<g id="a_edge5_Node000004_Node000006"><a xlink:title=" ">
<path fill="none" stroke="#63b8ff" d="M395.96,-142.92C382.01,-139.36 365.5,-135.29 350.5,-132 266.55,-113.57 243.23,-119.3 160.5,-96 156.78,-94.95 152.91,-93.69 149.13,-92.36"/>
<polygon fill="#63b8ff" stroke="#63b8ff" points="144.42,-90.64 149.89,-90.24 146.77,-91.5 149.12,-92.35 149.12,-92.35 149.12,-92.35 146.77,-91.5 148.35,-94.47 144.42,-90.64 144.42,-90.64"/>
</a>
</g>
</g>
<!-- Node7 -->
<g id="Node000007" class="node">
<title>Node7</title>
<g id="a_Node000007"><a xlink:title=" ">
<polygon fill="#e0e0e0" stroke="#999999" points="241.5,-90.5 169.5,-90.5 169.5,-71.5 241.5,-71.5 241.5,-90.5"/>
<text text-anchor="middle" x="205.5" y="-78.5" font-family="Helvetica,sans-Serif" font-size="10.00">QGroupBox</text>
</a>
</g>
</g>
<!-- Node4&#45;&gt;Node7 -->
<g id="edge6_Node000004_Node000007" class="edge">
<title>Node4&#45;&gt;Node7</title>
<g id="a_edge6_Node000004_Node000007"><a xlink:title=" ">
<path fill="none" stroke="#63b8ff" d="M401.16,-142.98C359.94,-130.13 282.06,-105.86 238.01,-92.13"/>
<polygon fill="#63b8ff" stroke="#63b8ff" points="233.07,-90.59 238.51,-89.93 235.45,-91.34 237.84,-92.08 237.84,-92.08 237.84,-92.08 235.45,-91.34 237.17,-94.23 233.07,-90.59 233.07,-90.59"/>
</a>
</g>
</g>
<!-- Node8 -->
<g id="Node000008" class="node">
<title>Node8</title>
<g id="a_Node000008"><a xlink:title=" ">
<polygon fill="#e0e0e0" stroke="#999999" points="381.5,-90.5 259.5,-90.5 259.5,-71.5 381.5,-71.5 381.5,-90.5"/>
<text text-anchor="middle" x="320.5" y="-78.5" font-family="Helvetica,sans-Serif" font-size="10.00">QStyledItemDelegate</text>
</a>
</g>
</g>
<!-- Node4&#45;&gt;Node8 -->
<g id="edge7_Node000004_Node000008" class="edge">
<title>Node4&#45;&gt;Node8</title>
<g id="a_edge7_Node000004_Node000008"><a xlink:title=" ">
<path fill="none" stroke="#63b8ff" d="M415.26,-142.98C395.91,-130.52 359.86,-107.33 338.24,-93.41"/>
<polygon fill="#63b8ff" stroke="#63b8ff" points="333.85,-90.59 339.27,-91.41 335.95,-91.94 338.06,-93.3 338.06,-93.3 338.06,-93.3 335.95,-91.94 336.84,-95.19 333.85,-90.59 333.85,-90.59"/>
</a>
</g>
</g>
<!-- Node9 -->
<g id="Node000009" class="node">
<title>Node9</title>
<g id="a_Node000009"><a xlink:title=" ">
<polygon fill="#e0e0e0" stroke="#999999" points="463,-90.5 400,-90.5 400,-71.5 463,-71.5 463,-90.5"/>
<text text-anchor="middle" x="431.5" y="-78.5" font-family="Helvetica,sans-Serif" font-size="10.00">QTextEdit</text>
</a>
</g>
</g>
<!-- Node4&#45;&gt;Node9 -->
<g id="edge8_Node000004_Node000009" class="edge">
<title>Node4&#45;&gt;Node9</title>
<g id="a_edge8_Node000004_Node000009"><a xlink:title=" ">
<path fill="none" stroke="#63b8ff" d="M428.87,-142.98C429.38,-131.2 430.3,-109.82 430.91,-95.76"/>
<polygon fill="#63b8ff" stroke="#63b8ff" points="431.13,-90.59 433.16,-95.68 431.02,-93.09 430.91,-95.59 430.91,-95.59 430.91,-95.59 431.02,-93.09 428.67,-95.49 431.13,-90.59 431.13,-90.59"/>
</a>
</g>
</g>
<!-- Node10 -->
<g id="Node000010" class="node">
<title>Node10</title>
<g id="a_Node000010"><a xlink:title=" ">
<polygon fill="#e0e0e0" stroke="#999999" points="582,-90.5 481,-90.5 481,-71.5 582,-71.5 582,-90.5"/>
<text text-anchor="middle" x="531.5" y="-78.5" font-family="Helvetica,sans-Serif" font-size="10.00">QTreeWidgetItem</text>
</a>
</g>
</g>
<!-- Node4&#45;&gt;Node10 -->
<g id="edge9_Node000004_Node000010" class="edge">
<title>Node4&#45;&gt;Node10</title>
<g id="a_edge9_Node000004_Node000010"><a xlink:title=" ">
<path fill="none" stroke="#63b8ff" d="M441.13,-142.98C459.59,-130.52 493.96,-107.33 514.59,-93.41"/>
<polygon fill="#63b8ff" stroke="#63b8ff" points="518.77,-90.59 515.88,-95.25 516.69,-91.99 514.62,-93.39 514.62,-93.39 514.62,-93.39 516.69,-91.99 513.36,-91.52 518.77,-90.59 518.77,-90.59"/>
</a>
</g>
</g>
<!-- Node4&#45;&gt;Node11 -->
<g id="edge10_Node000004_Node000011" class="edge">
<title>Node4&#45;&gt;Node11</title>
<g id="a_edge10_Node000004_Node000011"><a xlink:title=" ">
<path fill="none" stroke="#63b8ff" d="M461.46,-142.99C476.63,-139.27 494.91,-135.06 511.5,-132 628.82,-110.33 659.52,-113.7 777.5,-96 778.96,-95.78 780.43,-95.56 781.91,-95.33"/>
<polygon fill="#63b8ff" stroke="#63b8ff" points="786.97,-94.56 782.37,-97.54 784.5,-94.93 782.03,-95.31 782.03,-95.31 782.03,-95.31 784.5,-94.93 781.69,-93.09 786.97,-94.56 786.97,-94.56"/>
</a>
</g>
</g>
<!-- Node14 -->
<g id="Node000014" class="node">
<title>Node14</title>
<g id="a_Node000014"><a xlink:title=" ">
<polygon fill="#e0e0e0" stroke="#999999" points="769,-96 600,-96 600,-66 769,-66 769,-96"/>
<text text-anchor="start" x="608" y="-84" font-family="Helvetica,sans-Serif" font-size="10.00">libcockatrice/protocol</text>
<text text-anchor="middle" x="684.5" y="-73" font-family="Helvetica,sans-Serif" font-size="10.00">/pb/moderator_commands.pb.h</text>
</a>
</g>
</g>
<!-- Node4&#45;&gt;Node14 -->
<g id="edge13_Node000004_Node000014" class="edge">
<title>Node4&#45;&gt;Node14</title>
<g id="a_edge13_Node000004_Node000014"><a xlink:title=" ">
<path fill="none" stroke="#63b8ff" d="M459.89,-142.98C501.67,-131.64 576.27,-111.38 627.98,-97.35"/>
<polygon fill="#63b8ff" stroke="#63b8ff" points="632.91,-96.01 628.67,-99.49 630.49,-96.66 628.08,-97.32 628.08,-97.32 628.08,-97.32 630.49,-96.66 627.49,-95.15 632.91,-96.01 632.91,-96.01"/>
</a>
</g>
</g>
<!-- Node12 -->
<g id="Node000012" class="node">
<title>Node12</title>
<g id="a_Node000012"><a xlink:title=" ">
<polygon fill="#e0e0e0" stroke="#999999" points="1006.5,-24.5 956.5,-24.5 956.5,-5.5 1006.5,-5.5 1006.5,-24.5"/>
<text text-anchor="middle" x="981.5" y="-12.5" font-family="Helvetica,sans-Serif" font-size="10.00">QFlags</text>
</a>
</g>
</g>
<!-- Node11&#45;&gt;Node12 -->
<g id="edge11_Node000011_Node000012" class="edge">
<title>Node11&#45;&gt;Node12</title>
<g id="a_edge11_Node000011_Node000012"><a xlink:title=" ">
<path fill="none" stroke="#63b8ff" d="M888.62,-65.95C910.4,-54.24 941.02,-37.77 961.06,-26.99"/>
<polygon fill="#63b8ff" stroke="#63b8ff" points="965.66,-24.52 962.33,-28.87 963.46,-25.7 961.26,-26.89 961.26,-26.89 961.26,-26.89 963.46,-25.7 960.19,-24.9 965.66,-24.52 965.66,-24.52"/>
</a>
</g>
</g>
<!-- Node13 -->
<g id="Node000013" class="node">
<title>Node13</title>
<g id="a_Node000013"><a xlink:title=" ">
<polygon fill="#e0e0e0" stroke="#999999" points="929.5,-30 795.5,-30 795.5,0 929.5,0 929.5,-30"/>
<text text-anchor="start" x="803.5" y="-18" font-family="Helvetica,sans-Serif" font-size="10.00">libcockatrice/protocol</text>
<text text-anchor="middle" x="862.5" y="-7" font-family="Helvetica,sans-Serif" font-size="10.00">/pb/serverinfo_user.pb.h</text>
</a>
</g>
</g>
<!-- Node11&#45;&gt;Node13 -->
<g id="edge12_Node000011_Node000013" class="edge">
<title>Node11&#45;&gt;Node13</title>
<g id="a_edge12_Node000011_Node000013"><a xlink:title=" ">
<path fill="none" stroke="#63b8ff" d="M862.5,-65.8C862.5,-56.85 862.5,-45.18 862.5,-35.38"/>
<polygon fill="#63b8ff" stroke="#63b8ff" points="862.5,-30.16 864.75,-35.16 862.5,-32.66 862.5,-35.16 862.5,-35.16 862.5,-35.16 862.5,-32.66 860.25,-35.16 862.5,-30.16 862.5,-30.16"/>
</a>
</g>
</g>
<!-- Node20&#45;&gt;Node12 -->
<g id="edge20_Node000020_Node000012" class="edge">
<title>Node20&#45;&gt;Node12</title>
<g id="a_edge20_Node000020_Node000012"><a xlink:title=" ">
<path fill="none" stroke="#63b8ff" d="M1047,-131.87C1032.57,-122.68 1017.04,-110.53 1006.5,-96 991.91,-75.89 985.66,-47.03 983.12,-30.03"/>
<polygon fill="#63b8ff" stroke="#63b8ff" points="982.39,-24.75 985.3,-29.39 982.73,-27.22 983.07,-29.7 983.07,-29.7 983.07,-29.7 982.73,-27.22 980.84,-30.01 982.39,-24.75 982.39,-24.75"/>
</a>
</g>
</g>
<!-- Node21 -->
<g id="Node000021" class="node">
<title>Node21</title>
<g id="a_Node000021"><a xlink:title=" ">
<polygon fill="#e0e0e0" stroke="#999999" points="1153.5,-96 1015.5,-96 1015.5,-66 1153.5,-66 1153.5,-96"/>
<text text-anchor="start" x="1023.5" y="-84" font-family="Helvetica,sans-Serif" font-size="10.00">libcockatrice/protocol</text>
<text text-anchor="middle" x="1084.5" y="-73" font-family="Helvetica,sans-Serif" font-size="10.00">/pb/event_room_say.pb.h</text>
</a>
</g>
</g>
<!-- Node20&#45;&gt;Node21 -->
<g id="edge21_Node000020_Node000021" class="edge">
<title>Node20&#45;&gt;Node21</title>
<g id="a_edge21_Node000020_Node000021"><a xlink:title=" ">
<path fill="none" stroke="#63b8ff" d="M1084.5,-131.77C1084.5,-122.15 1084.5,-110.64 1084.5,-101.1"/>
<polygon fill="#63b8ff" stroke="#63b8ff" points="1084.5,-96.04 1086.75,-101.04 1084.5,-98.54 1084.5,-101.04 1084.5,-101.04 1084.5,-101.04 1084.5,-98.54 1082.25,-101.04 1084.5,-96.04 1084.5,-96.04"/>
</a>
</g>
</g>
<!-- Node23 -->
<g id="Node000023" class="node">
<title>Node23</title>
<g id="a_Node000023"><a xlink:href="../../d6/d94/translation_8h.html" target="_top" xlink:title=" ">
<polygon fill="white" stroke="#666666" points="1321,-162 1186,-162 1186,-143 1321,-143 1321,-162"/>
<text text-anchor="middle" x="1253.5" y="-150" font-family="Helvetica,sans-Serif" font-size="10.00">../../../client/translation.h</text>
</a>
</g>
</g>
<!-- Node22&#45;&gt;Node23 -->
<g id="edge24_Node000022_Node000023" class="edge">
<title>Node22&#45;&gt;Node23</title>
<g id="a_edge24_Node000022_Node000023"><a xlink:title=" ">
<path fill="none" stroke="#63b8ff" d="M1370.41,-214.39C1342.65,-199.93 1300.05,-177.74 1274.66,-164.52"/>
<polygon fill="#63b8ff" stroke="#63b8ff" points="1270.13,-162.16 1275.6,-162.48 1272.35,-163.32 1274.57,-164.47 1274.57,-164.47 1274.57,-164.47 1272.35,-163.32 1273.53,-166.47 1270.13,-162.16 1270.13,-162.16"/>
</a>
</g>
</g>
<!-- Node24 -->
<g id="Node000024" class="node">
<title>Node24</title>
<g id="a_Node000024"><a xlink:href="../../df/d73/card__list_8h.html" target="_top" xlink:title="TODO: Document this.">
<polygon fill="white" stroke="#666666" points="1455.5,-162 1339.5,-162 1339.5,-143 1455.5,-143 1455.5,-162"/>
<text text-anchor="middle" x="1397.5" y="-150" font-family="Helvetica,sans-Serif" font-size="10.00">../../board/card_list.h</text>
</a>
</g>
</g>
<!-- Node22&#45;&gt;Node24 -->
<g id="edge25_Node000022_Node000024" class="edge">
<title>Node22&#45;&gt;Node24</title>
<g id="a_edge25_Node000022_Node000024"><a xlink:title=" ">
<path fill="none" stroke="#63b8ff" d="M1397.5,-214.39C1397.5,-201.03 1397.5,-181.06 1397.5,-167.67"/>
<polygon fill="#63b8ff" stroke="#63b8ff" points="1397.5,-162.37 1399.75,-167.37 1397.5,-164.87 1397.5,-167.37 1397.5,-167.37 1397.5,-167.37 1397.5,-164.87 1395.25,-167.37 1397.5,-162.37 1397.5,-162.37"/>
</a>
</g>
</g>
<!-- Node26 -->
<g id="Node000026" class="node">
<title>Node26</title>
<g id="a_Node000026"><a xlink:title=" ">
<polygon fill="#e0e0e0" stroke="#999999" points="1537,-90.5 1430,-90.5 1430,-71.5 1537,-71.5 1537,-90.5"/>
<text text-anchor="middle" x="1483.5" y="-78.5" font-family="Helvetica,sans-Serif" font-size="10.00">QLoggingCategory</text>
</a>
</g>
</g>
<!-- Node22&#45;&gt;Node26 -->
<g id="edge28_Node000022_Node000026" class="edge">
<title>Node22&#45;&gt;Node26</title>
<g id="a_edge28_Node000022_Node000026"><a xlink:title=" ">
<path fill="none" stroke="#63b8ff" d="M1421.86,-214.29C1436.45,-204.51 1454.13,-190.21 1464.5,-173 1479.15,-148.7 1482.64,-114.86 1483.39,-96.04"/>
<polygon fill="#63b8ff" stroke="#63b8ff" points="1483.54,-90.71 1485.65,-95.77 1483.47,-93.21 1483.4,-95.71 1483.4,-95.71 1483.4,-95.71 1483.47,-93.21 1481.15,-95.64 1483.54,-90.71 1483.54,-90.71"/>
</a>
</g>
</g>
<!-- Node27 -->
<g id="Node000027" class="node">
<title>Node27</title>
<g id="a_Node000027"><a xlink:title=" ">
<polygon fill="#e0e0e0" stroke="#999999" points="1567.5,-162 1511.5,-162 1511.5,-143 1567.5,-143 1567.5,-162"/>
<text text-anchor="middle" x="1539.5" y="-150" font-family="Helvetica,sans-Serif" font-size="10.00">QObject</text>
</a>
</g>
</g>
<!-- Node22&#45;&gt;Node27 -->
<g id="edge29_Node000022_Node000027" class="edge">
<title>Node22&#45;&gt;Node27</title>
<g id="a_edge29_Node000022_Node000027"><a xlink:title=" ">
<path fill="none" stroke="#63b8ff" d="M1424.21,-214.39C1451.59,-199.93 1493.6,-177.74 1518.63,-164.52"/>
<polygon fill="#63b8ff" stroke="#63b8ff" points="1523.1,-162.16 1519.73,-166.49 1520.89,-163.33 1518.68,-164.5 1518.68,-164.5 1518.68,-164.5 1520.89,-163.33 1517.63,-162.51 1523.1,-162.16 1523.1,-162.16"/>
</a>
</g>
</g>
<!-- Node25 -->
<g id="Node000025" class="node">
<title>Node25</title>
<g id="a_Node000025"><a xlink:title=" ">
<polygon fill="#e0e0e0" stroke="#999999" points="1412,-90.5 1371,-90.5 1371,-71.5 1412,-71.5 1412,-90.5"/>
<text text-anchor="middle" x="1391.5" y="-78.5" font-family="Helvetica,sans-Serif" font-size="10.00">QList</text>
</a>
</g>
</g>
<!-- Node24&#45;&gt;Node25 -->
<g id="edge26_Node000024_Node000025" class="edge">
<title>Node24&#45;&gt;Node25</title>
<g id="a_edge26_Node000024_Node000025"><a xlink:title=" ">
<path fill="none" stroke="#63b8ff" d="M1396.76,-142.98C1395.75,-131.2 1393.9,-109.82 1392.69,-95.76"/>
<polygon fill="#63b8ff" stroke="#63b8ff" points="1392.24,-90.59 1394.91,-95.38 1392.46,-93.08 1392.67,-95.57 1392.67,-95.57 1392.67,-95.57 1392.46,-93.08 1390.43,-95.77 1392.24,-90.59 1392.24,-90.59"/>
</a>
</g>
</g>
<!-- Node24&#45;&gt;Node26 -->
<g id="edge27_Node000024_Node000026" class="edge">
<title>Node24&#45;&gt;Node26</title>
<g id="a_edge27_Node000024_Node000026"><a xlink:title=" ">
<path fill="none" stroke="#63b8ff" d="M1408.05,-142.98C1423.26,-130.68 1451.44,-107.91 1468.72,-93.94"/>
<polygon fill="#63b8ff" stroke="#63b8ff" points="1472.87,-90.59 1470.39,-95.48 1470.92,-92.16 1468.98,-93.73 1468.98,-93.73 1468.98,-93.73 1470.92,-92.16 1467.57,-91.98 1472.87,-90.59 1472.87,-90.59"/>
</a>
</g>
</g>
</g>
</svg>

<g id="navigator" transform="translate(0 0)" fill="#404254">
  <rect fill="#f2f5e9" fill-opacity="0.5" stroke="#606060" stroke-width=".5" x="0" y="0" width="60" height="60"/>
  <use id="zoomplus" xlink:href="#zoomPlus" x="17" y="9" onmousedown="handleZoom(evt,'in')"/>
  <use id="zoomminus" xlink:href="#zoomMin" x="42" y="9" onmousedown="handleZoom(evt,'out')"/>
  <use id="reset" xlink:href="#resetDef" x="30" y="36" onmousedown="handleReset()"/>
   <use id="arrowup" xlink:href="#arrowUp" x="0" y="0" onmousedown="handlePan(0,-1)"/>
  <use id="arrowright" xlink:href="#arrowRight" x="0" y="0" onmousedown="handlePan(1,0)"/>
  <use id="arrowdown" xlink:href="#arrowDown" x="0" y="0" onmousedown="handlePan(0,1)"/>
  <use id="arrowleft" xlink:href="#arrowLeft" x="0" y="0" onmousedown="handlePan(-1,0)"/>
</g>
<svg viewBox="0 0 15 15" width="100%" height="30px" preserveAspectRatio="xMaxYMin meet">
 <g id="arrow_out" transform="scale(0.3 0.3)">
  <a xlink:href="message__log__widget_8h__incl_org.svg" target="_base">
   <rect id="button" ry="5" rx="5" y="6" x="6" height="38" width="38"
        fill="#f2f5e9" fill-opacity="0.5" stroke="#606060" stroke-width="1.0"/>
   <path id="arrow"
     d="M 11.500037,31.436501 C 11.940474,20.09759 22.043105,11.32322 32.158766,21.979434 L 37.068811,17.246167 C 37.068811,17.246167 37.088388,32 37.088388,32 L 22.160133,31.978069 C 22.160133,31.978069 26.997745,27.140456 26.997745,27.140456 C 18.528582,18.264221 13.291696,25.230495 11.500037,31.436501 z"
     style="fill:#404040;"/>
  </a>
 </g>
</svg>

<style type='text/css'>
<![CDATA[
[data-mouse-over-selected='false'] { opacity: 0.7; }
[data-mouse-over-selected='true']  { opacity: 1.0; }
]]>
</style>
<script type="application/ecmascript"><![CDATA[
document.addEventListener('DOMContentLoaded', (event) => {
  highlightEdges();
  highlightAdjacentNodes();
});
]]></script>
</svg>
