<?xml version="1.0" encoding="UTF-8" standalone="no"?>
<!DOCTYPE svg PUBLIC "-//W3C//DTD SVG 1.1//EN"
 "http://www.w3.org/Graphics/SVG/1.1/DTD/svg11.dtd">
<!-- Generated by graphviz version 2.43.0 (0)
 -->
<!-- Title: Server_Player::onCardBeingMoved Pages: 1 -->
<!--zoomable 368 -->

<svg id="main" version="1.1" xmlns="http://www.w3.org/2000/svg" xmlns:xlink="http://www.w3.org/1999/xlink" xml:space="preserve" onload="init(evt)">

<style type="text/css"><![CDATA[
.node, .edge {opacity: 0.7;}
.node.selected, .edge.selected {opacity: 1;}
.edge:hover path { stroke: red; }
.edge:hover polygon { stroke: red; fill: red; }
]]></style>

<defs>
  <circle id="rim" cx="0" cy="0" r="7"/>
  <circle id="rim2" cx="0" cy="0" r="3.5"/>
  <g id="zoomPlus">
    <use xlink:href="#rim" fill="#404040"><set attributeName="fill" to="#808080" begin="zoomplus.mouseover" end="zoomplus.mouseout"/></use>
    <path d="M-4,0h8M0,-4v8" fill="none" stroke="white" stroke-width="1.5" pointer-events="none"/>
  </g>
  <g id="zoomMin">
    <use xlink:href="#rim" fill="#404040"><set attributeName="fill" to="#808080" begin="zoomminus.mouseover" end="zoomminus.mouseout"/></use>
    <path d="M-4,0h8" fill="none" stroke="white" stroke-width="1.5" pointer-events="none"/>
  </g>
  <g id="arrowUp" transform="translate(30 24)">
    <use xlink:href="#rim"/>
    <path pointer-events="none" fill="none" stroke="white" stroke-width="1.5" d="M0,-3.0v7 M-2.5,-0.5L0,-3.0L2.5,-0.5"/>
  </g>
  <g id="arrowRight" transform="rotate(90) translate(36 -43)">
    <use xlink:href="#rim"/>
    <path pointer-events="none" fill="none" stroke="white" stroke-width="1.5" d="M0,-3.0v7 M-2.5,-0.5L0,-3.0L2.5,-0.5"/>
  </g>
  <g id="arrowDown" transform="rotate(180) translate(-30 -48)">
    <use xlink:href="#rim"/>
    <path pointer-events="none" fill="none" stroke="white" stroke-width="1.5" d="M0,-3.0v7 M-2.5,-0.5L0,-3.0L2.5,-0.5"/>
  </g>
  <g id="arrowLeft" transform="rotate(270) translate(-36 17)">
    <use xlink:href="#rim"/>
    <path pointer-events="none" fill="none" stroke="white" stroke-width="1.5" d="M0,-3.0v7 M-2.5,-0.5L0,-3.0L2.5,-0.5"/>
  </g>
  <g id="resetDef">
    <use xlink:href="#rim2" fill="#404040"><set attributeName="fill" to="#808080" begin="reset.mouseover" end="reset.mouseout"/></use>
  </g>
</defs>
<script type="application/ecmascript">
var viewWidth = 863;
var viewHeight = 368;
var sectionId = 'dynsection-23';
</script>
<script type="application/ecmascript" xlink:href="../../svg.min.js"/>
<svg id="graph" class="graph">
<g id="viewport">
<title>Server_Player::onCardBeingMoved</title>
<!-- Node1 -->
<g id="Node000001" class="node">
<title>Node1</title>
<g id="a_Node000001"><a xlink:title=" ">
<polygon fill="#999999" stroke="#666666" points="152,-359.5 0,-359.5 0,-329.5 152,-329.5 152,-359.5"/>
<text text-anchor="start" x="8" y="-347.5" font-family="Helvetica,sans-Serif" font-size="10.00">Server_Player::onCardBeing</text>
<text text-anchor="middle" x="76" y="-336.5" font-family="Helvetica,sans-Serif" font-size="10.00">Moved</text>
</a>
</g>
</g>
<!-- Node2 -->
<g id="Node000002" class="node">
<title>Node2</title>
<g id="a_Node000002"><a xlink:href="../../dc/d07/classServer__Card.html#ac86a6b6910c658df015093eccda5e930" target="_top" xlink:title=" ">
<polygon fill="white" stroke="#666666" points="847.5,-321 740.5,-321 740.5,-302 847.5,-302 847.5,-321"/>
<text text-anchor="middle" x="794" y="-309" font-family="Helvetica,sans-Serif" font-size="10.00">Server_Card::getId</text>
</a>
</g>
</g>
<!-- Node1&#45;&gt;Node2 -->
<g id="edge1_Node000001_Node000002" class="edge">
<title>Node1&#45;&gt;Node2</title>
<g id="a_edge1_Node000001_Node000002"><a xlink:title=" ">
<path fill="none" stroke="#63b8ff" d="M152.02,-343.74C268.72,-342.13 500.72,-337.21 697,-322.5 709.41,-321.57 722.68,-320.26 735.28,-318.86"/>
<polygon fill="#63b8ff" stroke="#63b8ff" points="740.26,-318.3 735.54,-321.09 737.77,-318.58 735.29,-318.86 735.29,-318.86 735.29,-318.86 737.77,-318.58 735.03,-316.62 740.26,-318.3 740.26,-318.3"/>
</a>
</g>
</g>
<!-- Node3 -->
<g id="Node000003" class="node">
<title>Node3</title>
<g id="a_Node000003"><a xlink:href="../../dc/d3a/classServer__CardZone.html#aab4f31f933d14dd86afe6f4ff218294c" target="_top" xlink:title=" ">
<polygon fill="white" stroke="#666666" points="693.5,-283 541.5,-283 541.5,-264 693.5,-264 693.5,-283"/>
<text text-anchor="middle" x="617.5" y="-271" font-family="Helvetica,sans-Serif" font-size="10.00">Server_CardZone::getName</text>
</a>
</g>
</g>
<!-- Node1&#45;&gt;Node3 -->
<g id="edge2_Node000001_Node000003" class="edge">
<title>Node1&#45;&gt;Node3</title>
<g id="a_edge2_Node000001_Node000003"><a xlink:title=" ">
<path fill="none" stroke="#63b8ff" d="M152.02,-334.63C254.09,-321.19 435.82,-297.28 539.11,-283.68"/>
<polygon fill="#63b8ff" stroke="#63b8ff" points="544.27,-283.01 539.61,-285.89 541.8,-283.33 539.32,-283.66 539.32,-283.66 539.32,-283.66 541.8,-283.33 539.02,-281.43 544.27,-283.01 544.27,-283.01"/>
</a>
</g>
</g>
<!-- Node4 -->
<g id="Node000004" class="node">
<title>Node4</title>
<g id="a_Node000004"><a xlink:href="../../da/d99/classServer__AbstractPlayer.html#a9123f3b066d6661e4f5a923c32cebaf2" target="_top" xlink:title=" ">
<polygon fill="white" stroke="#666666" points="313,-187.5 188,-187.5 188,-157.5 313,-157.5 313,-187.5"/>
<text text-anchor="start" x="196" y="-175.5" font-family="Helvetica,sans-Serif" font-size="10.00">Server_AbstractPlayer</text>
<text text-anchor="middle" x="250.5" y="-164.5" font-family="Helvetica,sans-Serif" font-size="10.00">::onCardBeingMoved</text>
</a>
</g>
</g>
<!-- Node1&#45;&gt;Node4 -->
<g id="edge3_Node000001_Node000004" class="edge">
<title>Node1&#45;&gt;Node4</title>
<g id="a_edge3_Node000001_Node000004"><a xlink:title=" ">
<path fill="none" stroke="#63b8ff" d="M92.31,-329.24C123.81,-297.82 195.83,-226.01 230.36,-191.59"/>
<polygon fill="#63b8ff" stroke="#63b8ff" points="233.98,-187.98 232.03,-193.1 232.21,-189.74 230.44,-191.51 230.44,-191.51 230.44,-191.51 232.21,-189.74 228.85,-189.91 233.98,-187.98 233.98,-187.98"/>
</a>
</g>
</g>
<!-- Node4&#45;&gt;Node2 -->
<g id="edge5_Node000004_Node000002" class="edge">
<title>Node4&#45;&gt;Node2</title>
<g id="a_edge5_Node000004_Node000002"><a xlink:title=" ">
<path fill="none" stroke="#63b8ff" d="M266.23,-187.69C284.16,-205.25 316.12,-233.77 349,-249.5 476.71,-310.57 647.06,-316.16 735.01,-314.28"/>
<polygon fill="#63b8ff" stroke="#63b8ff" points="740.16,-314.16 735.22,-316.52 737.66,-314.21 735.16,-314.27 735.16,-314.27 735.16,-314.27 737.66,-314.21 735.11,-312.02 740.16,-314.16 740.16,-314.16"/>
</a>
</g>
</g>
<!-- Node4&#45;&gt;Node3 -->
<g id="edge6_Node000004_Node000003" class="edge">
<title>Node4&#45;&gt;Node3</title>
<g id="a_edge6_Node000004_Node000003"><a xlink:title=" ">
<path fill="none" stroke="#63b8ff" d="M279.82,-187.65C298.92,-197.34 324.93,-209.54 349,-217.5 414.02,-239 490.76,-254.06 545.34,-263.11"/>
<polygon fill="#63b8ff" stroke="#63b8ff" points="550.55,-263.96 545.25,-265.37 548.08,-263.56 545.61,-263.15 545.61,-263.15 545.61,-263.15 548.08,-263.56 545.98,-260.93 550.55,-263.96 550.55,-263.96"/>
</a>
</g>
</g>
<!-- Node5 -->
<g id="Node000005" class="node">
<title>Node5</title>
<g id="a_Node000005"><a xlink:href="../../dc/d07/classServer__Card.html#a679019f2069ac49125554053d10ac95a" target="_top" xlink:title=" ">
<polygon fill="white" stroke="#666666" points="501,-160 350,-160 350,-141 501,-141 501,-160"/>
<text text-anchor="middle" x="425.5" y="-148" font-family="Helvetica,sans-Serif" font-size="10.00">Server_Card::getAnnotation</text>
</a>
</g>
</g>
<!-- Node4&#45;&gt;Node5 -->
<g id="edge4_Node000004_Node000005" class="edge">
<title>Node4&#45;&gt;Node5</title>
<g id="a_edge4_Node000004_Node000005"><a xlink:title=" ">
<path fill="none" stroke="#63b8ff" d="M313.47,-164.62C323.63,-163.33 334.29,-161.97 344.81,-160.63"/>
<polygon fill="#63b8ff" stroke="#63b8ff" points="349.97,-159.98 345.29,-162.84 347.49,-160.29 345.01,-160.61 345.01,-160.61 345.01,-160.61 347.49,-160.29 344.72,-158.38 349.97,-159.98 349.97,-159.98"/>
</a>
</g>
</g>
<!-- Node6 -->
<g id="Node000006" class="node">
<title>Node6</title>
<g id="a_Node000006"><a xlink:href="../../dc/d3a/classServer__CardZone.html#ab39247788624358b1a8e99193519b678" target="_top" xlink:title=" ">
<polygon fill="white" stroke="#666666" points="502,-123 349,-123 349,-104 502,-104 502,-123"/>
<text text-anchor="middle" x="425.5" y="-111" font-family="Helvetica,sans-Serif" font-size="10.00">Server_CardZone::getPlayer</text>
</a>
</g>
</g>
<!-- Node4&#45;&gt;Node6 -->
<g id="edge7_Node000004_Node000006" class="edge">
<title>Node4&#45;&gt;Node6</title>
<g id="a_edge7_Node000004_Node000006"><a xlink:title=" ">
<path fill="none" stroke="#63b8ff" d="M284.9,-157.41C303.52,-149.35 327.28,-139.65 349,-132.5 357.97,-129.55 367.66,-126.8 377.01,-124.35"/>
<polygon fill="#63b8ff" stroke="#63b8ff" points="381.87,-123.1 377.59,-126.52 379.45,-123.72 377.03,-124.35 377.03,-124.35 377.03,-124.35 379.45,-123.72 376.46,-122.17 381.87,-123.1 381.87,-123.1"/>
</a>
</g>
</g>
<!-- Node7 -->
<g id="Node000007" class="node">
<title>Node7</title>
<g id="a_Node000007"><a xlink:href="../../d0/d00/classServer__AbstractParticipant.html#a1ce5bd3a2ecb61abf21583b75ebc6185" target="_top" xlink:title=" ">
<polygon fill="white" stroke="#666666" points="498.5,-85.5 352.5,-85.5 352.5,-55.5 498.5,-55.5 498.5,-85.5"/>
<text text-anchor="start" x="360.5" y="-73.5" font-family="Helvetica,sans-Serif" font-size="10.00">Server_AbstractParticipant</text>
<text text-anchor="middle" x="425.5" y="-62.5" font-family="Helvetica,sans-Serif" font-size="10.00">::getPlayerId</text>
</a>
</g>
</g>
<!-- Node4&#45;&gt;Node7 -->
<g id="edge8_Node000004_Node000007" class="edge">
<title>Node4&#45;&gt;Node7</title>
<g id="a_edge8_Node000004_Node000007"><a xlink:title=" ">
<path fill="none" stroke="#63b8ff" d="M266.76,-157.28C284.93,-139.9 316.89,-111.68 349,-94.5 353.83,-91.92 358.98,-89.56 364.24,-87.41"/>
<polygon fill="#63b8ff" stroke="#63b8ff" points="369.09,-85.5 365.26,-89.43 366.77,-86.42 364.44,-87.33 364.44,-87.33 364.44,-87.33 366.77,-86.42 363.62,-85.24 369.09,-85.5 369.09,-85.5"/>
</a>
</g>
</g>
<!-- Node8 -->
<g id="Node000008" class="node">
<title>Node8</title>
<g id="a_Node000008"><a xlink:href="../../d9/d5b/classServerInfo__User__Container.html#a4864fbb9b45940f5f5dedfa4fa808cf4" target="_top" xlink:title=" ">
<polygon fill="white" stroke="#666666" points="499,-37.5 352,-37.5 352,-7.5 499,-7.5 499,-37.5"/>
<text text-anchor="start" x="360" y="-25.5" font-family="Helvetica,sans-Serif" font-size="10.00">ServerInfo_User_Container</text>
<text text-anchor="middle" x="425.5" y="-14.5" font-family="Helvetica,sans-Serif" font-size="10.00">::getUserInfo</text>
</a>
</g>
</g>
<!-- Node4&#45;&gt;Node8 -->
<g id="edge9_Node000004_Node000008" class="edge">
<title>Node4&#45;&gt;Node8</title>
<g id="a_edge9_Node000004_Node000008"><a xlink:title=" ">
<path fill="none" stroke="#63b8ff" d="M259.23,-157.28C273.43,-130.85 306.15,-76.45 349,-46.5 352.48,-44.06 356.23,-41.87 360.12,-39.89"/>
<polygon fill="#63b8ff" stroke="#63b8ff" points="364.74,-37.66 361.21,-41.86 362.49,-38.74 360.24,-39.83 360.24,-39.83 360.24,-39.83 362.49,-38.74 359.26,-37.8 364.74,-37.66 364.74,-37.66"/>
</a>
</g>
</g>
<!-- Node9 -->
<g id="Node000009" class="node">
<title>Node9</title>
<g id="a_Node000009"><a xlink:href="../../da/d99/classServer__AbstractPlayer.html#a8d51eb4a425121c34e02360fa44c6b4a" target="_top" xlink:title=" ">
<polygon fill="white" stroke="#666666" points="488,-208.5 363,-208.5 363,-178.5 488,-178.5 488,-208.5"/>
<text text-anchor="start" x="371" y="-196.5" font-family="Helvetica,sans-Serif" font-size="10.00">Server_AbstractPlayer</text>
<text text-anchor="middle" x="425.5" y="-185.5" font-family="Helvetica,sans-Serif" font-size="10.00">::setCardAttrHelper</text>
</a>
</g>
</g>
<!-- Node4&#45;&gt;Node9 -->
<g id="edge10_Node000004_Node000009" class="edge">
<title>Node4&#45;&gt;Node9</title>
<g id="a_edge10_Node000004_Node000009"><a xlink:title=" ">
<path fill="none" stroke="#63b8ff" d="M313.47,-180.02C327.8,-181.76 343.12,-183.62 357.65,-185.39"/>
<polygon fill="#63b8ff" stroke="#63b8ff" points="362.96,-186.03 357.73,-187.66 360.48,-185.73 358,-185.43 358,-185.43 358,-185.43 360.48,-185.73 358.27,-183.19 362.96,-186.03 362.96,-186.03"/>
</a>
</g>
</g>
<!-- Node9&#45;&gt;Node3 -->
<g id="edge16_Node000009_Node000003" class="edge">
<title>Node9&#45;&gt;Node3</title>
<g id="a_edge16_Node000009_Node000003"><a xlink:title=" ">
<path fill="none" stroke="#63b8ff" d="M449.98,-208.73C471.96,-222.4 506.1,-242.16 538,-254.5 545.91,-257.56 554.46,-260.23 562.9,-262.53"/>
<polygon fill="#63b8ff" stroke="#63b8ff" points="568.14,-263.91 562.74,-264.81 565.73,-263.28 563.31,-262.64 563.31,-262.64 563.31,-262.64 565.73,-263.28 563.88,-260.46 568.14,-263.91 568.14,-263.91"/>
</a>
</g>
</g>
<!-- Node10 -->
<g id="Node000010" class="node">
<title>Node10</title>
<g id="a_Node000010"><a xlink:href="../../de/d8f/classGameEventStorage.html#acd9c2f6ebbfa52476072e591d0b19a83" target="_top" xlink:title=" ">
<polygon fill="white" stroke="#666666" points="697,-104.5 538,-104.5 538,-74.5 697,-74.5 697,-104.5"/>
<text text-anchor="start" x="546" y="-92.5" font-family="Helvetica,sans-Serif" font-size="10.00">GameEventStorage::enqueue</text>
<text text-anchor="middle" x="617.5" y="-81.5" font-family="Helvetica,sans-Serif" font-size="10.00">GameEvent</text>
</a>
</g>
</g>
<!-- Node9&#45;&gt;Node10 -->
<g id="edge11_Node000009_Node000010" class="edge">
<title>Node9&#45;&gt;Node10</title>
<g id="a_edge11_Node000009_Node000010"><a xlink:title=" ">
<path fill="none" stroke="#63b8ff" d="M487.34,-178.41C492.54,-175.88 497.52,-172.93 502,-169.5 525.49,-151.51 514.41,-131.36 538,-113.5 541.12,-111.13 544.48,-109 547.99,-107.07"/>
<polygon fill="#63b8ff" stroke="#63b8ff" points="552.86,-104.58 549.44,-108.86 550.63,-105.72 548.41,-106.86 548.41,-106.86 548.41,-106.86 550.63,-105.72 547.38,-104.86 552.86,-104.58 552.86,-104.58"/>
</a>
</g>
</g>
<!-- Node11 -->
<g id="Node000011" class="node">
<title>Node11</title>
<g id="a_Node000011"><a xlink:href="../../dc/d3a/classServer__CardZone.html#a6cc74999912345bed4f76a27b0e32db8" target="_top" xlink:title=" ">
<polygon fill="white" stroke="#666666" points="690,-19 545,-19 545,0 690,0 690,-19"/>
<text text-anchor="middle" x="617.5" y="-7" font-family="Helvetica,sans-Serif" font-size="10.00">Server_CardZone::getCard</text>
</a>
</g>
</g>
<!-- Node9&#45;&gt;Node11 -->
<g id="edge12_Node000009_Node000011" class="edge">
<title>Node9&#45;&gt;Node11</title>
<g id="a_edge12_Node000009_Node000011"><a xlink:title=" ">
<path fill="none" stroke="#63b8ff" d="M488.27,-180.04C493.34,-177.18 498.04,-173.7 502,-169.5 546.65,-122.11 491.44,-73.01 538,-27.5 540.12,-25.42 542.44,-23.57 544.89,-21.91"/>
<polygon fill="#63b8ff" stroke="#63b8ff" points="549.46,-19.14 546.35,-23.66 547.32,-20.43 545.18,-21.73 545.18,-21.73 545.18,-21.73 547.32,-20.43 544.02,-19.81 549.46,-19.14 549.46,-19.14"/>
</a>
</g>
</g>
<!-- Node13 -->
<g id="Node000013" class="node">
<title>Node13</title>
<g id="a_Node000013"><a xlink:href="../../dc/d3a/classServer__CardZone.html#a9d456842703367a0a380eacd9d3234bb" target="_top" xlink:title=" ">
<polygon fill="white" stroke="#666666" points="692.5,-56 542.5,-56 542.5,-37 692.5,-37 692.5,-56"/>
<text text-anchor="middle" x="617.5" y="-44" font-family="Helvetica,sans-Serif" font-size="10.00">Server_CardZone::getCards</text>
</a>
</g>
</g>
<!-- Node9&#45;&gt;Node13 -->
<g id="edge15_Node000009_Node000013" class="edge">
<title>Node9&#45;&gt;Node13</title>
<g id="a_edge15_Node000009_Node000013"><a xlink:title=" ">
<path fill="none" stroke="#63b8ff" d="M488.27,-179.48C493.28,-176.73 497.96,-173.44 502,-169.5 537.02,-135.36 501.8,-98.39 538,-65.5 540.93,-62.84 544.16,-60.54 547.6,-58.55"/>
<polygon fill="#63b8ff" stroke="#63b8ff" points="552.4,-56.01 549.03,-60.34 550.19,-57.18 547.98,-58.34 547.98,-58.34 547.98,-58.34 550.19,-57.18 546.93,-56.35 552.4,-56.01 552.4,-56.01"/>
</a>
</g>
</g>
<!-- Node14 -->
<g id="Node000014" class="node">
<title>Node14</title>
<g id="a_Node000014"><a xlink:href="../../da/d99/classServer__AbstractPlayer.html#acb13829ad009e505b9c3e76349150549" target="_top" xlink:title=" ">
<polygon fill="white" stroke="#666666" points="680,-245.5 555,-245.5 555,-215.5 680,-215.5 680,-245.5"/>
<text text-anchor="start" x="563" y="-233.5" font-family="Helvetica,sans-Serif" font-size="10.00">Server_AbstractPlayer</text>
<text text-anchor="middle" x="617.5" y="-222.5" font-family="Helvetica,sans-Serif" font-size="10.00">::getZones</text>
</a>
</g>
</g>
<!-- Node9&#45;&gt;Node14 -->
<g id="edge17_Node000009_Node000014" class="edge">
<title>Node9&#45;&gt;Node14</title>
<g id="a_edge17_Node000009_Node000014"><a xlink:title=" ">
<path fill="none" stroke="#63b8ff" d="M488.19,-205.51C507.87,-209.34 529.73,-213.6 549.75,-217.5"/>
<polygon fill="#63b8ff" stroke="#63b8ff" points="554.8,-218.48 549.46,-219.74 552.34,-218.01 549.89,-217.53 549.89,-217.53 549.89,-217.53 552.34,-218.01 550.32,-215.32 554.8,-218.48 554.8,-218.48"/>
</a>
</g>
</g>
<!-- Node15 -->
<g id="Node000015" class="node">
<title>Node15</title>
<g id="a_Node000015"><a xlink:href="../../dc/d3a/classServer__CardZone.html#af08db3d75b7afcfb5494fbc9efdb959b" target="_top" xlink:title=" ">
<polygon fill="white" stroke="#666666" points="696.5,-197 538.5,-197 538.5,-178 696.5,-178 696.5,-197"/>
<text text-anchor="middle" x="617.5" y="-185" font-family="Helvetica,sans-Serif" font-size="10.00">Server_CardZone::hasCoords</text>
</a>
</g>
</g>
<!-- Node9&#45;&gt;Node15 -->
<g id="edge18_Node000009_Node000015" class="edge">
<title>Node9&#45;&gt;Node15</title>
<g id="a_edge18_Node000009_Node000015"><a xlink:title=" ">
<path fill="none" stroke="#63b8ff" d="M488.19,-191.55C502.6,-191.1 518.17,-190.61 533.34,-190.13"/>
<polygon fill="#63b8ff" stroke="#63b8ff" points="538.47,-189.96 533.54,-192.37 535.97,-190.04 533.47,-190.12 533.47,-190.12 533.47,-190.12 535.97,-190.04 533.4,-187.87 538.47,-189.96 538.47,-189.96"/>
</a>
</g>
</g>
<!-- Node16 -->
<g id="Node000016" class="node">
<title>Node16</title>
<g id="a_Node000016"><a xlink:href="../../dc/d07/classServer__Card.html#ad8eed8e5b9db06165e3ce75dd1b33be7" target="_top" xlink:title=" ">
<polygon fill="white" stroke="#666666" points="687.5,-142 547.5,-142 547.5,-123 687.5,-123 687.5,-142"/>
<text text-anchor="middle" x="617.5" y="-130" font-family="Helvetica,sans-Serif" font-size="10.00">Server_Card::setAttribute</text>
</a>
</g>
</g>
<!-- Node9&#45;&gt;Node16 -->
<g id="edge19_Node000009_Node000016" class="edge">
<title>Node9&#45;&gt;Node16</title>
<g id="a_edge19_Node000009_Node000016"><a xlink:title=" ">
<path fill="none" stroke="#63b8ff" d="M474.04,-178.43C483.31,-175.48 492.96,-172.4 502,-169.5 528.82,-160.9 559.14,-151.1 581.84,-143.75"/>
<polygon fill="#63b8ff" stroke="#63b8ff" points="586.86,-142.12 582.79,-145.8 584.48,-142.89 582.1,-143.66 582.1,-143.66 582.1,-143.66 584.48,-142.89 581.41,-141.52 586.86,-142.12 586.86,-142.12"/>
</a>
</g>
</g>
<!-- Node11&#45;&gt;Node2 -->
<g id="edge13_Node000011_Node000002" class="edge">
<title>Node11&#45;&gt;Node2</title>
<g id="a_edge13_Node000011_Node000002"><a xlink:title=" ">
<path fill="none" stroke="#63b8ff" d="M684.51,-19.05C689.03,-21.34 693.27,-24.12 697,-27.5 779.36,-101.96 791.12,-249.54 792.75,-296.67"/>
<polygon fill="#63b8ff" stroke="#63b8ff" points="792.9,-301.9 790.51,-296.97 792.83,-299.4 792.76,-296.9 792.76,-296.9 792.76,-296.9 792.83,-299.4 795.01,-296.84 792.9,-301.9 792.9,-301.9"/>
</a>
</g>
</g>
<!-- Node12 -->
<g id="Node000012" class="node">
<title>Node12</title>
<g id="a_Node000012"><a xlink:href="../../dc/d07/classServer__Card.html#aacf26dea58699138f0b604d2580ecc62" target="_top" xlink:title=" ">
<polygon fill="white" stroke="#666666" points="855,-19 733,-19 733,0 855,0 855,-19"/>
<text text-anchor="middle" x="794" y="-7" font-family="Helvetica,sans-Serif" font-size="10.00">Server_Card::setZone</text>
</a>
</g>
</g>
<!-- Node11&#45;&gt;Node12 -->
<g id="edge14_Node000011_Node000012" class="edge">
<title>Node11&#45;&gt;Node12</title>
<g id="a_edge14_Node000011_Node000012"><a xlink:title=" ">
<path fill="none" stroke="#63b8ff" d="M690.23,-9.5C702.65,-9.5 715.51,-9.5 727.74,-9.5"/>
<polygon fill="#63b8ff" stroke="#63b8ff" points="732.94,-9.5 727.94,-11.75 730.44,-9.5 727.94,-9.5 727.94,-9.5 727.94,-9.5 730.44,-9.5 727.94,-7.25 732.94,-9.5 732.94,-9.5"/>
</a>
</g>
</g>
<!-- Node16&#45;&gt;Node16 -->
<g id="edge20_Node000016_Node000016" class="edge">
<title>Node16&#45;&gt;Node16</title>
<g id="a_edge20_Node000016_Node000016"><a xlink:title=" ">
<path fill="none" stroke="#63b8ff" d="M590.37,-142.08C577.18,-150.73 586.22,-160 617.5,-160 644.87,-160 655.22,-152.91 648.53,-145.34"/>
<polygon fill="#63b8ff" stroke="#63b8ff" points="644.63,-142.08 649.91,-143.55 646.55,-143.68 648.47,-145.28 648.47,-145.28 648.47,-145.28 646.55,-143.68 647.03,-147.01 644.63,-142.08 644.63,-142.08"/>
</a>
</g>
</g>
</g>
</svg>

<g id="navigator" transform="translate(0 0)" fill="#404254">
  <rect fill="#f2f5e9" fill-opacity="0.5" stroke="#606060" stroke-width=".5" x="0" y="0" width="60" height="60"/>
  <use id="zoomplus" xlink:href="#zoomPlus" x="17" y="9" onmousedown="handleZoom(evt,'in')"/>
  <use id="zoomminus" xlink:href="#zoomMin" x="42" y="9" onmousedown="handleZoom(evt,'out')"/>
  <use id="reset" xlink:href="#resetDef" x="30" y="36" onmousedown="handleReset()"/>
   <use id="arrowup" xlink:href="#arrowUp" x="0" y="0" onmousedown="handlePan(0,-1)"/>
  <use id="arrowright" xlink:href="#arrowRight" x="0" y="0" onmousedown="handlePan(1,0)"/>
  <use id="arrowdown" xlink:href="#arrowDown" x="0" y="0" onmousedown="handlePan(0,1)"/>
  <use id="arrowleft" xlink:href="#arrowLeft" x="0" y="0" onmousedown="handlePan(-1,0)"/>
</g>
<svg viewBox="0 0 15 15" width="100%" height="30px" preserveAspectRatio="xMaxYMin meet">
 <g id="arrow_out" transform="scale(0.3 0.3)">
  <a xlink:href="classServer__Player_a263a8e85a700728dc5c726131045ab67_cgraph_org.svg" target="_base">
   <rect id="button" ry="5" rx="5" y="6" x="6" height="38" width="38"
        fill="#f2f5e9" fill-opacity="0.5" stroke="#606060" stroke-width="1.0"/>
   <path id="arrow"
     d="M 11.500037,31.436501 C 11.940474,20.09759 22.043105,11.32322 32.158766,21.979434 L 37.068811,17.246167 C 37.068811,17.246167 37.088388,32 37.088388,32 L 22.160133,31.978069 C 22.160133,31.978069 26.997745,27.140456 26.997745,27.140456 C 18.528582,18.264221 13.291696,25.230495 11.500037,31.436501 z"
     style="fill:#404040;"/>
  </a>
 </g>
</svg>

<style type='text/css'>
<![CDATA[
[data-mouse-over-selected='false'] { opacity: 0.7; }
[data-mouse-over-selected='true']  { opacity: 1.0; }
]]>
</style>
<script type="application/ecmascript"><![CDATA[
document.addEventListener('DOMContentLoaded', (event) => {
  highlightEdges();
  highlightAdjacentNodes();
});
]]></script>
</svg>
