<?xml version="1.0" encoding="UTF-8" standalone="no"?>
<!DOCTYPE svg PUBLIC "-//W3C//DTD SVG 1.1//EN"
 "http://www.w3.org/Graphics/SVG/1.1/DTD/svg11.dtd">
<!-- Generated by graphviz version 2.43.0 (0)
 -->
<!-- Title: Server_Player::cmdDrawCards Pages: 1 -->
<!--zoomable 451 -->

<svg id="main" version="1.1" xmlns="http://www.w3.org/2000/svg" xmlns:xlink="http://www.w3.org/1999/xlink" xml:space="preserve" onload="init(evt)">

<style type="text/css"><![CDATA[
.node, .edge {opacity: 0.7;}
.node.selected, .edge.selected {opacity: 1;}
.edge:hover path { stroke: red; }
.edge:hover polygon { stroke: red; fill: red; }
]]></style>

<defs>
  <circle id="rim" cx="0" cy="0" r="7"/>
  <circle id="rim2" cx="0" cy="0" r="3.5"/>
  <g id="zoomPlus">
    <use xlink:href="#rim" fill="#404040"><set attributeName="fill" to="#808080" begin="zoomplus.mouseover" end="zoomplus.mouseout"/></use>
    <path d="M-4,0h8M0,-4v8" fill="none" stroke="white" stroke-width="1.5" pointer-events="none"/>
  </g>
  <g id="zoomMin">
    <use xlink:href="#rim" fill="#404040"><set attributeName="fill" to="#808080" begin="zoomminus.mouseover" end="zoomminus.mouseout"/></use>
    <path d="M-4,0h8" fill="none" stroke="white" stroke-width="1.5" pointer-events="none"/>
  </g>
  <g id="arrowUp" transform="translate(30 24)">
    <use xlink:href="#rim"/>
    <path pointer-events="none" fill="none" stroke="white" stroke-width="1.5" d="M0,-3.0v7 M-2.5,-0.5L0,-3.0L2.5,-0.5"/>
  </g>
  <g id="arrowRight" transform="rotate(90) translate(36 -43)">
    <use xlink:href="#rim"/>
    <path pointer-events="none" fill="none" stroke="white" stroke-width="1.5" d="M0,-3.0v7 M-2.5,-0.5L0,-3.0L2.5,-0.5"/>
  </g>
  <g id="arrowDown" transform="rotate(180) translate(-30 -48)">
    <use xlink:href="#rim"/>
    <path pointer-events="none" fill="none" stroke="white" stroke-width="1.5" d="M0,-3.0v7 M-2.5,-0.5L0,-3.0L2.5,-0.5"/>
  </g>
  <g id="arrowLeft" transform="rotate(270) translate(-36 17)">
    <use xlink:href="#rim"/>
    <path pointer-events="none" fill="none" stroke="white" stroke-width="1.5" d="M0,-3.0v7 M-2.5,-0.5L0,-3.0L2.5,-0.5"/>
  </g>
  <g id="resetDef">
    <use xlink:href="#rim2" fill="#404040"><set attributeName="fill" to="#808080" begin="reset.mouseover" end="reset.mouseout"/></use>
  </g>
</defs>
<script type="application/ecmascript">
var viewWidth = 926;
var viewHeight = 451;
var sectionId = 'dynsection-10';
</script>
<script type="application/ecmascript" xlink:href="../../svg.min.js"/>
<svg id="graph" class="graph">
<g id="viewport">
<title>Server_Player::cmdDrawCards</title>
<!-- Node1 -->
<g id="Node000001" class="node">
<title>Node1</title>
<g id="a_Node000001"><a xlink:title=" ">
<polygon fill="#999999" stroke="#666666" points="164,-257.5 0,-257.5 0,-238.5 164,-238.5 164,-257.5"/>
<text text-anchor="middle" x="82" y="-245.5" font-family="Helvetica,sans-Serif" font-size="10.00">Server_Player::cmdDrawCards</text>
</a>
</g>
</g>
<!-- Node2 -->
<g id="Node000002" class="node">
<title>Node2</title>
<g id="a_Node000002"><a xlink:href="../../d8/d21/classServer__Player.html#af4f29c0855ce09de6cb16673b6ffc798" target="_top" xlink:title=" ">
<polygon fill="white" stroke="#666666" points="342,-257.5 200,-257.5 200,-238.5 342,-238.5 342,-257.5"/>
<text text-anchor="middle" x="271" y="-245.5" font-family="Helvetica,sans-Serif" font-size="10.00">Server_Player::drawCards</text>
</a>
</g>
</g>
<!-- Node1&#45;&gt;Node2 -->
<g id="edge1_Node000001_Node000002" class="edge">
<title>Node1&#45;&gt;Node2</title>
<g id="a_edge1_Node000001_Node000002"><a xlink:title=" ">
<path fill="none" stroke="#63b8ff" d="M164.21,-248C174.28,-248 184.54,-248 194.52,-248"/>
<polygon fill="#63b8ff" stroke="#63b8ff" points="199.72,-248 194.72,-250.25 197.22,-248 194.72,-248 194.72,-248 194.72,-248 197.22,-248 194.72,-245.75 199.72,-248 199.72,-248"/>
</a>
</g>
</g>
<!-- Node3 -->
<g id="Node000003" class="node">
<title>Node3</title>
<g id="a_Node000003"><a xlink:href="../../de/d8f/classGameEventStorage.html#acd9c2f6ebbfa52476072e591d0b19a83" target="_top" xlink:title=" ">
<polygon fill="white" stroke="#666666" points="730,-202 571,-202 571,-172 730,-172 730,-202"/>
<text text-anchor="start" x="579" y="-190" font-family="Helvetica,sans-Serif" font-size="10.00">GameEventStorage::enqueue</text>
<text text-anchor="middle" x="650.5" y="-179" font-family="Helvetica,sans-Serif" font-size="10.00">GameEvent</text>
</a>
</g>
</g>
<!-- Node2&#45;&gt;Node3 -->
<g id="edge2_Node000002_Node000003" class="edge">
<title>Node2&#45;&gt;Node3</title>
<g id="a_edge2_Node000002_Node000003"><a xlink:title=" ">
<path fill="none" stroke="#63b8ff" d="M335.29,-238.47C388.59,-230.36 466.84,-218.26 535,-207 544.92,-205.36 555.32,-203.6 565.64,-201.83"/>
<polygon fill="#63b8ff" stroke="#63b8ff" points="570.69,-200.96 566.15,-204.03 568.23,-201.38 565.76,-201.81 565.76,-201.81 565.76,-201.81 568.23,-201.38 565.38,-199.59 570.69,-200.96 570.69,-200.96"/>
</a>
</g>
</g>
<!-- Node4 -->
<g id="Node000004" class="node">
<title>Node4</title>
<g id="a_Node000004"><a xlink:href="../../dc/d3a/classServer__CardZone.html#a6cc74999912345bed4f76a27b0e32db8" target="_top" xlink:title=" ">
<polygon fill="white" stroke="#666666" points="529,-361.5 384,-361.5 384,-342.5 529,-342.5 529,-361.5"/>
<text text-anchor="middle" x="456.5" y="-349.5" font-family="Helvetica,sans-Serif" font-size="10.00">Server_CardZone::getCard</text>
</a>
</g>
</g>
<!-- Node2&#45;&gt;Node4 -->
<g id="edge3_Node000002_Node000004" class="edge">
<title>Node2&#45;&gt;Node4</title>
<g id="a_edge3_Node000002_Node000004"><a xlink:title=" ">
<path fill="none" stroke="#63b8ff" d="M281.59,-257.74C299.14,-275.02 338.3,-311.11 378,-331 385.99,-335 394.84,-338.32 403.62,-341.04"/>
<polygon fill="#63b8ff" stroke="#63b8ff" points="408.48,-342.49 403.05,-343.22 406.09,-341.78 403.69,-341.06 403.69,-341.06 403.69,-341.06 406.09,-341.78 404.34,-338.91 408.48,-342.49 408.48,-342.49"/>
</a>
</g>
</g>
<!-- Node5 -->
<g id="Node000005" class="node">
<title>Node5</title>
<g id="a_Node000005"><a xlink:href="../../dc/d07/classServer__Card.html#ac86a6b6910c658df015093eccda5e930" target="_top" xlink:title=" ">
<polygon fill="white" stroke="#666666" points="704,-399.5 597,-399.5 597,-380.5 704,-380.5 704,-399.5"/>
<text text-anchor="middle" x="650.5" y="-387.5" font-family="Helvetica,sans-Serif" font-size="10.00">Server_Card::getId</text>
</a>
</g>
</g>
<!-- Node2&#45;&gt;Node5 -->
<g id="edge8_Node000002_Node000005" class="edge">
<title>Node2&#45;&gt;Node5</title>
<g id="a_edge8_Node000002_Node000005"><a xlink:title=" ">
<path fill="none" stroke="#63b8ff" d="M276.79,-257.62C289.44,-281.81 326.34,-345.1 378,-371 445.45,-404.81 534.39,-403.84 591.76,-398.31"/>
<polygon fill="#63b8ff" stroke="#63b8ff" points="596.87,-397.8 592.12,-400.54 594.38,-398.05 591.9,-398.3 591.9,-398.3 591.9,-398.3 594.38,-398.05 591.67,-396.06 596.87,-397.8 596.87,-397.8"/>
</a>
</g>
</g>
<!-- Node7 -->
<g id="Node000007" class="node">
<title>Node7</title>
<g id="a_Node000007"><a xlink:href="../../dc/d3a/classServer__CardZone.html#a9d456842703367a0a380eacd9d3234bb" target="_top" xlink:title=" ">
<polygon fill="white" stroke="#666666" points="725.5,-153.5 575.5,-153.5 575.5,-134.5 725.5,-134.5 725.5,-153.5"/>
<text text-anchor="middle" x="650.5" y="-141.5" font-family="Helvetica,sans-Serif" font-size="10.00">Server_CardZone::getCards</text>
</a>
</g>
</g>
<!-- Node2&#45;&gt;Node7 -->
<g id="edge6_Node000002_Node000007" class="edge">
<title>Node2&#45;&gt;Node7</title>
<g id="a_edge6_Node000002_Node000007"><a xlink:title=" ">
<path fill="none" stroke="#63b8ff" d="M281.15,-238.48C298.29,-221.33 337.23,-185.57 378,-170 439.6,-146.47 514.52,-140.84 570.04,-140.61"/>
<polygon fill="#63b8ff" stroke="#63b8ff" points="575.35,-140.6 570.36,-142.86 572.85,-140.6 570.35,-140.61 570.35,-140.61 570.35,-140.61 572.85,-140.6 570.35,-138.36 575.35,-140.6 575.35,-140.6"/>
</a>
</g>
</g>
<!-- Node8 -->
<g id="Node000008" class="node">
<title>Node8</title>
<g id="a_Node000008"><a xlink:href="../../dc/d3a/classServer__CardZone.html#a91dab5a1726e3dc032dc5fb91e474e66" target="_top" xlink:title=" ">
<polygon fill="white" stroke="#666666" points="531.5,-285 381.5,-285 381.5,-255 531.5,-255 531.5,-285"/>
<text text-anchor="start" x="389.5" y="-273" font-family="Helvetica,sans-Serif" font-size="10.00">Server_CardZone::getCards</text>
<text text-anchor="middle" x="456.5" y="-262" font-family="Helvetica,sans-Serif" font-size="10.00">BeingLookedAt</text>
</a>
</g>
</g>
<!-- Node2&#45;&gt;Node8 -->
<g id="edge7_Node000002_Node000008" class="edge">
<title>Node2&#45;&gt;Node8</title>
<g id="a_edge7_Node000002_Node000008"><a xlink:title=" ">
<path fill="none" stroke="#63b8ff" d="M342.16,-256.41C353.3,-257.75 364.9,-259.14 376.23,-260.5"/>
<polygon fill="#63b8ff" stroke="#63b8ff" points="381.42,-261.12 376.18,-262.76 378.93,-260.82 376.45,-260.52 376.45,-260.52 376.45,-260.52 378.93,-260.82 376.72,-258.29 381.42,-261.12 381.42,-261.12"/>
</a>
</g>
</g>
<!-- Node9 -->
<g id="Node000009" class="node">
<title>Node9</title>
<g id="a_Node000009"><a xlink:href="../../dc/d07/classServer__Card.html#a7a39a7bdbb7a91d8a0e0b59a26e39899" target="_top" xlink:title=" ">
<polygon fill="white" stroke="#666666" points="905.5,-402.5 778.5,-402.5 778.5,-383.5 905.5,-383.5 905.5,-402.5"/>
<text text-anchor="middle" x="842" y="-390.5" font-family="Helvetica,sans-Serif" font-size="10.00">Server_Card::getName</text>
</a>
</g>
</g>
<!-- Node2&#45;&gt;Node9 -->
<g id="edge9_Node000002_Node000009" class="edge">
<title>Node2&#45;&gt;Node9</title>
<g id="a_edge9_Node000002_Node000009"><a xlink:title=" ">
<path fill="none" stroke="#63b8ff" d="M275.31,-257.8C285.41,-285.99 318.85,-367.36 378,-400 520.57,-478.67 727.38,-428.47 807.53,-404.08"/>
<polygon fill="#63b8ff" stroke="#63b8ff" points="812.62,-402.51 808.5,-406.13 810.23,-403.24 807.84,-403.98 807.84,-403.98 807.84,-403.98 810.23,-403.24 807.18,-401.83 812.62,-402.51 812.62,-402.51"/>
</a>
</g>
</g>
<!-- Node10 -->
<g id="Node000010" class="node">
<title>Node10</title>
<g id="a_Node000010"><a xlink:href="../../dc/d07/classServer__Card.html#a170718617e9e8d48fea3728a9e25f990" target="_top" xlink:title=" ">
<polygon fill="white" stroke="#666666" points="530,-198.5 383,-198.5 383,-179.5 530,-179.5 530,-198.5"/>
<text text-anchor="middle" x="456.5" y="-186.5" font-family="Helvetica,sans-Serif" font-size="10.00">Server_Card::getProviderId</text>
</a>
</g>
</g>
<!-- Node2&#45;&gt;Node10 -->
<g id="edge10_Node000002_Node000010" class="edge">
<title>Node2&#45;&gt;Node10</title>
<g id="a_edge10_Node000002_Node000010"><a xlink:title=" ">
<path fill="none" stroke="#63b8ff" d="M300.3,-238.5C321.62,-231.38 351.6,-221.44 378,-213 391.38,-208.72 406.1,-204.13 419.09,-200.12"/>
<polygon fill="#63b8ff" stroke="#63b8ff" points="424.16,-198.56 420.04,-202.18 421.77,-199.3 419.38,-200.03 419.38,-200.03 419.38,-200.03 421.77,-199.3 418.72,-197.88 424.16,-198.56 424.16,-198.56"/>
</a>
</g>
</g>
<!-- Node11 -->
<g id="Node000011" class="node">
<title>Node11</title>
<g id="a_Node000011"><a xlink:href="../../dc/d3a/classServer__CardZone.html#a490925357492d8418111d19469cdccb0" target="_top" xlink:title=" ">
<polygon fill="white" stroke="#666666" points="535,-322.5 378,-322.5 378,-303.5 535,-303.5 535,-322.5"/>
<text text-anchor="middle" x="456.5" y="-310.5" font-family="Helvetica,sans-Serif" font-size="10.00">Server_CardZone::insertCard</text>
</a>
</g>
</g>
<!-- Node2&#45;&gt;Node11 -->
<g id="edge11_Node000002_Node000011" class="edge">
<title>Node2&#45;&gt;Node11</title>
<g id="a_edge11_Node000002_Node000011"><a xlink:title=" ">
<path fill="none" stroke="#63b8ff" d="M291.53,-257.67C312.51,-267.77 347.01,-283.56 378,-294 386.94,-297.01 396.62,-299.77 405.99,-302.19"/>
<polygon fill="#63b8ff" stroke="#63b8ff" points="410.87,-303.42 405.47,-304.38 408.44,-302.81 406.02,-302.19 406.02,-302.19 406.02,-302.19 408.44,-302.81 406.57,-300.01 410.87,-303.42 410.87,-303.42"/>
</a>
</g>
</g>
<!-- Node18 -->
<g id="Node000018" class="node">
<title>Node18</title>
<g id="a_Node000018"><a xlink:href="../../da/d99/classServer__AbstractPlayer.html#a31c3aa7f433227d10c7c40c8cc2b20c6" target="_top" xlink:title=" ">
<polygon fill="white" stroke="#666666" points="525,-123 388,-123 388,-93 525,-93 525,-123"/>
<text text-anchor="start" x="396" y="-111" font-family="Helvetica,sans-Serif" font-size="10.00">Server_AbstractPlayer</text>
<text text-anchor="middle" x="456.5" y="-100" font-family="Helvetica,sans-Serif" font-size="10.00">::revealTopCardIfNeeded</text>
</a>
</g>
</g>
<!-- Node2&#45;&gt;Node18 -->
<g id="edge20_Node000002_Node000018" class="edge">
<title>Node2&#45;&gt;Node18</title>
<g id="a_edge20_Node000002_Node000018"><a xlink:title=" ">
<path fill="none" stroke="#63b8ff" d="M278.84,-238.29C294.24,-217.08 333.74,-166.2 378,-137 384.85,-132.48 392.51,-128.53 400.26,-125.13"/>
<polygon fill="#63b8ff" stroke="#63b8ff" points="405.1,-123.08 401.37,-127.1 402.8,-124.05 400.5,-125.03 400.5,-125.03 400.5,-125.03 402.8,-124.05 399.62,-122.96 405.1,-123.08 405.1,-123.08"/>
</a>
</g>
</g>
<!-- Node21 -->
<g id="Node000021" class="node">
<title>Node21</title>
<g id="a_Node000021"><a xlink:href="../../dc/d3a/classServer__CardZone.html#aee8246806421ec4b21d0e4b24a0e061d" target="_top" xlink:title=" ">
<polygon fill="white" stroke="#666666" points="531,-75 382,-75 382,-45 531,-45 531,-75"/>
<text text-anchor="start" x="390" y="-63" font-family="Helvetica,sans-Serif" font-size="10.00">Server_CardZone::setCards</text>
<text text-anchor="middle" x="456.5" y="-52" font-family="Helvetica,sans-Serif" font-size="10.00">BeingLookedAt</text>
</a>
</g>
</g>
<!-- Node2&#45;&gt;Node21 -->
<g id="edge26_Node000002_Node000021" class="edge">
<title>Node2&#45;&gt;Node21</title>
<g id="a_edge26_Node000002_Node000021"><a xlink:title=" ">
<path fill="none" stroke="#63b8ff" d="M275.54,-238.18C286.28,-209.81 321.27,-127.01 378,-84 381.09,-81.66 384.4,-79.55 387.87,-77.64"/>
<polygon fill="#63b8ff" stroke="#63b8ff" points="392.67,-75.16 389.26,-79.45 390.45,-76.3 388.23,-77.45 388.23,-77.45 388.23,-77.45 390.45,-76.3 387.2,-75.45 392.67,-75.16 392.67,-75.16"/>
</a>
</g>
</g>
<!-- Node4&#45;&gt;Node5 -->
<g id="edge4_Node000004_Node000005" class="edge">
<title>Node4&#45;&gt;Node5</title>
<g id="a_edge4_Node000004_Node000005"><a xlink:title=" ">
<path fill="none" stroke="#63b8ff" d="M505.95,-361.59C533.45,-367.03 567.93,-373.86 596.2,-379.45"/>
<polygon fill="#63b8ff" stroke="#63b8ff" points="601.4,-380.48 596.06,-381.72 598.95,-379.99 596.49,-379.51 596.49,-379.51 596.49,-379.51 598.95,-379.99 596.93,-377.3 601.4,-380.48 601.4,-380.48"/>
</a>
</g>
</g>
<!-- Node6 -->
<g id="Node000006" class="node">
<title>Node6</title>
<g id="a_Node000006"><a xlink:href="../../dc/d07/classServer__Card.html#aacf26dea58699138f0b604d2580ecc62" target="_top" xlink:title=" ">
<polygon fill="white" stroke="#666666" points="711.5,-362.5 589.5,-362.5 589.5,-343.5 711.5,-343.5 711.5,-362.5"/>
<text text-anchor="middle" x="650.5" y="-350.5" font-family="Helvetica,sans-Serif" font-size="10.00">Server_Card::setZone</text>
</a>
</g>
</g>
<!-- Node4&#45;&gt;Node6 -->
<g id="edge5_Node000004_Node000006" class="edge">
<title>Node4&#45;&gt;Node6</title>
<g id="a_edge5_Node000004_Node000006"><a xlink:title=" ">
<path fill="none" stroke="#63b8ff" d="M529.27,-352.37C547.22,-352.47 566.39,-352.57 584.02,-352.66"/>
<polygon fill="#63b8ff" stroke="#63b8ff" points="589.44,-352.69 584.42,-354.91 586.94,-352.67 584.44,-352.66 584.44,-352.66 584.44,-352.66 586.94,-352.67 584.45,-350.41 589.44,-352.69 589.44,-352.69"/>
</a>
</g>
</g>
<!-- Node11&#45;&gt;Node6 -->
<g id="edge19_Node000011_Node000006" class="edge">
<title>Node11&#45;&gt;Node6</title>
<g id="a_edge19_Node000011_Node000006"><a xlink:title=" ">
<path fill="none" stroke="#63b8ff" d="M503.49,-322.58C532.22,-328.57 569.25,-336.28 598.83,-342.44"/>
<polygon fill="#63b8ff" stroke="#63b8ff" points="603.89,-343.5 598.53,-344.68 601.44,-342.99 598.99,-342.48 598.99,-342.48 598.99,-342.48 601.44,-342.99 599.45,-340.27 603.89,-343.5 603.89,-343.5"/>
</a>
</g>
</g>
<!-- Node12 -->
<g id="Node000012" class="node">
<title>Node12</title>
<g id="a_Node000012"><a xlink:href="../../dc/d3a/classServer__CardZone.html#af08db3d75b7afcfb5494fbc9efdb959b" target="_top" xlink:title=" ">
<polygon fill="white" stroke="#666666" points="729.5,-325.5 571.5,-325.5 571.5,-306.5 729.5,-306.5 729.5,-325.5"/>
<text text-anchor="middle" x="650.5" y="-313.5" font-family="Helvetica,sans-Serif" font-size="10.00">Server_CardZone::hasCoords</text>
</a>
</g>
</g>
<!-- Node11&#45;&gt;Node12 -->
<g id="edge12_Node000011_Node000012" class="edge">
<title>Node11&#45;&gt;Node12</title>
<g id="a_edge12_Node000011_Node000012"><a xlink:title=" ">
<path fill="none" stroke="#63b8ff" d="M535.04,-314.21C545.33,-314.37 555.91,-314.54 566.28,-314.7"/>
<polygon fill="#63b8ff" stroke="#63b8ff" points="571.36,-314.78 566.32,-316.95 568.86,-314.74 566.36,-314.7 566.36,-314.7 566.36,-314.7 568.86,-314.74 566.39,-312.45 571.36,-314.78 571.36,-314.78"/>
</a>
</g>
</g>
<!-- Node13 -->
<g id="Node000013" class="node">
<title>Node13</title>
<g id="a_Node000013"><a xlink:href="../../dc/d3a/classServer__CardZone.html#a74e56178b6890ed0a09f83de131fb9de" target="_top" xlink:title=" ">
<polygon fill="white" stroke="#666666" points="729,-288 572,-288 572,-258 729,-258 729,-288"/>
<text text-anchor="start" x="580" y="-276" font-family="Helvetica,sans-Serif" font-size="10.00">Server_CardZone::insertCard</text>
<text text-anchor="middle" x="650.5" y="-265" font-family="Helvetica,sans-Serif" font-size="10.00">IntoCoordMap</text>
</a>
</g>
</g>
<!-- Node11&#45;&gt;Node13 -->
<g id="edge13_Node000011_Node000013" class="edge">
<title>Node11&#45;&gt;Node13</title>
<g id="a_edge13_Node000011_Node000013"><a xlink:title=" ">
<path fill="none" stroke="#63b8ff" d="M503.49,-303.42C524.1,-299.13 548.98,-293.94 572.31,-289.08"/>
<polygon fill="#63b8ff" stroke="#63b8ff" points="577.27,-288.05 572.83,-291.27 574.82,-288.56 572.37,-289.07 572.37,-289.07 572.37,-289.07 574.82,-288.56 571.91,-286.87 577.27,-288.05 577.27,-288.05"/>
</a>
</g>
</g>
<!-- Node17 -->
<g id="Node000017" class="node">
<title>Node17</title>
<g id="a_Node000017"><a xlink:href="../../dc/d07/classServer__Card.html#a5e55fc95e64ac9af1645e4bcd7eb1206" target="_top" xlink:title=" ">
<polygon fill="white" stroke="#666666" points="716,-239.5 585,-239.5 585,-220.5 716,-220.5 716,-239.5"/>
<text text-anchor="middle" x="650.5" y="-227.5" font-family="Helvetica,sans-Serif" font-size="10.00">Server_Card::setCoords</text>
</a>
</g>
</g>
<!-- Node11&#45;&gt;Node17 -->
<g id="edge18_Node000011_Node000017" class="edge">
<title>Node11&#45;&gt;Node17</title>
<g id="a_edge18_Node000011_Node000017"><a xlink:title=" ">
<path fill="none" stroke="#63b8ff" d="M515.14,-303.42C522.13,-300.96 528.93,-297.88 535,-294 556.59,-280.22 549.39,-262.75 571,-249 575.71,-246 580.85,-243.48 586.18,-241.35"/>
<polygon fill="#63b8ff" stroke="#63b8ff" points="591.12,-239.51 587.22,-243.37 588.78,-240.38 586.44,-241.26 586.44,-241.26 586.44,-241.26 588.78,-240.38 585.65,-239.15 591.12,-239.51 591.12,-239.51"/>
</a>
</g>
</g>
<!-- Node13&#45;&gt;Node9 -->
<g id="edge16_Node000013_Node000009" class="edge">
<title>Node13&#45;&gt;Node9</title>
<g id="a_edge16_Node000013_Node000009"><a xlink:title=" ">
<path fill="none" stroke="#63b8ff" d="M710.48,-288.07C717.24,-290.66 723.89,-293.62 730,-297 770.77,-319.53 809.91,-358.84 828.97,-379.47"/>
<polygon fill="#63b8ff" stroke="#63b8ff" points="832.5,-383.34 827.47,-381.17 830.82,-381.49 829.13,-379.65 829.13,-379.65 829.13,-379.65 830.82,-381.49 830.79,-378.13 832.5,-383.34 832.5,-383.34"/>
</a>
</g>
</g>
<!-- Node14 -->
<g id="Node000014" class="node">
<title>Node14</title>
<g id="a_Node000014"><a xlink:href="../../dc/d07/classServer__Card.html#a4133cbd20c19d006699f23ed26602d8f" target="_top" xlink:title=" ">
<polygon fill="white" stroke="#666666" points="912.5,-309 771.5,-309 771.5,-279 912.5,-279 912.5,-309"/>
<text text-anchor="start" x="779.5" y="-297" font-family="Helvetica,sans-Serif" font-size="10.00">Server_Card::getAttached</text>
<text text-anchor="middle" x="842" y="-286" font-family="Helvetica,sans-Serif" font-size="10.00">Cards</text>
</a>
</g>
</g>
<!-- Node13&#45;&gt;Node14 -->
<g id="edge14_Node000013_Node000014" class="edge">
<title>Node13&#45;&gt;Node14</title>
<g id="a_edge14_Node000013_Node000014"><a xlink:title=" ">
<path fill="none" stroke="#63b8ff" d="M729.12,-281.6C741.38,-282.96 754.02,-284.36 766.21,-285.71"/>
<polygon fill="#63b8ff" stroke="#63b8ff" points="771.4,-286.29 766.19,-287.97 768.92,-286.01 766.43,-285.74 766.43,-285.74 766.43,-285.74 768.92,-286.01 766.68,-283.5 771.4,-286.29 771.4,-286.29"/>
</a>
</g>
</g>
<!-- Node15 -->
<g id="Node000015" class="node">
<title>Node15</title>
<g id="a_Node000015"><a xlink:href="../../dc/d07/classServer__Card.html#a20fb0252bb5038ea5ed9c87bae032e04" target="_top" xlink:title=" ">
<polygon fill="white" stroke="#666666" points="915.5,-260.5 768.5,-260.5 768.5,-241.5 915.5,-241.5 915.5,-260.5"/>
<text text-anchor="middle" x="842" y="-248.5" font-family="Helvetica,sans-Serif" font-size="10.00">Server_Card::getFaceDown</text>
</a>
</g>
</g>
<!-- Node13&#45;&gt;Node15 -->
<g id="edge15_Node000013_Node000015" class="edge">
<title>Node13&#45;&gt;Node15</title>
<g id="a_edge15_Node000013_Node000015"><a xlink:title=" ">
<path fill="none" stroke="#63b8ff" d="M729.12,-263.99C740.38,-262.68 751.97,-261.34 763.23,-260.03"/>
<polygon fill="#63b8ff" stroke="#63b8ff" points="768.38,-259.43 763.67,-262.24 765.9,-259.72 763.41,-260.01 763.41,-260.01 763.41,-260.01 765.9,-259.72 763.15,-257.77 768.38,-259.43 768.38,-259.43"/>
</a>
</g>
</g>
<!-- Node16 -->
<g id="Node000016" class="node">
<title>Node16</title>
<g id="a_Node000016"><a xlink:href="../../dc/d3a/classServer__CardZone.html#aab4f31f933d14dd86afe6f4ff218294c" target="_top" xlink:title=" ">
<polygon fill="white" stroke="#666666" points="918,-180.5 766,-180.5 766,-161.5 918,-161.5 918,-180.5"/>
<text text-anchor="middle" x="842" y="-168.5" font-family="Helvetica,sans-Serif" font-size="10.00">Server_CardZone::getName</text>
</a>
</g>
</g>
<!-- Node13&#45;&gt;Node16 -->
<g id="edge17_Node000013_Node000016" class="edge">
<title>Node13&#45;&gt;Node16</title>
<g id="a_edge17_Node000013_Node000016"><a xlink:title=" ">
<path fill="none" stroke="#63b8ff" d="M705.96,-257.99C714.18,-255.06 722.43,-251.73 730,-248 766.74,-229.92 804.99,-200.69 825.61,-183.92"/>
<polygon fill="#63b8ff" stroke="#63b8ff" points="829.73,-180.54 827.29,-185.45 827.8,-182.13 825.86,-183.71 825.86,-183.71 825.86,-183.71 827.8,-182.13 824.44,-181.97 829.73,-180.54 829.73,-180.54"/>
</a>
</g>
</g>
<!-- Node18&#45;&gt;Node3 -->
<g id="edge21_Node000018_Node000003" class="edge">
<title>Node18&#45;&gt;Node3</title>
<g id="a_edge21_Node000018_Node000003"><a xlink:title=" ">
<path fill="none" stroke="#63b8ff" d="M486.41,-123.1C509.07,-134.6 541.57,-150.38 571,-162 578.38,-164.92 586.25,-167.74 594.05,-170.38"/>
<polygon fill="#63b8ff" stroke="#63b8ff" points="598.89,-172 593.44,-172.55 596.52,-171.21 594.15,-170.41 594.15,-170.41 594.15,-170.41 596.52,-171.21 594.86,-168.28 598.89,-172 598.89,-172"/>
</a>
</g>
</g>
<!-- Node18&#45;&gt;Node7 -->
<g id="edge24_Node000018_Node000007" class="edge">
<title>Node18&#45;&gt;Node7</title>
<g id="a_edge24_Node000018_Node000007"><a xlink:title=" ">
<path fill="none" stroke="#63b8ff" d="M525.19,-120.69C547.58,-124.89 572.23,-129.51 593.63,-133.52"/>
<polygon fill="#63b8ff" stroke="#63b8ff" points="598.71,-134.48 593.38,-135.77 596.25,-134.02 593.79,-133.56 593.79,-133.56 593.79,-133.56 596.25,-134.02 594.21,-131.34 598.71,-134.48 598.71,-134.48"/>
</a>
</g>
</g>
<!-- Node18&#45;&gt;Node16 -->
<g id="edge25_Node000018_Node000016" class="edge">
<title>Node18&#45;&gt;Node16</title>
<g id="a_edge25_Node000018_Node000016"><a xlink:title=" ">
<path fill="none" stroke="#63b8ff" d="M525.02,-106.07C580.71,-105.94 661.42,-109.12 730,-125 762.06,-132.43 796.77,-148.17 818.68,-159.16"/>
<polygon fill="#63b8ff" stroke="#63b8ff" points="823.15,-161.43 817.68,-161.18 820.92,-160.3 818.69,-159.17 818.69,-159.17 818.69,-159.17 820.92,-160.3 819.71,-157.16 823.15,-161.43 823.15,-161.43"/>
</a>
</g>
</g>
<!-- Node19 -->
<g id="Node000019" class="node">
<title>Node19</title>
<g id="a_Node000019"><a xlink:href="../../dc/d3a/classServer__CardZone.html#a6387f438cb082c210278c2ff8ba458db" target="_top" xlink:title=" ">
<polygon fill="white" stroke="#666666" points="729.5,-78 571.5,-78 571.5,-48 729.5,-48 729.5,-78"/>
<text text-anchor="start" x="579.5" y="-66" font-family="Helvetica,sans-Serif" font-size="10.00">Server_CardZone::getAlways</text>
<text text-anchor="middle" x="650.5" y="-55" font-family="Helvetica,sans-Serif" font-size="10.00">LookAtTopCard</text>
</a>
</g>
</g>
<!-- Node18&#45;&gt;Node19 -->
<g id="edge22_Node000018_Node000019" class="edge">
<title>Node18&#45;&gt;Node19</title>
<g id="a_edge22_Node000018_Node000019"><a xlink:title=" ">
<path fill="none" stroke="#63b8ff" d="M521.7,-92.95C540.43,-88.56 560.99,-83.74 580.03,-79.28"/>
<polygon fill="#63b8ff" stroke="#63b8ff" points="585.36,-78.03 581.01,-81.36 582.93,-78.6 580.49,-79.17 580.49,-79.17 580.49,-79.17 582.93,-78.6 579.98,-76.98 585.36,-78.03 585.36,-78.03"/>
</a>
</g>
</g>
<!-- Node20 -->
<g id="Node000020" class="node">
<title>Node20</title>
<g id="a_Node000020"><a xlink:href="../../dc/d3a/classServer__CardZone.html#ac022fd0875c313172b65ef775f4ec144" target="_top" xlink:title=" ">
<polygon fill="white" stroke="#666666" points="729.5,-30 571.5,-30 571.5,0 729.5,0 729.5,-30"/>
<text text-anchor="start" x="579.5" y="-18" font-family="Helvetica,sans-Serif" font-size="10.00">Server_CardZone::getAlways</text>
<text text-anchor="middle" x="650.5" y="-7" font-family="Helvetica,sans-Serif" font-size="10.00">RevealTopCard</text>
</a>
</g>
</g>
<!-- Node18&#45;&gt;Node20 -->
<g id="edge23_Node000018_Node000020" class="edge">
<title>Node18&#45;&gt;Node20</title>
<g id="a_edge23_Node000018_Node000020"><a xlink:title=" ">
<path fill="none" stroke="#63b8ff" d="M518.78,-92.89C524.48,-90.35 530,-87.41 535,-84 556.17,-69.58 549.81,-53.39 571,-39 574.72,-36.47 578.72,-34.2 582.87,-32.17"/>
<polygon fill="#63b8ff" stroke="#63b8ff" points="587.43,-30.05 583.85,-34.2 585.16,-31.1 582.9,-32.16 582.9,-32.16 582.9,-32.16 585.16,-31.1 581.95,-30.12 587.43,-30.05 587.43,-30.05"/>
</a>
</g>
</g>
</g>
</svg>

<g id="navigator" transform="translate(0 0)" fill="#404254">
  <rect fill="#f2f5e9" fill-opacity="0.5" stroke="#606060" stroke-width=".5" x="0" y="0" width="60" height="60"/>
  <use id="zoomplus" xlink:href="#zoomPlus" x="17" y="9" onmousedown="handleZoom(evt,'in')"/>
  <use id="zoomminus" xlink:href="#zoomMin" x="42" y="9" onmousedown="handleZoom(evt,'out')"/>
  <use id="reset" xlink:href="#resetDef" x="30" y="36" onmousedown="handleReset()"/>
   <use id="arrowup" xlink:href="#arrowUp" x="0" y="0" onmousedown="handlePan(0,-1)"/>
  <use id="arrowright" xlink:href="#arrowRight" x="0" y="0" onmousedown="handlePan(1,0)"/>
  <use id="arrowdown" xlink:href="#arrowDown" x="0" y="0" onmousedown="handlePan(0,1)"/>
  <use id="arrowleft" xlink:href="#arrowLeft" x="0" y="0" onmousedown="handlePan(-1,0)"/>
</g>
<svg viewBox="0 0 15 15" width="100%" height="30px" preserveAspectRatio="xMaxYMin meet">
 <g id="arrow_out" transform="scale(0.3 0.3)">
  <a xlink:href="classServer__Player_ad2f4951b344ea40b65995200b38d1564_cgraph_org.svg" target="_base">
   <rect id="button" ry="5" rx="5" y="6" x="6" height="38" width="38"
        fill="#f2f5e9" fill-opacity="0.5" stroke="#606060" stroke-width="1.0"/>
   <path id="arrow"
     d="M 11.500037,31.436501 C 11.940474,20.09759 22.043105,11.32322 32.158766,21.979434 L 37.068811,17.246167 C 37.068811,17.246167 37.088388,32 37.088388,32 L 22.160133,31.978069 C 22.160133,31.978069 26.997745,27.140456 26.997745,27.140456 C 18.528582,18.264221 13.291696,25.230495 11.500037,31.436501 z"
     style="fill:#404040;"/>
  </a>
 </g>
</svg>

<style type='text/css'>
<![CDATA[
[data-mouse-over-selected='false'] { opacity: 0.7; }
[data-mouse-over-selected='true']  { opacity: 1.0; }
]]>
</style>
<script type="application/ecmascript"><![CDATA[
document.addEventListener('DOMContentLoaded', (event) => {
  highlightEdges();
  highlightAdjacentNodes();
});
]]></script>
</svg>
