<?xml version="1.0" encoding="UTF-8" standalone="no"?>
<!DOCTYPE svg PUBLIC "-//W3C//DTD SVG 1.1//EN"
 "http://www.w3.org/Graphics/SVG/1.1/DTD/svg11.dtd">
<!-- Generated by graphviz version 2.43.0 (0)
 -->
<!-- Title: Server_Player::getInfo Pages: 1 -->
<!--zoomable 131 -->

<svg id="main" version="1.1" xmlns="http://www.w3.org/2000/svg" xmlns:xlink="http://www.w3.org/1999/xlink" xml:space="preserve" onload="init(evt)">
<style type="text/css"><![CDATA[
.node, .edge {opacity: 0.7;}
.node.selected, .edge.selected {opacity: 1;}
.edge:hover path { stroke: red; }
.edge:hover polygon { stroke: red; fill: red; }
]]></style>

<defs>
  <circle id="rim" cx="0" cy="0" r="7"/>
  <circle id="rim2" cx="0" cy="0" r="3.5"/>
  <g id="zoomPlus">
    <use xlink:href="#rim" fill="#404040"><set attributeName="fill" to="#808080" begin="zoomplus.mouseover" end="zoomplus.mouseout"/></use>
    <path d="M-4,0h8M0,-4v8" fill="none" stroke="white" stroke-width="1.5" pointer-events="none"/>
  </g>
  <g id="zoomMin">
    <use xlink:href="#rim" fill="#404040"><set attributeName="fill" to="#808080" begin="zoomminus.mouseover" end="zoomminus.mouseout"/></use>
    <path d="M-4,0h8" fill="none" stroke="white" stroke-width="1.5" pointer-events="none"/>
  </g>
  <g id="arrowUp" transform="translate(30 24)">
    <use xlink:href="#rim"/>
    <path pointer-events="none" fill="none" stroke="white" stroke-width="1.5" d="M0,-3.0v7 M-2.5,-0.5L0,-3.0L2.5,-0.5"/>
  </g>
  <g id="arrowRight" transform="rotate(90) translate(36 -43)">
    <use xlink:href="#rim"/>
    <path pointer-events="none" fill="none" stroke="white" stroke-width="1.5" d="M0,-3.0v7 M-2.5,-0.5L0,-3.0L2.5,-0.5"/>
  </g>
  <g id="arrowDown" transform="rotate(180) translate(-30 -48)">
    <use xlink:href="#rim"/>
    <path pointer-events="none" fill="none" stroke="white" stroke-width="1.5" d="M0,-3.0v7 M-2.5,-0.5L0,-3.0L2.5,-0.5"/>
  </g>
  <g id="arrowLeft" transform="rotate(270) translate(-36 17)">
    <use xlink:href="#rim"/>
    <path pointer-events="none" fill="none" stroke="white" stroke-width="1.5" d="M0,-3.0v7 M-2.5,-0.5L0,-3.0L2.5,-0.5"/>
  </g>
  <g id="resetDef">
    <use xlink:href="#rim2" fill="#404040"><set attributeName="fill" to="#808080" begin="reset.mouseover" end="reset.mouseout"/></use>
  </g>
</defs>
<script type="application/ecmascript">
var viewWidth = 647;
var viewHeight = 131;
var sectionId = 'dynsection-43';
</script>
<script type="application/ecmascript" xlink:href="../../svg.min.js"/>
<svg id="graph" class="graph">
<g id="viewport">
<title>Server_Player::getInfo</title>
<!-- Node1 -->
<g id="Node000001" class="node">
<title>Node1</title>
<g id="a_Node000001"><a xlink:title=" ">
<polygon fill="#999999" stroke="#666666" points="125,-48.5 0,-48.5 0,-29.5 125,-29.5 125,-48.5"/>
<text text-anchor="middle" x="62.5" y="-36.5" font-family="Helvetica,sans-Serif" font-size="10.00">Server_Player::getInfo</text>
</a>
</g>
</g>
<!-- Node2 -->
<g id="Node000002" class="node">
<title>Node2</title>
<g id="a_Node000002"><a xlink:href="../../d0/d00/classServer__AbstractParticipant.html#a34a1c3f1dfe454eb511f786bade699bc" target="_top" xlink:title=" ">
<polygon fill="white" stroke="#666666" points="307,-78 161,-78 161,-48 307,-48 307,-78"/>
<text text-anchor="start" x="169" y="-66" font-family="Helvetica,sans-Serif" font-size="10.00">Server_AbstractParticipant</text>
<text text-anchor="middle" x="234" y="-55" font-family="Helvetica,sans-Serif" font-size="10.00">::getProperties</text>
</a>
</g>
</g>
<!-- Node1&#45;&gt;Node2 -->
<g id="edge1_Node000001_Node000002" class="edge">
<title>Node1&#45;&gt;Node2</title>
<g id="a_edge1_Node000001_Node000002"><a xlink:title=" ">
<path fill="none" stroke="#63b8ff" d="M125.17,-47.73C135.1,-49.14 145.48,-50.61 155.71,-52.06"/>
<polygon fill="#63b8ff" stroke="#63b8ff" points="160.72,-52.77 155.46,-54.29 158.25,-52.42 155.77,-52.07 155.77,-52.07 155.77,-52.07 158.25,-52.42 156.09,-49.84 160.72,-52.77 160.72,-52.77"/>
</a>
</g>
</g>
<!-- Node5 -->
<g id="Node000005" class="node">
<title>Node5</title>
<g id="a_Node000005"><a xlink:href="../../da/d68/classDeckList.html#a79d6a068df3b2a323a04621fb3ecb8b0" target="_top" xlink:title=" ">
<polygon fill="white" stroke="#666666" points="298,-30 170,-30 170,0 298,0 298,-30"/>
<text text-anchor="start" x="178" y="-18" font-family="Helvetica,sans-Serif" font-size="10.00">DeckList::writeToString</text>
<text text-anchor="middle" x="234" y="-7" font-family="Helvetica,sans-Serif" font-size="10.00">_Native</text>
</a>
</g>
</g>
<!-- Node1&#45;&gt;Node5 -->
<g id="edge4_Node000001_Node000005" class="edge">
<title>Node1&#45;&gt;Node5</title>
<g id="a_edge4_Node000001_Node000005"><a xlink:title=" ">
<path fill="none" stroke="#63b8ff" d="M125.17,-30.27C138.04,-28.45 151.68,-26.51 164.77,-24.66"/>
<polygon fill="#63b8ff" stroke="#63b8ff" points="169.95,-23.93 165.32,-26.86 167.48,-24.28 165,-24.63 165,-24.63 165,-24.63 167.48,-24.28 164.68,-22.4 169.95,-23.93 169.95,-23.93"/>
</a>
</g>
</g>
<!-- Node3 -->
<g id="Node000003" class="node">
<title>Node3</title>
<g id="a_Node000003"><a xlink:href="../../d9/d5b/classServerInfo__User__Container.html#a0ab338c85613f9d78d7e8f0b2f014f0d" target="_top" xlink:title=" ">
<polygon fill="white" stroke="#666666" points="490,-123 343,-123 343,-93 490,-93 490,-123"/>
<text text-anchor="start" x="351" y="-111" font-family="Helvetica,sans-Serif" font-size="10.00">ServerInfo_User_Container</text>
<text text-anchor="middle" x="416.5" y="-100" font-family="Helvetica,sans-Serif" font-size="10.00">::copyUserInfo</text>
</a>
</g>
</g>
<!-- Node2&#45;&gt;Node3 -->
<g id="edge2_Node000002_Node000003" class="edge">
<title>Node2&#45;&gt;Node3</title>
<g id="a_edge2_Node000002_Node000003"><a xlink:title=" ">
<path fill="none" stroke="#63b8ff" d="M295.35,-78.05C312.97,-82.44 332.29,-87.26 350.19,-91.72"/>
<polygon fill="#63b8ff" stroke="#63b8ff" points="355.2,-92.97 349.81,-93.94 352.78,-92.36 350.35,-91.76 350.35,-91.76 350.35,-91.76 352.78,-92.36 350.89,-89.57 355.2,-92.97 355.2,-92.97"/>
</a>
</g>
</g>
<!-- Node4 -->
<g id="Node000004" class="node">
<title>Node4</title>
<g id="a_Node000004"><a xlink:href="../../d0/d00/classServer__AbstractParticipant.html#abde39f5456d3668be695c0e8df49d577" target="_top" xlink:title=" ">
<polygon fill="white" stroke="#666666" points="489.5,-75 343.5,-75 343.5,-45 489.5,-45 489.5,-75"/>
<text text-anchor="start" x="351.5" y="-63" font-family="Helvetica,sans-Serif" font-size="10.00">Server_AbstractParticipant</text>
<text text-anchor="middle" x="416.5" y="-52" font-family="Helvetica,sans-Serif" font-size="10.00">::getPlayerProperties</text>
</a>
</g>
</g>
<!-- Node2&#45;&gt;Node4 -->
<g id="edge3_Node000002_Node000004" class="edge">
<title>Node2&#45;&gt;Node4</title>
<g id="a_edge3_Node000002_Node000004"><a xlink:title=" ">
<path fill="none" stroke="#63b8ff" d="M307.12,-61.8C317.41,-61.63 328.04,-61.45 338.42,-61.28"/>
<polygon fill="#63b8ff" stroke="#63b8ff" points="343.5,-61.2 338.54,-63.53 341,-61.24 338.5,-61.28 338.5,-61.28 338.5,-61.28 341,-61.24 338.46,-59.03 343.5,-61.2 343.5,-61.2"/>
</a>
</g>
</g>
<!-- Node6 -->
<g id="Node000006" class="node">
<title>Node6</title>
<g id="a_Node000006"><a xlink:href="../../da/d68/classDeckList.html#a9bef2e38b0a9b7f7138f0a1010c98ab8" target="_top" xlink:title=" ">
<polygon fill="white" stroke="#666666" points="461,-24.5 372,-24.5 372,-5.5 461,-5.5 461,-24.5"/>
<text text-anchor="middle" x="416.5" y="-12.5" font-family="Helvetica,sans-Serif" font-size="10.00">DeckList::write</text>
</a>
</g>
</g>
<!-- Node5&#45;&gt;Node6 -->
<g id="edge5_Node000005_Node000006" class="edge">
<title>Node5&#45;&gt;Node6</title>
<g id="a_edge5_Node000005_Node000006"><a xlink:title=" ">
<path fill="none" stroke="#63b8ff" d="M298.13,-15C320.72,-15 345.8,-15 366.97,-15"/>
<polygon fill="#63b8ff" stroke="#63b8ff" points="371.98,-15 366.98,-17.25 369.48,-15 366.98,-15 366.98,-15 366.98,-15 369.48,-15 366.98,-12.75 371.98,-15 371.98,-15"/>
</a>
</g>
</g>
<!-- Node7 -->
<g id="Node000007" class="node">
<title>Node7</title>
<g id="a_Node000007"><a xlink:href="../../d4/d55/classInnerDecklistNode.html#a60a83b3eae9d802ea394dea41d60bfe9" target="_top" xlink:title="Serialize this node and its children to XML.">
<polygon fill="white" stroke="#666666" points="639,-30 526,-30 526,0 639,0 639,-30"/>
<text text-anchor="start" x="534" y="-18" font-family="Helvetica,sans-Serif" font-size="10.00">InnerDecklistNode::</text>
<text text-anchor="middle" x="582.5" y="-7" font-family="Helvetica,sans-Serif" font-size="10.00">writeElement</text>
</a>
</g>
</g>
<!-- Node6&#45;&gt;Node7 -->
<g id="edge6_Node000006_Node000007" class="edge">
<title>Node6&#45;&gt;Node7</title>
<g id="a_edge6_Node000006_Node000007"><a xlink:title=" ">
<path fill="none" stroke="#63b8ff" d="M461.02,-15C479.39,-15 501.09,-15 520.98,-15"/>
<polygon fill="#63b8ff" stroke="#63b8ff" points="526,-15 521,-17.25 523.5,-15 521,-15 521,-15 521,-15 523.5,-15 521,-12.75 526,-15 526,-15"/>
</a>
</g>
</g>
</g>
</svg>

<g id="navigator" transform="translate(0 0)" fill="#404254">
  <rect fill="#f2f5e9" fill-opacity="0.5" stroke="#606060" stroke-width=".5" x="0" y="0" width="60" height="60"/>
  <use id="zoomplus" xlink:href="#zoomPlus" x="17" y="9" onmousedown="handleZoom(evt,'in')"/>
  <use id="zoomminus" xlink:href="#zoomMin" x="42" y="9" onmousedown="handleZoom(evt,'out')"/>
  <use id="reset" xlink:href="#resetDef" x="30" y="36" onmousedown="handleReset()"/>
   <use id="arrowup" xlink:href="#arrowUp" x="0" y="0" onmousedown="handlePan(0,-1)"/>
  <use id="arrowright" xlink:href="#arrowRight" x="0" y="0" onmousedown="handlePan(1,0)"/>
  <use id="arrowdown" xlink:href="#arrowDown" x="0" y="0" onmousedown="handlePan(0,1)"/>
  <use id="arrowleft" xlink:href="#arrowLeft" x="0" y="0" onmousedown="handlePan(-1,0)"/>
</g>
<svg viewBox="0 0 15 15" width="100%" height="30px" preserveAspectRatio="xMaxYMin meet">
 <g id="arrow_out" transform="scale(0.3 0.3)">
  <a xlink:href="classServer__Player_a8919f52850043f7a6f7ad5b8cb472685_cgraph_org.svg" target="_base">
   <rect id="button" ry="5" rx="5" y="6" x="6" height="38" width="38"
        fill="#f2f5e9" fill-opacity="0.5" stroke="#606060" stroke-width="1.0"/>
   <path id="arrow"
     d="M 11.500037,31.436501 C 11.940474,20.09759 22.043105,11.32322 32.158766,21.979434 L 37.068811,17.246167 C 37.068811,17.246167 37.088388,32 37.088388,32 L 22.160133,31.978069 C 22.160133,31.978069 26.997745,27.140456 26.997745,27.140456 C 18.528582,18.264221 13.291696,25.230495 11.500037,31.436501 z"
     style="fill:#404040;"/>
  </a>
 </g>
</svg>

<style type='text/css'>
<![CDATA[
[data-mouse-over-selected='false'] { opacity: 0.7; }
[data-mouse-over-selected='true']  { opacity: 1.0; }
]]>
</style>
<script type="application/ecmascript"><![CDATA[
document.addEventListener('DOMContentLoaded', (event) => {
  highlightEdges();
  highlightAdjacentNodes();
});
]]></script>
</svg>
