<?xml version="1.0" encoding="UTF-8" standalone="no"?>
<!DOCTYPE svg PUBLIC "-//W3C//DTD SVG 1.1//EN"
 "http://www.w3.org/Graphics/SVG/1.1/DTD/svg11.dtd">
<!-- Generated by graphviz version 2.43.0 (0)
 -->
<!-- Title: DeckEditorCardDatabaseDockWidget::DeckEditorCardDatabaseDockWidget Pages: 1 -->
<svg width="998pt" height="467pt"
 viewBox="0.00 0.00 998.00 467.30" xmlns="http://www.w3.org/2000/svg" xmlns:xlink="http://www.w3.org/1999/xlink">
<g id="graph0" class="graph" transform="scale(1 1) rotate(0) translate(4 463.3)">
<title>DeckEditorCardDatabaseDockWidget::DeckEditorCardDatabaseDockWidget</title>
<!-- Node1 -->
<g id="Node000001" class="node">
<title>Node1</title>
<g id="a_Node000001"><a xlink:title=" ">
<polygon fill="#999999" stroke="#666666" points="179,-227.5 0,-227.5 0,-186.5 179,-186.5 179,-227.5"/>
<text text-anchor="start" x="8" y="-215.5" font-family="Helvetica,sans-Serif" font-size="10.00">DeckEditorCardDatabaseDock</text>
<text text-anchor="start" x="8" y="-204.5" font-family="Helvetica,sans-Serif" font-size="10.00">Widget::DeckEditorCardDatabase</text>
<text text-anchor="middle" x="89.5" y="-193.5" font-family="Helvetica,sans-Serif" font-size="10.00">DockWidget</text>
</a>
</g>
</g>
<!-- Node2 -->
<g id="Node000002" class="node">
<title>Node2</title>
<g id="a_Node000002"><a xlink:href="../../d1/d94/classDeckEditorCardDatabaseDockWidget.html#ad6dd3c0e2db7647a68c4518d9d11ed81" target="_top" xlink:title=" ">
<polygon fill="white" stroke="#666666" points="411,-246 215,-246 215,-216 411,-216 411,-246"/>
<text text-anchor="start" x="223" y="-234" font-family="Helvetica,sans-Serif" font-size="10.00">DeckEditorCardDatabaseDock</text>
<text text-anchor="middle" x="313" y="-223" font-family="Helvetica,sans-Serif" font-size="10.00">Widget::createDatabaseDisplayDock</text>
</a>
</g>
</g>
<!-- Node1&#45;&gt;Node2 -->
<g id="edge1_Node000001_Node000002" class="edge">
<title>Node1&#45;&gt;Node2</title>
<g id="a_edge1_Node000001_Node000002"><a xlink:title=" ">
<path fill="none" stroke="#63b8ff" d="M179.32,-216.62C189.35,-217.71 199.63,-218.82 209.82,-219.93"/>
<polygon fill="#63b8ff" stroke="#63b8ff" points="214.81,-220.47 209.6,-222.17 212.32,-220.2 209.84,-219.93 209.84,-219.93 209.84,-219.93 212.32,-220.2 210.08,-217.69 214.81,-220.47 214.81,-220.47"/>
</a>
</g>
</g>
<!-- Node15 -->
<g id="Node000015" class="node">
<title>Node15</title>
<g id="a_Node000015"><a xlink:href="../../d1/d94/classDeckEditorCardDatabaseDockWidget.html#ab6d32b2783eb9e4483df43193a979d98" target="_top" xlink:title=" ">
<polygon fill="white" stroke="#666666" points="395,-198 231,-198 231,-168 395,-168 395,-198"/>
<text text-anchor="start" x="239" y="-186" font-family="Helvetica,sans-Serif" font-size="10.00">DeckEditorCardDatabaseDock</text>
<text text-anchor="middle" x="313" y="-175" font-family="Helvetica,sans-Serif" font-size="10.00">Widget::retranslateUi</text>
</a>
</g>
</g>
<!-- Node1&#45;&gt;Node15 -->
<g id="edge16_Node000001_Node000015" class="edge">
<title>Node1&#45;&gt;Node15</title>
<g id="a_edge16_Node000001_Node000015"><a xlink:title=" ">
<path fill="none" stroke="#63b8ff" d="M179.32,-197.38C194.56,-195.72 210.39,-194.01 225.57,-192.36"/>
<polygon fill="#63b8ff" stroke="#63b8ff" points="230.69,-191.81 225.96,-194.59 228.21,-192.08 225.72,-192.35 225.72,-192.35 225.72,-192.35 228.21,-192.08 225.48,-190.11 230.69,-191.81 230.69,-191.81"/>
</a>
</g>
</g>
<!-- Node3 -->
<g id="Node000003" class="node">
<title>Node3</title>
<g id="a_Node000003"><a xlink:href="../../d1/d53/classAbstractTabDeckEditor.html#a86fddfe318be81f8fe4aa54e980fcdd1" target="_top" xlink:title="Adds a card to the main deck or sideboard based on Ctrl key.">
<polygon fill="white" stroke="#666666" points="613.5,-414 486.5,-414 486.5,-384 613.5,-384 613.5,-414"/>
<text text-anchor="start" x="494.5" y="-402" font-family="Helvetica,sans-Serif" font-size="10.00">AbstractTabDeckEditor</text>
<text text-anchor="middle" x="550" y="-391" font-family="Helvetica,sans-Serif" font-size="10.00">::actAddCard</text>
</a>
</g>
</g>
<!-- Node2&#45;&gt;Node3 -->
<g id="edge2_Node000002_Node000003" class="edge">
<title>Node2&#45;&gt;Node3</title>
<g id="a_edge2_Node000002_Node000003"><a xlink:title=" ">
<path fill="none" stroke="#63b8ff" d="M323.59,-246.39C343,-276.19 389.97,-341.73 447,-375 457.45,-381.1 469.35,-385.64 481.25,-389.04"/>
<polygon fill="#63b8ff" stroke="#63b8ff" points="486.34,-390.42 480.93,-391.28 483.93,-389.77 481.52,-389.11 481.52,-389.11 481.52,-389.11 483.93,-389.77 482.11,-386.94 486.34,-390.42 486.34,-390.42"/>
</a>
</g>
</g>
<!-- Node4 -->
<g id="Node000004" class="node">
<title>Node4</title>
<g id="a_Node000004"><a xlink:href="../../d1/d53/classAbstractTabDeckEditor.html#ad81c6e4ddfb67cdb61cc8bc6179bb5c6" target="_top" xlink:title="Adds a card to the sideboard explicitly.">
<polygon fill="white" stroke="#666666" points="827,-457 689,-457 689,-427 827,-427 827,-457"/>
<text text-anchor="start" x="697" y="-445" font-family="Helvetica,sans-Serif" font-size="10.00">AbstractTabDeckEditor</text>
<text text-anchor="middle" x="758" y="-434" font-family="Helvetica,sans-Serif" font-size="10.00">::actAddCardToSideboard</text>
</a>
</g>
</g>
<!-- Node2&#45;&gt;Node4 -->
<g id="edge6_Node000002_Node000004" class="edge">
<title>Node2&#45;&gt;Node4</title>
<g id="a_edge6_Node000002_Node000004"><a xlink:title=" ">
<path fill="none" stroke="#63b8ff" d="M319.21,-246.24C333.06,-284.1 374.75,-382.29 447,-423 519.57,-463.89 617.43,-462.35 683.64,-454.7"/>
<polygon fill="#63b8ff" stroke="#63b8ff" points="688.75,-454.09 684.06,-456.91 686.27,-454.38 683.79,-454.68 683.79,-454.68 683.79,-454.68 686.27,-454.38 683.52,-452.45 688.75,-454.09 688.75,-454.09"/>
</a>
</g>
</g>
<!-- Node6 -->
<g id="Node000006" class="node">
<title>Node6</title>
<g id="a_Node000006"><a xlink:href="../../d1/d53/classAbstractTabDeckEditor.html#ad3695aa2697226b04e4d9b9185446a7d" target="_top" xlink:title="Decrements a card from the main deck.">
<polygon fill="white" stroke="#666666" points="613.5,-366 486.5,-366 486.5,-336 613.5,-336 613.5,-366"/>
<text text-anchor="start" x="494.5" y="-354" font-family="Helvetica,sans-Serif" font-size="10.00">AbstractTabDeckEditor</text>
<text text-anchor="middle" x="550" y="-343" font-family="Helvetica,sans-Serif" font-size="10.00">::actDecrementCard</text>
</a>
</g>
</g>
<!-- Node2&#45;&gt;Node6 -->
<g id="edge7_Node000002_Node000006" class="edge">
<title>Node2&#45;&gt;Node6</title>
<g id="a_edge7_Node000002_Node000006"><a xlink:title=" ">
<path fill="none" stroke="#63b8ff" d="M330.27,-246.09C354.08,-267.33 400.63,-305.84 447,-327 457.79,-331.92 469.7,-335.9 481.45,-339.08"/>
<polygon fill="#63b8ff" stroke="#63b8ff" points="486.48,-340.4 481.07,-341.31 484.06,-339.77 481.64,-339.13 481.64,-339.13 481.64,-339.13 484.06,-339.77 482.21,-336.96 486.48,-340.4 486.48,-340.4"/>
</a>
</g>
</g>
<!-- Node7 -->
<g id="Node000007" class="node">
<title>Node7</title>
<g id="a_Node000007"><a xlink:href="../../d1/d53/classAbstractTabDeckEditor.html#a7e385dad46e8275452dd56892b176340" target="_top" xlink:title="Decrements a card from the sideboard.">
<polygon fill="white" stroke="#666666" points="644,-318 456,-318 456,-288 644,-288 644,-318"/>
<text text-anchor="start" x="464" y="-306" font-family="Helvetica,sans-Serif" font-size="10.00">AbstractTabDeckEditor</text>
<text text-anchor="middle" x="550" y="-295" font-family="Helvetica,sans-Serif" font-size="10.00">::actDecrementCardFromSideboard</text>
</a>
</g>
</g>
<!-- Node2&#45;&gt;Node7 -->
<g id="edge8_Node000002_Node000007" class="edge">
<title>Node2&#45;&gt;Node7</title>
<g id="a_edge8_Node000002_Node000007"><a xlink:title=" ">
<path fill="none" stroke="#63b8ff" d="M352.02,-246.05C378.41,-256.16 414.53,-269.35 447,-279 456.06,-281.69 465.64,-284.28 475.16,-286.69"/>
<polygon fill="#63b8ff" stroke="#63b8ff" points="480.13,-287.94 474.73,-288.9 477.71,-287.33 475.28,-286.72 475.28,-286.72 475.28,-286.72 477.71,-287.33 475.83,-284.54 480.13,-287.94 480.13,-287.94"/>
</a>
</g>
</g>
<!-- Node8 -->
<g id="Node000008" class="node">
<title>Node8</title>
<g id="a_Node000008"><a xlink:href="../../d3/d0a/classDeckEditorDatabaseDisplayWidget.html#adcf5b126ee1b7fc86b73459ddd04ddd7" target="_top" xlink:title=" ">
<polygon fill="white" stroke="#666666" points="628.5,-270 471.5,-270 471.5,-240 628.5,-240 628.5,-270"/>
<text text-anchor="start" x="479.5" y="-258" font-family="Helvetica,sans-Serif" font-size="10.00">DeckEditorDatabaseDisplay</text>
<text text-anchor="middle" x="550" y="-247" font-family="Helvetica,sans-Serif" font-size="10.00">Widget::addCardToMainDeck</text>
</a>
</g>
</g>
<!-- Node2&#45;&gt;Node8 -->
<g id="edge9_Node000002_Node000008" class="edge">
<title>Node2&#45;&gt;Node8</title>
<g id="a_edge9_Node000002_Node000008"><a xlink:title=" ">
<path fill="none" stroke="#63b8ff" d="M411.28,-240.93C429.36,-242.78 448.1,-244.7 465.71,-246.49"/>
<polygon fill="#63b8ff" stroke="#63b8ff" points="471.14,-247.05 465.94,-248.78 468.66,-246.79 466.17,-246.54 466.17,-246.54 466.17,-246.54 468.66,-246.79 466.4,-244.3 471.14,-247.05 471.14,-247.05"/>
</a>
</g>
</g>
<!-- Node9 -->
<g id="Node000009" class="node">
<title>Node9</title>
<g id="a_Node000009"><a xlink:href="../../d3/d0a/classDeckEditorDatabaseDisplayWidget.html#a018152cb771459b9567facf6954b98f5" target="_top" xlink:title=" ">
<polygon fill="white" stroke="#666666" points="628.5,-222 471.5,-222 471.5,-192 628.5,-192 628.5,-222"/>
<text text-anchor="start" x="479.5" y="-210" font-family="Helvetica,sans-Serif" font-size="10.00">DeckEditorDatabaseDisplay</text>
<text text-anchor="middle" x="550" y="-199" font-family="Helvetica,sans-Serif" font-size="10.00">Widget::addCardToSideboard</text>
</a>
</g>
</g>
<!-- Node2&#45;&gt;Node9 -->
<g id="edge10_Node000002_Node000009" class="edge">
<title>Node2&#45;&gt;Node9</title>
<g id="a_edge10_Node000002_Node000009"><a xlink:title=" ">
<path fill="none" stroke="#63b8ff" d="M411.28,-221.07C429.36,-219.22 448.1,-217.3 465.71,-215.51"/>
<polygon fill="#63b8ff" stroke="#63b8ff" points="471.14,-214.95 466.4,-217.7 468.66,-215.21 466.17,-215.46 466.17,-215.46 466.17,-215.46 468.66,-215.21 465.94,-213.22 471.14,-214.95 471.14,-214.95"/>
</a>
</g>
</g>
<!-- Node10 -->
<g id="Node000010" class="node">
<title>Node10</title>
<g id="a_Node000010"><a xlink:href="../../d3/d0a/classDeckEditorDatabaseDisplayWidget.html#ab6305c033f29d828de8983ec3c2a081b" target="_top" xlink:title=" ">
<polygon fill="white" stroke="#666666" points="626.5,-174 473.5,-174 473.5,-144 626.5,-144 626.5,-174"/>
<text text-anchor="start" x="481.5" y="-162" font-family="Helvetica,sans-Serif" font-size="10.00">DeckEditorDatabaseDisplay</text>
<text text-anchor="middle" x="550" y="-151" font-family="Helvetica,sans-Serif" font-size="10.00">Widget::cardChanged</text>
</a>
</g>
</g>
<!-- Node2&#45;&gt;Node10 -->
<g id="edge11_Node000002_Node000010" class="edge">
<title>Node2&#45;&gt;Node10</title>
<g id="a_edge11_Node000002_Node000010"><a xlink:title=" ">
<path fill="none" stroke="#63b8ff" d="M386.7,-215.95C395.04,-213.36 403.3,-210.39 411,-207 428.6,-199.24 429.36,-190.66 447,-183 453.78,-180.06 460.98,-177.44 468.29,-175.13"/>
<polygon fill="#63b8ff" stroke="#63b8ff" points="473.36,-173.58 469.24,-177.19 470.97,-174.31 468.58,-175.04 468.58,-175.04 468.58,-175.04 470.97,-174.31 467.92,-172.89 473.36,-173.58 473.36,-173.58"/>
</a>
</g>
</g>
<!-- Node11 -->
<g id="Node000011" class="node">
<title>Node11</title>
<g id="a_Node000011"><a xlink:href="../../d3/d0a/classDeckEditorDatabaseDisplayWidget.html#a6e09af4542066975380025ad5dbc7c98" target="_top" xlink:title=" ">
<polygon fill="white" stroke="#666666" points="653,-126 447,-126 447,-96 653,-96 653,-126"/>
<text text-anchor="start" x="455" y="-114" font-family="Helvetica,sans-Serif" font-size="10.00">DeckEditorDatabaseDisplay</text>
<text text-anchor="middle" x="550" y="-103" font-family="Helvetica,sans-Serif" font-size="10.00">Widget::decrementCardFromMainDeck</text>
</a>
</g>
</g>
<!-- Node2&#45;&gt;Node11 -->
<g id="edge12_Node000002_Node000011" class="edge">
<title>Node2&#45;&gt;Node11</title>
<g id="a_edge12_Node000002_Node000011"><a xlink:title=" ">
<path fill="none" stroke="#63b8ff" d="M396.88,-216C401.9,-213.44 406.67,-210.47 411,-207 438.93,-184.65 418.94,-157.19 447,-135 449.94,-132.67 453.07,-130.56 456.34,-128.66"/>
<polygon fill="#63b8ff" stroke="#63b8ff" points="460.88,-126.17 457.57,-130.55 458.69,-127.37 456.5,-128.57 456.5,-128.57 456.5,-128.57 458.69,-127.37 455.42,-126.6 460.88,-126.17 460.88,-126.17"/>
</a>
</g>
</g>
<!-- Node12 -->
<g id="Node000012" class="node">
<title>Node12</title>
<g id="a_Node000012"><a xlink:href="../../d3/d0a/classDeckEditorDatabaseDisplayWidget.html#a456eb79ee892f2376bac1d9beca2be95" target="_top" xlink:title=" ">
<polygon fill="white" stroke="#666666" points="653,-78 447,-78 447,-48 653,-48 653,-78"/>
<text text-anchor="start" x="455" y="-66" font-family="Helvetica,sans-Serif" font-size="10.00">DeckEditorDatabaseDisplay</text>
<text text-anchor="middle" x="550" y="-55" font-family="Helvetica,sans-Serif" font-size="10.00">Widget::decrementCardFromSideboard</text>
</a>
</g>
</g>
<!-- Node2&#45;&gt;Node12 -->
<g id="edge13_Node000002_Node000012" class="edge">
<title>Node2&#45;&gt;Node12</title>
<g id="a_edge13_Node000002_Node000012"><a xlink:title=" ">
<path fill="none" stroke="#63b8ff" d="M399.4,-215.77C403.57,-213.25 407.48,-210.35 411,-207 451.32,-168.6 406.46,-125.17 447,-87 449.35,-84.79 451.86,-82.77 454.5,-80.93"/>
<polygon fill="#63b8ff" stroke="#63b8ff" points="458.75,-78.17 455.78,-82.78 456.65,-79.53 454.55,-80.89 454.55,-80.89 454.55,-80.89 456.65,-79.53 453.33,-79 458.75,-78.17 458.75,-78.17"/>
</a>
</g>
</g>
<!-- Node13 -->
<g id="Node000013" class="node">
<title>Node13</title>
<g id="a_Node000013"><a xlink:href="../../d1/d53/classAbstractTabDeckEditor.html#a51f8be3c74964024053c3dd633e9a335" target="_top" xlink:title="Updates the card info panel.">
<polygon fill="white" stroke="#666666" points="613.5,-30 486.5,-30 486.5,0 613.5,0 613.5,-30"/>
<text text-anchor="start" x="494.5" y="-18" font-family="Helvetica,sans-Serif" font-size="10.00">AbstractTabDeckEditor</text>
<text text-anchor="middle" x="550" y="-7" font-family="Helvetica,sans-Serif" font-size="10.00">::updateCard</text>
</a>
</g>
</g>
<!-- Node2&#45;&gt;Node13 -->
<g id="edge14_Node000002_Node000013" class="edge">
<title>Node2&#45;&gt;Node13</title>
<g id="a_edge14_Node000002_Node000013"><a xlink:title=" ">
<path fill="none" stroke="#63b8ff" d="M400.17,-215.82C404.09,-213.28 407.74,-210.36 411,-207 464.14,-152.16 393.55,-93.53 447,-39 456.27,-29.54 468.53,-23.52 481.31,-19.75"/>
<polygon fill="#63b8ff" stroke="#63b8ff" points="486.43,-18.36 482.19,-21.84 484.02,-19.01 481.6,-19.67 481.6,-19.67 481.6,-19.67 484.02,-19.01 481.01,-17.5 486.43,-18.36 486.43,-18.36"/>
</a>
</g>
</g>
<!-- Node3&#45;&gt;Node4 -->
<g id="edge3_Node000003_Node000004" class="edge">
<title>Node3&#45;&gt;Node4</title>
<g id="a_edge3_Node000003_Node000004"><a xlink:title=" ">
<path fill="none" stroke="#63b8ff" d="M613.65,-412.08C635.77,-416.69 660.83,-421.93 683.75,-426.71"/>
<polygon fill="#63b8ff" stroke="#63b8ff" points="688.92,-427.79 683.56,-428.97 686.47,-427.28 684.02,-426.77 684.02,-426.77 684.02,-426.77 686.47,-427.28 684.48,-424.56 688.92,-427.79 688.92,-427.79"/>
</a>
</g>
</g>
<!-- Node5 -->
<g id="Node000005" class="node">
<title>Node5</title>
<g id="a_Node000005"><a xlink:href="../../d1/d53/classAbstractTabDeckEditor.html#a12545751adcf49163142c29f958e4b24" target="_top" xlink:title="Helper function to add a card to a specific deck zone.">
<polygon fill="white" stroke="#666666" points="990,-435 863,-435 863,-405 990,-405 990,-435"/>
<text text-anchor="start" x="871" y="-423" font-family="Helvetica,sans-Serif" font-size="10.00">AbstractTabDeckEditor</text>
<text text-anchor="middle" x="926.5" y="-412" font-family="Helvetica,sans-Serif" font-size="10.00">::addCardHelper</text>
</a>
</g>
</g>
<!-- Node3&#45;&gt;Node5 -->
<g id="edge5_Node000003_Node000005" class="edge">
<title>Node3&#45;&gt;Node5</title>
<g id="a_edge5_Node000003_Node000005"><a xlink:title=" ">
<path fill="none" stroke="#63b8ff" d="M613.68,-402.51C681.16,-406.3 788.13,-412.3 857.58,-416.19"/>
<polygon fill="#63b8ff" stroke="#63b8ff" points="862.93,-416.49 857.81,-418.46 860.43,-416.35 857.93,-416.21 857.93,-416.21 857.93,-416.21 860.43,-416.35 858.06,-413.96 862.93,-416.49 862.93,-416.49"/>
</a>
</g>
</g>
<!-- Node4&#45;&gt;Node5 -->
<g id="edge4_Node000004_Node000005" class="edge">
<title>Node4&#45;&gt;Node5</title>
<g id="a_edge4_Node000004_Node000005"><a xlink:title=" ">
<path fill="none" stroke="#63b8ff" d="M827.2,-432.99C837.22,-431.66 847.54,-430.3 857.55,-428.98"/>
<polygon fill="#63b8ff" stroke="#63b8ff" points="862.76,-428.29 858.1,-431.18 860.28,-428.62 857.8,-428.95 857.8,-428.95 857.8,-428.95 860.28,-428.62 857.51,-426.71 862.76,-428.29 862.76,-428.29"/>
</a>
</g>
</g>
<!-- Node14 -->
<g id="Node000014" class="node">
<title>Node14</title>
<g id="a_Node000014"><a xlink:href="../../df/d4e/classExactCard.html#a3f86411b4e295afbb68e3fde952d69f9" target="_top" xlink:title="Returns the underlying CardInfoPtr.">
<polygon fill="white" stroke="#666666" points="820,-24.5 696,-24.5 696,-5.5 820,-5.5 820,-24.5"/>
<text text-anchor="middle" x="758" y="-12.5" font-family="Helvetica,sans-Serif" font-size="10.00">ExactCard::getCardPtr</text>
</a>
</g>
</g>
<!-- Node13&#45;&gt;Node14 -->
<g id="edge15_Node000013_Node000014" class="edge">
<title>Node13&#45;&gt;Node14</title>
<g id="a_edge15_Node000013_Node000014"><a xlink:title=" ">
<path fill="none" stroke="#63b8ff" d="M613.65,-15C637.96,-15 665.83,-15 690.5,-15"/>
<polygon fill="#63b8ff" stroke="#63b8ff" points="695.71,-15 690.71,-17.25 693.21,-15 690.71,-15 690.71,-15 690.71,-15 693.21,-15 690.71,-12.75 695.71,-15 695.71,-15"/>
</a>
</g>
</g>
</g>
</svg>
