<?xml version="1.0" encoding="UTF-8" standalone="no"?>
<!DOCTYPE svg PUBLIC "-//W3C//DTD SVG 1.1//EN"
 "http://www.w3.org/Graphics/SVG/1.1/DTD/svg11.dtd">
<!-- Generated by graphviz version 2.43.0 (0)
 -->
<!-- Title: QuickSetupPanel::generateRequested Pages: 1 -->
<svg width="504pt" height="86pt"
 viewBox="0.00 0.00 504.00 86.00" xmlns="http://www.w3.org/2000/svg" xmlns:xlink="http://www.w3.org/1999/xlink">
<g id="graph0" class="graph" transform="scale(1 1) rotate(0) translate(4 82)">
<title>QuickSetupPanel::generateRequested</title>
<!-- Node1 -->
<g id="Node000001" class="node">
<title>Node1</title>
<g id="a_Node000001"><a xlink:title="Emitted when the user requests palette generation.">
<polygon fill="#999999" stroke="#666666" points="496,-54 348,-54 348,-24 496,-24 496,-54"/>
<text text-anchor="start" x="356" y="-42" font-family="Helvetica,sans-Serif" font-size="10.00">QuickSetupPanel::generate</text>
<text text-anchor="middle" x="422" y="-31" font-family="Helvetica,sans-Serif" font-size="10.00">Requested</text>
</a>
</g>
</g>
<!-- Node2 -->
<g id="Node000002" class="node">
<title>Node2</title>
<g id="a_Node000002"><a xlink:href="../../d1/d9a/classQuickSetupPanel.html#a1839345a0eda1592d9b5b533e55d8fe3" target="_top" xlink:title="Constructs the quick setup panel.">
<polygon fill="white" stroke="#666666" points="312,-78 152,-78 152,-48 312,-48 312,-78"/>
<text text-anchor="start" x="160" y="-66" font-family="Helvetica,sans-Serif" font-size="10.00">QuickSetupPanel::QuickSetup</text>
<text text-anchor="middle" x="232" y="-55" font-family="Helvetica,sans-Serif" font-size="10.00">Panel</text>
</a>
</g>
</g>
<!-- Node1&#45;&gt;Node2 -->
<g id="edge1_Node000001_Node000002" class="edge">
<title>Node1&#45;&gt;Node2</title>
<g id="a_edge1_Node000001_Node000002"><a xlink:title=" ">
<path fill="none" stroke="#63b8ff" d="M342.56,-49.01C332.54,-50.29 322.28,-51.6 312.25,-52.88"/>
<polygon fill="#63b8ff" stroke="#63b8ff" points="347.78,-48.35 343.1,-51.21 345.3,-48.66 342.82,-48.98 342.82,-48.98 342.82,-48.98 345.3,-48.66 342.53,-46.75 347.78,-48.35 347.78,-48.35"/>
</a>
</g>
</g>
<!-- Node3 -->
<g id="Node000003" class="node">
<title>Node3</title>
<g id="a_Node000003"><a xlink:href="../../d0/dc0/classPaletteEditorDialog.html#aac8aa0368c49ff5204c6092e2dc9ef76" target="_top" xlink:title=" ">
<polygon fill="white" stroke="#666666" points="287,-30 177,-30 177,0 287,0 287,-30"/>
<text text-anchor="start" x="185" y="-18" font-family="Helvetica,sans-Serif" font-size="10.00">PaletteEditorDialog</text>
<text text-anchor="middle" x="232" y="-7" font-family="Helvetica,sans-Serif" font-size="10.00">::setupUi</text>
</a>
</g>
</g>
<!-- Node1&#45;&gt;Node3 -->
<g id="edge2_Node000001_Node000003" class="edge">
<title>Node1&#45;&gt;Node3</title>
<g id="a_edge2_Node000001_Node000003"><a xlink:title=" ">
<path fill="none" stroke="#63b8ff" d="M342.54,-28.98C323.88,-26.6 304.39,-24.11 287.1,-21.91"/>
<polygon fill="#63b8ff" stroke="#63b8ff" points="347.78,-29.65 342.53,-31.25 345.3,-29.34 342.82,-29.02 342.82,-29.02 342.82,-29.02 345.3,-29.34 343.1,-26.79 347.78,-29.65 347.78,-29.65"/>
</a>
</g>
</g>
<!-- Node4 -->
<g id="Node000004" class="node">
<title>Node4</title>
<g id="a_Node000004"><a xlink:href="../../d0/dc0/classPaletteEditorDialog.html#adae8bf464178fecb29a3b0a7d9210b79" target="_top" xlink:title=" ">
<polygon fill="white" stroke="#666666" points="116,-30 0,-30 0,0 116,0 116,-30"/>
<text text-anchor="start" x="8" y="-18" font-family="Helvetica,sans-Serif" font-size="10.00">PaletteEditorDialog</text>
<text text-anchor="middle" x="58" y="-7" font-family="Helvetica,sans-Serif" font-size="10.00">::PaletteEditorDialog</text>
</a>
</g>
</g>
<!-- Node3&#45;&gt;Node4 -->
<g id="edge3_Node000003_Node000004" class="edge">
<title>Node3&#45;&gt;Node4</title>
<g id="a_edge3_Node000003_Node000004"><a xlink:title=" ">
<path fill="none" stroke="#63b8ff" d="M171.55,-15C153.57,-15 133.86,-15 116.03,-15"/>
<polygon fill="#63b8ff" stroke="#63b8ff" points="176.58,-15 171.58,-17.25 174.08,-15 171.58,-15 171.58,-15 171.58,-15 174.08,-15 171.58,-12.75 176.58,-15 176.58,-15"/>
</a>
</g>
</g>
</g>
</svg>
