<?xml version="1.0" encoding="UTF-8" standalone="no"?>
<!DOCTYPE svg PUBLIC "-//W3C//DTD SVG 1.1//EN"
 "http://www.w3.org/Graphics/SVG/1.1/DTD/svg11.dtd">
<!-- Generated by graphviz version 2.43.0 (0)
 -->
<!-- Title: UserListManager Pages: 1 -->
<svg width="240pt" height="155pt"
 viewBox="0.00 0.00 240.00 155.00" xmlns="http://www.w3.org/2000/svg" xmlns:xlink="http://www.w3.org/1999/xlink">
<g id="graph0" class="graph" transform="scale(1 1) rotate(0) translate(4 151)">
<title>UserListManager</title>
<!-- Node1 -->
<g id="Node000001" class="node">
<title>Node1</title>
<g id="a_Node000001"><a xlink:title=" ">
<polygon fill="#999999" stroke="#666666" points="136.5,-19 37.5,-19 37.5,0 136.5,0 136.5,-19"/>
<text text-anchor="middle" x="87" y="-7" font-family="Helvetica,sans-Serif" font-size="10.00">UserListManager</text>
</a>
</g>
</g>
<!-- Node2 -->
<g id="Node000002" class="node">
<title>Node2</title>
<g id="a_Node000002"><a xlink:title=" ">
<polygon fill="white" stroke="#666666" points="56,-147 0,-147 0,-128 56,-128 56,-147"/>
<text text-anchor="middle" x="28" y="-135" font-family="Helvetica,sans-Serif" font-size="10.00">QObject</text>
</a>
</g>
</g>
<!-- Node2&#45;&gt;Node1 -->
<g id="edge1_Node000001_Node000002" class="edge">
<title>Node2&#45;&gt;Node1</title>
<g id="a_edge1_Node000001_Node000002"><a xlink:title=" ">
<path fill="none" stroke="#63b8ff" d="M27.21,-122.44C26.97,-108.96 28.01,-88.31 35,-72 44.37,-50.15 64.22,-30.2 76.51,-19.26"/>
<polygon fill="#63b8ff" stroke="#63b8ff" points="27.37,-127.75 24.97,-122.82 27.29,-125.25 27.22,-122.75 27.22,-122.75 27.22,-122.75 27.29,-125.25 29.47,-122.68 27.37,-127.75 27.37,-127.75"/>
</a>
</g>
</g>
<!-- Node4 -->
<g id="Node000004" class="node">
<title>Node4</title>
<g id="a_Node000004"><a xlink:href="../../dc/d86/classAbstractClient.html" target="_top" xlink:title=" ">
<polygon fill="white" stroke="#666666" points="130,-91 44,-91 44,-72 130,-72 130,-91"/>
<text text-anchor="middle" x="87" y="-79" font-family="Helvetica,sans-Serif" font-size="10.00">AbstractClient</text>
</a>
</g>
</g>
<!-- Node2&#45;&gt;Node4 -->
<g id="edge4_Node000004_Node000002" class="edge">
<title>Node2&#45;&gt;Node4</title>
<g id="a_edge4_Node000004_Node000002"><a xlink:title=" ">
<path fill="none" stroke="#63b8ff" d="M41.3,-124.32C52.26,-114.3 67.54,-100.31 77.35,-91.33"/>
<polygon fill="#63b8ff" stroke="#63b8ff" points="37.48,-127.82 39.65,-122.79 39.32,-126.14 41.17,-124.45 41.17,-124.45 41.17,-124.45 39.32,-126.14 42.69,-126.11 37.48,-127.82 37.48,-127.82"/>
</a>
</g>
</g>
<!-- Node3 -->
<g id="Node000003" class="node">
<title>Node3</title>
<g id="a_Node000003"><a xlink:href="../../dc/dc8/classUserListProxy.html" target="_top" xlink:title=" ">
<polygon fill="white" stroke="#666666" points="232,-91 148,-91 148,-72 232,-72 232,-91"/>
<text text-anchor="middle" x="190" y="-79" font-family="Helvetica,sans-Serif" font-size="10.00">UserListProxy</text>
</a>
</g>
</g>
<!-- Node3&#45;&gt;Node1 -->
<g id="edge2_Node000001_Node000003" class="edge">
<title>Node3&#45;&gt;Node1</title>
<g id="a_edge2_Node000001_Node000003"><a xlink:title=" ">
<path fill="none" stroke="#63b8ff" d="M173.2,-69.08C152.63,-55.1 118.25,-31.74 99.73,-19.15"/>
<polygon fill="#63b8ff" stroke="#63b8ff" points="177.37,-71.92 171.97,-70.97 175.3,-70.51 173.23,-69.11 173.23,-69.11 173.23,-69.11 175.3,-70.51 174.5,-67.25 177.37,-71.92 177.37,-71.92"/>
</a>
</g>
</g>
<!-- Node4&#45;&gt;Node1 -->
<g id="edge3_Node000001_Node000004" class="edge">
<title>Node4&#45;&gt;Node1</title>
<g id="a_edge3_Node000001_Node000004"><a xlink:title=" ">
<path fill="none" stroke="#9a32cd" stroke-dasharray="5,2" d="M87,-66.72C87,-52.59 87,-31.05 87,-19.15"/>
<polygon fill="#9a32cd" stroke="#9a32cd" points="87,-71.92 84.75,-66.92 87,-69.42 87,-66.92 87,-66.92 87,-66.92 87,-69.42 89.25,-66.92 87,-71.92 87,-71.92"/>
</a>
</g>
<text text-anchor="start" x="90" y="-42.5" font-family="Helvetica,sans-Serif" font-size="10.00" fill="grey">client</text>
</g>
</g>
</svg>
