<?xml version="1.0" encoding="UTF-8" standalone="no"?>
<!DOCTYPE svg PUBLIC "-//W3C//DTD SVG 1.1//EN"
 "http://www.w3.org/Graphics/SVG/1.1/DTD/svg11.dtd">
<!-- Generated by graphviz version 2.43.0 (0)
 -->
<!-- Title: WndSets::actSave Pages: 1 -->
<!--zoomable 209 -->

<svg id="main" version="1.1" xmlns="http://www.w3.org/2000/svg" xmlns:xlink="http://www.w3.org/1999/xlink" xml:space="preserve" onload="init(evt)">
<style type="text/css"><![CDATA[
.node, .edge {opacity: 0.7;}
.node.selected, .edge.selected {opacity: 1;}
.edge:hover path { stroke: red; }
.edge:hover polygon { stroke: red; fill: red; }
]]></style>

<defs>
  <circle id="rim" cx="0" cy="0" r="7"/>
  <circle id="rim2" cx="0" cy="0" r="3.5"/>
  <g id="zoomPlus">
    <use xlink:href="#rim" fill="#404040"><set attributeName="fill" to="#808080" begin="zoomplus.mouseover" end="zoomplus.mouseout"/></use>
    <path d="M-4,0h8M0,-4v8" fill="none" stroke="white" stroke-width="1.5" pointer-events="none"/>
  </g>
  <g id="zoomMin">
    <use xlink:href="#rim" fill="#404040"><set attributeName="fill" to="#808080" begin="zoomminus.mouseover" end="zoomminus.mouseout"/></use>
    <path d="M-4,0h8" fill="none" stroke="white" stroke-width="1.5" pointer-events="none"/>
  </g>
  <g id="arrowUp" transform="translate(30 24)">
    <use xlink:href="#rim"/>
    <path pointer-events="none" fill="none" stroke="white" stroke-width="1.5" d="M0,-3.0v7 M-2.5,-0.5L0,-3.0L2.5,-0.5"/>
  </g>
  <g id="arrowRight" transform="rotate(90) translate(36 -43)">
    <use xlink:href="#rim"/>
    <path pointer-events="none" fill="none" stroke="white" stroke-width="1.5" d="M0,-3.0v7 M-2.5,-0.5L0,-3.0L2.5,-0.5"/>
  </g>
  <g id="arrowDown" transform="rotate(180) translate(-30 -48)">
    <use xlink:href="#rim"/>
    <path pointer-events="none" fill="none" stroke="white" stroke-width="1.5" d="M0,-3.0v7 M-2.5,-0.5L0,-3.0L2.5,-0.5"/>
  </g>
  <g id="arrowLeft" transform="rotate(270) translate(-36 17)">
    <use xlink:href="#rim"/>
    <path pointer-events="none" fill="none" stroke="white" stroke-width="1.5" d="M0,-3.0v7 M-2.5,-0.5L0,-3.0L2.5,-0.5"/>
  </g>
  <g id="resetDef">
    <use xlink:href="#rim2" fill="#404040"><set attributeName="fill" to="#808080" begin="reset.mouseover" end="reset.mouseout"/></use>
  </g>
</defs>
<script type="application/ecmascript">
var viewWidth = 707;
var viewHeight = 209;
var sectionId = 'dynsection-24';
</script>
<script type="application/ecmascript" xlink:href="../../svg.min.js"/>
<svg id="graph" class="graph">
<g id="viewport">
<title>WndSets::actSave</title>
<!-- Node1 -->
<g id="Node000001" class="node">
<title>Node1</title>
<g id="a_Node000001"><a xlink:title=" ">
<polygon fill="#999999" stroke="#666666" points="104,-104.5 0,-104.5 0,-85.5 104,-85.5 104,-104.5"/>
<text text-anchor="middle" x="52" y="-92.5" font-family="Helvetica,sans-Serif" font-size="10.00">WndSets::actSave</text>
</a>
</g>
</g>
<!-- Node2 -->
<g id="Node000002" class="node">
<title>Node2</title>
<g id="a_Node000002"><a xlink:href="../../d2/d5d/classCardPictureLoader.html#a81bd60c304d9a2e62339fb56d5f7fa0d" target="_top" xlink:title="Clears the in&#45;memory QPixmap cache for all cards.">
<polygon fill="white" stroke="#666666" points="267.5,-201 155.5,-201 155.5,-171 267.5,-171 267.5,-201"/>
<text text-anchor="start" x="163.5" y="-189" font-family="Helvetica,sans-Serif" font-size="10.00">CardPictureLoader::</text>
<text text-anchor="middle" x="211.5" y="-178" font-family="Helvetica,sans-Serif" font-size="10.00">clearPixmapCache</text>
</a>
</g>
</g>
<!-- Node1&#45;&gt;Node2 -->
<g id="edge1_Node000001_Node000002" class="edge">
<title>Node1&#45;&gt;Node2</title>
<g id="a_edge1_Node000001_Node000002"><a xlink:title=" ">
<path fill="none" stroke="#63b8ff" d="M63.2,-104.68C78.69,-118.95 109.59,-145.69 140,-162 144.71,-164.53 149.74,-166.86 154.86,-169"/>
<polygon fill="#63b8ff" stroke="#63b8ff" points="159.58,-170.92 154.1,-171.12 157.26,-169.98 154.95,-169.04 154.95,-169.04 154.95,-169.04 157.26,-169.98 155.79,-166.95 159.58,-170.92 159.58,-170.92"/>
</a>
</g>
</g>
<!-- Node3 -->
<g id="Node000003" class="node">
<title>Node3</title>
<g id="a_Node000003"><a xlink:href="../../dc/db4/classCardDatabaseManager.html#ad3973b040eb93df3be6bd2e790c53d59" target="_top" xlink:title="Returns the singleton CardDatabase instance.">
<polygon fill="white" stroke="#666666" points="275.5,-153 147.5,-153 147.5,-123 275.5,-123 275.5,-153"/>
<text text-anchor="start" x="155.5" y="-141" font-family="Helvetica,sans-Serif" font-size="10.00">CardDatabaseManager</text>
<text text-anchor="middle" x="211.5" y="-130" font-family="Helvetica,sans-Serif" font-size="10.00">::getInstance</text>
</a>
</g>
</g>
<!-- Node1&#45;&gt;Node3 -->
<g id="edge2_Node000001_Node000003" class="edge">
<title>Node1&#45;&gt;Node3</title>
<g id="a_edge2_Node000001_Node000003"><a xlink:title=" ">
<path fill="none" stroke="#63b8ff" d="M87.95,-104.54C106.33,-109.56 129.37,-115.85 150.49,-121.62"/>
<polygon fill="#63b8ff" stroke="#63b8ff" points="155.54,-122.99 150.12,-123.85 153.12,-122.34 150.71,-121.68 150.71,-121.68 150.71,-121.68 153.12,-122.34 151.3,-119.51 155.54,-122.99 155.54,-122.99"/>
</a>
</g>
</g>
<!-- Node4 -->
<g id="Node000004" class="node">
<title>Node4</title>
<g id="a_Node000004"><a xlink:href="../../d5/d88/classSettingsCache.html#adfa7f9f975919981b992db1fca9e4957" target="_top" xlink:title=" ">
<polygon fill="white" stroke="#666666" points="278.5,-104.5 144.5,-104.5 144.5,-85.5 278.5,-85.5 278.5,-104.5"/>
<text text-anchor="middle" x="211.5" y="-92.5" font-family="Helvetica,sans-Serif" font-size="10.00">SettingsCache::instance</text>
</a>
</g>
</g>
<!-- Node1&#45;&gt;Node4 -->
<g id="edge3_Node000001_Node000004" class="edge">
<title>Node1&#45;&gt;Node4</title>
<g id="a_edge3_Node000001_Node000004"><a xlink:title=" ">
<path fill="none" stroke="#63b8ff" d="M104.14,-95C115.37,-95 127.47,-95 139.34,-95"/>
<polygon fill="#63b8ff" stroke="#63b8ff" points="144.41,-95 139.41,-97.25 141.91,-95 139.41,-95 139.41,-95 139.41,-95 141.91,-95 139.41,-92.75 144.41,-95 144.41,-95"/>
</a>
</g>
</g>
<!-- Node5 -->
<g id="Node000005" class="node">
<title>Node5</title>
<g id="a_Node000005"><a xlink:href="../../da/d64/classSetsModel.html#a54b5675b5f640de0c3003f49ae3e269b" target="_top" xlink:title=" ">
<polygon fill="white" stroke="#666666" points="260,-67.5 163,-67.5 163,-48.5 260,-48.5 260,-67.5"/>
<text text-anchor="middle" x="211.5" y="-55.5" font-family="Helvetica,sans-Serif" font-size="10.00">SetsModel::save</text>
</a>
</g>
</g>
<!-- Node1&#45;&gt;Node5 -->
<g id="edge4_Node000001_Node000005" class="edge">
<title>Node1&#45;&gt;Node5</title>
<g id="a_edge4_Node000001_Node000005"><a xlink:title=" ">
<path fill="none" stroke="#63b8ff" d="M93.56,-85.47C115.34,-80.36 142.26,-74.03 164.77,-68.74"/>
<polygon fill="#63b8ff" stroke="#63b8ff" points="169.8,-67.56 165.45,-70.89 167.37,-68.13 164.94,-68.7 164.94,-68.7 164.94,-68.7 167.37,-68.13 164.42,-66.51 169.8,-67.56 169.8,-67.56"/>
</a>
</g>
</g>
<!-- Node9 -->
<g id="Node000009" class="node">
<title>Node9</title>
<g id="a_Node000009"><a xlink:href="../../d5/d88/classSettingsCache.html#ad64f3770ea70561e2704e896d6daf59d" target="_top" xlink:title=" ">
<polygon fill="white" stroke="#666666" points="283,-30 140,-30 140,0 283,0 283,-30"/>
<text text-anchor="start" x="148" y="-18" font-family="Helvetica,sans-Serif" font-size="10.00">SettingsCache::setInclude</text>
<text text-anchor="middle" x="211.5" y="-7" font-family="Helvetica,sans-Serif" font-size="10.00">RebalancedCards</text>
</a>
</g>
</g>
<!-- Node1&#45;&gt;Node9 -->
<g id="edge8_Node000001_Node000009" class="edge">
<title>Node1&#45;&gt;Node9</title>
<g id="a_edge8_Node000001_Node000009"><a xlink:title=" ">
<path fill="none" stroke="#63b8ff" d="M65.68,-85.42C82.12,-73.34 112.02,-52.52 140,-39 145.28,-36.45 150.89,-34.05 156.56,-31.83"/>
<polygon fill="#63b8ff" stroke="#63b8ff" points="161.33,-30.01 157.47,-33.9 159,-30.9 156.66,-31.79 156.66,-31.79 156.66,-31.79 159,-30.9 155.86,-29.69 161.33,-30.01 161.33,-30.01"/>
</a>
</g>
</g>
<!-- Node6 -->
<g id="Node000006" class="node">
<title>Node6</title>
<g id="a_Node000006"><a xlink:href="../../d5/d45/classCardDatabase.html#a56a3727444527703459220022c118025" target="_top" xlink:title="Notifies listeners that enabled sets changed.">
<polygon fill="white" stroke="#666666" points="490.5,-116 332.5,-116 332.5,-86 490.5,-86 490.5,-116"/>
<text text-anchor="start" x="340.5" y="-104" font-family="Helvetica,sans-Serif" font-size="10.00">CardDatabase::notifyEnabled</text>
<text text-anchor="middle" x="411.5" y="-93" font-family="Helvetica,sans-Serif" font-size="10.00">SetsChanged</text>
</a>
</g>
</g>
<!-- Node5&#45;&gt;Node6 -->
<g id="edge5_Node000005_Node000006" class="edge">
<title>Node5&#45;&gt;Node6</title>
<g id="a_edge5_Node000005_Node000006"><a xlink:title=" ">
<path fill="none" stroke="#63b8ff" d="M256.44,-67.54C279.93,-72.64 309.48,-79.06 336.41,-84.91"/>
<polygon fill="#63b8ff" stroke="#63b8ff" points="341.4,-85.99 336.04,-87.13 338.96,-85.46 336.52,-84.93 336.52,-84.93 336.52,-84.93 338.96,-85.46 336.99,-82.73 341.4,-85.99 341.4,-85.99"/>
</a>
</g>
</g>
<!-- Node8 -->
<g id="Node000008" class="node">
<title>Node8</title>
<g id="a_Node000008"><a xlink:href="../../dd/d65/classCardSetList.html#a63243efba23b24dcc46ecbf1e1f9c955" target="_top" xlink:title="Sorts the set list by each set’s assigned sort key.">
<polygon fill="white" stroke="#666666" points="475.5,-67.5 347.5,-67.5 347.5,-48.5 475.5,-48.5 475.5,-67.5"/>
<text text-anchor="middle" x="411.5" y="-55.5" font-family="Helvetica,sans-Serif" font-size="10.00">CardSetList::sortByKey</text>
</a>
</g>
</g>
<!-- Node5&#45;&gt;Node8 -->
<g id="edge7_Node000005_Node000008" class="edge">
<title>Node5&#45;&gt;Node8</title>
<g id="a_edge7_Node000005_Node000008"><a xlink:title=" ">
<path fill="none" stroke="#63b8ff" d="M260.18,-58C284.74,-58 315.13,-58 342.14,-58"/>
<polygon fill="#63b8ff" stroke="#63b8ff" points="347.14,-58 342.14,-60.25 344.64,-58 342.14,-58 342.14,-58 342.14,-58 344.64,-58 342.14,-55.75 347.14,-58 347.14,-58"/>
</a>
</g>
</g>
<!-- Node7 -->
<g id="Node000007" class="node">
<title>Node7</title>
<g id="a_Node000007"><a xlink:href="../../d5/d45/classCardDatabase.html#a4a8f2b397614d45d8db3ce25e7fa2d88" target="_top" xlink:title="Emitted when enabled sets have changed.">
<polygon fill="white" stroke="#666666" points="699,-116 540,-116 540,-86 699,-86 699,-116"/>
<text text-anchor="start" x="548" y="-104" font-family="Helvetica,sans-Serif" font-size="10.00">CardDatabase::cardDatabase</text>
<text text-anchor="middle" x="619.5" y="-93" font-family="Helvetica,sans-Serif" font-size="10.00">EnabledSetsChanged</text>
</a>
</g>
</g>
<!-- Node6&#45;&gt;Node7 -->
<g id="edge6_Node000006_Node000007" class="edge">
<title>Node6&#45;&gt;Node7</title>
<g id="a_edge6_Node000006_Node000007"><a xlink:title=" ">
<path fill="none" stroke="#63b8ff" d="M490.67,-101C504.97,-101 519.94,-101 534.4,-101"/>
<polygon fill="#63b8ff" stroke="#63b8ff" points="539.7,-101 534.7,-103.25 537.2,-101 534.7,-101 534.7,-101 534.7,-101 537.2,-101 534.7,-98.75 539.7,-101 539.7,-101"/>
</a>
</g>
</g>
<!-- Node10 -->
<g id="Node000010" class="node">
<title>Node10</title>
<g id="a_Node000010"><a xlink:href="../../d5/d88/classSettingsCache.html#aa7611ad13eacf615fb8805035c40b119" target="_top" xlink:title=" ">
<polygon fill="white" stroke="#666666" points="504,-30 319,-30 319,0 504,0 504,-30"/>
<text text-anchor="start" x="327" y="-18" font-family="Helvetica,sans-Serif" font-size="10.00">SettingsCache::includeRebalanced</text>
<text text-anchor="middle" x="411.5" y="-7" font-family="Helvetica,sans-Serif" font-size="10.00">CardsChanged</text>
</a>
</g>
</g>
<!-- Node9&#45;&gt;Node10 -->
<g id="edge9_Node000009_Node000010" class="edge">
<title>Node9&#45;&gt;Node10</title>
<g id="a_edge9_Node000009_Node000010"><a xlink:title=" ">
<path fill="none" stroke="#63b8ff" d="M283.14,-15C293.07,-15 303.41,-15 313.72,-15"/>
<polygon fill="#63b8ff" stroke="#63b8ff" points="318.78,-15 313.78,-17.25 316.28,-15 313.78,-15 313.78,-15 313.78,-15 316.28,-15 313.78,-12.75 318.78,-15 318.78,-15"/>
</a>
</g>
</g>
</g>
</svg>

<g id="navigator" transform="translate(0 0)" fill="#404254">
  <rect fill="#f2f5e9" fill-opacity="0.5" stroke="#606060" stroke-width=".5" x="0" y="0" width="60" height="60"/>
  <use id="zoomplus" xlink:href="#zoomPlus" x="17" y="9" onmousedown="handleZoom(evt,'in')"/>
  <use id="zoomminus" xlink:href="#zoomMin" x="42" y="9" onmousedown="handleZoom(evt,'out')"/>
  <use id="reset" xlink:href="#resetDef" x="30" y="36" onmousedown="handleReset()"/>
   <use id="arrowup" xlink:href="#arrowUp" x="0" y="0" onmousedown="handlePan(0,-1)"/>
  <use id="arrowright" xlink:href="#arrowRight" x="0" y="0" onmousedown="handlePan(1,0)"/>
  <use id="arrowdown" xlink:href="#arrowDown" x="0" y="0" onmousedown="handlePan(0,1)"/>
  <use id="arrowleft" xlink:href="#arrowLeft" x="0" y="0" onmousedown="handlePan(-1,0)"/>
</g>
<svg viewBox="0 0 15 15" width="100%" height="30px" preserveAspectRatio="xMaxYMin meet">
 <g id="arrow_out" transform="scale(0.3 0.3)">
  <a xlink:href="classWndSets_a53f0f602cca2ca02e903262a8756b418_cgraph_org.svg" target="_base">
   <rect id="button" ry="5" rx="5" y="6" x="6" height="38" width="38"
        fill="#f2f5e9" fill-opacity="0.5" stroke="#606060" stroke-width="1.0"/>
   <path id="arrow"
     d="M 11.500037,31.436501 C 11.940474,20.09759 22.043105,11.32322 32.158766,21.979434 L 37.068811,17.246167 C 37.068811,17.246167 37.088388,32 37.088388,32 L 22.160133,31.978069 C 22.160133,31.978069 26.997745,27.140456 26.997745,27.140456 C 18.528582,18.264221 13.291696,25.230495 11.500037,31.436501 z"
     style="fill:#404040;"/>
  </a>
 </g>
</svg>

<style type='text/css'>
<![CDATA[
[data-mouse-over-selected='false'] { opacity: 0.7; }
[data-mouse-over-selected='true']  { opacity: 1.0; }
]]>
</style>
<script type="application/ecmascript"><![CDATA[
document.addEventListener('DOMContentLoaded', (event) => {
  highlightEdges();
  highlightAdjacentNodes();
});
]]></script>
</svg>
