<?xml version="1.0" encoding="UTF-8" standalone="no"?>
<!DOCTYPE svg PUBLIC "-//W3C//DTD SVG 1.1//EN"
 "http://www.w3.org/Graphics/SVG/1.1/DTD/svg11.dtd">
<!-- Generated by graphviz version 2.43.0 (0)
 -->
<!-- Title: cockatrice/src/tabs/api/edhrec/display/cards/edhrec_api_response_card_synergy_display_widget.cpp Pages: 1 -->
<svg width="546pt" height="269pt"
 viewBox="0.00 0.00 545.50 269.00" xmlns="http://www.w3.org/2000/svg" xmlns:xlink="http://www.w3.org/1999/xlink">
<g id="graph0" class="graph" transform="scale(1 1) rotate(0) translate(4 265)">
<title>cockatrice/src/tabs/api/edhrec/display/cards/edhrec_api_response_card_synergy_display_widget.cpp</title>
<!-- Node1 -->
<g id="Node000001" class="node">
<title>Node1</title>
<g id="a_Node000001"><a xlink:title=" ">
<polygon fill="#999999" stroke="#666666" points="385,-261 199,-261 199,-209 385,-209 385,-261"/>
<text text-anchor="start" x="207" y="-249" font-family="Helvetica,sans-Serif" font-size="10.00">cockatrice/src/tabs</text>
<text text-anchor="start" x="207" y="-238" font-family="Helvetica,sans-Serif" font-size="10.00">/api/edhrec/display</text>
<text text-anchor="start" x="207" y="-227" font-family="Helvetica,sans-Serif" font-size="10.00">/cards/edhrec_api_response</text>
<text text-anchor="middle" x="292" y="-216" font-family="Helvetica,sans-Serif" font-size="10.00">_card_synergy_display_widget.cpp</text>
</a>
</g>
</g>
<!-- Node2 -->
<g id="Node000002" class="node">
<title>Node2</title>
<g id="a_Node000002"><a xlink:href="../../d7/d9a/edhrec__api__response__card__synergy__display__widget_8h.html" target="_top" xlink:title=" ">
<polygon fill="white" stroke="#666666" points="356,-173 228,-173 228,-132 356,-132 356,-173"/>
<text text-anchor="start" x="236" y="-161" font-family="Helvetica,sans-Serif" font-size="10.00">edhrec_api_response</text>
<text text-anchor="start" x="236" y="-150" font-family="Helvetica,sans-Serif" font-size="10.00">_card_synergy_display</text>
<text text-anchor="middle" x="292" y="-139" font-family="Helvetica,sans-Serif" font-size="10.00">_widget.h</text>
</a>
</g>
</g>
<!-- Node1&#45;&gt;Node2 -->
<g id="edge1_Node000001_Node000002" class="edge">
<title>Node1&#45;&gt;Node2</title>
<g id="a_edge1_Node000001_Node000002"><a xlink:title=" ">
<path fill="none" stroke="#63b8ff" d="M292,-208.97C292,-199.23 292,-188.11 292,-178.38"/>
<polygon fill="#63b8ff" stroke="#63b8ff" points="292,-173.15 294.25,-178.15 292,-175.65 292,-178.15 292,-178.15 292,-178.15 292,-175.65 289.75,-178.15 292,-173.15 292,-173.15"/>
</a>
</g>
</g>
<!-- Node3 -->
<g id="Node000003" class="node">
<title>Node3</title>
<g id="a_Node000003"><a xlink:href="../../dd/dd8/percent__bar__widget_8h.html" target="_top" xlink:title=" ">
<polygon fill="white" stroke="#666666" points="160,-96 24,-96 24,-55 160,-55 160,-96"/>
<text text-anchor="start" x="32" y="-84" font-family="Helvetica,sans-Serif" font-size="10.00">../../../../../interface</text>
<text text-anchor="start" x="32" y="-73" font-family="Helvetica,sans-Serif" font-size="10.00">/widgets/general/display</text>
<text text-anchor="middle" x="92" y="-62" font-family="Helvetica,sans-Serif" font-size="10.00">/percent_bar_widget.h</text>
</a>
</g>
</g>
<!-- Node2&#45;&gt;Node3 -->
<g id="edge2_Node000002_Node000003" class="edge">
<title>Node2&#45;&gt;Node3</title>
<g id="a_edge2_Node000002_Node000003"><a xlink:title=" ">
<path fill="none" stroke="#63b8ff" d="M239.97,-131.99C212.07,-121.53 177.65,-108.62 149.02,-97.88"/>
<polygon fill="#63b8ff" stroke="#63b8ff" points="144.11,-96.04 149.58,-95.69 146.45,-96.92 148.79,-97.8 148.79,-97.8 148.79,-97.8 146.45,-96.92 148,-99.9 144.11,-96.04 144.11,-96.04"/>
</a>
</g>
</g>
<!-- Node6 -->
<g id="Node000006" class="node">
<title>Node6</title>
<g id="a_Node000006"><a xlink:title=" ">
<polygon fill="#e0e0e0" stroke="#999999" points="212.5,-19 153.5,-19 153.5,0 212.5,0 212.5,-19"/>
<text text-anchor="middle" x="183" y="-7" font-family="Helvetica,sans-Serif" font-size="10.00">QWidget</text>
</a>
</g>
</g>
<!-- Node2&#45;&gt;Node6 -->
<g id="edge11_Node000002_Node000006" class="edge">
<title>Node2&#45;&gt;Node6</title>
<g id="a_edge11_Node000002_Node000006"><a xlink:title=" ">
<path fill="none" stroke="#63b8ff" d="M249.59,-131.92C234.21,-122.94 217.95,-110.92 207,-96 191.13,-74.37 185.75,-42.65 183.93,-24.54"/>
<polygon fill="#63b8ff" stroke="#63b8ff" points="183.47,-19.38 186.15,-24.17 183.69,-21.87 183.91,-24.36 183.91,-24.36 183.91,-24.36 183.69,-21.87 181.67,-24.56 183.47,-19.38 183.47,-19.38"/>
</a>
</g>
</g>
<!-- Node7 -->
<g id="Node000007" class="node">
<title>Node7</title>
<g id="a_Node000007"><a xlink:href="../../d6/de1/edhrec__api__response__card__details_8h.html" target="_top" xlink:title=" ">
<polygon fill="white" stroke="#666666" points="368,-96 216,-96 216,-55 368,-55 368,-96"/>
<text text-anchor="start" x="224" y="-84" font-family="Helvetica,sans-Serif" font-size="10.00">../../api_response</text>
<text text-anchor="start" x="224" y="-73" font-family="Helvetica,sans-Serif" font-size="10.00">/cards/edhrec_api_response</text>
<text text-anchor="middle" x="292" y="-62" font-family="Helvetica,sans-Serif" font-size="10.00">_card_details.h</text>
</a>
</g>
</g>
<!-- Node2&#45;&gt;Node7 -->
<g id="edge6_Node000002_Node000007" class="edge">
<title>Node2&#45;&gt;Node7</title>
<g id="a_edge6_Node000002_Node000007"><a xlink:title=" ">
<path fill="none" stroke="#63b8ff" d="M292,-131.79C292,-122.41 292,-111.08 292,-101.13"/>
<polygon fill="#63b8ff" stroke="#63b8ff" points="292,-96.07 294.25,-101.07 292,-98.57 292,-101.07 292,-101.07 292,-101.07 292,-98.57 289.75,-101.07 292,-96.07 292,-96.07"/>
</a>
</g>
</g>
<!-- Node10 -->
<g id="Node000010" class="node">
<title>Node10</title>
<g id="a_Node000010"><a xlink:title=" ">
<polygon fill="#e0e0e0" stroke="#999999" points="436,-85 386,-85 386,-66 436,-66 436,-85"/>
<text text-anchor="middle" x="411" y="-73" font-family="Helvetica,sans-Serif" font-size="10.00">QLabel</text>
</a>
</g>
</g>
<!-- Node2&#45;&gt;Node10 -->
<g id="edge9_Node000002_Node000010" class="edge">
<title>Node2&#45;&gt;Node10</title>
<g id="a_edge9_Node000002_Node000010"><a xlink:title=" ">
<path fill="none" stroke="#63b8ff" d="M322.96,-131.99C345.18,-117.99 374.36,-99.6 392.9,-87.91"/>
<polygon fill="#63b8ff" stroke="#63b8ff" points="397.37,-85.09 394.34,-89.66 395.26,-86.42 393.14,-87.75 393.14,-87.75 393.14,-87.75 395.26,-86.42 391.94,-85.85 397.37,-85.09 397.37,-85.09"/>
</a>
</g>
</g>
<!-- Node11 -->
<g id="Node000011" class="node">
<title>Node11</title>
<g id="a_Node000011"><a xlink:title=" ">
<polygon fill="#e0e0e0" stroke="#999999" points="537.5,-85 454.5,-85 454.5,-66 537.5,-66 537.5,-85"/>
<text text-anchor="middle" x="496" y="-73" font-family="Helvetica,sans-Serif" font-size="10.00">QVBoxLayout</text>
</a>
</g>
</g>
<!-- Node2&#45;&gt;Node11 -->
<g id="edge10_Node000002_Node000011" class="edge">
<title>Node2&#45;&gt;Node11</title>
<g id="a_edge10_Node000002_Node000011"><a xlink:title=" ">
<path fill="none" stroke="#63b8ff" d="M346.61,-131.95C375.84,-121.42 412.43,-108.13 445,-96 452.87,-93.07 461.4,-89.83 469.2,-86.85"/>
<polygon fill="#63b8ff" stroke="#63b8ff" points="473.94,-85.03 470.08,-88.92 471.61,-85.92 469.27,-86.82 469.27,-86.82 469.27,-86.82 471.61,-85.92 468.47,-84.72 473.94,-85.03 473.94,-85.03"/>
</a>
</g>
</g>
<!-- Node4 -->
<g id="Node000004" class="node">
<title>Node4</title>
<g id="a_Node000004"><a xlink:title=" ">
<polygon fill="#e0e0e0" stroke="#999999" points="50,-19 0,-19 0,0 50,0 50,-19"/>
<text text-anchor="middle" x="25" y="-7" font-family="Helvetica,sans-Serif" font-size="10.00">QColor</text>
</a>
</g>
</g>
<!-- Node3&#45;&gt;Node4 -->
<g id="edge3_Node000003_Node000004" class="edge">
<title>Node3&#45;&gt;Node4</title>
<g id="a_edge3_Node000003_Node000004"><a xlink:title=" ">
<path fill="none" stroke="#63b8ff" d="M71.53,-54.95C60.62,-44.53 47.53,-32.02 38.01,-22.93"/>
<polygon fill="#63b8ff" stroke="#63b8ff" points="34.17,-19.26 39.34,-21.09 35.98,-20.99 37.79,-22.71 37.79,-22.71 37.79,-22.71 35.98,-20.99 36.23,-24.34 34.17,-19.26 34.17,-19.26"/>
</a>
</g>
</g>
<!-- Node5 -->
<g id="Node000005" class="node">
<title>Node5</title>
<g id="a_Node000005"><a xlink:title=" ">
<polygon fill="#e0e0e0" stroke="#999999" points="126,-19 68,-19 68,0 126,0 126,-19"/>
<text text-anchor="middle" x="97" y="-7" font-family="Helvetica,sans-Serif" font-size="10.00">QPainter</text>
</a>
</g>
</g>
<!-- Node3&#45;&gt;Node5 -->
<g id="edge4_Node000003_Node000005" class="edge">
<title>Node3&#45;&gt;Node5</title>
<g id="a_edge4_Node000003_Node000005"><a xlink:title=" ">
<path fill="none" stroke="#63b8ff" d="M93.53,-54.95C94.3,-45.09 95.21,-33.35 95.91,-24.42"/>
<polygon fill="#63b8ff" stroke="#63b8ff" points="96.32,-19.26 98.17,-24.42 96.12,-21.75 95.93,-24.25 95.93,-24.25 95.93,-24.25 96.12,-21.75 93.68,-24.07 96.32,-19.26 96.32,-19.26"/>
</a>
</g>
</g>
<!-- Node3&#45;&gt;Node6 -->
<g id="edge5_Node000003_Node000006" class="edge">
<title>Node3&#45;&gt;Node6</title>
<g id="a_edge5_Node000003_Node000006"><a xlink:title=" ">
<path fill="none" stroke="#63b8ff" d="M119.8,-54.95C135.01,-44.25 153.36,-31.35 166.35,-22.21"/>
<polygon fill="#63b8ff" stroke="#63b8ff" points="170.54,-19.26 167.75,-23.98 168.5,-20.7 166.45,-22.14 166.45,-22.14 166.45,-22.14 168.5,-20.7 165.16,-20.3 170.54,-19.26 170.54,-19.26"/>
</a>
</g>
</g>
<!-- Node8 -->
<g id="Node000008" class="node">
<title>Node8</title>
<g id="a_Node000008"><a xlink:title=" ">
<polygon fill="#e0e0e0" stroke="#999999" points="319,-19 243,-19 243,0 319,0 319,-19"/>
<text text-anchor="middle" x="281" y="-7" font-family="Helvetica,sans-Serif" font-size="10.00">QJsonObject</text>
</a>
</g>
</g>
<!-- Node7&#45;&gt;Node8 -->
<g id="edge7_Node000007_Node000008" class="edge">
<title>Node7&#45;&gt;Node8</title>
<g id="a_edge7_Node000007_Node000008"><a xlink:title=" ">
<path fill="none" stroke="#63b8ff" d="M288.64,-54.95C286.94,-45.09 284.93,-33.35 283.39,-24.42"/>
<polygon fill="#63b8ff" stroke="#63b8ff" points="282.51,-19.26 285.57,-23.81 282.93,-21.72 283.35,-24.19 283.35,-24.19 283.35,-24.19 282.93,-21.72 281.14,-24.57 282.51,-19.26 282.51,-19.26"/>
</a>
</g>
</g>
<!-- Node9 -->
<g id="Node000009" class="node">
<title>Node9</title>
<g id="a_Node000009"><a xlink:title=" ">
<polygon fill="#e0e0e0" stroke="#999999" points="390.5,-19 337.5,-19 337.5,0 390.5,0 390.5,-19"/>
<text text-anchor="middle" x="364" y="-7" font-family="Helvetica,sans-Serif" font-size="10.00">QString</text>
</a>
</g>
</g>
<!-- Node7&#45;&gt;Node9 -->
<g id="edge8_Node000007_Node000009" class="edge">
<title>Node7&#45;&gt;Node9</title>
<g id="a_edge8_Node000007_Node000009"><a xlink:title=" ">
<path fill="none" stroke="#63b8ff" d="M313.99,-54.95C325.82,-44.44 340.04,-31.8 350.29,-22.69"/>
<polygon fill="#63b8ff" stroke="#63b8ff" points="354.14,-19.26 351.9,-24.26 352.28,-20.92 350.41,-22.58 350.41,-22.58 350.41,-22.58 352.28,-20.92 348.91,-20.9 354.14,-19.26 354.14,-19.26"/>
</a>
</g>
</g>
</g>
</svg>
