<?xml version="1.0" encoding="UTF-8" standalone="no"?>
<!DOCTYPE svg PUBLIC "-//W3C//DTD SVG 1.1//EN"
 "http://www.w3.org/Graphics/SVG/1.1/DTD/svg11.dtd">
<!-- Generated by graphviz version 2.43.0 (0)
 -->
<!-- Title: peg::enable_tracing Pages: 1 -->
<svg width="595pt" height="237pt"
 viewBox="0.00 0.00 595.00 236.50" xmlns="http://www.w3.org/2000/svg" xmlns:xlink="http://www.w3.org/1999/xlink">
<g id="graph0" class="graph" transform="scale(1 1) rotate(0) translate(4 232.5)">
<title>peg::enable_tracing</title>
<!-- Node1 -->
<g id="Node000001" class="node">
<title>Node1</title>
<g id="a_Node000001"><a xlink:title=" ">
<polygon fill="#999999" stroke="#666666" points="113,-120 0,-120 0,-101 113,-101 113,-120"/>
<text text-anchor="middle" x="56.5" y="-108" font-family="Helvetica,sans-Serif" font-size="10.00">peg::enable_tracing</text>
</a>
</g>
</g>
<!-- Node2 -->
<g id="Node000002" class="node">
<title>Node2</title>
<g id="a_Node000002"><a xlink:href="../../da/d7b/classpeg_1_1parser.html#aa63aa620e8b3ac81df41e22edf91dd20" target="_top" xlink:title=" ">
<polygon fill="white" stroke="#666666" points="269.5,-228.5 159.5,-228.5 159.5,-198.5 269.5,-198.5 269.5,-228.5"/>
<text text-anchor="start" x="167.5" y="-216.5" font-family="Helvetica,sans-Serif" font-size="10.00">peg::parser::enable</text>
<text text-anchor="middle" x="214.5" y="-205.5" font-family="Helvetica,sans-Serif" font-size="10.00">_trace</text>
</a>
</g>
</g>
<!-- Node1&#45;&gt;Node2 -->
<g id="edge1_Node000001_Node000002" class="edge">
<title>Node1&#45;&gt;Node2</title>
<g id="a_edge1_Node000001_Node000002"><a xlink:title=" ">
<path fill="none" stroke="#63b8ff" d="M66.25,-120.01C81.61,-136.22 115.04,-169.41 149,-189.5 153.16,-191.96 157.63,-194.25 162.19,-196.35"/>
<polygon fill="#63b8ff" stroke="#63b8ff" points="166.77,-198.39 161.29,-198.41 164.49,-197.37 162.2,-196.36 162.2,-196.36 162.2,-196.36 164.49,-197.37 163.12,-194.3 166.77,-198.39 166.77,-198.39"/>
</a>
</g>
</g>
<!-- Node3 -->
<g id="Node000003" class="node">
<title>Node3</title>
<g id="a_Node000003"><a xlink:href="../../dc/db2/namespacepeg.html#a04674285beedae9e1e5497bb42a9eb75" target="_top" xlink:title=" ">
<polygon fill="white" stroke="#666666" points="280,-180 149,-180 149,-161 280,-161 280,-180"/>
<text text-anchor="middle" x="214.5" y="-168" font-family="Helvetica,sans-Serif" font-size="10.00">peg::escape_characters</text>
</a>
</g>
</g>
<!-- Node1&#45;&gt;Node3 -->
<g id="edge2_Node000001_Node000003" class="edge">
<title>Node1&#45;&gt;Node3</title>
<g id="a_edge2_Node000001_Node000003"><a xlink:title=" ">
<path fill="none" stroke="#63b8ff" d="M81.53,-120.1C99.96,-127.42 126.04,-137.71 149,-146.5 159.93,-150.68 171.95,-155.18 182.61,-159.14"/>
<polygon fill="#63b8ff" stroke="#63b8ff" points="187.41,-160.92 181.94,-161.29 185.07,-160.05 182.72,-159.18 182.72,-159.18 182.72,-159.18 185.07,-160.05 183.5,-157.07 187.41,-160.92 187.41,-160.92"/>
</a>
</g>
</g>
<!-- Node4 -->
<g id="Node000004" class="node">
<title>Node4</title>
<g id="a_Node000004"><a xlink:href="../../d1/dab/structpeg_1_1TraceOpeName.html#a9ff5f094c1c37935e3bb5766fcb1aaf9" target="_top" xlink:title=" ">
<polygon fill="white" stroke="#666666" points="453,-142 316,-142 316,-123 453,-123 453,-142"/>
<text text-anchor="middle" x="384.5" y="-130" font-family="Helvetica,sans-Serif" font-size="10.00">peg::TraceOpeName::get</text>
</a>
</g>
</g>
<!-- Node1&#45;&gt;Node4 -->
<g id="edge3_Node000001_Node000004" class="edge">
<title>Node1&#45;&gt;Node4</title>
<g id="a_edge3_Node000001_Node000004"><a xlink:title=" ">
<path fill="none" stroke="#63b8ff" d="M113.17,-114.26C167.63,-117.93 250.86,-123.55 310.58,-127.58"/>
<polygon fill="#63b8ff" stroke="#63b8ff" points="315.92,-127.94 310.78,-129.85 313.43,-127.77 310.93,-127.6 310.93,-127.6 310.93,-127.6 313.43,-127.77 311.08,-125.36 315.92,-127.94 315.92,-127.94"/>
</a>
</g>
</g>
<!-- Node6 -->
<g id="Node000006" class="node">
<title>Node6</title>
<g id="a_Node000006"><a xlink:href="../../de/d4a/structpeg_1_1TokenChecker.html#afa80f2ab6c54c4e93d6525e33b425664" target="_top" xlink:title=" ">
<polygon fill="white" stroke="#666666" points="271,-104.5 158,-104.5 158,-74.5 271,-74.5 271,-104.5"/>
<text text-anchor="start" x="166" y="-92.5" font-family="Helvetica,sans-Serif" font-size="10.00">peg::TokenChecker::</text>
<text text-anchor="middle" x="214.5" y="-81.5" font-family="Helvetica,sans-Serif" font-size="10.00">is_token</text>
</a>
</g>
</g>
<!-- Node1&#45;&gt;Node6 -->
<g id="edge5_Node000001_Node000006" class="edge">
<title>Node1&#45;&gt;Node6</title>
<g id="a_edge5_Node000001_Node000006"><a xlink:title=" ">
<path fill="none" stroke="#63b8ff" d="M113.38,-102.98C126.11,-101.26 139.71,-99.43 152.64,-97.69"/>
<polygon fill="#63b8ff" stroke="#63b8ff" points="157.75,-97 153.09,-99.9 155.27,-97.34 152.79,-97.67 152.79,-97.67 152.79,-97.67 155.27,-97.34 152.49,-95.44 157.75,-97 157.75,-97"/>
</a>
</g>
</g>
<!-- Node8 -->
<g id="Node000008" class="node">
<title>Node8</title>
<g id="a_Node000008"><a xlink:href="../../dc/db2/namespacepeg.html#a6510c8b649470fdf3c26807bcd0994ad" target="_top" xlink:title=" ">
<polygon fill="white" stroke="#666666" points="239.5,-56 189.5,-56 189.5,-37 239.5,-37 239.5,-56"/>
<text text-anchor="middle" x="214.5" y="-44" font-family="Helvetica,sans-Serif" font-size="10.00">peg::lit</text>
</a>
</g>
</g>
<!-- Node1&#45;&gt;Node8 -->
<g id="edge9_Node000001_Node000008" class="edge">
<title>Node1&#45;&gt;Node8</title>
<g id="a_edge9_Node000001_Node000008"><a xlink:title=" ">
<path fill="none" stroke="#63b8ff" d="M74.64,-100.97C92.74,-91.17 122.28,-75.92 149,-65.5 160.32,-61.09 173.09,-57.12 184.27,-53.97"/>
<polygon fill="#63b8ff" stroke="#63b8ff" points="189.28,-52.58 185.06,-56.09 186.87,-53.25 184.46,-53.92 184.46,-53.92 184.46,-53.92 186.87,-53.25 183.86,-51.75 189.28,-52.58 189.28,-52.58"/>
</a>
</g>
</g>
<!-- Node9 -->
<g id="Node000009" class="node">
<title>Node9</title>
<g id="a_Node000009"><a xlink:href="../../dc/db2/namespacepeg.html#abb0779cb4c0b5f8e157e81bac9686c8a" target="_top" xlink:title=" ">
<polygon fill="white" stroke="#666666" points="254,-19 175,-19 175,0 254,0 254,-19"/>
<text text-anchor="middle" x="214.5" y="-7" font-family="Helvetica,sans-Serif" font-size="10.00">peg::success</text>
</a>
</g>
</g>
<!-- Node1&#45;&gt;Node9 -->
<g id="edge10_Node000001_Node000009" class="edge">
<title>Node1&#45;&gt;Node9</title>
<g id="a_edge10_Node000001_Node000009"><a xlink:title=" ">
<path fill="none" stroke="#63b8ff" d="M65.27,-100.99C79.85,-83.76 113.14,-47.3 149,-27.5 155.45,-23.94 162.66,-21.04 169.86,-18.69"/>
<polygon fill="#63b8ff" stroke="#63b8ff" points="174.83,-17.15 170.72,-20.78 172.44,-17.89 170.05,-18.63 170.05,-18.63 170.05,-18.63 172.44,-17.89 169.39,-16.48 174.83,-17.15 174.83,-17.15"/>
</a>
</g>
</g>
<!-- Node5 -->
<g id="Node000005" class="node">
<title>Node5</title>
<g id="a_Node000005"><a xlink:href="../../d2/d66/classpeg_1_1Ope.html#af57615cfe8938c0f4c9a0dd6df9da560" target="_top" xlink:title=" ">
<polygon fill="white" stroke="#666666" points="587,-104 489,-104 489,-85 587,-85 587,-104"/>
<text text-anchor="middle" x="538" y="-92" font-family="Helvetica,sans-Serif" font-size="10.00">peg::Ope::accept</text>
</a>
</g>
</g>
<!-- Node4&#45;&gt;Node5 -->
<g id="edge4_Node000004_Node000005" class="edge">
<title>Node4&#45;&gt;Node5</title>
<g id="a_edge4_Node000004_Node000005"><a xlink:title=" ">
<path fill="none" stroke="#63b8ff" d="M423.73,-122.91C445.16,-117.54 471.96,-110.81 494.1,-105.26"/>
<polygon fill="#63b8ff" stroke="#63b8ff" points="499.05,-104.02 494.74,-107.42 496.62,-104.63 494.2,-105.24 494.2,-105.24 494.2,-105.24 496.62,-104.63 493.65,-103.05 499.05,-104.02 499.05,-104.02"/>
</a>
</g>
</g>
<!-- Node6&#45;&gt;Node5 -->
<g id="edge6_Node000006_Node000005" class="edge">
<title>Node6&#45;&gt;Node5</title>
<g id="a_edge6_Node000006_Node000005"><a xlink:title=" ">
<path fill="none" stroke="#63b8ff" d="M271.13,-90.37C330.8,-91.29 424.87,-92.76 483.64,-93.67"/>
<polygon fill="#63b8ff" stroke="#63b8ff" points="488.86,-93.75 483.83,-95.92 486.36,-93.71 483.86,-93.67 483.86,-93.67 483.86,-93.67 486.36,-93.71 483.9,-91.42 488.86,-93.75 488.86,-93.75"/>
</a>
</g>
</g>
<!-- Node7 -->
<g id="Node000007" class="node">
<title>Node7</title>
<g id="a_Node000007"><a xlink:href="../../de/d67/structpeg_1_1IsLiteralToken.html#ae68025d2c11e7c9815c8d07333ba8ba3" target="_top" xlink:title=" ">
<polygon fill="white" stroke="#666666" points="438,-66.5 331,-66.5 331,-36.5 438,-36.5 438,-66.5"/>
<text text-anchor="start" x="339" y="-54.5" font-family="Helvetica,sans-Serif" font-size="10.00">peg::IsLiteralToken</text>
<text text-anchor="middle" x="384.5" y="-43.5" font-family="Helvetica,sans-Serif" font-size="10.00">::check</text>
</a>
</g>
</g>
<!-- Node6&#45;&gt;Node7 -->
<g id="edge7_Node000006_Node000007" class="edge">
<title>Node6&#45;&gt;Node7</title>
<g id="a_edge7_Node000006_Node000007"><a xlink:title=" ">
<path fill="none" stroke="#63b8ff" d="M271.44,-76.85C288.98,-72.88 308.36,-68.5 326,-64.51"/>
<polygon fill="#63b8ff" stroke="#63b8ff" points="330.93,-63.39 326.55,-66.69 328.49,-63.94 326.05,-64.49 326.05,-64.49 326.05,-64.49 328.49,-63.94 325.56,-62.3 330.93,-63.39 330.93,-63.39"/>
</a>
</g>
</g>
<!-- Node7&#45;&gt;Node5 -->
<g id="edge8_Node000007_Node000005" class="edge">
<title>Node7&#45;&gt;Node5</title>
<g id="a_edge8_Node000007_Node000005"><a xlink:title=" ">
<path fill="none" stroke="#63b8ff" d="M438.06,-66.42C457.9,-72.05 480.1,-78.35 498.43,-83.55"/>
<polygon fill="#63b8ff" stroke="#63b8ff" points="503.49,-84.99 498.06,-85.79 501.08,-84.31 498.68,-83.62 498.68,-83.62 498.68,-83.62 501.08,-84.31 499.29,-81.46 503.49,-84.99 503.49,-84.99"/>
</a>
</g>
</g>
</g>
</svg>
