<?xml version="1.0" encoding="UTF-8" standalone="no"?>
<!DOCTYPE svg PUBLIC "-//W3C//DTD SVG 1.1//EN"
 "http://www.w3.org/Graphics/SVG/1.1/DTD/svg11.dtd">
<!-- Generated by graphviz version 2.43.0 (0)
 -->
<!-- Title: peg::codepoint_length Pages: 1 -->
<svg width="1137pt" height="279pt"
 viewBox="0.00 0.00 1137.00 278.50" xmlns="http://www.w3.org/2000/svg" xmlns:xlink="http://www.w3.org/1999/xlink">
<g id="graph0" class="graph" transform="scale(1 1) rotate(0) translate(4 274.5)">
<title>peg::codepoint_length</title>
<!-- Node1 -->
<g id="Node000001" class="node">
<title>Node1</title>
<g id="a_Node000001"><a xlink:title=" ">
<polygon fill="#999999" stroke="#666666" points="1129,-112 1004,-112 1004,-93 1129,-93 1129,-112"/>
<text text-anchor="middle" x="1066.5" y="-100" font-family="Helvetica,sans-Serif" font-size="10.00">peg::codepoint_length</text>
</a>
</g>
</g>
<!-- Node2 -->
<g id="Node000002" class="node">
<title>Node2</title>
<g id="a_Node000002"><a xlink:href="../../dc/db2/namespacepeg.html#a1b2d4c46617c0fd0f1db581c12dfdc74" target="_top" xlink:title=" ">
<polygon fill="white" stroke="#666666" points="968,-171 847,-171 847,-152 968,-152 968,-171"/>
<text text-anchor="middle" x="907.5" y="-159" font-family="Helvetica,sans-Serif" font-size="10.00">peg::codepoint_count</text>
</a>
</g>
</g>
<!-- Node1&#45;&gt;Node2 -->
<g id="edge1_Node000001_Node000002" class="edge">
<title>Node1&#45;&gt;Node2</title>
<g id="a_edge1_Node000001_Node000002"><a xlink:title=" ">
<path fill="none" stroke="#63b8ff" d="M1034.96,-113.98C1005.48,-125.05 961.38,-141.63 933.8,-151.99"/>
<polygon fill="#63b8ff" stroke="#63b8ff" points="1039.93,-112.11 1036.04,-115.98 1037.59,-112.99 1035.25,-113.87 1035.25,-113.87 1035.25,-113.87 1037.59,-112.99 1034.45,-111.76 1039.93,-112.11 1039.93,-112.11"/>
</a>
</g>
</g>
<!-- Node8 -->
<g id="Node000008" class="node">
<title>Node8</title>
<g id="a_Node000008"><a xlink:href="../../db/da9/structpeg_1_1ErrorInfo.html#aba50700eda63a4a6e099ea86e20f87ed" target="_top" xlink:title=" ">
<polygon fill="white" stroke="#666666" points="630,-88 490,-88 490,-69 630,-69 630,-88"/>
<text text-anchor="middle" x="560" y="-76" font-family="Helvetica,sans-Serif" font-size="10.00">peg::ErrorInfo::output_log</text>
</a>
</g>
</g>
<!-- Node1&#45;&gt;Node8 -->
<g id="edge24_Node000001_Node000008" class="edge">
<title>Node1&#45;&gt;Node8</title>
<g id="a_edge24_Node000001_Node000008"><a xlink:title=" ">
<path fill="none" stroke="#63b8ff" d="M998.87,-106.74C921.84,-110.67 791.36,-114.29 680,-102.5 652.65,-99.6 622.26,-93.42 599.04,-88.06"/>
<polygon fill="#63b8ff" stroke="#63b8ff" points="1003.86,-106.49 998.99,-108.99 1001.37,-106.62 998.87,-106.74 998.87,-106.74 998.87,-106.74 1001.37,-106.62 998.75,-104.5 1003.86,-106.49 1003.86,-106.49"/>
</a>
</g>
</g>
<!-- Node21 -->
<g id="Node000021" class="node">
<title>Node21</title>
<g id="a_Node000021"><a xlink:href="../../db/da9/structpeg_1_1ErrorInfo.html#a7021cf38d8efdc186281e3632ddfc4ce" target="_top" xlink:title=" ">
<polygon fill="white" stroke="#666666" points="811,-93.5 680,-93.5 680,-63.5 811,-63.5 811,-93.5"/>
<text text-anchor="start" x="688" y="-81.5" font-family="Helvetica,sans-Serif" font-size="10.00">peg::ErrorInfo::heuristic</text>
<text text-anchor="middle" x="745.5" y="-70.5" font-family="Helvetica,sans-Serif" font-size="10.00">_error_token</text>
</a>
</g>
</g>
<!-- Node1&#45;&gt;Node21 -->
<g id="edge22_Node000001_Node000021" class="edge">
<title>Node1&#45;&gt;Node21</title>
<g id="a_edge22_Node000001_Node000021"><a xlink:title=" ">
<path fill="none" stroke="#63b8ff" d="M998.73,-97.48C943.54,-93.32 865.68,-87.47 811.1,-83.36"/>
<polygon fill="#63b8ff" stroke="#63b8ff" points="1003.99,-97.87 998.84,-99.74 1001.5,-97.68 999.01,-97.5 999.01,-97.5 999.01,-97.5 1001.5,-97.68 999.18,-95.25 1003.99,-97.87 1003.99,-97.87"/>
</a>
</g>
</g>
<!-- Node22 -->
<g id="Node000022" class="node">
<title>Node22</title>
<g id="a_Node000022"><a xlink:href="../../d8/d9b/classpeg_1_1AnyCharacter.html#a5f197bb0c5c9bceacc7ad75ea08a2ba9" target="_top" xlink:title=" ">
<polygon fill="white" stroke="#666666" points="964,-55.5 851,-55.5 851,-25.5 964,-25.5 964,-55.5"/>
<text text-anchor="start" x="859" y="-43.5" font-family="Helvetica,sans-Serif" font-size="10.00">peg::AnyCharacter::</text>
<text text-anchor="middle" x="907.5" y="-32.5" font-family="Helvetica,sans-Serif" font-size="10.00">parse_core</text>
</a>
</g>
</g>
<!-- Node1&#45;&gt;Node22 -->
<g id="edge25_Node000001_Node000022" class="edge">
<title>Node1&#45;&gt;Node22</title>
<g id="a_edge25_Node000001_Node000022"><a xlink:title=" ">
<path fill="none" stroke="#63b8ff" d="M1036.42,-91.02C1011.17,-81.04 974.42,-66.53 946.78,-55.62"/>
<polygon fill="#63b8ff" stroke="#63b8ff" points="1041.31,-92.95 1035.84,-93.2 1038.99,-92.03 1036.66,-91.11 1036.66,-91.11 1036.66,-91.11 1038.99,-92.03 1037.49,-89.02 1041.31,-92.95 1041.31,-92.95"/>
</a>
</g>
</g>
<!-- Node3 -->
<g id="Node000003" class="node">
<title>Node3</title>
<g id="a_Node000003"><a xlink:href="../../dc/db2/namespacepeg.html#a271c917c846302e10267a6be78a28d49" target="_top" xlink:title=" ">
<polygon fill="white" stroke="#666666" points="787,-172 704,-172 704,-153 787,-153 787,-172"/>
<text text-anchor="middle" x="745.5" y="-160" font-family="Helvetica,sans-Serif" font-size="10.00">peg::line_info</text>
</a>
</g>
</g>
<!-- Node2&#45;&gt;Node3 -->
<g id="edge2_Node000002_Node000003" class="edge">
<title>Node2&#45;&gt;Node3</title>
<g id="a_edge2_Node000002_Node000003"><a xlink:title=" ">
<path fill="none" stroke="#63b8ff" d="M841.75,-161.9C823.32,-162.02 803.75,-162.14 787.19,-162.25"/>
<polygon fill="#63b8ff" stroke="#63b8ff" points="846.92,-161.87 841.94,-164.15 844.42,-161.89 841.92,-161.9 841.92,-161.9 841.92,-161.9 844.42,-161.89 841.91,-159.65 846.92,-161.87 846.92,-161.87"/>
</a>
</g>
</g>
<!-- Node4 -->
<g id="Node000004" class="node">
<title>Node4</title>
<g id="a_Node000004"><a xlink:href="../../dc/dbb/classpeg_1_1ParserGenerator.html#a4e1b5dc42ccf7c70b038a45cb052d0f7" target="_top" xlink:title=" ">
<polygon fill="white" stroke="#666666" points="644,-222.5 476,-222.5 476,-192.5 644,-192.5 644,-222.5"/>
<text text-anchor="start" x="484" y="-210.5" font-family="Helvetica,sans-Serif" font-size="10.00">peg::ParserGenerator</text>
<text text-anchor="middle" x="560" y="-199.5" font-family="Helvetica,sans-Serif" font-size="10.00">::apply_precedence_instruction</text>
</a>
</g>
</g>
<!-- Node3&#45;&gt;Node4 -->
<g id="edge3_Node000003_Node000004" class="edge">
<title>Node3&#45;&gt;Node4</title>
<g id="a_edge3_Node000003_Node000004"><a xlink:title=" ">
<path fill="none" stroke="#63b8ff" d="M700.67,-173.25C677.2,-179 647.93,-186.18 622.25,-192.48"/>
<polygon fill="#63b8ff" stroke="#63b8ff" points="705.58,-172.04 701.26,-175.42 703.16,-172.64 700.73,-173.23 700.73,-173.23 700.73,-173.23 703.16,-172.64 700.19,-171.05 705.58,-172.04 705.58,-172.04"/>
</a>
</g>
</g>
<!-- Node5 -->
<g id="Node000005" class="node">
<title>Node5</title>
<g id="a_Node000005"><a xlink:href="../../dc/dbb/classpeg_1_1ParserGenerator.html#ae38088c37117a2cf1db24bbe7fe5c661" target="_top" xlink:title=" ">
<polygon fill="white" stroke="#666666" points="427,-179.5 308,-179.5 308,-149.5 427,-149.5 427,-179.5"/>
<text text-anchor="start" x="316" y="-167.5" font-family="Helvetica,sans-Serif" font-size="10.00">peg::ParserGenerator</text>
<text text-anchor="middle" x="367.5" y="-156.5" font-family="Helvetica,sans-Serif" font-size="10.00">::perform_core</text>
</a>
</g>
</g>
<!-- Node3&#45;&gt;Node5 -->
<g id="edge19_Node000003_Node000005" class="edge">
<title>Node3&#45;&gt;Node5</title>
<g id="a_edge19_Node000003_Node000005"><a xlink:title=" ">
<path fill="none" stroke="#63b8ff" d="M698.69,-162.74C630.43,-163.11 502.02,-163.79 427.04,-164.19"/>
<polygon fill="#63b8ff" stroke="#63b8ff" points="703.9,-162.72 698.92,-164.99 701.4,-162.73 698.9,-162.74 698.9,-162.74 698.9,-162.74 701.4,-162.73 698.89,-160.49 703.9,-162.72 703.9,-162.72"/>
</a>
</g>
</g>
<!-- Node7 -->
<g id="Node000007" class="node">
<title>Node7</title>
<g id="a_Node000007"><a xlink:href="../../dc/dbb/classpeg_1_1ParserGenerator.html#aa14774e3fd10c4d030309763717d73fc" target="_top" xlink:title=" ">
<polygon fill="white" stroke="#666666" points="619.5,-136.5 500.5,-136.5 500.5,-106.5 619.5,-106.5 619.5,-136.5"/>
<text text-anchor="start" x="508.5" y="-124.5" font-family="Helvetica,sans-Serif" font-size="10.00">peg::ParserGenerator</text>
<text text-anchor="middle" x="560" y="-113.5" font-family="Helvetica,sans-Serif" font-size="10.00">::detect_infiniteLoop</text>
</a>
</g>
</g>
<!-- Node3&#45;&gt;Node7 -->
<g id="edge6_Node000003_Node000007" class="edge">
<title>Node3&#45;&gt;Node7</title>
<g id="a_edge6_Node000003_Node000007"><a xlink:title=" ">
<path fill="none" stroke="#63b8ff" d="M698.76,-152.28C674.85,-146.94 645.3,-140.34 619.72,-134.62"/>
<polygon fill="#63b8ff" stroke="#63b8ff" points="703.78,-153.4 698.41,-154.51 701.34,-152.86 698.9,-152.31 698.9,-152.31 698.9,-152.31 701.34,-152.86 699.39,-150.11 703.78,-153.4 703.78,-153.4"/>
</a>
</g>
</g>
<!-- Node3&#45;&gt;Node8 -->
<g id="edge8_Node000003_Node000008" class="edge">
<title>Node3&#45;&gt;Node8</title>
<g id="a_edge8_Node000003_Node000008"><a xlink:title=" ">
<path fill="none" stroke="#63b8ff" d="M709.73,-151.03C699.69,-146.92 689.01,-141.73 680,-135.5 660.86,-122.28 664.2,-109.03 644,-97.5 637.2,-93.62 629.65,-90.53 621.97,-88.07"/>
<polygon fill="#63b8ff" stroke="#63b8ff" points="714.6,-152.96 709.12,-153.21 712.27,-152.04 709.95,-151.12 709.95,-151.12 709.95,-151.12 712.27,-152.04 710.78,-149.03 714.6,-152.96 714.6,-152.96"/>
</a>
</g>
</g>
<!-- Node19 -->
<g id="Node000019" class="node">
<title>Node19</title>
<g id="a_Node000019"><a xlink:href="../../dc/dbb/classpeg_1_1ParserGenerator.html#afa7a9efe83e831fd48692dc871c5f3f9" target="_top" xlink:title=" ">
<polygon fill="white" stroke="#666666" points="619.5,-270.5 500.5,-270.5 500.5,-240.5 619.5,-240.5 619.5,-270.5"/>
<text text-anchor="start" x="508.5" y="-258.5" font-family="Helvetica,sans-Serif" font-size="10.00">peg::ParserGenerator</text>
<text text-anchor="middle" x="560" y="-247.5" font-family="Helvetica,sans-Serif" font-size="10.00">::setup_actions</text>
</a>
</g>
</g>
<!-- Node3&#45;&gt;Node19 -->
<g id="edge20_Node000003_Node000019" class="edge">
<title>Node3&#45;&gt;Node19</title>
<g id="a_edge20_Node000003_Node000019"><a xlink:title=" ">
<path fill="none" stroke="#63b8ff" d="M729.15,-175.39C710.23,-190.7 676.55,-216.11 644,-231.5 636.41,-235.09 628.16,-238.26 619.92,-241.02"/>
<polygon fill="#63b8ff" stroke="#63b8ff" points="733.19,-172.09 730.74,-177 731.25,-173.68 729.31,-175.26 729.31,-175.26 729.31,-175.26 731.25,-173.68 727.89,-173.51 733.19,-172.09 733.19,-172.09"/>
</a>
</g>
</g>
<!-- Node4&#45;&gt;Node5 -->
<g id="edge4_Node000004_Node000005" class="edge">
<title>Node4&#45;&gt;Node5</title>
<g id="a_edge4_Node000004_Node000005"><a xlink:title=" ">
<path fill="none" stroke="#63b8ff" d="M487.36,-191.33C467.5,-186.85 446.18,-182.03 427.15,-177.74"/>
<polygon fill="#63b8ff" stroke="#63b8ff" points="492.37,-192.46 487,-193.55 489.93,-191.91 487.5,-191.36 487.5,-191.36 487.5,-191.36 489.93,-191.91 487.99,-189.16 492.37,-192.46 492.37,-192.46"/>
</a>
</g>
</g>
<!-- Node6 -->
<g id="Node000006" class="node">
<title>Node6</title>
<g id="a_Node000006"><a xlink:href="../../dc/dbb/classpeg_1_1ParserGenerator.html#a1233bfc5863c86b0ff94c0ffda4b7ec8" target="_top" xlink:title=" ">
<polygon fill="white" stroke="#666666" points="259,-179.5 140,-179.5 140,-149.5 259,-149.5 259,-179.5"/>
<text text-anchor="start" x="148" y="-167.5" font-family="Helvetica,sans-Serif" font-size="10.00">peg::ParserGenerator</text>
<text text-anchor="middle" x="199.5" y="-156.5" font-family="Helvetica,sans-Serif" font-size="10.00">::parse</text>
</a>
</g>
</g>
<!-- Node5&#45;&gt;Node6 -->
<g id="edge5_Node000005_Node000006" class="edge">
<title>Node5&#45;&gt;Node6</title>
<g id="a_edge5_Node000005_Node000006"><a xlink:title=" ">
<path fill="none" stroke="#63b8ff" d="M302.72,-164.5C288.36,-164.5 273.19,-164.5 259.06,-164.5"/>
<polygon fill="#63b8ff" stroke="#63b8ff" points="307.97,-164.5 302.97,-166.75 305.47,-164.5 302.97,-164.5 302.97,-164.5 302.97,-164.5 305.47,-164.5 302.97,-162.25 307.97,-164.5 307.97,-164.5"/>
</a>
</g>
</g>
<!-- Node7&#45;&gt;Node5 -->
<g id="edge7_Node000007_Node000005" class="edge">
<title>Node7&#45;&gt;Node5</title>
<g id="a_edge7_Node000007_Node000005"><a xlink:title=" ">
<path fill="none" stroke="#63b8ff" d="M495.33,-135.87C473.26,-140.85 448.65,-146.41 427.02,-151.29"/>
<polygon fill="#63b8ff" stroke="#63b8ff" points="500.29,-134.75 495.91,-138.05 497.85,-135.3 495.41,-135.85 495.41,-135.85 495.41,-135.85 497.85,-135.3 494.92,-133.66 500.29,-134.75 500.29,-134.75"/>
</a>
</g>
</g>
<!-- Node9 -->
<g id="Node000009" class="node">
<title>Node9</title>
<g id="a_Node000009"><a xlink:href="../../d4/d83/classpeg_1_1Recovery.html#a12e6a15fe93b9ec446aa34f342f98588" target="_top" xlink:title=" ">
<polygon fill="white" stroke="#666666" points="440,-54 295,-54 295,-35 440,-35 440,-54"/>
<text text-anchor="middle" x="367.5" y="-42" font-family="Helvetica,sans-Serif" font-size="10.00">peg::Recovery::parse_core</text>
</a>
</g>
</g>
<!-- Node8&#45;&gt;Node9 -->
<g id="edge9_Node000008_Node000009" class="edge">
<title>Node8&#45;&gt;Node9</title>
<g id="a_edge9_Node000008_Node000009"><a xlink:title=" ">
<path fill="none" stroke="#63b8ff" d="M500.71,-68.1C475.57,-63.61 446.36,-58.4 421.81,-54.01"/>
<polygon fill="#63b8ff" stroke="#63b8ff" points="505.68,-68.98 500.36,-70.32 503.22,-68.54 500.76,-68.11 500.76,-68.11 500.76,-68.11 503.22,-68.54 501.15,-65.89 505.68,-68.98 505.68,-68.98"/>
</a>
</g>
</g>
<!-- Node10 -->
<g id="Node000010" class="node">
<title>Node10</title>
<g id="a_Node000010"><a xlink:href="../../da/d7b/classpeg_1_1parser.html#abc8ac1571f4e173ba58b1a6050d99744" target="_top" xlink:title=" ">
<polygon fill="white" stroke="#666666" points="438,-91 297,-91 297,-72 438,-72 438,-91"/>
<text text-anchor="middle" x="367.5" y="-79" font-family="Helvetica,sans-Serif" font-size="10.00">peg::parser::post_process</text>
</a>
</g>
</g>
<!-- Node8&#45;&gt;Node10 -->
<g id="edge10_Node000008_Node000010" class="edge">
<title>Node8&#45;&gt;Node10</title>
<g id="a_edge10_Node000008_Node000010"><a xlink:title=" ">
<path fill="none" stroke="#63b8ff" d="M484.8,-79.67C469.49,-79.91 453.41,-80.16 438.27,-80.4"/>
<polygon fill="#63b8ff" stroke="#63b8ff" points="489.96,-79.59 484.99,-81.92 487.46,-79.63 484.96,-79.67 484.96,-79.67 484.96,-79.67 487.46,-79.63 484.92,-77.42 489.96,-79.59 489.96,-79.59"/>
</a>
</g>
</g>
<!-- Node11 -->
<g id="Node000011" class="node">
<title>Node11</title>
<g id="a_Node000011"><a xlink:href="../../da/d7b/classpeg_1_1parser.html#aecf69400627989cb4c080479471f8d7c" target="_top" xlink:title=" ">
<polygon fill="white" stroke="#666666" points="257.5,-93 141.5,-93 141.5,-74 257.5,-74 257.5,-93"/>
<text text-anchor="middle" x="199.5" y="-81" font-family="Helvetica,sans-Serif" font-size="10.00">peg::parser::parse_n</text>
</a>
</g>
</g>
<!-- Node10&#45;&gt;Node11 -->
<g id="edge11_Node000010_Node000011" class="edge">
<title>Node10&#45;&gt;Node11</title>
<g id="a_edge11_Node000010_Node000011"><a xlink:title=" ">
<path fill="none" stroke="#63b8ff" d="M291.37,-82.41C280,-82.54 268.42,-82.68 257.51,-82.81"/>
<polygon fill="#63b8ff" stroke="#63b8ff" points="296.58,-82.34 291.61,-84.65 294.08,-82.37 291.58,-82.4 291.58,-82.4 291.58,-82.4 294.08,-82.37 291.56,-80.15 296.58,-82.34 296.58,-82.34"/>
</a>
</g>
</g>
<!-- Node16 -->
<g id="Node000016" class="node">
<title>Node16</title>
<g id="a_Node000016"><a xlink:href="../../da/d7b/classpeg_1_1parser.html#a3d2138de61805b8d8918fbd6c4af1b06" target="_top" xlink:title=" ">
<polygon fill="white" stroke="#666666" points="257.5,-56 141.5,-56 141.5,-37 257.5,-37 257.5,-56"/>
<text text-anchor="middle" x="199.5" y="-44" font-family="Helvetica,sans-Serif" font-size="10.00">peg::parser::parse_n</text>
</a>
</g>
</g>
<!-- Node10&#45;&gt;Node16 -->
<g id="edge16_Node000010_Node000016" class="edge">
<title>Node10&#45;&gt;Node16</title>
<g id="a_edge16_Node000010_Node000016"><a xlink:title=" ">
<path fill="none" stroke="#63b8ff" d="M316.13,-70.88C293.73,-66.16 267.57,-60.64 245.81,-56.05"/>
<polygon fill="#63b8ff" stroke="#63b8ff" points="321.14,-71.94 315.78,-73.11 318.69,-71.42 316.25,-70.9 316.25,-70.9 316.25,-70.9 318.69,-71.42 316.71,-68.7 321.14,-71.94 321.14,-71.94"/>
</a>
</g>
</g>
<!-- Node17 -->
<g id="Node000017" class="node">
<title>Node17</title>
<g id="a_Node000017"><a xlink:href="../../da/d7b/classpeg_1_1parser.html#a1de7147cf3d59ed082a7ada7aa2b1ad2" target="_top" xlink:title=" ">
<polygon fill="white" stroke="#666666" points="257.5,-19 141.5,-19 141.5,0 257.5,0 257.5,-19"/>
<text text-anchor="middle" x="199.5" y="-7" font-family="Helvetica,sans-Serif" font-size="10.00">peg::parser::parse_n</text>
</a>
</g>
</g>
<!-- Node10&#45;&gt;Node17 -->
<g id="edge17_Node000010_Node000017" class="edge">
<title>Node10&#45;&gt;Node17</title>
<g id="a_edge17_Node000010_Node000017"><a xlink:title=" ">
<path fill="none" stroke="#63b8ff" d="M312.09,-70.23C306.15,-68.07 300.33,-65.52 295,-62.5 275.58,-51.5 278.2,-38.88 259,-27.5 253.33,-24.14 246.98,-21.35 240.6,-19.06"/>
<polygon fill="#63b8ff" stroke="#63b8ff" points="317.11,-71.95 311.65,-72.45 314.74,-71.13 312.38,-70.32 312.38,-70.32 312.38,-70.32 314.74,-71.13 313.11,-68.2 317.11,-71.95 317.11,-71.95"/>
</a>
</g>
</g>
<!-- Node18 -->
<g id="Node000018" class="node">
<title>Node18</title>
<g id="a_Node000018"><a xlink:href="../../da/d7b/classpeg_1_1parser.html#a8c1fbb31c7b3c9f402ce77f38876ecfd" target="_top" xlink:title=" ">
<polygon fill="white" stroke="#666666" points="257.5,-130 141.5,-130 141.5,-111 257.5,-111 257.5,-130"/>
<text text-anchor="middle" x="199.5" y="-118" font-family="Helvetica,sans-Serif" font-size="10.00">peg::parser::parse_n</text>
</a>
</g>
</g>
<!-- Node10&#45;&gt;Node18 -->
<g id="edge18_Node000010_Node000018" class="edge">
<title>Node10&#45;&gt;Node18</title>
<g id="a_edge18_Node000010_Node000018"><a xlink:title=" ">
<path fill="none" stroke="#63b8ff" d="M320.97,-92.2C295.94,-98.08 265.16,-105.31 240.98,-110.99"/>
<polygon fill="#63b8ff" stroke="#63b8ff" points="325.89,-91.04 321.54,-94.37 323.46,-91.61 321.02,-92.18 321.02,-92.18 321.02,-92.18 323.46,-91.61 320.51,-89.99 325.89,-91.04 325.89,-91.04"/>
</a>
</g>
</g>
<!-- Node12 -->
<g id="Node000012" class="node">
<title>Node12</title>
<g id="a_Node000012"><a xlink:href="../../da/d7b/classpeg_1_1parser.html#aed32355c4ec5d1448da6f828f290f466" target="_top" xlink:title=" ">
<polygon fill="white" stroke="#666666" points="104,-148 0,-148 0,-129 104,-129 104,-148"/>
<text text-anchor="middle" x="52" y="-136" font-family="Helvetica,sans-Serif" font-size="10.00">peg::parser::parse</text>
</a>
</g>
</g>
<!-- Node11&#45;&gt;Node12 -->
<g id="edge12_Node000011_Node000012" class="edge">
<title>Node11&#45;&gt;Node12</title>
<g id="a_edge12_Node000011_Node000012"><a xlink:title=" ">
<path fill="none" stroke="#63b8ff" d="M159.22,-94.61C152.73,-96.72 146.13,-99.04 140,-101.5 123.39,-108.15 120.41,-112.37 104,-119.5 96.37,-122.82 87.97,-126.1 80.21,-128.98"/>
<polygon fill="#63b8ff" stroke="#63b8ff" points="164.14,-93.03 160.06,-96.7 161.76,-93.79 159.38,-94.56 159.38,-94.56 159.38,-94.56 161.76,-93.79 158.69,-92.41 164.14,-93.03 164.14,-93.03"/>
</a>
</g>
</g>
<!-- Node13 -->
<g id="Node000013" class="node">
<title>Node13</title>
<g id="a_Node000013"><a xlink:href="../../da/d7b/classpeg_1_1parser.html#a985babb67451165bb14c8a73c1e1bac9" target="_top" xlink:title=" ">
<polygon fill="white" stroke="#666666" points="104,-111 0,-111 0,-92 104,-92 104,-111"/>
<text text-anchor="middle" x="52" y="-99" font-family="Helvetica,sans-Serif" font-size="10.00">peg::parser::parse</text>
</a>
</g>
</g>
<!-- Node11&#45;&gt;Node13 -->
<g id="edge13_Node000011_Node000013" class="edge">
<title>Node11&#45;&gt;Node13</title>
<g id="a_edge13_Node000011_Node000013"><a xlink:title=" ">
<path fill="none" stroke="#63b8ff" d="M136.21,-91.21C125.54,-92.53 114.58,-93.88 104.25,-95.16"/>
<polygon fill="#63b8ff" stroke="#63b8ff" points="141.41,-90.56 136.73,-93.41 138.93,-90.87 136.45,-91.18 136.45,-91.18 136.45,-91.18 138.93,-90.87 136.17,-88.94 141.41,-90.56 141.41,-90.56"/>
</a>
</g>
</g>
<!-- Node14 -->
<g id="Node000014" class="node">
<title>Node14</title>
<g id="a_Node000014"><a xlink:href="../../da/d7b/classpeg_1_1parser.html#ab5d7044894b769eecb3d203b0a4c9b94" target="_top" xlink:title=" ">
<polygon fill="white" stroke="#666666" points="104,-74 0,-74 0,-55 104,-55 104,-74"/>
<text text-anchor="middle" x="52" y="-62" font-family="Helvetica,sans-Serif" font-size="10.00">peg::parser::parse</text>
</a>
</g>
</g>
<!-- Node11&#45;&gt;Node14 -->
<g id="edge14_Node000011_Node000014" class="edge">
<title>Node11&#45;&gt;Node14</title>
<g id="a_edge14_Node000011_Node000014"><a xlink:title=" ">
<path fill="none" stroke="#63b8ff" d="M136.21,-75.37C125.54,-73.97 114.58,-72.54 104.25,-71.19"/>
<polygon fill="#63b8ff" stroke="#63b8ff" points="141.41,-76.05 136.16,-77.63 138.93,-75.72 136.45,-75.4 136.45,-75.4 136.45,-75.4 138.93,-75.72 136.75,-73.17 141.41,-76.05 141.41,-76.05"/>
</a>
</g>
</g>
<!-- Node15 -->
<g id="Node000015" class="node">
<title>Node15</title>
<g id="a_Node000015"><a xlink:href="../../da/d7b/classpeg_1_1parser.html#adc45f75e845d39c157fd8a1141f86f6a" target="_top" xlink:title=" ">
<polygon fill="white" stroke="#666666" points="104,-37 0,-37 0,-18 104,-18 104,-37"/>
<text text-anchor="middle" x="52" y="-25" font-family="Helvetica,sans-Serif" font-size="10.00">peg::parser::parse</text>
</a>
</g>
</g>
<!-- Node11&#45;&gt;Node15 -->
<g id="edge15_Node000011_Node000015" class="edge">
<title>Node11&#45;&gt;Node15</title>
<g id="a_edge15_Node000011_Node000015"><a xlink:title=" ">
<path fill="none" stroke="#63b8ff" d="M160.84,-72.32C153.83,-69.95 146.63,-67.3 140,-64.5 123.34,-57.46 120.57,-52.75 104,-45.5 97.12,-42.49 89.56,-39.6 82.41,-37.06"/>
<polygon fill="#63b8ff" stroke="#63b8ff" points="165.65,-73.92 160.19,-74.48 163.27,-73.13 160.9,-72.34 160.9,-72.34 160.9,-72.34 163.27,-73.13 161.61,-70.21 165.65,-73.92 165.65,-73.92"/>
</a>
</g>
</g>
<!-- Node20 -->
<g id="Node000020" class="node">
<title>Node20</title>
<g id="a_Node000020"><a xlink:href="../../dc/dbb/classpeg_1_1ParserGenerator.html#a6d5a546be5e34286b2d5d06d6e2ce02d" target="_top" xlink:title=" ">
<polygon fill="white" stroke="#666666" points="427,-270.5 308,-270.5 308,-240.5 427,-240.5 427,-270.5"/>
<text text-anchor="start" x="316" y="-258.5" font-family="Helvetica,sans-Serif" font-size="10.00">peg::ParserGenerator</text>
<text text-anchor="middle" x="367.5" y="-247.5" font-family="Helvetica,sans-Serif" font-size="10.00">::ParserGenerator</text>
</a>
</g>
</g>
<!-- Node19&#45;&gt;Node20 -->
<g id="edge21_Node000019_Node000020" class="edge">
<title>Node19&#45;&gt;Node20</title>
<g id="a_edge21_Node000019_Node000020"><a xlink:title=" ">
<path fill="none" stroke="#63b8ff" d="M495.05,-255.5C473.06,-255.5 448.56,-255.5 427.02,-255.5"/>
<polygon fill="#63b8ff" stroke="#63b8ff" points="500.29,-255.5 495.29,-257.75 497.79,-255.5 495.29,-255.5 495.29,-255.5 495.29,-255.5 497.79,-255.5 495.29,-253.25 500.29,-255.5 500.29,-255.5"/>
</a>
</g>
</g>
<!-- Node21&#45;&gt;Node8 -->
<g id="edge23_Node000021_Node000008" class="edge">
<title>Node21&#45;&gt;Node8</title>
<g id="a_edge23_Node000021_Node000008"><a xlink:title=" ">
<path fill="none" stroke="#63b8ff" d="M674.48,-78.5C659.93,-78.5 644.61,-78.5 630.09,-78.5"/>
<polygon fill="#63b8ff" stroke="#63b8ff" points="679.8,-78.5 674.8,-80.75 677.3,-78.5 674.8,-78.5 674.8,-78.5 674.8,-78.5 677.3,-78.5 674.8,-76.25 679.8,-78.5 679.8,-78.5"/>
</a>
</g>
</g>
</g>
</svg>
