<?xml version="1.0" encoding="UTF-8" standalone="no"?>
<!DOCTYPE svg PUBLIC "-//W3C//DTD SVG 1.1//EN"
 "http://www.w3.org/Graphics/SVG/1.1/DTD/svg11.dtd">
<!-- Generated by graphviz version 2.43.0 (0)
 -->
<!-- Title: peg::lit Pages: 1 -->
<svg width="678pt" height="215pt"
 viewBox="0.00 0.00 678.00 214.50" xmlns="http://www.w3.org/2000/svg" xmlns:xlink="http://www.w3.org/1999/xlink">
<g id="graph0" class="graph" transform="scale(1 1) rotate(0) translate(4 210.5)">
<title>peg::lit</title>
<!-- Node1 -->
<g id="Node000001" class="node">
<title>Node1</title>
<g id="a_Node000001"><a xlink:title=" ">
<polygon fill="#999999" stroke="#666666" points="670,-115.5 620,-115.5 620,-96.5 670,-96.5 670,-115.5"/>
<text text-anchor="middle" x="645" y="-103.5" font-family="Helvetica,sans-Serif" font-size="10.00">peg::lit</text>
</a>
</g>
</g>
<!-- Node2 -->
<g id="Node000002" class="node">
<title>Node2</title>
<g id="a_Node000002"><a xlink:href="../../dc/db2/namespacepeg.html#afd594272f2bbbdd693db888780515a3d" target="_top" xlink:title=" ">
<polygon fill="white" stroke="#666666" points="581,-206.5 468,-206.5 468,-187.5 581,-187.5 581,-206.5"/>
<text text-anchor="middle" x="524.5" y="-194.5" font-family="Helvetica,sans-Serif" font-size="10.00">peg::enable_tracing</text>
</a>
</g>
</g>
<!-- Node1&#45;&gt;Node2 -->
<g id="edge1_Node000001_Node000002" class="edge">
<title>Node1&#45;&gt;Node2</title>
<g id="a_edge1_Node000001_Node000002"><a xlink:title=" ">
<path fill="none" stroke="#63b8ff" d="M635.66,-120.19C625.44,-136.4 606.66,-162.66 584,-178 578.34,-181.83 571.85,-184.93 565.31,-187.43"/>
<polygon fill="#63b8ff" stroke="#63b8ff" points="638.31,-115.9 637.6,-121.34 637,-118.03 635.69,-120.15 635.69,-120.15 635.69,-120.15 637,-118.03 633.77,-118.97 638.31,-115.9 638.31,-115.9"/>
</a>
</g>
</g>
<!-- Node3 -->
<g id="Node000003" class="node">
<title>Node3</title>
<g id="a_Node000003"><a xlink:href="../../dc/dbb/classpeg_1_1ParserGenerator.html#a543f2d8a9a40794cb4b82321774792a0" target="_top" xlink:title=" ">
<polygon fill="white" stroke="#666666" points="584,-169 465,-169 465,-139 584,-139 584,-169"/>
<text text-anchor="start" x="473" y="-157" font-family="Helvetica,sans-Serif" font-size="10.00">peg::ParserGenerator</text>
<text text-anchor="middle" x="524.5" y="-146" font-family="Helvetica,sans-Serif" font-size="10.00">::make_grammar</text>
</a>
</g>
</g>
<!-- Node1&#45;&gt;Node3 -->
<g id="edge2_Node000001_Node000003" class="edge">
<title>Node1&#45;&gt;Node3</title>
<g id="a_edge2_Node000001_Node000003"><a xlink:title=" ">
<path fill="none" stroke="#63b8ff" d="M615.52,-117.53C599.67,-123.96 579.75,-132.02 562.69,-138.94"/>
<polygon fill="#63b8ff" stroke="#63b8ff" points="620.3,-115.6 616.52,-119.56 617.99,-116.54 615.67,-117.48 615.67,-117.48 615.67,-117.48 617.99,-116.54 614.83,-115.39 620.3,-115.6 620.3,-115.6"/>
</a>
</g>
</g>
<!-- Node8 -->
<g id="Node000008" class="node">
<title>Node8</title>
<g id="a_Node000008"><a xlink:href="../../db/d72/classpeg_1_1BackReference.html#ab9cbffc6a8793ae22ad8ba7064ec2ccb" target="_top" xlink:title=" ">
<polygon fill="white" stroke="#666666" points="426.5,-78 312.5,-78 312.5,-48 426.5,-48 426.5,-78"/>
<text text-anchor="start" x="320.5" y="-66" font-family="Helvetica,sans-Serif" font-size="10.00">peg::BackReference</text>
<text text-anchor="middle" x="369.5" y="-55" font-family="Helvetica,sans-Serif" font-size="10.00">::parse_core</text>
</a>
</g>
</g>
<!-- Node1&#45;&gt;Node8 -->
<g id="edge7_Node000001_Node000008" class="edge">
<title>Node1&#45;&gt;Node8</title>
<g id="a_edge7_Node000001_Node000008"><a xlink:title=" ">
<path fill="none" stroke="#63b8ff" d="M619.46,-94.3C608.8,-89.72 596.02,-84.87 584,-82 531.52,-69.46 470,-65.03 426.51,-63.54"/>
<polygon fill="#63b8ff" stroke="#63b8ff" points="624.2,-96.38 618.72,-96.43 621.92,-95.38 619.63,-94.37 619.63,-94.37 619.63,-94.37 621.92,-95.38 620.53,-92.31 624.2,-96.38 624.2,-96.38"/>
</a>
</g>
</g>
<!-- Node9 -->
<g id="Node000009" class="node">
<title>Node9</title>
<g id="a_Node000009"><a xlink:href="../../dc/db2/namespacepeg.html#a5fa079895d7f26f8a6f0a4fc488afde0" target="_top" xlink:title=" ">
<polygon fill="white" stroke="#666666" points="575,-34.5 474,-34.5 474,-15.5 575,-15.5 575,-34.5"/>
<text text-anchor="middle" x="524.5" y="-22.5" font-family="Helvetica,sans-Serif" font-size="10.00">peg::parse_literal</text>
</a>
</g>
</g>
<!-- Node1&#45;&gt;Node9 -->
<g id="edge8_Node000001_Node000009" class="edge">
<title>Node1&#45;&gt;Node9</title>
<g id="a_edge8_Node000001_Node000009"><a xlink:title=" ">
<path fill="none" stroke="#63b8ff" d="M632.37,-92.36C621.06,-79.76 602.85,-61.21 584,-49 575.06,-43.21 564.5,-38.37 554.82,-34.58"/>
<polygon fill="#63b8ff" stroke="#63b8ff" points="635.94,-96.38 630.94,-94.13 634.28,-94.51 632.62,-92.64 632.62,-92.64 632.62,-92.64 634.28,-94.51 634.31,-91.15 635.94,-96.38 635.94,-96.38"/>
</a>
</g>
</g>
<!-- Node11 -->
<g id="Node000011" class="node">
<title>Node11</title>
<g id="a_Node000011"><a xlink:href="../../dc/dbb/classpeg_1_1ParserGenerator.html#afa7a9efe83e831fd48692dc871c5f3f9" target="_top" xlink:title=" ">
<polygon fill="white" stroke="#666666" points="584,-121 465,-121 465,-91 584,-91 584,-121"/>
<text text-anchor="start" x="473" y="-109" font-family="Helvetica,sans-Serif" font-size="10.00">peg::ParserGenerator</text>
<text text-anchor="middle" x="524.5" y="-98" font-family="Helvetica,sans-Serif" font-size="10.00">::setup_actions</text>
</a>
</g>
</g>
<!-- Node1&#45;&gt;Node11 -->
<g id="edge11_Node000001_Node000011" class="edge">
<title>Node1&#45;&gt;Node11</title>
<g id="a_edge11_Node000001_Node000011"><a xlink:title=" ">
<path fill="none" stroke="#63b8ff" d="M614.5,-106C605.34,-106 594.91,-106 584.48,-106"/>
<polygon fill="#63b8ff" stroke="#63b8ff" points="619.73,-106 614.73,-108.25 617.23,-106 614.73,-106 614.73,-106 614.73,-106 617.23,-106 614.73,-103.75 619.73,-106 619.73,-106"/>
</a>
</g>
</g>
<!-- Node4 -->
<g id="Node000004" class="node">
<title>Node4</title>
<g id="a_Node000004"><a xlink:href="../../dc/dbb/classpeg_1_1ParserGenerator.html#a6d5a546be5e34286b2d5d06d6e2ce02d" target="_top" xlink:title=" ">
<polygon fill="white" stroke="#666666" points="429,-147 310,-147 310,-117 429,-117 429,-147"/>
<text text-anchor="start" x="318" y="-135" font-family="Helvetica,sans-Serif" font-size="10.00">peg::ParserGenerator</text>
<text text-anchor="middle" x="369.5" y="-124" font-family="Helvetica,sans-Serif" font-size="10.00">::ParserGenerator</text>
</a>
</g>
</g>
<!-- Node3&#45;&gt;Node4 -->
<g id="edge3_Node000003_Node000004" class="edge">
<title>Node3&#45;&gt;Node4</title>
<g id="a_edge3_Node000003_Node000004"><a xlink:title=" ">
<path fill="none" stroke="#63b8ff" d="M459.81,-144.84C449.62,-143.38 439.12,-141.87 429.06,-140.42"/>
<polygon fill="#63b8ff" stroke="#63b8ff" points="464.78,-145.56 459.51,-147.07 462.31,-145.2 459.83,-144.85 459.83,-144.85 459.83,-144.85 462.31,-145.2 460.15,-142.62 464.78,-145.56 464.78,-145.56"/>
</a>
</g>
</g>
<!-- Node5 -->
<g id="Node000005" class="node">
<title>Node5</title>
<g id="a_Node000005"><a xlink:href="../../dc/dbb/classpeg_1_1ParserGenerator.html#ae751606ec06e949cd1656b35a4c15057" target="_top" xlink:title=" ">
<polygon fill="white" stroke="#666666" points="274,-147 155,-147 155,-117 274,-117 274,-147"/>
<text text-anchor="start" x="163" y="-135" font-family="Helvetica,sans-Serif" font-size="10.00">peg::ParserGenerator</text>
<text text-anchor="middle" x="214.5" y="-124" font-family="Helvetica,sans-Serif" font-size="10.00">::get_instance</text>
</a>
</g>
</g>
<!-- Node4&#45;&gt;Node5 -->
<g id="edge4_Node000004_Node000005" class="edge">
<title>Node4&#45;&gt;Node5</title>
<g id="a_edge4_Node000004_Node000005"><a xlink:title=" ">
<path fill="none" stroke="#63b8ff" d="M304.53,-132C294.43,-132 284.03,-132 274.06,-132"/>
<polygon fill="#63b8ff" stroke="#63b8ff" points="309.78,-132 304.78,-134.25 307.28,-132 304.78,-132 304.78,-132 304.78,-132 307.28,-132 304.78,-129.75 309.78,-132 309.78,-132"/>
</a>
</g>
</g>
<!-- Node6 -->
<g id="Node000006" class="node">
<title>Node6</title>
<g id="a_Node000006"><a xlink:href="../../dc/dbb/classpeg_1_1ParserGenerator.html#a1233bfc5863c86b0ff94c0ffda4b7ec8" target="_top" xlink:title=" ">
<polygon fill="white" stroke="#666666" points="119,-171 0,-171 0,-141 119,-141 119,-171"/>
<text text-anchor="start" x="8" y="-159" font-family="Helvetica,sans-Serif" font-size="10.00">peg::ParserGenerator</text>
<text text-anchor="middle" x="59.5" y="-148" font-family="Helvetica,sans-Serif" font-size="10.00">::parse</text>
</a>
</g>
</g>
<!-- Node5&#45;&gt;Node6 -->
<g id="edge5_Node000005_Node000006" class="edge">
<title>Node5&#45;&gt;Node6</title>
<g id="a_edge5_Node000005_Node000006"><a xlink:title=" ">
<path fill="none" stroke="#63b8ff" d="M149.81,-141.99C139.62,-143.59 129.12,-145.24 119.06,-146.81"/>
<polygon fill="#63b8ff" stroke="#63b8ff" points="154.78,-141.21 150.19,-144.21 152.31,-141.6 149.84,-141.99 149.84,-141.99 149.84,-141.99 152.31,-141.6 149.5,-139.76 154.78,-141.21 154.78,-141.21"/>
</a>
</g>
</g>
<!-- Node7 -->
<g id="Node000007" class="node">
<title>Node7</title>
<g id="a_Node000007"><a xlink:href="../../dc/dbb/classpeg_1_1ParserGenerator.html#a6dbc405159d6bcb998bf44a48d67bd97" target="_top" xlink:title=" ">
<polygon fill="white" stroke="#666666" points="119,-123 0,-123 0,-93 119,-93 119,-123"/>
<text text-anchor="start" x="8" y="-111" font-family="Helvetica,sans-Serif" font-size="10.00">peg::ParserGenerator</text>
<text text-anchor="middle" x="59.5" y="-100" font-family="Helvetica,sans-Serif" font-size="10.00">::parse_test</text>
</a>
</g>
</g>
<!-- Node5&#45;&gt;Node7 -->
<g id="edge6_Node000005_Node000007" class="edge">
<title>Node5&#45;&gt;Node7</title>
<g id="a_edge6_Node000005_Node000007"><a xlink:title=" ">
<path fill="none" stroke="#63b8ff" d="M149.81,-122.01C139.62,-120.41 129.12,-118.76 119.06,-117.19"/>
<polygon fill="#63b8ff" stroke="#63b8ff" points="154.78,-122.79 149.5,-124.24 152.31,-122.4 149.84,-122.01 149.84,-122.01 149.84,-122.01 152.31,-122.4 150.19,-119.79 154.78,-122.79 154.78,-122.79"/>
</a>
</g>
</g>
<!-- Node9&#45;&gt;Node8 -->
<g id="edge9_Node000009_Node000008" class="edge">
<title>Node9&#45;&gt;Node8</title>
<g id="a_edge9_Node000009_Node000008"><a xlink:title=" ">
<path fill="none" stroke="#63b8ff" d="M479.85,-35.84C463.32,-39.95 444.26,-44.68 426.73,-49.03"/>
<polygon fill="#63b8ff" stroke="#63b8ff" points="484.89,-34.59 480.58,-37.98 482.47,-35.19 480.04,-35.79 480.04,-35.79 480.04,-35.79 482.47,-35.19 479.5,-33.61 484.89,-34.59 484.89,-34.59"/>
</a>
</g>
</g>
<!-- Node10 -->
<g id="Node000010" class="node">
<title>Node10</title>
<g id="a_Node000010"><a xlink:href="../../d2/de2/classpeg_1_1LiteralString.html#a657126f91f347263c00aad9ae303fdfc" target="_top" xlink:title=" ">
<polygon fill="white" stroke="#666666" points="419.5,-30 319.5,-30 319.5,0 419.5,0 419.5,-30"/>
<text text-anchor="start" x="327.5" y="-18" font-family="Helvetica,sans-Serif" font-size="10.00">peg::LiteralString</text>
<text text-anchor="middle" x="369.5" y="-7" font-family="Helvetica,sans-Serif" font-size="10.00">::parse_core</text>
</a>
</g>
</g>
<!-- Node9&#45;&gt;Node10 -->
<g id="edge10_Node000009_Node000010" class="edge">
<title>Node9&#45;&gt;Node10</title>
<g id="a_edge10_Node000009_Node000010"><a xlink:title=" ">
<path fill="none" stroke="#63b8ff" d="M468.47,-21.4C452.53,-20.36 435.23,-19.23 419.66,-18.21"/>
<polygon fill="#63b8ff" stroke="#63b8ff" points="473.83,-21.75 468.69,-23.67 471.33,-21.59 468.84,-21.43 468.84,-21.43 468.84,-21.43 471.33,-21.59 468.98,-19.18 473.83,-21.75 473.83,-21.75"/>
</a>
</g>
</g>
<!-- Node11&#45;&gt;Node4 -->
<g id="edge12_Node000011_Node000004" class="edge">
<title>Node11&#45;&gt;Node4</title>
<g id="a_edge12_Node000011_Node000004"><a xlink:title=" ">
<path fill="none" stroke="#63b8ff" d="M459.81,-116.82C449.62,-118.55 439.12,-120.34 429.06,-122.05"/>
<polygon fill="#63b8ff" stroke="#63b8ff" points="464.78,-115.98 460.23,-119.03 462.32,-116.4 459.85,-116.82 459.85,-116.82 459.85,-116.82 462.32,-116.4 459.48,-114.6 464.78,-115.98 464.78,-115.98"/>
</a>
</g>
</g>
</g>
</svg>
