<?xml version="1.0" encoding="UTF-8" standalone="no"?>
<!DOCTYPE svg PUBLIC "-//W3C//DTD SVG 1.1//EN"
 "http://www.w3.org/Graphics/SVG/1.1/DTD/svg11.dtd">
<!-- Generated by graphviz version 2.43.0 (0)
 -->
<!-- Title: common/sfmt/SFMT&#45;params.h Pages: 1 -->
<svg width="608pt" height="192pt"
 viewBox="0.00 0.00 608.00 192.00" xmlns="http://www.w3.org/2000/svg" xmlns:xlink="http://www.w3.org/1999/xlink">
<g id="graph0" class="graph" transform="scale(1 1) rotate(0) translate(4 188)">
<title>common/sfmt/SFMT&#45;params.h</title>
<!-- Node1 -->
<g id="Node000001" class="node">
<title>Node1</title>
<g id="a_Node000001"><a xlink:title=" ">
<polygon fill="#999999" stroke="#666666" points="164,-184 0,-184 0,-165 164,-165 164,-184"/>
<text text-anchor="middle" x="82" y="-172" font-family="Helvetica,sans-Serif" font-size="10.00">common/sfmt/SFMT&#45;params.h</text>
</a>
</g>
</g>
<!-- Node2 -->
<g id="Node000002" class="node">
<title>Node2</title>
<g id="a_Node000002"><a xlink:href="../../d3/d57/SFMT_8c.html" target="_top" xlink:title="SIMD oriented Fast Mersenne Twister(SFMT)">
<polygon fill="white" stroke="#666666" points="127,-19 5,-19 5,0 127,0 127,-19"/>
<text text-anchor="middle" x="66" y="-7" font-family="Helvetica,sans-Serif" font-size="10.00">common/sfmt/SFMT.c</text>
</a>
</g>
</g>
<!-- Node1&#45;&gt;Node2 -->
<g id="edge1_Node000001_Node000002" class="edge">
<title>Node1&#45;&gt;Node2</title>
<g id="a_edge1_Node000001_Node000002"><a xlink:title=" ">
<path fill="none" stroke="#63b8ff" d="M80.63,-159.57C77.43,-126.91 69.5,-46.12 66.86,-19.31"/>
<polygon fill="#63b8ff" stroke="#63b8ff" points="81.14,-164.74 78.41,-159.98 80.9,-162.25 80.65,-159.76 80.65,-159.76 80.65,-159.76 80.9,-162.25 82.89,-159.54 81.14,-164.74 81.14,-164.74"/>
</a>
</g>
</g>
<!-- Node3 -->
<g id="Node000003" class="node">
<title>Node3</title>
<g id="a_Node000003"><a xlink:href="../../d4/de7/SFMT_8h.html" target="_top" xlink:title="SIMD oriented Fast Mersenne Twister(SFMT) pseudorandom number generator using C structure.">
<polygon fill="white" stroke="#666666" points="218.5,-129 95.5,-129 95.5,-110 218.5,-110 218.5,-129"/>
<text text-anchor="middle" x="157" y="-117" font-family="Helvetica,sans-Serif" font-size="10.00">common/sfmt/SFMT.h</text>
</a>
</g>
</g>
<!-- Node1&#45;&gt;Node3 -->
<g id="edge2_Node000001_Node000003" class="edge">
<title>Node1&#45;&gt;Node3</title>
<g id="a_edge2_Node000001_Node000003"><a xlink:title=" ">
<path fill="none" stroke="#63b8ff" d="M98.18,-162.06C112.15,-152.19 132.04,-138.14 144.73,-129.17"/>
<polygon fill="#63b8ff" stroke="#63b8ff" points="94.05,-164.98 96.83,-160.26 96.09,-163.54 98.13,-162.1 98.13,-162.1 98.13,-162.1 96.09,-163.54 99.43,-163.94 94.05,-164.98 94.05,-164.98"/>
</a>
</g>
</g>
<!-- Node3&#45;&gt;Node2 -->
<g id="edge9_Node000003_Node000002" class="edge">
<title>Node3&#45;&gt;Node2</title>
<g id="a_edge9_Node000003_Node000002"><a xlink:title=" ">
<path fill="none" stroke="#63b8ff" d="M135.68,-107.41C122.28,-99.56 105.43,-87.97 94,-74 80.12,-57.03 71.82,-32.09 68.19,-19.1"/>
<polygon fill="#63b8ff" stroke="#63b8ff" points="140.08,-109.93 134.62,-109.4 137.91,-108.69 135.74,-107.44 135.74,-107.44 135.74,-107.44 137.91,-108.69 136.86,-105.49 140.08,-109.93 140.08,-109.93"/>
</a>
</g>
</g>
<!-- Node4 -->
<g id="Node000004" class="node">
<title>Node4</title>
<g id="a_Node000004"><a xlink:href="../../d3/dfe/rng__sfmt_8h.html" target="_top" xlink:title=" ">
<polygon fill="white" stroke="#666666" points="423.5,-74 308.5,-74 308.5,-55 423.5,-55 423.5,-74"/>
<text text-anchor="middle" x="366" y="-62" font-family="Helvetica,sans-Serif" font-size="10.00">common/rng_sfmt.h</text>
</a>
</g>
</g>
<!-- Node3&#45;&gt;Node4 -->
<g id="edge3_Node000003_Node000004" class="edge">
<title>Node3&#45;&gt;Node4</title>
<g id="a_edge3_Node000003_Node000004"><a xlink:title=" ">
<path fill="none" stroke="#63b8ff" d="M195.73,-108.68C234.89,-98.75 294.84,-83.55 332.16,-74.08"/>
<polygon fill="#63b8ff" stroke="#63b8ff" points="190.58,-109.98 194.87,-106.57 193,-109.37 195.43,-108.76 195.43,-108.76 195.43,-108.76 193,-109.37 195.98,-110.94 190.58,-109.98 190.58,-109.98"/>
</a>
</g>
</g>
<!-- Node8 -->
<g id="Node000008" class="node">
<title>Node8</title>
<g id="a_Node000008"><a xlink:href="../../d8/d7c/SFMT-common_8h.html" target="_top" xlink:title="SIMD oriented Fast Mersenne Twister(SFMT) pseudorandom number generator with jump function....">
<polygon fill="white" stroke="#666666" points="273,-74 103,-74 103,-55 273,-55 273,-74"/>
<text text-anchor="middle" x="188" y="-62" font-family="Helvetica,sans-Serif" font-size="10.00">common/sfmt/SFMT&#45;common.h</text>
</a>
</g>
</g>
<!-- Node3&#45;&gt;Node8 -->
<g id="edge7_Node000003_Node000008" class="edge">
<title>Node3&#45;&gt;Node8</title>
<g id="a_edge7_Node000003_Node000008"><a xlink:title=" ">
<path fill="none" stroke="#63b8ff" d="M164.75,-105.25C170.45,-95.5 178.04,-82.52 182.98,-74.09"/>
<polygon fill="#63b8ff" stroke="#63b8ff" points="162.12,-109.75 162.7,-104.3 163.38,-107.59 164.64,-105.43 164.64,-105.43 164.64,-105.43 163.38,-107.59 166.59,-106.57 162.12,-109.75 162.12,-109.75"/>
</a>
</g>
</g>
<!-- Node5 -->
<g id="Node000005" class="node">
<title>Node5</title>
<g id="a_Node000005"><a xlink:href="../../df/d0a/main_8cpp.html" target="_top" xlink:title=" ">
<polygon fill="white" stroke="#666666" points="276.5,-19 145.5,-19 145.5,0 276.5,0 276.5,-19"/>
<text text-anchor="middle" x="211" y="-7" font-family="Helvetica,sans-Serif" font-size="10.00">cockatrice/src/main.cpp</text>
</a>
</g>
</g>
<!-- Node4&#45;&gt;Node5 -->
<g id="edge4_Node000004_Node000005" class="edge">
<title>Node4&#45;&gt;Node5</title>
<g id="a_edge4_Node000004_Node000005"><a xlink:title=" ">
<path fill="none" stroke="#63b8ff" d="M336.21,-53.31C307.15,-43.38 263.44,-28.43 236.1,-19.08"/>
<polygon fill="#63b8ff" stroke="#63b8ff" points="341.1,-54.98 335.64,-55.5 338.73,-54.18 336.37,-53.37 336.37,-53.37 336.37,-53.37 338.73,-54.18 337.09,-51.24 341.1,-54.98 341.1,-54.98"/>
</a>
</g>
</g>
<!-- Node6 -->
<g id="Node000006" class="node">
<title>Node6</title>
<g id="a_Node000006"><a xlink:href="../../dc/df0/passwordhasher_8cpp.html" target="_top" xlink:title=" ">
<polygon fill="white" stroke="#666666" points="455.5,-19 294.5,-19 294.5,0 455.5,0 455.5,-19"/>
<text text-anchor="middle" x="375" y="-7" font-family="Helvetica,sans-Serif" font-size="10.00">common/passwordhasher.cpp</text>
</a>
</g>
</g>
<!-- Node4&#45;&gt;Node6 -->
<g id="edge5_Node000004_Node000006" class="edge">
<title>Node4&#45;&gt;Node6</title>
<g id="a_edge5_Node000004_Node000006"><a xlink:title=" ">
<path fill="none" stroke="#63b8ff" d="M368.34,-49.72C369.99,-40.03 372.14,-27.37 373.54,-19.09"/>
<polygon fill="#63b8ff" stroke="#63b8ff" points="367.49,-54.75 366.11,-49.44 367.9,-52.28 368.32,-49.82 368.32,-49.82 368.32,-49.82 367.9,-52.28 370.54,-50.2 367.49,-54.75 367.49,-54.75"/>
</a>
</g>
</g>
<!-- Node7 -->
<g id="Node000007" class="node">
<title>Node7</title>
<g id="a_Node000007"><a xlink:href="../../d6/d7d/rng__sfmt_8cpp.html" target="_top" xlink:title=" ">
<polygon fill="white" stroke="#666666" points="600,-19 474,-19 474,0 600,0 600,-19"/>
<text text-anchor="middle" x="537" y="-7" font-family="Helvetica,sans-Serif" font-size="10.00">common/rng_sfmt.cpp</text>
</a>
</g>
</g>
<!-- Node4&#45;&gt;Node7 -->
<g id="edge6_Node000004_Node000007" class="edge">
<title>Node4&#45;&gt;Node7</title>
<g id="a_edge6_Node000004_Node000007"><a xlink:title=" ">
<path fill="none" stroke="#63b8ff" d="M398.47,-53.44C430.53,-43.5 479.02,-28.47 509.31,-19.08"/>
<polygon fill="#63b8ff" stroke="#63b8ff" points="393.47,-54.98 397.58,-51.36 395.86,-54.24 398.25,-53.5 398.25,-53.5 398.25,-53.5 395.86,-54.24 398.92,-55.65 393.47,-54.98 393.47,-54.98"/>
</a>
</g>
</g>
<!-- Node8&#45;&gt;Node2 -->
<g id="edge8_Node000008_Node000002" class="edge">
<title>Node8&#45;&gt;Node2</title>
<g id="a_edge8_Node000008_Node000002"><a xlink:title=" ">
<path fill="none" stroke="#63b8ff" d="M163.71,-52.95C140.91,-43.04 107.23,-28.41 85.96,-19.17"/>
<polygon fill="#63b8ff" stroke="#63b8ff" points="168.4,-54.98 162.92,-55.06 166.11,-53.99 163.81,-52.99 163.81,-52.99 163.81,-52.99 166.11,-53.99 164.71,-50.93 168.4,-54.98 168.4,-54.98"/>
</a>
</g>
</g>
</g>
</svg>
