<?xml version="1.0" encoding="UTF-8" standalone="no"?>
<!DOCTYPE svg PUBLIC "-//W3C//DTD SVG 1.1//EN"
 "http://www.w3.org/Graphics/SVG/1.1/DTD/svg11.dtd">
<!-- Generated by graphviz version 2.43.0 (0)
 -->
<!-- Title: VisualDeckStorageSortFilterProxyModel::updateColorMatches Pages: 1 -->
<svg width="392pt" height="94pt"
 viewBox="0.00 0.00 392.00 93.50" xmlns="http://www.w3.org/2000/svg" xmlns:xlink="http://www.w3.org/1999/xlink">
<g id="page0,1_graph0" class="graph" transform="scale(1 1) rotate(0) translate(4 89.5)">
<title>VisualDeckStorageSortFilterProxyModel::updateColorMatches</title>
<!-- Node1 -->
<g id="Node000001" class="node">
<title>Node1</title>
<g id="a_Node000001"><a xlink:title=" ">
<polygon fill="#999999" stroke="#666666" points="181,-51 0,-51 0,-21 181,-21 181,-51"/>
<text text-anchor="start" x="8" y="-39" font-family="Helvetica,sans-Serif" font-size="10.00">VisualDeckStorageSortFilter</text>
<text text-anchor="middle" x="90.5" y="-28" font-family="Helvetica,sans-Serif" font-size="10.00">ProxyModel::updateColorMatches</text>
</a>
</g>
</g>
<!-- Node2 -->
<g id="Node000002" class="node">
<title>Node2</title>
<g id="a_Node000002"><a xlink:href="../../dc/d9b/visual__deck__storage__sort__filter__proxy__model_8cpp.html#a6fdc05c3f85c2500ae59d76a2bc8cf22" target="_top" xlink:title="Whether an identity string matches the active color&#45;identity filter.">
<polygon fill="white" stroke="#666666" points="360,-67.5 241,-67.5 241,-48.5 360,-48.5 360,-67.5"/>
<text text-anchor="middle" x="300.5" y="-55.5" font-family="Helvetica,sans-Serif" font-size="10.00">colorIdentityMatches</text>
</a>
</g>
</g>
<!-- Node1&#45;&gt;Node2 -->
<g id="edge1_Node000001_Node000002" class="edge">
<title>Node1&#45;&gt;Node2</title>
<g id="a_edge1_Node000001_Node000002"><a xlink:title=" ">
<path fill="none" stroke="#63b8ff" d="M181.22,-45.49C199.55,-47.43 218.49,-49.43 235.7,-51.25"/>
<polygon fill="#63b8ff" stroke="#63b8ff" points="240.98,-51.81 235.77,-53.52 238.49,-51.55 236,-51.28 236,-51.28 236,-51.28 238.49,-51.55 236.24,-49.05 240.98,-51.81 240.98,-51.81"/>
</a>
</g>
</g>
<!-- Node3 -->
<g id="Node000003" class="node">
<title>Node3</title>
<g id="a_Node000003"><a xlink:href="../../df/d53/classVisualDeckStorageSortFilterProxyModel.html#a7c1c2a831de83f362a2466b32122e034" target="_top" xlink:title=" ">
<polygon fill="white" stroke="#666666" points="384,-30 217,-30 217,0 384,0 384,-30"/>
<text text-anchor="start" x="225" y="-18" font-family="Helvetica,sans-Serif" font-size="10.00">VisualDeckStorageSortFilter</text>
<text text-anchor="middle" x="300.5" y="-7" font-family="Helvetica,sans-Serif" font-size="10.00">ProxyModel::deckSourceModel</text>
</a>
</g>
</g>
<!-- Node1&#45;&gt;Node3 -->
<g id="edge3_Node000001_Node000003" class="edge">
<title>Node1&#45;&gt;Node3</title>
<g id="a_edge3_Node000001_Node000003"><a xlink:title=" ">
<path fill="none" stroke="#63b8ff" d="M181.22,-26.94C191.42,-25.91 201.82,-24.86 211.99,-23.83"/>
<polygon fill="#63b8ff" stroke="#63b8ff" points="216.97,-23.33 212.22,-26.07 214.48,-23.58 211.99,-23.83 211.99,-23.83 211.99,-23.83 214.48,-23.58 211.77,-21.6 216.97,-23.33 216.97,-23.33"/>
</a>
</g>
</g>
<!-- Node2&#45;&gt;Node2 -->
<g id="edge2_Node000002_Node000002" class="edge">
<title>Node2&#45;&gt;Node2</title>
<g id="a_edge2_Node000002_Node000002"><a xlink:title=" ">
<path fill="none" stroke="#63b8ff" d="M268.13,-67.58C252.39,-76.23 263.18,-85.5 300.5,-85.5 333.74,-85.5 345.94,-78.15 337.08,-70.43"/>
<polygon fill="#63b8ff" stroke="#63b8ff" points="332.87,-67.58 338.27,-68.52 334.94,-68.98 337.01,-70.38 337.01,-70.38 337.01,-70.38 334.94,-68.98 335.75,-72.25 332.87,-67.58 332.87,-67.58"/>
</a>
</g>
</g>
</g>
</svg>
