<?xml version="1.0" encoding="UTF-8" standalone="no"?>
<!DOCTYPE svg PUBLIC "-//W3C//DTD SVG 1.1//EN"
 "http://www.w3.org/Graphics/SVG/1.1/DTD/svg11.dtd">
<!-- Generated by graphviz version 2.43.0 (0)
 -->
<!-- Title: cockatrice/src/game/board/arrow_target.h Pages: 1 -->
<svg width="204pt" height="170pt"
 viewBox="0.00 0.00 204.00 170.00" xmlns="http://www.w3.org/2000/svg" xmlns:xlink="http://www.w3.org/1999/xlink">
<g id="graph0" class="graph" transform="scale(1 1) rotate(0) translate(4 166)">
<title>cockatrice/src/game/board/arrow_target.h</title>
<!-- Node1 -->
<g id="Node000001" class="node">
<title>Node1</title>
<g id="a_Node000001"><a xlink:title="TODO: Document this.">
<polygon fill="#999999" stroke="#666666" points="182.5,-162 60.5,-162 60.5,-132 182.5,-132 182.5,-162"/>
<text text-anchor="start" x="68.5" y="-150" font-family="Helvetica,sans-Serif" font-size="10.00">cockatrice/src/game</text>
<text text-anchor="middle" x="121.5" y="-139" font-family="Helvetica,sans-Serif" font-size="10.00">/board/arrow_target.h</text>
</a>
</g>
</g>
<!-- Node2 -->
<g id="Node000002" class="node">
<title>Node2</title>
<g id="a_Node000002"><a xlink:href="../../d5/d21/abstract__graphics__item_8h.html" target="_top" xlink:title="TODO: Document this.">
<polygon fill="white" stroke="#666666" points="137,-96 0,-96 0,-55 137,-55 137,-96"/>
<text text-anchor="start" x="8" y="-84" font-family="Helvetica,sans-Serif" font-size="10.00">../../game_graphics</text>
<text text-anchor="start" x="8" y="-73" font-family="Helvetica,sans-Serif" font-size="10.00">/board/abstract_graphics</text>
<text text-anchor="middle" x="68.5" y="-62" font-family="Helvetica,sans-Serif" font-size="10.00">_item.h</text>
</a>
</g>
</g>
<!-- Node1&#45;&gt;Node2 -->
<g id="edge1_Node000001_Node000002" class="edge">
<title>Node1&#45;&gt;Node2</title>
<g id="a_edge1_Node000001_Node000002"><a xlink:title=" ">
<path fill="none" stroke="#63b8ff" d="M110.77,-131.94C103.83,-122.83 94.62,-110.75 86.56,-100.19"/>
<polygon fill="#63b8ff" stroke="#63b8ff" points="83.43,-96.07 88.25,-98.68 84.94,-98.06 86.46,-100.05 86.46,-100.05 86.46,-100.05 84.94,-98.06 84.67,-101.41 83.43,-96.07 83.43,-96.07"/>
</a>
</g>
</g>
<!-- Node4 -->
<g id="Node000004" class="node">
<title>Node4</title>
<g id="a_Node000004"><a xlink:title=" ">
<polygon fill="#e0e0e0" stroke="#999999" points="196,-85 155,-85 155,-66 196,-66 196,-85"/>
<text text-anchor="middle" x="175.5" y="-73" font-family="Helvetica,sans-Serif" font-size="10.00">QList</text>
</a>
</g>
</g>
<!-- Node1&#45;&gt;Node4 -->
<g id="edge3_Node000001_Node000004" class="edge">
<title>Node1&#45;&gt;Node4</title>
<g id="a_edge3_Node000001_Node000004"><a xlink:title=" ">
<path fill="none" stroke="#63b8ff" d="M132.43,-131.94C142.09,-119.5 156.07,-101.51 165.45,-89.43"/>
<polygon fill="#63b8ff" stroke="#63b8ff" points="168.69,-85.27 167.4,-90.6 167.15,-87.24 165.62,-89.22 165.62,-89.22 165.62,-89.22 167.15,-87.24 163.84,-87.83 168.69,-85.27 168.69,-85.27"/>
</a>
</g>
</g>
<!-- Node3 -->
<g id="Node000003" class="node">
<title>Node3</title>
<g id="a_Node000003"><a xlink:title=" ">
<polygon fill="#e0e0e0" stroke="#999999" points="113,-19 24,-19 24,0 113,0 113,-19"/>
<text text-anchor="middle" x="68.5" y="-7" font-family="Helvetica,sans-Serif" font-size="10.00">QGraphicsItem</text>
</a>
</g>
</g>
<!-- Node2&#45;&gt;Node3 -->
<g id="edge2_Node000002_Node000003" class="edge">
<title>Node2&#45;&gt;Node3</title>
<g id="a_edge2_Node000002_Node000003"><a xlink:title=" ">
<path fill="none" stroke="#63b8ff" d="M68.5,-54.95C68.5,-45.09 68.5,-33.35 68.5,-24.42"/>
<polygon fill="#63b8ff" stroke="#63b8ff" points="68.5,-19.26 70.75,-24.26 68.5,-21.76 68.5,-24.26 68.5,-24.26 68.5,-24.26 68.5,-21.76 66.25,-24.26 68.5,-19.26 68.5,-19.26"/>
</a>
</g>
</g>
</g>
</svg>
