<?xml version="1.0" encoding="UTF-8" standalone="no"?>
<!DOCTYPE svg PUBLIC "-//W3C//DTD SVG 1.1//EN"
 "http://www.w3.org/Graphics/SVG/1.1/DTD/svg11.dtd">
<!-- Generated by graphviz version 2.43.0 (0)
 -->
<!-- Title: DlgUpdate::cancelDownload Pages: 1 -->
<svg width="390pt" height="113pt"
 viewBox="0.00 0.00 390.00 112.50" xmlns="http://www.w3.org/2000/svg" xmlns:xlink="http://www.w3.org/1999/xlink">
<g id="graph0" class="graph" transform="scale(1 1) rotate(0) translate(4 108.5)">
<title>DlgUpdate::cancelDownload</title>
<!-- Node1 -->
<g id="Node000001" class="node">
<title>Node1</title>
<g id="a_Node000001"><a xlink:title=" ">
<polygon fill="#999999" stroke="#666666" points="155,-56 0,-56 0,-37 155,-37 155,-56"/>
<text text-anchor="middle" x="77.5" y="-44" font-family="Helvetica,sans-Serif" font-size="10.00">DlgUpdate::cancelDownload</text>
</a>
</g>
</g>
<!-- Node2 -->
<g id="Node000002" class="node">
<title>Node2</title>
<g id="a_Node000002"><a xlink:href="../../d8/d3f/classDlgUpdate.html#ae94d3ec65a0e5c74eb47db7ca0192dec" target="_top" xlink:title=" ">
<polygon fill="white" stroke="#666666" points="368,-104.5 205,-104.5 205,-74.5 368,-74.5 368,-104.5"/>
<text text-anchor="start" x="213" y="-92.5" font-family="Helvetica,sans-Serif" font-size="10.00">DlgUpdate::addStopDownload</text>
<text text-anchor="middle" x="286.5" y="-81.5" font-family="Helvetica,sans-Serif" font-size="10.00">AndRemoveOthers</text>
</a>
</g>
</g>
<!-- Node1&#45;&gt;Node2 -->
<g id="edge1_Node000001_Node000002" class="edge">
<title>Node1&#45;&gt;Node2</title>
<g id="a_edge1_Node000001_Node000002"><a xlink:title=" ">
<path fill="none" stroke="#63b8ff" d="M124.44,-56.04C149,-61.14 179.89,-67.56 208.04,-73.41"/>
<polygon fill="#63b8ff" stroke="#63b8ff" points="213.26,-74.49 207.91,-75.68 210.81,-73.99 208.36,-73.48 208.36,-73.48 208.36,-73.48 210.81,-73.99 208.82,-71.27 213.26,-74.49 213.26,-74.49"/>
</a>
</g>
</g>
<!-- Node3 -->
<g id="Node000003" class="node">
<title>Node3</title>
<g id="a_Node000003"><a xlink:href="../../d8/d3f/classDlgUpdate.html#a6312e1364e1541e47fe7e5f4b907b270" target="_top" xlink:title=" ">
<polygon fill="white" stroke="#666666" points="382,-56 191,-56 191,-37 382,-37 382,-56"/>
<text text-anchor="middle" x="286.5" y="-44" font-family="Helvetica,sans-Serif" font-size="10.00">DlgUpdate::downloadProgressMade</text>
</a>
</g>
</g>
<!-- Node1&#45;&gt;Node3 -->
<g id="edge2_Node000001_Node000003" class="edge">
<title>Node1&#45;&gt;Node3</title>
<g id="a_edge2_Node000001_Node000003"><a xlink:title=" ">
<path fill="none" stroke="#63b8ff" d="M155.28,-46.5C165.27,-46.5 175.61,-46.5 185.91,-46.5"/>
<polygon fill="#63b8ff" stroke="#63b8ff" points="190.95,-46.5 185.95,-48.75 188.45,-46.5 185.95,-46.5 185.95,-46.5 185.95,-46.5 188.45,-46.5 185.95,-44.25 190.95,-46.5 190.95,-46.5"/>
</a>
</g>
</g>
<!-- Node4 -->
<g id="Node000004" class="node">
<title>Node4</title>
<g id="a_Node000004"><a xlink:href="../../d8/d3f/classDlgUpdate.html#a562c49fa907a84853f3da579f4ad5637" target="_top" xlink:title=" ">
<polygon fill="white" stroke="#666666" points="344.5,-19 228.5,-19 228.5,0 344.5,0 344.5,-19"/>
<text text-anchor="middle" x="286.5" y="-7" font-family="Helvetica,sans-Serif" font-size="10.00">DlgUpdate::setLabel</text>
</a>
</g>
</g>
<!-- Node1&#45;&gt;Node4 -->
<g id="edge3_Node000001_Node000004" class="edge">
<title>Node1&#45;&gt;Node4</title>
<g id="a_edge3_Node000001_Node000004"><a xlink:title=" ">
<path fill="none" stroke="#63b8ff" d="M131.81,-36.97C160.91,-31.77 197,-25.32 226.89,-19.98"/>
<polygon fill="#63b8ff" stroke="#63b8ff" points="232.01,-19.06 227.49,-22.16 229.55,-19.5 227.09,-19.94 227.09,-19.94 227.09,-19.94 229.55,-19.5 226.7,-17.73 232.01,-19.06 232.01,-19.06"/>
</a>
</g>
</g>
</g>
</svg>
