<?xml version="1.0" encoding="UTF-8" standalone="no"?>
<!DOCTYPE svg PUBLIC "-//W3C//DTD SVG 1.1//EN"
 "http://www.w3.org/Graphics/SVG/1.1/DTD/svg11.dtd">
<!-- Generated by graphviz version 2.43.0 (0)
 -->
<!-- Title: ZipPrivate::createArchive Pages: 1 -->
<!--zoomable 64 -->

<svg id="main" version="1.1" xmlns="http://www.w3.org/2000/svg" xmlns:xlink="http://www.w3.org/1999/xlink" xml:space="preserve" onload="init(evt)">
<style type="text/css"><![CDATA[
.node, .edge {opacity: 0.7;}
.node.selected, .edge.selected {opacity: 1;}
.edge:hover path { stroke: red; }
.edge:hover polygon { stroke: red; fill: red; }
]]></style>

<defs>
  <circle id="rim" cx="0" cy="0" r="7"/>
  <circle id="rim2" cx="0" cy="0" r="3.5"/>
  <g id="zoomPlus">
    <use xlink:href="#rim" fill="#404040"><set attributeName="fill" to="#808080" begin="zoomplus.mouseover" end="zoomplus.mouseout"/></use>
    <path d="M-4,0h8M0,-4v8" fill="none" stroke="white" stroke-width="1.5" pointer-events="none"/>
  </g>
  <g id="zoomMin">
    <use xlink:href="#rim" fill="#404040"><set attributeName="fill" to="#808080" begin="zoomminus.mouseover" end="zoomminus.mouseout"/></use>
    <path d="M-4,0h8" fill="none" stroke="white" stroke-width="1.5" pointer-events="none"/>
  </g>
  <g id="arrowUp" transform="translate(30 24)">
    <use xlink:href="#rim"/>
    <path pointer-events="none" fill="none" stroke="white" stroke-width="1.5" d="M0,-3.0v7 M-2.5,-0.5L0,-3.0L2.5,-0.5"/>
  </g>
  <g id="arrowRight" transform="rotate(90) translate(36 -43)">
    <use xlink:href="#rim"/>
    <path pointer-events="none" fill="none" stroke="white" stroke-width="1.5" d="M0,-3.0v7 M-2.5,-0.5L0,-3.0L2.5,-0.5"/>
  </g>
  <g id="arrowDown" transform="rotate(180) translate(-30 -48)">
    <use xlink:href="#rim"/>
    <path pointer-events="none" fill="none" stroke="white" stroke-width="1.5" d="M0,-3.0v7 M-2.5,-0.5L0,-3.0L2.5,-0.5"/>
  </g>
  <g id="arrowLeft" transform="rotate(270) translate(-36 17)">
    <use xlink:href="#rim"/>
    <path pointer-events="none" fill="none" stroke="white" stroke-width="1.5" d="M0,-3.0v7 M-2.5,-0.5L0,-3.0L2.5,-0.5"/>
  </g>
  <g id="resetDef">
    <use xlink:href="#rim2" fill="#404040"><set attributeName="fill" to="#808080" begin="reset.mouseover" end="reset.mouseout"/></use>
  </g>
</defs>
<script type="application/ecmascript">
var viewWidth = 865;
var viewHeight = 64;
var sectionId = 'dynsection-13';
</script>
<script type="application/ecmascript" xlink:href="../../svg.min.js"/>
<svg id="graph" class="graph">
<g id="viewport">
<title>ZipPrivate::createArchive</title>
<!-- Node1 -->
<g id="Node000001" class="node">
<title>Node1</title>
<g id="a_Node000001"><a xlink:title=" ">
<polygon fill="#999999" stroke="#666666" points="140,-37 0,-37 0,-18 140,-18 140,-37"/>
<text text-anchor="middle" x="70" y="-25" font-family="Helvetica,sans-Serif" font-size="10.00">ZipPrivate::createArchive</text>
</a>
</g>
</g>
<!-- Node2 -->
<g id="Node000002" class="node">
<title>Node2</title>
<g id="a_Node000002"><a xlink:href="../../df/daf/classZipPrivate.html#ab22388c757de6671ec4c75dd12fe983a" target="_top" xlink:title=" ">
<polygon fill="white" stroke="#666666" points="321,-56 186,-56 186,-37 321,-37 321,-56"/>
<text text-anchor="middle" x="253.5" y="-44" font-family="Helvetica,sans-Serif" font-size="10.00">ZipPrivate::closeArchive</text>
</a>
</g>
</g>
<!-- Node1&#45;&gt;Node2 -->
<g id="edge1_Node000001_Node000002" class="edge">
<title>Node1&#45;&gt;Node2</title>
<g id="a_edge1_Node000001_Node000002"><a xlink:title=" ">
<path fill="none" stroke="#63b8ff" d="M140.14,-34.74C153.4,-36.13 167.32,-37.58 180.67,-38.98"/>
<polygon fill="#63b8ff" stroke="#63b8ff" points="185.95,-39.53 180.75,-41.25 183.47,-39.27 180.98,-39.01 180.98,-39.01 180.98,-39.01 183.47,-39.27 181.21,-36.78 185.95,-39.53 185.95,-39.53"/>
</a>
</g>
</g>
<!-- Node7 -->
<g id="Node000007" class="node">
<title>Node7</title>
<g id="a_Node000007"><a xlink:href="../../df/daf/classZipPrivate.html#ab9f7158e7c96663f14066cfb34a86d5e" target="_top" xlink:title=" ">
<polygon fill="white" stroke="#666666" points="331,-19 176,-19 176,0 331,0 331,-19"/>
<text text-anchor="middle" x="253.5" y="-7" font-family="Helvetica,sans-Serif" font-size="10.00">ZipPrivate::deviceDestroyed</text>
</a>
</g>
</g>
<!-- Node1&#45;&gt;Node7 -->
<g id="edge7_Node000001_Node000007" class="edge">
<title>Node1&#45;&gt;Node7</title>
<g id="a_edge7_Node000001_Node000007"><a xlink:title=" ">
<path fill="none" stroke="#63b8ff" d="M140.14,-20.64C150.21,-19.64 160.66,-18.61 170.95,-17.59"/>
<polygon fill="#63b8ff" stroke="#63b8ff" points="175.98,-17.09 171.23,-19.82 173.5,-17.34 171.01,-17.58 171.01,-17.58 171.01,-17.58 173.5,-17.34 170.79,-15.34 175.98,-17.09 175.98,-17.09"/>
</a>
</g>
</g>
<!-- Node3 -->
<g id="Node000003" class="node">
<title>Node3</title>
<g id="a_Node000003"><a xlink:href="../../df/daf/classZipPrivate.html#acb48bb06722651ca4914a18bafdcc1bd" target="_top" xlink:title=" ">
<polygon fill="white" stroke="#666666" points="519,-37 367,-37 367,-18 519,-18 519,-37"/>
<text text-anchor="middle" x="443" y="-25" font-family="Helvetica,sans-Serif" font-size="10.00">ZipPrivate::do_closeArchive</text>
</a>
</g>
</g>
<!-- Node2&#45;&gt;Node3 -->
<g id="edge2_Node000002_Node000003" class="edge">
<title>Node2&#45;&gt;Node3</title>
<g id="a_edge2_Node000002_Node000003"><a xlink:title=" ">
<path fill="none" stroke="#63b8ff" d="M321.13,-39.75C334.35,-38.41 348.36,-36.99 361.97,-35.61"/>
<polygon fill="#63b8ff" stroke="#63b8ff" points="366.96,-35.1 362.21,-37.85 364.48,-35.36 361.99,-35.61 361.99,-35.61 361.99,-35.61 364.48,-35.36 361.76,-33.37 366.96,-35.1 366.96,-35.1"/>
</a>
</g>
</g>
<!-- Node4 -->
<g id="Node000004" class="node">
<title>Node4</title>
<g id="a_Node000004"><a xlink:href="../../df/daf/classZipPrivate.html#a943f257c1c3f1268ba08bc41186a556b" target="_top" xlink:title=" ">
<polygon fill="white" stroke="#666666" points="702,-56 555,-56 555,-37 702,-37 702,-56"/>
<text text-anchor="middle" x="628.5" y="-44" font-family="Helvetica,sans-Serif" font-size="10.00">ZipPrivate::writeCentralDir</text>
</a>
</g>
</g>
<!-- Node3&#45;&gt;Node4 -->
<g id="edge3_Node000003_Node000004" class="edge">
<title>Node3&#45;&gt;Node4</title>
<g id="a_edge3_Node000003_Node000004"><a xlink:title=" ">
<path fill="none" stroke="#63b8ff" d="M519.17,-35.28C529.2,-36.32 539.5,-37.39 549.57,-38.43"/>
<polygon fill="#63b8ff" stroke="#63b8ff" points="554.82,-38.97 549.62,-40.7 552.33,-38.72 549.85,-38.46 549.85,-38.46 549.85,-38.46 552.33,-38.72 550.08,-36.22 554.82,-38.97 554.82,-38.97"/>
</a>
</g>
</g>
<!-- Node6 -->
<g id="Node000006" class="node">
<title>Node6</title>
<g id="a_Node000006"><a xlink:href="../../df/daf/classZipPrivate.html#a17d067c2ccc1358b032e90e1b84c1547" target="_top" xlink:title=" ">
<polygon fill="white" stroke="#666666" points="690,-19 567,-19 567,0 690,0 690,-19"/>
<text text-anchor="middle" x="628.5" y="-7" font-family="Helvetica,sans-Serif" font-size="10.00">ZipPrivate::writeEntry</text>
</a>
</g>
</g>
<!-- Node3&#45;&gt;Node6 -->
<g id="edge5_Node000003_Node000006" class="edge">
<title>Node3&#45;&gt;Node6</title>
<g id="a_edge5_Node000003_Node000006"><a xlink:title=" ">
<path fill="none" stroke="#63b8ff" d="M519.17,-20.13C533.27,-18.74 547.92,-17.31 561.71,-15.95"/>
<polygon fill="#63b8ff" stroke="#63b8ff" points="566.75,-15.46 561.99,-18.19 564.26,-15.7 561.77,-15.95 561.77,-15.95 561.77,-15.95 564.26,-15.7 561.55,-13.71 566.75,-15.46 566.75,-15.46"/>
</a>
</g>
</g>
<!-- Node5 -->
<g id="Node000005" class="node">
<title>Node5</title>
<g id="a_Node000005"><a xlink:href="../../df/daf/classZipPrivate.html#a4e2eef9add1867e0374254e76dddbaa8" target="_top" xlink:title=" ">
<polygon fill="white" stroke="#666666" points="857,-37 738,-37 738,-18 857,-18 857,-37"/>
<text text-anchor="middle" x="797.5" y="-25" font-family="Helvetica,sans-Serif" font-size="10.00">ZipPrivate::setULong</text>
</a>
</g>
</g>
<!-- Node4&#45;&gt;Node5 -->
<g id="edge4_Node000004_Node000005" class="edge">
<title>Node4&#45;&gt;Node5</title>
<g id="a_edge4_Node000004_Node000005"><a xlink:title=" ">
<path fill="none" stroke="#63b8ff" d="M702.26,-38.22C712.37,-37.07 722.69,-35.9 732.61,-34.77"/>
<polygon fill="#63b8ff" stroke="#63b8ff" points="737.76,-34.18 733.05,-36.98 735.28,-34.47 732.8,-34.75 732.8,-34.75 732.8,-34.75 735.28,-34.47 732.54,-32.51 737.76,-34.18 737.76,-34.18"/>
</a>
</g>
</g>
<!-- Node6&#45;&gt;Node5 -->
<g id="edge6_Node000006_Node000005" class="edge">
<title>Node6&#45;&gt;Node5</title>
<g id="a_edge6_Node000006_Node000005"><a xlink:title=" ">
<path fill="none" stroke="#63b8ff" d="M690.26,-16.05C704.05,-17.54 718.73,-19.12 732.65,-20.62"/>
<polygon fill="#63b8ff" stroke="#63b8ff" points="737.73,-21.17 732.52,-22.87 735.25,-20.9 732.76,-20.63 732.76,-20.63 732.76,-20.63 735.25,-20.9 733,-18.39 737.73,-21.17 737.73,-21.17"/>
</a>
</g>
</g>
<!-- Node7&#45;&gt;Node3 -->
<g id="edge8_Node000007_Node000003" class="edge">
<title>Node7&#45;&gt;Node3</title>
<g id="a_edge8_Node000007_Node000003"><a xlink:title=" ">
<path fill="none" stroke="#63b8ff" d="M331.03,-16.85C341.22,-17.82 351.68,-18.83 361.92,-19.81"/>
<polygon fill="#63b8ff" stroke="#63b8ff" points="366.92,-20.29 361.73,-22.05 364.44,-20.05 361.95,-19.81 361.95,-19.81 361.95,-19.81 364.44,-20.05 362.16,-17.58 366.92,-20.29 366.92,-20.29"/>
</a>
</g>
</g>
</g>
</svg>

<g id="navigator" transform="translate(0 0)" fill="#404254">
  <rect fill="#f2f5e9" fill-opacity="0.5" stroke="#606060" stroke-width=".5" x="0" y="0" width="60" height="60"/>
  <use id="zoomplus" xlink:href="#zoomPlus" x="17" y="9" onmousedown="handleZoom(evt,'in')"/>
  <use id="zoomminus" xlink:href="#zoomMin" x="42" y="9" onmousedown="handleZoom(evt,'out')"/>
  <use id="reset" xlink:href="#resetDef" x="30" y="36" onmousedown="handleReset()"/>
   <use id="arrowup" xlink:href="#arrowUp" x="0" y="0" onmousedown="handlePan(0,-1)"/>
  <use id="arrowright" xlink:href="#arrowRight" x="0" y="0" onmousedown="handlePan(1,0)"/>
  <use id="arrowdown" xlink:href="#arrowDown" x="0" y="0" onmousedown="handlePan(0,1)"/>
  <use id="arrowleft" xlink:href="#arrowLeft" x="0" y="0" onmousedown="handlePan(-1,0)"/>
</g>
<svg viewBox="0 0 15 15" width="100%" height="30px" preserveAspectRatio="xMaxYMin meet">
 <g id="arrow_out" transform="scale(0.3 0.3)">
  <a xlink:href="classZipPrivate_ac77ad001a035799f697b4c2ebbd38a00_cgraph_org.svg" target="_base">
   <rect id="button" ry="5" rx="5" y="6" x="6" height="38" width="38"
        fill="#f2f5e9" fill-opacity="0.5" stroke="#606060" stroke-width="1.0"/>
   <path id="arrow"
     d="M 11.500037,31.436501 C 11.940474,20.09759 22.043105,11.32322 32.158766,21.979434 L 37.068811,17.246167 C 37.068811,17.246167 37.088388,32 37.088388,32 L 22.160133,31.978069 C 22.160133,31.978069 26.997745,27.140456 26.997745,27.140456 C 18.528582,18.264221 13.291696,25.230495 11.500037,31.436501 z"
     style="fill:#404040;"/>
  </a>
 </g>
</svg>

<style type='text/css'>
<![CDATA[
[data-mouse-over-selected='false'] { opacity: 0.7; }
[data-mouse-over-selected='true']  { opacity: 1.0; }
]]>
</style>
<script type="application/ecmascript"><![CDATA[
document.addEventListener('DOMContentLoaded', (event) => {
  highlightEdges();
  highlightAdjacentNodes();
});
]]></script>
</svg>
