<?xml version="1.0" encoding="UTF-8" standalone="no"?>
<!DOCTYPE svg PUBLIC "-//W3C//DTD SVG 1.1//EN"
 "http://www.w3.org/Graphics/SVG/1.1/DTD/svg11.dtd">
<!-- Generated by graphviz version 2.43.0 (0)
 -->
<!-- Title: cockatrice/src/interface/widgets/deck_analytics/analyzer_modules/mana_distribution/mana_distribution_config_dialog.cpp Pages: 1 -->
<!--zoomable 236 -->

<svg id="main" version="1.1" xmlns="http://www.w3.org/2000/svg" xmlns:xlink="http://www.w3.org/1999/xlink" xml:space="preserve" onload="init(evt)">

<style type="text/css"><![CDATA[
.node, .edge {opacity: 0.7;}
.node.selected, .edge.selected {opacity: 1;}
.edge:hover path { stroke: red; }
.edge:hover polygon { stroke: red; fill: red; }
]]></style>

<defs>
  <circle id="rim" cx="0" cy="0" r="7"/>
  <circle id="rim2" cx="0" cy="0" r="3.5"/>
  <g id="zoomPlus">
    <use xlink:href="#rim" fill="#404040"><set attributeName="fill" to="#808080" begin="zoomplus.mouseover" end="zoomplus.mouseout"/></use>
    <path d="M-4,0h8M0,-4v8" fill="none" stroke="white" stroke-width="1.5" pointer-events="none"/>
  </g>
  <g id="zoomMin">
    <use xlink:href="#rim" fill="#404040"><set attributeName="fill" to="#808080" begin="zoomminus.mouseover" end="zoomminus.mouseout"/></use>
    <path d="M-4,0h8" fill="none" stroke="white" stroke-width="1.5" pointer-events="none"/>
  </g>
  <g id="arrowUp" transform="translate(30 24)">
    <use xlink:href="#rim"/>
    <path pointer-events="none" fill="none" stroke="white" stroke-width="1.5" d="M0,-3.0v7 M-2.5,-0.5L0,-3.0L2.5,-0.5"/>
  </g>
  <g id="arrowRight" transform="rotate(90) translate(36 -43)">
    <use xlink:href="#rim"/>
    <path pointer-events="none" fill="none" stroke="white" stroke-width="1.5" d="M0,-3.0v7 M-2.5,-0.5L0,-3.0L2.5,-0.5"/>
  </g>
  <g id="arrowDown" transform="rotate(180) translate(-30 -48)">
    <use xlink:href="#rim"/>
    <path pointer-events="none" fill="none" stroke="white" stroke-width="1.5" d="M0,-3.0v7 M-2.5,-0.5L0,-3.0L2.5,-0.5"/>
  </g>
  <g id="arrowLeft" transform="rotate(270) translate(-36 17)">
    <use xlink:href="#rim"/>
    <path pointer-events="none" fill="none" stroke="white" stroke-width="1.5" d="M0,-3.0v7 M-2.5,-0.5L0,-3.0L2.5,-0.5"/>
  </g>
  <g id="resetDef">
    <use xlink:href="#rim2" fill="#404040"><set attributeName="fill" to="#808080" begin="reset.mouseover" end="reset.mouseout"/></use>
  </g>
</defs>
<script type="application/ecmascript">
var viewWidth = 884;
var viewHeight = 236;
var sectionId = 'dynsection-0';
</script>
<script type="application/ecmascript" xlink:href="../../svg.min.js"/>
<svg id="graph" class="graph">
<g id="viewport">
<title>cockatrice/src/interface/widgets/deck_analytics/analyzer_modules/mana_distribution/mana_distribution_config_dialog.cpp</title>
<!-- Node1 -->
<g id="Node000001" class="node">
<title>Node1</title>
<g id="a_Node000001"><a xlink:title=" ">
<polygon fill="#999999" stroke="#666666" points="648.5,-228 448.5,-228 448.5,-176 648.5,-176 648.5,-228"/>
<text text-anchor="start" x="456.5" y="-216" font-family="Helvetica,sans-Serif" font-size="10.00">cockatrice/src/interface</text>
<text text-anchor="start" x="456.5" y="-205" font-family="Helvetica,sans-Serif" font-size="10.00">/widgets/deck_analytics</text>
<text text-anchor="start" x="456.5" y="-194" font-family="Helvetica,sans-Serif" font-size="10.00">/analyzer_modules/mana_distribution</text>
<text text-anchor="middle" x="548.5" y="-183" font-family="Helvetica,sans-Serif" font-size="10.00">/mana_distribution_config_dialog.cpp</text>
</a>
</g>
</g>
<!-- Node2 -->
<g id="Node000002" class="node">
<title>Node2</title>
<g id="a_Node000002"><a xlink:href="../../d2/d9f/mana__distribution__config__dialog_8h.html" target="_top" xlink:title=" ">
<polygon fill="white" stroke="#666666" points="416.5,-140 276.5,-140 276.5,-110 416.5,-110 416.5,-140"/>
<text text-anchor="start" x="284.5" y="-128" font-family="Helvetica,sans-Serif" font-size="10.00">mana_distribution_config</text>
<text text-anchor="middle" x="346.5" y="-117" font-family="Helvetica,sans-Serif" font-size="10.00">_dialog.h</text>
</a>
</g>
</g>
<!-- Node1&#45;&gt;Node2 -->
<g id="edge1_Node000001_Node000002" class="edge">
<title>Node1&#45;&gt;Node2</title>
<g id="a_edge1_Node000001_Node000002"><a xlink:title=" ">
<path fill="none" stroke="#63b8ff" d="M480.96,-175.92C450.62,-164.66 415.73,-151.71 389.1,-141.82"/>
<polygon fill="#63b8ff" stroke="#63b8ff" points="384.23,-140.01 389.7,-139.64 386.57,-140.88 388.92,-141.75 388.92,-141.75 388.92,-141.75 386.57,-140.88 388.13,-143.86 384.23,-140.01 384.23,-140.01"/>
</a>
</g>
</g>
<!-- Node9 -->
<g id="Node000009" class="node">
<title>Node9</title>
<g id="a_Node000009"><a xlink:title=" ">
<polygon fill="#e0e0e0" stroke="#999999" points="499,-74 392,-74 392,-55 499,-55 499,-74"/>
<text text-anchor="middle" x="445.5" y="-62" font-family="Helvetica,sans-Serif" font-size="10.00">QDialogButtonBox</text>
</a>
</g>
</g>
<!-- Node1&#45;&gt;Node9 -->
<g id="edge13_Node000001_Node000009" class="edge">
<title>Node1&#45;&gt;Node9</title>
<g id="a_edge13_Node000001_Node000009"><a xlink:title=" ">
<path fill="none" stroke="#63b8ff" d="M525.34,-175.77C515.78,-165.01 504.79,-152.14 495.5,-140 479.54,-119.15 462.92,-93.46 453.43,-78.34"/>
<polygon fill="#63b8ff" stroke="#63b8ff" points="450.72,-74 455.28,-77.05 452.05,-76.12 453.37,-78.24 453.37,-78.24 453.37,-78.24 452.05,-76.12 451.46,-79.44 450.72,-74 450.72,-74"/>
</a>
</g>
</g>
<!-- Node10 -->
<g id="Node000010" class="node">
<title>Node10</title>
<g id="a_Node000010"><a xlink:title=" ">
<polygon fill="#e0e0e0" stroke="#999999" points="567.5,-74 517.5,-74 517.5,-55 567.5,-55 567.5,-74"/>
<text text-anchor="middle" x="542.5" y="-62" font-family="Helvetica,sans-Serif" font-size="10.00">QLabel</text>
</a>
</g>
</g>
<!-- Node1&#45;&gt;Node10 -->
<g id="edge14_Node000001_Node000010" class="edge">
<title>Node1&#45;&gt;Node10</title>
<g id="a_edge14_Node000001_Node000010"><a xlink:title=" ">
<path fill="none" stroke="#63b8ff" d="M524.27,-175.77C516.01,-165.51 507.78,-153 503.5,-140 499.33,-127.33 498.81,-122.48 503.5,-110 508.29,-97.28 518.55,-85.81 527.34,-77.71"/>
<polygon fill="#63b8ff" stroke="#63b8ff" points="531.51,-74.01 529.27,-79.01 529.64,-75.67 527.77,-77.33 527.77,-77.33 527.77,-77.33 529.64,-75.67 526.28,-75.65 531.51,-74.01 531.51,-74.01"/>
</a>
</g>
</g>
<!-- Node11 -->
<g id="Node000011" class="node">
<title>Node11</title>
<g id="a_Node000011"><a xlink:title=" ">
<polygon fill="#e0e0e0" stroke="#999999" points="585,-134.5 512,-134.5 512,-115.5 585,-115.5 585,-134.5"/>
<text text-anchor="middle" x="548.5" y="-122.5" font-family="Helvetica,sans-Serif" font-size="10.00">QCheckBox</text>
</a>
</g>
</g>
<!-- Node1&#45;&gt;Node11 -->
<g id="edge11_Node000001_Node000011" class="edge">
<title>Node1&#45;&gt;Node11</title>
<g id="a_edge11_Node000001_Node000011"><a xlink:title=" ">
<path fill="none" stroke="#63b8ff" d="M548.5,-175.61C548.5,-163.7 548.5,-149.98 548.5,-139.98"/>
<polygon fill="#63b8ff" stroke="#63b8ff" points="548.5,-134.85 550.75,-139.85 548.5,-137.35 548.5,-139.85 548.5,-139.85 548.5,-139.85 548.5,-137.35 546.25,-139.85 548.5,-134.85 548.5,-134.85"/>
</a>
</g>
</g>
<!-- Node12 -->
<g id="Node000012" class="node">
<title>Node12</title>
<g id="a_Node000012"><a xlink:title=" ">
<polygon fill="#e0e0e0" stroke="#999999" points="680,-134.5 603,-134.5 603,-115.5 680,-115.5 680,-134.5"/>
<text text-anchor="middle" x="641.5" y="-122.5" font-family="Helvetica,sans-Serif" font-size="10.00">QComboBox</text>
</a>
</g>
</g>
<!-- Node1&#45;&gt;Node12 -->
<g id="edge12_Node000001_Node000012" class="edge">
<title>Node1&#45;&gt;Node12</title>
<g id="a_edge12_Node000001_Node000012"><a xlink:title=" ">
<path fill="none" stroke="#63b8ff" d="M579.73,-175.82C595.66,-162.97 614.28,-147.96 626.88,-137.79"/>
<polygon fill="#63b8ff" stroke="#63b8ff" points="630.91,-134.54 628.43,-139.43 628.96,-136.11 627.01,-137.68 627.01,-137.68 627.01,-137.68 628.96,-136.11 625.6,-135.93 630.91,-134.54 630.91,-134.54"/>
</a>
</g>
</g>
<!-- Node13 -->
<g id="Node000013" class="node">
<title>Node13</title>
<g id="a_Node000013"><a xlink:title=" ">
<polygon fill="#e0e0e0" stroke="#999999" points="774.5,-134.5 698.5,-134.5 698.5,-115.5 774.5,-115.5 774.5,-134.5"/>
<text text-anchor="middle" x="736.5" y="-122.5" font-family="Helvetica,sans-Serif" font-size="10.00">QListWidget</text>
</a>
</g>
</g>
<!-- Node1&#45;&gt;Node13 -->
<g id="edge15_Node000001_Node000013" class="edge">
<title>Node1&#45;&gt;Node13</title>
<g id="a_edge15_Node000001_Node000013"><a xlink:title=" ">
<path fill="none" stroke="#63b8ff" d="M611.36,-175.92C644.99,-162.51 684.6,-146.7 710.11,-136.53"/>
<polygon fill="#63b8ff" stroke="#63b8ff" points="715.02,-134.57 711.21,-138.51 712.7,-135.5 710.38,-136.42 710.38,-136.42 710.38,-136.42 712.7,-135.5 709.54,-134.33 715.02,-134.57 715.02,-134.57"/>
</a>
</g>
</g>
<!-- Node14 -->
<g id="Node000014" class="node">
<title>Node14</title>
<g id="a_Node000014"><a xlink:title=" ">
<polygon fill="#e0e0e0" stroke="#999999" points="876,-134.5 793,-134.5 793,-115.5 876,-115.5 876,-134.5"/>
<text text-anchor="middle" x="834.5" y="-122.5" font-family="Helvetica,sans-Serif" font-size="10.00">QVBoxLayout</text>
</a>
</g>
</g>
<!-- Node1&#45;&gt;Node14 -->
<g id="edge16_Node000001_Node000014" class="edge">
<title>Node1&#45;&gt;Node14</title>
<g id="a_edge16_Node000001_Node000014"><a xlink:title=" ">
<path fill="none" stroke="#63b8ff" d="M646.34,-175.93C688.56,-165.02 738.5,-152.02 783.5,-140 788.42,-138.69 793.61,-137.28 798.71,-135.89"/>
<polygon fill="#63b8ff" stroke="#63b8ff" points="803.77,-134.51 799.54,-138 801.36,-135.17 798.95,-135.83 798.95,-135.83 798.95,-135.83 801.36,-135.17 798.36,-133.66 803.77,-134.51 803.77,-134.51"/>
</a>
</g>
</g>
<!-- Node3 -->
<g id="Node000003" class="node">
<title>Node3</title>
<g id="a_Node000003"><a xlink:href="../../de/d09/mana__distribution__config_8h.html" target="_top" xlink:title=" ">
<polygon fill="white" stroke="#666666" points="262,-74 113,-74 113,-55 262,-55 262,-74"/>
<text text-anchor="middle" x="187.5" y="-62" font-family="Helvetica,sans-Serif" font-size="10.00">mana_distribution_config.h</text>
</a>
</g>
</g>
<!-- Node2&#45;&gt;Node3 -->
<g id="edge2_Node000002_Node000003" class="edge">
<title>Node2&#45;&gt;Node3</title>
<g id="a_edge2_Node000002_Node000003"><a xlink:title=" ">
<path fill="none" stroke="#63b8ff" d="M308.42,-109.99C279.99,-99.53 241.77,-85.47 215.97,-75.97"/>
<polygon fill="#63b8ff" stroke="#63b8ff" points="210.98,-74.14 216.45,-73.75 213.33,-75 215.67,-75.87 215.67,-75.87 215.67,-75.87 213.33,-75 214.9,-77.98 210.98,-74.14 210.98,-74.14"/>
</a>
</g>
</g>
<!-- Node7 -->
<g id="Node000007" class="node">
<title>Node7</title>
<g id="a_Node000007"><a xlink:title=" ">
<polygon fill="#e0e0e0" stroke="#999999" points="324.5,-19 254.5,-19 254.5,0 324.5,0 324.5,-19"/>
<text text-anchor="middle" x="289.5" y="-7" font-family="Helvetica,sans-Serif" font-size="10.00">QStringList</text>
</a>
</g>
</g>
<!-- Node2&#45;&gt;Node7 -->
<g id="edge10_Node000002_Node000007" class="edge">
<title>Node2&#45;&gt;Node7</title>
<g id="a_edge10_Node000002_Node000007"><a xlink:title=" ">
<path fill="none" stroke="#63b8ff" d="M333.35,-109.63C325.22,-100.11 315.12,-87.02 308.5,-74 300.29,-57.84 294.99,-37.53 292.13,-24.29"/>
<polygon fill="#63b8ff" stroke="#63b8ff" points="291.05,-19.08 294.27,-23.52 291.55,-21.53 292.06,-23.98 292.06,-23.98 292.06,-23.98 291.55,-21.53 289.86,-24.44 291.05,-19.08 291.05,-19.08"/>
</a>
</g>
</g>
<!-- Node8 -->
<g id="Node000008" class="node">
<title>Node8</title>
<g id="a_Node000008"><a xlink:title=" ">
<polygon fill="#e0e0e0" stroke="#999999" points="373.5,-74 317.5,-74 317.5,-55 373.5,-55 373.5,-74"/>
<text text-anchor="middle" x="345.5" y="-62" font-family="Helvetica,sans-Serif" font-size="10.00">QDialog</text>
</a>
</g>
</g>
<!-- Node2&#45;&gt;Node8 -->
<g id="edge7_Node000002_Node000008" class="edge">
<title>Node2&#45;&gt;Node8</title>
<g id="a_edge7_Node000002_Node000008"><a xlink:title=" ">
<path fill="none" stroke="#63b8ff" d="M346.26,-109.84C346.1,-100.57 345.89,-88.51 345.74,-79.31"/>
<polygon fill="#63b8ff" stroke="#63b8ff" points="345.65,-74.27 347.99,-79.23 345.69,-76.77 345.74,-79.27 345.74,-79.27 345.74,-79.27 345.69,-76.77 343.49,-79.3 345.65,-74.27 345.65,-74.27"/>
</a>
</g>
</g>
<!-- Node2&#45;&gt;Node9 -->
<g id="edge8_Node000002_Node000009" class="edge">
<title>Node2&#45;&gt;Node9</title>
<g id="a_edge8_Node000002_Node000009"><a xlink:title=" ">
<path fill="none" stroke="#63b8ff" d="M370.21,-109.99C387.47,-99.79 410.52,-86.17 426.55,-76.69"/>
<polygon fill="#63b8ff" stroke="#63b8ff" points="430.88,-74.14 427.72,-78.62 428.73,-75.41 426.58,-76.68 426.58,-76.68 426.58,-76.68 428.73,-75.41 425.43,-74.75 430.88,-74.14 430.88,-74.14"/>
</a>
</g>
</g>
<!-- Node2&#45;&gt;Node10 -->
<g id="edge9_Node000002_Node000010" class="edge">
<title>Node2&#45;&gt;Node10</title>
<g id="a_edge9_Node000002_Node000010"><a xlink:title=" ">
<path fill="none" stroke="#63b8ff" d="M393.45,-109.99C430.43,-98.95 480.86,-83.9 512.55,-74.44"/>
<polygon fill="#63b8ff" stroke="#63b8ff" points="517.47,-72.97 513.32,-76.56 515.08,-73.69 512.68,-74.4 512.68,-74.4 512.68,-74.4 515.08,-73.69 512.04,-72.24 517.47,-72.97 517.47,-72.97"/>
</a>
</g>
</g>
<!-- Node4 -->
<g id="Node000004" class="node">
<title>Node4</title>
<g id="a_Node000004"><a xlink:title=" ">
<polygon fill="#e0e0e0" stroke="#999999" points="142,-19 71,-19 71,0 142,0 142,-19"/>
<text text-anchor="middle" x="106.5" y="-7" font-family="Helvetica,sans-Serif" font-size="10.00">QJsonArray</text>
</a>
</g>
</g>
<!-- Node3&#45;&gt;Node4 -->
<g id="edge3_Node000003_Node000004" class="edge">
<title>Node3&#45;&gt;Node4</title>
<g id="a_edge3_Node000003_Node000004"><a xlink:title=" ">
<path fill="none" stroke="#63b8ff" d="M174.49,-54.98C160.87,-46.07 139.4,-32.03 124.24,-22.11"/>
<polygon fill="#63b8ff" stroke="#63b8ff" points="119.75,-19.17 125.17,-20.03 121.84,-20.54 123.93,-21.91 123.93,-21.91 123.93,-21.91 121.84,-20.54 122.7,-23.79 119.75,-19.17 119.75,-19.17"/>
</a>
</g>
</g>
<!-- Node5 -->
<g id="Node000005" class="node">
<title>Node5</title>
<g id="a_Node000005"><a xlink:title=" ">
<polygon fill="#e0e0e0" stroke="#999999" points="236.5,-19 160.5,-19 160.5,0 236.5,0 236.5,-19"/>
<text text-anchor="middle" x="198.5" y="-7" font-family="Helvetica,sans-Serif" font-size="10.00">QJsonObject</text>
</a>
</g>
</g>
<!-- Node3&#45;&gt;Node5 -->
<g id="edge4_Node000003_Node000005" class="edge">
<title>Node3&#45;&gt;Node5</title>
<g id="a_edge4_Node000003_Node000005"><a xlink:title=" ">
<path fill="none" stroke="#63b8ff" d="M189.32,-54.75C191.05,-46.41 193.68,-33.74 195.68,-24.09"/>
<polygon fill="#63b8ff" stroke="#63b8ff" points="196.72,-19.09 197.9,-24.44 196.21,-21.54 195.7,-23.98 195.7,-23.98 195.7,-23.98 196.21,-21.54 193.5,-23.53 196.72,-19.09 196.72,-19.09"/>
</a>
</g>
</g>
<!-- Node6 -->
<g id="Node000006" class="node">
<title>Node6</title>
<g id="a_Node000006"><a xlink:title=" ">
<polygon fill="#e0e0e0" stroke="#999999" points="53,-19 0,-19 0,0 53,0 53,-19"/>
<text text-anchor="middle" x="26.5" y="-7" font-family="Helvetica,sans-Serif" font-size="10.00">QString</text>
</a>
</g>
</g>
<!-- Node3&#45;&gt;Node6 -->
<g id="edge5_Node000003_Node000006" class="edge">
<title>Node3&#45;&gt;Node6</title>
<g id="a_edge5_Node000003_Node000006"><a xlink:title=" ">
<path fill="none" stroke="#63b8ff" d="M161.63,-54.98C133.32,-45.66 87.92,-30.72 57.66,-20.76"/>
<polygon fill="#63b8ff" stroke="#63b8ff" points="52.57,-19.08 58.02,-18.51 54.94,-19.86 57.32,-20.65 57.32,-20.65 57.32,-20.65 54.94,-19.86 56.62,-22.78 52.57,-19.08 52.57,-19.08"/>
</a>
</g>
</g>
<!-- Node3&#45;&gt;Node7 -->
<g id="edge6_Node000003_Node000007" class="edge">
<title>Node3&#45;&gt;Node7</title>
<g id="a_edge6_Node000003_Node000007"><a xlink:title=" ">
<path fill="none" stroke="#63b8ff" d="M203.89,-54.98C221.33,-45.92 249,-31.54 268.14,-21.6"/>
<polygon fill="#63b8ff" stroke="#63b8ff" points="272.81,-19.17 269.41,-23.47 270.6,-20.32 268.38,-21.48 268.38,-21.48 268.38,-21.48 270.6,-20.32 267.34,-19.48 272.81,-19.17 272.81,-19.17"/>
</a>
</g>
</g>
</g>
</svg>

<g id="navigator" transform="translate(0 0)" fill="#404254">
  <rect fill="#f2f5e9" fill-opacity="0.5" stroke="#606060" stroke-width=".5" x="0" y="0" width="60" height="60"/>
  <use id="zoomplus" xlink:href="#zoomPlus" x="17" y="9" onmousedown="handleZoom(evt,'in')"/>
  <use id="zoomminus" xlink:href="#zoomMin" x="42" y="9" onmousedown="handleZoom(evt,'out')"/>
  <use id="reset" xlink:href="#resetDef" x="30" y="36" onmousedown="handleReset()"/>
   <use id="arrowup" xlink:href="#arrowUp" x="0" y="0" onmousedown="handlePan(0,-1)"/>
  <use id="arrowright" xlink:href="#arrowRight" x="0" y="0" onmousedown="handlePan(1,0)"/>
  <use id="arrowdown" xlink:href="#arrowDown" x="0" y="0" onmousedown="handlePan(0,1)"/>
  <use id="arrowleft" xlink:href="#arrowLeft" x="0" y="0" onmousedown="handlePan(-1,0)"/>
</g>
<svg viewBox="0 0 15 15" width="100%" height="30px" preserveAspectRatio="xMaxYMin meet">
 <g id="arrow_out" transform="scale(0.3 0.3)">
  <a xlink:href="mana__distribution__config__dialog_8cpp__incl_org.svg" target="_base">
   <rect id="button" ry="5" rx="5" y="6" x="6" height="38" width="38"
        fill="#f2f5e9" fill-opacity="0.5" stroke="#606060" stroke-width="1.0"/>
   <path id="arrow"
     d="M 11.500037,31.436501 C 11.940474,20.09759 22.043105,11.32322 32.158766,21.979434 L 37.068811,17.246167 C 37.068811,17.246167 37.088388,32 37.088388,32 L 22.160133,31.978069 C 22.160133,31.978069 26.997745,27.140456 26.997745,27.140456 C 18.528582,18.264221 13.291696,25.230495 11.500037,31.436501 z"
     style="fill:#404040;"/>
  </a>
 </g>
</svg>

<style type='text/css'>
<![CDATA[
[data-mouse-over-selected='false'] { opacity: 0.7; }
[data-mouse-over-selected='true']  { opacity: 1.0; }
]]>
</style>
<script type="application/ecmascript"><![CDATA[
document.addEventListener('DOMContentLoaded', (event) => {
  highlightEdges();
  highlightAdjacentNodes();
});
]]></script>
</svg>
