<?xml version="1.0" encoding="UTF-8" standalone="no"?>
<!DOCTYPE svg PUBLIC "-//W3C//DTD SVG 1.1//EN"
 "http://www.w3.org/Graphics/SVG/1.1/DTD/svg11.dtd">
<!-- Generated by graphviz version 2.43.0 (0)
 -->
<!-- Title: Server_AbstractPlayer::drawCards Pages: 1 -->
<svg width="333pt" height="64pt"
 viewBox="0.00 0.00 333.00 64.00" xmlns="http://www.w3.org/2000/svg" xmlns:xlink="http://www.w3.org/1999/xlink">

<svg id="main" version="1.1" xmlns="http://www.w3.org/2000/svg" xmlns:xlink="http://www.w3.org/1999/xlink" xml:space="preserve" onload="init(evt)">
<style type="text/css"><![CDATA[
.node, .edge {opacity: 0.7;}
.node.selected, .edge.selected {opacity: 1;}
.edge:hover path { stroke: red; }
.edge:hover polygon { stroke: red; fill: red; }
]]></style>
<script type="application/ecmascript" xlink:href="../../svg.min.js"/>
<svg id="graph" class="graph">
<g id="graph0" class="graph" transform="scale(1 1) rotate(0) translate(4 60)">
<title>Server_AbstractPlayer::drawCards</title>
<!-- Node1 -->
<g id="Node000001" class="node">
<title>Node1</title>
<g id="a_Node000001"><a xlink:title=" ">
<polygon fill="#999999" stroke="#666666" points="325,-42.5 200,-42.5 200,-12.5 325,-12.5 325,-42.5"/>
<text text-anchor="start" x="208" y="-30.5" font-family="Helvetica,sans-Serif" font-size="10.00">Server_AbstractPlayer</text>
<text text-anchor="middle" x="262.5" y="-19.5" font-family="Helvetica,sans-Serif" font-size="10.00">::drawCards</text>
</a>
</g>
</g>
<!-- Node2 -->
<g id="Node000002" class="node">
<title>Node2</title>
<g id="a_Node000002"><a xlink:href="../../d8/d21/classServer__Player.html#ad2f4951b344ea40b65995200b38d1564" target="_top" xlink:title=" ">
<polygon fill="white" stroke="#666666" points="164,-56 0,-56 0,-37 164,-37 164,-56"/>
<text text-anchor="middle" x="82" y="-44" font-family="Helvetica,sans-Serif" font-size="10.00">Server_Player::cmdDrawCards</text>
</a>
</g>
</g>
<!-- Node1&#45;&gt;Node2 -->
<g id="edge1_Node000001_Node000002" class="edge">
<title>Node1&#45;&gt;Node2</title>
<g id="a_edge1_Node000001_Node000002"><a xlink:title=" ">
<path fill="none" stroke="#63b8ff" d="M194.66,-34.61C184.73,-35.67 174.39,-36.77 164.2,-37.86"/>
<polygon fill="#63b8ff" stroke="#63b8ff" points="199.82,-34.07 195.09,-36.83 197.33,-34.33 194.85,-34.59 194.85,-34.59 194.85,-34.59 197.33,-34.33 194.61,-32.36 199.82,-34.07 199.82,-34.07"/>
</a>
</g>
</g>
<!-- Node3 -->
<g id="Node000003" class="node">
<title>Node3</title>
<g id="a_Node000003"><a xlink:href="../../d8/d21/classServer__Player.html#ad507b89d67a2f11f159bda36966b644e" target="_top" xlink:title=" ">
<polygon fill="white" stroke="#666666" points="158.5,-19 5.5,-19 5.5,0 158.5,0 158.5,-19"/>
<text text-anchor="middle" x="82" y="-7" font-family="Helvetica,sans-Serif" font-size="10.00">Server_Player::cmdMulligan</text>
</a>
</g>
</g>
<!-- Node1&#45;&gt;Node3 -->
<g id="edge2_Node000001_Node000003" class="edge">
<title>Node1&#45;&gt;Node3</title>
<g id="a_edge2_Node000001_Node000003"><a xlink:title=" ">
<path fill="none" stroke="#63b8ff" d="M194.79,-20.77C182.97,-19.58 170.59,-18.33 158.55,-17.12"/>
<polygon fill="#63b8ff" stroke="#63b8ff" points="199.82,-21.28 194.62,-23.02 197.33,-21.03 194.85,-20.78 194.85,-20.78 194.85,-20.78 197.33,-21.03 195.07,-18.54 199.82,-21.28 199.82,-21.28"/>
</a>
</g>
</g>
</g>
</svg>
</svg>

<style type='text/css'>
<![CDATA[
[data-mouse-over-selected='false'] { opacity: 0.7; }
[data-mouse-over-selected='true']  { opacity: 1.0; }
]]>
</style>
<script type="application/ecmascript"><![CDATA[
document.addEventListener('DOMContentLoaded', (event) => {
  highlightEdges();
  highlightAdjacentNodes();
});
]]></script>
</svg>
