<?xml version="1.0" encoding="UTF-8" standalone="no"?>
<!DOCTYPE svg PUBLIC "-//W3C//DTD SVG 1.1//EN"
 "http://www.w3.org/Graphics/SVG/1.1/DTD/svg11.dtd">
<!-- Generated by graphviz version 2.43.0 (0)
 -->
<!-- Title: Server_AbstractPlayer::cmdConcede Pages: 1 -->
<svg width="330pt" height="182pt"
 viewBox="0.00 0.00 330.00 182.00" xmlns="http://www.w3.org/2000/svg" xmlns:xlink="http://www.w3.org/1999/xlink">
<g id="graph0" class="graph" transform="scale(1 1) rotate(0) translate(4 178)">
<title>Server_AbstractPlayer::cmdConcede</title>
<!-- Node1 -->
<g id="Node000001" class="node">
<title>Node1</title>
<g id="a_Node000001"><a xlink:title=" ">
<polygon fill="#999999" stroke="#666666" points="125,-102 0,-102 0,-72 125,-72 125,-102"/>
<text text-anchor="start" x="8" y="-90" font-family="Helvetica,sans-Serif" font-size="10.00">Server_AbstractPlayer</text>
<text text-anchor="middle" x="62.5" y="-79" font-family="Helvetica,sans-Serif" font-size="10.00">::cmdConcede</text>
</a>
</g>
</g>
<!-- Node2 -->
<g id="Node000002" class="node">
<title>Node2</title>
<g id="a_Node000002"><a xlink:href="../../da/d99/classServer__AbstractPlayer.html#a43315026969348f738c94999b76c4dfc" target="_top" xlink:title=" ">
<polygon fill="white" stroke="#666666" points="304,-174 179,-174 179,-144 304,-144 304,-174"/>
<text text-anchor="start" x="187" y="-162" font-family="Helvetica,sans-Serif" font-size="10.00">Server_AbstractPlayer</text>
<text text-anchor="middle" x="241.5" y="-151" font-family="Helvetica,sans-Serif" font-size="10.00">::clearZones</text>
</a>
</g>
</g>
<!-- Node1&#45;&gt;Node2 -->
<g id="edge1_Node000001_Node000002" class="edge">
<title>Node1&#45;&gt;Node2</title>
<g id="a_edge1_Node000001_Node000002"><a xlink:title=" ">
<path fill="none" stroke="#63b8ff" d="M91.11,-102.11C110.34,-112.25 136.78,-125.46 161,-135 167.54,-137.58 174.47,-140.04 181.41,-142.35"/>
<polygon fill="#63b8ff" stroke="#63b8ff" points="186.21,-143.91 180.76,-144.5 183.83,-143.14 181.45,-142.36 181.45,-142.36 181.45,-142.36 183.83,-143.14 182.15,-140.22 186.21,-143.91 186.21,-143.91"/>
</a>
</g>
</g>
<!-- Node3 -->
<g id="Node000003" class="node">
<title>Node3</title>
<g id="a_Node000003"><a xlink:href="../../de/d8f/classGameEventStorage.html#acd9c2f6ebbfa52476072e591d0b19a83" target="_top" xlink:title=" ">
<polygon fill="white" stroke="#666666" points="321,-126 162,-126 162,-96 321,-96 321,-126"/>
<text text-anchor="start" x="170" y="-114" font-family="Helvetica,sans-Serif" font-size="10.00">GameEventStorage::enqueue</text>
<text text-anchor="middle" x="241.5" y="-103" font-family="Helvetica,sans-Serif" font-size="10.00">GameEvent</text>
</a>
</g>
</g>
<!-- Node1&#45;&gt;Node3 -->
<g id="edge2_Node000001_Node000003" class="edge">
<title>Node1&#45;&gt;Node3</title>
<g id="a_edge2_Node000001_Node000003"><a xlink:title=" ">
<path fill="none" stroke="#63b8ff" d="M125.41,-95.39C135.52,-96.76 146.13,-98.2 156.67,-99.63"/>
<polygon fill="#63b8ff" stroke="#63b8ff" points="161.83,-100.33 156.57,-101.89 159.35,-100 156.87,-99.66 156.87,-99.66 156.87,-99.66 159.35,-100 157.17,-97.43 161.83,-100.33 161.83,-100.33"/>
</a>
</g>
</g>
<!-- Node4 -->
<g id="Node000004" class="node">
<title>Node4</title>
<g id="a_Node000004"><a xlink:href="../../da/d99/classServer__AbstractPlayer.html#aa5d223391ab63b46e798851ea5c45b3c" target="_top" xlink:title=" ">
<polygon fill="white" stroke="#666666" points="304,-78 179,-78 179,-48 304,-48 304,-78"/>
<text text-anchor="start" x="187" y="-66" font-family="Helvetica,sans-Serif" font-size="10.00">Server_AbstractPlayer</text>
<text text-anchor="middle" x="241.5" y="-55" font-family="Helvetica,sans-Serif" font-size="10.00">::setConceded</text>
</a>
</g>
</g>
<!-- Node1&#45;&gt;Node4 -->
<g id="edge3_Node000001_Node000004" class="edge">
<title>Node1&#45;&gt;Node4</title>
<g id="a_edge3_Node000001_Node000004"><a xlink:title=" ">
<path fill="none" stroke="#63b8ff" d="M125.41,-78.61C140.99,-76.49 157.79,-74.22 173.6,-72.07"/>
<polygon fill="#63b8ff" stroke="#63b8ff" points="178.93,-71.35 174.28,-74.25 176.45,-71.68 173.97,-72.02 173.97,-72.02 173.97,-72.02 176.45,-71.68 173.67,-69.79 178.93,-71.35 178.93,-71.35"/>
</a>
</g>
</g>
<!-- Node5 -->
<g id="Node000005" class="node">
<title>Node5</title>
<g id="a_Node000005"><a xlink:href="../../de/d8f/classGameEventStorage.html#a7d461336898a96490f866f429ae57ae0" target="_top" xlink:title=" ">
<polygon fill="white" stroke="#666666" points="322,-30 161,-30 161,0 322,0 322,-30"/>
<text text-anchor="start" x="169" y="-18" font-family="Helvetica,sans-Serif" font-size="10.00">GameEventStorage::setGame</text>
<text text-anchor="middle" x="241.5" y="-7" font-family="Helvetica,sans-Serif" font-size="10.00">EventContext</text>
</a>
</g>
</g>
<!-- Node1&#45;&gt;Node5 -->
<g id="edge4_Node000001_Node000005" class="edge">
<title>Node1&#45;&gt;Node5</title>
<g id="a_edge4_Node000001_Node000005"><a xlink:title=" ">
<path fill="none" stroke="#63b8ff" d="M91.11,-71.89C110.34,-61.75 136.78,-48.54 161,-39 167.54,-36.42 174.47,-33.96 181.41,-31.65"/>
<polygon fill="#63b8ff" stroke="#63b8ff" points="186.21,-30.09 182.15,-33.78 183.83,-30.86 181.45,-31.64 181.45,-31.64 181.45,-31.64 183.83,-30.86 180.76,-29.5 186.21,-30.09 186.21,-30.09"/>
</a>
</g>
</g>
</g>
</svg>
