<?xml version="1.0" encoding="UTF-8" standalone="no"?>
<!DOCTYPE svg PUBLIC "-//W3C//DTD SVG 1.1//EN"
 "http://www.w3.org/Graphics/SVG/1.1/DTD/svg11.dtd">
<!-- Generated by graphviz version 2.43.0 (0)
 -->
<!-- Title: Server_AbstractPlayer::newCardId Pages: 1 -->
<!--zoomable 268 -->

<svg id="main" version="1.1" xmlns="http://www.w3.org/2000/svg" xmlns:xlink="http://www.w3.org/1999/xlink" xml:space="preserve" onload="init(evt)">

<style type="text/css"><![CDATA[
.node, .edge {opacity: 0.7;}
.node.selected, .edge.selected {opacity: 1;}
.edge:hover path { stroke: red; }
.edge:hover polygon { stroke: red; fill: red; }
]]></style>

<defs>
  <circle id="rim" cx="0" cy="0" r="7"/>
  <circle id="rim2" cx="0" cy="0" r="3.5"/>
  <g id="zoomPlus">
    <use xlink:href="#rim" fill="#404040"><set attributeName="fill" to="#808080" begin="zoomplus.mouseover" end="zoomplus.mouseout"/></use>
    <path d="M-4,0h8M0,-4v8" fill="none" stroke="white" stroke-width="1.5" pointer-events="none"/>
  </g>
  <g id="zoomMin">
    <use xlink:href="#rim" fill="#404040"><set attributeName="fill" to="#808080" begin="zoomminus.mouseover" end="zoomminus.mouseout"/></use>
    <path d="M-4,0h8" fill="none" stroke="white" stroke-width="1.5" pointer-events="none"/>
  </g>
  <g id="arrowUp" transform="translate(30 24)">
    <use xlink:href="#rim"/>
    <path pointer-events="none" fill="none" stroke="white" stroke-width="1.5" d="M0,-3.0v7 M-2.5,-0.5L0,-3.0L2.5,-0.5"/>
  </g>
  <g id="arrowRight" transform="rotate(90) translate(36 -43)">
    <use xlink:href="#rim"/>
    <path pointer-events="none" fill="none" stroke="white" stroke-width="1.5" d="M0,-3.0v7 M-2.5,-0.5L0,-3.0L2.5,-0.5"/>
  </g>
  <g id="arrowDown" transform="rotate(180) translate(-30 -48)">
    <use xlink:href="#rim"/>
    <path pointer-events="none" fill="none" stroke="white" stroke-width="1.5" d="M0,-3.0v7 M-2.5,-0.5L0,-3.0L2.5,-0.5"/>
  </g>
  <g id="arrowLeft" transform="rotate(270) translate(-36 17)">
    <use xlink:href="#rim"/>
    <path pointer-events="none" fill="none" stroke="white" stroke-width="1.5" d="M0,-3.0v7 M-2.5,-0.5L0,-3.0L2.5,-0.5"/>
  </g>
  <g id="resetDef">
    <use xlink:href="#rim2" fill="#404040"><set attributeName="fill" to="#808080" begin="reset.mouseover" end="reset.mouseout"/></use>
  </g>
</defs>
<script type="application/ecmascript">
var viewWidth = 814;
var viewHeight = 268;
var sectionId = 'dynsection-34';
</script>
<script type="application/ecmascript" xlink:href="../../svg.min.js"/>
<svg id="graph" class="graph">
<g id="viewport">
<title>Server_AbstractPlayer::newCardId</title>
<!-- Node1 -->
<g id="Node000001" class="node">
<title>Node1</title>
<g id="a_Node000001"><a xlink:title=" ">
<polygon fill="#999999" stroke="#666666" points="806,-217 681,-217 681,-187 806,-187 806,-217"/>
<text text-anchor="start" x="689" y="-205" font-family="Helvetica,sans-Serif" font-size="10.00">Server_AbstractPlayer</text>
<text text-anchor="middle" x="743.5" y="-194" font-family="Helvetica,sans-Serif" font-size="10.00">::newCardId</text>
</a>
</g>
</g>
<!-- Node2 -->
<g id="Node000002" class="node">
<title>Node2</title>
<g id="a_Node000002"><a xlink:href="../../da/d99/classServer__AbstractPlayer.html#a7747ca8a54aa8e4de4791e166423d290" target="_top" xlink:title=" ">
<polygon fill="white" stroke="#666666" points="125,-260 0,-260 0,-230 125,-230 125,-260"/>
<text text-anchor="start" x="8" y="-248" font-family="Helvetica,sans-Serif" font-size="10.00">Server_AbstractPlayer</text>
<text text-anchor="middle" x="62.5" y="-237" font-family="Helvetica,sans-Serif" font-size="10.00">::cmdCreateToken</text>
</a>
</g>
</g>
<!-- Node1&#45;&gt;Node2 -->
<g id="edge1_Node000001_Node000002" class="edge">
<title>Node1&#45;&gt;Node2</title>
<g id="a_edge1_Node000001_Node000002"><a xlink:title=" ">
<path fill="none" stroke="#63b8ff" d="M675.99,-211.21C623.85,-218.19 549.4,-227.64 484,-234 340.98,-247.9 304.67,-250.21 161,-248 149.4,-247.82 137.03,-247.52 125.13,-247.18"/>
<polygon fill="#63b8ff" stroke="#63b8ff" points="680.97,-210.54 676.31,-213.44 678.49,-210.87 676.01,-211.21 676.01,-211.21 676.01,-211.21 678.49,-210.87 675.71,-208.98 680.97,-210.54 680.97,-210.54"/>
</a>
</g>
</g>
<!-- Node3 -->
<g id="Node000003" class="node">
<title>Node3</title>
<g id="a_Node000003"><a xlink:href="../../da/d99/classServer__AbstractPlayer.html#aae9b5d4a87368a98428c9b1c8f50d180" target="_top" xlink:title=" ">
<polygon fill="white" stroke="#666666" points="645,-153 520,-153 520,-123 645,-123 645,-153"/>
<text text-anchor="start" x="528" y="-141" font-family="Helvetica,sans-Serif" font-size="10.00">Server_AbstractPlayer</text>
<text text-anchor="middle" x="582.5" y="-130" font-family="Helvetica,sans-Serif" font-size="10.00">::moveCard</text>
</a>
</g>
</g>
<!-- Node1&#45;&gt;Node3 -->
<g id="edge2_Node000001_Node000003" class="edge">
<title>Node1&#45;&gt;Node3</title>
<g id="a_edge2_Node000001_Node000003"><a xlink:title=" ">
<path fill="none" stroke="#63b8ff" d="M700.36,-185.04C675.64,-175.09 644.66,-162.62 620.82,-153.02"/>
<polygon fill="#63b8ff" stroke="#63b8ff" points="705.22,-186.99 699.74,-187.22 702.9,-186.06 700.58,-185.13 700.58,-185.13 700.58,-185.13 702.9,-186.06 701.42,-183.04 705.22,-186.99 705.22,-186.99"/>
</a>
</g>
</g>
<!-- Node4 -->
<g id="Node000004" class="node">
<title>Node4</title>
<g id="a_Node000004"><a xlink:href="../../da/d99/classServer__AbstractPlayer.html#aec16950f506fd0e79497295e9e2a8a57" target="_top" xlink:title=" ">
<polygon fill="white" stroke="#666666" points="286,-239 161,-239 161,-209 286,-209 286,-239"/>
<text text-anchor="start" x="169" y="-227" font-family="Helvetica,sans-Serif" font-size="10.00">Server_AbstractPlayer</text>
<text text-anchor="middle" x="223.5" y="-216" font-family="Helvetica,sans-Serif" font-size="10.00">::cmdAttachCard</text>
</a>
</g>
</g>
<!-- Node3&#45;&gt;Node4 -->
<g id="edge3_Node000003_Node000004" class="edge">
<title>Node3&#45;&gt;Node4</title>
<g id="a_edge3_Node000003_Node000004"><a xlink:title=" ">
<path fill="none" stroke="#63b8ff" d="M563.02,-156.92C544.76,-174.24 515.11,-198.82 484,-210 419.46,-233.19 340.08,-233.78 286.23,-230.43"/>
<polygon fill="#63b8ff" stroke="#63b8ff" points="566.97,-153.13 564.93,-158.22 565.17,-154.86 563.36,-156.6 563.36,-156.6 563.36,-156.6 565.17,-154.86 561.8,-154.97 566.97,-153.13 566.97,-153.13"/>
</a>
</g>
</g>
<!-- Node5 -->
<g id="Node000005" class="node">
<title>Node5</title>
<g id="a_Node000005"><a xlink:href="../../da/d99/classServer__AbstractPlayer.html#a9064bd54618f3ddaad2e60ff4f43125e" target="_top" xlink:title=" ">
<polygon fill="white" stroke="#666666" points="465.5,-201 340.5,-201 340.5,-171 465.5,-171 465.5,-201"/>
<text text-anchor="start" x="348.5" y="-189" font-family="Helvetica,sans-Serif" font-size="10.00">Server_AbstractPlayer</text>
<text text-anchor="middle" x="403" y="-178" font-family="Helvetica,sans-Serif" font-size="10.00">::cmdConcede</text>
</a>
</g>
</g>
<!-- Node3&#45;&gt;Node5 -->
<g id="edge5_Node000003_Node000005" class="edge">
<title>Node3&#45;&gt;Node5</title>
<g id="a_edge5_Node000003_Node000005"><a xlink:title=" ">
<path fill="none" stroke="#63b8ff" d="M520.82,-154.41C500.93,-159.79 478.96,-165.73 459.48,-171"/>
<polygon fill="#63b8ff" stroke="#63b8ff" points="525.82,-153.06 521.59,-156.53 523.41,-153.71 521,-154.36 521,-154.36 521,-154.36 523.41,-153.71 520.41,-152.19 525.82,-153.06 525.82,-153.06"/>
</a>
</g>
</g>
<!-- Node6 -->
<g id="Node000006" class="node">
<title>Node6</title>
<g id="a_Node000006"><a xlink:href="../../da/d99/classServer__AbstractPlayer.html#a437acecfbf84b5dea39cbdffdacbaca2" target="_top" xlink:title=" ">
<polygon fill="white" stroke="#666666" points="465.5,-153 340.5,-153 340.5,-123 465.5,-123 465.5,-153"/>
<text text-anchor="start" x="348.5" y="-141" font-family="Helvetica,sans-Serif" font-size="10.00">Server_AbstractPlayer</text>
<text text-anchor="middle" x="403" y="-130" font-family="Helvetica,sans-Serif" font-size="10.00">::cmdMoveCard</text>
</a>
</g>
</g>
<!-- Node3&#45;&gt;Node6 -->
<g id="edge6_Node000003_Node000006" class="edge">
<title>Node3&#45;&gt;Node6</title>
<g id="a_edge6_Node000003_Node000006"><a xlink:title=" ">
<path fill="none" stroke="#63b8ff" d="M514.53,-138C498.53,-138 481.53,-138 465.77,-138"/>
<polygon fill="#63b8ff" stroke="#63b8ff" points="519.92,-138 514.92,-140.25 517.42,-138 514.92,-138 514.92,-138 514.92,-138 517.42,-138 514.92,-135.75 519.92,-138 519.92,-138"/>
</a>
</g>
</g>
<!-- Node7 -->
<g id="Node000007" class="node">
<title>Node7</title>
<g id="a_Node000007"><a xlink:href="../../d8/d21/classServer__Player.html#ad507b89d67a2f11f159bda36966b644e" target="_top" xlink:title=" ">
<polygon fill="white" stroke="#666666" points="479.5,-104.5 326.5,-104.5 326.5,-85.5 479.5,-85.5 479.5,-104.5"/>
<text text-anchor="middle" x="403" y="-92.5" font-family="Helvetica,sans-Serif" font-size="10.00">Server_Player::cmdMulligan</text>
</a>
</g>
</g>
<!-- Node3&#45;&gt;Node7 -->
<g id="edge7_Node000003_Node000007" class="edge">
<title>Node3&#45;&gt;Node7</title>
<g id="a_edge7_Node000003_Node000007"><a xlink:title=" ">
<path fill="none" stroke="#63b8ff" d="M515.8,-121.75C505.18,-119.14 494.29,-116.49 484,-114 471.1,-110.88 457.01,-107.52 444.3,-104.5"/>
<polygon fill="#63b8ff" stroke="#63b8ff" points="520.67,-122.94 515.27,-123.94 518.24,-122.35 515.81,-121.75 515.81,-121.75 515.81,-121.75 518.24,-122.35 516.35,-119.57 520.67,-122.94 520.67,-122.94"/>
</a>
</g>
</g>
<!-- Node8 -->
<g id="Node000008" class="node">
<title>Node8</title>
<g id="a_Node000008"><a xlink:href="../../d8/d21/classServer__Player.html#a00158ff0f645f30323164035f7f422ea" target="_top" xlink:title=" ">
<polygon fill="white" stroke="#666666" points="484,-67.5 322,-67.5 322,-48.5 484,-48.5 484,-67.5"/>
<text text-anchor="middle" x="403" y="-55.5" font-family="Helvetica,sans-Serif" font-size="10.00">Server_Player::cmdUndoDraw</text>
</a>
</g>
</g>
<!-- Node3&#45;&gt;Node8 -->
<g id="edge8_Node000003_Node000008" class="edge">
<title>Node3&#45;&gt;Node8</title>
<g id="a_edge8_Node000003_Node000008"><a xlink:title=" ">
<path fill="none" stroke="#63b8ff" d="M557.48,-119.85C538.45,-106.26 510.72,-88.17 484,-77 474.91,-73.2 464.91,-70.07 455.15,-67.52"/>
<polygon fill="#63b8ff" stroke="#63b8ff" points="561.65,-122.85 556.27,-121.75 559.62,-121.39 557.59,-119.93 557.59,-119.93 557.59,-119.93 559.62,-121.39 558.9,-118.1 561.65,-122.85 561.65,-122.85"/>
</a>
</g>
</g>
<!-- Node9 -->
<g id="Node000009" class="node">
<title>Node9</title>
<g id="a_Node000009"><a xlink:href="../../da/d99/classServer__AbstractPlayer.html#a6491fc2b2bd57681dcda4d06295762fd" target="_top" xlink:title=" ">
<polygon fill="white" stroke="#666666" points="465.5,-30 340.5,-30 340.5,0 465.5,0 465.5,-30"/>
<text text-anchor="start" x="348.5" y="-18" font-family="Helvetica,sans-Serif" font-size="10.00">Server_AbstractPlayer</text>
<text text-anchor="middle" x="403" y="-7" font-family="Helvetica,sans-Serif" font-size="10.00">::unattachCard</text>
</a>
</g>
</g>
<!-- Node3&#45;&gt;Node9 -->
<g id="edge9_Node000003_Node000009" class="edge">
<title>Node3&#45;&gt;Node9</title>
<g id="a_edge9_Node000003_Node000009"><a xlink:title=" ">
<path fill="none" stroke="#63b8ff" d="M567.61,-118.94C550.39,-96.64 519.01,-60.1 484,-39 478.29,-35.56 472.04,-32.58 465.65,-30"/>
<polygon fill="#63b8ff" stroke="#63b8ff" points="570.66,-122.93 565.83,-120.32 569.14,-120.94 567.62,-118.96 567.62,-118.96 567.62,-118.96 569.14,-120.94 569.41,-117.59 570.66,-122.93 570.66,-122.93"/>
</a>
</g>
</g>
<!-- Node4&#45;&gt;Node2 -->
<g id="edge4_Node000004_Node000002" class="edge">
<title>Node4&#45;&gt;Node2</title>
<g id="a_edge4_Node000004_Node000002"><a xlink:title=" ">
<path fill="none" stroke="#63b8ff" d="M155.38,-232.87C145.39,-234.18 135.13,-235.54 125.26,-236.84"/>
<polygon fill="#63b8ff" stroke="#63b8ff" points="160.57,-232.18 155.91,-235.06 158.09,-232.51 155.61,-232.83 155.61,-232.83 155.61,-232.83 158.09,-232.51 155.32,-230.6 160.57,-232.18 160.57,-232.18"/>
</a>
</g>
</g>
<!-- Node9&#45;&gt;Node4 -->
<g id="edge10_Node000009_Node000004" class="edge">
<title>Node9&#45;&gt;Node4</title>
<g id="a_edge10_Node000009_Node000004"><a xlink:title=" ">
<path fill="none" stroke="#63b8ff" d="M335.83,-30.05C330.89,-32.58 326.2,-35.54 322,-39 265.37,-85.6 237.41,-173.85 228.13,-209"/>
<polygon fill="#63b8ff" stroke="#63b8ff" points="340.43,-27.84 336.9,-32.03 338.18,-28.92 335.92,-30.01 335.92,-30.01 335.92,-30.01 338.18,-28.92 334.95,-27.98 340.43,-27.84 340.43,-27.84"/>
</a>
</g>
</g>
</g>
</svg>

<g id="navigator" transform="translate(0 0)" fill="#404254">
  <rect fill="#f2f5e9" fill-opacity="0.5" stroke="#606060" stroke-width=".5" x="0" y="0" width="60" height="60"/>
  <use id="zoomplus" xlink:href="#zoomPlus" x="17" y="9" onmousedown="handleZoom(evt,'in')"/>
  <use id="zoomminus" xlink:href="#zoomMin" x="42" y="9" onmousedown="handleZoom(evt,'out')"/>
  <use id="reset" xlink:href="#resetDef" x="30" y="36" onmousedown="handleReset()"/>
   <use id="arrowup" xlink:href="#arrowUp" x="0" y="0" onmousedown="handlePan(0,-1)"/>
  <use id="arrowright" xlink:href="#arrowRight" x="0" y="0" onmousedown="handlePan(1,0)"/>
  <use id="arrowdown" xlink:href="#arrowDown" x="0" y="0" onmousedown="handlePan(0,1)"/>
  <use id="arrowleft" xlink:href="#arrowLeft" x="0" y="0" onmousedown="handlePan(-1,0)"/>
</g>
<svg viewBox="0 0 15 15" width="100%" height="30px" preserveAspectRatio="xMaxYMin meet">
 <g id="arrow_out" transform="scale(0.3 0.3)">
  <a xlink:href="classServer__AbstractPlayer_a25d3e4c638a4f5d821207f7686693ba6_icgraph_org.svg" target="_base">
   <rect id="button" ry="5" rx="5" y="6" x="6" height="38" width="38"
        fill="#f2f5e9" fill-opacity="0.5" stroke="#606060" stroke-width="1.0"/>
   <path id="arrow"
     d="M 11.500037,31.436501 C 11.940474,20.09759 22.043105,11.32322 32.158766,21.979434 L 37.068811,17.246167 C 37.068811,17.246167 37.088388,32 37.088388,32 L 22.160133,31.978069 C 22.160133,31.978069 26.997745,27.140456 26.997745,27.140456 C 18.528582,18.264221 13.291696,25.230495 11.500037,31.436501 z"
     style="fill:#404040;"/>
  </a>
 </g>
</svg>

<style type='text/css'>
<![CDATA[
[data-mouse-over-selected='false'] { opacity: 0.7; }
[data-mouse-over-selected='true']  { opacity: 1.0; }
]]>
</style>
<script type="application/ecmascript"><![CDATA[
document.addEventListener('DOMContentLoaded', (event) => {
  highlightEdges();
  highlightAdjacentNodes();
});
]]></script>
</svg>
