<?xml version="1.0" encoding="UTF-8" standalone="no"?>
<!DOCTYPE svg PUBLIC "-//W3C//DTD SVG 1.1//EN"
 "http://www.w3.org/Graphics/SVG/1.1/DTD/svg11.dtd">
<!-- Generated by graphviz version 2.43.0 (0)
 -->
<!-- Title: cockatrice/src/server/user/user_info_connection.cpp Pages: 1 -->
<svg width="2035pt" height="269pt"
 viewBox="0.00 0.00 2035.00 269.00" xmlns="http://www.w3.org/2000/svg" xmlns:xlink="http://www.w3.org/1999/xlink">
<g id="graph0" class="graph" transform="scale(1 1) rotate(0) translate(4 265)">
<title>cockatrice/src/server/user/user_info_connection.cpp</title>
<!-- Node1 -->
<g id="Node000001" class="node">
<title>Node1</title>
<g id="a_Node000001"><a xlink:title=" ">
<polygon fill="#999999" stroke="#666666" points="1391.5,-261 1224.5,-261 1224.5,-231 1391.5,-231 1391.5,-261"/>
<text text-anchor="start" x="1232.5" y="-249" font-family="Helvetica,sans-Serif" font-size="10.00">cockatrice/src/server</text>
<text text-anchor="middle" x="1308" y="-238" font-family="Helvetica,sans-Serif" font-size="10.00">/user/user_info_connection.cpp</text>
</a>
</g>
</g>
<!-- Node2 -->
<g id="Node000002" class="node">
<title>Node2</title>
<g id="a_Node000002"><a xlink:href="../../d2/df3/user__info__connection_8h.html" target="_top" xlink:title="TODO: Document this.">
<polygon fill="white" stroke="#666666" points="302.5,-129 173.5,-129 173.5,-110 302.5,-110 302.5,-129"/>
<text text-anchor="middle" x="238" y="-117" font-family="Helvetica,sans-Serif" font-size="10.00">user_info_connection.h</text>
</a>
</g>
</g>
<!-- Node1&#45;&gt;Node2 -->
<g id="edge1_Node000001_Node000002" class="edge">
<title>Node1&#45;&gt;Node2</title>
<g id="a_edge1_Node000001_Node000002"><a xlink:title=" ">
<path fill="none" stroke="#63b8ff" d="M1224.48,-235.28C1020.07,-211.5 497.51,-150.7 307.99,-128.64"/>
<polygon fill="#63b8ff" stroke="#63b8ff" points="302.76,-128.03 307.98,-126.38 305.24,-128.32 307.72,-128.61 307.72,-128.61 307.72,-128.61 305.24,-128.32 307.46,-130.85 302.76,-128.03 302.76,-128.03"/>
</a>
</g>
</g>
<!-- Node9 -->
<g id="Node000009" class="node">
<title>Node9</title>
<g id="a_Node000009"><a xlink:href="../../dc/db3/cache__settings_8h.html" target="_top" xlink:title="TODO: Document this.">
<polygon fill="white" stroke="#666666" points="1311.5,-195 1206.5,-195 1206.5,-165 1311.5,-165 1311.5,-195"/>
<text text-anchor="start" x="1214.5" y="-183" font-family="Helvetica,sans-Serif" font-size="10.00">../../settings/cache</text>
<text text-anchor="middle" x="1259" y="-172" font-family="Helvetica,sans-Serif" font-size="10.00">_settings.h</text>
</a>
</g>
</g>
<!-- Node1&#45;&gt;Node9 -->
<g id="edge8_Node000001_Node000009" class="edge">
<title>Node1&#45;&gt;Node9</title>
<g id="a_edge8_Node000001_Node000009"><a xlink:title=" ">
<path fill="none" stroke="#63b8ff" d="M1297.13,-230.8C1290.02,-221.52 1280.67,-209.31 1273.01,-199.3"/>
<polygon fill="#63b8ff" stroke="#63b8ff" points="1269.84,-195.16 1274.67,-197.77 1271.36,-197.15 1272.88,-199.13 1272.88,-199.13 1272.88,-199.13 1271.36,-197.15 1271.1,-200.5 1269.84,-195.16 1269.84,-195.16"/>
</a>
</g>
</g>
<!-- Node30 -->
<g id="Node000030" class="node">
<title>Node30</title>
<g id="a_Node000030"><a xlink:title=" ">
<polygon fill="#e0e0e0" stroke="#999999" points="1386,-189.5 1330,-189.5 1330,-170.5 1386,-170.5 1386,-189.5"/>
<text text-anchor="middle" x="1358" y="-177.5" font-family="Helvetica,sans-Serif" font-size="10.00">QDebug</text>
</a>
</g>
</g>
<!-- Node1&#45;&gt;Node30 -->
<g id="edge52_Node000001_Node000030" class="edge">
<title>Node1&#45;&gt;Node30</title>
<g id="a_edge52_Node000001_Node000030"><a xlink:title=" ">
<path fill="none" stroke="#63b8ff" d="M1319.1,-230.8C1327.73,-219.74 1339.61,-204.54 1347.97,-193.84"/>
<polygon fill="#63b8ff" stroke="#63b8ff" points="1351.09,-189.84 1349.79,-195.17 1349.55,-191.81 1348.01,-193.78 1348.01,-193.78 1348.01,-193.78 1349.55,-191.81 1346.24,-192.4 1351.09,-189.84 1351.09,-189.84"/>
</a>
</g>
</g>
<!-- Node31 -->
<g id="Node000031" class="node">
<title>Node31</title>
<g id="a_Node000031"><a xlink:title=" ">
<polygon fill="#e0e0e0" stroke="#999999" points="1449.5,-189.5 1404.5,-189.5 1404.5,-170.5 1449.5,-170.5 1449.5,-189.5"/>
<text text-anchor="middle" x="1427" y="-177.5" font-family="Helvetica,sans-Serif" font-size="10.00">utility</text>
</a>
</g>
</g>
<!-- Node1&#45;&gt;Node31 -->
<g id="edge53_Node000001_Node000031" class="edge">
<title>Node1&#45;&gt;Node31</title>
<g id="a_edge53_Node000001_Node000031"><a xlink:title=" ">
<path fill="none" stroke="#63b8ff" d="M1334.12,-230.95C1355.9,-219.24 1386.52,-202.77 1406.56,-191.99"/>
<polygon fill="#63b8ff" stroke="#63b8ff" points="1411.16,-189.52 1407.83,-193.87 1408.96,-190.7 1406.76,-191.89 1406.76,-191.89 1406.76,-191.89 1408.96,-190.7 1405.69,-189.9 1411.16,-189.52 1411.16,-189.52"/>
</a>
</g>
</g>
<!-- Node3 -->
<g id="Node000003" class="node">
<title>Node3</title>
<g id="a_Node000003"><a xlink:title=" ">
<polygon fill="#e0e0e0" stroke="#999999" points="345.5,-74 266.5,-74 266.5,-55 345.5,-55 345.5,-74"/>
<text text-anchor="middle" x="306" y="-62" font-family="Helvetica,sans-Serif" font-size="10.00">QApplication</text>
</a>
</g>
</g>
<!-- Node2&#45;&gt;Node3 -->
<g id="edge2_Node000002_Node000003" class="edge">
<title>Node2&#45;&gt;Node3</title>
<g id="a_edge2_Node000002_Node000003"><a xlink:title=" ">
<path fill="none" stroke="#63b8ff" d="M248.93,-109.98C260.26,-101.15 278.07,-87.27 290.78,-77.36"/>
<polygon fill="#63b8ff" stroke="#63b8ff" points="294.88,-74.17 292.32,-79.02 292.9,-75.71 290.93,-77.24 290.93,-77.24 290.93,-77.24 292.9,-75.71 289.55,-75.47 294.88,-74.17 294.88,-74.17"/>
</a>
</g>
</g>
<!-- Node4 -->
<g id="Node000004" class="node">
<title>Node4</title>
<g id="a_Node000004"><a xlink:title=" ">
<polygon fill="#e0e0e0" stroke="#999999" points="150,-74 112,-74 112,-55 150,-55 150,-74"/>
<text text-anchor="middle" x="131" y="-62" font-family="Helvetica,sans-Serif" font-size="10.00">QDir</text>
</a>
</g>
</g>
<!-- Node2&#45;&gt;Node4 -->
<g id="edge3_Node000002_Node000004" class="edge">
<title>Node2&#45;&gt;Node4</title>
<g id="a_edge3_Node000002_Node000004"><a xlink:title=" ">
<path fill="none" stroke="#63b8ff" d="M220.81,-109.98C202.43,-100.88 173.24,-86.42 153.15,-76.47"/>
<polygon fill="#63b8ff" stroke="#63b8ff" points="148.5,-74.17 153.98,-74.37 150.74,-75.28 152.98,-76.39 152.98,-76.39 152.98,-76.39 150.74,-75.28 151.99,-78.41 148.5,-74.17 148.5,-74.17"/>
</a>
</g>
</g>
<!-- Node5 -->
<g id="Node000005" class="node">
<title>Node5</title>
<g id="a_Node000005"><a xlink:title=" ">
<polygon fill="#e0e0e0" stroke="#999999" points="209.5,-74 168.5,-74 168.5,-55 209.5,-55 209.5,-74"/>
<text text-anchor="middle" x="189" y="-62" font-family="Helvetica,sans-Serif" font-size="10.00">QFile</text>
</a>
</g>
</g>
<!-- Node2&#45;&gt;Node5 -->
<g id="edge4_Node000002_Node000005" class="edge">
<title>Node2&#45;&gt;Node5</title>
<g id="a_edge4_Node000002_Node000005"><a xlink:title=" ">
<path fill="none" stroke="#63b8ff" d="M229.91,-109.75C221.85,-101.03 209.39,-87.56 200.35,-77.77"/>
<polygon fill="#63b8ff" stroke="#63b8ff" points="196.94,-74.09 201.99,-76.23 198.64,-75.92 200.34,-77.76 200.34,-77.76 200.34,-77.76 198.64,-75.92 198.68,-79.29 196.94,-74.09 196.94,-74.09"/>
</a>
</g>
</g>
<!-- Node6 -->
<g id="Node000006" class="node">
<title>Node6</title>
<g id="a_Node000006"><a xlink:title=" ">
<polygon fill="#e0e0e0" stroke="#999999" points="616.5,-74 509.5,-74 509.5,-55 616.5,-55 616.5,-74"/>
<text text-anchor="middle" x="563" y="-62" font-family="Helvetica,sans-Serif" font-size="10.00">QLoggingCategory</text>
</a>
</g>
</g>
<!-- Node2&#45;&gt;Node6 -->
<g id="edge5_Node000002_Node000006" class="edge">
<title>Node2&#45;&gt;Node6</title>
<g id="a_edge5_Node000002_Node000006"><a xlink:title=" ">
<path fill="none" stroke="#63b8ff" d="M290.22,-109.98C349.12,-100.38 444.63,-84.8 505.59,-74.86"/>
<polygon fill="#63b8ff" stroke="#63b8ff" points="510.64,-74.04 506.07,-77.06 508.18,-74.44 505.71,-74.84 505.71,-74.84 505.71,-74.84 508.18,-74.44 505.35,-72.62 510.64,-74.04 510.64,-74.04"/>
</a>
</g>
</g>
<!-- Node7 -->
<g id="Node000007" class="node">
<title>Node7</title>
<g id="a_Node000007"><a xlink:title=" ">
<polygon fill="#e0e0e0" stroke="#999999" points="651,-19 587,-19 587,0 651,0 651,-19"/>
<text text-anchor="middle" x="619" y="-7" font-family="Helvetica,sans-Serif" font-size="10.00">QSettings</text>
</a>
</g>
</g>
<!-- Node2&#45;&gt;Node7 -->
<g id="edge6_Node000002_Node000007" class="edge">
<title>Node2&#45;&gt;Node7</title>
<g id="a_edge6_Node000002_Node000007"><a xlink:title=" ">
<path fill="none" stroke="#63b8ff" d="M237.82,-109.95C238.03,-96.07 240.65,-68.81 257,-55 305.41,-14.13 499.32,-9.96 581.69,-10.09"/>
<polygon fill="#63b8ff" stroke="#63b8ff" points="586.95,-10.11 581.94,-12.34 584.45,-10.1 581.95,-10.09 581.95,-10.09 581.95,-10.09 584.45,-10.1 581.96,-7.84 586.95,-10.11 586.95,-10.11"/>
</a>
</g>
</g>
<!-- Node8 -->
<g id="Node000008" class="node">
<title>Node8</title>
<g id="a_Node000008"><a xlink:title=" ">
<polygon fill="#e0e0e0" stroke="#999999" points="94,-74 0,-74 0,-55 94,-55 94,-74"/>
<text text-anchor="middle" x="47" y="-62" font-family="Helvetica,sans-Serif" font-size="10.00">QStandardPaths</text>
</a>
</g>
</g>
<!-- Node2&#45;&gt;Node8 -->
<g id="edge7_Node000002_Node000008" class="edge">
<title>Node2&#45;&gt;Node8</title>
<g id="a_edge7_Node000002_Node000008"><a xlink:title=" ">
<path fill="none" stroke="#63b8ff" d="M207.31,-109.98C173.44,-100.59 118.97,-85.47 83.08,-75.51"/>
<polygon fill="#63b8ff" stroke="#63b8ff" points="77.93,-74.08 83.35,-73.25 80.34,-74.75 82.75,-75.42 82.75,-75.42 82.75,-75.42 80.34,-74.75 82.14,-77.59 77.93,-74.08 77.93,-74.08"/>
</a>
</g>
</g>
<!-- Node9&#45;&gt;Node6 -->
<g id="edge48_Node000009_Node000006" class="edge">
<title>Node9&#45;&gt;Node6</title>
<g id="a_edge48_Node000009_Node000006"><a xlink:title=" ">
<path fill="none" stroke="#63b8ff" d="M1206.39,-177.42C1040.31,-172.2 536.68,-154.32 513,-129 496.96,-111.85 523.26,-89.99 543.39,-76.9"/>
<polygon fill="#63b8ff" stroke="#63b8ff" points="547.83,-74.09 544.81,-78.67 545.72,-75.43 543.61,-76.76 543.61,-76.76 543.61,-76.76 545.72,-75.43 542.41,-74.86 547.83,-74.09 547.83,-74.09"/>
</a>
</g>
</g>
<!-- Node10 -->
<g id="Node000010" class="node">
<title>Node10</title>
<g id="a_Node000010"><a xlink:href="../../de/d3c/macros_8h.html" target="_top" xlink:title=" ">
<polygon fill="white" stroke="#666666" points="2027,-129 1925,-129 1925,-110 2027,-110 2027,-129"/>
<text text-anchor="middle" x="1976" y="-117" font-family="Helvetica,sans-Serif" font-size="10.00">../utility/macros.h</text>
</a>
</g>
</g>
<!-- Node9&#45;&gt;Node10 -->
<g id="edge9_Node000009_Node000010" class="edge">
<title>Node9&#45;&gt;Node10</title>
<g id="a_edge9_Node000009_Node000010"><a xlink:title=" ">
<path fill="none" stroke="#63b8ff" d="M1311.66,-166.5C1314.81,-165.94 1317.94,-165.44 1321,-165 1581.08,-127.95 1649.49,-154.05 1911,-129 1913.83,-128.73 1916.73,-128.43 1919.66,-128.11"/>
<polygon fill="#63b8ff" stroke="#63b8ff" points="1924.94,-127.52 1920.23,-130.31 1922.46,-127.79 1919.97,-128.07 1919.97,-128.07 1919.97,-128.07 1922.46,-127.79 1919.72,-125.84 1924.94,-127.52 1924.94,-127.52"/>
</a>
</g>
</g>
<!-- Node12 -->
<g id="Node000012" class="node">
<title>Node12</title>
<g id="a_Node000012"><a xlink:href="../../d6/d0c/card__database__settings_8h.html" target="_top" xlink:title="TODO: Document this.">
<polygon fill="white" stroke="#666666" points="663.5,-129 522.5,-129 522.5,-110 663.5,-110 663.5,-129"/>
<text text-anchor="middle" x="593" y="-117" font-family="Helvetica,sans-Serif" font-size="10.00">card_database_settings.h</text>
</a>
</g>
</g>
<!-- Node9&#45;&gt;Node12 -->
<g id="edge11_Node000009_Node000012" class="edge">
<title>Node9&#45;&gt;Node12</title>
<g id="a_edge11_Node000009_Node000012"><a xlink:title=" ">
<path fill="none" stroke="#63b8ff" d="M1206.44,-174.88C1103.83,-166.76 869.67,-147.84 673,-129 671.57,-128.86 670.12,-128.72 668.66,-128.58"/>
<polygon fill="#63b8ff" stroke="#63b8ff" points="663.66,-128.09 668.86,-126.34 666.15,-128.33 668.64,-128.58 668.64,-128.58 668.64,-128.58 666.15,-128.33 668.42,-130.82 663.66,-128.09 663.66,-128.09"/>
</a>
</g>
</g>
<!-- Node14 -->
<g id="Node000014" class="node">
<title>Node14</title>
<g id="a_Node000014"><a xlink:title=" ">
<polygon fill="#e0e0e0" stroke="#999999" points="1245,-19 1189,-19 1189,0 1245,0 1245,-19"/>
<text text-anchor="middle" x="1217" y="-7" font-family="Helvetica,sans-Serif" font-size="10.00">QObject</text>
</a>
</g>
</g>
<!-- Node9&#45;&gt;Node14 -->
<g id="edge49_Node000009_Node000014" class="edge">
<title>Node9&#45;&gt;Node14</title>
<g id="a_edge49_Node000009_Node000014"><a xlink:title=" ">
<path fill="none" stroke="#63b8ff" d="M1311.66,-166.53C1314.81,-165.97 1317.94,-165.45 1321,-165 1378.19,-156.61 1800.57,-171.27 1840,-129 1845.76,-122.83 1844.22,-117.32 1840,-110 1815.63,-67.73 1791.54,-69.62 1745,-55 1651.99,-25.78 1351.04,-14.44 1250.25,-11.4"/>
<polygon fill="#63b8ff" stroke="#63b8ff" points="1245.03,-11.25 1250.1,-9.15 1247.53,-11.32 1250.03,-11.4 1250.03,-11.4 1250.03,-11.4 1247.53,-11.32 1249.96,-13.65 1245.03,-11.25 1245.03,-11.25"/>
</a>
</g>
</g>
<!-- Node15 -->
<g id="Node000015" class="node">
<title>Node15</title>
<g id="a_Node000015"><a xlink:title=" ">
<polygon fill="#e0e0e0" stroke="#999999" points="1675,-19 1605,-19 1605,0 1675,0 1675,-19"/>
<text text-anchor="middle" x="1640" y="-7" font-family="Helvetica,sans-Serif" font-size="10.00">QStringList</text>
</a>
</g>
</g>
<!-- Node9&#45;&gt;Node15 -->
<g id="edge51_Node000009_Node000015" class="edge">
<title>Node9&#45;&gt;Node15</title>
<g id="a_edge51_Node000009_Node000015"><a xlink:title=" ">
<path fill="none" stroke="#63b8ff" d="M1311.66,-166.53C1314.81,-165.96 1317.94,-165.45 1321,-165 1379.85,-156.43 1814.39,-172.44 1855,-129 1911.82,-68.22 1756.96,-31.23 1680.22,-17.09"/>
<polygon fill="#63b8ff" stroke="#63b8ff" points="1675.28,-16.19 1680.6,-14.87 1677.74,-16.64 1680.2,-17.09 1680.2,-17.09 1680.2,-17.09 1677.74,-16.64 1679.8,-19.3 1675.28,-16.19 1675.28,-16.19"/>
</a>
</g>
</g>
<!-- Node17 -->
<g id="Node000017" class="node">
<title>Node17</title>
<g id="a_Node000017"><a xlink:href="../../d4/d33/card__override__settings_8h.html" target="_top" xlink:title="TODO: Document this.">
<polygon fill="white" stroke="#666666" points="1602.5,-129 1465.5,-129 1465.5,-110 1602.5,-110 1602.5,-129"/>
<text text-anchor="middle" x="1534" y="-117" font-family="Helvetica,sans-Serif" font-size="10.00">card_override_settings.h</text>
</a>
</g>
</g>
<!-- Node9&#45;&gt;Node17 -->
<g id="edge20_Node000009_Node000017" class="edge">
<title>Node9&#45;&gt;Node17</title>
<g id="a_edge20_Node000009_Node000017"><a xlink:title=" ">
<path fill="none" stroke="#63b8ff" d="M1311.75,-167.03C1314.88,-166.34 1317.98,-165.66 1321,-165 1377.94,-152.63 1443.58,-139.01 1486.77,-130.14"/>
<polygon fill="#63b8ff" stroke="#63b8ff" points="1491.93,-129.08 1487.48,-132.29 1489.48,-129.58 1487.03,-130.09 1487.03,-130.09 1487.03,-130.09 1489.48,-129.58 1486.58,-127.88 1491.93,-129.08 1491.93,-129.08"/>
</a>
</g>
</g>
<!-- Node19 -->
<g id="Node000019" class="node">
<title>Node19</title>
<g id="a_Node000019"><a xlink:href="../../d9/d91/debug__settings_8h.html" target="_top" xlink:title="TODO: Document this.">
<polygon fill="white" stroke="#666666" points="906,-129 806,-129 806,-110 906,-110 906,-129"/>
<text text-anchor="middle" x="856" y="-117" font-family="Helvetica,sans-Serif" font-size="10.00">debug_settings.h</text>
</a>
</g>
</g>
<!-- Node9&#45;&gt;Node19 -->
<g id="edge24_Node000009_Node000019" class="edge">
<title>Node9&#45;&gt;Node19</title>
<g id="a_edge24_Node000009_Node000019"><a xlink:title=" ">
<path fill="none" stroke="#63b8ff" d="M1206.31,-171.35C1129.9,-160.26 988.99,-139.8 911.19,-128.51"/>
<polygon fill="#63b8ff" stroke="#63b8ff" points="906.16,-127.78 911.43,-126.27 908.64,-128.14 911.11,-128.5 911.11,-128.5 911.11,-128.5 908.64,-128.14 910.79,-130.73 906.16,-127.78 906.16,-127.78"/>
</a>
</g>
</g>
<!-- Node20 -->
<g id="Node000020" class="node">
<title>Node20</title>
<g id="a_Node000020"><a xlink:href="../../d0/de1/download__settings_8h.html" target="_top" xlink:title="TODO: Document this.">
<polygon fill="white" stroke="#666666" points="1447.5,-129 1330.5,-129 1330.5,-110 1447.5,-110 1447.5,-129"/>
<text text-anchor="middle" x="1389" y="-117" font-family="Helvetica,sans-Serif" font-size="10.00">download_settings.h</text>
</a>
</g>
</g>
<!-- Node9&#45;&gt;Node20 -->
<g id="edge26_Node000009_Node000020" class="edge">
<title>Node9&#45;&gt;Node20</title>
<g id="a_edge26_Node000009_Node000020"><a xlink:title=" ">
<path fill="none" stroke="#63b8ff" d="M1290.14,-164.99C1313.18,-154.62 1344.11,-140.7 1365.19,-131.21"/>
<polygon fill="#63b8ff" stroke="#63b8ff" points="1369.8,-129.14 1366.17,-133.24 1367.52,-130.17 1365.24,-131.19 1365.24,-131.19 1365.24,-131.19 1367.52,-130.17 1364.32,-129.14 1369.8,-129.14 1369.8,-129.14"/>
</a>
</g>
</g>
<!-- Node21 -->
<g id="Node000021" class="node">
<title>Node21</title>
<g id="a_Node000021"><a xlink:href="../../d9/dfd/game__filters__settings_8h.html" target="_top" xlink:title="TODO: Document this.">
<polygon fill="white" stroke="#666666" points="1055.5,-129 924.5,-129 924.5,-110 1055.5,-110 1055.5,-129"/>
<text text-anchor="middle" x="990" y="-117" font-family="Helvetica,sans-Serif" font-size="10.00">game_filters_settings.h</text>
</a>
</g>
</g>
<!-- Node9&#45;&gt;Node21 -->
<g id="edge29_Node000009_Node000021" class="edge">
<title>Node9&#45;&gt;Node21</title>
<g id="a_edge29_Node000009_Node000021"><a xlink:title=" ">
<path fill="none" stroke="#63b8ff" d="M1206.5,-167.58C1156.34,-156.67 1081.58,-140.42 1034.33,-130.14"/>
<polygon fill="#63b8ff" stroke="#63b8ff" points="1029.28,-129.04 1034.65,-127.91 1031.72,-129.57 1034.17,-130.11 1034.17,-130.11 1034.17,-130.11 1031.72,-129.57 1033.69,-132.3 1029.28,-129.04 1029.28,-129.04"/>
</a>
</g>
</g>
<!-- Node22 -->
<g id="Node000022" class="node">
<title>Node22</title>
<g id="a_Node000022"><a xlink:href="../../d9/df1/layouts__settings_8h.html" target="_top" xlink:title="TODO: Document this.">
<polygon fill="white" stroke="#666666" points="1727,-129 1621,-129 1621,-110 1727,-110 1727,-129"/>
<text text-anchor="middle" x="1674" y="-117" font-family="Helvetica,sans-Serif" font-size="10.00">layouts_settings.h</text>
</a>
</g>
</g>
<!-- Node9&#45;&gt;Node22 -->
<g id="edge31_Node000009_Node000022" class="edge">
<title>Node9&#45;&gt;Node22</title>
<g id="a_edge31_Node000009_Node000022"><a xlink:title=" ">
<path fill="none" stroke="#63b8ff" d="M1311.69,-166.73C1314.84,-166.11 1317.96,-165.53 1321,-165 1449.38,-142.62 1482.77,-145.85 1612,-129 1613.27,-128.83 1614.56,-128.67 1615.86,-128.49"/>
<polygon fill="#63b8ff" stroke="#63b8ff" points="1620.91,-127.83 1616.25,-130.71 1618.43,-128.15 1615.95,-128.48 1615.95,-128.48 1615.95,-128.48 1618.43,-128.15 1615.65,-126.25 1620.91,-127.83 1620.91,-127.83"/>
</a>
</g>
</g>
<!-- Node23 -->
<g id="Node000023" class="node">
<title>Node23</title>
<g id="a_Node000023"><a xlink:title=" ">
<polygon fill="#e0e0e0" stroke="#999999" points="1736,-74 1692,-74 1692,-55 1736,-55 1736,-74"/>
<text text-anchor="middle" x="1714" y="-62" font-family="Helvetica,sans-Serif" font-size="10.00">QSize</text>
</a>
</g>
</g>
<!-- Node9&#45;&gt;Node23 -->
<g id="edge50_Node000009_Node000023" class="edge">
<title>Node9&#45;&gt;Node23</title>
<g id="a_edge50_Node000009_Node000023"><a xlink:title=" ">
<path fill="none" stroke="#63b8ff" d="M1311.67,-166.6C1314.82,-166.01 1317.95,-165.47 1321,-165 1366.73,-157.89 1704.72,-163.11 1736,-129 1749.01,-114.82 1736.12,-92.55 1725.31,-78.5"/>
<polygon fill="#63b8ff" stroke="#63b8ff" points="1722.05,-74.43 1726.93,-76.93 1723.61,-76.38 1725.17,-78.33 1725.17,-78.33 1725.17,-78.33 1723.61,-76.38 1723.41,-79.74 1722.05,-74.43 1722.05,-74.43"/>
</a>
</g>
</g>
<!-- Node24 -->
<g id="Node000024" class="node">
<title>Node24</title>
<g id="a_Node000024"><a xlink:href="../../db/d2c/message__settings_8h.html" target="_top" xlink:title="TODO: Document this.">
<polygon fill="white" stroke="#666666" points="1188,-129 1074,-129 1074,-110 1188,-110 1188,-129"/>
<text text-anchor="middle" x="1131" y="-117" font-family="Helvetica,sans-Serif" font-size="10.00">message_settings.h</text>
</a>
</g>
</g>
<!-- Node9&#45;&gt;Node24 -->
<g id="edge34_Node000009_Node000024" class="edge">
<title>Node9&#45;&gt;Node24</title>
<g id="a_edge34_Node000009_Node000024"><a xlink:title=" ">
<path fill="none" stroke="#63b8ff" d="M1228.34,-164.99C1205.75,-154.66 1175.46,-140.82 1154.7,-131.33"/>
<polygon fill="#63b8ff" stroke="#63b8ff" points="1149.9,-129.14 1155.39,-129.17 1152.18,-130.18 1154.45,-131.22 1154.45,-131.22 1154.45,-131.22 1152.18,-130.18 1153.52,-133.26 1149.9,-129.14 1149.9,-129.14"/>
</a>
</g>
</g>
<!-- Node25 -->
<g id="Node000025" class="node">
<title>Node25</title>
<g id="a_Node000025"><a xlink:href="../../db/daf/recents__settings_8h.html" target="_top" xlink:title="TODO: Document this.">
<polygon fill="white" stroke="#666666" points="1312,-129 1206,-129 1206,-110 1312,-110 1312,-129"/>
<text text-anchor="middle" x="1259" y="-117" font-family="Helvetica,sans-Serif" font-size="10.00">recents_settings.h</text>
</a>
</g>
</g>
<!-- Node9&#45;&gt;Node25 -->
<g id="edge36_Node000009_Node000025" class="edge">
<title>Node9&#45;&gt;Node25</title>
<g id="a_edge36_Node000009_Node000025"><a xlink:title=" ">
<path fill="none" stroke="#63b8ff" d="M1259,-164.84C1259,-155.57 1259,-143.51 1259,-134.31"/>
<polygon fill="#63b8ff" stroke="#63b8ff" points="1259,-129.27 1261.25,-134.27 1259,-131.77 1259,-134.27 1259,-134.27 1259,-134.27 1259,-131.77 1256.75,-134.27 1259,-129.27 1259,-129.27"/>
</a>
</g>
</g>
<!-- Node26 -->
<g id="Node000026" class="node">
<title>Node26</title>
<g id="a_Node000026"><a xlink:href="../../db/db0/servers__settings_8h.html" target="_top" xlink:title="TODO: Document this.">
<polygon fill="white" stroke="#666666" points="788,-129 682,-129 682,-110 788,-110 788,-129"/>
<text text-anchor="middle" x="735" y="-117" font-family="Helvetica,sans-Serif" font-size="10.00">servers_settings.h</text>
</a>
</g>
</g>
<!-- Node9&#45;&gt;Node26 -->
<g id="edge38_Node000009_Node000026" class="edge">
<title>Node9&#45;&gt;Node26</title>
<g id="a_edge38_Node000009_Node000026"><a xlink:title=" ">
<path fill="none" stroke="#63b8ff" d="M1206.29,-173.79C1120.44,-165.19 945.14,-147.17 797,-129 795.73,-128.84 794.44,-128.68 793.14,-128.52"/>
<polygon fill="#63b8ff" stroke="#63b8ff" points="788.09,-127.88 793.33,-126.28 790.57,-128.19 793.05,-128.51 793.05,-128.51 793.05,-128.51 790.57,-128.19 792.76,-130.74 788.09,-127.88 788.09,-127.88"/>
</a>
</g>
</g>
<!-- Node27 -->
<g id="Node000027" class="node">
<title>Node27</title>
<g id="a_Node000027"><a xlink:href="../../d0/dfd/shortcuts__settings_8h.html" target="_top" xlink:title="TODO: Document this.">
<polygon fill="white" stroke="#666666" points="465.5,-129 350.5,-129 350.5,-110 465.5,-110 465.5,-129"/>
<text text-anchor="middle" x="408" y="-117" font-family="Helvetica,sans-Serif" font-size="10.00">shortcuts_settings.h</text>
</a>
</g>
</g>
<!-- Node9&#45;&gt;Node27 -->
<g id="edge42_Node000009_Node000027" class="edge">
<title>Node9&#45;&gt;Node27</title>
<g id="a_edge42_Node000009_Node000027"><a xlink:title=" ">
<path fill="none" stroke="#63b8ff" d="M1206.5,-176.6C1080.84,-170.65 752.96,-153.85 480,-129 477.1,-128.74 474.14,-128.45 471.15,-128.15"/>
<polygon fill="#63b8ff" stroke="#63b8ff" points="465.74,-127.59 470.94,-125.87 468.23,-127.85 470.71,-128.1 470.71,-128.1 470.71,-128.1 468.23,-127.85 470.48,-130.34 465.74,-127.59 465.74,-127.59"/>
</a>
</g>
</g>
<!-- Node29 -->
<g id="Node000029" class="node">
<title>Node29</title>
<g id="a_Node000029"><a xlink:title=" ">
<polygon fill="#e0e0e0" stroke="#999999" points="1830.5,-129 1783.5,-129 1783.5,-110 1830.5,-110 1830.5,-129"/>
<text text-anchor="middle" x="1807" y="-117" font-family="Helvetica,sans-Serif" font-size="10.00">QDate</text>
</a>
</g>
</g>
<!-- Node9&#45;&gt;Node29 -->
<g id="edge47_Node000009_Node000029" class="edge">
<title>Node9&#45;&gt;Node29</title>
<g id="a_edge47_Node000009_Node000029"><a xlink:title=" ">
<path fill="none" stroke="#63b8ff" d="M1311.67,-166.57C1314.82,-166 1317.95,-165.47 1321,-165 1518.48,-134.93 1571.49,-158.88 1769,-129 1772.07,-128.54 1775.26,-127.96 1778.43,-127.34"/>
<polygon fill="#63b8ff" stroke="#63b8ff" points="1783.38,-126.32 1778.94,-129.53 1780.93,-126.82 1778.48,-127.33 1778.48,-127.33 1778.48,-127.33 1780.93,-126.82 1778.03,-125.13 1783.38,-126.32 1783.38,-126.32"/>
</a>
</g>
</g>
<!-- Node11 -->
<g id="Node000011" class="node">
<title>Node11</title>
<g id="a_Node000011"><a xlink:title=" ">
<polygon fill="#e0e0e0" stroke="#999999" points="2005.5,-74 1946.5,-74 1946.5,-55 2005.5,-55 2005.5,-74"/>
<text text-anchor="middle" x="1976" y="-62" font-family="Helvetica,sans-Serif" font-size="10.00">QtGlobal</text>
</a>
</g>
</g>
<!-- Node10&#45;&gt;Node11 -->
<g id="edge10_Node000010_Node000011" class="edge">
<title>Node10&#45;&gt;Node11</title>
<g id="a_edge10_Node000010_Node000011"><a xlink:title=" ">
<path fill="none" stroke="#63b8ff" d="M1976,-109.75C1976,-101.41 1976,-88.74 1976,-79.09"/>
<polygon fill="#63b8ff" stroke="#63b8ff" points="1976,-74.09 1978.25,-79.09 1976,-76.59 1976,-79.09 1976,-79.09 1976,-79.09 1976,-76.59 1973.75,-79.09 1976,-74.09 1976,-74.09"/>
</a>
</g>
</g>
<!-- Node12&#45;&gt;Node7 -->
<g id="edge18_Node000012_Node000007" class="edge">
<title>Node12&#45;&gt;Node7</title>
<g id="a_edge18_Node000012_Node000007"><a xlink:title=" ">
<path fill="none" stroke="#63b8ff" d="M601.75,-109.9C609.56,-101.56 620.45,-88.13 625,-74 630.34,-57.44 626.86,-37.28 623.38,-24.19"/>
<polygon fill="#63b8ff" stroke="#63b8ff" points="622.02,-19.37 625.54,-23.56 622.7,-21.77 623.38,-24.18 623.38,-24.18 623.38,-24.18 622.7,-21.77 621.21,-24.79 622.02,-19.37 622.02,-19.37"/>
</a>
</g>
</g>
<!-- Node13 -->
<g id="Node000013" class="node">
<title>Node13</title>
<g id="a_Node000013"><a xlink:href="../../d2/d62/settings__manager_8h.html" target="_top" xlink:title="TODO: Document this.">
<polygon fill="white" stroke="#666666" points="1187.5,-74 1074.5,-74 1074.5,-55 1187.5,-55 1187.5,-74"/>
<text text-anchor="middle" x="1131" y="-62" font-family="Helvetica,sans-Serif" font-size="10.00">settings_manager.h</text>
</a>
</g>
</g>
<!-- Node12&#45;&gt;Node13 -->
<g id="edge12_Node000012_Node000013" class="edge">
<title>Node12&#45;&gt;Node13</title>
<g id="a_edge12_Node000012_Node000013"><a xlink:title=" ">
<path fill="none" stroke="#63b8ff" d="M663.67,-110.96C666.82,-110.63 669.94,-110.31 673,-110 814.63,-95.6 981.01,-79.68 1069.05,-71.34"/>
<polygon fill="#63b8ff" stroke="#63b8ff" points="1074.22,-70.85 1069.45,-73.56 1071.73,-71.09 1069.24,-71.32 1069.24,-71.32 1069.24,-71.32 1071.73,-71.09 1069.03,-69.08 1074.22,-70.85 1074.22,-70.85"/>
</a>
</g>
</g>
<!-- Node12&#45;&gt;Node14 -->
<g id="edge17_Node000012_Node000014" class="edge">
<title>Node12&#45;&gt;Node14</title>
<g id="a_edge17_Node000012_Node000014"><a xlink:title=" ">
<path fill="none" stroke="#63b8ff" d="M638.67,-109.98C705.6,-97.54 834.3,-73.86 944,-55 1030.25,-40.17 1132.05,-23.9 1183.55,-15.76"/>
<polygon fill="#63b8ff" stroke="#63b8ff" points="1188.68,-14.95 1184.09,-17.95 1186.21,-15.34 1183.74,-15.73 1183.74,-15.73 1183.74,-15.73 1186.21,-15.34 1183.39,-13.51 1188.68,-14.95 1188.68,-14.95"/>
</a>
</g>
</g>
<!-- Node16 -->
<g id="Node000016" class="node">
<title>Node16</title>
<g id="a_Node000016"><a xlink:title=" ">
<polygon fill="#e0e0e0" stroke="#999999" points="789.5,-19 730.5,-19 730.5,0 789.5,0 789.5,-19"/>
<text text-anchor="middle" x="760" y="-7" font-family="Helvetica,sans-Serif" font-size="10.00">QVariant</text>
</a>
</g>
</g>
<!-- Node12&#45;&gt;Node16 -->
<g id="edge19_Node000012_Node000016" class="edge">
<title>Node12&#45;&gt;Node16</title>
<g id="a_edge19_Node000012_Node000016"><a xlink:title=" ">
<path fill="none" stroke="#63b8ff" d="M606.38,-109.84C636.31,-90.49 708.64,-43.72 742.26,-21.97"/>
<polygon fill="#63b8ff" stroke="#63b8ff" points="746.55,-19.2 743.58,-23.8 744.45,-20.55 742.35,-21.91 742.35,-21.91 742.35,-21.91 744.45,-20.55 741.13,-20.02 746.55,-19.2 746.55,-19.2"/>
</a>
</g>
</g>
<!-- Node13&#45;&gt;Node7 -->
<g id="edge14_Node000013_Node000007" class="edge">
<title>Node13&#45;&gt;Node7</title>
<g id="a_edge14_Node000013_Node000007"><a xlink:title=" ">
<path fill="none" stroke="#63b8ff" d="M1074.25,-57.63C968.69,-46.7 744.86,-23.53 656.24,-14.36"/>
<polygon fill="#63b8ff" stroke="#63b8ff" points="651.11,-13.82 656.32,-12.1 653.6,-14.08 656.08,-14.34 656.08,-14.34 656.08,-14.34 653.6,-14.08 655.85,-16.58 651.11,-13.82 651.11,-13.82"/>
</a>
</g>
</g>
<!-- Node13&#45;&gt;Node14 -->
<g id="edge13_Node000013_Node000014" class="edge">
<title>Node13&#45;&gt;Node14</title>
<g id="a_edge13_Node000013_Node000014"><a xlink:title=" ">
<path fill="none" stroke="#63b8ff" d="M1144.82,-54.98C1159.4,-46 1182.46,-31.79 1198.58,-21.85"/>
<polygon fill="#63b8ff" stroke="#63b8ff" points="1202.93,-19.17 1199.86,-23.71 1200.8,-20.48 1198.67,-21.79 1198.67,-21.79 1198.67,-21.79 1200.8,-20.48 1197.49,-19.88 1202.93,-19.17 1202.93,-19.17"/>
</a>
</g>
</g>
<!-- Node13&#45;&gt;Node15 -->
<g id="edge15_Node000013_Node000015" class="edge">
<title>Node13&#45;&gt;Node15</title>
<g id="a_edge15_Node000013_Node000015"><a xlink:title=" ">
<path fill="none" stroke="#63b8ff" d="M1187.91,-57.57C1291.68,-46.77 1509.27,-24.11 1599.48,-14.72"/>
<polygon fill="#63b8ff" stroke="#63b8ff" points="1604.72,-14.17 1599.98,-16.93 1602.23,-14.43 1599.75,-14.69 1599.75,-14.69 1599.75,-14.69 1602.23,-14.43 1599.51,-12.45 1604.72,-14.17 1604.72,-14.17"/>
</a>
</g>
</g>
<!-- Node13&#45;&gt;Node16 -->
<g id="edge16_Node000013_Node000016" class="edge">
<title>Node13&#45;&gt;Node16</title>
<g id="a_edge16_Node000013_Node000016"><a xlink:title=" ">
<path fill="none" stroke="#63b8ff" d="M1074.25,-55.39C996.46,-44.28 859.07,-24.65 794.87,-15.48"/>
<polygon fill="#63b8ff" stroke="#63b8ff" points="789.64,-14.73 794.91,-13.21 792.11,-15.09 794.59,-15.44 794.59,-15.44 794.59,-15.44 792.11,-15.09 794.27,-17.67 789.64,-14.73 789.64,-14.73"/>
</a>
</g>
</g>
<!-- Node17&#45;&gt;Node13 -->
<g id="edge22_Node000017_Node000013" class="edge">
<title>Node17&#45;&gt;Node13</title>
<g id="a_edge22_Node000017_Node000013"><a xlink:title=" ">
<path fill="none" stroke="#63b8ff" d="M1469.25,-109.98C1393.2,-99.98 1267.95,-83.51 1193.07,-73.66"/>
<polygon fill="#63b8ff" stroke="#63b8ff" points="1187.77,-72.97 1193.02,-71.39 1190.25,-73.29 1192.73,-73.62 1192.73,-73.62 1192.73,-73.62 1190.25,-73.29 1192.44,-75.85 1187.77,-72.97 1187.77,-72.97"/>
</a>
</g>
</g>
<!-- Node17&#45;&gt;Node14 -->
<g id="edge23_Node000017_Node000014" class="edge">
<title>Node17&#45;&gt;Node14</title>
<g id="a_edge23_Node000017_Node000014"><a xlink:title=" ">
<path fill="none" stroke="#63b8ff" d="M1508.86,-109.94C1451.17,-90.28 1309.49,-42.01 1247.2,-20.79"/>
<polygon fill="#63b8ff" stroke="#63b8ff" points="1242.14,-19.07 1247.6,-18.55 1244.51,-19.87 1246.87,-20.68 1246.87,-20.68 1246.87,-20.68 1244.51,-19.87 1246.15,-22.81 1242.14,-19.07 1242.14,-19.07"/>
</a>
</g>
</g>
<!-- Node18 -->
<g id="Node000018" class="node">
<title>Node18</title>
<g id="a_Node000018"><a xlink:title=" ">
<polygon fill="#e0e0e0" stroke="#999999" points="1593.5,-74 1474.5,-74 1474.5,-55 1593.5,-55 1593.5,-74"/>
<text text-anchor="middle" x="1534" y="-62" font-family="Helvetica,sans-Serif" font-size="10.00">../common/card_ref.h</text>
</a>
</g>
</g>
<!-- Node17&#45;&gt;Node18 -->
<g id="edge21_Node000017_Node000018" class="edge">
<title>Node17&#45;&gt;Node18</title>
<g id="a_edge21_Node000017_Node000018"><a xlink:title=" ">
<path fill="none" stroke="#63b8ff" d="M1534,-109.75C1534,-101.41 1534,-88.74 1534,-79.09"/>
<polygon fill="#63b8ff" stroke="#63b8ff" points="1534,-74.09 1536.25,-79.09 1534,-76.59 1534,-79.09 1534,-79.09 1534,-79.09 1534,-76.59 1531.75,-79.09 1534,-74.09 1534,-74.09"/>
</a>
</g>
</g>
<!-- Node19&#45;&gt;Node13 -->
<g id="edge25_Node000019_Node000013" class="edge">
<title>Node19&#45;&gt;Node13</title>
<g id="a_edge25_Node000019_Node000013"><a xlink:title=" ">
<path fill="none" stroke="#63b8ff" d="M900.18,-109.98C949.65,-100.45 1029.63,-85.04 1081.25,-75.09"/>
<polygon fill="#63b8ff" stroke="#63b8ff" points="1086.47,-74.08 1081.99,-77.24 1084.02,-74.56 1081.56,-75.03 1081.56,-75.03 1081.56,-75.03 1084.02,-74.56 1081.13,-72.82 1086.47,-74.08 1086.47,-74.08"/>
</a>
</g>
</g>
<!-- Node20&#45;&gt;Node13 -->
<g id="edge27_Node000020_Node000013" class="edge">
<title>Node20&#45;&gt;Node13</title>
<g id="a_edge27_Node000020_Node000013"><a xlink:title=" ">
<path fill="none" stroke="#63b8ff" d="M1347.55,-109.98C1301.23,-100.47 1226.41,-85.1 1177.96,-75.15"/>
<polygon fill="#63b8ff" stroke="#63b8ff" points="1172.78,-74.08 1178.13,-72.88 1175.23,-74.59 1177.67,-75.09 1177.67,-75.09 1177.67,-75.09 1175.23,-74.59 1177.22,-77.29 1172.78,-74.08 1172.78,-74.08"/>
</a>
</g>
</g>
<!-- Node20&#45;&gt;Node14 -->
<g id="edge28_Node000020_Node000014" class="edge">
<title>Node20&#45;&gt;Node14</title>
<g id="a_edge28_Node000020_Node000014"><a xlink:title=" ">
<path fill="none" stroke="#63b8ff" d="M1375.22,-109.84C1344.39,-90.49 1269.9,-43.72 1235.27,-21.97"/>
<polygon fill="#63b8ff" stroke="#63b8ff" points="1230.85,-19.2 1236.28,-19.95 1232.97,-20.53 1235.08,-21.86 1235.08,-21.86 1235.08,-21.86 1232.97,-20.53 1233.89,-23.76 1230.85,-19.2 1230.85,-19.2"/>
</a>
</g>
</g>
<!-- Node21&#45;&gt;Node13 -->
<g id="edge30_Node000021_Node000013" class="edge">
<title>Node21&#45;&gt;Node13</title>
<g id="a_edge30_Node000021_Node000013"><a xlink:title=" ">
<path fill="none" stroke="#63b8ff" d="M1012.65,-109.98C1037.28,-100.73 1076.65,-85.93 1103.14,-75.97"/>
<polygon fill="#63b8ff" stroke="#63b8ff" points="1107.93,-74.17 1104.05,-78.04 1105.59,-75.05 1103.25,-75.93 1103.25,-75.93 1103.25,-75.93 1105.59,-75.05 1102.46,-73.82 1107.93,-74.17 1107.93,-74.17"/>
</a>
</g>
</g>
<!-- Node22&#45;&gt;Node13 -->
<g id="edge32_Node000022_Node000013" class="edge">
<title>Node22&#45;&gt;Node13</title>
<g id="a_edge32_Node000022_Node000013"><a xlink:title=" ">
<path fill="none" stroke="#63b8ff" d="M1620.92,-111.07C1617.9,-110.69 1614.91,-110.33 1612,-110 1461.75,-92.76 1284.49,-77.73 1192.83,-70.35"/>
<polygon fill="#63b8ff" stroke="#63b8ff" points="1187.73,-69.93 1192.89,-68.09 1190.22,-70.14 1192.71,-70.34 1192.71,-70.34 1192.71,-70.34 1190.22,-70.14 1192.53,-72.58 1187.73,-69.93 1187.73,-69.93"/>
</a>
</g>
</g>
<!-- Node22&#45;&gt;Node23 -->
<g id="edge33_Node000022_Node000023" class="edge">
<title>Node22&#45;&gt;Node23</title>
<g id="a_edge33_Node000022_Node000023"><a xlink:title=" ">
<path fill="none" stroke="#63b8ff" d="M1680.61,-109.75C1687.07,-101.18 1696.99,-88.03 1704.34,-78.3"/>
<polygon fill="#63b8ff" stroke="#63b8ff" points="1707.52,-74.09 1706.3,-79.44 1706.01,-76.08 1704.51,-78.08 1704.51,-78.08 1704.51,-78.08 1706.01,-76.08 1702.71,-76.72 1707.52,-74.09 1707.52,-74.09"/>
</a>
</g>
</g>
<!-- Node24&#45;&gt;Node13 -->
<g id="edge35_Node000024_Node000013" class="edge">
<title>Node24&#45;&gt;Node13</title>
<g id="a_edge35_Node000024_Node000013"><a xlink:title=" ">
<path fill="none" stroke="#63b8ff" d="M1131,-109.75C1131,-101.41 1131,-88.74 1131,-79.09"/>
<polygon fill="#63b8ff" stroke="#63b8ff" points="1131,-74.09 1133.25,-79.09 1131,-76.59 1131,-79.09 1131,-79.09 1131,-79.09 1131,-76.59 1128.75,-79.09 1131,-74.09 1131,-74.09"/>
</a>
</g>
</g>
<!-- Node25&#45;&gt;Node13 -->
<g id="edge37_Node000025_Node000013" class="edge">
<title>Node25&#45;&gt;Node13</title>
<g id="a_edge37_Node000025_Node000013"><a xlink:title=" ">
<path fill="none" stroke="#63b8ff" d="M1238.43,-109.98C1216.17,-100.77 1180.64,-86.05 1156.59,-76.1"/>
<polygon fill="#63b8ff" stroke="#63b8ff" points="1151.94,-74.17 1157.42,-74 1154.25,-75.13 1156.56,-76.08 1156.56,-76.08 1156.56,-76.08 1154.25,-75.13 1155.7,-78.16 1151.94,-74.17 1151.94,-74.17"/>
</a>
</g>
</g>
<!-- Node26&#45;&gt;Node6 -->
<g id="edge40_Node000026_Node000006" class="edge">
<title>Node26&#45;&gt;Node6</title>
<g id="a_edge40_Node000026_Node000006"><a xlink:title=" ">
<path fill="none" stroke="#63b8ff" d="M707.37,-109.98C676.99,-100.62 628.22,-85.6 595.89,-75.64"/>
<polygon fill="#63b8ff" stroke="#63b8ff" points="590.85,-74.08 596.29,-73.4 593.24,-74.82 595.63,-75.55 595.63,-75.55 595.63,-75.55 593.24,-74.82 594.97,-77.7 590.85,-74.08 590.85,-74.08"/>
</a>
</g>
</g>
<!-- Node26&#45;&gt;Node13 -->
<g id="edge39_Node000026_Node000013" class="edge">
<title>Node26&#45;&gt;Node13</title>
<g id="a_edge39_Node000026_Node000013"><a xlink:title=" ">
<path fill="none" stroke="#63b8ff" d="M788.1,-111.21C791.11,-110.8 794.09,-110.39 797,-110 891.92,-97.17 1002.05,-82.55 1069.11,-73.67"/>
<polygon fill="#63b8ff" stroke="#63b8ff" points="1074.26,-72.99 1069.6,-75.88 1071.78,-73.32 1069.3,-73.65 1069.3,-73.65 1069.3,-73.65 1071.78,-73.32 1069.01,-71.42 1074.26,-72.99 1074.26,-72.99"/>
</a>
</g>
</g>
<!-- Node26&#45;&gt;Node14 -->
<g id="edge41_Node000026_Node000014" class="edge">
<title>Node26&#45;&gt;Node14</title>
<g id="a_edge41_Node000026_Node000014"><a xlink:title=" ">
<path fill="none" stroke="#63b8ff" d="M773.22,-109.94C865.13,-89.34 1097.29,-37.32 1183.82,-17.94"/>
<polygon fill="#63b8ff" stroke="#63b8ff" points="1188.81,-16.82 1184.42,-20.11 1186.37,-17.36 1183.93,-17.91 1183.93,-17.91 1183.93,-17.91 1186.37,-17.36 1183.44,-15.71 1188.81,-16.82 1188.81,-16.82"/>
</a>
</g>
</g>
<!-- Node27&#45;&gt;Node3 -->
<g id="edge43_Node000027_Node000003" class="edge">
<title>Node27&#45;&gt;Node3</title>
<g id="a_edge43_Node000027_Node000003"><a xlink:title=" ">
<path fill="none" stroke="#63b8ff" d="M391.61,-109.98C374.17,-100.92 346.5,-86.54 327.36,-76.6"/>
<polygon fill="#63b8ff" stroke="#63b8ff" points="322.69,-74.17 328.16,-74.48 324.9,-75.32 327.12,-76.48 327.12,-76.48 327.12,-76.48 324.9,-75.32 326.09,-78.47 322.69,-74.17 322.69,-74.17"/>
</a>
</g>
</g>
<!-- Node27&#45;&gt;Node6 -->
<g id="edge45_Node000027_Node000006" class="edge">
<title>Node27&#45;&gt;Node6</title>
<g id="a_edge45_Node000027_Node000006"><a xlink:title=" ">
<path fill="none" stroke="#63b8ff" d="M432.9,-109.98C460.17,-100.66 503.87,-85.72 533,-75.76"/>
<polygon fill="#63b8ff" stroke="#63b8ff" points="537.9,-74.08 533.9,-77.83 535.54,-74.89 533.17,-75.7 533.17,-75.7 533.17,-75.7 535.54,-74.89 532.44,-73.57 537.9,-74.08 537.9,-74.08"/>
</a>
</g>
</g>
<!-- Node27&#45;&gt;Node7 -->
<g id="edge46_Node000027_Node000007" class="edge">
<title>Node27&#45;&gt;Node7</title>
<g id="a_edge46_Node000027_Node000007"><a xlink:title=" ">
<path fill="none" stroke="#63b8ff" d="M418.5,-109.96C435.03,-96.82 468.51,-71.43 500,-55 527.57,-40.61 560.86,-28.58 585.21,-20.67"/>
<polygon fill="#63b8ff" stroke="#63b8ff" points="590.27,-19.04 586.19,-22.71 587.89,-19.81 585.51,-20.57 585.51,-20.57 585.51,-20.57 587.89,-19.81 584.82,-18.43 590.27,-19.04 590.27,-19.04"/>
</a>
</g>
</g>
<!-- Node28 -->
<g id="Node000028" class="node">
<title>Node28</title>
<g id="a_Node000028"><a xlink:title=" ">
<polygon fill="#e0e0e0" stroke="#999999" points="452.5,-74 363.5,-74 363.5,-55 452.5,-55 452.5,-74"/>
<text text-anchor="middle" x="408" y="-62" font-family="Helvetica,sans-Serif" font-size="10.00">QKeySequence</text>
</a>
</g>
</g>
<!-- Node27&#45;&gt;Node28 -->
<g id="edge44_Node000027_Node000028" class="edge">
<title>Node27&#45;&gt;Node28</title>
<g id="a_edge44_Node000027_Node000028"><a xlink:title=" ">
<path fill="none" stroke="#63b8ff" d="M408,-109.75C408,-101.41 408,-88.74 408,-79.09"/>
<polygon fill="#63b8ff" stroke="#63b8ff" points="408,-74.09 410.25,-79.09 408,-76.59 408,-79.09 408,-79.09 408,-79.09 408,-76.59 405.75,-79.09 408,-74.09 408,-74.09"/>
</a>
</g>
</g>
</g>
</svg>
