<?xml version="1.0" encoding="UTF-8" standalone="no"?>
<!DOCTYPE svg PUBLIC "-//W3C//DTD SVG 1.1//EN"
 "http://www.w3.org/Graphics/SVG/1.1/DTD/svg11.dtd">
<!-- Generated by graphviz version 2.43.0 (0)
 -->
<!-- Title: PasswordHasher::generateRandomSalt Pages: 1 -->
<!--zoomable 253 -->

<svg id="main" version="1.1" xmlns="http://www.w3.org/2000/svg" xmlns:xlink="http://www.w3.org/1999/xlink" xml:space="preserve" onload="init(evt)">
<style type="text/css"><![CDATA[
.node, .edge {opacity: 0.7;}
.node.selected, .edge.selected {opacity: 1;}
.edge:hover path { stroke: red; }
.edge:hover polygon { stroke: red; fill: red; }
]]></style>

<defs>
  <circle id="rim" cx="0" cy="0" r="7"/>
  <circle id="rim2" cx="0" cy="0" r="3.5"/>
  <g id="zoomPlus">
    <use xlink:href="#rim" fill="#404040"><set attributeName="fill" to="#808080" begin="zoomplus.mouseover" end="zoomplus.mouseout"/></use>
    <path d="M-4,0h8M0,-4v8" fill="none" stroke="white" stroke-width="1.5" pointer-events="none"/>
  </g>
  <g id="zoomMin">
    <use xlink:href="#rim" fill="#404040"><set attributeName="fill" to="#808080" begin="zoomminus.mouseover" end="zoomminus.mouseout"/></use>
    <path d="M-4,0h8" fill="none" stroke="white" stroke-width="1.5" pointer-events="none"/>
  </g>
  <g id="arrowUp" transform="translate(30 24)">
    <use xlink:href="#rim"/>
    <path pointer-events="none" fill="none" stroke="white" stroke-width="1.5" d="M0,-3.0v7 M-2.5,-0.5L0,-3.0L2.5,-0.5"/>
  </g>
  <g id="arrowRight" transform="rotate(90) translate(36 -43)">
    <use xlink:href="#rim"/>
    <path pointer-events="none" fill="none" stroke="white" stroke-width="1.5" d="M0,-3.0v7 M-2.5,-0.5L0,-3.0L2.5,-0.5"/>
  </g>
  <g id="arrowDown" transform="rotate(180) translate(-30 -48)">
    <use xlink:href="#rim"/>
    <path pointer-events="none" fill="none" stroke="white" stroke-width="1.5" d="M0,-3.0v7 M-2.5,-0.5L0,-3.0L2.5,-0.5"/>
  </g>
  <g id="arrowLeft" transform="rotate(270) translate(-36 17)">
    <use xlink:href="#rim"/>
    <path pointer-events="none" fill="none" stroke="white" stroke-width="1.5" d="M0,-3.0v7 M-2.5,-0.5L0,-3.0L2.5,-0.5"/>
  </g>
  <g id="resetDef">
    <use xlink:href="#rim2" fill="#404040"><set attributeName="fill" to="#808080" begin="reset.mouseover" end="reset.mouseout"/></use>
  </g>
</defs>
<script type="application/ecmascript">
var viewWidth = 1186;
var viewHeight = 253;
var sectionId = 'dynsection-4';
</script>
<script type="application/ecmascript" xlink:href="../../svg.min.js"/>
<svg id="graph" class="graph">
<g id="viewport">
<title>PasswordHasher::generateRandomSalt</title>
<!-- Node1 -->
<g id="Node000001" class="node">
<title>Node1</title>
<g id="a_Node000001"><a xlink:title=" ">
<polygon fill="#999999" stroke="#666666" points="1178,-116 1032,-116 1032,-86 1178,-86 1178,-116"/>
<text text-anchor="start" x="1040" y="-104" font-family="Helvetica,sans-Serif" font-size="10.00">PasswordHasher::generate</text>
<text text-anchor="middle" x="1105" y="-93" font-family="Helvetica,sans-Serif" font-size="10.00">RandomSalt</text>
</a>
</g>
</g>
<!-- Node2 -->
<g id="Node000002" class="node">
<title>Node2</title>
<g id="a_Node000002"><a xlink:href="../../df/dea/classUserInfoBox.html#a7c8e16a44c73ff22192375cfc34edb68" target="_top" xlink:title=" ">
<polygon fill="white" stroke="#666666" points="996,-222.5 832,-222.5 832,-203.5 996,-203.5 996,-222.5"/>
<text text-anchor="middle" x="914" y="-210.5" font-family="Helvetica,sans-Serif" font-size="10.00">UserInfoBox::changePassword</text>
</a>
</g>
</g>
<!-- Node1&#45;&gt;Node2 -->
<g id="edge1_Node000001_Node000002" class="edge">
<title>Node1&#45;&gt;Node2</title>
<g id="a_edge1_Node000001_Node000002"><a xlink:title=" ">
<path fill="none" stroke="#63b8ff" d="M1078.84,-119.12C1057.32,-134.29 1025.28,-156.11 996,-173 976.3,-184.37 952.93,-195.69 936.37,-203.37"/>
<polygon fill="#63b8ff" stroke="#63b8ff" points="1083,-116.18 1080.22,-120.9 1080.96,-117.62 1078.92,-119.07 1078.92,-119.07 1078.92,-119.07 1080.96,-117.62 1077.62,-117.23 1083,-116.18 1083,-116.18"/>
</a>
</g>
</g>
<!-- Node5 -->
<g id="Node000005" class="node">
<title>Node5</title>
<g id="a_Node000005"><a xlink:href="../../d3/d76/classServatrice__DatabaseInterface.html#a04148eb963ea802d910c16ffcaa98600" target="_top" xlink:title=" ">
<polygon fill="white" stroke="#666666" points="994.5,-164 833.5,-164 833.5,-134 994.5,-134 994.5,-164"/>
<text text-anchor="start" x="841.5" y="-152" font-family="Helvetica,sans-Serif" font-size="10.00">Servatrice_DatabaseInterface</text>
<text text-anchor="middle" x="914" y="-141" font-family="Helvetica,sans-Serif" font-size="10.00">::changeUserPassword</text>
</a>
</g>
</g>
<!-- Node1&#45;&gt;Node5 -->
<g id="edge4_Node000001_Node000005" class="edge">
<title>Node1&#45;&gt;Node5</title>
<g id="a_edge4_Node000001_Node000005"><a xlink:title=" ">
<path fill="none" stroke="#63b8ff" d="M1039.66,-117.34C1018.41,-122.74 994.9,-128.71 974.07,-134"/>
<polygon fill="#63b8ff" stroke="#63b8ff" points="1044.72,-116.06 1040.43,-119.47 1042.29,-116.67 1039.87,-117.29 1039.87,-117.29 1039.87,-117.29 1042.29,-116.67 1039.32,-115.11 1044.72,-116.06 1044.72,-116.06"/>
</a>
</g>
</g>
<!-- Node9 -->
<g id="Node000009" class="node">
<title>Node9</title>
<g id="a_Node000009"><a xlink:href="../../d0/d46/classPasswordHasher.html#a88207a6000304d68d3b4ec13bb000192" target="_top" xlink:title=" ">
<polygon fill="white" stroke="#666666" points="987,-116 841,-116 841,-86 987,-86 987,-116"/>
<text text-anchor="start" x="849" y="-104" font-family="Helvetica,sans-Serif" font-size="10.00">PasswordHasher::generate</text>
<text text-anchor="middle" x="914" y="-93" font-family="Helvetica,sans-Serif" font-size="10.00">ActivationToken</text>
</a>
</g>
</g>
<!-- Node1&#45;&gt;Node9 -->
<g id="edge8_Node000001_Node000009" class="edge">
<title>Node1&#45;&gt;Node9</title>
<g id="a_edge8_Node000001_Node000009"><a xlink:title=" ">
<path fill="none" stroke="#63b8ff" d="M1026.58,-101C1013.56,-101 1000.1,-101 987.22,-101"/>
<polygon fill="#63b8ff" stroke="#63b8ff" points="1031.74,-101 1026.74,-103.25 1029.24,-101 1026.74,-101 1026.74,-101 1026.74,-101 1029.24,-101 1026.74,-98.75 1031.74,-101 1031.74,-101"/>
</a>
</g>
</g>
<!-- Node14 -->
<g id="Node000014" class="node">
<title>Node14</title>
<g id="a_Node000014"><a xlink:href="../../d3/d76/classServatrice__DatabaseInterface.html#ad9d4d248a2b712c791a7c5b5e026dfca" target="_top" xlink:title=" ">
<polygon fill="white" stroke="#666666" points="796,-73 635,-73 635,-43 796,-43 796,-73"/>
<text text-anchor="start" x="643" y="-61" font-family="Helvetica,sans-Serif" font-size="10.00">Servatrice_DatabaseInterface</text>
<text text-anchor="middle" x="715.5" y="-50" font-family="Helvetica,sans-Serif" font-size="10.00">::registerUser</text>
</a>
</g>
</g>
<!-- Node1&#45;&gt;Node14 -->
<g id="edge20_Node000001_Node000014" class="edge">
<title>Node1&#45;&gt;Node14</title>
<g id="a_edge20_Node000001_Node000014"><a xlink:title=" ">
<path fill="none" stroke="#63b8ff" d="M1038.89,-84.87C1024.82,-81.85 1009.97,-79.02 996,-77 928.97,-67.33 852.16,-62.56 796.05,-60.22"/>
<polygon fill="#63b8ff" stroke="#63b8ff" points="1044.03,-85.99 1038.67,-87.12 1041.59,-85.46 1039.15,-84.93 1039.15,-84.93 1039.15,-84.93 1041.59,-85.46 1039.62,-82.73 1044.03,-85.99 1044.03,-85.99"/>
</a>
</g>
</g>
<!-- Node16 -->
<g id="Node000016" class="node">
<title>Node16</title>
<g id="a_Node000016"><a xlink:href="../../db/d53/classRemoteClient.html#a1dacfbdba8d2bf0eb618cd4cba40d6b5" target="_top" xlink:title=" ">
<polygon fill="white" stroke="#666666" points="993,-30 835,-30 835,0 993,0 993,-30"/>
<text text-anchor="start" x="843" y="-18" font-family="Helvetica,sans-Serif" font-size="10.00">RemoteClient::processServer</text>
<text text-anchor="middle" x="914" y="-7" font-family="Helvetica,sans-Serif" font-size="10.00">IdentificationEvent</text>
</a>
</g>
</g>
<!-- Node1&#45;&gt;Node16 -->
<g id="edge18_Node000001_Node000016" class="edge">
<title>Node1&#45;&gt;Node16</title>
<g id="a_edge18_Node000001_Node000016"><a xlink:title=" ">
<path fill="none" stroke="#63b8ff" d="M1073.46,-83.39C1052.14,-71.47 1022.81,-55.8 996,-44 984.79,-39.06 972.45,-34.32 960.86,-30.14"/>
<polygon fill="#63b8ff" stroke="#63b8ff" points="1077.89,-85.88 1072.43,-85.39 1075.71,-84.65 1073.53,-83.43 1073.53,-83.43 1073.53,-83.43 1075.71,-84.65 1074.63,-81.47 1077.89,-85.88 1077.89,-85.88"/>
</a>
</g>
</g>
<!-- Node3 -->
<g id="Node000003" class="node">
<title>Node3</title>
<g id="a_Node000003"><a xlink:href="../../df/dea/classUserInfoBox.html#a8557d535c7653201a4e0331f7495d642" target="_top" xlink:title=" ">
<polygon fill="white" stroke="#666666" points="787,-244.5 644,-244.5 644,-225.5 787,-225.5 787,-244.5"/>
<text text-anchor="middle" x="715.5" y="-232.5" font-family="Helvetica,sans-Serif" font-size="10.00">UserInfoBox::actPassword</text>
</a>
</g>
</g>
<!-- Node2&#45;&gt;Node3 -->
<g id="edge2_Node000002_Node000003" class="edge">
<title>Node2&#45;&gt;Node3</title>
<g id="a_edge2_Node000002_Node000003"><a xlink:title=" ">
<path fill="none" stroke="#63b8ff" d="M826.68,-222.66C813.43,-224.15 799.88,-225.67 787.02,-227.1"/>
<polygon fill="#63b8ff" stroke="#63b8ff" points="831.94,-222.08 827.22,-224.87 829.46,-222.35 826.97,-222.63 826.97,-222.63 826.97,-222.63 829.46,-222.35 826.72,-220.4 831.94,-222.08 831.94,-222.08"/>
</a>
</g>
</g>
<!-- Node4 -->
<g id="Node000004" class="node">
<title>Node4</title>
<g id="a_Node000004"><a xlink:href="../../df/dea/classUserInfoBox.html#a2b4c020723194ff4c0ed037487c52001" target="_top" xlink:title=" ">
<polygon fill="white" stroke="#666666" points="588.5,-244.5 445.5,-244.5 445.5,-225.5 588.5,-225.5 588.5,-244.5"/>
<text text-anchor="middle" x="517" y="-232.5" font-family="Helvetica,sans-Serif" font-size="10.00">UserInfoBox::UserInfoBox</text>
</a>
</g>
</g>
<!-- Node3&#45;&gt;Node4 -->
<g id="edge3_Node000003_Node000004" class="edge">
<title>Node3&#45;&gt;Node4</title>
<g id="a_edge3_Node000003_Node000004"><a xlink:title=" ">
<path fill="none" stroke="#63b8ff" d="M638.76,-235C622.3,-235 604.95,-235 588.7,-235"/>
<polygon fill="#63b8ff" stroke="#63b8ff" points="643.84,-235 638.84,-237.25 641.34,-235 638.84,-235 638.84,-235 638.84,-235 641.34,-235 638.84,-232.75 643.84,-235 643.84,-235"/>
</a>
</g>
</g>
<!-- Node6 -->
<g id="Node000006" class="node">
<title>Node6</title>
<g id="a_Node000006"><a xlink:href="../../d3/d76/classServatrice__DatabaseInterface.html#a7fede6bcac17a840ba691adc5efbe94f" target="_top" xlink:title=" ">
<polygon fill="white" stroke="#666666" points="796,-207 635,-207 635,-177 796,-177 796,-207"/>
<text text-anchor="start" x="643" y="-195" font-family="Helvetica,sans-Serif" font-size="10.00">Servatrice_DatabaseInterface</text>
<text text-anchor="middle" x="715.5" y="-184" font-family="Helvetica,sans-Serif" font-size="10.00">::changeUserPassword</text>
</a>
</g>
</g>
<!-- Node5&#45;&gt;Node6 -->
<g id="edge5_Node000005_Node000006" class="edge">
<title>Node5&#45;&gt;Node6</title>
<g id="a_edge5_Node000005_Node000006"><a xlink:title=" ">
<path fill="none" stroke="#63b8ff" d="M839.3,-165.13C821.57,-169.01 802.69,-173.14 785.19,-176.97"/>
<polygon fill="#63b8ff" stroke="#63b8ff" points="844.27,-164.04 839.87,-167.31 841.83,-164.57 839.39,-165.11 839.39,-165.11 839.39,-165.11 841.83,-164.57 838.91,-162.91 844.27,-164.04 844.27,-164.04"/>
</a>
</g>
</g>
<!-- Node7 -->
<g id="Node000007" class="node">
<title>Node7</title>
<g id="a_Node000007"><a xlink:href="../../dd/dea/classAbstractServerSocketInterface.html#acfc7c63d6755bacc618b1bd1a6c0a1bb" target="_top" xlink:title=" ">
<polygon fill="white" stroke="#666666" points="396.5,-180 232.5,-180 232.5,-150 396.5,-150 396.5,-180"/>
<text text-anchor="start" x="240.5" y="-168" font-family="Helvetica,sans-Serif" font-size="10.00">AbstractServerSocketInterface</text>
<text text-anchor="middle" x="314.5" y="-157" font-family="Helvetica,sans-Serif" font-size="10.00">::cmdForgotPasswordReset</text>
</a>
</g>
</g>
<!-- Node5&#45;&gt;Node7 -->
<g id="edge6_Node000005_Node000007" class="edge">
<title>Node5&#45;&gt;Node7</title>
<g id="a_edge6_Node000005_Node000007"><a xlink:title=" ">
<path fill="none" stroke="#63b8ff" d="M828.28,-151.27C713.36,-154.35 509.48,-159.81 396.51,-162.83"/>
<polygon fill="#63b8ff" stroke="#63b8ff" points="833.35,-151.13 828.41,-153.52 830.85,-151.2 828.35,-151.27 828.35,-151.27 828.35,-151.27 830.85,-151.2 828.29,-149.02 833.35,-151.13 833.35,-151.13"/>
</a>
</g>
</g>
<!-- Node8 -->
<g id="Node000008" class="node">
<title>Node8</title>
<g id="a_Node000008"><a xlink:href="../../dd/dea/classAbstractServerSocketInterface.html#a108f2aeec6a9aa4cf7cc58903d5d4b50" target="_top" xlink:title=" ">
<polygon fill="white" stroke="#666666" points="194,-108 0,-108 0,-78 194,-78 194,-108"/>
<text text-anchor="start" x="8" y="-96" font-family="Helvetica,sans-Serif" font-size="10.00">AbstractServerSocketInterface</text>
<text text-anchor="middle" x="97" y="-85" font-family="Helvetica,sans-Serif" font-size="10.00">::processExtendedSessionCommand</text>
</a>
</g>
</g>
<!-- Node7&#45;&gt;Node8 -->
<g id="edge7_Node000007_Node000008" class="edge">
<title>Node7&#45;&gt;Node8</title>
<g id="a_edge7_Node000007_Node000008"><a xlink:title=" ">
<path fill="none" stroke="#63b8ff" d="M253.97,-148.43C245.89,-146.03 237.72,-143.51 230,-141 198.58,-130.78 163.44,-117.94 137.32,-108.1"/>
<polygon fill="#63b8ff" stroke="#63b8ff" points="258.99,-149.92 253.55,-150.66 256.59,-149.21 254.19,-148.5 254.19,-148.5 254.19,-148.5 256.59,-149.21 254.83,-146.34 258.99,-149.92 258.99,-149.92"/>
</a>
</g>
</g>
<!-- Node10 -->
<g id="Node000010" class="node">
<title>Node10</title>
<g id="a_Node000010"><a xlink:href="../../d3/d76/classServatrice__DatabaseInterface.html#ad57c24c6e2fd003fe6c9259fd82fe7f3" target="_top" xlink:title=" ">
<polygon fill="white" stroke="#666666" points="796,-121 635,-121 635,-91 796,-91 796,-121"/>
<text text-anchor="start" x="643" y="-109" font-family="Helvetica,sans-Serif" font-size="10.00">Servatrice_DatabaseInterface</text>
<text text-anchor="middle" x="715.5" y="-98" font-family="Helvetica,sans-Serif" font-size="10.00">::addForgotPassword</text>
</a>
</g>
</g>
<!-- Node9&#45;&gt;Node10 -->
<g id="edge9_Node000009_Node000010" class="edge">
<title>Node9&#45;&gt;Node10</title>
<g id="a_edge9_Node000009_Node000010"><a xlink:title=" ">
<path fill="none" stroke="#63b8ff" d="M835.79,-102.96C822.78,-103.3 809.25,-103.64 796.17,-103.97"/>
<polygon fill="#63b8ff" stroke="#63b8ff" points="840.95,-102.83 836.01,-105.21 838.45,-102.9 835.95,-102.96 835.95,-102.96 835.95,-102.96 838.45,-102.9 835.89,-100.71 840.95,-102.83 840.95,-102.83"/>
</a>
</g>
</g>
<!-- Node9&#45;&gt;Node14 -->
<g id="edge15_Node000009_Node000014" class="edge">
<title>Node9&#45;&gt;Node14</title>
<g id="a_edge15_Node000009_Node000014"><a xlink:title=" ">
<path fill="none" stroke="#63b8ff" d="M839.3,-84.87C821.57,-80.99 802.69,-76.86 785.19,-73.03"/>
<polygon fill="#63b8ff" stroke="#63b8ff" points="844.27,-85.96 838.91,-87.09 841.83,-85.43 839.39,-84.89 839.39,-84.89 839.39,-84.89 841.83,-85.43 839.87,-82.69 844.27,-85.96 844.27,-85.96"/>
</a>
</g>
</g>
<!-- Node11 -->
<g id="Node000011" class="node">
<title>Node11</title>
<g id="a_Node000011"><a xlink:href="../../dd/dea/classAbstractServerSocketInterface.html#ae1b687fb9b598c55872a26fc8c81a413" target="_top" xlink:title=" ">
<polygon fill="white" stroke="#666666" points="599,-121 435,-121 435,-91 599,-91 599,-121"/>
<text text-anchor="start" x="443" y="-109" font-family="Helvetica,sans-Serif" font-size="10.00">AbstractServerSocketInterface</text>
<text text-anchor="middle" x="517" y="-98" font-family="Helvetica,sans-Serif" font-size="10.00">::continuePasswordRequest</text>
</a>
</g>
</g>
<!-- Node10&#45;&gt;Node11 -->
<g id="edge10_Node000010_Node000011" class="edge">
<title>Node10&#45;&gt;Node11</title>
<g id="a_edge10_Node000010_Node000011"><a xlink:title=" ">
<path fill="none" stroke="#63b8ff" d="M629.86,-106C619.63,-106 609.2,-106 599.03,-106"/>
<polygon fill="#63b8ff" stroke="#63b8ff" points="634.86,-106 629.86,-108.25 632.36,-106 629.86,-106 629.86,-106 629.86,-106 632.36,-106 629.86,-103.75 634.86,-106 634.86,-106"/>
</a>
</g>
</g>
<!-- Node12 -->
<g id="Node000012" class="node">
<title>Node12</title>
<g id="a_Node000012"><a xlink:href="../../dd/dea/classAbstractServerSocketInterface.html#a80bbb9176de96d50819977e94a77b50a" target="_top" xlink:title=" ">
<polygon fill="white" stroke="#666666" points="399,-132 230,-132 230,-102 399,-102 399,-132"/>
<text text-anchor="start" x="238" y="-120" font-family="Helvetica,sans-Serif" font-size="10.00">AbstractServerSocketInterface</text>
<text text-anchor="middle" x="314.5" y="-109" font-family="Helvetica,sans-Serif" font-size="10.00">::cmdForgotPasswordChallenge</text>
</a>
</g>
</g>
<!-- Node11&#45;&gt;Node12 -->
<g id="edge11_Node000011_Node000012" class="edge">
<title>Node11&#45;&gt;Node12</title>
<g id="a_edge11_Node000011_Node000012"><a xlink:title=" ">
<path fill="none" stroke="#63b8ff" d="M429.5,-110.75C419.43,-111.3 409.18,-111.86 399.16,-112.41"/>
<polygon fill="#63b8ff" stroke="#63b8ff" points="434.74,-110.46 429.87,-112.98 432.24,-110.6 429.75,-110.73 429.75,-110.73 429.75,-110.73 432.24,-110.6 429.62,-108.49 434.74,-110.46 434.74,-110.46"/>
</a>
</g>
</g>
<!-- Node13 -->
<g id="Node000013" class="node">
<title>Node13</title>
<g id="a_Node000013"><a xlink:href="../../dd/dea/classAbstractServerSocketInterface.html#a9427490c50a0248c8c4f7edc36e56159" target="_top" xlink:title=" ">
<polygon fill="white" stroke="#666666" points="396.5,-84 232.5,-84 232.5,-54 396.5,-54 396.5,-84"/>
<text text-anchor="start" x="240.5" y="-72" font-family="Helvetica,sans-Serif" font-size="10.00">AbstractServerSocketInterface</text>
<text text-anchor="middle" x="314.5" y="-61" font-family="Helvetica,sans-Serif" font-size="10.00">::cmdForgotPasswordRequest</text>
</a>
</g>
</g>
<!-- Node11&#45;&gt;Node13 -->
<g id="edge13_Node000011_Node000013" class="edge">
<title>Node11&#45;&gt;Node13</title>
<g id="a_edge13_Node000011_Node000013"><a xlink:title=" ">
<path fill="none" stroke="#63b8ff" d="M429.7,-90.07C418.7,-88.04 407.47,-85.97 396.55,-83.96"/>
<polygon fill="#63b8ff" stroke="#63b8ff" points="434.74,-91 429.41,-92.31 432.28,-90.55 429.82,-90.1 429.82,-90.1 429.82,-90.1 432.28,-90.55 430.23,-87.88 434.74,-91 434.74,-91"/>
</a>
</g>
</g>
<!-- Node12&#45;&gt;Node8 -->
<g id="edge12_Node000012_Node000008" class="edge">
<title>Node12&#45;&gt;Node8</title>
<g id="a_edge12_Node000012_Node000008"><a xlink:title=" ">
<path fill="none" stroke="#63b8ff" d="M224.63,-107.1C214.57,-105.98 204.28,-104.84 194.13,-103.71"/>
<polygon fill="#63b8ff" stroke="#63b8ff" points="229.87,-107.69 224.66,-109.37 227.39,-107.41 224.9,-107.13 224.9,-107.13 224.9,-107.13 227.39,-107.41 225.15,-104.9 229.87,-107.69 229.87,-107.69"/>
</a>
</g>
</g>
<!-- Node13&#45;&gt;Node8 -->
<g id="edge14_Node000013_Node000008" class="edge">
<title>Node13&#45;&gt;Node8</title>
<g id="a_edge14_Node000013_Node000008"><a xlink:title=" ">
<path fill="none" stroke="#63b8ff" d="M227.07,-78.63C216.3,-79.82 205.23,-81.06 194.32,-82.27"/>
<polygon fill="#63b8ff" stroke="#63b8ff" points="232.34,-78.04 227.62,-80.83 229.85,-78.32 227.37,-78.59 227.37,-78.59 227.37,-78.59 229.85,-78.32 227.12,-76.36 232.34,-78.04 232.34,-78.04"/>
</a>
</g>
</g>
<!-- Node15 -->
<g id="Node000015" class="node">
<title>Node15</title>
<g id="a_Node000015"><a xlink:href="../../dd/dea/classAbstractServerSocketInterface.html#a0d92d407ae6471003d73f484db54c718" target="_top" xlink:title=" ">
<polygon fill="white" stroke="#666666" points="599,-62 435,-62 435,-32 599,-32 599,-62"/>
<text text-anchor="start" x="443" y="-50" font-family="Helvetica,sans-Serif" font-size="10.00">AbstractServerSocketInterface</text>
<text text-anchor="middle" x="517" y="-39" font-family="Helvetica,sans-Serif" font-size="10.00">::cmdRegisterAccount</text>
</a>
</g>
</g>
<!-- Node14&#45;&gt;Node15 -->
<g id="edge16_Node000014_Node000015" class="edge">
<title>Node14&#45;&gt;Node15</title>
<g id="a_edge16_Node000014_Node000015"><a xlink:title=" ">
<path fill="none" stroke="#63b8ff" d="M629.86,-53.26C619.63,-52.69 609.2,-52.11 599.03,-51.54"/>
<polygon fill="#63b8ff" stroke="#63b8ff" points="634.86,-53.54 629.74,-55.51 632.36,-53.4 629.87,-53.26 629.87,-53.26 629.87,-53.26 632.36,-53.4 629.99,-51.02 634.86,-53.54 634.86,-53.54"/>
</a>
</g>
</g>
<!-- Node15&#45;&gt;Node8 -->
<g id="edge17_Node000015_Node000008" class="edge">
<title>Node15&#45;&gt;Node8</title>
<g id="a_edge17_Node000015_Node000008"><a xlink:title=" ">
<path fill="none" stroke="#63b8ff" d="M429.79,-38.34C372.68,-34.57 296.34,-33.31 230,-45 194.46,-51.26 155.89,-66.33 129.68,-77.92"/>
<polygon fill="#63b8ff" stroke="#63b8ff" points="434.91,-38.69 429.77,-40.6 432.42,-38.52 429.92,-38.35 429.92,-38.35 429.92,-38.35 432.42,-38.52 430.08,-36.11 434.91,-38.69 434.91,-38.69"/>
</a>
</g>
</g>
<!-- Node17 -->
<g id="Node000017" class="node">
<title>Node17</title>
<g id="a_Node000017"><a xlink:href="../../db/d53/classRemoteClient.html#a37f95399d855ffda07836178e244cce7" target="_top" xlink:title=" ">
<polygon fill="white" stroke="#666666" points="793.5,-24.5 637.5,-24.5 637.5,-5.5 793.5,-5.5 793.5,-24.5"/>
<text text-anchor="middle" x="715.5" y="-12.5" font-family="Helvetica,sans-Serif" font-size="10.00">RemoteClient::RemoteClient</text>
</a>
</g>
</g>
<!-- Node16&#45;&gt;Node17 -->
<g id="edge19_Node000016_Node000017" class="edge">
<title>Node16&#45;&gt;Node17</title>
<g id="a_edge19_Node000016_Node000017"><a xlink:title=" ">
<path fill="none" stroke="#63b8ff" d="M829.69,-15C817.79,-15 805.59,-15 793.82,-15"/>
<polygon fill="#63b8ff" stroke="#63b8ff" points="834.77,-15 829.77,-17.25 832.27,-15 829.77,-15 829.77,-15 829.77,-15 832.27,-15 829.77,-12.75 834.77,-15 834.77,-15"/>
</a>
</g>
</g>
</g>
</svg>

<g id="navigator" transform="translate(0 0)" fill="#404254">
  <rect fill="#f2f5e9" fill-opacity="0.5" stroke="#606060" stroke-width=".5" x="0" y="0" width="60" height="60"/>
  <use id="zoomplus" xlink:href="#zoomPlus" x="17" y="9" onmousedown="handleZoom(evt,'in')"/>
  <use id="zoomminus" xlink:href="#zoomMin" x="42" y="9" onmousedown="handleZoom(evt,'out')"/>
  <use id="reset" xlink:href="#resetDef" x="30" y="36" onmousedown="handleReset()"/>
   <use id="arrowup" xlink:href="#arrowUp" x="0" y="0" onmousedown="handlePan(0,-1)"/>
  <use id="arrowright" xlink:href="#arrowRight" x="0" y="0" onmousedown="handlePan(1,0)"/>
  <use id="arrowdown" xlink:href="#arrowDown" x="0" y="0" onmousedown="handlePan(0,1)"/>
  <use id="arrowleft" xlink:href="#arrowLeft" x="0" y="0" onmousedown="handlePan(-1,0)"/>
</g>
<svg viewBox="0 0 15 15" width="100%" height="30px" preserveAspectRatio="xMaxYMin meet">
 <g id="arrow_out" transform="scale(0.3 0.3)">
  <a xlink:href="classPasswordHasher_a46cffad047f795f99a0a58ceaf112b2f_icgraph_org.svg" target="_base">
   <rect id="button" ry="5" rx="5" y="6" x="6" height="38" width="38"
        fill="#f2f5e9" fill-opacity="0.5" stroke="#606060" stroke-width="1.0"/>
   <path id="arrow"
     d="M 11.500037,31.436501 C 11.940474,20.09759 22.043105,11.32322 32.158766,21.979434 L 37.068811,17.246167 C 37.068811,17.246167 37.088388,32 37.088388,32 L 22.160133,31.978069 C 22.160133,31.978069 26.997745,27.140456 26.997745,27.140456 C 18.528582,18.264221 13.291696,25.230495 11.500037,31.436501 z"
     style="fill:#404040;"/>
  </a>
 </g>
</svg>

<style type='text/css'>
<![CDATA[
[data-mouse-over-selected='false'] { opacity: 0.7; }
[data-mouse-over-selected='true']  { opacity: 1.0; }
]]>
</style>
<script type="application/ecmascript"><![CDATA[
document.addEventListener('DOMContentLoaded', (event) => {
  highlightEdges();
  highlightAdjacentNodes();
});
]]></script>
</svg>
