<?xml version="1.0" encoding="UTF-8" standalone="no"?>
<!DOCTYPE svg PUBLIC "-//W3C//DTD SVG 1.1//EN"
 "http://www.w3.org/Graphics/SVG/1.1/DTD/svg11.dtd">
<!-- Generated by graphviz version 2.43.0 (0)
 -->
<!-- Title: ColorIdentityWidget::toggleUnusedVisibility Pages: 1 -->
<svg width="297pt" height="86pt"
 viewBox="0.00 0.00 297.00 86.00" xmlns="http://www.w3.org/2000/svg" xmlns:xlink="http://www.w3.org/1999/xlink">

<svg id="main" version="1.1" xmlns="http://www.w3.org/2000/svg" xmlns:xlink="http://www.w3.org/1999/xlink" xml:space="preserve">

<style type="text/css"><![CDATA[
.node, .edge {opacity: 0.7;}
.node.selected, .edge.selected {opacity: 1;}
.edge:hover path { stroke: red; }
.edge:hover polygon { stroke: red; fill: red; }
]]></style>
<script type="application/ecmascript" xlink:href="../../svg.min.js"/>
<svg id="graph" class="graph">
<g id="graph0" class="graph" transform="scale(1 1) rotate(0) translate(4 82)">
<title>ColorIdentityWidget::toggleUnusedVisibility</title>
<!-- Node1 -->
<g id="Node000001" class="node">
<title>Node1</title>
<g id="a_Node000001"><a xlink:title=" ">
<polygon fill="#999999" stroke="#666666" points="289,-54 156,-54 156,-24 289,-24 289,-54"/>
<text text-anchor="start" x="164" y="-42" font-family="Helvetica,sans-Serif" font-size="10.00">ColorIdentityWidget</text>
<text text-anchor="middle" x="222.5" y="-31" font-family="Helvetica,sans-Serif" font-size="10.00">::toggleUnusedVisibility</text>
</a>
</g>
</g>
<!-- Node2 -->
<g id="Node000002" class="node">
<title>Node2</title>
<g id="a_Node000002"><a xlink:href="../../d7/d30/classColorIdentityWidget.html#accd10de74ca26fda9df3434b1dae3dbc" target="_top" xlink:title=" ">
<polygon fill="white" stroke="#666666" points="120,-78 0,-78 0,-48 120,-48 120,-78"/>
<text text-anchor="start" x="8" y="-66" font-family="Helvetica,sans-Serif" font-size="10.00">ColorIdentityWidget</text>
<text text-anchor="middle" x="60" y="-55" font-family="Helvetica,sans-Serif" font-size="10.00">::ColorIdentityWidget</text>
</a>
</g>
</g>
<!-- Node1&#45;&gt;Node2 -->
<g id="edge1_Node000001_Node000002" class="edge">
<title>Node1&#45;&gt;Node2</title>
<g id="a_edge1_Node000001_Node000002"><a xlink:title=" ">
<path fill="none" stroke="#63b8ff" d="M150.77,-49.58C140.56,-51.1 130.15,-52.66 120.2,-54.15"/>
<polygon fill="#63b8ff" stroke="#63b8ff" points="155.76,-48.83 151.14,-51.8 153.28,-49.2 150.81,-49.57 150.81,-49.57 150.81,-49.57 153.28,-49.2 150.48,-47.35 155.76,-48.83 155.76,-48.83"/>
</a>
</g>
</g>
<!-- Node3 -->
<g id="Node000003" class="node">
<title>Node3</title>
<g id="a_Node000003"><a xlink:href="../../d7/d30/classColorIdentityWidget.html#a6e3fc8026a43699ff21c084a617357f3" target="_top" xlink:title=" ">
<polygon fill="white" stroke="#666666" points="120,-30 0,-30 0,0 120,0 120,-30"/>
<text text-anchor="start" x="8" y="-18" font-family="Helvetica,sans-Serif" font-size="10.00">ColorIdentityWidget</text>
<text text-anchor="middle" x="60" y="-7" font-family="Helvetica,sans-Serif" font-size="10.00">::ColorIdentityWidget</text>
</a>
</g>
</g>
<!-- Node1&#45;&gt;Node3 -->
<g id="edge2_Node000001_Node000003" class="edge">
<title>Node1&#45;&gt;Node3</title>
<g id="a_edge2_Node000001_Node000003"><a xlink:title=" ">
<path fill="none" stroke="#63b8ff" d="M150.77,-28.42C140.56,-26.9 130.15,-25.34 120.2,-23.85"/>
<polygon fill="#63b8ff" stroke="#63b8ff" points="155.76,-29.17 150.48,-30.65 153.28,-28.8 150.81,-28.43 150.81,-28.43 150.81,-28.43 153.28,-28.8 151.14,-26.2 155.76,-29.17 155.76,-29.17"/>
</a>
</g>
</g>
</g>
</svg>
</svg>

<style type='text/css'>
<![CDATA[
[data-mouse-over-selected='false'] { opacity: 0.7; }
[data-mouse-over-selected='true']  { opacity: 1.0; }
]]>
</style>
<script type="application/ecmascript"><![CDATA[
document.addEventListener('DOMContentLoaded', (event) => {
  highlightEdges();
  highlightAdjacentNodes();
});
]]></script>
</svg>
