<?xml version="1.0" encoding="UTF-8" standalone="no"?>
<!DOCTYPE svg PUBLIC "-//W3C//DTD SVG 1.1//EN"
 "http://www.w3.org/Graphics/SVG/1.1/DTD/svg11.dtd">
<!-- Generated by graphviz version 2.43.0 (0)
 -->
<!-- Title: cockatrice/src/interface/widgets/deck_editor/deck_editor_filter_dock_widget.cpp Pages: 1 -->
<svg width="4281pt" height="357pt"
 viewBox="0.00 0.00 4281.00 357.00" xmlns="http://www.w3.org/2000/svg" xmlns:xlink="http://www.w3.org/1999/xlink">
<g id="graph0" class="graph" transform="scale(1 1) rotate(0) translate(4 353)">
<title>cockatrice/src/interface/widgets/deck_editor/deck_editor_filter_dock_widget.cpp</title>
<!-- Node1 -->
<g id="Node000001" class="node">
<title>Node1</title>
<g id="a_Node000001"><a xlink:title=" ">
<polygon fill="#999999" stroke="#666666" points="3943,-349 3778,-349 3778,-308 3943,-308 3943,-349"/>
<text text-anchor="start" x="3786" y="-337" font-family="Helvetica,sans-Serif" font-size="10.00">cockatrice/src/interface</text>
<text text-anchor="start" x="3786" y="-326" font-family="Helvetica,sans-Serif" font-size="10.00">/widgets/deck_editor/deck</text>
<text text-anchor="middle" x="3860.5" y="-315" font-family="Helvetica,sans-Serif" font-size="10.00">_editor_filter_dock_widget.cpp</text>
</a>
</g>
</g>
<!-- Node2 -->
<g id="Node000002" class="node">
<title>Node2</title>
<g id="a_Node000002"><a xlink:href="../../dc/d32/deck__editor__filter__dock__widget_8h.html" target="_top" xlink:title="A Deck Editor DockWidget that displays and allows modifying filters applied to the CardDatabaseDispla...">
<polygon fill="white" stroke="#666666" points="1395,-266.5 1294,-266.5 1294,-236.5 1395,-236.5 1395,-266.5"/>
<text text-anchor="start" x="1302" y="-254.5" font-family="Helvetica,sans-Serif" font-size="10.00">deck_editor_filter</text>
<text text-anchor="middle" x="1344.5" y="-243.5" font-family="Helvetica,sans-Serif" font-size="10.00">_dock_widget.h</text>
</a>
</g>
</g>
<!-- Node1&#45;&gt;Node2 -->
<g id="edge1_Node000001_Node000002" class="edge">
<title>Node1&#45;&gt;Node2</title>
<g id="a_edge1_Node000001_Node000002"><a xlink:title=" ">
<path fill="none" stroke="#63b8ff" d="M3777.86,-325.04C3386.66,-313.38 1726.24,-263.88 1400.19,-254.16"/>
<polygon fill="#63b8ff" stroke="#63b8ff" points="1395.03,-254.01 1400.09,-251.91 1397.53,-254.08 1400.03,-254.16 1400.03,-254.16 1400.03,-254.16 1397.53,-254.08 1399.96,-256.4 1395.03,-254.01 1395.03,-254.01"/>
</a>
</g>
</g>
<!-- Node19 -->
<g id="Node000019" class="node">
<title>Node19</title>
<g id="a_Node000019"><a xlink:href="../../dc/db3/cache__settings_8h.html" target="_top" xlink:title="TODO: Document this.">
<polygon fill="white" stroke="#666666" points="2533,-266.5 2420,-266.5 2420,-236.5 2533,-236.5 2533,-266.5"/>
<text text-anchor="start" x="2428" y="-254.5" font-family="Helvetica,sans-Serif" font-size="10.00">../../../client/settings</text>
<text text-anchor="middle" x="2476.5" y="-243.5" font-family="Helvetica,sans-Serif" font-size="10.00">/cache_settings.h</text>
</a>
</g>
</g>
<!-- Node1&#45;&gt;Node19 -->
<g id="edge18_Node000001_Node000019" class="edge">
<title>Node1&#45;&gt;Node19</title>
<g id="a_edge18_Node000001_Node000019"><a xlink:title=" ">
<path fill="none" stroke="#63b8ff" d="M3777.81,-323.02C3524.21,-309.28 2761.13,-267.92 2538.25,-255.85"/>
<polygon fill="#63b8ff" stroke="#63b8ff" points="2533.09,-255.57 2538.2,-253.59 2535.59,-255.7 2538.08,-255.84 2538.08,-255.84 2538.08,-255.84 2535.59,-255.7 2537.96,-258.08 2533.09,-255.57 2533.09,-255.57"/>
</a>
</g>
</g>
<!-- Node40 -->
<g id="Node000040" class="node">
<title>Node40</title>
<g id="a_Node000040"><a xlink:href="../../d2/ded/filter__builder_8h.html" target="_top" xlink:title="TODO: Document this.">
<polygon fill="white" stroke="#666666" points="3742,-266.5 3645,-266.5 3645,-236.5 3742,-236.5 3742,-266.5"/>
<text text-anchor="start" x="3653" y="-254.5" font-family="Helvetica,sans-Serif" font-size="10.00">../../../filters/filter</text>
<text text-anchor="middle" x="3693.5" y="-243.5" font-family="Helvetica,sans-Serif" font-size="10.00">_builder.h</text>
</a>
</g>
</g>
<!-- Node1&#45;&gt;Node40 -->
<g id="edge41_Node000001_Node000040" class="edge">
<title>Node1&#45;&gt;Node40</title>
<g id="a_edge41_Node000001_Node000040"><a xlink:title=" ">
<path fill="none" stroke="#63b8ff" d="M3817.06,-307.99C3789.86,-295.77 3755.22,-280.22 3729.54,-268.69"/>
<polygon fill="#63b8ff" stroke="#63b8ff" points="3724.86,-266.58 3730.34,-266.58 3727.14,-267.61 3729.42,-268.63 3729.42,-268.63 3729.42,-268.63 3727.14,-267.61 3728.5,-270.68 3724.86,-266.58 3724.86,-266.58"/>
</a>
</g>
</g>
<!-- Node42 -->
<g id="Node000042" class="node">
<title>Node42</title>
<g id="a_Node000042"><a xlink:href="../../d0/d18/filter__tree__model_8h.html" target="_top" xlink:title="TODO: Document this.">
<polygon fill="white" stroke="#666666" points="3857,-266.5 3760,-266.5 3760,-236.5 3857,-236.5 3857,-266.5"/>
<text text-anchor="start" x="3768" y="-254.5" font-family="Helvetica,sans-Serif" font-size="10.00">../../../filters/filter</text>
<text text-anchor="middle" x="3808.5" y="-243.5" font-family="Helvetica,sans-Serif" font-size="10.00">_tree_model.h</text>
</a>
</g>
</g>
<!-- Node1&#45;&gt;Node42 -->
<g id="edge43_Node000001_Node000042" class="edge">
<title>Node1&#45;&gt;Node42</title>
<g id="a_edge43_Node000001_Node000042"><a xlink:title=" ">
<path fill="none" stroke="#63b8ff" d="M3846.84,-307.79C3838.97,-296.45 3829.15,-282.29 3821.42,-271.13"/>
<polygon fill="#63b8ff" stroke="#63b8ff" points="3818.46,-266.86 3823.15,-269.69 3819.88,-268.92 3821.31,-270.97 3821.31,-270.97 3821.31,-270.97 3819.88,-268.92 3819.46,-272.25 3818.46,-266.86 3818.46,-266.86"/>
</a>
</g>
</g>
<!-- Node45 -->
<g id="Node000045" class="node">
<title>Node45</title>
<g id="a_Node000045"><a xlink:title=" ">
<polygon fill="#e0e0e0" stroke="#999999" points="3952,-261 3875,-261 3875,-242 3952,-242 3952,-261"/>
<text text-anchor="middle" x="3913.5" y="-249" font-family="Helvetica,sans-Serif" font-size="10.00">QGridLayout</text>
</a>
</g>
</g>
<!-- Node1&#45;&gt;Node45 -->
<g id="edge46_Node000001_Node000045" class="edge">
<title>Node1&#45;&gt;Node45</title>
<g id="a_edge46_Node000001_Node000045"><a xlink:title=" ">
<path fill="none" stroke="#63b8ff" d="M3874.43,-307.79C3883.85,-294.46 3896.03,-277.22 3904.27,-265.56"/>
<polygon fill="#63b8ff" stroke="#63b8ff" points="3907.33,-261.24 3906.28,-266.62 3905.88,-263.28 3904.44,-265.32 3904.44,-265.32 3904.44,-265.32 3905.88,-263.28 3902.6,-264.02 3907.33,-261.24 3907.33,-261.24"/>
</a>
</g>
</g>
<!-- Node46 -->
<g id="Node000046" class="node">
<title>Node46</title>
<g id="a_Node000046"><a xlink:title=" ">
<polygon fill="#e0e0e0" stroke="#999999" points="4021,-261 3970,-261 3970,-242 4021,-242 4021,-261"/>
<text text-anchor="middle" x="3995.5" y="-249" font-family="Helvetica,sans-Serif" font-size="10.00">QMenu</text>
</a>
</g>
</g>
<!-- Node1&#45;&gt;Node46 -->
<g id="edge47_Node000001_Node000046" class="edge">
<title>Node1&#45;&gt;Node46</title>
<g id="a_edge47_Node000001_Node000046"><a xlink:title=" ">
<path fill="none" stroke="#63b8ff" d="M3896.58,-307.88C3915.89,-297.33 3940.04,-284.05 3961.5,-272 3966.22,-269.35 3971.28,-266.47 3976.03,-263.75"/>
<polygon fill="#63b8ff" stroke="#63b8ff" points="3980.64,-261.1 3977.42,-265.54 3978.47,-262.35 3976.3,-263.59 3976.3,-263.59 3976.3,-263.59 3978.47,-262.35 3975.18,-261.64 3980.64,-261.1 3980.64,-261.1"/>
</a>
</g>
</g>
<!-- Node47 -->
<g id="Node000047" class="node">
<title>Node47</title>
<g id="a_Node000047"><a xlink:title=" ">
<polygon fill="#e0e0e0" stroke="#999999" points="4115.5,-261 4039.5,-261 4039.5,-242 4115.5,-242 4115.5,-261"/>
<text text-anchor="middle" x="4077.5" y="-249" font-family="Helvetica,sans-Serif" font-size="10.00">QToolButton</text>
</a>
</g>
</g>
<!-- Node1&#45;&gt;Node47 -->
<g id="edge48_Node000001_Node000047" class="edge">
<title>Node1&#45;&gt;Node47</title>
<g id="a_edge48_Node000001_Node000047"><a xlink:title=" ">
<path fill="none" stroke="#63b8ff" d="M3924.28,-307.97C3956.35,-297.82 3995.7,-284.88 4030.5,-272 4037.9,-269.26 4045.87,-266.06 4053.1,-263.05"/>
<polygon fill="#63b8ff" stroke="#63b8ff" points="4057.97,-261 4054.23,-265.01 4055.66,-261.97 4053.36,-262.94 4053.36,-262.94 4053.36,-262.94 4055.66,-261.97 4052.49,-260.86 4057.97,-261 4057.97,-261"/>
</a>
</g>
</g>
<!-- Node48 -->
<g id="Node000048" class="node">
<title>Node48</title>
<g id="a_Node000048"><a xlink:title=" ">
<polygon fill="#e0e0e0" stroke="#999999" points="4273,-272 4134,-272 4134,-231 4273,-231 4273,-272"/>
<text text-anchor="start" x="4142" y="-260" font-family="Helvetica,sans-Serif" font-size="10.00">libcockatrice/models</text>
<text text-anchor="start" x="4142" y="-249" font-family="Helvetica,sans-Serif" font-size="10.00">/database/card_database</text>
<text text-anchor="middle" x="4203.5" y="-238" font-family="Helvetica,sans-Serif" font-size="10.00">_model.h</text>
</a>
</g>
</g>
<!-- Node1&#45;&gt;Node48 -->
<g id="edge49_Node000001_Node000048" class="edge">
<title>Node1&#45;&gt;Node48</title>
<g id="a_edge49_Node000001_Node000048"><a xlink:title=" ">
<path fill="none" stroke="#63b8ff" d="M3943.01,-310.92C3995.15,-300.26 4063.89,-285.85 4124.5,-272 4125.92,-271.68 4127.35,-271.35 4128.8,-271.01"/>
<polygon fill="#63b8ff" stroke="#63b8ff" points="4133.74,-269.86 4129.39,-273.18 4131.31,-270.43 4128.88,-270.99 4128.88,-270.99 4128.88,-270.99 4131.31,-270.43 4128.36,-268.8 4133.74,-269.86 4133.74,-269.86"/>
</a>
</g>
</g>
<!-- Node3 -->
<g id="Node000003" class="node">
<title>Node3</title>
<g id="a_Node000003"><a xlink:href="../../dd/d2f/abstract__tab__deck__editor_8h.html" target="_top" xlink:title="Defines the AbstractTabDeckEditor class, which provides a base for deck editor tabs in the applicatio...">
<polygon fill="white" stroke="#666666" points="775,-195 650,-195 650,-154 775,-154 775,-195"/>
<text text-anchor="start" x="658" y="-183" font-family="Helvetica,sans-Serif" font-size="10.00">../../../interface</text>
<text text-anchor="start" x="658" y="-172" font-family="Helvetica,sans-Serif" font-size="10.00">/widgets/tabs/abstract</text>
<text text-anchor="middle" x="712.5" y="-161" font-family="Helvetica,sans-Serif" font-size="10.00">_tab_deck_editor.h</text>
</a>
</g>
</g>
<!-- Node2&#45;&gt;Node3 -->
<g id="edge2_Node000002_Node000003" class="edge">
<title>Node2&#45;&gt;Node3</title>
<g id="a_edge2_Node000002_Node000003"><a xlink:title=" ">
<path fill="none" stroke="#63b8ff" d="M1293.85,-244.49C1180.89,-231.08 908.27,-198.73 780.6,-183.58"/>
<polygon fill="#63b8ff" stroke="#63b8ff" points="775.37,-182.96 780.6,-181.32 777.85,-183.26 780.34,-183.55 780.34,-183.55 780.34,-183.55 777.85,-183.26 780.07,-185.78 775.37,-182.96 775.37,-182.96"/>
</a>
</g>
</g>
<!-- Node14 -->
<g id="Node000014" class="node">
<title>Node14</title>
<g id="a_Node000014"><a xlink:href="../../d4/d91/key__signals_8h.html" target="_top" xlink:title="TODO: Document this.">
<polygon fill="white" stroke="#666666" points="1285,-184 1184,-184 1184,-165 1285,-165 1285,-184"/>
<text text-anchor="middle" x="1234.5" y="-172" font-family="Helvetica,sans-Serif" font-size="10.00">../../key_signals.h</text>
</a>
</g>
</g>
<!-- Node2&#45;&gt;Node14 -->
<g id="edge13_Node000002_Node000014" class="edge">
<title>Node2&#45;&gt;Node14</title>
<g id="a_edge13_Node000002_Node000014"><a xlink:title=" ">
<path fill="none" stroke="#63b8ff" d="M1323.81,-236.39C1302.86,-222.11 1270.87,-200.3 1251.4,-187.02"/>
<polygon fill="#63b8ff" stroke="#63b8ff" points="1247.2,-184.16 1252.6,-185.12 1249.27,-185.57 1251.34,-186.98 1251.34,-186.98 1251.34,-186.98 1249.27,-185.57 1250.07,-188.84 1247.2,-184.16 1247.2,-184.16"/>
</a>
</g>
</g>
<!-- Node17 -->
<g id="Node000017" class="node">
<title>Node17</title>
<g id="a_Node000017"><a xlink:title=" ">
<polygon fill="#e0e0e0" stroke="#999999" points="1386,-184 1303,-184 1303,-165 1386,-165 1386,-184"/>
<text text-anchor="middle" x="1344.5" y="-172" font-family="Helvetica,sans-Serif" font-size="10.00">QDockWidget</text>
</a>
</g>
</g>
<!-- Node2&#45;&gt;Node17 -->
<g id="edge16_Node000002_Node000017" class="edge">
<title>Node2&#45;&gt;Node17</title>
<g id="a_edge16_Node000002_Node000017"><a xlink:title=" ">
<path fill="none" stroke="#63b8ff" d="M1344.5,-236.39C1344.5,-223.03 1344.5,-203.06 1344.5,-189.67"/>
<polygon fill="#63b8ff" stroke="#63b8ff" points="1344.5,-184.37 1346.75,-189.37 1344.5,-186.87 1344.5,-189.37 1344.5,-189.37 1344.5,-189.37 1344.5,-186.87 1342.25,-189.37 1344.5,-184.37 1344.5,-184.37"/>
</a>
</g>
</g>
<!-- Node18 -->
<g id="Node000018" class="node">
<title>Node18</title>
<g id="a_Node000018"><a xlink:title=" ">
<polygon fill="#e0e0e0" stroke="#999999" points="1472.5,-184 1404.5,-184 1404.5,-165 1472.5,-165 1472.5,-184"/>
<text text-anchor="middle" x="1438.5" y="-172" font-family="Helvetica,sans-Serif" font-size="10.00">QTreeView</text>
</a>
</g>
</g>
<!-- Node2&#45;&gt;Node18 -->
<g id="edge17_Node000002_Node000018" class="edge">
<title>Node2&#45;&gt;Node18</title>
<g id="a_edge17_Node000002_Node000018"><a xlink:title=" ">
<path fill="none" stroke="#63b8ff" d="M1362.18,-236.39C1379.93,-222.23 1406.96,-200.66 1423.64,-187.36"/>
<polygon fill="#63b8ff" stroke="#63b8ff" points="1427.64,-184.16 1425.14,-189.04 1425.69,-185.72 1423.74,-187.28 1423.74,-187.28 1423.74,-187.28 1425.69,-185.72 1422.33,-185.52 1427.64,-184.16 1427.64,-184.16"/>
</a>
</g>
</g>
<!-- Node4 -->
<g id="Node000004" class="node">
<title>Node4</title>
<g id="a_Node000004"><a xlink:title=" ">
<polygon fill="#e0e0e0" stroke="#999999" points="143,-112.5 0,-112.5 0,-71.5 143,-71.5 143,-112.5"/>
<text text-anchor="start" x="8" y="-100.5" font-family="Helvetica,sans-Serif" font-size="10.00">../interface/widgets</text>
<text text-anchor="start" x="8" y="-89.5" font-family="Helvetica,sans-Serif" font-size="10.00">/deck_editor/deck_editor</text>
<text text-anchor="middle" x="71.5" y="-78.5" font-family="Helvetica,sans-Serif" font-size="10.00">_card_info_dock_widget.h</text>
</a>
</g>
</g>
<!-- Node3&#45;&gt;Node4 -->
<g id="edge3_Node000003_Node000004" class="edge">
<title>Node3&#45;&gt;Node4</title>
<g id="a_edge3_Node000003_Node000004"><a xlink:title=" ">
<path fill="none" stroke="#63b8ff" d="M649.62,-171.46C545.2,-167.15 329.88,-154.3 151.5,-118 145.82,-116.84 139.97,-115.44 134.14,-113.9"/>
<polygon fill="#63b8ff" stroke="#63b8ff" points="129.25,-112.57 134.67,-111.71 131.66,-113.23 134.08,-113.88 134.08,-113.88 134.08,-113.88 131.66,-113.23 133.49,-116.05 129.25,-112.57 129.25,-112.57"/>
</a>
</g>
</g>
<!-- Node5 -->
<g id="Node000005" class="node">
<title>Node5</title>
<g id="a_Node000005"><a xlink:title=" ">
<polygon fill="#e0e0e0" stroke="#999999" points="316,-112.5 161,-112.5 161,-71.5 316,-71.5 316,-112.5"/>
<text text-anchor="start" x="169" y="-100.5" font-family="Helvetica,sans-Serif" font-size="10.00">../interface/widgets</text>
<text text-anchor="start" x="169" y="-89.5" font-family="Helvetica,sans-Serif" font-size="10.00">/deck_editor/deck_editor</text>
<text text-anchor="middle" x="238.5" y="-78.5" font-family="Helvetica,sans-Serif" font-size="10.00">_database_display_widget.h</text>
</a>
</g>
</g>
<!-- Node3&#45;&gt;Node5 -->
<g id="edge4_Node000003_Node000005" class="edge">
<title>Node3&#45;&gt;Node5</title>
<g id="a_edge4_Node000003_Node000005"><a xlink:title=" ">
<path fill="none" stroke="#63b8ff" d="M649.86,-167.29C572.76,-159.01 438.08,-142.5 324.5,-118 318.8,-116.77 312.93,-115.36 307.05,-113.86"/>
<polygon fill="#63b8ff" stroke="#63b8ff" points="302.12,-112.58 307.52,-111.66 304.53,-113.21 306.95,-113.84 306.95,-113.84 306.95,-113.84 304.53,-113.21 306.39,-116.01 302.12,-112.58 302.12,-112.58"/>
</a>
</g>
</g>
<!-- Node6 -->
<g id="Node000006" class="node">
<title>Node6</title>
<g id="a_Node000006"><a xlink:title=" ">
<polygon fill="#e0e0e0" stroke="#999999" points="471,-112.5 334,-112.5 334,-71.5 471,-71.5 471,-112.5"/>
<text text-anchor="start" x="342" y="-100.5" font-family="Helvetica,sans-Serif" font-size="10.00">../interface/widgets</text>
<text text-anchor="start" x="342" y="-89.5" font-family="Helvetica,sans-Serif" font-size="10.00">/deck_editor/deck_editor</text>
<text text-anchor="middle" x="402.5" y="-78.5" font-family="Helvetica,sans-Serif" font-size="10.00">_deck_dock_widget.h</text>
</a>
</g>
</g>
<!-- Node3&#45;&gt;Node6 -->
<g id="edge5_Node000003_Node000006" class="edge">
<title>Node3&#45;&gt;Node6</title>
<g id="a_edge5_Node000003_Node000006"><a xlink:title=" ">
<path fill="none" stroke="#63b8ff" d="M649.85,-160.01C602.74,-149.52 536.75,-134.08 479.5,-118 475.13,-116.77 470.63,-115.46 466.11,-114.09"/>
<polygon fill="#63b8ff" stroke="#63b8ff" points="461.21,-112.6 466.65,-111.9 463.6,-113.33 465.99,-114.05 465.99,-114.05 465.99,-114.05 463.6,-113.33 465.34,-116.21 461.21,-112.6 461.21,-112.6"/>
</a>
</g>
</g>
<!-- Node7 -->
<g id="Node000007" class="node">
<title>Node7</title>
<g id="a_Node000007"><a xlink:title=" ">
<polygon fill="#e0e0e0" stroke="#999999" points="626,-112.5 489,-112.5 489,-71.5 626,-71.5 626,-112.5"/>
<text text-anchor="start" x="497" y="-100.5" font-family="Helvetica,sans-Serif" font-size="10.00">../interface/widgets</text>
<text text-anchor="start" x="497" y="-89.5" font-family="Helvetica,sans-Serif" font-size="10.00">/deck_editor/deck_editor</text>
<text text-anchor="middle" x="557.5" y="-78.5" font-family="Helvetica,sans-Serif" font-size="10.00">_filter_dock_widget.h</text>
</a>
</g>
</g>
<!-- Node3&#45;&gt;Node7 -->
<g id="edge6_Node000003_Node000007" class="edge">
<title>Node3&#45;&gt;Node7</title>
<g id="a_edge6_Node000003_Node000007"><a xlink:title=" ">
<path fill="none" stroke="#63b8ff" d="M674.58,-153.81C651.98,-142.07 623.24,-127.14 599.89,-115.01"/>
<polygon fill="#63b8ff" stroke="#63b8ff" points="595.29,-112.63 600.77,-112.94 597.51,-113.78 599.73,-114.93 599.73,-114.93 599.73,-114.93 597.51,-113.78 598.69,-116.93 595.29,-112.63 595.29,-112.63"/>
</a>
</g>
</g>
<!-- Node8 -->
<g id="Node000008" class="node">
<title>Node8</title>
<g id="a_Node000008"><a xlink:title=" ">
<polygon fill="#e0e0e0" stroke="#999999" points="781,-118 644,-118 644,-66 781,-66 781,-118"/>
<text text-anchor="start" x="652" y="-106" font-family="Helvetica,sans-Serif" font-size="10.00">../interface/widgets</text>
<text text-anchor="start" x="652" y="-95" font-family="Helvetica,sans-Serif" font-size="10.00">/deck_editor/deck_editor</text>
<text text-anchor="start" x="652" y="-84" font-family="Helvetica,sans-Serif" font-size="10.00">_printing_selector_dock</text>
<text text-anchor="middle" x="712.5" y="-73" font-family="Helvetica,sans-Serif" font-size="10.00">_widget.h</text>
</a>
</g>
</g>
<!-- Node3&#45;&gt;Node8 -->
<g id="edge7_Node000003_Node000008" class="edge">
<title>Node3&#45;&gt;Node8</title>
<g id="a_edge7_Node000003_Node000008"><a xlink:title=" ">
<path fill="none" stroke="#63b8ff" d="M712.5,-153.6C712.5,-144.48 712.5,-133.47 712.5,-123.35"/>
<polygon fill="#63b8ff" stroke="#63b8ff" points="712.5,-118.16 714.75,-123.16 712.5,-120.66 712.5,-123.16 712.5,-123.16 712.5,-123.16 712.5,-120.66 710.25,-123.16 712.5,-118.16 712.5,-118.16"/>
</a>
</g>
</g>
<!-- Node9 -->
<g id="Node000009" class="node">
<title>Node9</title>
<g id="a_Node000009"><a xlink:title=" ">
<polygon fill="#e0e0e0" stroke="#999999" points="954,-107 799,-107 799,-77 954,-77 954,-107"/>
<text text-anchor="start" x="807" y="-95" font-family="Helvetica,sans-Serif" font-size="10.00">../interface/widgets</text>
<text text-anchor="middle" x="876.5" y="-84" font-family="Helvetica,sans-Serif" font-size="10.00">/menus/deck_editor_menu.h</text>
</a>
</g>
</g>
<!-- Node3&#45;&gt;Node9 -->
<g id="edge8_Node000003_Node000009" class="edge">
<title>Node3&#45;&gt;Node9</title>
<g id="a_edge8_Node000003_Node000009"><a xlink:title=" ">
<path fill="none" stroke="#63b8ff" d="M752.62,-153.81C780.38,-140.18 816.9,-122.25 843.08,-109.4"/>
<polygon fill="#63b8ff" stroke="#63b8ff" points="847.85,-107.06 844.35,-111.29 845.6,-108.16 843.36,-109.27 843.36,-109.27 843.36,-109.27 845.6,-108.16 842.37,-107.25 847.85,-107.06 847.85,-107.06"/>
</a>
</g>
</g>
<!-- Node10 -->
<g id="Node000010" class="node">
<title>Node10</title>
<g id="a_Node000010"><a xlink:title=" ">
<polygon fill="#e0e0e0" stroke="#999999" points="1131,-118 972,-118 972,-66 1131,-66 1131,-118"/>
<text text-anchor="start" x="980" y="-106" font-family="Helvetica,sans-Serif" font-size="10.00">../interface/widgets</text>
<text text-anchor="start" x="980" y="-95" font-family="Helvetica,sans-Serif" font-size="10.00">/visual_deck_storage</text>
<text text-anchor="start" x="980" y="-84" font-family="Helvetica,sans-Serif" font-size="10.00">/deck_preview/deck_preview</text>
<text text-anchor="middle" x="1051.5" y="-73" font-family="Helvetica,sans-Serif" font-size="10.00">_deck_tags_display_widget.h</text>
</a>
</g>
</g>
<!-- Node3&#45;&gt;Node10 -->
<g id="edge9_Node000003_Node000010" class="edge">
<title>Node3&#45;&gt;Node10</title>
<g id="a_edge9_Node000003_Node000010"><a xlink:title=" ">
<path fill="none" stroke="#63b8ff" d="M775.14,-160.6C825.84,-149.92 899.01,-133.95 962.5,-118 963.96,-117.63 965.43,-117.26 966.91,-116.88"/>
<polygon fill="#63b8ff" stroke="#63b8ff" points="971.98,-115.57 967.7,-119 969.56,-116.2 967.14,-116.82 967.14,-116.82 967.14,-116.82 969.56,-116.2 966.58,-114.64 971.98,-115.57 971.98,-115.57"/>
</a>
</g>
</g>
<!-- Node11 -->
<g id="Node000011" class="node">
<title>Node11</title>
<g id="a_Node000011"><a xlink:href="../../d3/ddf/tab_8h.html" target="_top" xlink:title="TODO: Document this.">
<polygon fill="white" stroke="#666666" points="1190,-101.5 1149,-101.5 1149,-82.5 1190,-82.5 1190,-101.5"/>
<text text-anchor="middle" x="1169.5" y="-89.5" font-family="Helvetica,sans-Serif" font-size="10.00">tab.h</text>
</a>
</g>
</g>
<!-- Node3&#45;&gt;Node11 -->
<g id="edge10_Node000003_Node000011" class="edge">
<title>Node3&#45;&gt;Node11</title>
<g id="a_edge10_Node000003_Node000011"><a xlink:title=" ">
<path fill="none" stroke="#63b8ff" d="M775.29,-169.65C877.66,-162.66 1075.54,-145.95 1139.5,-118 1146.23,-115.06 1152.64,-110.13 1157.79,-105.42"/>
<polygon fill="#63b8ff" stroke="#63b8ff" points="1161.47,-101.9 1159.42,-106.98 1159.67,-103.62 1157.86,-105.35 1157.86,-105.35 1157.86,-105.35 1159.67,-103.62 1156.31,-103.73 1161.47,-101.9 1161.47,-101.9"/>
</a>
</g>
</g>
<!-- Node12 -->
<g id="Node000012" class="node">
<title>Node12</title>
<g id="a_Node000012"><a xlink:title=" ">
<polygon fill="#e0e0e0" stroke="#999999" points="1154,-24.5 1067,-24.5 1067,-5.5 1154,-5.5 1154,-24.5"/>
<text text-anchor="middle" x="1110.5" y="-12.5" font-family="Helvetica,sans-Serif" font-size="10.00">QMainWindow</text>
</a>
</g>
</g>
<!-- Node11&#45;&gt;Node12 -->
<g id="edge11_Node000011_Node000012" class="edge">
<title>Node11&#45;&gt;Node12</title>
<g id="a_edge11_Node000011_Node000012"><a xlink:title=" ">
<path fill="none" stroke="#63b8ff" d="M1162.73,-82.4C1152.33,-69.17 1132.36,-43.78 1120.35,-28.52"/>
<polygon fill="#63b8ff" stroke="#63b8ff" points="1117.19,-24.5 1122.05,-27.04 1118.73,-26.47 1120.28,-28.43 1120.28,-28.43 1120.28,-28.43 1118.73,-26.47 1118.51,-29.82 1117.19,-24.5 1117.19,-24.5"/>
</a>
</g>
</g>
<!-- Node13 -->
<g id="Node000013" class="node">
<title>Node13</title>
<g id="a_Node000013"><a xlink:title=" ">
<polygon fill="#e0e0e0" stroke="#999999" points="1282.5,-30 1172.5,-30 1172.5,0 1282.5,0 1282.5,-30"/>
<text text-anchor="start" x="1180.5" y="-18" font-family="Helvetica,sans-Serif" font-size="10.00">libcockatrice/utility</text>
<text text-anchor="middle" x="1227.5" y="-7" font-family="Helvetica,sans-Serif" font-size="10.00">/card_ref.h</text>
</a>
</g>
</g>
<!-- Node11&#45;&gt;Node13 -->
<g id="edge12_Node000011_Node000013" class="edge">
<title>Node11&#45;&gt;Node13</title>
<g id="a_edge12_Node000011_Node000013"><a xlink:title=" ">
<path fill="none" stroke="#63b8ff" d="M1176.15,-82.4C1185.18,-70.72 1201.55,-49.56 1213.38,-34.26"/>
<polygon fill="#63b8ff" stroke="#63b8ff" points="1216.59,-30.11 1215.31,-35.44 1215.06,-32.09 1213.53,-34.07 1213.53,-34.07 1213.53,-34.07 1215.06,-32.09 1211.75,-32.69 1216.59,-30.11 1216.59,-30.11"/>
</a>
</g>
</g>
<!-- Node15 -->
<g id="Node000015" class="node">
<title>Node15</title>
<g id="a_Node000015"><a xlink:title=" ">
<polygon fill="#e0e0e0" stroke="#999999" points="1260.5,-101.5 1208.5,-101.5 1208.5,-82.5 1260.5,-82.5 1260.5,-101.5"/>
<text text-anchor="middle" x="1234.5" y="-89.5" font-family="Helvetica,sans-Serif" font-size="10.00">QEvent</text>
</a>
</g>
</g>
<!-- Node14&#45;&gt;Node15 -->
<g id="edge14_Node000014_Node000015" class="edge">
<title>Node14&#45;&gt;Node15</title>
<g id="a_edge14_Node000014_Node000015"><a xlink:title=" ">
<path fill="none" stroke="#63b8ff" d="M1234.5,-164.89C1234.5,-151.04 1234.5,-123.69 1234.5,-107.01"/>
<polygon fill="#63b8ff" stroke="#63b8ff" points="1234.5,-101.8 1236.75,-106.8 1234.5,-104.3 1234.5,-106.8 1234.5,-106.8 1234.5,-106.8 1234.5,-104.3 1232.25,-106.8 1234.5,-101.8 1234.5,-101.8"/>
</a>
</g>
</g>
<!-- Node16 -->
<g id="Node000016" class="node">
<title>Node16</title>
<g id="a_Node000016"><a xlink:title=" ">
<polygon fill="#e0e0e0" stroke="#999999" points="1334.5,-101.5 1278.5,-101.5 1278.5,-82.5 1334.5,-82.5 1334.5,-101.5"/>
<text text-anchor="middle" x="1306.5" y="-89.5" font-family="Helvetica,sans-Serif" font-size="10.00">QObject</text>
</a>
</g>
</g>
<!-- Node14&#45;&gt;Node16 -->
<g id="edge15_Node000014_Node000016" class="edge">
<title>Node14&#45;&gt;Node16</title>
<g id="a_edge15_Node000014_Node000016"><a xlink:title=" ">
<path fill="none" stroke="#63b8ff" d="M1242.21,-164.89C1254.91,-150.68 1280.33,-122.26 1295.12,-105.73"/>
<polygon fill="#63b8ff" stroke="#63b8ff" points="1298.63,-101.8 1296.98,-107.02 1296.97,-103.66 1295.3,-105.52 1295.3,-105.52 1295.3,-105.52 1296.97,-103.66 1293.62,-104.02 1298.63,-101.8 1298.63,-101.8"/>
</a>
</g>
</g>
<!-- Node19&#45;&gt;Node16 -->
<g id="edge26_Node000019_Node000016" class="edge">
<title>Node19&#45;&gt;Node16</title>
<g id="a_edge26_Node000019_Node000016"><a xlink:title=" ">
<path fill="none" stroke="#63b8ff" d="M2420,-249.67C2226.93,-246.5 1600.83,-233.35 1519.5,-195 1497.03,-184.4 1502.82,-166.76 1481.5,-154 1427.11,-121.45 1401.25,-144.12 1343.5,-118 1335.81,-114.52 1327.97,-109.48 1321.49,-104.83"/>
<polygon fill="#63b8ff" stroke="#63b8ff" points="1317.25,-101.71 1322.61,-102.86 1319.26,-103.19 1321.28,-104.67 1321.28,-104.67 1321.28,-104.67 1319.26,-103.19 1319.94,-106.48 1317.25,-101.71 1317.25,-101.71"/>
</a>
</g>
</g>
<!-- Node20 -->
<g id="Node000020" class="node">
<title>Node20</title>
<g id="a_Node000020"><a xlink:href="../../d0/dfd/shortcuts__settings_8h.html" target="_top" xlink:title="TODO: Document this.">
<polygon fill="white" stroke="#666666" points="1644,-184 1529,-184 1529,-165 1644,-165 1644,-184"/>
<text text-anchor="middle" x="1586.5" y="-172" font-family="Helvetica,sans-Serif" font-size="10.00">shortcuts_settings.h</text>
</a>
</g>
</g>
<!-- Node19&#45;&gt;Node20 -->
<g id="edge19_Node000019_Node000020" class="edge">
<title>Node19&#45;&gt;Node20</title>
<g id="a_edge19_Node000019_Node000020"><a xlink:title=" ">
<path fill="none" stroke="#63b8ff" d="M2419.52,-250.47C2285.72,-249.58 1941.37,-242.43 1658.5,-195 1645.08,-192.75 1630.55,-189.06 1618.08,-185.5"/>
<polygon fill="#63b8ff" stroke="#63b8ff" points="1613.23,-184.09 1618.66,-183.32 1615.63,-184.79 1618.03,-185.48 1618.03,-185.48 1618.03,-185.48 1615.63,-184.79 1617.41,-187.64 1613.23,-184.09 1613.23,-184.09"/>
</a>
</g>
</g>
<!-- Node23 -->
<g id="Node000023" class="node">
<title>Node23</title>
<g id="a_Node000023"><a xlink:title=" ">
<polygon fill="#e0e0e0" stroke="#999999" points="1747,-101.5 1640,-101.5 1640,-82.5 1747,-82.5 1747,-101.5"/>
<text text-anchor="middle" x="1693.5" y="-89.5" font-family="Helvetica,sans-Serif" font-size="10.00">QLoggingCategory</text>
</a>
</g>
</g>
<!-- Node19&#45;&gt;Node23 -->
<g id="edge25_Node000019_Node000023" class="edge">
<title>Node19&#45;&gt;Node23</title>
<g id="a_edge25_Node000019_Node000023"><a xlink:title=" ">
<path fill="none" stroke="#63b8ff" d="M2419.89,-250.84C2248.01,-251.28 1740.92,-248.04 1691.5,-195 1669.14,-171.01 1680.17,-128.36 1687.99,-106.6"/>
<polygon fill="#63b8ff" stroke="#63b8ff" points="1689.79,-101.79 1690.14,-107.26 1688.91,-104.13 1688.04,-106.47 1688.04,-106.47 1688.04,-106.47 1688.91,-104.13 1685.93,-105.68 1689.79,-101.79 1689.79,-101.79"/>
</a>
</g>
</g>
<!-- Node25 -->
<g id="Node000025" class="node">
<title>Node25</title>
<g id="a_Node000025"><a xlink:title=" ">
<polygon fill="#e0e0e0" stroke="#999999" points="1748,-184 1701,-184 1701,-165 1748,-165 1748,-184"/>
<text text-anchor="middle" x="1724.5" y="-172" font-family="Helvetica,sans-Serif" font-size="10.00">QDate</text>
</a>
</g>
</g>
<!-- Node19&#45;&gt;Node25 -->
<g id="edge24_Node000019_Node000025" class="edge">
<title>Node19&#45;&gt;Node25</title>
<g id="a_edge24_Node000019_Node000025"><a xlink:title=" ">
<path fill="none" stroke="#63b8ff" d="M2419.81,-249.43C2272.53,-246.13 1880.71,-233.84 1757.5,-195 1751.67,-193.16 1745.77,-190.13 1740.61,-187"/>
<polygon fill="#63b8ff" stroke="#63b8ff" points="1736.1,-184.13 1741.52,-184.92 1738.21,-185.47 1740.32,-186.81 1740.32,-186.81 1740.32,-186.81 1738.21,-185.47 1739.11,-188.71 1736.1,-184.13 1736.1,-184.13"/>
</a>
</g>
</g>
<!-- Node26 -->
<g id="Node000026" class="node">
<title>Node26</title>
<g id="a_Node000026"><a xlink:title=" ">
<polygon fill="#e0e0e0" stroke="#999999" points="1810.5,-184 1766.5,-184 1766.5,-165 1810.5,-165 1810.5,-184"/>
<text text-anchor="middle" x="1788.5" y="-172" font-family="Helvetica,sans-Serif" font-size="10.00">QSize</text>
</a>
</g>
</g>
<!-- Node19&#45;&gt;Node26 -->
<g id="edge27_Node000019_Node000026" class="edge">
<title>Node19&#45;&gt;Node26</title>
<g id="a_edge27_Node000019_Node000026"><a xlink:title=" ">
<path fill="none" stroke="#63b8ff" d="M2419.89,-249.15C2281.68,-245.29 1930.22,-232.05 1819.5,-195 1813.96,-193.15 1808.4,-190.11 1803.56,-186.98"/>
<polygon fill="#63b8ff" stroke="#63b8ff" points="1799.33,-184.11 1804.73,-185.06 1801.39,-185.52 1803.46,-186.92 1803.46,-186.92 1803.46,-186.92 1801.39,-185.52 1802.2,-188.78 1799.33,-184.11 1799.33,-184.11"/>
</a>
</g>
</g>
<!-- Node27 -->
<g id="Node000027" class="node">
<title>Node27</title>
<g id="a_Node000027"><a xlink:title=" ">
<polygon fill="#e0e0e0" stroke="#999999" points="1898.5,-184 1828.5,-184 1828.5,-165 1898.5,-165 1898.5,-184"/>
<text text-anchor="middle" x="1863.5" y="-172" font-family="Helvetica,sans-Serif" font-size="10.00">QStringList</text>
</a>
</g>
</g>
<!-- Node19&#45;&gt;Node27 -->
<g id="edge28_Node000019_Node000027" class="edge">
<title>Node19&#45;&gt;Node27</title>
<g id="a_edge28_Node000019_Node000027"><a xlink:title=" ">
<path fill="none" stroke="#63b8ff" d="M2419.73,-250.91C2316.15,-250.34 2090.36,-243.1 1907.5,-195 1899.62,-192.93 1891.36,-189.61 1884.15,-186.29"/>
<polygon fill="#63b8ff" stroke="#63b8ff" points="1879.35,-184 1884.83,-184.12 1881.61,-185.08 1883.87,-186.15 1883.87,-186.15 1883.87,-186.15 1881.61,-185.08 1882.9,-188.18 1879.35,-184 1879.35,-184"/>
</a>
</g>
</g>
<!-- Node28 -->
<g id="Node000028" class="node">
<title>Node28</title>
<g id="a_Node000028"><a xlink:title=" ">
<polygon fill="#e0e0e0" stroke="#999999" points="2056.5,-195 1916.5,-195 1916.5,-154 2056.5,-154 2056.5,-195"/>
<text text-anchor="start" x="1924.5" y="-183" font-family="Helvetica,sans-Serif" font-size="10.00">libcockatrice/interfaces</text>
<text text-anchor="start" x="1924.5" y="-172" font-family="Helvetica,sans-Serif" font-size="10.00">/interface_card_database</text>
<text text-anchor="middle" x="1986.5" y="-161" font-family="Helvetica,sans-Serif" font-size="10.00">_path_provider.h</text>
</a>
</g>
</g>
<!-- Node19&#45;&gt;Node28 -->
<g id="edge29_Node000019_Node000028" class="edge">
<title>Node19&#45;&gt;Node28</title>
<g id="a_edge29_Node000019_Node000028"><a xlink:title=" ">
<path fill="none" stroke="#63b8ff" d="M2419.68,-244.79C2340.08,-236.34 2191.05,-218.9 2065.5,-195 2064.22,-194.76 2062.94,-194.51 2061.65,-194.25"/>
<polygon fill="#63b8ff" stroke="#63b8ff" points="2056.63,-193.23 2061.97,-192.02 2059.07,-193.73 2061.52,-194.22 2061.52,-194.22 2061.52,-194.22 2059.07,-193.73 2061.07,-196.43 2056.63,-193.23 2056.63,-193.23"/>
</a>
</g>
</g>
<!-- Node29 -->
<g id="Node000029" class="node">
<title>Node29</title>
<g id="a_Node000029"><a xlink:title=" ">
<polygon fill="#e0e0e0" stroke="#999999" points="2226.5,-195 2074.5,-195 2074.5,-154 2226.5,-154 2226.5,-195"/>
<text text-anchor="start" x="2082.5" y="-183" font-family="Helvetica,sans-Serif" font-size="10.00">libcockatrice/interfaces</text>
<text text-anchor="start" x="2082.5" y="-172" font-family="Helvetica,sans-Serif" font-size="10.00">/interface_network_settings</text>
<text text-anchor="middle" x="2150.5" y="-161" font-family="Helvetica,sans-Serif" font-size="10.00">_provider.h</text>
</a>
</g>
</g>
<!-- Node19&#45;&gt;Node29 -->
<g id="edge30_Node000019_Node000029" class="edge">
<title>Node19&#45;&gt;Node29</title>
<g id="a_edge30_Node000019_Node000029"><a xlink:title=" ">
<path fill="none" stroke="#63b8ff" d="M2419.72,-237.44C2367.73,-225.48 2290.2,-207.64 2231.68,-194.18"/>
<polygon fill="#63b8ff" stroke="#63b8ff" points="2226.79,-193.05 2232.17,-191.98 2229.23,-193.61 2231.66,-194.17 2231.66,-194.17 2231.66,-194.17 2229.23,-193.61 2231.16,-196.37 2226.79,-193.05 2226.79,-193.05"/>
</a>
</g>
</g>
<!-- Node30 -->
<g id="Node000030" class="node">
<title>Node30</title>
<g id="a_Node000030"><a xlink:title=" ">
<polygon fill="#e0e0e0" stroke="#999999" points="2388.5,-189.5 2244.5,-189.5 2244.5,-159.5 2388.5,-159.5 2388.5,-189.5"/>
<text text-anchor="start" x="2252.5" y="-177.5" font-family="Helvetica,sans-Serif" font-size="10.00">libcockatrice/settings</text>
<text text-anchor="middle" x="2316.5" y="-166.5" font-family="Helvetica,sans-Serif" font-size="10.00">/card_database_settings.h</text>
</a>
</g>
</g>
<!-- Node19&#45;&gt;Node30 -->
<g id="edge31_Node000019_Node000030" class="edge">
<title>Node19&#45;&gt;Node30</title>
<g id="a_edge31_Node000019_Node000030"><a xlink:title=" ">
<path fill="none" stroke="#63b8ff" d="M2446.41,-236.39C2419.36,-223.72 2379.66,-205.1 2351.27,-191.8"/>
<polygon fill="#63b8ff" stroke="#63b8ff" points="2346.46,-189.54 2351.94,-189.63 2348.72,-190.6 2350.99,-191.67 2350.99,-191.67 2350.99,-191.67 2348.72,-190.6 2350.03,-193.7 2346.46,-189.54 2346.46,-189.54"/>
</a>
</g>
</g>
<!-- Node31 -->
<g id="Node000031" class="node">
<title>Node31</title>
<g id="a_Node000031"><a xlink:title=" ">
<polygon fill="#e0e0e0" stroke="#999999" points="2546.5,-189.5 2406.5,-189.5 2406.5,-159.5 2546.5,-159.5 2546.5,-189.5"/>
<text text-anchor="start" x="2414.5" y="-177.5" font-family="Helvetica,sans-Serif" font-size="10.00">libcockatrice/settings</text>
<text text-anchor="middle" x="2476.5" y="-166.5" font-family="Helvetica,sans-Serif" font-size="10.00">/card_override_settings.h</text>
</a>
</g>
</g>
<!-- Node19&#45;&gt;Node31 -->
<g id="edge32_Node000019_Node000031" class="edge">
<title>Node19&#45;&gt;Node31</title>
<g id="a_edge32_Node000019_Node000031"><a xlink:title=" ">
<path fill="none" stroke="#63b8ff" d="M2476.5,-236.39C2476.5,-224.66 2476.5,-207.84 2476.5,-194.85"/>
<polygon fill="#63b8ff" stroke="#63b8ff" points="2476.5,-189.54 2478.75,-194.54 2476.5,-192.04 2476.5,-194.54 2476.5,-194.54 2476.5,-194.54 2476.5,-192.04 2474.25,-194.54 2476.5,-189.54 2476.5,-189.54"/>
</a>
</g>
</g>
<!-- Node32 -->
<g id="Node000032" class="node">
<title>Node32</title>
<g id="a_Node000032"><a xlink:title=" ">
<polygon fill="#e0e0e0" stroke="#999999" points="2684.5,-189.5 2564.5,-189.5 2564.5,-159.5 2684.5,-159.5 2684.5,-189.5"/>
<text text-anchor="start" x="2572.5" y="-177.5" font-family="Helvetica,sans-Serif" font-size="10.00">libcockatrice/settings</text>
<text text-anchor="middle" x="2624.5" y="-166.5" font-family="Helvetica,sans-Serif" font-size="10.00">/debug_settings.h</text>
</a>
</g>
</g>
<!-- Node19&#45;&gt;Node32 -->
<g id="edge33_Node000019_Node000032" class="edge">
<title>Node19&#45;&gt;Node32</title>
<g id="a_edge33_Node000019_Node000032"><a xlink:title=" ">
<path fill="none" stroke="#63b8ff" d="M2504.34,-236.39C2529.25,-223.77 2565.78,-205.26 2592.01,-191.96"/>
<polygon fill="#63b8ff" stroke="#63b8ff" points="2596.79,-189.54 2593.34,-193.81 2594.56,-190.67 2592.33,-191.8 2592.33,-191.8 2592.33,-191.8 2594.56,-190.67 2591.31,-189.8 2596.79,-189.54 2596.79,-189.54"/>
</a>
</g>
</g>
<!-- Node33 -->
<g id="Node000033" class="node">
<title>Node33</title>
<g id="a_Node000033"><a xlink:title=" ">
<polygon fill="#e0e0e0" stroke="#999999" points="2822.5,-189.5 2702.5,-189.5 2702.5,-159.5 2822.5,-159.5 2822.5,-189.5"/>
<text text-anchor="start" x="2710.5" y="-177.5" font-family="Helvetica,sans-Serif" font-size="10.00">libcockatrice/settings</text>
<text text-anchor="middle" x="2762.5" y="-166.5" font-family="Helvetica,sans-Serif" font-size="10.00">/download_settings.h</text>
</a>
</g>
</g>
<!-- Node19&#45;&gt;Node33 -->
<g id="edge34_Node000019_Node000033" class="edge">
<title>Node19&#45;&gt;Node33</title>
<g id="a_edge34_Node000019_Node000033"><a xlink:title=" ">
<path fill="none" stroke="#63b8ff" d="M2533.26,-236.4C2577.1,-225.4 2639.24,-209.6 2693.5,-195 2698.28,-193.71 2703.24,-192.36 2708.2,-190.98"/>
<polygon fill="#63b8ff" stroke="#63b8ff" points="2713.17,-189.6 2708.95,-193.11 2710.76,-190.27 2708.35,-190.94 2708.35,-190.94 2708.35,-190.94 2710.76,-190.27 2707.75,-188.77 2713.17,-189.6 2713.17,-189.6"/>
</a>
</g>
</g>
<!-- Node34 -->
<g id="Node000034" class="node">
<title>Node34</title>
<g id="a_Node000034"><a xlink:title=" ">
<polygon fill="#e0e0e0" stroke="#999999" points="2974.5,-189.5 2840.5,-189.5 2840.5,-159.5 2974.5,-159.5 2974.5,-189.5"/>
<text text-anchor="start" x="2848.5" y="-177.5" font-family="Helvetica,sans-Serif" font-size="10.00">libcockatrice/settings</text>
<text text-anchor="middle" x="2907.5" y="-166.5" font-family="Helvetica,sans-Serif" font-size="10.00">/game_filters_settings.h</text>
</a>
</g>
</g>
<!-- Node19&#45;&gt;Node34 -->
<g id="edge35_Node000019_Node000034" class="edge">
<title>Node19&#45;&gt;Node34</title>
<g id="a_edge35_Node000019_Node000034"><a xlink:title=" ">
<path fill="none" stroke="#63b8ff" d="M2533.06,-243.36C2603.36,-234.1 2726.87,-216.55 2831.5,-195 2837.67,-193.73 2844.08,-192.28 2850.46,-190.76"/>
<polygon fill="#63b8ff" stroke="#63b8ff" points="2855.32,-189.59 2850.99,-192.95 2852.89,-190.18 2850.46,-190.76 2850.46,-190.76 2850.46,-190.76 2852.89,-190.18 2849.93,-188.58 2855.32,-189.59 2855.32,-189.59"/>
</a>
</g>
</g>
<!-- Node35 -->
<g id="Node000035" class="node">
<title>Node35</title>
<g id="a_Node000035"><a xlink:title=" ">
<polygon fill="#e0e0e0" stroke="#999999" points="3112.5,-189.5 2992.5,-189.5 2992.5,-159.5 3112.5,-159.5 3112.5,-189.5"/>
<text text-anchor="start" x="3000.5" y="-177.5" font-family="Helvetica,sans-Serif" font-size="10.00">libcockatrice/settings</text>
<text text-anchor="middle" x="3052.5" y="-166.5" font-family="Helvetica,sans-Serif" font-size="10.00">/layouts_settings.h</text>
</a>
</g>
</g>
<!-- Node19&#45;&gt;Node35 -->
<g id="edge36_Node000019_Node000035" class="edge">
<title>Node19&#45;&gt;Node35</title>
<g id="a_edge36_Node000019_Node000035"><a xlink:title=" ">
<path fill="none" stroke="#63b8ff" d="M2533.23,-247.38C2627.45,-241.51 2821.84,-226.46 2983.5,-195 2989.42,-193.85 2995.57,-192.43 3001.65,-190.9"/>
<polygon fill="#63b8ff" stroke="#63b8ff" points="3006.73,-189.58 3002.46,-193.01 3004.31,-190.21 3001.89,-190.83 3001.89,-190.83 3001.89,-190.83 3004.31,-190.21 3001.33,-188.66 3006.73,-189.58 3006.73,-189.58"/>
</a>
</g>
</g>
<!-- Node36 -->
<g id="Node000036" class="node">
<title>Node36</title>
<g id="a_Node000036"><a xlink:title=" ">
<polygon fill="#e0e0e0" stroke="#999999" points="3250.5,-189.5 3130.5,-189.5 3130.5,-159.5 3250.5,-159.5 3250.5,-189.5"/>
<text text-anchor="start" x="3138.5" y="-177.5" font-family="Helvetica,sans-Serif" font-size="10.00">libcockatrice/settings</text>
<text text-anchor="middle" x="3190.5" y="-166.5" font-family="Helvetica,sans-Serif" font-size="10.00">/message_settings.h</text>
</a>
</g>
</g>
<!-- Node19&#45;&gt;Node36 -->
<g id="edge37_Node000019_Node000036" class="edge">
<title>Node19&#45;&gt;Node36</title>
<g id="a_edge37_Node000019_Node000036"><a xlink:title=" ">
<path fill="none" stroke="#63b8ff" d="M2533.06,-249.23C2645.85,-245.91 2906.45,-234.27 3121.5,-195 3127.75,-193.86 3134.24,-192.4 3140.64,-190.79"/>
<polygon fill="#63b8ff" stroke="#63b8ff" points="3145.51,-189.54 3141.23,-192.96 3143.09,-190.16 3140.66,-190.79 3140.66,-190.79 3140.66,-190.79 3143.09,-190.16 3140.1,-188.61 3145.51,-189.54 3145.51,-189.54"/>
</a>
</g>
</g>
<!-- Node37 -->
<g id="Node000037" class="node">
<title>Node37</title>
<g id="a_Node000037"><a xlink:title=" ">
<polygon fill="#e0e0e0" stroke="#999999" points="3388.5,-189.5 3268.5,-189.5 3268.5,-159.5 3388.5,-159.5 3388.5,-189.5"/>
<text text-anchor="start" x="3276.5" y="-177.5" font-family="Helvetica,sans-Serif" font-size="10.00">libcockatrice/settings</text>
<text text-anchor="middle" x="3328.5" y="-166.5" font-family="Helvetica,sans-Serif" font-size="10.00">/recents_settings.h</text>
</a>
</g>
</g>
<!-- Node19&#45;&gt;Node37 -->
<g id="edge38_Node000019_Node000037" class="edge">
<title>Node19&#45;&gt;Node37</title>
<g id="a_edge38_Node000019_Node000037"><a xlink:title=" ">
<path fill="none" stroke="#63b8ff" d="M2533.48,-250.44C2663.32,-249.43 2990.68,-242 3259.5,-195 3265.85,-193.89 3272.46,-192.43 3278.96,-190.81"/>
<polygon fill="#63b8ff" stroke="#63b8ff" points="3283.9,-189.54 3279.61,-192.96 3281.48,-190.16 3279.05,-190.78 3279.05,-190.78 3279.05,-190.78 3281.48,-190.16 3278.49,-188.6 3283.9,-189.54 3283.9,-189.54"/>
</a>
</g>
</g>
<!-- Node38 -->
<g id="Node000038" class="node">
<title>Node38</title>
<g id="a_Node000038"><a xlink:title=" ">
<polygon fill="#e0e0e0" stroke="#999999" points="3526.5,-189.5 3406.5,-189.5 3406.5,-159.5 3526.5,-159.5 3526.5,-189.5"/>
<text text-anchor="start" x="3414.5" y="-177.5" font-family="Helvetica,sans-Serif" font-size="10.00">libcockatrice/settings</text>
<text text-anchor="middle" x="3466.5" y="-166.5" font-family="Helvetica,sans-Serif" font-size="10.00">/servers_settings.h</text>
</a>
</g>
</g>
<!-- Node19&#45;&gt;Node38 -->
<g id="edge39_Node000019_Node000038" class="edge">
<title>Node19&#45;&gt;Node38</title>
<g id="a_edge39_Node000019_Node000038"><a xlink:title=" ">
<path fill="none" stroke="#63b8ff" d="M2533.04,-251.3C2677.91,-252.44 3073.73,-249.85 3397.5,-195 3403.96,-193.91 3410.67,-192.44 3417.27,-190.8"/>
<polygon fill="#63b8ff" stroke="#63b8ff" points="3422.28,-189.51 3418,-192.93 3419.86,-190.13 3417.44,-190.75 3417.44,-190.75 3417.44,-190.75 3419.86,-190.13 3416.88,-188.57 3422.28,-189.51 3422.28,-189.51"/>
</a>
</g>
</g>
<!-- Node39 -->
<g id="Node000039" class="node">
<title>Node39</title>
<g id="a_Node000039"><a xlink:title=" ">
<polygon fill="#e0e0e0" stroke="#999999" points="3654.5,-189.5 3544.5,-189.5 3544.5,-159.5 3654.5,-159.5 3654.5,-189.5"/>
<text text-anchor="start" x="3552.5" y="-177.5" font-family="Helvetica,sans-Serif" font-size="10.00">libcockatrice/utility</text>
<text text-anchor="middle" x="3599.5" y="-166.5" font-family="Helvetica,sans-Serif" font-size="10.00">/macros.h</text>
</a>
</g>
</g>
<!-- Node19&#45;&gt;Node39 -->
<g id="edge40_Node000019_Node000039" class="edge">
<title>Node19&#45;&gt;Node39</title>
<g id="a_edge40_Node000019_Node000039"><a xlink:title=" ">
<path fill="none" stroke="#63b8ff" d="M2533.29,-249.34C2723.97,-245.18 3340.24,-229.33 3535.5,-195 3541.4,-193.96 3547.52,-192.55 3553.53,-190.96"/>
<polygon fill="#63b8ff" stroke="#63b8ff" points="3558.55,-189.59 3554.32,-193.08 3556.13,-190.25 3553.72,-190.91 3553.72,-190.91 3553.72,-190.91 3556.13,-190.25 3553.13,-188.74 3558.55,-189.59 3558.55,-189.59"/>
</a>
</g>
</g>
<!-- Node21 -->
<g id="Node000021" class="node">
<title>Node21</title>
<g id="a_Node000021"><a xlink:title=" ">
<polygon fill="#e0e0e0" stroke="#999999" points="1432,-101.5 1353,-101.5 1353,-82.5 1432,-82.5 1432,-101.5"/>
<text text-anchor="middle" x="1392.5" y="-89.5" font-family="Helvetica,sans-Serif" font-size="10.00">QApplication</text>
</a>
</g>
</g>
<!-- Node20&#45;&gt;Node21 -->
<g id="edge20_Node000020_Node000021" class="edge">
<title>Node20&#45;&gt;Node21</title>
<g id="a_edge20_Node000020_Node000021"><a xlink:title=" ">
<path fill="none" stroke="#63b8ff" d="M1561.34,-164.94C1531.95,-154.72 1482.06,-136.65 1440.5,-118 1431.1,-113.78 1420.94,-108.59 1412.4,-104.03"/>
<polygon fill="#63b8ff" stroke="#63b8ff" points="1407.84,-101.57 1413.31,-101.96 1410.04,-102.76 1412.24,-103.94 1412.24,-103.94 1412.24,-103.94 1410.04,-102.76 1411.17,-105.93 1407.84,-101.57 1407.84,-101.57"/>
</a>
</g>
</g>
<!-- Node22 -->
<g id="Node000022" class="node">
<title>Node22</title>
<g id="a_Node000022"><a xlink:title=" ">
<polygon fill="#e0e0e0" stroke="#999999" points="1539,-101.5 1450,-101.5 1450,-82.5 1539,-82.5 1539,-101.5"/>
<text text-anchor="middle" x="1494.5" y="-89.5" font-family="Helvetica,sans-Serif" font-size="10.00">QKeySequence</text>
</a>
</g>
</g>
<!-- Node20&#45;&gt;Node22 -->
<g id="edge21_Node000020_Node000022" class="edge">
<title>Node20&#45;&gt;Node22</title>
<g id="a_edge21_Node000020_Node000022"><a xlink:title=" ">
<path fill="none" stroke="#63b8ff" d="M1576.65,-164.89C1560.19,-150.48 1527.04,-121.47 1508.27,-105.05"/>
<polygon fill="#63b8ff" stroke="#63b8ff" points="1504.27,-101.55 1509.52,-103.15 1506.16,-103.2 1508.04,-104.85 1508.04,-104.85 1508.04,-104.85 1506.16,-103.2 1506.56,-106.54 1504.27,-101.55 1504.27,-101.55"/>
</a>
</g>
</g>
<!-- Node20&#45;&gt;Node23 -->
<g id="edge22_Node000020_Node000023" class="edge">
<title>Node20&#45;&gt;Node23</title>
<g id="a_edge22_Node000020_Node000023"><a xlink:title=" ">
<path fill="none" stroke="#63b8ff" d="M1597.95,-164.89C1617.26,-150.36 1656.3,-120.98 1678.03,-104.64"/>
<polygon fill="#63b8ff" stroke="#63b8ff" points="1682.13,-101.55 1679.49,-106.36 1680.13,-103.06 1678.14,-104.56 1678.14,-104.56 1678.14,-104.56 1680.13,-103.06 1676.78,-102.76 1682.13,-101.55 1682.13,-101.55"/>
</a>
</g>
</g>
<!-- Node24 -->
<g id="Node000024" class="node">
<title>Node24</title>
<g id="a_Node000024"><a xlink:title=" ">
<polygon fill="#e0e0e0" stroke="#999999" points="1621.5,-101.5 1557.5,-101.5 1557.5,-82.5 1621.5,-82.5 1621.5,-101.5"/>
<text text-anchor="middle" x="1589.5" y="-89.5" font-family="Helvetica,sans-Serif" font-size="10.00">QSettings</text>
</a>
</g>
</g>
<!-- Node20&#45;&gt;Node24 -->
<g id="edge23_Node000020_Node000024" class="edge">
<title>Node20&#45;&gt;Node24</title>
<g id="a_edge23_Node000020_Node000024"><a xlink:title=" ">
<path fill="none" stroke="#63b8ff" d="M1586.82,-164.89C1587.34,-151.04 1588.36,-123.69 1588.98,-107.01"/>
<polygon fill="#63b8ff" stroke="#63b8ff" points="1589.17,-101.8 1591.23,-106.88 1589.08,-104.3 1588.99,-106.79 1588.99,-106.79 1588.99,-106.79 1589.08,-104.3 1586.74,-106.71 1589.17,-101.8 1589.17,-101.8"/>
</a>
</g>
</g>
<!-- Node41 -->
<g id="Node000041" class="node">
<title>Node41</title>
<g id="a_Node000041"><a xlink:title=" ">
<polygon fill="#e0e0e0" stroke="#999999" points="3732,-184 3673,-184 3673,-165 3732,-165 3732,-184"/>
<text text-anchor="middle" x="3702.5" y="-172" font-family="Helvetica,sans-Serif" font-size="10.00">QWidget</text>
</a>
</g>
</g>
<!-- Node40&#45;&gt;Node41 -->
<g id="edge42_Node000040_Node000041" class="edge">
<title>Node40&#45;&gt;Node41</title>
<g id="a_edge42_Node000040_Node000041"><a xlink:title=" ">
<path fill="none" stroke="#63b8ff" d="M3695.19,-236.39C3696.8,-223.03 3699.19,-203.06 3700.8,-189.67"/>
<polygon fill="#63b8ff" stroke="#63b8ff" points="3701.44,-184.37 3703.07,-189.61 3701.14,-186.86 3700.84,-189.34 3700.84,-189.34 3700.84,-189.34 3701.14,-186.86 3698.61,-189.07 3701.44,-184.37 3701.44,-184.37"/>
</a>
</g>
</g>
<!-- Node43 -->
<g id="Node000043" class="node">
<title>Node43</title>
<g id="a_Node000043"><a xlink:title=" ">
<polygon fill="#e0e0e0" stroke="#999999" points="3867,-184 3750,-184 3750,-165 3867,-165 3867,-184"/>
<text text-anchor="middle" x="3808.5" y="-172" font-family="Helvetica,sans-Serif" font-size="10.00">QAbstractItemModel</text>
</a>
</g>
</g>
<!-- Node42&#45;&gt;Node43 -->
<g id="edge44_Node000042_Node000043" class="edge">
<title>Node42&#45;&gt;Node43</title>
<g id="a_edge44_Node000042_Node000043"><a xlink:title=" ">
<path fill="none" stroke="#63b8ff" d="M3808.5,-236.39C3808.5,-223.03 3808.5,-203.06 3808.5,-189.67"/>
<polygon fill="#63b8ff" stroke="#63b8ff" points="3808.5,-184.37 3810.75,-189.37 3808.5,-186.87 3808.5,-189.37 3808.5,-189.37 3808.5,-189.37 3808.5,-186.87 3806.25,-189.37 3808.5,-184.37 3808.5,-184.37"/>
</a>
</g>
</g>
<!-- Node44 -->
<g id="Node000044" class="node">
<title>Node44</title>
<g id="a_Node000044"><a xlink:title=" ">
<polygon fill="#e0e0e0" stroke="#999999" points="3994,-189.5 3885,-189.5 3885,-159.5 3994,-159.5 3994,-189.5"/>
<text text-anchor="start" x="3893" y="-177.5" font-family="Helvetica,sans-Serif" font-size="10.00">libcockatrice/filters</text>
<text text-anchor="middle" x="3939.5" y="-166.5" font-family="Helvetica,sans-Serif" font-size="10.00">/filter_card.h</text>
</a>
</g>
</g>
<!-- Node42&#45;&gt;Node44 -->
<g id="edge45_Node000042_Node000044" class="edge">
<title>Node42&#45;&gt;Node44</title>
<g id="a_edge45_Node000042_Node000044"><a xlink:title=" ">
<path fill="none" stroke="#63b8ff" d="M3833.14,-236.39C3855.1,-223.82 3887.25,-205.41 3910.46,-192.13"/>
<polygon fill="#63b8ff" stroke="#63b8ff" points="3914.97,-189.54 3911.75,-193.98 3912.8,-190.79 3910.63,-192.03 3910.63,-192.03 3910.63,-192.03 3912.8,-190.79 3909.51,-190.08 3914.97,-189.54 3914.97,-189.54"/>
</a>
</g>
</g>
</g>
</svg>
