<?xml version="1.0" encoding="UTF-8" standalone="no"?>
<!DOCTYPE svg PUBLIC "-//W3C//DTD SVG 1.1//EN"
 "http://www.w3.org/Graphics/SVG/1.1/DTD/svg11.dtd">
<!-- Generated by graphviz version 2.43.0 (0)
 -->
<!-- Title: PlayerActions::actMulligan Pages: 1 -->
<!--zoomable 1041 -->

<svg id="main" version="1.1" xmlns="http://www.w3.org/2000/svg" xmlns:xlink="http://www.w3.org/1999/xlink" xml:space="preserve" onload="init(evt)">

<style type="text/css"><![CDATA[
.node, .edge {opacity: 0.7;}
.node.selected, .edge.selected {opacity: 1;}
.edge:hover path { stroke: red; }
.edge:hover polygon { stroke: red; fill: red; }
]]></style>

<defs>
  <circle id="rim" cx="0" cy="0" r="7"/>
  <circle id="rim2" cx="0" cy="0" r="3.5"/>
  <g id="zoomPlus">
    <use xlink:href="#rim" fill="#404040"><set attributeName="fill" to="#808080" begin="zoomplus.mouseover" end="zoomplus.mouseout"/></use>
    <path d="M-4,0h8M0,-4v8" fill="none" stroke="white" stroke-width="1.5" pointer-events="none"/>
  </g>
  <g id="zoomMin">
    <use xlink:href="#rim" fill="#404040"><set attributeName="fill" to="#808080" begin="zoomminus.mouseover" end="zoomminus.mouseout"/></use>
    <path d="M-4,0h8" fill="none" stroke="white" stroke-width="1.5" pointer-events="none"/>
  </g>
  <g id="arrowUp" transform="translate(30 24)">
    <use xlink:href="#rim"/>
    <path pointer-events="none" fill="none" stroke="white" stroke-width="1.5" d="M0,-3.0v7 M-2.5,-0.5L0,-3.0L2.5,-0.5"/>
  </g>
  <g id="arrowRight" transform="rotate(90) translate(36 -43)">
    <use xlink:href="#rim"/>
    <path pointer-events="none" fill="none" stroke="white" stroke-width="1.5" d="M0,-3.0v7 M-2.5,-0.5L0,-3.0L2.5,-0.5"/>
  </g>
  <g id="arrowDown" transform="rotate(180) translate(-30 -48)">
    <use xlink:href="#rim"/>
    <path pointer-events="none" fill="none" stroke="white" stroke-width="1.5" d="M0,-3.0v7 M-2.5,-0.5L0,-3.0L2.5,-0.5"/>
  </g>
  <g id="arrowLeft" transform="rotate(270) translate(-36 17)">
    <use xlink:href="#rim"/>
    <path pointer-events="none" fill="none" stroke="white" stroke-width="1.5" d="M0,-3.0v7 M-2.5,-0.5L0,-3.0L2.5,-0.5"/>
  </g>
  <g id="resetDef">
    <use xlink:href="#rim2" fill="#404040"><set attributeName="fill" to="#808080" begin="reset.mouseover" end="reset.mouseout"/></use>
  </g>
</defs>
<script type="application/ecmascript">
var viewWidth = 1166;
var viewHeight = 1041;
var sectionId = 'dynsection-81';
</script>
<script type="application/ecmascript" xlink:href="../../svg.min.js"/>
<svg id="graph" class="graph">
<g id="viewport">
<title>PlayerActions::actMulligan</title>
<!-- Node1 -->
<g id="Node000001" class="node">
<title>Node1</title>
<g id="a_Node000001"><a xlink:title=" ">
<polygon fill="#999999" stroke="#666666" points="146,-865 0,-865 0,-846 146,-846 146,-865"/>
<text text-anchor="middle" x="73" y="-853" font-family="Helvetica,sans-Serif" font-size="10.00">PlayerActions::actMulligan</text>
</a>
</g>
</g>
<!-- Node2 -->
<g id="Node000002" class="node">
<title>Node2</title>
<g id="a_Node000002"><a xlink:href="../../d5/d88/classSettingsCache.html#a83001afacb9a7a3694e90ab532e5a0e9" target="_top" xlink:title=" ">
<polygon fill="white" stroke="#666666" points="351,-950.5 205,-950.5 205,-920.5 351,-920.5 351,-950.5"/>
<text text-anchor="start" x="213" y="-938.5" font-family="Helvetica,sans-Serif" font-size="10.00">SettingsCache::getStarting</text>
<text text-anchor="middle" x="278" y="-927.5" font-family="Helvetica,sans-Serif" font-size="10.00">HandSize</text>
</a>
</g>
</g>
<!-- Node1&#45;&gt;Node2 -->
<g id="edge1_Node000001_Node000002" class="edge">
<title>Node1&#45;&gt;Node2</title>
<g id="a_edge1_Node000001_Node000002"><a xlink:title=" ">
<path fill="none" stroke="#63b8ff" d="M89.57,-865.04C110.1,-877.27 147.64,-898.45 182,-911.5 189.24,-914.25 196.92,-916.78 204.64,-919.09"/>
<polygon fill="#63b8ff" stroke="#63b8ff" points="209.45,-920.49 204.02,-921.25 207.05,-919.79 204.65,-919.09 204.65,-919.09 204.65,-919.09 207.05,-919.79 205.28,-916.93 209.45,-920.49 209.45,-920.49"/>
</a>
</g>
</g>
<!-- Node3 -->
<g id="Node000003" class="node">
<title>Node3</title>
<g id="a_Node000003"><a xlink:href="../../d5/d88/classSettingsCache.html#adfa7f9f975919981b992db1fca9e4957" target="_top" xlink:title=" ">
<polygon fill="white" stroke="#666666" points="345,-884 211,-884 211,-865 345,-865 345,-884"/>
<text text-anchor="middle" x="278" y="-872" font-family="Helvetica,sans-Serif" font-size="10.00">SettingsCache::instance</text>
</a>
</g>
</g>
<!-- Node1&#45;&gt;Node3 -->
<g id="edge2_Node000001_Node000003" class="edge">
<title>Node1&#45;&gt;Node3</title>
<g id="a_edge2_Node000001_Node000003"><a xlink:title=" ">
<path fill="none" stroke="#63b8ff" d="M146.14,-862.25C165.41,-864.06 186.23,-866 205.47,-867.8"/>
<polygon fill="#63b8ff" stroke="#63b8ff" points="210.85,-868.31 205.66,-870.08 208.36,-868.08 205.87,-867.84 205.87,-867.84 205.87,-867.84 208.36,-868.08 206.08,-865.6 210.85,-868.31 210.85,-868.31"/>
</a>
</g>
</g>
<!-- Node33 -->
<g id="Node000033" class="node">
<title>Node33</title>
<g id="a_Node000033"><a xlink:href="../../d2/d23/classPlayerActions.html#a24052faefdf622e1bea1afb4c601644b" target="_top" xlink:title=" ">
<polygon fill="white" stroke="#666666" points="374,-847 182,-847 182,-828 374,-828 374,-847"/>
<text text-anchor="middle" x="278" y="-835" font-family="Helvetica,sans-Serif" font-size="10.00">PlayerActions::sendGameCommand</text>
</a>
</g>
</g>
<!-- Node1&#45;&gt;Node33 -->
<g id="edge50_Node000001_Node000033" class="edge">
<title>Node1&#45;&gt;Node33</title>
<g id="a_edge50_Node000001_Node000033"><a xlink:title=" ">
<path fill="none" stroke="#63b8ff" d="M146.14,-849.1C156.03,-848.23 166.33,-847.31 176.61,-846.4"/>
<polygon fill="#63b8ff" stroke="#63b8ff" points="181.66,-845.95 176.88,-848.64 179.17,-846.17 176.68,-846.4 176.68,-846.4 176.68,-846.4 179.17,-846.17 176.48,-844.15 181.66,-845.95 181.66,-845.95"/>
</a>
</g>
</g>
<!-- Node34 -->
<g id="Node000034" class="node">
<title>Node34</title>
<g id="a_Node000034"><a xlink:href="../../d5/d88/classSettingsCache.html#a4478bb6dd1ce89113c624b217868285c" target="_top" xlink:title=" ">
<polygon fill="white" stroke="#666666" points="351,-809.5 205,-809.5 205,-779.5 351,-779.5 351,-809.5"/>
<text text-anchor="start" x="213" y="-797.5" font-family="Helvetica,sans-Serif" font-size="10.00">SettingsCache::setStarting</text>
<text text-anchor="middle" x="278" y="-786.5" font-family="Helvetica,sans-Serif" font-size="10.00">HandSize</text>
</a>
</g>
</g>
<!-- Node1&#45;&gt;Node34 -->
<g id="edge51_Node000001_Node000034" class="edge">
<title>Node1&#45;&gt;Node34</title>
<g id="a_edge51_Node000001_Node000034"><a xlink:title=" ">
<path fill="none" stroke="#63b8ff" d="M100.92,-845.99C122.68,-838.43 154.16,-827.8 182,-819.5 191.83,-816.57 202.29,-813.64 212.53,-810.86"/>
<polygon fill="#63b8ff" stroke="#63b8ff" points="217.54,-809.52 213.3,-812.99 215.13,-810.17 212.72,-810.82 212.72,-810.82 212.72,-810.82 215.13,-810.17 212.13,-808.64 217.54,-809.52 217.54,-809.52"/>
</a>
</g>
</g>
<!-- Node3&#45;&gt;Node3 -->
<g id="edge3_Node000003_Node000003" class="edge">
<title>Node3&#45;&gt;Node3</title>
<g id="a_edge3_Node000003_Node000003"><a xlink:title=" ">
<path fill="none" stroke="#63b8ff" d="M246.56,-884.08C231.26,-892.73 241.74,-902 278,-902 309.73,-902 321.72,-894.91 313.97,-887.34"/>
<polygon fill="#63b8ff" stroke="#63b8ff" points="309.44,-884.08 314.82,-885.17 311.47,-885.54 313.5,-887 313.5,-887 313.5,-887 311.47,-885.54 312.19,-888.83 309.44,-884.08 309.44,-884.08"/>
</a>
</g>
</g>
<!-- Node4 -->
<g id="Node000004" class="node">
<title>Node4</title>
<g id="a_Node000004"><a xlink:href="../../d5/d88/classSettingsCache.html#a123df429cbb9f9aebff30f35e1d80685" target="_top" xlink:title=" ">
<polygon fill="white" stroke="#666666" points="572,-884 410,-884 410,-865 572,-865 572,-884"/>
<text text-anchor="middle" x="491" y="-872" font-family="Helvetica,sans-Serif" font-size="10.00">SettingsCache::SettingsCache</text>
</a>
</g>
</g>
<!-- Node3&#45;&gt;Node4 -->
<g id="edge4_Node000003_Node000004" class="edge">
<title>Node3&#45;&gt;Node4</title>
<g id="a_edge4_Node000003_Node000004"><a xlink:title=" ">
<path fill="none" stroke="#63b8ff" d="M345.18,-874.5C364.12,-874.5 385.04,-874.5 404.94,-874.5"/>
<polygon fill="#63b8ff" stroke="#63b8ff" points="409.98,-874.5 404.98,-876.75 407.48,-874.5 404.98,-874.5 404.98,-874.5 404.98,-874.5 407.48,-874.5 404.98,-872.25 409.98,-874.5 409.98,-874.5"/>
</a>
</g>
</g>
<!-- Node5 -->
<g id="Node000005" class="node">
<title>Node5</title>
<g id="a_Node000005"><a xlink:href="../../d5/d88/classSettingsCache.html#a4df0cf9669274d37491074c277c987d1" target="_top" xlink:title=" ">
<polygon fill="white" stroke="#666666" points="961.5,-884 792.5,-884 792.5,-865 961.5,-865 961.5,-884"/>
<text text-anchor="middle" x="877" y="-872" font-family="Helvetica,sans-Serif" font-size="10.00">SettingsCache::getSettingsPath</text>
</a>
</g>
</g>
<!-- Node4&#45;&gt;Node5 -->
<g id="edge5_Node000004_Node000005" class="edge">
<title>Node4&#45;&gt;Node5</title>
<g id="a_edge5_Node000004_Node000005"><a xlink:title=" ">
<path fill="none" stroke="#63b8ff" d="M572.03,-874.5C634.91,-874.5 722.4,-874.5 787.39,-874.5"/>
<polygon fill="#63b8ff" stroke="#63b8ff" points="792.42,-874.5 787.42,-876.75 789.92,-874.5 787.42,-874.5 787.42,-874.5 787.42,-874.5 789.92,-874.5 787.42,-872.25 792.42,-874.5 792.42,-874.5"/>
</a>
</g>
</g>
<!-- Node7 -->
<g id="Node000007" class="node">
<title>Node7</title>
<g id="a_Node000007"><a xlink:href="../../d5/d88/classSettingsCache.html#ad2f1a79bfdd2ed465b60aa089f7c2596" target="_top" xlink:title=" ">
<polygon fill="white" stroke="#666666" points="748,-964 608,-964 608,-945 748,-945 748,-964"/>
<text text-anchor="middle" x="678" y="-952" font-family="Helvetica,sans-Serif" font-size="10.00">SettingsCache::loadPaths</text>
</a>
</g>
</g>
<!-- Node4&#45;&gt;Node7 -->
<g id="edge7_Node000004_Node000007" class="edge">
<title>Node4&#45;&gt;Node7</title>
<g id="a_edge7_Node000004_Node000007"><a xlink:title=" ">
<path fill="none" stroke="#63b8ff" d="M514.32,-884.15C548.44,-898.91 613.47,-927.03 650.13,-942.88"/>
<polygon fill="#63b8ff" stroke="#63b8ff" points="654.89,-944.94 649.41,-945.02 652.6,-943.95 650.3,-942.96 650.3,-942.96 650.3,-942.96 652.6,-943.95 651.2,-940.89 654.89,-944.94 654.89,-944.94"/>
</a>
</g>
</g>
<!-- Node11 -->
<g id="Node000011" class="node">
<title>Node11</title>
<g id="a_Node000011"><a xlink:href="../../d5/d88/classSettingsCache.html#a551fa1f2049b53d0d40bc64f0793db0e" target="_top" xlink:title=" ">
<polygon fill="white" stroke="#666666" points="746,-511.5 610,-511.5 610,-481.5 746,-481.5 746,-511.5"/>
<text text-anchor="start" x="618" y="-499.5" font-family="Helvetica,sans-Serif" font-size="10.00">SettingsCache::translate</text>
<text text-anchor="middle" x="678" y="-488.5" font-family="Helvetica,sans-Serif" font-size="10.00">LegacySettings</text>
</a>
</g>
</g>
<!-- Node4&#45;&gt;Node11 -->
<g id="edge12_Node000004_Node000011" class="edge">
<title>Node4&#45;&gt;Node11</title>
<g id="a_edge12_Node000004_Node000011"><a xlink:title=" ">
<path fill="none" stroke="#63b8ff" d="M496.76,-864.78C521.28,-814.67 633.53,-585.31 667.34,-516.24"/>
<polygon fill="#63b8ff" stroke="#63b8ff" points="669.64,-511.55 669.46,-517.03 668.54,-513.79 667.44,-516.04 667.44,-516.04 667.44,-516.04 668.54,-513.79 665.42,-515.05 669.64,-511.55 669.64,-511.55"/>
</a>
</g>
</g>
<!-- Node6 -->
<g id="Node000006" class="node">
<title>Node6</title>
<g id="a_Node000006"><a xlink:href="../../d5/d88/classSettingsCache.html#a5b9f6307bce45f0c84ed722a64f9ba07" target="_top" xlink:title=" ">
<polygon fill="white" stroke="#666666" points="1158,-964 1006,-964 1006,-945 1158,-945 1158,-964"/>
<text text-anchor="middle" x="1082" y="-952" font-family="Helvetica,sans-Serif" font-size="10.00">SettingsCache::getDataPath</text>
</a>
</g>
</g>
<!-- Node5&#45;&gt;Node6 -->
<g id="edge6_Node000005_Node000006" class="edge">
<title>Node5&#45;&gt;Node6</title>
<g id="a_edge6_Node000005_Node000006"><a xlink:title=" ">
<path fill="none" stroke="#63b8ff" d="M937.63,-884.1C948.56,-886.62 959.75,-889.72 970,-893.5 1004.48,-906.21 1041.24,-928.32 1062.62,-942.14"/>
<polygon fill="#63b8ff" stroke="#63b8ff" points="1066.94,-944.96 1061.52,-944.11 1064.84,-943.59 1062.75,-942.23 1062.75,-942.23 1062.75,-942.23 1064.84,-943.59 1063.98,-940.34 1066.94,-944.96 1066.94,-944.96"/>
</a>
</g>
</g>
<!-- Node7&#45;&gt;Node6 -->
<g id="edge9_Node000007_Node000006" class="edge">
<title>Node7&#45;&gt;Node6</title>
<g id="a_edge9_Node000007_Node000006"><a xlink:title=" ">
<path fill="none" stroke="#63b8ff" d="M690.33,-964.02C708.62,-978.7 746.42,-1006.23 784,-1016.5 863.74,-1038.29 890,-1037.33 970,-1016.5 1006.69,-1006.95 1044.12,-982.3 1064.78,-967.11"/>
<polygon fill="#63b8ff" stroke="#63b8ff" points="1068.93,-964.03 1066.26,-968.82 1066.92,-965.52 1064.91,-967.01 1064.91,-967.01 1064.91,-967.01 1066.92,-965.52 1063.57,-965.21 1068.93,-964.03 1068.93,-964.03"/>
</a>
</g>
</g>
<!-- Node8 -->
<g id="Node000008" class="node">
<title>Node8</title>
<g id="a_Node000008"><a xlink:href="../../d5/d88/classSettingsCache.html#a77ffc38b601d1128c21f348ed425426b" target="_top" xlink:title=" ">
<polygon fill="white" stroke="#666666" points="956.5,-1007 797.5,-1007 797.5,-988 956.5,-988 956.5,-1007"/>
<text text-anchor="middle" x="877" y="-995" font-family="Helvetica,sans-Serif" font-size="10.00">SettingsCache::getCachePath</text>
</a>
</g>
</g>
<!-- Node7&#45;&gt;Node8 -->
<g id="edge8_Node000007_Node000008" class="edge">
<title>Node7&#45;&gt;Node8</title>
<g id="a_edge8_Node000007_Node000008"><a xlink:title=" ">
<path fill="none" stroke="#63b8ff" d="M719.84,-964.05C739.26,-968.53 762.8,-973.89 784,-978.5 796.8,-981.28 810.63,-984.19 823.58,-986.87"/>
<polygon fill="#63b8ff" stroke="#63b8ff" points="828.68,-987.93 823.33,-989.12 826.24,-987.42 823.79,-986.92 823.79,-986.92 823.79,-986.92 826.24,-987.42 824.24,-984.71 828.68,-987.93 828.68,-987.93"/>
</a>
</g>
</g>
<!-- Node9 -->
<g id="Node000009" class="node">
<title>Node9</title>
<g id="a_Node000009"><a xlink:href="../../d5/d88/classSettingsCache.html#a3778996fd17a75e0b4860dfcc3a2ce6d" target="_top" xlink:title=" ">
<polygon fill="white" stroke="#666666" points="957.5,-969.5 796.5,-969.5 796.5,-939.5 957.5,-939.5 957.5,-969.5"/>
<text text-anchor="start" x="804.5" y="-957.5" font-family="Helvetica,sans-Serif" font-size="10.00">SettingsCache::getSafeConfig</text>
<text text-anchor="middle" x="877" y="-946.5" font-family="Helvetica,sans-Serif" font-size="10.00">FilePath</text>
</a>
</g>
</g>
<!-- Node7&#45;&gt;Node9 -->
<g id="edge10_Node000007_Node000009" class="edge">
<title>Node7&#45;&gt;Node9</title>
<g id="a_edge10_Node000007_Node000009"><a xlink:title=" ">
<path fill="none" stroke="#63b8ff" d="M748.18,-954.5C762,-954.5 776.67,-954.5 790.96,-954.5"/>
<polygon fill="#63b8ff" stroke="#63b8ff" points="796.2,-954.5 791.2,-956.75 793.7,-954.5 791.2,-954.5 791.2,-954.5 791.2,-954.5 793.7,-954.5 791.2,-952.25 796.2,-954.5 796.2,-954.5"/>
</a>
</g>
</g>
<!-- Node10 -->
<g id="Node000010" class="node">
<title>Node10</title>
<g id="a_Node000010"><a xlink:href="../../d5/d88/classSettingsCache.html#a958f00fd81be250f52efd0331e3c2b1e" target="_top" xlink:title=" ">
<polygon fill="white" stroke="#666666" points="968,-921 786,-921 786,-902 968,-902 968,-921"/>
<text text-anchor="middle" x="877" y="-909" font-family="Helvetica,sans-Serif" font-size="10.00">SettingsCache::getSafeConfigPath</text>
</a>
</g>
</g>
<!-- Node7&#45;&gt;Node10 -->
<g id="edge11_Node000007_Node000010" class="edge">
<title>Node7&#45;&gt;Node10</title>
<g id="a_edge11_Node000007_Node000010"><a xlink:title=" ">
<path fill="none" stroke="#63b8ff" d="M719.84,-944.95C739.26,-940.47 762.8,-935.11 784,-930.5 796.8,-927.72 810.63,-924.81 823.58,-922.13"/>
<polygon fill="#63b8ff" stroke="#63b8ff" points="828.68,-921.07 824.24,-924.29 826.24,-921.58 823.79,-922.08 823.79,-922.08 823.79,-922.08 826.24,-921.58 823.33,-919.88 828.68,-921.07 828.68,-921.07"/>
</a>
</g>
</g>
<!-- Node11&#45;&gt;Node5 -->
<g id="edge15_Node000011_Node000005" class="edge">
<title>Node11&#45;&gt;Node5</title>
<g id="a_edge15_Node000011_Node000005"><a xlink:title=" ">
<path fill="none" stroke="#63b8ff" d="M678.37,-511.54C676.96,-566.68 679.93,-759.53 784,-855.5 786.8,-858.08 789.86,-860.36 793.1,-862.35"/>
<polygon fill="#63b8ff" stroke="#63b8ff" points="797.63,-864.9 792.17,-864.41 795.45,-863.67 793.28,-862.45 793.28,-862.45 793.28,-862.45 795.45,-863.67 794.38,-860.48 797.63,-864.9 797.63,-864.9"/>
</a>
</g>
</g>
<!-- Node12 -->
<g id="Node000012" class="node">
<title>Node12</title>
<g id="a_Node000012"><a xlink:href="../../d5/d88/classSettingsCache.html#a6142af053f52838bf022a7c5d0e0ce4c" target="_top" xlink:title=" ">
<polygon fill="white" stroke="#666666" points="957,-638 797,-638 797,-619 957,-619 957,-638"/>
<text text-anchor="middle" x="877" y="-626" font-family="Helvetica,sans-Serif" font-size="10.00">SettingsCache::cardDatabase</text>
</a>
</g>
</g>
<!-- Node11&#45;&gt;Node12 -->
<g id="edge13_Node000011_Node000012" class="edge">
<title>Node11&#45;&gt;Node12</title>
<g id="a_edge13_Node000011_Node000012"><a xlink:title=" ">
<path fill="none" stroke="#63b8ff" d="M688.2,-511.53C704.3,-536.43 740.08,-585.94 784,-610.5 788.68,-613.11 793.67,-615.35 798.83,-617.27"/>
<polygon fill="#63b8ff" stroke="#63b8ff" points="803.6,-618.95 798.14,-619.42 801.24,-618.12 798.88,-617.29 798.88,-617.29 798.88,-617.29 801.24,-618.12 799.63,-615.17 803.6,-618.95 803.6,-618.95"/>
</a>
</g>
</g>
<!-- Node13 -->
<g id="Node000013" class="node">
<title>Node13</title>
<g id="a_Node000013"><a xlink:href="../../d5/d88/classSettingsCache.html#a9203086f195726592cc2f1ebabb97a1f" target="_top" xlink:title=" ">
<polygon fill="white" stroke="#666666" points="952,-601 802,-601 802,-582 952,-582 952,-601"/>
<text text-anchor="middle" x="877" y="-589" font-family="Helvetica,sans-Serif" font-size="10.00">SettingsCache::gameFilters</text>
</a>
</g>
</g>
<!-- Node11&#45;&gt;Node13 -->
<g id="edge14_Node000011_Node000013" class="edge">
<title>Node11&#45;&gt;Node13</title>
<g id="a_edge14_Node000011_Node000013"><a xlink:title=" ">
<path fill="none" stroke="#63b8ff" d="M694.67,-511.51C714.05,-529.18 748.8,-558.08 784,-573.5 790.18,-576.21 796.76,-578.51 803.47,-580.47"/>
<polygon fill="#63b8ff" stroke="#63b8ff" points="808.61,-581.9 803.19,-582.72 806.2,-581.23 803.8,-580.56 803.8,-580.56 803.8,-580.56 806.2,-581.23 804.4,-578.39 808.61,-581.9 808.61,-581.9"/>
</a>
</g>
</g>
<!-- Node14 -->
<g id="Node000014" class="node">
<title>Node14</title>
<g id="a_Node000014"><a xlink:href="../../d5/d88/classSettingsCache.html#afaf64ee1ba054d076e47e35577edfdbe" target="_top" xlink:title=" ">
<polygon fill="white" stroke="#666666" points="948,-564 806,-564 806,-545 948,-545 948,-564"/>
<text text-anchor="middle" x="877" y="-552" font-family="Helvetica,sans-Serif" font-size="10.00">SettingsCache::messages</text>
</a>
</g>
</g>
<!-- Node11&#45;&gt;Node14 -->
<g id="edge16_Node000011_Node000014" class="edge">
<title>Node11&#45;&gt;Node14</title>
<g id="a_edge16_Node000011_Node000014"><a xlink:title=" ">
<path fill="none" stroke="#63b8ff" d="M713.97,-511.54C734.15,-519.79 760.18,-529.69 784,-536.5 793.68,-539.27 804.06,-541.75 814.23,-543.92"/>
<polygon fill="#63b8ff" stroke="#63b8ff" points="819.2,-544.96 813.84,-546.14 816.75,-544.45 814.31,-543.94 814.31,-543.94 814.31,-543.94 816.75,-544.45 814.77,-541.74 819.2,-544.96 819.2,-544.96"/>
</a>
</g>
</g>
<!-- Node15 -->
<g id="Node000015" class="node">
<title>Node15</title>
<g id="a_Node000015"><a xlink:href="../../d5/d88/classSettingsCache.html#a7037026b8832432a3a208fd25ea9156a" target="_top" xlink:title=" ">
<polygon fill="white" stroke="#666666" points="941,-527 813,-527 813,-508 941,-508 941,-527"/>
<text text-anchor="middle" x="877" y="-515" font-family="Helvetica,sans-Serif" font-size="10.00">SettingsCache::servers</text>
</a>
</g>
</g>
<!-- Node11&#45;&gt;Node15 -->
<g id="edge17_Node000011_Node000015" class="edge">
<title>Node11&#45;&gt;Node15</title>
<g id="a_edge17_Node000011_Node000015"><a xlink:title=" ">
<path fill="none" stroke="#63b8ff" d="M746.25,-503.67C766.08,-505.78 787.79,-508.1 807.69,-510.22"/>
<polygon fill="#63b8ff" stroke="#63b8ff" points="812.71,-510.75 807.5,-512.46 810.22,-510.49 807.74,-510.22 807.74,-510.22 807.74,-510.22 810.22,-510.49 807.98,-507.99 812.71,-510.75 812.71,-510.75"/>
</a>
</g>
</g>
<!-- Node16 -->
<g id="Node000016" class="node">
<title>Node16</title>
<g id="a_Node000016"><a xlink:href="../../df/db1/classServersSettings.html#ac8fb70f4260de103d41c9310db3f1730" target="_top" xlink:title=" ">
<polygon fill="white" stroke="#666666" points="945.5,-67.5 808.5,-67.5 808.5,-37.5 945.5,-37.5 945.5,-67.5"/>
<text text-anchor="start" x="816.5" y="-55.5" font-family="Helvetica,sans-Serif" font-size="10.00">ServersSettings::setAuto</text>
<text text-anchor="middle" x="877" y="-44.5" font-family="Helvetica,sans-Serif" font-size="10.00">Connect</text>
</a>
</g>
</g>
<!-- Node11&#45;&gt;Node16 -->
<g id="edge18_Node000011_Node000016" class="edge">
<title>Node11&#45;&gt;Node16</title>
<g id="a_edge18_Node000011_Node000016"><a xlink:title=" ">
<path fill="none" stroke="#63b8ff" d="M680.74,-481.26C688.8,-413.02 724.78,-136.33 784,-76.5 789.47,-70.97 796.05,-66.67 803.13,-63.32"/>
<polygon fill="#63b8ff" stroke="#63b8ff" points="808.11,-61.15 804.43,-65.21 805.82,-62.15 803.53,-63.15 803.53,-63.15 803.53,-63.15 805.82,-62.15 802.63,-61.08 808.11,-61.15 808.11,-61.15"/>
</a>
</g>
</g>
<!-- Node18 -->
<g id="Node000018" class="node">
<title>Node18</title>
<g id="a_Node000018"><a xlink:href="../../d3/dc1/classMessageSettings.html#aa9733545c935a109f990a75a67341391" target="_top" xlink:title=" ">
<polygon fill="white" stroke="#666666" points="951.5,-19 802.5,-19 802.5,0 951.5,0 951.5,-19"/>
<text text-anchor="middle" x="877" y="-7" font-family="Helvetica,sans-Serif" font-size="10.00">MessageSettings::setCount</text>
</a>
</g>
</g>
<!-- Node11&#45;&gt;Node18 -->
<g id="edge20_Node000011_Node000018" class="edge">
<title>Node11&#45;&gt;Node18</title>
<g id="a_edge20_Node000011_Node000018"><a xlink:title=" ">
<path fill="none" stroke="#63b8ff" d="M680.22,-481.44C686.44,-408.7 716.9,-94.47 784,-28.5 788.01,-24.56 792.6,-21.34 797.55,-18.71"/>
<polygon fill="#63b8ff" stroke="#63b8ff" points="802.19,-16.46 798.68,-20.67 799.95,-17.55 797.7,-18.64 797.7,-18.64 797.7,-18.64 799.95,-17.55 796.71,-16.62 802.19,-16.46 802.19,-16.46"/>
</a>
</g>
</g>
<!-- Node19 -->
<g id="Node000019" class="node">
<title>Node19</title>
<g id="a_Node000019"><a xlink:href="../../de/dbe/classCardDatabaseSettings.html#aad6d6521443d33a3a80c74fb12ea2b7d" target="_top" xlink:title=" ">
<polygon fill="white" stroke="#666666" points="939.5,-846.5 814.5,-846.5 814.5,-816.5 939.5,-816.5 939.5,-846.5"/>
<text text-anchor="start" x="822.5" y="-834.5" font-family="Helvetica,sans-Serif" font-size="10.00">CardDatabaseSettings</text>
<text text-anchor="middle" x="877" y="-823.5" font-family="Helvetica,sans-Serif" font-size="10.00">::setEnabled</text>
</a>
</g>
</g>
<!-- Node11&#45;&gt;Node19 -->
<g id="edge22_Node000011_Node000019" class="edge">
<title>Node11&#45;&gt;Node19</title>
<g id="a_edge22_Node000011_Node000019"><a xlink:title=" ">
<path fill="none" stroke="#63b8ff" d="M679.33,-511.8C681.29,-562.14 694.58,-724.16 784,-807.5 791.2,-814.21 800.03,-819.09 809.35,-822.64"/>
<polygon fill="#63b8ff" stroke="#63b8ff" points="814.26,-824.38 808.8,-824.83 811.9,-823.54 809.55,-822.71 809.55,-822.71 809.55,-822.71 811.9,-823.54 810.3,-820.59 814.26,-824.38 814.26,-824.38"/>
</a>
</g>
</g>
<!-- Node20 -->
<g id="Node000020" class="node">
<title>Node20</title>
<g id="a_Node000020"><a xlink:href="../../df/db1/classServersSettings.html#af541f9f138d997de84423bc2460a71ea" target="_top" xlink:title=" ">
<polygon fill="white" stroke="#666666" points="966,-798 788,-798 788,-779 966,-779 966,-798"/>
<text text-anchor="middle" x="877" y="-786" font-family="Helvetica,sans-Serif" font-size="10.00">ServersSettings::setFPHostName</text>
</a>
</g>
</g>
<!-- Node11&#45;&gt;Node20 -->
<g id="edge24_Node000011_Node000020" class="edge">
<title>Node11&#45;&gt;Node20</title>
<g id="a_edge24_Node000011_Node000020"><a xlink:title=" ">
<path fill="none" stroke="#63b8ff" d="M679.89,-511.51C683.49,-558.03 701.14,-700.84 784,-770.5 786.62,-772.7 789.42,-774.66 792.37,-776.4"/>
<polygon fill="#63b8ff" stroke="#63b8ff" points="797.11,-778.97 791.64,-778.57 794.91,-777.78 792.71,-776.59 792.71,-776.59 792.71,-776.59 794.91,-777.78 793.78,-774.61 797.11,-778.97 797.11,-778.97"/>
</a>
</g>
</g>
<!-- Node21 -->
<g id="Node000021" class="node">
<title>Node21</title>
<g id="a_Node000021"><a xlink:href="../../df/db1/classServersSettings.html#af8bd3309b53957bb64f557461ac7d9ea" target="_top" xlink:title=" ">
<polygon fill="white" stroke="#666666" points="970,-761 784,-761 784,-742 970,-742 970,-761"/>
<text text-anchor="middle" x="877" y="-749" font-family="Helvetica,sans-Serif" font-size="10.00">ServersSettings::setFPPlayerName</text>
</a>
</g>
</g>
<!-- Node11&#45;&gt;Node21 -->
<g id="edge26_Node000011_Node000021" class="edge">
<title>Node11&#45;&gt;Node21</title>
<g id="a_edge26_Node000011_Node000021"><a xlink:title=" ">
<path fill="none" stroke="#63b8ff" d="M680.88,-511.6C687.02,-553.99 710.48,-674.84 784,-733.5 786.89,-735.8 789.98,-737.84 793.23,-739.64"/>
<polygon fill="#63b8ff" stroke="#63b8ff" points="797.75,-741.95 792.27,-741.67 795.52,-740.81 793.3,-739.67 793.3,-739.67 793.3,-739.67 795.52,-740.81 794.32,-737.67 797.75,-741.95 797.75,-741.95"/>
</a>
</g>
</g>
<!-- Node22 -->
<g id="Node000022" class="node">
<title>Node22</title>
<g id="a_Node000022"><a xlink:href="../../df/db1/classServersSettings.html#ac023a258e6b20ff793c419e2ce1cf0a9" target="_top" xlink:title=" ">
<polygon fill="white" stroke="#666666" points="950,-724 804,-724 804,-705 950,-705 950,-724"/>
<text text-anchor="middle" x="877" y="-712" font-family="Helvetica,sans-Serif" font-size="10.00">ServersSettings::setFPPort</text>
</a>
</g>
</g>
<!-- Node11&#45;&gt;Node22 -->
<g id="edge28_Node000011_Node000022" class="edge">
<title>Node11&#45;&gt;Node22</title>
<g id="a_edge28_Node000011_Node000022"><a xlink:title=" ">
<path fill="none" stroke="#63b8ff" d="M682.29,-511.59C691.3,-549.2 720.14,-647.51 784,-695.5 788.69,-699.02 793.87,-701.93 799.32,-704.32"/>
<polygon fill="#63b8ff" stroke="#63b8ff" points="803.95,-706.22 798.47,-706.41 801.64,-705.27 799.32,-704.33 799.32,-704.33 799.32,-704.33 801.64,-705.27 800.17,-702.24 803.95,-706.22 803.95,-706.22"/>
</a>
</g>
</g>
<!-- Node23 -->
<g id="Node000023" class="node">
<title>Node23</title>
<g id="a_Node000023"><a xlink:href="../../df/dd0/classGameFiltersSettings.html#abe3e0fad71cc3919bfcf0ed164e28bd8" target="_top" xlink:title=" ">
<polygon fill="white" stroke="#666666" points="959.5,-686.5 794.5,-686.5 794.5,-656.5 959.5,-656.5 959.5,-686.5"/>
<text text-anchor="start" x="802.5" y="-674.5" font-family="Helvetica,sans-Serif" font-size="10.00">GameFiltersSettings</text>
<text text-anchor="middle" x="877" y="-663.5" font-family="Helvetica,sans-Serif" font-size="10.00">::setGameHashedTypeEnabled</text>
</a>
</g>
</g>
<!-- Node11&#45;&gt;Node23 -->
<g id="edge30_Node000011_Node000023" class="edge">
<title>Node11&#45;&gt;Node23</title>
<g id="a_edge30_Node000011_Node000023"><a xlink:title=" ">
<path fill="none" stroke="#63b8ff" d="M685.14,-511.59C698.39,-542.2 732.67,-611.69 784,-647.5 787.5,-649.94 791.24,-652.14 795.12,-654.11"/>
<polygon fill="#63b8ff" stroke="#63b8ff" points="799.74,-656.32 794.26,-656.19 797.49,-655.24 795.23,-654.16 795.23,-654.16 795.23,-654.16 797.49,-655.24 796.21,-652.14 799.74,-656.32 799.74,-656.32"/>
</a>
</g>
</g>
<!-- Node24 -->
<g id="Node000024" class="node">
<title>Node24</title>
<g id="a_Node000024"><a xlink:href="../../df/dd0/classGameFiltersSettings.html#a83937896519de48f99f8e3b196c4fef5" target="_top" xlink:title=" ">
<polygon fill="white" stroke="#666666" points="937.5,-489.5 816.5,-489.5 816.5,-459.5 937.5,-459.5 937.5,-489.5"/>
<text text-anchor="start" x="824.5" y="-477.5" font-family="Helvetica,sans-Serif" font-size="10.00">GameFiltersSettings</text>
<text text-anchor="middle" x="877" y="-466.5" font-family="Helvetica,sans-Serif" font-size="10.00">::setGameNameFilter</text>
</a>
</g>
</g>
<!-- Node11&#45;&gt;Node24 -->
<g id="edge32_Node000011_Node000024" class="edge">
<title>Node11&#45;&gt;Node24</title>
<g id="a_edge32_Node000011_Node000024"><a xlink:title=" ">
<path fill="none" stroke="#63b8ff" d="M746.25,-488.99C767.3,-486.64 790.47,-484.05 811.34,-481.72"/>
<polygon fill="#63b8ff" stroke="#63b8ff" points="816.31,-481.17 811.59,-483.96 813.83,-481.44 811.34,-481.72 811.34,-481.72 811.34,-481.72 813.83,-481.44 811.09,-479.48 816.31,-481.17 816.31,-481.17"/>
</a>
</g>
</g>
<!-- Node25 -->
<g id="Node000025" class="node">
<title>Node25</title>
<g id="a_Node000025"><a xlink:href="../../df/dd0/classGameFiltersSettings.html#a1362067b0415249084e2f5f89f2c5bfb" target="_top" xlink:title=" ">
<polygon fill="white" stroke="#666666" points="954,-441.5 800,-441.5 800,-411.5 954,-411.5 954,-441.5"/>
<text text-anchor="start" x="808" y="-429.5" font-family="Helvetica,sans-Serif" font-size="10.00">GameFiltersSettings</text>
<text text-anchor="middle" x="877" y="-418.5" font-family="Helvetica,sans-Serif" font-size="10.00">::setHideIgnoredUserGames</text>
</a>
</g>
</g>
<!-- Node11&#45;&gt;Node25 -->
<g id="edge34_Node000011_Node000025" class="edge">
<title>Node11&#45;&gt;Node25</title>
<g id="a_edge34_Node000011_Node000025"><a xlink:title=" ">
<path fill="none" stroke="#63b8ff" d="M710.19,-481.29C730.81,-471.62 758.62,-459.31 784,-450.5 791.62,-447.86 799.68,-445.35 807.74,-443.02"/>
<polygon fill="#63b8ff" stroke="#63b8ff" points="812.75,-441.59 808.56,-445.12 810.35,-442.27 807.94,-442.96 807.94,-442.96 807.94,-442.96 810.35,-442.27 807.33,-440.8 812.75,-441.59 812.75,-441.59"/>
</a>
</g>
</g>
<!-- Node26 -->
<g id="Node000026" class="node">
<title>Node26</title>
<g id="a_Node000026"><a xlink:href="../../de/dbe/classCardDatabaseSettings.html#a06bb3199840818021504d99a472818a7" target="_top" xlink:title=" ">
<polygon fill="white" stroke="#666666" points="939.5,-393.5 814.5,-393.5 814.5,-363.5 939.5,-363.5 939.5,-393.5"/>
<text text-anchor="start" x="822.5" y="-381.5" font-family="Helvetica,sans-Serif" font-size="10.00">CardDatabaseSettings</text>
<text text-anchor="middle" x="877" y="-370.5" font-family="Helvetica,sans-Serif" font-size="10.00">::setIsKnown</text>
</a>
</g>
</g>
<!-- Node11&#45;&gt;Node26 -->
<g id="edge36_Node000011_Node000026" class="edge">
<title>Node11&#45;&gt;Node26</title>
<g id="a_edge36_Node000011_Node000026"><a xlink:title=" ">
<path fill="none" stroke="#63b8ff" d="M691.62,-481.38C709.85,-460.5 745.63,-423.1 784,-402.5 791.85,-398.28 800.49,-394.78 809.22,-391.87"/>
<polygon fill="#63b8ff" stroke="#63b8ff" points="814.08,-390.32 810.01,-393.98 811.7,-391.08 809.32,-391.84 809.32,-391.84 809.32,-391.84 811.7,-391.08 808.63,-389.7 814.08,-390.32 814.08,-390.32"/>
</a>
</g>
</g>
<!-- Node27 -->
<g id="Node000027" class="node">
<title>Node27</title>
<g id="a_Node000027"><a xlink:href="../../df/dd0/classGameFiltersSettings.html#abd3ff2823682e59bfa87c38e09a093c0" target="_top" xlink:title=" ">
<polygon fill="white" stroke="#666666" points="935,-345.5 819,-345.5 819,-315.5 935,-315.5 935,-345.5"/>
<text text-anchor="start" x="827" y="-333.5" font-family="Helvetica,sans-Serif" font-size="10.00">GameFiltersSettings</text>
<text text-anchor="middle" x="877" y="-322.5" font-family="Helvetica,sans-Serif" font-size="10.00">::setMaxPlayers</text>
</a>
</g>
</g>
<!-- Node11&#45;&gt;Node27 -->
<g id="edge38_Node000011_Node000027" class="edge">
<title>Node11&#45;&gt;Node27</title>
<g id="a_edge38_Node000011_Node000027"><a xlink:title=" ">
<path fill="none" stroke="#63b8ff" d="M685.82,-481.41C699.83,-452.19 734.73,-387.82 784,-354.5 793.01,-348.41 803.48,-343.86 814.06,-340.47"/>
<polygon fill="#63b8ff" stroke="#63b8ff" points="818.92,-338.99 814.79,-342.59 816.53,-339.71 814.14,-340.44 814.14,-340.44 814.14,-340.44 816.53,-339.71 813.49,-338.29 818.92,-338.99 818.92,-338.99"/>
</a>
</g>
</g>
<!-- Node28 -->
<g id="Node000028" class="node">
<title>Node28</title>
<g id="a_Node000028"><a xlink:href="../../d3/dc1/classMessageSettings.html#a778994c40f5eccf153d5ad855eac706e" target="_top" xlink:title=" ">
<polygon fill="white" stroke="#666666" points="964.5,-297 789.5,-297 789.5,-278 964.5,-278 964.5,-297"/>
<text text-anchor="middle" x="877" y="-285" font-family="Helvetica,sans-Serif" font-size="10.00">MessageSettings::setMessageAt</text>
</a>
</g>
</g>
<!-- Node11&#45;&gt;Node28 -->
<g id="edge40_Node000011_Node000028" class="edge">
<title>Node11&#45;&gt;Node28</title>
<g id="a_edge40_Node000011_Node000028"><a xlink:title=" ">
<path fill="none" stroke="#63b8ff" d="M682.72,-481.27C692.47,-444.76 722.4,-351.87 784,-306.5 787.76,-303.73 791.83,-301.34 796.1,-299.29"/>
<polygon fill="#63b8ff" stroke="#63b8ff" points="800.79,-297.18 797.15,-301.28 798.51,-298.2 796.23,-299.22 796.23,-299.22 796.23,-299.22 798.51,-298.2 795.31,-297.17 800.79,-297.18 800.79,-297.18"/>
</a>
</g>
</g>
<!-- Node29 -->
<g id="Node000029" class="node">
<title>Node29</title>
<g id="a_Node000029"><a xlink:href="../../df/dd0/classGameFiltersSettings.html#a3b0d80a6360c0ed8f43656f702b3f0f1" target="_top" xlink:title=" ">
<polygon fill="white" stroke="#666666" points="935,-259.5 819,-259.5 819,-229.5 935,-229.5 935,-259.5"/>
<text text-anchor="start" x="827" y="-247.5" font-family="Helvetica,sans-Serif" font-size="10.00">GameFiltersSettings</text>
<text text-anchor="middle" x="877" y="-236.5" font-family="Helvetica,sans-Serif" font-size="10.00">::setMinPlayers</text>
</a>
</g>
</g>
<!-- Node11&#45;&gt;Node29 -->
<g id="edge42_Node000011_Node000029" class="edge">
<title>Node11&#45;&gt;Node29</title>
<g id="a_edge42_Node000011_Node000029"><a xlink:title=" ">
<path fill="none" stroke="#63b8ff" d="M681.47,-481.41C688.94,-440.67 715.17,-327.64 784,-269.5 792.55,-262.28 803.01,-257.12 813.76,-253.45"/>
<polygon fill="#63b8ff" stroke="#63b8ff" points="818.72,-251.87 814.64,-255.53 816.34,-252.63 813.96,-253.39 813.96,-253.39 813.96,-253.39 816.34,-252.63 813.27,-251.25 818.72,-251.87 818.72,-251.87"/>
</a>
</g>
</g>
<!-- Node30 -->
<g id="Node000030" class="node">
<title>Node30</title>
<g id="a_Node000030"><a xlink:href="../../df/db1/classServersSettings.html#a8436f13d3dbef9de86b6b41616aed38d" target="_top" xlink:title=" ">
<polygon fill="white" stroke="#666666" points="955,-211.5 799,-211.5 799,-181.5 955,-181.5 955,-211.5"/>
<text text-anchor="start" x="807" y="-199.5" font-family="Helvetica,sans-Serif" font-size="10.00">ServersSettings::setPrevious</text>
<text text-anchor="middle" x="877" y="-188.5" font-family="Helvetica,sans-Serif" font-size="10.00">HostList</text>
</a>
</g>
</g>
<!-- Node11&#45;&gt;Node30 -->
<g id="edge44_Node000011_Node000030" class="edge">
<title>Node11&#45;&gt;Node30</title>
<g id="a_edge44_Node000011_Node000030"><a xlink:title=" ">
<path fill="none" stroke="#63b8ff" d="M680.07,-481.27C684.18,-434.73 703.1,-293.08 784,-220.5 787.18,-217.65 790.66,-215.13 794.34,-212.9"/>
<polygon fill="#63b8ff" stroke="#63b8ff" points="798.75,-210.42 795.49,-214.83 796.57,-211.64 794.39,-212.87 794.39,-212.87 794.39,-212.87 796.57,-211.64 793.29,-210.91 798.75,-210.42 798.75,-210.42"/>
</a>
</g>
</g>
<!-- Node31 -->
<g id="Node000031" class="node">
<title>Node31</title>
<g id="a_Node000031"><a xlink:href="../../df/db1/classServersSettings.html#a0742cf1f663eaaaccddae7bf6f03b670" target="_top" xlink:title=" ">
<polygon fill="white" stroke="#666666" points="955,-163.5 799,-163.5 799,-133.5 955,-133.5 955,-163.5"/>
<text text-anchor="start" x="807" y="-151.5" font-family="Helvetica,sans-Serif" font-size="10.00">ServersSettings::setPrevious</text>
<text text-anchor="middle" x="877" y="-140.5" font-family="Helvetica,sans-Serif" font-size="10.00">HostLogin</text>
</a>
</g>
</g>
<!-- Node11&#45;&gt;Node31 -->
<g id="edge46_Node000011_Node000031" class="edge">
<title>Node11&#45;&gt;Node31</title>
<g id="a_edge46_Node000011_Node000031"><a xlink:title=" ">
<path fill="none" stroke="#63b8ff" d="M679.09,-481.3C680.27,-429.76 691.31,-259.94 784,-172.5 787.19,-169.49 790.72,-166.84 794.46,-164.52"/>
<polygon fill="#63b8ff" stroke="#63b8ff" points="798.96,-161.94 795.75,-166.38 796.79,-163.18 794.63,-164.43 794.63,-164.43 794.63,-164.43 796.79,-163.18 793.51,-162.48 798.96,-161.94 798.96,-161.94"/>
</a>
</g>
</g>
<!-- Node32 -->
<g id="Node000032" class="node">
<title>Node32</title>
<g id="a_Node000032"><a xlink:href="../../de/dbe/classCardDatabaseSettings.html#a638768afda3a6eb230aaf7b6ced129b4" target="_top" xlink:title=" ">
<polygon fill="white" stroke="#666666" points="939.5,-115.5 814.5,-115.5 814.5,-85.5 939.5,-85.5 939.5,-115.5"/>
<text text-anchor="start" x="822.5" y="-103.5" font-family="Helvetica,sans-Serif" font-size="10.00">CardDatabaseSettings</text>
<text text-anchor="middle" x="877" y="-92.5" font-family="Helvetica,sans-Serif" font-size="10.00">::setSortKey</text>
</a>
</g>
</g>
<!-- Node11&#45;&gt;Node32 -->
<g id="edge48_Node000011_Node000032" class="edge">
<title>Node11&#45;&gt;Node32</title>
<g id="a_edge48_Node000011_Node000032"><a xlink:title=" ">
<path fill="none" stroke="#63b8ff" d="M678.36,-481.5C676.83,-425.57 679.29,-227.14 784,-124.5 791.13,-117.51 800.02,-112.49 809.45,-108.89"/>
<polygon fill="#63b8ff" stroke="#63b8ff" points="814.42,-107.13 810.45,-110.92 812.06,-107.96 809.7,-108.8 809.7,-108.8 809.7,-108.8 812.06,-107.96 808.95,-106.68 814.42,-107.13 814.42,-107.13"/>
</a>
</g>
</g>
<!-- Node17 -->
<g id="Node000017" class="node">
<title>Node17</title>
<g id="a_Node000017"><a xlink:href="../../d1/dea/classSettingsManager.html#a969f11d98d00ca6d3d776d2175d31714" target="_top" xlink:title=" ">
<polygon fill="white" stroke="#666666" points="1155.5,-364 1008.5,-364 1008.5,-345 1155.5,-345 1155.5,-364"/>
<text text-anchor="middle" x="1082" y="-352" font-family="Helvetica,sans-Serif" font-size="10.00">SettingsManager::setValue</text>
</a>
</g>
</g>
<!-- Node16&#45;&gt;Node17 -->
<g id="edge19_Node000016_Node000017" class="edge">
<title>Node16&#45;&gt;Node17</title>
<g id="a_edge19_Node000016_Node000017"><a xlink:title=" ">
<path fill="none" stroke="#63b8ff" d="M945.56,-62.17C954.47,-65.63 962.95,-70.27 970,-76.5 1052.94,-149.69 1074.69,-293.35 1079.67,-339.7"/>
<polygon fill="#63b8ff" stroke="#63b8ff" points="1080.2,-344.86 1077.45,-340.12 1079.94,-342.38 1079.69,-339.89 1079.69,-339.89 1079.69,-339.89 1079.94,-342.38 1081.93,-339.66 1080.2,-344.86 1080.2,-344.86"/>
</a>
</g>
</g>
<!-- Node18&#45;&gt;Node17 -->
<g id="edge21_Node000018_Node000017" class="edge">
<title>Node18&#45;&gt;Node17</title>
<g id="a_edge21_Node000018_Node000017"><a xlink:title=" ">
<path fill="none" stroke="#63b8ff" d="M951.71,-17.24C958.37,-20.07 964.62,-23.75 970,-28.5 1067.09,-114.2 1079.35,-288.27 1080.82,-339.81"/>
<polygon fill="#63b8ff" stroke="#63b8ff" points="1080.94,-344.94 1078.57,-340 1080.88,-342.44 1080.82,-339.94 1080.82,-339.94 1080.82,-339.94 1080.88,-342.44 1083.07,-339.89 1080.94,-344.94 1080.94,-344.94"/>
</a>
</g>
</g>
<!-- Node19&#45;&gt;Node17 -->
<g id="edge23_Node000019_Node000017" class="edge">
<title>Node19&#45;&gt;Node17</title>
<g id="a_edge23_Node000019_Node000017"><a xlink:title=" ">
<path fill="none" stroke="#63b8ff" d="M939.81,-825.09C951.04,-821.41 961.77,-815.85 970,-807.5 1034.11,-742.43 1071.43,-440.19 1079.39,-369.37"/>
<polygon fill="#63b8ff" stroke="#63b8ff" points="1079.95,-364.32 1081.64,-369.54 1079.68,-366.8 1079.4,-369.29 1079.4,-369.29 1079.4,-369.29 1079.68,-366.8 1077.16,-369.04 1079.95,-364.32 1079.95,-364.32"/>
</a>
</g>
</g>
<!-- Node20&#45;&gt;Node17 -->
<g id="edge25_Node000020_Node000017" class="edge">
<title>Node20&#45;&gt;Node17</title>
<g id="a_edge25_Node000020_Node000017"><a xlink:title=" ">
<path fill="none" stroke="#63b8ff" d="M958.17,-778.98C962.44,-776.63 966.43,-773.83 970,-770.5 1031.22,-713.28 1070.34,-437.22 1079.12,-369.52"/>
<polygon fill="#63b8ff" stroke="#63b8ff" points="1079.79,-364.31 1081.38,-369.56 1079.47,-366.79 1079.15,-369.27 1079.15,-369.27 1079.15,-369.27 1079.47,-366.79 1076.92,-368.98 1079.79,-364.31 1079.79,-364.31"/>
</a>
</g>
</g>
<!-- Node21&#45;&gt;Node17 -->
<g id="edge27_Node000021_Node000017" class="edge">
<title>Node21&#45;&gt;Node17</title>
<g id="a_edge27_Node000021_Node000017"><a xlink:title=" ">
<path fill="none" stroke="#63b8ff" d="M958.07,-741.88C962.37,-739.56 966.39,-736.79 970,-733.5 1081.14,-632.11 1083.31,-426.09 1081.66,-369.29"/>
<polygon fill="#63b8ff" stroke="#63b8ff" points="1081.49,-364.27 1083.9,-369.19 1081.57,-366.77 1081.66,-369.27 1081.66,-369.27 1081.66,-369.27 1081.57,-366.77 1079.41,-369.34 1081.49,-364.27 1081.49,-364.27"/>
</a>
</g>
</g>
<!-- Node22&#45;&gt;Node17 -->
<g id="edge29_Node000022_Node000017" class="edge">
<title>Node22&#45;&gt;Node17</title>
<g id="a_edge29_Node000022_Node000017"><a xlink:title=" ">
<path fill="none" stroke="#63b8ff" d="M950.41,-707.41C957.57,-704.49 964.29,-700.61 970,-695.5 1070.73,-605.38 1080.44,-422.89 1081.07,-369.49"/>
<polygon fill="#63b8ff" stroke="#63b8ff" points="1081.1,-364.18 1083.32,-369.2 1081.09,-366.68 1081.07,-369.18 1081.07,-369.18 1081.07,-369.18 1081.09,-366.68 1078.82,-369.17 1081.1,-364.18 1081.1,-364.18"/>
</a>
</g>
</g>
<!-- Node23&#45;&gt;Node17 -->
<g id="edge31_Node000023_Node000017" class="edge">
<title>Node23&#45;&gt;Node17</title>
<g id="a_edge31_Node000023_Node000017"><a xlink:title=" ">
<path fill="none" stroke="#63b8ff" d="M957.46,-656.4C961.96,-653.86 966.19,-650.92 970,-647.5 1056.69,-569.62 1076.02,-416.88 1080.02,-369.13"/>
<polygon fill="#63b8ff" stroke="#63b8ff" points="1080.42,-364.08 1082.27,-369.24 1080.22,-366.58 1080.03,-369.07 1080.03,-369.07 1080.03,-369.07 1080.22,-366.58 1077.78,-368.89 1080.42,-364.08 1080.42,-364.08"/>
</a>
</g>
</g>
<!-- Node24&#45;&gt;Node17 -->
<g id="edge33_Node000024_Node000017" class="edge">
<title>Node24&#45;&gt;Node17</title>
<g id="a_edge33_Node000024_Node000017"><a xlink:title=" ">
<path fill="none" stroke="#63b8ff" d="M937.9,-463.13C948.92,-459.87 960.07,-455.72 970,-450.5 1011.44,-428.71 1050.58,-388.74 1069.37,-367.92"/>
<polygon fill="#63b8ff" stroke="#63b8ff" points="1072.85,-364.02 1071.2,-369.25 1071.18,-365.88 1069.52,-367.75 1069.52,-367.75 1069.52,-367.75 1071.18,-365.88 1067.84,-366.25 1072.85,-364.02 1072.85,-364.02"/>
</a>
</g>
</g>
<!-- Node25&#45;&gt;Node17 -->
<g id="edge35_Node000025_Node000017" class="edge">
<title>Node25&#45;&gt;Node17</title>
<g id="a_edge35_Node000025_Node000017"><a xlink:title=" ">
<path fill="none" stroke="#63b8ff" d="M941.23,-411.37C950.94,-408.66 960.79,-405.67 970,-402.5 1000.58,-391.97 1034.55,-376.73 1056.76,-366.27"/>
<polygon fill="#63b8ff" stroke="#63b8ff" points="1061.31,-364.11 1057.76,-368.28 1059.05,-365.18 1056.79,-366.25 1056.79,-366.25 1056.79,-366.25 1059.05,-365.18 1055.83,-364.21 1061.31,-364.11 1061.31,-364.11"/>
</a>
</g>
</g>
<!-- Node26&#45;&gt;Node17 -->
<g id="edge37_Node000026_Node000017" class="edge">
<title>Node26&#45;&gt;Node17</title>
<g id="a_edge37_Node000026_Node000017"><a xlink:title=" ">
<path fill="none" stroke="#63b8ff" d="M939.73,-371.2C959.71,-368.84 982.13,-366.19 1003.12,-363.71"/>
<polygon fill="#63b8ff" stroke="#63b8ff" points="1008.14,-363.11 1003.44,-365.94 1005.66,-363.41 1003.18,-363.7 1003.18,-363.7 1003.18,-363.7 1005.66,-363.41 1002.91,-361.47 1008.14,-363.11 1008.14,-363.11"/>
</a>
</g>
</g>
<!-- Node27&#45;&gt;Node17 -->
<g id="edge39_Node000027_Node000017" class="edge">
<title>Node27&#45;&gt;Node17</title>
<g id="a_edge39_Node000027_Node000017"><a xlink:title=" ">
<path fill="none" stroke="#63b8ff" d="M935.09,-337.25C956.24,-339.75 980.59,-342.63 1003.27,-345.31"/>
<polygon fill="#63b8ff" stroke="#63b8ff" points="1008.39,-345.92 1003.16,-347.56 1005.9,-345.62 1003.42,-345.33 1003.42,-345.33 1003.42,-345.33 1005.9,-345.62 1003.69,-343.09 1008.39,-345.92 1008.39,-345.92"/>
</a>
</g>
</g>
<!-- Node28&#45;&gt;Node17 -->
<g id="edge41_Node000028_Node000017" class="edge">
<title>Node28&#45;&gt;Node17</title>
<g id="a_edge41_Node000028_Node000017"><a xlink:title=" ">
<path fill="none" stroke="#63b8ff" d="M933.45,-297.04C945.61,-299.66 958.34,-302.82 970,-306.5 1001.21,-316.36 1035.58,-332.01 1057.68,-342.75"/>
<polygon fill="#63b8ff" stroke="#63b8ff" points="1062.2,-344.96 1056.72,-344.78 1059.96,-343.86 1057.71,-342.76 1057.71,-342.76 1057.71,-342.76 1059.96,-343.86 1058.7,-340.74 1062.2,-344.96 1062.2,-344.96"/>
</a>
</g>
</g>
<!-- Node29&#45;&gt;Node17 -->
<g id="edge43_Node000029_Node000017" class="edge">
<title>Node29&#45;&gt;Node17</title>
<g id="a_edge43_Node000029_Node000017"><a xlink:title=" ">
<path fill="none" stroke="#63b8ff" d="M935.22,-256.35C947.04,-259.81 959.17,-264.14 970,-269.5 1008.96,-288.77 1047.72,-322.67 1067.5,-341.3"/>
<polygon fill="#63b8ff" stroke="#63b8ff" points="1071.2,-344.82 1066.03,-343.01 1069.39,-343.1 1067.58,-341.37 1067.58,-341.37 1067.58,-341.37 1069.39,-343.1 1069.13,-339.74 1071.2,-344.82 1071.2,-344.82"/>
</a>
</g>
</g>
<!-- Node30&#45;&gt;Node17 -->
<g id="edge45_Node000030_Node000017" class="edge">
<title>Node30&#45;&gt;Node17</title>
<g id="a_edge45_Node000030_Node000017"><a xlink:title=" ">
<path fill="none" stroke="#63b8ff" d="M952.54,-211.54C958.66,-214.08 964.57,-217.04 970,-220.5 1019.62,-252.1 1057.98,-313.16 1073.5,-340.58"/>
<polygon fill="#63b8ff" stroke="#63b8ff" points="1075.96,-344.99 1071.56,-341.72 1074.74,-342.8 1073.52,-340.62 1073.52,-340.62 1073.52,-340.62 1074.74,-342.8 1075.48,-339.52 1075.96,-344.99 1075.96,-344.99"/>
</a>
</g>
</g>
<!-- Node31&#45;&gt;Node17 -->
<g id="edge47_Node000031_Node000017" class="edge">
<title>Node31&#45;&gt;Node17</title>
<g id="a_edge47_Node000031_Node000017"><a xlink:title=" ">
<path fill="none" stroke="#63b8ff" d="M954.94,-163.57C960.27,-166.1 965.36,-169.05 970,-172.5 1030.06,-217.14 1064.49,-304.79 1076.31,-339.67"/>
<polygon fill="#63b8ff" stroke="#63b8ff" points="1078.01,-344.8 1074.3,-340.76 1077.22,-342.43 1076.44,-340.06 1076.44,-340.06 1076.44,-340.06 1077.22,-342.43 1078.57,-339.35 1078.01,-344.8 1078.01,-344.8"/>
</a>
</g>
</g>
<!-- Node32&#45;&gt;Node17 -->
<g id="edge49_Node000032_Node000017" class="edge">
<title>Node32&#45;&gt;Node17</title>
<g id="a_edge49_Node000032_Node000017"><a xlink:title=" ">
<path fill="none" stroke="#63b8ff" d="M939.95,-108.79C950.77,-112.34 961.33,-117.37 970,-124.5 1041.45,-183.25 1070.16,-299 1078.34,-339.83"/>
<polygon fill="#63b8ff" stroke="#63b8ff" points="1079.32,-344.86 1076.16,-340.38 1078.85,-342.41 1078.37,-339.95 1078.37,-339.95 1078.37,-339.95 1078.85,-342.41 1080.58,-339.52 1079.32,-344.86 1079.32,-344.86"/>
</a>
</g>
</g>
</g>
</svg>

<g id="navigator" transform="translate(0 0)" fill="#404254">
  <rect fill="#f2f5e9" fill-opacity="0.5" stroke="#606060" stroke-width=".5" x="0" y="0" width="60" height="60"/>
  <use id="zoomplus" xlink:href="#zoomPlus" x="17" y="9" onmousedown="handleZoom(evt,'in')"/>
  <use id="zoomminus" xlink:href="#zoomMin" x="42" y="9" onmousedown="handleZoom(evt,'out')"/>
  <use id="reset" xlink:href="#resetDef" x="30" y="36" onmousedown="handleReset()"/>
   <use id="arrowup" xlink:href="#arrowUp" x="0" y="0" onmousedown="handlePan(0,-1)"/>
  <use id="arrowright" xlink:href="#arrowRight" x="0" y="0" onmousedown="handlePan(1,0)"/>
  <use id="arrowdown" xlink:href="#arrowDown" x="0" y="0" onmousedown="handlePan(0,1)"/>
  <use id="arrowleft" xlink:href="#arrowLeft" x="0" y="0" onmousedown="handlePan(-1,0)"/>
</g>
<svg viewBox="0 0 15 15" width="100%" height="30px" preserveAspectRatio="xMaxYMin meet">
 <g id="arrow_out" transform="scale(0.3 0.3)">
  <a xlink:href="classPlayerActions_a5fd894f3c3afad8110522328dc5ad032_cgraph_org.svg" target="_base">
   <rect id="button" ry="5" rx="5" y="6" x="6" height="38" width="38"
        fill="#f2f5e9" fill-opacity="0.5" stroke="#606060" stroke-width="1.0"/>
   <path id="arrow"
     d="M 11.500037,31.436501 C 11.940474,20.09759 22.043105,11.32322 32.158766,21.979434 L 37.068811,17.246167 C 37.068811,17.246167 37.088388,32 37.088388,32 L 22.160133,31.978069 C 22.160133,31.978069 26.997745,27.140456 26.997745,27.140456 C 18.528582,18.264221 13.291696,25.230495 11.500037,31.436501 z"
     style="fill:#404040;"/>
  </a>
 </g>
</svg>

<style type='text/css'>
<![CDATA[
[data-mouse-over-selected='false'] { opacity: 0.7; }
[data-mouse-over-selected='true']  { opacity: 1.0; }
]]>
</style>
<script type="application/ecmascript"><![CDATA[
document.addEventListener('DOMContentLoaded', (event) => {
  highlightEdges();
  highlightAdjacentNodes();
});
]]></script>
</svg>
