<?xml version="1.0" encoding="UTF-8" standalone="no"?>
<!DOCTYPE svg PUBLIC "-//W3C//DTD SVG 1.1//EN"
 "http://www.w3.org/Graphics/SVG/1.1/DTD/svg11.dtd">
<!-- Generated by graphviz version 2.43.0 (0)
 -->
<!-- Title: PlayerActions::setLastToken Pages: 1 -->
<!--zoomable 235 -->

<svg id="main" version="1.1" xmlns="http://www.w3.org/2000/svg" xmlns:xlink="http://www.w3.org/1999/xlink" xml:space="preserve" onload="init(evt)">

<style type="text/css"><![CDATA[
.node, .edge {opacity: 0.7;}
.node.selected, .edge.selected {opacity: 1;}
.edge:hover path { stroke: red; }
.edge:hover polygon { stroke: red; fill: red; }
]]></style>

<defs>
  <circle id="rim" cx="0" cy="0" r="7"/>
  <circle id="rim2" cx="0" cy="0" r="3.5"/>
  <g id="zoomPlus">
    <use xlink:href="#rim" fill="#404040"><set attributeName="fill" to="#808080" begin="zoomplus.mouseover" end="zoomplus.mouseout"/></use>
    <path d="M-4,0h8M0,-4v8" fill="none" stroke="white" stroke-width="1.5" pointer-events="none"/>
  </g>
  <g id="zoomMin">
    <use xlink:href="#rim" fill="#404040"><set attributeName="fill" to="#808080" begin="zoomminus.mouseover" end="zoomminus.mouseout"/></use>
    <path d="M-4,0h8" fill="none" stroke="white" stroke-width="1.5" pointer-events="none"/>
  </g>
  <g id="arrowUp" transform="translate(30 24)">
    <use xlink:href="#rim"/>
    <path pointer-events="none" fill="none" stroke="white" stroke-width="1.5" d="M0,-3.0v7 M-2.5,-0.5L0,-3.0L2.5,-0.5"/>
  </g>
  <g id="arrowRight" transform="rotate(90) translate(36 -43)">
    <use xlink:href="#rim"/>
    <path pointer-events="none" fill="none" stroke="white" stroke-width="1.5" d="M0,-3.0v7 M-2.5,-0.5L0,-3.0L2.5,-0.5"/>
  </g>
  <g id="arrowDown" transform="rotate(180) translate(-30 -48)">
    <use xlink:href="#rim"/>
    <path pointer-events="none" fill="none" stroke="white" stroke-width="1.5" d="M0,-3.0v7 M-2.5,-0.5L0,-3.0L2.5,-0.5"/>
  </g>
  <g id="arrowLeft" transform="rotate(270) translate(-36 17)">
    <use xlink:href="#rim"/>
    <path pointer-events="none" fill="none" stroke="white" stroke-width="1.5" d="M0,-3.0v7 M-2.5,-0.5L0,-3.0L2.5,-0.5"/>
  </g>
  <g id="resetDef">
    <use xlink:href="#rim2" fill="#404040"><set attributeName="fill" to="#808080" begin="reset.mouseover" end="reset.mouseout"/></use>
  </g>
</defs>
<script type="application/ecmascript">
var viewWidth = 916;
var viewHeight = 235;
var sectionId = 'dynsection-215';
</script>
<script type="application/ecmascript" xlink:href="../../svg.min.js"/>
<svg id="graph" class="graph">
<g id="viewport">
<title>PlayerActions::setLastToken</title>
<!-- Node1 -->
<g id="Node000001" class="node">
<title>Node1</title>
<g id="a_Node000001"><a xlink:title=" ">
<polygon fill="#999999" stroke="#666666" points="908,-72.5 756,-72.5 756,-53.5 908,-53.5 908,-72.5"/>
<text text-anchor="middle" x="832" y="-60.5" font-family="Helvetica,sans-Serif" font-size="10.00">PlayerActions::setLastToken</text>
</a>
</g>
</g>
<!-- Node2 -->
<g id="Node000002" class="node">
<title>Node2</title>
<g id="a_Node000002"><a xlink:href="../../d2/d23/classPlayerActions.html#aa45ef95eb5f2cfa1b0cbc98ff25999b3" target="_top" xlink:title=" ">
<polygon fill="white" stroke="#666666" points="719,-132 582,-132 582,-102 719,-102 719,-132"/>
<text text-anchor="start" x="590" y="-120" font-family="Helvetica,sans-Serif" font-size="10.00">PlayerActions::actCreate</text>
<text text-anchor="middle" x="650.5" y="-109" font-family="Helvetica,sans-Serif" font-size="10.00">AllRelatedCards</text>
</a>
</g>
</g>
<!-- Node1&#45;&gt;Node2 -->
<g id="edge1_Node000001_Node000002" class="edge">
<title>Node1&#45;&gt;Node2</title>
<g id="a_edge1_Node000001_Node000002"><a xlink:title=" ">
<path fill="none" stroke="#63b8ff" d="M794.44,-74C767.66,-82.06 730.98,-93.09 701.49,-101.96"/>
<polygon fill="#63b8ff" stroke="#63b8ff" points="799.32,-72.53 795.18,-76.12 796.93,-73.25 794.53,-73.97 794.53,-73.97 794.53,-73.97 796.93,-73.25 793.89,-71.82 799.32,-72.53 799.32,-72.53"/>
</a>
</g>
</g>
<!-- Node9 -->
<g id="Node000009" class="node">
<title>Node9</title>
<g id="a_Node000009"><a xlink:href="../../d2/d23/classPlayerActions.html#a16d43e5b1764358b45fa69009ec4ef3d" target="_top" xlink:title=" ">
<polygon fill="white" stroke="#666666" points="719,-78 582,-78 582,-48 719,-48 719,-78"/>
<text text-anchor="start" x="590" y="-66" font-family="Helvetica,sans-Serif" font-size="10.00">PlayerActions::actCreate</text>
<text text-anchor="middle" x="650.5" y="-55" font-family="Helvetica,sans-Serif" font-size="10.00">PredefinedToken</text>
</a>
</g>
</g>
<!-- Node1&#45;&gt;Node9 -->
<g id="edge11_Node000001_Node000009" class="edge">
<title>Node1&#45;&gt;Node9</title>
<g id="a_edge11_Node000001_Node000009"><a xlink:title=" ">
<path fill="none" stroke="#63b8ff" d="M750.75,-63C740.19,-63 729.45,-63 719.13,-63"/>
<polygon fill="#63b8ff" stroke="#63b8ff" points="755.92,-63 750.92,-65.25 753.42,-63 750.92,-63 750.92,-63 750.92,-63 753.42,-63 750.92,-60.75 755.92,-63 755.92,-63"/>
</a>
</g>
</g>
<!-- Node12 -->
<g id="Node000012" class="node">
<title>Node12</title>
<g id="a_Node000012"><a xlink:href="../../d2/d23/classPlayerActions.html#ad9cae5aa58dd4343b43d69e59d0da2a4" target="_top" xlink:title=" ">
<polygon fill="white" stroke="#666666" points="720,-30 581,-30 581,0 720,0 720,-30"/>
<text text-anchor="start" x="589" y="-18" font-family="Helvetica,sans-Serif" font-size="10.00">PlayerActions::onRelated</text>
<text text-anchor="middle" x="650.5" y="-7" font-family="Helvetica,sans-Serif" font-size="10.00">CardCreated</text>
</a>
</g>
</g>
<!-- Node1&#45;&gt;Node12 -->
<g id="edge14_Node000001_Node000012" class="edge">
<title>Node1&#45;&gt;Node12</title>
<g id="a_edge14_Node000001_Node000012"><a xlink:title=" ">
<path fill="none" stroke="#63b8ff" d="M790.02,-52.04C765.68,-45.53 734.46,-37.19 707.83,-30.06"/>
<polygon fill="#63b8ff" stroke="#63b8ff" points="795.11,-53.4 789.7,-54.28 792.69,-52.76 790.28,-52.11 790.28,-52.11 790.28,-52.11 792.69,-52.76 790.86,-49.94 795.11,-53.4 795.11,-53.4"/>
</a>
</g>
</g>
<!-- Node3 -->
<g id="Node000003" class="node">
<title>Node3</title>
<g id="a_Node000003"><a xlink:href="../../d8/d6d/classCardMenu.html#aeb960e68af7e87347f27aebce235e8db" target="_top" xlink:title=" ">
<polygon fill="white" stroke="#666666" points="533,-136 383,-136 383,-106 533,-106 533,-136"/>
<text text-anchor="start" x="391" y="-124" font-family="Helvetica,sans-Serif" font-size="10.00">CardMenu::addRelatedCard</text>
<text text-anchor="middle" x="458" y="-113" font-family="Helvetica,sans-Serif" font-size="10.00">Actions</text>
</a>
</g>
</g>
<!-- Node2&#45;&gt;Node3 -->
<g id="edge2_Node000002_Node000003" class="edge">
<title>Node2&#45;&gt;Node3</title>
<g id="a_edge2_Node000002_Node000003"><a xlink:title=" ">
<path fill="none" stroke="#63b8ff" d="M576.61,-118.53C562.41,-118.83 547.51,-119.14 533.28,-119.44"/>
<polygon fill="#63b8ff" stroke="#63b8ff" points="581.8,-118.42 576.85,-120.78 579.3,-118.47 576.8,-118.53 576.8,-118.53 576.8,-118.53 579.3,-118.47 576.75,-116.28 581.8,-118.42 581.8,-118.42"/>
</a>
</g>
</g>
<!-- Node4 -->
<g id="Node000004" class="node">
<title>Node4</title>
<g id="a_Node000004"><a xlink:href="../../d8/d6d/classCardMenu.html#a1c762ac61890856d5c4a8cb370b7a363" target="_top" xlink:title=" ">
<polygon fill="white" stroke="#666666" points="323.5,-227 169.5,-227 169.5,-197 323.5,-197 323.5,-227"/>
<text text-anchor="start" x="177.5" y="-215" font-family="Helvetica,sans-Serif" font-size="10.00">CardMenu::createGraveyard</text>
<text text-anchor="middle" x="246.5" y="-204" font-family="Helvetica,sans-Serif" font-size="10.00">OrExileMenu</text>
</a>
</g>
</g>
<!-- Node3&#45;&gt;Node4 -->
<g id="edge3_Node000003_Node000004" class="edge">
<title>Node3&#45;&gt;Node4</title>
<g id="a_edge3_Node000003_Node000004"><a xlink:title=" ">
<path fill="none" stroke="#63b8ff" d="M429.15,-138.76C405.01,-153.55 368.73,-174.33 335,-188 326.97,-191.25 318.35,-194.22 309.77,-196.86"/>
<polygon fill="#63b8ff" stroke="#63b8ff" points="433.52,-136.07 430.44,-140.61 431.39,-137.39 429.26,-138.7 429.26,-138.7 429.26,-138.7 431.39,-137.39 428.08,-136.78 433.52,-136.07 433.52,-136.07"/>
</a>
</g>
</g>
<!-- Node6 -->
<g id="Node000006" class="node">
<title>Node6</title>
<g id="a_Node000006"><a xlink:href="../../d8/d6d/classCardMenu.html#a7bbed70edefca75a858e5c31ef6daeba" target="_top" xlink:title=" ">
<polygon fill="white" stroke="#666666" points="335,-179 158,-179 158,-149 335,-149 335,-179"/>
<text text-anchor="start" x="166" y="-167" font-family="Helvetica,sans-Serif" font-size="10.00">CardMenu::createHandOrCustom</text>
<text text-anchor="middle" x="246.5" y="-156" font-family="Helvetica,sans-Serif" font-size="10.00">ZoneMenu</text>
</a>
</g>
</g>
<!-- Node3&#45;&gt;Node6 -->
<g id="edge5_Node000003_Node000006" class="edge">
<title>Node3&#45;&gt;Node6</title>
<g id="a_edge5_Node000003_Node000006"><a xlink:title=" ">
<path fill="none" stroke="#63b8ff" d="M378.43,-137.13C359.52,-141.01 339.39,-145.14 320.73,-148.97"/>
<polygon fill="#63b8ff" stroke="#63b8ff" points="383.73,-136.04 379.28,-139.25 381.28,-136.54 378.83,-137.04 378.83,-137.04 378.83,-137.04 381.28,-136.54 378.38,-134.84 383.73,-136.04 383.73,-136.04"/>
</a>
</g>
</g>
<!-- Node7 -->
<g id="Node000007" class="node">
<title>Node7</title>
<g id="a_Node000007"><a xlink:href="../../d8/d6d/classCardMenu.html#abcbce46d1bf913558f75dddb6924723b" target="_top" xlink:title=" ">
<polygon fill="white" stroke="#666666" points="325,-130.5 168,-130.5 168,-111.5 325,-111.5 325,-130.5"/>
<text text-anchor="middle" x="246.5" y="-118.5" font-family="Helvetica,sans-Serif" font-size="10.00">CardMenu::createStackMenu</text>
</a>
</g>
</g>
<!-- Node3&#45;&gt;Node7 -->
<g id="edge7_Node000003_Node000007" class="edge">
<title>Node3&#45;&gt;Node7</title>
<g id="a_edge7_Node000003_Node000007"><a xlink:title=" ">
<path fill="none" stroke="#63b8ff" d="M377.54,-121C360.36,-121 342.21,-121 325.1,-121"/>
<polygon fill="#63b8ff" stroke="#63b8ff" points="382.84,-121 377.84,-123.25 380.34,-121 377.84,-121 377.84,-121 377.84,-121 380.34,-121 377.84,-118.75 382.84,-121 382.84,-121"/>
</a>
</g>
</g>
<!-- Node8 -->
<g id="Node000008" class="node">
<title>Node8</title>
<g id="a_Node000008"><a xlink:href="../../d8/d6d/classCardMenu.html#a61da88f54bf22b43f7293c86fc0ad895" target="_top" xlink:title=" ">
<polygon fill="white" stroke="#666666" points="324,-93.5 169,-93.5 169,-74.5 324,-74.5 324,-93.5"/>
<text text-anchor="middle" x="246.5" y="-81.5" font-family="Helvetica,sans-Serif" font-size="10.00">CardMenu::createTableMenu</text>
</a>
</g>
</g>
<!-- Node3&#45;&gt;Node8 -->
<g id="edge9_Node000003_Node000008" class="edge">
<title>Node3&#45;&gt;Node8</title>
<g id="a_edge9_Node000003_Node000008"><a xlink:title=" ">
<path fill="none" stroke="#63b8ff" d="M377.78,-107.01C352.3,-102.51 324.68,-97.63 301.46,-93.53"/>
<polygon fill="#63b8ff" stroke="#63b8ff" points="382.84,-107.9 377.53,-109.25 380.38,-107.47 377.92,-107.03 377.92,-107.03 377.92,-107.03 380.38,-107.47 378.31,-104.82 382.84,-107.9 382.84,-107.9"/>
</a>
</g>
</g>
<!-- Node5 -->
<g id="Node000005" class="node">
<title>Node5</title>
<g id="a_Node000005"><a xlink:href="../../d8/d6d/classCardMenu.html#a10c381216ae94e4cbb073b9e9143193e" target="_top" xlink:title=" ">
<polygon fill="white" stroke="#666666" points="122,-151.5 0,-151.5 0,-132.5 122,-132.5 122,-151.5"/>
<text text-anchor="middle" x="61" y="-139.5" font-family="Helvetica,sans-Serif" font-size="10.00">CardMenu::CardMenu</text>
</a>
</g>
</g>
<!-- Node4&#45;&gt;Node5 -->
<g id="edge4_Node000004_Node000005" class="edge">
<title>Node4&#45;&gt;Node5</title>
<g id="a_edge4_Node000004_Node000005"><a xlink:title=" ">
<path fill="none" stroke="#63b8ff" d="M179.69,-195.33C172.31,-193.05 164.95,-190.6 158,-188 129.78,-177.46 98.58,-161.7 79.63,-151.63"/>
<polygon fill="#63b8ff" stroke="#63b8ff" points="184.8,-196.87 179.36,-197.58 182.41,-196.15 180.01,-195.42 180.01,-195.42 180.01,-195.42 182.41,-196.15 180.67,-193.27 184.8,-196.87 184.8,-196.87"/>
</a>
</g>
</g>
<!-- Node6&#45;&gt;Node5 -->
<g id="edge6_Node000006_Node000005" class="edge">
<title>Node6&#45;&gt;Node5</title>
<g id="a_edge6_Node000006_Node000005"><a xlink:title=" ">
<path fill="none" stroke="#63b8ff" d="M152.69,-152.87C142.3,-151.63 131.94,-150.39 122.13,-149.21"/>
<polygon fill="#63b8ff" stroke="#63b8ff" points="157.78,-153.48 152.55,-155.12 155.3,-153.19 152.82,-152.89 152.82,-152.89 152.82,-152.89 155.3,-153.19 153.08,-150.65 157.78,-153.48 157.78,-153.48"/>
</a>
</g>
</g>
<!-- Node7&#45;&gt;Node5 -->
<g id="edge8_Node000007_Node000005" class="edge">
<title>Node7&#45;&gt;Node5</title>
<g id="a_edge8_Node000007_Node000005"><a xlink:title=" ">
<path fill="none" stroke="#63b8ff" d="M162.89,-130.45C149.12,-132.03 135.08,-133.64 122.02,-135.13"/>
<polygon fill="#63b8ff" stroke="#63b8ff" points="167.95,-129.88 163.23,-132.68 165.46,-130.16 162.98,-130.44 162.98,-130.44 162.98,-130.44 165.46,-130.16 162.72,-128.21 167.95,-129.88 167.95,-129.88"/>
</a>
</g>
</g>
<!-- Node8&#45;&gt;Node5 -->
<g id="edge10_Node000008_Node000005" class="edge">
<title>Node8&#45;&gt;Node5</title>
<g id="a_edge10_Node000008_Node000005"><a xlink:title=" ">
<path fill="none" stroke="#63b8ff" d="M189.13,-94.74C178.7,-97.15 167.96,-99.92 158,-103 131.36,-111.24 101.79,-123.8 82.6,-132.42"/>
<polygon fill="#63b8ff" stroke="#63b8ff" points="194.22,-93.59 189.84,-96.89 191.78,-94.14 189.34,-94.69 189.34,-94.69 189.34,-94.69 191.78,-94.14 188.85,-92.5 194.22,-93.59 194.22,-93.59"/>
</a>
</g>
</g>
<!-- Node10 -->
<g id="Node000010" class="node">
<title>Node10</title>
<g id="a_Node000010"><a xlink:href="../../da/d1c/classUtilityMenu.html#a57e36afe35a75c91b15469a767c190d1" target="_top" xlink:title=" ">
<polygon fill="white" stroke="#666666" points="545,-75 371,-75 371,-45 545,-45 545,-75"/>
<text text-anchor="start" x="379" y="-63" font-family="Helvetica,sans-Serif" font-size="10.00">UtilityMenu::populatePredefined</text>
<text text-anchor="middle" x="458" y="-52" font-family="Helvetica,sans-Serif" font-size="10.00">TokensMenu</text>
</a>
</g>
</g>
<!-- Node9&#45;&gt;Node10 -->
<g id="edge12_Node000009_Node000010" class="edge">
<title>Node9&#45;&gt;Node10</title>
<g id="a_edge12_Node000009_Node000010"><a xlink:title=" ">
<path fill="none" stroke="#63b8ff" d="M576.76,-61.85C566.42,-61.69 555.71,-61.52 545.14,-61.36"/>
<polygon fill="#63b8ff" stroke="#63b8ff" points="581.8,-61.93 576.77,-64.1 579.3,-61.89 576.8,-61.86 576.8,-61.86 576.8,-61.86 579.3,-61.89 576.84,-59.61 581.8,-61.93 581.8,-61.93"/>
</a>
</g>
</g>
<!-- Node11 -->
<g id="Node000011" class="node">
<title>Node11</title>
<g id="a_Node000011"><a xlink:href="../../da/d1c/classUtilityMenu.html#a5459b0bdeb749837f70d32c2815cdeac" target="_top" xlink:title=" ">
<polygon fill="white" stroke="#666666" points="315,-56.5 178,-56.5 178,-37.5 315,-37.5 315,-56.5"/>
<text text-anchor="middle" x="246.5" y="-44.5" font-family="Helvetica,sans-Serif" font-size="10.00">UtilityMenu::UtilityMenu</text>
</a>
</g>
</g>
<!-- Node10&#45;&gt;Node11 -->
<g id="edge13_Node000010_Node000011" class="edge">
<title>Node10&#45;&gt;Node11</title>
<g id="a_edge13_Node000010_Node000011"><a xlink:title=" ">
<path fill="none" stroke="#63b8ff" d="M365.62,-54.33C348.63,-53.28 331.16,-52.19 315.04,-51.19"/>
<polygon fill="#63b8ff" stroke="#63b8ff" points="370.88,-54.66 365.75,-56.59 368.39,-54.5 365.89,-54.35 365.89,-54.35 365.89,-54.35 368.39,-54.5 366.03,-52.1 370.88,-54.66 370.88,-54.66"/>
</a>
</g>
</g>
</g>
</svg>

<g id="navigator" transform="translate(0 0)" fill="#404254">
  <rect fill="#f2f5e9" fill-opacity="0.5" stroke="#606060" stroke-width=".5" x="0" y="0" width="60" height="60"/>
  <use id="zoomplus" xlink:href="#zoomPlus" x="17" y="9" onmousedown="handleZoom(evt,'in')"/>
  <use id="zoomminus" xlink:href="#zoomMin" x="42" y="9" onmousedown="handleZoom(evt,'out')"/>
  <use id="reset" xlink:href="#resetDef" x="30" y="36" onmousedown="handleReset()"/>
   <use id="arrowup" xlink:href="#arrowUp" x="0" y="0" onmousedown="handlePan(0,-1)"/>
  <use id="arrowright" xlink:href="#arrowRight" x="0" y="0" onmousedown="handlePan(1,0)"/>
  <use id="arrowdown" xlink:href="#arrowDown" x="0" y="0" onmousedown="handlePan(0,1)"/>
  <use id="arrowleft" xlink:href="#arrowLeft" x="0" y="0" onmousedown="handlePan(-1,0)"/>
</g>
<svg viewBox="0 0 15 15" width="100%" height="30px" preserveAspectRatio="xMaxYMin meet">
 <g id="arrow_out" transform="scale(0.3 0.3)">
  <a xlink:href="classPlayerActions_a16cdc2dd39d811fd52281848a08eceb0_icgraph_org.svg" target="_base">
   <rect id="button" ry="5" rx="5" y="6" x="6" height="38" width="38"
        fill="#f2f5e9" fill-opacity="0.5" stroke="#606060" stroke-width="1.0"/>
   <path id="arrow"
     d="M 11.500037,31.436501 C 11.940474,20.09759 22.043105,11.32322 32.158766,21.979434 L 37.068811,17.246167 C 37.068811,17.246167 37.088388,32 37.088388,32 L 22.160133,31.978069 C 22.160133,31.978069 26.997745,27.140456 26.997745,27.140456 C 18.528582,18.264221 13.291696,25.230495 11.500037,31.436501 z"
     style="fill:#404040;"/>
  </a>
 </g>
</svg>

<style type='text/css'>
<![CDATA[
[data-mouse-over-selected='false'] { opacity: 0.7; }
[data-mouse-over-selected='true']  { opacity: 1.0; }
]]>
</style>
<script type="application/ecmascript"><![CDATA[
document.addEventListener('DOMContentLoaded', (event) => {
  highlightEdges();
  highlightAdjacentNodes();
});
]]></script>
</svg>
