<?xml version="1.0" encoding="UTF-8" standalone="no"?>
<!DOCTYPE svg PUBLIC "-//W3C//DTD SVG 1.1//EN"
 "http://www.w3.org/Graphics/SVG/1.1/DTD/svg11.dtd">
<!-- Generated by graphviz version 2.43.0 (0)
 -->
<!-- Title: PlayerActions::requestSetAnnotationDialog Pages: 1 -->
<svg width="344pt" height="76pt"
 viewBox="0.00 0.00 344.00 75.50" xmlns="http://www.w3.org/2000/svg" xmlns:xlink="http://www.w3.org/1999/xlink">
<g id="graph0" class="graph" transform="scale(1 1) rotate(0) translate(4 71.5)">
<title>PlayerActions::requestSetAnnotationDialog</title>
<!-- Node1 -->
<g id="Node000001" class="node">
<title>Node1</title>
<g id="a_Node000001"><a xlink:title=" ">
<polygon fill="#999999" stroke="#666666" points="336,-45.5 194,-45.5 194,-15.5 336,-15.5 336,-45.5"/>
<text text-anchor="start" x="202" y="-33.5" font-family="Helvetica,sans-Serif" font-size="10.00">PlayerActions::requestSet</text>
<text text-anchor="middle" x="265" y="-22.5" font-family="Helvetica,sans-Serif" font-size="10.00">AnnotationDialog</text>
</a>
</g>
</g>
<!-- Node2 -->
<g id="Node000002" class="node">
<title>Node2</title>
<g id="a_Node000002"><a xlink:href="../../d2/d23/classPlayerActions.html#a676795414a20d240166609242be01c2d" target="_top" xlink:title=" ">
<polygon fill="white" stroke="#666666" points="151,-67.5 7,-67.5 7,-37.5 151,-37.5 151,-67.5"/>
<text text-anchor="start" x="15" y="-55.5" font-family="Helvetica,sans-Serif" font-size="10.00">PlayerActions::actRequest</text>
<text text-anchor="middle" x="79" y="-44.5" font-family="Helvetica,sans-Serif" font-size="10.00">SetAnnotationDialog</text>
</a>
</g>
</g>
<!-- Node1&#45;&gt;Node2 -->
<g id="edge1_Node000001_Node000002" class="edge">
<title>Node1&#45;&gt;Node2</title>
<g id="a_edge1_Node000001_Node000002"><a xlink:title=" ">
<path fill="none" stroke="#63b8ff" d="M188.63,-39.51C176.22,-40.99 163.41,-42.53 151.11,-44"/>
<polygon fill="#63b8ff" stroke="#63b8ff" points="193.91,-38.88 189.22,-41.71 191.43,-39.18 188.95,-39.47 188.95,-39.47 188.95,-39.47 191.43,-39.18 188.68,-37.24 193.91,-38.88 193.91,-38.88"/>
</a>
</g>
</g>
<!-- Node3 -->
<g id="Node000003" class="node">
<title>Node3</title>
<g id="a_Node000003"><a xlink:href="../../df/da8/classPlayerDialogs.html#a87fafa6d6ac5c338d1fb84693aea9253" target="_top" xlink:title=" ">
<polygon fill="white" stroke="#666666" points="158,-19 0,-19 0,0 158,0 158,-19"/>
<text text-anchor="middle" x="79" y="-7" font-family="Helvetica,sans-Serif" font-size="10.00">PlayerDialogs::PlayerDialogs</text>
</a>
</g>
</g>
<!-- Node1&#45;&gt;Node3 -->
<g id="edge2_Node000001_Node000003" class="edge">
<title>Node1&#45;&gt;Node3</title>
<g id="a_edge2_Node000001_Node000003"><a xlink:title=" ">
<path fill="none" stroke="#63b8ff" d="M188.68,-21.9C178.62,-20.76 168.29,-19.58 158.19,-18.42"/>
<polygon fill="#63b8ff" stroke="#63b8ff" points="193.91,-22.5 188.69,-24.17 191.43,-22.22 188.94,-21.93 188.94,-21.93 188.94,-21.93 191.43,-22.22 189.2,-19.7 193.91,-22.5 193.91,-22.5"/>
</a>
</g>
</g>
</g>
</svg>
