<?xml version="1.0" encoding="UTF-8" standalone="no"?>
<!DOCTYPE svg PUBLIC "-//W3C//DTD SVG 1.1//EN"
 "http://www.w3.org/Graphics/SVG/1.1/DTD/svg11.dtd">
<!-- Generated by graphviz version 2.43.0 (0)
 -->
<!-- Title: ResizablePanel::dropEvent Pages: 1 -->
<!--zoomable 124 -->

<svg id="main" version="1.1" xmlns="http://www.w3.org/2000/svg" xmlns:xlink="http://www.w3.org/1999/xlink" xml:space="preserve" onload="init(evt)">

<style type="text/css"><![CDATA[
.node, .edge {opacity: 0.7;}
.node.selected, .edge.selected {opacity: 1;}
.edge:hover path { stroke: red; }
.edge:hover polygon { stroke: red; fill: red; }
]]></style>

<defs>
  <circle id="rim" cx="0" cy="0" r="7"/>
  <circle id="rim2" cx="0" cy="0" r="3.5"/>
  <g id="zoomPlus">
    <use xlink:href="#rim" fill="#404040"><set attributeName="fill" to="#808080" begin="zoomplus.mouseover" end="zoomplus.mouseout"/></use>
    <path d="M-4,0h8M0,-4v8" fill="none" stroke="white" stroke-width="1.5" pointer-events="none"/>
  </g>
  <g id="zoomMin">
    <use xlink:href="#rim" fill="#404040"><set attributeName="fill" to="#808080" begin="zoomminus.mouseover" end="zoomminus.mouseout"/></use>
    <path d="M-4,0h8" fill="none" stroke="white" stroke-width="1.5" pointer-events="none"/>
  </g>
  <g id="arrowUp" transform="translate(30 24)">
    <use xlink:href="#rim"/>
    <path pointer-events="none" fill="none" stroke="white" stroke-width="1.5" d="M0,-3.0v7 M-2.5,-0.5L0,-3.0L2.5,-0.5"/>
  </g>
  <g id="arrowRight" transform="rotate(90) translate(36 -43)">
    <use xlink:href="#rim"/>
    <path pointer-events="none" fill="none" stroke="white" stroke-width="1.5" d="M0,-3.0v7 M-2.5,-0.5L0,-3.0L2.5,-0.5"/>
  </g>
  <g id="arrowDown" transform="rotate(180) translate(-30 -48)">
    <use xlink:href="#rim"/>
    <path pointer-events="none" fill="none" stroke="white" stroke-width="1.5" d="M0,-3.0v7 M-2.5,-0.5L0,-3.0L2.5,-0.5"/>
  </g>
  <g id="arrowLeft" transform="rotate(270) translate(-36 17)">
    <use xlink:href="#rim"/>
    <path pointer-events="none" fill="none" stroke="white" stroke-width="1.5" d="M0,-3.0v7 M-2.5,-0.5L0,-3.0L2.5,-0.5"/>
  </g>
  <g id="resetDef">
    <use xlink:href="#rim2" fill="#404040"><set attributeName="fill" to="#808080" begin="reset.mouseover" end="reset.mouseout"/></use>
  </g>
</defs>
<script type="application/ecmascript">
var viewWidth = 908;
var viewHeight = 124;
var sectionId = 'dynsection-9';
</script>
<script type="application/ecmascript" xlink:href="../../svg.min.js"/>
<svg id="graph" class="graph">
<g id="viewport">
<title>ResizablePanel::dropEvent</title>
<!-- Node1 -->
<g id="Node000001" class="node">
<title>Node1</title>
<g id="a_Node000001"><a xlink:title=" ">
<polygon fill="#999999" stroke="#666666" points="146,-67.5 0,-67.5 0,-48.5 146,-48.5 146,-67.5"/>
<text text-anchor="middle" x="73" y="-55.5" font-family="Helvetica,sans-Serif" font-size="10.00">ResizablePanel::dropEvent</text>
</a>
</g>
</g>
<!-- Node2 -->
<g id="Node000002" class="node">
<title>Node2</title>
<g id="a_Node000002"><a xlink:href="../../dc/dde/classResizablePanel.html#afc1660c79f355768509e9dab5fd7a192" target="_top" xlink:title=" ">
<polygon fill="white" stroke="#666666" points="352,-105.5 182,-105.5 182,-86.5 352,-86.5 352,-105.5"/>
<text text-anchor="middle" x="267" y="-93.5" font-family="Helvetica,sans-Serif" font-size="10.00">ResizablePanel::dropRequested</text>
</a>
</g>
</g>
<!-- Node1&#45;&gt;Node2 -->
<g id="edge1_Node000001_Node000002" class="edge">
<title>Node1&#45;&gt;Node2</title>
<g id="a_edge1_Node000001_Node000002"><a xlink:title=" ">
<path fill="none" stroke="#63b8ff" d="M122.45,-67.59C149.95,-73.03 184.43,-79.86 212.7,-85.45"/>
<polygon fill="#63b8ff" stroke="#63b8ff" points="217.9,-86.48 212.56,-87.72 215.45,-85.99 212.99,-85.51 212.99,-85.51 212.99,-85.51 215.45,-85.99 213.43,-83.3 217.9,-86.48 217.9,-86.48"/>
</a>
</g>
</g>
<!-- Node3 -->
<g id="Node000003" class="node">
<title>Node3</title>
<g id="a_Node000003"><a xlink:href="../../dc/dde/classResizablePanel.html#a1e23dec50e0223b996b91da97d4f8083" target="_top" xlink:title=" ">
<polygon fill="white" stroke="#666666" points="531,-92 388,-92 388,-62 531,-62 531,-92"/>
<text text-anchor="start" x="396" y="-80" font-family="Helvetica,sans-Serif" font-size="10.00">ResizablePanel::Resizable</text>
<text text-anchor="middle" x="459.5" y="-69" font-family="Helvetica,sans-Serif" font-size="10.00">Panel</text>
</a>
</g>
</g>
<!-- Node1&#45;&gt;Node3 -->
<g id="edge7_Node000001_Node000003" class="edge">
<title>Node1&#45;&gt;Node3</title>
<g id="a_edge7_Node000001_Node000003"><a xlink:title=" ">
<path fill="none" stroke="#63b8ff" d="M146.32,-61.57C213.74,-64.91 313.93,-69.86 382.51,-73.24"/>
<polygon fill="#63b8ff" stroke="#63b8ff" points="387.8,-73.51 382.7,-75.51 385.3,-73.38 382.81,-73.26 382.81,-73.26 382.81,-73.26 385.3,-73.38 382.92,-71.01 387.8,-73.51 387.8,-73.51"/>
</a>
</g>
</g>
<!-- Node7 -->
<g id="Node000007" class="node">
<title>Node7</title>
<g id="a_Node000007"><a xlink:href="../../dc/dde/classResizablePanel.html#a1e946db2a751e87b1ab9010b8e6c1f7a" target="_top" xlink:title=" ">
<polygon fill="white" stroke="#666666" points="337,-30 197,-30 197,0 337,0 337,-30"/>
<text text-anchor="start" x="205" y="-18" font-family="Helvetica,sans-Serif" font-size="10.00">ResizablePanel::hideDrop</text>
<text text-anchor="middle" x="267" y="-7" font-family="Helvetica,sans-Serif" font-size="10.00">Indicator</text>
</a>
</g>
</g>
<!-- Node1&#45;&gt;Node7 -->
<g id="edge6_Node000001_Node000007" class="edge">
<title>Node1&#45;&gt;Node7</title>
<g id="a_edge6_Node000001_Node000007"><a xlink:title=" ">
<path fill="none" stroke="#63b8ff" d="M116.61,-48.46C139.29,-43.38 167.81,-36.99 193.83,-31.16"/>
<polygon fill="#63b8ff" stroke="#63b8ff" points="199,-30.01 194.61,-33.29 196.56,-30.55 194.12,-31.1 194.12,-31.1 194.12,-31.1 196.56,-30.55 193.62,-28.9 199,-30.01 199,-30.01"/>
</a>
</g>
</g>
<!-- Node2&#45;&gt;Node3 -->
<g id="edge2_Node000002_Node000003" class="edge">
<title>Node2&#45;&gt;Node3</title>
<g id="a_edge2_Node000002_Node000003"><a xlink:title=" ">
<path fill="none" stroke="#63b8ff" d="M352.11,-87.61C362.3,-86.6 372.65,-85.56 382.71,-84.56"/>
<polygon fill="#63b8ff" stroke="#63b8ff" points="387.94,-84.04 383.19,-86.77 385.45,-84.29 382.96,-84.53 382.96,-84.53 382.96,-84.53 385.45,-84.29 382.74,-82.3 387.94,-84.04 387.94,-84.04"/>
</a>
</g>
</g>
<!-- Node4 -->
<g id="Node000004" class="node">
<title>Node4</title>
<g id="a_Node000004"><a xlink:href="../../dc/dde/classResizablePanel.html#adacb3b9e6e7e511c0aefcfafe7a85bb7" target="_top" xlink:title=" ">
<polygon fill="white" stroke="#666666" points="725,-116 567,-116 567,-86 725,-86 725,-116"/>
<text text-anchor="start" x="575" y="-104" font-family="Helvetica,sans-Serif" font-size="10.00">ResizablePanel::performAuto</text>
<text text-anchor="middle" x="646" y="-93" font-family="Helvetica,sans-Serif" font-size="10.00">Scroll</text>
</a>
</g>
</g>
<!-- Node3&#45;&gt;Node4 -->
<g id="edge3_Node000003_Node000004" class="edge">
<title>Node3&#45;&gt;Node4</title>
<g id="a_edge3_Node000003_Node000004"><a xlink:title=" ">
<path fill="none" stroke="#63b8ff" d="M531.04,-86.18C541.09,-87.48 551.51,-88.84 561.78,-90.17"/>
<polygon fill="#63b8ff" stroke="#63b8ff" points="566.81,-90.83 561.56,-92.41 564.33,-90.51 561.85,-90.18 561.85,-90.18 561.85,-90.18 564.33,-90.51 562.14,-87.95 566.81,-90.83 566.81,-90.83"/>
</a>
</g>
</g>
<!-- Node6 -->
<g id="Node000006" class="node">
<title>Node6</title>
<g id="a_Node000006"><a xlink:href="../../dc/dde/classResizablePanel.html#a72ec9947c28af10e9aa0fd97df19205b" target="_top" xlink:title=" ">
<polygon fill="white" stroke="#666666" points="721,-68 571,-68 571,-38 721,-38 721,-68"/>
<text text-anchor="start" x="579" y="-56" font-family="Helvetica,sans-Serif" font-size="10.00">ResizablePanel::updateSize</text>
<text text-anchor="middle" x="646" y="-45" font-family="Helvetica,sans-Serif" font-size="10.00">Constraints</text>
</a>
</g>
</g>
<!-- Node3&#45;&gt;Node6 -->
<g id="edge5_Node000003_Node000006" class="edge">
<title>Node3&#45;&gt;Node6</title>
<g id="a_edge5_Node000003_Node000006"><a xlink:title=" ">
<path fill="none" stroke="#63b8ff" d="M531.04,-67.82C542.33,-66.36 554.09,-64.83 565.57,-63.33"/>
<polygon fill="#63b8ff" stroke="#63b8ff" points="570.82,-62.65 566.15,-65.53 568.34,-62.97 565.86,-63.29 565.86,-63.29 565.86,-63.29 568.34,-62.97 565.57,-61.06 570.82,-62.65 570.82,-62.65"/>
</a>
</g>
</g>
<!-- Node5 -->
<g id="Node000005" class="node">
<title>Node5</title>
<g id="a_Node000005"><a xlink:href="../../dc/d55/namespaceQtUtils.html#a573d4567ad2940b0f5fce244a0f585f6" target="_top" xlink:title=" ">
<polygon fill="white" stroke="#666666" points="900,-110.5 761,-110.5 761,-91.5 900,-91.5 900,-110.5"/>
<text text-anchor="middle" x="830.5" y="-98.5" font-family="Helvetica,sans-Serif" font-size="10.00">QtUtils::findParentOfType</text>
</a>
</g>
</g>
<!-- Node4&#45;&gt;Node5 -->
<g id="edge4_Node000004_Node000005" class="edge">
<title>Node4&#45;&gt;Node5</title>
<g id="a_edge4_Node000004_Node000005"><a xlink:title=" ">
<path fill="none" stroke="#63b8ff" d="M725.19,-101C735.32,-101 745.68,-101 755.73,-101"/>
<polygon fill="#63b8ff" stroke="#63b8ff" points="760.97,-101 755.97,-103.25 758.47,-101 755.97,-101 755.97,-101 755.97,-101 758.47,-101 755.97,-98.75 760.97,-101 760.97,-101"/>
</a>
</g>
</g>
</g>
</svg>

<g id="navigator" transform="translate(0 0)" fill="#404254">
  <rect fill="#f2f5e9" fill-opacity="0.5" stroke="#606060" stroke-width=".5" x="0" y="0" width="60" height="60"/>
  <use id="zoomplus" xlink:href="#zoomPlus" x="17" y="9" onmousedown="handleZoom(evt,'in')"/>
  <use id="zoomminus" xlink:href="#zoomMin" x="42" y="9" onmousedown="handleZoom(evt,'out')"/>
  <use id="reset" xlink:href="#resetDef" x="30" y="36" onmousedown="handleReset()"/>
   <use id="arrowup" xlink:href="#arrowUp" x="0" y="0" onmousedown="handlePan(0,-1)"/>
  <use id="arrowright" xlink:href="#arrowRight" x="0" y="0" onmousedown="handlePan(1,0)"/>
  <use id="arrowdown" xlink:href="#arrowDown" x="0" y="0" onmousedown="handlePan(0,1)"/>
  <use id="arrowleft" xlink:href="#arrowLeft" x="0" y="0" onmousedown="handlePan(-1,0)"/>
</g>
<svg viewBox="0 0 15 15" width="100%" height="30px" preserveAspectRatio="xMaxYMin meet">
 <g id="arrow_out" transform="scale(0.3 0.3)">
  <a xlink:href="classResizablePanel_a8b5b5d8d95412cb115a7636ebb461081_cgraph_org.svg" target="_base">
   <rect id="button" ry="5" rx="5" y="6" x="6" height="38" width="38"
        fill="#f2f5e9" fill-opacity="0.5" stroke="#606060" stroke-width="1.0"/>
   <path id="arrow"
     d="M 11.500037,31.436501 C 11.940474,20.09759 22.043105,11.32322 32.158766,21.979434 L 37.068811,17.246167 C 37.068811,17.246167 37.088388,32 37.088388,32 L 22.160133,31.978069 C 22.160133,31.978069 26.997745,27.140456 26.997745,27.140456 C 18.528582,18.264221 13.291696,25.230495 11.500037,31.436501 z"
     style="fill:#404040;"/>
  </a>
 </g>
</svg>

<style type='text/css'>
<![CDATA[
[data-mouse-over-selected='false'] { opacity: 0.7; }
[data-mouse-over-selected='true']  { opacity: 1.0; }
]]>
</style>
<script type="application/ecmascript"><![CDATA[
document.addEventListener('DOMContentLoaded', (event) => {
  highlightEdges();
  highlightAdjacentNodes();
});
]]></script>
</svg>
