<?xml version="1.0" encoding="UTF-8" standalone="no"?>
<!DOCTYPE svg PUBLIC "-//W3C//DTD SVG 1.1//EN"
 "http://www.w3.org/Graphics/SVG/1.1/DTD/svg11.dtd">
<!-- Generated by graphviz version 2.43.0 (0)
 -->
<!-- Title: PlayerLogic::getZones Pages: 1 -->
<svg width="1076pt" height="294pt"
 viewBox="0.00 0.00 1076.00 294.00" xmlns="http://www.w3.org/2000/svg" xmlns:xlink="http://www.w3.org/1999/xlink">
<g id="graph0" class="graph" transform="scale(1 1) rotate(0) translate(4 290)">
<title>PlayerLogic::getZones</title>
<!-- Node1 -->
<g id="Node000001" class="node">
<title>Node1</title>
<g id="a_Node000001"><a xlink:title=" ">
<polygon fill="#999999" stroke="#666666" points="1068,-147 943,-147 943,-128 1068,-128 1068,-147"/>
<text text-anchor="middle" x="1005.5" y="-135" font-family="Helvetica,sans-Serif" font-size="10.00">PlayerLogic::getZones</text>
</a>
</g>
</g>
<!-- Node2 -->
<g id="Node000002" class="node">
<title>Node2</title>
<g id="a_Node000002"><a xlink:href="../../db/d9f/classGameScene.html#a4433170d623f72e2c5e0d8f8e0550db1" target="_top" xlink:title="Directly modifies the scene.">
<polygon fill="white" stroke="#666666" points="890.5,-286 762.5,-286 762.5,-267 890.5,-267 890.5,-286"/>
<text text-anchor="middle" x="826.5" y="-274" font-family="Helvetica,sans-Serif" font-size="10.00">GameScene::addArrow</text>
</a>
</g>
</g>
<!-- Node1&#45;&gt;Node2 -->
<g id="edge1_Node000001_Node000002" class="edge">
<title>Node1&#45;&gt;Node2</title>
<g id="a_edge1_Node000001_Node000002"><a xlink:title=" ">
<path fill="none" stroke="#63b8ff" d="M997.08,-151.77C983.07,-177.22 950.24,-230.3 907,-257.5 900.87,-261.35 894.03,-264.43 887.01,-266.88"/>
<polygon fill="#63b8ff" stroke="#63b8ff" points="999.62,-147.07 999.22,-152.54 998.43,-149.27 997.24,-151.47 997.24,-151.47 997.24,-151.47 998.43,-149.27 995.27,-150.4 999.62,-147.07 999.62,-147.07"/>
</a>
</g>
</g>
<!-- Node4 -->
<g id="Node000004" class="node">
<title>Node4</title>
<g id="a_Node000004"><a xlink:href="../../de/d38/classPlayerEventHandler.html#aab3c5e11d235acd94731ead41cabd6c9" target="_top" xlink:title=" ">
<polygon fill="white" stroke="#666666" points="883,-248.5 770,-248.5 770,-218.5 883,-218.5 883,-248.5"/>
<text text-anchor="start" x="778" y="-236.5" font-family="Helvetica,sans-Serif" font-size="10.00">PlayerEventHandler</text>
<text text-anchor="middle" x="826.5" y="-225.5" font-family="Helvetica,sans-Serif" font-size="10.00">::eventAttachCard</text>
</a>
</g>
</g>
<!-- Node1&#45;&gt;Node4 -->
<g id="edge3_Node000001_Node000004" class="edge">
<title>Node1&#45;&gt;Node4</title>
<g id="a_edge3_Node000001_Node000004"><a xlink:title=" ">
<path fill="none" stroke="#63b8ff" d="M990.35,-150.43C972.24,-166.36 939.35,-193.28 907,-209.5 899.52,-213.25 891.36,-216.53 883.19,-219.36"/>
<polygon fill="#63b8ff" stroke="#63b8ff" points="994.19,-147.02 991.95,-152.02 992.32,-148.68 990.45,-150.34 990.45,-150.34 990.45,-150.34 992.32,-148.68 988.96,-148.65 994.19,-147.02 994.19,-147.02"/>
</a>
</g>
</g>
<!-- Node10 -->
<g id="Node000010" class="node">
<title>Node10</title>
<g id="a_Node000010"><a xlink:href="../../de/d38/classPlayerEventHandler.html#a8945bbef4d5e97190b0e06a81d18497f" target="_top" xlink:title=" ">
<polygon fill="white" stroke="#666666" points="883,-200.5 770,-200.5 770,-170.5 883,-170.5 883,-200.5"/>
<text text-anchor="start" x="778" y="-188.5" font-family="Helvetica,sans-Serif" font-size="10.00">PlayerEventHandler</text>
<text text-anchor="middle" x="826.5" y="-177.5" font-family="Helvetica,sans-Serif" font-size="10.00">::eventCreateArrow</text>
</a>
</g>
</g>
<!-- Node1&#45;&gt;Node10 -->
<g id="edge9_Node000001_Node000010" class="edge">
<title>Node1&#45;&gt;Node10</title>
<g id="a_edge9_Node000001_Node000010"><a xlink:title=" ">
<path fill="none" stroke="#63b8ff" d="M964.09,-148.46C940.09,-154.97 909.31,-163.31 883.04,-170.44"/>
<polygon fill="#63b8ff" stroke="#63b8ff" points="969.11,-147.1 964.87,-150.58 966.69,-147.75 964.28,-148.41 964.28,-148.41 964.28,-148.41 966.69,-147.75 963.69,-146.24 969.11,-147.1 969.11,-147.1"/>
</a>
</g>
</g>
<!-- Node11 -->
<g id="Node000011" class="node">
<title>Node11</title>
<g id="a_Node000011"><a xlink:href="../../de/d38/classPlayerEventHandler.html#a5c948be1c673a5a3c9a1a94d7a47cf89" target="_top" xlink:title=" ">
<polygon fill="white" stroke="#666666" points="883,-152.5 770,-152.5 770,-122.5 883,-122.5 883,-152.5"/>
<text text-anchor="start" x="778" y="-140.5" font-family="Helvetica,sans-Serif" font-size="10.00">PlayerEventHandler</text>
<text text-anchor="middle" x="826.5" y="-129.5" font-family="Helvetica,sans-Serif" font-size="10.00">::eventDumpZone</text>
</a>
</g>
</g>
<!-- Node1&#45;&gt;Node11 -->
<g id="edge11_Node000001_Node000011" class="edge">
<title>Node1&#45;&gt;Node11</title>
<g id="a_edge11_Node000001_Node000011"><a xlink:title=" ">
<path fill="none" stroke="#63b8ff" d="M937.57,-137.5C919.63,-137.5 900.42,-137.5 883.16,-137.5"/>
<polygon fill="#63b8ff" stroke="#63b8ff" points="942.59,-137.5 937.59,-139.75 940.09,-137.5 937.59,-137.5 937.59,-137.5 937.59,-137.5 940.09,-137.5 937.59,-135.25 942.59,-137.5 942.59,-137.5"/>
</a>
</g>
</g>
<!-- Node12 -->
<g id="Node000012" class="node">
<title>Node12</title>
<g id="a_Node000012"><a xlink:href="../../de/d38/classPlayerEventHandler.html#a6f6d249ee25a84d1ea92cad5529289c0" target="_top" xlink:title=" ">
<polygon fill="white" stroke="#666666" points="883,-104.5 770,-104.5 770,-74.5 883,-74.5 883,-104.5"/>
<text text-anchor="start" x="778" y="-92.5" font-family="Helvetica,sans-Serif" font-size="10.00">PlayerEventHandler</text>
<text text-anchor="middle" x="826.5" y="-81.5" font-family="Helvetica,sans-Serif" font-size="10.00">::eventMoveCard</text>
</a>
</g>
</g>
<!-- Node1&#45;&gt;Node12 -->
<g id="edge13_Node000001_Node000012" class="edge">
<title>Node1&#45;&gt;Node12</title>
<g id="a_edge13_Node000001_Node000012"><a xlink:title=" ">
<path fill="none" stroke="#63b8ff" d="M964.09,-126.54C940.09,-120.03 909.31,-111.69 883.04,-104.56"/>
<polygon fill="#63b8ff" stroke="#63b8ff" points="969.11,-127.9 963.69,-128.76 966.69,-127.25 964.28,-126.59 964.28,-126.59 964.28,-126.59 966.69,-127.25 964.87,-124.42 969.11,-127.9 969.11,-127.9"/>
</a>
</g>
</g>
<!-- Node13 -->
<g id="Node000013" class="node">
<title>Node13</title>
<g id="a_Node000013"><a xlink:href="../../d3/d44/classAbstractGame.html#ac06af55013da531b38061bbf14d9e9d0" target="_top" xlink:title=" ">
<polygon fill="white" stroke="#666666" points="892,-56 761,-56 761,-37 892,-37 892,-56"/>
<text text-anchor="middle" x="826.5" y="-44" font-family="Helvetica,sans-Serif" font-size="10.00">AbstractGame::getCard</text>
</a>
</g>
</g>
<!-- Node1&#45;&gt;Node13 -->
<g id="edge15_Node000001_Node000013" class="edge">
<title>Node1&#45;&gt;Node13</title>
<g id="a_edge15_Node000001_Node000013"><a xlink:title=" ">
<path fill="none" stroke="#63b8ff" d="M990.78,-124.52C972.9,-108.31 939.99,-80.84 907,-65.5 898.76,-61.67 889.68,-58.57 880.68,-56.07"/>
<polygon fill="#63b8ff" stroke="#63b8ff" points="994.58,-128 989.37,-126.28 992.73,-126.31 990.89,-124.62 990.89,-124.62 990.89,-124.62 992.73,-126.31 992.41,-122.96 994.58,-128 994.58,-128"/>
</a>
</g>
</g>
<!-- Node14 -->
<g id="Node000014" class="node">
<title>Node14</title>
<g id="a_Node000014"><a xlink:href="../../db/d9f/classGameScene.html#a0e5c78811f4bb028773dab54bd2020cc" target="_top" xlink:title="Toggles a zone view for a player.">
<polygon fill="white" stroke="#666666" points="907,-19 746,-19 746,0 907,0 907,-19"/>
<text text-anchor="middle" x="826.5" y="-7" font-family="Helvetica,sans-Serif" font-size="10.00">GameScene::toggleZoneView</text>
</a>
</g>
</g>
<!-- Node1&#45;&gt;Node14 -->
<g id="edge16_Node000001_Node000014" class="edge">
<title>Node1&#45;&gt;Node14</title>
<g id="a_edge16_Node000001_Node000014"><a xlink:title=" ">
<path fill="none" stroke="#63b8ff" d="M996.14,-123.32C981.34,-99.54 948.18,-51.86 907,-27.5 901.28,-24.11 894.97,-21.36 888.5,-19.13"/>
<polygon fill="#63b8ff" stroke="#63b8ff" points="998.85,-127.74 994.32,-124.66 997.54,-125.61 996.24,-123.48 996.24,-123.48 996.24,-123.48 997.54,-125.61 998.16,-122.3 998.85,-127.74 998.85,-127.74"/>
</a>
</g>
</g>
<!-- Node3 -->
<g id="Node000003" class="node">
<title>Node3</title>
<g id="a_Node000003"><a xlink:href="../../db/d9f/classGameScene.html#ac7d9ec46a3c66281bf00e72965b299c7" target="_top" xlink:title="Adds a player to the scene and stores their graphics item.">
<polygon fill="white" stroke="#666666" points="710,-286 580,-286 580,-267 710,-267 710,-286"/>
<text text-anchor="middle" x="645" y="-274" font-family="Helvetica,sans-Serif" font-size="10.00">GameScene::addPlayer</text>
</a>
</g>
</g>
<!-- Node2&#45;&gt;Node3 -->
<g id="edge2_Node000002_Node000003" class="edge">
<title>Node2&#45;&gt;Node3</title>
<g id="a_edge2_Node000002_Node000003"><a xlink:title=" ">
<path fill="none" stroke="#63b8ff" d="M757.26,-276.5C741.78,-276.5 725.39,-276.5 710.09,-276.5"/>
<polygon fill="#63b8ff" stroke="#63b8ff" points="762.47,-276.5 757.47,-278.75 759.97,-276.5 757.47,-276.5 757.47,-276.5 757.47,-276.5 759.97,-276.5 757.47,-274.25 762.47,-276.5 762.47,-276.5"/>
</a>
</g>
</g>
<!-- Node5 -->
<g id="Node000005" class="node">
<title>Node5</title>
<g id="a_Node000005"><a xlink:href="../../de/d38/classPlayerEventHandler.html#a0c4c71f0f775e5b4b9513bb2f3b7cb54" target="_top" xlink:title=" ">
<polygon fill="white" stroke="#666666" points="703.5,-176.5 586.5,-176.5 586.5,-146.5 703.5,-146.5 703.5,-176.5"/>
<text text-anchor="start" x="594.5" y="-164.5" font-family="Helvetica,sans-Serif" font-size="10.00">PlayerEventHandler</text>
<text text-anchor="middle" x="645" y="-153.5" font-family="Helvetica,sans-Serif" font-size="10.00">::processGameEvent</text>
</a>
</g>
</g>
<!-- Node4&#45;&gt;Node5 -->
<g id="edge4_Node000004_Node000005" class="edge">
<title>Node4&#45;&gt;Node5</title>
<g id="a_edge4_Node000004_Node000005"><a xlink:title=" ">
<path fill="none" stroke="#63b8ff" d="M766.78,-216.9C759.72,-214.57 752.66,-212.09 746,-209.5 721.23,-199.88 694.1,-186.68 674.36,-176.56"/>
<polygon fill="#63b8ff" stroke="#63b8ff" points="771.66,-218.48 766.21,-219.08 769.28,-217.71 766.9,-216.94 766.9,-216.94 766.9,-216.94 769.28,-217.71 767.6,-214.8 771.66,-218.48 771.66,-218.48"/>
</a>
</g>
</g>
<!-- Node6 -->
<g id="Node000006" class="node">
<title>Node6</title>
<g id="a_Node000006"><a xlink:href="../../d7/db2/classGameEventHandler.html#a0314b457308fd96a157f68d780e717ef" target="_top" xlink:title=" ">
<polygon fill="white" stroke="#666666" points="544,-176.5 389,-176.5 389,-146.5 544,-146.5 544,-176.5"/>
<text text-anchor="start" x="397" y="-164.5" font-family="Helvetica,sans-Serif" font-size="10.00">GameEventHandler::process</text>
<text text-anchor="middle" x="466.5" y="-153.5" font-family="Helvetica,sans-Serif" font-size="10.00">GameEventContainer</text>
</a>
</g>
</g>
<!-- Node5&#45;&gt;Node6 -->
<g id="edge5_Node000005_Node000006" class="edge">
<title>Node5&#45;&gt;Node6</title>
<g id="a_edge5_Node000005_Node000006"><a xlink:title=" ">
<path fill="none" stroke="#63b8ff" d="M581.11,-161.5C569.1,-161.5 556.42,-161.5 544.04,-161.5"/>
<polygon fill="#63b8ff" stroke="#63b8ff" points="586.21,-161.5 581.21,-163.75 583.71,-161.5 581.21,-161.5 581.21,-161.5 581.21,-161.5 583.71,-161.5 581.21,-159.25 586.21,-161.5 586.21,-161.5"/>
</a>
</g>
</g>
<!-- Node7 -->
<g id="Node000007" class="node">
<title>Node7</title>
<g id="a_Node000007"><a xlink:href="../../dd/d81/classTabSupervisor.html#ab31f2589bbdc2d7948e0223f403c6d3f" target="_top" xlink:title=" ">
<polygon fill="white" stroke="#666666" points="353,-176.5 195,-176.5 195,-146.5 353,-146.5 353,-176.5"/>
<text text-anchor="start" x="203" y="-164.5" font-family="Helvetica,sans-Serif" font-size="10.00">TabSupervisor::processGame</text>
<text text-anchor="middle" x="274" y="-153.5" font-family="Helvetica,sans-Serif" font-size="10.00">EventContainer</text>
</a>
</g>
</g>
<!-- Node6&#45;&gt;Node7 -->
<g id="edge6_Node000006_Node000007" class="edge">
<title>Node6&#45;&gt;Node7</title>
<g id="a_edge6_Node000006_Node000007"><a xlink:title=" ">
<path fill="none" stroke="#63b8ff" d="M383.57,-161.5C373.45,-161.5 363.12,-161.5 353.06,-161.5"/>
<polygon fill="#63b8ff" stroke="#63b8ff" points="388.84,-161.5 383.84,-163.75 386.34,-161.5 383.84,-161.5 383.84,-161.5 383.84,-161.5 386.34,-161.5 383.84,-159.25 388.84,-161.5 388.84,-161.5"/>
</a>
</g>
</g>
<!-- Node8 -->
<g id="Node000008" class="node">
<title>Node8</title>
<g id="a_Node000008"><a xlink:href="../../dd/d81/classTabSupervisor.html#a8074f0055d28b105a9cbebae8b1c7b25" target="_top" xlink:title=" ">
<polygon fill="white" stroke="#666666" points="149,-190 10,-190 10,-171 149,-171 149,-190"/>
<text text-anchor="middle" x="79.5" y="-178" font-family="Helvetica,sans-Serif" font-size="10.00">TabSupervisor::startLocal</text>
</a>
</g>
</g>
<!-- Node7&#45;&gt;Node8 -->
<g id="edge7_Node000007_Node000008" class="edge">
<title>Node7&#45;&gt;Node8</title>
<g id="a_edge7_Node000007_Node000008"><a xlink:title=" ">
<path fill="none" stroke="#63b8ff" d="M189.97,-169.7C176.31,-171.04 162.29,-172.43 149.04,-173.74"/>
<polygon fill="#63b8ff" stroke="#63b8ff" points="194.98,-169.2 190.23,-171.93 192.49,-169.45 190,-169.69 190,-169.69 190,-169.69 192.49,-169.45 189.78,-167.45 194.98,-169.2 194.98,-169.2"/>
</a>
</g>
</g>
<!-- Node9 -->
<g id="Node000009" class="node">
<title>Node9</title>
<g id="a_Node000009"><a xlink:href="../../dd/d81/classTabSupervisor.html#a5e6baf23ec25ba9c7d95138c2b76b234" target="_top" xlink:title=" ">
<polygon fill="white" stroke="#666666" points="159,-153 0,-153 0,-134 159,-134 159,-153"/>
<text text-anchor="middle" x="79.5" y="-141" font-family="Helvetica,sans-Serif" font-size="10.00">TabSupervisor::TabSupervisor</text>
</a>
</g>
</g>
<!-- Node7&#45;&gt;Node9 -->
<g id="edge8_Node000007_Node000009" class="edge">
<title>Node7&#45;&gt;Node9</title>
<g id="a_edge8_Node000007_Node000009"><a xlink:title=" ">
<path fill="none" stroke="#63b8ff" d="M189.99,-153.74C179.79,-152.78 169.39,-151.81 159.26,-150.86"/>
<polygon fill="#63b8ff" stroke="#63b8ff" points="194.98,-154.2 189.79,-155.98 192.49,-153.97 190,-153.74 190,-153.74 190,-153.74 192.49,-153.97 190.21,-151.5 194.98,-154.2 194.98,-154.2"/>
</a>
</g>
</g>
<!-- Node10&#45;&gt;Node5 -->
<g id="edge10_Node000010_Node000005" class="edge">
<title>Node10&#45;&gt;Node5</title>
<g id="a_edge10_Node000010_Node000005"><a xlink:title=" ">
<path fill="none" stroke="#63b8ff" d="M764.72,-177.37C744.98,-174.73 723.14,-171.81 703.64,-169.21"/>
<polygon fill="#63b8ff" stroke="#63b8ff" points="769.69,-178.04 764.43,-179.61 767.21,-177.71 764.73,-177.38 764.73,-177.38 764.73,-177.38 767.21,-177.71 765.03,-175.14 769.69,-178.04 769.69,-178.04"/>
</a>
</g>
</g>
<!-- Node11&#45;&gt;Node5 -->
<g id="edge12_Node000011_Node000005" class="edge">
<title>Node11&#45;&gt;Node5</title>
<g id="a_edge12_Node000011_Node000005"><a xlink:title=" ">
<path fill="none" stroke="#63b8ff" d="M764.72,-145.63C744.98,-148.27 723.14,-151.19 703.64,-153.79"/>
<polygon fill="#63b8ff" stroke="#63b8ff" points="769.69,-144.96 765.03,-147.86 767.21,-145.29 764.73,-145.62 764.73,-145.62 764.73,-145.62 767.21,-145.29 764.43,-143.39 769.69,-144.96 769.69,-144.96"/>
</a>
</g>
</g>
<!-- Node12&#45;&gt;Node5 -->
<g id="edge14_Node000012_Node000005" class="edge">
<title>Node12&#45;&gt;Node5</title>
<g id="a_edge14_Node000012_Node000005"><a xlink:title=" ">
<path fill="none" stroke="#63b8ff" d="M766.78,-106.1C759.72,-108.43 752.66,-110.91 746,-113.5 721.23,-123.12 694.1,-136.32 674.36,-146.44"/>
<polygon fill="#63b8ff" stroke="#63b8ff" points="771.66,-104.52 767.6,-108.2 769.28,-105.29 766.9,-106.06 766.9,-106.06 766.9,-106.06 769.28,-105.29 766.21,-103.92 771.66,-104.52 771.66,-104.52"/>
</a>
</g>
</g>
</g>
</svg>
