<?xml version="1.0" encoding="UTF-8" standalone="no"?>
<!DOCTYPE svg PUBLIC "-//W3C//DTD SVG 1.1//EN"
 "http://www.w3.org/Graphics/SVG/1.1/DTD/svg11.dtd">
<!-- Generated by graphviz version 2.43.0 (0)
 -->
<!-- Title: PlayerLogic::getPlayerActions Pages: 1 -->
<!--zoomable 440 -->

<svg id="main" version="1.1" xmlns="http://www.w3.org/2000/svg" xmlns:xlink="http://www.w3.org/1999/xlink" xml:space="preserve" onload="init(evt)">

<style type="text/css"><![CDATA[
.node, .edge {opacity: 0.7;}
.node.selected, .edge.selected {opacity: 1;}
.edge:hover path { stroke: red; }
.edge:hover polygon { stroke: red; fill: red; }
]]></style>

<defs>
  <circle id="rim" cx="0" cy="0" r="7"/>
  <circle id="rim2" cx="0" cy="0" r="3.5"/>
  <g id="zoomPlus">
    <use xlink:href="#rim" fill="#404040"><set attributeName="fill" to="#808080" begin="zoomplus.mouseover" end="zoomplus.mouseout"/></use>
    <path d="M-4,0h8M0,-4v8" fill="none" stroke="white" stroke-width="1.5" pointer-events="none"/>
  </g>
  <g id="zoomMin">
    <use xlink:href="#rim" fill="#404040"><set attributeName="fill" to="#808080" begin="zoomminus.mouseover" end="zoomminus.mouseout"/></use>
    <path d="M-4,0h8" fill="none" stroke="white" stroke-width="1.5" pointer-events="none"/>
  </g>
  <g id="arrowUp" transform="translate(30 24)">
    <use xlink:href="#rim"/>
    <path pointer-events="none" fill="none" stroke="white" stroke-width="1.5" d="M0,-3.0v7 M-2.5,-0.5L0,-3.0L2.5,-0.5"/>
  </g>
  <g id="arrowRight" transform="rotate(90) translate(36 -43)">
    <use xlink:href="#rim"/>
    <path pointer-events="none" fill="none" stroke="white" stroke-width="1.5" d="M0,-3.0v7 M-2.5,-0.5L0,-3.0L2.5,-0.5"/>
  </g>
  <g id="arrowDown" transform="rotate(180) translate(-30 -48)">
    <use xlink:href="#rim"/>
    <path pointer-events="none" fill="none" stroke="white" stroke-width="1.5" d="M0,-3.0v7 M-2.5,-0.5L0,-3.0L2.5,-0.5"/>
  </g>
  <g id="arrowLeft" transform="rotate(270) translate(-36 17)">
    <use xlink:href="#rim"/>
    <path pointer-events="none" fill="none" stroke="white" stroke-width="1.5" d="M0,-3.0v7 M-2.5,-0.5L0,-3.0L2.5,-0.5"/>
  </g>
  <g id="resetDef">
    <use xlink:href="#rim2" fill="#404040"><set attributeName="fill" to="#808080" begin="reset.mouseover" end="reset.mouseout"/></use>
  </g>
</defs>
<script type="application/ecmascript">
var viewWidth = 2212;
var viewHeight = 440;
var sectionId = 'dynsection-28';
</script>
<script type="application/ecmascript" xlink:href="../../svg.min.js"/>
<svg id="graph" class="graph">
<g id="viewport">
<title>PlayerLogic::getPlayerActions</title>
<!-- Node1 -->
<g id="Node000001" class="node">
<title>Node1</title>
<g id="a_Node000001"><a xlink:title=" ">
<polygon fill="#999999" stroke="#666666" points="2204,-224 2043,-224 2043,-205 2204,-205 2204,-224"/>
<text text-anchor="middle" x="2123.5" y="-212" font-family="Helvetica,sans-Serif" font-size="10.00">PlayerLogic::getPlayerActions</text>
</a>
</g>
</g>
<!-- Node2 -->
<g id="Node000002" class="node">
<title>Node2</title>
<g id="a_Node000002"><a xlink:href="../../d4/dc7/classHandZone.html#af4cba929eb0efff9ddded3da946e9fc5" target="_top" xlink:title=" ">
<polygon fill="white" stroke="#666666" points="1988.5,-432 1831.5,-432 1831.5,-413 1988.5,-413 1988.5,-432"/>
<text text-anchor="middle" x="1910" y="-420" font-family="Helvetica,sans-Serif" font-size="10.00">HandZone::handleDropEvent</text>
</a>
</g>
</g>
<!-- Node1&#45;&gt;Node2 -->
<g id="edge1_Node000001_Node000002" class="edge">
<title>Node1&#45;&gt;Node2</title>
<g id="a_edge1_Node000001_Node000002"><a xlink:title=" ">
<path fill="none" stroke="#63b8ff" d="M2118.15,-229.31C2106.65,-265.68 2071.76,-359.72 2007,-404.5 2001.42,-408.36 1995.24,-411.45 1988.79,-413.92"/>
<polygon fill="#63b8ff" stroke="#63b8ff" points="2119.68,-224.37 2120.35,-229.81 2118.94,-226.76 2118.2,-229.15 2118.2,-229.15 2118.2,-229.15 2118.94,-226.76 2116.05,-228.48 2119.68,-224.37 2119.68,-224.37"/>
</a>
</g>
</g>
<!-- Node3 -->
<g id="Node000003" class="node">
<title>Node3</title>
<g id="a_Node000003"><a xlink:href="../../d6/d02/classPileZone.html#a073cc33b30b3d04ea1b1397a5b59964e" target="_top" xlink:title=" ">
<polygon fill="white" stroke="#666666" points="1984.5,-395 1835.5,-395 1835.5,-376 1984.5,-376 1984.5,-395"/>
<text text-anchor="middle" x="1910" y="-383" font-family="Helvetica,sans-Serif" font-size="10.00">PileZone::handleDropEvent</text>
</a>
</g>
</g>
<!-- Node1&#45;&gt;Node3 -->
<g id="edge2_Node000001_Node000003" class="edge">
<title>Node1&#45;&gt;Node3</title>
<g id="a_edge2_Node000001_Node000003"><a xlink:title=" ">
<path fill="none" stroke="#63b8ff" d="M2116.11,-228.98C2101.62,-259.96 2063.12,-332.72 2007,-367.5 2000.23,-371.7 1992.7,-374.96 1984.93,-377.49"/>
<polygon fill="#63b8ff" stroke="#63b8ff" points="2118.23,-224.37 2118.18,-229.86 2117.18,-226.64 2116.14,-228.92 2116.14,-228.92 2116.14,-228.92 2117.18,-226.64 2114.09,-227.97 2118.23,-224.37 2118.23,-224.37"/>
</a>
</g>
</g>
<!-- Node4 -->
<g id="Node000004" class="node">
<title>Node4</title>
<g id="a_Node000004"><a xlink:href="../../df/d82/classStackZone.html#aea83c2c9d819525e1411f9accb1795d5" target="_top" xlink:title=" ">
<polygon fill="white" stroke="#666666" points="1989,-358 1831,-358 1831,-339 1989,-339 1989,-358"/>
<text text-anchor="middle" x="1910" y="-346" font-family="Helvetica,sans-Serif" font-size="10.00">StackZone::handleDropEvent</text>
</a>
</g>
</g>
<!-- Node1&#45;&gt;Node4 -->
<g id="edge3_Node000001_Node000004" class="edge">
<title>Node1&#45;&gt;Node4</title>
<g id="a_edge3_Node000001_Node000004"><a xlink:title=" ">
<path fill="none" stroke="#63b8ff" d="M2112.94,-228.39C2095.16,-253.04 2054.5,-304.21 2007,-329.5 1999.65,-333.41 1991.6,-336.52 1983.38,-339"/>
<polygon fill="#63b8ff" stroke="#63b8ff" points="2115.99,-224.11 2114.92,-229.48 2114.53,-226.14 2113.08,-228.18 2113.08,-228.18 2113.08,-228.18 2114.53,-226.14 2111.25,-226.87 2115.99,-224.11 2115.99,-224.11"/>
</a>
</g>
</g>
<!-- Node5 -->
<g id="Node000005" class="node">
<title>Node5</title>
<g id="a_Node000005"><a xlink:href="../../d0/db5/classZoneViewZone.html#a593114a948739135915fe512868f2dc9" target="_top" xlink:title=" ">
<polygon fill="white" stroke="#666666" points="1986,-320.5 1834,-320.5 1834,-290.5 1986,-290.5 1986,-320.5"/>
<text text-anchor="start" x="1842" y="-308.5" font-family="Helvetica,sans-Serif" font-size="10.00">ZoneViewZone::handleDrop</text>
<text text-anchor="middle" x="1910" y="-297.5" font-family="Helvetica,sans-Serif" font-size="10.00">Event</text>
</a>
</g>
</g>
<!-- Node1&#45;&gt;Node5 -->
<g id="edge4_Node000001_Node000005" class="edge">
<title>Node1&#45;&gt;Node5</title>
<g id="a_edge4_Node000001_Node000005"><a xlink:title=" ">
<path fill="none" stroke="#63b8ff" d="M2104.76,-226.92C2082.76,-241.82 2043.65,-266.63 2007,-281.5 1998.72,-284.86 1989.85,-287.84 1980.96,-290.46"/>
<polygon fill="#63b8ff" stroke="#63b8ff" points="2108.93,-224.08 2106.06,-228.76 2106.86,-225.49 2104.8,-226.9 2104.8,-226.9 2104.8,-226.9 2106.86,-225.49 2103.53,-225.04 2108.93,-224.08 2108.93,-224.08"/>
</a>
</g>
</g>
<!-- Node6 -->
<g id="Node000006" class="node">
<title>Node6</title>
<g id="a_Node000006"><a xlink:href="../../d6/d6f/classTableZone.html#a3e9c21b3c31cb08b0bee680785117be8" target="_top" xlink:title=" ">
<polygon fill="white" stroke="#666666" points="1988.5,-272.5 1831.5,-272.5 1831.5,-242.5 1988.5,-242.5 1988.5,-272.5"/>
<text text-anchor="start" x="1839.5" y="-260.5" font-family="Helvetica,sans-Serif" font-size="10.00">TableZone::handleDropEvent</text>
<text text-anchor="middle" x="1910" y="-249.5" font-family="Helvetica,sans-Serif" font-size="10.00">ByGrid</text>
</a>
</g>
</g>
<!-- Node1&#45;&gt;Node6 -->
<g id="edge5_Node000001_Node000006" class="edge">
<title>Node1&#45;&gt;Node6</title>
<g id="a_edge5_Node000001_Node000006"><a xlink:title=" ">
<path fill="none" stroke="#63b8ff" d="M2070.48,-225.08C2044.68,-230.32 2013.07,-236.75 1984.81,-242.49"/>
<polygon fill="#63b8ff" stroke="#63b8ff" points="2075.56,-224.04 2071.11,-227.24 2073.11,-224.54 2070.66,-225.04 2070.66,-225.04 2070.66,-225.04 2073.11,-224.54 2070.21,-222.83 2075.56,-224.04 2075.56,-224.04"/>
</a>
</g>
</g>
<!-- Node8 -->
<g id="Node000008" class="node">
<title>Node8</title>
<g id="a_Node000008"><a xlink:href="../../db/d9f/classGameScene.html#acd6cb749aab92b1cc0444e1ba6d803df" target="_top" xlink:title=" ">
<polygon fill="white" stroke="#666666" points="1982,-224 1838,-224 1838,-205 1982,-205 1982,-224"/>
<text text-anchor="middle" x="1910" y="-212" font-family="Helvetica,sans-Serif" font-size="10.00">GameScene::hideSelected</text>
</a>
</g>
</g>
<!-- Node1&#45;&gt;Node8 -->
<g id="edge7_Node000001_Node000008" class="edge">
<title>Node1&#45;&gt;Node8</title>
<g id="a_edge7_Node000001_Node000008"><a xlink:title=" ">
<path fill="none" stroke="#63b8ff" d="M2037.68,-214.5C2019.3,-214.5 2000.04,-214.5 1982.24,-214.5"/>
<polygon fill="#63b8ff" stroke="#63b8ff" points="2042.84,-214.5 2037.84,-216.75 2040.34,-214.5 2037.84,-214.5 2037.84,-214.5 2037.84,-214.5 2040.34,-214.5 2037.84,-212.25 2042.84,-214.5 2042.84,-214.5"/>
</a>
</g>
</g>
<!-- Node25 -->
<g id="Node000025" class="node">
<title>Node25</title>
<g id="a_Node000025"><a xlink:href="../../d0/db5/classZoneViewZone.html#a8baecf95047c7cf47067899399e44495" target="_top" xlink:title=" ">
<polygon fill="white" stroke="#666666" points="1979,-186.5 1841,-186.5 1841,-156.5 1979,-156.5 1979,-186.5"/>
<text text-anchor="start" x="1849" y="-174.5" font-family="Helvetica,sans-Serif" font-size="10.00">ZoneViewZone::initialize</text>
<text text-anchor="middle" x="1910" y="-163.5" font-family="Helvetica,sans-Serif" font-size="10.00">Cards</text>
</a>
</g>
</g>
<!-- Node1&#45;&gt;Node25 -->
<g id="edge26_Node000001_Node000025" class="edge">
<title>Node1&#45;&gt;Node25</title>
<g id="a_edge26_Node000001_Node000025"><a xlink:title=" ">
<path fill="none" stroke="#63b8ff" d="M2070.49,-203.93C2042.93,-198.32 2008.73,-191.37 1979.08,-185.34"/>
<polygon fill="#63b8ff" stroke="#63b8ff" points="2075.56,-204.96 2070.21,-206.17 2073.11,-204.46 2070.66,-203.96 2070.66,-203.96 2070.66,-203.96 2073.11,-204.46 2071.11,-201.76 2075.56,-204.96 2075.56,-204.96"/>
</a>
</g>
</g>
<!-- Node26 -->
<g id="Node000026" class="node">
<title>Node26</title>
<g id="a_Node000026"><a xlink:href="../../dc/da9/classMoveMenu.html#a001fb0a5034a83d08ef2a06af9843dd7" target="_top" xlink:title=" ">
<polygon fill="white" stroke="#666666" points="1975.5,-138 1844.5,-138 1844.5,-119 1975.5,-119 1975.5,-138"/>
<text text-anchor="middle" x="1910" y="-126" font-family="Helvetica,sans-Serif" font-size="10.00">MoveMenu::MoveMenu</text>
</a>
</g>
</g>
<!-- Node1&#45;&gt;Node26 -->
<g id="edge27_Node000001_Node000026" class="edge">
<title>Node1&#45;&gt;Node26</title>
<g id="a_edge27_Node000001_Node000026"><a xlink:title=" ">
<path fill="none" stroke="#63b8ff" d="M2105.24,-202.02C2083.42,-186.85 2044.21,-161.53 2007,-147.5 1996.83,-143.66 1985.74,-140.56 1974.83,-138.06"/>
<polygon fill="#63b8ff" stroke="#63b8ff" points="2109.36,-204.91 2103.98,-203.88 2107.32,-203.48 2105.27,-202.04 2105.27,-202.04 2105.27,-202.04 2107.32,-203.48 2106.56,-200.2 2109.36,-204.91 2109.36,-204.91"/>
</a>
</g>
</g>
<!-- Node27 -->
<g id="Node000027" class="node">
<title>Node27</title>
<g id="a_Node000027"><a xlink:href="../../db/d9f/classGameScene.html#ad345bbd24dd35ce41919b2c7d9c53439" target="_top" xlink:title=" ">
<polygon fill="white" stroke="#666666" points="1982,-101 1838,-101 1838,-82 1982,-82 1982,-101"/>
<text text-anchor="middle" x="1910" y="-89" font-family="Helvetica,sans-Serif" font-size="10.00">GameScene::playSelected</text>
</a>
</g>
</g>
<!-- Node1&#45;&gt;Node27 -->
<g id="edge28_Node000001_Node000027" class="edge">
<title>Node1&#45;&gt;Node27</title>
<g id="a_edge28_Node000001_Node000027"><a xlink:title=" ">
<path fill="none" stroke="#63b8ff" d="M2111.79,-200.95C2093.1,-178.34 2052.2,-133.13 2007,-110.5 1999.18,-106.58 1990.62,-103.47 1981.93,-101"/>
<polygon fill="#63b8ff" stroke="#63b8ff" points="2115.01,-204.9 2110.11,-202.46 2113.43,-202.97 2111.85,-201.03 2111.85,-201.03 2111.85,-201.03 2113.43,-202.97 2113.59,-199.61 2115.01,-204.9 2115.01,-204.9"/>
</a>
</g>
</g>
<!-- Node28 -->
<g id="Node000028" class="node">
<title>Node28</title>
<g id="a_Node000028"><a xlink:href="../../db/d9f/classGameScene.html#a53f9ba774d1ecac7de18038d25d76174" target="_top" xlink:title=" ">
<polygon fill="white" stroke="#666666" points="2007,-64 1813,-64 1813,-45 2007,-45 2007,-64"/>
<text text-anchor="middle" x="1910" y="-52" font-family="Helvetica,sans-Serif" font-size="10.00">GameScene::playSelectedFaceDown</text>
</a>
</g>
</g>
<!-- Node1&#45;&gt;Node28 -->
<g id="edge30_Node000001_Node000028" class="edge">
<title>Node1&#45;&gt;Node28</title>
<g id="a_edge30_Node000001_Node000028"><a xlink:title=" ">
<path fill="none" stroke="#63b8ff" d="M2115.41,-200.28C2100.05,-171.09 2060.7,-104.45 2007,-72.5 2001.32,-69.12 1995.14,-66.35 1988.74,-64.09"/>
<polygon fill="#63b8ff" stroke="#63b8ff" points="2117.83,-204.96 2113.53,-201.56 2116.68,-202.74 2115.53,-200.52 2115.53,-200.52 2115.53,-200.52 2116.68,-202.74 2117.53,-199.49 2117.83,-204.96 2117.83,-204.96"/>
</a>
</g>
</g>
<!-- Node29 -->
<g id="Node000029" class="node">
<title>Node29</title>
<g id="a_Node000029"><a xlink:href="../../d6/d6f/classTableZone.html#ac958837aa5ffa93bdf59b14bb05a009d" target="_top" xlink:title=" ">
<polygon fill="white" stroke="#666666" points="1979,-27 1841,-27 1841,-8 1979,-8 1979,-27"/>
<text text-anchor="middle" x="1910" y="-15" font-family="Helvetica,sans-Serif" font-size="10.00">TableZone::toggleTapped</text>
</a>
</g>
</g>
<!-- Node1&#45;&gt;Node29 -->
<g id="edge32_Node000001_Node000029" class="edge">
<title>Node1&#45;&gt;Node29</title>
<g id="a_edge32_Node000001_Node000029"><a xlink:title=" ">
<path fill="none" stroke="#63b8ff" d="M2117.56,-199.62C2105.14,-164.68 2069.07,-77.2 2007,-35.5 1998.7,-29.92 1989.12,-25.96 1979.3,-23.16"/>
<polygon fill="#63b8ff" stroke="#63b8ff" points="2119.35,-204.76 2115.58,-200.78 2118.53,-202.4 2117.71,-200.04 2117.71,-200.04 2117.71,-200.04 2118.53,-202.4 2119.83,-199.3 2119.35,-204.76 2119.35,-204.76"/>
</a>
</g>
</g>
<!-- Node7 -->
<g id="Node000007" class="node">
<title>Node7</title>
<g id="a_Node000007"><a xlink:href="../../d6/d6f/classTableZone.html#ac17a53c5b6e259da5b0e85c803114be4" target="_top" xlink:title=" ">
<polygon fill="white" stroke="#666666" points="1777,-267 1620,-267 1620,-248 1777,-248 1777,-267"/>
<text text-anchor="middle" x="1698.5" y="-255" font-family="Helvetica,sans-Serif" font-size="10.00">TableZone::handleDropEvent</text>
</a>
</g>
</g>
<!-- Node6&#45;&gt;Node7 -->
<g id="edge6_Node000006_Node000007" class="edge">
<title>Node6&#45;&gt;Node7</title>
<g id="a_edge6_Node000006_Node000007"><a xlink:title=" ">
<path fill="none" stroke="#63b8ff" d="M1826.28,-257.5C1810.07,-257.5 1793.12,-257.5 1777.09,-257.5"/>
<polygon fill="#63b8ff" stroke="#63b8ff" points="1831.29,-257.5 1826.29,-259.75 1828.79,-257.5 1826.29,-257.5 1826.29,-257.5 1826.29,-257.5 1828.79,-257.5 1826.29,-255.25 1831.29,-257.5 1831.29,-257.5"/>
</a>
</g>
</g>
<!-- Node9 -->
<g id="Node000009" class="node">
<title>Node9</title>
<g id="a_Node000009"><a xlink:href="../../de/d08/classTabGame.html#a3add34468552a20eeb22a832955a1656" target="_top" xlink:title=" ">
<polygon fill="white" stroke="#666666" points="1769.5,-101 1627.5,-101 1627.5,-82 1769.5,-82 1769.5,-101"/>
<text text-anchor="middle" x="1698.5" y="-89" font-family="Helvetica,sans-Serif" font-size="10.00">TabGame::newCardAdded</text>
</a>
</g>
</g>
<!-- Node8&#45;&gt;Node9 -->
<g id="edge8_Node000008_Node000009" class="edge">
<title>Node8&#45;&gt;Node9</title>
<g id="a_edge8_Node000008_Node000009"><a xlink:title=" ">
<path fill="none" stroke="#63b8ff" d="M1832.97,-203.53C1826.04,-201.33 1819.28,-198.68 1813,-195.5 1765.55,-171.48 1723.28,-121.96 1706.82,-101.1"/>
<polygon fill="#63b8ff" stroke="#63b8ff" points="1837.78,-204.99 1832.35,-205.7 1835.39,-204.27 1833,-203.54 1833,-203.54 1833,-203.54 1835.39,-204.27 1833.65,-201.39 1837.78,-204.99 1837.78,-204.99"/>
</a>
</g>
</g>
<!-- Node10 -->
<g id="Node000010" class="node">
<title>Node10</title>
<g id="a_Node000010"><a xlink:href="../../de/d08/classTabGame.html#a2baca30ad6da60575a7704eddbe68b25" target="_top" xlink:title=" ">
<polygon fill="white" stroke="#666666" points="1584,-120 1441,-120 1441,-101 1584,-101 1584,-120"/>
<text text-anchor="middle" x="1512.5" y="-108" font-family="Helvetica,sans-Serif" font-size="10.00">TabGame::addLocalPlayer</text>
</a>
</g>
</g>
<!-- Node9&#45;&gt;Node10 -->
<g id="edge9_Node000009_Node000010" class="edge">
<title>Node9&#45;&gt;Node10</title>
<g id="a_edge9_Node000009_Node000010"><a xlink:title=" ">
<path fill="none" stroke="#63b8ff" d="M1622.39,-99.26C1609.7,-100.57 1596.57,-101.92 1584,-103.22"/>
<polygon fill="#63b8ff" stroke="#63b8ff" points="1627.41,-98.74 1622.67,-101.49 1624.93,-98.99 1622.44,-99.25 1622.44,-99.25 1622.44,-99.25 1624.93,-98.99 1622.21,-97.01 1627.41,-98.74 1627.41,-98.74"/>
</a>
</g>
</g>
<!-- Node11 -->
<g id="Node000011" class="node">
<title>Node11</title>
<g id="a_Node000011"><a xlink:href="../../de/d08/classTabGame.html#a6e4971c3517f05c328012e763fedbf96" target="_top" xlink:title=" ">
<polygon fill="white" stroke="#666666" points="1405,-101 1288,-101 1288,-82 1405,-82 1405,-101"/>
<text text-anchor="middle" x="1346.5" y="-89" font-family="Helvetica,sans-Serif" font-size="10.00">TabGame::addPlayer</text>
</a>
</g>
</g>
<!-- Node9&#45;&gt;Node11 -->
<g id="edge25_Node000009_Node000011" class="edge">
<title>Node9&#45;&gt;Node11</title>
<g id="a_edge25_Node000009_Node000011"><a xlink:title=" ">
<path fill="none" stroke="#63b8ff" d="M1622.06,-91.5C1556.97,-91.5 1464.33,-91.5 1405.06,-91.5"/>
<polygon fill="#63b8ff" stroke="#63b8ff" points="1627.09,-91.5 1622.09,-93.75 1624.59,-91.5 1622.09,-91.5 1622.09,-91.5 1622.09,-91.5 1624.59,-91.5 1622.09,-89.25 1627.09,-91.5 1627.09,-91.5"/>
</a>
</g>
</g>
<!-- Node10&#45;&gt;Node11 -->
<g id="edge10_Node000010_Node000011" class="edge">
<title>Node10&#45;&gt;Node11</title>
<g id="a_edge10_Node000010_Node000011"><a xlink:title=" ">
<path fill="none" stroke="#63b8ff" d="M1435.93,-101.74C1425.57,-100.54 1415.07,-99.33 1405.1,-98.17"/>
<polygon fill="#63b8ff" stroke="#63b8ff" points="1441,-102.33 1435.77,-103.99 1438.51,-102.04 1436.03,-101.76 1436.03,-101.76 1436.03,-101.76 1438.51,-102.04 1436.29,-99.52 1441,-102.33 1441,-102.33"/>
</a>
</g>
</g>
<!-- Node12 -->
<g id="Node000012" class="node">
<title>Node12</title>
<g id="a_Node000012"><a xlink:href="../../de/d08/classTabGame.html#ab7f63134f141f73682faf33d3c501757" target="_top" xlink:title=" ">
<polygon fill="white" stroke="#666666" points="1252,-106.5 1104,-106.5 1104,-76.5 1252,-76.5 1252,-106.5"/>
<text text-anchor="start" x="1112" y="-94.5" font-family="Helvetica,sans-Serif" font-size="10.00">TabGame::connectToPlayer</text>
<text text-anchor="middle" x="1178" y="-83.5" font-family="Helvetica,sans-Serif" font-size="10.00">Manager</text>
</a>
</g>
</g>
<!-- Node11&#45;&gt;Node12 -->
<g id="edge11_Node000011_Node000012" class="edge">
<title>Node11&#45;&gt;Node12</title>
<g id="a_edge11_Node000011_Node000012"><a xlink:title=" ">
<path fill="none" stroke="#63b8ff" d="M1282.59,-91.5C1272.67,-91.5 1262.34,-91.5 1252.21,-91.5"/>
<polygon fill="#63b8ff" stroke="#63b8ff" points="1287.73,-91.5 1282.73,-93.75 1285.23,-91.5 1282.73,-91.5 1282.73,-91.5 1282.73,-91.5 1285.23,-91.5 1282.73,-89.25 1287.73,-91.5 1287.73,-91.5"/>
</a>
</g>
</g>
<!-- Node13 -->
<g id="Node000013" class="node">
<title>Node13</title>
<g id="a_Node000013"><a xlink:href="../../de/d08/classTabGame.html#a2b6beeea83d5e1e5b29712929e9eb08b" target="_top" xlink:title=" ">
<polygon fill="white" stroke="#666666" points="1068,-120 954,-120 954,-101 1068,-101 1068,-120"/>
<text text-anchor="middle" x="1011" y="-108" font-family="Helvetica,sans-Serif" font-size="10.00">TabGame::TabGame</text>
</a>
</g>
</g>
<!-- Node12&#45;&gt;Node13 -->
<g id="edge12_Node000012_Node000013" class="edge">
<title>Node12&#45;&gt;Node13</title>
<g id="a_edge12_Node000012_Node000013"><a xlink:title=" ">
<path fill="none" stroke="#63b8ff" d="M1098.64,-100.52C1088.39,-101.7 1078.05,-102.89 1068.27,-104.02"/>
<polygon fill="#63b8ff" stroke="#63b8ff" points="1103.67,-99.94 1098.96,-102.75 1101.18,-100.23 1098.7,-100.52 1098.7,-100.52 1098.7,-100.52 1101.18,-100.23 1098.44,-98.28 1103.67,-99.94 1103.67,-99.94"/>
</a>
</g>
</g>
<!-- Node14 -->
<g id="Node000014" class="node">
<title>Node14</title>
<g id="a_Node000014"><a xlink:href="../../de/d08/classTabGame.html#a0198c02f04e49adcbc708d2a0abfb80b" target="_top" xlink:title=" ">
<polygon fill="white" stroke="#666666" points="1068,-83 954,-83 954,-64 1068,-64 1068,-83"/>
<text text-anchor="middle" x="1011" y="-71" font-family="Helvetica,sans-Serif" font-size="10.00">TabGame::TabGame</text>
</a>
</g>
</g>
<!-- Node12&#45;&gt;Node14 -->
<g id="edge13_Node000012_Node000014" class="edge">
<title>Node12&#45;&gt;Node14</title>
<g id="a_edge13_Node000012_Node000014"><a xlink:title=" ">
<path fill="none" stroke="#63b8ff" d="M1098.64,-82.95C1088.39,-81.83 1078.05,-80.71 1068.27,-79.64"/>
<polygon fill="#63b8ff" stroke="#63b8ff" points="1103.67,-83.5 1098.45,-85.19 1101.18,-83.23 1098.7,-82.96 1098.7,-82.96 1098.7,-82.96 1101.18,-83.23 1098.94,-80.72 1103.67,-83.5 1103.67,-83.5"/>
</a>
</g>
</g>
<!-- Node15 -->
<g id="Node000015" class="node">
<title>Node15</title>
<g id="a_Node000015"><a xlink:href="../../de/d08/classTabGame.html#ad7e4437118782d8e2b678f5c3564b5ea" target="_top" xlink:title=" ">
<polygon fill="white" stroke="#666666" points="918,-83 786,-83 786,-64 918,-64 918,-83"/>
<text text-anchor="middle" x="852" y="-71" font-family="Helvetica,sans-Serif" font-size="10.00">TabGame::gameClosing</text>
</a>
</g>
</g>
<!-- Node14&#45;&gt;Node15 -->
<g id="edge14_Node000014_Node000015" class="edge">
<title>Node14&#45;&gt;Node15</title>
<g id="a_edge14_Node000014_Node000015"><a xlink:title=" ">
<path fill="none" stroke="#63b8ff" d="M948.59,-73.5C938.62,-73.5 928.26,-73.5 918.2,-73.5"/>
<polygon fill="#63b8ff" stroke="#63b8ff" points="953.76,-73.5 948.76,-75.75 951.26,-73.5 948.76,-73.5 948.76,-73.5 948.76,-73.5 951.26,-73.5 948.76,-71.25 953.76,-73.5 953.76,-73.5"/>
</a>
</g>
</g>
<!-- Node16 -->
<g id="Node000016" class="node">
<title>Node16</title>
<g id="a_Node000016"><a xlink:href="../../de/d08/classTabGame.html#a122426c1db587d20d7ace36e5c1c5997" target="_top" xlink:title=" ">
<polygon fill="white" stroke="#666666" points="736.5,-143 614.5,-143 614.5,-124 736.5,-124 736.5,-143"/>
<text text-anchor="middle" x="675.5" y="-131" font-family="Helvetica,sans-Serif" font-size="10.00">TabGame::closeEvent</text>
</a>
</g>
</g>
<!-- Node15&#45;&gt;Node16 -->
<g id="edge15_Node000015_Node000016" class="edge">
<title>Node15&#45;&gt;Node16</title>
<g id="a_edge15_Node000015_Node000016"><a xlink:title=" ">
<path fill="none" stroke="#63b8ff" d="M819.99,-84.8C800.04,-92 773.55,-101.46 750,-109.5 735.65,-114.4 719.64,-119.65 706.24,-123.99"/>
<polygon fill="#63b8ff" stroke="#63b8ff" points="824.91,-83.02 820.97,-86.83 822.56,-83.87 820.21,-84.72 820.21,-84.72 820.21,-84.72 822.56,-83.87 819.44,-82.6 824.91,-83.02 824.91,-83.02"/>
</a>
</g>
</g>
<!-- Node17 -->
<g id="Node000017" class="node">
<title>Node17</title>
<g id="a_Node000017"><a xlink:href="../../dd/d81/classTabSupervisor.html#a6396f49593a8033e85531a822d264622" target="_top" xlink:title=" ">
<polygon fill="white" stroke="#666666" points="554.5,-101 405.5,-101 405.5,-82 554.5,-82 554.5,-101"/>
<text text-anchor="middle" x="480" y="-89" font-family="Helvetica,sans-Serif" font-size="10.00">TabSupervisor::gameJoined</text>
</a>
</g>
</g>
<!-- Node15&#45;&gt;Node17 -->
<g id="edge16_Node000015_Node000017" class="edge">
<title>Node15&#45;&gt;Node17</title>
<g id="a_edge16_Node000015_Node000017"><a xlink:title=" ">
<path fill="none" stroke="#63b8ff" d="M780.71,-76.92C715.97,-80.07 620.27,-84.72 554.53,-87.92"/>
<polygon fill="#63b8ff" stroke="#63b8ff" points="785.7,-76.68 780.82,-79.17 783.21,-76.8 780.71,-76.92 780.71,-76.92 780.71,-76.92 783.21,-76.8 780.6,-74.67 785.7,-76.68 785.7,-76.68"/>
</a>
</g>
</g>
<!-- Node19 -->
<g id="Node000019" class="node">
<title>Node19</title>
<g id="a_Node000019"><a xlink:href="../../dd/d81/classTabSupervisor.html#ad7ae9e932602258473ab1afd8e4b88a6" target="_top" xlink:title=" ">
<polygon fill="white" stroke="#666666" points="747,-67.5 604,-67.5 604,-37.5 747,-37.5 747,-67.5"/>
<text text-anchor="start" x="612" y="-55.5" font-family="Helvetica,sans-Serif" font-size="10.00">TabSupervisor::localGame</text>
<text text-anchor="middle" x="675.5" y="-44.5" font-family="Helvetica,sans-Serif" font-size="10.00">Joined</text>
</a>
</g>
</g>
<!-- Node15&#45;&gt;Node19 -->
<g id="edge18_Node000015_Node000019" class="edge">
<title>Node15&#45;&gt;Node19</title>
<g id="a_edge18_Node000015_Node000019"><a xlink:title=" ">
<path fill="none" stroke="#63b8ff" d="M780.49,-65.01C769.45,-63.69 758.05,-62.31 747.01,-60.99"/>
<polygon fill="#63b8ff" stroke="#63b8ff" points="785.53,-65.62 780.29,-67.26 783.04,-65.32 780.56,-65.02 780.56,-65.02 780.56,-65.02 783.04,-65.32 780.83,-62.79 785.53,-65.62 785.53,-65.62"/>
</a>
</g>
</g>
<!-- Node21 -->
<g id="Node000021" class="node">
<title>Node21</title>
<g id="a_Node000021"><a xlink:href="../../dd/d81/classTabSupervisor.html#a94d81248b94e52661eb0f104a0366b8a" target="_top" xlink:title=" ">
<polygon fill="white" stroke="#666666" points="750,-19 601,-19 601,0 750,0 750,-19"/>
<text text-anchor="middle" x="675.5" y="-7" font-family="Helvetica,sans-Serif" font-size="10.00">TabSupervisor::openReplay</text>
</a>
</g>
</g>
<!-- Node15&#45;&gt;Node21 -->
<g id="edge20_Node000015_Node000021" class="edge">
<title>Node15&#45;&gt;Node21</title>
<g id="a_edge20_Node000015_Node000021"><a xlink:title=" ">
<path fill="none" stroke="#63b8ff" d="M827.36,-61.62C807.18,-51.81 777.18,-37.99 750,-28.5 739.92,-24.98 728.86,-21.78 718.45,-19.06"/>
<polygon fill="#63b8ff" stroke="#63b8ff" points="832.02,-63.9 826.54,-63.73 829.78,-62.8 827.53,-61.7 827.53,-61.7 827.53,-61.7 829.78,-62.8 828.52,-59.68 832.02,-63.9 832.02,-63.9"/>
</a>
</g>
</g>
<!-- Node18 -->
<g id="Node000018" class="node">
<title>Node18</title>
<g id="a_Node000018"><a xlink:href="../../dd/d81/classTabSupervisor.html#a5e6baf23ec25ba9c7d95138c2b76b234" target="_top" xlink:title=" ">
<polygon fill="white" stroke="#666666" points="159,-79 0,-79 0,-60 159,-60 159,-79"/>
<text text-anchor="middle" x="79.5" y="-67" font-family="Helvetica,sans-Serif" font-size="10.00">TabSupervisor::TabSupervisor</text>
</a>
</g>
</g>
<!-- Node17&#45;&gt;Node18 -->
<g id="edge17_Node000017_Node000018" class="edge">
<title>Node17&#45;&gt;Node18</title>
<g id="a_edge17_Node000017_Node000018"><a xlink:title=" ">
<path fill="none" stroke="#63b8ff" d="M400.05,-87.14C330.2,-83.29 228.82,-77.69 159.08,-73.84"/>
<polygon fill="#63b8ff" stroke="#63b8ff" points="405.44,-87.44 400.33,-89.41 402.95,-87.3 400.45,-87.16 400.45,-87.16 400.45,-87.16 402.95,-87.3 400.58,-84.92 405.44,-87.44 405.44,-87.44"/>
</a>
</g>
</g>
<!-- Node20 -->
<g id="Node000020" class="node">
<title>Node20</title>
<g id="a_Node000020"><a xlink:href="../../dd/d81/classTabSupervisor.html#a8074f0055d28b105a9cbebae8b1c7b25" target="_top" xlink:title=" ">
<polygon fill="white" stroke="#666666" points="549.5,-62 410.5,-62 410.5,-43 549.5,-43 549.5,-62"/>
<text text-anchor="middle" x="480" y="-50" font-family="Helvetica,sans-Serif" font-size="10.00">TabSupervisor::startLocal</text>
</a>
</g>
</g>
<!-- Node19&#45;&gt;Node20 -->
<g id="edge19_Node000019_Node000020" class="edge">
<title>Node19&#45;&gt;Node20</title>
<g id="a_edge19_Node000019_Node000020"><a xlink:title=" ">
<path fill="none" stroke="#63b8ff" d="M598.81,-52.5C582.57,-52.5 565.5,-52.5 549.55,-52.5"/>
<polygon fill="#63b8ff" stroke="#63b8ff" points="603.82,-52.5 598.82,-54.75 601.32,-52.5 598.82,-52.5 598.82,-52.5 598.82,-52.5 601.32,-52.5 598.82,-50.25 603.82,-52.5 603.82,-52.5"/>
</a>
</g>
</g>
<!-- Node22 -->
<g id="Node000022" class="node">
<title>Node22</title>
<g id="a_Node000022"><a xlink:href="../../dd/d81/classTabSupervisor.html#a61bbb0cc631dbf748b14d2a0f424e208" target="_top" xlink:title=" ">
<polygon fill="white" stroke="#666666" points="565,-21 395,-21 395,-2 565,-2 565,-21"/>
<text text-anchor="middle" x="480" y="-9" font-family="Helvetica,sans-Serif" font-size="10.00">TabSupervisor::openTabReplays</text>
</a>
</g>
</g>
<!-- Node21&#45;&gt;Node22 -->
<g id="edge21_Node000021_Node000022" class="edge">
<title>Node21&#45;&gt;Node22</title>
<g id="a_edge21_Node000021_Node000022"><a xlink:title=" ">
<path fill="none" stroke="#63b8ff" d="M595.58,-10.32C585.56,-10.42 575.28,-10.53 565.18,-10.63"/>
<polygon fill="#63b8ff" stroke="#63b8ff" points="600.79,-10.26 595.82,-12.56 598.29,-10.29 595.79,-10.31 595.79,-10.31 595.79,-10.31 598.29,-10.29 595.77,-8.06 600.79,-10.26 600.79,-10.26"/>
</a>
</g>
</g>
<!-- Node23 -->
<g id="Node000023" class="node">
<title>Node23</title>
<g id="a_Node000023"><a xlink:href="../../dd/d81/classTabSupervisor.html#a7f72ffb352830f222002f68faf8a7b23" target="_top" xlink:title=" ">
<polygon fill="white" stroke="#666666" points="357.5,-60 196.5,-60 196.5,-41 357.5,-41 357.5,-60"/>
<text text-anchor="middle" x="277" y="-48" font-family="Helvetica,sans-Serif" font-size="10.00">TabSupervisor::actTabReplays</text>
</a>
</g>
</g>
<!-- Node22&#45;&gt;Node23 -->
<g id="edge22_Node000022_Node000023" class="edge">
<title>Node22&#45;&gt;Node23</title>
<g id="a_edge22_Node000022_Node000023"><a xlink:title=" ">
<path fill="none" stroke="#63b8ff" d="M424.62,-22.05C394.18,-27.96 356.54,-35.26 327.01,-40.99"/>
<polygon fill="#63b8ff" stroke="#63b8ff" points="429.83,-21.04 425.35,-24.2 427.38,-21.52 424.92,-21.99 424.92,-21.99 424.92,-21.99 427.38,-21.52 424.49,-19.78 429.83,-21.04 429.83,-21.04"/>
</a>
</g>
</g>
<!-- Node24 -->
<g id="Node000024" class="node">
<title>Node24</title>
<g id="a_Node000024"><a xlink:href="../../dd/d81/classTabSupervisor.html#aee1c4492654fe6a12894135b5968b150" target="_top" xlink:title=" ">
<polygon fill="white" stroke="#666666" points="359,-21 195,-21 195,-2 359,-2 359,-21"/>
<text text-anchor="middle" x="277" y="-9" font-family="Helvetica,sans-Serif" font-size="10.00">TabSupervisor::initStartupTabs</text>
</a>
</g>
</g>
<!-- Node22&#45;&gt;Node24 -->
<g id="edge24_Node000022_Node000024" class="edge">
<title>Node22&#45;&gt;Node24</title>
<g id="a_edge24_Node000022_Node000024"><a xlink:title=" ">
<path fill="none" stroke="#63b8ff" d="M389.91,-11.5C379.68,-11.5 369.29,-11.5 359.17,-11.5"/>
<polygon fill="#63b8ff" stroke="#63b8ff" points="394.92,-11.5 389.92,-13.75 392.42,-11.5 389.92,-11.5 389.92,-11.5 389.92,-11.5 392.42,-11.5 389.92,-9.25 394.92,-11.5 394.92,-11.5"/>
</a>
</g>
</g>
<!-- Node23&#45;&gt;Node18 -->
<g id="edge23_Node000023_Node000018" class="edge">
<title>Node23&#45;&gt;Node18</title>
<g id="a_edge23_Node000023_Node000018"><a xlink:title=" ">
<path fill="none" stroke="#63b8ff" d="M191.29,-58.73C180.67,-59.77 169.84,-60.82 159.31,-61.84"/>
<polygon fill="#63b8ff" stroke="#63b8ff" points="196.48,-58.23 191.72,-60.95 193.99,-58.47 191.51,-58.71 191.51,-58.71 191.51,-58.71 193.99,-58.47 191.29,-56.47 196.48,-58.23 196.48,-58.23"/>
</a>
</g>
</g>
<!-- Node27&#45;&gt;Node9 -->
<g id="edge29_Node000027_Node000009" class="edge">
<title>Node27&#45;&gt;Node9</title>
<g id="a_edge29_Node000027_Node000009"><a xlink:title=" ">
<path fill="none" stroke="#63b8ff" d="M1832.6,-91.5C1812.08,-91.5 1789.99,-91.5 1769.81,-91.5"/>
<polygon fill="#63b8ff" stroke="#63b8ff" points="1837.78,-91.5 1832.78,-93.75 1835.28,-91.5 1832.78,-91.5 1832.78,-91.5 1832.78,-91.5 1835.28,-91.5 1832.78,-89.25 1837.78,-91.5 1837.78,-91.5"/>
</a>
</g>
</g>
<!-- Node28&#45;&gt;Node9 -->
<g id="edge31_Node000028_Node000009" class="edge">
<title>Node28&#45;&gt;Node9</title>
<g id="a_edge31_Node000028_Node000009"><a xlink:title=" ">
<path fill="none" stroke="#63b8ff" d="M1849.87,-64.94C1819.64,-70.28 1783.12,-76.73 1753.63,-81.94"/>
<polygon fill="#63b8ff" stroke="#63b8ff" points="1855.05,-64.03 1850.52,-67.11 1852.59,-64.46 1850.12,-64.9 1850.12,-64.9 1850.12,-64.9 1852.59,-64.46 1849.73,-62.68 1855.05,-64.03 1855.05,-64.03"/>
</a>
</g>
</g>
<!-- Node30 -->
<g id="Node000030" class="node">
<title>Node30</title>
<g id="a_Node000030"><a xlink:href="../../d6/d6f/classTableZone.html#abb74274d2a776edf55621d4c123fec1a" target="_top" xlink:title=" ">
<polygon fill="white" stroke="#666666" points="1760,-27 1637,-27 1637,-8 1760,-8 1760,-27"/>
<text text-anchor="middle" x="1698.5" y="-15" font-family="Helvetica,sans-Serif" font-size="10.00">TableZone::TableZone</text>
</a>
</g>
</g>
<!-- Node29&#45;&gt;Node30 -->
<g id="edge33_Node000029_Node000030" class="edge">
<title>Node29&#45;&gt;Node30</title>
<g id="a_edge33_Node000029_Node000030"><a xlink:title=" ">
<path fill="none" stroke="#63b8ff" d="M1835.75,-17.5C1811.03,-17.5 1783.74,-17.5 1760.11,-17.5"/>
<polygon fill="#63b8ff" stroke="#63b8ff" points="1840.98,-17.5 1835.98,-19.75 1838.48,-17.5 1835.98,-17.5 1835.98,-17.5 1835.98,-17.5 1838.48,-17.5 1835.98,-15.25 1840.98,-17.5 1840.98,-17.5"/>
</a>
</g>
</g>
</g>
</svg>

<g id="navigator" transform="translate(0 0)" fill="#404254">
  <rect fill="#f2f5e9" fill-opacity="0.5" stroke="#606060" stroke-width=".5" x="0" y="0" width="60" height="60"/>
  <use id="zoomplus" xlink:href="#zoomPlus" x="17" y="9" onmousedown="handleZoom(evt,'in')"/>
  <use id="zoomminus" xlink:href="#zoomMin" x="42" y="9" onmousedown="handleZoom(evt,'out')"/>
  <use id="reset" xlink:href="#resetDef" x="30" y="36" onmousedown="handleReset()"/>
   <use id="arrowup" xlink:href="#arrowUp" x="0" y="0" onmousedown="handlePan(0,-1)"/>
  <use id="arrowright" xlink:href="#arrowRight" x="0" y="0" onmousedown="handlePan(1,0)"/>
  <use id="arrowdown" xlink:href="#arrowDown" x="0" y="0" onmousedown="handlePan(0,1)"/>
  <use id="arrowleft" xlink:href="#arrowLeft" x="0" y="0" onmousedown="handlePan(-1,0)"/>
</g>
<svg viewBox="0 0 15 15" width="100%" height="30px" preserveAspectRatio="xMaxYMin meet">
 <g id="arrow_out" transform="scale(0.3 0.3)">
  <a xlink:href="classPlayerLogic_ad54a92be278e8a23267cc1db3606ea5e_icgraph_org.svg" target="_base">
   <rect id="button" ry="5" rx="5" y="6" x="6" height="38" width="38"
        fill="#f2f5e9" fill-opacity="0.5" stroke="#606060" stroke-width="1.0"/>
   <path id="arrow"
     d="M 11.500037,31.436501 C 11.940474,20.09759 22.043105,11.32322 32.158766,21.979434 L 37.068811,17.246167 C 37.068811,17.246167 37.088388,32 37.088388,32 L 22.160133,31.978069 C 22.160133,31.978069 26.997745,27.140456 26.997745,27.140456 C 18.528582,18.264221 13.291696,25.230495 11.500037,31.436501 z"
     style="fill:#404040;"/>
  </a>
 </g>
</svg>

<style type='text/css'>
<![CDATA[
[data-mouse-over-selected='false'] { opacity: 0.7; }
[data-mouse-over-selected='true']  { opacity: 1.0; }
]]>
</style>
<script type="application/ecmascript"><![CDATA[
document.addEventListener('DOMContentLoaded', (event) => {
  highlightEdges();
  highlightAdjacentNodes();
});
]]></script>
</svg>
