<?xml version="1.0" encoding="UTF-8" standalone="no"?>
<!DOCTYPE svg PUBLIC "-//W3C//DTD SVG 1.1//EN"
 "http://www.w3.org/Graphics/SVG/1.1/DTD/svg11.dtd">
<!-- Generated by graphviz version 2.43.0 (0)
 -->
<!-- Title: LoadSetsPage::downloadSetsFile Pages: 1 -->
<svg width="1175pt" height="743pt"
 viewBox="0.00 0.00 1175.00 743.00" xmlns="http://www.w3.org/2000/svg" xmlns:xlink="http://www.w3.org/1999/xlink">
<g id="graph0" class="graph" transform="scale(1 1) rotate(0) translate(4 739)">
<title>LoadSetsPage::downloadSetsFile</title>
<!-- Node1 -->
<g id="Node000001" class="node">
<title>Node1</title>
<g id="a_Node000001"><a xlink:title=" ">
<polygon fill="#999999" stroke="#666666" points="176,-131.5 0,-131.5 0,-112.5 176,-112.5 176,-131.5"/>
<text text-anchor="middle" x="88" y="-119.5" font-family="Helvetica,sans-Serif" font-size="10.00">LoadSetsPage::downloadSetsFile</text>
</a>
</g>
</g>
<!-- Node2 -->
<g id="Node000002" class="node">
<title>Node2</title>
<g id="a_Node000002"><a xlink:href="../../d1/d64/classLoadSetsPage.html#ac77166f093c909074b6c1606e4ec96ec" target="_top" xlink:title=" ">
<polygon fill="white" stroke="#666666" points="375.5,-202 221.5,-202 221.5,-172 375.5,-172 375.5,-202"/>
<text text-anchor="start" x="229.5" y="-190" font-family="Helvetica,sans-Serif" font-size="10.00">LoadSetsPage::actDownload</text>
<text text-anchor="middle" x="298.5" y="-179" font-family="Helvetica,sans-Serif" font-size="10.00">FinishedSetsFile</text>
</a>
</g>
</g>
<!-- Node1&#45;&gt;Node2 -->
<g id="edge1_Node000001_Node000002" class="edge">
<title>Node1&#45;&gt;Node2</title>
<g id="a_edge1_Node000001_Node000002"><a xlink:title=" ">
<path fill="none" stroke="#63b8ff" d="M138.41,-131.56C175.83,-141.86 226.42,-157.81 260.42,-170.13"/>
<polygon fill="#63b8ff" stroke="#63b8ff" points="265.31,-171.93 259.84,-172.32 262.96,-171.07 260.62,-170.21 260.62,-170.21 260.62,-170.21 262.96,-171.07 261.39,-168.09 265.31,-171.93 265.31,-171.93"/>
</a>
</g>
</g>
<!-- Node14 -->
<g id="Node000014" class="node">
<title>Node14</title>
<g id="a_Node000014"><a xlink:href="../../d8/d2d/classOracleWizardPage.html#a27632e8dc2b86d6e6adf2c11f3e62e91" target="_top" xlink:title=" ">
<polygon fill="white" stroke="#666666" points="1159.5,-333.5 1016.5,-333.5 1016.5,-314.5 1159.5,-314.5 1159.5,-333.5"/>
<text text-anchor="middle" x="1088" y="-321.5" font-family="Helvetica,sans-Serif" font-size="10.00">OracleWizardPage::wizard</text>
</a>
</g>
</g>
<!-- Node1&#45;&gt;Node14 -->
<g id="edge34_Node000001_Node000014" class="edge">
<title>Node1&#45;&gt;Node14</title>
<g id="a_edge34_Node000001_Node000014"><a xlink:title=" ">
<path fill="none" stroke="#63b8ff" d="M176.11,-129.39C259.06,-135.78 387.44,-144 499,-144 499,-144 499,-144 695,-144 819.27,-144 864.8,-112.88 973,-174 1029.54,-205.94 1066.94,-278.54 1080.89,-309.54"/>
<polygon fill="#63b8ff" stroke="#63b8ff" points="1083.07,-314.48 1079,-310.82 1082.06,-312.2 1081.05,-309.91 1081.05,-309.91 1081.05,-309.91 1082.06,-312.2 1083.11,-309 1083.07,-314.48 1083.07,-314.48"/>
</a>
</g>
</g>
<!-- Node20 -->
<g id="Node000020" class="node">
<title>Node20</title>
<g id="a_Node000020"><a xlink:href="../../d1/d64/classLoadSetsPage.html#a28638202c4386fc12ab0b963dd12ec8e" target="_top" xlink:title=" ">
<polygon fill="white" stroke="#666666" points="375.5,-116 221.5,-116 221.5,-86 375.5,-86 375.5,-116"/>
<text text-anchor="start" x="229.5" y="-104" font-family="Helvetica,sans-Serif" font-size="10.00">LoadSetsPage::actDownload</text>
<text text-anchor="middle" x="298.5" y="-93" font-family="Helvetica,sans-Serif" font-size="10.00">ProgressSetsFile</text>
</a>
</g>
</g>
<!-- Node1&#45;&gt;Node20 -->
<g id="edge31_Node000001_Node000020" class="edge">
<title>Node1&#45;&gt;Node20</title>
<g id="a_edge31_Node000001_Node000020"><a xlink:title=" ">
<path fill="none" stroke="#63b8ff" d="M176.21,-113.22C189.42,-111.89 202.99,-110.52 216.06,-109.2"/>
<polygon fill="#63b8ff" stroke="#63b8ff" points="221.24,-108.68 216.49,-111.42 218.75,-108.93 216.27,-109.18 216.27,-109.18 216.27,-109.18 218.75,-108.93 216.04,-106.94 221.24,-108.68 221.24,-108.68"/>
</a>
</g>
</g>
<!-- Node21 -->
<g id="Node000021" class="node">
<title>Node21</title>
<g id="a_Node000021"><a xlink:href="../../d5/dba/classOracleWizard.html#a8665775a744962a362b1c948c4196d4b" target="_top" xlink:title=" ">
<polygon fill="white" stroke="#666666" points="385,-67.5 212,-67.5 212,-48.5 385,-48.5 385,-67.5"/>
<text text-anchor="middle" x="298.5" y="-55.5" font-family="Helvetica,sans-Serif" font-size="10.00">OracleWizard::setCardSourceUrl</text>
</a>
</g>
</g>
<!-- Node1&#45;&gt;Node21 -->
<g id="edge32_Node000001_Node000021" class="edge">
<title>Node1&#45;&gt;Node21</title>
<g id="a_edge32_Node000001_Node000021"><a xlink:title=" ">
<path fill="none" stroke="#63b8ff" d="M112.27,-112.44C136.78,-102.62 176.65,-87.35 212,-77 222.38,-73.96 233.59,-71.15 244.37,-68.66"/>
<polygon fill="#63b8ff" stroke="#63b8ff" points="249.28,-67.55 244.91,-70.85 246.84,-68.1 244.41,-68.65 244.41,-68.65 244.41,-68.65 246.84,-68.1 243.91,-66.46 249.28,-67.55 249.28,-67.55"/>
</a>
</g>
</g>
<!-- Node22 -->
<g id="Node000022" class="node">
<title>Node22</title>
<g id="a_Node000022"><a xlink:href="../../d5/dba/classOracleWizard.html#a7010c0c27ce706dd098c2102046213f3" target="_top" xlink:title=" ">
<polygon fill="white" stroke="#666666" points="377.5,-30 219.5,-30 219.5,0 377.5,0 377.5,-30"/>
<text text-anchor="start" x="227.5" y="-18" font-family="Helvetica,sans-Serif" font-size="10.00">OracleWizard::setCardSource</text>
<text text-anchor="middle" x="298.5" y="-7" font-family="Helvetica,sans-Serif" font-size="10.00">Version</text>
</a>
</g>
</g>
<!-- Node1&#45;&gt;Node22 -->
<g id="edge33_Node000001_Node000022" class="edge">
<title>Node1&#45;&gt;Node22</title>
<g id="a_edge33_Node000001_Node000022"><a xlink:title=" ">
<path fill="none" stroke="#63b8ff" d="M100.45,-112.4C121.34,-95.32 167.58,-59.57 212,-39 217.8,-36.32 223.96,-33.87 230.21,-31.66"/>
<polygon fill="#63b8ff" stroke="#63b8ff" points="235.01,-30.01 231.01,-33.77 232.64,-30.83 230.28,-31.64 230.28,-31.64 230.28,-31.64 232.64,-30.83 229.55,-29.51 235.01,-30.01 235.01,-30.01"/>
</a>
</g>
</g>
<!-- Node2&#45;&gt;Node1 -->
<g id="edge2_Node000002_Node000001" class="edge">
<title>Node2&#45;&gt;Node1</title>
<g id="a_edge2_Node000002_Node000001"><a xlink:title=" ">
<path fill="none" stroke="#63b8ff" d="M228.72,-171.95C188.24,-160.18 139.64,-144.37 111.74,-133.49"/>
<polygon fill="#63b8ff" stroke="#63b8ff" points="106.78,-131.52 112.25,-131.28 109.1,-132.44 111.42,-133.37 111.42,-133.37 111.42,-133.37 109.1,-132.44 110.59,-135.46 106.78,-131.52 106.78,-131.52"/>
</a>
</g>
</g>
<!-- Node3 -->
<g id="Node000003" class="node">
<title>Node3</title>
<g id="a_Node000003"><a xlink:href="../../d5/dba/classOracleWizard.html#a54ce927fccf4c2275f978537b8b7ae0d" target="_top" xlink:title=" ">
<polygon fill="white" stroke="#666666" points="1167,-457.5 1009,-457.5 1009,-438.5 1167,-438.5 1167,-457.5"/>
<text text-anchor="middle" x="1088" y="-445.5" font-family="Helvetica,sans-Serif" font-size="10.00">OracleWizard::enableButtons</text>
</a>
</g>
</g>
<!-- Node2&#45;&gt;Node3 -->
<g id="edge3_Node000002_Node000003" class="edge">
<title>Node2&#45;&gt;Node3</title>
<g id="a_edge3_Node000002_Node000003"><a xlink:title=" ">
<path fill="none" stroke="#63b8ff" d="M375.71,-193.32C541.57,-207.61 924.34,-243.79 973,-277 1000.28,-295.62 991.18,-314.2 1009,-342 1031.1,-376.48 1060.49,-414.64 1076.13,-434.43"/>
<polygon fill="#63b8ff" stroke="#63b8ff" points="1079.25,-438.36 1074.38,-435.84 1077.7,-436.4 1076.15,-434.44 1076.15,-434.44 1076.15,-434.44 1077.7,-436.4 1077.91,-433.05 1079.25,-438.36 1079.25,-438.36"/>
</a>
</g>
</g>
<!-- Node4 -->
<g id="Node000004" class="node">
<title>Node4</title>
<g id="a_Node000004"><a xlink:href="../../d1/d64/classLoadSetsPage.html#ae9df62316c97057080733c35b31747e6" target="_top" xlink:title=" ">
<polygon fill="white" stroke="#666666" points="579,-278 421,-278 421,-248 579,-248 579,-278"/>
<text text-anchor="start" x="429" y="-266" font-family="Helvetica,sans-Serif" font-size="10.00">LoadSetsPage::readSetsFrom</text>
<text text-anchor="middle" x="500" y="-255" font-family="Helvetica,sans-Serif" font-size="10.00">ByteArray</text>
</a>
</g>
</g>
<!-- Node2&#45;&gt;Node4 -->
<g id="edge4_Node000002_Node000004" class="edge">
<title>Node2&#45;&gt;Node4</title>
<g id="a_edge4_Node000002_Node000004"><a xlink:title=" ">
<path fill="none" stroke="#63b8ff" d="M338.03,-202.05C361.89,-211.34 393.19,-223.45 421,-234 431.43,-237.95 442.65,-242.16 453.25,-246.11"/>
<polygon fill="#63b8ff" stroke="#63b8ff" points="458.08,-247.9 452.61,-248.27 455.73,-247.03 453.39,-246.16 453.39,-246.16 453.39,-246.16 455.73,-247.03 454.17,-244.05 458.08,-247.9 458.08,-247.9"/>
</a>
</g>
</g>
<!-- Node2&#45;&gt;Node14 -->
<g id="edge30_Node000002_Node000014" class="edge">
<title>Node2&#45;&gt;Node14</title>
<g id="a_edge30_Node000002_Node000014"><a xlink:title=" ">
<path fill="none" stroke="#63b8ff" d="M375.57,-182.03C528.61,-173.19 868.05,-159.71 973,-206 1023.05,-228.08 1062.16,-283.44 1078.58,-309.72"/>
<polygon fill="#63b8ff" stroke="#63b8ff" points="1081.38,-314.27 1076.85,-311.19 1080.07,-312.14 1078.76,-310.01 1078.76,-310.01 1078.76,-310.01 1080.07,-312.14 1080.68,-308.84 1081.38,-314.27 1081.38,-314.27"/>
</a>
</g>
</g>
<!-- Node5 -->
<g id="Node000005" class="node">
<title>Node5</title>
<g id="a_Node000005"><a xlink:href="../../d1/d64/classLoadSetsPage.html#af4c0fd1d77c25113b24a6a760c20c31e" target="_top" xlink:title=" ">
<polygon fill="white" stroke="#666666" points="773,-506 615,-506 615,-476 773,-476 773,-506"/>
<text text-anchor="start" x="623" y="-494" font-family="Helvetica,sans-Serif" font-size="10.00">LoadSetsPage::readSetsFrom</text>
<text text-anchor="middle" x="694" y="-483" font-family="Helvetica,sans-Serif" font-size="10.00">ByteArrayRef</text>
</a>
</g>
</g>
<!-- Node4&#45;&gt;Node5 -->
<g id="edge5_Node000004_Node000005" class="edge">
<title>Node4&#45;&gt;Node5</title>
<g id="a_edge5_Node000004_Node000005"><a xlink:title=" ">
<path fill="none" stroke="#63b8ff" d="M513.9,-278.31C547.85,-318.63 639.65,-427.65 676.94,-471.92"/>
<polygon fill="#63b8ff" stroke="#63b8ff" points="680.16,-475.75 675.22,-473.38 678.55,-473.84 676.94,-471.93 676.94,-471.93 676.94,-471.93 678.55,-473.84 678.66,-470.48 680.16,-475.75 680.16,-475.75"/>
</a>
</g>
</g>
<!-- Node4&#45;&gt;Node14 -->
<g id="edge29_Node000004_Node000014" class="edge">
<title>Node4&#45;&gt;Node14</title>
<g id="a_edge29_Node000004_Node000014"><a xlink:title=" ">
<path fill="none" stroke="#63b8ff" d="M579.29,-256.8C673.77,-251.26 836.91,-247.94 973,-277 1006.42,-284.14 1042.49,-300.65 1064.91,-312.07"/>
<polygon fill="#63b8ff" stroke="#63b8ff" points="1069.48,-314.42 1064.01,-314.13 1067.26,-313.28 1065.04,-312.13 1065.04,-312.13 1065.04,-312.13 1067.26,-313.28 1066.07,-310.13 1069.48,-314.42 1069.48,-314.42"/>
</a>
</g>
</g>
<!-- Node5&#45;&gt;Node3 -->
<g id="edge10_Node000005_Node000003" class="edge">
<title>Node5&#45;&gt;Node3</title>
<g id="a_edge10_Node000005_Node000003"><a xlink:title=" ">
<path fill="none" stroke="#63b8ff" d="M773.05,-500.17C829.19,-504.76 906.43,-506.92 973,-494 1006.45,-487.51 1042.51,-471.22 1064.92,-459.88"/>
<polygon fill="#63b8ff" stroke="#63b8ff" points="1069.49,-457.55 1066.07,-461.83 1067.27,-458.68 1065.04,-459.82 1065.04,-459.82 1065.04,-459.82 1067.27,-458.68 1064.02,-457.82 1069.49,-457.55 1069.49,-457.55"/>
</a>
</g>
</g>
<!-- Node5&#45;&gt;Node5 -->
<g id="edge24_Node000005_Node000005" class="edge">
<title>Node5&#45;&gt;Node5</title>
<g id="a_edge24_Node000005_Node000005"><a xlink:title=" ">
<path fill="none" stroke="#63b8ff" d="M659.9,-506.28C652.32,-515.41 663.69,-524 694,-524 719.1,-524 731.21,-518.11 730.33,-510.89"/>
<polygon fill="#63b8ff" stroke="#63b8ff" points="728.1,-506.28 732.3,-509.8 729.19,-508.53 730.27,-510.78 730.27,-510.78 730.27,-510.78 729.19,-508.53 728.25,-511.76 728.1,-506.28 728.1,-506.28"/>
</a>
</g>
</g>
<!-- Node6 -->
<g id="Node000006" class="node">
<title>Node6</title>
<g id="a_Node000006"><a xlink:href="../../de/d4e/classUnZip.html#ac9f8480f291612baf94c3e25f9b090ed" target="_top" xlink:title=" ">
<polygon fill="white" stroke="#666666" points="1145,-633.5 1031,-633.5 1031,-614.5 1145,-614.5 1145,-633.5"/>
<text text-anchor="middle" x="1088" y="-621.5" font-family="Helvetica,sans-Serif" font-size="10.00">UnZip::closeArchive</text>
</a>
</g>
</g>
<!-- Node5&#45;&gt;Node6 -->
<g id="edge6_Node000005_Node000006" class="edge">
<title>Node5&#45;&gt;Node6</title>
<g id="a_edge6_Node000005_Node000006"><a xlink:title=" ">
<path fill="none" stroke="#63b8ff" d="M703.12,-506.39C719.03,-534.69 757.3,-594.26 809,-618 882.67,-651.83 979.32,-643.86 1037.09,-634.37"/>
<polygon fill="#63b8ff" stroke="#63b8ff" points="1042.22,-633.51 1037.66,-636.55 1039.75,-633.92 1037.28,-634.34 1037.28,-634.34 1037.28,-634.34 1039.75,-633.92 1036.91,-632.12 1042.22,-633.51 1042.22,-633.51"/>
</a>
</g>
</g>
<!-- Node7 -->
<g id="Node000007" class="node">
<title>Node7</title>
<g id="a_Node000007"><a xlink:href="../../d1/dfe/classXzDecompressor.html#a771eeacefe733677399974423e4f6812" target="_top" xlink:title=" ">
<polygon fill="white" stroke="#666666" points="973,-684.5 809,-684.5 809,-665.5 973,-665.5 973,-684.5"/>
<text text-anchor="middle" x="891" y="-672.5" font-family="Helvetica,sans-Serif" font-size="10.00">XzDecompressor::decompress</text>
</a>
</g>
</g>
<!-- Node5&#45;&gt;Node7 -->
<g id="edge7_Node000005_Node000007" class="edge">
<title>Node5&#45;&gt;Node7</title>
<g id="a_edge7_Node000005_Node000007"><a xlink:title=" ">
<path fill="none" stroke="#63b8ff" d="M701.66,-506.36C716.28,-538.26 754.31,-611.97 809,-651 816.45,-656.32 825.09,-660.47 833.89,-663.71"/>
<polygon fill="#63b8ff" stroke="#63b8ff" points="838.79,-665.42 833.32,-665.9 836.43,-664.59 834.06,-663.77 834.06,-663.77 834.06,-663.77 836.43,-664.59 834.81,-661.65 838.79,-665.42 838.79,-665.42"/>
</a>
</g>
</g>
<!-- Node10 -->
<g id="Node000010" class="node">
<title>Node10</title>
<g id="a_Node000010"><a xlink:href="../../de/d4e/classUnZip.html#a3019704de84e9da2afb3efa66c3fc856" target="_top" xlink:title=" ">
<polygon fill="white" stroke="#666666" points="943,-342.5 839,-342.5 839,-323.5 943,-323.5 943,-342.5"/>
<text text-anchor="middle" x="891" y="-330.5" font-family="Helvetica,sans-Serif" font-size="10.00">UnZip::extractFile</text>
</a>
</g>
</g>
<!-- Node5&#45;&gt;Node10 -->
<g id="edge11_Node000005_Node000010" class="edge">
<title>Node5&#45;&gt;Node10</title>
<g id="a_edge11_Node000005_Node000010"><a xlink:title=" ">
<path fill="none" stroke="#63b8ff" d="M707.06,-475.96C726.6,-452.29 767.21,-405.87 809,-375 825.4,-362.89 845.78,-352.34 861.99,-344.84"/>
<polygon fill="#63b8ff" stroke="#63b8ff" points="866.88,-342.62 863.26,-346.74 864.61,-343.65 862.33,-344.69 862.33,-344.69 862.33,-344.69 864.61,-343.65 861.4,-342.64 866.88,-342.62 866.88,-342.62"/>
</a>
</g>
</g>
<!-- Node11 -->
<g id="Node000011" class="node">
<title>Node11</title>
<g id="a_Node000011"><a xlink:href="../../de/d4e/classUnZip.html#aca7d7088f742b6bbcf05655e6a953a10" target="_top" xlink:title=" ">
<polygon fill="white" stroke="#666666" points="933,-305.5 849,-305.5 849,-286.5 933,-286.5 933,-305.5"/>
<text text-anchor="middle" x="891" y="-293.5" font-family="Helvetica,sans-Serif" font-size="10.00">UnZip::fileList</text>
</a>
</g>
</g>
<!-- Node5&#45;&gt;Node11 -->
<g id="edge13_Node000005_Node000011" class="edge">
<title>Node5&#45;&gt;Node11</title>
<g id="a_edge13_Node000005_Node000011"><a xlink:title=" ">
<path fill="none" stroke="#63b8ff" d="M700.18,-475.82C712.82,-441.16 748.72,-356.01 809,-314 819.13,-306.94 831.57,-302.59 843.62,-299.92"/>
<polygon fill="#63b8ff" stroke="#63b8ff" points="848.76,-298.88 844.31,-302.08 846.31,-299.38 843.86,-299.88 843.86,-299.88 843.86,-299.88 846.31,-299.38 843.41,-297.67 848.76,-298.88 848.76,-298.88"/>
</a>
</g>
</g>
<!-- Node12 -->
<g id="Node000012" class="node">
<title>Node12</title>
<g id="a_Node000012"><a xlink:href="../../de/d4e/classUnZip.html#a50915fe007b204bdaa1eb44362d6ac04" target="_top" xlink:title=" ">
<polygon fill="white" stroke="#666666" points="945,-721.5 837,-721.5 837,-702.5 945,-702.5 945,-721.5"/>
<text text-anchor="middle" x="891" y="-709.5" font-family="Helvetica,sans-Serif" font-size="10.00">UnZip::formatError</text>
</a>
</g>
</g>
<!-- Node5&#45;&gt;Node12 -->
<g id="edge14_Node000005_Node000012" class="edge">
<title>Node5&#45;&gt;Node12</title>
<g id="a_edge14_Node000005_Node000012"><a xlink:title=" ">
<path fill="none" stroke="#63b8ff" d="M698.85,-506.08C709.39,-544.14 742.48,-644.59 809,-694 815.7,-698.98 823.52,-702.63 831.61,-705.29"/>
<polygon fill="#63b8ff" stroke="#63b8ff" points="836.68,-706.82 831.24,-707.53 834.28,-706.1 831.89,-705.37 831.89,-705.37 831.89,-705.37 834.28,-706.1 832.54,-703.22 836.68,-706.82 836.68,-706.82"/>
</a>
</g>
</g>
<!-- Node13 -->
<g id="Node000013" class="node">
<title>Node13</title>
<g id="a_Node000013"><a xlink:href="../../d1/d64/classLoadSetsPage.html#adf026062391c2c4736ee699f47e2ee91" target="_top" xlink:title=" ">
<polygon fill="white" stroke="#666666" points="972.5,-436.5 809.5,-436.5 809.5,-417.5 972.5,-417.5 972.5,-436.5"/>
<text text-anchor="middle" x="891" y="-424.5" font-family="Helvetica,sans-Serif" font-size="10.00">LoadSetsPage::importFinished</text>
</a>
</g>
</g>
<!-- Node5&#45;&gt;Node13 -->
<g id="edge15_Node000005_Node000013" class="edge">
<title>Node5&#45;&gt;Node13</title>
<g id="a_edge15_Node000005_Node000013"><a xlink:title=" ">
<path fill="none" stroke="#63b8ff" d="M729.45,-475.88C751.83,-466.44 781.79,-454.51 809,-446 818.6,-443 828.96,-440.22 838.97,-437.78"/>
<polygon fill="#63b8ff" stroke="#63b8ff" points="843.85,-436.6 839.52,-439.96 841.42,-437.19 838.99,-437.77 838.99,-437.77 838.99,-437.77 841.42,-437.19 838.46,-435.58 843.85,-436.6 843.85,-436.6"/>
</a>
</g>
</g>
<!-- Node5&#45;&gt;Node14 -->
<g id="edge25_Node000005_Node000014" class="edge">
<title>Node5&#45;&gt;Node14</title>
<g id="a_edge25_Node000005_Node000014"><a xlink:title=" ">
<path fill="none" stroke="#63b8ff" d="M711.41,-475.74C732.44,-457.02 770.75,-425.61 809,-408 877.06,-376.67 901.53,-391.48 973,-369 1003.7,-359.35 1037.91,-345.39 1060.78,-335.59"/>
<polygon fill="#63b8ff" stroke="#63b8ff" points="1065.48,-333.56 1061.78,-337.61 1063.18,-334.55 1060.89,-335.54 1060.89,-335.54 1060.89,-335.54 1063.18,-334.55 1059.99,-333.48 1065.48,-333.56 1065.48,-333.56"/>
</a>
</g>
</g>
<!-- Node15 -->
<g id="Node000015" class="node">
<title>Node15</title>
<g id="a_Node000015"><a xlink:href="../../de/d4e/classUnZip.html#a2daec6f0508911f24c3845a7ce3f3588" target="_top" xlink:title=" ">
<polygon fill="white" stroke="#666666" points="947.5,-608.5 834.5,-608.5 834.5,-589.5 947.5,-589.5 947.5,-608.5"/>
<text text-anchor="middle" x="891" y="-596.5" font-family="Helvetica,sans-Serif" font-size="10.00">UnZip::openArchive</text>
</a>
</g>
</g>
<!-- Node5&#45;&gt;Node15 -->
<g id="edge18_Node000005_Node000015" class="edge">
<title>Node5&#45;&gt;Node15</title>
<g id="a_edge18_Node000005_Node000015"><a xlink:title=" ">
<path fill="none" stroke="#63b8ff" d="M709.76,-506.05C730.21,-526 769.14,-560.91 809,-580 815.56,-583.14 822.68,-585.78 829.88,-588"/>
<polygon fill="#63b8ff" stroke="#63b8ff" points="834.87,-589.47 829.44,-590.22 832.47,-588.76 830.07,-588.06 830.07,-588.06 830.07,-588.06 832.47,-588.76 830.7,-585.9 834.87,-589.47 834.87,-589.47"/>
</a>
</g>
</g>
<!-- Node16 -->
<g id="Node000016" class="node">
<title>Node16</title>
<g id="a_Node000016"><a xlink:href="../../db/d70/classOracleImporter.html#a43dfa71b9984a8b6bcd00eb21990da14" target="_top" xlink:title=" ">
<polygon fill="white" stroke="#666666" points="960.5,-571 821.5,-571 821.5,-541 960.5,-541 960.5,-571"/>
<text text-anchor="start" x="829.5" y="-559" font-family="Helvetica,sans-Serif" font-size="10.00">OracleImporter::readSets</text>
<text text-anchor="middle" x="891" y="-548" font-family="Helvetica,sans-Serif" font-size="10.00">FromByteArray</text>
</a>
</g>
</g>
<!-- Node5&#45;&gt;Node16 -->
<g id="edge20_Node000005_Node000016" class="edge">
<title>Node5&#45;&gt;Node16</title>
<g id="a_edge20_Node000005_Node000016"><a xlink:title=" ">
<path fill="none" stroke="#63b8ff" d="M740.23,-506.08C770.02,-516.01 809.07,-529.02 839.82,-539.27"/>
<polygon fill="#63b8ff" stroke="#63b8ff" points="844.68,-540.89 839.23,-541.45 842.31,-540.1 839.94,-539.31 839.94,-539.31 839.94,-539.31 842.31,-540.1 840.65,-537.18 844.68,-540.89 844.68,-540.89"/>
</a>
</g>
</g>
<!-- Node19 -->
<g id="Node000019" class="node">
<title>Node19</title>
<g id="a_Node000019"><a xlink:href="../../d1/d64/classLoadSetsPage.html#a79e37b736a4e2df654ce4bc794225703" target="_top" xlink:title=" ">
<polygon fill="white" stroke="#666666" points="967.5,-485 814.5,-485 814.5,-455 967.5,-455 967.5,-485"/>
<text text-anchor="start" x="822.5" y="-473" font-family="Helvetica,sans-Serif" font-size="10.00">LoadSetsPage::zipDownload</text>
<text text-anchor="middle" x="891" y="-462" font-family="Helvetica,sans-Serif" font-size="10.00">Failed</text>
</a>
</g>
</g>
<!-- Node5&#45;&gt;Node19 -->
<g id="edge26_Node000005_Node000019" class="edge">
<title>Node5&#45;&gt;Node19</title>
<g id="a_edge26_Node000005_Node000019"><a xlink:title=" ">
<path fill="none" stroke="#63b8ff" d="M773.19,-482.58C785.06,-481.3 797.32,-479.98 809.24,-478.7"/>
<polygon fill="#63b8ff" stroke="#63b8ff" points="814.33,-478.15 809.6,-480.92 811.84,-478.42 809.36,-478.68 809.36,-478.68 809.36,-478.68 811.84,-478.42 809.12,-476.45 814.33,-478.15 814.33,-478.15"/>
</a>
</g>
</g>
<!-- Node8 -->
<g id="Node000008" class="node">
<title>Node8</title>
<g id="a_Node000008"><a xlink:href="../../d1/dfe/classXzDecompressor.html#a40481542e6682b9390a3cf7160215a5c" target="_top" xlink:title=" ">
<polygon fill="white" stroke="#666666" points="1148.5,-735 1027.5,-735 1027.5,-705 1148.5,-705 1148.5,-735"/>
<text text-anchor="start" x="1035.5" y="-723" font-family="Helvetica,sans-Serif" font-size="10.00">XzDecompressor::init</text>
<text text-anchor="middle" x="1088" y="-712" font-family="Helvetica,sans-Serif" font-size="10.00">_decoder</text>
</a>
</g>
</g>
<!-- Node7&#45;&gt;Node8 -->
<g id="edge8_Node000007_Node000008" class="edge">
<title>Node7&#45;&gt;Node8</title>
<g id="a_edge8_Node000007_Node000008"><a xlink:title=" ">
<path fill="none" stroke="#63b8ff" d="M933.35,-684.54C959.14,-690.49 992.88,-698.28 1022.17,-705.04"/>
<polygon fill="#63b8ff" stroke="#63b8ff" points="1027.2,-706.2 1021.82,-707.27 1024.77,-705.64 1022.33,-705.08 1022.33,-705.08 1022.33,-705.08 1024.77,-705.64 1022.84,-702.88 1027.2,-706.2 1027.2,-706.2"/>
</a>
</g>
</g>
<!-- Node9 -->
<g id="Node000009" class="node">
<title>Node9</title>
<g id="a_Node000009"><a xlink:href="../../d1/dfe/classXzDecompressor.html#ae1a8c4585bc29f7cf36f9ff33931fb2c" target="_top" xlink:title=" ">
<polygon fill="white" stroke="#666666" points="1159.5,-687 1016.5,-687 1016.5,-657 1159.5,-657 1159.5,-687"/>
<text text-anchor="start" x="1024.5" y="-675" font-family="Helvetica,sans-Serif" font-size="10.00">XzDecompressor::internal</text>
<text text-anchor="middle" x="1088" y="-664" font-family="Helvetica,sans-Serif" font-size="10.00">_decompress</text>
</a>
</g>
</g>
<!-- Node7&#45;&gt;Node9 -->
<g id="edge9_Node000007_Node000009" class="edge">
<title>Node7&#45;&gt;Node9</title>
<g id="a_edge9_Node000007_Node000009"><a xlink:title=" ">
<path fill="none" stroke="#63b8ff" d="M973,-673.75C985.64,-673.56 998.65,-673.36 1011.17,-673.17"/>
<polygon fill="#63b8ff" stroke="#63b8ff" points="1016.5,-673.08 1011.53,-675.41 1014,-673.12 1011.5,-673.16 1011.5,-673.16 1011.5,-673.16 1014,-673.12 1011.47,-670.91 1016.5,-673.08 1016.5,-673.08"/>
</a>
</g>
</g>
<!-- Node10&#45;&gt;Node10 -->
<g id="edge12_Node000010_Node000010" class="edge">
<title>Node10&#45;&gt;Node10</title>
<g id="a_edge12_Node000010_Node000010"><a xlink:title=" ">
<path fill="none" stroke="#63b8ff" d="M860.79,-342.58C846.09,-351.23 856.16,-360.5 891,-360.5 921.48,-360.5 933,-353.41 925.56,-345.84"/>
<polygon fill="#63b8ff" stroke="#63b8ff" points="921.21,-342.58 926.56,-343.78 923.21,-344.08 925.21,-345.58 925.21,-345.58 925.21,-345.58 923.21,-344.08 923.87,-347.38 921.21,-342.58 921.21,-342.58"/>
</a>
</g>
</g>
<!-- Node13&#45;&gt;Node3 -->
<g id="edge16_Node000013_Node000003" class="edge">
<title>Node13&#45;&gt;Node3</title>
<g id="a_edge16_Node000013_Node000003"><a xlink:title=" ">
<path fill="none" stroke="#63b8ff" d="M972.72,-435.69C982.99,-436.8 993.51,-437.93 1003.81,-439.04"/>
<polygon fill="#63b8ff" stroke="#63b8ff" points="1008.85,-439.58 1003.64,-441.29 1006.36,-439.32 1003.88,-439.05 1003.88,-439.05 1003.88,-439.05 1006.36,-439.32 1004.12,-436.81 1008.85,-439.58 1008.85,-439.58"/>
</a>
</g>
</g>
<!-- Node13&#45;&gt;Node14 -->
<g id="edge17_Node000013_Node000014" class="edge">
<title>Node13&#45;&gt;Node14</title>
<g id="a_edge17_Node000013_Node000014"><a xlink:title=" ">
<path fill="none" stroke="#63b8ff" d="M933.32,-417.49C946.34,-413.78 960.57,-408.96 973,-403 1011.27,-384.65 1050.88,-354.12 1071.84,-336.88"/>
<polygon fill="#63b8ff" stroke="#63b8ff" points="1075.78,-333.62 1073.37,-338.54 1073.86,-335.21 1071.93,-336.81 1071.93,-336.81 1071.93,-336.81 1073.86,-335.21 1070.5,-335.08 1075.78,-333.62 1075.78,-333.62"/>
</a>
</g>
</g>
<!-- Node15&#45;&gt;Node6 -->
<g id="edge19_Node000015_Node000006" class="edge">
<title>Node15&#45;&gt;Node6</title>
<g id="a_edge19_Node000015_Node000006"><a xlink:title=" ">
<path fill="none" stroke="#63b8ff" d="M947.62,-606.13C972.1,-609.27 1000.94,-612.97 1026.01,-616.18"/>
<polygon fill="#63b8ff" stroke="#63b8ff" points="1030.97,-616.82 1025.72,-618.41 1028.49,-616.5 1026.01,-616.18 1026.01,-616.18 1026.01,-616.18 1028.49,-616.5 1026.3,-613.95 1030.97,-616.82 1030.97,-616.82"/>
</a>
</g>
</g>
<!-- Node17 -->
<g id="Node000017" class="node">
<title>Node17</title>
<g id="a_Node000017"><a xlink:href="../../d9/d21/oracleimporter_8cpp.html#a47ccfe21278825782c264cef2e6067a5" target="_top" xlink:title=" ">
<polygon fill="white" stroke="#666666" points="1129.5,-531.5 1046.5,-531.5 1046.5,-512.5 1129.5,-512.5 1129.5,-531.5"/>
<text text-anchor="middle" x="1088" y="-519.5" font-family="Helvetica,sans-Serif" font-size="10.00">getSetPriority</text>
</a>
</g>
</g>
<!-- Node16&#45;&gt;Node17 -->
<g id="edge21_Node000016_Node000017" class="edge">
<title>Node16&#45;&gt;Node17</title>
<g id="a_edge21_Node000016_Node000017"><a xlink:title=" ">
<path fill="none" stroke="#63b8ff" d="M960.75,-544.01C987.47,-539.35 1017.35,-534.14 1041.33,-529.96"/>
<polygon fill="#63b8ff" stroke="#63b8ff" points="1046.36,-529.09 1041.82,-532.16 1043.9,-529.52 1041.43,-529.95 1041.43,-529.95 1041.43,-529.95 1043.9,-529.52 1041.05,-527.73 1046.36,-529.09 1046.36,-529.09"/>
</a>
</g>
</g>
<!-- Node18 -->
<g id="Node000018" class="node">
<title>Node18</title>
<g id="a_Node000018"><a xlink:href="../../d3/d98/classQtJson_1_1Json.html#a90d01a20cf2736389daf51ea25a339a1" target="_top" xlink:title=" ">
<polygon fill="white" stroke="#666666" points="1141.5,-568.5 1034.5,-568.5 1034.5,-549.5 1141.5,-549.5 1141.5,-568.5"/>
<text text-anchor="middle" x="1088" y="-556.5" font-family="Helvetica,sans-Serif" font-size="10.00">QtJson::Json::parse</text>
</a>
</g>
</g>
<!-- Node16&#45;&gt;Node18 -->
<g id="edge22_Node000016_Node000018" class="edge">
<title>Node16&#45;&gt;Node18</title>
<g id="a_edge22_Node000016_Node000018"><a xlink:title=" ">
<path fill="none" stroke="#63b8ff" d="M960.75,-557.06C983.18,-557.4 1007.85,-557.78 1029.38,-558.11"/>
<polygon fill="#63b8ff" stroke="#63b8ff" points="1034.49,-558.19 1029.46,-560.36 1031.99,-558.15 1029.49,-558.12 1029.49,-558.12 1029.49,-558.12 1031.99,-558.15 1029.53,-555.87 1034.49,-558.19 1034.49,-558.19"/>
</a>
</g>
</g>
<!-- Node18&#45;&gt;Node18 -->
<g id="edge23_Node000018_Node000018" class="edge">
<title>Node18&#45;&gt;Node18</title>
<g id="a_edge23_Node000018_Node000018"><a xlink:title=" ">
<path fill="none" stroke="#63b8ff" d="M1057.79,-568.58C1043.09,-577.23 1053.16,-586.5 1088,-586.5 1118.48,-586.5 1130,-579.41 1122.56,-571.84"/>
<polygon fill="#63b8ff" stroke="#63b8ff" points="1118.21,-568.58 1123.56,-569.78 1120.21,-570.08 1122.21,-571.58 1122.21,-571.58 1122.21,-571.58 1120.21,-570.08 1120.87,-573.38 1118.21,-568.58 1118.21,-568.58"/>
</a>
</g>
</g>
<!-- Node19&#45;&gt;Node3 -->
<g id="edge27_Node000019_Node000003" class="edge">
<title>Node19&#45;&gt;Node3</title>
<g id="a_edge27_Node000019_Node000003"><a xlink:title=" ">
<path fill="none" stroke="#63b8ff" d="M967.67,-461.46C979.47,-460.13 991.73,-458.75 1003.69,-457.4"/>
<polygon fill="#63b8ff" stroke="#63b8ff" points="1008.8,-456.82 1004.08,-459.62 1006.31,-457.1 1003.83,-457.38 1003.83,-457.38 1003.83,-457.38 1006.31,-457.1 1003.57,-455.15 1008.8,-456.82 1008.8,-456.82"/>
</a>
</g>
</g>
<!-- Node19&#45;&gt;Node14 -->
<g id="edge28_Node000019_Node000014" class="edge">
<title>Node19&#45;&gt;Node14</title>
<g id="a_edge28_Node000019_Node000014"><a xlink:title=" ">
<path fill="none" stroke="#63b8ff" d="M953.23,-454.88C960.13,-452.08 966.88,-448.81 973,-445 1019.58,-415.97 1059.86,-363.3 1077.5,-338.13"/>
<polygon fill="#63b8ff" stroke="#63b8ff" points="1080.53,-333.76 1079.53,-339.16 1079.1,-335.82 1077.68,-337.87 1077.68,-337.87 1077.68,-337.87 1079.1,-335.82 1075.83,-336.59 1080.53,-333.76 1080.53,-333.76"/>
</a>
</g>
</g>
</g>
</svg>
