<?xml version="1.0" encoding="UTF-8" standalone="no"?>
<!DOCTYPE svg PUBLIC "-//W3C//DTD SVG 1.1//EN"
 "http://www.w3.org/Graphics/SVG/1.1/DTD/svg11.dtd">
<!-- Generated by graphviz version 2.43.0 (0)
 -->
<!-- Title: TEST Pages: 1 -->
<!--zoomable 142 -->

<svg id="main" version="1.1" xmlns="http://www.w3.org/2000/svg" xmlns:xlink="http://www.w3.org/1999/xlink" xml:space="preserve">

<style type="text/css"><![CDATA[
.node, .edge {opacity: 0.7;}
.node.selected, .edge.selected {opacity: 1;}
.edge:hover path { stroke: red; }
.edge:hover polygon { stroke: red; fill: red; }
]]></style>

<defs>
  <circle id="rim" cx="0" cy="0" r="7"/>
  <circle id="rim2" cx="0" cy="0" r="3.5"/>
  <g id="zoomPlus">
    <use xlink:href="#rim" fill="#404040"><set attributeName="fill" to="#808080" begin="zoomplus.mouseover" end="zoomplus.mouseout"/></use>
    <path d="M-4,0h8M0,-4v8" fill="none" stroke="white" stroke-width="1.5" pointer-events="none"/>
  </g>
  <g id="zoomMin">
    <use xlink:href="#rim" fill="#404040"><set attributeName="fill" to="#808080" begin="zoomminus.mouseover" end="zoomminus.mouseout"/></use>
    <path d="M-4,0h8" fill="none" stroke="white" stroke-width="1.5" pointer-events="none"/>
  </g>
  <g id="arrowUp" transform="translate(30 24)">
    <use xlink:href="#rim"/>
    <path pointer-events="none" fill="none" stroke="white" stroke-width="1.5" d="M0,-3.0v7 M-2.5,-0.5L0,-3.0L2.5,-0.5"/>
  </g>
  <g id="arrowRight" transform="rotate(90) translate(36 -43)">
    <use xlink:href="#rim"/>
    <path pointer-events="none" fill="none" stroke="white" stroke-width="1.5" d="M0,-3.0v7 M-2.5,-0.5L0,-3.0L2.5,-0.5"/>
  </g>
  <g id="arrowDown" transform="rotate(180) translate(-30 -48)">
    <use xlink:href="#rim"/>
    <path pointer-events="none" fill="none" stroke="white" stroke-width="1.5" d="M0,-3.0v7 M-2.5,-0.5L0,-3.0L2.5,-0.5"/>
  </g>
  <g id="arrowLeft" transform="rotate(270) translate(-36 17)">
    <use xlink:href="#rim"/>
    <path pointer-events="none" fill="none" stroke="white" stroke-width="1.5" d="M0,-3.0v7 M-2.5,-0.5L0,-3.0L2.5,-0.5"/>
  </g>
  <g id="resetDef">
    <use xlink:href="#rim2" fill="#404040"><set attributeName="fill" to="#808080" begin="reset.mouseover" end="reset.mouseout"/></use>
  </g>
</defs>
<script type="application/ecmascript" xlink:href="../../svg.min.js"/>
<svg id="graph" class="graph" data-view-width="509" data-view-height="142" data-section-id="dynsection-16">
<g id="viewport">
<title>TEST</title>
<!-- Node1 -->
<g id="Node000001" class="node">
<title>Node1</title>
<g id="a_Node000001"><a xlink:title=" ">
<polygon fill="#999999" stroke="#666666" points="41,-80 0,-80 0,-61 41,-61 41,-80"/>
<text text-anchor="middle" x="20.5" y="-68" font-family="Helvetica,sans-Serif" font-size="10.00">TEST</text>
</a>
</g>
</g>
<!-- Node2 -->
<g id="Node000002" class="node">
<title>Node2</title>
<g id="a_Node000002"><a xlink:href="../../dd/df1/namespaceTranslationLoader.html#a522eb0f0ec7abc4190b39f9e98dddb63" target="_top" xlink:title="Loads the &lt;prefix&gt;&lt;_lang&gt;.qm translation file from _directories into _translator.">
<polygon fill="white" stroke="#666666" points="186,-133.5 77,-133.5 77,-103.5 186,-103.5 186,-133.5"/>
<text text-anchor="start" x="85" y="-121.5" font-family="Helvetica,sans-Serif" font-size="10.00">TranslationLoader::</text>
<text text-anchor="middle" x="131.5" y="-110.5" font-family="Helvetica,sans-Serif" font-size="10.00">loadApplication</text>
</a>
</g>
</g>
<!-- Node1&#45;&gt;Node2 -->
<g id="edge1_Node000001_Node000002" class="edge">
<title>Node1&#45;&gt;Node2</title>
<g id="a_edge1_Node000001_Node000002"><a xlink:title=" ">
<path fill="none" stroke="#63b8ff" d="M41.24,-79.19C55.26,-85.37 74.54,-93.86 91.6,-101.37"/>
<polygon fill="#63b8ff" stroke="#63b8ff" points="96.35,-103.46 90.87,-103.51 94.06,-102.45 91.77,-101.45 91.77,-101.45 91.77,-101.45 94.06,-102.45 92.68,-99.39 96.35,-103.46 96.35,-103.46"/>
</a>
</g>
</g>
<!-- Node4 -->
<g id="Node000004" class="node">
<title>Node4</title>
<g id="a_Node000004"><a xlink:href="../../dd/df1/namespaceTranslationLoader.html#ad8d21b766707f0228bb14d162aa90b12" target="_top" xlink:title="Loads Qt&#39;s own translation for _lang, which covers the strings of Qt&#39;s own dialogs.">
<polygon fill="white" stroke="#666666" points="186,-85.5 77,-85.5 77,-55.5 186,-55.5 186,-85.5"/>
<text text-anchor="start" x="85" y="-73.5" font-family="Helvetica,sans-Serif" font-size="10.00">TranslationLoader::</text>
<text text-anchor="middle" x="131.5" y="-62.5" font-family="Helvetica,sans-Serif" font-size="10.00">loadQt</text>
</a>
</g>
</g>
<!-- Node1&#45;&gt;Node4 -->
<g id="edge3_Node000001_Node000004" class="edge">
<title>Node1&#45;&gt;Node4</title>
<g id="a_edge3_Node000001_Node000004"><a xlink:title=" ">
<path fill="none" stroke="#63b8ff" d="M41.24,-70.5C49.96,-70.5 60.73,-70.5 71.73,-70.5"/>
<polygon fill="#63b8ff" stroke="#63b8ff" points="76.79,-70.5 71.79,-72.75 74.29,-70.5 71.79,-70.5 71.79,-70.5 71.79,-70.5 74.29,-70.5 71.79,-68.25 76.79,-70.5 76.79,-70.5"/>
</a>
</g>
</g>
<!-- Node7 -->
<g id="Node000007" class="node">
<title>Node7</title>
<g id="a_Node000007"><a xlink:href="../../da/d4a/clamped__arithmetic__test_8cpp.html#a20aa4476c52e86e6d91ef83e4def9e03" target="_top" xlink:title=" ">
<polygon fill="white" stroke="#666666" points="152,-19 111,-19 111,0 152,0 152,-19"/>
<text text-anchor="middle" x="131.5" y="-7" font-family="Helvetica,sans-Serif" font-size="10.00">TEST</text>
</a>
</g>
</g>
<!-- Node1&#45;&gt;Node7 -->
<g id="edge8_Node000001_Node000007" class="edge">
<title>Node1&#45;&gt;Node7</title>
<g id="a_edge8_Node000001_Node000007"><a xlink:title=" ">
<path fill="none" stroke="#63b8ff" d="M38.53,-60.97C57.46,-50.38 88.07,-33.25 108.72,-21.69"/>
<polygon fill="#63b8ff" stroke="#63b8ff" points="113.23,-19.17 109.96,-23.57 111.05,-20.39 108.87,-21.61 108.87,-21.61 108.87,-21.61 111.05,-20.39 107.77,-19.64 113.23,-19.17 113.23,-19.17"/>
</a>
</g>
</g>
<!-- Node3 -->
<g id="Node000003" class="node">
<title>Node3</title>
<g id="a_Node000003"><a xlink:href="../../dd/df1/namespaceTranslationLoader.html#aeb424b2d131d5c00b422433a828e64e5" target="_top" xlink:title="Loads the first _nameHint + language translation file found in _directories into _translator.">
<polygon fill="white" stroke="#666666" points="331,-133.5 222,-133.5 222,-103.5 331,-103.5 331,-133.5"/>
<text text-anchor="start" x="230" y="-121.5" font-family="Helvetica,sans-Serif" font-size="10.00">TranslationLoader::</text>
<text text-anchor="middle" x="276.5" y="-110.5" font-family="Helvetica,sans-Serif" font-size="10.00">loadFrom</text>
</a>
</g>
</g>
<!-- Node2&#45;&gt;Node3 -->
<g id="edge2_Node000002_Node000003" class="edge">
<title>Node2&#45;&gt;Node3</title>
<g id="a_edge2_Node000002_Node000003"><a xlink:title=" ">
<path fill="none" stroke="#63b8ff" d="M186.15,-118.5C196.01,-118.5 206.34,-118.5 216.35,-118.5"/>
<polygon fill="#63b8ff" stroke="#63b8ff" points="221.54,-118.5 216.54,-120.75 219.04,-118.5 216.54,-118.5 216.54,-118.5 216.54,-118.5 219.04,-118.5 216.54,-116.25 221.54,-118.5 221.54,-118.5"/>
</a>
</g>
</g>
<!-- Node4&#45;&gt;Node3 -->
<g id="edge4_Node000004_Node000003" class="edge">
<title>Node4&#45;&gt;Node3</title>
<g id="a_edge4_Node000004_Node000003"><a xlink:title=" ">
<path fill="none" stroke="#63b8ff" d="M177.35,-85.56C192.79,-90.74 210.17,-96.57 225.96,-101.87"/>
<polygon fill="#63b8ff" stroke="#63b8ff" points="230.81,-103.5 225.35,-104.04 228.44,-102.7 226.07,-101.91 226.07,-101.91 226.07,-101.91 228.44,-102.7 226.78,-99.77 230.81,-103.5 230.81,-103.5"/>
</a>
</g>
</g>
<!-- Node5 -->
<g id="Node000005" class="node">
<title>Node5</title>
<g id="a_Node000005"><a xlink:href="../../dd/df1/namespaceTranslationLoader.html#a54ccd0697a271cad98b630921414c2f5" target="_top" xlink:title="The candidates that actually exist, most likely first, so no caller searches a path that is not there...">
<polygon fill="white" stroke="#666666" points="331,-85.5 222,-85.5 222,-55.5 331,-55.5 331,-85.5"/>
<text text-anchor="start" x="230" y="-73.5" font-family="Helvetica,sans-Serif" font-size="10.00">TranslationLoader::</text>
<text text-anchor="middle" x="276.5" y="-62.5" font-family="Helvetica,sans-Serif" font-size="10.00">qtTranslationPaths</text>
</a>
</g>
</g>
<!-- Node4&#45;&gt;Node5 -->
<g id="edge5_Node000004_Node000005" class="edge">
<title>Node4&#45;&gt;Node5</title>
<g id="a_edge5_Node000004_Node000005"><a xlink:title=" ">
<path fill="none" stroke="#63b8ff" d="M186.15,-70.5C196.01,-70.5 206.34,-70.5 216.35,-70.5"/>
<polygon fill="#63b8ff" stroke="#63b8ff" points="221.54,-70.5 216.54,-72.75 219.04,-70.5 216.54,-70.5 216.54,-70.5 216.54,-70.5 219.04,-70.5 216.54,-68.25 221.54,-70.5 221.54,-70.5"/>
</a>
</g>
</g>
<!-- Node6 -->
<g id="Node000006" class="node">
<title>Node6</title>
<g id="a_Node000006"><a xlink:href="../../dd/df1/namespaceTranslationLoader.html#aa6a84a4f8eaa1f086c831ee25c7e724a" target="_top" xlink:title="Every directory that may hold Qt&#39;s own translations, in order of preference.">
<polygon fill="white" stroke="#666666" points="501,-85.5 367,-85.5 367,-55.5 501,-55.5 501,-85.5"/>
<text text-anchor="start" x="375" y="-73.5" font-family="Helvetica,sans-Serif" font-size="10.00">TranslationLoader::</text>
<text text-anchor="middle" x="434" y="-62.5" font-family="Helvetica,sans-Serif" font-size="10.00">qtTranslationCandidates</text>
</a>
</g>
</g>
<!-- Node5&#45;&gt;Node6 -->
<g id="edge6_Node000005_Node000006" class="edge">
<title>Node5&#45;&gt;Node6</title>
<g id="a_edge6_Node000005_Node000006"><a xlink:title=" ">
<path fill="none" stroke="#63b8ff" d="M331.01,-70.5C340.9,-70.5 351.38,-70.5 361.7,-70.5"/>
<polygon fill="#63b8ff" stroke="#63b8ff" points="366.75,-70.5 361.75,-72.75 364.25,-70.5 361.75,-70.5 361.75,-70.5 361.75,-70.5 364.25,-70.5 361.75,-68.25 366.75,-70.5 366.75,-70.5"/>
</a>
</g>
</g>
<!-- Node6&#45;&gt;Node6 -->
<g id="edge7_Node000006_Node000006" class="edge">
<title>Node6&#45;&gt;Node6</title>
<g id="a_edge7_Node000006_Node000006"><a xlink:title=" ">
<path fill="none" stroke="#63b8ff" d="M406.58,-85.78C400.48,-94.91 409.62,-103.5 434,-103.5 453.8,-103.5 463.55,-97.83 463.24,-90.8"/>
<polygon fill="#63b8ff" stroke="#63b8ff" points="461.42,-85.78 465.24,-89.71 462.27,-88.13 463.13,-90.48 463.13,-90.48 463.13,-90.48 462.27,-88.13 461.01,-91.24 461.42,-85.78 461.42,-85.78"/>
</a>
</g>
</g>
<!-- Node7&#45;&gt;Node7 -->
<g id="edge11_Node000007_Node000007" class="edge">
<title>Node7&#45;&gt;Node7</title>
<g id="a_edge11_Node000007_Node000007"><a xlink:title=" ">
<path fill="none" stroke="#63b8ff" d="M114.55,-19.08C106.3,-27.73 111.95,-37 131.5,-37 147.69,-37 154.35,-30.65 151.48,-23.55"/>
<polygon fill="#63b8ff" stroke="#63b8ff" points="148.45,-19.08 153.12,-21.96 149.86,-21.15 151.26,-23.22 151.26,-23.22 151.26,-23.22 149.86,-21.15 149.39,-24.48 148.45,-19.08 148.45,-19.08"/>
</a>
</g>
</g>
<!-- Node8 -->
<g id="Node000008" class="node">
<title>Node8</title>
<g id="a_Node000008"><a xlink:href="../../d9/d2a/clamped__arithmetic_8h.html#aaf9291b5384211dfe747bf6df7252be6" target="_top" xlink:title="Overflow&#45;safe clamped addition: returns value + delta bounded to [minValue, maxValue].">
<polygon fill="white" stroke="#666666" points="315.5,-19 237.5,-19 237.5,0 315.5,0 315.5,-19"/>
<text text-anchor="middle" x="276.5" y="-7" font-family="Helvetica,sans-Serif" font-size="10.00">addClamped</text>
</a>
</g>
</g>
<!-- Node7&#45;&gt;Node8 -->
<g id="edge9_Node000007_Node000008" class="edge">
<title>Node7&#45;&gt;Node8</title>
<g id="a_edge9_Node000007_Node000008"><a xlink:title=" ">
<path fill="none" stroke="#63b8ff" d="M152.08,-9.5C172.59,-9.5 205.47,-9.5 232.13,-9.5"/>
<polygon fill="#63b8ff" stroke="#63b8ff" points="237.38,-9.5 232.38,-11.75 234.88,-9.5 232.38,-9.5 232.38,-9.5 232.38,-9.5 234.88,-9.5 232.38,-7.25 237.38,-9.5 237.38,-9.5"/>
</a>
</g>
</g>
<!-- Node8&#45;&gt;Node8 -->
<g id="edge10_Node000008_Node000008" class="edge">
<title>Node8&#45;&gt;Node8</title>
<g id="a_edge10_Node000008_Node000008"><a xlink:title=" ">
<path fill="none" stroke="#63b8ff" d="M254.31,-19.08C243.51,-27.73 250.91,-37 276.5,-37 298.49,-37 307.05,-30.16 302.17,-22.74"/>
<polygon fill="#63b8ff" stroke="#63b8ff" points="298.69,-19.08 303.77,-21.16 300.42,-20.9 302.14,-22.71 302.14,-22.71 302.14,-22.71 300.42,-20.9 300.51,-24.26 298.69,-19.08 298.69,-19.08"/>
</a>
</g>
</g>
</g>
</svg>

<g id="navigator" transform="translate(0 0)" fill="#404254">
  <rect fill="#f2f5e9" fill-opacity="0.5" stroke="#606060" stroke-width=".5" x="0" y="0" width="60" height="60"/>
  <use id="zoomplus" xlink:href="#zoomPlus" x="17" y="9" data-zoom="in"/>
  <use id="zoomminus" xlink:href="#zoomMin" x="42" y="9" data-zoom="out"/>
  <use id="reset" xlink:href="#resetDef" x="30" y="36" data-reset="true"/>
  <use id="arrowup" xlink:href="#arrowUp" x="0" y="0" data-pan-x="0" data-pan-y="-1"/>
  <use id="arrowright" xlink:href="#arrowRight" x="0" y="0" data-pan-x="1" data-pan-y="0"/>
  <use id="arrowdown" xlink:href="#arrowDown" x="0" y="0" data-pan-x="0" data-pan-y="1"/>
  <use id="arrowleft" xlink:href="#arrowLeft" x="0" y="0" data-pan-x="-1" data-pan-y="0"/>
</g>
<svg viewBox="0 0 15 15" width="100%" height="30px" preserveAspectRatio="xMaxYMin meet">
 <g id="arrow_out" transform="scale(0.3 0.3)">
  <a xlink:href="translation__loader__test_8cpp_a8ab2483c2903c527c782576924b11e7b_cgraph_org.svg" target="_base">
   <rect id="button" ry="5" rx="5" y="6" x="6" height="38" width="38"
        fill="#f2f5e9" fill-opacity="0.5" stroke="#606060" stroke-width="1.0"/>
   <path id="arrow"
     d="M 11.500037,31.436501 C 11.940474,20.09759 22.043105,11.32322 32.158766,21.979434 L 37.068811,17.246167 C 37.068811,17.246167 37.088388,32 37.088388,32 L 22.160133,31.978069 C 22.160133,31.978069 26.997745,27.140456 26.997745,27.140456 C 18.528582,18.264221 13.291696,25.230495 11.500037,31.436501 z"
     style="fill:#404040;"/>
  </a>
 </g>
</svg>

<style type='text/css'>
<![CDATA[
[data-mouse-over-selected='false'] { opacity: 0.7; }
[data-mouse-over-selected='true']  { opacity: 1.0; }
]]>
</style>
</svg>
