<?xml version="1.0" encoding="UTF-8" standalone="no"?>
<!DOCTYPE svg PUBLIC "-//W3C//DTD SVG 1.1//EN"
 "http://www.w3.org/Graphics/SVG/1.1/DTD/svg11.dtd">
<!-- Generated by graphviz version 2.43.0 (0)
 -->
<!-- Title: DlgLoadRemoteDeck Pages: 1 -->
<svg width="546pt" height="321pt"
 viewBox="0.00 0.00 546.00 321.00" xmlns="http://www.w3.org/2000/svg" xmlns:xlink="http://www.w3.org/1999/xlink">
<g id="graph0" class="graph" transform="scale(1 1) rotate(0) translate(4 317)">
<title>DlgLoadRemoteDeck</title>
<!-- Node1 -->
<g id="Node000001" class="node">
<title>Node1</title>
<g id="a_Node000001"><a xlink:title=" ">
<polygon fill="#999999" stroke="#666666" points="143.5,-19 24.5,-19 24.5,0 143.5,0 143.5,-19"/>
<text text-anchor="middle" x="84" y="-7" font-family="Helvetica,sans-Serif" font-size="10.00">DlgLoadRemoteDeck</text>
</a>
</g>
</g>
<!-- Node2 -->
<g id="Node000002" class="node">
<title>Node2</title>
<g id="a_Node000002"><a xlink:title=" ">
<polygon fill="white" stroke="#666666" points="56,-91 0,-91 0,-72 56,-72 56,-91"/>
<text text-anchor="middle" x="28" y="-79" font-family="Helvetica,sans-Serif" font-size="10.00">QDialog</text>
</a>
</g>
</g>
<!-- Node2&#45;&gt;Node1 -->
<g id="edge1_Node000001_Node000002" class="edge">
<title>Node2&#45;&gt;Node1</title>
<g id="a_edge1_Node000001_Node000002"><a xlink:title=" ">
<path fill="none" stroke="#63b8ff" d="M38.14,-67.83C49.41,-53.74 67.31,-31.37 77.08,-19.15"/>
<polygon fill="#63b8ff" stroke="#63b8ff" points="34.87,-71.92 36.23,-66.61 36.43,-69.96 37.99,-68.01 37.99,-68.01 37.99,-68.01 36.43,-69.96 39.75,-69.42 34.87,-71.92 34.87,-71.92"/>
</a>
</g>
</g>
<!-- Node3 -->
<g id="Node000003" class="node">
<title>Node3</title>
<g id="a_Node000003"><a xlink:href="../../dc/d86/classAbstractClient.html" target="_top" xlink:title=" ">
<polygon fill="white" stroke="#666666" points="153,-251.5 67,-251.5 67,-232.5 153,-232.5 153,-251.5"/>
<text text-anchor="middle" x="110" y="-239.5" font-family="Helvetica,sans-Serif" font-size="10.00">AbstractClient</text>
</a>
</g>
</g>
<!-- Node3&#45;&gt;Node1 -->
<g id="edge2_Node000001_Node000003" class="edge">
<title>Node3&#45;&gt;Node1</title>
<g id="a_edge2_Node000001_Node000003"><a xlink:title=" ">
<path fill="none" stroke="#9a32cd" stroke-dasharray="5,2" d="M108.45,-227.25C103.62,-184.43 88.94,-54.29 84.99,-19.26"/>
<polygon fill="#9a32cd" stroke="#9a32cd" points="109.01,-232.25 106.22,-227.53 108.73,-229.76 108.45,-227.28 108.45,-227.28 108.45,-227.28 108.73,-229.76 110.69,-227.02 109.01,-232.25 109.01,-232.25"/>
</a>
</g>
<text text-anchor="start" x="100" y="-114.5" font-family="Helvetica,sans-Serif" font-size="10.00" fill="grey">client</text>
</g>
<!-- Node7 -->
<g id="Node000007" class="node">
<title>Node7</title>
<g id="a_Node000007"><a xlink:href="../../d8/dcf/classRemoteDeckList__TreeModel.html" target="_top" xlink:title=" ">
<polygon fill="white" stroke="#666666" points="350,-168.5 198,-168.5 198,-149.5 350,-149.5 350,-168.5"/>
<text text-anchor="middle" x="274" y="-156.5" font-family="Helvetica,sans-Serif" font-size="10.00">RemoteDeckList_TreeModel</text>
</a>
</g>
</g>
<!-- Node3&#45;&gt;Node7 -->
<g id="edge8_Node000007_Node000003" class="edge">
<title>Node3&#45;&gt;Node7</title>
<g id="a_edge8_Node000007_Node000003"><a xlink:title=" ">
<path fill="none" stroke="#9a32cd" stroke-dasharray="5,2" d="M131.88,-230.19C164.79,-213.94 226.37,-183.52 256.5,-168.65"/>
<polygon fill="#9a32cd" stroke="#9a32cd" points="127.24,-232.48 130.73,-228.25 129.48,-231.38 131.72,-230.27 131.72,-230.27 131.72,-230.27 129.48,-231.38 132.72,-232.29 127.24,-232.48 127.24,-232.48"/>
</a>
</g>
<text text-anchor="start" x="209" y="-197.5" font-family="Helvetica,sans-Serif" font-size="10.00" fill="grey">client</text>
</g>
<!-- Node4 -->
<g id="Node000004" class="node">
<title>Node4</title>
<g id="a_Node000004"><a xlink:title=" ">
<polygon fill="white" stroke="#666666" points="138,-313 82,-313 82,-294 138,-294 138,-313"/>
<text text-anchor="middle" x="110" y="-301" font-family="Helvetica,sans-Serif" font-size="10.00">QObject</text>
</a>
</g>
</g>
<!-- Node4&#45;&gt;Node3 -->
<g id="edge3_Node000003_Node000004" class="edge">
<title>Node4&#45;&gt;Node3</title>
<g id="a_edge3_Node000003_Node000004"><a xlink:title=" ">
<path fill="none" stroke="#63b8ff" d="M110,-288.74C110,-277.25 110,-261.22 110,-251.51"/>
<polygon fill="#63b8ff" stroke="#63b8ff" points="110,-293.98 107.75,-288.98 110,-291.48 110,-288.98 110,-288.98 110,-288.98 110,-291.48 112.25,-288.98 110,-293.98 110,-293.98"/>
</a>
</g>
</g>
<!-- Node5 -->
<g id="Node000005" class="node">
<title>Node5</title>
<g id="a_Node000005"><a xlink:href="../../d7/dd0/classRemoteDeckList__TreeWidget.html" target="_top" xlink:title=" ">
<polygon fill="white" stroke="#666666" points="269.5,-91 112.5,-91 112.5,-72 269.5,-72 269.5,-91"/>
<text text-anchor="middle" x="191" y="-79" font-family="Helvetica,sans-Serif" font-size="10.00">RemoteDeckList_TreeWidget</text>
</a>
</g>
</g>
<!-- Node5&#45;&gt;Node1 -->
<g id="edge4_Node000001_Node000005" class="edge">
<title>Node5&#45;&gt;Node1</title>
<g id="a_edge4_Node000001_Node000005"><a xlink:title=" ">
<path fill="none" stroke="#9a32cd" stroke-dasharray="5,2" d="M173.55,-69.08C152.18,-55.1 116.46,-31.74 97.23,-19.15"/>
<polygon fill="#9a32cd" stroke="#9a32cd" points="177.88,-71.92 172.46,-71.06 175.79,-70.55 173.7,-69.18 173.7,-69.18 173.7,-69.18 175.79,-70.55 174.93,-67.3 177.88,-71.92 177.88,-71.92"/>
</a>
</g>
<text text-anchor="start" x="153.5" y="-42.5" font-family="Helvetica,sans-Serif" font-size="10.00" fill="grey">dirView</text>
</g>
<!-- Node6 -->
<g id="Node000006" class="node">
<title>Node6</title>
<g id="a_Node000006"><a xlink:title=" ">
<polygon fill="white" stroke="#666666" points="180,-168.5 112,-168.5 112,-149.5 180,-149.5 180,-168.5"/>
<text text-anchor="middle" x="146" y="-156.5" font-family="Helvetica,sans-Serif" font-size="10.00">QTreeView</text>
</a>
</g>
</g>
<!-- Node6&#45;&gt;Node5 -->
<g id="edge5_Node000005_Node000006" class="edge">
<title>Node6&#45;&gt;Node5</title>
<g id="a_edge5_Node000005_Node000006"><a xlink:title=" ">
<path fill="none" stroke="#63b8ff" d="M153.82,-144.88C163.03,-129.43 178.07,-104.2 185.9,-91.06"/>
<polygon fill="#63b8ff" stroke="#63b8ff" points="151.16,-149.34 151.79,-143.89 152.44,-147.19 153.72,-145.04 153.72,-145.04 153.72,-145.04 152.44,-147.19 155.65,-146.2 151.16,-149.34 151.16,-149.34"/>
</a>
</g>
</g>
<!-- Node7&#45;&gt;Node5 -->
<g id="edge6_Node000005_Node000007" class="edge">
<title>Node7&#45;&gt;Node5</title>
<g id="a_edge6_Node000005_Node000007"><a xlink:title=" ">
<path fill="none" stroke="#9a32cd" stroke-dasharray="5,2" d="M260.45,-145.67C243.55,-130.3 215.1,-104.42 200.41,-91.06"/>
<polygon fill="#9a32cd" stroke="#9a32cd" points="264.48,-149.34 259.27,-147.64 262.63,-147.66 260.78,-145.97 260.78,-145.97 260.78,-145.97 262.63,-147.66 262.29,-144.31 264.48,-149.34 264.48,-149.34"/>
</a>
</g>
<text text-anchor="start" x="240" y="-114.5" font-family="Helvetica,sans-Serif" font-size="10.00" fill="grey">treeModel</text>
</g>
<!-- Node8 -->
<g id="Node000008" class="node">
<title>Node8</title>
<g id="a_Node000008"><a xlink:title=" ">
<polygon fill="white" stroke="#666666" points="323.5,-251.5 206.5,-251.5 206.5,-232.5 323.5,-232.5 323.5,-251.5"/>
<text text-anchor="middle" x="265" y="-239.5" font-family="Helvetica,sans-Serif" font-size="10.00">QAbstractItemModel</text>
</a>
</g>
</g>
<!-- Node8&#45;&gt;Node7 -->
<g id="edge7_Node000007_Node000008" class="edge">
<title>Node8&#45;&gt;Node7</title>
<g id="a_edge7_Node000007_Node000008"><a xlink:title=" ">
<path fill="none" stroke="#63b8ff" d="M266.54,-227.12C268.4,-210.43 271.46,-182.9 273.02,-168.85"/>
<polygon fill="#63b8ff" stroke="#63b8ff" points="265.96,-232.33 264.28,-227.11 266.24,-229.85 266.52,-227.36 266.52,-227.36 266.52,-227.36 266.24,-229.85 268.75,-227.61 265.96,-232.33 265.96,-232.33"/>
</a>
</g>
</g>
<!-- Node9 -->
<g id="Node000009" class="node">
<title>Node9</title>
<g id="a_Node000009"><a xlink:href="../../dc/d19/classRemoteDeckList__TreeModel_1_1DirectoryNode.html" target="_top" xlink:title=" ">
<polygon fill="white" stroke="#666666" points="494,-257 342,-257 342,-227 494,-227 494,-257"/>
<text text-anchor="start" x="350" y="-245" font-family="Helvetica,sans-Serif" font-size="10.00">RemoteDeckList_TreeModel</text>
<text text-anchor="middle" x="418" y="-234" font-family="Helvetica,sans-Serif" font-size="10.00">::DirectoryNode</text>
</a>
</g>
</g>
<!-- Node9&#45;&gt;Node7 -->
<g id="edge9_Node000007_Node000009" class="edge">
<title>Node9&#45;&gt;Node7</title>
<g id="a_edge9_Node000007_Node000009"><a xlink:title=" ">
<path fill="none" stroke="#9a32cd" stroke-dasharray="5,2" d="M388.23,-224.26C358.21,-207.37 313.02,-181.95 289.49,-168.71"/>
<polygon fill="#9a32cd" stroke="#9a32cd" points="392.92,-226.89 387.46,-226.4 390.74,-225.67 388.56,-224.44 388.56,-224.44 388.56,-224.44 390.74,-225.67 389.66,-222.48 392.92,-226.89 392.92,-226.89"/>
</a>
</g>
<text text-anchor="start" x="361" y="-197.5" font-family="Helvetica,sans-Serif" font-size="10.00" fill="grey">root</text>
</g>
<!-- Node10 -->
<g id="Node000010" class="node">
<title>Node10</title>
<g id="a_Node000010"><a xlink:href="../../da/d72/classRemoteDeckList__TreeModel_1_1Node.html" target="_top" xlink:title=" ">
<polygon fill="white" stroke="#666666" points="538,-174 386,-174 386,-144 538,-144 538,-174"/>
<text text-anchor="start" x="394" y="-162" font-family="Helvetica,sans-Serif" font-size="10.00">RemoteDeckList_TreeModel</text>
<text text-anchor="middle" x="462" y="-151" font-family="Helvetica,sans-Serif" font-size="10.00">::Node</text>
</a>
</g>
</g>
<!-- Node9&#45;&gt;Node10 -->
<g id="edge11_Node000010_Node000009" class="edge">
<title>Node9&#45;&gt;Node10</title>
<g id="a_edge11_Node000010_Node000009"><a xlink:title=" ">
<path fill="none" stroke="#9a32cd" stroke-dasharray="5,2" d="M409.42,-222.07C406.42,-212.53 404.92,-201.1 410,-192 414.14,-184.6 420.77,-178.7 427.93,-174.08"/>
<polygon fill="#9a32cd" stroke="#9a32cd" points="411.1,-226.86 407.32,-222.89 410.27,-224.5 409.45,-222.14 409.45,-222.14 409.45,-222.14 410.27,-224.5 411.57,-221.4 411.1,-226.86 411.1,-226.86"/>
</a>
</g>
<text text-anchor="start" x="413" y="-197.5" font-family="Helvetica,sans-Serif" font-size="10.00" fill="grey">parent</text>
</g>
<!-- Node10&#45;&gt;Node9 -->
<g id="edge10_Node000009_Node000010" class="edge">
<title>Node10&#45;&gt;Node9</title>
<g id="a_edge10_Node000009_Node000010"><a xlink:title=" ">
<path fill="none" stroke="#63b8ff" d="M460.82,-179.13C459.58,-188.6 457.06,-199.91 452,-209 448.29,-215.66 442.72,-221.74 437.16,-226.77"/>
<polygon fill="#63b8ff" stroke="#63b8ff" points="461.39,-174.09 463.07,-179.31 461.11,-176.57 460.83,-179.06 460.83,-179.06 460.83,-179.06 461.11,-176.57 458.59,-178.81 461.39,-174.09 461.39,-174.09"/>
</a>
</g>
</g>
<!-- Node11 -->
<g id="Node000011" class="node">
<title>Node11</title>
<g id="a_Node000011"><a xlink:title=" ">
<polygon fill="white" stroke="#666666" points="467,-313 369,-313 369,-294 467,-294 467,-313"/>
<text text-anchor="middle" x="418" y="-301" font-family="Helvetica,sans-Serif" font-size="10.00">QList&lt; Node * &gt;</text>
</a>
</g>
</g>
<!-- Node11&#45;&gt;Node9 -->
<g id="edge12_Node000009_Node000011" class="edge">
<title>Node11&#45;&gt;Node9</title>
<g id="a_edge12_Node000009_Node000011"><a xlink:title=" ">
<path fill="none" stroke="#63b8ff" d="M418,-288.78C418,-279.25 418,-266.61 418,-257.02"/>
<polygon fill="#63b8ff" stroke="#63b8ff" points="418,-293.98 415.75,-288.98 418,-291.48 418,-288.98 418,-288.98 418,-288.98 418,-291.48 420.25,-288.98 418,-293.98 418,-293.98"/>
</a>
</g>
</g>
</g>
</svg>
