<?xml version="1.0" encoding="UTF-8" standalone="no"?>
<!DOCTYPE svg PUBLIC "-//W3C//DTD SVG 1.1//EN"
 "http://www.w3.org/Graphics/SVG/1.1/DTD/svg11.dtd">
<!-- Generated by graphviz version 2.43.0 (0)
 -->
<!-- Title: TableZone::getCardFromGrid Pages: 1 -->
<svg width="339pt" height="64pt"
 viewBox="0.00 0.00 339.00 64.00" xmlns="http://www.w3.org/2000/svg" xmlns:xlink="http://www.w3.org/1999/xlink">

<svg id="main" version="1.1" xmlns="http://www.w3.org/2000/svg" xmlns:xlink="http://www.w3.org/1999/xlink" xml:space="preserve">

<style type="text/css"><![CDATA[
.node, .edge {opacity: 0.7;}
.node.selected, .edge.selected {opacity: 1;}
.edge:hover path { stroke: red; }
.edge:hover polygon { stroke: red; fill: red; }
]]></style>
<script type="application/ecmascript" xlink:href="../../svg.min.js"/>
<svg id="graph" class="graph">
<g id="graph0" class="graph" transform="scale(1 1) rotate(0) translate(4 60)">
<title>TableZone::getCardFromGrid</title>
<!-- Node1 -->
<g id="Node000001" class="node">
<title>Node1</title>
<g id="a_Node000001"><a xlink:title=" ">
<polygon fill="#999999" stroke="#666666" points="156,-37 0,-37 0,-18 156,-18 156,-37"/>
<text text-anchor="middle" x="78" y="-25" font-family="Helvetica,sans-Serif" font-size="10.00">TableZone::getCardFromGrid</text>
</a>
</g>
</g>
<!-- Node2 -->
<g id="Node000002" class="node">
<title>Node2</title>
<g id="a_Node000002"><a xlink:href="../../d1/df9/classCardZoneLogic.html#a01bc8f22df2cf2b943084b40ffc95a2d" target="_top" xlink:title=" ">
<polygon fill="white" stroke="#666666" points="331,-56 192,-56 192,-37 331,-37 331,-56"/>
<text text-anchor="middle" x="261.5" y="-44" font-family="Helvetica,sans-Serif" font-size="10.00">CardZoneLogic::getCards</text>
</a>
</g>
</g>
<!-- Node1&#45;&gt;Node2 -->
<g id="edge1_Node000001_Node000002" class="edge">
<title>Node1&#45;&gt;Node2</title>
<g id="a_edge1_Node000001_Node000002"><a xlink:title=" ">
<path fill="none" stroke="#63b8ff" d="M156.24,-35.59C166.34,-36.64 176.68,-37.73 186.72,-38.78"/>
<polygon fill="#63b8ff" stroke="#63b8ff" points="191.95,-39.32 186.74,-41.04 189.46,-39.06 186.97,-38.8 186.97,-38.8 186.97,-38.8 189.46,-39.06 187.21,-36.57 191.95,-39.32 191.95,-39.32"/>
</a>
</g>
</g>
<!-- Node3 -->
<g id="Node000003" class="node">
<title>Node3</title>
<g id="a_Node000003"><a xlink:href="../../de/da1/classCardZone.html#a22f29aafd7f6af1015ad46f84636ae5d" target="_top" xlink:title=" ">
<polygon fill="white" stroke="#666666" points="317,-19 206,-19 206,0 317,0 317,-19"/>
<text text-anchor="middle" x="261.5" y="-7" font-family="Helvetica,sans-Serif" font-size="10.00">CardZone::getLogic</text>
</a>
</g>
</g>
<!-- Node1&#45;&gt;Node3 -->
<g id="edge2_Node000001_Node000003" class="edge">
<title>Node1&#45;&gt;Node3</title>
<g id="a_edge2_Node000001_Node000003"><a xlink:title=" ">
<path fill="none" stroke="#63b8ff" d="M156.24,-19.84C171.1,-18.37 186.46,-16.84 200.67,-15.43"/>
<polygon fill="#63b8ff" stroke="#63b8ff" points="205.86,-14.92 201.1,-17.65 203.37,-15.17 200.88,-15.41 200.88,-15.41 200.88,-15.41 203.37,-15.17 200.66,-13.17 205.86,-14.92 205.86,-14.92"/>
</a>
</g>
</g>
</g>
</svg>
</svg>

<style type='text/css'>
<![CDATA[
[data-mouse-over-selected='false'] { opacity: 0.7; }
[data-mouse-over-selected='true']  { opacity: 1.0; }
]]>
</style>
<script type="application/ecmascript"><![CDATA[
document.addEventListener('DOMContentLoaded', (event) => {
  highlightEdges();
  highlightAdjacentNodes();
});
]]></script>
</svg>
