<?xml version="1.0" encoding="UTF-8" standalone="no"?>
<!DOCTYPE svg PUBLIC "-//W3C//DTD SVG 1.1//EN"
 "http://www.w3.org/Graphics/SVG/1.1/DTD/svg11.dtd">
<!-- Generated by graphviz version 2.43.0 (0)
 -->
<!-- Title: BannerWidget::setClickable Pages: 1 -->
<svg width="790pt" height="38pt"
 viewBox="0.00 0.00 790.00 38.00" xmlns="http://www.w3.org/2000/svg" xmlns:xlink="http://www.w3.org/1999/xlink">
<g id="graph0" class="graph" transform="scale(1 1) rotate(0) translate(4 34)">
<title>BannerWidget::setClickable</title>
<!-- Node1 -->
<g id="Node000001" class="node">
<title>Node1</title>
<g id="a_Node000001"><a xlink:title=" ">
<polygon fill="#999999" stroke="#666666" points="151,-24.5 0,-24.5 0,-5.5 151,-5.5 151,-24.5"/>
<text text-anchor="middle" x="75.5" y="-12.5" font-family="Helvetica,sans-Serif" font-size="10.00">BannerWidget::setClickable</text>
</a>
</g>
</g>
<!-- Node2 -->
<g id="Node000002" class="node">
<title>Node2</title>
<g id="a_Node000002"><a xlink:href="../../d2/d73/classBannerWidget.html#aeb4062833daba24f5b56470482a7e901" target="_top" xlink:title=" ">
<polygon fill="white" stroke="#666666" points="362,-30 187,-30 187,0 362,0 362,-30"/>
<text text-anchor="start" x="195" y="-18" font-family="Helvetica,sans-Serif" font-size="10.00">BannerWidget::updateDropdown</text>
<text text-anchor="middle" x="274.5" y="-7" font-family="Helvetica,sans-Serif" font-size="10.00">IconState</text>
</a>
</g>
</g>
<!-- Node1&#45;&gt;Node2 -->
<g id="edge1_Node000001_Node000002" class="edge">
<title>Node1&#45;&gt;Node2</title>
<g id="a_edge1_Node000001_Node000002"><a xlink:title=" ">
<path fill="none" stroke="#63b8ff" d="M151.26,-15C161.27,-15 171.62,-15 181.88,-15"/>
<polygon fill="#63b8ff" stroke="#63b8ff" points="186.91,-15 181.91,-17.25 184.41,-15 181.91,-15 181.91,-15 181.91,-15 184.41,-15 181.91,-12.75 186.91,-15 186.91,-15"/>
</a>
</g>
</g>
<!-- Node3 -->
<g id="Node000003" class="node">
<title>Node3</title>
<g id="a_Node000003"><a xlink:href="../../d1/db5/classDropdownIconPixmapGenerator.html#a59d319283c8059296693ef27e17ef08a" target="_top" xlink:title=" ">
<polygon fill="white" stroke="#666666" points="570,-30 398,-30 398,0 570,0 570,-30"/>
<text text-anchor="start" x="406" y="-18" font-family="Helvetica,sans-Serif" font-size="10.00">DropdownIconPixmapGenerator</text>
<text text-anchor="middle" x="484" y="-7" font-family="Helvetica,sans-Serif" font-size="10.00">::generatePixmap</text>
</a>
</g>
</g>
<!-- Node2&#45;&gt;Node3 -->
<g id="edge2_Node000002_Node000003" class="edge">
<title>Node2&#45;&gt;Node3</title>
<g id="a_edge2_Node000002_Node000003"><a xlink:title=" ">
<path fill="none" stroke="#63b8ff" d="M362.3,-15C372.32,-15 382.56,-15 392.63,-15"/>
<polygon fill="#63b8ff" stroke="#63b8ff" points="397.88,-15 392.88,-17.25 395.38,-15 392.88,-15 392.88,-15 392.88,-15 395.38,-15 392.88,-12.75 397.88,-15 397.88,-15"/>
</a>
</g>
</g>
<!-- Node4 -->
<g id="Node000004" class="node">
<title>Node4</title>
<g id="a_Node000004"><a xlink:href="../../de/db8/pixel__map__generator_8cpp.html#a6cfe65fb28ed67863cea38029bcf9654" target="_top" xlink:title=" ">
<polygon fill="white" stroke="#666666" points="690,-24.5 606,-24.5 606,-5.5 690,-5.5 690,-24.5"/>
<text text-anchor="middle" x="648" y="-12.5" font-family="Helvetica,sans-Serif" font-size="10.00">tryLoadImage</text>
</a>
</g>
</g>
<!-- Node3&#45;&gt;Node4 -->
<g id="edge3_Node000003_Node000004" class="edge">
<title>Node3&#45;&gt;Node4</title>
<g id="a_edge3_Node000003_Node000004"><a xlink:title=" ">
<path fill="none" stroke="#63b8ff" d="M570.27,-15C580.69,-15 591.01,-15 600.55,-15"/>
<polygon fill="#63b8ff" stroke="#63b8ff" points="605.77,-15 600.77,-17.25 603.27,-15 600.77,-15 600.77,-15 600.77,-15 603.27,-15 600.77,-12.75 605.77,-15 605.77,-15"/>
</a>
</g>
</g>
<!-- Node5 -->
<g id="Node000005" class="node">
<title>Node5</title>
<g id="a_Node000005"><a xlink:href="../../de/db8/pixel__map__generator_8cpp.html#a6752fa5d3c1c1130fe5ea7d1461addd5" target="_top" xlink:title=" ">
<polygon fill="white" stroke="#666666" points="782,-24.5 726,-24.5 726,-5.5 782,-5.5 782,-24.5"/>
<text text-anchor="middle" x="754" y="-12.5" font-family="Helvetica,sans-Serif" font-size="10.00">loadSvg</text>
</a>
</g>
</g>
<!-- Node4&#45;&gt;Node5 -->
<g id="edge4_Node000004_Node000005" class="edge">
<title>Node4&#45;&gt;Node5</title>
<g id="a_edge4_Node000004_Node000005"><a xlink:title=" ">
<path fill="none" stroke="#63b8ff" d="M690.1,-15C700.26,-15 711,-15 720.67,-15"/>
<polygon fill="#63b8ff" stroke="#63b8ff" points="725.92,-15 720.92,-17.25 723.42,-15 720.92,-15 720.92,-15 720.92,-15 723.42,-15 720.92,-12.75 725.92,-15 725.92,-15"/>
</a>
</g>
</g>
</g>
</svg>
