<?xml version="1.0" encoding="UTF-8" standalone="no"?>
<!DOCTYPE svg PUBLIC "-//W3C//DTD SVG 1.1//EN"
 "http://www.w3.org/Graphics/SVG/1.1/DTD/svg11.dtd">
<!-- Generated by graphviz version 2.43.0 (0)
 -->
<!-- Title: CardGroupDisplayWidget::removeFromLayout Pages: 1 -->
<svg width="2115pt" height="300pt"
 viewBox="0.00 0.00 2115.00 299.50" xmlns="http://www.w3.org/2000/svg" xmlns:xlink="http://www.w3.org/1999/xlink">
<g id="graph0" class="graph" transform="scale(1 1) rotate(0) translate(4 295.5)">
<title>CardGroupDisplayWidget::removeFromLayout</title>
<!-- Node1 -->
<g id="Node000001" class="node">
<title>Node1</title>
<g id="a_Node000001"><a xlink:title=" ">
<polygon fill="#999999" stroke="#666666" points="2107,-183.5 1967,-183.5 1967,-153.5 2107,-153.5 2107,-183.5"/>
<text text-anchor="start" x="1975" y="-171.5" font-family="Helvetica,sans-Serif" font-size="10.00">CardGroupDisplayWidget</text>
<text text-anchor="middle" x="2037" y="-160.5" font-family="Helvetica,sans-Serif" font-size="10.00">::removeFromLayout</text>
</a>
</g>
</g>
<!-- Node2 -->
<g id="Node000002" class="node">
<title>Node2</title>
<g id="a_Node000002"><a xlink:href="../../d9/d5d/classCardGroupDisplayWidget.html#a694e09929f18bedcc4b1f36519b10487" target="_top" xlink:title=" ">
<polygon fill="white" stroke="#666666" points="1931,-223.5 1791,-223.5 1791,-193.5 1931,-193.5 1931,-223.5"/>
<text text-anchor="start" x="1799" y="-211.5" font-family="Helvetica,sans-Serif" font-size="10.00">CardGroupDisplayWidget</text>
<text text-anchor="middle" x="1861" y="-200.5" font-family="Helvetica,sans-Serif" font-size="10.00">::clearAllDisplayWidgets</text>
</a>
</g>
</g>
<!-- Node1&#45;&gt;Node2 -->
<g id="edge1_Node000001_Node000002" class="edge">
<title>Node1&#45;&gt;Node2</title>
<g id="a_edge1_Node000001_Node000002"><a xlink:title=" ">
<path fill="none" stroke="#63b8ff" d="M1965.7,-184.66C1953.03,-187.57 1939.88,-190.6 1927.36,-193.47"/>
<polygon fill="#63b8ff" stroke="#63b8ff" points="1970.71,-183.51 1966.35,-186.82 1968.28,-184.07 1965.84,-184.63 1965.84,-184.63 1965.84,-184.63 1968.28,-184.07 1965.34,-182.44 1970.71,-183.51 1970.71,-183.51"/>
</a>
</g>
</g>
<!-- Node16 -->
<g id="Node000016" class="node">
<title>Node16</title>
<g id="a_Node000016"><a xlink:href="../../d9/d5d/classCardGroupDisplayWidget.html#a850bc0083f761ec2519d4b3e653aa135" target="_top" xlink:title=" ">
<polygon fill="white" stroke="#666666" points="1931,-159.5 1791,-159.5 1791,-129.5 1931,-129.5 1931,-159.5"/>
<text text-anchor="start" x="1799" y="-147.5" font-family="Helvetica,sans-Serif" font-size="10.00">CardGroupDisplayWidget</text>
<text text-anchor="middle" x="1861" y="-136.5" font-family="Helvetica,sans-Serif" font-size="10.00">::onCardRemoval</text>
</a>
</g>
</g>
<!-- Node1&#45;&gt;Node16 -->
<g id="edge24_Node000001_Node000016" class="edge">
<title>Node1&#45;&gt;Node16</title>
<g id="a_edge24_Node000001_Node000016"><a xlink:title=" ">
<path fill="none" stroke="#63b8ff" d="M1961.99,-158.29C1951.79,-156.88 1941.34,-155.44 1931.22,-154.05"/>
<polygon fill="#63b8ff" stroke="#63b8ff" points="1966.98,-158.98 1961.72,-160.53 1964.5,-158.64 1962.03,-158.3 1962.03,-158.3 1962.03,-158.3 1964.5,-158.64 1962.34,-156.07 1966.98,-158.98 1966.98,-158.98"/>
</a>
</g>
</g>
<!-- Node3 -->
<g id="Node000003" class="node">
<title>Node3</title>
<g id="a_Node000003"><a xlink:href="../../d9/d5d/classCardGroupDisplayWidget.html#a3d1aff146a25dd6c5432167fcfc1b679" target="_top" xlink:title=" ">
<polygon fill="white" stroke="#666666" points="1573,-245.5 1409,-245.5 1409,-215.5 1573,-215.5 1573,-245.5"/>
<text text-anchor="start" x="1417" y="-233.5" font-family="Helvetica,sans-Serif" font-size="10.00">CardGroupDisplayWidget</text>
<text text-anchor="middle" x="1491" y="-222.5" font-family="Helvetica,sans-Serif" font-size="10.00">::onActiveSortCriteriaChanged</text>
</a>
</g>
</g>
<!-- Node2&#45;&gt;Node3 -->
<g id="edge2_Node000002_Node000003" class="edge">
<title>Node2&#45;&gt;Node3</title>
<g id="a_edge2_Node000002_Node000003"><a xlink:title=" ">
<path fill="none" stroke="#63b8ff" d="M1785.65,-212.95C1724.01,-216.63 1636.53,-221.86 1573.1,-225.65"/>
<polygon fill="#63b8ff" stroke="#63b8ff" points="1790.78,-212.64 1785.93,-215.18 1788.29,-212.79 1785.79,-212.94 1785.79,-212.94 1785.79,-212.94 1788.29,-212.79 1785.66,-210.69 1790.78,-212.64 1790.78,-212.64"/>
</a>
</g>
</g>
<!-- Node4 -->
<g id="Node000004" class="node">
<title>Node4</title>
<g id="a_Node000004"><a xlink:href="../../d8/d9f/classDeckCardZoneDisplayWidget.html#a3864404c99bdc19c74bf44d516a390a7" target="_top" xlink:title=" ">
<polygon fill="white" stroke="#666666" points="1373,-245.5 1213,-245.5 1213,-215.5 1373,-215.5 1373,-245.5"/>
<text text-anchor="start" x="1221" y="-233.5" font-family="Helvetica,sans-Serif" font-size="10.00">DeckCardZoneDisplayWidget</text>
<text text-anchor="middle" x="1293" y="-222.5" font-family="Helvetica,sans-Serif" font-size="10.00">::constructAppropriateWidget</text>
</a>
</g>
</g>
<!-- Node3&#45;&gt;Node4 -->
<g id="edge3_Node000003_Node000004" class="edge">
<title>Node3&#45;&gt;Node4</title>
<g id="a_edge3_Node000003_Node000004"><a xlink:title=" ">
<path fill="none" stroke="#63b8ff" d="M1403.59,-230.5C1393.48,-230.5 1383.19,-230.5 1373.18,-230.5"/>
<polygon fill="#63b8ff" stroke="#63b8ff" points="1408.86,-230.5 1403.86,-232.75 1406.36,-230.5 1403.86,-230.5 1403.86,-230.5 1403.86,-230.5 1406.36,-230.5 1403.86,-228.25 1408.86,-230.5 1408.86,-230.5"/>
</a>
</g>
</g>
<!-- Node5 -->
<g id="Node000005" class="node">
<title>Node5</title>
<g id="a_Node000005"><a xlink:href="../../d8/d9f/classDeckCardZoneDisplayWidget.html#a450095dd20206e5d03b8a4cd74b2799e" target="_top" xlink:title=" ">
<polygon fill="white" stroke="#666666" points="1156,-207.5 996,-207.5 996,-177.5 1156,-177.5 1156,-207.5"/>
<text text-anchor="start" x="1004" y="-195.5" font-family="Helvetica,sans-Serif" font-size="10.00">DeckCardZoneDisplayWidget</text>
<text text-anchor="middle" x="1076" y="-184.5" font-family="Helvetica,sans-Serif" font-size="10.00">::displayCards</text>
</a>
</g>
</g>
<!-- Node4&#45;&gt;Node5 -->
<g id="edge4_Node000004_Node000005" class="edge">
<title>Node4&#45;&gt;Node5</title>
<g id="a_edge4_Node000004_Node000005"><a xlink:title=" ">
<path fill="none" stroke="#63b8ff" d="M1207.64,-215.59C1190.75,-212.6 1173.05,-209.48 1156.33,-206.52"/>
<polygon fill="#63b8ff" stroke="#63b8ff" points="1212.86,-216.51 1207.54,-217.86 1210.4,-216.08 1207.93,-215.64 1207.93,-215.64 1207.93,-215.64 1210.4,-216.08 1208.33,-213.43 1212.86,-216.51 1212.86,-216.51"/>
</a>
</g>
</g>
<!-- Node12 -->
<g id="Node000012" class="node">
<title>Node12</title>
<g id="a_Node000012"><a xlink:href="../../d8/d9f/classDeckCardZoneDisplayWidget.html#a70b55869f59899b5ee070a4811d470ce" target="_top" xlink:title=" ">
<polygon fill="white" stroke="#666666" points="517,-291.5 357,-291.5 357,-261.5 517,-261.5 517,-291.5"/>
<text text-anchor="start" x="365" y="-279.5" font-family="Helvetica,sans-Serif" font-size="10.00">DeckCardZoneDisplayWidget</text>
<text text-anchor="middle" x="437" y="-268.5" font-family="Helvetica,sans-Serif" font-size="10.00">::onCategoryAddition</text>
</a>
</g>
</g>
<!-- Node4&#45;&gt;Node12 -->
<g id="edge23_Node000004_Node000012" class="edge">
<title>Node4&#45;&gt;Node12</title>
<g id="a_edge23_Node000004_Node000012"><a xlink:title=" ">
<path fill="none" stroke="#63b8ff" d="M1207.85,-235.06C1099.11,-240.96 903.94,-251.52 737,-260.5 662.38,-264.51 577.29,-269.06 517.01,-272.28"/>
<polygon fill="#63b8ff" stroke="#63b8ff" points="1212.96,-234.79 1208.09,-237.3 1210.46,-234.92 1207.97,-235.06 1207.97,-235.06 1207.97,-235.06 1210.46,-234.92 1207.85,-232.81 1212.96,-234.79 1212.96,-234.79"/>
</a>
</g>
</g>
<!-- Node6 -->
<g id="Node000006" class="node">
<title>Node6</title>
<g id="a_Node000006"><a xlink:href="../../d8/d9f/classDeckCardZoneDisplayWidget.html#a55363dced81613007673d6fc18b585c4" target="_top" xlink:title=" ">
<polygon fill="white" stroke="#666666" points="939,-231.5 773,-231.5 773,-201.5 939,-201.5 939,-231.5"/>
<text text-anchor="start" x="781" y="-219.5" font-family="Helvetica,sans-Serif" font-size="10.00">DeckCardZoneDisplayWidget</text>
<text text-anchor="middle" x="856" y="-208.5" font-family="Helvetica,sans-Serif" font-size="10.00">::DeckCardZoneDisplayWidget</text>
</a>
</g>
</g>
<!-- Node5&#45;&gt;Node6 -->
<g id="edge5_Node000005_Node000006" class="edge">
<title>Node5&#45;&gt;Node6</title>
<g id="a_edge5_Node000005_Node000006"><a xlink:title=" ">
<path fill="none" stroke="#63b8ff" d="M990.75,-201.78C973.77,-203.64 955.94,-205.61 939.04,-207.47"/>
<polygon fill="#63b8ff" stroke="#63b8ff" points="995.99,-201.2 991.27,-203.98 993.5,-201.47 991.02,-201.75 991.02,-201.75 991.02,-201.75 993.5,-201.47 990.77,-199.51 995.99,-201.2 995.99,-201.2"/>
</a>
</g>
</g>
<!-- Node14 -->
<g id="Node000014" class="node">
<title>Node14</title>
<g id="a_Node000014"><a xlink:href="../../d8/d9f/classDeckCardZoneDisplayWidget.html#a79eb3bce6baa261d25fb188a62b11518" target="_top" xlink:title=" ">
<polygon fill="white" stroke="#666666" points="737,-162.5 564,-162.5 564,-132.5 737,-132.5 737,-162.5"/>
<text text-anchor="start" x="572" y="-150.5" font-family="Helvetica,sans-Serif" font-size="10.00">DeckCardZoneDisplayWidget</text>
<text text-anchor="middle" x="650.5" y="-139.5" font-family="Helvetica,sans-Serif" font-size="10.00">::onActiveGroupCriteriaChanged</text>
</a>
</g>
</g>
<!-- Node5&#45;&gt;Node14 -->
<g id="edge17_Node000005_Node000014" class="edge">
<title>Node5&#45;&gt;Node14</title>
<g id="a_edge17_Node000005_Node000014"><a xlink:title=" ">
<path fill="none" stroke="#63b8ff" d="M990.61,-183.53C917.11,-175.72 811.05,-164.45 737.18,-156.6"/>
<polygon fill="#63b8ff" stroke="#63b8ff" points="995.84,-184.09 990.63,-185.8 993.35,-183.82 990.87,-183.56 990.87,-183.56 990.87,-183.56 993.35,-183.82 991.11,-181.32 995.84,-184.09 995.84,-184.09"/>
</a>
</g>
</g>
<!-- Node15 -->
<g id="Node000015" class="node">
<title>Node15</title>
<g id="a_Node000015"><a xlink:href="../../d8/d9f/classDeckCardZoneDisplayWidget.html#ac140319cdb3e43681bf8c3256a24b7ed" target="_top" xlink:title=" ">
<polygon fill="white" stroke="#666666" points="730.5,-114.5 570.5,-114.5 570.5,-84.5 730.5,-84.5 730.5,-114.5"/>
<text text-anchor="start" x="578.5" y="-102.5" font-family="Helvetica,sans-Serif" font-size="10.00">DeckCardZoneDisplayWidget</text>
<text text-anchor="middle" x="650.5" y="-91.5" font-family="Helvetica,sans-Serif" font-size="10.00">::refreshDisplayType</text>
</a>
</g>
</g>
<!-- Node5&#45;&gt;Node15 -->
<g id="edge20_Node000005_Node000015" class="edge">
<title>Node5&#45;&gt;Node15</title>
<g id="a_edge20_Node000005_Node000015"><a xlink:title=" ">
<path fill="none" stroke="#63b8ff" d="M1016.22,-176.08C992.34,-169.63 964.44,-162.38 939,-156.5 868.97,-140.31 788.7,-124.63 730.8,-113.83"/>
<polygon fill="#63b8ff" stroke="#63b8ff" points="1021.26,-177.44 1015.84,-178.3 1018.84,-176.78 1016.43,-176.13 1016.43,-176.13 1016.43,-176.13 1018.84,-176.78 1017.02,-173.96 1021.26,-177.44 1021.26,-177.44"/>
</a>
</g>
</g>
<!-- Node7 -->
<g id="Node000007" class="node">
<title>Node7</title>
<g id="a_Node000007"><a xlink:href="../../d8/d9f/classDeckCardZoneDisplayWidget.html#a53668d7e88c065f823cdb182ef4cbee0" target="_top" xlink:title=" ">
<polygon fill="white" stroke="#666666" points="730.5,-210.5 570.5,-210.5 570.5,-180.5 730.5,-180.5 730.5,-210.5"/>
<text text-anchor="start" x="578.5" y="-198.5" font-family="Helvetica,sans-Serif" font-size="10.00">DeckCardZoneDisplayWidget</text>
<text text-anchor="middle" x="650.5" y="-187.5" font-family="Helvetica,sans-Serif" font-size="10.00">::requestCleanup</text>
</a>
</g>
</g>
<!-- Node6&#45;&gt;Node7 -->
<g id="edge6_Node000006_Node000007" class="edge">
<title>Node6&#45;&gt;Node7</title>
<g id="a_edge6_Node000006_Node000007"><a xlink:title=" ">
<path fill="none" stroke="#63b8ff" d="M767.58,-207.48C755.32,-206.21 742.78,-204.92 730.69,-203.67"/>
<polygon fill="#63b8ff" stroke="#63b8ff" points="772.82,-208.02 767.61,-209.74 770.33,-207.76 767.84,-207.51 767.84,-207.51 767.84,-207.51 770.33,-207.76 768.07,-205.27 772.82,-208.02 772.82,-208.02"/>
</a>
</g>
</g>
<!-- Node8 -->
<g id="Node000008" class="node">
<title>Node8</title>
<g id="a_Node000008"><a xlink:href="../../da/d1e/classVisualDeckEditorWidget.html#a151318bf881404217834b7913f5086d3" target="_top" xlink:title=" ">
<polygon fill="white" stroke="#666666" points="528,-180 346,-180 346,-139 528,-139 528,-180"/>
<text text-anchor="start" x="354" y="-168" font-family="Helvetica,sans-Serif" font-size="10.00">VisualDeckEditorWidget</text>
<text text-anchor="start" x="354" y="-157" font-family="Helvetica,sans-Serif" font-size="10.00">::constructZoneWidgetsFromDeck</text>
<text text-anchor="middle" x="437" y="-146" font-family="Helvetica,sans-Serif" font-size="10.00">ListModel</text>
</a>
</g>
</g>
<!-- Node7&#45;&gt;Node8 -->
<g id="edge7_Node000007_Node000008" class="edge">
<title>Node7&#45;&gt;Node8</title>
<g id="a_edge7_Node000007_Node000008"><a xlink:title=" ">
<path fill="none" stroke="#63b8ff" d="M565.27,-181.16C553.13,-179.1 540.6,-176.96 528.35,-174.88"/>
<polygon fill="#63b8ff" stroke="#63b8ff" points="570.44,-182.04 565.14,-183.42 567.98,-181.62 565.52,-181.2 565.52,-181.2 565.52,-181.2 567.98,-181.62 565.89,-178.99 570.44,-182.04 570.44,-182.04"/>
</a>
</g>
</g>
<!-- Node11 -->
<g id="Node000011" class="node">
<title>Node11</title>
<g id="a_Node000011"><a xlink:href="../../da/d1e/classVisualDeckEditorWidget.html#a0c8e1b7017ba152a23b85d0e08d4adf6" target="_top" xlink:title=" ">
<polygon fill="white" stroke="#666666" points="504,-120.5 370,-120.5 370,-90.5 504,-90.5 504,-120.5"/>
<text text-anchor="start" x="378" y="-108.5" font-family="Helvetica,sans-Serif" font-size="10.00">VisualDeckEditorWidget</text>
<text text-anchor="middle" x="437" y="-97.5" font-family="Helvetica,sans-Serif" font-size="10.00">::onCardAddition</text>
</a>
</g>
</g>
<!-- Node7&#45;&gt;Node11 -->
<g id="edge11_Node000007_Node000011" class="edge">
<title>Node7&#45;&gt;Node11</title>
<g id="a_edge11_Node000007_Node000011"><a xlink:title=" ">
<path fill="none" stroke="#63b8ff" d="M576.41,-178.25C572.09,-176.24 567.91,-174 564,-171.5 543.27,-158.28 548.81,-142.59 528,-129.5 520.74,-124.94 512.64,-121.24 504.34,-118.23"/>
<polygon fill="#63b8ff" stroke="#63b8ff" points="581.15,-180.34 575.67,-180.38 578.87,-179.33 576.58,-178.32 576.58,-178.32 576.58,-178.32 578.87,-179.33 577.49,-176.27 581.15,-180.34 581.15,-180.34"/>
</a>
</g>
</g>
<!-- Node7&#45;&gt;Node12 -->
<g id="edge13_Node000007_Node000012" class="edge">
<title>Node7&#45;&gt;Node12</title>
<g id="a_edge13_Node000007_Node000012"><a xlink:title=" ">
<path fill="none" stroke="#63b8ff" d="M611.92,-212.65C588.09,-223.26 556.51,-236.83 528,-247.5 515.08,-252.33 500.96,-257.12 487.8,-261.36"/>
<polygon fill="#63b8ff" stroke="#63b8ff" points="616.57,-210.57 612.93,-214.67 614.29,-211.59 612.01,-212.61 612.01,-212.61 612.01,-212.61 614.29,-211.59 611.09,-210.56 616.57,-210.57 616.57,-210.57"/>
</a>
</g>
</g>
<!-- Node13 -->
<g id="Node000013" class="node">
<title>Node13</title>
<g id="a_Node000013"><a xlink:href="../../d8/d9f/classDeckCardZoneDisplayWidget.html#a11a19ab2165c2dbd9592fc8a2687fd71" target="_top" xlink:title=" ">
<polygon fill="white" stroke="#666666" points="517,-238.5 357,-238.5 357,-208.5 517,-208.5 517,-238.5"/>
<text text-anchor="start" x="365" y="-226.5" font-family="Helvetica,sans-Serif" font-size="10.00">DeckCardZoneDisplayWidget</text>
<text text-anchor="middle" x="437" y="-215.5" font-family="Helvetica,sans-Serif" font-size="10.00">::onCategoryRemoval</text>
</a>
</g>
</g>
<!-- Node7&#45;&gt;Node13 -->
<g id="edge15_Node000007_Node000013" class="edge">
<title>Node7&#45;&gt;Node13</title>
<g id="a_edge15_Node000007_Node000013"><a xlink:title=" ">
<path fill="none" stroke="#63b8ff" d="M565.12,-206.67C549.35,-208.76 532.92,-210.93 517.31,-213"/>
<polygon fill="#63b8ff" stroke="#63b8ff" points="570.44,-205.97 565.78,-208.85 567.97,-206.29 565.49,-206.62 565.49,-206.62 565.49,-206.62 567.97,-206.29 565.19,-204.39 570.44,-205.97 570.44,-205.97"/>
</a>
</g>
</g>
<!-- Node9 -->
<g id="Node000009" class="node">
<title>Node9</title>
<g id="a_Node000009"><a xlink:href="../../da/d1e/classVisualDeckEditorWidget.html#a241de5f6dd9a0cd49cc226e1998153b0" target="_top" xlink:title=" ">
<polygon fill="white" stroke="#666666" points="310,-163.5 176,-163.5 176,-133.5 310,-133.5 310,-163.5"/>
<text text-anchor="start" x="184" y="-151.5" font-family="Helvetica,sans-Serif" font-size="10.00">VisualDeckEditorWidget</text>
<text text-anchor="middle" x="243" y="-140.5" font-family="Helvetica,sans-Serif" font-size="10.00">::decklistModelReset</text>
</a>
</g>
</g>
<!-- Node8&#45;&gt;Node9 -->
<g id="edge8_Node000008_Node000009" class="edge">
<title>Node8&#45;&gt;Node9</title>
<g id="a_edge8_Node000008_Node000009"><a xlink:title=" ">
<path fill="none" stroke="#63b8ff" d="M340.8,-154.05C330.4,-153.45 319.99,-152.85 310.05,-152.28"/>
<polygon fill="#63b8ff" stroke="#63b8ff" points="345.9,-154.34 340.78,-156.3 343.41,-154.2 340.91,-154.05 340.91,-154.05 340.91,-154.05 343.41,-154.2 341.04,-151.81 345.9,-154.34 345.9,-154.34"/>
</a>
</g>
</g>
<!-- Node10 -->
<g id="Node000010" class="node">
<title>Node10</title>
<g id="a_Node000010"><a xlink:href="../../da/d1e/classVisualDeckEditorWidget.html#a41641d39b9faf3aae8e84919b406e2ff" target="_top" xlink:title=" ">
<polygon fill="white" stroke="#666666" points="140,-163.5 0,-163.5 0,-133.5 140,-133.5 140,-163.5"/>
<text text-anchor="start" x="8" y="-151.5" font-family="Helvetica,sans-Serif" font-size="10.00">VisualDeckEditorWidget</text>
<text text-anchor="middle" x="70" y="-140.5" font-family="Helvetica,sans-Serif" font-size="10.00">::VisualDeckEditorWidget</text>
</a>
</g>
</g>
<!-- Node8&#45;&gt;Node10 -->
<g id="edge10_Node000008_Node000010" class="edge">
<title>Node8&#45;&gt;Node10</title>
<g id="a_edge10_Node000008_Node000010"><a xlink:title=" ">
<path fill="none" stroke="#63b8ff" d="M340.79,-171.64C291.49,-176.06 230.38,-178.64 176,-172.5 159.65,-170.66 142.13,-167.24 126.18,-163.56"/>
<polygon fill="#63b8ff" stroke="#63b8ff" points="345.83,-171.18 341.06,-173.87 343.34,-171.4 340.85,-171.63 340.85,-171.63 340.85,-171.63 343.34,-171.4 340.65,-169.39 345.83,-171.18 345.83,-171.18"/>
</a>
</g>
</g>
<!-- Node9&#45;&gt;Node10 -->
<g id="edge9_Node000009_Node000010" class="edge">
<title>Node9&#45;&gt;Node10</title>
<g id="a_edge9_Node000009_Node000010"><a xlink:title=" ">
<path fill="none" stroke="#63b8ff" d="M170.62,-148.5C160.51,-148.5 150.12,-148.5 140.05,-148.5"/>
<polygon fill="#63b8ff" stroke="#63b8ff" points="175.89,-148.5 170.89,-150.75 173.39,-148.5 170.89,-148.5 170.89,-148.5 170.89,-148.5 173.39,-148.5 170.89,-146.25 175.89,-148.5 175.89,-148.5"/>
</a>
</g>
</g>
<!-- Node11&#45;&gt;Node10 -->
<g id="edge12_Node000011_Node000010" class="edge">
<title>Node11&#45;&gt;Node10</title>
<g id="a_edge12_Node000011_Node000010"><a xlink:title=" ">
<path fill="none" stroke="#63b8ff" d="M364.97,-107.78C312.52,-110.17 239.52,-114.98 176,-124.5 160.84,-126.77 144.61,-130.05 129.57,-133.46"/>
<polygon fill="#63b8ff" stroke="#63b8ff" points="369.98,-107.56 365.08,-110.03 367.48,-107.67 364.98,-107.78 364.98,-107.78 364.98,-107.78 367.48,-107.67 364.88,-105.53 369.98,-107.56 369.98,-107.56"/>
</a>
</g>
</g>
<!-- Node12&#45;&gt;Node6 -->
<g id="edge14_Node000012_Node000006" class="edge">
<title>Node12&#45;&gt;Node6</title>
<g id="a_edge14_Node000012_Node000006"><a xlink:title=" ">
<path fill="none" stroke="#63b8ff" d="M522.04,-264.96C581.99,-256.67 664.48,-245.12 737,-234.5 748.58,-232.8 760.8,-230.98 772.81,-229.16"/>
<polygon fill="#63b8ff" stroke="#63b8ff" points="517.04,-265.66 521.69,-262.74 519.52,-265.31 522,-264.97 522,-264.97 522,-264.97 519.52,-265.31 522.3,-267.2 517.04,-265.66 517.04,-265.66"/>
</a>
</g>
</g>
<!-- Node13&#45;&gt;Node6 -->
<g id="edge16_Node000013_Node000006" class="edge">
<title>Node13&#45;&gt;Node6</title>
<g id="a_edge16_Node000013_Node000006"><a xlink:title=" ">
<path fill="none" stroke="#63b8ff" d="M522.01,-222.65C581.94,-221.97 664.43,-220.91 737,-219.5 748.58,-219.28 760.79,-219 772.8,-218.72"/>
<polygon fill="#63b8ff" stroke="#63b8ff" points="517.01,-222.7 521.98,-220.4 519.51,-222.67 522.01,-222.65 522.01,-222.65 522.01,-222.65 519.51,-222.67 522.04,-224.9 517.01,-222.7 517.01,-222.7"/>
</a>
</g>
</g>
<!-- Node14&#45;&gt;Node8 -->
<g id="edge18_Node000014_Node000008" class="edge">
<title>Node14&#45;&gt;Node8</title>
<g id="a_edge18_Node000014_Node000008"><a xlink:title=" ">
<path fill="none" stroke="#63b8ff" d="M558.56,-152.66C548.54,-153.23 538.34,-153.81 528.32,-154.38"/>
<polygon fill="#63b8ff" stroke="#63b8ff" points="563.78,-152.36 558.92,-154.89 561.28,-152.51 558.79,-152.65 558.79,-152.65 558.79,-152.65 561.28,-152.51 558.66,-150.4 563.78,-152.36 563.78,-152.36"/>
</a>
</g>
</g>
<!-- Node14&#45;&gt;Node11 -->
<g id="edge19_Node000014_Node000011" class="edge">
<title>Node14&#45;&gt;Node11</title>
<g id="a_edge19_Node000014_Node000011"><a xlink:title=" ">
<path fill="none" stroke="#63b8ff" d="M568.64,-131.44C547.32,-127.21 524.57,-122.69 504.12,-118.63"/>
<polygon fill="#63b8ff" stroke="#63b8ff" points="573.74,-132.46 568.4,-133.69 571.29,-131.97 568.84,-131.48 568.84,-131.48 568.84,-131.48 571.29,-131.97 569.28,-129.27 573.74,-132.46 573.74,-132.46"/>
</a>
</g>
</g>
<!-- Node15&#45;&gt;Node8 -->
<g id="edge21_Node000015_Node000008" class="edge">
<title>Node15&#45;&gt;Node8</title>
<g id="a_edge21_Node000015_Node000008"><a xlink:title=" ">
<path fill="none" stroke="#63b8ff" d="M590.72,-115.96C581.77,-118.48 572.64,-121.05 564,-123.5 546.38,-128.49 527.38,-133.9 509.61,-138.98"/>
<polygon fill="#63b8ff" stroke="#63b8ff" points="595.67,-114.57 591.47,-118.09 593.26,-115.25 590.86,-115.92 590.86,-115.92 590.86,-115.92 593.26,-115.25 590.25,-113.76 595.67,-114.57 595.67,-114.57"/>
</a>
</g>
</g>
<!-- Node15&#45;&gt;Node11 -->
<g id="edge22_Node000015_Node000011" class="edge">
<title>Node15&#45;&gt;Node11</title>
<g id="a_edge22_Node000015_Node000011"><a xlink:title=" ">
<path fill="none" stroke="#63b8ff" d="M565.3,-101.89C544.97,-102.47 523.53,-103.07 504.16,-103.62"/>
<polygon fill="#63b8ff" stroke="#63b8ff" points="570.44,-101.74 565.51,-104.13 567.95,-101.81 565.45,-101.88 565.45,-101.88 565.45,-101.88 567.95,-101.81 565.38,-99.64 570.44,-101.74 570.44,-101.74"/>
</a>
</g>
</g>
<!-- Node17 -->
<g id="Node000017" class="node">
<title>Node17</title>
<g id="a_Node000017"><a xlink:href="../../d9/d5d/classCardGroupDisplayWidget.html#aa3e2600176072d4c2bada3c63b742df5" target="_top" xlink:title=" ">
<polygon fill="white" stroke="#666666" points="1755,-116.5 1609,-116.5 1609,-86.5 1755,-86.5 1755,-116.5"/>
<text text-anchor="start" x="1617" y="-104.5" font-family="Helvetica,sans-Serif" font-size="10.00">CardGroupDisplayWidget</text>
<text text-anchor="middle" x="1682" y="-93.5" font-family="Helvetica,sans-Serif" font-size="10.00">::CardGroupDisplayWidget</text>
</a>
</g>
</g>
<!-- Node16&#45;&gt;Node17 -->
<g id="edge25_Node000016_Node000017" class="edge">
<title>Node16&#45;&gt;Node17</title>
<g id="a_edge25_Node000016_Node000017"><a xlink:title=" ">
<path fill="none" stroke="#63b8ff" d="M1793.21,-128.27C1777.35,-124.42 1760.5,-120.33 1744.87,-116.53"/>
<polygon fill="#63b8ff" stroke="#63b8ff" points="1798.09,-129.46 1792.7,-130.47 1795.66,-128.87 1793.24,-128.28 1793.24,-128.28 1793.24,-128.28 1795.66,-128.87 1793.77,-126.09 1798.09,-129.46 1798.09,-129.46"/>
</a>
</g>
</g>
<!-- Node20 -->
<g id="Node000020" class="node">
<title>Node20</title>
<g id="a_Node000020"><a xlink:href="../../de/d0d/classFlatCardGroupDisplayWidget.html#a9a2e2faac0360ffcdaec3573a0beff9a" target="_top" xlink:title=" ">
<polygon fill="white" stroke="#666666" points="1158,-121.5 994,-121.5 994,-91.5 1158,-91.5 1158,-121.5"/>
<text text-anchor="start" x="1002" y="-109.5" font-family="Helvetica,sans-Serif" font-size="10.00">FlatCardGroupDisplayWidget</text>
<text text-anchor="middle" x="1076" y="-98.5" font-family="Helvetica,sans-Serif" font-size="10.00">::FlatCardGroupDisplayWidget</text>
</a>
</g>
</g>
<!-- Node16&#45;&gt;Node20 -->
<g id="edge35_Node000016_Node000020" class="edge">
<title>Node16&#45;&gt;Node20</title>
<g id="a_edge35_Node000016_Node000020"><a xlink:title=" ">
<path fill="none" stroke="#63b8ff" d="M1785.84,-155.12C1775.49,-156.39 1764.99,-157.56 1755,-158.5 1601.83,-172.9 1562.19,-182.68 1409,-168.5 1313.69,-159.68 1204.92,-136.89 1138.63,-121.54"/>
<polygon fill="#63b8ff" stroke="#63b8ff" points="1790.9,-154.49 1786.21,-157.34 1788.42,-154.8 1785.94,-155.11 1785.94,-155.11 1785.94,-155.11 1788.42,-154.8 1785.66,-152.87 1790.9,-154.49 1790.9,-154.49"/>
</a>
</g>
</g>
<!-- Node21 -->
<g id="Node000021" class="node">
<title>Node21</title>
<g id="a_Node000021"><a xlink:href="../../d4/d79/classOverlappedCardGroupDisplayWidget.html#a278d4739d58e73996e5f791371c03cc6" target="_top" xlink:title=" ">
<polygon fill="white" stroke="#666666" points="1177,-41 975,-41 975,0 1177,0 1177,-41"/>
<text text-anchor="start" x="983" y="-29" font-family="Helvetica,sans-Serif" font-size="10.00">OverlappedCardGroupDisplay</text>
<text text-anchor="start" x="983" y="-18" font-family="Helvetica,sans-Serif" font-size="10.00">Widget::OverlappedCardGroupDisplay</text>
<text text-anchor="middle" x="1076" y="-7" font-family="Helvetica,sans-Serif" font-size="10.00">Widget</text>
</a>
</g>
</g>
<!-- Node16&#45;&gt;Node21 -->
<g id="edge36_Node000016_Node000021" class="edge">
<title>Node16&#45;&gt;Node21</title>
<g id="a_edge36_Node000016_Node000021"><a xlink:title=" ">
<path fill="none" stroke="#63b8ff" d="M1836.84,-126.26C1816.41,-111.05 1785.25,-89.92 1755,-77.5 1562.27,1.62 1313.28,-1.23 1177.04,-10.65"/>
<polygon fill="#63b8ff" stroke="#63b8ff" points="1841.03,-129.41 1835.69,-128.21 1839.04,-127.91 1837.04,-126.41 1837.04,-126.41 1837.04,-126.41 1839.04,-127.91 1838.39,-124.61 1841.03,-129.41 1841.03,-129.41"/>
</a>
</g>
</g>
<!-- Node18 -->
<g id="Node000018" class="node">
<title>Node18</title>
<g id="a_Node000018"><a xlink:href="../../d9/d5d/classCardGroupDisplayWidget.html#a69907462d8d37481e85469cb4a7bfaeb" target="_top" xlink:title=" ">
<polygon fill="white" stroke="#666666" points="1561,-159.5 1421,-159.5 1421,-129.5 1561,-129.5 1561,-159.5"/>
<text text-anchor="start" x="1429" y="-147.5" font-family="Helvetica,sans-Serif" font-size="10.00">CardGroupDisplayWidget</text>
<text text-anchor="middle" x="1491" y="-136.5" font-family="Helvetica,sans-Serif" font-size="10.00">::cleanupRequested</text>
</a>
</g>
</g>
<!-- Node17&#45;&gt;Node18 -->
<g id="edge26_Node000017_Node000018" class="edge">
<title>Node17&#45;&gt;Node18</title>
<g id="a_edge26_Node000017_Node000018"><a xlink:title=" ">
<path fill="none" stroke="#63b8ff" d="M1609.68,-117.73C1592.74,-121.58 1574.75,-125.67 1558.07,-129.47"/>
<polygon fill="#63b8ff" stroke="#63b8ff" points="1614.9,-116.54 1610.52,-119.84 1612.46,-117.09 1610.02,-117.65 1610.02,-117.65 1610.02,-117.65 1612.46,-117.09 1609.52,-115.45 1614.9,-116.54 1614.9,-116.54"/>
</a>
</g>
</g>
<!-- Node17&#45;&gt;Node20 -->
<g id="edge33_Node000017_Node000020" class="edge">
<title>Node17&#45;&gt;Node20</title>
<g id="a_edge33_Node000017_Node000020"><a xlink:title=" ">
<path fill="none" stroke="#63b8ff" d="M1603.7,-102.14C1489.17,-103.09 1275.38,-104.86 1158.48,-105.83"/>
<polygon fill="#63b8ff" stroke="#63b8ff" points="1608.74,-102.1 1603.76,-104.39 1606.24,-102.12 1603.74,-102.14 1603.74,-102.14 1603.74,-102.14 1606.24,-102.12 1603.72,-99.89 1608.74,-102.1 1608.74,-102.1"/>
</a>
</g>
</g>
<!-- Node17&#45;&gt;Node21 -->
<g id="edge34_Node000017_Node000021" class="edge">
<title>Node17&#45;&gt;Node21</title>
<g id="a_edge34_Node000017_Node000021"><a xlink:title=" ">
<path fill="none" stroke="#63b8ff" d="M1630.38,-84.92C1612.41,-79.45 1591.93,-73.7 1573,-69.5 1438.05,-39.54 1278.38,-27.89 1177.39,-23.37"/>
<polygon fill="#63b8ff" stroke="#63b8ff" points="1635.38,-86.45 1629.94,-87.14 1632.99,-85.72 1630.6,-84.99 1630.6,-84.99 1630.6,-84.99 1632.99,-85.72 1631.26,-82.84 1635.38,-86.45 1635.38,-86.45"/>
</a>
</g>
</g>
<!-- Node18&#45;&gt;Node4 -->
<g id="edge27_Node000018_Node000004" class="edge">
<title>Node18&#45;&gt;Node4</title>
<g id="a_edge27_Node000018_Node000004"><a xlink:title=" ">
<path fill="none" stroke="#63b8ff" d="M1450.69,-161.75C1414.84,-177.48 1362.41,-200.48 1328.24,-215.47"/>
<polygon fill="#63b8ff" stroke="#63b8ff" points="1455.41,-159.68 1451.74,-163.75 1453.12,-160.68 1450.83,-161.69 1450.83,-161.69 1450.83,-161.69 1453.12,-160.68 1449.93,-159.63 1455.41,-159.68 1455.41,-159.68"/>
</a>
</g>
</g>
<!-- Node18&#45;&gt;Node16 -->
<g id="edge32_Node000018_Node000016" class="edge">
<title>Node18&#45;&gt;Node16</title>
<g id="a_edge32_Node000018_Node000016"><a xlink:title=" ">
<path fill="none" stroke="#63b8ff" d="M1566.29,-144.5C1631.87,-144.5 1726.76,-144.5 1790.78,-144.5"/>
<polygon fill="#63b8ff" stroke="#63b8ff" points="1561.22,-144.5 1566.22,-142.25 1563.72,-144.5 1566.22,-144.5 1566.22,-144.5 1566.22,-144.5 1563.72,-144.5 1566.22,-146.75 1561.22,-144.5 1561.22,-144.5"/>
</a>
</g>
</g>
<!-- Node19 -->
<g id="Node000019" class="node">
<title>Node19</title>
<g id="a_Node000019"><a xlink:href="../../d9/d5d/classCardGroupDisplayWidget.html#a0ff94e3f4d8bbea1ebf44cebc83e74b9" target="_top" xlink:title=" ">
<polygon fill="white" stroke="#666666" points="1363,-78.5 1223,-78.5 1223,-48.5 1363,-48.5 1363,-78.5"/>
<text text-anchor="start" x="1231" y="-66.5" font-family="Helvetica,sans-Serif" font-size="10.00">CardGroupDisplayWidget</text>
<text text-anchor="middle" x="1293" y="-55.5" font-family="Helvetica,sans-Serif" font-size="10.00">::onCardAddition</text>
</a>
</g>
</g>
<!-- Node18&#45;&gt;Node19 -->
<g id="edge28_Node000018_Node000019" class="edge">
<title>Node18&#45;&gt;Node19</title>
<g id="a_edge28_Node000018_Node000019"><a xlink:title=" ">
<path fill="none" stroke="#63b8ff" d="M1448.54,-127.37C1413.59,-112.92 1364.04,-92.44 1330.54,-78.6"/>
<polygon fill="#63b8ff" stroke="#63b8ff" points="1453.59,-129.45 1448.11,-129.62 1451.28,-128.5 1448.97,-127.54 1448.97,-127.54 1448.97,-127.54 1451.28,-128.5 1449.83,-125.47 1453.59,-129.45 1453.59,-129.45"/>
</a>
</g>
</g>
<!-- Node19&#45;&gt;Node17 -->
<g id="edge29_Node000019_Node000017" class="edge">
<title>Node19&#45;&gt;Node17</title>
<g id="a_edge29_Node000019_Node000017"><a xlink:title=" ">
<path fill="none" stroke="#63b8ff" d="M1368.19,-69.01C1424.46,-73.4 1503.68,-80.03 1573,-87.5 1584.56,-88.75 1596.8,-90.2 1608.72,-91.69"/>
<polygon fill="#63b8ff" stroke="#63b8ff" points="1363.16,-68.62 1368.32,-66.76 1365.65,-68.81 1368.15,-69 1368.15,-69 1368.15,-69 1365.65,-68.81 1367.97,-71.25 1363.16,-68.62 1363.16,-68.62"/>
</a>
</g>
</g>
<!-- Node19&#45;&gt;Node20 -->
<g id="edge30_Node000019_Node000020" class="edge">
<title>Node19&#45;&gt;Node20</title>
<g id="a_edge30_Node000019_Node000020"><a xlink:title=" ">
<path fill="none" stroke="#63b8ff" d="M1217.72,-78.36C1196.48,-82.6 1173.31,-87.24 1152.03,-91.49"/>
<polygon fill="#63b8ff" stroke="#63b8ff" points="1222.79,-77.34 1218.33,-80.53 1220.34,-77.83 1217.89,-78.32 1217.89,-78.32 1217.89,-78.32 1220.34,-77.83 1217.44,-76.12 1222.79,-77.34 1222.79,-77.34"/>
</a>
</g>
</g>
<!-- Node19&#45;&gt;Node21 -->
<g id="edge31_Node000019_Node000021" class="edge">
<title>Node19&#45;&gt;Node21</title>
<g id="a_edge31_Node000019_Node000021"><a xlink:title=" ">
<path fill="none" stroke="#63b8ff" d="M1217.61,-48.62C1204.51,-46 1190.67,-43.23 1177,-40.5"/>
<polygon fill="#63b8ff" stroke="#63b8ff" points="1222.79,-49.66 1217.44,-50.88 1220.34,-49.17 1217.89,-48.68 1217.89,-48.68 1217.89,-48.68 1220.34,-49.17 1218.33,-46.47 1222.79,-49.66 1222.79,-49.66"/>
</a>
</g>
</g>
</g>
</svg>
