<?xml version="1.0" encoding="UTF-8" standalone="no"?>
<!DOCTYPE svg PUBLIC "-//W3C//DTD SVG 1.1//EN"
 "http://www.w3.org/Graphics/SVG/1.1/DTD/svg11.dtd">
<!-- Generated by graphviz version 2.43.0 (0)
 -->
<!-- Title: ArrowData::isPlayerTargeted Pages: 1 -->
<svg width="1073pt" height="88pt"
 viewBox="0.00 0.00 1073.00 88.00" xmlns="http://www.w3.org/2000/svg" xmlns:xlink="http://www.w3.org/1999/xlink">
<g id="graph0" class="graph" transform="scale(1 1) rotate(0) translate(4 84)">
<title>ArrowData::isPlayerTargeted</title>
<!-- Node1 -->
<g id="Node000001" class="node">
<title>Node1</title>
<g id="a_Node000001"><a xlink:title=" ">
<polygon fill="#999999" stroke="#666666" points="1065,-58 910,-58 910,-39 1065,-39 1065,-58"/>
<text text-anchor="middle" x="987.5" y="-46" font-family="Helvetica,sans-Serif" font-size="10.00">ArrowData::isPlayerTargeted</text>
</a>
</g>
</g>
<!-- Node2 -->
<g id="Node000002" class="node">
<title>Node2</title>
<g id="a_Node000002"><a xlink:href="../../db/d9f/classGameScene.html#a4433170d623f72e2c5e0d8f8e0550db1" target="_top" xlink:title="Directly modifies the scene.">
<polygon fill="white" stroke="#666666" points="874,-80 746,-80 746,-61 874,-61 874,-80"/>
<text text-anchor="middle" x="810" y="-68" font-family="Helvetica,sans-Serif" font-size="10.00">GameScene::addArrow</text>
</a>
</g>
</g>
<!-- Node1&#45;&gt;Node2 -->
<g id="edge1_Node000001_Node000002" class="edge">
<title>Node1&#45;&gt;Node2</title>
<g id="a_edge1_Node000001_Node000002"><a xlink:title=" ">
<path fill="none" stroke="#63b8ff" d="M905.41,-58.67C894.92,-59.98 884.31,-61.31 874.17,-62.58"/>
<polygon fill="#63b8ff" stroke="#63b8ff" points="910.54,-58.02 905.86,-60.88 908.06,-58.33 905.58,-58.64 905.58,-58.64 905.58,-58.64 908.06,-58.33 905.3,-56.41 910.54,-58.02 910.54,-58.02"/>
</a>
</g>
</g>
<!-- Node4 -->
<g id="Node000004" class="node">
<title>Node4</title>
<g id="a_Node000004"><a xlink:href="../../de/d38/classPlayerEventHandler.html#a8945bbef4d5e97190b0e06a81d18497f" target="_top" xlink:title=" ">
<polygon fill="white" stroke="#666666" points="866.5,-42.5 753.5,-42.5 753.5,-12.5 866.5,-12.5 866.5,-42.5"/>
<text text-anchor="start" x="761.5" y="-30.5" font-family="Helvetica,sans-Serif" font-size="10.00">PlayerEventHandler</text>
<text text-anchor="middle" x="810" y="-19.5" font-family="Helvetica,sans-Serif" font-size="10.00">::eventCreateArrow</text>
</a>
</g>
</g>
<!-- Node1&#45;&gt;Node4 -->
<g id="edge3_Node000001_Node000004" class="edge">
<title>Node1&#45;&gt;Node4</title>
<g id="a_edge3_Node000001_Node000004"><a xlink:title=" ">
<path fill="none" stroke="#63b8ff" d="M904.67,-38.71C891.82,-37.17 878.81,-35.61 866.73,-34.17"/>
<polygon fill="#63b8ff" stroke="#63b8ff" points="909.78,-39.32 904.55,-40.96 907.3,-39.02 904.81,-38.73 904.81,-38.73 904.81,-38.73 907.3,-39.02 905.08,-36.49 909.78,-39.32 909.78,-39.32"/>
</a>
</g>
</g>
<!-- Node3 -->
<g id="Node000003" class="node">
<title>Node3</title>
<g id="a_Node000003"><a xlink:href="../../db/d9f/classGameScene.html#ac7d9ec46a3c66281bf00e72965b299c7" target="_top" xlink:title="Adds a player to the scene and stores their graphics item.">
<polygon fill="white" stroke="#666666" points="710,-80 580,-80 580,-61 710,-61 710,-80"/>
<text text-anchor="middle" x="645" y="-68" font-family="Helvetica,sans-Serif" font-size="10.00">GameScene::addPlayer</text>
</a>
</g>
</g>
<!-- Node2&#45;&gt;Node3 -->
<g id="edge2_Node000002_Node000003" class="edge">
<title>Node2&#45;&gt;Node3</title>
<g id="a_edge2_Node000002_Node000003"><a xlink:title=" ">
<path fill="none" stroke="#63b8ff" d="M740.72,-70.5C730.61,-70.5 720.22,-70.5 710.2,-70.5"/>
<polygon fill="#63b8ff" stroke="#63b8ff" points="745.98,-70.5 740.98,-72.75 743.48,-70.5 740.98,-70.5 740.98,-70.5 740.98,-70.5 743.48,-70.5 740.98,-68.25 745.98,-70.5 745.98,-70.5"/>
</a>
</g>
</g>
<!-- Node5 -->
<g id="Node000005" class="node">
<title>Node5</title>
<g id="a_Node000005"><a xlink:href="../../de/d38/classPlayerEventHandler.html#a0c4c71f0f775e5b4b9513bb2f3b7cb54" target="_top" xlink:title=" ">
<polygon fill="white" stroke="#666666" points="703.5,-42.5 586.5,-42.5 586.5,-12.5 703.5,-12.5 703.5,-42.5"/>
<text text-anchor="start" x="594.5" y="-30.5" font-family="Helvetica,sans-Serif" font-size="10.00">PlayerEventHandler</text>
<text text-anchor="middle" x="645" y="-19.5" font-family="Helvetica,sans-Serif" font-size="10.00">::processGameEvent</text>
</a>
</g>
</g>
<!-- Node4&#45;&gt;Node5 -->
<g id="edge4_Node000004_Node000005" class="edge">
<title>Node4&#45;&gt;Node5</title>
<g id="a_edge4_Node000004_Node000005"><a xlink:title=" ">
<path fill="none" stroke="#63b8ff" d="M748.05,-27.5C733.49,-27.5 718.01,-27.5 703.61,-27.5"/>
<polygon fill="#63b8ff" stroke="#63b8ff" points="753.36,-27.5 748.36,-29.75 750.86,-27.5 748.36,-27.5 748.36,-27.5 748.36,-27.5 750.86,-27.5 748.36,-25.25 753.36,-27.5 753.36,-27.5"/>
</a>
</g>
</g>
<!-- Node6 -->
<g id="Node000006" class="node">
<title>Node6</title>
<g id="a_Node000006"><a xlink:href="../../d7/db2/classGameEventHandler.html#a0314b457308fd96a157f68d780e717ef" target="_top" xlink:title=" ">
<polygon fill="white" stroke="#666666" points="544,-42.5 389,-42.5 389,-12.5 544,-12.5 544,-42.5"/>
<text text-anchor="start" x="397" y="-30.5" font-family="Helvetica,sans-Serif" font-size="10.00">GameEventHandler::process</text>
<text text-anchor="middle" x="466.5" y="-19.5" font-family="Helvetica,sans-Serif" font-size="10.00">GameEventContainer</text>
</a>
</g>
</g>
<!-- Node5&#45;&gt;Node6 -->
<g id="edge5_Node000005_Node000006" class="edge">
<title>Node5&#45;&gt;Node6</title>
<g id="a_edge5_Node000005_Node000006"><a xlink:title=" ">
<path fill="none" stroke="#63b8ff" d="M581.11,-27.5C569.1,-27.5 556.42,-27.5 544.04,-27.5"/>
<polygon fill="#63b8ff" stroke="#63b8ff" points="586.21,-27.5 581.21,-29.75 583.71,-27.5 581.21,-27.5 581.21,-27.5 581.21,-27.5 583.71,-27.5 581.21,-25.25 586.21,-27.5 586.21,-27.5"/>
</a>
</g>
</g>
<!-- Node7 -->
<g id="Node000007" class="node">
<title>Node7</title>
<g id="a_Node000007"><a xlink:href="../../dd/d81/classTabSupervisor.html#ab31f2589bbdc2d7948e0223f403c6d3f" target="_top" xlink:title=" ">
<polygon fill="white" stroke="#666666" points="353,-42.5 195,-42.5 195,-12.5 353,-12.5 353,-42.5"/>
<text text-anchor="start" x="203" y="-30.5" font-family="Helvetica,sans-Serif" font-size="10.00">TabSupervisor::processGame</text>
<text text-anchor="middle" x="274" y="-19.5" font-family="Helvetica,sans-Serif" font-size="10.00">EventContainer</text>
</a>
</g>
</g>
<!-- Node6&#45;&gt;Node7 -->
<g id="edge6_Node000006_Node000007" class="edge">
<title>Node6&#45;&gt;Node7</title>
<g id="a_edge6_Node000006_Node000007"><a xlink:title=" ">
<path fill="none" stroke="#63b8ff" d="M383.57,-27.5C373.45,-27.5 363.12,-27.5 353.06,-27.5"/>
<polygon fill="#63b8ff" stroke="#63b8ff" points="388.84,-27.5 383.84,-29.75 386.34,-27.5 383.84,-27.5 383.84,-27.5 383.84,-27.5 386.34,-27.5 383.84,-25.25 388.84,-27.5 388.84,-27.5"/>
</a>
</g>
</g>
<!-- Node8 -->
<g id="Node000008" class="node">
<title>Node8</title>
<g id="a_Node000008"><a xlink:href="../../dd/d81/classTabSupervisor.html#a8074f0055d28b105a9cbebae8b1c7b25" target="_top" xlink:title=" ">
<polygon fill="white" stroke="#666666" points="149,-56 10,-56 10,-37 149,-37 149,-56"/>
<text text-anchor="middle" x="79.5" y="-44" font-family="Helvetica,sans-Serif" font-size="10.00">TabSupervisor::startLocal</text>
</a>
</g>
</g>
<!-- Node7&#45;&gt;Node8 -->
<g id="edge7_Node000007_Node000008" class="edge">
<title>Node7&#45;&gt;Node8</title>
<g id="a_edge7_Node000007_Node000008"><a xlink:title=" ">
<path fill="none" stroke="#63b8ff" d="M189.97,-35.7C176.31,-37.04 162.29,-38.43 149.04,-39.74"/>
<polygon fill="#63b8ff" stroke="#63b8ff" points="194.98,-35.2 190.23,-37.93 192.49,-35.45 190,-35.69 190,-35.69 190,-35.69 192.49,-35.45 189.78,-33.45 194.98,-35.2 194.98,-35.2"/>
</a>
</g>
</g>
<!-- Node9 -->
<g id="Node000009" class="node">
<title>Node9</title>
<g id="a_Node000009"><a xlink:href="../../dd/d81/classTabSupervisor.html#a5e6baf23ec25ba9c7d95138c2b76b234" target="_top" xlink:title=" ">
<polygon fill="white" stroke="#666666" points="159,-19 0,-19 0,0 159,0 159,-19"/>
<text text-anchor="middle" x="79.5" y="-7" font-family="Helvetica,sans-Serif" font-size="10.00">TabSupervisor::TabSupervisor</text>
</a>
</g>
</g>
<!-- Node7&#45;&gt;Node9 -->
<g id="edge8_Node000007_Node000009" class="edge">
<title>Node7&#45;&gt;Node9</title>
<g id="a_edge8_Node000007_Node000009"><a xlink:title=" ">
<path fill="none" stroke="#63b8ff" d="M189.99,-19.74C179.79,-18.78 169.39,-17.81 159.26,-16.86"/>
<polygon fill="#63b8ff" stroke="#63b8ff" points="194.98,-20.2 189.79,-21.98 192.49,-19.97 190,-19.74 190,-19.74 190,-19.74 192.49,-19.97 190.21,-17.5 194.98,-20.2 194.98,-20.2"/>
</a>
</g>
</g>
</g>
</svg>
