<?xml version="1.0" encoding="UTF-8" standalone="no"?>
<!DOCTYPE svg PUBLIC "-//W3C//DTD SVG 1.1//EN"
 "http://www.w3.org/Graphics/SVG/1.1/DTD/svg11.dtd">
<!-- Generated by graphviz version 2.43.0 (0)
 -->
<!-- Title: DeckPreviewWidget::refreshBannerCardText Pages: 1 -->
<!--zoomable 210 -->

<svg id="main" version="1.1" xmlns="http://www.w3.org/2000/svg" xmlns:xlink="http://www.w3.org/1999/xlink" xml:space="preserve" onload="init(evt)">

<style type="text/css"><![CDATA[
.node, .edge {opacity: 0.7;}
.node.selected, .edge.selected {opacity: 1;}
.edge:hover path { stroke: red; }
.edge:hover polygon { stroke: red; fill: red; }
]]></style>

<defs>
  <circle id="rim" cx="0" cy="0" r="7"/>
  <circle id="rim2" cx="0" cy="0" r="3.5"/>
  <g id="zoomPlus">
    <use xlink:href="#rim" fill="#404040"><set attributeName="fill" to="#808080" begin="zoomplus.mouseover" end="zoomplus.mouseout"/></use>
    <path d="M-4,0h8M0,-4v8" fill="none" stroke="white" stroke-width="1.5" pointer-events="none"/>
  </g>
  <g id="zoomMin">
    <use xlink:href="#rim" fill="#404040"><set attributeName="fill" to="#808080" begin="zoomminus.mouseover" end="zoomminus.mouseout"/></use>
    <path d="M-4,0h8" fill="none" stroke="white" stroke-width="1.5" pointer-events="none"/>
  </g>
  <g id="arrowUp" transform="translate(30 24)">
    <use xlink:href="#rim"/>
    <path pointer-events="none" fill="none" stroke="white" stroke-width="1.5" d="M0,-3.0v7 M-2.5,-0.5L0,-3.0L2.5,-0.5"/>
  </g>
  <g id="arrowRight" transform="rotate(90) translate(36 -43)">
    <use xlink:href="#rim"/>
    <path pointer-events="none" fill="none" stroke="white" stroke-width="1.5" d="M0,-3.0v7 M-2.5,-0.5L0,-3.0L2.5,-0.5"/>
  </g>
  <g id="arrowDown" transform="rotate(180) translate(-30 -48)">
    <use xlink:href="#rim"/>
    <path pointer-events="none" fill="none" stroke="white" stroke-width="1.5" d="M0,-3.0v7 M-2.5,-0.5L0,-3.0L2.5,-0.5"/>
  </g>
  <g id="arrowLeft" transform="rotate(270) translate(-36 17)">
    <use xlink:href="#rim"/>
    <path pointer-events="none" fill="none" stroke="white" stroke-width="1.5" d="M0,-3.0v7 M-2.5,-0.5L0,-3.0L2.5,-0.5"/>
  </g>
  <g id="resetDef">
    <use xlink:href="#rim2" fill="#404040"><set attributeName="fill" to="#808080" begin="reset.mouseover" end="reset.mouseout"/></use>
  </g>
</defs>
<script type="application/ecmascript">
var viewWidth = 1386;
var viewHeight = 210;
var sectionId = 'dynsection-24';
</script>
<script type="application/ecmascript" xlink:href="../../svg.min.js"/>
<svg id="graph" class="graph">
<g id="viewport">
<title>DeckPreviewWidget::refreshBannerCardText</title>
<!-- Node1 -->
<g id="Node000001" class="node">
<title>Node1</title>
<g id="a_Node000001"><a xlink:title=" ">
<polygon fill="#999999" stroke="#666666" points="1378,-137 1250,-137 1250,-107 1378,-107 1378,-137"/>
<text text-anchor="start" x="1258" y="-125" font-family="Helvetica,sans-Serif" font-size="10.00">DeckPreviewWidget::</text>
<text text-anchor="middle" x="1314" y="-114" font-family="Helvetica,sans-Serif" font-size="10.00">refreshBannerCardText</text>
</a>
</g>
</g>
<!-- Node2 -->
<g id="Node000002" class="node">
<title>Node2</title>
<g id="a_Node000002"><a xlink:href="../../d5/d79/classDeckPreviewWidget.html#a91179d7fa3d69494d0b906200104c026" target="_top" xlink:title=" ">
<polygon fill="white" stroke="#666666" points="986,-116 865,-116 865,-86 986,-86 986,-116"/>
<text text-anchor="start" x="873" y="-104" font-family="Helvetica,sans-Serif" font-size="10.00">DeckPreviewWidget::</text>
<text text-anchor="middle" x="925.5" y="-93" font-family="Helvetica,sans-Serif" font-size="10.00">actRenameDeck</text>
</a>
</g>
</g>
<!-- Node1&#45;&gt;Node2 -->
<g id="edge1_Node000001_Node000002" class="edge">
<title>Node1&#45;&gt;Node2</title>
<g id="a_edge1_Node000001_Node000002"><a xlink:title=" ">
<path fill="none" stroke="#63b8ff" d="M1244.4,-118.27C1171.03,-114.29 1055.83,-108.03 986.11,-104.24"/>
<polygon fill="#63b8ff" stroke="#63b8ff" points="1249.61,-118.56 1244.5,-120.53 1247.11,-118.42 1244.62,-118.28 1244.62,-118.28 1244.62,-118.28 1247.11,-118.42 1244.74,-116.04 1249.61,-118.56 1249.61,-118.56"/>
</a>
</g>
</g>
<!-- Node6 -->
<g id="Node000006" class="node">
<title>Node6</title>
<g id="a_Node000006"><a xlink:href="../../d5/d79/classDeckPreviewWidget.html#af5bf9ff623cadb6c1a2ccb0aa2b7ace6" target="_top" xlink:title=" ">
<polygon fill="white" stroke="#666666" points="1191,-159 1070,-159 1070,-129 1191,-129 1191,-159"/>
<text text-anchor="start" x="1078" y="-147" font-family="Helvetica,sans-Serif" font-size="10.00">DeckPreviewWidget::</text>
<text text-anchor="middle" x="1130.5" y="-136" font-family="Helvetica,sans-Serif" font-size="10.00">actRenameFile</text>
</a>
</g>
</g>
<!-- Node1&#45;&gt;Node6 -->
<g id="edge5_Node000001_Node000006" class="edge">
<title>Node1&#45;&gt;Node6</title>
<g id="a_edge5_Node000001_Node000006"><a xlink:title=" ">
<path fill="none" stroke="#63b8ff" d="M1244.38,-130.32C1226.86,-132.44 1208.17,-134.71 1191.14,-136.77"/>
<polygon fill="#63b8ff" stroke="#63b8ff" points="1249.77,-129.66 1245.08,-132.5 1247.29,-129.96 1244.81,-130.27 1244.81,-130.27 1244.81,-130.27 1247.29,-129.96 1244.54,-128.03 1249.77,-129.66 1249.77,-129.66"/>
</a>
</g>
</g>
<!-- Node7 -->
<g id="Node000007" class="node">
<title>Node7</title>
<g id="a_Node000007"><a xlink:href="../../d6/d12/deck__preview__deck__tags__display__widget_8cpp.html#a25f049deda2af7e31c73cf7e4b959b71" target="_top" xlink:title=" ">
<polygon fill="white" stroke="#666666" points="1214,-64.5 1047,-64.5 1047,-45.5 1214,-45.5 1214,-64.5"/>
<text text-anchor="middle" x="1130.5" y="-52.5" font-family="Helvetica,sans-Serif" font-size="10.00">convertFileToCockatriceFormat</text>
</a>
</g>
</g>
<!-- Node1&#45;&gt;Node7 -->
<g id="edge7_Node000001_Node000007" class="edge">
<title>Node1&#45;&gt;Node7</title>
<g id="a_edge7_Node000001_Node000007"><a xlink:title=" ">
<path fill="none" stroke="#63b8ff" d="M1267.22,-105.1C1232.42,-92.25 1185.8,-75.05 1157.25,-64.51"/>
<polygon fill="#63b8ff" stroke="#63b8ff" points="1272.27,-106.96 1266.8,-107.34 1269.92,-106.1 1267.58,-105.23 1267.58,-105.23 1267.58,-105.23 1269.92,-106.1 1268.36,-103.12 1272.27,-106.96 1272.27,-106.96"/>
</a>
</g>
</g>
<!-- Node14 -->
<g id="Node000014" class="node">
<title>Node14</title>
<g id="a_Node000014"><a xlink:href="../../d5/d79/classDeckPreviewWidget.html#a77dd7c09b97677aeca9e0296dbe7c2b8" target="_top" xlink:title=" ">
<polygon fill="white" stroke="#666666" points="782.5,-202 661.5,-202 661.5,-172 782.5,-172 782.5,-202"/>
<text text-anchor="start" x="669.5" y="-190" font-family="Helvetica,sans-Serif" font-size="10.00">DeckPreviewWidget::</text>
<text text-anchor="middle" x="722" y="-179" font-family="Helvetica,sans-Serif" font-size="10.00">initializeUi</text>
</a>
</g>
</g>
<!-- Node1&#45;&gt;Node14 -->
<g id="edge16_Node000001_Node000014" class="edge">
<title>Node1&#45;&gt;Node14</title>
<g id="a_edge16_Node000001_Node000014"><a xlink:title=" ">
<path fill="none" stroke="#63b8ff" d="M1283.26,-139.62C1264.17,-149.95 1238.46,-162.1 1214,-168 1062.04,-204.68 876.04,-198.58 782.6,-192.15"/>
<polygon fill="#63b8ff" stroke="#63b8ff" points="1287.97,-137.03 1284.67,-141.41 1285.77,-138.24 1283.58,-139.44 1283.58,-139.44 1283.58,-139.44 1285.77,-138.24 1282.5,-137.47 1287.97,-137.03 1287.97,-137.03"/>
</a>
</g>
</g>
<!-- Node3 -->
<g id="Node000003" class="node">
<title>Node3</title>
<g id="a_Node000003"><a xlink:href="../../d5/d79/classDeckPreviewWidget.html#ae471e802b65f1b3c387f5094b4d5b547" target="_top" xlink:title=" ">
<polygon fill="white" stroke="#666666" points="584,-138 460,-138 460,-108 584,-108 584,-138"/>
<text text-anchor="start" x="468" y="-126" font-family="Helvetica,sans-Serif" font-size="10.00">DeckPreviewWidget::</text>
<text text-anchor="middle" x="522" y="-115" font-family="Helvetica,sans-Serif" font-size="10.00">createRightClickMenu</text>
</a>
</g>
</g>
<!-- Node2&#45;&gt;Node3 -->
<g id="edge2_Node000002_Node000003" class="edge">
<title>Node2&#45;&gt;Node3</title>
<g id="a_edge2_Node000002_Node000003"><a xlink:title=" ">
<path fill="none" stroke="#63b8ff" d="M859.44,-104.56C783.44,-108.73 658.67,-115.57 584.32,-119.64"/>
<polygon fill="#63b8ff" stroke="#63b8ff" points="864.82,-104.27 859.96,-106.79 862.33,-104.41 859.83,-104.54 859.83,-104.54 859.83,-104.54 862.33,-104.41 859.71,-102.3 864.82,-104.27 864.82,-104.27"/>
</a>
</g>
</g>
<!-- Node4 -->
<g id="Node000004" class="node">
<title>Node4</title>
<g id="a_Node000004"><a xlink:href="../../d5/d79/classDeckPreviewWidget.html#ad22938e2979daa9a1046fc0ec8558d26" target="_top" xlink:title=" ">
<polygon fill="white" stroke="#666666" points="362.5,-159 241.5,-159 241.5,-129 362.5,-129 362.5,-159"/>
<text text-anchor="start" x="249.5" y="-147" font-family="Helvetica,sans-Serif" font-size="10.00">DeckPreviewWidget::</text>
<text text-anchor="middle" x="302" y="-136" font-family="Helvetica,sans-Serif" font-size="10.00">imageClickedEvent</text>
</a>
</g>
</g>
<!-- Node3&#45;&gt;Node4 -->
<g id="edge3_Node000003_Node000004" class="edge">
<title>Node3&#45;&gt;Node4</title>
<g id="a_edge3_Node000003_Node000004"><a xlink:title=" ">
<path fill="none" stroke="#63b8ff" d="M454.95,-129.36C425.65,-132.19 391.42,-135.48 362.87,-138.23"/>
<polygon fill="#63b8ff" stroke="#63b8ff" points="459.98,-128.88 455.22,-131.6 457.5,-129.12 455.01,-129.36 455.01,-129.36 455.01,-129.36 457.5,-129.12 454.79,-127.12 459.98,-128.88 459.98,-128.88"/>
</a>
</g>
</g>
<!-- Node5 -->
<g id="Node000005" class="node">
<title>Node5</title>
<g id="a_Node000005"><a xlink:href="../../d5/d79/classDeckPreviewWidget.html#a35a7717bd6e54482b2394d0eeadfdac1" target="_top" xlink:title=" ">
<polygon fill="white" stroke="#666666" points="142.5,-180 21.5,-180 21.5,-150 142.5,-150 142.5,-180"/>
<text text-anchor="start" x="29.5" y="-168" font-family="Helvetica,sans-Serif" font-size="10.00">DeckPreviewWidget::</text>
<text text-anchor="middle" x="82" y="-157" font-family="Helvetica,sans-Serif" font-size="10.00">DeckPreviewWidget</text>
</a>
</g>
</g>
<!-- Node4&#45;&gt;Node5 -->
<g id="edge4_Node000004_Node000005" class="edge">
<title>Node4&#45;&gt;Node5</title>
<g id="a_edge4_Node000004_Node000005"><a xlink:title=" ">
<path fill="none" stroke="#63b8ff" d="M236.35,-150.23C206.74,-153.08 171.88,-156.44 142.88,-159.23"/>
<polygon fill="#63b8ff" stroke="#63b8ff" points="241.43,-149.74 236.67,-152.46 238.94,-149.98 236.45,-150.22 236.45,-150.22 236.45,-150.22 238.94,-149.98 236.24,-147.98 241.43,-149.74 241.43,-149.74"/>
</a>
</g>
</g>
<!-- Node6&#45;&gt;Node3 -->
<g id="edge6_Node000006_Node000003" class="edge">
<title>Node6&#45;&gt;Node3</title>
<g id="a_edge6_Node000006_Node000003"><a xlink:title=" ">
<path fill="none" stroke="#63b8ff" d="M1064.8,-141.76C947.07,-137.68 699.36,-129.11 584.23,-125.12"/>
<polygon fill="#63b8ff" stroke="#63b8ff" points="1069.96,-141.94 1064.89,-144.01 1067.47,-141.85 1064.97,-141.77 1064.97,-141.77 1064.97,-141.77 1067.47,-141.85 1065.05,-139.52 1069.96,-141.94 1069.96,-141.94"/>
</a>
</g>
</g>
<!-- Node8 -->
<g id="Node000008" class="node">
<title>Node8</title>
<g id="a_Node000008"><a xlink:href="../../d2/d69/classDeckPreviewDeckTagsDisplayWidget.html#a87e73970d39e54733d6dd1d49ec765ca" target="_top" xlink:title=" ">
<polygon fill="white" stroke="#666666" points="1011,-67.5 840,-67.5 840,-26.5 1011,-26.5 1011,-67.5"/>
<text text-anchor="start" x="848" y="-55.5" font-family="Helvetica,sans-Serif" font-size="10.00">DeckPreviewDeckTagsDisplay</text>
<text text-anchor="start" x="848" y="-44.5" font-family="Helvetica,sans-Serif" font-size="10.00">Widget::promptFileConversionIf</text>
<text text-anchor="middle" x="925.5" y="-33.5" font-family="Helvetica,sans-Serif" font-size="10.00">Required</text>
</a>
</g>
</g>
<!-- Node7&#45;&gt;Node8 -->
<g id="edge8_Node000007_Node000008" class="edge">
<title>Node7&#45;&gt;Node8</title>
<g id="a_edge8_Node000007_Node000008"><a xlink:title=" ">
<path fill="none" stroke="#63b8ff" d="M1041.68,-51.54C1031.6,-51.14 1021.34,-50.74 1011.3,-50.34"/>
<polygon fill="#63b8ff" stroke="#63b8ff" points="1046.93,-51.75 1041.85,-53.8 1044.43,-51.65 1041.94,-51.55 1041.94,-51.55 1041.94,-51.55 1044.43,-51.65 1042.02,-49.3 1046.93,-51.75 1046.93,-51.75"/>
</a>
</g>
</g>
<!-- Node9 -->
<g id="Node000009" class="node">
<title>Node9</title>
<g id="a_Node000009"><a xlink:href="../../d2/d69/classDeckPreviewDeckTagsDisplayWidget.html#aefb0d4514fc0cbb4cd47e2a8ffafdec1" target="_top" xlink:title=" ">
<polygon fill="white" stroke="#666666" points="804,-62 640,-62 640,-32 804,-32 804,-62"/>
<text text-anchor="start" x="648" y="-50" font-family="Helvetica,sans-Serif" font-size="10.00">DeckPreviewDeckTagsDisplay</text>
<text text-anchor="middle" x="722" y="-39" font-family="Helvetica,sans-Serif" font-size="10.00">Widget::openTagEditDlg</text>
</a>
</g>
</g>
<!-- Node8&#45;&gt;Node9 -->
<g id="edge9_Node000008_Node000009" class="edge">
<title>Node8&#45;&gt;Node9</title>
<g id="a_edge9_Node000008_Node000009"><a xlink:title=" ">
<path fill="none" stroke="#63b8ff" d="M834.91,-47C824.66,-47 814.26,-47 804.14,-47"/>
<polygon fill="#63b8ff" stroke="#63b8ff" points="839.92,-47 834.92,-49.25 837.42,-47 834.92,-47 834.92,-47 834.92,-47 837.42,-47 834.92,-44.75 839.92,-47 839.92,-47"/>
</a>
</g>
</g>
<!-- Node9&#45;&gt;Node3 -->
<g id="edge10_Node000009_Node000003" class="edge">
<title>Node9&#45;&gt;Node3</title>
<g id="a_edge10_Node000009_Node000003"><a xlink:title=" ">
<path fill="none" stroke="#63b8ff" d="M676.92,-63.92C642.61,-77.09 595.43,-95.2 562.38,-107.89"/>
<polygon fill="#63b8ff" stroke="#63b8ff" points="681.88,-62.02 678.02,-65.91 679.55,-62.91 677.21,-63.81 677.21,-63.81 677.21,-63.81 679.55,-62.91 676.41,-61.71 681.88,-62.02 681.88,-62.02"/>
</a>
</g>
</g>
<!-- Node10 -->
<g id="Node000010" class="node">
<title>Node10</title>
<g id="a_Node000010"><a xlink:href="../../d2/d69/classDeckPreviewDeckTagsDisplayWidget.html#a6bb4596c475998b18dbc28b9b031395d" target="_top" xlink:title=" ">
<polygon fill="white" stroke="#666666" points="604,-62 440,-62 440,-32 604,-32 604,-62"/>
<text text-anchor="start" x="448" y="-50" font-family="Helvetica,sans-Serif" font-size="10.00">DeckPreviewDeckTagsDisplay</text>
<text text-anchor="middle" x="522" y="-39" font-family="Helvetica,sans-Serif" font-size="10.00">Widget::refreshTags</text>
</a>
</g>
</g>
<!-- Node9&#45;&gt;Node10 -->
<g id="edge11_Node000009_Node000010" class="edge">
<title>Node9&#45;&gt;Node10</title>
<g id="a_edge11_Node000009_Node000010"><a xlink:title=" ">
<path fill="none" stroke="#63b8ff" d="M634.64,-47C624.56,-47 614.31,-47 604.3,-47"/>
<polygon fill="#63b8ff" stroke="#63b8ff" points="639.89,-47 634.89,-49.25 637.39,-47 634.89,-47 634.89,-47 634.89,-47 637.39,-47 634.89,-44.75 639.89,-47 639.89,-47"/>
</a>
</g>
</g>
<!-- Node11 -->
<g id="Node000011" class="node">
<title>Node11</title>
<g id="a_Node000011"><a xlink:href="../../d2/d69/classDeckPreviewDeckTagsDisplayWidget.html#adbdcc8632cea85eecff4a0615ec1f686" target="_top" xlink:title=" ">
<polygon fill="white" stroke="#666666" points="404,-110.5 200,-110.5 200,-69.5 404,-69.5 404,-110.5"/>
<text text-anchor="start" x="208" y="-98.5" font-family="Helvetica,sans-Serif" font-size="10.00">DeckPreviewDeckTagsDisplay</text>
<text text-anchor="start" x="208" y="-87.5" font-family="Helvetica,sans-Serif" font-size="10.00">Widget::DeckPreviewDeckTagsDisplay</text>
<text text-anchor="middle" x="302" y="-76.5" font-family="Helvetica,sans-Serif" font-size="10.00">Widget</text>
</a>
</g>
</g>
<!-- Node10&#45;&gt;Node11 -->
<g id="edge12_Node000010_Node000011" class="edge">
<title>Node10&#45;&gt;Node11</title>
<g id="a_edge12_Node000010_Node000011"><a xlink:title=" ">
<path fill="none" stroke="#63b8ff" d="M439.8,-63.02C428.16,-65.31 416.07,-67.7 404.11,-70.06"/>
<polygon fill="#63b8ff" stroke="#63b8ff" points="444.75,-62.04 440.28,-65.21 442.3,-62.52 439.85,-63.01 439.85,-63.01 439.85,-63.01 442.3,-62.52 439.41,-60.8 444.75,-62.04 444.75,-62.04"/>
</a>
</g>
</g>
<!-- Node12 -->
<g id="Node000012" class="node">
<title>Node12</title>
<g id="a_Node000012"><a xlink:href="../../d2/d69/classDeckPreviewDeckTagsDisplayWidget.html#a13d4d74e2ada919d0c7374ea11a0a8a5" target="_top" xlink:title=" ">
<polygon fill="white" stroke="#666666" points="384,-51 220,-51 220,-21 384,-21 384,-51"/>
<text text-anchor="start" x="228" y="-39" font-family="Helvetica,sans-Serif" font-size="10.00">DeckPreviewDeckTagsDisplay</text>
<text text-anchor="middle" x="302" y="-28" font-family="Helvetica,sans-Serif" font-size="10.00">Widget::setTags</text>
</a>
</g>
</g>
<!-- Node10&#45;&gt;Node12 -->
<g id="edge13_Node000010_Node000012" class="edge">
<title>Node10&#45;&gt;Node12</title>
<g id="a_edge13_Node000010_Node000012"><a xlink:title=" ">
<path fill="none" stroke="#63b8ff" d="M434.69,-42.64C418.06,-41.81 400.7,-40.93 384.24,-40.1"/>
<polygon fill="#63b8ff" stroke="#63b8ff" points="439.82,-42.9 434.72,-44.9 437.33,-42.78 434.83,-42.65 434.83,-42.65 434.83,-42.65 437.33,-42.78 434.94,-40.4 439.82,-42.9 439.82,-42.9"/>
</a>
</g>
</g>
<!-- Node13 -->
<g id="Node000013" class="node">
<title>Node13</title>
<g id="a_Node000013"><a xlink:href="../../d2/d69/classDeckPreviewDeckTagsDisplayWidget.html#ac505d0f9b7d86c8f6e73cbd035073438" target="_top" xlink:title=" ">
<polygon fill="white" stroke="#666666" points="164,-30 0,-30 0,0 164,0 164,-30"/>
<text text-anchor="start" x="8" y="-18" font-family="Helvetica,sans-Serif" font-size="10.00">DeckPreviewDeckTagsDisplay</text>
<text text-anchor="middle" x="82" y="-7" font-family="Helvetica,sans-Serif" font-size="10.00">Widget::execTagDialog</text>
</a>
</g>
</g>
<!-- Node12&#45;&gt;Node13 -->
<g id="edge14_Node000012_Node000013" class="edge">
<title>Node12&#45;&gt;Node13</title>
<g id="a_edge14_Node000012_Node000013"><a xlink:title=" ">
<path fill="none" stroke="#63b8ff" d="M214.69,-27.69C198.06,-26.08 180.7,-24.41 164.24,-22.83"/>
<polygon fill="#63b8ff" stroke="#63b8ff" points="219.82,-28.18 214.63,-29.94 217.34,-27.94 214.85,-27.7 214.85,-27.7 214.85,-27.7 217.34,-27.94 215.06,-25.46 219.82,-28.18 219.82,-28.18"/>
</a>
</g>
</g>
<!-- Node13&#45;&gt;Node9 -->
<g id="edge15_Node000013_Node000009" class="edge">
<title>Node13&#45;&gt;Node9</title>
<g id="a_edge15_Node000013_Node000009"><a xlink:title=" ">
<path fill="none" stroke="#63b8ff" d="M169.37,-10.38C273.07,-6.2 452.03,-3.34 604,-23 621.07,-25.21 639.37,-28.51 656.31,-31.96"/>
<polygon fill="#63b8ff" stroke="#63b8ff" points="164.18,-10.59 169.08,-8.14 166.68,-10.49 169.18,-10.39 169.18,-10.39 169.18,-10.39 166.68,-10.49 169.27,-12.63 164.18,-10.59 164.18,-10.59"/>
</a>
</g>
</g>
<!-- Node14&#45;&gt;Node5 -->
<g id="edge17_Node000014_Node000005" class="edge">
<title>Node14&#45;&gt;Node5</title>
<g id="a_edge17_Node000014_Node000005"><a xlink:title=" ">
<path fill="none" stroke="#63b8ff" d="M656.19,-184.77C532.19,-180.49 263.01,-171.21 142.93,-167.07"/>
<polygon fill="#63b8ff" stroke="#63b8ff" points="661.27,-184.94 656.19,-187.02 658.77,-184.85 656.27,-184.77 656.27,-184.77 656.27,-184.77 658.77,-184.85 656.35,-182.52 661.27,-184.94 661.27,-184.94"/>
</a>
</g>
</g>
</g>
</svg>

<g id="navigator" transform="translate(0 0)" fill="#404254">
  <rect fill="#f2f5e9" fill-opacity="0.5" stroke="#606060" stroke-width=".5" x="0" y="0" width="60" height="60"/>
  <use id="zoomplus" xlink:href="#zoomPlus" x="17" y="9" onmousedown="handleZoom(evt,'in')"/>
  <use id="zoomminus" xlink:href="#zoomMin" x="42" y="9" onmousedown="handleZoom(evt,'out')"/>
  <use id="reset" xlink:href="#resetDef" x="30" y="36" onmousedown="handleReset()"/>
   <use id="arrowup" xlink:href="#arrowUp" x="0" y="0" onmousedown="handlePan(0,-1)"/>
  <use id="arrowright" xlink:href="#arrowRight" x="0" y="0" onmousedown="handlePan(1,0)"/>
  <use id="arrowdown" xlink:href="#arrowDown" x="0" y="0" onmousedown="handlePan(0,1)"/>
  <use id="arrowleft" xlink:href="#arrowLeft" x="0" y="0" onmousedown="handlePan(-1,0)"/>
</g>
<svg viewBox="0 0 15 15" width="100%" height="30px" preserveAspectRatio="xMaxYMin meet">
 <g id="arrow_out" transform="scale(0.3 0.3)">
  <a xlink:href="classDeckPreviewWidget_a68f4b1fb69618deaa066384447127cdb_icgraph_org.svg" target="_base">
   <rect id="button" ry="5" rx="5" y="6" x="6" height="38" width="38"
        fill="#f2f5e9" fill-opacity="0.5" stroke="#606060" stroke-width="1.0"/>
   <path id="arrow"
     d="M 11.500037,31.436501 C 11.940474,20.09759 22.043105,11.32322 32.158766,21.979434 L 37.068811,17.246167 C 37.068811,17.246167 37.088388,32 37.088388,32 L 22.160133,31.978069 C 22.160133,31.978069 26.997745,27.140456 26.997745,27.140456 C 18.528582,18.264221 13.291696,25.230495 11.500037,31.436501 z"
     style="fill:#404040;"/>
  </a>
 </g>
</svg>

<style type='text/css'>
<![CDATA[
[data-mouse-over-selected='false'] { opacity: 0.7; }
[data-mouse-over-selected='true']  { opacity: 1.0; }
]]>
</style>
<script type="application/ecmascript"><![CDATA[
document.addEventListener('DOMContentLoaded', (event) => {
  highlightEdges();
  highlightAdjacentNodes();
});
]]></script>
</svg>
