<?xml version="1.0" encoding="UTF-8" standalone="no"?>
<!DOCTYPE svg PUBLIC "-//W3C//DTD SVG 1.1//EN"
 "http://www.w3.org/Graphics/SVG/1.1/DTD/svg11.dtd">
<!-- Generated by graphviz version 2.43.0 (0)
 -->
<!-- Title: DeckPreviewWidget::refreshBannerCardText Pages: 1 -->
<!--zoomable 134 -->

<svg id="main" version="1.1" xmlns="http://www.w3.org/2000/svg" xmlns:xlink="http://www.w3.org/1999/xlink" xml:space="preserve" onload="init(evt)">
<style type="text/css"><![CDATA[
.node, .edge {opacity: 0.7;}
.node.selected, .edge.selected {opacity: 1;}
.edge:hover path { stroke: red; }
.edge:hover polygon { stroke: red; fill: red; }
]]></style>

<defs>
  <circle id="rim" cx="0" cy="0" r="7"/>
  <circle id="rim2" cx="0" cy="0" r="3.5"/>
  <g id="zoomPlus">
    <use xlink:href="#rim" fill="#404040"><set attributeName="fill" to="#808080" begin="zoomplus.mouseover" end="zoomplus.mouseout"/></use>
    <path d="M-4,0h8M0,-4v8" fill="none" stroke="white" stroke-width="1.5" pointer-events="none"/>
  </g>
  <g id="zoomMin">
    <use xlink:href="#rim" fill="#404040"><set attributeName="fill" to="#808080" begin="zoomminus.mouseover" end="zoomminus.mouseout"/></use>
    <path d="M-4,0h8" fill="none" stroke="white" stroke-width="1.5" pointer-events="none"/>
  </g>
  <g id="arrowUp" transform="translate(30 24)">
    <use xlink:href="#rim"/>
    <path pointer-events="none" fill="none" stroke="white" stroke-width="1.5" d="M0,-3.0v7 M-2.5,-0.5L0,-3.0L2.5,-0.5"/>
  </g>
  <g id="arrowRight" transform="rotate(90) translate(36 -43)">
    <use xlink:href="#rim"/>
    <path pointer-events="none" fill="none" stroke="white" stroke-width="1.5" d="M0,-3.0v7 M-2.5,-0.5L0,-3.0L2.5,-0.5"/>
  </g>
  <g id="arrowDown" transform="rotate(180) translate(-30 -48)">
    <use xlink:href="#rim"/>
    <path pointer-events="none" fill="none" stroke="white" stroke-width="1.5" d="M0,-3.0v7 M-2.5,-0.5L0,-3.0L2.5,-0.5"/>
  </g>
  <g id="arrowLeft" transform="rotate(270) translate(-36 17)">
    <use xlink:href="#rim"/>
    <path pointer-events="none" fill="none" stroke="white" stroke-width="1.5" d="M0,-3.0v7 M-2.5,-0.5L0,-3.0L2.5,-0.5"/>
  </g>
  <g id="resetDef">
    <use xlink:href="#rim2" fill="#404040"><set attributeName="fill" to="#808080" begin="reset.mouseover" end="reset.mouseout"/></use>
  </g>
</defs>
<script type="application/ecmascript">
var viewWidth = 557;
var viewHeight = 134;
var sectionId = 'dynsection-22';
</script>
<script type="application/ecmascript" xlink:href="../../svg.min.js"/>
<svg id="graph" class="graph">
<g id="viewport">
<title>DeckPreviewWidget::refreshBannerCardText</title>
<!-- Node1 -->
<g id="Node000001" class="node">
<title>Node1</title>
<g id="a_Node000001"><a xlink:title=" ">
<polygon fill="#999999" stroke="#666666" points="128,-78 0,-78 0,-48 128,-48 128,-78"/>
<text text-anchor="start" x="8" y="-66" font-family="Helvetica,sans-Serif" font-size="10.00">DeckPreviewWidget::</text>
<text text-anchor="middle" x="64" y="-55" font-family="Helvetica,sans-Serif" font-size="10.00">refreshBannerCardText</text>
</a>
</g>
</g>
<!-- Node2 -->
<g id="Node000002" class="node">
<title>Node2</title>
<g id="a_Node000002"><a xlink:href="../../d5/d79/classDeckPreviewWidget.html#a4bbc80e11d9380f738abfa8be90c48bd" target="_top" xlink:title=" ">
<polygon fill="white" stroke="#666666" points="311,-126 190,-126 190,-96 311,-96 311,-126"/>
<text text-anchor="start" x="198" y="-114" font-family="Helvetica,sans-Serif" font-size="10.00">DeckPreviewWidget::</text>
<text text-anchor="middle" x="250.5" y="-103" font-family="Helvetica,sans-Serif" font-size="10.00">getDisplayName</text>
</a>
</g>
</g>
<!-- Node1&#45;&gt;Node2 -->
<g id="edge1_Node000001_Node000002" class="edge">
<title>Node1&#45;&gt;Node2</title>
<g id="a_edge1_Node000001_Node000002"><a xlink:title=" ">
<path fill="none" stroke="#63b8ff" d="M122.87,-78.06C143.22,-83.35 166.18,-89.32 186.9,-94.71"/>
<polygon fill="#63b8ff" stroke="#63b8ff" points="191.83,-96 186.43,-96.92 189.42,-95.37 187,-94.74 187,-94.74 187,-94.74 189.42,-95.37 187.56,-92.56 191.83,-96 191.83,-96"/>
</a>
</g>
</g>
<!-- Node3 -->
<g id="Node000003" class="node">
<title>Node3</title>
<g id="a_Node000003"><a xlink:href="../../d5/d79/classDeckPreviewWidget.html#a13405ad4f8b620824f4325e38106c754" target="_top" xlink:title=" ">
<polygon fill="white" stroke="#666666" points="322,-78 179,-78 179,-48 322,-48 322,-78"/>
<text text-anchor="start" x="187" y="-66" font-family="Helvetica,sans-Serif" font-size="10.00">DeckPreviewWidget::</text>
<text text-anchor="middle" x="250.5" y="-55" font-family="Helvetica,sans-Serif" font-size="10.00">refreshBannerCardToolTip</text>
</a>
</g>
</g>
<!-- Node1&#45;&gt;Node3 -->
<g id="edge2_Node000001_Node000003" class="edge">
<title>Node1&#45;&gt;Node3</title>
<g id="a_edge2_Node000001_Node000003"><a xlink:title=" ">
<path fill="none" stroke="#63b8ff" d="M128.24,-63C142.86,-63 158.56,-63 173.66,-63"/>
<polygon fill="#63b8ff" stroke="#63b8ff" points="178.75,-63 173.75,-65.25 176.25,-63 173.75,-63 173.75,-63 173.75,-63 176.25,-63 173.75,-60.75 178.75,-63 178.75,-63"/>
</a>
</g>
</g>
<!-- Node6 -->
<g id="Node000006" class="node">
<title>Node6</title>
<g id="a_Node000006"><a xlink:href="../../dd/da1/classCardInfoPictureWithTextOverlayWidget.html#aa5de4fae197605d395ed35a0be5e0322" target="_top" xlink:title="Sets the overlay text to be displayed on the card.">
<polygon fill="white" stroke="#666666" points="337,-30 164,-30 164,0 337,0 337,-30"/>
<text text-anchor="start" x="172" y="-18" font-family="Helvetica,sans-Serif" font-size="10.00">CardInfoPictureWithTextOverlay</text>
<text text-anchor="middle" x="250.5" y="-7" font-family="Helvetica,sans-Serif" font-size="10.00">Widget::setOverlayText</text>
</a>
</g>
</g>
<!-- Node1&#45;&gt;Node6 -->
<g id="edge5_Node000001_Node000006" class="edge">
<title>Node1&#45;&gt;Node6</title>
<g id="a_edge5_Node000001_Node000006"><a xlink:title=" ">
<path fill="none" stroke="#63b8ff" d="M122.87,-47.94C143.22,-42.65 166.18,-36.68 186.9,-31.29"/>
<polygon fill="#63b8ff" stroke="#63b8ff" points="191.83,-30 187.56,-33.44 189.42,-30.63 187,-31.26 187,-31.26 187,-31.26 189.42,-30.63 186.43,-29.08 191.83,-30 191.83,-30"/>
</a>
</g>
</g>
<!-- Node4 -->
<g id="Node000004" class="node">
<title>Node4</title>
<g id="a_Node000004"><a xlink:href="../../d7/d92/classVisualDeckStorageQuickSettingsWidget.html#a81c0c8241e208adbe55eabee242ea025" target="_top" xlink:title=" ">
<polygon fill="white" stroke="#666666" points="549,-102 373,-102 373,-72 549,-72 549,-102"/>
<text text-anchor="start" x="381" y="-90" font-family="Helvetica,sans-Serif" font-size="10.00">VisualDeckStorageQuickSettings</text>
<text text-anchor="middle" x="461" y="-79" font-family="Helvetica,sans-Serif" font-size="10.00">Widget::getDeckPreviewTooltip</text>
</a>
</g>
</g>
<!-- Node3&#45;&gt;Node4 -->
<g id="edge3_Node000003_Node000004" class="edge">
<title>Node3&#45;&gt;Node4</title>
<g id="a_edge3_Node000003_Node000004"><a xlink:title=" ">
<path fill="none" stroke="#63b8ff" d="M322.09,-71.13C336.74,-72.81 352.38,-74.61 367.67,-76.37"/>
<polygon fill="#63b8ff" stroke="#63b8ff" points="372.84,-76.97 367.62,-78.63 370.36,-76.68 367.87,-76.4 367.87,-76.4 367.87,-76.4 370.36,-76.68 368.13,-74.16 372.84,-76.97 372.84,-76.97"/>
</a>
</g>
</g>
<!-- Node5 -->
<g id="Node000005" class="node">
<title>Node5</title>
<g id="a_Node000005"><a xlink:href="../../d0/dfe/classVisualDeckStorageWidget.html#a19703518046b9fed4081e8e432999200" target="_top" xlink:title=" ">
<polygon fill="white" stroke="#666666" points="532.5,-54 389.5,-54 389.5,-24 532.5,-24 532.5,-54"/>
<text text-anchor="start" x="397.5" y="-42" font-family="Helvetica,sans-Serif" font-size="10.00">VisualDeckStorageWidget</text>
<text text-anchor="middle" x="461" y="-31" font-family="Helvetica,sans-Serif" font-size="10.00">::settings</text>
</a>
</g>
</g>
<!-- Node3&#45;&gt;Node5 -->
<g id="edge4_Node000003_Node000005" class="edge">
<title>Node3&#45;&gt;Node5</title>
<g id="a_edge4_Node000003_Node000005"><a xlink:title=" ">
<path fill="none" stroke="#63b8ff" d="M322.09,-54.87C342.13,-52.57 364.03,-50.05 384.35,-47.71"/>
<polygon fill="#63b8ff" stroke="#63b8ff" points="389.48,-47.12 384.77,-49.92 387,-47.4 384.52,-47.69 384.52,-47.69 384.52,-47.69 387,-47.4 384.26,-45.45 389.48,-47.12 389.48,-47.12"/>
</a>
</g>
</g>
</g>
</svg>

<g id="navigator" transform="translate(0 0)" fill="#404254">
  <rect fill="#f2f5e9" fill-opacity="0.5" stroke="#606060" stroke-width=".5" x="0" y="0" width="60" height="60"/>
  <use id="zoomplus" xlink:href="#zoomPlus" x="17" y="9" onmousedown="handleZoom(evt,'in')"/>
  <use id="zoomminus" xlink:href="#zoomMin" x="42" y="9" onmousedown="handleZoom(evt,'out')"/>
  <use id="reset" xlink:href="#resetDef" x="30" y="36" onmousedown="handleReset()"/>
   <use id="arrowup" xlink:href="#arrowUp" x="0" y="0" onmousedown="handlePan(0,-1)"/>
  <use id="arrowright" xlink:href="#arrowRight" x="0" y="0" onmousedown="handlePan(1,0)"/>
  <use id="arrowdown" xlink:href="#arrowDown" x="0" y="0" onmousedown="handlePan(0,1)"/>
  <use id="arrowleft" xlink:href="#arrowLeft" x="0" y="0" onmousedown="handlePan(-1,0)"/>
</g>
<svg viewBox="0 0 15 15" width="100%" height="30px" preserveAspectRatio="xMaxYMin meet">
 <g id="arrow_out" transform="scale(0.3 0.3)">
  <a xlink:href="classDeckPreviewWidget_a68f4b1fb69618deaa066384447127cdb_cgraph_org.svg" target="_base">
   <rect id="button" ry="5" rx="5" y="6" x="6" height="38" width="38"
        fill="#f2f5e9" fill-opacity="0.5" stroke="#606060" stroke-width="1.0"/>
   <path id="arrow"
     d="M 11.500037,31.436501 C 11.940474,20.09759 22.043105,11.32322 32.158766,21.979434 L 37.068811,17.246167 C 37.068811,17.246167 37.088388,32 37.088388,32 L 22.160133,31.978069 C 22.160133,31.978069 26.997745,27.140456 26.997745,27.140456 C 18.528582,18.264221 13.291696,25.230495 11.500037,31.436501 z"
     style="fill:#404040;"/>
  </a>
 </g>
</svg>

<style type='text/css'>
<![CDATA[
[data-mouse-over-selected='false'] { opacity: 0.7; }
[data-mouse-over-selected='true']  { opacity: 1.0; }
]]>
</style>
<script type="application/ecmascript"><![CDATA[
document.addEventListener('DOMContentLoaded', (event) => {
  highlightEdges();
  highlightAdjacentNodes();
});
]]></script>
</svg>
