<?xml version="1.0" encoding="UTF-8" standalone="no"?>
<!DOCTYPE svg PUBLIC "-//W3C//DTD SVG 1.1//EN"
 "http://www.w3.org/Graphics/SVG/1.1/DTD/svg11.dtd">
<!-- Generated by graphviz version 2.43.0 (0)
 -->
<!-- Title: GameView::resizeEvent Pages: 1 -->
<svg width="724pt" height="172pt"
 viewBox="0.00 0.00 724.00 172.00" xmlns="http://www.w3.org/2000/svg" xmlns:xlink="http://www.w3.org/1999/xlink">
<g id="graph0" class="graph" transform="scale(1 1) rotate(0) translate(4 168)">
<title>GameView::resizeEvent</title>
<!-- Node1 -->
<g id="Node000001" class="node">
<title>Node1</title>
<g id="a_Node000001"><a xlink:title=" ">
<polygon fill="#999999" stroke="#666666" points="132,-66.5 0,-66.5 0,-47.5 132,-47.5 132,-66.5"/>
<text text-anchor="middle" x="66" y="-54.5" font-family="Helvetica,sans-Serif" font-size="10.00">GameView::resizeEvent</text>
</a>
</g>
</g>
<!-- Node2 -->
<g id="Node000002" class="node">
<title>Node2</title>
<g id="a_Node000002"><a xlink:href="../../db/d9f/classGameScene.html#aa829f63c3bc81884dc30cc7fbe250810" target="_top" xlink:title="Handles view resize and redistributes player positions.">
<polygon fill="white" stroke="#666666" points="331,-94 168,-94 168,-64 331,-64 331,-94"/>
<text text-anchor="start" x="176" y="-82" font-family="Helvetica,sans-Serif" font-size="10.00">GameScene::processViewSize</text>
<text text-anchor="middle" x="249.5" y="-71" font-family="Helvetica,sans-Serif" font-size="10.00">Change</text>
</a>
</g>
</g>
<!-- Node1&#45;&gt;Node2 -->
<g id="edge1_Node000001_Node000002" class="edge">
<title>Node1&#45;&gt;Node2</title>
<g id="a_edge1_Node000001_Node000002"><a xlink:title=" ">
<path fill="none" stroke="#63b8ff" d="M132.01,-64.88C141.98,-66.09 152.39,-67.35 162.73,-68.6"/>
<polygon fill="#63b8ff" stroke="#63b8ff" points="167.79,-69.22 162.55,-70.85 165.31,-68.92 162.82,-68.61 162.82,-68.61 162.82,-68.61 165.31,-68.92 163.09,-66.38 167.79,-69.22 167.79,-69.22"/>
</a>
</g>
</g>
<!-- Node7 -->
<g id="Node000007" class="node">
<title>Node7</title>
<g id="a_Node000007"><a xlink:href="../../dd/d97/classGameView.html#a7a8b3d8514ef1dead88da3f87e65432e" target="_top" xlink:title=" ">
<polygon fill="white" stroke="#666666" points="329.5,-45.5 169.5,-45.5 169.5,-26.5 329.5,-26.5 329.5,-45.5"/>
<text text-anchor="middle" x="249.5" y="-33.5" font-family="Helvetica,sans-Serif" font-size="10.00">GameView::updateSceneRect</text>
</a>
</g>
</g>
<!-- Node1&#45;&gt;Node7 -->
<g id="edge7_Node000001_Node000007" class="edge">
<title>Node1&#45;&gt;Node7</title>
<g id="a_edge7_Node000001_Node000007"><a xlink:title=" ">
<path fill="none" stroke="#63b8ff" d="M132.01,-49.48C142.51,-48.26 153.51,-46.99 164.38,-45.73"/>
<polygon fill="#63b8ff" stroke="#63b8ff" points="169.36,-45.16 164.65,-47.97 166.88,-45.44 164.39,-45.73 164.39,-45.73 164.39,-45.73 166.88,-45.44 164.14,-43.5 169.36,-45.16 169.36,-45.16"/>
</a>
</g>
</g>
<!-- Node3 -->
<g id="Node000003" class="node">
<title>Node3</title>
<g id="a_Node000003"><a xlink:href="../../db/d9f/classGameScene.html#a37e5c4d83535a643a98012b072723d65" target="_top" xlink:title="Computes the minimum width for each column based on player minimum widths.">
<polygon fill="white" stroke="#666666" points="541,-164 369,-164 369,-134 541,-134 541,-164"/>
<text text-anchor="start" x="377" y="-152" font-family="Helvetica,sans-Serif" font-size="10.00">GameScene::calculateMinWidth</text>
<text text-anchor="middle" x="455" y="-141" font-family="Helvetica,sans-Serif" font-size="10.00">ByColumn</text>
</a>
</g>
</g>
<!-- Node2&#45;&gt;Node3 -->
<g id="edge2_Node000002_Node000003" class="edge">
<title>Node2&#45;&gt;Node3</title>
<g id="a_edge2_Node000002_Node000003"><a xlink:title=" ">
<path fill="none" stroke="#63b8ff" d="M285.83,-94.09C308.74,-103.59 339.36,-115.76 367,-125 374.75,-127.59 382.96,-130.12 391.11,-132.51"/>
<polygon fill="#63b8ff" stroke="#63b8ff" points="396.18,-133.98 390.75,-134.75 393.78,-133.29 391.37,-132.59 391.37,-132.59 391.37,-132.59 393.78,-133.29 392,-130.43 396.18,-133.98 396.18,-133.98"/>
</a>
</g>
</g>
<!-- Node4 -->
<g id="Node000004" class="node">
<title>Node4</title>
<g id="a_Node000004"><a xlink:href="../../db/d9f/classGameScene.html#a094a33ef9f70a4c8c056e5e39cb5c79a" target="_top" xlink:title="Calculates new scene width considering window aspect ratio.">
<polygon fill="white" stroke="#666666" points="543,-116 367,-116 367,-86 543,-86 543,-116"/>
<text text-anchor="start" x="375" y="-104" font-family="Helvetica,sans-Serif" font-size="10.00">GameScene::calculateNewScene</text>
<text text-anchor="middle" x="455" y="-93" font-family="Helvetica,sans-Serif" font-size="10.00">Width</text>
</a>
</g>
</g>
<!-- Node2&#45;&gt;Node4 -->
<g id="edge3_Node000002_Node000004" class="edge">
<title>Node2&#45;&gt;Node4</title>
<g id="a_edge3_Node000002_Node000004"><a xlink:title=" ">
<path fill="none" stroke="#63b8ff" d="M331.22,-87.73C341.23,-88.81 351.53,-89.92 361.7,-91.02"/>
<polygon fill="#63b8ff" stroke="#63b8ff" points="366.68,-91.56 361.47,-93.26 364.2,-91.29 361.71,-91.02 361.71,-91.02 361.71,-91.02 364.2,-91.29 361.95,-88.79 366.68,-91.56 366.68,-91.56"/>
</a>
</g>
</g>
<!-- Node5 -->
<g id="Node000005" class="node">
<title>Node5</title>
<g id="a_Node000005"><a xlink:href="../../d7/d23/classPhasesToolbar.html#a9884b764b4d71fc32f4c986d26ed69da" target="_top" xlink:title=" ">
<polygon fill="white" stroke="#666666" points="716,-45.5 579,-45.5 579,-26.5 716,-26.5 716,-45.5"/>
<text text-anchor="middle" x="647.5" y="-33.5" font-family="Helvetica,sans-Serif" font-size="10.00">PhasesToolbar::getWidth</text>
</a>
</g>
</g>
<!-- Node2&#45;&gt;Node5 -->
<g id="edge4_Node000002_Node000005" class="edge">
<title>Node2&#45;&gt;Node5</title>
<g id="a_edge4_Node000002_Node000005"><a xlink:title=" ">
<path fill="none" stroke="#63b8ff" d="M331.11,-70.25C402.19,-62.53 504.86,-51.38 573.54,-43.92"/>
<polygon fill="#63b8ff" stroke="#63b8ff" points="578.84,-43.35 574.11,-46.12 576.36,-43.62 573.87,-43.89 573.87,-43.89 573.87,-43.89 576.36,-43.62 573.63,-41.65 578.84,-43.35 578.84,-43.35"/>
</a>
</g>
</g>
<!-- Node6 -->
<g id="Node000006" class="node">
<title>Node6</title>
<g id="a_Node000006"><a xlink:href="../../db/d9f/classGameScene.html#acc71fd2029d4ac911844db7ad929d50c" target="_top" xlink:title="Resizes columns and distributes extra width to players.">
<polygon fill="white" stroke="#666666" points="531.5,-30 378.5,-30 378.5,0 531.5,0 531.5,-30"/>
<text text-anchor="start" x="386.5" y="-18" font-family="Helvetica,sans-Serif" font-size="10.00">GameScene::resizeColumns</text>
<text text-anchor="middle" x="455" y="-7" font-family="Helvetica,sans-Serif" font-size="10.00">AndPlayers</text>
</a>
</g>
</g>
<!-- Node2&#45;&gt;Node6 -->
<g id="edge5_Node000002_Node000006" class="edge">
<title>Node2&#45;&gt;Node6</title>
<g id="a_edge5_Node000002_Node000006"><a xlink:title=" ">
<path fill="none" stroke="#63b8ff" d="M299.04,-63.98C309.58,-60.7 320.67,-57.24 331,-54 354.25,-46.7 379.95,-38.57 401.82,-31.62"/>
<polygon fill="#63b8ff" stroke="#63b8ff" points="406.71,-30.07 402.63,-33.72 404.33,-30.82 401.94,-31.58 401.94,-31.58 401.94,-31.58 404.33,-30.82 401.26,-29.44 406.71,-30.07 406.71,-30.07"/>
</a>
</g>
</g>
<!-- Node6&#45;&gt;Node5 -->
<g id="edge6_Node000006_Node000005" class="edge">
<title>Node6&#45;&gt;Node5</title>
<g id="a_edge6_Node000006_Node000005"><a xlink:title=" ">
<path fill="none" stroke="#63b8ff" d="M531.56,-23.33C545.44,-24.86 559.9,-26.45 573.7,-27.97"/>
<polygon fill="#63b8ff" stroke="#63b8ff" points="578.75,-28.53 573.53,-30.22 576.26,-28.26 573.78,-27.98 573.78,-27.98 573.78,-27.98 576.26,-28.26 574.02,-25.75 578.75,-28.53 578.75,-28.53"/>
</a>
</g>
</g>
</g>
</svg>
