<?xml version="1.0" encoding="UTF-8" standalone="no"?>
<!DOCTYPE svg PUBLIC "-//W3C//DTD SVG 1.1//EN"
 "http://www.w3.org/Graphics/SVG/1.1/DTD/svg11.dtd">
<!-- Generated by graphviz version 2.43.0 (0)
 -->
<!-- Title: GameView::updateSceneRect Pages: 1 -->
<svg width="336pt" height="64pt"
 viewBox="0.00 0.00 336.00 64.00" xmlns="http://www.w3.org/2000/svg" xmlns:xlink="http://www.w3.org/1999/xlink">
<g id="graph0" class="graph" transform="scale(1 1) rotate(0) translate(4 60)">
<title>GameView::updateSceneRect</title>
<!-- Node1 -->
<g id="Node000001" class="node">
<title>Node1</title>
<g id="a_Node000001"><a xlink:title=" ">
<polygon fill="#999999" stroke="#666666" points="328,-37 168,-37 168,-18 328,-18 328,-37"/>
<text text-anchor="middle" x="248" y="-25" font-family="Helvetica,sans-Serif" font-size="10.00">GameView::updateSceneRect</text>
</a>
</g>
</g>
<!-- Node2 -->
<g id="Node000002" class="node">
<title>Node2</title>
<g id="a_Node000002"><a xlink:href="../../dd/d97/classGameView.html#a82f3ed2d63604bba9e864feaeb40257a" target="_top" xlink:title=" ">
<polygon fill="white" stroke="#666666" points="130,-56 2,-56 2,-37 130,-37 130,-56"/>
<text text-anchor="middle" x="66" y="-44" font-family="Helvetica,sans-Serif" font-size="10.00">GameView::GameView</text>
</a>
</g>
</g>
<!-- Node1&#45;&gt;Node2 -->
<g id="edge1_Node000001_Node000002" class="edge">
<title>Node1&#45;&gt;Node2</title>
<g id="a_edge1_Node000001_Node000002"><a xlink:title=" ">
<path fill="none" stroke="#63b8ff" d="M162.74,-36.39C151.73,-37.56 140.6,-38.73 130.02,-39.85"/>
<polygon fill="#63b8ff" stroke="#63b8ff" points="167.79,-35.86 163.05,-38.62 165.3,-36.12 162.82,-36.39 162.82,-36.39 162.82,-36.39 165.3,-36.12 162.58,-34.15 167.79,-35.86 167.79,-35.86"/>
</a>
</g>
</g>
<!-- Node3 -->
<g id="Node000003" class="node">
<title>Node3</title>
<g id="a_Node000003"><a xlink:href="../../dd/d97/classGameView.html#abe5a1c8430b6b874b107dcfd9ce892eb" target="_top" xlink:title=" ">
<polygon fill="white" stroke="#666666" points="132,-19 0,-19 0,0 132,0 132,-19"/>
<text text-anchor="middle" x="66" y="-7" font-family="Helvetica,sans-Serif" font-size="10.00">GameView::resizeEvent</text>
</a>
</g>
</g>
<!-- Node1&#45;&gt;Node3 -->
<g id="edge2_Node000001_Node000003" class="edge">
<title>Node1&#45;&gt;Node3</title>
<g id="a_edge2_Node000001_Node000003"><a xlink:title=" ">
<path fill="none" stroke="#63b8ff" d="M162.76,-19.08C152.5,-18.05 142.14,-17.01 132.22,-16.02"/>
<polygon fill="#63b8ff" stroke="#63b8ff" points="167.79,-19.58 162.59,-21.32 165.3,-19.33 162.81,-19.08 162.81,-19.08 162.81,-19.08 165.3,-19.33 163.04,-16.84 167.79,-19.58 167.79,-19.58"/>
</a>
</g>
</g>
</g>
</svg>
