<?xml version="1.0" encoding="UTF-8" standalone="no"?>
<!DOCTYPE svg PUBLIC "-//W3C//DTD SVG 1.1//EN"
 "http://www.w3.org/Graphics/SVG/1.1/DTD/svg11.dtd">
<!-- Generated by graphviz version 2.43.0 (0)
 -->
<!-- Title: SettingsManager::SettingsManager Pages: 1 -->
<svg width="555pt" height="460pt"
 viewBox="0.00 0.00 555.00 460.00" xmlns="http://www.w3.org/2000/svg" xmlns:xlink="http://www.w3.org/1999/xlink">
<g id="graph0" class="graph" transform="scale(1 1) rotate(0) translate(4 456)">
<title>SettingsManager::SettingsManager</title>
<!-- Node1 -->
<g id="Node000001" class="node">
<title>Node1</title>
<g id="a_Node000001"><a xlink:title=" ">
<polygon fill="#999999" stroke="#666666" points="547,-246 402,-246 402,-216 547,-216 547,-246"/>
<text text-anchor="start" x="410" y="-234" font-family="Helvetica,sans-Serif" font-size="10.00">SettingsManager::Settings</text>
<text text-anchor="middle" x="474.5" y="-223" font-family="Helvetica,sans-Serif" font-size="10.00">Manager</text>
</a>
</g>
</g>
<!-- Node2 -->
<g id="Node000002" class="node">
<title>Node2</title>
<g id="a_Node000002"><a xlink:href="../../d3/d14/classCardCounterSettings.html#a08d1e6693d287d3ae0103cfe8e460097" target="_top" xlink:title=" ">
<polygon fill="white" stroke="#666666" points="345,-452 222,-452 222,-422 345,-422 345,-452"/>
<text text-anchor="start" x="230" y="-440" font-family="Helvetica,sans-Serif" font-size="10.00">CardCounterSettings</text>
<text text-anchor="middle" x="283.5" y="-429" font-family="Helvetica,sans-Serif" font-size="10.00">::CardCounterSettings</text>
</a>
</g>
</g>
<!-- Node1&#45;&gt;Node2 -->
<g id="edge1_Node000001_Node000002" class="edge">
<title>Node1&#45;&gt;Node2</title>
<g id="a_edge1_Node000001_Node000002"><a xlink:title=" ">
<path fill="none" stroke="#63b8ff" d="M467.29,-250.83C454.55,-288.27 421.83,-369.51 366,-413 359.83,-417.8 352.73,-421.65 345.33,-424.72"/>
<polygon fill="#63b8ff" stroke="#63b8ff" points="468.89,-246.06 469.44,-251.51 468.1,-248.43 467.3,-250.8 467.3,-250.8 467.3,-250.8 468.1,-248.43 465.17,-250.08 468.89,-246.06 468.89,-246.06"/>
</a>
</g>
</g>
<!-- Node3 -->
<g id="Node000003" class="node">
<title>Node3</title>
<g id="a_Node000003"><a xlink:href="../../de/dbe/classCardDatabaseSettings.html#a19bd88c51ef167d07c6cb7e7d87b93e0" target="_top" xlink:title=" ">
<polygon fill="white" stroke="#666666" points="349,-404 218,-404 218,-374 349,-374 349,-404"/>
<text text-anchor="start" x="226" y="-392" font-family="Helvetica,sans-Serif" font-size="10.00">CardDatabaseSettings</text>
<text text-anchor="middle" x="283.5" y="-381" font-family="Helvetica,sans-Serif" font-size="10.00">::CardDatabaseSettings</text>
</a>
</g>
</g>
<!-- Node1&#45;&gt;Node3 -->
<g id="edge2_Node000001_Node000003" class="edge">
<title>Node1&#45;&gt;Node3</title>
<g id="a_edge2_Node000001_Node000003"><a xlink:title=" ">
<path fill="none" stroke="#63b8ff" d="M462.86,-250.88C446.13,-280.22 410.92,-334.89 366,-365 360.85,-368.45 355.2,-371.41 349.35,-373.96"/>
<polygon fill="#63b8ff" stroke="#63b8ff" points="465.38,-246.39 464.89,-251.86 464.15,-248.57 462.93,-250.75 462.93,-250.75 462.93,-250.75 464.15,-248.57 460.97,-249.65 465.38,-246.39 465.38,-246.39"/>
</a>
</g>
</g>
<!-- Node4 -->
<g id="Node000004" class="node">
<title>Node4</title>
<g id="a_Node000004"><a xlink:href="../../d8/d12/classCardOverrideSettings.html#a3f735dcca743647e3758d33710788578" target="_top" xlink:title=" ">
<polygon fill="white" stroke="#666666" points="347,-356 220,-356 220,-326 347,-326 347,-356"/>
<text text-anchor="start" x="228" y="-344" font-family="Helvetica,sans-Serif" font-size="10.00">CardOverrideSettings</text>
<text text-anchor="middle" x="283.5" y="-333" font-family="Helvetica,sans-Serif" font-size="10.00">::CardOverrideSettings</text>
</a>
</g>
</g>
<!-- Node1&#45;&gt;Node4 -->
<g id="edge3_Node000001_Node000004" class="edge">
<title>Node1&#45;&gt;Node4</title>
<g id="a_edge3_Node000001_Node000004"><a xlink:title=" ">
<path fill="none" stroke="#63b8ff" d="M454.62,-249.96C434.34,-269.35 400.37,-299.08 366,-317 359.59,-320.34 352.65,-323.28 345.61,-325.85"/>
<polygon fill="#63b8ff" stroke="#63b8ff" points="458.49,-246.23 456.45,-251.32 456.69,-247.97 454.89,-249.7 454.89,-249.7 454.89,-249.7 456.69,-247.97 453.33,-248.08 458.49,-246.23 458.49,-246.23"/>
</a>
</g>
</g>
<!-- Node6 -->
<g id="Node000006" class="node">
<title>Node6</title>
<g id="a_Node000006"><a xlink:href="../../d9/d00/classDebugSettings.html#a2cebc90e8450f938d237c6cc5f27582c" target="_top" xlink:title=" ">
<polygon fill="white" stroke="#666666" points="366,-307.5 201,-307.5 201,-288.5 366,-288.5 366,-307.5"/>
<text text-anchor="middle" x="283.5" y="-295.5" font-family="Helvetica,sans-Serif" font-size="10.00">DebugSettings::DebugSettings</text>
</a>
</g>
</g>
<!-- Node1&#45;&gt;Node6 -->
<g id="edge5_Node000001_Node000006" class="edge">
<title>Node1&#45;&gt;Node6</title>
<g id="a_edge5_Node000001_Node000006"><a xlink:title=" ">
<path fill="none" stroke="#63b8ff" d="M439.39,-248.24C418.58,-258.25 391.21,-270.52 366,-279 355.26,-282.61 343.5,-285.79 332.33,-288.46"/>
<polygon fill="#63b8ff" stroke="#63b8ff" points="443.99,-246.02 440.47,-250.22 441.74,-247.1 439.49,-248.19 439.49,-248.19 439.49,-248.19 441.74,-247.1 438.51,-246.17 443.99,-246.02 443.99,-246.02"/>
</a>
</g>
</g>
<!-- Node8 -->
<g id="Node000008" class="node">
<title>Node8</title>
<g id="a_Node000008"><a xlink:href="../../d4/d14/classDownloadSettings.html#a30e1f21f83acb88d0ee03c5e084f5f01" target="_top" xlink:title=" ">
<polygon fill="white" stroke="#666666" points="363.5,-270 203.5,-270 203.5,-240 363.5,-240 363.5,-270"/>
<text text-anchor="start" x="211.5" y="-258" font-family="Helvetica,sans-Serif" font-size="10.00">DownloadSettings::Download</text>
<text text-anchor="middle" x="283.5" y="-247" font-family="Helvetica,sans-Serif" font-size="10.00">Settings</text>
</a>
</g>
</g>
<!-- Node1&#45;&gt;Node8 -->
<g id="edge7_Node000001_Node000008" class="edge">
<title>Node1&#45;&gt;Node8</title>
<g id="a_edge7_Node000001_Node000008"><a xlink:title=" ">
<path fill="none" stroke="#63b8ff" d="M396.8,-240.74C385.91,-242.12 374.69,-243.55 363.75,-244.94"/>
<polygon fill="#63b8ff" stroke="#63b8ff" points="401.78,-240.11 397.1,-242.97 399.3,-240.42 396.82,-240.74 396.82,-240.74 396.82,-240.74 399.3,-240.42 396.53,-238.51 401.78,-240.11 401.78,-240.11"/>
</a>
</g>
</g>
<!-- Node9 -->
<g id="Node000009" class="node">
<title>Node9</title>
<g id="a_Node000009"><a xlink:href="../../df/dd0/classGameFiltersSettings.html#a050344a965ac129f839d3fba53d2e983" target="_top" xlink:title=" ">
<polygon fill="white" stroke="#666666" points="344.5,-222 222.5,-222 222.5,-192 344.5,-192 344.5,-222"/>
<text text-anchor="start" x="230.5" y="-210" font-family="Helvetica,sans-Serif" font-size="10.00">GameFiltersSettings</text>
<text text-anchor="middle" x="283.5" y="-199" font-family="Helvetica,sans-Serif" font-size="10.00">::GameFiltersSettings</text>
</a>
</g>
</g>
<!-- Node1&#45;&gt;Node9 -->
<g id="edge8_Node000001_Node000009" class="edge">
<title>Node1&#45;&gt;Node9</title>
<g id="a_edge8_Node000001_Node000009"><a xlink:title=" ">
<path fill="none" stroke="#63b8ff" d="M396.46,-221.22C379.23,-219.03 361.21,-216.74 344.77,-214.65"/>
<polygon fill="#63b8ff" stroke="#63b8ff" points="401.78,-221.89 396.53,-223.49 399.3,-221.58 396.82,-221.26 396.82,-221.26 396.82,-221.26 399.3,-221.58 397.1,-219.03 401.78,-221.89 401.78,-221.89"/>
</a>
</g>
</g>
<!-- Node11 -->
<g id="Node000011" class="node">
<title>Node11</title>
<g id="a_Node000011"><a xlink:href="../../d3/d58/classLayoutsSettings.html#a10e9337fd533bd29dc8758711133dec6" target="_top" xlink:title=" ">
<polygon fill="white" stroke="#666666" points="353,-174 214,-174 214,-144 353,-144 353,-174"/>
<text text-anchor="start" x="222" y="-162" font-family="Helvetica,sans-Serif" font-size="10.00">LayoutsSettings::Layouts</text>
<text text-anchor="middle" x="283.5" y="-151" font-family="Helvetica,sans-Serif" font-size="10.00">Settings</text>
</a>
</g>
</g>
<!-- Node1&#45;&gt;Node11 -->
<g id="edge10_Node000001_Node000011" class="edge">
<title>Node1&#45;&gt;Node11</title>
<g id="a_edge10_Node000001_Node000011"><a xlink:title=" ">
<path fill="none" stroke="#63b8ff" d="M437.85,-213.64C417.16,-203.93 390.43,-192 366,-183 357.42,-179.84 348.21,-176.8 339.19,-174.01"/>
<polygon fill="#63b8ff" stroke="#63b8ff" points="442.44,-215.81 436.96,-215.71 440.18,-214.74 437.92,-213.67 437.92,-213.67 437.92,-213.67 440.18,-214.74 438.88,-211.64 442.44,-215.81 442.44,-215.81"/>
</a>
</g>
</g>
<!-- Node13 -->
<g id="Node000013" class="node">
<title>Node13</title>
<g id="a_Node000013"><a xlink:href="../../d3/dc1/classMessageSettings.html#ae2f1a23d9684192661188d3e14d4859a" target="_top" xlink:title=" ">
<polygon fill="white" stroke="#666666" points="358,-126 209,-126 209,-96 358,-96 358,-126"/>
<text text-anchor="start" x="217" y="-114" font-family="Helvetica,sans-Serif" font-size="10.00">MessageSettings::Message</text>
<text text-anchor="middle" x="283.5" y="-103" font-family="Helvetica,sans-Serif" font-size="10.00">Settings</text>
</a>
</g>
</g>
<!-- Node1&#45;&gt;Node13 -->
<g id="edge12_Node000001_Node000013" class="edge">
<title>Node1&#45;&gt;Node13</title>
<g id="a_edge12_Node000001_Node000013"><a xlink:title=" ">
<path fill="none" stroke="#63b8ff" d="M457,-211.85C437.37,-190.21 402.64,-155.38 366,-135 359.94,-131.63 353.36,-128.69 346.65,-126.13"/>
<polygon fill="#63b8ff" stroke="#63b8ff" points="460.48,-215.72 455.47,-213.51 458.81,-213.87 457.14,-212.01 457.14,-212.01 457.14,-212.01 458.81,-213.87 458.81,-210.5 460.48,-215.72 460.48,-215.72"/>
</a>
</g>
</g>
<!-- Node15 -->
<g id="Node000015" class="node">
<title>Node15</title>
<g id="a_Node000015"><a xlink:href="../../d3/db5/classRecentsSettings.html#af90cfe0dc7a2dd4ff84ff5876078e250" target="_top" xlink:title=" ">
<polygon fill="white" stroke="#666666" points="353.5,-78 213.5,-78 213.5,-48 353.5,-48 353.5,-78"/>
<text text-anchor="start" x="221.5" y="-66" font-family="Helvetica,sans-Serif" font-size="10.00">RecentsSettings::Recents</text>
<text text-anchor="middle" x="283.5" y="-55" font-family="Helvetica,sans-Serif" font-size="10.00">Settings</text>
</a>
</g>
</g>
<!-- Node1&#45;&gt;Node15 -->
<g id="edge14_Node000001_Node000015" class="edge">
<title>Node1&#45;&gt;Node15</title>
<g id="a_edge14_Node000001_Node000015"><a xlink:title=" ">
<path fill="none" stroke="#63b8ff" d="M463.99,-211.09C448.1,-179.93 413.16,-119.82 366,-87 361.04,-83.55 355.57,-80.58 349.89,-78.04"/>
<polygon fill="#63b8ff" stroke="#63b8ff" points="466.38,-215.84 462.12,-212.38 465.26,-213.6 464.13,-211.37 464.13,-211.37 464.13,-211.37 465.26,-213.6 466.14,-210.36 466.38,-215.84 466.38,-215.84"/>
</a>
</g>
</g>
<!-- Node17 -->
<g id="Node000017" class="node">
<title>Node17</title>
<g id="a_Node000017"><a xlink:href="../../df/db1/classServersSettings.html#af046182c285b59005158b0b4a5943393" target="_top" xlink:title=" ">
<polygon fill="white" stroke="#666666" points="351.5,-30 215.5,-30 215.5,0 351.5,0 351.5,-30"/>
<text text-anchor="start" x="223.5" y="-18" font-family="Helvetica,sans-Serif" font-size="10.00">ServersSettings::Servers</text>
<text text-anchor="middle" x="283.5" y="-7" font-family="Helvetica,sans-Serif" font-size="10.00">Settings</text>
</a>
</g>
</g>
<!-- Node1&#45;&gt;Node17 -->
<g id="edge16_Node000001_Node000017" class="edge">
<title>Node1&#45;&gt;Node17</title>
<g id="a_edge16_Node000001_Node000017"><a xlink:title=" ">
<path fill="none" stroke="#63b8ff" d="M467.88,-210.97C455.89,-171.9 424.02,-85.29 366,-39 361.62,-35.5 356.74,-32.52 351.61,-29.97"/>
<polygon fill="#63b8ff" stroke="#63b8ff" points="469.38,-215.94 465.78,-211.8 468.66,-213.54 467.94,-211.15 467.94,-211.15 467.94,-211.15 468.66,-213.54 470.09,-210.5 469.38,-215.94 469.38,-215.94"/>
</a>
</g>
</g>
<!-- Node5 -->
<g id="Node000005" class="node">
<title>Node5</title>
<g id="a_Node000005"><a xlink:href="../../d8/d12/classCardOverrideSettings.html#a203beda5fc1d95c72534569e7f261b2f" target="_top" xlink:title=" ">
<polygon fill="white" stroke="#666666" points="146,-356 19,-356 19,-326 146,-326 146,-356"/>
<text text-anchor="start" x="27" y="-344" font-family="Helvetica,sans-Serif" font-size="10.00">CardOverrideSettings</text>
<text text-anchor="middle" x="82.5" y="-333" font-family="Helvetica,sans-Serif" font-size="10.00">::CardOverrideSettings</text>
</a>
</g>
</g>
<!-- Node4&#45;&gt;Node5 -->
<g id="edge4_Node000004_Node000005" class="edge">
<title>Node4&#45;&gt;Node5</title>
<g id="a_edge4_Node000004_Node000005"><a xlink:title=" ">
<path fill="none" stroke="#63b8ff" d="M214.53,-341C192.4,-341 167.95,-341 146.22,-341"/>
<polygon fill="#63b8ff" stroke="#63b8ff" points="219.81,-341 214.81,-343.25 217.31,-341 214.81,-341 214.81,-341 214.81,-341 217.31,-341 214.81,-338.75 219.81,-341 219.81,-341"/>
</a>
</g>
</g>
<!-- Node7 -->
<g id="Node000007" class="node">
<title>Node7</title>
<g id="a_Node000007"><a xlink:href="../../d9/d00/classDebugSettings.html#a8f965fa571d1271a0e78956429bc8858" target="_top" xlink:title=" ">
<polygon fill="white" stroke="#666666" points="165,-307.5 0,-307.5 0,-288.5 165,-288.5 165,-307.5"/>
<text text-anchor="middle" x="82.5" y="-295.5" font-family="Helvetica,sans-Serif" font-size="10.00">DebugSettings::DebugSettings</text>
</a>
</g>
</g>
<!-- Node6&#45;&gt;Node7 -->
<g id="edge6_Node000006_Node000007" class="edge">
<title>Node6&#45;&gt;Node7</title>
<g id="a_edge6_Node000006_Node000007"><a xlink:title=" ">
<path fill="none" stroke="#63b8ff" d="M195.71,-298C185.58,-298 175.27,-298 165.21,-298"/>
<polygon fill="#63b8ff" stroke="#63b8ff" points="200.98,-298 195.98,-300.25 198.48,-298 195.98,-298 195.98,-298 195.98,-298 198.48,-298 195.98,-295.75 200.98,-298 200.98,-298"/>
</a>
</g>
</g>
<!-- Node10 -->
<g id="Node000010" class="node">
<title>Node10</title>
<g id="a_Node000010"><a xlink:href="../../df/dd0/classGameFiltersSettings.html#a2c2c9f14c79f20eb1d0adf12a9e27701" target="_top" xlink:title=" ">
<polygon fill="white" stroke="#666666" points="143.5,-222 21.5,-222 21.5,-192 143.5,-192 143.5,-222"/>
<text text-anchor="start" x="29.5" y="-210" font-family="Helvetica,sans-Serif" font-size="10.00">GameFiltersSettings</text>
<text text-anchor="middle" x="82.5" y="-199" font-family="Helvetica,sans-Serif" font-size="10.00">::GameFiltersSettings</text>
</a>
</g>
</g>
<!-- Node9&#45;&gt;Node10 -->
<g id="edge9_Node000009_Node000010" class="edge">
<title>Node9&#45;&gt;Node10</title>
<g id="a_edge9_Node000009_Node000010"><a xlink:title=" ">
<path fill="none" stroke="#63b8ff" d="M217.24,-207C193.5,-207 166.8,-207 143.54,-207"/>
<polygon fill="#63b8ff" stroke="#63b8ff" points="222.25,-207 217.25,-209.25 219.75,-207 217.25,-207 217.25,-207 217.25,-207 219.75,-207 217.25,-204.75 222.25,-207 222.25,-207"/>
</a>
</g>
</g>
<!-- Node12 -->
<g id="Node000012" class="node">
<title>Node12</title>
<g id="a_Node000012"><a xlink:href="../../d3/d58/classLayoutsSettings.html#a89d7d6fb4bf87763908e55dc5f65c932" target="_top" xlink:title=" ">
<polygon fill="white" stroke="#666666" points="152,-174 13,-174 13,-144 152,-144 152,-174"/>
<text text-anchor="start" x="21" y="-162" font-family="Helvetica,sans-Serif" font-size="10.00">LayoutsSettings::Layouts</text>
<text text-anchor="middle" x="82.5" y="-151" font-family="Helvetica,sans-Serif" font-size="10.00">Settings</text>
</a>
</g>
</g>
<!-- Node11&#45;&gt;Node12 -->
<g id="edge11_Node000011_Node000012" class="edge">
<title>Node11&#45;&gt;Node12</title>
<g id="a_edge11_Node000011_Node000012"><a xlink:title=" ">
<path fill="none" stroke="#63b8ff" d="M208.57,-159C190.14,-159 170.44,-159 152.27,-159"/>
<polygon fill="#63b8ff" stroke="#63b8ff" points="213.74,-159 208.74,-161.25 211.24,-159 208.74,-159 208.74,-159 208.74,-159 211.24,-159 208.74,-156.75 213.74,-159 213.74,-159"/>
</a>
</g>
</g>
<!-- Node14 -->
<g id="Node000014" class="node">
<title>Node14</title>
<g id="a_Node000014"><a xlink:href="../../d3/dc1/classMessageSettings.html#a2c62217f0a4bc8f1f8c345df3dc92d28" target="_top" xlink:title=" ">
<polygon fill="white" stroke="#666666" points="157,-126 8,-126 8,-96 157,-96 157,-126"/>
<text text-anchor="start" x="16" y="-114" font-family="Helvetica,sans-Serif" font-size="10.00">MessageSettings::Message</text>
<text text-anchor="middle" x="82.5" y="-103" font-family="Helvetica,sans-Serif" font-size="10.00">Settings</text>
</a>
</g>
</g>
<!-- Node13&#45;&gt;Node14 -->
<g id="edge13_Node000013_Node000014" class="edge">
<title>Node13&#45;&gt;Node14</title>
<g id="a_edge13_Node000013_Node000014"><a xlink:title=" ">
<path fill="none" stroke="#63b8ff" d="M203.77,-111C188.38,-111 172.29,-111 157.06,-111"/>
<polygon fill="#63b8ff" stroke="#63b8ff" points="208.97,-111 203.97,-113.25 206.47,-111 203.97,-111 203.97,-111 203.97,-111 206.47,-111 203.97,-108.75 208.97,-111 208.97,-111"/>
</a>
</g>
</g>
<!-- Node16 -->
<g id="Node000016" class="node">
<title>Node16</title>
<g id="a_Node000016"><a xlink:href="../../d3/db5/classRecentsSettings.html#a4a3492ba187fa3a4af848d0b562e5011" target="_top" xlink:title=" ">
<polygon fill="white" stroke="#666666" points="152.5,-78 12.5,-78 12.5,-48 152.5,-48 152.5,-78"/>
<text text-anchor="start" x="20.5" y="-66" font-family="Helvetica,sans-Serif" font-size="10.00">RecentsSettings::Recents</text>
<text text-anchor="middle" x="82.5" y="-55" font-family="Helvetica,sans-Serif" font-size="10.00">Settings</text>
</a>
</g>
</g>
<!-- Node15&#45;&gt;Node16 -->
<g id="edge15_Node000015_Node000016" class="edge">
<title>Node15&#45;&gt;Node16</title>
<g id="a_edge15_Node000015_Node000016"><a xlink:title=" ">
<path fill="none" stroke="#63b8ff" d="M208.36,-63C190.15,-63 170.73,-63 152.76,-63"/>
<polygon fill="#63b8ff" stroke="#63b8ff" points="213.46,-63 208.46,-65.25 210.96,-63 208.46,-63 208.46,-63 208.46,-63 210.96,-63 208.46,-60.75 213.46,-63 213.46,-63"/>
</a>
</g>
</g>
<!-- Node18 -->
<g id="Node000018" class="node">
<title>Node18</title>
<g id="a_Node000018"><a xlink:href="../../df/db1/classServersSettings.html#af69338720818acd6eecdc3514af3c338" target="_top" xlink:title=" ">
<polygon fill="white" stroke="#666666" points="150.5,-30 14.5,-30 14.5,0 150.5,0 150.5,-30"/>
<text text-anchor="start" x="22.5" y="-18" font-family="Helvetica,sans-Serif" font-size="10.00">ServersSettings::Servers</text>
<text text-anchor="middle" x="82.5" y="-7" font-family="Helvetica,sans-Serif" font-size="10.00">Settings</text>
</a>
</g>
</g>
<!-- Node17&#45;&gt;Node18 -->
<g id="edge17_Node000017_Node000018" class="edge">
<title>Node17&#45;&gt;Node18</title>
<g id="a_edge17_Node000017_Node000018"><a xlink:title=" ">
<path fill="none" stroke="#63b8ff" d="M209.98,-15C190.59,-15 169.73,-15 150.64,-15"/>
<polygon fill="#63b8ff" stroke="#63b8ff" points="215.41,-15 210.41,-17.25 212.91,-15 210.41,-15 210.41,-15 210.41,-15 212.91,-15 210.41,-12.75 215.41,-15 215.41,-15"/>
</a>
</g>
</g>
</g>
</svg>
