<?xml version="1.0" encoding="UTF-8" standalone="no"?>
<!DOCTYPE svg PUBLIC "-//W3C//DTD SVG 1.1//EN"
 "http://www.w3.org/Graphics/SVG/1.1/DTD/svg11.dtd">
<!-- Generated by graphviz version 2.43.0 (0)
 -->
<!-- Title: VisualDatabaseDisplayNameFilterWidget::actLoadFromDeck Pages: 1 -->
<svg width="1679pt" height="355pt"
 viewBox="0.00 0.00 1679.00 354.50" xmlns="http://www.w3.org/2000/svg" xmlns:xlink="http://www.w3.org/1999/xlink">
<g id="graph0" class="graph" transform="scale(1 1) rotate(0) translate(4 350.5)">
<title>VisualDatabaseDisplayNameFilterWidget::actLoadFromDeck</title>
<!-- Node1 -->
<g id="Node000001" class="node">
<title>Node1</title>
<g id="a_Node000001"><a xlink:title=" ">
<polygon fill="#999999" stroke="#666666" points="170,-138.5 0,-138.5 0,-108.5 170,-108.5 170,-138.5"/>
<text text-anchor="start" x="8" y="-126.5" font-family="Helvetica,sans-Serif" font-size="10.00">VisualDatabaseDisplayName</text>
<text text-anchor="middle" x="85" y="-115.5" font-family="Helvetica,sans-Serif" font-size="10.00">FilterWidget::actLoadFromDeck</text>
</a>
</g>
</g>
<!-- Node2 -->
<g id="Node000002" class="node">
<title>Node2</title>
<g id="a_Node000002"><a xlink:href="../../d6/df5/classVisualDatabaseDisplayNameFilterWidget.html#a478ce78436e8686eb897a574002375fc" target="_top" xlink:title=" ">
<polygon fill="white" stroke="#666666" points="373,-221.5 206,-221.5 206,-191.5 373,-191.5 373,-221.5"/>
<text text-anchor="start" x="214" y="-209.5" font-family="Helvetica,sans-Serif" font-size="10.00">VisualDatabaseDisplayName</text>
<text text-anchor="middle" x="289.5" y="-198.5" font-family="Helvetica,sans-Serif" font-size="10.00">FilterWidget::createNameFilter</text>
</a>
</g>
</g>
<!-- Node1&#45;&gt;Node2 -->
<g id="edge1_Node000001_Node000002" class="edge">
<title>Node1&#45;&gt;Node2</title>
<g id="a_edge1_Node000001_Node000002"><a xlink:title=" ">
<path fill="none" stroke="#63b8ff" d="M119.43,-138.52C143.4,-149.15 176.53,-163.59 206,-175.5 217.77,-180.26 230.58,-185.19 242.52,-189.68"/>
<polygon fill="#63b8ff" stroke="#63b8ff" points="247.22,-191.45 241.75,-191.8 244.88,-190.57 242.54,-189.69 242.54,-189.69 242.54,-189.69 244.88,-190.57 243.33,-187.58 247.22,-191.45 247.22,-191.45"/>
</a>
</g>
</g>
<!-- Node5 -->
<g id="Node000005" class="node">
<title>Node5</title>
<g id="a_Node000005"><a xlink:href="../../d6/df5/classVisualDatabaseDisplayNameFilterWidget.html#a876cac2facfd9c0237f6fcbe93a0cd7c" target="_top" xlink:title=" ">
<polygon fill="white" stroke="#666666" points="580.5,-175.5 410.5,-175.5 410.5,-145.5 580.5,-145.5 580.5,-175.5"/>
<text text-anchor="start" x="418.5" y="-163.5" font-family="Helvetica,sans-Serif" font-size="10.00">VisualDatabaseDisplayName</text>
<text text-anchor="middle" x="495.5" y="-152.5" font-family="Helvetica,sans-Serif" font-size="10.00">FilterWidget::updateFilterModel</text>
</a>
</g>
</g>
<!-- Node1&#45;&gt;Node5 -->
<g id="edge38_Node000001_Node000005" class="edge">
<title>Node1&#45;&gt;Node5</title>
<g id="a_edge38_Node000001_Node000005"><a xlink:title=" ">
<path fill="none" stroke="#63b8ff" d="M170.13,-137.02C182.15,-138.69 194.38,-140.25 206,-141.5 272.61,-148.68 348.19,-153.53 405.27,-156.54"/>
<polygon fill="#63b8ff" stroke="#63b8ff" points="410.39,-156.81 405.28,-158.79 407.89,-156.68 405.4,-156.55 405.4,-156.55 405.4,-156.55 407.89,-156.68 405.51,-154.3 410.39,-156.81 410.39,-156.81"/>
</a>
</g>
</g>
<!-- Node27 -->
<g id="Node000027" class="node">
<title>Node27</title>
<g id="a_Node000027"><a xlink:href="../../d9/de1/classDeckListModel.html#ad54c12f78c4a83fa1a0953cec4f2db0e" target="_top" xlink:title=" ">
<polygon fill="white" stroke="#666666" points="365.5,-133 213.5,-133 213.5,-114 365.5,-114 365.5,-133"/>
<text text-anchor="middle" x="289.5" y="-121" font-family="Helvetica,sans-Serif" font-size="10.00">DeckListModel::getDeckList</text>
</a>
</g>
</g>
<!-- Node1&#45;&gt;Node27 -->
<g id="edge35_Node000001_Node000027" class="edge">
<title>Node1&#45;&gt;Node27</title>
<g id="a_edge35_Node000001_Node000027"><a xlink:title=" ">
<path fill="none" stroke="#63b8ff" d="M170.12,-123.5C182.67,-123.5 195.58,-123.5 208.05,-123.5"/>
<polygon fill="#63b8ff" stroke="#63b8ff" points="213.37,-123.5 208.37,-125.75 210.87,-123.5 208.37,-123.5 208.37,-123.5 208.37,-123.5 210.87,-123.5 208.37,-121.25 213.37,-123.5 213.37,-123.5"/>
</a>
</g>
</g>
<!-- Node28 -->
<g id="Node000028" class="node">
<title>Node28</title>
<g id="a_Node000028"><a xlink:href="../../d5/d22/classDecklistCardNode.html#aab4795fc5949ba2b2c623dcd7d0aea57" target="_top" xlink:title=" ">
<polygon fill="white" stroke="#666666" points="367,-96 212,-96 212,-77 367,-77 367,-96"/>
<text text-anchor="middle" x="289.5" y="-84" font-family="Helvetica,sans-Serif" font-size="10.00">DecklistCardNode::getName</text>
</a>
</g>
</g>
<!-- Node1&#45;&gt;Node28 -->
<g id="edge36_Node000001_Node000028" class="edge">
<title>Node1&#45;&gt;Node28</title>
<g id="a_edge36_Node000001_Node000028"><a xlink:title=" ">
<path fill="none" stroke="#63b8ff" d="M168.36,-108.45C189.56,-104.58 211.91,-100.49 231.5,-96.92"/>
<polygon fill="#63b8ff" stroke="#63b8ff" points="236.42,-96.02 231.9,-99.13 233.96,-96.47 231.5,-96.92 231.5,-96.92 231.5,-96.92 233.96,-96.47 231.09,-94.7 236.42,-96.02 236.42,-96.02"/>
</a>
</g>
</g>
<!-- Node29 -->
<g id="Node000029" class="node">
<title>Node29</title>
<g id="a_Node000029"><a xlink:href="../../da/d68/classDeckList.html#a0576d60292a6f3b777c50b5d864f8414" target="_top" xlink:title=" ">
<polygon fill="white" stroke="#666666" points="341,-59 238,-59 238,-40 341,-40 341,-59"/>
<text text-anchor="middle" x="289.5" y="-47" font-family="Helvetica,sans-Serif" font-size="10.00">DeckList::getRoot</text>
</a>
</g>
</g>
<!-- Node1&#45;&gt;Node29 -->
<g id="edge37_Node000001_Node000029" class="edge">
<title>Node1&#45;&gt;Node29</title>
<g id="a_edge37_Node000001_Node000029"><a xlink:title=" ">
<path fill="none" stroke="#63b8ff" d="M113.88,-108.32C137.74,-95.86 173.33,-78.54 206,-67.5 214.55,-64.61 223.77,-62.07 232.83,-59.88"/>
<polygon fill="#63b8ff" stroke="#63b8ff" points="237.84,-58.69 233.49,-62.03 235.41,-59.27 232.98,-59.84 232.98,-59.84 232.98,-59.84 235.41,-59.27 232.46,-57.65 237.84,-58.69 237.84,-58.69"/>
</a>
</g>
</g>
<!-- Node3 -->
<g id="Node000003" class="node">
<title>Node3</title>
<g id="a_Node000003"><a xlink:href="../../d5/d53/classFlowWidget.html#a822ae4496286ebe6e3870c70cb811798" target="_top" xlink:title="Adds a widget to the flow layout within the FlowWidget.">
<polygon fill="white" stroke="#666666" points="562,-261 429,-261 429,-242 562,-242 562,-261"/>
<text text-anchor="middle" x="495.5" y="-249" font-family="Helvetica,sans-Serif" font-size="10.00">FlowWidget::addWidget</text>
</a>
</g>
</g>
<!-- Node2&#45;&gt;Node3 -->
<g id="edge2_Node000002_Node000003" class="edge">
<title>Node2&#45;&gt;Node3</title>
<g id="a_edge2_Node000002_Node000003"><a xlink:title=" ">
<path fill="none" stroke="#63b8ff" d="M358.71,-221.55C387.38,-227.87 420.06,-235.08 446.18,-240.84"/>
<polygon fill="#63b8ff" stroke="#63b8ff" points="451.31,-241.97 445.94,-243.09 448.87,-241.43 446.43,-240.9 446.43,-240.9 446.43,-240.9 448.87,-241.43 446.91,-238.7 451.31,-241.97 451.31,-241.97"/>
</a>
</g>
</g>
<!-- Node4 -->
<g id="Node000004" class="node">
<title>Node4</title>
<g id="a_Node000004"><a xlink:href="../../d6/df5/classVisualDatabaseDisplayNameFilterWidget.html#a3ee25f2e9a9d6931223e35fdc6c03648" target="_top" xlink:title=" ">
<polygon fill="white" stroke="#666666" points="582,-223.5 409,-223.5 409,-193.5 582,-193.5 582,-223.5"/>
<text text-anchor="start" x="417" y="-211.5" font-family="Helvetica,sans-Serif" font-size="10.00">VisualDatabaseDisplayName</text>
<text text-anchor="middle" x="495.5" y="-200.5" font-family="Helvetica,sans-Serif" font-size="10.00">FilterWidget::removeNameFilter</text>
</a>
</g>
</g>
<!-- Node2&#45;&gt;Node4 -->
<g id="edge3_Node000002_Node000004" class="edge">
<title>Node2&#45;&gt;Node4</title>
<g id="a_edge3_Node000002_Node000004"><a xlink:title=" ">
<path fill="none" stroke="#63b8ff" d="M373.18,-207.31C383.15,-207.41 393.38,-207.51 403.46,-207.61"/>
<polygon fill="#63b8ff" stroke="#63b8ff" points="408.71,-207.66 403.69,-209.86 406.21,-207.63 403.71,-207.61 403.71,-207.61 403.71,-207.61 406.21,-207.63 403.73,-205.36 408.71,-207.66 408.71,-207.66"/>
</a>
</g>
</g>
<!-- Node2&#45;&gt;Node5 -->
<g id="edge4_Node000002_Node000005" class="edge">
<title>Node2&#45;&gt;Node5</title>
<g id="a_edge4_Node000002_Node000005"><a xlink:title=" ">
<path fill="none" stroke="#63b8ff" d="M357.3,-191.44C378.27,-186.71 401.52,-181.47 422.82,-176.66"/>
<polygon fill="#63b8ff" stroke="#63b8ff" points="427.9,-175.52 423.52,-178.81 425.46,-176.07 423.02,-176.62 423.02,-176.62 423.02,-176.62 425.46,-176.07 422.53,-174.42 427.9,-175.52 427.9,-175.52"/>
</a>
</g>
</g>
<!-- Node6 -->
<g id="Node000006" class="node">
<title>Node6</title>
<g id="a_Node000006"><a xlink:href="../../d7/d62/classFilterTreeModel.html#af1fbb628068996d5e9824046ac0da47e" target="_top" xlink:title=" ">
<polygon fill="white" stroke="#666666" points="764,-192 624,-192 624,-173 764,-173 764,-192"/>
<text text-anchor="middle" x="694" y="-180" font-family="Helvetica,sans-Serif" font-size="10.00">FilterTreeModel::addFilter</text>
</a>
</g>
</g>
<!-- Node5&#45;&gt;Node6 -->
<g id="edge5_Node000005_Node000006" class="edge">
<title>Node5&#45;&gt;Node6</title>
<g id="a_edge5_Node000005_Node000006"><a xlink:title=" ">
<path fill="none" stroke="#63b8ff" d="M580.69,-169.93C593.27,-171.33 606.16,-172.78 618.52,-174.16"/>
<polygon fill="#63b8ff" stroke="#63b8ff" points="623.78,-174.75 618.56,-176.43 621.29,-174.47 618.81,-174.19 618.81,-174.19 618.81,-174.19 621.29,-174.47 619.06,-171.96 623.78,-174.75 623.78,-174.75"/>
</a>
</g>
</g>
<!-- Node11 -->
<g id="Node000011" class="node">
<title>Node11</title>
<g id="a_Node000011"><a xlink:href="../../d8/d95/classFilterTree.html#aa07f936cc08019fb3c84ebbae0571876" target="_top" xlink:title=" ">
<polygon fill="white" stroke="#666666" points="1657,-337 1548,-337 1548,-318 1657,-318 1657,-337"/>
<text text-anchor="middle" x="1602.5" y="-325" font-family="Helvetica,sans-Serif" font-size="10.00">FilterTree::changed</text>
</a>
</g>
</g>
<!-- Node5&#45;&gt;Node11 -->
<g id="edge30_Node000005_Node000011" class="edge">
<title>Node5&#45;&gt;Node11</title>
<g id="a_edge30_Node000005_Node000011"><a xlink:title=" ">
<path fill="none" stroke="#63b8ff" d="M556.9,-175.53C565.44,-178.21 574.02,-181.21 582,-184.5 718.66,-240.86 724.67,-346.5 872.5,-346.5 872.5,-346.5 872.5,-346.5 1235,-346.5 1343.73,-346.5 1470.36,-338.06 1542.71,-332.43"/>
<polygon fill="#63b8ff" stroke="#63b8ff" points="1547.83,-332.03 1543.02,-334.66 1545.33,-332.22 1542.84,-332.42 1542.84,-332.42 1542.84,-332.42 1545.33,-332.22 1542.67,-330.17 1547.83,-332.03 1547.83,-332.03"/>
</a>
</g>
</g>
<!-- Node23 -->
<g id="Node000023" class="node">
<title>Node23</title>
<g id="a_Node000023"><a xlink:href="../../d7/d62/classFilterTreeModel.html#a2fe25d88edc3478f628927fd1292fb53" target="_top" xlink:title=" ">
<polygon fill="white" stroke="#666666" points="770,-154.5 618,-154.5 618,-124.5 770,-124.5 770,-154.5"/>
<text text-anchor="start" x="626" y="-142.5" font-family="Helvetica,sans-Serif" font-size="10.00">FilterTreeModel::clearFilters</text>
<text text-anchor="middle" x="694" y="-131.5" font-family="Helvetica,sans-Serif" font-size="10.00">OfType</text>
</a>
</g>
</g>
<!-- Node5&#45;&gt;Node23 -->
<g id="edge31_Node000005_Node000023" class="edge">
<title>Node5&#45;&gt;Node23</title>
<g id="a_edge31_Node000005_Node000023"><a xlink:title=" ">
<path fill="none" stroke="#63b8ff" d="M580.69,-151.5C591.34,-150.36 602.22,-149.2 612.81,-148.07"/>
<polygon fill="#63b8ff" stroke="#63b8ff" points="617.98,-147.52 613.25,-150.29 615.49,-147.78 613.01,-148.05 613.01,-148.05 613.01,-148.05 615.49,-147.78 612.77,-145.81 617.98,-147.52 617.98,-147.52"/>
</a>
</g>
</g>
<!-- Node26 -->
<g id="Node000026" class="node">
<title>Node26</title>
<g id="a_Node000026"><a xlink:href="../../d7/d62/classFilterTreeModel.html#aa64e4e2244a9331a7fb979f9b21ec565" target="_top" xlink:title=" ">
<polygon fill="white" stroke="#666666" points="764,-106 624,-106 624,-87 764,-87 764,-106"/>
<text text-anchor="middle" x="694" y="-94" font-family="Helvetica,sans-Serif" font-size="10.00">FilterTreeModel::filterTree</text>
</a>
</g>
</g>
<!-- Node5&#45;&gt;Node26 -->
<g id="edge34_Node000005_Node000026" class="edge">
<title>Node5&#45;&gt;Node26</title>
<g id="a_edge34_Node000005_Node000026"><a xlink:title=" ">
<path fill="none" stroke="#63b8ff" d="M533.91,-145.47C557.75,-136.18 589.43,-124.38 618,-115.5 627.28,-112.61 637.31,-109.84 646.93,-107.35"/>
<polygon fill="#63b8ff" stroke="#63b8ff" points="651.91,-106.07 647.62,-109.49 649.49,-106.69 647.06,-107.31 647.06,-107.31 647.06,-107.31 649.49,-106.69 646.51,-105.13 651.91,-106.07 651.91,-106.07"/>
</a>
</g>
</g>
<!-- Node7 -->
<g id="Node000007" class="node">
<title>Node7</title>
<g id="a_Node000007"><a xlink:href="../../d8/d95/classFilterTree.html#a7d145d49a0d1782bce296712bac05ddb" target="_top" xlink:title=" ">
<polygon fill="white" stroke="#666666" points="931.5,-192 815.5,-192 815.5,-173 931.5,-173 931.5,-192"/>
<text text-anchor="middle" x="873.5" y="-180" font-family="Helvetica,sans-Serif" font-size="10.00">FilterTree::termNode</text>
</a>
</g>
</g>
<!-- Node6&#45;&gt;Node7 -->
<g id="edge6_Node000006_Node000007" class="edge">
<title>Node6&#45;&gt;Node7</title>
<g id="a_edge6_Node000006_Node000007"><a xlink:title=" ">
<path fill="none" stroke="#63b8ff" d="M764.13,-182.5C779.35,-182.5 795.38,-182.5 810.3,-182.5"/>
<polygon fill="#63b8ff" stroke="#63b8ff" points="815.32,-182.5 810.32,-184.75 812.82,-182.5 810.32,-182.5 810.32,-182.5 810.32,-182.5 812.82,-182.5 810.32,-180.25 815.32,-182.5 815.32,-182.5"/>
</a>
</g>
</g>
<!-- Node8 -->
<g id="Node000008" class="node">
<title>Node8</title>
<g id="a_Node000008"><a xlink:href="../../d8/d95/classFilterTree.html#ad623e0580be3080e8ad2c77876b64e2d" target="_top" xlink:title=" ">
<polygon fill="white" stroke="#666666" points="1116,-211 991,-211 991,-192 1116,-192 1116,-211"/>
<text text-anchor="middle" x="1053.5" y="-199" font-family="Helvetica,sans-Serif" font-size="10.00">FilterTree::attrTypeList</text>
</a>
</g>
</g>
<!-- Node7&#45;&gt;Node8 -->
<g id="edge7_Node000007_Node000008" class="edge">
<title>Node7&#45;&gt;Node8</title>
<g id="a_edge7_Node000007_Node000008"><a xlink:title=" ">
<path fill="none" stroke="#63b8ff" d="M931.8,-188.62C948.84,-190.44 967.66,-192.44 985.27,-194.32"/>
<polygon fill="#63b8ff" stroke="#63b8ff" points="990.7,-194.9 985.48,-196.61 988.21,-194.64 985.72,-194.37 985.72,-194.37 985.72,-194.37 988.21,-194.64 985.96,-192.13 990.7,-194.9 990.7,-194.9"/>
</a>
</g>
</g>
<!-- Node21 -->
<g id="Node000021" class="node">
<title>Node21</title>
<g id="a_Node000021"><a xlink:href="../../d8/d94/classFilterItemList.html#aea1e675ba662351cf3c14a380c263df0" target="_top" xlink:title=" ">
<polygon fill="white" stroke="#666666" points="1302,-128 1166,-128 1166,-109 1302,-109 1302,-128"/>
<text text-anchor="middle" x="1234" y="-116" font-family="Helvetica,sans-Serif" font-size="10.00">FilterItemList::termNode</text>
</a>
</g>
</g>
<!-- Node7&#45;&gt;Node21 -->
<g id="edge25_Node000007_Node000021" class="edge">
<title>Node7&#45;&gt;Node21</title>
<g id="a_edge25_Node000007_Node000021"><a xlink:title=" ">
<path fill="none" stroke="#63b8ff" d="M931.61,-175.66C983.58,-169.05 1062.28,-158.05 1130,-144.5 1151.16,-140.27 1174.49,-134.47 1193.59,-129.43"/>
<polygon fill="#63b8ff" stroke="#63b8ff" points="1198.86,-128.03 1194.61,-131.49 1196.45,-128.67 1194.03,-129.31 1194.03,-129.31 1194.03,-129.31 1196.45,-128.67 1193.45,-127.14 1198.86,-128.03 1198.86,-128.03"/>
</a>
</g>
</g>
<!-- Node9 -->
<g id="Node000009" class="node">
<title>Node9</title>
<g id="a_Node000009"><a xlink:href="../../d8/d95/classFilterTree.html#a815da2affead176aedfbed917b66b7e4" target="_top" xlink:title=" ">
<polygon fill="white" stroke="#666666" points="1299.5,-263 1168.5,-263 1168.5,-244 1299.5,-244 1299.5,-263"/>
<text text-anchor="middle" x="1234" y="-251" font-family="Helvetica,sans-Serif" font-size="10.00">FilterTree::attrLogicMap</text>
</a>
</g>
</g>
<!-- Node8&#45;&gt;Node9 -->
<g id="edge8_Node000008_Node000009" class="edge">
<title>Node8&#45;&gt;Node9</title>
<g id="a_edge8_Node000008_Node000009"><a xlink:title=" ">
<path fill="none" stroke="#63b8ff" d="M1087.24,-211.04C1117.72,-219.92 1163.13,-233.14 1195.15,-242.47"/>
<polygon fill="#63b8ff" stroke="#63b8ff" points="1200.17,-243.93 1194.74,-244.7 1197.77,-243.24 1195.37,-242.54 1195.37,-242.54 1195.37,-242.54 1197.77,-243.24 1196,-240.38 1200.17,-243.93 1200.17,-243.93"/>
</a>
</g>
</g>
<!-- Node16 -->
<g id="Node000016" class="node">
<title>Node16</title>
<g id="a_Node000016"><a xlink:href="../../d9/d6e/classLogicMap.html#a4363a92019f642e175eb32b93c241185" target="_top" xlink:title=" ">
<polygon fill="white" stroke="#666666" points="1288,-177 1180,-177 1180,-158 1288,-158 1288,-177"/>
<text text-anchor="middle" x="1234" y="-165" font-family="Helvetica,sans-Serif" font-size="10.00">LogicMap::typeList</text>
</a>
</g>
</g>
<!-- Node8&#45;&gt;Node16 -->
<g id="edge15_Node000008_Node000016" class="edge">
<title>Node8&#45;&gt;Node16</title>
<g id="a_edge15_Node000008_Node000016"><a xlink:title=" ">
<path fill="none" stroke="#63b8ff" d="M1104.7,-191.94C1127.51,-187.59 1154.57,-182.44 1177.94,-177.99"/>
<polygon fill="#63b8ff" stroke="#63b8ff" points="1182.87,-177.05 1178.38,-180.19 1180.41,-177.52 1177.96,-177.98 1177.96,-177.98 1177.96,-177.98 1180.41,-177.52 1177.54,-175.77 1182.87,-177.05 1182.87,-177.05"/>
</a>
</g>
</g>
<!-- Node10 -->
<g id="Node000010" class="node">
<title>Node10</title>
<g id="a_Node000010"><a xlink:href="../../d8/d95/classFilterTree.html#ad2c829aa958913110d3557060c3567d3" target="_top" xlink:title=" ">
<polygon fill="white" stroke="#666666" points="1485,-318 1351,-318 1351,-299 1485,-299 1485,-318"/>
<text text-anchor="middle" x="1418" y="-306" font-family="Helvetica,sans-Serif" font-size="10.00">FilterTree::nodeChanged</text>
</a>
</g>
</g>
<!-- Node9&#45;&gt;Node10 -->
<g id="edge9_Node000009_Node000010" class="edge">
<title>Node9&#45;&gt;Node10</title>
<g id="a_edge9_Node000009_Node000010"><a xlink:title=" ">
<path fill="none" stroke="#63b8ff" d="M1258.87,-263C1279.57,-271.02 1310.46,-282.45 1338,-290.5 1346.89,-293.1 1356.42,-295.55 1365.69,-297.76"/>
<polygon fill="#63b8ff" stroke="#63b8ff" points="1370.81,-298.96 1365.42,-300.01 1368.37,-298.39 1365.94,-297.82 1365.94,-297.82 1365.94,-297.82 1368.37,-298.39 1366.45,-295.63 1370.81,-298.96 1370.81,-298.96"/>
</a>
</g>
</g>
<!-- Node12 -->
<g id="Node000012" class="node">
<title>Node12</title>
<g id="a_Node000012"><a xlink:href="../../d8/d95/classFilterTree.html#a9f212333d59f811efeacba5f4c4a33db" target="_top" xlink:title=" ">
<polygon fill="white" stroke="#666666" points="1488.5,-244 1347.5,-244 1347.5,-225 1488.5,-225 1488.5,-244"/>
<text text-anchor="middle" x="1418" y="-232" font-family="Helvetica,sans-Serif" font-size="10.00">FilterTree::postInsertChild</text>
</a>
</g>
</g>
<!-- Node9&#45;&gt;Node12 -->
<g id="edge11_Node000009_Node000012" class="edge">
<title>Node9&#45;&gt;Node12</title>
<g id="a_edge11_Node000009_Node000012"><a xlink:title=" ">
<path fill="none" stroke="#63b8ff" d="M1299.68,-246.75C1313.42,-245.31 1328.04,-243.79 1342.12,-242.32"/>
<polygon fill="#63b8ff" stroke="#63b8ff" points="1347.28,-241.78 1342.54,-244.54 1344.8,-242.04 1342.31,-242.3 1342.31,-242.3 1342.31,-242.3 1344.8,-242.04 1342.08,-240.06 1347.28,-241.78 1347.28,-241.78"/>
</a>
</g>
</g>
<!-- Node14 -->
<g id="Node000014" class="node">
<title>Node14</title>
<g id="a_Node000014"><a xlink:href="../../d8/d95/classFilterTree.html#a52695bc306a777ca8940cc7f0766dbb0" target="_top" xlink:title=" ">
<polygon fill="white" stroke="#666666" points="1486,-281 1350,-281 1350,-262 1486,-262 1486,-281"/>
<text text-anchor="middle" x="1418" y="-269" font-family="Helvetica,sans-Serif" font-size="10.00">FilterTree::preInsertChild</text>
</a>
</g>
</g>
<!-- Node9&#45;&gt;Node14 -->
<g id="edge13_Node000009_Node000014" class="edge">
<title>Node9&#45;&gt;Node14</title>
<g id="a_edge13_Node000009_Node000014"><a xlink:title=" ">
<path fill="none" stroke="#63b8ff" d="M1299.68,-259.9C1314.27,-261.34 1329.86,-262.88 1344.74,-264.35"/>
<polygon fill="#63b8ff" stroke="#63b8ff" points="1349.76,-264.85 1344.56,-266.6 1347.27,-264.6 1344.79,-264.36 1344.79,-264.36 1344.79,-264.36 1347.27,-264.6 1345.01,-262.12 1349.76,-264.85 1349.76,-264.85"/>
</a>
</g>
</g>
<!-- Node10&#45;&gt;Node11 -->
<g id="edge10_Node000010_Node000011" class="edge">
<title>Node10&#45;&gt;Node11</title>
<g id="a_edge10_Node000010_Node000011"><a xlink:title=" ">
<path fill="none" stroke="#63b8ff" d="M1485.14,-315.39C1503.98,-317.35 1524.36,-319.47 1542.73,-321.38"/>
<polygon fill="#63b8ff" stroke="#63b8ff" points="1547.85,-321.91 1542.64,-323.63 1545.36,-321.66 1542.88,-321.4 1542.88,-321.4 1542.88,-321.4 1545.36,-321.66 1543.11,-319.16 1547.85,-321.91 1547.85,-321.91"/>
</a>
</g>
</g>
<!-- Node13 -->
<g id="Node000013" class="node">
<title>Node13</title>
<g id="a_Node000013"><a xlink:href="../../d8/d95/classFilterTree.html#aacdab9327019f1c259febc737c928898" target="_top" xlink:title=" ">
<polygon fill="white" stroke="#666666" points="1671,-244 1534,-244 1534,-225 1671,-225 1671,-244"/>
<text text-anchor="middle" x="1602.5" y="-232" font-family="Helvetica,sans-Serif" font-size="10.00">FilterTree::postInsertRow</text>
</a>
</g>
</g>
<!-- Node12&#45;&gt;Node13 -->
<g id="edge12_Node000012_Node000013" class="edge">
<title>Node12&#45;&gt;Node13</title>
<g id="a_edge12_Node000012_Node000013"><a xlink:title=" ">
<path fill="none" stroke="#63b8ff" d="M1488.52,-234.5C1501.68,-234.5 1515.48,-234.5 1528.74,-234.5"/>
<polygon fill="#63b8ff" stroke="#63b8ff" points="1533.99,-234.5 1528.99,-236.75 1531.49,-234.5 1528.99,-234.5 1528.99,-234.5 1528.99,-234.5 1531.49,-234.5 1528.99,-232.25 1533.99,-234.5 1533.99,-234.5"/>
</a>
</g>
</g>
<!-- Node15 -->
<g id="Node000015" class="node">
<title>Node15</title>
<g id="a_Node000015"><a xlink:href="../../d8/d95/classFilterTree.html#a8ef66b12964d8ca6baf1a0ac9054e45f" target="_top" xlink:title=" ">
<polygon fill="white" stroke="#666666" points="1668.5,-281 1536.5,-281 1536.5,-262 1668.5,-262 1668.5,-281"/>
<text text-anchor="middle" x="1602.5" y="-269" font-family="Helvetica,sans-Serif" font-size="10.00">FilterTree::preInsertRow</text>
</a>
</g>
</g>
<!-- Node14&#45;&gt;Node15 -->
<g id="edge14_Node000014_Node000015" class="edge">
<title>Node14&#45;&gt;Node15</title>
<g id="a_edge14_Node000014_Node000015"><a xlink:title=" ">
<path fill="none" stroke="#63b8ff" d="M1486.18,-271.5C1500.75,-271.5 1516.21,-271.5 1530.91,-271.5"/>
<polygon fill="#63b8ff" stroke="#63b8ff" points="1536.29,-271.5 1531.29,-273.75 1533.79,-271.5 1531.29,-271.5 1531.29,-271.5 1531.29,-271.5 1533.79,-271.5 1531.29,-269.25 1536.29,-271.5 1536.29,-271.5"/>
</a>
</g>
</g>
<!-- Node17 -->
<g id="Node000017" class="node">
<title>Node17</title>
<g id="a_Node000017"><a xlink:href="../../db/d51/classFilterTreeNode.html#a3467682943f1ef1d91a49d9a0b14ca5d" target="_top" xlink:title=" ">
<polygon fill="white" stroke="#666666" points="1498,-189 1338,-189 1338,-170 1498,-170 1498,-189"/>
<text text-anchor="middle" x="1418" y="-177" font-family="Helvetica,sans-Serif" font-size="10.00">FilterTreeNode::nodeChanged</text>
</a>
</g>
</g>
<!-- Node16&#45;&gt;Node17 -->
<g id="edge16_Node000016_Node000017" class="edge">
<title>Node16&#45;&gt;Node17</title>
<g id="a_edge16_Node000016_Node000017"><a xlink:title=" ">
<path fill="none" stroke="#63b8ff" d="M1288.13,-171C1302.08,-171.92 1317.48,-172.94 1332.63,-173.94"/>
<polygon fill="#63b8ff" stroke="#63b8ff" points="1337.76,-174.28 1332.62,-176.19 1335.26,-174.11 1332.77,-173.95 1332.77,-173.95 1332.77,-173.95 1335.26,-174.11 1332.91,-171.7 1337.76,-174.28 1337.76,-174.28"/>
</a>
</g>
</g>
<!-- Node19 -->
<g id="Node000019" class="node">
<title>Node19</title>
<g id="a_Node000019"><a xlink:href="../../db/d51/classFilterTreeNode.html#ab3d1a8272139fee75300b2459eada5a1" target="_top" xlink:title=" ">
<polygon fill="white" stroke="#666666" points="1489,-133.5 1347,-133.5 1347,-103.5 1489,-103.5 1489,-133.5"/>
<text text-anchor="start" x="1355" y="-121.5" font-family="Helvetica,sans-Serif" font-size="10.00">FilterTreeNode::postInsert</text>
<text text-anchor="middle" x="1418" y="-110.5" font-family="Helvetica,sans-Serif" font-size="10.00">Child</text>
</a>
</g>
</g>
<!-- Node16&#45;&gt;Node19 -->
<g id="edge19_Node000016_Node000019" class="edge">
<title>Node16&#45;&gt;Node19</title>
<g id="a_edge19_Node000016_Node000019"><a xlink:title=" ">
<path fill="none" stroke="#63b8ff" d="M1270.52,-157.94C1294.87,-151.38 1327.79,-142.52 1356.26,-134.85"/>
<polygon fill="#63b8ff" stroke="#63b8ff" points="1361.15,-133.54 1356.91,-137.01 1358.73,-134.19 1356.32,-134.84 1356.32,-134.84 1356.32,-134.84 1358.73,-134.19 1355.74,-132.66 1361.15,-133.54 1361.15,-133.54"/>
</a>
</g>
</g>
<!-- Node20 -->
<g id="Node000020" class="node">
<title>Node20</title>
<g id="a_Node000020"><a xlink:href="../../db/d51/classFilterTreeNode.html#aa64b0499ddd5388022d0b6732c3d6956" target="_top" xlink:title=" ">
<polygon fill="white" stroke="#666666" points="1486.5,-67.5 1349.5,-67.5 1349.5,-37.5 1486.5,-37.5 1486.5,-67.5"/>
<text text-anchor="start" x="1357.5" y="-55.5" font-family="Helvetica,sans-Serif" font-size="10.00">FilterTreeNode::preInsert</text>
<text text-anchor="middle" x="1418" y="-44.5" font-family="Helvetica,sans-Serif" font-size="10.00">Child</text>
</a>
</g>
</g>
<!-- Node16&#45;&gt;Node20 -->
<g id="edge22_Node000016_Node000020" class="edge">
<title>Node16&#45;&gt;Node20</title>
<g id="a_edge22_Node000016_Node000020"><a xlink:title=" ">
<path fill="none" stroke="#63b8ff" d="M1262.56,-157.88C1275.28,-152.68 1290.14,-145.47 1302,-136.5 1321.61,-121.67 1318.81,-109.87 1338,-94.5 1349.77,-85.07 1363.97,-76.76 1377.07,-70.06"/>
<polygon fill="#63b8ff" stroke="#63b8ff" points="1381.84,-67.67 1378.38,-71.92 1379.61,-68.79 1377.37,-69.91 1377.37,-69.91 1377.37,-69.91 1379.61,-68.79 1376.36,-67.9 1381.84,-67.67 1381.84,-67.67"/>
</a>
</g>
</g>
<!-- Node17&#45;&gt;Node17 -->
<g id="edge17_Node000017_Node000017" class="edge">
<title>Node17&#45;&gt;Node17</title>
<g id="a_edge17_Node000017_Node000017"><a xlink:title=" ">
<path fill="none" stroke="#63b8ff" d="M1389.64,-189.08C1375.84,-197.73 1385.3,-207 1418,-207 1446.62,-207 1457.43,-199.91 1450.44,-192.34"/>
<polygon fill="#63b8ff" stroke="#63b8ff" points="1446.36,-189.08 1451.67,-190.44 1448.32,-190.64 1450.27,-192.2 1450.27,-192.2 1450.27,-192.2 1448.32,-190.64 1448.87,-193.96 1446.36,-189.08 1446.36,-189.08"/>
</a>
</g>
</g>
<!-- Node18 -->
<g id="Node000018" class="node">
<title>Node18</title>
<g id="a_Node000018"><a xlink:href="../../db/d51/classFilterTreeNode.html#a4a2b08fee2006fbd9adb2eeac2bae082" target="_top" xlink:title=" ">
<polygon fill="white" stroke="#666666" points="1665,-128 1540,-128 1540,-109 1665,-109 1665,-128"/>
<text text-anchor="middle" x="1602.5" y="-116" font-family="Helvetica,sans-Serif" font-size="10.00">FilterTreeNode::parent</text>
</a>
</g>
</g>
<!-- Node17&#45;&gt;Node18 -->
<g id="edge18_Node000017_Node000018" class="edge">
<title>Node17&#45;&gt;Node18</title>
<g id="a_edge18_Node000017_Node000018"><a xlink:title=" ">
<path fill="none" stroke="#63b8ff" d="M1464.03,-169.9C1475.22,-167.18 1487.12,-163.99 1498,-160.5 1525.01,-151.83 1554.94,-139.35 1575.64,-130.25"/>
<polygon fill="#63b8ff" stroke="#63b8ff" points="1580.44,-128.13 1576.77,-132.21 1578.15,-129.14 1575.86,-130.16 1575.86,-130.16 1575.86,-130.16 1578.15,-129.14 1574.95,-128.1 1580.44,-128.13 1580.44,-128.13"/>
</a>
</g>
</g>
<!-- Node19&#45;&gt;Node18 -->
<g id="edge20_Node000019_Node000018" class="edge">
<title>Node19&#45;&gt;Node18</title>
<g id="a_edge20_Node000019_Node000018"><a xlink:title=" ">
<path fill="none" stroke="#63b8ff" d="M1489.04,-118.5C1504.12,-118.5 1520.02,-118.5 1534.96,-118.5"/>
<polygon fill="#63b8ff" stroke="#63b8ff" points="1539.99,-118.5 1534.99,-120.75 1537.49,-118.5 1534.99,-118.5 1534.99,-118.5 1534.99,-118.5 1537.49,-118.5 1534.99,-116.25 1539.99,-118.5 1539.99,-118.5"/>
</a>
</g>
</g>
<!-- Node19&#45;&gt;Node19 -->
<g id="edge21_Node000019_Node000019" class="edge">
<title>Node19&#45;&gt;Node19</title>
<g id="a_edge21_Node000019_Node000019"><a xlink:title=" ">
<path fill="none" stroke="#63b8ff" d="M1385.66,-133.78C1378.47,-142.91 1389.25,-151.5 1418,-151.5 1441.81,-151.5 1453.29,-145.61 1452.46,-138.39"/>
<polygon fill="#63b8ff" stroke="#63b8ff" points="1450.34,-133.78 1454.47,-137.39 1451.38,-136.05 1452.42,-138.32 1452.42,-138.32 1452.42,-138.32 1451.38,-136.05 1450.38,-139.26 1450.34,-133.78 1450.34,-133.78"/>
</a>
</g>
</g>
<!-- Node20&#45;&gt;Node18 -->
<g id="edge23_Node000020_Node000018" class="edge">
<title>Node20&#45;&gt;Node18</title>
<g id="a_edge23_Node000020_Node000018"><a xlink:title=" ">
<path fill="none" stroke="#63b8ff" d="M1460.87,-67.64C1494.23,-79.71 1540.2,-96.33 1570.37,-107.24"/>
<polygon fill="#63b8ff" stroke="#63b8ff" points="1575.07,-108.94 1569.6,-109.36 1572.72,-108.09 1570.37,-107.24 1570.37,-107.24 1570.37,-107.24 1572.72,-108.09 1571.13,-105.13 1575.07,-108.94 1575.07,-108.94"/>
</a>
</g>
</g>
<!-- Node20&#45;&gt;Node20 -->
<g id="edge24_Node000020_Node000020" class="edge">
<title>Node20&#45;&gt;Node20</title>
<g id="a_edge24_Node000020_Node000020"><a xlink:title=" ">
<path fill="none" stroke="#63b8ff" d="M1385.66,-67.78C1378.47,-76.91 1389.25,-85.5 1418,-85.5 1441.81,-85.5 1453.29,-79.61 1452.46,-72.39"/>
<polygon fill="#63b8ff" stroke="#63b8ff" points="1450.34,-67.78 1454.47,-71.39 1451.38,-70.05 1452.42,-72.32 1452.42,-72.32 1452.42,-72.32 1451.38,-70.05 1450.38,-73.26 1450.34,-67.78 1450.34,-67.78"/>
</a>
</g>
</g>
<!-- Node21&#45;&gt;Node17 -->
<g id="edge26_Node000021_Node000017" class="edge">
<title>Node21&#45;&gt;Node17</title>
<g id="a_edge26_Node000021_Node000017"><a xlink:title=" ">
<path fill="none" stroke="#63b8ff" d="M1255.96,-128.14C1276.53,-137.34 1308.96,-151.15 1338,-160.5 1347.26,-163.48 1357.27,-166.24 1366.94,-168.67"/>
<polygon fill="#63b8ff" stroke="#63b8ff" points="1371.97,-169.91 1366.57,-170.9 1369.54,-169.31 1367.12,-168.71 1367.12,-168.71 1367.12,-168.71 1369.54,-169.31 1367.66,-166.53 1371.97,-169.91 1371.97,-169.91"/>
</a>
</g>
</g>
<!-- Node21&#45;&gt;Node19 -->
<g id="edge27_Node000021_Node000019" class="edge">
<title>Node21&#45;&gt;Node19</title>
<g id="a_edge27_Node000021_Node000019"><a xlink:title=" ">
<path fill="none" stroke="#63b8ff" d="M1302.25,-118.5C1315.13,-118.5 1328.68,-118.5 1341.78,-118.5"/>
<polygon fill="#63b8ff" stroke="#63b8ff" points="1346.98,-118.5 1341.98,-120.75 1344.48,-118.5 1341.98,-118.5 1341.98,-118.5 1341.98,-118.5 1344.48,-118.5 1341.98,-116.25 1346.98,-118.5 1346.98,-118.5"/>
</a>
</g>
</g>
<!-- Node21&#45;&gt;Node20 -->
<g id="edge28_Node000021_Node000020" class="edge">
<title>Node21&#45;&gt;Node20</title>
<g id="a_edge28_Node000021_Node000020"><a xlink:title=" ">
<path fill="none" stroke="#63b8ff" d="M1261.46,-108.9C1289.94,-98.58 1335.77,-81.96 1370.33,-69.42"/>
<polygon fill="#63b8ff" stroke="#63b8ff" points="1375.34,-67.61 1371.41,-71.43 1372.99,-68.46 1370.64,-69.31 1370.64,-69.31 1370.64,-69.31 1372.99,-68.46 1369.87,-67.2 1375.34,-67.61 1375.34,-67.61"/>
</a>
</g>
</g>
<!-- Node22 -->
<g id="Node000022" class="node">
<title>Node22</title>
<g id="a_Node000022"><a xlink:href="../../d8/d94/classFilterItemList.html#aa1cda95bdf7f046ae3bf4d7fde356971" target="_top" xlink:title=" ">
<polygon fill="white" stroke="#666666" points="1486.5,-19 1349.5,-19 1349.5,0 1486.5,0 1486.5,-19"/>
<text text-anchor="middle" x="1418" y="-7" font-family="Helvetica,sans-Serif" font-size="10.00">FilterItemList::termIndex</text>
</a>
</g>
</g>
<!-- Node21&#45;&gt;Node22 -->
<g id="edge29_Node000021_Node000022" class="edge">
<title>Node21&#45;&gt;Node22</title>
<g id="a_edge29_Node000021_Node000022"><a xlink:title=" ">
<path fill="none" stroke="#63b8ff" d="M1243,-108.94C1259.03,-90.43 1297.08,-49.65 1338,-28.5 1343.99,-25.4 1350.5,-22.8 1357.13,-20.61"/>
<polygon fill="#63b8ff" stroke="#63b8ff" points="1362.21,-19.02 1358.11,-22.66 1359.82,-19.77 1357.44,-20.52 1357.44,-20.52 1357.44,-20.52 1359.82,-19.77 1356.76,-18.37 1362.21,-19.02 1362.21,-19.02"/>
</a>
</g>
</g>
<!-- Node24 -->
<g id="Node000024" class="node">
<title>Node24</title>
<g id="a_Node000024"><a xlink:href="../../d8/d95/classFilterTree.html#a997af71ebe947da3f0db04f9a1285da3" target="_top" xlink:title=" ">
<polygon fill="white" stroke="#666666" points="941,-154.5 806,-154.5 806,-124.5 941,-124.5 941,-154.5"/>
<text text-anchor="start" x="814" y="-142.5" font-family="Helvetica,sans-Serif" font-size="10.00">FilterTree::removeFilters</text>
<text text-anchor="middle" x="873.5" y="-131.5" font-family="Helvetica,sans-Serif" font-size="10.00">ByAttr</text>
</a>
</g>
</g>
<!-- Node23&#45;&gt;Node24 -->
<g id="edge32_Node000023_Node000024" class="edge">
<title>Node23&#45;&gt;Node24</title>
<g id="a_edge32_Node000023_Node000024"><a xlink:title=" ">
<path fill="none" stroke="#63b8ff" d="M770.02,-139.5C780.17,-139.5 790.57,-139.5 800.66,-139.5"/>
<polygon fill="#63b8ff" stroke="#63b8ff" points="805.91,-139.5 800.91,-141.75 803.41,-139.5 800.91,-139.5 800.91,-139.5 800.91,-139.5 803.41,-139.5 800.91,-137.25 805.91,-139.5 805.91,-139.5"/>
</a>
</g>
</g>
<!-- Node25 -->
<g id="Node000025" class="node">
<title>Node25</title>
<g id="a_Node000025"><a xlink:href="../../d0/d92/classFilterTreeBranch.html#a153dd828b6273bd708bae3fd3d7e1361" target="_top" xlink:title=" ">
<polygon fill="white" stroke="#666666" points="1130,-135.5 977,-135.5 977,-105.5 1130,-105.5 1130,-135.5"/>
<text text-anchor="start" x="985" y="-123.5" font-family="Helvetica,sans-Serif" font-size="10.00">FilterTreeBranch&lt; LogicMap</text>
<text text-anchor="middle" x="1053.5" y="-112.5" font-family="Helvetica,sans-Serif" font-size="10.00"> * &gt;::deleteAt</text>
</a>
</g>
</g>
<!-- Node24&#45;&gt;Node25 -->
<g id="edge33_Node000024_Node000025" class="edge">
<title>Node24&#45;&gt;Node25</title>
<g id="a_edge33_Node000024_Node000025"><a xlink:title=" ">
<path fill="none" stroke="#63b8ff" d="M941.03,-132.4C951.05,-131.33 961.47,-130.22 971.74,-129.12"/>
<polygon fill="#63b8ff" stroke="#63b8ff" points="976.77,-128.58 972.03,-131.35 974.28,-128.85 971.8,-129.11 971.8,-129.11 971.8,-129.11 974.28,-128.85 971.56,-126.88 976.77,-128.58 976.77,-128.58"/>
</a>
</g>
</g>
</g>
</svg>
