<?xml version="1.0" encoding="UTF-8" standalone="no"?>
<!DOCTYPE svg PUBLIC "-//W3C//DTD SVG 1.1//EN"
 "http://www.w3.org/Graphics/SVG/1.1/DTD/svg11.dtd">
<!-- Generated by graphviz version 2.43.0 (0)
 -->
<!-- Title: VisualDatabaseDisplayNameFilterWidget::VisualDatabaseDisplayNameFilterWidget Pages: 1 -->
<svg width="842pt" height="344pt"
 viewBox="0.00 0.00 842.00 344.00" xmlns="http://www.w3.org/2000/svg" xmlns:xlink="http://www.w3.org/1999/xlink">
<g id="graph0" class="graph" transform="scale(1 1) rotate(0) translate(4 340)">
<title>VisualDatabaseDisplayNameFilterWidget::VisualDatabaseDisplayNameFilterWidget</title>
<!-- Node1 -->
<g id="Node000001" class="node">
<title>Node1</title>
<g id="a_Node000001"><a xlink:title=" ">
<polygon fill="#999999" stroke="#666666" points="195,-212.5 0,-212.5 0,-171.5 195,-171.5 195,-212.5"/>
<text text-anchor="start" x="8" y="-200.5" font-family="Helvetica,sans-Serif" font-size="10.00">VisualDatabaseDisplayName</text>
<text text-anchor="start" x="8" y="-189.5" font-family="Helvetica,sans-Serif" font-size="10.00">FilterWidget::VisualDatabaseDisplay</text>
<text text-anchor="middle" x="97.5" y="-178.5" font-family="Helvetica,sans-Serif" font-size="10.00">NameFilterWidget</text>
</a>
</g>
</g>
<!-- Node2 -->
<g id="Node000002" class="node">
<title>Node2</title>
<g id="a_Node000002"><a xlink:href="../../d6/df5/classVisualDatabaseDisplayNameFilterWidget.html#ad4fb1f2e255511b957931b70b08066a9" target="_top" xlink:title=" ">
<polygon fill="white" stroke="#666666" points="422,-231 231,-231 231,-201 422,-201 422,-231"/>
<text text-anchor="start" x="239" y="-219" font-family="Helvetica,sans-Serif" font-size="10.00">VisualDatabaseDisplayName</text>
<text text-anchor="middle" x="326.5" y="-208" font-family="Helvetica,sans-Serif" font-size="10.00">FilterWidget::actLoadFromClipboard</text>
</a>
</g>
</g>
<!-- Node1&#45;&gt;Node2 -->
<g id="edge1_Node000001_Node000002" class="edge">
<title>Node1&#45;&gt;Node2</title>
<g id="a_edge1_Node000001_Node000002"><a xlink:title=" ">
<path fill="none" stroke="#63b8ff" d="M195.1,-202.21C205.26,-203.29 215.61,-204.38 225.8,-205.46"/>
<polygon fill="#63b8ff" stroke="#63b8ff" points="230.8,-205.99 225.59,-207.7 228.31,-205.72 225.82,-205.46 225.82,-205.46 225.82,-205.46 228.31,-205.72 226.06,-203.22 230.8,-205.99 230.8,-205.99"/>
</a>
</g>
</g>
<!-- Node3 -->
<g id="Node000003" class="node">
<title>Node3</title>
<g id="a_Node000003"><a xlink:href="../../d6/df5/classVisualDatabaseDisplayNameFilterWidget.html#a478ce78436e8686eb897a574002375fc" target="_top" xlink:title=" ">
<polygon fill="white" stroke="#666666" points="625,-315 458,-315 458,-285 625,-285 625,-315"/>
<text text-anchor="start" x="466" y="-303" font-family="Helvetica,sans-Serif" font-size="10.00">VisualDatabaseDisplayName</text>
<text text-anchor="middle" x="541.5" y="-292" font-family="Helvetica,sans-Serif" font-size="10.00">FilterWidget::createNameFilter</text>
</a>
</g>
</g>
<!-- Node1&#45;&gt;Node3 -->
<g id="edge12_Node000001_Node000003" class="edge">
<title>Node1&#45;&gt;Node3</title>
<g id="a_edge12_Node000001_Node000003"><a xlink:title=" ">
<path fill="none" stroke="#63b8ff" d="M149.49,-212.58C173.87,-221.88 203.64,-232.44 231,-240 252.37,-245.9 370.66,-268.37 454.64,-284.07"/>
<polygon fill="#63b8ff" stroke="#63b8ff" points="459.61,-285 454.28,-286.29 457.15,-284.54 454.7,-284.08 454.7,-284.08 454.7,-284.08 457.15,-284.54 455.11,-281.87 459.61,-285 459.61,-285"/>
</a>
</g>
</g>
<!-- Node5 -->
<g id="Node000005" class="node">
<title>Node5</title>
<g id="a_Node000005"><a xlink:href="../../d6/df5/classVisualDatabaseDisplayNameFilterWidget.html#a876cac2facfd9c0237f6fcbe93a0cd7c" target="_top" xlink:title=" ">
<polygon fill="white" stroke="#666666" points="832.5,-210 662.5,-210 662.5,-180 832.5,-180 832.5,-210"/>
<text text-anchor="start" x="670.5" y="-198" font-family="Helvetica,sans-Serif" font-size="10.00">VisualDatabaseDisplayName</text>
<text text-anchor="middle" x="747.5" y="-187" font-family="Helvetica,sans-Serif" font-size="10.00">FilterWidget::updateFilterModel</text>
</a>
</g>
</g>
<!-- Node1&#45;&gt;Node5 -->
<g id="edge17_Node000001_Node000005" class="edge">
<title>Node1&#45;&gt;Node5</title>
<g id="a_edge17_Node000001_Node000005"><a xlink:title=" ">
<path fill="none" stroke="#63b8ff" d="M138.57,-171.34C228.08,-128.06 450.17,-36.77 625,-98 669.07,-113.43 709.06,-152.3 730.36,-175.89"/>
<polygon fill="#63b8ff" stroke="#63b8ff" points="733.87,-179.82 728.86,-177.58 732.2,-177.95 730.54,-176.09 730.54,-176.09 730.54,-176.09 732.2,-177.95 732.22,-174.59 733.87,-179.82 733.87,-179.82"/>
</a>
</g>
</g>
<!-- Node7 -->
<g id="Node000007" class="node">
<title>Node7</title>
<g id="a_Node000007"><a xlink:href="../../d6/df5/classVisualDatabaseDisplayNameFilterWidget.html#a844930a6cf3455d107aa8a5d2fa44751" target="_top" xlink:title=" ">
<polygon fill="white" stroke="#666666" points="411.5,-183 241.5,-183 241.5,-153 411.5,-153 411.5,-183"/>
<text text-anchor="start" x="249.5" y="-171" font-family="Helvetica,sans-Serif" font-size="10.00">VisualDatabaseDisplayName</text>
<text text-anchor="middle" x="326.5" y="-160" font-family="Helvetica,sans-Serif" font-size="10.00">FilterWidget::actLoadFromDeck</text>
</a>
</g>
</g>
<!-- Node1&#45;&gt;Node7 -->
<g id="edge7_Node000001_Node000007" class="edge">
<title>Node1&#45;&gt;Node7</title>
<g id="a_edge7_Node000001_Node000007"><a xlink:title=" ">
<path fill="none" stroke="#63b8ff" d="M195.1,-181.79C208.63,-180.36 222.48,-178.89 235.88,-177.48"/>
<polygon fill="#63b8ff" stroke="#63b8ff" points="241.18,-176.91 236.45,-179.68 238.7,-177.18 236.21,-177.44 236.21,-177.44 236.21,-177.44 238.7,-177.18 235.97,-175.2 241.18,-176.91 241.18,-176.91"/>
</a>
</g>
</g>
<!-- Node10 -->
<g id="Node000010" class="node">
<title>Node10</title>
<g id="a_Node000010"><a xlink:href="../../d6/df5/classVisualDatabaseDisplayNameFilterWidget.html#a831f3f5ef76eb98930ce2b08c901c053" target="_top" xlink:title=" ">
<polygon fill="white" stroke="#666666" points="406,-30 247,-30 247,0 406,0 406,-30"/>
<text text-anchor="start" x="255" y="-18" font-family="Helvetica,sans-Serif" font-size="10.00">VisualDatabaseDisplayName</text>
<text text-anchor="middle" x="326.5" y="-7" font-family="Helvetica,sans-Serif" font-size="10.00">FilterWidget::retranslateUi</text>
</a>
</g>
</g>
<!-- Node1&#45;&gt;Node10 -->
<g id="edge13_Node000001_Node000010" class="edge">
<title>Node1&#45;&gt;Node10</title>
<g id="a_edge13_Node000001_Node000010"><a xlink:title=" ">
<path fill="none" stroke="#63b8ff" d="M111.54,-171.32C132.73,-139.36 177.69,-78.11 231,-44 238.44,-39.24 246.71,-35.22 255.17,-31.84"/>
<polygon fill="#63b8ff" stroke="#63b8ff" points="259.89,-30.02 256.03,-33.92 257.56,-30.92 255.22,-31.82 255.22,-31.82 255.22,-31.82 257.56,-30.92 254.41,-29.72 259.89,-30.02 259.89,-30.02"/>
</a>
</g>
</g>
<!-- Node11 -->
<g id="Node000011" class="node">
<title>Node11</title>
<g id="a_Node000011"><a xlink:href="../../d6/df5/classVisualDatabaseDisplayNameFilterWidget.html#a008af55c9946596f79f058d8ba337151" target="_top" xlink:title=" ">
<polygon fill="white" stroke="#666666" points="417.5,-317 235.5,-317 235.5,-287 417.5,-287 417.5,-317"/>
<text text-anchor="start" x="243.5" y="-305" font-family="Helvetica,sans-Serif" font-size="10.00">VisualDatabaseDisplayName</text>
<text text-anchor="middle" x="326.5" y="-294" font-family="Helvetica,sans-Serif" font-size="10.00">FilterWidget::syncWithFilterModel</text>
</a>
</g>
</g>
<!-- Node1&#45;&gt;Node11 -->
<g id="edge14_Node000001_Node000011" class="edge">
<title>Node1&#45;&gt;Node11</title>
<g id="a_edge14_Node000001_Node000011"><a xlink:title=" ">
<path fill="none" stroke="#63b8ff" d="M127.32,-212.56C153.41,-230.43 193.39,-256.06 231,-273 241.18,-277.58 252.28,-281.71 263.19,-285.32"/>
<polygon fill="#63b8ff" stroke="#63b8ff" points="268.18,-286.94 262.73,-287.53 265.8,-286.16 263.42,-285.39 263.42,-285.39 263.42,-285.39 265.8,-286.16 264.12,-283.25 268.18,-286.94 268.18,-286.94"/>
</a>
</g>
</g>
<!-- Node2&#45;&gt;Node3 -->
<g id="edge2_Node000002_Node000003" class="edge">
<title>Node2&#45;&gt;Node3</title>
<g id="a_edge2_Node000002_Node000003"><a xlink:title=" ">
<path fill="none" stroke="#63b8ff" d="M387.13,-231.04C398.96,-234.93 411.09,-239.57 422,-245 439.67,-253.79 440.51,-261.86 458,-271 466.59,-275.49 476.03,-279.55 485.36,-283.11"/>
<polygon fill="#63b8ff" stroke="#63b8ff" points="490.23,-284.92 484.76,-285.28 487.88,-284.05 485.54,-283.17 485.54,-283.17 485.54,-283.17 487.88,-284.05 486.33,-281.06 490.23,-284.92 490.23,-284.92"/>
</a>
</g>
</g>
<!-- Node2&#45;&gt;Node5 -->
<g id="edge6_Node000002_Node000005" class="edge">
<title>Node2&#45;&gt;Node5</title>
<g id="a_edge6_Node000002_Node000005"><a xlink:title=" ">
<path fill="none" stroke="#63b8ff" d="M399.2,-231.01C459.75,-241.37 548.56,-251.13 625,-238 654.03,-233.01 685.33,-221.79 708.89,-212.05"/>
<polygon fill="#63b8ff" stroke="#63b8ff" points="713.8,-210 710.05,-214.01 711.49,-210.97 709.18,-211.93 709.18,-211.93 709.18,-211.93 711.49,-210.97 708.32,-209.86 713.8,-210 713.8,-210"/>
</a>
</g>
</g>
<!-- Node6 -->
<g id="Node000006" class="node">
<title>Node6</title>
<g id="a_Node000006"><a xlink:href="../../db/dc8/classDlgLoadDeckFromClipboard.html#ab4dcf091688baf42076a5d2e66a1d023" target="_top" xlink:title=" ">
<polygon fill="white" stroke="#666666" points="617.5,-229 465.5,-229 465.5,-199 617.5,-199 617.5,-229"/>
<text text-anchor="start" x="473.5" y="-217" font-family="Helvetica,sans-Serif" font-size="10.00">DlgLoadDeckFromClipboard</text>
<text text-anchor="middle" x="541.5" y="-206" font-family="Helvetica,sans-Serif" font-size="10.00">::getDeckList</text>
</a>
</g>
</g>
<!-- Node2&#45;&gt;Node6 -->
<g id="edge5_Node000002_Node000006" class="edge">
<title>Node2&#45;&gt;Node6</title>
<g id="a_edge5_Node000002_Node000006"><a xlink:title=" ">
<path fill="none" stroke="#63b8ff" d="M422.17,-215.11C434.8,-214.99 447.67,-214.87 460.03,-214.76"/>
<polygon fill="#63b8ff" stroke="#63b8ff" points="465.3,-214.71 460.32,-217 462.8,-214.73 460.3,-214.75 460.3,-214.75 460.3,-214.75 462.8,-214.73 460.28,-212.5 465.3,-214.71 465.3,-214.71"/>
</a>
</g>
</g>
<!-- Node4 -->
<g id="Node000004" class="node">
<title>Node4</title>
<g id="a_Node000004"><a xlink:href="../../d6/df5/classVisualDatabaseDisplayNameFilterWidget.html#a3ee25f2e9a9d6931223e35fdc6c03648" target="_top" xlink:title=" ">
<polygon fill="white" stroke="#666666" points="834,-336 661,-336 661,-306 834,-306 834,-336"/>
<text text-anchor="start" x="669" y="-324" font-family="Helvetica,sans-Serif" font-size="10.00">VisualDatabaseDisplayName</text>
<text text-anchor="middle" x="747.5" y="-313" font-family="Helvetica,sans-Serif" font-size="10.00">FilterWidget::removeNameFilter</text>
</a>
</g>
</g>
<!-- Node3&#45;&gt;Node4 -->
<g id="edge3_Node000003_Node000004" class="edge">
<title>Node3&#45;&gt;Node4</title>
<g id="a_edge3_Node000003_Node000004"><a xlink:title=" ">
<path fill="none" stroke="#63b8ff" d="M625.18,-308.51C635.24,-309.55 645.56,-310.61 655.73,-311.66"/>
<polygon fill="#63b8ff" stroke="#63b8ff" points="660.71,-312.17 655.51,-313.89 658.23,-311.91 655.74,-311.66 655.74,-311.66 655.74,-311.66 658.23,-311.91 655.97,-309.42 660.71,-312.17 660.71,-312.17"/>
</a>
</g>
</g>
<!-- Node3&#45;&gt;Node5 -->
<g id="edge4_Node000003_Node000005" class="edge">
<title>Node3&#45;&gt;Node5</title>
<g id="a_edge4_Node000003_Node000005"><a xlink:title=" ">
<path fill="none" stroke="#63b8ff" d="M591.21,-284.88C602.5,-280.83 614.33,-276.13 625,-271 659.83,-254.24 697.12,-229.84 721.07,-213.24"/>
<polygon fill="#63b8ff" stroke="#63b8ff" points="725.38,-210.23 722.56,-214.94 723.33,-211.66 721.28,-213.09 721.28,-213.09 721.28,-213.09 723.33,-211.66 719.99,-211.25 725.38,-210.23 725.38,-210.23"/>
</a>
</g>
</g>
<!-- Node7&#45;&gt;Node3 -->
<g id="edge8_Node000007_Node000003" class="edge">
<title>Node7&#45;&gt;Node3</title>
<g id="a_edge8_Node000007_Node000003"><a xlink:title=" ">
<path fill="none" stroke="#63b8ff" d="M405.13,-183.13C411.05,-185.65 416.75,-188.58 422,-192 443.75,-206.18 439.46,-219.82 458,-238 474.86,-254.54 496.24,-270.48 513,-282.06"/>
<polygon fill="#63b8ff" stroke="#63b8ff" points="517.16,-284.91 511.76,-283.94 515.1,-283.5 513.04,-282.08 513.04,-282.08 513.04,-282.08 515.1,-283.5 514.31,-280.23 517.16,-284.91 517.16,-284.91"/>
</a>
</g>
</g>
<!-- Node7&#45;&gt;Node5 -->
<g id="edge11_Node000007_Node000005" class="edge">
<title>Node7&#45;&gt;Node5</title>
<g id="a_edge11_Node000007_Node000005"><a xlink:title=" ">
<path fill="none" stroke="#63b8ff" d="M355.54,-152.9C381.32,-139.93 421.04,-122.22 458,-115 530.85,-100.77 553.9,-93.69 625,-115 665.02,-126.99 704.06,-156.89 726.67,-176.55"/>
<polygon fill="#63b8ff" stroke="#63b8ff" points="730.42,-179.85 725.18,-178.24 728.54,-178.2 726.67,-176.55 726.67,-176.55 726.67,-176.55 728.54,-178.2 728.15,-174.86 730.42,-179.85 730.42,-179.85"/>
</a>
</g>
</g>
<!-- Node8 -->
<g id="Node000008" class="node">
<title>Node8</title>
<g id="a_Node000008"><a xlink:href="../../da/d68/classDeckList.html#a983fff5e7da38d3ae8e7f7e2699e5feb" target="_top" xlink:title=" ">
<polygon fill="white" stroke="#666666" points="608.5,-143.5 474.5,-143.5 474.5,-124.5 608.5,-124.5 608.5,-143.5"/>
<text text-anchor="middle" x="541.5" y="-131.5" font-family="Helvetica,sans-Serif" font-size="10.00">DeckList::getCardNodes</text>
</a>
</g>
</g>
<!-- Node7&#45;&gt;Node8 -->
<g id="edge9_Node000007_Node000008" class="edge">
<title>Node7&#45;&gt;Node8</title>
<g id="a_edge9_Node000007_Node000008"><a xlink:title=" ">
<path fill="none" stroke="#63b8ff" d="M411.68,-154.56C433.02,-151.16 455.6,-147.55 475.8,-144.33"/>
<polygon fill="#63b8ff" stroke="#63b8ff" points="480.88,-143.52 476.3,-146.53 478.41,-143.91 475.94,-144.31 475.94,-144.31 475.94,-144.31 478.41,-143.91 475.59,-142.08 480.88,-143.52 480.88,-143.52"/>
</a>
</g>
</g>
<!-- Node9 -->
<g id="Node000009" class="node">
<title>Node9</title>
<g id="a_Node000009"><a xlink:href="../../d9/de1/classDeckListModel.html#ad54c12f78c4a83fa1a0953cec4f2db0e" target="_top" xlink:title=" ">
<polygon fill="white" stroke="#666666" points="617.5,-180.5 465.5,-180.5 465.5,-161.5 617.5,-161.5 617.5,-180.5"/>
<text text-anchor="middle" x="541.5" y="-168.5" font-family="Helvetica,sans-Serif" font-size="10.00">DeckListModel::getDeckList</text>
</a>
</g>
</g>
<!-- Node7&#45;&gt;Node9 -->
<g id="edge10_Node000007_Node000009" class="edge">
<title>Node7&#45;&gt;Node9</title>
<g id="a_edge10_Node000007_Node000009"><a xlink:title=" ">
<path fill="none" stroke="#63b8ff" d="M411.68,-169.19C427.56,-169.41 444.14,-169.64 459.9,-169.86"/>
<polygon fill="#63b8ff" stroke="#63b8ff" points="465.22,-169.94 460.19,-172.12 462.72,-169.9 460.22,-169.87 460.22,-169.87 460.22,-169.87 462.72,-169.9 460.25,-167.62 465.22,-169.94 465.22,-169.94"/>
</a>
</g>
</g>
<!-- Node11&#45;&gt;Node3 -->
<g id="edge15_Node000011_Node000003" class="edge">
<title>Node11&#45;&gt;Node3</title>
<g id="a_edge15_Node000011_Node000003"><a xlink:title=" ">
<path fill="none" stroke="#63b8ff" d="M417.52,-301.15C429.14,-301.05 441.03,-300.93 452.61,-300.83"/>
<polygon fill="#63b8ff" stroke="#63b8ff" points="457.91,-300.78 452.93,-303.07 455.41,-300.8 452.91,-300.82 452.91,-300.82 452.91,-300.82 455.41,-300.8 452.89,-298.57 457.91,-300.78 457.91,-300.78"/>
</a>
</g>
</g>
<!-- Node11&#45;&gt;Node4 -->
<g id="edge16_Node000011_Node000004" class="edge">
<title>Node11&#45;&gt;Node4</title>
<g id="a_edge16_Node000011_Node000004"><a xlink:title=" ">
<path fill="none" stroke="#63b8ff" d="M403.48,-317.01C421.29,-319.91 440.26,-322.51 458,-324 531.96,-330.19 550.78,-324.92 625,-324 634.97,-323.88 645.4,-323.7 655.79,-323.49"/>
<polygon fill="#63b8ff" stroke="#63b8ff" points="660.88,-323.38 655.92,-325.73 658.38,-323.43 655.88,-323.48 655.88,-323.48 655.88,-323.48 658.38,-323.43 655.83,-321.23 660.88,-323.38 660.88,-323.38"/>
</a>
</g>
</g>
</g>
</svg>
