<?xml version="1.0" encoding="UTF-8" standalone="no"?>
<!DOCTYPE svg PUBLIC "-//W3C//DTD SVG 1.1//EN"
 "http://www.w3.org/Graphics/SVG/1.1/DTD/svg11.dtd">
<!-- Generated by graphviz version 2.43.0 (0)
 -->
<!-- Title: Release::getDownloadUrl Pages: 1 -->
<svg width="697pt" height="86pt"
 viewBox="0.00 0.00 697.00 86.00" xmlns="http://www.w3.org/2000/svg" xmlns:xlink="http://www.w3.org/1999/xlink">
<g id="graph0" class="graph" transform="scale(1 1) rotate(0) translate(4 82)">
<title>Release::getDownloadUrl</title>
<!-- Node1 -->
<g id="Node000001" class="node">
<title>Node1</title>
<g id="a_Node000001"><a xlink:title=" ">
<polygon fill="#999999" stroke="#666666" points="689,-48.5 549,-48.5 549,-29.5 689,-29.5 689,-48.5"/>
<text text-anchor="middle" x="619" y="-36.5" font-family="Helvetica,sans-Serif" font-size="10.00">Release::getDownloadUrl</text>
</a>
</g>
</g>
<!-- Node2 -->
<g id="Node000002" class="node">
<title>Node2</title>
<g id="a_Node000002"><a xlink:href="../../d8/d3f/classDlgUpdate.html#aef3065f53fc248681083846ba58ff56d" target="_top" xlink:title=" ">
<polygon fill="white" stroke="#666666" points="513,-78 365,-78 365,-48 513,-48 513,-78"/>
<text text-anchor="start" x="373" y="-66" font-family="Helvetica,sans-Serif" font-size="10.00">DlgUpdate::finishedUpdate</text>
<text text-anchor="middle" x="439" y="-55" font-family="Helvetica,sans-Serif" font-size="10.00">Check</text>
</a>
</g>
</g>
<!-- Node1&#45;&gt;Node2 -->
<g id="edge1_Node000001_Node000002" class="edge">
<title>Node1&#45;&gt;Node2</title>
<g id="a_edge1_Node000001_Node000002"><a xlink:title=" ">
<path fill="none" stroke="#63b8ff" d="M543.95,-48.98C533.77,-50.36 523.32,-51.77 513.16,-53.14"/>
<polygon fill="#63b8ff" stroke="#63b8ff" points="548.93,-48.31 544.27,-51.21 546.45,-48.65 543.97,-48.98 543.97,-48.98 543.97,-48.98 546.45,-48.65 543.67,-46.75 548.93,-48.31 548.93,-48.31"/>
</a>
</g>
</g>
<!-- Node5 -->
<g id="Node000005" class="node">
<title>Node5</title>
<g id="a_Node000005"><a xlink:href="../../d8/d5f/classStableReleaseChannel.html#ae25072e549c386fe489ee9f9371ddd91" target="_top" xlink:title=" ">
<polygon fill="white" stroke="#666666" points="502,-30 376,-30 376,0 502,0 502,-30"/>
<text text-anchor="start" x="384" y="-18" font-family="Helvetica,sans-Serif" font-size="10.00">StableReleaseChannel</text>
<text text-anchor="middle" x="439" y="-7" font-family="Helvetica,sans-Serif" font-size="10.00">::releaseListFinished</text>
</a>
</g>
</g>
<!-- Node1&#45;&gt;Node5 -->
<g id="edge4_Node000001_Node000005" class="edge">
<title>Node1&#45;&gt;Node5</title>
<g id="a_edge4_Node000001_Node000005"><a xlink:title=" ">
<path fill="none" stroke="#63b8ff" d="M543.83,-29C529.94,-27.13 515.55,-25.19 502.07,-23.37"/>
<polygon fill="#63b8ff" stroke="#63b8ff" points="548.93,-29.69 543.67,-31.25 546.45,-29.35 543.97,-29.02 543.97,-29.02 543.97,-29.02 546.45,-29.35 544.27,-26.79 548.93,-29.69 548.93,-29.69"/>
</a>
</g>
</g>
<!-- Node3 -->
<g id="Node000003" class="node">
<title>Node3</title>
<g id="a_Node000003"><a xlink:href="../../d8/d3f/classDlgUpdate.html#a5d28575d3b961cef91baa643b29e88f7" target="_top" xlink:title=" ">
<polygon fill="white" stroke="#666666" points="329,-72.5 162,-72.5 162,-53.5 329,-53.5 329,-72.5"/>
<text text-anchor="middle" x="245.5" y="-60.5" font-family="Helvetica,sans-Serif" font-size="10.00">DlgUpdate::beginUpdateCheck</text>
</a>
</g>
</g>
<!-- Node2&#45;&gt;Node3 -->
<g id="edge2_Node000002_Node000003" class="edge">
<title>Node2&#45;&gt;Node3</title>
<g id="a_edge2_Node000002_Node000003"><a xlink:title=" ">
<path fill="none" stroke="#63b8ff" d="M359.58,-63C349.59,-63 339.33,-63 329.27,-63"/>
<polygon fill="#63b8ff" stroke="#63b8ff" points="364.78,-63 359.78,-65.25 362.28,-63 359.78,-63 359.78,-63 359.78,-63 362.28,-63 359.78,-60.75 364.78,-63 364.78,-63"/>
</a>
</g>
</g>
<!-- Node4 -->
<g id="Node000004" class="node">
<title>Node4</title>
<g id="a_Node000004"><a xlink:href="../../d8/d3f/classDlgUpdate.html#a365f3dab96eef27bfc5feb78bf8044f2" target="_top" xlink:title=" ">
<polygon fill="white" stroke="#666666" points="126,-72.5 0,-72.5 0,-53.5 126,-53.5 126,-72.5"/>
<text text-anchor="middle" x="63" y="-60.5" font-family="Helvetica,sans-Serif" font-size="10.00">DlgUpdate::DlgUpdate</text>
</a>
</g>
</g>
<!-- Node3&#45;&gt;Node4 -->
<g id="edge3_Node000003_Node000004" class="edge">
<title>Node3&#45;&gt;Node4</title>
<g id="a_edge3_Node000003_Node000004"><a xlink:title=" ">
<path fill="none" stroke="#63b8ff" d="M156.81,-63C146.41,-63 135.96,-63 126.03,-63"/>
<polygon fill="#63b8ff" stroke="#63b8ff" points="161.91,-63 156.91,-65.25 159.41,-63 156.91,-63 156.91,-63 156.91,-63 159.41,-63 156.91,-60.75 161.91,-63 161.91,-63"/>
</a>
</g>
</g>
</g>
</svg>
