<?xml version="1.0" encoding="UTF-8" standalone="no"?>
<!DOCTYPE svg PUBLIC "-//W3C//DTD SVG 1.1//EN"
 "http://www.w3.org/Graphics/SVG/1.1/DTD/svg11.dtd">
<!-- Generated by graphviz version 2.43.0 (0)
 -->
<!-- Title: cockatrice/src/interface/widgets/server/user/user_info_box.h Pages: 1 -->
<!--zoomable 181 -->

<svg id="main" version="1.1" xmlns="http://www.w3.org/2000/svg" xmlns:xlink="http://www.w3.org/1999/xlink" xml:space="preserve" onload="init(evt)">

<style type="text/css"><![CDATA[
.node, .edge {opacity: 0.7;}
.node.selected, .edge.selected {opacity: 1;}
.edge:hover path { stroke: red; }
.edge:hover polygon { stroke: red; fill: red; }
]]></style>

<defs>
  <circle id="rim" cx="0" cy="0" r="7"/>
  <circle id="rim2" cx="0" cy="0" r="3.5"/>
  <g id="zoomPlus">
    <use xlink:href="#rim" fill="#404040"><set attributeName="fill" to="#808080" begin="zoomplus.mouseover" end="zoomplus.mouseout"/></use>
    <path d="M-4,0h8M0,-4v8" fill="none" stroke="white" stroke-width="1.5" pointer-events="none"/>
  </g>
  <g id="zoomMin">
    <use xlink:href="#rim" fill="#404040"><set attributeName="fill" to="#808080" begin="zoomminus.mouseover" end="zoomminus.mouseout"/></use>
    <path d="M-4,0h8" fill="none" stroke="white" stroke-width="1.5" pointer-events="none"/>
  </g>
  <g id="arrowUp" transform="translate(30 24)">
    <use xlink:href="#rim"/>
    <path pointer-events="none" fill="none" stroke="white" stroke-width="1.5" d="M0,-3.0v7 M-2.5,-0.5L0,-3.0L2.5,-0.5"/>
  </g>
  <g id="arrowRight" transform="rotate(90) translate(36 -43)">
    <use xlink:href="#rim"/>
    <path pointer-events="none" fill="none" stroke="white" stroke-width="1.5" d="M0,-3.0v7 M-2.5,-0.5L0,-3.0L2.5,-0.5"/>
  </g>
  <g id="arrowDown" transform="rotate(180) translate(-30 -48)">
    <use xlink:href="#rim"/>
    <path pointer-events="none" fill="none" stroke="white" stroke-width="1.5" d="M0,-3.0v7 M-2.5,-0.5L0,-3.0L2.5,-0.5"/>
  </g>
  <g id="arrowLeft" transform="rotate(270) translate(-36 17)">
    <use xlink:href="#rim"/>
    <path pointer-events="none" fill="none" stroke="white" stroke-width="1.5" d="M0,-3.0v7 M-2.5,-0.5L0,-3.0L2.5,-0.5"/>
  </g>
  <g id="resetDef">
    <use xlink:href="#rim2" fill="#404040"><set attributeName="fill" to="#808080" begin="reset.mouseover" end="reset.mouseout"/></use>
  </g>
</defs>
<script type="application/ecmascript">
var viewWidth = 615;
var viewHeight = 181;
var sectionId = 'dynsection-0';
</script>
<script type="application/ecmascript" xlink:href="../../svg.min.js"/>
<svg id="graph" class="graph">
<g id="viewport">
<title>cockatrice/src/interface/widgets/server/user/user_info_box.h</title>
<!-- Node1 -->
<g id="Node000001" class="node">
<title>Node1</title>
<g id="a_Node000001"><a xlink:title=" ">
<polygon fill="#999999" stroke="#666666" points="238.93,-173 98.93,-173 98.93,-132 238.93,-132 238.93,-173"/>
<text text-anchor="start" x="106.93" y="-161" font-family="Helvetica,sans-Serif" font-size="10.00">cockatrice/src/interface</text>
<text text-anchor="start" x="106.93" y="-150" font-family="Helvetica,sans-Serif" font-size="10.00">/widgets/server/user/user</text>
<text text-anchor="middle" x="168.93" y="-139" font-family="Helvetica,sans-Serif" font-size="10.00">_info_box.h</text>
</a>
</g>
</g>
<!-- Node2 -->
<g id="Node000002" class="node">
<title>Node2</title>
<g id="a_Node000002"><a xlink:title=" ">
<polygon fill="#e0e0e0" stroke="#999999" points="233.93,-24.5 161.93,-24.5 161.93,-5.5 233.93,-5.5 233.93,-24.5"/>
<text text-anchor="middle" x="197.93" y="-12.5" font-family="Helvetica,sans-Serif" font-size="10.00">QDateTime</text>
</a>
</g>
</g>
<!-- Node1&#45;&gt;Node2 -->
<g id="edge1_Node000001_Node000002" class="edge">
<title>Node1&#45;&gt;Node2</title>
<g id="a_edge1_Node000001_Node000002"><a xlink:title=" ">
<path fill="none" stroke="#63b8ff" d="M98.72,-140.04C42.69,-127.78 -21.87,-104.66 7.93,-66 25.95,-42.63 106.43,-28 156.7,-20.98"/>
<polygon fill="#63b8ff" stroke="#63b8ff" points="161.76,-20.29 157.12,-23.2 159.29,-20.63 156.81,-20.97 156.81,-20.97 156.81,-20.97 159.29,-20.63 156.5,-18.74 161.76,-20.29 161.76,-20.29"/>
</a>
</g>
</g>
<!-- Node3 -->
<g id="Node000003" class="node">
<title>Node3</title>
<g id="a_Node000003"><a xlink:title=" ">
<polygon fill="#e0e0e0" stroke="#999999" points="66.93,-90.5 16.93,-90.5 16.93,-71.5 66.93,-71.5 66.93,-90.5"/>
<text text-anchor="middle" x="41.93" y="-78.5" font-family="Helvetica,sans-Serif" font-size="10.00">QLabel</text>
</a>
</g>
</g>
<!-- Node1&#45;&gt;Node3 -->
<g id="edge2_Node000001_Node000003" class="edge">
<title>Node1&#45;&gt;Node3</title>
<g id="a_edge2_Node000001_Node000003"><a xlink:title=" ">
<path fill="none" stroke="#63b8ff" d="M133.22,-131.96C110.22,-119.37 81.17,-103.47 62.1,-93.03"/>
<polygon fill="#63b8ff" stroke="#63b8ff" points="57.47,-90.5 62.94,-90.93 59.66,-91.7 61.86,-92.9 61.86,-92.9 61.86,-92.9 59.66,-91.7 60.78,-94.88 57.47,-90.5 57.47,-90.5"/>
</a>
</g>
</g>
<!-- Node4 -->
<g id="Node000004" class="node">
<title>Node4</title>
<g id="a_Node000004"><a xlink:title=" ">
<polygon fill="#e0e0e0" stroke="#999999" points="164.93,-90.5 84.93,-90.5 84.93,-71.5 164.93,-71.5 164.93,-90.5"/>
<text text-anchor="middle" x="124.93" y="-78.5" font-family="Helvetica,sans-Serif" font-size="10.00">QPushButton</text>
</a>
</g>
</g>
<!-- Node1&#45;&gt;Node4 -->
<g id="edge3_Node000001_Node000004" class="edge">
<title>Node1&#45;&gt;Node4</title>
<g id="a_edge3_Node000001_Node000004"><a xlink:title=" ">
<path fill="none" stroke="#63b8ff" d="M156.44,-131.77C149.04,-120.08 139.86,-105.57 133.32,-95.25"/>
<polygon fill="#63b8ff" stroke="#63b8ff" points="130.52,-90.82 135.09,-93.84 131.85,-92.93 133.19,-95.04 133.19,-95.04 133.19,-95.04 131.85,-92.93 131.29,-96.25 130.52,-90.82 130.52,-90.82"/>
</a>
</g>
</g>
<!-- Node5 -->
<g id="Node000005" class="node">
<title>Node5</title>
<g id="a_Node000005"><a xlink:title=" ">
<polygon fill="#e0e0e0" stroke="#999999" points="242.43,-90.5 183.43,-90.5 183.43,-71.5 242.43,-71.5 242.43,-90.5"/>
<text text-anchor="middle" x="212.93" y="-78.5" font-family="Helvetica,sans-Serif" font-size="10.00">QWidget</text>
</a>
</g>
</g>
<!-- Node1&#45;&gt;Node5 -->
<g id="edge4_Node000001_Node000005" class="edge">
<title>Node1&#45;&gt;Node5</title>
<g id="a_edge4_Node000001_Node000005"><a xlink:title=" ">
<path fill="none" stroke="#63b8ff" d="M181.42,-131.77C188.83,-120.08 198.01,-105.57 204.55,-95.25"/>
<polygon fill="#63b8ff" stroke="#63b8ff" points="207.35,-90.82 206.57,-96.25 206.01,-92.93 204.67,-95.04 204.67,-95.04 204.67,-95.04 206.01,-92.93 202.77,-93.84 207.35,-90.82 207.35,-90.82"/>
</a>
</g>
</g>
<!-- Node6 -->
<g id="Node000006" class="node">
<title>Node6</title>
<g id="a_Node000006"><a xlink:href="../../db/da4/user__level_8h.html" target="_top" xlink:title=" ">
<polygon fill="white" stroke="#666666" points="560.43,-96 409.43,-96 409.43,-66 560.43,-66 560.43,-96"/>
<text text-anchor="start" x="417.43" y="-84" font-family="Helvetica,sans-Serif" font-size="10.00">libcockatrice/network</text>
<text text-anchor="middle" x="484.93" y="-73" font-family="Helvetica,sans-Serif" font-size="10.00">/server/remote/user_level.h</text>
</a>
</g>
</g>
<!-- Node1&#45;&gt;Node6 -->
<g id="edge5_Node000001_Node000006" class="edge">
<title>Node1&#45;&gt;Node6</title>
<g id="a_edge5_Node000001_Node000006"><a xlink:title=" ">
<path fill="none" stroke="#63b8ff" d="M239.06,-136.08C291.82,-124.47 363.74,-108.65 416.16,-97.13"/>
<polygon fill="#63b8ff" stroke="#63b8ff" points="421.17,-96.02 416.77,-99.29 418.73,-96.56 416.29,-97.1 416.29,-97.1 416.29,-97.1 418.73,-96.56 415.81,-94.9 421.17,-96.02 421.17,-96.02"/>
</a>
</g>
</g>
<!-- Node9 -->
<g id="Node000009" class="node">
<title>Node9</title>
<g id="a_Node000009"><a xlink:href="../../d7/d1f/days__years__between_8h.html" target="_top" xlink:title=" ">
<polygon fill="white" stroke="#666666" points="391.43,-96 260.43,-96 260.43,-66 391.43,-66 391.43,-96"/>
<text text-anchor="start" x="268.43" y="-84" font-family="Helvetica,sans-Serif" font-size="10.00">libcockatrice/utility</text>
<text text-anchor="middle" x="325.93" y="-73" font-family="Helvetica,sans-Serif" font-size="10.00">/days_years_between.h</text>
</a>
</g>
</g>
<!-- Node1&#45;&gt;Node9 -->
<g id="edge8_Node000001_Node000009" class="edge">
<title>Node1&#45;&gt;Node9</title>
<g id="a_edge8_Node000001_Node000009"><a xlink:title=" ">
<path fill="none" stroke="#63b8ff" d="M213.08,-131.96C237.13,-121.31 266.53,-108.29 289.3,-98.22"/>
<polygon fill="#63b8ff" stroke="#63b8ff" points="294.05,-96.11 290.39,-100.19 291.77,-97.12 289.48,-98.14 289.48,-98.14 289.48,-98.14 291.77,-97.12 288.57,-96.08 294.05,-96.11 294.05,-96.11"/>
</a>
</g>
</g>
<!-- Node7 -->
<g id="Node000007" class="node">
<title>Node7</title>
<g id="a_Node000007"><a xlink:title=" ">
<polygon fill="#e0e0e0" stroke="#999999" points="454.93,-24.5 404.93,-24.5 404.93,-5.5 454.93,-5.5 454.93,-24.5"/>
<text text-anchor="middle" x="429.93" y="-12.5" font-family="Helvetica,sans-Serif" font-size="10.00">QFlags</text>
</a>
</g>
</g>
<!-- Node6&#45;&gt;Node7 -->
<g id="edge6_Node000006_Node000007" class="edge">
<title>Node6&#45;&gt;Node7</title>
<g id="a_edge6_Node000006_Node000007"><a xlink:title=" ">
<path fill="none" stroke="#63b8ff" d="M472.73,-65.8C463.23,-54.74 450.16,-39.54 440.97,-28.84"/>
<polygon fill="#63b8ff" stroke="#63b8ff" points="437.53,-24.84 442.5,-27.17 439.16,-26.74 440.79,-28.64 440.79,-28.64 440.79,-28.64 439.16,-26.74 439.08,-30.1 437.53,-24.84 437.53,-24.84"/>
</a>
</g>
</g>
<!-- Node8 -->
<g id="Node000008" class="node">
<title>Node8</title>
<g id="a_Node000008"><a xlink:title=" ">
<polygon fill="#e0e0e0" stroke="#999999" points="606.93,-30 472.93,-30 472.93,0 606.93,0 606.93,-30"/>
<text text-anchor="start" x="480.93" y="-18" font-family="Helvetica,sans-Serif" font-size="10.00">libcockatrice/protocol</text>
<text text-anchor="middle" x="539.93" y="-7" font-family="Helvetica,sans-Serif" font-size="10.00">/pb/serverinfo_user.pb.h</text>
</a>
</g>
</g>
<!-- Node6&#45;&gt;Node8 -->
<g id="edge7_Node000006_Node000008" class="edge">
<title>Node6&#45;&gt;Node8</title>
<g id="a_edge7_Node000006_Node000008"><a xlink:title=" ">
<path fill="none" stroke="#63b8ff" d="M497.14,-65.8C505.18,-56.43 515.79,-44.09 524.43,-34.03"/>
<polygon fill="#63b8ff" stroke="#63b8ff" points="527.76,-30.16 526.21,-35.42 526.13,-32.06 524.5,-33.96 524.5,-33.96 524.5,-33.96 526.13,-32.06 522.79,-32.49 527.76,-30.16 527.76,-30.16"/>
</a>
</g>
</g>
<!-- Node9&#45;&gt;Node2 -->
<g id="edge9_Node000009_Node000002" class="edge">
<title>Node9&#45;&gt;Node2</title>
<g id="a_edge9_Node000009_Node000002"><a xlink:title=" ">
<path fill="none" stroke="#63b8ff" d="M297.84,-65.95C274.31,-54.19 241.19,-37.63 219.65,-26.86"/>
<polygon fill="#63b8ff" stroke="#63b8ff" points="214.97,-24.52 220.44,-24.74 217.2,-25.64 219.44,-26.75 219.44,-26.75 219.44,-26.75 217.2,-25.64 218.43,-28.77 214.97,-24.52 214.97,-24.52"/>
</a>
</g>
</g>
</g>
</svg>

<g id="navigator" transform="translate(0 0)" fill="#404254">
  <rect fill="#f2f5e9" fill-opacity="0.5" stroke="#606060" stroke-width=".5" x="0" y="0" width="60" height="60"/>
  <use id="zoomplus" xlink:href="#zoomPlus" x="17" y="9" onmousedown="handleZoom(evt,'in')"/>
  <use id="zoomminus" xlink:href="#zoomMin" x="42" y="9" onmousedown="handleZoom(evt,'out')"/>
  <use id="reset" xlink:href="#resetDef" x="30" y="36" onmousedown="handleReset()"/>
   <use id="arrowup" xlink:href="#arrowUp" x="0" y="0" onmousedown="handlePan(0,-1)"/>
  <use id="arrowright" xlink:href="#arrowRight" x="0" y="0" onmousedown="handlePan(1,0)"/>
  <use id="arrowdown" xlink:href="#arrowDown" x="0" y="0" onmousedown="handlePan(0,1)"/>
  <use id="arrowleft" xlink:href="#arrowLeft" x="0" y="0" onmousedown="handlePan(-1,0)"/>
</g>
<svg viewBox="0 0 15 15" width="100%" height="30px" preserveAspectRatio="xMaxYMin meet">
 <g id="arrow_out" transform="scale(0.3 0.3)">
  <a xlink:href="user__info__box_8h__incl_org.svg" target="_base">
   <rect id="button" ry="5" rx="5" y="6" x="6" height="38" width="38"
        fill="#f2f5e9" fill-opacity="0.5" stroke="#606060" stroke-width="1.0"/>
   <path id="arrow"
     d="M 11.500037,31.436501 C 11.940474,20.09759 22.043105,11.32322 32.158766,21.979434 L 37.068811,17.246167 C 37.068811,17.246167 37.088388,32 37.088388,32 L 22.160133,31.978069 C 22.160133,31.978069 26.997745,27.140456 26.997745,27.140456 C 18.528582,18.264221 13.291696,25.230495 11.500037,31.436501 z"
     style="fill:#404040;"/>
  </a>
 </g>
</svg>

<style type='text/css'>
<![CDATA[
[data-mouse-over-selected='false'] { opacity: 0.7; }
[data-mouse-over-selected='true']  { opacity: 1.0; }
]]>
</style>
<script type="application/ecmascript"><![CDATA[
document.addEventListener('DOMContentLoaded', (event) => {
  highlightEdges();
  highlightAdjacentNodes();
});
]]></script>
</svg>
