<?xml version="1.0" encoding="UTF-8" standalone="no"?>
<!DOCTYPE svg PUBLIC "-//W3C//DTD SVG 1.1//EN"
 "http://www.w3.org/Graphics/SVG/1.1/DTD/svg11.dtd">
<!-- Generated by graphviz version 2.43.0 (0)
 -->
<!-- Title: CardDatabaseView::selectPrintingClicked Pages: 1 -->
<svg width="635pt" height="135pt"
 viewBox="0.00 0.00 635.00 134.50" xmlns="http://www.w3.org/2000/svg" xmlns:xlink="http://www.w3.org/1999/xlink">
<g id="graph0" class="graph" transform="scale(1 1) rotate(0) translate(4 130.5)">
<title>CardDatabaseView::selectPrintingClicked</title>
<!-- Node1 -->
<g id="Node000001" class="node">
<title>Node1</title>
<g id="a_Node000001"><a xlink:title=" ">
<polygon fill="#999999" stroke="#666666" points="627,-73 483,-73 483,-43 627,-43 627,-73"/>
<text text-anchor="start" x="491" y="-61" font-family="Helvetica,sans-Serif" font-size="10.00">CardDatabaseView::select</text>
<text text-anchor="middle" x="555" y="-50" font-family="Helvetica,sans-Serif" font-size="10.00">PrintingClicked</text>
</a>
</g>
</g>
<!-- Node2 -->
<g id="Node000002" class="node">
<title>Node2</title>
<g id="a_Node000002"><a xlink:href="../../d3/d0a/classDeckEditorDatabaseDisplayWidget.html#a5a416ef229f8265159212c0ace2ae5e0" target="_top" xlink:title=" ">
<polygon fill="white" stroke="#666666" points="442.5,-126.5 248.5,-126.5 248.5,-85.5 442.5,-85.5 442.5,-126.5"/>
<text text-anchor="start" x="256.5" y="-114.5" font-family="Helvetica,sans-Serif" font-size="10.00">DeckEditorDatabaseDisplay</text>
<text text-anchor="start" x="256.5" y="-103.5" font-family="Helvetica,sans-Serif" font-size="10.00">Widget::DeckEditorDatabaseDisplay</text>
<text text-anchor="middle" x="345.5" y="-92.5" font-family="Helvetica,sans-Serif" font-size="10.00">Widget</text>
</a>
</g>
</g>
<!-- Node1&#45;&gt;Node2 -->
<g id="edge1_Node000001_Node000002" class="edge">
<title>Node1&#45;&gt;Node2</title>
<g id="a_edge1_Node000001_Node000002"><a xlink:title=" ">
<path fill="none" stroke="#63b8ff" d="M483.69,-74.26C468.14,-77.86 451.48,-81.72 435.31,-85.46"/>
<polygon fill="#63b8ff" stroke="#63b8ff" points="488.92,-73.06 484.55,-76.37 486.48,-73.62 484.04,-74.18 484.04,-74.18 484.04,-74.18 486.48,-73.62 483.54,-71.99 488.92,-73.06 488.92,-73.06"/>
</a>
</g>
</g>
<!-- Node3 -->
<g id="Node000003" class="node">
<title>Node3</title>
<g id="a_Node000003"><a xlink:href="../../d5/d33/classCardDatabaseView.html#a1d09d1f8eeaa43067a3855759f58df2e" target="_top" xlink:title=" ">
<polygon fill="white" stroke="#666666" points="447,-67.5 244,-67.5 244,-48.5 447,-48.5 447,-67.5"/>
<text text-anchor="middle" x="345.5" y="-55.5" font-family="Helvetica,sans-Serif" font-size="10.00">CardDatabaseView::openCustomMenu</text>
</a>
</g>
</g>
<!-- Node1&#45;&gt;Node3 -->
<g id="edge2_Node000001_Node000003" class="edge">
<title>Node1&#45;&gt;Node3</title>
<g id="a_edge2_Node000001_Node000003"><a xlink:title=" ">
<path fill="none" stroke="#63b8ff" d="M477.72,-58C467.79,-58 457.5,-58 447.25,-58"/>
<polygon fill="#63b8ff" stroke="#63b8ff" points="482.88,-58 477.88,-60.25 480.38,-58 477.88,-58 477.88,-58 477.88,-58 480.38,-58 477.88,-55.75 482.88,-58 482.88,-58"/>
</a>
</g>
</g>
<!-- Node5 -->
<g id="Node000005" class="node">
<title>Node5</title>
<g id="a_Node000005"><a xlink:href="../../d2/d32/classVisualDatabaseDisplayWidget.html#a00bbf3a8f09d2ae03529ffd7af734658" target="_top" xlink:title=" ">
<polygon fill="white" stroke="#666666" points="430.5,-30 260.5,-30 260.5,0 430.5,0 430.5,-30"/>
<text text-anchor="start" x="268.5" y="-18" font-family="Helvetica,sans-Serif" font-size="10.00">VisualDatabaseDisplayWidget</text>
<text text-anchor="middle" x="345.5" y="-7" font-family="Helvetica,sans-Serif" font-size="10.00">::VisualDatabaseDisplayWidget</text>
</a>
</g>
</g>
<!-- Node1&#45;&gt;Node5 -->
<g id="edge4_Node000001_Node000005" class="edge">
<title>Node1&#45;&gt;Node5</title>
<g id="a_edge4_Node000001_Node000005"><a xlink:title=" ">
<path fill="none" stroke="#63b8ff" d="M477.52,-42.15C458.37,-38.18 437.88,-33.94 418.94,-30.01"/>
<polygon fill="#63b8ff" stroke="#63b8ff" points="482.88,-43.26 477.53,-44.45 480.43,-42.75 477.98,-42.25 477.98,-42.25 477.98,-42.25 480.43,-42.75 478.44,-40.04 482.88,-43.26 482.88,-43.26"/>
</a>
</g>
</g>
<!-- Node4 -->
<g id="Node000004" class="node">
<title>Node4</title>
<g id="a_Node000004"><a xlink:href="../../d5/d33/classCardDatabaseView.html#aaf739a2109d4f26fbabdea139adb3be5" target="_top" xlink:title=" ">
<polygon fill="white" stroke="#666666" points="208,-67.5 0,-67.5 0,-48.5 208,-48.5 208,-67.5"/>
<text text-anchor="middle" x="104" y="-55.5" font-family="Helvetica,sans-Serif" font-size="10.00">CardDatabaseView::CardDatabaseView</text>
</a>
</g>
</g>
<!-- Node3&#45;&gt;Node4 -->
<g id="edge3_Node000003_Node000004" class="edge">
<title>Node3&#45;&gt;Node4</title>
<g id="a_edge3_Node000003_Node000004"><a xlink:title=" ">
<path fill="none" stroke="#63b8ff" d="M238.71,-58C228.63,-58 218.41,-58 208.35,-58"/>
<polygon fill="#63b8ff" stroke="#63b8ff" points="243.97,-58 238.97,-60.25 241.47,-58 238.97,-58 238.97,-58 238.97,-58 241.47,-58 238.97,-55.75 243.97,-58 243.97,-58"/>
</a>
</g>
</g>
</g>
</svg>
