<?xml version="1.0" encoding="UTF-8" standalone="no"?>
<!DOCTYPE svg PUBLIC "-//W3C//DTD SVG 1.1//EN"
 "http://www.w3.org/Graphics/SVG/1.1/DTD/svg11.dtd">
<!-- Generated by graphviz version 2.43.0 (0)
 -->
<!-- Title: RemoteDeckList_TreeModel::addFileToTree Pages: 1 -->
<!--zoomable 198 -->

<svg id="main" version="1.1" xmlns="http://www.w3.org/2000/svg" xmlns:xlink="http://www.w3.org/1999/xlink" xml:space="preserve" onload="init(evt)">
<style type="text/css"><![CDATA[
.node, .edge {opacity: 0.7;}
.node.selected, .edge.selected {opacity: 1;}
.edge:hover path { stroke: red; }
.edge:hover polygon { stroke: red; fill: red; }
]]></style>

<defs>
  <circle id="rim" cx="0" cy="0" r="7"/>
  <circle id="rim2" cx="0" cy="0" r="3.5"/>
  <g id="zoomPlus">
    <use xlink:href="#rim" fill="#404040"><set attributeName="fill" to="#808080" begin="zoomplus.mouseover" end="zoomplus.mouseout"/></use>
    <path d="M-4,0h8M0,-4v8" fill="none" stroke="white" stroke-width="1.5" pointer-events="none"/>
  </g>
  <g id="zoomMin">
    <use xlink:href="#rim" fill="#404040"><set attributeName="fill" to="#808080" begin="zoomminus.mouseover" end="zoomminus.mouseout"/></use>
    <path d="M-4,0h8" fill="none" stroke="white" stroke-width="1.5" pointer-events="none"/>
  </g>
  <g id="arrowUp" transform="translate(30 24)">
    <use xlink:href="#rim"/>
    <path pointer-events="none" fill="none" stroke="white" stroke-width="1.5" d="M0,-3.0v7 M-2.5,-0.5L0,-3.0L2.5,-0.5"/>
  </g>
  <g id="arrowRight" transform="rotate(90) translate(36 -43)">
    <use xlink:href="#rim"/>
    <path pointer-events="none" fill="none" stroke="white" stroke-width="1.5" d="M0,-3.0v7 M-2.5,-0.5L0,-3.0L2.5,-0.5"/>
  </g>
  <g id="arrowDown" transform="rotate(180) translate(-30 -48)">
    <use xlink:href="#rim"/>
    <path pointer-events="none" fill="none" stroke="white" stroke-width="1.5" d="M0,-3.0v7 M-2.5,-0.5L0,-3.0L2.5,-0.5"/>
  </g>
  <g id="arrowLeft" transform="rotate(270) translate(-36 17)">
    <use xlink:href="#rim"/>
    <path pointer-events="none" fill="none" stroke="white" stroke-width="1.5" d="M0,-3.0v7 M-2.5,-0.5L0,-3.0L2.5,-0.5"/>
  </g>
  <g id="resetDef">
    <use xlink:href="#rim2" fill="#404040"><set attributeName="fill" to="#808080" begin="reset.mouseover" end="reset.mouseout"/></use>
  </g>
</defs>
<script type="application/ecmascript">
var viewWidth = 1595;
var viewHeight = 198;
var sectionId = 'dynsection-3';
</script>
<script type="application/ecmascript" xlink:href="../../svg.min.js"/>
<svg id="graph" class="graph">
<g id="viewport">
<title>RemoteDeckList_TreeModel::addFileToTree</title>
<!-- Node1 -->
<g id="Node000001" class="node">
<title>Node1</title>
<g id="a_Node000001"><a xlink:title=" ">
<polygon fill="#999999" stroke="#666666" points="1587,-157 1435,-157 1435,-127 1587,-127 1587,-157"/>
<text text-anchor="start" x="1443" y="-145" font-family="Helvetica,sans-Serif" font-size="10.00">RemoteDeckList_TreeModel</text>
<text text-anchor="middle" x="1511" y="-134" font-family="Helvetica,sans-Serif" font-size="10.00">::addFileToTree</text>
</a>
</g>
</g>
<!-- Node2 -->
<g id="Node000002" class="node">
<title>Node2</title>
<g id="a_Node000002"><a xlink:href="../../d7/dd0/classRemoteDeckList__TreeWidget.html#a410ced2fc45f220119ca8b0f5ce2646b" target="_top" xlink:title=" ">
<polygon fill="white" stroke="#666666" points="1399,-190 1242,-190 1242,-160 1399,-160 1399,-190"/>
<text text-anchor="start" x="1250" y="-178" font-family="Helvetica,sans-Serif" font-size="10.00">RemoteDeckList_TreeWidget</text>
<text text-anchor="middle" x="1320.5" y="-167" font-family="Helvetica,sans-Serif" font-size="10.00">::addFileToTree</text>
</a>
</g>
</g>
<!-- Node1&#45;&gt;Node2 -->
<g id="edge1_Node000001_Node000002" class="edge">
<title>Node1&#45;&gt;Node2</title>
<g id="a_edge1_Node000001_Node000002"><a xlink:title=" ">
<path fill="none" stroke="#63b8ff" d="M1429.95,-156.01C1419.72,-157.81 1409.26,-159.64 1399.06,-161.42"/>
<polygon fill="#63b8ff" stroke="#63b8ff" points="1434.96,-155.14 1430.42,-158.22 1432.5,-155.57 1430.03,-156 1430.03,-156 1430.03,-156 1432.5,-155.57 1429.65,-153.78 1434.96,-155.14 1434.96,-155.14"/>
</a>
</g>
</g>
<!-- Node7 -->
<g id="Node000007" class="node">
<title>Node7</title>
<g id="a_Node000007"><a xlink:href="../../d8/dcf/classRemoteDeckList__TreeModel.html#a9acb694a6d69756f292b99294316e492" target="_top" xlink:title=" ">
<polygon fill="white" stroke="#666666" points="1396.5,-124 1244.5,-124 1244.5,-94 1396.5,-94 1396.5,-124"/>
<text text-anchor="start" x="1252.5" y="-112" font-family="Helvetica,sans-Serif" font-size="10.00">RemoteDeckList_TreeModel</text>
<text text-anchor="middle" x="1320.5" y="-101" font-family="Helvetica,sans-Serif" font-size="10.00">::addFolderToTree</text>
</a>
</g>
</g>
<!-- Node1&#45;&gt;Node7 -->
<g id="edge6_Node000001_Node000007" class="edge">
<title>Node1&#45;&gt;Node7</title>
<g id="a_edge6_Node000001_Node000007"><a xlink:title=" ">
<path fill="none" stroke="#63b8ff" d="M1429.9,-127.98C1418.86,-126.04 1407.54,-124.06 1396.59,-122.15"/>
<polygon fill="#63b8ff" stroke="#63b8ff" points="1434.96,-128.86 1429.65,-130.22 1432.5,-128.43 1430.03,-128 1430.03,-128 1430.03,-128 1432.5,-128.43 1430.42,-125.78 1434.96,-128.86 1434.96,-128.86"/>
</a>
</g>
</g>
<!-- Node3 -->
<g id="Node000003" class="node">
<title>Node3</title>
<g id="a_Node000003"><a xlink:href="../../d1/dd7/classTabDeckStorage.html#adccfeab9a5d144c01b8cbe96856ba5c9" target="_top" xlink:title=" ">
<polygon fill="white" stroke="#666666" points="1206,-184.5 1031,-184.5 1031,-165.5 1206,-165.5 1206,-184.5"/>
<text text-anchor="middle" x="1118.5" y="-172.5" font-family="Helvetica,sans-Serif" font-size="10.00">TabDeckStorage::uploadFinished</text>
</a>
</g>
</g>
<!-- Node2&#45;&gt;Node3 -->
<g id="edge2_Node000002_Node000003" class="edge">
<title>Node2&#45;&gt;Node3</title>
<g id="a_edge2_Node000002_Node000003"><a xlink:title=" ">
<path fill="none" stroke="#63b8ff" d="M1236.63,-175C1226.53,-175 1216.19,-175 1206.03,-175"/>
<polygon fill="#63b8ff" stroke="#63b8ff" points="1241.89,-175 1236.89,-177.25 1239.39,-175 1236.89,-175 1236.89,-175 1236.89,-175 1239.39,-175 1236.89,-172.75 1241.89,-175 1241.89,-175"/>
</a>
</g>
</g>
<!-- Node4 -->
<g id="Node000004" class="node">
<title>Node4</title>
<g id="a_Node000004"><a xlink:href="../../d1/dd7/classTabDeckStorage.html#a7bb4fcb3e86af7561d6f32b75cad6e2d" target="_top" xlink:title=" ">
<polygon fill="white" stroke="#666666" points="995,-184.5 836,-184.5 836,-165.5 995,-165.5 995,-184.5"/>
<text text-anchor="middle" x="915.5" y="-172.5" font-family="Helvetica,sans-Serif" font-size="10.00">TabDeckStorage::uploadDeck</text>
</a>
</g>
</g>
<!-- Node3&#45;&gt;Node4 -->
<g id="edge3_Node000003_Node000004" class="edge">
<title>Node3&#45;&gt;Node4</title>
<g id="a_edge3_Node000003_Node000004"><a xlink:title=" ">
<path fill="none" stroke="#63b8ff" d="M1025.53,-175C1015.44,-175 1005.22,-175 995.31,-175"/>
<polygon fill="#63b8ff" stroke="#63b8ff" points="1030.8,-175 1025.8,-177.25 1028.3,-175 1025.8,-175 1025.8,-175 1025.8,-175 1028.3,-175 1025.8,-172.75 1030.8,-175 1030.8,-175"/>
</a>
</g>
</g>
<!-- Node5 -->
<g id="Node000005" class="node">
<title>Node5</title>
<g id="a_Node000005"><a xlink:href="../../d1/dd7/classTabDeckStorage.html#aadde96bc7413483928cd8be169119658" target="_top" xlink:title=" ">
<polygon fill="white" stroke="#666666" points="594,-182.5 443,-182.5 443,-163.5 594,-163.5 594,-182.5"/>
<text text-anchor="middle" x="518.5" y="-170.5" font-family="Helvetica,sans-Serif" font-size="10.00">TabDeckStorage::actUpload</text>
</a>
</g>
</g>
<!-- Node4&#45;&gt;Node5 -->
<g id="edge4_Node000004_Node000005" class="edge">
<title>Node4&#45;&gt;Node5</title>
<g id="a_edge4_Node000004_Node000005"><a xlink:title=" ">
<path fill="none" stroke="#63b8ff" d="M830.57,-174.58C760.5,-174.22 661.54,-173.72 594.18,-173.38"/>
<polygon fill="#63b8ff" stroke="#63b8ff" points="835.99,-174.6 830.98,-176.83 833.49,-174.59 830.99,-174.58 830.99,-174.58 830.99,-174.58 833.49,-174.59 831,-172.33 835.99,-174.6 835.99,-174.6"/>
</a>
</g>
</g>
<!-- Node6 -->
<g id="Node000006" class="node">
<title>Node6</title>
<g id="a_Node000006"><a xlink:href="../../d1/dd7/classTabDeckStorage.html#a4ce22625900826a1ac0df83a81b33466" target="_top" xlink:title=" ">
<polygon fill="white" stroke="#666666" points="180,-105.5 0,-105.5 0,-86.5 180,-86.5 180,-105.5"/>
<text text-anchor="middle" x="90" y="-93.5" font-family="Helvetica,sans-Serif" font-size="10.00">TabDeckStorage::TabDeckStorage</text>
</a>
</g>
</g>
<!-- Node5&#45;&gt;Node6 -->
<g id="edge5_Node000005_Node000006" class="edge">
<title>Node5&#45;&gt;Node6</title>
<g id="a_edge5_Node000005_Node000006"><a xlink:title=" ">
<path fill="none" stroke="#63b8ff" d="M437.63,-173.1C376.23,-171.58 289.72,-165.92 216,-148 176.26,-138.34 132.79,-117.79 109.03,-105.61"/>
<polygon fill="#63b8ff" stroke="#63b8ff" points="442.75,-173.22 437.7,-175.36 440.25,-173.17 437.75,-173.11 437.75,-173.11 437.75,-173.11 440.25,-173.17 437.8,-170.86 442.75,-173.22 442.75,-173.22"/>
</a>
</g>
</g>
<!-- Node7&#45;&gt;Node7 -->
<g id="edge7_Node000007_Node000007" class="edge">
<title>Node7&#45;&gt;Node7</title>
<g id="a_edge7_Node000007_Node000007"><a xlink:title=" ">
<path fill="none" stroke="#63b8ff" d="M1356.08,-128.89C1356.95,-136.11 1345.08,-142 1320.5,-142 1290.81,-142 1279.68,-133.41 1287.1,-124.28"/>
<polygon fill="#63b8ff" stroke="#63b8ff" points="1353.9,-124.28 1358.07,-127.84 1354.97,-126.54 1356.03,-128.8 1356.03,-128.8 1356.03,-128.8 1354.97,-126.54 1354,-129.76 1353.9,-124.28 1353.9,-124.28"/>
</a>
</g>
</g>
<!-- Node8 -->
<g id="Node000008" class="node">
<title>Node8</title>
<g id="a_Node000008"><a xlink:href="../../d7/dd0/classRemoteDeckList__TreeWidget.html#aa72ded726f4651e8fa68c62c8b2ccac7" target="_top" xlink:title=" ">
<polygon fill="white" stroke="#666666" points="1197,-147 1040,-147 1040,-117 1197,-117 1197,-147"/>
<text text-anchor="start" x="1048" y="-135" font-family="Helvetica,sans-Serif" font-size="10.00">RemoteDeckList_TreeWidget</text>
<text text-anchor="middle" x="1118.5" y="-124" font-family="Helvetica,sans-Serif" font-size="10.00">::addFolderToTree</text>
</a>
</g>
</g>
<!-- Node7&#45;&gt;Node8 -->
<g id="edge8_Node000007_Node000008" class="edge">
<title>Node7&#45;&gt;Node8</title>
<g id="a_edge8_Node000007_Node000008"><a xlink:title=" ">
<path fill="none" stroke="#63b8ff" d="M1239.37,-118.21C1225.51,-119.81 1211.1,-121.47 1197.3,-123.05"/>
<polygon fill="#63b8ff" stroke="#63b8ff" points="1244.46,-117.63 1239.75,-120.44 1241.97,-117.92 1239.49,-118.2 1239.49,-118.2 1239.49,-118.2 1241.97,-117.92 1239.23,-115.97 1244.46,-117.63 1244.46,-117.63"/>
</a>
</g>
</g>
<!-- Node11 -->
<g id="Node000011" class="node">
<title>Node11</title>
<g id="a_Node000011"><a xlink:href="../../d8/dcf/classRemoteDeckList__TreeModel.html#ab483a54c0bc53579f7f86909e951f9fc" target="_top" xlink:title=" ">
<polygon fill="white" stroke="#666666" points="1194.5,-99 1042.5,-99 1042.5,-69 1194.5,-69 1194.5,-99"/>
<text text-anchor="start" x="1050.5" y="-87" font-family="Helvetica,sans-Serif" font-size="10.00">RemoteDeckList_TreeModel</text>
<text text-anchor="middle" x="1118.5" y="-76" font-family="Helvetica,sans-Serif" font-size="10.00">::deckListFinished</text>
</a>
</g>
</g>
<!-- Node7&#45;&gt;Node11 -->
<g id="edge12_Node000007_Node000011" class="edge">
<title>Node7&#45;&gt;Node11</title>
<g id="a_edge12_Node000007_Node000011"><a xlink:title=" ">
<path fill="none" stroke="#63b8ff" d="M1239.47,-99C1224.67,-97.15 1209.27,-95.22 1194.63,-93.39"/>
<polygon fill="#63b8ff" stroke="#63b8ff" points="1244.46,-99.62 1239.22,-101.23 1241.98,-99.31 1239.5,-99 1239.5,-99 1239.5,-99 1241.98,-99.31 1239.78,-96.77 1244.46,-99.62 1244.46,-99.62"/>
</a>
</g>
</g>
<!-- Node9 -->
<g id="Node000009" class="node">
<title>Node9</title>
<g id="a_Node000009"><a xlink:href="../../d1/dd7/classTabDeckStorage.html#a950af308ba562fb3556e0efe435ffe07" target="_top" xlink:title=" ">
<polygon fill="white" stroke="#666666" points="991.5,-147 839.5,-147 839.5,-117 991.5,-117 991.5,-147"/>
<text text-anchor="start" x="847.5" y="-135" font-family="Helvetica,sans-Serif" font-size="10.00">TabDeckStorage::newFolder</text>
<text text-anchor="middle" x="915.5" y="-124" font-family="Helvetica,sans-Serif" font-size="10.00">Finished</text>
</a>
</g>
</g>
<!-- Node8&#45;&gt;Node9 -->
<g id="edge9_Node000008_Node000009" class="edge">
<title>Node8&#45;&gt;Node9</title>
<g id="a_edge9_Node000008_Node000009"><a xlink:title=" ">
<path fill="none" stroke="#63b8ff" d="M1034.58,-132C1020.37,-132 1005.68,-132 991.69,-132"/>
<polygon fill="#63b8ff" stroke="#63b8ff" points="1039.79,-132 1034.79,-134.25 1037.29,-132 1034.79,-132 1034.79,-132 1034.79,-132 1037.29,-132 1034.79,-129.75 1039.79,-132 1039.79,-132"/>
</a>
</g>
</g>
<!-- Node10 -->
<g id="Node000010" class="node">
<title>Node10</title>
<g id="a_Node000010"><a xlink:href="../../d1/dd7/classTabDeckStorage.html#aad1c99f18429ab39f86a607bbfc3415c" target="_top" xlink:title=" ">
<polygon fill="white" stroke="#666666" points="800,-142.5 632,-142.5 632,-123.5 800,-123.5 800,-142.5"/>
<text text-anchor="middle" x="716" y="-130.5" font-family="Helvetica,sans-Serif" font-size="10.00">TabDeckStorage::actNewFolder</text>
</a>
</g>
</g>
<!-- Node9&#45;&gt;Node10 -->
<g id="edge10_Node000009_Node000010" class="edge">
<title>Node9&#45;&gt;Node10</title>
<g id="a_edge10_Node000009_Node000010"><a xlink:title=" ">
<path fill="none" stroke="#63b8ff" d="M834.16,-132.41C822.99,-132.46 811.49,-132.52 800.26,-132.58"/>
<polygon fill="#63b8ff" stroke="#63b8ff" points="839.27,-132.38 834.28,-134.66 836.77,-132.39 834.27,-132.41 834.27,-132.41 834.27,-132.41 836.77,-132.39 834.26,-130.16 839.27,-132.38 839.27,-132.38"/>
</a>
</g>
</g>
<!-- Node10&#45;&gt;Node6 -->
<g id="edge11_Node000010_Node000006" class="edge">
<title>Node10&#45;&gt;Node6</title>
<g id="a_edge11_Node000010_Node000006"><a xlink:title=" ">
<path fill="none" stroke="#63b8ff" d="M626.59,-127.76C508.12,-120.73 299.02,-108.33 180.16,-101.29"/>
<polygon fill="#63b8ff" stroke="#63b8ff" points="631.82,-128.07 626.69,-130.02 629.32,-127.92 626.82,-127.77 626.82,-127.77 626.82,-127.77 629.32,-127.92 626.96,-125.53 631.82,-128.07 631.82,-128.07"/>
</a>
</g>
</g>
<!-- Node12 -->
<g id="Node000012" class="node">
<title>Node12</title>
<g id="a_Node000012"><a xlink:href="../../d8/dcf/classRemoteDeckList__TreeModel.html#ad5bc737e522782af5a2310f89e8e08e9" target="_top" xlink:title=" ">
<polygon fill="white" stroke="#666666" points="991.5,-99 839.5,-99 839.5,-69 991.5,-69 991.5,-99"/>
<text text-anchor="start" x="847.5" y="-87" font-family="Helvetica,sans-Serif" font-size="10.00">RemoteDeckList_TreeModel</text>
<text text-anchor="middle" x="915.5" y="-76" font-family="Helvetica,sans-Serif" font-size="10.00">::refreshTree</text>
</a>
</g>
</g>
<!-- Node11&#45;&gt;Node12 -->
<g id="edge13_Node000011_Node000012" class="edge">
<title>Node11&#45;&gt;Node12</title>
<g id="a_edge13_Node000011_Node000012"><a xlink:title=" ">
<path fill="none" stroke="#63b8ff" d="M1037.28,-84C1022.19,-84 1006.46,-84 991.54,-84"/>
<polygon fill="#63b8ff" stroke="#63b8ff" points="1042.37,-84 1037.37,-86.25 1039.87,-84 1037.37,-84 1037.37,-84 1037.37,-84 1039.87,-84 1037.37,-81.75 1042.37,-84 1042.37,-84"/>
</a>
</g>
</g>
<!-- Node13 -->
<g id="Node000013" class="node">
<title>Node13</title>
<g id="a_Node000013"><a xlink:href="../../d7/dd0/classRemoteDeckList__TreeWidget.html#acb8cbe462b48d2450de5b2f486c93c4c" target="_top" xlink:title=" ">
<polygon fill="white" stroke="#666666" points="794.5,-99 637.5,-99 637.5,-69 794.5,-69 794.5,-99"/>
<text text-anchor="start" x="645.5" y="-87" font-family="Helvetica,sans-Serif" font-size="10.00">RemoteDeckList_TreeWidget</text>
<text text-anchor="middle" x="716" y="-76" font-family="Helvetica,sans-Serif" font-size="10.00">::refreshTree</text>
</a>
</g>
</g>
<!-- Node12&#45;&gt;Node13 -->
<g id="edge14_Node000012_Node000013" class="edge">
<title>Node12&#45;&gt;Node13</title>
<g id="a_edge14_Node000012_Node000013"><a xlink:title=" ">
<path fill="none" stroke="#63b8ff" d="M834.11,-84C821.08,-84 807.61,-84 794.64,-84"/>
<polygon fill="#63b8ff" stroke="#63b8ff" points="839.27,-84 834.27,-86.25 836.77,-84 834.27,-84 834.27,-84 834.27,-84 836.77,-84 834.27,-81.75 839.27,-84 839.27,-84"/>
</a>
</g>
</g>
<!-- Node14 -->
<g id="Node000014" class="node">
<title>Node14</title>
<g id="a_Node000014"><a xlink:href="../../d5/ddc/classDlgLoadRemoteDeck.html#a7312a84ffbc09f57ab758a8d17a29d67" target="_top" xlink:title=" ">
<polygon fill="white" stroke="#666666" points="581,-106 456,-106 456,-76 581,-76 581,-106"/>
<text text-anchor="start" x="464" y="-94" font-family="Helvetica,sans-Serif" font-size="10.00">DlgLoadRemoteDeck::</text>
<text text-anchor="middle" x="518.5" y="-83" font-family="Helvetica,sans-Serif" font-size="10.00">DlgLoadRemoteDeck</text>
</a>
</g>
</g>
<!-- Node13&#45;&gt;Node14 -->
<g id="edge15_Node000013_Node000014" class="edge">
<title>Node13&#45;&gt;Node14</title>
<g id="a_edge15_Node000013_Node000014"><a xlink:title=" ">
<path fill="none" stroke="#63b8ff" d="M632.18,-86.97C615.12,-87.58 597.44,-88.21 581.29,-88.79"/>
<polygon fill="#63b8ff" stroke="#63b8ff" points="637.45,-86.78 632.54,-89.2 634.95,-86.87 632.46,-86.96 632.46,-86.96 632.46,-86.96 634.95,-86.87 632.38,-84.71 637.45,-86.78 637.45,-86.78"/>
</a>
</g>
</g>
<!-- Node15 -->
<g id="Node000015" class="node">
<title>Node15</title>
<g id="a_Node000015"><a xlink:href="../../d1/dd7/classTabDeckStorage.html#aac6e71347237e1eb6e923f5bd107b715" target="_top" xlink:title=" ">
<polygon fill="white" stroke="#666666" points="596,-58 441,-58 441,-28 596,-28 596,-58"/>
<text text-anchor="start" x="449" y="-46" font-family="Helvetica,sans-Serif" font-size="10.00">TabDeckStorage::setRemote</text>
<text text-anchor="middle" x="518.5" y="-35" font-family="Helvetica,sans-Serif" font-size="10.00">Enabled</text>
</a>
</g>
</g>
<!-- Node13&#45;&gt;Node15 -->
<g id="edge16_Node000013_Node000015" class="edge">
<title>Node13&#45;&gt;Node15</title>
<g id="a_edge16_Node000013_Node000015"><a xlink:title=" ">
<path fill="none" stroke="#63b8ff" d="M638.1,-67.87C622.64,-64.63 606.45,-61.24 591.18,-58.03"/>
<polygon fill="#63b8ff" stroke="#63b8ff" points="643.31,-68.97 637.96,-70.14 640.87,-68.45 638.42,-67.94 638.42,-67.94 638.42,-67.94 640.87,-68.45 638.88,-65.74 643.31,-68.97 643.31,-68.97"/>
</a>
</g>
</g>
<!-- Node15&#45;&gt;Node6 -->
<g id="edge21_Node000015_Node000006" class="edge">
<title>Node15&#45;&gt;Node6</title>
<g id="a_edge21_Node000015_Node000006"><a xlink:title=" ">
<path fill="none" stroke="#63b8ff" d="M464.63,-59.59C438.54,-67.66 411.31,-75.87 405,-77 330,-90.41 243.5,-94.85 180.3,-96.11"/>
<polygon fill="#63b8ff" stroke="#63b8ff" points="469.48,-58.08 465.37,-61.71 467.09,-58.82 464.7,-59.56 464.7,-59.56 464.7,-59.56 467.09,-58.82 464.04,-57.41 469.48,-58.08 469.48,-58.08"/>
</a>
</g>
</g>
<!-- Node16 -->
<g id="Node000016" class="node">
<title>Node16</title>
<g id="a_Node000016"><a xlink:href="../../d1/dd7/classTabDeckStorage.html#af94ed930a883ba1d2dbf9328c0bb92ff" target="_top" xlink:title=" ">
<polygon fill="white" stroke="#666666" points="403.5,-67.5 217.5,-67.5 217.5,-48.5 403.5,-48.5 403.5,-67.5"/>
<text text-anchor="middle" x="310.5" y="-55.5" font-family="Helvetica,sans-Serif" font-size="10.00">TabDeckStorage::handleConnected</text>
</a>
</g>
</g>
<!-- Node15&#45;&gt;Node16 -->
<g id="edge17_Node000015_Node000016" class="edge">
<title>Node15&#45;&gt;Node16</title>
<g id="a_edge17_Node000015_Node000016"><a xlink:title=" ">
<path fill="none" stroke="#63b8ff" d="M435.65,-48.96C425.12,-49.73 414.27,-50.52 403.59,-51.29"/>
<polygon fill="#63b8ff" stroke="#63b8ff" points="440.79,-48.59 435.97,-51.19 438.3,-48.77 435.81,-48.95 435.81,-48.95 435.81,-48.95 438.3,-48.77 435.64,-46.7 440.79,-48.59 440.79,-48.59"/>
</a>
</g>
</g>
<!-- Node17 -->
<g id="Node000017" class="node">
<title>Node17</title>
<g id="a_Node000017"><a xlink:href="../../d1/dd7/classTabDeckStorage.html#a301bbc14daffde024075fdfebf8a1965" target="_top" xlink:title=" ">
<polygon fill="white" stroke="#666666" points="405,-30 216,-30 216,0 405,0 405,-30"/>
<text text-anchor="start" x="224" y="-18" font-family="Helvetica,sans-Serif" font-size="10.00">TabDeckStorage::handleConnection</text>
<text text-anchor="middle" x="310.5" y="-7" font-family="Helvetica,sans-Serif" font-size="10.00">Changed</text>
</a>
</g>
</g>
<!-- Node15&#45;&gt;Node17 -->
<g id="edge19_Node000015_Node000017" class="edge">
<title>Node15&#45;&gt;Node17</title>
<g id="a_edge19_Node000015_Node000017"><a xlink:title=" ">
<path fill="none" stroke="#63b8ff" d="M435.62,-31.87C425.67,-30.52 415.45,-29.13 405.35,-27.76"/>
<polygon fill="#63b8ff" stroke="#63b8ff" points="440.79,-32.57 435.54,-34.13 438.32,-32.24 435.84,-31.9 435.84,-31.9 435.84,-31.9 438.32,-32.24 436.14,-29.67 440.79,-32.57 440.79,-32.57"/>
</a>
</g>
</g>
<!-- Node16&#45;&gt;Node6 -->
<g id="edge18_Node000016_Node000006" class="edge">
<title>Node16&#45;&gt;Node6</title>
<g id="a_edge18_Node000016_Node000006"><a xlink:title=" ">
<path fill="none" stroke="#63b8ff" d="M249.51,-68.43C217.13,-74.06 177.44,-80.97 145.88,-86.46"/>
<polygon fill="#63b8ff" stroke="#63b8ff" points="254.65,-67.54 250.1,-70.61 252.18,-67.97 249.72,-68.4 249.72,-68.4 249.72,-68.4 252.18,-67.97 249.33,-66.18 254.65,-67.54 254.65,-67.54"/>
</a>
</g>
</g>
<!-- Node17&#45;&gt;Node6 -->
<g id="edge20_Node000017_Node000006" class="edge">
<title>Node17&#45;&gt;Node6</title>
<g id="a_edge20_Node000017_Node000006"><a xlink:title=" ">
<path fill="none" stroke="#63b8ff" d="M239.67,-31.47C231.62,-33.8 223.59,-36.32 216,-39 176.87,-52.82 133.18,-74.19 109.21,-86.46"/>
<polygon fill="#63b8ff" stroke="#63b8ff" points="244.67,-30.05 240.48,-33.58 242.27,-30.74 239.86,-31.42 239.86,-31.42 239.86,-31.42 242.27,-30.74 239.25,-29.25 244.67,-30.05 244.67,-30.05"/>
</a>
</g>
</g>
</g>
</svg>

<g id="navigator" transform="translate(0 0)" fill="#404254">
  <rect fill="#f2f5e9" fill-opacity="0.5" stroke="#606060" stroke-width=".5" x="0" y="0" width="60" height="60"/>
  <use id="zoomplus" xlink:href="#zoomPlus" x="17" y="9" onmousedown="handleZoom(evt,'in')"/>
  <use id="zoomminus" xlink:href="#zoomMin" x="42" y="9" onmousedown="handleZoom(evt,'out')"/>
  <use id="reset" xlink:href="#resetDef" x="30" y="36" onmousedown="handleReset()"/>
   <use id="arrowup" xlink:href="#arrowUp" x="0" y="0" onmousedown="handlePan(0,-1)"/>
  <use id="arrowright" xlink:href="#arrowRight" x="0" y="0" onmousedown="handlePan(1,0)"/>
  <use id="arrowdown" xlink:href="#arrowDown" x="0" y="0" onmousedown="handlePan(0,1)"/>
  <use id="arrowleft" xlink:href="#arrowLeft" x="0" y="0" onmousedown="handlePan(-1,0)"/>
</g>
<svg viewBox="0 0 15 15" width="100%" height="30px" preserveAspectRatio="xMaxYMin meet">
 <g id="arrow_out" transform="scale(0.3 0.3)">
  <a xlink:href="classRemoteDeckList__TreeModel_a5e2cf74e3c3193fd36019b14b24d6df3_icgraph_org.svg" target="_base">
   <rect id="button" ry="5" rx="5" y="6" x="6" height="38" width="38"
        fill="#f2f5e9" fill-opacity="0.5" stroke="#606060" stroke-width="1.0"/>
   <path id="arrow"
     d="M 11.500037,31.436501 C 11.940474,20.09759 22.043105,11.32322 32.158766,21.979434 L 37.068811,17.246167 C 37.068811,17.246167 37.088388,32 37.088388,32 L 22.160133,31.978069 C 22.160133,31.978069 26.997745,27.140456 26.997745,27.140456 C 18.528582,18.264221 13.291696,25.230495 11.500037,31.436501 z"
     style="fill:#404040;"/>
  </a>
 </g>
</svg>

<style type='text/css'>
<![CDATA[
[data-mouse-over-selected='false'] { opacity: 0.7; }
[data-mouse-over-selected='true']  { opacity: 1.0; }
]]>
</style>
<script type="application/ecmascript"><![CDATA[
document.addEventListener('DOMContentLoaded', (event) => {
  highlightEdges();
  highlightAdjacentNodes();
});
]]></script>
</svg>
