<?xml version="1.0" encoding="UTF-8" standalone="no"?>
<!DOCTYPE svg PUBLIC "-//W3C//DTD SVG 1.1//EN"
 "http://www.w3.org/Graphics/SVG/1.1/DTD/svg11.dtd">
<!-- Generated by graphviz version 2.43.0 (0)
 -->
<!-- Title: DeckList::addCard Pages: 1 -->
<svg width="489pt" height="76pt"
 viewBox="0.00 0.00 489.00 75.50" xmlns="http://www.w3.org/2000/svg" xmlns:xlink="http://www.w3.org/1999/xlink">
<g id="graph0" class="graph" transform="scale(1 1) rotate(0) translate(4 71.5)">
<title>DeckList::addCard</title>
<!-- Node1 -->
<g id="Node000001" class="node">
<title>Node1</title>
<g id="a_Node000001"><a xlink:title=" ">
<polygon fill="#999999" stroke="#666666" points="105,-40 0,-40 0,-21 105,-21 105,-40"/>
<text text-anchor="middle" x="52.5" y="-28" font-family="Helvetica,sans-Serif" font-size="10.00">DeckList::addCard</text>
</a>
</g>
</g>
<!-- Node2 -->
<g id="Node000002" class="node">
<title>Node2</title>
<g id="a_Node000002"><a xlink:href="../../d4/d55/classInnerDecklistNode.html#adfb9abd7de7ce169130d9ca4672f0299" target="_top" xlink:title="Find a direct child node by name.">
<polygon fill="white" stroke="#666666" points="272,-67.5 159,-67.5 159,-37.5 272,-37.5 272,-67.5"/>
<text text-anchor="start" x="167" y="-55.5" font-family="Helvetica,sans-Serif" font-size="10.00">InnerDecklistNode::</text>
<text text-anchor="middle" x="215.5" y="-44.5" font-family="Helvetica,sans-Serif" font-size="10.00">findChild</text>
</a>
</g>
</g>
<!-- Node1&#45;&gt;Node2 -->
<g id="edge1_Node000001_Node000002" class="edge">
<title>Node1&#45;&gt;Node2</title>
<g id="a_edge1_Node000001_Node000002"><a xlink:title=" ">
<path fill="none" stroke="#63b8ff" d="M105.33,-37.58C120.69,-39.68 137.65,-42 153.54,-44.17"/>
<polygon fill="#63b8ff" stroke="#63b8ff" points="158.88,-44.9 153.62,-46.45 156.4,-44.56 153.92,-44.22 153.92,-44.22 153.92,-44.22 156.4,-44.56 154.23,-41.99 158.88,-44.9 158.88,-44.9"/>
</a>
</g>
</g>
<!-- Node3 -->
<g id="Node000003" class="node">
<title>Node3</title>
<g id="a_Node000003"><a xlink:href="../../da/d68/classDeckList.html#a4854d1f1622e53e8d0261b0536f7c546" target="_top" xlink:title=" ">
<polygon fill="white" stroke="#666666" points="290,-19 141,-19 141,0 290,0 290,-19"/>
<text text-anchor="middle" x="215.5" y="-7" font-family="Helvetica,sans-Serif" font-size="10.00">DeckList::refreshDeckHash</text>
</a>
</g>
</g>
<!-- Node1&#45;&gt;Node3 -->
<g id="edge2_Node000001_Node000003" class="edge">
<title>Node1&#45;&gt;Node3</title>
<g id="a_edge2_Node000001_Node000003"><a xlink:title=" ">
<path fill="none" stroke="#63b8ff" d="M105.33,-23.74C115.28,-22.44 125.91,-21.06 136.48,-19.68"/>
<polygon fill="#63b8ff" stroke="#63b8ff" points="141.66,-19 136.99,-21.88 139.18,-19.32 136.7,-19.65 136.7,-19.65 136.7,-19.65 139.18,-19.32 136.41,-17.42 141.66,-19 141.66,-19"/>
</a>
</g>
</g>
<!-- Node4 -->
<g id="Node000004" class="node">
<title>Node4</title>
<g id="a_Node000004"><a xlink:href="../../da/d68/classDeckList.html#a84c26306d85f7d18fcd3c21d618b7601" target="_top" xlink:title="Emitted when the deck hash changes.">
<polygon fill="white" stroke="#666666" points="481,-19 326,-19 326,0 481,0 481,-19"/>
<text text-anchor="middle" x="403.5" y="-7" font-family="Helvetica,sans-Serif" font-size="10.00">DeckList::deckHashChanged</text>
</a>
</g>
</g>
<!-- Node3&#45;&gt;Node4 -->
<g id="edge3_Node000003_Node000004" class="edge">
<title>Node3&#45;&gt;Node4</title>
<g id="a_edge3_Node000003_Node000004"><a xlink:title=" ">
<path fill="none" stroke="#63b8ff" d="M290.01,-9.5C300.13,-9.5 310.58,-9.5 320.84,-9.5"/>
<polygon fill="#63b8ff" stroke="#63b8ff" points="325.86,-9.5 320.86,-11.75 323.36,-9.5 320.86,-9.5 320.86,-9.5 320.86,-9.5 323.36,-9.5 320.86,-7.25 325.86,-9.5 325.86,-9.5"/>
</a>
</g>
</g>
</g>
</svg>
