<?xml version="1.0" encoding="UTF-8" standalone="no"?>
<!DOCTYPE svg PUBLIC "-//W3C//DTD SVG 1.1//EN"
 "http://www.w3.org/Graphics/SVG/1.1/DTD/svg11.dtd">
<!-- Generated by graphviz version 2.43.0 (0)
 -->
<!-- Title: DeckList::loadFromString_Native Pages: 1 -->
<!--zoomable 121 -->

<svg id="main" version="1.1" xmlns="http://www.w3.org/2000/svg" xmlns:xlink="http://www.w3.org/1999/xlink" xml:space="preserve" onload="init(evt)">

<style type="text/css"><![CDATA[
.node, .edge {opacity: 0.7;}
.node.selected, .edge.selected {opacity: 1;}
.edge:hover path { stroke: red; }
.edge:hover polygon { stroke: red; fill: red; }
]]></style>

<defs>
  <circle id="rim" cx="0" cy="0" r="7"/>
  <circle id="rim2" cx="0" cy="0" r="3.5"/>
  <g id="zoomPlus">
    <use xlink:href="#rim" fill="#404040"><set attributeName="fill" to="#808080" begin="zoomplus.mouseover" end="zoomplus.mouseout"/></use>
    <path d="M-4,0h8M0,-4v8" fill="none" stroke="white" stroke-width="1.5" pointer-events="none"/>
  </g>
  <g id="zoomMin">
    <use xlink:href="#rim" fill="#404040"><set attributeName="fill" to="#808080" begin="zoomminus.mouseover" end="zoomminus.mouseout"/></use>
    <path d="M-4,0h8" fill="none" stroke="white" stroke-width="1.5" pointer-events="none"/>
  </g>
  <g id="arrowUp" transform="translate(30 24)">
    <use xlink:href="#rim"/>
    <path pointer-events="none" fill="none" stroke="white" stroke-width="1.5" d="M0,-3.0v7 M-2.5,-0.5L0,-3.0L2.5,-0.5"/>
  </g>
  <g id="arrowRight" transform="rotate(90) translate(36 -43)">
    <use xlink:href="#rim"/>
    <path pointer-events="none" fill="none" stroke="white" stroke-width="1.5" d="M0,-3.0v7 M-2.5,-0.5L0,-3.0L2.5,-0.5"/>
  </g>
  <g id="arrowDown" transform="rotate(180) translate(-30 -48)">
    <use xlink:href="#rim"/>
    <path pointer-events="none" fill="none" stroke="white" stroke-width="1.5" d="M0,-3.0v7 M-2.5,-0.5L0,-3.0L2.5,-0.5"/>
  </g>
  <g id="arrowLeft" transform="rotate(270) translate(-36 17)">
    <use xlink:href="#rim"/>
    <path pointer-events="none" fill="none" stroke="white" stroke-width="1.5" d="M0,-3.0v7 M-2.5,-0.5L0,-3.0L2.5,-0.5"/>
  </g>
  <g id="resetDef">
    <use xlink:href="#rim2" fill="#404040"><set attributeName="fill" to="#808080" begin="reset.mouseover" end="reset.mouseout"/></use>
  </g>
</defs>
<script type="application/ecmascript">
var viewWidth = 667;
var viewHeight = 121;
var sectionId = 'dynsection-26';
</script>
<script type="application/ecmascript" xlink:href="../../svg.min.js"/>
<svg id="graph" class="graph">
<g id="viewport">
<title>DeckList::loadFromString_Native</title>
<!-- Node1 -->
<g id="Node000001" class="node">
<title>Node1</title>
<g id="a_Node000001"><a xlink:title=" ">
<polygon fill="#999999" stroke="#666666" points="139,-80.5 0,-80.5 0,-50.5 139,-50.5 139,-80.5"/>
<text text-anchor="start" x="8" y="-68.5" font-family="Helvetica,sans-Serif" font-size="10.00">DeckList::loadFromString</text>
<text text-anchor="middle" x="69.5" y="-57.5" font-family="Helvetica,sans-Serif" font-size="10.00">_Native</text>
</a>
</g>
</g>
<!-- Node2 -->
<g id="Node000002" class="node">
<title>Node2</title>
<g id="a_Node000002"><a xlink:href="../../da/d68/classDeckList.html#a79ee05fb6b1be4dcf5d07cab77c39437" target="_top" xlink:title=" ">
<polygon fill="white" stroke="#666666" points="305,-75 175,-75 175,-56 305,-56 305,-75"/>
<text text-anchor="middle" x="240" y="-63" font-family="Helvetica,sans-Serif" font-size="10.00">DeckList::loadFromXml</text>
</a>
</g>
</g>
<!-- Node1&#45;&gt;Node2 -->
<g id="edge1_Node000001_Node000002" class="edge">
<title>Node1&#45;&gt;Node2</title>
<g id="a_edge1_Node000001_Node000002"><a xlink:title=" ">
<path fill="none" stroke="#63b8ff" d="M139.04,-65.5C149.12,-65.5 159.52,-65.5 169.62,-65.5"/>
<polygon fill="#63b8ff" stroke="#63b8ff" points="174.88,-65.5 169.88,-67.75 172.38,-65.5 169.88,-65.5 169.88,-65.5 169.88,-65.5 172.38,-65.5 169.88,-63.25 174.88,-65.5 174.88,-65.5"/>
</a>
</g>
</g>
<!-- Node3 -->
<g id="Node000003" class="node">
<title>Node3</title>
<g id="a_Node000003"><a xlink:href="../../da/d68/classDeckList.html#a773dea93b32b04d5251565251b4800ea" target="_top" xlink:title=" ">
<polygon fill="white" stroke="#666666" points="458.5,-113 350.5,-113 350.5,-94 458.5,-94 458.5,-113"/>
<text text-anchor="middle" x="404.5" y="-101" font-family="Helvetica,sans-Serif" font-size="10.00">DeckList::cleanList</text>
</a>
</g>
</g>
<!-- Node2&#45;&gt;Node3 -->
<g id="edge2_Node000002_Node000003" class="edge">
<title>Node2&#45;&gt;Node3</title>
<g id="a_edge2_Node000002_Node000003"><a xlink:title=" ">
<path fill="none" stroke="#63b8ff" d="M282.01,-75.09C305.09,-80.49 333.98,-87.24 357.79,-92.81"/>
<polygon fill="#63b8ff" stroke="#63b8ff" points="362.79,-93.98 357.41,-95.03 360.35,-93.41 357.92,-92.84 357.92,-92.84 357.92,-92.84 360.35,-93.41 358.43,-90.65 362.79,-93.98 362.79,-93.98"/>
</a>
</g>
</g>
<!-- Node4 -->
<g id="Node000004" class="node">
<title>Node4</title>
<g id="a_Node000004"><a xlink:href="../../da/d68/classDeckList.html#a4854d1f1622e53e8d0261b0536f7c546" target="_top" xlink:title=" ">
<polygon fill="white" stroke="#666666" points="656,-103 507,-103 507,-84 656,-84 656,-103"/>
<text text-anchor="middle" x="581.5" y="-91" font-family="Helvetica,sans-Serif" font-size="10.00">DeckList::refreshDeckHash</text>
</a>
</g>
</g>
<!-- Node2&#45;&gt;Node4 -->
<g id="edge7_Node000002_Node000004" class="edge">
<title>Node2&#45;&gt;Node4</title>
<g id="a_edge7_Node000002_Node000004"><a xlink:title=" ">
<path fill="none" stroke="#63b8ff" d="M305.26,-70.8C360.96,-75.39 441.77,-82.06 501.43,-86.98"/>
<polygon fill="#63b8ff" stroke="#63b8ff" points="506.77,-87.42 501.6,-89.25 504.28,-87.21 501.78,-87.01 501.78,-87.01 501.78,-87.01 504.28,-87.21 501.97,-84.77 506.77,-87.42 506.77,-87.42"/>
</a>
</g>
</g>
<!-- Node5 -->
<g id="Node000005" class="node">
<title>Node5</title>
<g id="a_Node000005"><a xlink:href="../../da/d68/classDeckList.html#a011d41232bbf43b948d82271a49fa4d8" target="_top" xlink:title=" ">
<polygon fill="white" stroke="#666666" points="468,-37 341,-37 341,-18 468,-18 468,-37"/>
<text text-anchor="middle" x="404.5" y="-25" font-family="Helvetica,sans-Serif" font-size="10.00">DeckList::readElement</text>
</a>
</g>
</g>
<!-- Node2&#45;&gt;Node5 -->
<g id="edge4_Node000002_Node000005" class="edge">
<title>Node2&#45;&gt;Node5</title>
<g id="a_edge4_Node000002_Node000005"><a xlink:title=" ">
<path fill="none" stroke="#63b8ff" d="M282.01,-55.91C305.09,-50.51 333.98,-43.76 357.79,-38.19"/>
<polygon fill="#63b8ff" stroke="#63b8ff" points="362.79,-37.02 358.43,-40.35 360.35,-37.59 357.92,-38.16 357.92,-38.16 357.92,-38.16 360.35,-37.59 357.41,-35.97 362.79,-37.02 362.79,-37.02"/>
</a>
</g>
</g>
<!-- Node3&#45;&gt;Node4 -->
<g id="edge3_Node000003_Node000004" class="edge">
<title>Node3&#45;&gt;Node4</title>
<g id="a_edge3_Node000003_Node000004"><a xlink:title=" ">
<path fill="none" stroke="#63b8ff" d="M458.96,-100.45C472.39,-99.68 487.08,-98.84 501.47,-98.02"/>
<polygon fill="#63b8ff" stroke="#63b8ff" points="506.75,-97.71 501.89,-100.25 504.26,-97.86 501.76,-98 501.76,-98 501.76,-98 504.26,-97.86 501.63,-95.75 506.75,-97.71 506.75,-97.71"/>
</a>
</g>
</g>
<!-- Node6 -->
<g id="Node000006" class="node">
<title>Node6</title>
<g id="a_Node000006"><a xlink:href="../../dc/d8b/classSideboardPlan.html#a9becc8f13ae1fcb944970547c4eeaf34" target="_top" xlink:title=" ">
<polygon fill="white" stroke="#666666" points="650,-56 513,-56 513,-37 650,-37 650,-56"/>
<text text-anchor="middle" x="581.5" y="-44" font-family="Helvetica,sans-Serif" font-size="10.00">SideboardPlan::getName</text>
</a>
</g>
</g>
<!-- Node5&#45;&gt;Node6 -->
<g id="edge5_Node000005_Node000006" class="edge">
<title>Node5&#45;&gt;Node6</title>
<g id="a_edge5_Node000005_Node000006"><a xlink:title=" ">
<path fill="none" stroke="#63b8ff" d="M468.18,-34.31C481,-35.7 494.59,-37.17 507.72,-38.6"/>
<polygon fill="#63b8ff" stroke="#63b8ff" points="512.92,-39.16 507.71,-40.86 510.44,-38.89 507.95,-38.62 507.95,-38.62 507.95,-38.62 510.44,-38.89 508.19,-36.39 512.92,-39.16 512.92,-39.16"/>
</a>
</g>
</g>
<!-- Node7 -->
<g id="Node000007" class="node">
<title>Node7</title>
<g id="a_Node000007"><a xlink:href="../../dc/d8b/classSideboardPlan.html#a968cef119c90e00140629c0ea98be828" target="_top" xlink:title="Read a SideboardPlan from an XML stream.">
<polygon fill="white" stroke="#666666" points="659,-19 504,-19 504,0 659,0 659,-19"/>
<text text-anchor="middle" x="581.5" y="-7" font-family="Helvetica,sans-Serif" font-size="10.00">SideboardPlan::readElement</text>
</a>
</g>
</g>
<!-- Node5&#45;&gt;Node7 -->
<g id="edge6_Node000005_Node000007" class="edge">
<title>Node5&#45;&gt;Node7</title>
<g id="a_edge6_Node000005_Node000007"><a xlink:title=" ">
<path fill="none" stroke="#63b8ff" d="M468.18,-21.05C478.13,-20.03 488.54,-18.96 498.84,-17.9"/>
<polygon fill="#63b8ff" stroke="#63b8ff" points="503.89,-17.38 499.15,-20.13 501.4,-17.64 498.92,-17.89 498.92,-17.89 498.92,-17.89 501.4,-17.64 498.69,-15.65 503.89,-17.38 503.89,-17.38"/>
</a>
</g>
</g>
</g>
</svg>

<g id="navigator" transform="translate(0 0)" fill="#404254">
  <rect fill="#f2f5e9" fill-opacity="0.5" stroke="#606060" stroke-width=".5" x="0" y="0" width="60" height="60"/>
  <use id="zoomplus" xlink:href="#zoomPlus" x="17" y="9" onmousedown="handleZoom(evt,'in')"/>
  <use id="zoomminus" xlink:href="#zoomMin" x="42" y="9" onmousedown="handleZoom(evt,'out')"/>
  <use id="reset" xlink:href="#resetDef" x="30" y="36" onmousedown="handleReset()"/>
   <use id="arrowup" xlink:href="#arrowUp" x="0" y="0" onmousedown="handlePan(0,-1)"/>
  <use id="arrowright" xlink:href="#arrowRight" x="0" y="0" onmousedown="handlePan(1,0)"/>
  <use id="arrowdown" xlink:href="#arrowDown" x="0" y="0" onmousedown="handlePan(0,1)"/>
  <use id="arrowleft" xlink:href="#arrowLeft" x="0" y="0" onmousedown="handlePan(-1,0)"/>
</g>
<svg viewBox="0 0 15 15" width="100%" height="30px" preserveAspectRatio="xMaxYMin meet">
 <g id="arrow_out" transform="scale(0.3 0.3)">
  <a xlink:href="classDeckList_a3d51a040ee02249b4e4623988f9dd041_cgraph_org.svg" target="_base">
   <rect id="button" ry="5" rx="5" y="6" x="6" height="38" width="38"
        fill="#f2f5e9" fill-opacity="0.5" stroke="#606060" stroke-width="1.0"/>
   <path id="arrow"
     d="M 11.500037,31.436501 C 11.940474,20.09759 22.043105,11.32322 32.158766,21.979434 L 37.068811,17.246167 C 37.068811,17.246167 37.088388,32 37.088388,32 L 22.160133,31.978069 C 22.160133,31.978069 26.997745,27.140456 26.997745,27.140456 C 18.528582,18.264221 13.291696,25.230495 11.500037,31.436501 z"
     style="fill:#404040;"/>
  </a>
 </g>
</svg>

<style type='text/css'>
<![CDATA[
[data-mouse-over-selected='false'] { opacity: 0.7; }
[data-mouse-over-selected='true']  { opacity: 1.0; }
]]>
</style>
<script type="application/ecmascript"><![CDATA[
document.addEventListener('DOMContentLoaded', (event) => {
  highlightEdges();
  highlightAdjacentNodes();
});
]]></script>
</svg>
