<?xml version="1.0" encoding="UTF-8" standalone="no"?>
<!DOCTYPE svg PUBLIC "-//W3C//DTD SVG 1.1//EN"
 "http://www.w3.org/Graphics/SVG/1.1/DTD/svg11.dtd">
<!-- Generated by graphviz version 2.43.0 (0)
 -->
<!-- Title: SetEntryWidget::populateCardList Pages: 1 -->
<svg width="1300pt" height="385pt"
 viewBox="0.00 0.00 1300.00 384.50" xmlns="http://www.w3.org/2000/svg" xmlns:xlink="http://www.w3.org/1999/xlink">
<g id="graph0" class="graph" transform="scale(1 1) rotate(0) translate(4 380.5)">
<title>SetEntryWidget::populateCardList</title>
<!-- Node1 -->
<g id="Node000001" class="node">
<title>Node1</title>
<g id="a_Node000001"><a xlink:title=" ">
<polygon fill="#999999" stroke="#666666" points="141,-296 0,-296 0,-266 141,-266 141,-296"/>
<text text-anchor="start" x="8" y="-284" font-family="Helvetica,sans-Serif" font-size="10.00">SetEntryWidget::populate</text>
<text text-anchor="middle" x="70.5" y="-273" font-family="Helvetica,sans-Serif" font-size="10.00">CardList</text>
</a>
</g>
</g>
<!-- Node2 -->
<g id="Node000002" class="node">
<title>Node2</title>
<g id="a_Node000002"><a xlink:href="../../d4/d56/classSetEntryWidget.html#ab8a8a56f5c5bedb9d8ddd017c1281799" target="_top" xlink:title=" ">
<polygon fill="white" stroke="#666666" points="347,-376.5 177,-376.5 177,-357.5 347,-357.5 347,-376.5"/>
<text text-anchor="middle" x="262" y="-364.5" font-family="Helvetica,sans-Serif" font-size="10.00">SetEntryWidget::checkVisibility</text>
</a>
</g>
</g>
<!-- Node1&#45;&gt;Node2 -->
<g id="edge1_Node000001_Node000002" class="edge">
<title>Node1&#45;&gt;Node2</title>
<g id="a_edge1_Node000001_Node000002"><a xlink:title=" ">
<path fill="none" stroke="#63b8ff" d="M90.6,-296.01C110.92,-311.26 144.55,-334.5 177,-348 184.55,-351.14 192.7,-353.8 200.85,-356.05"/>
<polygon fill="#63b8ff" stroke="#63b8ff" points="205.93,-357.4 200.52,-358.29 203.51,-356.76 201.1,-356.12 201.1,-356.12 201.1,-356.12 203.51,-356.76 201.67,-353.94 205.93,-357.4 205.93,-357.4"/>
</a>
</g>
</g>
<!-- Node3 -->
<g id="Node000003" class="node">
<title>Node3</title>
<g id="a_Node000003"><a xlink:href="../../d4/d56/classSetEntryWidget.html#a38613fad5347fc2c226702924f26b4b3" target="_top" xlink:title=" ">
<polygon fill="white" stroke="#666666" points="339.5,-339 184.5,-339 184.5,-309 339.5,-309 339.5,-339"/>
<text text-anchor="start" x="192.5" y="-327" font-family="Helvetica,sans-Serif" font-size="10.00">SetEntryWidget::getAllCards</text>
<text text-anchor="middle" x="262" y="-316" font-family="Helvetica,sans-Serif" font-size="10.00">ForSet</text>
</a>
</g>
</g>
<!-- Node1&#45;&gt;Node3 -->
<g id="edge2_Node000001_Node000003" class="edge">
<title>Node1&#45;&gt;Node3</title>
<g id="a_edge2_Node000001_Node000003"><a xlink:title=" ">
<path fill="none" stroke="#63b8ff" d="M137.78,-296.04C154.51,-299.84 172.55,-303.93 189.53,-307.78"/>
<polygon fill="#63b8ff" stroke="#63b8ff" points="194.76,-308.97 189.39,-310.06 192.32,-308.42 189.88,-307.86 189.88,-307.86 189.88,-307.86 192.32,-308.42 190.38,-305.67 194.76,-308.97 194.76,-308.97"/>
</a>
</g>
</g>
<!-- Node4 -->
<g id="Node000004" class="node">
<title>Node4</title>
<g id="a_Node000004"><a xlink:href="../../d4/d56/classSetEntryWidget.html#a77bd230191d41e651fe7358d0f0c3aa5" target="_top" xlink:title=" ">
<polygon fill="white" stroke="#666666" points="336,-290.5 188,-290.5 188,-271.5 336,-271.5 336,-290.5"/>
<text text-anchor="middle" x="262" y="-278.5" font-family="Helvetica,sans-Serif" font-size="10.00">SetEntryWidget::isChecked</text>
</a>
</g>
</g>
<!-- Node1&#45;&gt;Node4 -->
<g id="edge3_Node000001_Node000004" class="edge">
<title>Node1&#45;&gt;Node4</title>
<g id="a_edge3_Node000001_Node000004"><a xlink:title=" ">
<path fill="none" stroke="#63b8ff" d="M141.26,-281C154.79,-281 169.06,-281 182.84,-281"/>
<polygon fill="#63b8ff" stroke="#63b8ff" points="187.9,-281 182.9,-283.25 185.4,-281 182.9,-281 182.9,-281 182.9,-281 185.4,-281 182.9,-278.75 187.9,-281 187.9,-281"/>
</a>
</g>
</g>
<!-- Node5 -->
<g id="Node000005" class="node">
<title>Node5</title>
<g id="a_Node000005"><a xlink:href="../../d4/d56/classSetEntryWidget.html#ae6e378ec4d7871aa2eb1b7b79de0db4a" target="_top" xlink:title=" ">
<polygon fill="white" stroke="#666666" points="332,-253 192,-253 192,-223 332,-223 332,-253"/>
<text text-anchor="start" x="200" y="-241" font-family="Helvetica,sans-Serif" font-size="10.00">SetEntryWidget::SetEntry</text>
<text text-anchor="middle" x="262" y="-230" font-family="Helvetica,sans-Serif" font-size="10.00">Widget</text>
</a>
</g>
</g>
<!-- Node1&#45;&gt;Node5 -->
<g id="edge4_Node000001_Node000005" class="edge">
<title>Node1&#45;&gt;Node5</title>
<g id="a_edge4_Node000001_Node000005"><a xlink:title=" ">
<path fill="none" stroke="#63b8ff" d="M137.78,-265.96C154.51,-262.16 172.55,-258.07 189.53,-254.22"/>
<polygon fill="#63b8ff" stroke="#63b8ff" points="194.76,-253.03 190.38,-256.33 192.32,-253.58 189.88,-254.14 189.88,-254.14 189.88,-254.14 192.32,-253.58 189.39,-251.94 194.76,-253.03 194.76,-253.03"/>
</a>
</g>
</g>
<!-- Node6 -->
<g id="Node000006" class="node">
<title>Node6</title>
<g id="a_Node000006"><a xlink:href="../../dc/db4/classCardDatabaseManager.html#ad3973b040eb93df3be6bd2e790c53d59" target="_top" xlink:title="Returns the singleton CardDatabase instance.">
<polygon fill="white" stroke="#666666" points="1088,-250 960,-250 960,-220 1088,-220 1088,-250"/>
<text text-anchor="start" x="968" y="-238" font-family="Helvetica,sans-Serif" font-size="10.00">CardDatabaseManager</text>
<text text-anchor="middle" x="1024" y="-227" font-family="Helvetica,sans-Serif" font-size="10.00">::getInstance</text>
</a>
</g>
</g>
<!-- Node5&#45;&gt;Node6 -->
<g id="edge5_Node000005_Node000006" class="edge">
<title>Node5&#45;&gt;Node6</title>
<g id="a_edge5_Node000005_Node000006"><a xlink:title=" ">
<path fill="none" stroke="#63b8ff" d="M332.12,-237.73C476.95,-237.16 810.74,-235.84 954.78,-235.27"/>
<polygon fill="#63b8ff" stroke="#63b8ff" points="959.83,-235.25 954.83,-237.52 957.33,-235.26 954.83,-235.27 954.83,-235.27 954.83,-235.27 957.33,-235.26 954.82,-233.02 959.83,-235.25 959.83,-235.25"/>
</a>
</g>
</g>
<!-- Node7 -->
<g id="Node000007" class="node">
<title>Node7</title>
<g id="a_Node000007"><a xlink:href="../../d5/d45/classCardDatabase.html#a804c373bf269ec2a30158ebca1f6c768" target="_top" xlink:title="Retrieves a set by short name, creating a new one if missing.">
<polygon fill="white" stroke="#666666" points="534,-282.5 411,-282.5 411,-263.5 534,-263.5 534,-282.5"/>
<text text-anchor="middle" x="472.5" y="-270.5" font-family="Helvetica,sans-Serif" font-size="10.00">CardDatabase::getSet</text>
</a>
</g>
</g>
<!-- Node5&#45;&gt;Node7 -->
<g id="edge6_Node000005_Node000007" class="edge">
<title>Node5&#45;&gt;Node7</title>
<g id="a_edge6_Node000005_Node000007"><a xlink:title=" ">
<path fill="none" stroke="#63b8ff" d="M332.14,-249.61C357.15,-253.8 385.21,-258.52 409.57,-262.6"/>
<polygon fill="#63b8ff" stroke="#63b8ff" points="414.7,-263.47 409.4,-264.86 412.24,-263.05 409.77,-262.64 409.77,-262.64 409.77,-262.64 412.24,-263.05 410.15,-260.42 414.7,-263.47 414.7,-263.47"/>
</a>
</g>
</g>
<!-- Node11 -->
<g id="Node000011" class="node">
<title>Node11</title>
<g id="a_Node000011"><a xlink:href="../../d4/d56/classSetEntryWidget.html#a733aefaad3f256a17bb3d554aa2083f6" target="_top" xlink:title=" ">
<polygon fill="white" stroke="#666666" points="562,-204.5 383,-204.5 383,-185.5 562,-185.5 562,-204.5"/>
<text text-anchor="middle" x="472.5" y="-192.5" font-family="Helvetica,sans-Serif" font-size="10.00">SetEntryWidget::toggleExpansion</text>
</a>
</g>
</g>
<!-- Node5&#45;&gt;Node11 -->
<g id="edge10_Node000005_Node000011" class="edge">
<title>Node5&#45;&gt;Node11</title>
<g id="a_edge10_Node000005_Node000011"><a xlink:title=" ">
<path fill="none" stroke="#63b8ff" d="M332.14,-223.74C360.81,-217.83 393.49,-211.09 420,-205.62"/>
<polygon fill="#63b8ff" stroke="#63b8ff" points="425.22,-204.55 420.77,-207.76 422.77,-205.05 420.32,-205.56 420.32,-205.56 420.32,-205.56 422.77,-205.05 419.86,-203.35 425.22,-204.55 425.22,-204.55"/>
</a>
</g>
</g>
<!-- Node23 -->
<g id="Node000023" class="node">
<title>Node23</title>
<g id="a_Node000023"><a xlink:href="../../de/d26/classDlgSelectSetForCards.html#a9b0f2efd68780a09781ef19472c1a5b1" target="_top" xlink:title=" ">
<polygon fill="white" stroke="#666666" points="533.5,-331 411.5,-331 411.5,-301 533.5,-301 533.5,-331"/>
<text text-anchor="start" x="419.5" y="-319" font-family="Helvetica,sans-Serif" font-size="10.00">DlgSelectSetForCards</text>
<text text-anchor="middle" x="472.5" y="-308" font-family="Helvetica,sans-Serif" font-size="10.00">::updateLayoutOrder</text>
</a>
</g>
</g>
<!-- Node5&#45;&gt;Node23 -->
<g id="edge25_Node000005_Node000023" class="edge">
<title>Node5&#45;&gt;Node23</title>
<g id="a_edge25_Node000005_Node000023"><a xlink:title=" ">
<path fill="none" stroke="#63b8ff" d="M326.45,-253.15C333.54,-255.71 340.54,-258.65 347,-262 365.24,-271.45 364.75,-281.57 383,-291 390.28,-294.76 398.21,-298.02 406.22,-300.83"/>
<polygon fill="#63b8ff" stroke="#63b8ff" points="411.21,-302.51 405.75,-303.04 408.84,-301.71 406.47,-300.91 406.47,-300.91 406.47,-300.91 408.84,-301.71 407.2,-298.78 411.21,-302.51 411.21,-302.51"/>
</a>
</g>
</g>
<!-- Node8 -->
<g id="Node000008" class="node">
<title>Node8</title>
<g id="a_Node000008"><a xlink:href="../../d6/d3d/classCardSet.html#ad03e76c9ff4ce7669d0454525afd1d16" target="_top" xlink:title="Creates and returns a new shared CardSet instance.">
<polygon fill="white" stroke="#666666" points="736.5,-282.5 614.5,-282.5 614.5,-263.5 736.5,-263.5 736.5,-282.5"/>
<text text-anchor="middle" x="675.5" y="-270.5" font-family="Helvetica,sans-Serif" font-size="10.00">CardSet::newInstance</text>
</a>
</g>
</g>
<!-- Node7&#45;&gt;Node8 -->
<g id="edge7_Node000007_Node000008" class="edge">
<title>Node7&#45;&gt;Node8</title>
<g id="a_edge7_Node000007_Node000008"><a xlink:title=" ">
<path fill="none" stroke="#63b8ff" d="M534.08,-273C557.82,-273 585.11,-273 609.28,-273"/>
<polygon fill="#63b8ff" stroke="#63b8ff" points="614.39,-273 609.39,-275.25 611.89,-273 609.39,-273 609.39,-273 609.39,-273 611.89,-273 609.39,-270.75 614.39,-273 614.39,-273"/>
</a>
</g>
</g>
<!-- Node9 -->
<g id="Node000009" class="node">
<title>Node9</title>
<g id="a_Node000009"><a xlink:href="../../d6/d3d/classCardSet.html#ac38426b471a1ebc442f4eaae615a2ed3" target="_top" xlink:title="Constructs a CardSet.">
<polygon fill="white" stroke="#666666" points="902.5,-284.5 803.5,-284.5 803.5,-265.5 902.5,-265.5 902.5,-284.5"/>
<text text-anchor="middle" x="853" y="-272.5" font-family="Helvetica,sans-Serif" font-size="10.00">CardSet::CardSet</text>
</a>
</g>
</g>
<!-- Node8&#45;&gt;Node9 -->
<g id="edge8_Node000008_Node000009" class="edge">
<title>Node8&#45;&gt;Node9</title>
<g id="a_edge8_Node000008_Node000009"><a xlink:title=" ">
<path fill="none" stroke="#63b8ff" d="M736.9,-273.69C756.75,-273.91 778.67,-274.16 798.01,-274.38"/>
<polygon fill="#63b8ff" stroke="#63b8ff" points="803.39,-274.45 798.37,-276.64 800.89,-274.42 798.39,-274.39 798.39,-274.39 798.39,-274.39 800.89,-274.42 798.42,-272.14 803.39,-274.45 803.39,-274.45"/>
</a>
</g>
</g>
<!-- Node10 -->
<g id="Node000010" class="node">
<title>Node10</title>
<g id="a_Node000010"><a xlink:href="../../d6/d3d/classCardSet.html#aac8f4705062d24c60f31b02617a931f4" target="_top" xlink:title="Loads state values (enabled, known, sort key) from configuration.">
<polygon fill="white" stroke="#666666" points="1091.5,-287.5 956.5,-287.5 956.5,-268.5 1091.5,-268.5 1091.5,-287.5"/>
<text text-anchor="middle" x="1024" y="-275.5" font-family="Helvetica,sans-Serif" font-size="10.00">CardSet::loadSetOptions</text>
</a>
</g>
</g>
<!-- Node9&#45;&gt;Node10 -->
<g id="edge9_Node000009_Node000010" class="edge">
<title>Node9&#45;&gt;Node10</title>
<g id="a_edge9_Node000009_Node000010"><a xlink:title=" ">
<path fill="none" stroke="#63b8ff" d="M902.88,-275.87C917.99,-276.14 934.96,-276.44 951.27,-276.73"/>
<polygon fill="#63b8ff" stroke="#63b8ff" points="956.31,-276.82 951.27,-278.98 953.81,-276.77 951.31,-276.73 951.31,-276.73 951.31,-276.73 953.81,-276.77 951.35,-274.48 956.31,-276.82 956.31,-276.82"/>
</a>
</g>
</g>
<!-- Node11&#45;&gt;Node1 -->
<g id="edge11_Node000011_Node000001" class="edge">
<title>Node11&#45;&gt;Node1</title>
<g id="a_edge11_Node000011_Node000001"><a xlink:title=" ">
<path fill="none" stroke="#63b8ff" d="M382.69,-189.39C323.09,-188.35 243.61,-192.29 177,-214 145.22,-224.36 113.49,-246.51 93.25,-262.51"/>
<polygon fill="#63b8ff" stroke="#63b8ff" points="89.11,-265.83 91.61,-260.95 91.06,-264.26 93.02,-262.7 93.02,-262.7 93.02,-262.7 91.06,-264.26 94.42,-264.46 89.11,-265.83 89.11,-265.83"/>
</a>
</g>
</g>
<!-- Node12 -->
<g id="Node000012" class="node">
<title>Node12</title>
<g id="a_Node000012"><a xlink:href="../../d4/d56/classSetEntryWidget.html#a60e55d78cda9f1038dd26e6a7cf88525" target="_top" xlink:title=" ">
<polygon fill="white" stroke="#666666" points="753,-151 598,-151 598,-121 753,-121 753,-151"/>
<text text-anchor="start" x="606" y="-139" font-family="Helvetica,sans-Serif" font-size="10.00">SetEntryWidget::updateCard</text>
<text text-anchor="middle" x="675.5" y="-128" font-family="Helvetica,sans-Serif" font-size="10.00">DisplayWidgets</text>
</a>
</g>
</g>
<!-- Node11&#45;&gt;Node12 -->
<g id="edge12_Node000011_Node000012" class="edge">
<title>Node11&#45;&gt;Node12</title>
<g id="a_edge12_Node000011_Node000012"><a xlink:title=" ">
<path fill="none" stroke="#63b8ff" d="M506.24,-185.39C536.58,-176.48 582.35,-163.05 618.49,-152.44"/>
<polygon fill="#63b8ff" stroke="#63b8ff" points="623.3,-151.03 619.14,-154.6 620.9,-151.73 618.5,-152.44 618.5,-152.44 618.5,-152.44 620.9,-151.73 617.87,-150.28 623.3,-151.03 623.3,-151.03"/>
</a>
</g>
</g>
<!-- Node13 -->
<g id="Node000013" class="node">
<title>Node13</title>
<g id="a_Node000013"><a xlink:href="../../d8/dbe/classCardDatabaseQuerier.html#a9290152b7a0d6f5adf643bba33d2cde7" target="_top" xlink:title="Retrieves a specific printing referenced by CardRef.">
<polygon fill="white" stroke="#666666" points="914,-87 792,-87 792,-57 914,-57 914,-87"/>
<text text-anchor="start" x="800" y="-75" font-family="Helvetica,sans-Serif" font-size="10.00">CardDatabaseQuerier</text>
<text text-anchor="middle" x="853" y="-64" font-family="Helvetica,sans-Serif" font-size="10.00">::getSpecificPrinting</text>
</a>
</g>
</g>
<!-- Node12&#45;&gt;Node13 -->
<g id="edge13_Node000012_Node000013" class="edge">
<title>Node12&#45;&gt;Node13</title>
<g id="a_edge13_Node000012_Node000013"><a xlink:title=" ">
<path fill="none" stroke="#63b8ff" d="M717.65,-120.99C744.07,-111.36 778.43,-98.83 805.78,-88.85"/>
<polygon fill="#63b8ff" stroke="#63b8ff" points="810.81,-87.02 806.88,-90.85 808.46,-87.88 806.11,-88.73 806.11,-88.73 806.11,-88.73 808.46,-87.88 805.34,-86.62 810.81,-87.02 810.81,-87.02"/>
</a>
</g>
</g>
<!-- Node16 -->
<g id="Node000016" class="node">
<title>Node16</title>
<g id="a_Node000016"><a xlink:href="../../d6/d90/classPrintingInfo.html#adadad57308ef600c0b9f80591c244591" target="_top" xlink:title="Returns the providerID for this printing.">
<polygon fill="white" stroke="#666666" points="911.5,-38.5 794.5,-38.5 794.5,-19.5 911.5,-19.5 911.5,-38.5"/>
<text text-anchor="middle" x="853" y="-26.5" font-family="Helvetica,sans-Serif" font-size="10.00">PrintingInfo::getUuid</text>
</a>
</g>
</g>
<!-- Node12&#45;&gt;Node16 -->
<g id="edge16_Node000012_Node000016" class="edge">
<title>Node12&#45;&gt;Node16</title>
<g id="a_edge16_Node000012_Node000016"><a xlink:title=" ">
<path fill="none" stroke="#63b8ff" d="M691.94,-120.81C712.49,-101.38 750.7,-67.86 789,-48 794.74,-45.02 801.02,-42.44 807.32,-40.21"/>
<polygon fill="#63b8ff" stroke="#63b8ff" points="812.13,-38.58 808.12,-42.31 809.76,-39.38 807.4,-40.18 807.4,-40.18 807.4,-40.18 809.76,-39.38 806.67,-38.05 812.13,-38.58 812.13,-38.58"/>
</a>
</g>
</g>
<!-- Node17 -->
<g id="Node000017" class="node">
<title>Node17</title>
<g id="a_Node000017"><a xlink:href="../../dc/db4/classCardDatabaseManager.html#a7dc153d2d7691d69916d2154a05c5ed1" target="_top" xlink:title="Returns the CardDatabaseQuerier of the singleton database.">
<polygon fill="white" stroke="#666666" points="917,-207 789,-207 789,-177 917,-177 917,-207"/>
<text text-anchor="start" x="797" y="-195" font-family="Helvetica,sans-Serif" font-size="10.00">CardDatabaseManager</text>
<text text-anchor="middle" x="853" y="-184" font-family="Helvetica,sans-Serif" font-size="10.00">::query</text>
</a>
</g>
</g>
<!-- Node12&#45;&gt;Node17 -->
<g id="edge17_Node000012_Node000017" class="edge">
<title>Node12&#45;&gt;Node17</title>
<g id="a_edge17_Node000012_Node000017"><a xlink:title=" ">
<path fill="none" stroke="#63b8ff" d="M723.53,-151.01C747.14,-158.54 775.8,-167.68 800.05,-175.42"/>
<polygon fill="#63b8ff" stroke="#63b8ff" points="804.84,-176.95 799.39,-177.58 802.46,-176.19 800.08,-175.43 800.08,-175.43 800.08,-175.43 802.46,-176.19 800.76,-173.29 804.84,-176.95 804.84,-176.95"/>
</a>
</g>
</g>
<!-- Node20 -->
<g id="Node000020" class="node">
<title>Node20</title>
<g id="a_Node000020"><a xlink:href="../../dd/dd2/classCardInfoPictureWidget.html#a123a399de8c54af7d18fc30c4e679c8f" target="_top" xlink:title="Sets the card to be displayed and updates the pixmap.">
<polygon fill="white" stroke="#666666" points="916,-151 790,-151 790,-121 916,-121 916,-151"/>
<text text-anchor="start" x="798" y="-139" font-family="Helvetica,sans-Serif" font-size="10.00">CardInfoPictureWidget</text>
<text text-anchor="middle" x="853" y="-128" font-family="Helvetica,sans-Serif" font-size="10.00">::setCard</text>
</a>
</g>
</g>
<!-- Node12&#45;&gt;Node20 -->
<g id="edge22_Node000012_Node000020" class="edge">
<title>Node12&#45;&gt;Node20</title>
<g id="a_edge22_Node000012_Node000020"><a xlink:title=" ">
<path fill="none" stroke="#63b8ff" d="M753.22,-136C763.76,-136 774.52,-136 784.87,-136"/>
<polygon fill="#63b8ff" stroke="#63b8ff" points="789.92,-136 784.92,-138.25 787.42,-136 784.92,-136 784.92,-136 784.92,-136 787.42,-136 784.92,-133.75 789.92,-136 789.92,-136"/>
</a>
</g>
</g>
<!-- Node14 -->
<g id="Node000014" class="node">
<title>Node14</title>
<g id="a_Node000014"><a xlink:href="../../d8/dbe/classCardDatabaseQuerier.html#a15bb0aa11d39712c5de281e111f01abc" target="_top" xlink:title="Searches for a printing that matches a given providerId.">
<polygon fill="white" stroke="#666666" points="1085,-78 963,-78 963,-48 1085,-48 1085,-78"/>
<text text-anchor="start" x="971" y="-66" font-family="Helvetica,sans-Serif" font-size="10.00">CardDatabaseQuerier</text>
<text text-anchor="middle" x="1024" y="-55" font-family="Helvetica,sans-Serif" font-size="10.00">::findPrintingWithId</text>
</a>
</g>
</g>
<!-- Node13&#45;&gt;Node14 -->
<g id="edge14_Node000013_Node000014" class="edge">
<title>Node13&#45;&gt;Node14</title>
<g id="a_edge14_Node000013_Node000014"><a xlink:title=" ">
<path fill="none" stroke="#63b8ff" d="M914.06,-68.8C928.17,-68.05 943.28,-67.25 957.61,-66.48"/>
<polygon fill="#63b8ff" stroke="#63b8ff" points="962.85,-66.2 957.98,-68.72 960.35,-66.34 957.86,-66.47 957.86,-66.47 957.86,-66.47 960.35,-66.34 957.74,-64.22 962.85,-66.2 962.85,-66.2"/>
</a>
</g>
</g>
<!-- Node15 -->
<g id="Node000015" class="node">
<title>Node15</title>
<g id="a_Node000015"><a xlink:href="../../d8/dbe/classCardDatabaseQuerier.html#aadf83692b2220aedcfb3e9b36070acb7" target="_top" xlink:title="Retrieves a card by its exact name.">
<polygon fill="white" stroke="#666666" points="1085,-30 963,-30 963,0 1085,0 1085,-30"/>
<text text-anchor="start" x="971" y="-18" font-family="Helvetica,sans-Serif" font-size="10.00">CardDatabaseQuerier</text>
<text text-anchor="middle" x="1024" y="-7" font-family="Helvetica,sans-Serif" font-size="10.00">::getCardInfo</text>
</a>
</g>
</g>
<!-- Node13&#45;&gt;Node15 -->
<g id="edge15_Node000013_Node000015" class="edge">
<title>Node13&#45;&gt;Node15</title>
<g id="a_edge15_Node000013_Node000015"><a xlink:title=" ">
<path fill="none" stroke="#63b8ff" d="M898.85,-56.87C921.76,-49.15 949.71,-39.72 973.28,-31.77"/>
<polygon fill="#63b8ff" stroke="#63b8ff" points="978.24,-30.1 974.22,-33.83 975.87,-30.9 973.5,-31.7 973.5,-31.7 973.5,-31.7 975.87,-30.9 972.78,-29.56 978.24,-30.1 978.24,-30.1"/>
</a>
</g>
</g>
<!-- Node17&#45;&gt;Node6 -->
<g id="edge18_Node000017_Node000006" class="edge">
<title>Node17&#45;&gt;Node6</title>
<g id="a_edge18_Node000017_Node000006"><a xlink:title=" ">
<path fill="none" stroke="#63b8ff" d="M913.11,-207.04C927.9,-210.8 943.84,-214.86 958.87,-218.68"/>
<polygon fill="#63b8ff" stroke="#63b8ff" points="963.93,-219.97 958.52,-220.92 961.5,-219.35 959.08,-218.74 959.08,-218.74 959.08,-218.74 961.5,-219.35 959.63,-216.56 963.93,-219.97 963.93,-219.97"/>
</a>
</g>
</g>
<!-- Node18 -->
<g id="Node000018" class="node">
<title>Node18</title>
<g id="a_Node000018"><a xlink:href="../../d5/d45/classCardDatabase.html#affe0baec75387712dc3a93199b56fc08" target="_top" xlink:title="Returns the querier for performing card lookups.">
<polygon fill="white" stroke="#666666" points="1083.5,-201.5 964.5,-201.5 964.5,-182.5 1083.5,-182.5 1083.5,-201.5"/>
<text text-anchor="middle" x="1024" y="-189.5" font-family="Helvetica,sans-Serif" font-size="10.00">CardDatabase::query</text>
</a>
</g>
</g>
<!-- Node17&#45;&gt;Node18 -->
<g id="edge19_Node000017_Node000018" class="edge">
<title>Node17&#45;&gt;Node18</title>
<g id="a_edge19_Node000017_Node000018"><a xlink:title=" ">
<path fill="none" stroke="#63b8ff" d="M917.41,-192C931.09,-192 945.56,-192 959.25,-192"/>
<polygon fill="#63b8ff" stroke="#63b8ff" points="964.26,-192 959.26,-194.25 961.76,-192 959.26,-192 959.26,-192 959.26,-192 961.76,-192 959.26,-189.75 964.26,-192 964.26,-192"/>
</a>
</g>
</g>
<!-- Node19 -->
<g id="Node000019" class="node">
<title>Node19</title>
<g id="a_Node000019"><a xlink:href="../../d5/d45/classCardDatabase.html#ac86d4003efc8430ad7363557149e0e5a" target="_top" xlink:title=" ">
<polygon fill="white" stroke="#666666" points="1292,-207 1131,-207 1131,-177 1292,-177 1292,-207"/>
<text text-anchor="start" x="1139" y="-195" font-family="Helvetica,sans-Serif" font-size="10.00">CardDatabase::CardDatabase</text>
<text text-anchor="middle" x="1211.5" y="-184" font-family="Helvetica,sans-Serif" font-size="10.00">Querier</text>
</a>
</g>
</g>
<!-- Node18&#45;&gt;Node19 -->
<g id="edge20_Node000018_Node000019" class="edge">
<title>Node18&#45;&gt;Node19</title>
<g id="a_edge20_Node000018_Node000019"><a xlink:title=" ">
<path fill="none" stroke="#63b8ff" d="M1083.69,-192C1097.02,-192 1111.44,-192 1125.61,-192"/>
<polygon fill="#63b8ff" stroke="#63b8ff" points="1130.82,-192 1125.82,-194.25 1128.32,-192 1125.82,-192 1125.82,-192 1125.82,-192 1128.32,-192 1125.82,-189.75 1130.82,-192 1130.82,-192"/>
</a>
</g>
</g>
<!-- Node19&#45;&gt;Node19 -->
<g id="edge21_Node000019_Node000019" class="edge">
<title>Node19&#45;&gt;Node19</title>
<g id="a_edge21_Node000019_Node000019"><a xlink:title=" ">
<path fill="none" stroke="#63b8ff" d="M1178.8,-207.28C1171.54,-216.41 1182.44,-225 1211.5,-225 1235.57,-225 1247.18,-219.11 1246.33,-211.89"/>
<polygon fill="#63b8ff" stroke="#63b8ff" points="1244.2,-207.28 1248.34,-210.87 1245.24,-209.54 1246.29,-211.81 1246.29,-211.81 1246.29,-211.81 1245.24,-209.54 1244.25,-212.76 1244.2,-207.28 1244.2,-207.28"/>
</a>
</g>
</g>
<!-- Node21 -->
<g id="Node000021" class="node">
<title>Node21</title>
<g id="a_Node000021"><a xlink:href="../../dd/dd2/classCardInfo.html#ae3038736850ab030b20f81bf1426a19b" target="_top" xlink:title="Emitted when a pixmap for this card has been updated or finished loading.">
<polygon fill="white" stroke="#666666" points="1095,-115.5 953,-115.5 953,-96.5 1095,-96.5 1095,-115.5"/>
<text text-anchor="middle" x="1024" y="-103.5" font-family="Helvetica,sans-Serif" font-size="10.00">CardInfo::pixmapUpdated</text>
</a>
</g>
</g>
<!-- Node20&#45;&gt;Node21 -->
<g id="edge23_Node000020_Node000021" class="edge">
<title>Node20&#45;&gt;Node21</title>
<g id="a_edge23_Node000020_Node000021"><a xlink:title=" ">
<path fill="none" stroke="#63b8ff" d="M916.45,-124.91C932.08,-122.14 948.79,-119.17 964.23,-116.43"/>
<polygon fill="#63b8ff" stroke="#63b8ff" points="969.42,-115.51 964.89,-118.6 966.95,-115.95 964.49,-116.39 964.49,-116.39 964.49,-116.39 966.95,-115.95 964.1,-114.17 969.42,-115.51 969.42,-115.51"/>
</a>
</g>
</g>
<!-- Node22 -->
<g id="Node000022" class="node">
<title>Node22</title>
<g id="a_Node000022"><a xlink:href="../../dd/dd2/classCardInfoPictureWidget.html#a7f4df09cb703aca47d804cc0fe3c03bb" target="_top" xlink:title="Marks the pixmap as dirty and triggers a widget repaint.">
<polygon fill="white" stroke="#666666" points="1087,-164 961,-164 961,-134 1087,-134 1087,-164"/>
<text text-anchor="start" x="969" y="-152" font-family="Helvetica,sans-Serif" font-size="10.00">CardInfoPictureWidget</text>
<text text-anchor="middle" x="1024" y="-141" font-family="Helvetica,sans-Serif" font-size="10.00">::updatePixmap</text>
</a>
</g>
</g>
<!-- Node20&#45;&gt;Node22 -->
<g id="edge24_Node000020_Node000022" class="edge">
<title>Node20&#45;&gt;Node22</title>
<g id="a_edge24_Node000020_Node000022"><a xlink:title=" ">
<path fill="none" stroke="#63b8ff" d="M916.45,-140.8C929.23,-141.79 942.74,-142.83 955.68,-143.82"/>
<polygon fill="#63b8ff" stroke="#63b8ff" points="960.81,-144.22 955.65,-146.08 958.31,-144.02 955.82,-143.83 955.82,-143.83 955.82,-143.83 958.31,-144.02 955.99,-141.59 960.81,-144.22 960.81,-144.22"/>
</a>
</g>
</g>
<!-- Node24 -->
<g id="Node000024" class="node">
<title>Node24</title>
<g id="a_Node000024"><a xlink:href="../../de/d26/classDlgSelectSetForCards.html#a043f5e4a930dcaf3b73545102ce39aa4" target="_top" xlink:title=" ">
<polygon fill="white" stroke="#666666" points="738,-331 613,-331 613,-301 738,-301 738,-331"/>
<text text-anchor="start" x="621" y="-319" font-family="Helvetica,sans-Serif" font-size="10.00">DlgSelectSetForCards</text>
<text text-anchor="middle" x="675.5" y="-308" font-family="Helvetica,sans-Serif" font-size="10.00">::widgetOrderChanged</text>
</a>
</g>
</g>
<!-- Node23&#45;&gt;Node24 -->
<g id="edge26_Node000023_Node000024" class="edge">
<title>Node23&#45;&gt;Node24</title>
<g id="a_edge26_Node000023_Node000024"><a xlink:title=" ">
<path fill="none" stroke="#63b8ff" d="M533.53,-316C556.86,-316 583.68,-316 607.62,-316"/>
<polygon fill="#63b8ff" stroke="#63b8ff" points="612.69,-316 607.69,-318.25 610.19,-316 607.69,-316 607.69,-316 607.69,-316 610.19,-316 607.69,-313.75 612.69,-316 612.69,-316"/>
</a>
</g>
</g>
</g>
</svg>
