<?xml version="1.0" encoding="UTF-8" standalone="no"?>
<!DOCTYPE svg PUBLIC "-//W3C//DTD SVG 1.1//EN"
 "http://www.w3.org/Graphics/SVG/1.1/DTD/svg11.dtd">
<!-- Generated by graphviz version 2.43.0 (0)
 -->
<!-- Title: cockatrice/src/interface/widgets/cards/card_info_picture_widget.h Pages: 1 -->
<svg width="449pt" height="181pt"
 viewBox="0.00 0.00 449.00 181.00" xmlns="http://www.w3.org/2000/svg" xmlns:xlink="http://www.w3.org/1999/xlink">

<svg id="main" version="1.1" xmlns="http://www.w3.org/2000/svg" xmlns:xlink="http://www.w3.org/1999/xlink" xml:space="preserve" onload="init(evt)">
<style type="text/css"><![CDATA[
.node, .edge {opacity: 0.7;}
.node.selected, .edge.selected {opacity: 1;}
.edge:hover path { stroke: red; }
.edge:hover polygon { stroke: red; fill: red; }
]]></style>
<script type="application/ecmascript" xlink:href="../../svg.min.js"/>
<svg id="graph" class="graph">
<g id="graph0" class="graph" transform="scale(1 1) rotate(0) translate(4 177)">
<title>cockatrice/src/interface/widgets/cards/card_info_picture_widget.h</title>
<!-- Node1 -->
<g id="Node000001" class="node">
<title>Node1</title>
<g id="a_Node000001"><a xlink:title="TODO: Document this.">
<polygon fill="#999999" stroke="#666666" points="293,-173 158,-173 158,-132 293,-132 293,-173"/>
<text text-anchor="start" x="166" y="-161" font-family="Helvetica,sans-Serif" font-size="10.00">cockatrice/src/interface</text>
<text text-anchor="start" x="166" y="-150" font-family="Helvetica,sans-Serif" font-size="10.00">/widgets/cards/card_info</text>
<text text-anchor="middle" x="225.5" y="-139" font-family="Helvetica,sans-Serif" font-size="10.00">_picture_widget.h</text>
</a>
</g>
</g>
<!-- Node2 -->
<g id="Node000002" class="node">
<title>Node2</title>
<g id="a_Node000002"><a xlink:href="../../d5/d8a/card__info__picture__enlarged__widget_8h.html" target="_top" xlink:title="TODO: Document this.">
<polygon fill="white" stroke="#666666" points="198,-96 49,-96 49,-66 198,-66 198,-96"/>
<text text-anchor="start" x="57" y="-84" font-family="Helvetica,sans-Serif" font-size="10.00">card_info_picture_enlarged</text>
<text text-anchor="middle" x="123.5" y="-73" font-family="Helvetica,sans-Serif" font-size="10.00">_widget.h</text>
</a>
</g>
</g>
<!-- Node1&#45;&gt;Node2 -->
<g id="edge1_Node000001_Node000002" class="edge">
<title>Node1&#45;&gt;Node2</title>
<g id="a_edge1_Node000001_Node000002"><a xlink:title=" ">
<path fill="none" stroke="#63b8ff" d="M196.82,-131.96C181.65,-121.62 163.21,-109.05 148.61,-99.11"/>
<polygon fill="#63b8ff" stroke="#63b8ff" points="144.21,-96.11 149.61,-97.07 146.28,-97.52 148.34,-98.93 148.34,-98.93 148.34,-98.93 146.28,-97.52 147.08,-100.79 144.21,-96.11 144.21,-96.11"/>
</a>
</g>
</g>
<!-- Node4 -->
<g id="Node000004" class="node">
<title>Node4</title>
<g id="a_Node000004"><a xlink:title=" ">
<polygon fill="#e0e0e0" stroke="#999999" points="59,-24.5 0,-24.5 0,-5.5 59,-5.5 59,-24.5"/>
<text text-anchor="middle" x="29.5" y="-12.5" font-family="Helvetica,sans-Serif" font-size="10.00">QWidget</text>
</a>
</g>
</g>
<!-- Node1&#45;&gt;Node4 -->
<g id="edge7_Node000001_Node000004" class="edge">
<title>Node1&#45;&gt;Node4</title>
<g id="a_edge7_Node000001_Node000004"><a xlink:title=" ">
<path fill="none" stroke="#63b8ff" d="M157.59,-148.72C117.57,-143.33 69.28,-129.62 40.5,-96 24.64,-77.47 25.26,-47.17 27.28,-29.66"/>
<polygon fill="#63b8ff" stroke="#63b8ff" points="27.94,-24.67 29.52,-29.92 27.61,-27.14 27.28,-29.62 27.28,-29.62 27.28,-29.62 27.61,-27.14 25.05,-29.33 27.94,-24.67 27.94,-24.67"/>
</a>
</g>
</g>
<!-- Node5 -->
<g id="Node000005" class="node">
<title>Node5</title>
<g id="a_Node000005"><a xlink:title=" ">
<polygon fill="#e0e0e0" stroke="#999999" points="286.5,-30 164.5,-30 164.5,0 286.5,0 286.5,-30"/>
<text text-anchor="start" x="172.5" y="-18" font-family="Helvetica,sans-Serif" font-size="10.00">libcockatrice/card</text>
<text text-anchor="middle" x="225.5" y="-7" font-family="Helvetica,sans-Serif" font-size="10.00">/printing/exact_card.h</text>
</a>
</g>
</g>
<!-- Node1&#45;&gt;Node5 -->
<g id="edge8_Node000001_Node000005" class="edge">
<title>Node1&#45;&gt;Node5</title>
<g id="a_edge8_Node000001_Node000005"><a xlink:title=" ">
<path fill="none" stroke="#63b8ff" d="M225.5,-131.8C225.5,-106.03 225.5,-61.16 225.5,-35.5"/>
<polygon fill="#63b8ff" stroke="#63b8ff" points="225.5,-30.33 227.75,-35.33 225.5,-32.83 225.5,-35.33 225.5,-35.33 225.5,-35.33 225.5,-32.83 223.25,-35.33 225.5,-30.33 225.5,-30.33"/>
</a>
</g>
</g>
<!-- Node6 -->
<g id="Node000006" class="node">
<title>Node6</title>
<g id="a_Node000006"><a xlink:title=" ">
<polygon fill="#e0e0e0" stroke="#999999" points="369.5,-90.5 253.5,-90.5 253.5,-71.5 369.5,-71.5 369.5,-90.5"/>
<text text-anchor="middle" x="311.5" y="-78.5" font-family="Helvetica,sans-Serif" font-size="10.00">QPropertyAnimation</text>
</a>
</g>
</g>
<!-- Node1&#45;&gt;Node6 -->
<g id="edge5_Node000001_Node000006" class="edge">
<title>Node1&#45;&gt;Node6</title>
<g id="a_edge5_Node000001_Node000006"><a xlink:title=" ">
<path fill="none" stroke="#63b8ff" d="M249.91,-131.77C264.9,-119.66 283.63,-104.52 296.47,-94.15"/>
<polygon fill="#63b8ff" stroke="#63b8ff" points="300.59,-90.82 298.11,-95.71 298.64,-92.39 296.7,-93.96 296.7,-93.96 296.7,-93.96 298.64,-92.39 295.28,-92.21 300.59,-90.82 300.59,-90.82"/>
</a>
</g>
</g>
<!-- Node7 -->
<g id="Node000007" class="node">
<title>Node7</title>
<g id="a_Node000007"><a xlink:title=" ">
<polygon fill="#e0e0e0" stroke="#999999" points="441,-90.5 388,-90.5 388,-71.5 441,-71.5 441,-90.5"/>
<text text-anchor="middle" x="414.5" y="-78.5" font-family="Helvetica,sans-Serif" font-size="10.00">QTimer</text>
</a>
</g>
</g>
<!-- Node1&#45;&gt;Node7 -->
<g id="edge6_Node000001_Node000007" class="edge">
<title>Node1&#45;&gt;Node7</title>
<g id="a_edge6_Node000001_Node000007"><a xlink:title=" ">
<path fill="none" stroke="#63b8ff" d="M280.49,-131.9C309.67,-121.41 346.1,-108.18 378.5,-96 381.55,-94.85 384.74,-93.64 387.9,-92.42"/>
<polygon fill="#63b8ff" stroke="#63b8ff" points="392.83,-90.52 388.97,-94.42 390.5,-91.42 388.16,-92.32 388.16,-92.32 388.16,-92.32 390.5,-91.42 387.35,-90.22 392.83,-90.52 392.83,-90.52"/>
</a>
</g>
</g>
<!-- Node3 -->
<g id="Node000003" class="node">
<title>Node3</title>
<g id="a_Node000003"><a xlink:title=" ">
<polygon fill="#e0e0e0" stroke="#999999" points="146,-24.5 85,-24.5 85,-5.5 146,-5.5 146,-24.5"/>
<text text-anchor="middle" x="115.5" y="-12.5" font-family="Helvetica,sans-Serif" font-size="10.00">QPixmap</text>
</a>
</g>
</g>
<!-- Node2&#45;&gt;Node3 -->
<g id="edge2_Node000002_Node000003" class="edge">
<title>Node2&#45;&gt;Node3</title>
<g id="a_edge2_Node000002_Node000003"><a xlink:title=" ">
<path fill="none" stroke="#63b8ff" d="M121.72,-65.8C120.39,-55.13 118.58,-40.61 117.25,-30"/>
<polygon fill="#63b8ff" stroke="#63b8ff" points="116.61,-24.84 119.46,-29.53 116.92,-27.33 117.23,-29.81 117.23,-29.81 117.23,-29.81 116.92,-27.33 114.99,-30.08 116.61,-24.84 116.61,-24.84"/>
</a>
</g>
</g>
<!-- Node2&#45;&gt;Node4 -->
<g id="edge3_Node000002_Node000004" class="edge">
<title>Node2&#45;&gt;Node4</title>
<g id="a_edge3_Node000002_Node000004"><a xlink:title=" ">
<path fill="none" stroke="#63b8ff" d="M102.64,-65.8C85.73,-54.28 62.2,-38.27 46.44,-27.54"/>
<polygon fill="#63b8ff" stroke="#63b8ff" points="42.22,-24.66 47.62,-25.61 44.28,-26.07 46.35,-27.47 46.35,-27.47 46.35,-27.47 44.28,-26.07 45.08,-29.33 42.22,-24.66 42.22,-24.66"/>
</a>
</g>
</g>
<!-- Node2&#45;&gt;Node5 -->
<g id="edge4_Node000002_Node000005" class="edge">
<title>Node2&#45;&gt;Node5</title>
<g id="a_edge4_Node000002_Node000005"><a xlink:title=" ">
<path fill="none" stroke="#63b8ff" d="M145.88,-65.95C161.43,-56.2 182.22,-43.16 198.66,-32.84"/>
<polygon fill="#63b8ff" stroke="#63b8ff" points="203.17,-30.01 200.13,-34.58 201.05,-31.34 198.93,-32.67 198.93,-32.67 198.93,-32.67 201.05,-31.34 197.74,-30.76 203.17,-30.01 203.17,-30.01"/>
</a>
</g>
</g>
</g>
</svg>
</svg>

<style type='text/css'>
<![CDATA[
[data-mouse-over-selected='false'] { opacity: 0.7; }
[data-mouse-over-selected='true']  { opacity: 1.0; }
]]>
</style>
<script type="application/ecmascript"><![CDATA[
document.addEventListener('DOMContentLoaded', (event) => {
  highlightEdges();
  highlightAdjacentNodes();
});
]]></script>
</svg>
