<?xml version="1.0" encoding="UTF-8" standalone="no"?>
<!DOCTYPE svg PUBLIC "-//W3C//DTD SVG 1.1//EN"
 "http://www.w3.org/Graphics/SVG/1.1/DTD/svg11.dtd">
<!-- Generated by graphviz version 2.43.0 (0)
 -->
<!-- Title: cockatrice/src/interface/widgets/tabs/tab_admin.h Pages: 1 -->
<svg width="483pt" height="170pt"
 viewBox="0.00 0.00 483.00 170.00" xmlns="http://www.w3.org/2000/svg" xmlns:xlink="http://www.w3.org/1999/xlink">

<svg id="main" version="1.1" xmlns="http://www.w3.org/2000/svg" xmlns:xlink="http://www.w3.org/1999/xlink" xml:space="preserve" onload="init(evt)">
<style type="text/css"><![CDATA[
.node, .edge {opacity: 0.7;}
.node.selected, .edge.selected {opacity: 1;}
.edge:hover path { stroke: red; }
.edge:hover polygon { stroke: red; fill: red; }
]]></style>
<script type="application/ecmascript" xlink:href="../../svg.min.js"/>
<svg id="graph" class="graph">
<g id="graph0" class="graph" transform="scale(1 1) rotate(0) translate(4 166)">
<title>cockatrice/src/interface/widgets/tabs/tab_admin.h</title>
<!-- Node1 -->
<g id="Node000001" class="node">
<title>Node1</title>
<g id="a_Node000001"><a xlink:title="TODO: Document this.">
<polygon fill="#999999" stroke="#666666" points="294.5,-162 148.5,-162 148.5,-132 294.5,-132 294.5,-162"/>
<text text-anchor="start" x="156.5" y="-150" font-family="Helvetica,sans-Serif" font-size="10.00">cockatrice/src/interface</text>
<text text-anchor="middle" x="221.5" y="-139" font-family="Helvetica,sans-Serif" font-size="10.00">/widgets/tabs/tab_admin.h</text>
</a>
</g>
</g>
<!-- Node2 -->
<g id="Node000002" class="node">
<title>Node2</title>
<g id="a_Node000002"><a xlink:href="../../d3/ddf/tab_8h.html" target="_top" xlink:title="TODO: Document this.">
<polygon fill="white" stroke="#666666" points="122,-90.5 81,-90.5 81,-71.5 122,-71.5 122,-90.5"/>
<text text-anchor="middle" x="101.5" y="-78.5" font-family="Helvetica,sans-Serif" font-size="10.00">tab.h</text>
</a>
</g>
</g>
<!-- Node1&#45;&gt;Node2 -->
<g id="edge1_Node000001_Node000002" class="edge">
<title>Node1&#45;&gt;Node2</title>
<g id="a_edge1_Node000001_Node000002"><a xlink:title=" ">
<path fill="none" stroke="#63b8ff" d="M195.17,-131.95C173.19,-120.24 142.32,-103.77 122.11,-92.99"/>
<polygon fill="#63b8ff" stroke="#63b8ff" points="117.47,-90.52 122.94,-90.88 119.68,-91.69 121.88,-92.87 121.88,-92.87 121.88,-92.87 119.68,-91.69 120.82,-94.86 117.47,-90.52 117.47,-90.52"/>
</a>
</g>
</g>
<!-- Node5 -->
<g id="Node000005" class="node">
<title>Node5</title>
<g id="a_Node000005"><a xlink:title=" ">
<polygon fill="#e0e0e0" stroke="#999999" points="196.5,-90.5 140.5,-90.5 140.5,-71.5 196.5,-71.5 196.5,-90.5"/>
<text text-anchor="middle" x="168.5" y="-78.5" font-family="Helvetica,sans-Serif" font-size="10.00">QDialog</text>
</a>
</g>
</g>
<!-- Node1&#45;&gt;Node5 -->
<g id="edge4_Node000001_Node000005" class="edge">
<title>Node1&#45;&gt;Node5</title>
<g id="a_edge4_Node000001_Node000005"><a xlink:title=" ">
<path fill="none" stroke="#63b8ff" d="M209.74,-131.8C200.58,-120.74 187.99,-105.54 179.14,-94.84"/>
<polygon fill="#63b8ff" stroke="#63b8ff" points="175.82,-90.84 180.75,-93.26 177.42,-92.77 179.01,-94.7 179.01,-94.7 179.01,-94.7 177.42,-92.77 177.28,-96.13 175.82,-90.84 175.82,-90.84"/>
</a>
</g>
</g>
<!-- Node6 -->
<g id="Node000006" class="node">
<title>Node6</title>
<g id="a_Node000006"><a xlink:title=" ">
<polygon fill="#e0e0e0" stroke="#999999" points="336,-96 215,-96 215,-66 336,-66 336,-96"/>
<text text-anchor="start" x="223" y="-84" font-family="Helvetica,sans-Serif" font-size="10.00">libcockatrice/protocol</text>
<text text-anchor="middle" x="275.5" y="-73" font-family="Helvetica,sans-Serif" font-size="10.00">/pb/commands.pb.h</text>
</a>
</g>
</g>
<!-- Node1&#45;&gt;Node6 -->
<g id="edge5_Node000001_Node000006" class="edge">
<title>Node1&#45;&gt;Node6</title>
<g id="a_edge5_Node000001_Node000006"><a xlink:title=" ">
<path fill="none" stroke="#63b8ff" d="M233.48,-131.8C241.38,-122.43 251.8,-110.09 260.28,-100.03"/>
<polygon fill="#63b8ff" stroke="#63b8ff" points="263.55,-96.16 262.04,-101.44 261.94,-98.07 260.32,-99.99 260.32,-99.99 260.32,-99.99 261.94,-98.07 258.61,-98.53 263.55,-96.16 263.55,-96.16"/>
</a>
</g>
</g>
<!-- Node7 -->
<g id="Node000007" class="node">
<title>Node7</title>
<g id="a_Node000007"><a xlink:title=" ">
<polygon fill="#e0e0e0" stroke="#999999" points="475,-96 354,-96 354,-66 475,-66 475,-96"/>
<text text-anchor="start" x="362" y="-84" font-family="Helvetica,sans-Serif" font-size="10.00">libcockatrice/protocol</text>
<text text-anchor="middle" x="414.5" y="-73" font-family="Helvetica,sans-Serif" font-size="10.00">/pb/response.pb.h</text>
</a>
</g>
</g>
<!-- Node1&#45;&gt;Node7 -->
<g id="edge6_Node000001_Node000007" class="edge">
<title>Node1&#45;&gt;Node7</title>
<g id="a_edge6_Node000001_Node000007"><a xlink:title=" ">
<path fill="none" stroke="#63b8ff" d="M263.85,-131.95C294.4,-121.83 335.65,-108.15 367.26,-97.67"/>
<polygon fill="#63b8ff" stroke="#63b8ff" points="372.24,-96.01 368.21,-99.72 369.87,-96.8 367.5,-97.59 367.5,-97.59 367.5,-97.59 369.87,-96.8 366.79,-95.45 372.24,-96.01 372.24,-96.01"/>
</a>
</g>
</g>
<!-- Node3 -->
<g id="Node000003" class="node">
<title>Node3</title>
<g id="a_Node000003"><a xlink:title=" ">
<polygon fill="#e0e0e0" stroke="#999999" points="87,-24.5 0,-24.5 0,-5.5 87,-5.5 87,-24.5"/>
<text text-anchor="middle" x="43.5" y="-12.5" font-family="Helvetica,sans-Serif" font-size="10.00">QMainWindow</text>
</a>
</g>
</g>
<!-- Node2&#45;&gt;Node3 -->
<g id="edge2_Node000002_Node000003" class="edge">
<title>Node2&#45;&gt;Node3</title>
<g id="a_edge2_Node000002_Node000003"><a xlink:title=" ">
<path fill="none" stroke="#63b8ff" d="M93.68,-71.37C83.79,-60.46 66.67,-41.57 55.22,-28.93"/>
<polygon fill="#63b8ff" stroke="#63b8ff" points="51.57,-24.91 56.6,-27.1 53.25,-26.76 54.93,-28.61 54.93,-28.61 54.93,-28.61 53.25,-26.76 53.26,-30.12 51.57,-24.91 51.57,-24.91"/>
</a>
</g>
</g>
<!-- Node4 -->
<g id="Node000004" class="node">
<title>Node4</title>
<g id="a_Node000004"><a xlink:title=" ">
<polygon fill="#e0e0e0" stroke="#999999" points="215.5,-30 105.5,-30 105.5,0 215.5,0 215.5,-30"/>
<text text-anchor="start" x="113.5" y="-18" font-family="Helvetica,sans-Serif" font-size="10.00">libcockatrice/utility</text>
<text text-anchor="middle" x="160.5" y="-7" font-family="Helvetica,sans-Serif" font-size="10.00">/card_ref.h</text>
</a>
</g>
</g>
<!-- Node2&#45;&gt;Node4 -->
<g id="edge3_Node000002_Node000004" class="edge">
<title>Node2&#45;&gt;Node4</title>
<g id="a_edge3_Node000002_Node000004"><a xlink:title=" ">
<path fill="none" stroke="#63b8ff" d="M109.46,-71.37C118.16,-61.93 132.37,-46.52 143.58,-34.35"/>
<polygon fill="#63b8ff" stroke="#63b8ff" points="147.26,-30.36 145.53,-35.56 145.57,-32.2 143.87,-34.04 143.87,-34.04 143.87,-34.04 145.57,-32.2 142.22,-32.51 147.26,-30.36 147.26,-30.36"/>
</a>
</g>
</g>
</g>
</svg>
</svg>

<style type='text/css'>
<![CDATA[
[data-mouse-over-selected='false'] { opacity: 0.7; }
[data-mouse-over-selected='true']  { opacity: 1.0; }
]]>
</style>
<script type="application/ecmascript"><![CDATA[
document.addEventListener('DOMContentLoaded', (event) => {
  highlightEdges();
  highlightAdjacentNodes();
});
]]></script>
</svg>
