<?xml version="1.0" encoding="UTF-8" standalone="no"?>
<!DOCTYPE svg PUBLIC "-//W3C//DTD SVG 1.1//EN"
 "http://www.w3.org/Graphics/SVG/1.1/DTD/svg11.dtd">
<!-- Generated by graphviz version 2.43.0 (0)
 -->
<!-- Title: AddAnalyticsPanelDialog::AddAnalyticsPanelDialog Pages: 1 -->
<svg width="546pt" height="86pt"
 viewBox="0.00 0.00 546.00 86.00" xmlns="http://www.w3.org/2000/svg" xmlns:xlink="http://www.w3.org/1999/xlink">
<g id="graph0" class="graph" transform="scale(1 1) rotate(0) translate(4 82)">
<title>AddAnalyticsPanelDialog::AddAnalyticsPanelDialog</title>
<!-- Node1 -->
<g id="Node000001" class="node">
<title>Node1</title>
<g id="a_Node000001"><a xlink:title=" ">
<polygon fill="#999999" stroke="#666666" points="144,-54 0,-54 0,-24 144,-24 144,-54"/>
<text text-anchor="start" x="8" y="-42" font-family="Helvetica,sans-Serif" font-size="10.00">AddAnalyticsPanelDialog</text>
<text text-anchor="middle" x="72" y="-31" font-family="Helvetica,sans-Serif" font-size="10.00">::AddAnalyticsPanelDialog</text>
</a>
</g>
</g>
<!-- Node2 -->
<g id="Node000002" class="node">
<title>Node2</title>
<g id="a_Node000002"><a xlink:href="../../d2/df2/classAnalyticsPanelWidgetFactory.html#a78f48237f4538ea3a7f6cb6ab870f672" target="_top" xlink:title=" ">
<polygon fill="white" stroke="#666666" points="338,-78 180,-78 180,-48 338,-48 338,-78"/>
<text text-anchor="start" x="188" y="-66" font-family="Helvetica,sans-Serif" font-size="10.00">AnalyticsPanelWidgetFactory</text>
<text text-anchor="middle" x="259" y="-55" font-family="Helvetica,sans-Serif" font-size="10.00">::availableWidgets</text>
</a>
</g>
</g>
<!-- Node1&#45;&gt;Node2 -->
<g id="edge1_Node000001_Node000002" class="edge">
<title>Node1&#45;&gt;Node2</title>
<g id="a_edge1_Node000001_Node000002"><a xlink:title=" ">
<path fill="none" stroke="#63b8ff" d="M144.26,-48.24C154.23,-49.54 164.55,-50.88 174.72,-52.2"/>
<polygon fill="#63b8ff" stroke="#63b8ff" points="179.7,-52.84 174.45,-54.43 177.22,-52.52 174.74,-52.2 174.74,-52.2 174.74,-52.2 177.22,-52.52 175.03,-49.97 179.7,-52.84 179.7,-52.84"/>
</a>
</g>
</g>
<!-- Node3 -->
<g id="Node000003" class="node">
<title>Node3</title>
<g id="a_Node000003"><a xlink:href="../../d2/df2/classAnalyticsPanelWidgetFactory.html#a88ea7fbbca4da5a6cf976a5f07462ed9" target="_top" xlink:title=" ">
<polygon fill="white" stroke="#666666" points="338,-30 180,-30 180,0 338,0 338,-30"/>
<text text-anchor="start" x="188" y="-18" font-family="Helvetica,sans-Serif" font-size="10.00">AnalyticsPanelWidgetFactory</text>
<text text-anchor="middle" x="259" y="-7" font-family="Helvetica,sans-Serif" font-size="10.00">::instance</text>
</a>
</g>
</g>
<!-- Node1&#45;&gt;Node3 -->
<g id="edge2_Node000001_Node000003" class="edge">
<title>Node1&#45;&gt;Node3</title>
<g id="a_edge2_Node000001_Node000003"><a xlink:title=" ">
<path fill="none" stroke="#63b8ff" d="M144.26,-29.76C154.23,-28.46 164.55,-27.12 174.72,-25.8"/>
<polygon fill="#63b8ff" stroke="#63b8ff" points="179.7,-25.16 175.03,-28.03 177.22,-25.48 174.74,-25.8 174.74,-25.8 174.74,-25.8 177.22,-25.48 174.45,-23.57 179.7,-25.16 179.7,-25.16"/>
</a>
</g>
</g>
<!-- Node4 -->
<g id="Node000004" class="node">
<title>Node4</title>
<g id="a_Node000004"><a xlink:href="../../d2/df2/classAnalyticsPanelWidgetFactory.html#a9afdb687885652911135433ddf8bbb7b" target="_top" xlink:title=" ">
<polygon fill="white" stroke="#666666" points="538,-30 374,-30 374,0 538,0 538,-30"/>
<text text-anchor="start" x="382" y="-18" font-family="Helvetica,sans-Serif" font-size="10.00">AnalyticsPanelWidgetFactory</text>
<text text-anchor="middle" x="456" y="-7" font-family="Helvetica,sans-Serif" font-size="10.00">::AnalyticsPanelWidgetFactory</text>
</a>
</g>
</g>
<!-- Node3&#45;&gt;Node4 -->
<g id="edge3_Node000003_Node000004" class="edge">
<title>Node3&#45;&gt;Node4</title>
<g id="a_edge3_Node000003_Node000004"><a xlink:title=" ">
<path fill="none" stroke="#63b8ff" d="M338.19,-15C348.3,-15 358.69,-15 368.92,-15"/>
<polygon fill="#63b8ff" stroke="#63b8ff" points="373.92,-15 368.92,-17.25 371.42,-15 368.92,-15 368.92,-15 368.92,-15 371.42,-15 368.92,-12.75 373.92,-15 373.92,-15"/>
</a>
</g>
</g>
</g>
</svg>
