<?xml version="1.0" encoding="UTF-8" standalone="no"?>
<!DOCTYPE svg PUBLIC "-//W3C//DTD SVG 1.1//EN"
 "http://www.w3.org/Graphics/SVG/1.1/DTD/svg11.dtd">
<!-- Generated by graphviz version 2.43.0 (0)
 -->
<!-- Title: ArchidektJsonParser::parse Pages: 1 -->
<svg width="632pt" height="150pt"
 viewBox="0.00 0.00 632.00 150.00" xmlns="http://www.w3.org/2000/svg" xmlns:xlink="http://www.w3.org/1999/xlink">
<g id="graph0" class="graph" transform="scale(1 1) rotate(0) translate(4 146)">
<title>ArchidektJsonParser::parse</title>
<!-- Node1 -->
<g id="Node000001" class="node">
<title>Node1</title>
<g id="a_Node000001"><a xlink:title=" ">
<polygon fill="#999999" stroke="#666666" points="113,-82.5 0,-82.5 0,-52.5 113,-52.5 113,-82.5"/>
<text text-anchor="start" x="8" y="-70.5" font-family="Helvetica,sans-Serif" font-size="10.00">ArchidektJsonParser</text>
<text text-anchor="middle" x="56.5" y="-59.5" font-family="Helvetica,sans-Serif" font-size="10.00">::parse</text>
</a>
</g>
</g>
<!-- Node2 -->
<g id="Node000002" class="node">
<title>Node2</title>
<g id="a_Node000002"><a xlink:href="../../da/d68/classDeckList.html#a6ca4bb25dda768a1733396f89f8277e0" target="_top" xlink:title="Apply a function to every card in the deck tree.">
<polygon fill="white" stroke="#666666" points="284,-142 160,-142 160,-123 284,-123 284,-142"/>
<text text-anchor="middle" x="222" y="-130" font-family="Helvetica,sans-Serif" font-size="10.00">DeckList::forEachCard</text>
</a>
</g>
</g>
<!-- Node1&#45;&gt;Node2 -->
<g id="edge1_Node000001_Node000002" class="edge">
<title>Node1&#45;&gt;Node2</title>
<g id="a_edge1_Node000001_Node000002"><a xlink:title=" ">
<path fill="none" stroke="#63b8ff" d="M84.06,-82.7C101.98,-92.49 126.39,-104.94 149,-113.5 156.91,-116.49 165.48,-119.2 173.85,-121.57"/>
<polygon fill="#63b8ff" stroke="#63b8ff" points="179.04,-123 173.62,-123.84 176.63,-122.33 174.22,-121.67 174.22,-121.67 174.22,-121.67 176.63,-122.33 174.81,-119.5 179.04,-123 179.04,-123"/>
</a>
</g>
</g>
<!-- Node3 -->
<g id="Node000003" class="node">
<title>Node3</title>
<g id="a_Node000003"><a xlink:href="../../da/d68/classDeckList.html#ad0a59ff0fd21322f9557c0ac1871a733" target="_top" xlink:title=" ">
<polygon fill="white" stroke="#666666" points="295,-104.5 149,-104.5 149,-74.5 295,-74.5 295,-104.5"/>
<text text-anchor="start" x="157" y="-92.5" font-family="Helvetica,sans-Serif" font-size="10.00">DeckList::loadFromStream</text>
<text text-anchor="middle" x="222" y="-81.5" font-family="Helvetica,sans-Serif" font-size="10.00">_Plain</text>
</a>
</g>
</g>
<!-- Node1&#45;&gt;Node3 -->
<g id="edge2_Node000001_Node000003" class="edge">
<title>Node1&#45;&gt;Node3</title>
<g id="a_edge2_Node000001_Node000003"><a xlink:title=" ">
<path fill="none" stroke="#63b8ff" d="M113.31,-75.01C123.17,-76.34 133.59,-77.74 143.91,-79.13"/>
<polygon fill="#63b8ff" stroke="#63b8ff" points="148.96,-79.81 143.71,-81.37 146.49,-79.47 144.01,-79.14 144.01,-79.14 144.01,-79.14 146.49,-79.47 144.31,-76.91 148.96,-79.81 148.96,-79.81"/>
</a>
</g>
</g>
<!-- Node6 -->
<g id="Node000006" class="node">
<title>Node6</title>
<g id="a_Node000006"><a xlink:href="../../da/d68/classDeckList.html#ad4aeb8c9ae07248a6f0c5c3a92d2c5bc" target="_top" xlink:title=" ">
<polygon fill="white" stroke="#666666" points="288.5,-56 155.5,-56 155.5,-37 288.5,-37 288.5,-56"/>
<text text-anchor="middle" x="222" y="-44" font-family="Helvetica,sans-Serif" font-size="10.00">DeckList::setComments</text>
</a>
</g>
</g>
<!-- Node1&#45;&gt;Node6 -->
<g id="edge6_Node000001_Node000006" class="edge">
<title>Node1&#45;&gt;Node6</title>
<g id="a_edge6_Node000001_Node000006"><a xlink:title=" ">
<path fill="none" stroke="#63b8ff" d="M113.31,-60.33C125.13,-58.81 137.75,-57.19 150.05,-55.61"/>
<polygon fill="#63b8ff" stroke="#63b8ff" points="155.29,-54.94 150.62,-57.81 152.81,-55.26 150.33,-55.58 150.33,-55.58 150.33,-55.58 152.81,-55.26 150.05,-53.35 155.29,-54.94 155.29,-54.94"/>
</a>
</g>
</g>
<!-- Node7 -->
<g id="Node000007" class="node">
<title>Node7</title>
<g id="a_Node000007"><a xlink:href="../../da/d68/classDeckList.html#afa7f023276656ecfe4f8df74cbebbbd4" target="_top" xlink:title=" ">
<polygon fill="white" stroke="#666666" points="276.5,-19 167.5,-19 167.5,0 276.5,0 276.5,-19"/>
<text text-anchor="middle" x="222" y="-7" font-family="Helvetica,sans-Serif" font-size="10.00">DeckList::setName</text>
</a>
</g>
</g>
<!-- Node1&#45;&gt;Node7 -->
<g id="edge7_Node000001_Node000007" class="edge">
<title>Node1&#45;&gt;Node7</title>
<g id="a_edge7_Node000001_Node000007"><a xlink:title=" ">
<path fill="none" stroke="#63b8ff" d="M88.33,-52.48C105.84,-44.35 128.32,-34.55 149,-27.5 156.57,-24.92 164.71,-22.53 172.69,-20.39"/>
<polygon fill="#63b8ff" stroke="#63b8ff" points="177.64,-19.09 173.37,-22.54 175.22,-19.73 172.8,-20.36 172.8,-20.36 172.8,-20.36 175.22,-19.73 172.23,-18.19 177.64,-19.09 177.64,-19.09"/>
</a>
</g>
</g>
<!-- Node4 -->
<g id="Node000004" class="node">
<title>Node4</title>
<g id="a_Node000004"><a xlink:href="../../da/d68/classDeckList.html#a773dea93b32b04d5251565251b4800ea" target="_top" xlink:title=" ">
<polygon fill="white" stroke="#666666" points="439,-118 331,-118 331,-99 439,-99 439,-118"/>
<text text-anchor="middle" x="385" y="-106" font-family="Helvetica,sans-Serif" font-size="10.00">DeckList::cleanList</text>
</a>
</g>
</g>
<!-- Node3&#45;&gt;Node4 -->
<g id="edge3_Node000003_Node000004" class="edge">
<title>Node3&#45;&gt;Node4</title>
<g id="a_edge3_Node000003_Node000004"><a xlink:title=" ">
<path fill="none" stroke="#63b8ff" d="M295.02,-98C305.29,-99.21 315.74,-100.44 325.7,-101.62"/>
<polygon fill="#63b8ff" stroke="#63b8ff" points="330.86,-102.23 325.64,-103.88 328.38,-101.94 325.9,-101.64 325.9,-101.64 325.9,-101.64 328.38,-101.94 326.16,-99.41 330.86,-102.23 330.86,-102.23"/>
</a>
</g>
</g>
<!-- Node5 -->
<g id="Node000005" class="node">
<title>Node5</title>
<g id="a_Node000005"><a xlink:href="../../da/d68/classDeckList.html#a4854d1f1622e53e8d0261b0536f7c546" target="_top" xlink:title=" ">
<polygon fill="white" stroke="#666666" points="624,-99 475,-99 475,-80 624,-80 624,-99"/>
<text text-anchor="middle" x="549.5" y="-87" font-family="Helvetica,sans-Serif" font-size="10.00">DeckList::refreshDeckHash</text>
</a>
</g>
</g>
<!-- Node3&#45;&gt;Node5 -->
<g id="edge5_Node000003_Node000005" class="edge">
<title>Node3&#45;&gt;Node5</title>
<g id="a_edge5_Node000003_Node000005"><a xlink:title=" ">
<path fill="none" stroke="#63b8ff" d="M295.24,-89.5C346.95,-89.5 416.54,-89.5 469.68,-89.5"/>
<polygon fill="#63b8ff" stroke="#63b8ff" points="474.77,-89.5 469.77,-91.75 472.27,-89.5 469.77,-89.5 469.77,-89.5 469.77,-89.5 472.27,-89.5 469.77,-87.25 474.77,-89.5 474.77,-89.5"/>
</a>
</g>
</g>
<!-- Node4&#45;&gt;Node5 -->
<g id="edge4_Node000004_Node000005" class="edge">
<title>Node4&#45;&gt;Node5</title>
<g id="a_edge4_Node000004_Node000005"><a xlink:title=" ">
<path fill="none" stroke="#63b8ff" d="M439.21,-102.28C448.99,-101.13 459.4,-99.92 469.74,-98.71"/>
<polygon fill="#63b8ff" stroke="#63b8ff" points="474.82,-98.12 470.11,-100.93 472.33,-98.41 469.85,-98.7 469.85,-98.7 469.85,-98.7 472.33,-98.41 469.59,-96.46 474.82,-98.12 474.82,-98.12"/>
</a>
</g>
</g>
</g>
</svg>
