<?xml version="1.0" encoding="UTF-8" standalone="no"?>
<!DOCTYPE svg PUBLIC "-//W3C//DTD SVG 1.1//EN"
 "http://www.w3.org/Graphics/SVG/1.1/DTD/svg11.dtd">
<!-- Generated by graphviz version 2.43.0 (0)
 -->
<!-- Title: Server_Game::removeParticipant Pages: 1 -->
<!--zoomable 832 -->

<svg id="main" version="1.1" xmlns="http://www.w3.org/2000/svg" xmlns:xlink="http://www.w3.org/1999/xlink" xml:space="preserve" onload="init(evt)">

<style type="text/css"><![CDATA[
.node, .edge {opacity: 0.7;}
.node.selected, .edge.selected {opacity: 1;}
.edge:hover path { stroke: red; }
.edge:hover polygon { stroke: red; fill: red; }
]]></style>

<defs>
  <circle id="rim" cx="0" cy="0" r="7"/>
  <circle id="rim2" cx="0" cy="0" r="3.5"/>
  <g id="zoomPlus">
    <use xlink:href="#rim" fill="#404040"><set attributeName="fill" to="#808080" begin="zoomplus.mouseover" end="zoomplus.mouseout"/></use>
    <path d="M-4,0h8M0,-4v8" fill="none" stroke="white" stroke-width="1.5" pointer-events="none"/>
  </g>
  <g id="zoomMin">
    <use xlink:href="#rim" fill="#404040"><set attributeName="fill" to="#808080" begin="zoomminus.mouseover" end="zoomminus.mouseout"/></use>
    <path d="M-4,0h8" fill="none" stroke="white" stroke-width="1.5" pointer-events="none"/>
  </g>
  <g id="arrowUp" transform="translate(30 24)">
    <use xlink:href="#rim"/>
    <path pointer-events="none" fill="none" stroke="white" stroke-width="1.5" d="M0,-3.0v7 M-2.5,-0.5L0,-3.0L2.5,-0.5"/>
  </g>
  <g id="arrowRight" transform="rotate(90) translate(36 -43)">
    <use xlink:href="#rim"/>
    <path pointer-events="none" fill="none" stroke="white" stroke-width="1.5" d="M0,-3.0v7 M-2.5,-0.5L0,-3.0L2.5,-0.5"/>
  </g>
  <g id="arrowDown" transform="rotate(180) translate(-30 -48)">
    <use xlink:href="#rim"/>
    <path pointer-events="none" fill="none" stroke="white" stroke-width="1.5" d="M0,-3.0v7 M-2.5,-0.5L0,-3.0L2.5,-0.5"/>
  </g>
  <g id="arrowLeft" transform="rotate(270) translate(-36 17)">
    <use xlink:href="#rim"/>
    <path pointer-events="none" fill="none" stroke="white" stroke-width="1.5" d="M0,-3.0v7 M-2.5,-0.5L0,-3.0L2.5,-0.5"/>
  </g>
  <g id="resetDef">
    <use xlink:href="#rim2" fill="#404040"><set attributeName="fill" to="#808080" begin="reset.mouseover" end="reset.mouseout"/></use>
  </g>
</defs>
<script type="application/ecmascript">
var viewWidth = 1039;
var viewHeight = 832;
var sectionId = 'dynsection-38';
</script>
<script type="application/ecmascript" xlink:href="../../svg.min.js"/>
<svg id="graph" class="graph">
<g id="viewport">
<title>Server_Game::removeParticipant</title>
<!-- Node1 -->
<g id="Node000001" class="node">
<title>Node1</title>
<g id="a_Node000001"><a xlink:title=" ">
<polygon fill="#999999" stroke="#666666" points="178,-352.5 0,-352.5 0,-333.5 178,-333.5 178,-352.5"/>
<text text-anchor="middle" x="89" y="-340.5" font-family="Helvetica,sans-Serif" font-size="10.00">Server_Game::removeParticipant</text>
</a>
</g>
</g>
<!-- Node2 -->
<g id="Node000002" class="node">
<title>Node2</title>
<g id="a_Node000002"><a xlink:href="../../de/d8f/classGameEventStorage.html#acd9c2f6ebbfa52476072e591d0b19a83" target="_top" xlink:title=" ">
<polygon fill="white" stroke="#666666" points="605.5,-813 446.5,-813 446.5,-783 605.5,-783 605.5,-813"/>
<text text-anchor="start" x="454.5" y="-801" font-family="Helvetica,sans-Serif" font-size="10.00">GameEventStorage::enqueue</text>
<text text-anchor="middle" x="526" y="-790" font-family="Helvetica,sans-Serif" font-size="10.00">GameEvent</text>
</a>
</g>
</g>
<!-- Node1&#45;&gt;Node2 -->
<g id="edge1_Node000001_Node000002" class="edge">
<title>Node1&#45;&gt;Node2</title>
<g id="a_edge1_Node000001_Node000002"><a xlink:title=" ">
<path fill="none" stroke="#63b8ff" d="M91.23,-352.67C98.97,-411.71 142.79,-722.88 214,-780 283.38,-835.66 391.98,-827.23 460.76,-814.09"/>
<polygon fill="#63b8ff" stroke="#63b8ff" points="466.06,-813.05 461.58,-816.22 463.6,-813.53 461.15,-814.01 461.15,-814.01 461.15,-814.01 463.6,-813.53 460.72,-811.81 466.06,-813.05 466.06,-813.05"/>
</a>
</g>
</g>
<!-- Node3 -->
<g id="Node000003" class="node">
<title>Node3</title>
<g id="a_Node000003"><a xlink:href="../../df/d89/classServer__Game.html#a16d4b8a7306d0fc4f6528d25961bcb8c" target="_top" xlink:title=" ">
<polygon fill="white" stroke="#666666" points="615,-409.5 437,-409.5 437,-390.5 615,-390.5 615,-409.5"/>
<text text-anchor="middle" x="526" y="-397.5" font-family="Helvetica,sans-Serif" font-size="10.00">Server_Game::gameInfoChanged</text>
</a>
</g>
</g>
<!-- Node1&#45;&gt;Node3 -->
<g id="edge2_Node000001_Node000003" class="edge">
<title>Node1&#45;&gt;Node3</title>
<g id="a_edge2_Node000001_Node000003"><a xlink:title=" ">
<path fill="none" stroke="#63b8ff" d="M115.21,-352.66C139.96,-361.67 178.99,-374.66 214,-381 286.35,-394.11 369.55,-398.65 431.68,-400.03"/>
<polygon fill="#63b8ff" stroke="#63b8ff" points="436.87,-400.14 431.82,-402.28 434.37,-400.09 431.87,-400.03 431.87,-400.03 431.87,-400.03 434.37,-400.09 431.92,-397.78 436.87,-400.14 436.87,-400.14"/>
</a>
</g>
</g>
<!-- Node4 -->
<g id="Node000004" class="node">
<title>Node4</title>
<g id="a_Node000004"><a xlink:href="../../df/d89/classServer__Game.html#ab29a10e86bf358a04d0f7a73ad586e1a" target="_top" xlink:title=" ">
<polygon fill="white" stroke="#666666" points="389,-257.5 225,-257.5 225,-238.5 389,-238.5 389,-257.5"/>
<text text-anchor="middle" x="307" y="-245.5" font-family="Helvetica,sans-Serif" font-size="10.00">Server_Game::getPlayerCount</text>
</a>
</g>
</g>
<!-- Node1&#45;&gt;Node4 -->
<g id="edge3_Node000001_Node000004" class="edge">
<title>Node1&#45;&gt;Node4</title>
<g id="a_edge3_Node000001_Node000004"><a xlink:title=" ">
<path fill="none" stroke="#63b8ff" d="M103.88,-333.4C126.17,-318.38 171.74,-289.25 214,-272 226.93,-266.72 241.36,-262.31 254.89,-258.77"/>
<polygon fill="#63b8ff" stroke="#63b8ff" points="259.83,-257.5 255.55,-260.93 257.41,-258.13 254.99,-258.75 254.99,-258.75 254.99,-258.75 257.41,-258.13 254.43,-256.57 259.83,-257.5 259.83,-257.5"/>
</a>
</g>
</g>
<!-- Node5 -->
<g id="Node000005" class="node">
<title>Node5</title>
<g id="a_Node000005"><a xlink:href="../../df/d89/classServer__Game.html#a33b1b32840eea3bd61eea403dd3c2a81" target="_top" xlink:title=" ">
<polygon fill="white" stroke="#666666" points="601.5,-248 450.5,-248 450.5,-218 601.5,-218 601.5,-248"/>
<text text-anchor="start" x="458.5" y="-236" font-family="Helvetica,sans-Serif" font-size="10.00">Server_Game::getSpectator</text>
<text text-anchor="middle" x="526" y="-225" font-family="Helvetica,sans-Serif" font-size="10.00">Count</text>
</a>
</g>
</g>
<!-- Node1&#45;&gt;Node5 -->
<g id="edge8_Node000001_Node000005" class="edge">
<title>Node1&#45;&gt;Node5</title>
<g id="a_edge8_Node000001_Node000005"><a xlink:title=" ">
<path fill="none" stroke="#63b8ff" d="M124.66,-333.45C149.49,-326.69 183.73,-317.52 214,-310 296.34,-289.53 317.72,-287.69 400,-267 421.81,-261.52 445.65,-255.13 466.61,-249.38"/>
<polygon fill="#63b8ff" stroke="#63b8ff" points="471.59,-248.01 467.36,-251.51 469.18,-248.67 466.77,-249.34 466.77,-249.34 466.77,-249.34 469.18,-248.67 466.17,-247.17 471.59,-248.01 471.59,-248.01"/>
</a>
</g>
</g>
<!-- Node6 -->
<g id="Node000006" class="node">
<title>Node6</title>
<g id="a_Node000006"><a xlink:href="../../d0/d00/classServer__AbstractParticipant.html#a1ce5bd3a2ecb61abf21583b75ebc6185" target="_top" xlink:title=" ">
<polygon fill="white" stroke="#666666" points="380,-220 234,-220 234,-190 380,-190 380,-220"/>
<text text-anchor="start" x="242" y="-208" font-family="Helvetica,sans-Serif" font-size="10.00">Server_AbstractParticipant</text>
<text text-anchor="middle" x="307" y="-197" font-family="Helvetica,sans-Serif" font-size="10.00">::getPlayerId</text>
</a>
</g>
</g>
<!-- Node1&#45;&gt;Node6 -->
<g id="edge5_Node000001_Node000006" class="edge">
<title>Node1&#45;&gt;Node6</title>
<g id="a_edge5_Node000001_Node000006"><a xlink:title=" ">
<path fill="none" stroke="#63b8ff" d="M97.61,-333.5C115.51,-311.77 162.68,-258.18 214,-230 219.55,-226.95 225.49,-224.26 231.59,-221.88"/>
<polygon fill="#63b8ff" stroke="#63b8ff" points="236.28,-220.12 232.39,-223.98 233.94,-221 231.6,-221.88 231.6,-221.88 231.6,-221.88 233.94,-221 230.81,-219.77 236.28,-220.12 236.28,-220.12"/>
</a>
</g>
</g>
<!-- Node7 -->
<g id="Node000007" class="node">
<title>Node7</title>
<g id="a_Node000007"><a xlink:href="../../df/d89/classServer__Game.html#a540b85be4a6fdaab1ebb548a4d2424a5" target="_top" xlink:title=" ">
<polygon fill="white" stroke="#666666" points="1016.5,-685.5 876.5,-685.5 876.5,-666.5 1016.5,-666.5 1016.5,-685.5"/>
<text text-anchor="middle" x="946.5" y="-673.5" font-family="Helvetica,sans-Serif" font-size="10.00">Server_Game::getPlayers</text>
</a>
</g>
</g>
<!-- Node1&#45;&gt;Node7 -->
<g id="edge6_Node000001_Node000007" class="edge">
<title>Node1&#45;&gt;Node7</title>
<g id="a_edge6_Node000001_Node000007"><a xlink:title=" ">
<path fill="none" stroke="#63b8ff" d="M92.52,-352.55C102.24,-387.63 140.42,-510.98 214,-581 292.66,-655.85 330.92,-655.65 436,-683 603.9,-726.7 653.35,-717.17 826,-700 851.74,-697.44 880.15,-691.85 902.81,-686.71"/>
<polygon fill="#63b8ff" stroke="#63b8ff" points="907.85,-685.55 903.48,-688.87 905.41,-686.11 902.97,-686.67 902.97,-686.67 902.97,-686.67 905.41,-686.11 902.47,-684.48 907.85,-685.55 907.85,-685.55"/>
</a>
</g>
</g>
<!-- Node8 -->
<g id="Node000008" class="node">
<title>Node8</title>
<g id="a_Node000008"><a xlink:href="../../d0/d00/classServer__AbstractParticipant.html#ac0c73b9dceaaa20a4b04ddcbb813aec7" target="_top" xlink:title=" ">
<polygon fill="white" stroke="#666666" points="380,-172 234,-172 234,-142 380,-142 380,-172"/>
<text text-anchor="start" x="242" y="-160" font-family="Helvetica,sans-Serif" font-size="10.00">Server_AbstractParticipant</text>
<text text-anchor="middle" x="307" y="-149" font-family="Helvetica,sans-Serif" font-size="10.00">::getSpectator</text>
</a>
</g>
</g>
<!-- Node1&#45;&gt;Node8 -->
<g id="edge7_Node000001_Node000008" class="edge">
<title>Node1&#45;&gt;Node8</title>
<g id="a_edge7_Node000001_Node000008"><a xlink:title=" ">
<path fill="none" stroke="#63b8ff" d="M94.57,-333.17C108.29,-304.8 152.04,-222.15 214,-181 218.63,-177.92 223.64,-175.24 228.84,-172.9"/>
<polygon fill="#63b8ff" stroke="#63b8ff" points="233.67,-170.85 229.95,-174.88 231.37,-171.83 229.06,-172.81 229.06,-172.81 229.06,-172.81 231.37,-171.83 228.18,-170.74 233.67,-170.85 233.67,-170.85"/>
</a>
</g>
</g>
<!-- Node9 -->
<g id="Node000009" class="node">
<title>Node9</title>
<g id="a_Node000009"><a xlink:href="../../d9/d5b/classServerInfo__User__Container.html#a4864fbb9b45940f5f5dedfa4fa808cf4" target="_top" xlink:title=" ">
<polygon fill="white" stroke="#666666" points="380.5,-124 233.5,-124 233.5,-94 380.5,-94 380.5,-124"/>
<text text-anchor="start" x="241.5" y="-112" font-family="Helvetica,sans-Serif" font-size="10.00">ServerInfo_User_Container</text>
<text text-anchor="middle" x="307" y="-101" font-family="Helvetica,sans-Serif" font-size="10.00">::getUserInfo</text>
</a>
</g>
</g>
<!-- Node1&#45;&gt;Node9 -->
<g id="edge9_Node000001_Node000009" class="edge">
<title>Node1&#45;&gt;Node9</title>
<g id="a_edge9_Node000001_Node000009"><a xlink:title=" ">
<path fill="none" stroke="#63b8ff" d="M92.79,-333.26C102.91,-299.71 140.99,-188.08 214,-133 218.44,-129.65 223.3,-126.77 228.4,-124.29"/>
<polygon fill="#63b8ff" stroke="#63b8ff" points="233.15,-122.12 229.54,-126.24 230.87,-123.16 228.6,-124.2 228.6,-124.2 228.6,-124.2 230.87,-123.16 227.67,-122.15 233.15,-122.12 233.15,-122.12"/>
</a>
</g>
</g>
<!-- Node10 -->
<g id="Node000010" class="node">
<title>Node10</title>
<g id="a_Node000010"><a xlink:href="../../df/d89/classServer__Game.html#a364c5a0716a166aea4cb7c60eaa96829" target="_top" xlink:title=" ">
<polygon fill="white" stroke="#666666" points="372.5,-571.5 241.5,-571.5 241.5,-552.5 372.5,-552.5 372.5,-571.5"/>
<text text-anchor="middle" x="307" y="-559.5" font-family="Helvetica,sans-Serif" font-size="10.00">Server_Game::nextTurn</text>
</a>
</g>
</g>
<!-- Node1&#45;&gt;Node10 -->
<g id="edge10_Node000001_Node000010" class="edge">
<title>Node1&#45;&gt;Node10</title>
<g id="a_edge10_Node000001_Node000010"><a xlink:title=" ">
<path fill="none" stroke="#63b8ff" d="M96.1,-352.68C112.74,-378.64 161.28,-451.12 214,-500 235.61,-520.04 264.26,-538.28 283.81,-549.7"/>
<polygon fill="#63b8ff" stroke="#63b8ff" points="288.58,-552.46 283.12,-551.9 286.41,-551.21 284.25,-549.96 284.25,-549.96 284.25,-549.96 286.41,-551.21 285.37,-548.01 288.58,-552.46 288.58,-552.46"/>
</a>
</g>
</g>
<!-- Node12 -->
<g id="Node000012" class="node">
<title>Node12</title>
<g id="a_Node000012"><a xlink:href="../../df/d89/classServer__Game.html#a325a1eb708f9158e554a7a955914cae6" target="_top" xlink:title=" ">
<polygon fill="white" stroke="#666666" points="1024,-536 869,-536 869,-506 1024,-506 1024,-536"/>
<text text-anchor="start" x="877" y="-524" font-family="Helvetica,sans-Serif" font-size="10.00">Server_Game::prepareGame</text>
<text text-anchor="middle" x="946.5" y="-513" font-family="Helvetica,sans-Serif" font-size="10.00">Event</text>
</a>
</g>
</g>
<!-- Node1&#45;&gt;Node12 -->
<g id="edge22_Node000001_Node000012" class="edge">
<title>Node1&#45;&gt;Node12</title>
<g id="a_edge22_Node000001_Node000012"><a xlink:title=" ">
<path fill="none" stroke="#63b8ff" d="M96.69,-352.82C113.31,-376.29 159.13,-435.51 214,-460 328.26,-510.99 697.63,-519.65 863.52,-520.91"/>
<polygon fill="#63b8ff" stroke="#63b8ff" points="868.85,-520.95 863.83,-523.17 866.35,-520.93 863.85,-520.92 863.85,-520.92 863.85,-520.92 866.35,-520.93 863.86,-518.67 868.85,-520.95 868.85,-520.95"/>
</a>
</g>
</g>
<!-- Node13 -->
<g id="Node000013" class="node">
<title>Node13</title>
<g id="a_Node000013"><a xlink:href="../../df/d89/classServer__Game.html#a30da97b384f2a8a08178bd1534339eb2" target="_top" xlink:title=" ">
<polygon fill="white" stroke="#666666" points="1031,-450 862,-450 862,-420 1031,-420 1031,-450"/>
<text text-anchor="start" x="870" y="-438" font-family="Helvetica,sans-Serif" font-size="10.00">Server_Game::sendGameEvent</text>
<text text-anchor="middle" x="946.5" y="-427" font-family="Helvetica,sans-Serif" font-size="10.00">Container</text>
</a>
</g>
</g>
<!-- Node1&#45;&gt;Node13 -->
<g id="edge26_Node000001_Node000013" class="edge">
<title>Node1&#45;&gt;Node13</title>
<g id="a_edge26_Node000001_Node000013"><a xlink:title=" ">
<path fill="none" stroke="#63b8ff" d="M172.44,-333.48C235.02,-325.91 323.11,-314.55 400,-302 416.09,-299.37 419.78,-296.56 436,-295 515.63,-287.33 536.7,-284.43 616,-295 711.86,-307.78 738.34,-311.15 826,-352 863.07,-369.28 901.06,-397.9 923.97,-416.61"/>
<polygon fill="#63b8ff" stroke="#63b8ff" points="928.07,-419.98 922.77,-418.54 926.13,-418.39 924.2,-416.81 924.2,-416.81 924.2,-416.81 926.13,-418.39 925.63,-415.07 928.07,-419.98 928.07,-419.98"/>
</a>
</g>
</g>
<!-- Node16 -->
<g id="Node000016" class="node">
<title>Node16</title>
<g id="a_Node000016"><a xlink:href="../../d0/d00/classServer__AbstractParticipant.html#a243926ed25d6cec8514de52abfe57e46" target="_top" xlink:title=" ">
<polygon fill="white" stroke="#666666" points="380,-76 234,-76 234,-46 380,-46 380,-76"/>
<text text-anchor="start" x="242" y="-64" font-family="Helvetica,sans-Serif" font-size="10.00">Server_AbstractParticipant</text>
<text text-anchor="middle" x="307" y="-53" font-family="Helvetica,sans-Serif" font-size="10.00">::prepareDestroy</text>
</a>
</g>
</g>
<!-- Node1&#45;&gt;Node16 -->
<g id="edge20_Node000001_Node000016" class="edge">
<title>Node1&#45;&gt;Node16</title>
<g id="a_edge20_Node000001_Node000016"><a xlink:title=" ">
<path fill="none" stroke="#63b8ff" d="M91.66,-333.25C98.69,-295.09 129.61,-154.51 214,-85 218.58,-81.23 223.69,-78.04 229.08,-75.35"/>
<polygon fill="#63b8ff" stroke="#63b8ff" points="233.68,-73.21 230.1,-77.36 231.41,-74.27 229.15,-75.32 229.15,-75.32 229.15,-75.32 231.41,-74.27 228.19,-73.28 233.68,-73.21 233.68,-73.21"/>
</a>
</g>
</g>
<!-- Node18 -->
<g id="Node000018" class="node">
<title>Node18</title>
<g id="a_Node000018"><a xlink:href="../../df/d89/classServer__Game.html#a68736140f833d4a574cf1a162061938c" target="_top" xlink:title=" ">
<polygon fill="white" stroke="#666666" points="387,-771 227,-771 227,-741 387,-741 387,-771"/>
<text text-anchor="start" x="235" y="-759" font-family="Helvetica,sans-Serif" font-size="10.00">Server_Game::removeArrows</text>
<text text-anchor="middle" x="307" y="-748" font-family="Helvetica,sans-Serif" font-size="10.00">RelatedToPlayer</text>
</a>
</g>
</g>
<!-- Node1&#45;&gt;Node18 -->
<g id="edge23_Node000001_Node000018" class="edge">
<title>Node1&#45;&gt;Node18</title>
<g id="a_edge23_Node000001_Node000018"><a xlink:title=" ">
<path fill="none" stroke="#63b8ff" d="M90.07,-352.67C90.98,-400.63 101.41,-615.19 214,-727 218.46,-731.43 223.58,-735.18 229.08,-738.36"/>
<polygon fill="#63b8ff" stroke="#63b8ff" points="233.79,-740.89 228.32,-740.5 231.59,-739.71 229.39,-738.52 229.39,-738.52 229.39,-738.52 231.59,-739.71 230.46,-736.54 233.79,-740.89 233.79,-740.89"/>
</a>
</g>
</g>
<!-- Node19 -->
<g id="Node000019" class="node">
<title>Node19</title>
<g id="a_Node000019"><a xlink:href="../../de/d8f/classGameEventStorage.html#ab1523dfae2f027b764238ebfab03a478" target="_top" xlink:title=" ">
<polygon fill="white" stroke="#666666" points="397,-371.5 217,-371.5 217,-352.5 397,-352.5 397,-371.5"/>
<text text-anchor="middle" x="307" y="-359.5" font-family="Helvetica,sans-Serif" font-size="10.00">GameEventStorage::sendToGame</text>
</a>
</g>
</g>
<!-- Node1&#45;&gt;Node19 -->
<g id="edge27_Node000001_Node000019" class="edge">
<title>Node1&#45;&gt;Node19</title>
<g id="a_edge27_Node000001_Node000019"><a xlink:title=" ">
<path fill="none" stroke="#63b8ff" d="M178.17,-350.76C189.19,-351.73 200.51,-352.72 211.62,-353.7"/>
<polygon fill="#63b8ff" stroke="#63b8ff" points="216.71,-354.15 211.54,-355.95 214.22,-353.93 211.73,-353.71 211.73,-353.71 211.73,-353.71 214.22,-353.93 211.93,-351.47 216.71,-354.15 216.71,-354.15"/>
</a>
</g>
</g>
<!-- Node21 -->
<g id="Node000021" class="node">
<title>Node21</title>
<g id="a_Node000021"><a xlink:href="../../df/d89/classServer__Game.html#a042625cfa763abbc19149a99aa84a69c" target="_top" xlink:title=" ">
<polygon fill="white" stroke="#666666" points="400,-450.5 214,-450.5 214,-431.5 400,-431.5 400,-450.5"/>
<text text-anchor="middle" x="307" y="-438.5" font-family="Helvetica,sans-Serif" font-size="10.00">Server_Game::stopGameIfFinished</text>
</a>
</g>
</g>
<!-- Node1&#45;&gt;Node21 -->
<g id="edge30_Node000001_Node000021" class="edge">
<title>Node1&#45;&gt;Node21</title>
<g id="a_edge30_Node000001_Node000021"><a xlink:title=" ">
<path fill="none" stroke="#63b8ff" d="M104.31,-352.69C126.82,-367.57 172.24,-396.21 214,-414 228.86,-420.33 245.67,-425.74 260.82,-430.02"/>
<polygon fill="#63b8ff" stroke="#63b8ff" points="265.89,-431.43 260.47,-432.26 263.48,-430.76 261.07,-430.09 261.07,-430.09 261.07,-430.09 263.48,-430.76 261.67,-427.92 265.89,-431.43 265.89,-431.43"/>
</a>
</g>
</g>
<!-- Node24 -->
<g id="Node000024" class="node">
<title>Node24</title>
<g id="a_Node000024"><a xlink:href="../../df/d89/classServer__Game.html#afa5ba8b52fc5f5ceb50a748314317513" target="_top" xlink:title=" ">
<polygon fill="white" stroke="#666666" points="386.5,-26.5 227.5,-26.5 227.5,-7.5 386.5,-7.5 386.5,-26.5"/>
<text text-anchor="middle" x="307" y="-14.5" font-family="Helvetica,sans-Serif" font-size="10.00">Server_Game::unattachCards</text>
</a>
</g>
</g>
<!-- Node1&#45;&gt;Node24 -->
<g id="edge36_Node000001_Node000024" class="edge">
<title>Node1&#45;&gt;Node24</title>
<g id="a_edge36_Node000001_Node000024"><a xlink:title=" ">
<path fill="none" stroke="#63b8ff" d="M90.75,-333.45C94.61,-291.19 116.01,-119.53 214,-37 217.67,-33.91 221.71,-31.26 225.99,-29"/>
<polygon fill="#63b8ff" stroke="#63b8ff" points="230.72,-26.69 227.21,-30.91 228.47,-27.79 226.22,-28.89 226.22,-28.89 226.22,-28.89 228.47,-27.79 225.24,-26.86 230.72,-26.69 230.72,-26.69"/>
</a>
</g>
</g>
<!-- Node4&#45;&gt;Node5 -->
<g id="edge4_Node000004_Node000005" class="edge">
<title>Node4&#45;&gt;Node5</title>
<g id="a_edge4_Node000004_Node000005"><a xlink:title=" ">
<path fill="none" stroke="#63b8ff" d="M389.11,-242.39C407.49,-241.12 426.99,-239.78 445.3,-238.51"/>
<polygon fill="#63b8ff" stroke="#63b8ff" points="450.44,-238.15 445.6,-240.74 447.94,-238.33 445.45,-238.5 445.45,-238.5 445.45,-238.5 447.94,-238.33 445.29,-236.25 450.44,-238.15 450.44,-238.15"/>
</a>
</g>
</g>
<!-- Node10&#45;&gt;Node7 -->
<g id="edge11_Node000010_Node000007" class="edge">
<title>Node10&#45;&gt;Node7</title>
<g id="a_edge11_Node000010_Node000007"><a xlink:title=" ">
<path fill="none" stroke="#63b8ff" d="M317.5,-571.67C337.36,-591.16 385.63,-634.75 436,-652 583.88,-702.64 770.07,-694.86 871.43,-685.14"/>
<polygon fill="#63b8ff" stroke="#63b8ff" points="876.49,-684.65 871.73,-687.37 874,-684.89 871.51,-685.13 871.51,-685.13 871.51,-685.13 874,-684.89 871.29,-682.89 876.49,-684.65 876.49,-684.65"/>
</a>
</g>
</g>
<!-- Node11 -->
<g id="Node000011" class="node">
<title>Node11</title>
<g id="a_Node000011"><a xlink:href="../../df/d89/classServer__Game.html#ae1239a9d283d784e137434d4ecb0143a" target="_top" xlink:title=" ">
<polygon fill="white" stroke="#666666" points="608.5,-571.5 443.5,-571.5 443.5,-552.5 608.5,-552.5 608.5,-571.5"/>
<text text-anchor="middle" x="526" y="-559.5" font-family="Helvetica,sans-Serif" font-size="10.00">Server_Game::setActivePlayer</text>
</a>
</g>
</g>
<!-- Node10&#45;&gt;Node11 -->
<g id="edge12_Node000010_Node000011" class="edge">
<title>Node10&#45;&gt;Node11</title>
<g id="a_edge12_Node000010_Node000011"><a xlink:title=" ">
<path fill="none" stroke="#63b8ff" d="M372.52,-562C393.11,-562 416.24,-562 438.14,-562"/>
<polygon fill="#63b8ff" stroke="#63b8ff" points="443.38,-562 438.38,-564.25 440.88,-562 438.38,-562 438.38,-562 438.38,-562 440.88,-562 438.38,-559.75 443.38,-562 443.38,-562"/>
</a>
</g>
</g>
<!-- Node11&#45;&gt;Node12 -->
<g id="edge13_Node000011_Node000012" class="edge">
<title>Node11&#45;&gt;Node12</title>
<g id="a_edge13_Node000011_Node000012"><a xlink:title=" ">
<path fill="none" stroke="#63b8ff" d="M608.67,-556.8C668.84,-552.64 752.63,-546.16 826,-538 838.23,-536.64 851.13,-535.01 863.76,-533.31"/>
<polygon fill="#63b8ff" stroke="#63b8ff" points="868.77,-532.62 864.12,-535.53 866.29,-532.96 863.81,-533.3 863.81,-533.3 863.81,-533.3 866.29,-532.96 863.51,-531.07 868.77,-532.62 868.77,-532.62"/>
</a>
</g>
</g>
<!-- Node11&#45;&gt;Node13 -->
<g id="edge14_Node000011_Node000013" class="edge">
<title>Node11&#45;&gt;Node13</title>
<g id="a_edge14_Node000011_Node000013"><a xlink:title=" ">
<path fill="none" stroke="#63b8ff" d="M558.46,-552.45C629.35,-530.94 802.33,-478.45 891.05,-451.52"/>
<polygon fill="#63b8ff" stroke="#63b8ff" points="895.99,-450.02 891.86,-453.63 893.6,-450.75 891.21,-451.48 891.21,-451.48 891.21,-451.48 893.6,-450.75 890.55,-449.32 895.99,-450.02 895.99,-450.02"/>
</a>
</g>
</g>
<!-- Node14 -->
<g id="Node000014" class="node">
<title>Node14</title>
<g id="a_Node000014"><a xlink:href="../../df/d89/classServer__Game.html#a098acc96fc68f8f7035711fc5bd35b95" target="_top" xlink:title=" ">
<polygon fill="white" stroke="#666666" points="821,-609.5 657,-609.5 657,-590.5 821,-590.5 821,-609.5"/>
<text text-anchor="middle" x="739" y="-597.5" font-family="Helvetica,sans-Serif" font-size="10.00">Server_Game::setActivePhase</text>
</a>
</g>
</g>
<!-- Node11&#45;&gt;Node14 -->
<g id="edge15_Node000011_Node000014" class="edge">
<title>Node11&#45;&gt;Node14</title>
<g id="a_edge15_Node000011_Node000014"><a xlink:title=" ">
<path fill="none" stroke="#63b8ff" d="M579.97,-571.54C610.45,-577.03 648.77,-583.93 680.05,-589.56"/>
<polygon fill="#63b8ff" stroke="#63b8ff" points="685.01,-590.46 679.69,-591.78 682.55,-590.01 680.09,-589.57 680.09,-589.57 680.09,-589.57 682.55,-590.01 680.48,-587.36 685.01,-590.46 685.01,-590.46"/>
</a>
</g>
</g>
<!-- Node14&#45;&gt;Node7 -->
<g id="edge17_Node000014_Node000007" class="edge">
<title>Node14&#45;&gt;Node7</title>
<g id="a_edge17_Node000014_Node000007"><a xlink:title=" ">
<path fill="none" stroke="#63b8ff" d="M778.46,-609.51C793.44,-613.54 810.66,-618.55 826,-624 859.78,-636 897.52,-653.06 921.38,-664.33"/>
<polygon fill="#63b8ff" stroke="#63b8ff" points="925.96,-666.5 920.48,-666.39 923.7,-665.43 921.44,-664.36 921.44,-664.36 921.44,-664.36 923.7,-665.43 922.41,-662.32 925.96,-666.5 925.96,-666.5"/>
</a>
</g>
</g>
<!-- Node14&#45;&gt;Node12 -->
<g id="edge18_Node000014_Node000012" class="edge">
<title>Node14&#45;&gt;Node12</title>
<g id="a_edge18_Node000014_Node000012"><a xlink:title=" ">
<path fill="none" stroke="#63b8ff" d="M779.38,-590.42C794.16,-586.46 811.01,-581.5 826,-576 855.55,-565.16 887.91,-550.05 911.5,-538.41"/>
<polygon fill="#63b8ff" stroke="#63b8ff" points="916.1,-536.13 912.62,-540.37 913.86,-537.24 911.62,-538.35 911.62,-538.35 911.62,-538.35 913.86,-537.24 910.62,-536.34 916.1,-536.13 916.1,-536.13"/>
</a>
</g>
</g>
<!-- Node14&#45;&gt;Node13 -->
<g id="edge19_Node000014_Node000013" class="edge">
<title>Node14&#45;&gt;Node13</title>
<g id="a_edge19_Node000014_Node000013"><a xlink:title=" ">
<path fill="none" stroke="#63b8ff" d="M755.39,-590.43C773.23,-579 803.11,-558.79 826,-538 843.95,-521.69 844.17,-513.43 862,-497 879.63,-480.76 901.43,-464.69 918.33,-452.98"/>
<polygon fill="#63b8ff" stroke="#63b8ff" points="922.52,-450.1 919.67,-454.79 920.46,-451.52 918.4,-452.94 918.4,-452.94 918.4,-452.94 920.46,-451.52 917.12,-451.08 922.52,-450.1 922.52,-450.1"/>
</a>
</g>
</g>
<!-- Node15 -->
<g id="Node000015" class="node">
<title>Node15</title>
<g id="a_Node000015"><a xlink:href="../../df/d3b/classServer__Arrow.html#ac3d0e97cf7825bb5bf2ac70fed1164bd" target="_top" xlink:title=" ">
<polygon fill="white" stroke="#666666" points="1002.5,-609.5 890.5,-609.5 890.5,-590.5 1002.5,-590.5 1002.5,-609.5"/>
<text text-anchor="middle" x="946.5" y="-597.5" font-family="Helvetica,sans-Serif" font-size="10.00">Server_Arrow::getId</text>
</a>
</g>
</g>
<!-- Node14&#45;&gt;Node15 -->
<g id="edge16_Node000014_Node000015" class="edge">
<title>Node14&#45;&gt;Node15</title>
<g id="a_edge16_Node000014_Node000015"><a xlink:title=" ">
<path fill="none" stroke="#63b8ff" d="M821.22,-600C842.63,-600 865.34,-600 885.42,-600"/>
<polygon fill="#63b8ff" stroke="#63b8ff" points="890.46,-600 885.46,-602.25 887.96,-600 885.46,-600 885.46,-600 885.46,-600 887.96,-600 885.46,-597.75 890.46,-600 890.46,-600"/>
</a>
</g>
</g>
<!-- Node17 -->
<g id="Node000017" class="node">
<title>Node17</title>
<g id="a_Node000017"><a xlink:href="../../d0/d00/classServer__AbstractParticipant.html#aa52e957246a1f7b3ec0a96bbfd38c93e" target="_top" xlink:title=" ">
<polygon fill="white" stroke="#666666" points="599,-78 453,-78 453,-48 599,-48 599,-78"/>
<text text-anchor="start" x="461" y="-66" font-family="Helvetica,sans-Serif" font-size="10.00">Server_AbstractParticipant</text>
<text text-anchor="middle" x="526" y="-55" font-family="Helvetica,sans-Serif" font-size="10.00">::removeFromGame</text>
</a>
</g>
</g>
<!-- Node16&#45;&gt;Node17 -->
<g id="edge21_Node000016_Node000017" class="edge">
<title>Node16&#45;&gt;Node17</title>
<g id="a_edge21_Node000016_Node000017"><a xlink:title=" ">
<path fill="none" stroke="#63b8ff" d="M380.26,-61.67C401.83,-61.86 425.56,-62.08 447.46,-62.29"/>
<polygon fill="#63b8ff" stroke="#63b8ff" points="452.69,-62.33 447.67,-64.54 450.19,-62.31 447.69,-62.29 447.69,-62.29 447.69,-62.29 450.19,-62.31 447.71,-60.04 452.69,-62.33 452.69,-62.33"/>
</a>
</g>
</g>
<!-- Node18&#45;&gt;Node2 -->
<g id="edge24_Node000018_Node000002" class="edge">
<title>Node18&#45;&gt;Node2</title>
<g id="a_edge24_Node000018_Node000002"><a xlink:title=" ">
<path fill="none" stroke="#63b8ff" d="M385.73,-771.04C404.07,-774.59 423.69,-778.39 442.25,-781.98"/>
<polygon fill="#63b8ff" stroke="#63b8ff" points="447.45,-782.99 442.11,-784.25 444.99,-782.52 442.54,-782.04 442.54,-782.04 442.54,-782.04 444.99,-782.52 442.97,-779.83 447.45,-782.99 447.45,-782.99"/>
</a>
</g>
</g>
<!-- Node18&#45;&gt;Node7 -->
<g id="edge25_Node000018_Node000007" class="edge">
<title>Node18&#45;&gt;Node7</title>
<g id="a_edge25_Node000018_Node000007"><a xlink:title=" ">
<path fill="none" stroke="#63b8ff" d="M387.34,-760.35C490.06,-764.04 673.94,-763.96 826,-728 862.12,-719.46 901.03,-700.51 924.31,-688"/>
<polygon fill="#63b8ff" stroke="#63b8ff" points="928.75,-685.59 925.43,-689.95 926.56,-686.78 924.36,-687.97 924.36,-687.97 924.36,-687.97 926.56,-686.78 923.29,-685.99 928.75,-685.59 928.75,-685.59"/>
</a>
</g>
</g>
<!-- Node19&#45;&gt;Node13 -->
<g id="edge28_Node000019_Node000013" class="edge">
<title>Node19&#45;&gt;Node13</title>
<g id="a_edge28_Node000019_Node000013"><a xlink:title=" ">
<path fill="none" stroke="#63b8ff" d="M397.37,-354.95C501.73,-349.07 678.81,-346.45 826,-381 858,-388.51 891.91,-404.72 915.4,-417.44"/>
<polygon fill="#63b8ff" stroke="#63b8ff" points="919.96,-419.93 914.49,-419.5 917.77,-418.73 915.57,-417.53 915.57,-417.53 915.57,-417.53 917.77,-418.73 916.65,-415.56 919.96,-419.93 919.96,-419.93"/>
</a>
</g>
</g>
<!-- Node20 -->
<g id="Node000020" class="node">
<title>Node20</title>
<g id="a_Node000020"><a xlink:href="../../de/d8f/classGameEventStorage.html#a6dc7b9a868d61cac421240d16acfe672" target="_top" xlink:title=" ">
<polygon fill="white" stroke="#666666" points="616,-334 436,-334 436,-304 616,-304 616,-334"/>
<text text-anchor="start" x="444" y="-322" font-family="Helvetica,sans-Serif" font-size="10.00">GameEventStorage::setOverwrite</text>
<text text-anchor="middle" x="526" y="-311" font-family="Helvetica,sans-Serif" font-size="10.00">Ownership</text>
</a>
</g>
</g>
<!-- Node19&#45;&gt;Node20 -->
<g id="edge29_Node000019_Node000020" class="edge">
<title>Node19&#45;&gt;Node20</title>
<g id="a_edge29_Node000019_Node000020"><a xlink:title=" ">
<path fill="none" stroke="#63b8ff" d="M356.16,-352.46C382.01,-347.33 414.56,-340.88 444.16,-335.02"/>
<polygon fill="#63b8ff" stroke="#63b8ff" points="449.27,-334.01 444.8,-337.19 446.82,-334.49 444.37,-334.98 444.37,-334.98 444.37,-334.98 446.82,-334.49 443.93,-332.77 449.27,-334.01 449.27,-334.01"/>
</a>
</g>
</g>
<!-- Node21&#45;&gt;Node3 -->
<g id="edge31_Node000021_Node000003" class="edge">
<title>Node21&#45;&gt;Node3</title>
<g id="a_edge31_Node000021_Node000003"><a xlink:title=" ">
<path fill="none" stroke="#63b8ff" d="M358.33,-431.49C391.62,-425.2 435.29,-416.95 469.58,-410.47"/>
<polygon fill="#63b8ff" stroke="#63b8ff" points="474.57,-409.53 470.07,-412.67 472.11,-409.99 469.65,-410.46 469.65,-410.46 469.65,-410.46 472.11,-409.99 469.24,-408.25 474.57,-409.53 474.57,-409.53"/>
</a>
</g>
</g>
<!-- Node21&#45;&gt;Node7 -->
<g id="edge32_Node000021_Node000007" class="edge">
<title>Node21&#45;&gt;Node7</title>
<g id="a_edge32_Node000021_Node000007"><a xlink:title=" ">
<path fill="none" stroke="#63b8ff" d="M316.58,-450.72C344.03,-481.77 428.3,-576.72 436,-581 575.8,-658.69 767.09,-674.3 870.98,-676.58"/>
<polygon fill="#63b8ff" stroke="#63b8ff" points="876.16,-676.68 871.12,-678.83 873.66,-676.63 871.16,-676.58 871.16,-676.58 871.16,-676.58 873.66,-676.63 871.21,-674.33 876.16,-676.68 876.16,-676.68"/>
</a>
</g>
</g>
<!-- Node22 -->
<g id="Node000022" class="node">
<title>Node22</title>
<g id="a_Node000022"><a xlink:href="../../df/d89/classServer__Game.html#a03820f49c6252407e7f800b727832fb9" target="_top" xlink:title=" ">
<polygon fill="white" stroke="#666666" points="609.5,-458 442.5,-458 442.5,-428 609.5,-428 609.5,-458"/>
<text text-anchor="start" x="450.5" y="-446" font-family="Helvetica,sans-Serif" font-size="10.00">Server_Game::sendGameState</text>
<text text-anchor="middle" x="526" y="-435" font-family="Helvetica,sans-Serif" font-size="10.00">ToPlayers</text>
</a>
</g>
</g>
<!-- Node21&#45;&gt;Node22 -->
<g id="edge33_Node000021_Node000022" class="edge">
<title>Node21&#45;&gt;Node22</title>
<g id="a_edge33_Node000021_Node000022"><a xlink:title=" ">
<path fill="none" stroke="#63b8ff" d="M400.03,-441.85C412.36,-441.96 424.98,-442.08 437.24,-442.19"/>
<polygon fill="#63b8ff" stroke="#63b8ff" points="442.46,-442.24 437.44,-444.44 439.96,-442.22 437.46,-442.19 437.46,-442.19 437.46,-442.19 439.96,-442.22 437.48,-439.94 442.46,-442.24 442.46,-442.24"/>
</a>
</g>
</g>
<!-- Node22&#45;&gt;Node12 -->
<g id="edge35_Node000022_Node000012" class="edge">
<title>Node22&#45;&gt;Node12</title>
<g id="a_edge35_Node000022_Node000012"><a xlink:title=" ">
<path fill="none" stroke="#63b8ff" d="M609.63,-444.55C670.28,-447.24 754.24,-454.22 826,-472 855.79,-479.38 887.89,-492.88 911.31,-503.84"/>
<polygon fill="#63b8ff" stroke="#63b8ff" points="915.87,-506 910.39,-505.89 913.61,-504.93 911.35,-503.86 911.35,-503.86 911.35,-503.86 913.61,-504.93 912.31,-501.83 915.87,-506 915.87,-506"/>
</a>
</g>
</g>
<!-- Node23 -->
<g id="Node000023" class="node">
<title>Node23</title>
<g id="a_Node000023"><a xlink:href="../../df/d89/classServer__Game.html#af1d68099b6544a7c7eba4847e305e1cb" target="_top" xlink:title=" ">
<polygon fill="white" stroke="#666666" points="826,-420 652,-420 652,-390 826,-390 826,-420"/>
<text text-anchor="start" x="660" y="-408" font-family="Helvetica,sans-Serif" font-size="10.00">Server_Game::createGameState</text>
<text text-anchor="middle" x="739" y="-397" font-family="Helvetica,sans-Serif" font-size="10.00">ChangedEvent</text>
</a>
</g>
</g>
<!-- Node22&#45;&gt;Node23 -->
<g id="edge34_Node000022_Node000023" class="edge">
<title>Node22&#45;&gt;Node23</title>
<g id="a_edge34_Node000022_Node000023"><a xlink:title=" ">
<path fill="none" stroke="#63b8ff" d="M609.79,-428.09C622.73,-425.76 636.16,-423.34 649.23,-420.99"/>
<polygon fill="#63b8ff" stroke="#63b8ff" points="654.41,-420.05 649.89,-423.15 651.95,-420.5 649.49,-420.94 649.49,-420.94 649.49,-420.94 651.95,-420.5 649.09,-418.73 654.41,-420.05 654.41,-420.05"/>
</a>
</g>
</g>
<!-- Node25 -->
<g id="Node000025" class="node">
<title>Node25</title>
<g id="a_Node000025"><a xlink:href="../../da/d99/classServer__AbstractPlayer.html#acb13829ad009e505b9c3e76349150549" target="_top" xlink:title=" ">
<polygon fill="white" stroke="#666666" points="588.5,-30 463.5,-30 463.5,0 588.5,0 588.5,-30"/>
<text text-anchor="start" x="471.5" y="-18" font-family="Helvetica,sans-Serif" font-size="10.00">Server_AbstractPlayer</text>
<text text-anchor="middle" x="526" y="-7" font-family="Helvetica,sans-Serif" font-size="10.00">::getZones</text>
</a>
</g>
</g>
<!-- Node24&#45;&gt;Node25 -->
<g id="edge37_Node000024_Node000025" class="edge">
<title>Node24&#45;&gt;Node25</title>
<g id="a_edge37_Node000024_Node000025"><a xlink:title=" ">
<path fill="none" stroke="#63b8ff" d="M386.65,-16.28C410.1,-16.06 435.58,-15.82 458.2,-15.62"/>
<polygon fill="#63b8ff" stroke="#63b8ff" points="463.28,-15.57 458.3,-17.86 460.78,-15.59 458.28,-15.62 458.28,-15.62 458.28,-15.62 460.78,-15.59 458.26,-13.37 463.28,-15.57 463.28,-15.57"/>
</a>
</g>
</g>
</g>
</svg>

<g id="navigator" transform="translate(0 0)" fill="#404254">
  <rect fill="#f2f5e9" fill-opacity="0.5" stroke="#606060" stroke-width=".5" x="0" y="0" width="60" height="60"/>
  <use id="zoomplus" xlink:href="#zoomPlus" x="17" y="9" onmousedown="handleZoom(evt,'in')"/>
  <use id="zoomminus" xlink:href="#zoomMin" x="42" y="9" onmousedown="handleZoom(evt,'out')"/>
  <use id="reset" xlink:href="#resetDef" x="30" y="36" onmousedown="handleReset()"/>
   <use id="arrowup" xlink:href="#arrowUp" x="0" y="0" onmousedown="handlePan(0,-1)"/>
  <use id="arrowright" xlink:href="#arrowRight" x="0" y="0" onmousedown="handlePan(1,0)"/>
  <use id="arrowdown" xlink:href="#arrowDown" x="0" y="0" onmousedown="handlePan(0,1)"/>
  <use id="arrowleft" xlink:href="#arrowLeft" x="0" y="0" onmousedown="handlePan(-1,0)"/>
</g>
<svg viewBox="0 0 15 15" width="100%" height="30px" preserveAspectRatio="xMaxYMin meet">
 <g id="arrow_out" transform="scale(0.3 0.3)">
  <a xlink:href="classServer__Game_a9352f37fe919fef8df4d7e4541656ed1_cgraph_org.svg" target="_base">
   <rect id="button" ry="5" rx="5" y="6" x="6" height="38" width="38"
        fill="#f2f5e9" fill-opacity="0.5" stroke="#606060" stroke-width="1.0"/>
   <path id="arrow"
     d="M 11.500037,31.436501 C 11.940474,20.09759 22.043105,11.32322 32.158766,21.979434 L 37.068811,17.246167 C 37.068811,17.246167 37.088388,32 37.088388,32 L 22.160133,31.978069 C 22.160133,31.978069 26.997745,27.140456 26.997745,27.140456 C 18.528582,18.264221 13.291696,25.230495 11.500037,31.436501 z"
     style="fill:#404040;"/>
  </a>
 </g>
</svg>

<style type='text/css'>
<![CDATA[
[data-mouse-over-selected='false'] { opacity: 0.7; }
[data-mouse-over-selected='true']  { opacity: 1.0; }
]]>
</style>
<script type="application/ecmascript"><![CDATA[
document.addEventListener('DOMContentLoaded', (event) => {
  highlightEdges();
  highlightAdjacentNodes();
});
]]></script>
</svg>
