<?xml version="1.0" encoding="UTF-8" standalone="no"?>
<!DOCTYPE svg PUBLIC "-//W3C//DTD SVG 1.1//EN"
 "http://www.w3.org/Graphics/SVG/1.1/DTD/svg11.dtd">
<!-- Generated by graphviz version 2.43.0 (0)
 -->
<!-- Title: Server_Game::checkJoin Pages: 1 -->
<svg width="530pt" height="161pt"
 viewBox="0.00 0.00 530.00 160.50" xmlns="http://www.w3.org/2000/svg" xmlns:xlink="http://www.w3.org/1999/xlink">
<g id="graph0" class="graph" transform="scale(1 1) rotate(0) translate(4 156.5)">
<title>Server_Game::checkJoin</title>
<!-- Node1 -->
<g id="Node000001" class="node">
<title>Node1</title>
<g id="a_Node000001"><a xlink:title=" ">
<polygon fill="#999999" stroke="#666666" points="135,-93.5 0,-93.5 0,-74.5 135,-74.5 135,-93.5"/>
<text text-anchor="middle" x="67.5" y="-81.5" font-family="Helvetica,sans-Serif" font-size="10.00">Server_Game::checkJoin</text>
</a>
</g>
</g>
<!-- Node2 -->
<g id="Node000002" class="node">
<title>Node2</title>
<g id="a_Node000002"><a xlink:href="../../df/d89/classServer__Game.html#af6c8e07cbc1e43c77e21b7076b58d2bb" target="_top" xlink:title=" ">
<polygon fill="white" stroke="#666666" points="333.5,-152.5 172.5,-152.5 172.5,-133.5 333.5,-133.5 333.5,-152.5"/>
<text text-anchor="middle" x="253" y="-140.5" font-family="Helvetica,sans-Serif" font-size="10.00">Server_Game::getMaxPlayers</text>
</a>
</g>
</g>
<!-- Node1&#45;&gt;Node2 -->
<g id="edge1_Node000001_Node000002" class="edge">
<title>Node1&#45;&gt;Node2</title>
<g id="a_edge1_Node000001_Node000002"><a xlink:title=" ">
<path fill="none" stroke="#63b8ff" d="M89.73,-93.67C110.21,-102.71 142.25,-116.12 171,-125 179.59,-127.65 188.81,-130.08 197.84,-132.24"/>
<polygon fill="#63b8ff" stroke="#63b8ff" points="202.84,-133.41 197.45,-134.46 200.4,-132.84 197.97,-132.27 197.97,-132.27 197.97,-132.27 200.4,-132.84 198.48,-130.08 202.84,-133.41 202.84,-133.41"/>
</a>
</g>
</g>
<!-- Node3 -->
<g id="Node000003" class="node">
<title>Node3</title>
<g id="a_Node000003"><a xlink:href="../../df/d89/classServer__Game.html#ab29a10e86bf358a04d0f7a73ad586e1a" target="_top" xlink:title=" ">
<polygon fill="white" stroke="#666666" points="335,-115.5 171,-115.5 171,-96.5 335,-96.5 335,-115.5"/>
<text text-anchor="middle" x="253" y="-103.5" font-family="Helvetica,sans-Serif" font-size="10.00">Server_Game::getPlayerCount</text>
</a>
</g>
</g>
<!-- Node1&#45;&gt;Node3 -->
<g id="edge2_Node000001_Node000003" class="edge">
<title>Node1&#45;&gt;Node3</title>
<g id="a_edge2_Node000001_Node000003"><a xlink:title=" ">
<path fill="none" stroke="#63b8ff" d="M135.01,-91.97C145.59,-93.24 156.66,-94.57 167.59,-95.88"/>
<polygon fill="#63b8ff" stroke="#63b8ff" points="172.6,-96.48 167.37,-98.12 170.12,-96.18 167.64,-95.89 167.64,-95.89 167.64,-95.89 170.12,-96.18 167.91,-93.65 172.6,-96.48 172.6,-96.48"/>
</a>
</g>
</g>
<!-- Node5 -->
<g id="Node000005" class="node">
<title>Node5</title>
<g id="a_Node000005"><a xlink:href="../../d2/d12/classServer__DatabaseInterface.html#aefe9751e98c25893bc105ec0a75fb81c" target="_top" xlink:title=" ">
<polygon fill="white" stroke="#666666" points="324.5,-78 181.5,-78 181.5,-48 324.5,-48 324.5,-78"/>
<text text-anchor="start" x="189.5" y="-66" font-family="Helvetica,sans-Serif" font-size="10.00">Server_DatabaseInterface</text>
<text text-anchor="middle" x="253" y="-55" font-family="Helvetica,sans-Serif" font-size="10.00">::isInBuddyList</text>
</a>
</g>
</g>
<!-- Node1&#45;&gt;Node5 -->
<g id="edge4_Node000001_Node000005" class="edge">
<title>Node1&#45;&gt;Node5</title>
<g id="a_edge4_Node000001_Node000005"><a xlink:title=" ">
<path fill="none" stroke="#63b8ff" d="M135.01,-76.39C148.44,-74.85 162.65,-73.23 176.36,-71.66"/>
<polygon fill="#63b8ff" stroke="#63b8ff" points="181.39,-71.08 176.68,-73.88 178.91,-71.37 176.42,-71.65 176.42,-71.65 176.42,-71.65 178.91,-71.37 176.17,-69.41 181.39,-71.08 181.39,-71.08"/>
</a>
</g>
</g>
<!-- Node6 -->
<g id="Node000006" class="node">
<title>Node6</title>
<g id="a_Node000006"><a xlink:href="../../d2/d12/classServer__DatabaseInterface.html#a39cf12c48415903552a4414099b14eef" target="_top" xlink:title=" ">
<polygon fill="white" stroke="#666666" points="324.5,-30 181.5,-30 181.5,0 324.5,0 324.5,-30"/>
<text text-anchor="start" x="189.5" y="-18" font-family="Helvetica,sans-Serif" font-size="10.00">Server_DatabaseInterface</text>
<text text-anchor="middle" x="253" y="-7" font-family="Helvetica,sans-Serif" font-size="10.00">::isInIgnoreList</text>
</a>
</g>
</g>
<!-- Node1&#45;&gt;Node6 -->
<g id="edge5_Node000001_Node000006" class="edge">
<title>Node1&#45;&gt;Node6</title>
<g id="a_edge5_Node000001_Node000006"><a xlink:title=" ">
<path fill="none" stroke="#63b8ff" d="M88.23,-74.45C108.65,-64.78 141.62,-49.75 171,-39 177.94,-36.46 185.28,-33.99 192.6,-31.66"/>
<polygon fill="#63b8ff" stroke="#63b8ff" points="197.66,-30.07 193.57,-33.72 195.28,-30.82 192.89,-31.57 192.89,-31.57 192.89,-31.57 195.28,-30.82 192.22,-29.43 197.66,-30.07 197.66,-30.07"/>
</a>
</g>
</g>
<!-- Node4 -->
<g id="Node000004" class="node">
<title>Node4</title>
<g id="a_Node000004"><a xlink:href="../../df/d89/classServer__Game.html#a33b1b32840eea3bd61eea403dd3c2a81" target="_top" xlink:title=" ">
<polygon fill="white" stroke="#666666" points="522,-121 371,-121 371,-91 522,-91 522,-121"/>
<text text-anchor="start" x="379" y="-109" font-family="Helvetica,sans-Serif" font-size="10.00">Server_Game::getSpectator</text>
<text text-anchor="middle" x="446.5" y="-98" font-family="Helvetica,sans-Serif" font-size="10.00">Count</text>
</a>
</g>
</g>
<!-- Node3&#45;&gt;Node4 -->
<g id="edge3_Node000003_Node000004" class="edge">
<title>Node3&#45;&gt;Node4</title>
<g id="a_edge3_Node000003_Node000004"><a xlink:title=" ">
<path fill="none" stroke="#63b8ff" d="M335.21,-106C345.28,-106 355.57,-106 365.62,-106"/>
<polygon fill="#63b8ff" stroke="#63b8ff" points="370.85,-106 365.85,-108.25 368.35,-106 365.85,-106 365.85,-106 365.85,-106 368.35,-106 365.85,-103.75 370.85,-106 370.85,-106"/>
</a>
</g>
</g>
</g>
</svg>
