<?xml version="1.0" encoding="UTF-8" standalone="no"?>
<!DOCTYPE svg PUBLIC "-//W3C//DTD SVG 1.1//EN"
 "http://www.w3.org/Graphics/SVG/1.1/DTD/svg11.dtd">
<!-- Generated by graphviz version 2.43.0 (0)
 -->
<!-- Title: Server_Game::kickParticipant Pages: 1 -->
<svg width="1236pt" height="946pt"
 viewBox="0.00 0.00 1236.00 945.57" xmlns="http://www.w3.org/2000/svg" xmlns:xlink="http://www.w3.org/1999/xlink">
<g id="graph0" class="graph" transform="scale(1 1) rotate(0) translate(4 941.57)">
<title>Server_Game::kickParticipant</title>
<!-- Node1 -->
<g id="Node000001" class="node">
<title>Node1</title>
<g id="a_Node000001"><a xlink:title=" ">
<polygon fill="#999999" stroke="#666666" points="161,-684.5 0,-684.5 0,-665.5 161,-665.5 161,-684.5"/>
<text text-anchor="middle" x="80.5" y="-672.5" font-family="Helvetica,sans-Serif" font-size="10.00">Server_Game::kickParticipant</text>
</a>
</g>
</g>
<!-- Node2 -->
<g id="Node000002" class="node">
<title>Node2</title>
<g id="a_Node000002"><a xlink:href="../../df/d89/classServer__Game.html#a325a1eb708f9158e554a7a955914cae6" target="_top" xlink:title=" ">
<polygon fill="white" stroke="#666666" points="1221,-728 1066,-728 1066,-698 1221,-698 1221,-728"/>
<text text-anchor="start" x="1074" y="-716" font-family="Helvetica,sans-Serif" font-size="10.00">Server_Game::prepareGame</text>
<text text-anchor="middle" x="1143.5" y="-705" font-family="Helvetica,sans-Serif" font-size="10.00">Event</text>
</a>
</g>
</g>
<!-- Node1&#45;&gt;Node2 -->
<g id="edge1_Node000001_Node000002" class="edge">
<title>Node1&#45;&gt;Node2</title>
<g id="a_edge1_Node000001_Node000002"><a xlink:title=" ">
<path fill="none" stroke="#63b8ff" d="M93.75,-684.52C135.32,-716.19 275.9,-818.08 411,-856 583.07,-904.3 638.48,-904.54 813,-866 932.51,-839.61 1060.16,-765.32 1114.94,-730.91"/>
<polygon fill="#63b8ff" stroke="#63b8ff" points="1119.39,-728.1 1116.36,-732.67 1117.27,-729.44 1115.16,-730.77 1115.16,-730.77 1115.16,-730.77 1117.27,-729.44 1113.96,-728.87 1119.39,-728.1 1119.39,-728.1"/>
</a>
</g>
</g>
<!-- Node3 -->
<g id="Node000003" class="node">
<title>Node3</title>
<g id="a_Node000003"><a xlink:href="../../df/d89/classServer__Game.html#a9352f37fe919fef8df4d7e4541656ed1" target="_top" xlink:title=" ">
<polygon fill="white" stroke="#666666" points="375,-465.5 197,-465.5 197,-446.5 375,-446.5 375,-465.5"/>
<text text-anchor="middle" x="286" y="-453.5" font-family="Helvetica,sans-Serif" font-size="10.00">Server_Game::removeParticipant</text>
</a>
</g>
</g>
<!-- Node1&#45;&gt;Node3 -->
<g id="edge2_Node000001_Node000003" class="edge">
<title>Node1&#45;&gt;Node3</title>
<g id="a_edge2_Node000001_Node000003"><a xlink:title=" ">
<path fill="none" stroke="#63b8ff" d="M90.51,-665.31C123.01,-630.32 234.36,-510.5 272.26,-469.72"/>
<polygon fill="#63b8ff" stroke="#63b8ff" points="276.1,-465.58 274.34,-470.78 274.4,-467.41 272.69,-469.24 272.69,-469.24 272.69,-469.24 274.4,-467.41 271.05,-467.71 276.1,-465.58 276.1,-465.58"/>
</a>
</g>
</g>
<!-- Node3&#45;&gt;Node2 -->
<g id="edge28_Node000003_Node000002" class="edge">
<title>Node3&#45;&gt;Node2</title>
<g id="a_edge28_Node000003_Node000002"><a xlink:title=" ">
<path fill="none" stroke="#63b8ff" d="M289.77,-465.51C299.85,-498.21 337.8,-606.71 411,-656 515.06,-726.08 892.1,-722.06 1060.39,-716.48"/>
<polygon fill="#63b8ff" stroke="#63b8ff" points="1065.8,-716.3 1060.88,-718.72 1063.3,-716.38 1060.81,-716.47 1060.81,-716.47 1060.81,-716.47 1063.3,-716.38 1060.73,-714.22 1065.8,-716.3 1065.8,-716.3"/>
</a>
</g>
</g>
<!-- Node4 -->
<g id="Node000004" class="node">
<title>Node4</title>
<g id="a_Node000004"><a xlink:href="../../de/d8f/classGameEventStorage.html#acd9c2f6ebbfa52476072e591d0b19a83" target="_top" xlink:title=" ">
<polygon fill="white" stroke="#666666" points="802.5,-409 643.5,-409 643.5,-379 802.5,-379 802.5,-409"/>
<text text-anchor="start" x="651.5" y="-397" font-family="Helvetica,sans-Serif" font-size="10.00">GameEventStorage::enqueue</text>
<text text-anchor="middle" x="723" y="-386" font-family="Helvetica,sans-Serif" font-size="10.00">GameEvent</text>
</a>
</g>
</g>
<!-- Node3&#45;&gt;Node4 -->
<g id="edge3_Node000003_Node000004" class="edge">
<title>Node3&#45;&gt;Node4</title>
<g id="a_edge3_Node000003_Node000004"><a xlink:title=" ">
<path fill="none" stroke="#63b8ff" d="M317.26,-446.43C342.17,-438.92 378.54,-428.79 411,-423 487.2,-409.41 575.11,-401.96 637.98,-398.02"/>
<polygon fill="#63b8ff" stroke="#63b8ff" points="643.23,-397.7 638.37,-400.25 640.73,-397.85 638.24,-398.01 638.24,-398.01 638.24,-398.01 640.73,-397.85 638.1,-395.76 643.23,-397.7 643.23,-397.7"/>
</a>
</g>
</g>
<!-- Node5 -->
<g id="Node000005" class="node">
<title>Node5</title>
<g id="a_Node000005"><a xlink:href="../../df/d89/classServer__Game.html#a16d4b8a7306d0fc4f6528d25961bcb8c" target="_top" xlink:title=" ">
<polygon fill="white" stroke="#666666" points="812,-608.5 634,-608.5 634,-589.5 812,-589.5 812,-608.5"/>
<text text-anchor="middle" x="723" y="-596.5" font-family="Helvetica,sans-Serif" font-size="10.00">Server_Game::gameInfoChanged</text>
</a>
</g>
</g>
<!-- Node3&#45;&gt;Node5 -->
<g id="edge4_Node000003_Node000005" class="edge">
<title>Node3&#45;&gt;Node5</title>
<g id="a_edge4_Node000003_Node000005"><a xlink:title=" ">
<path fill="none" stroke="#63b8ff" d="M299.62,-465.76C321.21,-481.97 367.18,-514.43 411,-532 484.67,-561.54 573.63,-579.03 637.51,-588.69"/>
<polygon fill="#63b8ff" stroke="#63b8ff" points="642.83,-589.49 637.55,-590.97 640.36,-589.12 637.89,-588.75 637.89,-588.75 637.89,-588.75 640.36,-589.12 638.22,-586.52 642.83,-589.49 642.83,-589.49"/>
</a>
</g>
</g>
<!-- Node6 -->
<g id="Node000006" class="node">
<title>Node6</title>
<g id="a_Node000006"><a xlink:href="../../d1/d15/classServer__Room.html#ac4518ebbe7b77749141192a1a6d5cb7c" target="_top" xlink:title=" ">
<polygon fill="white" stroke="#666666" points="779.5,-484.5 666.5,-484.5 666.5,-465.5 779.5,-465.5 779.5,-484.5"/>
<text text-anchor="middle" x="723" y="-472.5" font-family="Helvetica,sans-Serif" font-size="10.00">Server_Room::getId</text>
</a>
</g>
</g>
<!-- Node3&#45;&gt;Node6 -->
<g id="edge5_Node000003_Node000006" class="edge">
<title>Node3&#45;&gt;Node6</title>
<g id="a_edge5_Node000003_Node000006"><a xlink:title=" ">
<path fill="none" stroke="#63b8ff" d="M375.03,-459.84C460.13,-463.56 586.79,-469.09 661.23,-472.35"/>
<polygon fill="#63b8ff" stroke="#63b8ff" points="666.5,-472.58 661.41,-474.61 664,-472.47 661.5,-472.36 661.5,-472.36 661.5,-472.36 664,-472.47 661.6,-470.11 666.5,-472.58 666.5,-472.58"/>
</a>
</g>
</g>
<!-- Node7 -->
<g id="Node000007" class="node">
<title>Node7</title>
<g id="a_Node000007"><a xlink:href="../../df/d89/classServer__Game.html#ab29a10e86bf358a04d0f7a73ad586e1a" target="_top" xlink:title=" ">
<polygon fill="white" stroke="#666666" points="586,-233.5 422,-233.5 422,-214.5 586,-214.5 586,-233.5"/>
<text text-anchor="middle" x="504" y="-221.5" font-family="Helvetica,sans-Serif" font-size="10.00">Server_Game::getPlayerCount</text>
</a>
</g>
</g>
<!-- Node3&#45;&gt;Node7 -->
<g id="edge6_Node000003_Node000007" class="edge">
<title>Node3&#45;&gt;Node7</title>
<g id="a_edge6_Node000003_Node000007"><a xlink:title=" ">
<path fill="none" stroke="#63b8ff" d="M289.82,-446.35C300.03,-413.12 338.39,-302.54 411,-248 418.13,-242.65 426.34,-238.48 434.87,-235.25"/>
<polygon fill="#63b8ff" stroke="#63b8ff" points="439.63,-233.54 435.68,-237.35 437.28,-234.39 434.92,-235.23 434.92,-235.23 434.92,-235.23 437.28,-234.39 434.16,-233.11 439.63,-233.54 439.63,-233.54"/>
</a>
</g>
</g>
<!-- Node8 -->
<g id="Node000008" class="node">
<title>Node8</title>
<g id="a_Node000008"><a xlink:href="../../df/d89/classServer__Game.html#a33b1b32840eea3bd61eea403dd3c2a81" target="_top" xlink:title=" ">
<polygon fill="white" stroke="#666666" points="798.5,-78 647.5,-78 647.5,-48 798.5,-48 798.5,-78"/>
<text text-anchor="start" x="655.5" y="-66" font-family="Helvetica,sans-Serif" font-size="10.00">Server_Game::getSpectator</text>
<text text-anchor="middle" x="723" y="-55" font-family="Helvetica,sans-Serif" font-size="10.00">Count</text>
</a>
</g>
</g>
<!-- Node3&#45;&gt;Node8 -->
<g id="edge12_Node000003_Node000008" class="edge">
<title>Node3&#45;&gt;Node8</title>
<g id="a_edge12_Node000003_Node000008"><a xlink:title=" ">
<path fill="none" stroke="#63b8ff" d="M290.87,-446.09C303.23,-415.84 344.88,-324.12 411,-281 481.67,-234.91 536.59,-301.9 597,-243 647.95,-193.33 583.61,-138.23 633,-87 636.03,-83.85 639.43,-81.1 643.09,-78.71"/>
<polygon fill="#63b8ff" stroke="#63b8ff" points="647.48,-76.05 644.37,-80.56 645.34,-77.34 643.2,-78.63 643.2,-78.63 643.2,-78.63 645.34,-77.34 642.04,-76.71 647.48,-76.05 647.48,-76.05"/>
</a>
</g>
</g>
<!-- Node9 -->
<g id="Node000009" class="node">
<title>Node9</title>
<g id="a_Node000009"><a xlink:href="../../d0/d00/classServer__AbstractParticipant.html#a1ce5bd3a2ecb61abf21583b75ebc6185" target="_top" xlink:title=" ">
<polygon fill="white" stroke="#666666" points="796,-361 650,-361 650,-331 796,-331 796,-361"/>
<text text-anchor="start" x="658" y="-349" font-family="Helvetica,sans-Serif" font-size="10.00">Server_AbstractParticipant</text>
<text text-anchor="middle" x="723" y="-338" font-family="Helvetica,sans-Serif" font-size="10.00">::getPlayerId</text>
</a>
</g>
</g>
<!-- Node3&#45;&gt;Node9 -->
<g id="edge8_Node000003_Node000009" class="edge">
<title>Node3&#45;&gt;Node9</title>
<g id="a_edge8_Node000003_Node000009"><a xlink:title=" ">
<path fill="none" stroke="#63b8ff" d="M303.24,-446.44C326.37,-433.25 370.5,-409.68 411,-397 488.58,-372.72 580.86,-359.44 644.65,-352.58"/>
<polygon fill="#63b8ff" stroke="#63b8ff" points="649.96,-352.01 645.23,-354.78 647.48,-352.28 644.99,-352.54 644.99,-352.54 644.99,-352.54 647.48,-352.28 644.75,-350.3 649.96,-352.01 649.96,-352.01"/>
</a>
</g>
</g>
<!-- Node10 -->
<g id="Node000010" class="node">
<title>Node10</title>
<g id="a_Node000010"><a xlink:href="../../df/d89/classServer__Game.html#a540b85be4a6fdaab1ebb548a4d2424a5" target="_top" xlink:title=" ">
<polygon fill="white" stroke="#666666" points="1213.5,-522.5 1073.5,-522.5 1073.5,-503.5 1213.5,-503.5 1213.5,-522.5"/>
<text text-anchor="middle" x="1143.5" y="-510.5" font-family="Helvetica,sans-Serif" font-size="10.00">Server_Game::getPlayers</text>
</a>
</g>
</g>
<!-- Node3&#45;&gt;Node10 -->
<g id="edge9_Node000003_Node000010" class="edge">
<title>Node3&#45;&gt;Node10</title>
<g id="a_edge9_Node000003_Node000010"><a xlink:title=" ">
<path fill="none" stroke="#63b8ff" d="M375.14,-451.7C479.78,-447.63 659.46,-443.9 813,-457 914.22,-465.64 1031.11,-488.65 1094.89,-502.34"/>
<polygon fill="#63b8ff" stroke="#63b8ff" points="1100.14,-503.47 1094.78,-504.62 1097.69,-502.95 1095.25,-502.42 1095.25,-502.42 1095.25,-502.42 1097.69,-502.95 1095.72,-500.22 1100.14,-503.47 1100.14,-503.47"/>
</a>
</g>
</g>
<!-- Node11 -->
<g id="Node000011" class="node">
<title>Node11</title>
<g id="a_Node000011"><a xlink:href="../../d1/d15/classServer__Room.html#a537f7d548ff11133bed30f0b08c01df7" target="_top" xlink:title=" ">
<polygon fill="white" stroke="#666666" points="571.5,-196.5 436.5,-196.5 436.5,-177.5 571.5,-177.5 571.5,-196.5"/>
<text text-anchor="middle" x="504" y="-184.5" font-family="Helvetica,sans-Serif" font-size="10.00">Server_Room::getServer</text>
</a>
</g>
</g>
<!-- Node3&#45;&gt;Node11 -->
<g id="edge10_Node000003_Node000011" class="edge">
<title>Node3&#45;&gt;Node11</title>
<g id="a_edge10_Node000003_Node000011"><a xlink:title=" ">
<path fill="none" stroke="#63b8ff" d="M288.66,-446.42C295.69,-408.94 326.6,-271.1 411,-206 417.09,-201.31 424.05,-197.7 431.36,-194.93"/>
<polygon fill="#63b8ff" stroke="#63b8ff" points="436.47,-193.15 432.49,-196.92 434.11,-193.97 431.75,-194.79 431.75,-194.79 431.75,-194.79 434.11,-193.97 431.01,-192.67 436.47,-193.15 436.47,-193.15"/>
</a>
</g>
</g>
<!-- Node12 -->
<g id="Node000012" class="node">
<title>Node12</title>
<g id="a_Node000012"><a xlink:href="../../d0/d00/classServer__AbstractParticipant.html#ac0c73b9dceaaa20a4b04ddcbb813aec7" target="_top" xlink:title=" ">
<polygon fill="white" stroke="#666666" points="577,-159 431,-159 431,-129 577,-129 577,-159"/>
<text text-anchor="start" x="439" y="-147" font-family="Helvetica,sans-Serif" font-size="10.00">Server_AbstractParticipant</text>
<text text-anchor="middle" x="504" y="-136" font-family="Helvetica,sans-Serif" font-size="10.00">::getSpectator</text>
</a>
</g>
</g>
<!-- Node3&#45;&gt;Node12 -->
<g id="edge11_Node000003_Node000012" class="edge">
<title>Node3&#45;&gt;Node12</title>
<g id="a_edge11_Node000003_Node000012"><a xlink:title=" ">
<path fill="none" stroke="#63b8ff" d="M288.16,-446.33C293.56,-405.79 319.95,-247.92 411,-169 415.59,-165.02 420.76,-161.67 426.24,-158.84"/>
<polygon fill="#63b8ff" stroke="#63b8ff" points="430.92,-156.59 427.39,-160.79 428.67,-157.68 426.41,-158.76 426.41,-158.76 426.41,-158.76 428.67,-157.68 425.44,-156.73 430.92,-156.59 430.92,-156.59"/>
</a>
</g>
</g>
<!-- Node13 -->
<g id="Node000013" class="node">
<title>Node13</title>
<g id="a_Node000013"><a xlink:href="../../d9/d5b/classServerInfo__User__Container.html#a4864fbb9b45940f5f5dedfa4fa808cf4" target="_top" xlink:title=" ">
<polygon fill="white" stroke="#666666" points="577.5,-111 430.5,-111 430.5,-81 577.5,-81 577.5,-111"/>
<text text-anchor="start" x="438.5" y="-99" font-family="Helvetica,sans-Serif" font-size="10.00">ServerInfo_User_Container</text>
<text text-anchor="middle" x="504" y="-88" font-family="Helvetica,sans-Serif" font-size="10.00">::getUserInfo</text>
</a>
</g>
</g>
<!-- Node3&#45;&gt;Node13 -->
<g id="edge13_Node000003_Node000013" class="edge">
<title>Node3&#45;&gt;Node13</title>
<g id="a_edge13_Node000003_Node000013"><a xlink:title=" ">
<path fill="none" stroke="#63b8ff" d="M287.47,-446.25C290.18,-401.47 307.56,-213.73 411,-120 415.4,-116.02 420.37,-112.68 425.67,-109.88"/>
<polygon fill="#63b8ff" stroke="#63b8ff" points="430.2,-107.66 426.71,-111.88 427.96,-108.76 425.71,-109.86 425.71,-109.86 425.71,-109.86 427.96,-108.76 424.72,-107.84 430.2,-107.66 430.2,-107.66"/>
</a>
</g>
</g>
<!-- Node14 -->
<g id="Node000014" class="node">
<title>Node14</title>
<g id="a_Node000014"><a xlink:href="../../df/d89/classServer__Game.html#a364c5a0716a166aea4cb7c60eaa96829" target="_top" xlink:title=" ">
<polygon fill="white" stroke="#666666" points="569.5,-646.5 438.5,-646.5 438.5,-627.5 569.5,-627.5 569.5,-646.5"/>
<text text-anchor="middle" x="504" y="-634.5" font-family="Helvetica,sans-Serif" font-size="10.00">Server_Game::nextTurn</text>
</a>
</g>
</g>
<!-- Node3&#45;&gt;Node14 -->
<g id="edge14_Node000003_Node000014" class="edge">
<title>Node3&#45;&gt;Node14</title>
<g id="a_edge14_Node000003_Node000014"><a xlink:title=" ">
<path fill="none" stroke="#63b8ff" d="M294.19,-465.75C311.91,-489.3 360.01,-550.18 411,-589 430.69,-603.99 455.74,-616.71 474.72,-625.29"/>
<polygon fill="#63b8ff" stroke="#63b8ff" points="479.41,-627.37 473.93,-627.39 477.13,-626.36 474.85,-625.34 474.85,-625.34 474.85,-625.34 477.13,-626.36 475.76,-623.28 479.41,-627.37 479.41,-627.37"/>
</a>
</g>
</g>
<!-- Node16 -->
<g id="Node000016" class="node">
<title>Node16</title>
<g id="a_Node000016"><a xlink:href="../../df/d89/classServer__Game.html#a30da97b384f2a8a08178bd1534339eb2" target="_top" xlink:title=" ">
<polygon fill="white" stroke="#666666" points="1228,-842 1059,-842 1059,-812 1228,-812 1228,-842"/>
<text text-anchor="start" x="1067" y="-830" font-family="Helvetica,sans-Serif" font-size="10.00">Server_Game::sendGameEvent</text>
<text text-anchor="middle" x="1143.5" y="-819" font-family="Helvetica,sans-Serif" font-size="10.00">Container</text>
</a>
</g>
</g>
<!-- Node3&#45;&gt;Node16 -->
<g id="edge39_Node000003_Node000016" class="edge">
<title>Node3&#45;&gt;Node16</title>
<g id="a_edge39_Node000003_Node000016"><a xlink:title=" ">
<path fill="none" stroke="#63b8ff" d="M288.47,-465.59C297.26,-521.52 344.68,-804.78 411,-856 624.07,-1020.55 985.33,-892.95 1103.69,-844"/>
<polygon fill="#63b8ff" stroke="#63b8ff" points="1108.47,-842.01 1104.72,-846.01 1106.16,-842.97 1103.85,-843.93 1103.85,-843.93 1103.85,-843.93 1106.16,-842.97 1102.99,-841.85 1108.47,-842.01 1108.47,-842.01"/>
</a>
</g>
</g>
<!-- Node19 -->
<g id="Node000019" class="node">
<title>Node19</title>
<g id="a_Node000019"><a xlink:href="../../d0/d00/classServer__AbstractParticipant.html#a243926ed25d6cec8514de52abfe57e46" target="_top" xlink:title=" ">
<polygon fill="white" stroke="#666666" points="577,-40 431,-40 431,-10 577,-10 577,-40"/>
<text text-anchor="start" x="439" y="-28" font-family="Helvetica,sans-Serif" font-size="10.00">Server_AbstractParticipant</text>
<text text-anchor="middle" x="504" y="-17" font-family="Helvetica,sans-Serif" font-size="10.00">::prepareDestroy</text>
</a>
</g>
</g>
<!-- Node3&#45;&gt;Node19 -->
<g id="edge24_Node000003_Node000019" class="edge">
<title>Node3&#45;&gt;Node19</title>
<g id="a_edge24_Node000003_Node000019"><a xlink:title=" ">
<path fill="none" stroke="#63b8ff" d="M287.48,-446.38C290.3,-399.53 308.35,-192.54 411,-72 421.96,-59.13 437.32,-49.37 452.35,-42.17"/>
<polygon fill="#63b8ff" stroke="#63b8ff" points="457,-40.01 453.41,-44.15 454.74,-41.06 452.47,-42.11 452.47,-42.11 452.47,-42.11 454.74,-41.06 451.52,-40.07 457,-40.01 457,-40.01"/>
</a>
</g>
</g>
<!-- Node23 -->
<g id="Node000023" class="node">
<title>Node23</title>
<g id="a_Node000023"><a xlink:href="../../df/d89/classServer__Game.html#a68736140f833d4a574cf1a162061938c" target="_top" xlink:title=" ">
<polygon fill="white" stroke="#666666" points="584,-320 424,-320 424,-290 584,-290 584,-320"/>
<text text-anchor="start" x="432" y="-308" font-family="Helvetica,sans-Serif" font-size="10.00">Server_Game::removeArrows</text>
<text text-anchor="middle" x="504" y="-297" font-family="Helvetica,sans-Serif" font-size="10.00">RelatedToPlayer</text>
</a>
</g>
</g>
<!-- Node3&#45;&gt;Node23 -->
<g id="edge29_Node000003_Node000023" class="edge">
<title>Node3&#45;&gt;Node23</title>
<g id="a_edge29_Node000003_Node000023"><a xlink:title=" ">
<path fill="none" stroke="#63b8ff" d="M295.06,-446.38C313.55,-424.85 361.26,-372.21 411,-341 422.9,-333.53 436.61,-327.15 449.75,-321.94"/>
<polygon fill="#63b8ff" stroke="#63b8ff" points="454.56,-320.07 450.72,-323.98 452.23,-320.97 449.9,-321.88 449.9,-321.88 449.9,-321.88 452.23,-320.97 449.09,-319.78 454.56,-320.07 454.56,-320.07"/>
</a>
</g>
</g>
<!-- Node29 -->
<g id="Node000029" class="node">
<title>Node29</title>
<g id="a_Node000029"><a xlink:href="../../db/d00/classServer.html#a5510eb79f0e72b283c8aa9b2d4564fa6" target="_top" xlink:title=" ">
<polygon fill="white" stroke="#666666" points="574,-809 434,-809 434,-779 574,-779 574,-809"/>
<text text-anchor="start" x="442" y="-797" font-family="Helvetica,sans-Serif" font-size="10.00">Server::removePersistent</text>
<text text-anchor="middle" x="504" y="-786" font-family="Helvetica,sans-Serif" font-size="10.00">Player</text>
</a>
</g>
</g>
<!-- Node3&#45;&gt;Node29 -->
<g id="edge38_Node000003_Node000029" class="edge">
<title>Node3&#45;&gt;Node29</title>
<g id="a_edge38_Node000003_Node000029"><a xlink:title=" ">
<path fill="none" stroke="#63b8ff" d="M287.75,-465.7C291.59,-508.61 312.94,-683.14 411,-770 416.22,-774.62 422.22,-778.37 428.6,-781.41"/>
<polygon fill="#63b8ff" stroke="#63b8ff" points="433.55,-783.6 428.07,-783.64 431.26,-782.59 428.98,-781.58 428.98,-781.58 428.98,-781.58 431.26,-782.59 429.89,-779.52 433.55,-783.6 433.55,-783.6"/>
</a>
</g>
</g>
<!-- Node30 -->
<g id="Node000030" class="node">
<title>Node30</title>
<g id="a_Node000030"><a xlink:href="../../de/d8f/classGameEventStorage.html#ab1523dfae2f027b764238ebfab03a478" target="_top" xlink:title=" ">
<polygon fill="white" stroke="#666666" points="594,-760.5 414,-760.5 414,-741.5 594,-741.5 594,-760.5"/>
<text text-anchor="middle" x="504" y="-748.5" font-family="Helvetica,sans-Serif" font-size="10.00">GameEventStorage::sendToGame</text>
</a>
</g>
</g>
<!-- Node3&#45;&gt;Node30 -->
<g id="edge40_Node000003_Node000030" class="edge">
<title>Node3&#45;&gt;Node30</title>
<g id="a_edge40_Node000003_Node000030"><a xlink:title=" ">
<path fill="none" stroke="#63b8ff" d="M288.41,-465.69C294.64,-504.93 323.43,-653.47 411,-727 417.18,-732.19 424.35,-736.27 431.91,-739.47"/>
<polygon fill="#63b8ff" stroke="#63b8ff" points="436.66,-741.36 431.18,-741.61 434.33,-740.44 432.01,-739.52 432.01,-739.52 432.01,-739.52 434.33,-740.44 432.84,-737.43 436.66,-741.36 436.66,-741.36"/>
</a>
</g>
</g>
<!-- Node32 -->
<g id="Node000032" class="node">
<title>Node32</title>
<g id="a_Node000032"><a xlink:href="../../df/d89/classServer__Game.html#a042625cfa763abbc19149a99aa84a69c" target="_top" xlink:title=" ">
<polygon fill="white" stroke="#666666" points="597,-522.5 411,-522.5 411,-503.5 597,-503.5 597,-522.5"/>
<text text-anchor="middle" x="504" y="-510.5" font-family="Helvetica,sans-Serif" font-size="10.00">Server_Game::stopGameIfFinished</text>
</a>
</g>
</g>
<!-- Node3&#45;&gt;Node32 -->
<g id="edge43_Node000003_Node000032" class="edge">
<title>Node3&#45;&gt;Node32</title>
<g id="a_edge43_Node000003_Node000032"><a xlink:title=" ">
<path fill="none" stroke="#63b8ff" d="M322.53,-465.51C347.32,-472.12 381.16,-481.14 411,-489 427.35,-493.31 445.34,-498.01 461.05,-502.1"/>
<polygon fill="#63b8ff" stroke="#63b8ff" points="466.28,-503.46 460.87,-504.38 463.86,-502.83 461.44,-502.2 461.44,-502.2 461.44,-502.2 463.86,-502.83 462.01,-500.03 466.28,-503.46 466.28,-503.46"/>
</a>
</g>
</g>
<!-- Node35 -->
<g id="Node000035" class="node">
<title>Node35</title>
<g id="a_Node000035"><a xlink:href="../../df/d89/classServer__Game.html#afa5ba8b52fc5f5ceb50a748314317513" target="_top" xlink:title=" ">
<polygon fill="white" stroke="#666666" points="583.5,-846.5 424.5,-846.5 424.5,-827.5 583.5,-827.5 583.5,-846.5"/>
<text text-anchor="middle" x="504" y="-834.5" font-family="Helvetica,sans-Serif" font-size="10.00">Server_Game::unattachCards</text>
</a>
</g>
</g>
<!-- Node3&#45;&gt;Node35 -->
<g id="edge50_Node000003_Node000035" class="edge">
<title>Node3&#45;&gt;Node35</title>
<g id="a_edge50_Node000003_Node000035"><a xlink:title=" ">
<path fill="none" stroke="#63b8ff" d="M287.07,-465.66C287.96,-512.61 298.35,-718.75 411,-818 413.94,-820.59 417.15,-822.87 420.54,-824.86"/>
<polygon fill="#63b8ff" stroke="#63b8ff" points="425.26,-827.4 419.8,-827.02 423.06,-826.22 420.86,-825.04 420.86,-825.04 420.86,-825.04 423.06,-826.22 421.93,-823.05 425.26,-827.4 425.26,-827.4"/>
</a>
</g>
</g>
<!-- Node7&#45;&gt;Node8 -->
<g id="edge7_Node000007_Node000008" class="edge">
<title>Node7&#45;&gt;Node8</title>
<g id="a_edge7_Node000007_Node000008"><a xlink:title=" ">
<path fill="none" stroke="#63b8ff" d="M585.04,-214.34C589.34,-212.03 593.38,-209.27 597,-206 637.99,-168.94 593.34,-125.47 633,-87 636.05,-84.04 639.44,-81.43 643.04,-79.14"/>
<polygon fill="#63b8ff" stroke="#63b8ff" points="647.37,-76.59 644.2,-81.06 645.22,-77.86 643.06,-79.13 643.06,-79.13 643.06,-79.13 645.22,-77.86 641.92,-77.19 647.37,-76.59 647.37,-76.59"/>
</a>
</g>
</g>
<!-- Node14&#45;&gt;Node10 -->
<g id="edge15_Node000014_Node000010" class="edge">
<title>Node14&#45;&gt;Node10</title>
<g id="a_edge15_Node000014_Node000010"><a xlink:title=" ">
<path fill="none" stroke="#63b8ff" d="M569.8,-635.21C632.26,-632.97 729.36,-628.11 813,-618 907.16,-606.62 933.74,-612.08 1023,-580 1061.4,-566.2 1102,-540.8 1124.61,-525.55"/>
<polygon fill="#63b8ff" stroke="#63b8ff" points="1128.88,-522.65 1126.01,-527.32 1126.82,-524.05 1124.75,-525.46 1124.75,-525.46 1124.75,-525.46 1126.82,-524.05 1123.48,-523.6 1128.88,-522.65 1128.88,-522.65"/>
</a>
</g>
</g>
<!-- Node15 -->
<g id="Node000015" class="node">
<title>Node15</title>
<g id="a_Node000015"><a xlink:href="../../df/d89/classServer__Game.html#ae1239a9d283d784e137434d4ecb0143a" target="_top" xlink:title=" ">
<polygon fill="white" stroke="#666666" points="805.5,-684.5 640.5,-684.5 640.5,-665.5 805.5,-665.5 805.5,-684.5"/>
<text text-anchor="middle" x="723" y="-672.5" font-family="Helvetica,sans-Serif" font-size="10.00">Server_Game::setActivePlayer</text>
</a>
</g>
</g>
<!-- Node14&#45;&gt;Node15 -->
<g id="edge16_Node000014_Node000015" class="edge">
<title>Node14&#45;&gt;Node15</title>
<g id="a_edge16_Node000014_Node000015"><a xlink:title=" ">
<path fill="none" stroke="#63b8ff" d="M559.48,-646.54C590.82,-652.03 630.24,-658.93 662.4,-664.56"/>
<polygon fill="#63b8ff" stroke="#63b8ff" points="667.5,-665.46 662.19,-666.81 665.04,-665.02 662.57,-664.59 662.57,-664.59 662.57,-664.59 665.04,-665.02 662.96,-662.38 667.5,-665.46 667.5,-665.46"/>
</a>
</g>
</g>
<!-- Node15&#45;&gt;Node2 -->
<g id="edge17_Node000015_Node000002" class="edge">
<title>Node15&#45;&gt;Node2</title>
<g id="a_edge17_Node000015_Node000002"><a xlink:title=" ">
<path fill="none" stroke="#63b8ff" d="M805.66,-684.5C820.09,-686.08 834.98,-687.64 849,-689 920.38,-695.91 1001.65,-702.46 1060.54,-706.96"/>
<polygon fill="#63b8ff" stroke="#63b8ff" points="1065.82,-707.36 1060.66,-709.22 1063.32,-707.17 1060.83,-706.98 1060.83,-706.98 1060.83,-706.98 1063.32,-707.17 1061,-704.74 1065.82,-707.36 1065.82,-707.36"/>
</a>
</g>
</g>
<!-- Node15&#45;&gt;Node16 -->
<g id="edge18_Node000015_Node000016" class="edge">
<title>Node15&#45;&gt;Node16</title>
<g id="a_edge18_Node000015_Node000016"><a xlink:title=" ">
<path fill="none" stroke="#63b8ff" d="M750.18,-684.51C819.46,-709.67 1008.31,-778.26 1096.27,-810.21"/>
<polygon fill="#63b8ff" stroke="#63b8ff" points="1101.15,-811.98 1095.68,-812.39 1098.8,-811.13 1096.45,-810.27 1096.45,-810.27 1096.45,-810.27 1098.8,-811.13 1097.22,-808.16 1101.15,-811.98 1101.15,-811.98"/>
</a>
</g>
</g>
<!-- Node17 -->
<g id="Node000017" class="node">
<title>Node17</title>
<g id="a_Node000017"><a xlink:href="../../df/d89/classServer__Game.html#a098acc96fc68f8f7035711fc5bd35b95" target="_top" xlink:title=" ">
<polygon fill="white" stroke="#666666" points="1018,-646.5 854,-646.5 854,-627.5 1018,-627.5 1018,-646.5"/>
<text text-anchor="middle" x="936" y="-634.5" font-family="Helvetica,sans-Serif" font-size="10.00">Server_Game::setActivePhase</text>
</a>
</g>
</g>
<!-- Node15&#45;&gt;Node17 -->
<g id="edge19_Node000015_Node000017" class="edge">
<title>Node15&#45;&gt;Node17</title>
<g id="a_edge19_Node000015_Node000017"><a xlink:title=" ">
<path fill="none" stroke="#63b8ff" d="M776.97,-665.46C807.45,-659.97 845.77,-653.07 877.05,-647.44"/>
<polygon fill="#63b8ff" stroke="#63b8ff" points="882.01,-646.54 877.48,-649.64 879.55,-646.99 877.09,-647.43 877.09,-647.43 877.09,-647.43 879.55,-646.99 876.69,-645.22 882.01,-646.54 882.01,-646.54"/>
</a>
</g>
</g>
<!-- Node17&#45;&gt;Node2 -->
<g id="edge22_Node000017_Node000002" class="edge">
<title>Node17&#45;&gt;Node2</title>
<g id="a_edge22_Node000017_Node000002"><a xlink:title=" ">
<path fill="none" stroke="#63b8ff" d="M975.46,-646.51C990.44,-650.54 1007.66,-655.55 1023,-661 1051.68,-671.19 1083.22,-685.03 1106.69,-695.87"/>
<polygon fill="#63b8ff" stroke="#63b8ff" points="1111.28,-698 1105.79,-697.93 1109.01,-696.94 1106.74,-695.89 1106.74,-695.89 1106.74,-695.89 1109.01,-696.94 1107.69,-693.85 1111.28,-698 1111.28,-698"/>
</a>
</g>
</g>
<!-- Node17&#45;&gt;Node10 -->
<g id="edge21_Node000017_Node000010" class="edge">
<title>Node17&#45;&gt;Node10</title>
<g id="a_edge21_Node000017_Node000010"><a xlink:title=" ">
<path fill="none" stroke="#63b8ff" d="M985.25,-627.39C997.94,-623.84 1011.34,-619.14 1023,-613 1067.4,-589.63 1110.18,-547.64 1130.39,-526.27"/>
<polygon fill="#63b8ff" stroke="#63b8ff" points="1133.9,-522.53 1132.12,-527.72 1132.19,-524.36 1130.48,-526.18 1130.48,-526.18 1130.48,-526.18 1132.19,-524.36 1128.84,-524.64 1133.9,-522.53 1133.9,-522.53"/>
</a>
</g>
</g>
<!-- Node17&#45;&gt;Node16 -->
<g id="edge23_Node000017_Node000016" class="edge">
<title>Node17&#45;&gt;Node16</title>
<g id="a_edge23_Node000017_Node000016"><a xlink:title=" ">
<path fill="none" stroke="#63b8ff" d="M947.47,-646.68C979.95,-676.71 1079.32,-768.59 1122.32,-808.34"/>
<polygon fill="#63b8ff" stroke="#63b8ff" points="1126.06,-811.8 1120.86,-810.06 1124.22,-810.1 1122.39,-808.4 1122.39,-808.4 1122.39,-808.4 1124.22,-810.1 1123.91,-806.75 1126.06,-811.8 1126.06,-811.8"/>
</a>
</g>
</g>
<!-- Node18 -->
<g id="Node000018" class="node">
<title>Node18</title>
<g id="a_Node000018"><a xlink:href="../../df/d3b/classServer__Arrow.html#ac3d0e97cf7825bb5bf2ac70fed1164bd" target="_top" xlink:title=" ">
<polygon fill="white" stroke="#666666" points="1199.5,-646.5 1087.5,-646.5 1087.5,-627.5 1199.5,-627.5 1199.5,-646.5"/>
<text text-anchor="middle" x="1143.5" y="-634.5" font-family="Helvetica,sans-Serif" font-size="10.00">Server_Arrow::getId</text>
</a>
</g>
</g>
<!-- Node17&#45;&gt;Node18 -->
<g id="edge20_Node000017_Node000018" class="edge">
<title>Node17&#45;&gt;Node18</title>
<g id="a_edge20_Node000017_Node000018"><a xlink:title=" ">
<path fill="none" stroke="#63b8ff" d="M1018.22,-637C1039.63,-637 1062.34,-637 1082.42,-637"/>
<polygon fill="#63b8ff" stroke="#63b8ff" points="1087.46,-637 1082.46,-639.25 1084.96,-637 1082.46,-637 1082.46,-637 1082.46,-637 1084.96,-637 1082.46,-634.75 1087.46,-637 1087.46,-637"/>
</a>
</g>
</g>
<!-- Node20 -->
<g id="Node000020" class="node">
<title>Node20</title>
<g id="a_Node000020"><a xlink:href="../../d0/d00/classServer__AbstractParticipant.html#aa52e957246a1f7b3ec0a96bbfd38c93e" target="_top" xlink:title=" ">
<polygon fill="white" stroke="#666666" points="796,-30 650,-30 650,0 796,0 796,-30"/>
<text text-anchor="start" x="658" y="-18" font-family="Helvetica,sans-Serif" font-size="10.00">Server_AbstractParticipant</text>
<text text-anchor="middle" x="723" y="-7" font-family="Helvetica,sans-Serif" font-size="10.00">::removeFromGame</text>
</a>
</g>
</g>
<!-- Node19&#45;&gt;Node20 -->
<g id="edge25_Node000019_Node000020" class="edge">
<title>Node19&#45;&gt;Node20</title>
<g id="a_edge25_Node000019_Node000020"><a xlink:title=" ">
<path fill="none" stroke="#63b8ff" d="M577.26,-21.67C598.83,-20.68 622.56,-19.58 644.46,-18.57"/>
<polygon fill="#63b8ff" stroke="#63b8ff" points="649.69,-18.33 644.8,-20.81 647.19,-18.45 644.69,-18.56 644.69,-18.56 644.69,-18.56 647.19,-18.45 644.59,-16.31 649.69,-18.33 649.69,-18.33"/>
</a>
</g>
</g>
<!-- Node21 -->
<g id="Node000021" class="node">
<title>Node21</title>
<g id="a_Node000021"><a xlink:href="../../d5/d9c/classServer__AbstractUserInterface.html#aa7820d3ebd1d5201147e614dd38188f8" target="_top" xlink:title=" ">
<polygon fill="white" stroke="#666666" points="1016,-30 856,-30 856,0 1016,0 1016,-30"/>
<text text-anchor="start" x="864" y="-18" font-family="Helvetica,sans-Serif" font-size="10.00">Server_AbstractUserInterface</text>
<text text-anchor="middle" x="936" y="-7" font-family="Helvetica,sans-Serif" font-size="10.00">::playerRemovedFromGame</text>
</a>
</g>
</g>
<!-- Node20&#45;&gt;Node21 -->
<g id="edge26_Node000020_Node000021" class="edge">
<title>Node20&#45;&gt;Node21</title>
<g id="a_edge26_Node000020_Node000021"><a xlink:title=" ">
<path fill="none" stroke="#63b8ff" d="M796.02,-15C813.59,-15 832.54,-15 850.63,-15"/>
<polygon fill="#63b8ff" stroke="#63b8ff" points="855.71,-15 850.71,-17.25 853.21,-15 850.71,-15 850.71,-15 850.71,-15 853.21,-15 850.71,-12.75 855.71,-15 855.71,-15"/>
</a>
</g>
</g>
<!-- Node22 -->
<g id="Node000022" class="node">
<title>Node22</title>
<g id="a_Node000022"><a xlink:href="../../df/d89/classServer__Game.html#ae5d52d87721a4f422815f85e46de570b" target="_top" xlink:title=" ">
<polygon fill="white" stroke="#666666" points="1215,-24.5 1072,-24.5 1072,-5.5 1215,-5.5 1215,-24.5"/>
<text text-anchor="middle" x="1143.5" y="-12.5" font-family="Helvetica,sans-Serif" font-size="10.00">Server_Game::getGameId</text>
</a>
</g>
</g>
<!-- Node21&#45;&gt;Node22 -->
<g id="edge27_Node000021_Node000022" class="edge">
<title>Node21&#45;&gt;Node22</title>
<g id="a_edge27_Node000021_Node000022"><a xlink:title=" ">
<path fill="none" stroke="#63b8ff" d="M1016.16,-15C1032.76,-15 1050.23,-15 1066.7,-15"/>
<polygon fill="#63b8ff" stroke="#63b8ff" points="1071.78,-15 1066.78,-17.25 1069.28,-15 1066.78,-15 1066.78,-15 1066.78,-15 1069.28,-15 1066.78,-12.75 1071.78,-15 1071.78,-15"/>
</a>
</g>
</g>
<!-- Node23&#45;&gt;Node4 -->
<g id="edge31_Node000023_Node000004" class="edge">
<title>Node23&#45;&gt;Node4</title>
<g id="a_edge31_Node000023_Node000004"><a xlink:title=" ">
<path fill="none" stroke="#63b8ff" d="M530.75,-320.08C556.1,-334.43 596.24,-355.88 633,-370 639.92,-372.66 647.25,-375.14 654.61,-377.42"/>
<polygon fill="#63b8ff" stroke="#63b8ff" points="659.71,-378.97 654.27,-379.67 657.32,-378.24 654.92,-377.52 654.92,-377.52 654.92,-377.52 657.32,-378.24 655.58,-375.36 659.71,-378.97 659.71,-378.97"/>
</a>
</g>
</g>
<!-- Node23&#45;&gt;Node9 -->
<g id="edge33_Node000023_Node000009" class="edge">
<title>Node23&#45;&gt;Node9</title>
<g id="a_edge33_Node000023_Node000009"><a xlink:title=" ">
<path fill="none" stroke="#63b8ff" d="M584.26,-319.98C604.02,-323.71 625.17,-327.71 644.82,-331.42"/>
<polygon fill="#63b8ff" stroke="#63b8ff" points="649.79,-332.36 644.46,-333.64 647.33,-331.89 644.87,-331.43 644.87,-331.43 644.87,-331.43 647.33,-331.89 645.29,-329.22 649.79,-332.36 649.79,-332.36"/>
</a>
</g>
</g>
<!-- Node23&#45;&gt;Node10 -->
<g id="edge34_Node000023_Node000010" class="edge">
<title>Node23&#45;&gt;Node10</title>
<g id="a_edge34_Node000023_Node000010"><a xlink:title=" ">
<path fill="none" stroke="#63b8ff" d="M584.14,-300.94C647.13,-299.72 737.02,-302.46 813,-322 947.31,-356.54 1082.71,-462.69 1127.26,-499.92"/>
<polygon fill="#63b8ff" stroke="#63b8ff" points="1131.29,-503.31 1126.01,-501.81 1129.38,-501.7 1127.46,-500.09 1127.46,-500.09 1127.46,-500.09 1129.38,-501.7 1128.91,-498.37 1131.29,-503.31 1131.29,-503.31"/>
</a>
</g>
</g>
<!-- Node24 -->
<g id="Node000024" class="node">
<title>Node24</title>
<g id="a_Node000024"><a xlink:href="../../da/d99/classServer__AbstractPlayer.html#af0737d399b084952c2ec0f36c8fdd0b1" target="_top" xlink:title=" ">
<polygon fill="white" stroke="#666666" points="785.5,-275 660.5,-275 660.5,-245 785.5,-245 785.5,-275"/>
<text text-anchor="start" x="668.5" y="-263" font-family="Helvetica,sans-Serif" font-size="10.00">Server_AbstractPlayer</text>
<text text-anchor="middle" x="723" y="-252" font-family="Helvetica,sans-Serif" font-size="10.00">::deleteArrow</text>
</a>
</g>
</g>
<!-- Node23&#45;&gt;Node24 -->
<g id="edge30_Node000023_Node000024" class="edge">
<title>Node23&#45;&gt;Node24</title>
<g id="a_edge30_Node000023_Node000024"><a xlink:title=" ">
<path fill="none" stroke="#63b8ff" d="M577.56,-289.95C602.64,-284.75 630.6,-278.95 655.19,-273.85"/>
<polygon fill="#63b8ff" stroke="#63b8ff" points="660.39,-272.78 655.95,-276 657.94,-273.28 655.49,-273.79 655.49,-273.79 655.49,-273.79 657.94,-273.28 655.03,-271.59 660.39,-272.78 660.39,-272.78"/>
</a>
</g>
</g>
<!-- Node25 -->
<g id="Node000025" class="node">
<title>Node25</title>
<g id="a_Node000025"><a xlink:href="../../dc/d3a/classServer__CardZone.html#ab39247788624358b1a8e99193519b678" target="_top" xlink:title=" ">
<polygon fill="white" stroke="#666666" points="799.5,-226.5 646.5,-226.5 646.5,-207.5 799.5,-207.5 799.5,-226.5"/>
<text text-anchor="middle" x="723" y="-214.5" font-family="Helvetica,sans-Serif" font-size="10.00">Server_CardZone::getPlayer</text>
</a>
</g>
</g>
<!-- Node23&#45;&gt;Node25 -->
<g id="edge32_Node000023_Node000025" class="edge">
<title>Node23&#45;&gt;Node25</title>
<g id="a_edge32_Node000023_Node000025"><a xlink:title=" ">
<path fill="none" stroke="#63b8ff" d="M568.38,-289.96C578.37,-286.22 588.27,-281.62 597,-276 617.11,-263.06 612.29,-247.97 633,-236 638.24,-232.97 643.9,-230.43 649.74,-228.28"/>
<polygon fill="#63b8ff" stroke="#63b8ff" points="654.68,-226.58 650.69,-230.34 652.32,-227.39 649.95,-228.21 649.95,-228.21 649.95,-228.21 652.32,-227.39 649.22,-226.08 654.68,-226.58 654.68,-226.58"/>
</a>
</g>
</g>
<!-- Node26 -->
<g id="Node000026" class="node">
<title>Node26</title>
<g id="a_Node000026"><a xlink:href="../../df/d3b/classServer__Arrow.html#a5a346f6459d996bac5c68c13338591d9" target="_top" xlink:title=" ">
<polygon fill="white" stroke="#666666" points="797.5,-189.5 648.5,-189.5 648.5,-170.5 797.5,-170.5 797.5,-189.5"/>
<text text-anchor="middle" x="723" y="-177.5" font-family="Helvetica,sans-Serif" font-size="10.00">Server_Arrow::getStartCard</text>
</a>
</g>
</g>
<!-- Node23&#45;&gt;Node26 -->
<g id="edge35_Node000023_Node000026" class="edge">
<title>Node23&#45;&gt;Node26</title>
<g id="a_edge35_Node000023_Node000026"><a xlink:title=" ">
<path fill="none" stroke="#63b8ff" d="M575.14,-289.82C583.06,-286.16 590.58,-281.63 597,-276 625.42,-251.11 603.43,-222.52 633,-199 636.47,-196.24 640.24,-193.86 644.21,-191.81"/>
<polygon fill="#63b8ff" stroke="#63b8ff" points="648.96,-189.54 645.42,-193.73 646.71,-190.62 644.45,-191.7 644.45,-191.7 644.45,-191.7 646.71,-190.62 643.48,-189.66 648.96,-189.54 648.96,-189.54"/>
</a>
</g>
</g>
<!-- Node27 -->
<g id="Node000027" class="node">
<title>Node27</title>
<g id="a_Node000027"><a xlink:href="../../df/d3b/classServer__Arrow.html#a710f2035735228e117282cc1a5bcece8" target="_top" xlink:title=" ">
<polygon fill="white" stroke="#666666" points="800.5,-152.5 645.5,-152.5 645.5,-133.5 800.5,-133.5 800.5,-152.5"/>
<text text-anchor="middle" x="723" y="-140.5" font-family="Helvetica,sans-Serif" font-size="10.00">Server_Arrow::getTargetItem</text>
</a>
</g>
</g>
<!-- Node23&#45;&gt;Node27 -->
<g id="edge36_Node000023_Node000027" class="edge">
<title>Node23&#45;&gt;Node27</title>
<g id="a_edge36_Node000023_Node000027"><a xlink:title=" ">
<path fill="none" stroke="#63b8ff" d="M577.25,-289.93C584.53,-286.25 591.31,-281.68 597,-276 634.58,-238.44 593.68,-197.73 633,-162 635.89,-159.37 639.06,-157.07 642.42,-155.06"/>
<polygon fill="#63b8ff" stroke="#63b8ff" points="647.11,-152.5 643.8,-156.87 644.92,-153.7 642.72,-154.9 642.72,-154.9 642.72,-154.9 644.92,-153.7 641.64,-152.92 647.11,-152.5 647.11,-152.5"/>
</a>
</g>
</g>
<!-- Node28 -->
<g id="Node000028" class="node">
<title>Node28</title>
<g id="a_Node000028"><a xlink:href="../../dc/d07/classServer__Card.html#ab439c30de40a3637d4b2756388c8eb6c" target="_top" xlink:title=" ">
<polygon fill="white" stroke="#666666" points="784,-115.5 662,-115.5 662,-96.5 784,-96.5 784,-115.5"/>
<text text-anchor="middle" x="723" y="-103.5" font-family="Helvetica,sans-Serif" font-size="10.00">Server_Card::getZone</text>
</a>
</g>
</g>
<!-- Node23&#45;&gt;Node28 -->
<g id="edge37_Node000023_Node000028" class="edge">
<title>Node23&#45;&gt;Node28</title>
<g id="a_edge37_Node000023_Node000028"><a xlink:title=" ">
<path fill="none" stroke="#63b8ff" d="M578.57,-289.86C585.42,-286.19 591.75,-281.64 597,-276 644.27,-225.16 583.11,-172.27 633,-124 639.69,-117.53 648.03,-113.08 656.91,-110.07"/>
<polygon fill="#63b8ff" stroke="#63b8ff" points="661.88,-108.55 657.76,-112.16 659.49,-109.28 657.1,-110.01 657.1,-110.01 657.1,-110.01 659.49,-109.28 656.44,-107.86 661.88,-108.55 661.88,-108.55"/>
</a>
</g>
</g>
<!-- Node30&#45;&gt;Node16 -->
<g id="edge41_Node000030_Node000016" class="edge">
<title>Node30&#45;&gt;Node16</title>
<g id="a_edge41_Node000030_Node000016"><a xlink:title=" ">
<path fill="none" stroke="#63b8ff" d="M554.31,-760.55C568.17,-763.4 583.21,-766.66 597,-770 613.14,-773.9 616.67,-777 633,-780 779.07,-806.8 951.64,-818.64 1053.81,-823.63"/>
<polygon fill="#63b8ff" stroke="#63b8ff" points="1058.92,-823.88 1053.82,-825.88 1056.43,-823.76 1053.93,-823.64 1053.93,-823.64 1053.93,-823.64 1056.43,-823.76 1054.04,-821.39 1058.92,-823.88 1058.92,-823.88"/>
</a>
</g>
</g>
<!-- Node31 -->
<g id="Node000031" class="node">
<title>Node31</title>
<g id="a_Node000031"><a xlink:href="../../de/d8f/classGameEventStorage.html#a6dc7b9a868d61cac421240d16acfe672" target="_top" xlink:title=" ">
<polygon fill="white" stroke="#666666" points="813,-771 633,-771 633,-741 813,-741 813,-771"/>
<text text-anchor="start" x="641" y="-759" font-family="Helvetica,sans-Serif" font-size="10.00">GameEventStorage::setOverwrite</text>
<text text-anchor="middle" x="723" y="-748" font-family="Helvetica,sans-Serif" font-size="10.00">Ownership</text>
</a>
</g>
</g>
<!-- Node30&#45;&gt;Node31 -->
<g id="edge42_Node000030_Node000031" class="edge">
<title>Node30&#45;&gt;Node31</title>
<g id="a_edge42_Node000030_Node000031"><a xlink:title=" ">
<path fill="none" stroke="#63b8ff" d="M594.2,-753.06C605.25,-753.31 616.58,-753.57 627.7,-753.83"/>
<polygon fill="#63b8ff" stroke="#63b8ff" points="632.79,-753.94 627.74,-756.08 630.29,-753.89 627.8,-753.83 627.8,-753.83 627.8,-753.83 630.29,-753.89 627.85,-751.58 632.79,-753.94 632.79,-753.94"/>
</a>
</g>
</g>
<!-- Node32&#45;&gt;Node5 -->
<g id="edge44_Node000032_Node000005" class="edge">
<title>Node32&#45;&gt;Node5</title>
<g id="a_edge44_Node000032_Node000005"><a xlink:title=" ">
<path fill="none" stroke="#63b8ff" d="M523.34,-522.54C541.92,-532.2 571.48,-547.61 597,-561 613.02,-569.41 615.99,-573.83 633,-580 641.85,-583.21 651.41,-585.96 660.86,-588.28"/>
<polygon fill="#63b8ff" stroke="#63b8ff" points="665.79,-589.46 660.4,-590.48 663.36,-588.88 660.93,-588.3 660.93,-588.3 660.93,-588.3 663.36,-588.88 661.45,-586.11 665.79,-589.46 665.79,-589.46"/>
</a>
</g>
</g>
<!-- Node32&#45;&gt;Node6 -->
<g id="edge45_Node000032_Node000006" class="edge">
<title>Node32&#45;&gt;Node6</title>
<g id="a_edge45_Node000032_Node000006"><a xlink:title=" ">
<path fill="none" stroke="#63b8ff" d="M559.48,-503.46C590.82,-497.97 630.24,-491.07 662.4,-485.44"/>
<polygon fill="#63b8ff" stroke="#63b8ff" points="667.5,-484.54 662.96,-487.62 665.04,-484.98 662.57,-485.41 662.57,-485.41 662.57,-485.41 665.04,-484.98 662.19,-483.19 667.5,-484.54 667.5,-484.54"/>
</a>
</g>
</g>
<!-- Node32&#45;&gt;Node10 -->
<g id="edge46_Node000032_Node000010" class="edge">
<title>Node32&#45;&gt;Node10</title>
<g id="a_edge46_Node000032_Node000010"><a xlink:title=" ">
<path fill="none" stroke="#63b8ff" d="M597.02,-513C724.09,-513 950.83,-513 1067.93,-513"/>
<polygon fill="#63b8ff" stroke="#63b8ff" points="1073.08,-513 1068.08,-515.25 1070.58,-513 1068.08,-513 1068.08,-513 1068.08,-513 1070.58,-513 1068.08,-510.75 1073.08,-513 1073.08,-513"/>
</a>
</g>
</g>
<!-- Node33 -->
<g id="Node000033" class="node">
<title>Node33</title>
<g id="a_Node000033"><a xlink:href="../../df/d89/classServer__Game.html#a03820f49c6252407e7f800b727832fb9" target="_top" xlink:title=" ">
<polygon fill="white" stroke="#666666" points="806.5,-571 639.5,-571 639.5,-541 806.5,-541 806.5,-571"/>
<text text-anchor="start" x="647.5" y="-559" font-family="Helvetica,sans-Serif" font-size="10.00">Server_Game::sendGameState</text>
<text text-anchor="middle" x="723" y="-548" font-family="Helvetica,sans-Serif" font-size="10.00">ToPlayers</text>
</a>
</g>
</g>
<!-- Node32&#45;&gt;Node33 -->
<g id="edge47_Node000032_Node000033" class="edge">
<title>Node32&#45;&gt;Node33</title>
<g id="a_edge47_Node000032_Node000033"><a xlink:title=" ">
<path fill="none" stroke="#63b8ff" d="M553.16,-522.54C579.01,-527.67 611.56,-534.12 641.16,-539.98"/>
<polygon fill="#63b8ff" stroke="#63b8ff" points="646.27,-540.99 640.93,-542.23 643.82,-540.51 641.37,-540.02 641.37,-540.02 641.37,-540.02 643.82,-540.51 641.8,-537.81 646.27,-540.99 646.27,-540.99"/>
</a>
</g>
</g>
<!-- Node33&#45;&gt;Node2 -->
<g id="edge49_Node000033_Node000002" class="edge">
<title>Node33&#45;&gt;Node2</title>
<g id="a_edge49_Node000033_Node000002"><a xlink:title=" ">
<path fill="none" stroke="#63b8ff" d="M797.98,-571.2C803.36,-573.94 808.45,-577.18 813,-581 841.31,-604.78 819.69,-633.47 849,-656 911.41,-703.97 945.75,-673.92 1023,-689 1036.04,-691.55 1049.87,-694.29 1063.32,-696.97"/>
<polygon fill="#63b8ff" stroke="#63b8ff" points="1068.26,-697.96 1062.92,-699.19 1065.81,-697.47 1063.36,-696.98 1063.36,-696.98 1063.36,-696.98 1065.81,-697.47 1063.8,-694.77 1068.26,-697.96 1068.26,-697.96"/>
</a>
</g>
</g>
<!-- Node34 -->
<g id="Node000034" class="node">
<title>Node34</title>
<g id="a_Node000034"><a xlink:href="../../df/d89/classServer__Game.html#af1d68099b6544a7c7eba4847e305e1cb" target="_top" xlink:title=" ">
<polygon fill="white" stroke="#666666" points="1023,-571 849,-571 849,-541 1023,-541 1023,-571"/>
<text text-anchor="start" x="857" y="-559" font-family="Helvetica,sans-Serif" font-size="10.00">Server_Game::createGameState</text>
<text text-anchor="middle" x="936" y="-548" font-family="Helvetica,sans-Serif" font-size="10.00">ChangedEvent</text>
</a>
</g>
</g>
<!-- Node33&#45;&gt;Node34 -->
<g id="edge48_Node000033_Node000034" class="edge">
<title>Node33&#45;&gt;Node34</title>
<g id="a_edge48_Node000033_Node000034"><a xlink:title=" ">
<path fill="none" stroke="#63b8ff" d="M806.79,-556C818.91,-556 831.45,-556 843.73,-556"/>
<polygon fill="#63b8ff" stroke="#63b8ff" points="848.98,-556 843.98,-558.25 846.48,-556 843.98,-556 843.98,-556 843.98,-556 846.48,-556 843.98,-553.75 848.98,-556 848.98,-556"/>
</a>
</g>
</g>
<!-- Node36 -->
<g id="Node000036" class="node">
<title>Node36</title>
<g id="a_Node000036"><a xlink:href="../../da/d99/classServer__AbstractPlayer.html#acb13829ad009e505b9c3e76349150549" target="_top" xlink:title=" ">
<polygon fill="white" stroke="#666666" points="785.5,-857 660.5,-857 660.5,-827 785.5,-827 785.5,-857"/>
<text text-anchor="start" x="668.5" y="-845" font-family="Helvetica,sans-Serif" font-size="10.00">Server_AbstractPlayer</text>
<text text-anchor="middle" x="723" y="-834" font-family="Helvetica,sans-Serif" font-size="10.00">::getZones</text>
</a>
</g>
</g>
<!-- Node35&#45;&gt;Node36 -->
<g id="edge51_Node000035_Node000036" class="edge">
<title>Node35&#45;&gt;Node36</title>
<g id="a_edge51_Node000035_Node000036"><a xlink:title=" ">
<path fill="none" stroke="#63b8ff" d="M583.65,-838.81C607.1,-839.35 632.58,-839.94 655.2,-840.46"/>
<polygon fill="#63b8ff" stroke="#63b8ff" points="660.28,-840.58 655.23,-842.71 657.78,-840.52 655.28,-840.46 655.28,-840.46 655.28,-840.46 657.78,-840.52 655.33,-838.21 660.28,-840.58 660.28,-840.58"/>
</a>
</g>
</g>
</g>
</svg>
