<?xml version="1.0" encoding="UTF-8" standalone="no"?>
<!DOCTYPE svg PUBLIC "-//W3C//DTD SVG 1.1//EN"
 "http://www.w3.org/Graphics/SVG/1.1/DTD/svg11.dtd">
<!-- Generated by graphviz version 2.43.0 (0)
 -->
<!-- Title: DlgSelectSetForCards::getSetsForCards Pages: 1 -->
<svg width="482pt" height="177pt"
 viewBox="0.00 0.00 482.00 176.50" xmlns="http://www.w3.org/2000/svg" xmlns:xlink="http://www.w3.org/1999/xlink">

<svg id="main" version="1.1" xmlns="http://www.w3.org/2000/svg" xmlns:xlink="http://www.w3.org/1999/xlink" xml:space="preserve" onload="init(evt)">
<style type="text/css"><![CDATA[
.node, .edge {opacity: 0.7;}
.node.selected, .edge.selected {opacity: 1;}
.edge:hover path { stroke: red; }
.edge:hover polygon { stroke: red; fill: red; }
]]></style>
<script type="application/ecmascript" xlink:href="../../svg.min.js"/>
<svg id="graph" class="graph">
<g id="graph0" class="graph" transform="scale(1 1) rotate(0) translate(4 172.5)">
<title>DlgSelectSetForCards::getSetsForCards</title>
<!-- Node1 -->
<g id="Node000001" class="node">
<title>Node1</title>
<g id="a_Node000001"><a xlink:title=" ">
<polygon fill="#999999" stroke="#666666" points="122,-106.5 0,-106.5 0,-76.5 122,-76.5 122,-106.5"/>
<text text-anchor="start" x="8" y="-94.5" font-family="Helvetica,sans-Serif" font-size="10.00">DlgSelectSetForCards</text>
<text text-anchor="middle" x="61" y="-83.5" font-family="Helvetica,sans-Serif" font-size="10.00">::getSetsForCards</text>
</a>
</g>
</g>
<!-- Node2 -->
<g id="Node000002" class="node">
<title>Node2</title>
<g id="a_Node000002"><a xlink:href="../../d8/dbe/classCardDatabaseQuerier.html#aadf83692b2220aedcfb3e9b36070acb7" target="_top" xlink:title="Retrieves a card by its exact name.">
<polygon fill="white" stroke="#666666" points="295,-168.5 173,-168.5 173,-138.5 295,-138.5 295,-168.5"/>
<text text-anchor="start" x="181" y="-156.5" font-family="Helvetica,sans-Serif" font-size="10.00">CardDatabaseQuerier</text>
<text text-anchor="middle" x="234" y="-145.5" font-family="Helvetica,sans-Serif" font-size="10.00">::getCardInfo</text>
</a>
</g>
</g>
<!-- Node1&#45;&gt;Node2 -->
<g id="edge1_Node000001_Node000002" class="edge">
<title>Node1&#45;&gt;Node2</title>
<g id="a_edge1_Node000001_Node000002"><a xlink:title=" ">
<path fill="none" stroke="#63b8ff" d="M98.25,-106.52C116.13,-113.75 138.08,-122.38 158,-129.5 164.9,-131.97 172.21,-134.45 179.44,-136.84"/>
<polygon fill="#63b8ff" stroke="#63b8ff" points="184.43,-138.48 178.97,-139.06 182.05,-137.7 179.67,-136.92 179.67,-136.92 179.67,-136.92 182.05,-137.7 180.38,-134.78 184.43,-138.48 184.43,-138.48"/>
</a>
</g>
</g>
<!-- Node3 -->
<g id="Node000003" class="node">
<title>Node3</title>
<g id="a_Node000003"><a xlink:href="../../d9/de1/classDeckListModel.html#ad54c12f78c4a83fa1a0953cec4f2db0e" target="_top" xlink:title=" ">
<polygon fill="white" stroke="#666666" points="310,-120 158,-120 158,-101 310,-101 310,-120"/>
<text text-anchor="middle" x="234" y="-108" font-family="Helvetica,sans-Serif" font-size="10.00">DeckListModel::getDeckList</text>
</a>
</g>
</g>
<!-- Node1&#45;&gt;Node3 -->
<g id="edge2_Node000001_Node000003" class="edge">
<title>Node1&#45;&gt;Node3</title>
<g id="a_edge2_Node000001_Node000003"><a xlink:title=" ">
<path fill="none" stroke="#63b8ff" d="M122.29,-98.2C132.2,-99.3 142.62,-100.46 152.92,-101.6"/>
<polygon fill="#63b8ff" stroke="#63b8ff" points="157.97,-102.16 152.76,-103.85 155.49,-101.89 153,-101.61 153,-101.61 153,-101.61 155.49,-101.89 153.25,-99.38 157.97,-102.16 157.97,-102.16"/>
</a>
</g>
</g>
<!-- Node4 -->
<g id="Node000004" class="node">
<title>Node4</title>
<g id="a_Node000004"><a xlink:href="../../da/d68/classDeckList.html#a0576d60292a6f3b777c50b5d864f8414" target="_top" xlink:title=" ">
<polygon fill="white" stroke="#666666" points="285.5,-83 182.5,-83 182.5,-64 285.5,-64 285.5,-83"/>
<text text-anchor="middle" x="234" y="-71" font-family="Helvetica,sans-Serif" font-size="10.00">DeckList::getRoot</text>
</a>
</g>
</g>
<!-- Node1&#45;&gt;Node4 -->
<g id="edge3_Node000001_Node000004" class="edge">
<title>Node1&#45;&gt;Node4</title>
<g id="a_edge3_Node000001_Node000004"><a xlink:title=" ">
<path fill="none" stroke="#63b8ff" d="M122.29,-85.15C140.07,-83.28 159.44,-81.24 176.94,-79.4"/>
<polygon fill="#63b8ff" stroke="#63b8ff" points="182.31,-78.84 177.57,-81.6 179.82,-79.1 177.33,-79.36 177.33,-79.36 177.33,-79.36 179.82,-79.1 177.1,-77.12 182.31,-78.84 182.31,-78.84"/>
</a>
</g>
</g>
<!-- Node5 -->
<g id="Node000005" class="node">
<title>Node5</title>
<g id="a_Node000005"><a xlink:href="../../dc/db4/classCardDatabaseManager.html#a7dc153d2d7691d69916d2154a05c5ed1" target="_top" xlink:title="Returns the CardDatabaseQuerier of the singleton database.">
<polygon fill="white" stroke="#666666" points="298,-45.5 170,-45.5 170,-15.5 298,-15.5 298,-45.5"/>
<text text-anchor="start" x="178" y="-33.5" font-family="Helvetica,sans-Serif" font-size="10.00">CardDatabaseManager</text>
<text text-anchor="middle" x="234" y="-22.5" font-family="Helvetica,sans-Serif" font-size="10.00">::query</text>
</a>
</g>
</g>
<!-- Node1&#45;&gt;Node5 -->
<g id="edge4_Node000001_Node000005" class="edge">
<title>Node1&#45;&gt;Node5</title>
<g id="a_edge4_Node000001_Node000005"><a xlink:title=" ">
<path fill="none" stroke="#63b8ff" d="M101.11,-76.46C118.48,-69.88 139.21,-62.15 158,-55.5 165.71,-52.77 173.9,-49.95 181.93,-47.24"/>
<polygon fill="#63b8ff" stroke="#63b8ff" points="186.9,-45.57 182.88,-49.3 184.53,-46.37 182.16,-47.16 182.16,-47.16 182.16,-47.16 184.53,-46.37 181.44,-45.03 186.9,-45.57 186.9,-45.57"/>
</a>
</g>
</g>
<!-- Node6 -->
<g id="Node000006" class="node">
<title>Node6</title>
<g id="a_Node000006"><a xlink:href="../../dc/db4/classCardDatabaseManager.html#ad3973b040eb93df3be6bd2e790c53d59" target="_top" xlink:title="Returns the singleton CardDatabase instance.">
<polygon fill="white" stroke="#666666" points="474,-67.5 346,-67.5 346,-37.5 474,-37.5 474,-67.5"/>
<text text-anchor="start" x="354" y="-55.5" font-family="Helvetica,sans-Serif" font-size="10.00">CardDatabaseManager</text>
<text text-anchor="middle" x="410" y="-44.5" font-family="Helvetica,sans-Serif" font-size="10.00">::getInstance</text>
</a>
</g>
</g>
<!-- Node5&#45;&gt;Node6 -->
<g id="edge5_Node000005_Node000006" class="edge">
<title>Node5&#45;&gt;Node6</title>
<g id="a_edge5_Node000005_Node000006"><a xlink:title=" ">
<path fill="none" stroke="#63b8ff" d="M298.31,-38.5C312.07,-40.24 326.69,-42.09 340.63,-43.86"/>
<polygon fill="#63b8ff" stroke="#63b8ff" points="345.74,-44.5 340.49,-46.11 343.26,-44.19 340.78,-43.87 340.78,-43.87 340.78,-43.87 343.26,-44.19 341.06,-41.64 345.74,-44.5 345.74,-44.5"/>
</a>
</g>
</g>
<!-- Node7 -->
<g id="Node000007" class="node">
<title>Node7</title>
<g id="a_Node000007"><a xlink:href="../../d5/d45/classCardDatabase.html#affe0baec75387712dc3a93199b56fc08" target="_top" xlink:title="Returns the querier for performing card lookups.">
<polygon fill="white" stroke="#666666" points="469.5,-19 350.5,-19 350.5,0 469.5,0 469.5,-19"/>
<text text-anchor="middle" x="410" y="-7" font-family="Helvetica,sans-Serif" font-size="10.00">CardDatabase::query</text>
</a>
</g>
</g>
<!-- Node5&#45;&gt;Node7 -->
<g id="edge6_Node000005_Node000007" class="edge">
<title>Node5&#45;&gt;Node7</title>
<g id="a_edge6_Node000005_Node000007"><a xlink:title=" ">
<path fill="none" stroke="#63b8ff" d="M298.31,-22.86C313.59,-21.02 329.92,-19.04 345.22,-17.2"/>
<polygon fill="#63b8ff" stroke="#63b8ff" points="350.37,-16.58 345.67,-19.41 347.88,-16.88 345.4,-17.18 345.4,-17.18 345.4,-17.18 347.88,-16.88 345.13,-14.94 350.37,-16.58 350.37,-16.58"/>
</a>
</g>
</g>
</g>
</svg>
</svg>

<style type='text/css'>
<![CDATA[
[data-mouse-over-selected='false'] { opacity: 0.7; }
[data-mouse-over-selected='true']  { opacity: 1.0; }
]]>
</style>
<script type="application/ecmascript"><![CDATA[
document.addEventListener('DOMContentLoaded', (event) => {
  highlightEdges();
  highlightAdjacentNodes();
});
]]></script>
</svg>
