<?xml version="1.0" encoding="UTF-8" standalone="no"?>
<!DOCTYPE svg PUBLIC "-//W3C//DTD SVG 1.1//EN"
 "http://www.w3.org/Graphics/SVG/1.1/DTD/svg11.dtd">
<!-- Generated by graphviz version 2.43.0 (0)
 -->
<!-- Title: DlgSelectSetForCards::actSetAllToPreferred Pages: 1 -->
<svg width="306pt" height="86pt"
 viewBox="0.00 0.00 306.00 86.00" xmlns="http://www.w3.org/2000/svg" xmlns:xlink="http://www.w3.org/1999/xlink">

<svg id="main" version="1.1" xmlns="http://www.w3.org/2000/svg" xmlns:xlink="http://www.w3.org/1999/xlink" xml:space="preserve">

<style type="text/css"><![CDATA[
.node, .edge {opacity: 0.7;}
.node.selected, .edge.selected {opacity: 1;}
.edge:hover path { stroke: red; }
.edge:hover polygon { stroke: red; fill: red; }
]]></style>
<script type="application/ecmascript" xlink:href="../../svg.min.js"/>
<svg id="graph" class="graph">
<g id="graph0" class="graph" transform="scale(1 1) rotate(0) translate(4 82)">
<title>DlgSelectSetForCards::actSetAllToPreferred</title>
<!-- Node1 -->
<g id="Node000001" class="node">
<title>Node1</title>
<g id="a_Node000001"><a xlink:title=" ">
<polygon fill="#999999" stroke="#666666" points="122,-54 0,-54 0,-24 122,-24 122,-54"/>
<text text-anchor="start" x="8" y="-42" font-family="Helvetica,sans-Serif" font-size="10.00">DlgSelectSetForCards</text>
<text text-anchor="middle" x="61" y="-31" font-family="Helvetica,sans-Serif" font-size="10.00">::actSetAllToPreferred</text>
</a>
</g>
</g>
<!-- Node2 -->
<g id="Node000002" class="node">
<title>Node2</title>
<g id="a_Node000002"><a xlink:href="../../de/d26/classDlgSelectSetForCards.html#aecf5afa1501850b038974a7851595c68" target="_top" xlink:title=" ">
<polygon fill="white" stroke="#666666" points="298,-78 158,-78 158,-48 298,-48 298,-78"/>
<text text-anchor="start" x="166" y="-66" font-family="Helvetica,sans-Serif" font-size="10.00">DlgSelectSetForCards</text>
<text text-anchor="middle" x="228" y="-55" font-family="Helvetica,sans-Serif" font-size="10.00">::deckAboutToBeModified</text>
</a>
</g>
</g>
<!-- Node1&#45;&gt;Node2 -->
<g id="edge1_Node000001_Node000002" class="edge">
<title>Node1&#45;&gt;Node2</title>
<g id="a_edge1_Node000001_Node000002"><a xlink:title=" ">
<path fill="none" stroke="#63b8ff" d="M122.04,-47.73C132.01,-49.18 142.46,-50.7 152.74,-52.2"/>
<polygon fill="#63b8ff" stroke="#63b8ff" points="157.77,-52.93 152.5,-54.44 155.3,-52.57 152.83,-52.21 152.83,-52.21 152.83,-52.21 155.3,-52.57 153.15,-49.98 157.77,-52.93 157.77,-52.93"/>
</a>
</g>
</g>
<!-- Node3 -->
<g id="Node000003" class="node">
<title>Node3</title>
<g id="a_Node000003"><a xlink:href="../../de/d26/classDlgSelectSetForCards.html#aeb6b53d95687b485371875e9b7f54007" target="_top" xlink:title=" ">
<polygon fill="white" stroke="#666666" points="289,-30 167,-30 167,0 289,0 289,-30"/>
<text text-anchor="start" x="175" y="-18" font-family="Helvetica,sans-Serif" font-size="10.00">DlgSelectSetForCards</text>
<text text-anchor="middle" x="228" y="-7" font-family="Helvetica,sans-Serif" font-size="10.00">::deckModified</text>
</a>
</g>
</g>
<!-- Node1&#45;&gt;Node3 -->
<g id="edge2_Node000001_Node000003" class="edge">
<title>Node1&#45;&gt;Node3</title>
<g id="a_edge2_Node000001_Node000003"><a xlink:title=" ">
<path fill="none" stroke="#63b8ff" d="M122.04,-30.27C134.89,-28.4 148.53,-26.41 161.57,-24.52"/>
<polygon fill="#63b8ff" stroke="#63b8ff" points="166.73,-23.77 162.11,-26.71 164.26,-24.13 161.78,-24.49 161.78,-24.49 161.78,-24.49 164.26,-24.13 161.46,-22.26 166.73,-23.77 166.73,-23.77"/>
</a>
</g>
</g>
</g>
</svg>
</svg>

<style type='text/css'>
<![CDATA[
[data-mouse-over-selected='false'] { opacity: 0.7; }
[data-mouse-over-selected='true']  { opacity: 1.0; }
]]>
</style>
<script type="application/ecmascript"><![CDATA[
document.addEventListener('DOMContentLoaded', (event) => {
  highlightEdges();
  highlightAdjacentNodes();
});
]]></script>
</svg>
