<?xml version="1.0" encoding="UTF-8" standalone="no"?>
<!DOCTYPE svg PUBLIC "-//W3C//DTD SVG 1.1//EN"
 "http://www.w3.org/Graphics/SVG/1.1/DTD/svg11.dtd">
<!-- Generated by graphviz version 2.43.0 (0)
 -->
<!-- Title: cockatrice/src/interface/widgets/deck_analytics/mana_base_widget.cpp Pages: 1 -->
<!--zoomable 258 -->

<svg id="main" version="1.1" xmlns="http://www.w3.org/2000/svg" xmlns:xlink="http://www.w3.org/1999/xlink" xml:space="preserve" onload="init(evt)">
<style type="text/css"><![CDATA[
.node, .edge {opacity: 0.7;}
.node.selected, .edge.selected {opacity: 1;}
.edge:hover path { stroke: red; }
.edge:hover polygon { stroke: red; fill: red; }
]]></style>

<defs>
  <circle id="rim" cx="0" cy="0" r="7"/>
  <circle id="rim2" cx="0" cy="0" r="3.5"/>
  <g id="zoomPlus">
    <use xlink:href="#rim" fill="#404040"><set attributeName="fill" to="#808080" begin="zoomplus.mouseover" end="zoomplus.mouseout"/></use>
    <path d="M-4,0h8M0,-4v8" fill="none" stroke="white" stroke-width="1.5" pointer-events="none"/>
  </g>
  <g id="zoomMin">
    <use xlink:href="#rim" fill="#404040"><set attributeName="fill" to="#808080" begin="zoomminus.mouseover" end="zoomminus.mouseout"/></use>
    <path d="M-4,0h8" fill="none" stroke="white" stroke-width="1.5" pointer-events="none"/>
  </g>
  <g id="arrowUp" transform="translate(30 24)">
    <use xlink:href="#rim"/>
    <path pointer-events="none" fill="none" stroke="white" stroke-width="1.5" d="M0,-3.0v7 M-2.5,-0.5L0,-3.0L2.5,-0.5"/>
  </g>
  <g id="arrowRight" transform="rotate(90) translate(36 -43)">
    <use xlink:href="#rim"/>
    <path pointer-events="none" fill="none" stroke="white" stroke-width="1.5" d="M0,-3.0v7 M-2.5,-0.5L0,-3.0L2.5,-0.5"/>
  </g>
  <g id="arrowDown" transform="rotate(180) translate(-30 -48)">
    <use xlink:href="#rim"/>
    <path pointer-events="none" fill="none" stroke="white" stroke-width="1.5" d="M0,-3.0v7 M-2.5,-0.5L0,-3.0L2.5,-0.5"/>
  </g>
  <g id="arrowLeft" transform="rotate(270) translate(-36 17)">
    <use xlink:href="#rim"/>
    <path pointer-events="none" fill="none" stroke="white" stroke-width="1.5" d="M0,-3.0v7 M-2.5,-0.5L0,-3.0L2.5,-0.5"/>
  </g>
  <g id="resetDef">
    <use xlink:href="#rim2" fill="#404040"><set attributeName="fill" to="#808080" begin="reset.mouseover" end="reset.mouseout"/></use>
  </g>
</defs>
<script type="application/ecmascript">
var viewWidth = 1383;
var viewHeight = 258;
var sectionId = 'dynsection-0';
</script>
<script type="application/ecmascript" xlink:href="../../svg.min.js"/>
<svg id="graph" class="graph">
<g id="viewport">
<title>cockatrice/src/interface/widgets/deck_analytics/mana_base_widget.cpp</title>
<!-- Node1 -->
<g id="Node000001" class="node">
<title>Node1</title>
<g id="a_Node000001"><a xlink:title=" ">
<polygon fill="#999999" stroke="#666666" points="808,-250 674,-250 674,-209 808,-209 808,-250"/>
<text text-anchor="start" x="682" y="-238" font-family="Helvetica,sans-Serif" font-size="10.00">cockatrice/src/interface</text>
<text text-anchor="start" x="682" y="-227" font-family="Helvetica,sans-Serif" font-size="10.00">/widgets/deck_analytics</text>
<text text-anchor="middle" x="741" y="-216" font-family="Helvetica,sans-Serif" font-size="10.00">/mana_base_widget.cpp</text>
</a>
</g>
</g>
<!-- Node2 -->
<g id="Node000002" class="node">
<title>Node2</title>
<g id="a_Node000002"><a xlink:href="../../d3/d39/mana__base__widget_8h.html" target="_top" xlink:title="TODO: Document this.">
<polygon fill="white" stroke="#666666" points="437,-162 317,-162 317,-143 437,-143 437,-162"/>
<text text-anchor="middle" x="377" y="-150" font-family="Helvetica,sans-Serif" font-size="10.00">mana_base_widget.h</text>
</a>
</g>
</g>
<!-- Node1&#45;&gt;Node2 -->
<g id="edge1_Node000001_Node000002" class="edge">
<title>Node1&#45;&gt;Node2</title>
<g id="a_edge1_Node000001_Node000002"><a xlink:title=" ">
<path fill="none" stroke="#63b8ff" d="M673.81,-214.66C601.08,-199.67 487.01,-176.17 423.55,-163.09"/>
<polygon fill="#63b8ff" stroke="#63b8ff" points="418.32,-162.01 423.67,-160.82 420.77,-162.52 423.22,-163.02 423.22,-163.02 423.22,-163.02 420.77,-162.52 422.76,-165.23 418.32,-162.01 418.32,-162.01"/>
</a>
</g>
</g>
<!-- Node3 -->
<g id="Node000003" class="node">
<title>Node3</title>
<g id="a_Node000003"><a xlink:href="../../d7/d58/banner__widget_8h.html" target="_top" xlink:title="TODO: Document this.">
<polygon fill="white" stroke="#666666" points="160.5,-90.5 59.5,-90.5 59.5,-60.5 160.5,-60.5 160.5,-90.5"/>
<text text-anchor="start" x="67.5" y="-78.5" font-family="Helvetica,sans-Serif" font-size="10.00">../general/display</text>
<text text-anchor="middle" x="110" y="-67.5" font-family="Helvetica,sans-Serif" font-size="10.00">/banner_widget.h</text>
</a>
</g>
</g>
<!-- Node1&#45;&gt;Node3 -->
<g id="edge11_Node000001_Node000003" class="edge">
<title>Node1&#45;&gt;Node3</title>
<g id="a_edge11_Node000001_Node000003"><a xlink:title=" ">
<path fill="none" stroke="#63b8ff" d="M673.96,-226.64C587.64,-222.73 433.8,-210.61 308,-173 243.57,-153.74 174.23,-115.41 137.13,-93.29"/>
<polygon fill="#63b8ff" stroke="#63b8ff" points="132.76,-90.68 138.21,-91.32 134.91,-91.96 137.05,-93.25 137.05,-93.25 137.05,-93.25 134.91,-91.96 135.89,-95.18 132.76,-90.68 132.76,-90.68"/>
</a>
</g>
</g>
<!-- Node8 -->
<g id="Node000008" class="node">
<title>Node8</title>
<g id="a_Node000008"><a xlink:title=" ">
<polygon fill="#e0e0e0" stroke="#999999" points="621,-90.5 517,-90.5 517,-60.5 621,-60.5 621,-90.5"/>
<text text-anchor="start" x="525" y="-78.5" font-family="Helvetica,sans-Serif" font-size="10.00">libcockatrice/deck</text>
<text text-anchor="middle" x="569" y="-67.5" font-family="Helvetica,sans-Serif" font-size="10.00">_list/deck_list.h</text>
</a>
</g>
</g>
<!-- Node1&#45;&gt;Node8 -->
<g id="edge20_Node000001_Node000008" class="edge">
<title>Node1&#45;&gt;Node8</title>
<g id="a_edge20_Node000001_Node000008"><a xlink:title=" ">
<path fill="none" stroke="#63b8ff" d="M673.85,-219.08C643.8,-211.48 610.4,-197.77 589,-173 570.44,-151.52 567.54,-117.34 567.79,-95.95"/>
<polygon fill="#63b8ff" stroke="#63b8ff" points="567.92,-90.8 570.05,-95.86 567.86,-93.3 567.8,-95.8 567.8,-95.8 567.8,-95.8 567.86,-93.3 565.55,-95.75 567.92,-90.8 567.92,-90.8"/>
</a>
</g>
</g>
<!-- Node11 -->
<g id="Node000011" class="node">
<title>Node11</title>
<g id="a_Node000011"><a xlink:href="../../d5/d72/bar__widget_8h.html" target="_top" xlink:title="TODO: Document this.">
<polygon fill="white" stroke="#666666" points="698.5,-167.5 597.5,-167.5 597.5,-137.5 698.5,-137.5 698.5,-167.5"/>
<text text-anchor="start" x="605.5" y="-155.5" font-family="Helvetica,sans-Serif" font-size="10.00">../general/display</text>
<text text-anchor="middle" x="648" y="-144.5" font-family="Helvetica,sans-Serif" font-size="10.00">/bar_widget.h</text>
</a>
</g>
</g>
<!-- Node1&#45;&gt;Node11 -->
<g id="edge12_Node000001_Node000011" class="edge">
<title>Node1&#45;&gt;Node11</title>
<g id="a_edge12_Node000001_Node000011"><a xlink:title=" ">
<path fill="none" stroke="#63b8ff" d="M716.57,-208.79C702.03,-197.07 683.75,-182.33 669.72,-171.02"/>
<polygon fill="#63b8ff" stroke="#63b8ff" points="665.52,-167.63 670.82,-169.01 667.46,-169.2 669.41,-170.76 669.41,-170.76 669.41,-170.76 667.46,-169.2 668,-172.52 665.52,-167.63 665.52,-167.63"/>
</a>
</g>
</g>
<!-- Node14 -->
<g id="Node000014" class="node">
<title>Node14</title>
<g id="a_Node000014"><a xlink:title=" ">
<polygon fill="#e0e0e0" stroke="#999999" points="765.5,-162 716.5,-162 716.5,-143 765.5,-143 765.5,-162"/>
<text text-anchor="middle" x="741" y="-150" font-family="Helvetica,sans-Serif" font-size="10.00">QHash</text>
</a>
</g>
</g>
<!-- Node1&#45;&gt;Node14 -->
<g id="edge16_Node000001_Node000014" class="edge">
<title>Node1&#45;&gt;Node14</title>
<g id="a_edge16_Node000001_Node000014"><a xlink:title=" ">
<path fill="none" stroke="#63b8ff" d="M741,-208.79C741,-195.82 741,-179.13 741,-167.5"/>
<polygon fill="#63b8ff" stroke="#63b8ff" points="741,-162.24 743.25,-167.24 741,-164.74 741,-167.24 741,-167.24 741,-167.24 741,-164.74 738.75,-167.24 741,-162.24 741,-162.24"/>
</a>
</g>
</g>
<!-- Node15 -->
<g id="Node000015" class="node">
<title>Node15</title>
<g id="a_Node000015"><a xlink:title=" ">
<polygon fill="#e0e0e0" stroke="#999999" points="898.5,-162 783.5,-162 783.5,-143 898.5,-143 898.5,-162"/>
<text text-anchor="middle" x="841" y="-150" font-family="Helvetica,sans-Serif" font-size="10.00">QRegularExpression</text>
</a>
</g>
</g>
<!-- Node1&#45;&gt;Node15 -->
<g id="edge17_Node000001_Node000015" class="edge">
<title>Node1&#45;&gt;Node15</title>
<g id="a_edge17_Node000001_Node000015"><a xlink:title=" ">
<path fill="none" stroke="#63b8ff" d="M767.01,-208.99C785.53,-195.1 809.79,-176.91 825.39,-165.21"/>
<polygon fill="#63b8ff" stroke="#63b8ff" points="829.55,-162.09 826.9,-166.89 827.55,-163.59 825.55,-165.09 825.55,-165.09 825.55,-165.09 827.55,-163.59 824.2,-163.29 829.55,-162.09 829.55,-162.09"/>
</a>
</g>
</g>
<!-- Node16 -->
<g id="Node000016" class="node">
<title>Node16</title>
<g id="a_Node000016"><a xlink:title=" ">
<polygon fill="#e0e0e0" stroke="#999999" points="1065,-167.5 917,-167.5 917,-137.5 1065,-137.5 1065,-167.5"/>
<text text-anchor="start" x="925" y="-155.5" font-family="Helvetica,sans-Serif" font-size="10.00">libcockatrice/card</text>
<text text-anchor="middle" x="991" y="-144.5" font-family="Helvetica,sans-Serif" font-size="10.00">/database/card_database.h</text>
</a>
</g>
</g>
<!-- Node1&#45;&gt;Node16 -->
<g id="edge18_Node000001_Node000016" class="edge">
<title>Node1&#45;&gt;Node16</title>
<g id="a_edge18_Node000001_Node000016"><a xlink:title=" ">
<path fill="none" stroke="#63b8ff" d="M806.03,-208.99C847.43,-196.57 900.33,-180.7 938.95,-169.12"/>
<polygon fill="#63b8ff" stroke="#63b8ff" points="944.06,-167.58 939.92,-171.17 941.66,-168.3 939.27,-169.02 939.27,-169.02 939.27,-169.02 941.66,-168.3 938.62,-166.86 944.06,-167.58 944.06,-167.58"/>
</a>
</g>
</g>
<!-- Node17 -->
<g id="Node000017" class="node">
<title>Node17</title>
<g id="a_Node000017"><a xlink:title=" ">
<polygon fill="#e0e0e0" stroke="#999999" points="1222.5,-173 1083.5,-173 1083.5,-132 1222.5,-132 1222.5,-173"/>
<text text-anchor="start" x="1091.5" y="-161" font-family="Helvetica,sans-Serif" font-size="10.00">libcockatrice/card</text>
<text text-anchor="start" x="1091.5" y="-150" font-family="Helvetica,sans-Serif" font-size="10.00">/database/card_database</text>
<text text-anchor="middle" x="1153" y="-139" font-family="Helvetica,sans-Serif" font-size="10.00">_manager.h</text>
</a>
</g>
</g>
<!-- Node1&#45;&gt;Node17 -->
<g id="edge19_Node000001_Node000017" class="edge">
<title>Node1&#45;&gt;Node17</title>
<g id="a_edge19_Node000001_Node000017"><a xlink:title=" ">
<path fill="none" stroke="#63b8ff" d="M808.25,-218.84C875.71,-208.79 982.45,-191.9 1074,-173 1075.43,-172.71 1076.87,-172.4 1078.32,-172.09"/>
<polygon fill="#63b8ff" stroke="#63b8ff" points="1083.28,-171.02 1078.87,-174.28 1080.84,-171.55 1078.39,-172.08 1078.39,-172.08 1078.39,-172.08 1080.84,-171.55 1077.92,-169.88 1083.28,-171.02 1083.28,-171.02"/>
</a>
</g>
</g>
<!-- Node18 -->
<g id="Node000018" class="node">
<title>Node18</title>
<g id="a_Node000018"><a xlink:title=" ">
<polygon fill="#e0e0e0" stroke="#999999" points="1375,-167.5 1241,-167.5 1241,-137.5 1375,-137.5 1375,-167.5"/>
<text text-anchor="start" x="1249" y="-155.5" font-family="Helvetica,sans-Serif" font-size="10.00">libcockatrice/models</text>
<text text-anchor="middle" x="1308" y="-144.5" font-family="Helvetica,sans-Serif" font-size="10.00">/deck_list/deck_loader.h</text>
</a>
</g>
</g>
<!-- Node1&#45;&gt;Node18 -->
<g id="edge21_Node000001_Node000018" class="edge">
<title>Node1&#45;&gt;Node18</title>
<g id="a_edge21_Node000001_Node000018"><a xlink:title=" ">
<path fill="none" stroke="#63b8ff" d="M808.14,-223.87C903.1,-216.66 1081.82,-200.62 1232,-173 1238.51,-171.8 1245.29,-170.36 1252,-168.8"/>
<polygon fill="#63b8ff" stroke="#63b8ff" points="1257.11,-167.59 1252.77,-170.93 1254.68,-168.17 1252.25,-168.74 1252.25,-168.74 1252.25,-168.74 1254.68,-168.17 1251.73,-166.55 1257.11,-167.59 1257.11,-167.59"/>
</a>
</g>
</g>
<!-- Node2&#45;&gt;Node3 -->
<g id="edge2_Node000002_Node000003" class="edge">
<title>Node2&#45;&gt;Node3</title>
<g id="a_edge2_Node000002_Node000003"><a xlink:title=" ">
<path fill="none" stroke="#63b8ff" d="M345.1,-142.98C305.23,-132.28 234.95,-113.22 175,-96 170.59,-94.73 166.02,-93.4 161.44,-92.05"/>
<polygon fill="#63b8ff" stroke="#63b8ff" points="156.47,-90.59 161.91,-89.84 158.87,-91.29 161.27,-92 161.27,-92 161.27,-92 158.87,-91.29 160.63,-94.16 156.47,-90.59 156.47,-90.59"/>
</a>
</g>
</g>
<!-- Node6 -->
<g id="Node000006" class="node">
<title>Node6</title>
<g id="a_Node000006"><a xlink:title=" ">
<polygon fill="#e0e0e0" stroke="#999999" points="228.5,-19 169.5,-19 169.5,0 228.5,0 228.5,-19"/>
<text text-anchor="middle" x="199" y="-7" font-family="Helvetica,sans-Serif" font-size="10.00">QWidget</text>
</a>
</g>
</g>
<!-- Node2&#45;&gt;Node6 -->
<g id="edge7_Node000002_Node000006" class="edge">
<title>Node2&#45;&gt;Node6</title>
<g id="a_edge7_Node000002_Node000006"><a xlink:title=" ">
<path fill="none" stroke="#63b8ff" d="M316.98,-147.77C279.75,-142.1 234.19,-128.44 208,-96 191.52,-75.58 193.43,-42.88 196.24,-24.4"/>
<polygon fill="#63b8ff" stroke="#63b8ff" points="197.13,-19.15 198.52,-24.46 196.71,-21.62 196.3,-24.08 196.3,-24.08 196.3,-24.08 196.71,-21.62 194.08,-23.71 197.13,-19.15 197.13,-19.15"/>
</a>
</g>
</g>
<!-- Node7 -->
<g id="Node000007" class="node">
<title>Node7</title>
<g id="a_Node000007"><a xlink:title=" ">
<polygon fill="#e0e0e0" stroke="#999999" points="300.5,-85 217.5,-85 217.5,-66 300.5,-66 300.5,-85"/>
<text text-anchor="middle" x="259" y="-73" font-family="Helvetica,sans-Serif" font-size="10.00">QHBoxLayout</text>
</a>
</g>
</g>
<!-- Node2&#45;&gt;Node7 -->
<g id="edge6_Node000002_Node000007" class="edge">
<title>Node2&#45;&gt;Node7</title>
<g id="a_edge6_Node000002_Node000007"><a xlink:title=" ">
<path fill="none" stroke="#63b8ff" d="M363.46,-142.9C342.12,-129.33 300.65,-102.97 276.88,-87.87"/>
<polygon fill="#63b8ff" stroke="#63b8ff" points="272.38,-85 277.8,-85.79 274.49,-86.34 276.6,-87.69 276.6,-87.69 276.6,-87.69 274.49,-86.34 275.39,-89.58 272.38,-85 272.38,-85"/>
</a>
</g>
</g>
<!-- Node2&#45;&gt;Node8 -->
<g id="edge8_Node000002_Node000008" class="edge">
<title>Node2&#45;&gt;Node8</title>
<g id="a_edge8_Node000002_Node000008"><a xlink:title=" ">
<path fill="none" stroke="#63b8ff" d="M399.02,-142.9C430.45,-130.62 488.71,-107.86 528.16,-92.45"/>
<polygon fill="#63b8ff" stroke="#63b8ff" points="532.87,-90.61 529.03,-94.53 530.54,-91.52 528.21,-92.43 528.21,-92.43 528.21,-92.43 530.54,-91.52 527.4,-90.34 532.87,-90.61 532.87,-90.61"/>
</a>
</g>
</g>
<!-- Node9 -->
<g id="Node000009" class="node">
<title>Node9</title>
<g id="a_Node000009"><a xlink:title=" ">
<polygon fill="#e0e0e0" stroke="#999999" points="435.5,-96 318.5,-96 318.5,-55 435.5,-55 435.5,-96"/>
<text text-anchor="start" x="326.5" y="-84" font-family="Helvetica,sans-Serif" font-size="10.00">libcockatrice/models</text>
<text text-anchor="start" x="326.5" y="-73" font-family="Helvetica,sans-Serif" font-size="10.00">/deck_list/deck_list</text>
<text text-anchor="middle" x="377" y="-62" font-family="Helvetica,sans-Serif" font-size="10.00">_model.h</text>
</a>
</g>
</g>
<!-- Node2&#45;&gt;Node9 -->
<g id="edge9_Node000002_Node000009" class="edge">
<title>Node2&#45;&gt;Node9</title>
<g id="a_edge9_Node000002_Node000009"><a xlink:title=" ">
<path fill="none" stroke="#63b8ff" d="M377,-142.9C377,-132.82 377,-115.69 377,-101.35"/>
<polygon fill="#63b8ff" stroke="#63b8ff" points="377,-96.21 379.25,-101.21 377,-98.71 377,-101.21 377,-101.21 377,-101.21 377,-98.71 374.75,-101.21 377,-96.21 377,-96.21"/>
</a>
</g>
</g>
<!-- Node10 -->
<g id="Node000010" class="node">
<title>Node10</title>
<g id="a_Node000010"><a xlink:title=" ">
<polygon fill="#e0e0e0" stroke="#999999" points="498.5,-85 453.5,-85 453.5,-66 498.5,-66 498.5,-85"/>
<text text-anchor="middle" x="476" y="-73" font-family="Helvetica,sans-Serif" font-size="10.00">utility</text>
</a>
</g>
</g>
<!-- Node2&#45;&gt;Node10 -->
<g id="edge10_Node000002_Node000010" class="edge">
<title>Node2&#45;&gt;Node10</title>
<g id="a_edge10_Node000002_Node000010"><a xlink:title=" ">
<path fill="none" stroke="#63b8ff" d="M388.36,-142.9C406.19,-129.39 440.76,-103.19 460.75,-88.06"/>
<polygon fill="#63b8ff" stroke="#63b8ff" points="464.78,-85 462.15,-89.82 462.78,-86.51 460.79,-88.02 460.79,-88.02 460.79,-88.02 462.78,-86.51 459.43,-86.23 464.78,-85 464.78,-85"/>
</a>
</g>
</g>
<!-- Node4 -->
<g id="Node000004" class="node">
<title>Node4</title>
<g id="a_Node000004"><a xlink:title=" ">
<polygon fill="#e0e0e0" stroke="#999999" points="50,-19 0,-19 0,0 50,0 50,-19"/>
<text text-anchor="middle" x="25" y="-7" font-family="Helvetica,sans-Serif" font-size="10.00">QLabel</text>
</a>
</g>
</g>
<!-- Node3&#45;&gt;Node4 -->
<g id="edge3_Node000003_Node000004" class="edge">
<title>Node3&#45;&gt;Node4</title>
<g id="a_edge3_Node000003_Node000004"><a xlink:title=" ">
<path fill="none" stroke="#63b8ff" d="M91.14,-60.3C76.07,-48.95 55.18,-33.22 40.94,-22.5"/>
<polygon fill="#63b8ff" stroke="#63b8ff" points="36.75,-19.34 42.09,-20.55 38.74,-20.85 40.74,-22.35 40.74,-22.35 40.74,-22.35 38.74,-20.85 39.39,-24.15 36.75,-19.34 36.75,-19.34"/>
</a>
</g>
</g>
<!-- Node5 -->
<g id="Node000005" class="node">
<title>Node5</title>
<g id="a_Node000005"><a xlink:title=" ">
<polygon fill="#e0e0e0" stroke="#999999" points="151.5,-19 68.5,-19 68.5,0 151.5,0 151.5,-19"/>
<text text-anchor="middle" x="110" y="-7" font-family="Helvetica,sans-Serif" font-size="10.00">QVBoxLayout</text>
</a>
</g>
</g>
<!-- Node3&#45;&gt;Node5 -->
<g id="edge4_Node000003_Node000005" class="edge">
<title>Node3&#45;&gt;Node5</title>
<g id="a_edge4_Node000003_Node000005"><a xlink:title=" ">
<path fill="none" stroke="#63b8ff" d="M110,-60.3C110,-49.63 110,-35.11 110,-24.5"/>
<polygon fill="#63b8ff" stroke="#63b8ff" points="110,-19.34 112.25,-24.34 110,-21.84 110,-24.34 110,-24.34 110,-24.34 110,-21.84 107.75,-24.34 110,-19.34 110,-19.34"/>
</a>
</g>
</g>
<!-- Node3&#45;&gt;Node6 -->
<g id="edge5_Node000003_Node000006" class="edge">
<title>Node3&#45;&gt;Node6</title>
<g id="a_edge5_Node000003_Node000006"><a xlink:title=" ">
<path fill="none" stroke="#63b8ff" d="M129.75,-60.3C145.62,-48.88 167.66,-33.04 182.57,-22.31"/>
<polygon fill="#63b8ff" stroke="#63b8ff" points="186.96,-19.16 184.21,-23.9 184.93,-20.62 182.9,-22.08 182.9,-22.08 182.9,-22.08 184.93,-20.62 181.59,-20.25 186.96,-19.16 186.96,-19.16"/>
</a>
</g>
</g>
<!-- Node11&#45;&gt;Node6 -->
<g id="edge15_Node000011_Node000006" class="edge">
<title>Node11&#45;&gt;Node6</title>
<g id="a_edge15_Node000011_Node000006"><a xlink:title=" ">
<path fill="none" stroke="#63b8ff" d="M650.07,-137.24C652.28,-115.93 652.81,-76.02 630,-55 601.03,-28.3 330.83,-15.5 233.62,-11.73"/>
<polygon fill="#63b8ff" stroke="#63b8ff" points="228.58,-11.53 233.66,-9.48 231.07,-11.63 233.57,-11.73 233.57,-11.73 233.57,-11.73 231.07,-11.63 233.49,-13.97 228.58,-11.53 228.58,-11.53"/>
</a>
</g>
</g>
<!-- Node12 -->
<g id="Node000012" class="node">
<title>Node12</title>
<g id="a_Node000012"><a xlink:title=" ">
<polygon fill="#e0e0e0" stroke="#999999" points="727,-85 677,-85 677,-66 727,-66 727,-85"/>
<text text-anchor="middle" x="702" y="-73" font-family="Helvetica,sans-Serif" font-size="10.00">QColor</text>
</a>
</g>
</g>
<!-- Node11&#45;&gt;Node12 -->
<g id="edge13_Node000011_Node000012" class="edge">
<title>Node11&#45;&gt;Node12</title>
<g id="a_edge13_Node000011_Node000012"><a xlink:title=" ">
<path fill="none" stroke="#63b8ff" d="M658.16,-137.39C668.04,-123.67 682.93,-102.98 692.56,-89.61"/>
<polygon fill="#63b8ff" stroke="#63b8ff" points="695.61,-85.37 694.51,-90.75 694.15,-87.4 692.69,-89.43 692.69,-89.43 692.69,-89.43 694.15,-87.4 690.86,-88.12 695.61,-85.37 695.61,-85.37"/>
</a>
</g>
</g>
<!-- Node13 -->
<g id="Node000013" class="node">
<title>Node13</title>
<g id="a_Node000013"><a xlink:title=" ">
<polygon fill="#e0e0e0" stroke="#999999" points="798.5,-85 745.5,-85 745.5,-66 798.5,-66 798.5,-85"/>
<text text-anchor="middle" x="772" y="-73" font-family="Helvetica,sans-Serif" font-size="10.00">QString</text>
</a>
</g>
</g>
<!-- Node11&#45;&gt;Node13 -->
<g id="edge14_Node000011_Node000013" class="edge">
<title>Node11&#45;&gt;Node13</title>
<g id="a_edge14_Node000011_Node000013"><a xlink:title=" ">
<path fill="none" stroke="#63b8ff" d="M671.32,-137.39C695.03,-123.05 731.31,-101.11 753.23,-87.85"/>
<polygon fill="#63b8ff" stroke="#63b8ff" points="757.68,-85.16 754.57,-89.67 755.54,-86.46 753.4,-87.75 753.4,-87.75 753.4,-87.75 755.54,-86.46 752.24,-85.82 757.68,-85.16 757.68,-85.16"/>
</a>
</g>
</g>
</g>
</svg>

<g id="navigator" transform="translate(0 0)" fill="#404254">
  <rect fill="#f2f5e9" fill-opacity="0.5" stroke="#606060" stroke-width=".5" x="0" y="0" width="60" height="60"/>
  <use id="zoomplus" xlink:href="#zoomPlus" x="17" y="9" onmousedown="handleZoom(evt,'in')"/>
  <use id="zoomminus" xlink:href="#zoomMin" x="42" y="9" onmousedown="handleZoom(evt,'out')"/>
  <use id="reset" xlink:href="#resetDef" x="30" y="36" onmousedown="handleReset()"/>
   <use id="arrowup" xlink:href="#arrowUp" x="0" y="0" onmousedown="handlePan(0,-1)"/>
  <use id="arrowright" xlink:href="#arrowRight" x="0" y="0" onmousedown="handlePan(1,0)"/>
  <use id="arrowdown" xlink:href="#arrowDown" x="0" y="0" onmousedown="handlePan(0,1)"/>
  <use id="arrowleft" xlink:href="#arrowLeft" x="0" y="0" onmousedown="handlePan(-1,0)"/>
</g>
<svg viewBox="0 0 15 15" width="100%" height="30px" preserveAspectRatio="xMaxYMin meet">
 <g id="arrow_out" transform="scale(0.3 0.3)">
  <a xlink:href="mana__base__widget_8cpp__incl_org.svg" target="_base">
   <rect id="button" ry="5" rx="5" y="6" x="6" height="38" width="38"
        fill="#f2f5e9" fill-opacity="0.5" stroke="#606060" stroke-width="1.0"/>
   <path id="arrow"
     d="M 11.500037,31.436501 C 11.940474,20.09759 22.043105,11.32322 32.158766,21.979434 L 37.068811,17.246167 C 37.068811,17.246167 37.088388,32 37.088388,32 L 22.160133,31.978069 C 22.160133,31.978069 26.997745,27.140456 26.997745,27.140456 C 18.528582,18.264221 13.291696,25.230495 11.500037,31.436501 z"
     style="fill:#404040;"/>
  </a>
 </g>
</svg>

<style type='text/css'>
<![CDATA[
[data-mouse-over-selected='false'] { opacity: 0.7; }
[data-mouse-over-selected='true']  { opacity: 1.0; }
]]>
</style>
<script type="application/ecmascript"><![CDATA[
document.addEventListener('DOMContentLoaded', (event) => {
  highlightEdges();
  highlightAdjacentNodes();
});
]]></script>
</svg>
