<?xml version="1.0" encoding="UTF-8" standalone="no"?>
<!DOCTYPE svg PUBLIC "-//W3C//DTD SVG 1.1//EN"
 "http://www.w3.org/Graphics/SVG/1.1/DTD/svg11.dtd">
<!-- Generated by graphviz version 2.43.0 (0)
 -->
<!-- Title: VisualDeckStorageQuickSettingsWidget Pages: 1 -->
<svg width="302pt" height="292pt"
 viewBox="0.00 0.00 301.50 292.00" xmlns="http://www.w3.org/2000/svg" xmlns:xlink="http://www.w3.org/1999/xlink">

<svg id="main" version="1.1" xmlns="http://www.w3.org/2000/svg" xmlns:xlink="http://www.w3.org/1999/xlink" xml:space="preserve" onload="init(evt)">
<style type="text/css"><![CDATA[
.node, .edge {opacity: 0.7;}
.node.selected, .edge.selected {opacity: 1;}
.edge:hover path { stroke: red; }
.edge:hover polygon { stroke: red; fill: red; }
]]></style>
<script type="application/ecmascript" xlink:href="../../svg.min.js"/>
<svg id="graph" class="graph">
<g id="graph0" class="graph" transform="scale(1 1) rotate(0) translate(4 288)">
<title>VisualDeckStorageQuickSettingsWidget</title>
<!-- Node1 -->
<g id="Node000001" class="node">
<title>Node1</title>
<g id="a_Node000001"><a xlink:title=" ">
<polygon fill="#999999" stroke="#666666" points="212.5,-30 36.5,-30 36.5,0 212.5,0 212.5,-30"/>
<text text-anchor="start" x="44.5" y="-18" font-family="Helvetica,sans-Serif" font-size="10.00">VisualDeckStorageQuickSettings</text>
<text text-anchor="middle" x="124.5" y="-7" font-family="Helvetica,sans-Serif" font-size="10.00">Widget</text>
</a>
</g>
</g>
<!-- Node2 -->
<g id="Node000002" class="node">
<title>Node2</title>
<g id="a_Node000002"><a xlink:href="../../d2/dd6/classSettingsButtonWidget.html" target="_top" xlink:title=" ">
<polygon fill="white" stroke="#666666" points="123,-96 0,-96 0,-77 123,-77 123,-96"/>
<text text-anchor="middle" x="61.5" y="-84" font-family="Helvetica,sans-Serif" font-size="10.00">SettingsButtonWidget</text>
</a>
</g>
</g>
<!-- Node2&#45;&gt;Node1 -->
<g id="edge1_Node000001_Node000002" class="edge">
<title>Node2&#45;&gt;Node1</title>
<g id="a_edge1_Node000001_Node000002"><a xlink:title=" ">
<path fill="none" stroke="#63b8ff" d="M72.7,-73.15C83.63,-61.09 100.23,-42.77 111.68,-30.14"/>
<polygon fill="#63b8ff" stroke="#63b8ff" points="69.23,-76.98 70.92,-71.76 70.9,-75.13 72.58,-73.27 72.58,-73.27 72.58,-73.27 70.9,-75.13 74.25,-74.78 69.23,-76.98 69.23,-76.98"/>
</a>
</g>
</g>
<!-- Node3 -->
<g id="Node000003" class="node">
<title>Node3</title>
<g id="a_Node000003"><a xlink:title=" ">
<polygon fill="white" stroke="#666666" points="147,-228 88,-228 88,-209 147,-209 147,-228"/>
<text text-anchor="middle" x="117.5" y="-216" font-family="Helvetica,sans-Serif" font-size="10.00">QWidget</text>
</a>
</g>
</g>
<!-- Node3&#45;&gt;Node2 -->
<g id="edge2_Node000002_Node000003" class="edge">
<title>Node3&#45;&gt;Node2</title>
<g id="a_edge2_Node000002_Node000003"><a xlink:title=" ">
<path fill="none" stroke="#63b8ff" d="M82.52,-209.19C58.22,-201.39 27.6,-187.06 12.5,-162 -2.2,-137.6 29.54,-109.79 48.56,-96.07"/>
<polygon fill="#63b8ff" stroke="#63b8ff" points="87.6,-210.75 82.16,-211.43 85.21,-210.02 82.82,-209.28 82.82,-209.28 82.82,-209.28 85.21,-210.02 83.49,-207.13 87.6,-210.75 87.6,-210.75"/>
</a>
</g>
</g>
<!-- Node4 -->
<g id="Node000004" class="node">
<title>Node4</title>
<g id="a_Node000004"><a xlink:href="../../d1/d7d/classSettingsPopupWidget.html" target="_top" xlink:title=" ">
<polygon fill="white" stroke="#666666" points="143,-162 22,-162 22,-143 143,-143 143,-162"/>
<text text-anchor="middle" x="82.5" y="-150" font-family="Helvetica,sans-Serif" font-size="10.00">SettingsPopupWidget</text>
</a>
</g>
</g>
<!-- Node3&#45;&gt;Node4 -->
<g id="edge4_Node000004_Node000003" class="edge">
<title>Node3&#45;&gt;Node4</title>
<g id="a_edge4_Node000004_Node000003"><a xlink:title=" ">
<path fill="none" stroke="#63b8ff" d="M110.24,-204.22C103.39,-191.69 93.31,-173.26 87.37,-162.41"/>
<polygon fill="#63b8ff" stroke="#63b8ff" points="112.78,-208.87 108.41,-205.56 111.58,-206.68 110.38,-204.48 110.38,-204.48 110.38,-204.48 111.58,-206.68 112.35,-203.4 112.78,-208.87 112.78,-208.87"/>
</a>
</g>
</g>
<!-- Node5 -->
<g id="Node000005" class="node">
<title>Node5</title>
<g id="a_Node000005"><a xlink:href="../../df/d47/classCardSizeWidget.html" target="_top" xlink:title="A widget for adjusting card sizes using a slider.">
<polygon fill="white" stroke="#666666" points="235.5,-96 141.5,-96 141.5,-77 235.5,-77 235.5,-96"/>
<text text-anchor="middle" x="188.5" y="-84" font-family="Helvetica,sans-Serif" font-size="10.00">CardSizeWidget</text>
</a>
</g>
</g>
<!-- Node3&#45;&gt;Node5 -->
<g id="edge6_Node000005_Node000003" class="edge">
<title>Node3&#45;&gt;Node5</title>
<g id="a_edge6_Node000005_Node000003"><a xlink:title=" ">
<path fill="none" stroke="#63b8ff" d="M125.87,-204.57C132.96,-193.45 143.27,-176.88 151.5,-162 164.36,-138.75 177.85,-110.43 184.42,-96.35"/>
<polygon fill="#63b8ff" stroke="#63b8ff" points="123.04,-208.99 123.84,-203.56 124.39,-206.88 125.74,-204.78 125.74,-204.78 125.74,-204.78 124.39,-206.88 127.63,-205.99 123.04,-208.99 123.04,-208.99"/>
</a>
</g>
</g>
<!-- Node6 -->
<g id="Node000006" class="node">
<title>Node6</title>
<g id="a_Node000006"><a xlink:href="../../d5/d53/classFlowWidget.html" target="_top" xlink:title=" ">
<polygon fill="white" stroke="#666666" points="273.5,-162 199.5,-162 199.5,-143 273.5,-143 273.5,-162"/>
<text text-anchor="middle" x="236.5" y="-150" font-family="Helvetica,sans-Serif" font-size="10.00">FlowWidget</text>
</a>
</g>
</g>
<!-- Node3&#45;&gt;Node6 -->
<g id="edge8_Node000006_Node000003" class="edge">
<title>Node3&#45;&gt;Node6</title>
<g id="a_edge8_Node000006_Node000003"><a xlink:title=" ">
<path fill="none" stroke="#63b8ff" d="M149,-207.19C160.76,-202.83 174.04,-197.3 185.5,-191 200.72,-182.63 216.58,-170.31 226.49,-162.1"/>
<polygon fill="#63b8ff" stroke="#63b8ff" points="144.06,-208.98 147.99,-205.16 146.41,-208.13 148.76,-207.28 148.76,-207.28 148.76,-207.28 146.41,-208.13 149.52,-209.39 144.06,-208.98 144.06,-208.98"/>
</a>
</g>
</g>
<!-- Node4&#45;&gt;Node2 -->
<g id="edge3_Node000002_Node000004" class="edge">
<title>Node4&#45;&gt;Node2</title>
<g id="a_edge3_Node000002_Node000004"><a xlink:title=" ">
<path fill="none" stroke="#9a32cd" stroke-dasharray="5,2" d="M78.03,-137.89C73.93,-125.37 67.95,-107.16 64.42,-96.41"/>
<polygon fill="#9a32cd" stroke="#9a32cd" points="79.67,-142.87 75.97,-138.82 78.89,-140.49 78.11,-138.12 78.11,-138.12 78.11,-138.12 78.89,-140.49 80.25,-137.42 79.67,-142.87 79.67,-142.87"/>
</a>
</g>
<text text-anchor="middle" x="90.5" y="-117" font-family="Helvetica,sans-Serif" font-size="10.00" fill="grey"> popup</text>
</g>
<!-- Node5&#45;&gt;Node1 -->
<g id="edge5_Node000001_Node000005" class="edge">
<title>Node5&#45;&gt;Node1</title>
<g id="a_edge5_Node000001_Node000005"><a xlink:title=" ">
<path fill="none" stroke="#9a32cd" stroke-dasharray="5,2" d="M177.12,-73.15C166.02,-61.09 149.15,-42.77 137.52,-30.14"/>
<polygon fill="#9a32cd" stroke="#9a32cd" points="180.65,-76.98 175.61,-74.82 178.96,-75.14 177.27,-73.3 177.27,-73.3 177.27,-73.3 178.96,-75.14 178.92,-71.78 180.65,-76.98 180.65,-76.98"/>
</a>
</g>
<text text-anchor="middle" x="202" y="-51" font-family="Helvetica,sans-Serif" font-size="10.00" fill="grey"> cardSizeWidget</text>
</g>
<!-- Node6&#45;&gt;Node5 -->
<g id="edge7_Node000005_Node000006" class="edge">
<title>Node6&#45;&gt;Node5</title>
<g id="a_edge7_Node000005_Node000006"><a xlink:title=" ">
<path fill="none" stroke="#9a32cd" stroke-dasharray="5,2" d="M226.79,-138.55C217.39,-126.02 203.39,-107.35 195.18,-96.41"/>
<polygon fill="#9a32cd" stroke="#9a32cd" points="230.03,-142.87 225.23,-140.22 228.53,-140.87 227.03,-138.87 227.03,-138.87 227.03,-138.87 228.53,-140.87 228.83,-137.52 230.03,-142.87 230.03,-142.87"/>
</a>
</g>
<text text-anchor="middle" x="244.5" y="-117" font-family="Helvetica,sans-Serif" font-size="10.00" fill="grey"> flowWidget</text>
</g>
<!-- Node7 -->
<g id="Node000007" class="node">
<title>Node7</title>
<g id="a_Node000007"><a xlink:href="../../de/d8b/classFlowLayout.html" target="_top" xlink:title=" ">
<polygon fill="white" stroke="#666666" points="273,-228 200,-228 200,-209 273,-209 273,-228"/>
<text text-anchor="middle" x="236.5" y="-216" font-family="Helvetica,sans-Serif" font-size="10.00">FlowLayout</text>
</a>
</g>
</g>
<!-- Node7&#45;&gt;Node6 -->
<g id="edge9_Node000006_Node000007" class="edge">
<title>Node7&#45;&gt;Node6</title>
<g id="a_edge9_Node000006_Node000007"><a xlink:title=" ">
<path fill="none" stroke="#9a32cd" stroke-dasharray="5,2" d="M236.5,-203.55C236.5,-191.04 236.5,-173.07 236.5,-162.41"/>
<polygon fill="#9a32cd" stroke="#9a32cd" points="236.5,-208.87 234.25,-203.87 236.5,-206.37 236.5,-203.87 236.5,-203.87 236.5,-203.87 236.5,-206.37 238.75,-203.87 236.5,-208.87 236.5,-208.87"/>
</a>
</g>
<text text-anchor="middle" x="265" y="-183" font-family="Helvetica,sans-Serif" font-size="10.00" fill="grey"> flowLayout</text>
</g>
<!-- Node8 -->
<g id="Node000008" class="node">
<title>Node8</title>
<g id="a_Node000008"><a xlink:title=" ">
<polygon fill="white" stroke="#666666" points="265,-284 208,-284 208,-265 265,-265 265,-284"/>
<text text-anchor="middle" x="236.5" y="-272" font-family="Helvetica,sans-Serif" font-size="10.00">QLayout</text>
</a>
</g>
</g>
<!-- Node8&#45;&gt;Node7 -->
<g id="edge10_Node000007_Node000008" class="edge">
<title>Node8&#45;&gt;Node7</title>
<g id="a_edge10_Node000007_Node000008"><a xlink:title=" ">
<path fill="none" stroke="#63b8ff" d="M236.5,-259.46C236.5,-249.59 236.5,-236.69 236.5,-228.25"/>
<polygon fill="#63b8ff" stroke="#63b8ff" points="236.5,-264.58 234.25,-259.58 236.5,-262.08 236.5,-259.58 236.5,-259.58 236.5,-259.58 236.5,-262.08 238.75,-259.58 236.5,-264.58 236.5,-264.58"/>
</a>
</g>
</g>
</g>
</svg>
</svg>

<style type='text/css'>
<![CDATA[
[data-mouse-over-selected='false'] { opacity: 0.7; }
[data-mouse-over-selected='true']  { opacity: 1.0; }
]]>
</style>
<script type="application/ecmascript"><![CDATA[
document.addEventListener('DOMContentLoaded', (event) => {
  highlightEdges();
  highlightAdjacentNodes();
});
]]></script>
</svg>
