<?xml version="1.0" encoding="UTF-8" standalone="no"?>
<!DOCTYPE svg PUBLIC "-//W3C//DTD SVG 1.1//EN"
 "http://www.w3.org/Graphics/SVG/1.1/DTD/svg11.dtd">
<!-- Generated by graphviz version 2.43.0 (0)
 -->
<!-- Title: peg::FirstSet Pages: 1 -->
<svg width="184pt" height="171pt"
 viewBox="0.00 0.00 183.50 171.00" xmlns="http://www.w3.org/2000/svg" xmlns:xlink="http://www.w3.org/1999/xlink">

<svg id="main" version="1.1" xmlns="http://www.w3.org/2000/svg" xmlns:xlink="http://www.w3.org/1999/xlink" xml:space="preserve">

<style type="text/css"><![CDATA[
.node, .edge {opacity: 0.7;}
.node.selected, .edge.selected {opacity: 1;}
.edge:hover path { stroke: red; }
.edge:hover polygon { stroke: red; fill: red; }
]]></style>
<script type="application/ecmascript" xlink:href="../../svg.min.js"/>
<svg id="graph" class="graph">
<g id="graph0" class="graph" transform="scale(1 1) rotate(0) translate(4 167)">
<title>peg::FirstSet</title>
<!-- Node1 -->
<g id="Node000001" class="node">
<title>Node1</title>
<g id="a_Node000001"><a xlink:title=" ">
<polygon fill="#999999" stroke="#666666" points="129.5,-19 52.5,-19 52.5,0 129.5,0 129.5,-19"/>
<text text-anchor="middle" x="91" y="-7" font-family="Helvetica,sans-Serif" font-size="10.00">peg::FirstSet</text>
</a>
</g>
</g>
<!-- Node2 -->
<g id="Node000002" class="node">
<title>Node2</title>
<g id="a_Node000002"><a xlink:href="../../d8/d94/classpeg_1_1Definition.html" target="_top" xlink:title=" ">
<polygon fill="white" stroke="#666666" points="135,-91 47,-91 47,-72 135,-72 135,-91"/>
<text text-anchor="middle" x="91" y="-79" font-family="Helvetica,sans-Serif" font-size="10.00">peg::Definition</text>
</a>
</g>
</g>
<!-- Node2&#45;&gt;Node1 -->
<g id="edge1_Node000001_Node000002" class="edge">
<title>Node2&#45;&gt;Node1</title>
<g id="a_edge1_Node000001_Node000002"><a xlink:title=" ">
<path fill="none" stroke="#9a32cd" stroke-dasharray="5,2" d="M91,-66.72C91,-52.59 91,-31.05 91,-19.15"/>
<polygon fill="#9a32cd" stroke="#9a32cd" points="91,-71.92 88.75,-66.92 91,-69.42 91,-66.92 91,-66.92 91,-66.92 91,-69.42 93.25,-66.92 91,-71.92 91,-71.92"/>
</a>
</g>
<text text-anchor="start" x="94.5" y="-42.5" font-family="Helvetica,sans-Serif" font-size="10.00" fill="grey">first_rule</text>
</g>
<!-- Node3 -->
<g id="Node000003" class="node">
<title>Node3</title>
<g id="a_Node000003"><a xlink:href="../../da/da7/classpeg_1_1Predicate.html" target="_top" xlink:title=" ">
<polygon fill="white" stroke="#666666" points="86,-163 0,-163 0,-144 86,-144 86,-163"/>
<text text-anchor="middle" x="43" y="-151" font-family="Helvetica,sans-Serif" font-size="10.00">peg::Predicate</text>
</a>
</g>
</g>
<!-- Node3&#45;&gt;Node2 -->
<g id="edge2_Node000002_Node000003" class="edge">
<title>Node3&#45;&gt;Node2</title>
<g id="a_edge2_Node000002_Node000003"><a xlink:title=" ">
<path fill="none" stroke="#9a32cd" stroke-dasharray="5,2" d="M48.9,-139.15C53.11,-130.25 59.2,-118.49 66,-109 70.57,-102.62 76.57,-96.21 81.56,-91.28"/>
<polygon fill="#9a32cd" stroke="#9a32cd" points="46.77,-143.76 46.82,-138.28 47.82,-141.49 48.87,-139.23 48.87,-139.23 48.87,-139.23 47.82,-141.49 50.91,-140.17 46.77,-143.76 46.77,-143.76"/>
</a>
</g>
<text text-anchor="start" x="69" y="-114.5" font-family="Helvetica,sans-Serif" font-size="10.00" fill="grey">predicate</text>
</g>
<!-- Node4 -->
<g id="Node000004" class="node">
<title>Node4</title>
<g id="a_Node000004"><a xlink:href="../../d9/da7/classpeg_1_1Action.html" target="_top" xlink:title=" ">
<polygon fill="white" stroke="#666666" points="175.5,-163 104.5,-163 104.5,-144 175.5,-144 175.5,-163"/>
<text text-anchor="middle" x="140" y="-151" font-family="Helvetica,sans-Serif" font-size="10.00">peg::Action</text>
</a>
</g>
</g>
<!-- Node4&#45;&gt;Node2 -->
<g id="edge3_Node000002_Node000004" class="edge">
<title>Node4&#45;&gt;Node2</title>
<g id="a_edge3_Node000002_Node000004"><a xlink:title=" ">
<path fill="none" stroke="#9a32cd" stroke-dasharray="5,2" d="M134.57,-139.05C130.64,-130.1 124.83,-118.34 118,-109 113.19,-102.43 106.71,-96 101.3,-91.13"/>
<polygon fill="#9a32cd" stroke="#9a32cd" points="136.55,-143.69 132.52,-139.98 135.57,-141.39 134.59,-139.09 134.59,-139.09 134.59,-139.09 135.57,-141.39 136.66,-138.21 136.55,-143.69 136.55,-143.69"/>
</a>
</g>
<text text-anchor="start" x="130.5" y="-114.5" font-family="Helvetica,sans-Serif" font-size="10.00" fill="grey">action</text>
</g>
</g>
</svg>
</svg>

<style type='text/css'>
<![CDATA[
[data-mouse-over-selected='false'] { opacity: 0.7; }
[data-mouse-over-selected='true']  { opacity: 1.0; }
]]>
</style>
<script type="application/ecmascript"><![CDATA[
document.addEventListener('DOMContentLoaded', (event) => {
  highlightEdges();
  highlightAdjacentNodes();
});
]]></script>
</svg>
