<?xml version="1.0" encoding="UTF-8" standalone="no"?>
<!DOCTYPE svg PUBLIC "-//W3C//DTD SVG 1.1//EN"
 "http://www.w3.org/Graphics/SVG/1.1/DTD/svg11.dtd">
<!-- Generated by graphviz version 2.43.0 (0)
 -->
<!-- Title: DlgConnect::preRebuildComboBoxList Pages: 1 -->
<!--zoomable 306 -->

<svg id="main" version="1.1" xmlns="http://www.w3.org/2000/svg" xmlns:xlink="http://www.w3.org/1999/xlink" xml:space="preserve" onload="init(evt)">
<style type="text/css"><![CDATA[
.node, .edge {opacity: 0.7;}
.node.selected, .edge.selected {opacity: 1;}
.edge:hover path { stroke: red; }
.edge:hover polygon { stroke: red; fill: red; }
]]></style>

<defs>
  <circle id="rim" cx="0" cy="0" r="7"/>
  <circle id="rim2" cx="0" cy="0" r="3.5"/>
  <g id="zoomPlus">
    <use xlink:href="#rim" fill="#404040"><set attributeName="fill" to="#808080" begin="zoomplus.mouseover" end="zoomplus.mouseout"/></use>
    <path d="M-4,0h8M0,-4v8" fill="none" stroke="white" stroke-width="1.5" pointer-events="none"/>
  </g>
  <g id="zoomMin">
    <use xlink:href="#rim" fill="#404040"><set attributeName="fill" to="#808080" begin="zoomminus.mouseover" end="zoomminus.mouseout"/></use>
    <path d="M-4,0h8" fill="none" stroke="white" stroke-width="1.5" pointer-events="none"/>
  </g>
  <g id="arrowUp" transform="translate(30 24)">
    <use xlink:href="#rim"/>
    <path pointer-events="none" fill="none" stroke="white" stroke-width="1.5" d="M0,-3.0v7 M-2.5,-0.5L0,-3.0L2.5,-0.5"/>
  </g>
  <g id="arrowRight" transform="rotate(90) translate(36 -43)">
    <use xlink:href="#rim"/>
    <path pointer-events="none" fill="none" stroke="white" stroke-width="1.5" d="M0,-3.0v7 M-2.5,-0.5L0,-3.0L2.5,-0.5"/>
  </g>
  <g id="arrowDown" transform="rotate(180) translate(-30 -48)">
    <use xlink:href="#rim"/>
    <path pointer-events="none" fill="none" stroke="white" stroke-width="1.5" d="M0,-3.0v7 M-2.5,-0.5L0,-3.0L2.5,-0.5"/>
  </g>
  <g id="arrowLeft" transform="rotate(270) translate(-36 17)">
    <use xlink:href="#rim"/>
    <path pointer-events="none" fill="none" stroke="white" stroke-width="1.5" d="M0,-3.0v7 M-2.5,-0.5L0,-3.0L2.5,-0.5"/>
  </g>
  <g id="resetDef">
    <use xlink:href="#rim2" fill="#404040"><set attributeName="fill" to="#808080" begin="reset.mouseover" end="reset.mouseout"/></use>
  </g>
</defs>
<script type="application/ecmascript">
var viewWidth = 1589;
var viewHeight = 306;
var sectionId = 'dynsection-18';
</script>
<script type="application/ecmascript" xlink:href="../../svg.min.js"/>
<svg id="graph" class="graph">
<g id="viewport">
<title>DlgConnect::preRebuildComboBoxList</title>
<!-- Node1 -->
<g id="Node000001" class="node">
<title>Node1</title>
<g id="a_Node000001"><a xlink:title=" ">
<polygon fill="#999999" stroke="#666666" points="166,-202.5 0,-202.5 0,-172.5 166,-172.5 166,-202.5"/>
<text text-anchor="start" x="8" y="-190.5" font-family="Helvetica,sans-Serif" font-size="10.00">DlgConnect::preRebuildCombo</text>
<text text-anchor="middle" x="83" y="-179.5" font-family="Helvetica,sans-Serif" font-size="10.00">BoxList</text>
</a>
</g>
</g>
<!-- Node2 -->
<g id="Node000002" class="node">
<title>Node2</title>
<g id="a_Node000002"><a xlink:href="../../d3/da4/classDlgConnect.html#a11f56b6f056bf033f5c971a0e9dd10dd" target="_top" xlink:title=" ">
<polygon fill="white" stroke="#666666" points="375,-159.5 202,-159.5 202,-129.5 375,-129.5 375,-159.5"/>
<text text-anchor="start" x="210" y="-147.5" font-family="Helvetica,sans-Serif" font-size="10.00">DlgConnect::downloadThePublic</text>
<text text-anchor="middle" x="288.5" y="-136.5" font-family="Helvetica,sans-Serif" font-size="10.00">Servers</text>
</a>
</g>
</g>
<!-- Node1&#45;&gt;Node2 -->
<g id="edge1_Node000001_Node000002" class="edge">
<title>Node1&#45;&gt;Node2</title>
<g id="a_edge1_Node000001_Node000002"><a xlink:title=" ">
<path fill="none" stroke="#63b8ff" d="M155.17,-172.46C173.3,-168.63 192.85,-164.5 211.22,-160.62"/>
<polygon fill="#63b8ff" stroke="#63b8ff" points="216.37,-159.53 211.94,-162.77 213.92,-160.05 211.47,-160.56 211.47,-160.56 211.47,-160.56 213.92,-160.05 211.01,-158.36 216.37,-159.53 216.37,-159.53"/>
</a>
</g>
</g>
<!-- Node5 -->
<g id="Node000005" class="node">
<title>Node5</title>
<g id="a_Node000005"><a xlink:href="../../d5/d88/classUserConnection__Information.html#a2c9912f6ee5d17ae233d9ea39174849e" target="_top" xlink:title=" ">
<polygon fill="white" stroke="#666666" points="964,-202.5 808,-202.5 808,-172.5 964,-172.5 964,-202.5"/>
<text text-anchor="start" x="816" y="-190.5" font-family="Helvetica,sans-Serif" font-size="10.00">UserConnection_Information</text>
<text text-anchor="middle" x="886" y="-179.5" font-family="Helvetica,sans-Serif" font-size="10.00">::getServerInfo</text>
</a>
</g>
</g>
<!-- Node1&#45;&gt;Node5 -->
<g id="edge26_Node000001_Node000005" class="edge">
<title>Node1&#45;&gt;Node5</title>
<g id="a_edge26_Node000001_Node000005"><a xlink:title=" ">
<path fill="none" stroke="#63b8ff" d="M166.33,-187.5C320,-187.5 648.83,-187.5 802.58,-187.5"/>
<polygon fill="#63b8ff" stroke="#63b8ff" points="807.97,-187.5 802.97,-189.75 805.47,-187.5 802.97,-187.5 802.97,-187.5 802.97,-187.5 805.47,-187.5 802.97,-185.25 807.97,-187.5 807.97,-187.5"/>
</a>
</g>
</g>
<!-- Node18 -->
<g id="Node000018" class="node">
<title>Node18</title>
<g id="a_Node000018"><a xlink:href="../../d3/da4/classDlgConnect.html#aab8e3710aab432f8ce02a91f32872077" target="_top" xlink:title=" ">
<polygon fill="white" stroke="#666666" points="749,-245.5 602,-245.5 602,-215.5 749,-215.5 749,-245.5"/>
<text text-anchor="start" x="610" y="-233.5" font-family="Helvetica,sans-Serif" font-size="10.00">DlgConnect::rebuildCombo</text>
<text text-anchor="middle" x="675.5" y="-222.5" font-family="Helvetica,sans-Serif" font-size="10.00">BoxList</text>
</a>
</g>
</g>
<!-- Node1&#45;&gt;Node18 -->
<g id="edge27_Node000001_Node000018" class="edge">
<title>Node1&#45;&gt;Node18</title>
<g id="a_edge27_Node000001_Node000018"><a xlink:title=" ">
<path fill="none" stroke="#63b8ff" d="M166.14,-197.85C178.16,-199.19 190.39,-200.46 202,-201.5 340.78,-213.98 502.99,-222.65 596.71,-227.08"/>
<polygon fill="#63b8ff" stroke="#63b8ff" points="601.96,-227.33 596.86,-229.34 599.46,-227.21 596.96,-227.09 596.96,-227.09 596.96,-227.09 599.46,-227.21 597.07,-224.85 601.96,-227.33 601.96,-227.33"/>
</a>
</g>
</g>
<!-- Node3 -->
<g id="Node000003" class="node">
<title>Node3</title>
<g id="a_Node000003"><a xlink:href="../../d9/ddd/classHandlePublicServers.html#a43ea29c55457e070322ef69f4caa2344" target="_top" xlink:title=" ">
<polygon fill="white" stroke="#666666" points="547,-159.5 411,-159.5 411,-129.5 547,-129.5 547,-159.5"/>
<text text-anchor="start" x="419" y="-147.5" font-family="Helvetica,sans-Serif" font-size="10.00">HandlePublicServers</text>
<text text-anchor="middle" x="479" y="-136.5" font-family="Helvetica,sans-Serif" font-size="10.00">::downloadPublicServers</text>
</a>
</g>
</g>
<!-- Node2&#45;&gt;Node3 -->
<g id="edge2_Node000002_Node000003" class="edge">
<title>Node2&#45;&gt;Node3</title>
<g id="a_edge2_Node000002_Node000003"><a xlink:title=" ">
<path fill="none" stroke="#63b8ff" d="M375.2,-144.5C385.39,-144.5 395.71,-144.5 405.68,-144.5"/>
<polygon fill="#63b8ff" stroke="#63b8ff" points="410.86,-144.5 405.86,-146.75 408.36,-144.5 405.86,-144.5 405.86,-144.5 405.86,-144.5 408.36,-144.5 405.86,-142.25 410.86,-144.5 410.86,-144.5"/>
</a>
</g>
</g>
<!-- Node4 -->
<g id="Node000004" class="node">
<title>Node4</title>
<g id="a_Node000004"><a xlink:href="../../d9/ddd/classHandlePublicServers.html#a2d1d81491ae18d39cc12578b4ca24a2d" target="_top" xlink:title=" ">
<polygon fill="white" stroke="#666666" points="768,-154.5 583,-154.5 583,-124.5 768,-124.5 768,-154.5"/>
<text text-anchor="start" x="591" y="-142.5" font-family="Helvetica,sans-Serif" font-size="10.00">HandlePublicServers</text>
<text text-anchor="middle" x="675.5" y="-131.5" font-family="Helvetica,sans-Serif" font-size="10.00">::actFinishParsingDownloadedData</text>
</a>
</g>
</g>
<!-- Node3&#45;&gt;Node4 -->
<g id="edge3_Node000003_Node000004" class="edge">
<title>Node3&#45;&gt;Node4</title>
<g id="a_edge3_Node000003_Node000004"><a xlink:title=" ">
<path fill="none" stroke="#63b8ff" d="M547.21,-142.77C557.12,-142.52 567.49,-142.25 577.85,-141.98"/>
<polygon fill="#63b8ff" stroke="#63b8ff" points="582.93,-141.85 577.99,-144.23 580.43,-141.92 577.93,-141.98 577.93,-141.98 577.93,-141.98 580.43,-141.92 577.87,-139.73 582.93,-141.85 582.93,-141.85"/>
</a>
</g>
</g>
<!-- Node4&#45;&gt;Node5 -->
<g id="edge4_Node000004_Node000005" class="edge">
<title>Node4&#45;&gt;Node5</title>
<g id="a_edge4_Node000004_Node000005"><a xlink:title=" ">
<path fill="none" stroke="#63b8ff" d="M741.9,-154.56C765.09,-159.89 791.27,-165.92 814.85,-171.35"/>
<polygon fill="#63b8ff" stroke="#63b8ff" points="819.83,-172.5 814.46,-173.57 817.4,-171.94 814.96,-171.38 814.96,-171.38 814.96,-171.38 817.4,-171.94 815.47,-169.18 819.83,-172.5 819.83,-172.5"/>
</a>
</g>
</g>
<!-- Node9 -->
<g id="Node000009" class="node">
<title>Node9</title>
<g id="a_Node000009"><a xlink:href="../../d9/ddd/classHandlePublicServers.html#a809981a002532cff4a4145442611f96d" target="_top" xlink:title=" ">
<polygon fill="white" stroke="#666666" points="968,-154 804,-154 804,-113 968,-113 968,-154"/>
<text text-anchor="start" x="812" y="-142" font-family="Helvetica,sans-Serif" font-size="10.00">HandlePublicServers</text>
<text text-anchor="start" x="812" y="-131" font-family="Helvetica,sans-Serif" font-size="10.00">::sigPublicServersDownloaded</text>
<text text-anchor="middle" x="886" y="-120" font-family="Helvetica,sans-Serif" font-size="10.00">Unsuccessfully</text>
</a>
</g>
</g>
<!-- Node4&#45;&gt;Node9 -->
<g id="edge8_Node000004_Node000009" class="edge">
<title>Node4&#45;&gt;Node9</title>
<g id="a_edge8_Node000004_Node000009"><a xlink:title=" ">
<path fill="none" stroke="#63b8ff" d="M768.25,-136.86C778.3,-136.57 788.51,-136.28 798.49,-135.99"/>
<polygon fill="#63b8ff" stroke="#63b8ff" points="803.69,-135.84 798.75,-138.23 801.19,-135.91 798.69,-135.98 798.69,-135.98 798.69,-135.98 801.19,-135.91 798.62,-133.73 803.69,-135.84 803.69,-135.84"/>
</a>
</g>
</g>
<!-- Node10 -->
<g id="Node000010" class="node">
<title>Node10</title>
<g id="a_Node000010"><a xlink:href="../../d9/ddd/classHandlePublicServers.html#a553740ac05a9956436aff0c1f0eb4f34" target="_top" xlink:title=" ">
<polygon fill="white" stroke="#666666" points="956.5,-94.5 815.5,-94.5 815.5,-64.5 956.5,-64.5 956.5,-94.5"/>
<text text-anchor="start" x="823.5" y="-82.5" font-family="Helvetica,sans-Serif" font-size="10.00">HandlePublicServers</text>
<text text-anchor="middle" x="886" y="-71.5" font-family="Helvetica,sans-Serif" font-size="10.00">::updateServerINISettings</text>
</a>
</g>
</g>
<!-- Node4&#45;&gt;Node10 -->
<g id="edge9_Node000004_Node000010" class="edge">
<title>Node4&#45;&gt;Node10</title>
<g id="a_edge9_Node000004_Node000010"><a xlink:title=" ">
<path fill="none" stroke="#63b8ff" d="M728.84,-124.44C758.96,-115.77 796.83,-104.87 827.74,-95.98"/>
<polygon fill="#63b8ff" stroke="#63b8ff" points="832.63,-94.57 828.45,-98.11 830.23,-95.26 827.83,-95.95 827.83,-95.95 827.83,-95.95 830.23,-95.26 827.21,-93.79 832.63,-94.57 832.63,-94.57"/>
</a>
</g>
</g>
<!-- Node6 -->
<g id="Node000006" class="node">
<title>Node6</title>
<g id="a_Node000006"><a xlink:href="../../d1/dea/classSettingsManager.html#a5397c727f94408c7d66f3f1377b5ed76" target="_top" xlink:title=" ">
<polygon fill="white" stroke="#666666" points="1573.5,-164 1425.5,-164 1425.5,-145 1573.5,-145 1573.5,-164"/>
<text text-anchor="middle" x="1499.5" y="-152" font-family="Helvetica,sans-Serif" font-size="10.00">SettingsManager::getValue</text>
</a>
</g>
</g>
<!-- Node5&#45;&gt;Node6 -->
<g id="edge5_Node000005_Node000006" class="edge">
<title>Node5&#45;&gt;Node6</title>
<g id="a_edge5_Node000005_Node000006"><a xlink:title=" ">
<path fill="none" stroke="#63b8ff" d="M964.16,-199.71C1062.26,-212.91 1236.39,-228.57 1382,-200.5 1416.09,-193.93 1452.97,-177.66 1475.9,-166.35"/>
<polygon fill="#63b8ff" stroke="#63b8ff" points="1480.57,-164.02 1477.11,-168.26 1478.34,-165.13 1476.1,-166.25 1476.1,-166.25 1476.1,-166.25 1478.34,-165.13 1475.1,-164.24 1480.57,-164.02 1480.57,-164.02"/>
</a>
</g>
</g>
<!-- Node7 -->
<g id="Node000007" class="node">
<title>Node7</title>
<g id="a_Node000007"><a xlink:href="../../d5/d88/classSettingsCache.html#adfa7f9f975919981b992db1fca9e4957" target="_top" xlink:title=" ">
<polygon fill="white" stroke="#666666" points="1156,-192 1022,-192 1022,-173 1156,-173 1156,-192"/>
<text text-anchor="middle" x="1089" y="-180" font-family="Helvetica,sans-Serif" font-size="10.00">SettingsCache::instance</text>
</a>
</g>
</g>
<!-- Node5&#45;&gt;Node7 -->
<g id="edge6_Node000005_Node000007" class="edge">
<title>Node5&#45;&gt;Node7</title>
<g id="a_edge6_Node000005_Node000007"><a xlink:title=" ">
<path fill="none" stroke="#63b8ff" d="M964.14,-185.58C981.39,-185.15 999.62,-184.7 1016.63,-184.28"/>
<polygon fill="#63b8ff" stroke="#63b8ff" points="1021.87,-184.14 1016.93,-186.52 1019.37,-184.21 1016.87,-184.27 1016.87,-184.27 1016.87,-184.27 1019.37,-184.21 1016.82,-182.02 1021.87,-184.14 1021.87,-184.14"/>
</a>
</g>
</g>
<!-- Node8 -->
<g id="Node000008" class="node">
<title>Node8</title>
<g id="a_Node000008"><a xlink:href="../../d5/d88/classSettingsCache.html#a7037026b8832432a3a208fd25ea9156a" target="_top" xlink:title=" ">
<polygon fill="white" stroke="#666666" points="1153,-268 1025,-268 1025,-249 1153,-249 1153,-268"/>
<text text-anchor="middle" x="1089" y="-256" font-family="Helvetica,sans-Serif" font-size="10.00">SettingsCache::servers</text>
</a>
</g>
</g>
<!-- Node5&#45;&gt;Node8 -->
<g id="edge7_Node000005_Node000008" class="edge">
<title>Node5&#45;&gt;Node8</title>
<g id="a_edge7_Node000005_Node000008"><a xlink:title=" ">
<path fill="none" stroke="#63b8ff" d="M921.71,-202.55C944.81,-212.28 975.94,-224.88 1004,-234.5 1017.67,-239.19 1032.81,-243.71 1046.42,-247.54"/>
<polygon fill="#63b8ff" stroke="#63b8ff" points="1051.36,-248.92 1045.94,-249.74 1048.95,-248.25 1046.54,-247.58 1046.54,-247.58 1046.54,-247.58 1048.95,-248.25 1047.15,-245.41 1051.36,-248.92 1051.36,-248.92"/>
</a>
</g>
</g>
<!-- Node10&#45;&gt;Node7 -->
<g id="edge16_Node000010_Node000007" class="edge">
<title>Node10&#45;&gt;Node7</title>
<g id="a_edge16_Node000010_Node000007"><a xlink:title=" ">
<path fill="none" stroke="#63b8ff" d="M953.59,-94.64C958.71,-97.16 963.59,-100.09 968,-103.5 992.58,-122.55 978.81,-145.27 1004,-163.5 1008.09,-166.46 1012.56,-168.97 1017.24,-171.09"/>
<polygon fill="#63b8ff" stroke="#63b8ff" points="1021.98,-173.09 1016.5,-173.22 1019.68,-172.12 1017.38,-171.15 1017.38,-171.15 1017.38,-171.15 1019.68,-172.12 1018.25,-169.08 1021.98,-173.09 1021.98,-173.09"/>
</a>
</g>
</g>
<!-- Node10&#45;&gt;Node8 -->
<g id="edge21_Node000010_Node000008" class="edge">
<title>Node10&#45;&gt;Node8</title>
<g id="a_edge21_Node000010_Node000008"><a xlink:title=" ">
<path fill="none" stroke="#63b8ff" d="M955.89,-94.65C960.26,-97.16 964.36,-100.09 968,-103.5 1001.84,-135.24 975.43,-164.94 1004,-201.5 1019.51,-221.34 1043.87,-236.79 1062.38,-246.57"/>
<polygon fill="#63b8ff" stroke="#63b8ff" points="1066.95,-248.94 1061.47,-248.64 1064.73,-247.79 1062.51,-246.64 1062.51,-246.64 1062.51,-246.64 1064.73,-247.79 1063.54,-244.64 1066.95,-248.94 1066.95,-248.94"/>
</a>
</g>
</g>
<!-- Node11 -->
<g id="Node000011" class="node">
<title>Node11</title>
<g id="a_Node000011"><a xlink:href="../../df/db1/classServersSettings.html#aa948b173276281858d742e57075cb6ed" target="_top" xlink:title=" ">
<polygon fill="white" stroke="#666666" points="1174,-57 1004,-57 1004,-38 1174,-38 1174,-57"/>
<text text-anchor="middle" x="1089" y="-45" font-family="Helvetica,sans-Serif" font-size="10.00">ServersSettings::addNewServer</text>
</a>
</g>
</g>
<!-- Node10&#45;&gt;Node11 -->
<g id="edge10_Node000010_Node000011" class="edge">
<title>Node10&#45;&gt;Node11</title>
<g id="a_edge10_Node000010_Node000011"><a xlink:title=" ">
<path fill="none" stroke="#63b8ff" d="M956.74,-68.4C978.25,-64.97 1001.86,-61.21 1023.04,-57.84"/>
<polygon fill="#63b8ff" stroke="#63b8ff" points="1028.09,-57.04 1023.5,-60.05 1025.62,-57.43 1023.15,-57.82 1023.15,-57.82 1023.15,-57.82 1025.62,-57.43 1022.79,-55.6 1028.09,-57.04 1028.09,-57.04"/>
</a>
</g>
</g>
<!-- Node14 -->
<g id="Node000014" class="node">
<title>Node14</title>
<g id="a_Node000014"><a xlink:href="../../df/db1/classServersSettings.html#aed70ab0f2d55edbee4303021a3a7663f" target="_top" xlink:title=" ">
<polygon fill="white" stroke="#666666" points="1380,-19 1212,-19 1212,0 1380,0 1380,-19"/>
<text text-anchor="middle" x="1296" y="-7" font-family="Helvetica,sans-Serif" font-size="10.00">ServersSettings::removeServer</text>
</a>
</g>
</g>
<!-- Node10&#45;&gt;Node14 -->
<g id="edge17_Node000010_Node000014" class="edge">
<title>Node10&#45;&gt;Node14</title>
<g id="a_edge17_Node000010_Node000014"><a xlink:title=" ">
<path fill="none" stroke="#63b8ff" d="M914.42,-64.3C937.54,-52.29 971.92,-36.29 1004,-28.5 1070.62,-12.33 1148.18,-7.95 1206.47,-7.41"/>
<polygon fill="#63b8ff" stroke="#63b8ff" points="1211.7,-7.37 1206.71,-9.66 1209.2,-7.39 1206.7,-7.41 1206.7,-7.41 1206.7,-7.41 1209.2,-7.39 1206.68,-5.16 1211.7,-7.37 1211.7,-7.37"/>
</a>
</g>
</g>
<!-- Node16 -->
<g id="Node000016" class="node">
<title>Node16</title>
<g id="a_Node000016"><a xlink:href="../../d9/ddd/classHandlePublicServers.html#a266d26505f95320b001892739d02aed1" target="_top" xlink:title=" ">
<polygon fill="white" stroke="#666666" points="1171,-155 1007,-155 1007,-114 1171,-114 1171,-155"/>
<text text-anchor="start" x="1015" y="-143" font-family="Helvetica,sans-Serif" font-size="10.00">HandlePublicServers</text>
<text text-anchor="start" x="1015" y="-132" font-family="Helvetica,sans-Serif" font-size="10.00">::sigPublicServersDownloaded</text>
<text text-anchor="middle" x="1089" y="-121" font-family="Helvetica,sans-Serif" font-size="10.00">Successfully</text>
</a>
</g>
</g>
<!-- Node10&#45;&gt;Node16 -->
<g id="edge22_Node000010_Node000016" class="edge">
<title>Node10&#45;&gt;Node16</title>
<g id="a_edge22_Node000010_Node000016"><a xlink:title=" ">
<path fill="none" stroke="#63b8ff" d="M941.92,-94.53C962.24,-100.09 985.71,-106.51 1007.81,-112.56"/>
<polygon fill="#63b8ff" stroke="#63b8ff" points="1012.8,-113.92 1007.38,-114.77 1010.39,-113.26 1007.97,-112.6 1007.97,-112.6 1007.97,-112.6 1010.39,-113.26 1008.57,-110.43 1012.8,-113.92 1012.8,-113.92"/>
</a>
</g>
</g>
<!-- Node17 -->
<g id="Node000017" class="node">
<title>Node17</title>
<g id="a_Node000017"><a xlink:href="../../df/db1/classServersSettings.html#a04dd481e4840600a420c7423c4c2c148" target="_top" xlink:title=" ">
<polygon fill="white" stroke="#666666" points="1382,-191.5 1210,-191.5 1210,-161.5 1382,-161.5 1382,-191.5"/>
<text text-anchor="start" x="1218" y="-179.5" font-family="Helvetica,sans-Serif" font-size="10.00">ServersSettings::updateExisting</text>
<text text-anchor="middle" x="1296" y="-168.5" font-family="Helvetica,sans-Serif" font-size="10.00">ServerWithoutLoss</text>
</a>
</g>
</g>
<!-- Node10&#45;&gt;Node17 -->
<g id="edge23_Node000010_Node000017" class="edge">
<title>Node10&#45;&gt;Node17</title>
<g id="a_edge23_Node000010_Node000017"><a xlink:title=" ">
<path fill="none" stroke="#63b8ff" d="M956.63,-71.17C1017.46,-67.13 1106.36,-69.26 1174,-104.5 1196.1,-116.02 1189.45,-133.4 1210,-147.5 1216.71,-152.1 1224.21,-156.03 1231.91,-159.37"/>
<polygon fill="#63b8ff" stroke="#63b8ff" points="1236.72,-161.38 1231.24,-161.53 1234.41,-160.42 1232.11,-159.46 1232.11,-159.46 1232.11,-159.46 1234.41,-160.42 1232.97,-157.38 1236.72,-161.38 1236.72,-161.38"/>
</a>
</g>
</g>
<!-- Node11&#45;&gt;Node6 -->
<g id="edge11_Node000011_Node000006" class="edge">
<title>Node11&#45;&gt;Node6</title>
<g id="a_edge11_Node000011_Node000006"><a xlink:title=" ">
<path fill="none" stroke="#63b8ff" d="M1154.32,-57.02C1161.26,-59.49 1167.98,-62.6 1174,-66.5 1196.38,-81 1187.03,-100.96 1210,-114.5 1244.57,-134.87 1347.14,-145.36 1420.12,-150.39"/>
<polygon fill="#63b8ff" stroke="#63b8ff" points="1425.32,-150.74 1420.18,-152.64 1422.83,-150.57 1420.33,-150.4 1420.33,-150.4 1420.33,-150.4 1422.83,-150.57 1420.49,-148.15 1425.32,-150.74 1425.32,-150.74"/>
</a>
</g>
</g>
<!-- Node12 -->
<g id="Node000012" class="node">
<title>Node12</title>
<g id="a_Node000012"><a xlink:href="../../d1/dea/classSettingsManager.html#a969f11d98d00ca6d3d776d2175d31714" target="_top" xlink:title=" ">
<polygon fill="white" stroke="#666666" points="1573,-78 1426,-78 1426,-59 1573,-59 1573,-78"/>
<text text-anchor="middle" x="1499.5" y="-66" font-family="Helvetica,sans-Serif" font-size="10.00">SettingsManager::setValue</text>
</a>
</g>
</g>
<!-- Node11&#45;&gt;Node12 -->
<g id="edge12_Node000011_Node000012" class="edge">
<title>Node11&#45;&gt;Node12</title>
<g id="a_edge12_Node000011_Node000012"><a xlink:title=" ">
<path fill="none" stroke="#63b8ff" d="M1174.15,-51.83C1246.56,-55.55 1350.22,-60.88 1420.73,-64.5"/>
<polygon fill="#63b8ff" stroke="#63b8ff" points="1425.74,-64.76 1420.63,-66.75 1423.25,-64.63 1420.75,-64.5 1420.75,-64.5 1420.75,-64.5 1423.25,-64.63 1420.87,-62.26 1425.74,-64.76 1425.74,-64.76"/>
</a>
</g>
</g>
<!-- Node13 -->
<g id="Node000013" class="node">
<title>Node13</title>
<g id="a_Node000013"><a xlink:href="../../df/db1/classServersSettings.html#ac19792f9f126c3cd7bbd1ff14222843d" target="_top" xlink:title=" ">
<polygon fill="white" stroke="#666666" points="1382,-105.5 1210,-105.5 1210,-75.5 1382,-75.5 1382,-105.5"/>
<text text-anchor="start" x="1218" y="-93.5" font-family="Helvetica,sans-Serif" font-size="10.00">ServersSettings::updateExisting</text>
<text text-anchor="middle" x="1296" y="-82.5" font-family="Helvetica,sans-Serif" font-size="10.00">Server</text>
</a>
</g>
</g>
<!-- Node11&#45;&gt;Node13 -->
<g id="edge13_Node000011_Node000013" class="edge">
<title>Node11&#45;&gt;Node13</title>
<g id="a_edge13_Node000011_Node000013"><a xlink:title=" ">
<path fill="none" stroke="#63b8ff" d="M1135.5,-57.04C1159.82,-62.14 1190.41,-68.56 1218.29,-74.41"/>
<polygon fill="#63b8ff" stroke="#63b8ff" points="1223.46,-75.49 1218.1,-76.67 1221.01,-74.98 1218.56,-74.47 1218.56,-74.47 1218.56,-74.47 1221.01,-74.98 1219.03,-72.27 1223.46,-75.49 1223.46,-75.49"/>
</a>
</g>
</g>
<!-- Node13&#45;&gt;Node6 -->
<g id="edge14_Node000013_Node000006" class="edge">
<title>Node13&#45;&gt;Node6</title>
<g id="a_edge14_Node000013_Node000006"><a xlink:title=" ">
<path fill="none" stroke="#63b8ff" d="M1344.24,-105.51C1380.68,-117.08 1430.27,-132.83 1463.28,-143.31"/>
<polygon fill="#63b8ff" stroke="#63b8ff" points="1468.43,-144.95 1462.99,-145.58 1466.05,-144.19 1463.67,-143.44 1463.67,-143.44 1463.67,-143.44 1466.05,-144.19 1464.35,-141.29 1468.43,-144.95 1468.43,-144.95"/>
</a>
</g>
</g>
<!-- Node13&#45;&gt;Node12 -->
<g id="edge15_Node000013_Node000012" class="edge">
<title>Node13&#45;&gt;Node12</title>
<g id="a_edge15_Node000013_Node000012"><a xlink:title=" ">
<path fill="none" stroke="#63b8ff" d="M1382.16,-81.2C1394.96,-79.8 1408.11,-78.37 1420.74,-76.99"/>
<polygon fill="#63b8ff" stroke="#63b8ff" points="1425.75,-76.44 1421.02,-79.22 1423.26,-76.71 1420.78,-76.99 1420.78,-76.99 1420.78,-76.99 1423.26,-76.71 1420.53,-74.75 1425.75,-76.44 1425.75,-76.44"/>
</a>
</g>
</g>
<!-- Node14&#45;&gt;Node6 -->
<g id="edge19_Node000014_Node000006" class="edge">
<title>Node14&#45;&gt;Node6</title>
<g id="a_edge19_Node000014_Node000006"><a xlink:title=" ">
<path fill="none" stroke="#63b8ff" d="M1311.91,-19.14C1329.02,-30.28 1357.83,-49.29 1382,-66.5 1418.35,-92.38 1459.8,-124.28 1482.14,-141.68"/>
<polygon fill="#63b8ff" stroke="#63b8ff" points="1486.09,-144.76 1480.76,-143.46 1484.12,-143.22 1482.14,-141.69 1482.14,-141.69 1482.14,-141.69 1484.12,-143.22 1483.53,-139.91 1486.09,-144.76 1486.09,-144.76"/>
</a>
</g>
</g>
<!-- Node14&#45;&gt;Node12 -->
<g id="edge20_Node000014_Node000012" class="edge">
<title>Node14&#45;&gt;Node12</title>
<g id="a_edge20_Node000014_Node000012"><a xlink:title=" ">
<path fill="none" stroke="#63b8ff" d="M1331.36,-19.06C1346.85,-23.41 1365.36,-28.65 1382,-33.5 1408.77,-41.3 1438.91,-50.36 1461.83,-57.31"/>
<polygon fill="#63b8ff" stroke="#63b8ff" points="1466.9,-58.85 1461.46,-59.55 1464.5,-58.12 1462.11,-57.4 1462.11,-57.4 1462.11,-57.4 1464.5,-58.12 1462.77,-55.25 1466.9,-58.85 1466.9,-58.85"/>
</a>
</g>
</g>
<!-- Node15 -->
<g id="Node000015" class="node">
<title>Node15</title>
<g id="a_Node000015"><a xlink:href="../../d1/dea/classSettingsManager.html#a7ebed5e5fed714d91cde51efc8cfe00a" target="_top" xlink:title=" ">
<polygon fill="white" stroke="#666666" points="1581,-19 1418,-19 1418,0 1581,0 1581,-19"/>
<text text-anchor="middle" x="1499.5" y="-7" font-family="Helvetica,sans-Serif" font-size="10.00">SettingsManager::deleteValue</text>
</a>
</g>
</g>
<!-- Node14&#45;&gt;Node15 -->
<g id="edge18_Node000014_Node000015" class="edge">
<title>Node14&#45;&gt;Node15</title>
<g id="a_edge18_Node000014_Node000015"><a xlink:title=" ">
<path fill="none" stroke="#63b8ff" d="M1380.12,-9.5C1390.83,-9.5 1401.82,-9.5 1412.58,-9.5"/>
<polygon fill="#63b8ff" stroke="#63b8ff" points="1417.84,-9.5 1412.84,-11.75 1415.34,-9.5 1412.84,-9.5 1412.84,-9.5 1412.84,-9.5 1415.34,-9.5 1412.84,-7.25 1417.84,-9.5 1417.84,-9.5"/>
</a>
</g>
</g>
<!-- Node17&#45;&gt;Node6 -->
<g id="edge24_Node000017_Node000006" class="edge">
<title>Node17&#45;&gt;Node6</title>
<g id="a_edge24_Node000017_Node000006"><a xlink:title=" ">
<path fill="none" stroke="#63b8ff" d="M1382.16,-167.2C1394.76,-165.83 1407.68,-164.42 1420.13,-163.06"/>
<polygon fill="#63b8ff" stroke="#63b8ff" points="1425.43,-162.48 1420.71,-165.26 1422.95,-162.75 1420.46,-163.02 1420.46,-163.02 1420.46,-163.02 1422.95,-162.75 1420.22,-160.78 1425.43,-162.48 1425.43,-162.48"/>
</a>
</g>
</g>
<!-- Node17&#45;&gt;Node12 -->
<g id="edge25_Node000017_Node000012" class="edge">
<title>Node17&#45;&gt;Node12</title>
<g id="a_edge25_Node000017_Node000012"><a xlink:title=" ">
<path fill="none" stroke="#63b8ff" d="M1325.02,-161.48C1365.28,-139.91 1438.71,-100.55 1475.79,-80.67"/>
<polygon fill="#63b8ff" stroke="#63b8ff" points="1480.56,-78.12 1477.21,-82.46 1478.35,-79.3 1476.15,-80.48 1476.15,-80.48 1476.15,-80.48 1478.35,-79.3 1475.09,-78.5 1480.56,-78.12 1480.56,-78.12"/>
</a>
</g>
</g>
<!-- Node18&#45;&gt;Node5 -->
<g id="edge30_Node000018_Node000005" class="edge">
<title>Node18&#45;&gt;Node5</title>
<g id="a_edge30_Node000018_Node000005"><a xlink:title=" ">
<path fill="none" stroke="#63b8ff" d="M749.13,-215.52C767.72,-211.69 787.78,-207.55 806.64,-203.66"/>
<polygon fill="#63b8ff" stroke="#63b8ff" points="811.92,-202.57 807.48,-205.78 809.48,-203.08 807.03,-203.58 807.03,-203.58 807.03,-203.58 809.48,-203.08 806.57,-201.38 811.92,-202.57 811.92,-202.57"/>
</a>
</g>
</g>
<!-- Node18&#45;&gt;Node7 -->
<g id="edge31_Node000018_Node000007" class="edge">
<title>Node18&#45;&gt;Node7</title>
<g id="a_edge31_Node000018_Node000007"><a xlink:title=" ">
<path fill="none" stroke="#63b8ff" d="M749.05,-229.23C808.25,-227.37 893.92,-222.78 968,-211.5 995.89,-207.25 1026.83,-199.71 1050.3,-193.38"/>
<polygon fill="#63b8ff" stroke="#63b8ff" points="1055.2,-192.04 1050.96,-195.53 1052.78,-192.7 1050.37,-193.36 1050.37,-193.36 1050.37,-193.36 1052.78,-192.7 1049.78,-191.19 1055.2,-192.04 1055.2,-192.04"/>
</a>
</g>
</g>
<!-- Node18&#45;&gt;Node8 -->
<g id="edge32_Node000018_Node000008" class="edge">
<title>Node18&#45;&gt;Node8</title>
<g id="a_edge32_Node000018_Node000008"><a xlink:title=" ">
<path fill="none" stroke="#63b8ff" d="M749.25,-239.25C767.13,-241.19 786.24,-243.09 804,-244.5 877.56,-250.35 962.05,-254.14 1019.63,-256.28"/>
<polygon fill="#63b8ff" stroke="#63b8ff" points="1024.76,-256.47 1019.68,-258.54 1022.26,-256.38 1019.77,-256.29 1019.77,-256.29 1019.77,-256.29 1022.26,-256.38 1019.85,-254.04 1024.76,-256.47 1024.76,-256.47"/>
</a>
</g>
</g>
<!-- Node19 -->
<g id="Node000019" class="node">
<title>Node19</title>
<g id="a_Node000019"><a xlink:href="../../df/db1/classServersSettings.html#a78ef8bf7a0f02e1b0f5a59db50fb8152" target="_top" xlink:title=" ">
<polygon fill="white" stroke="#666666" points="1364.5,-297.5 1227.5,-297.5 1227.5,-267.5 1364.5,-267.5 1364.5,-297.5"/>
<text text-anchor="start" x="1235.5" y="-285.5" font-family="Helvetica,sans-Serif" font-size="10.00">ServersSettings::getAuto</text>
<text text-anchor="middle" x="1296" y="-274.5" font-family="Helvetica,sans-Serif" font-size="10.00">Connect</text>
</a>
</g>
</g>
<!-- Node18&#45;&gt;Node19 -->
<g id="edge28_Node000018_Node000019" class="edge">
<title>Node18&#45;&gt;Node19</title>
<g id="a_edge28_Node000018_Node000019"><a xlink:title=" ">
<path fill="none" stroke="#63b8ff" d="M727.88,-245.53C750.96,-251.72 778.65,-258.4 804,-262.5 951.07,-286.29 1125.96,-286.93 1222.29,-284.93"/>
<polygon fill="#63b8ff" stroke="#63b8ff" points="1227.38,-284.82 1222.43,-287.18 1224.88,-284.88 1222.38,-284.93 1222.38,-284.93 1222.38,-284.93 1224.88,-284.88 1222.33,-282.68 1227.38,-284.82 1227.38,-284.82"/>
</a>
</g>
</g>
<!-- Node19&#45;&gt;Node6 -->
<g id="edge29_Node000019_Node000006" class="edge">
<title>Node19&#45;&gt;Node6</title>
<g id="a_edge29_Node000019_Node000006"><a xlink:title=" ">
<path fill="none" stroke="#63b8ff" d="M1325.31,-267.33C1342.01,-258.17 1363.45,-246.07 1382,-234.5 1418.1,-211.97 1458.76,-183.25 1481.23,-167.07"/>
<polygon fill="#63b8ff" stroke="#63b8ff" points="1485.47,-164 1482.74,-168.75 1483.45,-165.47 1481.42,-166.93 1481.42,-166.93 1481.42,-166.93 1483.45,-165.47 1480.1,-165.1 1485.47,-164 1485.47,-164"/>
</a>
</g>
</g>
</g>
</svg>

<g id="navigator" transform="translate(0 0)" fill="#404254">
  <rect fill="#f2f5e9" fill-opacity="0.5" stroke="#606060" stroke-width=".5" x="0" y="0" width="60" height="60"/>
  <use id="zoomplus" xlink:href="#zoomPlus" x="17" y="9" onmousedown="handleZoom(evt,'in')"/>
  <use id="zoomminus" xlink:href="#zoomMin" x="42" y="9" onmousedown="handleZoom(evt,'out')"/>
  <use id="reset" xlink:href="#resetDef" x="30" y="36" onmousedown="handleReset()"/>
   <use id="arrowup" xlink:href="#arrowUp" x="0" y="0" onmousedown="handlePan(0,-1)"/>
  <use id="arrowright" xlink:href="#arrowRight" x="0" y="0" onmousedown="handlePan(1,0)"/>
  <use id="arrowdown" xlink:href="#arrowDown" x="0" y="0" onmousedown="handlePan(0,1)"/>
  <use id="arrowleft" xlink:href="#arrowLeft" x="0" y="0" onmousedown="handlePan(-1,0)"/>
</g>
<svg viewBox="0 0 15 15" width="100%" height="30px" preserveAspectRatio="xMaxYMin meet">
 <g id="arrow_out" transform="scale(0.3 0.3)">
  <a xlink:href="classDlgConnect_ab897f80e8f18b568734a4433e7ff02ed_cgraph_org.svg" target="_base">
   <rect id="button" ry="5" rx="5" y="6" x="6" height="38" width="38"
        fill="#f2f5e9" fill-opacity="0.5" stroke="#606060" stroke-width="1.0"/>
   <path id="arrow"
     d="M 11.500037,31.436501 C 11.940474,20.09759 22.043105,11.32322 32.158766,21.979434 L 37.068811,17.246167 C 37.068811,17.246167 37.088388,32 37.088388,32 L 22.160133,31.978069 C 22.160133,31.978069 26.997745,27.140456 26.997745,27.140456 C 18.528582,18.264221 13.291696,25.230495 11.500037,31.436501 z"
     style="fill:#404040;"/>
  </a>
 </g>
</svg>

<style type='text/css'>
<![CDATA[
[data-mouse-over-selected='false'] { opacity: 0.7; }
[data-mouse-over-selected='true']  { opacity: 1.0; }
]]>
</style>
<script type="application/ecmascript"><![CDATA[
document.addEventListener('DOMContentLoaded', (event) => {
  highlightEdges();
  highlightAdjacentNodes();
});
]]></script>
</svg>
