<?xml version="1.0" encoding="UTF-8" standalone="no"?>
<!DOCTYPE svg PUBLIC "-//W3C//DTD SVG 1.1//EN"
 "http://www.w3.org/Graphics/SVG/1.1/DTD/svg11.dtd">
<!-- Generated by graphviz version 2.43.0 (0)
 -->
<!-- Title: PaletteConfig::hasPalette Pages: 1 -->
<svg width="988pt" height="226pt"
 viewBox="0.00 0.00 988.00 226.00" xmlns="http://www.w3.org/2000/svg" xmlns:xlink="http://www.w3.org/1999/xlink">
<g id="graph0" class="graph" transform="scale(1 1) rotate(0) translate(4 222)">
<title>PaletteConfig::hasPalette</title>
<!-- Node1 -->
<g id="Node000001" class="node">
<title>Node1</title>
<g id="a_Node000001"><a xlink:title=" ">
<polygon fill="#999999" stroke="#666666" points="980,-112.5 842,-112.5 842,-93.5 980,-93.5 980,-112.5"/>
<text text-anchor="middle" x="911" y="-100.5" font-family="Helvetica,sans-Serif" font-size="10.00">PaletteConfig::hasPalette</text>
</a>
</g>
</g>
<!-- Node2 -->
<g id="Node000002" class="node">
<title>Node2</title>
<g id="a_Node000002"><a xlink:href="../../da/d5a/classThemeManager.html#a8300518f723b48f70ebec28374f425f4" target="_top" xlink:title=" ">
<polygon fill="white" stroke="#666666" points="806,-218 655,-218 655,-188 806,-188 806,-218"/>
<text text-anchor="start" x="663" y="-206" font-family="Helvetica,sans-Serif" font-size="10.00">ThemeManager::applyStyle</text>
<text text-anchor="middle" x="730.5" y="-195" font-family="Helvetica,sans-Serif" font-size="10.00">AndPalette</text>
</a>
</g>
</g>
<!-- Node1&#45;&gt;Node2 -->
<g id="edge1_Node000001_Node000002" class="edge">
<title>Node1&#45;&gt;Node2</title>
<g id="a_edge1_Node000001_Node000002"><a xlink:title=" ">
<path fill="none" stroke="#63b8ff" d="M893.78,-115.81C873.92,-131.07 838.86,-156.68 806,-174 796.3,-179.11 785.49,-183.83 775.18,-187.91"/>
<polygon fill="#63b8ff" stroke="#63b8ff" points="897.78,-112.72 895.2,-117.56 895.8,-114.25 893.82,-115.78 893.82,-115.78 893.82,-115.78 895.8,-114.25 892.45,-113.99 897.78,-112.72 897.78,-112.72"/>
</a>
</g>
</g>
<!-- Node4 -->
<g id="Node000004" class="node">
<title>Node4</title>
<g id="a_Node000004"><a xlink:href="../../da/d5a/classThemeManager.html#a7b4f23aecc7ce0b5f0d445a9eb5aebb6" target="_top" xlink:title=" ">
<polygon fill="white" stroke="#666666" points="619,-169.5 427,-169.5 427,-150.5 619,-150.5 619,-169.5"/>
<text text-anchor="middle" x="523" y="-157.5" font-family="Helvetica,sans-Serif" font-size="10.00">ThemeManager::themeChangedSlot</text>
</a>
</g>
</g>
<!-- Node1&#45;&gt;Node4 -->
<g id="edge19_Node000001_Node000004" class="edge">
<title>Node1&#45;&gt;Node4</title>
<g id="a_edge19_Node000001_Node000004"><a xlink:title=" ">
<path fill="none" stroke="#63b8ff" d="M848.03,-113.35C834.21,-115.6 819.61,-117.92 806,-120 733.9,-131.01 651.27,-142.61 594.17,-150.47"/>
<polygon fill="#63b8ff" stroke="#63b8ff" points="853.09,-112.53 848.52,-115.55 850.62,-112.93 848.15,-113.33 848.15,-113.33 848.15,-113.33 850.62,-112.93 847.79,-111.11 853.09,-112.53 853.09,-112.53"/>
</a>
</g>
</g>
<!-- Node8 -->
<g id="Node000008" class="node">
<title>Node8</title>
<g id="a_Node000008"><a xlink:href="../../d4/dd8/structPaletteConfig.html#abbe8ee2a25c137273106c771223adc6c" target="_top" xlink:title=" ">
<polygon fill="white" stroke="#666666" points="803.5,-93.5 657.5,-93.5 657.5,-74.5 803.5,-74.5 803.5,-93.5"/>
<text text-anchor="middle" x="730.5" y="-81.5" font-family="Helvetica,sans-Serif" font-size="10.00">PaletteConfig::fromDefault</text>
</a>
</g>
</g>
<!-- Node1&#45;&gt;Node8 -->
<g id="edge7_Node000001_Node000008" class="edge">
<title>Node1&#45;&gt;Node8</title>
<g id="a_edge7_Node000001_Node000008"><a xlink:title=" ">
<path fill="none" stroke="#63b8ff" d="M836.74,-95.2C825.79,-94.04 814.5,-92.83 803.56,-91.67"/>
<polygon fill="#63b8ff" stroke="#63b8ff" points="841.75,-95.74 836.54,-97.44 839.27,-95.47 836.78,-95.21 836.78,-95.21 836.78,-95.21 839.27,-95.47 837.02,-92.97 841.75,-95.74 841.75,-95.74"/>
</a>
</g>
</g>
<!-- Node9 -->
<g id="Node000009" class="node">
<title>Node9</title>
<g id="a_Node000009"><a xlink:href="../../d0/dc0/classPaletteEditorDialog.html#a244328e4c80c11e3afec6c700f38a0ab" target="_top" xlink:title=" ">
<polygon fill="white" stroke="#666666" points="578,-126 468,-126 468,-96 578,-96 578,-126"/>
<text text-anchor="start" x="476" y="-114" font-family="Helvetica,sans-Serif" font-size="10.00">PaletteEditorDialog</text>
<text text-anchor="middle" x="523" y="-103" font-family="Helvetica,sans-Serif" font-size="10.00">::loadSchemes</text>
</a>
</g>
</g>
<!-- Node1&#45;&gt;Node9 -->
<g id="edge16_Node000001_Node000009" class="edge">
<title>Node1&#45;&gt;Node9</title>
<g id="a_edge16_Node000001_Node000009"><a xlink:title=" ">
<path fill="none" stroke="#63b8ff" d="M836.52,-104.52C761.09,-106.09 645.5,-108.48 578.06,-109.88"/>
<polygon fill="#63b8ff" stroke="#63b8ff" points="841.88,-104.41 836.93,-106.77 839.38,-104.46 836.88,-104.52 836.88,-104.52 836.88,-104.52 839.38,-104.46 836.83,-102.27 841.88,-104.41 841.88,-104.41"/>
</a>
</g>
</g>
<!-- Node11 -->
<g id="Node000011" class="node">
<title>Node11</title>
<g id="a_Node000011"><a xlink:href="../../d0/dc0/classPaletteEditorDialog.html#ae70f930bcd5fe7cd7fcf93a6c7d68be9" target="_top" xlink:title=" ">
<polygon fill="white" stroke="#666666" points="579.5,-78 466.5,-78 466.5,-48 579.5,-48 579.5,-78"/>
<text text-anchor="start" x="474.5" y="-66" font-family="Helvetica,sans-Serif" font-size="10.00">PaletteEditorDialog</text>
<text text-anchor="middle" x="523" y="-55" font-family="Helvetica,sans-Serif" font-size="10.00">::onRevertToDefault</text>
</a>
</g>
</g>
<!-- Node1&#45;&gt;Node11 -->
<g id="edge17_Node000001_Node000011" class="edge">
<title>Node1&#45;&gt;Node11</title>
<g id="a_edge17_Node000001_Node000011"><a xlink:title=" ">
<path fill="none" stroke="#63b8ff" d="M884.66,-91.31C863.99,-82.44 833.77,-70.95 806,-66 728.39,-52.18 636.86,-54.56 579.62,-58.22"/>
<polygon fill="#63b8ff" stroke="#63b8ff" points="889.44,-93.39 883.96,-93.46 887.15,-92.39 884.86,-91.4 884.86,-91.4 884.86,-91.4 887.15,-92.39 885.75,-89.33 889.44,-93.39 889.44,-93.39"/>
</a>
</g>
</g>
<!-- Node13 -->
<g id="Node000013" class="node">
<title>Node13</title>
<g id="a_Node000013"><a xlink:href="../../d0/dc0/classPaletteEditorDialog.html#a36d206ff87fe2a09c41e0ec93ff24de1" target="_top" xlink:title=" ">
<polygon fill="white" stroke="#666666" points="578,-30 468,-30 468,0 578,0 578,-30"/>
<text text-anchor="start" x="476" y="-18" font-family="Helvetica,sans-Serif" font-size="10.00">PaletteEditorDialog</text>
<text text-anchor="middle" x="523" y="-7" font-family="Helvetica,sans-Serif" font-size="10.00">::retranslateUi</text>
</a>
</g>
</g>
<!-- Node1&#45;&gt;Node13 -->
<g id="edge18_Node000001_Node000013" class="edge">
<title>Node1&#45;&gt;Node13</title>
<g id="a_edge18_Node000001_Node000013"><a xlink:title=" ">
<path fill="none" stroke="#63b8ff" d="M890.45,-90.7C870.14,-78.55 837.06,-60.45 806,-51 729.03,-27.59 635.75,-19.39 578.14,-16.53"/>
<polygon fill="#63b8ff" stroke="#63b8ff" points="894.83,-93.35 889.39,-92.69 892.69,-92.06 890.55,-90.76 890.55,-90.76 890.55,-90.76 892.69,-92.06 891.71,-88.84 894.83,-93.35 894.83,-93.35"/>
</a>
</g>
</g>
<!-- Node3 -->
<g id="Node000003" class="node">
<title>Node3</title>
<g id="a_Node000003"><a xlink:href="../../da/d5a/classThemeManager.html#ac85cd067b059e9987a2f807e530224c3" target="_top" xlink:title=" ">
<polygon fill="white" stroke="#666666" points="609,-212.5 437,-212.5 437,-193.5 609,-193.5 609,-212.5"/>
<text text-anchor="middle" x="523" y="-200.5" font-family="Helvetica,sans-Serif" font-size="10.00">ThemeManager::previewPalette</text>
</a>
</g>
</g>
<!-- Node2&#45;&gt;Node3 -->
<g id="edge2_Node000002_Node000003" class="edge">
<title>Node2&#45;&gt;Node3</title>
<g id="a_edge2_Node000002_Node000003"><a xlink:title=" ">
<path fill="none" stroke="#63b8ff" d="M649.49,-203C636.27,-203 622.51,-203 609.16,-203"/>
<polygon fill="#63b8ff" stroke="#63b8ff" points="654.73,-203 649.73,-205.25 652.23,-203 649.73,-203 649.73,-203 649.73,-203 652.23,-203 649.73,-200.75 654.73,-203 654.73,-203"/>
</a>
</g>
</g>
<!-- Node2&#45;&gt;Node4 -->
<g id="edge3_Node000002_Node000004" class="edge">
<title>Node2&#45;&gt;Node4</title>
<g id="a_edge3_Node000002_Node000004"><a xlink:title=" ">
<path fill="none" stroke="#63b8ff" d="M652.44,-186.88C624.5,-181.03 593.86,-174.62 569.51,-169.52"/>
<polygon fill="#63b8ff" stroke="#63b8ff" points="657.63,-187.96 652.27,-189.14 655.18,-187.45 652.73,-186.94 652.73,-186.94 652.73,-186.94 655.18,-187.45 653.19,-184.73 657.63,-187.96 657.63,-187.96"/>
</a>
</g>
</g>
<!-- Node5 -->
<g id="Node000005" class="node">
<title>Node5</title>
<g id="a_Node000005"><a xlink:href="../../da/d5a/classThemeManager.html#a9efb2e281a10f959959376fb6e6fcde9" target="_top" xlink:title=" ">
<polygon fill="white" stroke="#666666" points="386,-167 220,-167 220,-137 386,-137 386,-167"/>
<text text-anchor="start" x="228" y="-155" font-family="Helvetica,sans-Serif" font-size="10.00">ThemeManager::reloadCurrent</text>
<text text-anchor="middle" x="303" y="-144" font-family="Helvetica,sans-Serif" font-size="10.00">Theme</text>
</a>
</g>
</g>
<!-- Node4&#45;&gt;Node5 -->
<g id="edge4_Node000004_Node000005" class="edge">
<title>Node4&#45;&gt;Node5</title>
<g id="a_edge4_Node000004_Node000005"><a xlink:title=" ">
<path fill="none" stroke="#63b8ff" d="M421.62,-156.32C409.74,-155.88 397.72,-155.44 386.13,-155.01"/>
<polygon fill="#63b8ff" stroke="#63b8ff" points="426.7,-156.5 421.62,-158.57 424.2,-156.41 421.7,-156.32 421.7,-156.32 421.7,-156.32 424.2,-156.41 421.79,-154.07 426.7,-156.5 426.7,-156.5"/>
</a>
</g>
</g>
<!-- Node7 -->
<g id="Node000007" class="node">
<title>Node7</title>
<g id="a_Node000007"><a xlink:href="../../da/d5a/classThemeManager.html#af600542d18b306e40ce06f04c83008ed" target="_top" xlink:title=" ">
<polygon fill="white" stroke="#666666" points="391,-204.5 215,-204.5 215,-185.5 391,-185.5 391,-204.5"/>
<text text-anchor="middle" x="303" y="-192.5" font-family="Helvetica,sans-Serif" font-size="10.00">ThemeManager::ThemeManager</text>
</a>
</g>
</g>
<!-- Node4&#45;&gt;Node7 -->
<g id="edge6_Node000004_Node000007" class="edge">
<title>Node4&#45;&gt;Node7</title>
<g id="a_edge6_Node000004_Node000007"><a xlink:title=" ">
<path fill="none" stroke="#63b8ff" d="M457.59,-170.34C427.73,-175.14 392.47,-180.8 363.27,-185.48"/>
<polygon fill="#63b8ff" stroke="#63b8ff" points="462.72,-169.52 458.14,-172.53 460.25,-169.91 457.78,-170.31 457.78,-170.31 457.78,-170.31 460.25,-169.91 457.43,-168.09 462.72,-169.52 462.72,-169.52"/>
</a>
</g>
</g>
<!-- Node6 -->
<g id="Node000006" class="node">
<title>Node6</title>
<g id="a_Node000006"><a xlink:href="../../da/d5a/classThemeManager.html#a67895e37594b5974a03710142e847f6a" target="_top" xlink:title=" ">
<polygon fill="white" stroke="#666666" points="179,-161.5 0,-161.5 0,-142.5 179,-142.5 179,-161.5"/>
<text text-anchor="middle" x="89.5" y="-149.5" font-family="Helvetica,sans-Serif" font-size="10.00">ThemeManager::setColorScheme</text>
</a>
</g>
</g>
<!-- Node5&#45;&gt;Node6 -->
<g id="edge5_Node000005_Node000006" class="edge">
<title>Node5&#45;&gt;Node6</title>
<g id="a_edge5_Node000005_Node000006"><a xlink:title=" ">
<path fill="none" stroke="#63b8ff" d="M214.9,-152C203.11,-152 191,-152 179.19,-152"/>
<polygon fill="#63b8ff" stroke="#63b8ff" points="219.93,-152 214.93,-154.25 217.43,-152 214.93,-152 214.93,-152 214.93,-152 217.43,-152 214.93,-149.75 219.93,-152 219.93,-152"/>
</a>
</g>
</g>
<!-- Node8&#45;&gt;Node4 -->
<g id="edge15_Node000008_Node000004" class="edge">
<title>Node8&#45;&gt;Node4</title>
<g id="a_edge15_Node000008_Node000004"><a xlink:title=" ">
<path fill="none" stroke="#63b8ff" d="M706.65,-95.98C684.64,-107.18 650.19,-123.8 619,-135 602.15,-141.05 583.14,-146.35 566.57,-150.49"/>
<polygon fill="#63b8ff" stroke="#63b8ff" points="711.15,-93.68 707.72,-97.96 708.92,-94.82 706.7,-95.96 706.7,-95.96 706.7,-95.96 708.92,-94.82 705.67,-93.96 711.15,-93.68 711.15,-93.68"/>
</a>
</g>
</g>
<!-- Node8&#45;&gt;Node9 -->
<g id="edge8_Node000008_Node000009" class="edge">
<title>Node8&#45;&gt;Node9</title>
<g id="a_edge8_Node000008_Node000009"><a xlink:title=" ">
<path fill="none" stroke="#63b8ff" d="M652.12,-94.17C627.5,-97.4 600.81,-100.91 578.19,-103.88"/>
<polygon fill="#63b8ff" stroke="#63b8ff" points="657.34,-93.48 652.67,-96.36 654.86,-93.81 652.38,-94.13 652.38,-94.13 652.38,-94.13 654.86,-93.81 652.09,-91.9 657.34,-93.48 657.34,-93.48"/>
</a>
</g>
</g>
<!-- Node8&#45;&gt;Node11 -->
<g id="edge10_Node000008_Node000011" class="edge">
<title>Node8&#45;&gt;Node11</title>
<g id="a_edge10_Node000008_Node000011"><a xlink:title=" ">
<path fill="none" stroke="#63b8ff" d="M652.23,-76.1C628.17,-73.64 602.11,-70.98 579.81,-68.7"/>
<polygon fill="#63b8ff" stroke="#63b8ff" points="657.34,-76.63 652.13,-78.36 654.85,-76.37 652.36,-76.12 652.36,-76.12 652.36,-76.12 654.85,-76.37 652.59,-73.88 657.34,-76.63 657.34,-76.63"/>
</a>
</g>
</g>
<!-- Node8&#45;&gt;Node13 -->
<g id="edge13_Node000008_Node000013" class="edge">
<title>Node8&#45;&gt;Node13</title>
<g id="a_edge13_Node000008_Node000013"><a xlink:title=" ">
<path fill="none" stroke="#63b8ff" d="M703.81,-72.35C681.65,-62.58 648.64,-48.73 619,-39 605.91,-34.7 591.59,-30.72 578.13,-27.29"/>
<polygon fill="#63b8ff" stroke="#63b8ff" points="708.64,-74.49 703.16,-74.52 706.36,-73.47 704.07,-72.46 704.07,-72.46 704.07,-72.46 706.36,-73.47 704.98,-70.4 708.64,-74.49 708.64,-74.49"/>
</a>
</g>
</g>
<!-- Node10 -->
<g id="Node000010" class="node">
<title>Node10</title>
<g id="a_Node000010"><a xlink:href="../../d0/dc0/classPaletteEditorDialog.html#adae8bf464178fecb29a3b0a7d9210b79" target="_top" xlink:title=" ">
<polygon fill="white" stroke="#666666" points="147.5,-78 31.5,-78 31.5,-48 147.5,-48 147.5,-78"/>
<text text-anchor="start" x="39.5" y="-66" font-family="Helvetica,sans-Serif" font-size="10.00">PaletteEditorDialog</text>
<text text-anchor="middle" x="89.5" y="-55" font-family="Helvetica,sans-Serif" font-size="10.00">::PaletteEditorDialog</text>
</a>
</g>
</g>
<!-- Node9&#45;&gt;Node10 -->
<g id="edge9_Node000009_Node000010" class="edge">
<title>Node9&#45;&gt;Node10</title>
<g id="a_edge9_Node000009_Node000010"><a xlink:title=" ">
<path fill="none" stroke="#63b8ff" d="M462.6,-108.34C400.6,-105.1 300.67,-98.57 215,-87 192.86,-84.01 168.7,-79.62 147.61,-75.41"/>
<polygon fill="#63b8ff" stroke="#63b8ff" points="467.73,-108.6 462.63,-110.59 465.24,-108.48 462.74,-108.35 462.74,-108.35 462.74,-108.35 465.24,-108.48 462.86,-106.1 467.73,-108.6 467.73,-108.6"/>
</a>
</g>
</g>
<!-- Node12 -->
<g id="Node000012" class="node">
<title>Node12</title>
<g id="a_Node000012"><a xlink:href="../../d0/dc0/classPaletteEditorDialog.html#aac8aa0368c49ff5204c6092e2dc9ef76" target="_top" xlink:title=" ">
<polygon fill="white" stroke="#666666" points="358,-78 248,-78 248,-48 358,-48 358,-78"/>
<text text-anchor="start" x="256" y="-66" font-family="Helvetica,sans-Serif" font-size="10.00">PaletteEditorDialog</text>
<text text-anchor="middle" x="303" y="-55" font-family="Helvetica,sans-Serif" font-size="10.00">::setupUi</text>
</a>
</g>
</g>
<!-- Node11&#45;&gt;Node12 -->
<g id="edge11_Node000011_Node000012" class="edge">
<title>Node11&#45;&gt;Node12</title>
<g id="a_edge11_Node000011_Node000012"><a xlink:title=" ">
<path fill="none" stroke="#63b8ff" d="M461.31,-63C429.01,-63 389.62,-63 358.34,-63"/>
<polygon fill="#63b8ff" stroke="#63b8ff" points="466.43,-63 461.43,-65.25 463.93,-63 461.43,-63 461.43,-63 461.43,-63 463.93,-63 461.43,-60.75 466.43,-63 466.43,-63"/>
</a>
</g>
</g>
<!-- Node12&#45;&gt;Node10 -->
<g id="edge12_Node000012_Node000010" class="edge">
<title>Node12&#45;&gt;Node10</title>
<g id="a_edge12_Node000012_Node000010"><a xlink:title=" ">
<path fill="none" stroke="#63b8ff" d="M242.7,-63C212.91,-63 176.98,-63 147.51,-63"/>
<polygon fill="#63b8ff" stroke="#63b8ff" points="247.81,-63 242.81,-65.25 245.31,-63 242.81,-63 242.81,-63 242.81,-63 245.31,-63 242.81,-60.75 247.81,-63 247.81,-63"/>
</a>
</g>
</g>
<!-- Node13&#45;&gt;Node10 -->
<g id="edge14_Node000013_Node000010" class="edge">
<title>Node13&#45;&gt;Node10</title>
<g id="a_edge14_Node000013_Node000010"><a xlink:title=" ">
<path fill="none" stroke="#63b8ff" d="M462.6,-17.66C400.6,-20.9 300.67,-27.43 215,-39 192.86,-41.99 168.7,-46.38 147.61,-50.59"/>
<polygon fill="#63b8ff" stroke="#63b8ff" points="467.73,-17.4 462.86,-19.9 465.24,-17.52 462.74,-17.65 462.74,-17.65 462.74,-17.65 465.24,-17.52 462.63,-15.41 467.73,-17.4 467.73,-17.4"/>
</a>
</g>
</g>
</g>
</svg>
