<?xml version="1.0" encoding="UTF-8" standalone="no"?>
<!DOCTYPE svg PUBLIC "-//W3C//DTD SVG 1.1//EN"
 "http://www.w3.org/Graphics/SVG/1.1/DTD/svg11.dtd">
<!-- Generated by graphviz version 2.43.0 (0)
 -->
<!-- Title: VisualDeckEditorSampleHandWidget::getRandomCards Pages: 1 -->
<svg width="535pt" height="333pt"
 viewBox="0.00 0.00 535.00 332.50" xmlns="http://www.w3.org/2000/svg" xmlns:xlink="http://www.w3.org/1999/xlink">
<g id="graph0" class="graph" transform="scale(1 1) rotate(0) translate(4 328.5)">
<title>VisualDeckEditorSampleHandWidget::getRandomCards</title>
<!-- Node1 -->
<g id="Node000001" class="node">
<title>Node1</title>
<g id="a_Node000001"><a xlink:title=" ">
<polygon fill="#999999" stroke="#666666" points="162,-147.5 0,-147.5 0,-117.5 162,-117.5 162,-147.5"/>
<text text-anchor="start" x="8" y="-135.5" font-family="Helvetica,sans-Serif" font-size="10.00">VisualDeckEditorSampleHand</text>
<text text-anchor="middle" x="81" y="-124.5" font-family="Helvetica,sans-Serif" font-size="10.00">Widget::getRandomCards</text>
</a>
</g>
</g>
<!-- Node2 -->
<g id="Node000002" class="node">
<title>Node2</title>
<g id="a_Node000002"><a xlink:href="../../d8/dbe/classCardDatabaseQuerier.html#a86275c7c5712a74100288f48acafd264" target="_top" xlink:title=" ">
<polygon fill="white" stroke="#666666" points="341.5,-276.5 219.5,-276.5 219.5,-246.5 341.5,-246.5 341.5,-276.5"/>
<text text-anchor="start" x="227.5" y="-264.5" font-family="Helvetica,sans-Serif" font-size="10.00">CardDatabaseQuerier</text>
<text text-anchor="middle" x="280.5" y="-253.5" font-family="Helvetica,sans-Serif" font-size="10.00">::getCard</text>
</a>
</g>
</g>
<!-- Node1&#45;&gt;Node2 -->
<g id="edge1_Node000001_Node000002" class="edge">
<title>Node1&#45;&gt;Node2</title>
<g id="a_edge1_Node000001_Node000002"><a xlink:title=" ">
<path fill="none" stroke="#63b8ff" d="M94.66,-147.69C114.44,-170.45 154.88,-213.32 198,-237.5 203.23,-240.43 208.85,-243.04 214.6,-245.34"/>
<polygon fill="#63b8ff" stroke="#63b8ff" points="219.47,-247.21 213.99,-247.52 217.13,-246.32 214.8,-245.42 214.8,-245.42 214.8,-245.42 217.13,-246.32 215.61,-243.32 219.47,-247.21 219.47,-247.21"/>
</a>
</g>
</g>
<!-- Node6 -->
<g id="Node000006" class="node">
<title>Node6</title>
<g id="a_Node000006"><a xlink:href="../../d9/de1/classDeckListModel.html#a164d5df7c4cff5561bf2e8770175e331" target="_top" xlink:title=" ">
<polygon fill="white" stroke="#666666" points="356.5,-228 204.5,-228 204.5,-209 356.5,-209 356.5,-228"/>
<text text-anchor="middle" x="280.5" y="-216" font-family="Helvetica,sans-Serif" font-size="10.00">DeckListModel::getDeckList</text>
</a>
</g>
</g>
<!-- Node1&#45;&gt;Node6 -->
<g id="edge5_Node000001_Node000006" class="edge">
<title>Node1&#45;&gt;Node6</title>
<g id="a_edge5_Node000001_Node000006"><a xlink:title=" ">
<path fill="none" stroke="#63b8ff" d="M103.68,-147.65C126.27,-162.78 163.18,-185.74 198,-199.5 205.83,-202.6 214.3,-205.26 222.71,-207.54"/>
<polygon fill="#63b8ff" stroke="#63b8ff" points="227.93,-208.91 222.52,-209.82 225.51,-208.27 223.09,-207.64 223.09,-207.64 223.09,-207.64 225.51,-208.27 223.66,-205.46 227.93,-208.91 227.93,-208.91"/>
</a>
</g>
</g>
<!-- Node7 -->
<g id="Node000007" class="node">
<title>Node7</title>
<g id="a_Node000007"><a xlink:href="../../d4/d55/classInnerDecklistNode.html#acf0e0034a5219efab22463d55e617bb1" target="_top" xlink:title=" ">
<polygon fill="white" stroke="#666666" points="337,-190.5 224,-190.5 224,-160.5 337,-160.5 337,-190.5"/>
<text text-anchor="start" x="232" y="-178.5" font-family="Helvetica,sans-Serif" font-size="10.00">InnerDecklistNode::</text>
<text text-anchor="middle" x="280.5" y="-167.5" font-family="Helvetica,sans-Serif" font-size="10.00">getName</text>
</a>
</g>
</g>
<!-- Node1&#45;&gt;Node7 -->
<g id="edge6_Node000001_Node000007" class="edge">
<title>Node1&#45;&gt;Node7</title>
<g id="a_edge6_Node000001_Node000007"><a xlink:title=" ">
<path fill="none" stroke="#63b8ff" d="M151.08,-147.54C173.11,-152.34 197.33,-157.61 218.73,-162.27"/>
<polygon fill="#63b8ff" stroke="#63b8ff" points="223.82,-163.38 218.46,-164.51 221.38,-162.85 218.93,-162.31 218.93,-162.31 218.93,-162.31 221.38,-162.85 219.41,-160.11 223.82,-163.38 223.82,-163.38"/>
</a>
</g>
</g>
<!-- Node8 -->
<g id="Node000008" class="node">
<title>Node8</title>
<g id="a_Node000008"><a xlink:href="../../d5/d22/classDecklistCardNode.html#aea1e2bdd423742e4de058e27c96f5ab3" target="_top" xlink:title=" ">
<polygon fill="white" stroke="#666666" points="363,-142 198,-142 198,-123 363,-123 363,-142"/>
<text text-anchor="middle" x="280.5" y="-130" font-family="Helvetica,sans-Serif" font-size="10.00">DecklistCardNode::getNumber</text>
</a>
</g>
</g>
<!-- Node1&#45;&gt;Node8 -->
<g id="edge7_Node000001_Node000008" class="edge">
<title>Node1&#45;&gt;Node8</title>
<g id="a_edge7_Node000001_Node000008"><a xlink:title=" ">
<path fill="none" stroke="#63b8ff" d="M162.05,-132.5C172.06,-132.5 182.34,-132.5 192.46,-132.5"/>
<polygon fill="#63b8ff" stroke="#63b8ff" points="197.73,-132.5 192.73,-134.75 195.23,-132.5 192.73,-132.5 192.73,-132.5 192.73,-132.5 195.23,-132.5 192.73,-130.25 197.73,-132.5 197.73,-132.5"/>
</a>
</g>
</g>
<!-- Node9 -->
<g id="Node000009" class="node">
<title>Node9</title>
<g id="a_Node000009"><a xlink:href="../../da/d68/classDeckList.html#a0576d60292a6f3b777c50b5d864f8414" target="_top" xlink:title=" ">
<polygon fill="white" stroke="#666666" points="332,-105 229,-105 229,-86 332,-86 332,-105"/>
<text text-anchor="middle" x="280.5" y="-93" font-family="Helvetica,sans-Serif" font-size="10.00">DeckList::getRoot</text>
</a>
</g>
</g>
<!-- Node1&#45;&gt;Node9 -->
<g id="edge8_Node000001_Node000009" class="edge">
<title>Node1&#45;&gt;Node9</title>
<g id="a_edge8_Node000001_Node000009"><a xlink:title=" ">
<path fill="none" stroke="#63b8ff" d="M162.05,-117.5C182.67,-113.64 204.42,-109.57 223.53,-105.99"/>
<polygon fill="#63b8ff" stroke="#63b8ff" points="228.84,-104.99 224.34,-108.12 226.38,-105.45 223.93,-105.91 223.93,-105.91 223.93,-105.91 226.38,-105.45 223.51,-103.7 228.84,-104.99 228.84,-104.99"/>
</a>
</g>
</g>
<!-- Node10 -->
<g id="Node000010" class="node">
<title>Node10</title>
<g id="a_Node000010"><a xlink:href="../../dc/db4/classCardDatabaseManager.html#a7dc153d2d7691d69916d2154a05c5ed1" target="_top" xlink:title=" ">
<polygon fill="white" stroke="#666666" points="344.5,-67.5 216.5,-67.5 216.5,-37.5 344.5,-37.5 344.5,-67.5"/>
<text text-anchor="start" x="224.5" y="-55.5" font-family="Helvetica,sans-Serif" font-size="10.00">CardDatabaseManager</text>
<text text-anchor="middle" x="280.5" y="-44.5" font-family="Helvetica,sans-Serif" font-size="10.00">::query</text>
</a>
</g>
</g>
<!-- Node1&#45;&gt;Node10 -->
<g id="edge9_Node000001_Node000010" class="edge">
<title>Node1&#45;&gt;Node10</title>
<g id="a_edge9_Node000001_Node000010"><a xlink:title=" ">
<path fill="none" stroke="#63b8ff" d="M111.04,-117.28C134.2,-105.51 167.66,-89.27 198,-77.5 205.54,-74.57 213.58,-71.76 221.55,-69.14"/>
<polygon fill="#63b8ff" stroke="#63b8ff" points="226.51,-67.53 222.44,-71.21 224.13,-68.3 221.75,-69.07 221.75,-69.07 221.75,-69.07 224.13,-68.3 221.06,-66.93 226.51,-67.53 226.51,-67.53"/>
</a>
</g>
</g>
<!-- Node13 -->
<g id="Node000013" class="node">
<title>Node13</title>
<g id="a_Node000013"><a xlink:href="../../d5/d22/classDecklistCardNode.html#a0d24e8aaf5d67d6272511508dbc6a8f3" target="_top" xlink:title="Convert this node to a CardRef.">
<polygon fill="white" stroke="#666666" points="360,-19 201,-19 201,0 360,0 360,-19"/>
<text text-anchor="middle" x="280.5" y="-7" font-family="Helvetica,sans-Serif" font-size="10.00">DecklistCardNode::toCardRef</text>
</a>
</g>
</g>
<!-- Node1&#45;&gt;Node13 -->
<g id="edge12_Node000001_Node000013" class="edge">
<title>Node1&#45;&gt;Node13</title>
<g id="a_edge12_Node000001_Node000013"><a xlink:title=" ">
<path fill="none" stroke="#63b8ff" d="M94.53,-117.15C114.13,-94.21 154.34,-51.23 198,-28.5 203.96,-25.4 210.42,-22.8 217.01,-20.62"/>
<polygon fill="#63b8ff" stroke="#63b8ff" points="222.07,-19.03 217.97,-22.68 219.68,-19.78 217.3,-20.53 217.3,-20.53 217.3,-20.53 219.68,-19.78 216.62,-18.38 222.07,-19.03 222.07,-19.03"/>
</a>
</g>
</g>
<!-- Node3 -->
<g id="Node000003" class="node">
<title>Node3</title>
<g id="a_Node000003"><a xlink:href="../../d8/dbe/classCardDatabaseQuerier.html#a15bb0aa11d39712c5de281e111f01abc" target="_top" xlink:title=" ">
<polygon fill="white" stroke="#666666" points="524,-324.5 402,-324.5 402,-294.5 524,-294.5 524,-324.5"/>
<text text-anchor="start" x="410" y="-312.5" font-family="Helvetica,sans-Serif" font-size="10.00">CardDatabaseQuerier</text>
<text text-anchor="middle" x="463" y="-301.5" font-family="Helvetica,sans-Serif" font-size="10.00">::findPrintingWithId</text>
</a>
</g>
</g>
<!-- Node2&#45;&gt;Node3 -->
<g id="edge2_Node000002_Node000003" class="edge">
<title>Node2&#45;&gt;Node3</title>
<g id="a_edge2_Node000002_Node000003"><a xlink:title=" ">
<path fill="none" stroke="#63b8ff" d="M338.12,-276.56C357.94,-281.83 380.29,-287.77 400.5,-293.14"/>
<polygon fill="#63b8ff" stroke="#63b8ff" points="405.58,-294.5 400.17,-295.39 403.17,-293.86 400.75,-293.21 400.75,-293.21 400.75,-293.21 403.17,-293.86 401.33,-291.04 405.58,-294.5 405.58,-294.5"/>
</a>
</g>
</g>
<!-- Node4 -->
<g id="Node000004" class="node">
<title>Node4</title>
<g id="a_Node000004"><a xlink:href="../../d8/dbe/classCardDatabaseQuerier.html#aadf83692b2220aedcfb3e9b36070acb7" target="_top" xlink:title=" ">
<polygon fill="white" stroke="#666666" points="524,-276.5 402,-276.5 402,-246.5 524,-246.5 524,-276.5"/>
<text text-anchor="start" x="410" y="-264.5" font-family="Helvetica,sans-Serif" font-size="10.00">CardDatabaseQuerier</text>
<text text-anchor="middle" x="463" y="-253.5" font-family="Helvetica,sans-Serif" font-size="10.00">::getCardInfo</text>
</a>
</g>
</g>
<!-- Node2&#45;&gt;Node4 -->
<g id="edge3_Node000002_Node000004" class="edge">
<title>Node2&#45;&gt;Node4</title>
<g id="a_edge3_Node000002_Node000004"><a xlink:title=" ">
<path fill="none" stroke="#63b8ff" d="M341.6,-261.5C359.32,-261.5 378.79,-261.5 396.81,-261.5"/>
<polygon fill="#63b8ff" stroke="#63b8ff" points="401.85,-261.5 396.85,-263.75 399.35,-261.5 396.85,-261.5 396.85,-261.5 396.85,-261.5 399.35,-261.5 396.85,-259.25 401.85,-261.5 401.85,-261.5"/>
</a>
</g>
</g>
<!-- Node5 -->
<g id="Node000005" class="node">
<title>Node5</title>
<g id="a_Node000005"><a xlink:href="../../d8/dbe/classCardDatabaseQuerier.html#a7b521d01bb2a7dc5b17ee27e2355ebf7" target="_top" xlink:title=" ">
<polygon fill="white" stroke="#666666" points="524,-228.5 402,-228.5 402,-198.5 524,-198.5 524,-228.5"/>
<text text-anchor="start" x="410" y="-216.5" font-family="Helvetica,sans-Serif" font-size="10.00">CardDatabaseQuerier</text>
<text text-anchor="middle" x="463" y="-205.5" font-family="Helvetica,sans-Serif" font-size="10.00">::getPreferredPrinting</text>
</a>
</g>
</g>
<!-- Node2&#45;&gt;Node5 -->
<g id="edge4_Node000002_Node000005" class="edge">
<title>Node2&#45;&gt;Node5</title>
<g id="a_edge4_Node000002_Node000005"><a xlink:title=" ">
<path fill="none" stroke="#63b8ff" d="M338.12,-246.44C357.94,-241.17 380.29,-235.23 400.5,-229.86"/>
<polygon fill="#63b8ff" stroke="#63b8ff" points="405.58,-228.5 401.33,-231.96 403.17,-229.14 400.75,-229.79 400.75,-229.79 400.75,-229.79 403.17,-229.14 400.17,-227.61 405.58,-228.5 405.58,-228.5"/>
</a>
</g>
</g>
<!-- Node11 -->
<g id="Node000011" class="node">
<title>Node11</title>
<g id="a_Node000011"><a xlink:href="../../dc/db4/classCardDatabaseManager.html#ad3973b040eb93df3be6bd2e790c53d59" target="_top" xlink:title=" ">
<polygon fill="white" stroke="#666666" points="527,-89.5 399,-89.5 399,-59.5 527,-59.5 527,-89.5"/>
<text text-anchor="start" x="407" y="-77.5" font-family="Helvetica,sans-Serif" font-size="10.00">CardDatabaseManager</text>
<text text-anchor="middle" x="463" y="-66.5" font-family="Helvetica,sans-Serif" font-size="10.00">::getInstance</text>
</a>
</g>
</g>
<!-- Node10&#45;&gt;Node11 -->
<g id="edge10_Node000010_Node000011" class="edge">
<title>Node10&#45;&gt;Node11</title>
<g id="a_edge10_Node000010_Node000011"><a xlink:title=" ">
<path fill="none" stroke="#63b8ff" d="M344.63,-60.19C360.57,-62.14 377.75,-64.23 393.92,-66.2"/>
<polygon fill="#63b8ff" stroke="#63b8ff" points="398.91,-66.81 393.67,-68.44 396.42,-66.51 393.94,-66.2 393.94,-66.2 393.94,-66.2 396.42,-66.51 394.21,-63.97 398.91,-66.81 398.91,-66.81"/>
</a>
</g>
</g>
<!-- Node12 -->
<g id="Node000012" class="node">
<title>Node12</title>
<g id="a_Node000012"><a xlink:href="../../d5/d45/classCardDatabase.html#affe0baec75387712dc3a93199b56fc08" target="_top" xlink:title=" ">
<polygon fill="white" stroke="#666666" points="522.5,-41 403.5,-41 403.5,-22 522.5,-22 522.5,-41"/>
<text text-anchor="middle" x="463" y="-29" font-family="Helvetica,sans-Serif" font-size="10.00">CardDatabase::query</text>
</a>
</g>
</g>
<!-- Node10&#45;&gt;Node12 -->
<g id="edge11_Node000010_Node000012" class="edge">
<title>Node10&#45;&gt;Node12</title>
<g id="a_edge11_Node000010_Node000012"><a xlink:title=" ">
<path fill="none" stroke="#63b8ff" d="M344.63,-45.16C361.95,-43.14 380.74,-40.95 398.1,-38.93"/>
<polygon fill="#63b8ff" stroke="#63b8ff" points="403.44,-38.31 398.74,-41.13 400.96,-38.6 398.48,-38.89 398.48,-38.89 398.48,-38.89 400.96,-38.6 398.22,-36.66 403.44,-38.31 403.44,-38.31"/>
</a>
</g>
</g>
</g>
</svg>
