<?xml version="1.0" encoding="UTF-8" standalone="no"?>
<!DOCTYPE svg PUBLIC "-//W3C//DTD SVG 1.1//EN"
 "http://www.w3.org/Graphics/SVG/1.1/DTD/svg11.dtd">
<!-- Generated by graphviz version 2.43.0 (0)
 -->
<!-- Title: CardInfoDisplayWidget::CardInfoDisplayWidget Pages: 1 -->
<svg width="834pt" height="365pt"
 viewBox="0.00 0.00 834.00 365.00" xmlns="http://www.w3.org/2000/svg" xmlns:xlink="http://www.w3.org/1999/xlink">
<g id="graph0" class="graph" transform="scale(1 1) rotate(0) translate(4 361)">
<title>CardInfoDisplayWidget::CardInfoDisplayWidget</title>
<!-- Node1 -->
<g id="Node000001" class="node">
<title>Node1</title>
<g id="a_Node000001"><a xlink:title=" ">
<polygon fill="#999999" stroke="#666666" points="135,-177.5 0,-177.5 0,-147.5 135,-147.5 135,-177.5"/>
<text text-anchor="start" x="8" y="-165.5" font-family="Helvetica,sans-Serif" font-size="10.00">CardInfoDisplayWidget</text>
<text text-anchor="middle" x="67.5" y="-154.5" font-family="Helvetica,sans-Serif" font-size="10.00">::CardInfoDisplayWidget</text>
</a>
</g>
</g>
<!-- Node2 -->
<g id="Node000002" class="node">
<title>Node2</title>
<g id="a_Node000002"><a xlink:href="../../dd/d82/classCardInfoTextWidget.html#a06e333c392f836ce2cce84d90e2ee0a2" target="_top" xlink:title=" ">
<polygon fill="white" stroke="#666666" points="292,-201.5 179,-201.5 179,-171.5 292,-171.5 292,-201.5"/>
<text text-anchor="start" x="187" y="-189.5" font-family="Helvetica,sans-Serif" font-size="10.00">CardInfoTextWidget</text>
<text text-anchor="middle" x="235.5" y="-178.5" font-family="Helvetica,sans-Serif" font-size="10.00">::linkActivated</text>
</a>
</g>
</g>
<!-- Node1&#45;&gt;Node2 -->
<g id="edge1_Node000001_Node000002" class="edge">
<title>Node1&#45;&gt;Node2</title>
<g id="a_edge1_Node000001_Node000002"><a xlink:title=" ">
<path fill="none" stroke="#63b8ff" d="M135.06,-172.12C147.88,-173.98 161.25,-175.91 173.87,-177.73"/>
<polygon fill="#63b8ff" stroke="#63b8ff" points="178.85,-178.45 173.58,-179.97 176.38,-178.1 173.9,-177.74 173.9,-177.74 173.9,-177.74 176.38,-178.1 174.22,-175.51 178.85,-178.45 178.85,-178.45"/>
</a>
</g>
</g>
<!-- Node3 -->
<g id="Node000003" class="node">
<title>Node3</title>
<g id="a_Node000003"><a xlink:href="../../d1/de1/classCardInfoDisplayWidget.html#a6b562e769c932237b7dd22194af832c3" target="_top" xlink:title=" ">
<polygon fill="white" stroke="#666666" points="300,-153.5 171,-153.5 171,-123.5 300,-123.5 300,-153.5"/>
<text text-anchor="start" x="179" y="-141.5" font-family="Helvetica,sans-Serif" font-size="10.00">CardInfoDisplayWidget</text>
<text text-anchor="middle" x="235.5" y="-130.5" font-family="Helvetica,sans-Serif" font-size="10.00">::setCard</text>
</a>
</g>
</g>
<!-- Node1&#45;&gt;Node3 -->
<g id="edge2_Node000001_Node000003" class="edge">
<title>Node1&#45;&gt;Node3</title>
<g id="a_edge2_Node000001_Node000003"><a xlink:title=" ">
<path fill="none" stroke="#63b8ff" d="M135.06,-152.88C145.22,-151.41 155.71,-149.89 165.91,-148.42"/>
<polygon fill="#63b8ff" stroke="#63b8ff" points="170.89,-147.7 166.26,-150.64 168.42,-148.05 165.94,-148.41 165.94,-148.41 165.94,-148.41 168.42,-148.05 165.62,-146.19 170.89,-147.7 170.89,-147.7"/>
</a>
</g>
</g>
<!-- Node4 -->
<g id="Node000004" class="node">
<title>Node4</title>
<g id="a_Node000004"><a xlink:href="../../d1/de1/classCardInfoDisplayWidget.html#a47decc408e4d3992169947cc23646fbd" target="_top" xlink:title=" ">
<polygon fill="white" stroke="#666666" points="465,-201.5 336,-201.5 336,-171.5 465,-171.5 465,-201.5"/>
<text text-anchor="start" x="344" y="-189.5" font-family="Helvetica,sans-Serif" font-size="10.00">CardInfoDisplayWidget</text>
<text text-anchor="middle" x="400.5" y="-178.5" font-family="Helvetica,sans-Serif" font-size="10.00">::clear</text>
</a>
</g>
</g>
<!-- Node3&#45;&gt;Node4 -->
<g id="edge3_Node000003_Node000004" class="edge">
<title>Node3&#45;&gt;Node4</title>
<g id="a_edge3_Node000003_Node000004"><a xlink:title=" ">
<path fill="none" stroke="#63b8ff" d="M300.45,-150.72C321.32,-156.53 343.81,-163.43 362.07,-169.69"/>
<polygon fill="#63b8ff" stroke="#63b8ff" points="367.1,-171.44 361.64,-171.93 364.74,-170.62 362.38,-169.8 362.38,-169.8 362.38,-169.8 364.74,-170.62 363.12,-167.68 367.1,-171.44 367.1,-171.44"/>
</a>
</g>
</g>
<!-- Node5 -->
<g id="Node000005" class="node">
<title>Node5</title>
<g id="a_Node000005"><a xlink:href="../../df/d4e/classExactCard.html#a3f86411b4e295afbb68e3fde952d69f9" target="_top" xlink:title="Returns the underlying CardInfoPtr.">
<polygon fill="white" stroke="#666666" points="637.5,-105 513.5,-105 513.5,-86 637.5,-86 637.5,-105"/>
<text text-anchor="middle" x="575.5" y="-93" font-family="Helvetica,sans-Serif" font-size="10.00">ExactCard::getCardPtr</text>
</a>
</g>
</g>
<!-- Node3&#45;&gt;Node5 -->
<g id="edge5_Node000003_Node000005" class="edge">
<title>Node3&#45;&gt;Node5</title>
<g id="a_edge5_Node000003_Node000005"><a xlink:title=" ">
<path fill="none" stroke="#63b8ff" d="M291.97,-123.49C306.23,-120.08 321.61,-116.79 336,-114.5 393.78,-105.29 460.19,-100.46 508.23,-97.98"/>
<polygon fill="#63b8ff" stroke="#63b8ff" points="513.41,-97.72 508.53,-100.22 510.91,-97.85 508.42,-97.97 508.42,-97.97 508.42,-97.97 510.91,-97.85 508.3,-95.73 513.41,-97.72 513.41,-97.72"/>
</a>
</g>
</g>
<!-- Node6 -->
<g id="Node000006" class="node">
<title>Node6</title>
<g id="a_Node000006"><a xlink:href="../../dd/d82/classCardInfoTextWidget.html#aa978ebbcb8533f253b210a8577c2f94e" target="_top" xlink:title=" ">
<polygon fill="white" stroke="#666666" points="457,-153.5 344,-153.5 344,-123.5 457,-123.5 457,-153.5"/>
<text text-anchor="start" x="352" y="-141.5" font-family="Helvetica,sans-Serif" font-size="10.00">CardInfoTextWidget</text>
<text text-anchor="middle" x="400.5" y="-130.5" font-family="Helvetica,sans-Serif" font-size="10.00">::setCard</text>
</a>
</g>
</g>
<!-- Node3&#45;&gt;Node6 -->
<g id="edge6_Node000003_Node000006" class="edge">
<title>Node3&#45;&gt;Node6</title>
<g id="a_edge6_Node000003_Node000006"><a xlink:title=" ">
<path fill="none" stroke="#63b8ff" d="M300.45,-138.5C313.02,-138.5 326.17,-138.5 338.63,-138.5"/>
<polygon fill="#63b8ff" stroke="#63b8ff" points="343.92,-138.5 338.92,-140.75 341.42,-138.5 338.92,-138.5 338.92,-138.5 338.92,-138.5 341.42,-138.5 338.92,-136.25 343.92,-138.5 343.92,-138.5"/>
</a>
</g>
</g>
<!-- Node19 -->
<g id="Node000019" class="node">
<title>Node19</title>
<g id="a_Node000019"><a xlink:href="../../dd/dd2/classCardInfoPictureWidget.html#a123a399de8c54af7d18fc30c4e679c8f" target="_top" xlink:title="Sets the card to be displayed and updates the pixmap.">
<polygon fill="white" stroke="#666666" points="463.5,-67.5 337.5,-67.5 337.5,-37.5 463.5,-37.5 463.5,-67.5"/>
<text text-anchor="start" x="345.5" y="-55.5" font-family="Helvetica,sans-Serif" font-size="10.00">CardInfoPictureWidget</text>
<text text-anchor="middle" x="400.5" y="-44.5" font-family="Helvetica,sans-Serif" font-size="10.00">::setCard</text>
</a>
</g>
</g>
<!-- Node3&#45;&gt;Node19 -->
<g id="edge19_Node000003_Node000019" class="edge">
<title>Node3&#45;&gt;Node19</title>
<g id="a_edge19_Node000003_Node000019"><a xlink:title=" ">
<path fill="none" stroke="#63b8ff" d="M261.5,-123.33C281.42,-111.45 310.14,-94.78 336,-81.5 343.68,-77.56 352,-73.56 360.01,-69.85"/>
<polygon fill="#63b8ff" stroke="#63b8ff" points="364.95,-67.58 361.35,-71.72 362.68,-68.63 360.41,-69.67 360.41,-69.67 360.41,-69.67 362.68,-68.63 359.47,-67.63 364.95,-67.58 364.95,-67.58"/>
</a>
</g>
</g>
<!-- Node4&#45;&gt;Node3 -->
<g id="edge4_Node000004_Node000003" class="edge">
<title>Node4&#45;&gt;Node3</title>
<g id="a_edge4_Node000004_Node000003"><a xlink:title=" ">
<path fill="none" stroke="#63b8ff" d="M335.95,-174.39C315.05,-168.58 292.49,-161.67 274.15,-155.38"/>
<polygon fill="#63b8ff" stroke="#63b8ff" points="269.09,-153.62 274.56,-153.14 271.46,-154.44 273.82,-155.26 273.82,-155.26 273.82,-155.26 271.46,-154.44 273.08,-157.39 269.09,-153.62 269.09,-153.62"/>
</a>
</g>
</g>
<!-- Node7 -->
<g id="Node000007" class="node">
<title>Node7</title>
<g id="a_Node000007"><a xlink:href="../../db/d09/namespaceMtg.html#a36f2153768339ee663b329bd9ede2ed7" target="_top" xlink:title=" ">
<polygon fill="white" stroke="#666666" points="650,-191 501,-191 501,-172 650,-172 650,-191"/>
<text text-anchor="middle" x="575.5" y="-179" font-family="Helvetica,sans-Serif" font-size="10.00">Mtg::getNicePropertyName</text>
</a>
</g>
</g>
<!-- Node6&#45;&gt;Node7 -->
<g id="edge7_Node000006_Node000007" class="edge">
<title>Node6&#45;&gt;Node7</title>
<g id="a_edge7_Node000006_Node000007"><a xlink:title=" ">
<path fill="none" stroke="#63b8ff" d="M457.19,-152.34C481.16,-158.3 508.76,-165.16 531.16,-170.73"/>
<polygon fill="#63b8ff" stroke="#63b8ff" points="536.15,-171.97 530.76,-172.95 533.72,-171.37 531.3,-170.76 531.3,-170.76 531.3,-170.76 533.72,-171.37 531.84,-168.58 536.15,-171.97 536.15,-171.97"/>
</a>
</g>
</g>
<!-- Node18 -->
<g id="Node000018" class="node">
<title>Node18</title>
<g id="a_Node000018"><a xlink:href="../../dd/d82/classCardInfoTextWidget.html#af386312b9a8ec3f6558e36dd9648fb63" target="_top" xlink:title=" ">
<polygon fill="white" stroke="#666666" points="632,-153.5 519,-153.5 519,-123.5 632,-123.5 632,-153.5"/>
<text text-anchor="start" x="527" y="-141.5" font-family="Helvetica,sans-Serif" font-size="10.00">CardInfoTextWidget</text>
<text text-anchor="middle" x="575.5" y="-130.5" font-family="Helvetica,sans-Serif" font-size="10.00">::setTexts</text>
</a>
</g>
</g>
<!-- Node6&#45;&gt;Node18 -->
<g id="edge18_Node000006_Node000018" class="edge">
<title>Node6&#45;&gt;Node18</title>
<g id="a_edge18_Node000006_Node000018"><a xlink:title=" ">
<path fill="none" stroke="#63b8ff" d="M457.19,-138.5C475.25,-138.5 495.37,-138.5 513.77,-138.5"/>
<polygon fill="#63b8ff" stroke="#63b8ff" points="518.91,-138.5 513.91,-140.75 516.41,-138.5 513.91,-138.5 513.91,-138.5 513.91,-138.5 516.41,-138.5 513.91,-136.25 518.91,-138.5 518.91,-138.5"/>
</a>
</g>
</g>
<!-- Node8 -->
<g id="Node000008" class="node">
<title>Node8</title>
<g id="a_Node000008"><a xlink:href="../../db/d09/namespaceMtg.html#a4bc91765ba60a174b43cddf261eee6e0" target="_top" xlink:title=" ">
<polygon fill="white" stroke="#666666" points="799,-357 713,-357 713,-338 799,-338 799,-357"/>
<text text-anchor="middle" x="756" y="-345" font-family="Helvetica,sans-Serif" font-size="10.00">Mtg::CardType</text>
</a>
</g>
</g>
<!-- Node7&#45;&gt;Node8 -->
<g id="edge8_Node000007_Node000008" class="edge">
<title>Node7&#45;&gt;Node8</title>
<g id="a_edge8_Node000007_Node000008"><a xlink:title=" ">
<path fill="none" stroke="#63b8ff" d="M580.8,-191.23C593.06,-217.83 630.92,-292.26 686,-329.5 692.62,-333.98 700.3,-337.34 708.07,-339.87"/>
<polygon fill="#63b8ff" stroke="#63b8ff" points="712.92,-341.34 707.48,-342.04 710.52,-340.61 708.13,-339.89 708.13,-339.89 708.13,-339.89 710.52,-340.61 708.78,-337.74 712.92,-341.34 712.92,-341.34"/>
</a>
</g>
</g>
<!-- Node9 -->
<g id="Node000009" class="node">
<title>Node9</title>
<g id="a_Node000009"><a xlink:href="../../db/d09/namespaceMtg.html#aa9e7a690abc2e0dc46289745bd7bdd36" target="_top" xlink:title=" ">
<polygon fill="white" stroke="#666666" points="808,-320 704,-320 704,-301 808,-301 808,-320"/>
<text text-anchor="middle" x="756" y="-308" font-family="Helvetica,sans-Serif" font-size="10.00">Mtg::ColorIdentity</text>
</a>
</g>
</g>
<!-- Node7&#45;&gt;Node9 -->
<g id="edge9_Node000007_Node000009" class="edge">
<title>Node7&#45;&gt;Node9</title>
<g id="a_edge9_Node000007_Node000009"><a xlink:title=" ">
<path fill="none" stroke="#63b8ff" d="M583.2,-191.22C598.66,-212.91 639.12,-265.43 686,-292.5 690.42,-295.05 695.21,-297.25 700.13,-299.14"/>
<polygon fill="#63b8ff" stroke="#63b8ff" points="705.09,-300.93 699.62,-301.35 702.74,-300.08 700.39,-299.23 700.39,-299.23 700.39,-299.23 702.74,-300.08 701.15,-297.12 705.09,-300.93 705.09,-300.93"/>
</a>
</g>
</g>
<!-- Node10 -->
<g id="Node000010" class="node">
<title>Node10</title>
<g id="a_Node000010"><a xlink:href="../../db/d09/namespaceMtg.html#a5da525cf231e94d4d79947e37d6c544c" target="_top" xlink:title=" ">
<polygon fill="white" stroke="#666666" points="792,-283 720,-283 720,-264 792,-264 792,-283"/>
<text text-anchor="middle" x="756" y="-271" font-family="Helvetica,sans-Serif" font-size="10.00">Mtg::Colors</text>
</a>
</g>
</g>
<!-- Node7&#45;&gt;Node10 -->
<g id="edge10_Node000007_Node000010" class="edge">
<title>Node7&#45;&gt;Node10</title>
<g id="a_edge10_Node000007_Node000010"><a xlink:title=" ">
<path fill="none" stroke="#63b8ff" d="M587.86,-191.13C606.93,-206.82 647.12,-237.91 686,-255.5 695.03,-259.58 705.16,-262.87 714.82,-265.47"/>
<polygon fill="#63b8ff" stroke="#63b8ff" points="719.82,-266.76 714.41,-267.69 717.4,-266.13 714.97,-265.51 714.97,-265.51 714.97,-265.51 717.4,-266.13 715.54,-263.33 719.82,-266.76 719.82,-266.76"/>
</a>
</g>
</g>
<!-- Node11 -->
<g id="Node000011" class="node">
<title>Node11</title>
<g id="a_Node000011"><a xlink:href="../../db/d09/namespaceMtg.html#a3fb71f55ecc93147c59d6ba08fb9e4f6" target="_top" xlink:title=" ">
<polygon fill="white" stroke="#666666" points="826,-246 686,-246 686,-227 826,-227 826,-246"/>
<text text-anchor="middle" x="756" y="-234" font-family="Helvetica,sans-Serif" font-size="10.00">Mtg::ConvertedManaCost</text>
</a>
</g>
</g>
<!-- Node7&#45;&gt;Node11 -->
<g id="edge11_Node000007_Node000011" class="edge">
<title>Node7&#45;&gt;Node11</title>
<g id="a_edge11_Node000007_Node000011"><a xlink:title=" ">
<path fill="none" stroke="#63b8ff" d="M603.33,-191.16C625.39,-198.96 657.55,-209.99 686,-218.5 694.15,-220.94 702.9,-223.36 711.34,-225.61"/>
<polygon fill="#63b8ff" stroke="#63b8ff" points="716.54,-226.98 711.14,-227.88 714.13,-226.34 711.71,-225.71 711.71,-225.71 711.71,-225.71 714.13,-226.34 712.28,-223.53 716.54,-226.98 716.54,-226.98"/>
</a>
</g>
</g>
<!-- Node12 -->
<g id="Node000012" class="node">
<title>Node12</title>
<g id="a_Node000012"><a xlink:href="../../db/d09/namespaceMtg.html#a82f7a7730b5aaea22d60a3d211c2b409" target="_top" xlink:title=" ">
<polygon fill="white" stroke="#666666" points="793,-209 719,-209 719,-190 793,-190 793,-209"/>
<text text-anchor="middle" x="756" y="-197" font-family="Helvetica,sans-Serif" font-size="10.00">Mtg::Layout</text>
</a>
</g>
</g>
<!-- Node7&#45;&gt;Node12 -->
<g id="edge12_Node000007_Node000012" class="edge">
<title>Node7&#45;&gt;Node12</title>
<g id="a_edge12_Node000007_Node000012"><a xlink:title=" ">
<path fill="none" stroke="#63b8ff" d="M650.13,-188.93C671.73,-191.1 694.58,-193.41 713.42,-195.31"/>
<polygon fill="#63b8ff" stroke="#63b8ff" points="718.63,-195.83 713.43,-197.57 716.14,-195.58 713.65,-195.33 713.65,-195.33 713.65,-195.33 716.14,-195.58 713.88,-193.09 718.63,-195.83 718.63,-195.83"/>
</a>
</g>
</g>
<!-- Node13 -->
<g id="Node000013" class="node">
<title>Node13</title>
<g id="a_Node000013"><a xlink:href="../../db/d09/namespaceMtg.html#ab68cb693c7c07a4d535d93c6e670575b" target="_top" xlink:title=" ">
<polygon fill="white" stroke="#666666" points="794.5,-172 717.5,-172 717.5,-153 794.5,-153 794.5,-172"/>
<text text-anchor="middle" x="756" y="-160" font-family="Helvetica,sans-Serif" font-size="10.00">Mtg::Loyalty</text>
</a>
</g>
</g>
<!-- Node7&#45;&gt;Node13 -->
<g id="edge13_Node000007_Node000013" class="edge">
<title>Node7&#45;&gt;Node13</title>
<g id="a_edge13_Node000007_Node000013"><a xlink:title=" ">
<path fill="none" stroke="#63b8ff" d="M650.13,-173.66C671.2,-171.42 693.47,-169.05 712.04,-167.07"/>
<polygon fill="#63b8ff" stroke="#63b8ff" points="717.17,-166.53 712.44,-169.29 714.69,-166.79 712.2,-167.06 712.2,-167.06 712.2,-167.06 714.69,-166.79 711.96,-164.82 717.17,-166.53 717.17,-166.53"/>
</a>
</g>
</g>
<!-- Node14 -->
<g id="Node000014" class="node">
<title>Node14</title>
<g id="a_Node000014"><a xlink:href="../../db/d09/namespaceMtg.html#a8b1a66b6f4507b51736651f1d13e5215" target="_top" xlink:title=" ">
<polygon fill="white" stroke="#666666" points="811,-135 701,-135 701,-116 811,-116 811,-135"/>
<text text-anchor="middle" x="756" y="-123" font-family="Helvetica,sans-Serif" font-size="10.00">Mtg::MainCardType</text>
</a>
</g>
</g>
<!-- Node7&#45;&gt;Node14 -->
<g id="edge14_Node000007_Node000014" class="edge">
<title>Node7&#45;&gt;Node14</title>
<g id="a_edge14_Node000007_Node000014"><a xlink:title=" ">
<path fill="none" stroke="#63b8ff" d="M619.72,-171.95C629.79,-169.28 640.37,-166.11 650,-162.5 666.75,-156.23 669.3,-150.9 686,-144.5 693.69,-141.55 702.01,-138.86 710.14,-136.48"/>
<polygon fill="#63b8ff" stroke="#63b8ff" points="715.16,-135.05 710.97,-138.58 712.76,-135.73 710.36,-136.42 710.36,-136.42 710.36,-136.42 712.76,-135.73 709.74,-134.26 715.16,-135.05 715.16,-135.05"/>
</a>
</g>
</g>
<!-- Node15 -->
<g id="Node000015" class="node">
<title>Node15</title>
<g id="a_Node000015"><a xlink:href="../../db/d09/namespaceMtg.html#a843d0543bb7a8dc0e34569c65b5c4e14" target="_top" xlink:title=" ">
<polygon fill="white" stroke="#666666" points="801,-98 711,-98 711,-79 801,-79 801,-98"/>
<text text-anchor="middle" x="756" y="-86" font-family="Helvetica,sans-Serif" font-size="10.00">Mtg::ManaCost</text>
</a>
</g>
</g>
<!-- Node7&#45;&gt;Node15 -->
<g id="edge15_Node000007_Node000015" class="edge">
<title>Node7&#45;&gt;Node15</title>
<g id="a_edge15_Node000007_Node000015"><a xlink:title=" ">
<path fill="none" stroke="#63b8ff" d="M631.9,-172C638.33,-169.53 644.54,-166.42 650,-162.5 673.74,-145.48 662.39,-124.71 686,-107.5 691.95,-103.16 698.85,-99.81 705.94,-97.22"/>
<polygon fill="#63b8ff" stroke="#63b8ff" points="710.87,-95.55 706.85,-99.29 708.5,-96.36 706.13,-97.16 706.13,-97.16 706.13,-97.16 708.5,-96.36 705.41,-95.03 710.87,-95.55 710.87,-95.55"/>
</a>
</g>
</g>
<!-- Node16 -->
<g id="Node000016" class="node">
<title>Node16</title>
<g id="a_Node000016"><a xlink:href="../../db/d09/namespaceMtg.html#a417d3f54883a6f7af31b0e542dd0fa75" target="_top" xlink:title=" ">
<polygon fill="white" stroke="#666666" points="801,-61 711,-61 711,-42 801,-42 801,-61"/>
<text text-anchor="middle" x="756" y="-49" font-family="Helvetica,sans-Serif" font-size="10.00">Mtg::PowTough</text>
</a>
</g>
</g>
<!-- Node7&#45;&gt;Node16 -->
<g id="edge16_Node000007_Node000016" class="edge">
<title>Node7&#45;&gt;Node16</title>
<g id="a_edge16_Node000007_Node000016"><a xlink:title=" ">
<path fill="none" stroke="#63b8ff" d="M635.31,-171.91C640.64,-169.43 645.66,-166.35 650,-162.5 682.85,-133.37 653.38,-99.89 686,-70.5 691.63,-65.43 698.48,-61.7 705.67,-58.96"/>
<polygon fill="#63b8ff" stroke="#63b8ff" points="710.68,-57.21 706.7,-60.98 708.32,-58.03 705.96,-58.85 705.96,-58.85 705.96,-58.85 708.32,-58.03 705.22,-56.73 710.68,-57.21 710.68,-57.21"/>
</a>
</g>
</g>
<!-- Node17 -->
<g id="Node000017" class="node">
<title>Node17</title>
<g id="a_Node000017"><a xlink:href="../../db/d09/namespaceMtg.html#a5b271237e604b4bf42c6b8eea641f4b5" target="_top" xlink:title=" ">
<polygon fill="white" stroke="#666666" points="787,-24 725,-24 725,-5 787,-5 787,-24"/>
<text text-anchor="middle" x="756" y="-12" font-family="Helvetica,sans-Serif" font-size="10.00">Mtg::Side</text>
</a>
</g>
</g>
<!-- Node7&#45;&gt;Node17 -->
<g id="edge17_Node000007_Node000017" class="edge">
<title>Node7&#45;&gt;Node17</title>
<g id="a_edge17_Node000007_Node000017"><a xlink:title=" ">
<path fill="none" stroke="#63b8ff" d="M636.79,-171.82C641.64,-169.35 646.15,-166.29 650,-162.5 692.76,-120.47 643.29,-74.57 686,-32.5 694.95,-23.68 707.65,-19.03 719.72,-16.62"/>
<polygon fill="#63b8ff" stroke="#63b8ff" points="724.84,-15.72 720.31,-18.8 722.38,-16.15 719.92,-16.58 719.92,-16.58 719.92,-16.58 722.38,-16.15 719.53,-14.37 724.84,-15.72 724.84,-15.72"/>
</a>
</g>
</g>
<!-- Node19&#45;&gt;Node5 -->
<g id="edge20_Node000019_Node000005" class="edge">
<title>Node19&#45;&gt;Node5</title>
<g id="a_edge20_Node000019_Node000005"><a xlink:title=" ">
<path fill="none" stroke="#63b8ff" d="M462.01,-67.54C484.83,-73.21 510.31,-79.55 531.25,-84.75"/>
<polygon fill="#63b8ff" stroke="#63b8ff" points="536.19,-85.98 530.79,-86.96 533.76,-85.37 531.34,-84.77 531.34,-84.77 531.34,-84.77 533.76,-85.37 531.88,-82.59 536.19,-85.98 536.19,-85.98"/>
</a>
</g>
</g>
<!-- Node20 -->
<g id="Node000020" class="node">
<title>Node20</title>
<g id="a_Node000020"><a xlink:href="../../dd/dd2/classCardInfo.html#ae3038736850ab030b20f81bf1426a19b" target="_top" xlink:title="Emitted when a pixmap for this card has been updated or finished loading.">
<polygon fill="white" stroke="#666666" points="646.5,-19 504.5,-19 504.5,0 646.5,0 646.5,-19"/>
<text text-anchor="middle" x="575.5" y="-7" font-family="Helvetica,sans-Serif" font-size="10.00">CardInfo::pixmapUpdated</text>
</a>
</g>
</g>
<!-- Node19&#45;&gt;Node20 -->
<g id="edge21_Node000019_Node000020" class="edge">
<title>Node19&#45;&gt;Node20</title>
<g id="a_edge21_Node000019_Node000020"><a xlink:title=" ">
<path fill="none" stroke="#63b8ff" d="M462.01,-37.46C484.83,-31.79 510.31,-25.45 531.25,-20.25"/>
<polygon fill="#63b8ff" stroke="#63b8ff" points="536.19,-19.02 531.88,-22.41 533.76,-19.63 531.34,-20.23 531.34,-20.23 531.34,-20.23 533.76,-19.63 530.79,-18.04 536.19,-19.02 536.19,-19.02"/>
</a>
</g>
</g>
<!-- Node21 -->
<g id="Node000021" class="node">
<title>Node21</title>
<g id="a_Node000021"><a xlink:href="../../dd/dd2/classCardInfoPictureWidget.html#a7f4df09cb703aca47d804cc0fe3c03bb" target="_top" xlink:title="Marks the pixmap as dirty and triggers a widget repaint.">
<polygon fill="white" stroke="#666666" points="638.5,-67.5 512.5,-67.5 512.5,-37.5 638.5,-37.5 638.5,-67.5"/>
<text text-anchor="start" x="520.5" y="-55.5" font-family="Helvetica,sans-Serif" font-size="10.00">CardInfoPictureWidget</text>
<text text-anchor="middle" x="575.5" y="-44.5" font-family="Helvetica,sans-Serif" font-size="10.00">::updatePixmap</text>
</a>
</g>
</g>
<!-- Node19&#45;&gt;Node21 -->
<g id="edge22_Node000019_Node000021" class="edge">
<title>Node19&#45;&gt;Node21</title>
<g id="a_edge22_Node000019_Node000021"><a xlink:title=" ">
<path fill="none" stroke="#63b8ff" d="M463.96,-52.5C478.01,-52.5 492.98,-52.5 507.22,-52.5"/>
<polygon fill="#63b8ff" stroke="#63b8ff" points="512.42,-52.5 507.42,-54.75 509.92,-52.5 507.42,-52.5 507.42,-52.5 507.42,-52.5 509.92,-52.5 507.42,-50.25 512.42,-52.5 512.42,-52.5"/>
</a>
</g>
</g>
</g>
</svg>
