<?xml version="1.0" encoding="UTF-8" standalone="no"?>
<!DOCTYPE svg PUBLIC "-//W3C//DTD SVG 1.1//EN"
 "http://www.w3.org/Graphics/SVG/1.1/DTD/svg11.dtd">
<!-- Generated by graphviz version 2.43.0 (0)
 -->
<!-- Title: DeckListModel::setDeckList Pages: 1 -->
<!--zoomable 155 -->

<svg id="main" version="1.1" xmlns="http://www.w3.org/2000/svg" xmlns:xlink="http://www.w3.org/1999/xlink" xml:space="preserve" onload="init(evt)">

<style type="text/css"><![CDATA[
.node, .edge {opacity: 0.7;}
.node.selected, .edge.selected {opacity: 1;}
.edge:hover path { stroke: red; }
.edge:hover polygon { stroke: red; fill: red; }
]]></style>

<defs>
  <circle id="rim" cx="0" cy="0" r="7"/>
  <circle id="rim2" cx="0" cy="0" r="3.5"/>
  <g id="zoomPlus">
    <use xlink:href="#rim" fill="#404040"><set attributeName="fill" to="#808080" begin="zoomplus.mouseover" end="zoomplus.mouseout"/></use>
    <path d="M-4,0h8M0,-4v8" fill="none" stroke="white" stroke-width="1.5" pointer-events="none"/>
  </g>
  <g id="zoomMin">
    <use xlink:href="#rim" fill="#404040"><set attributeName="fill" to="#808080" begin="zoomminus.mouseover" end="zoomminus.mouseout"/></use>
    <path d="M-4,0h8" fill="none" stroke="white" stroke-width="1.5" pointer-events="none"/>
  </g>
  <g id="arrowUp" transform="translate(30 24)">
    <use xlink:href="#rim"/>
    <path pointer-events="none" fill="none" stroke="white" stroke-width="1.5" d="M0,-3.0v7 M-2.5,-0.5L0,-3.0L2.5,-0.5"/>
  </g>
  <g id="arrowRight" transform="rotate(90) translate(36 -43)">
    <use xlink:href="#rim"/>
    <path pointer-events="none" fill="none" stroke="white" stroke-width="1.5" d="M0,-3.0v7 M-2.5,-0.5L0,-3.0L2.5,-0.5"/>
  </g>
  <g id="arrowDown" transform="rotate(180) translate(-30 -48)">
    <use xlink:href="#rim"/>
    <path pointer-events="none" fill="none" stroke="white" stroke-width="1.5" d="M0,-3.0v7 M-2.5,-0.5L0,-3.0L2.5,-0.5"/>
  </g>
  <g id="arrowLeft" transform="rotate(270) translate(-36 17)">
    <use xlink:href="#rim"/>
    <path pointer-events="none" fill="none" stroke="white" stroke-width="1.5" d="M0,-3.0v7 M-2.5,-0.5L0,-3.0L2.5,-0.5"/>
  </g>
  <g id="resetDef">
    <use xlink:href="#rim2" fill="#404040"><set attributeName="fill" to="#808080" begin="reset.mouseover" end="reset.mouseout"/></use>
  </g>
</defs>
<script type="application/ecmascript">
var viewWidth = 918;
var viewHeight = 155;
var sectionId = 'dynsection-48';
</script>
<script type="application/ecmascript" xlink:href="../../svg.min.js"/>
<svg id="graph" class="graph">
<g id="viewport">
<title>DeckListModel::setDeckList</title>
<!-- Node1 -->
<g id="Node000001" class="node">
<title>Node1</title>
<g id="a_Node000001"><a xlink:title=" ">
<polygon fill="#999999" stroke="#666666" points="152,-93.5 0,-93.5 0,-74.5 152,-74.5 152,-93.5"/>
<text text-anchor="middle" x="76" y="-81.5" font-family="Helvetica,sans-Serif" font-size="10.00">DeckListModel::setDeckList</text>
</a>
</g>
</g>
<!-- Node2 -->
<g id="Node000002" class="node">
<title>Node2</title>
<g id="a_Node000002"><a xlink:href="../../d9/de1/classDeckListModel.html#a0f1a16328bef79628489b3384cf9377b" target="_top" xlink:title="Rebuilds the model tree from the underlying DeckLoader.">
<polygon fill="white" stroke="#666666" points="337,-93.5 188,-93.5 188,-74.5 337,-74.5 337,-93.5"/>
<text text-anchor="middle" x="262.5" y="-81.5" font-family="Helvetica,sans-Serif" font-size="10.00">DeckListModel::rebuildTree</text>
</a>
</g>
</g>
<!-- Node1&#45;&gt;Node2 -->
<g id="edge1_Node000001_Node000002" class="edge">
<title>Node1&#45;&gt;Node2</title>
<g id="a_edge1_Node000001_Node000002"><a xlink:title=" ">
<path fill="none" stroke="#63b8ff" d="M152.04,-84C162.07,-84 172.37,-84 182.46,-84"/>
<polygon fill="#63b8ff" stroke="#63b8ff" points="187.72,-84 182.72,-86.25 185.22,-84 182.72,-84 182.72,-84 182.72,-84 185.22,-84 182.72,-81.75 187.72,-84 187.72,-84"/>
</a>
</g>
</g>
<!-- Node3 -->
<g id="Node000003" class="node">
<title>Node3</title>
<g id="a_Node000003"><a xlink:href="../../d8/dbe/classCardDatabaseQuerier.html#aadf83692b2220aedcfb3e9b36070acb7" target="_top" xlink:title="Retrieves a card by its exact name.">
<polygon fill="white" stroke="#666666" points="522,-147 400,-147 400,-117 522,-117 522,-147"/>
<text text-anchor="start" x="408" y="-135" font-family="Helvetica,sans-Serif" font-size="10.00">CardDatabaseQuerier</text>
<text text-anchor="middle" x="461" y="-124" font-family="Helvetica,sans-Serif" font-size="10.00">::getCardInfo</text>
</a>
</g>
</g>
<!-- Node2&#45;&gt;Node3 -->
<g id="edge2_Node000002_Node000003" class="edge">
<title>Node2&#45;&gt;Node3</title>
<g id="a_edge2_Node000002_Node000003"><a xlink:title=" ">
<path fill="none" stroke="#63b8ff" d="M302.79,-93.6C329.05,-100.01 364.22,-108.6 394.64,-116.03"/>
<polygon fill="#63b8ff" stroke="#63b8ff" points="399.87,-117.31 394.48,-118.31 397.44,-116.72 395.01,-116.12 395.01,-116.12 395.01,-116.12 397.44,-116.72 395.54,-113.94 399.87,-117.31 399.87,-117.31"/>
</a>
</g>
</g>
<!-- Node4 -->
<g id="Node000004" class="node">
<title>Node4</title>
<g id="a_Node000004"><a xlink:href="../../d9/de1/classDeckListModel.html#a988e1ea8c2f4f64d070ccb45afeee140" target="_top" xlink:title="Returns the value of the grouping category for a card based on the current criteria.">
<polygon fill="white" stroke="#666666" points="549,-99 373,-99 373,-69 549,-69 549,-99"/>
<text text-anchor="start" x="381" y="-87" font-family="Helvetica,sans-Serif" font-size="10.00">DeckListModel::getGroupCriteria</text>
<text text-anchor="middle" x="461" y="-76" font-family="Helvetica,sans-Serif" font-size="10.00">ForCard</text>
</a>
</g>
</g>
<!-- Node2&#45;&gt;Node4 -->
<g id="edge3_Node000002_Node000004" class="edge">
<title>Node2&#45;&gt;Node4</title>
<g id="a_edge3_Node000002_Node000004"><a xlink:title=" ">
<path fill="none" stroke="#63b8ff" d="M337.23,-84C347.24,-84 357.62,-84 367.91,-84"/>
<polygon fill="#63b8ff" stroke="#63b8ff" points="372.95,-84 367.95,-86.25 370.45,-84 367.95,-84 367.95,-84 367.95,-84 370.45,-84 367.95,-81.75 372.95,-84 372.95,-84"/>
</a>
</g>
</g>
<!-- Node5 -->
<g id="Node000005" class="node">
<title>Node5</title>
<g id="a_Node000005"><a xlink:href="../../dc/db4/classCardDatabaseManager.html#a7dc153d2d7691d69916d2154a05c5ed1" target="_top" xlink:title="Returns the CardDatabaseQuerier of the singleton database.">
<polygon fill="white" stroke="#666666" points="525,-51 397,-51 397,-21 525,-21 525,-51"/>
<text text-anchor="start" x="405" y="-39" font-family="Helvetica,sans-Serif" font-size="10.00">CardDatabaseManager</text>
<text text-anchor="middle" x="461" y="-28" font-family="Helvetica,sans-Serif" font-size="10.00">::query</text>
</a>
</g>
</g>
<!-- Node2&#45;&gt;Node5 -->
<g id="edge4_Node000002_Node000005" class="edge">
<title>Node2&#45;&gt;Node5</title>
<g id="a_edge4_Node000002_Node000005"><a xlink:title=" ">
<path fill="none" stroke="#63b8ff" d="M302.79,-74.4C328.63,-68.09 363.09,-59.67 393.16,-52.33"/>
<polygon fill="#63b8ff" stroke="#63b8ff" points="398.34,-51.06 394.01,-54.44 395.91,-51.66 393.48,-52.25 393.48,-52.25 393.48,-52.25 395.91,-51.66 392.94,-50.06 398.34,-51.06 398.34,-51.06"/>
</a>
</g>
</g>
<!-- Node6 -->
<g id="Node000006" class="node">
<title>Node6</title>
<g id="a_Node000006"><a xlink:href="../../dc/db4/classCardDatabaseManager.html#ad3973b040eb93df3be6bd2e790c53d59" target="_top" xlink:title="Returns the singleton CardDatabase instance.">
<polygon fill="white" stroke="#666666" points="713,-73 585,-73 585,-43 713,-43 713,-73"/>
<text text-anchor="start" x="593" y="-61" font-family="Helvetica,sans-Serif" font-size="10.00">CardDatabaseManager</text>
<text text-anchor="middle" x="649" y="-50" font-family="Helvetica,sans-Serif" font-size="10.00">::getInstance</text>
</a>
</g>
</g>
<!-- Node5&#45;&gt;Node6 -->
<g id="edge5_Node000005_Node000006" class="edge">
<title>Node5&#45;&gt;Node6</title>
<g id="a_edge5_Node000005_Node000006"><a xlink:title=" ">
<path fill="none" stroke="#63b8ff" d="M525.23,-43.48C542.85,-45.56 562.06,-47.83 579.94,-49.95"/>
<polygon fill="#63b8ff" stroke="#63b8ff" points="584.94,-50.54 579.71,-52.19 582.46,-50.25 579.98,-49.95 579.98,-49.95 579.98,-49.95 582.46,-50.25 580.24,-47.72 584.94,-50.54 584.94,-50.54"/>
</a>
</g>
</g>
<!-- Node7 -->
<g id="Node000007" class="node">
<title>Node7</title>
<g id="a_Node000007"><a xlink:href="../../d5/d45/classCardDatabase.html#affe0baec75387712dc3a93199b56fc08" target="_top" xlink:title="Returns the querier for performing card lookups.">
<polygon fill="white" stroke="#666666" points="708.5,-24.5 589.5,-24.5 589.5,-5.5 708.5,-5.5 708.5,-24.5"/>
<text text-anchor="middle" x="649" y="-12.5" font-family="Helvetica,sans-Serif" font-size="10.00">CardDatabase::query</text>
</a>
</g>
</g>
<!-- Node5&#45;&gt;Node7 -->
<g id="edge6_Node000005_Node000007" class="edge">
<title>Node5&#45;&gt;Node7</title>
<g id="a_edge6_Node000005_Node000007"><a xlink:title=" ">
<path fill="none" stroke="#63b8ff" d="M525.23,-28.86C544.19,-26.72 565.01,-24.37 584.02,-22.22"/>
<polygon fill="#63b8ff" stroke="#63b8ff" points="589.33,-21.62 584.61,-24.42 586.85,-21.9 584.36,-22.19 584.36,-22.19 584.36,-22.19 586.85,-21.9 584.11,-19.95 589.33,-21.62 589.33,-21.62"/>
</a>
</g>
</g>
<!-- Node8 -->
<g id="Node000008" class="node">
<title>Node8</title>
<g id="a_Node000008"><a xlink:href="../../d5/d45/classCardDatabase.html#ac86d4003efc8430ad7363557149e0e5a" target="_top" xlink:title=" ">
<polygon fill="white" stroke="#666666" points="910,-30 749,-30 749,0 910,0 910,-30"/>
<text text-anchor="start" x="757" y="-18" font-family="Helvetica,sans-Serif" font-size="10.00">CardDatabase::CardDatabase</text>
<text text-anchor="middle" x="829.5" y="-7" font-family="Helvetica,sans-Serif" font-size="10.00">Querier</text>
</a>
</g>
</g>
<!-- Node7&#45;&gt;Node8 -->
<g id="edge7_Node000007_Node000008" class="edge">
<title>Node7&#45;&gt;Node8</title>
<g id="a_edge7_Node000007_Node000008"><a xlink:title=" ">
<path fill="none" stroke="#63b8ff" d="M708.94,-15C720.14,-15 732.06,-15 743.87,-15"/>
<polygon fill="#63b8ff" stroke="#63b8ff" points="748.92,-15 743.92,-17.25 746.42,-15 743.92,-15 743.92,-15 743.92,-15 746.42,-15 743.92,-12.75 748.92,-15 748.92,-15"/>
</a>
</g>
</g>
<!-- Node8&#45;&gt;Node8 -->
<g id="edge8_Node000008_Node000008" class="edge">
<title>Node8&#45;&gt;Node8</title>
<g id="a_edge8_Node000008_Node000008"><a xlink:title=" ">
<path fill="none" stroke="#63b8ff" d="M797.86,-30.28C790.83,-39.41 801.38,-48 829.5,-48 852.79,-48 864.03,-42.11 863.21,-34.89"/>
<polygon fill="#63b8ff" stroke="#63b8ff" points="861.14,-30.28 865.24,-33.92 862.16,-32.56 863.18,-34.84 863.18,-34.84 863.18,-34.84 862.16,-32.56 861.13,-35.76 861.14,-30.28 861.14,-30.28"/>
</a>
</g>
</g>
</g>
</svg>

<g id="navigator" transform="translate(0 0)" fill="#404254">
  <rect fill="#f2f5e9" fill-opacity="0.5" stroke="#606060" stroke-width=".5" x="0" y="0" width="60" height="60"/>
  <use id="zoomplus" xlink:href="#zoomPlus" x="17" y="9" onmousedown="handleZoom(evt,'in')"/>
  <use id="zoomminus" xlink:href="#zoomMin" x="42" y="9" onmousedown="handleZoom(evt,'out')"/>
  <use id="reset" xlink:href="#resetDef" x="30" y="36" onmousedown="handleReset()"/>
   <use id="arrowup" xlink:href="#arrowUp" x="0" y="0" onmousedown="handlePan(0,-1)"/>
  <use id="arrowright" xlink:href="#arrowRight" x="0" y="0" onmousedown="handlePan(1,0)"/>
  <use id="arrowdown" xlink:href="#arrowDown" x="0" y="0" onmousedown="handlePan(0,1)"/>
  <use id="arrowleft" xlink:href="#arrowLeft" x="0" y="0" onmousedown="handlePan(-1,0)"/>
</g>
<svg viewBox="0 0 15 15" width="100%" height="30px" preserveAspectRatio="xMaxYMin meet">
 <g id="arrow_out" transform="scale(0.3 0.3)">
  <a xlink:href="classDeckListModel_a889eec45c358f6de21561faa009eb090_cgraph_org.svg" target="_base">
   <rect id="button" ry="5" rx="5" y="6" x="6" height="38" width="38"
        fill="#f2f5e9" fill-opacity="0.5" stroke="#606060" stroke-width="1.0"/>
   <path id="arrow"
     d="M 11.500037,31.436501 C 11.940474,20.09759 22.043105,11.32322 32.158766,21.979434 L 37.068811,17.246167 C 37.068811,17.246167 37.088388,32 37.088388,32 L 22.160133,31.978069 C 22.160133,31.978069 26.997745,27.140456 26.997745,27.140456 C 18.528582,18.264221 13.291696,25.230495 11.500037,31.436501 z"
     style="fill:#404040;"/>
  </a>
 </g>
</svg>

<style type='text/css'>
<![CDATA[
[data-mouse-over-selected='false'] { opacity: 0.7; }
[data-mouse-over-selected='true']  { opacity: 1.0; }
]]>
</style>
<script type="application/ecmascript"><![CDATA[
document.addEventListener('DOMContentLoaded', (event) => {
  highlightEdges();
  highlightAdjacentNodes();
});
]]></script>
</svg>
