<?xml version="1.0" encoding="UTF-8" standalone="no"?>
<!DOCTYPE svg PUBLIC "-//W3C//DTD SVG 1.1//EN"
 "http://www.w3.org/Graphics/SVG/1.1/DTD/svg11.dtd">
<!-- Generated by graphviz version 2.43.0 (0)
 -->
<!-- Title: DeckListModel::addCard Pages: 1 -->
<svg width="1087pt" height="682pt"
 viewBox="0.00 0.00 1087.00 681.50" xmlns="http://www.w3.org/2000/svg" xmlns:xlink="http://www.w3.org/1999/xlink">
<g id="graph0" class="graph" transform="scale(1 1) rotate(0) translate(4 677.5)">
<title>DeckListModel::addCard</title>
<!-- Node1 -->
<g id="Node000001" class="node">
<title>Node1</title>
<g id="a_Node000001"><a xlink:title="Adds an ExactCard to the specified zone.">
<polygon fill="#999999" stroke="#666666" points="135,-338 0,-338 0,-319 135,-319 135,-338"/>
<text text-anchor="middle" x="67.5" y="-326" font-family="Helvetica,sans-Serif" font-size="10.00">DeckListModel::addCard</text>
</a>
</g>
</g>
<!-- Node2 -->
<g id="Node000002" class="node">
<title>Node2</title>
<g id="a_Node000002"><a xlink:href="../../da/d68/classDeckList.html#ad1499a5ac48513895f9fca6b583378d4" target="_top" xlink:title=" ">
<polygon fill="white" stroke="#666666" points="311.5,-663 206.5,-663 206.5,-644 311.5,-644 311.5,-663"/>
<text text-anchor="middle" x="259" y="-651" font-family="Helvetica,sans-Serif" font-size="10.00">DeckList::addCard</text>
</a>
</g>
</g>
<!-- Node1&#45;&gt;Node2 -->
<g id="edge1_Node000001_Node000002" class="edge">
<title>Node1&#45;&gt;Node2</title>
<g id="a_edge1_Node000001_Node000002"><a xlink:title=" ">
<path fill="none" stroke="#63b8ff" d="M68.7,-338.01C70.13,-379.33 81.42,-545.06 171,-629.5 179.48,-637.49 190.38,-642.87 201.57,-646.47"/>
<polygon fill="#63b8ff" stroke="#63b8ff" points="206.38,-647.91 200.94,-648.63 203.98,-647.19 201.59,-646.48 201.59,-646.48 201.59,-646.48 203.98,-647.19 202.23,-644.32 206.38,-647.91 206.38,-647.91"/>
</a>
</g>
</g>
<!-- Node4 -->
<g id="Node000004" class="node">
<title>Node4</title>
<g id="a_Node000004"><a xlink:href="../../da/d68/classDeckList.html#a4854d1f1622e53e8d0261b0536f7c546" target="_top" xlink:title=" ">
<polygon fill="white" stroke="#666666" points="533,-625 384,-625 384,-606 533,-606 533,-625"/>
<text text-anchor="middle" x="458.5" y="-613" font-family="Helvetica,sans-Serif" font-size="10.00">DeckList::refreshDeckHash</text>
</a>
</g>
</g>
<!-- Node1&#45;&gt;Node4 -->
<g id="edge28_Node000001_Node000004" class="edge">
<title>Node1&#45;&gt;Node4</title>
<g id="a_edge28_Node000001_Node000004"><a xlink:title=" ">
<path fill="none" stroke="#63b8ff" d="M68.84,-338C70.82,-377.11 84.02,-526.56 171,-591.5 240.15,-643.13 346.57,-635.97 408.38,-625.88"/>
<polygon fill="#63b8ff" stroke="#63b8ff" points="413.49,-625.02 408.93,-628.07 411.02,-625.44 408.56,-625.85 408.56,-625.85 408.56,-625.85 411.02,-625.44 408.18,-623.63 413.49,-625.02 413.49,-625.02"/>
</a>
</g>
</g>
<!-- Node6 -->
<g id="Node000006" class="node">
<title>Node6</title>
<g id="a_Node000006"><a xlink:href="../../d9/de1/classDeckListModel.html#aceb783126435fc113dcb903a9ef31f0f" target="_top" xlink:title=" ">
<polygon fill="white" stroke="#666666" points="534,-549.5 383,-549.5 383,-519.5 534,-519.5 534,-549.5"/>
<text text-anchor="start" x="391" y="-537.5" font-family="Helvetica,sans-Serif" font-size="10.00">DeckListModel::createNode</text>
<text text-anchor="middle" x="458.5" y="-526.5" font-family="Helvetica,sans-Serif" font-size="10.00">IfNeeded</text>
</a>
</g>
</g>
<!-- Node1&#45;&gt;Node6 -->
<g id="edge5_Node000001_Node000006" class="edge">
<title>Node1&#45;&gt;Node6</title>
<g id="a_edge5_Node000001_Node000006"><a xlink:title=" ">
<path fill="none" stroke="#63b8ff" d="M70.26,-338.35C76.72,-371.15 102.37,-477.03 171,-520.5 233.2,-559.9 319.11,-558.46 380.6,-550.21"/>
<polygon fill="#63b8ff" stroke="#63b8ff" points="385.73,-549.5 381.08,-552.42 383.25,-549.84 380.77,-550.19 380.77,-550.19 380.77,-550.19 383.25,-549.84 380.47,-547.96 385.73,-549.5 385.73,-549.5"/>
</a>
</g>
</g>
<!-- Node7 -->
<g id="Node000007" class="node">
<title>Node7</title>
<g id="a_Node000007"><a xlink:href="../../d9/de1/classDeckListModel.html#a6da8127a70966e36d96ebf7cb4eb007d" target="_top" xlink:title=" ">
<polygon fill="white" stroke="#666666" points="921,-544 765,-544 765,-525 921,-525 921,-544"/>
<text text-anchor="middle" x="843" y="-532" font-family="Helvetica,sans-Serif" font-size="10.00">DeckListModel::nodeToIndex</text>
</a>
</g>
</g>
<!-- Node1&#45;&gt;Node7 -->
<g id="edge27_Node000001_Node000007" class="edge">
<title>Node1&#45;&gt;Node7</title>
<g id="a_edge27_Node000001_Node000007"><a xlink:title=" ">
<path fill="none" stroke="#63b8ff" d="M69.49,-338.38C73.7,-374.53 93.63,-500.09 171,-551.5 269.5,-616.95 633.6,-567.93 780.23,-544.81"/>
<polygon fill="#63b8ff" stroke="#63b8ff" points="785.35,-544 780.76,-547.01 782.88,-544.39 780.41,-544.78 780.41,-544.78 780.41,-544.78 782.88,-544.39 780.06,-542.56 785.35,-544 785.35,-544"/>
</a>
</g>
</g>
<!-- Node10 -->
<g id="Node000010" class="node">
<title>Node10</title>
<g id="a_Node000010"><a xlink:href="../../d9/de1/classDeckListModel.html#a4a2fe2b0098a76b175b947bf5996c457" target="_top" xlink:title=" ">
<polygon fill="white" stroke="#666666" points="341.5,-493.5 176.5,-493.5 176.5,-463.5 341.5,-463.5 341.5,-493.5"/>
<text text-anchor="start" x="184.5" y="-481.5" font-family="Helvetica,sans-Serif" font-size="10.00">DeckListModel::emitRecursive</text>
<text text-anchor="middle" x="259" y="-470.5" font-family="Helvetica,sans-Serif" font-size="10.00">Updates</text>
</a>
</g>
</g>
<!-- Node1&#45;&gt;Node10 -->
<g id="edge11_Node000001_Node000010" class="edge">
<title>Node1&#45;&gt;Node10</title>
<g id="a_edge11_Node000001_Node000010"><a xlink:title=" ">
<path fill="none" stroke="#63b8ff" d="M73.51,-338.09C86.34,-361.71 122.84,-423.05 171,-454.5 174.85,-457.02 178.97,-459.27 183.23,-461.29"/>
<polygon fill="#63b8ff" stroke="#63b8ff" points="187.92,-463.39 182.43,-463.4 185.63,-462.37 183.35,-461.35 183.35,-461.35 183.35,-461.35 185.63,-462.37 184.28,-459.29 187.92,-463.39 187.92,-463.39"/>
</a>
</g>
</g>
<!-- Node12 -->
<g id="Node000012" class="node">
<title>Node12</title>
<g id="a_Node000012"><a xlink:href="../../d4/d55/classInnerDecklistNode.html#a4f08f49557660bd24e2e2e705b6596b9" target="_top" xlink:title="Find a child card node by name, provider ID, and collector number.">
<polygon fill="white" stroke="#666666" points="341,-397 177,-397 177,-356 341,-356 341,-397"/>
<text text-anchor="start" x="185" y="-385" font-family="Helvetica,sans-Serif" font-size="10.00">InnerDecklistNode::</text>
<text text-anchor="start" x="185" y="-374" font-family="Helvetica,sans-Serif" font-size="10.00">findCardChildByNameProvider</text>
<text text-anchor="middle" x="259" y="-363" font-family="Helvetica,sans-Serif" font-size="10.00">IdAndNumber</text>
</a>
</g>
</g>
<!-- Node1&#45;&gt;Node12 -->
<g id="edge15_Node000001_Node000012" class="edge">
<title>Node1&#45;&gt;Node12</title>
<g id="a_edge15_Node000001_Node000012"><a xlink:title=" ">
<path fill="none" stroke="#63b8ff" d="M106.39,-338.1C125.25,-342.87 148.87,-348.86 171.82,-354.67"/>
<polygon fill="#63b8ff" stroke="#63b8ff" points="176.71,-355.91 171.31,-356.86 174.28,-355.29 171.86,-354.68 171.86,-354.68 171.86,-354.68 174.28,-355.29 172.41,-352.5 176.71,-355.91 176.71,-355.91"/>
</a>
</g>
</g>
<!-- Node13 -->
<g id="Node000013" class="node">
<title>Node13</title>
<g id="a_Node000013"><a xlink:href="../../d9/de1/classDeckListModel.html#a186040658f657a0e2629fcb07d9d5ba5" target="_top" xlink:title="Determines the sorted insertion row for a card.">
<polygon fill="white" stroke="#666666" points="331,-445.5 187,-445.5 187,-415.5 331,-415.5 331,-445.5"/>
<text text-anchor="start" x="195" y="-433.5" font-family="Helvetica,sans-Serif" font-size="10.00">DeckListModel::findSorted</text>
<text text-anchor="middle" x="259" y="-422.5" font-family="Helvetica,sans-Serif" font-size="10.00">InsertRow</text>
</a>
</g>
</g>
<!-- Node1&#45;&gt;Node13 -->
<g id="edge16_Node000001_Node000013" class="edge">
<title>Node1&#45;&gt;Node13</title>
<g id="a_edge16_Node000001_Node000013"><a xlink:title=" ">
<path fill="none" stroke="#63b8ff" d="M78.38,-338.14C95.71,-354.52 133.33,-387.84 171,-406.5 176.38,-409.16 182.09,-411.56 187.92,-413.73"/>
<polygon fill="#63b8ff" stroke="#63b8ff" points="192.84,-415.48 187.37,-415.92 190.48,-414.64 188.13,-413.8 188.13,-413.8 188.13,-413.8 190.48,-414.64 188.89,-411.68 192.84,-415.48 192.84,-415.48"/>
</a>
</g>
</g>
<!-- Node16 -->
<g id="Node000016" class="node">
<title>Node16</title>
<g id="a_Node000016"><a xlink:href="../../df/d4e/classExactCard.html#a3f86411b4e295afbb68e3fde952d69f9" target="_top" xlink:title="Returns the underlying CardInfoPtr.">
<polygon fill="white" stroke="#666666" points="321,-338 197,-338 197,-319 321,-319 321,-338"/>
<text text-anchor="middle" x="259" y="-326" font-family="Helvetica,sans-Serif" font-size="10.00">ExactCard::getCardPtr</text>
</a>
</g>
</g>
<!-- Node1&#45;&gt;Node16 -->
<g id="edge20_Node000001_Node000016" class="edge">
<title>Node1&#45;&gt;Node16</title>
<g id="a_edge20_Node000001_Node000016"><a xlink:title=" ">
<path fill="none" stroke="#63b8ff" d="M135.04,-328.5C153.37,-328.5 173.25,-328.5 191.57,-328.5"/>
<polygon fill="#63b8ff" stroke="#63b8ff" points="196.69,-328.5 191.69,-330.75 194.19,-328.5 191.69,-328.5 191.69,-328.5 191.69,-328.5 194.19,-328.5 191.69,-326.25 196.69,-328.5 196.69,-328.5"/>
</a>
</g>
</g>
<!-- Node17 -->
<g id="Node000017" class="node">
<title>Node17</title>
<g id="a_Node000017"><a xlink:href="../../d9/de1/classDeckListModel.html#a988e1ea8c2f4f64d070ccb45afeee140" target="_top" xlink:title="Returns the value of the grouping category for a card based on the current criteria.">
<polygon fill="white" stroke="#666666" points="347,-300.5 171,-300.5 171,-270.5 347,-270.5 347,-300.5"/>
<text text-anchor="start" x="179" y="-288.5" font-family="Helvetica,sans-Serif" font-size="10.00">DeckListModel::getGroupCriteria</text>
<text text-anchor="middle" x="259" y="-277.5" font-family="Helvetica,sans-Serif" font-size="10.00">ForCard</text>
</a>
</g>
</g>
<!-- Node1&#45;&gt;Node17 -->
<g id="edge21_Node000001_Node000017" class="edge">
<title>Node1&#45;&gt;Node17</title>
<g id="a_edge21_Node000001_Node000017"><a xlink:title=" ">
<path fill="none" stroke="#63b8ff" d="M110.56,-318.96C132.94,-313.88 161.09,-307.49 186.77,-301.66"/>
<polygon fill="#63b8ff" stroke="#63b8ff" points="191.87,-300.51 187.49,-303.81 189.43,-301.06 186.99,-301.61 186.99,-301.61 186.99,-301.61 189.43,-301.06 186.49,-299.42 191.87,-300.51 191.87,-300.51"/>
</a>
</g>
</g>
<!-- Node18 -->
<g id="Node000018" class="node">
<title>Node18</title>
<g id="a_Node000018"><a xlink:href="../../df/d4e/classExactCard.html#a46260730a07104ed743aca230e2e5e8f" target="_top" xlink:title="Convenience helper to get the card&#39;s display name.">
<polygon fill="white" stroke="#666666" points="317.5,-252 200.5,-252 200.5,-233 317.5,-233 317.5,-252"/>
<text text-anchor="middle" x="259" y="-240" font-family="Helvetica,sans-Serif" font-size="10.00">ExactCard::getName</text>
</a>
</g>
</g>
<!-- Node1&#45;&gt;Node18 -->
<g id="edge22_Node000001_Node000018" class="edge">
<title>Node1&#45;&gt;Node18</title>
<g id="a_edge22_Node000001_Node000018"><a xlink:title=" ">
<path fill="none" stroke="#63b8ff" d="M80,-318.93C98.16,-304.32 135.12,-276.54 171,-261.5 178.67,-258.28 186.97,-255.58 195.28,-253.31"/>
<polygon fill="#63b8ff" stroke="#63b8ff" points="200.45,-251.96 196.19,-255.4 198.04,-252.59 195.62,-253.23 195.62,-253.23 195.62,-253.23 198.04,-252.59 195.05,-251.05 200.45,-251.96 200.45,-251.96"/>
</a>
</g>
</g>
<!-- Node19 -->
<g id="Node000019" class="node">
<title>Node19</title>
<g id="a_Node000019"><a xlink:href="../../df/d4e/classExactCard.html#af1114a393f7e751f0086952b90f82f1b" target="_top" xlink:title="Returns the printing information associated with this card.">
<polygon fill="white" stroke="#666666" points="321.5,-215 196.5,-215 196.5,-196 321.5,-196 321.5,-215"/>
<text text-anchor="middle" x="259" y="-203" font-family="Helvetica,sans-Serif" font-size="10.00">ExactCard::getPrinting</text>
</a>
</g>
</g>
<!-- Node1&#45;&gt;Node19 -->
<g id="edge23_Node000001_Node000019" class="edge">
<title>Node1&#45;&gt;Node19</title>
<g id="a_edge23_Node000001_Node000019"><a xlink:title=" ">
<path fill="none" stroke="#63b8ff" d="M74.87,-318.82C89.26,-297.79 126.53,-247.84 171,-223.5 177.38,-220.01 184.35,-217.2 191.49,-214.93"/>
<polygon fill="#63b8ff" stroke="#63b8ff" points="196.46,-213.44 192.31,-217.03 194.06,-214.16 191.67,-214.87 191.67,-214.87 191.67,-214.87 194.06,-214.16 191.02,-212.72 196.46,-213.44 196.46,-213.44"/>
</a>
</g>
</g>
<!-- Node20 -->
<g id="Node000020" class="node">
<title>Node20</title>
<g id="a_Node000020"><a xlink:href="../../d6/d90/classPrintingInfo.html#a8620106e5ac0dd63baa9ccc435b970c4" target="_top" xlink:title="Retrieves the value of a specific property.">
<polygon fill="white" stroke="#666666" points="327,-178 191,-178 191,-159 327,-159 327,-178"/>
<text text-anchor="middle" x="259" y="-166" font-family="Helvetica,sans-Serif" font-size="10.00">PrintingInfo::getProperty</text>
</a>
</g>
</g>
<!-- Node1&#45;&gt;Node20 -->
<g id="edge24_Node000001_Node000020" class="edge">
<title>Node1&#45;&gt;Node20</title>
<g id="a_edge24_Node000001_Node000020"><a xlink:title=" ">
<path fill="none" stroke="#63b8ff" d="M72.52,-318.65C83.76,-292.44 118.18,-220.72 171,-186.5 175.66,-183.48 180.73,-180.96 186,-178.85"/>
<polygon fill="#63b8ff" stroke="#63b8ff" points="190.89,-177.02 186.99,-180.88 188.54,-177.9 186.2,-178.77 186.2,-178.77 186.2,-178.77 188.54,-177.9 185.42,-176.66 190.89,-177.02 190.89,-177.02"/>
</a>
</g>
</g>
<!-- Node21 -->
<g id="Node000021" class="node">
<title>Node21</title>
<g id="a_Node000021"><a xlink:href="../../d6/d90/classPrintingInfo.html#a30a4ecdbbc401885cd8c28845991e20f" target="_top" xlink:title="Returns the set this printing belongs to.">
<polygon fill="white" stroke="#666666" points="314,-141 204,-141 204,-122 314,-122 314,-141"/>
<text text-anchor="middle" x="259" y="-129" font-family="Helvetica,sans-Serif" font-size="10.00">PrintingInfo::getSet</text>
</a>
</g>
</g>
<!-- Node1&#45;&gt;Node21 -->
<g id="edge25_Node000001_Node000021" class="edge">
<title>Node1&#45;&gt;Node21</title>
<g id="a_edge25_Node000001_Node000021"><a xlink:title=" ">
<path fill="none" stroke="#63b8ff" d="M70.98,-318.84C79.3,-288.46 109.25,-194.28 171,-149.5 179.26,-143.51 189.07,-139.41 199.06,-136.63"/>
<polygon fill="#63b8ff" stroke="#63b8ff" points="203.98,-135.37 199.7,-138.79 201.56,-135.99 199.14,-136.61 199.14,-136.61 199.14,-136.61 201.56,-135.99 198.58,-134.43 203.98,-135.37 203.98,-135.37"/>
</a>
</g>
</g>
<!-- Node22 -->
<g id="Node000022" class="node">
<title>Node22</title>
<g id="a_Node000022"><a xlink:href="../../d6/d90/classPrintingInfo.html#adadad57308ef600c0b9f80591c244591" target="_top" xlink:title="Returns the providerID for this printing.">
<polygon fill="white" stroke="#666666" points="317.5,-104 200.5,-104 200.5,-85 317.5,-85 317.5,-104"/>
<text text-anchor="middle" x="259" y="-92" font-family="Helvetica,sans-Serif" font-size="10.00">PrintingInfo::getUuid</text>
</a>
</g>
</g>
<!-- Node1&#45;&gt;Node22 -->
<g id="edge26_Node000001_Node000022" class="edge">
<title>Node1&#45;&gt;Node22</title>
<g id="a_edge26_Node000001_Node000022"><a xlink:title=" ">
<path fill="none" stroke="#63b8ff" d="M69.98,-318.86C75.77,-284.65 100.17,-168.14 171,-112.5 178.16,-106.87 186.65,-102.88 195.47,-100.08"/>
<polygon fill="#63b8ff" stroke="#63b8ff" points="200.4,-98.64 196.24,-102.2 198,-99.34 195.6,-100.04 195.6,-100.04 195.6,-100.04 198,-99.34 194.97,-97.88 200.4,-98.64 200.4,-98.64"/>
</a>
</g>
</g>
<!-- Node23 -->
<g id="Node000023" class="node">
<title>Node23</title>
<g id="a_Node000023"><a xlink:href="../../d9/de1/classDeckListModel.html#a93fc3adc648030ffc217b06ef4ce5c22" target="_top" xlink:title=" ">
<polygon fill="white" stroke="#666666" points="315.5,-67 202.5,-67 202.5,-48 315.5,-48 315.5,-67"/>
<text text-anchor="middle" x="259" y="-55" font-family="Helvetica,sans-Serif" font-size="10.00">DeckListModel::sort</text>
</a>
</g>
</g>
<!-- Node1&#45;&gt;Node23 -->
<g id="edge29_Node000001_Node000023" class="edge">
<title>Node1&#45;&gt;Node23</title>
<g id="a_edge29_Node000001_Node000023"><a xlink:title=" ">
<path fill="none" stroke="#63b8ff" d="M69.26,-318.86C72.78,-281.12 90.92,-142.26 171,-75.5 178.57,-69.19 187.77,-64.91 197.33,-62.04"/>
<polygon fill="#63b8ff" stroke="#63b8ff" points="202.35,-60.66 198.12,-64.15 199.94,-61.32 197.53,-61.98 197.53,-61.98 197.53,-61.98 199.94,-61.32 196.93,-59.81 202.35,-60.66 202.35,-60.66"/>
</a>
</g>
</g>
<!-- Node3 -->
<g id="Node000003" class="node">
<title>Node3</title>
<g id="a_Node000003"><a xlink:href="../../d4/d55/classInnerDecklistNode.html#adfb9abd7de7ce169130d9ca4672f0299" target="_top" xlink:title="Find a direct child node by name.">
<polygon fill="white" stroke="#666666" points="515,-673.5 402,-673.5 402,-643.5 515,-643.5 515,-673.5"/>
<text text-anchor="start" x="410" y="-661.5" font-family="Helvetica,sans-Serif" font-size="10.00">InnerDecklistNode::</text>
<text text-anchor="middle" x="458.5" y="-650.5" font-family="Helvetica,sans-Serif" font-size="10.00">findChild</text>
</a>
</g>
</g>
<!-- Node2&#45;&gt;Node3 -->
<g id="edge2_Node000002_Node000003" class="edge">
<title>Node2&#45;&gt;Node3</title>
<g id="a_edge2_Node000002_Node000003"><a xlink:title=" ">
<path fill="none" stroke="#63b8ff" d="M311.63,-654.81C337.67,-655.47 369.42,-656.27 396.64,-656.96"/>
<polygon fill="#63b8ff" stroke="#63b8ff" points="401.66,-657.09 396.61,-659.21 399.17,-657.02 396.67,-656.96 396.67,-656.96 396.67,-656.96 399.17,-657.02 396.72,-654.71 401.66,-657.09 401.66,-657.09"/>
</a>
</g>
</g>
<!-- Node2&#45;&gt;Node4 -->
<g id="edge3_Node000002_Node000004" class="edge">
<title>Node2&#45;&gt;Node4</title>
<g id="a_edge3_Node000002_Node000004"><a xlink:title=" ">
<path fill="none" stroke="#63b8ff" d="M309.58,-643.96C337.99,-638.49 373.69,-631.63 402.9,-626.01"/>
<polygon fill="#63b8ff" stroke="#63b8ff" points="407.9,-625.04 403.41,-628.2 405.44,-625.52 402.99,-625.99 402.99,-625.99 402.99,-625.99 405.44,-625.52 402.56,-623.78 407.9,-625.04 407.9,-625.04"/>
</a>
</g>
</g>
<!-- Node5 -->
<g id="Node000005" class="node">
<title>Node5</title>
<g id="a_Node000005"><a xlink:href="../../da/d68/classDeckList.html#a84c26306d85f7d18fcd3c21d618b7601" target="_top" xlink:title="Emitted when the deck hash changes.">
<polygon fill="white" stroke="#666666" points="727,-625 572,-625 572,-606 727,-606 727,-625"/>
<text text-anchor="middle" x="649.5" y="-613" font-family="Helvetica,sans-Serif" font-size="10.00">DeckList::deckHashChanged</text>
</a>
</g>
</g>
<!-- Node4&#45;&gt;Node5 -->
<g id="edge4_Node000004_Node000005" class="edge">
<title>Node4&#45;&gt;Node5</title>
<g id="a_edge4_Node000004_Node000005"><a xlink:title=" ">
<path fill="none" stroke="#63b8ff" d="M533.11,-615.5C544.17,-615.5 555.63,-615.5 566.84,-615.5"/>
<polygon fill="#63b8ff" stroke="#63b8ff" points="571.97,-615.5 566.97,-617.75 569.47,-615.5 566.97,-615.5 566.97,-615.5 566.97,-615.5 569.47,-615.5 566.97,-613.25 571.97,-615.5 571.97,-615.5"/>
</a>
</g>
</g>
<!-- Node6&#45;&gt;Node7 -->
<g id="edge6_Node000006_Node000007" class="edge">
<title>Node6&#45;&gt;Node7</title>
<g id="a_edge6_Node000006_Node000007"><a xlink:title=" ">
<path fill="none" stroke="#63b8ff" d="M534.16,-534.5C599,-534.5 692.75,-534.5 759.73,-534.5"/>
<polygon fill="#63b8ff" stroke="#63b8ff" points="764.91,-534.5 759.91,-536.75 762.41,-534.5 759.91,-534.5 759.91,-534.5 759.91,-534.5 762.41,-534.5 759.91,-532.25 764.91,-534.5 764.91,-534.5"/>
</a>
</g>
</g>
<!-- Node9 -->
<g id="Node000009" class="node">
<title>Node9</title>
<g id="a_Node000009"><a xlink:href="../../d9/de1/classDeckListModel.html#abc148eac619b9e6ca14691c0d73f1395" target="_top" xlink:title=" ">
<polygon fill="white" stroke="#666666" points="712.5,-506 586.5,-506 586.5,-487 712.5,-487 712.5,-506"/>
<text text-anchor="middle" x="649.5" y="-494" font-family="Helvetica,sans-Serif" font-size="10.00">DeckListModel::parent</text>
</a>
</g>
</g>
<!-- Node6&#45;&gt;Node9 -->
<g id="edge8_Node000006_Node000009" class="edge">
<title>Node6&#45;&gt;Node9</title>
<g id="a_edge8_Node000006_Node000009"><a xlink:title=" ">
<path fill="none" stroke="#63b8ff" d="M534.2,-519.48C554.85,-515.33 576.83,-510.91 595.94,-507.07"/>
<polygon fill="#63b8ff" stroke="#63b8ff" points="601.25,-506 596.79,-509.19 598.79,-506.49 596.34,-506.99 596.34,-506.99 596.34,-506.99 598.79,-506.49 595.9,-504.78 601.25,-506 601.25,-506"/>
</a>
</g>
</g>
<!-- Node8 -->
<g id="Node000008" class="node">
<title>Node8</title>
<g id="a_Node000008"><a xlink:href="../../dc/dd8/classAbstractDecklistNode.html#a0c271fecd144b59d4d9e17de1ca34615" target="_top" xlink:title=" ">
<polygon fill="white" stroke="#666666" points="1079,-530.5 957,-530.5 957,-500.5 1079,-500.5 1079,-530.5"/>
<text text-anchor="start" x="965" y="-518.5" font-family="Helvetica,sans-Serif" font-size="10.00">AbstractDecklistNode</text>
<text text-anchor="middle" x="1018" y="-507.5" font-family="Helvetica,sans-Serif" font-size="10.00">::getParent</text>
</a>
</g>
</g>
<!-- Node7&#45;&gt;Node8 -->
<g id="edge7_Node000007_Node000008" class="edge">
<title>Node7&#45;&gt;Node8</title>
<g id="a_edge7_Node000007_Node000008"><a xlink:title=" ">
<path fill="none" stroke="#63b8ff" d="M921.14,-526.03C931.34,-524.91 941.73,-523.77 951.71,-522.67"/>
<polygon fill="#63b8ff" stroke="#63b8ff" points="956.88,-522.1 952.16,-524.88 954.4,-522.38 951.91,-522.65 951.91,-522.65 951.91,-522.65 954.4,-522.38 951.67,-520.41 956.88,-522.1 956.88,-522.1"/>
</a>
</g>
</g>
<!-- Node9&#45;&gt;Node7 -->
<g id="edge10_Node000009_Node000007" class="edge">
<title>Node9&#45;&gt;Node7</title>
<g id="a_edge10_Node000009_Node000007"><a xlink:title=" ">
<path fill="none" stroke="#63b8ff" d="M698.82,-506.09C726.26,-511.53 760.64,-518.36 788.83,-523.95"/>
<polygon fill="#63b8ff" stroke="#63b8ff" points="794.02,-524.98 788.68,-526.21 791.57,-524.49 789.12,-524.01 789.12,-524.01 789.12,-524.01 791.57,-524.49 789.56,-521.8 794.02,-524.98 794.02,-524.98"/>
</a>
</g>
</g>
<!-- Node9&#45;&gt;Node8 -->
<g id="edge9_Node000009_Node000008" class="edge">
<title>Node9&#45;&gt;Node8</title>
<g id="a_edge9_Node000009_Node000008"><a xlink:title=" ">
<path fill="none" stroke="#63b8ff" d="M712.67,-499.72C779.15,-503.17 884.11,-508.61 951.75,-512.12"/>
<polygon fill="#63b8ff" stroke="#63b8ff" points="956.96,-512.39 951.85,-514.38 954.46,-512.26 951.97,-512.13 951.97,-512.13 951.97,-512.13 954.46,-512.26 952.08,-509.88 956.96,-512.39 956.96,-512.39"/>
</a>
</g>
</g>
<!-- Node10&#45;&gt;Node10 -->
<g id="edge12_Node000010_Node000010" class="edge">
<title>Node10&#45;&gt;Node10</title>
<g id="a_edge12_Node000010_Node000010"><a xlink:title=" ">
<path fill="none" stroke="#63b8ff" d="M225.6,-493.78C218.18,-502.91 229.31,-511.5 259,-511.5 283.58,-511.5 295.45,-505.61 294.58,-498.39"/>
<polygon fill="#63b8ff" stroke="#63b8ff" points="292.4,-493.78 296.57,-497.34 293.47,-496.04 294.53,-498.3 294.53,-498.3 294.53,-498.3 293.47,-496.04 292.5,-499.26 292.4,-493.78 292.4,-493.78"/>
</a>
</g>
</g>
<!-- Node11 -->
<g id="Node000011" class="node">
<title>Node11</title>
<g id="a_Node000011"><a xlink:href="../../d9/de1/classDeckListModel.html#a668baf2a150e168e25b0188f0877a74d" target="_top" xlink:title=" ">
<polygon fill="white" stroke="#666666" points="519.5,-501 397.5,-501 397.5,-482 519.5,-482 519.5,-501"/>
<text text-anchor="middle" x="458.5" y="-489" font-family="Helvetica,sans-Serif" font-size="10.00">DeckListModel::index</text>
</a>
</g>
</g>
<!-- Node10&#45;&gt;Node11 -->
<g id="edge13_Node000010_Node000011" class="edge">
<title>Node10&#45;&gt;Node11</title>
<g id="a_edge13_Node000010_Node000011"><a xlink:title=" ">
<path fill="none" stroke="#63b8ff" d="M341.76,-483.88C358.44,-484.98 375.79,-486.12 391.83,-487.18"/>
<polygon fill="#63b8ff" stroke="#63b8ff" points="397.21,-487.53 392.08,-489.45 394.72,-487.37 392.23,-487.2 392.23,-487.2 392.23,-487.2 394.72,-487.37 392.37,-484.96 397.21,-487.53 397.21,-487.53"/>
</a>
</g>
</g>
<!-- Node11&#45;&gt;Node9 -->
<g id="edge14_Node000011_Node000009" class="edge">
<title>Node11&#45;&gt;Node9</title>
<g id="a_edge14_Node000011_Node000009"><a xlink:title=" ">
<path fill="none" stroke="#63b8ff" d="M519.56,-493.09C539.19,-493.61 561.12,-494.19 581.24,-494.72"/>
<polygon fill="#63b8ff" stroke="#63b8ff" points="586.32,-494.85 581.26,-496.97 583.82,-494.79 581.32,-494.72 581.32,-494.72 581.32,-494.72 583.82,-494.79 581.38,-492.47 586.32,-494.85 586.32,-494.85"/>
</a>
</g>
</g>
<!-- Node13&#45;&gt;Node9 -->
<g id="edge19_Node000013_Node000009" class="edge">
<title>Node13&#45;&gt;Node9</title>
<g id="a_edge19_Node000013_Node000009"><a xlink:title=" ">
<path fill="none" stroke="#63b8ff" d="M331.1,-440.81C386.49,-449.05 465.27,-461.21 534,-473.5 555.16,-477.28 578.43,-481.88 598.43,-485.96"/>
<polygon fill="#63b8ff" stroke="#63b8ff" points="603.45,-486.99 598.1,-488.19 601,-486.49 598.55,-485.99 598.55,-485.99 598.55,-485.99 601,-486.49 599,-483.78 603.45,-486.99 603.45,-486.99"/>
</a>
</g>
</g>
<!-- Node14 -->
<g id="Node000014" class="node">
<title>Node14</title>
<g id="a_Node000014"><a xlink:href="../../dd/d4f/classDecklistModelCardNode.html#a9ec0b614f22d93241ea6bcfa0ad40cbc" target="_top" xlink:title=" ">
<polygon fill="white" stroke="#666666" points="530,-425.5 387,-425.5 387,-395.5 530,-395.5 530,-425.5"/>
<text text-anchor="start" x="395" y="-413.5" font-family="Helvetica,sans-Serif" font-size="10.00">DecklistModelCardNode</text>
<text text-anchor="middle" x="458.5" y="-402.5" font-family="Helvetica,sans-Serif" font-size="10.00">::getCardCollectorNumber</text>
</a>
</g>
</g>
<!-- Node13&#45;&gt;Node14 -->
<g id="edge17_Node000013_Node000014" class="edge">
<title>Node13&#45;&gt;Node14</title>
<g id="a_edge17_Node000013_Node000014"><a xlink:title=" ">
<path fill="none" stroke="#63b8ff" d="M331.02,-423.31C347.46,-421.64 365.01,-419.87 381.64,-418.18"/>
<polygon fill="#63b8ff" stroke="#63b8ff" points="386.78,-417.66 382.03,-420.4 384.29,-417.91 381.8,-418.17 381.8,-418.17 381.8,-418.17 384.29,-417.91 381.57,-415.93 386.78,-417.66 386.78,-417.66"/>
</a>
</g>
</g>
<!-- Node15 -->
<g id="Node000015" class="node">
<title>Node15</title>
<g id="a_Node000015"><a xlink:href="../../d5/d22/classDecklistCardNode.html#a9ac40ee141bf59076787ccdedd2273a2" target="_top" xlink:title=" ">
<polygon fill="white" stroke="#666666" points="724,-425.5 575,-425.5 575,-395.5 724,-395.5 724,-425.5"/>
<text text-anchor="start" x="583" y="-413.5" font-family="Helvetica,sans-Serif" font-size="10.00">DecklistCardNode::getCard</text>
<text text-anchor="middle" x="649.5" y="-402.5" font-family="Helvetica,sans-Serif" font-size="10.00">CollectorNumber</text>
</a>
</g>
</g>
<!-- Node14&#45;&gt;Node15 -->
<g id="edge18_Node000014_Node000015" class="edge">
<title>Node14&#45;&gt;Node15</title>
<g id="a_edge18_Node000014_Node000015"><a xlink:title=" ">
<path fill="none" stroke="#63b8ff" d="M530.15,-410.5C543.01,-410.5 556.51,-410.5 569.6,-410.5"/>
<polygon fill="#63b8ff" stroke="#63b8ff" points="574.78,-410.5 569.78,-412.75 572.28,-410.5 569.78,-410.5 569.78,-410.5 569.78,-410.5 572.28,-410.5 569.78,-408.25 574.78,-410.5 574.78,-410.5"/>
</a>
</g>
</g>
<!-- Node24 -->
<g id="Node000024" class="node">
<title>Node24</title>
<g id="a_Node000024"><a xlink:href="../../d4/d55/classInnerDecklistNode.html#aed5ab0fc9910dc99cd92421679132ece" target="_top" xlink:title="Set the sorting method for this node and all children.">
<polygon fill="white" stroke="#666666" points="515,-103.5 402,-103.5 402,-73.5 515,-73.5 515,-103.5"/>
<text text-anchor="start" x="410" y="-91.5" font-family="Helvetica,sans-Serif" font-size="10.00">InnerDecklistNode::</text>
<text text-anchor="middle" x="458.5" y="-80.5" font-family="Helvetica,sans-Serif" font-size="10.00">setSortMethod</text>
</a>
</g>
</g>
<!-- Node23&#45;&gt;Node24 -->
<g id="edge30_Node000023_Node000024" class="edge">
<title>Node23&#45;&gt;Node24</title>
<g id="a_edge30_Node000023_Node000024"><a xlink:title=" ">
<path fill="none" stroke="#63b8ff" d="M315.54,-66.22C340.78,-70.18 370.72,-74.88 396.58,-78.94"/>
<polygon fill="#63b8ff" stroke="#63b8ff" points="401.69,-79.74 396.4,-81.19 399.22,-79.35 396.75,-78.96 396.75,-78.96 396.75,-78.96 399.22,-79.35 397.1,-76.74 401.69,-79.74 401.69,-79.74"/>
</a>
</g>
</g>
<!-- Node25 -->
<g id="Node000025" class="node">
<title>Node25</title>
<g id="a_Node000025"><a xlink:href="../../d9/de1/classDeckListModel.html#a4b5bac3a4a9628c2a980cc57d1087aae" target="_top" xlink:title=" ">
<polygon fill="white" stroke="#666666" points="531.5,-37 385.5,-37 385.5,-18 531.5,-18 531.5,-37"/>
<text text-anchor="middle" x="458.5" y="-25" font-family="Helvetica,sans-Serif" font-size="10.00">DeckListModel::sortHelper</text>
</a>
</g>
</g>
<!-- Node23&#45;&gt;Node25 -->
<g id="edge31_Node000023_Node000025" class="edge">
<title>Node23&#45;&gt;Node25</title>
<g id="a_edge31_Node000023_Node000025"><a xlink:title=" ">
<path fill="none" stroke="#63b8ff" d="M315.54,-49.06C338.55,-45.57 365.45,-41.48 389.62,-37.81"/>
<polygon fill="#63b8ff" stroke="#63b8ff" points="394.73,-37.03 390.12,-40.01 392.26,-37.41 389.79,-37.79 389.79,-37.79 389.79,-37.79 392.26,-37.41 389.45,-35.56 394.73,-37.03 394.73,-37.03"/>
</a>
</g>
</g>
<!-- Node25&#45;&gt;Node25 -->
<g id="edge34_Node000025_Node000025" class="edge">
<title>Node25&#45;&gt;Node25</title>
<g id="a_edge34_Node000025_Node000025"><a xlink:title=" ">
<path fill="none" stroke="#63b8ff" d="M429.22,-37.08C414.97,-45.73 424.73,-55 458.5,-55 488.05,-55 499.22,-47.91 492,-40.34"/>
<polygon fill="#63b8ff" stroke="#63b8ff" points="487.78,-37.08 493.12,-38.36 489.76,-38.61 491.74,-40.14 491.74,-40.14 491.74,-40.14 489.76,-38.61 490.37,-41.92 487.78,-37.08 487.78,-37.08"/>
</a>
</g>
</g>
<!-- Node26 -->
<g id="Node000026" class="node">
<title>Node26</title>
<g id="a_Node000026"><a xlink:href="../../d9/de1/classDeckListModel.html#a5ff46dbf1e469617398492561810788e" target="_top" xlink:title=" ">
<polygon fill="white" stroke="#666666" points="729,-56 570,-56 570,-37 729,-37 729,-56"/>
<text text-anchor="middle" x="649.5" y="-44" font-family="Helvetica,sans-Serif" font-size="10.00">DeckListModel::columnCount</text>
</a>
</g>
</g>
<!-- Node25&#45;&gt;Node26 -->
<g id="edge32_Node000025_Node000026" class="edge">
<title>Node25&#45;&gt;Node26</title>
<g id="a_edge32_Node000025_Node000026"><a xlink:title=" ">
<path fill="none" stroke="#63b8ff" d="M531.76,-34.76C542.61,-35.85 553.86,-36.99 564.92,-38.1"/>
<polygon fill="#63b8ff" stroke="#63b8ff" points="569.98,-38.61 564.78,-40.35 567.5,-38.36 565.01,-38.11 565.01,-38.11 565.01,-38.11 567.5,-38.36 565.23,-35.87 569.98,-38.61 569.98,-38.61"/>
</a>
</g>
</g>
<!-- Node27 -->
<g id="Node000027" class="node">
<title>Node27</title>
<g id="a_Node000027"><a xlink:href="../../d4/d55/classInnerDecklistNode.html#ad296ae03fd556033ea46ec2a20ed9bce" target="_top" xlink:title="Sort this node’s children recursively.">
<polygon fill="white" stroke="#666666" points="715,-19 584,-19 584,0 715,0 715,-19"/>
<text text-anchor="middle" x="649.5" y="-7" font-family="Helvetica,sans-Serif" font-size="10.00">InnerDecklistNode::sort</text>
</a>
</g>
</g>
<!-- Node25&#45;&gt;Node27 -->
<g id="edge33_Node000025_Node000027" class="edge">
<title>Node25&#45;&gt;Node27</title>
<g id="a_edge33_Node000025_Node000027"><a xlink:title=" ">
<path fill="none" stroke="#63b8ff" d="M531.76,-20.62C547.12,-19.16 563.3,-17.61 578.57,-16.16"/>
<polygon fill="#63b8ff" stroke="#63b8ff" points="583.71,-15.67 578.94,-18.38 581.22,-15.91 578.73,-16.14 578.73,-16.14 578.73,-16.14 581.22,-15.91 578.52,-13.91 583.71,-15.67 583.71,-15.67"/>
</a>
</g>
</g>
</g>
</svg>
