<?xml version="1.0" encoding="UTF-8" standalone="no"?>
<!DOCTYPE svg PUBLIC "-//W3C//DTD SVG 1.1//EN"
 "http://www.w3.org/Graphics/SVG/1.1/DTD/svg11.dtd">
<!-- Generated by graphviz version 2.43.0 (0)
 -->
<!-- Title: DeckListModel::findCard Pages: 1 -->
<!--zoomable 279 -->

<svg id="main" version="1.1" xmlns="http://www.w3.org/2000/svg" xmlns:xlink="http://www.w3.org/1999/xlink" xml:space="preserve" onload="init(evt)">

<style type="text/css"><![CDATA[
.node, .edge {opacity: 0.7;}
.node.selected, .edge.selected {opacity: 1;}
.edge:hover path { stroke: red; }
.edge:hover polygon { stroke: red; fill: red; }
]]></style>

<defs>
  <circle id="rim" cx="0" cy="0" r="7"/>
  <circle id="rim2" cx="0" cy="0" r="3.5"/>
  <g id="zoomPlus">
    <use xlink:href="#rim" fill="#404040"><set attributeName="fill" to="#808080" begin="zoomplus.mouseover" end="zoomplus.mouseout"/></use>
    <path d="M-4,0h8M0,-4v8" fill="none" stroke="white" stroke-width="1.5" pointer-events="none"/>
  </g>
  <g id="zoomMin">
    <use xlink:href="#rim" fill="#404040"><set attributeName="fill" to="#808080" begin="zoomminus.mouseover" end="zoomminus.mouseout"/></use>
    <path d="M-4,0h8" fill="none" stroke="white" stroke-width="1.5" pointer-events="none"/>
  </g>
  <g id="arrowUp" transform="translate(30 24)">
    <use xlink:href="#rim"/>
    <path pointer-events="none" fill="none" stroke="white" stroke-width="1.5" d="M0,-3.0v7 M-2.5,-0.5L0,-3.0L2.5,-0.5"/>
  </g>
  <g id="arrowRight" transform="rotate(90) translate(36 -43)">
    <use xlink:href="#rim"/>
    <path pointer-events="none" fill="none" stroke="white" stroke-width="1.5" d="M0,-3.0v7 M-2.5,-0.5L0,-3.0L2.5,-0.5"/>
  </g>
  <g id="arrowDown" transform="rotate(180) translate(-30 -48)">
    <use xlink:href="#rim"/>
    <path pointer-events="none" fill="none" stroke="white" stroke-width="1.5" d="M0,-3.0v7 M-2.5,-0.5L0,-3.0L2.5,-0.5"/>
  </g>
  <g id="arrowLeft" transform="rotate(270) translate(-36 17)">
    <use xlink:href="#rim"/>
    <path pointer-events="none" fill="none" stroke="white" stroke-width="1.5" d="M0,-3.0v7 M-2.5,-0.5L0,-3.0L2.5,-0.5"/>
  </g>
  <g id="resetDef">
    <use xlink:href="#rim2" fill="#404040"><set attributeName="fill" to="#808080" begin="reset.mouseover" end="reset.mouseout"/></use>
  </g>
</defs>
<script type="application/ecmascript">
var viewWidth = 901;
var viewHeight = 279;
var sectionId = 'dynsection-30';
</script>
<script type="application/ecmascript" xlink:href="../../svg.min.js"/>
<svg id="graph" class="graph">
<g id="viewport">
<title>DeckListModel::findCard</title>
<!-- Node1 -->
<g id="Node000001" class="node">
<title>Node1</title>
<g id="a_Node000001"><a xlink:title="Finds a card by name, zone, and optional identifiers.">
<polygon fill="#999999" stroke="#666666" points="135,-96.5 0,-96.5 0,-77.5 135,-77.5 135,-96.5"/>
<text text-anchor="middle" x="67.5" y="-84.5" font-family="Helvetica,sans-Serif" font-size="10.00">DeckListModel::findCard</text>
</a>
</g>
</g>
<!-- Node2 -->
<g id="Node000002" class="node">
<title>Node2</title>
<g id="a_Node000002"><a xlink:href="../../d9/de1/classDeckListModel.html#acae2553ca72ba83683de08e15567f7f2" target="_top" xlink:title=" ">
<polygon fill="white" stroke="#666666" points="332,-144.5 171,-144.5 171,-125.5 332,-125.5 332,-144.5"/>
<text text-anchor="middle" x="251.5" y="-132.5" font-family="Helvetica,sans-Serif" font-size="10.00">DeckListModel::findCardNode</text>
</a>
</g>
</g>
<!-- Node1&#45;&gt;Node2 -->
<g id="edge1_Node000001_Node000002" class="edge">
<title>Node1&#45;&gt;Node2</title>
<g id="a_edge1_Node000001_Node000002"><a xlink:title=" ">
<path fill="none" stroke="#63b8ff" d="M104.89,-96.6C135.02,-104.54 177.83,-115.83 209.23,-124.12"/>
<polygon fill="#63b8ff" stroke="#63b8ff" points="214.17,-125.42 208.76,-126.32 211.75,-124.78 209.34,-124.14 209.34,-124.14 209.34,-124.14 211.75,-124.78 209.91,-121.97 214.17,-125.42 214.17,-125.42"/>
</a>
</g>
</g>
<!-- Node13 -->
<g id="Node000013" class="node">
<title>Node13</title>
<g id="a_Node000013"><a xlink:href="../../d9/de1/classDeckListModel.html#a6da8127a70966e36d96ebf7cb4eb007d" target="_top" xlink:title=" ">
<polygon fill="white" stroke="#666666" points="329.5,-78.5 173.5,-78.5 173.5,-59.5 329.5,-59.5 329.5,-78.5"/>
<text text-anchor="middle" x="251.5" y="-66.5" font-family="Helvetica,sans-Serif" font-size="10.00">DeckListModel::nodeToIndex</text>
</a>
</g>
</g>
<!-- Node1&#45;&gt;Node13 -->
<g id="edge14_Node000001_Node000013" class="edge">
<title>Node1&#45;&gt;Node13</title>
<g id="a_edge14_Node000001_Node000013"><a xlink:title=" ">
<path fill="none" stroke="#63b8ff" d="M135.24,-80.4C145.97,-79.34 157.19,-78.23 168.23,-77.14"/>
<polygon fill="#63b8ff" stroke="#63b8ff" points="173.3,-76.64 168.54,-79.37 170.81,-76.88 168.32,-77.13 168.32,-77.13 168.32,-77.13 170.81,-76.88 168.1,-74.89 173.3,-76.64 173.3,-76.64"/>
</a>
</g>
</g>
<!-- Node3 -->
<g id="Node000003" class="node">
<title>Node3</title>
<g id="a_Node000003"><a xlink:href="../../d1/df7/deck__list__model_8cpp.html#adfbc7d5fedb5a4dbcfd38142a364f490" target="_top" xlink:title="Extract the value from the card that is used for the group criteria.">
<polygon fill="white" stroke="#666666" points="521.5,-270.5 378.5,-270.5 378.5,-251.5 521.5,-251.5 521.5,-270.5"/>
<text text-anchor="middle" x="450" y="-258.5" font-family="Helvetica,sans-Serif" font-size="10.00">extractGroupCriteriaValue</text>
</a>
</g>
</g>
<!-- Node2&#45;&gt;Node3 -->
<g id="edge2_Node000002_Node000003" class="edge">
<title>Node2&#45;&gt;Node3</title>
<g id="a_edge2_Node000002_Node000003"><a xlink:title=" ">
<path fill="none" stroke="#63b8ff" d="M259.69,-144.57C276.26,-165.88 319.43,-217.39 368,-243 372.98,-245.62 378.32,-247.87 383.8,-249.78"/>
<polygon fill="#63b8ff" stroke="#63b8ff" points="388.87,-251.45 383.41,-252.02 386.49,-250.67 384.12,-249.89 384.12,-249.89 384.12,-249.89 386.49,-250.67 384.82,-247.75 388.87,-251.45 388.87,-251.45"/>
</a>
</g>
</g>
<!-- Node4 -->
<g id="Node000004" class="node">
<title>Node4</title>
<g id="a_Node000004"><a xlink:href="../../d4/d55/classInnerDecklistNode.html#a4f08f49557660bd24e2e2e705b6596b9" target="_top" xlink:title="Find a child card node by name, provider ID, and collector number.">
<polygon fill="white" stroke="#666666" points="532,-233.5 368,-233.5 368,-192.5 532,-192.5 532,-233.5"/>
<text text-anchor="start" x="376" y="-221.5" font-family="Helvetica,sans-Serif" font-size="10.00">InnerDecklistNode::</text>
<text text-anchor="start" x="376" y="-210.5" font-family="Helvetica,sans-Serif" font-size="10.00">findCardChildByNameProvider</text>
<text text-anchor="middle" x="450" y="-199.5" font-family="Helvetica,sans-Serif" font-size="10.00">IdAndNumber</text>
</a>
</g>
</g>
<!-- Node2&#45;&gt;Node4 -->
<g id="edge3_Node000002_Node000004" class="edge">
<title>Node2&#45;&gt;Node4</title>
<g id="a_edge3_Node000002_Node000004"><a xlink:title=" ">
<path fill="none" stroke="#63b8ff" d="M274.97,-144.64C298.17,-154.53 335.46,-170.22 368,-183 374.34,-185.49 380.98,-188.04 387.61,-190.55"/>
<polygon fill="#63b8ff" stroke="#63b8ff" points="392.68,-192.46 387.21,-192.81 390.34,-191.58 388,-190.7 388,-190.7 388,-190.7 390.34,-191.58 388.8,-188.59 392.68,-192.46 392.68,-192.46"/>
</a>
</g>
</g>
<!-- Node6 -->
<g id="Node000006" class="node">
<title>Node6</title>
<g id="a_Node000006"><a xlink:href="../../d4/d55/classInnerDecklistNode.html#adfb9abd7de7ce169130d9ca4672f0299" target="_top" xlink:title="Find a direct child node by name.">
<polygon fill="white" stroke="#666666" points="506.5,-174 393.5,-174 393.5,-144 506.5,-144 506.5,-174"/>
<text text-anchor="start" x="401.5" y="-162" font-family="Helvetica,sans-Serif" font-size="10.00">InnerDecklistNode::</text>
<text text-anchor="middle" x="450" y="-151" font-family="Helvetica,sans-Serif" font-size="10.00">findChild</text>
</a>
</g>
</g>
<!-- Node2&#45;&gt;Node6 -->
<g id="edge5_Node000002_Node000006" class="edge">
<title>Node2&#45;&gt;Node6</title>
<g id="a_edge5_Node000002_Node000006"><a xlink:title=" ">
<path fill="none" stroke="#63b8ff" d="M330.44,-144.52C349.64,-146.86 369.92,-149.34 388.17,-151.57"/>
<polygon fill="#63b8ff" stroke="#63b8ff" points="393.26,-152.19 388.03,-153.82 390.78,-151.89 388.3,-151.59 388.3,-151.59 388.3,-151.59 390.78,-151.89 388.57,-149.35 393.26,-152.19 393.26,-152.19"/>
</a>
</g>
</g>
<!-- Node8 -->
<g id="Node000008" class="node">
<title>Node8</title>
<g id="a_Node000008"><a xlink:href="../../d8/dbe/classCardDatabaseQuerier.html#aadf83692b2220aedcfb3e9b36070acb7" target="_top" xlink:title="Retrieves a card by its exact name.">
<polygon fill="white" stroke="#666666" points="511,-126 389,-126 389,-96 511,-96 511,-126"/>
<text text-anchor="start" x="397" y="-114" font-family="Helvetica,sans-Serif" font-size="10.00">CardDatabaseQuerier</text>
<text text-anchor="middle" x="450" y="-103" font-family="Helvetica,sans-Serif" font-size="10.00">::getCardInfo</text>
</a>
</g>
</g>
<!-- Node2&#45;&gt;Node8 -->
<g id="edge8_Node000002_Node000008" class="edge">
<title>Node2&#45;&gt;Node8</title>
<g id="a_edge8_Node000002_Node000008"><a xlink:title=" ">
<path fill="none" stroke="#63b8ff" d="M330.44,-125.48C348.02,-123.33 366.5,-121.08 383.51,-119"/>
<polygon fill="#63b8ff" stroke="#63b8ff" points="388.73,-118.36 384.04,-121.2 386.25,-118.66 383.77,-118.97 383.77,-118.97 383.77,-118.97 386.25,-118.66 383.5,-116.73 388.73,-118.36 388.73,-118.36"/>
</a>
</g>
</g>
<!-- Node9 -->
<g id="Node000009" class="node">
<title>Node9</title>
<g id="a_Node000009"><a xlink:href="../../dc/db4/classCardDatabaseManager.html#a7dc153d2d7691d69916d2154a05c5ed1" target="_top" xlink:title="Returns the CardDatabaseQuerier of the singleton database.">
<polygon fill="white" stroke="#666666" points="514,-78 386,-78 386,-48 514,-48 514,-78"/>
<text text-anchor="start" x="394" y="-66" font-family="Helvetica,sans-Serif" font-size="10.00">CardDatabaseManager</text>
<text text-anchor="middle" x="450" y="-55" font-family="Helvetica,sans-Serif" font-size="10.00">::query</text>
</a>
</g>
</g>
<!-- Node2&#45;&gt;Node9 -->
<g id="edge9_Node000002_Node000009" class="edge">
<title>Node2&#45;&gt;Node9</title>
<g id="a_edge9_Node000002_Node000009"><a xlink:title=" ">
<path fill="none" stroke="#63b8ff" d="M273.53,-125.47C296.48,-115.26 334.44,-98.91 368,-87 375.08,-84.49 382.56,-82.02 390.01,-79.68"/>
<polygon fill="#63b8ff" stroke="#63b8ff" points="395.15,-78.09 391.04,-81.72 392.76,-78.83 390.38,-79.57 390.38,-79.57 390.38,-79.57 392.76,-78.83 389.71,-77.42 395.15,-78.09 395.15,-78.09"/>
</a>
</g>
</g>
<!-- Node5 -->
<g id="Node000005" class="node">
<title>Node5</title>
<g id="a_Node000005"><a xlink:href="../../dc/dd8/classAbstractDecklistNode.html#a53333a4fadb640b224d34327c06487e1" target="_top" xlink:title="Construct a new AbstractDecklistNode and insert it into its parent.">
<polygon fill="white" stroke="#666666" points="696,-225 568,-225 568,-195 696,-195 696,-225"/>
<text text-anchor="start" x="576" y="-213" font-family="Helvetica,sans-Serif" font-size="10.00">AbstractDecklistNode</text>
<text text-anchor="middle" x="632" y="-202" font-family="Helvetica,sans-Serif" font-size="10.00">::AbstractDecklistNode</text>
</a>
</g>
</g>
<!-- Node4&#45;&gt;Node5 -->
<g id="edge4_Node000004_Node000005" class="edge">
<title>Node4&#45;&gt;Node5</title>
<g id="a_edge4_Node000004_Node000005"><a xlink:title=" ">
<path fill="none" stroke="#63b8ff" d="M532.05,-211.65C542.3,-211.48 552.71,-211.3 562.73,-211.14"/>
<polygon fill="#63b8ff" stroke="#63b8ff" points="567.94,-211.05 562.97,-213.38 565.44,-211.09 562.94,-211.13 562.94,-211.13 562.94,-211.13 565.44,-211.09 562.9,-208.88 567.94,-211.05 567.94,-211.05"/>
</a>
</g>
</g>
<!-- Node6&#45;&gt;Node5 -->
<g id="edge6_Node000006_Node000005" class="edge">
<title>Node6&#45;&gt;Node5</title>
<g id="a_edge6_Node000006_Node000005"><a xlink:title=" ">
<path fill="none" stroke="#63b8ff" d="M504.03,-174.03C525.72,-180.17 550.89,-187.3 573.06,-193.58"/>
<polygon fill="#63b8ff" stroke="#63b8ff" points="578.04,-194.99 572.61,-195.8 575.63,-194.31 573.23,-193.63 573.23,-193.63 573.23,-193.63 575.63,-194.31 573.84,-191.47 578.04,-194.99 578.04,-194.99"/>
</a>
</g>
</g>
<!-- Node7 -->
<g id="Node000007" class="node">
<title>Node7</title>
<g id="a_Node000007"><a xlink:href="../../d4/d55/classInnerDecklistNode.html#acf0e0034a5219efab22463d55e617bb1" target="_top" xlink:title=" ">
<polygon fill="white" stroke="#666666" points="688.5,-174 575.5,-174 575.5,-144 688.5,-144 688.5,-174"/>
<text text-anchor="start" x="583.5" y="-162" font-family="Helvetica,sans-Serif" font-size="10.00">InnerDecklistNode::</text>
<text text-anchor="middle" x="632" y="-151" font-family="Helvetica,sans-Serif" font-size="10.00">getName</text>
</a>
</g>
</g>
<!-- Node6&#45;&gt;Node7 -->
<g id="edge7_Node000006_Node000007" class="edge">
<title>Node6&#45;&gt;Node7</title>
<g id="a_edge7_Node000006_Node000007"><a xlink:title=" ">
<path fill="none" stroke="#63b8ff" d="M506.97,-159C527.04,-159 549.76,-159 570.23,-159"/>
<polygon fill="#63b8ff" stroke="#63b8ff" points="575.38,-159 570.38,-161.25 572.88,-159 570.38,-159 570.38,-159 570.38,-159 572.88,-159 570.38,-156.75 575.38,-159 575.38,-159"/>
</a>
</g>
</g>
<!-- Node10 -->
<g id="Node000010" class="node">
<title>Node10</title>
<g id="a_Node000010"><a xlink:href="../../dc/db4/classCardDatabaseManager.html#ad3973b040eb93df3be6bd2e790c53d59" target="_top" xlink:title="Returns the singleton CardDatabase instance.">
<polygon fill="white" stroke="#666666" points="696,-99 568,-99 568,-69 696,-69 696,-99"/>
<text text-anchor="start" x="576" y="-87" font-family="Helvetica,sans-Serif" font-size="10.00">CardDatabaseManager</text>
<text text-anchor="middle" x="632" y="-76" font-family="Helvetica,sans-Serif" font-size="10.00">::getInstance</text>
</a>
</g>
</g>
<!-- Node9&#45;&gt;Node10 -->
<g id="edge10_Node000009_Node000010" class="edge">
<title>Node9&#45;&gt;Node10</title>
<g id="a_edge10_Node000009_Node000010"><a xlink:title=" ">
<path fill="none" stroke="#63b8ff" d="M514.21,-70.37C529.86,-72.2 546.71,-74.17 562.6,-76.02"/>
<polygon fill="#63b8ff" stroke="#63b8ff" points="567.94,-76.64 562.72,-78.3 565.46,-76.35 562.98,-76.06 562.98,-76.06 562.98,-76.06 565.46,-76.35 563.24,-73.83 567.94,-76.64 567.94,-76.64"/>
</a>
</g>
</g>
<!-- Node11 -->
<g id="Node000011" class="node">
<title>Node11</title>
<g id="a_Node000011"><a xlink:href="../../d5/d45/classCardDatabase.html#affe0baec75387712dc3a93199b56fc08" target="_top" xlink:title="Returns the querier for performing card lookups.">
<polygon fill="white" stroke="#666666" points="691.5,-50.5 572.5,-50.5 572.5,-31.5 691.5,-31.5 691.5,-50.5"/>
<text text-anchor="middle" x="632" y="-38.5" font-family="Helvetica,sans-Serif" font-size="10.00">CardDatabase::query</text>
</a>
</g>
</g>
<!-- Node9&#45;&gt;Node11 -->
<g id="edge11_Node000009_Node000011" class="edge">
<title>Node9&#45;&gt;Node11</title>
<g id="a_edge11_Node000009_Node000011"><a xlink:title=" ">
<path fill="none" stroke="#63b8ff" d="M514.21,-55.27C531.38,-53.18 549.97,-50.9 567.17,-48.8"/>
<polygon fill="#63b8ff" stroke="#63b8ff" points="572.46,-48.15 567.77,-50.99 569.98,-48.46 567.5,-48.76 567.5,-48.76 567.5,-48.76 569.98,-48.46 567.23,-46.53 572.46,-48.15 572.46,-48.15"/>
</a>
</g>
</g>
<!-- Node12 -->
<g id="Node000012" class="node">
<title>Node12</title>
<g id="a_Node000012"><a xlink:href="../../d5/d45/classCardDatabase.html#ac86d4003efc8430ad7363557149e0e5a" target="_top" xlink:title=" ">
<polygon fill="white" stroke="#666666" points="893,-56 732,-56 732,-26 893,-26 893,-56"/>
<text text-anchor="start" x="740" y="-44" font-family="Helvetica,sans-Serif" font-size="10.00">CardDatabase::CardDatabase</text>
<text text-anchor="middle" x="812.5" y="-33" font-family="Helvetica,sans-Serif" font-size="10.00">Querier</text>
</a>
</g>
</g>
<!-- Node11&#45;&gt;Node12 -->
<g id="edge12_Node000011_Node000012" class="edge">
<title>Node11&#45;&gt;Node12</title>
<g id="a_edge12_Node000011_Node000012"><a xlink:title=" ">
<path fill="none" stroke="#63b8ff" d="M691.94,-41C703.14,-41 715.06,-41 726.87,-41"/>
<polygon fill="#63b8ff" stroke="#63b8ff" points="731.92,-41 726.92,-43.25 729.42,-41 726.92,-41 726.92,-41 726.92,-41 729.42,-41 726.92,-38.75 731.92,-41 731.92,-41"/>
</a>
</g>
</g>
<!-- Node12&#45;&gt;Node12 -->
<g id="edge13_Node000012_Node000012" class="edge">
<title>Node12&#45;&gt;Node12</title>
<g id="a_edge13_Node000012_Node000012"><a xlink:title=" ">
<path fill="none" stroke="#63b8ff" d="M780.86,-56.28C773.83,-65.41 784.38,-74 812.5,-74 835.79,-74 847.03,-68.11 846.21,-60.89"/>
<polygon fill="#63b8ff" stroke="#63b8ff" points="844.14,-56.28 848.24,-59.92 845.16,-58.56 846.18,-60.84 846.18,-60.84 846.18,-60.84 845.16,-58.56 844.13,-61.76 844.14,-56.28 844.14,-56.28"/>
</a>
</g>
</g>
<!-- Node14 -->
<g id="Node000014" class="node">
<title>Node14</title>
<g id="a_Node000014"><a xlink:href="../../dc/dd8/classAbstractDecklistNode.html#a0c271fecd144b59d4d9e17de1ca34615" target="_top" xlink:title=" ">
<polygon fill="white" stroke="#666666" points="511,-30 389,-30 389,0 511,0 511,-30"/>
<text text-anchor="start" x="397" y="-18" font-family="Helvetica,sans-Serif" font-size="10.00">AbstractDecklistNode</text>
<text text-anchor="middle" x="450" y="-7" font-family="Helvetica,sans-Serif" font-size="10.00">::getParent</text>
</a>
</g>
</g>
<!-- Node13&#45;&gt;Node14 -->
<g id="edge15_Node000013_Node000014" class="edge">
<title>Node13&#45;&gt;Node14</title>
<g id="a_edge15_Node000013_Node000014"><a xlink:title=" ">
<path fill="none" stroke="#63b8ff" d="M287.18,-59.47C315.43,-51.71 355.96,-40.57 389.4,-31.38"/>
<polygon fill="#63b8ff" stroke="#63b8ff" points="394.28,-30.04 390.05,-33.53 391.86,-30.7 389.45,-31.36 389.45,-31.36 389.45,-31.36 391.86,-30.7 388.86,-29.19 394.28,-30.04 394.28,-30.04"/>
</a>
</g>
</g>
</g>
</svg>

<g id="navigator" transform="translate(0 0)" fill="#404254">
  <rect fill="#f2f5e9" fill-opacity="0.5" stroke="#606060" stroke-width=".5" x="0" y="0" width="60" height="60"/>
  <use id="zoomplus" xlink:href="#zoomPlus" x="17" y="9" onmousedown="handleZoom(evt,'in')"/>
  <use id="zoomminus" xlink:href="#zoomMin" x="42" y="9" onmousedown="handleZoom(evt,'out')"/>
  <use id="reset" xlink:href="#resetDef" x="30" y="36" onmousedown="handleReset()"/>
   <use id="arrowup" xlink:href="#arrowUp" x="0" y="0" onmousedown="handlePan(0,-1)"/>
  <use id="arrowright" xlink:href="#arrowRight" x="0" y="0" onmousedown="handlePan(1,0)"/>
  <use id="arrowdown" xlink:href="#arrowDown" x="0" y="0" onmousedown="handlePan(0,1)"/>
  <use id="arrowleft" xlink:href="#arrowLeft" x="0" y="0" onmousedown="handlePan(-1,0)"/>
</g>
<svg viewBox="0 0 15 15" width="100%" height="30px" preserveAspectRatio="xMaxYMin meet">
 <g id="arrow_out" transform="scale(0.3 0.3)">
  <a xlink:href="classDeckListModel_a1d400b8fce69e71fffa9a5e0ae5d3df3_cgraph_org.svg" target="_base">
   <rect id="button" ry="5" rx="5" y="6" x="6" height="38" width="38"
        fill="#f2f5e9" fill-opacity="0.5" stroke="#606060" stroke-width="1.0"/>
   <path id="arrow"
     d="M 11.500037,31.436501 C 11.940474,20.09759 22.043105,11.32322 32.158766,21.979434 L 37.068811,17.246167 C 37.068811,17.246167 37.088388,32 37.088388,32 L 22.160133,31.978069 C 22.160133,31.978069 26.997745,27.140456 26.997745,27.140456 C 18.528582,18.264221 13.291696,25.230495 11.500037,31.436501 z"
     style="fill:#404040;"/>
  </a>
 </g>
</svg>

<style type='text/css'>
<![CDATA[
[data-mouse-over-selected='false'] { opacity: 0.7; }
[data-mouse-over-selected='true']  { opacity: 1.0; }
]]>
</style>
<script type="application/ecmascript"><![CDATA[
document.addEventListener('DOMContentLoaded', (event) => {
  highlightEdges();
  highlightAdjacentNodes();
});
]]></script>
</svg>
