<?xml version="1.0" encoding="UTF-8" standalone="no"?>
<!DOCTYPE svg PUBLIC "-//W3C//DTD SVG 1.1//EN"
 "http://www.w3.org/Graphics/SVG/1.1/DTD/svg11.dtd">
<!-- Generated by graphviz version 2.43.0 (0)
 -->
<!-- Title: DeckListModel::columnCount Pages: 1 -->
<svg width="1604pt" height="251pt"
 viewBox="0.00 0.00 1604.00 251.00" xmlns="http://www.w3.org/2000/svg" xmlns:xlink="http://www.w3.org/1999/xlink">
<g id="graph0" class="graph" transform="scale(1 1) rotate(0) translate(4 247)">
<title>DeckListModel::columnCount</title>
<!-- Node1 -->
<g id="Node000001" class="node">
<title>Node1</title>
<g id="a_Node000001"><a xlink:title=" ">
<polygon fill="#999999" stroke="#666666" points="1596,-120.5 1437,-120.5 1437,-101.5 1596,-101.5 1596,-120.5"/>
<text text-anchor="middle" x="1516.5" y="-108.5" font-family="Helvetica,sans-Serif" font-size="10.00">DeckListModel::columnCount</text>
</a>
</g>
</g>
<!-- Node2 -->
<g id="Node000002" class="node">
<title>Node2</title>
<g id="a_Node000002"><a xlink:href="../../d9/de1/classDeckListModel.html#a2407550028a32526ff3cabdb29dd19e1" target="_top" xlink:title=" ">
<polygon fill="white" stroke="#666666" points="1371.5,-203.5 1255.5,-203.5 1255.5,-184.5 1371.5,-184.5 1371.5,-203.5"/>
<text text-anchor="middle" x="1313.5" y="-191.5" font-family="Helvetica,sans-Serif" font-size="10.00">DeckListModel::data</text>
</a>
</g>
</g>
<!-- Node1&#45;&gt;Node2 -->
<g id="edge1_Node000001_Node000002" class="edge">
<title>Node1&#45;&gt;Node2</title>
<g id="a_edge1_Node000001_Node000002"><a xlink:title=" ">
<path fill="none" stroke="#63b8ff" d="M1496.91,-123.66C1474.92,-138.09 1436.78,-161.41 1401,-175 1391.08,-178.77 1380.23,-181.88 1369.66,-184.43"/>
<polygon fill="#63b8ff" stroke="#63b8ff" points="1501.35,-120.72 1498.42,-125.36 1499.26,-122.1 1497.18,-123.48 1497.18,-123.48 1497.18,-123.48 1499.26,-122.1 1495.94,-121.61 1501.35,-120.72 1501.35,-120.72"/>
</a>
</g>
</g>
<!-- Node7 -->
<g id="Node000007" class="node">
<title>Node7</title>
<g id="a_Node000007"><a xlink:href="../../d9/de1/classDeckListModel.html#a7fa3026290c38cedbb04425c941b20ee" target="_top" xlink:title="Recursively emits the dataChanged signal with role as Qt::BackgroundRole for all indices that are chi...">
<polygon fill="white" stroke="#666666" points="1401,-148 1226,-148 1226,-118 1401,-118 1401,-148"/>
<text text-anchor="start" x="1234" y="-136" font-family="Helvetica,sans-Serif" font-size="10.00">DeckListModel::emitBackground</text>
<text text-anchor="middle" x="1313.5" y="-125" font-family="Helvetica,sans-Serif" font-size="10.00">Updates</text>
</a>
</g>
</g>
<!-- Node1&#45;&gt;Node7 -->
<g id="edge6_Node000001_Node000007" class="edge">
<title>Node1&#45;&gt;Node7</title>
<g id="a_edge6_Node000001_Node000007"><a xlink:title=" ">
<path fill="none" stroke="#63b8ff" d="M1431.93,-120.15C1421.72,-121.26 1411.26,-122.41 1401,-123.53"/>
<polygon fill="#63b8ff" stroke="#63b8ff" points="1436.92,-119.6 1432.2,-122.38 1434.44,-119.87 1431.95,-120.14 1431.95,-120.14 1431.95,-120.14 1434.44,-119.87 1431.71,-117.91 1436.92,-119.6 1436.92,-119.6"/>
</a>
</g>
</g>
<!-- Node9 -->
<g id="Node000009" class="node">
<title>Node9</title>
<g id="a_Node000009"><a xlink:href="../../d9/de1/classDeckListModel.html#aaf41cb3f6483755fbdd8595c1b25a2fa" target="_top" xlink:title=" ">
<polygon fill="white" stroke="#666666" points="1389.5,-99.5 1237.5,-99.5 1237.5,-80.5 1389.5,-80.5 1389.5,-99.5"/>
<text text-anchor="middle" x="1313.5" y="-87.5" font-family="Helvetica,sans-Serif" font-size="10.00">DeckListModel::headerData</text>
</a>
</g>
</g>
<!-- Node1&#45;&gt;Node9 -->
<g id="edge9_Node000001_Node000009" class="edge">
<title>Node1&#45;&gt;Node9</title>
<g id="a_edge9_Node000001_Node000009"><a xlink:title=" ">
<path fill="none" stroke="#63b8ff" d="M1431.81,-102.26C1417.85,-100.8 1403.46,-99.29 1389.73,-97.86"/>
<polygon fill="#63b8ff" stroke="#63b8ff" points="1436.92,-102.79 1431.72,-104.51 1434.44,-102.53 1431.95,-102.27 1431.95,-102.27 1431.95,-102.27 1434.44,-102.53 1432.19,-100.03 1436.92,-102.79 1436.92,-102.79"/>
</a>
</g>
</g>
<!-- Node10 -->
<g id="Node000010" class="node">
<title>Node10</title>
<g id="a_Node000010"><a xlink:href="../../d9/de1/classDeckListModel.html#a4b5bac3a4a9628c2a980cc57d1087aae" target="_top" xlink:title=" ">
<polygon fill="white" stroke="#666666" points="1386.5,-44.5 1240.5,-44.5 1240.5,-25.5 1386.5,-25.5 1386.5,-44.5"/>
<text text-anchor="middle" x="1313.5" y="-32.5" font-family="Helvetica,sans-Serif" font-size="10.00">DeckListModel::sortHelper</text>
</a>
</g>
</g>
<!-- Node1&#45;&gt;Node10 -->
<g id="edge10_Node000001_Node000010" class="edge">
<title>Node1&#45;&gt;Node10</title>
<g id="a_edge10_Node000001_Node000010"><a xlink:title=" ">
<path fill="none" stroke="#63b8ff" d="M1485.36,-99.6C1445.72,-84.62 1376.78,-58.55 1339.75,-44.55"/>
<polygon fill="#63b8ff" stroke="#63b8ff" points="1490.04,-101.37 1484.57,-101.71 1487.7,-100.49 1485.37,-99.61 1485.37,-99.61 1485.37,-99.61 1487.7,-100.49 1486.16,-97.5 1490.04,-101.37 1490.04,-101.37"/>
</a>
</g>
</g>
<!-- Node3 -->
<g id="Node000003" class="node">
<title>Node3</title>
<g id="a_Node000003"><a xlink:href="../../de/dfd/classPrintingSelectorCardSortingWidget.html#a077b0d184751955161b6bb2c0ed3e0dd" target="_top" xlink:title="Prepend card printings that are contained in the deck to the list of printings.">
<polygon fill="white" stroke="#666666" points="1190,-243 1017,-243 1017,-213 1190,-213 1190,-243"/>
<text text-anchor="start" x="1025" y="-231" font-family="Helvetica,sans-Serif" font-size="10.00">PrintingSelectorCardSorting</text>
<text text-anchor="middle" x="1103.5" y="-220" font-family="Helvetica,sans-Serif" font-size="10.00">Widget::prependPrintingsInDeck</text>
</a>
</g>
</g>
<!-- Node2&#45;&gt;Node3 -->
<g id="edge2_Node000002_Node000003" class="edge">
<title>Node2&#45;&gt;Node3</title>
<g id="a_edge2_Node000002_Node000003"><a xlink:title=" ">
<path fill="none" stroke="#63b8ff" d="M1250.15,-204.19C1231.35,-207.26 1210.38,-210.69 1190.34,-213.97"/>
<polygon fill="#63b8ff" stroke="#63b8ff" points="1255.39,-203.34 1250.82,-206.36 1252.92,-203.74 1250.45,-204.14 1250.45,-204.14 1250.45,-204.14 1252.92,-203.74 1250.09,-201.92 1255.39,-203.34 1255.39,-203.34"/>
</a>
</g>
</g>
<!-- Node4 -->
<g id="Node000004" class="node">
<title>Node4</title>
<g id="a_Node000004"><a xlink:href="../../dc/d15/dlg__select__set__for__cards_8cpp.html#aaa4cbe22ba5cbc2ae3857b7cbea51283" target="_top" xlink:title=" ">
<polygon fill="white" stroke="#666666" points="752,-194.5 672,-194.5 672,-175.5 752,-175.5 752,-194.5"/>
<text text-anchor="middle" x="712" y="-182.5" font-family="Helvetica,sans-Serif" font-size="10.00">swapPrinting</text>
</a>
</g>
</g>
<!-- Node2&#45;&gt;Node4 -->
<g id="edge3_Node000002_Node000004" class="edge">
<title>Node2&#45;&gt;Node4</title>
<g id="a_edge3_Node000002_Node000004"><a xlink:title=" ">
<path fill="none" stroke="#63b8ff" d="M1250.24,-193.07C1126.67,-191.21 853.61,-187.11 752.05,-185.59"/>
<polygon fill="#63b8ff" stroke="#63b8ff" points="1255.29,-193.14 1250.26,-195.32 1252.79,-193.1 1250.29,-193.07 1250.29,-193.07 1250.29,-193.07 1252.79,-193.1 1250.32,-190.82 1255.29,-193.14 1255.29,-193.14"/>
</a>
</g>
</g>
<!-- Node5 -->
<g id="Node000005" class="node">
<title>Node5</title>
<g id="a_Node000005"><a xlink:href="../../de/d26/classDlgSelectSetForCards.html#afc4fba26e6ae2ded0871a40cc35de04e" target="_top" xlink:title=" ">
<polygon fill="white" stroke="#666666" points="571.5,-204 449.5,-204 449.5,-174 571.5,-174 571.5,-204"/>
<text text-anchor="start" x="457.5" y="-192" font-family="Helvetica,sans-Serif" font-size="10.00">DlgSelectSetForCards</text>
<text text-anchor="middle" x="510.5" y="-181" font-family="Helvetica,sans-Serif" font-size="10.00">::actOK</text>
</a>
</g>
</g>
<!-- Node4&#45;&gt;Node5 -->
<g id="edge4_Node000004_Node000005" class="edge">
<title>Node4&#45;&gt;Node5</title>
<g id="a_edge4_Node000004_Node000005"><a xlink:title=" ">
<path fill="none" stroke="#63b8ff" d="M666.47,-185.89C638.53,-186.45 602.16,-187.18 571.67,-187.79"/>
<polygon fill="#63b8ff" stroke="#63b8ff" points="671.59,-185.79 666.63,-188.14 669.09,-185.84 666.59,-185.89 666.59,-185.89 666.59,-185.89 669.09,-185.84 666.54,-183.64 671.59,-185.79 671.59,-185.79"/>
</a>
</g>
</g>
<!-- Node6 -->
<g id="Node000006" class="node">
<title>Node6</title>
<g id="a_Node000006"><a xlink:href="../../de/d26/classDlgSelectSetForCards.html#a5dcdea65584bb80ef387657cd1b11bed" target="_top" xlink:title=" ">
<polygon fill="white" stroke="#666666" points="365.5,-212 237.5,-212 237.5,-182 365.5,-182 365.5,-212"/>
<text text-anchor="start" x="245.5" y="-200" font-family="Helvetica,sans-Serif" font-size="10.00">DlgSelectSetForCards</text>
<text text-anchor="middle" x="301.5" y="-189" font-family="Helvetica,sans-Serif" font-size="10.00">::DlgSelectSetForCards</text>
</a>
</g>
</g>
<!-- Node5&#45;&gt;Node6 -->
<g id="edge5_Node000005_Node000006" class="edge">
<title>Node5&#45;&gt;Node6</title>
<g id="a_edge5_Node000005_Node000006"><a xlink:title=" ">
<path fill="none" stroke="#63b8ff" d="M444.06,-191.53C419.01,-192.5 390.52,-193.6 365.69,-194.56"/>
<polygon fill="#63b8ff" stroke="#63b8ff" points="449.35,-191.32 444.44,-193.77 446.85,-191.42 444.35,-191.52 444.35,-191.52 444.35,-191.52 446.85,-191.42 444.27,-189.27 449.35,-191.32 449.35,-191.32"/>
</a>
</g>
</g>
<!-- Node7&#45;&gt;Node7 -->
<g id="edge7_Node000007_Node000007" class="edge">
<title>Node7&#45;&gt;Node7</title>
<g id="a_edge7_Node000007_Node000007"><a xlink:title=" ">
<path fill="none" stroke="#63b8ff" d="M1351.33,-152.89C1352.25,-160.11 1339.64,-166 1313.5,-166 1281.94,-166 1270.1,-157.41 1277.99,-148.28"/>
<polygon fill="#63b8ff" stroke="#63b8ff" points="1349.01,-148.28 1353.26,-151.73 1350.13,-150.51 1351.25,-152.74 1351.25,-152.74 1351.25,-152.74 1350.13,-150.51 1349.24,-153.75 1349.01,-148.28 1349.01,-148.28"/>
</a>
</g>
</g>
<!-- Node8 -->
<g id="Node000008" class="node">
<title>Node8</title>
<g id="a_Node000008"><a xlink:href="../../d9/de1/classDeckListModel.html#a1ec5508f88854cb5fb365dca3d42908d" target="_top" xlink:title=" ">
<polygon fill="white" stroke="#666666" points="1173.5,-148 1033.5,-148 1033.5,-118 1173.5,-118 1173.5,-148"/>
<text text-anchor="start" x="1041.5" y="-136" font-family="Helvetica,sans-Serif" font-size="10.00">DeckListModel::setActive</text>
<text text-anchor="middle" x="1103.5" y="-125" font-family="Helvetica,sans-Serif" font-size="10.00">Format</text>
</a>
</g>
</g>
<!-- Node7&#45;&gt;Node8 -->
<g id="edge8_Node000007_Node000008" class="edge">
<title>Node7&#45;&gt;Node8</title>
<g id="a_edge8_Node000007_Node000008"><a xlink:title=" ">
<path fill="none" stroke="#63b8ff" d="M1220.48,-133C1204.75,-133 1188.66,-133 1173.65,-133"/>
<polygon fill="#63b8ff" stroke="#63b8ff" points="1225.8,-133 1220.8,-135.25 1223.3,-133 1220.8,-133 1220.8,-133 1220.8,-133 1223.3,-133 1220.8,-130.75 1225.8,-133 1225.8,-133"/>
</a>
</g>
</g>
<!-- Node10&#45;&gt;Node10 -->
<g id="edge27_Node000010_Node000010" class="edge">
<title>Node10&#45;&gt;Node10</title>
<g id="a_edge27_Node000010_Node000010"><a xlink:title=" ">
<path fill="none" stroke="#63b8ff" d="M1349.12,-47.84C1356.79,-55.41 1344.91,-62.5 1313.5,-62.5 1277.6,-62.5 1267.22,-53.23 1282.37,-44.58"/>
<polygon fill="#63b8ff" stroke="#63b8ff" points="1344.63,-44.58 1350,-45.7 1346.66,-46.05 1348.68,-47.52 1348.68,-47.52 1348.68,-47.52 1346.66,-46.05 1347.36,-49.34 1344.63,-44.58 1344.63,-44.58"/>
</a>
</g>
</g>
<!-- Node11 -->
<g id="Node000011" class="node">
<title>Node11</title>
<g id="a_Node000011"><a xlink:href="../../d9/de1/classDeckListModel.html#a93fc3adc648030ffc217b06ef4ce5c22" target="_top" xlink:title=" ">
<polygon fill="white" stroke="#666666" points="1160,-44.5 1047,-44.5 1047,-25.5 1160,-25.5 1160,-44.5"/>
<text text-anchor="middle" x="1103.5" y="-32.5" font-family="Helvetica,sans-Serif" font-size="10.00">DeckListModel::sort</text>
</a>
</g>
</g>
<!-- Node10&#45;&gt;Node11 -->
<g id="edge11_Node000010_Node000011" class="edge">
<title>Node10&#45;&gt;Node11</title>
<g id="a_edge11_Node000010_Node000011"><a xlink:title=" ">
<path fill="none" stroke="#63b8ff" d="M1235.06,-35C1210.18,-35 1183.13,-35 1160.14,-35"/>
<polygon fill="#63b8ff" stroke="#63b8ff" points="1240.34,-35 1235.34,-37.25 1237.84,-35 1235.34,-35 1235.34,-35 1235.34,-35 1237.84,-35 1235.34,-32.75 1240.34,-35 1240.34,-35"/>
</a>
</g>
</g>
<!-- Node12 -->
<g id="Node000012" class="node">
<title>Node12</title>
<g id="a_Node000012"><a xlink:href="../../d9/de1/classDeckListModel.html#ac31406c75864382e2499851f3c84460e" target="_top" xlink:title="Adds an ExactCard to the specified zone.">
<polygon fill="white" stroke="#666666" points="971.5,-110.5 836.5,-110.5 836.5,-91.5 971.5,-91.5 971.5,-110.5"/>
<text text-anchor="middle" x="904" y="-98.5" font-family="Helvetica,sans-Serif" font-size="10.00">DeckListModel::addCard</text>
</a>
</g>
</g>
<!-- Node11&#45;&gt;Node12 -->
<g id="edge12_Node000011_Node000012" class="edge">
<title>Node11&#45;&gt;Node12</title>
<g id="a_edge12_Node000011_Node000012"><a xlink:title=" ">
<path fill="none" stroke="#63b8ff" d="M1068.79,-46.26C1030.66,-59.01 969.23,-79.53 933.43,-91.5"/>
<polygon fill="#63b8ff" stroke="#63b8ff" points="1073.78,-44.6 1069.75,-48.32 1071.41,-45.39 1069.04,-46.18 1069.04,-46.18 1069.04,-46.18 1071.41,-45.39 1068.33,-44.05 1073.78,-44.6 1073.78,-44.6"/>
</a>
</g>
</g>
<!-- Node21 -->
<g id="Node000021" class="node">
<title>Node21</title>
<g id="a_Node000021"><a xlink:href="../../d9/df7/classDeckEditorDeckDockWidget.html#adfb56dc6dd03726355eb507ca96bcbc6" target="_top" xlink:title=" ">
<polygon fill="white" stroke="#666666" points="981,-45 827,-45 827,-15 981,-15 981,-45"/>
<text text-anchor="start" x="835" y="-33" font-family="Helvetica,sans-Serif" font-size="10.00">DeckEditorDeckDockWidget</text>
<text text-anchor="middle" x="904" y="-22" font-family="Helvetica,sans-Serif" font-size="10.00">::applyActiveGroupCriteria</text>
</a>
</g>
</g>
<!-- Node11&#45;&gt;Node21 -->
<g id="edge24_Node000011_Node000021" class="edge">
<title>Node11&#45;&gt;Node21</title>
<g id="a_edge24_Node000011_Node000021"><a xlink:title=" ">
<path fill="none" stroke="#63b8ff" d="M1041.63,-33.46C1022.51,-32.97 1001.16,-32.43 981.12,-31.93"/>
<polygon fill="#63b8ff" stroke="#63b8ff" points="1046.96,-33.59 1041.9,-35.72 1044.46,-33.53 1041.96,-33.47 1041.96,-33.47 1041.96,-33.47 1044.46,-33.53 1042.02,-31.22 1046.96,-33.59 1046.96,-33.59"/>
</a>
</g>
</g>
<!-- Node12&#45;&gt;Node4 -->
<g id="edge23_Node000012_Node000004" class="edge">
<title>Node12&#45;&gt;Node4</title>
<g id="a_edge23_Node000012_Node000004"><a xlink:title=" ">
<path fill="none" stroke="#63b8ff" d="M883.93,-113.35C862.16,-127.02 825.16,-148.95 791,-163 778.64,-168.08 764.71,-172.43 752.08,-175.87"/>
<polygon fill="#63b8ff" stroke="#63b8ff" points="888.33,-110.57 885.31,-115.14 886.22,-111.9 884.11,-113.24 884.11,-113.24 884.11,-113.24 886.22,-111.9 882.9,-111.34 888.33,-110.57 888.33,-110.57"/>
</a>
</g>
</g>
<!-- Node13 -->
<g id="Node000013" class="node">
<title>Node13</title>
<g id="a_Node000013"><a xlink:href="../../d1/d29/card__amount__widget_8cpp.html#ad431b00749f2b7e3f48c4ce84f22d61f" target="_top" xlink:title=" ">
<polygon fill="white" stroke="#666666" points="779.5,-153.5 644.5,-153.5 644.5,-134.5 779.5,-134.5 779.5,-153.5"/>
<text text-anchor="middle" x="712" y="-141.5" font-family="Helvetica,sans-Serif" font-size="10.00">addAndReplacePrintings</text>
</a>
</g>
</g>
<!-- Node12&#45;&gt;Node13 -->
<g id="edge13_Node000012_Node000013" class="edge">
<title>Node12&#45;&gt;Node13</title>
<g id="a_edge13_Node000012_Node000013"><a xlink:title=" ">
<path fill="none" stroke="#63b8ff" d="M855.95,-111.65C825.03,-118.65 784.91,-127.73 755.05,-134.48"/>
<polygon fill="#63b8ff" stroke="#63b8ff" points="860.83,-110.54 856.45,-113.84 858.39,-111.09 855.96,-111.65 855.96,-111.65 855.96,-111.65 858.39,-111.09 855.46,-109.45 860.83,-110.54 860.83,-110.54"/>
</a>
</g>
</g>
<!-- Node18 -->
<g id="Node000018" class="node">
<title>Node18</title>
<g id="a_Node000018"><a xlink:href="../../d9/de1/classDeckListModel.html#a889fd2a14a47f7433a130ac36562cb17" target="_top" xlink:title="Adds a card using the preferred printing if available.">
<polygon fill="white" stroke="#666666" points="791,-116 633,-116 633,-86 791,-86 791,-116"/>
<text text-anchor="start" x="641" y="-104" font-family="Helvetica,sans-Serif" font-size="10.00">DeckListModel::addPreferred</text>
<text text-anchor="middle" x="712" y="-93" font-family="Helvetica,sans-Serif" font-size="10.00">PrintingCard</text>
</a>
</g>
</g>
<!-- Node12&#45;&gt;Node18 -->
<g id="edge19_Node000012_Node000018" class="edge">
<title>Node12&#45;&gt;Node18</title>
<g id="a_edge19_Node000012_Node000018"><a xlink:title=" ">
<path fill="none" stroke="#63b8ff" d="M831.13,-101C818.11,-101 804.47,-101 791.28,-101"/>
<polygon fill="#63b8ff" stroke="#63b8ff" points="836.28,-101 831.28,-103.25 833.78,-101 831.28,-101 831.28,-101 831.28,-101 833.78,-101 831.28,-98.75 836.28,-101 836.28,-101"/>
</a>
</g>
</g>
<!-- Node19 -->
<g id="Node000019" class="node">
<title>Node19</title>
<g id="a_Node000019"><a xlink:href="../../df/d8c/deck__state__manager_8cpp.html#aa3e1ffa21bd288dfdab1d668da0eee3d" target="_top" xlink:title=" ">
<polygon fill="white" stroke="#666666" points="549,-67.5 472,-67.5 472,-48.5 549,-48.5 549,-67.5"/>
<text text-anchor="middle" x="510.5" y="-55.5" font-family="Helvetica,sans-Serif" font-size="10.00">doSwapCard</text>
</a>
</g>
</g>
<!-- Node12&#45;&gt;Node19 -->
<g id="edge22_Node000012_Node000019" class="edge">
<title>Node12&#45;&gt;Node19</title>
<g id="a_edge22_Node000012_Node000019"><a xlink:title=" ">
<path fill="none" stroke="#63b8ff" d="M860.24,-90.33C839.46,-85.54 814.06,-80.24 791,-77 705.03,-64.93 603.06,-60.45 549.2,-58.85"/>
<polygon fill="#63b8ff" stroke="#63b8ff" points="865.14,-91.47 859.76,-92.53 862.7,-90.91 860.27,-90.34 860.27,-90.34 860.27,-90.34 862.7,-90.91 860.78,-88.15 865.14,-91.47 865.14,-91.47"/>
</a>
</g>
</g>
<!-- Node14 -->
<g id="Node000014" class="node">
<title>Node14</title>
<g id="a_Node000014"><a xlink:href="../../dc/d15/classCardAmountWidget.html#ac906400975077c0d604ff7112a489a4f" target="_top" xlink:title="Adds a printing of the card to the specified zone (Mainboard or Sideboard).">
<polygon fill="white" stroke="#666666" points="597,-153.5 424,-153.5 424,-134.5 597,-134.5 597,-153.5"/>
<text text-anchor="middle" x="510.5" y="-141.5" font-family="Helvetica,sans-Serif" font-size="10.00">CardAmountWidget::addPrinting</text>
</a>
</g>
</g>
<!-- Node13&#45;&gt;Node14 -->
<g id="edge14_Node000013_Node000014" class="edge">
<title>Node13&#45;&gt;Node14</title>
<g id="a_edge14_Node000013_Node000014"><a xlink:title=" ">
<path fill="none" stroke="#63b8ff" d="M638.95,-144C625.44,-144 611.18,-144 597.3,-144"/>
<polygon fill="#63b8ff" stroke="#63b8ff" points="644.29,-144 639.29,-146.25 641.79,-144 639.29,-144 639.29,-144 639.29,-144 641.79,-144 639.29,-141.75 644.29,-144 644.29,-144"/>
</a>
</g>
</g>
<!-- Node15 -->
<g id="Node000015" class="node">
<title>Node15</title>
<g id="a_Node000015"><a xlink:href="../../dc/d15/classCardAmountWidget.html#aeba2373a04841c9c9c76b7a1c83d969c" target="_top" xlink:title="Adds a printing to the mainboard zone.">
<polygon fill="white" stroke="#666666" points="388,-164 215,-164 215,-134 388,-134 388,-164"/>
<text text-anchor="start" x="223" y="-152" font-family="Helvetica,sans-Serif" font-size="10.00">CardAmountWidget::addPrinting</text>
<text text-anchor="middle" x="301.5" y="-141" font-family="Helvetica,sans-Serif" font-size="10.00">Mainboard</text>
</a>
</g>
</g>
<!-- Node14&#45;&gt;Node15 -->
<g id="edge15_Node000014_Node000015" class="edge">
<title>Node14&#45;&gt;Node15</title>
<g id="a_edge15_Node000014_Node000015"><a xlink:title=" ">
<path fill="none" stroke="#63b8ff" d="M418.54,-146.2C408.43,-146.44 398.16,-146.69 388.12,-146.93"/>
<polygon fill="#63b8ff" stroke="#63b8ff" points="423.81,-146.07 418.87,-148.44 421.31,-146.13 418.81,-146.19 418.81,-146.19 418.81,-146.19 421.31,-146.13 418.76,-143.94 423.81,-146.07 423.81,-146.07"/>
</a>
</g>
</g>
<!-- Node17 -->
<g id="Node000017" class="node">
<title>Node17</title>
<g id="a_Node000017"><a xlink:href="../../dc/d15/classCardAmountWidget.html#aedf81cc186bace12827aa73b0eede4e1" target="_top" xlink:title="Adds a printing to the sideboard zone.">
<polygon fill="white" stroke="#666666" points="388,-116 215,-116 215,-86 388,-86 388,-116"/>
<text text-anchor="start" x="223" y="-104" font-family="Helvetica,sans-Serif" font-size="10.00">CardAmountWidget::addPrinting</text>
<text text-anchor="middle" x="301.5" y="-93" font-family="Helvetica,sans-Serif" font-size="10.00">Sideboard</text>
</a>
</g>
</g>
<!-- Node14&#45;&gt;Node17 -->
<g id="edge17_Node000014_Node000017" class="edge">
<title>Node14&#45;&gt;Node17</title>
<g id="a_edge17_Node000014_Node000017"><a xlink:title=" ">
<path fill="none" stroke="#63b8ff" d="M458.59,-133.42C433.34,-128.18 402.39,-121.75 374.74,-116.01"/>
<polygon fill="#63b8ff" stroke="#63b8ff" points="463.56,-134.46 458.21,-135.64 461.11,-133.95 458.66,-133.44 458.66,-133.44 458.66,-133.44 461.11,-133.95 459.12,-131.24 463.56,-134.46 463.56,-134.46"/>
</a>
</g>
</g>
<!-- Node16 -->
<g id="Node000016" class="node">
<title>Node16</title>
<g id="a_Node000016"><a xlink:href="../../dc/d15/classCardAmountWidget.html#aa53fea0b4b7d37ba10b5982720aeadd8" target="_top" xlink:title="Constructs a widget for displaying and controlling the card count in a specific zone.">
<polygon fill="white" stroke="#666666" points="179,-140 0,-140 0,-110 179,-110 179,-140"/>
<text text-anchor="start" x="8" y="-128" font-family="Helvetica,sans-Serif" font-size="10.00">CardAmountWidget::CardAmount</text>
<text text-anchor="middle" x="89.5" y="-117" font-family="Helvetica,sans-Serif" font-size="10.00">Widget</text>
</a>
</g>
</g>
<!-- Node15&#45;&gt;Node16 -->
<g id="edge16_Node000015_Node000016" class="edge">
<title>Node15&#45;&gt;Node16</title>
<g id="a_edge16_Node000015_Node000016"><a xlink:title=" ">
<path fill="none" stroke="#63b8ff" d="M209.79,-138.63C199.58,-137.47 189.19,-136.28 179.01,-135.12"/>
<polygon fill="#63b8ff" stroke="#63b8ff" points="214.78,-139.2 209.56,-140.87 212.3,-138.92 209.81,-138.64 209.81,-138.64 209.81,-138.64 212.3,-138.92 210.07,-136.4 214.78,-139.2 214.78,-139.2"/>
</a>
</g>
</g>
<!-- Node17&#45;&gt;Node16 -->
<g id="edge18_Node000017_Node000016" class="edge">
<title>Node17&#45;&gt;Node16</title>
<g id="a_edge18_Node000017_Node000016"><a xlink:title=" ">
<path fill="none" stroke="#63b8ff" d="M209.79,-111.37C199.58,-112.53 189.19,-113.72 179.01,-114.88"/>
<polygon fill="#63b8ff" stroke="#63b8ff" points="214.78,-110.8 210.07,-113.6 212.3,-111.08 209.81,-111.36 209.81,-111.36 209.81,-111.36 212.3,-111.08 209.56,-109.13 214.78,-110.8 214.78,-110.8"/>
</a>
</g>
</g>
<!-- Node18&#45;&gt;Node19 -->
<g id="edge20_Node000018_Node000019" class="edge">
<title>Node18&#45;&gt;Node19</title>
<g id="a_edge20_Node000018_Node000019"><a xlink:title=" ">
<path fill="none" stroke="#63b8ff" d="M636.1,-84.86C606.38,-78.45 573.52,-71.37 549.01,-66.08"/>
<polygon fill="#63b8ff" stroke="#63b8ff" points="641.22,-85.96 635.86,-87.11 638.78,-85.43 636.34,-84.91 636.34,-84.91 636.34,-84.91 638.78,-85.43 636.81,-82.71 641.22,-85.96 641.22,-85.96"/>
</a>
</g>
</g>
<!-- Node20 -->
<g id="Node000020" class="node">
<title>Node20</title>
<g id="a_Node000020"><a xlink:href="../../dd/dab/classDeckStateManager.html#aac8bb40a3b2705db7a04cf880972e63f" target="_top" xlink:title="Swaps one copy of the card at the given index between the maindeck and sideboard. No&#45;ops if index is ...">
<polygon fill="white" stroke="#666666" points="383.5,-68 219.5,-68 219.5,-38 383.5,-38 383.5,-68"/>
<text text-anchor="start" x="227.5" y="-56" font-family="Helvetica,sans-Serif" font-size="10.00">DeckStateManager::swapCard</text>
<text text-anchor="middle" x="301.5" y="-45" font-family="Helvetica,sans-Serif" font-size="10.00">AtIndex</text>
</a>
</g>
</g>
<!-- Node19&#45;&gt;Node20 -->
<g id="edge21_Node000019_Node000020" class="edge">
<title>Node19&#45;&gt;Node20</title>
<g id="a_edge21_Node000019_Node000020"><a xlink:title=" ">
<path fill="none" stroke="#63b8ff" d="M466.52,-56.96C442.53,-56.38 411.85,-55.64 383.54,-54.96"/>
<polygon fill="#63b8ff" stroke="#63b8ff" points="471.53,-57.08 466.48,-59.21 469.03,-57.02 466.53,-56.96 466.53,-56.96 466.53,-56.96 469.03,-57.02 466.59,-54.71 471.53,-57.08 471.53,-57.08"/>
</a>
</g>
</g>
<!-- Node22 -->
<g id="Node000022" class="node">
<title>Node22</title>
<g id="a_Node000022"><a xlink:href="../../d9/df7/classDeckEditorDeckDockWidget.html#af0d083e7f607e47b3fc22a45957c6a6a" target="_top" xlink:title=" ">
<polygon fill="white" stroke="#666666" points="789,-30 635,-30 635,0 789,0 789,-30"/>
<text text-anchor="start" x="643" y="-18" font-family="Helvetica,sans-Serif" font-size="10.00">DeckEditorDeckDockWidget</text>
<text text-anchor="middle" x="712" y="-7" font-family="Helvetica,sans-Serif" font-size="10.00">::createDeckDock</text>
</a>
</g>
</g>
<!-- Node21&#45;&gt;Node22 -->
<g id="edge25_Node000021_Node000022" class="edge">
<title>Node21&#45;&gt;Node22</title>
<g id="a_edge25_Node000021_Node000022"><a xlink:title=" ">
<path fill="none" stroke="#63b8ff" d="M821.56,-23.57C810.82,-22.72 799.85,-21.86 789.2,-21.02"/>
<polygon fill="#63b8ff" stroke="#63b8ff" points="826.81,-23.99 821.65,-25.83 824.32,-23.79 821.83,-23.59 821.83,-23.59 821.83,-23.59 824.32,-23.79 822.01,-21.35 826.81,-23.99 826.81,-23.99"/>
</a>
</g>
</g>
<!-- Node23 -->
<g id="Node000023" class="node">
<title>Node23</title>
<g id="a_Node000023"><a xlink:href="../../d9/df7/classDeckEditorDeckDockWidget.html#a5622dc70448c02427ce3511f07a8531c" target="_top" xlink:title=" ">
<polygon fill="white" stroke="#666666" points="590.5,-30 430.5,-30 430.5,0 590.5,0 590.5,-30"/>
<text text-anchor="start" x="438.5" y="-18" font-family="Helvetica,sans-Serif" font-size="10.00">DeckEditorDeckDockWidget</text>
<text text-anchor="middle" x="510.5" y="-7" font-family="Helvetica,sans-Serif" font-size="10.00">::DeckEditorDeckDockWidget</text>
</a>
</g>
</g>
<!-- Node22&#45;&gt;Node23 -->
<g id="edge26_Node000022_Node000023" class="edge">
<title>Node22&#45;&gt;Node23</title>
<g id="a_edge26_Node000022_Node000023"><a xlink:title=" ">
<path fill="none" stroke="#63b8ff" d="M629.63,-15C616.78,-15 603.51,-15 590.71,-15"/>
<polygon fill="#63b8ff" stroke="#63b8ff" points="634.72,-15 629.72,-17.25 632.22,-15 629.72,-15 629.72,-15 629.72,-15 632.22,-15 629.72,-12.75 634.72,-15 634.72,-15"/>
</a>
</g>
</g>
</g>
</svg>
