<?xml version="1.0" encoding="UTF-8" standalone="no"?>
<!DOCTYPE svg PUBLIC "-//W3C//DTD SVG 1.1//EN"
 "http://www.w3.org/Graphics/SVG/1.1/DTD/svg11.dtd">
<!-- Generated by graphviz version 2.43.0 (0)
 -->
<!-- Title: DeckListModel::rebuildTree Pages: 1 -->
<svg width="521pt" height="124pt"
 viewBox="0.00 0.00 521.00 123.50" xmlns="http://www.w3.org/2000/svg" xmlns:xlink="http://www.w3.org/1999/xlink">
<g id="graph0" class="graph" transform="scale(1 1) rotate(0) translate(4 119.5)">
<title>DeckListModel::rebuildTree</title>
<!-- Node1 -->
<g id="Node000001" class="node">
<title>Node1</title>
<g id="a_Node000001"><a xlink:title="Rebuilds the model tree from the underlying node tree.">
<polygon fill="#999999" stroke="#666666" points="513,-62 364,-62 364,-43 513,-43 513,-62"/>
<text text-anchor="middle" x="438.5" y="-50" font-family="Helvetica,sans-Serif" font-size="10.00">DeckListModel::rebuildTree</text>
</a>
</g>
</g>
<!-- Node2 -->
<g id="Node000002" class="node">
<title>Node2</title>
<g id="a_Node000002"><a xlink:href="../../d9/de1/classDeckListModel.html#a8efbe7d7418bdca0c4c43dcefd4ddffc" target="_top" xlink:title="Sets the criteria used to group cards in the model.">
<polygon fill="white" stroke="#666666" points="321,-115.5 181,-115.5 181,-85.5 321,-85.5 321,-115.5"/>
<text text-anchor="start" x="189" y="-103.5" font-family="Helvetica,sans-Serif" font-size="10.00">DeckListModel::setActive</text>
<text text-anchor="middle" x="251" y="-92.5" font-family="Helvetica,sans-Serif" font-size="10.00">GroupCriteria</text>
</a>
</g>
</g>
<!-- Node1&#45;&gt;Node2 -->
<g id="edge1_Node000001_Node000002" class="edge">
<title>Node1&#45;&gt;Node2</title>
<g id="a_edge1_Node000001_Node000002"><a xlink:title=" ">
<path fill="none" stroke="#63b8ff" d="M395.47,-63.38C370.27,-69.9 337.85,-78.28 310.21,-85.44"/>
<polygon fill="#63b8ff" stroke="#63b8ff" points="400.41,-62.1 396.13,-65.53 397.99,-62.72 395.57,-63.35 395.57,-63.35 395.57,-63.35 397.99,-62.72 395,-61.17 400.41,-62.1 400.41,-62.1"/>
</a>
</g>
</g>
<!-- Node3 -->
<g id="Node000003" class="node">
<title>Node3</title>
<g id="a_Node000003"><a xlink:href="../../d9/df7/classDeckEditorDeckDockWidget.html#a2cceccf12d10aba7a3de6bb25beb594b" target="_top" xlink:title=" ">
<polygon fill="white" stroke="#666666" points="328,-67.5 174,-67.5 174,-37.5 328,-37.5 328,-67.5"/>
<text text-anchor="start" x="182" y="-55.5" font-family="Helvetica,sans-Serif" font-size="10.00">DeckEditorDeckDockWidget</text>
<text text-anchor="middle" x="251" y="-44.5" font-family="Helvetica,sans-Serif" font-size="10.00">::setDeck</text>
</a>
</g>
</g>
<!-- Node1&#45;&gt;Node3 -->
<g id="edge2_Node000001_Node000003" class="edge">
<title>Node1&#45;&gt;Node3</title>
<g id="a_edge2_Node000001_Node000003"><a xlink:title=" ">
<path fill="none" stroke="#63b8ff" d="M358.67,-52.5C348.58,-52.5 338.27,-52.5 328.23,-52.5"/>
<polygon fill="#63b8ff" stroke="#63b8ff" points="363.92,-52.5 358.92,-54.75 361.42,-52.5 358.92,-52.5 358.92,-52.5 358.92,-52.5 361.42,-52.5 358.92,-50.25 363.92,-52.5 363.92,-52.5"/>
</a>
</g>
</g>
<!-- Node4 -->
<g id="Node000004" class="node">
<title>Node4</title>
<g id="a_Node000004"><a xlink:href="../../d9/de1/classDeckListModel.html#a889eec45c358f6de21561faa009eb090" target="_top" xlink:title=" ">
<polygon fill="white" stroke="#666666" points="327,-19 175,-19 175,0 327,0 327,-19"/>
<text text-anchor="middle" x="251" y="-7" font-family="Helvetica,sans-Serif" font-size="10.00">DeckListModel::setDeckList</text>
</a>
</g>
</g>
<!-- Node1&#45;&gt;Node4 -->
<g id="edge3_Node000001_Node000004" class="edge">
<title>Node1&#45;&gt;Node4</title>
<g id="a_edge3_Node000001_Node000004"><a xlink:title=" ">
<path fill="none" stroke="#63b8ff" d="M391.19,-41.77C361.05,-34.78 322.09,-25.75 293.05,-19.02"/>
<polygon fill="#63b8ff" stroke="#63b8ff" points="396.33,-42.96 390.95,-44.02 393.9,-42.39 391.46,-41.83 391.46,-41.83 391.46,-41.83 393.9,-42.39 391.97,-39.64 396.33,-42.96 396.33,-42.96"/>
</a>
</g>
</g>
<!-- Node5 -->
<g id="Node000005" class="node">
<title>Node5</title>
<g id="a_Node000005"><a xlink:href="../../d9/de1/classDeckListModel.html#a1ecfd117038f01fce09c99796ccf67ea" target="_top" xlink:title="Removes all cards and resets the model.">
<polygon fill="white" stroke="#666666" points="138,-19 0,-19 0,0 138,0 138,-19"/>
<text text-anchor="middle" x="69" y="-7" font-family="Helvetica,sans-Serif" font-size="10.00">DeckListModel::cleanList</text>
</a>
</g>
</g>
<!-- Node4&#45;&gt;Node5 -->
<g id="edge4_Node000004_Node000005" class="edge">
<title>Node4&#45;&gt;Node5</title>
<g id="a_edge4_Node000004_Node000005"><a xlink:title=" ">
<path fill="none" stroke="#63b8ff" d="M169.78,-9.5C159.17,-9.5 148.39,-9.5 138.01,-9.5"/>
<polygon fill="#63b8ff" stroke="#63b8ff" points="174.97,-9.5 169.97,-11.75 172.47,-9.5 169.97,-9.5 169.97,-9.5 169.97,-9.5 172.47,-9.5 169.97,-7.25 174.97,-9.5 174.97,-9.5"/>
</a>
</g>
</g>
</g>
</svg>
