<?xml version="1.0" encoding="UTF-8" standalone="no"?>
<!DOCTYPE svg PUBLIC "-//W3C//DTD SVG 1.1//EN"
 "http://www.w3.org/Graphics/SVG/1.1/DTD/svg11.dtd">
<!-- Generated by graphviz version 2.43.0 (0)
 -->
<!-- Title: DeckListModel::DeckListModel Pages: 1 -->
<svg width="1496pt" height="620pt"
 viewBox="0.00 0.00 1496.00 619.50" xmlns="http://www.w3.org/2000/svg" xmlns:xlink="http://www.w3.org/1999/xlink">
<g id="graph0" class="graph" transform="scale(1 1) rotate(0) translate(4 615.5)">
<title>DeckListModel::DeckListModel</title>
<!-- Node1 -->
<g id="Node000001" class="node">
<title>Node1</title>
<g id="a_Node000001"><a xlink:title=" ">
<polygon fill="#999999" stroke="#666666" points="167,-587 0,-587 0,-568 167,-568 167,-587"/>
<text text-anchor="middle" x="83.5" y="-575" font-family="Helvetica,sans-Serif" font-size="10.00">DeckListModel::DeckListModel</text>
</a>
</g>
</g>
<!-- Node2 -->
<g id="Node000002" class="node">
<title>Node2</title>
<g id="a_Node000002"><a xlink:href="../../d9/de1/classDeckListModel.html#a83489c3a11ffc4cc8a713cda2d780aa9" target="_top" xlink:title=" ">
<polygon fill="white" stroke="#666666" points="370,-587 203,-587 203,-568 370,-568 370,-587"/>
<text text-anchor="middle" x="286.5" y="-575" font-family="Helvetica,sans-Serif" font-size="10.00">DeckListModel::DeckListModel</text>
</a>
</g>
</g>
<!-- Node1&#45;&gt;Node2 -->
<g id="edge1_Node000001_Node000002" class="edge">
<title>Node1&#45;&gt;Node2</title>
<g id="a_edge1_Node000001_Node000002"><a xlink:title=" ">
<path fill="none" stroke="#63b8ff" d="M167.12,-577.5C177.17,-577.5 187.47,-577.5 197.6,-577.5"/>
<polygon fill="#63b8ff" stroke="#63b8ff" points="202.87,-577.5 197.87,-579.75 200.37,-577.5 197.87,-577.5 197.87,-577.5 197.87,-577.5 200.37,-577.5 197.87,-575.25 202.87,-577.5 202.87,-577.5"/>
</a>
</g>
</g>
<!-- Node3 -->
<g id="Node000003" class="node">
<title>Node3</title>
<g id="a_Node000003"><a xlink:href="../../d9/de1/classDeckListModel.html#abc148eac619b9e6ca14691c0d73f1395" target="_top" xlink:title=" ">
<polygon fill="white" stroke="#666666" points="750.5,-587 624.5,-587 624.5,-568 750.5,-568 750.5,-587"/>
<text text-anchor="middle" x="687.5" y="-575" font-family="Helvetica,sans-Serif" font-size="10.00">DeckListModel::parent</text>
</a>
</g>
</g>
<!-- Node1&#45;&gt;Node3 -->
<g id="edge6_Node000001_Node000003" class="edge">
<title>Node1&#45;&gt;Node3</title>
<g id="a_edge6_Node000001_Node000003"><a xlink:title=" ">
<path fill="none" stroke="#63b8ff" d="M132.72,-587.01C154.15,-590.78 179.74,-594.65 203,-596.5 365.17,-609.42 406.74,-603.18 569,-591.5 585.34,-590.32 602.9,-588.52 619.34,-586.6"/>
<polygon fill="#63b8ff" stroke="#63b8ff" points="624.4,-586 619.7,-588.82 621.92,-586.29 619.44,-586.59 619.44,-586.59 619.44,-586.59 621.92,-586.29 619.17,-584.35 624.4,-586 624.4,-586"/>
</a>
</g>
</g>
<!-- Node6 -->
<g id="Node000006" class="node">
<title>Node6</title>
<g id="a_Node000006"><a xlink:href="../../d9/de1/classDeckListModel.html#aa87143204e143b61eb7d5811bb007477" target="_top" xlink:title=" ">
<polygon fill="white" stroke="#666666" points="362.5,-530 210.5,-530 210.5,-511 362.5,-511 362.5,-530"/>
<text text-anchor="middle" x="286.5" y="-518" font-family="Helvetica,sans-Serif" font-size="10.00">DeckListModel::setDeckList</text>
</a>
</g>
</g>
<!-- Node1&#45;&gt;Node6 -->
<g id="edge7_Node000001_Node000006" class="edge">
<title>Node1&#45;&gt;Node6</title>
<g id="a_edge7_Node000001_Node000006"><a xlink:title=" ">
<path fill="none" stroke="#63b8ff" d="M118.14,-567.96C153.65,-557.89 209.54,-542.04 246.84,-531.46"/>
<polygon fill="#63b8ff" stroke="#63b8ff" points="251.75,-530.07 247.55,-533.6 249.34,-530.75 246.94,-531.44 246.94,-531.44 246.94,-531.44 249.34,-530.75 246.32,-529.27 251.75,-530.07 251.75,-530.07"/>
</a>
</g>
</g>
<!-- Node2&#45;&gt;Node3 -->
<g id="edge2_Node000002_Node000003" class="edge">
<title>Node2&#45;&gt;Node3</title>
<g id="a_edge2_Node000002_Node000003"><a xlink:title=" ">
<path fill="none" stroke="#63b8ff" d="M370.17,-577.5C443.92,-577.5 550.55,-577.5 619.2,-577.5"/>
<polygon fill="#63b8ff" stroke="#63b8ff" points="624.49,-577.5 619.49,-579.75 621.99,-577.5 619.49,-577.5 619.49,-577.5 619.49,-577.5 621.99,-577.5 619.49,-575.25 624.49,-577.5 624.49,-577.5"/>
</a>
</g>
</g>
<!-- Node4 -->
<g id="Node000004" class="node">
<title>Node4</title>
<g id="a_Node000004"><a xlink:href="../../dc/dd8/classAbstractDecklistNode.html#a0c271fecd144b59d4d9e17de1ca34615" target="_top" xlink:title=" ">
<polygon fill="white" stroke="#666666" points="1126,-611.5 1004,-611.5 1004,-581.5 1126,-581.5 1126,-611.5"/>
<text text-anchor="start" x="1012" y="-599.5" font-family="Helvetica,sans-Serif" font-size="10.00">AbstractDecklistNode</text>
<text text-anchor="middle" x="1065" y="-588.5" font-family="Helvetica,sans-Serif" font-size="10.00">::getParent</text>
</a>
</g>
</g>
<!-- Node3&#45;&gt;Node4 -->
<g id="edge3_Node000003_Node000004" class="edge">
<title>Node3&#45;&gt;Node4</title>
<g id="a_edge3_Node000003_Node000004"><a xlink:title=" ">
<path fill="none" stroke="#63b8ff" d="M736.31,-587.01C757.56,-590.78 782.93,-594.65 806,-596.5 871.4,-601.75 946.42,-601 998.64,-599.38"/>
<polygon fill="#63b8ff" stroke="#63b8ff" points="1003.94,-599.22 999.01,-601.62 1001.44,-599.3 998.94,-599.38 998.94,-599.38 998.94,-599.38 1001.44,-599.3 998.87,-597.13 1003.94,-599.22 1003.94,-599.22"/>
</a>
</g>
</g>
<!-- Node5 -->
<g id="Node000005" class="node">
<title>Node5</title>
<g id="a_Node000005"><a xlink:href="../../d9/de1/classDeckListModel.html#a6da8127a70966e36d96ebf7cb4eb007d" target="_top" xlink:title=" ">
<polygon fill="white" stroke="#666666" points="962,-587 806,-587 806,-568 962,-568 962,-587"/>
<text text-anchor="middle" x="884" y="-575" font-family="Helvetica,sans-Serif" font-size="10.00">DeckListModel::nodeToIndex</text>
</a>
</g>
</g>
<!-- Node3&#45;&gt;Node5 -->
<g id="edge4_Node000003_Node000005" class="edge">
<title>Node3&#45;&gt;Node5</title>
<g id="a_edge4_Node000003_Node000005"><a xlink:title=" ">
<path fill="none" stroke="#63b8ff" d="M750.58,-577.5C766.49,-577.5 783.87,-577.5 800.63,-577.5"/>
<polygon fill="#63b8ff" stroke="#63b8ff" points="805.82,-577.5 800.82,-579.75 803.32,-577.5 800.82,-577.5 800.82,-577.5 800.82,-577.5 803.32,-577.5 800.82,-575.25 805.82,-577.5 805.82,-577.5"/>
</a>
</g>
</g>
<!-- Node5&#45;&gt;Node4 -->
<g id="edge5_Node000005_Node000004" class="edge">
<title>Node5&#45;&gt;Node4</title>
<g id="a_edge5_Node000005_Node000004"><a xlink:title=" ">
<path fill="none" stroke="#63b8ff" d="M962.21,-585.7C974.38,-586.99 986.86,-588.31 998.73,-589.57"/>
<polygon fill="#63b8ff" stroke="#63b8ff" points="1003.77,-590.11 998.56,-591.82 1001.29,-589.84 998.8,-589.58 998.8,-589.58 998.8,-589.58 1001.29,-589.84 999.04,-587.34 1003.77,-590.11 1003.77,-590.11"/>
</a>
</g>
</g>
<!-- Node7 -->
<g id="Node000007" class="node">
<title>Node7</title>
<g id="a_Node000007"><a xlink:href="../../d9/de1/classDeckListModel.html#a7ec31566a7293507368174ddd41507bc" target="_top" xlink:title="Emitted whenever the deck in the model has been replaced with a new one.">
<polygon fill="white" stroke="#666666" points="569,-549 406,-549 406,-530 569,-530 569,-549"/>
<text text-anchor="middle" x="487.5" y="-537" font-family="Helvetica,sans-Serif" font-size="10.00">DeckListModel::deckReplaced</text>
</a>
</g>
</g>
<!-- Node6&#45;&gt;Node7 -->
<g id="edge8_Node000006_Node000007" class="edge">
<title>Node6&#45;&gt;Node7</title>
<g id="a_edge8_Node000006_Node000007"><a xlink:title=" ">
<path fill="none" stroke="#63b8ff" d="M362.73,-527.68C375.17,-528.87 388.15,-530.11 400.82,-531.32"/>
<polygon fill="#63b8ff" stroke="#63b8ff" points="405.85,-531.8 400.65,-533.56 403.36,-531.56 400.87,-531.32 400.87,-531.32 400.87,-531.32 403.36,-531.56 401.08,-529.08 405.85,-531.8 405.85,-531.8"/>
</a>
</g>
</g>
<!-- Node8 -->
<g id="Node000008" class="node">
<title>Node8</title>
<g id="a_Node000008"><a xlink:href="../../d9/de1/classDeckListModel.html#a0f1a16328bef79628489b3384cf9377b" target="_top" xlink:title="Rebuilds the model tree from the underlying node tree.">
<polygon fill="white" stroke="#666666" points="762,-512 613,-512 613,-493 762,-493 762,-512"/>
<text text-anchor="middle" x="687.5" y="-500" font-family="Helvetica,sans-Serif" font-size="10.00">DeckListModel::rebuildTree</text>
</a>
</g>
</g>
<!-- Node6&#45;&gt;Node8 -->
<g id="edge10_Node000006_Node000008" class="edge">
<title>Node6&#45;&gt;Node8</title>
<g id="a_edge10_Node000006_Node000008"><a xlink:title=" ">
<path fill="none" stroke="#63b8ff" d="M362.55,-517.11C432.54,-513.96 536.57,-509.26 607.73,-506.05"/>
<polygon fill="#63b8ff" stroke="#63b8ff" points="612.8,-505.82 607.91,-508.3 610.3,-505.94 607.8,-506.05 607.8,-506.05 607.8,-506.05 610.3,-505.94 607.7,-503.8 612.8,-505.82 612.8,-505.82"/>
</a>
</g>
</g>
<!-- Node15 -->
<g id="Node000015" class="node">
<title>Node15</title>
<g id="a_Node000015"><a xlink:href="../../d9/de1/classDeckListModel.html#a9c45720ad82f9d3c12e98b39a0d748e8" target="_top" xlink:title=" ">
<polygon fill="white" stroke="#666666" points="563.5,-271.5 411.5,-271.5 411.5,-241.5 563.5,-241.5 563.5,-271.5"/>
<text text-anchor="start" x="419.5" y="-259.5" font-family="Helvetica,sans-Serif" font-size="10.00">DeckListModel::refreshCard</text>
<text text-anchor="middle" x="487.5" y="-248.5" font-family="Helvetica,sans-Serif" font-size="10.00">FormatLegalities</text>
</a>
</g>
</g>
<!-- Node6&#45;&gt;Node15 -->
<g id="edge18_Node000006_Node000015" class="edge">
<title>Node6&#45;&gt;Node15</title>
<g id="a_edge18_Node000006_Node000015"><a xlink:title=" ">
<path fill="none" stroke="#63b8ff" d="M294.82,-510.79C324.01,-472.06 432.45,-328.2 471.97,-275.77"/>
<polygon fill="#63b8ff" stroke="#63b8ff" points="475.14,-271.57 473.93,-276.92 473.63,-273.57 472.13,-275.57 472.13,-275.57 472.13,-275.57 473.63,-273.57 470.33,-274.21 475.14,-271.57 475.14,-271.57"/>
</a>
</g>
</g>
<!-- Node7&#45;&gt;Node3 -->
<g id="edge9_Node000007_Node000003" class="edge">
<title>Node7&#45;&gt;Node3</title>
<g id="a_edge9_Node000007_Node000003"><a xlink:title=" ">
<path fill="none" stroke="#63b8ff" d="M538.21,-549.04C566.69,-554.51 602.47,-561.37 631.76,-566.99"/>
<polygon fill="#63b8ff" stroke="#63b8ff" points="636.77,-567.96 631.44,-569.22 634.32,-567.48 631.86,-567.01 631.86,-567.01 631.86,-567.01 634.32,-567.48 632.29,-564.8 636.77,-567.96 636.77,-567.96"/>
</a>
</g>
</g>
<!-- Node9 -->
<g id="Node000009" class="node">
<title>Node9</title>
<g id="a_Node000009"><a xlink:href="../../d1/df7/deck__list__model_8cpp.html#adfbc7d5fedb5a4dbcfd38142a364f490" target="_top" xlink:title="Extract the value from the card that is used for the group criteria.">
<polygon fill="white" stroke="#666666" points="955.5,-550 812.5,-550 812.5,-531 955.5,-531 955.5,-550"/>
<text text-anchor="middle" x="884" y="-538" font-family="Helvetica,sans-Serif" font-size="10.00">extractGroupCriteriaValue</text>
</a>
</g>
</g>
<!-- Node8&#45;&gt;Node9 -->
<g id="edge11_Node000008_Node000009" class="edge">
<title>Node8&#45;&gt;Node9</title>
<g id="a_edge11_Node000008_Node000009"><a xlink:title=" ">
<path fill="none" stroke="#63b8ff" d="M737.33,-512.04C765.31,-517.51 800.46,-524.37 829.22,-529.99"/>
<polygon fill="#63b8ff" stroke="#63b8ff" points="834.15,-530.96 828.81,-532.21 831.7,-530.48 829.24,-530 829.24,-530 829.24,-530 831.7,-530.48 829.67,-527.79 834.15,-530.96 834.15,-530.96"/>
</a>
</g>
</g>
<!-- Node10 -->
<g id="Node000010" class="node">
<title>Node10</title>
<g id="a_Node000010"><a xlink:href="../../d8/dbe/classCardDatabaseQuerier.html#aadf83692b2220aedcfb3e9b36070acb7" target="_top" xlink:title="Retrieves a card by its exact name.">
<polygon fill="white" stroke="#666666" points="1126,-479.5 1004,-479.5 1004,-449.5 1126,-449.5 1126,-479.5"/>
<text text-anchor="start" x="1012" y="-467.5" font-family="Helvetica,sans-Serif" font-size="10.00">CardDatabaseQuerier</text>
<text text-anchor="middle" x="1065" y="-456.5" font-family="Helvetica,sans-Serif" font-size="10.00">::getCardInfo</text>
</a>
</g>
</g>
<!-- Node8&#45;&gt;Node10 -->
<g id="edge12_Node000008_Node000010" class="edge">
<title>Node8&#45;&gt;Node10</title>
<g id="a_edge12_Node000008_Node000010"><a xlink:title=" ">
<path fill="none" stroke="#63b8ff" d="M762.02,-497.03C817.13,-492.69 894.38,-486.1 962,-478.5 973.89,-477.16 986.54,-475.57 998.73,-473.94"/>
<polygon fill="#63b8ff" stroke="#63b8ff" points="1003.92,-473.24 999.27,-476.14 1001.45,-473.58 998.97,-473.91 998.97,-473.91 998.97,-473.91 1001.45,-473.58 998.67,-471.68 1003.92,-473.24 1003.92,-473.24"/>
</a>
</g>
</g>
<!-- Node11 -->
<g id="Node000011" class="node">
<title>Node11</title>
<g id="a_Node000011"><a xlink:href="../../dc/db4/classCardDatabaseManager.html#a7dc153d2d7691d69916d2154a05c5ed1" target="_top" xlink:title="Returns the CardDatabaseQuerier of the singleton database.">
<polygon fill="white" stroke="#666666" points="948,-322.5 820,-322.5 820,-292.5 948,-292.5 948,-322.5"/>
<text text-anchor="start" x="828" y="-310.5" font-family="Helvetica,sans-Serif" font-size="10.00">CardDatabaseManager</text>
<text text-anchor="middle" x="884" y="-299.5" font-family="Helvetica,sans-Serif" font-size="10.00">::query</text>
</a>
</g>
</g>
<!-- Node8&#45;&gt;Node11 -->
<g id="edge13_Node000008_Node000011" class="edge">
<title>Node8&#45;&gt;Node11</title>
<g id="a_edge13_Node000008_Node000011"><a xlink:title=" ">
<path fill="none" stroke="#63b8ff" d="M697.61,-492.96C713.58,-475.93 747.08,-438.78 770,-403.5 789.49,-373.5 778.74,-354.68 806,-331.5 808.86,-329.07 811.97,-326.88 815.23,-324.92"/>
<polygon fill="#63b8ff" stroke="#63b8ff" points="819.78,-322.37 816.52,-326.78 817.6,-323.59 815.42,-324.81 815.42,-324.81 815.42,-324.81 817.6,-323.59 814.32,-322.85 819.78,-322.37 819.78,-322.37"/>
</a>
</g>
</g>
<!-- Node12 -->
<g id="Node000012" class="node">
<title>Node12</title>
<g id="a_Node000012"><a xlink:href="../../dc/db4/classCardDatabaseManager.html#ad3973b040eb93df3be6bd2e790c53d59" target="_top" xlink:title="Returns the singleton CardDatabase instance.">
<polygon fill="white" stroke="#666666" points="1129,-365.5 1001,-365.5 1001,-335.5 1129,-335.5 1129,-365.5"/>
<text text-anchor="start" x="1009" y="-353.5" font-family="Helvetica,sans-Serif" font-size="10.00">CardDatabaseManager</text>
<text text-anchor="middle" x="1065" y="-342.5" font-family="Helvetica,sans-Serif" font-size="10.00">::getInstance</text>
</a>
</g>
</g>
<!-- Node11&#45;&gt;Node12 -->
<g id="edge14_Node000011_Node000012" class="edge">
<title>Node11&#45;&gt;Node12</title>
<g id="a_edge14_Node000011_Node000012"><a xlink:title=" ">
<path fill="none" stroke="#63b8ff" d="M947.61,-322.54C963.41,-326.34 980.45,-330.43 996.49,-334.28"/>
<polygon fill="#63b8ff" stroke="#63b8ff" points="1001.43,-335.47 996.04,-336.49 999,-334.89 996.57,-334.3 996.57,-334.3 996.57,-334.3 999,-334.89 997.09,-332.11 1001.43,-335.47 1001.43,-335.47"/>
</a>
</g>
</g>
<!-- Node13 -->
<g id="Node000013" class="node">
<title>Node13</title>
<g id="a_Node000013"><a xlink:href="../../d5/d45/classCardDatabase.html#affe0baec75387712dc3a93199b56fc08" target="_top" xlink:title="Returns the querier for performing card lookups.">
<polygon fill="white" stroke="#666666" points="1124.5,-317 1005.5,-317 1005.5,-298 1124.5,-298 1124.5,-317"/>
<text text-anchor="middle" x="1065" y="-305" font-family="Helvetica,sans-Serif" font-size="10.00">CardDatabase::query</text>
</a>
</g>
</g>
<!-- Node11&#45;&gt;Node13 -->
<g id="edge15_Node000011_Node000013" class="edge">
<title>Node11&#45;&gt;Node13</title>
<g id="a_edge15_Node000011_Node000013"><a xlink:title=" ">
<path fill="none" stroke="#63b8ff" d="M948.11,-307.5C964.98,-307.5 983.23,-307.5 1000.15,-307.5"/>
<polygon fill="#63b8ff" stroke="#63b8ff" points="1005.35,-307.5 1000.35,-309.75 1002.85,-307.5 1000.35,-307.5 1000.35,-307.5 1000.35,-307.5 1002.85,-307.5 1000.35,-305.25 1005.35,-307.5 1005.35,-307.5"/>
</a>
</g>
</g>
<!-- Node14 -->
<g id="Node000014" class="node">
<title>Node14</title>
<g id="a_Node000014"><a xlink:href="../../d5/d45/classCardDatabase.html#ac86d4003efc8430ad7363557149e0e5a" target="_top" xlink:title=" ">
<polygon fill="white" stroke="#666666" points="1329,-322.5 1168,-322.5 1168,-292.5 1329,-292.5 1329,-322.5"/>
<text text-anchor="start" x="1176" y="-310.5" font-family="Helvetica,sans-Serif" font-size="10.00">CardDatabase::CardDatabase</text>
<text text-anchor="middle" x="1248.5" y="-299.5" font-family="Helvetica,sans-Serif" font-size="10.00">Querier</text>
</a>
</g>
</g>
<!-- Node13&#45;&gt;Node14 -->
<g id="edge16_Node000013_Node000014" class="edge">
<title>Node13&#45;&gt;Node14</title>
<g id="a_edge16_Node000013_Node000014"><a xlink:title=" ">
<path fill="none" stroke="#63b8ff" d="M1124.68,-307.5C1136.84,-307.5 1149.88,-307.5 1162.76,-307.5"/>
<polygon fill="#63b8ff" stroke="#63b8ff" points="1167.88,-307.5 1162.88,-309.75 1165.38,-307.5 1162.88,-307.5 1162.88,-307.5 1162.88,-307.5 1165.38,-307.5 1162.88,-305.25 1167.88,-307.5 1167.88,-307.5"/>
</a>
</g>
</g>
<!-- Node14&#45;&gt;Node14 -->
<g id="edge17_Node000014_Node000014" class="edge">
<title>Node14&#45;&gt;Node14</title>
<g id="a_edge17_Node000014_Node000014"><a xlink:title=" ">
<path fill="none" stroke="#63b8ff" d="M1217.21,-322.78C1210.26,-331.91 1220.69,-340.5 1248.5,-340.5 1271.53,-340.5 1282.64,-334.61 1281.83,-327.39"/>
<polygon fill="#63b8ff" stroke="#63b8ff" points="1279.79,-322.78 1283.87,-326.44 1280.8,-325.06 1281.81,-327.35 1281.81,-327.35 1281.81,-327.35 1280.8,-325.06 1279.76,-328.26 1279.79,-322.78 1279.79,-322.78"/>
</a>
</g>
</g>
<!-- Node15&#45;&gt;Node11 -->
<g id="edge43_Node000015_Node000011" class="edge">
<title>Node15&#45;&gt;Node11</title>
<g id="a_edge43_Node000015_Node000011"><a xlink:title=" ">
<path fill="none" stroke="#63b8ff" d="M563.63,-266.21C636.11,-275.58 744.86,-289.64 814.88,-298.69"/>
<polygon fill="#63b8ff" stroke="#63b8ff" points="819.86,-299.34 814.61,-300.93 817.38,-299.02 814.9,-298.7 814.9,-298.7 814.9,-298.7 817.38,-299.02 815.19,-296.46 819.86,-299.34 819.86,-299.34"/>
</a>
</g>
</g>
<!-- Node16 -->
<g id="Node000016" class="node">
<title>Node16</title>
<g id="a_Node000016"><a xlink:href="../../d8/dbe/classCardDatabaseQuerier.html#a86275c7c5712a74100288f48acafd264" target="_top" xlink:title="Converts a CardRef into an ExactCard.">
<polygon fill="white" stroke="#666666" points="748.5,-394.5 626.5,-394.5 626.5,-364.5 748.5,-364.5 748.5,-394.5"/>
<text text-anchor="start" x="634.5" y="-382.5" font-family="Helvetica,sans-Serif" font-size="10.00">CardDatabaseQuerier</text>
<text text-anchor="middle" x="687.5" y="-371.5" font-family="Helvetica,sans-Serif" font-size="10.00">::getCard</text>
</a>
</g>
</g>
<!-- Node15&#45;&gt;Node16 -->
<g id="edge19_Node000015_Node000016" class="edge">
<title>Node15&#45;&gt;Node16</title>
<g id="a_edge19_Node000015_Node000016"><a xlink:title=" ">
<path fill="none" stroke="#63b8ff" d="M512.78,-271.58C549.4,-294.33 618.62,-337.33 657.72,-361.62"/>
<polygon fill="#63b8ff" stroke="#63b8ff" points="662.33,-364.49 656.9,-363.76 660.21,-363.17 658.09,-361.85 658.09,-361.85 658.09,-361.85 660.21,-363.17 659.27,-359.94 662.33,-364.49 662.33,-364.49"/>
</a>
</g>
</g>
<!-- Node19 -->
<g id="Node000019" class="node">
<title>Node19</title>
<g id="a_Node000019"><a xlink:href="../../df/d4e/classExactCard.html#a1eff501b66e24df71dc94193122e08f0" target="_top" xlink:title="Returns a reference to the underlying CardInfo object.">
<polygon fill="white" stroke="#666666" points="741,-28 634,-28 634,-9 741,-9 741,-28"/>
<text text-anchor="middle" x="687.5" y="-16" font-family="Helvetica,sans-Serif" font-size="10.00">ExactCard::getInfo</text>
</a>
</g>
</g>
<!-- Node15&#45;&gt;Node19 -->
<g id="edge25_Node000015_Node000019" class="edge">
<title>Node15&#45;&gt;Node19</title>
<g id="a_edge25_Node000015_Node000019"><a xlink:title=" ">
<path fill="none" stroke="#63b8ff" d="M493.19,-241.37C505.5,-204.03 542.18,-106.53 605,-51.5 615.94,-41.91 630.03,-34.89 643.41,-29.85"/>
<polygon fill="#63b8ff" stroke="#63b8ff" points="648.3,-28.09 644.36,-31.9 645.95,-28.94 643.6,-29.79 643.6,-29.79 643.6,-29.79 645.95,-28.94 642.83,-27.67 648.3,-28.09 648.3,-28.09"/>
</a>
</g>
</g>
<!-- Node21 -->
<g id="Node000021" class="node">
<title>Node21</title>
<g id="a_Node000021"><a xlink:href="../../d1/df7/deck__list__model_8cpp.html#a080370ae429801e4ef700342d433df34" target="_top" xlink:title=" ">
<polygon fill="white" stroke="#666666" points="770,-236 605,-236 605,-217 770,-217 770,-236"/>
<text text-anchor="middle" x="687.5" y="-224" font-family="Helvetica,sans-Serif" font-size="10.00">isCardQuantityLegalForFormat</text>
</a>
</g>
</g>
<!-- Node15&#45;&gt;Node21 -->
<g id="edge28_Node000015_Node000021" class="edge">
<title>Node15&#45;&gt;Node21</title>
<g id="a_edge28_Node000015_Node000021"><a xlink:title=" ">
<path fill="none" stroke="#63b8ff" d="M563.64,-245.12C581.74,-242.37 600.97,-239.46 618.71,-236.77"/>
<polygon fill="#63b8ff" stroke="#63b8ff" points="623.67,-236.02 619.07,-238.99 621.2,-236.39 618.73,-236.77 618.73,-236.77 618.73,-236.77 621.2,-236.39 618.39,-234.54 623.67,-236.02 623.67,-236.02"/>
</a>
</g>
</g>
<!-- Node32 -->
<g id="Node000032" class="node">
<title>Node32</title>
<g id="a_Node000032"><a xlink:href="../../dd/dd2/classCardInfo.html#a97f4edb58266c8d5235efc34d86c44e5" target="_top" xlink:title="Checks if the card is legal in the given format. A card is considered legal in a format if its proper...">
<polygon fill="white" stroke="#666666" points="1319.5,-137 1177.5,-137 1177.5,-118 1319.5,-118 1319.5,-137"/>
<text text-anchor="middle" x="1248.5" y="-125" font-family="Helvetica,sans-Serif" font-size="10.00">CardInfo::isLegalInFormat</text>
</a>
</g>
</g>
<!-- Node15&#45;&gt;Node32 -->
<g id="edge41_Node000015_Node000032" class="edge">
<title>Node15&#45;&gt;Node32</title>
<g id="a_edge41_Node000015_Node000032"><a xlink:title=" ">
<path fill="none" stroke="#63b8ff" d="M508.2,-241.28C555.96,-205.45 683.07,-116.5 806,-85.5 954,-48.18 1137.54,-93.85 1212.82,-116.35"/>
<polygon fill="#63b8ff" stroke="#63b8ff" points="1218.05,-117.93 1212.62,-118.64 1215.66,-117.21 1213.27,-116.49 1213.27,-116.49 1213.27,-116.49 1215.66,-117.21 1213.92,-114.33 1218.05,-117.93 1218.05,-117.93"/>
</a>
</g>
</g>
<!-- Node16&#45;&gt;Node10 -->
<g id="edge21_Node000016_Node000010" class="edge">
<title>Node16&#45;&gt;Node10</title>
<g id="a_edge21_Node000016_Node000010"><a xlink:title=" ">
<path fill="none" stroke="#63b8ff" d="M708.88,-394.66C731.37,-410.46 769.26,-434.43 806,-445.5 869.53,-464.64 945.66,-468.02 998.68,-467.45"/>
<polygon fill="#63b8ff" stroke="#63b8ff" points="1003.74,-467.38 998.77,-469.7 1001.24,-467.42 998.74,-467.45 998.74,-467.45 998.74,-467.45 1001.24,-467.42 998.71,-465.2 1003.74,-467.38 1003.74,-467.38"/>
</a>
</g>
</g>
<!-- Node17 -->
<g id="Node000017" class="node">
<title>Node17</title>
<g id="a_Node000017"><a xlink:href="../../d8/dbe/classCardDatabaseQuerier.html#a15bb0aa11d39712c5de281e111f01abc" target="_top" xlink:title="Searches for a printing that matches a given providerId.">
<polygon fill="white" stroke="#666666" points="945,-370.5 823,-370.5 823,-340.5 945,-340.5 945,-370.5"/>
<text text-anchor="start" x="831" y="-358.5" font-family="Helvetica,sans-Serif" font-size="10.00">CardDatabaseQuerier</text>
<text text-anchor="middle" x="884" y="-347.5" font-family="Helvetica,sans-Serif" font-size="10.00">::findPrintingWithId</text>
</a>
</g>
</g>
<!-- Node16&#45;&gt;Node17 -->
<g id="edge20_Node000016_Node000017" class="edge">
<title>Node16&#45;&gt;Node17</title>
<g id="a_edge20_Node000016_Node000017"><a xlink:title=" ">
<path fill="none" stroke="#63b8ff" d="M748.71,-372.07C770.59,-369.37 795.42,-366.31 817.73,-363.55"/>
<polygon fill="#63b8ff" stroke="#63b8ff" points="822.74,-362.94 818.05,-365.78 820.26,-363.24 817.78,-363.55 817.78,-363.55 817.78,-363.55 820.26,-363.24 817.5,-361.31 822.74,-362.94 822.74,-362.94"/>
</a>
</g>
</g>
<!-- Node18 -->
<g id="Node000018" class="node">
<title>Node18</title>
<g id="a_Node000018"><a xlink:href="../../d8/dbe/classCardDatabaseQuerier.html#a1a815c13c6035c07c2a6719a95e56784" target="_top" xlink:title="Returns the preferred printing for the given card name.">
<polygon fill="white" stroke="#666666" points="945,-418.5 823,-418.5 823,-388.5 945,-388.5 945,-418.5"/>
<text text-anchor="start" x="831" y="-406.5" font-family="Helvetica,sans-Serif" font-size="10.00">CardDatabaseQuerier</text>
<text text-anchor="middle" x="884" y="-395.5" font-family="Helvetica,sans-Serif" font-size="10.00">::getPreferredPrinting</text>
</a>
</g>
</g>
<!-- Node16&#45;&gt;Node18 -->
<g id="edge22_Node000016_Node000018" class="edge">
<title>Node16&#45;&gt;Node18</title>
<g id="a_edge22_Node000016_Node000018"><a xlink:title=" ">
<path fill="none" stroke="#63b8ff" d="M748.71,-386.93C770.59,-389.63 795.42,-392.69 817.73,-395.45"/>
<polygon fill="#63b8ff" stroke="#63b8ff" points="822.74,-396.06 817.5,-397.69 820.26,-395.76 817.78,-395.45 817.78,-395.45 817.78,-395.45 820.26,-395.76 818.05,-393.22 822.74,-396.06 822.74,-396.06"/>
</a>
</g>
</g>
<!-- Node18&#45;&gt;Node10 -->
<g id="edge23_Node000018_Node000010" class="edge">
<title>Node18&#45;&gt;Node10</title>
<g id="a_edge23_Node000018_Node000010"><a xlink:title=" ">
<path fill="none" stroke="#63b8ff" d="M929.25,-418.58C955.27,-427.45 988.22,-438.68 1015.02,-447.81"/>
<polygon fill="#63b8ff" stroke="#63b8ff" points="1019.95,-449.49 1014.49,-450.01 1017.59,-448.68 1015.22,-447.88 1015.22,-447.88 1015.22,-447.88 1017.59,-448.68 1015.95,-445.75 1019.95,-449.49 1019.95,-449.49"/>
</a>
</g>
</g>
<!-- Node18&#45;&gt;Node18 -->
<g id="edge24_Node000018_Node000018" class="edge">
<title>Node18&#45;&gt;Node18</title>
<g id="a_edge24_Node000018_Node000018"><a xlink:title=" ">
<path fill="none" stroke="#63b8ff" d="M852.36,-418.78C845.33,-427.91 855.88,-436.5 884,-436.5 907.29,-436.5 918.53,-430.61 917.71,-423.39"/>
<polygon fill="#63b8ff" stroke="#63b8ff" points="915.64,-418.78 919.74,-422.42 916.66,-421.06 917.68,-423.34 917.68,-423.34 917.68,-423.34 916.66,-421.06 915.63,-424.26 915.64,-418.78 915.64,-418.78"/>
</a>
</g>
</g>
<!-- Node20 -->
<g id="Node000020" class="node">
<title>Node20</title>
<g id="a_Node000020"><a xlink:href="../../dd/dd2/classCardInfo.html#a8ea0b0d5a1ed44c1ce62f59e31375771" target="_top" xlink:title="Creates a new instance with only the card name.">
<polygon fill="white" stroke="#666666" points="946.5,-19 821.5,-19 821.5,0 946.5,0 946.5,-19"/>
<text text-anchor="middle" x="884" y="-7" font-family="Helvetica,sans-Serif" font-size="10.00">CardInfo::newInstance</text>
</a>
</g>
</g>
<!-- Node19&#45;&gt;Node20 -->
<g id="edge26_Node000019_Node000020" class="edge">
<title>Node19&#45;&gt;Node20</title>
<g id="a_edge26_Node000019_Node000020"><a xlink:title=" ">
<path fill="none" stroke="#63b8ff" d="M741.13,-16.06C764.24,-15 791.64,-13.73 816.17,-12.59"/>
<polygon fill="#63b8ff" stroke="#63b8ff" points="821.35,-12.35 816.46,-14.83 818.86,-12.47 816.36,-12.58 816.36,-12.58 816.36,-12.58 818.86,-12.47 816.26,-10.34 821.35,-12.35 821.35,-12.35"/>
</a>
</g>
</g>
<!-- Node20&#45;&gt;Node20 -->
<g id="edge27_Node000020_Node000020" class="edge">
<title>Node20&#45;&gt;Node20</title>
<g id="a_edge27_Node000020_Node000020"><a xlink:title=" ">
<path fill="none" stroke="#63b8ff" d="M856.26,-19.08C842.76,-27.73 852.01,-37 884,-37 911.99,-37 922.57,-29.91 915.74,-22.34"/>
<polygon fill="#63b8ff" stroke="#63b8ff" points="911.74,-19.08 917.04,-20.5 913.68,-20.66 915.62,-22.24 915.62,-22.24 915.62,-22.24 913.68,-20.66 914.2,-23.98 911.74,-19.08 911.74,-19.08"/>
</a>
</g>
</g>
<!-- Node21&#45;&gt;Node11 -->
<g id="edge40_Node000021_Node000011" class="edge">
<title>Node21&#45;&gt;Node11</title>
<g id="a_edge40_Node000021_Node000011"><a xlink:title=" ">
<path fill="none" stroke="#63b8ff" d="M706.04,-236.04C728.69,-248.11 769.53,-269.06 806,-283.5 812.33,-286.01 819.03,-288.42 825.73,-290.7"/>
<polygon fill="#63b8ff" stroke="#63b8ff" points="830.86,-292.41 825.4,-292.96 828.49,-291.62 826.11,-290.83 826.11,-290.83 826.11,-290.83 828.49,-291.62 826.83,-288.69 830.86,-292.41 830.86,-292.41"/>
</a>
</g>
</g>
<!-- Node22 -->
<g id="Node000022" class="node">
<title>Node22</title>
<g id="a_Node000022"><a xlink:href="../../d9/d01/format__legality__rules_8cpp.html#a53c095b9060dd1b1b38a763d2aa412ab" target="_top" xlink:title=" ">
<polygon fill="white" stroke="#666666" points="945.5,-274 822.5,-274 822.5,-255 945.5,-255 945.5,-274"/>
<text text-anchor="middle" x="884" y="-262" font-family="Helvetica,sans-Serif" font-size="10.00">cardHasAnyException</text>
</a>
</g>
</g>
<!-- Node21&#45;&gt;Node22 -->
<g id="edge29_Node000021_Node000022" class="edge">
<title>Node21&#45;&gt;Node22</title>
<g id="a_edge29_Node000021_Node000022"><a xlink:title=" ">
<path fill="none" stroke="#63b8ff" d="M737.33,-236.04C765.31,-241.51 800.46,-248.37 829.22,-253.99"/>
<polygon fill="#63b8ff" stroke="#63b8ff" points="834.15,-254.96 828.81,-256.21 831.7,-254.48 829.24,-254 829.24,-254 829.24,-254 831.7,-254.48 829.67,-251.79 834.15,-254.96 834.15,-254.96"/>
</a>
</g>
</g>
<!-- Node26 -->
<g id="Node000026" class="node">
<title>Node26</title>
<g id="a_Node000026"><a xlink:href="../../dd/dd2/classCardInfo.html#abbd0d10e28cfb3ea1ec54d6c764b97a4" target="_top" xlink:title=" ">
<polygon fill="white" stroke="#666666" points="1487,-218 1366,-218 1366,-199 1487,-199 1487,-218"/>
<text text-anchor="middle" x="1426.5" y="-206" font-family="Helvetica,sans-Serif" font-size="10.00">CardInfo::getProperty</text>
</a>
</g>
</g>
<!-- Node21&#45;&gt;Node26 -->
<g id="edge38_Node000021_Node000026" class="edge">
<title>Node21&#45;&gt;Node26</title>
<g id="a_edge38_Node000021_Node000026"><a xlink:title=" ">
<path fill="none" stroke="#63b8ff" d="M770.19,-224.5C917.83,-220.9 1226.21,-213.37 1360.58,-210.09"/>
<polygon fill="#63b8ff" stroke="#63b8ff" points="1365.68,-209.96 1360.74,-212.33 1363.18,-210.02 1360.68,-210.08 1360.68,-210.08 1360.68,-210.08 1363.18,-210.02 1360.63,-207.83 1365.68,-209.96 1365.68,-209.96"/>
</a>
</g>
</g>
<!-- Node29 -->
<g id="Node000029" class="node">
<title>Node29</title>
<g id="a_Node000029"><a xlink:href="../../d8/dbe/classCardDatabaseQuerier.html#ae51f5f1e216309b2bc5215f35efc9c08" target="_top" xlink:title=" ">
<polygon fill="white" stroke="#666666" points="945,-198.5 823,-198.5 823,-168.5 945,-168.5 945,-198.5"/>
<text text-anchor="start" x="831" y="-186.5" font-family="Helvetica,sans-Serif" font-size="10.00">CardDatabaseQuerier</text>
<text text-anchor="middle" x="884" y="-175.5" font-family="Helvetica,sans-Serif" font-size="10.00">::getFormat</text>
</a>
</g>
</g>
<!-- Node21&#45;&gt;Node29 -->
<g id="edge36_Node000021_Node000029" class="edge">
<title>Node21&#45;&gt;Node29</title>
<g id="a_edge36_Node000021_Node000029"><a xlink:title=" ">
<path fill="none" stroke="#63b8ff" d="M731.67,-216.96C757.06,-211.34 789.66,-204.14 818.1,-197.85"/>
<polygon fill="#63b8ff" stroke="#63b8ff" points="822.99,-196.77 818.59,-200.04 820.55,-197.31 818.11,-197.85 818.11,-197.85 818.11,-197.85 820.55,-197.31 817.62,-195.65 822.99,-196.77 822.99,-196.77"/>
</a>
</g>
</g>
<!-- Node30 -->
<g id="Node000030" class="node">
<title>Node30</title>
<g id="a_Node000030"><a xlink:href="../../dd/dd2/classCardInfo.html#af2a0e300829b6b147cb4e717c58f68e4" target="_top" xlink:title=" ">
<polygon fill="white" stroke="#666666" points="948.5,-150 819.5,-150 819.5,-131 948.5,-131 948.5,-150"/>
<text text-anchor="middle" x="884" y="-138" font-family="Helvetica,sans-Serif" font-size="10.00">CardInfo::getProperties</text>
</a>
</g>
</g>
<!-- Node21&#45;&gt;Node30 -->
<g id="edge37_Node000021_Node000030" class="edge">
<title>Node21&#45;&gt;Node30</title>
<g id="a_edge37_Node000021_Node000030"><a xlink:title=" ">
<path fill="none" stroke="#63b8ff" d="M702.33,-216.92C723.67,-202.53 766.31,-175.36 806,-159.5 813.73,-156.41 822.1,-153.72 830.38,-151.42"/>
<polygon fill="#63b8ff" stroke="#63b8ff" points="835.52,-150.03 831.28,-153.5 833.11,-150.68 830.69,-151.33 830.69,-151.33 830.69,-151.33 833.11,-150.68 830.11,-149.16 835.52,-150.03 835.52,-150.03"/>
</a>
</g>
</g>
<!-- Node31 -->
<g id="Node000031" class="node">
<title>Node31</title>
<g id="a_Node000031"><a xlink:href="../../d1/df7/deck__list__model_8cpp.html#a9685c8768bf12813d7cc74f0b524186d" target="_top" xlink:title=" ">
<polygon fill="white" stroke="#666666" points="949.5,-113 818.5,-113 818.5,-94 949.5,-94 949.5,-113"/>
<text text-anchor="middle" x="884" y="-101" font-family="Helvetica,sans-Serif" font-size="10.00">maxAllowedForLegality</text>
</a>
</g>
</g>
<!-- Node21&#45;&gt;Node31 -->
<g id="edge39_Node000021_Node000031" class="edge">
<title>Node21&#45;&gt;Node31</title>
<g id="a_edge39_Node000021_Node000031"><a xlink:title=" ">
<path fill="none" stroke="#63b8ff" d="M696.51,-216.76C714.07,-196.07 758.24,-147.56 806,-122.5 811.83,-119.44 818.17,-116.86 824.62,-114.69"/>
<polygon fill="#63b8ff" stroke="#63b8ff" points="829.57,-113.11 825.49,-116.77 827.19,-113.87 824.81,-114.63 824.81,-114.63 824.81,-114.63 827.19,-113.87 824.12,-112.49 829.57,-113.11 829.57,-113.11"/>
</a>
</g>
</g>
<!-- Node23 -->
<g id="Node000023" class="node">
<title>Node23</title>
<g id="a_Node000023"><a xlink:href="../../d9/d01/format__legality__rules_8cpp.html#a0482d7e922d5cca6d28fb6e26d35b783" target="_top" xlink:title=" ">
<polygon fill="white" stroke="#666666" points="1132,-274 998,-274 998,-255 1132,-255 1132,-274"/>
<text text-anchor="middle" x="1065" y="-262" font-family="Helvetica,sans-Serif" font-size="10.00">exceptionAppliesToCard</text>
</a>
</g>
</g>
<!-- Node22&#45;&gt;Node23 -->
<g id="edge30_Node000022_Node000023" class="edge">
<title>Node22&#45;&gt;Node23</title>
<g id="a_edge30_Node000022_Node000023"><a xlink:title=" ">
<path fill="none" stroke="#63b8ff" d="M945.6,-264.5C960.73,-264.5 977.09,-264.5 992.68,-264.5"/>
<polygon fill="#63b8ff" stroke="#63b8ff" points="997.93,-264.5 992.94,-266.75 995.43,-264.5 992.93,-264.5 992.93,-264.5 992.93,-264.5 995.43,-264.5 992.93,-262.25 997.93,-264.5 997.93,-264.5"/>
</a>
</g>
</g>
<!-- Node24 -->
<g id="Node000024" class="node">
<title>Node24</title>
<g id="a_Node000024"><a xlink:href="../../d9/d01/format__legality__rules_8cpp.html#ac767ed411bf1754fd4afe663f10b797d" target="_top" xlink:title=" ">
<polygon fill="white" stroke="#666666" points="1311,-274 1186,-274 1186,-255 1311,-255 1311,-274"/>
<text text-anchor="middle" x="1248.5" y="-262" font-family="Helvetica,sans-Serif" font-size="10.00">cardMatchesCondition</text>
</a>
</g>
</g>
<!-- Node23&#45;&gt;Node24 -->
<g id="edge31_Node000023_Node000024" class="edge">
<title>Node23&#45;&gt;Node24</title>
<g id="a_edge31_Node000023_Node000024"><a xlink:title=" ">
<path fill="none" stroke="#63b8ff" d="M1132.04,-264.5C1147.79,-264.5 1164.62,-264.5 1180.42,-264.5"/>
<polygon fill="#63b8ff" stroke="#63b8ff" points="1185.74,-264.5 1180.74,-266.75 1183.24,-264.5 1180.74,-264.5 1180.74,-264.5 1180.74,-264.5 1183.24,-264.5 1180.74,-262.25 1185.74,-264.5 1185.74,-264.5"/>
</a>
</g>
</g>
<!-- Node25 -->
<g id="Node000025" class="node">
<title>Node25</title>
<g id="a_Node000025"><a xlink:href="../../dd/dd2/classCardInfo.html#afc4e1f841fe0d229f66ea9f1b4e0c69b" target="_top" xlink:title=" ">
<polygon fill="white" stroke="#666666" points="1481,-329 1372,-329 1372,-310 1481,-310 1481,-329"/>
<text text-anchor="middle" x="1426.5" y="-317" font-family="Helvetica,sans-Serif" font-size="10.00">CardInfo::getName</text>
</a>
</g>
</g>
<!-- Node24&#45;&gt;Node25 -->
<g id="edge32_Node000024_Node000025" class="edge">
<title>Node24&#45;&gt;Node25</title>
<g id="a_edge32_Node000024_Node000025"><a xlink:title=" ">
<path fill="none" stroke="#63b8ff" d="M1297.53,-274.1C1308.03,-276.72 1319,-279.86 1329,-283.5 1345.81,-289.62 1348.36,-294.92 1365,-301.5 1371.25,-303.97 1377.98,-306.29 1384.61,-308.39"/>
<polygon fill="#63b8ff" stroke="#63b8ff" points="1389.64,-309.96 1384.2,-310.62 1387.25,-309.21 1384.86,-308.47 1384.86,-308.47 1384.86,-308.47 1387.25,-309.21 1385.53,-306.32 1389.64,-309.96 1389.64,-309.96"/>
</a>
</g>
</g>
<!-- Node24&#45;&gt;Node26 -->
<g id="edge33_Node000024_Node000026" class="edge">
<title>Node24&#45;&gt;Node26</title>
<g id="a_edge33_Node000024_Node000026"><a xlink:title=" ">
<path fill="none" stroke="#63b8ff" d="M1282.5,-254.97C1296.84,-250.71 1313.81,-245.53 1329,-240.5 1345.15,-235.15 1348.88,-232.94 1365,-227.5 1372.86,-224.85 1381.34,-222.11 1389.38,-219.57"/>
<polygon fill="#63b8ff" stroke="#63b8ff" points="1394.33,-218.01 1390.23,-221.66 1391.94,-218.76 1389.56,-219.51 1389.56,-219.51 1389.56,-219.51 1391.94,-218.76 1388.88,-217.37 1394.33,-218.01 1394.33,-218.01"/>
</a>
</g>
</g>
<!-- Node27 -->
<g id="Node000027" class="node">
<title>Node27</title>
<g id="a_Node000027"><a xlink:href="../../dd/dd2/classCardInfo.html#acb86411c7501c7fa30a11e035e61b046" target="_top" xlink:title=" ">
<polygon fill="white" stroke="#666666" points="1476.5,-292 1376.5,-292 1376.5,-273 1476.5,-273 1476.5,-292"/>
<text text-anchor="middle" x="1426.5" y="-280" font-family="Helvetica,sans-Serif" font-size="10.00">CardInfo::getText</text>
</a>
</g>
</g>
<!-- Node24&#45;&gt;Node27 -->
<g id="edge34_Node000024_Node000027" class="edge">
<title>Node24&#45;&gt;Node27</title>
<g id="a_edge34_Node000024_Node000027"><a xlink:title=" ">
<path fill="none" stroke="#63b8ff" d="M1311.06,-270.8C1330.63,-272.8 1352.12,-275 1371.15,-276.94"/>
<polygon fill="#63b8ff" stroke="#63b8ff" points="1376.44,-277.48 1371.24,-279.21 1373.96,-277.23 1371.47,-276.97 1371.47,-276.97 1371.47,-276.97 1373.96,-277.23 1371.7,-274.74 1376.44,-277.48 1376.44,-277.48"/>
</a>
</g>
</g>
<!-- Node28 -->
<g id="Node000028" class="node">
<title>Node28</title>
<g id="a_Node000028"><a xlink:href="../../de/d2f/format__legality__rules_8h.html#a2c1a3effdba41906f218a7531763f48f" target="_top" xlink:title=" ">
<polygon fill="white" stroke="#666666" points="1488,-255 1365,-255 1365,-236 1488,-236 1488,-255"/>
<text text-anchor="middle" x="1426.5" y="-243" font-family="Helvetica,sans-Serif" font-size="10.00">matchTypeFromString</text>
</a>
</g>
</g>
<!-- Node24&#45;&gt;Node28 -->
<g id="edge35_Node000024_Node000028" class="edge">
<title>Node24&#45;&gt;Node28</title>
<g id="a_edge35_Node000024_Node000028"><a xlink:title=" ">
<path fill="none" stroke="#63b8ff" d="M1311.06,-257.85C1326.73,-256.16 1343.64,-254.34 1359.52,-252.62"/>
<polygon fill="#63b8ff" stroke="#63b8ff" points="1364.87,-252.05 1360.14,-254.82 1362.38,-252.31 1359.9,-252.58 1359.9,-252.58 1359.9,-252.58 1362.38,-252.31 1359.66,-250.35 1364.87,-252.05 1364.87,-252.05"/>
</a>
</g>
</g>
<!-- Node32&#45;&gt;Node26 -->
<g id="edge42_Node000032_Node000026" class="edge">
<title>Node32&#45;&gt;Node26</title>
<g id="a_edge42_Node000032_Node000026"><a xlink:title=" ">
<path fill="none" stroke="#63b8ff" d="M1270.38,-137.11C1302.67,-151.97 1364.63,-180.48 1399.68,-196.62"/>
<polygon fill="#63b8ff" stroke="#63b8ff" points="1404.65,-198.9 1399.16,-198.86 1402.38,-197.86 1400.1,-196.81 1400.1,-196.81 1400.1,-196.81 1402.38,-197.86 1401.05,-194.77 1404.65,-198.9 1404.65,-198.9"/>
</a>
</g>
</g>
</g>
</svg>
