<?xml version="1.0" encoding="UTF-8" standalone="no"?>
<!DOCTYPE svg PUBLIC "-//W3C//DTD SVG 1.1//EN"
 "http://www.w3.org/Graphics/SVG/1.1/DTD/svg11.dtd">
<!-- Generated by graphviz version 2.43.0 (0)
 -->
<!-- Title: DeckListModel::getGroupCriteriaForCard Pages: 1 -->
<!--zoomable 210 -->

<svg id="main" version="1.1" xmlns="http://www.w3.org/2000/svg" xmlns:xlink="http://www.w3.org/1999/xlink" xml:space="preserve" onload="init(evt)">

<style type="text/css"><![CDATA[
.node, .edge {opacity: 0.7;}
.node.selected, .edge.selected {opacity: 1;}
.edge:hover path { stroke: red; }
.edge:hover polygon { stroke: red; fill: red; }
]]></style>

<defs>
  <circle id="rim" cx="0" cy="0" r="7"/>
  <circle id="rim2" cx="0" cy="0" r="3.5"/>
  <g id="zoomPlus">
    <use xlink:href="#rim" fill="#404040"><set attributeName="fill" to="#808080" begin="zoomplus.mouseover" end="zoomplus.mouseout"/></use>
    <path d="M-4,0h8M0,-4v8" fill="none" stroke="white" stroke-width="1.5" pointer-events="none"/>
  </g>
  <g id="zoomMin">
    <use xlink:href="#rim" fill="#404040"><set attributeName="fill" to="#808080" begin="zoomminus.mouseover" end="zoomminus.mouseout"/></use>
    <path d="M-4,0h8" fill="none" stroke="white" stroke-width="1.5" pointer-events="none"/>
  </g>
  <g id="arrowUp" transform="translate(30 24)">
    <use xlink:href="#rim"/>
    <path pointer-events="none" fill="none" stroke="white" stroke-width="1.5" d="M0,-3.0v7 M-2.5,-0.5L0,-3.0L2.5,-0.5"/>
  </g>
  <g id="arrowRight" transform="rotate(90) translate(36 -43)">
    <use xlink:href="#rim"/>
    <path pointer-events="none" fill="none" stroke="white" stroke-width="1.5" d="M0,-3.0v7 M-2.5,-0.5L0,-3.0L2.5,-0.5"/>
  </g>
  <g id="arrowDown" transform="rotate(180) translate(-30 -48)">
    <use xlink:href="#rim"/>
    <path pointer-events="none" fill="none" stroke="white" stroke-width="1.5" d="M0,-3.0v7 M-2.5,-0.5L0,-3.0L2.5,-0.5"/>
  </g>
  <g id="arrowLeft" transform="rotate(270) translate(-36 17)">
    <use xlink:href="#rim"/>
    <path pointer-events="none" fill="none" stroke="white" stroke-width="1.5" d="M0,-3.0v7 M-2.5,-0.5L0,-3.0L2.5,-0.5"/>
  </g>
  <g id="resetDef">
    <use xlink:href="#rim2" fill="#404040"><set attributeName="fill" to="#808080" begin="reset.mouseover" end="reset.mouseout"/></use>
  </g>
</defs>
<script type="application/ecmascript">
var viewWidth = 784;
var viewHeight = 210;
var sectionId = 'dynsection-28';
</script>
<script type="application/ecmascript" xlink:href="../../svg.min.js"/>
<svg id="graph" class="graph">
<g id="viewport">
<title>DeckListModel::getGroupCriteriaForCard</title>
<!-- Node1 -->
<g id="Node000001" class="node">
<title>Node1</title>
<g id="a_Node000001"><a xlink:title="Returns the value of the grouping category for a card based on the current criteria.">
<polygon fill="#999999" stroke="#666666" points="776,-158.5 600,-158.5 600,-128.5 776,-128.5 776,-158.5"/>
<text text-anchor="start" x="608" y="-146.5" font-family="Helvetica,sans-Serif" font-size="10.00">DeckListModel::getGroupCriteria</text>
<text text-anchor="middle" x="688" y="-135.5" font-family="Helvetica,sans-Serif" font-size="10.00">ForCard</text>
</a>
</g>
</g>
<!-- Node2 -->
<g id="Node000002" class="node">
<title>Node2</title>
<g id="a_Node000002"><a xlink:href="../../d9/de1/classDeckListModel.html#ac31406c75864382e2499851f3c84460e" target="_top" xlink:title="Adds an ExactCard to the specified zone.">
<polygon fill="white" stroke="#666666" points="551,-193 416,-193 416,-174 551,-174 551,-193"/>
<text text-anchor="middle" x="483.5" y="-181" font-family="Helvetica,sans-Serif" font-size="10.00">DeckListModel::addCard</text>
</a>
</g>
</g>
<!-- Node1&#45;&gt;Node2 -->
<g id="edge1_Node000001_Node000002" class="edge">
<title>Node1&#45;&gt;Node2</title>
<g id="a_edge1_Node000001_Node000002"><a xlink:title=" ">
<path fill="none" stroke="#63b8ff" d="M606.07,-159.49C581.19,-164.4 554.61,-169.65 532.67,-173.99"/>
<polygon fill="#63b8ff" stroke="#63b8ff" points="611.02,-158.51 606.55,-161.68 608.57,-158.99 606.12,-159.48 606.12,-159.48 606.12,-159.48 608.57,-158.99 605.68,-157.27 611.02,-158.51 611.02,-158.51"/>
</a>
</g>
</g>
<!-- Node4 -->
<g id="Node000004" class="node">
<title>Node4</title>
<g id="a_Node000004"><a xlink:href="../../d9/de1/classDeckListModel.html#acae2553ca72ba83683de08e15567f7f2" target="_top" xlink:title=" ">
<polygon fill="white" stroke="#666666" points="564,-153 403,-153 403,-134 564,-134 564,-153"/>
<text text-anchor="middle" x="483.5" y="-141" font-family="Helvetica,sans-Serif" font-size="10.00">DeckListModel::findCardNode</text>
</a>
</g>
</g>
<!-- Node1&#45;&gt;Node4 -->
<g id="edge3_Node000001_Node000004" class="edge">
<title>Node1&#45;&gt;Node4</title>
<g id="a_edge3_Node000001_Node000004"><a xlink:title=" ">
<path fill="none" stroke="#63b8ff" d="M594.91,-143.5C584.63,-143.5 574.23,-143.5 564.12,-143.5"/>
<polygon fill="#63b8ff" stroke="#63b8ff" points="599.95,-143.5 594.95,-145.75 597.45,-143.5 594.95,-143.5 594.95,-143.5 594.95,-143.5 597.45,-143.5 594.95,-141.25 599.95,-143.5 599.95,-143.5"/>
</a>
</g>
</g>
<!-- Node7 -->
<g id="Node000007" class="node">
<title>Node7</title>
<g id="a_Node000007"><a xlink:href="../../d9/de1/classDeckListModel.html#a0f1a16328bef79628489b3384cf9377b" target="_top" xlink:title="Rebuilds the model tree from the underlying DeckLoader.">
<polygon fill="white" stroke="#666666" points="558,-86 409,-86 409,-67 558,-67 558,-86"/>
<text text-anchor="middle" x="483.5" y="-74" font-family="Helvetica,sans-Serif" font-size="10.00">DeckListModel::rebuildTree</text>
</a>
</g>
</g>
<!-- Node1&#45;&gt;Node7 -->
<g id="edge6_Node000001_Node000007" class="edge">
<title>Node1&#45;&gt;Node7</title>
<g id="a_edge6_Node000001_Node000007"><a xlink:title=" ">
<path fill="none" stroke="#63b8ff" d="M636.4,-126.76C597.52,-113.89 545.21,-96.59 513.23,-86.01"/>
<polygon fill="#63b8ff" stroke="#63b8ff" points="641.56,-128.46 636.1,-129.03 639.18,-127.68 636.81,-126.89 636.81,-126.89 636.81,-126.89 639.18,-127.68 637.51,-124.76 641.56,-128.46 641.56,-128.46"/>
</a>
</g>
</g>
<!-- Node3 -->
<g id="Node000003" class="node">
<title>Node3</title>
<g id="a_Node000003"><a xlink:href="../../d9/de1/classDeckListModel.html#a889fd2a14a47f7433a130ac36562cb17" target="_top" xlink:title="Adds a card using the preferred printing if available.">
<polygon fill="white" stroke="#666666" points="367,-201.5 209,-201.5 209,-171.5 367,-171.5 367,-201.5"/>
<text text-anchor="start" x="217" y="-189.5" font-family="Helvetica,sans-Serif" font-size="10.00">DeckListModel::addPreferred</text>
<text text-anchor="middle" x="288" y="-178.5" font-family="Helvetica,sans-Serif" font-size="10.00">PrintingCard</text>
</a>
</g>
</g>
<!-- Node2&#45;&gt;Node3 -->
<g id="edge2_Node000002_Node000003" class="edge">
<title>Node2&#45;&gt;Node3</title>
<g id="a_edge2_Node000002_Node000003"><a xlink:title=" ">
<path fill="none" stroke="#63b8ff" d="M410.7,-184.61C396.47,-184.83 381.47,-185.07 367.04,-185.29"/>
<polygon fill="#63b8ff" stroke="#63b8ff" points="415.91,-184.53 410.94,-186.86 413.41,-184.57 410.91,-184.61 410.91,-184.61 410.91,-184.61 413.41,-184.57 410.87,-182.36 415.91,-184.53 415.91,-184.53"/>
</a>
</g>
</g>
<!-- Node5 -->
<g id="Node000005" class="node">
<title>Node5</title>
<g id="a_Node000005"><a xlink:href="../../d9/de1/classDeckListModel.html#a1d400b8fce69e71fffa9a5e0ae5d3df3" target="_top" xlink:title="Finds a card by name, zone, and optional identifiers.">
<polygon fill="white" stroke="#666666" points="355.5,-153 220.5,-153 220.5,-134 355.5,-134 355.5,-153"/>
<text text-anchor="middle" x="288" y="-141" font-family="Helvetica,sans-Serif" font-size="10.00">DeckListModel::findCard</text>
</a>
</g>
</g>
<!-- Node4&#45;&gt;Node5 -->
<g id="edge4_Node000004_Node000005" class="edge">
<title>Node4&#45;&gt;Node5</title>
<g id="a_edge4_Node000004_Node000005"><a xlink:title=" ">
<path fill="none" stroke="#63b8ff" d="M397.77,-143.5C383.65,-143.5 369.18,-143.5 355.59,-143.5"/>
<polygon fill="#63b8ff" stroke="#63b8ff" points="402.96,-143.5 397.96,-145.75 400.46,-143.5 397.96,-143.5 397.96,-143.5 397.96,-143.5 400.46,-143.5 397.96,-141.25 402.96,-143.5 402.96,-143.5"/>
</a>
</g>
</g>
<!-- Node6 -->
<g id="Node000006" class="node">
<title>Node6</title>
<g id="a_Node000006"><a xlink:href="../../de/dfd/classPrintingSelectorCardSortingWidget.html#a8e67428e0ed93f0e3bec45527671803b" target="_top" xlink:title="Prepend card printings that are contained in the deck to the list of printings.">
<polygon fill="white" stroke="#666666" points="173,-158.5 0,-158.5 0,-128.5 173,-128.5 173,-158.5"/>
<text text-anchor="start" x="8" y="-146.5" font-family="Helvetica,sans-Serif" font-size="10.00">PrintingSelectorCardSorting</text>
<text text-anchor="middle" x="86.5" y="-135.5" font-family="Helvetica,sans-Serif" font-size="10.00">Widget::prependPrintingsInDeck</text>
</a>
</g>
</g>
<!-- Node5&#45;&gt;Node6 -->
<g id="edge5_Node000005_Node000006" class="edge">
<title>Node5&#45;&gt;Node6</title>
<g id="a_edge5_Node000005_Node000006"><a xlink:title=" ">
<path fill="none" stroke="#63b8ff" d="M214.95,-143.5C201.44,-143.5 187.18,-143.5 173.3,-143.5"/>
<polygon fill="#63b8ff" stroke="#63b8ff" points="220.29,-143.5 215.29,-145.75 217.79,-143.5 215.29,-143.5 215.29,-143.5 215.29,-143.5 217.79,-143.5 215.29,-141.25 220.29,-143.5 220.29,-143.5"/>
</a>
</g>
</g>
<!-- Node8 -->
<g id="Node000008" class="node">
<title>Node8</title>
<g id="a_Node000008"><a xlink:href="../../d9/de1/classDeckListModel.html#a8efbe7d7418bdca0c4c43dcefd4ddffc" target="_top" xlink:title="Sets the criteria used to group cards in the model.">
<polygon fill="white" stroke="#666666" points="358,-115.5 218,-115.5 218,-85.5 358,-85.5 358,-115.5"/>
<text text-anchor="start" x="226" y="-103.5" font-family="Helvetica,sans-Serif" font-size="10.00">DeckListModel::setActive</text>
<text text-anchor="middle" x="288" y="-92.5" font-family="Helvetica,sans-Serif" font-size="10.00">GroupCriteria</text>
</a>
</g>
</g>
<!-- Node7&#45;&gt;Node8 -->
<g id="edge7_Node000007_Node000008" class="edge">
<title>Node7&#45;&gt;Node8</title>
<g id="a_edge7_Node000007_Node000008"><a xlink:title=" ">
<path fill="none" stroke="#63b8ff" d="M403.69,-86.27C388.56,-88.15 372.83,-90.1 358.04,-91.94"/>
<polygon fill="#63b8ff" stroke="#63b8ff" points="408.79,-85.64 404.11,-88.49 406.31,-85.95 403.83,-86.26 403.83,-86.26 403.83,-86.26 406.31,-85.95 403.55,-84.02 408.79,-85.64 408.79,-85.64"/>
</a>
</g>
</g>
<!-- Node9 -->
<g id="Node000009" class="node">
<title>Node9</title>
<g id="a_Node000009"><a xlink:href="../../d9/df7/classDeckEditorDeckDockWidget.html#a2cceccf12d10aba7a3de6bb25beb594b" target="_top" xlink:title=" ">
<polygon fill="white" stroke="#666666" points="365,-67.5 211,-67.5 211,-37.5 365,-37.5 365,-67.5"/>
<text text-anchor="start" x="219" y="-55.5" font-family="Helvetica,sans-Serif" font-size="10.00">DeckEditorDeckDockWidget</text>
<text text-anchor="middle" x="288" y="-44.5" font-family="Helvetica,sans-Serif" font-size="10.00">::setDeck</text>
</a>
</g>
</g>
<!-- Node7&#45;&gt;Node9 -->
<g id="edge8_Node000007_Node000009" class="edge">
<title>Node7&#45;&gt;Node9</title>
<g id="a_edge8_Node000007_Node000009"><a xlink:title=" ">
<path fill="none" stroke="#63b8ff" d="M403.74,-66.73C390.97,-65.15 377.77,-63.51 365.07,-61.94"/>
<polygon fill="#63b8ff" stroke="#63b8ff" points="408.79,-67.36 403.55,-68.98 406.31,-67.05 403.83,-66.74 403.83,-66.74 403.83,-66.74 406.31,-67.05 404.11,-64.51 408.79,-67.36 408.79,-67.36"/>
</a>
</g>
</g>
<!-- Node10 -->
<g id="Node000010" class="node">
<title>Node10</title>
<g id="a_Node000010"><a xlink:href="../../d9/de1/classDeckListModel.html#a889eec45c358f6de21561faa009eb090" target="_top" xlink:title=" ">
<polygon fill="white" stroke="#666666" points="364,-19 212,-19 212,0 364,0 364,-19"/>
<text text-anchor="middle" x="288" y="-7" font-family="Helvetica,sans-Serif" font-size="10.00">DeckListModel::setDeckList</text>
</a>
</g>
</g>
<!-- Node7&#45;&gt;Node10 -->
<g id="edge9_Node000007_Node000010" class="edge">
<title>Node7&#45;&gt;Node10</title>
<g id="a_edge9_Node000007_Node000010"><a xlink:title=" ">
<path fill="none" stroke="#63b8ff" d="M457.26,-64.68C434.14,-54.17 398.79,-38.91 367,-28.5 356.27,-24.99 344.52,-21.8 333.47,-19.07"/>
<polygon fill="#63b8ff" stroke="#63b8ff" points="462,-66.84 456.52,-66.81 459.73,-65.8 457.45,-64.76 457.45,-64.76 457.45,-64.76 459.73,-65.8 458.39,-62.72 462,-66.84 462,-66.84"/>
</a>
</g>
</g>
<!-- Node11 -->
<g id="Node000011" class="node">
<title>Node11</title>
<g id="a_Node000011"><a xlink:href="../../d9/de1/classDeckListModel.html#a1ecfd117038f01fce09c99796ccf67ea" target="_top" xlink:title="Removes all cards and resets the model.">
<polygon fill="white" stroke="#666666" points="155.5,-19 17.5,-19 17.5,0 155.5,0 155.5,-19"/>
<text text-anchor="middle" x="86.5" y="-7" font-family="Helvetica,sans-Serif" font-size="10.00">DeckListModel::cleanList</text>
</a>
</g>
</g>
<!-- Node10&#45;&gt;Node11 -->
<g id="edge10_Node000010_Node000011" class="edge">
<title>Node10&#45;&gt;Node11</title>
<g id="a_edge10_Node000010_Node000011"><a xlink:title=" ">
<path fill="none" stroke="#63b8ff" d="M206.64,-9.5C189.75,-9.5 172.08,-9.5 155.68,-9.5"/>
<polygon fill="#63b8ff" stroke="#63b8ff" points="211.86,-9.5 206.86,-11.75 209.36,-9.5 206.86,-9.5 206.86,-9.5 206.86,-9.5 209.36,-9.5 206.86,-7.25 211.86,-9.5 211.86,-9.5"/>
</a>
</g>
</g>
</g>
</svg>

<g id="navigator" transform="translate(0 0)" fill="#404254">
  <rect fill="#f2f5e9" fill-opacity="0.5" stroke="#606060" stroke-width=".5" x="0" y="0" width="60" height="60"/>
  <use id="zoomplus" xlink:href="#zoomPlus" x="17" y="9" onmousedown="handleZoom(evt,'in')"/>
  <use id="zoomminus" xlink:href="#zoomMin" x="42" y="9" onmousedown="handleZoom(evt,'out')"/>
  <use id="reset" xlink:href="#resetDef" x="30" y="36" onmousedown="handleReset()"/>
   <use id="arrowup" xlink:href="#arrowUp" x="0" y="0" onmousedown="handlePan(0,-1)"/>
  <use id="arrowright" xlink:href="#arrowRight" x="0" y="0" onmousedown="handlePan(1,0)"/>
  <use id="arrowdown" xlink:href="#arrowDown" x="0" y="0" onmousedown="handlePan(0,1)"/>
  <use id="arrowleft" xlink:href="#arrowLeft" x="0" y="0" onmousedown="handlePan(-1,0)"/>
</g>
<svg viewBox="0 0 15 15" width="100%" height="30px" preserveAspectRatio="xMaxYMin meet">
 <g id="arrow_out" transform="scale(0.3 0.3)">
  <a xlink:href="classDeckListModel_a988e1ea8c2f4f64d070ccb45afeee140_icgraph_org.svg" target="_base">
   <rect id="button" ry="5" rx="5" y="6" x="6" height="38" width="38"
        fill="#f2f5e9" fill-opacity="0.5" stroke="#606060" stroke-width="1.0"/>
   <path id="arrow"
     d="M 11.500037,31.436501 C 11.940474,20.09759 22.043105,11.32322 32.158766,21.979434 L 37.068811,17.246167 C 37.068811,17.246167 37.088388,32 37.088388,32 L 22.160133,31.978069 C 22.160133,31.978069 26.997745,27.140456 26.997745,27.140456 C 18.528582,18.264221 13.291696,25.230495 11.500037,31.436501 z"
     style="fill:#404040;"/>
  </a>
 </g>
</svg>

<style type='text/css'>
<![CDATA[
[data-mouse-over-selected='false'] { opacity: 0.7; }
[data-mouse-over-selected='true']  { opacity: 1.0; }
]]>
</style>
<script type="application/ecmascript"><![CDATA[
document.addEventListener('DOMContentLoaded', (event) => {
  highlightEdges();
  highlightAdjacentNodes();
});
]]></script>
</svg>
