<?xml version="1.0" encoding="UTF-8" standalone="no"?>
<!DOCTYPE svg PUBLIC "-//W3C//DTD SVG 1.1//EN"
 "http://www.w3.org/Graphics/SVG/1.1/DTD/svg11.dtd">
<!-- Generated by graphviz version 2.43.0 (0)
 -->
<!-- Title: DeckListModel::addPreferredPrintingCard Pages: 1 -->
<svg width="479pt" height="38pt"
 viewBox="0.00 0.00 479.00 38.00" xmlns="http://www.w3.org/2000/svg" xmlns:xlink="http://www.w3.org/1999/xlink">
<g id="graph0" class="graph" transform="scale(1 1) rotate(0) translate(4 34)">
<title>DeckListModel::addPreferredPrintingCard</title>
<!-- Node1 -->
<g id="Node000001" class="node">
<title>Node1</title>
<g id="a_Node000001"><a xlink:title="Adds a card using the preferred printing if available.">
<polygon fill="#999999" stroke="#666666" points="471,-30 313,-30 313,0 471,0 471,-30"/>
<text text-anchor="start" x="321" y="-18" font-family="Helvetica,sans-Serif" font-size="10.00">DeckListModel::addPreferred</text>
<text text-anchor="middle" x="392" y="-7" font-family="Helvetica,sans-Serif" font-size="10.00">PrintingCard</text>
</a>
</g>
</g>
<!-- Node2 -->
<g id="Node000002" class="node">
<title>Node2</title>
<g id="a_Node000002"><a xlink:href="../../df/d8c/deck__state__manager_8cpp.html#aa3e1ffa21bd288dfdab1d668da0eee3d" target="_top" xlink:title=" ">
<polygon fill="white" stroke="#666666" points="277,-24.5 200,-24.5 200,-5.5 277,-5.5 277,-24.5"/>
<text text-anchor="middle" x="238.5" y="-12.5" font-family="Helvetica,sans-Serif" font-size="10.00">doSwapCard</text>
</a>
</g>
</g>
<!-- Node1&#45;&gt;Node2 -->
<g id="edge1_Node000001_Node000002" class="edge">
<title>Node1&#45;&gt;Node2</title>
<g id="a_edge1_Node000001_Node000002"><a xlink:title=" ">
<path fill="none" stroke="#63b8ff" d="M307.42,-15C296.91,-15 286.61,-15 277.34,-15"/>
<polygon fill="#63b8ff" stroke="#63b8ff" points="312.59,-15 307.59,-17.25 310.09,-15 307.59,-15 307.59,-15 307.59,-15 310.09,-15 307.59,-12.75 312.59,-15 312.59,-15"/>
</a>
</g>
</g>
<!-- Node3 -->
<g id="Node000003" class="node">
<title>Node3</title>
<g id="a_Node000003"><a xlink:href="../../dd/dab/classDeckStateManager.html#aac8bb40a3b2705db7a04cf880972e63f" target="_top" xlink:title="Swaps one copy of the card at the given index between the maindeck and sideboard. No&#45;ops if index is ...">
<polygon fill="white" stroke="#666666" points="164,-30 0,-30 0,0 164,0 164,-30"/>
<text text-anchor="start" x="8" y="-18" font-family="Helvetica,sans-Serif" font-size="10.00">DeckStateManager::swapCard</text>
<text text-anchor="middle" x="82" y="-7" font-family="Helvetica,sans-Serif" font-size="10.00">AtIndex</text>
</a>
</g>
</g>
<!-- Node2&#45;&gt;Node3 -->
<g id="edge2_Node000002_Node000003" class="edge">
<title>Node2&#45;&gt;Node3</title>
<g id="a_edge2_Node000002_Node000003"><a xlink:title=" ">
<path fill="none" stroke="#63b8ff" d="M194.5,-15C184.95,-15 174.53,-15 164.01,-15"/>
<polygon fill="#63b8ff" stroke="#63b8ff" points="199.71,-15 194.71,-17.25 197.21,-15 194.71,-15 194.71,-15 194.71,-15 197.21,-15 194.71,-12.75 199.71,-15 199.71,-15"/>
</a>
</g>
</g>
</g>
</svg>
