<?xml version="1.0" encoding="UTF-8" standalone="no"?>
<!DOCTYPE svg PUBLIC "-//W3C//DTD SVG 1.1//EN"
 "http://www.w3.org/Graphics/SVG/1.1/DTD/svg11.dtd">
<!-- Generated by graphviz version 2.43.0 (0)
 -->
<!-- Title: PrintingInfo::getProperties Pages: 1 -->
<svg width="723pt" height="38pt"
 viewBox="0.00 0.00 723.00 38.00" xmlns="http://www.w3.org/2000/svg" xmlns:xlink="http://www.w3.org/1999/xlink">
<g id="graph0" class="graph" transform="scale(1 1) rotate(0) translate(4 34)">
<title>PrintingInfo::getProperties</title>
<!-- Node1 -->
<g id="Node000001" class="node">
<title>Node1</title>
<g id="a_Node000001"><a xlink:title="Returns the list of property names defined for this printing.">
<polygon fill="#999999" stroke="#666666" points="715,-24.5 571,-24.5 571,-5.5 715,-5.5 715,-24.5"/>
<text text-anchor="middle" x="643" y="-12.5" font-family="Helvetica,sans-Serif" font-size="10.00">PrintingInfo::getProperties</text>
</a>
</g>
</g>
<!-- Node2 -->
<g id="Node000002" class="node">
<title>Node2</title>
<g id="a_Node000002"><a xlink:href="../../db/d70/classOracleImporter.html#aaef7337419ed02a3e67244bb08837163" target="_top" xlink:title=" ">
<polygon fill="white" stroke="#666666" points="535,-30 379,-30 379,0 535,0 535,-30"/>
<text text-anchor="start" x="387" y="-18" font-family="Helvetica,sans-Serif" font-size="10.00">OracleImporter::importCards</text>
<text text-anchor="middle" x="457" y="-7" font-family="Helvetica,sans-Serif" font-size="10.00">FromSet</text>
</a>
</g>
</g>
<!-- Node1&#45;&gt;Node2 -->
<g id="edge1_Node000001_Node000002" class="edge">
<title>Node1&#45;&gt;Node2</title>
<g id="a_edge1_Node000001_Node000002"><a xlink:title=" ">
<path fill="none" stroke="#63b8ff" d="M565.61,-15C555.51,-15 545.16,-15 535.05,-15"/>
<polygon fill="#63b8ff" stroke="#63b8ff" points="570.86,-15 565.86,-17.25 568.36,-15 565.86,-15 565.86,-15 565.86,-15 568.36,-15 565.86,-12.75 570.86,-15 570.86,-15"/>
</a>
</g>
</g>
<!-- Node3 -->
<g id="Node000003" class="node">
<title>Node3</title>
<g id="a_Node000003"><a xlink:href="../../db/d70/classOracleImporter.html#a646b5f8925967d8649528bd1fe1962ce" target="_top" xlink:title=" ">
<polygon fill="white" stroke="#666666" points="343,-24.5 192,-24.5 192,-5.5 343,-5.5 343,-24.5"/>
<text text-anchor="middle" x="267.5" y="-12.5" font-family="Helvetica,sans-Serif" font-size="10.00">OracleImporter::startImport</text>
</a>
</g>
</g>
<!-- Node2&#45;&gt;Node3 -->
<g id="edge2_Node000002_Node000003" class="edge">
<title>Node2&#45;&gt;Node3</title>
<g id="a_edge2_Node000002_Node000003"><a xlink:title=" ">
<path fill="none" stroke="#63b8ff" d="M373.92,-15C363.69,-15 353.27,-15 343.16,-15"/>
<polygon fill="#63b8ff" stroke="#63b8ff" points="378.92,-15 373.92,-17.25 376.42,-15 373.92,-15 373.92,-15 373.92,-15 376.42,-15 373.92,-12.75 378.92,-15 378.92,-15"/>
</a>
</g>
</g>
<!-- Node4 -->
<g id="Node000004" class="node">
<title>Node4</title>
<g id="a_Node000004"><a xlink:href="../../d8/df0/classSaveSetsPage.html#abf9431cd242ae16431d85444d851da25" target="_top" xlink:title=" ">
<polygon fill="white" stroke="#666666" points="156,-24.5 0,-24.5 0,-5.5 156,-5.5 156,-24.5"/>
<text text-anchor="middle" x="78" y="-12.5" font-family="Helvetica,sans-Serif" font-size="10.00">SaveSetsPage::initializePage</text>
</a>
</g>
</g>
<!-- Node3&#45;&gt;Node4 -->
<g id="edge3_Node000003_Node000004" class="edge">
<title>Node3&#45;&gt;Node4</title>
<g id="a_edge3_Node000003_Node000004"><a xlink:title=" ">
<path fill="none" stroke="#63b8ff" d="M186.6,-15C176.51,-15 166.2,-15 156.15,-15"/>
<polygon fill="#63b8ff" stroke="#63b8ff" points="191.86,-15 186.86,-17.25 189.36,-15 186.86,-15 186.86,-15 186.86,-15 189.36,-15 186.86,-12.75 191.86,-15 191.86,-15"/>
</a>
</g>
</g>
</g>
</svg>
