<?xml version="1.0" encoding="UTF-8" standalone="no"?>
<!DOCTYPE svg PUBLIC "-//W3C//DTD SVG 1.1//EN"
 "http://www.w3.org/Graphics/SVG/1.1/DTD/svg11.dtd">
<!-- Generated by graphviz version 2.43.0 (0)
 -->
<!-- Title: common/server/server_protocolhandler.h Pages: 1 -->
<svg width="948pt" height="170pt"
 viewBox="0.00 0.00 947.50 170.00" xmlns="http://www.w3.org/2000/svg" xmlns:xlink="http://www.w3.org/1999/xlink">
<g id="graph0" class="graph" transform="scale(1 1) rotate(0) translate(4 166)">
<title>common/server/server_protocolhandler.h</title>
<!-- Node1 -->
<g id="Node000001" class="node">
<title>Node1</title>
<g id="a_Node000001"><a xlink:title=" ">
<polygon fill="#999999" stroke="#666666" points="639.5,-162 512.5,-162 512.5,-132 639.5,-132 639.5,-162"/>
<text text-anchor="start" x="520.5" y="-150" font-family="Helvetica,sans-Serif" font-size="10.00">common/server/server</text>
<text text-anchor="middle" x="576" y="-139" font-family="Helvetica,sans-Serif" font-size="10.00">_protocolhandler.h</text>
</a>
</g>
</g>
<!-- Node2 -->
<g id="Node000002" class="node">
<title>Node2</title>
<g id="a_Node000002"><a xlink:href="../../de/da1/local__server__interface_8h.html" target="_top" xlink:title="TODO: Document this.">
<polygon fill="white" stroke="#666666" points="342.5,-96 205.5,-96 205.5,-66 342.5,-66 342.5,-96"/>
<text text-anchor="start" x="213.5" y="-84" font-family="Helvetica,sans-Serif" font-size="10.00">cockatrice/src/server</text>
<text text-anchor="middle" x="274" y="-73" font-family="Helvetica,sans-Serif" font-size="10.00">/local_server_interface.h</text>
</a>
</g>
</g>
<!-- Node1&#45;&gt;Node2 -->
<g id="edge1_Node000001_Node000002" class="edge">
<title>Node1&#45;&gt;Node2</title>
<g id="a_edge1_Node000001_Node000002"><a xlink:title=" ">
<path fill="none" stroke="#63b8ff" d="M507.22,-131.43C457.14,-120.81 389.68,-106.52 340.2,-96.03"/>
<polygon fill="#63b8ff" stroke="#63b8ff" points="512.32,-132.51 506.96,-133.67 509.88,-131.99 507.43,-131.47 507.43,-131.47 507.43,-131.47 509.88,-131.99 507.9,-129.27 512.32,-132.51 512.32,-132.51"/>
</a>
</g>
</g>
<!-- Node7 -->
<g id="Node000007" class="node">
<title>Node7</title>
<g id="a_Node000007"><a xlink:href="../../d2/d84/server__game_8cpp.html" target="_top" xlink:title=" ">
<polygon fill="white" stroke="#666666" points="485,-96 361,-96 361,-66 485,-66 485,-96"/>
<text text-anchor="start" x="369" y="-84" font-family="Helvetica,sans-Serif" font-size="10.00">common/server/game</text>
<text text-anchor="middle" x="423" y="-73" font-family="Helvetica,sans-Serif" font-size="10.00">/server_game.cpp</text>
</a>
</g>
</g>
<!-- Node1&#45;&gt;Node7 -->
<g id="edge6_Node000001_Node000007" class="edge">
<title>Node1&#45;&gt;Node7</title>
<g id="a_edge6_Node000001_Node000007"><a xlink:title=" ">
<path fill="none" stroke="#63b8ff" d="M537.53,-129.91C512.58,-119.47 480.4,-106.01 456.5,-96.01"/>
<polygon fill="#63b8ff" stroke="#63b8ff" points="542.42,-131.95 536.94,-132.1 540.12,-130.99 537.81,-130.03 537.81,-130.03 537.81,-130.03 540.12,-130.99 538.68,-127.95 542.42,-131.95 542.42,-131.95"/>
</a>
</g>
</g>
<!-- Node8 -->
<g id="Node000008" class="node">
<title>Node8</title>
<g id="a_Node000008"><a xlink:href="../../df/dd7/server_8cpp.html" target="_top" xlink:title=" ">
<polygon fill="white" stroke="#666666" points="649,-90.5 503,-90.5 503,-71.5 649,-71.5 649,-90.5"/>
<text text-anchor="middle" x="576" y="-78.5" font-family="Helvetica,sans-Serif" font-size="10.00">common/server/server.cpp</text>
</a>
</g>
</g>
<!-- Node1&#45;&gt;Node8 -->
<g id="edge7_Node000001_Node000008" class="edge">
<title>Node1&#45;&gt;Node8</title>
<g id="a_edge7_Node000001_Node000008"><a xlink:title=" ">
<path fill="none" stroke="#63b8ff" d="M576,-126.56C576,-114.66 576,-100.02 576,-90.84"/>
<polygon fill="#63b8ff" stroke="#63b8ff" points="576,-131.8 573.75,-126.8 576,-129.3 576,-126.8 576,-126.8 576,-126.8 576,-129.3 578.25,-126.8 576,-131.8 576,-131.8"/>
</a>
</g>
</g>
<!-- Node9 -->
<g id="Node000009" class="node">
<title>Node9</title>
<g id="a_Node000009"><a xlink:href="../../d4/d38/server__protocolhandler_8cpp.html" target="_top" xlink:title=" ">
<polygon fill="white" stroke="#666666" points="794.5,-96 667.5,-96 667.5,-66 794.5,-66 794.5,-96"/>
<text text-anchor="start" x="675.5" y="-84" font-family="Helvetica,sans-Serif" font-size="10.00">common/server/server</text>
<text text-anchor="middle" x="731" y="-73" font-family="Helvetica,sans-Serif" font-size="10.00">_protocolhandler.cpp</text>
</a>
</g>
</g>
<!-- Node1&#45;&gt;Node9 -->
<g id="edge8_Node000001_Node000009" class="edge">
<title>Node1&#45;&gt;Node9</title>
<g id="a_edge8_Node000001_Node000009"><a xlink:title=" ">
<path fill="none" stroke="#63b8ff" d="M614.65,-130.04C639.97,-119.59 672.75,-106.05 697.06,-96.01"/>
<polygon fill="#63b8ff" stroke="#63b8ff" points="610.02,-131.95 613.78,-127.97 612.33,-131 614.64,-130.05 614.64,-130.05 614.64,-130.05 612.33,-131 615.5,-132.13 610.02,-131.95 610.02,-131.95"/>
</a>
</g>
</g>
<!-- Node10 -->
<g id="Node000010" class="node">
<title>Node10</title>
<g id="a_Node000010"><a xlink:href="../../dd/da2/server__room_8cpp.html" target="_top" xlink:title=" ">
<polygon fill="white" stroke="#666666" points="939.5,-96 812.5,-96 812.5,-66 939.5,-66 939.5,-96"/>
<text text-anchor="start" x="820.5" y="-84" font-family="Helvetica,sans-Serif" font-size="10.00">common/server/server</text>
<text text-anchor="middle" x="876" y="-73" font-family="Helvetica,sans-Serif" font-size="10.00">_room.cpp</text>
</a>
</g>
</g>
<!-- Node1&#45;&gt;Node10 -->
<g id="edge9_Node000001_Node000010" class="edge">
<title>Node1&#45;&gt;Node10</title>
<g id="a_edge9_Node000001_Node000010"><a xlink:title=" ">
<path fill="none" stroke="#63b8ff" d="M644.76,-131.33C695.23,-120.56 763.27,-106.05 812.47,-95.55"/>
<polygon fill="#63b8ff" stroke="#63b8ff" points="639.62,-132.43 644.04,-129.18 642.07,-131.91 644.51,-131.38 644.51,-131.38 644.51,-131.38 642.07,-131.91 644.98,-133.58 639.62,-132.43 639.62,-132.43"/>
</a>
</g>
</g>
<!-- Node3 -->
<g id="Node000003" class="node">
<title>Node3</title>
<g id="a_Node000003"><a xlink:href="../../d2/d4f/window__main_8cpp.html" target="_top" xlink:title=" ">
<polygon fill="white" stroke="#666666" points="130,-30 0,-30 0,0 130,0 130,-30"/>
<text text-anchor="start" x="8" y="-18" font-family="Helvetica,sans-Serif" font-size="10.00">cockatrice/src/interface</text>
<text text-anchor="middle" x="65" y="-7" font-family="Helvetica,sans-Serif" font-size="10.00">/window_main.cpp</text>
</a>
</g>
</g>
<!-- Node2&#45;&gt;Node3 -->
<g id="edge2_Node000002_Node000003" class="edge">
<title>Node2&#45;&gt;Node3</title>
<g id="a_edge2_Node000002_Node000003"><a xlink:title=" ">
<path fill="none" stroke="#63b8ff" d="M223.15,-64.43C188.84,-53.92 143.95,-40.18 110.76,-30.01"/>
<polygon fill="#63b8ff" stroke="#63b8ff" points="228.13,-65.95 222.69,-66.64 225.74,-65.22 223.35,-64.49 223.35,-64.49 223.35,-64.49 225.74,-65.22 224.01,-62.34 228.13,-65.95 228.13,-65.95"/>
</a>
</g>
</g>
<!-- Node4 -->
<g id="Node000004" class="node">
<title>Node4</title>
<g id="a_Node000004"><a xlink:href="../../d2/dcf/local__client_8cpp.html" target="_top" xlink:title=" ">
<polygon fill="white" stroke="#666666" points="265.5,-30 148.5,-30 148.5,0 265.5,0 265.5,-30"/>
<text text-anchor="start" x="156.5" y="-18" font-family="Helvetica,sans-Serif" font-size="10.00">cockatrice/src/server</text>
<text text-anchor="middle" x="207" y="-7" font-family="Helvetica,sans-Serif" font-size="10.00">/local_client.cpp</text>
</a>
</g>
</g>
<!-- Node2&#45;&gt;Node4 -->
<g id="edge3_Node000002_Node000004" class="edge">
<title>Node2&#45;&gt;Node4</title>
<g id="a_edge3_Node000002_Node000004"><a xlink:title=" ">
<path fill="none" stroke="#63b8ff" d="M255.35,-62.19C244.77,-52.08 231.71,-39.6 221.83,-30.16"/>
<polygon fill="#63b8ff" stroke="#63b8ff" points="259.13,-65.8 253.96,-63.97 257.32,-64.07 255.51,-62.34 255.51,-62.34 255.51,-62.34 257.32,-64.07 257.07,-60.72 259.13,-65.8 259.13,-65.8"/>
</a>
</g>
</g>
<!-- Node5 -->
<g id="Node000005" class="node">
<title>Node5</title>
<g id="a_Node000005"><a xlink:href="../../d5/dfa/local__server_8cpp.html" target="_top" xlink:title=" ">
<polygon fill="white" stroke="#666666" points="400.5,-30 283.5,-30 283.5,0 400.5,0 400.5,-30"/>
<text text-anchor="start" x="291.5" y="-18" font-family="Helvetica,sans-Serif" font-size="10.00">cockatrice/src/server</text>
<text text-anchor="middle" x="342" y="-7" font-family="Helvetica,sans-Serif" font-size="10.00">/local_server.cpp</text>
</a>
</g>
</g>
<!-- Node2&#45;&gt;Node5 -->
<g id="edge4_Node000002_Node000005" class="edge">
<title>Node2&#45;&gt;Node5</title>
<g id="a_edge4_Node000002_Node000005"><a xlink:title=" ">
<path fill="none" stroke="#63b8ff" d="M292.92,-62.19C303.67,-52.08 316.92,-39.6 326.95,-30.16"/>
<polygon fill="#63b8ff" stroke="#63b8ff" points="289.09,-65.8 291.19,-60.73 290.91,-64.08 292.73,-62.37 292.73,-62.37 292.73,-62.37 290.91,-64.08 294.27,-64.01 289.09,-65.8 289.09,-65.8"/>
</a>
</g>
</g>
<!-- Node6 -->
<g id="Node000006" class="node">
<title>Node6</title>
<g id="a_Node000006"><a xlink:href="../../dc/ddd/local__server__interface_8cpp.html" target="_top" xlink:title=" ">
<polygon fill="white" stroke="#666666" points="567,-30 419,-30 419,0 567,0 567,-30"/>
<text text-anchor="start" x="427" y="-18" font-family="Helvetica,sans-Serif" font-size="10.00">cockatrice/src/server</text>
<text text-anchor="middle" x="493" y="-7" font-family="Helvetica,sans-Serif" font-size="10.00">/local_server_interface.cpp</text>
</a>
</g>
</g>
<!-- Node2&#45;&gt;Node6 -->
<g id="edge5_Node000002_Node000006" class="edge">
<title>Node2&#45;&gt;Node6</title>
<g id="a_edge5_Node000002_Node000006"><a xlink:title=" ">
<path fill="none" stroke="#63b8ff" d="M327.28,-64.43C363.23,-53.92 410.28,-40.18 445.05,-30.01"/>
<polygon fill="#63b8ff" stroke="#63b8ff" points="322.06,-65.95 326.23,-62.39 324.46,-65.25 326.86,-64.55 326.86,-64.55 326.86,-64.55 324.46,-65.25 327.49,-66.71 322.06,-65.95 322.06,-65.95"/>
</a>
</g>
</g>
</g>
</svg>
