<?xml version="1.0" encoding="UTF-8" standalone="no"?>
<!DOCTYPE svg PUBLIC "-//W3C//DTD SVG 1.1//EN"
 "http://www.w3.org/Graphics/SVG/1.1/DTD/svg11.dtd">
<!-- Generated by graphviz version 2.43.0 (0)
 -->
<!-- Title: main Pages: 1 -->
<!--zoomable 439 -->

<svg id="main" version="1.1" xmlns="http://www.w3.org/2000/svg" xmlns:xlink="http://www.w3.org/1999/xlink" xml:space="preserve" onload="init(evt)">
<style type="text/css"><![CDATA[
.node, .edge {opacity: 0.7;}
.node.selected, .edge.selected {opacity: 1;}
.edge:hover path { stroke: red; }
.edge:hover polygon { stroke: red; fill: red; }
]]></style>

<defs>
  <circle id="rim" cx="0" cy="0" r="7"/>
  <circle id="rim2" cx="0" cy="0" r="3.5"/>
  <g id="zoomPlus">
    <use xlink:href="#rim" fill="#404040"><set attributeName="fill" to="#808080" begin="zoomplus.mouseover" end="zoomplus.mouseout"/></use>
    <path d="M-4,0h8M0,-4v8" fill="none" stroke="white" stroke-width="1.5" pointer-events="none"/>
  </g>
  <g id="zoomMin">
    <use xlink:href="#rim" fill="#404040"><set attributeName="fill" to="#808080" begin="zoomminus.mouseover" end="zoomminus.mouseout"/></use>
    <path d="M-4,0h8" fill="none" stroke="white" stroke-width="1.5" pointer-events="none"/>
  </g>
  <g id="arrowUp" transform="translate(30 24)">
    <use xlink:href="#rim"/>
    <path pointer-events="none" fill="none" stroke="white" stroke-width="1.5" d="M0,-3.0v7 M-2.5,-0.5L0,-3.0L2.5,-0.5"/>
  </g>
  <g id="arrowRight" transform="rotate(90) translate(36 -43)">
    <use xlink:href="#rim"/>
    <path pointer-events="none" fill="none" stroke="white" stroke-width="1.5" d="M0,-3.0v7 M-2.5,-0.5L0,-3.0L2.5,-0.5"/>
  </g>
  <g id="arrowDown" transform="rotate(180) translate(-30 -48)">
    <use xlink:href="#rim"/>
    <path pointer-events="none" fill="none" stroke="white" stroke-width="1.5" d="M0,-3.0v7 M-2.5,-0.5L0,-3.0L2.5,-0.5"/>
  </g>
  <g id="arrowLeft" transform="rotate(270) translate(-36 17)">
    <use xlink:href="#rim"/>
    <path pointer-events="none" fill="none" stroke="white" stroke-width="1.5" d="M0,-3.0v7 M-2.5,-0.5L0,-3.0L2.5,-0.5"/>
  </g>
  <g id="resetDef">
    <use xlink:href="#rim2" fill="#404040"><set attributeName="fill" to="#808080" begin="reset.mouseover" end="reset.mouseout"/></use>
  </g>
</defs>
<script type="application/ecmascript">
var viewWidth = 810;
var viewHeight = 439;
var sectionId = 'dynsection-6';
</script>
<script type="application/ecmascript" xlink:href="../../svg.min.js"/>
<svg id="graph" class="graph">
<g id="viewport">
<title>main</title>
<!-- Node1 -->
<g id="Node000001" class="node">
<title>Node1</title>
<g id="a_Node000001"><a xlink:title=" ">
<polygon fill="#999999" stroke="#666666" points="41,-211.5 0,-211.5 0,-192.5 41,-192.5 41,-211.5"/>
<text text-anchor="middle" x="20.5" y="-199.5" font-family="Helvetica,sans-Serif" font-size="10.00">main</text>
</a>
</g>
</g>
<!-- Node2 -->
<g id="Node000002" class="node">
<title>Node2</title>
<g id="a_Node000002"><a xlink:href="../../d6/d4f/classPingPixmapGenerator.html#a469b5468d9968eb00f1800ac2c15926f" target="_top" xlink:title=" ">
<polygon fill="white" stroke="#666666" points="214,-431 91,-431 91,-401 214,-401 214,-431"/>
<text text-anchor="start" x="99" y="-419" font-family="Helvetica,sans-Serif" font-size="10.00">PingPixmapGenerator</text>
<text text-anchor="middle" x="152.5" y="-408" font-family="Helvetica,sans-Serif" font-size="10.00">::clear</text>
</a>
</g>
</g>
<!-- Node1&#45;&gt;Node2 -->
<g id="edge1_Node000001_Node000002" class="edge">
<title>Node1&#45;&gt;Node2</title>
<g id="a_edge1_Node000001_Node000002"><a xlink:title=" ">
<path fill="none" stroke="#63b8ff" d="M21.35,-211.84C21.43,-242.84 25.96,-339.54 77,-392 79.74,-394.81 82.8,-397.3 86.09,-399.49"/>
<polygon fill="#63b8ff" stroke="#63b8ff" points="90.7,-402.3 85.26,-401.62 88.57,-401 86.43,-399.7 86.43,-399.7 86.43,-399.7 88.57,-401 87.61,-397.78 90.7,-402.3 90.7,-402.3"/>
</a>
</g>
</g>
<!-- Node3 -->
<g id="Node000003" class="node">
<title>Node3</title>
<g id="a_Node000003"><a xlink:href="../../db/d2a/classCountryPixmapGenerator.html#a8dafd420e3d8cd705554c900ed4703d8" target="_top" xlink:title=" ">
<polygon fill="white" stroke="#666666" points="222.5,-383 82.5,-383 82.5,-353 222.5,-353 222.5,-383"/>
<text text-anchor="start" x="90.5" y="-371" font-family="Helvetica,sans-Serif" font-size="10.00">CountryPixmapGenerator</text>
<text text-anchor="middle" x="152.5" y="-360" font-family="Helvetica,sans-Serif" font-size="10.00">::clear</text>
</a>
</g>
</g>
<!-- Node1&#45;&gt;Node3 -->
<g id="edge2_Node000001_Node000003" class="edge">
<title>Node1&#45;&gt;Node3</title>
<g id="a_edge2_Node000001_Node000003"><a xlink:title=" ">
<path fill="none" stroke="#63b8ff" d="M22.48,-211.86C25.55,-237.46 37.29,-306.64 77,-344 79.4,-346.26 82.02,-348.31 84.79,-350.16"/>
<polygon fill="#63b8ff" stroke="#63b8ff" points="89.26,-352.92 83.82,-352.21 87.13,-351.61 85,-350.3 85,-350.3 85,-350.3 87.13,-351.61 86.19,-348.38 89.26,-352.92 89.26,-352.92"/>
</a>
</g>
</g>
<!-- Node4 -->
<g id="Node000004" class="node">
<title>Node4</title>
<g id="a_Node000004"><a xlink:href="../../d8/df9/classUserLevelPixmapGenerator.html#a99eb054cb549e4c6c875814c50893257" target="_top" xlink:title=" ">
<polygon fill="white" stroke="#666666" points="228,-335 77,-335 77,-305 228,-305 228,-335"/>
<text text-anchor="start" x="85" y="-323" font-family="Helvetica,sans-Serif" font-size="10.00">UserLevelPixmapGenerator</text>
<text text-anchor="middle" x="152.5" y="-312" font-family="Helvetica,sans-Serif" font-size="10.00">::clear</text>
</a>
</g>
</g>
<!-- Node1&#45;&gt;Node4 -->
<g id="edge3_Node000001_Node000004" class="edge">
<title>Node1&#45;&gt;Node4</title>
<g id="a_edge3_Node000001_Node000004"><a xlink:title=" ">
<path fill="none" stroke="#63b8ff" d="M25.13,-211.72C32.32,-229.78 50.08,-268.69 77,-291 82.47,-295.53 88.73,-299.41 95.25,-302.72"/>
<polygon fill="#63b8ff" stroke="#63b8ff" points="99.79,-304.92 94.31,-304.77 97.54,-303.83 95.29,-302.74 95.29,-302.74 95.29,-302.74 97.54,-303.83 96.27,-300.72 99.79,-304.92 99.79,-304.92"/>
</a>
</g>
</g>
<!-- Node5 -->
<g id="Node000005" class="node">
<title>Node5</title>
<g id="a_Node000005"><a xlink:href="../../df/d0a/main_8cpp.html#a94ffb586e59189ba9091bffd15afa800" target="_top" xlink:title=" ">
<polygon fill="white" stroke="#666666" points="203,-248.5 102,-248.5 102,-229.5 203,-229.5 203,-248.5"/>
<text text-anchor="middle" x="152.5" y="-236.5" font-family="Helvetica,sans-Serif" font-size="10.00">CockatriceLogger</text>
</a>
</g>
</g>
<!-- Node1&#45;&gt;Node5 -->
<g id="edge4_Node000001_Node000005" class="edge">
<title>Node1&#45;&gt;Node5</title>
<g id="a_edge4_Node000001_Node000005"><a xlink:title=" ">
<path fill="none" stroke="#63b8ff" d="M41.14,-209.22C51.69,-212.97 64.97,-217.5 77,-221 85.73,-223.54 95.11,-226.01 104.17,-228.26"/>
<polygon fill="#63b8ff" stroke="#63b8ff" points="109.16,-229.49 103.77,-230.48 106.73,-228.89 104.31,-228.3 104.31,-228.3 104.31,-228.3 106.73,-228.89 104.84,-226.11 109.16,-229.49 109.16,-229.49"/>
</a>
</g>
</g>
<!-- Node6 -->
<g id="Node000006" class="node">
<title>Node6</title>
<g id="a_Node000006"><a xlink:href="../../db/d67/classLogger.html#a56defd0fd628ce6263d25d02296e48ce" target="_top" xlink:title=" ">
<polygon fill="white" stroke="#666666" points="396,-285.5 283,-285.5 283,-266.5 396,-266.5 396,-285.5"/>
<text text-anchor="middle" x="339.5" y="-273.5" font-family="Helvetica,sans-Serif" font-size="10.00">Logger::getInstance</text>
</a>
</g>
</g>
<!-- Node1&#45;&gt;Node6 -->
<g id="edge8_Node000001_Node000006" class="edge">
<title>Node1&#45;&gt;Node6</title>
<g id="a_edge8_Node000001_Node000006"><a xlink:title=" ">
<path fill="none" stroke="#63b8ff" d="M27.65,-211.6C36.67,-224.75 54.85,-247.86 77,-258 140.83,-287.22 222.7,-287.76 277.68,-283.57"/>
<polygon fill="#63b8ff" stroke="#63b8ff" points="282.92,-283.16 278.11,-285.8 280.42,-283.36 277.93,-283.55 277.93,-283.55 277.93,-283.55 280.42,-283.36 277.75,-281.31 282.92,-283.16 282.92,-283.16"/>
</a>
</g>
</g>
<!-- Node8 -->
<g id="Node000008" class="node">
<title>Node8</title>
<g id="a_Node000008"><a xlink:href="../../df/d0a/main_8cpp.html#ac17970b6e74cf0873edb278df612c2b9" target="_top" xlink:title=" ">
<polygon fill="white" stroke="#666666" points="202,-211.5 103,-211.5 103,-192.5 202,-192.5 202,-211.5"/>
<text text-anchor="middle" x="152.5" y="-199.5" font-family="Helvetica,sans-Serif" font-size="10.00">generateClientID</text>
</a>
</g>
</g>
<!-- Node1&#45;&gt;Node8 -->
<g id="edge7_Node000001_Node000008" class="edge">
<title>Node1&#45;&gt;Node8</title>
<g id="a_edge7_Node000001_Node000008"><a xlink:title=" ">
<path fill="none" stroke="#63b8ff" d="M41.24,-202C56.3,-202 77.8,-202 97.82,-202"/>
<polygon fill="#63b8ff" stroke="#63b8ff" points="102.87,-202 97.87,-204.25 100.37,-202 97.87,-202 97.87,-202 97.87,-202 100.37,-202 97.87,-199.75 102.87,-202 102.87,-202"/>
</a>
</g>
</g>
<!-- Node9 -->
<g id="Node000009" class="node">
<title>Node9</title>
<g id="a_Node000009"><a xlink:href="../../df/d0a/main_8cpp.html#a9f8b1077cdf88022508dd967530d4e8b" target="_top" xlink:title=" ">
<polygon fill="white" stroke="#666666" points="210.5,-174.5 94.5,-174.5 94.5,-155.5 210.5,-155.5 210.5,-174.5"/>
<text text-anchor="middle" x="152.5" y="-162.5" font-family="Helvetica,sans-Serif" font-size="10.00">installNewTranslator</text>
</a>
</g>
</g>
<!-- Node1&#45;&gt;Node9 -->
<g id="edge9_Node000001_Node000009" class="edge">
<title>Node1&#45;&gt;Node9</title>
<g id="a_edge9_Node000001_Node000009"><a xlink:title=" ">
<path fill="none" stroke="#63b8ff" d="M41.18,-195.28C51.75,-191.75 65.03,-187.46 77,-184 86.61,-181.22 96.98,-178.44 106.83,-175.9"/>
<polygon fill="#63b8ff" stroke="#63b8ff" points="111.94,-174.59 107.65,-178.01 109.51,-175.21 107.09,-175.83 107.09,-175.83 107.09,-175.83 109.51,-175.21 106.53,-173.65 111.94,-174.59 111.94,-174.59"/>
</a>
</g>
</g>
<!-- Node11 -->
<g id="Node000011" class="node">
<title>Node11</title>
<g id="a_Node000011"><a xlink:href="../../d5/d88/classSettingsCache.html#adfa7f9f975919981b992db1fca9e4957" target="_top" xlink:title=" ">
<polygon fill="white" stroke="#666666" points="406.5,-136.5 272.5,-136.5 272.5,-117.5 406.5,-117.5 406.5,-136.5"/>
<text text-anchor="middle" x="339.5" y="-124.5" font-family="Helvetica,sans-Serif" font-size="10.00">SettingsCache::instance</text>
</a>
</g>
</g>
<!-- Node1&#45;&gt;Node11 -->
<g id="edge12_Node000001_Node000011" class="edge">
<title>Node1&#45;&gt;Node11</title>
<g id="a_edge12_Node000001_Node000011"><a xlink:title=" ">
<path fill="none" stroke="#63b8ff" d="M28.01,-192.15C37.2,-179.2 55.28,-156.92 77,-147 136.88,-119.64 212.53,-116.81 267.05,-119.52"/>
<polygon fill="#63b8ff" stroke="#63b8ff" points="272.25,-119.8 267.14,-121.78 269.76,-119.67 267.26,-119.53 267.26,-119.53 267.26,-119.53 269.76,-119.67 267.38,-117.29 272.25,-119.8 272.25,-119.8"/>
</a>
</g>
</g>
<!-- Node12 -->
<g id="Node000012" class="node">
<title>Node12</title>
<g id="a_Node000012"><a xlink:href="../../db/d67/classLogger.html#aa194c59c212c64f794631571c5270e3b" target="_top" xlink:title=" ">
<polygon fill="white" stroke="#666666" points="201.5,-98.5 103.5,-98.5 103.5,-79.5 201.5,-79.5 201.5,-98.5"/>
<text text-anchor="middle" x="152.5" y="-86.5" font-family="Helvetica,sans-Serif" font-size="10.00">Logger::logToFile</text>
</a>
</g>
</g>
<!-- Node1&#45;&gt;Node12 -->
<g id="edge13_Node000001_Node000012" class="edge">
<title>Node1&#45;&gt;Node12</title>
<g id="a_edge13_Node000001_Node000012"><a xlink:title=" ">
<path fill="none" stroke="#63b8ff" d="M24.89,-192.41C31.82,-174.22 49.29,-134.61 77,-113 83.65,-107.81 91.47,-103.72 99.48,-100.51"/>
<polygon fill="#63b8ff" stroke="#63b8ff" points="104.49,-98.63 100.6,-102.5 102.15,-99.51 99.81,-100.39 99.81,-100.39 99.81,-100.39 102.15,-99.51 99.02,-98.29 104.49,-98.63 104.49,-98.63"/>
</a>
</g>
</g>
<!-- Node19 -->
<g id="Node000019" class="node">
<title>Node19</title>
<g id="a_Node000019"><a xlink:href="../../d5/d88/classSettingsCache.html#a5ef671fc35c09038b30c90c8bc09674b" target="_top" xlink:title=" ">
<polygon fill="white" stroke="#666666" points="225.5,-61.5 79.5,-61.5 79.5,-42.5 225.5,-42.5 225.5,-61.5"/>
<text text-anchor="middle" x="152.5" y="-49.5" font-family="Helvetica,sans-Serif" font-size="10.00">SettingsCache::setClientID</text>
</a>
</g>
</g>
<!-- Node1&#45;&gt;Node19 -->
<g id="edge20_Node000001_Node000019" class="edge">
<title>Node1&#45;&gt;Node19</title>
<g id="a_edge20_Node000001_Node000019"><a xlink:title=" ">
<path fill="none" stroke="#63b8ff" d="M22.66,-192.4C26.11,-168.15 38.6,-104 77,-71 80.2,-68.25 83.75,-65.89 87.51,-63.86"/>
<polygon fill="#63b8ff" stroke="#63b8ff" points="92.01,-61.63 88.53,-65.87 89.77,-62.74 87.53,-63.85 87.53,-63.85 87.53,-63.85 89.77,-62.74 86.53,-61.83 92.01,-61.63 92.01,-61.63"/>
</a>
</g>
</g>
<!-- Node20 -->
<g id="Node000020" class="node">
<title>Node20</title>
<g id="a_Node000020"><a xlink:href="../../d6/d1a/classMainWindow.html#a0d6d64388ba3e386c3ccf1e9531c4f61" target="_top" xlink:title=" ">
<polygon fill="white" stroke="#666666" points="227.5,-24.5 77.5,-24.5 77.5,-5.5 227.5,-5.5 227.5,-24.5"/>
<text text-anchor="middle" x="152.5" y="-12.5" font-family="Helvetica,sans-Serif" font-size="10.00">MainWindow::setConnectTo</text>
</a>
</g>
</g>
<!-- Node1&#45;&gt;Node20 -->
<g id="edge21_Node000001_Node000020" class="edge">
<title>Node1&#45;&gt;Node20</title>
<g id="a_edge21_Node000001_Node000020"><a xlink:title=" ">
<path fill="none" stroke="#63b8ff" d="M21.6,-192.27C22.46,-163.34 29.11,-77.19 77,-33 79.37,-30.81 81.97,-28.87 84.72,-27.16"/>
<polygon fill="#63b8ff" stroke="#63b8ff" points="89.16,-24.65 85.92,-29.07 86.99,-25.88 84.81,-27.11 84.81,-27.11 84.81,-27.11 86.99,-25.88 83.7,-25.15 89.16,-24.65 89.16,-24.65"/>
</a>
</g>
</g>
<!-- Node5&#45;&gt;Node6 -->
<g id="edge5_Node000005_Node000006" class="edge">
<title>Node5&#45;&gt;Node6</title>
<g id="a_edge5_Node000005_Node000006"><a xlink:title=" ">
<path fill="none" stroke="#63b8ff" d="M201.14,-248.53C227.04,-253.71 259.14,-260.13 285.79,-265.46"/>
<polygon fill="#63b8ff" stroke="#63b8ff" points="290.7,-266.44 285.35,-267.67 288.25,-265.95 285.8,-265.46 285.8,-265.46 285.8,-265.46 288.25,-265.95 286.24,-263.25 290.7,-266.44 290.7,-266.44"/>
</a>
</g>
</g>
<!-- Node7 -->
<g id="Node000007" class="node">
<title>Node7</title>
<g id="a_Node000007"><a xlink:href="../../db/d67/classLogger.html#ac3f2266dafb7b86937812df5a0734445" target="_top" xlink:title=" ">
<polygon fill="white" stroke="#666666" points="375,-248.5 304,-248.5 304,-229.5 375,-229.5 375,-248.5"/>
<text text-anchor="middle" x="339.5" y="-236.5" font-family="Helvetica,sans-Serif" font-size="10.00">Logger::log</text>
</a>
</g>
</g>
<!-- Node5&#45;&gt;Node7 -->
<g id="edge6_Node000005_Node000007" class="edge">
<title>Node5&#45;&gt;Node7</title>
<g id="a_edge6_Node000005_Node000007"><a xlink:title=" ">
<path fill="none" stroke="#63b8ff" d="M203.08,-239C233,-239 270.63,-239 298.62,-239"/>
<polygon fill="#63b8ff" stroke="#63b8ff" points="303.73,-239 298.73,-241.25 301.23,-239 298.73,-239 298.73,-239 298.73,-239 301.23,-239 298.73,-236.75 303.73,-239 303.73,-239"/>
</a>
</g>
</g>
<!-- Node10 -->
<g id="Node000010" class="node">
<title>Node10</title>
<g id="a_Node000010"><a xlink:href="../../d5/d88/classSettingsCache.html#a34fca5d650edadcbc599ea68b1018873" target="_top" xlink:title=" ">
<polygon fill="white" stroke="#666666" points="405,-174.5 274,-174.5 274,-155.5 405,-155.5 405,-174.5"/>
<text text-anchor="middle" x="339.5" y="-162.5" font-family="Helvetica,sans-Serif" font-size="10.00">SettingsCache::getLang</text>
</a>
</g>
</g>
<!-- Node9&#45;&gt;Node10 -->
<g id="edge10_Node000009_Node000010" class="edge">
<title>Node9&#45;&gt;Node10</title>
<g id="a_edge10_Node000009_Node000010"><a xlink:title=" ">
<path fill="none" stroke="#63b8ff" d="M210.52,-165C228.86,-165 249.39,-165 268.55,-165"/>
<polygon fill="#63b8ff" stroke="#63b8ff" points="273.92,-165 268.92,-167.25 271.42,-165 268.92,-165 268.92,-165 268.92,-165 271.42,-165 268.92,-162.75 273.92,-165 273.92,-165"/>
</a>
</g>
</g>
<!-- Node9&#45;&gt;Node11 -->
<g id="edge11_Node000009_Node000011" class="edge">
<title>Node9&#45;&gt;Node11</title>
<g id="a_edge11_Node000009_Node000011"><a xlink:title=" ">
<path fill="none" stroke="#63b8ff" d="M200.18,-155.41C226.69,-149.97 259.9,-143.14 287.14,-137.55"/>
<polygon fill="#63b8ff" stroke="#63b8ff" points="292.15,-136.52 287.71,-139.73 289.7,-137.02 287.25,-137.53 287.25,-137.53 287.25,-137.53 289.7,-137.02 286.8,-135.32 292.15,-136.52 292.15,-136.52"/>
</a>
</g>
</g>
<!-- Node13 -->
<g id="Node000013" class="node">
<title>Node13</title>
<g id="a_Node000013"><a xlink:href="../../db/d67/classLogger.html#af1a8490c7d7652060c17347ded72e910" target="_top" xlink:title=" ">
<polygon fill="white" stroke="#666666" points="415,-98.5 264,-98.5 264,-79.5 415,-79.5 415,-98.5"/>
<text text-anchor="middle" x="339.5" y="-86.5" font-family="Helvetica,sans-Serif" font-size="10.00">Logger::closeLogfileSession</text>
</a>
</g>
</g>
<!-- Node12&#45;&gt;Node13 -->
<g id="edge14_Node000012_Node000013" class="edge">
<title>Node12&#45;&gt;Node13</title>
<g id="a_edge14_Node000012_Node000013"><a xlink:title=" ">
<path fill="none" stroke="#63b8ff" d="M201.62,-89C218.94,-89 238.99,-89 258.3,-89"/>
<polygon fill="#63b8ff" stroke="#63b8ff" points="263.73,-89 258.73,-91.25 261.23,-89 258.73,-89 258.73,-89 258.73,-89 261.23,-89 258.73,-86.75 263.73,-89 263.73,-89"/>
</a>
</g>
</g>
<!-- Node14 -->
<g id="Node000014" class="node">
<title>Node14</title>
<g id="a_Node000014"><a xlink:href="../../db/d67/classLogger.html#abc7d371802ceb2154a5cfb9209a62551" target="_top" xlink:title=" ">
<polygon fill="white" stroke="#666666" points="414,-61.5 265,-61.5 265,-42.5 414,-42.5 414,-61.5"/>
<text text-anchor="middle" x="339.5" y="-49.5" font-family="Helvetica,sans-Serif" font-size="10.00">Logger::openLogfileSession</text>
</a>
</g>
</g>
<!-- Node12&#45;&gt;Node14 -->
<g id="edge15_Node000012_Node000014" class="edge">
<title>Node12&#45;&gt;Node14</title>
<g id="a_edge15_Node000012_Node000014"><a xlink:title=" ">
<path fill="none" stroke="#63b8ff" d="M201.14,-79.47C227.04,-74.29 259.14,-67.87 285.79,-62.54"/>
<polygon fill="#63b8ff" stroke="#63b8ff" points="290.7,-61.56 286.24,-64.75 288.25,-62.05 285.8,-62.54 285.8,-62.54 285.8,-62.54 288.25,-62.05 285.35,-60.33 290.7,-61.56 290.7,-61.56"/>
</a>
</g>
</g>
<!-- Node15 -->
<g id="Node000015" class="node">
<title>Node15</title>
<g id="a_Node000015"><a xlink:href="../../db/d67/classLogger.html#a43ffb2434b9a620beb8935fa78d648a1" target="_top" xlink:title=" ">
<polygon fill="white" stroke="#666666" points="609,-98.5 460,-98.5 460,-79.5 609,-79.5 609,-98.5"/>
<text text-anchor="middle" x="534.5" y="-86.5" font-family="Helvetica,sans-Serif" font-size="10.00">Logger::getClientInstallInfo</text>
</a>
</g>
</g>
<!-- Node14&#45;&gt;Node15 -->
<g id="edge16_Node000014_Node000015" class="edge">
<title>Node14&#45;&gt;Node15</title>
<g id="a_edge16_Node000014_Node000015"><a xlink:title=" ">
<path fill="none" stroke="#63b8ff" d="M390.2,-61.53C417.22,-66.71 450.71,-73.13 478.51,-78.46"/>
<polygon fill="#63b8ff" stroke="#63b8ff" points="483.63,-79.44 478.3,-80.71 481.18,-78.97 478.72,-78.5 478.72,-78.5 478.72,-78.5 481.18,-78.97 479.14,-76.29 483.63,-79.44 483.63,-79.44"/>
</a>
</g>
</g>
<!-- Node16 -->
<g id="Node000016" class="node">
<title>Node16</title>
<g id="a_Node000016"><a xlink:href="../../db/d67/classLogger.html#a49a80a6a8b5997d9f376593bd5c37512" target="_top" xlink:title=" ">
<polygon fill="white" stroke="#666666" points="602.5,-61.5 466.5,-61.5 466.5,-42.5 602.5,-42.5 602.5,-61.5"/>
<text text-anchor="middle" x="534.5" y="-49.5" font-family="Helvetica,sans-Serif" font-size="10.00">Logger::getClientVersion</text>
</a>
</g>
</g>
<!-- Node14&#45;&gt;Node16 -->
<g id="edge17_Node000014_Node000016" class="edge">
<title>Node14&#45;&gt;Node16</title>
<g id="a_edge17_Node000014_Node000016"><a xlink:title=" ">
<path fill="none" stroke="#63b8ff" d="M414.02,-52C429.42,-52 445.66,-52 461.03,-52"/>
<polygon fill="#63b8ff" stroke="#63b8ff" points="466.21,-52 461.21,-54.25 463.71,-52 461.21,-52 461.21,-52 461.21,-52 463.71,-52 461.21,-49.75 466.21,-52 466.21,-52"/>
</a>
</g>
</g>
<!-- Node17 -->
<g id="Node000017" class="node">
<title>Node17</title>
<g id="a_Node000017"><a xlink:href="../../db/d67/classLogger.html#a6aa0432bffbc2abff42ba31de9b7fba4" target="_top" xlink:title=" ">
<polygon fill="white" stroke="#666666" points="618,-24.5 451,-24.5 451,-5.5 618,-5.5 618,-24.5"/>
<text text-anchor="middle" x="534.5" y="-12.5" font-family="Helvetica,sans-Serif" font-size="10.00">Logger::getSystemArchitecture</text>
</a>
</g>
</g>
<!-- Node14&#45;&gt;Node17 -->
<g id="edge18_Node000014_Node000017" class="edge">
<title>Node14&#45;&gt;Node17</title>
<g id="a_edge18_Node000014_Node000017"><a xlink:title=" ">
<path fill="none" stroke="#63b8ff" d="M390.2,-42.47C417.22,-37.29 450.71,-30.87 478.51,-25.54"/>
<polygon fill="#63b8ff" stroke="#63b8ff" points="483.63,-24.56 479.14,-27.71 481.18,-25.03 478.72,-25.5 478.72,-25.5 478.72,-25.5 481.18,-25.03 478.3,-23.29 483.63,-24.56 483.63,-24.56"/>
</a>
</g>
</g>
<!-- Node18 -->
<g id="Node000018" class="node">
<title>Node18</title>
<g id="a_Node000018"><a xlink:href="../../db/d67/classLogger.html#a5004dbdc25706c7851da8ffbe947a752" target="_top" xlink:title=" ">
<polygon fill="white" stroke="#666666" points="802,-30 654,-30 654,0 802,0 802,-30"/>
<text text-anchor="start" x="662" y="-18" font-family="Helvetica,sans-Serif" font-size="10.00">Logger::getClientOperating</text>
<text text-anchor="middle" x="728" y="-7" font-family="Helvetica,sans-Serif" font-size="10.00">System</text>
</a>
</g>
</g>
<!-- Node17&#45;&gt;Node18 -->
<g id="edge19_Node000017_Node000018" class="edge">
<title>Node17&#45;&gt;Node18</title>
<g id="a_edge19_Node000017_Node000018"><a xlink:title=" ">
<path fill="none" stroke="#63b8ff" d="M618.1,-15C628.19,-15 638.47,-15 648.5,-15"/>
<polygon fill="#63b8ff" stroke="#63b8ff" points="653.71,-15 648.71,-17.25 651.21,-15 648.71,-15 648.71,-15 648.71,-15 651.21,-15 648.71,-12.75 653.71,-15 653.71,-15"/>
</a>
</g>
</g>
</g>
</svg>

<g id="navigator" transform="translate(0 0)" fill="#404254">
  <rect fill="#f2f5e9" fill-opacity="0.5" stroke="#606060" stroke-width=".5" x="0" y="0" width="60" height="60"/>
  <use id="zoomplus" xlink:href="#zoomPlus" x="17" y="9" onmousedown="handleZoom(evt,'in')"/>
  <use id="zoomminus" xlink:href="#zoomMin" x="42" y="9" onmousedown="handleZoom(evt,'out')"/>
  <use id="reset" xlink:href="#resetDef" x="30" y="36" onmousedown="handleReset()"/>
   <use id="arrowup" xlink:href="#arrowUp" x="0" y="0" onmousedown="handlePan(0,-1)"/>
  <use id="arrowright" xlink:href="#arrowRight" x="0" y="0" onmousedown="handlePan(1,0)"/>
  <use id="arrowdown" xlink:href="#arrowDown" x="0" y="0" onmousedown="handlePan(0,1)"/>
  <use id="arrowleft" xlink:href="#arrowLeft" x="0" y="0" onmousedown="handlePan(-1,0)"/>
</g>
<svg viewBox="0 0 15 15" width="100%" height="30px" preserveAspectRatio="xMaxYMin meet">
 <g id="arrow_out" transform="scale(0.3 0.3)">
  <a xlink:href="main_8cpp_a0ddf1224851353fc92bfbff6f499fa97_cgraph_org.svg" target="_base">
   <rect id="button" ry="5" rx="5" y="6" x="6" height="38" width="38"
        fill="#f2f5e9" fill-opacity="0.5" stroke="#606060" stroke-width="1.0"/>
   <path id="arrow"
     d="M 11.500037,31.436501 C 11.940474,20.09759 22.043105,11.32322 32.158766,21.979434 L 37.068811,17.246167 C 37.068811,17.246167 37.088388,32 37.088388,32 L 22.160133,31.978069 C 22.160133,31.978069 26.997745,27.140456 26.997745,27.140456 C 18.528582,18.264221 13.291696,25.230495 11.500037,31.436501 z"
     style="fill:#404040;"/>
  </a>
 </g>
</svg>

<style type='text/css'>
<![CDATA[
[data-mouse-over-selected='false'] { opacity: 0.7; }
[data-mouse-over-selected='true']  { opacity: 1.0; }
]]>
</style>
<script type="application/ecmascript"><![CDATA[
document.addEventListener('DOMContentLoaded', (event) => {
  highlightEdges();
  highlightAdjacentNodes();
});
]]></script>
</svg>
