<?xml version="1.0" encoding="UTF-8" standalone="no"?>
<!DOCTYPE svg PUBLIC "-//W3C//DTD SVG 1.1//EN"
 "http://www.w3.org/Graphics/SVG/1.1/DTD/svg11.dtd">
<!-- Generated by graphviz version 2.43.0 (0)
 -->
<!-- Title: cardNodesToExactCards Pages: 1 -->
<svg width="356pt" height="64pt"
 viewBox="0.00 0.00 356.00 64.00" xmlns="http://www.w3.org/2000/svg" xmlns:xlink="http://www.w3.org/1999/xlink">

<svg id="main" version="1.1" xmlns="http://www.w3.org/2000/svg" xmlns:xlink="http://www.w3.org/1999/xlink" xml:space="preserve">

<style type="text/css"><![CDATA[
.node, .edge {opacity: 0.7;}
.node.selected, .edge.selected {opacity: 1;}
.edge:hover path { stroke: red; }
.edge:hover polygon { stroke: red; fill: red; }
]]></style>
<script type="application/ecmascript" xlink:href="../../svg.min.js"/>
<svg id="graph" class="graph">
<g id="graph0" class="graph" transform="scale(1 1) rotate(0) translate(4 60)">
<title>cardNodesToExactCards</title>
<!-- Node1 -->
<g id="Node000001" class="node">
<title>Node1</title>
<g id="a_Node000001"><a xlink:title=" ">
<polygon fill="#999999" stroke="#666666" points="348,-37 214,-37 214,-18 348,-18 348,-37"/>
<text text-anchor="middle" x="281" y="-25" font-family="Helvetica,sans-Serif" font-size="10.00">cardNodesToExactCards</text>
</a>
</g>
</g>
<!-- Node2 -->
<g id="Node000002" class="node">
<title>Node2</title>
<g id="a_Node000002"><a xlink:href="../../d9/de1/classDeckListModel.html#aea85d00abde1ac99e60565920586acd9" target="_top" xlink:title="Creates a list consisting of the entries of the model mapped into ExactCards (with each entry looked ...">
<polygon fill="white" stroke="#666666" points="158,-56 20,-56 20,-37 158,-37 158,-56"/>
<text text-anchor="middle" x="89" y="-44" font-family="Helvetica,sans-Serif" font-size="10.00">DeckListModel::getCards</text>
</a>
</g>
</g>
<!-- Node1&#45;&gt;Node2 -->
<g id="edge1_Node000001_Node000002" class="edge">
<title>Node1&#45;&gt;Node2</title>
<g id="a_edge1_Node000001_Node000002"><a xlink:title=" ">
<path fill="none" stroke="#63b8ff" d="M208.72,-34.63C192.17,-36.28 174.61,-38.04 158.2,-39.68"/>
<polygon fill="#63b8ff" stroke="#63b8ff" points="213.81,-34.12 209.06,-36.86 211.33,-34.37 208.84,-34.62 208.84,-34.62 208.84,-34.62 211.33,-34.37 208.61,-32.38 213.81,-34.12 213.81,-34.12"/>
</a>
</g>
</g>
<!-- Node3 -->
<g id="Node000003" class="node">
<title>Node3</title>
<g id="a_Node000003"><a xlink:href="../../d9/de1/classDeckListModel.html#a3bb088a4d838f88b692a8aabf5b4dfc3" target="_top" xlink:title=" ">
<polygon fill="white" stroke="#666666" points="178,-19 0,-19 0,0 178,0 178,-19"/>
<text text-anchor="middle" x="89" y="-7" font-family="Helvetica,sans-Serif" font-size="10.00">DeckListModel::getCardsForZone</text>
</a>
</g>
</g>
<!-- Node1&#45;&gt;Node3 -->
<g id="edge2_Node000001_Node000003" class="edge">
<title>Node1&#45;&gt;Node3</title>
<g id="a_edge2_Node000001_Node000003"><a xlink:title=" ">
<path fill="none" stroke="#63b8ff" d="M208.62,-20.74C198.63,-19.79 188.26,-18.81 178.01,-17.84"/>
<polygon fill="#63b8ff" stroke="#63b8ff" points="213.81,-21.23 208.62,-23 211.33,-20.99 208.84,-20.76 208.84,-20.76 208.84,-20.76 211.33,-20.99 209.05,-18.52 213.81,-21.23 213.81,-21.23"/>
</a>
</g>
</g>
</g>
</svg>
</svg>

<style type='text/css'>
<![CDATA[
[data-mouse-over-selected='false'] { opacity: 0.7; }
[data-mouse-over-selected='true']  { opacity: 1.0; }
]]>
</style>
<script type="application/ecmascript"><![CDATA[
document.addEventListener('DOMContentLoaded', (event) => {
  highlightEdges();
  highlightAdjacentNodes();
});
]]></script>
</svg>
