<?xml version="1.0" encoding="UTF-8" standalone="no"?>
<!DOCTYPE svg PUBLIC "-//W3C//DTD SVG 1.1//EN"
 "http://www.w3.org/Graphics/SVG/1.1/DTD/svg11.dtd">
<!-- Generated by graphviz version 2.43.0 (0)
 -->
<!-- Title: UnzipPrivate::testPassword Pages: 1 -->
<svg width="500pt" height="64pt"
 viewBox="0.00 0.00 500.00 64.00" xmlns="http://www.w3.org/2000/svg" xmlns:xlink="http://www.w3.org/1999/xlink">

<svg id="main" version="1.1" xmlns="http://www.w3.org/2000/svg" xmlns:xlink="http://www.w3.org/1999/xlink" xml:space="preserve" onload="init(evt)">
<style type="text/css"><![CDATA[
.node, .edge {opacity: 0.7;}
.node.selected, .edge.selected {opacity: 1;}
.edge:hover path { stroke: red; }
.edge:hover polygon { stroke: red; fill: red; }
]]></style>
<script type="application/ecmascript" xlink:href="../../svg.min.js"/>
<svg id="graph" class="graph">
<g id="graph0" class="graph" transform="scale(1 1) rotate(0) translate(4 60)">
<title>UnzipPrivate::testPassword</title>
<!-- Node1 -->
<g id="Node000001" class="node">
<title>Node1</title>
<g id="a_Node000001"><a xlink:title=" ">
<polygon fill="#999999" stroke="#666666" points="149,-37 0,-37 0,-18 149,-18 149,-37"/>
<text text-anchor="middle" x="74.5" y="-25" font-family="Helvetica,sans-Serif" font-size="10.00">UnzipPrivate::testPassword</text>
</a>
</g>
</g>
<!-- Node2 -->
<g id="Node000002" class="node">
<title>Node2</title>
<g id="a_Node000002"><a xlink:href="../../df/d90/classUnzipPrivate.html#a36d045871216c191bacfc97422e85a56" target="_top" xlink:title=" ">
<polygon fill="white" stroke="#666666" points="310.5,-56 186.5,-56 186.5,-37 310.5,-37 310.5,-56"/>
<text text-anchor="middle" x="248.5" y="-44" font-family="Helvetica,sans-Serif" font-size="10.00">UnzipPrivate::initKeys</text>
</a>
</g>
</g>
<!-- Node1&#45;&gt;Node2 -->
<g id="edge1_Node000001_Node000002" class="edge">
<title>Node1&#45;&gt;Node2</title>
<g id="a_edge1_Node000001_Node000002"><a xlink:title=" ">
<path fill="none" stroke="#63b8ff" d="M149.44,-35.67C160,-36.83 170.82,-38.03 181.22,-39.18"/>
<polygon fill="#63b8ff" stroke="#63b8ff" points="186.29,-39.74 181.07,-41.43 183.81,-39.46 181.32,-39.19 181.32,-39.19 181.32,-39.19 183.81,-39.46 181.57,-36.95 186.29,-39.74 186.29,-39.74"/>
</a>
</g>
</g>
<!-- Node4 -->
<g id="Node000004" class="node">
<title>Node4</title>
<g id="a_Node000004"><a xlink:href="../../df/d90/classUnzipPrivate.html#ab27703312de9940300b768dd8103e9cb" target="_top" xlink:title=" ">
<polygon fill="white" stroke="#666666" points="312,-19 185,-19 185,0 312,0 312,-19"/>
<text text-anchor="middle" x="248.5" y="-7" font-family="Helvetica,sans-Serif" font-size="10.00">UnzipPrivate::testKeys</text>
</a>
</g>
</g>
<!-- Node1&#45;&gt;Node4 -->
<g id="edge3_Node000001_Node000004" class="edge">
<title>Node1&#45;&gt;Node4</title>
<g id="a_edge3_Node000001_Node000004"><a xlink:title=" ">
<path fill="none" stroke="#63b8ff" d="M149.44,-19.76C159.52,-18.71 169.83,-17.63 179.79,-16.59"/>
<polygon fill="#63b8ff" stroke="#63b8ff" points="184.96,-16.04 180.22,-18.8 182.48,-16.3 179.99,-16.57 179.99,-16.57 179.99,-16.57 182.48,-16.3 179.76,-14.33 184.96,-16.04 184.96,-16.04"/>
</a>
</g>
</g>
<!-- Node3 -->
<g id="Node000003" class="node">
<title>Node3</title>
<g id="a_Node000003"><a xlink:href="../../df/d90/classUnzipPrivate.html#a69fe659053f26c21a6ae9e93496baabd" target="_top" xlink:title=" ">
<polygon fill="white" stroke="#666666" points="491,-56 349,-56 349,-37 491,-37 491,-56"/>
<text text-anchor="middle" x="420" y="-44" font-family="Helvetica,sans-Serif" font-size="10.00">UnzipPrivate::updateKeys</text>
</a>
</g>
</g>
<!-- Node2&#45;&gt;Node3 -->
<g id="edge2_Node000002_Node000003" class="edge">
<title>Node2&#45;&gt;Node3</title>
<g id="a_edge2_Node000002_Node000003"><a xlink:title=" ">
<path fill="none" stroke="#63b8ff" d="M310.69,-46.5C321.47,-46.5 332.79,-46.5 343.89,-46.5"/>
<polygon fill="#63b8ff" stroke="#63b8ff" points="348.97,-46.5 343.97,-48.75 346.47,-46.5 343.97,-46.5 343.97,-46.5 343.97,-46.5 346.47,-46.5 343.97,-44.25 348.97,-46.5 348.97,-46.5"/>
</a>
</g>
</g>
<!-- Node4&#45;&gt;Node3 -->
<g id="edge5_Node000004_Node000003" class="edge">
<title>Node4&#45;&gt;Node3</title>
<g id="a_edge5_Node000004_Node000003"><a xlink:title=" ">
<path fill="none" stroke="#63b8ff" d="M293.15,-19.03C316.69,-24.17 345.8,-30.52 370.1,-35.82"/>
<polygon fill="#63b8ff" stroke="#63b8ff" points="375.2,-36.94 369.84,-38.07 372.76,-36.41 370.32,-35.87 370.32,-35.87 370.32,-35.87 372.76,-36.41 370.8,-33.67 375.2,-36.94 375.2,-36.94"/>
</a>
</g>
</g>
<!-- Node5 -->
<g id="Node000005" class="node">
<title>Node5</title>
<g id="a_Node000005"><a xlink:href="../../df/d90/classUnzipPrivate.html#acc09b35f3b5675a6e353aa58cfc21620" target="_top" xlink:title=" ">
<polygon fill="white" stroke="#666666" points="492,-19 348,-19 348,0 492,0 492,-19"/>
<text text-anchor="middle" x="420" y="-7" font-family="Helvetica,sans-Serif" font-size="10.00">UnzipPrivate::decryptByte</text>
</a>
</g>
</g>
<!-- Node4&#45;&gt;Node5 -->
<g id="edge4_Node000004_Node000005" class="edge">
<title>Node4&#45;&gt;Node5</title>
<g id="a_edge4_Node000004_Node000005"><a xlink:title=" ">
<path fill="none" stroke="#63b8ff" d="M312.13,-9.5C322.1,-9.5 332.51,-9.5 342.75,-9.5"/>
<polygon fill="#63b8ff" stroke="#63b8ff" points="347.76,-9.5 342.76,-11.75 345.26,-9.5 342.76,-9.5 342.76,-9.5 342.76,-9.5 345.26,-9.5 342.76,-7.25 347.76,-9.5 347.76,-9.5"/>
</a>
</g>
</g>
</g>
</svg>
</svg>

<style type='text/css'>
<![CDATA[
[data-mouse-over-selected='false'] { opacity: 0.7; }
[data-mouse-over-selected='true']  { opacity: 1.0; }
]]>
</style>
<script type="application/ecmascript"><![CDATA[
document.addEventListener('DOMContentLoaded', (event) => {
  highlightEdges();
  highlightAdjacentNodes();
});
]]></script>
</svg>
