<?xml version="1.0" encoding="UTF-8" standalone="no"?>
<!DOCTYPE svg PUBLIC "-//W3C//DTD SVG 1.1//EN"
 "http://www.w3.org/Graphics/SVG/1.1/DTD/svg11.dtd">
<!-- Generated by graphviz version 2.43.0 (0)
 -->
<!-- Title: report_utils::fillReportTableRow Pages: 1 -->
<svg width="2637pt" height="485pt"
 viewBox="0.00 0.00 2637.00 484.60" xmlns="http://www.w3.org/2000/svg" xmlns:xlink="http://www.w3.org/1999/xlink">
<g id="page0,1_graph0" class="graph" transform="scale(1 1) rotate(0) translate(4 480.6)">
<title>report_utils::fillReportTableRow</title>
<!-- Node1 -->
<g id="Node000001" class="node">
<title>Node1</title>
<g id="a_Node000001"><a xlink:title=" ">
<polygon fill="#999999" stroke="#666666" points="2629,-391.6 2507,-391.6 2507,-361.6 2629,-361.6 2629,-391.6"/>
<text text-anchor="start" x="2515" y="-379.6" font-family="Helvetica,sans-Serif" font-size="10.00">report_utils::fillReport</text>
<text text-anchor="middle" x="2568" y="-368.6" font-family="Helvetica,sans-Serif" font-size="10.00">TableRow</text>
</a>
</g>
</g>
<!-- Node1&#45;&gt;Node1 -->
<g id="edge34_Node000001_Node000001" class="edge">
<title>Node1&#45;&gt;Node1</title>
<g id="a_edge34_Node000001_Node000001"><a xlink:title=" ">
<path fill="none" stroke="#63b8ff" d="M2599.12,-396.9C2599.45,-403.93 2589.07,-409.6 2568,-409.6 2542.06,-409.6 2532.34,-401.01 2538.82,-391.88"/>
<polygon fill="#63b8ff" stroke="#63b8ff" points="2597.18,-391.88 2601.08,-395.73 2598.08,-394.21 2598.98,-396.54 2598.98,-396.54 2598.98,-396.54 2598.08,-394.21 2596.88,-397.35 2597.18,-391.88 2597.18,-391.88"/>
</a>
</g>
</g>
<!-- Node2 -->
<g id="Node000002" class="node">
<title>Node2</title>
<g id="a_Node000002"><a xlink:href="../../dc/d80/classTabReport.html#a53182419f313e31d410cfedbd9a3df7a" target="_top" xlink:title=" ">
<polygon fill="white" stroke="#666666" points="2289.5,-360.1 2161.5,-360.1 2161.5,-341.1 2289.5,-341.1 2289.5,-360.1"/>
<text text-anchor="middle" x="2225.5" y="-348.1" font-family="Helvetica,sans-Serif" font-size="10.00">TabReport::applyFilters</text>
</a>
</g>
</g>
<!-- Node1&#45;&gt;Node2 -->
<g id="edge1_Node000001_Node000002" class="edge">
<title>Node1&#45;&gt;Node2</title>
<g id="a_edge1_Node000001_Node000002"><a xlink:title=" ">
<path fill="none" stroke="#63b8ff" d="M2501.83,-371.63C2440.79,-366.96 2350.15,-360.04 2289.74,-355.43"/>
<polygon fill="#63b8ff" stroke="#63b8ff" points="2506.91,-372.01 2501.75,-373.88 2504.42,-371.82 2501.92,-371.63 2501.92,-371.63 2501.92,-371.63 2504.42,-371.82 2502.1,-369.39 2506.91,-372.01 2506.91,-372.01"/>
</a>
</g>
</g>
<!-- Node19 -->
<g id="Node000019" class="node">
<title>Node19</title>
<g id="a_Node000019"><a xlink:href="../../d7/dc9/classDlgMyReports.html#ad94f45c8947f8d9ca1212d81b0c3cdba" target="_top" xlink:title=" ">
<polygon fill="white" stroke="#666666" points="2471,-429.6 2333,-429.6 2333,-399.6 2471,-399.6 2471,-429.6"/>
<text text-anchor="start" x="2341" y="-417.6" font-family="Helvetica,sans-Serif" font-size="10.00">DlgMyReports::reportList</text>
<text text-anchor="middle" x="2402" y="-406.6" font-family="Helvetica,sans-Serif" font-size="10.00">Response</text>
</a>
</g>
</g>
<!-- Node1&#45;&gt;Node19 -->
<g id="edge35_Node000001_Node000019" class="edge">
<title>Node1&#45;&gt;Node19</title>
<g id="a_edge35_Node000001_Node000019"><a xlink:title=" ">
<path fill="none" stroke="#63b8ff" d="M2501.76,-391.72C2490.59,-394.31 2478.98,-397 2467.82,-399.58"/>
<polygon fill="#63b8ff" stroke="#63b8ff" points="2506.86,-390.54 2502.5,-393.86 2504.43,-391.1 2501.99,-391.66 2501.99,-391.66 2501.99,-391.66 2504.43,-391.1 2501.48,-389.47 2506.86,-390.54 2506.86,-390.54"/>
</a>
</g>
</g>
<!-- Node3 -->
<g id="Node000003" class="node">
<title>Node3</title>
<g id="a_Node000003"><a xlink:href="../../dc/d80/classTabReport.html#ad469bfa6a40dca018c7eac8260d1c9e9" target="_top" xlink:title=" ">
<polygon fill="white" stroke="#666666" points="2118,-352.1 1953,-352.1 1953,-333.1 2118,-333.1 2118,-352.1"/>
<text text-anchor="middle" x="2035.5" y="-340.1" font-family="Helvetica,sans-Serif" font-size="10.00">TabReport::reportListResponse</text>
</a>
</g>
</g>
<!-- Node2&#45;&gt;Node3 -->
<g id="edge2_Node000002_Node000003" class="edge">
<title>Node2&#45;&gt;Node3</title>
<g id="a_edge2_Node000002_Node000003"><a xlink:title=" ">
<path fill="none" stroke="#63b8ff" d="M2156.13,-347.69C2143.8,-347.17 2130.82,-346.62 2118.15,-346.08"/>
<polygon fill="#63b8ff" stroke="#63b8ff" points="2161.38,-347.92 2156.28,-349.95 2158.88,-347.81 2156.38,-347.7 2156.38,-347.7 2156.38,-347.7 2158.88,-347.81 2156.48,-345.45 2161.38,-347.92 2161.38,-347.92"/>
</a>
</g>
</g>
<!-- Node7 -->
<g id="Node000007" class="node">
<title>Node7</title>
<g id="a_Node000007"><a xlink:href="../../dc/d80/classTabReport.html#ab4d933c598e179a574adf7ddd0fb9c3e" target="_top" xlink:title=" ">
<polygon fill="white" stroke="#666666" points="1311,-200.1 1156,-200.1 1156,-181.1 1311,-181.1 1311,-200.1"/>
<text text-anchor="middle" x="1233.5" y="-188.1" font-family="Helvetica,sans-Serif" font-size="10.00">TabReport::requestJoinGame</text>
</a>
</g>
</g>
<!-- Node2&#45;&gt;Node7 -->
<g id="edge32_Node000002_Node000007" class="edge">
<title>Node2&#45;&gt;Node7</title>
<g id="a_edge32_Node000002_Node000007"><a xlink:title=" ">
<path fill="none" stroke="#63b8ff" d="M2156.18,-359.14C2079.22,-368.01 1950.34,-380.6 1839,-380.6 1839,-380.6 1839,-380.6 1629.5,-380.6 1503.28,-380.6 1455.8,-415.58 1347,-351.6 1284.98,-315.13 1248.77,-229.41 1237.96,-200.4"/>
<polygon fill="#63b8ff" stroke="#63b8ff" points="2161.18,-358.56 2156.47,-361.37 2158.69,-358.85 2156.21,-359.14 2156.21,-359.14 2156.21,-359.14 2158.69,-358.85 2155.95,-356.9 2161.18,-358.56 2161.18,-358.56"/>
</a>
</g>
</g>
<!-- Node9 -->
<g id="Node000009" class="node">
<title>Node9</title>
<g id="a_Node000009"><a xlink:href="../../dc/d80/classTabReport.html#ad221596ca27e04bdab9c95476fe4ce0f" target="_top" xlink:title=" ">
<polygon fill="white" stroke="#666666" points="909,-162.1 789,-162.1 789,-143.1 909,-143.1 909,-162.1"/>
<text text-anchor="middle" x="849" y="-150.1" font-family="Helvetica,sans-Serif" font-size="10.00">TabReport::TabReport</text>
</a>
</g>
</g>
<!-- Node2&#45;&gt;Node9 -->
<g id="edge33_Node000002_Node000009" class="edge">
<title>Node2&#45;&gt;Node9</title>
<g id="a_edge33_Node000002_Node000009"><a xlink:title=" ">
<path fill="none" stroke="#63b8ff" d="M2217.71,-336.14C2185.6,-270.12 2042.07,-0.6 1839,-0.6 1839,-0.6 1839,-0.6 1232.5,-0.6 1105.95,-0.6 1064.16,9.02 952,-49.6 907.62,-72.8 870.6,-122.17 856.32,-143.01"/>
<polygon fill="#63b8ff" stroke="#63b8ff" points="2219.99,-340.88 2215.79,-337.35 2218.9,-338.62 2217.82,-336.37 2217.82,-336.37 2217.82,-336.37 2218.9,-338.62 2219.85,-335.39 2219.99,-340.88 2219.99,-340.88"/>
</a>
</g>
</g>
<!-- Node4 -->
<g id="Node000004" class="node">
<title>Node4</title>
<g id="a_Node000004"><a xlink:href="../../dc/d80/classTabReport.html#aa489dd75e0fa1e591e1d9fa95885bcfe" target="_top" xlink:title=" ">
<polygon fill="white" stroke="#666666" points="1899.5,-219.1 1776.5,-219.1 1776.5,-200.1 1899.5,-200.1 1899.5,-219.1"/>
<text text-anchor="middle" x="1838" y="-207.1" font-family="Helvetica,sans-Serif" font-size="10.00">TabReport::refreshList</text>
</a>
</g>
</g>
<!-- Node3&#45;&gt;Node4 -->
<g id="edge3_Node000003_Node000004" class="edge">
<title>Node3&#45;&gt;Node4</title>
<g id="a_edge3_Node000003_Node000004"><a xlink:title=" ">
<path fill="none" stroke="#63b8ff" d="M2015.96,-329.99C1977.11,-303.56 1887.92,-242.88 1853.2,-219.26"/>
<polygon fill="#63b8ff" stroke="#63b8ff" points="2020.44,-333.04 2015.04,-332.08 2018.37,-331.63 2016.31,-330.22 2016.31,-330.22 2016.31,-330.22 2018.37,-331.63 2017.57,-328.36 2020.44,-333.04 2020.44,-333.04"/>
</a>
</g>
</g>
<!-- Node3&#45;&gt;Node7 -->
<g id="edge31_Node000003_Node000007" class="edge">
<title>Node3&#45;&gt;Node7</title>
<g id="a_edge31_Node000003_Node000007"><a xlink:title=" ">
<path fill="none" stroke="#63b8ff" d="M1947.79,-348.86C1787.24,-359.04 1450.59,-373.41 1347,-323.6 1290.58,-296.47 1251.85,-226.26 1239.09,-200.37"/>
<polygon fill="#63b8ff" stroke="#63b8ff" points="1952.96,-348.53 1948.11,-351.09 1950.46,-348.69 1947.97,-348.85 1947.97,-348.85 1947.97,-348.85 1950.46,-348.69 1947.82,-346.6 1952.96,-348.53 1952.96,-348.53"/>
</a>
</g>
</g>
<!-- Node5 -->
<g id="Node000005" class="node">
<title>Node5</title>
<g id="a_Node000005"><a xlink:href="../../dc/d80/classTabReport.html#a2f1a4351a22284c964d320818752067a" target="_top" xlink:title=" ">
<polygon fill="white" stroke="#666666" points="1723,-238.1 1538,-238.1 1538,-219.1 1723,-219.1 1723,-238.1"/>
<text text-anchor="middle" x="1630.5" y="-226.1" font-family="Helvetica,sans-Serif" font-size="10.00">TabReport::addCommentResponse</text>
</a>
</g>
</g>
<!-- Node4&#45;&gt;Node5 -->
<g id="edge4_Node000004_Node000005" class="edge">
<title>Node4&#45;&gt;Node5</title>
<g id="a_edge4_Node000004_Node000005"><a xlink:title=" ">
<path fill="none" stroke="#63b8ff" d="M1771.32,-215.67C1756.01,-217.09 1739.44,-218.62 1723.23,-220.12"/>
<polygon fill="#63b8ff" stroke="#63b8ff" points="1776.45,-215.2 1771.68,-217.9 1773.97,-215.43 1771.48,-215.66 1771.48,-215.66 1771.48,-215.66 1773.97,-215.43 1771.27,-213.42 1776.45,-215.2 1776.45,-215.2"/>
</a>
</g>
</g>
<!-- Node4&#45;&gt;Node7 -->
<g id="edge24_Node000004_Node000007" class="edge">
<title>Node4&#45;&gt;Node7</title>
<g id="a_edge24_Node000004_Node000007"><a xlink:title=" ">
<path fill="none" stroke="#63b8ff" d="M1771.21,-207.53C1658.94,-203.99 1430.93,-196.8 1311.45,-193.03"/>
<polygon fill="#63b8ff" stroke="#63b8ff" points="1776.47,-207.69 1771.4,-209.78 1773.97,-207.61 1771.47,-207.53 1771.47,-207.53 1771.47,-207.53 1773.97,-207.61 1771.54,-205.29 1776.47,-207.69 1776.47,-207.69"/>
</a>
</g>
</g>
<!-- Node4&#45;&gt;Node9 -->
<g id="edge30_Node000004_Node000009" class="edge">
<title>Node4&#45;&gt;Node9</title>
<g id="a_edge30_Node000004_Node000009"><a xlink:title=" ">
<path fill="none" stroke="#63b8ff" d="M1827.59,-195.81C1810.09,-171.33 1770.03,-120.53 1723,-95.6 1604.05,-32.56 1560.13,-38.6 1425.5,-38.6 1425.5,-38.6 1425.5,-38.6 1232.5,-38.6 1086.64,-38.6 922.03,-115.68 868.13,-143.08"/>
<polygon fill="#63b8ff" stroke="#63b8ff" points="1830.59,-200.06 1825.87,-197.27 1829.15,-198.02 1827.71,-195.97 1827.71,-195.97 1827.71,-195.97 1829.15,-198.02 1829.55,-194.68 1830.59,-200.06 1830.59,-200.06"/>
</a>
</g>
</g>
<!-- Node15 -->
<g id="Node000015" class="node">
<title>Node15</title>
<g id="a_Node000015"><a xlink:href="../../dc/d80/classTabReport.html#ab7c9a9b59dbac361469082ad87a14687" target="_top" xlink:title=" ">
<polygon fill="white" stroke="#666666" points="1705.5,-276.1 1555.5,-276.1 1555.5,-257.1 1705.5,-257.1 1705.5,-276.1"/>
<text text-anchor="middle" x="1630.5" y="-264.1" font-family="Helvetica,sans-Serif" font-size="10.00">TabReport::assignResponse</text>
</a>
</g>
</g>
<!-- Node4&#45;&gt;Node15 -->
<g id="edge19_Node000004_Node000015" class="edge">
<title>Node4&#45;&gt;Node15</title>
<g id="a_edge19_Node000004_Node000015"><a xlink:title=" ">
<path fill="none" stroke="#63b8ff" d="M1806.29,-220.93C1783.51,-229.06 1751.58,-239.9 1723,-247.6 1710,-251.11 1695.81,-254.33 1682.57,-257.1"/>
<polygon fill="#63b8ff" stroke="#63b8ff" points="1811,-219.23 1807.06,-223.04 1808.65,-220.08 1806.3,-220.92 1806.3,-220.92 1806.3,-220.92 1808.65,-220.08 1805.54,-218.8 1811,-219.23 1811,-219.23"/>
</a>
</g>
</g>
<!-- Node17 -->
<g id="Node000017" class="node">
<title>Node17</title>
<g id="a_Node000017"><a xlink:href="../../dc/d80/classTabReport.html#a434d6a961037a6939b0c6e4aa00a9d78" target="_top" xlink:title=" ">
<polygon fill="white" stroke="#666666" points="1708,-124.1 1553,-124.1 1553,-105.1 1708,-105.1 1708,-124.1"/>
<text text-anchor="middle" x="1630.5" y="-112.1" font-family="Helvetica,sans-Serif" font-size="10.00">TabReport::resolveResponse</text>
</a>
</g>
</g>
<!-- Node4&#45;&gt;Node17 -->
<g id="edge25_Node000004_Node000017" class="edge">
<title>Node4&#45;&gt;Node17</title>
<g id="a_edge25_Node000004_Node000017"><a xlink:title=" ">
<path fill="none" stroke="#63b8ff" d="M1811.58,-197.85C1770.41,-178.82 1689.92,-141.61 1652.08,-124.12"/>
<polygon fill="#63b8ff" stroke="#63b8ff" points="1816.16,-199.97 1810.68,-199.91 1813.9,-198.92 1811.63,-197.87 1811.63,-197.87 1811.63,-197.87 1813.9,-198.92 1812.57,-195.83 1816.16,-199.97 1816.16,-199.97"/>
</a>
</g>
</g>
<!-- Node6 -->
<g id="Node000006" class="node">
<title>Node6</title>
<g id="a_Node000006"><a xlink:href="../../dc/d80/classTabReport.html#a489bde6fa5f306536c0e68d682504304" target="_top" xlink:title=" ">
<polygon fill="white" stroke="#666666" points="1493,-162.1 1356,-162.1 1356,-143.1 1493,-143.1 1493,-162.1"/>
<text text-anchor="middle" x="1424.5" y="-150.1" font-family="Helvetica,sans-Serif" font-size="10.00">TabReport::addComment</text>
</a>
</g>
</g>
<!-- Node5&#45;&gt;Node6 -->
<g id="edge5_Node000005_Node000006" class="edge">
<title>Node5&#45;&gt;Node6</title>
<g id="a_edge5_Node000005_Node000006"><a xlink:title=" ">
<path fill="none" stroke="#63b8ff" d="M1598.91,-217.2C1558.68,-202.22 1488.71,-176.15 1451.13,-162.15"/>
<polygon fill="#63b8ff" stroke="#63b8ff" points="1603.66,-218.98 1598.19,-219.34 1601.32,-218.1 1598.98,-217.23 1598.98,-217.23 1598.98,-217.23 1601.32,-218.1 1599.76,-215.12 1603.66,-218.98 1603.66,-218.98"/>
</a>
</g>
</g>
<!-- Node5&#45;&gt;Node7 -->
<g id="edge18_Node000005_Node000007" class="edge">
<title>Node5&#45;&gt;Node7</title>
<g id="a_edge18_Node000005_Node000007"><a xlink:title=" ">
<path fill="none" stroke="#63b8ff" d="M1532.58,-221.31C1478.01,-216.97 1408.65,-211.05 1347,-204.6 1334.28,-203.27 1320.76,-201.71 1307.68,-200.13"/>
<polygon fill="#63b8ff" stroke="#63b8ff" points="1537.81,-221.72 1532.65,-223.57 1535.32,-221.53 1532.83,-221.33 1532.83,-221.33 1532.83,-221.33 1535.32,-221.53 1533,-219.08 1537.81,-221.72 1537.81,-221.72"/>
</a>
</g>
</g>
<!-- Node6&#45;&gt;Node7 -->
<g id="edge6_Node000006_Node000007" class="edge">
<title>Node6&#45;&gt;Node7</title>
<g id="a_edge6_Node000006_Node000007"><a xlink:title=" ">
<path fill="none" stroke="#63b8ff" d="M1370.68,-163.22C1342.8,-168.83 1308.87,-175.65 1281.85,-181.08"/>
<polygon fill="#63b8ff" stroke="#63b8ff" points="1375.81,-162.19 1371.35,-165.38 1373.36,-162.68 1370.91,-163.18 1370.91,-163.18 1370.91,-163.18 1373.36,-162.68 1370.46,-160.97 1375.81,-162.19 1375.81,-162.19"/>
</a>
</g>
</g>
<!-- Node6&#45;&gt;Node9 -->
<g id="edge17_Node000006_Node000009" class="edge">
<title>Node6&#45;&gt;Node9</title>
<g id="a_edge17_Node000006_Node000009"><a xlink:title=" ">
<path fill="none" stroke="#63b8ff" d="M1350.7,-152.6C1235.93,-152.6 1015.15,-152.6 909.36,-152.6"/>
<polygon fill="#63b8ff" stroke="#63b8ff" points="1355.74,-152.6 1350.74,-154.85 1353.24,-152.6 1350.74,-152.6 1350.74,-152.6 1350.74,-152.6 1353.24,-152.6 1350.74,-150.35 1355.74,-152.6 1355.74,-152.6"/>
</a>
</g>
</g>
<!-- Node8 -->
<g id="Node000008" class="node">
<title>Node8</title>
<g id="a_Node000008"><a xlink:href="../../dc/d80/classTabReport.html#afaf0472d1d1a1c9394a8ea3181aee884" target="_top" xlink:title=" ">
<polygon fill="white" stroke="#666666" points="1095.5,-200.1 976.5,-200.1 976.5,-181.1 1095.5,-181.1 1095.5,-200.1"/>
<text text-anchor="middle" x="1036" y="-188.1" font-family="Helvetica,sans-Serif" font-size="10.00">TabReport::joinGame</text>
</a>
</g>
</g>
<!-- Node7&#45;&gt;Node8 -->
<g id="edge7_Node000007_Node000008" class="edge">
<title>Node7&#45;&gt;Node8</title>
<g id="a_edge7_Node000007_Node000008"><a xlink:title=" ">
<path fill="none" stroke="#63b8ff" d="M1150.61,-183.93C1132.16,-183.74 1112.93,-183.89 1095.65,-184.36"/>
<polygon fill="#63b8ff" stroke="#63b8ff" points="1155.79,-183.99 1150.77,-186.18 1153.29,-183.96 1150.79,-183.93 1150.79,-183.93 1150.79,-183.93 1153.29,-183.96 1150.82,-181.68 1155.79,-183.99 1155.79,-183.99"/>
</a>
</g>
</g>
<!-- Node10 -->
<g id="Node000010" class="node">
<title>Node10</title>
<g id="a_Node000010"><a xlink:href="../../dd/d81/classTabSupervisor.html#a9e6c3a12796d9a8605694623e191e6c0" target="_top" xlink:title=" ">
<polygon fill="white" stroke="#666666" points="743,-272.1 579,-272.1 579,-253.1 743,-253.1 743,-272.1"/>
<text text-anchor="middle" x="661" y="-260.1" font-family="Helvetica,sans-Serif" font-size="10.00">TabSupervisor::openTabReport</text>
</a>
</g>
</g>
<!-- Node7&#45;&gt;Node10 -->
<g id="edge16_Node000007_Node000010" class="edge">
<title>Node7&#45;&gt;Node10</title>
<g id="a_edge16_Node000007_Node000010"><a xlink:title=" ">
<path fill="none" stroke="#63b8ff" d="M1174.3,-201.02C1156.87,-203.99 1137.68,-207.09 1120,-209.6 988.45,-228.31 834.93,-245.04 743.24,-254.49"/>
<polygon fill="#63b8ff" stroke="#63b8ff" points="1179.65,-200.11 1175.1,-203.17 1177.19,-200.53 1174.72,-200.95 1174.72,-200.95 1174.72,-200.95 1177.19,-200.53 1174.34,-198.73 1179.65,-200.11 1179.65,-200.11"/>
</a>
</g>
</g>
<!-- Node8&#45;&gt;Node7 -->
<g id="edge8_Node000008_Node000007" class="edge">
<title>Node8&#45;&gt;Node7</title>
<g id="a_edge8_Node000008_Node000007"><a xlink:title=" ">
<path fill="none" stroke="#63b8ff" d="M1101.02,-196.98C1118.52,-197.38 1137.67,-197.46 1155.79,-197.21"/>
<polygon fill="#63b8ff" stroke="#63b8ff" points="1095.65,-196.85 1100.7,-194.72 1098.15,-196.91 1100.65,-196.97 1100.65,-196.97 1100.65,-196.97 1098.15,-196.91 1100.59,-199.22 1095.65,-196.85 1095.65,-196.85"/>
</a>
</g>
</g>
<!-- Node8&#45;&gt;Node9 -->
<g id="edge9_Node000008_Node000009" class="edge">
<title>Node8&#45;&gt;Node9</title>
<g id="a_edge9_Node000008_Node000009"><a xlink:title=" ">
<path fill="none" stroke="#63b8ff" d="M983.29,-179.98C956,-174.38 922.79,-167.55 896.35,-162.12"/>
<polygon fill="#63b8ff" stroke="#63b8ff" points="988.32,-181.01 982.97,-182.21 985.87,-180.51 983.42,-180.01 983.42,-180.01 983.42,-180.01 985.87,-180.51 983.87,-177.8 988.32,-181.01 988.32,-181.01"/>
</a>
</g>
</g>
<!-- Node9&#45;&gt;Node10 -->
<g id="edge10_Node000009_Node000010" class="edge">
<title>Node9&#45;&gt;Node10</title>
<g id="a_edge10_Node000009_Node000010"><a xlink:title=" ">
<path fill="none" stroke="#63b8ff" d="M827.48,-164.73C790.22,-186.77 712.16,-232.94 678.28,-252.98"/>
<polygon fill="#63b8ff" stroke="#63b8ff" points="831.82,-162.17 828.66,-166.65 829.67,-163.44 827.52,-164.72 827.52,-164.72 827.52,-164.72 829.67,-163.44 826.37,-162.78 831.82,-162.17 831.82,-162.17"/>
</a>
</g>
</g>
<!-- Node11 -->
<g id="Node000011" class="node">
<title>Node11</title>
<g id="a_Node000011"><a xlink:href="../../dd/d81/classTabSupervisor.html#a96a6ae74b4982204c5846b398db34894" target="_top" xlink:title=" ">
<polygon fill="white" stroke="#666666" points="537,-307.1 382,-307.1 382,-288.1 537,-288.1 537,-307.1"/>
<text text-anchor="middle" x="459.5" y="-295.1" font-family="Helvetica,sans-Serif" font-size="10.00">TabSupervisor::actTabReport</text>
</a>
</g>
</g>
<!-- Node10&#45;&gt;Node11 -->
<g id="edge11_Node000010_Node000011" class="edge">
<title>Node10&#45;&gt;Node11</title>
<g id="a_edge11_Node000010_Node000011"><a xlink:title=" ">
<path fill="none" stroke="#63b8ff" d="M600.72,-273C573.46,-277.78 541.35,-283.42 514.74,-288.09"/>
<polygon fill="#63b8ff" stroke="#63b8ff" points="605.75,-272.12 601.21,-275.2 603.29,-272.55 600.82,-272.98 600.82,-272.98 600.82,-272.98 603.29,-272.55 600.44,-270.77 605.75,-272.12 605.75,-272.12"/>
</a>
</g>
</g>
<!-- Node14 -->
<g id="Node000014" class="node">
<title>Node14</title>
<g id="a_Node000014"><a xlink:href="../../dd/d81/classTabSupervisor.html#ad642d589fb0d6e39ce3a03e64859bb57" target="_top" xlink:title=" ">
<polygon fill="white" stroke="#666666" points="516,-270.1 403,-270.1 403,-251.1 516,-251.1 516,-270.1"/>
<text text-anchor="middle" x="459.5" y="-258.1" font-family="Helvetica,sans-Serif" font-size="10.00">TabSupervisor::start</text>
</a>
</g>
</g>
<!-- Node10&#45;&gt;Node14 -->
<g id="edge14_Node000010_Node000014" class="edge">
<title>Node10&#45;&gt;Node14</title>
<g id="a_edge14_Node000010_Node000014"><a xlink:title=" ">
<path fill="none" stroke="#63b8ff" d="M573.41,-261.73C554.03,-261.54 533.97,-261.34 516.24,-261.16"/>
<polygon fill="#63b8ff" stroke="#63b8ff" points="578.86,-261.79 573.83,-263.99 576.36,-261.76 573.86,-261.74 573.86,-261.74 573.86,-261.74 576.36,-261.76 573.88,-259.49 578.86,-261.79 578.86,-261.79"/>
</a>
</g>
</g>
<!-- Node12 -->
<g id="Node000012" class="node">
<title>Node12</title>
<g id="a_Node000012"><a xlink:href="../../dd/d81/classTabSupervisor.html#a5e6baf23ec25ba9c7d95138c2b76b234" target="_top" xlink:title=" ">
<polygon fill="white" stroke="#666666" points="343,-308.1 184,-308.1 184,-289.1 343,-289.1 343,-308.1"/>
<text text-anchor="middle" x="263.5" y="-296.1" font-family="Helvetica,sans-Serif" font-size="10.00">TabSupervisor::TabSupervisor</text>
</a>
</g>
</g>
<!-- Node11&#45;&gt;Node12 -->
<g id="edge12_Node000011_Node000012" class="edge">
<title>Node11&#45;&gt;Node12</title>
<g id="a_edge12_Node000011_Node000012"><a xlink:title=" ">
<path fill="none" stroke="#63b8ff" d="M376.74,-298.02C365.62,-298.08 354.23,-298.14 343.16,-298.2"/>
<polygon fill="#63b8ff" stroke="#63b8ff" points="381.83,-298 376.84,-300.27 379.33,-298.01 376.83,-298.02 376.83,-298.02 376.83,-298.02 379.33,-298.01 376.81,-295.77 381.83,-298 381.83,-298"/>
</a>
</g>
</g>
<!-- Node13 -->
<g id="Node000013" class="node">
<title>Node13</title>
<g id="a_Node000013"><a xlink:href="../../d6/d1a/classMainWindow.html#a996c5a2b6f77944776856f08ec30858d" target="_top" xlink:title=" ">
<polygon fill="white" stroke="#666666" points="148,-289.1 0,-289.1 0,-270.1 148,-270.1 148,-289.1"/>
<text text-anchor="middle" x="74" y="-277.1" font-family="Helvetica,sans-Serif" font-size="10.00">MainWindow::MainWindow</text>
</a>
</g>
</g>
<!-- Node12&#45;&gt;Node13 -->
<g id="edge13_Node000012_Node000013" class="edge">
<title>Node12&#45;&gt;Node13</title>
<g id="a_edge13_Node000012_Node000013"><a xlink:title=" ">
<path fill="none" stroke="#63b8ff" d="M178.79,-290.12C168.56,-289.08 158.17,-288.03 148.12,-287.01"/>
<polygon fill="#63b8ff" stroke="#63b8ff" points="183.8,-290.63 178.6,-292.36 181.31,-290.37 178.82,-290.12 178.82,-290.12 178.82,-290.12 181.31,-290.37 179.05,-287.88 183.8,-290.63 183.8,-290.63"/>
</a>
</g>
</g>
<!-- Node14&#45;&gt;Node13 -->
<g id="edge15_Node000014_Node000013" class="edge">
<title>Node14&#45;&gt;Node13</title>
<g id="a_edge15_Node000014_Node000013"><a xlink:title=" ">
<path fill="none" stroke="#63b8ff" d="M397.53,-263.62C329.81,-266.98 220.53,-272.39 148.23,-275.97"/>
<polygon fill="#63b8ff" stroke="#63b8ff" points="402.74,-263.36 397.85,-265.86 400.24,-263.49 397.74,-263.61 397.74,-263.61 397.74,-263.61 400.24,-263.49 397.63,-261.36 402.74,-263.36 402.74,-263.36"/>
</a>
</g>
</g>
<!-- Node15&#45;&gt;Node7 -->
<g id="edge23_Node000015_Node000007" class="edge">
<title>Node15&#45;&gt;Node7</title>
<g id="a_edge23_Node000015_Node000007"><a xlink:title=" ">
<path fill="none" stroke="#63b8ff" d="M1550.36,-258.49C1493.38,-251.84 1414.91,-240.99 1347,-225.6 1344.92,-225.13 1297.68,-210.38 1265.08,-200.18"/>
<polygon fill="#63b8ff" stroke="#63b8ff" points="1555.46,-259.09 1550.23,-260.74 1552.97,-258.8 1550.49,-258.51 1550.49,-258.51 1550.49,-258.51 1552.97,-258.8 1550.75,-256.27 1555.46,-259.09 1555.46,-259.09"/>
</a>
</g>
</g>
<!-- Node16 -->
<g id="Node000016" class="node">
<title>Node16</title>
<g id="a_Node000016"><a xlink:href="../../dc/d80/classTabReport.html#a306952dc3f6afb6b8c2973d8002ba2ef" target="_top" xlink:title=" ">
<polygon fill="white" stroke="#666666" points="1492,-314.1 1357,-314.1 1357,-295.1 1492,-295.1 1492,-314.1"/>
<text text-anchor="middle" x="1424.5" y="-302.1" font-family="Helvetica,sans-Serif" font-size="10.00">TabReport::assignReport</text>
</a>
</g>
</g>
<!-- Node15&#45;&gt;Node16 -->
<g id="edge20_Node000015_Node000016" class="edge">
<title>Node15&#45;&gt;Node16</title>
<g id="a_edge20_Node000015_Node000016"><a xlink:title=" ">
<path fill="none" stroke="#63b8ff" d="M1573.12,-277.1C1542.95,-282.72 1506.08,-289.59 1476.74,-295.06"/>
<polygon fill="#63b8ff" stroke="#63b8ff" points="1578.29,-276.14 1573.78,-279.27 1575.83,-276.6 1573.37,-277.06 1573.37,-277.06 1573.37,-277.06 1575.83,-276.6 1572.96,-274.85 1578.29,-276.14 1578.29,-276.14"/>
</a>
</g>
</g>
<!-- Node16&#45;&gt;Node7 -->
<g id="edge21_Node000016_Node000007" class="edge">
<title>Node16&#45;&gt;Node7</title>
<g id="a_edge21_Node000016_Node000007"><a xlink:title=" ">
<path fill="none" stroke="#63b8ff" d="M1368.84,-293.2C1360.99,-289.99 1353.41,-285.87 1347,-280.6 1321.18,-259.39 1336.82,-235.81 1311,-214.6 1303.26,-208.24 1293.82,-203.56 1284.25,-200.11"/>
<polygon fill="#63b8ff" stroke="#63b8ff" points="1373.75,-295.09 1368.28,-295.4 1371.42,-294.19 1369.08,-293.3 1369.08,-293.3 1369.08,-293.3 1371.42,-294.19 1369.89,-291.2 1373.75,-295.09 1373.75,-295.09"/>
</a>
</g>
</g>
<!-- Node16&#45;&gt;Node9 -->
<g id="edge22_Node000016_Node000009" class="edge">
<title>Node16&#45;&gt;Node9</title>
<g id="a_edge22_Node000016_Node000009"><a xlink:title=" ">
<path fill="none" stroke="#63b8ff" d="M1351.92,-297.19C1257.86,-285.89 1088.57,-260.11 952,-209.6 918.51,-197.22 882.86,-174.92 863.85,-162.19"/>
<polygon fill="#63b8ff" stroke="#63b8ff" points="1356.9,-297.78 1351.67,-299.43 1354.42,-297.49 1351.94,-297.19 1351.94,-297.19 1351.94,-297.19 1354.42,-297.49 1352.2,-294.96 1356.9,-297.78 1356.9,-297.78"/>
</a>
</g>
</g>
<!-- Node17&#45;&gt;Node7 -->
<g id="edge26_Node000017_Node000007" class="edge">
<title>Node17&#45;&gt;Node7</title>
<g id="a_edge26_Node000017_Node000007"><a xlink:title=" ">
<path fill="none" stroke="#63b8ff" d="M1547.77,-111.54C1490.57,-111.45 1412.91,-115.5 1347,-133.6 1309.21,-143.98 1269.26,-167.71 1248.65,-181.05"/>
<polygon fill="#63b8ff" stroke="#63b8ff" points="1552.89,-111.56 1547.88,-113.79 1550.39,-111.55 1547.89,-111.54 1547.89,-111.54 1547.89,-111.54 1550.39,-111.55 1547.9,-109.29 1552.89,-111.56 1552.89,-111.56"/>
</a>
</g>
</g>
<!-- Node18 -->
<g id="Node000018" class="node">
<title>Node18</title>
<g id="a_Node000018"><a xlink:href="../../dc/d80/classTabReport.html#a16caf4cdd82fa8e19636a3c1f5b39fff" target="_top" xlink:title=" ">
<polygon fill="white" stroke="#666666" points="1494.5,-86.1 1354.5,-86.1 1354.5,-67.1 1494.5,-67.1 1494.5,-86.1"/>
<text text-anchor="middle" x="1424.5" y="-74.1" font-family="Helvetica,sans-Serif" font-size="10.00">TabReport::resolveReport</text>
</a>
</g>
</g>
<!-- Node17&#45;&gt;Node18 -->
<g id="edge27_Node000017_Node000018" class="edge">
<title>Node17&#45;&gt;Node18</title>
<g id="a_edge27_Node000017_Node000018"><a xlink:title=" ">
<path fill="none" stroke="#63b8ff" d="M1573.12,-104.1C1542.95,-98.48 1506.08,-91.61 1476.74,-86.15"/>
<polygon fill="#63b8ff" stroke="#63b8ff" points="1578.29,-105.06 1572.96,-106.36 1575.83,-104.6 1573.37,-104.15 1573.37,-104.15 1573.37,-104.15 1575.83,-104.6 1573.78,-101.93 1578.29,-105.06 1578.29,-105.06"/>
</a>
</g>
</g>
<!-- Node18&#45;&gt;Node7 -->
<g id="edge28_Node000018_Node000007" class="edge">
<title>Node18&#45;&gt;Node7</title>
<g id="a_edge28_Node000018_Node000007"><a xlink:title=" ">
<path fill="none" stroke="#63b8ff" d="M1378.59,-87.64C1367.92,-91.08 1356.8,-95.38 1347,-100.6 1304.39,-123.29 1262.09,-162.92 1243.85,-181.06"/>
<polygon fill="#63b8ff" stroke="#63b8ff" points="1383.45,-86.12 1379.36,-89.76 1381.07,-86.87 1378.68,-87.61 1378.68,-87.61 1378.68,-87.61 1381.07,-86.87 1378.01,-85.47 1383.45,-86.12 1383.45,-86.12"/>
</a>
</g>
</g>
<!-- Node18&#45;&gt;Node9 -->
<g id="edge29_Node000018_Node000009" class="edge">
<title>Node18&#45;&gt;Node9</title>
<g id="a_edge29_Node000018_Node000009"><a xlink:title=" ">
<path fill="none" stroke="#63b8ff" d="M1349.25,-86.44C1233.96,-101.72 1014.23,-130.84 909.02,-144.78"/>
<polygon fill="#63b8ff" stroke="#63b8ff" points="1354.32,-85.77 1349.66,-88.66 1351.84,-86.1 1349.37,-86.43 1349.37,-86.43 1349.37,-86.43 1351.84,-86.1 1349.07,-84.2 1354.32,-85.77 1354.32,-85.77"/>
</a>
</g>
</g>
<!-- Node20 -->
<g id="Node000020" class="node">
<title>Node20</title>
<g id="a_Node000020"><a xlink:href="../../d7/dc9/classDlgMyReports.html#a4e2c10a9745565eb4b38e095b6624c21" target="_top" xlink:title=" ">
<polygon fill="white" stroke="#666666" points="2297,-428.1 2154,-428.1 2154,-409.1 2297,-409.1 2297,-428.1"/>
<text text-anchor="middle" x="2225.5" y="-416.1" font-family="Helvetica,sans-Serif" font-size="10.00">DlgMyReports::refreshList</text>
</a>
</g>
</g>
<!-- Node19&#45;&gt;Node20 -->
<g id="edge36_Node000019_Node000020" class="edge">
<title>Node19&#45;&gt;Node20</title>
<g id="a_edge36_Node000019_Node000020"><a xlink:title=" ">
<path fill="none" stroke="#63b8ff" d="M2327.56,-416.28C2317.53,-416.51 2307.24,-416.75 2297.26,-416.98"/>
<polygon fill="#63b8ff" stroke="#63b8ff" points="2332.78,-416.16 2327.84,-418.53 2330.28,-416.22 2327.79,-416.28 2327.79,-416.28 2327.79,-416.28 2330.28,-416.22 2327.73,-414.03 2332.78,-416.16 2332.78,-416.16"/>
</a>
</g>
</g>
<!-- Node21 -->
<g id="Node000021" class="node">
<title>Node21</title>
<g id="a_Node000021"><a xlink:href="../../d7/dc9/classDlgMyReports.html#adba86856590f46355119ab8e441e422a" target="_top" xlink:title=" ">
<polygon fill="white" stroke="#666666" points="2114.5,-476.6 1956.5,-476.6 1956.5,-446.6 2114.5,-446.6 2114.5,-476.6"/>
<text text-anchor="start" x="1964.5" y="-464.6" font-family="Helvetica,sans-Serif" font-size="10.00">DlgMyReports::addComment</text>
<text text-anchor="middle" x="2035.5" y="-453.6" font-family="Helvetica,sans-Serif" font-size="10.00">Response</text>
</a>
</g>
</g>
<!-- Node20&#45;&gt;Node21 -->
<g id="edge37_Node000020_Node000021" class="edge">
<title>Node20&#45;&gt;Node21</title>
<g id="a_edge37_Node000020_Node000021"><a xlink:title=" ">
<path fill="none" stroke="#63b8ff" d="M2177.69,-429.31C2154.86,-434.53 2127.02,-440.9 2102.11,-446.6"/>
<polygon fill="#63b8ff" stroke="#63b8ff" points="2182.78,-428.14 2178.4,-431.45 2180.34,-428.7 2177.9,-429.26 2177.9,-429.26 2177.9,-429.26 2180.34,-428.7 2177.4,-427.07 2182.78,-428.14 2182.78,-428.14"/>
</a>
</g>
</g>
<!-- Node23 -->
<g id="Node000023" class="node">
<title>Node23</title>
<g id="a_Node000023"><a xlink:href="../../d7/dc9/classDlgMyReports.html#acef5296543a75c5608bf838857855514" target="_top" xlink:title=" ">
<polygon fill="white" stroke="#666666" points="1711,-429.1 1550,-429.1 1550,-410.1 1711,-410.1 1711,-429.1"/>
<text text-anchor="middle" x="1630.5" y="-417.1" font-family="Helvetica,sans-Serif" font-size="10.00">DlgMyReports::DlgMyReports</text>
</a>
</g>
</g>
<!-- Node20&#45;&gt;Node23 -->
<g id="edge51_Node000020_Node000023" class="edge">
<title>Node20&#45;&gt;Node23</title>
<g id="a_edge51_Node000020_Node000023"><a xlink:title=" ">
<path fill="none" stroke="#63b8ff" d="M2148.57,-418.73C2035.98,-418.92 1825.77,-419.27 1711.11,-419.47"/>
<polygon fill="#63b8ff" stroke="#63b8ff" points="2153.85,-418.72 2148.86,-420.98 2151.35,-418.72 2148.85,-418.73 2148.85,-418.73 2148.85,-418.73 2151.35,-418.72 2148.85,-416.48 2153.85,-418.72 2153.85,-418.72"/>
</a>
</g>
</g>
<!-- Node22 -->
<g id="Node000022" class="node">
<title>Node22</title>
<g id="a_Node000022"><a xlink:href="../../d7/dc9/classDlgMyReports.html#a311701fd481dcdc8caed6055ead32e15" target="_top" xlink:title=" ">
<polygon fill="white" stroke="#666666" points="1917,-468.1 1759,-468.1 1759,-449.1 1917,-449.1 1917,-468.1"/>
<text text-anchor="middle" x="1838" y="-456.1" font-family="Helvetica,sans-Serif" font-size="10.00">DlgMyReports::addComment</text>
</a>
</g>
</g>
<!-- Node21&#45;&gt;Node22 -->
<g id="edge38_Node000021_Node000022" class="edge">
<title>Node21&#45;&gt;Node22</title>
<g id="a_edge38_Node000021_Node000022"><a xlink:title=" ">
<path fill="none" stroke="#63b8ff" d="M1951.24,-460.32C1939.99,-460.15 1928.47,-459.97 1917.3,-459.8"/>
<polygon fill="#63b8ff" stroke="#63b8ff" points="1956.39,-460.4 1951.36,-462.58 1953.89,-460.36 1951.39,-460.33 1951.39,-460.33 1951.39,-460.33 1953.89,-460.36 1951.43,-458.08 1956.39,-460.4 1956.39,-460.4"/>
</a>
</g>
</g>
<!-- Node22&#45;&gt;Node23 -->
<g id="edge39_Node000022_Node000023" class="edge">
<title>Node22&#45;&gt;Node23</title>
<g id="a_edge39_Node000022_Node000023"><a xlink:title=" ">
<path fill="none" stroke="#63b8ff" d="M1781.79,-448.12C1750.6,-442.2 1711.92,-434.86 1681.61,-429.11"/>
<polygon fill="#63b8ff" stroke="#63b8ff" points="1786.73,-449.06 1781.4,-450.34 1784.27,-448.59 1781.82,-448.13 1781.82,-448.13 1781.82,-448.13 1784.27,-448.59 1782.24,-445.92 1786.73,-449.06 1786.73,-449.06"/>
</a>
</g>
</g>
<!-- Node24 -->
<g id="Node000024" class="node">
<title>Node24</title>
<g id="a_Node000024"><a xlink:href="../../d5/da7/classTabAccount.html#a5c976b832c4d949f3c69f2f627847f94" target="_top" xlink:title=" ">
<polygon fill="white" stroke="#666666" points="1502,-429.1 1347,-429.1 1347,-410.1 1502,-410.1 1502,-429.1"/>
<text text-anchor="middle" x="1424.5" y="-417.1" font-family="Helvetica,sans-Serif" font-size="10.00">TabAccount::openMyReports</text>
</a>
</g>
</g>
<!-- Node23&#45;&gt;Node24 -->
<g id="edge40_Node000023_Node000024" class="edge">
<title>Node23&#45;&gt;Node24</title>
<g id="a_edge40_Node000023_Node000024"><a xlink:title=" ">
<path fill="none" stroke="#63b8ff" d="M1544.59,-419.6C1530.53,-419.6 1516.03,-419.6 1502.19,-419.6"/>
<polygon fill="#63b8ff" stroke="#63b8ff" points="1549.75,-419.6 1544.75,-421.85 1547.25,-419.6 1544.75,-419.6 1544.75,-419.6 1544.75,-419.6 1547.25,-419.6 1544.75,-417.35 1549.75,-419.6 1549.75,-419.6"/>
</a>
</g>
</g>
<!-- Node25 -->
<g id="Node000025" class="node">
<title>Node25</title>
<g id="a_Node000025"><a xlink:href="../../d5/da7/classTabAccount.html#a60c2fa0c4dd7cf1c419907712aa90068" target="_top" xlink:title=" ">
<polygon fill="white" stroke="#666666" points="916,-386.1 782,-386.1 782,-367.1 916,-367.1 916,-386.1"/>
<text text-anchor="middle" x="849" y="-374.1" font-family="Helvetica,sans-Serif" font-size="10.00">TabAccount::TabAccount</text>
</a>
</g>
</g>
<!-- Node24&#45;&gt;Node25 -->
<g id="edge41_Node000024_Node000025" class="edge">
<title>Node24&#45;&gt;Node25</title>
<g id="a_edge41_Node000024_Node000025"><a xlink:title=" ">
<path fill="none" stroke="#63b8ff" d="M1341.75,-421.02C1247.39,-421.56 1087.76,-419.14 952,-400.6 928.75,-397.43 903.03,-391.36 883.23,-386.12"/>
<polygon fill="#63b8ff" stroke="#63b8ff" points="1346.75,-420.98 1341.76,-423.27 1344.25,-421 1341.75,-421.02 1341.75,-421.02 1341.75,-421.02 1344.25,-421 1341.74,-418.77 1346.75,-420.98 1346.75,-420.98"/>
</a>
</g>
</g>
<!-- Node28 -->
<g id="Node000028" class="node">
<title>Node28</title>
<g id="a_Node000028"><a xlink:href="../../d5/da7/classTabAccount.html#abd92e3c3f92a95649bd9ae6d0ac42a5a" target="_top" xlink:title=" ">
<polygon fill="white" stroke="#666666" points="1298,-386.1 1169,-386.1 1169,-367.1 1298,-367.1 1298,-386.1"/>
<text text-anchor="middle" x="1233.5" y="-374.1" font-family="Helvetica,sans-Serif" font-size="10.00">TabAccount::userJoined</text>
</a>
</g>
</g>
<!-- Node24&#45;&gt;Node28 -->
<g id="edge46_Node000024_Node000028" class="edge">
<title>Node24&#45;&gt;Node28</title>
<g id="a_edge46_Node000024_Node000028"><a xlink:title=" ">
<path fill="none" stroke="#63b8ff" d="M1376.32,-408.87C1345.61,-401.88 1305.91,-392.85 1276.33,-386.12"/>
<polygon fill="#63b8ff" stroke="#63b8ff" points="1381.55,-410.06 1376.18,-411.14 1379.12,-409.5 1376.68,-408.95 1376.68,-408.95 1376.68,-408.95 1379.12,-409.5 1377.18,-406.75 1381.55,-410.06 1381.55,-410.06"/>
</a>
</g>
</g>
<!-- Node26 -->
<g id="Node000026" class="node">
<title>Node26</title>
<g id="a_Node000026"><a xlink:href="../../dd/d81/classTabSupervisor.html#a8b4424063730242eb74c7dca4350ad87" target="_top" xlink:title=" ">
<polygon fill="white" stroke="#666666" points="746,-343.1 576,-343.1 576,-324.1 746,-324.1 746,-343.1"/>
<text text-anchor="middle" x="661" y="-331.1" font-family="Helvetica,sans-Serif" font-size="10.00">TabSupervisor::openTabAccount</text>
</a>
</g>
</g>
<!-- Node25&#45;&gt;Node26 -->
<g id="edge42_Node000025_Node000026" class="edge">
<title>Node25&#45;&gt;Node26</title>
<g id="a_edge42_Node000025_Node000026"><a xlink:title=" ">
<path fill="none" stroke="#63b8ff" d="M801.57,-365.87C771.34,-358.88 732.28,-349.85 703.16,-343.12"/>
<polygon fill="#63b8ff" stroke="#63b8ff" points="806.72,-367.06 801.34,-368.12 804.28,-366.5 801.85,-365.93 801.85,-365.93 801.85,-365.93 804.28,-366.5 802.36,-363.74 806.72,-367.06 806.72,-367.06"/>
</a>
</g>
</g>
<!-- Node26&#45;&gt;Node14 -->
<g id="edge45_Node000026_Node000014" class="edge">
<title>Node26&#45;&gt;Node14</title>
<g id="a_edge45_Node000026_Node000014"><a xlink:title=" ">
<path fill="none" stroke="#63b8ff" d="M637.18,-321.77C613.42,-309.83 574.87,-291.49 540,-279.6 529.52,-276.03 518.05,-272.87 507.16,-270.2"/>
<polygon fill="#63b8ff" stroke="#63b8ff" points="641.73,-324.07 636.25,-323.82 639.5,-322.94 637.27,-321.82 637.27,-321.82 637.27,-321.82 639.5,-322.94 638.28,-319.81 641.73,-324.07 641.73,-324.07"/>
</a>
</g>
</g>
<!-- Node27 -->
<g id="Node000027" class="node">
<title>Node27</title>
<g id="a_Node000027"><a xlink:href="../../dd/d81/classTabSupervisor.html#a5b37731257df2678392e44fc53bc8f23" target="_top" xlink:title=" ">
<polygon fill="white" stroke="#666666" points="540,-344.1 379,-344.1 379,-325.1 540,-325.1 540,-344.1"/>
<text text-anchor="middle" x="459.5" y="-332.1" font-family="Helvetica,sans-Serif" font-size="10.00">TabSupervisor::actTabAccount</text>
</a>
</g>
</g>
<!-- Node26&#45;&gt;Node27 -->
<g id="edge43_Node000026_Node000027" class="edge">
<title>Node26&#45;&gt;Node27</title>
<g id="a_edge43_Node000026_Node000027"><a xlink:title=" ">
<path fill="none" stroke="#63b8ff" d="M570.97,-334.05C560.75,-334.1 550.38,-334.15 540.29,-334.2"/>
<polygon fill="#63b8ff" stroke="#63b8ff" points="575.97,-334.02 570.98,-336.3 573.47,-334.04 570.97,-334.05 570.97,-334.05 570.97,-334.05 573.47,-334.04 570.96,-331.8 575.97,-334.02 575.97,-334.02"/>
</a>
</g>
</g>
<!-- Node27&#45;&gt;Node12 -->
<g id="edge44_Node000027_Node000012" class="edge">
<title>Node27&#45;&gt;Node12</title>
<g id="a_edge44_Node000027_Node000012"><a xlink:title=" ">
<path fill="none" stroke="#63b8ff" d="M402.26,-324.16C375.04,-319.11 342.58,-313.09 316.01,-308.16"/>
<polygon fill="#63b8ff" stroke="#63b8ff" points="407.28,-325.1 401.95,-326.4 404.82,-324.64 402.36,-324.18 402.36,-324.18 402.36,-324.18 404.82,-324.64 402.77,-321.97 407.28,-325.1 407.28,-325.1"/>
</a>
</g>
</g>
<!-- Node28&#45;&gt;Node26 -->
<g id="edge47_Node000028_Node000026" class="edge">
<title>Node28&#45;&gt;Node26</title>
<g id="a_edge47_Node000028_Node000026"><a xlink:title=" ">
<path fill="none" stroke="#63b8ff" d="M1190.56,-365.9C1169.53,-360.98 1143.57,-355.58 1120,-352.6 990.32,-336.2 838.51,-333.02 746.35,-332.85"/>
<polygon fill="#63b8ff" stroke="#63b8ff" points="1195.53,-367.07 1190.14,-368.11 1193.09,-366.49 1190.66,-365.92 1190.66,-365.92 1190.66,-365.92 1193.09,-366.49 1191.18,-363.73 1195.53,-367.07 1195.53,-367.07"/>
</a>
</g>
</g>
<!-- Node29 -->
<g id="Node000029" class="node">
<title>Node29</title>
<g id="a_Node000029"><a xlink:href="../../d5/da7/classTabAccount.html#af9f2b2f47ca3bb01313b34f5688f581f" target="_top" xlink:title=" ">
<polygon fill="white" stroke="#666666" points="1120,-391.6 952,-391.6 952,-361.6 1120,-361.6 1120,-391.6"/>
<text text-anchor="start" x="960" y="-379.6" font-family="Helvetica,sans-Serif" font-size="10.00">TabAccount::processUserJoined</text>
<text text-anchor="middle" x="1036" y="-368.6" font-family="Helvetica,sans-Serif" font-size="10.00">Event</text>
</a>
</g>
</g>
<!-- Node28&#45;&gt;Node29 -->
<g id="edge48_Node000028_Node000029" class="edge">
<title>Node28&#45;&gt;Node29</title>
<g id="a_edge48_Node000028_Node000029"><a xlink:title=" ">
<path fill="none" stroke="#63b8ff" d="M1163.63,-370.12C1149.6,-369.85 1134.7,-369.78 1120.24,-369.92"/>
<polygon fill="#63b8ff" stroke="#63b8ff" points="1168.76,-370.23 1163.71,-372.37 1166.26,-370.18 1163.76,-370.12 1163.76,-370.12 1163.76,-370.12 1166.26,-370.18 1163.81,-367.87 1168.76,-370.23 1168.76,-370.23"/>
</a>
</g>
</g>
<!-- Node29&#45;&gt;Node25 -->
<g id="edge49_Node000029_Node000025" class="edge">
<title>Node29&#45;&gt;Node25</title>
<g id="a_edge49_Node000029_Node000025"><a xlink:title=" ">
<path fill="none" stroke="#63b8ff" d="M946.89,-376.6C936.54,-376.6 926.11,-376.6 916.12,-376.6"/>
<polygon fill="#63b8ff" stroke="#63b8ff" points="951.97,-376.6 946.97,-378.85 949.47,-376.6 946.97,-376.6 946.97,-376.6 946.97,-376.6 949.47,-376.6 946.97,-374.35 951.97,-376.6 951.97,-376.6"/>
</a>
</g>
</g>
<!-- Node29&#45;&gt;Node28 -->
<g id="edge50_Node000029_Node000028" class="edge">
<title>Node29&#45;&gt;Node28</title>
<g id="a_edge50_Node000029_Node000028"><a xlink:title=" ">
<path fill="none" stroke="#63b8ff" d="M1125.58,-383.32C1140.14,-383.41 1154.96,-383.29 1168.76,-382.97"/>
<polygon fill="#63b8ff" stroke="#63b8ff" points="1120.24,-383.28 1125.25,-381.07 1122.74,-383.3 1125.24,-383.32 1125.24,-383.32 1125.24,-383.32 1122.74,-383.3 1125.22,-385.57 1120.24,-383.28 1120.24,-383.28"/>
</a>
</g>
</g>
</g>
</svg>
