<?xml version="1.0" encoding="UTF-8" standalone="no"?>
<!DOCTYPE svg PUBLIC "-//W3C//DTD SVG 1.1//EN"
 "http://www.w3.org/Graphics/SVG/1.1/DTD/svg11.dtd">
<!-- Generated by graphviz version 2.43.0 (0)
 -->
<!-- Title: SetsModel::data Pages: 1 -->
<svg width="616pt" height="64pt"
 viewBox="0.00 0.00 616.00 64.00" xmlns="http://www.w3.org/2000/svg" xmlns:xlink="http://www.w3.org/1999/xlink">
<g id="graph0" class="graph" transform="scale(1 1) rotate(0) translate(4 60)">
<title>SetsModel::data</title>
<!-- Node1 -->
<g id="Node000001" class="node">
<title>Node1</title>
<g id="a_Node000001"><a xlink:title=" ">
<polygon fill="#999999" stroke="#666666" points="608,-37 513,-37 513,-18 608,-18 608,-37"/>
<text text-anchor="middle" x="560.5" y="-25" font-family="Helvetica,sans-Serif" font-size="10.00">SetsModel::data</text>
</a>
</g>
</g>
<!-- Node2 -->
<g id="Node000002" class="node">
<title>Node2</title>
<g id="a_Node000002"><a xlink:href="../../da/d64/classSetsModel.html#aaf27a8fca944e11a5f811ecc322b94ec" target="_top" xlink:title=" ">
<polygon fill="white" stroke="#666666" points="477,-56 331,-56 331,-37 477,-37 477,-56"/>
<text text-anchor="middle" x="404" y="-44" font-family="Helvetica,sans-Serif" font-size="10.00">SetsModel::dropMimeData</text>
</a>
</g>
</g>
<!-- Node1&#45;&gt;Node2 -->
<g id="edge1_Node000001_Node000002" class="edge">
<title>Node1&#45;&gt;Node2</title>
<g id="a_edge1_Node000001_Node000002"><a xlink:title=" ">
<path fill="none" stroke="#63b8ff" d="M507.68,-33.87C497.91,-35.07 487.54,-36.35 477.28,-37.61"/>
<polygon fill="#63b8ff" stroke="#63b8ff" points="512.73,-33.25 508.04,-36.1 510.24,-33.56 507.76,-33.86 507.76,-33.86 507.76,-33.86 510.24,-33.56 507.49,-31.63 512.73,-33.25 512.73,-33.25"/>
</a>
</g>
</g>
<!-- Node3 -->
<g id="Node000003" class="node">
<title>Node3</title>
<g id="a_Node000003"><a xlink:href="../../da/d64/classSetsModel.html#abcb3b3dba66b53b0275586c40474877e" target="_top" xlink:title=" ">
<polygon fill="white" stroke="#666666" points="450,-19 358,-19 358,0 450,0 450,-19"/>
<text text-anchor="middle" x="404" y="-7" font-family="Helvetica,sans-Serif" font-size="10.00">SetsModel::sort</text>
</a>
</g>
</g>
<!-- Node1&#45;&gt;Node3 -->
<g id="edge2_Node000001_Node000003" class="edge">
<title>Node1&#45;&gt;Node3</title>
<g id="a_edge2_Node000001_Node000003"><a xlink:title=" ">
<path fill="none" stroke="#63b8ff" d="M507.53,-21.45C488.88,-19.27 468.03,-16.84 450.03,-14.75"/>
<polygon fill="#63b8ff" stroke="#63b8ff" points="512.73,-22.05 507.5,-23.71 510.24,-21.76 507.76,-21.47 507.76,-21.47 507.76,-21.47 510.24,-21.76 508.02,-19.24 512.73,-22.05 512.73,-22.05"/>
</a>
</g>
</g>
<!-- Node4 -->
<g id="Node000004" class="node">
<title>Node4</title>
<g id="a_Node000004"><a xlink:href="../../dd/d67/classWndSets.html#a3b0d6a02e7168cae4b5e3eeb177d5990" target="_top" xlink:title=" ">
<polygon fill="white" stroke="#666666" points="295,-19 144,-19 144,0 295,0 295,-19"/>
<text text-anchor="middle" x="219.5" y="-7" font-family="Helvetica,sans-Serif" font-size="10.00">WndSets::actIgnoreWarning</text>
</a>
</g>
</g>
<!-- Node3&#45;&gt;Node4 -->
<g id="edge3_Node000003_Node000004" class="edge">
<title>Node3&#45;&gt;Node4</title>
<g id="a_edge3_Node000003_Node000004"><a xlink:title=" ">
<path fill="none" stroke="#63b8ff" d="M352.48,-9.5C334.79,-9.5 314.53,-9.5 295.27,-9.5"/>
<polygon fill="#63b8ff" stroke="#63b8ff" points="357.89,-9.5 352.89,-11.75 355.39,-9.5 352.89,-9.5 352.89,-9.5 352.89,-9.5 355.39,-9.5 352.89,-7.25 357.89,-9.5 357.89,-9.5"/>
</a>
</g>
</g>
<!-- Node5 -->
<g id="Node000005" class="node">
<title>Node5</title>
<g id="a_Node000005"><a xlink:href="../../dd/d67/classWndSets.html#a6aee1034f70433489bcb5f175a2c45e2" target="_top" xlink:title=" ">
<polygon fill="white" stroke="#666666" points="108,-19 0,-19 0,0 108,0 108,-19"/>
<text text-anchor="middle" x="54" y="-7" font-family="Helvetica,sans-Serif" font-size="10.00">WndSets::WndSets</text>
</a>
</g>
</g>
<!-- Node4&#45;&gt;Node5 -->
<g id="edge4_Node000004_Node000005" class="edge">
<title>Node4&#45;&gt;Node5</title>
<g id="a_edge4_Node000004_Node000005"><a xlink:title=" ">
<path fill="none" stroke="#63b8ff" d="M138.87,-9.5C128.56,-9.5 118.21,-9.5 108.46,-9.5"/>
<polygon fill="#63b8ff" stroke="#63b8ff" points="143.93,-9.5 138.93,-11.75 141.43,-9.5 138.93,-9.5 138.93,-9.5 138.93,-9.5 141.43,-9.5 138.93,-7.25 143.93,-9.5 143.93,-9.5"/>
</a>
</g>
</g>
</g>
</svg>
