<?xml version="1.0" encoding="UTF-8" standalone="no"?>
<!DOCTYPE svg PUBLIC "-//W3C//DTD SVG 1.1//EN"
 "http://www.w3.org/Graphics/SVG/1.1/DTD/svg11.dtd">
<!-- Generated by graphviz version 2.43.0 (0)
 -->
<!-- Title: DropdownIconPixmapGenerator::generatePixmap Pages: 1 -->
<!--zoomable 130 -->

<svg id="main" version="1.1" xmlns="http://www.w3.org/2000/svg" xmlns:xlink="http://www.w3.org/1999/xlink" xml:space="preserve" onload="init(evt)">

<style type="text/css"><![CDATA[
.node, .edge {opacity: 0.7;}
.node.selected, .edge.selected {opacity: 1;}
.edge:hover path { stroke: red; }
.edge:hover polygon { stroke: red; fill: red; }
]]></style>

<defs>
  <circle id="rim" cx="0" cy="0" r="7"/>
  <circle id="rim2" cx="0" cy="0" r="3.5"/>
  <g id="zoomPlus">
    <use xlink:href="#rim" fill="#404040"><set attributeName="fill" to="#808080" begin="zoomplus.mouseover" end="zoomplus.mouseout"/></use>
    <path d="M-4,0h8M0,-4v8" fill="none" stroke="white" stroke-width="1.5" pointer-events="none"/>
  </g>
  <g id="zoomMin">
    <use xlink:href="#rim" fill="#404040"><set attributeName="fill" to="#808080" begin="zoomminus.mouseover" end="zoomminus.mouseout"/></use>
    <path d="M-4,0h8" fill="none" stroke="white" stroke-width="1.5" pointer-events="none"/>
  </g>
  <g id="arrowUp" transform="translate(30 24)">
    <use xlink:href="#rim"/>
    <path pointer-events="none" fill="none" stroke="white" stroke-width="1.5" d="M0,-3.0v7 M-2.5,-0.5L0,-3.0L2.5,-0.5"/>
  </g>
  <g id="arrowRight" transform="rotate(90) translate(36 -43)">
    <use xlink:href="#rim"/>
    <path pointer-events="none" fill="none" stroke="white" stroke-width="1.5" d="M0,-3.0v7 M-2.5,-0.5L0,-3.0L2.5,-0.5"/>
  </g>
  <g id="arrowDown" transform="rotate(180) translate(-30 -48)">
    <use xlink:href="#rim"/>
    <path pointer-events="none" fill="none" stroke="white" stroke-width="1.5" d="M0,-3.0v7 M-2.5,-0.5L0,-3.0L2.5,-0.5"/>
  </g>
  <g id="arrowLeft" transform="rotate(270) translate(-36 17)">
    <use xlink:href="#rim"/>
    <path pointer-events="none" fill="none" stroke="white" stroke-width="1.5" d="M0,-3.0v7 M-2.5,-0.5L0,-3.0L2.5,-0.5"/>
  </g>
  <g id="resetDef">
    <use xlink:href="#rim2" fill="#404040"><set attributeName="fill" to="#808080" begin="reset.mouseover" end="reset.mouseout"/></use>
  </g>
</defs>
<script type="application/ecmascript">
var viewWidth = 777;
var viewHeight = 130;
var sectionId = 'dynsection-1';
</script>
<script type="application/ecmascript" xlink:href="../../svg.min.js"/>
<svg id="graph" class="graph">
<g id="viewport">
<title>DropdownIconPixmapGenerator::generatePixmap</title>
<!-- Node1 -->
<g id="Node000001" class="node">
<title>Node1</title>
<g id="a_Node000001"><a xlink:title=" ">
<polygon fill="#999999" stroke="#666666" points="769,-91 597,-91 597,-61 769,-61 769,-91"/>
<text text-anchor="start" x="605" y="-79" font-family="Helvetica,sans-Serif" font-size="10.00">DropdownIconPixmapGenerator</text>
<text text-anchor="middle" x="683" y="-68" font-family="Helvetica,sans-Serif" font-size="10.00">::generatePixmap</text>
</a>
</g>
</g>
<!-- Node2 -->
<g id="Node000002" class="node">
<title>Node2</title>
<g id="a_Node000002"><a xlink:href="../../d2/d73/classBannerWidget.html#aeb4062833daba24f5b56470482a7e901" target="_top" xlink:title=" ">
<polygon fill="white" stroke="#666666" points="561,-91 386,-91 386,-61 561,-61 561,-91"/>
<text text-anchor="start" x="394" y="-79" font-family="Helvetica,sans-Serif" font-size="10.00">BannerWidget::updateDropdown</text>
<text text-anchor="middle" x="473.5" y="-68" font-family="Helvetica,sans-Serif" font-size="10.00">IconState</text>
</a>
</g>
</g>
<!-- Node1&#45;&gt;Node2 -->
<g id="edge1_Node000001_Node000002" class="edge">
<title>Node1&#45;&gt;Node2</title>
<g id="a_edge1_Node000001_Node000002"><a xlink:title=" ">
<path fill="none" stroke="#63b8ff" d="M591.46,-76C581.39,-76 571.16,-76 561.14,-76"/>
<polygon fill="#63b8ff" stroke="#63b8ff" points="596.7,-76 591.7,-78.25 594.2,-76 591.7,-76 591.7,-76 591.7,-76 594.2,-76 591.7,-73.75 596.7,-76 596.7,-76"/>
</a>
</g>
</g>
<!-- Node3 -->
<g id="Node000003" class="node">
<title>Node3</title>
<g id="a_Node000003"><a xlink:href="../../d2/d73/classBannerWidget.html#a06a7bf014a4042d990455902b97a0e49" target="_top" xlink:title=" ">
<polygon fill="white" stroke="#666666" points="161,-83.5 0,-83.5 0,-64.5 161,-64.5 161,-83.5"/>
<text text-anchor="middle" x="80.5" y="-71.5" font-family="Helvetica,sans-Serif" font-size="10.00">BannerWidget::BannerWidget</text>
</a>
</g>
</g>
<!-- Node2&#45;&gt;Node3 -->
<g id="edge2_Node000002_Node000003" class="edge">
<title>Node2&#45;&gt;Node3</title>
<g id="a_edge2_Node000002_Node000003"><a xlink:title=" ">
<path fill="none" stroke="#63b8ff" d="M429.72,-92.74C406.53,-100.93 377.13,-109.89 350,-114 282.77,-124.19 264.06,-125.28 197,-114 162.68,-108.23 124.93,-93.43 102.23,-83.55"/>
<polygon fill="#63b8ff" stroke="#63b8ff" points="434.57,-91.01 430.62,-94.81 432.22,-91.85 429.87,-92.69 429.87,-92.69 429.87,-92.69 432.22,-91.85 429.11,-90.57 434.57,-91.01 434.57,-91.01"/>
</a>
</g>
</g>
<!-- Node4 -->
<g id="Node000004" class="node">
<title>Node4</title>
<g id="a_Node000004"><a xlink:href="../../d2/d73/classBannerWidget.html#af27bff074e5a4fead79db9ad33394361" target="_top" xlink:title=" ">
<polygon fill="white" stroke="#666666" points="342,-104.5 205,-104.5 205,-85.5 342,-85.5 342,-104.5"/>
<text text-anchor="middle" x="273.5" y="-92.5" font-family="Helvetica,sans-Serif" font-size="10.00">BannerWidget::setBuddy</text>
</a>
</g>
</g>
<!-- Node2&#45;&gt;Node4 -->
<g id="edge3_Node000002_Node000004" class="edge">
<title>Node2&#45;&gt;Node4</title>
<g id="a_edge3_Node000002_Node000004"><a xlink:title=" ">
<path fill="none" stroke="#63b8ff" d="M380.77,-84.8C367.76,-86.05 354.58,-87.32 342.13,-88.51"/>
<polygon fill="#63b8ff" stroke="#63b8ff" points="385.94,-84.31 381.18,-87.02 383.45,-84.54 380.97,-84.78 380.97,-84.78 380.97,-84.78 383.45,-84.54 380.75,-82.54 385.94,-84.31 385.94,-84.31"/>
</a>
</g>
</g>
<!-- Node5 -->
<g id="Node000005" class="node">
<title>Node5</title>
<g id="a_Node000005"><a xlink:href="../../d2/d73/classBannerWidget.html#ae9d52a59e93a6a0f1189e67fc2a3cb8b" target="_top" xlink:title=" ">
<polygon fill="white" stroke="#666666" points="349,-67.5 198,-67.5 198,-48.5 349,-48.5 349,-67.5"/>
<text text-anchor="middle" x="273.5" y="-55.5" font-family="Helvetica,sans-Serif" font-size="10.00">BannerWidget::setClickable</text>
</a>
</g>
</g>
<!-- Node2&#45;&gt;Node5 -->
<g id="edge4_Node000002_Node000005" class="edge">
<title>Node2&#45;&gt;Node5</title>
<g id="a_edge4_Node000002_Node000005"><a xlink:title=" ">
<path fill="none" stroke="#63b8ff" d="M380.75,-67.66C370.15,-66.7 359.43,-65.72 349.1,-64.78"/>
<polygon fill="#63b8ff" stroke="#63b8ff" points="385.94,-68.13 380.76,-69.92 383.45,-67.9 380.96,-67.68 380.96,-67.68 380.96,-67.68 383.45,-67.9 381.17,-65.44 385.94,-68.13 385.94,-68.13"/>
</a>
</g>
</g>
<!-- Node6 -->
<g id="Node000006" class="node">
<title>Node6</title>
<g id="a_Node000006"><a xlink:href="../../d2/d73/classBannerWidget.html#ac5582c6ffa45687eafaa7080bc52cb9d" target="_top" xlink:title=" ">
<polygon fill="white" stroke="#666666" points="350,-30 197,-30 197,0 350,0 350,-30"/>
<text text-anchor="start" x="205" y="-18" font-family="Helvetica,sans-Serif" font-size="10.00">BannerWidget::toggleBuddy</text>
<text text-anchor="middle" x="273.5" y="-7" font-family="Helvetica,sans-Serif" font-size="10.00">Visibility</text>
</a>
</g>
</g>
<!-- Node2&#45;&gt;Node6 -->
<g id="edge5_Node000002_Node000006" class="edge">
<title>Node2&#45;&gt;Node6</title>
<g id="a_edge5_Node000002_Node000006"><a xlink:title=" ">
<path fill="none" stroke="#63b8ff" d="M418.72,-59.43C388.97,-50.26 352.27,-38.96 323.35,-30.05"/>
<polygon fill="#63b8ff" stroke="#63b8ff" points="423.81,-61 418.37,-61.68 421.42,-60.26 419.03,-59.53 419.03,-59.53 419.03,-59.53 421.42,-60.26 419.69,-57.38 423.81,-61 423.81,-61"/>
</a>
</g>
</g>
<!-- Node6&#45;&gt;Node3 -->
<g id="edge6_Node000006_Node000003" class="edge">
<title>Node6&#45;&gt;Node3</title>
<g id="a_edge6_Node000006_Node000003"><a xlink:title=" ">
<path fill="none" stroke="#63b8ff" d="M218.81,-31.58C184.48,-42.19 141.16,-55.57 112.46,-64.44"/>
<polygon fill="#63b8ff" stroke="#63b8ff" points="223.81,-30.04 219.7,-33.67 221.42,-30.78 219.03,-31.52 219.03,-31.52 219.03,-31.52 221.42,-30.78 218.37,-29.37 223.81,-30.04 223.81,-30.04"/>
</a>
</g>
</g>
</g>
</svg>

<g id="navigator" transform="translate(0 0)" fill="#404254">
  <rect fill="#f2f5e9" fill-opacity="0.5" stroke="#606060" stroke-width=".5" x="0" y="0" width="60" height="60"/>
  <use id="zoomplus" xlink:href="#zoomPlus" x="17" y="9" onmousedown="handleZoom(evt,'in')"/>
  <use id="zoomminus" xlink:href="#zoomMin" x="42" y="9" onmousedown="handleZoom(evt,'out')"/>
  <use id="reset" xlink:href="#resetDef" x="30" y="36" onmousedown="handleReset()"/>
   <use id="arrowup" xlink:href="#arrowUp" x="0" y="0" onmousedown="handlePan(0,-1)"/>
  <use id="arrowright" xlink:href="#arrowRight" x="0" y="0" onmousedown="handlePan(1,0)"/>
  <use id="arrowdown" xlink:href="#arrowDown" x="0" y="0" onmousedown="handlePan(0,1)"/>
  <use id="arrowleft" xlink:href="#arrowLeft" x="0" y="0" onmousedown="handlePan(-1,0)"/>
</g>
<svg viewBox="0 0 15 15" width="100%" height="30px" preserveAspectRatio="xMaxYMin meet">
 <g id="arrow_out" transform="scale(0.3 0.3)">
  <a xlink:href="classDropdownIconPixmapGenerator_a59d319283c8059296693ef27e17ef08a_icgraph_org.svg" target="_base">
   <rect id="button" ry="5" rx="5" y="6" x="6" height="38" width="38"
        fill="#f2f5e9" fill-opacity="0.5" stroke="#606060" stroke-width="1.0"/>
   <path id="arrow"
     d="M 11.500037,31.436501 C 11.940474,20.09759 22.043105,11.32322 32.158766,21.979434 L 37.068811,17.246167 C 37.068811,17.246167 37.088388,32 37.088388,32 L 22.160133,31.978069 C 22.160133,31.978069 26.997745,27.140456 26.997745,27.140456 C 18.528582,18.264221 13.291696,25.230495 11.500037,31.436501 z"
     style="fill:#404040;"/>
  </a>
 </g>
</svg>

<style type='text/css'>
<![CDATA[
[data-mouse-over-selected='false'] { opacity: 0.7; }
[data-mouse-over-selected='true']  { opacity: 1.0; }
]]>
</style>
<script type="application/ecmascript"><![CDATA[
document.addEventListener('DOMContentLoaded', (event) => {
  highlightEdges();
  highlightAdjacentNodes();
});
]]></script>
</svg>
