<?xml version="1.0" encoding="UTF-8" standalone="no"?>
<!DOCTYPE svg PUBLIC "-//W3C//DTD SVG 1.1//EN"
 "http://www.w3.org/Graphics/SVG/1.1/DTD/svg11.dtd">
<!-- Generated by graphviz version 2.43.0 (0)
 -->
<!-- Title: cockatrice/src/utility/deck_list_sort_filter_proxy_model.h Pages: 1 -->
<!--zoomable 500 -->

<svg id="main" version="1.1" xmlns="http://www.w3.org/2000/svg" xmlns:xlink="http://www.w3.org/1999/xlink" xml:space="preserve" onload="init(evt)">
<style type="text/css"><![CDATA[
.node, .edge {opacity: 0.7;}
.node.selected, .edge.selected {opacity: 1;}
.edge:hover path { stroke: red; }
.edge:hover polygon { stroke: red; fill: red; }
]]></style>

<defs>
  <circle id="rim" cx="0" cy="0" r="7"/>
  <circle id="rim2" cx="0" cy="0" r="3.5"/>
  <g id="zoomPlus">
    <use xlink:href="#rim" fill="#404040"><set attributeName="fill" to="#808080" begin="zoomplus.mouseover" end="zoomplus.mouseout"/></use>
    <path d="M-4,0h8M0,-4v8" fill="none" stroke="white" stroke-width="1.5" pointer-events="none"/>
  </g>
  <g id="zoomMin">
    <use xlink:href="#rim" fill="#404040"><set attributeName="fill" to="#808080" begin="zoomminus.mouseover" end="zoomminus.mouseout"/></use>
    <path d="M-4,0h8" fill="none" stroke="white" stroke-width="1.5" pointer-events="none"/>
  </g>
  <g id="arrowUp" transform="translate(30 24)">
    <use xlink:href="#rim"/>
    <path pointer-events="none" fill="none" stroke="white" stroke-width="1.5" d="M0,-3.0v7 M-2.5,-0.5L0,-3.0L2.5,-0.5"/>
  </g>
  <g id="arrowRight" transform="rotate(90) translate(36 -43)">
    <use xlink:href="#rim"/>
    <path pointer-events="none" fill="none" stroke="white" stroke-width="1.5" d="M0,-3.0v7 M-2.5,-0.5L0,-3.0L2.5,-0.5"/>
  </g>
  <g id="arrowDown" transform="rotate(180) translate(-30 -48)">
    <use xlink:href="#rim"/>
    <path pointer-events="none" fill="none" stroke="white" stroke-width="1.5" d="M0,-3.0v7 M-2.5,-0.5L0,-3.0L2.5,-0.5"/>
  </g>
  <g id="arrowLeft" transform="rotate(270) translate(-36 17)">
    <use xlink:href="#rim"/>
    <path pointer-events="none" fill="none" stroke="white" stroke-width="1.5" d="M0,-3.0v7 M-2.5,-0.5L0,-3.0L2.5,-0.5"/>
  </g>
  <g id="resetDef">
    <use xlink:href="#rim2" fill="#404040"><set attributeName="fill" to="#808080" begin="reset.mouseover" end="reset.mouseout"/></use>
  </g>
</defs>
<script type="application/ecmascript">
var viewWidth = 1024;
var viewHeight = 500;
var sectionId = 'dynsection-0';
</script>
<script type="application/ecmascript" xlink:href="../../svg.min.js"/>
<svg id="graph" class="graph">
<g id="viewport">
<title>cockatrice/src/utility/deck_list_sort_filter_proxy_model.h</title>
<!-- Node1 -->
<g id="Node000001" class="node">
<title>Node1</title>
<g id="a_Node000001"><a xlink:title="TODO: Document this.">
<polygon fill="#999999" stroke="#666666" points="702.5,-492 587.5,-492 587.5,-451 702.5,-451 702.5,-492"/>
<text text-anchor="start" x="595.5" y="-480" font-family="Helvetica,sans-Serif" font-size="10.00">cockatrice/src/utility</text>
<text text-anchor="start" x="595.5" y="-469" font-family="Helvetica,sans-Serif" font-size="10.00">/deck_list_sort_filter</text>
<text text-anchor="middle" x="645" y="-458" font-family="Helvetica,sans-Serif" font-size="10.00">_proxy_model.h</text>
</a>
</g>
</g>
<!-- Node2 -->
<g id="Node000002" class="node">
<title>Node2</title>
<g id="a_Node000002"><a xlink:href="../../db/d03/card__database__manager_8h.html" target="_top" xlink:title="The CardDatabaseManager is responsible for managing the global database singleton.">
<polygon fill="white" stroke="#666666" points="640.5,-415 495.5,-415 495.5,-385 640.5,-385 640.5,-415"/>
<text text-anchor="start" x="503.5" y="-403" font-family="Helvetica,sans-Serif" font-size="10.00">../database/card_database</text>
<text text-anchor="middle" x="568" y="-392" font-family="Helvetica,sans-Serif" font-size="10.00">_manager.h</text>
</a>
</g>
</g>
<!-- Node1&#45;&gt;Node2 -->
<g id="edge1_Node000001_Node000002" class="edge">
<title>Node1&#45;&gt;Node2</title>
<g id="a_edge1_Node000001_Node000002"><a xlink:title=" ">
<path fill="none" stroke="#63b8ff" d="M623.14,-450.77C611.89,-440.62 598.3,-428.35 587.43,-418.54"/>
<polygon fill="#63b8ff" stroke="#63b8ff" points="583.55,-415.04 588.77,-416.72 585.41,-416.71 587.26,-418.39 587.26,-418.39 587.26,-418.39 585.41,-416.71 585.76,-420.06 583.55,-415.04 583.55,-415.04"/>
</a>
</g>
</g>
<!-- Node26 -->
<g id="Node000026" class="node">
<title>Node26</title>
<g id="a_Node000026"><a xlink:title=" ">
<polygon fill="#e0e0e0" stroke="#999999" points="785,-409.5 659,-409.5 659,-390.5 785,-390.5 785,-409.5"/>
<text text-anchor="middle" x="722" y="-397.5" font-family="Helvetica,sans-Serif" font-size="10.00">QSortFilterProxyModel</text>
</a>
</g>
</g>
<!-- Node1&#45;&gt;Node26 -->
<g id="edge47_Node000001_Node000026" class="edge">
<title>Node1&#45;&gt;Node26</title>
<g id="a_edge47_Node000001_Node000026"><a xlink:title=" ">
<path fill="none" stroke="#63b8ff" d="M666.86,-450.77C680.16,-438.76 696.75,-423.79 708.24,-413.42"/>
<polygon fill="#63b8ff" stroke="#63b8ff" points="712.23,-409.82 710.02,-414.84 710.37,-411.49 708.52,-413.17 708.52,-413.17 708.52,-413.17 710.37,-411.49 707.01,-411.5 712.23,-409.82 712.23,-409.82"/>
</a>
</g>
</g>
<!-- Node3 -->
<g id="Node000003" class="node">
<title>Node3</title>
<g id="a_Node000003"><a xlink:href="../../d7/d66/card__database_8h.html" target="_top" xlink:title="The CardDatabase is responsible for holding the card and set maps.">
<polygon fill="white" stroke="#666666" points="616.5,-349 519.5,-349 519.5,-330 616.5,-330 616.5,-349"/>
<text text-anchor="middle" x="568" y="-337" font-family="Helvetica,sans-Serif" font-size="10.00">card_database.h</text>
</a>
</g>
</g>
<!-- Node2&#45;&gt;Node3 -->
<g id="edge2_Node000002_Node000003" class="edge">
<title>Node2&#45;&gt;Node3</title>
<g id="a_edge2_Node000002_Node000003"><a xlink:title=" ">
<path fill="none" stroke="#63b8ff" d="M568,-384.84C568,-375.57 568,-363.51 568,-354.31"/>
<polygon fill="#63b8ff" stroke="#63b8ff" points="568,-349.27 570.25,-354.27 568,-351.77 568,-354.27 568,-354.27 568,-354.27 568,-351.77 565.75,-354.27 568,-349.27 568,-349.27"/>
</a>
</g>
</g>
<!-- Node4 -->
<g id="Node000004" class="node">
<title>Node4</title>
<g id="a_Node000004"><a xlink:href="../../d1/d0f/card__set__list_8h.html" target="_top" xlink:title=" ">
<polygon fill="white" stroke="#666666" points="664,-129 544,-129 544,-110 664,-110 664,-129"/>
<text text-anchor="middle" x="604" y="-117" font-family="Helvetica,sans-Serif" font-size="10.00">../card/card_set_list.h</text>
</a>
</g>
</g>
<!-- Node3&#45;&gt;Node4 -->
<g id="edge3_Node000003_Node000004" class="edge">
<title>Node3&#45;&gt;Node4</title>
<g id="a_edge3_Node000003_Node000004"><a xlink:title=" ">
<path fill="none" stroke="#63b8ff" d="M569.35,-329.87C572.42,-310.31 580.19,-261.11 587,-220 592.06,-189.45 598.23,-153.66 601.57,-134.43"/>
<polygon fill="#63b8ff" stroke="#63b8ff" points="602.52,-129.01 603.88,-134.32 602.09,-131.48 601.66,-133.94 601.66,-133.94 601.66,-133.94 602.09,-131.48 599.44,-133.55 602.52,-129.01 602.52,-129.01"/>
</a>
</g>
</g>
<!-- Node6 -->
<g id="Node000006" class="node">
<title>Node6</title>
<g id="a_Node000006"><a xlink:title=" ">
<polygon fill="#e0e0e0" stroke="#999999" points="192.5,-19 145.5,-19 145.5,0 192.5,0 192.5,-19"/>
<text text-anchor="middle" x="169" y="-7" font-family="Helvetica,sans-Serif" font-size="10.00">QDate</text>
</a>
</g>
</g>
<!-- Node3&#45;&gt;Node6 -->
<g id="edge40_Node000003_Node000006" class="edge">
<title>Node3&#45;&gt;Node6</title>
<g id="a_edge40_Node000003_Node000006"><a xlink:title=" ">
<path fill="none" stroke="#63b8ff" d="M519.08,-334.35C381.3,-322.02 0,-283.14 0,-230.5 0,-230.5 0,-230.5 0,-118.5 0,-52.82 91.75,-25.3 140.05,-15.36"/>
<polygon fill="#63b8ff" stroke="#63b8ff" points="145.14,-14.34 140.68,-17.52 142.69,-14.83 140.24,-15.32 140.24,-15.32 140.24,-15.32 142.69,-14.83 139.8,-13.11 145.14,-14.34 145.14,-14.34"/>
</a>
</g>
</g>
<!-- Node7 -->
<g id="Node000007" class="node">
<title>Node7</title>
<g id="a_Node000007"><a xlink:title=" ">
<polygon fill="#e0e0e0" stroke="#999999" points="680.5,-19 639.5,-19 639.5,0 680.5,0 680.5,-19"/>
<text text-anchor="middle" x="660" y="-7" font-family="Helvetica,sans-Serif" font-size="10.00">QList</text>
</a>
</g>
</g>
<!-- Node3&#45;&gt;Node7 -->
<g id="edge42_Node000003_Node000007" class="edge">
<title>Node3&#45;&gt;Node7</title>
<g id="a_edge42_Node000003_Node000007"><a xlink:title=" ">
<path fill="none" stroke="#63b8ff" d="M616.57,-337.75C673.8,-335.3 770.76,-326.22 847,-294 890.44,-275.64 932,-277.66 932,-230.5 932,-230.5 932,-230.5 932,-118.5 932,-65.89 753.98,-27.72 685.98,-15.06"/>
<polygon fill="#63b8ff" stroke="#63b8ff" points="680.89,-14.12 686.22,-12.81 683.35,-14.57 685.81,-15.03 685.81,-15.03 685.81,-15.03 683.35,-14.57 685.4,-17.24 680.89,-14.12 680.89,-14.12"/>
</a>
</g>
</g>
<!-- Node10 -->
<g id="Node000010" class="node">
<title>Node10</title>
<g id="a_Node000010"><a xlink:title=" ">
<polygon fill="#e0e0e0" stroke="#999999" points="599,-74 529,-74 529,-55 599,-55 599,-74"/>
<text text-anchor="middle" x="564" y="-62" font-family="Helvetica,sans-Serif" font-size="10.00">QStringList</text>
</a>
</g>
</g>
<!-- Node3&#45;&gt;Node10 -->
<g id="edge44_Node000003_Node000010" class="edge">
<title>Node3&#45;&gt;Node10</title>
<g id="a_edge44_Node000003_Node000010"><a xlink:title=" ">
<path fill="none" stroke="#63b8ff" d="M616.76,-335.64C666.18,-331.32 743.99,-320.58 806,-294 850.33,-275 894,-278.73 894,-230.5 894,-230.5 894,-230.5 894,-173.5 894,-144.04 897.32,-129.23 875,-110 835.2,-75.71 679.21,-67.83 604.42,-66.03"/>
<polygon fill="#63b8ff" stroke="#63b8ff" points="599.18,-65.91 604.23,-63.77 601.68,-65.97 604.18,-66.02 604.18,-66.02 604.18,-66.02 601.68,-65.97 604.13,-68.27 599.18,-65.91 599.18,-65.91"/>
</a>
</g>
</g>
<!-- Node11 -->
<g id="Node000011" class="node">
<title>Node11</title>
<g id="a_Node000011"><a xlink:href="../../d6/dfd/exact__card_8h.html" target="_top" xlink:title=" ">
<polygon fill="white" stroke="#666666" points="394,-239 282,-239 282,-220 394,-220 394,-239"/>
<text text-anchor="middle" x="338" y="-227" font-family="Helvetica,sans-Serif" font-size="10.00">../card/exact_card.h</text>
</a>
</g>
</g>
<!-- Node3&#45;&gt;Node11 -->
<g id="edge11_Node000003_Node000011" class="edge">
<title>Node3&#45;&gt;Node11</title>
<g id="a_edge11_Node000003_Node000011"><a xlink:title=" ">
<path fill="none" stroke="#63b8ff" d="M519.24,-335.5C480.4,-331.12 426.09,-320.36 386,-294 366.91,-281.45 352.46,-258.63 344.62,-244.03"/>
<polygon fill="#63b8ff" stroke="#63b8ff" points="342.21,-239.43 346.52,-242.82 343.37,-241.64 344.53,-243.86 344.53,-243.86 344.53,-243.86 343.37,-241.64 342.53,-244.9 342.21,-239.43 342.21,-239.43"/>
</a>
</g>
</g>
<!-- Node16 -->
<g id="Node000016" class="node">
<title>Node16</title>
<g id="a_Node000016"><a xlink:title=" ">
<polygon fill="#e0e0e0" stroke="#999999" points="77.5,-129 28.5,-129 28.5,-110 77.5,-110 77.5,-129"/>
<text text-anchor="middle" x="53" y="-117" font-family="Helvetica,sans-Serif" font-size="10.00">QHash</text>
</a>
</g>
</g>
<!-- Node3&#45;&gt;Node16 -->
<g id="edge41_Node000003_Node000016" class="edge">
<title>Node3&#45;&gt;Node16</title>
<g id="a_edge41_Node000003_Node000016"><a xlink:title=" ">
<path fill="none" stroke="#63b8ff" d="M519.46,-335.26C468.37,-330.61 386.32,-319.58 320,-294 213,-252.74 104.09,-164.42 66.63,-132.41"/>
<polygon fill="#63b8ff" stroke="#63b8ff" points="62.82,-129.13 68.08,-130.69 64.72,-130.76 66.61,-132.39 66.61,-132.39 66.61,-132.39 64.72,-130.76 65.15,-134.1 62.82,-129.13 62.82,-129.13"/>
</a>
</g>
</g>
<!-- Node17 -->
<g id="Node000017" class="node">
<title>Node17</title>
<g id="a_Node000017"><a xlink:title=" ">
<polygon fill="#e0e0e0" stroke="#999999" points="865.5,-129 758.5,-129 758.5,-110 865.5,-110 865.5,-129"/>
<text text-anchor="middle" x="812" y="-117" font-family="Helvetica,sans-Serif" font-size="10.00">QLoggingCategory</text>
</a>
</g>
</g>
<!-- Node3&#45;&gt;Node17 -->
<g id="edge43_Node000003_Node000017" class="edge">
<title>Node3&#45;&gt;Node17</title>
<g id="a_edge43_Node000003_Node000017"><a xlink:title=" ">
<path fill="none" stroke="#63b8ff" d="M616.63,-335.26C660.37,-330.72 725.35,-319.87 776,-294 808.51,-277.39 822.16,-272.35 837,-239 853.04,-202.95 832.13,-156.08 819.82,-133.62"/>
<polygon fill="#63b8ff" stroke="#63b8ff" points="817.34,-129.21 821.76,-132.47 818.57,-131.39 819.8,-133.57 819.8,-133.57 819.8,-133.57 818.57,-131.39 817.83,-134.67 817.34,-129.21 817.34,-129.21"/>
</a>
</g>
</g>
<!-- Node19 -->
<g id="Node000019" class="node">
<title>Node19</title>
<g id="a_Node000019"><a xlink:title=" ">
<polygon fill="#e0e0e0" stroke="#999999" points="140.5,-129 95.5,-129 95.5,-110 140.5,-110 140.5,-129"/>
<text text-anchor="middle" x="118" y="-117" font-family="Helvetica,sans-Serif" font-size="10.00">utility</text>
</a>
</g>
</g>
<!-- Node3&#45;&gt;Node19 -->
<g id="edge46_Node000003_Node000019" class="edge">
<title>Node3&#45;&gt;Node19</title>
<g id="a_edge46_Node000003_Node000019"><a xlink:title=" ">
<path fill="none" stroke="#63b8ff" d="M519.33,-332.89C476.46,-326.82 412.95,-315.06 361,-294 261.75,-253.76 164.43,-165.47 130.57,-132.89"/>
<polygon fill="#63b8ff" stroke="#63b8ff" points="126.75,-129.2 131.91,-131.06 128.55,-130.94 130.35,-132.68 130.35,-132.68 130.35,-132.68 128.55,-130.94 128.78,-134.3 126.75,-129.2 126.75,-129.2"/>
</a>
</g>
</g>
<!-- Node20 -->
<g id="Node000020" class="node">
<title>Node20</title>
<g id="a_Node000020"><a xlink:title=" ">
<polygon fill="#e0e0e0" stroke="#999999" points="531.5,-239 412.5,-239 412.5,-220 531.5,-220 531.5,-239"/>
<text text-anchor="middle" x="472" y="-227" font-family="Helvetica,sans-Serif" font-size="10.00">../common/card_ref.h</text>
</a>
</g>
</g>
<!-- Node3&#45;&gt;Node20 -->
<g id="edge29_Node000003_Node000020" class="edge">
<title>Node3&#45;&gt;Node20</title>
<g id="a_edge29_Node000003_Node000020"><a xlink:title=" ">
<path fill="none" stroke="#63b8ff" d="M519.25,-332.63C473.58,-326.01 410.15,-313.55 395,-294 377.79,-271.8 413.26,-252.25 441.59,-240.9"/>
<polygon fill="#63b8ff" stroke="#63b8ff" points="446.42,-239.01 442.58,-242.93 444.09,-239.92 441.76,-240.83 441.76,-240.83 441.76,-240.83 444.09,-239.92 440.94,-238.73 446.42,-239.01 446.42,-239.01"/>
</a>
</g>
</g>
<!-- Node21 -->
<g id="Node000021" class="node">
<title>Node21</title>
<g id="a_Node000021"><a xlink:href="../../dc/d6b/card__database__loader_8h.html" target="_top" xlink:title="The CardDatabaseLoader is responsible for populating the card database from files on disk.">
<polygon fill="white" stroke="#666666" points="746,-294 614,-294 614,-275 746,-275 746,-294"/>
<text text-anchor="middle" x="680" y="-282" font-family="Helvetica,sans-Serif" font-size="10.00">card_database_loader.h</text>
</a>
</g>
</g>
<!-- Node3&#45;&gt;Node21 -->
<g id="edge30_Node000003_Node000021" class="edge">
<title>Node3&#45;&gt;Node21</title>
<g id="a_edge30_Node000003_Node000021"><a xlink:title=" ">
<path fill="none" stroke="#63b8ff" d="M585.99,-329.98C605.31,-320.84 636.05,-306.3 657.08,-296.35"/>
<polygon fill="#63b8ff" stroke="#63b8ff" points="661.68,-294.17 658.12,-298.34 659.42,-295.24 657.16,-296.31 657.16,-296.31 657.16,-296.31 659.42,-295.24 656.2,-294.28 661.68,-294.17 661.68,-294.17"/>
</a>
</g>
</g>
<!-- Node22 -->
<g id="Node000022" class="node">
<title>Node22</title>
<g id="a_Node000022"><a xlink:title=" ">
<polygon fill="#e0e0e0" stroke="#999999" points="827.5,-239 746.5,-239 746.5,-220 827.5,-220 827.5,-239"/>
<text text-anchor="middle" x="787" y="-227" font-family="Helvetica,sans-Serif" font-size="10.00">QBasicMutex</text>
</a>
</g>
</g>
<!-- Node3&#45;&gt;Node22 -->
<g id="edge39_Node000003_Node000022" class="edge">
<title>Node3&#45;&gt;Node22</title>
<g id="a_edge39_Node000003_Node000022"><a xlink:title=" ">
<path fill="none" stroke="#63b8ff" d="M616.62,-337.95C657.51,-335.11 715.46,-325.25 755,-294 770.87,-281.46 779.54,-258.95 783.72,-244.38"/>
<polygon fill="#63b8ff" stroke="#63b8ff" points="785.06,-239.4 785.93,-244.81 784.41,-241.81 783.76,-244.23 783.76,-244.23 783.76,-244.23 784.41,-241.81 781.58,-243.64 785.06,-239.4 785.06,-239.4"/>
</a>
</g>
</g>
<!-- Node24 -->
<g id="Node000024" class="node">
<title>Node24</title>
<g id="a_Node000024"><a xlink:href="../../df/d9e/card__database__querier_8h.html" target="_top" xlink:title="The CardDatabaseQuerier is responsible for querying the database and returning data.">
<polygon fill="white" stroke="#666666" points="540,-294 404,-294 404,-275 540,-275 540,-294"/>
<text text-anchor="middle" x="472" y="-282" font-family="Helvetica,sans-Serif" font-size="10.00">card_database_querier.h</text>
</a>
</g>
</g>
<!-- Node3&#45;&gt;Node24 -->
<g id="edge35_Node000003_Node000024" class="edge">
<title>Node3&#45;&gt;Node24</title>
<g id="a_edge35_Node000003_Node000024"><a xlink:title=" ">
<path fill="none" stroke="#63b8ff" d="M552.58,-329.98C536.16,-320.92 510.11,-306.54 492.1,-296.6"/>
<polygon fill="#63b8ff" stroke="#63b8ff" points="487.7,-294.17 493.17,-294.62 489.89,-295.38 492.08,-296.59 492.08,-296.59 492.08,-296.59 489.89,-295.38 490.99,-298.56 487.7,-294.17 487.7,-294.17"/>
</a>
</g>
</g>
<!-- Node25 -->
<g id="Node000025" class="node">
<title>Node25</title>
<g id="a_Node000025"><a xlink:title=" ">
<polygon fill="#e0e0e0" stroke="#999999" points="1015.5,-294 960.5,-294 960.5,-275 1015.5,-275 1015.5,-294"/>
<text text-anchor="middle" x="988" y="-282" font-family="Helvetica,sans-Serif" font-size="10.00">QVector</text>
</a>
</g>
</g>
<!-- Node3&#45;&gt;Node25 -->
<g id="edge45_Node000003_Node000025" class="edge">
<title>Node3&#45;&gt;Node25</title>
<g id="a_edge45_Node000003_Node000025"><a xlink:title=" ">
<path fill="none" stroke="#63b8ff" d="M616.51,-334.08C688.61,-327.22 828.22,-312.82 946,-294 949.09,-293.51 952.29,-292.95 955.49,-292.36"/>
<polygon fill="#63b8ff" stroke="#63b8ff" points="960.5,-291.4 956,-294.55 958.04,-291.87 955.58,-292.34 955.58,-292.34 955.58,-292.34 958.04,-291.87 955.16,-290.13 960.5,-291.4 960.5,-291.4"/>
</a>
</g>
</g>
<!-- Node5 -->
<g id="Node000005" class="node">
<title>Node5</title>
<g id="a_Node000005"><a xlink:href="../../d3/dda/card__set_8h.html" target="_top" xlink:title=" ">
<polygon fill="white" stroke="#666666" points="442.5,-74 375.5,-74 375.5,-55 442.5,-55 442.5,-74"/>
<text text-anchor="middle" x="409" y="-62" font-family="Helvetica,sans-Serif" font-size="10.00">card_set.h</text>
</a>
</g>
</g>
<!-- Node4&#45;&gt;Node5 -->
<g id="edge4_Node000004_Node000005" class="edge">
<title>Node4&#45;&gt;Node5</title>
<g id="a_edge4_Node000004_Node000005"><a xlink:title=" ">
<path fill="none" stroke="#63b8ff" d="M572.67,-109.98C538.09,-100.59 482.48,-85.47 445.84,-75.51"/>
<polygon fill="#63b8ff" stroke="#63b8ff" points="440.58,-74.08 445.99,-73.22 442.99,-74.74 445.4,-75.39 445.4,-75.39 445.4,-75.39 442.99,-74.74 444.81,-77.56 440.58,-74.08 440.58,-74.08"/>
</a>
</g>
</g>
<!-- Node4&#45;&gt;Node7 -->
<g id="edge9_Node000004_Node000007" class="edge">
<title>Node4&#45;&gt;Node7</title>
<g id="a_edge9_Node000004_Node000007"><a xlink:title=" ">
<path fill="none" stroke="#63b8ff" d="M608.58,-109.66C618.39,-90.74 641.48,-46.22 653.09,-23.84"/>
<polygon fill="#63b8ff" stroke="#63b8ff" points="655.51,-19.16 655.21,-24.63 654.36,-21.38 653.21,-23.6 653.21,-23.6 653.21,-23.6 654.36,-21.38 651.21,-22.56 655.51,-19.16 655.51,-19.16"/>
</a>
</g>
</g>
<!-- Node4&#45;&gt;Node10 -->
<g id="edge10_Node000004_Node000010" class="edge">
<title>Node4&#45;&gt;Node10</title>
<g id="a_edge10_Node000004_Node000010"><a xlink:title=" ">
<path fill="none" stroke="#63b8ff" d="M597.39,-109.75C590.93,-101.18 581.01,-88.03 573.66,-78.3"/>
<polygon fill="#63b8ff" stroke="#63b8ff" points="570.48,-74.09 575.29,-76.72 571.99,-76.08 573.49,-78.08 573.49,-78.08 573.49,-78.08 571.99,-76.08 571.7,-79.44 570.48,-74.09 570.48,-74.09"/>
</a>
</g>
</g>
<!-- Node5&#45;&gt;Node6 -->
<g id="edge5_Node000005_Node000006" class="edge">
<title>Node5&#45;&gt;Node6</title>
<g id="a_edge5_Node000005_Node000006"><a xlink:title=" ">
<path fill="none" stroke="#63b8ff" d="M375.38,-56.07C327.92,-45.6 242.14,-26.65 197.59,-16.81"/>
<polygon fill="#63b8ff" stroke="#63b8ff" points="192.63,-15.72 197.99,-14.6 195.07,-16.26 197.51,-16.8 197.51,-16.8 197.51,-16.8 195.07,-16.26 197.02,-18.99 192.63,-15.72 192.63,-15.72"/>
</a>
</g>
</g>
<!-- Node5&#45;&gt;Node7 -->
<g id="edge6_Node000005_Node000007" class="edge">
<title>Node5&#45;&gt;Node7</title>
<g id="a_edge6_Node000005_Node000007"><a xlink:title=" ">
<path fill="none" stroke="#63b8ff" d="M442.59,-56.41C493.4,-45.68 588.69,-25.56 634.34,-15.92"/>
<polygon fill="#63b8ff" stroke="#63b8ff" points="639.4,-14.85 634.97,-18.09 636.95,-15.37 634.5,-15.88 634.5,-15.88 634.5,-15.88 636.95,-15.37 634.04,-13.68 639.4,-14.85 639.4,-14.85"/>
</a>
</g>
</g>
<!-- Node8 -->
<g id="Node000008" class="node">
<title>Node8</title>
<g id="a_Node000008"><a xlink:title=" ">
<polygon fill="#e0e0e0" stroke="#999999" points="334,-19 242,-19 242,0 334,0 334,-19"/>
<text text-anchor="middle" x="288" y="-7" font-family="Helvetica,sans-Serif" font-size="10.00">QSharedPointer</text>
</a>
</g>
</g>
<!-- Node5&#45;&gt;Node8 -->
<g id="edge7_Node000005_Node000008" class="edge">
<title>Node5&#45;&gt;Node8</title>
<g id="a_edge7_Node000005_Node000008"><a xlink:title=" ">
<path fill="none" stroke="#63b8ff" d="M389.56,-54.98C368.6,-45.81 335.2,-31.18 312.47,-21.22"/>
<polygon fill="#63b8ff" stroke="#63b8ff" points="307.79,-19.17 313.28,-19.12 310.08,-20.17 312.37,-21.18 312.37,-21.18 312.37,-21.18 310.08,-20.17 311.47,-23.24 307.79,-19.17 307.79,-19.17"/>
</a>
</g>
</g>
<!-- Node9 -->
<g id="Node000009" class="node">
<title>Node9</title>
<g id="a_Node000009"><a xlink:title=" ">
<polygon fill="#e0e0e0" stroke="#999999" points="435.5,-19 382.5,-19 382.5,0 435.5,0 435.5,-19"/>
<text text-anchor="middle" x="409" y="-7" font-family="Helvetica,sans-Serif" font-size="10.00">QString</text>
</a>
</g>
</g>
<!-- Node5&#45;&gt;Node9 -->
<g id="edge8_Node000005_Node000009" class="edge">
<title>Node5&#45;&gt;Node9</title>
<g id="a_edge8_Node000005_Node000009"><a xlink:title=" ">
<path fill="none" stroke="#63b8ff" d="M409,-54.75C409,-46.41 409,-33.74 409,-24.09"/>
<polygon fill="#63b8ff" stroke="#63b8ff" points="409,-19.09 411.25,-24.09 409,-21.59 409,-24.09 409,-24.09 409,-24.09 409,-21.59 406.75,-24.09 409,-19.09 409,-19.09"/>
</a>
</g>
</g>
<!-- Node12 -->
<g id="Node000012" class="node">
<title>Node12</title>
<g id="a_Node000012"><a xlink:href="../../df/df3/card__info_8h.html" target="_top" xlink:title="TODO: Document this.">
<polygon fill="white" stroke="#666666" points="346.5,-184 275.5,-184 275.5,-165 346.5,-165 346.5,-184"/>
<text text-anchor="middle" x="311" y="-172" font-family="Helvetica,sans-Serif" font-size="10.00">card_info.h</text>
</a>
</g>
</g>
<!-- Node11&#45;&gt;Node12 -->
<g id="edge12_Node000011_Node000012" class="edge">
<title>Node11&#45;&gt;Node12</title>
<g id="a_edge12_Node000011_Node000012"><a xlink:title=" ">
<path fill="none" stroke="#63b8ff" d="M333.54,-219.75C329.22,-211.26 322.6,-198.27 317.65,-188.56"/>
<polygon fill="#63b8ff" stroke="#63b8ff" points="315.38,-184.09 319.65,-187.52 316.51,-186.32 317.65,-188.54 317.65,-188.54 317.65,-188.54 316.51,-186.32 315.64,-189.57 315.38,-184.09 315.38,-184.09"/>
</a>
</g>
</g>
<!-- Node12&#45;&gt;Node6 -->
<g id="edge19_Node000012_Node000006" class="edge">
<title>Node12&#45;&gt;Node6</title>
<g id="a_edge19_Node000012_Node000006"><a xlink:title=" ">
<path fill="none" stroke="#63b8ff" d="M293.59,-164.87C278.88,-156.97 257.9,-144.22 243,-129 210.84,-96.15 185.74,-46.99 174.87,-23.68"/>
<polygon fill="#63b8ff" stroke="#63b8ff" points="172.77,-19.11 176.91,-22.71 173.82,-21.38 174.86,-23.65 174.86,-23.65 174.86,-23.65 173.82,-21.38 172.82,-24.59 172.77,-19.11 172.77,-19.11"/>
</a>
</g>
</g>
<!-- Node12&#45;&gt;Node7 -->
<g id="edge21_Node000012_Node000007" class="edge">
<title>Node12&#45;&gt;Node7</title>
<g id="a_edge21_Node000012_Node000007"><a xlink:title=" ">
<path fill="none" stroke="#63b8ff" d="M346.77,-171.75C433.9,-167.12 651.58,-153.22 673,-129 699.12,-99.48 679.18,-48.3 667.26,-24.02"/>
<polygon fill="#63b8ff" stroke="#63b8ff" points="664.85,-19.27 669.12,-22.71 665.98,-21.5 667.11,-23.73 667.11,-23.73 667.11,-23.73 665.98,-21.5 665.1,-24.74 664.85,-19.27 664.85,-19.27"/>
</a>
</g>
</g>
<!-- Node12&#45;&gt;Node8 -->
<g id="edge25_Node000012_Node000008" class="edge">
<title>Node12&#45;&gt;Node8</title>
<g id="a_edge25_Node000012_Node000008"><a xlink:title=" ">
<path fill="none" stroke="#63b8ff" d="M299.77,-164.87C280.47,-149.24 241.67,-114.13 227,-74 224.1,-66.07 223.17,-62.53 227,-55 234.63,-39.99 249.97,-28.83 263.35,-21.45"/>
<polygon fill="#63b8ff" stroke="#63b8ff" points="267.8,-19.09 264.44,-23.42 265.59,-20.26 263.38,-21.43 263.38,-21.43 263.38,-21.43 265.59,-20.26 262.33,-19.44 267.8,-19.09 267.8,-19.09"/>
</a>
</g>
</g>
<!-- Node12&#45;&gt;Node10 -->
<g id="edge26_Node000012_Node000010" class="edge">
<title>Node12&#45;&gt;Node10</title>
<g id="a_edge26_Node000012_Node000010"><a xlink:title=" ">
<path fill="none" stroke="#63b8ff" d="M346.54,-170.53C385.49,-166.05 448.84,-155.11 497,-129 520.49,-116.27 541.81,-93.18 553.81,-78.63"/>
<polygon fill="#63b8ff" stroke="#63b8ff" points="557.23,-74.41 555.83,-79.71 555.66,-76.35 554.09,-78.29 554.09,-78.29 554.09,-78.29 555.66,-76.35 552.34,-76.88 557.23,-74.41 557.23,-74.41"/>
</a>
</g>
</g>
<!-- Node13 -->
<g id="Node000013" class="node">
<title>Node13</title>
<g id="a_Node000013"><a xlink:href="../../dc/dd2/printing__info_8h.html" target="_top" xlink:title=" ">
<polygon fill="white" stroke="#666666" points="398.5,-129 311.5,-129 311.5,-110 398.5,-110 398.5,-129"/>
<text text-anchor="middle" x="355" y="-117" font-family="Helvetica,sans-Serif" font-size="10.00">printing_info.h</text>
</a>
</g>
</g>
<!-- Node12&#45;&gt;Node13 -->
<g id="edge13_Node000012_Node000013" class="edge">
<title>Node12&#45;&gt;Node13</title>
<g id="a_edge13_Node000012_Node000013"><a xlink:title=" ">
<path fill="none" stroke="#63b8ff" d="M318.27,-164.75C325.44,-156.1 336.49,-142.8 344.6,-133.03"/>
<polygon fill="#63b8ff" stroke="#63b8ff" points="347.87,-129.09 346.41,-134.37 346.27,-131.01 344.68,-132.94 344.68,-132.94 344.68,-132.94 346.27,-131.01 342.94,-131.5 347.87,-129.09 347.87,-129.09"/>
</a>
</g>
</g>
<!-- Node14 -->
<g id="Node000014" class="node">
<title>Node14</title>
<g id="a_Node000014"><a xlink:title=" ">
<polygon fill="#e0e0e0" stroke="#999999" points="280.5,-74 235.5,-74 235.5,-55 280.5,-55 280.5,-74"/>
<text text-anchor="middle" x="258" y="-62" font-family="Helvetica,sans-Serif" font-size="10.00">QMap</text>
</a>
</g>
</g>
<!-- Node12&#45;&gt;Node14 -->
<g id="edge23_Node000012_Node000014" class="edge">
<title>Node12&#45;&gt;Node14</title>
<g id="a_edge23_Node000012_Node000014"><a xlink:title=" ">
<path fill="none" stroke="#63b8ff" d="M306.66,-164.66C297.38,-145.74 275.53,-101.22 264.54,-78.84"/>
<polygon fill="#63b8ff" stroke="#63b8ff" points="262.25,-74.16 266.47,-77.66 263.35,-76.4 264.45,-78.65 264.45,-78.65 264.45,-78.65 263.35,-76.4 262.43,-79.64 262.25,-74.16 262.25,-74.16"/>
</a>
</g>
</g>
<!-- Node15 -->
<g id="Node000015" class="node">
<title>Node15</title>
<g id="a_Node000015"><a xlink:title=" ">
<polygon fill="#e0e0e0" stroke="#999999" points="357.5,-74 298.5,-74 298.5,-55 357.5,-55 357.5,-74"/>
<text text-anchor="middle" x="328" y="-62" font-family="Helvetica,sans-Serif" font-size="10.00">QVariant</text>
</a>
</g>
</g>
<!-- Node12&#45;&gt;Node15 -->
<g id="edge27_Node000012_Node000015" class="edge">
<title>Node12&#45;&gt;Node15</title>
<g id="a_edge27_Node000012_Node000015"><a xlink:title=" ">
<path fill="none" stroke="#63b8ff" d="M307.83,-164.74C303.82,-152.36 297.99,-129.13 303,-110 305.99,-98.57 312.65,-86.98 318.34,-78.49"/>
<polygon fill="#63b8ff" stroke="#63b8ff" points="321.37,-74.12 320.37,-79.51 319.95,-76.17 318.52,-78.22 318.52,-78.22 318.52,-78.22 319.95,-76.17 316.67,-76.94 321.37,-74.12 321.37,-74.12"/>
</a>
</g>
</g>
<!-- Node12&#45;&gt;Node16 -->
<g id="edge20_Node000012_Node000016" class="edge">
<title>Node12&#45;&gt;Node16</title>
<g id="a_edge20_Node000012_Node000016"><a xlink:title=" ">
<path fill="none" stroke="#63b8ff" d="M275.41,-167.11C230.94,-158.97 152.59,-144.15 86,-129 84.92,-128.75 83.83,-128.5 82.72,-128.24"/>
<polygon fill="#63b8ff" stroke="#63b8ff" points="77.83,-127.06 83.22,-126.04 80.26,-127.64 82.69,-128.23 82.69,-128.23 82.69,-128.23 80.26,-127.64 82.16,-130.42 77.83,-127.06 77.83,-127.06"/>
</a>
</g>
</g>
<!-- Node12&#45;&gt;Node17 -->
<g id="edge22_Node000012_Node000017" class="edge">
<title>Node12&#45;&gt;Node17</title>
<g id="a_edge22_Node000012_Node000017"><a xlink:title=" ">
<path fill="none" stroke="#63b8ff" d="M346.63,-169.73C431.82,-160.72 647.99,-137.85 752.98,-126.74"/>
<polygon fill="#63b8ff" stroke="#63b8ff" points="758.2,-126.19 753.46,-128.96 755.71,-126.45 753.23,-126.72 753.23,-126.72 753.23,-126.72 755.71,-126.45 752.99,-124.48 758.2,-126.19 758.2,-126.19"/>
</a>
</g>
</g>
<!-- Node18 -->
<g id="Node000018" class="node">
<title>Node18</title>
<g id="a_Node000018"><a xlink:title=" ">
<polygon fill="#e0e0e0" stroke="#999999" points="487.5,-129 416.5,-129 416.5,-110 487.5,-110 487.5,-129"/>
<text text-anchor="middle" x="452" y="-117" font-family="Helvetica,sans-Serif" font-size="10.00">QMetaType</text>
</a>
</g>
</g>
<!-- Node12&#45;&gt;Node18 -->
<g id="edge24_Node000012_Node000018" class="edge">
<title>Node12&#45;&gt;Node18</title>
<g id="a_edge24_Node000012_Node000018"><a xlink:title=" ">
<path fill="none" stroke="#63b8ff" d="M333.65,-164.98C358.28,-155.73 397.65,-140.93 424.14,-130.97"/>
<polygon fill="#63b8ff" stroke="#63b8ff" points="428.93,-129.17 425.05,-133.04 426.59,-130.05 424.25,-130.93 424.25,-130.93 424.25,-130.93 426.59,-130.05 423.46,-128.82 428.93,-129.17 428.93,-129.17"/>
</a>
</g>
</g>
<!-- Node12&#45;&gt;Node19 -->
<g id="edge28_Node000012_Node000019" class="edge">
<title>Node12&#45;&gt;Node19</title>
<g id="a_edge28_Node000012_Node000019"><a xlink:title=" ">
<path fill="none" stroke="#63b8ff" d="M279.99,-164.98C242.92,-154.8 181.44,-137.92 145.83,-128.14"/>
<polygon fill="#63b8ff" stroke="#63b8ff" points="140.77,-126.75 146.19,-125.91 143.18,-127.42 145.6,-128.08 145.6,-128.08 145.6,-128.08 143.18,-127.42 145,-130.25 140.77,-126.75 140.77,-126.75"/>
</a>
</g>
</g>
<!-- Node13&#45;&gt;Node5 -->
<g id="edge14_Node000013_Node000005" class="edge">
<title>Node13&#45;&gt;Node5</title>
<g id="a_edge14_Node000013_Node000005"><a xlink:title=" ">
<path fill="none" stroke="#63b8ff" d="M363.92,-109.75C372.8,-101.03 386.52,-87.56 396.5,-77.77"/>
<polygon fill="#63b8ff" stroke="#63b8ff" points="400.25,-74.09 398.26,-79.2 398.46,-75.84 396.68,-77.59 396.68,-77.59 396.68,-77.59 398.46,-75.84 395.1,-75.99 400.25,-74.09 400.25,-74.09"/>
</a>
</g>
</g>
<!-- Node13&#45;&gt;Node7 -->
<g id="edge15_Node000013_Node000007" class="edge">
<title>Node13&#45;&gt;Node7</title>
<g id="a_edge15_Node000013_Node000007"><a xlink:title=" ">
<path fill="none" stroke="#63b8ff" d="M375.95,-109.98C407.14,-97.39 467.72,-73.35 520,-55 559.65,-41.08 606.24,-26.65 634.43,-18.13"/>
<polygon fill="#63b8ff" stroke="#63b8ff" points="639.47,-16.61 635.33,-20.2 637.08,-17.33 634.68,-18.05 634.68,-18.05 634.68,-18.05 637.08,-17.33 634.03,-15.9 639.47,-16.61 639.47,-16.61"/>
</a>
</g>
</g>
<!-- Node13&#45;&gt;Node10 -->
<g id="edge17_Node000013_Node000010" class="edge">
<title>Node13&#45;&gt;Node10</title>
<g id="a_edge17_Node000013_Node000010"><a xlink:title=" ">
<path fill="none" stroke="#63b8ff" d="M388.58,-109.98C425.79,-100.55 485.73,-85.35 525,-75.39"/>
<polygon fill="#63b8ff" stroke="#63b8ff" points="530.16,-74.08 525.86,-77.49 527.73,-74.7 525.31,-75.31 525.31,-75.31 525.31,-75.31 527.73,-74.7 524.76,-73.13 530.16,-74.08 530.16,-74.08"/>
</a>
</g>
</g>
<!-- Node13&#45;&gt;Node14 -->
<g id="edge16_Node000013_Node000014" class="edge">
<title>Node13&#45;&gt;Node14</title>
<g id="a_edge16_Node000013_Node000014"><a xlink:title=" ">
<path fill="none" stroke="#63b8ff" d="M339.42,-109.98C322.83,-100.92 296.51,-86.54 278.31,-76.6"/>
<polygon fill="#63b8ff" stroke="#63b8ff" points="273.87,-74.17 279.33,-74.59 276.06,-75.37 278.26,-76.57 278.26,-76.57 278.26,-76.57 276.06,-75.37 277.18,-78.54 273.87,-74.17 273.87,-74.17"/>
</a>
</g>
</g>
<!-- Node13&#45;&gt;Node15 -->
<g id="edge18_Node000013_Node000015" class="edge">
<title>Node13&#45;&gt;Node15</title>
<g id="a_edge18_Node000013_Node000015"><a xlink:title=" ">
<path fill="none" stroke="#63b8ff" d="M350.54,-109.75C346.22,-101.26 339.6,-88.27 334.65,-78.56"/>
<polygon fill="#63b8ff" stroke="#63b8ff" points="332.38,-74.09 336.65,-77.52 333.51,-76.32 334.65,-78.54 334.65,-78.54 334.65,-78.54 333.51,-76.32 332.64,-79.57 332.38,-74.09 332.38,-74.09"/>
</a>
</g>
</g>
<!-- Node21&#45;&gt;Node7 -->
<g id="edge32_Node000021_Node000007" class="edge">
<title>Node21&#45;&gt;Node7</title>
<g id="a_edge32_Node000021_Node000007"><a xlink:title=" ">
<path fill="none" stroke="#63b8ff" d="M683.01,-274.87C693.27,-243.97 724.79,-136.35 696,-55 691.61,-42.6 682.14,-31.13 674.01,-22.94"/>
<polygon fill="#63b8ff" stroke="#63b8ff" points="670.16,-19.19 675.31,-21.07 671.95,-20.94 673.74,-22.68 673.74,-22.68 673.74,-22.68 671.95,-20.94 672.18,-24.29 670.16,-19.19 670.16,-19.19"/>
</a>
</g>
</g>
<!-- Node21&#45;&gt;Node17 -->
<g id="edge33_Node000021_Node000017" class="edge">
<title>Node21&#45;&gt;Node17</title>
<g id="a_edge33_Node000021_Node000017"><a xlink:title=" ">
<path fill="none" stroke="#63b8ff" d="M687.1,-274.74C709.03,-247.65 775.81,-165.19 801.64,-133.29"/>
<polygon fill="#63b8ff" stroke="#63b8ff" points="804.87,-129.31 803.47,-134.61 803.29,-131.25 801.72,-133.19 801.72,-133.19 801.72,-133.19 803.29,-131.25 799.97,-131.78 804.87,-129.31 804.87,-129.31"/>
</a>
</g>
</g>
<!-- Node21&#45;&gt;Node22 -->
<g id="edge31_Node000021_Node000022" class="edge">
<title>Node21&#45;&gt;Node22</title>
<g id="a_edge31_Node000021_Node000022"><a xlink:title=" ">
<path fill="none" stroke="#63b8ff" d="M697.19,-274.98C715.57,-265.88 744.76,-251.42 764.85,-241.47"/>
<polygon fill="#63b8ff" stroke="#63b8ff" points="769.5,-239.17 766.01,-243.41 767.26,-240.28 765.02,-241.39 765.02,-241.39 765.02,-241.39 767.26,-240.28 764.02,-239.37 769.5,-239.17 769.5,-239.17"/>
</a>
</g>
</g>
<!-- Node23 -->
<g id="Node000023" class="node">
<title>Node23</title>
<g id="a_Node000023"><a xlink:title=" ">
<polygon fill="#e0e0e0" stroke="#999999" points="652,-239 596,-239 596,-220 652,-220 652,-239"/>
<text text-anchor="middle" x="624" y="-227" font-family="Helvetica,sans-Serif" font-size="10.00">QObject</text>
</a>
</g>
</g>
<!-- Node21&#45;&gt;Node23 -->
<g id="edge34_Node000021_Node000023" class="edge">
<title>Node21&#45;&gt;Node23</title>
<g id="a_edge34_Node000021_Node000023"><a xlink:title=" ">
<path fill="none" stroke="#63b8ff" d="M671,-274.98C661.75,-266.23 647.26,-252.51 636.81,-242.62"/>
<polygon fill="#63b8ff" stroke="#63b8ff" points="633.16,-239.17 638.34,-240.97 634.98,-240.89 636.79,-242.61 636.79,-242.61 636.79,-242.61 634.98,-240.89 635.25,-244.24 633.16,-239.17 633.16,-239.17"/>
</a>
</g>
</g>
<!-- Node24&#45;&gt;Node11 -->
<g id="edge36_Node000024_Node000011" class="edge">
<title>Node24&#45;&gt;Node11</title>
<g id="a_edge36_Node000024_Node000011"><a xlink:title=" ">
<path fill="none" stroke="#63b8ff" d="M450.47,-274.98C427.17,-265.77 389.97,-251.05 364.79,-241.1"/>
<polygon fill="#63b8ff" stroke="#63b8ff" points="359.92,-239.17 365.4,-238.92 362.25,-240.09 364.57,-241.01 364.57,-241.01 364.57,-241.01 362.25,-240.09 363.74,-243.1 359.92,-239.17 359.92,-239.17"/>
</a>
</g>
</g>
<!-- Node24&#45;&gt;Node20 -->
<g id="edge37_Node000024_Node000020" class="edge">
<title>Node24&#45;&gt;Node20</title>
<g id="a_edge37_Node000024_Node000020"><a xlink:title=" ">
<path fill="none" stroke="#63b8ff" d="M472,-274.75C472,-266.41 472,-253.74 472,-244.09"/>
<polygon fill="#63b8ff" stroke="#63b8ff" points="472,-239.09 474.25,-244.09 472,-241.59 472,-244.09 472,-244.09 472,-244.09 472,-241.59 469.75,-244.09 472,-239.09 472,-239.09"/>
</a>
</g>
</g>
<!-- Node24&#45;&gt;Node23 -->
<g id="edge38_Node000024_Node000023" class="edge">
<title>Node24&#45;&gt;Node23</title>
<g id="a_edge38_Node000024_Node000023"><a xlink:title=" ">
<path fill="none" stroke="#63b8ff" d="M496.42,-274.98C523.16,-265.66 566.01,-250.72 594.58,-240.76"/>
<polygon fill="#63b8ff" stroke="#63b8ff" points="599.39,-239.08 595.41,-242.85 597.03,-239.91 594.67,-240.73 594.67,-240.73 594.67,-240.73 597.03,-239.91 593.93,-238.6 599.39,-239.08 599.39,-239.08"/>
</a>
</g>
</g>
</g>
</svg>

<g id="navigator" transform="translate(0 0)" fill="#404254">
  <rect fill="#f2f5e9" fill-opacity="0.5" stroke="#606060" stroke-width=".5" x="0" y="0" width="60" height="60"/>
  <use id="zoomplus" xlink:href="#zoomPlus" x="17" y="9" onmousedown="handleZoom(evt,'in')"/>
  <use id="zoomminus" xlink:href="#zoomMin" x="42" y="9" onmousedown="handleZoom(evt,'out')"/>
  <use id="reset" xlink:href="#resetDef" x="30" y="36" onmousedown="handleReset()"/>
   <use id="arrowup" xlink:href="#arrowUp" x="0" y="0" onmousedown="handlePan(0,-1)"/>
  <use id="arrowright" xlink:href="#arrowRight" x="0" y="0" onmousedown="handlePan(1,0)"/>
  <use id="arrowdown" xlink:href="#arrowDown" x="0" y="0" onmousedown="handlePan(0,1)"/>
  <use id="arrowleft" xlink:href="#arrowLeft" x="0" y="0" onmousedown="handlePan(-1,0)"/>
</g>
<svg viewBox="0 0 15 15" width="100%" height="30px" preserveAspectRatio="xMaxYMin meet">
 <g id="arrow_out" transform="scale(0.3 0.3)">
  <a xlink:href="deck__list__sort__filter__proxy__model_8h__incl_org.svg" target="_base">
   <rect id="button" ry="5" rx="5" y="6" x="6" height="38" width="38"
        fill="#f2f5e9" fill-opacity="0.5" stroke="#606060" stroke-width="1.0"/>
   <path id="arrow"
     d="M 11.500037,31.436501 C 11.940474,20.09759 22.043105,11.32322 32.158766,21.979434 L 37.068811,17.246167 C 37.068811,17.246167 37.088388,32 37.088388,32 L 22.160133,31.978069 C 22.160133,31.978069 26.997745,27.140456 26.997745,27.140456 C 18.528582,18.264221 13.291696,25.230495 11.500037,31.436501 z"
     style="fill:#404040;"/>
  </a>
 </g>
</svg>

<style type='text/css'>
<![CDATA[
[data-mouse-over-selected='false'] { opacity: 0.7; }
[data-mouse-over-selected='true']  { opacity: 1.0; }
]]>
</style>
<script type="application/ecmascript"><![CDATA[
document.addEventListener('DOMContentLoaded', (event) => {
  highlightEdges();
  highlightAdjacentNodes();
});
]]></script>
</svg>
