<?xml version="1.0" encoding="UTF-8" standalone="no"?>
<!DOCTYPE svg PUBLIC "-//W3C//DTD SVG 1.1//EN"
 "http://www.w3.org/Graphics/SVG/1.1/DTD/svg11.dtd">
<!-- Generated by graphviz version 2.43.0 (0)
 -->
<!-- Title: cockatrice/src/interface/widgets/tabs/api/archidekt/display/archidekt_api_response_deck_listings_display_widget.h Pages: 1 -->
<svg width="360pt" height="148pt"
 viewBox="0.00 0.00 360.00 148.00" xmlns="http://www.w3.org/2000/svg" xmlns:xlink="http://www.w3.org/1999/xlink">
<g id="graph0" class="graph" transform="scale(1 1) rotate(0) translate(4 144)">
<title>cockatrice/src/interface/widgets/tabs/api/archidekt/display/archidekt_api_response_deck_listings_display_widget.h</title>
<!-- Node1 -->
<g id="Node000001" class="node">
<title>Node1</title>
<g id="a_Node000001"><a xlink:title=" ">
<polygon fill="#999999" stroke="#666666" points="271,-140 98,-140 98,-88 271,-88 271,-140"/>
<text text-anchor="start" x="106" y="-128" font-family="Helvetica,sans-Serif" font-size="10.00">cockatrice/src/interface</text>
<text text-anchor="start" x="106" y="-117" font-family="Helvetica,sans-Serif" font-size="10.00">/widgets/tabs/api/archidekt</text>
<text text-anchor="start" x="106" y="-106" font-family="Helvetica,sans-Serif" font-size="10.00">/display/archidekt_api_response</text>
<text text-anchor="middle" x="184.5" y="-95" font-family="Helvetica,sans-Serif" font-size="10.00">_deck_listings_display_widget.h</text>
</a>
</g>
</g>
<!-- Node2 -->
<g id="Node000002" class="node">
<title>Node2</title>
<g id="a_Node000002"><a xlink:href="../../d3/d64/archidekt__api__response__deck__listings__display__widget_8cpp.html" target="_top" xlink:title=" ">
<polygon fill="white" stroke="#666666" points="185,-52 0,-52 0,0 185,0 185,-52"/>
<text text-anchor="start" x="8" y="-40" font-family="Helvetica,sans-Serif" font-size="10.00">cockatrice/src/interface</text>
<text text-anchor="start" x="8" y="-29" font-family="Helvetica,sans-Serif" font-size="10.00">/widgets/tabs/api/archidekt</text>
<text text-anchor="start" x="8" y="-18" font-family="Helvetica,sans-Serif" font-size="10.00">/display/archidekt_api_response</text>
<text text-anchor="middle" x="92.5" y="-7" font-family="Helvetica,sans-Serif" font-size="10.00">_deck_listings_display_widget.cpp</text>
</a>
</g>
</g>
<!-- Node1&#45;&gt;Node2 -->
<g id="edge1_Node000001_Node000002" class="edge">
<title>Node1&#45;&gt;Node2</title>
<g id="a_edge1_Node000001_Node000002"><a xlink:title=" ">
<path fill="none" stroke="#63b8ff" d="M153.69,-84.19C142.58,-73.82 130.15,-62.2 119.41,-52.16"/>
<polygon fill="#63b8ff" stroke="#63b8ff" points="157.39,-87.66 152.21,-85.89 155.57,-85.96 153.74,-84.25 153.74,-84.25 153.74,-84.25 155.57,-85.96 155.28,-82.6 157.39,-87.66 157.39,-87.66"/>
</a>
</g>
</g>
<!-- Node3 -->
<g id="Node000003" class="node">
<title>Node3</title>
<g id="a_Node000003"><a xlink:href="../../d7/d3d/tab__archidekt_8cpp.html" target="_top" xlink:title=" ">
<polygon fill="white" stroke="#666666" points="352,-46.5 203,-46.5 203,-5.5 352,-5.5 352,-46.5"/>
<text text-anchor="start" x="211" y="-34.5" font-family="Helvetica,sans-Serif" font-size="10.00">cockatrice/src/interface</text>
<text text-anchor="start" x="211" y="-23.5" font-family="Helvetica,sans-Serif" font-size="10.00">/widgets/tabs/api/archidekt</text>
<text text-anchor="middle" x="277.5" y="-12.5" font-family="Helvetica,sans-Serif" font-size="10.00">/tab_archidekt.cpp</text>
</a>
</g>
</g>
<!-- Node1&#45;&gt;Node3 -->
<g id="edge2_Node000001_Node000003" class="edge">
<title>Node1&#45;&gt;Node3</title>
<g id="a_edge2_Node000001_Node000003"><a xlink:title=" ">
<path fill="none" stroke="#63b8ff" d="M215.61,-84.24C228.94,-71.91 244.17,-57.82 256.19,-46.7"/>
<polygon fill="#63b8ff" stroke="#63b8ff" points="211.9,-87.66 214.04,-82.62 213.74,-85.96 215.57,-84.27 215.57,-84.27 215.57,-84.27 213.74,-85.96 217.1,-85.92 211.9,-87.66 211.9,-87.66"/>
</a>
</g>
</g>
</g>
</svg>
