<?xml version="1.0" encoding="UTF-8" standalone="no"?>
<!DOCTYPE svg PUBLIC "-//W3C//DTD SVG 1.1//EN"
 "http://www.w3.org/Graphics/SVG/1.1/DTD/svg11.dtd">
<!-- Generated by graphviz version 2.43.0 (0)
 -->
<!-- Title: libcockatrice_network/libcockatrice/network/server/remote/server_room.h Pages: 1 -->
<!--zoomable 137 -->

<svg id="main" version="1.1" xmlns="http://www.w3.org/2000/svg" xmlns:xlink="http://www.w3.org/1999/xlink" xml:space="preserve" onload="init(evt)">

<style type="text/css"><![CDATA[
.node, .edge {opacity: 0.7;}
.node.selected, .edge.selected {opacity: 1;}
.edge:hover path { stroke: red; }
.edge:hover polygon { stroke: red; fill: red; }
]]></style>

<defs>
  <circle id="rim" cx="0" cy="0" r="7"/>
  <circle id="rim2" cx="0" cy="0" r="3.5"/>
  <g id="zoomPlus">
    <use xlink:href="#rim" fill="#404040"><set attributeName="fill" to="#808080" begin="zoomplus.mouseover" end="zoomplus.mouseout"/></use>
    <path d="M-4,0h8M0,-4v8" fill="none" stroke="white" stroke-width="1.5" pointer-events="none"/>
  </g>
  <g id="zoomMin">
    <use xlink:href="#rim" fill="#404040"><set attributeName="fill" to="#808080" begin="zoomminus.mouseover" end="zoomminus.mouseout"/></use>
    <path d="M-4,0h8" fill="none" stroke="white" stroke-width="1.5" pointer-events="none"/>
  </g>
  <g id="arrowUp" transform="translate(30 24)">
    <use xlink:href="#rim"/>
    <path pointer-events="none" fill="none" stroke="white" stroke-width="1.5" d="M0,-3.0v7 M-2.5,-0.5L0,-3.0L2.5,-0.5"/>
  </g>
  <g id="arrowRight" transform="rotate(90) translate(36 -43)">
    <use xlink:href="#rim"/>
    <path pointer-events="none" fill="none" stroke="white" stroke-width="1.5" d="M0,-3.0v7 M-2.5,-0.5L0,-3.0L2.5,-0.5"/>
  </g>
  <g id="arrowDown" transform="rotate(180) translate(-30 -48)">
    <use xlink:href="#rim"/>
    <path pointer-events="none" fill="none" stroke="white" stroke-width="1.5" d="M0,-3.0v7 M-2.5,-0.5L0,-3.0L2.5,-0.5"/>
  </g>
  <g id="arrowLeft" transform="rotate(270) translate(-36 17)">
    <use xlink:href="#rim"/>
    <path pointer-events="none" fill="none" stroke="white" stroke-width="1.5" d="M0,-3.0v7 M-2.5,-0.5L0,-3.0L2.5,-0.5"/>
  </g>
  <g id="resetDef">
    <use xlink:href="#rim2" fill="#404040"><set attributeName="fill" to="#808080" begin="reset.mouseover" end="reset.mouseout"/></use>
  </g>
</defs>
<script type="application/ecmascript">
var viewWidth = 2062;
var viewHeight = 137;
var sectionId = 'dynsection-1';
</script>
<script type="application/ecmascript" xlink:href="../../svg.min.js"/>
<svg id="graph" class="graph">
<g id="viewport">
<title>libcockatrice_network/libcockatrice/network/server/remote/server_room.h</title>
<!-- Node1 -->
<g id="Node000001" class="node">
<title>Node1</title>
<g id="a_Node000001"><a xlink:title=" ">
<polygon fill="#999999" stroke="#666666" points="1057,-129 895,-129 895,-88 1057,-88 1057,-129"/>
<text text-anchor="start" x="903" y="-117" font-family="Helvetica,sans-Serif" font-size="10.00">libcockatrice_network</text>
<text text-anchor="start" x="903" y="-106" font-family="Helvetica,sans-Serif" font-size="10.00">/libcockatrice/network</text>
<text text-anchor="middle" x="976" y="-95" font-family="Helvetica,sans-Serif" font-size="10.00">/server/remote/server_room.h</text>
</a>
</g>
</g>
<!-- Node2 -->
<g id="Node000002" class="node">
<title>Node2</title>
<g id="a_Node000002"><a xlink:href="../../d5/dfa/local__server_8cpp.html" target="_top" xlink:title=" ">
<polygon fill="white" stroke="#666666" points="158,-46.5 0,-46.5 0,-5.5 158,-5.5 158,-46.5"/>
<text text-anchor="start" x="8" y="-34.5" font-family="Helvetica,sans-Serif" font-size="10.00">libcockatrice_network</text>
<text text-anchor="start" x="8" y="-23.5" font-family="Helvetica,sans-Serif" font-size="10.00">/libcockatrice/network</text>
<text text-anchor="middle" x="79" y="-12.5" font-family="Helvetica,sans-Serif" font-size="10.00">/server/local/local_server.cpp</text>
</a>
</g>
</g>
<!-- Node1&#45;&gt;Node2 -->
<g id="edge1_Node000001_Node000002" class="edge">
<title>Node1&#45;&gt;Node2</title>
<g id="a_edge1_Node000001_Node000002"><a xlink:title=" ">
<path fill="none" stroke="#63b8ff" d="M889.74,-107.45C741.06,-106.07 427.42,-97.41 167,-52 158.71,-50.55 150.08,-48.64 141.6,-46.5"/>
<polygon fill="#63b8ff" stroke="#63b8ff" points="894.95,-107.5 889.93,-109.7 892.45,-107.48 889.95,-107.45 889.95,-107.45 889.95,-107.45 892.45,-107.48 889.97,-105.2 894.95,-107.5 894.95,-107.5"/>
</a>
</g>
</g>
<!-- Node3 -->
<g id="Node000003" class="node">
<title>Node3</title>
<g id="a_Node000003"><a xlink:href="../../d1/d18/server__abstract__participant_8cpp.html" target="_top" xlink:title=" ">
<polygon fill="white" stroke="#666666" points="329.5,-52 176.5,-52 176.5,0 329.5,0 329.5,-52"/>
<text text-anchor="start" x="184.5" y="-40" font-family="Helvetica,sans-Serif" font-size="10.00">libcockatrice_network</text>
<text text-anchor="start" x="184.5" y="-29" font-family="Helvetica,sans-Serif" font-size="10.00">/libcockatrice/network</text>
<text text-anchor="start" x="184.5" y="-18" font-family="Helvetica,sans-Serif" font-size="10.00">/server/remote/game/server</text>
<text text-anchor="middle" x="253" y="-7" font-family="Helvetica,sans-Serif" font-size="10.00">_abstract_participant.cpp</text>
</a>
</g>
</g>
<!-- Node1&#45;&gt;Node3 -->
<g id="edge2_Node000001_Node000003" class="edge">
<title>Node1&#45;&gt;Node3</title>
<g id="a_edge2_Node000001_Node000003"><a xlink:title=" ">
<path fill="none" stroke="#63b8ff" d="M889.92,-105.44C766.65,-101.27 533.18,-88.81 338,-52 335.28,-51.49 332.52,-50.92 329.74,-50.32"/>
<polygon fill="#63b8ff" stroke="#63b8ff" points="894.98,-105.61 889.91,-107.69 892.48,-105.53 889.98,-105.45 889.98,-105.45 889.98,-105.45 892.48,-105.53 890.06,-103.2 894.98,-105.61 894.98,-105.61"/>
</a>
</g>
</g>
<!-- Node4 -->
<g id="Node000004" class="node">
<title>Node4</title>
<g id="a_Node000004"><a xlink:href="../../d2/d84/server__game_8cpp.html" target="_top" xlink:title=" ">
<polygon fill="white" stroke="#666666" points="500.5,-52 347.5,-52 347.5,0 500.5,0 500.5,-52"/>
<text text-anchor="start" x="355.5" y="-40" font-family="Helvetica,sans-Serif" font-size="10.00">libcockatrice_network</text>
<text text-anchor="start" x="355.5" y="-29" font-family="Helvetica,sans-Serif" font-size="10.00">/libcockatrice/network</text>
<text text-anchor="start" x="355.5" y="-18" font-family="Helvetica,sans-Serif" font-size="10.00">/server/remote/game/server</text>
<text text-anchor="middle" x="424" y="-7" font-family="Helvetica,sans-Serif" font-size="10.00">_game.cpp</text>
</a>
</g>
</g>
<!-- Node1&#45;&gt;Node4 -->
<g id="edge3_Node000001_Node000004" class="edge">
<title>Node1&#45;&gt;Node4</title>
<g id="a_edge3_Node000001_Node000004"><a xlink:title=" ">
<path fill="none" stroke="#63b8ff" d="M889.77,-101.61C795.52,-94.16 640.42,-78.94 509,-52 506.29,-51.44 503.54,-50.84 500.77,-50.21"/>
<polygon fill="#63b8ff" stroke="#63b8ff" points="894.77,-102 889.61,-103.85 892.28,-101.8 889.78,-101.61 889.78,-101.61 889.78,-101.61 892.28,-101.8 889.96,-99.37 894.77,-102 894.77,-102"/>
</a>
</g>
</g>
<!-- Node5 -->
<g id="Node000005" class="node">
<title>Node5</title>
<g id="a_Node000005"><a xlink:href="../../d9/dfe/server__player_8cpp.html" target="_top" xlink:title=" ">
<polygon fill="white" stroke="#666666" points="671.5,-52 518.5,-52 518.5,0 671.5,0 671.5,-52"/>
<text text-anchor="start" x="526.5" y="-40" font-family="Helvetica,sans-Serif" font-size="10.00">libcockatrice_network</text>
<text text-anchor="start" x="526.5" y="-29" font-family="Helvetica,sans-Serif" font-size="10.00">/libcockatrice/network</text>
<text text-anchor="start" x="526.5" y="-18" font-family="Helvetica,sans-Serif" font-size="10.00">/server/remote/game/server</text>
<text text-anchor="middle" x="595" y="-7" font-family="Helvetica,sans-Serif" font-size="10.00">_player.cpp</text>
</a>
</g>
</g>
<!-- Node1&#45;&gt;Node5 -->
<g id="edge4_Node000001_Node000005" class="edge">
<title>Node1&#45;&gt;Node5</title>
<g id="a_edge4_Node000001_Node000005"><a xlink:title=" ">
<path fill="none" stroke="#63b8ff" d="M889.86,-93.56C830.78,-83.45 750.76,-68.66 681,-52 677.98,-51.28 674.9,-50.52 671.8,-49.72"/>
<polygon fill="#63b8ff" stroke="#63b8ff" points="894.79,-94.4 889.49,-95.78 892.33,-93.98 889.86,-93.56 889.86,-93.56 889.86,-93.56 892.33,-93.98 890.24,-91.34 894.79,-94.4 894.79,-94.4"/>
</a>
</g>
</g>
<!-- Node6 -->
<g id="Node000006" class="node">
<title>Node6</title>
<g id="a_Node000006"><a xlink:href="../../df/dd7/server_8cpp.html" target="_top" xlink:title=" ">
<polygon fill="white" stroke="#666666" points="832,-46.5 690,-46.5 690,-5.5 832,-5.5 832,-46.5"/>
<text text-anchor="start" x="698" y="-34.5" font-family="Helvetica,sans-Serif" font-size="10.00">libcockatrice_network</text>
<text text-anchor="start" x="698" y="-23.5" font-family="Helvetica,sans-Serif" font-size="10.00">/libcockatrice/network</text>
<text text-anchor="middle" x="761" y="-12.5" font-family="Helvetica,sans-Serif" font-size="10.00">/server/remote/server.cpp</text>
</a>
</g>
</g>
<!-- Node1&#45;&gt;Node6 -->
<g id="edge5_Node000001_Node000006" class="edge">
<title>Node1&#45;&gt;Node6</title>
<g id="a_edge5_Node000001_Node000006"><a xlink:title=" ">
<path fill="none" stroke="#63b8ff" d="M918.9,-86.12C886.07,-73.83 845.14,-58.5 813.18,-46.54"/>
<polygon fill="#63b8ff" stroke="#63b8ff" points="923.68,-87.91 918.21,-88.26 921.34,-87.03 919,-86.16 919,-86.16 919,-86.16 921.34,-87.03 919.79,-84.05 923.68,-87.91 923.68,-87.91"/>
</a>
</g>
</g>
<!-- Node7 -->
<g id="Node000007" class="node">
<title>Node7</title>
<g id="a_Node000007"><a xlink:href="../../d7/d65/server__abstractuserinterface_8cpp.html" target="_top" xlink:title=" ">
<polygon fill="white" stroke="#666666" points="1102,-46.5 850,-46.5 850,-5.5 1102,-5.5 1102,-46.5"/>
<text text-anchor="start" x="858" y="-34.5" font-family="Helvetica,sans-Serif" font-size="10.00">libcockatrice_network</text>
<text text-anchor="start" x="858" y="-23.5" font-family="Helvetica,sans-Serif" font-size="10.00">/libcockatrice/network</text>
<text text-anchor="middle" x="976" y="-12.5" font-family="Helvetica,sans-Serif" font-size="10.00">/server/remote/server_abstractuserinterface.cpp</text>
</a>
</g>
</g>
<!-- Node1&#45;&gt;Node7 -->
<g id="edge6_Node000001_Node000007" class="edge">
<title>Node1&#45;&gt;Node7</title>
<g id="a_edge6_Node000001_Node000007"><a xlink:title=" ">
<path fill="none" stroke="#63b8ff" d="M976,-82.46C976,-70.93 976,-57.45 976,-46.67"/>
<polygon fill="#63b8ff" stroke="#63b8ff" points="976,-87.6 973.75,-82.6 976,-85.1 976,-82.6 976,-82.6 976,-82.6 976,-85.1 978.25,-82.6 976,-87.6 976,-87.6"/>
</a>
</g>
</g>
<!-- Node8 -->
<g id="Node000008" class="node">
<title>Node8</title>
<g id="a_Node000008"><a xlink:href="../../d4/d38/server__protocolhandler_8cpp.html" target="_top" xlink:title=" ">
<polygon fill="white" stroke="#666666" points="1344,-46.5 1120,-46.5 1120,-5.5 1344,-5.5 1344,-46.5"/>
<text text-anchor="start" x="1128" y="-34.5" font-family="Helvetica,sans-Serif" font-size="10.00">libcockatrice_network</text>
<text text-anchor="start" x="1128" y="-23.5" font-family="Helvetica,sans-Serif" font-size="10.00">/libcockatrice/network</text>
<text text-anchor="middle" x="1232" y="-12.5" font-family="Helvetica,sans-Serif" font-size="10.00">/server/remote/server_protocolhandler.cpp</text>
</a>
</g>
</g>
<!-- Node1&#45;&gt;Node8 -->
<g id="edge7_Node000001_Node000008" class="edge">
<title>Node1&#45;&gt;Node8</title>
<g id="a_edge7_Node000001_Node000008"><a xlink:title=" ">
<path fill="none" stroke="#63b8ff" d="M1043.51,-86.27C1082.68,-73.95 1131.66,-58.55 1169.87,-46.54"/>
<polygon fill="#63b8ff" stroke="#63b8ff" points="1038.3,-87.91 1042.39,-84.26 1040.68,-87.16 1043.07,-86.41 1043.07,-86.41 1043.07,-86.41 1040.68,-87.16 1043.74,-88.56 1038.3,-87.91 1038.3,-87.91"/>
</a>
</g>
</g>
<!-- Node9 -->
<g id="Node000009" class="node">
<title>Node9</title>
<g id="a_Node000009"><a xlink:href="../../dd/da2/server__room_8cpp.html" target="_top" xlink:title=" ">
<polygon fill="white" stroke="#666666" points="1535.5,-46.5 1362.5,-46.5 1362.5,-5.5 1535.5,-5.5 1535.5,-46.5"/>
<text text-anchor="start" x="1370.5" y="-34.5" font-family="Helvetica,sans-Serif" font-size="10.00">libcockatrice_network</text>
<text text-anchor="start" x="1370.5" y="-23.5" font-family="Helvetica,sans-Serif" font-size="10.00">/libcockatrice/network</text>
<text text-anchor="middle" x="1449" y="-12.5" font-family="Helvetica,sans-Serif" font-size="10.00">/server/remote/server_room.cpp</text>
</a>
</g>
</g>
<!-- Node1&#45;&gt;Node9 -->
<g id="edge8_Node000001_Node000009" class="edge">
<title>Node1&#45;&gt;Node9</title>
<g id="a_edge8_Node000001_Node000009"><a xlink:title=" ">
<path fill="none" stroke="#63b8ff" d="M1062.33,-97.5C1139.05,-87.97 1254.03,-72.11 1353,-52 1360.93,-50.39 1369.19,-48.53 1377.38,-46.56"/>
<polygon fill="#63b8ff" stroke="#63b8ff" points="1057.34,-98.12 1062.02,-95.27 1059.82,-97.81 1062.3,-97.5 1062.3,-97.5 1062.3,-97.5 1059.82,-97.81 1062.58,-99.74 1057.34,-98.12 1057.34,-98.12"/>
</a>
</g>
</g>
<!-- Node10 -->
<g id="Node000010" class="node">
<title>Node10</title>
<g id="a_Node000010"><a xlink:href="../../d7/d07/isl__interface_8cpp.html" target="_top" xlink:title=" ">
<polygon fill="white" stroke="#666666" points="1650.5,-41 1553.5,-41 1553.5,-11 1650.5,-11 1650.5,-41"/>
<text text-anchor="start" x="1561.5" y="-29" font-family="Helvetica,sans-Serif" font-size="10.00">servatrice/src/isl</text>
<text text-anchor="middle" x="1602" y="-18" font-family="Helvetica,sans-Serif" font-size="10.00">_interface.cpp</text>
</a>
</g>
</g>
<!-- Node1&#45;&gt;Node10 -->
<g id="edge9_Node000001_Node000010" class="edge">
<title>Node1&#45;&gt;Node10</title>
<g id="a_edge9_Node000001_Node000010"><a xlink:title=" ">
<path fill="none" stroke="#63b8ff" d="M1062.33,-107.49C1175.11,-105.58 1377.91,-95.61 1545,-52 1555.04,-49.38 1565.56,-45.21 1574.8,-41.02"/>
<polygon fill="#63b8ff" stroke="#63b8ff" points="1057.02,-107.57 1061.99,-105.24 1059.52,-107.53 1062.02,-107.49 1062.02,-107.49 1062.02,-107.49 1059.52,-107.53 1062.06,-109.74 1057.02,-107.57 1057.02,-107.57"/>
</a>
</g>
</g>
<!-- Node11 -->
<g id="Node000011" class="node">
<title>Node11</title>
<g id="a_Node000011"><a xlink:href="../../d5/d26/servatrice_8cpp.html" target="_top" xlink:title=" ">
<polygon fill="white" stroke="#666666" points="1823.5,-35.5 1668.5,-35.5 1668.5,-16.5 1823.5,-16.5 1823.5,-35.5"/>
<text text-anchor="middle" x="1746" y="-23.5" font-family="Helvetica,sans-Serif" font-size="10.00">servatrice/src/servatrice.cpp</text>
</a>
</g>
</g>
<!-- Node1&#45;&gt;Node11 -->
<g id="edge10_Node000001_Node000011" class="edge">
<title>Node1&#45;&gt;Node11</title>
<g id="a_edge10_Node000001_Node000011"><a xlink:title=" ">
<path fill="none" stroke="#63b8ff" d="M1062.6,-106.06C1193.14,-102.64 1447.64,-91.07 1660,-52 1681.1,-48.12 1704.44,-41.16 1721.48,-35.56"/>
<polygon fill="#63b8ff" stroke="#63b8ff" points="1057.24,-106.2 1062.18,-103.82 1059.74,-106.13 1062.24,-106.07 1062.24,-106.07 1062.24,-106.07 1059.74,-106.13 1062.3,-108.32 1057.24,-106.2 1057.24,-106.2"/>
</a>
</g>
</g>
<!-- Node12 -->
<g id="Node000012" class="node">
<title>Node12</title>
<g id="a_Node000012"><a xlink:href="../../d0/dc5/serversocketinterface_8cpp.html" target="_top" xlink:title=" ">
<polygon fill="white" stroke="#666666" points="2054,-35.5 1842,-35.5 1842,-16.5 2054,-16.5 2054,-35.5"/>
<text text-anchor="middle" x="1948" y="-23.5" font-family="Helvetica,sans-Serif" font-size="10.00">servatrice/src/serversocketinterface.cpp</text>
</a>
</g>
</g>
<!-- Node1&#45;&gt;Node12 -->
<g id="edge11_Node000001_Node000012" class="edge">
<title>Node1&#45;&gt;Node12</title>
<g id="a_edge11_Node000001_Node000012"><a xlink:title=" ">
<path fill="none" stroke="#63b8ff" d="M1062.49,-106.16C1217.6,-102.82 1553.01,-91.27 1833,-52 1860.92,-48.08 1892.16,-41.12 1915.02,-35.54"/>
<polygon fill="#63b8ff" stroke="#63b8ff" points="1057.05,-106.28 1062,-103.92 1059.55,-106.22 1062.05,-106.17 1062.05,-106.17 1062.05,-106.17 1059.55,-106.22 1062.1,-108.42 1057.05,-106.28 1057.05,-106.28"/>
</a>
</g>
</g>
</g>
</svg>

<g id="navigator" transform="translate(0 0)" fill="#404254">
  <rect fill="#f2f5e9" fill-opacity="0.5" stroke="#606060" stroke-width=".5" x="0" y="0" width="60" height="60"/>
  <use id="zoomplus" xlink:href="#zoomPlus" x="17" y="9" onmousedown="handleZoom(evt,'in')"/>
  <use id="zoomminus" xlink:href="#zoomMin" x="42" y="9" onmousedown="handleZoom(evt,'out')"/>
  <use id="reset" xlink:href="#resetDef" x="30" y="36" onmousedown="handleReset()"/>
   <use id="arrowup" xlink:href="#arrowUp" x="0" y="0" onmousedown="handlePan(0,-1)"/>
  <use id="arrowright" xlink:href="#arrowRight" x="0" y="0" onmousedown="handlePan(1,0)"/>
  <use id="arrowdown" xlink:href="#arrowDown" x="0" y="0" onmousedown="handlePan(0,1)"/>
  <use id="arrowleft" xlink:href="#arrowLeft" x="0" y="0" onmousedown="handlePan(-1,0)"/>
</g>
<svg viewBox="0 0 15 15" width="100%" height="30px" preserveAspectRatio="xMaxYMin meet">
 <g id="arrow_out" transform="scale(0.3 0.3)">
  <a xlink:href="server__room_8h__dep__incl_org.svg" target="_base">
   <rect id="button" ry="5" rx="5" y="6" x="6" height="38" width="38"
        fill="#f2f5e9" fill-opacity="0.5" stroke="#606060" stroke-width="1.0"/>
   <path id="arrow"
     d="M 11.500037,31.436501 C 11.940474,20.09759 22.043105,11.32322 32.158766,21.979434 L 37.068811,17.246167 C 37.068811,17.246167 37.088388,32 37.088388,32 L 22.160133,31.978069 C 22.160133,31.978069 26.997745,27.140456 26.997745,27.140456 C 18.528582,18.264221 13.291696,25.230495 11.500037,31.436501 z"
     style="fill:#404040;"/>
  </a>
 </g>
</svg>

<style type='text/css'>
<![CDATA[
[data-mouse-over-selected='false'] { opacity: 0.7; }
[data-mouse-over-selected='true']  { opacity: 1.0; }
]]>
</style>
<script type="application/ecmascript"><![CDATA[
document.addEventListener('DOMContentLoaded', (event) => {
  highlightEdges();
  highlightAdjacentNodes();
});
]]></script>
</svg>
