<?xml version="1.0" encoding="UTF-8" standalone="no"?>
<!DOCTYPE svg PUBLIC "-//W3C//DTD SVG 1.1//EN"
 "http://www.w3.org/Graphics/SVG/1.1/DTD/svg11.dtd">
<!-- Generated by graphviz version 2.43.0 (0)
 -->
<!-- Title: cockatrice/src/interface/widgets/tabs/api/edhrec/tab_edhrec.h Pages: 1 -->
<!--zoomable 368 -->

<svg id="main" version="1.1" xmlns="http://www.w3.org/2000/svg" xmlns:xlink="http://www.w3.org/1999/xlink" xml:space="preserve" onload="init(evt)">

<style type="text/css"><![CDATA[
.node, .edge {opacity: 0.7;}
.node.selected, .edge.selected {opacity: 1;}
.edge:hover path { stroke: red; }
.edge:hover polygon { stroke: red; fill: red; }
]]></style>

<defs>
  <circle id="rim" cx="0" cy="0" r="7"/>
  <circle id="rim2" cx="0" cy="0" r="3.5"/>
  <g id="zoomPlus">
    <use xlink:href="#rim" fill="#404040"><set attributeName="fill" to="#808080" begin="zoomplus.mouseover" end="zoomplus.mouseout"/></use>
    <path d="M-4,0h8M0,-4v8" fill="none" stroke="white" stroke-width="1.5" pointer-events="none"/>
  </g>
  <g id="zoomMin">
    <use xlink:href="#rim" fill="#404040"><set attributeName="fill" to="#808080" begin="zoomminus.mouseover" end="zoomminus.mouseout"/></use>
    <path d="M-4,0h8" fill="none" stroke="white" stroke-width="1.5" pointer-events="none"/>
  </g>
  <g id="arrowUp" transform="translate(30 24)">
    <use xlink:href="#rim"/>
    <path pointer-events="none" fill="none" stroke="white" stroke-width="1.5" d="M0,-3.0v7 M-2.5,-0.5L0,-3.0L2.5,-0.5"/>
  </g>
  <g id="arrowRight" transform="rotate(90) translate(36 -43)">
    <use xlink:href="#rim"/>
    <path pointer-events="none" fill="none" stroke="white" stroke-width="1.5" d="M0,-3.0v7 M-2.5,-0.5L0,-3.0L2.5,-0.5"/>
  </g>
  <g id="arrowDown" transform="rotate(180) translate(-30 -48)">
    <use xlink:href="#rim"/>
    <path pointer-events="none" fill="none" stroke="white" stroke-width="1.5" d="M0,-3.0v7 M-2.5,-0.5L0,-3.0L2.5,-0.5"/>
  </g>
  <g id="arrowLeft" transform="rotate(270) translate(-36 17)">
    <use xlink:href="#rim"/>
    <path pointer-events="none" fill="none" stroke="white" stroke-width="1.5" d="M0,-3.0v7 M-2.5,-0.5L0,-3.0L2.5,-0.5"/>
  </g>
  <g id="resetDef">
    <use xlink:href="#rim2" fill="#404040"><set attributeName="fill" to="#808080" begin="reset.mouseover" end="reset.mouseout"/></use>
  </g>
</defs>
<script type="application/ecmascript">
var viewWidth = 3194;
var viewHeight = 368;
var sectionId = 'dynsection-1';
</script>
<script type="application/ecmascript" xlink:href="../../svg.min.js"/>
<svg id="graph" class="graph">
<g id="viewport">
<title>cockatrice/src/interface/widgets/tabs/api/edhrec/tab_edhrec.h</title>
<!-- Node1 -->
<g id="Node000001" class="node">
<title>Node1</title>
<g id="a_Node000001"><a xlink:title=" ">
<polygon fill="#999999" stroke="#666666" points="1564.5,-360 1428.5,-360 1428.5,-319 1564.5,-319 1564.5,-360"/>
<text text-anchor="start" x="1436.5" y="-348" font-family="Helvetica,sans-Serif" font-size="10.00">cockatrice/src/interface</text>
<text text-anchor="start" x="1436.5" y="-337" font-family="Helvetica,sans-Serif" font-size="10.00">/widgets/tabs/api/edhrec</text>
<text text-anchor="middle" x="1496.5" y="-326" font-family="Helvetica,sans-Serif" font-size="10.00">/tab_edhrec.h</text>
</a>
</g>
</g>
<!-- Node2 -->
<g id="Node000002" class="node">
<title>Node2</title>
<g id="a_Node000002"><a xlink:href="../../d4/d6f/tab__edhrec_8cpp.html" target="_top" xlink:title=" ">
<polygon fill="white" stroke="#666666" points="1480.5,-283 1344.5,-283 1344.5,-242 1480.5,-242 1480.5,-283"/>
<text text-anchor="start" x="1352.5" y="-271" font-family="Helvetica,sans-Serif" font-size="10.00">cockatrice/src/interface</text>
<text text-anchor="start" x="1352.5" y="-260" font-family="Helvetica,sans-Serif" font-size="10.00">/widgets/tabs/api/edhrec</text>
<text text-anchor="middle" x="1412.5" y="-249" font-family="Helvetica,sans-Serif" font-size="10.00">/tab_edhrec.cpp</text>
</a>
</g>
</g>
<!-- Node1&#45;&gt;Node2 -->
<g id="edge1_Node000001_Node000002" class="edge">
<title>Node1&#45;&gt;Node2</title>
<g id="a_edge1_Node000001_Node000002"><a xlink:title=" ">
<path fill="none" stroke="#63b8ff" d="M1470.58,-315.36C1459,-305.02 1445.49,-292.96 1434.42,-283.07"/>
<polygon fill="#63b8ff" stroke="#63b8ff" points="1474.43,-318.79 1469.2,-317.14 1472.57,-317.13 1470.7,-315.46 1470.7,-315.46 1470.7,-315.46 1472.57,-317.13 1472.2,-313.79 1474.43,-318.79 1474.43,-318.79"/>
</a>
</g>
</g>
<!-- Node3 -->
<g id="Node000003" class="node">
<title>Node3</title>
<g id="a_Node000003"><a xlink:href="../../d8/d89/tab__supervisor_8h.html" target="_top" xlink:title=" ">
<polygon fill="white" stroke="#666666" points="1664,-277.5 1499,-277.5 1499,-247.5 1664,-247.5 1664,-277.5"/>
<text text-anchor="start" x="1507" y="-265.5" font-family="Helvetica,sans-Serif" font-size="10.00">cockatrice/src/interface</text>
<text text-anchor="middle" x="1581.5" y="-254.5" font-family="Helvetica,sans-Serif" font-size="10.00">/widgets/tabs/tab_supervisor.h</text>
</a>
</g>
</g>
<!-- Node1&#45;&gt;Node3 -->
<g id="edge2_Node000001_Node000003" class="edge">
<title>Node1&#45;&gt;Node3</title>
<g id="a_edge2_Node000001_Node000003"><a xlink:title=" ">
<path fill="none" stroke="#63b8ff" d="M1522.7,-315.38C1536.68,-303.04 1553.45,-288.25 1565.49,-277.63"/>
<polygon fill="#63b8ff" stroke="#63b8ff" points="1518.83,-318.79 1521.09,-313.8 1520.71,-317.14 1522.58,-315.49 1522.58,-315.49 1522.58,-315.49 1520.71,-317.14 1524.07,-317.17 1518.83,-318.79 1518.83,-318.79"/>
</a>
</g>
</g>
<!-- Node4 -->
<g id="Node000004" class="node">
<title>Node4</title>
<g id="a_Node000004"><a xlink:href="../../dd/d96/player__list__widget_8cpp.html" target="_top" xlink:title=" ">
<polygon fill="white" stroke="#666666" points="131,-200.5 0,-200.5 0,-159.5 131,-159.5 131,-200.5"/>
<text text-anchor="start" x="8" y="-188.5" font-family="Helvetica,sans-Serif" font-size="10.00">cockatrice/src/game</text>
<text text-anchor="start" x="8" y="-177.5" font-family="Helvetica,sans-Serif" font-size="10.00">_graphics/player/player</text>
<text text-anchor="middle" x="65.5" y="-166.5" font-family="Helvetica,sans-Serif" font-size="10.00">_list_widget.cpp</text>
</a>
</g>
</g>
<!-- Node3&#45;&gt;Node4 -->
<g id="edge3_Node000003_Node000004" class="edge">
<title>Node3&#45;&gt;Node4</title>
<g id="a_edge3_Node000003_Node000004"><a xlink:title=" ">
<path fill="none" stroke="#63b8ff" d="M1517.93,-246.46C1508.45,-244.67 1498.75,-243.09 1489.5,-242 1191.47,-206.74 434.96,-258.61 139.5,-206 132.16,-204.69 124.55,-202.79 117.14,-200.62"/>
<polygon fill="#63b8ff" stroke="#63b8ff" points="1522.87,-247.41 1517.53,-248.67 1520.42,-246.94 1517.96,-246.46 1517.96,-246.46 1517.96,-246.46 1520.42,-246.94 1518.39,-244.25 1522.87,-247.41 1522.87,-247.41"/>
</a>
</g>
</g>
<!-- Node5 -->
<g id="Node000005" class="node">
<title>Node5</title>
<g id="a_Node000005"><a xlink:href="../../da/d63/card__info__picture__widget_8cpp.html" target="_top" xlink:title=" ">
<polygon fill="white" stroke="#666666" points="284,-200.5 149,-200.5 149,-159.5 284,-159.5 284,-200.5"/>
<text text-anchor="start" x="157" y="-188.5" font-family="Helvetica,sans-Serif" font-size="10.00">cockatrice/src/interface</text>
<text text-anchor="start" x="157" y="-177.5" font-family="Helvetica,sans-Serif" font-size="10.00">/widgets/cards/card_info</text>
<text text-anchor="middle" x="216.5" y="-166.5" font-family="Helvetica,sans-Serif" font-size="10.00">_picture_widget.cpp</text>
</a>
</g>
</g>
<!-- Node3&#45;&gt;Node5 -->
<g id="edge4_Node000003_Node000005" class="edge">
<title>Node3&#45;&gt;Node5</title>
<g id="a_edge4_Node000003_Node000005"><a xlink:title=" ">
<path fill="none" stroke="#63b8ff" d="M1517.93,-246.49C1508.44,-244.69 1498.75,-243.11 1489.5,-242 961.49,-178.61 817.45,-297.03 293.5,-206 285.88,-204.68 277.99,-202.77 270.28,-200.59"/>
<polygon fill="#63b8ff" stroke="#63b8ff" points="1522.87,-247.44 1517.53,-248.7 1520.41,-246.97 1517.96,-246.49 1517.96,-246.49 1517.96,-246.49 1520.41,-246.97 1518.38,-244.28 1522.87,-247.44 1522.87,-247.44"/>
</a>
</g>
</g>
<!-- Node6 -->
<g id="Node000006" class="node">
<title>Node6</title>
<g id="a_Node000006"><a xlink:href="../../db/d0e/deck__editor__database__display__widget_8cpp.html" target="_top" xlink:title=" ">
<polygon fill="white" stroke="#666666" points="446.5,-206 302.5,-206 302.5,-154 446.5,-154 446.5,-206"/>
<text text-anchor="start" x="310.5" y="-194" font-family="Helvetica,sans-Serif" font-size="10.00">cockatrice/src/interface</text>
<text text-anchor="start" x="310.5" y="-183" font-family="Helvetica,sans-Serif" font-size="10.00">/widgets/deck_editor/deck</text>
<text text-anchor="start" x="310.5" y="-172" font-family="Helvetica,sans-Serif" font-size="10.00">_editor_database_display</text>
<text text-anchor="middle" x="374.5" y="-161" font-family="Helvetica,sans-Serif" font-size="10.00">_widget.cpp</text>
</a>
</g>
</g>
<!-- Node3&#45;&gt;Node6 -->
<g id="edge5_Node000003_Node000006" class="edge">
<title>Node3&#45;&gt;Node6</title>
<g id="a_edge5_Node000003_Node000006"><a xlink:title=" ">
<path fill="none" stroke="#63b8ff" d="M1517.92,-246.53C1508.44,-244.73 1498.75,-243.13 1489.5,-242 1035.28,-186.35 912.35,-278.43 460.5,-206 456.05,-205.29 451.5,-204.41 446.94,-203.43"/>
<polygon fill="#63b8ff" stroke="#63b8ff" points="1522.86,-247.48 1517.52,-248.74 1520.41,-247.01 1517.95,-246.53 1517.95,-246.53 1517.95,-246.53 1520.41,-247.01 1518.38,-244.32 1522.86,-247.48 1522.86,-247.48"/>
</a>
</g>
</g>
<!-- Node7 -->
<g id="Node000007" class="node">
<title>Node7</title>
<g id="a_Node000007"><a xlink:href="../../d2/ddc/home__widget_8cpp.html" target="_top" xlink:title=" ">
<polygon fill="white" stroke="#666666" points="595,-112.5 408,-112.5 408,-82.5 595,-82.5 595,-112.5"/>
<text text-anchor="start" x="416" y="-100.5" font-family="Helvetica,sans-Serif" font-size="10.00">cockatrice/src/interface</text>
<text text-anchor="middle" x="501.5" y="-89.5" font-family="Helvetica,sans-Serif" font-size="10.00">/widgets/general/home_widget.cpp</text>
</a>
</g>
</g>
<!-- Node3&#45;&gt;Node7 -->
<g id="edge6_Node000003_Node000007" class="edge">
<title>Node3&#45;&gt;Node7</title>
<g id="a_edge6_Node000003_Node000007"><a xlink:title=" ">
<path fill="none" stroke="#63b8ff" d="M1517.92,-246.54C1508.44,-244.74 1498.75,-243.14 1489.5,-242 1434.55,-235.23 531.94,-245.85 493.5,-206 469.33,-180.95 484.51,-135.55 494.61,-112.6"/>
<polygon fill="#63b8ff" stroke="#63b8ff" points="1522.86,-247.49 1517.52,-248.75 1520.41,-247.02 1517.95,-246.54 1517.95,-246.54 1517.95,-246.54 1520.41,-247.02 1518.38,-244.33 1522.86,-247.49 1522.86,-247.49"/>
</a>
</g>
</g>
<!-- Node8 -->
<g id="Node000008" class="node">
<title>Node8</title>
<g id="a_Node000008"><a xlink:href="../../d9/d29/home__widget_8h.html" target="_top" xlink:title=" ">
<polygon fill="white" stroke="#666666" points="678.5,-195 502.5,-195 502.5,-165 678.5,-165 678.5,-195"/>
<text text-anchor="start" x="510.5" y="-183" font-family="Helvetica,sans-Serif" font-size="10.00">cockatrice/src/interface</text>
<text text-anchor="middle" x="590.5" y="-172" font-family="Helvetica,sans-Serif" font-size="10.00">/widgets/general/home_widget.h</text>
</a>
</g>
</g>
<!-- Node3&#45;&gt;Node8 -->
<g id="edge7_Node000003_Node000008" class="edge">
<title>Node3&#45;&gt;Node8</title>
<g id="a_edge7_Node000003_Node000008"><a xlink:title=" ">
<path fill="none" stroke="#63b8ff" d="M1517.23,-246.48C1507.97,-244.72 1498.52,-243.15 1489.5,-242 1135.12,-196.81 1039.75,-259.31 686.5,-206 669.98,-203.51 652.2,-199.31 636.48,-195.07"/>
<polygon fill="#63b8ff" stroke="#63b8ff" points="1522.36,-247.47 1517.02,-248.73 1519.9,-247 1517.45,-246.52 1517.45,-246.52 1517.45,-246.52 1519.9,-247 1517.88,-244.31 1522.36,-247.47 1522.36,-247.47"/>
</a>
</g>
</g>
<!-- Node9 -->
<g id="Node000009" class="node">
<title>Node9</title>
<g id="a_Node000009"><a xlink:href="../../dc/df7/game__selector__quick__filter__toolbar_8h.html" target="_top" xlink:title=" ">
<polygon fill="white" stroke="#666666" points="863,-200.5 696,-200.5 696,-159.5 863,-159.5 863,-200.5"/>
<text text-anchor="start" x="704" y="-188.5" font-family="Helvetica,sans-Serif" font-size="10.00">cockatrice/src/interface</text>
<text text-anchor="start" x="704" y="-177.5" font-family="Helvetica,sans-Serif" font-size="10.00">/widgets/server/game_selector</text>
<text text-anchor="middle" x="779.5" y="-166.5" font-family="Helvetica,sans-Serif" font-size="10.00">_quick_filter_toolbar.h</text>
</a>
</g>
</g>
<!-- Node3&#45;&gt;Node9 -->
<g id="edge9_Node000003_Node000009" class="edge">
<title>Node3&#45;&gt;Node9</title>
<g id="a_edge9_Node000003_Node000009"><a xlink:title=" ">
<path fill="none" stroke="#63b8ff" d="M1516.8,-246.51C1507.67,-244.77 1498.37,-243.19 1489.5,-242 1217.26,-205.42 1143.66,-249.88 872.5,-206 863.75,-204.58 854.64,-202.68 845.69,-200.56"/>
<polygon fill="#63b8ff" stroke="#63b8ff" points="1521.85,-247.49 1516.51,-248.75 1519.39,-247.02 1516.94,-246.54 1516.94,-246.54 1516.94,-246.54 1519.39,-247.02 1517.37,-244.33 1521.85,-247.49 1521.85,-247.49"/>
</a>
</g>
</g>
<!-- Node15 -->
<g id="Node000015" class="node">
<title>Node15</title>
<g id="a_Node000015"><a xlink:href="../../db/d20/abstract__tab__deck__editor_8cpp.html" target="_top" xlink:title="Implementation of the AbstractTabDeckEditor class.">
<polygon fill="white" stroke="#666666" points="1011.5,-200.5 881.5,-200.5 881.5,-159.5 1011.5,-159.5 1011.5,-200.5"/>
<text text-anchor="start" x="889.5" y="-188.5" font-family="Helvetica,sans-Serif" font-size="10.00">cockatrice/src/interface</text>
<text text-anchor="start" x="889.5" y="-177.5" font-family="Helvetica,sans-Serif" font-size="10.00">/widgets/tabs/abstract</text>
<text text-anchor="middle" x="946.5" y="-166.5" font-family="Helvetica,sans-Serif" font-size="10.00">_tab_deck_editor.cpp</text>
</a>
</g>
</g>
<!-- Node3&#45;&gt;Node15 -->
<g id="edge15_Node000003_Node000015" class="edge">
<title>Node3&#45;&gt;Node15</title>
<g id="a_edge15_Node000003_Node000015"><a xlink:title=" ">
<path fill="none" stroke="#63b8ff" d="M1515.44,-246.4C1506.75,-244.74 1497.93,-243.21 1489.5,-242 1282.57,-212.26 1225.34,-247.78 1020.5,-206 1013.46,-204.56 1006.16,-202.65 999.01,-200.52"/>
<polygon fill="#63b8ff" stroke="#63b8ff" points="1520.83,-247.46 1515.49,-248.71 1518.38,-246.98 1515.93,-246.5 1515.93,-246.5 1515.93,-246.5 1518.38,-246.98 1516.36,-244.29 1520.83,-247.46 1520.83,-247.46"/>
</a>
</g>
</g>
<!-- Node16 -->
<g id="Node000016" class="node">
<title>Node16</title>
<g id="a_Node000016"><a xlink:href="../../d7/d3d/tab__archidekt_8cpp.html" target="_top" xlink:title=" ">
<polygon fill="white" stroke="#666666" points="1179,-200.5 1030,-200.5 1030,-159.5 1179,-159.5 1179,-200.5"/>
<text text-anchor="start" x="1038" y="-188.5" font-family="Helvetica,sans-Serif" font-size="10.00">cockatrice/src/interface</text>
<text text-anchor="start" x="1038" y="-177.5" font-family="Helvetica,sans-Serif" font-size="10.00">/widgets/tabs/api/archidekt</text>
<text text-anchor="middle" x="1104.5" y="-166.5" font-family="Helvetica,sans-Serif" font-size="10.00">/tab_archidekt.cpp</text>
</a>
</g>
</g>
<!-- Node3&#45;&gt;Node16 -->
<g id="edge16_Node000003_Node000016" class="edge">
<title>Node3&#45;&gt;Node16</title>
<g id="a_edge16_Node000003_Node000016"><a xlink:title=" ">
<path fill="none" stroke="#63b8ff" d="M1513.73,-246.42C1505.59,-244.82 1497.37,-243.3 1489.5,-242 1356.58,-220.01 1320.43,-233.32 1188.5,-206 1181.05,-204.46 1173.31,-202.56 1165.67,-200.52"/>
<polygon fill="#63b8ff" stroke="#63b8ff" points="1518.79,-247.42 1513.45,-248.65 1516.34,-246.94 1513.89,-246.45 1513.89,-246.45 1513.89,-246.45 1516.34,-246.94 1514.33,-244.24 1518.79,-247.42 1518.79,-247.42"/>
</a>
</g>
</g>
<!-- Node17 -->
<g id="Node000017" class="node">
<title>Node17</title>
<g id="a_Node000017"><a xlink:href="../../d5/d46/tab__edhrec__main_8cpp.html" target="_top" xlink:title=" ">
<polygon fill="white" stroke="#666666" points="1333.5,-200.5 1197.5,-200.5 1197.5,-159.5 1333.5,-159.5 1333.5,-200.5"/>
<text text-anchor="start" x="1205.5" y="-188.5" font-family="Helvetica,sans-Serif" font-size="10.00">cockatrice/src/interface</text>
<text text-anchor="start" x="1205.5" y="-177.5" font-family="Helvetica,sans-Serif" font-size="10.00">/widgets/tabs/api/edhrec</text>
<text text-anchor="middle" x="1265.5" y="-166.5" font-family="Helvetica,sans-Serif" font-size="10.00">/tab_edhrec_main.cpp</text>
</a>
</g>
</g>
<!-- Node3&#45;&gt;Node17 -->
<g id="edge17_Node000003_Node000017" class="edge">
<title>Node3&#45;&gt;Node17</title>
<g id="a_edge17_Node000003_Node000017"><a xlink:title=" ">
<path fill="none" stroke="#63b8ff" d="M1513.43,-246.38C1454.6,-233.18 1374.19,-214.81 1342.5,-206 1336.41,-204.31 1330.08,-202.44 1323.78,-200.5"/>
<polygon fill="#63b8ff" stroke="#63b8ff" points="1518.34,-247.48 1512.97,-248.58 1515.9,-246.93 1513.46,-246.38 1513.46,-246.38 1513.46,-246.38 1515.9,-246.93 1513.95,-244.19 1518.34,-247.48 1518.34,-247.48"/>
</a>
</g>
</g>
<!-- Node18 -->
<g id="Node000018" class="node">
<title>Node18</title>
<g id="a_Node000018"><a xlink:href="../../d9/d10/tab_8cpp.html" target="_top" xlink:title=" ">
<polygon fill="white" stroke="#666666" points="1481.5,-195 1351.5,-195 1351.5,-165 1481.5,-165 1481.5,-195"/>
<text text-anchor="start" x="1359.5" y="-183" font-family="Helvetica,sans-Serif" font-size="10.00">cockatrice/src/interface</text>
<text text-anchor="middle" x="1416.5" y="-172" font-family="Helvetica,sans-Serif" font-size="10.00">/widgets/tabs/tab.cpp</text>
</a>
</g>
</g>
<!-- Node3&#45;&gt;Node18 -->
<g id="edge18_Node000003_Node000018" class="edge">
<title>Node3&#45;&gt;Node18</title>
<g id="a_edge18_Node000003_Node000018"><a xlink:title=" ">
<path fill="none" stroke="#63b8ff" d="M1548.05,-245.18C1517.93,-230.48 1474.12,-209.11 1445.47,-195.13"/>
<polygon fill="#63b8ff" stroke="#63b8ff" points="1552.76,-247.48 1547.28,-247.31 1550.51,-246.38 1548.27,-245.29 1548.27,-245.29 1548.27,-245.29 1550.51,-246.38 1549.25,-243.26 1552.76,-247.48 1552.76,-247.48"/>
</a>
</g>
</g>
<!-- Node19 -->
<g id="Node000019" class="node">
<title>Node19</title>
<g id="a_Node000019"><a xlink:href="../../d1/d72/tab__account_8cpp.html" target="_top" xlink:title=" ">
<polygon fill="white" stroke="#666666" points="1663.5,-195 1499.5,-195 1499.5,-165 1663.5,-165 1663.5,-195"/>
<text text-anchor="start" x="1507.5" y="-183" font-family="Helvetica,sans-Serif" font-size="10.00">cockatrice/src/interface</text>
<text text-anchor="middle" x="1581.5" y="-172" font-family="Helvetica,sans-Serif" font-size="10.00">/widgets/tabs/tab_account.cpp</text>
</a>
</g>
</g>
<!-- Node3&#45;&gt;Node19 -->
<g id="edge19_Node000003_Node000019" class="edge">
<title>Node3&#45;&gt;Node19</title>
<g id="a_edge19_Node000003_Node000019"><a xlink:title=" ">
<path fill="none" stroke="#63b8ff" d="M1581.5,-242.38C1581.5,-227.87 1581.5,-208.25 1581.5,-195.13"/>
<polygon fill="#63b8ff" stroke="#63b8ff" points="1581.5,-247.48 1579.25,-242.48 1581.5,-244.98 1581.5,-242.48 1581.5,-242.48 1581.5,-242.48 1581.5,-244.98 1583.75,-242.48 1581.5,-247.48 1581.5,-247.48"/>
</a>
</g>
</g>
<!-- Node20 -->
<g id="Node000020" class="node">
<title>Node20</title>
<g id="a_Node000020"><a xlink:href="../../d2/d98/tab__card__art__rules_8h.html" target="_top" xlink:title=" ">
<polygon fill="white" stroke="#666666" points="1811.5,-200.5 1681.5,-200.5 1681.5,-159.5 1811.5,-159.5 1811.5,-200.5"/>
<text text-anchor="start" x="1689.5" y="-188.5" font-family="Helvetica,sans-Serif" font-size="10.00">cockatrice/src/interface</text>
<text text-anchor="start" x="1689.5" y="-177.5" font-family="Helvetica,sans-Serif" font-size="10.00">/widgets/tabs/tab_card</text>
<text text-anchor="middle" x="1746.5" y="-166.5" font-family="Helvetica,sans-Serif" font-size="10.00">_art_rules.h</text>
</a>
</g>
</g>
<!-- Node3&#45;&gt;Node20 -->
<g id="edge20_Node000003_Node000020" class="edge">
<title>Node3&#45;&gt;Node20</title>
<g id="a_edge20_Node000003_Node000020"><a xlink:title=" ">
<path fill="none" stroke="#63b8ff" d="M1615.05,-245.13C1641.46,-232.25 1678.36,-214.24 1706.35,-200.59"/>
<polygon fill="#63b8ff" stroke="#63b8ff" points="1610.24,-247.48 1613.75,-243.26 1612.49,-246.38 1614.73,-245.29 1614.73,-245.29 1614.73,-245.29 1612.49,-246.38 1615.72,-247.31 1610.24,-247.48 1610.24,-247.48"/>
</a>
</g>
</g>
<!-- Node22 -->
<g id="Node000022" class="node">
<title>Node22</title>
<g id="a_Node000022"><a xlink:href="../../da/d4e/tab__supervisor_8cpp.html" target="_top" xlink:title=" ">
<polygon fill="white" stroke="#666666" points="1927.5,-112.5 1751.5,-112.5 1751.5,-82.5 1927.5,-82.5 1927.5,-112.5"/>
<text text-anchor="start" x="1759.5" y="-100.5" font-family="Helvetica,sans-Serif" font-size="10.00">cockatrice/src/interface</text>
<text text-anchor="middle" x="1839.5" y="-89.5" font-family="Helvetica,sans-Serif" font-size="10.00">/widgets/tabs/tab_supervisor.cpp</text>
</a>
</g>
</g>
<!-- Node3&#45;&gt;Node22 -->
<g id="edge27_Node000003_Node000022" class="edge">
<title>Node3&#45;&gt;Node22</title>
<g id="a_edge27_Node000003_Node000022"><a xlink:title=" ">
<path fill="none" stroke="#63b8ff" d="M1669.08,-251.34C1728.42,-242.62 1799.69,-227.95 1820.5,-206 1844.62,-180.56 1843.8,-135.75 1841.49,-112.85"/>
<polygon fill="#63b8ff" stroke="#63b8ff" points="1664.11,-252.06 1668.73,-249.12 1666.58,-251.71 1669.06,-251.35 1669.06,-251.35 1669.06,-251.35 1666.58,-251.71 1669.38,-253.57 1664.11,-252.06 1664.11,-252.06"/>
</a>
</g>
</g>
<!-- Node23 -->
<g id="Node000023" class="node">
<title>Node23</title>
<g id="a_Node000023"><a xlink:href="../../df/d41/tab__deck__editor_8cpp.html" target="_top" xlink:title=" ">
<polygon fill="white" stroke="#666666" points="1997.5,-200.5 1867.5,-200.5 1867.5,-159.5 1997.5,-159.5 1997.5,-200.5"/>
<text text-anchor="start" x="1875.5" y="-188.5" font-family="Helvetica,sans-Serif" font-size="10.00">cockatrice/src/interface</text>
<text text-anchor="start" x="1875.5" y="-177.5" font-family="Helvetica,sans-Serif" font-size="10.00">/widgets/tabs/tab_deck</text>
<text text-anchor="middle" x="1932.5" y="-166.5" font-family="Helvetica,sans-Serif" font-size="10.00">_editor.cpp</text>
</a>
</g>
</g>
<!-- Node3&#45;&gt;Node23 -->
<g id="edge23_Node000003_Node000023" class="edge">
<title>Node3&#45;&gt;Node23</title>
<g id="a_edge23_Node000003_Node000023"><a xlink:title=" ">
<path fill="none" stroke="#63b8ff" d="M1666.61,-246.52C1720.5,-236.44 1791.47,-222.09 1853.5,-206 1859.91,-204.34 1866.56,-202.47 1873.17,-200.51"/>
<polygon fill="#63b8ff" stroke="#63b8ff" points="1661.45,-247.48 1665.96,-244.35 1663.91,-247.02 1666.37,-246.56 1666.37,-246.56 1666.37,-246.56 1663.91,-247.02 1666.78,-248.77 1661.45,-247.48 1661.45,-247.48"/>
</a>
</g>
</g>
<!-- Node24 -->
<g id="Node000024" class="node">
<title>Node24</title>
<g id="a_Node000024"><a xlink:href="../../d8/ddc/tab__game_8cpp.html" target="_top" xlink:title=" ">
<polygon fill="white" stroke="#666666" points="2169.5,-195 2015.5,-195 2015.5,-165 2169.5,-165 2169.5,-195"/>
<text text-anchor="start" x="2023.5" y="-183" font-family="Helvetica,sans-Serif" font-size="10.00">cockatrice/src/interface</text>
<text text-anchor="middle" x="2092.5" y="-172" font-family="Helvetica,sans-Serif" font-size="10.00">/widgets/tabs/tab_game.cpp</text>
</a>
</g>
</g>
<!-- Node3&#45;&gt;Node24 -->
<g id="edge24_Node000003_Node000024" class="edge">
<title>Node3&#45;&gt;Node24</title>
<g id="a_edge24_Node000003_Node000024"><a xlink:title=" ">
<path fill="none" stroke="#63b8ff" d="M1669.5,-253.97C1755.91,-245.65 1891.17,-230.14 2006.5,-206 2020.5,-203.07 2035.55,-199.02 2049.08,-195.03"/>
<polygon fill="#63b8ff" stroke="#63b8ff" points="1664.4,-254.46 1669.16,-251.75 1666.89,-254.22 1669.38,-253.99 1669.38,-253.99 1669.38,-253.99 1666.89,-254.22 1669.59,-256.23 1664.4,-254.46 1664.4,-254.46"/>
</a>
</g>
</g>
<!-- Node25 -->
<g id="Node000025" class="node">
<title>Node25</title>
<g id="a_Node000025"><a xlink:href="../../d6/d0d/tab__room_8cpp.html" target="_top" xlink:title=" ">
<polygon fill="white" stroke="#666666" points="2339.5,-195 2187.5,-195 2187.5,-165 2339.5,-165 2339.5,-195"/>
<text text-anchor="start" x="2195.5" y="-183" font-family="Helvetica,sans-Serif" font-size="10.00">cockatrice/src/interface</text>
<text text-anchor="middle" x="2263.5" y="-172" font-family="Helvetica,sans-Serif" font-size="10.00">/widgets/tabs/tab_room.cpp</text>
</a>
</g>
</g>
<!-- Node3&#45;&gt;Node25 -->
<g id="edge25_Node000003_Node000025" class="edge">
<title>Node3&#45;&gt;Node25</title>
<g id="a_edge25_Node000003_Node000025"><a xlink:title=" ">
<path fill="none" stroke="#63b8ff" d="M1669.45,-258.64C1786.55,-253.62 1999.7,-240.27 2178.5,-206 2192.7,-203.28 2207.93,-199.18 2221.52,-195.09"/>
<polygon fill="#63b8ff" stroke="#63b8ff" points="1664.29,-258.86 1669.19,-256.4 1666.79,-258.75 1669.29,-258.64 1669.29,-258.64 1669.29,-258.64 1666.79,-258.75 1669.38,-260.89 1664.29,-258.86 1664.29,-258.86"/>
</a>
</g>
</g>
<!-- Node26 -->
<g id="Node000026" class="node">
<title>Node26</title>
<g id="a_Node000026"><a xlink:href="../../d4/de6/tab__server_8cpp.html" target="_top" xlink:title=" ">
<polygon fill="white" stroke="#666666" points="2513.5,-195 2357.5,-195 2357.5,-165 2513.5,-165 2513.5,-195"/>
<text text-anchor="start" x="2365.5" y="-183" font-family="Helvetica,sans-Serif" font-size="10.00">cockatrice/src/interface</text>
<text text-anchor="middle" x="2435.5" y="-172" font-family="Helvetica,sans-Serif" font-size="10.00">/widgets/tabs/tab_server.cpp</text>
</a>
</g>
</g>
<!-- Node3&#45;&gt;Node26 -->
<g id="edge26_Node000003_Node000026" class="edge">
<title>Node3&#45;&gt;Node26</title>
<g id="a_edge26_Node000003_Node000026"><a xlink:title=" ">
<path fill="none" stroke="#63b8ff" d="M1669.24,-261.05C1812.5,-258.99 2105.09,-249.29 2348.5,-206 2363.2,-203.39 2378.97,-199.27 2392.99,-195.12"/>
<polygon fill="#63b8ff" stroke="#63b8ff" points="1664.2,-261.12 1669.17,-258.8 1666.7,-261.08 1669.2,-261.05 1669.2,-261.05 1669.2,-261.05 1666.7,-261.08 1669.23,-263.3 1664.2,-261.12 1664.2,-261.12"/>
</a>
</g>
</g>
<!-- Node27 -->
<g id="Node000027" class="node">
<title>Node27</title>
<g id="a_Node000027"><a xlink:href="../../d7/d6d/tab__visual__database__display_8cpp.html" target="_top" xlink:title=" ">
<polygon fill="white" stroke="#666666" points="2667,-200.5 2532,-200.5 2532,-159.5 2667,-159.5 2667,-200.5"/>
<text text-anchor="start" x="2540" y="-188.5" font-family="Helvetica,sans-Serif" font-size="10.00">cockatrice/src/interface</text>
<text text-anchor="start" x="2540" y="-177.5" font-family="Helvetica,sans-Serif" font-size="10.00">/widgets/tabs/tab_visual</text>
<text text-anchor="middle" x="2599.5" y="-166.5" font-family="Helvetica,sans-Serif" font-size="10.00">_database_display.cpp</text>
</a>
</g>
</g>
<!-- Node3&#45;&gt;Node27 -->
<g id="edge28_Node000003_Node000027" class="edge">
<title>Node3&#45;&gt;Node27</title>
<g id="a_edge28_Node000003_Node000027"><a xlink:title=" ">
<path fill="none" stroke="#63b8ff" d="M1669.37,-259.18C1870.7,-253.39 2360.51,-236.55 2522.5,-206 2529.96,-204.59 2537.7,-202.67 2545.26,-200.5"/>
<polygon fill="#63b8ff" stroke="#63b8ff" points="1664.08,-259.33 1669.01,-256.94 1666.58,-259.26 1669.08,-259.19 1669.08,-259.19 1669.08,-259.19 1666.58,-259.26 1669.14,-261.43 1664.08,-259.33 1664.08,-259.33"/>
</a>
</g>
</g>
<!-- Node28 -->
<g id="Node000028" class="node">
<title>Node28</title>
<g id="a_Node000028"><a xlink:href="../../da/d34/tab__deck__editor__visual_8cpp.html" target="_top" xlink:title=" ">
<polygon fill="white" stroke="#666666" points="2871.5,-200.5 2685.5,-200.5 2685.5,-159.5 2871.5,-159.5 2871.5,-200.5"/>
<text text-anchor="start" x="2693.5" y="-188.5" font-family="Helvetica,sans-Serif" font-size="10.00">cockatrice/src/interface</text>
<text text-anchor="start" x="2693.5" y="-177.5" font-family="Helvetica,sans-Serif" font-size="10.00">/widgets/tabs/visual_deck</text>
<text text-anchor="middle" x="2778.5" y="-166.5" font-family="Helvetica,sans-Serif" font-size="10.00">_editor/tab_deck_editor_visual.cpp</text>
</a>
</g>
</g>
<!-- Node3&#45;&gt;Node28 -->
<g id="edge29_Node000003_Node000028" class="edge">
<title>Node3&#45;&gt;Node28</title>
<g id="a_edge29_Node000003_Node000028"><a xlink:title=" ">
<path fill="none" stroke="#63b8ff" d="M1669.5,-259.2C1893.8,-252.97 2482.86,-234.38 2676.5,-206 2686.15,-204.59 2696.22,-202.67 2706.12,-200.53"/>
<polygon fill="#63b8ff" stroke="#63b8ff" points="1664.27,-259.34 1669.21,-256.95 1666.77,-259.27 1669.27,-259.2 1669.27,-259.2 1669.27,-259.2 1666.77,-259.27 1669.33,-261.45 1664.27,-259.34 1664.27,-259.34"/>
</a>
</g>
</g>
<!-- Node29 -->
<g id="Node000029" class="node">
<title>Node29</title>
<g id="a_Node000029"><a xlink:href="../../d0/d9e/tab__deck__storage__visual_8cpp.html" target="_top" xlink:title=" ">
<polygon fill="white" stroke="#666666" points="3037.5,-206 2889.5,-206 2889.5,-154 3037.5,-154 3037.5,-206"/>
<text text-anchor="start" x="2897.5" y="-194" font-family="Helvetica,sans-Serif" font-size="10.00">cockatrice/src/interface</text>
<text text-anchor="start" x="2897.5" y="-183" font-family="Helvetica,sans-Serif" font-size="10.00">/widgets/tabs/visual_deck</text>
<text text-anchor="start" x="2897.5" y="-172" font-family="Helvetica,sans-Serif" font-size="10.00">_storage/tab_deck_storage</text>
<text text-anchor="middle" x="2963.5" y="-161" font-family="Helvetica,sans-Serif" font-size="10.00">_visual.cpp</text>
</a>
</g>
</g>
<!-- Node3&#45;&gt;Node29 -->
<g id="edge30_Node000003_Node000029" class="edge">
<title>Node3&#45;&gt;Node29</title>
<g id="a_edge30_Node000003_Node000029"><a xlink:title=" ">
<path fill="none" stroke="#63b8ff" d="M1669.42,-260.6C1922.03,-257.56 2646.75,-245.55 2880.5,-206 2883.32,-205.52 2886.18,-204.98 2889.05,-204.38"/>
<polygon fill="#63b8ff" stroke="#63b8ff" points="1664.27,-260.66 1669.24,-258.35 1666.77,-260.63 1669.27,-260.6 1669.27,-260.6 1669.27,-260.6 1666.77,-260.63 1669.3,-262.85 1664.27,-260.66 1664.27,-260.66"/>
</a>
</g>
</g>
<!-- Node30 -->
<g id="Node000030" class="node">
<title>Node30</title>
<g id="a_Node000030"><a xlink:href="../../d2/d4f/window__main_8cpp.html" target="_top" xlink:title=" ">
<polygon fill="white" stroke="#666666" points="3185.5,-195 3055.5,-195 3055.5,-165 3185.5,-165 3185.5,-195"/>
<text text-anchor="start" x="3063.5" y="-183" font-family="Helvetica,sans-Serif" font-size="10.00">cockatrice/src/interface</text>
<text text-anchor="middle" x="3120.5" y="-172" font-family="Helvetica,sans-Serif" font-size="10.00">/window_main.cpp</text>
</a>
</g>
</g>
<!-- Node3&#45;&gt;Node30 -->
<g id="edge31_Node000003_Node000030" class="edge">
<title>Node3&#45;&gt;Node30</title>
<g id="a_edge31_Node000003_Node000030"><a xlink:title=" ">
<path fill="none" stroke="#63b8ff" d="M1669.47,-261.48C1943.62,-260.88 2780.04,-254.99 3046.5,-206 3059.57,-203.6 3073.48,-199.37 3085.67,-195.07"/>
<polygon fill="#63b8ff" stroke="#63b8ff" points="1664.29,-261.49 1669.28,-259.23 1666.79,-261.48 1669.29,-261.48 1669.29,-261.48 1669.29,-261.48 1666.79,-261.48 1669.29,-263.73 1664.29,-261.49 1664.29,-261.49"/>
</a>
</g>
</g>
<!-- Node8&#45;&gt;Node7 -->
<g id="edge8_Node000008_Node000007" class="edge">
<title>Node8&#45;&gt;Node7</title>
<g id="a_edge8_Node000008_Node000007"><a xlink:title=" ">
<path fill="none" stroke="#63b8ff" d="M571.03,-161.39C554.85,-146.76 532.13,-126.21 517.12,-112.63"/>
<polygon fill="#63b8ff" stroke="#63b8ff" points="575,-164.98 569.78,-163.29 573.14,-163.3 571.29,-161.62 571.29,-161.62 571.29,-161.62 573.14,-163.3 572.8,-159.96 575,-164.98 575,-164.98"/>
</a>
</g>
</g>
<!-- Node10 -->
<g id="Node000010" class="node">
<title>Node10</title>
<g id="a_Node000010"><a xlink:href="../../d9/d03/game__selector_8h.html" target="_top" xlink:title=" ">
<polygon fill="white" stroke="#666666" points="814,-112.5 639,-112.5 639,-82.5 814,-82.5 814,-112.5"/>
<text text-anchor="start" x="647" y="-100.5" font-family="Helvetica,sans-Serif" font-size="10.00">cockatrice/src/interface</text>
<text text-anchor="middle" x="726.5" y="-89.5" font-family="Helvetica,sans-Serif" font-size="10.00">/widgets/server/game_selector.h</text>
</a>
</g>
</g>
<!-- Node9&#45;&gt;Node10 -->
<g id="edge10_Node000009_Node000010" class="edge">
<title>Node9&#45;&gt;Node10</title>
<g id="a_edge10_Node000009_Node000010"><a xlink:title=" ">
<path fill="none" stroke="#63b8ff" d="M763.43,-154.6C754.46,-140.96 743.58,-124.44 735.96,-112.87"/>
<polygon fill="#63b8ff" stroke="#63b8ff" points="766.4,-159.1 761.77,-156.16 765.02,-157.01 763.65,-154.92 763.65,-154.92 763.65,-154.92 765.02,-157.01 765.53,-153.69 766.4,-159.1 766.4,-159.1"/>
</a>
</g>
</g>
<!-- Node14 -->
<g id="Node000014" class="node">
<title>Node14</title>
<g id="a_Node000014"><a xlink:href="../../df/d24/game__selector__quick__filter__toolbar_8cpp.html" target="_top" xlink:title=" ">
<polygon fill="white" stroke="#666666" points="999,-118 832,-118 832,-77 999,-77 999,-118"/>
<text text-anchor="start" x="840" y="-106" font-family="Helvetica,sans-Serif" font-size="10.00">cockatrice/src/interface</text>
<text text-anchor="start" x="840" y="-95" font-family="Helvetica,sans-Serif" font-size="10.00">/widgets/server/game_selector</text>
<text text-anchor="middle" x="915.5" y="-84" font-family="Helvetica,sans-Serif" font-size="10.00">_quick_filter_toolbar.cpp</text>
</a>
</g>
</g>
<!-- Node9&#45;&gt;Node14 -->
<g id="edge14_Node000009_Node000014" class="edge">
<title>Node9&#45;&gt;Node14</title>
<g id="a_edge14_Node000009_Node000014"><a xlink:title=" ">
<path fill="none" stroke="#63b8ff" d="M817.3,-156.63C837.63,-144.59 862.49,-129.88 882.1,-118.27"/>
<polygon fill="#63b8ff" stroke="#63b8ff" points="812.77,-159.31 815.93,-154.82 814.92,-158.03 817.07,-156.76 817.07,-156.76 817.07,-156.76 814.92,-158.03 818.22,-158.7 812.77,-159.31 812.77,-159.31"/>
</a>
</g>
</g>
<!-- Node11 -->
<g id="Node000011" class="node">
<title>Node11</title>
<g id="a_Node000011"><a xlink:href="../../da/d5a/game__selector_8cpp.html" target="_top" xlink:title=" ">
<polygon fill="white" stroke="#666666" points="638.5,-35.5 452.5,-35.5 452.5,-5.5 638.5,-5.5 638.5,-35.5"/>
<text text-anchor="start" x="460.5" y="-23.5" font-family="Helvetica,sans-Serif" font-size="10.00">cockatrice/src/interface</text>
<text text-anchor="middle" x="545.5" y="-12.5" font-family="Helvetica,sans-Serif" font-size="10.00">/widgets/server/game_selector.cpp</text>
</a>
</g>
</g>
<!-- Node10&#45;&gt;Node11 -->
<g id="edge11_Node000010_Node000011" class="edge">
<title>Node10&#45;&gt;Node11</title>
<g id="a_edge11_Node000010_Node000011"><a xlink:title=" ">
<path fill="none" stroke="#63b8ff" d="M687.8,-80.47C655.59,-67.12 610.19,-48.3 579.39,-35.54"/>
<polygon fill="#63b8ff" stroke="#63b8ff" points="692.46,-82.39 686.97,-82.56 690.15,-81.44 687.84,-80.48 687.84,-80.48 687.84,-80.48 690.15,-81.44 688.7,-78.4 692.46,-82.39 692.46,-82.39"/>
</a>
</g>
</g>
<!-- Node12 -->
<g id="Node000012" class="node">
<title>Node12</title>
<g id="a_Node000012"><a xlink:href="../../d5/dec/user__context__menu_8cpp.html" target="_top" xlink:title=" ">
<polygon fill="white" stroke="#666666" points="796.5,-41 656.5,-41 656.5,0 796.5,0 796.5,-41"/>
<text text-anchor="start" x="664.5" y="-29" font-family="Helvetica,sans-Serif" font-size="10.00">cockatrice/src/interface</text>
<text text-anchor="start" x="664.5" y="-18" font-family="Helvetica,sans-Serif" font-size="10.00">/widgets/server/user/user</text>
<text text-anchor="middle" x="726.5" y="-7" font-family="Helvetica,sans-Serif" font-size="10.00">_context_menu.cpp</text>
</a>
</g>
</g>
<!-- Node10&#45;&gt;Node12 -->
<g id="edge12_Node000010_Node000012" class="edge">
<title>Node10&#45;&gt;Node12</title>
<g id="a_edge12_Node000010_Node000012"><a xlink:title=" ">
<path fill="none" stroke="#63b8ff" d="M726.5,-77.22C726.5,-66.16 726.5,-52.32 726.5,-41.2"/>
<polygon fill="#63b8ff" stroke="#63b8ff" points="726.5,-82.39 724.25,-77.39 726.5,-79.89 726.5,-77.39 726.5,-77.39 726.5,-77.39 726.5,-79.89 728.75,-77.39 726.5,-82.39 726.5,-82.39"/>
</a>
</g>
</g>
<!-- Node13 -->
<g id="Node000013" class="node">
<title>Node13</title>
<g id="a_Node000013"><a xlink:href="../../dc/d13/user__list__widget_8cpp.html" target="_top" xlink:title=" ">
<polygon fill="white" stroke="#666666" points="954.5,-41 814.5,-41 814.5,0 954.5,0 954.5,-41"/>
<text text-anchor="start" x="822.5" y="-29" font-family="Helvetica,sans-Serif" font-size="10.00">cockatrice/src/interface</text>
<text text-anchor="start" x="822.5" y="-18" font-family="Helvetica,sans-Serif" font-size="10.00">/widgets/server/user/user</text>
<text text-anchor="middle" x="884.5" y="-7" font-family="Helvetica,sans-Serif" font-size="10.00">_list_widget.cpp</text>
</a>
</g>
</g>
<!-- Node10&#45;&gt;Node13 -->
<g id="edge13_Node000010_Node000013" class="edge">
<title>Node10&#45;&gt;Node13</title>
<g id="a_edge13_Node000010_Node000013"><a xlink:title=" ">
<path fill="none" stroke="#63b8ff" d="M760.95,-80.15C785.17,-68.65 817.69,-53.21 843.29,-41.06"/>
<polygon fill="#63b8ff" stroke="#63b8ff" points="756.22,-82.39 759.77,-78.22 758.48,-81.32 760.74,-80.25 760.74,-80.25 760.74,-80.25 758.48,-81.32 761.7,-82.28 756.22,-82.39 756.22,-82.39"/>
</a>
</g>
</g>
<!-- Node21 -->
<g id="Node000021" class="node">
<title>Node21</title>
<g id="a_Node000021"><a xlink:href="../../dd/d8f/tab__card__art__rules_8cpp.html" target="_top" xlink:title=" ">
<polygon fill="white" stroke="#666666" points="1733.5,-118 1603.5,-118 1603.5,-77 1733.5,-77 1733.5,-118"/>
<text text-anchor="start" x="1611.5" y="-106" font-family="Helvetica,sans-Serif" font-size="10.00">cockatrice/src/interface</text>
<text text-anchor="start" x="1611.5" y="-95" font-family="Helvetica,sans-Serif" font-size="10.00">/widgets/tabs/tab_card</text>
<text text-anchor="middle" x="1668.5" y="-84" font-family="Helvetica,sans-Serif" font-size="10.00">_art_rules.cpp</text>
</a>
</g>
</g>
<!-- Node20&#45;&gt;Node21 -->
<g id="edge21_Node000020_Node000021" class="edge">
<title>Node20&#45;&gt;Node21</title>
<g id="a_edge21_Node000020_Node000021"><a xlink:title=" ">
<path fill="none" stroke="#63b8ff" d="M1723.73,-155.5C1712.25,-143.65 1698.48,-129.44 1687.56,-118.17"/>
<polygon fill="#63b8ff" stroke="#63b8ff" points="1727.22,-159.1 1722.12,-157.08 1725.48,-157.31 1723.74,-155.51 1723.74,-155.51 1723.74,-155.51 1725.48,-157.31 1725.36,-153.94 1727.22,-159.1 1727.22,-159.1"/>
</a>
</g>
</g>
<!-- Node20&#45;&gt;Node22 -->
<g id="edge22_Node000020_Node000022" class="edge">
<title>Node20&#45;&gt;Node22</title>
<g id="a_edge22_Node000020_Node000022"><a xlink:title=" ">
<path fill="none" stroke="#63b8ff" d="M1773.49,-155.64C1789.58,-141.71 1809.47,-124.49 1823.19,-112.62"/>
<polygon fill="#63b8ff" stroke="#63b8ff" points="1769.49,-159.1 1771.8,-154.13 1771.38,-157.46 1773.27,-155.83 1773.27,-155.83 1773.27,-155.83 1771.38,-157.46 1774.74,-157.53 1769.49,-159.1 1769.49,-159.1"/>
</a>
</g>
</g>
</g>
</svg>

<g id="navigator" transform="translate(0 0)" fill="#404254">
  <rect fill="#f2f5e9" fill-opacity="0.5" stroke="#606060" stroke-width=".5" x="0" y="0" width="60" height="60"/>
  <use id="zoomplus" xlink:href="#zoomPlus" x="17" y="9" onmousedown="handleZoom(evt,'in')"/>
  <use id="zoomminus" xlink:href="#zoomMin" x="42" y="9" onmousedown="handleZoom(evt,'out')"/>
  <use id="reset" xlink:href="#resetDef" x="30" y="36" onmousedown="handleReset()"/>
   <use id="arrowup" xlink:href="#arrowUp" x="0" y="0" onmousedown="handlePan(0,-1)"/>
  <use id="arrowright" xlink:href="#arrowRight" x="0" y="0" onmousedown="handlePan(1,0)"/>
  <use id="arrowdown" xlink:href="#arrowDown" x="0" y="0" onmousedown="handlePan(0,1)"/>
  <use id="arrowleft" xlink:href="#arrowLeft" x="0" y="0" onmousedown="handlePan(-1,0)"/>
</g>
<svg viewBox="0 0 15 15" width="100%" height="30px" preserveAspectRatio="xMaxYMin meet">
 <g id="arrow_out" transform="scale(0.3 0.3)">
  <a xlink:href="tab__edhrec_8h__dep__incl_org.svg" target="_base">
   <rect id="button" ry="5" rx="5" y="6" x="6" height="38" width="38"
        fill="#f2f5e9" fill-opacity="0.5" stroke="#606060" stroke-width="1.0"/>
   <path id="arrow"
     d="M 11.500037,31.436501 C 11.940474,20.09759 22.043105,11.32322 32.158766,21.979434 L 37.068811,17.246167 C 37.068811,17.246167 37.088388,32 37.088388,32 L 22.160133,31.978069 C 22.160133,31.978069 26.997745,27.140456 26.997745,27.140456 C 18.528582,18.264221 13.291696,25.230495 11.500037,31.436501 z"
     style="fill:#404040;"/>
  </a>
 </g>
</svg>

<style type='text/css'>
<![CDATA[
[data-mouse-over-selected='false'] { opacity: 0.7; }
[data-mouse-over-selected='true']  { opacity: 1.0; }
]]>
</style>
<script type="application/ecmascript"><![CDATA[
document.addEventListener('DOMContentLoaded', (event) => {
  highlightEdges();
  highlightAdjacentNodes();
});
]]></script>
</svg>
