<?xml version="1.0" encoding="UTF-8" standalone="no"?>
<!DOCTYPE svg PUBLIC "-//W3C//DTD SVG 1.1//EN"
 "http://www.w3.org/Graphics/SVG/1.1/DTD/svg11.dtd">
<!-- Generated by graphviz version 2.43.0 (0)
 -->
<!-- Title: Server_Card::getProviderId Pages: 1 -->
<svg width="1228pt" height="342pt"
 viewBox="0.00 0.00 1228.00 341.82" xmlns="http://www.w3.org/2000/svg" xmlns:xlink="http://www.w3.org/1999/xlink">
<g id="graph0" class="graph" transform="scale(1 1) rotate(0) translate(4 337.82)">
<title>Server_Card::getProviderId</title>
<!-- Node1 -->
<g id="Node000001" class="node">
<title>Node1</title>
<g id="a_Node000001"><a xlink:title=" ">
<polygon fill="#999999" stroke="#666666" points="1220,-237.32 1073,-237.32 1073,-218.32 1220,-218.32 1220,-237.32"/>
<text text-anchor="middle" x="1146.5" y="-225.32" font-family="Helvetica,sans-Serif" font-size="10.00">Server_Card::getProviderId</text>
</a>
</g>
</g>
<!-- Node2 -->
<g id="Node000002" class="node">
<title>Node2</title>
<g id="a_Node000002"><a xlink:href="../../da/d99/classServer__AbstractPlayer.html#a38a99a4a43dadcc15638720e3d72c211" target="_top" xlink:title=" ">
<polygon fill="white" stroke="#666666" points="1028.5,-333.82 903.5,-333.82 903.5,-303.82 1028.5,-303.82 1028.5,-333.82"/>
<text text-anchor="start" x="911.5" y="-321.82" font-family="Helvetica,sans-Serif" font-size="10.00">Server_AbstractPlayer</text>
<text text-anchor="middle" x="966" y="-310.82" font-family="Helvetica,sans-Serif" font-size="10.00">::cmdDumpZone</text>
</a>
</g>
</g>
<!-- Node1&#45;&gt;Node2 -->
<g id="edge1_Node000001_Node000002" class="edge">
<title>Node1&#45;&gt;Node2</title>
<g id="a_edge1_Node000001_Node000002"><a xlink:title=" ">
<path fill="none" stroke="#63b8ff" d="M1127.79,-240.48C1106.86,-255.02 1070.63,-278.92 1037,-294.82 1030.15,-298.06 1022.74,-301.08 1015.39,-303.82"/>
<polygon fill="#63b8ff" stroke="#63b8ff" points="1132.01,-237.53 1129.21,-242.24 1129.97,-238.96 1127.92,-240.39 1127.92,-240.39 1127.92,-240.39 1129.97,-238.96 1126.63,-238.55 1132.01,-237.53 1132.01,-237.53"/>
</a>
</g>
</g>
<!-- Node3 -->
<g id="Node000003" class="node">
<title>Node3</title>
<g id="a_Node000003"><a xlink:href="../../da/d99/classServer__AbstractPlayer.html#ae6733b8bba6aa38762a26a54ae9aa538" target="_top" xlink:title=" ">
<polygon fill="white" stroke="#666666" points="1028.5,-285.82 903.5,-285.82 903.5,-255.82 1028.5,-255.82 1028.5,-285.82"/>
<text text-anchor="start" x="911.5" y="-273.82" font-family="Helvetica,sans-Serif" font-size="10.00">Server_AbstractPlayer</text>
<text text-anchor="middle" x="966" y="-262.82" font-family="Helvetica,sans-Serif" font-size="10.00">::cmdFlipCard</text>
</a>
</g>
</g>
<!-- Node1&#45;&gt;Node3 -->
<g id="edge2_Node000001_Node000003" class="edge">
<title>Node1&#45;&gt;Node3</title>
<g id="a_edge2_Node000001_Node000003"><a xlink:title=" ">
<path fill="none" stroke="#63b8ff" d="M1101.01,-238.54C1079.13,-243.81 1052.41,-250.25 1028.6,-255.98"/>
<polygon fill="#63b8ff" stroke="#63b8ff" points="1105.89,-237.37 1101.55,-240.72 1103.45,-237.95 1101.02,-238.54 1101.02,-238.54 1101.02,-238.54 1103.45,-237.95 1100.5,-236.35 1105.89,-237.37 1105.89,-237.37"/>
</a>
</g>
</g>
<!-- Node4 -->
<g id="Node000004" class="node">
<title>Node4</title>
<g id="a_Node000004"><a xlink:href="../../d8/d21/classServer__Player.html#af4f29c0855ce09de6cb16673b6ffc798" target="_top" xlink:title=" ">
<polygon fill="white" stroke="#666666" points="1037,-237.32 895,-237.32 895,-218.32 1037,-218.32 1037,-237.32"/>
<text text-anchor="middle" x="966" y="-225.32" font-family="Helvetica,sans-Serif" font-size="10.00">Server_Player::drawCards</text>
</a>
</g>
</g>
<!-- Node1&#45;&gt;Node4 -->
<g id="edge3_Node000001_Node000004" class="edge">
<title>Node1&#45;&gt;Node4</title>
<g id="a_edge3_Node000001_Node000004"><a xlink:title=" ">
<path fill="none" stroke="#63b8ff" d="M1067.63,-227.82C1057.52,-227.82 1047.21,-227.82 1037.23,-227.82"/>
<polygon fill="#63b8ff" stroke="#63b8ff" points="1072.9,-227.82 1067.9,-230.07 1070.4,-227.82 1067.9,-227.82 1067.9,-227.82 1067.9,-227.82 1070.4,-227.82 1067.9,-225.57 1072.9,-227.82 1072.9,-227.82"/>
</a>
</g>
</g>
<!-- Node7 -->
<g id="Node000007" class="node">
<title>Node7</title>
<g id="a_Node000007"><a xlink:href="../../dd/d6f/server__abstract__player_8cpp.html#a18f70efed28619c8f51fe2a60e761387" target="_top" xlink:title=" ">
<polygon fill="white" stroke="#666666" points="1031.5,-161.32 900.5,-161.32 900.5,-142.32 1031.5,-142.32 1031.5,-161.32"/>
<text text-anchor="middle" x="966" y="-149.32" font-family="Helvetica,sans-Serif" font-size="10.00">makeCreateTokenEvent</text>
</a>
</g>
</g>
<!-- Node1&#45;&gt;Node7 -->
<g id="edge6_Node000001_Node000007" class="edge">
<title>Node1&#45;&gt;Node7</title>
<g id="a_edge6_Node000001_Node000007"><a xlink:title=" ">
<path fill="none" stroke="#63b8ff" d="M1122.26,-215.71C1100.53,-204.62 1067.01,-188.11 1037,-175.82 1024.16,-170.56 1009.69,-165.47 997.26,-161.34"/>
<polygon fill="#63b8ff" stroke="#63b8ff" points="1126.98,-218.13 1121.51,-217.85 1124.76,-216.99 1122.53,-215.85 1122.53,-215.85 1122.53,-215.85 1124.76,-216.99 1123.56,-213.85 1126.98,-218.13 1126.98,-218.13"/>
</a>
</g>
</g>
<!-- Node8 -->
<g id="Node000008" class="node">
<title>Node8</title>
<g id="a_Node000008"><a xlink:href="../../da/d99/classServer__AbstractPlayer.html#a587387836c944e092c63d47bced273eb" target="_top" xlink:title=" ">
<polygon fill="white" stroke="#666666" points="839.5,-183.82 714.5,-183.82 714.5,-153.82 839.5,-153.82 839.5,-183.82"/>
<text text-anchor="start" x="722.5" y="-171.82" font-family="Helvetica,sans-Serif" font-size="10.00">Server_AbstractPlayer</text>
<text text-anchor="middle" x="777" y="-160.82" font-family="Helvetica,sans-Serif" font-size="10.00">::processMoveCard</text>
</a>
</g>
</g>
<!-- Node1&#45;&gt;Node8 -->
<g id="edge20_Node000001_Node000008" class="edge">
<title>Node1&#45;&gt;Node8</title>
<g id="a_edge20_Node000001_Node000008"><a xlink:title=" ">
<path fill="none" stroke="#63b8ff" d="M1083.52,-217.46C1068.31,-214.94 1052.07,-212.27 1037,-209.82 969.48,-198.88 892,-186.66 839.51,-178.43"/>
<polygon fill="#63b8ff" stroke="#63b8ff" points="1088.64,-218.31 1083.34,-219.71 1086.17,-217.9 1083.71,-217.49 1083.71,-217.49 1083.71,-217.49 1086.17,-217.9 1084.07,-215.27 1088.64,-218.31 1088.64,-218.31"/>
</a>
</g>
</g>
<!-- Node5 -->
<g id="Node000005" class="node">
<title>Node5</title>
<g id="a_Node000005"><a xlink:href="../../d8/d21/classServer__Player.html#ad2f4951b344ea40b65995200b38d1564" target="_top" xlink:title=" ">
<polygon fill="white" stroke="#666666" points="859,-275.32 695,-275.32 695,-256.32 859,-256.32 859,-275.32"/>
<text text-anchor="middle" x="777" y="-263.32" font-family="Helvetica,sans-Serif" font-size="10.00">Server_Player::cmdDrawCards</text>
</a>
</g>
</g>
<!-- Node4&#45;&gt;Node5 -->
<g id="edge4_Node000004_Node000005" class="edge">
<title>Node4&#45;&gt;Node5</title>
<g id="a_edge4_Node000004_Node000005"><a xlink:title=" ">
<path fill="none" stroke="#63b8ff" d="M912.73,-238.44C885.15,-244.05 851.58,-250.87 824.85,-256.3"/>
<polygon fill="#63b8ff" stroke="#63b8ff" points="917.81,-237.41 913.36,-240.61 915.36,-237.91 912.91,-238.41 912.91,-238.41 912.91,-238.41 915.36,-237.91 912.46,-236.2 917.81,-237.41 917.81,-237.41"/>
</a>
</g>
</g>
<!-- Node6 -->
<g id="Node000006" class="node">
<title>Node6</title>
<g id="a_Node000006"><a xlink:href="../../d8/d21/classServer__Player.html#ad507b89d67a2f11f159bda36966b644e" target="_top" xlink:title=" ">
<polygon fill="white" stroke="#666666" points="479.5,-302.32 326.5,-302.32 326.5,-283.32 479.5,-283.32 479.5,-302.32"/>
<text text-anchor="middle" x="403" y="-290.32" font-family="Helvetica,sans-Serif" font-size="10.00">Server_Player::cmdMulligan</text>
</a>
</g>
</g>
<!-- Node4&#45;&gt;Node6 -->
<g id="edge5_Node000004_Node000006" class="edge">
<title>Node4&#45;&gt;Node6</title>
<g id="a_edge5_Node000004_Node000006"><a xlink:title=" ">
<path fill="none" stroke="#63b8ff" d="M889.74,-231.79C835.5,-235.04 760.6,-240.33 695,-247.82 611.58,-257.35 515.41,-273.17 457.2,-283.3"/>
<polygon fill="#63b8ff" stroke="#63b8ff" points="894.93,-231.48 890.07,-234.02 892.43,-231.63 889.94,-231.78 889.94,-231.78 889.94,-231.78 892.43,-231.63 889.8,-229.53 894.93,-231.48 894.93,-231.48"/>
</a>
</g>
</g>
<!-- Node7&#45;&gt;Node8 -->
<g id="edge7_Node000007_Node000008" class="edge">
<title>Node7&#45;&gt;Node8</title>
<g id="a_edge7_Node000007_Node000008"><a xlink:title=" ">
<path fill="none" stroke="#63b8ff" d="M895.28,-158.16C877.06,-159.82 857.56,-161.59 839.78,-163.21"/>
<polygon fill="#63b8ff" stroke="#63b8ff" points="900.38,-157.7 895.61,-160.39 897.89,-157.92 895.4,-158.15 895.4,-158.15 895.4,-158.15 897.89,-157.92 895.2,-155.91 900.38,-157.7 900.38,-157.7"/>
</a>
</g>
</g>
<!-- Node17 -->
<g id="Node000017" class="node">
<title>Node17</title>
<g id="a_Node000017"><a xlink:href="../../da/d99/classServer__AbstractPlayer.html#a2d8bb4461d26d920e0f9c053099f3c87" target="_top" xlink:title=" ">
<polygon fill="white" stroke="#666666" points="659,-73.82 520,-73.82 520,-43.82 659,-43.82 659,-73.82"/>
<text text-anchor="start" x="528" y="-61.82" font-family="Helvetica,sans-Serif" font-size="10.00">Server_AbstractPlayer</text>
<text text-anchor="middle" x="589.5" y="-50.82" font-family="Helvetica,sans-Serif" font-size="10.00">::sendCreateTokenEvents</text>
</a>
</g>
</g>
<!-- Node7&#45;&gt;Node17 -->
<g id="edge18_Node000007_Node000017" class="edge">
<title>Node7&#45;&gt;Node17</title>
<g id="a_edge18_Node000007_Node000017"><a xlink:title=" ">
<path fill="none" stroke="#63b8ff" d="M921.59,-141.04C854.82,-124.46 726.7,-92.64 650.91,-73.82"/>
<polygon fill="#63b8ff" stroke="#63b8ff" points="926.68,-142.31 921.29,-143.29 924.26,-141.7 921.83,-141.1 921.83,-141.1 921.83,-141.1 924.26,-141.7 922.37,-138.92 926.68,-142.31 926.68,-142.31"/>
</a>
</g>
</g>
<!-- Node9 -->
<g id="Node000009" class="node">
<title>Node9</title>
<g id="a_Node000009"><a xlink:href="../../da/d99/classServer__AbstractPlayer.html#aae9b5d4a87368a98428c9b1c8f50d180" target="_top" xlink:title=" ">
<polygon fill="white" stroke="#666666" points="652,-183.82 527,-183.82 527,-153.82 652,-153.82 652,-183.82"/>
<text text-anchor="start" x="535" y="-171.82" font-family="Helvetica,sans-Serif" font-size="10.00">Server_AbstractPlayer</text>
<text text-anchor="middle" x="589.5" y="-160.82" font-family="Helvetica,sans-Serif" font-size="10.00">::moveCard</text>
</a>
</g>
</g>
<!-- Node8&#45;&gt;Node9 -->
<g id="edge8_Node000008_Node000009" class="edge">
<title>Node8&#45;&gt;Node9</title>
<g id="a_edge8_Node000008_Node000009"><a xlink:title=" ">
<path fill="none" stroke="#63b8ff" d="M709.28,-168.82C690.64,-168.82 670.49,-168.82 652.16,-168.82"/>
<polygon fill="#63b8ff" stroke="#63b8ff" points="714.49,-168.82 709.49,-171.07 711.99,-168.82 709.49,-168.82 709.49,-168.82 709.49,-168.82 711.99,-168.82 709.49,-166.57 714.49,-168.82 714.49,-168.82"/>
</a>
</g>
</g>
<!-- Node9&#45;&gt;Node6 -->
<g id="edge12_Node000009_Node000006" class="edge">
<title>Node9&#45;&gt;Node6</title>
<g id="a_edge12_Node000009_Node000006"><a xlink:title=" ">
<path fill="none" stroke="#63b8ff" d="M555.55,-186.65C543.55,-194.08 530.39,-203.42 520,-213.82 499.36,-234.5 507.41,-251.34 484,-268.82 475.52,-275.16 465.37,-279.83 455.19,-283.27"/>
<polygon fill="#63b8ff" stroke="#63b8ff" points="559.91,-184 556.81,-188.52 557.77,-185.3 555.64,-186.59 555.64,-186.59 555.64,-186.59 557.77,-185.3 554.47,-184.67 559.91,-184 559.91,-184"/>
</a>
</g>
</g>
<!-- Node10 -->
<g id="Node000010" class="node">
<title>Node10</title>
<g id="a_Node000010"><a xlink:href="../../da/d99/classServer__AbstractPlayer.html#aec16950f506fd0e79497295e9e2a8a57" target="_top" xlink:title=" ">
<polygon fill="white" stroke="#666666" points="286,-54.82 161,-54.82 161,-24.82 286,-24.82 286,-54.82"/>
<text text-anchor="start" x="169" y="-42.82" font-family="Helvetica,sans-Serif" font-size="10.00">Server_AbstractPlayer</text>
<text text-anchor="middle" x="223.5" y="-31.82" font-family="Helvetica,sans-Serif" font-size="10.00">::cmdAttachCard</text>
</a>
</g>
</g>
<!-- Node9&#45;&gt;Node10 -->
<g id="edge9_Node000009_Node000010" class="edge">
<title>Node9&#45;&gt;Node10</title>
<g id="a_edge9_Node000009_Node000010"><a xlink:title=" ">
<path fill="none" stroke="#63b8ff" d="M561.35,-186.77C531.86,-206.18 488.34,-234.55 484,-235.82 414.91,-256.07 383.21,-273.74 322,-235.82 255.61,-194.69 232.98,-93.3 226.63,-54.89"/>
<polygon fill="#63b8ff" stroke="#63b8ff" points="565.6,-183.97 562.66,-188.6 563.51,-185.35 561.42,-186.72 561.42,-186.72 561.42,-186.72 563.51,-185.35 560.18,-184.84 565.6,-183.97 565.6,-183.97"/>
</a>
</g>
</g>
<!-- Node12 -->
<g id="Node000012" class="node">
<title>Node12</title>
<g id="a_Node000012"><a xlink:href="../../da/d99/classServer__AbstractPlayer.html#a437acecfbf84b5dea39cbdffdacbaca2" target="_top" xlink:title=" ">
<polygon fill="white" stroke="#666666" points="465.5,-226.82 340.5,-226.82 340.5,-196.82 465.5,-196.82 465.5,-226.82"/>
<text text-anchor="start" x="348.5" y="-214.82" font-family="Helvetica,sans-Serif" font-size="10.00">Server_AbstractPlayer</text>
<text text-anchor="middle" x="403" y="-203.82" font-family="Helvetica,sans-Serif" font-size="10.00">::cmdMoveCard</text>
</a>
</g>
</g>
<!-- Node9&#45;&gt;Node12 -->
<g id="edge11_Node000009_Node000012" class="edge">
<title>Node9&#45;&gt;Node12</title>
<g id="a_edge11_Node000009_Node000012"><a xlink:title=" ">
<path fill="none" stroke="#63b8ff" d="M521.69,-184.39C503.38,-188.66 483.63,-193.26 465.63,-197.46"/>
<polygon fill="#63b8ff" stroke="#63b8ff" points="526.81,-183.2 522.45,-186.53 524.37,-183.77 521.94,-184.34 521.94,-184.34 521.94,-184.34 524.37,-183.77 521.43,-182.14 526.81,-183.2 526.81,-183.2"/>
</a>
</g>
</g>
<!-- Node13 -->
<g id="Node000013" class="node">
<title>Node13</title>
<g id="a_Node000013"><a xlink:href="../../d8/d21/classServer__Player.html#a00158ff0f645f30323164035f7f422ea" target="_top" xlink:title=" ">
<polygon fill="white" stroke="#666666" points="484,-178.32 322,-178.32 322,-159.32 484,-159.32 484,-178.32"/>
<text text-anchor="middle" x="403" y="-166.32" font-family="Helvetica,sans-Serif" font-size="10.00">Server_Player::cmdUndoDraw</text>
</a>
</g>
</g>
<!-- Node9&#45;&gt;Node13 -->
<g id="edge13_Node000009_Node000013" class="edge">
<title>Node9&#45;&gt;Node13</title>
<g id="a_edge13_Node000009_Node000013"><a xlink:title=" ">
<path fill="none" stroke="#63b8ff" d="M521.62,-168.82C509.41,-168.82 496.55,-168.82 484.01,-168.82"/>
<polygon fill="#63b8ff" stroke="#63b8ff" points="526.81,-168.82 521.81,-171.07 524.31,-168.82 521.81,-168.82 521.81,-168.82 521.81,-168.82 524.31,-168.82 521.81,-166.57 526.81,-168.82 526.81,-168.82"/>
</a>
</g>
</g>
<!-- Node14 -->
<g id="Node000014" class="node">
<title>Node14</title>
<g id="a_Node000014"><a xlink:href="../../df/d89/classServer__Game.html#ac8ffeecd2100bcf1e3f464aade87fc7c" target="_top" xlink:title=" ">
<polygon fill="white" stroke="#666666" points="476,-140.82 330,-140.82 330,-110.82 476,-110.82 476,-140.82"/>
<text text-anchor="start" x="338" y="-128.82" font-family="Helvetica,sans-Serif" font-size="10.00">Server_Game::returnCards</text>
<text text-anchor="middle" x="403" y="-117.82" font-family="Helvetica,sans-Serif" font-size="10.00">FromPlayer</text>
</a>
</g>
</g>
<!-- Node9&#45;&gt;Node14 -->
<g id="edge14_Node000009_Node000014" class="edge">
<title>Node9&#45;&gt;Node14</title>
<g id="a_edge14_Node000009_Node000014"><a xlink:title=" ">
<path fill="none" stroke="#63b8ff" d="M521.93,-153.31C504.52,-149.25 485.78,-144.88 468.48,-140.85"/>
<polygon fill="#63b8ff" stroke="#63b8ff" points="526.81,-154.44 521.43,-155.5 524.37,-153.88 521.94,-153.31 521.94,-153.31 521.94,-153.31 524.37,-153.88 522.45,-151.12 526.81,-154.44 526.81,-154.44"/>
</a>
</g>
</g>
<!-- Node15 -->
<g id="Node000015" class="node">
<title>Node15</title>
<g id="a_Node000015"><a xlink:href="../../da/d2a/reverse__card__move__test_8cpp.html#a6a59cf7744f3a1c39f0813bc61c87df9" target="_top" xlink:title=" ">
<polygon fill="white" stroke="#666666" points="423.5,-92.32 382.5,-92.32 382.5,-73.32 423.5,-73.32 423.5,-92.32"/>
<text text-anchor="middle" x="403" y="-80.32" font-family="Helvetica,sans-Serif" font-size="10.00">TEST</text>
</a>
</g>
</g>
<!-- Node9&#45;&gt;Node15 -->
<g id="edge15_Node000009_Node000015" class="edge">
<title>Node9&#45;&gt;Node15</title>
<g id="a_edge15_Node000009_Node000015"><a xlink:title=" ">
<path fill="none" stroke="#63b8ff" d="M565.02,-150.47C544.64,-135.38 513.82,-114.49 484,-101.82 464.29,-93.45 440.21,-88.37 423.65,-85.59"/>
<polygon fill="#63b8ff" stroke="#63b8ff" points="569.2,-153.59 563.85,-152.4 567.2,-152.1 565.2,-150.6 565.2,-150.6 565.2,-150.6 567.2,-152.1 566.54,-148.8 569.2,-153.59 569.2,-153.59"/>
</a>
</g>
</g>
<!-- Node16 -->
<g id="Node000016" class="node">
<title>Node16</title>
<g id="a_Node000016"><a xlink:href="../../da/d99/classServer__AbstractPlayer.html#a6491fc2b2bd57681dcda4d06295762fd" target="_top" xlink:title=" ">
<polygon fill="white" stroke="#666666" points="465.5,-54.82 340.5,-54.82 340.5,-24.82 465.5,-24.82 465.5,-54.82"/>
<text text-anchor="start" x="348.5" y="-42.82" font-family="Helvetica,sans-Serif" font-size="10.00">Server_AbstractPlayer</text>
<text text-anchor="middle" x="403" y="-31.82" font-family="Helvetica,sans-Serif" font-size="10.00">::unattachCard</text>
</a>
</g>
</g>
<!-- Node9&#45;&gt;Node16 -->
<g id="edge16_Node000009_Node000016" class="edge">
<title>Node9&#45;&gt;Node16</title>
<g id="a_edge16_Node000009_Node000016"><a xlink:title=" ">
<path fill="none" stroke="#63b8ff" d="M574.09,-149.66C555.65,-126.39 521.55,-87.48 484,-64.82 477.65,-60.99 470.65,-57.69 463.52,-54.86"/>
<polygon fill="#63b8ff" stroke="#63b8ff" points="577.35,-153.81 572.49,-151.26 575.81,-151.84 574.26,-149.88 574.26,-149.88 574.26,-149.88 575.81,-151.84 576.03,-148.49 577.35,-153.81 577.35,-153.81"/>
</a>
</g>
</g>
<!-- Node11 -->
<g id="Node000011" class="node">
<title>Node11</title>
<g id="a_Node000011"><a xlink:href="../../da/d99/classServer__AbstractPlayer.html#a7747ca8a54aa8e4de4791e166423d290" target="_top" xlink:title=" ">
<polygon fill="white" stroke="#666666" points="125,-32.82 0,-32.82 0,-2.82 125,-2.82 125,-32.82"/>
<text text-anchor="start" x="8" y="-20.82" font-family="Helvetica,sans-Serif" font-size="10.00">Server_AbstractPlayer</text>
<text text-anchor="middle" x="62.5" y="-9.82" font-family="Helvetica,sans-Serif" font-size="10.00">::cmdCreateToken</text>
</a>
</g>
</g>
<!-- Node10&#45;&gt;Node11 -->
<g id="edge10_Node000010_Node000011" class="edge">
<title>Node10&#45;&gt;Node11</title>
<g id="a_edge10_Node000010_Node000011"><a xlink:title=" ">
<path fill="none" stroke="#63b8ff" d="M155.38,-30.53C145.39,-29.15 135.13,-27.73 125.26,-26.37"/>
<polygon fill="#63b8ff" stroke="#63b8ff" points="160.57,-31.25 155.31,-32.8 158.09,-30.91 155.62,-30.57 155.62,-30.57 155.62,-30.57 158.09,-30.91 155.93,-28.34 160.57,-31.25 160.57,-31.25"/>
</a>
</g>
</g>
<!-- Node16&#45;&gt;Node10 -->
<g id="edge17_Node000016_Node000010" class="edge">
<title>Node16&#45;&gt;Node10</title>
<g id="a_edge17_Node000016_Node000010"><a xlink:title=" ">
<path fill="none" stroke="#63b8ff" d="M335.03,-39.82C319.03,-39.82 302.03,-39.82 286.27,-39.82"/>
<polygon fill="#63b8ff" stroke="#63b8ff" points="340.42,-39.82 335.42,-42.07 337.92,-39.82 335.42,-39.82 335.42,-39.82 335.42,-39.82 337.92,-39.82 335.42,-37.57 340.42,-39.82 340.42,-39.82"/>
</a>
</g>
</g>
<!-- Node17&#45;&gt;Node11 -->
<g id="edge19_Node000017_Node000011" class="edge">
<title>Node17&#45;&gt;Node11</title>
<g id="a_edge19_Node000017_Node000011"><a xlink:title=" ">
<path fill="none" stroke="#63b8ff" d="M555.48,-41.33C535.42,-31.71 508.94,-20.75 484,-15.82 358.49,8.99 207.76,-1.11 125.16,-9.94"/>
<polygon fill="#63b8ff" stroke="#63b8ff" points="560.17,-43.62 554.69,-43.45 557.92,-42.52 555.68,-41.43 555.68,-41.43 555.68,-41.43 557.92,-42.52 556.66,-39.41 560.17,-43.62 560.17,-43.62"/>
</a>
</g>
</g>
</g>
</svg>
