<?xml version="1.0" encoding="UTF-8" standalone="no"?>
<!DOCTYPE svg PUBLIC "-//W3C//DTD SVG 1.1//EN"
 "http://www.w3.org/Graphics/SVG/1.1/DTD/svg11.dtd">
<!-- Generated by graphviz version 2.43.0 (0)
 -->
<!-- Title: Server_Card::getAttachedCards Pages: 1 -->
<!--zoomable 427 -->

<svg id="main" version="1.1" xmlns="http://www.w3.org/2000/svg" xmlns:xlink="http://www.w3.org/1999/xlink" xml:space="preserve" onload="init(evt)">

<style type="text/css"><![CDATA[
.node, .edge {opacity: 0.7;}
.node.selected, .edge.selected {opacity: 1;}
.edge:hover path { stroke: red; }
.edge:hover polygon { stroke: red; fill: red; }
]]></style>

<defs>
  <circle id="rim" cx="0" cy="0" r="7"/>
  <circle id="rim2" cx="0" cy="0" r="3.5"/>
  <g id="zoomPlus">
    <use xlink:href="#rim" fill="#404040"><set attributeName="fill" to="#808080" begin="zoomplus.mouseover" end="zoomplus.mouseout"/></use>
    <path d="M-4,0h8M0,-4v8" fill="none" stroke="white" stroke-width="1.5" pointer-events="none"/>
  </g>
  <g id="zoomMin">
    <use xlink:href="#rim" fill="#404040"><set attributeName="fill" to="#808080" begin="zoomminus.mouseover" end="zoomminus.mouseout"/></use>
    <path d="M-4,0h8" fill="none" stroke="white" stroke-width="1.5" pointer-events="none"/>
  </g>
  <g id="arrowUp" transform="translate(30 24)">
    <use xlink:href="#rim"/>
    <path pointer-events="none" fill="none" stroke="white" stroke-width="1.5" d="M0,-3.0v7 M-2.5,-0.5L0,-3.0L2.5,-0.5"/>
  </g>
  <g id="arrowRight" transform="rotate(90) translate(36 -43)">
    <use xlink:href="#rim"/>
    <path pointer-events="none" fill="none" stroke="white" stroke-width="1.5" d="M0,-3.0v7 M-2.5,-0.5L0,-3.0L2.5,-0.5"/>
  </g>
  <g id="arrowDown" transform="rotate(180) translate(-30 -48)">
    <use xlink:href="#rim"/>
    <path pointer-events="none" fill="none" stroke="white" stroke-width="1.5" d="M0,-3.0v7 M-2.5,-0.5L0,-3.0L2.5,-0.5"/>
  </g>
  <g id="arrowLeft" transform="rotate(270) translate(-36 17)">
    <use xlink:href="#rim"/>
    <path pointer-events="none" fill="none" stroke="white" stroke-width="1.5" d="M0,-3.0v7 M-2.5,-0.5L0,-3.0L2.5,-0.5"/>
  </g>
  <g id="resetDef">
    <use xlink:href="#rim2" fill="#404040"><set attributeName="fill" to="#808080" begin="reset.mouseover" end="reset.mouseout"/></use>
  </g>
</defs>
<script type="application/ecmascript">
var viewWidth = 1256;
var viewHeight = 427;
var sectionId = 'dynsection-5';
</script>
<script type="application/ecmascript" xlink:href="../../svg.min.js"/>
<svg id="graph" class="graph">
<g id="viewport">
<title>Server_Card::getAttachedCards</title>
<!-- Node1 -->
<g id="Node000001" class="node">
<title>Node1</title>
<g id="a_Node000001"><a xlink:title=" ">
<polygon fill="#999999" stroke="#666666" points="1248,-376.5 1107,-376.5 1107,-346.5 1248,-346.5 1248,-376.5"/>
<text text-anchor="start" x="1115" y="-364.5" font-family="Helvetica,sans-Serif" font-size="10.00">Server_Card::getAttached</text>
<text text-anchor="middle" x="1177.5" y="-353.5" font-family="Helvetica,sans-Serif" font-size="10.00">Cards</text>
</a>
</g>
</g>
<!-- Node2 -->
<g id="Node000002" class="node">
<title>Node2</title>
<g id="a_Node000002"><a xlink:href="../../da/d99/classServer__AbstractPlayer.html#aec16950f506fd0e79497295e9e2a8a57" target="_top" xlink:title=" ">
<polygon fill="white" stroke="#666666" points="286,-335.5 161,-335.5 161,-305.5 286,-305.5 286,-335.5"/>
<text text-anchor="start" x="169" y="-323.5" font-family="Helvetica,sans-Serif" font-size="10.00">Server_AbstractPlayer</text>
<text text-anchor="middle" x="223.5" y="-312.5" font-family="Helvetica,sans-Serif" font-size="10.00">::cmdAttachCard</text>
</a>
</g>
</g>
<!-- Node1&#45;&gt;Node2 -->
<g id="edge1_Node000001_Node000002" class="edge">
<title>Node1&#45;&gt;Node2</title>
<g id="a_edge1_Node000001_Node000002"><a xlink:title=" ">
<path fill="none" stroke="#63b8ff" d="M1101.52,-367.52C1025.68,-373.09 905.02,-380.5 800.5,-380.5 800.5,-380.5 800.5,-380.5 602.5,-380.5 488.05,-380.5 356.48,-353.34 282.65,-335.56"/>
<polygon fill="#63b8ff" stroke="#63b8ff" points="1106.91,-367.12 1102.09,-369.74 1104.41,-367.31 1101.92,-367.49 1101.92,-367.49 1101.92,-367.49 1104.41,-367.31 1101.76,-365.25 1106.91,-367.12 1106.91,-367.12"/>
</a>
</g>
</g>
<!-- Node3 -->
<g id="Node000003" class="node">
<title>Node3</title>
<g id="a_Node000003"><a xlink:href="../../da/d99/classServer__AbstractPlayer.html#a7747ca8a54aa8e4de4791e166423d290" target="_top" xlink:title=" ">
<polygon fill="white" stroke="#666666" points="125,-335.5 0,-335.5 0,-305.5 125,-305.5 125,-335.5"/>
<text text-anchor="start" x="8" y="-323.5" font-family="Helvetica,sans-Serif" font-size="10.00">Server_AbstractPlayer</text>
<text text-anchor="middle" x="62.5" y="-312.5" font-family="Helvetica,sans-Serif" font-size="10.00">::cmdCreateToken</text>
</a>
</g>
</g>
<!-- Node1&#45;&gt;Node3 -->
<g id="edge3_Node000001_Node000003" class="edge">
<title>Node1&#45;&gt;Node3</title>
<g id="a_edge3_Node000001_Node000003"><a xlink:title=" ">
<path fill="none" stroke="#63b8ff" d="M1118.53,-377.89C1103.18,-381.8 1086.54,-385.66 1071,-388.5 952.01,-410.21 921.46,-418.5 800.5,-418.5 800.5,-418.5 800.5,-418.5 403,-418.5 284.91,-418.5 152.45,-363.09 94,-335.6"/>
<polygon fill="#63b8ff" stroke="#63b8ff" points="1123.69,-376.56 1119.41,-379.99 1121.27,-377.18 1118.85,-377.81 1118.85,-377.81 1118.85,-377.81 1121.27,-377.18 1118.29,-375.63 1123.69,-376.56 1123.69,-376.56"/>
</a>
</g>
</g>
<!-- Node4 -->
<g id="Node000004" class="node">
<title>Node4</title>
<g id="a_Node000004"><a xlink:href="../../dc/d3a/classServer__CardZone.html#a74e56178b6890ed0a09f83de131fb9de" target="_top" xlink:title=" ">
<polygon fill="white" stroke="#666666" points="1071,-314.5 914,-314.5 914,-284.5 1071,-284.5 1071,-314.5"/>
<text text-anchor="start" x="922" y="-302.5" font-family="Helvetica,sans-Serif" font-size="10.00">Server_CardZone::insertCard</text>
<text text-anchor="middle" x="992.5" y="-291.5" font-family="Helvetica,sans-Serif" font-size="10.00">IntoCoordMap</text>
</a>
</g>
</g>
<!-- Node1&#45;&gt;Node4 -->
<g id="edge4_Node000001_Node000004" class="edge">
<title>Node1&#45;&gt;Node4</title>
<g id="a_edge4_Node000001_Node000004"><a xlink:title=" ">
<path fill="none" stroke="#63b8ff" d="M1127.44,-344.88C1099.62,-335.45 1065.07,-323.75 1038.03,-314.59"/>
<polygon fill="#63b8ff" stroke="#63b8ff" points="1132.2,-346.49 1126.74,-347.02 1129.83,-345.69 1127.47,-344.89 1127.47,-344.89 1127.47,-344.89 1129.83,-345.69 1128.19,-342.76 1132.2,-346.49 1132.2,-346.49"/>
</a>
</g>
</g>
<!-- Node9 -->
<g id="Node000009" class="node">
<title>Node9</title>
<g id="a_Node000009"><a xlink:href="../../da/d99/classServer__AbstractPlayer.html#aae9b5d4a87368a98428c9b1c8f50d180" target="_top" xlink:title=" ">
<polygon fill="white" stroke="#666666" points="666,-204.5 541,-204.5 541,-174.5 666,-174.5 666,-204.5"/>
<text text-anchor="start" x="549" y="-192.5" font-family="Helvetica,sans-Serif" font-size="10.00">Server_AbstractPlayer</text>
<text text-anchor="middle" x="603.5" y="-181.5" font-family="Helvetica,sans-Serif" font-size="10.00">::moveCard</text>
</a>
</g>
</g>
<!-- Node1&#45;&gt;Node9 -->
<g id="edge22_Node000001_Node000009" class="edge">
<title>Node1&#45;&gt;Node9</title>
<g id="a_edge22_Node000001_Node000009"><a xlink:title=" ">
<path fill="none" stroke="#63b8ff" d="M1101.84,-355.99C1048.7,-350.79 976.02,-341.08 914,-323.5 805.84,-292.85 685.83,-232.8 632.58,-204.69"/>
<polygon fill="#63b8ff" stroke="#63b8ff" points="1106.92,-356.48 1101.73,-358.24 1104.43,-356.24 1101.94,-356 1101.94,-356 1101.94,-356 1104.43,-356.24 1102.16,-353.76 1106.92,-356.48 1106.92,-356.48"/>
</a>
</g>
</g>
<!-- Node2&#45;&gt;Node3 -->
<g id="edge2_Node000002_Node000003" class="edge">
<title>Node2&#45;&gt;Node3</title>
<g id="a_edge2_Node000002_Node000003"><a xlink:title=" ">
<path fill="none" stroke="#63b8ff" d="M155.38,-320.5C145.39,-320.5 135.13,-320.5 125.26,-320.5"/>
<polygon fill="#63b8ff" stroke="#63b8ff" points="160.57,-320.5 155.57,-322.75 158.07,-320.5 155.57,-320.5 155.57,-320.5 155.57,-320.5 158.07,-320.5 155.57,-318.25 160.57,-320.5 160.57,-320.5"/>
</a>
</g>
</g>
<!-- Node5 -->
<g id="Node000005" class="node">
<title>Node5</title>
<g id="a_Node000005"><a xlink:href="../../dc/d3a/classServer__CardZone.html#a490925357492d8418111d19469cdccb0" target="_top" xlink:title=" ">
<polygon fill="white" stroke="#666666" points="878,-94 721,-94 721,-75 878,-75 878,-94"/>
<text text-anchor="middle" x="799.5" y="-82" font-family="Helvetica,sans-Serif" font-size="10.00">Server_CardZone::insertCard</text>
</a>
</g>
</g>
<!-- Node4&#45;&gt;Node5 -->
<g id="edge5_Node000004_Node000005" class="edge">
<title>Node4&#45;&gt;Node5</title>
<g id="a_edge5_Node000004_Node000005"><a xlink:title=" ">
<path fill="none" stroke="#63b8ff" d="M974.67,-280.55C935.3,-236.24 838.37,-127.13 809.04,-94.12"/>
<polygon fill="#63b8ff" stroke="#63b8ff" points="978.07,-284.38 973.07,-282.14 976.41,-282.51 974.75,-280.64 974.75,-280.64 974.75,-280.64 976.41,-282.51 976.43,-279.15 978.07,-284.38 978.07,-284.38"/>
</a>
</g>
</g>
<!-- Node15 -->
<g id="Node000015" class="node">
<title>Node15</title>
<g id="a_Node000015"><a xlink:href="../../dc/d3a/classServer__CardZone.html#af2fc569822b5d7620ceb34e28e1f8e07" target="_top" xlink:title=" ">
<polygon fill="white" stroke="#666666" points="685,-314.5 522,-314.5 522,-284.5 685,-284.5 685,-314.5"/>
<text text-anchor="start" x="530" y="-302.5" font-family="Helvetica,sans-Serif" font-size="10.00">Server_CardZone::updateCard</text>
<text text-anchor="middle" x="603.5" y="-291.5" font-family="Helvetica,sans-Serif" font-size="10.00">Coordinates</text>
</a>
</g>
</g>
<!-- Node4&#45;&gt;Node15 -->
<g id="edge19_Node000004_Node000015" class="edge">
<title>Node4&#45;&gt;Node15</title>
<g id="a_edge19_Node000004_Node000015"><a xlink:title=" ">
<path fill="none" stroke="#63b8ff" d="M908.54,-299.5C842.52,-299.5 750.66,-299.5 685.22,-299.5"/>
<polygon fill="#63b8ff" stroke="#63b8ff" points="913.65,-299.5 908.65,-301.75 911.15,-299.5 908.65,-299.5 908.65,-299.5 908.65,-299.5 911.15,-299.5 908.65,-297.25 913.65,-299.5 913.65,-299.5"/>
</a>
</g>
</g>
<!-- Node5&#45;&gt;Node3 -->
<g id="edge6_Node000005_Node000003" class="edge">
<title>Node5&#45;&gt;Node3</title>
<g id="a_edge6_Node000005_Node000003"><a xlink:title=" ">
<path fill="none" stroke="#63b8ff" d="M715.48,-81.41C598.44,-78.14 391.43,-76.64 322,-103.5 208.06,-147.58 108.24,-263.8 75.13,-305.41"/>
<polygon fill="#63b8ff" stroke="#63b8ff" points="720.64,-81.56 715.58,-83.67 718.14,-81.49 715.64,-81.42 715.64,-81.42 715.64,-81.42 718.14,-81.49 715.71,-79.17 720.64,-81.56 720.64,-81.56"/>
</a>
</g>
</g>
<!-- Node6 -->
<g id="Node000006" class="node">
<title>Node6</title>
<g id="a_Node000006"><a xlink:href="../../d8/d21/classServer__Player.html#af4f29c0855ce09de6cb16673b6ffc798" target="_top" xlink:title=" ">
<polygon fill="white" stroke="#666666" points="674.5,-56 532.5,-56 532.5,-37 674.5,-37 674.5,-56"/>
<text text-anchor="middle" x="603.5" y="-44" font-family="Helvetica,sans-Serif" font-size="10.00">Server_Player::drawCards</text>
</a>
</g>
</g>
<!-- Node5&#45;&gt;Node6 -->
<g id="edge7_Node000005_Node000006" class="edge">
<title>Node5&#45;&gt;Node6</title>
<g id="a_edge7_Node000005_Node000006"><a xlink:title=" ">
<path fill="none" stroke="#63b8ff" d="M744.63,-73.95C715.95,-68.33 680.95,-61.47 653.1,-56.02"/>
<polygon fill="#63b8ff" stroke="#63b8ff" points="749.55,-74.91 744.21,-76.16 747.09,-74.43 744.64,-73.95 744.64,-73.95 744.64,-73.95 747.09,-74.43 745.07,-71.74 749.55,-74.91 749.55,-74.91"/>
</a>
</g>
</g>
<!-- Node5&#45;&gt;Node9 -->
<g id="edge10_Node000005_Node000009" class="edge">
<title>Node5&#45;&gt;Node9</title>
<g id="a_edge10_Node000005_Node000009"><a xlink:title=" ">
<path fill="none" stroke="#63b8ff" d="M776.37,-96.48C740.86,-115.7 671.21,-153.39 632.36,-174.42"/>
<polygon fill="#63b8ff" stroke="#63b8ff" points="780.94,-94 777.62,-98.36 778.74,-95.19 776.54,-96.38 776.54,-96.38 776.54,-96.38 778.74,-95.19 775.47,-94.4 780.94,-94 780.94,-94"/>
</a>
</g>
</g>
<!-- Node14 -->
<g id="Node000014" class="node">
<title>Node14</title>
<g id="a_Node000014"><a xlink:href="../../d8/d21/classServer__Player.html#a92d72a36dfefc8c070d49d57b248c8e6" target="_top" xlink:title=" ">
<polygon fill="white" stroke="#666666" points="677,-19 530,-19 530,0 677,0 677,-19"/>
<text text-anchor="middle" x="603.5" y="-7" font-family="Helvetica,sans-Serif" font-size="10.00">Server_Player::setupZones</text>
</a>
</g>
</g>
<!-- Node5&#45;&gt;Node14 -->
<g id="edge18_Node000005_Node000014" class="edge">
<title>Node5&#45;&gt;Node14</title>
<g id="a_edge18_Node000005_Node000014"><a xlink:title=" ">
<path fill="none" stroke="#63b8ff" d="M778,-72.27C755.78,-59.48 718.93,-39.61 685,-27.5 675.83,-24.23 665.85,-21.42 656.14,-19.07"/>
<polygon fill="#63b8ff" stroke="#63b8ff" points="782.52,-74.89 777.06,-74.32 780.35,-73.63 778.19,-72.38 778.19,-72.38 778.19,-72.38 780.35,-73.63 779.32,-70.43 782.52,-74.89 782.52,-74.89"/>
</a>
</g>
</g>
<!-- Node7 -->
<g id="Node000007" class="node">
<title>Node7</title>
<g id="a_Node000007"><a xlink:href="../../d8/d21/classServer__Player.html#ad2f4951b344ea40b65995200b38d1564" target="_top" xlink:title=" ">
<polygon fill="white" stroke="#666666" points="486,-19 322,-19 322,0 486,0 486,-19"/>
<text text-anchor="middle" x="404" y="-7" font-family="Helvetica,sans-Serif" font-size="10.00">Server_Player::cmdDrawCards</text>
</a>
</g>
</g>
<!-- Node6&#45;&gt;Node7 -->
<g id="edge8_Node000006_Node000007" class="edge">
<title>Node6&#45;&gt;Node7</title>
<g id="a_edge8_Node000006_Node000007"><a xlink:title=" ">
<path fill="none" stroke="#63b8ff" d="M546.4,-35.99C517.97,-30.66 483.71,-24.25 456.03,-19.06"/>
<polygon fill="#63b8ff" stroke="#63b8ff" points="551.64,-36.97 546.31,-38.26 549.18,-36.51 546.72,-36.05 546.72,-36.05 546.72,-36.05 549.18,-36.51 547.14,-33.84 551.64,-36.97 551.64,-36.97"/>
</a>
</g>
</g>
<!-- Node8 -->
<g id="Node000008" class="node">
<title>Node8</title>
<g id="a_Node000008"><a xlink:href="../../d8/d21/classServer__Player.html#ad507b89d67a2f11f159bda36966b644e" target="_top" xlink:title=" ">
<polygon fill="white" stroke="#666666" points="480.5,-56 327.5,-56 327.5,-37 480.5,-37 480.5,-56"/>
<text text-anchor="middle" x="404" y="-44" font-family="Helvetica,sans-Serif" font-size="10.00">Server_Player::cmdMulligan</text>
</a>
</g>
</g>
<!-- Node6&#45;&gt;Node8 -->
<g id="edge9_Node000006_Node000008" class="edge">
<title>Node6&#45;&gt;Node8</title>
<g id="a_edge9_Node000006_Node000008"><a xlink:title=" ">
<path fill="none" stroke="#63b8ff" d="M527.18,-46.5C511.94,-46.5 495.91,-46.5 480.65,-46.5"/>
<polygon fill="#63b8ff" stroke="#63b8ff" points="532.31,-46.5 527.31,-48.75 529.81,-46.5 527.31,-46.5 527.31,-46.5 527.31,-46.5 529.81,-46.5 527.31,-44.25 532.31,-46.5 532.31,-46.5"/>
</a>
</g>
</g>
<!-- Node9&#45;&gt;Node2 -->
<g id="edge11_Node000009_Node000002" class="edge">
<title>Node9&#45;&gt;Node2</title>
<g id="a_edge11_Node000009_Node000002"><a xlink:title=" ">
<path fill="none" stroke="#63b8ff" d="M565.18,-206.7C542.6,-216.65 513.04,-228.86 486,-237.5 414.73,-260.27 392.78,-251.25 322,-275.5 298.19,-283.66 272.38,-295.72 253.3,-305.31"/>
<polygon fill="#63b8ff" stroke="#63b8ff" points="569.89,-204.61 566.23,-208.7 567.6,-205.63 565.32,-206.64 565.32,-206.64 565.32,-206.64 567.6,-205.63 564.41,-204.58 569.89,-204.61 569.89,-204.61"/>
</a>
</g>
</g>
<!-- Node9&#45;&gt;Node8 -->
<g id="edge14_Node000009_Node000008" class="edge">
<title>Node9&#45;&gt;Node8</title>
<g id="a_edge14_Node000009_Node000008"><a xlink:title=" ">
<path fill="none" stroke="#63b8ff" d="M578.17,-171.29C554.68,-153.77 518.06,-126.61 486,-103.5 462.57,-86.61 435,-67.34 418.83,-56.09"/>
<polygon fill="#63b8ff" stroke="#63b8ff" points="582.4,-174.45 577.04,-173.26 580.39,-172.95 578.39,-171.46 578.39,-171.46 578.39,-171.46 580.39,-172.95 579.74,-169.65 582.4,-174.45 582.4,-174.45"/>
</a>
</g>
</g>
<!-- Node10 -->
<g id="Node000010" class="node">
<title>Node10</title>
<g id="a_Node000010"><a xlink:href="../../da/d99/classServer__AbstractPlayer.html#a9064bd54618f3ddaad2e60ff4f43125e" target="_top" xlink:title=" ">
<polygon fill="white" stroke="#666666" points="466.5,-228.5 341.5,-228.5 341.5,-198.5 466.5,-198.5 466.5,-228.5"/>
<text text-anchor="start" x="349.5" y="-216.5" font-family="Helvetica,sans-Serif" font-size="10.00">Server_AbstractPlayer</text>
<text text-anchor="middle" x="404" y="-205.5" font-family="Helvetica,sans-Serif" font-size="10.00">::cmdConcede</text>
</a>
</g>
</g>
<!-- Node9&#45;&gt;Node10 -->
<g id="edge12_Node000009_Node000010" class="edge">
<title>Node9&#45;&gt;Node10</title>
<g id="a_edge12_Node000009_Node000010"><a xlink:title=" ">
<path fill="none" stroke="#63b8ff" d="M535.79,-197.61C513.39,-200.33 488.53,-203.35 466.55,-206.02"/>
<polygon fill="#63b8ff" stroke="#63b8ff" points="540.82,-197 536.13,-199.83 538.34,-197.3 535.86,-197.6 535.86,-197.6 535.86,-197.6 538.34,-197.3 535.59,-195.36 540.82,-197 540.82,-197"/>
</a>
</g>
</g>
<!-- Node11 -->
<g id="Node000011" class="node">
<title>Node11</title>
<g id="a_Node000011"><a xlink:href="../../da/d99/classServer__AbstractPlayer.html#a437acecfbf84b5dea39cbdffdacbaca2" target="_top" xlink:title=" ">
<polygon fill="white" stroke="#666666" points="466.5,-180.5 341.5,-180.5 341.5,-150.5 466.5,-150.5 466.5,-180.5"/>
<text text-anchor="start" x="349.5" y="-168.5" font-family="Helvetica,sans-Serif" font-size="10.00">Server_AbstractPlayer</text>
<text text-anchor="middle" x="404" y="-157.5" font-family="Helvetica,sans-Serif" font-size="10.00">::cmdMoveCard</text>
</a>
</g>
</g>
<!-- Node9&#45;&gt;Node11 -->
<g id="edge13_Node000009_Node000011" class="edge">
<title>Node9&#45;&gt;Node11</title>
<g id="a_edge13_Node000009_Node000011"><a xlink:title=" ">
<path fill="none" stroke="#63b8ff" d="M535.79,-181.39C513.39,-178.67 488.53,-175.65 466.55,-172.98"/>
<polygon fill="#63b8ff" stroke="#63b8ff" points="540.82,-182 535.59,-183.64 538.34,-181.7 535.86,-181.4 535.86,-181.4 535.86,-181.4 538.34,-181.7 536.13,-179.17 540.82,-182 540.82,-182"/>
</a>
</g>
</g>
<!-- Node12 -->
<g id="Node000012" class="node">
<title>Node12</title>
<g id="a_Node000012"><a xlink:href="../../d8/d21/classServer__Player.html#a00158ff0f645f30323164035f7f422ea" target="_top" xlink:title=" ">
<polygon fill="white" stroke="#666666" points="485,-132 323,-132 323,-113 485,-113 485,-132"/>
<text text-anchor="middle" x="404" y="-120" font-family="Helvetica,sans-Serif" font-size="10.00">Server_Player::cmdUndoDraw</text>
</a>
</g>
</g>
<!-- Node9&#45;&gt;Node12 -->
<g id="edge15_Node000009_Node000012" class="edge">
<title>Node9&#45;&gt;Node12</title>
<g id="a_edge15_Node000009_Node000012"><a xlink:title=" ">
<path fill="none" stroke="#63b8ff" d="M565.17,-172.33C542.59,-162.39 513.03,-150.18 486,-141.5 475,-137.97 462.96,-134.79 451.61,-132.09"/>
<polygon fill="#63b8ff" stroke="#63b8ff" points="569.88,-174.41 564.4,-174.44 567.6,-173.4 565.31,-172.39 565.31,-172.39 565.31,-172.39 567.6,-173.4 566.22,-170.33 569.88,-174.41 569.88,-174.41"/>
</a>
</g>
</g>
<!-- Node13 -->
<g id="Node000013" class="node">
<title>Node13</title>
<g id="a_Node000013"><a xlink:href="../../da/d99/classServer__AbstractPlayer.html#a6491fc2b2bd57681dcda4d06295762fd" target="_top" xlink:title=" ">
<polygon fill="white" stroke="#666666" points="466.5,-314.5 341.5,-314.5 341.5,-284.5 466.5,-284.5 466.5,-314.5"/>
<text text-anchor="start" x="349.5" y="-302.5" font-family="Helvetica,sans-Serif" font-size="10.00">Server_AbstractPlayer</text>
<text text-anchor="middle" x="404" y="-291.5" font-family="Helvetica,sans-Serif" font-size="10.00">::unattachCard</text>
</a>
</g>
</g>
<!-- Node9&#45;&gt;Node13 -->
<g id="edge16_Node000009_Node000013" class="edge">
<title>Node9&#45;&gt;Node13</title>
<g id="a_edge16_Node000009_Node000013"><a xlink:title=" ">
<path fill="none" stroke="#63b8ff" d="M580.04,-207.82C557.37,-225.63 520.84,-252.55 486,-270.5 475.91,-275.7 464.67,-280.37 453.85,-284.36"/>
<polygon fill="#63b8ff" stroke="#63b8ff" points="584.1,-204.6 581.58,-209.47 582.14,-206.15 580.18,-207.7 580.18,-207.7 580.18,-207.7 582.14,-206.15 578.79,-205.94 584.1,-204.6 584.1,-204.6"/>
</a>
</g>
</g>
<!-- Node13&#45;&gt;Node2 -->
<g id="edge17_Node000013_Node000002" class="edge">
<title>Node13&#45;&gt;Node2</title>
<g id="a_edge17_Node000013_Node000002"><a xlink:title=" ">
<path fill="none" stroke="#63b8ff" d="M336.26,-307.35C319.85,-309.28 302.35,-311.34 286.18,-313.24"/>
<polygon fill="#63b8ff" stroke="#63b8ff" points="341.32,-306.76 336.62,-309.58 338.84,-307.05 336.35,-307.34 336.35,-307.34 336.35,-307.34 338.84,-307.05 336.09,-305.11 341.32,-306.76 341.32,-306.76"/>
</a>
</g>
</g>
<!-- Node15&#45;&gt;Node2 -->
<g id="edge20_Node000015_Node000002" class="edge">
<title>Node15&#45;&gt;Node2</title>
<g id="a_edge20_Node000015_Node000002"><a xlink:title=" ">
<path fill="none" stroke="#63b8ff" d="M536.17,-315.59C519.87,-318.87 502.38,-321.83 486,-323.5 413.49,-330.89 394.88,-324.62 322,-323.5 310.4,-323.32 298.03,-323.02 286.13,-322.68"/>
<polygon fill="#63b8ff" stroke="#63b8ff" points="541.19,-314.56 536.74,-317.77 538.74,-315.06 536.29,-315.56 536.29,-315.56 536.29,-315.56 538.74,-315.06 535.84,-313.36 541.19,-314.56 541.19,-314.56"/>
</a>
</g>
</g>
<!-- Node15&#45;&gt;Node13 -->
<g id="edge21_Node000015_Node000013" class="edge">
<title>Node15&#45;&gt;Node13</title>
<g id="a_edge21_Node000015_Node000013"><a xlink:title=" ">
<path fill="none" stroke="#63b8ff" d="M516.67,-299.5C499.82,-299.5 482.46,-299.5 466.6,-299.5"/>
<polygon fill="#63b8ff" stroke="#63b8ff" points="521.88,-299.5 516.88,-301.75 519.38,-299.5 516.88,-299.5 516.88,-299.5 516.88,-299.5 519.38,-299.5 516.88,-297.25 521.88,-299.5 521.88,-299.5"/>
</a>
</g>
</g>
</g>
</svg>

<g id="navigator" transform="translate(0 0)" fill="#404254">
  <rect fill="#f2f5e9" fill-opacity="0.5" stroke="#606060" stroke-width=".5" x="0" y="0" width="60" height="60"/>
  <use id="zoomplus" xlink:href="#zoomPlus" x="17" y="9" onmousedown="handleZoom(evt,'in')"/>
  <use id="zoomminus" xlink:href="#zoomMin" x="42" y="9" onmousedown="handleZoom(evt,'out')"/>
  <use id="reset" xlink:href="#resetDef" x="30" y="36" onmousedown="handleReset()"/>
   <use id="arrowup" xlink:href="#arrowUp" x="0" y="0" onmousedown="handlePan(0,-1)"/>
  <use id="arrowright" xlink:href="#arrowRight" x="0" y="0" onmousedown="handlePan(1,0)"/>
  <use id="arrowdown" xlink:href="#arrowDown" x="0" y="0" onmousedown="handlePan(0,1)"/>
  <use id="arrowleft" xlink:href="#arrowLeft" x="0" y="0" onmousedown="handlePan(-1,0)"/>
</g>
<svg viewBox="0 0 15 15" width="100%" height="30px" preserveAspectRatio="xMaxYMin meet">
 <g id="arrow_out" transform="scale(0.3 0.3)">
  <a xlink:href="classServer__Card_a4133cbd20c19d006699f23ed26602d8f_icgraph_org.svg" target="_base">
   <rect id="button" ry="5" rx="5" y="6" x="6" height="38" width="38"
        fill="#f2f5e9" fill-opacity="0.5" stroke="#606060" stroke-width="1.0"/>
   <path id="arrow"
     d="M 11.500037,31.436501 C 11.940474,20.09759 22.043105,11.32322 32.158766,21.979434 L 37.068811,17.246167 C 37.068811,17.246167 37.088388,32 37.088388,32 L 22.160133,31.978069 C 22.160133,31.978069 26.997745,27.140456 26.997745,27.140456 C 18.528582,18.264221 13.291696,25.230495 11.500037,31.436501 z"
     style="fill:#404040;"/>
  </a>
 </g>
</svg>

<style type='text/css'>
<![CDATA[
[data-mouse-over-selected='false'] { opacity: 0.7; }
[data-mouse-over-selected='true']  { opacity: 1.0; }
]]>
</style>
<script type="application/ecmascript"><![CDATA[
document.addEventListener('DOMContentLoaded', (event) => {
  highlightEdges();
  highlightAdjacentNodes();
});
]]></script>
</svg>
