<?xml version="1.0" encoding="UTF-8" standalone="no"?>
<!DOCTYPE svg PUBLIC "-//W3C//DTD SVG 1.1//EN"
 "http://www.w3.org/Graphics/SVG/1.1/DTD/svg11.dtd">
<!-- Generated by graphviz version 2.43.0 (0)
 -->
<!-- Title: TabReplays::submitReplayCodeFinished Pages: 1 -->
<svg width="749pt" height="38pt"
 viewBox="0.00 0.00 749.00 38.00" xmlns="http://www.w3.org/2000/svg" xmlns:xlink="http://www.w3.org/1999/xlink">
<g id="graph0" class="graph" transform="scale(1 1) rotate(0) translate(4 34)">
<title>TabReplays::submitReplayCodeFinished</title>
<!-- Node1 -->
<g id="Node000001" class="node">
<title>Node1</title>
<g id="a_Node000001"><a xlink:title=" ">
<polygon fill="#999999" stroke="#666666" points="741,-30 595,-30 595,0 741,0 741,-30"/>
<text text-anchor="start" x="603" y="-18" font-family="Helvetica,sans-Serif" font-size="10.00">TabReplays::submitReplay</text>
<text text-anchor="middle" x="668" y="-7" font-family="Helvetica,sans-Serif" font-size="10.00">CodeFinished</text>
</a>
</g>
</g>
<!-- Node2 -->
<g id="Node000002" class="node">
<title>Node2</title>
<g id="a_Node000002"><a xlink:href="../../d6/d7d/classTabReplays.html#af144b14e8cbd1bbabcbe69490ff79c5d" target="_top" xlink:title=" ">
<polygon fill="white" stroke="#666666" points="559,-24.5 373,-24.5 373,-5.5 559,-5.5 559,-24.5"/>
<text text-anchor="middle" x="466" y="-12.5" font-family="Helvetica,sans-Serif" font-size="10.00">TabReplays::actSubmitReplayCode</text>
</a>
</g>
</g>
<!-- Node1&#45;&gt;Node2 -->
<g id="edge1_Node000001_Node000002" class="edge">
<title>Node1&#45;&gt;Node2</title>
<g id="a_edge1_Node000001_Node000002"><a xlink:title=" ">
<path fill="none" stroke="#63b8ff" d="M589.63,-15C579.69,-15 569.44,-15 559.3,-15"/>
<polygon fill="#63b8ff" stroke="#63b8ff" points="594.8,-15 589.8,-17.25 592.3,-15 589.8,-15 589.8,-15 589.8,-15 592.3,-15 589.8,-12.75 594.8,-15 594.8,-15"/>
</a>
</g>
</g>
<!-- Node3 -->
<g id="Node000003" class="node">
<title>Node3</title>
<g id="a_Node000003"><a xlink:href="../../d6/d7d/classTabReplays.html#a805960b4c7364438392bd9c0bf2c3568" target="_top" xlink:title=" ">
<polygon fill="white" stroke="#666666" points="337,-24.5 170,-24.5 170,-5.5 337,-5.5 337,-24.5"/>
<text text-anchor="middle" x="253.5" y="-12.5" font-family="Helvetica,sans-Serif" font-size="10.00">TabReplays::createRightLayout</text>
</a>
</g>
</g>
<!-- Node2&#45;&gt;Node3 -->
<g id="edge2_Node000002_Node000003" class="edge">
<title>Node2&#45;&gt;Node3</title>
<g id="a_edge2_Node000002_Node000003"><a xlink:title=" ">
<path fill="none" stroke="#63b8ff" d="M367.93,-15C357.61,-15 347.19,-15 337.07,-15"/>
<polygon fill="#63b8ff" stroke="#63b8ff" points="372.98,-15 367.98,-17.25 370.48,-15 367.98,-15 367.98,-15 367.98,-15 370.48,-15 367.98,-12.75 372.98,-15 372.98,-15"/>
</a>
</g>
</g>
<!-- Node4 -->
<g id="Node000004" class="node">
<title>Node4</title>
<g id="a_Node000004"><a xlink:href="../../d6/d7d/classTabReplays.html#aaa9581d7bc0c7f24f51355f214a5202e" target="_top" xlink:title=" ">
<polygon fill="white" stroke="#666666" points="134,-24.5 0,-24.5 0,-5.5 134,-5.5 134,-24.5"/>
<text text-anchor="middle" x="67" y="-12.5" font-family="Helvetica,sans-Serif" font-size="10.00">TabReplays::TabReplays</text>
</a>
</g>
</g>
<!-- Node3&#45;&gt;Node4 -->
<g id="edge3_Node000003_Node000004" class="edge">
<title>Node3&#45;&gt;Node4</title>
<g id="a_edge3_Node000003_Node000004"><a xlink:title=" ">
<path fill="none" stroke="#63b8ff" d="M164.89,-15C154.55,-15 144.12,-15 134.14,-15"/>
<polygon fill="#63b8ff" stroke="#63b8ff" points="169.96,-15 164.96,-17.25 167.46,-15 164.96,-15 164.96,-15 164.96,-15 167.46,-15 164.96,-12.75 169.96,-15 169.96,-15"/>
</a>
</g>
</g>
</g>
</svg>
