<?xml version="1.0" encoding="UTF-8" standalone="no"?>
<!DOCTYPE svg PUBLIC "-//W3C//DTD SVG 1.1//EN"
 "http://www.w3.org/Graphics/SVG/1.1/DTD/svg11.dtd">
<!-- Generated by graphviz version 2.43.0 (0)
 -->
<!-- Title: TabReplays::handleConnectionChanged Pages: 1 -->
<!--zoomable 206 -->

<svg id="main" version="1.1" xmlns="http://www.w3.org/2000/svg" xmlns:xlink="http://www.w3.org/1999/xlink" xml:space="preserve" onload="init(evt)">
<style type="text/css"><![CDATA[
.node, .edge {opacity: 0.7;}
.node.selected, .edge.selected {opacity: 1;}
.edge:hover path { stroke: red; }
.edge:hover polygon { stroke: red; fill: red; }
]]></style>

<defs>
  <circle id="rim" cx="0" cy="0" r="7"/>
  <circle id="rim2" cx="0" cy="0" r="3.5"/>
  <g id="zoomPlus">
    <use xlink:href="#rim" fill="#404040"><set attributeName="fill" to="#808080" begin="zoomplus.mouseover" end="zoomplus.mouseout"/></use>
    <path d="M-4,0h8M0,-4v8" fill="none" stroke="white" stroke-width="1.5" pointer-events="none"/>
  </g>
  <g id="zoomMin">
    <use xlink:href="#rim" fill="#404040"><set attributeName="fill" to="#808080" begin="zoomminus.mouseover" end="zoomminus.mouseout"/></use>
    <path d="M-4,0h8" fill="none" stroke="white" stroke-width="1.5" pointer-events="none"/>
  </g>
  <g id="arrowUp" transform="translate(30 24)">
    <use xlink:href="#rim"/>
    <path pointer-events="none" fill="none" stroke="white" stroke-width="1.5" d="M0,-3.0v7 M-2.5,-0.5L0,-3.0L2.5,-0.5"/>
  </g>
  <g id="arrowRight" transform="rotate(90) translate(36 -43)">
    <use xlink:href="#rim"/>
    <path pointer-events="none" fill="none" stroke="white" stroke-width="1.5" d="M0,-3.0v7 M-2.5,-0.5L0,-3.0L2.5,-0.5"/>
  </g>
  <g id="arrowDown" transform="rotate(180) translate(-30 -48)">
    <use xlink:href="#rim"/>
    <path pointer-events="none" fill="none" stroke="white" stroke-width="1.5" d="M0,-3.0v7 M-2.5,-0.5L0,-3.0L2.5,-0.5"/>
  </g>
  <g id="arrowLeft" transform="rotate(270) translate(-36 17)">
    <use xlink:href="#rim"/>
    <path pointer-events="none" fill="none" stroke="white" stroke-width="1.5" d="M0,-3.0v7 M-2.5,-0.5L0,-3.0L2.5,-0.5"/>
  </g>
  <g id="resetDef">
    <use xlink:href="#rim2" fill="#404040"><set attributeName="fill" to="#808080" begin="reset.mouseover" end="reset.mouseout"/></use>
  </g>
</defs>
<script type="application/ecmascript">
var viewWidth = 1179;
var viewHeight = 206;
var sectionId = 'dynsection-35';
</script>
<script type="application/ecmascript" xlink:href="../../svg.min.js"/>
<svg id="graph" class="graph">
<g id="viewport">
<title>TabReplays::handleConnectionChanged</title>
<!-- Node1 -->
<g id="Node000001" class="node">
<title>Node1</title>
<g id="a_Node000001"><a xlink:title=" ">
<polygon fill="#999999" stroke="#666666" points="166,-157.5 0,-157.5 0,-127.5 166,-127.5 166,-157.5"/>
<text text-anchor="start" x="8" y="-145.5" font-family="Helvetica,sans-Serif" font-size="10.00">TabReplays::handleConnection</text>
<text text-anchor="middle" x="83" y="-134.5" font-family="Helvetica,sans-Serif" font-size="10.00">Changed</text>
</a>
</g>
</g>
<!-- Node2 -->
<g id="Node000002" class="node">
<title>Node2</title>
<g id="a_Node000002"><a xlink:href="../../d6/d7d/classTabReplays.html#aed44946b5bf5373a849224c8a0fa47c6" target="_top" xlink:title=" ">
<polygon fill="white" stroke="#666666" points="372,-152 202,-152 202,-133 372,-133 372,-152"/>
<text text-anchor="middle" x="287" y="-140" font-family="Helvetica,sans-Serif" font-size="10.00">TabReplays::setRemoteEnabled</text>
</a>
</g>
</g>
<!-- Node1&#45;&gt;Node2 -->
<g id="edge1_Node000001_Node000002" class="edge">
<title>Node1&#45;&gt;Node2</title>
<g id="a_edge1_Node000001_Node000002"><a xlink:title=" ">
<path fill="none" stroke="#63b8ff" d="M166.16,-142.5C176.3,-142.5 186.7,-142.5 196.93,-142.5"/>
<polygon fill="#63b8ff" stroke="#63b8ff" points="201.94,-142.5 196.94,-144.75 199.44,-142.5 196.94,-142.5 196.94,-142.5 196.94,-142.5 199.44,-142.5 196.94,-140.25 201.94,-142.5 201.94,-142.5"/>
</a>
</g>
</g>
<!-- Node3 -->
<g id="Node000003" class="node">
<title>Node3</title>
<g id="a_Node000003"><a xlink:href="../../db/dea/classRemoteReplayList__TreeWidget.html#ad7455777a96b0a94b32c390e00629a22" target="_top" xlink:title=" ">
<polygon fill="white" stroke="#666666" points="574,-181.5 408,-181.5 408,-151.5 574,-151.5 574,-181.5"/>
<text text-anchor="start" x="416" y="-169.5" font-family="Helvetica,sans-Serif" font-size="10.00">RemoteReplayList_TreeWidget</text>
<text text-anchor="middle" x="491" y="-158.5" font-family="Helvetica,sans-Serif" font-size="10.00">::clearTree</text>
</a>
</g>
</g>
<!-- Node2&#45;&gt;Node3 -->
<g id="edge2_Node000002_Node000003" class="edge">
<title>Node2&#45;&gt;Node3</title>
<g id="a_edge2_Node000002_Node000003"><a xlink:title=" ">
<path fill="none" stroke="#63b8ff" d="M368.13,-152.02C379.49,-153.37 391.23,-154.76 402.72,-156.13"/>
<polygon fill="#63b8ff" stroke="#63b8ff" points="407.99,-156.76 402.75,-158.4 405.5,-156.46 403.02,-156.17 403.02,-156.17 403.02,-156.17 405.5,-156.46 403.29,-153.93 407.99,-156.76 407.99,-156.76"/>
</a>
</g>
</g>
<!-- Node6 -->
<g id="Node000006" class="node">
<title>Node6</title>
<g id="a_Node000006"><a xlink:href="../../db/dea/classRemoteReplayList__TreeWidget.html#ac3f1e872be035c3e3154a118ef03472e" target="_top" xlink:title=" ">
<polygon fill="white" stroke="#666666" points="574,-133.5 408,-133.5 408,-103.5 574,-103.5 574,-133.5"/>
<text text-anchor="start" x="416" y="-121.5" font-family="Helvetica,sans-Serif" font-size="10.00">RemoteReplayList_TreeWidget</text>
<text text-anchor="middle" x="491" y="-110.5" font-family="Helvetica,sans-Serif" font-size="10.00">::refreshTree</text>
</a>
</g>
</g>
<!-- Node2&#45;&gt;Node6 -->
<g id="edge5_Node000002_Node000006" class="edge">
<title>Node2&#45;&gt;Node6</title>
<g id="a_edge5_Node000002_Node000006"><a xlink:title=" ">
<path fill="none" stroke="#63b8ff" d="M368.13,-132.98C379.49,-131.63 391.23,-130.24 402.72,-128.87"/>
<polygon fill="#63b8ff" stroke="#63b8ff" points="407.99,-128.24 403.29,-131.07 405.5,-128.54 403.02,-128.83 403.02,-128.83 403.02,-128.83 405.5,-128.54 402.75,-126.6 407.99,-128.24 407.99,-128.24"/>
</a>
</g>
</g>
<!-- Node4 -->
<g id="Node000004" class="node">
<title>Node4</title>
<g id="a_Node000004"><a xlink:href="../../d5/da5/classRemoteReplayList__TreeModel.html#ac76dcc5349f4faa32d70beefa723ca49" target="_top" xlink:title=" ">
<polygon fill="white" stroke="#666666" points="771,-197.5 610,-197.5 610,-167.5 771,-167.5 771,-197.5"/>
<text text-anchor="start" x="618" y="-185.5" font-family="Helvetica,sans-Serif" font-size="10.00">RemoteReplayList_TreeModel</text>
<text text-anchor="middle" x="690.5" y="-174.5" font-family="Helvetica,sans-Serif" font-size="10.00">::clearTree</text>
</a>
</g>
</g>
<!-- Node3&#45;&gt;Node4 -->
<g id="edge3_Node000003_Node000004" class="edge">
<title>Node3&#45;&gt;Node4</title>
<g id="a_edge3_Node000003_Node000004"><a xlink:title=" ">
<path fill="none" stroke="#63b8ff" d="M574.04,-173.15C584.24,-173.97 594.69,-174.82 604.93,-175.65"/>
<polygon fill="#63b8ff" stroke="#63b8ff" points="609.93,-176.05 604.77,-177.89 607.44,-175.85 604.95,-175.65 604.95,-175.65 604.95,-175.65 607.44,-175.85 605.13,-173.41 609.93,-176.05 609.93,-176.05"/>
</a>
</g>
</g>
<!-- Node5 -->
<g id="Node000005" class="node">
<title>Node5</title>
<g id="a_Node000005"><a xlink:href="../../d5/da5/classRemoteReplayList__TreeModel.html#a4347e769e6e568e4a3f7ab34678e085a" target="_top" xlink:title=" ">
<polygon fill="white" stroke="#666666" points="1171,-173.5 1010,-173.5 1010,-143.5 1171,-143.5 1171,-173.5"/>
<text text-anchor="start" x="1018" y="-161.5" font-family="Helvetica,sans-Serif" font-size="10.00">RemoteReplayList_TreeModel</text>
<text text-anchor="middle" x="1090.5" y="-150.5" font-family="Helvetica,sans-Serif" font-size="10.00">::clearAll</text>
</a>
</g>
</g>
<!-- Node4&#45;&gt;Node5 -->
<g id="edge4_Node000004_Node000005" class="edge">
<title>Node4&#45;&gt;Node5</title>
<g id="a_edge4_Node000004_Node000005"><a xlink:title=" ">
<path fill="none" stroke="#63b8ff" d="M771.16,-185.77C827.86,-187.17 905.78,-187.18 974,-180.5 987.84,-179.14 1002.5,-176.95 1016.55,-174.46"/>
<polygon fill="#63b8ff" stroke="#63b8ff" points="1021.7,-173.53 1017.18,-176.64 1019.24,-173.98 1016.78,-174.42 1016.78,-174.42 1016.78,-174.42 1019.24,-173.98 1016.38,-172.21 1021.7,-173.53 1021.7,-173.53"/>
</a>
</g>
</g>
<!-- Node7 -->
<g id="Node000007" class="node">
<title>Node7</title>
<g id="a_Node000007"><a xlink:href="../../d5/da5/classRemoteReplayList__TreeModel.html#a74e38e7ad7671aad6432d90ae619f002" target="_top" xlink:title=" ">
<polygon fill="white" stroke="#666666" points="771,-133.5 610,-133.5 610,-103.5 771,-103.5 771,-133.5"/>
<text text-anchor="start" x="618" y="-121.5" font-family="Helvetica,sans-Serif" font-size="10.00">RemoteReplayList_TreeModel</text>
<text text-anchor="middle" x="690.5" y="-110.5" font-family="Helvetica,sans-Serif" font-size="10.00">::refreshTree</text>
</a>
</g>
</g>
<!-- Node6&#45;&gt;Node7 -->
<g id="edge6_Node000006_Node000007" class="edge">
<title>Node6&#45;&gt;Node7</title>
<g id="a_edge6_Node000006_Node000007"><a xlink:title=" ">
<path fill="none" stroke="#63b8ff" d="M574.04,-118.5C584.24,-118.5 594.69,-118.5 604.93,-118.5"/>
<polygon fill="#63b8ff" stroke="#63b8ff" points="609.93,-118.5 604.93,-120.75 607.43,-118.5 604.93,-118.5 604.93,-118.5 604.93,-118.5 607.43,-118.5 604.93,-116.25 609.93,-118.5 609.93,-118.5"/>
</a>
</g>
</g>
<!-- Node8 -->
<g id="Node000008" class="node">
<title>Node8</title>
<g id="a_Node000008"><a xlink:href="../../d8/d62/classPendingCommand.html#a592d604b15abf4153c4b401484396324" target="_top" xlink:title=" ">
<polygon fill="white" stroke="#666666" points="965.5,-171 815.5,-171 815.5,-152 965.5,-152 965.5,-171"/>
<text text-anchor="middle" x="890.5" y="-159" font-family="Helvetica,sans-Serif" font-size="10.00">PendingCommand::finished</text>
</a>
</g>
</g>
<!-- Node7&#45;&gt;Node8 -->
<g id="edge7_Node000007_Node000008" class="edge">
<title>Node7&#45;&gt;Node8</title>
<g id="a_edge7_Node000007_Node000008"><a xlink:title=" ">
<path fill="none" stroke="#63b8ff" d="M760.75,-133.54C787.09,-139.26 816.53,-145.65 840.6,-150.88"/>
<polygon fill="#63b8ff" stroke="#63b8ff" points="845.65,-151.98 840.29,-153.12 843.21,-151.45 840.77,-150.92 840.77,-150.92 840.77,-150.92 843.21,-151.45 841.24,-148.72 845.65,-151.98 845.65,-151.98"/>
</a>
</g>
</g>
<!-- Node9 -->
<g id="Node000009" class="node">
<title>Node9</title>
<g id="a_Node000009"><a xlink:href="../../dc/d86/classAbstractClient.html#afd7538b953c3e9d204b68d076b0c6ab1" target="_top" xlink:title=" ">
<polygon fill="white" stroke="#666666" points="974,-133.5 807,-133.5 807,-103.5 974,-103.5 974,-133.5"/>
<text text-anchor="start" x="815" y="-121.5" font-family="Helvetica,sans-Serif" font-size="10.00">AbstractClient::prepareSession</text>
<text text-anchor="middle" x="890.5" y="-110.5" font-family="Helvetica,sans-Serif" font-size="10.00">Command</text>
</a>
</g>
</g>
<!-- Node7&#45;&gt;Node9 -->
<g id="edge8_Node000007_Node000009" class="edge">
<title>Node7&#45;&gt;Node9</title>
<g id="a_edge8_Node000007_Node000009"><a xlink:title=" ">
<path fill="none" stroke="#63b8ff" d="M771.18,-118.5C781.15,-118.5 791.4,-118.5 801.49,-118.5"/>
<polygon fill="#63b8ff" stroke="#63b8ff" points="806.75,-118.5 801.75,-120.75 804.25,-118.5 801.75,-118.5 801.75,-118.5 801.75,-118.5 804.25,-118.5 801.75,-116.25 806.75,-118.5 806.75,-118.5"/>
</a>
</g>
</g>
<!-- Node10 -->
<g id="Node000010" class="node">
<title>Node10</title>
<g id="a_Node000010"><a xlink:href="../../d5/da5/classRemoteReplayList__TreeModel.html#afa1e6fe948a6c1d3d2c04396f05935d4" target="_top" xlink:title=" ">
<polygon fill="white" stroke="#666666" points="971,-85.5 810,-85.5 810,-55.5 971,-55.5 971,-85.5"/>
<text text-anchor="start" x="818" y="-73.5" font-family="Helvetica,sans-Serif" font-size="10.00">RemoteReplayList_TreeModel</text>
<text text-anchor="middle" x="890.5" y="-62.5" font-family="Helvetica,sans-Serif" font-size="10.00">::replayListFinished</text>
</a>
</g>
</g>
<!-- Node7&#45;&gt;Node10 -->
<g id="edge9_Node000007_Node000010" class="edge">
<title>Node7&#45;&gt;Node10</title>
<g id="a_edge9_Node000007_Node000010"><a xlink:title=" ">
<path fill="none" stroke="#63b8ff" d="M753.61,-103.44C775.54,-98.13 800.29,-92.13 822.6,-86.72"/>
<polygon fill="#63b8ff" stroke="#63b8ff" points="827.62,-85.5 823.29,-88.87 825.19,-86.09 822.76,-86.68 822.76,-86.68 822.76,-86.68 825.19,-86.09 822.23,-84.49 827.62,-85.5 827.62,-85.5"/>
</a>
</g>
</g>
<!-- Node12 -->
<g id="Node000012" class="node">
<title>Node12</title>
<g id="a_Node000012"><a xlink:href="../../dc/d86/classAbstractClient.html#a759acefdf58266cafdf63284c55c5711" target="_top" xlink:title=" ">
<polygon fill="white" stroke="#666666" points="973,-19 808,-19 808,0 973,0 973,-19"/>
<text text-anchor="middle" x="890.5" y="-7" font-family="Helvetica,sans-Serif" font-size="10.00">AbstractClient::sendCommand</text>
</a>
</g>
</g>
<!-- Node7&#45;&gt;Node12 -->
<g id="edge12_Node000007_Node000012" class="edge">
<title>Node7&#45;&gt;Node12</title>
<g id="a_edge12_Node000007_Node000012"><a xlink:title=" ">
<path fill="none" stroke="#63b8ff" d="M713.97,-103.22C736.86,-87.96 773.63,-64.28 807,-46.5 824.58,-37.14 845,-27.97 861.12,-21.1"/>
<polygon fill="#63b8ff" stroke="#63b8ff" points="865.98,-19.04 862.25,-23.06 863.68,-20.02 861.38,-20.99 861.38,-20.99 861.38,-20.99 863.68,-20.02 860.5,-18.92 865.98,-19.04 865.98,-19.04"/>
</a>
</g>
</g>
<!-- Node10&#45;&gt;Node5 -->
<g id="edge10_Node000010_Node000005" class="edge">
<title>Node10&#45;&gt;Node5</title>
<g id="a_edge10_Node000010_Node000005"><a xlink:title=" ">
<path fill="none" stroke="#63b8ff" d="M949.32,-85.54C957.71,-88.23 966.15,-91.23 974,-94.5 1005.15,-107.47 1038.66,-126.68 1061.52,-140.67"/>
<polygon fill="#63b8ff" stroke="#63b8ff" points="1065.95,-143.4 1060.51,-142.69 1063.82,-142.09 1061.69,-140.77 1061.69,-140.77 1061.69,-140.77 1063.82,-142.09 1062.87,-138.86 1065.95,-143.4 1065.95,-143.4"/>
</a>
</g>
</g>
<!-- Node11 -->
<g id="Node000011" class="node">
<title>Node11</title>
<g id="a_Node000011"><a xlink:href="../../d5/da5/classRemoteReplayList__TreeModel.html#a79fd1b885bf85bd5071a8bf4a4f1a9ee" target="_top" xlink:title=" ">
<polygon fill="white" stroke="#666666" points="1171,-85.5 1010,-85.5 1010,-55.5 1171,-55.5 1171,-85.5"/>
<text text-anchor="start" x="1018" y="-73.5" font-family="Helvetica,sans-Serif" font-size="10.00">RemoteReplayList_TreeModel</text>
<text text-anchor="middle" x="1090.5" y="-62.5" font-family="Helvetica,sans-Serif" font-size="10.00">::treeRefreshed</text>
</a>
</g>
</g>
<!-- Node10&#45;&gt;Node11 -->
<g id="edge11_Node000010_Node000011" class="edge">
<title>Node10&#45;&gt;Node11</title>
<g id="a_edge11_Node000010_Node000011"><a xlink:title=" ">
<path fill="none" stroke="#63b8ff" d="M971.18,-70.5C982.27,-70.5 993.69,-70.5 1004.87,-70.5"/>
<polygon fill="#63b8ff" stroke="#63b8ff" points="1009.98,-70.5 1004.98,-72.75 1007.48,-70.5 1004.98,-70.5 1004.98,-70.5 1004.98,-70.5 1007.48,-70.5 1004.98,-68.25 1009.98,-70.5 1009.98,-70.5"/>
</a>
</g>
</g>
<!-- Node12&#45;&gt;Node12 -->
<g id="edge13_Node000012_Node000012" class="edge">
<title>Node12&#45;&gt;Node12</title>
<g id="a_edge13_Node000012_Node000012"><a xlink:title=" ">
<path fill="none" stroke="#63b8ff" d="M859.67,-19.08C844.68,-27.73 854.95,-37 890.5,-37 921.6,-37 933.36,-29.91 925.76,-22.34"/>
<polygon fill="#63b8ff" stroke="#63b8ff" points="921.33,-19.08 926.69,-20.22 923.34,-20.56 925.36,-22.04 925.36,-22.04 925.36,-22.04 923.34,-20.56 924.03,-23.85 921.33,-19.08 921.33,-19.08"/>
</a>
</g>
</g>
</g>
</svg>

<g id="navigator" transform="translate(0 0)" fill="#404254">
  <rect fill="#f2f5e9" fill-opacity="0.5" stroke="#606060" stroke-width=".5" x="0" y="0" width="60" height="60"/>
  <use id="zoomplus" xlink:href="#zoomPlus" x="17" y="9" onmousedown="handleZoom(evt,'in')"/>
  <use id="zoomminus" xlink:href="#zoomMin" x="42" y="9" onmousedown="handleZoom(evt,'out')"/>
  <use id="reset" xlink:href="#resetDef" x="30" y="36" onmousedown="handleReset()"/>
   <use id="arrowup" xlink:href="#arrowUp" x="0" y="0" onmousedown="handlePan(0,-1)"/>
  <use id="arrowright" xlink:href="#arrowRight" x="0" y="0" onmousedown="handlePan(1,0)"/>
  <use id="arrowdown" xlink:href="#arrowDown" x="0" y="0" onmousedown="handlePan(0,1)"/>
  <use id="arrowleft" xlink:href="#arrowLeft" x="0" y="0" onmousedown="handlePan(-1,0)"/>
</g>
<svg viewBox="0 0 15 15" width="100%" height="30px" preserveAspectRatio="xMaxYMin meet">
 <g id="arrow_out" transform="scale(0.3 0.3)">
  <a xlink:href="classTabReplays_a09217a3f6e4a2067ae838ed73836c20a_cgraph_org.svg" target="_base">
   <rect id="button" ry="5" rx="5" y="6" x="6" height="38" width="38"
        fill="#f2f5e9" fill-opacity="0.5" stroke="#606060" stroke-width="1.0"/>
   <path id="arrow"
     d="M 11.500037,31.436501 C 11.940474,20.09759 22.043105,11.32322 32.158766,21.979434 L 37.068811,17.246167 C 37.068811,17.246167 37.088388,32 37.088388,32 L 22.160133,31.978069 C 22.160133,31.978069 26.997745,27.140456 26.997745,27.140456 C 18.528582,18.264221 13.291696,25.230495 11.500037,31.436501 z"
     style="fill:#404040;"/>
  </a>
 </g>
</svg>

<style type='text/css'>
<![CDATA[
[data-mouse-over-selected='false'] { opacity: 0.7; }
[data-mouse-over-selected='true']  { opacity: 1.0; }
]]>
</style>
<script type="application/ecmascript"><![CDATA[
document.addEventListener('DOMContentLoaded', (event) => {
  highlightEdges();
  highlightAdjacentNodes();
});
]]></script>
</svg>
