<?xml version="1.0" encoding="UTF-8" standalone="no"?>
<!DOCTYPE svg PUBLIC "-//W3C//DTD SVG 1.1//EN"
 "http://www.w3.org/Graphics/SVG/1.1/DTD/svg11.dtd">
<!-- Generated by graphviz version 2.43.0 (0)
 -->
<!-- Title: cockatrice/src/interface/widgets/server/game_filter_configs.cpp Pages: 1 -->
<svg width="158pt" height="159pt"
 viewBox="0.00 0.00 158.00 159.00" xmlns="http://www.w3.org/2000/svg" xmlns:xlink="http://www.w3.org/1999/xlink">
<g id="graph0" class="graph" transform="scale(1 1) rotate(0) translate(4 155)">
<title>cockatrice/src/interface/widgets/server/game_filter_configs.cpp</title>
<!-- Node1 -->
<g id="Node000001" class="node">
<title>Node1</title>
<g id="a_Node000001"><a xlink:title=" ">
<polygon fill="#999999" stroke="#666666" points="150,-151 0,-151 0,-110 150,-110 150,-151"/>
<text text-anchor="start" x="8" y="-139" font-family="Helvetica,sans-Serif" font-size="10.00">cockatrice/src/interface</text>
<text text-anchor="start" x="8" y="-128" font-family="Helvetica,sans-Serif" font-size="10.00">/widgets/server/game_filter</text>
<text text-anchor="middle" x="75" y="-117" font-family="Helvetica,sans-Serif" font-size="10.00">_configs.cpp</text>
</a>
</g>
</g>
<!-- Node2 -->
<g id="Node000002" class="node">
<title>Node2</title>
<g id="a_Node000002"><a xlink:href="../../db/d68/game__filter__configs_8h.html" target="_top" xlink:title=" ">
<polygon fill="white" stroke="#666666" points="135.5,-74 14.5,-74 14.5,-55 135.5,-55 135.5,-74"/>
<text text-anchor="middle" x="75" y="-62" font-family="Helvetica,sans-Serif" font-size="10.00">game_filter_configs.h</text>
</a>
</g>
</g>
<!-- Node1&#45;&gt;Node2 -->
<g id="edge1_Node000001_Node000002" class="edge">
<title>Node1&#45;&gt;Node2</title>
<g id="a_edge1_Node000001_Node000002"><a xlink:title=" ">
<path fill="none" stroke="#63b8ff" d="M75,-109.95C75,-100.09 75,-88.35 75,-79.42"/>
<polygon fill="#63b8ff" stroke="#63b8ff" points="75,-74.26 77.25,-79.26 75,-76.76 75,-79.26 75,-79.26 75,-79.26 75,-76.76 72.75,-79.26 75,-74.26 75,-74.26"/>
</a>
</g>
</g>
<!-- Node3 -->
<g id="Node000003" class="node">
<title>Node3</title>
<g id="a_Node000003"><a xlink:title=" ">
<polygon fill="#e0e0e0" stroke="#999999" points="99.5,-19 50.5,-19 50.5,0 99.5,0 99.5,-19"/>
<text text-anchor="middle" x="75" y="-7" font-family="Helvetica,sans-Serif" font-size="10.00">QTime</text>
</a>
</g>
</g>
<!-- Node2&#45;&gt;Node3 -->
<g id="edge2_Node000002_Node000003" class="edge">
<title>Node2&#45;&gt;Node3</title>
<g id="a_edge2_Node000002_Node000003"><a xlink:title=" ">
<path fill="none" stroke="#63b8ff" d="M75,-54.75C75,-46.41 75,-33.74 75,-24.09"/>
<polygon fill="#63b8ff" stroke="#63b8ff" points="75,-19.09 77.25,-24.09 75,-21.59 75,-24.09 75,-24.09 75,-24.09 75,-21.59 72.75,-24.09 75,-19.09 75,-19.09"/>
</a>
</g>
</g>
</g>
</svg>
