<?xml version="1.0" encoding="UTF-8" standalone="no"?>
<!DOCTYPE svg PUBLIC "-//W3C//DTD SVG 1.1//EN"
 "http://www.w3.org/Graphics/SVG/1.1/DTD/svg11.dtd">
<!-- Generated by graphviz version 2.43.0 (0)
 -->
<!-- Title: AbstractClient::removeFromListEventReceived Pages: 1 -->
<svg width="802pt" height="150pt"
 viewBox="0.00 0.00 802.00 149.50" xmlns="http://www.w3.org/2000/svg" xmlns:xlink="http://www.w3.org/1999/xlink">
<g id="graph0" class="graph" transform="scale(1 1) rotate(0) translate(4 145.5)">
<title>AbstractClient::removeFromListEventReceived</title>
<!-- Node1 -->
<g id="Node000001" class="node">
<title>Node1</title>
<g id="a_Node000001"><a xlink:title=" ">
<polygon fill="#999999" stroke="#666666" points="794,-91 640,-91 640,-61 794,-61 794,-91"/>
<text text-anchor="start" x="648" y="-79" font-family="Helvetica,sans-Serif" font-size="10.00">AbstractClient::removeFrom</text>
<text text-anchor="middle" x="717" y="-68" font-family="Helvetica,sans-Serif" font-size="10.00">ListEventReceived</text>
</a>
</g>
</g>
<!-- Node2 -->
<g id="Node000002" class="node">
<title>Node2</title>
<g id="a_Node000002"><a xlink:href="../../df/d3f/classGameSelector.html#a5349eb187f8318d008fc1b805c17cf0c" target="_top" xlink:title=" ">
<polygon fill="white" stroke="#666666" points="589,-141.5 428,-141.5 428,-122.5 589,-122.5 589,-141.5"/>
<text text-anchor="middle" x="508.5" y="-129.5" font-family="Helvetica,sans-Serif" font-size="10.00">GameSelector::GameSelector</text>
</a>
</g>
</g>
<!-- Node1&#45;&gt;Node2 -->
<g id="edge1_Node000001_Node000002" class="edge">
<title>Node1&#45;&gt;Node2</title>
<g id="a_edge1_Node000001_Node000002"><a xlink:title=" ">
<path fill="none" stroke="#63b8ff" d="M671.17,-92.8C650.86,-100 626.43,-108.09 604,-114 591.97,-117.17 578.94,-120.02 566.51,-122.47"/>
<polygon fill="#63b8ff" stroke="#63b8ff" points="675.98,-91.09 672.02,-94.89 673.62,-91.93 671.27,-92.77 671.27,-92.77 671.27,-92.77 673.62,-91.93 670.51,-90.65 675.98,-91.09 675.98,-91.09"/>
</a>
</g>
</g>
<!-- Node3 -->
<g id="Node000003" class="node">
<title>Node3</title>
<g id="a_Node000003"><a xlink:href="../../dc/d86/classAbstractClient.html#a4433c70e9654d4981693f29d8232d1c6" target="_top" xlink:title=" ">
<polygon fill="white" stroke="#666666" points="604,-104.5 413,-104.5 413,-85.5 604,-85.5 604,-104.5"/>
<text text-anchor="middle" x="508.5" y="-92.5" font-family="Helvetica,sans-Serif" font-size="10.00">AbstractClient::processProtocolItem</text>
</a>
</g>
</g>
<!-- Node1&#45;&gt;Node3 -->
<g id="edge2_Node000001_Node000003" class="edge">
<title>Node1&#45;&gt;Node3</title>
<g id="a_edge2_Node000001_Node000003"><a xlink:title=" ">
<path fill="none" stroke="#63b8ff" d="M634.78,-83.47C624.78,-84.39 614.49,-85.34 604.3,-86.28"/>
<polygon fill="#63b8ff" stroke="#63b8ff" points="639.99,-82.99 635.21,-85.69 637.5,-83.22 635.01,-83.45 635.01,-83.45 635.01,-83.45 637.5,-83.22 634.8,-81.21 639.99,-82.99 639.99,-82.99"/>
</a>
</g>
</g>
<!-- Node9 -->
<g id="Node000009" class="node">
<title>Node9</title>
<g id="a_Node000009"><a xlink:href="../../d5/da7/classTabAccount.html#a60c2fa0c4dd7cf1c419907712aa90068" target="_top" xlink:title=" ">
<polygon fill="white" stroke="#666666" points="575.5,-67.5 441.5,-67.5 441.5,-48.5 575.5,-48.5 575.5,-67.5"/>
<text text-anchor="middle" x="508.5" y="-55.5" font-family="Helvetica,sans-Serif" font-size="10.00">TabAccount::TabAccount</text>
</a>
</g>
</g>
<!-- Node1&#45;&gt;Node9 -->
<g id="edge9_Node000001_Node000009" class="edge">
<title>Node1&#45;&gt;Node9</title>
<g id="a_edge9_Node000001_Node000009"><a xlink:title=" ">
<path fill="none" stroke="#63b8ff" d="M634.53,-68.9C615.06,-67.2 594.51,-65.41 575.83,-63.78"/>
<polygon fill="#63b8ff" stroke="#63b8ff" points="639.99,-69.37 634.81,-71.18 637.5,-69.16 635.01,-68.94 635.01,-68.94 635.01,-68.94 637.5,-69.16 635.2,-66.7 639.99,-69.37 639.99,-69.37"/>
</a>
</g>
</g>
<!-- Node10 -->
<g id="Node000010" class="node">
<title>Node10</title>
<g id="a_Node000010"><a xlink:href="../../db/d6d/classUserListManager.html#abe13bceeb67159e0c1b108b1e1c84691" target="_top" xlink:title=" ">
<polygon fill="white" stroke="#666666" points="581,-30 436,-30 436,0 581,0 581,-30"/>
<text text-anchor="start" x="444" y="-18" font-family="Helvetica,sans-Serif" font-size="10.00">UserListManager::UserList</text>
<text text-anchor="middle" x="508.5" y="-7" font-family="Helvetica,sans-Serif" font-size="10.00">Manager</text>
</a>
</g>
</g>
<!-- Node1&#45;&gt;Node10 -->
<g id="edge10_Node000001_Node000010" class="edge">
<title>Node1&#45;&gt;Node10</title>
<g id="a_edge10_Node000001_Node000010"><a xlink:title=" ">
<path fill="none" stroke="#63b8ff" d="M667.94,-59.3C648.22,-52.66 625.11,-45.16 604,-39 593.52,-35.94 582.32,-32.9 571.43,-30.06"/>
<polygon fill="#63b8ff" stroke="#63b8ff" points="672.87,-60.97 667.42,-61.5 670.51,-60.17 668.14,-59.37 668.14,-59.37 668.14,-59.37 670.51,-60.17 668.86,-57.23 672.87,-60.97 672.87,-60.97"/>
</a>
</g>
</g>
<!-- Node4 -->
<g id="Node000004" class="node">
<title>Node4</title>
<g id="a_Node000004"><a xlink:href="../../df/d75/classLocalClient.html#a49bb4487f9d3e5aeb878cc1ab5765123" target="_top" xlink:title=" ">
<polygon fill="white" stroke="#666666" points="362,-141.5 207,-141.5 207,-122.5 362,-122.5 362,-141.5"/>
<text text-anchor="middle" x="284.5" y="-129.5" font-family="Helvetica,sans-Serif" font-size="10.00">LocalClient::itemFromServer</text>
</a>
</g>
</g>
<!-- Node3&#45;&gt;Node4 -->
<g id="edge3_Node000003_Node000004" class="edge">
<title>Node3&#45;&gt;Node4</title>
<g id="a_edge3_Node000003_Node000004"><a xlink:title=" ">
<path fill="none" stroke="#63b8ff" d="M445.24,-105.38C413.13,-110.73 374.23,-117.21 342.86,-122.44"/>
<polygon fill="#63b8ff" stroke="#63b8ff" points="450.33,-104.53 445.77,-107.57 447.86,-104.94 445.4,-105.35 445.4,-105.35 445.4,-105.35 447.86,-104.94 445.03,-103.13 450.33,-104.53 450.33,-104.53"/>
</a>
</g>
</g>
<!-- Node6 -->
<g id="Node000006" class="node">
<title>Node6</title>
<g id="a_Node000006"><a xlink:href="../../db/d53/classRemoteClient.html#a58bdd4684d6d0dc438f5856bc4d736b6" target="_top" xlink:title=" ">
<polygon fill="white" stroke="#666666" points="351.5,-104.5 217.5,-104.5 217.5,-85.5 351.5,-85.5 351.5,-104.5"/>
<text text-anchor="middle" x="284.5" y="-92.5" font-family="Helvetica,sans-Serif" font-size="10.00">RemoteClient::readData</text>
</a>
</g>
</g>
<!-- Node3&#45;&gt;Node6 -->
<g id="edge5_Node000003_Node000006" class="edge">
<title>Node3&#45;&gt;Node6</title>
<g id="a_edge5_Node000003_Node000006"><a xlink:title=" ">
<path fill="none" stroke="#63b8ff" d="M407.41,-95C388.56,-95 369.3,-95 351.81,-95"/>
<polygon fill="#63b8ff" stroke="#63b8ff" points="412.71,-95 407.71,-97.25 410.21,-95 407.71,-95 407.71,-95 407.71,-95 410.21,-95 407.71,-92.75 412.71,-95 412.71,-95"/>
</a>
</g>
</g>
<!-- Node8 -->
<g id="Node000008" class="node">
<title>Node8</title>
<g id="a_Node000008"><a xlink:href="../../db/d53/classRemoteClient.html#a885bf43b2b8c193b928db4b84567c3a9" target="_top" xlink:title=" ">
<polygon fill="white" stroke="#666666" points="377,-67 192,-67 192,-37 377,-37 377,-67"/>
<text text-anchor="start" x="200" y="-55" font-family="Helvetica,sans-Serif" font-size="10.00">RemoteClient::websocketMessage</text>
<text text-anchor="middle" x="284.5" y="-44" font-family="Helvetica,sans-Serif" font-size="10.00">Received</text>
</a>
</g>
</g>
<!-- Node3&#45;&gt;Node8 -->
<g id="edge7_Node000003_Node000008" class="edge">
<title>Node3&#45;&gt;Node8</title>
<g id="a_edge7_Node000003_Node000008"><a xlink:title=" ">
<path fill="none" stroke="#63b8ff" d="M453.24,-84.49C426.09,-79.23 392.76,-72.77 362.97,-67.01"/>
<polygon fill="#63b8ff" stroke="#63b8ff" points="458.23,-85.46 452.89,-86.71 455.78,-84.98 453.32,-84.51 453.32,-84.51 453.32,-84.51 455.78,-84.98 453.75,-82.3 458.23,-85.46 458.23,-85.46"/>
</a>
</g>
</g>
<!-- Node5 -->
<g id="Node000005" class="node">
<title>Node5</title>
<g id="a_Node000005"><a xlink:href="../../df/d75/classLocalClient.html#a7374a8f45173e12c9ae263f3481ffa0b" target="_top" xlink:title=" ">
<polygon fill="white" stroke="#666666" points="143.5,-141.5 12.5,-141.5 12.5,-122.5 143.5,-122.5 143.5,-141.5"/>
<text text-anchor="middle" x="78" y="-129.5" font-family="Helvetica,sans-Serif" font-size="10.00">LocalClient::LocalClient</text>
</a>
</g>
</g>
<!-- Node4&#45;&gt;Node5 -->
<g id="edge4_Node000004_Node000005" class="edge">
<title>Node4&#45;&gt;Node5</title>
<g id="a_edge4_Node000004_Node000005"><a xlink:title=" ">
<path fill="none" stroke="#63b8ff" d="M201.39,-132C182.22,-132 162.07,-132 143.78,-132"/>
<polygon fill="#63b8ff" stroke="#63b8ff" points="206.77,-132 201.77,-134.25 204.27,-132 201.77,-132 201.77,-132 201.77,-132 204.27,-132 201.77,-129.75 206.77,-132 206.77,-132"/>
</a>
</g>
</g>
<!-- Node7 -->
<g id="Node000007" class="node">
<title>Node7</title>
<g id="a_Node000007"><a xlink:href="../../db/d53/classRemoteClient.html#a429214ff449bb68b8ded35ff55061c1b" target="_top" xlink:title=" ">
<polygon fill="white" stroke="#666666" points="156,-83.5 0,-83.5 0,-64.5 156,-64.5 156,-83.5"/>
<text text-anchor="middle" x="78" y="-71.5" font-family="Helvetica,sans-Serif" font-size="10.00">RemoteClient::RemoteClient</text>
</a>
</g>
</g>
<!-- Node6&#45;&gt;Node7 -->
<g id="edge6_Node000006_Node000007" class="edge">
<title>Node6&#45;&gt;Node7</title>
<g id="a_edge6_Node000006_Node000007"><a xlink:title=" ">
<path fill="none" stroke="#63b8ff" d="M212.32,-87.69C194.21,-85.83 174.67,-83.82 156.28,-81.94"/>
<polygon fill="#63b8ff" stroke="#63b8ff" points="217.39,-88.21 212.18,-89.94 214.9,-87.96 212.41,-87.7 212.41,-87.7 212.41,-87.7 214.9,-87.96 212.64,-85.46 217.39,-88.21 217.39,-88.21"/>
</a>
</g>
</g>
<!-- Node8&#45;&gt;Node7 -->
<g id="edge8_Node000008_Node000007" class="edge">
<title>Node8&#45;&gt;Node7</title>
<g id="a_edge8_Node000008_Node000007"><a xlink:title=" ">
<path fill="none" stroke="#63b8ff" d="M186.69,-62.41C176.44,-63.52 166.11,-64.63 156.12,-65.7"/>
<polygon fill="#63b8ff" stroke="#63b8ff" points="191.72,-61.87 186.99,-64.65 189.23,-62.14 186.75,-62.41 186.75,-62.41 186.75,-62.41 189.23,-62.14 186.51,-60.17 191.72,-61.87 191.72,-61.87"/>
</a>
</g>
</g>
</g>
</svg>
