<?xml version="1.0" encoding="UTF-8" standalone="no"?>
<!DOCTYPE svg PUBLIC "-//W3C//DTD SVG 1.1//EN"
 "http://www.w3.org/Graphics/SVG/1.1/DTD/svg11.dtd">
<!-- Generated by graphviz version 2.43.0 (0)
 -->
<!-- Title: AbstractClient::connectionClosedEventReceived Pages: 1 -->
<svg width="793pt" height="127pt"
 viewBox="0.00 0.00 793.00 126.79" xmlns="http://www.w3.org/2000/svg" xmlns:xlink="http://www.w3.org/1999/xlink">
<g id="graph0" class="graph" transform="scale(1 1) rotate(0) translate(4 122.79)">
<title>AbstractClient::connectionClosedEventReceived</title>
<!-- Node1 -->
<g id="Node000001" class="node">
<title>Node1</title>
<g id="a_Node000001"><a xlink:title=" ">
<polygon fill="#999999" stroke="#666666" points="785,-65.29 640,-65.29 640,-35.29 785,-35.29 785,-65.29"/>
<text text-anchor="start" x="648" y="-53.29" font-family="Helvetica,sans-Serif" font-size="10.00">AbstractClient::connection</text>
<text text-anchor="middle" x="712.5" y="-42.29" font-family="Helvetica,sans-Serif" font-size="10.00">ClosedEventReceived</text>
</a>
</g>
</g>
<!-- Node2 -->
<g id="Node000002" class="node">
<title>Node2</title>
<g id="a_Node000002"><a xlink:href="../../d6/d1a/classMainWindow.html#a996c5a2b6f77944776856f08ec30858d" target="_top" xlink:title=" ">
<polygon fill="white" stroke="#666666" points="582.5,-96.79 434.5,-96.79 434.5,-77.79 582.5,-77.79 582.5,-96.79"/>
<text text-anchor="middle" x="508.5" y="-84.79" font-family="Helvetica,sans-Serif" font-size="10.00">MainWindow::MainWindow</text>
</a>
</g>
</g>
<!-- Node1&#45;&gt;Node2 -->
<g id="edge1_Node000001_Node000002" class="edge">
<title>Node1&#45;&gt;Node2</title>
<g id="a_edge1_Node000001_Node000002"><a xlink:title=" ">
<path fill="none" stroke="#63b8ff" d="M634.81,-64.34C610.33,-68.82 583.83,-73.68 561.53,-77.76"/>
<polygon fill="#63b8ff" stroke="#63b8ff" points="640,-63.39 635.49,-66.5 637.54,-63.84 635.08,-64.29 635.08,-64.29 635.08,-64.29 637.54,-63.84 634.67,-62.07 640,-63.39 640,-63.39"/>
</a>
</g>
</g>
<!-- Node3 -->
<g id="Node000003" class="node">
<title>Node3</title>
<g id="a_Node000003"><a xlink:href="../../dc/d86/classAbstractClient.html#a4433c70e9654d4981693f29d8232d1c6" target="_top" xlink:title=" ">
<polygon fill="white" stroke="#666666" points="604,-59.79 413,-59.79 413,-40.79 604,-40.79 604,-59.79"/>
<text text-anchor="middle" x="508.5" y="-47.79" font-family="Helvetica,sans-Serif" font-size="10.00">AbstractClient::processProtocolItem</text>
</a>
</g>
</g>
<!-- Node1&#45;&gt;Node3 -->
<g id="edge2_Node000001_Node000003" class="edge">
<title>Node1&#45;&gt;Node3</title>
<g id="a_edge2_Node000001_Node000003"><a xlink:title=" ">
<path fill="none" stroke="#63b8ff" d="M634.81,-50.29C624.82,-50.29 614.49,-50.29 604.25,-50.29"/>
<polygon fill="#63b8ff" stroke="#63b8ff" points="640,-50.29 635,-52.54 637.5,-50.29 635,-50.29 635,-50.29 635,-50.29 637.5,-50.29 635,-48.04 640,-50.29 640,-50.29"/>
</a>
</g>
</g>
<!-- Node7 -->
<g id="Node000007" class="node">
<title>Node7</title>
<g id="a_Node000007"><a xlink:href="../../db/d53/classRemoteClient.html#a37f95399d855ffda07836178e244cce7" target="_top" xlink:title=" ">
<polygon fill="white" stroke="#666666" points="156,-38.79 0,-38.79 0,-19.79 156,-19.79 156,-38.79"/>
<text text-anchor="middle" x="78" y="-26.79" font-family="Helvetica,sans-Serif" font-size="10.00">RemoteClient::RemoteClient</text>
</a>
</g>
</g>
<!-- Node1&#45;&gt;Node7 -->
<g id="edge9_Node000001_Node000007" class="edge">
<title>Node1&#45;&gt;Node7</title>
<g id="a_edge9_Node000001_Node000007"><a xlink:title=" ">
<path fill="none" stroke="#63b8ff" d="M634.93,-34.51C533.52,-15.71 349.16,11.22 192,-5.29 165.77,-8.04 136.67,-14.3 114.57,-19.74"/>
<polygon fill="#63b8ff" stroke="#63b8ff" points="639.99,-35.46 634.67,-36.75 637.54,-35 635.08,-34.54 635.08,-34.54 635.08,-34.54 637.54,-35 635.49,-32.33 639.99,-35.46 639.99,-35.46"/>
</a>
</g>
</g>
<!-- Node4 -->
<g id="Node000004" class="node">
<title>Node4</title>
<g id="a_Node000004"><a xlink:href="../../df/d75/classLocalClient.html#a49bb4487f9d3e5aeb878cc1ab5765123" target="_top" xlink:title=" ">
<polygon fill="white" stroke="#666666" points="362,-118.79 207,-118.79 207,-99.79 362,-99.79 362,-118.79"/>
<text text-anchor="middle" x="284.5" y="-106.79" font-family="Helvetica,sans-Serif" font-size="10.00">LocalClient::itemFromServer</text>
</a>
</g>
</g>
<!-- Node3&#45;&gt;Node4 -->
<g id="edge3_Node000003_Node000004" class="edge">
<title>Node3&#45;&gt;Node4</title>
<g id="a_edge3_Node000003_Node000004"><a xlink:title=" ">
<path fill="none" stroke="#63b8ff" d="M439.13,-61.06C430.2,-63.33 421.28,-66.04 413,-69.29 395.54,-76.13 394.47,-84.48 377,-91.29 368.25,-94.7 358.77,-97.49 349.34,-99.76"/>
<polygon fill="#63b8ff" stroke="#63b8ff" points="444.09,-59.85 439.77,-63.22 441.66,-60.44 439.23,-61.03 439.23,-61.03 439.23,-61.03 441.66,-60.44 438.7,-58.85 444.09,-59.85 444.09,-59.85"/>
</a>
</g>
</g>
<!-- Node6 -->
<g id="Node000006" class="node">
<title>Node6</title>
<g id="a_Node000006"><a xlink:href="../../db/d53/classRemoteClient.html#a58bdd4684d6d0dc438f5856bc4d736b6" target="_top" xlink:title=" ">
<polygon fill="white" stroke="#666666" points="351.5,-81.79 217.5,-81.79 217.5,-62.79 351.5,-62.79 351.5,-81.79"/>
<text text-anchor="middle" x="284.5" y="-69.79" font-family="Helvetica,sans-Serif" font-size="10.00">RemoteClient::readData</text>
</a>
</g>
</g>
<!-- Node3&#45;&gt;Node6 -->
<g id="edge5_Node000003_Node000006" class="edge">
<title>Node3&#45;&gt;Node6</title>
<g id="a_edge5_Node000003_Node000006"><a xlink:title=" ">
<path fill="none" stroke="#63b8ff" d="M407.41,-60.21C388.56,-62.08 369.3,-63.99 351.81,-65.72"/>
<polygon fill="#63b8ff" stroke="#63b8ff" points="412.71,-59.68 407.95,-62.42 410.22,-59.93 407.73,-60.18 407.73,-60.18 407.73,-60.18 410.22,-59.93 407.51,-57.94 412.71,-59.68 412.71,-59.68"/>
</a>
</g>
</g>
<!-- Node8 -->
<g id="Node000008" class="node">
<title>Node8</title>
<g id="a_Node000008"><a xlink:href="../../db/d53/classRemoteClient.html#a885bf43b2b8c193b928db4b84567c3a9" target="_top" xlink:title=" ">
<polygon fill="white" stroke="#666666" points="377,-44.29 192,-44.29 192,-14.29 377,-14.29 377,-44.29"/>
<text text-anchor="start" x="200" y="-32.29" font-family="Helvetica,sans-Serif" font-size="10.00">RemoteClient::websocketMessage</text>
<text text-anchor="middle" x="284.5" y="-21.29" font-family="Helvetica,sans-Serif" font-size="10.00">Received</text>
</a>
</g>
</g>
<!-- Node3&#45;&gt;Node8 -->
<g id="edge7_Node000003_Node000008" class="edge">
<title>Node3&#45;&gt;Node8</title>
<g id="a_edge7_Node000003_Node000008"><a xlink:title=" ">
<path fill="none" stroke="#63b8ff" d="M407.72,-40.85C397.54,-39.89 387.24,-38.91 377.15,-37.96"/>
<polygon fill="#63b8ff" stroke="#63b8ff" points="412.71,-41.32 407.52,-43.09 410.22,-41.09 407.73,-40.85 407.73,-40.85 407.73,-40.85 410.22,-41.09 407.94,-38.61 412.71,-41.32 412.71,-41.32"/>
</a>
</g>
</g>
<!-- Node5 -->
<g id="Node000005" class="node">
<title>Node5</title>
<g id="a_Node000005"><a xlink:href="../../df/d75/classLocalClient.html#a7374a8f45173e12c9ae263f3481ffa0b" target="_top" xlink:title=" ">
<polygon fill="white" stroke="#666666" points="143.5,-118.79 12.5,-118.79 12.5,-99.79 143.5,-99.79 143.5,-118.79"/>
<text text-anchor="middle" x="78" y="-106.79" font-family="Helvetica,sans-Serif" font-size="10.00">LocalClient::LocalClient</text>
</a>
</g>
</g>
<!-- Node4&#45;&gt;Node5 -->
<g id="edge4_Node000004_Node000005" class="edge">
<title>Node4&#45;&gt;Node5</title>
<g id="a_edge4_Node000004_Node000005"><a xlink:title=" ">
<path fill="none" stroke="#63b8ff" d="M201.39,-109.29C182.22,-109.29 162.07,-109.29 143.78,-109.29"/>
<polygon fill="#63b8ff" stroke="#63b8ff" points="206.77,-109.29 201.77,-111.54 204.27,-109.29 201.77,-109.29 201.77,-109.29 201.77,-109.29 204.27,-109.29 201.77,-107.04 206.77,-109.29 206.77,-109.29"/>
</a>
</g>
</g>
<!-- Node6&#45;&gt;Node7 -->
<g id="edge6_Node000006_Node000007" class="edge">
<title>Node6&#45;&gt;Node7</title>
<g id="a_edge6_Node000006_Node000007"><a xlink:title=" ">
<path fill="none" stroke="#63b8ff" d="M232.24,-61.69C219.12,-58.96 205.04,-56.03 192,-53.29 169.43,-48.55 144.33,-43.22 123.54,-38.8"/>
<polygon fill="#63b8ff" stroke="#63b8ff" points="237.41,-62.76 232.06,-63.95 234.96,-62.25 232.52,-61.75 232.52,-61.75 232.52,-61.75 234.96,-62.25 232.97,-59.54 237.41,-62.76 237.41,-62.76"/>
</a>
</g>
</g>
<!-- Node8&#45;&gt;Node7 -->
<g id="edge8_Node000008_Node000007" class="edge">
<title>Node8&#45;&gt;Node7</title>
<g id="a_edge8_Node000008_Node000007"><a xlink:title=" ">
<path fill="none" stroke="#63b8ff" d="M186.69,-29.29C176.44,-29.29 166.11,-29.29 156.12,-29.29"/>
<polygon fill="#63b8ff" stroke="#63b8ff" points="191.72,-29.29 186.72,-31.54 189.22,-29.29 186.72,-29.29 186.72,-29.29 186.72,-29.29 189.22,-29.29 186.72,-27.04 191.72,-29.29 191.72,-29.29"/>
</a>
</g>
</g>
</g>
</svg>
