<?xml version="1.0" encoding="UTF-8" standalone="no"?>
<!DOCTYPE svg PUBLIC "-//W3C//DTD SVG 1.1//EN"
 "http://www.w3.org/Graphics/SVG/1.1/DTD/svg11.dtd">
<!-- Generated by graphviz version 2.43.0 (0)
 -->
<!-- Title: peg::Ope::Visitor Pages: 1 -->
<svg width="283pt" height="397pt"
 viewBox="0.00 0.00 283.00 397.00" xmlns="http://www.w3.org/2000/svg" xmlns:xlink="http://www.w3.org/1999/xlink">

<svg id="main" version="1.1" xmlns="http://www.w3.org/2000/svg" xmlns:xlink="http://www.w3.org/1999/xlink" xml:space="preserve">

<style type="text/css"><![CDATA[
.node, .edge {opacity: 0.7;}
.node.selected, .edge.selected {opacity: 1;}
.edge:hover path { stroke: red; }
.edge:hover polygon { stroke: red; fill: red; }
]]></style>
<script type="application/ecmascript" xlink:href="../../svg.min.js"/>
<svg id="graph" class="graph">
<g id="graph0" class="graph" transform="scale(1 1) rotate(0) translate(4 393)">
<title>peg::Ope::Visitor</title>
<!-- Node1 -->
<g id="Node000001" class="node">
<title>Node1</title>
<g id="a_Node000001"><a xlink:title=" ">
<polygon fill="#999999" stroke="#666666" points="98,-204 0,-204 0,-185 98,-185 98,-204"/>
<text text-anchor="middle" x="49" y="-192" font-family="Helvetica,sans-Serif" font-size="10.00">peg::Ope::Visitor</text>
</a>
</g>
</g>
<!-- Node2 -->
<g id="Node000002" class="node">
<title>Node2</title>
<g id="a_Node000002"><a xlink:href="../../d9/d27/structpeg_1_1AssignIDToDefinition.html" target="_top" xlink:title=" ">
<polygon fill="white" stroke="#666666" points="275,-389 134,-389 134,-370 275,-370 275,-389"/>
<text text-anchor="middle" x="204.5" y="-377" font-family="Helvetica,sans-Serif" font-size="10.00">peg::AssignIDToDefinition</text>
</a>
</g>
</g>
<!-- Node1&#45;&gt;Node2 -->
<g id="edge1_Node000001_Node000002" class="edge">
<title>Node1&#45;&gt;Node2</title>
<g id="a_edge1_Node000001_Node000002"><a xlink:title=" ">
<path fill="none" stroke="#63b8ff" d="M53.11,-209.39C60.76,-242.16 83.63,-320.84 134,-361.5 138.27,-364.94 143.12,-367.74 148.23,-370"/>
<polygon fill="#63b8ff" stroke="#63b8ff" points="51.93,-204.18 55.23,-208.56 52.49,-206.62 53.04,-209.06 53.04,-209.06 53.04,-209.06 52.49,-206.62 50.84,-209.55 51.93,-204.18 51.93,-204.18"/>
</a>
</g>
</g>
<!-- Node3 -->
<g id="Node000003" class="node">
<title>Node3</title>
<g id="a_Node000003"><a xlink:href="../../db/d34/structpeg_1_1DetectInfiniteLoop.html" target="_top" xlink:title=" ">
<polygon fill="white" stroke="#666666" points="269.5,-352 139.5,-352 139.5,-333 269.5,-333 269.5,-352"/>
<text text-anchor="middle" x="204.5" y="-340" font-family="Helvetica,sans-Serif" font-size="10.00">peg::DetectInfiniteLoop</text>
</a>
</g>
</g>
<!-- Node1&#45;&gt;Node3 -->
<g id="edge2_Node000001_Node000003" class="edge">
<title>Node1&#45;&gt;Node3</title>
<g id="a_edge2_Node000001_Node000003"><a xlink:title=" ">
<path fill="none" stroke="#63b8ff" d="M55.25,-209.07C65.78,-236.16 92.13,-294.27 134,-324.5 138.75,-327.93 144.1,-330.71 149.67,-332.95"/>
<polygon fill="#63b8ff" stroke="#63b8ff" points="53.36,-204.08 57.23,-207.96 54.24,-206.42 55.13,-208.76 55.13,-208.76 55.13,-208.76 54.24,-206.42 53.03,-209.56 53.36,-204.08 53.36,-204.08"/>
</a>
</g>
</g>
<!-- Node4 -->
<g id="Node000004" class="node">
<title>Node4</title>
<g id="a_Node000004"><a xlink:href="../../df/dff/structpeg_1_1DetectLeftRecursion.html" target="_top" xlink:title=" ">
<polygon fill="white" stroke="#666666" points="274,-315 135,-315 135,-296 274,-296 274,-315"/>
<text text-anchor="middle" x="204.5" y="-303" font-family="Helvetica,sans-Serif" font-size="10.00">peg::DetectLeftRecursion</text>
</a>
</g>
</g>
<!-- Node1&#45;&gt;Node4 -->
<g id="edge3_Node000001_Node000004" class="edge">
<title>Node1&#45;&gt;Node4</title>
<g id="a_edge3_Node000001_Node000004"><a xlink:title=" ">
<path fill="none" stroke="#63b8ff" d="M58.67,-208.42C72.19,-228.93 100.27,-267.06 134,-287.5 139.65,-290.92 145.94,-293.7 152.36,-295.95"/>
<polygon fill="#63b8ff" stroke="#63b8ff" points="55.85,-204.08 60.46,-207.05 57.22,-206.18 58.58,-208.27 58.58,-208.27 58.58,-208.27 57.22,-206.18 56.69,-209.5 55.85,-204.08 55.85,-204.08"/>
</a>
</g>
</g>
<!-- Node5 -->
<g id="Node000005" class="node">
<title>Node5</title>
<g id="a_Node000005"><a xlink:href="../../dd/dfd/structpeg_1_1FindLiteralToken.html" target="_top" xlink:title=" ">
<polygon fill="white" stroke="#666666" points="264,-278 145,-278 145,-259 264,-259 264,-278"/>
<text text-anchor="middle" x="204.5" y="-266" font-family="Helvetica,sans-Serif" font-size="10.00">peg::FindLiteralToken</text>
</a>
</g>
</g>
<!-- Node1&#45;&gt;Node5 -->
<g id="edge4_Node000001_Node000005" class="edge">
<title>Node1&#45;&gt;Node5</title>
<g id="a_edge4_Node000001_Node000005"><a xlink:title=" ">
<path fill="none" stroke="#63b8ff" d="M65.79,-207.4C82,-220.04 108.41,-239.05 134,-250.5 141.4,-253.81 149.52,-256.6 157.52,-258.92"/>
<polygon fill="#63b8ff" stroke="#63b8ff" points="61.5,-204.01 66.82,-205.34 63.46,-205.56 65.42,-207.11 65.42,-207.11 65.42,-207.11 63.46,-205.56 64.03,-208.87 61.5,-204.01 61.5,-204.01"/>
</a>
</g>
</g>
<!-- Node6 -->
<g id="Node000006" class="node">
<title>Node6</title>
<g id="a_Node000006"><a xlink:href="../../d9/dfd/structpeg_1_1FindReference.html" target="_top" xlink:title=" ">
<polygon fill="white" stroke="#666666" points="259.5,-241 149.5,-241 149.5,-222 259.5,-222 259.5,-241"/>
<text text-anchor="middle" x="204.5" y="-229" font-family="Helvetica,sans-Serif" font-size="10.00">peg::FindReference</text>
</a>
</g>
</g>
<!-- Node1&#45;&gt;Node6 -->
<g id="edge5_Node000001_Node000006" class="edge">
<title>Node1&#45;&gt;Node6</title>
<g id="a_edge5_Node000001_Node000006"><a xlink:title=" ">
<path fill="none" stroke="#63b8ff" d="M94.43,-205.21C116.36,-210.49 142.59,-216.82 163.84,-221.94"/>
<polygon fill="#63b8ff" stroke="#63b8ff" points="89.53,-204.03 94.92,-203.01 91.96,-204.61 94.39,-205.2 94.39,-205.2 94.39,-205.2 91.96,-204.61 93.86,-207.39 89.53,-204.03 89.53,-204.03"/>
</a>
</g>
</g>
<!-- Node7 -->
<g id="Node000007" class="node">
<title>Node7</title>
<g id="a_Node000007"><a xlink:href="../../d5/daf/structpeg_1_1HasEmptyElement.html" target="_top" xlink:title=" ">
<polygon fill="white" stroke="#666666" points="270,-204 139,-204 139,-185 270,-185 270,-204"/>
<text text-anchor="middle" x="204.5" y="-192" font-family="Helvetica,sans-Serif" font-size="10.00">peg::HasEmptyElement</text>
</a>
</g>
</g>
<!-- Node1&#45;&gt;Node7 -->
<g id="edge6_Node000001_Node000007" class="edge">
<title>Node1&#45;&gt;Node7</title>
<g id="a_edge6_Node000001_Node000007"><a xlink:title=" ">
<path fill="none" stroke="#63b8ff" d="M103.36,-194.5C114.83,-194.5 127.07,-194.5 138.92,-194.5"/>
<polygon fill="#63b8ff" stroke="#63b8ff" points="98.15,-194.5 103.15,-192.25 100.65,-194.5 103.15,-194.5 103.15,-194.5 103.15,-194.5 100.65,-194.5 103.15,-196.75 98.15,-194.5 98.15,-194.5"/>
</a>
</g>
</g>
<!-- Node8 -->
<g id="Node000008" class="node">
<title>Node8</title>
<g id="a_Node000008"><a xlink:href="../../de/d67/structpeg_1_1IsLiteralToken.html" target="_top" xlink:title=" ">
<polygon fill="white" stroke="#666666" points="258,-167 151,-167 151,-148 258,-148 258,-167"/>
<text text-anchor="middle" x="204.5" y="-155" font-family="Helvetica,sans-Serif" font-size="10.00">peg::IsLiteralToken</text>
</a>
</g>
</g>
<!-- Node1&#45;&gt;Node8 -->
<g id="edge7_Node000001_Node000008" class="edge">
<title>Node1&#45;&gt;Node8</title>
<g id="a_edge7_Node000001_Node000008"><a xlink:title=" ">
<path fill="none" stroke="#63b8ff" d="M94.43,-183.79C116.36,-178.51 142.59,-172.18 163.84,-167.06"/>
<polygon fill="#63b8ff" stroke="#63b8ff" points="89.53,-184.97 93.86,-181.61 91.96,-184.39 94.39,-183.8 94.39,-183.8 94.39,-183.8 91.96,-184.39 94.92,-185.99 89.53,-184.97 89.53,-184.97"/>
</a>
</g>
</g>
<!-- Node9 -->
<g id="Node000009" class="node">
<title>Node9</title>
<g id="a_Node000009"><a xlink:href="../../d1/dcf/structpeg_1_1LinkReferences.html" target="_top" xlink:title=" ">
<polygon fill="white" stroke="#666666" points="262.5,-130 146.5,-130 146.5,-111 262.5,-111 262.5,-130"/>
<text text-anchor="middle" x="204.5" y="-118" font-family="Helvetica,sans-Serif" font-size="10.00">peg::LinkReferences</text>
</a>
</g>
</g>
<!-- Node1&#45;&gt;Node9 -->
<g id="edge8_Node000001_Node000009" class="edge">
<title>Node1&#45;&gt;Node9</title>
<g id="a_edge8_Node000001_Node000009"><a xlink:title=" ">
<path fill="none" stroke="#63b8ff" d="M66.42,-181.5C82.73,-169.14 108.87,-150.82 134,-139.5 142.21,-135.8 151.3,-132.68 160.13,-130.1"/>
<polygon fill="#63b8ff" stroke="#63b8ff" points="62.09,-184.81 64.7,-179.98 64.08,-183.29 66.06,-181.77 66.06,-181.77 66.06,-181.77 64.08,-183.29 67.43,-183.56 62.09,-184.81 62.09,-184.81"/>
</a>
</g>
</g>
<!-- Node10 -->
<g id="Node000010" class="node">
<title>Node10</title>
<g id="a_Node000010"><a xlink:href="../../dd/de4/structpeg_1_1ReferenceChecker.html" target="_top" xlink:title=" ">
<polygon fill="white" stroke="#666666" points="269,-93 140,-93 140,-74 269,-74 269,-93"/>
<text text-anchor="middle" x="204.5" y="-81" font-family="Helvetica,sans-Serif" font-size="10.00">peg::ReferenceChecker</text>
</a>
</g>
</g>
<!-- Node1&#45;&gt;Node10 -->
<g id="edge9_Node000001_Node000010" class="edge">
<title>Node1&#45;&gt;Node10</title>
<g id="a_edge9_Node000001_Node000010"><a xlink:title=" ">
<path fill="none" stroke="#63b8ff" d="M58.95,-180.48C72.64,-160.19 100.72,-122.85 134,-102.5 140.3,-98.65 147.38,-95.57 154.56,-93.1"/>
<polygon fill="#63b8ff" stroke="#63b8ff" points="56.1,-184.78 56.99,-179.37 57.48,-182.69 58.86,-180.61 58.86,-180.61 58.86,-180.61 57.48,-182.69 60.74,-181.86 56.1,-184.78 56.1,-184.78"/>
</a>
</g>
</g>
<!-- Node11 -->
<g id="Node000011" class="node">
<title>Node11</title>
<g id="a_Node000011"><a xlink:href="../../de/d4a/structpeg_1_1TokenChecker.html" target="_top" xlink:title=" ">
<polygon fill="white" stroke="#666666" points="258,-56 151,-56 151,-37 258,-37 258,-56"/>
<text text-anchor="middle" x="204.5" y="-44" font-family="Helvetica,sans-Serif" font-size="10.00">peg::TokenChecker</text>
</a>
</g>
</g>
<!-- Node1&#45;&gt;Node11 -->
<g id="edge10_Node000001_Node000011" class="edge">
<title>Node1&#45;&gt;Node11</title>
<g id="a_edge10_Node000001_Node000011"><a xlink:title=" ">
<path fill="none" stroke="#63b8ff" d="M55.48,-179.7C66.23,-152.73 92.71,-95.62 134,-65.5 139.36,-61.59 145.47,-58.49 151.81,-56.02"/>
<polygon fill="#63b8ff" stroke="#63b8ff" points="53.54,-184.67 53.26,-179.2 54.45,-182.34 55.35,-180.01 55.35,-180.01 55.35,-180.01 54.45,-182.34 57.45,-180.83 53.54,-184.67 53.54,-184.67"/>
</a>
</g>
</g>
<!-- Node12 -->
<g id="Node000012" class="node">
<title>Node12</title>
<g id="a_Node000012"><a xlink:href="../../d1/dab/structpeg_1_1TraceOpeName.html" target="_top" xlink:title=" ">
<polygon fill="white" stroke="#666666" points="262,-19 147,-19 147,0 262,0 262,-19"/>
<text text-anchor="middle" x="204.5" y="-7" font-family="Helvetica,sans-Serif" font-size="10.00">peg::TraceOpeName</text>
</a>
</g>
</g>
<!-- Node1&#45;&gt;Node12 -->
<g id="edge11_Node000001_Node000012" class="edge">
<title>Node1&#45;&gt;Node12</title>
<g id="a_edge11_Node000001_Node000012"><a xlink:title=" ">
<path fill="none" stroke="#63b8ff" d="M53.18,-179.75C60.96,-147.27 84.09,-69.24 134,-28.5 138.75,-24.62 144.22,-21.54 149.98,-19.08"/>
<polygon fill="#63b8ff" stroke="#63b8ff" points="51.98,-184.91 50.92,-179.53 52.55,-182.48 53.11,-180.04 53.11,-180.04 53.11,-180.04 52.55,-182.48 55.3,-180.55 51.98,-184.91 51.98,-184.91"/>
</a>
</g>
</g>
</g>
</svg>
</svg>

<style type='text/css'>
<![CDATA[
[data-mouse-over-selected='false'] { opacity: 0.7; }
[data-mouse-over-selected='true']  { opacity: 1.0; }
]]>
</style>
<script type="application/ecmascript"><![CDATA[
document.addEventListener('DOMContentLoaded', (event) => {
  highlightEdges();
  highlightAdjacentNodes();
});
]]></script>
</svg>
