<?xml version="1.0" encoding="UTF-8" standalone="no"?>
<!DOCTYPE svg PUBLIC "-//W3C//DTD SVG 1.1//EN"
 "http://www.w3.org/Graphics/SVG/1.1/DTD/svg11.dtd">
<!-- Generated by graphviz version 2.43.0 (0)
 -->
<!-- Title: cockatrice/src/interface/widgets/general/background_sources.h Pages: 1 -->
<svg width="195pt" height="104pt"
 viewBox="0.00 0.00 195.00 104.00" xmlns="http://www.w3.org/2000/svg" xmlns:xlink="http://www.w3.org/1999/xlink">
<g id="graph0" class="graph" transform="scale(1 1) rotate(0) translate(4 100)">
<title>cockatrice/src/interface/widgets/general/background_sources.h</title>
<!-- Node1 -->
<g id="Node000001" class="node">
<title>Node1</title>
<g id="a_Node000001"><a xlink:title="TODO: Document this.">
<polygon fill="#999999" stroke="#666666" points="166.5,-96 8.5,-96 8.5,-55 166.5,-55 166.5,-96"/>
<text text-anchor="start" x="16.5" y="-84" font-family="Helvetica,sans-Serif" font-size="10.00">cockatrice/src/interface</text>
<text text-anchor="start" x="16.5" y="-73" font-family="Helvetica,sans-Serif" font-size="10.00">/widgets/general/background</text>
<text text-anchor="middle" x="87.5" y="-62" font-family="Helvetica,sans-Serif" font-size="10.00">_sources.h</text>
</a>
</g>
</g>
<!-- Node2 -->
<g id="Node000002" class="node">
<title>Node2</title>
<g id="a_Node000002"><a xlink:title=" ">
<polygon fill="#e0e0e0" stroke="#999999" points="41,-19 0,-19 0,0 41,0 41,-19"/>
<text text-anchor="middle" x="20.5" y="-7" font-family="Helvetica,sans-Serif" font-size="10.00">QList</text>
</a>
</g>
</g>
<!-- Node1&#45;&gt;Node2 -->
<g id="edge1_Node000001_Node000002" class="edge">
<title>Node1&#45;&gt;Node2</title>
<g id="a_edge1_Node000001_Node000002"><a xlink:title=" ">
<path fill="none" stroke="#63b8ff" d="M67.03,-54.95C56.12,-44.53 43.03,-32.02 33.51,-22.93"/>
<polygon fill="#63b8ff" stroke="#63b8ff" points="29.67,-19.26 34.84,-21.09 31.48,-20.99 33.29,-22.71 33.29,-22.71 33.29,-22.71 31.48,-20.99 31.73,-24.34 29.67,-19.26 29.67,-19.26"/>
</a>
</g>
</g>
<!-- Node3 -->
<g id="Node000003" class="node">
<title>Node3</title>
<g id="a_Node000003"><a xlink:title=" ">
<polygon fill="#e0e0e0" stroke="#999999" points="115.5,-19 59.5,-19 59.5,0 115.5,0 115.5,-19"/>
<text text-anchor="middle" x="87.5" y="-7" font-family="Helvetica,sans-Serif" font-size="10.00">QObject</text>
</a>
</g>
</g>
<!-- Node1&#45;&gt;Node3 -->
<g id="edge2_Node000001_Node000003" class="edge">
<title>Node1&#45;&gt;Node3</title>
<g id="a_edge2_Node000001_Node000003"><a xlink:title=" ">
<path fill="none" stroke="#63b8ff" d="M87.5,-54.95C87.5,-45.09 87.5,-33.35 87.5,-24.42"/>
<polygon fill="#63b8ff" stroke="#63b8ff" points="87.5,-19.26 89.75,-24.26 87.5,-21.76 87.5,-24.26 87.5,-24.26 87.5,-24.26 87.5,-21.76 85.25,-24.26 87.5,-19.26 87.5,-19.26"/>
</a>
</g>
</g>
<!-- Node4 -->
<g id="Node000004" class="node">
<title>Node4</title>
<g id="a_Node000004"><a xlink:title=" ">
<polygon fill="#e0e0e0" stroke="#999999" points="187,-19 134,-19 134,0 187,0 187,-19"/>
<text text-anchor="middle" x="160.5" y="-7" font-family="Helvetica,sans-Serif" font-size="10.00">QString</text>
</a>
</g>
</g>
<!-- Node1&#45;&gt;Node4 -->
<g id="edge3_Node000001_Node000004" class="edge">
<title>Node1&#45;&gt;Node4</title>
<g id="a_edge3_Node000001_Node000004"><a xlink:title=" ">
<path fill="none" stroke="#63b8ff" d="M109.8,-54.95C121.79,-44.44 136.21,-31.8 146.6,-22.69"/>
<polygon fill="#63b8ff" stroke="#63b8ff" points="150.51,-19.26 148.23,-24.25 148.63,-20.91 146.75,-22.56 146.75,-22.56 146.75,-22.56 148.63,-20.91 145.26,-20.86 150.51,-19.26 150.51,-19.26"/>
</a>
</g>
</g>
</g>
</svg>
