<?xml version="1.0" encoding="UTF-8" standalone="no"?>
<!DOCTYPE svg PUBLIC "-//W3C//DTD SVG 1.1//EN"
 "http://www.w3.org/Graphics/SVG/1.1/DTD/svg11.dtd">
<!-- Generated by graphviz version 2.43.0 (0)
 -->
<!-- Title: PileZone::mouseMoveEvent Pages: 1 -->
<svg width="1348pt" height="253pt"
 viewBox="0.00 0.00 1348.00 253.00" xmlns="http://www.w3.org/2000/svg" xmlns:xlink="http://www.w3.org/1999/xlink">
<g id="graph0" class="graph" transform="scale(1 1) rotate(0) translate(4 249)">
<title>PileZone::mouseMoveEvent</title>
<!-- Node1 -->
<g id="Node000001" class="node">
<title>Node1</title>
<g id="a_Node000001"><a xlink:title=" ">
<polygon fill="#999999" stroke="#666666" points="153,-95 0,-95 0,-76 153,-76 153,-95"/>
<text text-anchor="middle" x="76.5" y="-83" font-family="Helvetica,sans-Serif" font-size="10.00">PileZone::mouseMoveEvent</text>
</a>
</g>
</g>
<!-- Node2 -->
<g id="Node000002" class="node">
<title>Node2</title>
<g id="a_Node000002"><a xlink:href="../../d1/df9/classCardZoneLogic.html#a1ed33bb36b0afa2ae8869322ff34ca83" target="_top" xlink:title=" ">
<polygon fill="white" stroke="#666666" points="359,-188 189,-188 189,-169 359,-169 359,-188"/>
<text text-anchor="middle" x="274" y="-176" font-family="Helvetica,sans-Serif" font-size="10.00">CardZoneLogic::contentsKnown</text>
</a>
</g>
</g>
<!-- Node1&#45;&gt;Node2 -->
<g id="edge1_Node000001_Node000002" class="edge">
<title>Node1&#45;&gt;Node2</title>
<g id="a_edge1_Node000001_Node000002"><a xlink:title=" ">
<path fill="none" stroke="#63b8ff" d="M95.47,-95.16C117.35,-106.82 155.54,-126.8 189,-142.5 207.35,-151.11 228.31,-160.1 244.7,-166.94"/>
<polygon fill="#63b8ff" stroke="#63b8ff" points="249.64,-168.99 244.16,-169.14 247.33,-168.03 245.02,-167.07 245.02,-167.07 245.02,-167.07 247.33,-168.03 245.88,-164.99 249.64,-168.99 249.64,-168.99"/>
</a>
</g>
</g>
<!-- Node4 -->
<g id="Node000004" class="node">
<title>Node4</title>
<g id="a_Node000004"><a xlink:href="../../d6/dbd/classCardItem.html#ada82de5c00e99da16861e57ff78992d4" target="_top" xlink:title=" ">
<polygon fill="white" stroke="#666666" points="346,-133 202,-133 202,-114 346,-114 346,-133"/>
<text text-anchor="middle" x="274" y="-121" font-family="Helvetica,sans-Serif" font-size="10.00">CardItem::createDragItem</text>
</a>
</g>
</g>
<!-- Node1&#45;&gt;Node4 -->
<g id="edge3_Node000001_Node000004" class="edge">
<title>Node1&#45;&gt;Node4</title>
<g id="a_edge3_Node000001_Node000004"><a xlink:title=" ">
<path fill="none" stroke="#63b8ff" d="M126.58,-95.04C154.7,-100.51 190.04,-107.37 218.95,-112.99"/>
<polygon fill="#63b8ff" stroke="#63b8ff" points="223.9,-113.96 218.56,-115.21 221.45,-113.48 218.99,-113 218.99,-113 218.99,-113 221.45,-113.48 219.42,-110.79 223.9,-113.96 223.9,-113.96"/>
</a>
</g>
</g>
<!-- Node9 -->
<g id="Node000009" class="node">
<title>Node9</title>
<g id="a_Node000009"><a xlink:href="../../d1/df9/classCardZoneLogic.html#a01bc8f22df2cf2b943084b40ffc95a2d" target="_top" xlink:title=" ">
<polygon fill="white" stroke="#666666" points="1151,-95 1012,-95 1012,-76 1151,-76 1151,-95"/>
<text text-anchor="middle" x="1081.5" y="-83" font-family="Helvetica,sans-Serif" font-size="10.00">CardZoneLogic::getCards</text>
</a>
</g>
</g>
<!-- Node1&#45;&gt;Node9 -->
<g id="edge23_Node000001_Node000009" class="edge">
<title>Node1&#45;&gt;Node9</title>
<g id="a_edge23_Node000001_Node000009"><a xlink:title=" ">
<path fill="none" stroke="#63b8ff" d="M153.15,-85.5C233.31,-85.5 363.58,-85.5 476,-85.5 476,-85.5 476,-85.5 681,-85.5 794.68,-85.5 926.55,-85.5 1006.72,-85.5"/>
<polygon fill="#63b8ff" stroke="#63b8ff" points="1011.93,-85.5 1006.93,-87.75 1009.43,-85.5 1006.93,-85.5 1006.93,-85.5 1006.93,-85.5 1009.43,-85.5 1006.93,-83.25 1011.93,-85.5 1011.93,-85.5"/>
</a>
</g>
</g>
<!-- Node10 -->
<g id="Node000010" class="node">
<title>Node10</title>
<g id="a_Node000010"><a xlink:href="../../de/da1/classCardZone.html#a22f29aafd7f6af1015ad46f84636ae5d" target="_top" xlink:title=" ">
<polygon fill="white" stroke="#666666" points="1328.5,-133 1217.5,-133 1217.5,-114 1328.5,-114 1328.5,-133"/>
<text text-anchor="middle" x="1273" y="-121" font-family="Helvetica,sans-Serif" font-size="10.00">CardZone::getLogic</text>
</a>
</g>
</g>
<!-- Node1&#45;&gt;Node10 -->
<g id="edge25_Node000001_Node000010" class="edge">
<title>Node1&#45;&gt;Node10</title>
<g id="a_edge25_Node000001_Node000010"><a xlink:title=" ">
<path fill="none" stroke="#63b8ff" d="M139.11,-75.96C217.26,-64.7 356.29,-47.5 476,-47.5 476,-47.5 476,-47.5 880,-47.5 1009.17,-47.5 1046.14,-29.87 1170,-66.5 1202.37,-76.07 1235.76,-97.29 1255.16,-110.96"/>
<polygon fill="#63b8ff" stroke="#63b8ff" points="1259.32,-113.93 1253.94,-112.85 1257.28,-112.47 1255.25,-111.02 1255.25,-111.02 1255.25,-111.02 1257.28,-112.47 1256.55,-109.19 1259.32,-113.93 1259.32,-113.93"/>
</a>
</g>
</g>
<!-- Node19 -->
<g id="Node000019" class="node">
<title>Node19</title>
<g id="a_Node000019"><a xlink:href="../../d4/db9/classAbstractCardItem.html#af27fc81361437fab8cf50c6fd05b7181" target="_top" xlink:title=" ">
<polygon fill="white" stroke="#666666" points="340.5,-19 207.5,-19 207.5,0 340.5,0 340.5,-19"/>
<text text-anchor="middle" x="274" y="-7" font-family="Helvetica,sans-Serif" font-size="10.00">AbstractCardItem::getId</text>
</a>
</g>
</g>
<!-- Node1&#45;&gt;Node19 -->
<g id="edge24_Node000001_Node000019" class="edge">
<title>Node1&#45;&gt;Node19</title>
<g id="a_edge24_Node000001_Node000019"><a xlink:title=" ">
<path fill="none" stroke="#63b8ff" d="M95.66,-75.94C117.42,-64.74 155.18,-46.13 189,-33.5 202.16,-28.59 216.79,-24.09 230.11,-20.34"/>
<polygon fill="#63b8ff" stroke="#63b8ff" points="234.95,-19 230.74,-22.51 232.55,-19.67 230.14,-20.34 230.14,-20.34 230.14,-20.34 232.55,-19.67 229.53,-18.17 234.95,-19 234.95,-19"/>
</a>
</g>
</g>
<!-- Node3 -->
<g id="Node000003" class="node">
<title>Node3</title>
<g id="a_Node000003"><a xlink:href="../../d4/d71/classCardList.html#a220784b7d0976960222cbcc1c2e98711" target="_top" xlink:title=" ">
<polygon fill="white" stroke="#666666" points="554.5,-207 399.5,-207 399.5,-188 554.5,-188 554.5,-207"/>
<text text-anchor="middle" x="477" y="-195" font-family="Helvetica,sans-Serif" font-size="10.00">CardList::getContentsKnown</text>
</a>
</g>
</g>
<!-- Node2&#45;&gt;Node3 -->
<g id="edge2_Node000002_Node000003" class="edge">
<title>Node2&#45;&gt;Node3</title>
<g id="a_edge2_Node000002_Node000003"><a xlink:title=" ">
<path fill="none" stroke="#63b8ff" d="M359.08,-186.45C370.65,-187.54 382.51,-188.66 394.04,-189.75"/>
<polygon fill="#63b8ff" stroke="#63b8ff" points="399.31,-190.25 394.12,-192.02 396.82,-190.02 394.33,-189.78 394.33,-189.78 394.33,-189.78 396.82,-190.02 394.55,-187.54 399.31,-190.25 399.31,-190.25"/>
</a>
</g>
</g>
<!-- Node5 -->
<g id="Node000005" class="node">
<title>Node5</title>
<g id="a_Node000005"><a xlink:href="../../d6/dbd/classCardItem.html#a11a295fed06a249d59baacceafee7467" target="_top" xlink:title=" ">
<polygon fill="white" stroke="#666666" points="549,-133 405,-133 405,-114 549,-114 549,-133"/>
<text text-anchor="middle" x="477" y="-121" font-family="Helvetica,sans-Serif" font-size="10.00">CardItem::deleteDragItem</text>
</a>
</g>
</g>
<!-- Node4&#45;&gt;Node5 -->
<g id="edge4_Node000004_Node000005" class="edge">
<title>Node4&#45;&gt;Node5</title>
<g id="a_edge4_Node000004_Node000005"><a xlink:title=" ">
<path fill="none" stroke="#63b8ff" d="M346.15,-123.5C363.44,-123.5 382.01,-123.5 399.54,-123.5"/>
<polygon fill="#63b8ff" stroke="#63b8ff" points="404.95,-123.5 399.95,-125.75 402.45,-123.5 399.95,-123.5 399.95,-123.5 399.95,-123.5 402.45,-123.5 399.95,-121.25 404.95,-123.5 404.95,-123.5"/>
</a>
</g>
</g>
<!-- Node6 -->
<g id="Node000006" class="node">
<title>Node6</title>
<g id="a_Node000006"><a xlink:href="../../d5/dd3/classCardDragItem.html#ae70a276125c2936ed89248481030076b" target="_top" xlink:title=" ">
<polygon fill="white" stroke="#666666" points="559,-170 395,-170 395,-151 559,-151 559,-170"/>
<text text-anchor="middle" x="477" y="-158" font-family="Helvetica,sans-Serif" font-size="10.00">CardDragItem::updatePosition</text>
</a>
</g>
</g>
<!-- Node4&#45;&gt;Node6 -->
<g id="edge5_Node000004_Node000006" class="edge">
<title>Node4&#45;&gt;Node6</title>
<g id="a_edge5_Node000004_Node000006"><a xlink:title=" ">
<path fill="none" stroke="#63b8ff" d="M326.76,-133.03C355.02,-138.23 390.06,-144.68 419.09,-150.02"/>
<polygon fill="#63b8ff" stroke="#63b8ff" points="424.06,-150.94 418.74,-152.25 421.61,-150.49 419.15,-150.03 419.15,-150.03 419.15,-150.03 421.61,-150.49 419.55,-147.82 424.06,-150.94 424.06,-150.94"/>
</a>
</g>
</g>
<!-- Node7 -->
<g id="Node000007" class="node">
<title>Node7</title>
<g id="a_Node000007"><a xlink:href="../../d6/d6f/classTableZone.html#ab1c4485f2e6240cbb5b42f2471249d80" target="_top" xlink:title=" ">
<polygon fill="white" stroke="#666666" points="756,-218 604,-218 604,-199 756,-199 756,-218"/>
<text text-anchor="middle" x="680" y="-206" font-family="Helvetica,sans-Serif" font-size="10.00">TableZone::closestGridPoint</text>
</a>
</g>
</g>
<!-- Node6&#45;&gt;Node7 -->
<g id="edge6_Node000006_Node000007" class="edge">
<title>Node6&#45;&gt;Node7</title>
<g id="a_edge6_Node000006_Node000007"><a xlink:title=" ">
<path fill="none" stroke="#63b8ff" d="M521.01,-170.03C533.32,-172.91 546.73,-176.19 559,-179.5 575.15,-183.86 578.81,-186.3 595,-190.5 604.93,-193.07 615.58,-195.56 625.85,-197.83"/>
<polygon fill="#63b8ff" stroke="#63b8ff" points="630.86,-198.92 625.49,-200.05 628.42,-198.39 625.97,-197.86 625.97,-197.86 625.97,-197.86 628.42,-198.39 626.45,-195.66 630.86,-198.92 630.86,-198.92"/>
</a>
</g>
</g>
<!-- Node17 -->
<g id="Node000017" class="node">
<title>Node17</title>
<g id="a_Node000017"><a xlink:href="../../d6/d6f/classTableZone.html#a0610ee5a013229d17d9744dceffe6b8d" target="_top" xlink:title=" ">
<polygon fill="white" stroke="#666666" points="765,-181 595,-181 595,-162 765,-162 765,-181"/>
<text text-anchor="middle" x="680" y="-169" font-family="Helvetica,sans-Serif" font-size="10.00">TableZone::getCardFromCoords</text>
</a>
</g>
</g>
<!-- Node6&#45;&gt;Node17 -->
<g id="edge19_Node000006_Node000017" class="edge">
<title>Node6&#45;&gt;Node17</title>
<g id="a_edge19_Node000006_Node000017"><a xlink:title=" ">
<path fill="none" stroke="#63b8ff" d="M559.18,-164.94C569.29,-165.5 579.67,-166.06 589.9,-166.62"/>
<polygon fill="#63b8ff" stroke="#63b8ff" points="594.9,-166.9 589.78,-168.87 592.4,-166.76 589.91,-166.62 589.91,-166.62 589.91,-166.62 592.4,-166.76 590.03,-164.38 594.9,-166.9 594.9,-166.9"/>
</a>
</g>
</g>
<!-- Node18 -->
<g id="Node000018" class="node">
<title>Node18</title>
<g id="a_Node000018"><a xlink:href="../../d6/dc0/classAbstractCardDragItem.html#a1a016c8b506a78b3a0884519e0edb9a4" target="_top" xlink:title=" ">
<polygon fill="white" stroke="#666666" points="742.5,-143.5 617.5,-143.5 617.5,-113.5 742.5,-113.5 742.5,-143.5"/>
<text text-anchor="start" x="625.5" y="-131.5" font-family="Helvetica,sans-Serif" font-size="10.00">AbstractCardDragItem</text>
<text text-anchor="middle" x="680" y="-120.5" font-family="Helvetica,sans-Serif" font-size="10.00">::getHotSpot</text>
</a>
</g>
</g>
<!-- Node6&#45;&gt;Node18 -->
<g id="edge22_Node000006_Node000018" class="edge">
<title>Node6&#45;&gt;Node18</title>
<g id="a_edge22_Node000006_Node000018"><a xlink:title=" ">
<path fill="none" stroke="#63b8ff" d="M537.76,-150.99C561.21,-147.25 588.21,-142.95 612.29,-139.12"/>
<polygon fill="#63b8ff" stroke="#63b8ff" points="617.38,-138.31 612.79,-141.32 614.91,-138.7 612.44,-139.1 612.44,-139.1 612.44,-139.1 614.91,-138.7 612.09,-136.87 617.38,-138.31 617.38,-138.31"/>
</a>
</g>
</g>
<!-- Node8 -->
<g id="Node000008" class="node">
<title>Node8</title>
<g id="a_Node000008"><a xlink:href="../../d6/d6f/classTableZone.html#a01e5209515d25ffe4c7c3fc93c7e9068" target="_top" xlink:title=" ">
<polygon fill="white" stroke="#666666" points="957,-145 801,-145 801,-126 957,-126 957,-145"/>
<text text-anchor="middle" x="879" y="-133" font-family="Helvetica,sans-Serif" font-size="10.00">TableZone::getCardFromGrid</text>
</a>
</g>
</g>
<!-- Node7&#45;&gt;Node8 -->
<g id="edge7_Node000007_Node000008" class="edge">
<title>Node7&#45;&gt;Node8</title>
<g id="a_edge7_Node000007_Node000008"><a xlink:title=" ">
<path fill="none" stroke="#63b8ff" d="M739.72,-198.89C748.36,-196.63 757.03,-193.87 765,-190.5 782.72,-183.02 783.99,-175.47 801,-166.5 815.08,-159.08 831.34,-152.29 845.28,-146.97"/>
<polygon fill="#63b8ff" stroke="#63b8ff" points="850.3,-145.08 846.42,-148.94 847.96,-145.96 845.62,-146.84 845.62,-146.84 845.62,-146.84 847.96,-145.96 844.83,-144.73 850.3,-145.08 850.3,-145.08"/>
</a>
</g>
</g>
<!-- Node11 -->
<g id="Node000011" class="node">
<title>Node11</title>
<g id="a_Node000011"><a xlink:href="../../d6/d6f/classTableZone.html#ace0445dcfbb677ff3371e87899e23efd" target="_top" xlink:title=" ">
<polygon fill="white" stroke="#666666" points="949,-231 809,-231 809,-212 949,-212 949,-231"/>
<text text-anchor="middle" x="879" y="-219" font-family="Helvetica,sans-Serif" font-size="10.00">TableZone::mapFromGrid</text>
</a>
</g>
</g>
<!-- Node7&#45;&gt;Node11 -->
<g id="edge10_Node000007_Node000011" class="edge">
<title>Node7&#45;&gt;Node11</title>
<g id="a_edge10_Node000007_Node000011"><a xlink:title=" ">
<path fill="none" stroke="#63b8ff" d="M756.04,-213.45C771.67,-214.48 788.14,-215.57 803.74,-216.6"/>
<polygon fill="#63b8ff" stroke="#63b8ff" points="809,-216.95 803.86,-218.86 806.5,-216.78 804.01,-216.62 804.01,-216.62 804.01,-216.62 806.5,-216.78 804.15,-214.37 809,-216.95 809,-216.95"/>
</a>
</g>
</g>
<!-- Node15 -->
<g id="Node000015" class="node">
<title>Node15</title>
<g id="a_Node000015"><a xlink:href="../../d6/d6f/classTableZone.html#aed922258172d122e66d5d033d567c783" target="_top" xlink:title=" ">
<polygon fill="white" stroke="#666666" points="941.5,-194 816.5,-194 816.5,-175 941.5,-175 941.5,-194"/>
<text text-anchor="middle" x="879" y="-182" font-family="Helvetica,sans-Serif" font-size="10.00">TableZone::mapToGrid</text>
</a>
</g>
</g>
<!-- Node7&#45;&gt;Node15 -->
<g id="edge15_Node000007_Node000015" class="edge">
<title>Node7&#45;&gt;Node15</title>
<g id="a_edge15_Node000007_Node000015"><a xlink:title=" ">
<path fill="none" stroke="#63b8ff" d="M756.04,-199.36C774.23,-197.14 793.55,-194.79 811.32,-192.62"/>
<polygon fill="#63b8ff" stroke="#63b8ff" points="816.29,-192.02 811.6,-194.86 813.81,-192.32 811.33,-192.62 811.33,-192.62 811.33,-192.62 813.81,-192.32 811.06,-190.39 816.29,-192.02 816.29,-192.02"/>
</a>
</g>
</g>
<!-- Node8&#45;&gt;Node9 -->
<g id="edge8_Node000008_Node000009" class="edge">
<title>Node8&#45;&gt;Node9</title>
<g id="a_edge8_Node000008_Node000009"><a xlink:title=" ">
<path fill="none" stroke="#63b8ff" d="M918.18,-125.98C952.08,-117.52 1001.58,-105.18 1037,-96.35"/>
<polygon fill="#63b8ff" stroke="#63b8ff" points="1042.12,-95.07 1037.81,-98.46 1039.69,-95.68 1037.27,-96.28 1037.27,-96.28 1037.27,-96.28 1039.69,-95.68 1036.72,-94.1 1042.12,-95.07 1042.12,-95.07"/>
</a>
</g>
</g>
<!-- Node8&#45;&gt;Node10 -->
<g id="edge9_Node000008_Node000010" class="edge">
<title>Node8&#45;&gt;Node10</title>
<g id="a_edge9_Node000008_Node000010"><a xlink:title=" ">
<path fill="none" stroke="#63b8ff" d="M957.45,-133.13C1032.25,-130.84 1143.97,-127.42 1212.18,-125.33"/>
<polygon fill="#63b8ff" stroke="#63b8ff" points="1217.42,-125.17 1212.49,-127.57 1214.92,-125.25 1212.42,-125.32 1212.42,-125.32 1212.42,-125.32 1214.92,-125.25 1212.35,-123.08 1217.42,-125.17 1217.42,-125.17"/>
</a>
</g>
</g>
<!-- Node12 -->
<g id="Node000012" class="node">
<title>Node12</title>
<g id="a_Node000012"><a xlink:href="../../d6/d6f/classTableZone.html#a0a5a321fc32fdbc7095c1ecd82815b08" target="_top" xlink:title=" ">
<polygon fill="white" stroke="#666666" points="1170,-208 993,-208 993,-189 1170,-189 1170,-208"/>
<text text-anchor="middle" x="1081.5" y="-196" font-family="Helvetica,sans-Serif" font-size="10.00">TableZone::getCardStackMapKey</text>
</a>
</g>
</g>
<!-- Node11&#45;&gt;Node12 -->
<g id="edge11_Node000011_Node000012" class="edge">
<title>Node11&#45;&gt;Node12</title>
<g id="a_edge11_Node000011_Node000012"><a xlink:title=" ">
<path fill="none" stroke="#63b8ff" d="M949,-213.58C962.92,-211.99 977.74,-210.29 992.22,-208.63"/>
<polygon fill="#63b8ff" stroke="#63b8ff" points="997.53,-208.02 992.82,-210.82 995.05,-208.3 992.57,-208.59 992.57,-208.59 992.57,-208.59 995.05,-208.3 992.31,-206.35 997.53,-208.02 997.53,-208.02"/>
</a>
</g>
</g>
<!-- Node13 -->
<g id="Node000013" class="node">
<title>Node13</title>
<g id="a_Node000013"><a xlink:href="../../d6/d6f/classTableZone.html#af3c744bcfd8d8afca5dc1083f7878b3a" target="_top" xlink:title=" ">
<polygon fill="white" stroke="#666666" points="1142.5,-245 1020.5,-245 1020.5,-226 1142.5,-226 1142.5,-245"/>
<text text-anchor="middle" x="1081.5" y="-233" font-family="Helvetica,sans-Serif" font-size="10.00">TableZone::isInverted</text>
</a>
</g>
</g>
<!-- Node11&#45;&gt;Node13 -->
<g id="edge12_Node000011_Node000013" class="edge">
<title>Node11&#45;&gt;Node13</title>
<g id="a_edge12_Node000011_Node000013"><a xlink:title=" ">
<path fill="none" stroke="#63b8ff" d="M949,-226.32C970.5,-227.82 994.13,-229.47 1015.35,-230.95"/>
<polygon fill="#63b8ff" stroke="#63b8ff" points="1020.41,-231.3 1015.26,-233.2 1017.92,-231.13 1015.42,-230.96 1015.42,-230.96 1015.42,-230.96 1017.92,-231.13 1015.58,-228.71 1020.41,-231.3 1020.41,-231.3"/>
</a>
</g>
</g>
<!-- Node13&#45;&gt;Node10 -->
<g id="edge13_Node000013_Node000010" class="edge">
<title>Node13&#45;&gt;Node10</title>
<g id="a_edge13_Node000013_Node000010"><a xlink:title=" ">
<path fill="none" stroke="#63b8ff" d="M1142.81,-227.59C1152.21,-225.1 1161.58,-221.82 1170,-217.5 1209.21,-197.4 1244.48,-158.01 1261.41,-137.17"/>
<polygon fill="#63b8ff" stroke="#63b8ff" points="1264.74,-133.02 1263.37,-138.33 1263.17,-134.97 1261.61,-136.92 1261.61,-136.92 1261.61,-136.92 1263.17,-134.97 1259.86,-135.51 1264.74,-133.02 1264.74,-133.02"/>
</a>
</g>
</g>
<!-- Node14 -->
<g id="Node000014" class="node">
<title>Node14</title>
<g id="a_Node000014"><a xlink:href="../../d5/d88/classSettingsCache.html#adfa7f9f975919981b992db1fca9e4957" target="_top" xlink:title=" ">
<polygon fill="white" stroke="#666666" points="1340,-245 1206,-245 1206,-226 1340,-226 1340,-245"/>
<text text-anchor="middle" x="1273" y="-233" font-family="Helvetica,sans-Serif" font-size="10.00">SettingsCache::instance</text>
</a>
</g>
</g>
<!-- Node13&#45;&gt;Node14 -->
<g id="edge14_Node000013_Node000014" class="edge">
<title>Node13&#45;&gt;Node14</title>
<g id="a_edge14_Node000013_Node000014"><a xlink:title=" ">
<path fill="none" stroke="#63b8ff" d="M1142.72,-235.5C1161.05,-235.5 1181.37,-235.5 1200.37,-235.5"/>
<polygon fill="#63b8ff" stroke="#63b8ff" points="1205.69,-235.5 1200.69,-237.75 1203.19,-235.5 1200.69,-235.5 1200.69,-235.5 1200.69,-235.5 1203.19,-235.5 1200.69,-233.25 1205.69,-235.5 1205.69,-235.5"/>
</a>
</g>
</g>
<!-- Node15&#45;&gt;Node12 -->
<g id="edge17_Node000015_Node000012" class="edge">
<title>Node15&#45;&gt;Node12</title>
<g id="a_edge17_Node000015_Node000012"><a xlink:title=" ">
<path fill="none" stroke="#63b8ff" d="M941.52,-188.8C956.1,-189.81 971.98,-190.92 987.61,-192.01"/>
<polygon fill="#63b8ff" stroke="#63b8ff" points="992.9,-192.38 987.76,-194.28 990.41,-192.21 987.91,-192.04 987.91,-192.04 987.91,-192.04 990.41,-192.21 988.07,-189.79 992.9,-192.38 992.9,-192.38"/>
</a>
</g>
</g>
<!-- Node15&#45;&gt;Node13 -->
<g id="edge18_Node000015_Node000013" class="edge">
<title>Node15&#45;&gt;Node13</title>
<g id="a_edge18_Node000015_Node000013"><a xlink:title=" ">
<path fill="none" stroke="#63b8ff" d="M923.04,-194.08C934.18,-196.84 946.1,-200.05 957,-203.5 973.37,-208.68 976.53,-212.64 993,-217.5 1002.25,-220.23 1012.16,-222.69 1021.88,-224.86"/>
<polygon fill="#63b8ff" stroke="#63b8ff" points="1026.93,-225.97 1021.57,-227.1 1024.49,-225.43 1022.05,-224.9 1022.05,-224.9 1022.05,-224.9 1024.49,-225.43 1022.53,-222.7 1026.93,-225.97 1026.93,-225.97"/>
</a>
</g>
</g>
<!-- Node16 -->
<g id="Node000016" class="node">
<title>Node16</title>
<g id="a_Node000016"><a xlink:href="../../d6/d6f/classTableZone.html#a1d2de5c47bda321b913000f0b893a805" target="_top" xlink:title=" ">
<polygon fill="white" stroke="#666666" points="1168,-171 995,-171 995,-152 1168,-152 1168,-171"/>
<text text-anchor="middle" x="1081.5" y="-159" font-family="Helvetica,sans-Serif" font-size="10.00">TableZone::clampValidTableRow</text>
</a>
</g>
</g>
<!-- Node15&#45;&gt;Node16 -->
<g id="edge16_Node000015_Node000016" class="edge">
<title>Node15&#45;&gt;Node16</title>
<g id="a_edge16_Node000015_Node000016"><a xlink:title=" ">
<path fill="none" stroke="#63b8ff" d="M941.52,-177.44C957.58,-175.6 975.22,-173.58 992.37,-171.61"/>
<polygon fill="#63b8ff" stroke="#63b8ff" points="997.68,-171 992.97,-173.81 995.19,-171.29 992.71,-171.57 992.71,-171.57 992.71,-171.57 995.19,-171.29 992.45,-169.34 997.68,-171 997.68,-171"/>
</a>
</g>
</g>
<!-- Node17&#45;&gt;Node8 -->
<g id="edge20_Node000017_Node000008" class="edge">
<title>Node17&#45;&gt;Node8</title>
<g id="a_edge20_Node000017_Node000008"><a xlink:title=" ">
<path fill="none" stroke="#63b8ff" d="M733.02,-161.99C759.95,-157.07 792.91,-151.05 820.59,-145.99"/>
<polygon fill="#63b8ff" stroke="#63b8ff" points="825.69,-145.06 821.18,-148.17 823.23,-145.51 820.77,-145.96 820.77,-145.96 820.77,-145.96 823.23,-145.51 820.37,-143.74 825.69,-145.06 825.69,-145.06"/>
</a>
</g>
</g>
<!-- Node17&#45;&gt;Node15 -->
<g id="edge21_Node000017_Node000015" class="edge">
<title>Node17&#45;&gt;Node15</title>
<g id="a_edge21_Node000017_Node000015"><a xlink:title=" ">
<path fill="none" stroke="#63b8ff" d="M765.12,-177.05C780.39,-178.06 796.14,-179.1 810.84,-180.07"/>
<polygon fill="#63b8ff" stroke="#63b8ff" points="816.21,-180.42 811.08,-182.34 813.72,-180.26 811.22,-180.09 811.22,-180.09 811.22,-180.09 813.72,-180.26 811.37,-177.85 816.21,-180.42 816.21,-180.42"/>
</a>
</g>
</g>
</g>
</svg>
