<?xml version="1.0" encoding="UTF-8" standalone="no"?>
<!DOCTYPE svg PUBLIC "-//W3C//DTD SVG 1.1//EN"
 "http://www.w3.org/Graphics/SVG/1.1/DTD/svg11.dtd">
<!-- Generated by graphviz version 2.43.0 (0)
 -->
<!-- Title: TabSupervisor::actTabVisualDeckStorage Pages: 1 -->
<svg width="950pt" height="422pt"
 viewBox="0.00 0.00 950.00 421.50" xmlns="http://www.w3.org/2000/svg" xmlns:xlink="http://www.w3.org/1999/xlink">
<g id="graph0" class="graph" transform="scale(1 1) rotate(0) translate(4 417.5)">
<title>TabSupervisor::actTabVisualDeckStorage</title>
<!-- Node1 -->
<g id="Node000001" class="node">
<title>Node1</title>
<g id="a_Node000001"><a xlink:title=" ">
<polygon fill="#999999" stroke="#666666" points="152,-121 0,-121 0,-91 152,-91 152,-121"/>
<text text-anchor="start" x="8" y="-109" font-family="Helvetica,sans-Serif" font-size="10.00">TabSupervisor::actTabVisual</text>
<text text-anchor="middle" x="76" y="-98" font-family="Helvetica,sans-Serif" font-size="10.00">DeckStorage</text>
</a>
</g>
</g>
<!-- Node2 -->
<g id="Node000002" class="node">
<title>Node2</title>
<g id="a_Node000002"><a xlink:href="../../de/d9c/classTab.html#abc34e642c5afb7cca0c9e6f84d951976" target="_top" xlink:title=" ">
<polygon fill="white" stroke="#666666" points="906.5,-413.5 802.5,-413.5 802.5,-394.5 906.5,-394.5 906.5,-413.5"/>
<text text-anchor="middle" x="854.5" y="-401.5" font-family="Helvetica,sans-Serif" font-size="10.00">Tab::closeRequest</text>
</a>
</g>
</g>
<!-- Node1&#45;&gt;Node2 -->
<g id="edge1_Node000001_Node000002" class="edge">
<title>Node1&#45;&gt;Node2</title>
<g id="a_edge1_Node000001_Node000002"><a xlink:title=" ">
<path fill="none" stroke="#63b8ff" d="M95.33,-121.24C156.63,-171.16 362,-329.82 563,-388 641.89,-410.83 737.75,-411.12 797.21,-408.28"/>
<polygon fill="#63b8ff" stroke="#63b8ff" points="802.49,-408.02 797.61,-410.52 799.99,-408.14 797.49,-408.27 797.49,-408.27 797.49,-408.27 799.99,-408.14 797.38,-406.02 802.49,-408.02 802.49,-408.02"/>
</a>
</g>
</g>
<!-- Node3 -->
<g id="Node000003" class="node">
<title>Node3</title>
<g id="a_Node000003"><a xlink:href="../../d5/d88/classSettingsCache.html#adfa7f9f975919981b992db1fca9e4957" target="_top" xlink:title=" ">
<polygon fill="white" stroke="#666666" points="921.5,-68.5 787.5,-68.5 787.5,-49.5 921.5,-49.5 921.5,-68.5"/>
<text text-anchor="middle" x="854.5" y="-56.5" font-family="Helvetica,sans-Serif" font-size="10.00">SettingsCache::instance</text>
</a>
</g>
</g>
<!-- Node1&#45;&gt;Node3 -->
<g id="edge2_Node000001_Node000003" class="edge">
<title>Node1&#45;&gt;Node3</title>
<g id="a_edge2_Node000001_Node000003"><a xlink:title=" ">
<path fill="none" stroke="#63b8ff" d="M152.16,-101.45C301.96,-92.38 635.89,-72.17 782.34,-63.31"/>
<polygon fill="#63b8ff" stroke="#63b8ff" points="787.48,-63 782.62,-65.54 784.98,-63.15 782.48,-63.3 782.48,-63.3 782.48,-63.3 784.98,-63.15 782.35,-61.05 787.48,-63 787.48,-63"/>
</a>
</g>
</g>
<!-- Node4 -->
<g id="Node000004" class="node">
<title>Node4</title>
<g id="a_Node000004"><a xlink:href="../../dd/d81/classTabSupervisor.html#a33132eddb59e243056fe900ff419d2c6" target="_top" xlink:title=" ">
<polygon fill="white" stroke="#666666" points="349,-170 188,-170 188,-140 349,-140 349,-170"/>
<text text-anchor="start" x="196" y="-158" font-family="Helvetica,sans-Serif" font-size="10.00">TabSupervisor::openTabVisual</text>
<text text-anchor="middle" x="268.5" y="-147" font-family="Helvetica,sans-Serif" font-size="10.00">DeckStorage</text>
</a>
</g>
</g>
<!-- Node1&#45;&gt;Node4 -->
<g id="edge3_Node000001_Node000004" class="edge">
<title>Node1&#45;&gt;Node4</title>
<g id="a_edge3_Node000001_Node000004"><a xlink:title=" ">
<path fill="none" stroke="#63b8ff" d="M135.45,-121.03C157.21,-126.63 182,-133.01 204.18,-138.71"/>
<polygon fill="#63b8ff" stroke="#63b8ff" points="209.16,-139.99 203.76,-140.93 206.74,-139.37 204.32,-138.75 204.32,-138.75 204.32,-138.75 206.74,-139.37 204.88,-136.57 209.16,-139.99 209.16,-139.99"/>
</a>
</g>
</g>
<!-- Node16 -->
<g id="Node000016" class="node">
<title>Node16</title>
<g id="a_Node000016"><a xlink:href="../../d5/d88/classSettingsCache.html#a496f424692e6fb6ab3ada2f7044f4afb" target="_top" xlink:title=" ">
<polygon fill="white" stroke="#666666" points="345.5,-30 191.5,-30 191.5,0 345.5,0 345.5,-30"/>
<text text-anchor="start" x="199.5" y="-18" font-family="Helvetica,sans-Serif" font-size="10.00">SettingsCache::setTabVisual</text>
<text text-anchor="middle" x="268.5" y="-7" font-family="Helvetica,sans-Serif" font-size="10.00">DeckStorageOpen</text>
</a>
</g>
</g>
<!-- Node1&#45;&gt;Node16 -->
<g id="edge19_Node000001_Node000016" class="edge">
<title>Node1&#45;&gt;Node16</title>
<g id="a_edge19_Node000001_Node000016"><a xlink:title=" ">
<path fill="none" stroke="#63b8ff" d="M101.54,-90.8C123.64,-77.46 157.3,-58.07 188,-44 197.41,-39.69 207.67,-35.55 217.59,-31.82"/>
<polygon fill="#63b8ff" stroke="#63b8ff" points="222.42,-30.03 218.52,-33.88 220.08,-30.9 217.74,-31.77 217.74,-31.77 217.74,-31.77 220.08,-30.9 216.95,-29.66 222.42,-30.03 222.42,-30.03"/>
</a>
</g>
</g>
<!-- Node5 -->
<g id="Node000005" class="node">
<title>Node5</title>
<g id="a_Node000005"><a xlink:href="../../dd/d81/classTabSupervisor.html#a921a5a0cadfa211585e1a42b47cd73ff" target="_top" xlink:title=" ">
<polygon fill="white" stroke="#666666" points="527,-218.5 385,-218.5 385,-199.5 527,-199.5 527,-218.5"/>
<text text-anchor="middle" x="456" y="-206.5" font-family="Helvetica,sans-Serif" font-size="10.00">TabSupervisor::myAddTab</text>
</a>
</g>
</g>
<!-- Node4&#45;&gt;Node5 -->
<g id="edge4_Node000004_Node000005" class="edge">
<title>Node4&#45;&gt;Node5</title>
<g id="a_edge4_Node000004_Node000005"><a xlink:title=" ">
<path fill="none" stroke="#63b8ff" d="M321.17,-170.04C351.65,-178.91 389.54,-189.95 417.22,-198"/>
<polygon fill="#63b8ff" stroke="#63b8ff" points="422.27,-199.47 416.84,-200.23 419.87,-198.77 417.47,-198.07 417.47,-198.07 417.47,-198.07 419.87,-198.77 418.09,-195.91 422.27,-199.47 422.27,-199.47"/>
</a>
</g>
</g>
<!-- Node6 -->
<g id="Node000006" class="node">
<title>Node6</title>
<g id="a_Node000006"><a xlink:href="../../dd/d81/classTabSupervisor.html#a35f0b178472c1a1ad389b2e5473ee9d9" target="_top" xlink:title=" ">
<polygon fill="white" stroke="#666666" points="731,-379 563,-379 563,-349 731,-349 731,-379"/>
<text text-anchor="start" x="571" y="-367" font-family="Helvetica,sans-Serif" font-size="10.00">TabSupervisor::addCloseButton</text>
<text text-anchor="middle" x="647" y="-356" font-family="Helvetica,sans-Serif" font-size="10.00">ToTab</text>
</a>
</g>
</g>
<!-- Node5&#45;&gt;Node6 -->
<g id="edge5_Node000005_Node000006" class="edge">
<title>Node5&#45;&gt;Node6</title>
<g id="a_edge5_Node000005_Node000006"><a xlink:title=" ">
<path fill="none" stroke="#63b8ff" d="M462.61,-218.73C476.57,-242.13 515.23,-302.05 563,-335 569.66,-339.59 577.12,-343.53 584.76,-346.88"/>
<polygon fill="#63b8ff" stroke="#63b8ff" points="589.54,-348.89 584.06,-349.02 587.24,-347.92 584.93,-346.95 584.93,-346.95 584.93,-346.95 587.24,-347.92 585.8,-344.88 589.54,-348.89 589.54,-348.89"/>
</a>
</g>
</g>
<!-- Node8 -->
<g id="Node000008" class="node">
<title>Node8</title>
<g id="a_Node000008"><a xlink:href="../../de/d9c/classTab.html#a46533c5f44b364e8e5d830ab74006a55" target="_top" xlink:title=" ">
<polygon fill="white" stroke="#666666" points="693,-218.5 601,-218.5 601,-199.5 693,-199.5 693,-218.5"/>
<text text-anchor="middle" x="647" y="-206.5" font-family="Helvetica,sans-Serif" font-size="10.00">Tab::getTabText</text>
</a>
</g>
</g>
<!-- Node5&#45;&gt;Node8 -->
<g id="edge8_Node000005_Node000008" class="edge">
<title>Node5&#45;&gt;Node8</title>
<g id="a_edge8_Node000005_Node000008"><a xlink:title=" ">
<path fill="none" stroke="#63b8ff" d="M527.11,-209C549.87,-209 574.65,-209 595.67,-209"/>
<polygon fill="#63b8ff" stroke="#63b8ff" points="600.93,-209 595.93,-211.25 598.43,-209 595.93,-209 595.93,-209 595.93,-209 598.43,-209 595.93,-206.75 600.93,-209 600.93,-209"/>
</a>
</g>
</g>
<!-- Node9 -->
<g id="Node000009" class="node">
<title>Node9</title>
<g id="a_Node000009"><a xlink:href="../../dd/d81/classTabSupervisor.html#a1cbd5dbfcf13b7c837515a8357258130" target="_top" xlink:title=" ">
<polygon fill="white" stroke="#666666" points="931,-292.5 778,-292.5 778,-273.5 931,-273.5 931,-292.5"/>
<text text-anchor="middle" x="854.5" y="-280.5" font-family="Helvetica,sans-Serif" font-size="10.00">TabSupervisor::sanitizeHtml</text>
</a>
</g>
</g>
<!-- Node5&#45;&gt;Node9 -->
<g id="edge9_Node000005_Node000009" class="edge">
<title>Node5&#45;&gt;Node9</title>
<g id="a_edge9_Node000005_Node000009"><a xlink:title=" ">
<path fill="none" stroke="#63b8ff" d="M463.87,-218.53C479.03,-238.63 517.64,-284.92 563,-302 650.93,-335.1 764.33,-310.11 819.85,-293.94"/>
<polygon fill="#63b8ff" stroke="#63b8ff" points="824.72,-292.51 820.56,-296.08 822.32,-293.21 819.92,-293.92 819.92,-293.92 819.92,-293.92 822.32,-293.21 819.29,-291.76 824.72,-292.51 824.72,-292.51"/>
</a>
</g>
</g>
<!-- Node10 -->
<g id="Node000010" class="node">
<title>Node10</title>
<g id="a_Node000010"><a xlink:href="../../dd/d81/classTabSupervisor.html#a6aa989a56de603ef70328bd974efb3fe" target="_top" xlink:title=" ">
<polygon fill="white" stroke="#666666" points="942,-217.5 767,-217.5 767,-198.5 942,-198.5 942,-217.5"/>
<text text-anchor="middle" x="854.5" y="-205.5" font-family="Helvetica,sans-Serif" font-size="10.00">TabSupervisor::sanitizeTabName</text>
</a>
</g>
</g>
<!-- Node5&#45;&gt;Node10 -->
<g id="edge10_Node000005_Node000010" class="edge">
<title>Node5&#45;&gt;Node10</title>
<g id="a_edge10_Node000005_Node000010"><a xlink:title=" ">
<path fill="none" stroke="#63b8ff" d="M502.96,-199.46C521.52,-196.07 543.19,-192.67 563,-191 637.4,-184.73 656.51,-185.86 731,-191 750.78,-192.37 772.22,-194.96 791.56,-197.71"/>
<polygon fill="#63b8ff" stroke="#63b8ff" points="796.95,-198.49 791.68,-200 794.48,-198.14 792,-197.78 792,-197.78 792,-197.78 794.48,-198.14 792.32,-195.55 796.95,-198.49 796.95,-198.49"/>
</a>
</g>
</g>
<!-- Node11 -->
<g id="Node000011" class="node">
<title>Node11</title>
<g id="a_Node000011"><a xlink:href="../../de/d9c/classTab.html#a409c727ef0d8c34fd96c01cc0bdf786f" target="_top" xlink:title=" ">
<polygon fill="white" stroke="#666666" points="706,-142.5 588,-142.5 588,-123.5 706,-123.5 706,-142.5"/>
<text text-anchor="middle" x="647" y="-130.5" font-family="Helvetica,sans-Serif" font-size="10.00">Tab::tabTextChanged</text>
</a>
</g>
</g>
<!-- Node5&#45;&gt;Node11 -->
<g id="edge11_Node000005_Node000011" class="edge">
<title>Node5&#45;&gt;Node11</title>
<g id="a_edge11_Node000005_Node000011"><a xlink:title=" ">
<path fill="none" stroke="#63b8ff" d="M474.21,-199.39C494.84,-188.15 530.69,-169.49 563,-157 575.72,-152.08 589.88,-147.63 602.84,-143.93"/>
<polygon fill="#63b8ff" stroke="#63b8ff" points="607.94,-142.5 603.73,-146.02 605.53,-143.18 603.13,-143.86 603.13,-143.86 603.13,-143.86 605.53,-143.18 602.52,-141.69 607.94,-142.5 607.94,-142.5"/>
</a>
</g>
</g>
<!-- Node12 -->
<g id="Node000012" class="node">
<title>Node12</title>
<g id="a_Node000012"><a xlink:href="../../dd/d81/classTabSupervisor.html#a44735c3d50fcb9cfdc12d15547ec9e3c" target="_top" xlink:title=" ">
<polygon fill="white" stroke="#666666" points="725.5,-105.5 568.5,-105.5 568.5,-86.5 725.5,-86.5 725.5,-105.5"/>
<text text-anchor="middle" x="647" y="-93.5" font-family="Helvetica,sans-Serif" font-size="10.00">TabSupervisor::tabUserEvent</text>
</a>
</g>
</g>
<!-- Node5&#45;&gt;Node12 -->
<g id="edge12_Node000005_Node000012" class="edge">
<title>Node5&#45;&gt;Node12</title>
<g id="a_edge12_Node000005_Node000012"><a xlink:title=" ">
<path fill="none" stroke="#63b8ff" d="M464.63,-199.42C480.64,-180.01 519.86,-136.03 563,-114 568.23,-111.33 573.85,-109.05 579.6,-107.11"/>
<polygon fill="#63b8ff" stroke="#63b8ff" points="584.45,-105.56 580.37,-109.23 582.07,-106.32 579.69,-107.08 579.69,-107.08 579.69,-107.08 582.07,-106.32 579.01,-104.94 584.45,-105.56 584.45,-105.56"/>
</a>
</g>
</g>
<!-- Node14 -->
<g id="Node000014" class="node">
<title>Node14</title>
<g id="a_Node000014"><a xlink:href="../../dd/d81/classTabSupervisor.html#ae3266e6beb4dedf665f1f8e407398b77" target="_top" xlink:title=" ">
<polygon fill="white" stroke="#666666" points="727.5,-255.5 566.5,-255.5 566.5,-236.5 727.5,-236.5 727.5,-255.5"/>
<text text-anchor="middle" x="647" y="-243.5" font-family="Helvetica,sans-Serif" font-size="10.00">TabSupervisor::updateTabText</text>
</a>
</g>
</g>
<!-- Node5&#45;&gt;Node14 -->
<g id="edge15_Node000005_Node000014" class="edge">
<title>Node5&#45;&gt;Node14</title>
<g id="a_edge15_Node000005_Node000014"><a xlink:title=" ">
<path fill="none" stroke="#63b8ff" d="M505.67,-218.53C532.13,-223.71 564.92,-230.13 592.15,-235.46"/>
<polygon fill="#63b8ff" stroke="#63b8ff" points="597.16,-236.44 591.83,-237.69 594.71,-235.96 592.26,-235.48 592.26,-235.48 592.26,-235.48 594.71,-235.96 592.69,-233.27 597.16,-236.44 597.16,-236.44"/>
</a>
</g>
</g>
<!-- Node15 -->
<g id="Node000015" class="node">
<title>Node15</title>
<g id="a_Node000015"><a xlink:href="../../de/d9c/classTab.html#a8a1ac5765536074a49f2c556378b9f84" target="_top" xlink:title=" ">
<polygon fill="white" stroke="#666666" points="691,-292.5 603,-292.5 603,-273.5 691,-273.5 691,-292.5"/>
<text text-anchor="middle" x="647" y="-280.5" font-family="Helvetica,sans-Serif" font-size="10.00">Tab::userEvent</text>
</a>
</g>
</g>
<!-- Node5&#45;&gt;Node15 -->
<g id="edge18_Node000005_Node000015" class="edge">
<title>Node5&#45;&gt;Node15</title>
<g id="a_edge18_Node000005_Node000015"><a xlink:title=" ">
<path fill="none" stroke="#63b8ff" d="M471.84,-218.52C491.81,-230.93 528.78,-252.52 563,-265 574.03,-269.02 586.23,-272.29 597.8,-274.87"/>
<polygon fill="#63b8ff" stroke="#63b8ff" points="602.72,-275.94 597.35,-277.08 600.27,-275.41 597.83,-274.88 597.83,-274.88 597.83,-274.88 600.27,-275.41 598.31,-272.68 602.72,-275.94 602.72,-275.94"/>
</a>
</g>
</g>
<!-- Node6&#45;&gt;Node2 -->
<g id="edge7_Node000006_Node000002" class="edge">
<title>Node6&#45;&gt;Node2</title>
<g id="a_edge7_Node000006_Node000002"><a xlink:title=" ">
<path fill="none" stroke="#63b8ff" d="M725.11,-379.01C749.88,-383.83 776.78,-389.07 799.53,-393.5"/>
<polygon fill="#63b8ff" stroke="#63b8ff" points="804.62,-394.49 799.28,-395.74 802.16,-394.01 799.71,-393.53 799.71,-393.53 799.71,-393.53 802.16,-394.01 800.14,-391.32 804.62,-394.49 804.62,-394.49"/>
</a>
</g>
</g>
<!-- Node7 -->
<g id="Node000007" class="node">
<title>Node7</title>
<g id="a_Node000007"><a xlink:href="../../da/d4e/tab__supervisor_8cpp.html#a71cfc59d24a90adc9253595a7dcdf9e2" target="_top" xlink:title=" ">
<polygon fill="white" stroke="#666666" points="903,-373.5 806,-373.5 806,-354.5 903,-354.5 903,-373.5"/>
<text text-anchor="middle" x="854.5" y="-361.5" font-family="Helvetica,sans-Serif" font-size="10.00">checkAndTrigger</text>
</a>
</g>
</g>
<!-- Node6&#45;&gt;Node7 -->
<g id="edge6_Node000006_Node000007" class="edge">
<title>Node6&#45;&gt;Node7</title>
<g id="a_edge6_Node000006_Node000007"><a xlink:title=" ">
<path fill="none" stroke="#63b8ff" d="M731.29,-364C754.77,-364 779.66,-364 800.81,-364"/>
<polygon fill="#63b8ff" stroke="#63b8ff" points="805.82,-364 800.82,-366.25 803.32,-364 800.82,-364 800.82,-364 800.82,-364 803.32,-364 800.82,-361.75 805.82,-364 805.82,-364"/>
</a>
</g>
</g>
<!-- Node12&#45;&gt;Node3 -->
<g id="edge13_Node000012_Node000003" class="edge">
<title>Node12&#45;&gt;Node3</title>
<g id="a_edge13_Node000012_Node000003"><a xlink:title=" ">
<path fill="none" stroke="#63b8ff" d="M700.92,-86.47C729.81,-81.27 765.64,-74.82 795.32,-69.48"/>
<polygon fill="#63b8ff" stroke="#63b8ff" points="800.4,-68.56 795.88,-71.66 797.94,-69 795.48,-69.45 795.48,-69.45 795.48,-69.45 797.94,-69 795.08,-67.23 800.4,-68.56 800.4,-68.56"/>
</a>
</g>
</g>
<!-- Node13 -->
<g id="Node000013" class="node">
<title>Node13</title>
<g id="a_Node000013"><a xlink:href="../../de/d9c/classTab.html#a9b55037f53b045dec786490c4b9b57f2" target="_top" xlink:title=" ">
<polygon fill="white" stroke="#666666" points="924.5,-105.5 784.5,-105.5 784.5,-86.5 924.5,-86.5 924.5,-105.5"/>
<text text-anchor="middle" x="854.5" y="-93.5" font-family="Helvetica,sans-Serif" font-size="10.00">Tab::setContentsChanged</text>
</a>
</g>
</g>
<!-- Node12&#45;&gt;Node13 -->
<g id="edge14_Node000012_Node000013" class="edge">
<title>Node12&#45;&gt;Node13</title>
<g id="a_edge14_Node000012_Node000013"><a xlink:title=" ">
<path fill="none" stroke="#63b8ff" d="M725.69,-96C743.2,-96 761.75,-96 779.12,-96"/>
<polygon fill="#63b8ff" stroke="#63b8ff" points="784.47,-96 779.47,-98.25 781.97,-96 779.47,-96 779.47,-96 779.47,-96 781.97,-96 779.47,-93.75 784.47,-96 784.47,-96"/>
</a>
</g>
</g>
<!-- Node14&#45;&gt;Node9 -->
<g id="edge16_Node000014_Node000009" class="edge">
<title>Node14&#45;&gt;Node9</title>
<g id="a_edge16_Node000014_Node000009"><a xlink:title=" ">
<path fill="none" stroke="#63b8ff" d="M700.92,-255.53C729.81,-260.73 765.64,-267.18 795.32,-272.52"/>
<polygon fill="#63b8ff" stroke="#63b8ff" points="800.4,-273.44 795.08,-274.77 797.94,-273 795.48,-272.55 795.48,-272.55 795.48,-272.55 797.94,-273 795.88,-270.34 800.4,-273.44 800.4,-273.44"/>
</a>
</g>
</g>
<!-- Node14&#45;&gt;Node10 -->
<g id="edge17_Node000014_Node000010" class="edge">
<title>Node14&#45;&gt;Node10</title>
<g id="a_edge17_Node000014_Node000010"><a xlink:title=" ">
<path fill="none" stroke="#63b8ff" d="M699.59,-236.46C729.15,-230.99 766.29,-224.13 796.68,-218.51"/>
<polygon fill="#63b8ff" stroke="#63b8ff" points="801.89,-217.54 797.38,-220.67 799.43,-218 796.97,-218.45 796.97,-218.45 796.97,-218.45 799.43,-218 796.56,-216.24 801.89,-217.54 801.89,-217.54"/>
</a>
</g>
</g>
</g>
</svg>
