<?xml version="1.0" encoding="UTF-8" standalone="no"?>
<!DOCTYPE svg PUBLIC "-//W3C//DTD SVG 1.1//EN"
 "http://www.w3.org/Graphics/SVG/1.1/DTD/svg11.dtd">
<!-- Generated by graphviz version 2.43.0 (0)
 -->
<!-- Title: TabSupervisor::openDeckInNewTab Pages: 1 -->
<!--zoomable 276 -->

<svg id="main" version="1.1" xmlns="http://www.w3.org/2000/svg" xmlns:xlink="http://www.w3.org/1999/xlink" xml:space="preserve" onload="init(evt)">
<style type="text/css"><![CDATA[
.node, .edge {opacity: 0.7;}
.node.selected, .edge.selected {opacity: 1;}
.edge:hover path { stroke: red; }
.edge:hover polygon { stroke: red; fill: red; }
]]></style>

<defs>
  <circle id="rim" cx="0" cy="0" r="7"/>
  <circle id="rim2" cx="0" cy="0" r="3.5"/>
  <g id="zoomPlus">
    <use xlink:href="#rim" fill="#404040"><set attributeName="fill" to="#808080" begin="zoomplus.mouseover" end="zoomplus.mouseout"/></use>
    <path d="M-4,0h8M0,-4v8" fill="none" stroke="white" stroke-width="1.5" pointer-events="none"/>
  </g>
  <g id="zoomMin">
    <use xlink:href="#rim" fill="#404040"><set attributeName="fill" to="#808080" begin="zoomminus.mouseover" end="zoomminus.mouseout"/></use>
    <path d="M-4,0h8" fill="none" stroke="white" stroke-width="1.5" pointer-events="none"/>
  </g>
  <g id="arrowUp" transform="translate(30 24)">
    <use xlink:href="#rim"/>
    <path pointer-events="none" fill="none" stroke="white" stroke-width="1.5" d="M0,-3.0v7 M-2.5,-0.5L0,-3.0L2.5,-0.5"/>
  </g>
  <g id="arrowRight" transform="rotate(90) translate(36 -43)">
    <use xlink:href="#rim"/>
    <path pointer-events="none" fill="none" stroke="white" stroke-width="1.5" d="M0,-3.0v7 M-2.5,-0.5L0,-3.0L2.5,-0.5"/>
  </g>
  <g id="arrowDown" transform="rotate(180) translate(-30 -48)">
    <use xlink:href="#rim"/>
    <path pointer-events="none" fill="none" stroke="white" stroke-width="1.5" d="M0,-3.0v7 M-2.5,-0.5L0,-3.0L2.5,-0.5"/>
  </g>
  <g id="arrowLeft" transform="rotate(270) translate(-36 17)">
    <use xlink:href="#rim"/>
    <path pointer-events="none" fill="none" stroke="white" stroke-width="1.5" d="M0,-3.0v7 M-2.5,-0.5L0,-3.0L2.5,-0.5"/>
  </g>
  <g id="resetDef">
    <use xlink:href="#rim2" fill="#404040"><set attributeName="fill" to="#808080" begin="reset.mouseover" end="reset.mouseout"/></use>
  </g>
</defs>
<script type="application/ecmascript">
var viewWidth = 1371;
var viewHeight = 276;
var sectionId = 'dynsection-62';
</script>
<script type="application/ecmascript" xlink:href="../../svg.min.js"/>
<svg id="graph" class="graph">
<g id="viewport">
<title>TabSupervisor::openDeckInNewTab</title>
<!-- Node1 -->
<g id="Node000001" class="node">
<title>Node1</title>
<g id="a_Node000001"><a xlink:title=" ">
<polygon fill="#999999" stroke="#666666" points="1363,-150 1214,-150 1214,-120 1363,-120 1363,-150"/>
<text text-anchor="start" x="1222" y="-138" font-family="Helvetica,sans-Serif" font-size="10.00">TabSupervisor::openDeckIn</text>
<text text-anchor="middle" x="1288.5" y="-127" font-family="Helvetica,sans-Serif" font-size="10.00">NewTab</text>
</a>
</g>
</g>
<!-- Node2 -->
<g id="Node000002" class="node">
<title>Node2</title>
<g id="a_Node000002"><a xlink:href="../../de/de3/classHomeWidget.html#ae2eb511293bf8d098f7bf5c2ef83e6e8" target="_top" xlink:title=" ">
<polygon fill="white" stroke="#666666" points="1167.5,-264.5 1012.5,-264.5 1012.5,-245.5 1167.5,-245.5 1167.5,-264.5"/>
<text text-anchor="middle" x="1090" y="-252.5" font-family="Helvetica,sans-Serif" font-size="10.00">HomeWidget::createButtons</text>
</a>
</g>
</g>
<!-- Node1&#45;&gt;Node2 -->
<g id="edge1_Node000001_Node000002" class="edge">
<title>Node1&#45;&gt;Node2</title>
<g id="a_edge1_Node000001_Node000002"><a xlink:title=" ">
<path fill="none" stroke="#63b8ff" d="M1269.24,-153.9C1248.72,-174.2 1213.59,-206.21 1178,-226 1163.11,-234.28 1145.47,-240.7 1129.98,-245.38"/>
<polygon fill="#63b8ff" stroke="#63b8ff" points="1272.9,-150.25 1270.95,-155.37 1271.13,-152.02 1269.36,-153.78 1269.36,-153.78 1269.36,-153.78 1271.13,-152.02 1267.77,-152.19 1272.9,-150.25 1272.9,-150.25"/>
</a>
</g>
</g>
<!-- Node4 -->
<g id="Node000004" class="node">
<title>Node4</title>
<g id="a_Node000004"><a xlink:href="../../dd/d81/classTabSupervisor.html#a6396f49593a8033e85531a822d264622" target="_top" xlink:title=" ">
<polygon fill="white" stroke="#666666" points="954,-230.5 805,-230.5 805,-211.5 954,-211.5 954,-230.5"/>
<text text-anchor="middle" x="879.5" y="-218.5" font-family="Helvetica,sans-Serif" font-size="10.00">TabSupervisor::gameJoined</text>
</a>
</g>
</g>
<!-- Node1&#45;&gt;Node4 -->
<g id="edge3_Node000001_Node000004" class="edge">
<title>Node1&#45;&gt;Node4</title>
<g id="a_edge3_Node000001_Node000004"><a xlink:title=" ">
<path fill="none" stroke="#63b8ff" d="M1254.36,-152.51C1233.1,-162.98 1204.59,-175.64 1178,-183 1103.36,-203.67 1015.01,-213.15 954.09,-217.46"/>
<polygon fill="#63b8ff" stroke="#63b8ff" points="1259.05,-150.17 1255.58,-154.41 1256.81,-151.28 1254.57,-152.4 1254.57,-152.4 1254.57,-152.4 1256.81,-151.28 1253.57,-150.38 1259.05,-150.17 1259.05,-150.17"/>
</a>
</g>
</g>
<!-- Node6 -->
<g id="Node000006" class="node">
<title>Node6</title>
<g id="a_Node000006"><a xlink:href="../../dd/d81/classTabSupervisor.html#ad7ae9e932602258473ab1afd8e4b88a6" target="_top" xlink:title=" ">
<polygon fill="white" stroke="#666666" points="1161.5,-126 1018.5,-126 1018.5,-96 1161.5,-96 1161.5,-126"/>
<text text-anchor="start" x="1026.5" y="-114" font-family="Helvetica,sans-Serif" font-size="10.00">TabSupervisor::localGame</text>
<text text-anchor="middle" x="1090" y="-103" font-family="Helvetica,sans-Serif" font-size="10.00">Joined</text>
</a>
</g>
</g>
<!-- Node1&#45;&gt;Node6 -->
<g id="edge5_Node000001_Node000006" class="edge">
<title>Node1&#45;&gt;Node6</title>
<g id="a_edge5_Node000001_Node000006"><a xlink:title=" ">
<path fill="none" stroke="#63b8ff" d="M1208.53,-125.36C1193,-123.46 1176.8,-121.48 1161.56,-119.62"/>
<polygon fill="#63b8ff" stroke="#63b8ff" points="1213.77,-126 1208.54,-127.62 1211.29,-125.69 1208.81,-125.39 1208.81,-125.39 1208.81,-125.39 1211.29,-125.69 1209.08,-123.16 1213.77,-126 1213.77,-126"/>
</a>
</g>
</g>
<!-- Node13 -->
<g id="Node000013" class="node">
<title>Node13</title>
<g id="a_Node000013"><a xlink:href="../../dd/d81/classTabSupervisor.html#a203d8d212cc674cbc65a231a2089251e" target="_top" xlink:title=" ">
<polygon fill="white" stroke="#666666" points="1168,-174 1012,-174 1012,-144 1168,-144 1168,-174"/>
<text text-anchor="start" x="1020" y="-162" font-family="Helvetica,sans-Serif" font-size="10.00">TabSupervisor::openTabDeck</text>
<text text-anchor="middle" x="1090" y="-151" font-family="Helvetica,sans-Serif" font-size="10.00">Storage</text>
</a>
</g>
</g>
<!-- Node1&#45;&gt;Node13 -->
<g id="edge13_Node000001_Node000013" class="edge">
<title>Node1&#45;&gt;Node13</title>
<g id="a_edge13_Node000001_Node000013"><a xlink:title=" ">
<path fill="none" stroke="#63b8ff" d="M1208.5,-144.65C1195.18,-146.28 1181.37,-147.96 1168.09,-149.58"/>
<polygon fill="#63b8ff" stroke="#63b8ff" points="1213.77,-144 1209.08,-146.84 1211.29,-144.31 1208.81,-144.61 1208.81,-144.61 1208.81,-144.61 1211.29,-144.31 1208.54,-142.38 1213.77,-144 1213.77,-144"/>
</a>
</g>
</g>
<!-- Node16 -->
<g id="Node000016" class="node">
<title>Node16</title>
<g id="a_Node000016"><a xlink:href="../../de/df3/classTabEdhRecMain.html#abab10d06b89009dcdea3e51be7d26257" target="_top" xlink:title=" ">
<polygon fill="white" stroke="#666666" points="1178,-78 1002,-78 1002,-48 1178,-48 1178,-78"/>
<text text-anchor="start" x="1010" y="-66" font-family="Helvetica,sans-Serif" font-size="10.00">TabEdhRecMain::processAverage</text>
<text text-anchor="middle" x="1090" y="-55" font-family="Helvetica,sans-Serif" font-size="10.00">DeckResponse</text>
</a>
</g>
</g>
<!-- Node1&#45;&gt;Node16 -->
<g id="edge18_Node000001_Node000016" class="edge">
<title>Node1&#45;&gt;Node16</title>
<g id="a_edge18_Node000001_Node000016"><a xlink:title=" ">
<path fill="none" stroke="#63b8ff" d="M1251.67,-117.73C1230.54,-107.94 1203.1,-95.91 1178,-87 1169.14,-83.85 1159.66,-80.87 1150.32,-78.13"/>
<polygon fill="#63b8ff" stroke="#63b8ff" points="1256.36,-119.92 1250.88,-119.84 1254.09,-118.86 1251.83,-117.8 1251.83,-117.8 1251.83,-117.8 1254.09,-118.86 1252.78,-115.77 1256.36,-119.92 1256.36,-119.92"/>
</a>
</g>
</g>
<!-- Node19 -->
<g id="Node000019" class="node">
<title>Node19</title>
<g id="a_Node000019"><a xlink:href="../../d9/dba/classTabDeckStorageVisual.html#ab8a20e7336b2c096dab008b004f8ce79" target="_top" xlink:title=" ">
<polygon fill="white" stroke="#666666" points="1155.5,-30 1024.5,-30 1024.5,0 1155.5,0 1155.5,-30"/>
<text text-anchor="start" x="1032.5" y="-18" font-family="Helvetica,sans-Serif" font-size="10.00">TabDeckStorageVisual</text>
<text text-anchor="middle" x="1090" y="-7" font-family="Helvetica,sans-Serif" font-size="10.00">::TabDeckStorageVisual</text>
</a>
</g>
</g>
<!-- Node1&#45;&gt;Node19 -->
<g id="edge21_Node000001_Node000019" class="edge">
<title>Node1&#45;&gt;Node19</title>
<g id="a_edge21_Node000001_Node000019"><a xlink:title=" ">
<path fill="none" stroke="#63b8ff" d="M1271.01,-116.11C1251.08,-94.42 1215.5,-59.22 1178,-39 1171.1,-35.28 1163.58,-32.1 1155.94,-29.39"/>
<polygon fill="#63b8ff" stroke="#63b8ff" points="1274.55,-120 1269.52,-117.81 1272.87,-118.15 1271.19,-116.3 1271.19,-116.3 1271.19,-116.3 1272.87,-118.15 1272.85,-114.79 1274.55,-120 1274.55,-120"/>
</a>
</g>
</g>
<!-- Node3 -->
<g id="Node000003" class="node">
<title>Node3</title>
<g id="a_Node000003"><a xlink:href="../../de/de3/classHomeWidget.html#ab3d9b41b45ce3ea2eff58af5d7f49dc3" target="_top" xlink:title=" ">
<polygon fill="white" stroke="#666666" points="954.5,-267.5 804.5,-267.5 804.5,-248.5 954.5,-248.5 954.5,-267.5"/>
<text text-anchor="middle" x="879.5" y="-255.5" font-family="Helvetica,sans-Serif" font-size="10.00">HomeWidget::HomeWidget</text>
</a>
</g>
</g>
<!-- Node2&#45;&gt;Node3 -->
<g id="edge2_Node000002_Node000003" class="edge">
<title>Node2&#45;&gt;Node3</title>
<g id="a_edge2_Node000002_Node000003"><a xlink:title=" ">
<path fill="none" stroke="#63b8ff" d="M1006.93,-256.18C989.68,-256.43 971.59,-256.69 954.66,-256.93"/>
<polygon fill="#63b8ff" stroke="#63b8ff" points="1012.25,-256.1 1007.28,-258.43 1009.75,-256.14 1007.25,-256.18 1007.25,-256.18 1007.25,-256.18 1009.75,-256.14 1007.22,-253.93 1012.25,-256.1 1012.25,-256.1"/>
</a>
</g>
</g>
<!-- Node5 -->
<g id="Node000005" class="node">
<title>Node5</title>
<g id="a_Node000005"><a xlink:href="../../dd/d81/classTabSupervisor.html#a5e6baf23ec25ba9c7d95138c2b76b234" target="_top" xlink:title=" ">
<polygon fill="white" stroke="#666666" points="748.5,-208.5 589.5,-208.5 589.5,-189.5 748.5,-189.5 748.5,-208.5"/>
<text text-anchor="middle" x="669" y="-196.5" font-family="Helvetica,sans-Serif" font-size="10.00">TabSupervisor::TabSupervisor</text>
</a>
</g>
</g>
<!-- Node4&#45;&gt;Node5 -->
<g id="edge4_Node000004_Node000005" class="edge">
<title>Node4&#45;&gt;Node5</title>
<g id="a_edge4_Node000004_Node000005"><a xlink:title=" ">
<path fill="none" stroke="#63b8ff" d="M799.81,-212.7C783.02,-210.93 765.29,-209.05 748.5,-207.28"/>
<polygon fill="#63b8ff" stroke="#63b8ff" points="804.99,-213.24 799.78,-214.96 802.5,-212.98 800.02,-212.72 800.02,-212.72 800.02,-212.72 802.5,-212.98 800.25,-210.48 804.99,-213.24 804.99,-213.24"/>
</a>
</g>
</g>
<!-- Node7 -->
<g id="Node000007" class="node">
<title>Node7</title>
<g id="a_Node000007"><a xlink:href="../../dd/d81/classTabSupervisor.html#a8074f0055d28b105a9cbebae8b1c7b25" target="_top" xlink:title=" ">
<polygon fill="white" stroke="#666666" points="949,-106.5 810,-106.5 810,-87.5 949,-87.5 949,-106.5"/>
<text text-anchor="middle" x="879.5" y="-94.5" font-family="Helvetica,sans-Serif" font-size="10.00">TabSupervisor::startLocal</text>
</a>
</g>
</g>
<!-- Node6&#45;&gt;Node7 -->
<g id="edge6_Node000006_Node000007" class="edge">
<title>Node6&#45;&gt;Node7</title>
<g id="a_edge6_Node000006_Node000007"><a xlink:title=" ">
<path fill="none" stroke="#63b8ff" d="M1013.4,-105.92C992.44,-104.52 969.8,-103 949.25,-101.62"/>
<polygon fill="#63b8ff" stroke="#63b8ff" points="1018.41,-106.26 1013.27,-108.17 1015.92,-106.09 1013.42,-105.93 1013.42,-105.93 1013.42,-105.93 1015.92,-106.09 1013.57,-103.68 1018.41,-106.26 1018.41,-106.26"/>
</a>
</g>
</g>
<!-- Node8 -->
<g id="Node000008" class="node">
<title>Node8</title>
<g id="a_Node000008"><a xlink:href="../../d6/d1a/classMainWindow.html#acc188a1a4b444b8690943b3693cdcf5c" target="_top" xlink:title=" ">
<polygon fill="white" stroke="#666666" points="750,-106.5 588,-106.5 588,-87.5 750,-87.5 750,-106.5"/>
<text text-anchor="middle" x="669" y="-94.5" font-family="Helvetica,sans-Serif" font-size="10.00">MainWindow::startLocalGame</text>
</a>
</g>
</g>
<!-- Node7&#45;&gt;Node8 -->
<g id="edge7_Node000007_Node000008" class="edge">
<title>Node7&#45;&gt;Node8</title>
<g id="a_edge7_Node000007_Node000008"><a xlink:title=" ">
<path fill="none" stroke="#63b8ff" d="M804.52,-97C786.92,-97 768.05,-97 750.19,-97"/>
<polygon fill="#63b8ff" stroke="#63b8ff" points="809.94,-97 804.94,-99.25 807.44,-97 804.94,-97 804.94,-97 804.94,-97 807.44,-97 804.94,-94.75 809.94,-97 809.94,-97"/>
</a>
</g>
</g>
<!-- Node9 -->
<g id="Node000009" class="node">
<title>Node9</title>
<g id="a_Node000009"><a xlink:href="../../d6/d1a/classMainWindow.html#a768b04557fe03b17592aa1c7d7e24255" target="_top" xlink:title=" ">
<polygon fill="white" stroke="#666666" points="545,-106.5 384,-106.5 384,-87.5 545,-87.5 545,-106.5"/>
<text text-anchor="middle" x="464.5" y="-94.5" font-family="Helvetica,sans-Serif" font-size="10.00">MainWindow::actSinglePlayer</text>
</a>
</g>
</g>
<!-- Node8&#45;&gt;Node9 -->
<g id="edge8_Node000008_Node000009" class="edge">
<title>Node8&#45;&gt;Node9</title>
<g id="a_edge8_Node000008_Node000009"><a xlink:title=" ">
<path fill="none" stroke="#63b8ff" d="M582.68,-97C570.28,-97 557.56,-97 545.28,-97"/>
<polygon fill="#63b8ff" stroke="#63b8ff" points="587.97,-97 582.97,-99.25 585.47,-97 582.97,-97 582.97,-97 582.97,-97 585.47,-97 582.97,-94.75 587.97,-97 587.97,-97"/>
</a>
</g>
</g>
<!-- Node12 -->
<g id="Node000012" class="node">
<title>Node12</title>
<g id="a_Node000012"><a xlink:href="../../d6/d1a/classMainWindow.html#ab9bcbb634d82332732230028d2e3f2f5" target="_top" xlink:title=" ">
<polygon fill="white" stroke="#666666" points="539.5,-69 389.5,-69 389.5,-39 539.5,-39 539.5,-69"/>
<text text-anchor="start" x="397.5" y="-57" font-family="Helvetica,sans-Serif" font-size="10.00">MainWindow::startupConfig</text>
<text text-anchor="middle" x="464.5" y="-46" font-family="Helvetica,sans-Serif" font-size="10.00">Check</text>
</a>
</g>
</g>
<!-- Node8&#45;&gt;Node12 -->
<g id="edge11_Node000008_Node000012" class="edge">
<title>Node8&#45;&gt;Node12</title>
<g id="a_edge11_Node000008_Node000012"><a xlink:title=" ">
<path fill="none" stroke="#63b8ff" d="M617.89,-86.36C593.24,-81.12 563.11,-74.73 536.17,-69.01"/>
<polygon fill="#63b8ff" stroke="#63b8ff" points="623.06,-87.46 617.7,-88.62 620.61,-86.94 618.17,-86.42 618.17,-86.42 618.17,-86.42 620.61,-86.94 618.64,-84.22 623.06,-87.46 623.06,-87.46"/>
</a>
</g>
</g>
<!-- Node10 -->
<g id="Node000010" class="node">
<title>Node10</title>
<g id="a_Node000010"><a xlink:href="../../d6/d1a/classMainWindow.html#a62cd8712fb41a754298f6f60eead2cb0" target="_top" xlink:title=" ">
<polygon fill="white" stroke="#666666" points="342,-106.5 190,-106.5 190,-87.5 342,-87.5 342,-106.5"/>
<text text-anchor="middle" x="266" y="-94.5" font-family="Helvetica,sans-Serif" font-size="10.00">MainWindow::createActions</text>
</a>
</g>
</g>
<!-- Node9&#45;&gt;Node10 -->
<g id="edge9_Node000009_Node000010" class="edge">
<title>Node9&#45;&gt;Node10</title>
<g id="a_edge9_Node000009_Node000010"><a xlink:title=" ">
<path fill="none" stroke="#63b8ff" d="M378.69,-97C366.59,-97 354.21,-97 342.3,-97"/>
<polygon fill="#63b8ff" stroke="#63b8ff" points="383.86,-97 378.86,-99.25 381.36,-97 378.86,-97 378.86,-97 378.86,-97 381.36,-97 378.86,-94.75 383.86,-97 383.86,-97"/>
</a>
</g>
</g>
<!-- Node11 -->
<g id="Node000011" class="node">
<title>Node11</title>
<g id="a_Node000011"><a xlink:href="../../d6/d1a/classMainWindow.html#a996c5a2b6f77944776856f08ec30858d" target="_top" xlink:title=" ">
<polygon fill="white" stroke="#666666" points="148,-106.5 0,-106.5 0,-87.5 148,-87.5 148,-106.5"/>
<text text-anchor="middle" x="74" y="-94.5" font-family="Helvetica,sans-Serif" font-size="10.00">MainWindow::MainWindow</text>
</a>
</g>
</g>
<!-- Node10&#45;&gt;Node11 -->
<g id="edge10_Node000010_Node000011" class="edge">
<title>Node10&#45;&gt;Node11</title>
<g id="a_edge10_Node000010_Node000011"><a xlink:title=" ">
<path fill="none" stroke="#63b8ff" d="M184.75,-97C172.66,-97 160.24,-97 148.31,-97"/>
<polygon fill="#63b8ff" stroke="#63b8ff" points="189.91,-97 184.91,-99.25 187.41,-97 184.91,-97 184.91,-97 184.91,-97 187.41,-97 184.91,-94.75 189.91,-97 189.91,-97"/>
</a>
</g>
</g>
<!-- Node12&#45;&gt;Node11 -->
<g id="edge12_Node000012_Node000011" class="edge">
<title>Node12&#45;&gt;Node11</title>
<g id="a_edge12_Node000012_Node000011"><a xlink:title=" ">
<path fill="none" stroke="#63b8ff" d="M384.44,-58.95C328.36,-62.91 251.39,-69.25 184,-78 164.38,-80.55 142.9,-84.12 124.24,-87.48"/>
<polygon fill="#63b8ff" stroke="#63b8ff" points="389.46,-58.6 384.63,-61.19 386.96,-58.77 384.47,-58.95 384.47,-58.95 384.47,-58.95 386.96,-58.77 384.31,-56.7 389.46,-58.6 389.46,-58.6"/>
</a>
</g>
</g>
<!-- Node14 -->
<g id="Node000014" class="node">
<title>Node14</title>
<g id="a_Node000014"><a xlink:href="../../dd/d81/classTabSupervisor.html#a784c7cca899e5060ae0fa7bb6ddb3d5c" target="_top" xlink:title=" ">
<polygon fill="white" stroke="#666666" points="953,-193 806,-193 806,-163 953,-163 953,-193"/>
<text text-anchor="start" x="814" y="-181" font-family="Helvetica,sans-Serif" font-size="10.00">TabSupervisor::actTabDeck</text>
<text text-anchor="middle" x="879.5" y="-170" font-family="Helvetica,sans-Serif" font-size="10.00">Storage</text>
</a>
</g>
</g>
<!-- Node13&#45;&gt;Node14 -->
<g id="edge14_Node000013_Node000014" class="edge">
<title>Node13&#45;&gt;Node14</title>
<g id="a_edge14_Node000013_Node000014"><a xlink:title=" ">
<path fill="none" stroke="#63b8ff" d="M1006.96,-166.48C989.17,-168.1 970.47,-169.8 953.08,-171.39"/>
<polygon fill="#63b8ff" stroke="#63b8ff" points="1011.95,-166.02 1007.18,-168.72 1009.46,-166.25 1006.98,-166.47 1006.98,-166.47 1006.98,-166.47 1009.46,-166.25 1006.77,-164.23 1011.95,-166.02 1011.95,-166.02"/>
</a>
</g>
</g>
<!-- Node15 -->
<g id="Node000015" class="node">
<title>Node15</title>
<g id="a_Node000015"><a xlink:href="../../dd/d81/classTabSupervisor.html#aee1c4492654fe6a12894135b5968b150" target="_top" xlink:title=" ">
<polygon fill="white" stroke="#666666" points="348,-143.5 184,-143.5 184,-124.5 348,-124.5 348,-143.5"/>
<text text-anchor="middle" x="266" y="-131.5" font-family="Helvetica,sans-Serif" font-size="10.00">TabSupervisor::initStartupTabs</text>
</a>
</g>
</g>
<!-- Node13&#45;&gt;Node15 -->
<g id="edge16_Node000013_Node000015" class="edge">
<title>Node13&#45;&gt;Node15</title>
<g id="a_edge16_Node000013_Node000015"><a xlink:title=" ">
<path fill="none" stroke="#63b8ff" d="M1006.9,-155.53C993.24,-154.99 979.22,-154.46 966,-154 742.45,-146.26 478.6,-139.3 348.26,-136.01"/>
<polygon fill="#63b8ff" stroke="#63b8ff" points="1011.91,-155.72 1006.82,-157.77 1009.41,-155.62 1006.91,-155.53 1006.91,-155.53 1006.91,-155.53 1009.41,-155.62 1007,-153.28 1011.91,-155.72 1011.91,-155.72"/>
</a>
</g>
</g>
<!-- Node14&#45;&gt;Node5 -->
<g id="edge15_Node000014_Node000005" class="edge">
<title>Node14&#45;&gt;Node5</title>
<g id="a_edge15_Node000014_Node000005"><a xlink:title=" ">
<path fill="none" stroke="#63b8ff" d="M800.64,-185.84C783.7,-187.55 765.75,-189.36 748.77,-191.07"/>
<polygon fill="#63b8ff" stroke="#63b8ff" points="805.87,-185.32 801.12,-188.06 803.38,-185.57 800.89,-185.82 800.89,-185.82 800.89,-185.82 803.38,-185.57 800.67,-183.58 805.87,-185.32 805.87,-185.32"/>
</a>
</g>
</g>
<!-- Node15&#45;&gt;Node11 -->
<g id="edge17_Node000015_Node000011" class="edge">
<title>Node15&#45;&gt;Node11</title>
<g id="a_edge17_Node000015_Node000011"><a xlink:title=" ">
<path fill="none" stroke="#63b8ff" d="M211.03,-123.49C183.68,-118.16 150.72,-111.75 124.09,-106.56"/>
<polygon fill="#63b8ff" stroke="#63b8ff" points="216.07,-124.47 210.73,-125.72 213.62,-123.99 211.16,-123.52 211.16,-123.52 211.16,-123.52 213.62,-123.99 211.59,-121.31 216.07,-124.47 216.07,-124.47"/>
</a>
</g>
</g>
<!-- Node17 -->
<g id="Node000017" class="node">
<title>Node17</title>
<g id="a_Node000017"><a xlink:href="../../de/df3/classTabEdhRecMain.html#aa3c717a93160bfca7003831c224734a3" target="_top" xlink:title=" ">
<polygon fill="white" stroke="#666666" points="966,-69.5 793,-69.5 793,-50.5 966,-50.5 966,-69.5"/>
<text text-anchor="middle" x="879.5" y="-57.5" font-family="Helvetica,sans-Serif" font-size="10.00">TabEdhRecMain::processApiJson</text>
</a>
</g>
</g>
<!-- Node16&#45;&gt;Node17 -->
<g id="edge19_Node000016_Node000017" class="edge">
<title>Node16&#45;&gt;Node17</title>
<g id="a_edge19_Node000016_Node000017"><a xlink:title=" ">
<path fill="none" stroke="#63b8ff" d="M996.78,-61.67C986.55,-61.53 976.17,-61.38 966.03,-61.23"/>
<polygon fill="#63b8ff" stroke="#63b8ff" points="1001.79,-61.75 996.75,-63.92 999.29,-61.71 996.79,-61.67 996.79,-61.67 996.79,-61.67 999.29,-61.71 996.82,-59.42 1001.79,-61.75 1001.79,-61.75"/>
</a>
</g>
</g>
<!-- Node18 -->
<g id="Node000018" class="node">
<title>Node18</title>
<g id="a_Node000018"><a xlink:href="../../de/df3/classTabEdhRecMain.html#a054d13a0cc2607423bbf05f1753c9f69" target="_top" xlink:title=" ">
<polygon fill="white" stroke="#666666" points="757,-69.5 581,-69.5 581,-50.5 757,-50.5 757,-69.5"/>
<text text-anchor="middle" x="669" y="-57.5" font-family="Helvetica,sans-Serif" font-size="10.00">TabEdhRecMain::TabEdhRecMain</text>
</a>
</g>
</g>
<!-- Node17&#45;&gt;Node18 -->
<g id="edge20_Node000017_Node000018" class="edge">
<title>Node17&#45;&gt;Node18</title>
<g id="a_edge20_Node000017_Node000018"><a xlink:title=" ">
<path fill="none" stroke="#63b8ff" d="M787.52,-60C777.41,-60 767.12,-60 757.06,-60"/>
<polygon fill="#63b8ff" stroke="#63b8ff" points="792.79,-60 787.79,-62.25 790.29,-60 787.79,-60 787.79,-60 787.79,-60 790.29,-60 787.79,-57.75 792.79,-60 792.79,-60"/>
</a>
</g>
</g>
</g>
</svg>

<g id="navigator" transform="translate(0 0)" fill="#404254">
  <rect fill="#f2f5e9" fill-opacity="0.5" stroke="#606060" stroke-width=".5" x="0" y="0" width="60" height="60"/>
  <use id="zoomplus" xlink:href="#zoomPlus" x="17" y="9" onmousedown="handleZoom(evt,'in')"/>
  <use id="zoomminus" xlink:href="#zoomMin" x="42" y="9" onmousedown="handleZoom(evt,'out')"/>
  <use id="reset" xlink:href="#resetDef" x="30" y="36" onmousedown="handleReset()"/>
   <use id="arrowup" xlink:href="#arrowUp" x="0" y="0" onmousedown="handlePan(0,-1)"/>
  <use id="arrowright" xlink:href="#arrowRight" x="0" y="0" onmousedown="handlePan(1,0)"/>
  <use id="arrowdown" xlink:href="#arrowDown" x="0" y="0" onmousedown="handlePan(0,1)"/>
  <use id="arrowleft" xlink:href="#arrowLeft" x="0" y="0" onmousedown="handlePan(-1,0)"/>
</g>
<svg viewBox="0 0 15 15" width="100%" height="30px" preserveAspectRatio="xMaxYMin meet">
 <g id="arrow_out" transform="scale(0.3 0.3)">
  <a xlink:href="classTabSupervisor_ab80a432530cad4202e61b0f6e9162c89_icgraph_org.svg" target="_base">
   <rect id="button" ry="5" rx="5" y="6" x="6" height="38" width="38"
        fill="#f2f5e9" fill-opacity="0.5" stroke="#606060" stroke-width="1.0"/>
   <path id="arrow"
     d="M 11.500037,31.436501 C 11.940474,20.09759 22.043105,11.32322 32.158766,21.979434 L 37.068811,17.246167 C 37.068811,17.246167 37.088388,32 37.088388,32 L 22.160133,31.978069 C 22.160133,31.978069 26.997745,27.140456 26.997745,27.140456 C 18.528582,18.264221 13.291696,25.230495 11.500037,31.436501 z"
     style="fill:#404040;"/>
  </a>
 </g>
</svg>

<style type='text/css'>
<![CDATA[
[data-mouse-over-selected='false'] { opacity: 0.7; }
[data-mouse-over-selected='true']  { opacity: 1.0; }
]]>
</style>
<script type="application/ecmascript"><![CDATA[
document.addEventListener('DOMContentLoaded', (event) => {
  highlightEdges();
  highlightAdjacentNodes();
});
]]></script>
</svg>
