<?xml version="1.0" encoding="UTF-8" standalone="no"?>
<!DOCTYPE svg PUBLIC "-//W3C//DTD SVG 1.1//EN"
 "http://www.w3.org/Graphics/SVG/1.1/DTD/svg11.dtd">
<!-- Generated by graphviz version 2.43.0 (0)
 -->
<!-- Title: common/server/server.h Pages: 1 -->
<!--zoomable 93 -->

<svg id="main" version="1.1" xmlns="http://www.w3.org/2000/svg" xmlns:xlink="http://www.w3.org/1999/xlink" xml:space="preserve" onload="init(evt)">
<style type="text/css"><![CDATA[
.node, .edge {opacity: 0.7;}
.node.selected, .edge.selected {opacity: 1;}
.edge:hover path { stroke: red; }
.edge:hover polygon { stroke: red; fill: red; }
]]></style>

<defs>
  <circle id="rim" cx="0" cy="0" r="7"/>
  <circle id="rim2" cx="0" cy="0" r="3.5"/>
  <g id="zoomPlus">
    <use xlink:href="#rim" fill="#404040"><set attributeName="fill" to="#808080" begin="zoomplus.mouseover" end="zoomplus.mouseout"/></use>
    <path d="M-4,0h8M0,-4v8" fill="none" stroke="white" stroke-width="1.5" pointer-events="none"/>
  </g>
  <g id="zoomMin">
    <use xlink:href="#rim" fill="#404040"><set attributeName="fill" to="#808080" begin="zoomminus.mouseover" end="zoomminus.mouseout"/></use>
    <path d="M-4,0h8" fill="none" stroke="white" stroke-width="1.5" pointer-events="none"/>
  </g>
  <g id="arrowUp" transform="translate(30 24)">
    <use xlink:href="#rim"/>
    <path pointer-events="none" fill="none" stroke="white" stroke-width="1.5" d="M0,-3.0v7 M-2.5,-0.5L0,-3.0L2.5,-0.5"/>
  </g>
  <g id="arrowRight" transform="rotate(90) translate(36 -43)">
    <use xlink:href="#rim"/>
    <path pointer-events="none" fill="none" stroke="white" stroke-width="1.5" d="M0,-3.0v7 M-2.5,-0.5L0,-3.0L2.5,-0.5"/>
  </g>
  <g id="arrowDown" transform="rotate(180) translate(-30 -48)">
    <use xlink:href="#rim"/>
    <path pointer-events="none" fill="none" stroke="white" stroke-width="1.5" d="M0,-3.0v7 M-2.5,-0.5L0,-3.0L2.5,-0.5"/>
  </g>
  <g id="arrowLeft" transform="rotate(270) translate(-36 17)">
    <use xlink:href="#rim"/>
    <path pointer-events="none" fill="none" stroke="white" stroke-width="1.5" d="M0,-3.0v7 M-2.5,-0.5L0,-3.0L2.5,-0.5"/>
  </g>
  <g id="resetDef">
    <use xlink:href="#rim2" fill="#404040"><set attributeName="fill" to="#808080" begin="reset.mouseover" end="reset.mouseout"/></use>
  </g>
</defs>
<script type="application/ecmascript">
var viewWidth = 1372;
var viewHeight = 93;
var sectionId = 'dynsection-0';
</script>
<script type="application/ecmascript" xlink:href="../../svg.min.js"/>
<svg id="graph" class="graph">
<g id="viewport">
<title>common/server/server.h</title>
<!-- Node1 -->
<g id="Node000001" class="node">
<title>Node1</title>
<g id="a_Node000001"><a xlink:title=" ">
<polygon fill="#999999" stroke="#666666" points="911.5,-85 776.5,-85 776.5,-66 911.5,-66 911.5,-85"/>
<text text-anchor="middle" x="844" y="-73" font-family="Helvetica,sans-Serif" font-size="10.00">common/server/server.h</text>
</a>
</g>
</g>
<!-- Node2 -->
<g id="Node000002" class="node">
<title>Node2</title>
<g id="a_Node000002"><a xlink:title=" ">
<polygon fill="#e0e0e0" stroke="#999999" points="110,-24.5 0,-24.5 0,-5.5 110,-5.5 110,-24.5"/>
<text text-anchor="middle" x="55" y="-12.5" font-family="Helvetica,sans-Serif" font-size="10.00">pb/commands.pb.h</text>
</a>
</g>
</g>
<!-- Node1&#45;&gt;Node2 -->
<g id="edge1_Node000001_Node000002" class="edge">
<title>Node1&#45;&gt;Node2</title>
<g id="a_edge1_Node000001_Node000002"><a xlink:title=" ">
<path fill="none" stroke="#63b8ff" d="M776.44,-73.82C647.84,-71.76 359.28,-63.45 119,-30 110.98,-28.88 102.46,-27.3 94.36,-25.61"/>
<polygon fill="#63b8ff" stroke="#63b8ff" points="89.37,-24.54 94.73,-23.39 91.81,-25.06 94.26,-25.59 94.26,-25.59 94.26,-25.59 91.81,-25.06 93.79,-27.79 89.37,-24.54 89.37,-24.54"/>
</a>
</g>
</g>
<!-- Node3 -->
<g id="Node000003" class="node">
<title>Node3</title>
<g id="a_Node000003"><a xlink:title=" ">
<polygon fill="#e0e0e0" stroke="#999999" points="256,-24.5 128,-24.5 128,-5.5 256,-5.5 256,-24.5"/>
<text text-anchor="middle" x="192" y="-12.5" font-family="Helvetica,sans-Serif" font-size="10.00">pb/serverinfo_ban.pb.h</text>
</a>
</g>
</g>
<!-- Node1&#45;&gt;Node3 -->
<g id="edge2_Node000001_Node000003" class="edge">
<title>Node1&#45;&gt;Node3</title>
<g id="a_edge2_Node000001_Node000003"><a xlink:title=" ">
<path fill="none" stroke="#63b8ff" d="M776.44,-71.78C668.13,-66.87 449.11,-54.65 265,-30 255.93,-28.79 246.29,-27.17 237.09,-25.47"/>
<polygon fill="#63b8ff" stroke="#63b8ff" points="232.03,-24.52 237.36,-23.23 234.49,-24.98 236.94,-25.44 236.94,-25.44 236.94,-25.44 234.49,-24.98 236.53,-27.65 232.03,-24.52 232.03,-24.52"/>
</a>
</g>
</g>
<!-- Node4 -->
<g id="Node000004" class="node">
<title>Node4</title>
<g id="a_Node000004"><a xlink:title=" ">
<polygon fill="#e0e0e0" stroke="#999999" points="381.5,-30 274.5,-30 274.5,0 381.5,0 381.5,-30"/>
<text text-anchor="start" x="282.5" y="-18" font-family="Helvetica,sans-Serif" font-size="10.00">pb/serverinfo_chat</text>
<text text-anchor="middle" x="328" y="-7" font-family="Helvetica,sans-Serif" font-size="10.00">_message.pb.h</text>
</a>
</g>
</g>
<!-- Node1&#45;&gt;Node4 -->
<g id="edge3_Node000001_Node000004" class="edge">
<title>Node1&#45;&gt;Node4</title>
<g id="a_edge3_Node000001_Node000004"><a xlink:title=" ">
<path fill="none" stroke="#63b8ff" d="M776.36,-70.51C687.35,-64.65 526.24,-51.97 390,-30 388.89,-29.82 387.78,-29.64 386.65,-29.44"/>
<polygon fill="#63b8ff" stroke="#63b8ff" points="381.69,-28.55 387.01,-27.22 384.15,-28.99 386.61,-29.43 386.61,-29.43 386.61,-29.43 384.15,-28.99 386.21,-31.65 381.69,-28.55 381.69,-28.55"/>
</a>
</g>
</g>
<!-- Node5 -->
<g id="Node000005" class="node">
<title>Node5</title>
<g id="a_Node000005"><a xlink:title=" ">
<polygon fill="#e0e0e0" stroke="#999999" points="530.5,-24.5 399.5,-24.5 399.5,-5.5 530.5,-5.5 530.5,-24.5"/>
<text text-anchor="middle" x="465" y="-12.5" font-family="Helvetica,sans-Serif" font-size="10.00">pb/serverinfo_user.pb.h</text>
</a>
</g>
</g>
<!-- Node1&#45;&gt;Node5 -->
<g id="edge4_Node000001_Node000005" class="edge">
<title>Node1&#45;&gt;Node5</title>
<g id="a_edge4_Node000001_Node000005"><a xlink:title=" ">
<path fill="none" stroke="#63b8ff" d="M780.2,-65.99C718.41,-57.56 622.12,-43.92 539,-30 530.78,-28.62 522.06,-27.06 513.6,-25.5"/>
<polygon fill="#63b8ff" stroke="#63b8ff" points="508.38,-24.52 513.71,-23.23 510.84,-24.98 513.29,-25.44 513.29,-25.44 513.29,-25.44 510.84,-24.98 512.88,-27.65 508.38,-24.52 508.38,-24.52"/>
</a>
</g>
</g>
<!-- Node6 -->
<g id="Node000006" class="node">
<title>Node6</title>
<g id="a_Node000006"><a xlink:title=" ">
<polygon fill="#e0e0e0" stroke="#999999" points="697.5,-24.5 548.5,-24.5 548.5,-5.5 697.5,-5.5 697.5,-24.5"/>
<text text-anchor="middle" x="623" y="-12.5" font-family="Helvetica,sans-Serif" font-size="10.00">pb/serverinfo_warning.pb.h</text>
</a>
</g>
</g>
<!-- Node1&#45;&gt;Node6 -->
<g id="edge5_Node000001_Node000006" class="edge">
<title>Node1&#45;&gt;Node6</title>
<g id="a_edge5_Node000001_Node000006"><a xlink:title=" ">
<path fill="none" stroke="#63b8ff" d="M811.86,-65.99C771.6,-55.34 702.74,-37.11 660.22,-25.85"/>
<polygon fill="#63b8ff" stroke="#63b8ff" points="655.17,-24.52 660.58,-23.62 657.59,-25.16 660.01,-25.8 660.01,-25.8 660.01,-25.8 657.59,-25.16 659.43,-27.97 655.17,-24.52 655.17,-24.52"/>
</a>
</g>
</g>
<!-- Node7 -->
<g id="Node000007" class="node">
<title>Node7</title>
<g id="a_Node000007"><a xlink:href="../../dc/d93/server__player__reference_8h.html" target="_top" xlink:title=" ">
<polygon fill="white" stroke="#666666" points="860,-24.5 716,-24.5 716,-5.5 860,-5.5 860,-24.5"/>
<text text-anchor="middle" x="788" y="-12.5" font-family="Helvetica,sans-Serif" font-size="10.00">server_player_reference.h</text>
</a>
</g>
</g>
<!-- Node1&#45;&gt;Node7 -->
<g id="edge6_Node000001_Node000007" class="edge">
<title>Node1&#45;&gt;Node7</title>
<g id="a_edge6_Node000001_Node000007"><a xlink:title=" ">
<path fill="none" stroke="#63b8ff" d="M835.74,-65.87C826.31,-56.02 810.8,-39.82 800.03,-28.57"/>
<polygon fill="#63b8ff" stroke="#63b8ff" points="796.3,-24.67 801.38,-26.72 798.03,-26.47 799.75,-28.28 799.75,-28.28 799.75,-28.28 798.03,-26.47 798.13,-29.84 796.3,-24.67 796.3,-24.67"/>
</a>
</g>
</g>
<!-- Node8 -->
<g id="Node000008" class="node">
<title>Node8</title>
<g id="a_Node000008"><a xlink:title=" ">
<polygon fill="#e0e0e0" stroke="#999999" points="923.5,-24.5 878.5,-24.5 878.5,-5.5 923.5,-5.5 923.5,-24.5"/>
<text text-anchor="middle" x="901" y="-12.5" font-family="Helvetica,sans-Serif" font-size="10.00">QMap</text>
</a>
</g>
</g>
<!-- Node1&#45;&gt;Node8 -->
<g id="edge7_Node000001_Node000008" class="edge">
<title>Node1&#45;&gt;Node8</title>
<g id="a_edge7_Node000001_Node000008"><a xlink:title=" ">
<path fill="none" stroke="#63b8ff" d="M852.41,-65.87C862.09,-55.93 878.07,-39.53 889.04,-28.27"/>
<polygon fill="#63b8ff" stroke="#63b8ff" points="892.55,-24.67 890.68,-29.82 890.81,-26.46 889.07,-28.25 889.07,-28.25 889.07,-28.25 890.81,-26.46 887.45,-26.68 892.55,-24.67 892.55,-24.67"/>
</a>
</g>
</g>
<!-- Node9 -->
<g id="Node000009" class="node">
<title>Node9</title>
<g id="a_Node000009"><a xlink:title=" ">
<polygon fill="#e0e0e0" stroke="#999999" points="1012,-24.5 942,-24.5 942,-5.5 1012,-5.5 1012,-24.5"/>
<text text-anchor="middle" x="977" y="-12.5" font-family="Helvetica,sans-Serif" font-size="10.00">QMultiMap</text>
</a>
</g>
</g>
<!-- Node1&#45;&gt;Node9 -->
<g id="edge8_Node000001_Node000009" class="edge">
<title>Node1&#45;&gt;Node9</title>
<g id="a_edge8_Node000001_Node000009"><a xlink:title=" ">
<path fill="none" stroke="#63b8ff" d="M863.34,-65.99C887.08,-55.55 927.33,-37.85 953.02,-26.55"/>
<polygon fill="#63b8ff" stroke="#63b8ff" points="957.64,-24.52 953.97,-28.59 955.35,-25.52 953.06,-26.53 953.06,-26.53 953.06,-26.53 955.35,-25.52 952.15,-24.47 957.64,-24.52 957.64,-24.52"/>
</a>
</g>
</g>
<!-- Node10 -->
<g id="Node000010" class="node">
<title>Node10</title>
<g id="a_Node000010"><a xlink:title=" ">
<polygon fill="#e0e0e0" stroke="#999999" points="1085.5,-24.5 1030.5,-24.5 1030.5,-5.5 1085.5,-5.5 1085.5,-24.5"/>
<text text-anchor="middle" x="1058" y="-12.5" font-family="Helvetica,sans-Serif" font-size="10.00">QMutex</text>
</a>
</g>
</g>
<!-- Node1&#45;&gt;Node10 -->
<g id="edge9_Node000001_Node000010" class="edge">
<title>Node1&#45;&gt;Node10</title>
<g id="a_edge9_Node000001_Node000010"><a xlink:title=" ">
<path fill="none" stroke="#63b8ff" d="M883.38,-65.97C919.49,-57.83 974.29,-44.65 1021,-30 1024.51,-28.9 1028.18,-27.64 1031.78,-26.35"/>
<polygon fill="#63b8ff" stroke="#63b8ff" points="1036.62,-24.57 1032.71,-28.4 1034.28,-25.43 1031.93,-26.29 1031.93,-26.29 1031.93,-26.29 1034.28,-25.43 1031.16,-24.18 1036.62,-24.57 1036.62,-24.57"/>
</a>
</g>
</g>
<!-- Node11 -->
<g id="Node000011" class="node">
<title>Node11</title>
<g id="a_Node000011"><a xlink:title=" ">
<polygon fill="#e0e0e0" stroke="#999999" points="1160,-24.5 1104,-24.5 1104,-5.5 1160,-5.5 1160,-24.5"/>
<text text-anchor="middle" x="1132" y="-12.5" font-family="Helvetica,sans-Serif" font-size="10.00">QObject</text>
</a>
</g>
</g>
<!-- Node1&#45;&gt;Node11 -->
<g id="edge10_Node000001_Node000011" class="edge">
<title>Node1&#45;&gt;Node11</title>
<g id="a_edge10_Node000001_Node000011"><a xlink:title=" ">
<path fill="none" stroke="#63b8ff" d="M911.61,-66C962.57,-58.75 1033.88,-46.82 1095,-30 1098.82,-28.95 1102.79,-27.66 1106.66,-26.3"/>
<polygon fill="#63b8ff" stroke="#63b8ff" points="1111.48,-24.54 1107.55,-28.37 1109.13,-25.4 1106.78,-26.25 1106.78,-26.25 1106.78,-26.25 1109.13,-25.4 1106.01,-24.14 1111.48,-24.54 1111.48,-24.54"/>
</a>
</g>
</g>
<!-- Node12 -->
<g id="Node000012" class="node">
<title>Node12</title>
<g id="a_Node000012"><a xlink:title=" ">
<polygon fill="#e0e0e0" stroke="#999999" points="1276,-24.5 1178,-24.5 1178,-5.5 1276,-5.5 1276,-24.5"/>
<text text-anchor="middle" x="1227" y="-12.5" font-family="Helvetica,sans-Serif" font-size="10.00">QReadWriteLock</text>
</a>
</g>
</g>
<!-- Node1&#45;&gt;Node12 -->
<g id="edge11_Node000001_Node000012" class="edge">
<title>Node1&#45;&gt;Node12</title>
<g id="a_edge11_Node000001_Node000012"><a xlink:title=" ">
<path fill="none" stroke="#63b8ff" d="M911.54,-67.26C977.5,-59.72 1080.58,-46.68 1169,-30 1175.57,-28.76 1182.51,-27.26 1189.23,-25.7"/>
<polygon fill="#63b8ff" stroke="#63b8ff" points="1194.3,-24.5 1189.95,-27.84 1191.87,-25.08 1189.44,-25.65 1189.44,-25.65 1189.44,-25.65 1191.87,-25.08 1188.92,-23.46 1194.3,-24.5 1194.3,-24.5"/>
</a>
</g>
</g>
<!-- Node13 -->
<g id="Node000013" class="node">
<title>Node13</title>
<g id="a_Node000013"><a xlink:title=" ">
<polygon fill="#e0e0e0" stroke="#999999" points="1364,-24.5 1294,-24.5 1294,-5.5 1364,-5.5 1364,-24.5"/>
<text text-anchor="middle" x="1329" y="-12.5" font-family="Helvetica,sans-Serif" font-size="10.00">QStringList</text>
</a>
</g>
</g>
<!-- Node1&#45;&gt;Node13 -->
<g id="edge12_Node000001_Node000013" class="edge">
<title>Node1&#45;&gt;Node13</title>
<g id="a_edge12_Node000001_Node000013"><a xlink:title=" ">
<path fill="none" stroke="#63b8ff" d="M911.53,-72.04C998.63,-67.87 1154.45,-57.05 1285,-30 1289.95,-28.98 1295.12,-27.61 1300.11,-26.13"/>
<polygon fill="#63b8ff" stroke="#63b8ff" points="1305.03,-24.62 1300.91,-28.24 1302.64,-25.35 1300.25,-26.08 1300.25,-26.08 1300.25,-26.08 1302.64,-25.35 1299.59,-23.93 1305.03,-24.62 1305.03,-24.62"/>
</a>
</g>
</g>
</g>
</svg>

<g id="navigator" transform="translate(0 0)" fill="#404254">
  <rect fill="#f2f5e9" fill-opacity="0.5" stroke="#606060" stroke-width=".5" x="0" y="0" width="60" height="60"/>
  <use id="zoomplus" xlink:href="#zoomPlus" x="17" y="9" onmousedown="handleZoom(evt,'in')"/>
  <use id="zoomminus" xlink:href="#zoomMin" x="42" y="9" onmousedown="handleZoom(evt,'out')"/>
  <use id="reset" xlink:href="#resetDef" x="30" y="36" onmousedown="handleReset()"/>
   <use id="arrowup" xlink:href="#arrowUp" x="0" y="0" onmousedown="handlePan(0,-1)"/>
  <use id="arrowright" xlink:href="#arrowRight" x="0" y="0" onmousedown="handlePan(1,0)"/>
  <use id="arrowdown" xlink:href="#arrowDown" x="0" y="0" onmousedown="handlePan(0,1)"/>
  <use id="arrowleft" xlink:href="#arrowLeft" x="0" y="0" onmousedown="handlePan(-1,0)"/>
</g>
<svg viewBox="0 0 15 15" width="100%" height="30px" preserveAspectRatio="xMaxYMin meet">
 <g id="arrow_out" transform="scale(0.3 0.3)">
  <a xlink:href="server_8h__incl_org.svg" target="_base">
   <rect id="button" ry="5" rx="5" y="6" x="6" height="38" width="38"
        fill="#f2f5e9" fill-opacity="0.5" stroke="#606060" stroke-width="1.0"/>
   <path id="arrow"
     d="M 11.500037,31.436501 C 11.940474,20.09759 22.043105,11.32322 32.158766,21.979434 L 37.068811,17.246167 C 37.068811,17.246167 37.088388,32 37.088388,32 L 22.160133,31.978069 C 22.160133,31.978069 26.997745,27.140456 26.997745,27.140456 C 18.528582,18.264221 13.291696,25.230495 11.500037,31.436501 z"
     style="fill:#404040;"/>
  </a>
 </g>
</svg>

<style type='text/css'>
<![CDATA[
[data-mouse-over-selected='false'] { opacity: 0.7; }
[data-mouse-over-selected='true']  { opacity: 1.0; }
]]>
</style>
<script type="application/ecmascript"><![CDATA[
document.addEventListener('DOMContentLoaded', (event) => {
  highlightEdges();
  highlightAdjacentNodes();
});
]]></script>
</svg>
