<?xml version="1.0" encoding="UTF-8" standalone="no"?>
<!DOCTYPE svg PUBLIC "-//W3C//DTD SVG 1.1//EN"
 "http://www.w3.org/Graphics/SVG/1.1/DTD/svg11.dtd">
<!-- Generated by graphviz version 2.43.0 (0)
 -->
<!-- Title: CardZoneLogic::CardZoneLogic Pages: 1 -->
<svg width="364pt" height="38pt"
 viewBox="0.00 0.00 364.00 38.00" xmlns="http://www.w3.org/2000/svg" xmlns:xlink="http://www.w3.org/1999/xlink">
<g id="graph0" class="graph" transform="scale(1 1) rotate(0) translate(4 34)">
<title>CardZoneLogic::CardZoneLogic</title>
<!-- Node1 -->
<g id="Node000001" class="node">
<title>Node1</title>
<g id="a_Node000001"><a xlink:title=" ">
<polygon fill="#999999" stroke="#666666" points="168,-24.5 0,-24.5 0,-5.5 168,-5.5 168,-24.5"/>
<text text-anchor="middle" x="84" y="-12.5" font-family="Helvetica,sans-Serif" font-size="10.00">CardZoneLogic::CardZoneLogic</text>
</a>
</g>
</g>
<!-- Node2 -->
<g id="Node000002" class="node">
<title>Node2</title>
<g id="a_Node000002"><a xlink:href="../../d1/df9/classCardZoneLogic.html#a063ca808a9c35e118daac9fb8f9a9cb4" target="_top" xlink:title=" ">
<polygon fill="white" stroke="#666666" points="356,-30 204,-30 204,0 356,0 356,-30"/>
<text text-anchor="start" x="212" y="-18" font-family="Helvetica,sans-Serif" font-size="10.00">CardZoneLogic::refreshCard</text>
<text text-anchor="middle" x="280" y="-7" font-family="Helvetica,sans-Serif" font-size="10.00">Infos</text>
</a>
</g>
</g>
<!-- Node1&#45;&gt;Node2 -->
<g id="edge1_Node000001_Node000002" class="edge">
<title>Node1&#45;&gt;Node2</title>
<g id="a_edge1_Node000001_Node000002"><a xlink:title=" ">
<path fill="none" stroke="#63b8ff" d="M168.12,-15C178.19,-15 188.46,-15 198.5,-15"/>
<polygon fill="#63b8ff" stroke="#63b8ff" points="203.72,-15 198.72,-17.25 201.22,-15 198.72,-15 198.72,-15 198.72,-15 201.22,-15 198.72,-12.75 203.72,-15 203.72,-15"/>
</a>
</g>
</g>
</g>
</svg>
