<?xml version="1.0" encoding="UTF-8" standalone="no"?>
<!DOCTYPE svg PUBLIC "-//W3C//DTD SVG 1.1//EN"
 "http://www.w3.org/Graphics/SVG/1.1/DTD/svg11.dtd">
<!-- Generated by graphviz version 2.43.0 (0)
 -->
<!-- Title: CardZoneLogic::getTranslatedName Pages: 1 -->
<!--zoomable 210 -->

<svg id="main" version="1.1" xmlns="http://www.w3.org/2000/svg" xmlns:xlink="http://www.w3.org/1999/xlink" xml:space="preserve" onload="init(evt)">

<style type="text/css"><![CDATA[
.node, .edge {opacity: 0.7;}
.node.selected, .edge.selected {opacity: 1;}
.edge:hover path { stroke: red; }
.edge:hover polygon { stroke: red; fill: red; }
]]></style>

<defs>
  <circle id="rim" cx="0" cy="0" r="7"/>
  <circle id="rim2" cx="0" cy="0" r="3.5"/>
  <g id="zoomPlus">
    <use xlink:href="#rim" fill="#404040"><set attributeName="fill" to="#808080" begin="zoomplus.mouseover" end="zoomplus.mouseout"/></use>
    <path d="M-4,0h8M0,-4v8" fill="none" stroke="white" stroke-width="1.5" pointer-events="none"/>
  </g>
  <g id="zoomMin">
    <use xlink:href="#rim" fill="#404040"><set attributeName="fill" to="#808080" begin="zoomminus.mouseover" end="zoomminus.mouseout"/></use>
    <path d="M-4,0h8" fill="none" stroke="white" stroke-width="1.5" pointer-events="none"/>
  </g>
  <g id="arrowUp" transform="translate(30 24)">
    <use xlink:href="#rim"/>
    <path pointer-events="none" fill="none" stroke="white" stroke-width="1.5" d="M0,-3.0v7 M-2.5,-0.5L0,-3.0L2.5,-0.5"/>
  </g>
  <g id="arrowRight" transform="rotate(90) translate(36 -43)">
    <use xlink:href="#rim"/>
    <path pointer-events="none" fill="none" stroke="white" stroke-width="1.5" d="M0,-3.0v7 M-2.5,-0.5L0,-3.0L2.5,-0.5"/>
  </g>
  <g id="arrowDown" transform="rotate(180) translate(-30 -48)">
    <use xlink:href="#rim"/>
    <path pointer-events="none" fill="none" stroke="white" stroke-width="1.5" d="M0,-3.0v7 M-2.5,-0.5L0,-3.0L2.5,-0.5"/>
  </g>
  <g id="arrowLeft" transform="rotate(270) translate(-36 17)">
    <use xlink:href="#rim"/>
    <path pointer-events="none" fill="none" stroke="white" stroke-width="1.5" d="M0,-3.0v7 M-2.5,-0.5L0,-3.0L2.5,-0.5"/>
  </g>
  <g id="resetDef">
    <use xlink:href="#rim2" fill="#404040"><set attributeName="fill" to="#808080" begin="reset.mouseover" end="reset.mouseout"/></use>
  </g>
</defs>
<script type="application/ecmascript">
var viewWidth = 614;
var viewHeight = 210;
var sectionId = 'dynsection-17';
</script>
<script type="application/ecmascript" xlink:href="../../svg.min.js"/>
<svg id="graph" class="graph">
<g id="viewport">
<title>CardZoneLogic::getTranslatedName</title>
<!-- Node1 -->
<g id="Node000001" class="node">
<title>Node1</title>
<g id="a_Node000001"><a xlink:title=" ">
<polygon fill="#999999" stroke="#666666" points="606,-105 415,-105 415,-86 606,-86 606,-105"/>
<text text-anchor="middle" x="510.5" y="-93" font-family="Helvetica,sans-Serif" font-size="10.00">CardZoneLogic::getTranslatedName</text>
</a>
</g>
</g>
<!-- Node2 -->
<g id="Node000002" class="node">
<title>Node2</title>
<g id="a_Node000002"><a xlink:href="../../d7/d93/classMessageLogWidget.html#a0ab5e387a1f9f41a4846691518eb14dd" target="_top" xlink:title=" ">
<polygon fill="white" stroke="#666666" points="369.5,-201.5 201.5,-201.5 201.5,-171.5 369.5,-171.5 369.5,-201.5"/>
<text text-anchor="start" x="209.5" y="-189.5" font-family="Helvetica,sans-Serif" font-size="10.00">MessageLogWidget::logAlways</text>
<text text-anchor="middle" x="285.5" y="-178.5" font-family="Helvetica,sans-Serif" font-size="10.00">LookAtTopCard</text>
</a>
</g>
</g>
<!-- Node1&#45;&gt;Node2 -->
<g id="edge1_Node000001_Node000002" class="edge">
<title>Node1&#45;&gt;Node2</title>
<g id="a_edge1_Node000001_Node000002"><a xlink:title=" ">
<path fill="none" stroke="#63b8ff" d="M489.08,-107.78C463.94,-122.48 419.55,-147.05 379,-162.5 370.47,-165.75 361.34,-168.71 352.26,-171.36"/>
<polygon fill="#63b8ff" stroke="#63b8ff" points="493.55,-105.16 490.38,-109.63 491.4,-106.42 489.24,-107.69 489.24,-107.69 489.24,-107.69 491.4,-106.42 488.1,-105.75 493.55,-105.16 493.55,-105.16"/>
</a>
</g>
</g>
<!-- Node4 -->
<g id="Node000004" class="node">
<title>Node4</title>
<g id="a_Node000004"><a xlink:href="../../d7/d93/classMessageLogWidget.html#a33958d49f8aa5342767139b23aff8c32" target="_top" xlink:title=" ">
<polygon fill="white" stroke="#666666" points="369.5,-153.5 201.5,-153.5 201.5,-123.5 369.5,-123.5 369.5,-153.5"/>
<text text-anchor="start" x="209.5" y="-141.5" font-family="Helvetica,sans-Serif" font-size="10.00">MessageLogWidget::logAlways</text>
<text text-anchor="middle" x="285.5" y="-130.5" font-family="Helvetica,sans-Serif" font-size="10.00">RevealTopCard</text>
</a>
</g>
</g>
<!-- Node1&#45;&gt;Node4 -->
<g id="edge3_Node000001_Node000004" class="edge">
<title>Node1&#45;&gt;Node4</title>
<g id="a_edge3_Node000001_Node000004"><a xlink:title=" ">
<path fill="none" stroke="#63b8ff" d="M454.99,-106.01C427.73,-111.27 394.24,-117.73 364.32,-123.49"/>
<polygon fill="#63b8ff" stroke="#63b8ff" points="460.01,-105.04 455.53,-108.2 457.55,-105.52 455.1,-105.99 455.1,-105.99 455.1,-105.99 457.55,-105.52 454.67,-103.78 460.01,-105.04 460.01,-105.04"/>
</a>
</g>
</g>
<!-- Node5 -->
<g id="Node000005" class="node">
<title>Node5</title>
<g id="a_Node000005"><a xlink:href="../../d7/d93/classMessageLogWidget.html#a483f144a34f2fc032bf9152548a2fd17" target="_top" xlink:title=" ">
<polygon fill="white" stroke="#666666" points="379,-105 192,-105 192,-86 379,-86 379,-105"/>
<text text-anchor="middle" x="285.5" y="-93" font-family="Helvetica,sans-Serif" font-size="10.00">MessageLogWidget::logDumpZone</text>
</a>
</g>
</g>
<!-- Node1&#45;&gt;Node5 -->
<g id="edge5_Node000001_Node000005" class="edge">
<title>Node1&#45;&gt;Node5</title>
<g id="a_edge5_Node000001_Node000005"><a xlink:title=" ">
<path fill="none" stroke="#63b8ff" d="M409.91,-95.5C399.65,-95.5 389.26,-95.5 379.08,-95.5"/>
<polygon fill="#63b8ff" stroke="#63b8ff" points="414.93,-95.5 409.93,-97.75 412.43,-95.5 409.93,-95.5 409.93,-95.5 409.93,-95.5 412.43,-95.5 409.93,-93.25 414.93,-95.5 414.93,-95.5"/>
</a>
</g>
</g>
<!-- Node6 -->
<g id="Node000006" class="node">
<title>Node6</title>
<g id="a_Node000006"><a xlink:href="../../d7/d93/classMessageLogWidget.html#a9621aaa17f5aa886d2b28ad353f9112b" target="_top" xlink:title=" ">
<polygon fill="white" stroke="#666666" points="369,-67.5 202,-67.5 202,-37.5 369,-37.5 369,-67.5"/>
<text text-anchor="start" x="210" y="-55.5" font-family="Helvetica,sans-Serif" font-size="10.00">MessageLogWidget::logReveal</text>
<text text-anchor="middle" x="285.5" y="-44.5" font-family="Helvetica,sans-Serif" font-size="10.00">Cards</text>
</a>
</g>
</g>
<!-- Node1&#45;&gt;Node6 -->
<g id="edge7_Node000001_Node000006" class="edge">
<title>Node1&#45;&gt;Node6</title>
<g id="a_edge7_Node000001_Node000006"><a xlink:title=" ">
<path fill="none" stroke="#63b8ff" d="M454.99,-84.99C427.73,-79.73 394.24,-73.27 364.32,-67.51"/>
<polygon fill="#63b8ff" stroke="#63b8ff" points="460.01,-85.96 454.67,-87.22 457.55,-85.48 455.1,-85.01 455.1,-85.01 455.1,-85.01 457.55,-85.48 455.53,-82.8 460.01,-85.96 460.01,-85.96"/>
</a>
</g>
</g>
<!-- Node7 -->
<g id="Node000007" class="node">
<title>Node7</title>
<g id="a_Node000007"><a xlink:href="../../d7/d93/classMessageLogWidget.html#ae45a0f501601d4365668978b4f1660fd" target="_top" xlink:title=" ">
<polygon fill="white" stroke="#666666" points="369,-19 202,-19 202,0 369,0 369,-19"/>
<text text-anchor="middle" x="285.5" y="-7" font-family="Helvetica,sans-Serif" font-size="10.00">MessageLogWidget::logShuffle</text>
</a>
</g>
</g>
<!-- Node1&#45;&gt;Node7 -->
<g id="edge9_Node000001_Node000007" class="edge">
<title>Node1&#45;&gt;Node7</title>
<g id="a_edge9_Node000001_Node000007"><a xlink:title=" ">
<path fill="none" stroke="#63b8ff" d="M489.63,-83.12C464.68,-68.09 420.16,-42.99 379,-28.5 368.33,-24.74 356.69,-21.63 345.38,-19.09"/>
<polygon fill="#63b8ff" stroke="#63b8ff" points="494.05,-85.8 488.61,-85.13 491.91,-84.5 489.78,-83.21 489.78,-83.21 489.78,-83.21 491.91,-84.5 490.94,-81.28 494.05,-85.8 494.05,-85.8"/>
</a>
</g>
</g>
<!-- Node3 -->
<g id="Node000003" class="node">
<title>Node3</title>
<g id="a_Node000003"><a xlink:href="../../d7/d93/classMessageLogWidget.html#a13df61814a0a4510ed07d236a4914d5f" target="_top" xlink:title=" ">
<polygon fill="white" stroke="#666666" points="156,-110.5 0,-110.5 0,-80.5 156,-80.5 156,-110.5"/>
<text text-anchor="start" x="8" y="-98.5" font-family="Helvetica,sans-Serif" font-size="10.00">MessageLogWidget::connect</text>
<text text-anchor="middle" x="78" y="-87.5" font-family="Helvetica,sans-Serif" font-size="10.00">ToPlayerEventHandler</text>
</a>
</g>
</g>
<!-- Node2&#45;&gt;Node3 -->
<g id="edge2_Node000002_Node000003" class="edge">
<title>Node2&#45;&gt;Node3</title>
<g id="a_edge2_Node000002_Node000003"><a xlink:title=" ">
<path fill="none" stroke="#63b8ff" d="M212.26,-169.88C205.33,-167.65 198.47,-165.19 192,-162.5 158.1,-148.39 122.15,-125.52 100.13,-110.5"/>
<polygon fill="#63b8ff" stroke="#63b8ff" points="217.07,-171.39 211.63,-172.04 214.69,-170.64 212.3,-169.89 212.3,-169.89 212.3,-169.89 214.69,-170.64 212.97,-167.75 217.07,-171.39 217.07,-171.39"/>
</a>
</g>
</g>
<!-- Node4&#45;&gt;Node3 -->
<g id="edge4_Node000004_Node000003" class="edge">
<title>Node4&#45;&gt;Node3</title>
<g id="a_edge4_Node000004_Node000003"><a xlink:title=" ">
<path fill="none" stroke="#63b8ff" d="M207.43,-122.37C188.88,-118.49 169.13,-114.36 150.83,-110.53"/>
<polygon fill="#63b8ff" stroke="#63b8ff" points="212.63,-123.46 207.27,-124.64 210.18,-122.95 207.73,-122.44 207.73,-122.44 207.73,-122.44 210.18,-122.95 208.19,-120.23 212.63,-123.46 212.63,-123.46"/>
</a>
</g>
</g>
<!-- Node5&#45;&gt;Node3 -->
<g id="edge6_Node000005_Node000003" class="edge">
<title>Node5&#45;&gt;Node3</title>
<g id="a_edge6_Node000005_Node000003"><a xlink:title=" ">
<path fill="none" stroke="#63b8ff" d="M186.93,-95.5C176.64,-95.5 166.28,-95.5 156.27,-95.5"/>
<polygon fill="#63b8ff" stroke="#63b8ff" points="191.97,-95.5 186.97,-97.75 189.47,-95.5 186.97,-95.5 186.97,-95.5 186.97,-95.5 189.47,-95.5 186.97,-93.25 191.97,-95.5 191.97,-95.5"/>
</a>
</g>
</g>
<!-- Node6&#45;&gt;Node3 -->
<g id="edge8_Node000006_Node000003" class="edge">
<title>Node6&#45;&gt;Node3</title>
<g id="a_edge8_Node000006_Node000003"><a xlink:title=" ">
<path fill="none" stroke="#63b8ff" d="M207.43,-68.63C188.88,-72.51 169.13,-76.64 150.83,-80.47"/>
<polygon fill="#63b8ff" stroke="#63b8ff" points="212.63,-67.54 208.19,-70.77 210.18,-68.05 207.73,-68.56 207.73,-68.56 207.73,-68.56 210.18,-68.05 207.27,-66.36 212.63,-67.54 212.63,-67.54"/>
</a>
</g>
</g>
<!-- Node7&#45;&gt;Node3 -->
<g id="edge10_Node000007_Node000003" class="edge">
<title>Node7&#45;&gt;Node3</title>
<g id="a_edge10_Node000007_Node000003"><a xlink:title=" ">
<path fill="none" stroke="#63b8ff" d="M218.45,-20.25C209.42,-22.53 200.39,-25.26 192,-28.5 157.54,-41.82 121.44,-65.11 99.58,-80.42"/>
<polygon fill="#63b8ff" stroke="#63b8ff" points="223.46,-19.03 219.14,-22.4 221.03,-19.62 218.6,-20.22 218.6,-20.22 218.6,-20.22 221.03,-19.62 218.07,-18.03 223.46,-19.03 223.46,-19.03"/>
</a>
</g>
</g>
</g>
</svg>

<g id="navigator" transform="translate(0 0)" fill="#404254">
  <rect fill="#f2f5e9" fill-opacity="0.5" stroke="#606060" stroke-width=".5" x="0" y="0" width="60" height="60"/>
  <use id="zoomplus" xlink:href="#zoomPlus" x="17" y="9" onmousedown="handleZoom(evt,'in')"/>
  <use id="zoomminus" xlink:href="#zoomMin" x="42" y="9" onmousedown="handleZoom(evt,'out')"/>
  <use id="reset" xlink:href="#resetDef" x="30" y="36" onmousedown="handleReset()"/>
   <use id="arrowup" xlink:href="#arrowUp" x="0" y="0" onmousedown="handlePan(0,-1)"/>
  <use id="arrowright" xlink:href="#arrowRight" x="0" y="0" onmousedown="handlePan(1,0)"/>
  <use id="arrowdown" xlink:href="#arrowDown" x="0" y="0" onmousedown="handlePan(0,1)"/>
  <use id="arrowleft" xlink:href="#arrowLeft" x="0" y="0" onmousedown="handlePan(-1,0)"/>
</g>
<svg viewBox="0 0 15 15" width="100%" height="30px" preserveAspectRatio="xMaxYMin meet">
 <g id="arrow_out" transform="scale(0.3 0.3)">
  <a xlink:href="classCardZoneLogic_ac7002f74372c1cb39517457115b558f4_icgraph_org.svg" target="_base">
   <rect id="button" ry="5" rx="5" y="6" x="6" height="38" width="38"
        fill="#f2f5e9" fill-opacity="0.5" stroke="#606060" stroke-width="1.0"/>
   <path id="arrow"
     d="M 11.500037,31.436501 C 11.940474,20.09759 22.043105,11.32322 32.158766,21.979434 L 37.068811,17.246167 C 37.068811,17.246167 37.088388,32 37.088388,32 L 22.160133,31.978069 C 22.160133,31.978069 26.997745,27.140456 26.997745,27.140456 C 18.528582,18.264221 13.291696,25.230495 11.500037,31.436501 z"
     style="fill:#404040;"/>
  </a>
 </g>
</svg>

<style type='text/css'>
<![CDATA[
[data-mouse-over-selected='false'] { opacity: 0.7; }
[data-mouse-over-selected='true']  { opacity: 1.0; }
]]>
</style>
<script type="application/ecmascript"><![CDATA[
document.addEventListener('DOMContentLoaded', (event) => {
  highlightEdges();
  highlightAdjacentNodes();
});
]]></script>
</svg>
