<?xml version="1.0" encoding="UTF-8" standalone="no"?>
<!DOCTYPE svg PUBLIC "-//W3C//DTD SVG 1.1//EN"
 "http://www.w3.org/Graphics/SVG/1.1/DTD/svg11.dtd">
<!-- Generated by graphviz version 2.43.0 (0)
 -->
<!-- Title: PlayerGraphicsItem::getPlayerTarget Pages: 1 -->
<svg width="2239pt" height="142pt"
 viewBox="0.00 0.00 2239.00 142.00" xmlns="http://www.w3.org/2000/svg" xmlns:xlink="http://www.w3.org/1999/xlink">
<g id="graph0" class="graph" transform="scale(1 1) rotate(0) translate(4 138)">
<title>PlayerGraphicsItem::getPlayerTarget</title>
<!-- Node1 -->
<g id="Node000001" class="node">
<title>Node1</title>
<g id="a_Node000001"><a xlink:title=" ">
<polygon fill="#999999" stroke="#666666" points="2231,-42.5 2118,-42.5 2118,-12.5 2231,-12.5 2231,-42.5"/>
<text text-anchor="start" x="2126" y="-30.5" font-family="Helvetica,sans-Serif" font-size="10.00">PlayerGraphicsItem</text>
<text text-anchor="middle" x="2174.5" y="-19.5" font-family="Helvetica,sans-Serif" font-size="10.00">::getPlayerTarget</text>
</a>
</g>
</g>
<!-- Node2 -->
<g id="Node000002" class="node">
<title>Node2</title>
<g id="a_Node000002"><a xlink:href="../../d2/d4b/classPlayer.html#a6b1cd6265e773f27f1229871ea312308" target="_top" xlink:title=" ">
<polygon fill="white" stroke="#666666" points="2077,-56 1977,-56 1977,-37 2077,-37 2077,-56"/>
<text text-anchor="middle" x="2027" y="-44" font-family="Helvetica,sans-Serif" font-size="10.00">Player::addArrow</text>
</a>
</g>
</g>
<!-- Node1&#45;&gt;Node2 -->
<g id="edge1_Node000001_Node000002" class="edge">
<title>Node1&#45;&gt;Node2</title>
<g id="a_edge1_Node000001_Node000002"><a xlink:title=" ">
<path fill="none" stroke="#63b8ff" d="M2112.64,-35.45C2100.85,-36.99 2088.63,-38.58 2077.27,-40.07"/>
<polygon fill="#63b8ff" stroke="#63b8ff" points="2117.66,-34.79 2113,-37.67 2115.18,-35.12 2112.7,-35.44 2112.7,-35.44 2112.7,-35.44 2115.18,-35.12 2112.41,-33.21 2117.66,-34.79 2117.66,-34.79"/>
</a>
</g>
</g>
<!-- Node19 -->
<g id="Node000019" class="node">
<title>Node19</title>
<g id="a_Node000019"><a xlink:href="../../d2/d4b/classPlayer.html#ad9dd24b2e9993c12b9a2b79f3da45b0f" target="_top" xlink:title=" ">
<polygon fill="white" stroke="#666666" points="2082,-19 1972,-19 1972,0 2082,0 2082,-19"/>
<text text-anchor="middle" x="2027" y="-7" font-family="Helvetica,sans-Serif" font-size="10.00">Player::addCounter</text>
</a>
</g>
</g>
<!-- Node1&#45;&gt;Node19 -->
<g id="edge21_Node000001_Node000019" class="edge">
<title>Node1&#45;&gt;Node19</title>
<g id="a_edge21_Node000001_Node000019"><a xlink:title=" ">
<path fill="none" stroke="#63b8ff" d="M2112.69,-19.98C2102.51,-18.72 2092.01,-17.42 2082.01,-16.18"/>
<polygon fill="#63b8ff" stroke="#63b8ff" points="2117.66,-20.59 2112.42,-22.21 2115.18,-20.29 2112.7,-19.98 2112.7,-19.98 2112.7,-19.98 2115.18,-20.29 2112.98,-17.75 2117.66,-20.59 2117.66,-20.59"/>
</a>
</g>
</g>
<!-- Node2&#45;&gt;Node2 -->
<g id="edge2_Node000002_Node000002" class="edge">
<title>Node2&#45;&gt;Node2</title>
<g id="a_edge2_Node000002_Node000002"><a xlink:title=" ">
<path fill="none" stroke="#63b8ff" d="M2053.03,-59.74C2057.98,-67.16 2049.3,-74 2027,-74 2001.05,-74 1993.55,-64.73 2004.5,-56.08"/>
<polygon fill="#63b8ff" stroke="#63b8ff" points="2049.5,-56.08 2054.59,-58.12 2051.24,-57.88 2052.97,-59.68 2052.97,-59.68 2052.97,-59.68 2051.24,-57.88 2051.35,-61.24 2049.5,-56.08 2049.5,-56.08"/>
</a>
</g>
</g>
<!-- Node3 -->
<g id="Node000003" class="node">
<title>Node3</title>
<g id="a_Node000003"><a xlink:href="../../de/d38/classPlayerEventHandler.html#a8945bbef4d5e97190b0e06a81d18497f" target="_top" xlink:title=" ">
<polygon fill="white" stroke="#666666" points="1907.5,-83.5 1794.5,-83.5 1794.5,-53.5 1907.5,-53.5 1907.5,-83.5"/>
<text text-anchor="start" x="1802.5" y="-71.5" font-family="Helvetica,sans-Serif" font-size="10.00">PlayerEventHandler</text>
<text text-anchor="middle" x="1851" y="-60.5" font-family="Helvetica,sans-Serif" font-size="10.00">::eventCreateArrow</text>
</a>
</g>
</g>
<!-- Node2&#45;&gt;Node3 -->
<g id="edge3_Node000002_Node000003" class="edge">
<title>Node2&#45;&gt;Node3</title>
<g id="a_edge3_Node000002_Node000003"><a xlink:title=" ">
<path fill="none" stroke="#63b8ff" d="M1971.5,-53.39C1951.17,-55.96 1928.08,-58.88 1907.65,-61.46"/>
<polygon fill="#63b8ff" stroke="#63b8ff" points="1976.6,-52.75 1971.93,-55.6 1974.12,-53.06 1971.64,-53.37 1971.64,-53.37 1971.64,-53.37 1974.12,-53.06 1971.36,-51.14 1976.6,-52.75 1976.6,-52.75"/>
</a>
</g>
</g>
<!-- Node16 -->
<g id="Node000016" class="node">
<title>Node16</title>
<g id="a_Node000016"><a xlink:href="../../d2/d4b/classPlayer.html#abc9f2bfac2e7d08b507c86b51d15d4e9" target="_top" xlink:title=" ">
<polygon fill="white" stroke="#666666" points="1936,-35 1766,-35 1766,-16 1936,-16 1936,-35"/>
<text text-anchor="middle" x="1851" y="-23" font-family="Helvetica,sans-Serif" font-size="10.00">Player::processCardAttachment</text>
</a>
</g>
</g>
<!-- Node2&#45;&gt;Node16 -->
<g id="edge17_Node000002_Node000016" class="edge">
<title>Node2&#45;&gt;Node16</title>
<g id="a_edge17_Node000002_Node000016"><a xlink:title=" ">
<path fill="none" stroke="#63b8ff" d="M1971.52,-39.93C1958.61,-38.37 1944.57,-36.67 1930.81,-35.01"/>
<polygon fill="#63b8ff" stroke="#63b8ff" points="1976.6,-40.54 1971.37,-42.17 1974.12,-40.24 1971.64,-39.94 1971.64,-39.94 1971.64,-39.94 1974.12,-40.24 1971.91,-37.71 1976.6,-40.54 1976.6,-40.54"/>
</a>
</g>
</g>
<!-- Node4 -->
<g id="Node000004" class="node">
<title>Node4</title>
<g id="a_Node000004"><a xlink:href="../../de/d38/classPlayerEventHandler.html#a0c4c71f0f775e5b4b9513bb2f3b7cb54" target="_top" xlink:title=" ">
<polygon fill="white" stroke="#666666" points="1510,-86.5 1393,-86.5 1393,-56.5 1510,-56.5 1510,-86.5"/>
<text text-anchor="start" x="1401" y="-74.5" font-family="Helvetica,sans-Serif" font-size="10.00">PlayerEventHandler</text>
<text text-anchor="middle" x="1451.5" y="-63.5" font-family="Helvetica,sans-Serif" font-size="10.00">::processGameEvent</text>
</a>
</g>
</g>
<!-- Node3&#45;&gt;Node4 -->
<g id="edge4_Node000003_Node000004" class="edge">
<title>Node3&#45;&gt;Node4</title>
<g id="a_edge4_Node000003_Node000004"><a xlink:title=" ">
<path fill="none" stroke="#63b8ff" d="M1788.94,-68.96C1713,-69.53 1584.34,-70.5 1510.07,-71.07"/>
<polygon fill="#63b8ff" stroke="#63b8ff" points="1794.31,-68.92 1789.33,-71.21 1791.81,-68.94 1789.31,-68.96 1789.31,-68.96 1789.31,-68.96 1791.81,-68.94 1789.29,-66.71 1794.31,-68.92 1794.31,-68.92"/>
</a>
</g>
</g>
<!-- Node5 -->
<g id="Node000005" class="node">
<title>Node5</title>
<g id="a_Node000005"><a xlink:href="../../d7/db2/classGameEventHandler.html#a0314b457308fd96a157f68d780e717ef" target="_top" xlink:title=" ">
<polygon fill="white" stroke="#666666" points="1328,-62.5 1173,-62.5 1173,-32.5 1328,-32.5 1328,-62.5"/>
<text text-anchor="start" x="1181" y="-50.5" font-family="Helvetica,sans-Serif" font-size="10.00">GameEventHandler::process</text>
<text text-anchor="middle" x="1250.5" y="-39.5" font-family="Helvetica,sans-Serif" font-size="10.00">GameEventContainer</text>
</a>
</g>
</g>
<!-- Node4&#45;&gt;Node5 -->
<g id="edge5_Node000004_Node000005" class="edge">
<title>Node4&#45;&gt;Node5</title>
<g id="a_edge5_Node000004_Node000005"><a xlink:title=" ">
<path fill="none" stroke="#63b8ff" d="M1387.67,-63.92C1368.79,-61.65 1347.86,-59.12 1328.19,-56.75"/>
<polygon fill="#63b8ff" stroke="#63b8ff" points="1392.94,-64.56 1387.71,-66.19 1390.46,-64.26 1387.98,-63.96 1387.98,-63.96 1387.98,-63.96 1390.46,-64.26 1388.25,-61.73 1392.94,-64.56 1392.94,-64.56"/>
</a>
</g>
</g>
<!-- Node6 -->
<g id="Node000006" class="node">
<title>Node6</title>
<g id="a_Node000006"><a xlink:href="../../dd/d81/classTabSupervisor.html#ab31f2589bbdc2d7948e0223f403c6d3f" target="_top" xlink:title=" ">
<polygon fill="white" stroke="#666666" points="1137,-86.5 979,-86.5 979,-56.5 1137,-56.5 1137,-86.5"/>
<text text-anchor="start" x="987" y="-74.5" font-family="Helvetica,sans-Serif" font-size="10.00">TabSupervisor::processGame</text>
<text text-anchor="middle" x="1058" y="-63.5" font-family="Helvetica,sans-Serif" font-size="10.00">EventContainer</text>
</a>
</g>
</g>
<!-- Node5&#45;&gt;Node6 -->
<g id="edge6_Node000005_Node000006" class="edge">
<title>Node5&#45;&gt;Node6</title>
<g id="a_edge6_Node000005_Node000006"><a xlink:title=" ">
<path fill="none" stroke="#63b8ff" d="M1167.85,-57.79C1157.63,-59.07 1147.21,-60.39 1137.06,-61.67"/>
<polygon fill="#63b8ff" stroke="#63b8ff" points="1172.84,-57.16 1168.16,-60.02 1170.36,-57.47 1167.88,-57.78 1167.88,-57.78 1167.88,-57.78 1170.36,-57.47 1167.6,-55.55 1172.84,-57.16 1172.84,-57.16"/>
</a>
</g>
</g>
<!-- Node14 -->
<g id="Node000014" class="node">
<title>Node14</title>
<g id="a_Node000014"><a xlink:href="../../da/de9/classReplayManager.html#a2d702708ffc716cc6dd5092cb01ed67f" target="_top" xlink:title=" ">
<polygon fill="white" stroke="#666666" points="1134.5,-38.5 981.5,-38.5 981.5,-8.5 1134.5,-8.5 1134.5,-38.5"/>
<text text-anchor="start" x="989.5" y="-26.5" font-family="Helvetica,sans-Serif" font-size="10.00">ReplayManager::replayNext</text>
<text text-anchor="middle" x="1058" y="-15.5" font-family="Helvetica,sans-Serif" font-size="10.00">Event</text>
</a>
</g>
</g>
<!-- Node5&#45;&gt;Node14 -->
<g id="edge15_Node000005_Node000014" class="edge">
<title>Node5&#45;&gt;Node14</title>
<g id="a_edge15_Node000005_Node000014"><a xlink:title=" ">
<path fill="none" stroke="#63b8ff" d="M1167.79,-37.21C1156.76,-35.82 1145.49,-34.4 1134.57,-33.02"/>
<polygon fill="#63b8ff" stroke="#63b8ff" points="1172.84,-37.84 1167.6,-39.45 1170.36,-37.53 1167.88,-37.22 1167.88,-37.22 1167.88,-37.22 1170.36,-37.53 1168.16,-34.98 1172.84,-37.84 1172.84,-37.84"/>
</a>
</g>
</g>
<!-- Node7 -->
<g id="Node000007" class="node">
<title>Node7</title>
<g id="a_Node000007"><a xlink:href="../../dd/d81/classTabSupervisor.html#a8074f0055d28b105a9cbebae8b1c7b25" target="_top" xlink:title=" ">
<polygon fill="white" stroke="#666666" points="924.5,-112 785.5,-112 785.5,-93 924.5,-93 924.5,-112"/>
<text text-anchor="middle" x="855" y="-100" font-family="Helvetica,sans-Serif" font-size="10.00">TabSupervisor::startLocal</text>
</a>
</g>
</g>
<!-- Node6&#45;&gt;Node7 -->
<g id="edge7_Node000006_Node000007" class="edge">
<title>Node6&#45;&gt;Node7</title>
<g id="a_edge7_Node000006_Node000007"><a xlink:title=" ">
<path fill="none" stroke="#63b8ff" d="M973.49,-84.38C954.87,-87.25 935.46,-90.24 917.9,-92.95"/>
<polygon fill="#63b8ff" stroke="#63b8ff" points="978.71,-83.57 974.11,-86.56 976.24,-83.96 973.77,-84.34 973.77,-84.34 973.77,-84.34 976.24,-83.96 973.43,-82.11 978.71,-83.57 978.71,-83.57"/>
</a>
</g>
</g>
<!-- Node13 -->
<g id="Node000013" class="node">
<title>Node13</title>
<g id="a_Node000013"><a xlink:href="../../dd/d81/classTabSupervisor.html#a5e6baf23ec25ba9c7d95138c2b76b234" target="_top" xlink:title=" ">
<polygon fill="white" stroke="#666666" points="934.5,-75 775.5,-75 775.5,-56 934.5,-56 934.5,-75"/>
<text text-anchor="middle" x="855" y="-63" font-family="Helvetica,sans-Serif" font-size="10.00">TabSupervisor::TabSupervisor</text>
</a>
</g>
</g>
<!-- Node6&#45;&gt;Node13 -->
<g id="edge14_Node000006_Node000013" class="edge">
<title>Node6&#45;&gt;Node13</title>
<g id="a_edge14_Node000006_Node000013"><a xlink:title=" ">
<path fill="none" stroke="#63b8ff" d="M973.61,-69.01C960.75,-68.63 947.49,-68.23 934.74,-67.85"/>
<polygon fill="#63b8ff" stroke="#63b8ff" points="978.71,-69.16 973.65,-71.26 976.21,-69.09 973.71,-69.01 973.71,-69.01 973.71,-69.01 976.21,-69.09 973.78,-66.76 978.71,-69.16 978.71,-69.16"/>
</a>
</g>
</g>
<!-- Node8 -->
<g id="Node000008" class="node">
<title>Node8</title>
<g id="a_Node000008"><a xlink:href="../../d6/d1a/classMainWindow.html#acc188a1a4b444b8690943b3693cdcf5c" target="_top" xlink:title=" ">
<polygon fill="white" stroke="#666666" points="731,-112 569,-112 569,-93 731,-93 731,-112"/>
<text text-anchor="middle" x="650" y="-100" font-family="Helvetica,sans-Serif" font-size="10.00">MainWindow::startLocalGame</text>
</a>
</g>
</g>
<!-- Node7&#45;&gt;Node8 -->
<g id="edge8_Node000007_Node000008" class="edge">
<title>Node7&#45;&gt;Node8</title>
<g id="a_edge8_Node000007_Node000008"><a xlink:title=" ">
<path fill="none" stroke="#63b8ff" d="M779.94,-102.5C764.1,-102.5 747.29,-102.5 731.22,-102.5"/>
<polygon fill="#63b8ff" stroke="#63b8ff" points="785.27,-102.5 780.27,-104.75 782.77,-102.5 780.27,-102.5 780.27,-102.5 780.27,-102.5 782.77,-102.5 780.27,-100.25 785.27,-102.5 785.27,-102.5"/>
</a>
</g>
</g>
<!-- Node9 -->
<g id="Node000009" class="node">
<title>Node9</title>
<g id="a_Node000009"><a xlink:href="../../d6/d1a/classMainWindow.html#a768b04557fe03b17592aa1c7d7e24255" target="_top" xlink:title=" ">
<polygon fill="white" stroke="#666666" points="533,-132 372,-132 372,-113 533,-113 533,-132"/>
<text text-anchor="middle" x="452.5" y="-120" font-family="Helvetica,sans-Serif" font-size="10.00">MainWindow::actSinglePlayer</text>
</a>
</g>
</g>
<!-- Node8&#45;&gt;Node9 -->
<g id="edge9_Node000008_Node000009" class="edge">
<title>Node8&#45;&gt;Node9</title>
<g id="a_edge9_Node000008_Node000009"><a xlink:title=" ">
<path fill="none" stroke="#63b8ff" d="M563.92,-111.2C553.69,-112.25 543.28,-113.32 533.14,-114.35"/>
<polygon fill="#63b8ff" stroke="#63b8ff" points="568.92,-110.69 564.17,-113.44 566.43,-110.95 563.94,-111.2 563.94,-111.2 563.94,-111.2 566.43,-110.95 563.72,-108.96 568.92,-110.69 568.92,-110.69"/>
</a>
</g>
</g>
<!-- Node12 -->
<g id="Node000012" class="node">
<title>Node12</title>
<g id="a_Node000012"><a xlink:href="../../d6/d1a/classMainWindow.html#ab9bcbb634d82332732230028d2e3f2f5" target="_top" xlink:title=" ">
<polygon fill="white" stroke="#666666" points="335,-96.5 185,-96.5 185,-66.5 335,-66.5 335,-96.5"/>
<text text-anchor="start" x="193" y="-84.5" font-family="Helvetica,sans-Serif" font-size="10.00">MainWindow::startupConfig</text>
<text text-anchor="middle" x="260" y="-73.5" font-family="Helvetica,sans-Serif" font-size="10.00">Check</text>
</a>
</g>
</g>
<!-- Node8&#45;&gt;Node12 -->
<g id="edge12_Node000008_Node000012" class="edge">
<title>Node8&#45;&gt;Node12</title>
<g id="a_edge12_Node000008_Node000012"><a xlink:title=" ">
<path fill="none" stroke="#63b8ff" d="M563.32,-97.86C494.95,-94.16 400.17,-89.03 335.05,-85.51"/>
<polygon fill="#63b8ff" stroke="#63b8ff" points="568.61,-98.15 563.49,-100.13 566.11,-98.01 563.61,-97.88 563.61,-97.88 563.61,-97.88 566.11,-98.01 563.74,-95.63 568.61,-98.15 568.61,-98.15"/>
</a>
</g>
</g>
<!-- Node10 -->
<g id="Node000010" class="node">
<title>Node10</title>
<g id="a_Node000010"><a xlink:href="../../d6/d1a/classMainWindow.html#a62cd8712fb41a754298f6f60eead2cb0" target="_top" xlink:title=" ">
<polygon fill="white" stroke="#666666" points="336,-134 184,-134 184,-115 336,-115 336,-134"/>
<text text-anchor="middle" x="260" y="-122" font-family="Helvetica,sans-Serif" font-size="10.00">MainWindow::createActions</text>
</a>
</g>
</g>
<!-- Node9&#45;&gt;Node10 -->
<g id="edge10_Node000009_Node000010" class="edge">
<title>Node9&#45;&gt;Node10</title>
<g id="a_edge10_Node000009_Node000010"><a xlink:title=" ">
<path fill="none" stroke="#63b8ff" d="M366.81,-123.39C356.58,-123.5 346.18,-123.61 336.1,-123.71"/>
<polygon fill="#63b8ff" stroke="#63b8ff" points="371.81,-123.34 366.84,-125.64 369.31,-123.36 366.81,-123.39 366.81,-123.39 366.81,-123.39 369.31,-123.36 366.79,-121.14 371.81,-123.34 371.81,-123.34"/>
</a>
</g>
</g>
<!-- Node11 -->
<g id="Node000011" class="node">
<title>Node11</title>
<g id="a_Node000011"><a xlink:href="../../d6/d1a/classMainWindow.html#a996c5a2b6f77944776856f08ec30858d" target="_top" xlink:title=" ">
<polygon fill="white" stroke="#666666" points="148,-112 0,-112 0,-93 148,-93 148,-112"/>
<text text-anchor="middle" x="74" y="-100" font-family="Helvetica,sans-Serif" font-size="10.00">MainWindow::MainWindow</text>
</a>
</g>
</g>
<!-- Node10&#45;&gt;Node11 -->
<g id="edge11_Node000010_Node000011" class="edge">
<title>Node10&#45;&gt;Node11</title>
<g id="a_edge11_Node000010_Node000011"><a xlink:title=" ">
<path fill="none" stroke="#63b8ff" d="M178.89,-114.92C168.64,-113.7 158.2,-112.45 148.08,-111.24"/>
<polygon fill="#63b8ff" stroke="#63b8ff" points="183.89,-115.52 178.66,-117.16 181.41,-115.22 178.93,-114.93 178.93,-114.93 178.93,-114.93 181.41,-115.22 179.2,-112.69 183.89,-115.52 183.89,-115.52"/>
</a>
</g>
</g>
<!-- Node12&#45;&gt;Node11 -->
<g id="edge13_Node000012_Node000011" class="edge">
<title>Node12&#45;&gt;Node11</title>
<g id="a_edge13_Node000012_Node000011"><a xlink:title=" ">
<path fill="none" stroke="#63b8ff" d="M179.83,-90.54C169.36,-91.73 158.66,-92.95 148.29,-94.13"/>
<polygon fill="#63b8ff" stroke="#63b8ff" points="184.96,-89.95 180.24,-92.75 182.47,-90.23 179.99,-90.52 179.99,-90.52 179.99,-90.52 182.47,-90.23 179.73,-88.28 184.96,-89.95 184.96,-89.95"/>
</a>
</g>
</g>
<!-- Node15 -->
<g id="Node000015" class="node">
<title>Node15</title>
<g id="a_Node000015"><a xlink:href="../../da/de9/classReplayManager.html#afb3cad9876028dfafcd64078fce5af0a" target="_top" xlink:title=" ">
<polygon fill="white" stroke="#666666" points="943,-33 767,-33 767,-14 943,-14 943,-33"/>
<text text-anchor="middle" x="855" y="-21" font-family="Helvetica,sans-Serif" font-size="10.00">ReplayManager::ReplayManager</text>
</a>
</g>
</g>
<!-- Node14&#45;&gt;Node15 -->
<g id="edge16_Node000014_Node000015" class="edge">
<title>Node14&#45;&gt;Node15</title>
<g id="a_edge16_Node000014_Node000015"><a xlink:title=" ">
<path fill="none" stroke="#63b8ff" d="M976.01,-23.5C965.18,-23.5 954.04,-23.5 943.11,-23.5"/>
<polygon fill="#63b8ff" stroke="#63b8ff" points="981.3,-23.5 976.3,-25.75 978.8,-23.5 976.3,-23.5 976.3,-23.5 976.3,-23.5 978.8,-23.5 976.3,-21.25 981.3,-23.5 981.3,-23.5"/>
</a>
</g>
</g>
<!-- Node17 -->
<g id="Node000017" class="node">
<title>Node17</title>
<g id="a_Node000017"><a xlink:href="../../d7/db2/classGameEventHandler.html#ab841d29d36abf32e8722715b93969c58" target="_top" xlink:title=" ">
<polygon fill="white" stroke="#666666" points="1730,-40.5 1575,-40.5 1575,-10.5 1730,-10.5 1730,-40.5"/>
<text text-anchor="start" x="1583" y="-28.5" font-family="Helvetica,sans-Serif" font-size="10.00">GameEventHandler::process</text>
<text text-anchor="middle" x="1652.5" y="-17.5" font-family="Helvetica,sans-Serif" font-size="10.00">CardAttachmentsForPlayers</text>
</a>
</g>
</g>
<!-- Node16&#45;&gt;Node17 -->
<g id="edge18_Node000016_Node000017" class="edge">
<title>Node16&#45;&gt;Node17</title>
<g id="a_edge18_Node000016_Node000017"><a xlink:title=" ">
<path fill="none" stroke="#63b8ff" d="M1760.79,-25.5C1750.53,-25.5 1740.13,-25.5 1730.06,-25.5"/>
<polygon fill="#63b8ff" stroke="#63b8ff" points="1765.81,-25.5 1760.81,-27.75 1763.31,-25.5 1760.81,-25.5 1760.81,-25.5 1760.81,-25.5 1763.31,-25.5 1760.81,-23.25 1765.81,-25.5 1765.81,-25.5"/>
</a>
</g>
</g>
<!-- Node18 -->
<g id="Node000018" class="node">
<title>Node18</title>
<g id="a_Node000018"><a xlink:href="../../d7/db2/classGameEventHandler.html#a7738ec99a5a2340a62d6a27bf5809015" target="_top" xlink:title=" ">
<polygon fill="white" stroke="#666666" points="1539,-38.5 1364,-38.5 1364,-8.5 1539,-8.5 1539,-38.5"/>
<text text-anchor="start" x="1372" y="-26.5" font-family="Helvetica,sans-Serif" font-size="10.00">GameEventHandler::eventGame</text>
<text text-anchor="middle" x="1451.5" y="-15.5" font-family="Helvetica,sans-Serif" font-size="10.00">StateChanged</text>
</a>
</g>
</g>
<!-- Node17&#45;&gt;Node18 -->
<g id="edge19_Node000017_Node000018" class="edge">
<title>Node17&#45;&gt;Node18</title>
<g id="a_edge19_Node000017_Node000018"><a xlink:title=" ">
<path fill="none" stroke="#63b8ff" d="M1569.6,-24.68C1559.53,-24.58 1549.2,-24.47 1539.06,-24.37"/>
<polygon fill="#63b8ff" stroke="#63b8ff" points="1574.85,-24.73 1569.82,-26.93 1572.35,-24.7 1569.85,-24.68 1569.85,-24.68 1569.85,-24.68 1572.35,-24.7 1569.87,-22.43 1574.85,-24.73 1574.85,-24.73"/>
</a>
</g>
</g>
<!-- Node18&#45;&gt;Node5 -->
<g id="edge20_Node000018_Node000005" class="edge">
<title>Node18&#45;&gt;Node5</title>
<g id="a_edge20_Node000018_Node000005"><a xlink:title=" ">
<path fill="none" stroke="#63b8ff" d="M1358.79,-34.56C1348.57,-35.79 1338.24,-37.04 1328.24,-38.25"/>
<polygon fill="#63b8ff" stroke="#63b8ff" points="1363.79,-33.96 1359.1,-36.79 1361.31,-34.26 1358.83,-34.56 1358.83,-34.56 1358.83,-34.56 1361.31,-34.26 1358.56,-32.32 1363.79,-33.96 1363.79,-33.96"/>
</a>
</g>
</g>
</g>
</svg>
