<?xml version="1.0" encoding="UTF-8" standalone="no"?>
<!DOCTYPE svg PUBLIC "-//W3C//DTD SVG 1.1//EN"
 "http://www.w3.org/Graphics/SVG/1.1/DTD/svg11.dtd">
<!-- Generated by graphviz version 2.43.0 (0)
 -->
<!-- Title: PlayerGraphicsItem::updateBoundingRect Pages: 1 -->
<svg width="484pt" height="300pt"
 viewBox="0.00 0.00 484.00 299.50" xmlns="http://www.w3.org/2000/svg" xmlns:xlink="http://www.w3.org/1999/xlink">

<svg id="main" version="1.1" xmlns="http://www.w3.org/2000/svg" xmlns:xlink="http://www.w3.org/1999/xlink" xml:space="preserve" onload="init(evt)">
<style type="text/css"><![CDATA[
.node, .edge {opacity: 0.7;}
.node.selected, .edge.selected {opacity: 1;}
.edge:hover path { stroke: red; }
.edge:hover polygon { stroke: red; fill: red; }
]]></style>
<script type="application/ecmascript" xlink:href="../../svg.min.js"/>
<svg id="graph" class="graph">
<g id="graph0" class="graph" transform="scale(1 1) rotate(0) translate(4 295.5)">
<title>PlayerGraphicsItem::updateBoundingRect</title>
<!-- Node1 -->
<g id="Node000001" class="node">
<title>Node1</title>
<g id="a_Node000001"><a xlink:title=" ">
<polygon fill="#999999" stroke="#666666" points="124,-165 0,-165 0,-135 124,-135 124,-165"/>
<text text-anchor="start" x="8" y="-153" font-family="Helvetica,sans-Serif" font-size="10.00">PlayerGraphicsItem</text>
<text text-anchor="middle" x="62" y="-142" font-family="Helvetica,sans-Serif" font-size="10.00">::updateBoundingRect</text>
</a>
</g>
</g>
<!-- Node2 -->
<g id="Node000002" class="node">
<title>Node2</title>
<g id="a_Node000002"><a xlink:href="../../d4/dc7/classHandZone.html#a7faca66eca6e642dbd6c853ecc59753d" target="_top" xlink:title=" ">
<polygon fill="white" stroke="#666666" points="303,-291.5 163,-291.5 163,-272.5 303,-272.5 303,-291.5"/>
<text text-anchor="middle" x="233" y="-279.5" font-family="Helvetica,sans-Serif" font-size="10.00">HandZone::boundingRect</text>
</a>
</g>
</g>
<!-- Node1&#45;&gt;Node2 -->
<g id="edge1_Node000001_Node000002" class="edge">
<title>Node1&#45;&gt;Node2</title>
<g id="a_edge1_Node000001_Node000002"><a xlink:title=" ">
<path fill="none" stroke="#63b8ff" d="M72.76,-165.17C88.44,-188.39 121.43,-232.71 160,-258 167.98,-263.23 177.2,-267.42 186.32,-270.74"/>
<polygon fill="#63b8ff" stroke="#63b8ff" points="191.08,-272.4 185.62,-272.88 188.72,-271.58 186.36,-270.75 186.36,-270.75 186.36,-270.75 188.72,-271.58 187.1,-268.63 191.08,-272.4 191.08,-272.4"/>
</a>
</g>
</g>
<!-- Node3 -->
<g id="Node000003" class="node">
<title>Node3</title>
<g id="a_Node000003"><a xlink:href="../../d5/d88/classSettingsCache.html#adfa7f9f975919981b992db1fca9e4957" target="_top" xlink:title=" ">
<polygon fill="white" stroke="#666666" points="476,-272.5 342,-272.5 342,-253.5 476,-253.5 476,-272.5"/>
<text text-anchor="middle" x="409" y="-260.5" font-family="Helvetica,sans-Serif" font-size="10.00">SettingsCache::instance</text>
</a>
</g>
</g>
<!-- Node1&#45;&gt;Node3 -->
<g id="edge7_Node000001_Node000003" class="edge">
<title>Node1&#45;&gt;Node3</title>
<g id="a_edge7_Node000001_Node000003"><a xlink:title=" ">
<path fill="none" stroke="#63b8ff" d="M77.54,-165.19C95.25,-182.68 126.94,-210.82 160,-225 216.31,-249.15 285.62,-258.23 336.64,-261.52"/>
<polygon fill="#63b8ff" stroke="#63b8ff" points="341.83,-261.83 336.7,-263.77 339.33,-261.68 336.84,-261.53 336.84,-261.53 336.84,-261.53 339.33,-261.68 336.97,-259.28 341.83,-261.83 341.83,-261.83"/>
</a>
</g>
</g>
<!-- Node4 -->
<g id="Node000004" class="node">
<title>Node4</title>
<g id="a_Node000004"><a xlink:href="../../df/d82/classStackZone.html#a77524c2b4378cb94602b649fd7323e4f" target="_top" xlink:title=" ">
<polygon fill="white" stroke="#666666" points="303.5,-215.5 162.5,-215.5 162.5,-196.5 303.5,-196.5 303.5,-215.5"/>
<text text-anchor="middle" x="233" y="-203.5" font-family="Helvetica,sans-Serif" font-size="10.00">StackZone::boundingRect</text>
</a>
</g>
</g>
<!-- Node1&#45;&gt;Node4 -->
<g id="edge3_Node000001_Node000004" class="edge">
<title>Node1&#45;&gt;Node4</title>
<g id="a_edge3_Node000001_Node000004"><a xlink:title=" ">
<path fill="none" stroke="#63b8ff" d="M98.08,-165C116.34,-172.49 139.15,-181.34 160,-188 167.93,-190.53 176.44,-192.93 184.73,-195.11"/>
<polygon fill="#63b8ff" stroke="#63b8ff" points="189.86,-196.43 184.46,-197.36 187.44,-195.81 185.02,-195.18 185.02,-195.18 185.02,-195.18 187.44,-195.81 185.58,-193 189.86,-196.43 189.86,-196.43"/>
</a>
</g>
</g>
<!-- Node5 -->
<g id="Node000005" class="node">
<title>Node5</title>
<g id="a_Node000005"><a xlink:href="../../d6/d6f/classTableZone.html#aa5bc29be4db724fb001788a223d9cb35" target="_top" xlink:title=" ">
<polygon fill="white" stroke="#666666" points="303,-178.5 163,-178.5 163,-159.5 303,-159.5 303,-178.5"/>
<text text-anchor="middle" x="233" y="-166.5" font-family="Helvetica,sans-Serif" font-size="10.00">TableZone::boundingRect</text>
</a>
</g>
</g>
<!-- Node1&#45;&gt;Node5 -->
<g id="edge4_Node000001_Node000005" class="edge">
<title>Node1&#45;&gt;Node5</title>
<g id="a_edge4_Node000001_Node000005"><a xlink:title=" ">
<path fill="none" stroke="#63b8ff" d="M124.01,-156.86C134.92,-158.09 146.39,-159.38 157.62,-160.64"/>
<polygon fill="#63b8ff" stroke="#63b8ff" points="162.76,-161.22 157.54,-162.89 160.27,-160.94 157.79,-160.66 157.79,-160.66 157.79,-160.66 160.27,-160.94 158.04,-158.42 162.76,-161.22 162.76,-161.22"/>
</a>
</g>
</g>
<!-- Node6 -->
<g id="Node000006" class="node">
<title>Node6</title>
<g id="a_Node000006"><a xlink:href="../../df/df7/classPlayerInfo.html#a91e492bf00c750746a205350073c9223" target="_top" xlink:title=" ">
<polygon fill="white" stroke="#666666" points="306,-141.5 160,-141.5 160,-122.5 306,-122.5 306,-141.5"/>
<text text-anchor="middle" x="233" y="-129.5" font-family="Helvetica,sans-Serif" font-size="10.00">PlayerInfo::getHandVisible</text>
</a>
</g>
</g>
<!-- Node1&#45;&gt;Node6 -->
<g id="edge5_Node000001_Node000006" class="edge">
<title>Node1&#45;&gt;Node6</title>
<g id="a_edge5_Node000001_Node000006"><a xlink:title=" ">
<path fill="none" stroke="#63b8ff" d="M124.01,-143.5C134.01,-142.44 144.48,-141.32 154.8,-140.22"/>
<polygon fill="#63b8ff" stroke="#63b8ff" points="159.85,-139.68 155.12,-142.45 157.37,-139.95 154.88,-140.21 154.88,-140.21 154.88,-140.21 157.37,-139.95 154.64,-137.98 159.85,-139.68 159.85,-139.68"/>
</a>
</g>
</g>
<!-- Node7 -->
<g id="Node000007" class="node">
<title>Node7</title>
<g id="a_Node000007"><a xlink:href="../../d2/d4b/classPlayer.html#ae518d19009a8604a8538f9c5fb083474" target="_top" xlink:title=" ">
<polygon fill="white" stroke="#666666" points="292.5,-104.5 173.5,-104.5 173.5,-85.5 292.5,-85.5 292.5,-104.5"/>
<text text-anchor="middle" x="233" y="-92.5" font-family="Helvetica,sans-Serif" font-size="10.00">Player::getPlayerInfo</text>
</a>
</g>
</g>
<!-- Node1&#45;&gt;Node7 -->
<g id="edge6_Node000001_Node000007" class="edge">
<title>Node1&#45;&gt;Node7</title>
<g id="a_edge6_Node000001_Node000007"><a xlink:title=" ">
<path fill="none" stroke="#63b8ff" d="M100.94,-134.94C118.73,-128.13 140.31,-120.24 160,-114 169.03,-111.14 178.78,-108.36 188.11,-105.85"/>
<polygon fill="#63b8ff" stroke="#63b8ff" points="192.94,-104.57 188.69,-108.03 190.52,-105.21 188.11,-105.85 188.11,-105.85 188.11,-105.85 190.52,-105.21 187.53,-103.68 192.94,-104.57 192.94,-104.57"/>
</a>
</g>
</g>
<!-- Node8 -->
<g id="Node000008" class="node">
<title>Node8</title>
<g id="a_Node000008"><a xlink:href="../../d8/d93/classPlayerArea.html#ad5e045e466b8037ea310c624b47c85be" target="_top" xlink:title=" ">
<polygon fill="white" stroke="#666666" points="288.5,-67.5 177.5,-67.5 177.5,-48.5 288.5,-48.5 288.5,-67.5"/>
<text text-anchor="middle" x="233" y="-55.5" font-family="Helvetica,sans-Serif" font-size="10.00">PlayerArea::setSize</text>
</a>
</g>
</g>
<!-- Node1&#45;&gt;Node8 -->
<g id="edge8_Node000001_Node000008" class="edge">
<title>Node1&#45;&gt;Node8</title>
<g id="a_edge8_Node000001_Node000008"><a xlink:title=" ">
<path fill="none" stroke="#63b8ff" d="M78.86,-134.94C97.08,-118.43 128.52,-92.27 160,-77 166.33,-73.93 173.23,-71.3 180.16,-69.08"/>
<polygon fill="#63b8ff" stroke="#63b8ff" points="184.96,-67.6 180.84,-71.22 182.57,-68.33 180.18,-69.07 180.18,-69.07 180.18,-69.07 182.57,-68.33 179.52,-66.92 184.96,-67.6 184.96,-67.6"/>
</a>
</g>
</g>
<!-- Node9 -->
<g id="Node000009" class="node">
<title>Node9</title>
<g id="a_Node000009"><a xlink:href="../../d3/de4/classPlayerGraphicsItem.html#ae8e3c4e833ffaaf424c068aec792a339" target="_top" xlink:title=" ">
<polygon fill="white" stroke="#666666" points="289.5,-30 176.5,-30 176.5,0 289.5,0 289.5,-30"/>
<text text-anchor="start" x="184.5" y="-18" font-family="Helvetica,sans-Serif" font-size="10.00">PlayerGraphicsItem</text>
<text text-anchor="middle" x="233" y="-7" font-family="Helvetica,sans-Serif" font-size="10.00">::sizeChanged</text>
</a>
</g>
</g>
<!-- Node1&#45;&gt;Node9 -->
<g id="edge9_Node000001_Node000009" class="edge">
<title>Node1&#45;&gt;Node9</title>
<g id="a_edge9_Node000001_Node000009"><a xlink:title=" ">
<path fill="none" stroke="#63b8ff" d="M72.47,-134.99C88.01,-111.51 121.1,-66.11 160,-40 164.28,-37.12 168.94,-34.54 173.74,-32.24"/>
<polygon fill="#63b8ff" stroke="#63b8ff" points="178.59,-30.02 174.98,-34.14 176.32,-31.06 174.04,-32.1 174.04,-32.1 174.04,-32.1 176.32,-31.06 173.11,-30.05 178.59,-30.02 178.59,-30.02"/>
</a>
</g>
</g>
<!-- Node2&#45;&gt;Node3 -->
<g id="edge2_Node000002_Node000003" class="edge">
<title>Node2&#45;&gt;Node3</title>
<g id="a_edge2_Node000002_Node000003"><a xlink:title=" ">
<path fill="none" stroke="#63b8ff" d="M303.02,-274.46C314.13,-273.25 325.64,-271.99 336.8,-270.77"/>
<polygon fill="#63b8ff" stroke="#63b8ff" points="341.9,-270.22 337.17,-273 339.42,-270.49 336.93,-270.76 336.93,-270.76 336.93,-270.76 339.42,-270.49 336.69,-268.52 341.9,-270.22 341.9,-270.22"/>
</a>
</g>
</g>
</g>
</svg>
</svg>

<style type='text/css'>
<![CDATA[
[data-mouse-over-selected='false'] { opacity: 0.7; }
[data-mouse-over-selected='true']  { opacity: 1.0; }
]]>
</style>
<script type="application/ecmascript"><![CDATA[
document.addEventListener('DOMContentLoaded', (event) => {
  highlightEdges();
  highlightAdjacentNodes();
});
]]></script>
</svg>
