<?xml version="1.0" encoding="UTF-8" standalone="no"?>
<!DOCTYPE svg PUBLIC "-//W3C//DTD SVG 1.1//EN"
 "http://www.w3.org/Graphics/SVG/1.1/DTD/svg11.dtd">
<!-- Generated by graphviz version 2.43.0 (0)
 -->
<!-- Title: IslInterface::processRoomEvent Pages: 1 -->
<svg width="844pt" height="64pt"
 viewBox="0.00 0.00 844.00 64.00" xmlns="http://www.w3.org/2000/svg" xmlns:xlink="http://www.w3.org/1999/xlink">
<g id="graph0" class="graph" transform="scale(1 1) rotate(0) translate(4 60)">
<title>IslInterface::processRoomEvent</title>
<!-- Node1 -->
<g id="Node000001" class="node">
<title>Node1</title>
<g id="a_Node000001"><a xlink:title=" ">
<polygon fill="#999999" stroke="#666666" points="836,-42.5 693,-42.5 693,-12.5 836,-12.5 836,-42.5"/>
<text text-anchor="start" x="701" y="-30.5" font-family="Helvetica,sans-Serif" font-size="10.00">IslInterface::processRoom</text>
<text text-anchor="middle" x="764.5" y="-19.5" font-family="Helvetica,sans-Serif" font-size="10.00">Event</text>
</a>
</g>
</g>
<!-- Node2 -->
<g id="Node000002" class="node">
<title>Node2</title>
<g id="a_Node000002"><a xlink:href="../../d0/de8/classIslInterface.html#ae515c1a75b2e1fe01e21af382954e173" target="_top" xlink:title=" ">
<polygon fill="white" stroke="#666666" points="657,-37 499,-37 499,-18 657,-18 657,-37"/>
<text text-anchor="middle" x="578" y="-25" font-family="Helvetica,sans-Serif" font-size="10.00">IslInterface::processMessage</text>
</a>
</g>
</g>
<!-- Node1&#45;&gt;Node2 -->
<g id="edge1_Node000001_Node000002" class="edge">
<title>Node1&#45;&gt;Node2</title>
<g id="a_edge1_Node000001_Node000002"><a xlink:title=" ">
<path fill="none" stroke="#63b8ff" d="M687.72,-27.5C677.65,-27.5 667.3,-27.5 657.19,-27.5"/>
<polygon fill="#63b8ff" stroke="#63b8ff" points="692.96,-27.5 687.96,-29.75 690.46,-27.5 687.96,-27.5 687.96,-27.5 687.96,-27.5 690.46,-27.5 687.96,-25.25 692.96,-27.5 692.96,-27.5"/>
</a>
</g>
</g>
<!-- Node3 -->
<g id="Node000003" class="node">
<title>Node3</title>
<g id="a_Node000003"><a xlink:href="../../d0/de8/classIslInterface.html#a517528ba6e1a2be5dee23f6be391dd07" target="_top" xlink:title=" ">
<polygon fill="white" stroke="#666666" points="463,-37 335,-37 335,-18 463,-18 463,-37"/>
<text text-anchor="middle" x="399" y="-25" font-family="Helvetica,sans-Serif" font-size="10.00">IslInterface::readClient</text>
</a>
</g>
</g>
<!-- Node2&#45;&gt;Node3 -->
<g id="edge2_Node000002_Node000003" class="edge">
<title>Node2&#45;&gt;Node3</title>
<g id="a_edge2_Node000002_Node000003"><a xlink:title=" ">
<path fill="none" stroke="#63b8ff" d="M493.8,-27.5C483.48,-27.5 473.07,-27.5 463.13,-27.5"/>
<polygon fill="#63b8ff" stroke="#63b8ff" points="498.85,-27.5 493.85,-29.75 496.35,-27.5 493.85,-27.5 493.85,-27.5 493.85,-27.5 496.35,-27.5 493.85,-25.25 498.85,-27.5 498.85,-27.5"/>
</a>
</g>
</g>
<!-- Node4 -->
<g id="Node000004" class="node">
<title>Node4</title>
<g id="a_Node000004"><a xlink:href="../../d0/de8/classIslInterface.html#a67066b57b65d5bb9d5386a7b714df237" target="_top" xlink:title=" ">
<polygon fill="white" stroke="#666666" points="299,-37 168,-37 168,-18 299,-18 299,-37"/>
<text text-anchor="middle" x="233.5" y="-25" font-family="Helvetica,sans-Serif" font-size="10.00">IslInterface::sharedCtor</text>
</a>
</g>
</g>
<!-- Node3&#45;&gt;Node4 -->
<g id="edge3_Node000003_Node000004" class="edge">
<title>Node3&#45;&gt;Node4</title>
<g id="a_edge3_Node000003_Node000004"><a xlink:title=" ">
<path fill="none" stroke="#63b8ff" d="M329.55,-27.5C319.49,-27.5 309.15,-27.5 299.17,-27.5"/>
<polygon fill="#63b8ff" stroke="#63b8ff" points="334.79,-27.5 329.79,-29.75 332.29,-27.5 329.79,-27.5 329.79,-27.5 329.79,-27.5 332.29,-27.5 329.79,-25.25 334.79,-27.5 334.79,-27.5"/>
</a>
</g>
</g>
<!-- Node5 -->
<g id="Node000005" class="node">
<title>Node5</title>
<g id="a_Node000005"><a xlink:href="../../d0/de8/classIslInterface.html#a8a50c3d8b46e149d71786924f4af911e" target="_top" xlink:title=" ">
<polygon fill="white" stroke="#666666" points="132,-56 0,-56 0,-37 132,-37 132,-56"/>
<text text-anchor="middle" x="66" y="-44" font-family="Helvetica,sans-Serif" font-size="10.00">IslInterface::IslInterface</text>
</a>
</g>
</g>
<!-- Node4&#45;&gt;Node5 -->
<g id="edge4_Node000004_Node000005" class="edge">
<title>Node4&#45;&gt;Node5</title>
<g id="a_edge4_Node000004_Node000005"><a xlink:title=" ">
<path fill="none" stroke="#63b8ff" d="M162.33,-35.56C152.28,-36.71 141.97,-37.89 132.02,-39.04"/>
<polygon fill="#63b8ff" stroke="#63b8ff" points="167.57,-34.95 162.85,-37.76 165.08,-35.24 162.6,-35.53 162.6,-35.53 162.6,-35.53 165.08,-35.24 162.34,-33.29 167.57,-34.95 167.57,-34.95"/>
</a>
</g>
</g>
<!-- Node6 -->
<g id="Node000006" class="node">
<title>Node6</title>
<g id="a_Node000006"><a xlink:href="../../d0/de8/classIslInterface.html#ad0e7013e16b2f200ff476b9134f4b98f" target="_top" xlink:title=" ">
<polygon fill="white" stroke="#666666" points="132,-19 0,-19 0,0 132,0 132,-19"/>
<text text-anchor="middle" x="66" y="-7" font-family="Helvetica,sans-Serif" font-size="10.00">IslInterface::IslInterface</text>
</a>
</g>
</g>
<!-- Node4&#45;&gt;Node6 -->
<g id="edge5_Node000004_Node000006" class="edge">
<title>Node4&#45;&gt;Node6</title>
<g id="a_edge5_Node000004_Node000006"><a xlink:title=" ">
<path fill="none" stroke="#63b8ff" d="M162.33,-19.87C152.28,-18.77 141.97,-17.65 132.02,-16.57"/>
<polygon fill="#63b8ff" stroke="#63b8ff" points="167.57,-20.44 162.35,-22.13 165.08,-20.17 162.59,-19.9 162.59,-19.9 162.59,-19.9 165.08,-20.17 162.84,-17.66 167.57,-20.44 167.57,-20.44"/>
</a>
</g>
</g>
</g>
</svg>
