<?xml version="1.0" encoding="UTF-8" standalone="no"?>
<!DOCTYPE svg PUBLIC "-//W3C//DTD SVG 1.1//EN"
 "http://www.w3.org/Graphics/SVG/1.1/DTD/svg11.dtd">
<!-- Generated by graphviz version 2.43.0 (0)
 -->
<!-- Title: CardDatabase::~CardDatabase Pages: 1 -->
<svg width="712pt" height="76pt"
 viewBox="0.00 0.00 712.00 75.50" xmlns="http://www.w3.org/2000/svg" xmlns:xlink="http://www.w3.org/1999/xlink">
<g id="graph0" class="graph" transform="scale(1 1) rotate(0) translate(4 71.5)">
<title>CardDatabase::~CardDatabase</title>
<!-- Node1 -->
<g id="Node000001" class="node">
<title>Node1</title>
<g id="a_Node000001"><a xlink:title=" ">
<polygon fill="#999999" stroke="#666666" points="169,-40 0,-40 0,-21 169,-21 169,-40"/>
<text text-anchor="middle" x="84.5" y="-28" font-family="Helvetica,sans-Serif" font-size="10.00">CardDatabase::~CardDatabase</text>
</a>
</g>
</g>
<!-- Node2 -->
<g id="Node000002" class="node">
<title>Node2</title>
<g id="a_Node000002"><a xlink:href="../../d5/d45/classCardDatabase.html#a6b94e105b2f10c150e9fc81a8fbd48df" target="_top" xlink:title=" ">
<polygon fill="white" stroke="#666666" points="321,-40 205,-40 205,-21 321,-21 321,-40"/>
<text text-anchor="middle" x="263" y="-28" font-family="Helvetica,sans-Serif" font-size="10.00">CardDatabase::clear</text>
</a>
</g>
</g>
<!-- Node1&#45;&gt;Node2 -->
<g id="edge1_Node000001_Node000002" class="edge">
<title>Node1&#45;&gt;Node2</title>
<g id="a_edge1_Node000001_Node000002"><a xlink:title=" ">
<path fill="none" stroke="#63b8ff" d="M169.1,-30.5C179.42,-30.5 189.82,-30.5 199.74,-30.5"/>
<polygon fill="#63b8ff" stroke="#63b8ff" points="204.89,-30.5 199.89,-32.75 202.39,-30.5 199.89,-30.5 199.89,-30.5 199.89,-30.5 202.39,-30.5 199.89,-28.25 204.89,-30.5 204.89,-30.5"/>
</a>
</g>
</g>
<!-- Node3 -->
<g id="Node000003" class="node">
<title>Node3</title>
<g id="a_Node000003"><a xlink:href="../../d4/dfe/classICardDatabaseParser.html#a2586623f68369edcd6fcaa28d6ac1355" target="_top" xlink:title=" ">
<polygon fill="white" stroke="#666666" points="492.5,-67.5 373.5,-67.5 373.5,-37.5 492.5,-37.5 492.5,-67.5"/>
<text text-anchor="start" x="381.5" y="-55.5" font-family="Helvetica,sans-Serif" font-size="10.00">ICardDatabaseParser</text>
<text text-anchor="middle" x="433" y="-44.5" font-family="Helvetica,sans-Serif" font-size="10.00">::clearSetlist</text>
</a>
</g>
</g>
<!-- Node2&#45;&gt;Node3 -->
<g id="edge2_Node000002_Node000003" class="edge">
<title>Node2&#45;&gt;Node3</title>
<g id="a_edge2_Node000002_Node000003"><a xlink:title=" ">
<path fill="none" stroke="#63b8ff" d="M321.35,-38.01C336.46,-39.99 352.86,-42.14 368.29,-44.16"/>
<polygon fill="#63b8ff" stroke="#63b8ff" points="373.48,-44.84 368.23,-46.42 371.01,-44.51 368.53,-44.19 368.53,-44.19 368.53,-44.19 371.01,-44.51 368.82,-41.96 373.48,-44.84 373.48,-44.84"/>
</a>
</g>
</g>
<!-- Node4 -->
<g id="Node000004" class="node">
<title>Node4</title>
<g id="a_Node000004"><a xlink:href="../../d5/d45/classCardDatabase.html#ad58ff025ac9f4aab3bc840deeb689dd1" target="_top" xlink:title=" ">
<polygon fill="white" stroke="#666666" points="509,-19 357,-19 357,0 509,0 509,-19"/>
<text text-anchor="middle" x="433" y="-7" font-family="Helvetica,sans-Serif" font-size="10.00">CardDatabase::removeCard</text>
</a>
</g>
</g>
<!-- Node2&#45;&gt;Node4 -->
<g id="edge3_Node000002_Node000004" class="edge">
<title>Node2&#45;&gt;Node4</title>
<g id="a_edge3_Node000002_Node000004"><a xlink:title=" ">
<path fill="none" stroke="#63b8ff" d="M321.35,-23.33C331.15,-22.11 341.49,-20.81 351.76,-19.53"/>
<polygon fill="#63b8ff" stroke="#63b8ff" points="356.79,-18.9 352.11,-21.75 354.31,-19.21 351.83,-19.52 351.83,-19.52 351.83,-19.52 354.31,-19.21 351.55,-17.29 356.79,-18.9 356.79,-18.9"/>
</a>
</g>
</g>
<!-- Node5 -->
<g id="Node000005" class="node">
<title>Node5</title>
<g id="a_Node000005"><a xlink:href="../../d5/d45/classCardDatabase.html#a68b4169947d4d9ddbe3b76a19ddea3eb" target="_top" xlink:title=" ">
<polygon fill="white" stroke="#666666" points="704,-19 545,-19 545,0 704,0 704,-19"/>
<text text-anchor="middle" x="624.5" y="-7" font-family="Helvetica,sans-Serif" font-size="10.00">CardDatabase::cardRemoved</text>
</a>
</g>
</g>
<!-- Node4&#45;&gt;Node5 -->
<g id="edge4_Node000004_Node000005" class="edge">
<title>Node4&#45;&gt;Node5</title>
<g id="a_edge4_Node000004_Node000005"><a xlink:title=" ">
<path fill="none" stroke="#63b8ff" d="M509.17,-9.5C519.11,-9.5 529.36,-9.5 539.44,-9.5"/>
<polygon fill="#63b8ff" stroke="#63b8ff" points="544.69,-9.5 539.69,-11.75 542.19,-9.5 539.69,-9.5 539.69,-9.5 539.69,-9.5 542.19,-9.5 539.69,-7.25 544.69,-9.5 544.69,-9.5"/>
</a>
</g>
</g>
</g>
</svg>
