<?xml version="1.0" encoding="UTF-8" standalone="no"?>
<!DOCTYPE svg PUBLIC "-//W3C//DTD SVG 1.1//EN"
 "http://www.w3.org/Graphics/SVG/1.1/DTD/svg11.dtd">
<!-- Generated by graphviz version 2.43.0 (0)
 -->
<!-- Title: cockatrice/src/game/deckview/tabbed_deck_view_container.h Pages: 1 -->
<svg width="851pt" height="423pt"
 viewBox="0.00 0.00 851.00 423.00" xmlns="http://www.w3.org/2000/svg" xmlns:xlink="http://www.w3.org/1999/xlink">
<g id="graph0" class="graph" transform="scale(1 1) rotate(0) translate(4 419)">
<title>cockatrice/src/game/deckview/tabbed_deck_view_container.h</title>
<!-- Node1 -->
<g id="Node000001" class="node">
<title>Node1</title>
<g id="a_Node000001"><a xlink:title="TODO: Document this.">
<polygon fill="#999999" stroke="#666666" points="429.5,-415 298.5,-415 298.5,-374 429.5,-374 429.5,-415"/>
<text text-anchor="start" x="306.5" y="-403" font-family="Helvetica,sans-Serif" font-size="10.00">cockatrice/src/game</text>
<text text-anchor="start" x="306.5" y="-392" font-family="Helvetica,sans-Serif" font-size="10.00">/deckview/tabbed_deck</text>
<text text-anchor="middle" x="364" y="-381" font-family="Helvetica,sans-Serif" font-size="10.00">_view_container.h</text>
</a>
</g>
</g>
<!-- Node2 -->
<g id="Node000002" class="node">
<title>Node2</title>
<g id="a_Node000002"><a xlink:href="../../d2/df1/deck__view__container_8h.html" target="_top" xlink:title="TODO: Document this.">
<polygon fill="white" stroke="#666666" points="368,-338 240,-338 240,-319 368,-319 368,-338"/>
<text text-anchor="middle" x="304" y="-326" font-family="Helvetica,sans-Serif" font-size="10.00">deck_view_container.h</text>
</a>
</g>
</g>
<!-- Node1&#45;&gt;Node2 -->
<g id="edge1_Node000001_Node000002" class="edge">
<title>Node1&#45;&gt;Node2</title>
<g id="a_edge1_Node000001_Node000002"><a xlink:title=" ">
<path fill="none" stroke="#63b8ff" d="M345.67,-373.95C335.9,-363.53 324.17,-351.02 315.65,-341.93"/>
<polygon fill="#63b8ff" stroke="#63b8ff" points="312.21,-338.26 317.27,-340.37 313.92,-340.08 315.63,-341.91 315.63,-341.91 315.63,-341.91 313.92,-340.08 313.99,-343.45 312.21,-338.26 312.21,-338.26"/>
</a>
</g>
</g>
<!-- Node19 -->
<g id="Node000019" class="node">
<title>Node19</title>
<g id="a_Node000019"><a xlink:title=" ">
<polygon fill="#e0e0e0" stroke="#999999" points="461.5,-338 386.5,-338 386.5,-319 461.5,-319 461.5,-338"/>
<text text-anchor="middle" x="424" y="-326" font-family="Helvetica,sans-Serif" font-size="10.00">QTabWidget</text>
</a>
</g>
</g>
<!-- Node1&#45;&gt;Node19 -->
<g id="edge21_Node000001_Node000019" class="edge">
<title>Node1&#45;&gt;Node19</title>
<g id="a_edge21_Node000001_Node000019"><a xlink:title=" ">
<path fill="none" stroke="#63b8ff" d="M382.33,-373.95C392.1,-363.53 403.83,-351.02 412.35,-341.93"/>
<polygon fill="#63b8ff" stroke="#63b8ff" points="415.79,-338.26 414.01,-343.45 414.08,-340.08 412.37,-341.91 412.37,-341.91 412.37,-341.91 414.08,-340.08 410.73,-340.37 415.79,-338.26 415.79,-338.26"/>
</a>
</g>
</g>
<!-- Node3 -->
<g id="Node000003" class="node">
<title>Node3</title>
<g id="a_Node000003"><a xlink:href="../../da/d36/deck__loader_8h.html" target="_top" xlink:title="TODO: Document this.">
<polygon fill="white" stroke="#666666" points="305.5,-283 182.5,-283 182.5,-253 305.5,-253 305.5,-283"/>
<text text-anchor="start" x="190.5" y="-271" font-family="Helvetica,sans-Serif" font-size="10.00">../../interface/deck</text>
<text text-anchor="middle" x="244" y="-260" font-family="Helvetica,sans-Serif" font-size="10.00">_loader/deck_loader.h</text>
</a>
</g>
</g>
<!-- Node2&#45;&gt;Node3 -->
<g id="edge2_Node000002_Node000003" class="edge">
<title>Node2&#45;&gt;Node3</title>
<g id="a_edge2_Node000002_Node000003"><a xlink:title=" ">
<path fill="none" stroke="#63b8ff" d="M295.15,-318.87C286.48,-310.42 273.02,-297.29 262.08,-286.63"/>
<polygon fill="#63b8ff" stroke="#63b8ff" points="258.48,-283.11 263.63,-284.99 260.27,-284.86 262.06,-286.61 262.06,-286.61 262.06,-286.61 260.27,-284.86 260.49,-288.22 258.48,-283.11 258.48,-283.11"/>
</a>
</g>
</g>
<!-- Node18 -->
<g id="Node000018" class="node">
<title>Node18</title>
<g id="a_Node000018"><a xlink:title=" ">
<polygon fill="#e0e0e0" stroke="#999999" points="404,-277.5 324,-277.5 324,-258.5 404,-258.5 404,-277.5"/>
<text text-anchor="middle" x="364" y="-265.5" font-family="Helvetica,sans-Serif" font-size="10.00">QPushButton</text>
</a>
</g>
</g>
<!-- Node2&#45;&gt;Node18 -->
<g id="edge20_Node000002_Node000018" class="edge">
<title>Node2&#45;&gt;Node18</title>
<g id="a_edge20_Node000002_Node000018"><a xlink:title=" ">
<path fill="none" stroke="#63b8ff" d="M312.85,-318.87C323.05,-308.93 339.86,-292.53 351.41,-281.27"/>
<polygon fill="#63b8ff" stroke="#63b8ff" points="355.11,-277.67 353.1,-282.77 353.32,-279.41 351.53,-281.16 351.53,-281.16 351.53,-281.16 353.32,-279.41 349.96,-279.55 355.11,-277.67 355.11,-277.67"/>
</a>
</g>
</g>
<!-- Node4 -->
<g id="Node000004" class="node">
<title>Node4</title>
<g id="a_Node000004"><a xlink:title=" ">
<polygon fill="#e0e0e0" stroke="#999999" points="155.5,-211.5 48.5,-211.5 48.5,-192.5 155.5,-192.5 155.5,-211.5"/>
<text text-anchor="middle" x="102" y="-199.5" font-family="Helvetica,sans-Serif" font-size="10.00">QLoggingCategory</text>
</a>
</g>
</g>
<!-- Node3&#45;&gt;Node4 -->
<g id="edge3_Node000003_Node000004" class="edge">
<title>Node3&#45;&gt;Node4</title>
<g id="a_edge3_Node000003_Node000004"><a xlink:title=" ">
<path fill="none" stroke="#63b8ff" d="M212.84,-252.95C186.51,-241.09 149.37,-224.35 125.49,-213.59"/>
<polygon fill="#63b8ff" stroke="#63b8ff" points="120.9,-211.52 126.38,-211.52 123.18,-212.54 125.46,-213.57 125.46,-213.57 125.46,-213.57 123.18,-212.54 124.53,-215.62 120.9,-211.52 120.9,-211.52"/>
</a>
</g>
</g>
<!-- Node5 -->
<g id="Node000005" class="node">
<title>Node5</title>
<g id="a_Node000005"><a xlink:title=" ">
<polygon fill="#e0e0e0" stroke="#999999" points="230,-211.5 174,-211.5 174,-192.5 230,-192.5 230,-211.5"/>
<text text-anchor="middle" x="202" y="-199.5" font-family="Helvetica,sans-Serif" font-size="10.00">QPrinter</text>
</a>
</g>
</g>
<!-- Node3&#45;&gt;Node5 -->
<g id="edge4_Node000003_Node000005" class="edge">
<title>Node3&#45;&gt;Node5</title>
<g id="a_edge4_Node000003_Node000005"><a xlink:title=" ">
<path fill="none" stroke="#63b8ff" d="M234.68,-252.8C227.49,-241.84 217.62,-226.8 210.62,-216.13"/>
<polygon fill="#63b8ff" stroke="#63b8ff" points="207.8,-211.84 212.43,-214.79 209.18,-213.93 210.55,-216.02 210.55,-216.02 210.55,-216.02 209.18,-213.93 208.67,-217.26 207.8,-211.84 207.8,-211.84"/>
</a>
</g>
</g>
<!-- Node6 -->
<g id="Node000006" class="node">
<title>Node6</title>
<g id="a_Node000006"><a xlink:title=" ">
<polygon fill="#e0e0e0" stroke="#999999" points="324,-211.5 248,-211.5 248,-192.5 324,-192.5 324,-211.5"/>
<text text-anchor="middle" x="286" y="-199.5" font-family="Helvetica,sans-Serif" font-size="10.00">QTextCursor</text>
</a>
</g>
</g>
<!-- Node3&#45;&gt;Node6 -->
<g id="edge5_Node000003_Node000006" class="edge">
<title>Node3&#45;&gt;Node6</title>
<g id="a_edge5_Node000003_Node000006"><a xlink:title=" ">
<path fill="none" stroke="#63b8ff" d="M253.32,-252.8C260.51,-241.84 270.38,-226.8 277.38,-216.13"/>
<polygon fill="#63b8ff" stroke="#63b8ff" points="280.2,-211.84 279.33,-217.26 278.82,-213.93 277.45,-216.02 277.45,-216.02 277.45,-216.02 278.82,-213.93 275.57,-214.79 280.2,-211.84 280.2,-211.84"/>
</a>
</g>
</g>
<!-- Node7 -->
<g id="Node000007" class="node">
<title>Node7</title>
<g id="a_Node000007"><a xlink:href="../../d7/d1a/deck__list_8h.html" target="_top" xlink:title=" ">
<polygon fill="white" stroke="#666666" points="446,-217 342,-217 342,-187 446,-187 446,-217"/>
<text text-anchor="start" x="350" y="-205" font-family="Helvetica,sans-Serif" font-size="10.00">libcockatrice/deck</text>
<text text-anchor="middle" x="394" y="-194" font-family="Helvetica,sans-Serif" font-size="10.00">_list/deck_list.h</text>
</a>
</g>
</g>
<!-- Node3&#45;&gt;Node7 -->
<g id="edge6_Node000003_Node000007" class="edge">
<title>Node3&#45;&gt;Node7</title>
<g id="a_edge6_Node000003_Node000007"><a xlink:title=" ">
<path fill="none" stroke="#63b8ff" d="M276.92,-252.95C300.36,-242.95 331.92,-229.49 356.37,-219.06"/>
<polygon fill="#63b8ff" stroke="#63b8ff" points="361.16,-217.01 357.44,-221.04 358.86,-217.99 356.56,-218.97 356.56,-218.97 356.56,-218.97 358.86,-217.99 355.68,-216.91 361.16,-217.01 361.16,-217.01"/>
</a>
</g>
</g>
<!-- Node8 -->
<g id="Node000008" class="node">
<title>Node8</title>
<g id="a_Node000008"><a xlink:href="../../dd/db5/deck__list__memento_8h.html" target="_top" xlink:title=" ">
<polygon fill="white" stroke="#666666" points="404,-145.5 282,-145.5 282,-126.5 404,-126.5 404,-145.5"/>
<text text-anchor="middle" x="343" y="-133.5" font-family="Helvetica,sans-Serif" font-size="10.00">deck_list_memento.h</text>
</a>
</g>
</g>
<!-- Node7&#45;&gt;Node8 -->
<g id="edge7_Node000007_Node000008" class="edge">
<title>Node7&#45;&gt;Node8</title>
<g id="a_edge7_Node000007_Node000008"><a xlink:title=" ">
<path fill="none" stroke="#63b8ff" d="M382.68,-186.8C373.87,-175.74 361.75,-160.54 353.23,-149.84"/>
<polygon fill="#63b8ff" stroke="#63b8ff" points="350.05,-145.84 354.92,-148.35 351.61,-147.8 353.16,-149.75 353.16,-149.75 353.16,-149.75 351.61,-147.8 351.4,-151.16 350.05,-145.84 350.05,-145.84"/>
</a>
</g>
</g>
<!-- Node10 -->
<g id="Node000010" class="node">
<title>Node10</title>
<g id="a_Node000010"><a xlink:href="../../d9/d65/inner__deck__list__node_8h.html" target="_top" xlink:title="Defines the InnerDecklistNode class, which represents structural nodes (zones and groups) in the deck...">
<polygon fill="white" stroke="#666666" points="226,-145.5 98,-145.5 98,-126.5 226,-126.5 226,-145.5"/>
<text text-anchor="middle" x="162" y="-133.5" font-family="Helvetica,sans-Serif" font-size="10.00">inner_deck_list_node.h</text>
</a>
</g>
</g>
<!-- Node7&#45;&gt;Node10 -->
<g id="edge9_Node000007_Node000010" class="edge">
<title>Node7&#45;&gt;Node10</title>
<g id="a_edge9_Node000007_Node000010"><a xlink:title=" ">
<path fill="none" stroke="#63b8ff" d="M343.09,-186.95C299.17,-174.84 236.86,-157.65 197.97,-146.92"/>
<polygon fill="#63b8ff" stroke="#63b8ff" points="192.88,-145.52 198.29,-144.68 195.29,-146.18 197.7,-146.85 197.7,-146.85 197.7,-146.85 195.29,-146.18 197.1,-149.02 192.88,-145.52 192.88,-145.52"/>
</a>
</g>
</g>
<!-- Node12 -->
<g id="Node000012" class="node">
<title>Node12</title>
<g id="a_Node000012"><a xlink:title=" ">
<polygon fill="#e0e0e0" stroke="#999999" points="150,-19 0,-19 0,0 150,0 150,-19"/>
<text text-anchor="middle" x="75" y="-7" font-family="Helvetica,sans-Serif" font-size="10.00">QtCore/QXmlStreamReader</text>
</a>
</g>
</g>
<!-- Node7&#45;&gt;Node12 -->
<g id="edge15_Node000007_Node000012" class="edge">
<title>Node7&#45;&gt;Node12</title>
<g id="a_edge15_Node000007_Node000012"><a xlink:title=" ">
<path fill="none" stroke="#63b8ff" d="M341.81,-188.74C338.84,-188.13 335.88,-187.54 333,-187 279.14,-176.86 126.83,-190.66 89,-151 55.85,-116.25 65.24,-52.39 71.48,-24.33"/>
<polygon fill="#63b8ff" stroke="#63b8ff" points="72.67,-19.22 73.72,-24.6 72.1,-21.65 71.53,-24.09 71.53,-24.09 71.53,-24.09 72.1,-21.65 69.34,-23.58 72.67,-19.22 72.67,-19.22"/>
</a>
</g>
</g>
<!-- Node13 -->
<g id="Node000013" class="node">
<title>Node13</title>
<g id="a_Node000013"><a xlink:title=" ">
<polygon fill="#e0e0e0" stroke="#999999" points="323,-19 177,-19 177,0 323,0 323,-19"/>
<text text-anchor="middle" x="250" y="-7" font-family="Helvetica,sans-Serif" font-size="10.00">QtCore/QXmlStreamWriter</text>
</a>
</g>
</g>
<!-- Node7&#45;&gt;Node13 -->
<g id="edge16_Node000007_Node000013" class="edge">
<title>Node7&#45;&gt;Node13</title>
<g id="a_edge16_Node000007_Node000013"><a xlink:title=" ">
<path fill="none" stroke="#63b8ff" d="M347.43,-186.97C317.65,-177.05 282.82,-163.38 273,-151 243.05,-113.24 245.38,-51.48 248.19,-24.2"/>
<polygon fill="#63b8ff" stroke="#63b8ff" points="248.75,-19.22 250.43,-24.44 248.47,-21.7 248.19,-24.19 248.19,-24.19 248.19,-24.19 248.47,-21.7 245.96,-23.94 248.75,-19.22 248.75,-19.22"/>
</a>
</g>
</g>
<!-- Node14 -->
<g id="Node000014" class="node">
<title>Node14</title>
<g id="a_Node000014"><a xlink:title=" ">
<polygon fill="#e0e0e0" stroke="#999999" points="467.5,-145.5 422.5,-145.5 422.5,-126.5 467.5,-126.5 467.5,-145.5"/>
<text text-anchor="middle" x="445" y="-133.5" font-family="Helvetica,sans-Serif" font-size="10.00">QMap</text>
</a>
</g>
</g>
<!-- Node7&#45;&gt;Node14 -->
<g id="edge13_Node000007_Node000014" class="edge">
<title>Node7&#45;&gt;Node14</title>
<g id="a_edge13_Node000007_Node000014"><a xlink:title=" ">
<path fill="none" stroke="#63b8ff" d="M405.32,-186.8C414.13,-175.74 426.25,-160.54 434.77,-149.84"/>
<polygon fill="#63b8ff" stroke="#63b8ff" points="437.95,-145.84 436.6,-151.16 436.39,-147.8 434.84,-149.75 434.84,-149.75 434.84,-149.75 436.39,-147.8 433.08,-148.35 437.95,-145.84 437.95,-145.84"/>
</a>
</g>
</g>
<!-- Node15 -->
<g id="Node000015" class="node">
<title>Node15</title>
<g id="a_Node000015"><a xlink:title=" ">
<polygon fill="#e0e0e0" stroke="#999999" points="540.5,-145.5 485.5,-145.5 485.5,-126.5 540.5,-126.5 540.5,-145.5"/>
<text text-anchor="middle" x="513" y="-133.5" font-family="Helvetica,sans-Serif" font-size="10.00">QVector</text>
</a>
</g>
</g>
<!-- Node7&#45;&gt;Node15 -->
<g id="edge14_Node000007_Node000015" class="edge">
<title>Node7&#45;&gt;Node15</title>
<g id="a_edge14_Node000007_Node000015"><a xlink:title=" ">
<path fill="none" stroke="#63b8ff" d="M420.12,-186.95C441.9,-175.24 472.52,-158.77 492.56,-147.99"/>
<polygon fill="#63b8ff" stroke="#63b8ff" points="497.16,-145.52 493.83,-149.87 494.96,-146.7 492.76,-147.89 492.76,-147.89 492.76,-147.89 494.96,-146.7 491.69,-145.9 497.16,-145.52 497.16,-145.52"/>
</a>
</g>
</g>
<!-- Node16 -->
<g id="Node000016" class="node">
<title>Node16</title>
<g id="a_Node000016"><a xlink:title=" ">
<polygon fill="#e0e0e0" stroke="#999999" points="715,-151 559,-151 559,-121 715,-121 715,-151"/>
<text text-anchor="start" x="567" y="-139" font-family="Helvetica,sans-Serif" font-size="10.00">libcockatrice/protocol</text>
<text text-anchor="middle" x="637" y="-128" font-family="Helvetica,sans-Serif" font-size="10.00">/pb/move_card_to_zone.pb.h</text>
</a>
</g>
</g>
<!-- Node7&#45;&gt;Node16 -->
<g id="edge17_Node000007_Node000016" class="edge">
<title>Node7&#45;&gt;Node16</title>
<g id="a_edge17_Node000007_Node000016"><a xlink:title=" ">
<path fill="none" stroke="#63b8ff" d="M446.13,-187.27C485.13,-177 538.46,-162.95 578.84,-152.32"/>
<polygon fill="#63b8ff" stroke="#63b8ff" points="583.7,-151.04 579.44,-154.49 581.28,-151.68 578.86,-152.31 578.86,-152.31 578.86,-152.31 581.28,-151.68 578.29,-150.14 583.7,-151.04 583.7,-151.04"/>
</a>
</g>
</g>
<!-- Node17 -->
<g id="Node000017" class="node">
<title>Node17</title>
<g id="a_Node000017"><a xlink:href="../../dc/d89/card__ref_8h.html" target="_top" xlink:title=" ">
<polygon fill="white" stroke="#666666" points="843,-151 733,-151 733,-121 843,-121 843,-151"/>
<text text-anchor="start" x="741" y="-139" font-family="Helvetica,sans-Serif" font-size="10.00">libcockatrice/utility</text>
<text text-anchor="middle" x="788" y="-128" font-family="Helvetica,sans-Serif" font-size="10.00">/card_ref.h</text>
</a>
</g>
</g>
<!-- Node7&#45;&gt;Node17 -->
<g id="edge18_Node000007_Node000017" class="edge">
<title>Node7&#45;&gt;Node17</title>
<g id="a_edge18_Node000007_Node000017"><a xlink:title=" ">
<path fill="none" stroke="#63b8ff" d="M446.19,-194.16C511.39,-185.37 626.28,-169.07 724,-151 725.27,-150.76 726.56,-150.52 727.85,-150.28"/>
<polygon fill="#63b8ff" stroke="#63b8ff" points="732.89,-149.29 728.41,-152.46 730.43,-149.77 727.98,-150.25 727.98,-150.25 727.98,-150.25 730.43,-149.77 727.55,-148.04 732.89,-149.29 732.89,-149.29"/>
</a>
</g>
</g>
<!-- Node9 -->
<g id="Node000009" class="node">
<title>Node9</title>
<g id="a_Node000009"><a xlink:title=" ">
<polygon fill="#e0e0e0" stroke="#999999" points="591.5,-79.5 538.5,-79.5 538.5,-60.5 591.5,-60.5 591.5,-79.5"/>
<text text-anchor="middle" x="565" y="-67.5" font-family="Helvetica,sans-Serif" font-size="10.00">QString</text>
</a>
</g>
</g>
<!-- Node8&#45;&gt;Node9 -->
<g id="edge8_Node000008_Node000009" class="edge">
<title>Node8&#45;&gt;Node9</title>
<g id="a_edge8_Node000008_Node000009"><a xlink:title=" ">
<path fill="none" stroke="#63b8ff" d="M372.94,-126.37C414.79,-114.3 490.45,-92.49 533.25,-80.15"/>
<polygon fill="#63b8ff" stroke="#63b8ff" points="538.3,-78.7 534.12,-82.24 535.9,-79.39 533.5,-80.08 533.5,-80.08 533.5,-80.08 535.9,-79.39 532.88,-77.92 538.3,-78.7 538.3,-78.7"/>
</a>
</g>
</g>
<!-- Node11 -->
<g id="Node000011" class="node">
<title>Node11</title>
<g id="a_Node000011"><a xlink:href="../../d8/d7d/abstract__deck__list__node_8h.html" target="_top" xlink:title="Defines the AbstractDecklistNode base class used as the foundation for all nodes in the deck list tre...">
<polygon fill="white" stroke="#666666" points="214.5,-85 109.5,-85 109.5,-55 214.5,-55 214.5,-85"/>
<text text-anchor="start" x="117.5" y="-73" font-family="Helvetica,sans-Serif" font-size="10.00">abstract_deck_list</text>
<text text-anchor="middle" x="162" y="-62" font-family="Helvetica,sans-Serif" font-size="10.00">_node.h</text>
</a>
</g>
</g>
<!-- Node10&#45;&gt;Node11 -->
<g id="edge10_Node000010_Node000011" class="edge">
<title>Node10&#45;&gt;Node11</title>
<g id="a_edge10_Node000010_Node000011"><a xlink:title=" ">
<path fill="none" stroke="#63b8ff" d="M162,-126.37C162,-117.26 162,-102.58 162,-90.63"/>
<polygon fill="#63b8ff" stroke="#63b8ff" points="162,-85.36 164.25,-90.36 162,-87.86 162,-90.36 162,-90.36 162,-90.36 162,-87.86 159.75,-90.36 162,-85.36 162,-85.36"/>
</a>
</g>
</g>
<!-- Node11&#45;&gt;Node12 -->
<g id="edge11_Node000011_Node000012" class="edge">
<title>Node11&#45;&gt;Node12</title>
<g id="a_edge11_Node000011_Node000012"><a xlink:title=" ">
<path fill="none" stroke="#63b8ff" d="M140.94,-54.84C126.03,-44.81 106.28,-31.53 92.29,-22.13"/>
<polygon fill="#63b8ff" stroke="#63b8ff" points="87.78,-19.09 93.19,-20.02 89.86,-20.49 91.93,-21.88 91.93,-21.88 91.93,-21.88 89.86,-20.49 90.68,-23.75 87.78,-19.09 87.78,-19.09"/>
</a>
</g>
</g>
<!-- Node11&#45;&gt;Node13 -->
<g id="edge12_Node000011_Node000013" class="edge">
<title>Node11&#45;&gt;Node13</title>
<g id="a_edge12_Node000011_Node000013"><a xlink:title=" ">
<path fill="none" stroke="#63b8ff" d="M183.3,-54.84C198.51,-44.73 218.71,-31.3 232.88,-21.88"/>
<polygon fill="#63b8ff" stroke="#63b8ff" points="237.07,-19.09 234.15,-23.74 234.99,-20.48 232.91,-21.86 232.91,-21.86 232.91,-21.86 234.99,-20.48 231.66,-19.99 237.07,-19.09 237.07,-19.09"/>
</a>
</g>
</g>
<!-- Node17&#45;&gt;Node9 -->
<g id="edge19_Node000017_Node000009" class="edge">
<title>Node17&#45;&gt;Node9</title>
<g id="a_edge19_Node000017_Node000009"><a xlink:title=" ">
<path fill="none" stroke="#63b8ff" d="M739.06,-120.95C695.63,-108.49 633.46,-90.65 596.37,-80"/>
<polygon fill="#63b8ff" stroke="#63b8ff" points="591.53,-78.61 596.96,-77.83 593.93,-79.3 596.34,-79.99 596.34,-79.99 596.34,-79.99 593.93,-79.3 595.72,-82.16 591.53,-78.61 591.53,-78.61"/>
</a>
</g>
</g>
</g>
</svg>
