<?xml version="1.0" encoding="UTF-8" standalone="no"?>
<!DOCTYPE svg PUBLIC "-//W3C//DTD SVG 1.1//EN"
 "http://www.w3.org/Graphics/SVG/1.1/DTD/svg11.dtd">
<!-- Generated by graphviz version 2.43.0 (0)
 -->
<!-- Title: tests/clamped_arithmetic_test.cpp Pages: 1 -->
<svg width="292pt" height="159pt"
 viewBox="0.00 0.00 292.00 159.00" xmlns="http://www.w3.org/2000/svg" xmlns:xlink="http://www.w3.org/1999/xlink">

<svg id="main" version="1.1" xmlns="http://www.w3.org/2000/svg" xmlns:xlink="http://www.w3.org/1999/xlink" xml:space="preserve">

<style type="text/css"><![CDATA[
.node, .edge {opacity: 0.7;}
.node.selected, .edge.selected {opacity: 1;}
.edge:hover path { stroke: red; }
.edge:hover polygon { stroke: red; fill: red; }
]]></style>
<script type="application/ecmascript" xlink:href="../../svg.min.js"/>
<svg id="graph" class="graph">
<g id="graph0" class="graph" transform="scale(1 1) rotate(0) translate(4 155)">
<title>tests/clamped_arithmetic_test.cpp</title>
<!-- Node1 -->
<g id="Node000001" class="node">
<title>Node1</title>
<g id="a_Node000001"><a xlink:title="Tests for shared helpers in clamped_arithmetic.h.">
<polygon fill="#999999" stroke="#666666" points="229.5,-151 88.5,-151 88.5,-121 229.5,-121 229.5,-151"/>
<text text-anchor="start" x="96.5" y="-139" font-family="Helvetica,sans-Serif" font-size="10.00">tests/clamped_arithmetic</text>
<text text-anchor="middle" x="159" y="-128" font-family="Helvetica,sans-Serif" font-size="10.00">_test.cpp</text>
</a>
</g>
</g>
<!-- Node2 -->
<g id="Node000002" class="node">
<title>Node2</title>
<g id="a_Node000002"><a xlink:title=" ">
<polygon fill="#e0e0e0" stroke="#999999" points="78,-79.5 0,-79.5 0,-60.5 78,-60.5 78,-79.5"/>
<text text-anchor="middle" x="39" y="-67.5" font-family="Helvetica,sans-Serif" font-size="10.00">gtest/gtest.h</text>
</a>
</g>
</g>
<!-- Node1&#45;&gt;Node2 -->
<g id="edge1_Node000001_Node000002" class="edge">
<title>Node1&#45;&gt;Node2</title>
<g id="a_edge1_Node000001_Node000002"><a xlink:title=" ">
<path fill="none" stroke="#63b8ff" d="M132.67,-120.95C110.69,-109.24 79.82,-92.77 59.61,-81.99"/>
<polygon fill="#63b8ff" stroke="#63b8ff" points="54.97,-79.52 60.44,-79.88 57.18,-80.69 59.38,-81.87 59.38,-81.87 59.38,-81.87 57.18,-80.69 58.32,-83.86 54.97,-79.52 54.97,-79.52"/>
</a>
</g>
</g>
<!-- Node3 -->
<g id="Node000003" class="node">
<title>Node3</title>
<g id="a_Node000003"><a xlink:href="../../d9/d2a/clamped__arithmetic_8h.html" target="_top" xlink:title=" ">
<polygon fill="white" stroke="#666666" points="222,-85 96,-85 96,-55 222,-55 222,-85"/>
<text text-anchor="start" x="104" y="-73" font-family="Helvetica,sans-Serif" font-size="10.00">libcockatrice/utility</text>
<text text-anchor="middle" x="159" y="-62" font-family="Helvetica,sans-Serif" font-size="10.00">/clamped_arithmetic.h</text>
</a>
</g>
</g>
<!-- Node1&#45;&gt;Node3 -->
<g id="edge2_Node000001_Node000003" class="edge">
<title>Node1&#45;&gt;Node3</title>
<g id="a_edge2_Node000001_Node000003"><a xlink:title=" ">
<path fill="none" stroke="#63b8ff" d="M159,-120.8C159,-111.85 159,-100.18 159,-90.38"/>
<polygon fill="#63b8ff" stroke="#63b8ff" points="159,-85.16 161.25,-90.16 159,-87.66 159,-90.16 159,-90.16 159,-90.16 159,-87.66 156.75,-90.16 159,-85.16 159,-85.16"/>
</a>
</g>
</g>
<!-- Node6 -->
<g id="Node000006" class="node">
<title>Node6</title>
<g id="a_Node000006"><a xlink:title=" ">
<polygon fill="#e0e0e0" stroke="#999999" points="284,-79.5 240,-79.5 240,-60.5 284,-60.5 284,-79.5"/>
<text text-anchor="middle" x="262" y="-67.5" font-family="Helvetica,sans-Serif" font-size="10.00">limits</text>
</a>
</g>
</g>
<!-- Node1&#45;&gt;Node6 -->
<g id="edge5_Node000001_Node000006" class="edge">
<title>Node1&#45;&gt;Node6</title>
<g id="a_edge5_Node000001_Node000006"><a xlink:title=" ">
<path fill="none" stroke="#63b8ff" d="M181.6,-120.95C200.22,-109.38 226.3,-93.18 243.64,-82.41"/>
<polygon fill="#63b8ff" stroke="#63b8ff" points="248.29,-79.52 245.23,-84.07 246.17,-80.84 244.05,-82.16 244.05,-82.16 244.05,-82.16 246.17,-80.84 242.86,-80.25 248.29,-79.52 248.29,-79.52"/>
</a>
</g>
</g>
<!-- Node4 -->
<g id="Node000004" class="node">
<title>Node4</title>
<g id="a_Node000004"><a xlink:title=" ">
<polygon fill="#e0e0e0" stroke="#999999" points="151.5,-19 92.5,-19 92.5,0 151.5,0 151.5,-19"/>
<text text-anchor="middle" x="122" y="-7" font-family="Helvetica,sans-Serif" font-size="10.00">QtGlobal</text>
</a>
</g>
</g>
<!-- Node3&#45;&gt;Node4 -->
<g id="edge3_Node000003_Node000004" class="edge">
<title>Node3&#45;&gt;Node4</title>
<g id="a_edge3_Node000003_Node000004"><a xlink:title=" ">
<path fill="none" stroke="#63b8ff" d="M150.04,-54.84C144.01,-45.31 136.12,-32.83 130.25,-23.54"/>
<polygon fill="#63b8ff" stroke="#63b8ff" points="127.54,-19.27 132.12,-22.29 128.88,-21.38 130.22,-23.49 130.22,-23.49 130.22,-23.49 128.88,-21.38 128.32,-24.69 127.54,-19.27 127.54,-19.27"/>
</a>
</g>
</g>
<!-- Node5 -->
<g id="Node000005" class="node">
<title>Node5</title>
<g id="a_Node000005"><a xlink:title=" ">
<polygon fill="#e0e0e0" stroke="#999999" points="220,-19 170,-19 170,0 220,0 220,-19"/>
<text text-anchor="middle" x="195" y="-7" font-family="Helvetica,sans-Serif" font-size="10.00">cstdint</text>
</a>
</g>
</g>
<!-- Node3&#45;&gt;Node5 -->
<g id="edge4_Node000003_Node000005" class="edge">
<title>Node3&#45;&gt;Node5</title>
<g id="a_edge4_Node000003_Node000005"><a xlink:title=" ">
<path fill="none" stroke="#63b8ff" d="M167.71,-54.84C173.58,-45.31 181.26,-32.83 186.97,-23.54"/>
<polygon fill="#63b8ff" stroke="#63b8ff" points="189.61,-19.27 188.9,-24.7 188.3,-21.4 186.99,-23.52 186.99,-23.52 186.99,-23.52 188.3,-21.4 185.07,-22.35 189.61,-19.27 189.61,-19.27"/>
</a>
</g>
</g>
</g>
</svg>
</svg>

<style type='text/css'>
<![CDATA[
[data-mouse-over-selected='false'] { opacity: 0.7; }
[data-mouse-over-selected='true']  { opacity: 1.0; }
]]>
</style>
<script type="application/ecmascript"><![CDATA[
document.addEventListener('DOMContentLoaded', (event) => {
  highlightEdges();
  highlightAdjacentNodes();
});
]]></script>
</svg>
