<?xml version="1.0" encoding="UTF-8" standalone="no"?>
<!DOCTYPE svg PUBLIC "-//W3C//DTD SVG 1.1//EN"
 "http://www.w3.org/Graphics/SVG/1.1/DTD/svg11.dtd">
<!-- Generated by graphviz version 2.43.0 (0)
 -->
<!-- Title: QxtSmtp::connectToSecureHost Pages: 1 -->
<svg width="712pt" height="64pt"
 viewBox="0.00 0.00 712.00 64.00" xmlns="http://www.w3.org/2000/svg" xmlns:xlink="http://www.w3.org/1999/xlink">
<g id="graph0" class="graph" transform="scale(1 1) rotate(0) translate(4 60)">
<title>QxtSmtp::connectToSecureHost</title>
<!-- Node1 -->
<g id="Node000001" class="node">
<title>Node1</title>
<g id="a_Node000001"><a xlink:title=" ">
<polygon fill="#999999" stroke="#666666" points="704,-37 534,-37 534,-18 704,-18 704,-37"/>
<text text-anchor="middle" x="619" y="-25" font-family="Helvetica,sans-Serif" font-size="10.00">QxtSmtp::connectToSecureHost</text>
</a>
</g>
</g>
<!-- Node2 -->
<g id="Node000002" class="node">
<title>Node2</title>
<g id="a_Node000002"><a xlink:href="../../de/d8a/classQxtSmtp.html#a7f5b9e89f0a0a94c975bfd69495fbc11" target="_top" xlink:title=" ">
<polygon fill="white" stroke="#666666" points="498,-56 328,-56 328,-37 498,-37 498,-56"/>
<text text-anchor="middle" x="413" y="-44" font-family="Helvetica,sans-Serif" font-size="10.00">QxtSmtp::connectToSecureHost</text>
</a>
</g>
</g>
<!-- Node1&#45;&gt;Node2 -->
<g id="edge1_Node000001_Node000002" class="edge">
<title>Node1&#45;&gt;Node2</title>
<g id="a_edge1_Node000001_Node000002"><a xlink:title=" ">
<path fill="none" stroke="#63b8ff" d="M528.6,-35.83C518.53,-36.76 508.29,-37.72 498.29,-38.65"/>
<polygon fill="#63b8ff" stroke="#63b8ff" points="533.85,-35.34 529.08,-38.04 531.36,-35.57 528.87,-35.8 528.87,-35.8 528.87,-35.8 531.36,-35.57 528.66,-33.56 533.85,-35.34 533.85,-35.34"/>
</a>
</g>
</g>
<!-- Node3 -->
<g id="Node000003" class="node">
<title>Node3</title>
<g id="a_Node000003"><a xlink:href="../../d7/d8f/classSmtpClient.html#a20ecf38fa5530ac7cbef09c5c51dc95c" target="_top" xlink:title=" ">
<polygon fill="white" stroke="#666666" points="486,-19 340,-19 340,0 486,0 486,-19"/>
<text text-anchor="middle" x="413" y="-7" font-family="Helvetica,sans-Serif" font-size="10.00">SmtpClient::sendAllEmails</text>
</a>
</g>
</g>
<!-- Node1&#45;&gt;Node3 -->
<g id="edge2_Node000001_Node000003" class="edge">
<title>Node1&#45;&gt;Node3</title>
<g id="a_edge2_Node000001_Node000003"><a xlink:title=" ">
<path fill="none" stroke="#63b8ff" d="M528.64,-19.62C514.47,-18.36 499.96,-17.09 486.25,-15.87"/>
<polygon fill="#63b8ff" stroke="#63b8ff" points="533.85,-20.07 528.67,-21.88 531.36,-19.86 528.87,-19.64 528.87,-19.64 528.87,-19.64 531.36,-19.86 529.06,-17.39 533.85,-20.07 533.85,-20.07"/>
</a>
</g>
</g>
<!-- Node4 -->
<g id="Node000004" class="node">
<title>Node4</title>
<g id="a_Node000004"><a xlink:href="../../d5/d0e/classServatrice.html#a68e0c50f6eb27af2efd8a3d6ae39882f" target="_top" xlink:title=" ">
<polygon fill="white" stroke="#666666" points="292,-19 155,-19 155,0 292,0 292,-19"/>
<text text-anchor="middle" x="223.5" y="-7" font-family="Helvetica,sans-Serif" font-size="10.00">Servatrice::statusUpdate</text>
</a>
</g>
</g>
<!-- Node3&#45;&gt;Node4 -->
<g id="edge3_Node000003_Node000004" class="edge">
<title>Node3&#45;&gt;Node4</title>
<g id="a_edge3_Node000003_Node000004"><a xlink:title=" ">
<path fill="none" stroke="#63b8ff" d="M334.6,-9.5C320.49,-9.5 305.87,-9.5 292.07,-9.5"/>
<polygon fill="#63b8ff" stroke="#63b8ff" points="339.78,-9.5 334.78,-11.75 337.28,-9.5 334.78,-9.5 334.78,-9.5 334.78,-9.5 337.28,-9.5 334.78,-7.25 339.78,-9.5 339.78,-9.5"/>
</a>
</g>
</g>
<!-- Node5 -->
<g id="Node000005" class="node">
<title>Node5</title>
<g id="a_Node000005"><a xlink:href="../../d5/d0e/classServatrice.html#a02e7c7603e41e4819c3820e9336b3a3e" target="_top" xlink:title=" ">
<polygon fill="white" stroke="#666666" points="119,-19 0,-19 0,0 119,0 119,-19"/>
<text text-anchor="middle" x="59.5" y="-7" font-family="Helvetica,sans-Serif" font-size="10.00">Servatrice::initServer</text>
</a>
</g>
</g>
<!-- Node4&#45;&gt;Node5 -->
<g id="edge4_Node000004_Node000005" class="edge">
<title>Node4&#45;&gt;Node5</title>
<g id="a_edge4_Node000004_Node000005"><a xlink:title=" ">
<path fill="none" stroke="#63b8ff" d="M149.46,-9.5C139.34,-9.5 129.06,-9.5 119.24,-9.5"/>
<polygon fill="#63b8ff" stroke="#63b8ff" points="154.74,-9.5 149.74,-11.75 152.24,-9.5 149.74,-9.5 149.74,-9.5 149.74,-9.5 152.24,-9.5 149.74,-7.25 154.74,-9.5 154.74,-9.5"/>
</a>
</g>
</g>
</g>
</svg>
