<?xml version="1.0" encoding="UTF-8" standalone="no"?>
<!DOCTYPE svg PUBLIC "-//W3C//DTD SVG 1.1//EN"
 "http://www.w3.org/Graphics/SVG/1.1/DTD/svg11.dtd">
<!-- Generated by graphviz version 2.43.0 (0)
 -->
<!-- Title: RemoteReplayList_TreeModel::refreshTree Pages: 1 -->
<svg width="563pt" height="86pt"
 viewBox="0.00 0.00 563.00 86.00" xmlns="http://www.w3.org/2000/svg" xmlns:xlink="http://www.w3.org/1999/xlink">
<g id="graph0" class="graph" transform="scale(1 1) rotate(0) translate(4 82)">
<title>RemoteReplayList_TreeModel::refreshTree</title>
<!-- Node1 -->
<g id="Node000001" class="node">
<title>Node1</title>
<g id="a_Node000001"><a xlink:title=" ">
<polygon fill="#999999" stroke="#666666" points="161,-54 0,-54 0,-24 161,-24 161,-54"/>
<text text-anchor="start" x="8" y="-42" font-family="Helvetica,sans-Serif" font-size="10.00">RemoteReplayList_TreeModel</text>
<text text-anchor="middle" x="80.5" y="-31" font-family="Helvetica,sans-Serif" font-size="10.00">::refreshTree</text>
</a>
</g>
</g>
<!-- Node2 -->
<g id="Node000002" class="node">
<title>Node2</title>
<g id="a_Node000002"><a xlink:href="../../d5/da5/classRemoteReplayList__TreeModel.html#afa1e6fe948a6c1d3d2c04396f05935d4" target="_top" xlink:title=" ">
<polygon fill="white" stroke="#666666" points="358,-54 197,-54 197,-24 358,-24 358,-54"/>
<text text-anchor="start" x="205" y="-42" font-family="Helvetica,sans-Serif" font-size="10.00">RemoteReplayList_TreeModel</text>
<text text-anchor="middle" x="277.5" y="-31" font-family="Helvetica,sans-Serif" font-size="10.00">::replayListFinished</text>
</a>
</g>
</g>
<!-- Node1&#45;&gt;Node2 -->
<g id="edge1_Node000001_Node000002" class="edge">
<title>Node1&#45;&gt;Node2</title>
<g id="a_edge1_Node000001_Node000002"><a xlink:title=" ">
<path fill="none" stroke="#63b8ff" d="M161.1,-39C171.14,-39 181.45,-39 191.57,-39"/>
<polygon fill="#63b8ff" stroke="#63b8ff" points="196.84,-39 191.84,-41.25 194.34,-39 191.84,-39 191.84,-39 191.84,-39 194.34,-39 191.84,-36.75 196.84,-39 196.84,-39"/>
</a>
</g>
</g>
<!-- Node3 -->
<g id="Node000003" class="node">
<title>Node3</title>
<g id="a_Node000003"><a xlink:href="../../d5/da5/classRemoteReplayList__TreeModel.html#a4347e769e6e568e4a3f7ab34678e085a" target="_top" xlink:title=" ">
<polygon fill="white" stroke="#666666" points="555,-78 394,-78 394,-48 555,-48 555,-78"/>
<text text-anchor="start" x="402" y="-66" font-family="Helvetica,sans-Serif" font-size="10.00">RemoteReplayList_TreeModel</text>
<text text-anchor="middle" x="474.5" y="-55" font-family="Helvetica,sans-Serif" font-size="10.00">::clearAll</text>
</a>
</g>
</g>
<!-- Node2&#45;&gt;Node3 -->
<g id="edge2_Node000002_Node000003" class="edge">
<title>Node2&#45;&gt;Node3</title>
<g id="a_edge2_Node000002_Node000003"><a xlink:title=" ">
<path fill="none" stroke="#63b8ff" d="M358.1,-48.8C368.23,-50.04 378.64,-51.32 388.85,-52.58"/>
<polygon fill="#63b8ff" stroke="#63b8ff" points="393.84,-53.2 388.61,-54.82 391.36,-52.89 388.88,-52.59 388.88,-52.59 388.88,-52.59 391.36,-52.89 389.16,-50.35 393.84,-53.2 393.84,-53.2"/>
</a>
</g>
</g>
<!-- Node4 -->
<g id="Node000004" class="node">
<title>Node4</title>
<g id="a_Node000004"><a xlink:href="../../d5/da5/classRemoteReplayList__TreeModel.html#a79fd1b885bf85bd5071a8bf4a4f1a9ee" target="_top" xlink:title=" ">
<polygon fill="white" stroke="#666666" points="555,-30 394,-30 394,0 555,0 555,-30"/>
<text text-anchor="start" x="402" y="-18" font-family="Helvetica,sans-Serif" font-size="10.00">RemoteReplayList_TreeModel</text>
<text text-anchor="middle" x="474.5" y="-7" font-family="Helvetica,sans-Serif" font-size="10.00">::treeRefreshed</text>
</a>
</g>
</g>
<!-- Node2&#45;&gt;Node4 -->
<g id="edge3_Node000002_Node000004" class="edge">
<title>Node2&#45;&gt;Node4</title>
<g id="a_edge3_Node000002_Node000004"><a xlink:title=" ">
<path fill="none" stroke="#63b8ff" d="M358.1,-29.2C368.23,-27.96 378.64,-26.68 388.85,-25.42"/>
<polygon fill="#63b8ff" stroke="#63b8ff" points="393.84,-24.8 389.16,-27.65 391.36,-25.11 388.88,-25.41 388.88,-25.41 388.88,-25.41 391.36,-25.11 388.61,-23.18 393.84,-24.8 393.84,-24.8"/>
</a>
</g>
</g>
</g>
</svg>
