<?xml version="1.0" encoding="UTF-8" standalone="no"?>
<!DOCTYPE svg PUBLIC "-//W3C//DTD SVG 1.1//EN"
 "http://www.w3.org/Graphics/SVG/1.1/DTD/svg11.dtd">
<!-- Generated by graphviz version 2.43.0 (0)
 -->
<!-- Title: DeckEditorMenu::setSaveStatus Pages: 1 -->
<!--zoomable 552 -->

<svg id="main" version="1.1" xmlns="http://www.w3.org/2000/svg" xmlns:xlink="http://www.w3.org/1999/xlink" xml:space="preserve" onload="init(evt)">
<style type="text/css"><![CDATA[
.node, .edge {opacity: 0.7;}
.node.selected, .edge.selected {opacity: 1;}
.edge:hover path { stroke: red; }
.edge:hover polygon { stroke: red; fill: red; }
]]></style>

<defs>
  <circle id="rim" cx="0" cy="0" r="7"/>
  <circle id="rim2" cx="0" cy="0" r="3.5"/>
  <g id="zoomPlus">
    <use xlink:href="#rim" fill="#404040"><set attributeName="fill" to="#808080" begin="zoomplus.mouseover" end="zoomplus.mouseout"/></use>
    <path d="M-4,0h8M0,-4v8" fill="none" stroke="white" stroke-width="1.5" pointer-events="none"/>
  </g>
  <g id="zoomMin">
    <use xlink:href="#rim" fill="#404040"><set attributeName="fill" to="#808080" begin="zoomminus.mouseover" end="zoomminus.mouseout"/></use>
    <path d="M-4,0h8" fill="none" stroke="white" stroke-width="1.5" pointer-events="none"/>
  </g>
  <g id="arrowUp" transform="translate(30 24)">
    <use xlink:href="#rim"/>
    <path pointer-events="none" fill="none" stroke="white" stroke-width="1.5" d="M0,-3.0v7 M-2.5,-0.5L0,-3.0L2.5,-0.5"/>
  </g>
  <g id="arrowRight" transform="rotate(90) translate(36 -43)">
    <use xlink:href="#rim"/>
    <path pointer-events="none" fill="none" stroke="white" stroke-width="1.5" d="M0,-3.0v7 M-2.5,-0.5L0,-3.0L2.5,-0.5"/>
  </g>
  <g id="arrowDown" transform="rotate(180) translate(-30 -48)">
    <use xlink:href="#rim"/>
    <path pointer-events="none" fill="none" stroke="white" stroke-width="1.5" d="M0,-3.0v7 M-2.5,-0.5L0,-3.0L2.5,-0.5"/>
  </g>
  <g id="arrowLeft" transform="rotate(270) translate(-36 17)">
    <use xlink:href="#rim"/>
    <path pointer-events="none" fill="none" stroke="white" stroke-width="1.5" d="M0,-3.0v7 M-2.5,-0.5L0,-3.0L2.5,-0.5"/>
  </g>
  <g id="resetDef">
    <use xlink:href="#rim2" fill="#404040"><set attributeName="fill" to="#808080" begin="reset.mouseover" end="reset.mouseout"/></use>
  </g>
</defs>
<script type="application/ecmascript">
var viewWidth = 1169;
var viewHeight = 552;
var sectionId = 'dynsection-8';
</script>
<script type="application/ecmascript" xlink:href="../../svg.min.js"/>
<svg id="graph" class="graph">
<g id="viewport">
<title>DeckEditorMenu::setSaveStatus</title>
<!-- Node1 -->
<g id="Node000001" class="node">
<title>Node1</title>
<g id="a_Node000001"><a xlink:title=" ">
<polygon fill="#999999" stroke="#666666" points="1161,-270.5 988,-270.5 988,-251.5 1161,-251.5 1161,-270.5"/>
<text text-anchor="middle" x="1074.5" y="-258.5" font-family="Helvetica,sans-Serif" font-size="10.00">DeckEditorMenu::setSaveStatus</text>
</a>
</g>
</g>
<!-- Node2 -->
<g id="Node000002" class="node">
<title>Node2</title>
<g id="a_Node000002"><a xlink:href="../../d1/d53/classAbstractTabDeckEditor.html#a86fddfe318be81f8fe4aa54e980fcdd1" target="_top" xlink:title=" ">
<polygon fill="white" stroke="#666666" points="736.5,-460 609.5,-460 609.5,-430 736.5,-430 736.5,-460"/>
<text text-anchor="start" x="617.5" y="-448" font-family="Helvetica,sans-Serif" font-size="10.00">AbstractTabDeckEditor</text>
<text text-anchor="middle" x="673" y="-437" font-family="Helvetica,sans-Serif" font-size="10.00">::actAddCard</text>
</a>
</g>
</g>
<!-- Node1&#45;&gt;Node2 -->
<g id="edge1_Node000001_Node000002" class="edge">
<title>Node1&#45;&gt;Node2</title>
<g id="a_edge1_Node000001_Node000002"><a xlink:title=" ">
<path fill="none" stroke="#63b8ff" d="M1067.81,-275.69C1053.92,-309.3 1014.75,-391.54 952,-426 885.43,-462.56 795.95,-461.42 736.7,-455.07"/>
<polygon fill="#63b8ff" stroke="#63b8ff" points="1069.82,-270.73 1070.03,-276.21 1068.89,-273.05 1067.95,-275.36 1067.95,-275.36 1067.95,-275.36 1068.89,-273.05 1065.86,-274.52 1069.82,-270.73 1069.82,-270.73"/>
</a>
</g>
</g>
<!-- Node8 -->
<g id="Node000008" class="node">
<title>Node8</title>
<g id="a_Node000008"><a xlink:href="../../d1/d53/classAbstractTabDeckEditor.html#ad81c6e4ddfb67cdb61cc8bc6179bb5c6" target="_top" xlink:title=" ">
<polygon fill="white" stroke="#666666" points="940,-417 802,-417 802,-387 940,-387 940,-417"/>
<text text-anchor="start" x="810" y="-405" font-family="Helvetica,sans-Serif" font-size="10.00">AbstractTabDeckEditor</text>
<text text-anchor="middle" x="871" y="-394" font-family="Helvetica,sans-Serif" font-size="10.00">::actAddCardToSideboard</text>
</a>
</g>
</g>
<!-- Node1&#45;&gt;Node8 -->
<g id="edge7_Node000001_Node000008" class="edge">
<title>Node1&#45;&gt;Node8</title>
<g id="a_edge7_Node000001_Node000008"><a xlink:title=" ">
<path fill="none" stroke="#63b8ff" d="M1059.62,-274.38C1037.88,-294.89 993.94,-334.61 952,-362 937.7,-371.34 920.92,-380.04 906.43,-386.92"/>
<polygon fill="#63b8ff" stroke="#63b8ff" points="1063.41,-270.78 1061.33,-275.86 1061.6,-272.5 1059.78,-274.22 1059.78,-274.22 1059.78,-274.22 1061.6,-272.5 1058.24,-272.59 1063.41,-270.78 1063.41,-270.78"/>
</a>
</g>
</g>
<!-- Node9 -->
<g id="Node000009" class="node">
<title>Node9</title>
<g id="a_Node000009"><a xlink:href="../../d1/d53/classAbstractTabDeckEditor.html#ad2dc32bb9edea6f62e2e9e8246431c4c" target="_top" xlink:title=" ">
<polygon fill="white" stroke="#666666" points="545,-202 388,-202 388,-172 545,-172 545,-202"/>
<text text-anchor="start" x="396" y="-190" font-family="Helvetica,sans-Serif" font-size="10.00">AbstractTabDeckEditor</text>
<text text-anchor="middle" x="466.5" y="-179" font-family="Helvetica,sans-Serif" font-size="10.00">::actLoadDeckFromClipboard</text>
</a>
</g>
</g>
<!-- Node1&#45;&gt;Node9 -->
<g id="edge10_Node000001_Node000009" class="edge">
<title>Node1&#45;&gt;Node9</title>
<g id="a_edge10_Node000001_Node000009"><a xlink:title=" ">
<path fill="none" stroke="#63b8ff" d="M1021.21,-250.49C999.8,-246.35 974.76,-241.7 952,-238 864.34,-223.74 842.28,-220.71 754,-211 683.42,-203.24 602.82,-196.69 545.12,-192.41"/>
<polygon fill="#63b8ff" stroke="#63b8ff" points="1026.29,-251.48 1020.95,-252.73 1023.83,-251 1021.38,-250.52 1021.38,-250.52 1021.38,-250.52 1023.83,-251 1021.81,-248.31 1026.29,-251.48 1026.29,-251.48"/>
</a>
</g>
</g>
<!-- Node11 -->
<g id="Node000011" class="node">
<title>Node11</title>
<g id="a_Node000011"><a xlink:href="../../d1/d53/classAbstractTabDeckEditor.html#a2f242d60d590f4588b0084ec2131601a" target="_top" xlink:title=" ">
<polygon fill="white" stroke="#666666" points="945.5,-107 796.5,-107 796.5,-77 945.5,-77 945.5,-107"/>
<text text-anchor="start" x="804.5" y="-95" font-family="Helvetica,sans-Serif" font-size="10.00">AbstractTabDeckEditor</text>
<text text-anchor="middle" x="871" y="-84" font-family="Helvetica,sans-Serif" font-size="10.00">::actLoadDeckFromWebsite</text>
</a>
</g>
</g>
<!-- Node1&#45;&gt;Node11 -->
<g id="edge12_Node000001_Node000011" class="edge">
<title>Node1&#45;&gt;Node11</title>
<g id="a_edge12_Node000001_Node000011"><a xlink:title=" ">
<path fill="none" stroke="#63b8ff" d="M1064.33,-247.09C1045.95,-220.17 1002.06,-160.47 952,-125 941.95,-117.88 930.13,-111.93 918.7,-107.14"/>
<polygon fill="#63b8ff" stroke="#63b8ff" points="1067.26,-251.43 1062.6,-248.54 1065.86,-249.35 1064.46,-247.28 1064.46,-247.28 1064.46,-247.28 1065.86,-249.35 1066.32,-246.02 1067.26,-251.43 1067.26,-251.43"/>
</a>
</g>
</g>
<!-- Node12 -->
<g id="Node000012" class="node">
<title>Node12</title>
<g id="a_Node000012"><a xlink:href="../../d1/d53/classAbstractTabDeckEditor.html#a93bbff3de817dcf42b24e6b06b93e9ec" target="_top" xlink:title=" ">
<polygon fill="white" stroke="#666666" points="952,-40 790,-40 790,-10 952,-10 952,-40"/>
<text text-anchor="start" x="798" y="-28" font-family="Helvetica,sans-Serif" font-size="10.00">AbstractTabDeckEditor</text>
<text text-anchor="middle" x="871" y="-17" font-family="Helvetica,sans-Serif" font-size="10.00">::cleanDeckAndResetModified</text>
</a>
</g>
</g>
<!-- Node1&#45;&gt;Node12 -->
<g id="edge14_Node000001_Node000012" class="edge">
<title>Node1&#45;&gt;Node12</title>
<g id="a_edge14_Node000001_Node000012"><a xlink:title=" ">
<path fill="none" stroke="#63b8ff" d="M1067.59,-246.67C1052.73,-212.08 1010.76,-122.85 952,-68 939.67,-56.49 923.67,-47.09 909.22,-40.04"/>
<polygon fill="#63b8ff" stroke="#63b8ff" points="1069.59,-251.36 1065.56,-247.64 1068.61,-249.06 1067.63,-246.76 1067.63,-246.76 1067.63,-246.76 1068.61,-249.06 1069.7,-245.88 1069.59,-251.36 1069.59,-251.36"/>
</a>
</g>
</g>
<!-- Node14 -->
<g id="Node000014" class="node">
<title>Node14</title>
<g id="a_Node000014"><a xlink:href="../../da/d88/classTabDeckEditor.html#a67fc830ad5afe5a586139f6577c6396e" target="_top" xlink:title=" ">
<polygon fill="white" stroke="#666666" points="948.5,-352.5 793.5,-352.5 793.5,-333.5 948.5,-333.5 948.5,-352.5"/>
<text text-anchor="middle" x="871" y="-340.5" font-family="Helvetica,sans-Serif" font-size="10.00">TabDeckEditor::createMenus</text>
</a>
</g>
</g>
<!-- Node1&#45;&gt;Node14 -->
<g id="edge17_Node000001_Node000014" class="edge">
<title>Node1&#45;&gt;Node14</title>
<g id="a_edge17_Node000001_Node000014"><a xlink:title=" ">
<path fill="none" stroke="#63b8ff" d="M1045.27,-272.49C1005.2,-288.79 932.57,-318.35 895.36,-333.49"/>
<polygon fill="#63b8ff" stroke="#63b8ff" points="1049.99,-270.57 1046.21,-274.54 1047.68,-271.51 1045.36,-272.45 1045.36,-272.45 1045.36,-272.45 1047.68,-271.51 1044.51,-270.37 1049.99,-270.57 1049.99,-270.57"/>
</a>
</g>
</g>
<!-- Node16 -->
<g id="Node000016" class="node">
<title>Node16</title>
<g id="a_Node000016"><a xlink:href="../../dc/d63/classTabDeckEditorVisual.html#af65c4ade9485855b3f003088abc9c95c" target="_top" xlink:title=" ">
<polygon fill="white" stroke="#666666" points="307.5,-517 191.5,-517 191.5,-487 307.5,-487 307.5,-517"/>
<text text-anchor="start" x="199.5" y="-505" font-family="Helvetica,sans-Serif" font-size="10.00">TabDeckEditorVisual</text>
<text text-anchor="middle" x="249.5" y="-494" font-family="Helvetica,sans-Serif" font-size="10.00">::createMenus</text>
</a>
</g>
</g>
<!-- Node1&#45;&gt;Node16 -->
<g id="edge19_Node000001_Node000016" class="edge">
<title>Node1&#45;&gt;Node16</title>
<g id="a_edge19_Node000001_Node000016"><a xlink:title=" ">
<path fill="none" stroke="#63b8ff" d="M1069.21,-276.03C1057.54,-313.8 1021.38,-412.78 952,-456 745.33,-584.74 434.75,-540.76 307.73,-515.08"/>
<polygon fill="#63b8ff" stroke="#63b8ff" points="1070.75,-270.91 1071.46,-276.35 1070.03,-273.31 1069.3,-275.7 1069.3,-275.7 1069.3,-275.7 1070.03,-273.31 1067.15,-275.05 1070.75,-270.91 1070.75,-270.91"/>
</a>
</g>
</g>
<!-- Node17 -->
<g id="Node000017" class="node">
<title>Node17</title>
<g id="a_Node000017"><a xlink:href="../../d1/d53/classAbstractTabDeckEditor.html#a823d13f8beae9553539687726aedd39a" target="_top" xlink:title=" ">
<polygon fill="white" stroke="#666666" points="736.5,-250 609.5,-250 609.5,-220 736.5,-220 736.5,-250"/>
<text text-anchor="start" x="617.5" y="-238" font-family="Helvetica,sans-Serif" font-size="10.00">AbstractTabDeckEditor</text>
<text text-anchor="middle" x="673" y="-227" font-family="Helvetica,sans-Serif" font-size="10.00">::editDeckInClipboard</text>
</a>
</g>
</g>
<!-- Node1&#45;&gt;Node17 -->
<g id="edge21_Node000001_Node000017" class="edge">
<title>Node1&#45;&gt;Node17</title>
<g id="a_edge21_Node000001_Node000017"><a xlink:title=" ">
<path fill="none" stroke="#63b8ff" d="M982.44,-255.07C907.32,-250.19 802.72,-243.38 736.7,-239.08"/>
<polygon fill="#63b8ff" stroke="#63b8ff" points="987.8,-255.42 982.66,-257.34 985.3,-255.26 982.81,-255.1 982.81,-255.1 982.81,-255.1 985.3,-255.26 982.95,-252.85 987.8,-255.42 987.8,-255.42"/>
</a>
</g>
</g>
<!-- Node20 -->
<g id="Node000020" class="node">
<title>Node20</title>
<g id="a_Node000020"><a xlink:href="../../d1/d53/classAbstractTabDeckEditor.html#acf8aa2689f726f1cb553f14b646873d6" target="_top" xlink:title=" ">
<polygon fill="white" stroke="#666666" points="934.5,-298 807.5,-298 807.5,-268 934.5,-268 934.5,-298"/>
<text text-anchor="start" x="815.5" y="-286" font-family="Helvetica,sans-Serif" font-size="10.00">AbstractTabDeckEditor</text>
<text text-anchor="middle" x="871" y="-275" font-family="Helvetica,sans-Serif" font-size="10.00">::onDeckModified</text>
</a>
</g>
</g>
<!-- Node1&#45;&gt;Node20 -->
<g id="edge26_Node000001_Node000020" class="edge">
<title>Node1&#45;&gt;Node20</title>
<g id="a_edge26_Node000001_Node000020"><a xlink:title=" ">
<path fill="none" stroke="#63b8ff" d="M982.74,-270.91C966.53,-272.68 949.98,-274.49 934.78,-276.15"/>
<polygon fill="#63b8ff" stroke="#63b8ff" points="987.75,-270.36 983.03,-273.14 985.27,-270.63 982.78,-270.9 982.78,-270.9 982.78,-270.9 985.27,-270.63 982.54,-268.67 987.75,-270.36 987.75,-270.36"/>
</a>
</g>
</g>
<!-- Node22 -->
<g id="Node000022" class="node">
<title>Node22</title>
<g id="a_Node000022"><a xlink:href="../../d1/d53/classAbstractTabDeckEditor.html#a69c68619932e7cdff54e2af86e17e5ed" target="_top" xlink:title=" ">
<polygon fill="white" stroke="#666666" points="934.5,-164 807.5,-164 807.5,-134 934.5,-134 934.5,-164"/>
<text text-anchor="start" x="815.5" y="-152" font-family="Helvetica,sans-Serif" font-size="10.00">AbstractTabDeckEditor</text>
<text text-anchor="middle" x="871" y="-141" font-family="Helvetica,sans-Serif" font-size="10.00">::openDeckFromFile</text>
</a>
</g>
</g>
<!-- Node1&#45;&gt;Node22 -->
<g id="edge29_Node000001_Node000022" class="edge">
<title>Node1&#45;&gt;Node22</title>
<g id="a_edge29_Node000001_Node000022"><a xlink:title=" ">
<path fill="none" stroke="#63b8ff" d="M1057.78,-248.33C1035.36,-230.74 992.45,-198.73 952,-178 941.88,-172.81 930.61,-168.12 919.79,-164.1"/>
<polygon fill="#63b8ff" stroke="#63b8ff" points="1061.72,-251.44 1056.4,-250.11 1059.76,-249.9 1057.79,-248.35 1057.79,-248.35 1057.79,-248.35 1059.76,-249.9 1059.19,-246.58 1061.72,-251.44 1061.72,-251.44"/>
</a>
</g>
</g>
<!-- Node3 -->
<g id="Node000003" class="node">
<title>Node3</title>
<g id="a_Node000003"><a xlink:href="../../d1/d53/classAbstractTabDeckEditor.html#a57cf8d57a94f36550a2db1cb1a7c78fa" target="_top" xlink:title=" ">
<polygon fill="white" stroke="#666666" points="533,-379 400,-379 400,-349 533,-349 533,-379"/>
<text text-anchor="start" x="408" y="-367" font-family="Helvetica,sans-Serif" font-size="10.00">AbstractTabDeckEditor</text>
<text text-anchor="middle" x="466.5" y="-356" font-family="Helvetica,sans-Serif" font-size="10.00">::AbstractTabDeckEditor</text>
</a>
</g>
</g>
<!-- Node2&#45;&gt;Node3 -->
<g id="edge2_Node000002_Node000003" class="edge">
<title>Node2&#45;&gt;Node3</title>
<g id="a_edge2_Node000002_Node000003"><a xlink:title=" ">
<path fill="none" stroke="#63b8ff" d="M618.23,-428C609.27,-424.47 600.22,-420.45 592,-416 574.41,-406.49 573.93,-397.87 556,-389 548.42,-385.25 540.18,-381.98 531.88,-379.15"/>
<polygon fill="#63b8ff" stroke="#63b8ff" points="623.19,-429.91 617.72,-430.21 620.86,-429.01 618.53,-428.11 618.53,-428.11 618.53,-428.11 620.86,-429.01 619.34,-426.01 623.19,-429.91 623.19,-429.91"/>
</a>
</g>
</g>
<!-- Node4 -->
<g id="Node000004" class="node">
<title>Node4</title>
<g id="a_Node000004"><a xlink:href="../../dc/d63/classTabDeckEditorVisual.html#a735f0020e6916150378bd44aa3c977c8" target="_top" xlink:title=" ">
<polygon fill="white" stroke="#666666" points="543,-438.5 390,-438.5 390,-397.5 543,-397.5 543,-438.5"/>
<text text-anchor="start" x="398" y="-426.5" font-family="Helvetica,sans-Serif" font-size="10.00">TabDeckEditorVisual</text>
<text text-anchor="start" x="398" y="-415.5" font-family="Helvetica,sans-Serif" font-size="10.00">::processCardClickDatabase</text>
<text text-anchor="middle" x="466.5" y="-404.5" font-family="Helvetica,sans-Serif" font-size="10.00">Display</text>
</a>
</g>
</g>
<!-- Node2&#45;&gt;Node4 -->
<g id="edge3_Node000002_Node000004" class="edge">
<title>Node2&#45;&gt;Node4</title>
<g id="a_edge3_Node000002_Node000004"><a xlink:title=" ">
<path fill="none" stroke="#63b8ff" d="M603.81,-436C584.33,-433.42 562.98,-430.61 543.09,-427.98"/>
<polygon fill="#63b8ff" stroke="#63b8ff" points="609.25,-436.72 604,-438.29 606.77,-436.39 604.3,-436.06 604.3,-436.06 604.3,-436.06 606.77,-436.39 604.59,-433.83 609.25,-436.72 609.25,-436.72"/>
</a>
</g>
</g>
<!-- Node7 -->
<g id="Node000007" class="node">
<title>Node7</title>
<g id="a_Node000007"><a xlink:href="../../d9/dcf/classTabDeckEditorVisualTabWidget.html#a6ab3167cf58404d8d266120a6c3a9a51" target="_top" xlink:title=" ">
<polygon fill="white" stroke="#666666" points="553,-487 380,-487 380,-457 553,-457 553,-487"/>
<text text-anchor="start" x="388" y="-475" font-family="Helvetica,sans-Serif" font-size="10.00">TabDeckEditorVisualTabWidget</text>
<text text-anchor="middle" x="466.5" y="-464" font-family="Helvetica,sans-Serif" font-size="10.00">::TabDeckEditorVisualTabWidget</text>
</a>
</g>
</g>
<!-- Node2&#45;&gt;Node7 -->
<g id="edge6_Node000002_Node000007" class="edge">
<title>Node2&#45;&gt;Node7</title>
<g id="a_edge6_Node000002_Node000007"><a xlink:title=" ">
<path fill="none" stroke="#63b8ff" d="M604.22,-453.95C587.86,-456.11 570.16,-458.45 553.1,-460.7"/>
<polygon fill="#63b8ff" stroke="#63b8ff" points="609.25,-453.28 604.59,-456.17 606.77,-453.61 604.3,-453.94 604.3,-453.94 604.3,-453.94 606.77,-453.61 604,-451.71 609.25,-453.28 609.25,-453.28"/>
</a>
</g>
</g>
<!-- Node5 -->
<g id="Node000005" class="node">
<title>Node5</title>
<g id="a_Node000005"><a xlink:href="../../dc/d63/classTabDeckEditorVisual.html#ae20d58ad11818d4afe126e8f13cbb27d" target="_top" xlink:title=" ">
<polygon fill="white" stroke="#666666" points="309,-445 190,-445 190,-415 309,-415 309,-445"/>
<text text-anchor="start" x="198" y="-433" font-family="Helvetica,sans-Serif" font-size="10.00">TabDeckEditorVisual</text>
<text text-anchor="middle" x="249.5" y="-422" font-family="Helvetica,sans-Serif" font-size="10.00">::createCentralFrame</text>
</a>
</g>
</g>
<!-- Node4&#45;&gt;Node5 -->
<g id="edge4_Node000004_Node000005" class="edge">
<title>Node4&#45;&gt;Node5</title>
<g id="a_edge4_Node000004_Node000005"><a xlink:title=" ">
<path fill="none" stroke="#63b8ff" d="M384.7,-422.51C359.58,-423.91 332.37,-425.43 309.07,-426.73"/>
<polygon fill="#63b8ff" stroke="#63b8ff" points="389.7,-422.23 384.83,-424.76 387.2,-422.37 384.71,-422.51 384.71,-422.51 384.71,-422.51 387.2,-422.37 384.58,-420.26 389.7,-422.23 389.7,-422.23"/>
</a>
</g>
</g>
<!-- Node6 -->
<g id="Node000006" class="node">
<title>Node6</title>
<g id="a_Node000006"><a xlink:href="../../dc/d63/classTabDeckEditorVisual.html#a81c50a180d397ad489b4ff049cd809da" target="_top" xlink:title=" ">
<polygon fill="white" stroke="#666666" points="122,-481 0,-481 0,-451 122,-451 122,-481"/>
<text text-anchor="start" x="8" y="-469" font-family="Helvetica,sans-Serif" font-size="10.00">TabDeckEditorVisual</text>
<text text-anchor="middle" x="61" y="-458" font-family="Helvetica,sans-Serif" font-size="10.00">::TabDeckEditorVisual</text>
</a>
</g>
</g>
<!-- Node5&#45;&gt;Node6 -->
<g id="edge5_Node000005_Node000006" class="edge">
<title>Node5&#45;&gt;Node6</title>
<g id="a_edge5_Node000005_Node000006"><a xlink:title=" ">
<path fill="none" stroke="#63b8ff" d="M184.64,-442.33C164.38,-446.24 142.05,-450.55 122.06,-454.41"/>
<polygon fill="#63b8ff" stroke="#63b8ff" points="189.75,-441.34 185.26,-444.5 187.29,-441.82 184.84,-442.29 184.84,-442.29 184.84,-442.29 187.29,-441.82 184.41,-440.08 189.75,-441.34 189.75,-441.34"/>
</a>
</g>
</g>
<!-- Node8&#45;&gt;Node2 -->
<g id="edge9_Node000008_Node000002" class="edge">
<title>Node8&#45;&gt;Node2</title>
<g id="a_edge9_Node000008_Node000002"><a xlink:title=" ">
<path fill="none" stroke="#63b8ff" d="M796.99,-418.02C777.14,-422.37 755.84,-427.05 736.62,-431.26"/>
<polygon fill="#63b8ff" stroke="#63b8ff" points="802,-416.92 797.6,-420.19 799.56,-417.45 797.11,-417.99 797.11,-417.99 797.11,-417.99 799.56,-417.45 796.63,-415.79 802,-416.92 802,-416.92"/>
</a>
</g>
</g>
<!-- Node8&#45;&gt;Node3 -->
<g id="edge8_Node000008_Node000003" class="edge">
<title>Node8&#45;&gt;Node3</title>
<g id="a_edge8_Node000008_Node000003"><a xlink:title=" ">
<path fill="none" stroke="#63b8ff" d="M796.86,-398.67C740.71,-395.7 661.31,-390.64 592,-383 572.87,-380.89 552.19,-377.99 533.27,-375.08"/>
<polygon fill="#63b8ff" stroke="#63b8ff" points="801.88,-398.93 796.77,-400.91 799.38,-398.8 796.89,-398.67 796.89,-398.67 796.89,-398.67 799.38,-398.8 797.01,-396.42 801.88,-398.93 801.88,-398.93"/>
</a>
</g>
</g>
<!-- Node10 -->
<g id="Node000010" class="node">
<title>Node10</title>
<g id="a_Node000010"><a xlink:href="../../dc/d76/classDeckEditorMenu.html#ad84a243999560804eeb65f6984a6e959" target="_top" xlink:title=" ">
<polygon fill="white" stroke="#666666" points="341,-153.5 158,-153.5 158,-134.5 341,-134.5 341,-153.5"/>
<text text-anchor="middle" x="249.5" y="-141.5" font-family="Helvetica,sans-Serif" font-size="10.00">DeckEditorMenu::DeckEditorMenu</text>
</a>
</g>
</g>
<!-- Node9&#45;&gt;Node10 -->
<g id="edge11_Node000009_Node000010" class="edge">
<title>Node9&#45;&gt;Node10</title>
<g id="a_edge11_Node000009_Node000010"><a xlink:title=" ">
<path fill="none" stroke="#63b8ff" d="M385.24,-170.95C355.92,-165.08 323.69,-158.64 298.11,-153.52"/>
<polygon fill="#63b8ff" stroke="#63b8ff" points="390.3,-171.96 384.96,-173.19 387.85,-171.47 385.4,-170.98 385.4,-170.98 385.4,-170.98 387.85,-171.47 385.84,-168.77 390.3,-171.96 390.3,-171.96"/>
</a>
</g>
</g>
<!-- Node11&#45;&gt;Node10 -->
<g id="edge13_Node000011_Node000010" class="edge">
<title>Node11&#45;&gt;Node10</title>
<g id="a_edge13_Node000011_Node000010"><a xlink:title=" ">
<path fill="none" stroke="#63b8ff" d="M791.21,-76.65C692.7,-60.39 519.67,-41.55 377,-77 331.9,-88.21 285.19,-118.79 263.29,-134.46"/>
<polygon fill="#63b8ff" stroke="#63b8ff" points="796.43,-77.52 791.12,-78.92 793.96,-77.11 791.49,-76.7 791.49,-76.7 791.49,-76.7 793.96,-77.11 791.86,-74.48 796.43,-77.52 796.43,-77.52"/>
</a>
</g>
</g>
<!-- Node13 -->
<g id="Node000013" class="node">
<title>Node13</title>
<g id="a_Node000013"><a xlink:href="../../d1/d53/classAbstractTabDeckEditor.html#ad874b77a4364b98412cecc42caa4ddf2" target="_top" xlink:title=" ">
<polygon fill="white" stroke="#666666" points="736.5,-30 609.5,-30 609.5,0 736.5,0 736.5,-30"/>
<text text-anchor="start" x="617.5" y="-18" font-family="Helvetica,sans-Serif" font-size="10.00">AbstractTabDeckEditor</text>
<text text-anchor="middle" x="673" y="-7" font-family="Helvetica,sans-Serif" font-size="10.00">::actNewDeck</text>
</a>
</g>
</g>
<!-- Node12&#45;&gt;Node13 -->
<g id="edge15_Node000012_Node000013" class="edge">
<title>Node12&#45;&gt;Node13</title>
<g id="a_edge15_Node000012_Node000013"><a xlink:title=" ">
<path fill="none" stroke="#63b8ff" d="M784.98,-20.66C768.74,-19.83 752.02,-18.98 736.64,-18.2"/>
<polygon fill="#63b8ff" stroke="#63b8ff" points="790,-20.92 784.89,-22.91 787.5,-20.79 785,-20.66 785,-20.66 785,-20.66 787.5,-20.79 785.12,-18.42 790,-20.92 790,-20.92"/>
</a>
</g>
</g>
<!-- Node13&#45;&gt;Node10 -->
<g id="edge16_Node000013_Node000010" class="edge">
<title>Node13&#45;&gt;Node10</title>
<g id="a_edge16_Node000013_Node000010"><a xlink:title=" ">
<path fill="none" stroke="#63b8ff" d="M604.32,-11.03C542.81,-9.85 450.69,-14.27 377,-44 325.34,-64.84 277.55,-113.71 258.84,-134.43"/>
<polygon fill="#63b8ff" stroke="#63b8ff" points="609.43,-11.14 604.38,-13.28 606.93,-11.09 604.43,-11.03 604.43,-11.03 604.43,-11.03 606.93,-11.09 604.48,-8.78 609.43,-11.14 609.43,-11.14"/>
</a>
</g>
</g>
<!-- Node15 -->
<g id="Node000015" class="node">
<title>Node15</title>
<g id="a_Node000015"><a xlink:href="../../da/d88/classTabDeckEditor.html#a7a540e6faad4772b2826139e5c028859" target="_top" xlink:title=" ">
<polygon fill="white" stroke="#666666" points="754,-373.5 592,-373.5 592,-354.5 754,-354.5 754,-373.5"/>
<text text-anchor="middle" x="673" y="-361.5" font-family="Helvetica,sans-Serif" font-size="10.00">TabDeckEditor::TabDeckEditor</text>
</a>
</g>
</g>
<!-- Node14&#45;&gt;Node15 -->
<g id="edge18_Node000014_Node000015" class="edge">
<title>Node14&#45;&gt;Node15</title>
<g id="a_edge18_Node000014_Node000015"><a xlink:title=" ">
<path fill="none" stroke="#63b8ff" d="M788.22,-351.76C776.94,-352.97 765.37,-354.21 754.12,-355.42"/>
<polygon fill="#63b8ff" stroke="#63b8ff" points="793.38,-351.21 788.65,-353.98 790.89,-351.48 788.41,-351.74 788.41,-351.74 788.41,-351.74 790.89,-351.48 788.17,-349.5 793.38,-351.21 793.38,-351.21"/>
</a>
</g>
</g>
<!-- Node16&#45;&gt;Node6 -->
<g id="edge20_Node000016_Node000006" class="edge">
<title>Node16&#45;&gt;Node6</title>
<g id="a_edge20_Node000016_Node000006"><a xlink:title=" ">
<path fill="none" stroke="#63b8ff" d="M186.34,-490C165.62,-486 142.58,-481.55 122.02,-477.59"/>
<polygon fill="#63b8ff" stroke="#63b8ff" points="191.28,-490.95 185.94,-492.22 188.82,-490.48 186.37,-490.01 186.37,-490.01 186.37,-490.01 188.82,-490.48 186.79,-487.8 191.28,-490.95 191.28,-490.95"/>
</a>
</g>
</g>
<!-- Node18 -->
<g id="Node000018" class="node">
<title>Node18</title>
<g id="a_Node000018"><a xlink:href="../../d1/d53/classAbstractTabDeckEditor.html#a89ac1c1da43aeec561bd2a63c195acce" target="_top" xlink:title=" ">
<polygon fill="white" stroke="#666666" points="535,-250 398,-250 398,-220 535,-220 535,-250"/>
<text text-anchor="start" x="406" y="-238" font-family="Helvetica,sans-Serif" font-size="10.00">AbstractTabDeckEditor</text>
<text text-anchor="middle" x="466.5" y="-227" font-family="Helvetica,sans-Serif" font-size="10.00">::actEditDeckInClipboard</text>
</a>
</g>
</g>
<!-- Node17&#45;&gt;Node18 -->
<g id="edge22_Node000017_Node000018" class="edge">
<title>Node17&#45;&gt;Node18</title>
<g id="a_edge22_Node000017_Node000018"><a xlink:title=" ">
<path fill="none" stroke="#63b8ff" d="M603.97,-235C581.81,-235 557.23,-235 535.1,-235"/>
<polygon fill="#63b8ff" stroke="#63b8ff" points="609.25,-235 604.25,-237.25 606.75,-235 604.25,-235 604.25,-235 604.25,-235 606.75,-235 604.25,-232.75 609.25,-235 609.25,-235"/>
</a>
</g>
</g>
<!-- Node19 -->
<g id="Node000019" class="node">
<title>Node19</title>
<g id="a_Node000019"><a xlink:href="../../d1/d53/classAbstractTabDeckEditor.html#a4d87165960fbd0657273a1032bdc4153" target="_top" xlink:title=" ">
<polygon fill="white" stroke="#666666" points="545.5,-298 387.5,-298 387.5,-268 545.5,-268 545.5,-298"/>
<text text-anchor="start" x="395.5" y="-286" font-family="Helvetica,sans-Serif" font-size="10.00">AbstractTabDeckEditor</text>
<text text-anchor="middle" x="466.5" y="-275" font-family="Helvetica,sans-Serif" font-size="10.00">::actEditDeckInClipboardRaw</text>
</a>
</g>
</g>
<!-- Node17&#45;&gt;Node19 -->
<g id="edge24_Node000017_Node000019" class="edge">
<title>Node17&#45;&gt;Node19</title>
<g id="a_edge24_Node000017_Node000019"><a xlink:title=" ">
<path fill="none" stroke="#63b8ff" d="M604.3,-250.89C580.86,-256.39 554.67,-262.54 531.54,-267.97"/>
<polygon fill="#63b8ff" stroke="#63b8ff" points="609.25,-249.73 604.9,-253.06 606.82,-250.3 604.39,-250.87 604.39,-250.87 604.39,-250.87 606.82,-250.3 603.87,-248.68 609.25,-249.73 609.25,-249.73"/>
</a>
</g>
</g>
<!-- Node18&#45;&gt;Node10 -->
<g id="edge23_Node000018_Node000010" class="edge">
<title>Node18&#45;&gt;Node10</title>
<g id="a_edge23_Node000018_Node000010"><a xlink:title=" ">
<path fill="none" stroke="#63b8ff" d="M398.06,-218.4C390.88,-216.13 383.74,-213.66 377,-211 335.16,-194.48 289.25,-167.83 265.94,-153.63"/>
<polygon fill="#63b8ff" stroke="#63b8ff" points="403.04,-219.94 397.59,-220.61 400.65,-219.2 398.26,-218.46 398.26,-218.46 398.26,-218.46 400.65,-219.2 398.92,-216.31 403.04,-219.94 403.04,-219.94"/>
</a>
</g>
</g>
<!-- Node19&#45;&gt;Node10 -->
<g id="edge25_Node000019_Node000010" class="edge">
<title>Node19&#45;&gt;Node10</title>
<g id="a_edge25_Node000019_Node000010"><a xlink:title=" ">
<path fill="none" stroke="#63b8ff" d="M392.18,-266.11C386.93,-264 381.81,-261.64 377,-259 324.68,-230.33 276.54,-175.79 258.26,-153.67"/>
<polygon fill="#63b8ff" stroke="#63b8ff" points="397.05,-267.98 391.57,-268.28 394.71,-267.08 392.38,-266.18 392.38,-266.18 392.38,-266.18 394.71,-267.08 393.19,-264.08 397.05,-267.98 397.05,-267.98"/>
</a>
</g>
</g>
<!-- Node20&#45;&gt;Node3 -->
<g id="edge27_Node000020_Node000003" class="edge">
<title>Node20&#45;&gt;Node3</title>
<g id="a_edge27_Node000020_Node000003"><a xlink:title=" ">
<path fill="none" stroke="#63b8ff" d="M802.51,-297.05C786.6,-300.34 769.71,-303.81 754,-307 678.33,-322.36 591.33,-339.61 533.24,-351.07"/>
<polygon fill="#63b8ff" stroke="#63b8ff" points="807.41,-296.04 802.97,-299.26 804.96,-296.55 802.51,-297.05 802.51,-297.05 802.51,-297.05 804.96,-296.55 802.06,-294.85 807.41,-296.04 807.41,-296.04"/>
</a>
</g>
</g>
<!-- Node21 -->
<g id="Node000021" class="node">
<title>Node21</title>
<g id="a_Node000021"><a xlink:href="../../dc/d63/classTabDeckEditorVisual.html#a218c82a1db7e1f4f528b3387504b4fb9" target="_top" xlink:title=" ">
<polygon fill="white" stroke="#666666" points="731,-298 615,-298 615,-268 731,-268 731,-298"/>
<text text-anchor="start" x="623" y="-286" font-family="Helvetica,sans-Serif" font-size="10.00">TabDeckEditorVisual</text>
<text text-anchor="middle" x="673" y="-275" font-family="Helvetica,sans-Serif" font-size="10.00">::onDeckChanged</text>
</a>
</g>
</g>
<!-- Node20&#45;&gt;Node21 -->
<g id="edge28_Node000020_Node000021" class="edge">
<title>Node20&#45;&gt;Node21</title>
<g id="a_edge28_Node000020_Node000021"><a xlink:title=" ">
<path fill="none" stroke="#63b8ff" d="M802.25,-283C779.13,-283 753.52,-283 731.31,-283"/>
<polygon fill="#63b8ff" stroke="#63b8ff" points="807.45,-283 802.45,-285.25 804.95,-283 802.45,-283 802.45,-283 802.45,-283 804.95,-283 802.45,-280.75 807.45,-283 807.45,-283"/>
</a>
</g>
</g>
<!-- Node23 -->
<g id="Node000023" class="node">
<title>Node23</title>
<g id="a_Node000023"><a xlink:href="../../d1/d53/classAbstractTabDeckEditor.html#a3dff4de0fafc6198e2d1f9e6a74cfa46" target="_top" xlink:title=" ">
<polygon fill="white" stroke="#666666" points="736.5,-164 609.5,-164 609.5,-134 736.5,-134 736.5,-164"/>
<text text-anchor="start" x="617.5" y="-152" font-family="Helvetica,sans-Serif" font-size="10.00">AbstractTabDeckEditor</text>
<text text-anchor="middle" x="673" y="-141" font-family="Helvetica,sans-Serif" font-size="10.00">::actLoadDeck</text>
</a>
</g>
</g>
<!-- Node22&#45;&gt;Node23 -->
<g id="edge30_Node000022_Node000023" class="edge">
<title>Node22&#45;&gt;Node23</title>
<g id="a_edge30_Node000022_Node000023"><a xlink:title=" ">
<path fill="none" stroke="#63b8ff" d="M802.36,-149C781.04,-149 757.59,-149 736.63,-149"/>
<polygon fill="#63b8ff" stroke="#63b8ff" points="807.45,-149 802.45,-151.25 804.95,-149 802.45,-149 802.45,-149 802.45,-149 804.95,-149 802.45,-146.75 807.45,-149 807.45,-149"/>
</a>
</g>
</g>
<!-- Node24 -->
<g id="Node000024" class="node">
<title>Node24</title>
<g id="a_Node000024"><a xlink:href="../../d1/d53/classAbstractTabDeckEditor.html#a93013b383705b8effdc489fcad6aaee3" target="_top" xlink:title=" ">
<polygon fill="white" stroke="#666666" points="736.5,-116 609.5,-116 609.5,-86 736.5,-86 736.5,-116"/>
<text text-anchor="start" x="617.5" y="-104" font-family="Helvetica,sans-Serif" font-size="10.00">AbstractTabDeckEditor</text>
<text text-anchor="middle" x="673" y="-93" font-family="Helvetica,sans-Serif" font-size="10.00">::actOpenRecent</text>
</a>
</g>
</g>
<!-- Node22&#45;&gt;Node24 -->
<g id="edge32_Node000022_Node000024" class="edge">
<title>Node22&#45;&gt;Node24</title>
<g id="a_edge32_Node000022_Node000024"><a xlink:title=" ">
<path fill="none" stroke="#63b8ff" d="M803.55,-132.73C781.45,-127.31 756.95,-121.31 735.26,-116"/>
<polygon fill="#63b8ff" stroke="#63b8ff" points="808.52,-133.94 803.13,-134.94 806.09,-133.35 803.67,-132.75 803.67,-132.75 803.67,-132.75 806.09,-133.35 804.2,-130.57 808.52,-133.94 808.52,-133.94"/>
</a>
</g>
</g>
<!-- Node23&#45;&gt;Node10 -->
<g id="edge31_Node000023_Node000010" class="edge">
<title>Node23&#45;&gt;Node10</title>
<g id="a_edge31_Node000023_Node000010"><a xlink:title=" ">
<path fill="none" stroke="#63b8ff" d="M604.29,-148.2C532.94,-147.35 420.18,-146.01 341.19,-145.08"/>
<polygon fill="#63b8ff" stroke="#63b8ff" points="609.35,-148.26 604.33,-150.45 606.85,-148.23 604.35,-148.2 604.35,-148.2 604.35,-148.2 606.85,-148.23 604.38,-145.95 609.35,-148.26 609.35,-148.26"/>
</a>
</g>
</g>
<!-- Node25 -->
<g id="Node000025" class="node">
<title>Node25</title>
<g id="a_Node000025"><a xlink:href="../../dc/d76/classDeckEditorMenu.html#aa859cab97ab0d0cda05e71ebca05ae6a" target="_top" xlink:title=" ">
<polygon fill="white" stroke="#666666" points="556,-116 377,-116 377,-86 556,-86 556,-116"/>
<text text-anchor="start" x="385" y="-104" font-family="Helvetica,sans-Serif" font-size="10.00">DeckEditorMenu::updateRecently</text>
<text text-anchor="middle" x="466.5" y="-93" font-family="Helvetica,sans-Serif" font-size="10.00">Opened</text>
</a>
</g>
</g>
<!-- Node24&#45;&gt;Node25 -->
<g id="edge33_Node000024_Node000025" class="edge">
<title>Node24&#45;&gt;Node25</title>
<g id="a_edge33_Node000024_Node000025"><a xlink:title=" ">
<path fill="none" stroke="#63b8ff" d="M604.09,-101C588.72,-101 572.18,-101 556.09,-101"/>
<polygon fill="#63b8ff" stroke="#63b8ff" points="609.25,-101 604.25,-103.25 606.75,-101 604.25,-101 604.25,-101 604.25,-101 606.75,-101 604.25,-98.75 609.25,-101 609.25,-101"/>
</a>
</g>
</g>
<!-- Node25&#45;&gt;Node10 -->
<g id="edge34_Node000025_Node000010" class="edge">
<title>Node25&#45;&gt;Node10</title>
<g id="a_edge34_Node000025_Node000010"><a xlink:title=" ">
<path fill="none" stroke="#63b8ff" d="M385.24,-117.05C355.92,-122.92 323.69,-129.36 298.11,-134.48"/>
<polygon fill="#63b8ff" stroke="#63b8ff" points="390.3,-116.04 385.84,-119.23 387.85,-116.53 385.4,-117.02 385.4,-117.02 385.4,-117.02 387.85,-116.53 384.96,-114.81 390.3,-116.04 390.3,-116.04"/>
</a>
</g>
</g>
</g>
</svg>

<g id="navigator" transform="translate(0 0)" fill="#404254">
  <rect fill="#f2f5e9" fill-opacity="0.5" stroke="#606060" stroke-width=".5" x="0" y="0" width="60" height="60"/>
  <use id="zoomplus" xlink:href="#zoomPlus" x="17" y="9" onmousedown="handleZoom(evt,'in')"/>
  <use id="zoomminus" xlink:href="#zoomMin" x="42" y="9" onmousedown="handleZoom(evt,'out')"/>
  <use id="reset" xlink:href="#resetDef" x="30" y="36" onmousedown="handleReset()"/>
   <use id="arrowup" xlink:href="#arrowUp" x="0" y="0" onmousedown="handlePan(0,-1)"/>
  <use id="arrowright" xlink:href="#arrowRight" x="0" y="0" onmousedown="handlePan(1,0)"/>
  <use id="arrowdown" xlink:href="#arrowDown" x="0" y="0" onmousedown="handlePan(0,1)"/>
  <use id="arrowleft" xlink:href="#arrowLeft" x="0" y="0" onmousedown="handlePan(-1,0)"/>
</g>
<svg viewBox="0 0 15 15" width="100%" height="30px" preserveAspectRatio="xMaxYMin meet">
 <g id="arrow_out" transform="scale(0.3 0.3)">
  <a xlink:href="classDeckEditorMenu_a1d2145bb85342036a582425f967a8cad_icgraph_org.svg" target="_base">
   <rect id="button" ry="5" rx="5" y="6" x="6" height="38" width="38"
        fill="#f2f5e9" fill-opacity="0.5" stroke="#606060" stroke-width="1.0"/>
   <path id="arrow"
     d="M 11.500037,31.436501 C 11.940474,20.09759 22.043105,11.32322 32.158766,21.979434 L 37.068811,17.246167 C 37.068811,17.246167 37.088388,32 37.088388,32 L 22.160133,31.978069 C 22.160133,31.978069 26.997745,27.140456 26.997745,27.140456 C 18.528582,18.264221 13.291696,25.230495 11.500037,31.436501 z"
     style="fill:#404040;"/>
  </a>
 </g>
</svg>

<style type='text/css'>
<![CDATA[
[data-mouse-over-selected='false'] { opacity: 0.7; }
[data-mouse-over-selected='true']  { opacity: 1.0; }
]]>
</style>
<script type="application/ecmascript"><![CDATA[
document.addEventListener('DOMContentLoaded', (event) => {
  highlightEdges();
  highlightAdjacentNodes();
});
]]></script>
</svg>
