<?xml version="1.0" encoding="UTF-8" standalone="no"?>
<!DOCTYPE svg PUBLIC "-//W3C//DTD SVG 1.1//EN"
 "http://www.w3.org/Graphics/SVG/1.1/DTD/svg11.dtd">
<!-- Generated by graphviz version 2.43.0 (0)
 -->
<!-- Title: UnZip::extractFile Pages: 1 -->
<svg width="491pt" height="101pt"
 viewBox="0.00 0.00 491.00 101.00" xmlns="http://www.w3.org/2000/svg" xmlns:xlink="http://www.w3.org/1999/xlink">

<svg id="main" version="1.1" xmlns="http://www.w3.org/2000/svg" xmlns:xlink="http://www.w3.org/1999/xlink" xml:space="preserve" onload="init(evt)">
<style type="text/css"><![CDATA[
.node, .edge {opacity: 0.7;}
.node.selected, .edge.selected {opacity: 1;}
.edge:hover path { stroke: red; }
.edge:hover polygon { stroke: red; fill: red; }
]]></style>
<script type="application/ecmascript" xlink:href="../../svg.min.js"/>
<svg id="graph" class="graph">
<g id="graph0" class="graph" transform="scale(1 1) rotate(0) translate(4 97)">
<title>UnZip::extractFile</title>
<!-- Node1 -->
<g id="Node000001" class="node">
<title>Node1</title>
<g id="a_Node000001"><a xlink:title=" ">
<polygon fill="#999999" stroke="#666666" points="104,-56 0,-56 0,-37 104,-37 104,-56"/>
<text text-anchor="middle" x="52" y="-44" font-family="Helvetica,sans-Serif" font-size="10.00">UnZip::extractFile</text>
</a>
</g>
</g>
<!-- Node2 -->
<g id="Node000002" class="node">
<title>Node2</title>
<g id="a_Node000002"><a xlink:href="../../df/d90/classUnzipPrivate.html#af9581bc31922f5d6f2811779cc651806" target="_top" xlink:title=" ">
<polygon fill="white" stroke="#666666" points="277,-56 140,-56 140,-37 277,-37 277,-56"/>
<text text-anchor="middle" x="208.5" y="-44" font-family="Helvetica,sans-Serif" font-size="10.00">UnzipPrivate::extractFile</text>
</a>
</g>
</g>
<!-- Node1&#45;&gt;Node2 -->
<g id="edge1_Node000001_Node000002" class="edge">
<title>Node1&#45;&gt;Node2</title>
<g id="a_edge1_Node000001_Node000002"><a xlink:title=" ">
<path fill="none" stroke="#63b8ff" d="M104.02,-46.5C113.84,-46.5 124.3,-46.5 134.65,-46.5"/>
<polygon fill="#63b8ff" stroke="#63b8ff" points="139.73,-46.5 134.73,-48.75 137.23,-46.5 134.73,-46.5 134.73,-46.5 134.73,-46.5 137.23,-46.5 134.73,-44.25 139.73,-46.5 139.73,-46.5"/>
</a>
</g>
</g>
<!-- Node2&#45;&gt;Node2 -->
<g id="edge4_Node000002_Node000002" class="edge">
<title>Node2&#45;&gt;Node2</title>
<g id="a_edge4_Node000002_Node000002"><a xlink:title=" ">
<path fill="none" stroke="#63b8ff" d="M184.46,-56.08C172.76,-64.73 180.77,-74 208.5,-74 232.33,-74 241.6,-67.16 236.31,-59.74"/>
<polygon fill="#63b8ff" stroke="#63b8ff" points="232.54,-56.08 237.7,-57.95 234.34,-57.83 236.13,-59.57 236.13,-59.57 236.13,-59.57 234.34,-57.83 234.56,-61.18 232.54,-56.08 232.54,-56.08"/>
</a>
</g>
</g>
<!-- Node3 -->
<g id="Node000003" class="node">
<title>Node3</title>
<g id="a_Node000003"><a xlink:href="../../df/d90/classUnzipPrivate.html#a4f0aced5c07afb916f58d8f937ccdf7c" target="_top" xlink:title=" ">
<polygon fill="white" stroke="#666666" points="483,-93 313,-93 313,-74 483,-74 483,-93"/>
<text text-anchor="middle" x="398" y="-81" font-family="Helvetica,sans-Serif" font-size="10.00">UnzipPrivate::convertDateTime</text>
</a>
</g>
</g>
<!-- Node2&#45;&gt;Node3 -->
<g id="edge2_Node000002_Node000003" class="edge">
<title>Node2&#45;&gt;Node3</title>
<g id="a_edge2_Node000002_Node000003"><a xlink:title=" ">
<path fill="none" stroke="#63b8ff" d="M257.79,-56.03C284.04,-61.21 316.57,-67.63 343.58,-72.96"/>
<polygon fill="#63b8ff" stroke="#63b8ff" points="348.55,-73.94 343.21,-75.18 346.1,-73.46 343.65,-72.97 343.65,-72.97 343.65,-72.97 346.1,-73.46 344.08,-70.76 348.55,-73.94 348.55,-73.94"/>
</a>
</g>
</g>
<!-- Node4 -->
<g id="Node000004" class="node">
<title>Node4</title>
<g id="a_Node000004"><a xlink:href="../../df/d90/classUnzipPrivate.html#acfc8e18ade84d6ac072ec51cc3cc45d9" target="_top" xlink:title=" ">
<polygon fill="white" stroke="#666666" points="478.5,-56 317.5,-56 317.5,-37 478.5,-37 478.5,-56"/>
<text text-anchor="middle" x="398" y="-44" font-family="Helvetica,sans-Serif" font-size="10.00">UnzipPrivate::createDirectory</text>
</a>
</g>
</g>
<!-- Node2&#45;&gt;Node4 -->
<g id="edge3_Node000002_Node000004" class="edge">
<title>Node2&#45;&gt;Node4</title>
<g id="a_edge3_Node000002_Node000004"><a xlink:title=" ">
<path fill="none" stroke="#63b8ff" d="M277.19,-46.5C288.57,-46.5 300.51,-46.5 312.26,-46.5"/>
<polygon fill="#63b8ff" stroke="#63b8ff" points="317.28,-46.5 312.28,-48.75 314.78,-46.5 312.28,-46.5 312.28,-46.5 312.28,-46.5 314.78,-46.5 312.28,-44.25 317.28,-46.5 317.28,-46.5"/>
</a>
</g>
</g>
<!-- Node5 -->
<g id="Node000005" class="node">
<title>Node5</title>
<g id="a_Node000005"><a xlink:href="../../dd/da4/zipglobal_8cpp.html#ae421114edd4b821b1d5b154fd6dfb4cc" target="_top" xlink:title=" ">
<polygon fill="white" stroke="#666666" points="450,-19 346,-19 346,0 450,0 450,-19"/>
<text text-anchor="middle" x="398" y="-7" font-family="Helvetica,sans-Serif" font-size="10.00">setFileTimestamp</text>
</a>
</g>
</g>
<!-- Node2&#45;&gt;Node5 -->
<g id="edge5_Node000002_Node000005" class="edge">
<title>Node2&#45;&gt;Node5</title>
<g id="a_edge5_Node000002_Node000005"><a xlink:title=" ">
<path fill="none" stroke="#63b8ff" d="M257.79,-36.97C284.04,-31.79 316.57,-25.37 343.58,-20.04"/>
<polygon fill="#63b8ff" stroke="#63b8ff" points="348.55,-19.06 344.08,-22.24 346.1,-19.54 343.65,-20.03 343.65,-20.03 343.65,-20.03 346.1,-19.54 343.21,-17.82 348.55,-19.06 348.55,-19.06"/>
</a>
</g>
</g>
</g>
</svg>
</svg>

<style type='text/css'>
<![CDATA[
[data-mouse-over-selected='false'] { opacity: 0.7; }
[data-mouse-over-selected='true']  { opacity: 1.0; }
]]>
</style>
<script type="application/ecmascript"><![CDATA[
document.addEventListener('DOMContentLoaded', (event) => {
  highlightEdges();
  highlightAdjacentNodes();
});
]]></script>
</svg>
