<?xml version="1.0" encoding="UTF-8" standalone="no"?>
<!DOCTYPE svg PUBLIC "-//W3C//DTD SVG 1.1//EN"
 "http://www.w3.org/Graphics/SVG/1.1/DTD/svg11.dtd">
<!-- Generated by graphviz version 2.43.0 (0)
 -->
<!-- Title: cockatrice/src/game/board/arrow_item.h Pages: 1 -->
<svg width="320pt" height="225pt"
 viewBox="0.00 0.00 320.00 225.00" xmlns="http://www.w3.org/2000/svg" xmlns:xlink="http://www.w3.org/1999/xlink">
<g id="graph0" class="graph" transform="scale(1 1) rotate(0) translate(4 221)">
<title>cockatrice/src/game/board/arrow_item.h</title>
<!-- Node1 -->
<g id="Node000001" class="node">
<title>Node1</title>
<g id="a_Node000001"><a xlink:title=" ">
<polygon fill="#999999" stroke="#666666" points="282,-217 167,-217 167,-187 282,-187 282,-217"/>
<text text-anchor="start" x="175" y="-205" font-family="Helvetica,sans-Serif" font-size="10.00">cockatrice/src/game</text>
<text text-anchor="middle" x="224.5" y="-194" font-family="Helvetica,sans-Serif" font-size="10.00">/board/arrow_item.h</text>
</a>
</g>
</g>
<!-- Node2 -->
<g id="Node000002" class="node">
<title>Node2</title>
<g id="a_Node000002"><a xlink:href="../../dc/dda/arrow__target_8h.html" target="_top" xlink:title=" ">
<polygon fill="white" stroke="#666666" points="196.5,-151 108.5,-151 108.5,-132 196.5,-132 196.5,-151"/>
<text text-anchor="middle" x="152.5" y="-139" font-family="Helvetica,sans-Serif" font-size="10.00">arrow_target.h</text>
</a>
</g>
</g>
<!-- Node1&#45;&gt;Node2 -->
<g id="edge1_Node000001_Node000002" class="edge">
<title>Node1&#45;&gt;Node2</title>
<g id="a_edge1_Node000001_Node000002"><a xlink:title=" ">
<path fill="none" stroke="#63b8ff" d="M207.07,-186.84C194.91,-176.96 178.86,-163.92 167.32,-154.54"/>
<polygon fill="#63b8ff" stroke="#63b8ff" points="163.29,-151.27 168.59,-152.67 165.23,-152.84 167.17,-154.42 167.17,-154.42 167.17,-154.42 165.23,-152.84 165.75,-156.17 163.29,-151.27 163.29,-151.27"/>
</a>
</g>
</g>
<!-- Node4 -->
<g id="Node000004" class="node">
<title>Node4</title>
<g id="a_Node000004"><a xlink:title=" ">
<polygon fill="#e0e0e0" stroke="#999999" points="191,-19 102,-19 102,0 191,0 191,-19"/>
<text text-anchor="middle" x="146.5" y="-7" font-family="Helvetica,sans-Serif" font-size="10.00">QGraphicsItem</text>
</a>
</g>
</g>
<!-- Node1&#45;&gt;Node4 -->
<g id="edge5_Node000001_Node000004" class="edge">
<title>Node1&#45;&gt;Node4</title>
<g id="a_edge5_Node000001_Node000004"><a xlink:title=" ">
<path fill="none" stroke="#63b8ff" d="M226.09,-187C228.49,-159.61 230.44,-97.86 205.5,-55 197.11,-40.58 182.02,-29.33 169.2,-21.75"/>
<polygon fill="#63b8ff" stroke="#63b8ff" points="164.6,-19.12 170.06,-19.64 166.77,-20.36 168.94,-21.6 168.94,-21.6 168.94,-21.6 166.77,-20.36 167.83,-23.55 164.6,-19.12 164.6,-19.12"/>
</a>
</g>
</g>
<!-- Node6 -->
<g id="Node000006" class="node">
<title>Node6</title>
<g id="a_Node000006"><a xlink:title=" ">
<polygon fill="#e0e0e0" stroke="#999999" points="312,-151 253,-151 253,-132 312,-132 312,-151"/>
<text text-anchor="middle" x="282.5" y="-139" font-family="Helvetica,sans-Serif" font-size="10.00">QPointer</text>
</a>
</g>
</g>
<!-- Node1&#45;&gt;Node6 -->
<g id="edge6_Node000001_Node000006" class="edge">
<title>Node1&#45;&gt;Node6</title>
<g id="a_edge6_Node000001_Node000006"><a xlink:title=" ">
<path fill="none" stroke="#63b8ff" d="M238.54,-186.84C248.16,-177.13 260.81,-164.38 270.07,-155.04"/>
<polygon fill="#63b8ff" stroke="#63b8ff" points="273.81,-151.27 271.89,-156.4 272.05,-153.04 270.29,-154.82 270.29,-154.82 270.29,-154.82 272.05,-153.04 268.69,-153.23 273.81,-151.27 273.81,-151.27"/>
</a>
</g>
</g>
<!-- Node3 -->
<g id="Node000003" class="node">
<title>Node3</title>
<g id="a_Node000003"><a xlink:href="../../d5/d21/abstract__graphics__item_8h.html" target="_top" xlink:title=" ">
<polygon fill="white" stroke="#666666" points="137,-96 0,-96 0,-55 137,-55 137,-96"/>
<text text-anchor="start" x="8" y="-84" font-family="Helvetica,sans-Serif" font-size="10.00">../../game_graphics</text>
<text text-anchor="start" x="8" y="-73" font-family="Helvetica,sans-Serif" font-size="10.00">/board/abstract_graphics</text>
<text text-anchor="middle" x="68.5" y="-62" font-family="Helvetica,sans-Serif" font-size="10.00">_item.h</text>
</a>
</g>
</g>
<!-- Node2&#45;&gt;Node3 -->
<g id="edge2_Node000002_Node000003" class="edge">
<title>Node2&#45;&gt;Node3</title>
<g id="a_edge2_Node000002_Node000003"><a xlink:title=" ">
<path fill="none" stroke="#63b8ff" d="M141.17,-131.87C130.2,-123.51 113.09,-110.48 98.23,-99.15"/>
<polygon fill="#63b8ff" stroke="#63b8ff" points="94.11,-96.01 99.45,-97.25 96.09,-97.52 98.08,-99.04 98.08,-99.04 98.08,-99.04 96.09,-97.52 96.72,-100.83 94.11,-96.01 94.11,-96.01"/>
</a>
</g>
</g>
<!-- Node5 -->
<g id="Node000005" class="node">
<title>Node5</title>
<g id="a_Node000005"><a xlink:title=" ">
<polygon fill="#e0e0e0" stroke="#999999" points="196,-85 155,-85 155,-66 196,-66 196,-85"/>
<text text-anchor="middle" x="175.5" y="-73" font-family="Helvetica,sans-Serif" font-size="10.00">QList</text>
</a>
</g>
</g>
<!-- Node2&#45;&gt;Node5 -->
<g id="edge4_Node000002_Node000005" class="edge">
<title>Node2&#45;&gt;Node5</title>
<g id="a_edge4_Node000002_Node000005"><a xlink:title=" ">
<path fill="none" stroke="#63b8ff" d="M155.6,-131.87C159.42,-121.24 165.96,-103.05 170.49,-90.43"/>
<polygon fill="#63b8ff" stroke="#63b8ff" points="172.3,-85.41 172.73,-90.87 171.45,-87.76 170.61,-90.11 170.61,-90.11 170.61,-90.11 171.45,-87.76 168.49,-89.35 172.3,-85.41 172.3,-85.41"/>
</a>
</g>
</g>
<!-- Node3&#45;&gt;Node4 -->
<g id="edge3_Node000003_Node000004" class="edge">
<title>Node3&#45;&gt;Node4</title>
<g id="a_edge3_Node000003_Node000004"><a xlink:title=" ">
<path fill="none" stroke="#63b8ff" d="M92.33,-54.95C105.25,-44.34 120.82,-31.57 131.94,-22.45"/>
<polygon fill="#63b8ff" stroke="#63b8ff" points="135.82,-19.26 133.38,-24.17 133.89,-20.85 131.96,-22.43 131.96,-22.43 131.96,-22.43 133.89,-20.85 130.53,-20.69 135.82,-19.26 135.82,-19.26"/>
</a>
</g>
</g>
</g>
</svg>
