<?xml version="1.0" encoding="UTF-8" standalone="no"?>
<!DOCTYPE svg PUBLIC "-//W3C//DTD SVG 1.1//EN"
 "http://www.w3.org/Graphics/SVG/1.1/DTD/svg11.dtd">
<!-- Generated by graphviz version 2.43.0 (0)
 -->
<!-- Title: cockatrice/src/interface/widgets/tabs/api/archidekt/api_response/card/archidekt_api_response_card_entry.h Pages: 1 -->
<svg width="448pt" height="247pt"
 viewBox="0.00 0.00 447.50 247.00" xmlns="http://www.w3.org/2000/svg" xmlns:xlink="http://www.w3.org/1999/xlink">
<g id="graph0" class="graph" transform="scale(1 1) rotate(0) translate(4 243)">
<title>cockatrice/src/interface/widgets/tabs/api/archidekt/api_response/card/archidekt_api_response_card_entry.h</title>
<!-- Node1 -->
<g id="Node000001" class="node">
<title>Node1</title>
<g id="a_Node000001"><a xlink:title=" ">
<polygon fill="#999999" stroke="#666666" points="221,-239 64,-239 64,-187 221,-187 221,-239"/>
<text text-anchor="start" x="72" y="-227" font-family="Helvetica,sans-Serif" font-size="10.00">cockatrice/src/interface</text>
<text text-anchor="start" x="72" y="-216" font-family="Helvetica,sans-Serif" font-size="10.00">/widgets/tabs/api/archidekt</text>
<text text-anchor="start" x="72" y="-205" font-family="Helvetica,sans-Serif" font-size="10.00">/api_response/card/archidekt</text>
<text text-anchor="middle" x="142.5" y="-194" font-family="Helvetica,sans-Serif" font-size="10.00">_api_response_card_entry.h</text>
</a>
</g>
</g>
<!-- Node2 -->
<g id="Node000002" class="node">
<title>Node2</title>
<g id="a_Node000002"><a xlink:href="../../d0/da9/archidekt__api__response__card_8h.html" target="_top" xlink:title=" ">
<polygon fill="white" stroke="#666666" points="274.5,-151 142.5,-151 142.5,-121 274.5,-121 274.5,-151"/>
<text text-anchor="start" x="150.5" y="-139" font-family="Helvetica,sans-Serif" font-size="10.00">archidekt_api_response</text>
<text text-anchor="middle" x="208.5" y="-128" font-family="Helvetica,sans-Serif" font-size="10.00">_card.h</text>
</a>
</g>
</g>
<!-- Node1&#45;&gt;Node2 -->
<g id="edge1_Node000001_Node000002" class="edge">
<title>Node1&#45;&gt;Node2</title>
<g id="a_edge1_Node000001_Node000002"><a xlink:title=" ">
<path fill="none" stroke="#63b8ff" d="M164.84,-186.61C173.88,-176.35 184.1,-164.73 192.38,-155.32"/>
<polygon fill="#63b8ff" stroke="#63b8ff" points="195.8,-151.43 194.19,-156.67 194.15,-153.3 192.5,-155.18 192.5,-155.18 192.5,-155.18 194.15,-153.3 190.81,-153.69 195.8,-151.43 195.8,-151.43"/>
</a>
</g>
</g>
<!-- Node4 -->
<g id="Node000004" class="node">
<title>Node4</title>
<g id="a_Node000004"><a xlink:title=" ">
<polygon fill="#e0e0e0" stroke="#999999" points="145.5,-19 89.5,-19 89.5,0 145.5,0 145.5,-19"/>
<text text-anchor="middle" x="117.5" y="-7" font-family="Helvetica,sans-Serif" font-size="10.00">QDebug</text>
</a>
</g>
</g>
<!-- Node1&#45;&gt;Node4 -->
<g id="edge13_Node000001_Node000004" class="edge">
<title>Node1&#45;&gt;Node4</title>
<g id="a_edge13_Node000001_Node000004"><a xlink:title=" ">
<path fill="none" stroke="#63b8ff" d="M94.85,-186.7C81.97,-177.33 69.63,-165.4 62.5,-151 43.57,-112.76 44.12,-93.51 62.5,-55 69.38,-40.59 83.46,-29.33 95.65,-21.75"/>
<polygon fill="#63b8ff" stroke="#63b8ff" points="100.04,-19.12 96.91,-23.62 97.9,-20.41 95.75,-21.69 95.75,-21.69 95.75,-21.69 97.9,-20.41 94.59,-19.76 100.04,-19.12 100.04,-19.12"/>
</a>
</g>
</g>
<!-- Node5 -->
<g id="Node000005" class="node">
<title>Node5</title>
<g id="a_Node000005"><a xlink:title=" ">
<polygon fill="#e0e0e0" stroke="#999999" points="71,-19 0,-19 0,0 71,0 71,-19"/>
<text text-anchor="middle" x="35.5" y="-7" font-family="Helvetica,sans-Serif" font-size="10.00">QJsonArray</text>
</a>
</g>
</g>
<!-- Node1&#45;&gt;Node5 -->
<g id="edge14_Node000001_Node000005" class="edge">
<title>Node1&#45;&gt;Node5</title>
<g id="a_edge14_Node000001_Node000005"><a xlink:title=" ">
<path fill="none" stroke="#63b8ff" d="M84.97,-186.75C70.42,-177.59 56.41,-165.77 47.5,-151 23.07,-110.48 28.69,-51.07 32.91,-24.38"/>
<polygon fill="#63b8ff" stroke="#63b8ff" points="33.77,-19.2 35.17,-24.51 33.36,-21.67 32.95,-24.13 32.95,-24.13 32.95,-24.13 33.36,-21.67 30.73,-23.76 33.77,-19.2 33.77,-19.2"/>
</a>
</g>
</g>
<!-- Node6 -->
<g id="Node000006" class="node">
<title>Node6</title>
<g id="a_Node000006"><a xlink:title=" ">
<polygon fill="#e0e0e0" stroke="#999999" points="439.5,-19 363.5,-19 363.5,0 439.5,0 439.5,-19"/>
<text text-anchor="middle" x="401.5" y="-7" font-family="Helvetica,sans-Serif" font-size="10.00">QJsonObject</text>
</a>
</g>
</g>
<!-- Node1&#45;&gt;Node6 -->
<g id="edge15_Node000001_Node000006" class="edge">
<title>Node1&#45;&gt;Node6</title>
<g id="a_edge15_Node000001_Node000006"><a xlink:title=" ">
<path fill="none" stroke="#63b8ff" d="M221.01,-194.94C251.22,-185.59 284.64,-171.58 310.5,-151 355.24,-115.39 384.96,-51.53 396.32,-23.87"/>
<polygon fill="#63b8ff" stroke="#63b8ff" points="398.23,-19.14 398.45,-24.62 397.29,-21.46 396.36,-23.78 396.36,-23.78 396.36,-23.78 397.29,-21.46 394.27,-22.94 398.23,-19.14 398.23,-19.14"/>
</a>
</g>
</g>
<!-- Node7 -->
<g id="Node000007" class="node">
<title>Node7</title>
<g id="a_Node000007"><a xlink:title=" ">
<polygon fill="#e0e0e0" stroke="#999999" points="235,-19 182,-19 182,0 235,0 235,-19"/>
<text text-anchor="middle" x="208.5" y="-7" font-family="Helvetica,sans-Serif" font-size="10.00">QString</text>
</a>
</g>
</g>
<!-- Node1&#45;&gt;Node7 -->
<g id="edge16_Node000001_Node000007" class="edge">
<title>Node1&#45;&gt;Node7</title>
<g id="a_edge16_Node000001_Node000007"><a xlink:title=" ">
<path fill="none" stroke="#63b8ff" d="M133.18,-186.98C122.67,-154.31 109.93,-96.4 133.5,-55 142.87,-38.55 160.98,-27.55 177.06,-20.6"/>
<polygon fill="#63b8ff" stroke="#63b8ff" points="181.98,-18.58 178.21,-22.56 179.66,-19.53 177.35,-20.48 177.35,-20.48 177.35,-20.48 179.66,-19.53 176.5,-18.4 181.98,-18.58 181.98,-18.58"/>
</a>
</g>
</g>
<!-- Node8 -->
<g id="Node000008" class="node">
<title>Node8</title>
<g id="a_Node000008"><a xlink:title=" ">
<polygon fill="#e0e0e0" stroke="#999999" points="345,-19 290,-19 290,0 345,0 345,-19"/>
<text text-anchor="middle" x="317.5" y="-7" font-family="Helvetica,sans-Serif" font-size="10.00">QVector</text>
</a>
</g>
</g>
<!-- Node1&#45;&gt;Node8 -->
<g id="edge17_Node000001_Node000008" class="edge">
<title>Node1&#45;&gt;Node8</title>
<g id="a_edge17_Node000001_Node000008"><a xlink:title=" ">
<path fill="none" stroke="#63b8ff" d="M221.24,-188.32C243.09,-179.12 265.69,-166.89 283.5,-151 308.76,-128.47 312.76,-117.7 321.5,-85 324.94,-72.12 322.1,-68.32 321.5,-55 321.03,-44.6 319.96,-32.88 319.04,-24.08"/>
<polygon fill="#63b8ff" stroke="#63b8ff" points="318.49,-19.02 321.27,-23.75 318.76,-21.5 319.03,-23.99 319.03,-23.99 319.03,-23.99 318.76,-21.5 316.79,-24.23 318.49,-19.02 318.49,-19.02"/>
</a>
</g>
</g>
<!-- Node3 -->
<g id="Node000003" class="node">
<title>Node3</title>
<g id="a_Node000003"><a xlink:href="../../d5/d22/archidekt__api__response__edition_8h.html" target="_top" xlink:title=" ">
<polygon fill="white" stroke="#666666" points="274.5,-85 142.5,-85 142.5,-55 274.5,-55 274.5,-85"/>
<text text-anchor="start" x="150.5" y="-73" font-family="Helvetica,sans-Serif" font-size="10.00">archidekt_api_response</text>
<text text-anchor="middle" x="208.5" y="-62" font-family="Helvetica,sans-Serif" font-size="10.00">_edition.h</text>
</a>
</g>
</g>
<!-- Node2&#45;&gt;Node3 -->
<g id="edge2_Node000002_Node000003" class="edge">
<title>Node2&#45;&gt;Node3</title>
<g id="a_edge2_Node000002_Node000003"><a xlink:title=" ">
<path fill="none" stroke="#63b8ff" d="M208.5,-120.8C208.5,-111.85 208.5,-100.18 208.5,-90.38"/>
<polygon fill="#63b8ff" stroke="#63b8ff" points="208.5,-85.16 210.75,-90.16 208.5,-87.66 208.5,-90.16 208.5,-90.16 208.5,-90.16 208.5,-87.66 206.25,-90.16 208.5,-85.16 208.5,-85.16"/>
</a>
</g>
</g>
<!-- Node2&#45;&gt;Node4 -->
<g id="edge8_Node000002_Node000004" class="edge">
<title>Node2&#45;&gt;Node4</title>
<g id="a_edge8_Node000002_Node000004"><a xlink:title=" ">
<path fill="none" stroke="#63b8ff" d="M176.43,-120.81C161.2,-112.49 144.06,-100.53 133.5,-85 121.04,-66.68 118.04,-40.46 117.45,-24.5"/>
<polygon fill="#63b8ff" stroke="#63b8ff" points="117.33,-19.12 119.69,-24.07 117.38,-21.62 117.44,-24.12 117.44,-24.12 117.44,-24.12 117.38,-21.62 115.19,-24.17 117.33,-19.12 117.33,-19.12"/>
</a>
</g>
</g>
<!-- Node2&#45;&gt;Node5 -->
<g id="edge9_Node000002_Node000005" class="edge">
<title>Node2&#45;&gt;Node5</title>
<g id="a_edge9_Node000002_Node000005"><a xlink:title=" ">
<path fill="none" stroke="#63b8ff" d="M179.13,-120.81C161.04,-111.56 137.71,-98.7 118.5,-85 91.17,-65.52 62.81,-38.27 47.33,-22.7"/>
<polygon fill="#63b8ff" stroke="#63b8ff" points="43.68,-19 48.8,-20.98 45.44,-20.78 47.2,-22.56 47.2,-22.56 47.2,-22.56 45.44,-20.78 45.59,-24.14 43.68,-19 43.68,-19"/>
</a>
</g>
</g>
<!-- Node2&#45;&gt;Node6 -->
<g id="edge10_Node000002_Node000006" class="edge">
<title>Node2&#45;&gt;Node6</title>
<g id="a_edge10_Node000002_Node000006"><a xlink:title=" ">
<path fill="none" stroke="#63b8ff" d="M248.87,-120.93C271.21,-112.23 298.94,-99.89 321.5,-85 348.96,-66.89 375.9,-39.15 390.45,-23.13"/>
<polygon fill="#63b8ff" stroke="#63b8ff" points="393.87,-19.32 392.2,-24.54 392.2,-21.18 390.53,-23.04 390.53,-23.04 390.53,-23.04 392.2,-21.18 388.85,-21.53 393.87,-19.32 393.87,-19.32"/>
</a>
</g>
</g>
<!-- Node2&#45;&gt;Node7 -->
<g id="edge11_Node000002_Node000007" class="edge">
<title>Node2&#45;&gt;Node7</title>
<g id="a_edge11_Node000002_Node000007"><a xlink:title=" ">
<path fill="none" stroke="#63b8ff" d="M243.57,-120.85C258.73,-112.77 274.93,-101 283.5,-85 289.79,-73.24 290.1,-66.59 283.5,-55 274.13,-38.55 256.02,-27.55 239.94,-20.6"/>
<polygon fill="#63b8ff" stroke="#63b8ff" points="235.02,-18.58 240.5,-18.4 237.34,-19.53 239.65,-20.48 239.65,-20.48 239.65,-20.48 237.34,-19.53 238.79,-22.56 235.02,-18.58 235.02,-18.58"/>
</a>
</g>
</g>
<!-- Node2&#45;&gt;Node8 -->
<g id="edge12_Node000002_Node000008" class="edge">
<title>Node2&#45;&gt;Node8</title>
<g id="a_edge12_Node000002_Node000008"><a xlink:title=" ">
<path fill="none" stroke="#63b8ff" d="M250.93,-120.95C268.71,-113.03 288.09,-101.37 300.5,-85 314.04,-67.14 317.11,-40.42 317.64,-24.3"/>
<polygon fill="#63b8ff" stroke="#63b8ff" points="317.73,-19.27 319.89,-24.31 317.68,-21.77 317.64,-24.27 317.64,-24.27 317.64,-24.27 317.68,-21.77 315.39,-24.23 317.73,-19.27 317.73,-19.27"/>
</a>
</g>
</g>
<!-- Node3&#45;&gt;Node4 -->
<g id="edge3_Node000003_Node000004" class="edge">
<title>Node3&#45;&gt;Node4</title>
<g id="a_edge3_Node000003_Node000004"><a xlink:title=" ">
<path fill="none" stroke="#63b8ff" d="M186.47,-54.84C170.74,-44.73 149.85,-31.3 135.2,-21.88"/>
<polygon fill="#63b8ff" stroke="#63b8ff" points="130.87,-19.09 136.29,-19.91 132.97,-20.45 135.08,-21.8 135.08,-21.8 135.08,-21.8 132.97,-20.45 133.86,-23.69 130.87,-19.09 130.87,-19.09"/>
</a>
</g>
</g>
<!-- Node3&#45;&gt;Node5 -->
<g id="edge4_Node000003_Node000005" class="edge">
<title>Node3&#45;&gt;Node5</title>
<g id="a_edge4_Node000003_Node000005"><a xlink:title=" ">
<path fill="none" stroke="#63b8ff" d="M167.06,-54.99C135.91,-44.45 93.95,-30.26 65.87,-20.77"/>
<polygon fill="#63b8ff" stroke="#63b8ff" points="60.8,-19.05 66.25,-18.52 63.16,-19.85 65.53,-20.66 65.53,-20.66 65.53,-20.66 63.16,-19.85 64.81,-22.79 60.8,-19.05 60.8,-19.05"/>
</a>
</g>
</g>
<!-- Node3&#45;&gt;Node6 -->
<g id="edge5_Node000003_Node000006" class="edge">
<title>Node3&#45;&gt;Node6</title>
<g id="a_edge5_Node000003_Node000006"><a xlink:title=" ">
<path fill="none" stroke="#63b8ff" d="M254.73,-54.99C289.77,-44.37 337.07,-30.03 368.39,-20.53"/>
<polygon fill="#63b8ff" stroke="#63b8ff" points="373.28,-19.05 369.15,-22.66 370.89,-19.78 368.5,-20.5 368.5,-20.5 368.5,-20.5 370.89,-19.78 367.84,-18.35 373.28,-19.05 373.28,-19.05"/>
</a>
</g>
</g>
<!-- Node3&#45;&gt;Node7 -->
<g id="edge6_Node000003_Node000007" class="edge">
<title>Node3&#45;&gt;Node7</title>
<g id="a_edge6_Node000003_Node000007"><a xlink:title=" ">
<path fill="none" stroke="#63b8ff" d="M208.5,-54.84C208.5,-45.57 208.5,-33.51 208.5,-24.31"/>
<polygon fill="#63b8ff" stroke="#63b8ff" points="208.5,-19.27 210.75,-24.27 208.5,-21.77 208.5,-24.27 208.5,-24.27 208.5,-24.27 208.5,-21.77 206.25,-24.27 208.5,-19.27 208.5,-19.27"/>
</a>
</g>
</g>
<!-- Node3&#45;&gt;Node8 -->
<g id="edge7_Node000003_Node000008" class="edge">
<title>Node3&#45;&gt;Node8</title>
<g id="a_edge7_Node000003_Node000008"><a xlink:title=" ">
<path fill="none" stroke="#63b8ff" d="M234.61,-54.99C253.61,-44.79 278.99,-31.17 296.64,-21.69"/>
<polygon fill="#63b8ff" stroke="#63b8ff" points="301.4,-19.14 298.06,-23.49 299.2,-20.32 297,-21.5 297,-21.5 297,-21.5 299.2,-20.32 295.93,-19.52 301.4,-19.14 301.4,-19.14"/>
</a>
</g>
</g>
</g>
</svg>
