<?xml version="1.0" encoding="UTF-8" standalone="no"?>
<!DOCTYPE svg PUBLIC "-//W3C//DTD SVG 1.1//EN"
 "http://www.w3.org/Graphics/SVG/1.1/DTD/svg11.dtd">
<!-- Generated by graphviz version 2.43.0 (0)
 -->
<!-- Title: TabDeckStorageVisual::TabDeckStorageVisual Pages: 1 -->
<!--zoomable 429 -->

<svg id="main" version="1.1" xmlns="http://www.w3.org/2000/svg" xmlns:xlink="http://www.w3.org/1999/xlink" xml:space="preserve" onload="init(evt)">
<style type="text/css"><![CDATA[
.node, .edge {opacity: 0.7;}
.node.selected, .edge.selected {opacity: 1;}
.edge:hover path { stroke: red; }
.edge:hover polygon { stroke: red; fill: red; }
]]></style>

<defs>
  <circle id="rim" cx="0" cy="0" r="7"/>
  <circle id="rim2" cx="0" cy="0" r="3.5"/>
  <g id="zoomPlus">
    <use xlink:href="#rim" fill="#404040"><set attributeName="fill" to="#808080" begin="zoomplus.mouseover" end="zoomplus.mouseout"/></use>
    <path d="M-4,0h8M0,-4v8" fill="none" stroke="white" stroke-width="1.5" pointer-events="none"/>
  </g>
  <g id="zoomMin">
    <use xlink:href="#rim" fill="#404040"><set attributeName="fill" to="#808080" begin="zoomminus.mouseover" end="zoomminus.mouseout"/></use>
    <path d="M-4,0h8" fill="none" stroke="white" stroke-width="1.5" pointer-events="none"/>
  </g>
  <g id="arrowUp" transform="translate(30 24)">
    <use xlink:href="#rim"/>
    <path pointer-events="none" fill="none" stroke="white" stroke-width="1.5" d="M0,-3.0v7 M-2.5,-0.5L0,-3.0L2.5,-0.5"/>
  </g>
  <g id="arrowRight" transform="rotate(90) translate(36 -43)">
    <use xlink:href="#rim"/>
    <path pointer-events="none" fill="none" stroke="white" stroke-width="1.5" d="M0,-3.0v7 M-2.5,-0.5L0,-3.0L2.5,-0.5"/>
  </g>
  <g id="arrowDown" transform="rotate(180) translate(-30 -48)">
    <use xlink:href="#rim"/>
    <path pointer-events="none" fill="none" stroke="white" stroke-width="1.5" d="M0,-3.0v7 M-2.5,-0.5L0,-3.0L2.5,-0.5"/>
  </g>
  <g id="arrowLeft" transform="rotate(270) translate(-36 17)">
    <use xlink:href="#rim"/>
    <path pointer-events="none" fill="none" stroke="white" stroke-width="1.5" d="M0,-3.0v7 M-2.5,-0.5L0,-3.0L2.5,-0.5"/>
  </g>
  <g id="resetDef">
    <use xlink:href="#rim2" fill="#404040"><set attributeName="fill" to="#808080" begin="reset.mouseover" end="reset.mouseout"/></use>
  </g>
</defs>
<script type="application/ecmascript">
var viewWidth = 1133;
var viewHeight = 429;
var sectionId = 'dynsection-2';
</script>
<script type="application/ecmascript" xlink:href="../../svg.min.js"/>
<svg id="graph" class="graph">
<g id="viewport">
<title>TabDeckStorageVisual::TabDeckStorageVisual</title>
<!-- Node1 -->
<g id="Node000001" class="node">
<title>Node1</title>
<g id="a_Node000001"><a xlink:title=" ">
<polygon fill="#999999" stroke="#666666" points="131,-334.5 0,-334.5 0,-304.5 131,-304.5 131,-334.5"/>
<text text-anchor="start" x="8" y="-322.5" font-family="Helvetica,sans-Serif" font-size="10.00">TabDeckStorageVisual</text>
<text text-anchor="middle" x="65.5" y="-311.5" font-family="Helvetica,sans-Serif" font-size="10.00">::TabDeckStorageVisual</text>
</a>
</g>
</g>
<!-- Node2 -->
<g id="Node000002" class="node">
<title>Node2</title>
<g id="a_Node000002"><a xlink:href="../../d9/dba/classTabDeckStorageVisual.html#a660326230cf9ce43d3227cfa1797bc8d" target="_top" xlink:title=" ">
<polygon fill="white" stroke="#666666" points="304,-420.5 179,-420.5 179,-390.5 304,-390.5 304,-420.5"/>
<text text-anchor="start" x="187" y="-408.5" font-family="Helvetica,sans-Serif" font-size="10.00">TabDeckStorageVisual</text>
<text text-anchor="middle" x="241.5" y="-397.5" font-family="Helvetica,sans-Serif" font-size="10.00">::actOpenLocalDeck</text>
</a>
</g>
</g>
<!-- Node1&#45;&gt;Node2 -->
<g id="edge1_Node000001_Node000002" class="edge">
<title>Node1&#45;&gt;Node2</title>
<g id="a_edge1_Node000001_Node000002"><a xlink:title=" ">
<path fill="none" stroke="#63b8ff" d="M90.77,-334.54C110.81,-346.65 140.22,-363.7 167,-376.5 175.75,-380.68 185.27,-384.76 194.47,-388.48"/>
<polygon fill="#63b8ff" stroke="#63b8ff" points="199.24,-390.4 193.76,-390.63 196.92,-389.47 194.6,-388.54 194.6,-388.54 194.6,-388.54 196.92,-389.47 195.44,-386.45 199.24,-390.4 199.24,-390.4"/>
</a>
</g>
</g>
<!-- Node3 -->
<g id="Node000003" class="node">
<title>Node3</title>
<g id="a_Node000003"><a xlink:href="../../d9/dba/classTabDeckStorageVisual.html#a2dbe337101969f6182864670695ffc6d" target="_top" xlink:title=" ">
<polygon fill="white" stroke="#666666" points="504,-419.5 379,-419.5 379,-389.5 504,-389.5 504,-419.5"/>
<text text-anchor="start" x="387" y="-407.5" font-family="Helvetica,sans-Serif" font-size="10.00">TabDeckStorageVisual</text>
<text text-anchor="middle" x="441.5" y="-396.5" font-family="Helvetica,sans-Serif" font-size="10.00">::openDeckEditor</text>
</a>
</g>
</g>
<!-- Node1&#45;&gt;Node3 -->
<g id="edge5_Node000001_Node000003" class="edge">
<title>Node1&#45;&gt;Node3</title>
<g id="a_edge5_Node000001_Node000003"><a xlink:title=" ">
<path fill="none" stroke="#63b8ff" d="M128.92,-334.56C141.52,-337.56 154.68,-340.65 167,-343.5 237.52,-359.78 318.43,-377.74 373.85,-389.93"/>
<polygon fill="#63b8ff" stroke="#63b8ff" points="378.8,-391.01 373.43,-392.14 376.36,-390.48 373.91,-389.94 373.91,-389.94 373.91,-389.94 376.36,-390.48 374.4,-387.74 378.8,-391.01 378.8,-391.01"/>
</a>
</g>
</g>
<!-- Node4 -->
<g id="Node000004" class="node">
<title>Node4</title>
<g id="a_Node000004"><a xlink:href="../../d0/dfe/classVisualDeckStorageWidget.html#acc2a1f53f1ec8d66308b905abff74e59" target="_top" xlink:title=" ">
<polygon fill="white" stroke="#666666" points="313,-334.5 170,-334.5 170,-304.5 313,-304.5 313,-334.5"/>
<text text-anchor="start" x="178" y="-322.5" font-family="Helvetica,sans-Serif" font-size="10.00">VisualDeckStorageWidget</text>
<text text-anchor="middle" x="241.5" y="-311.5" font-family="Helvetica,sans-Serif" font-size="10.00">::deckLoadRequested</text>
</a>
</g>
</g>
<!-- Node1&#45;&gt;Node4 -->
<g id="edge3_Node000001_Node000004" class="edge">
<title>Node1&#45;&gt;Node4</title>
<g id="a_edge3_Node000001_Node000004"><a xlink:title=" ">
<path fill="none" stroke="#63b8ff" d="M131.29,-319.5C142.18,-319.5 153.57,-319.5 164.72,-319.5"/>
<polygon fill="#63b8ff" stroke="#63b8ff" points="169.81,-319.5 164.81,-321.75 167.31,-319.5 164.81,-319.5 164.81,-319.5 164.81,-319.5 167.31,-319.5 164.81,-317.25 169.81,-319.5 169.81,-319.5"/>
</a>
</g>
</g>
<!-- Node5 -->
<g id="Node000005" class="node">
<title>Node5</title>
<g id="a_Node000005"><a xlink:href="../../d0/dfe/classVisualDeckStorageWidget.html#a3e8968ddb01e5a219d692d41689e3ec7" target="_top" xlink:title=" ">
<polygon fill="white" stroke="#666666" points="313,-286.5 170,-286.5 170,-256.5 313,-256.5 313,-286.5"/>
<text text-anchor="start" x="178" y="-274.5" font-family="Helvetica,sans-Serif" font-size="10.00">VisualDeckStorageWidget</text>
<text text-anchor="middle" x="241.5" y="-263.5" font-family="Helvetica,sans-Serif" font-size="10.00">::openDeckEditor</text>
</a>
</g>
</g>
<!-- Node1&#45;&gt;Node5 -->
<g id="edge4_Node000001_Node000005" class="edge">
<title>Node1&#45;&gt;Node5</title>
<g id="a_edge4_Node000001_Node000005"><a xlink:title=" ">
<path fill="none" stroke="#63b8ff" d="M121.08,-304.44C140.19,-299.17 161.73,-293.23 181.21,-287.86"/>
<polygon fill="#63b8ff" stroke="#63b8ff" points="186.12,-286.5 181.89,-290 183.71,-287.17 181.3,-287.83 181.3,-287.83 181.3,-287.83 183.71,-287.17 180.7,-285.66 186.12,-286.5 186.12,-286.5"/>
</a>
</g>
</g>
<!-- Node6 -->
<g id="Node000006" class="node">
<title>Node6</title>
<g id="a_Node000006"><a xlink:href="../../dd/d81/classTabSupervisor.html#ab80a432530cad4202e61b0f6e9162c89" target="_top" xlink:title=" ">
<polygon fill="white" stroke="#666666" points="316,-238.5 167,-238.5 167,-208.5 316,-208.5 316,-238.5"/>
<text text-anchor="start" x="175" y="-226.5" font-family="Helvetica,sans-Serif" font-size="10.00">TabSupervisor::openDeckIn</text>
<text text-anchor="middle" x="241.5" y="-215.5" font-family="Helvetica,sans-Serif" font-size="10.00">NewTab</text>
</a>
</g>
</g>
<!-- Node1&#45;&gt;Node6 -->
<g id="edge6_Node000001_Node000006" class="edge">
<title>Node1&#45;&gt;Node6</title>
<g id="a_edge6_Node000001_Node000006"><a xlink:title=" ">
<path fill="none" stroke="#63b8ff" d="M83.94,-304.45C103.18,-288.48 135.6,-263.4 167,-247.5 171.95,-244.99 177.22,-242.67 182.58,-240.54"/>
<polygon fill="#63b8ff" stroke="#63b8ff" points="187.51,-238.63 183.66,-242.53 185.18,-239.53 182.85,-240.43 182.85,-240.43 182.85,-240.43 185.18,-239.53 182.04,-238.33 187.51,-238.63 187.51,-238.63"/>
</a>
</g>
</g>
<!-- Node2&#45;&gt;Node3 -->
<g id="edge2_Node000002_Node000003" class="edge">
<title>Node2&#45;&gt;Node3</title>
<g id="a_edge2_Node000002_Node000003"><a xlink:title=" ">
<path fill="none" stroke="#63b8ff" d="M304.06,-405.19C326.23,-405.08 351.33,-404.95 373.9,-404.84"/>
<polygon fill="#63b8ff" stroke="#63b8ff" points="378.97,-404.81 373.99,-407.09 376.48,-404.82 373.98,-404.84 373.98,-404.84 373.98,-404.84 376.48,-404.82 373.96,-402.59 378.97,-404.81 378.97,-404.81"/>
</a>
</g>
</g>
<!-- Node7 -->
<g id="Node000007" class="node">
<title>Node7</title>
<g id="a_Node000007"><a xlink:href="../../dd/d81/classTabSupervisor.html#a9f4c1487f796f5abd78309c8ecaca919" target="_top" xlink:title=" ">
<polygon fill="white" stroke="#666666" points="531,-236 352,-236 352,-217 531,-217 531,-236"/>
<text text-anchor="middle" x="441.5" y="-224" font-family="Helvetica,sans-Serif" font-size="10.00">TabSupervisor::addDeckEditorTab</text>
</a>
</g>
</g>
<!-- Node6&#45;&gt;Node7 -->
<g id="edge7_Node000006_Node000007" class="edge">
<title>Node6&#45;&gt;Node7</title>
<g id="a_edge7_Node000006_Node000007"><a xlink:title=" ">
<path fill="none" stroke="#63b8ff" d="M316.23,-224.62C326.24,-224.77 336.63,-224.93 346.94,-225.08"/>
<polygon fill="#63b8ff" stroke="#63b8ff" points="351.99,-225.16 346.95,-227.33 349.49,-225.12 346.99,-225.08 346.99,-225.08 346.99,-225.08 349.49,-225.12 347.02,-222.83 351.99,-225.16 351.99,-225.16"/>
</a>
</g>
</g>
<!-- Node20 -->
<g id="Node000020" class="node">
<title>Node20</title>
<g id="a_Node000020"><a xlink:href="../../d5/d88/classSettingsCache.html#adfa7f9f975919981b992db1fca9e4957" target="_top" xlink:title=" ">
<polygon fill="white" stroke="#666666" points="1104.5,-331 970.5,-331 970.5,-312 1104.5,-312 1104.5,-331"/>
<text text-anchor="middle" x="1037.5" y="-319" font-family="Helvetica,sans-Serif" font-size="10.00">SettingsCache::instance</text>
</a>
</g>
</g>
<!-- Node6&#45;&gt;Node20 -->
<g id="edge35_Node000006_Node000020" class="edge">
<title>Node6&#45;&gt;Node20</title>
<g id="a_edge35_Node000006_Node000020"><a xlink:title=" ">
<path fill="none" stroke="#63b8ff" d="M290.53,-238.58C299.05,-241.42 307.82,-244.47 316,-247.5 332.25,-253.53 335.41,-257.48 352,-262.5 593.3,-335.53 662.56,-357.87 914,-339.5 935.05,-337.96 957.97,-334.96 978.23,-331.83"/>
<polygon fill="#63b8ff" stroke="#63b8ff" points="983.32,-331.04 978.73,-334.03 980.85,-331.43 978.38,-331.81 978.38,-331.81 978.38,-331.81 980.85,-331.43 978.04,-329.59 983.32,-331.04 983.32,-331.04"/>
</a>
</g>
</g>
<!-- Node25 -->
<g id="Node000025" class="node">
<title>Node25</title>
<g id="a_Node000025"><a xlink:href="../../dd/d81/classTabSupervisor.html#ad9dce40f2ace2e9e6b532f2b3d7a8bd0" target="_top" xlink:title=" ">
<polygon fill="white" stroke="#666666" points="511,-180.5 372,-180.5 372,-150.5 511,-150.5 511,-180.5"/>
<text text-anchor="start" x="380" y="-168.5" font-family="Helvetica,sans-Serif" font-size="10.00">TabSupervisor::addVisual</text>
<text text-anchor="middle" x="441.5" y="-157.5" font-family="Helvetica,sans-Serif" font-size="10.00">DeckEditorTab</text>
</a>
</g>
</g>
<!-- Node6&#45;&gt;Node25 -->
<g id="edge28_Node000006_Node000025" class="edge">
<title>Node6&#45;&gt;Node25</title>
<g id="a_edge28_Node000006_Node000025"><a xlink:title=" ">
<path fill="none" stroke="#63b8ff" d="M293.75,-208.49C321.48,-200.37 355.78,-190.32 384.24,-181.98"/>
<polygon fill="#63b8ff" stroke="#63b8ff" points="389.12,-180.55 384.96,-184.11 386.72,-181.25 384.33,-181.96 384.33,-181.96 384.33,-181.96 386.72,-181.25 383.69,-179.8 389.12,-180.55 389.12,-180.55"/>
</a>
</g>
</g>
<!-- Node26 -->
<g id="Node000026" class="node">
<title>Node26</title>
<g id="a_Node000026"><a xlink:href="../../d5/d88/classSettingsCache.html#a03b4dd1046f2bb31df91931ca139ad18" target="_top" xlink:title=" ">
<polygon fill="white" stroke="#666666" points="513.5,-132.5 369.5,-132.5 369.5,-102.5 513.5,-102.5 513.5,-132.5"/>
<text text-anchor="start" x="377.5" y="-120.5" font-family="Helvetica,sans-Serif" font-size="10.00">SettingsCache::getDefault</text>
<text text-anchor="middle" x="441.5" y="-109.5" font-family="Helvetica,sans-Serif" font-size="10.00">DeckEditorType</text>
</a>
</g>
</g>
<!-- Node6&#45;&gt;Node26 -->
<g id="edge34_Node000006_Node000026" class="edge">
<title>Node6&#45;&gt;Node26</title>
<g id="a_edge34_Node000006_Node000026"><a xlink:title=" ">
<path fill="none" stroke="#63b8ff" d="M258.63,-208.27C278.9,-189.91 315.5,-159.3 352,-141.5 357.37,-138.88 363.06,-136.52 368.87,-134.39"/>
<polygon fill="#63b8ff" stroke="#63b8ff" points="373.77,-132.65 369.81,-136.44 371.41,-133.49 369.06,-134.32 369.06,-134.32 369.06,-134.32 371.41,-133.49 368.3,-132.2 373.77,-132.65 373.77,-132.65"/>
</a>
</g>
</g>
<!-- Node7&#45;&gt;Node7 -->
<g id="edge8_Node000007_Node000007" class="edge">
<title>Node7&#45;&gt;Node7</title>
<g id="a_edge8_Node000007_Node000007"><a xlink:title=" ">
<path fill="none" stroke="#63b8ff" d="M411.29,-236.08C396.59,-244.73 406.66,-254 441.5,-254 471.98,-254 483.5,-246.91 476.06,-239.34"/>
<polygon fill="#63b8ff" stroke="#63b8ff" points="471.71,-236.08 477.06,-237.28 473.71,-237.58 475.71,-239.08 475.71,-239.08 475.71,-239.08 473.71,-237.58 474.37,-240.88 471.71,-236.08 471.71,-236.08"/>
</a>
</g>
</g>
<!-- Node8 -->
<g id="Node000008" class="node">
<title>Node8</title>
<g id="a_Node000008"><a xlink:href="../../dd/d81/classTabSupervisor.html#ab821eba51d3e7c944addf2c4122ae567" target="_top" xlink:title=" ">
<polygon fill="white" stroke="#666666" points="710,-132.5 567,-132.5 567,-102.5 710,-102.5 710,-132.5"/>
<text text-anchor="start" x="575" y="-120.5" font-family="Helvetica,sans-Serif" font-size="10.00">TabSupervisor::deckEditor</text>
<text text-anchor="middle" x="638.5" y="-109.5" font-family="Helvetica,sans-Serif" font-size="10.00">Closed</text>
</a>
</g>
</g>
<!-- Node7&#45;&gt;Node8 -->
<g id="edge9_Node000007_Node000008" class="edge">
<title>Node7&#45;&gt;Node8</title>
<g id="a_edge9_Node000007_Node000008"><a xlink:title=" ">
<path fill="none" stroke="#63b8ff" d="M513.99,-216.96C520.06,-214.46 525.84,-211.36 531,-207.5 557.77,-187.51 541.44,-163.02 567,-141.5 569.79,-139.15 572.82,-137.03 576,-135.11"/>
<polygon fill="#63b8ff" stroke="#63b8ff" points="580.43,-132.63 577.17,-137.04 578.25,-133.85 576.07,-135.08 576.07,-135.08 576.07,-135.08 578.25,-133.85 574.97,-133.11 580.43,-132.63 580.43,-132.63"/>
</a>
</g>
</g>
<!-- Node10 -->
<g id="Node000010" class="node">
<title>Node10</title>
<g id="a_Node000010"><a xlink:href="../../d1/d53/classAbstractTabDeckEditor.html#ad01e84b6ba3ca44886b4483ae440162b" target="_top" xlink:title="Emitted before the tab is closed.">
<polygon fill="white" stroke="#666666" points="702,-266.5 575,-266.5 575,-236.5 702,-236.5 702,-266.5"/>
<text text-anchor="start" x="583" y="-254.5" font-family="Helvetica,sans-Serif" font-size="10.00">AbstractTabDeckEditor</text>
<text text-anchor="middle" x="638.5" y="-243.5" font-family="Helvetica,sans-Serif" font-size="10.00">::deckEditorClosing</text>
</a>
</g>
</g>
<!-- Node7&#45;&gt;Node10 -->
<g id="edge11_Node000007_Node000010" class="edge">
<title>Node7&#45;&gt;Node10</title>
<g id="a_edge11_Node000007_Node000010"><a xlink:title=" ">
<path fill="none" stroke="#63b8ff" d="M516.78,-236.02C534.14,-238.25 552.54,-240.61 569.61,-242.8"/>
<polygon fill="#63b8ff" stroke="#63b8ff" points="574.86,-243.47 569.62,-245.07 572.38,-243.15 569.9,-242.83 569.9,-242.83 569.9,-242.83 572.38,-243.15 570.19,-240.6 574.86,-243.47 574.86,-243.47"/>
</a>
</g>
</g>
<!-- Node11 -->
<g id="Node000011" class="node">
<title>Node11</title>
<g id="a_Node000011"><a xlink:href="../../dd/d81/classTabSupervisor.html#a921a5a0cadfa211585e1a42b47cd73ff" target="_top" xlink:title=" ">
<polygon fill="white" stroke="#666666" points="709.5,-218 567.5,-218 567.5,-199 709.5,-199 709.5,-218"/>
<text text-anchor="middle" x="638.5" y="-206" font-family="Helvetica,sans-Serif" font-size="10.00">TabSupervisor::myAddTab</text>
</a>
</g>
</g>
<!-- Node7&#45;&gt;Node11 -->
<g id="edge12_Node000007_Node000011" class="edge">
<title>Node7&#45;&gt;Node11</title>
<g id="a_edge12_Node000007_Node000011"><a xlink:title=" ">
<path fill="none" stroke="#63b8ff" d="M531.16,-218.32C541.62,-217.35 552.22,-216.37 562.46,-215.43"/>
<polygon fill="#63b8ff" stroke="#63b8ff" points="567.47,-214.96 562.69,-217.66 564.98,-215.19 562.49,-215.42 562.49,-215.42 562.49,-215.42 564.98,-215.19 562.28,-213.18 567.47,-214.96 567.47,-214.96"/>
</a>
</g>
</g>
<!-- Node24 -->
<g id="Node000024" class="node">
<title>Node24</title>
<g id="a_Node000024"><a xlink:href="../../d1/d53/classAbstractTabDeckEditor.html#ade23dfd4b3cebbd219fbc29d8c7349a1" target="_top" xlink:title="Emitted when a deck should be opened in a new editor tab.">
<polygon fill="white" stroke="#666666" points="702,-180.5 575,-180.5 575,-150.5 702,-150.5 702,-180.5"/>
<text text-anchor="start" x="583" y="-168.5" font-family="Helvetica,sans-Serif" font-size="10.00">AbstractTabDeckEditor</text>
<text text-anchor="middle" x="638.5" y="-157.5" font-family="Helvetica,sans-Serif" font-size="10.00">::openDeckEditor</text>
</a>
</g>
</g>
<!-- Node7&#45;&gt;Node24 -->
<g id="edge27_Node000007_Node000024" class="edge">
<title>Node7&#45;&gt;Node24</title>
<g id="a_edge27_Node000007_Node000024"><a xlink:title=" ">
<path fill="none" stroke="#63b8ff" d="M497.39,-216.97C508.65,-214.39 520.32,-211.25 531,-207.5 547.88,-201.58 550.5,-196.4 567,-189.5 572.89,-187.04 579.14,-184.63 585.38,-182.35"/>
<polygon fill="#63b8ff" stroke="#63b8ff" points="590.14,-180.63 586.2,-184.45 587.79,-181.48 585.44,-182.33 585.44,-182.33 585.44,-182.33 587.79,-181.48 584.68,-180.21 590.14,-180.63 590.14,-180.63"/>
</a>
</g>
</g>
<!-- Node9 -->
<g id="Node000009" class="node">
<title>Node9</title>
<g id="a_Node000009"><a xlink:href="../../dd/d81/classTabSupervisor.html#ac799b64b60adb0c8374f7ad822bec57c" target="_top" xlink:title=" ">
<polygon fill="white" stroke="#666666" points="896.5,-19 763.5,-19 763.5,0 896.5,0 896.5,-19"/>
<text text-anchor="middle" x="830" y="-7" font-family="Helvetica,sans-Serif" font-size="10.00">TabSupervisor::setMenu</text>
</a>
</g>
</g>
<!-- Node8&#45;&gt;Node9 -->
<g id="edge10_Node000008_Node000009" class="edge">
<title>Node8&#45;&gt;Node9</title>
<g id="a_edge10_Node000008_Node000009"><a xlink:title=" ">
<path fill="none" stroke="#63b8ff" d="M653.07,-102.38C671.92,-82.35 708.01,-47.35 746,-28.5 752.35,-25.35 759.23,-22.71 766.22,-20.51"/>
<polygon fill="#63b8ff" stroke="#63b8ff" points="771.07,-19.05 766.93,-22.64 768.68,-19.77 766.29,-20.49 766.29,-20.49 766.29,-20.49 768.68,-19.77 765.64,-18.34 771.07,-19.05 771.07,-19.05"/>
</a>
</g>
</g>
<!-- Node12 -->
<g id="Node000012" class="node">
<title>Node12</title>
<g id="a_Node000012"><a xlink:href="../../dd/d81/classTabSupervisor.html#a35f0b178472c1a1ad389b2e5473ee9d9" target="_top" xlink:title=" ">
<polygon fill="white" stroke="#666666" points="914,-67.5 746,-67.5 746,-37.5 914,-37.5 914,-67.5"/>
<text text-anchor="start" x="754" y="-55.5" font-family="Helvetica,sans-Serif" font-size="10.00">TabSupervisor::addCloseButton</text>
<text text-anchor="middle" x="830" y="-44.5" font-family="Helvetica,sans-Serif" font-size="10.00">ToTab</text>
</a>
</g>
</g>
<!-- Node11&#45;&gt;Node12 -->
<g id="edge13_Node000011_Node000012" class="edge">
<title>Node11&#45;&gt;Node12</title>
<g id="a_edge13_Node000011_Node000012"><a xlink:title=" ">
<path fill="none" stroke="#63b8ff" d="M696.17,-198.92C701.24,-196.44 705.97,-193.35 710,-189.5 748.1,-153.08 708.23,-113.27 746,-76.5 748.33,-74.23 750.86,-72.18 753.53,-70.32"/>
<polygon fill="#63b8ff" stroke="#63b8ff" points="757.86,-67.55 754.86,-72.14 755.75,-68.9 753.65,-70.24 753.65,-70.24 753.65,-70.24 755.75,-68.9 752.43,-68.35 757.86,-67.55 757.86,-67.55"/>
</a>
</g>
</g>
<!-- Node15 -->
<g id="Node000015" class="node">
<title>Node15</title>
<g id="a_Node000015"><a xlink:href="../../de/d9c/classTab.html#a46533c5f44b364e8e5d830ab74006a55" target="_top" xlink:title=" ">
<polygon fill="white" stroke="#666666" points="876,-331 784,-331 784,-312 876,-312 876,-331"/>
<text text-anchor="middle" x="830" y="-319" font-family="Helvetica,sans-Serif" font-size="10.00">Tab::getTabText</text>
</a>
</g>
</g>
<!-- Node11&#45;&gt;Node15 -->
<g id="edge16_Node000011_Node000015" class="edge">
<title>Node11&#45;&gt;Node15</title>
<g id="a_edge16_Node000011_Node000015"><a xlink:title=" ">
<path fill="none" stroke="#63b8ff" d="M694.23,-218.05C699.92,-220.51 705.32,-223.61 710,-227.5 738.44,-251.13 717.11,-279.42 746,-302.5 755.4,-310.01 767.21,-314.66 778.95,-317.52"/>
<polygon fill="#63b8ff" stroke="#63b8ff" points="783.97,-318.64 778.6,-319.75 781.52,-318.09 779.08,-317.55 779.08,-317.55 779.08,-317.55 781.52,-318.09 779.57,-315.36 783.97,-318.64 783.97,-318.64"/>
</a>
</g>
</g>
<!-- Node16 -->
<g id="Node000016" class="node">
<title>Node16</title>
<g id="a_Node000016"><a xlink:href="../../dd/d81/classTabSupervisor.html#a1cbd5dbfcf13b7c837515a8357258130" target="_top" xlink:title=" ">
<polygon fill="white" stroke="#666666" points="1114,-143 961,-143 961,-124 1114,-124 1114,-143"/>
<text text-anchor="middle" x="1037.5" y="-131" font-family="Helvetica,sans-Serif" font-size="10.00">TabSupervisor::sanitizeHtml</text>
</a>
</g>
</g>
<!-- Node11&#45;&gt;Node16 -->
<g id="edge17_Node000011_Node000016" class="edge">
<title>Node11&#45;&gt;Node16</title>
<g id="a_edge17_Node000011_Node000016"><a xlink:title=" ">
<path fill="none" stroke="#63b8ff" d="M688.67,-198.92C696.09,-196.44 703.44,-193.35 710,-189.5 729.78,-177.88 725.17,-162.11 746,-152.5 811.95,-122.08 895.41,-119.82 955.93,-123.7"/>
<polygon fill="#63b8ff" stroke="#63b8ff" points="960.97,-124.04 955.83,-125.95 958.48,-123.87 955.99,-123.7 955.99,-123.7 955.99,-123.7 958.48,-123.87 956.14,-121.46 960.97,-124.04 960.97,-124.04"/>
</a>
</g>
</g>
<!-- Node17 -->
<g id="Node000017" class="node">
<title>Node17</title>
<g id="a_Node000017"><a xlink:href="../../dd/d81/classTabSupervisor.html#a6aa989a56de603ef70328bd974efb3fe" target="_top" xlink:title=" ">
<polygon fill="white" stroke="#666666" points="1125,-200 950,-200 950,-181 1125,-181 1125,-200"/>
<text text-anchor="middle" x="1037.5" y="-188" font-family="Helvetica,sans-Serif" font-size="10.00">TabSupervisor::sanitizeTabName</text>
</a>
</g>
</g>
<!-- Node11&#45;&gt;Node17 -->
<g id="edge18_Node000011_Node000017" class="edge">
<title>Node11&#45;&gt;Node17</title>
<g id="a_edge18_Node000011_Node000017"><a xlink:title=" ">
<path fill="none" stroke="#63b8ff" d="M709.56,-205.32C774.99,-202.36 873.06,-197.91 944.71,-194.66"/>
<polygon fill="#63b8ff" stroke="#63b8ff" points="949.83,-194.43 944.93,-196.9 947.33,-194.54 944.83,-194.66 944.83,-194.66 944.83,-194.66 947.33,-194.54 944.73,-192.41 949.83,-194.43 949.83,-194.43"/>
</a>
</g>
</g>
<!-- Node18 -->
<g id="Node000018" class="node">
<title>Node18</title>
<g id="a_Node000018"><a xlink:href="../../de/d9c/classTab.html#a409c727ef0d8c34fd96c01cc0bdf786f" target="_top" xlink:title=" ">
<polygon fill="white" stroke="#666666" points="889,-294 771,-294 771,-275 889,-275 889,-294"/>
<text text-anchor="middle" x="830" y="-282" font-family="Helvetica,sans-Serif" font-size="10.00">Tab::tabTextChanged</text>
</a>
</g>
</g>
<!-- Node11&#45;&gt;Node18 -->
<g id="edge19_Node000011_Node000018" class="edge">
<title>Node11&#45;&gt;Node18</title>
<g id="a_edge19_Node000011_Node000018"><a xlink:title=" ">
<path fill="none" stroke="#63b8ff" d="M688.71,-218.01C696.13,-220.49 703.47,-223.6 710,-227.5 729.98,-239.42 725.8,-253.97 746,-265.5 752.15,-269.01 758.91,-271.88 765.84,-274.21"/>
<polygon fill="#63b8ff" stroke="#63b8ff" points="770.65,-275.74 765.2,-276.37 768.27,-274.99 765.89,-274.23 765.89,-274.23 765.89,-274.23 768.27,-274.99 766.57,-272.08 770.65,-275.74 770.65,-275.74"/>
</a>
</g>
</g>
<!-- Node19 -->
<g id="Node000019" class="node">
<title>Node19</title>
<g id="a_Node000019"><a xlink:href="../../dd/d81/classTabSupervisor.html#a44735c3d50fcb9cfdc12d15547ec9e3c" target="_top" xlink:title=" ">
<polygon fill="white" stroke="#666666" points="908.5,-257 751.5,-257 751.5,-238 908.5,-238 908.5,-257"/>
<text text-anchor="middle" x="830" y="-245" font-family="Helvetica,sans-Serif" font-size="10.00">TabSupervisor::tabUserEvent</text>
</a>
</g>
</g>
<!-- Node11&#45;&gt;Node19 -->
<g id="edge20_Node000011_Node000019" class="edge">
<title>Node11&#45;&gt;Node19</title>
<g id="a_edge20_Node000011_Node000019"><a xlink:title=" ">
<path fill="none" stroke="#63b8ff" d="M685.86,-218.04C713.72,-223.77 749.22,-231.08 777.89,-236.98"/>
<polygon fill="#63b8ff" stroke="#63b8ff" points="782.79,-237.99 777.44,-239.19 780.34,-237.49 777.9,-236.98 777.9,-236.98 777.9,-236.98 780.34,-237.49 778.35,-234.78 782.79,-237.99 782.79,-237.99"/>
</a>
</g>
</g>
<!-- Node22 -->
<g id="Node000022" class="node">
<title>Node22</title>
<g id="a_Node000022"><a xlink:href="../../dd/d81/classTabSupervisor.html#ae3266e6beb4dedf665f1f8e407398b77" target="_top" xlink:title=" ">
<polygon fill="white" stroke="#666666" points="910.5,-181 749.5,-181 749.5,-162 910.5,-162 910.5,-181"/>
<text text-anchor="middle" x="830" y="-169" font-family="Helvetica,sans-Serif" font-size="10.00">TabSupervisor::updateTabText</text>
</a>
</g>
</g>
<!-- Node11&#45;&gt;Node22 -->
<g id="edge23_Node000011_Node000022" class="edge">
<title>Node11&#45;&gt;Node22</title>
<g id="a_edge23_Node000011_Node000022"><a xlink:title=" ">
<path fill="none" stroke="#63b8ff" d="M688.3,-198.97C714.83,-193.79 747.71,-187.37 775.01,-182.04"/>
<polygon fill="#63b8ff" stroke="#63b8ff" points="780.04,-181.06 775.56,-184.23 777.58,-181.54 775.13,-182.02 775.13,-182.02 775.13,-182.02 777.58,-181.54 774.7,-179.81 780.04,-181.06 780.04,-181.06"/>
</a>
</g>
</g>
<!-- Node23 -->
<g id="Node000023" class="node">
<title>Node23</title>
<g id="a_Node000023"><a xlink:href="../../de/d9c/classTab.html#a8a1ac5765536074a49f2c556378b9f84" target="_top" xlink:title=" ">
<polygon fill="white" stroke="#666666" points="874,-105 786,-105 786,-86 874,-86 874,-105"/>
<text text-anchor="middle" x="830" y="-93" font-family="Helvetica,sans-Serif" font-size="10.00">Tab::userEvent</text>
</a>
</g>
</g>
<!-- Node11&#45;&gt;Node23 -->
<g id="edge26_Node000011_Node000023" class="edge">
<title>Node11&#45;&gt;Node23</title>
<g id="a_edge26_Node000011_Node000023"><a xlink:title=" ">
<path fill="none" stroke="#63b8ff" d="M693.76,-198.98C699.6,-196.51 705.17,-193.4 710,-189.5 737.21,-167.52 718.99,-141.73 746,-119.5 755.92,-111.34 768.49,-105.95 780.83,-102.39"/>
<polygon fill="#63b8ff" stroke="#63b8ff" points="785.72,-101.07 781.48,-104.55 783.31,-101.73 780.89,-102.38 780.89,-102.38 780.89,-102.38 783.31,-101.73 780.31,-100.2 785.72,-101.07 785.72,-101.07"/>
</a>
</g>
</g>
<!-- Node13 -->
<g id="Node000013" class="node">
<title>Node13</title>
<g id="a_Node000013"><a xlink:href="../../da/d4e/tab__supervisor_8cpp.html#a71cfc59d24a90adc9253595a7dcdf9e2" target="_top" xlink:title=" ">
<polygon fill="white" stroke="#666666" points="1086,-44 989,-44 989,-25 1086,-25 1086,-44"/>
<text text-anchor="middle" x="1037.5" y="-32" font-family="Helvetica,sans-Serif" font-size="10.00">checkAndTrigger</text>
</a>
</g>
</g>
<!-- Node12&#45;&gt;Node13 -->
<g id="edge14_Node000012_Node000013" class="edge">
<title>Node12&#45;&gt;Node13</title>
<g id="a_edge14_Node000012_Node000013"><a xlink:title=" ">
<path fill="none" stroke="#63b8ff" d="M914.29,-45.2C937.77,-43.15 962.66,-40.97 983.81,-39.11"/>
<polygon fill="#63b8ff" stroke="#63b8ff" points="988.82,-38.68 984.04,-41.35 986.33,-38.89 983.84,-39.11 983.84,-39.11 983.84,-39.11 986.33,-38.89 983.65,-36.87 988.82,-38.68 988.82,-38.68"/>
</a>
</g>
</g>
<!-- Node14 -->
<g id="Node000014" class="node">
<title>Node14</title>
<g id="a_Node000014"><a xlink:href="../../de/d9c/classTab.html#abc34e642c5afb7cca0c9e6f84d951976" target="_top" xlink:title=" ">
<polygon fill="white" stroke="#666666" points="1089.5,-81 985.5,-81 985.5,-62 1089.5,-62 1089.5,-81"/>
<text text-anchor="middle" x="1037.5" y="-69" font-family="Helvetica,sans-Serif" font-size="10.00">Tab::closeRequest</text>
</a>
</g>
</g>
<!-- Node12&#45;&gt;Node14 -->
<g id="edge15_Node000012_Node000014" class="edge">
<title>Node12&#45;&gt;Node14</title>
<g id="a_edge15_Node000012_Node000014"><a xlink:title=" ">
<path fill="none" stroke="#63b8ff" d="M914.29,-60.2C936.44,-62.25 959.85,-64.41 980.18,-66.29"/>
<polygon fill="#63b8ff" stroke="#63b8ff" points="985.29,-66.76 980.1,-68.54 982.8,-66.53 980.31,-66.3 980.31,-66.3 980.31,-66.3 982.8,-66.53 980.51,-64.06 985.29,-66.76 985.29,-66.76"/>
</a>
</g>
</g>
<!-- Node19&#45;&gt;Node20 -->
<g id="edge21_Node000019_Node000020" class="edge">
<title>Node19&#45;&gt;Node20</title>
<g id="a_edge21_Node000019_Node000020"><a xlink:title=" ">
<path fill="none" stroke="#63b8ff" d="M883.27,-257.04C893.56,-259.42 904.21,-262.24 914,-265.5 950.2,-277.54 990,-296.98 1014.12,-309.49"/>
<polygon fill="#63b8ff" stroke="#63b8ff" points="1018.73,-311.9 1013.26,-311.58 1016.51,-310.74 1014.3,-309.58 1014.3,-309.58 1014.3,-309.58 1016.51,-310.74 1015.34,-307.59 1018.73,-311.9 1018.73,-311.9"/>
</a>
</g>
</g>
<!-- Node21 -->
<g id="Node000021" class="node">
<title>Node21</title>
<g id="a_Node000021"><a xlink:href="../../de/d9c/classTab.html#a9b55037f53b045dec786490c4b9b57f2" target="_top" xlink:title=" ">
<polygon fill="white" stroke="#666666" points="1107.5,-257 967.5,-257 967.5,-238 1107.5,-238 1107.5,-257"/>
<text text-anchor="middle" x="1037.5" y="-245" font-family="Helvetica,sans-Serif" font-size="10.00">Tab::setContentsChanged</text>
</a>
</g>
</g>
<!-- Node19&#45;&gt;Node21 -->
<g id="edge22_Node000019_Node000021" class="edge">
<title>Node19&#45;&gt;Node21</title>
<g id="a_edge22_Node000019_Node000021"><a xlink:title=" ">
<path fill="none" stroke="#63b8ff" d="M908.69,-247.5C926.2,-247.5 944.75,-247.5 962.12,-247.5"/>
<polygon fill="#63b8ff" stroke="#63b8ff" points="967.47,-247.5 962.47,-249.75 964.97,-247.5 962.47,-247.5 962.47,-247.5 962.47,-247.5 964.97,-247.5 962.47,-245.25 967.47,-247.5 967.47,-247.5"/>
</a>
</g>
</g>
<!-- Node22&#45;&gt;Node16 -->
<g id="edge24_Node000022_Node000016" class="edge">
<title>Node22&#45;&gt;Node16</title>
<g id="a_edge24_Node000022_Node000016"><a xlink:title=" ">
<path fill="none" stroke="#63b8ff" d="M882.59,-161.96C912.15,-156.49 949.29,-149.63 979.68,-144.01"/>
<polygon fill="#63b8ff" stroke="#63b8ff" points="984.89,-143.04 980.38,-146.17 982.43,-143.5 979.97,-143.95 979.97,-143.95 979.97,-143.95 982.43,-143.5 979.56,-141.74 984.89,-143.04 984.89,-143.04"/>
</a>
</g>
</g>
<!-- Node22&#45;&gt;Node17 -->
<g id="edge25_Node000022_Node000017" class="edge">
<title>Node22&#45;&gt;Node17</title>
<g id="a_edge25_Node000022_Node000017"><a xlink:title=" ">
<path fill="none" stroke="#63b8ff" d="M910.75,-178.87C921.9,-179.9 933.43,-180.97 944.79,-182.02"/>
<polygon fill="#63b8ff" stroke="#63b8ff" points="949.99,-182.5 944.8,-184.28 947.5,-182.27 945.01,-182.04 945.01,-182.04 945.01,-182.04 947.5,-182.27 945.22,-179.8 949.99,-182.5 949.99,-182.5"/>
</a>
</g>
</g>
<!-- Node25&#45;&gt;Node8 -->
<g id="edge30_Node000025_Node000008" class="edge">
<title>Node25&#45;&gt;Node8</title>
<g id="a_edge30_Node000025_Node000008"><a xlink:title=" ">
<path fill="none" stroke="#63b8ff" d="M503.66,-150.44C525.26,-145.13 549.64,-139.13 571.61,-133.72"/>
<polygon fill="#63b8ff" stroke="#63b8ff" points="576.55,-132.5 572.24,-135.88 574.13,-133.1 571.7,-133.7 571.7,-133.7 571.7,-133.7 574.13,-133.1 571.16,-131.51 576.55,-132.5 576.55,-132.5"/>
</a>
</g>
</g>
<!-- Node25&#45;&gt;Node10 -->
<g id="edge31_Node000025_Node000010" class="edge">
<title>Node25&#45;&gt;Node10</title>
<g id="a_edge31_Node000025_Node000010"><a xlink:title=" ">
<path fill="none" stroke="#63b8ff" d="M475.03,-180.53C491.82,-188.4 512.6,-198.28 531,-207.5 547.18,-215.6 550.43,-219.24 567,-226.5 573.47,-229.34 580.38,-232.1 587.25,-234.69"/>
<polygon fill="#63b8ff" stroke="#63b8ff" points="591.99,-236.45 586.52,-236.82 589.65,-235.58 587.3,-234.71 587.3,-234.71 587.3,-234.71 589.65,-235.58 588.09,-232.6 591.99,-236.45 591.99,-236.45"/>
</a>
</g>
</g>
<!-- Node25&#45;&gt;Node11 -->
<g id="edge32_Node000025_Node000011" class="edge">
<title>Node25&#45;&gt;Node11</title>
<g id="a_edge32_Node000025_Node000011"><a xlink:title=" ">
<path fill="none" stroke="#63b8ff" d="M510.7,-180.54C536.64,-186.26 565.64,-192.65 589.34,-197.88"/>
<polygon fill="#63b8ff" stroke="#63b8ff" points="594.32,-198.98 588.95,-200.1 591.88,-198.44 589.44,-197.9 589.44,-197.9 589.44,-197.9 591.88,-198.44 589.92,-195.7 594.32,-198.98 594.32,-198.98"/>
</a>
</g>
</g>
<!-- Node25&#45;&gt;Node24 -->
<g id="edge33_Node000025_Node000024" class="edge">
<title>Node25&#45;&gt;Node24</title>
<g id="a_edge33_Node000025_Node000024"><a xlink:title=" ">
<path fill="none" stroke="#63b8ff" d="M511.25,-165.5C530.19,-165.5 550.73,-165.5 569.62,-165.5"/>
<polygon fill="#63b8ff" stroke="#63b8ff" points="574.9,-165.5 569.9,-167.75 572.4,-165.5 569.9,-165.5 569.9,-165.5 569.9,-165.5 572.4,-165.5 569.9,-163.25 574.9,-165.5 574.9,-165.5"/>
</a>
</g>
</g>
<!-- Node25&#45;&gt;Node25 -->
<g id="edge29_Node000025_Node000025" class="edge">
<title>Node25&#45;&gt;Node25</title>
<g id="a_edge29_Node000025_Node000025"><a xlink:title=" ">
<path fill="none" stroke="#63b8ff" d="M407.05,-180.78C399.39,-189.91 410.88,-198.5 441.5,-198.5 466.86,-198.5 479.1,-192.61 478.2,-185.39"/>
<polygon fill="#63b8ff" stroke="#63b8ff" points="475.95,-180.78 480.17,-184.28 477.05,-183.02 478.14,-185.27 478.14,-185.27 478.14,-185.27 477.05,-183.02 476.12,-186.26 475.95,-180.78 475.95,-180.78"/>
</a>
</g>
</g>
</g>
</svg>

<g id="navigator" transform="translate(0 0)" fill="#404254">
  <rect fill="#f2f5e9" fill-opacity="0.5" stroke="#606060" stroke-width=".5" x="0" y="0" width="60" height="60"/>
  <use id="zoomplus" xlink:href="#zoomPlus" x="17" y="9" onmousedown="handleZoom(evt,'in')"/>
  <use id="zoomminus" xlink:href="#zoomMin" x="42" y="9" onmousedown="handleZoom(evt,'out')"/>
  <use id="reset" xlink:href="#resetDef" x="30" y="36" onmousedown="handleReset()"/>
   <use id="arrowup" xlink:href="#arrowUp" x="0" y="0" onmousedown="handlePan(0,-1)"/>
  <use id="arrowright" xlink:href="#arrowRight" x="0" y="0" onmousedown="handlePan(1,0)"/>
  <use id="arrowdown" xlink:href="#arrowDown" x="0" y="0" onmousedown="handlePan(0,1)"/>
  <use id="arrowleft" xlink:href="#arrowLeft" x="0" y="0" onmousedown="handlePan(-1,0)"/>
</g>
<svg viewBox="0 0 15 15" width="100%" height="30px" preserveAspectRatio="xMaxYMin meet">
 <g id="arrow_out" transform="scale(0.3 0.3)">
  <a xlink:href="classTabDeckStorageVisual_ab8a20e7336b2c096dab008b004f8ce79_cgraph_org.svg" target="_base">
   <rect id="button" ry="5" rx="5" y="6" x="6" height="38" width="38"
        fill="#f2f5e9" fill-opacity="0.5" stroke="#606060" stroke-width="1.0"/>
   <path id="arrow"
     d="M 11.500037,31.436501 C 11.940474,20.09759 22.043105,11.32322 32.158766,21.979434 L 37.068811,17.246167 C 37.068811,17.246167 37.088388,32 37.088388,32 L 22.160133,31.978069 C 22.160133,31.978069 26.997745,27.140456 26.997745,27.140456 C 18.528582,18.264221 13.291696,25.230495 11.500037,31.436501 z"
     style="fill:#404040;"/>
  </a>
 </g>
</svg>

<style type='text/css'>
<![CDATA[
[data-mouse-over-selected='false'] { opacity: 0.7; }
[data-mouse-over-selected='true']  { opacity: 1.0; }
]]>
</style>
<script type="application/ecmascript"><![CDATA[
document.addEventListener('DOMContentLoaded', (event) => {
  highlightEdges();
  highlightAdjacentNodes();
});
]]></script>
</svg>
