<?xml version="1.0" encoding="UTF-8" standalone="no"?>
<!DOCTYPE svg PUBLIC "-//W3C//DTD SVG 1.1//EN"
 "http://www.w3.org/Graphics/SVG/1.1/DTD/svg11.dtd">
<!-- Generated by graphviz version 2.43.0 (0)
 -->
<!-- Title: TabDeckStorageVisual::actOpenLocalDeck Pages: 1 -->
<svg width="1112pt" height="292pt"
 viewBox="0.00 0.00 1112.00 291.50" xmlns="http://www.w3.org/2000/svg" xmlns:xlink="http://www.w3.org/1999/xlink">
<g id="graph0" class="graph" transform="scale(1 1) rotate(0) translate(4 287.5)">
<title>TabDeckStorageVisual::actOpenLocalDeck</title>
<!-- Node1 -->
<g id="Node000001" class="node">
<title>Node1</title>
<g id="a_Node000001"><a xlink:title=" ">
<polygon fill="#999999" stroke="#666666" points="125,-167 0,-167 0,-137 125,-137 125,-167"/>
<text text-anchor="start" x="8" y="-155" font-family="Helvetica,sans-Serif" font-size="10.00">TabDeckStorageVisual</text>
<text text-anchor="middle" x="62.5" y="-144" font-family="Helvetica,sans-Serif" font-size="10.00">::actOpenLocalDeck</text>
</a>
</g>
</g>
<!-- Node2 -->
<g id="Node000002" class="node">
<title>Node2</title>
<g id="a_Node000002"><a xlink:href="../../d4/d60/namespaceDeckFileFormat.html#ad092cd2a982b367813bfc16031e8aa12" target="_top" xlink:title=" ">
<polygon fill="white" stroke="#666666" points="310,-210 161,-210 161,-180 310,-180 310,-210"/>
<text text-anchor="start" x="169" y="-198" font-family="Helvetica,sans-Serif" font-size="10.00">DeckFileFormat::getFormat</text>
<text text-anchor="middle" x="235.5" y="-187" font-family="Helvetica,sans-Serif" font-size="10.00">FromName</text>
</a>
</g>
</g>
<!-- Node1&#45;&gt;Node2 -->
<g id="edge1_Node000001_Node000002" class="edge">
<title>Node1&#45;&gt;Node2</title>
<g id="a_edge1_Node000001_Node000002"><a xlink:title=" ">
<path fill="none" stroke="#63b8ff" d="M123.31,-167.04C138.28,-170.8 154.41,-174.86 169.61,-178.68"/>
<polygon fill="#63b8ff" stroke="#63b8ff" points="174.73,-179.97 169.33,-180.93 172.3,-179.36 169.88,-178.75 169.88,-178.75 169.88,-178.75 172.3,-179.36 170.43,-176.57 174.73,-179.97 174.73,-179.97"/>
</a>
</g>
</g>
<!-- Node3 -->
<g id="Node000003" class="node">
<title>Node3</title>
<g id="a_Node000003"><a xlink:href="../../de/de9/classDeckLoader.html#a1f9a7cb6f8a175c62d02d1bac2591f1d" target="_top" xlink:title="Loads a deck from a local file.">
<polygon fill="white" stroke="#666666" points="307,-161.5 164,-161.5 164,-142.5 307,-142.5 307,-161.5"/>
<text text-anchor="middle" x="235.5" y="-149.5" font-family="Helvetica,sans-Serif" font-size="10.00">DeckLoader::loadFromFile</text>
</a>
</g>
</g>
<!-- Node1&#45;&gt;Node3 -->
<g id="edge2_Node000001_Node000003" class="edge">
<title>Node1&#45;&gt;Node3</title>
<g id="a_edge2_Node000001_Node000003"><a xlink:title=" ">
<path fill="none" stroke="#63b8ff" d="M125.23,-152C136.1,-152 147.53,-152 158.73,-152"/>
<polygon fill="#63b8ff" stroke="#63b8ff" points="163.85,-152 158.85,-154.25 161.35,-152 158.85,-152 158.85,-152 158.85,-152 161.35,-152 158.85,-149.75 163.85,-152 163.85,-152"/>
</a>
</g>
</g>
<!-- Node21 -->
<g id="Node000021" class="node">
<title>Node21</title>
<g id="a_Node000021"><a xlink:href="../../d9/dba/classTabDeckStorageVisual.html#af1928ff54afe9b84ceb4e46e46052c6a" target="_top" xlink:title=" ">
<polygon fill="white" stroke="#666666" points="298,-124 173,-124 173,-94 298,-94 298,-124"/>
<text text-anchor="start" x="181" y="-112" font-family="Helvetica,sans-Serif" font-size="10.00">TabDeckStorageVisual</text>
<text text-anchor="middle" x="235.5" y="-101" font-family="Helvetica,sans-Serif" font-size="10.00">::openDeckEditor</text>
</a>
</g>
</g>
<!-- Node1&#45;&gt;Node21 -->
<g id="edge23_Node000001_Node000021" class="edge">
<title>Node1&#45;&gt;Node21</title>
<g id="a_edge23_Node000001_Node000021"><a xlink:title=" ">
<path fill="none" stroke="#63b8ff" d="M123.31,-136.96C138.28,-133.2 154.41,-129.14 169.61,-125.32"/>
<polygon fill="#63b8ff" stroke="#63b8ff" points="174.73,-124.03 170.43,-127.43 172.3,-124.64 169.88,-125.25 169.88,-125.25 169.88,-125.25 172.3,-124.64 169.33,-123.07 174.73,-124.03 174.73,-124.03"/>
</a>
</g>
</g>
<!-- Node4 -->
<g id="Node000004" class="node">
<title>Node4</title>
<g id="a_Node000004"><a xlink:href="../../da/d68/classDeckList.html#a8df3b058ff21ffcb90d6bf524cebd2c1" target="_top" xlink:title=" ">
<polygon fill="white" stroke="#666666" points="495,-221 367,-221 367,-191 495,-191 495,-221"/>
<text text-anchor="start" x="375" y="-209" font-family="Helvetica,sans-Serif" font-size="10.00">DeckList::loadFromFile</text>
<text text-anchor="middle" x="431" y="-198" font-family="Helvetica,sans-Serif" font-size="10.00">_Native</text>
</a>
</g>
</g>
<!-- Node3&#45;&gt;Node4 -->
<g id="edge3_Node000003_Node000004" class="edge">
<title>Node3&#45;&gt;Node4</title>
<g id="a_edge3_Node000003_Node000004"><a xlink:title=" ">
<path fill="none" stroke="#63b8ff" d="M274.33,-161.54C285.81,-164.5 298.44,-167.82 310,-171 331.21,-176.83 354.44,-183.54 374.76,-189.5"/>
<polygon fill="#63b8ff" stroke="#63b8ff" points="379.59,-190.92 374.16,-191.67 377.19,-190.22 374.8,-189.51 374.8,-189.51 374.8,-189.51 377.19,-190.22 375.43,-187.35 379.59,-190.92 379.59,-190.92"/>
</a>
</g>
</g>
<!-- Node11 -->
<g id="Node000011" class="node">
<title>Node11</title>
<g id="a_Node000011"><a xlink:href="../../da/d68/classDeckList.html#aa79686a554e5c503baa2310e8617088e" target="_top" xlink:title=" ">
<polygon fill="white" stroke="#666666" points="495,-167 367,-167 367,-137 495,-137 495,-167"/>
<text text-anchor="start" x="375" y="-155" font-family="Helvetica,sans-Serif" font-size="10.00">DeckList::loadFromFile</text>
<text text-anchor="middle" x="431" y="-144" font-family="Helvetica,sans-Serif" font-size="10.00">_Plain</text>
</a>
</g>
</g>
<!-- Node3&#45;&gt;Node11 -->
<g id="edge11_Node000003_Node000011" class="edge">
<title>Node3&#45;&gt;Node11</title>
<g id="a_edge11_Node000003_Node000011"><a xlink:title=" ">
<path fill="none" stroke="#63b8ff" d="M307.18,-152C324.89,-152 343.86,-152 361.46,-152"/>
<polygon fill="#63b8ff" stroke="#63b8ff" points="366.88,-152 361.88,-154.25 364.38,-152 361.88,-152 361.88,-152 361.88,-152 364.38,-152 361.88,-149.75 366.88,-152 366.88,-152"/>
</a>
</g>
</g>
<!-- Node13 -->
<g id="Node000013" class="node">
<title>Node13</title>
<g id="a_Node000013"><a xlink:href="../../de/de9/classDeckLoader.html#aa19219934f8a1ed72682a41ec7208de8" target="_top" xlink:title="Updates the lastLoadedTimestamp field in the file corresponding to the deck, without changing the Fil...">
<polygon fill="white" stroke="#666666" points="516,-95 346,-95 346,-65 516,-65 516,-95"/>
<text text-anchor="start" x="354" y="-83" font-family="Helvetica,sans-Serif" font-size="10.00">DeckLoader::updateLastLoaded</text>
<text text-anchor="middle" x="431" y="-72" font-family="Helvetica,sans-Serif" font-size="10.00">Timestamp</text>
</a>
</g>
</g>
<!-- Node3&#45;&gt;Node13 -->
<g id="edge15_Node000003_Node000013" class="edge">
<title>Node3&#45;&gt;Node13</title>
<g id="a_edge15_Node000003_Node000013"><a xlink:title=" ">
<path fill="none" stroke="#63b8ff" d="M278.44,-142.42C288.85,-139.69 299.92,-136.5 310,-133 339.24,-122.84 371.27,-108.52 394.87,-97.33"/>
<polygon fill="#63b8ff" stroke="#63b8ff" points="399.48,-95.14 395.93,-99.32 397.22,-96.21 394.96,-97.29 394.96,-97.29 394.96,-97.29 397.22,-96.21 393.99,-95.26 399.48,-95.14 399.48,-95.14"/>
</a>
</g>
</g>
<!-- Node5 -->
<g id="Node000005" class="node">
<title>Node5</title>
<g id="a_Node000005"><a xlink:href="../../da/d68/classDeckList.html#a79ee05fb6b1be4dcf5d07cab77c39437" target="_top" xlink:title=" ">
<polygon fill="white" stroke="#666666" points="712.5,-226.5 582.5,-226.5 582.5,-207.5 712.5,-207.5 712.5,-226.5"/>
<text text-anchor="middle" x="647.5" y="-214.5" font-family="Helvetica,sans-Serif" font-size="10.00">DeckList::loadFromXml</text>
</a>
</g>
</g>
<!-- Node4&#45;&gt;Node5 -->
<g id="edge4_Node000004_Node000005" class="edge">
<title>Node4&#45;&gt;Node5</title>
<g id="a_edge4_Node000004_Node000005"><a xlink:title=" ">
<path fill="none" stroke="#63b8ff" d="M495.2,-209.24C520.92,-210.56 550.73,-212.09 577.05,-213.44"/>
<polygon fill="#63b8ff" stroke="#63b8ff" points="582.27,-213.71 577.16,-215.7 579.77,-213.58 577.28,-213.45 577.28,-213.45 577.28,-213.45 579.77,-213.58 577.39,-211.2 582.27,-213.71 582.27,-213.71"/>
</a>
</g>
</g>
<!-- Node6 -->
<g id="Node000006" class="node">
<title>Node6</title>
<g id="a_Node000006"><a xlink:href="../../da/d68/classDeckList.html#a773dea93b32b04d5251565251b4800ea" target="_top" xlink:title=" ">
<polygon fill="white" stroke="#666666" points="900,-189.5 792,-189.5 792,-170.5 900,-170.5 900,-189.5"/>
<text text-anchor="middle" x="846" y="-177.5" font-family="Helvetica,sans-Serif" font-size="10.00">DeckList::cleanList</text>
</a>
</g>
</g>
<!-- Node5&#45;&gt;Node6 -->
<g id="edge5_Node000005_Node000006" class="edge">
<title>Node5&#45;&gt;Node6</title>
<g id="a_edge5_Node000005_Node000006"><a xlink:title=" ">
<path fill="none" stroke="#63b8ff" d="M699.1,-207.47C726.62,-202.29 760.7,-195.87 789.01,-190.54"/>
<polygon fill="#63b8ff" stroke="#63b8ff" points="794.23,-189.56 789.73,-192.7 791.77,-190.02 789.31,-190.49 789.31,-190.49 789.31,-190.49 791.77,-190.02 788.9,-188.27 794.23,-189.56 794.23,-189.56"/>
</a>
</g>
</g>
<!-- Node7 -->
<g id="Node000007" class="node">
<title>Node7</title>
<g id="a_Node000007"><a xlink:href="../../da/d68/classDeckList.html#a4854d1f1622e53e8d0261b0536f7c546" target="_top" xlink:title=" ">
<polygon fill="white" stroke="#666666" points="1101,-189.5 952,-189.5 952,-170.5 1101,-170.5 1101,-189.5"/>
<text text-anchor="middle" x="1026.5" y="-177.5" font-family="Helvetica,sans-Serif" font-size="10.00">DeckList::refreshDeckHash</text>
</a>
</g>
</g>
<!-- Node5&#45;&gt;Node7 -->
<g id="edge10_Node000005_Node000007" class="edge">
<title>Node5&#45;&gt;Node7</title>
<g id="a_edge10_Node000005_Node000007"><a xlink:title=" ">
<path fill="none" stroke="#63b8ff" d="M712.53,-214.43C766.2,-211.84 844.78,-207.06 913,-199 931.79,-196.78 952.22,-193.57 970.45,-190.42"/>
<polygon fill="#63b8ff" stroke="#63b8ff" points="975.53,-189.53 970.99,-192.61 973.07,-189.96 970.61,-190.39 970.61,-190.39 970.61,-190.39 973.07,-189.96 970.22,-188.18 975.53,-189.53 975.53,-189.53"/>
</a>
</g>
</g>
<!-- Node8 -->
<g id="Node000008" class="node">
<title>Node8</title>
<g id="a_Node000008"><a xlink:href="../../da/d68/classDeckList.html#a011d41232bbf43b948d82271a49fa4d8" target="_top" xlink:title=" ">
<polygon fill="white" stroke="#666666" points="909.5,-265.5 782.5,-265.5 782.5,-246.5 909.5,-246.5 909.5,-265.5"/>
<text text-anchor="middle" x="846" y="-253.5" font-family="Helvetica,sans-Serif" font-size="10.00">DeckList::readElement</text>
</a>
</g>
</g>
<!-- Node5&#45;&gt;Node8 -->
<g id="edge7_Node000005_Node000008" class="edge">
<title>Node5&#45;&gt;Node8</title>
<g id="a_edge7_Node000005_Node000008"><a xlink:title=" ">
<path fill="none" stroke="#63b8ff" d="M696.57,-226.54C725.46,-232.27 762.27,-239.58 792,-245.48"/>
<polygon fill="#63b8ff" stroke="#63b8ff" points="797.09,-246.49 791.74,-247.72 794.63,-246 792.18,-245.52 792.18,-245.52 792.18,-245.52 794.63,-246 792.62,-243.31 797.09,-246.49 797.09,-246.49"/>
</a>
</g>
</g>
<!-- Node6&#45;&gt;Node7 -->
<g id="edge6_Node000006_Node000007" class="edge">
<title>Node6&#45;&gt;Node7</title>
<g id="a_edge6_Node000006_Node000007"><a xlink:title=" ">
<path fill="none" stroke="#63b8ff" d="M900.07,-180C914.66,-180 930.8,-180 946.51,-180"/>
<polygon fill="#63b8ff" stroke="#63b8ff" points="951.82,-180 946.82,-182.25 949.32,-180 946.82,-180 946.82,-180 946.82,-180 949.32,-180 946.82,-177.75 951.82,-180 951.82,-180"/>
</a>
</g>
</g>
<!-- Node9 -->
<g id="Node000009" class="node">
<title>Node9</title>
<g id="a_Node000009"><a xlink:href="../../dc/d8b/classSideboardPlan.html#a9becc8f13ae1fcb944970547c4eeaf34" target="_top" xlink:title=" ">
<polygon fill="white" stroke="#666666" points="1095,-246.5 958,-246.5 958,-227.5 1095,-227.5 1095,-246.5"/>
<text text-anchor="middle" x="1026.5" y="-234.5" font-family="Helvetica,sans-Serif" font-size="10.00">SideboardPlan::getName</text>
</a>
</g>
</g>
<!-- Node8&#45;&gt;Node9 -->
<g id="edge8_Node000008_Node000009" class="edge">
<title>Node8&#45;&gt;Node9</title>
<g id="a_edge8_Node000008_Node000009"><a xlink:title=" ">
<path fill="none" stroke="#63b8ff" d="M909.68,-249.33C923.55,-247.85 938.36,-246.28 952.59,-244.76"/>
<polygon fill="#63b8ff" stroke="#63b8ff" points="957.81,-244.21 953.07,-246.97 955.32,-244.47 952.84,-244.73 952.84,-244.73 952.84,-244.73 955.32,-244.47 952.6,-242.5 957.81,-244.21 957.81,-244.21"/>
</a>
</g>
</g>
<!-- Node10 -->
<g id="Node000010" class="node">
<title>Node10</title>
<g id="a_Node000010"><a xlink:href="../../dc/d8b/classSideboardPlan.html#a968cef119c90e00140629c0ea98be828" target="_top" xlink:title="Read a SideboardPlan from an XML stream.">
<polygon fill="white" stroke="#666666" points="1104,-283.5 949,-283.5 949,-264.5 1104,-264.5 1104,-283.5"/>
<text text-anchor="middle" x="1026.5" y="-271.5" font-family="Helvetica,sans-Serif" font-size="10.00">SideboardPlan::readElement</text>
</a>
</g>
</g>
<!-- Node8&#45;&gt;Node10 -->
<g id="edge9_Node000008_Node000010" class="edge">
<title>Node8&#45;&gt;Node10</title>
<g id="a_edge9_Node000008_Node000010"><a xlink:title=" ">
<path fill="none" stroke="#63b8ff" d="M909.68,-262.32C920.66,-263.43 932.22,-264.59 943.63,-265.74"/>
<polygon fill="#63b8ff" stroke="#63b8ff" points="948.85,-266.27 943.65,-268.01 946.37,-266.02 943.88,-265.77 943.88,-265.77 943.88,-265.77 946.37,-266.02 944.11,-263.53 948.85,-266.27 948.85,-266.27"/>
</a>
</g>
</g>
<!-- Node12 -->
<g id="Node000012" class="node">
<title>Node12</title>
<g id="a_Node000012"><a xlink:href="../../da/d68/classDeckList.html#ad0a59ff0fd21322f9557c0ac1871a733" target="_top" xlink:title=" ">
<polygon fill="white" stroke="#666666" points="720.5,-167 574.5,-167 574.5,-137 720.5,-137 720.5,-167"/>
<text text-anchor="start" x="582.5" y="-155" font-family="Helvetica,sans-Serif" font-size="10.00">DeckList::loadFromStream</text>
<text text-anchor="middle" x="647.5" y="-144" font-family="Helvetica,sans-Serif" font-size="10.00">_Plain</text>
</a>
</g>
</g>
<!-- Node11&#45;&gt;Node12 -->
<g id="edge12_Node000011_Node000012" class="edge">
<title>Node11&#45;&gt;Node12</title>
<g id="a_edge12_Node000011_Node000012"><a xlink:title=" ">
<path fill="none" stroke="#63b8ff" d="M495.2,-152C518.39,-152 544.9,-152 569.19,-152"/>
<polygon fill="#63b8ff" stroke="#63b8ff" points="574.34,-152 569.34,-154.25 571.84,-152 569.34,-152 569.34,-152 569.34,-152 571.84,-152 569.34,-149.75 574.34,-152 574.34,-152"/>
</a>
</g>
</g>
<!-- Node12&#45;&gt;Node6 -->
<g id="edge13_Node000012_Node000006" class="edge">
<title>Node12&#45;&gt;Node6</title>
<g id="a_edge13_Node000012_Node000006"><a xlink:title=" ">
<path fill="none" stroke="#63b8ff" d="M720.55,-162.27C742.26,-165.36 765.81,-168.72 786.53,-171.67"/>
<polygon fill="#63b8ff" stroke="#63b8ff" points="791.73,-172.41 786.46,-173.93 789.25,-172.06 786.78,-171.7 786.78,-171.7 786.78,-171.7 789.25,-172.06 787.1,-169.48 791.73,-172.41 791.73,-172.41"/>
</a>
</g>
</g>
<!-- Node12&#45;&gt;Node7 -->
<g id="edge14_Node000012_Node000007" class="edge">
<title>Node12&#45;&gt;Node7</title>
<g id="a_edge14_Node000012_Node000007"><a xlink:title=" ">
<path fill="none" stroke="#63b8ff" d="M720.51,-152.38C773.78,-153.22 848.06,-155.6 913,-162 931.44,-163.82 951.45,-166.72 969.42,-169.66"/>
<polygon fill="#63b8ff" stroke="#63b8ff" points="974.43,-170.49 969.12,-171.89 971.96,-170.08 969.49,-169.67 969.49,-169.67 969.49,-169.67 971.96,-170.08 969.86,-167.45 974.43,-170.49 974.43,-170.49"/>
</a>
</g>
</g>
<!-- Node14 -->
<g id="Node000014" class="node">
<title>Node14</title>
<g id="a_Node000014"><a xlink:href="../../da/d68/classDeckList.html#a4db0ab66583b74a417a82c661b958c9b" target="_top" xlink:title=" ">
<polygon fill="white" stroke="#666666" points="705.5,-30 589.5,-30 589.5,0 705.5,0 705.5,-30"/>
<text text-anchor="start" x="597.5" y="-18" font-family="Helvetica,sans-Serif" font-size="10.00">DeckList::saveToFile</text>
<text text-anchor="middle" x="647.5" y="-7" font-family="Helvetica,sans-Serif" font-size="10.00">_Native</text>
</a>
</g>
</g>
<!-- Node13&#45;&gt;Node14 -->
<g id="edge16_Node000013_Node000014" class="edge">
<title>Node13&#45;&gt;Node14</title>
<g id="a_edge16_Node000013_Node000014"><a xlink:title=" ">
<path fill="none" stroke="#63b8ff" d="M473.39,-64.94C496.39,-56.8 525.62,-46.84 552,-39 562.41,-35.9 573.54,-32.85 584.38,-30.02"/>
<polygon fill="#63b8ff" stroke="#63b8ff" points="589.33,-28.73 585.06,-32.17 586.91,-29.36 584.49,-29.99 584.49,-29.99 584.49,-29.99 586.91,-29.36 583.92,-27.81 589.33,-28.73 589.33,-28.73"/>
</a>
</g>
</g>
<!-- Node17 -->
<g id="Node000017" class="node">
<title>Node17</title>
<g id="a_Node000017"><a xlink:href="../../da/d68/classDeckList.html#a17a48cae68974337aa44792677a0e0b9" target="_top" xlink:title=" ">
<polygon fill="white" stroke="#666666" points="705.5,-116 589.5,-116 589.5,-86 705.5,-86 705.5,-116"/>
<text text-anchor="start" x="597.5" y="-104" font-family="Helvetica,sans-Serif" font-size="10.00">DeckList::saveToFile</text>
<text text-anchor="middle" x="647.5" y="-93" font-family="Helvetica,sans-Serif" font-size="10.00">_Plain</text>
</a>
</g>
</g>
<!-- Node13&#45;&gt;Node17 -->
<g id="edge19_Node000013_Node000017" class="edge">
<title>Node13&#45;&gt;Node17</title>
<g id="a_edge19_Node000013_Node000017"><a xlink:title=" ">
<path fill="none" stroke="#63b8ff" d="M516.16,-88.24C538.87,-90.46 563.03,-92.83 584.3,-94.91"/>
<polygon fill="#63b8ff" stroke="#63b8ff" points="589.36,-95.41 584.16,-97.16 586.87,-95.16 584.38,-94.92 584.38,-94.92 584.38,-94.92 586.87,-95.16 584.6,-92.68 589.36,-95.41 589.36,-95.41"/>
</a>
</g>
</g>
<!-- Node20 -->
<g id="Node000020" class="node">
<title>Node20</title>
<g id="a_Node000020"><a xlink:href="../../da/d68/classDeckList.html#a26993d1ecf902c97868eefe08a9ccf0e" target="_top" xlink:title=" ">
<polygon fill="white" stroke="#666666" points="743,-67.5 552,-67.5 552,-48.5 743,-48.5 743,-67.5"/>
<text text-anchor="middle" x="647.5" y="-55.5" font-family="Helvetica,sans-Serif" font-size="10.00">DeckList::setLastLoadedTimestamp</text>
</a>
</g>
</g>
<!-- Node13&#45;&gt;Node20 -->
<g id="edge22_Node000013_Node000020" class="edge">
<title>Node13&#45;&gt;Node20</title>
<g id="a_edge22_Node000013_Node000020"><a xlink:title=" ">
<path fill="none" stroke="#63b8ff" d="M516.16,-71.37C526.85,-70.27 537.86,-69.14 548.73,-68.03"/>
<polygon fill="#63b8ff" stroke="#63b8ff" points="553.72,-67.52 548.98,-70.26 551.23,-67.77 548.75,-68.03 548.75,-68.03 548.75,-68.03 551.23,-67.77 548.52,-65.79 553.72,-67.52 553.72,-67.52"/>
</a>
</g>
</g>
<!-- Node15 -->
<g id="Node000015" class="node">
<title>Node15</title>
<g id="a_Node000015"><a xlink:href="../../da/d68/classDeckList.html#a9bef2e38b0a9b7f7138f0a1010c98ab8" target="_top" xlink:title=" ">
<polygon fill="white" stroke="#666666" points="890.5,-24.5 801.5,-24.5 801.5,-5.5 890.5,-5.5 890.5,-24.5"/>
<text text-anchor="middle" x="846" y="-12.5" font-family="Helvetica,sans-Serif" font-size="10.00">DeckList::write</text>
</a>
</g>
</g>
<!-- Node14&#45;&gt;Node15 -->
<g id="edge17_Node000014_Node000015" class="edge">
<title>Node14&#45;&gt;Node15</title>
<g id="a_edge17_Node000014_Node000015"><a xlink:title=" ">
<path fill="none" stroke="#63b8ff" d="M705.6,-15C734.3,-15 768.71,-15 796.16,-15"/>
<polygon fill="#63b8ff" stroke="#63b8ff" points="801.2,-15 796.2,-17.25 798.7,-15 796.2,-15 796.2,-15 796.2,-15 798.7,-15 796.2,-12.75 801.2,-15 801.2,-15"/>
</a>
</g>
</g>
<!-- Node16 -->
<g id="Node000016" class="node">
<title>Node16</title>
<g id="a_Node000016"><a xlink:href="../../d3/d94/deck__list_8cpp.html#a83e055facb9cec78e1ee9a95eec13ab8" target="_top" xlink:title=" ">
<polygon fill="white" stroke="#666666" points="1070.5,-24.5 982.5,-24.5 982.5,-5.5 1070.5,-5.5 1070.5,-24.5"/>
<text text-anchor="middle" x="1026.5" y="-12.5" font-family="Helvetica,sans-Serif" font-size="10.00">writeMetadata</text>
</a>
</g>
</g>
<!-- Node15&#45;&gt;Node16 -->
<g id="edge18_Node000015_Node000016" class="edge">
<title>Node15&#45;&gt;Node16</title>
<g id="a_edge18_Node000015_Node000016"><a xlink:title=" ">
<path fill="none" stroke="#63b8ff" d="M890.67,-15C916.79,-15 950.04,-15 976.98,-15"/>
<polygon fill="#63b8ff" stroke="#63b8ff" points="982.28,-15 977.28,-17.25 979.78,-15 977.28,-15 977.28,-15 977.28,-15 979.78,-15 977.28,-12.75 982.28,-15 982.28,-15"/>
</a>
</g>
</g>
<!-- Node18 -->
<g id="Node000018" class="node">
<title>Node18</title>
<g id="a_Node000018"><a xlink:href="../../da/d68/classDeckList.html#ad2e03d9aa659732905514d8bc4a0f1f9" target="_top" xlink:title=" ">
<polygon fill="white" stroke="#666666" points="913,-114 779,-114 779,-84 913,-84 913,-114"/>
<text text-anchor="start" x="787" y="-102" font-family="Helvetica,sans-Serif" font-size="10.00">DeckList::saveToStream</text>
<text text-anchor="middle" x="846" y="-91" font-family="Helvetica,sans-Serif" font-size="10.00">_Plain</text>
</a>
</g>
</g>
<!-- Node17&#45;&gt;Node18 -->
<g id="edge20_Node000017_Node000018" class="edge">
<title>Node17&#45;&gt;Node18</title>
<g id="a_edge20_Node000017_Node000018"><a xlink:title=" ">
<path fill="none" stroke="#63b8ff" d="M705.6,-100.42C726.88,-100.2 751.3,-99.95 773.7,-99.73"/>
<polygon fill="#63b8ff" stroke="#63b8ff" points="778.75,-99.67 773.77,-101.98 776.25,-99.7 773.75,-99.73 773.75,-99.73 773.75,-99.73 776.25,-99.7 773.72,-97.48 778.75,-99.67 778.75,-99.67"/>
</a>
</g>
</g>
<!-- Node19 -->
<g id="Node000019" class="node">
<title>Node19</title>
<g id="a_Node000019"><a xlink:href="../../da/d68/classDeckList.html#a6ca4bb25dda768a1733396f89f8277e0" target="_top" xlink:title="Apply a function to every card in the deck tree.">
<polygon fill="white" stroke="#666666" points="1088.5,-108.5 964.5,-108.5 964.5,-89.5 1088.5,-89.5 1088.5,-108.5"/>
<text text-anchor="middle" x="1026.5" y="-96.5" font-family="Helvetica,sans-Serif" font-size="10.00">DeckList::forEachCard</text>
</a>
</g>
</g>
<!-- Node18&#45;&gt;Node19 -->
<g id="edge21_Node000018_Node000019" class="edge">
<title>Node18&#45;&gt;Node19</title>
<g id="a_edge21_Node000018_Node000019"><a xlink:title=" ">
<path fill="none" stroke="#63b8ff" d="M913.21,-99C928.28,-99 944.28,-99 959.34,-99"/>
<polygon fill="#63b8ff" stroke="#63b8ff" points="964.41,-99 959.41,-101.25 961.91,-99 959.41,-99 959.41,-99 959.41,-99 961.91,-99 959.41,-96.75 964.41,-99 964.41,-99"/>
</a>
</g>
</g>
</g>
</svg>
