<?xml version="1.0" encoding="UTF-8" standalone="no"?>
<!DOCTYPE svg PUBLIC "-//W3C//DTD SVG 1.1//EN"
 "http://www.w3.org/Graphics/SVG/1.1/DTD/svg11.dtd">
<!-- Generated by graphviz version 2.43.0 (0)
 -->
<!-- Title: TranslateCounterName::getDisplayName Pages: 1 -->
<svg width="1000pt" height="99pt"
 viewBox="0.00 0.00 1000.00 98.50" xmlns="http://www.w3.org/2000/svg" xmlns:xlink="http://www.w3.org/1999/xlink">
<g id="graph0" class="graph" transform="scale(1 1) rotate(0) translate(4 94.5)">
<title>TranslateCounterName::getDisplayName</title>
<!-- Node1 -->
<g id="Node000001" class="node">
<title>Node1</title>
<g id="a_Node000001"><a xlink:title=" ">
<polygon fill="#999999" stroke="#666666" points="992,-66.5 864,-66.5 864,-36.5 992,-36.5 992,-66.5"/>
<text text-anchor="start" x="872" y="-54.5" font-family="Helvetica,sans-Serif" font-size="10.00">TranslateCounterName</text>
<text text-anchor="middle" x="928" y="-43.5" font-family="Helvetica,sans-Serif" font-size="10.00">::getDisplayName</text>
</a>
</g>
</g>
<!-- Node2 -->
<g id="Node000002" class="node">
<title>Node2</title>
<g id="a_Node000002"><a xlink:href="../../d4/d67/classAbstractCounter.html#a31e45e3b9ccffbf9545103f4c842ba6c" target="_top" xlink:title=" ">
<polygon fill="white" stroke="#666666" points="824.5,-90.5 682.5,-90.5 682.5,-60.5 824.5,-60.5 824.5,-90.5"/>
<text text-anchor="start" x="690.5" y="-78.5" font-family="Helvetica,sans-Serif" font-size="10.00">AbstractCounter::Abstract</text>
<text text-anchor="middle" x="753.5" y="-67.5" font-family="Helvetica,sans-Serif" font-size="10.00">Counter</text>
</a>
</g>
</g>
<!-- Node1&#45;&gt;Node2 -->
<g id="edge1_Node000001_Node000002" class="edge">
<title>Node1&#45;&gt;Node2</title>
<g id="a_edge1_Node000001_Node000002"><a xlink:title=" ">
<path fill="none" stroke="#63b8ff" d="M858.65,-61.01C847.5,-62.56 835.93,-64.17 824.73,-65.73"/>
<polygon fill="#63b8ff" stroke="#63b8ff" points="863.75,-60.3 859.1,-63.22 861.27,-60.64 858.79,-60.99 858.79,-60.99 858.79,-60.99 861.27,-60.64 858.48,-58.76 863.75,-60.3 863.75,-60.3"/>
</a>
</g>
</g>
<!-- Node3 -->
<g id="Node000003" class="node">
<title>Node3</title>
<g id="a_Node000003"><a xlink:href="../../d7/d93/classMessageLogWidget.html#a81e99f106e90c64e822f6cf2998d6a22" target="_top" xlink:title=" ">
<polygon fill="white" stroke="#666666" points="828,-42.5 679,-42.5 679,-12.5 828,-12.5 828,-42.5"/>
<text text-anchor="start" x="687" y="-30.5" font-family="Helvetica,sans-Serif" font-size="10.00">MessageLogWidget::logSet</text>
<text text-anchor="middle" x="753.5" y="-19.5" font-family="Helvetica,sans-Serif" font-size="10.00">Counter</text>
</a>
</g>
</g>
<!-- Node1&#45;&gt;Node3 -->
<g id="edge2_Node000001_Node000003" class="edge">
<title>Node1&#45;&gt;Node3</title>
<g id="a_edge2_Node000001_Node000003"><a xlink:title=" ">
<path fill="none" stroke="#63b8ff" d="M858.57,-41.98C848.61,-40.59 838.32,-39.16 828.27,-37.76"/>
<polygon fill="#63b8ff" stroke="#63b8ff" points="863.75,-42.7 858.48,-44.24 861.27,-42.36 858.79,-42.01 858.79,-42.01 858.79,-42.01 861.27,-42.36 859.1,-39.78 863.75,-42.7 863.75,-42.7"/>
</a>
</g>
</g>
<!-- Node4 -->
<g id="Node000004" class="node">
<title>Node4</title>
<g id="a_Node000004"><a xlink:href="../../d7/d93/classMessageLogWidget.html#a13df61814a0a4510ed07d236a4914d5f" target="_top" xlink:title=" ">
<polygon fill="white" stroke="#666666" points="643,-42.5 487,-42.5 487,-12.5 643,-12.5 643,-42.5"/>
<text text-anchor="start" x="495" y="-30.5" font-family="Helvetica,sans-Serif" font-size="10.00">MessageLogWidget::connect</text>
<text text-anchor="middle" x="565" y="-19.5" font-family="Helvetica,sans-Serif" font-size="10.00">ToPlayerEventHandler</text>
</a>
</g>
</g>
<!-- Node3&#45;&gt;Node4 -->
<g id="edge3_Node000003_Node000004" class="edge">
<title>Node3&#45;&gt;Node4</title>
<g id="a_edge3_Node000003_Node000004"><a xlink:title=" ">
<path fill="none" stroke="#63b8ff" d="M673.55,-27.5C663.49,-27.5 653.19,-27.5 643.16,-27.5"/>
<polygon fill="#63b8ff" stroke="#63b8ff" points="678.79,-27.5 673.79,-29.75 676.29,-27.5 673.79,-27.5 673.79,-27.5 673.79,-27.5 676.29,-27.5 673.79,-25.25 678.79,-27.5 678.79,-27.5"/>
</a>
</g>
</g>
<!-- Node5 -->
<g id="Node000005" class="node">
<title>Node5</title>
<g id="a_Node000005"><a xlink:href="../../de/d08/classTabGame.html#a08c4ed46c64e3a0fd3be23274c18d55e" target="_top" xlink:title=" ">
<polygon fill="white" stroke="#666666" points="451,-37 334,-37 334,-18 451,-18 451,-37"/>
<text text-anchor="middle" x="392.5" y="-25" font-family="Helvetica,sans-Serif" font-size="10.00">TabGame::addPlayer</text>
</a>
</g>
</g>
<!-- Node4&#45;&gt;Node5 -->
<g id="edge4_Node000004_Node000005" class="edge">
<title>Node4&#45;&gt;Node5</title>
<g id="a_edge4_Node000004_Node000005"><a xlink:title=" ">
<path fill="none" stroke="#63b8ff" d="M481.67,-27.5C471.33,-27.5 460.94,-27.5 451.1,-27.5"/>
<polygon fill="#63b8ff" stroke="#63b8ff" points="486.73,-27.5 481.73,-29.75 484.23,-27.5 481.73,-27.5 481.73,-27.5 481.73,-27.5 484.23,-27.5 481.73,-25.25 486.73,-27.5 486.73,-27.5"/>
</a>
</g>
</g>
<!-- Node6 -->
<g id="Node000006" class="node">
<title>Node6</title>
<g id="a_Node000006"><a xlink:href="../../de/d08/classTabGame.html#ab7f63134f141f73682faf33d3c501757" target="_top" xlink:title=" ">
<polygon fill="white" stroke="#666666" points="298,-42.5 150,-42.5 150,-12.5 298,-12.5 298,-42.5"/>
<text text-anchor="start" x="158" y="-30.5" font-family="Helvetica,sans-Serif" font-size="10.00">TabGame::connectToPlayer</text>
<text text-anchor="middle" x="224" y="-19.5" font-family="Helvetica,sans-Serif" font-size="10.00">Manager</text>
</a>
</g>
</g>
<!-- Node5&#45;&gt;Node6 -->
<g id="edge5_Node000005_Node000006" class="edge">
<title>Node5&#45;&gt;Node6</title>
<g id="a_edge5_Node000005_Node000006"><a xlink:title=" ">
<path fill="none" stroke="#63b8ff" d="M328.59,-27.5C318.67,-27.5 308.34,-27.5 298.21,-27.5"/>
<polygon fill="#63b8ff" stroke="#63b8ff" points="333.73,-27.5 328.73,-29.75 331.23,-27.5 328.73,-27.5 328.73,-27.5 328.73,-27.5 331.23,-27.5 328.73,-25.25 333.73,-27.5 333.73,-27.5"/>
</a>
</g>
</g>
<!-- Node7 -->
<g id="Node000007" class="node">
<title>Node7</title>
<g id="a_Node000007"><a xlink:href="../../de/d08/classTabGame.html#a2b6beeea83d5e1e5b29712929e9eb08b" target="_top" xlink:title=" ">
<polygon fill="white" stroke="#666666" points="114,-56 0,-56 0,-37 114,-37 114,-56"/>
<text text-anchor="middle" x="57" y="-44" font-family="Helvetica,sans-Serif" font-size="10.00">TabGame::TabGame</text>
</a>
</g>
</g>
<!-- Node6&#45;&gt;Node7 -->
<g id="edge6_Node000006_Node000007" class="edge">
<title>Node6&#45;&gt;Node7</title>
<g id="a_edge6_Node000006_Node000007"><a xlink:title=" ">
<path fill="none" stroke="#63b8ff" d="M144.64,-36.52C134.39,-37.7 124.05,-38.89 114.27,-40.02"/>
<polygon fill="#63b8ff" stroke="#63b8ff" points="149.67,-35.94 144.96,-38.75 147.18,-36.23 144.7,-36.52 144.7,-36.52 144.7,-36.52 147.18,-36.23 144.44,-34.28 149.67,-35.94 149.67,-35.94"/>
</a>
</g>
</g>
<!-- Node8 -->
<g id="Node000008" class="node">
<title>Node8</title>
<g id="a_Node000008"><a xlink:href="../../de/d08/classTabGame.html#a0198c02f04e49adcbc708d2a0abfb80b" target="_top" xlink:title=" ">
<polygon fill="white" stroke="#666666" points="114,-19 0,-19 0,0 114,0 114,-19"/>
<text text-anchor="middle" x="57" y="-7" font-family="Helvetica,sans-Serif" font-size="10.00">TabGame::TabGame</text>
</a>
</g>
</g>
<!-- Node6&#45;&gt;Node8 -->
<g id="edge7_Node000006_Node000008" class="edge">
<title>Node6&#45;&gt;Node8</title>
<g id="a_edge7_Node000006_Node000008"><a xlink:title=" ">
<path fill="none" stroke="#63b8ff" d="M144.64,-18.95C134.39,-17.83 124.05,-16.71 114.27,-15.64"/>
<polygon fill="#63b8ff" stroke="#63b8ff" points="149.67,-19.5 144.45,-21.19 147.18,-19.23 144.7,-18.96 144.7,-18.96 144.7,-18.96 147.18,-19.23 144.94,-16.72 149.67,-19.5 149.67,-19.5"/>
</a>
</g>
</g>
</g>
</svg>
