<?xml version="1.0" encoding="UTF-8" standalone="no"?>
<!DOCTYPE svg PUBLIC "-//W3C//DTD SVG 1.1//EN"
 "http://www.w3.org/Graphics/SVG/1.1/DTD/svg11.dtd">
<!-- Generated by graphviz version 2.43.0 (0)
 -->
<!-- Title: cockatrice/src/interface/widgets/tabs/api/archidekt/api_response/deck/archidekt_api_response_deck.h Pages: 1 -->
<svg width="448pt" height="236pt"
 viewBox="0.00 0.00 448.00 236.00" xmlns="http://www.w3.org/2000/svg" xmlns:xlink="http://www.w3.org/1999/xlink">
<g id="graph0" class="graph" transform="scale(1 1) rotate(0) translate(4 232)">
<title>cockatrice/src/interface/widgets/tabs/api/archidekt/api_response/deck/archidekt_api_response_deck.h</title>
<!-- Node1 -->
<g id="Node000001" class="node">
<title>Node1</title>
<g id="a_Node000001"><a xlink:title=" ">
<polygon fill="#999999" stroke="#666666" points="266,-228 107,-228 107,-176 266,-176 266,-228"/>
<text text-anchor="start" x="115" y="-216" font-family="Helvetica,sans-Serif" font-size="10.00">cockatrice/src/interface</text>
<text text-anchor="start" x="115" y="-205" font-family="Helvetica,sans-Serif" font-size="10.00">/widgets/tabs/api/archidekt</text>
<text text-anchor="start" x="115" y="-194" font-family="Helvetica,sans-Serif" font-size="10.00">/api_response/deck/archidekt</text>
<text text-anchor="middle" x="186.5" y="-183" font-family="Helvetica,sans-Serif" font-size="10.00">_api_response_deck.h</text>
</a>
</g>
</g>
<!-- Node2 -->
<g id="Node000002" class="node">
<title>Node2</title>
<g id="a_Node000002"><a xlink:href="../../db/da8/archidekt__api__response__deck_8cpp.html" target="_top" xlink:title=" ">
<polygon fill="white" stroke="#666666" points="159,-140 0,-140 0,-88 159,-88 159,-140"/>
<text text-anchor="start" x="8" y="-128" font-family="Helvetica,sans-Serif" font-size="10.00">cockatrice/src/interface</text>
<text text-anchor="start" x="8" y="-117" font-family="Helvetica,sans-Serif" font-size="10.00">/widgets/tabs/api/archidekt</text>
<text text-anchor="start" x="8" y="-106" font-family="Helvetica,sans-Serif" font-size="10.00">/api_response/deck/archidekt</text>
<text text-anchor="middle" x="79.5" y="-95" font-family="Helvetica,sans-Serif" font-size="10.00">_api_response_deck.cpp</text>
</a>
</g>
</g>
<!-- Node1&#45;&gt;Node2 -->
<g id="edge1_Node000001_Node000002" class="edge">
<title>Node1&#45;&gt;Node2</title>
<g id="a_edge1_Node000001_Node000002"><a xlink:title=" ">
<path fill="none" stroke="#63b8ff" d="M151.28,-172.69C138.27,-162.24 123.62,-150.46 110.96,-140.29"/>
<polygon fill="#63b8ff" stroke="#63b8ff" points="155.26,-175.89 149.96,-174.52 153.31,-174.33 151.37,-172.76 151.37,-172.76 151.37,-172.76 153.31,-174.33 152.78,-171.01 155.26,-175.89 155.26,-175.89"/>
</a>
</g>
</g>
<!-- Node3 -->
<g id="Node000003" class="node">
<title>Node3</title>
<g id="a_Node000003"><a xlink:href="../../d3/d4c/archidekt__api__response__deck__display__widget_8cpp.html" target="_top" xlink:title=" ">
<polygon fill="white" stroke="#666666" points="273,-52 100,-52 100,0 273,0 273,-52"/>
<text text-anchor="start" x="108" y="-40" font-family="Helvetica,sans-Serif" font-size="10.00">cockatrice/src/interface</text>
<text text-anchor="start" x="108" y="-29" font-family="Helvetica,sans-Serif" font-size="10.00">/widgets/tabs/api/archidekt</text>
<text text-anchor="start" x="108" y="-18" font-family="Helvetica,sans-Serif" font-size="10.00">/display/archidekt_api_response</text>
<text text-anchor="middle" x="186.5" y="-7" font-family="Helvetica,sans-Serif" font-size="10.00">_deck_display_widget.cpp</text>
</a>
</g>
</g>
<!-- Node1&#45;&gt;Node3 -->
<g id="edge2_Node000001_Node000003" class="edge">
<title>Node1&#45;&gt;Node3</title>
<g id="a_edge2_Node000001_Node000003"><a xlink:title=" ">
<path fill="none" stroke="#63b8ff" d="M186.5,-170.48C186.5,-136.83 186.5,-83.33 186.5,-52.05"/>
<polygon fill="#63b8ff" stroke="#63b8ff" points="186.5,-175.7 184.25,-170.7 186.5,-173.2 186.5,-170.7 186.5,-170.7 186.5,-170.7 186.5,-173.2 188.75,-170.7 186.5,-175.7 186.5,-175.7"/>
</a>
</g>
</g>
<!-- Node4 -->
<g id="Node000004" class="node">
<title>Node4</title>
<g id="a_Node000004"><a xlink:href="../../de/d15/archidekt__api__response__deck__display__widget_8h.html" target="_top" xlink:title=" ">
<polygon fill="white" stroke="#666666" points="388,-140 215,-140 215,-88 388,-88 388,-140"/>
<text text-anchor="start" x="223" y="-128" font-family="Helvetica,sans-Serif" font-size="10.00">cockatrice/src/interface</text>
<text text-anchor="start" x="223" y="-117" font-family="Helvetica,sans-Serif" font-size="10.00">/widgets/tabs/api/archidekt</text>
<text text-anchor="start" x="223" y="-106" font-family="Helvetica,sans-Serif" font-size="10.00">/display/archidekt_api_response</text>
<text text-anchor="middle" x="301.5" y="-95" font-family="Helvetica,sans-Serif" font-size="10.00">_deck_display_widget.h</text>
</a>
</g>
</g>
<!-- Node1&#45;&gt;Node4 -->
<g id="edge3_Node000001_Node000004" class="edge">
<title>Node1&#45;&gt;Node4</title>
<g id="a_edge3_Node000001_Node000004"><a xlink:title=" ">
<path fill="none" stroke="#63b8ff" d="M224.35,-172.69C238.34,-162.24 254.08,-150.46 267.69,-140.29"/>
<polygon fill="#63b8ff" stroke="#63b8ff" points="220.07,-175.89 222.73,-171.1 222.07,-174.4 224.08,-172.9 224.08,-172.9 224.08,-172.9 222.07,-174.4 225.42,-174.7 220.07,-175.89 220.07,-175.89"/>
</a>
</g>
</g>
<!-- Node4&#45;&gt;Node3 -->
<g id="edge4_Node000004_Node000003" class="edge">
<title>Node4&#45;&gt;Node3</title>
<g id="a_edge4_Node000004_Node000003"><a xlink:title=" ">
<path fill="none" stroke="#63b8ff" d="M263.65,-84.69C249.66,-74.24 233.92,-62.46 220.31,-52.29"/>
<polygon fill="#63b8ff" stroke="#63b8ff" points="267.93,-87.89 262.58,-86.7 265.93,-86.4 263.92,-84.9 263.92,-84.9 263.92,-84.9 265.93,-86.4 265.27,-83.1 267.93,-87.89 267.93,-87.89"/>
</a>
</g>
</g>
<!-- Node5 -->
<g id="Node000005" class="node">
<title>Node5</title>
<g id="a_Node000005"><a xlink:href="../../d7/d3d/tab__archidekt_8cpp.html" target="_top" xlink:title=" ">
<polygon fill="white" stroke="#666666" points="440,-46.5 291,-46.5 291,-5.5 440,-5.5 440,-46.5"/>
<text text-anchor="start" x="299" y="-34.5" font-family="Helvetica,sans-Serif" font-size="10.00">cockatrice/src/interface</text>
<text text-anchor="start" x="299" y="-23.5" font-family="Helvetica,sans-Serif" font-size="10.00">/widgets/tabs/api/archidekt</text>
<text text-anchor="middle" x="365.5" y="-12.5" font-family="Helvetica,sans-Serif" font-size="10.00">/tab_archidekt.cpp</text>
</a>
</g>
</g>
<!-- Node4&#45;&gt;Node5 -->
<g id="edge5_Node000004_Node000005" class="edge">
<title>Node4&#45;&gt;Node5</title>
<g id="a_edge5_Node000004_Node000005"><a xlink:title=" ">
<path fill="none" stroke="#63b8ff" d="M323.38,-83.6C332.44,-71.43 342.71,-57.63 350.84,-46.7"/>
<polygon fill="#63b8ff" stroke="#63b8ff" points="320.36,-87.66 321.54,-82.31 321.85,-85.66 323.34,-83.65 323.34,-83.65 323.34,-83.65 321.85,-85.66 325.15,-84.99 320.36,-87.66 320.36,-87.66"/>
</a>
</g>
</g>
</g>
</svg>
