<?xml version="1.0" encoding="UTF-8" standalone="no"?>
<!DOCTYPE svg PUBLIC "-//W3C//DTD SVG 1.1//EN"
 "http://www.w3.org/Graphics/SVG/1.1/DTD/svg11.dtd">
<!-- Generated by graphviz version 2.43.0 (0)
 -->
<!-- Title: cockatrice/src/interface/widgets/tabs/api/archidekt/api_response/deck_listings/archidekt_api_response_deck_listing_container.h Pages: 1 -->
<!--zoomable 346 -->

<svg id="main" version="1.1" xmlns="http://www.w3.org/2000/svg" xmlns:xlink="http://www.w3.org/1999/xlink" xml:space="preserve" onload="init(evt)">

<style type="text/css"><![CDATA[
.node, .edge {opacity: 0.7;}
.node.selected, .edge.selected {opacity: 1;}
.edge:hover path { stroke: red; }
.edge:hover polygon { stroke: red; fill: red; }
]]></style>

<defs>
  <circle id="rim" cx="0" cy="0" r="7"/>
  <circle id="rim2" cx="0" cy="0" r="3.5"/>
  <g id="zoomPlus">
    <use xlink:href="#rim" fill="#404040"><set attributeName="fill" to="#808080" begin="zoomplus.mouseover" end="zoomplus.mouseout"/></use>
    <path d="M-4,0h8M0,-4v8" fill="none" stroke="white" stroke-width="1.5" pointer-events="none"/>
  </g>
  <g id="zoomMin">
    <use xlink:href="#rim" fill="#404040"><set attributeName="fill" to="#808080" begin="zoomminus.mouseover" end="zoomminus.mouseout"/></use>
    <path d="M-4,0h8" fill="none" stroke="white" stroke-width="1.5" pointer-events="none"/>
  </g>
  <g id="arrowUp" transform="translate(30 24)">
    <use xlink:href="#rim"/>
    <path pointer-events="none" fill="none" stroke="white" stroke-width="1.5" d="M0,-3.0v7 M-2.5,-0.5L0,-3.0L2.5,-0.5"/>
  </g>
  <g id="arrowRight" transform="rotate(90) translate(36 -43)">
    <use xlink:href="#rim"/>
    <path pointer-events="none" fill="none" stroke="white" stroke-width="1.5" d="M0,-3.0v7 M-2.5,-0.5L0,-3.0L2.5,-0.5"/>
  </g>
  <g id="arrowDown" transform="rotate(180) translate(-30 -48)">
    <use xlink:href="#rim"/>
    <path pointer-events="none" fill="none" stroke="white" stroke-width="1.5" d="M0,-3.0v7 M-2.5,-0.5L0,-3.0L2.5,-0.5"/>
  </g>
  <g id="arrowLeft" transform="rotate(270) translate(-36 17)">
    <use xlink:href="#rim"/>
    <path pointer-events="none" fill="none" stroke="white" stroke-width="1.5" d="M0,-3.0v7 M-2.5,-0.5L0,-3.0L2.5,-0.5"/>
  </g>
  <g id="resetDef">
    <use xlink:href="#rim2" fill="#404040"><set attributeName="fill" to="#808080" begin="reset.mouseover" end="reset.mouseout"/></use>
  </g>
</defs>
<script type="application/ecmascript">
var viewWidth = 647;
var viewHeight = 346;
var sectionId = 'dynsection-1';
</script>
<script type="application/ecmascript" xlink:href="../../svg.min.js"/>
<svg id="graph" class="graph">
<g id="viewport">
<title>cockatrice/src/interface/widgets/tabs/api/archidekt/api_response/deck_listings/archidekt_api_response_deck_listing_container.h</title>
<!-- Node1 -->
<g id="Node000001" class="node">
<title>Node1</title>
<g id="a_Node000001"><a xlink:title=" ">
<polygon fill="#999999" stroke="#666666" points="446.5,-338 282.5,-338 282.5,-275 446.5,-275 446.5,-338"/>
<text text-anchor="start" x="290.5" y="-326" font-family="Helvetica,sans-Serif" font-size="10.00">cockatrice/src/interface</text>
<text text-anchor="start" x="290.5" y="-315" font-family="Helvetica,sans-Serif" font-size="10.00">/widgets/tabs/api/archidekt</text>
<text text-anchor="start" x="290.5" y="-304" font-family="Helvetica,sans-Serif" font-size="10.00">/api_response/deck_listings</text>
<text text-anchor="start" x="290.5" y="-293" font-family="Helvetica,sans-Serif" font-size="10.00">/archidekt_api_response_deck</text>
<text text-anchor="middle" x="364.5" y="-282" font-family="Helvetica,sans-Serif" font-size="10.00">_listing_container.h</text>
</a>
</g>
</g>
<!-- Node2 -->
<g id="Node000002" class="node">
<title>Node2</title>
<g id="a_Node000002"><a xlink:href="../../d2/d56/archidekt__deck__listing__api__response_8h.html" target="_top" xlink:title=" ">
<polygon fill="white" stroke="#666666" points="264,-233.5 103,-233.5 103,-181.5 264,-181.5 264,-233.5"/>
<text text-anchor="start" x="111" y="-221.5" font-family="Helvetica,sans-Serif" font-size="10.00">cockatrice/src/interface</text>
<text text-anchor="start" x="111" y="-210.5" font-family="Helvetica,sans-Serif" font-size="10.00">/widgets/tabs/api/archidekt</text>
<text text-anchor="start" x="111" y="-199.5" font-family="Helvetica,sans-Serif" font-size="10.00">/api_response/archidekt_deck</text>
<text text-anchor="middle" x="183.5" y="-188.5" font-family="Helvetica,sans-Serif" font-size="10.00">_listing_api_response.h</text>
</a>
</g>
</g>
<!-- Node1&#45;&gt;Node2 -->
<g id="edge1_Node000001_Node000002" class="edge">
<title>Node1&#45;&gt;Node2</title>
<g id="a_edge1_Node000001_Node000002"><a xlink:title=" ">
<path fill="none" stroke="#63b8ff" d="M302.55,-272.3C278.92,-259.64 252.41,-245.43 230.41,-233.64"/>
<polygon fill="#63b8ff" stroke="#63b8ff" points="307.23,-274.81 301.76,-274.43 305.03,-273.63 302.82,-272.45 302.82,-272.45 302.82,-272.45 305.03,-273.63 303.89,-270.46 307.23,-274.81 307.23,-274.81"/>
</a>
</g>
</g>
<!-- Node7 -->
<g id="Node000007" class="node">
<title>Node7</title>
<g id="a_Node000007"><a xlink:href="../../db/da5/archidekt__api__response__deck__listing__container_8cpp.html" target="_top" xlink:title=" ">
<polygon fill="white" stroke="#666666" points="446.5,-239 282.5,-239 282.5,-176 446.5,-176 446.5,-239"/>
<text text-anchor="start" x="290.5" y="-227" font-family="Helvetica,sans-Serif" font-size="10.00">cockatrice/src/interface</text>
<text text-anchor="start" x="290.5" y="-216" font-family="Helvetica,sans-Serif" font-size="10.00">/widgets/tabs/api/archidekt</text>
<text text-anchor="start" x="290.5" y="-205" font-family="Helvetica,sans-Serif" font-size="10.00">/api_response/deck_listings</text>
<text text-anchor="start" x="290.5" y="-194" font-family="Helvetica,sans-Serif" font-size="10.00">/archidekt_api_response_deck</text>
<text text-anchor="middle" x="364.5" y="-183" font-family="Helvetica,sans-Serif" font-size="10.00">_listing_container.cpp</text>
</a>
</g>
</g>
<!-- Node1&#45;&gt;Node7 -->
<g id="edge7_Node000001_Node000007" class="edge">
<title>Node1&#45;&gt;Node7</title>
<g id="a_edge7_Node000001_Node000007"><a xlink:title=" ">
<path fill="none" stroke="#63b8ff" d="M364.5,-269.68C364.5,-259.71 364.5,-248.98 364.5,-239.32"/>
<polygon fill="#63b8ff" stroke="#63b8ff" points="364.5,-274.81 362.25,-269.81 364.5,-272.31 364.5,-269.81 364.5,-269.81 364.5,-269.81 364.5,-272.31 366.75,-269.81 364.5,-274.81 364.5,-274.81"/>
</a>
</g>
</g>
<!-- Node8 -->
<g id="Node000008" class="node">
<title>Node8</title>
<g id="a_Node000008"><a xlink:href="../../d3/d94/archidekt__api__response__deck__entry__display__widget_8h.html" target="_top" xlink:title=" ">
<polygon fill="white" stroke="#666666" points="638,-233.5 465,-233.5 465,-181.5 638,-181.5 638,-233.5"/>
<text text-anchor="start" x="473" y="-221.5" font-family="Helvetica,sans-Serif" font-size="10.00">cockatrice/src/interface</text>
<text text-anchor="start" x="473" y="-210.5" font-family="Helvetica,sans-Serif" font-size="10.00">/widgets/tabs/api/archidekt</text>
<text text-anchor="start" x="473" y="-199.5" font-family="Helvetica,sans-Serif" font-size="10.00">/display/archidekt_api_response</text>
<text text-anchor="middle" x="551.5" y="-188.5" font-family="Helvetica,sans-Serif" font-size="10.00">_deck_entry_display_widget.h</text>
</a>
</g>
</g>
<!-- Node1&#45;&gt;Node8 -->
<g id="edge8_Node000001_Node000008" class="edge">
<title>Node1&#45;&gt;Node8</title>
<g id="a_edge8_Node000001_Node000008"><a xlink:title=" ">
<path fill="none" stroke="#63b8ff" d="M427.97,-272.58C452.57,-259.82 480.28,-245.44 503.21,-233.55"/>
<polygon fill="#63b8ff" stroke="#63b8ff" points="423.41,-274.94 426.81,-270.64 425.63,-273.79 427.85,-272.64 427.85,-272.64 427.85,-272.64 425.63,-273.79 428.89,-274.64 423.41,-274.94 423.41,-274.94"/>
</a>
</g>
</g>
<!-- Node3 -->
<g id="Node000003" class="node">
<title>Node3</title>
<g id="a_Node000003"><a xlink:href="../../da/d67/archidekt__deck__listing__api__response_8cpp.html" target="_top" xlink:title=" ">
<polygon fill="white" stroke="#666666" points="161,-140 0,-140 0,-88 161,-88 161,-140"/>
<text text-anchor="start" x="8" y="-128" font-family="Helvetica,sans-Serif" font-size="10.00">cockatrice/src/interface</text>
<text text-anchor="start" x="8" y="-117" font-family="Helvetica,sans-Serif" font-size="10.00">/widgets/tabs/api/archidekt</text>
<text text-anchor="start" x="8" y="-106" font-family="Helvetica,sans-Serif" font-size="10.00">/api_response/archidekt_deck</text>
<text text-anchor="middle" x="80.5" y="-95" font-family="Helvetica,sans-Serif" font-size="10.00">_listing_api_response.cpp</text>
</a>
</g>
</g>
<!-- Node2&#45;&gt;Node3 -->
<g id="edge2_Node000002_Node000003" class="edge">
<title>Node2&#45;&gt;Node3</title>
<g id="a_edge2_Node000002_Node000003"><a xlink:title=" ">
<path fill="none" stroke="#63b8ff" d="M151.57,-178.14C137.95,-166.04 122.19,-152.03 108.97,-140.29"/>
<polygon fill="#63b8ff" stroke="#63b8ff" points="155.35,-181.5 150.12,-179.86 153.49,-179.84 151.62,-178.18 151.62,-178.18 151.62,-178.18 153.49,-179.84 153.11,-176.49 155.35,-181.5 155.35,-181.5"/>
</a>
</g>
</g>
<!-- Node4 -->
<g id="Node000004" class="node">
<title>Node4</title>
<g id="a_Node000004"><a xlink:href="../../d1/dd8/archidekt__api__response__deck__listings__display__widget_8h.html" target="_top" xlink:title=" ">
<polygon fill="white" stroke="#666666" points="391,-140 218,-140 218,-88 391,-88 391,-140"/>
<text text-anchor="start" x="226" y="-128" font-family="Helvetica,sans-Serif" font-size="10.00">cockatrice/src/interface</text>
<text text-anchor="start" x="226" y="-117" font-family="Helvetica,sans-Serif" font-size="10.00">/widgets/tabs/api/archidekt</text>
<text text-anchor="start" x="226" y="-106" font-family="Helvetica,sans-Serif" font-size="10.00">/display/archidekt_api_response</text>
<text text-anchor="middle" x="304.5" y="-95" font-family="Helvetica,sans-Serif" font-size="10.00">_deck_listings_display_widget.h</text>
</a>
</g>
</g>
<!-- Node2&#45;&gt;Node4 -->
<g id="edge3_Node000002_Node000004" class="edge">
<title>Node2&#45;&gt;Node4</title>
<g id="a_edge3_Node000002_Node000004"><a xlink:title=" ">
<path fill="none" stroke="#63b8ff" d="M220.6,-178.45C236.69,-166.28 255.4,-152.13 271.06,-140.29"/>
<polygon fill="#63b8ff" stroke="#63b8ff" points="216.56,-181.5 219.19,-176.69 218.56,-179.99 220.55,-178.48 220.55,-178.48 220.55,-178.48 218.56,-179.99 221.91,-180.28 216.56,-181.5 216.56,-181.5"/>
</a>
</g>
</g>
<!-- Node6 -->
<g id="Node000006" class="node">
<title>Node6</title>
<g id="a_Node000006"><a xlink:href="../../d7/d3d/tab__archidekt_8cpp.html" target="_top" xlink:title=" ">
<polygon fill="white" stroke="#666666" points="286,-46.5 137,-46.5 137,-5.5 286,-5.5 286,-46.5"/>
<text text-anchor="start" x="145" y="-34.5" font-family="Helvetica,sans-Serif" font-size="10.00">cockatrice/src/interface</text>
<text text-anchor="start" x="145" y="-23.5" font-family="Helvetica,sans-Serif" font-size="10.00">/widgets/tabs/api/archidekt</text>
<text text-anchor="middle" x="211.5" y="-12.5" font-family="Helvetica,sans-Serif" font-size="10.00">/tab_archidekt.cpp</text>
</a>
</g>
</g>
<!-- Node2&#45;&gt;Node6 -->
<g id="edge6_Node000002_Node000006" class="edge">
<title>Node2&#45;&gt;Node6</title>
<g id="a_edge6_Node000002_Node000006"><a xlink:title=" ">
<path fill="none" stroke="#63b8ff" d="M188.27,-175.89C194.04,-138.94 203.56,-77.89 208.43,-46.68"/>
<polygon fill="#63b8ff" stroke="#63b8ff" points="187.45,-181.16 186,-175.88 187.84,-178.69 188.22,-176.22 188.22,-176.22 188.22,-176.22 187.84,-178.69 190.45,-176.57 187.45,-181.16 187.45,-181.16"/>
</a>
</g>
</g>
<!-- Node5 -->
<g id="Node000005" class="node">
<title>Node5</title>
<g id="a_Node000005"><a xlink:href="../../d3/d64/archidekt__api__response__deck__listings__display__widget_8cpp.html" target="_top" xlink:title=" ">
<polygon fill="white" stroke="#666666" points="500,-52 315,-52 315,0 500,0 500,-52"/>
<text text-anchor="start" x="323" y="-40" font-family="Helvetica,sans-Serif" font-size="10.00">cockatrice/src/interface</text>
<text text-anchor="start" x="323" y="-29" font-family="Helvetica,sans-Serif" font-size="10.00">/widgets/tabs/api/archidekt</text>
<text text-anchor="start" x="323" y="-18" font-family="Helvetica,sans-Serif" font-size="10.00">/display/archidekt_api_response</text>
<text text-anchor="middle" x="407.5" y="-7" font-family="Helvetica,sans-Serif" font-size="10.00">_deck_listings_display_widget.cpp</text>
</a>
</g>
</g>
<!-- Node4&#45;&gt;Node5 -->
<g id="edge4_Node000004_Node000005" class="edge">
<title>Node4&#45;&gt;Node5</title>
<g id="a_edge4_Node000004_Node000005"><a xlink:title=" ">
<path fill="none" stroke="#63b8ff" d="M338.73,-84.42C351.17,-74.03 365.14,-62.37 377.22,-52.29"/>
<polygon fill="#63b8ff" stroke="#63b8ff" points="334.57,-87.89 336.96,-82.96 336.49,-86.29 338.41,-84.69 338.41,-84.69 338.41,-84.69 336.49,-86.29 339.85,-86.42 334.57,-87.89 334.57,-87.89"/>
</a>
</g>
</g>
<!-- Node4&#45;&gt;Node6 -->
<g id="edge5_Node000004_Node000006" class="edge">
<title>Node4&#45;&gt;Node6</title>
<g id="a_edge5_Node000004_Node000006"><a xlink:title=" ">
<path fill="none" stroke="#63b8ff" d="M273.39,-84.24C260.06,-71.91 244.83,-57.82 232.81,-46.7"/>
<polygon fill="#63b8ff" stroke="#63b8ff" points="277.1,-87.66 271.9,-85.92 275.26,-85.96 273.43,-84.27 273.43,-84.27 273.43,-84.27 275.26,-85.96 274.96,-82.62 277.1,-87.66 277.1,-87.66"/>
</a>
</g>
</g>
<!-- Node8&#45;&gt;Node5 -->
<g id="edge10_Node000008_Node000005" class="edge">
<title>Node8&#45;&gt;Node5</title>
<g id="a_edge10_Node000008_Node000005"><a xlink:title=" ">
<path fill="none" stroke="#63b8ff" d="M499.81,-178.42C484.04,-167.96 467.67,-154.95 455.5,-140 434.1,-113.72 420.77,-76.49 413.74,-52.06"/>
<polygon fill="#63b8ff" stroke="#63b8ff" points="504.24,-181.3 498.82,-180.46 502.14,-179.94 500.05,-178.57 500.05,-178.57 500.05,-178.57 502.14,-179.94 501.27,-176.69 504.24,-181.3 504.24,-181.3"/>
</a>
</g>
</g>
<!-- Node9 -->
<g id="Node000009" class="node">
<title>Node9</title>
<g id="a_Node000009"><a xlink:href="../../da/d4a/archidekt__api__response__deck__entry__display__widget_8cpp.html" target="_top" xlink:title=" ">
<polygon fill="white" stroke="#666666" points="639,-140 464,-140 464,-88 639,-88 639,-140"/>
<text text-anchor="start" x="472" y="-128" font-family="Helvetica,sans-Serif" font-size="10.00">cockatrice/src/interface</text>
<text text-anchor="start" x="472" y="-117" font-family="Helvetica,sans-Serif" font-size="10.00">/widgets/tabs/api/archidekt</text>
<text text-anchor="start" x="472" y="-106" font-family="Helvetica,sans-Serif" font-size="10.00">/display/archidekt_api_response</text>
<text text-anchor="middle" x="551.5" y="-95" font-family="Helvetica,sans-Serif" font-size="10.00">_deck_entry_display_widget.cpp</text>
</a>
</g>
</g>
<!-- Node8&#45;&gt;Node9 -->
<g id="edge9_Node000008_Node000009" class="edge">
<title>Node8&#45;&gt;Node9</title>
<g id="a_edge9_Node000008_Node000009"><a xlink:title=" ">
<path fill="none" stroke="#63b8ff" d="M551.5,-176.26C551.5,-164.61 551.5,-151.43 551.5,-140.29"/>
<polygon fill="#63b8ff" stroke="#63b8ff" points="551.5,-181.5 549.25,-176.5 551.5,-179 551.5,-176.5 551.5,-176.5 551.5,-176.5 551.5,-179 553.75,-176.5 551.5,-181.5 551.5,-181.5"/>
</a>
</g>
</g>
</g>
</svg>

<g id="navigator" transform="translate(0 0)" fill="#404254">
  <rect fill="#f2f5e9" fill-opacity="0.5" stroke="#606060" stroke-width=".5" x="0" y="0" width="60" height="60"/>
  <use id="zoomplus" xlink:href="#zoomPlus" x="17" y="9" onmousedown="handleZoom(evt,'in')"/>
  <use id="zoomminus" xlink:href="#zoomMin" x="42" y="9" onmousedown="handleZoom(evt,'out')"/>
  <use id="reset" xlink:href="#resetDef" x="30" y="36" onmousedown="handleReset()"/>
   <use id="arrowup" xlink:href="#arrowUp" x="0" y="0" onmousedown="handlePan(0,-1)"/>
  <use id="arrowright" xlink:href="#arrowRight" x="0" y="0" onmousedown="handlePan(1,0)"/>
  <use id="arrowdown" xlink:href="#arrowDown" x="0" y="0" onmousedown="handlePan(0,1)"/>
  <use id="arrowleft" xlink:href="#arrowLeft" x="0" y="0" onmousedown="handlePan(-1,0)"/>
</g>
<svg viewBox="0 0 15 15" width="100%" height="30px" preserveAspectRatio="xMaxYMin meet">
 <g id="arrow_out" transform="scale(0.3 0.3)">
  <a xlink:href="archidekt__api__response__deck__listing__container_8h__dep__incl_org.svg" target="_base">
   <rect id="button" ry="5" rx="5" y="6" x="6" height="38" width="38"
        fill="#f2f5e9" fill-opacity="0.5" stroke="#606060" stroke-width="1.0"/>
   <path id="arrow"
     d="M 11.500037,31.436501 C 11.940474,20.09759 22.043105,11.32322 32.158766,21.979434 L 37.068811,17.246167 C 37.068811,17.246167 37.088388,32 37.088388,32 L 22.160133,31.978069 C 22.160133,31.978069 26.997745,27.140456 26.997745,27.140456 C 18.528582,18.264221 13.291696,25.230495 11.500037,31.436501 z"
     style="fill:#404040;"/>
  </a>
 </g>
</svg>

<style type='text/css'>
<![CDATA[
[data-mouse-over-selected='false'] { opacity: 0.7; }
[data-mouse-over-selected='true']  { opacity: 1.0; }
]]>
</style>
<script type="application/ecmascript"><![CDATA[
document.addEventListener('DOMContentLoaded', (event) => {
  highlightEdges();
  highlightAdjacentNodes();
});
]]></script>
</svg>
