<?xml version="1.0" encoding="UTF-8" standalone="no"?>
<!DOCTYPE svg PUBLIC "-//W3C//DTD SVG 1.1//EN"
 "http://www.w3.org/Graphics/SVG/1.1/DTD/svg11.dtd">
<!-- Generated by graphviz version 2.43.0 (0)
 -->
<!-- Title: QxtMailMessage::QxtMailMessage Pages: 1 -->
<svg width="416pt" height="64pt"
 viewBox="0.00 0.00 416.00 64.00" xmlns="http://www.w3.org/2000/svg" xmlns:xlink="http://www.w3.org/1999/xlink">
<g id="graph0" class="graph" transform="scale(1 1) rotate(0) translate(4 60)">
<title>QxtMailMessage::QxtMailMessage</title>
<!-- Node1 -->
<g id="Node000001" class="node">
<title>Node1</title>
<g id="a_Node000001"><a xlink:title=" ">
<polygon fill="#999999" stroke="#666666" points="408,-37 222,-37 222,-18 408,-18 408,-37"/>
<text text-anchor="middle" x="315" y="-25" font-family="Helvetica,sans-Serif" font-size="10.00">QxtMailMessage::QxtMailMessage</text>
</a>
</g>
</g>
<!-- Node2 -->
<g id="Node000002" class="node">
<title>Node2</title>
<g id="a_Node000002"><a xlink:href="../../d5/dff/classQxtMailMessage.html#a0a14985fd9ed37122c54b5edde3dbce7" target="_top" xlink:title=" ">
<polygon fill="white" stroke="#666666" points="170,-56 16,-56 16,-37 170,-37 170,-56"/>
<text text-anchor="middle" x="93" y="-44" font-family="Helvetica,sans-Serif" font-size="10.00">QxtMailMessage::operator=</text>
</a>
</g>
</g>
<!-- Node1&#45;&gt;Node2 -->
<g id="edge1_Node000001_Node000002" class="edge">
<title>Node1&#45;&gt;Node2</title>
<g id="a_edge1_Node000001_Node000002"><a xlink:title=" ">
<path fill="none" stroke="#63b8ff" d="M216.72,-35.9C201.18,-37.24 185.3,-38.62 170.34,-39.91"/>
<polygon fill="#63b8ff" stroke="#63b8ff" points="221.97,-35.45 217.19,-38.12 219.48,-35.66 216.99,-35.88 216.99,-35.88 216.99,-35.88 219.48,-35.66 216.8,-33.64 221.97,-35.45 221.97,-35.45"/>
</a>
</g>
</g>
<!-- Node3 -->
<g id="Node000003" class="node">
<title>Node3</title>
<g id="a_Node000003"><a xlink:href="../../d5/dff/classQxtMailMessage.html#ae80f2e344eb2371e882e48e65c74ca3f" target="_top" xlink:title=" ">
<polygon fill="white" stroke="#666666" points="186,-19 0,-19 0,0 186,0 186,-19"/>
<text text-anchor="middle" x="93" y="-7" font-family="Helvetica,sans-Serif" font-size="10.00">QxtMailMessage::QxtMailMessage</text>
</a>
</g>
</g>
<!-- Node1&#45;&gt;Node3 -->
<g id="edge2_Node000001_Node000003" class="edge">
<title>Node1&#45;&gt;Node3</title>
<g id="a_edge2_Node000001_Node000003"><a xlink:title=" ">
<path fill="none" stroke="#63b8ff" d="M216.94,-19.56C206.66,-18.72 196.23,-17.86 186.01,-17.03"/>
<polygon fill="#63b8ff" stroke="#63b8ff" points="221.97,-19.97 216.81,-21.81 219.48,-19.77 216.99,-19.56 216.99,-19.56 216.99,-19.56 219.48,-19.77 217.18,-17.32 221.97,-19.97 221.97,-19.97"/>
</a>
</g>
</g>
</g>
</svg>
