<?xml version="1.0" encoding="UTF-8" standalone="no"?>
<!DOCTYPE svg PUBLIC "-//W3C//DTD SVG 1.1//EN"
 "http://www.w3.org/Graphics/SVG/1.1/DTD/svg11.dtd">
<!-- Generated by graphviz version 2.43.0 (0)
 -->
<!-- Title: VisualDeckStorageWidget::reapplySortAndFilters Pages: 1 -->
<svg width="330pt" height="182pt"
 viewBox="0.00 0.00 330.00 182.00" xmlns="http://www.w3.org/2000/svg" xmlns:xlink="http://www.w3.org/1999/xlink">
<g id="graph0" class="graph" transform="scale(1 1) rotate(0) translate(4 178)">
<title>VisualDeckStorageWidget::reapplySortAndFilters</title>
<!-- Node1 -->
<g id="Node000001" class="node">
<title>Node1</title>
<g id="a_Node000001"><a xlink:title=" ">
<polygon fill="#999999" stroke="#666666" points="143,-102 0,-102 0,-72 143,-72 143,-102"/>
<text text-anchor="start" x="8" y="-90" font-family="Helvetica,sans-Serif" font-size="10.00">VisualDeckStorageWidget</text>
<text text-anchor="middle" x="71.5" y="-79" font-family="Helvetica,sans-Serif" font-size="10.00">::reapplySortAndFilters</text>
</a>
</g>
</g>
<!-- Node2 -->
<g id="Node000002" class="node">
<title>Node2</title>
<g id="a_Node000002"><a xlink:href="../../d0/dfe/classVisualDeckStorageWidget.html#a615f9638739af4a832a8c2314d6b98dc" target="_top" xlink:title=" ">
<polygon fill="white" stroke="#666666" points="322,-174 179,-174 179,-144 322,-144 322,-174"/>
<text text-anchor="start" x="187" y="-162" font-family="Helvetica,sans-Serif" font-size="10.00">VisualDeckStorageWidget</text>
<text text-anchor="middle" x="250.5" y="-151" font-family="Helvetica,sans-Serif" font-size="10.00">::updateColorFilter</text>
</a>
</g>
</g>
<!-- Node1&#45;&gt;Node2 -->
<g id="edge1_Node000001_Node000002" class="edge">
<title>Node1&#45;&gt;Node2</title>
<g id="a_edge1_Node000001_Node000002"><a xlink:title=" ">
<path fill="none" stroke="#63b8ff" d="M103.85,-102.08C124.89,-111.96 153.34,-124.88 179,-135 185.13,-137.42 191.62,-139.83 198.08,-142.13"/>
<polygon fill="#63b8ff" stroke="#63b8ff" points="203,-143.87 197.54,-144.33 200.65,-143.04 198.29,-142.21 198.29,-142.21 198.29,-142.21 200.65,-143.04 199.04,-140.09 203,-143.87 203,-143.87"/>
</a>
</g>
</g>
<!-- Node3 -->
<g id="Node000003" class="node">
<title>Node3</title>
<g id="a_Node000003"><a xlink:href="../../d0/dfe/classVisualDeckStorageWidget.html#a56241cb8237ad682d77fde32c1365c43" target="_top" xlink:title=" ">
<polygon fill="white" stroke="#666666" points="322,-126 179,-126 179,-96 322,-96 322,-126"/>
<text text-anchor="start" x="187" y="-114" font-family="Helvetica,sans-Serif" font-size="10.00">VisualDeckStorageWidget</text>
<text text-anchor="middle" x="250.5" y="-103" font-family="Helvetica,sans-Serif" font-size="10.00">::updateSearchFilter</text>
</a>
</g>
</g>
<!-- Node1&#45;&gt;Node3 -->
<g id="edge2_Node000001_Node000003" class="edge">
<title>Node1&#45;&gt;Node3</title>
<g id="a_edge2_Node000001_Node000003"><a xlink:title=" ">
<path fill="none" stroke="#63b8ff" d="M143.22,-96.59C153.31,-97.96 163.73,-99.37 173.92,-100.75"/>
<polygon fill="#63b8ff" stroke="#63b8ff" points="178.89,-101.43 173.64,-102.98 176.42,-101.09 173.94,-100.75 173.94,-100.75 173.94,-100.75 176.42,-101.09 174.24,-98.52 178.89,-101.43 178.89,-101.43"/>
</a>
</g>
</g>
<!-- Node4 -->
<g id="Node000004" class="node">
<title>Node4</title>
<g id="a_Node000004"><a xlink:href="../../d0/dfe/classVisualDeckStorageWidget.html#a53592d9f1487124c2d9f27187ca62aa7" target="_top" xlink:title=" ">
<polygon fill="white" stroke="#666666" points="322,-78 179,-78 179,-48 322,-48 322,-78"/>
<text text-anchor="start" x="187" y="-66" font-family="Helvetica,sans-Serif" font-size="10.00">VisualDeckStorageWidget</text>
<text text-anchor="middle" x="250.5" y="-55" font-family="Helvetica,sans-Serif" font-size="10.00">::updateSortOrder</text>
</a>
</g>
</g>
<!-- Node1&#45;&gt;Node4 -->
<g id="edge3_Node000001_Node000004" class="edge">
<title>Node1&#45;&gt;Node4</title>
<g id="a_edge3_Node000001_Node000004"><a xlink:title=" ">
<path fill="none" stroke="#63b8ff" d="M143.22,-77.41C153.31,-76.04 163.73,-74.63 173.92,-73.25"/>
<polygon fill="#63b8ff" stroke="#63b8ff" points="178.89,-72.57 174.24,-75.48 176.42,-72.91 173.94,-73.25 173.94,-73.25 173.94,-73.25 176.42,-72.91 173.64,-71.02 178.89,-72.57 178.89,-72.57"/>
</a>
</g>
</g>
<!-- Node5 -->
<g id="Node000005" class="node">
<title>Node5</title>
<g id="a_Node000005"><a xlink:href="../../d0/dfe/classVisualDeckStorageWidget.html#af289826d94dab48a04182086a85f177b" target="_top" xlink:title=" ">
<polygon fill="white" stroke="#666666" points="322,-30 179,-30 179,0 322,0 322,-30"/>
<text text-anchor="start" x="187" y="-18" font-family="Helvetica,sans-Serif" font-size="10.00">VisualDeckStorageWidget</text>
<text text-anchor="middle" x="250.5" y="-7" font-family="Helvetica,sans-Serif" font-size="10.00">::updateTagFilter</text>
</a>
</g>
</g>
<!-- Node1&#45;&gt;Node5 -->
<g id="edge4_Node000001_Node000005" class="edge">
<title>Node1&#45;&gt;Node5</title>
<g id="a_edge4_Node000001_Node000005"><a xlink:title=" ">
<path fill="none" stroke="#63b8ff" d="M103.85,-71.92C124.89,-62.04 153.34,-49.12 179,-39 185.13,-36.58 191.62,-34.17 198.08,-31.87"/>
<polygon fill="#63b8ff" stroke="#63b8ff" points="203,-30.13 199.04,-33.91 200.65,-30.96 198.29,-31.79 198.29,-31.79 198.29,-31.79 200.65,-30.96 197.54,-29.67 203,-30.13 203,-30.13"/>
</a>
</g>
</g>
</g>
</svg>
