<?xml version="1.0" encoding="UTF-8" standalone="no"?>
<!DOCTYPE svg PUBLIC "-//W3C//DTD SVG 1.1//EN"
 "http://www.w3.org/Graphics/SVG/1.1/DTD/svg11.dtd">
<!-- Generated by graphviz version 2.43.0 (0)
 -->
<!-- Title: RNG_SFMT Pages: 1 -->
<svg width="166pt" height="159pt"
 viewBox="0.00 0.00 166.00 159.00" xmlns="http://www.w3.org/2000/svg" xmlns:xlink="http://www.w3.org/1999/xlink">

<svg id="main" version="1.1" xmlns="http://www.w3.org/2000/svg" xmlns:xlink="http://www.w3.org/1999/xlink" xml:space="preserve" onload="init(evt)">
<style type="text/css"><![CDATA[
.node, .edge {opacity: 0.7;}
.node.selected, .edge.selected {opacity: 1;}
.edge:hover path { stroke: red; }
.edge:hover polygon { stroke: red; fill: red; }
]]></style>
<script type="application/ecmascript" xlink:href="../../svg.min.js"/>
<svg id="graph" class="graph">
<g id="graph0" class="graph" transform="scale(1 1) rotate(0) translate(4 155)">
<title>RNG_SFMT</title>
<!-- Node1 -->
<g id="Node000001" class="node">
<title>Node1</title>
<g id="a_Node000001"><a xlink:title=" ">
<polygon fill="#999999" stroke="#666666" points="120.5,-19 49.5,-19 49.5,0 120.5,0 120.5,-19"/>
<text text-anchor="middle" x="85" y="-7" font-family="Helvetica,sans-Serif" font-size="10.00">RNG_SFMT</text>
</a>
</g>
</g>
<!-- Node2 -->
<g id="Node000002" class="node">
<title>Node2</title>
<g id="a_Node000002"><a xlink:href="../../de/dba/classRNG__Abstract.html" target="_top" xlink:title=" ">
<polygon fill="white" stroke="#666666" points="84,-85 0,-85 0,-66 84,-66 84,-85"/>
<text text-anchor="middle" x="42" y="-73" font-family="Helvetica,sans-Serif" font-size="10.00">RNG_Abstract</text>
</a>
</g>
</g>
<!-- Node2&#45;&gt;Node1 -->
<g id="edge1_Node000001_Node000002" class="edge">
<title>Node2&#45;&gt;Node1</title>
<g id="a_edge1_Node000001_Node000002"><a xlink:title=" ">
<path fill="none" stroke="#63b8ff" d="M50.7,-61.55C59.12,-49.02 71.66,-30.35 79.02,-19.41"/>
<polygon fill="#63b8ff" stroke="#63b8ff" points="47.8,-65.87 48.72,-60.46 49.19,-63.79 50.59,-61.72 50.59,-61.72 50.59,-61.72 49.19,-63.79 52.46,-62.97 47.8,-65.87 47.8,-65.87"/>
</a>
</g>
</g>
<!-- Node3 -->
<g id="Node000003" class="node">
<title>Node3</title>
<g id="a_Node000003"><a xlink:title=" ">
<polygon fill="white" stroke="#666666" points="70,-151 14,-151 14,-132 70,-132 70,-151"/>
<text text-anchor="middle" x="42" y="-139" font-family="Helvetica,sans-Serif" font-size="10.00">QObject</text>
</a>
</g>
</g>
<!-- Node3&#45;&gt;Node2 -->
<g id="edge2_Node000002_Node000003" class="edge">
<title>Node3&#45;&gt;Node2</title>
<g id="a_edge2_Node000002_Node000003"><a xlink:title=" ">
<path fill="none" stroke="#63b8ff" d="M42,-126.55C42,-114.04 42,-96.07 42,-85.41"/>
<polygon fill="#63b8ff" stroke="#63b8ff" points="42,-131.87 39.75,-126.87 42,-129.37 42,-126.87 42,-126.87 42,-126.87 42,-129.37 44.25,-126.87 42,-131.87 42,-131.87"/>
</a>
</g>
</g>
<!-- Node4 -->
<g id="Node000004" class="node">
<title>Node4</title>
<g id="a_Node000004"><a xlink:href="../../db/d02/structSFMT__T.html" target="_top" xlink:title=" ">
<polygon fill="white" stroke="#666666" points="157.5,-85 102.5,-85 102.5,-66 157.5,-66 157.5,-85"/>
<text text-anchor="middle" x="130" y="-73" font-family="Helvetica,sans-Serif" font-size="10.00">SFMT_T</text>
</a>
</g>
</g>
<!-- Node4&#45;&gt;Node1 -->
<g id="edge3_Node000001_Node000004" class="edge">
<title>Node4&#45;&gt;Node1</title>
<g id="a_edge3_Node000001_Node000004"><a xlink:title=" ">
<path fill="none" stroke="#9a32cd" stroke-dasharray="5,2" d="M120.9,-61.55C112.08,-49.02 98.96,-30.35 91.26,-19.41"/>
<polygon fill="#9a32cd" stroke="#9a32cd" points="123.93,-65.87 119.21,-63.07 122.49,-63.82 121.06,-61.78 121.06,-61.78 121.06,-61.78 122.49,-63.82 122.9,-60.48 123.93,-65.87 123.93,-65.87"/>
</a>
</g>
<text text-anchor="middle" x="124" y="-40" font-family="Helvetica,sans-Serif" font-size="10.00" fill="grey"> sfmt</text>
</g>
<!-- Node5 -->
<g id="Node000005" class="node">
<title>Node5</title>
<g id="a_Node000005"><a xlink:href="../../df/db1/unionW128__T.html" target="_top" xlink:title=" ">
<polygon fill="white" stroke="#666666" points="158,-151 102,-151 102,-132 158,-132 158,-151"/>
<text text-anchor="middle" x="130" y="-139" font-family="Helvetica,sans-Serif" font-size="10.00">W128_T</text>
</a>
</g>
</g>
<!-- Node5&#45;&gt;Node4 -->
<g id="edge4_Node000004_Node000005" class="edge">
<title>Node5&#45;&gt;Node4</title>
<g id="a_edge4_Node000004_Node000005"><a xlink:title=" ">
<path fill="none" stroke="#9a32cd" stroke-dasharray="5,2" d="M130,-126.55C130,-114.04 130,-96.07 130,-85.41"/>
<polygon fill="#9a32cd" stroke="#9a32cd" points="130,-131.87 127.75,-126.87 130,-129.37 130,-126.87 130,-126.87 130,-126.87 130,-129.37 132.25,-126.87 130,-131.87 130,-131.87"/>
</a>
</g>
<text text-anchor="middle" x="144" y="-106" font-family="Helvetica,sans-Serif" font-size="10.00" fill="grey"> state</text>
</g>
</g>
</svg>
</svg>

<style type='text/css'>
<![CDATA[
[data-mouse-over-selected='false'] { opacity: 0.7; }
[data-mouse-over-selected='true']  { opacity: 1.0; }
]]>
</style>
<script type="application/ecmascript"><![CDATA[
document.addEventListener('DOMContentLoaded', (event) => {
  highlightEdges();
  highlightAdjacentNodes();
});
]]></script>
</svg>
