<?xml version="1.0" encoding="UTF-8" standalone="no"?>
<!DOCTYPE svg PUBLIC "-//W3C//DTD SVG 1.1//EN"
 "http://www.w3.org/Graphics/SVG/1.1/DTD/svg11.dtd">
<!-- Generated by graphviz version 2.43.0 (0)
 -->
<!-- Title: ArchidektApiResponseDeckListingsDisplayWidget Pages: 1 -->
<svg width="236pt" height="310pt"
 viewBox="0.00 0.00 235.50 310.00" xmlns="http://www.w3.org/2000/svg" xmlns:xlink="http://www.w3.org/1999/xlink">

<svg id="main" version="1.1" xmlns="http://www.w3.org/2000/svg" xmlns:xlink="http://www.w3.org/1999/xlink" xml:space="preserve">

<style type="text/css"><![CDATA[
.node, .edge {opacity: 0.7;}
.node.selected, .edge.selected {opacity: 1;}
.edge:hover path { stroke: red; }
.edge:hover polygon { stroke: red; fill: red; }
]]></style>
<script type="application/ecmascript" xlink:href="../../svg.min.js"/>
<svg id="graph" class="graph">
<g id="graph0" class="graph" transform="scale(1 1) rotate(0) translate(4 306)">
<title>ArchidektApiResponseDeckListingsDisplayWidget</title>
<!-- Node1 -->
<g id="Node000001" class="node">
<title>Node1</title>
<g id="a_Node000001"><a xlink:title="Displays a scrollable horizontal list of Archidekt deck listings with dynamic card sizing.">
<polygon fill="#999999" stroke="#666666" points="151,-30 0,-30 0,0 151,0 151,-30"/>
<text text-anchor="start" x="8" y="-18" font-family="Helvetica,sans-Serif" font-size="10.00">ArchidektApiResponseDeck</text>
<text text-anchor="middle" x="75.5" y="-7" font-family="Helvetica,sans-Serif" font-size="10.00">ListingsDisplayWidget</text>
</a>
</g>
</g>
<!-- Node2 -->
<g id="Node000002" class="node">
<title>Node2</title>
<g id="a_Node000002"><a xlink:title=" ">
<polygon fill="white" stroke="#666666" points="77,-246 18,-246 18,-227 77,-227 77,-246"/>
<text text-anchor="middle" x="47.5" y="-234" font-family="Helvetica,sans-Serif" font-size="10.00">QWidget</text>
</a>
</g>
</g>
<!-- Node2&#45;&gt;Node1 -->
<g id="edge1_Node000001_Node000002" class="edge">
<title>Node2&#45;&gt;Node1</title>
<g id="a_edge1_Node000001_Node000002"><a xlink:title=" ">
<path fill="none" stroke="#63b8ff" d="M41.77,-221.7C31.32,-194.51 11.65,-132.34 27.5,-83 34.11,-62.43 49.62,-42.81 61.23,-30.19"/>
<polygon fill="#63b8ff" stroke="#63b8ff" points="43.72,-226.66 39.8,-222.83 42.81,-224.34 41.89,-222.01 41.89,-222.01 41.89,-222.01 42.81,-224.34 43.99,-221.18 43.72,-226.66 43.72,-226.66"/>
</a>
</g>
</g>
<!-- Node3 -->
<g id="Node000003" class="node">
<title>Node3</title>
<g id="a_Node000003"><a xlink:href="../../df/d47/classCardSizeWidget.html" target="_top" xlink:title="A widget for adjusting card sizes using a slider.">
<polygon fill="white" stroke="#666666" points="130.5,-102 36.5,-102 36.5,-83 130.5,-83 130.5,-102"/>
<text text-anchor="middle" x="83.5" y="-90" font-family="Helvetica,sans-Serif" font-size="10.00">CardSizeWidget</text>
</a>
</g>
</g>
<!-- Node2&#45;&gt;Node3 -->
<g id="edge3_Node000003_Node000002" class="edge">
<title>Node2&#45;&gt;Node3</title>
<g id="a_edge3_Node000003_Node000002"><a xlink:title=" ">
<path fill="none" stroke="#63b8ff" d="M51.01,-221.64C58.4,-192.51 75.34,-125.7 81.34,-102.02"/>
<polygon fill="#63b8ff" stroke="#63b8ff" points="49.75,-226.62 48.8,-221.22 50.37,-224.19 50.98,-221.77 50.98,-221.77 50.98,-221.77 50.37,-224.19 53.16,-222.32 49.75,-226.62 49.75,-226.62"/>
</a>
</g>
</g>
<!-- Node4 -->
<g id="Node000004" class="node">
<title>Node4</title>
<g id="a_Node000004"><a xlink:href="../../d5/d53/classFlowWidget.html" target="_top" xlink:title=" ">
<polygon fill="white" stroke="#666666" points="157.5,-174 83.5,-174 83.5,-155 157.5,-155 157.5,-174"/>
<text text-anchor="middle" x="120.5" y="-162" font-family="Helvetica,sans-Serif" font-size="10.00">FlowWidget</text>
</a>
</g>
</g>
<!-- Node2&#45;&gt;Node4 -->
<g id="edge5_Node000004_Node000002" class="edge">
<title>Node2&#45;&gt;Node4</title>
<g id="a_edge5_Node000004_Node000002"><a xlink:title=" ">
<path fill="none" stroke="#63b8ff" d="M60.33,-223.19C75,-209.13 98.63,-186.47 111.48,-174.15"/>
<polygon fill="#63b8ff" stroke="#63b8ff" points="56.45,-226.92 58.5,-221.83 58.26,-225.19 60.06,-223.46 60.06,-223.46 60.06,-223.46 58.26,-225.19 61.62,-225.08 56.45,-226.92 56.45,-226.92"/>
</a>
</g>
</g>
<!-- Node3&#45;&gt;Node1 -->
<g id="edge2_Node000001_Node000003" class="edge">
<title>Node3&#45;&gt;Node1</title>
<g id="a_edge2_Node000001_Node000003"><a xlink:title=" ">
<path fill="none" stroke="#9a32cd" stroke-dasharray="5,2" d="M79.24,-77.87C78.14,-73.78 77.09,-69.24 76.5,-65 74.87,-53.37 74.71,-40.04 74.9,-30.22"/>
<polygon fill="#9a32cd" stroke="#9a32cd" points="80.63,-82.77 77.1,-78.58 79.95,-80.37 79.26,-77.97 79.26,-77.97 79.26,-77.97 79.95,-80.37 81.43,-77.35 80.63,-82.77 80.63,-82.77"/>
</a>
</g>
<text text-anchor="start" x="79.5" y="-53.5" font-family="Helvetica,sans-Serif" font-size="10.00" fill="grey">cardSizeSlider</text>
</g>
<!-- Node4&#45;&gt;Node1 -->
<g id="edge8_Node000001_Node000004" class="edge">
<title>Node4&#45;&gt;Node1</title>
<g id="a_edge8_Node000001_Node000004"><a xlink:title=" ">
<path fill="none" stroke="#9a32cd" stroke-dasharray="5,2" d="M140.09,-151.81C145.06,-147.79 149.77,-142.81 152.5,-137 169.33,-101.2 174.46,-80.9 152.5,-48 147.44,-40.41 140.2,-34.62 132.17,-30.2"/>
<polygon fill="#9a32cd" stroke="#9a32cd" points="135.88,-154.95 138.54,-150.16 137.89,-153.46 139.89,-151.96 139.89,-151.96 139.89,-151.96 137.89,-153.46 141.24,-153.76 135.88,-154.95 135.88,-154.95"/>
</a>
</g>
<text text-anchor="start" x="170" y="-89.5" font-family="Helvetica,sans-Serif" font-size="10.00" fill="grey">flowWidget</text>
</g>
<!-- Node4&#45;&gt;Node3 -->
<g id="edge4_Node000003_Node000004" class="edge">
<title>Node4&#45;&gt;Node3</title>
<g id="a_edge4_Node000003_Node000004"><a xlink:title=" ">
<path fill="none" stroke="#9a32cd" stroke-dasharray="5,2" d="M103.82,-151.59C99.16,-147.47 94.55,-142.5 91.5,-137 85.39,-125.99 83.83,-111.23 83.49,-102.05"/>
<polygon fill="#9a32cd" stroke="#9a32cd" points="107.71,-154.84 102.43,-153.36 105.79,-153.23 103.87,-151.63 103.87,-151.63 103.87,-151.63 105.79,-153.23 105.31,-149.9 107.71,-154.84 107.71,-154.84"/>
</a>
</g>
<text text-anchor="start" x="95" y="-125.5" font-family="Helvetica,sans-Serif" font-size="10.00" fill="grey">flowWidget</text>
</g>
<!-- Node5 -->
<g id="Node000005" class="node">
<title>Node5</title>
<g id="a_Node000005"><a xlink:href="../../de/d8b/classFlowLayout.html" target="_top" xlink:title=" ">
<polygon fill="white" stroke="#666666" points="168,-246 95,-246 95,-227 168,-227 168,-246"/>
<text text-anchor="middle" x="131.5" y="-234" font-family="Helvetica,sans-Serif" font-size="10.00">FlowLayout</text>
</a>
</g>
</g>
<!-- Node5&#45;&gt;Node4 -->
<g id="edge6_Node000004_Node000005" class="edge">
<title>Node5&#45;&gt;Node4</title>
<g id="a_edge6_Node000004_Node000005"><a xlink:title=" ">
<path fill="none" stroke="#9a32cd" stroke-dasharray="5,2" d="M129.33,-221.72C127.11,-207.59 123.73,-186.05 121.86,-174.15"/>
<polygon fill="#9a32cd" stroke="#9a32cd" points="130.15,-226.92 127.15,-222.33 129.76,-224.45 129.37,-221.98 129.37,-221.98 129.37,-221.98 129.76,-224.45 131.6,-221.63 130.15,-226.92 130.15,-226.92"/>
</a>
</g>
<text text-anchor="start" x="129.5" y="-197.5" font-family="Helvetica,sans-Serif" font-size="10.00" fill="grey">flowLayout</text>
</g>
<!-- Node6 -->
<g id="Node000006" class="node">
<title>Node6</title>
<g id="a_Node000006"><a xlink:title=" ">
<polygon fill="white" stroke="#666666" points="160,-302 103,-302 103,-283 160,-283 160,-302"/>
<text text-anchor="middle" x="131.5" y="-290" font-family="Helvetica,sans-Serif" font-size="10.00">QLayout</text>
</a>
</g>
</g>
<!-- Node6&#45;&gt;Node5 -->
<g id="edge7_Node000005_Node000006" class="edge">
<title>Node6&#45;&gt;Node5</title>
<g id="a_edge7_Node000005_Node000006"><a xlink:title=" ">
<path fill="none" stroke="#63b8ff" d="M131.5,-277.46C131.5,-267.59 131.5,-254.69 131.5,-246.25"/>
<polygon fill="#63b8ff" stroke="#63b8ff" points="131.5,-282.58 129.25,-277.58 131.5,-280.08 131.5,-277.58 131.5,-277.58 131.5,-277.58 131.5,-280.08 133.75,-277.58 131.5,-282.58 131.5,-282.58"/>
</a>
</g>
</g>
</g>
</svg>
</svg>

<style type='text/css'>
<![CDATA[
[data-mouse-over-selected='false'] { opacity: 0.7; }
[data-mouse-over-selected='true']  { opacity: 1.0; }
]]>
</style>
<script type="application/ecmascript"><![CDATA[
document.addEventListener('DOMContentLoaded', (event) => {
  highlightEdges();
  highlightAdjacentNodes();
});
]]></script>
</svg>
