<?xml version="1.0" encoding="UTF-8" standalone="no"?>
<!DOCTYPE svg PUBLIC "-//W3C//DTD SVG 1.1//EN"
 "http://www.w3.org/Graphics/SVG/1.1/DTD/svg11.dtd">
<!-- Generated by graphviz version 2.43.0 (0)
 -->
<!-- Title: libcockatrice_card/libcockatrice/card/database/card_database_loader.h Pages: 1 -->
<!--zoomable 192 -->

<svg id="main" version="1.1" xmlns="http://www.w3.org/2000/svg" xmlns:xlink="http://www.w3.org/1999/xlink" xml:space="preserve" onload="init(evt)">
<style type="text/css"><![CDATA[
.node, .edge {opacity: 0.7;}
.node.selected, .edge.selected {opacity: 1;}
.edge:hover path { stroke: red; }
.edge:hover polygon { stroke: red; fill: red; }
]]></style>

<defs>
  <circle id="rim" cx="0" cy="0" r="7"/>
  <circle id="rim2" cx="0" cy="0" r="3.5"/>
  <g id="zoomPlus">
    <use xlink:href="#rim" fill="#404040"><set attributeName="fill" to="#808080" begin="zoomplus.mouseover" end="zoomplus.mouseout"/></use>
    <path d="M-4,0h8M0,-4v8" fill="none" stroke="white" stroke-width="1.5" pointer-events="none"/>
  </g>
  <g id="zoomMin">
    <use xlink:href="#rim" fill="#404040"><set attributeName="fill" to="#808080" begin="zoomminus.mouseover" end="zoomminus.mouseout"/></use>
    <path d="M-4,0h8" fill="none" stroke="white" stroke-width="1.5" pointer-events="none"/>
  </g>
  <g id="arrowUp" transform="translate(30 24)">
    <use xlink:href="#rim"/>
    <path pointer-events="none" fill="none" stroke="white" stroke-width="1.5" d="M0,-3.0v7 M-2.5,-0.5L0,-3.0L2.5,-0.5"/>
  </g>
  <g id="arrowRight" transform="rotate(90) translate(36 -43)">
    <use xlink:href="#rim"/>
    <path pointer-events="none" fill="none" stroke="white" stroke-width="1.5" d="M0,-3.0v7 M-2.5,-0.5L0,-3.0L2.5,-0.5"/>
  </g>
  <g id="arrowDown" transform="rotate(180) translate(-30 -48)">
    <use xlink:href="#rim"/>
    <path pointer-events="none" fill="none" stroke="white" stroke-width="1.5" d="M0,-3.0v7 M-2.5,-0.5L0,-3.0L2.5,-0.5"/>
  </g>
  <g id="arrowLeft" transform="rotate(270) translate(-36 17)">
    <use xlink:href="#rim"/>
    <path pointer-events="none" fill="none" stroke="white" stroke-width="1.5" d="M0,-3.0v7 M-2.5,-0.5L0,-3.0L2.5,-0.5"/>
  </g>
  <g id="resetDef">
    <use xlink:href="#rim2" fill="#404040"><set attributeName="fill" to="#808080" begin="reset.mouseover" end="reset.mouseout"/></use>
  </g>
</defs>
<script type="application/ecmascript">
var viewWidth = 635;
var viewHeight = 192;
var sectionId = 'dynsection-0';
</script>
<script type="application/ecmascript" xlink:href="../../svg.min.js"/>
<svg id="graph" class="graph">
<g id="viewport">
<title>libcockatrice_card/libcockatrice/card/database/card_database_loader.h</title>
<!-- Node1 -->
<g id="Node000001" class="node">
<title>Node1</title>
<g id="a_Node000001"><a xlink:title="The CardDatabaseLoader is responsible for discovering, loading, and saving card databases from files ...">
<polygon fill="#999999" stroke="#666666" points="322,-184 183,-184 183,-132 322,-132 322,-184"/>
<text text-anchor="start" x="191" y="-172" font-family="Helvetica,sans-Serif" font-size="10.00">libcockatrice_card</text>
<text text-anchor="start" x="191" y="-161" font-family="Helvetica,sans-Serif" font-size="10.00">/libcockatrice/card</text>
<text text-anchor="start" x="191" y="-150" font-family="Helvetica,sans-Serif" font-size="10.00">/database/card_database</text>
<text text-anchor="middle" x="252.5" y="-139" font-family="Helvetica,sans-Serif" font-size="10.00">_loader.h</text>
</a>
</g>
</g>
<!-- Node2 -->
<g id="Node000002" class="node">
<title>Node2</title>
<g id="a_Node000002"><a xlink:title=" ">
<polygon fill="#e0e0e0" stroke="#999999" points="81,-85 0,-85 0,-66 81,-66 81,-85"/>
<text text-anchor="middle" x="40.5" y="-73" font-family="Helvetica,sans-Serif" font-size="10.00">QBasicMutex</text>
</a>
</g>
</g>
<!-- Node1&#45;&gt;Node2 -->
<g id="edge1_Node000001_Node000002" class="edge">
<title>Node1&#45;&gt;Node2</title>
<g id="a_edge1_Node000001_Node000002"><a xlink:title=" ">
<path fill="none" stroke="#63b8ff" d="M184.58,-131.94C155.28,-121.03 120.65,-108.02 89.5,-96 82.14,-93.16 74.19,-90.02 66.88,-87.11"/>
<polygon fill="#63b8ff" stroke="#63b8ff" points="61.93,-85.14 67.41,-84.9 64.25,-86.07 66.57,-86.99 66.57,-86.99 66.57,-86.99 64.25,-86.07 65.74,-89.08 61.93,-85.14 61.93,-85.14"/>
</a>
</g>
</g>
<!-- Node3 -->
<g id="Node000003" class="node">
<title>Node3</title>
<g id="a_Node000003"><a xlink:title=" ">
<polygon fill="#e0e0e0" stroke="#999999" points="140,-85 99,-85 99,-66 140,-66 140,-85"/>
<text text-anchor="middle" x="119.5" y="-73" font-family="Helvetica,sans-Serif" font-size="10.00">QList</text>
</a>
</g>
</g>
<!-- Node1&#45;&gt;Node3 -->
<g id="edge2_Node000001_Node000003" class="edge">
<title>Node1&#45;&gt;Node3</title>
<g id="a_edge2_Node000001_Node000003"><a xlink:title=" ">
<path fill="none" stroke="#63b8ff" d="M208.37,-131.92C189.74,-121.12 167.9,-108.2 148.5,-96 144.43,-93.44 140.09,-90.59 136.05,-87.88"/>
<polygon fill="#63b8ff" stroke="#63b8ff" points="131.81,-85.02 137.21,-85.95 133.88,-86.42 135.95,-87.82 135.95,-87.82 135.95,-87.82 133.88,-86.42 134.69,-89.68 131.81,-85.02 131.81,-85.02"/>
</a>
</g>
</g>
<!-- Node4 -->
<g id="Node000004" class="node">
<title>Node4</title>
<g id="a_Node000004"><a xlink:title=" ">
<polygon fill="#e0e0e0" stroke="#999999" points="265,-85 158,-85 158,-66 265,-66 265,-85"/>
<text text-anchor="middle" x="211.5" y="-73" font-family="Helvetica,sans-Serif" font-size="10.00">QLoggingCategory</text>
</a>
</g>
</g>
<!-- Node1&#45;&gt;Node4 -->
<g id="edge3_Node000001_Node000004" class="edge">
<title>Node1&#45;&gt;Node4</title>
<g id="a_edge3_Node000001_Node000004"><a xlink:title=" ">
<path fill="none" stroke="#63b8ff" d="M239.75,-131.97C232.68,-118.08 224.16,-101.35 218.33,-89.92"/>
<polygon fill="#63b8ff" stroke="#63b8ff" points="216.02,-85.37 220.29,-88.8 217.15,-87.6 218.29,-89.82 218.29,-89.82 218.29,-89.82 217.15,-87.6 216.28,-90.85 216.02,-85.37 216.02,-85.37"/>
</a>
</g>
</g>
<!-- Node5 -->
<g id="Node000005" class="node">
<title>Node5</title>
<g id="a_Node000005"><a xlink:title=" ">
<polygon fill="#e0e0e0" stroke="#999999" points="370.5,-19 314.5,-19 314.5,0 370.5,0 370.5,-19"/>
<text text-anchor="middle" x="342.5" y="-7" font-family="Helvetica,sans-Serif" font-size="10.00">QObject</text>
</a>
</g>
</g>
<!-- Node1&#45;&gt;Node5 -->
<g id="edge4_Node000001_Node000005" class="edge">
<title>Node1&#45;&gt;Node5</title>
<g id="a_edge4_Node000001_Node000005"><a xlink:title=" ">
<path fill="none" stroke="#63b8ff" d="M266.87,-131.59C278.77,-110.79 296.29,-80.72 312.5,-55 319.21,-44.36 327.18,-32.57 333.22,-23.8"/>
<polygon fill="#63b8ff" stroke="#63b8ff" points="336.36,-19.26 335.37,-24.65 334.94,-21.32 333.52,-23.37 333.52,-23.37 333.52,-23.37 334.94,-21.32 331.67,-22.09 336.36,-19.26 336.36,-19.26"/>
</a>
</g>
</g>
<!-- Node6 -->
<g id="Node000006" class="node">
<title>Node6</title>
<g id="a_Node000006"><a xlink:href="../../d0/d7f/interface__card__database__path__provider_8h.html" target="_top" xlink:title=" ">
<polygon fill="white" stroke="#666666" points="461.5,-96 321.5,-96 321.5,-55 461.5,-55 461.5,-96"/>
<text text-anchor="start" x="329.5" y="-84" font-family="Helvetica,sans-Serif" font-size="10.00">libcockatrice/interfaces</text>
<text text-anchor="start" x="329.5" y="-73" font-family="Helvetica,sans-Serif" font-size="10.00">/interface_card_database</text>
<text text-anchor="middle" x="391.5" y="-62" font-family="Helvetica,sans-Serif" font-size="10.00">_path_provider.h</text>
</a>
</g>
</g>
<!-- Node1&#45;&gt;Node6 -->
<g id="edge5_Node000001_Node000006" class="edge">
<title>Node1&#45;&gt;Node6</title>
<g id="a_edge5_Node000001_Node000006"><a xlink:title=" ">
<path fill="none" stroke="#63b8ff" d="M295.72,-131.97C314.09,-121.33 335.32,-109.03 353.13,-98.72"/>
<polygon fill="#63b8ff" stroke="#63b8ff" points="357.58,-96.15 354.38,-100.6 355.41,-97.4 353.25,-98.65 353.25,-98.65 353.25,-98.65 355.41,-97.4 352.12,-96.7 357.58,-96.15 357.58,-96.15"/>
</a>
</g>
</g>
<!-- Node7 -->
<g id="Node000007" class="node">
<title>Node7</title>
<g id="a_Node000007"><a xlink:href="../../d9/da4/interface__card__preference__provider_8h.html" target="_top" xlink:title=" ">
<polygon fill="white" stroke="#666666" points="627,-96 480,-96 480,-55 627,-55 627,-96"/>
<text text-anchor="start" x="488" y="-84" font-family="Helvetica,sans-Serif" font-size="10.00">libcockatrice/interfaces</text>
<text text-anchor="start" x="488" y="-73" font-family="Helvetica,sans-Serif" font-size="10.00">/interface_card_preference</text>
<text text-anchor="middle" x="553.5" y="-62" font-family="Helvetica,sans-Serif" font-size="10.00">_provider.h</text>
</a>
</g>
</g>
<!-- Node1&#45;&gt;Node7 -->
<g id="edge7_Node000001_Node000007" class="edge">
<title>Node1&#45;&gt;Node7</title>
<g id="a_edge7_Node000001_Node000007"><a xlink:title=" ">
<path fill="none" stroke="#63b8ff" d="M322.31,-138.33C368.15,-126.07 428.16,-110.02 475.56,-97.34"/>
<polygon fill="#63b8ff" stroke="#63b8ff" points="480.4,-96.05 476.15,-99.52 477.98,-96.7 475.57,-97.34 475.57,-97.34 475.57,-97.34 477.98,-96.7 474.98,-95.17 480.4,-96.05 480.4,-96.05"/>
</a>
</g>
</g>
<!-- Node6&#45;&gt;Node5 -->
<g id="edge6_Node000006_Node000005" class="edge">
<title>Node6&#45;&gt;Node5</title>
<g id="a_edge6_Node000006_Node000005"><a xlink:title=" ">
<path fill="none" stroke="#63b8ff" d="M376.53,-54.95C368.7,-44.71 359.32,-32.47 352.39,-23.42"/>
<polygon fill="#63b8ff" stroke="#63b8ff" points="349.21,-19.26 354.03,-21.86 350.73,-21.25 352.25,-23.23 352.25,-23.23 352.25,-23.23 350.73,-21.25 350.46,-24.6 349.21,-19.26 349.21,-19.26"/>
</a>
</g>
</g>
<!-- Node8 -->
<g id="Node000008" class="node">
<title>Node8</title>
<g id="a_Node000008"><a xlink:title=" ">
<polygon fill="#e0e0e0" stroke="#999999" points="580,-19 527,-19 527,0 580,0 580,-19"/>
<text text-anchor="middle" x="553.5" y="-7" font-family="Helvetica,sans-Serif" font-size="10.00">QString</text>
</a>
</g>
</g>
<!-- Node7&#45;&gt;Node8 -->
<g id="edge8_Node000007_Node000008" class="edge">
<title>Node7&#45;&gt;Node8</title>
<g id="a_edge8_Node000007_Node000008"><a xlink:title=" ">
<path fill="none" stroke="#63b8ff" d="M553.5,-54.95C553.5,-45.09 553.5,-33.35 553.5,-24.42"/>
<polygon fill="#63b8ff" stroke="#63b8ff" points="553.5,-19.26 555.75,-24.26 553.5,-21.76 553.5,-24.26 553.5,-24.26 553.5,-24.26 553.5,-21.76 551.25,-24.26 553.5,-19.26 553.5,-19.26"/>
</a>
</g>
</g>
</g>
</svg>

<g id="navigator" transform="translate(0 0)" fill="#404254">
  <rect fill="#f2f5e9" fill-opacity="0.5" stroke="#606060" stroke-width=".5" x="0" y="0" width="60" height="60"/>
  <use id="zoomplus" xlink:href="#zoomPlus" x="17" y="9" onmousedown="handleZoom(evt,'in')"/>
  <use id="zoomminus" xlink:href="#zoomMin" x="42" y="9" onmousedown="handleZoom(evt,'out')"/>
  <use id="reset" xlink:href="#resetDef" x="30" y="36" onmousedown="handleReset()"/>
   <use id="arrowup" xlink:href="#arrowUp" x="0" y="0" onmousedown="handlePan(0,-1)"/>
  <use id="arrowright" xlink:href="#arrowRight" x="0" y="0" onmousedown="handlePan(1,0)"/>
  <use id="arrowdown" xlink:href="#arrowDown" x="0" y="0" onmousedown="handlePan(0,1)"/>
  <use id="arrowleft" xlink:href="#arrowLeft" x="0" y="0" onmousedown="handlePan(-1,0)"/>
</g>
<svg viewBox="0 0 15 15" width="100%" height="30px" preserveAspectRatio="xMaxYMin meet">
 <g id="arrow_out" transform="scale(0.3 0.3)">
  <a xlink:href="card__database__loader_8h__incl_org.svg" target="_base">
   <rect id="button" ry="5" rx="5" y="6" x="6" height="38" width="38"
        fill="#f2f5e9" fill-opacity="0.5" stroke="#606060" stroke-width="1.0"/>
   <path id="arrow"
     d="M 11.500037,31.436501 C 11.940474,20.09759 22.043105,11.32322 32.158766,21.979434 L 37.068811,17.246167 C 37.068811,17.246167 37.088388,32 37.088388,32 L 22.160133,31.978069 C 22.160133,31.978069 26.997745,27.140456 26.997745,27.140456 C 18.528582,18.264221 13.291696,25.230495 11.500037,31.436501 z"
     style="fill:#404040;"/>
  </a>
 </g>
</svg>

<style type='text/css'>
<![CDATA[
[data-mouse-over-selected='false'] { opacity: 0.7; }
[data-mouse-over-selected='true']  { opacity: 1.0; }
]]>
</style>
<script type="application/ecmascript"><![CDATA[
document.addEventListener('DOMContentLoaded', (event) => {
  highlightEdges();
  highlightAdjacentNodes();
});
]]></script>
</svg>
