<?xml version="1.0" encoding="UTF-8" standalone="no"?>
<!DOCTYPE svg PUBLIC "-//W3C//DTD SVG 1.1//EN"
 "http://www.w3.org/Graphics/SVG/1.1/DTD/svg11.dtd">
<!-- Generated by graphviz version 2.43.0 (0)
 -->
<!-- Title: cockatrice/src/game_graphics/zones/view_zone.h Pages: 1 -->
<svg width="1281pt" height="126pt"
 viewBox="0.00 0.00 1281.00 126.00" xmlns="http://www.w3.org/2000/svg" xmlns:xlink="http://www.w3.org/1999/xlink">
<g id="graph0" class="graph" transform="scale(1 1) rotate(0) translate(4 122)">
<title>cockatrice/src/game_graphics/zones/view_zone.h</title>
<!-- Node1 -->
<g id="Node000001" class="node">
<title>Node1</title>
<g id="a_Node000001"><a xlink:title=" ">
<polygon fill="#999999" stroke="#666666" points="709,-118 588,-118 588,-77 709,-77 709,-118"/>
<text text-anchor="start" x="596" y="-106" font-family="Helvetica,sans-Serif" font-size="10.00">cockatrice/src/game</text>
<text text-anchor="start" x="596" y="-95" font-family="Helvetica,sans-Serif" font-size="10.00">_graphics/zones/view</text>
<text text-anchor="middle" x="648.5" y="-84" font-family="Helvetica,sans-Serif" font-size="10.00">_zone.h</text>
</a>
</g>
</g>
<!-- Node2 -->
<g id="Node000002" class="node">
<title>Node2</title>
<g id="a_Node000002"><a xlink:href="../../d9/def/player__event__handler_8cpp.html" target="_top" xlink:title=" ">
<polygon fill="white" stroke="#666666" points="117,-41 0,-41 0,0 117,0 117,-41"/>
<text text-anchor="start" x="8" y="-29" font-family="Helvetica,sans-Serif" font-size="10.00">cockatrice/src/game</text>
<text text-anchor="start" x="8" y="-18" font-family="Helvetica,sans-Serif" font-size="10.00">/player/player_event</text>
<text text-anchor="middle" x="58.5" y="-7" font-family="Helvetica,sans-Serif" font-size="10.00">_handler.cpp</text>
</a>
</g>
</g>
<!-- Node1&#45;&gt;Node2 -->
<g id="edge1_Node000001_Node000002" class="edge">
<title>Node1&#45;&gt;Node2</title>
<g id="a_edge1_Node000001_Node000002"><a xlink:title=" ">
<path fill="none" stroke="#63b8ff" d="M582.72,-93.27C483.03,-87.54 288.1,-73.03 125.5,-41 122.77,-40.46 119.98,-39.86 117.18,-39.22"/>
<polygon fill="#63b8ff" stroke="#63b8ff" points="587.98,-93.57 582.86,-95.53 585.48,-93.43 582.98,-93.29 582.98,-93.29 582.98,-93.29 585.48,-93.43 583.11,-91.04 587.98,-93.57 587.98,-93.57"/>
</a>
</g>
</g>
<!-- Node3 -->
<g id="Node000003" class="node">
<title>Node3</title>
<g id="a_Node000003"><a xlink:href="../../d2/d2b/card__zone__logic_8cpp.html" target="_top" xlink:title=" ">
<polygon fill="white" stroke="#666666" points="284,-35.5 135,-35.5 135,-5.5 284,-5.5 284,-35.5"/>
<text text-anchor="start" x="143" y="-23.5" font-family="Helvetica,sans-Serif" font-size="10.00">cockatrice/src/game</text>
<text text-anchor="middle" x="209.5" y="-12.5" font-family="Helvetica,sans-Serif" font-size="10.00">/zones/card_zone_logic.cpp</text>
</a>
</g>
</g>
<!-- Node1&#45;&gt;Node3 -->
<g id="edge2_Node000001_Node000003" class="edge">
<title>Node1&#45;&gt;Node3</title>
<g id="a_edge2_Node000001_Node000003"><a xlink:title=" ">
<path fill="none" stroke="#63b8ff" d="M582.9,-87.71C511.47,-77.79 393.97,-60.49 293.5,-41 285.12,-39.38 276.31,-37.51 267.67,-35.58"/>
<polygon fill="#63b8ff" stroke="#63b8ff" points="587.97,-88.41 582.7,-89.95 585.49,-88.07 583.01,-87.72 583.01,-87.72 583.01,-87.72 585.49,-88.07 583.32,-85.49 587.97,-88.41 587.97,-88.41"/>
</a>
</g>
</g>
<!-- Node4 -->
<g id="Node000004" class="node">
<title>Node4</title>
<g id="a_Node000004"><a xlink:href="../../d4/d93/card__drag__item_8cpp.html" target="_top" xlink:title=" ">
<polygon fill="white" stroke="#666666" points="420.5,-41 302.5,-41 302.5,0 420.5,0 420.5,-41"/>
<text text-anchor="start" x="310.5" y="-29" font-family="Helvetica,sans-Serif" font-size="10.00">cockatrice/src/game</text>
<text text-anchor="start" x="310.5" y="-18" font-family="Helvetica,sans-Serif" font-size="10.00">_graphics/board/card</text>
<text text-anchor="middle" x="361.5" y="-7" font-family="Helvetica,sans-Serif" font-size="10.00">_drag_item.cpp</text>
</a>
</g>
</g>
<!-- Node1&#45;&gt;Node4 -->
<g id="edge3_Node000001_Node000004" class="edge">
<title>Node1&#45;&gt;Node4</title>
<g id="a_edge3_Node000001_Node000004"><a xlink:title=" ">
<path fill="none" stroke="#63b8ff" d="M582.98,-80.46C539.39,-69.65 480.91,-54.88 429.5,-41 426.65,-40.23 423.74,-39.44 420.81,-38.62"/>
<polygon fill="#63b8ff" stroke="#63b8ff" points="587.95,-81.69 582.55,-82.67 585.52,-81.09 583.09,-80.49 583.09,-80.49 583.09,-80.49 585.52,-81.09 583.64,-78.3 587.95,-81.69 587.95,-81.69"/>
</a>
</g>
</g>
<!-- Node5 -->
<g id="Node000005" class="node">
<title>Node5</title>
<g id="a_Node000005"><a xlink:href="../../d1/da6/card__item_8cpp.html" target="_top" xlink:title=" ">
<polygon fill="white" stroke="#666666" points="556.5,-41 438.5,-41 438.5,0 556.5,0 556.5,-41"/>
<text text-anchor="start" x="446.5" y="-29" font-family="Helvetica,sans-Serif" font-size="10.00">cockatrice/src/game</text>
<text text-anchor="start" x="446.5" y="-18" font-family="Helvetica,sans-Serif" font-size="10.00">_graphics/board/card</text>
<text text-anchor="middle" x="497.5" y="-7" font-family="Helvetica,sans-Serif" font-size="10.00">_item.cpp</text>
</a>
</g>
</g>
<!-- Node1&#45;&gt;Node5 -->
<g id="edge4_Node000001_Node000005" class="edge">
<title>Node1&#45;&gt;Node5</title>
<g id="a_edge4_Node000001_Node000005"><a xlink:title=" ">
<path fill="none" stroke="#63b8ff" d="M604.71,-74.75C583.27,-64.1 557.66,-51.38 536.84,-41.04"/>
<polygon fill="#63b8ff" stroke="#63b8ff" points="609.22,-76.99 603.74,-76.78 606.98,-75.88 604.74,-74.77 604.74,-74.77 604.74,-74.77 606.98,-75.88 605.74,-72.75 609.22,-76.99 609.22,-76.99"/>
</a>
</g>
</g>
<!-- Node6 -->
<g id="Node000006" class="node">
<title>Node6</title>
<g id="a_Node000006"><a xlink:href="../../d5/db4/game__scene_8cpp.html" target="_top" xlink:title=" ">
<polygon fill="white" stroke="#666666" points="722.5,-35.5 574.5,-35.5 574.5,-5.5 722.5,-5.5 722.5,-35.5"/>
<text text-anchor="start" x="582.5" y="-23.5" font-family="Helvetica,sans-Serif" font-size="10.00">cockatrice/src/game</text>
<text text-anchor="middle" x="648.5" y="-12.5" font-family="Helvetica,sans-Serif" font-size="10.00">_graphics/game_scene.cpp</text>
</a>
</g>
</g>
<!-- Node1&#45;&gt;Node6 -->
<g id="edge5_Node000001_Node000006" class="edge">
<title>Node1&#45;&gt;Node6</title>
<g id="a_edge5_Node000001_Node000006"><a xlink:title=" ">
<path fill="none" stroke="#63b8ff" d="M648.5,-71.5C648.5,-59.66 648.5,-45.93 648.5,-35.86"/>
<polygon fill="#63b8ff" stroke="#63b8ff" points="648.5,-76.79 646.25,-71.79 648.5,-74.29 648.5,-71.79 648.5,-71.79 648.5,-71.79 648.5,-74.29 650.75,-71.79 648.5,-76.79 648.5,-76.79"/>
</a>
</g>
</g>
<!-- Node7 -->
<g id="Node000007" class="node">
<title>Node7</title>
<g id="a_Node000007"><a xlink:href="../../d9/d22/card__zone_8cpp.html" target="_top" xlink:title=" ">
<polygon fill="white" stroke="#666666" points="860,-41 741,-41 741,0 860,0 860,-41"/>
<text text-anchor="start" x="749" y="-29" font-family="Helvetica,sans-Serif" font-size="10.00">cockatrice/src/game</text>
<text text-anchor="start" x="749" y="-18" font-family="Helvetica,sans-Serif" font-size="10.00">_graphics/zones/card</text>
<text text-anchor="middle" x="800.5" y="-7" font-family="Helvetica,sans-Serif" font-size="10.00">_zone.cpp</text>
</a>
</g>
</g>
<!-- Node1&#45;&gt;Node7 -->
<g id="edge6_Node000001_Node000007" class="edge">
<title>Node1&#45;&gt;Node7</title>
<g id="a_edge6_Node000001_Node000007"><a xlink:title=" ">
<path fill="none" stroke="#63b8ff" d="M692.58,-74.75C714.16,-64.1 739.94,-51.38 760.89,-41.04"/>
<polygon fill="#63b8ff" stroke="#63b8ff" points="688.04,-76.99 691.53,-72.76 690.28,-75.88 692.52,-74.78 692.52,-74.78 692.52,-74.78 690.28,-75.88 693.52,-76.8 688.04,-76.99 688.04,-76.99"/>
</a>
</g>
</g>
<!-- Node8 -->
<g id="Node000008" class="node">
<title>Node8</title>
<g id="a_Node000008"><a xlink:href="../../df/d0e/pile__zone_8cpp.html" target="_top" xlink:title=" ">
<polygon fill="white" stroke="#666666" points="994.5,-41 878.5,-41 878.5,0 994.5,0 994.5,-41"/>
<text text-anchor="start" x="886.5" y="-29" font-family="Helvetica,sans-Serif" font-size="10.00">cockatrice/src/game</text>
<text text-anchor="start" x="886.5" y="-18" font-family="Helvetica,sans-Serif" font-size="10.00">_graphics/zones/pile</text>
<text text-anchor="middle" x="936.5" y="-7" font-family="Helvetica,sans-Serif" font-size="10.00">_zone.cpp</text>
</a>
</g>
</g>
<!-- Node1&#45;&gt;Node8 -->
<g id="edge7_Node000001_Node000008" class="edge">
<title>Node1&#45;&gt;Node8</title>
<g id="a_edge7_Node000001_Node000008"><a xlink:title=" ">
<path fill="none" stroke="#63b8ff" d="M714.18,-80.68C758.23,-69.91 817.48,-55.1 869.5,-41 872.42,-40.21 875.41,-39.38 878.43,-38.54"/>
<polygon fill="#63b8ff" stroke="#63b8ff" points="709.16,-81.91 713.48,-78.54 711.59,-81.32 714.02,-80.72 714.02,-80.72 714.02,-80.72 711.59,-81.32 714.55,-82.91 709.16,-81.91 709.16,-81.91"/>
</a>
</g>
</g>
<!-- Node9 -->
<g id="Node000009" class="node">
<title>Node9</title>
<g id="a_Node000009"><a xlink:href="../../d1/d8d/view__zone_8cpp.html" target="_top" xlink:title=" ">
<polygon fill="white" stroke="#666666" points="1134,-41 1013,-41 1013,0 1134,0 1134,-41"/>
<text text-anchor="start" x="1021" y="-29" font-family="Helvetica,sans-Serif" font-size="10.00">cockatrice/src/game</text>
<text text-anchor="start" x="1021" y="-18" font-family="Helvetica,sans-Serif" font-size="10.00">_graphics/zones/view</text>
<text text-anchor="middle" x="1073.5" y="-7" font-family="Helvetica,sans-Serif" font-size="10.00">_zone.cpp</text>
</a>
</g>
</g>
<!-- Node1&#45;&gt;Node9 -->
<g id="edge8_Node000001_Node000009" class="edge">
<title>Node1&#45;&gt;Node9</title>
<g id="a_edge8_Node000001_Node000009"><a xlink:title=" ">
<path fill="none" stroke="#63b8ff" d="M714.27,-88.55C785.85,-79.36 903.48,-62.67 1003.5,-41 1006.58,-40.33 1009.73,-39.61 1012.9,-38.85"/>
<polygon fill="#63b8ff" stroke="#63b8ff" points="709.2,-89.2 713.87,-86.34 711.68,-88.88 714.16,-88.57 714.16,-88.57 714.16,-88.57 711.68,-88.88 714.44,-90.8 709.2,-89.2 709.2,-89.2"/>
</a>
</g>
</g>
<!-- Node10 -->
<g id="Node000010" class="node">
<title>Node10</title>
<g id="a_Node000010"><a xlink:href="../../d1/d10/view__zone__widget_8cpp.html" target="_top" xlink:title=" ">
<polygon fill="white" stroke="#666666" points="1273,-41 1152,-41 1152,0 1273,0 1273,-41"/>
<text text-anchor="start" x="1160" y="-29" font-family="Helvetica,sans-Serif" font-size="10.00">cockatrice/src/game</text>
<text text-anchor="start" x="1160" y="-18" font-family="Helvetica,sans-Serif" font-size="10.00">_graphics/zones/view</text>
<text text-anchor="middle" x="1212.5" y="-7" font-family="Helvetica,sans-Serif" font-size="10.00">_zone_widget.cpp</text>
</a>
</g>
</g>
<!-- Node1&#45;&gt;Node10 -->
<g id="edge9_Node000001_Node000010" class="edge">
<title>Node1&#45;&gt;Node10</title>
<g id="a_edge9_Node000001_Node000010"><a xlink:title=" ">
<path fill="none" stroke="#63b8ff" d="M714.21,-92.57C809.52,-86.09 991.35,-70.82 1143.5,-41 1146.19,-40.47 1148.92,-39.89 1151.68,-39.27"/>
<polygon fill="#63b8ff" stroke="#63b8ff" points="709.18,-92.91 714.02,-90.33 711.68,-92.74 714.17,-92.57 714.17,-92.57 714.17,-92.57 711.68,-92.74 714.32,-94.82 709.18,-92.91 709.18,-92.91"/>
</a>
</g>
</g>
</g>
</svg>
