<?xml version="1.0" encoding="UTF-8" standalone="no"?>
<!DOCTYPE svg PUBLIC "-//W3C//DTD SVG 1.1//EN"
 "http://www.w3.org/Graphics/SVG/1.1/DTD/svg11.dtd">
<!-- Generated by graphviz version 2.43.0 (0)
 -->
<!-- Title: VisualDeckDisplayOptionsWidget::onSortCriteriaChange Pages: 1 -->
<svg width="360pt" height="38pt"
 viewBox="0.00 0.00 360.00 38.00" xmlns="http://www.w3.org/2000/svg" xmlns:xlink="http://www.w3.org/1999/xlink">
<g id="graph0" class="graph" transform="scale(1 1) rotate(0) translate(4 34)">
<title>VisualDeckDisplayOptionsWidget::onSortCriteriaChange</title>
<!-- Node1 -->
<g id="Node000001" class="node">
<title>Node1</title>
<g id="a_Node000001"><a xlink:title="Slot triggered whenever the sort list is reordered.">
<polygon fill="#999999" stroke="#666666" points="161,-30 0,-30 0,0 161,0 161,-30"/>
<text text-anchor="start" x="8" y="-18" font-family="Helvetica,sans-Serif" font-size="10.00">VisualDeckDisplayOptions</text>
<text text-anchor="middle" x="80.5" y="-7" font-family="Helvetica,sans-Serif" font-size="10.00">Widget::onSortCriteriaChange</text>
</a>
</g>
</g>
<!-- Node2 -->
<g id="Node000002" class="node">
<title>Node2</title>
<g id="a_Node000002"><a xlink:href="../../dc/de4/classVisualDeckDisplayOptionsWidget.html#aeca4296a6ae148c7a4143751dc987b31" target="_top" xlink:title="Emitted when the order of sort criteria changes.">
<polygon fill="white" stroke="#666666" points="352,-30 197,-30 197,0 352,0 352,-30"/>
<text text-anchor="start" x="205" y="-18" font-family="Helvetica,sans-Serif" font-size="10.00">VisualDeckDisplayOptions</text>
<text text-anchor="middle" x="274.5" y="-7" font-family="Helvetica,sans-Serif" font-size="10.00">Widget::sortCriteriaChanged</text>
</a>
</g>
</g>
<!-- Node1&#45;&gt;Node2 -->
<g id="edge1_Node000001_Node000002" class="edge">
<title>Node1&#45;&gt;Node2</title>
<g id="a_edge1_Node000001_Node000002"><a xlink:title=" ">
<path fill="none" stroke="#63b8ff" d="M161.26,-15C171.26,-15 181.5,-15 191.54,-15"/>
<polygon fill="#63b8ff" stroke="#63b8ff" points="196.77,-15 191.77,-17.25 194.27,-15 191.77,-15 191.77,-15 191.77,-15 194.27,-15 191.76,-12.75 196.77,-15 196.77,-15"/>
</a>
</g>
</g>
</g>
</svg>
