<?xml version="1.0" encoding="UTF-8" standalone="no"?>
<!DOCTYPE svg PUBLIC "-//W3C//DTD SVG 1.1//EN"
 "http://www.w3.org/Graphics/SVG/1.1/DTD/svg11.dtd">
<!-- Generated by graphviz version 2.43.0 (0)
 -->
<!-- Title: peg::Definition::initialize_packrat_filter Pages: 1 -->
<svg width="323pt" height="131pt"
 viewBox="0.00 0.00 323.00 130.50" xmlns="http://www.w3.org/2000/svg" xmlns:xlink="http://www.w3.org/1999/xlink">

<svg id="main" version="1.1" xmlns="http://www.w3.org/2000/svg" xmlns:xlink="http://www.w3.org/1999/xlink" xml:space="preserve">

<style type="text/css"><![CDATA[
.node, .edge {opacity: 0.7;}
.node.selected, .edge.selected {opacity: 1;}
.edge:hover path { stroke: red; }
.edge:hover polygon { stroke: red; fill: red; }
]]></style>
<script type="application/ecmascript" xlink:href="../../svg.min.js"/>
<svg id="graph" class="graph">
<g id="graph0" class="graph" transform="scale(1 1) rotate(0) translate(4 126.5)">
<title>peg::Definition::initialize_packrat_filter</title>
<!-- Node1 -->
<g id="Node000001" class="node">
<title>Node1</title>
<g id="a_Node000001"><a xlink:title=" ">
<polygon fill="#999999" stroke="#666666" points="136,-73 0,-73 0,-43 136,-43 136,-73"/>
<text text-anchor="start" x="8" y="-61" font-family="Helvetica,sans-Serif" font-size="10.00">peg::Definition::initialize</text>
<text text-anchor="middle" x="68" y="-50" font-family="Helvetica,sans-Serif" font-size="10.00">_packrat_filter</text>
</a>
</g>
</g>
<!-- Node2 -->
<g id="Node000002" class="node">
<title>Node2</title>
<g id="a_Node000002"><a xlink:href="../../d8/d94/classpeg_1_1Definition.html#ada8991cee43bd63b8273eccd8a29c33b" target="_top" xlink:title=" ">
<polygon fill="white" stroke="#666666" points="306.5,-122.5 180.5,-122.5 180.5,-103.5 306.5,-103.5 306.5,-122.5"/>
<text text-anchor="middle" x="243.5" y="-110.5" font-family="Helvetica,sans-Serif" font-size="10.00">peg::Definition::accept</text>
</a>
</g>
</g>
<!-- Node1&#45;&gt;Node2 -->
<g id="edge1_Node000001_Node000002" class="edge">
<title>Node1&#45;&gt;Node2</title>
<g id="a_edge1_Node000001_Node000002"><a xlink:title=" ">
<path fill="none" stroke="#63b8ff" d="M108.32,-73.12C127.4,-80.2 150.75,-88.49 172,-95 180.1,-97.48 188.8,-99.9 197.22,-102.12"/>
<polygon fill="#63b8ff" stroke="#63b8ff" points="202.42,-103.47 197.02,-104.39 200,-102.84 197.58,-102.21 197.58,-102.21 197.58,-102.21 200,-102.84 198.15,-100.03 202.42,-103.47 202.42,-103.47"/>
</a>
</g>
</g>
<!-- Node3 -->
<g id="Node000003" class="node">
<title>Node3</title>
<g id="a_Node000003"><a xlink:href="../../d8/d94/classpeg_1_1Definition.html#a75dfa92607f3d314070ecf242e028014" target="_top" xlink:title=" ">
<polygon fill="white" stroke="#666666" points="315,-67.5 172,-67.5 172,-48.5 315,-48.5 315,-67.5"/>
<text text-anchor="middle" x="243.5" y="-55.5" font-family="Helvetica,sans-Serif" font-size="10.00">peg::Definition::Reference</text>
</a>
</g>
</g>
<!-- Node1&#45;&gt;Node3 -->
<g id="edge2_Node000001_Node000003" class="edge">
<title>Node1&#45;&gt;Node3</title>
<g id="a_edge2_Node000001_Node000003"><a xlink:title=" ">
<path fill="none" stroke="#63b8ff" d="M136.08,-58C146.16,-58 156.61,-58 166.86,-58"/>
<polygon fill="#63b8ff" stroke="#63b8ff" points="171.87,-58 166.87,-60.25 169.37,-58 166.87,-58 166.87,-58 166.87,-58 169.37,-58 166.87,-55.75 171.87,-58 171.87,-58"/>
</a>
</g>
</g>
<!-- Node4 -->
<g id="Node000004" class="node">
<title>Node4</title>
<g id="a_Node000004"><a xlink:href="../../da/ddf/structpeg_1_1TraversalVisitor.html#add683fb4926e3c682592d9fc15fc0c0a" target="_top" xlink:title=" ">
<polygon fill="white" stroke="#666666" points="301.5,-30 185.5,-30 185.5,0 301.5,0 301.5,-30"/>
<text text-anchor="start" x="193.5" y="-18" font-family="Helvetica,sans-Serif" font-size="10.00">peg::TraversalVisitor</text>
<text text-anchor="middle" x="243.5" y="-7" font-family="Helvetica,sans-Serif" font-size="10.00">::visit</text>
</a>
</g>
</g>
<!-- Node1&#45;&gt;Node4 -->
<g id="edge4_Node000001_Node000004" class="edge">
<title>Node1&#45;&gt;Node4</title>
<g id="a_edge4_Node000001_Node000004"><a xlink:title=" ">
<path fill="none" stroke="#63b8ff" d="M129.68,-42.96C146.07,-38.9 163.82,-34.5 180.28,-30.42"/>
<polygon fill="#63b8ff" stroke="#63b8ff" points="185.35,-29.16 181.04,-32.55 182.92,-29.77 180.49,-30.37 180.49,-30.37 180.49,-30.37 182.92,-29.77 179.95,-28.18 185.35,-29.16 185.35,-29.16"/>
</a>
</g>
</g>
<!-- Node3&#45;&gt;Node3 -->
<g id="edge3_Node000003_Node000003" class="edge">
<title>Node3&#45;&gt;Node3</title>
<g id="a_edge3_Node000003_Node000003"><a xlink:title=" ">
<path fill="none" stroke="#63b8ff" d="M216.68,-67.58C203.63,-76.23 212.57,-85.5 243.5,-85.5 270.56,-85.5 280.79,-78.41 274.18,-70.84"/>
<polygon fill="#63b8ff" stroke="#63b8ff" points="270.32,-67.58 275.59,-69.08 272.23,-69.19 274.14,-70.8 274.14,-70.8 274.14,-70.8 272.23,-69.19 272.69,-72.53 270.32,-67.58 270.32,-67.58"/>
</a>
</g>
</g>
</g>
</svg>
</svg>

<style type='text/css'>
<![CDATA[
[data-mouse-over-selected='false'] { opacity: 0.7; }
[data-mouse-over-selected='true']  { opacity: 1.0; }
]]>
</style>
<script type="application/ecmascript"><![CDATA[
document.addEventListener('DOMContentLoaded', (event) => {
  highlightEdges();
  highlightAdjacentNodes();
});
]]></script>
</svg>
