<?xml version="1.0" encoding="UTF-8" standalone="no"?>
<!DOCTYPE svg PUBLIC "-//W3C//DTD SVG 1.1//EN"
 "http://www.w3.org/Graphics/SVG/1.1/DTD/svg11.dtd">
<!-- Generated by graphviz version 2.43.0 (0)
 -->
<!-- Title: UserListManager::addedToIgnoreList Pages: 1 -->
<svg width="514pt" height="76pt"
 viewBox="0.00 0.00 514.00 75.50" xmlns="http://www.w3.org/2000/svg" xmlns:xlink="http://www.w3.org/1999/xlink">
<g id="graph0" class="graph" transform="scale(1 1) rotate(0) translate(4 71.5)">
<title>UserListManager::addedToIgnoreList</title>
<!-- Node1 -->
<g id="Node000001" class="node">
<title>Node1</title>
<g id="a_Node000001"><a xlink:title=" ">
<polygon fill="#999999" stroke="#666666" points="506,-51 360,-51 360,-21 506,-21 506,-51"/>
<text text-anchor="start" x="368" y="-39" font-family="Helvetica,sans-Serif" font-size="10.00">UserListManager::addedTo</text>
<text text-anchor="middle" x="433" y="-28" font-family="Helvetica,sans-Serif" font-size="10.00">IgnoreList</text>
</a>
</g>
</g>
<!-- Node2 -->
<g id="Node000002" class="node">
<title>Node2</title>
<g id="a_Node000002"><a xlink:href="../../da/d3b/classUserListWidget.html#a38c37de8b8a69cfa957212e3f2b4792f" target="_top" xlink:title=" ">
<polygon fill="white" stroke="#666666" points="311.5,-67.5 193.5,-67.5 193.5,-48.5 311.5,-48.5 311.5,-67.5"/>
<text text-anchor="middle" x="252.5" y="-55.5" font-family="Helvetica,sans-Serif" font-size="10.00">UserListWidget::bind</text>
</a>
</g>
</g>
<!-- Node1&#45;&gt;Node2 -->
<g id="edge1_Node000001_Node000002" class="edge">
<title>Node1&#45;&gt;Node2</title>
<g id="a_edge1_Node000001_Node000002"><a xlink:title=" ">
<path fill="none" stroke="#63b8ff" d="M354.62,-45.54C340.18,-47.32 325.33,-49.15 311.6,-50.84"/>
<polygon fill="#63b8ff" stroke="#63b8ff" points="359.91,-44.88 355.22,-47.73 357.43,-45.19 354.95,-45.5 354.95,-45.5 354.95,-45.5 357.43,-45.19 354.67,-43.26 359.91,-44.88 359.91,-44.88"/>
</a>
</g>
</g>
<!-- Node3 -->
<g id="Node000003" class="node">
<title>Node3</title>
<g id="a_Node000003"><a xlink:href="../../db/d6d/classUserListManager.html#a34cb2e77548a8941fe61ac1d48816808" target="_top" xlink:title=" ">
<polygon fill="white" stroke="#666666" points="324,-30 181,-30 181,0 324,0 324,-30"/>
<text text-anchor="start" x="189" y="-18" font-family="Helvetica,sans-Serif" font-size="10.00">UserListManager::process</text>
<text text-anchor="middle" x="252.5" y="-7" font-family="Helvetica,sans-Serif" font-size="10.00">AddToListEvent</text>
</a>
</g>
</g>
<!-- Node1&#45;&gt;Node3 -->
<g id="edge2_Node000001_Node000003" class="edge">
<title>Node1&#45;&gt;Node3</title>
<g id="a_edge2_Node000001_Node000003"><a xlink:title=" ">
<path fill="none" stroke="#63b8ff" d="M354.91,-26.93C344.68,-25.73 334.23,-24.5 324.12,-23.31"/>
<polygon fill="#63b8ff" stroke="#63b8ff" points="359.91,-27.52 354.68,-29.17 357.43,-27.23 354.95,-26.93 354.95,-26.93 354.95,-26.93 357.43,-27.23 355.21,-24.7 359.91,-27.52 359.91,-27.52"/>
</a>
</g>
</g>
<!-- Node4 -->
<g id="Node000004" class="node">
<title>Node4</title>
<g id="a_Node000004"><a xlink:href="../../db/d6d/classUserListManager.html#abe13bceeb67159e0c1b108b1e1c84691" target="_top" xlink:title=" ">
<polygon fill="white" stroke="#666666" points="145,-30 0,-30 0,0 145,0 145,-30"/>
<text text-anchor="start" x="8" y="-18" font-family="Helvetica,sans-Serif" font-size="10.00">UserListManager::UserList</text>
<text text-anchor="middle" x="72.5" y="-7" font-family="Helvetica,sans-Serif" font-size="10.00">Manager</text>
</a>
</g>
</g>
<!-- Node3&#45;&gt;Node4 -->
<g id="edge3_Node000003_Node000004" class="edge">
<title>Node3&#45;&gt;Node4</title>
<g id="a_edge3_Node000003_Node000004"><a xlink:title=" ">
<path fill="none" stroke="#63b8ff" d="M175.64,-15C165.54,-15 155.21,-15 145.19,-15"/>
<polygon fill="#63b8ff" stroke="#63b8ff" points="180.89,-15 175.89,-17.25 178.39,-15 175.89,-15 175.89,-15 175.89,-15 178.39,-15 175.89,-12.75 180.89,-15 180.89,-15"/>
</a>
</g>
</g>
</g>
</svg>
