<?xml version="1.0" encoding="UTF-8" standalone="no"?>
<!DOCTYPE svg PUBLIC "-//W3C//DTD SVG 1.1//EN"
 "http://www.w3.org/Graphics/SVG/1.1/DTD/svg11.dtd">
<!-- Generated by graphviz version 2.43.0 (0)
 -->
<!-- Title: VisualDeckStorageSortWidget::VisualDeckStorageSortWidget Pages: 1 -->
<svg width="787pt" height="260pt"
 viewBox="0.00 0.00 787.00 259.95" xmlns="http://www.w3.org/2000/svg" xmlns:xlink="http://www.w3.org/1999/xlink">
<g id="graph0" class="graph" transform="scale(1 1) rotate(0) translate(4 255.95)">
<title>VisualDeckStorageSortWidget::VisualDeckStorageSortWidget</title>
<!-- Node1 -->
<g id="Node000001" class="node">
<title>Node1</title>
<g id="a_Node000001"><a xlink:title="Constructs a PrintingSelectorCardSortWidget for searching cards by set name or set code.">
<polygon fill="#999999" stroke="#666666" points="169,-180.5 0,-180.5 0,-150.5 169,-150.5 169,-180.5"/>
<text text-anchor="start" x="8" y="-168.5" font-family="Helvetica,sans-Serif" font-size="10.00">VisualDeckStorageSortWidget</text>
<text text-anchor="middle" x="84.5" y="-157.5" font-family="Helvetica,sans-Serif" font-size="10.00">::VisualDeckStorageSortWidget</text>
</a>
</g>
</g>
<!-- Node2 -->
<g id="Node000002" class="node">
<title>Node2</title>
<g id="a_Node000002"><a xlink:href="../../d5/d88/classSettingsCache.html#adfa7f9f975919981b992db1fca9e4957" target="_top" xlink:title=" ">
<polygon fill="white" stroke="#666666" points="552.5,-245 418.5,-245 418.5,-226 552.5,-226 552.5,-245"/>
<text text-anchor="middle" x="485.5" y="-233" font-family="Helvetica,sans-Serif" font-size="10.00">SettingsCache::instance</text>
</a>
</g>
</g>
<!-- Node1&#45;&gt;Node2 -->
<g id="edge1_Node000001_Node000002" class="edge">
<title>Node1&#45;&gt;Node2</title>
<g id="a_edge1_Node000001_Node000002"><a xlink:title=" ">
<path fill="none" stroke="#63b8ff" d="M103.47,-180.68C125.65,-198.34 165.33,-226.47 205,-237.5 277.27,-257.59 364.18,-252.69 421.69,-245.65"/>
<polygon fill="#63b8ff" stroke="#63b8ff" points="426.81,-245.01 422.13,-247.86 424.33,-245.32 421.85,-245.63 421.85,-245.63 421.85,-245.63 424.33,-245.32 421.57,-243.4 426.81,-245.01 426.81,-245.01"/>
</a>
</g>
</g>
<!-- Node3 -->
<g id="Node000003" class="node">
<title>Node3</title>
<g id="a_Node000003"><a xlink:href="../../dd/d71/classVisualDeckStorageSortWidget.html#a7bc7ac1192ae7ced638a3d83dcd3a449" target="_top" xlink:title=" ">
<polygon fill="white" stroke="#666666" points="368,-228.5 205,-228.5 205,-198.5 368,-198.5 368,-228.5"/>
<text text-anchor="start" x="213" y="-216.5" font-family="Helvetica,sans-Serif" font-size="10.00">VisualDeckStorageSortWidget</text>
<text text-anchor="middle" x="286.5" y="-205.5" font-family="Helvetica,sans-Serif" font-size="10.00">::retranslateUi</text>
</a>
</g>
</g>
<!-- Node1&#45;&gt;Node3 -->
<g id="edge2_Node000001_Node000003" class="edge">
<title>Node1&#45;&gt;Node3</title>
<g id="a_edge2_Node000001_Node000003"><a xlink:title=" ">
<path fill="none" stroke="#63b8ff" d="M148.23,-180.56C170.39,-185.87 195.38,-191.87 217.92,-197.28"/>
<polygon fill="#63b8ff" stroke="#63b8ff" points="222.99,-198.5 217.6,-199.52 220.56,-197.91 218.13,-197.33 218.13,-197.33 218.13,-197.33 220.56,-197.91 218.65,-195.14 222.99,-198.5 222.99,-198.5"/>
</a>
</g>
</g>
<!-- Node4 -->
<g id="Node000004" class="node">
<title>Node4</title>
<g id="a_Node000004"><a xlink:href="../../dd/d71/classVisualDeckStorageSortWidget.html#a2c70fea7b2076647c821738b0414fd45" target="_top" xlink:title=" ">
<polygon fill="white" stroke="#666666" points="567,-139.5 404,-139.5 404,-109.5 567,-109.5 567,-139.5"/>
<text text-anchor="start" x="412" y="-127.5" font-family="Helvetica,sans-Serif" font-size="10.00">VisualDeckStorageSortWidget</text>
<text text-anchor="middle" x="485.5" y="-116.5" font-family="Helvetica,sans-Serif" font-size="10.00">::sortOrderChanged</text>
</a>
</g>
</g>
<!-- Node1&#45;&gt;Node4 -->
<g id="edge3_Node000001_Node000004" class="edge">
<title>Node1&#45;&gt;Node4</title>
<g id="a_edge3_Node000001_Node000004"><a xlink:title=" ">
<path fill="none" stroke="#63b8ff" d="M151.91,-150.48C169.12,-147.05 187.69,-143.75 205,-141.5 269.56,-133.09 343.07,-128.83 398.49,-126.68"/>
<polygon fill="#63b8ff" stroke="#63b8ff" points="403.8,-126.47 398.89,-128.91 401.3,-126.57 398.8,-126.66 398.8,-126.66 398.8,-126.66 401.3,-126.57 398.72,-124.42 403.8,-126.47 403.8,-126.47"/>
</a>
</g>
</g>
<!-- Node5 -->
<g id="Node000005" class="node">
<title>Node5</title>
<g id="a_Node000005"><a xlink:href="../../dd/d71/classVisualDeckStorageSortWidget.html#a052365761e8794db76b7567c0cf984e8" target="_top" xlink:title=" ">
<polygon fill="white" stroke="#666666" points="368,-180.5 205,-180.5 205,-150.5 368,-150.5 368,-180.5"/>
<text text-anchor="start" x="213" y="-168.5" font-family="Helvetica,sans-Serif" font-size="10.00">VisualDeckStorageSortWidget</text>
<text text-anchor="middle" x="286.5" y="-157.5" font-family="Helvetica,sans-Serif" font-size="10.00">::updateSortOrder</text>
</a>
</g>
</g>
<!-- Node1&#45;&gt;Node5 -->
<g id="edge4_Node000001_Node000005" class="edge">
<title>Node1&#45;&gt;Node5</title>
<g id="a_edge4_Node000001_Node000005"><a xlink:title=" ">
<path fill="none" stroke="#63b8ff" d="M169.16,-165.5C179.19,-165.5 189.44,-165.5 199.5,-165.5"/>
<polygon fill="#63b8ff" stroke="#63b8ff" points="204.74,-165.5 199.74,-167.75 202.24,-165.5 199.74,-165.5 199.74,-165.5 199.74,-165.5 202.24,-165.5 199.74,-163.25 204.74,-165.5 204.74,-165.5"/>
</a>
</g>
</g>
<!-- Node7 -->
<g id="Node000007" class="node">
<title>Node7</title>
<g id="a_Node000007"><a xlink:href="../../d0/dfe/classVisualDeckStorageWidget.html#a53592d9f1487124c2d9f27187ca62aa7" target="_top" xlink:title=" ">
<polygon fill="white" stroke="#666666" points="358,-93.5 215,-93.5 215,-63.5 358,-63.5 358,-93.5"/>
<text text-anchor="start" x="223" y="-81.5" font-family="Helvetica,sans-Serif" font-size="10.00">VisualDeckStorageWidget</text>
<text text-anchor="middle" x="286.5" y="-70.5" font-family="Helvetica,sans-Serif" font-size="10.00">::updateSortOrder</text>
</a>
</g>
</g>
<!-- Node1&#45;&gt;Node7 -->
<g id="edge8_Node000001_Node000007" class="edge">
<title>Node1&#45;&gt;Node7</title>
<g id="a_edge8_Node000001_Node000007"><a xlink:title=" ">
<path fill="none" stroke="#63b8ff" d="M115.12,-150.47C139.11,-138.52 173.89,-121.69 205,-108.5 215.6,-104.01 227.12,-99.5 238.05,-95.39"/>
<polygon fill="#63b8ff" stroke="#63b8ff" points="243.03,-93.53 239.13,-97.39 240.68,-94.41 238.34,-95.28 238.34,-95.28 238.34,-95.28 240.68,-94.41 237.56,-93.17 243.03,-93.53 243.03,-93.53"/>
</a>
</g>
</g>
<!-- Node5&#45;&gt;Node2 -->
<g id="edge5_Node000005_Node000002" class="edge">
<title>Node5&#45;&gt;Node2</title>
<g id="a_edge5_Node000005_Node000002"><a xlink:title=" ">
<path fill="none" stroke="#63b8ff" d="M340.54,-180.6C349.74,-183.42 359.18,-186.45 368,-189.5 398.89,-200.18 433.67,-214.18 457.12,-223.91"/>
<polygon fill="#63b8ff" stroke="#63b8ff" points="461.95,-225.92 456.47,-226.08 459.64,-224.96 457.33,-224 457.33,-224 457.33,-224 459.64,-224.96 458.2,-221.92 461.95,-225.92 461.95,-225.92"/>
</a>
</g>
</g>
<!-- Node5&#45;&gt;Node4 -->
<g id="edge7_Node000005_Node000004" class="edge">
<title>Node5&#45;&gt;Node4</title>
<g id="a_edge7_Node000005_Node000004"><a xlink:title=" ">
<path fill="none" stroke="#63b8ff" d="M359.74,-150.47C375.13,-147.26 391.44,-143.87 407.02,-140.63"/>
<polygon fill="#63b8ff" stroke="#63b8ff" points="412.27,-139.53 407.84,-142.75 409.82,-140.04 407.38,-140.55 407.38,-140.55 407.38,-140.55 409.82,-140.04 406.92,-138.35 412.27,-139.53 412.27,-139.53"/>
</a>
</g>
</g>
<!-- Node6 -->
<g id="Node000006" class="node">
<title>Node6</title>
<g id="a_Node000006"><a xlink:href="../../d5/d88/classSettingsCache.html#aab3fa99d9409a0a940b8541497a73d65" target="_top" xlink:title=" ">
<polygon fill="white" stroke="#666666" points="555.5,-187.5 415.5,-187.5 415.5,-157.5 555.5,-157.5 555.5,-187.5"/>
<text text-anchor="start" x="423.5" y="-175.5" font-family="Helvetica,sans-Serif" font-size="10.00">SettingsCache::setVisual</text>
<text text-anchor="middle" x="485.5" y="-164.5" font-family="Helvetica,sans-Serif" font-size="10.00">DeckStorageSortingOrder</text>
</a>
</g>
</g>
<!-- Node5&#45;&gt;Node6 -->
<g id="edge6_Node000005_Node000006" class="edge">
<title>Node5&#45;&gt;Node6</title>
<g id="a_edge6_Node000005_Node000006"><a xlink:title=" ">
<path fill="none" stroke="#63b8ff" d="M368.2,-168.37C382.11,-168.86 396.51,-169.37 410.24,-169.86"/>
<polygon fill="#63b8ff" stroke="#63b8ff" points="415.27,-170.04 410.19,-172.11 412.77,-169.95 410.27,-169.86 410.27,-169.86 410.27,-169.86 412.77,-169.95 410.35,-167.61 415.27,-170.04 415.27,-170.04"/>
</a>
</g>
</g>
<!-- Node8 -->
<g id="Node000008" class="node">
<title>Node8</title>
<g id="a_Node000008"><a xlink:href="../../dd/d71/classVisualDeckStorageSortWidget.html#a28aad3416017c9fd5aa117be4c53a4fe" target="_top" xlink:title=" ">
<polygon fill="white" stroke="#666666" points="567,-91.5 404,-91.5 404,-61.5 567,-61.5 567,-91.5"/>
<text text-anchor="start" x="412" y="-79.5" font-family="Helvetica,sans-Serif" font-size="10.00">VisualDeckStorageSortWidget</text>
<text text-anchor="middle" x="485.5" y="-68.5" font-family="Helvetica,sans-Serif" font-size="10.00">::sortFolder</text>
</a>
</g>
</g>
<!-- Node7&#45;&gt;Node8 -->
<g id="edge9_Node000007_Node000008" class="edge">
<title>Node7&#45;&gt;Node8</title>
<g id="a_edge9_Node000007_Node000008"><a xlink:title=" ">
<path fill="none" stroke="#63b8ff" d="M358.07,-77.78C371.13,-77.65 384.9,-77.51 398.36,-77.37"/>
<polygon fill="#63b8ff" stroke="#63b8ff" points="403.7,-77.32 398.73,-79.62 401.2,-77.35 398.7,-77.37 398.7,-77.37 398.7,-77.37 401.2,-77.35 398.68,-75.12 403.7,-77.32 403.7,-77.32"/>
</a>
</g>
</g>
<!-- Node9 -->
<g id="Node000009" class="node">
<title>Node9</title>
<g id="a_Node000009"><a xlink:href="../../d5/d53/classFlowWidget.html#a822ae4496286ebe6e3870c70cb811798" target="_top" xlink:title="Adds a widget to the flow layout within the FlowWidget.">
<polygon fill="white" stroke="#666666" points="757.5,-153 624.5,-153 624.5,-134 757.5,-134 757.5,-153"/>
<text text-anchor="middle" x="691" y="-141" font-family="Helvetica,sans-Serif" font-size="10.00">FlowWidget::addWidget</text>
</a>
</g>
</g>
<!-- Node8&#45;&gt;Node9 -->
<g id="edge10_Node000008_Node000009" class="edge">
<title>Node8&#45;&gt;Node9</title>
<g id="a_edge10_Node000008_Node000009"><a xlink:title=" ">
<path fill="none" stroke="#63b8ff" d="M544.88,-91.64C552.45,-94.26 560,-97.22 567,-100.5 584.41,-108.67 585.3,-116.98 603,-124.5 610.54,-127.7 618.69,-130.39 626.87,-132.65"/>
<polygon fill="#63b8ff" stroke="#63b8ff" points="631.96,-133.99 626.55,-134.89 629.55,-133.35 627.13,-132.71 627.13,-132.71 627.13,-132.71 629.55,-133.35 627.7,-130.54 631.96,-133.99 631.96,-133.99"/>
</a>
</g>
</g>
<!-- Node10 -->
<g id="Node000010" class="node">
<title>Node10</title>
<g id="a_Node000010"><a xlink:href="../../dd/d71/classVisualDeckStorageSortWidget.html#ac0120649bc73f4851b860cf2ce0aa7a5" target="_top" xlink:title=" ">
<polygon fill="white" stroke="#666666" points="772.5,-115.5 609.5,-115.5 609.5,-85.5 772.5,-85.5 772.5,-115.5"/>
<text text-anchor="start" x="617.5" y="-103.5" font-family="Helvetica,sans-Serif" font-size="10.00">VisualDeckStorageSortWidget</text>
<text text-anchor="middle" x="691" y="-92.5" font-family="Helvetica,sans-Serif" font-size="10.00">::filterFiles</text>
</a>
</g>
</g>
<!-- Node8&#45;&gt;Node10 -->
<g id="edge11_Node000008_Node000010" class="edge">
<title>Node8&#45;&gt;Node10</title>
<g id="a_edge11_Node000008_Node000010"><a xlink:title=" ">
<path fill="none" stroke="#63b8ff" d="M567.22,-86.02C579.36,-87.45 591.91,-88.93 604.15,-90.38"/>
<polygon fill="#63b8ff" stroke="#63b8ff" points="609.38,-90.99 604.15,-92.64 606.89,-90.7 604.41,-90.41 604.41,-90.41 604.41,-90.41 606.89,-90.7 604.67,-88.17 609.38,-90.99 609.38,-90.99"/>
</a>
</g>
</g>
<!-- Node11 -->
<g id="Node000011" class="node">
<title>Node11</title>
<g id="a_Node000011"><a xlink:href="../../da/d22/classVisualDeckStorageFolderDisplayWidget.html#a71e16e8afc4e3a6bc8bc73ba6ffeb3d2" target="_top" xlink:title=" ">
<polygon fill="white" stroke="#666666" points="779,-67.5 603,-67.5 603,-37.5 779,-37.5 779,-67.5"/>
<text text-anchor="start" x="611" y="-55.5" font-family="Helvetica,sans-Serif" font-size="10.00">VisualDeckStorageFolderDisplay</text>
<text text-anchor="middle" x="691" y="-44.5" font-family="Helvetica,sans-Serif" font-size="10.00">Widget::getFlowWidget</text>
</a>
</g>
</g>
<!-- Node8&#45;&gt;Node11 -->
<g id="edge12_Node000008_Node000011" class="edge">
<title>Node8&#45;&gt;Node11</title>
<g id="a_edge12_Node000008_Node000011"><a xlink:title=" ">
<path fill="none" stroke="#63b8ff" d="M567.22,-66.98C577.23,-65.8 587.53,-64.58 597.7,-63.39"/>
<polygon fill="#63b8ff" stroke="#63b8ff" points="602.68,-62.8 597.98,-65.62 600.2,-63.09 597.72,-63.38 597.72,-63.38 597.72,-63.38 600.2,-63.09 597.45,-61.15 602.68,-62.8 602.68,-62.8"/>
</a>
</g>
</g>
<!-- Node12 -->
<g id="Node000012" class="node">
<title>Node12</title>
<g id="a_Node000012"><a xlink:href="../../d5/d53/classFlowWidget.html#ab064367a218ace4e8879c054448738a6" target="_top" xlink:title=" ">
<polygon fill="white" stroke="#666666" points="767,-19 615,-19 615,0 767,0 767,-19"/>
<text text-anchor="middle" x="691" y="-7" font-family="Helvetica,sans-Serif" font-size="10.00">FlowWidget::removeWidget</text>
</a>
</g>
</g>
<!-- Node8&#45;&gt;Node12 -->
<g id="edge13_Node000008_Node000012" class="edge">
<title>Node8&#45;&gt;Node12</title>
<g id="a_edge13_Node000008_Node000012"><a xlink:title=" ">
<path fill="none" stroke="#63b8ff" d="M518.58,-61.49C541.67,-51.13 573.77,-37.64 603,-28.5 612.89,-25.41 623.57,-22.63 633.94,-20.22"/>
<polygon fill="#63b8ff" stroke="#63b8ff" points="639,-19.07 634.63,-22.37 636.56,-19.62 634.13,-20.18 634.13,-20.18 634.13,-20.18 636.56,-19.62 633.63,-17.98 639,-19.07 639,-19.07"/>
</a>
</g>
</g>
</g>
</svg>
