<?xml version="1.0" encoding="UTF-8" standalone="no"?>
<!DOCTYPE svg PUBLIC "-//W3C//DTD SVG 1.1//EN"
 "http://www.w3.org/Graphics/SVG/1.1/DTD/svg11.dtd">
<!-- Generated by graphviz version 2.43.0 (0)
 -->
<!-- Title: cockatrice/src/client/network/update/client/client_update_checker.cpp Pages: 1 -->
<!--zoomable 324 -->

<svg id="main" version="1.1" xmlns="http://www.w3.org/2000/svg" xmlns:xlink="http://www.w3.org/1999/xlink" xml:space="preserve" onload="init(evt)">

<style type="text/css"><![CDATA[
.node, .edge {opacity: 0.7;}
.node.selected, .edge.selected {opacity: 1;}
.edge:hover path { stroke: red; }
.edge:hover polygon { stroke: red; fill: red; }
]]></style>

<defs>
  <circle id="rim" cx="0" cy="0" r="7"/>
  <circle id="rim2" cx="0" cy="0" r="3.5"/>
  <g id="zoomPlus">
    <use xlink:href="#rim" fill="#404040"><set attributeName="fill" to="#808080" begin="zoomplus.mouseover" end="zoomplus.mouseout"/></use>
    <path d="M-4,0h8M0,-4v8" fill="none" stroke="white" stroke-width="1.5" pointer-events="none"/>
  </g>
  <g id="zoomMin">
    <use xlink:href="#rim" fill="#404040"><set attributeName="fill" to="#808080" begin="zoomminus.mouseover" end="zoomminus.mouseout"/></use>
    <path d="M-4,0h8" fill="none" stroke="white" stroke-width="1.5" pointer-events="none"/>
  </g>
  <g id="arrowUp" transform="translate(30 24)">
    <use xlink:href="#rim"/>
    <path pointer-events="none" fill="none" stroke="white" stroke-width="1.5" d="M0,-3.0v7 M-2.5,-0.5L0,-3.0L2.5,-0.5"/>
  </g>
  <g id="arrowRight" transform="rotate(90) translate(36 -43)">
    <use xlink:href="#rim"/>
    <path pointer-events="none" fill="none" stroke="white" stroke-width="1.5" d="M0,-3.0v7 M-2.5,-0.5L0,-3.0L2.5,-0.5"/>
  </g>
  <g id="arrowDown" transform="rotate(180) translate(-30 -48)">
    <use xlink:href="#rim"/>
    <path pointer-events="none" fill="none" stroke="white" stroke-width="1.5" d="M0,-3.0v7 M-2.5,-0.5L0,-3.0L2.5,-0.5"/>
  </g>
  <g id="arrowLeft" transform="rotate(270) translate(-36 17)">
    <use xlink:href="#rim"/>
    <path pointer-events="none" fill="none" stroke="white" stroke-width="1.5" d="M0,-3.0v7 M-2.5,-0.5L0,-3.0L2.5,-0.5"/>
  </g>
  <g id="resetDef">
    <use xlink:href="#rim2" fill="#404040"><set attributeName="fill" to="#808080" begin="reset.mouseover" end="reset.mouseout"/></use>
  </g>
</defs>
<script type="application/ecmascript">
var viewWidth = 2195;
var viewHeight = 324;
var sectionId = 'dynsection-0';
</script>
<script type="application/ecmascript" xlink:href="../../svg.min.js"/>
<svg id="graph" class="graph">
<g id="viewport">
<title>cockatrice/src/client/network/update/client/client_update_checker.cpp</title>
<!-- Node1 -->
<g id="Node000001" class="node">
<title>Node1</title>
<g id="a_Node000001"><a xlink:title=" ">
<polygon fill="#999999" stroke="#666666" points="1691.41,-316 1543.41,-316 1543.41,-275 1691.41,-275 1691.41,-316"/>
<text text-anchor="start" x="1551.41" y="-304" font-family="Helvetica,sans-Serif" font-size="10.00">cockatrice/src/client</text>
<text text-anchor="start" x="1551.41" y="-293" font-family="Helvetica,sans-Serif" font-size="10.00">/network/update/client</text>
<text text-anchor="middle" x="1617.41" y="-282" font-family="Helvetica,sans-Serif" font-size="10.00">/client_update_checker.cpp</text>
</a>
</g>
</g>
<!-- Node2 -->
<g id="Node000002" class="node">
<title>Node2</title>
<g id="a_Node000002"><a xlink:href="../../d5/d8e/client__update__checker_8h.html" target="_top" xlink:title="TODO: Document this.">
<polygon fill="white" stroke="#666666" points="1684.41,-233.5 1550.41,-233.5 1550.41,-214.5 1684.41,-214.5 1684.41,-233.5"/>
<text text-anchor="middle" x="1617.41" y="-221.5" font-family="Helvetica,sans-Serif" font-size="10.00">client_update_checker.h</text>
</a>
</g>
</g>
<!-- Node1&#45;&gt;Node2 -->
<g id="edge1_Node000001_Node000002" class="edge">
<title>Node1&#45;&gt;Node2</title>
<g id="a_edge1_Node000001_Node000002"><a xlink:title=" ">
<path fill="none" stroke="#63b8ff" d="M1617.41,-274.77C1617.41,-263.39 1617.41,-249.36 1617.41,-239.09"/>
<polygon fill="#63b8ff" stroke="#63b8ff" points="1617.41,-233.82 1619.66,-238.82 1617.41,-236.32 1617.41,-238.82 1617.41,-238.82 1617.41,-238.82 1617.41,-236.32 1615.16,-238.82 1617.41,-233.82 1617.41,-233.82"/>
</a>
</g>
</g>
<!-- Node4 -->
<g id="Node000004" class="node">
<title>Node4</title>
<g id="a_Node000004"><a xlink:href="../../dc/db3/cache__settings_8h.html" target="_top" xlink:title="TODO: Document this.">
<polygon fill="white" stroke="#666666" points="1155.41,-239 1041.41,-239 1041.41,-209 1155.41,-209 1155.41,-239"/>
<text text-anchor="start" x="1049.41" y="-227" font-family="Helvetica,sans-Serif" font-size="10.00">../../../settings/cache</text>
<text text-anchor="middle" x="1098.41" y="-216" font-family="Helvetica,sans-Serif" font-size="10.00">_settings.h</text>
</a>
</g>
</g>
<!-- Node1&#45;&gt;Node4 -->
<g id="edge3_Node000001_Node000004" class="edge">
<title>Node1&#45;&gt;Node4</title>
<g id="a_edge3_Node000001_Node000004"><a xlink:title=" ">
<path fill="none" stroke="#63b8ff" d="M1543.33,-284.58C1440.56,-270.82 1256.58,-246.18 1160.57,-233.32"/>
<polygon fill="#63b8ff" stroke="#63b8ff" points="1155.5,-232.65 1160.76,-231.08 1157.98,-232.98 1160.46,-233.31 1160.46,-233.31 1160.46,-233.31 1157.98,-232.98 1160.16,-235.54 1155.5,-232.65 1155.5,-232.65"/>
</a>
</g>
</g>
<!-- Node31 -->
<g id="Node000031" class="node">
<title>Node31</title>
<g id="a_Node000031"><a xlink:href="../../d6/d10/release__channel_8h.html" target="_top" xlink:title="TODO: Document this.">
<polygon fill="white" stroke="#666666" points="2050.91,-162 1945.91,-162 1945.91,-143 2050.91,-143 2050.91,-162"/>
<text text-anchor="middle" x="1998.41" y="-150" font-family="Helvetica,sans-Serif" font-size="10.00">release_channel.h</text>
</a>
</g>
</g>
<!-- Node1&#45;&gt;Node31 -->
<g id="edge47_Node000001_Node000031" class="edge">
<title>Node1&#45;&gt;Node31</title>
<g id="a_edge47_Node000001_Node000031"><a xlink:title=" ">
<path fill="none" stroke="#63b8ff" d="M1670.39,-274.89C1752.49,-244.51 1907.57,-187.12 1970.66,-163.77"/>
<polygon fill="#63b8ff" stroke="#63b8ff" points="1975.4,-162.02 1971.49,-165.86 1973.06,-162.88 1970.71,-163.75 1970.71,-163.75 1970.71,-163.75 1973.06,-162.88 1969.93,-161.64 1975.4,-162.02 1975.4,-162.02"/>
</a>
</g>
</g>
<!-- Node3 -->
<g id="Node000003" class="node">
<title>Node3</title>
<g id="a_Node000003"><a xlink:title=" ">
<polygon fill="#e0e0e0" stroke="#999999" points="1306.41,-85 1250.41,-85 1250.41,-66 1306.41,-66 1306.41,-85"/>
<text text-anchor="middle" x="1278.41" y="-73" font-family="Helvetica,sans-Serif" font-size="10.00">QObject</text>
</a>
</g>
</g>
<!-- Node2&#45;&gt;Node3 -->
<g id="edge2_Node000002_Node000003" class="edge">
<title>Node2&#45;&gt;Node3</title>
<g id="a_edge2_Node000002_Node000003"><a xlink:title=" ">
<path fill="none" stroke="#63b8ff" d="M1611.21,-214.24C1597.53,-195.68 1562.77,-152.4 1522.41,-132 1439.07,-89.87 1403.8,-126.14 1315.41,-96 1309.18,-93.88 1302.73,-90.81 1296.99,-87.74"/>
<polygon fill="#63b8ff" stroke="#63b8ff" points="1292.35,-85.18 1297.82,-85.63 1294.54,-86.39 1296.73,-87.6 1296.73,-87.6 1296.73,-87.6 1294.54,-86.39 1295.64,-89.57 1292.35,-85.18 1292.35,-85.18"/>
</a>
</g>
</g>
<!-- Node5 -->
<g id="Node000005" class="node">
<title>Node5</title>
<g id="a_Node000005"><a xlink:href="../../d0/dfd/shortcuts__settings_8h.html" target="_top" xlink:title="TODO: Document this.">
<polygon fill="white" stroke="#666666" points="1760.91,-162 1645.91,-162 1645.91,-143 1760.91,-143 1760.91,-162"/>
<text text-anchor="middle" x="1703.41" y="-150" font-family="Helvetica,sans-Serif" font-size="10.00">shortcuts_settings.h</text>
</a>
</g>
</g>
<!-- Node4&#45;&gt;Node5 -->
<g id="edge4_Node000004_Node000005" class="edge">
<title>Node4&#45;&gt;Node5</title>
<g id="a_edge4_Node000004_Node000005"><a xlink:title=" ">
<path fill="none" stroke="#63b8ff" d="M1155.74,-218.61C1248.13,-211.22 1435.57,-194.93 1593.41,-173 1613.43,-170.22 1635.38,-166.47 1654.36,-163"/>
<polygon fill="#63b8ff" stroke="#63b8ff" points="1659.64,-162.03 1655.13,-165.15 1657.18,-162.49 1654.72,-162.94 1654.72,-162.94 1654.72,-162.94 1657.18,-162.49 1654.31,-160.73 1659.64,-162.03 1659.64,-162.03"/>
</a>
</g>
</g>
<!-- Node8 -->
<g id="Node000008" class="node">
<title>Node8</title>
<g id="a_Node000008"><a xlink:title=" ">
<polygon fill="#e0e0e0" stroke="#999999" points="1601.91,-85 1494.91,-85 1494.91,-66 1601.91,-66 1601.91,-85"/>
<text text-anchor="middle" x="1548.41" y="-73" font-family="Helvetica,sans-Serif" font-size="10.00">QLoggingCategory</text>
</a>
</g>
</g>
<!-- Node4&#45;&gt;Node8 -->
<g id="edge10_Node000004_Node000008" class="edge">
<title>Node4&#45;&gt;Node8</title>
<g id="a_edge10_Node000004_Node000008"><a xlink:title=" ">
<path fill="none" stroke="#63b8ff" d="M1155.53,-220.52C1268.97,-215.04 1514.06,-200.15 1540.41,-173 1561.89,-150.87 1556.69,-110.9 1552.02,-90.02"/>
<polygon fill="#63b8ff" stroke="#63b8ff" points="1550.86,-85.15 1554.21,-89.49 1551.44,-87.58 1552.02,-90.02 1552.02,-90.02 1552.02,-90.02 1551.44,-87.58 1549.83,-90.54 1550.86,-85.15 1550.86,-85.15"/>
</a>
</g>
</g>
<!-- Node10 -->
<g id="Node000010" class="node">
<title>Node10</title>
<g id="a_Node000010"><a xlink:title=" ">
<polygon fill="#e0e0e0" stroke="#999999" points="1986.91,-85 1939.91,-85 1939.91,-66 1986.91,-66 1986.91,-85"/>
<text text-anchor="middle" x="1963.41" y="-73" font-family="Helvetica,sans-Serif" font-size="10.00">QDate</text>
</a>
</g>
</g>
<!-- Node4&#45;&gt;Node10 -->
<g id="edge9_Node000004_Node000010" class="edge">
<title>Node4&#45;&gt;Node10</title>
<g id="a_edge9_Node000004_Node000010"><a xlink:title=" ">
<path fill="none" stroke="#63b8ff" d="M1155.51,-220.81C1333.16,-213.83 1866.24,-191.43 1898.41,-173 1915.25,-163.35 1943.44,-113.8 1956.45,-89.7"/>
<polygon fill="#63b8ff" stroke="#63b8ff" points="1958.84,-85.24 1958.46,-90.71 1957.66,-87.44 1956.48,-89.65 1956.48,-89.65 1956.48,-89.65 1957.66,-87.44 1954.49,-88.58 1958.84,-85.24 1958.84,-85.24"/>
</a>
</g>
</g>
<!-- Node11 -->
<g id="Node000011" class="node">
<title>Node11</title>
<g id="a_Node000011"><a xlink:title=" ">
<polygon fill="#e0e0e0" stroke="#999999" points="1027.41,-85 983.41,-85 983.41,-66 1027.41,-66 1027.41,-85"/>
<text text-anchor="middle" x="1005.41" y="-73" font-family="Helvetica,sans-Serif" font-size="10.00">QSize</text>
</a>
</g>
</g>
<!-- Node4&#45;&gt;Node11 -->
<g id="edge11_Node000004_Node000011" class="edge">
<title>Node4&#45;&gt;Node11</title>
<g id="a_edge11_Node000004_Node000011"><a xlink:title=" ">
<path fill="none" stroke="#63b8ff" d="M1089.49,-208.95C1071.53,-180.65 1031.21,-117.14 1013.74,-89.63"/>
<polygon fill="#63b8ff" stroke="#63b8ff" points="1010.95,-85.23 1015.53,-88.24 1012.29,-87.34 1013.63,-89.45 1013.63,-89.45 1013.63,-89.45 1012.29,-87.34 1011.73,-90.65 1010.95,-85.23 1010.95,-85.23"/>
</a>
</g>
</g>
<!-- Node12 -->
<g id="Node000012" class="node">
<title>Node12</title>
<g id="a_Node000012"><a xlink:title=" ">
<polygon fill="#e0e0e0" stroke="#999999" points="340.41,-19 270.41,-19 270.41,0 340.41,0 340.41,-19"/>
<text text-anchor="middle" x="305.41" y="-7" font-family="Helvetica,sans-Serif" font-size="10.00">QStringList</text>
</a>
</g>
</g>
<!-- Node4&#45;&gt;Node12 -->
<g id="edge12_Node000004_Node000012" class="edge">
<title>Node4&#45;&gt;Node12</title>
<g id="a_edge12_Node000004_Node000012"><a xlink:title=" ">
<path fill="none" stroke="#63b8ff" d="M1041.4,-222.5C824.58,-220.3 61.71,-209.98 26.41,-173 -9.8,-135.06 -7.63,-94.9 26.41,-55 56.58,-19.63 195.05,-12.24 264.89,-10.79"/>
<polygon fill="#63b8ff" stroke="#63b8ff" points="270.2,-10.69 265.25,-13.03 267.7,-10.74 265.2,-10.78 265.2,-10.78 265.2,-10.78 267.7,-10.74 265.16,-8.53 270.2,-10.69 270.2,-10.69"/>
</a>
</g>
</g>
<!-- Node13 -->
<g id="Node000013" class="node">
<title>Node13</title>
<g id="a_Node000013"><a xlink:href="../../d0/d7f/interface__card__database__path__provider_8h.html" target="_top" xlink:title=" ">
<polygon fill="white" stroke="#666666" points="1375.41,-173 1235.41,-173 1235.41,-132 1375.41,-132 1375.41,-173"/>
<text text-anchor="start" x="1243.41" y="-161" font-family="Helvetica,sans-Serif" font-size="10.00">libcockatrice/interfaces</text>
<text text-anchor="start" x="1243.41" y="-150" font-family="Helvetica,sans-Serif" font-size="10.00">/interface_card_database</text>
<text text-anchor="middle" x="1305.41" y="-139" font-family="Helvetica,sans-Serif" font-size="10.00">_path_provider.h</text>
</a>
</g>
</g>
<!-- Node4&#45;&gt;Node13 -->
<g id="edge13_Node000004_Node000013" class="edge">
<title>Node4&#45;&gt;Node13</title>
<g id="a_edge13_Node000004_Node000013"><a xlink:title=" ">
<path fill="none" stroke="#63b8ff" d="M1140.3,-208.94C1169.58,-199.11 1209.19,-185.81 1242.28,-174.7"/>
<polygon fill="#63b8ff" stroke="#63b8ff" points="1247.11,-173.07 1243.09,-176.8 1244.74,-173.87 1242.37,-174.67 1242.37,-174.67 1242.37,-174.67 1244.74,-173.87 1241.66,-172.53 1247.11,-173.07 1247.11,-173.07"/>
</a>
</g>
</g>
<!-- Node14 -->
<g id="Node000014" class="node">
<title>Node14</title>
<g id="a_Node000014"><a xlink:href="../../de/d51/interface__network__settings__provider_8h.html" target="_top" xlink:title=" ">
<polygon fill="white" stroke="#666666" points="1476.41,-96 1324.41,-96 1324.41,-55 1476.41,-55 1476.41,-96"/>
<text text-anchor="start" x="1332.41" y="-84" font-family="Helvetica,sans-Serif" font-size="10.00">libcockatrice/interfaces</text>
<text text-anchor="start" x="1332.41" y="-73" font-family="Helvetica,sans-Serif" font-size="10.00">/interface_network_settings</text>
<text text-anchor="middle" x="1400.41" y="-62" font-family="Helvetica,sans-Serif" font-size="10.00">_provider.h</text>
</a>
</g>
</g>
<!-- Node4&#45;&gt;Node14 -->
<g id="edge15_Node000004_Node000014" class="edge">
<title>Node4&#45;&gt;Node14</title>
<g id="a_edge15_Node000004_Node000014"><a xlink:title=" ">
<path fill="none" stroke="#63b8ff" d="M1155.49,-220.41C1265.56,-214.84 1498.43,-199.97 1522.41,-173 1534.52,-159.38 1532.27,-147.32 1522.41,-132 1512.63,-116.8 1497.54,-105.71 1481.28,-97.64"/>
<polygon fill="#63b8ff" stroke="#63b8ff" points="1476.66,-95.45 1482.14,-95.56 1478.92,-96.52 1481.18,-97.59 1481.18,-97.59 1481.18,-97.59 1478.92,-96.52 1480.21,-99.63 1476.66,-95.45 1476.66,-95.45"/>
</a>
</g>
</g>
<!-- Node16 -->
<g id="Node000016" class="node">
<title>Node16</title>
<g id="a_Node000016"><a xlink:href="../../d6/d0c/card__database__settings_8h.html" target="_top" xlink:title="TODO: Document this.">
<polygon fill="white" stroke="#666666" points="179.41,-167.5 35.41,-167.5 35.41,-137.5 179.41,-137.5 179.41,-167.5"/>
<text text-anchor="start" x="43.41" y="-155.5" font-family="Helvetica,sans-Serif" font-size="10.00">libcockatrice/settings</text>
<text text-anchor="middle" x="107.41" y="-144.5" font-family="Helvetica,sans-Serif" font-size="10.00">/card_database_settings.h</text>
</a>
</g>
</g>
<!-- Node4&#45;&gt;Node16 -->
<g id="edge17_Node000004_Node000016" class="edge">
<title>Node4&#45;&gt;Node16</title>
<g id="a_edge17_Node000004_Node000016"><a xlink:title=" ">
<path fill="none" stroke="#63b8ff" d="M1041.35,-223.44C897.44,-223.79 508.36,-219.91 188.41,-173 180.71,-171.87 172.66,-170.35 164.76,-168.66"/>
<polygon fill="#63b8ff" stroke="#63b8ff" points="159.86,-167.59 165.23,-166.46 162.3,-168.12 164.75,-168.66 164.75,-168.66 164.75,-168.66 162.3,-168.12 164.26,-170.86 159.86,-167.59 159.86,-167.59"/>
</a>
</g>
</g>
<!-- Node20 -->
<g id="Node000020" class="node">
<title>Node20</title>
<g id="a_Node000020"><a xlink:href="../../d4/d33/card__override__settings_8h.html" target="_top" xlink:title="TODO: Document this.">
<polygon fill="white" stroke="#666666" points="1217.41,-167.5 1077.41,-167.5 1077.41,-137.5 1217.41,-137.5 1217.41,-167.5"/>
<text text-anchor="start" x="1085.41" y="-155.5" font-family="Helvetica,sans-Serif" font-size="10.00">libcockatrice/settings</text>
<text text-anchor="middle" x="1147.41" y="-144.5" font-family="Helvetica,sans-Serif" font-size="10.00">/card_override_settings.h</text>
</a>
</g>
</g>
<!-- Node4&#45;&gt;Node20 -->
<g id="edge23_Node000004_Node000020" class="edge">
<title>Node4&#45;&gt;Node20</title>
<g id="a_edge23_Node000004_Node000020"><a xlink:title=" ">
<path fill="none" stroke="#63b8ff" d="M1108.33,-208.94C1115.9,-198.2 1126.39,-183.31 1134.6,-171.67"/>
<polygon fill="#63b8ff" stroke="#63b8ff" points="1137.51,-167.54 1136.47,-172.93 1136.07,-169.59 1134.63,-171.63 1134.63,-171.63 1134.63,-171.63 1136.07,-169.59 1132.79,-170.33 1137.51,-167.54 1137.51,-167.54"/>
</a>
</g>
</g>
<!-- Node22 -->
<g id="Node000022" class="node">
<title>Node22</title>
<g id="a_Node000022"><a xlink:href="../../d9/d91/debug__settings_8h.html" target="_top" xlink:title="TODO: Document this.">
<polygon fill="white" stroke="#666666" points="883.41,-167.5 763.41,-167.5 763.41,-137.5 883.41,-137.5 883.41,-167.5"/>
<text text-anchor="start" x="771.41" y="-155.5" font-family="Helvetica,sans-Serif" font-size="10.00">libcockatrice/settings</text>
<text text-anchor="middle" x="823.41" y="-144.5" font-family="Helvetica,sans-Serif" font-size="10.00">/debug_settings.h</text>
</a>
</g>
</g>
<!-- Node4&#45;&gt;Node22 -->
<g id="edge28_Node000004_Node000022" class="edge">
<title>Node4&#45;&gt;Node22</title>
<g id="a_edge28_Node000004_Node000022"><a xlink:title=" ">
<path fill="none" stroke="#63b8ff" d="M1040.99,-209.67C999.59,-199.91 942.42,-186.13 892.41,-173 887.53,-171.72 882.47,-170.36 877.41,-168.97"/>
<polygon fill="#63b8ff" stroke="#63b8ff" points="872.35,-167.57 877.77,-166.73 874.76,-168.24 877.17,-168.9 877.17,-168.9 877.17,-168.9 874.76,-168.24 876.57,-171.07 872.35,-167.57 872.35,-167.57"/>
</a>
</g>
</g>
<!-- Node23 -->
<g id="Node000023" class="node">
<title>Node23</title>
<g id="a_Node000023"><a xlink:href="../../d0/de1/download__settings_8h.html" target="_top" xlink:title="TODO: Document this.">
<polygon fill="white" stroke="#666666" points="317.41,-167.5 197.41,-167.5 197.41,-137.5 317.41,-137.5 317.41,-167.5"/>
<text text-anchor="start" x="205.41" y="-155.5" font-family="Helvetica,sans-Serif" font-size="10.00">libcockatrice/settings</text>
<text text-anchor="middle" x="257.41" y="-144.5" font-family="Helvetica,sans-Serif" font-size="10.00">/download_settings.h</text>
</a>
</g>
</g>
<!-- Node4&#45;&gt;Node23 -->
<g id="edge30_Node000004_Node000023" class="edge">
<title>Node4&#45;&gt;Node23</title>
<g id="a_edge30_Node000004_Node000023"><a xlink:title=" ">
<path fill="none" stroke="#63b8ff" d="M1041.27,-223.39C912.62,-223.39 590.82,-218.4 326.41,-173 320.06,-171.91 313.45,-170.46 306.95,-168.85"/>
<polygon fill="#63b8ff" stroke="#63b8ff" points="302.01,-167.58 307.41,-166.64 304.43,-168.2 306.85,-168.82 306.85,-168.82 306.85,-168.82 304.43,-168.2 306.29,-171 302.01,-167.58 302.01,-167.58"/>
</a>
</g>
</g>
<!-- Node24 -->
<g id="Node000024" class="node">
<title>Node24</title>
<g id="a_Node000024"><a xlink:href="../../d9/dfd/game__filters__settings_8h.html" target="_top" xlink:title="TODO: Document this.">
<polygon fill="white" stroke="#666666" points="469.41,-167.5 335.41,-167.5 335.41,-137.5 469.41,-137.5 469.41,-167.5"/>
<text text-anchor="start" x="343.41" y="-155.5" font-family="Helvetica,sans-Serif" font-size="10.00">libcockatrice/settings</text>
<text text-anchor="middle" x="402.41" y="-144.5" font-family="Helvetica,sans-Serif" font-size="10.00">/game_filters_settings.h</text>
</a>
</g>
</g>
<!-- Node4&#45;&gt;Node24 -->
<g id="edge32_Node000004_Node000024" class="edge">
<title>Node4&#45;&gt;Node24</title>
<g id="a_edge32_Node000004_Node000024"><a xlink:title=" ">
<path fill="none" stroke="#63b8ff" d="M1041.17,-221.64C931.33,-218.32 683.7,-207.36 478.41,-173 471.42,-171.83 464.14,-170.33 456.97,-168.69"/>
<polygon fill="#63b8ff" stroke="#63b8ff" points="452.03,-167.52 457.41,-166.48 454.46,-168.1 456.89,-168.67 456.89,-168.67 456.89,-168.67 454.46,-168.1 456.38,-170.86 452.03,-167.52 452.03,-167.52"/>
</a>
</g>
</g>
<!-- Node25 -->
<g id="Node000025" class="node">
<title>Node25</title>
<g id="a_Node000025"><a xlink:href="../../d9/df1/layouts__settings_8h.html" target="_top" xlink:title="TODO: Document this.">
<polygon fill="white" stroke="#666666" points="1021.41,-167.5 901.41,-167.5 901.41,-137.5 1021.41,-137.5 1021.41,-167.5"/>
<text text-anchor="start" x="909.41" y="-155.5" font-family="Helvetica,sans-Serif" font-size="10.00">libcockatrice/settings</text>
<text text-anchor="middle" x="961.41" y="-144.5" font-family="Helvetica,sans-Serif" font-size="10.00">/layouts_settings.h</text>
</a>
</g>
</g>
<!-- Node4&#45;&gt;Node25 -->
<g id="edge34_Node000004_Node000025" class="edge">
<title>Node4&#45;&gt;Node25</title>
<g id="a_edge34_Node000004_Node000025"><a xlink:title=" ">
<path fill="none" stroke="#63b8ff" d="M1070.69,-208.94C1048.4,-197.63 1017.07,-181.74 993.66,-169.86"/>
<polygon fill="#63b8ff" stroke="#63b8ff" points="989.09,-167.54 994.57,-167.8 991.32,-168.67 993.55,-169.81 993.55,-169.81 993.55,-169.81 991.32,-168.67 992.53,-171.81 989.09,-167.54 989.09,-167.54"/>
</a>
</g>
</g>
<!-- Node26 -->
<g id="Node000026" class="node">
<title>Node26</title>
<g id="a_Node000026"><a xlink:href="../../db/d2c/message__settings_8h.html" target="_top" xlink:title="TODO: Document this.">
<polygon fill="white" stroke="#666666" points="607.41,-167.5 487.41,-167.5 487.41,-137.5 607.41,-137.5 607.41,-167.5"/>
<text text-anchor="start" x="495.41" y="-155.5" font-family="Helvetica,sans-Serif" font-size="10.00">libcockatrice/settings</text>
<text text-anchor="middle" x="547.41" y="-144.5" font-family="Helvetica,sans-Serif" font-size="10.00">/message_settings.h</text>
</a>
</g>
</g>
<!-- Node4&#45;&gt;Node26 -->
<g id="edge37_Node000004_Node000026" class="edge">
<title>Node4&#45;&gt;Node26</title>
<g id="a_edge37_Node000004_Node000026"><a xlink:title=" ">
<path fill="none" stroke="#63b8ff" d="M1041.18,-220.25C950.43,-215.19 768.23,-202.1 616.41,-173 610.39,-171.85 604.14,-170.42 597.96,-168.86"/>
<polygon fill="#63b8ff" stroke="#63b8ff" points="592.8,-167.52 598.2,-166.6 595.22,-168.15 597.64,-168.77 597.64,-168.77 597.64,-168.77 595.22,-168.15 597.07,-170.95 592.8,-167.52 592.8,-167.52"/>
</a>
</g>
</g>
<!-- Node27 -->
<g id="Node000027" class="node">
<title>Node27</title>
<g id="a_Node000027"><a xlink:href="../../db/daf/recents__settings_8h.html" target="_top" xlink:title="TODO: Document this.">
<polygon fill="white" stroke="#666666" points="745.41,-167.5 625.41,-167.5 625.41,-137.5 745.41,-137.5 745.41,-167.5"/>
<text text-anchor="start" x="633.41" y="-155.5" font-family="Helvetica,sans-Serif" font-size="10.00">libcockatrice/settings</text>
<text text-anchor="middle" x="685.41" y="-144.5" font-family="Helvetica,sans-Serif" font-size="10.00">/recents_settings.h</text>
</a>
</g>
</g>
<!-- Node4&#45;&gt;Node27 -->
<g id="edge39_Node000004_Node000027" class="edge">
<title>Node4&#45;&gt;Node27</title>
<g id="a_edge39_Node000004_Node000027"><a xlink:title=" ">
<path fill="none" stroke="#63b8ff" d="M1041.4,-217.03C972.83,-209.32 854.46,-194.31 754.41,-173 748.7,-171.78 742.77,-170.36 736.89,-168.84"/>
<polygon fill="#63b8ff" stroke="#63b8ff" points="731.97,-167.55 737.38,-166.65 734.39,-168.19 736.81,-168.82 736.81,-168.82 736.81,-168.82 734.39,-168.19 736.24,-171 731.97,-167.55 731.97,-167.55"/>
</a>
</g>
</g>
<!-- Node28 -->
<g id="Node000028" class="node">
<title>Node28</title>
<g id="a_Node000028"><a xlink:href="../../db/db0/servers__settings_8h.html" target="_top" xlink:title="TODO: Document this.">
<polygon fill="white" stroke="#666666" points="1513.41,-167.5 1393.41,-167.5 1393.41,-137.5 1513.41,-137.5 1513.41,-167.5"/>
<text text-anchor="start" x="1401.41" y="-155.5" font-family="Helvetica,sans-Serif" font-size="10.00">libcockatrice/settings</text>
<text text-anchor="middle" x="1453.41" y="-144.5" font-family="Helvetica,sans-Serif" font-size="10.00">/servers_settings.h</text>
</a>
</g>
</g>
<!-- Node4&#45;&gt;Node28 -->
<g id="edge41_Node000004_Node000028" class="edge">
<title>Node4&#45;&gt;Node28</title>
<g id="a_edge41_Node000004_Node000028"><a xlink:title=" ">
<path fill="none" stroke="#63b8ff" d="M1155.46,-214.79C1213.43,-206.03 1305.66,-190.96 1384.41,-173 1389.8,-171.77 1395.4,-170.38 1400.96,-168.92"/>
<polygon fill="#63b8ff" stroke="#63b8ff" points="1406.06,-167.57 1401.81,-171.03 1403.65,-168.21 1401.23,-168.85 1401.23,-168.85 1401.23,-168.85 1403.65,-168.21 1400.65,-166.68 1406.06,-167.57 1406.06,-167.57"/>
</a>
</g>
</g>
<!-- Node29 -->
<g id="Node000029" class="node">
<title>Node29</title>
<g id="a_Node000029"><a xlink:href="../../de/d3c/macros_8h.html" target="_top" xlink:title=" ">
<polygon fill="white" stroke="#666666" points="1889.41,-167.5 1779.41,-167.5 1779.41,-137.5 1889.41,-137.5 1889.41,-167.5"/>
<text text-anchor="start" x="1787.41" y="-155.5" font-family="Helvetica,sans-Serif" font-size="10.00">libcockatrice/utility</text>
<text text-anchor="middle" x="1834.41" y="-144.5" font-family="Helvetica,sans-Serif" font-size="10.00">/macros.h</text>
</a>
</g>
</g>
<!-- Node4&#45;&gt;Node29 -->
<g id="edge45_Node000004_Node000029" class="edge">
<title>Node4&#45;&gt;Node29</title>
<g id="a_edge45_Node000004_Node000029"><a xlink:title=" ">
<path fill="none" stroke="#63b8ff" d="M1155.6,-222.99C1272.25,-222.05 1545.6,-215.07 1770.41,-173 1776.21,-171.91 1782.22,-170.49 1788.14,-168.91"/>
<polygon fill="#63b8ff" stroke="#63b8ff" points="1793.09,-167.55 1788.86,-171.05 1790.68,-168.21 1788.27,-168.88 1788.27,-168.88 1788.27,-168.88 1790.68,-168.21 1787.67,-166.71 1793.09,-167.55 1793.09,-167.55"/>
</a>
</g>
</g>
<!-- Node6 -->
<g id="Node000006" class="node">
<title>Node6</title>
<g id="a_Node000006"><a xlink:title=" ">
<polygon fill="#e0e0e0" stroke="#999999" points="1844.91,-85 1765.91,-85 1765.91,-66 1844.91,-66 1844.91,-85"/>
<text text-anchor="middle" x="1805.41" y="-73" font-family="Helvetica,sans-Serif" font-size="10.00">QApplication</text>
</a>
</g>
</g>
<!-- Node5&#45;&gt;Node6 -->
<g id="edge5_Node000005_Node000006" class="edge">
<title>Node5&#45;&gt;Node6</title>
<g id="a_edge5_Node000005_Node000006"><a xlink:title=" ">
<path fill="none" stroke="#63b8ff" d="M1715.11,-142.9C1733.48,-129.39 1769.11,-103.19 1789.69,-88.06"/>
<polygon fill="#63b8ff" stroke="#63b8ff" points="1793.85,-85 1791.15,-89.78 1791.83,-86.48 1789.82,-87.97 1789.82,-87.97 1789.82,-87.97 1791.83,-86.48 1788.49,-86.15 1793.85,-85 1793.85,-85"/>
</a>
</g>
</g>
<!-- Node7 -->
<g id="Node000007" class="node">
<title>Node7</title>
<g id="a_Node000007"><a xlink:title=" ">
<polygon fill="#e0e0e0" stroke="#999999" points="1747.91,-85 1658.91,-85 1658.91,-66 1747.91,-66 1747.91,-85"/>
<text text-anchor="middle" x="1703.41" y="-73" font-family="Helvetica,sans-Serif" font-size="10.00">QKeySequence</text>
</a>
</g>
</g>
<!-- Node5&#45;&gt;Node7 -->
<g id="edge6_Node000005_Node000007" class="edge">
<title>Node5&#45;&gt;Node7</title>
<g id="a_edge6_Node000005_Node000007"><a xlink:title=" ">
<path fill="none" stroke="#63b8ff" d="M1703.41,-142.9C1703.41,-130.01 1703.41,-105.58 1703.41,-90.21"/>
<polygon fill="#63b8ff" stroke="#63b8ff" points="1703.41,-85 1705.66,-90 1703.41,-87.5 1703.41,-90 1703.41,-90 1703.41,-90 1703.41,-87.5 1701.16,-90 1703.41,-85 1703.41,-85"/>
</a>
</g>
</g>
<!-- Node5&#45;&gt;Node8 -->
<g id="edge7_Node000005_Node000008" class="edge">
<title>Node5&#45;&gt;Node8</title>
<g id="a_edge7_Node000005_Node000008"><a xlink:title=" ">
<path fill="none" stroke="#63b8ff" d="M1685.63,-142.9C1657.25,-129.16 1601.76,-102.31 1570.74,-87.31"/>
<polygon fill="#63b8ff" stroke="#63b8ff" points="1565.98,-85 1571.46,-85.16 1568.23,-86.09 1570.48,-87.18 1570.48,-87.18 1570.48,-87.18 1568.23,-86.09 1569.5,-89.21 1565.98,-85 1565.98,-85"/>
</a>
</g>
</g>
<!-- Node9 -->
<g id="Node000009" class="node">
<title>Node9</title>
<g id="a_Node000009"><a xlink:title=" ">
<polygon fill="#e0e0e0" stroke="#999999" points="1076.41,-19 1012.41,-19 1012.41,0 1076.41,0 1076.41,-19"/>
<text text-anchor="middle" x="1044.41" y="-7" font-family="Helvetica,sans-Serif" font-size="10.00">QSettings</text>
</a>
</g>
</g>
<!-- Node5&#45;&gt;Node9 -->
<g id="edge8_Node000005_Node000009" class="edge">
<title>Node5&#45;&gt;Node9</title>
<g id="a_edge8_Node000005_Node000009"><a xlink:title=" ">
<path fill="none" stroke="#63b8ff" d="M1695.14,-142.85C1684.71,-131.94 1666.22,-112.59 1650.41,-96 1633.06,-77.79 1634.12,-65.81 1611.41,-55 1563.75,-32.31 1200.15,-16.48 1081.63,-11.88"/>
<polygon fill="#63b8ff" stroke="#63b8ff" points="1076.51,-11.68 1081.59,-9.63 1079.01,-11.78 1081.51,-11.87 1081.51,-11.87 1081.51,-11.87 1079.01,-11.78 1081.42,-14.12 1076.51,-11.68 1076.51,-11.68"/>
</a>
</g>
</g>
<!-- Node13&#45;&gt;Node3 -->
<g id="edge14_Node000013_Node000003" class="edge">
<title>Node13&#45;&gt;Node3</title>
<g id="a_edge14_Node000013_Node000003"><a xlink:title=" ">
<path fill="none" stroke="#63b8ff" d="M1298.32,-131.79C1293.6,-118.7 1287.53,-101.83 1283.34,-90.19"/>
<polygon fill="#63b8ff" stroke="#63b8ff" points="1281.56,-85.24 1285.37,-89.18 1282.4,-87.59 1283.25,-89.94 1283.25,-89.94 1283.25,-89.94 1282.4,-87.59 1281.13,-90.7 1281.56,-85.24 1281.56,-85.24"/>
</a>
</g>
</g>
<!-- Node15 -->
<g id="Node000015" class="node">
<title>Node15</title>
<g id="a_Node000015"><a xlink:title=" ">
<polygon fill="#e0e0e0" stroke="#999999" points="1426.91,-19 1373.91,-19 1373.91,0 1426.91,0 1426.91,-19"/>
<text text-anchor="middle" x="1400.41" y="-7" font-family="Helvetica,sans-Serif" font-size="10.00">QString</text>
</a>
</g>
</g>
<!-- Node14&#45;&gt;Node15 -->
<g id="edge16_Node000014_Node000015" class="edge">
<title>Node14&#45;&gt;Node15</title>
<g id="a_edge16_Node000014_Node000015"><a xlink:title=" ">
<path fill="none" stroke="#63b8ff" d="M1400.41,-54.95C1400.41,-45.09 1400.41,-33.35 1400.41,-24.42"/>
<polygon fill="#63b8ff" stroke="#63b8ff" points="1400.41,-19.26 1402.66,-24.26 1400.41,-21.76 1400.41,-24.26 1400.41,-24.26 1400.41,-24.26 1400.41,-21.76 1398.16,-24.26 1400.41,-19.26 1400.41,-19.26"/>
</a>
</g>
</g>
<!-- Node17 -->
<g id="Node000017" class="node">
<title>Node17</title>
<g id="a_Node000017"><a xlink:href="../../d2/d62/settings__manager_8h.html" target="_top" xlink:title="TODO: Document this.">
<polygon fill="white" stroke="#666666" points="741.91,-85 628.91,-85 628.91,-66 741.91,-66 741.91,-85"/>
<text text-anchor="middle" x="685.41" y="-73" font-family="Helvetica,sans-Serif" font-size="10.00">settings_manager.h</text>
</a>
</g>
</g>
<!-- Node16&#45;&gt;Node17 -->
<g id="edge18_Node000016_Node000017" class="edge">
<title>Node16&#45;&gt;Node17</title>
<g id="a_edge18_Node000016_Node000017"><a xlink:title=" ">
<path fill="none" stroke="#63b8ff" d="M161.68,-137.45C170.57,-135.43 179.72,-133.53 188.41,-132 343.89,-104.71 529.21,-88.19 623.56,-80.91"/>
<polygon fill="#63b8ff" stroke="#63b8ff" points="628.81,-80.5 624,-83.13 626.32,-80.7 623.83,-80.89 623.83,-80.89 623.83,-80.89 626.32,-80.7 623.65,-78.64 628.81,-80.5 628.81,-80.5"/>
</a>
</g>
</g>
<!-- Node19 -->
<g id="Node000019" class="node">
<title>Node19</title>
<g id="a_Node000019"><a xlink:href="../../d7/de6/interface__card__set__priority__controller_8h.html" target="_top" xlink:title=" ">
<polygon fill="white" stroke="#666666" points="185.41,-96 35.41,-96 35.41,-55 185.41,-55 185.41,-96"/>
<text text-anchor="start" x="43.41" y="-84" font-family="Helvetica,sans-Serif" font-size="10.00">libcockatrice/interfaces</text>
<text text-anchor="start" x="43.41" y="-73" font-family="Helvetica,sans-Serif" font-size="10.00">/interface_card_set_priority</text>
<text text-anchor="middle" x="110.41" y="-62" font-family="Helvetica,sans-Serif" font-size="10.00">_controller.h</text>
</a>
</g>
</g>
<!-- Node16&#45;&gt;Node19 -->
<g id="edge22_Node000016_Node000019" class="edge">
<title>Node16&#45;&gt;Node19</title>
<g id="a_edge22_Node000016_Node000019"><a xlink:title=" ">
<path fill="none" stroke="#63b8ff" d="M107.98,-137.39C108.38,-127.22 108.94,-113.22 109.42,-101.21"/>
<polygon fill="#63b8ff" stroke="#63b8ff" points="109.62,-96.2 111.67,-101.29 109.52,-98.7 109.42,-101.2 109.42,-101.2 109.42,-101.2 109.52,-98.7 107.17,-101.11 109.62,-96.2 109.62,-96.2"/>
</a>
</g>
</g>
<!-- Node17&#45;&gt;Node9 -->
<g id="edge19_Node000017_Node000009" class="edge">
<title>Node17&#45;&gt;Node9</title>
<g id="a_edge19_Node000017_Node000009"><a xlink:title=" ">
<path fill="none" stroke="#63b8ff" d="M733.45,-65.94C805.89,-53.02 941.55,-28.84 1007.09,-17.15"/>
<polygon fill="#63b8ff" stroke="#63b8ff" points="1012.06,-16.27 1007.54,-19.36 1009.6,-16.71 1007.14,-17.14 1007.14,-17.14 1007.14,-17.14 1009.6,-16.71 1006.75,-14.93 1012.06,-16.27 1012.06,-16.27"/>
</a>
</g>
</g>
<!-- Node17&#45;&gt;Node12 -->
<g id="edge20_Node000017_Node000012" class="edge">
<title>Node17&#45;&gt;Node12</title>
<g id="a_edge20_Node000017_Node000012"><a xlink:title=" ">
<path fill="none" stroke="#63b8ff" d="M634.56,-65.94C558.18,-53.07 415.39,-29.02 345.72,-17.29"/>
<polygon fill="#63b8ff" stroke="#63b8ff" points="340.43,-16.4 345.73,-15.01 342.9,-16.81 345.36,-17.23 345.36,-17.23 345.36,-17.23 342.9,-16.81 344.99,-19.45 340.43,-16.4 340.43,-16.4"/>
</a>
</g>
</g>
<!-- Node18 -->
<g id="Node000018" class="node">
<title>Node18</title>
<g id="a_Node000018"><a xlink:title=" ">
<polygon fill="#e0e0e0" stroke="#999999" points="714.91,-19 655.91,-19 655.91,0 714.91,0 714.91,-19"/>
<text text-anchor="middle" x="685.41" y="-7" font-family="Helvetica,sans-Serif" font-size="10.00">QVariant</text>
</a>
</g>
</g>
<!-- Node17&#45;&gt;Node18 -->
<g id="edge21_Node000017_Node000018" class="edge">
<title>Node17&#45;&gt;Node18</title>
<g id="a_edge21_Node000017_Node000018"><a xlink:title=" ">
<path fill="none" stroke="#63b8ff" d="M685.41,-65.87C685.41,-55.24 685.41,-37.05 685.41,-24.43"/>
<polygon fill="#63b8ff" stroke="#63b8ff" points="685.41,-19.41 687.66,-24.41 685.41,-21.91 685.41,-24.41 685.41,-24.41 685.41,-24.41 685.41,-21.91 683.16,-24.41 685.41,-19.41 685.41,-19.41"/>
</a>
</g>
</g>
<!-- Node20&#45;&gt;Node3 -->
<g id="edge25_Node000020_Node000003" class="edge">
<title>Node20&#45;&gt;Node3</title>
<g id="a_edge25_Node000020_Node000003"><a xlink:title=" ">
<path fill="none" stroke="#63b8ff" d="M1172.05,-137.39C1197.2,-122.99 1235.74,-100.93 1258.87,-87.69"/>
<polygon fill="#63b8ff" stroke="#63b8ff" points="1263.28,-85.16 1260.06,-89.6 1261.11,-86.4 1258.94,-87.65 1258.94,-87.65 1258.94,-87.65 1261.11,-86.4 1257.82,-85.69 1263.28,-85.16 1263.28,-85.16"/>
</a>
</g>
</g>
<!-- Node20&#45;&gt;Node17 -->
<g id="edge24_Node000020_Node000017" class="edge">
<title>Node20&#45;&gt;Node17</title>
<g id="a_edge24_Node000020_Node000017"><a xlink:title=" ">
<path fill="none" stroke="#63b8ff" d="M1077.2,-139.73C1061.79,-137.17 1045.55,-134.48 1030.41,-132 929.91,-115.54 812.86,-96.8 744.18,-85.85"/>
<polygon fill="#63b8ff" stroke="#63b8ff" points="738.91,-85.01 744.2,-83.58 741.38,-85.4 743.85,-85.8 743.85,-85.8 743.85,-85.8 741.38,-85.4 743.5,-88.02 738.91,-85.01 738.91,-85.01"/>
</a>
</g>
</g>
<!-- Node21 -->
<g id="Node000021" class="node">
<title>Node21</title>
<g id="a_Node000021"><a xlink:href="../../dc/d89/card__ref_8h.html" target="_top" xlink:title=" ">
<polygon fill="white" stroke="#666666" points="1217.41,-90.5 1107.41,-90.5 1107.41,-60.5 1217.41,-60.5 1217.41,-90.5"/>
<text text-anchor="start" x="1115.41" y="-78.5" font-family="Helvetica,sans-Serif" font-size="10.00">libcockatrice/utility</text>
<text text-anchor="middle" x="1162.41" y="-67.5" font-family="Helvetica,sans-Serif" font-size="10.00">/card_ref.h</text>
</a>
</g>
</g>
<!-- Node20&#45;&gt;Node21 -->
<g id="edge26_Node000020_Node000021" class="edge">
<title>Node20&#45;&gt;Node21</title>
<g id="a_edge26_Node000020_Node000021"><a xlink:title=" ">
<path fill="none" stroke="#63b8ff" d="M1150.23,-137.39C1152.6,-125.56 1156,-108.54 1158.61,-95.5"/>
<polygon fill="#63b8ff" stroke="#63b8ff" points="1159.6,-90.54 1160.83,-95.89 1159.11,-93 1158.62,-95.45 1158.62,-95.45 1158.62,-95.45 1159.11,-93 1156.42,-95.01 1159.6,-90.54 1159.6,-90.54"/>
</a>
</g>
</g>
<!-- Node21&#45;&gt;Node15 -->
<g id="edge27_Node000021_Node000015" class="edge">
<title>Node21&#45;&gt;Node15</title>
<g id="a_edge27_Node000021_Node000015"><a xlink:title=" ">
<path fill="none" stroke="#63b8ff" d="M1214.64,-60.45C1261.65,-47.81 1329.22,-29.64 1368.59,-19.06"/>
<polygon fill="#63b8ff" stroke="#63b8ff" points="1373.72,-17.68 1369.47,-21.15 1371.3,-18.33 1368.89,-18.98 1368.89,-18.98 1368.89,-18.98 1371.3,-18.33 1368.31,-16.8 1373.72,-17.68 1373.72,-17.68"/>
</a>
</g>
</g>
<!-- Node22&#45;&gt;Node17 -->
<g id="edge29_Node000022_Node000017" class="edge">
<title>Node22&#45;&gt;Node17</title>
<g id="a_edge29_Node000022_Node000017"><a xlink:title=" ">
<path fill="none" stroke="#63b8ff" d="M797.45,-137.39C770.96,-122.99 730.36,-100.93 706,-87.69"/>
<polygon fill="#63b8ff" stroke="#63b8ff" points="701.35,-85.16 706.82,-85.57 703.55,-86.36 705.74,-87.55 705.74,-87.55 705.74,-87.55 703.55,-86.36 704.67,-89.53 701.35,-85.16 701.35,-85.16"/>
</a>
</g>
</g>
<!-- Node23&#45;&gt;Node17 -->
<g id="edge31_Node000023_Node000017" class="edge">
<title>Node23&#45;&gt;Node17</title>
<g id="a_edge31_Node000023_Node000017"><a xlink:title=" ">
<path fill="none" stroke="#63b8ff" d="M304.36,-137.41C311.7,-135.44 319.23,-133.56 326.41,-132 429.77,-109.49 551.79,-92.66 623.66,-83.72"/>
<polygon fill="#63b8ff" stroke="#63b8ff" points="628.74,-83.09 624.06,-85.94 626.26,-83.4 623.78,-83.7 623.78,-83.7 623.78,-83.7 626.26,-83.4 623.51,-81.47 628.74,-83.09 628.74,-83.09"/>
</a>
</g>
</g>
<!-- Node24&#45;&gt;Node17 -->
<g id="edge33_Node000024_Node000017" class="edge">
<title>Node24&#45;&gt;Node17</title>
<g id="a_edge33_Node000024_Node000017"><a xlink:title=" ">
<path fill="none" stroke="#63b8ff" d="M455.31,-137.48C511.45,-122.6 598.74,-99.47 648.1,-86.39"/>
<polygon fill="#63b8ff" stroke="#63b8ff" points="653.05,-85.08 648.79,-88.53 650.63,-85.72 648.21,-86.36 648.21,-86.36 648.21,-86.36 650.63,-85.72 647.64,-84.18 653.05,-85.08 653.05,-85.08"/>
</a>
</g>
</g>
<!-- Node25&#45;&gt;Node11 -->
<g id="edge36_Node000025_Node000011" class="edge">
<title>Node25&#45;&gt;Node11</title>
<g id="a_edge36_Node000025_Node000011"><a xlink:title=" ">
<path fill="none" stroke="#63b8ff" d="M969.69,-137.39C977.67,-123.79 989.66,-103.34 997.51,-89.96"/>
<polygon fill="#63b8ff" stroke="#63b8ff" points="1000.2,-85.37 999.61,-90.83 998.94,-87.53 997.67,-89.69 997.67,-89.69 997.67,-89.69 998.94,-87.53 995.73,-88.55 1000.2,-85.37 1000.2,-85.37"/>
</a>
</g>
</g>
<!-- Node25&#45;&gt;Node17 -->
<g id="edge35_Node000025_Node000017" class="edge">
<title>Node25&#45;&gt;Node17</title>
<g id="a_edge35_Node000025_Node000017"><a xlink:title=" ">
<path fill="none" stroke="#63b8ff" d="M912.06,-137.47C905.46,-135.61 898.77,-133.75 892.41,-132 833.12,-115.67 764.1,-97.3 722.64,-86.32"/>
<polygon fill="#63b8ff" stroke="#63b8ff" points="717.72,-85.02 723.13,-84.12 720.13,-85.66 722.55,-86.3 722.55,-86.3 722.55,-86.3 720.13,-85.66 721.98,-88.47 717.72,-85.02 717.72,-85.02"/>
</a>
</g>
</g>
<!-- Node26&#45;&gt;Node17 -->
<g id="edge38_Node000026_Node000017" class="edge">
<title>Node26&#45;&gt;Node17</title>
<g id="a_edge38_Node000026_Node000017"><a xlink:title=" ">
<path fill="none" stroke="#63b8ff" d="M573.37,-137.39C599.86,-122.99 640.46,-100.93 664.83,-87.69"/>
<polygon fill="#63b8ff" stroke="#63b8ff" points="669.47,-85.16 666.15,-89.53 667.28,-86.36 665.08,-87.55 665.08,-87.55 665.08,-87.55 667.28,-86.36 664.01,-85.57 669.47,-85.16 669.47,-85.16"/>
</a>
</g>
</g>
<!-- Node27&#45;&gt;Node17 -->
<g id="edge40_Node000027_Node000017" class="edge">
<title>Node27&#45;&gt;Node17</title>
<g id="a_edge40_Node000027_Node000017"><a xlink:title=" ">
<path fill="none" stroke="#63b8ff" d="M685.41,-137.39C685.41,-124.03 685.41,-104.06 685.41,-90.67"/>
<polygon fill="#63b8ff" stroke="#63b8ff" points="685.41,-85.37 687.66,-90.37 685.41,-87.87 685.41,-90.37 685.41,-90.37 685.41,-90.37 685.41,-87.87 683.16,-90.37 685.41,-85.37 685.41,-85.37"/>
</a>
</g>
</g>
<!-- Node28&#45;&gt;Node3 -->
<g id="edge44_Node000028_Node000003" class="edge">
<title>Node28&#45;&gt;Node3</title>
<g id="a_edge44_Node000028_Node000003"><a xlink:title=" ">
<path fill="none" stroke="#63b8ff" d="M1415.48,-137.45C1387.51,-126.8 1348.68,-111.41 1315.41,-96 1309.75,-93.38 1303.72,-90.32 1298.21,-87.41"/>
<polygon fill="#63b8ff" stroke="#63b8ff" points="1293.72,-85.02 1299.19,-85.38 1295.92,-86.19 1298.13,-87.37 1298.13,-87.37 1298.13,-87.37 1295.92,-86.19 1297.07,-89.36 1293.72,-85.02 1293.72,-85.02"/>
</a>
</g>
</g>
<!-- Node28&#45;&gt;Node8 -->
<g id="edge43_Node000028_Node000008" class="edge">
<title>Node28&#45;&gt;Node8</title>
<g id="a_edge43_Node000028_Node000008"><a xlink:title=" ">
<path fill="none" stroke="#63b8ff" d="M1471.28,-137.39C1489.22,-123.23 1516.54,-101.66 1533.39,-88.36"/>
<polygon fill="#63b8ff" stroke="#63b8ff" points="1537.44,-85.16 1534.91,-90.03 1535.48,-86.71 1533.51,-88.26 1533.51,-88.26 1533.51,-88.26 1535.48,-86.71 1532.12,-86.49 1537.44,-85.16 1537.44,-85.16"/>
</a>
</g>
</g>
<!-- Node28&#45;&gt;Node17 -->
<g id="edge42_Node000028_Node000017" class="edge">
<title>Node28&#45;&gt;Node17</title>
<g id="a_edge42_Node000028_Node000017"><a xlink:title=" ">
<path fill="none" stroke="#63b8ff" d="M1408.43,-137.42C1400.49,-135.33 1392.25,-133.41 1384.41,-132 1322.58,-120.92 906.14,-91.63 747.04,-80.7"/>
<polygon fill="#63b8ff" stroke="#63b8ff" points="741.95,-80.35 747.09,-78.45 744.44,-80.52 746.93,-80.69 746.93,-80.69 746.93,-80.69 744.44,-80.52 746.78,-82.94 741.95,-80.35 741.95,-80.35"/>
</a>
</g>
</g>
<!-- Node30 -->
<g id="Node000030" class="node">
<title>Node30</title>
<g id="a_Node000030"><a xlink:title=" ">
<polygon fill="#e0e0e0" stroke="#999999" points="1921.91,-85 1862.91,-85 1862.91,-66 1921.91,-66 1921.91,-85"/>
<text text-anchor="middle" x="1892.41" y="-73" font-family="Helvetica,sans-Serif" font-size="10.00">QtGlobal</text>
</a>
</g>
</g>
<!-- Node29&#45;&gt;Node30 -->
<g id="edge46_Node000029_Node000030" class="edge">
<title>Node29&#45;&gt;Node30</title>
<g id="a_edge46_Node000029_Node000030"><a xlink:title=" ">
<path fill="none" stroke="#63b8ff" d="M1845.32,-137.39C1855.93,-123.67 1871.93,-102.98 1882.27,-89.61"/>
<polygon fill="#63b8ff" stroke="#63b8ff" points="1885.55,-85.37 1884.27,-90.71 1884.02,-87.35 1882.49,-89.33 1882.49,-89.33 1882.49,-89.33 1884.02,-87.35 1880.71,-87.95 1885.55,-85.37 1885.55,-85.37"/>
</a>
</g>
</g>
<!-- Node31&#45;&gt;Node3 -->
<g id="edge50_Node000031_Node000003" class="edge">
<title>Node31&#45;&gt;Node3</title>
<g id="a_edge50_Node000031_Node000003"><a xlink:title=" ">
<path fill="none" stroke="#63b8ff" d="M1960.61,-142.92C1941.98,-139 1919.11,-134.65 1898.41,-132 1640.9,-99.09 1565.38,-166.08 1315.41,-96 1308.73,-94.13 1301.87,-90.93 1295.91,-87.66"/>
<polygon fill="#63b8ff" stroke="#63b8ff" points="1291.54,-85.17 1297,-85.69 1293.71,-86.41 1295.88,-87.65 1295.88,-87.65 1295.88,-87.65 1293.71,-86.41 1294.77,-89.6 1291.54,-85.17 1291.54,-85.17"/>
</a>
</g>
</g>
<!-- Node31&#45;&gt;Node8 -->
<g id="edge49_Node000031_Node000008" class="edge">
<title>Node31&#45;&gt;Node8</title>
<g id="a_edge49_Node000031_Node000008"><a xlink:title=" ">
<path fill="none" stroke="#63b8ff" d="M1957.14,-142.99C1939.14,-139.39 1917.77,-135.29 1898.41,-132 1788.61,-113.34 1760.25,-114.46 1650.41,-96 1632.69,-93.02 1613.3,-89.41 1596.23,-86.1"/>
<polygon fill="#63b8ff" stroke="#63b8ff" points="1591.01,-85.09 1596.35,-83.83 1593.47,-85.56 1595.92,-86.04 1595.92,-86.04 1595.92,-86.04 1593.47,-85.56 1595.49,-88.25 1591.01,-85.09 1591.01,-85.09"/>
</a>
</g>
</g>
<!-- Node31&#45;&gt;Node10 -->
<g id="edge48_Node000031_Node000010" class="edge">
<title>Node31&#45;&gt;Node10</title>
<g id="a_edge48_Node000031_Node000010"><a xlink:title=" ">
<path fill="none" stroke="#63b8ff" d="M1994.4,-142.9C1988.33,-129.9 1976.78,-105.15 1969.62,-89.81"/>
<polygon fill="#63b8ff" stroke="#63b8ff" points="1967.38,-85 1971.53,-88.58 1968.44,-87.27 1969.49,-89.53 1969.49,-89.53 1969.49,-89.53 1968.44,-87.27 1967.45,-90.49 1967.38,-85 1967.38,-85"/>
</a>
</g>
</g>
<!-- Node31&#45;&gt;Node15 -->
<g id="edge51_Node000031_Node000015" class="edge">
<title>Node31&#45;&gt;Node15</title>
<g id="a_edge51_Node000031_Node000015"><a xlink:title=" ">
<path fill="none" stroke="#63b8ff" d="M2001.57,-142.88C2007.83,-124.09 2019.35,-79.21 1996.41,-55 1957.38,-13.81 1549.89,-10.52 1432.12,-10.44"/>
<polygon fill="#63b8ff" stroke="#63b8ff" points="1427.06,-10.43 1432.06,-8.19 1429.56,-10.44 1432.06,-10.44 1432.06,-10.44 1432.06,-10.44 1429.56,-10.44 1432.06,-12.69 1427.06,-10.43 1427.06,-10.43"/>
</a>
</g>
</g>
<!-- Node32 -->
<g id="Node000032" class="node">
<title>Node32</title>
<g id="a_Node000032"><a xlink:title=" ">
<polygon fill="#e0e0e0" stroke="#999999" points="2123.41,-85 2043.41,-85 2043.41,-66 2123.41,-66 2123.41,-85"/>
<text text-anchor="middle" x="2083.41" y="-73" font-family="Helvetica,sans-Serif" font-size="10.00">QVariantMap</text>
</a>
</g>
</g>
<!-- Node31&#45;&gt;Node32 -->
<g id="edge52_Node000031_Node000032" class="edge">
<title>Node31&#45;&gt;Node32</title>
<g id="a_edge52_Node000031_Node000032"><a xlink:title=" ">
<path fill="none" stroke="#63b8ff" d="M2008.16,-142.9C2023.28,-129.56 2052.41,-103.85 2069.66,-88.63"/>
<polygon fill="#63b8ff" stroke="#63b8ff" points="2073.77,-85 2071.51,-90 2071.9,-86.66 2070.02,-88.31 2070.02,-88.31 2070.02,-88.31 2071.9,-86.66 2068.54,-86.62 2073.77,-85 2073.77,-85"/>
</a>
</g>
</g>
<!-- Node33 -->
<g id="Node000033" class="node">
<title>Node33</title>
<g id="a_Node000033"><a xlink:title=" ">
<polygon fill="#e0e0e0" stroke="#999999" points="2186.91,-85 2141.91,-85 2141.91,-66 2186.91,-66 2186.91,-85"/>
<text text-anchor="middle" x="2164.41" y="-73" font-family="Helvetica,sans-Serif" font-size="10.00">utility</text>
</a>
</g>
</g>
<!-- Node31&#45;&gt;Node33 -->
<g id="edge53_Node000031_Node000033" class="edge">
<title>Node31&#45;&gt;Node33</title>
<g id="a_edge53_Node000031_Node000033"><a xlink:title=" ">
<path fill="none" stroke="#63b8ff" d="M2022.14,-142.95C2049.32,-132.86 2094.92,-115.04 2132.41,-96 2137.2,-93.57 2142.22,-90.68 2146.83,-87.88"/>
<polygon fill="#63b8ff" stroke="#63b8ff" points="2151.28,-85.13 2148.21,-89.67 2149.16,-86.44 2147.03,-87.76 2147.03,-87.76 2147.03,-87.76 2149.16,-86.44 2145.85,-85.84 2151.28,-85.13 2151.28,-85.13"/>
</a>
</g>
</g>
</g>
</svg>

<g id="navigator" transform="translate(0 0)" fill="#404254">
  <rect fill="#f2f5e9" fill-opacity="0.5" stroke="#606060" stroke-width=".5" x="0" y="0" width="60" height="60"/>
  <use id="zoomplus" xlink:href="#zoomPlus" x="17" y="9" onmousedown="handleZoom(evt,'in')"/>
  <use id="zoomminus" xlink:href="#zoomMin" x="42" y="9" onmousedown="handleZoom(evt,'out')"/>
  <use id="reset" xlink:href="#resetDef" x="30" y="36" onmousedown="handleReset()"/>
   <use id="arrowup" xlink:href="#arrowUp" x="0" y="0" onmousedown="handlePan(0,-1)"/>
  <use id="arrowright" xlink:href="#arrowRight" x="0" y="0" onmousedown="handlePan(1,0)"/>
  <use id="arrowdown" xlink:href="#arrowDown" x="0" y="0" onmousedown="handlePan(0,1)"/>
  <use id="arrowleft" xlink:href="#arrowLeft" x="0" y="0" onmousedown="handlePan(-1,0)"/>
</g>
<svg viewBox="0 0 15 15" width="100%" height="30px" preserveAspectRatio="xMaxYMin meet">
 <g id="arrow_out" transform="scale(0.3 0.3)">
  <a xlink:href="client__update__checker_8cpp__incl_org.svg" target="_base">
   <rect id="button" ry="5" rx="5" y="6" x="6" height="38" width="38"
        fill="#f2f5e9" fill-opacity="0.5" stroke="#606060" stroke-width="1.0"/>
   <path id="arrow"
     d="M 11.500037,31.436501 C 11.940474,20.09759 22.043105,11.32322 32.158766,21.979434 L 37.068811,17.246167 C 37.068811,17.246167 37.088388,32 37.088388,32 L 22.160133,31.978069 C 22.160133,31.978069 26.997745,27.140456 26.997745,27.140456 C 18.528582,18.264221 13.291696,25.230495 11.500037,31.436501 z"
     style="fill:#404040;"/>
  </a>
 </g>
</svg>

<style type='text/css'>
<![CDATA[
[data-mouse-over-selected='false'] { opacity: 0.7; }
[data-mouse-over-selected='true']  { opacity: 1.0; }
]]>
</style>
<script type="application/ecmascript"><![CDATA[
document.addEventListener('DOMContentLoaded', (event) => {
  highlightEdges();
  highlightAdjacentNodes();
});
]]></script>
</svg>
