<?xml version="1.0" encoding="UTF-8" standalone="no"?>
<!DOCTYPE svg PUBLIC "-//W3C//DTD SVG 1.1//EN"
 "http://www.w3.org/Graphics/SVG/1.1/DTD/svg11.dtd">
<!-- Generated by graphviz version 2.43.0 (0)
 -->
<!-- Title: CardInfoPictureEnlargedWidget::loadPixmap Pages: 1 -->
<svg width="714pt" height="86pt"
 viewBox="0.00 0.00 714.00 86.00" xmlns="http://www.w3.org/2000/svg" xmlns:xlink="http://www.w3.org/1999/xlink">
<g id="graph0" class="graph" transform="scale(1 1) rotate(0) translate(4 82)">
<title>CardInfoPictureEnlargedWidget::loadPixmap</title>
<!-- Node1 -->
<g id="Node000001" class="node">
<title>Node1</title>
<g id="a_Node000001"><a xlink:title="Loads the pixmap based on the given size and card information.">
<polygon fill="#999999" stroke="#666666" points="706,-54 537,-54 537,-24 706,-24 706,-54"/>
<text text-anchor="start" x="545" y="-42" font-family="Helvetica,sans-Serif" font-size="10.00">CardInfoPictureEnlargedWidget</text>
<text text-anchor="middle" x="621.5" y="-31" font-family="Helvetica,sans-Serif" font-size="10.00">::loadPixmap</text>
</a>
</g>
</g>
<!-- Node2 -->
<g id="Node000002" class="node">
<title>Node2</title>
<g id="a_Node000002"><a xlink:href="../../d1/d0c/classCardInfoPictureEnlargedWidget.html#aec9f39e9bffd5714800caca73b01da59" target="_top" xlink:title="Custom paint event that draws the enlarged card image with rounded corners.">
<polygon fill="white" stroke="#666666" points="501,-78 332,-78 332,-48 501,-48 501,-78"/>
<text text-anchor="start" x="340" y="-66" font-family="Helvetica,sans-Serif" font-size="10.00">CardInfoPictureEnlargedWidget</text>
<text text-anchor="middle" x="416.5" y="-55" font-family="Helvetica,sans-Serif" font-size="10.00">::paintEvent</text>
</a>
</g>
</g>
<!-- Node1&#45;&gt;Node2 -->
<g id="edge1_Node000001_Node000002" class="edge">
<title>Node1&#45;&gt;Node2</title>
<g id="a_edge1_Node000001_Node000002"><a xlink:title=" ">
<path fill="none" stroke="#63b8ff" d="M531.77,-49.49C521.56,-50.7 511.18,-51.92 501.05,-53.12"/>
<polygon fill="#63b8ff" stroke="#63b8ff" points="536.76,-48.9 532.06,-51.72 534.28,-49.19 531.79,-49.49 531.79,-49.49 531.79,-49.49 534.28,-49.19 531.53,-47.25 536.76,-48.9 536.76,-48.9"/>
</a>
</g>
</g>
<!-- Node3 -->
<g id="Node000003" class="node">
<title>Node3</title>
<g id="a_Node000003"><a xlink:href="../../d1/d0c/classCardInfoPictureEnlargedWidget.html#abcd54fdd222c82d3dc9bfa530b1d38af" target="_top" xlink:title="Sets the pixmap for the widget based on a provided card.">
<polygon fill="white" stroke="#666666" points="501,-30 332,-30 332,0 501,0 501,-30"/>
<text text-anchor="start" x="340" y="-18" font-family="Helvetica,sans-Serif" font-size="10.00">CardInfoPictureEnlargedWidget</text>
<text text-anchor="middle" x="416.5" y="-7" font-family="Helvetica,sans-Serif" font-size="10.00">::setCardPixmap</text>
</a>
</g>
</g>
<!-- Node1&#45;&gt;Node3 -->
<g id="edge2_Node000001_Node000003" class="edge">
<title>Node1&#45;&gt;Node3</title>
<g id="a_edge2_Node000001_Node000003"><a xlink:title=" ">
<path fill="none" stroke="#63b8ff" d="M531.77,-28.51C521.56,-27.3 511.18,-26.08 501.05,-24.88"/>
<polygon fill="#63b8ff" stroke="#63b8ff" points="536.76,-29.1 531.53,-30.75 534.28,-28.81 531.79,-28.51 531.79,-28.51 531.79,-28.51 534.28,-28.81 532.06,-26.28 536.76,-29.1 536.76,-29.1"/>
</a>
</g>
</g>
<!-- Node4 -->
<g id="Node000004" class="node">
<title>Node4</title>
<g id="a_Node000004"><a xlink:href="../../dd/dd2/classCardInfoPictureWidget.html#a773802ba9e200f1af5d16ee4765e2c18" target="_top" xlink:title="Displays the enlarged version of the card&#39;s pixmap near the cursor.">
<polygon fill="white" stroke="#666666" points="296,-30 168,-30 168,0 296,0 296,-30"/>
<text text-anchor="start" x="176" y="-18" font-family="Helvetica,sans-Serif" font-size="10.00">CardInfoPictureWidget</text>
<text text-anchor="middle" x="232" y="-7" font-family="Helvetica,sans-Serif" font-size="10.00">::showEnlargedPixmap</text>
</a>
</g>
</g>
<!-- Node3&#45;&gt;Node4 -->
<g id="edge3_Node000003_Node000004" class="edge">
<title>Node3&#45;&gt;Node4</title>
<g id="a_edge3_Node000003_Node000004"><a xlink:title=" ">
<path fill="none" stroke="#63b8ff" d="M326.92,-15C316.56,-15 306.16,-15 296.25,-15"/>
<polygon fill="#63b8ff" stroke="#63b8ff" points="331.99,-15 326.99,-17.25 329.49,-15 326.99,-15 326.99,-15 326.99,-15 329.49,-15 326.99,-12.75 331.99,-15 331.99,-15"/>
</a>
</g>
</g>
<!-- Node5 -->
<g id="Node000005" class="node">
<title>Node5</title>
<g id="a_Node000005"><a xlink:href="../../dd/dd2/classCardInfoPictureWidget.html#a0ee2d270a29b4fc61e47cb42d8d4d373" target="_top" xlink:title="Constructs a CardInfoPictureWidget.">
<polygon fill="white" stroke="#666666" points="132,-30 0,-30 0,0 132,0 132,-30"/>
<text text-anchor="start" x="8" y="-18" font-family="Helvetica,sans-Serif" font-size="10.00">CardInfoPictureWidget</text>
<text text-anchor="middle" x="66" y="-7" font-family="Helvetica,sans-Serif" font-size="10.00">::CardInfoPictureWidget</text>
</a>
</g>
</g>
<!-- Node4&#45;&gt;Node5 -->
<g id="edge4_Node000004_Node000005" class="edge">
<title>Node4&#45;&gt;Node5</title>
<g id="a_edge4_Node000004_Node000005"><a xlink:title=" ">
<path fill="none" stroke="#63b8ff" d="M162.38,-15C152.37,-15 142.08,-15 132.13,-15"/>
<polygon fill="#63b8ff" stroke="#63b8ff" points="167.59,-15 162.59,-17.25 165.09,-15 162.59,-15 162.59,-15 162.59,-15 165.09,-15 162.59,-12.75 167.59,-15 167.59,-15"/>
</a>
</g>
</g>
</g>
</svg>
