<?xml version="1.0" encoding="UTF-8" standalone="no"?>
<!DOCTYPE svg PUBLIC "-//W3C//DTD SVG 1.1//EN"
 "http://www.w3.org/Graphics/SVG/1.1/DTD/svg11.dtd">
<!-- Generated by graphviz version 2.43.0 (0)
 -->
<!-- Title: QxtSmtpPrivate::authenticate Pages: 1 -->
<!--zoomable 224 -->

<svg id="main" version="1.1" xmlns="http://www.w3.org/2000/svg" xmlns:xlink="http://www.w3.org/1999/xlink" xml:space="preserve" onload="init(evt)">

<style type="text/css"><![CDATA[
.node, .edge {opacity: 0.7;}
.node.selected, .edge.selected {opacity: 1;}
.edge:hover path { stroke: red; }
.edge:hover polygon { stroke: red; fill: red; }
]]></style>

<defs>
  <circle id="rim" cx="0" cy="0" r="7"/>
  <circle id="rim2" cx="0" cy="0" r="3.5"/>
  <g id="zoomPlus">
    <use xlink:href="#rim" fill="#404040"><set attributeName="fill" to="#808080" begin="zoomplus.mouseover" end="zoomplus.mouseout"/></use>
    <path d="M-4,0h8M0,-4v8" fill="none" stroke="white" stroke-width="1.5" pointer-events="none"/>
  </g>
  <g id="zoomMin">
    <use xlink:href="#rim" fill="#404040"><set attributeName="fill" to="#808080" begin="zoomminus.mouseover" end="zoomminus.mouseout"/></use>
    <path d="M-4,0h8" fill="none" stroke="white" stroke-width="1.5" pointer-events="none"/>
  </g>
  <g id="arrowUp" transform="translate(30 24)">
    <use xlink:href="#rim"/>
    <path pointer-events="none" fill="none" stroke="white" stroke-width="1.5" d="M0,-3.0v7 M-2.5,-0.5L0,-3.0L2.5,-0.5"/>
  </g>
  <g id="arrowRight" transform="rotate(90) translate(36 -43)">
    <use xlink:href="#rim"/>
    <path pointer-events="none" fill="none" stroke="white" stroke-width="1.5" d="M0,-3.0v7 M-2.5,-0.5L0,-3.0L2.5,-0.5"/>
  </g>
  <g id="arrowDown" transform="rotate(180) translate(-30 -48)">
    <use xlink:href="#rim"/>
    <path pointer-events="none" fill="none" stroke="white" stroke-width="1.5" d="M0,-3.0v7 M-2.5,-0.5L0,-3.0L2.5,-0.5"/>
  </g>
  <g id="arrowLeft" transform="rotate(270) translate(-36 17)">
    <use xlink:href="#rim"/>
    <path pointer-events="none" fill="none" stroke="white" stroke-width="1.5" d="M0,-3.0v7 M-2.5,-0.5L0,-3.0L2.5,-0.5"/>
  </g>
  <g id="resetDef">
    <use xlink:href="#rim2" fill="#404040"><set attributeName="fill" to="#808080" begin="reset.mouseover" end="reset.mouseout"/></use>
  </g>
</defs>
<script type="application/ecmascript">
var viewWidth = 675;
var viewHeight = 224;
var sectionId = 'dynsection-4';
</script>
<script type="application/ecmascript" xlink:href="../../svg.min.js"/>
<svg id="graph" class="graph">
<g id="viewport">
<title>QxtSmtpPrivate::authenticate</title>
<!-- Node1 -->
<g id="Node000001" class="node">
<title>Node1</title>
<g id="a_Node000001"><a xlink:title=" ">
<polygon fill="#999999" stroke="#666666" points="161,-104.5 0,-104.5 0,-85.5 161,-85.5 161,-104.5"/>
<text text-anchor="middle" x="80.5" y="-92.5" font-family="Helvetica,sans-Serif" font-size="10.00">QxtSmtpPrivate::authenticate</text>
</a>
</g>
</g>
<!-- Node2 -->
<g id="Node000002" class="node">
<title>Node2</title>
<g id="a_Node000002"><a xlink:href="../../d6/deb/classQxtSmtpPrivate.html#a5901259cbcc5983b7ce07b7ce52c0dd5" target="_top" xlink:title=" ">
<polygon fill="white" stroke="#666666" points="367,-178.5 197,-178.5 197,-159.5 367,-159.5 367,-178.5"/>
<text text-anchor="middle" x="282" y="-166.5" font-family="Helvetica,sans-Serif" font-size="10.00">QxtSmtpPrivate::authCramMD5</text>
</a>
</g>
</g>
<!-- Node1&#45;&gt;Node2 -->
<g id="edge1_Node000001_Node000002" class="edge">
<title>Node1&#45;&gt;Node2</title>
<g id="a_edge1_Node000001_Node000002"><a xlink:title=" ">
<path fill="none" stroke="#63b8ff" d="M98.6,-104.63C120.71,-116.73 160.69,-137.42 197,-150 206.02,-153.13 215.77,-155.87 225.32,-158.24"/>
<polygon fill="#63b8ff" stroke="#63b8ff" points="230.3,-159.44 224.91,-160.45 227.87,-158.85 225.44,-158.27 225.44,-158.27 225.44,-158.27 227.87,-158.85 225.96,-156.08 230.3,-159.44 230.3,-159.44"/>
</a>
</g>
</g>
<!-- Node8 -->
<g id="Node000008" class="node">
<title>Node8</title>
<g id="a_Node000008"><a xlink:href="../../de/d8a/classQxtSmtp.html#aff387f90c7730e17325612c809dff341" target="_top" xlink:title=" ">
<polygon fill="white" stroke="#666666" points="348.5,-141.5 215.5,-141.5 215.5,-122.5 348.5,-122.5 348.5,-141.5"/>
<text text-anchor="middle" x="282" y="-129.5" font-family="Helvetica,sans-Serif" font-size="10.00">QxtSmtp::authenticated</text>
</a>
</g>
</g>
<!-- Node1&#45;&gt;Node8 -->
<g id="edge7_Node000001_Node000008" class="edge">
<title>Node1&#45;&gt;Node8</title>
<g id="a_edge7_Node000001_Node000008"><a xlink:title=" ">
<path fill="none" stroke="#63b8ff" d="M132.88,-104.53C160.92,-109.73 195.71,-116.18 224.51,-121.52"/>
<polygon fill="#63b8ff" stroke="#63b8ff" points="229.45,-122.44 224.13,-123.74 226.99,-121.98 224.54,-121.53 224.54,-121.53 224.54,-121.53 226.99,-121.98 224.95,-119.32 229.45,-122.44 229.45,-122.44"/>
</a>
</g>
</g>
<!-- Node9 -->
<g id="Node000009" class="node">
<title>Node9</title>
<g id="a_Node000009"><a xlink:href="../../d6/deb/classQxtSmtpPrivate.html#a8f3ec43b8abce700725dfec8b40b0082" target="_top" xlink:title=" ">
<polygon fill="white" stroke="#666666" points="356,-104.5 208,-104.5 208,-85.5 356,-85.5 356,-104.5"/>
<text text-anchor="middle" x="282" y="-92.5" font-family="Helvetica,sans-Serif" font-size="10.00">QxtSmtpPrivate::authLogin</text>
</a>
</g>
</g>
<!-- Node1&#45;&gt;Node9 -->
<g id="edge8_Node000001_Node000009" class="edge">
<title>Node1&#45;&gt;Node9</title>
<g id="a_edge8_Node000001_Node000009"><a xlink:title=" ">
<path fill="none" stroke="#63b8ff" d="M161.21,-95C174.93,-95 189.19,-95 202.87,-95"/>
<polygon fill="#63b8ff" stroke="#63b8ff" points="207.89,-95 202.89,-97.25 205.39,-95 202.89,-95 202.89,-95 202.89,-95 205.39,-95 202.89,-92.75 207.89,-95 207.89,-95"/>
</a>
</g>
</g>
<!-- Node10 -->
<g id="Node000010" class="node">
<title>Node10</title>
<g id="a_Node000010"><a xlink:href="../../d6/deb/classQxtSmtpPrivate.html#aa2c2784cacd1fa5827316ce6ddf94cea" target="_top" xlink:title=" ">
<polygon fill="white" stroke="#666666" points="355,-67.5 209,-67.5 209,-48.5 355,-48.5 355,-67.5"/>
<text text-anchor="middle" x="282" y="-55.5" font-family="Helvetica,sans-Serif" font-size="10.00">QxtSmtpPrivate::authPlain</text>
</a>
</g>
</g>
<!-- Node1&#45;&gt;Node10 -->
<g id="edge9_Node000001_Node000010" class="edge">
<title>Node1&#45;&gt;Node10</title>
<g id="a_edge9_Node000001_Node000010"><a xlink:title=" ">
<path fill="none" stroke="#63b8ff" d="M132.88,-85.47C160.92,-80.27 195.71,-73.82 224.51,-68.48"/>
<polygon fill="#63b8ff" stroke="#63b8ff" points="229.45,-67.56 224.95,-70.68 226.99,-68.02 224.54,-68.47 224.54,-68.47 224.54,-68.47 226.99,-68.02 224.13,-66.26 229.45,-67.56 229.45,-67.56"/>
</a>
</g>
</g>
<!-- Node11 -->
<g id="Node000011" class="node">
<title>Node11</title>
<g id="a_Node000011"><a xlink:href="../../db/d14/classQxtPrivate.html#a410b69ae1260ce91951ec01d4763ffa0" target="_top" xlink:title=" ">
<polygon fill="white" stroke="#666666" points="343,-30 221,-30 221,0 343,0 343,-30"/>
<text text-anchor="start" x="229" y="-18" font-family="Helvetica,sans-Serif" font-size="10.00">QxtPrivate&lt; QxtSmtp</text>
<text text-anchor="middle" x="282" y="-7" font-family="Helvetica,sans-Serif" font-size="10.00"> &gt;::qxt_p</text>
</a>
</g>
</g>
<!-- Node1&#45;&gt;Node11 -->
<g id="edge10_Node000001_Node000011" class="edge">
<title>Node1&#45;&gt;Node11</title>
<g id="a_edge10_Node000001_Node000011"><a xlink:title=" ">
<path fill="none" stroke="#63b8ff" d="M98.69,-85.5C120.9,-73.49 160.99,-52.76 197,-39 203.79,-36.41 210.99,-33.94 218.19,-31.65"/>
<polygon fill="#63b8ff" stroke="#63b8ff" points="223.18,-30.09 219.08,-33.73 220.79,-30.84 218.41,-31.58 218.41,-31.58 218.41,-31.58 220.79,-30.84 217.74,-29.43 223.18,-30.09 223.18,-30.09"/>
</a>
</g>
</g>
<!-- Node3 -->
<g id="Node000003" class="node">
<title>Node3</title>
<g id="a_Node000003"><a xlink:href="../../db/d72/classQxtHmac.html#a7af4e2a71677ca523c9abf03c0f11d78" target="_top" xlink:title=" ">
<polygon fill="white" stroke="#666666" points="513,-215.5 403,-215.5 403,-196.5 513,-196.5 513,-215.5"/>
<text text-anchor="middle" x="458" y="-203.5" font-family="Helvetica,sans-Serif" font-size="10.00">QxtHmac::addData</text>
</a>
</g>
</g>
<!-- Node2&#45;&gt;Node3 -->
<g id="edge2_Node000002_Node000003" class="edge">
<title>Node2&#45;&gt;Node3</title>
<g id="a_edge2_Node000002_Node000003"><a xlink:title=" ">
<path fill="none" stroke="#63b8ff" d="M327.81,-178.53C352.07,-183.69 382.11,-190.07 407.11,-195.39"/>
<polygon fill="#63b8ff" stroke="#63b8ff" points="412.04,-196.44 406.68,-197.6 409.6,-195.92 407.15,-195.4 407.15,-195.4 407.15,-195.4 409.6,-195.92 407.62,-193.2 412.04,-196.44 412.04,-196.44"/>
</a>
</g>
</g>
<!-- Node4 -->
<g id="Node000004" class="node">
<title>Node4</title>
<g id="a_Node000004"><a xlink:href="../../db/d72/classQxtHmac.html#a8f813f0d0eabfc24390d1aeb9a428abf" target="_top" xlink:title=" ">
<polygon fill="white" stroke="#666666" points="506,-178.5 410,-178.5 410,-159.5 506,-159.5 506,-178.5"/>
<text text-anchor="middle" x="458" y="-166.5" font-family="Helvetica,sans-Serif" font-size="10.00">QxtHmac::result</text>
</a>
</g>
</g>
<!-- Node2&#45;&gt;Node4 -->
<g id="edge3_Node000002_Node000004" class="edge">
<title>Node2&#45;&gt;Node4</title>
<g id="a_edge3_Node000002_Node000004"><a xlink:title=" ">
<path fill="none" stroke="#63b8ff" d="M367.2,-169C379.83,-169 392.55,-169 404.28,-169"/>
<polygon fill="#63b8ff" stroke="#63b8ff" points="409.59,-169 404.59,-171.25 407.09,-169 404.59,-169 404.59,-169 404.59,-169 407.09,-169 404.59,-166.75 409.59,-169 409.59,-169"/>
</a>
</g>
</g>
<!-- Node6 -->
<g id="Node000006" class="node">
<title>Node6</title>
<g id="a_Node000006"><a xlink:href="../../db/d72/classQxtHmac.html#a0b4c43e530660244d49883086d715db4" target="_top" xlink:title=" ">
<polygon fill="white" stroke="#666666" points="508.5,-141.5 407.5,-141.5 407.5,-122.5 508.5,-122.5 508.5,-141.5"/>
<text text-anchor="middle" x="458" y="-129.5" font-family="Helvetica,sans-Serif" font-size="10.00">QxtHmac::setKey</text>
</a>
</g>
</g>
<!-- Node2&#45;&gt;Node6 -->
<g id="edge5_Node000002_Node000006" class="edge">
<title>Node2&#45;&gt;Node6</title>
<g id="a_edge5_Node000002_Node000006"><a xlink:title=" ">
<path fill="none" stroke="#63b8ff" d="M327.81,-159.47C352.07,-154.31 382.11,-147.93 407.11,-142.61"/>
<polygon fill="#63b8ff" stroke="#63b8ff" points="412.04,-141.56 407.62,-144.8 409.6,-142.08 407.15,-142.6 407.15,-142.6 407.15,-142.6 409.6,-142.08 406.68,-140.4 412.04,-141.56 412.04,-141.56"/>
</a>
</g>
</g>
<!-- Node5 -->
<g id="Node000005" class="node">
<title>Node5</title>
<g id="a_Node000005"><a xlink:href="../../db/d72/classQxtHmac.html#a48a91869f05a717e59f85950e0ccf375" target="_top" xlink:title=" ">
<polygon fill="white" stroke="#666666" points="667,-178.5 549,-178.5 549,-159.5 667,-159.5 667,-178.5"/>
<text text-anchor="middle" x="608" y="-166.5" font-family="Helvetica,sans-Serif" font-size="10.00">QxtHmac::innerHash</text>
</a>
</g>
</g>
<!-- Node4&#45;&gt;Node5 -->
<g id="edge4_Node000004_Node000005" class="edge">
<title>Node4&#45;&gt;Node5</title>
<g id="a_edge4_Node000004_Node000005"><a xlink:title=" ">
<path fill="none" stroke="#63b8ff" d="M506.24,-169C518.08,-169 530.98,-169 543.47,-169"/>
<polygon fill="#63b8ff" stroke="#63b8ff" points="548.8,-169 543.8,-171.25 546.3,-169 543.8,-169 543.8,-169 543.8,-169 546.3,-169 543.8,-166.75 548.8,-169 548.8,-169"/>
</a>
</g>
</g>
<!-- Node7 -->
<g id="Node000007" class="node">
<title>Node7</title>
<g id="a_Node000007"><a xlink:href="../../db/d72/classQxtHmac.html#aa618f1cf583458683b61386e189b20aa" target="_top" xlink:title=" ">
<polygon fill="white" stroke="#666666" points="654.5,-141.5 561.5,-141.5 561.5,-122.5 654.5,-122.5 654.5,-141.5"/>
<text text-anchor="middle" x="608" y="-129.5" font-family="Helvetica,sans-Serif" font-size="10.00">QxtHmac::reset</text>
</a>
</g>
</g>
<!-- Node6&#45;&gt;Node7 -->
<g id="edge6_Node000006_Node000007" class="edge">
<title>Node6&#45;&gt;Node7</title>
<g id="a_edge6_Node000006_Node000007"><a xlink:title=" ">
<path fill="none" stroke="#63b8ff" d="M508.69,-132C523.93,-132 540.72,-132 556.04,-132"/>
<polygon fill="#63b8ff" stroke="#63b8ff" points="561.18,-132 556.18,-134.25 558.68,-132 556.18,-132 556.18,-132 556.18,-132 558.68,-132 556.18,-129.75 561.18,-132 561.18,-132"/>
</a>
</g>
</g>
</g>
</svg>

<g id="navigator" transform="translate(0 0)" fill="#404254">
  <rect fill="#f2f5e9" fill-opacity="0.5" stroke="#606060" stroke-width=".5" x="0" y="0" width="60" height="60"/>
  <use id="zoomplus" xlink:href="#zoomPlus" x="17" y="9" onmousedown="handleZoom(evt,'in')"/>
  <use id="zoomminus" xlink:href="#zoomMin" x="42" y="9" onmousedown="handleZoom(evt,'out')"/>
  <use id="reset" xlink:href="#resetDef" x="30" y="36" onmousedown="handleReset()"/>
   <use id="arrowup" xlink:href="#arrowUp" x="0" y="0" onmousedown="handlePan(0,-1)"/>
  <use id="arrowright" xlink:href="#arrowRight" x="0" y="0" onmousedown="handlePan(1,0)"/>
  <use id="arrowdown" xlink:href="#arrowDown" x="0" y="0" onmousedown="handlePan(0,1)"/>
  <use id="arrowleft" xlink:href="#arrowLeft" x="0" y="0" onmousedown="handlePan(-1,0)"/>
</g>
<svg viewBox="0 0 15 15" width="100%" height="30px" preserveAspectRatio="xMaxYMin meet">
 <g id="arrow_out" transform="scale(0.3 0.3)">
  <a xlink:href="classQxtSmtpPrivate_a41c29784a5b4388528789463de142016_cgraph_org.svg" target="_base">
   <rect id="button" ry="5" rx="5" y="6" x="6" height="38" width="38"
        fill="#f2f5e9" fill-opacity="0.5" stroke="#606060" stroke-width="1.0"/>
   <path id="arrow"
     d="M 11.500037,31.436501 C 11.940474,20.09759 22.043105,11.32322 32.158766,21.979434 L 37.068811,17.246167 C 37.068811,17.246167 37.088388,32 37.088388,32 L 22.160133,31.978069 C 22.160133,31.978069 26.997745,27.140456 26.997745,27.140456 C 18.528582,18.264221 13.291696,25.230495 11.500037,31.436501 z"
     style="fill:#404040;"/>
  </a>
 </g>
</svg>

<style type='text/css'>
<![CDATA[
[data-mouse-over-selected='false'] { opacity: 0.7; }
[data-mouse-over-selected='true']  { opacity: 1.0; }
]]>
</style>
<script type="application/ecmascript"><![CDATA[
document.addEventListener('DOMContentLoaded', (event) => {
  highlightEdges();
  highlightAdjacentNodes();
});
]]></script>
</svg>
