<?xml version="1.0" encoding="UTF-8" standalone="no"?>
<!DOCTYPE svg PUBLIC "-//W3C//DTD SVG 1.1//EN"
 "http://www.w3.org/Graphics/SVG/1.1/DTD/svg11.dtd">
<!-- Generated by graphviz version 2.43.0 (0)
 -->
<!-- Title: cockatrice/src/settings/debug_settings.cpp Pages: 1 -->
<svg width="312pt" height="203pt"
 viewBox="0.00 0.00 311.50 203.00" xmlns="http://www.w3.org/2000/svg" xmlns:xlink="http://www.w3.org/1999/xlink">
<g id="graph0" class="graph" transform="scale(1 1) rotate(0) translate(4 199)">
<title>cockatrice/src/settings/debug_settings.cpp</title>
<!-- Node1 -->
<g id="Node000001" class="node">
<title>Node1</title>
<g id="a_Node000001"><a xlink:title=" ">
<polygon fill="#999999" stroke="#666666" points="263.5,-195 138.5,-195 138.5,-165 263.5,-165 263.5,-195"/>
<text text-anchor="start" x="146.5" y="-183" font-family="Helvetica,sans-Serif" font-size="10.00">cockatrice/src/settings</text>
<text text-anchor="middle" x="201" y="-172" font-family="Helvetica,sans-Serif" font-size="10.00">/debug_settings.cpp</text>
</a>
</g>
</g>
<!-- Node2 -->
<g id="Node000002" class="node">
<title>Node2</title>
<g id="a_Node000002"><a xlink:href="../../d9/d91/debug__settings_8h.html" target="_top" xlink:title="TODO: Document this.">
<polygon fill="white" stroke="#666666" points="198,-129 98,-129 98,-110 198,-110 198,-129"/>
<text text-anchor="middle" x="148" y="-117" font-family="Helvetica,sans-Serif" font-size="10.00">debug_settings.h</text>
</a>
</g>
</g>
<!-- Node1&#45;&gt;Node2 -->
<g id="edge1_Node000001_Node000002" class="edge">
<title>Node1&#45;&gt;Node2</title>
<g id="a_edge1_Node000001_Node000002"><a xlink:title=" ">
<path fill="none" stroke="#63b8ff" d="M188.17,-164.84C179.38,-155.13 167.82,-142.38 159.36,-133.04"/>
<polygon fill="#63b8ff" stroke="#63b8ff" points="155.94,-129.27 160.97,-131.46 157.62,-131.12 159.3,-132.97 159.3,-132.97 159.3,-132.97 157.62,-131.12 157.63,-134.48 155.94,-129.27 155.94,-129.27"/>
</a>
</g>
</g>
<!-- Node8 -->
<g id="Node000008" class="node">
<title>Node8</title>
<g id="a_Node000008"><a xlink:title=" ">
<polygon fill="#e0e0e0" stroke="#999999" points="294,-129 216,-129 216,-110 294,-110 294,-129"/>
<text text-anchor="middle" x="255" y="-117" font-family="Helvetica,sans-Serif" font-size="10.00">QtCore/QFile</text>
</a>
</g>
</g>
<!-- Node1&#45;&gt;Node8 -->
<g id="edge7_Node000001_Node000008" class="edge">
<title>Node1&#45;&gt;Node8</title>
<g id="a_edge7_Node000001_Node000008"><a xlink:title=" ">
<path fill="none" stroke="#63b8ff" d="M214.07,-164.84C223.03,-155.13 234.81,-142.38 243.42,-133.04"/>
<polygon fill="#63b8ff" stroke="#63b8ff" points="246.91,-129.27 245.17,-134.47 245.21,-131.1 243.52,-132.94 243.52,-132.94 243.52,-132.94 245.21,-131.1 241.86,-131.41 246.91,-129.27 246.91,-129.27"/>
</a>
</g>
</g>
<!-- Node3 -->
<g id="Node000003" class="node">
<title>Node3</title>
<g id="a_Node000003"><a xlink:href="../../d2/d62/settings__manager_8h.html" target="_top" xlink:title="TODO: Document this.">
<polygon fill="white" stroke="#666666" points="204.5,-74 91.5,-74 91.5,-55 204.5,-55 204.5,-74"/>
<text text-anchor="middle" x="148" y="-62" font-family="Helvetica,sans-Serif" font-size="10.00">settings_manager.h</text>
</a>
</g>
</g>
<!-- Node2&#45;&gt;Node3 -->
<g id="edge2_Node000002_Node000003" class="edge">
<title>Node2&#45;&gt;Node3</title>
<g id="a_edge2_Node000002_Node000003"><a xlink:title=" ">
<path fill="none" stroke="#63b8ff" d="M148,-109.75C148,-101.41 148,-88.74 148,-79.09"/>
<polygon fill="#63b8ff" stroke="#63b8ff" points="148,-74.09 150.25,-79.09 148,-76.59 148,-79.09 148,-79.09 148,-79.09 148,-76.59 145.75,-79.09 148,-74.09 148,-74.09"/>
</a>
</g>
</g>
<!-- Node4 -->
<g id="Node000004" class="node">
<title>Node4</title>
<g id="a_Node000004"><a xlink:title=" ">
<polygon fill="#e0e0e0" stroke="#999999" points="56,-19 0,-19 0,0 56,0 56,-19"/>
<text text-anchor="middle" x="28" y="-7" font-family="Helvetica,sans-Serif" font-size="10.00">QObject</text>
</a>
</g>
</g>
<!-- Node3&#45;&gt;Node4 -->
<g id="edge3_Node000003_Node000004" class="edge">
<title>Node3&#45;&gt;Node4</title>
<g id="a_edge3_Node000003_Node000004"><a xlink:title=" ">
<path fill="none" stroke="#63b8ff" d="M128.72,-54.98C107.94,-45.81 74.81,-31.18 52.27,-21.22"/>
<polygon fill="#63b8ff" stroke="#63b8ff" points="47.63,-19.17 53.11,-19.13 49.92,-20.18 52.2,-21.19 52.2,-21.19 52.2,-21.19 49.92,-20.18 51.3,-23.25 47.63,-19.17 47.63,-19.17"/>
</a>
</g>
</g>
<!-- Node5 -->
<g id="Node000005" class="node">
<title>Node5</title>
<g id="a_Node000005"><a xlink:title=" ">
<polygon fill="#e0e0e0" stroke="#999999" points="138,-19 74,-19 74,0 138,0 138,-19"/>
<text text-anchor="middle" x="106" y="-7" font-family="Helvetica,sans-Serif" font-size="10.00">QSettings</text>
</a>
</g>
</g>
<!-- Node3&#45;&gt;Node5 -->
<g id="edge4_Node000003_Node000005" class="edge">
<title>Node3&#45;&gt;Node5</title>
<g id="a_edge4_Node000003_Node000005"><a xlink:title=" ">
<path fill="none" stroke="#63b8ff" d="M141.06,-54.75C134.21,-46.1 123.67,-32.8 115.93,-23.03"/>
<polygon fill="#63b8ff" stroke="#63b8ff" points="112.81,-19.09 117.68,-21.61 114.36,-21.05 115.91,-23.01 115.91,-23.01 115.91,-23.01 114.36,-21.05 114.15,-24.41 112.81,-19.09 112.81,-19.09"/>
</a>
</g>
</g>
<!-- Node6 -->
<g id="Node000006" class="node">
<title>Node6</title>
<g id="a_Node000006"><a xlink:title=" ">
<polygon fill="#e0e0e0" stroke="#999999" points="226,-19 156,-19 156,0 226,0 226,-19"/>
<text text-anchor="middle" x="191" y="-7" font-family="Helvetica,sans-Serif" font-size="10.00">QStringList</text>
</a>
</g>
</g>
<!-- Node3&#45;&gt;Node6 -->
<g id="edge5_Node000003_Node000006" class="edge">
<title>Node3&#45;&gt;Node6</title>
<g id="a_edge5_Node000003_Node000006"><a xlink:title=" ">
<path fill="none" stroke="#63b8ff" d="M155.1,-54.75C162.11,-46.1 172.91,-32.8 180.83,-23.03"/>
<polygon fill="#63b8ff" stroke="#63b8ff" points="184.03,-19.09 182.63,-24.39 182.46,-21.03 180.88,-22.97 180.88,-22.97 180.88,-22.97 182.46,-21.03 179.13,-21.55 184.03,-19.09 184.03,-19.09"/>
</a>
</g>
</g>
<!-- Node7 -->
<g id="Node000007" class="node">
<title>Node7</title>
<g id="a_Node000007"><a xlink:title=" ">
<polygon fill="#e0e0e0" stroke="#999999" points="303.5,-19 244.5,-19 244.5,0 303.5,0 303.5,-19"/>
<text text-anchor="middle" x="274" y="-7" font-family="Helvetica,sans-Serif" font-size="10.00">QVariant</text>
</a>
</g>
</g>
<!-- Node3&#45;&gt;Node7 -->
<g id="edge6_Node000003_Node000007" class="edge">
<title>Node3&#45;&gt;Node7</title>
<g id="a_edge6_Node000003_Node000007"><a xlink:title=" ">
<path fill="none" stroke="#63b8ff" d="M168.24,-54.98C190.07,-45.81 224.85,-31.18 248.51,-21.22"/>
<polygon fill="#63b8ff" stroke="#63b8ff" points="253.39,-19.17 249.65,-23.18 251.08,-20.14 248.78,-21.11 248.78,-21.11 248.78,-21.11 251.08,-20.14 247.91,-19.04 253.39,-19.17 253.39,-19.17"/>
</a>
</g>
</g>
</g>
</svg>
