<?xml version="1.0" encoding="UTF-8" standalone="no"?>
<!DOCTYPE svg PUBLIC "-//W3C//DTD SVG 1.1//EN"
 "http://www.w3.org/Graphics/SVG/1.1/DTD/svg11.dtd">
<!-- Generated by graphviz version 2.43.0 (0)
 -->
<!-- Title: cockatrice/src/filters/filter_string.cpp Pages: 1 -->
<svg width="1876pt" height="544pt"
 viewBox="0.00 0.00 1875.50 544.00" xmlns="http://www.w3.org/2000/svg" xmlns:xlink="http://www.w3.org/1999/xlink">
<g id="graph0" class="graph" transform="scale(1 1) rotate(0) translate(4 540)">
<title>cockatrice/src/filters/filter_string.cpp</title>
<!-- Node1 -->
<g id="Node000001" class="node">
<title>Node1</title>
<g id="a_Node000001"><a xlink:title=" ">
<polygon fill="#999999" stroke="#666666" points="1575,-536 1461,-536 1461,-506 1575,-506 1575,-536"/>
<text text-anchor="start" x="1469" y="-524" font-family="Helvetica,sans-Serif" font-size="10.00">cockatrice/src/filters</text>
<text text-anchor="middle" x="1518" y="-513" font-family="Helvetica,sans-Serif" font-size="10.00">/filter_string.cpp</text>
</a>
</g>
</g>
<!-- Node2 -->
<g id="Node000002" class="node">
<title>Node2</title>
<g id="a_Node000002"><a xlink:href="../../d3/da2/filter__string_8h.html" target="_top" xlink:title="TODO: Document this.">
<polygon fill="white" stroke="#666666" points="1289.5,-464.5 1208.5,-464.5 1208.5,-445.5 1289.5,-445.5 1289.5,-464.5"/>
<text text-anchor="middle" x="1249" y="-452.5" font-family="Helvetica,sans-Serif" font-size="10.00">filter_string.h</text>
</a>
</g>
</g>
<!-- Node1&#45;&gt;Node2 -->
<g id="edge1_Node000001_Node000002" class="edge">
<title>Node1&#45;&gt;Node2</title>
<g id="a_edge1_Node000001_Node000002"><a xlink:title=" ">
<path fill="none" stroke="#63b8ff" d="M1460.95,-506.43C1409.62,-494.21 1335.44,-476.57 1289.83,-465.71"/>
<polygon fill="#63b8ff" stroke="#63b8ff" points="1284.96,-464.55 1290.34,-463.52 1287.39,-465.13 1289.82,-465.71 1289.82,-465.71 1289.82,-465.71 1287.39,-465.13 1289.3,-467.9 1284.96,-464.55 1284.96,-464.55"/>
</a>
</g>
</g>
<!-- Node9 -->
<g id="Node000009" class="node">
<title>Node9</title>
<g id="a_Node000009"><a xlink:title=" ">
<polygon fill="#e0e0e0" stroke="#999999" points="1305.5,-19 1252.5,-19 1252.5,0 1305.5,0 1305.5,-19"/>
<text text-anchor="middle" x="1279" y="-7" font-family="Helvetica,sans-Serif" font-size="10.00">QString</text>
</a>
</g>
</g>
<!-- Node1&#45;&gt;Node9 -->
<g id="edge66_Node000001_Node000009" class="edge">
<title>Node1&#45;&gt;Node9</title>
<g id="a_edge66_Node000001_Node000009"><a xlink:title=" ">
<path fill="none" stroke="#63b8ff" d="M1494.65,-505.8C1482.03,-496.98 1467.19,-484.56 1458,-470 1439.77,-441.1 1439,-429.67 1439,-395.5 1439,-395.5 1439,-395.5 1439,-118.5 1439,-57.22 1357.38,-28.39 1310.73,-16.91"/>
<polygon fill="#63b8ff" stroke="#63b8ff" points="1305.78,-15.72 1311.17,-14.7 1308.21,-16.3 1310.64,-16.88 1310.64,-16.88 1310.64,-16.88 1308.21,-16.3 1310.12,-19.07 1305.78,-15.72 1305.78,-15.72"/>
</a>
</g>
</g>
<!-- Node28 -->
<g id="Node000028" class="node">
<title>Node28</title>
<g id="a_Node000028"><a xlink:title=" ">
<polygon fill="#e0e0e0" stroke="#999999" points="1410.5,-404 1345.5,-404 1345.5,-385 1410.5,-385 1410.5,-404"/>
<text text-anchor="middle" x="1378" y="-392" font-family="Helvetica,sans-Serif" font-size="10.00">functional</text>
</a>
</g>
</g>
<!-- Node1&#45;&gt;Node28 -->
<g id="edge67_Node000001_Node000028" class="edge">
<title>Node1&#45;&gt;Node28</title>
<g id="a_edge67_Node000001_Node000028"><a xlink:title=" ">
<path fill="none" stroke="#63b8ff" d="M1482.13,-505.99C1463.6,-497.52 1441.49,-485.38 1425,-470 1405.95,-452.23 1391.44,-425.11 1383.86,-408.96"/>
<polygon fill="#63b8ff" stroke="#63b8ff" points="1381.74,-404.33 1385.87,-407.93 1382.78,-406.6 1383.82,-408.87 1383.82,-408.87 1383.82,-408.87 1382.78,-406.6 1381.77,-409.81 1381.74,-404.33 1381.74,-404.33"/>
</a>
</g>
</g>
<!-- Node29 -->
<g id="Node000029" class="node">
<title>Node29</title>
<g id="a_Node000029"><a xlink:title=" ">
<polygon fill="#e0e0e0" stroke="#999999" points="1568.5,-470 1467.5,-470 1467.5,-440 1568.5,-440 1568.5,-470"/>
<text text-anchor="start" x="1475.5" y="-458" font-family="Helvetica,sans-Serif" font-size="10.00">../../../common/lib</text>
<text text-anchor="middle" x="1518" y="-447" font-family="Helvetica,sans-Serif" font-size="10.00">/peglib.h</text>
</a>
</g>
</g>
<!-- Node1&#45;&gt;Node29 -->
<g id="edge62_Node000001_Node000029" class="edge">
<title>Node1&#45;&gt;Node29</title>
<g id="a_edge62_Node000001_Node000029"><a xlink:title=" ">
<path fill="none" stroke="#63b8ff" d="M1518,-505.8C1518,-496.85 1518,-485.18 1518,-475.38"/>
<polygon fill="#63b8ff" stroke="#63b8ff" points="1518,-470.16 1520.25,-475.16 1518,-472.66 1518,-475.16 1518,-475.16 1518,-475.16 1518,-472.66 1515.75,-475.16 1518,-470.16 1518,-470.16"/>
</a>
</g>
</g>
<!-- Node30 -->
<g id="Node000030" class="node">
<title>Node30</title>
<g id="a_Node000030"><a xlink:title=" ">
<polygon fill="#e0e0e0" stroke="#999999" points="1659.5,-464.5 1586.5,-464.5 1586.5,-445.5 1659.5,-445.5 1659.5,-464.5"/>
<text text-anchor="middle" x="1623" y="-452.5" font-family="Helvetica,sans-Serif" font-size="10.00">QByteArray</text>
</a>
</g>
</g>
<!-- Node1&#45;&gt;Node30 -->
<g id="edge63_Node000001_Node000030" class="edge">
<title>Node1&#45;&gt;Node30</title>
<g id="a_edge63_Node000001_Node000030"><a xlink:title=" ">
<path fill="none" stroke="#63b8ff" d="M1541.04,-505.95C1560.19,-494.29 1587.06,-477.91 1604.74,-467.13"/>
<polygon fill="#63b8ff" stroke="#63b8ff" points="1609.03,-464.52 1605.93,-469.04 1606.89,-465.82 1604.76,-467.12 1604.76,-467.12 1604.76,-467.12 1606.89,-465.82 1603.59,-465.2 1609.03,-464.52 1609.03,-464.52"/>
</a>
</g>
</g>
<!-- Node31 -->
<g id="Node000031" class="node">
<title>Node31</title>
<g id="a_Node000031"><a xlink:title=" ">
<polygon fill="#e0e0e0" stroke="#999999" points="1734,-464.5 1678,-464.5 1678,-445.5 1734,-445.5 1734,-464.5"/>
<text text-anchor="middle" x="1706" y="-452.5" font-family="Helvetica,sans-Serif" font-size="10.00">QDebug</text>
</a>
</g>
</g>
<!-- Node1&#45;&gt;Node31 -->
<g id="edge64_Node000001_Node000031" class="edge">
<title>Node1&#45;&gt;Node31</title>
<g id="a_edge64_Node000001_Node000031"><a xlink:title=" ">
<path fill="none" stroke="#63b8ff" d="M1561.44,-505.92C1591.46,-496.09 1632.25,-482.54 1668,-470 1671.38,-468.82 1674.91,-467.55 1678.41,-466.28"/>
<polygon fill="#63b8ff" stroke="#63b8ff" points="1683.13,-464.56 1679.21,-468.38 1680.79,-465.41 1678.44,-466.27 1678.44,-466.27 1678.44,-466.27 1680.79,-465.41 1677.67,-464.16 1683.13,-464.56 1683.13,-464.56"/>
</a>
</g>
</g>
<!-- Node32 -->
<g id="Node000032" class="node">
<title>Node32</title>
<g id="a_Node000032"><a xlink:title=" ">
<polygon fill="#e0e0e0" stroke="#999999" points="1867.5,-464.5 1752.5,-464.5 1752.5,-445.5 1867.5,-445.5 1867.5,-464.5"/>
<text text-anchor="middle" x="1810" y="-452.5" font-family="Helvetica,sans-Serif" font-size="10.00">QRegularExpression</text>
</a>
</g>
</g>
<!-- Node1&#45;&gt;Node32 -->
<g id="edge65_Node000001_Node000032" class="edge">
<title>Node1&#45;&gt;Node32</title>
<g id="a_edge65_Node000001_Node000032"><a xlink:title=" ">
<path fill="none" stroke="#63b8ff" d="M1575.34,-507.43C1631.22,-495.18 1714.99,-476.82 1765.86,-465.67"/>
<polygon fill="#63b8ff" stroke="#63b8ff" points="1770.99,-464.55 1766.58,-467.82 1768.54,-465.09 1766.1,-465.62 1766.1,-465.62 1766.1,-465.62 1768.54,-465.09 1765.62,-463.42 1770.99,-464.55 1770.99,-464.55"/>
</a>
</g>
</g>
<!-- Node3 -->
<g id="Node000003" class="node">
<title>Node3</title>
<g id="a_Node000003"><a xlink:href="../../df/df3/card__info_8h.html" target="_top" xlink:title="TODO: Document this.">
<polygon fill="white" stroke="#666666" points="667,-184 563,-184 563,-165 667,-165 667,-184"/>
<text text-anchor="middle" x="615" y="-172" font-family="Helvetica,sans-Serif" font-size="10.00">../card/card_info.h</text>
</a>
</g>
</g>
<!-- Node2&#45;&gt;Node3 -->
<g id="edge2_Node000002_Node000003" class="edge">
<title>Node2&#45;&gt;Node3</title>
<g id="a_edge2_Node000002_Node000003"><a xlink:title=" ">
<path fill="none" stroke="#63b8ff" d="M1208.47,-452.04C1056.77,-443.86 525.32,-407.42 409,-294 383.71,-269.34 357.47,-247.2 380,-220 402.13,-193.29 495.44,-182.49 557.62,-178.21"/>
<polygon fill="#63b8ff" stroke="#63b8ff" points="562.79,-177.86 557.95,-180.44 560.29,-178.03 557.8,-178.2 557.8,-178.2 557.8,-178.2 560.29,-178.03 557.65,-175.95 562.79,-177.86 562.79,-177.86"/>
</a>
</g>
</g>
<!-- Node2&#45;&gt;Node9 -->
<g id="edge59_Node000002_Node000009" class="edge">
<title>Node2&#45;&gt;Node9</title>
<g id="a_edge59_Node000002_Node000009"><a xlink:title=" ">
<path fill="none" stroke="#63b8ff" d="M1258.74,-445.37C1277.55,-427.7 1317,-385.29 1317,-340.5 1317,-340.5 1317,-340.5 1317,-118.5 1317,-82.43 1297.91,-43.24 1286.79,-23.47"/>
<polygon fill="#63b8ff" stroke="#63b8ff" points="1284.28,-19.1 1288.72,-22.31 1285.53,-21.27 1286.77,-23.43 1286.77,-23.43 1286.77,-23.43 1285.53,-21.27 1284.82,-24.55 1284.28,-19.1 1284.28,-19.1"/>
</a>
</g>
</g>
<!-- Node10 -->
<g id="Node000010" class="node">
<title>Node10</title>
<g id="a_Node000010"><a xlink:title=" ">
<polygon fill="#e0e0e0" stroke="#999999" points="1084.5,-74 1039.5,-74 1039.5,-55 1084.5,-55 1084.5,-74"/>
<text text-anchor="middle" x="1062" y="-62" font-family="Helvetica,sans-Serif" font-size="10.00">QMap</text>
</a>
</g>
</g>
<!-- Node2&#45;&gt;Node10 -->
<g id="edge58_Node000002_Node000010" class="edge">
<title>Node2&#45;&gt;Node10</title>
<g id="a_edge58_Node000002_Node000010"><a xlink:title=" ">
<path fill="none" stroke="#63b8ff" d="M1252.92,-445.38C1261.05,-426.68 1279,-380.86 1279,-340.5 1279,-340.5 1279,-340.5 1279,-173.5 1279,-89.96 1148.52,-71.04 1089.92,-66.76"/>
<polygon fill="#63b8ff" stroke="#63b8ff" points="1084.81,-66.41 1089.95,-64.5 1087.31,-66.58 1089.8,-66.75 1089.8,-66.75 1089.8,-66.75 1087.31,-66.58 1089.65,-68.99 1084.81,-66.41 1084.81,-66.41"/>
</a>
</g>
</g>
<!-- Node14 -->
<g id="Node000014" class="node">
<title>Node14</title>
<g id="a_Node000014"><a xlink:title=" ">
<polygon fill="#e0e0e0" stroke="#999999" points="211.5,-129 104.5,-129 104.5,-110 211.5,-110 211.5,-129"/>
<text text-anchor="middle" x="158" y="-117" font-family="Helvetica,sans-Serif" font-size="10.00">QLoggingCategory</text>
</a>
</g>
</g>
<!-- Node2&#45;&gt;Node14 -->
<g id="edge57_Node000002_Node000014" class="edge">
<title>Node2&#45;&gt;Node14</title>
<g id="a_edge57_Node000002_Node000014"><a xlink:title=" ">
<path fill="none" stroke="#63b8ff" d="M1208.46,-453.51C1110.91,-451.69 855.71,-443.26 647,-404 562.7,-388.14 541,-382.42 462,-349 335.95,-295.68 293.62,-285.67 202,-184 187.61,-168.03 173.99,-147.16 165.81,-133.79"/>
<polygon fill="#63b8ff" stroke="#63b8ff" points="163.06,-129.22 167.57,-132.34 164.35,-131.36 165.64,-133.5 165.64,-133.5 165.64,-133.5 164.35,-131.36 163.72,-134.67 163.06,-129.22 163.06,-129.22"/>
</a>
</g>
</g>
<!-- Node16 -->
<g id="Node000016" class="node">
<title>Node16</title>
<g id="a_Node000016"><a xlink:title=" ">
<polygon fill="#e0e0e0" stroke="#999999" points="1073.5,-129 1028.5,-129 1028.5,-110 1073.5,-110 1073.5,-129"/>
<text text-anchor="middle" x="1051" y="-117" font-family="Helvetica,sans-Serif" font-size="10.00">utility</text>
</a>
</g>
</g>
<!-- Node2&#45;&gt;Node16 -->
<g id="edge61_Node000002_Node000016" class="edge">
<title>Node2&#45;&gt;Node16</title>
<g id="a_edge61_Node000002_Node000016"><a xlink:title=" ">
<path fill="none" stroke="#63b8ff" d="M1244.69,-445.3C1231.67,-419.15 1191.36,-339.15 1154,-275 1124.84,-224.92 1116.84,-212.75 1084,-165 1076.51,-154.1 1067.54,-142.07 1060.85,-133.27"/>
<polygon fill="#63b8ff" stroke="#63b8ff" points="1057.76,-129.23 1062.59,-131.84 1059.28,-131.22 1060.8,-133.2 1060.8,-133.2 1060.8,-133.2 1059.28,-131.22 1059.01,-134.57 1057.76,-129.23 1057.76,-129.23"/>
</a>
</g>
</g>
<!-- Node17 -->
<g id="Node000017" class="node">
<title>Node17</title>
<g id="a_Node000017"><a xlink:href="../../d4/df3/filter__tree_8h.html" target="_top" xlink:title="TODO: Document this.">
<polygon fill="white" stroke="#666666" points="1079.5,-404 1006.5,-404 1006.5,-385 1079.5,-385 1079.5,-404"/>
<text text-anchor="middle" x="1043" y="-392" font-family="Helvetica,sans-Serif" font-size="10.00">filter_tree.h</text>
</a>
</g>
</g>
<!-- Node2&#45;&gt;Node17 -->
<g id="edge23_Node000002_Node000017" class="edge">
<title>Node2&#45;&gt;Node17</title>
<g id="a_edge23_Node000002_Node000017"><a xlink:title=" ">
<path fill="none" stroke="#63b8ff" d="M1219.05,-445.49C1181.67,-434.88 1117.85,-416.76 1078.18,-405.49"/>
<polygon fill="#63b8ff" stroke="#63b8ff" points="1072.99,-404.02 1078.41,-403.22 1075.4,-404.7 1077.8,-405.38 1077.8,-405.38 1077.8,-405.38 1075.4,-404.7 1077.19,-407.55 1072.99,-404.02 1072.99,-404.02"/>
</a>
</g>
</g>
<!-- Node2&#45;&gt;Node28 -->
<g id="edge60_Node000002_Node000028" class="edge">
<title>Node2&#45;&gt;Node28</title>
<g id="a_edge60_Node000002_Node000028"><a xlink:title=" ">
<path fill="none" stroke="#63b8ff" d="M1267.76,-445.49C1290.69,-435.1 1329.5,-417.49 1354.43,-406.19"/>
<polygon fill="#63b8ff" stroke="#63b8ff" points="1359.22,-404.02 1355.6,-408.13 1356.94,-405.05 1354.67,-406.08 1354.67,-406.08 1354.67,-406.08 1356.94,-405.05 1353.74,-404.03 1359.22,-404.02 1359.22,-404.02"/>
</a>
</g>
</g>
<!-- Node4 -->
<g id="Node000004" class="node">
<title>Node4</title>
<g id="a_Node000004"><a xlink:href="../../dc/dd2/printing__info_8h.html" target="_top" xlink:title=" ">
<polygon fill="white" stroke="#666666" points="658.5,-129 571.5,-129 571.5,-110 658.5,-110 658.5,-129"/>
<text text-anchor="middle" x="615" y="-117" font-family="Helvetica,sans-Serif" font-size="10.00">printing_info.h</text>
</a>
</g>
</g>
<!-- Node3&#45;&gt;Node4 -->
<g id="edge3_Node000003_Node000004" class="edge">
<title>Node3&#45;&gt;Node4</title>
<g id="a_edge3_Node000003_Node000004"><a xlink:title=" ">
<path fill="none" stroke="#63b8ff" d="M615,-164.75C615,-156.41 615,-143.74 615,-134.09"/>
<polygon fill="#63b8ff" stroke="#63b8ff" points="615,-129.09 617.25,-134.09 615,-131.59 615,-134.09 615,-134.09 615,-134.09 615,-131.59 612.75,-134.09 615,-129.09 615,-129.09"/>
</a>
</g>
</g>
<!-- Node6 -->
<g id="Node000006" class="node">
<title>Node6</title>
<g id="a_Node000006"><a xlink:title=" ">
<polygon fill="#e0e0e0" stroke="#999999" points="263.5,-19 216.5,-19 216.5,0 263.5,0 263.5,-19"/>
<text text-anchor="middle" x="240" y="-7" font-family="Helvetica,sans-Serif" font-size="10.00">QDate</text>
</a>
</g>
</g>
<!-- Node3&#45;&gt;Node6 -->
<g id="edge13_Node000003_Node000006" class="edge">
<title>Node3&#45;&gt;Node6</title>
<g id="a_edge13_Node000003_Node000006"><a xlink:title=" ">
<path fill="none" stroke="#63b8ff" d="M562.78,-170.76C488.67,-166.04 357.59,-154.31 318,-129 278.09,-103.49 254.12,-49.43 244.67,-24.11"/>
<polygon fill="#63b8ff" stroke="#63b8ff" points="242.87,-19.17 246.69,-23.1 243.73,-21.52 244.58,-23.87 244.58,-23.87 244.58,-23.87 243.73,-21.52 242.46,-24.64 242.87,-19.17 242.87,-19.17"/>
</a>
</g>
</g>
<!-- Node7 -->
<g id="Node000007" class="node">
<title>Node7</title>
<g id="a_Node000007"><a xlink:title=" ">
<polygon fill="#e0e0e0" stroke="#999999" points="629.5,-19 588.5,-19 588.5,0 629.5,0 629.5,-19"/>
<text text-anchor="middle" x="609" y="-7" font-family="Helvetica,sans-Serif" font-size="10.00">QList</text>
</a>
</g>
</g>
<!-- Node3&#45;&gt;Node7 -->
<g id="edge15_Node000003_Node000007" class="edge">
<title>Node3&#45;&gt;Node7</title>
<g id="a_edge15_Node000003_Node000007"><a xlink:title=" ">
<path fill="none" stroke="#63b8ff" d="M635.01,-164.87C650.29,-157.37 670.89,-145.16 684,-129 705.53,-102.45 723.4,-83.81 705,-55 689.65,-30.96 657.61,-19.71 634.77,-14.58"/>
<polygon fill="#63b8ff" stroke="#63b8ff" points="629.75,-13.52 635.11,-12.36 632.2,-14.04 634.65,-14.56 634.65,-14.56 634.65,-14.56 632.2,-14.04 634.18,-16.76 629.75,-13.52 629.75,-13.52"/>
</a>
</g>
</g>
<!-- Node8 -->
<g id="Node000008" class="node">
<title>Node8</title>
<g id="a_Node000008"><a xlink:title=" ">
<polygon fill="#e0e0e0" stroke="#999999" points="472,-19 380,-19 380,0 472,0 472,-19"/>
<text text-anchor="middle" x="426" y="-7" font-family="Helvetica,sans-Serif" font-size="10.00">QSharedPointer</text>
</a>
</g>
</g>
<!-- Node3&#45;&gt;Node8 -->
<g id="edge19_Node000003_Node000008" class="edge">
<title>Node3&#45;&gt;Node8</title>
<g id="a_edge19_Node000003_Node000008"><a xlink:title=" ">
<path fill="none" stroke="#63b8ff" d="M563,-173.23C488.43,-171.61 356.8,-163.76 327,-129 311.16,-110.52 329.92,-76.09 348,-55 361.06,-39.77 380.7,-28.6 397,-21.27"/>
<polygon fill="#63b8ff" stroke="#63b8ff" points="401.94,-19.11 398.26,-23.17 399.65,-20.11 397.36,-21.11 397.36,-21.11 397.36,-21.11 399.65,-20.11 396.46,-19.05 401.94,-19.11 401.94,-19.11"/>
</a>
</g>
</g>
<!-- Node3&#45;&gt;Node10 -->
<g id="edge17_Node000003_Node000010" class="edge">
<title>Node3&#45;&gt;Node10</title>
<g id="a_edge17_Node000003_Node000010"><a xlink:title=" ">
<path fill="none" stroke="#63b8ff" d="M640.37,-164.99C665.58,-156.4 705.23,-142.5 739,-129 758.4,-121.24 761.96,-115.91 782,-110 872.14,-83.41 983.59,-71.73 1034.41,-67.51"/>
<polygon fill="#63b8ff" stroke="#63b8ff" points="1039.42,-67.1 1034.62,-69.75 1036.93,-67.3 1034.44,-67.51 1034.44,-67.51 1034.44,-67.51 1036.93,-67.3 1034.26,-65.26 1039.42,-67.1 1039.42,-67.1"/>
</a>
</g>
</g>
<!-- Node11 -->
<g id="Node000011" class="node">
<title>Node11</title>
<g id="a_Node000011"><a xlink:title=" ">
<polygon fill="#e0e0e0" stroke="#999999" points="427,-74 357,-74 357,-55 427,-55 427,-74"/>
<text text-anchor="middle" x="392" y="-62" font-family="Helvetica,sans-Serif" font-size="10.00">QStringList</text>
</a>
</g>
</g>
<!-- Node3&#45;&gt;Node11 -->
<g id="edge20_Node000003_Node000011" class="edge">
<title>Node3&#45;&gt;Node11</title>
<g id="a_edge20_Node000003_Node000011"><a xlink:title=" ">
<path fill="none" stroke="#63b8ff" d="M562.92,-172.96C490.15,-170.98 363.72,-162.65 335,-129 319.02,-110.28 347.8,-89.1 369.97,-76.55"/>
<polygon fill="#63b8ff" stroke="#63b8ff" points="374.58,-74.01 371.29,-78.39 372.39,-75.21 370.2,-76.42 370.2,-76.42 370.2,-76.42 372.39,-75.21 369.12,-74.45 374.58,-74.01 374.58,-74.01"/>
</a>
</g>
</g>
<!-- Node12 -->
<g id="Node000012" class="node">
<title>Node12</title>
<g id="a_Node000012"><a xlink:title=" ">
<polygon fill="#e0e0e0" stroke="#999999" points="696.5,-74 637.5,-74 637.5,-55 696.5,-55 696.5,-74"/>
<text text-anchor="middle" x="667" y="-62" font-family="Helvetica,sans-Serif" font-size="10.00">QVariant</text>
</a>
</g>
</g>
<!-- Node3&#45;&gt;Node12 -->
<g id="edge21_Node000003_Node000012" class="edge">
<title>Node3&#45;&gt;Node12</title>
<g id="a_edge21_Node000003_Node000012"><a xlink:title=" ">
<path fill="none" stroke="#63b8ff" d="M631.03,-164.95C643.41,-157.35 659.65,-144.97 667,-129 674.33,-113.09 672.56,-92.46 670.16,-79.11"/>
<polygon fill="#63b8ff" stroke="#63b8ff" points="669.19,-74.2 672.37,-78.67 669.68,-76.65 670.16,-79.11 670.16,-79.11 670.16,-79.11 669.68,-76.65 667.95,-79.54 669.19,-74.2 669.19,-74.2"/>
</a>
</g>
</g>
<!-- Node13 -->
<g id="Node000013" class="node">
<title>Node13</title>
<g id="a_Node000013"><a xlink:title=" ">
<polygon fill="#e0e0e0" stroke="#999999" points="840.5,-129 791.5,-129 791.5,-110 840.5,-110 840.5,-129"/>
<text text-anchor="middle" x="816" y="-117" font-family="Helvetica,sans-Serif" font-size="10.00">QHash</text>
</a>
</g>
</g>
<!-- Node3&#45;&gt;Node13 -->
<g id="edge14_Node000003_Node000013" class="edge">
<title>Node3&#45;&gt;Node13</title>
<g id="a_edge14_Node000003_Node000013"><a xlink:title=" ">
<path fill="none" stroke="#63b8ff" d="M647.29,-164.98C685.74,-154.85 749.4,-138.06 786.55,-128.27"/>
<polygon fill="#63b8ff" stroke="#63b8ff" points="791.39,-126.99 787.13,-130.44 788.97,-127.63 786.55,-128.26 786.55,-128.26 786.55,-128.26 788.97,-127.63 785.98,-126.09 791.39,-126.99 791.39,-126.99"/>
</a>
</g>
</g>
<!-- Node3&#45;&gt;Node14 -->
<g id="edge16_Node000003_Node000014" class="edge">
<title>Node3&#45;&gt;Node14</title>
<g id="a_edge16_Node000003_Node000014"><a xlink:title=" ">
<path fill="none" stroke="#63b8ff" d="M562.76,-167.7C488.07,-159.37 346.48,-143.42 226,-129 223.12,-128.66 220.17,-128.3 217.2,-127.94"/>
<polygon fill="#63b8ff" stroke="#63b8ff" points="211.82,-127.28 217.05,-125.65 214.3,-127.58 216.78,-127.89 216.78,-127.89 216.78,-127.89 214.3,-127.58 216.51,-130.12 211.82,-127.28 211.82,-127.28"/>
</a>
</g>
</g>
<!-- Node15 -->
<g id="Node000015" class="node">
<title>Node15</title>
<g id="a_Node000015"><a xlink:title=" ">
<polygon fill="#e0e0e0" stroke="#999999" points="553.5,-129 482.5,-129 482.5,-110 553.5,-110 553.5,-129"/>
<text text-anchor="middle" x="518" y="-117" font-family="Helvetica,sans-Serif" font-size="10.00">QMetaType</text>
</a>
</g>
</g>
<!-- Node3&#45;&gt;Node15 -->
<g id="edge18_Node000003_Node000015" class="edge">
<title>Node3&#45;&gt;Node15</title>
<g id="a_edge18_Node000003_Node000015"><a xlink:title=" ">
<path fill="none" stroke="#63b8ff" d="M599.42,-164.98C582.83,-155.92 556.51,-141.54 538.31,-131.6"/>
<polygon fill="#63b8ff" stroke="#63b8ff" points="533.87,-129.17 539.33,-129.59 536.06,-130.37 538.26,-131.57 538.26,-131.57 538.26,-131.57 536.06,-130.37 537.18,-133.54 533.87,-129.17 533.87,-129.17"/>
</a>
</g>
</g>
<!-- Node3&#45;&gt;Node16 -->
<g id="edge22_Node000003_Node000016" class="edge">
<title>Node3&#45;&gt;Node16</title>
<g id="a_edge22_Node000003_Node000016"><a xlink:title=" ">
<path fill="none" stroke="#63b8ff" d="M667.16,-167.16C760.12,-155.86 951.42,-132.61 1023.08,-123.89"/>
<polygon fill="#63b8ff" stroke="#63b8ff" points="1028.43,-123.24 1023.74,-126.08 1025.95,-123.55 1023.47,-123.85 1023.47,-123.85 1023.47,-123.85 1025.95,-123.55 1023.2,-121.61 1028.43,-123.24 1028.43,-123.24"/>
</a>
</g>
</g>
<!-- Node5 -->
<g id="Node000005" class="node">
<title>Node5</title>
<g id="a_Node000005"><a xlink:href="../../d3/dda/card__set_8h.html" target="_top" xlink:title=" ">
<polygon fill="white" stroke="#666666" points="573.5,-74 506.5,-74 506.5,-55 573.5,-55 573.5,-74"/>
<text text-anchor="middle" x="540" y="-62" font-family="Helvetica,sans-Serif" font-size="10.00">card_set.h</text>
</a>
</g>
</g>
<!-- Node4&#45;&gt;Node5 -->
<g id="edge4_Node000004_Node000005" class="edge">
<title>Node4&#45;&gt;Node5</title>
<g id="a_edge4_Node000004_Node000005"><a xlink:title=" ">
<path fill="none" stroke="#63b8ff" d="M602.95,-109.98C590.34,-101.07 570.46,-87.03 556.42,-77.11"/>
<polygon fill="#63b8ff" stroke="#63b8ff" points="552.27,-74.17 557.65,-75.22 554.31,-75.61 556.35,-77.06 556.35,-77.06 556.35,-77.06 554.31,-75.61 555.05,-78.89 552.27,-74.17 552.27,-74.17"/>
</a>
</g>
</g>
<!-- Node4&#45;&gt;Node7 -->
<g id="edge9_Node000004_Node000007" class="edge">
<title>Node4&#45;&gt;Node7</title>
<g id="a_edge9_Node000004_Node000007"><a xlink:title=" ">
<path fill="none" stroke="#63b8ff" d="M614.51,-109.66C613.47,-90.9 611.03,-46.96 609.77,-24.4"/>
<polygon fill="#63b8ff" stroke="#63b8ff" points="609.48,-19.16 612,-24.03 609.62,-21.65 609.76,-24.15 609.76,-24.15 609.76,-24.15 609.62,-21.65 607.51,-24.28 609.48,-19.16 609.48,-19.16"/>
</a>
</g>
</g>
<!-- Node4&#45;&gt;Node10 -->
<g id="edge10_Node000004_Node000010" class="edge">
<title>Node4&#45;&gt;Node10</title>
<g id="a_edge10_Node000004_Node000010"><a xlink:title=" ">
<path fill="none" stroke="#63b8ff" d="M658.67,-113.32C749.85,-102.51 958.24,-77.8 1033.89,-68.83"/>
<polygon fill="#63b8ff" stroke="#63b8ff" points="1039.11,-68.21 1034.41,-71.04 1036.63,-68.51 1034.14,-68.8 1034.14,-68.8 1034.14,-68.8 1036.63,-68.51 1033.88,-66.57 1039.11,-68.21 1039.11,-68.21"/>
</a>
</g>
</g>
<!-- Node4&#45;&gt;Node11 -->
<g id="edge11_Node000004_Node000011" class="edge">
<title>Node4&#45;&gt;Node11</title>
<g id="a_edge11_Node000004_Node000011"><a xlink:title=" ">
<path fill="none" stroke="#63b8ff" d="M579.17,-109.98C538.95,-100.42 473.84,-84.95 431.99,-75"/>
<polygon fill="#63b8ff" stroke="#63b8ff" points="427,-73.82 432.39,-72.79 429.44,-74.4 431.87,-74.98 431.87,-74.98 431.87,-74.98 429.44,-74.4 431.35,-77.16 427,-73.82 427,-73.82"/>
</a>
</g>
</g>
<!-- Node4&#45;&gt;Node12 -->
<g id="edge12_Node000004_Node000012" class="edge">
<title>Node4&#45;&gt;Node12</title>
<g id="a_edge12_Node000004_Node000012"><a xlink:title=" ">
<path fill="none" stroke="#63b8ff" d="M623.59,-109.75C632.14,-101.03 645.36,-87.56 654.96,-77.77"/>
<polygon fill="#63b8ff" stroke="#63b8ff" points="658.57,-74.09 656.68,-79.23 656.82,-75.87 655.07,-77.66 655.07,-77.66 655.07,-77.66 656.82,-75.87 653.47,-76.08 658.57,-74.09 658.57,-74.09"/>
</a>
</g>
</g>
<!-- Node5&#45;&gt;Node6 -->
<g id="edge5_Node000005_Node000006" class="edge">
<title>Node5&#45;&gt;Node6</title>
<g id="a_edge5_Node000005_Node000006"><a xlink:title=" ">
<path fill="none" stroke="#63b8ff" d="M506.46,-57.57C447.21,-47.11 325.02,-25.52 269.09,-15.64"/>
<polygon fill="#63b8ff" stroke="#63b8ff" points="263.89,-14.72 269.21,-13.38 266.36,-15.16 268.82,-15.59 268.82,-15.59 268.82,-15.59 266.36,-15.16 268.43,-17.81 263.89,-14.72 263.89,-14.72"/>
</a>
</g>
</g>
<!-- Node5&#45;&gt;Node7 -->
<g id="edge6_Node000005_Node000007" class="edge">
<title>Node5&#45;&gt;Node7</title>
<g id="a_edge6_Node000005_Node000007"><a xlink:title=" ">
<path fill="none" stroke="#63b8ff" d="M551.09,-54.98C562.59,-46.15 580.66,-32.27 593.55,-22.36"/>
<polygon fill="#63b8ff" stroke="#63b8ff" points="597.71,-19.17 595.12,-24 595.73,-20.69 593.75,-22.22 593.75,-22.22 593.75,-22.22 595.73,-20.69 592.38,-20.43 597.71,-19.17 597.71,-19.17"/>
</a>
</g>
</g>
<!-- Node5&#45;&gt;Node8 -->
<g id="edge7_Node000005_Node000008" class="edge">
<title>Node5&#45;&gt;Node8</title>
<g id="a_edge7_Node000005_Node000008"><a xlink:title=" ">
<path fill="none" stroke="#63b8ff" d="M521.68,-54.98C502.02,-45.84 470.74,-31.3 449.33,-21.35"/>
<polygon fill="#63b8ff" stroke="#63b8ff" points="444.65,-19.17 450.13,-19.24 446.92,-20.22 449.18,-21.28 449.18,-21.28 449.18,-21.28 446.92,-20.22 448.23,-23.32 444.65,-19.17 444.65,-19.17"/>
</a>
</g>
</g>
<!-- Node5&#45;&gt;Node9 -->
<g id="edge8_Node000005_Node000009" class="edge">
<title>Node5&#45;&gt;Node9</title>
<g id="a_edge8_Node000005_Node000009"><a xlink:title=" ">
<path fill="none" stroke="#63b8ff" d="M573.83,-60.01C590.18,-58.38 610.1,-56.48 628,-55 865.68,-35.4 1152.69,-17.94 1247.17,-12.36"/>
<polygon fill="#63b8ff" stroke="#63b8ff" points="1252.32,-12.05 1247.46,-14.6 1249.82,-12.2 1247.32,-12.35 1247.32,-12.35 1247.32,-12.35 1249.82,-12.2 1247.19,-10.1 1252.32,-12.05 1252.32,-12.05"/>
</a>
</g>
</g>
<!-- Node17&#45;&gt;Node7 -->
<g id="edge53_Node000017_Node000007" class="edge">
<title>Node17&#45;&gt;Node7</title>
<g id="a_edge53_Node000017_Node000007"><a xlink:title=" ">
<path fill="none" stroke="#63b8ff" d="M1006.34,-391.52C825.59,-381.55 38,-335.21 38,-285.5 38,-285.5 38,-285.5 38,-173.5 38,-137.58 57.49,-128.96 88,-110 173.2,-57.04 490.77,-22.15 583.45,-12.94"/>
<polygon fill="#63b8ff" stroke="#63b8ff" points="588.46,-12.44 583.71,-15.17 585.98,-12.69 583.49,-12.94 583.49,-12.94 583.49,-12.94 585.98,-12.69 583.27,-10.7 588.46,-12.44 588.46,-12.44"/>
</a>
</g>
</g>
<!-- Node17&#45;&gt;Node10 -->
<g id="edge54_Node000017_Node000010" class="edge">
<title>Node17&#45;&gt;Node10</title>
<g id="a_edge54_Node000017_Node000010"><a xlink:title=" ">
<path fill="none" stroke="#63b8ff" d="M1059.37,-384.87C1085.2,-370.21 1134.48,-337.72 1154,-294 1190.19,-212.95 1107.22,-113.12 1074.52,-78.24"/>
<polygon fill="#63b8ff" stroke="#63b8ff" points="1070.8,-74.31 1075.87,-76.39 1072.52,-76.13 1074.24,-77.94 1074.24,-77.94 1074.24,-77.94 1072.52,-76.13 1072.61,-79.49 1070.8,-74.31 1070.8,-74.31"/>
</a>
</g>
</g>
<!-- Node17&#45;&gt;Node16 -->
<g id="edge56_Node000017_Node000016" class="edge">
<title>Node17&#45;&gt;Node16</title>
<g id="a_edge56_Node000017_Node000016"><a xlink:title=" ">
<path fill="none" stroke="#63b8ff" d="M1043.26,-384.73C1044.42,-345.09 1049.18,-182.61 1050.6,-134.18"/>
<polygon fill="#63b8ff" stroke="#63b8ff" points="1050.75,-129.11 1052.85,-134.17 1050.67,-131.6 1050.6,-134.1 1050.6,-134.1 1050.6,-134.1 1050.67,-131.6 1048.35,-134.04 1050.75,-129.11 1050.75,-129.11"/>
</a>
</g>
</g>
<!-- Node18 -->
<g id="Node000018" class="node">
<title>Node18</title>
<g id="a_Node000018"><a xlink:href="../../d7/d66/card__database_8h.html" target="_top" xlink:title="The CardDatabase is responsible for holding the card and set maps.">
<polygon fill="white" stroke="#666666" points="683,-349 529,-349 529,-330 683,-330 683,-349"/>
<text text-anchor="middle" x="606" y="-337" font-family="Helvetica,sans-Serif" font-size="10.00">../database/card_database.h</text>
</a>
</g>
</g>
<!-- Node17&#45;&gt;Node18 -->
<g id="edge24_Node000017_Node000018" class="edge">
<title>Node17&#45;&gt;Node18</title>
<g id="a_edge24_Node000017_Node000018"><a xlink:title=" ">
<path fill="none" stroke="#63b8ff" d="M1006.49,-389.07C935.15,-380.42 775.95,-361.11 681.16,-349.62"/>
<polygon fill="#63b8ff" stroke="#63b8ff" points="676.13,-349.01 681.37,-347.37 678.61,-349.31 681.1,-349.61 681.1,-349.61 681.1,-349.61 678.61,-349.31 680.82,-351.84 676.13,-349.01 676.13,-349.01"/>
</a>
</g>
</g>
<!-- Node24 -->
<g id="Node000024" class="node">
<title>Node24</title>
<g id="a_Node000024"><a xlink:title=" ">
<polygon fill="#e0e0e0" stroke="#999999" points="985,-239 929,-239 929,-220 985,-220 985,-239"/>
<text text-anchor="middle" x="957" y="-227" font-family="Helvetica,sans-Serif" font-size="10.00">QObject</text>
</a>
</g>
</g>
<!-- Node17&#45;&gt;Node24 -->
<g id="edge55_Node000017_Node000024" class="edge">
<title>Node17&#45;&gt;Node24</title>
<g id="a_edge55_Node000017_Node000024"><a xlink:title=" ">
<path fill="none" stroke="#63b8ff" d="M1038.38,-384.74C1024.2,-357.87 981.29,-276.53 964.16,-244.08"/>
<polygon fill="#63b8ff" stroke="#63b8ff" points="961.65,-239.31 965.97,-242.68 962.81,-241.52 963.98,-243.73 963.98,-243.73 963.98,-243.73 962.81,-241.52 961.99,-244.78 961.65,-239.31 961.65,-239.31"/>
</a>
</g>
</g>
<!-- Node27 -->
<g id="Node000027" class="node">
<title>Node27</title>
<g id="a_Node000027"><a xlink:href="../../dc/dfa/filter__card_8h.html" target="_top" xlink:title="TODO: Document this.">
<polygon fill="white" stroke="#666666" points="1145,-294 1071,-294 1071,-275 1145,-275 1145,-294"/>
<text text-anchor="middle" x="1108" y="-282" font-family="Helvetica,sans-Serif" font-size="10.00">filter_card.h</text>
</a>
</g>
</g>
<!-- Node17&#45;&gt;Node27 -->
<g id="edge49_Node000017_Node000027" class="edge">
<title>Node17&#45;&gt;Node27</title>
<g id="a_edge49_Node000017_Node000027"><a xlink:title=" ">
<path fill="none" stroke="#63b8ff" d="M1048.32,-384.66C1059.76,-365.66 1086.73,-320.84 1100.14,-298.55"/>
<polygon fill="#63b8ff" stroke="#63b8ff" points="1102.79,-294.16 1102.14,-299.6 1101.5,-296.3 1100.21,-298.44 1100.21,-298.44 1100.21,-298.44 1101.5,-296.3 1098.28,-297.28 1102.79,-294.16 1102.79,-294.16"/>
</a>
</g>
</g>
<!-- Node18&#45;&gt;Node6 -->
<g id="edge42_Node000018_Node000006" class="edge">
<title>Node18&#45;&gt;Node6</title>
<g id="a_edge42_Node000018_Node000006"><a xlink:title=" ">
<path fill="none" stroke="#63b8ff" d="M528.94,-333.96C365.72,-322.22 0,-283.83 0,-175.5 0,-175.5 0,-175.5 0,-118.5 0,-26.95 147.02,-12.55 210.92,-10.61"/>
<polygon fill="#63b8ff" stroke="#63b8ff" points="216.11,-10.48 211.17,-12.86 213.61,-10.54 211.11,-10.61 211.11,-10.61 211.11,-10.61 213.61,-10.54 211.05,-8.36 216.11,-10.48 216.11,-10.48"/>
</a>
</g>
</g>
<!-- Node18&#45;&gt;Node7 -->
<g id="edge44_Node000018_Node000007" class="edge">
<title>Node18&#45;&gt;Node7</title>
<g id="a_edge44_Node000018_Node000007"><a xlink:title=" ">
<path fill="none" stroke="#63b8ff" d="M683.13,-338.2C763.1,-336.06 880.37,-327.14 909,-294 944.94,-252.39 887.73,-89.6 845,-55 812.9,-29.01 689.15,-16.6 634.82,-12.31"/>
<polygon fill="#63b8ff" stroke="#63b8ff" points="629.79,-11.92 634.95,-10.06 632.28,-12.11 634.77,-12.31 634.77,-12.31 634.77,-12.31 632.28,-12.11 634.6,-14.55 629.79,-11.92 629.79,-11.92"/>
</a>
</g>
</g>
<!-- Node18&#45;&gt;Node11 -->
<g id="edge46_Node000018_Node000011" class="edge">
<title>Node18&#45;&gt;Node11</title>
<g id="a_edge46_Node000018_Node000011"><a xlink:title=" ">
<path fill="none" stroke="#63b8ff" d="M528.96,-335.01C408.26,-324.73 179.65,-284.6 95,-129 90.96,-121.58 89.49,-116.4 95,-110 97.09,-107.57 270.85,-82.67 351.59,-71.21"/>
<polygon fill="#63b8ff" stroke="#63b8ff" points="356.77,-70.48 352.13,-73.41 354.29,-70.83 351.82,-71.18 351.82,-71.18 351.82,-71.18 354.29,-70.83 351.5,-68.95 356.77,-70.48 356.77,-70.48"/>
</a>
</g>
</g>
<!-- Node18&#45;&gt;Node13 -->
<g id="edge43_Node000018_Node000013" class="edge">
<title>Node18&#45;&gt;Node13</title>
<g id="a_edge43_Node000018_Node000013"><a xlink:title=" ">
<path fill="none" stroke="#63b8ff" d="M610.12,-329.71C616.36,-316.89 629.09,-292.68 644,-275 659.85,-256.21 667.58,-255.28 686,-239 729.26,-200.76 779.53,-154.37 802.86,-132.73"/>
<polygon fill="#63b8ff" stroke="#63b8ff" points="806.63,-129.22 804.5,-134.27 804.8,-130.92 802.96,-132.63 802.96,-132.63 802.96,-132.63 804.8,-130.92 801.43,-130.98 806.63,-129.22 806.63,-129.22"/>
</a>
</g>
</g>
<!-- Node18&#45;&gt;Node14 -->
<g id="edge45_Node000018_Node000014" class="edge">
<title>Node18&#45;&gt;Node14</title>
<g id="a_edge45_Node000018_Node000014"><a xlink:title=" ">
<path fill="none" stroke="#63b8ff" d="M528.77,-331.21C485.87,-325.11 432.36,-314.02 388,-294 293.81,-251.5 201.85,-164.6 169.86,-132.64"/>
<polygon fill="#63b8ff" stroke="#63b8ff" points="166.27,-129.02 171.39,-130.98 168.03,-130.79 169.79,-132.57 169.79,-132.57 169.79,-132.57 168.03,-130.79 168.2,-134.15 166.27,-129.02 166.27,-129.02"/>
</a>
</g>
</g>
<!-- Node18&#45;&gt;Node16 -->
<g id="edge48_Node000018_Node000016" class="edge">
<title>Node18&#45;&gt;Node16</title>
<g id="a_edge48_Node000018_Node000016"><a xlink:title=" ">
<path fill="none" stroke="#63b8ff" d="M683.24,-334.36C768.37,-328.75 899.1,-316.7 943,-294 972.61,-278.69 975.23,-266.55 994,-239 1018.14,-203.57 1037.54,-156.35 1046.16,-133.71"/>
<polygon fill="#63b8ff" stroke="#63b8ff" points="1047.93,-129.01 1048.27,-134.48 1047.05,-131.35 1046.17,-133.69 1046.17,-133.69 1046.17,-133.69 1047.05,-131.35 1044.06,-132.89 1047.93,-129.01 1047.93,-129.01"/>
</a>
</g>
</g>
<!-- Node19 -->
<g id="Node000019" class="node">
<title>Node19</title>
<g id="a_Node000019"><a xlink:href="../../d1/d0f/card__set__list_8h.html" target="_top" xlink:title=" ">
<polygon fill="white" stroke="#666666" points="464,-129 344,-129 344,-110 464,-110 464,-129"/>
<text text-anchor="middle" x="404" y="-117" font-family="Helvetica,sans-Serif" font-size="10.00">../card/card_set_list.h</text>
</a>
</g>
</g>
<!-- Node18&#45;&gt;Node19 -->
<g id="edge25_Node000018_Node000019" class="edge">
<title>Node18&#45;&gt;Node19</title>
<g id="a_edge25_Node000018_Node000019"><a xlink:title=" ">
<path fill="none" stroke="#63b8ff" d="M528.97,-336.13C489.67,-331.44 443.09,-320.13 409,-294 387.07,-277.19 386.64,-265.82 380,-239 370.62,-201.11 387.53,-155.75 397.48,-133.76"/>
<polygon fill="#63b8ff" stroke="#63b8ff" points="399.61,-129.18 399.54,-134.66 398.56,-131.45 397.5,-133.72 397.5,-133.72 397.5,-133.72 398.56,-131.45 395.46,-132.77 399.61,-129.18 399.61,-129.18"/>
</a>
</g>
</g>
<!-- Node20 -->
<g id="Node000020" class="node">
<title>Node20</title>
<g id="a_Node000020"><a xlink:href="../../d6/dfd/exact__card_8h.html" target="_top" xlink:title=" ">
<polygon fill="white" stroke="#666666" points="677,-239 565,-239 565,-220 677,-220 677,-239"/>
<text text-anchor="middle" x="621" y="-227" font-family="Helvetica,sans-Serif" font-size="10.00">../card/exact_card.h</text>
</a>
</g>
</g>
<!-- Node18&#45;&gt;Node20 -->
<g id="edge29_Node000018_Node000020" class="edge">
<title>Node18&#45;&gt;Node20</title>
<g id="a_edge29_Node000018_Node000020"><a xlink:title=" ">
<path fill="none" stroke="#63b8ff" d="M606.29,-329.83C606.79,-317.56 608.06,-294.46 611,-275 612.57,-264.63 615.19,-253.07 617.36,-244.33"/>
<polygon fill="#63b8ff" stroke="#63b8ff" points="618.63,-239.3 619.59,-244.69 618.02,-241.72 617.41,-244.14 617.41,-244.14 617.41,-244.14 618.02,-241.72 615.22,-243.59 618.63,-239.3 618.63,-239.3"/>
</a>
</g>
</g>
<!-- Node21 -->
<g id="Node000021" class="node">
<title>Node21</title>
<g id="a_Node000021"><a xlink:title=" ">
<polygon fill="#e0e0e0" stroke="#999999" points="862.5,-239 743.5,-239 743.5,-220 862.5,-220 862.5,-239"/>
<text text-anchor="middle" x="803" y="-227" font-family="Helvetica,sans-Serif" font-size="10.00">../common/card_ref.h</text>
</a>
</g>
</g>
<!-- Node18&#45;&gt;Node21 -->
<g id="edge31_Node000018_Node000021" class="edge">
<title>Node18&#45;&gt;Node21</title>
<g id="a_edge31_Node000018_Node000021"><a xlink:title=" ">
<path fill="none" stroke="#63b8ff" d="M682.75,-329.99C729.38,-323.13 782.79,-311.67 798,-294 809.72,-280.39 808.58,-258.48 806.18,-244.29"/>
<polygon fill="#63b8ff" stroke="#63b8ff" points="805.19,-239.08 808.33,-243.57 805.66,-241.54 806.12,-244 806.12,-244 806.12,-244 805.66,-241.54 803.91,-244.42 805.19,-239.08 805.19,-239.08"/>
</a>
</g>
</g>
<!-- Node22 -->
<g id="Node000022" class="node">
<title>Node22</title>
<g id="a_Node000022"><a xlink:href="../../dc/d6b/card__database__loader_8h.html" target="_top" xlink:title="The CardDatabaseLoader is responsible for populating the card database from files on disk.">
<polygon fill="white" stroke="#666666" points="559,-294 427,-294 427,-275 559,-275 559,-294"/>
<text text-anchor="middle" x="493" y="-282" font-family="Helvetica,sans-Serif" font-size="10.00">card_database_loader.h</text>
</a>
</g>
</g>
<!-- Node18&#45;&gt;Node22 -->
<g id="edge32_Node000018_Node000022" class="edge">
<title>Node18&#45;&gt;Node22</title>
<g id="a_edge32_Node000018_Node000022"><a xlink:title=" ">
<path fill="none" stroke="#63b8ff" d="M587.84,-329.98C568.36,-320.84 537.34,-306.3 516.12,-296.35"/>
<polygon fill="#63b8ff" stroke="#63b8ff" points="511.49,-294.17 516.97,-294.26 513.75,-295.23 516.01,-296.29 516.01,-296.29 516.01,-296.29 513.75,-295.23 515.06,-298.33 511.49,-294.17 511.49,-294.17"/>
</a>
</g>
</g>
<!-- Node23 -->
<g id="Node000023" class="node">
<title>Node23</title>
<g id="a_Node000023"><a xlink:title=" ">
<polygon fill="#e0e0e0" stroke="#999999" points="470.5,-239 389.5,-239 389.5,-220 470.5,-220 470.5,-239"/>
<text text-anchor="middle" x="430" y="-227" font-family="Helvetica,sans-Serif" font-size="10.00">QBasicMutex</text>
</a>
</g>
</g>
<!-- Node18&#45;&gt;Node23 -->
<g id="edge41_Node000018_Node000023" class="edge">
<title>Node18&#45;&gt;Node23</title>
<g id="a_edge41_Node000018_Node000023"><a xlink:title=" ">
<path fill="none" stroke="#63b8ff" d="M529.12,-329.97C483.56,-323.16 432.04,-311.76 418,-294 406.62,-279.61 414.67,-257.7 421.98,-243.74"/>
<polygon fill="#63b8ff" stroke="#63b8ff" points="424.4,-239.34 423.96,-244.8 423.19,-241.53 421.99,-243.72 421.99,-243.72 421.99,-243.72 423.19,-241.53 420.02,-242.64 424.4,-239.34 424.4,-239.34"/>
</a>
</g>
</g>
<!-- Node25 -->
<g id="Node000025" class="node">
<title>Node25</title>
<g id="a_Node000025"><a xlink:href="../../df/d9e/card__database__querier_8h.html" target="_top" xlink:title="The CardDatabaseQuerier is responsible for querying the database and returning data.">
<polygon fill="white" stroke="#666666" points="789,-294 653,-294 653,-275 789,-275 789,-294"/>
<text text-anchor="middle" x="721" y="-282" font-family="Helvetica,sans-Serif" font-size="10.00">card_database_querier.h</text>
</a>
</g>
</g>
<!-- Node18&#45;&gt;Node25 -->
<g id="edge37_Node000018_Node000025" class="edge">
<title>Node18&#45;&gt;Node25</title>
<g id="a_edge37_Node000018_Node000025"><a xlink:title=" ">
<path fill="none" stroke="#63b8ff" d="M624.48,-329.98C644.31,-320.84 675.87,-306.3 697.47,-296.35"/>
<polygon fill="#63b8ff" stroke="#63b8ff" points="702.19,-294.17 698.59,-298.31 699.92,-295.22 697.65,-296.26 697.65,-296.26 697.65,-296.26 699.92,-295.22 696.7,-294.22 702.19,-294.17 702.19,-294.17"/>
</a>
</g>
</g>
<!-- Node26 -->
<g id="Node000026" class="node">
<title>Node26</title>
<g id="a_Node000026"><a xlink:title=" ">
<polygon fill="#e0e0e0" stroke="#999999" points="900.5,-294 845.5,-294 845.5,-275 900.5,-275 900.5,-294"/>
<text text-anchor="middle" x="873" y="-282" font-family="Helvetica,sans-Serif" font-size="10.00">QVector</text>
</a>
</g>
</g>
<!-- Node18&#45;&gt;Node26 -->
<g id="edge47_Node000018_Node000026" class="edge">
<title>Node18&#45;&gt;Node26</title>
<g id="a_edge47_Node000018_Node000026"><a xlink:title=" ">
<path fill="none" stroke="#63b8ff" d="M649.57,-329.94C694.9,-321.02 767.94,-306.62 831,-294 834.06,-293.39 837.25,-292.75 840.44,-292.1"/>
<polygon fill="#63b8ff" stroke="#63b8ff" points="845.44,-291.1 840.98,-294.29 842.99,-291.59 840.54,-292.08 840.54,-292.08 840.54,-292.08 842.99,-291.59 840.09,-289.88 845.44,-291.1 845.44,-291.1"/>
</a>
</g>
</g>
<!-- Node19&#45;&gt;Node5 -->
<g id="edge26_Node000019_Node000005" class="edge">
<title>Node19&#45;&gt;Node5</title>
<g id="a_edge26_Node000019_Node000005"><a xlink:title=" ">
<path fill="none" stroke="#63b8ff" d="M425.85,-109.98C449.5,-100.77 487.26,-86.05 512.81,-76.1"/>
<polygon fill="#63b8ff" stroke="#63b8ff" points="517.75,-74.17 513.91,-78.08 515.42,-75.08 513.09,-75.99 513.09,-75.99 513.09,-75.99 515.42,-75.08 512.28,-73.89 517.75,-74.17 517.75,-74.17"/>
</a>
</g>
</g>
<!-- Node19&#45;&gt;Node7 -->
<g id="edge27_Node000019_Node000007" class="edge">
<title>Node19&#45;&gt;Node7</title>
<g id="a_edge27_Node000019_Node000007"><a xlink:title=" ">
<path fill="none" stroke="#63b8ff" d="M414.94,-109.84C431.83,-96.75 465.58,-71.7 497,-55 525.46,-39.87 560.22,-26.84 583.4,-18.85"/>
<polygon fill="#63b8ff" stroke="#63b8ff" points="588.16,-17.23 584.15,-20.97 585.79,-18.04 583.43,-18.84 583.43,-18.84 583.43,-18.84 585.79,-18.04 582.7,-16.71 588.16,-17.23 588.16,-17.23"/>
</a>
</g>
</g>
<!-- Node19&#45;&gt;Node11 -->
<g id="edge28_Node000019_Node000011" class="edge">
<title>Node19&#45;&gt;Node11</title>
<g id="a_edge28_Node000019_Node000011"><a xlink:title=" ">
<path fill="none" stroke="#63b8ff" d="M402.02,-109.75C400.13,-101.41 397.26,-88.74 395.08,-79.09"/>
<polygon fill="#63b8ff" stroke="#63b8ff" points="393.94,-74.09 397.24,-78.47 394.5,-76.53 395.05,-78.97 395.05,-78.97 395.05,-78.97 394.5,-76.53 392.85,-79.46 393.94,-74.09 393.94,-74.09"/>
</a>
</g>
</g>
<!-- Node20&#45;&gt;Node3 -->
<g id="edge30_Node000020_Node000003" class="edge">
<title>Node20&#45;&gt;Node3</title>
<g id="a_edge30_Node000020_Node000003"><a xlink:title=" ">
<path fill="none" stroke="#63b8ff" d="M620.01,-219.75C619.07,-211.41 617.63,-198.74 616.54,-189.09"/>
<polygon fill="#63b8ff" stroke="#63b8ff" points="615.97,-184.09 618.77,-188.8 616.25,-186.57 616.53,-189.06 616.53,-189.06 616.53,-189.06 616.25,-186.57 614.3,-189.31 615.97,-184.09 615.97,-184.09"/>
</a>
</g>
</g>
<!-- Node22&#45;&gt;Node7 -->
<g id="edge34_Node000022_Node000007" class="edge">
<title>Node22&#45;&gt;Node7</title>
<g id="a_edge34_Node000022_Node000007"><a xlink:title=" ">
<path fill="none" stroke="#63b8ff" d="M499.33,-274.75C509.67,-261.07 531.5,-234.7 556,-220 672.93,-149.85 768.5,-239.06 849,-129 906.73,-50.07 707.35,-20.83 634.57,-12.92"/>
<polygon fill="#63b8ff" stroke="#63b8ff" points="629.56,-12.39 634.77,-10.68 632.04,-12.65 634.53,-12.92 634.53,-12.92 634.53,-12.92 632.04,-12.65 634.29,-15.16 629.56,-12.39 629.56,-12.39"/>
</a>
</g>
</g>
<!-- Node22&#45;&gt;Node14 -->
<g id="edge35_Node000022_Node000014" class="edge">
<title>Node22&#45;&gt;Node14</title>
<g id="a_edge35_Node000022_Node000014"><a xlink:title=" ">
<path fill="none" stroke="#63b8ff" d="M493.64,-274.88C494.14,-261.4 493.06,-235.29 479,-220 442.48,-180.29 291.2,-146.03 210.03,-130.06"/>
<polygon fill="#63b8ff" stroke="#63b8ff" points="204.78,-129.04 210.12,-127.79 207.24,-129.52 209.69,-130 209.69,-130 209.69,-130 207.24,-129.52 209.26,-132.21 204.78,-129.04 204.78,-129.04"/>
</a>
</g>
</g>
<!-- Node22&#45;&gt;Node23 -->
<g id="edge33_Node000022_Node000023" class="edge">
<title>Node22&#45;&gt;Node23</title>
<g id="a_edge33_Node000022_Node000023"><a xlink:title=" ">
<path fill="none" stroke="#63b8ff" d="M482.88,-274.98C472.47,-266.23 456.16,-252.51 444.41,-242.62"/>
<polygon fill="#63b8ff" stroke="#63b8ff" points="440.31,-239.17 445.58,-240.67 442.22,-240.78 444.13,-242.39 444.13,-242.39 444.13,-242.39 442.22,-240.78 442.68,-244.11 440.31,-239.17 440.31,-239.17"/>
</a>
</g>
</g>
<!-- Node22&#45;&gt;Node24 -->
<g id="edge36_Node000022_Node000024" class="edge">
<title>Node22&#45;&gt;Node24</title>
<g id="a_edge36_Node000022_Node000024"><a xlink:title=" ">
<path fill="none" stroke="#63b8ff" d="M559.48,-275.91C660.18,-264.4 847.69,-242.99 923.71,-234.3"/>
<polygon fill="#63b8ff" stroke="#63b8ff" points="928.98,-233.7 924.27,-236.5 926.5,-233.98 924.02,-234.27 924.02,-234.27 924.02,-234.27 926.5,-233.98 923.76,-232.03 928.98,-233.7 928.98,-233.7"/>
</a>
</g>
</g>
<!-- Node25&#45;&gt;Node20 -->
<g id="edge38_Node000025_Node000020" class="edge">
<title>Node25&#45;&gt;Node20</title>
<g id="a_edge38_Node000025_Node000020"><a xlink:title=" ">
<path fill="none" stroke="#63b8ff" d="M704.93,-274.98C687.83,-265.92 660.7,-251.54 641.94,-241.6"/>
<polygon fill="#63b8ff" stroke="#63b8ff" points="637.36,-239.17 642.83,-239.52 639.57,-240.34 641.78,-241.51 641.78,-241.51 641.78,-241.51 639.57,-240.34 640.72,-243.5 637.36,-239.17 637.36,-239.17"/>
</a>
</g>
</g>
<!-- Node25&#45;&gt;Node21 -->
<g id="edge39_Node000025_Node000021" class="edge">
<title>Node25&#45;&gt;Node21</title>
<g id="a_edge39_Node000025_Node000021"><a xlink:title=" ">
<path fill="none" stroke="#63b8ff" d="M734.17,-274.98C747.96,-266.07 769.69,-252.03 785.04,-242.11"/>
<polygon fill="#63b8ff" stroke="#63b8ff" points="789.59,-239.17 786.61,-243.77 787.49,-240.53 785.39,-241.88 785.39,-241.88 785.39,-241.88 787.49,-240.53 784.16,-239.99 789.59,-239.17 789.59,-239.17"/>
</a>
</g>
</g>
<!-- Node25&#45;&gt;Node24 -->
<g id="edge40_Node000025_Node000024" class="edge">
<title>Node25&#45;&gt;Node24</title>
<g id="a_edge40_Node000025_Node000024"><a xlink:title=" ">
<path fill="none" stroke="#63b8ff" d="M758.92,-274.98C804.49,-264.75 880.25,-247.74 923.67,-237.98"/>
<polygon fill="#63b8ff" stroke="#63b8ff" points="928.8,-236.83 924.42,-240.12 926.36,-237.38 923.93,-237.93 923.93,-237.93 923.93,-237.93 926.36,-237.38 923.43,-235.73 928.8,-236.83 928.8,-236.83"/>
</a>
</g>
</g>
<!-- Node27&#45;&gt;Node9 -->
<g id="edge51_Node000027_Node000009" class="edge">
<title>Node27&#45;&gt;Node9</title>
<g id="a_edge51_Node000027_Node000009"><a xlink:title=" ">
<path fill="none" stroke="#63b8ff" d="M1135.56,-274.98C1174.51,-261.03 1241,-229.34 1241,-175.5 1241,-175.5 1241,-175.5 1241,-118.5 1241,-82.43 1260.09,-43.24 1271.21,-23.47"/>
<polygon fill="#63b8ff" stroke="#63b8ff" points="1273.72,-19.1 1273.18,-24.55 1272.47,-21.27 1271.23,-23.43 1271.23,-23.43 1271.23,-23.43 1272.47,-21.27 1269.28,-22.31 1273.72,-19.1 1273.72,-19.1"/>
</a>
</g>
</g>
<!-- Node27&#45;&gt;Node16 -->
<g id="edge52_Node000027_Node000016" class="edge">
<title>Node27&#45;&gt;Node16</title>
<g id="a_edge52_Node000027_Node000016"><a xlink:title=" ">
<path fill="none" stroke="#63b8ff" d="M1104.94,-274.74C1095.54,-247.87 1067.1,-166.53 1055.75,-134.08"/>
<polygon fill="#63b8ff" stroke="#63b8ff" points="1054.08,-129.31 1057.85,-133.28 1054.9,-131.67 1055.73,-134.03 1055.73,-134.03 1055.73,-134.03 1054.9,-131.67 1053.61,-134.77 1054.08,-129.31 1054.08,-129.31"/>
</a>
</g>
</g>
<!-- Node27&#45;&gt;Node24 -->
<g id="edge50_Node000027_Node000024" class="edge">
<title>Node27&#45;&gt;Node24</title>
<g id="a_edge50_Node000027_Node000024"><a xlink:title=" ">
<path fill="none" stroke="#63b8ff" d="M1083.74,-274.98C1057.26,-265.69 1014.86,-250.81 986.48,-240.85"/>
<polygon fill="#63b8ff" stroke="#63b8ff" points="981.7,-239.17 987.17,-238.7 984.06,-240 986.42,-240.83 986.42,-240.83 986.42,-240.83 984.06,-240 985.67,-242.95 981.7,-239.17 981.7,-239.17"/>
</a>
</g>
</g>
</g>
</svg>
