<?xml version="1.0" encoding="UTF-8" standalone="no"?>
<!DOCTYPE svg PUBLIC "-//W3C//DTD SVG 1.1//EN"
 "http://www.w3.org/Graphics/SVG/1.1/DTD/svg11.dtd">
<!-- Generated by graphviz version 2.43.0 (0)
 -->
<!-- Title: cockatrice/src/interface/widgets/tabs/api/edhrec/display/cards Pages: 1 -->
<svg width="344pt" height="117pt"
 viewBox="0.00 0.00 344.00 117.00" xmlns="http://www.w3.org/2000/svg" xmlns:xlink="http://www.w3.org/1999/xlink">
<g id="graph0" class="graph" transform="scale(1 1) rotate(0) translate(4 113)">
<title>cockatrice/src/interface/widgets/tabs/api/edhrec/display/cards</title>
<g id="clust1" class="cluster">
<title>clusterdir_3975aeaa8df11acde7872fa36ff4d778</title>
<g id="a_clust1"><a xlink:href="dir_3975aeaa8df11acde7872fa36ff4d778.html" target="_top" xlink:title="display">
<polygon fill="#efefef" stroke="#7f7f7f" stroke-dasharray="5,2" points="136.5,-47 136.5,-101 196.5,-101 196.5,-47 136.5,-47"/>
<text text-anchor="middle" x="166.5" y="-89" font-family="Helvetica,sans-Serif" font-size="10.00">display</text>
</a>
</g>
</g>
<!-- dir_edb0c1dfeb504bd9cfb443bc6b24a3fb -->
<g id="node1" class="node">
<title>dir_edb0c1dfeb504bd9cfb443bc6b24a3fb</title>
<g id="a_node1"><a xlink:href="dir_edb0c1dfeb504bd9cfb443bc6b24a3fb.html" target="_top" xlink:title="cards">
<polygon fill="#efefef" stroke="#404040" stroke-width="2" points="188,-74 145,-74 145,-55 188,-55 188,-74"/>
<text text-anchor="middle" x="166.5" y="-62" font-family="Helvetica,sans-Serif" font-size="10.00">cards</text>
</a>
</g>
</g>
<!-- dir_2efc70cb735a710399c485f6d0a8024b -->
<g id="node2" class="node">
<title>dir_2efc70cb735a710399c485f6d0a8024b</title>
<g id="a_node2"><a xlink:href="dir_2efc70cb735a710399c485f6d0a8024b.html" target="_top" xlink:title="general">
<polygon fill="#efefef" stroke="red" stroke-dasharray="5,2" points="53,-19 0,-19 0,0 53,0 53,-19"/>
<text text-anchor="middle" x="26.5" y="-7" font-family="Helvetica,sans-Serif" font-size="10.00">general</text>
</a>
</g>
</g>
<!-- dir_edb0c1dfeb504bd9cfb443bc6b24a3fb&#45;&gt;dir_2efc70cb735a710399c485f6d0a8024b -->
<g id="edge1" class="edge">
<title>dir_edb0c1dfeb504bd9cfb443bc6b24a3fb&#45;&gt;dir_2efc70cb735a710399c485f6d0a8024b</title>
<g id="a_edge1"><a xlink:href="dir_000024_000063.html" target="_top">
<path fill="none" stroke="#63b8ff" d="M144.93,-55.33C120.53,-46.1 80.71,-31.02 54.07,-20.94"/>
<polygon fill="#63b8ff" stroke="#63b8ff" points="49.25,-19.11 54.73,-18.78 51.59,-20 53.93,-20.88 53.93,-20.88 53.93,-20.88 51.59,-20 53.13,-22.99 49.25,-19.11 49.25,-19.11"/>
</a>
</g>
<g id="a_edge1&#45;headlabel"><a xlink:href="dir_000024_000063.html" target="_top" xlink:title="7">
<text text-anchor="middle" x="64.21" y="-15.5" font-family="Helvetica,sans-Serif" font-size="10.00" fill="#63b8ff">7</text>
</a>
</g>
</g>
<!-- dir_5c75aa46f241f9d4254baaf3085996e0 -->
<g id="node3" class="node">
<title>dir_5c75aa46f241f9d4254baaf3085996e0</title>
<g id="a_node3"><a xlink:href="dir_5c75aa46f241f9d4254baaf3085996e0.html" target="_top" xlink:title="api_response">
<polygon fill="#efefef" stroke="red" stroke-dasharray="5,2" points="152,-19 71,-19 71,0 152,0 152,-19"/>
<text text-anchor="middle" x="111.5" y="-7" font-family="Helvetica,sans-Serif" font-size="10.00">api_response</text>
</a>
</g>
</g>
<!-- dir_edb0c1dfeb504bd9cfb443bc6b24a3fb&#45;&gt;dir_5c75aa46f241f9d4254baaf3085996e0 -->
<g id="edge2" class="edge">
<title>dir_edb0c1dfeb504bd9cfb443bc6b24a3fb&#45;&gt;dir_5c75aa46f241f9d4254baaf3085996e0</title>
<g id="a_edge2"><a xlink:href="dir_000024_000005.html" target="_top">
<path fill="none" stroke="#63b8ff" d="M157.42,-54.75C148.37,-46.03 134.39,-32.56 124.24,-22.77"/>
<polygon fill="#63b8ff" stroke="#63b8ff" points="120.41,-19.09 125.57,-20.94 122.21,-20.82 124.01,-22.56 124.01,-22.56 124.01,-22.56 122.21,-20.82 122.45,-24.18 120.41,-19.09 120.41,-19.09"/>
</a>
</g>
<g id="a_edge2&#45;headlabel"><a xlink:href="dir_000024_000005.html" target="_top" xlink:title="4">
<text text-anchor="middle" x="134.6" y="-21.46" font-family="Helvetica,sans-Serif" font-size="10.00" fill="#63b8ff">4</text>
</a>
</g>
</g>
<!-- dir_a793f43f6dc6d18ba76771f9a71a4ad6 -->
<g id="node4" class="node">
<title>dir_a793f43f6dc6d18ba76771f9a71a4ad6</title>
<g id="a_node4"><a xlink:href="dir_a793f43f6dc6d18ba76771f9a71a4ad6.html" target="_top" xlink:title="libcockatrice_card">
<polygon fill="#efefef" stroke="red" points="274.5,-19 170.5,-19 170.5,0 274.5,0 274.5,-19"/>
<text text-anchor="middle" x="222.5" y="-7" font-family="Helvetica,sans-Serif" font-size="10.00">libcockatrice_card</text>
</a>
</g>
</g>
<!-- dir_edb0c1dfeb504bd9cfb443bc6b24a3fb&#45;&gt;dir_a793f43f6dc6d18ba76771f9a71a4ad6 -->
<g id="edge3" class="edge">
<title>dir_edb0c1dfeb504bd9cfb443bc6b24a3fb&#45;&gt;dir_a793f43f6dc6d18ba76771f9a71a4ad6</title>
<g id="a_edge3"><a xlink:href="dir_000024_000082.html" target="_top">
<path fill="none" stroke="#63b8ff" d="M175.5,-54.98C184.75,-46.23 199.24,-32.51 209.69,-22.62"/>
<polygon fill="#63b8ff" stroke="#63b8ff" points="213.34,-19.17 211.25,-24.24 211.52,-20.89 209.71,-22.61 209.71,-22.61 209.71,-22.61 211.52,-20.89 208.16,-20.97 213.34,-19.17 213.34,-19.17"/>
</a>
</g>
<g id="a_edge3&#45;headlabel"><a xlink:href="dir_000024_000082.html" target="_top" xlink:title="1">
<text text-anchor="middle" x="207.82" y="-30.62" font-family="Helvetica,sans-Serif" font-size="10.00" fill="#63b8ff">1</text>
</a>
</g>
</g>
<!-- dir_cb8e08b98c526ef28decbb3027ba2769 -->
<g id="node5" class="node">
<title>dir_cb8e08b98c526ef28decbb3027ba2769</title>
<g id="a_node5"><a xlink:href="dir_cb8e08b98c526ef28decbb3027ba2769.html" target="_top" xlink:title="cards">
<polygon fill="#efefef" stroke="red" stroke-dasharray="5,2" points="336,-19 293,-19 293,0 336,0 336,-19"/>
<text text-anchor="middle" x="314.5" y="-7" font-family="Helvetica,sans-Serif" font-size="10.00">cards</text>
</a>
</g>
</g>
<!-- dir_edb0c1dfeb504bd9cfb443bc6b24a3fb&#45;&gt;dir_cb8e08b98c526ef28decbb3027ba2769 -->
<g id="edge4" class="edge">
<title>dir_edb0c1dfeb504bd9cfb443bc6b24a3fb&#45;&gt;dir_cb8e08b98c526ef28decbb3027ba2769</title>
<g id="a_edge4"><a xlink:href="dir_000024_000022.html" target="_top">
<path fill="none" stroke="#63b8ff" d="M188.02,-55.79C214.55,-46.29 259.61,-30.16 288.17,-19.93"/>
<polygon fill="#63b8ff" stroke="#63b8ff" points="292.95,-18.22 289,-22.02 290.6,-19.06 288.25,-19.9 288.25,-19.9 288.25,-19.9 290.6,-19.06 287.49,-17.78 292.95,-18.22 292.95,-18.22"/>
</a>
</g>
<g id="a_edge4&#45;headlabel"><a xlink:href="dir_000024_000022.html" target="_top" xlink:title="1">
<text text-anchor="middle" x="282.29" y="-26.27" font-family="Helvetica,sans-Serif" font-size="10.00" fill="#63b8ff">1</text>
</a>
</g>
</g>
</g>
</svg>
