<?xml version="1.0" encoding="UTF-8" standalone="no"?>
<!DOCTYPE svg PUBLIC "-//W3C//DTD SVG 1.1//EN"
 "http://www.w3.org/Graphics/SVG/1.1/DTD/svg11.dtd">
<!-- Generated by graphviz version 2.43.0 (0)
 -->
<!-- Title: cockatrice/src/interface Pages: 1 -->
<!--zoomable 251 -->

<svg id="main" version="1.1" xmlns="http://www.w3.org/2000/svg" xmlns:xlink="http://www.w3.org/1999/xlink" xml:space="preserve" onload="init(evt)">

<style type="text/css"><![CDATA[
.node, .edge {opacity: 0.7;}
.node.selected, .edge.selected {opacity: 1;}
.edge:hover path { stroke: red; }
.edge:hover polygon { stroke: red; fill: red; }
]]></style>

<defs>
  <circle id="rim" cx="0" cy="0" r="7"/>
  <circle id="rim2" cx="0" cy="0" r="3.5"/>
  <g id="zoomPlus">
    <use xlink:href="#rim" fill="#404040"><set attributeName="fill" to="#808080" begin="zoomplus.mouseover" end="zoomplus.mouseout"/></use>
    <path d="M-4,0h8M0,-4v8" fill="none" stroke="white" stroke-width="1.5" pointer-events="none"/>
  </g>
  <g id="zoomMin">
    <use xlink:href="#rim" fill="#404040"><set attributeName="fill" to="#808080" begin="zoomminus.mouseover" end="zoomminus.mouseout"/></use>
    <path d="M-4,0h8" fill="none" stroke="white" stroke-width="1.5" pointer-events="none"/>
  </g>
  <g id="arrowUp" transform="translate(30 24)">
    <use xlink:href="#rim"/>
    <path pointer-events="none" fill="none" stroke="white" stroke-width="1.5" d="M0,-3.0v7 M-2.5,-0.5L0,-3.0L2.5,-0.5"/>
  </g>
  <g id="arrowRight" transform="rotate(90) translate(36 -43)">
    <use xlink:href="#rim"/>
    <path pointer-events="none" fill="none" stroke="white" stroke-width="1.5" d="M0,-3.0v7 M-2.5,-0.5L0,-3.0L2.5,-0.5"/>
  </g>
  <g id="arrowDown" transform="rotate(180) translate(-30 -48)">
    <use xlink:href="#rim"/>
    <path pointer-events="none" fill="none" stroke="white" stroke-width="1.5" d="M0,-3.0v7 M-2.5,-0.5L0,-3.0L2.5,-0.5"/>
  </g>
  <g id="arrowLeft" transform="rotate(270) translate(-36 17)">
    <use xlink:href="#rim"/>
    <path pointer-events="none" fill="none" stroke="white" stroke-width="1.5" d="M0,-3.0v7 M-2.5,-0.5L0,-3.0L2.5,-0.5"/>
  </g>
  <g id="resetDef">
    <use xlink:href="#rim2" fill="#404040"><set attributeName="fill" to="#808080" begin="reset.mouseover" end="reset.mouseout"/></use>
  </g>
</defs>
<script type="application/ecmascript">
var viewWidth = 1447;
var viewHeight = 251;
var sectionId = 'dynsection-0';
</script>
<script type="application/ecmascript" xlink:href="svg.min.js"/>
<svg id="graph" class="graph">
<g id="viewport">
<title>cockatrice/src/interface</title>
<g id="clust1" class="cluster">
<title>clusterdir_c9c7359a086d7bdecf4d0ab1ae660017</title>
<g id="a_clust1"><a xlink:href="dir_c9c7359a086d7bdecf4d0ab1ae660017.html" target="_top" xlink:title="src">
<polygon fill="#efefef" stroke="#7f7f7f" stroke-dasharray="5,2" points="285.5,-8 285.5,-235 855.5,-235 855.5,-8 285.5,-8"/>
<text text-anchor="middle" x="570.5" y="-223" font-family="Helvetica,sans-Serif" font-size="10.00">src</text>
</a>
</g>
</g>
<g id="clust2" class="cluster">
<title>clusterdir_cd36a3f9f9d202308a2deae5eeddfa6f</title>
<g id="a_clust2"><a xlink:href="dir_cd36a3f9f9d202308a2deae5eeddfa6f.html" target="_top">
<polygon fill="#efefef" stroke="#404040" stroke-width="2" points="293.5,-63 293.5,-208 691.5,-208 691.5,-63 293.5,-63"/>
</a>
</g>
</g>
<!-- dir_13c4bd8f55a3c016402cc9039922b9a0 -->
<g id="node1" class="node">
<title>dir_13c4bd8f55a3c016402cc9039922b9a0</title>
<g id="a_node1"><a xlink:href="dir_13c4bd8f55a3c016402cc9039922b9a0.html" target="_top" xlink:title="filters">
<polygon fill="#afafaf" stroke="#404040" points="827.5,-90 783.5,-90 783.5,-71 827.5,-71 827.5,-90"/>
<text text-anchor="middle" x="805.5" y="-78" font-family="Helvetica,sans-Serif" font-size="10.00">filters</text>
</a>
</g>
</g>
<!-- dir_2aed47bd6a83d703a8daf87b1a4cab56 -->
<g id="node2" class="node">
<title>dir_2aed47bd6a83d703a8daf87b1a4cab56</title>
<g id="a_node2"><a xlink:href="dir_2aed47bd6a83d703a8daf87b1a4cab56.html" target="_top" xlink:title="client">
<polygon fill="#afafaf" stroke="red" points="724.5,-35 680.5,-35 680.5,-16 724.5,-16 724.5,-35"/>
<text text-anchor="middle" x="702.5" y="-23" font-family="Helvetica,sans-Serif" font-size="10.00">client</text>
</a>
</g>
</g>
<!-- dir_fcc53323f100f3840d6c8e04b287c6d3 -->
<g id="node3" class="node">
<title>dir_fcc53323f100f3840d6c8e04b287c6d3</title>
<g id="a_node3"><a xlink:href="dir_fcc53323f100f3840d6c8e04b287c6d3.html" target="_top" xlink:title="game">
<polygon fill="#afafaf" stroke="red" points="765.5,-90 721.5,-90 721.5,-71 765.5,-71 765.5,-90"/>
<text text-anchor="middle" x="743.5" y="-78" font-family="Helvetica,sans-Serif" font-size="10.00">game</text>
</a>
</g>
</g>
<!-- dir_cd36a3f9f9d202308a2deae5eeddfa6f -->
<g id="node4" class="node">
<title>dir_cd36a3f9f9d202308a2deae5eeddfa6f</title>
<text text-anchor="middle" x="653.5" y="-188" font-family="Helvetica,sans-Serif" font-size="10.00">interface</text>
</g>
<!-- dir_cd36a3f9f9d202308a2deae5eeddfa6f&#45;&gt;dir_2aed47bd6a83d703a8daf87b1a4cab56 -->
<g id="edge1" class="edge">
<title>dir_cd36a3f9f9d202308a2deae5eeddfa6f&#45;&gt;dir_2aed47bd6a83d703a8daf87b1a4cab56</title>
<g id="a_edge1"><a xlink:href="dir_000070_000028.html" target="_top">
<path fill="none" stroke="#63b8ff" d="M683.51,-183.19C726.28,-172.41 803.23,-145.95 836.5,-90 861.46,-48.03 775.86,-33.39 729.84,-28.63"/>
<polygon fill="#63b8ff" stroke="#63b8ff" points="724.7,-28.12 729.9,-26.37 727.19,-28.36 729.68,-28.61 729.68,-28.61 729.68,-28.61 727.19,-28.36 729.46,-30.85 724.7,-28.12 724.7,-28.12"/>
</a>
</g>
<g id="a_edge1&#45;headlabel"><a xlink:href="dir_000070_000028.html" target="_top" xlink:title="79">
<text text-anchor="middle" x="738.85" y="-20.65" font-family="Helvetica,sans-Serif" font-size="10.00" fill="#63b8ff">79</text>
</a>
</g>
</g>
<!-- dir_ff904cee2da7fc4774f8298cfe1e7610 -->
<g id="node9" class="node">
<title>dir_ff904cee2da7fc4774f8298cfe1e7610</title>
<g id="a_node9"><a xlink:href="dir_ff904cee2da7fc4774f8298cfe1e7610.html" target="_top" xlink:title="widgets">
<polygon fill="#afafaf" stroke="#404040" points="681,-145 626,-145 626,-126 681,-126 681,-145"/>
<text text-anchor="middle" x="653.5" y="-133" font-family="Helvetica,sans-Serif" font-size="10.00">widgets</text>
</a>
</g>
</g>
<!-- dir_cd36a3f9f9d202308a2deae5eeddfa6f&#45;&gt;dir_ff904cee2da7fc4774f8298cfe1e7610 -->
<g id="edge4" class="edge">
<title>dir_cd36a3f9f9d202308a2deae5eeddfa6f&#45;&gt;dir_ff904cee2da7fc4774f8298cfe1e7610</title>
<g id="a_edge4"><a xlink:href="dir_000070_000163.html" target="_top">
<path fill="none" stroke="#63b8ff" d="M653.5,-180.75C653.5,-172.41 653.5,-159.74 653.5,-150.09"/>
<polygon fill="#63b8ff" stroke="#63b8ff" points="653.5,-145.09 655.75,-150.09 653.5,-147.59 653.5,-150.09 653.5,-150.09 653.5,-150.09 653.5,-147.59 651.25,-150.09 653.5,-145.09 653.5,-145.09"/>
</a>
</g>
<g id="a_edge4&#45;headlabel"><a xlink:href="dir_000070_000163.html" target="_top" xlink:title="260">
<text text-anchor="middle" x="659.84" y="-156.18" font-family="Helvetica,sans-Serif" font-size="10.00" fill="#63b8ff">260</text>
</a>
</g>
</g>
<!-- dir_a793f43f6dc6d18ba76771f9a71a4ad6 -->
<g id="node14" class="node">
<title>dir_a793f43f6dc6d18ba76771f9a71a4ad6</title>
<g id="a_node14"><a xlink:href="dir_a793f43f6dc6d18ba76771f9a71a4ad6.html" target="_top" xlink:title="libcockatrice_card">
<polygon fill="#efefef" stroke="red" points="1145.5,-35 1041.5,-35 1041.5,-16 1145.5,-16 1145.5,-35"/>
<text text-anchor="middle" x="1093.5" y="-23" font-family="Helvetica,sans-Serif" font-size="10.00">libcockatrice_card</text>
</a>
</g>
</g>
<!-- dir_cd36a3f9f9d202308a2deae5eeddfa6f&#45;&gt;dir_a793f43f6dc6d18ba76771f9a71a4ad6 -->
<g id="edge2" class="edge">
<title>dir_cd36a3f9f9d202308a2deae5eeddfa6f&#45;&gt;dir_a793f43f6dc6d18ba76771f9a71a4ad6</title>
<g id="a_edge2"><a xlink:href="dir_000070_000085.html" target="_top">
<path fill="none" stroke="#63b8ff" d="M683.73,-187.97C821.22,-180.71 1383.03,-147.65 1433.5,-90 1441.4,-80.97 1441.52,-71.93 1433.5,-63 1414.98,-42.39 1242.6,-32.42 1150.66,-28.54"/>
<polygon fill="#63b8ff" stroke="#63b8ff" points="1145.53,-28.33 1150.62,-26.29 1148.03,-28.43 1150.52,-28.54 1150.52,-28.54 1150.52,-28.54 1148.03,-28.43 1150.43,-30.79 1145.53,-28.33 1145.53,-28.33"/>
</a>
</g>
<g id="a_edge2&#45;headlabel"><a xlink:href="dir_000070_000085.html" target="_top" xlink:title="84">
<text text-anchor="middle" x="1159.38" y="-20.06" font-family="Helvetica,sans-Serif" font-size="10.00" fill="#63b8ff">84</text>
</a>
</g>
</g>
<!-- dir_f3aef765df2a7860fd35e0943a5cc08c -->
<g id="node16" class="node">
<title>dir_f3aef765df2a7860fd35e0943a5cc08c</title>
<g id="a_node16"><a xlink:href="dir_f3aef765df2a7860fd35e0943a5cc08c.html" target="_top" xlink:title="libcockatrice_network">
<polygon fill="#efefef" stroke="red" points="1424,-90 1301,-90 1301,-71 1424,-71 1424,-90"/>
<text text-anchor="middle" x="1362.5" y="-78" font-family="Helvetica,sans-Serif" font-size="10.00">libcockatrice_network</text>
</a>
</g>
</g>
<!-- dir_cd36a3f9f9d202308a2deae5eeddfa6f&#45;&gt;dir_f3aef765df2a7860fd35e0943a5cc08c -->
<g id="edge3" class="edge">
<title>dir_cd36a3f9f9d202308a2deae5eeddfa6f&#45;&gt;dir_f3aef765df2a7860fd35e0943a5cc08c</title>
<g id="a_edge3"><a xlink:href="dir_000070_000090.html" target="_top">
<path fill="none" stroke="#63b8ff" d="M683.51,-184.93C790.63,-168.61 1155.54,-113.03 1301.47,-90.8"/>
<polygon fill="#63b8ff" stroke="#63b8ff" points="1306.56,-90.02 1301.96,-93 1304.09,-90.4 1301.62,-90.77 1301.62,-90.77 1301.62,-90.77 1304.09,-90.4 1301.28,-88.55 1306.56,-90.02 1306.56,-90.02"/>
</a>
</g>
<g id="a_edge3&#45;headlabel"><a xlink:href="dir_000070_000090.html" target="_top" xlink:title="34">
<text text-anchor="middle" x="1294.08" y="-95.83" font-family="Helvetica,sans-Serif" font-size="10.00" fill="#63b8ff">34</text>
</a>
</g>
</g>
<!-- dir_3739f630ebffb95d754b3bfce6063bc0 -->
<g id="node5" class="node">
<title>dir_3739f630ebffb95d754b3bfce6063bc0</title>
<g id="a_node5"><a xlink:href="dir_3739f630ebffb95d754b3bfce6063bc0.html" target="_top" xlink:title="card_picture_loader">
<polygon fill="#afafaf" stroke="#404040" points="580,-90 467,-90 467,-71 580,-71 580,-90"/>
<text text-anchor="middle" x="523.5" y="-78" font-family="Helvetica,sans-Serif" font-size="10.00">card_picture_loader</text>
</a>
</g>
</g>
<!-- dir_3739f630ebffb95d754b3bfce6063bc0&#45;&gt;dir_2aed47bd6a83d703a8daf87b1a4cab56 -->
<g id="edge6" class="edge">
<title>dir_3739f630ebffb95d754b3bfce6063bc0&#45;&gt;dir_2aed47bd6a83d703a8daf87b1a4cab56</title>
<g id="a_edge6"><a xlink:href="dir_000016_000028.html" target="_top">
<path fill="none" stroke="#63b8ff" d="M552.26,-70.98C586.12,-60.96 641.96,-44.43 675.18,-34.59"/>
<polygon fill="#63b8ff" stroke="#63b8ff" points="680.31,-33.07 676.16,-36.65 677.92,-33.78 675.52,-34.49 675.52,-34.49 675.52,-34.49 677.92,-33.78 674.88,-32.33 680.31,-33.07 680.31,-33.07"/>
</a>
</g>
<g id="a_edge6&#45;headlabel"><a xlink:href="dir_000016_000028.html" target="_top" xlink:title="5">
<text text-anchor="middle" x="669.08" y="-40.51" font-family="Helvetica,sans-Serif" font-size="10.00" fill="#63b8ff">5</text>
</a>
</g>
</g>
<!-- dir_3739f630ebffb95d754b3bfce6063bc0&#45;&gt;dir_ff904cee2da7fc4774f8298cfe1e7610 -->
<g id="edge8" class="edge">
<title>dir_3739f630ebffb95d754b3bfce6063bc0&#45;&gt;dir_ff904cee2da7fc4774f8298cfe1e7610</title>
<g id="a_edge8"><a xlink:href="dir_000016_000163.html" target="_top">
<path fill="none" stroke="#63b8ff" d="M549.92,-90.17C574.58,-99.41 610.6,-114.04 633.13,-123.95"/>
<polygon fill="#63b8ff" stroke="#63b8ff" points="637.73,-125.98 632.25,-126.01 635.44,-124.97 633.16,-123.96 633.16,-123.96 633.16,-123.96 635.44,-124.97 634.07,-121.9 637.73,-125.98 637.73,-125.98"/>
</a>
</g>
<g id="a_edge8&#45;headlabel"><a xlink:href="dir_000016_000163.html" target="_top" xlink:title="1">
<text text-anchor="middle" x="622.73" y="-123.77" font-family="Helvetica,sans-Serif" font-size="10.00" fill="#63b8ff">1</text>
</a>
</g>
</g>
<!-- dir_1267e2a149ca7ca291544a91e99e7067 -->
<g id="node10" class="node">
<title>dir_1267e2a149ca7ca291544a91e99e7067</title>
<g id="a_node10"><a xlink:href="dir_1267e2a149ca7ca291544a91e99e7067.html" target="_top" xlink:title="libcockatrice_interfaces">
<polygon fill="#efefef" stroke="red" points="277.5,-35 145.5,-35 145.5,-16 277.5,-16 277.5,-35"/>
<text text-anchor="middle" x="211.5" y="-23" font-family="Helvetica,sans-Serif" font-size="10.00">libcockatrice_interfaces</text>
</a>
</g>
</g>
<!-- dir_3739f630ebffb95d754b3bfce6063bc0&#45;&gt;dir_1267e2a149ca7ca291544a91e99e7067 -->
<g id="edge5" class="edge">
<title>dir_3739f630ebffb95d754b3bfce6063bc0&#45;&gt;dir_1267e2a149ca7ca291544a91e99e7067</title>
<g id="a_edge5"><a xlink:href="dir_000016_000088.html" target="_top">
<path fill="none" stroke="#63b8ff" d="M492.57,-70.96C481.84,-68.18 469.69,-65.24 458.5,-63 425.22,-56.34 340.23,-44.17 279.25,-35.72"/>
<polygon fill="#63b8ff" stroke="#63b8ff" points="274.16,-35.02 279.42,-33.47 276.64,-35.36 279.12,-35.7 279.12,-35.7 279.12,-35.7 276.64,-35.36 278.81,-37.93 274.16,-35.02 274.16,-35.02"/>
</a>
</g>
<g id="a_edge5&#45;headlabel"><a xlink:href="dir_000016_000088.html" target="_top" xlink:title="1">
<text text-anchor="middle" x="288.5" y="-28.1" font-family="Helvetica,sans-Serif" font-size="10.00" fill="#63b8ff">1</text>
</a>
</g>
</g>
<!-- dir_3739f630ebffb95d754b3bfce6063bc0&#45;&gt;dir_a793f43f6dc6d18ba76771f9a71a4ad6 -->
<g id="edge7" class="edge">
<title>dir_3739f630ebffb95d754b3bfce6063bc0&#45;&gt;dir_a793f43f6dc6d18ba76771f9a71a4ad6</title>
<g id="a_edge7"><a xlink:href="dir_000016_000085.html" target="_top">
<path fill="none" stroke="#63b8ff" d="M553.17,-70.92C564.46,-67.97 577.49,-64.92 589.5,-63 749.98,-37.33 942.11,-29.7 1036.06,-27.44"/>
<polygon fill="#63b8ff" stroke="#63b8ff" points="1041.28,-27.32 1036.34,-29.68 1038.78,-27.38 1036.28,-27.43 1036.28,-27.43 1036.28,-27.43 1038.78,-27.38 1036.23,-25.19 1041.28,-27.32 1041.28,-27.32"/>
</a>
</g>
<g id="a_edge7&#45;headlabel"><a xlink:href="dir_000016_000085.html" target="_top" xlink:title="8">
<text text-anchor="middle" x="1027.84" y="-31.47" font-family="Helvetica,sans-Serif" font-size="10.00" fill="#63b8ff">8</text>
</a>
</g>
</g>
<!-- dir_2fed3acf106fa2934993254ddae22f0c -->
<g id="node6" class="node">
<title>dir_2fed3acf106fa2934993254ddae22f0c</title>
<g id="a_node6"><a xlink:href="dir_2fed3acf106fa2934993254ddae22f0c.html" target="_top" xlink:title="deck_loader">
<polygon fill="#afafaf" stroke="#404040" points="377.5,-90 301.5,-90 301.5,-71 377.5,-71 377.5,-90"/>
<text text-anchor="middle" x="339.5" y="-78" font-family="Helvetica,sans-Serif" font-size="10.00">deck_loader</text>
</a>
</g>
</g>
<!-- dir_3af81e411179dbd2803f927cb496940d -->
<g id="node13" class="node">
<title>dir_3af81e411179dbd2803f927cb496940d</title>
<g id="a_node13"><a xlink:href="dir_3af81e411179dbd2803f927cb496940d.html" target="_top" xlink:title="libcockatrice_deck_list">
<polygon fill="#efefef" stroke="red" points="127,-35 0,-35 0,-16 127,-16 127,-35"/>
<text text-anchor="middle" x="63.5" y="-23" font-family="Helvetica,sans-Serif" font-size="10.00">libcockatrice_deck_list</text>
</a>
</g>
</g>
<!-- dir_2fed3acf106fa2934993254ddae22f0c&#45;&gt;dir_3af81e411179dbd2803f927cb496940d -->
<g id="edge9" class="edge">
<title>dir_2fed3acf106fa2934993254ddae22f0c&#45;&gt;dir_3af81e411179dbd2803f927cb496940d</title>
<g id="a_edge9"><a xlink:href="dir_000044_000086.html" target="_top">
<path fill="none" stroke="#63b8ff" d="M315.11,-70.95C306.46,-68.14 296.62,-65.18 287.5,-63 236.02,-50.71 176.9,-41.27 132.32,-35.07"/>
<polygon fill="#63b8ff" stroke="#63b8ff" points="127.23,-34.37 132.49,-32.82 129.71,-34.71 132.18,-35.05 132.18,-35.05 132.18,-35.05 129.71,-34.71 131.88,-37.28 127.23,-34.37 127.23,-34.37"/>
</a>
</g>
<g id="a_edge9&#45;headlabel"><a xlink:href="dir_000044_000086.html" target="_top" xlink:title="5">
<text text-anchor="middle" x="141.56" y="-27.44" font-family="Helvetica,sans-Serif" font-size="10.00" fill="#63b8ff">5</text>
</a>
</g>
</g>
<!-- dir_2fed3acf106fa2934993254ddae22f0c&#45;&gt;dir_a793f43f6dc6d18ba76771f9a71a4ad6 -->
<g id="edge10" class="edge">
<title>dir_2fed3acf106fa2934993254ddae22f0c&#45;&gt;dir_a793f43f6dc6d18ba76771f9a71a4ad6</title>
<g id="a_edge10"><a xlink:href="dir_000044_000085.html" target="_top">
<path fill="none" stroke="#63b8ff" d="M360.18,-70.97C368.52,-67.91 378.33,-64.78 387.5,-63 450.34,-50.83 879.57,-34.26 1036.34,-28.54"/>
<polygon fill="#63b8ff" stroke="#63b8ff" points="1041.35,-28.36 1036.43,-30.79 1038.85,-28.45 1036.35,-28.54 1036.35,-28.54 1036.35,-28.54 1038.85,-28.45 1036.27,-26.29 1041.35,-28.36 1041.35,-28.36"/>
</a>
</g>
<g id="a_edge10&#45;headlabel"><a xlink:href="dir_000044_000085.html" target="_top" xlink:title="5">
<text text-anchor="middle" x="1027.99" y="-32.68" font-family="Helvetica,sans-Serif" font-size="10.00" fill="#63b8ff">5</text>
</a>
</g>
</g>
<!-- dir_d46e1f1e9f5fb343ca463403556689cd -->
<g id="node7" class="node">
<title>dir_d46e1f1e9f5fb343ca463403556689cd</title>
<g id="a_node7"><a xlink:href="dir_d46e1f1e9f5fb343ca463403556689cd.html" target="_top" xlink:title="layouts">
<polygon fill="#afafaf" stroke="#404040" points="449,-90 396,-90 396,-71 449,-71 449,-90"/>
<text text-anchor="middle" x="422.5" y="-78" font-family="Helvetica,sans-Serif" font-size="10.00">layouts</text>
</a>
</g>
</g>
<!-- dir_d46e1f1e9f5fb343ca463403556689cd&#45;&gt;dir_ff904cee2da7fc4774f8298cfe1e7610 -->
<g id="edge11" class="edge">
<title>dir_d46e1f1e9f5fb343ca463403556689cd&#45;&gt;dir_ff904cee2da7fc4774f8298cfe1e7610</title>
<g id="a_edge11"><a xlink:href="dir_000074_000163.html" target="_top">
<path fill="none" stroke="#63b8ff" d="M449.39,-85.85C455.48,-87.19 461.74,-88.66 467.5,-90 521.18,-102.46 583.24,-116.57 620.52,-125.5"/>
<polygon fill="#63b8ff" stroke="#63b8ff" points="625.84,-126.78 620.45,-127.8 623.41,-126.2 620.98,-125.61 620.98,-125.61 620.98,-125.61 623.41,-126.2 621.5,-123.42 625.84,-126.78 625.84,-126.78"/>
</a>
</g>
<g id="a_edge11&#45;headlabel"><a xlink:href="dir_000074_000163.html" target="_top" xlink:title="1">
<text text-anchor="middle" x="611.14" y="-127.26" font-family="Helvetica,sans-Serif" font-size="10.00" fill="#63b8ff">1</text>
</a>
</g>
</g>
<!-- dir_02c08e923e6d6bab37e8080dfab631de -->
<g id="node8" class="node">
<title>dir_02c08e923e6d6bab37e8080dfab631de</title>
<g id="a_node8"><a xlink:href="dir_02c08e923e6d6bab37e8080dfab631de.html" target="_top" xlink:title="palette_editor">
<polygon fill="#afafaf" stroke="#404040" points="683,-90 598,-90 598,-71 683,-71 683,-90"/>
<text text-anchor="middle" x="640.5" y="-78" font-family="Helvetica,sans-Serif" font-size="10.00">palette_editor</text>
</a>
</g>
</g>
<!-- dir_ff904cee2da7fc4774f8298cfe1e7610&#45;&gt;dir_13c4bd8f55a3c016402cc9039922b9a0 -->
<g id="edge14" class="edge">
<title>dir_ff904cee2da7fc4774f8298cfe1e7610&#45;&gt;dir_13c4bd8f55a3c016402cc9039922b9a0</title>
<g id="a_edge14"><a xlink:href="dir_000163_000059.html" target="_top">
<path fill="none" stroke="#63b8ff" d="M677.92,-125.98C705.37,-116.41 749.81,-100.92 778.34,-90.97"/>
<polygon fill="#63b8ff" stroke="#63b8ff" points="783.12,-89.3 779.14,-93.07 780.76,-90.13 778.4,-90.95 778.4,-90.95 778.4,-90.95 780.76,-90.13 777.66,-88.83 783.12,-89.3 783.12,-89.3"/>
</a>
</g>
<g id="a_edge14&#45;headlabel"><a xlink:href="dir_000163_000059.html" target="_top" xlink:title="19">
<text text-anchor="middle" x="772.37" y="-97.27" font-family="Helvetica,sans-Serif" font-size="10.00" fill="#63b8ff">19</text>
</a>
</g>
</g>
<!-- dir_ff904cee2da7fc4774f8298cfe1e7610&#45;&gt;dir_2aed47bd6a83d703a8daf87b1a4cab56 -->
<g id="edge17" class="edge">
<title>dir_ff904cee2da7fc4774f8298cfe1e7610&#45;&gt;dir_2aed47bd6a83d703a8daf87b1a4cab56</title>
<g id="a_edge17"><a xlink:href="dir_000163_000028.html" target="_top">
<path fill="none" stroke="#63b8ff" d="M663.95,-125.76C673.04,-117.52 685.79,-104.33 692.5,-90 699.95,-74.08 702.02,-53.71 702.51,-40.4"/>
<polygon fill="#63b8ff" stroke="#63b8ff" points="702.63,-35.16 704.76,-40.21 702.57,-37.66 702.51,-40.16 702.51,-40.16 702.51,-40.16 702.57,-37.66 700.26,-40.1 702.63,-35.16 702.63,-35.16"/>
</a>
</g>
<g id="a_edge17&#45;headlabel"><a xlink:href="dir_000163_000028.html" target="_top" xlink:title="70">
<text text-anchor="middle" x="708.65" y="-46.4" font-family="Helvetica,sans-Serif" font-size="10.00" fill="#63b8ff">70</text>
</a>
</g>
</g>
<!-- dir_ff904cee2da7fc4774f8298cfe1e7610&#45;&gt;dir_fcc53323f100f3840d6c8e04b287c6d3 -->
<g id="edge25" class="edge">
<title>dir_ff904cee2da7fc4774f8298cfe1e7610&#45;&gt;dir_fcc53323f100f3840d6c8e04b287c6d3</title>
<g id="a_edge25"><a xlink:href="dir_000163_000062.html" target="_top">
<path fill="none" stroke="#63b8ff" d="M667.96,-125.98C683.22,-117 707.35,-102.79 724.22,-92.85"/>
<polygon fill="#63b8ff" stroke="#63b8ff" points="728.78,-90.17 725.61,-94.65 726.62,-91.44 724.47,-92.71 724.47,-92.71 724.47,-92.71 726.62,-91.44 723.33,-90.77 728.78,-90.17 728.78,-90.17"/>
</a>
</g>
<g id="a_edge25&#45;headlabel"><a xlink:href="dir_000163_000062.html" target="_top" xlink:title="5">
<text text-anchor="middle" x="720.28" y="-100.03" font-family="Helvetica,sans-Serif" font-size="10.00" fill="#63b8ff">5</text>
</a>
</g>
</g>
<!-- dir_ff904cee2da7fc4774f8298cfe1e7610&#45;&gt;dir_3739f630ebffb95d754b3bfce6063bc0 -->
<g id="edge19" class="edge">
<title>dir_ff904cee2da7fc4774f8298cfe1e7610&#45;&gt;dir_3739f630ebffb95d754b3bfce6063bc0</title>
<g id="a_edge19"><a xlink:href="dir_000163_000016.html" target="_top">
<path fill="none" stroke="#63b8ff" d="M627.5,-125.98C602.96,-116.81 566.93,-102.18 544.25,-92.22"/>
<polygon fill="#63b8ff" stroke="#63b8ff" points="539.62,-90.17 545.1,-90.14 541.9,-91.18 544.19,-92.19 544.19,-92.19 544.19,-92.19 541.9,-91.18 543.28,-94.25 539.62,-90.17 539.62,-90.17"/>
</a>
</g>
<g id="a_edge19&#45;headlabel"><a xlink:href="dir_000163_000016.html" target="_top" xlink:title="6">
<text text-anchor="middle" x="554.62" y="-87.38" font-family="Helvetica,sans-Serif" font-size="10.00" fill="#63b8ff">6</text>
</a>
</g>
</g>
<!-- dir_ff904cee2da7fc4774f8298cfe1e7610&#45;&gt;dir_2fed3acf106fa2934993254ddae22f0c -->
<g id="edge18" class="edge">
<title>dir_ff904cee2da7fc4774f8298cfe1e7610&#45;&gt;dir_2fed3acf106fa2934993254ddae22f0c</title>
<g id="a_edge18"><a xlink:href="dir_000163_000044.html" target="_top">
<path fill="none" stroke="#63b8ff" d="M625.91,-129.97C577.59,-122.02 474.48,-104.98 387.5,-90 386.01,-89.74 384.5,-89.48 382.98,-89.22"/>
<polygon fill="#63b8ff" stroke="#63b8ff" points="377.75,-88.31 383.06,-86.95 380.21,-88.74 382.67,-89.16 382.67,-89.16 382.67,-89.16 380.21,-88.74 382.29,-91.38 377.75,-88.31 377.75,-88.31"/>
</a>
</g>
<g id="a_edge18&#45;headlabel"><a xlink:href="dir_000163_000044.html" target="_top" xlink:title="19">
<text text-anchor="middle" x="392.23" y="-81.89" font-family="Helvetica,sans-Serif" font-size="10.00" fill="#63b8ff">19</text>
</a>
</g>
</g>
<!-- dir_ff904cee2da7fc4774f8298cfe1e7610&#45;&gt;dir_d46e1f1e9f5fb343ca463403556689cd -->
<g id="edge22" class="edge">
<title>dir_ff904cee2da7fc4774f8298cfe1e7610&#45;&gt;dir_d46e1f1e9f5fb343ca463403556689cd</title>
<g id="a_edge22"><a xlink:href="dir_000163_000074.html" target="_top">
<path fill="none" stroke="#63b8ff" d="M625.98,-129.55C587.53,-121.61 516.28,-105.48 454.33,-91.12"/>
<polygon fill="#63b8ff" stroke="#63b8ff" points="449.12,-89.91 454.5,-88.85 451.56,-90.48 453.99,-91.04 453.99,-91.04 453.99,-91.04 451.56,-90.48 453.49,-93.23 449.12,-89.91 449.12,-89.91"/>
</a>
</g>
<g id="a_edge22&#45;headlabel"><a xlink:href="dir_000163_000074.html" target="_top" xlink:title="5">
<text text-anchor="middle" x="463.8" y="-84.31" font-family="Helvetica,sans-Serif" font-size="10.00" fill="#63b8ff">5</text>
</a>
</g>
</g>
<!-- dir_ff904cee2da7fc4774f8298cfe1e7610&#45;&gt;dir_02c08e923e6d6bab37e8080dfab631de -->
<g id="edge12" class="edge">
<title>dir_ff904cee2da7fc4774f8298cfe1e7610&#45;&gt;dir_02c08e923e6d6bab37e8080dfab631de</title>
<g id="a_edge12"><a xlink:href="dir_000163_000113.html" target="_top">
<path fill="none" stroke="#63b8ff" d="M651.35,-125.75C649.31,-117.41 646.2,-104.74 643.83,-95.09"/>
<polygon fill="#63b8ff" stroke="#63b8ff" points="642.61,-90.09 645.98,-94.41 643.2,-92.52 643.8,-94.95 643.8,-94.95 643.8,-94.95 643.2,-92.52 641.61,-95.48 642.61,-90.09 642.61,-90.09"/>
</a>
</g>
<g id="a_edge12&#45;headlabel"><a xlink:href="dir_000163_000113.html" target="_top" xlink:title="1">
<text text-anchor="middle" x="652" y="-99.28" font-family="Helvetica,sans-Serif" font-size="10.00" fill="#63b8ff">1</text>
</a>
</g>
</g>
<!-- dir_20a59a59a89fdcf6a3e4c975621dc6fb -->
<g id="node11" class="node">
<title>dir_20a59a59a89fdcf6a3e4c975621dc6fb</title>
<g id="a_node11"><a xlink:href="dir_20a59a59a89fdcf6a3e4c975621dc6fb.html" target="_top" xlink:title="libcockatrice_models">
<polygon fill="#efefef" stroke="red" points="1244,-90 1125,-90 1125,-71 1244,-71 1244,-90"/>
<text text-anchor="middle" x="1184.5" y="-78" font-family="Helvetica,sans-Serif" font-size="10.00">libcockatrice_models</text>
</a>
</g>
</g>
<!-- dir_ff904cee2da7fc4774f8298cfe1e7610&#45;&gt;dir_20a59a59a89fdcf6a3e4c975621dc6fb -->
<g id="edge15" class="edge">
<title>dir_ff904cee2da7fc4774f8298cfe1e7610&#45;&gt;dir_20a59a59a89fdcf6a3e4c975621dc6fb</title>
<g id="a_edge15"><a xlink:href="dir_000163_000089.html" target="_top">
<path fill="none" stroke="#63b8ff" d="M681.19,-132.12C753.08,-125.87 951.56,-108.23 1116.5,-90 1117.52,-89.89 1118.55,-89.77 1119.58,-89.66"/>
<polygon fill="#63b8ff" stroke="#63b8ff" points="1124.81,-89.06 1120.09,-91.86 1122.32,-89.34 1119.84,-89.63 1119.84,-89.63 1119.84,-89.63 1122.32,-89.34 1119.58,-87.39 1124.81,-89.06 1124.81,-89.06"/>
</a>
</g>
<g id="a_edge15&#45;headlabel"><a xlink:href="dir_000163_000089.html" target="_top" xlink:title="45">
<text text-anchor="middle" x="1112.02" y="-94.4" font-family="Helvetica,sans-Serif" font-size="10.00" fill="#63b8ff">45</text>
</a>
</g>
</g>
<!-- dir_23b6b8b7b23b1e0aa9870bddb20c8f4d -->
<g id="node12" class="node">
<title>dir_23b6b8b7b23b1e0aa9870bddb20c8f4d</title>
<g id="a_node12"><a xlink:href="dir_23b6b8b7b23b1e0aa9870bddb20c8f4d.html" target="_top" xlink:title="libcockatrice_protocol">
<polygon fill="#efefef" stroke="red" points="245,-90 122,-90 122,-71 245,-71 245,-90"/>
<text text-anchor="middle" x="183.5" y="-78" font-family="Helvetica,sans-Serif" font-size="10.00">libcockatrice_protocol</text>
</a>
</g>
</g>
<!-- dir_ff904cee2da7fc4774f8298cfe1e7610&#45;&gt;dir_23b6b8b7b23b1e0aa9870bddb20c8f4d -->
<g id="edge16" class="edge">
<title>dir_ff904cee2da7fc4774f8298cfe1e7610&#45;&gt;dir_23b6b8b7b23b1e0aa9870bddb20c8f4d</title>
<g id="a_edge16"><a xlink:href="dir_000163_000091.html" target="_top">
<path fill="none" stroke="#63b8ff" d="M625.85,-131.38C553.19,-123.19 355.25,-100.87 250.53,-89.06"/>
<polygon fill="#63b8ff" stroke="#63b8ff" points="245.3,-88.47 250.52,-86.79 247.79,-88.75 250.27,-89.03 250.27,-89.03 250.27,-89.03 247.79,-88.75 250.02,-91.27 245.3,-88.47 245.3,-88.47"/>
</a>
</g>
<g id="a_edge16&#45;headlabel"><a xlink:href="dir_000163_000091.html" target="_top" xlink:title="19">
<text text-anchor="middle" x="259.52" y="-81.19" font-family="Helvetica,sans-Serif" font-size="10.00" fill="#63b8ff">19</text>
</a>
</g>
</g>
<!-- dir_ff904cee2da7fc4774f8298cfe1e7610&#45;&gt;dir_3af81e411179dbd2803f927cb496940d -->
<g id="edge20" class="edge">
<title>dir_ff904cee2da7fc4774f8298cfe1e7610&#45;&gt;dir_3af81e411179dbd2803f927cb496940d</title>
<g id="a_edge20"><a xlink:href="dir_000163_000086.html" target="_top">
<path fill="none" stroke="#63b8ff" d="M625.86,-132.81C552.39,-128.04 353.65,-113.3 292.5,-90 272.8,-82.49 272.94,-71.16 253.5,-63 231.02,-53.56 172.91,-43.08 126.82,-35.78"/>
<polygon fill="#63b8ff" stroke="#63b8ff" points="121.84,-35 127.12,-33.55 124.31,-35.39 126.78,-35.78 126.78,-35.78 126.78,-35.78 124.31,-35.39 126.43,-38 121.84,-35 121.84,-35"/>
</a>
</g>
<g id="a_edge20&#45;headlabel"><a xlink:href="dir_000163_000086.html" target="_top" xlink:title="7">
<text text-anchor="middle" x="136.25" y="-28.35" font-family="Helvetica,sans-Serif" font-size="10.00" fill="#63b8ff">7</text>
</a>
</g>
</g>
<!-- dir_ff904cee2da7fc4774f8298cfe1e7610&#45;&gt;dir_a793f43f6dc6d18ba76771f9a71a4ad6 -->
<g id="edge21" class="edge">
<title>dir_ff904cee2da7fc4774f8298cfe1e7610&#45;&gt;dir_a793f43f6dc6d18ba76771f9a71a4ad6</title>
<g id="a_edge21"><a xlink:href="dir_000163_000085.html" target="_top">
<path fill="none" stroke="#63b8ff" d="M681.11,-134.6C793.71,-134.74 1214.14,-132.39 1253.5,-90 1287.35,-53.54 1209.52,-37.65 1150.94,-30.99"/>
<polygon fill="#63b8ff" stroke="#63b8ff" points="1145.69,-30.41 1150.9,-28.72 1148.17,-30.69 1150.66,-30.96 1150.66,-30.96 1150.66,-30.96 1148.17,-30.69 1150.41,-33.2 1145.69,-30.41 1145.69,-30.41"/>
</a>
</g>
<g id="a_edge21&#45;headlabel"><a xlink:href="dir_000163_000085.html" target="_top" xlink:title="69">
<text text-anchor="middle" x="1159.89" y="-23.1" font-family="Helvetica,sans-Serif" font-size="10.00" fill="#63b8ff">69</text>
</a>
</g>
</g>
<!-- dir_ea8d64982b5609019074a0f83466341a -->
<g id="node15" class="node">
<title>dir_ea8d64982b5609019074a0f83466341a</title>
<g id="a_node15"><a xlink:href="dir_ea8d64982b5609019074a0f83466341a.html" target="_top" xlink:title="libcockatrice_utility">
<polygon fill="#efefef" stroke="red" points="977.5,-90 865.5,-90 865.5,-71 977.5,-71 977.5,-90"/>
<text text-anchor="middle" x="921.5" y="-78" font-family="Helvetica,sans-Serif" font-size="10.00">libcockatrice_utility</text>
</a>
</g>
</g>
<!-- dir_ff904cee2da7fc4774f8298cfe1e7610&#45;&gt;dir_ea8d64982b5609019074a0f83466341a -->
<g id="edge23" class="edge">
<title>dir_ff904cee2da7fc4774f8298cfe1e7610&#45;&gt;dir_ea8d64982b5609019074a0f83466341a</title>
<g id="a_edge23"><a xlink:href="dir_000163_000094.html" target="_top">
<path fill="none" stroke="#63b8ff" d="M681.17,-129.03C726.48,-120.07 817.05,-102.16 873.14,-91.06"/>
<polygon fill="#63b8ff" stroke="#63b8ff" points="878.13,-90.08 873.66,-93.25 875.67,-90.56 873.22,-91.05 873.22,-91.05 873.22,-91.05 875.67,-90.56 872.79,-88.84 878.13,-90.08 878.13,-90.08"/>
</a>
</g>
<g id="a_edge23&#45;headlabel"><a xlink:href="dir_000163_000094.html" target="_top" xlink:title="40">
<text text-anchor="middle" x="866.02" y="-96.43" font-family="Helvetica,sans-Serif" font-size="10.00" fill="#63b8ff">40</text>
</a>
</g>
</g>
<!-- dir_ff904cee2da7fc4774f8298cfe1e7610&#45;&gt;dir_f3aef765df2a7860fd35e0943a5cc08c -->
<g id="edge24" class="edge">
<title>dir_ff904cee2da7fc4774f8298cfe1e7610&#45;&gt;dir_f3aef765df2a7860fd35e0943a5cc08c</title>
<g id="a_edge24"><a xlink:href="dir_000163_000090.html" target="_top">
<path fill="none" stroke="#63b8ff" d="M681.3,-132.96C769.78,-127.95 1052.81,-111.27 1286.5,-90 1289.39,-89.74 1292.35,-89.46 1295.33,-89.16"/>
<polygon fill="#63b8ff" stroke="#63b8ff" points="1300.72,-88.62 1295.97,-91.36 1298.23,-88.87 1295.74,-89.12 1295.74,-89.12 1295.74,-89.12 1298.23,-88.87 1295.52,-86.88 1300.72,-88.62 1300.72,-88.62"/>
</a>
</g>
<g id="a_edge24&#45;headlabel"><a xlink:href="dir_000163_000090.html" target="_top" xlink:title="28">
<text text-anchor="middle" x="1287.82" y="-93.78" font-family="Helvetica,sans-Serif" font-size="10.00" fill="#63b8ff">28</text>
</a>
</g>
</g>
<!-- dir_0ad197c8f4f2d6e698989e8592266334 -->
<g id="node17" class="node">
<title>dir_0ad197c8f4f2d6e698989e8592266334</title>
<g id="a_node17"><a xlink:href="dir_0ad197c8f4f2d6e698989e8592266334.html" target="_top" xlink:title="libcockatrice_filters">
<polygon fill="#efefef" stroke="red" points="1107,-90 996,-90 996,-71 1107,-71 1107,-90"/>
<text text-anchor="middle" x="1051.5" y="-78" font-family="Helvetica,sans-Serif" font-size="10.00">libcockatrice_filters</text>
</a>
</g>
</g>
<!-- dir_ff904cee2da7fc4774f8298cfe1e7610&#45;&gt;dir_0ad197c8f4f2d6e698989e8592266334 -->
<g id="edge13" class="edge">
<title>dir_ff904cee2da7fc4774f8298cfe1e7610&#45;&gt;dir_0ad197c8f4f2d6e698989e8592266334</title>
<g id="a_edge13"><a xlink:href="dir_000163_000087.html" target="_top">
<path fill="none" stroke="#63b8ff" d="M681.17,-130.82C744.86,-122.33 903.08,-101.26 990.69,-89.6"/>
<polygon fill="#63b8ff" stroke="#63b8ff" points="995.84,-88.91 991.18,-91.8 993.37,-89.24 990.89,-89.57 990.89,-89.57 990.89,-89.57 993.37,-89.24 990.59,-87.34 995.84,-88.91 995.84,-88.91"/>
</a>
</g>
<g id="a_edge13&#45;headlabel"><a xlink:href="dir_000163_000087.html" target="_top" xlink:title="6">
<text text-anchor="middle" x="983.2" y="-94.49" font-family="Helvetica,sans-Serif" font-size="10.00" fill="#63b8ff">6</text>
</a>
</g>
</g>
</g>
</svg>

<g id="navigator" transform="translate(0 0)" fill="#404254">
  <rect fill="#f2f5e9" fill-opacity="0.5" stroke="#606060" stroke-width=".5" x="0" y="0" width="60" height="60"/>
  <use id="zoomplus" xlink:href="#zoomPlus" x="17" y="9" onmousedown="handleZoom(evt,'in')"/>
  <use id="zoomminus" xlink:href="#zoomMin" x="42" y="9" onmousedown="handleZoom(evt,'out')"/>
  <use id="reset" xlink:href="#resetDef" x="30" y="36" onmousedown="handleReset()"/>
   <use id="arrowup" xlink:href="#arrowUp" x="0" y="0" onmousedown="handlePan(0,-1)"/>
  <use id="arrowright" xlink:href="#arrowRight" x="0" y="0" onmousedown="handlePan(1,0)"/>
  <use id="arrowdown" xlink:href="#arrowDown" x="0" y="0" onmousedown="handlePan(0,1)"/>
  <use id="arrowleft" xlink:href="#arrowLeft" x="0" y="0" onmousedown="handlePan(-1,0)"/>
</g>
<svg viewBox="0 0 15 15" width="100%" height="30px" preserveAspectRatio="xMaxYMin meet">
 <g id="arrow_out" transform="scale(0.3 0.3)">
  <a xlink:href="dir_cd36a3f9f9d202308a2deae5eeddfa6f_dep_org.svg" target="_base">
   <rect id="button" ry="5" rx="5" y="6" x="6" height="38" width="38"
        fill="#f2f5e9" fill-opacity="0.5" stroke="#606060" stroke-width="1.0"/>
   <path id="arrow"
     d="M 11.500037,31.436501 C 11.940474,20.09759 22.043105,11.32322 32.158766,21.979434 L 37.068811,17.246167 C 37.068811,17.246167 37.088388,32 37.088388,32 L 22.160133,31.978069 C 22.160133,31.978069 26.997745,27.140456 26.997745,27.140456 C 18.528582,18.264221 13.291696,25.230495 11.500037,31.436501 z"
     style="fill:#404040;"/>
  </a>
 </g>
</svg>

<style type='text/css'>
<![CDATA[
[data-mouse-over-selected='false'] { opacity: 0.7; }
[data-mouse-over-selected='true']  { opacity: 1.0; }
]]>
</style>
<script type="application/ecmascript"><![CDATA[
document.addEventListener('DOMContentLoaded', (event) => {
  highlightEdges();
  highlightAdjacentNodes();
});
]]></script>
</svg>
