<?xml version="1.0" encoding="UTF-8" standalone="no"?>
<!DOCTYPE svg PUBLIC "-//W3C//DTD SVG 1.1//EN"
 "http://www.w3.org/Graphics/SVG/1.1/DTD/svg11.dtd">
<!-- Generated by graphviz version 2.43.0 (0)
 -->
<!-- Title: cockatrice/src/interface/widgets/cards/card_group_display_widgets Pages: 1 -->
<!--zoomable 128 -->

<svg id="main" version="1.1" xmlns="http://www.w3.org/2000/svg" xmlns:xlink="http://www.w3.org/1999/xlink" xml:space="preserve" onload="init(evt)">

<style type="text/css"><![CDATA[
.node, .edge {opacity: 0.7;}
.node.selected, .edge.selected {opacity: 1;}
.edge:hover path { stroke: red; }
.edge:hover polygon { stroke: red; fill: red; }
]]></style>

<defs>
  <circle id="rim" cx="0" cy="0" r="7"/>
  <circle id="rim2" cx="0" cy="0" r="3.5"/>
  <g id="zoomPlus">
    <use xlink:href="#rim" fill="#404040"><set attributeName="fill" to="#808080" begin="zoomplus.mouseover" end="zoomplus.mouseout"/></use>
    <path d="M-4,0h8M0,-4v8" fill="none" stroke="white" stroke-width="1.5" pointer-events="none"/>
  </g>
  <g id="zoomMin">
    <use xlink:href="#rim" fill="#404040"><set attributeName="fill" to="#808080" begin="zoomminus.mouseover" end="zoomminus.mouseout"/></use>
    <path d="M-4,0h8" fill="none" stroke="white" stroke-width="1.5" pointer-events="none"/>
  </g>
  <g id="arrowUp" transform="translate(30 24)">
    <use xlink:href="#rim"/>
    <path pointer-events="none" fill="none" stroke="white" stroke-width="1.5" d="M0,-3.0v7 M-2.5,-0.5L0,-3.0L2.5,-0.5"/>
  </g>
  <g id="arrowRight" transform="rotate(90) translate(36 -43)">
    <use xlink:href="#rim"/>
    <path pointer-events="none" fill="none" stroke="white" stroke-width="1.5" d="M0,-3.0v7 M-2.5,-0.5L0,-3.0L2.5,-0.5"/>
  </g>
  <g id="arrowDown" transform="rotate(180) translate(-30 -48)">
    <use xlink:href="#rim"/>
    <path pointer-events="none" fill="none" stroke="white" stroke-width="1.5" d="M0,-3.0v7 M-2.5,-0.5L0,-3.0L2.5,-0.5"/>
  </g>
  <g id="arrowLeft" transform="rotate(270) translate(-36 17)">
    <use xlink:href="#rim"/>
    <path pointer-events="none" fill="none" stroke="white" stroke-width="1.5" d="M0,-3.0v7 M-2.5,-0.5L0,-3.0L2.5,-0.5"/>
  </g>
  <g id="resetDef">
    <use xlink:href="#rim2" fill="#404040"><set attributeName="fill" to="#808080" begin="reset.mouseover" end="reset.mouseout"/></use>
  </g>
</defs>
<script type="application/ecmascript">
var viewWidth = 524;
var viewHeight = 128;
var sectionId = 'dynsection-0';
</script>
<script type="application/ecmascript" xlink:href="svg.min.js"/>
<svg id="graph" class="graph">
<g id="viewport">
<title>cockatrice/src/interface/widgets/cards/card_group_display_widgets</title>
<g id="clust1" class="cluster">
<title>clusterdir_cb8e08b98c526ef28decbb3027ba2769</title>
<g id="a_clust1"><a xlink:href="dir_cb8e08b98c526ef28decbb3027ba2769.html" target="_top" xlink:title="cards">
<polygon fill="#efefef" stroke="#7f7f7f" stroke-dasharray="5,2" points="163.5,-47 163.5,-112 289.5,-112 289.5,-47 163.5,-47"/>
<text text-anchor="middle" x="226.5" y="-100" font-family="Helvetica,sans-Serif" font-size="10.00">cards</text>
</a>
</g>
</g>
<!-- dir_f7f3b0129328dc87c8a56d7daf2207e7 -->
<g id="node1" class="node">
<title>dir_f7f3b0129328dc87c8a56d7daf2207e7</title>
<g id="a_node1"><a xlink:href="dir_f7f3b0129328dc87c8a56d7daf2207e7.html" target="_top" xlink:title="card_group_display\l_widgets">
<polygon fill="#efefef" stroke="#404040" stroke-width="2" points="282,-85 171,-85 171,-55 282,-55 282,-85"/>
<text text-anchor="start" x="179" y="-73" font-family="Helvetica,sans-Serif" font-size="10.00">card_group_display</text>
<text text-anchor="middle" x="226.5" y="-62" font-family="Helvetica,sans-Serif" font-size="10.00">_widgets</text>
</a>
</g>
</g>
<!-- dir_20a59a59a89fdcf6a3e4c975621dc6fb -->
<g id="node2" class="node">
<title>dir_20a59a59a89fdcf6a3e4c975621dc6fb</title>
<g id="a_node2"><a xlink:href="dir_20a59a59a89fdcf6a3e4c975621dc6fb.html" target="_top" xlink:title="libcockatrice_models">
<polygon fill="#efefef" stroke="red" points="119,-19 0,-19 0,0 119,0 119,-19"/>
<text text-anchor="middle" x="59.5" y="-7" font-family="Helvetica,sans-Serif" font-size="10.00">libcockatrice_models</text>
</a>
</g>
</g>
<!-- dir_f7f3b0129328dc87c8a56d7daf2207e7&#45;&gt;dir_20a59a59a89fdcf6a3e4c975621dc6fb -->
<g id="edge1" class="edge">
<title>dir_f7f3b0129328dc87c8a56d7daf2207e7&#45;&gt;dir_20a59a59a89fdcf6a3e4c975621dc6fb</title>
<g id="a_edge1"><a xlink:href="dir_000017_000099.html" target="_top">
<path fill="none" stroke="#63b8ff" d="M186.5,-54.99C156.52,-44.49 116.17,-30.35 89.06,-20.86"/>
<polygon fill="#63b8ff" stroke="#63b8ff" points="84.16,-19.14 89.63,-18.67 86.52,-19.97 88.88,-20.79 88.88,-20.79 88.88,-20.79 86.52,-19.97 88.14,-22.92 84.16,-19.14 84.16,-19.14"/>
</a>
</g>
<g id="a_edge1&#45;headlabel"><a xlink:href="dir_000017_000099.html" target="_top" xlink:title="5">
<text text-anchor="middle" x="99.09" y="-15.15" font-family="Helvetica,sans-Serif" font-size="10.00" fill="#63b8ff">5</text>
</a>
</g>
</g>
<!-- dir_2aed47bd6a83d703a8daf87b1a4cab56 -->
<g id="node3" class="node">
<title>dir_2aed47bd6a83d703a8daf87b1a4cab56</title>
<g id="a_node3"><a xlink:href="dir_2aed47bd6a83d703a8daf87b1a4cab56.html" target="_top" xlink:title="client">
<polygon fill="#efefef" stroke="red" stroke-dasharray="5,2" points="181.5,-19 137.5,-19 137.5,0 181.5,0 181.5,-19"/>
<text text-anchor="middle" x="159.5" y="-7" font-family="Helvetica,sans-Serif" font-size="10.00">client</text>
</a>
</g>
</g>
<!-- dir_f7f3b0129328dc87c8a56d7daf2207e7&#45;&gt;dir_2aed47bd6a83d703a8daf87b1a4cab56 -->
<g id="edge2" class="edge">
<title>dir_f7f3b0129328dc87c8a56d7daf2207e7&#45;&gt;dir_2aed47bd6a83d703a8daf87b1a4cab56</title>
<g id="a_edge2"><a xlink:href="dir_000017_000031.html" target="_top">
<path fill="none" stroke="#63b8ff" d="M210.28,-54.84C199.07,-45.05 184.29,-32.15 173.58,-22.79"/>
<polygon fill="#63b8ff" stroke="#63b8ff" points="169.54,-19.27 174.79,-20.86 171.42,-20.91 173.31,-22.55 173.31,-22.55 173.31,-22.55 171.42,-20.91 171.83,-24.25 169.54,-19.27 169.54,-19.27"/>
</a>
</g>
<g id="a_edge2&#45;headlabel"><a xlink:href="dir_000017_000031.html" target="_top" xlink:title="1">
<text text-anchor="middle" x="183.95" y="-20.93" font-family="Helvetica,sans-Serif" font-size="10.00" fill="#63b8ff">1</text>
</a>
</g>
</g>
<!-- dir_2efc70cb735a710399c485f6d0a8024b -->
<g id="node4" class="node">
<title>dir_2efc70cb735a710399c485f6d0a8024b</title>
<g id="a_node4"><a xlink:href="dir_2efc70cb735a710399c485f6d0a8024b.html" target="_top" xlink:title="general">
<polygon fill="#efefef" stroke="red" stroke-dasharray="5,2" points="253,-19 200,-19 200,0 253,0 253,-19"/>
<text text-anchor="middle" x="226.5" y="-7" font-family="Helvetica,sans-Serif" font-size="10.00">general</text>
</a>
</g>
</g>
<!-- dir_f7f3b0129328dc87c8a56d7daf2207e7&#45;&gt;dir_2efc70cb735a710399c485f6d0a8024b -->
<g id="edge3" class="edge">
<title>dir_f7f3b0129328dc87c8a56d7daf2207e7&#45;&gt;dir_2efc70cb735a710399c485f6d0a8024b</title>
<g id="a_edge3"><a xlink:href="dir_000017_000074.html" target="_top">
<path fill="none" stroke="#63b8ff" d="M226.5,-54.84C226.5,-45.57 226.5,-33.51 226.5,-24.31"/>
<polygon fill="#63b8ff" stroke="#63b8ff" points="226.5,-19.27 228.75,-24.27 226.5,-21.77 226.5,-24.27 226.5,-24.27 226.5,-24.27 226.5,-21.77 224.25,-24.27 226.5,-19.27 226.5,-19.27"/>
</a>
</g>
<g id="a_edge3&#45;headlabel"><a xlink:href="dir_000017_000074.html" target="_top" xlink:title="3">
<text text-anchor="middle" x="232.84" y="-30.36" font-family="Helvetica,sans-Serif" font-size="10.00" fill="#63b8ff">3</text>
</a>
</g>
</g>
<!-- dir_679fe8144b35da151ba75c42518e7df2 -->
<g id="node5" class="node">
<title>dir_679fe8144b35da151ba75c42518e7df2</title>
<g id="a_node5"><a xlink:href="dir_679fe8144b35da151ba75c42518e7df2.html" target="_top" xlink:title="libcockatrice_settings">
<polygon fill="#efefef" stroke="red" points="393.5,-19 271.5,-19 271.5,0 393.5,0 393.5,-19"/>
<text text-anchor="middle" x="332.5" y="-7" font-family="Helvetica,sans-Serif" font-size="10.00">libcockatrice_settings</text>
</a>
</g>
</g>
<!-- dir_f7f3b0129328dc87c8a56d7daf2207e7&#45;&gt;dir_679fe8144b35da151ba75c42518e7df2 -->
<g id="edge4" class="edge">
<title>dir_f7f3b0129328dc87c8a56d7daf2207e7&#45;&gt;dir_679fe8144b35da151ba75c42518e7df2</title>
<g id="a_edge4"><a xlink:href="dir_000017_000103.html" target="_top">
<path fill="none" stroke="#63b8ff" d="M251.89,-54.99C270.36,-44.79 295.05,-31.17 312.22,-21.69"/>
<polygon fill="#63b8ff" stroke="#63b8ff" points="316.85,-19.14 313.56,-23.53 314.66,-20.35 312.47,-21.56 312.47,-21.56 312.47,-21.56 314.66,-20.35 311.38,-19.59 316.85,-19.14 316.85,-19.14"/>
</a>
</g>
<g id="a_edge4&#45;headlabel"><a xlink:href="dir_000017_000103.html" target="_top" xlink:title="1">
<text text-anchor="middle" x="308.01" y="-28.76" font-family="Helvetica,sans-Serif" font-size="10.00" fill="#63b8ff">1</text>
</a>
</g>
</g>
<!-- dir_a793f43f6dc6d18ba76771f9a71a4ad6 -->
<g id="node6" class="node">
<title>dir_a793f43f6dc6d18ba76771f9a71a4ad6</title>
<g id="a_node6"><a xlink:href="dir_a793f43f6dc6d18ba76771f9a71a4ad6.html" target="_top" xlink:title="libcockatrice_card">
<polygon fill="#efefef" stroke="red" points="515.5,-19 411.5,-19 411.5,0 515.5,0 515.5,-19"/>
<text text-anchor="middle" x="463.5" y="-7" font-family="Helvetica,sans-Serif" font-size="10.00">libcockatrice_card</text>
</a>
</g>
</g>
<!-- dir_f7f3b0129328dc87c8a56d7daf2207e7&#45;&gt;dir_a793f43f6dc6d18ba76771f9a71a4ad6 -->
<g id="edge5" class="edge">
<title>dir_f7f3b0129328dc87c8a56d7daf2207e7&#45;&gt;dir_a793f43f6dc6d18ba76771f9a71a4ad6</title>
<g id="a_edge5"><a xlink:href="dir_000017_000095.html" target="_top">
<path fill="none" stroke="#63b8ff" d="M282.07,-55.28C325.54,-44.55 384.93,-29.89 423.74,-20.32"/>
<polygon fill="#63b8ff" stroke="#63b8ff" points="428.84,-19.06 424.52,-22.44 426.41,-19.66 423.98,-20.25 423.98,-20.25 423.98,-20.25 426.41,-19.66 423.44,-18.07 428.84,-19.06 428.84,-19.06"/>
</a>
</g>
<g id="a_edge5&#45;headlabel"><a xlink:href="dir_000017_000095.html" target="_top" xlink:title="3">
<text text-anchor="middle" x="417.16" y="-25.97" font-family="Helvetica,sans-Serif" font-size="10.00" fill="#63b8ff">3</text>
</a>
</g>
</g>
</g>
</svg>

<g id="navigator" transform="translate(0 0)" fill="#404254">
  <rect fill="#f2f5e9" fill-opacity="0.5" stroke="#606060" stroke-width=".5" x="0" y="0" width="60" height="60"/>
  <use id="zoomplus" xlink:href="#zoomPlus" x="17" y="9" onmousedown="handleZoom(evt,'in')"/>
  <use id="zoomminus" xlink:href="#zoomMin" x="42" y="9" onmousedown="handleZoom(evt,'out')"/>
  <use id="reset" xlink:href="#resetDef" x="30" y="36" onmousedown="handleReset()"/>
   <use id="arrowup" xlink:href="#arrowUp" x="0" y="0" onmousedown="handlePan(0,-1)"/>
  <use id="arrowright" xlink:href="#arrowRight" x="0" y="0" onmousedown="handlePan(1,0)"/>
  <use id="arrowdown" xlink:href="#arrowDown" x="0" y="0" onmousedown="handlePan(0,1)"/>
  <use id="arrowleft" xlink:href="#arrowLeft" x="0" y="0" onmousedown="handlePan(-1,0)"/>
</g>
<svg viewBox="0 0 15 15" width="100%" height="30px" preserveAspectRatio="xMaxYMin meet">
 <g id="arrow_out" transform="scale(0.3 0.3)">
  <a xlink:href="dir_f7f3b0129328dc87c8a56d7daf2207e7_dep_org.svg" target="_base">
   <rect id="button" ry="5" rx="5" y="6" x="6" height="38" width="38"
        fill="#f2f5e9" fill-opacity="0.5" stroke="#606060" stroke-width="1.0"/>
   <path id="arrow"
     d="M 11.500037,31.436501 C 11.940474,20.09759 22.043105,11.32322 32.158766,21.979434 L 37.068811,17.246167 C 37.068811,17.246167 37.088388,32 37.088388,32 L 22.160133,31.978069 C 22.160133,31.978069 26.997745,27.140456 26.997745,27.140456 C 18.528582,18.264221 13.291696,25.230495 11.500037,31.436501 z"
     style="fill:#404040;"/>
  </a>
 </g>
</svg>

<style type='text/css'>
<![CDATA[
[data-mouse-over-selected='false'] { opacity: 0.7; }
[data-mouse-over-selected='true']  { opacity: 1.0; }
]]>
</style>
<script type="application/ecmascript"><![CDATA[
document.addEventListener('DOMContentLoaded', (event) => {
  highlightEdges();
  highlightAdjacentNodes();
});
]]></script>
</svg>
