<?xml version="1.0" encoding="UTF-8" standalone="no"?>
<!DOCTYPE svg PUBLIC "-//W3C//DTD SVG 1.1//EN"
 "http://www.w3.org/Graphics/SVG/1.1/DTD/svg11.dtd">
<!-- Generated by graphviz version 2.43.0 (0)
 -->
<!-- Title: cockatrice/src/game/log Pages: 1 -->
<svg width="479pt" height="133pt"
 viewBox="0.00 0.00 478.50 133.00" xmlns="http://www.w3.org/2000/svg" xmlns:xlink="http://www.w3.org/1999/xlink">
<g id="graph0" class="graph" transform="scale(1 1) rotate(0) translate(4 129)">
<title>cockatrice/src/game/log</title>
<g id="clust1" class="cluster">
<title>clusterdir_fcc53323f100f3840d6c8e04b287c6d3</title>
<g id="a_clust1"><a xlink:href="dir_fcc53323f100f3840d6c8e04b287c6d3.html" target="_top" xlink:title="game">
<polygon fill="#efefef" stroke="#7f7f7f" stroke-dasharray="5,2" points="8,-8 8,-117 197,-117 197,-8 8,-8"/>
<text text-anchor="middle" x="102.5" y="-105" font-family="Helvetica,sans-Serif" font-size="10.00">game</text>
</a>
</g>
</g>
<!-- dir_507bd8faf3ea67254e4d7052f7e428a4 -->
<g id="node1" class="node">
<title>dir_507bd8faf3ea67254e4d7052f7e428a4</title>
<g id="a_node1"><a xlink:href="dir_507bd8faf3ea67254e4d7052f7e428a4.html" target="_top" xlink:title="player">
<polygon fill="#afafaf" stroke="red" points="63.5,-35 16.5,-35 16.5,-16 63.5,-16 63.5,-35"/>
<text text-anchor="middle" x="40" y="-23" font-family="Helvetica,sans-Serif" font-size="10.00">player</text>
</a>
</g>
</g>
<!-- dir_8f04e89bf047ba4e7a3267da4b339b83 -->
<g id="node2" class="node">
<title>dir_8f04e89bf047ba4e7a3267da4b339b83</title>
<g id="a_node2"><a xlink:href="dir_8f04e89bf047ba4e7a3267da4b339b83.html" target="_top" xlink:title="zones">
<polygon fill="#afafaf" stroke="red" points="126.5,-35 81.5,-35 81.5,-16 126.5,-16 126.5,-35"/>
<text text-anchor="middle" x="104" y="-23" font-family="Helvetica,sans-Serif" font-size="10.00">zones</text>
</a>
</g>
</g>
<!-- dir_ac5cce461f0162d7264cd69fe196aa39 -->
<g id="node3" class="node">
<title>dir_ac5cce461f0162d7264cd69fe196aa39</title>
<g id="a_node3"><a xlink:href="dir_ac5cce461f0162d7264cd69fe196aa39.html" target="_top" xlink:title="board">
<polygon fill="#afafaf" stroke="#404040" points="189,-35 145,-35 145,-16 189,-16 189,-35"/>
<text text-anchor="middle" x="167" y="-23" font-family="Helvetica,sans-Serif" font-size="10.00">board</text>
</a>
</g>
</g>
<!-- dir_f3992e3e75a4d6d302e36d76242c0b2a -->
<g id="node4" class="node">
<title>dir_f3992e3e75a4d6d302e36d76242c0b2a</title>
<g id="a_node4"><a xlink:href="dir_f3992e3e75a4d6d302e36d76242c0b2a.html" target="_top" xlink:title="log">
<polygon fill="#efefef" stroke="#404040" stroke-width="2" points="186,-90 154,-90 154,-71 186,-71 186,-90"/>
<text text-anchor="middle" x="170" y="-78" font-family="Helvetica,sans-Serif" font-size="10.00">log</text>
</a>
</g>
</g>
<!-- dir_f3992e3e75a4d6d302e36d76242c0b2a&#45;&gt;dir_507bd8faf3ea67254e4d7052f7e428a4 -->
<g id="edge2" class="edge">
<title>dir_f3992e3e75a4d6d302e36d76242c0b2a&#45;&gt;dir_507bd8faf3ea67254e4d7052f7e428a4</title>
<g id="a_edge2"><a xlink:href="dir_000081_000090.html" target="_top">
<path fill="none" stroke="#63b8ff" d="M153.8,-72.89C131.76,-63.91 92.07,-47.73 65.88,-37.05"/>
<polygon fill="#63b8ff" stroke="#63b8ff" points="61.15,-35.12 66.63,-34.93 63.47,-36.07 65.78,-37.01 65.78,-37.01 65.78,-37.01 63.47,-36.07 64.93,-39.1 61.15,-35.12 61.15,-35.12"/>
</a>
</g>
<g id="a_edge2&#45;headlabel"><a xlink:href="dir_000081_000090.html" target="_top" xlink:title="1">
<text text-anchor="middle" x="76.14" y="-31.89" font-family="Helvetica,sans-Serif" font-size="10.00" fill="#63b8ff">1</text>
</a>
</g>
</g>
<!-- dir_f3992e3e75a4d6d302e36d76242c0b2a&#45;&gt;dir_8f04e89bf047ba4e7a3267da4b339b83 -->
<g id="edge3" class="edge">
<title>dir_f3992e3e75a4d6d302e36d76242c0b2a&#45;&gt;dir_8f04e89bf047ba4e7a3267da4b339b83</title>
<g id="a_edge3"><a xlink:href="dir_000081_000128.html" target="_top">
<path fill="none" stroke="#63b8ff" d="M159.4,-70.98C148.4,-62.15 131.11,-48.27 118.77,-38.36"/>
<polygon fill="#63b8ff" stroke="#63b8ff" points="114.8,-35.17 120.1,-36.55 116.75,-36.74 118.7,-38.3 118.7,-38.3 118.7,-38.3 116.75,-36.74 117.29,-40.06 114.8,-35.17 114.8,-35.17"/>
</a>
</g>
<g id="a_edge3&#45;headlabel"><a xlink:href="dir_000081_000128.html" target="_top" xlink:title="2">
<text text-anchor="middle" x="129.37" y="-36.24" font-family="Helvetica,sans-Serif" font-size="10.00" fill="#63b8ff">2</text>
</a>
</g>
</g>
<!-- dir_f3992e3e75a4d6d302e36d76242c0b2a&#45;&gt;dir_ac5cce461f0162d7264cd69fe196aa39 -->
<g id="edge4" class="edge">
<title>dir_f3992e3e75a4d6d302e36d76242c0b2a&#45;&gt;dir_ac5cce461f0162d7264cd69fe196aa39</title>
<g id="a_edge4"><a xlink:href="dir_000081_000006.html" target="_top">
<path fill="none" stroke="#63b8ff" d="M169.5,-70.75C169.03,-62.41 168.32,-49.74 167.77,-40.09"/>
<polygon fill="#63b8ff" stroke="#63b8ff" points="167.49,-35.09 170.02,-39.95 167.63,-37.59 167.77,-40.08 167.77,-40.08 167.77,-40.08 167.63,-37.59 165.52,-40.21 167.49,-35.09 167.49,-35.09"/>
</a>
</g>
<g id="a_edge4&#45;headlabel"><a xlink:href="dir_000081_000006.html" target="_top" xlink:title="2">
<text text-anchor="middle" x="174.58" y="-45.8" font-family="Helvetica,sans-Serif" font-size="10.00" fill="#63b8ff">2</text>
</a>
</g>
</g>
<!-- dir_2aed47bd6a83d703a8daf87b1a4cab56 -->
<g id="node5" class="node">
<title>dir_2aed47bd6a83d703a8daf87b1a4cab56</title>
<g id="a_node5"><a xlink:href="dir_2aed47bd6a83d703a8daf87b1a4cab56.html" target="_top" xlink:title="client">
<polygon fill="#efefef" stroke="red" stroke-dasharray="5,2" points="251,-35 207,-35 207,-16 251,-16 251,-35"/>
<text text-anchor="middle" x="229" y="-23" font-family="Helvetica,sans-Serif" font-size="10.00">client</text>
</a>
</g>
</g>
<!-- dir_f3992e3e75a4d6d302e36d76242c0b2a&#45;&gt;dir_2aed47bd6a83d703a8daf87b1a4cab56 -->
<g id="edge1" class="edge">
<title>dir_f3992e3e75a4d6d302e36d76242c0b2a&#45;&gt;dir_2aed47bd6a83d703a8daf87b1a4cab56</title>
<g id="a_edge1"><a xlink:href="dir_000081_000020.html" target="_top">
<path fill="none" stroke="#63b8ff" d="M179.48,-70.98C189.23,-62.23 204.5,-48.51 215.5,-38.62"/>
<polygon fill="#63b8ff" stroke="#63b8ff" points="219.35,-35.17 217.13,-40.19 217.49,-36.84 215.63,-38.51 215.63,-38.51 215.63,-38.51 217.49,-36.84 214.12,-36.84 219.35,-35.17 219.35,-35.17"/>
</a>
</g>
<g id="a_edge1&#45;headlabel"><a xlink:href="dir_000081_000020.html" target="_top" xlink:title="3">
<text text-anchor="middle" x="213.47" y="-46.47" font-family="Helvetica,sans-Serif" font-size="10.00" fill="#63b8ff">3</text>
</a>
</g>
</g>
<!-- dir_cd36a3f9f9d202308a2deae5eeddfa6f -->
<g id="node6" class="node">
<title>dir_cd36a3f9f9d202308a2deae5eeddfa6f</title>
<g id="a_node6"><a xlink:href="dir_cd36a3f9f9d202308a2deae5eeddfa6f.html" target="_top" xlink:title="interface">
<polygon fill="#efefef" stroke="red" stroke-dasharray="5,2" points="329,-35 269,-35 269,-16 329,-16 329,-35"/>
<text text-anchor="middle" x="299" y="-23" font-family="Helvetica,sans-Serif" font-size="10.00">interface</text>
</a>
</g>
</g>
<!-- dir_f3992e3e75a4d6d302e36d76242c0b2a&#45;&gt;dir_cd36a3f9f9d202308a2deae5eeddfa6f -->
<g id="edge5" class="edge">
<title>dir_f3992e3e75a4d6d302e36d76242c0b2a&#45;&gt;dir_cd36a3f9f9d202308a2deae5eeddfa6f</title>
<g id="a_edge5"><a xlink:href="dir_000081_000054.html" target="_top">
<path fill="none" stroke="#63b8ff" d="M186.08,-72.89C207.95,-63.91 247.33,-47.73 273.32,-37.05"/>
<polygon fill="#63b8ff" stroke="#63b8ff" points="278.01,-35.12 274.24,-39.11 275.7,-36.07 273.38,-37.02 273.38,-37.02 273.38,-37.02 275.7,-36.07 272.53,-34.94 278.01,-35.12 278.01,-35.12"/>
</a>
</g>
<g id="a_edge5&#45;headlabel"><a xlink:href="dir_000081_000054.html" target="_top" xlink:title="2">
<text text-anchor="middle" x="267.84" y="-43.65" font-family="Helvetica,sans-Serif" font-size="10.00" fill="#63b8ff">2</text>
</a>
</g>
</g>
<!-- dir_f3aef765df2a7860fd35e0943a5cc08c -->
<g id="node7" class="node">
<title>dir_f3aef765df2a7860fd35e0943a5cc08c</title>
<g id="a_node7"><a xlink:href="dir_f3aef765df2a7860fd35e0943a5cc08c.html" target="_top" xlink:title="libcockatrice_network">
<polygon fill="#efefef" stroke="red" points="470.5,-35 347.5,-35 347.5,-16 470.5,-16 470.5,-35"/>
<text text-anchor="middle" x="409" y="-23" font-family="Helvetica,sans-Serif" font-size="10.00">libcockatrice_network</text>
</a>
</g>
</g>
<!-- dir_f3992e3e75a4d6d302e36d76242c0b2a&#45;&gt;dir_f3aef765df2a7860fd35e0943a5cc08c -->
<g id="edge6" class="edge">
<title>dir_f3992e3e75a4d6d302e36d76242c0b2a&#45;&gt;dir_f3aef765df2a7860fd35e0943a5cc08c</title>
<g id="a_edge6"><a xlink:href="dir_000081_000074.html" target="_top">
<path fill="none" stroke="#63b8ff" d="M186.05,-75.94C222.25,-67.91 311.27,-48.17 365.24,-36.2"/>
<polygon fill="#63b8ff" stroke="#63b8ff" points="370.35,-35.07 365.95,-38.35 367.91,-35.61 365.46,-36.15 365.46,-36.15 365.46,-36.15 367.91,-35.61 364.98,-33.96 370.35,-35.07 370.35,-35.07"/>
</a>
</g>
<g id="a_edge6&#45;headlabel"><a xlink:href="dir_000081_000074.html" target="_top" xlink:title="1">
<text text-anchor="middle" x="358.45" y="-41.7" font-family="Helvetica,sans-Serif" font-size="10.00" fill="#63b8ff">1</text>
</a>
</g>
</g>
</g>
</svg>
