<?xml version="1.0" encoding="UTF-8" standalone="no"?>
<!DOCTYPE svg PUBLIC "-//W3C//DTD SVG 1.1//EN"
 "http://www.w3.org/Graphics/SVG/1.1/DTD/svg11.dtd">
<!-- Generated by graphviz version 2.43.0 (0)
 -->
<!-- Title: cockatrice/src/game/dialogs Pages: 1 -->
<svg width="362pt" height="117pt"
 viewBox="0.00 0.00 362.00 117.00" xmlns="http://www.w3.org/2000/svg" xmlns:xlink="http://www.w3.org/1999/xlink">

<svg id="main" version="1.1" xmlns="http://www.w3.org/2000/svg" xmlns:xlink="http://www.w3.org/1999/xlink" xml:space="preserve" onload="init(evt)">
<style type="text/css"><![CDATA[
.node, .edge {opacity: 0.7;}
.node.selected, .edge.selected {opacity: 1;}
.edge:hover path { stroke: red; }
.edge:hover polygon { stroke: red; fill: red; }
]]></style>
<script type="application/ecmascript" xlink:href="svg.min.js"/>
<svg id="graph" class="graph">
<g id="graph0" class="graph" transform="scale(1 1) rotate(0) translate(4 113)">
<title>cockatrice/src/game/dialogs</title>
<g id="clust1" class="cluster">
<title>clusterdir_fcc53323f100f3840d6c8e04b287c6d3</title>
<g id="a_clust1"><a xlink:href="dir_fcc53323f100f3840d6c8e04b287c6d3.html" target="_top" xlink:title="game">
<polygon fill="#efefef" stroke="#7f7f7f" stroke-dasharray="5,2" points="133,-47 133,-101 201,-101 201,-47 133,-47"/>
<text text-anchor="middle" x="167" y="-89" font-family="Helvetica,sans-Serif" font-size="10.00">game</text>
</a>
</g>
</g>
<!-- dir_e32f56b0edef7585ebe7e90f39057682 -->
<g id="node1" class="node">
<title>dir_e32f56b0edef7585ebe7e90f39057682</title>
<g id="a_node1"><a xlink:href="dir_e32f56b0edef7585ebe7e90f39057682.html" target="_top" xlink:title="dialogs">
<polygon fill="#efefef" stroke="#404040" stroke-width="2" points="193,-74 141,-74 141,-55 193,-55 193,-74"/>
<text text-anchor="middle" x="167" y="-62" font-family="Helvetica,sans-Serif" font-size="10.00">dialogs</text>
</a>
</g>
</g>
<!-- dir_13c4bd8f55a3c016402cc9039922b9a0 -->
<g id="node2" class="node">
<title>dir_13c4bd8f55a3c016402cc9039922b9a0</title>
<g id="a_node2"><a xlink:href="dir_13c4bd8f55a3c016402cc9039922b9a0.html" target="_top" xlink:title="filters">
<polygon fill="#efefef" stroke="#7f7f7f" points="44,-19 0,-19 0,0 44,0 44,-19"/>
<text text-anchor="middle" x="22" y="-7" font-family="Helvetica,sans-Serif" font-size="10.00">filters</text>
</a>
</g>
</g>
<!-- dir_e32f56b0edef7585ebe7e90f39057682&#45;&gt;dir_13c4bd8f55a3c016402cc9039922b9a0 -->
<g id="edge1" class="edge">
<title>dir_e32f56b0edef7585ebe7e90f39057682&#45;&gt;dir_13c4bd8f55a3c016402cc9039922b9a0</title>
<g id="a_edge1"><a xlink:href="dir_000027_000031.html" target="_top">
<path fill="none" stroke="#63b8ff" d="M143.7,-54.98C117.93,-45.56 76.44,-30.4 49.2,-20.44"/>
<polygon fill="#63b8ff" stroke="#63b8ff" points="44.29,-18.65 49.76,-18.25 46.63,-19.5 48.98,-20.36 48.98,-20.36 48.98,-20.36 46.63,-19.5 48.21,-22.48 44.29,-18.65 44.29,-18.65"/>
</a>
</g>
<g id="a_edge1&#45;headlabel"><a xlink:href="dir_000027_000031.html" target="_top" xlink:title="1">
<text text-anchor="middle" x="59.23" y="-14.86" font-family="Helvetica,sans-Serif" font-size="10.00" fill="#63b8ff">1</text>
</a>
</g>
</g>
<!-- dir_1cefcb6db3ce3ee3f02f04248203d200 -->
<g id="node3" class="node">
<title>dir_1cefcb6db3ce3ee3f02f04248203d200</title>
<g id="a_node3"><a xlink:href="dir_1cefcb6db3ce3ee3f02f04248203d200.html" target="_top" xlink:title="settings">
<polygon fill="#efefef" stroke="#7f7f7f" points="118,-19 62,-19 62,0 118,0 118,-19"/>
<text text-anchor="middle" x="90" y="-7" font-family="Helvetica,sans-Serif" font-size="10.00">settings</text>
</a>
</g>
</g>
<!-- dir_e32f56b0edef7585ebe7e90f39057682&#45;&gt;dir_1cefcb6db3ce3ee3f02f04248203d200 -->
<g id="edge2" class="edge">
<title>dir_e32f56b0edef7585ebe7e90f39057682&#45;&gt;dir_1cefcb6db3ce3ee3f02f04248203d200</title>
<g id="a_edge2"><a xlink:href="dir_000027_000054.html" target="_top">
<path fill="none" stroke="#63b8ff" d="M154.63,-54.98C141.68,-46.07 121.28,-32.03 106.86,-22.11"/>
<polygon fill="#63b8ff" stroke="#63b8ff" points="102.6,-19.17 107.99,-20.15 104.66,-20.59 106.72,-22.01 106.72,-22.01 106.72,-22.01 104.66,-20.59 105.44,-23.86 102.6,-19.17 102.6,-19.17"/>
</a>
</g>
<g id="a_edge2&#45;headlabel"><a xlink:href="dir_000027_000054.html" target="_top" xlink:title="1">
<text text-anchor="middle" x="117.39" y="-19.16" font-family="Helvetica,sans-Serif" font-size="10.00" fill="#63b8ff">1</text>
</a>
</g>
</g>
<!-- dir_4f029d18925157cad24d13c31d834237 -->
<g id="node4" class="node">
<title>dir_4f029d18925157cad24d13c31d834237</title>
<g id="a_node4"><a xlink:href="dir_4f029d18925157cad24d13c31d834237.html" target="_top" xlink:title="database">
<polygon fill="#efefef" stroke="red" stroke-dasharray="5,2" points="198,-19 136,-19 136,0 198,0 198,-19"/>
<text text-anchor="middle" x="167" y="-7" font-family="Helvetica,sans-Serif" font-size="10.00">database</text>
</a>
</g>
</g>
<!-- dir_e32f56b0edef7585ebe7e90f39057682&#45;&gt;dir_4f029d18925157cad24d13c31d834237 -->
<g id="edge3" class="edge">
<title>dir_e32f56b0edef7585ebe7e90f39057682&#45;&gt;dir_4f029d18925157cad24d13c31d834237</title>
<g id="a_edge3"><a xlink:href="dir_000027_000020.html" target="_top">
<path fill="none" stroke="#63b8ff" d="M167,-54.75C167,-46.41 167,-33.74 167,-24.09"/>
<polygon fill="#63b8ff" stroke="#63b8ff" points="167,-19.09 169.25,-24.09 167,-21.59 167,-24.09 167,-24.09 167,-24.09 167,-21.59 164.75,-24.09 167,-19.09 167,-19.09"/>
</a>
</g>
<g id="a_edge3&#45;headlabel"><a xlink:href="dir_000027_000020.html" target="_top" xlink:title="5">
<text text-anchor="middle" x="173.34" y="-30.18" font-family="Helvetica,sans-Serif" font-size="10.00" fill="#63b8ff">5</text>
</a>
</g>
</g>
<!-- dir_bdd9a5d540de89e9fe90efdfc6973a4f -->
<g id="node5" class="node">
<title>dir_bdd9a5d540de89e9fe90efdfc6973a4f</title>
<g id="a_node5"><a xlink:href="dir_bdd9a5d540de89e9fe90efdfc6973a4f.html" target="_top" xlink:title="common">
<polygon fill="#efefef" stroke="red" points="275.5,-19 216.5,-19 216.5,0 275.5,0 275.5,-19"/>
<text text-anchor="middle" x="246" y="-7" font-family="Helvetica,sans-Serif" font-size="10.00">common</text>
</a>
</g>
</g>
<!-- dir_e32f56b0edef7585ebe7e90f39057682&#45;&gt;dir_bdd9a5d540de89e9fe90efdfc6973a4f -->
<g id="edge4" class="edge">
<title>dir_e32f56b0edef7585ebe7e90f39057682&#45;&gt;dir_bdd9a5d540de89e9fe90efdfc6973a4f</title>
<g id="a_edge4"><a xlink:href="dir_000027_000019.html" target="_top">
<path fill="none" stroke="#63b8ff" d="M179.69,-54.98C192.97,-46.07 213.91,-32.03 228.7,-22.11"/>
<polygon fill="#63b8ff" stroke="#63b8ff" points="233.08,-19.17 230.18,-23.82 231,-20.56 228.92,-21.96 228.92,-21.96 228.92,-21.96 231,-20.56 227.67,-20.09 233.08,-19.17 233.08,-19.17"/>
</a>
</g>
<g id="a_edge4&#45;headlabel"><a xlink:href="dir_000027_000019.html" target="_top" xlink:title="3">
<text text-anchor="middle" x="225.32" y="-29.51" font-family="Helvetica,sans-Serif" font-size="10.00" fill="#63b8ff">3</text>
</a>
</g>
</g>
<!-- dir_cd36a3f9f9d202308a2deae5eeddfa6f -->
<g id="node6" class="node">
<title>dir_cd36a3f9f9d202308a2deae5eeddfa6f</title>
<g id="a_node6"><a xlink:href="dir_cd36a3f9f9d202308a2deae5eeddfa6f.html" target="_top" xlink:title="interface">
<polygon fill="#efefef" stroke="red" stroke-dasharray="5,2" points="354,-19 294,-19 294,0 354,0 354,-19"/>
<text text-anchor="middle" x="324" y="-7" font-family="Helvetica,sans-Serif" font-size="10.00">interface</text>
</a>
</g>
</g>
<!-- dir_e32f56b0edef7585ebe7e90f39057682&#45;&gt;dir_cd36a3f9f9d202308a2deae5eeddfa6f -->
<g id="edge5" class="edge">
<title>dir_e32f56b0edef7585ebe7e90f39057682&#45;&gt;dir_cd36a3f9f9d202308a2deae5eeddfa6f</title>
<g id="a_edge5"><a xlink:href="dir_000027_000036.html" target="_top">
<path fill="none" stroke="#63b8ff" d="M192.22,-54.98C219.84,-45.66 264.11,-30.72 293.61,-20.76"/>
<polygon fill="#63b8ff" stroke="#63b8ff" points="298.58,-19.08 294.56,-22.81 296.21,-19.88 293.84,-20.68 293.84,-20.68 293.84,-20.68 296.21,-19.88 293.12,-18.55 298.58,-19.08 298.58,-19.08"/>
</a>
</g>
<g id="a_edge5&#45;headlabel"><a xlink:href="dir_000027_000036.html" target="_top" xlink:title="1">
<text text-anchor="middle" x="287.72" y="-26.94" font-family="Helvetica,sans-Serif" font-size="10.00" fill="#63b8ff">1</text>
</a>
</g>
</g>
</g>
</svg>
</svg>

<style type='text/css'>
<![CDATA[
[data-mouse-over-selected='false'] { opacity: 0.7; }
[data-mouse-over-selected='true']  { opacity: 1.0; }
]]>
</style>
<script type="application/ecmascript"><![CDATA[
document.addEventListener('DOMContentLoaded', (event) => {
  highlightEdges();
  highlightAdjacentNodes();
});
]]></script>
</svg>
