<?xml version="1.0" encoding="UTF-8" standalone="no"?>
<!DOCTYPE svg PUBLIC "-//W3C//DTD SVG 1.1//EN"
 "http://www.w3.org/Graphics/SVG/1.1/DTD/svg11.dtd">
<!-- Generated by graphviz version 2.43.0 (0)
 -->
<!-- Title: tests/card_zone_algorithms Pages: 1 -->
<svg width="164pt" height="117pt"
 viewBox="0.00 0.00 164.00 117.00" xmlns="http://www.w3.org/2000/svg" xmlns:xlink="http://www.w3.org/1999/xlink">
<g id="graph0" class="graph" transform="scale(1 1) rotate(0) translate(4 113)">
<title>tests/card_zone_algorithms</title>
<g id="clust1" class="cluster">
<title>clusterdir_59425e443f801f1f2fd8bbe4959a3ccf</title>
<g id="a_clust1"><a xlink:href="dir_59425e443f801f1f2fd8bbe4959a3ccf.html" target="_top" xlink:title="tests">
<polygon fill="#efefef" stroke="#404040" stroke-dasharray="5,2" points="8,-47 8,-101 148,-101 148,-47 8,-47"/>
<text text-anchor="middle" x="78" y="-89" font-family="Helvetica,sans-Serif" font-size="10.00">tests</text>
</a>
</g>
</g>
<!-- dir_8f4b2aea3386f9b38fbc7d7881941e11 -->
<g id="node1" class="node">
<title>dir_8f4b2aea3386f9b38fbc7d7881941e11</title>
<g id="a_node1"><a xlink:href="dir_8f4b2aea3386f9b38fbc7d7881941e11.html" target="_top" xlink:title="card_zone_algorithms">
<polygon fill="#efefef" stroke="#404040" stroke-width="2" points="140,-74 16,-74 16,-55 140,-55 140,-74"/>
<text text-anchor="middle" x="78" y="-62" font-family="Helvetica,sans-Serif" font-size="10.00">card_zone_algorithms</text>
</a>
</g>
</g>
<!-- dir_0ea6b47e44f664ed3d7c8e93afc73dac -->
<g id="node2" class="node">
<title>dir_0ea6b47e44f664ed3d7c8e93afc73dac</title>
<g id="a_node2"><a xlink:href="dir_0ea6b47e44f664ed3d7c8e93afc73dac.html" target="_top" xlink:title="cockatrice">
<polygon fill="#efefef" stroke="red" points="111,-19 45,-19 45,0 111,0 111,-19"/>
<text text-anchor="middle" x="78" y="-7" font-family="Helvetica,sans-Serif" font-size="10.00">cockatrice</text>
</a>
</g>
</g>
<!-- dir_8f4b2aea3386f9b38fbc7d7881941e11&#45;&gt;dir_0ea6b47e44f664ed3d7c8e93afc73dac -->
<g id="edge1" class="edge">
<title>dir_8f4b2aea3386f9b38fbc7d7881941e11&#45;&gt;dir_0ea6b47e44f664ed3d7c8e93afc73dac</title>
<g id="a_edge1"><a xlink:href="dir_000021_000031.html" target="_top">
<path fill="none" stroke="#63b8ff" d="M78,-54.75C78,-46.41 78,-33.74 78,-24.09"/>
<polygon fill="#63b8ff" stroke="#63b8ff" points="78,-19.09 80.25,-24.09 78,-21.59 78,-24.09 78,-24.09 78,-24.09 78,-21.59 75.75,-24.09 78,-19.09 78,-19.09"/>
</a>
</g>
<g id="a_edge1&#45;headlabel"><a xlink:href="dir_000021_000031.html" target="_top" xlink:title="1">
<text text-anchor="middle" x="84.34" y="-30.18" font-family="Helvetica,sans-Serif" font-size="10.00" fill="#63b8ff">1</text>
</a>
</g>
</g>
</g>
</svg>
