<?xml version="1.0" encoding="UTF-8" standalone="no"?>
<!DOCTYPE svg PUBLIC "-//W3C//DTD SVG 1.1//EN"
 "http://www.w3.org/Graphics/SVG/1.1/DTD/svg11.dtd">
<!-- Generated by graphviz version 2.43.0 (0)
 -->
<!-- Title: cockatrice/src/interface/widgets/deck_editor Pages: 1 -->
<svg width="562pt" height="133pt"
 viewBox="0.00 0.00 562.00 133.00" xmlns="http://www.w3.org/2000/svg" xmlns:xlink="http://www.w3.org/1999/xlink">
<g id="graph0" class="graph" transform="scale(1 1) rotate(0) translate(4 129)">
<title>cockatrice/src/interface/widgets/deck_editor</title>
<g id="clust1" class="cluster">
<title>clusterdir_ff904cee2da7fc4774f8298cfe1e7610</title>
<g id="a_clust1"><a xlink:href="dir_ff904cee2da7fc4774f8298cfe1e7610.html" target="_top" xlink:title="widgets">
<polygon fill="#efefef" stroke="#7f7f7f" stroke-dasharray="5,2" points="8,-8 8,-117 438,-117 438,-8 8,-8"/>
<text text-anchor="middle" x="223" y="-105" font-family="Helvetica,sans-Serif" font-size="10.00">widgets</text>
</a>
</g>
</g>
<!-- dir_827f07a19842004c86163e496911e4bc -->
<g id="node1" class="node">
<title>dir_827f07a19842004c86163e496911e4bc</title>
<g id="a_node1"><a xlink:href="dir_827f07a19842004c86163e496911e4bc.html" target="_top" xlink:title="utility">
<polygon fill="#afafaf" stroke="#404040" points="61.5,-35 16.5,-35 16.5,-16 61.5,-16 61.5,-35"/>
<text text-anchor="middle" x="39" y="-23" font-family="Helvetica,sans-Serif" font-size="10.00">utility</text>
</a>
</g>
</g>
<!-- dir_997302a10e9962ab00e284769d488188 -->
<g id="node2" class="node">
<title>dir_997302a10e9962ab00e284769d488188</title>
<g id="a_node2"><a xlink:href="dir_997302a10e9962ab00e284769d488188.html" target="_top" xlink:title="tabs">
<polygon fill="#afafaf" stroke="red" points="118,-35 80,-35 80,-16 118,-16 118,-35"/>
<text text-anchor="middle" x="99" y="-23" font-family="Helvetica,sans-Serif" font-size="10.00">tabs</text>
</a>
</g>
</g>
<!-- dir_bbe1b97583a2f9f8192fbaa45c1632bc -->
<g id="node3" class="node">
<title>dir_bbe1b97583a2f9f8192fbaa45c1632bc</title>
<g id="a_node3"><a xlink:href="dir_bbe1b97583a2f9f8192fbaa45c1632bc.html" target="_top" xlink:title="printing_selector">
<polygon fill="#afafaf" stroke="#404040" points="234,-35 136,-35 136,-16 234,-16 234,-35"/>
<text text-anchor="middle" x="185" y="-23" font-family="Helvetica,sans-Serif" font-size="10.00">printing_selector</text>
</a>
</g>
</g>
<!-- dir_cb8e08b98c526ef28decbb3027ba2769 -->
<g id="node4" class="node">
<title>dir_cb8e08b98c526ef28decbb3027ba2769</title>
<g id="a_node4"><a xlink:href="dir_cb8e08b98c526ef28decbb3027ba2769.html" target="_top" xlink:title="cards">
<polygon fill="#afafaf" stroke="red" points="295.5,-35 252.5,-35 252.5,-16 295.5,-16 295.5,-35"/>
<text text-anchor="middle" x="274" y="-23" font-family="Helvetica,sans-Serif" font-size="10.00">cards</text>
</a>
</g>
</g>
<!-- dir_f28d132033c7495c6cbff0495ea1635e -->
<g id="node5" class="node">
<title>dir_f28d132033c7495c6cbff0495ea1635e</title>
<g id="a_node5"><a xlink:href="dir_f28d132033c7495c6cbff0495ea1635e.html" target="_top" xlink:title="visual_deck_storage">
<polygon fill="#afafaf" stroke="red" points="430,-35 314,-35 314,-16 430,-16 430,-35"/>
<text text-anchor="middle" x="372" y="-23" font-family="Helvetica,sans-Serif" font-size="10.00">visual_deck_storage</text>
</a>
</g>
</g>
<!-- dir_92d403742a3e0828f8dabf9c7c1d5f4c -->
<g id="node6" class="node">
<title>dir_92d403742a3e0828f8dabf9c7c1d5f4c</title>
<g id="a_node6"><a xlink:href="dir_92d403742a3e0828f8dabf9c7c1d5f4c.html" target="_top" xlink:title="deck_editor">
<polygon fill="#efefef" stroke="#404040" stroke-width="2" points="311,-90 237,-90 237,-71 311,-71 311,-90"/>
<text text-anchor="middle" x="274" y="-78" font-family="Helvetica,sans-Serif" font-size="10.00">deck_editor</text>
</a>
</g>
</g>
<!-- dir_92d403742a3e0828f8dabf9c7c1d5f4c&#45;&gt;dir_827f07a19842004c86163e496911e4bc -->
<g id="edge3" class="edge">
<title>dir_92d403742a3e0828f8dabf9c7c1d5f4c&#45;&gt;dir_827f07a19842004c86163e496911e4bc</title>
<g id="a_edge3"><a xlink:href="dir_000022_000065.html" target="_top">
<path fill="none" stroke="#63b8ff" d="M236.85,-71.87C196.05,-63.37 128.68,-48.98 71,-35 69.59,-34.66 68.14,-34.3 66.68,-33.93"/>
<polygon fill="#63b8ff" stroke="#63b8ff" points="61.69,-32.66 67.1,-31.72 64.12,-33.28 66.54,-33.9 66.54,-33.9 66.54,-33.9 64.12,-33.28 65.98,-36.08 61.69,-32.66 61.69,-32.66"/>
</a>
</g>
<g id="a_edge3&#45;headlabel"><a xlink:href="dir_000022_000065.html" target="_top" xlink:title="2">
<text text-anchor="middle" x="76.43" y="-27.38" font-family="Helvetica,sans-Serif" font-size="10.00" fill="#63b8ff">2</text>
</a>
</g>
</g>
<!-- dir_92d403742a3e0828f8dabf9c7c1d5f4c&#45;&gt;dir_997302a10e9962ab00e284769d488188 -->
<g id="edge4" class="edge">
<title>dir_92d403742a3e0828f8dabf9c7c1d5f4c&#45;&gt;dir_997302a10e9962ab00e284769d488188</title>
<g id="a_edge4"><a xlink:href="dir_000022_000056.html" target="_top">
<path fill="none" stroke="#63b8ff" d="M245.82,-70.98C216.22,-62.02 168.34,-47.53 127,-35 125.77,-34.63 124.5,-34.24 123.23,-33.86"/>
<polygon fill="#63b8ff" stroke="#63b8ff" points="118.28,-32.35 123.72,-31.65 120.67,-33.08 123.06,-33.81 123.06,-33.81 123.06,-33.81 120.67,-33.08 122.41,-35.96 118.28,-32.35 118.28,-32.35"/>
</a>
</g>
<g id="a_edge4&#45;headlabel"><a xlink:href="dir_000022_000056.html" target="_top" xlink:title="8">
<text text-anchor="middle" x="133.13" y="-27.74" font-family="Helvetica,sans-Serif" font-size="10.00" fill="#63b8ff">8</text>
</a>
</g>
</g>
<!-- dir_92d403742a3e0828f8dabf9c7c1d5f4c&#45;&gt;dir_bbe1b97583a2f9f8192fbaa45c1632bc -->
<g id="edge5" class="edge">
<title>dir_92d403742a3e0828f8dabf9c7c1d5f4c&#45;&gt;dir_bbe1b97583a2f9f8192fbaa45c1632bc</title>
<g id="a_edge5"><a xlink:href="dir_000022_000048.html" target="_top">
<path fill="none" stroke="#63b8ff" d="M259.7,-70.98C244.61,-62 220.74,-47.79 204.06,-37.85"/>
<polygon fill="#63b8ff" stroke="#63b8ff" points="199.56,-35.17 205.01,-35.8 201.71,-36.45 203.86,-37.73 203.86,-37.73 203.86,-37.73 201.71,-36.45 202.7,-39.66 199.56,-35.17 199.56,-35.17"/>
</a>
</g>
<g id="a_edge5&#45;headlabel"><a xlink:href="dir_000022_000048.html" target="_top" xlink:title="1">
<text text-anchor="middle" x="214.48" y="-34.18" font-family="Helvetica,sans-Serif" font-size="10.00" fill="#63b8ff">1</text>
</a>
</g>
</g>
<!-- dir_92d403742a3e0828f8dabf9c7c1d5f4c&#45;&gt;dir_cb8e08b98c526ef28decbb3027ba2769 -->
<g id="edge6" class="edge">
<title>dir_92d403742a3e0828f8dabf9c7c1d5f4c&#45;&gt;dir_cb8e08b98c526ef28decbb3027ba2769</title>
<g id="a_edge6"><a xlink:href="dir_000022_000011.html" target="_top">
<path fill="none" stroke="#63b8ff" d="M274,-70.75C274,-62.41 274,-49.74 274,-40.09"/>
<polygon fill="#63b8ff" stroke="#63b8ff" points="274,-35.09 276.25,-40.09 274,-37.59 274,-40.09 274,-40.09 274,-40.09 274,-37.59 271.75,-40.09 274,-35.09 274,-35.09"/>
</a>
</g>
<g id="a_edge6&#45;headlabel"><a xlink:href="dir_000022_000011.html" target="_top" xlink:title="2">
<text text-anchor="middle" x="280.34" y="-46.18" font-family="Helvetica,sans-Serif" font-size="10.00" fill="#63b8ff">2</text>
</a>
</g>
</g>
<!-- dir_92d403742a3e0828f8dabf9c7c1d5f4c&#45;&gt;dir_f28d132033c7495c6cbff0495ea1635e -->
<g id="edge7" class="edge">
<title>dir_92d403742a3e0828f8dabf9c7c1d5f4c&#45;&gt;dir_f28d132033c7495c6cbff0495ea1635e</title>
<g id="a_edge7"><a xlink:href="dir_000022_000070.html" target="_top">
<path fill="none" stroke="#63b8ff" d="M289.75,-70.98C306.5,-61.92 333.09,-47.54 351.48,-37.6"/>
<polygon fill="#63b8ff" stroke="#63b8ff" points="355.97,-35.17 352.64,-39.53 353.77,-36.36 351.57,-37.55 351.57,-37.55 351.57,-37.55 353.77,-36.36 350.5,-35.57 355.97,-35.17 355.97,-35.17"/>
</a>
</g>
<g id="a_edge7&#45;headlabel"><a xlink:href="dir_000022_000070.html" target="_top" xlink:title="1">
<text text-anchor="middle" x="347.03" y="-44.71" font-family="Helvetica,sans-Serif" font-size="10.00" fill="#63b8ff">1</text>
</a>
</g>
</g>
<!-- dir_13c4bd8f55a3c016402cc9039922b9a0 -->
<g id="node7" class="node">
<title>dir_13c4bd8f55a3c016402cc9039922b9a0</title>
<g id="a_node7"><a xlink:href="dir_13c4bd8f55a3c016402cc9039922b9a0.html" target="_top" xlink:title="filters">
<polygon fill="#efefef" stroke="#7f7f7f" points="492,-35 448,-35 448,-16 492,-16 492,-35"/>
<text text-anchor="middle" x="470" y="-23" font-family="Helvetica,sans-Serif" font-size="10.00">filters</text>
</a>
</g>
</g>
<!-- dir_92d403742a3e0828f8dabf9c7c1d5f4c&#45;&gt;dir_13c4bd8f55a3c016402cc9039922b9a0 -->
<g id="edge1" class="edge">
<title>dir_92d403742a3e0828f8dabf9c7c1d5f4c&#45;&gt;dir_13c4bd8f55a3c016402cc9039922b9a0</title>
<g id="a_edge1"><a xlink:href="dir_000022_000032.html" target="_top">
<path fill="none" stroke="#63b8ff" d="M307.57,-70.99C341.55,-62.28 395.56,-48.19 442,-35 442.23,-34.93 442.47,-34.87 442.7,-34.8"/>
<polygon fill="#63b8ff" stroke="#63b8ff" points="447.71,-33.35 443.53,-36.9 445.31,-34.04 442.91,-34.74 442.91,-34.74 442.91,-34.74 445.31,-34.04 442.28,-32.58 447.71,-33.35 447.71,-33.35"/>
</a>
</g>
<g id="a_edge1&#45;headlabel"><a xlink:href="dir_000022_000032.html" target="_top" xlink:title="3">
<text text-anchor="middle" x="436.42" y="-40.73" font-family="Helvetica,sans-Serif" font-size="10.00" fill="#63b8ff">3</text>
</a>
</g>
</g>
<!-- dir_2aed47bd6a83d703a8daf87b1a4cab56 -->
<g id="node8" class="node">
<title>dir_2aed47bd6a83d703a8daf87b1a4cab56</title>
<g id="a_node8"><a xlink:href="dir_2aed47bd6a83d703a8daf87b1a4cab56.html" target="_top" xlink:title="client">
<polygon fill="#efefef" stroke="red" stroke-dasharray="5,2" points="554,-35 510,-35 510,-16 554,-16 554,-35"/>
<text text-anchor="middle" x="532" y="-23" font-family="Helvetica,sans-Serif" font-size="10.00">client</text>
</a>
</g>
</g>
<!-- dir_92d403742a3e0828f8dabf9c7c1d5f4c&#45;&gt;dir_2aed47bd6a83d703a8daf87b1a4cab56 -->
<g id="edge2" class="edge">
<title>dir_92d403742a3e0828f8dabf9c7c1d5f4c&#45;&gt;dir_2aed47bd6a83d703a8daf87b1a4cab56</title>
<g id="a_edge2"><a xlink:href="dir_000022_000015.html" target="_top">
<path fill="none" stroke="#63b8ff" d="M311.14,-73.09C356.24,-65.11 434.54,-50.6 501,-35 502.24,-34.71 503.5,-34.4 504.77,-34.09"/>
<polygon fill="#63b8ff" stroke="#63b8ff" points="509.7,-32.83 505.41,-36.25 507.28,-33.45 504.86,-34.07 504.86,-34.07 504.86,-34.07 507.28,-33.45 504.3,-31.89 509.7,-32.83 509.7,-32.83"/>
</a>
</g>
<g id="a_edge2&#45;headlabel"><a xlink:href="dir_000022_000015.html" target="_top" xlink:title="3">
<text text-anchor="middle" x="498.1" y="-39.84" font-family="Helvetica,sans-Serif" font-size="10.00" fill="#63b8ff">3</text>
</a>
</g>
</g>
</g>
</svg>
