<?xml version="1.0" encoding="UTF-8" standalone="no"?>
<!DOCTYPE svg PUBLIC "-//W3C//DTD SVG 1.1//EN"
 "http://www.w3.org/Graphics/SVG/1.1/DTD/svg11.dtd">
<!-- Generated by graphviz version 2.43.0 (0)
 -->
<!-- Title: libcockatrice_deck_list/libcockatrice/deck_list Pages: 1 -->
<svg width="135pt" height="180pt"
 viewBox="0.00 0.00 135.00 180.00" xmlns="http://www.w3.org/2000/svg" xmlns:xlink="http://www.w3.org/1999/xlink">

<svg id="main" version="1.1" xmlns="http://www.w3.org/2000/svg" xmlns:xlink="http://www.w3.org/1999/xlink" xml:space="preserve">

<style type="text/css"><![CDATA[
.node, .edge {opacity: 0.7;}
.node.selected, .edge.selected {opacity: 1;}
.edge:hover path { stroke: red; }
.edge:hover polygon { stroke: red; fill: red; }
]]></style>
<script type="application/ecmascript" xlink:href="svg.min.js"/>
<svg id="graph" class="graph">
<g id="graph0" class="graph" transform="scale(1 1) rotate(0) translate(4 176)">
<title>libcockatrice_deck_list/libcockatrice/deck_list</title>
<g id="clust1" class="cluster">
<title>clusterdir_420363ed33ab7774a360b69384ce23df</title>
<g id="a_clust1"><a xlink:href="dir_420363ed33ab7774a360b69384ce23df.html" target="_top" xlink:title="libcockatrice">
<polygon fill="#efefef" stroke="#7f7f7f" stroke-dasharray="5,2" points="8,-39 8,-164 100,-164 100,-39 8,-39"/>
<text text-anchor="middle" x="54" y="-152" font-family="Helvetica,sans-Serif" font-size="10.00">libcockatrice</text>
</a>
</g>
</g>
<g id="clust2" class="cluster">
<title>clusterdir_ff2017d8d6c53a419513535e9358adeb</title>
<g id="a_clust2"><a xlink:href="dir_ff2017d8d6c53a419513535e9358adeb.html" target="_top">
<polygon fill="#efefef" stroke="#404040" stroke-width="2" points="16,-47 16,-137 92,-137 92,-47 16,-47"/>
</a>
</g>
</g>
<!-- dir_ff2017d8d6c53a419513535e9358adeb -->
<g id="node1" class="node">
<title>dir_ff2017d8d6c53a419513535e9358adeb</title>
<text text-anchor="middle" x="54" y="-117" font-family="Helvetica,sans-Serif" font-size="10.00">deck_list</text>
</g>
<!-- dir_f0cee67dbd606239bf5aae4476bbe603 -->
<g id="node2" class="node">
<title>dir_f0cee67dbd606239bf5aae4476bbe603</title>
<g id="a_node2"><a xlink:href="dir_f0cee67dbd606239bf5aae4476bbe603.html" target="_top" xlink:title="tree">
<polygon fill="#afafaf" stroke="#404040" points="66,-74 30,-74 30,-55 66,-55 66,-74"/>
<text text-anchor="middle" x="48" y="-62" font-family="Helvetica,sans-Serif" font-size="10.00">tree</text>
</a>
</g>
</g>
<!-- dir_ff2017d8d6c53a419513535e9358adeb&#45;&gt;dir_f0cee67dbd606239bf5aae4476bbe603 -->
<g id="edge2" class="edge">
<title>dir_ff2017d8d6c53a419513535e9358adeb&#45;&gt;dir_f0cee67dbd606239bf5aae4476bbe603</title>
<g id="a_edge2"><a xlink:href="dir_000039_000145.html" target="_top">
<path fill="none" stroke="#63b8ff" d="M53.01,-109.75C52.07,-101.41 50.63,-88.74 49.54,-79.09"/>
<polygon fill="#63b8ff" stroke="#63b8ff" points="48.97,-74.09 51.77,-78.8 49.25,-76.57 49.53,-79.06 49.53,-79.06 49.53,-79.06 49.25,-76.57 47.3,-79.31 48.97,-74.09 48.97,-74.09"/>
</a>
</g>
<g id="a_edge2&#45;headlabel"><a xlink:href="dir_000039_000145.html" target="_top" xlink:title="7">
<text text-anchor="middle" x="56.8" y="-84.38" font-family="Helvetica,sans-Serif" font-size="10.00" fill="#63b8ff">7</text>
</a>
</g>
</g>
<!-- dir_ea8d64982b5609019074a0f83466341a -->
<g id="node3" class="node">
<title>dir_ea8d64982b5609019074a0f83466341a</title>
<g id="a_node3"><a xlink:href="dir_ea8d64982b5609019074a0f83466341a.html" target="_top" xlink:title="libcockatrice_utility">
<polygon fill="#efefef" stroke="red" points="127,-19 15,-19 15,0 127,0 127,-19"/>
<text text-anchor="middle" x="71" y="-7" font-family="Helvetica,sans-Serif" font-size="10.00">libcockatrice_utility</text>
</a>
</g>
</g>
<!-- dir_ff2017d8d6c53a419513535e9358adeb&#45;&gt;dir_ea8d64982b5609019074a0f83466341a -->
<g id="edge1" class="edge">
<title>dir_ff2017d8d6c53a419513535e9358adeb&#45;&gt;dir_ea8d64982b5609019074a0f83466341a</title>
<g id="a_edge1"><a xlink:href="dir_000039_000091.html" target="_top">
<path fill="none" stroke="#63b8ff" d="M59.58,-109.72C64.74,-101.03 72.05,-87.17 75,-74 78.76,-57.21 76.47,-37.35 74.09,-24.36"/>
<polygon fill="#63b8ff" stroke="#63b8ff" points="73.09,-19.25 76.26,-23.72 73.57,-21.7 74.05,-24.16 74.05,-24.16 74.05,-24.16 73.57,-21.7 71.84,-24.59 73.09,-19.25 73.09,-19.25"/>
</a>
</g>
<g id="a_edge1&#45;headlabel"><a xlink:href="dir_000039_000091.html" target="_top" xlink:title="3">
<text text-anchor="middle" x="81.93" y="-28.87" font-family="Helvetica,sans-Serif" font-size="10.00" fill="#63b8ff">3</text>
</a>
</g>
</g>
<!-- dir_f0cee67dbd606239bf5aae4476bbe603&#45;&gt;dir_ea8d64982b5609019074a0f83466341a -->
<g id="edge3" class="edge">
<title>dir_f0cee67dbd606239bf5aae4476bbe603&#45;&gt;dir_ea8d64982b5609019074a0f83466341a</title>
<g id="a_edge3"><a xlink:href="dir_000145_000091.html" target="_top">
<path fill="none" stroke="#63b8ff" d="M51.8,-54.75C55.45,-46.34 61.02,-33.51 65.22,-23.83"/>
<polygon fill="#63b8ff" stroke="#63b8ff" points="67.27,-19.09 67.35,-24.57 66.28,-21.38 65.28,-23.68 65.28,-23.68 65.28,-23.68 66.28,-21.38 63.22,-22.78 67.27,-19.09 67.27,-19.09"/>
</a>
</g>
<g id="a_edge3&#45;headlabel"><a xlink:href="dir_000145_000091.html" target="_top" xlink:title="1">
<text text-anchor="middle" x="67.68" y="-31.58" font-family="Helvetica,sans-Serif" font-size="10.00" fill="#63b8ff">1</text>
</a>
</g>
</g>
</g>
</svg>
</svg>

<style type='text/css'>
<![CDATA[
[data-mouse-over-selected='false'] { opacity: 0.7; }
[data-mouse-over-selected='true']  { opacity: 1.0; }
]]>
</style>
<script type="application/ecmascript"><![CDATA[
document.addEventListener('DOMContentLoaded', (event) => {
  highlightEdges();
  highlightAdjacentNodes();
});
]]></script>
</svg>
