<?xml version="1.0" encoding="UTF-8" standalone="no"?>
<!DOCTYPE svg PUBLIC "-//W3C//DTD SVG 1.1//EN"
 "http://www.w3.org/Graphics/SVG/1.1/DTD/svg11.dtd">
<!-- Generated by graphviz version 2.43.0 (0)
 -->
<!-- Title: cockatrice/src/game/player/menu Pages: 1 -->
<svg width="762pt" height="117pt"
 viewBox="0.00 0.00 762.00 117.00" xmlns="http://www.w3.org/2000/svg" xmlns:xlink="http://www.w3.org/1999/xlink">
<g id="graph0" class="graph" transform="scale(1 1) rotate(0) translate(4 113)">
<title>cockatrice/src/game/player/menu</title>
<g id="clust1" class="cluster">
<title>clusterdir_507bd8faf3ea67254e4d7052f7e428a4</title>
<g id="a_clust1"><a xlink:href="dir_507bd8faf3ea67254e4d7052f7e428a4.html" target="_top" xlink:title="player">
<polygon fill="#efefef" stroke="#7f7f7f" stroke-dasharray="5,2" points="355,-47 355,-101 415,-101 415,-47 355,-47"/>
<text text-anchor="middle" x="385" y="-89" font-family="Helvetica,sans-Serif" font-size="10.00">player</text>
</a>
</g>
</g>
<!-- dir_85087b01671e13bfab1087d39133ec22 -->
<g id="node1" class="node">
<title>dir_85087b01671e13bfab1087d39133ec22</title>
<g id="a_node1"><a xlink:href="dir_85087b01671e13bfab1087d39133ec22.html" target="_top" xlink:title="menu">
<polygon fill="#efefef" stroke="#404040" stroke-width="2" points="407,-74 363,-74 363,-55 407,-55 407,-74"/>
<text text-anchor="middle" x="385" y="-62" font-family="Helvetica,sans-Serif" font-size="10.00">menu</text>
</a>
</g>
</g>
<!-- dir_2aed47bd6a83d703a8daf87b1a4cab56 -->
<g id="node2" class="node">
<title>dir_2aed47bd6a83d703a8daf87b1a4cab56</title>
<g id="a_node2"><a xlink:href="dir_2aed47bd6a83d703a8daf87b1a4cab56.html" target="_top" xlink:title="client">
<polygon fill="#efefef" stroke="red" stroke-dasharray="5,2" points="44,-19 0,-19 0,0 44,0 44,-19"/>
<text text-anchor="middle" x="22" y="-7" font-family="Helvetica,sans-Serif" font-size="10.00">client</text>
</a>
</g>
</g>
<!-- dir_85087b01671e13bfab1087d39133ec22&#45;&gt;dir_2aed47bd6a83d703a8daf87b1a4cab56 -->
<g id="edge1" class="edge">
<title>dir_85087b01671e13bfab1087d39133ec22&#45;&gt;dir_2aed47bd6a83d703a8daf87b1a4cab56</title>
<g id="a_edge1"><a xlink:href="dir_000104_000028.html" target="_top">
<path fill="none" stroke="#63b8ff" d="M362.68,-61.55C308.97,-56.64 168.41,-42.45 53,-19 51.76,-18.75 50.49,-18.47 49.21,-18.18"/>
<polygon fill="#63b8ff" stroke="#63b8ff" points="44.26,-16.99 49.65,-15.97 46.7,-17.58 49.13,-18.16 49.13,-18.16 49.13,-18.16 46.7,-17.58 48.6,-20.35 44.26,-16.99 44.26,-16.99"/>
</a>
</g>
<g id="a_edge1&#45;headlabel"><a xlink:href="dir_000104_000028.html" target="_top" xlink:title="6">
<text text-anchor="middle" x="58.97" y="-11.51" font-family="Helvetica,sans-Serif" font-size="10.00" fill="#63b8ff">6</text>
</a>
</g>
</g>
<!-- dir_3af81e411179dbd2803f927cb496940d -->
<g id="node3" class="node">
<title>dir_3af81e411179dbd2803f927cb496940d</title>
<g id="a_node3"><a xlink:href="dir_3af81e411179dbd2803f927cb496940d.html" target="_top" xlink:title="libcockatrice_deck_list">
<polygon fill="#efefef" stroke="red" points="189.5,-19 62.5,-19 62.5,0 189.5,0 189.5,-19"/>
<text text-anchor="middle" x="126" y="-7" font-family="Helvetica,sans-Serif" font-size="10.00">libcockatrice_deck_list</text>
</a>
</g>
</g>
<!-- dir_85087b01671e13bfab1087d39133ec22&#45;&gt;dir_3af81e411179dbd2803f927cb496940d -->
<g id="edge2" class="edge">
<title>dir_85087b01671e13bfab1087d39133ec22&#45;&gt;dir_3af81e411179dbd2803f927cb496940d</title>
<g id="a_edge2"><a xlink:href="dir_000104_000086.html" target="_top">
<path fill="none" stroke="#63b8ff" d="M362.92,-58.98C321,-50.4 229.07,-31.59 172.85,-20.09"/>
<polygon fill="#63b8ff" stroke="#63b8ff" points="167.86,-19.07 173.21,-17.86 170.31,-19.57 172.76,-20.07 172.76,-20.07 172.76,-20.07 170.31,-19.57 172.31,-22.27 167.86,-19.07 167.86,-19.07"/>
</a>
</g>
<g id="a_edge2&#45;headlabel"><a xlink:href="dir_000104_000086.html" target="_top" xlink:title="2">
<text text-anchor="middle" x="182.45" y="-13.08" font-family="Helvetica,sans-Serif" font-size="10.00" fill="#63b8ff">2</text>
</a>
</g>
</g>
<!-- dir_4db5280bbb861c4570d5072585939b1b -->
<g id="node4" class="node">
<title>dir_4db5280bbb861c4570d5072585939b1b</title>
<g id="a_node4"><a xlink:href="dir_4db5280bbb861c4570d5072585939b1b.html" target="_top" xlink:title="game_graphics">
<polygon fill="#efefef" stroke="red" stroke-dasharray="5,2" points="298.5,-19 207.5,-19 207.5,0 298.5,0 298.5,-19"/>
<text text-anchor="middle" x="253" y="-7" font-family="Helvetica,sans-Serif" font-size="10.00">game_graphics</text>
</a>
</g>
</g>
<!-- dir_85087b01671e13bfab1087d39133ec22&#45;&gt;dir_4db5280bbb861c4570d5072585939b1b -->
<g id="edge3" class="edge">
<title>dir_85087b01671e13bfab1087d39133ec22&#45;&gt;dir_4db5280bbb861c4570d5072585939b1b</title>
<g id="a_edge3"><a xlink:href="dir_000104_000064.html" target="_top">
<path fill="none" stroke="#63b8ff" d="M363.79,-54.98C340.84,-45.77 304.19,-31.05 279.39,-21.1"/>
<polygon fill="#63b8ff" stroke="#63b8ff" points="274.59,-19.17 280.07,-18.95 276.91,-20.1 279.23,-21.03 279.23,-21.03 279.23,-21.03 276.91,-20.1 278.4,-23.12 274.59,-19.17 274.59,-19.17"/>
</a>
</g>
<g id="a_edge3&#45;headlabel"><a xlink:href="dir_000104_000064.html" target="_top" xlink:title="4">
<text text-anchor="middle" x="289.57" y="-15.85" font-family="Helvetica,sans-Serif" font-size="10.00" fill="#63b8ff">4</text>
</a>
</g>
</g>
<!-- dir_8f04e89bf047ba4e7a3267da4b339b83 -->
<g id="node5" class="node">
<title>dir_8f04e89bf047ba4e7a3267da4b339b83</title>
<g id="a_node5"><a xlink:href="dir_8f04e89bf047ba4e7a3267da4b339b83.html" target="_top" xlink:title="zones">
<polygon fill="#efefef" stroke="#7f7f7f" points="361.5,-19 316.5,-19 316.5,0 361.5,0 361.5,-19"/>
<text text-anchor="middle" x="339" y="-7" font-family="Helvetica,sans-Serif" font-size="10.00">zones</text>
</a>
</g>
</g>
<!-- dir_85087b01671e13bfab1087d39133ec22&#45;&gt;dir_8f04e89bf047ba4e7a3267da4b339b83 -->
<g id="edge4" class="edge">
<title>dir_85087b01671e13bfab1087d39133ec22&#45;&gt;dir_8f04e89bf047ba4e7a3267da4b339b83</title>
<g id="a_edge4"><a xlink:href="dir_000104_000165.html" target="_top">
<path fill="none" stroke="#63b8ff" d="M377.4,-54.75C369.9,-46.1 358.35,-32.8 349.88,-23.03"/>
<polygon fill="#63b8ff" stroke="#63b8ff" points="346.45,-19.09 351.43,-21.39 348.09,-20.98 349.73,-22.87 349.73,-22.87 349.73,-22.87 348.09,-20.98 348.03,-24.34 346.45,-19.09 346.45,-19.09"/>
</a>
</g>
<g id="a_edge4&#45;headlabel"><a xlink:href="dir_000104_000165.html" target="_top" xlink:title="1">
<text text-anchor="middle" x="360.15" y="-22.7" font-family="Helvetica,sans-Serif" font-size="10.00" fill="#63b8ff">1</text>
</a>
</g>
</g>
<!-- dir_a793f43f6dc6d18ba76771f9a71a4ad6 -->
<g id="node6" class="node">
<title>dir_a793f43f6dc6d18ba76771f9a71a4ad6</title>
<g id="a_node6"><a xlink:href="dir_a793f43f6dc6d18ba76771f9a71a4ad6.html" target="_top" xlink:title="libcockatrice_card">
<polygon fill="#efefef" stroke="red" points="484,-19 380,-19 380,0 484,0 484,-19"/>
<text text-anchor="middle" x="432" y="-7" font-family="Helvetica,sans-Serif" font-size="10.00">libcockatrice_card</text>
</a>
</g>
</g>
<!-- dir_85087b01671e13bfab1087d39133ec22&#45;&gt;dir_a793f43f6dc6d18ba76771f9a71a4ad6 -->
<g id="edge5" class="edge">
<title>dir_85087b01671e13bfab1087d39133ec22&#45;&gt;dir_a793f43f6dc6d18ba76771f9a71a4ad6</title>
<g id="a_edge5"><a xlink:href="dir_000104_000085.html" target="_top">
<path fill="none" stroke="#63b8ff" d="M392.76,-54.75C400.43,-46.1 412.23,-32.8 420.89,-23.03"/>
<polygon fill="#63b8ff" stroke="#63b8ff" points="424.38,-19.09 422.75,-24.32 422.72,-20.96 421.07,-22.83 421.07,-22.83 421.07,-22.83 422.72,-20.96 419.38,-21.34 424.38,-19.09 424.38,-19.09"/>
</a>
</g>
<g id="a_edge5&#45;headlabel"><a xlink:href="dir_000104_000085.html" target="_top" xlink:title="2">
<text text-anchor="middle" x="420.11" y="-30.97" font-family="Helvetica,sans-Serif" font-size="10.00" fill="#63b8ff">2</text>
</a>
</g>
</g>
<!-- dir_ac5cce461f0162d7264cd69fe196aa39 -->
<g id="node7" class="node">
<title>dir_ac5cce461f0162d7264cd69fe196aa39</title>
<g id="a_node7"><a xlink:href="dir_ac5cce461f0162d7264cd69fe196aa39.html" target="_top" xlink:title="board">
<polygon fill="#efefef" stroke="#7f7f7f" points="546,-19 502,-19 502,0 546,0 546,-19"/>
<text text-anchor="middle" x="524" y="-7" font-family="Helvetica,sans-Serif" font-size="10.00">board</text>
</a>
</g>
</g>
<!-- dir_85087b01671e13bfab1087d39133ec22&#45;&gt;dir_ac5cce461f0162d7264cd69fe196aa39 -->
<g id="edge6" class="edge">
<title>dir_85087b01671e13bfab1087d39133ec22&#45;&gt;dir_ac5cce461f0162d7264cd69fe196aa39</title>
<g id="a_edge6"><a xlink:href="dir_000104_000010.html" target="_top">
<path fill="none" stroke="#63b8ff" d="M407.02,-55.1C431.38,-45.81 470.64,-30.84 496.88,-20.84"/>
<polygon fill="#63b8ff" stroke="#63b8ff" points="501.62,-19.03 497.75,-22.92 499.28,-19.92 496.95,-20.82 496.95,-20.82 496.95,-20.82 499.28,-19.92 496.14,-18.71 501.62,-19.03 501.62,-19.03"/>
</a>
</g>
<g id="a_edge6&#45;headlabel"><a xlink:href="dir_000104_000010.html" target="_top" xlink:title="2">
<text text-anchor="middle" x="491.17" y="-27.3" font-family="Helvetica,sans-Serif" font-size="10.00" fill="#63b8ff">2</text>
</a>
</g>
</g>
<!-- dir_cd36a3f9f9d202308a2deae5eeddfa6f -->
<g id="node8" class="node">
<title>dir_cd36a3f9f9d202308a2deae5eeddfa6f</title>
<g id="a_node8"><a xlink:href="dir_cd36a3f9f9d202308a2deae5eeddfa6f.html" target="_top" xlink:title="interface">
<polygon fill="#efefef" stroke="red" stroke-dasharray="5,2" points="624,-19 564,-19 564,0 624,0 624,-19"/>
<text text-anchor="middle" x="594" y="-7" font-family="Helvetica,sans-Serif" font-size="10.00">interface</text>
</a>
</g>
</g>
<!-- dir_85087b01671e13bfab1087d39133ec22&#45;&gt;dir_cd36a3f9f9d202308a2deae5eeddfa6f -->
<g id="edge7" class="edge">
<title>dir_85087b01671e13bfab1087d39133ec22&#45;&gt;dir_cd36a3f9f9d202308a2deae5eeddfa6f</title>
<g id="a_edge7"><a xlink:href="dir_000104_000070.html" target="_top">
<path fill="none" stroke="#63b8ff" d="M407.37,-57.83C443.67,-48.62 515.69,-30.36 558.87,-19.41"/>
<polygon fill="#63b8ff" stroke="#63b8ff" points="563.74,-18.17 559.44,-21.58 561.31,-18.79 558.89,-19.4 558.89,-19.4 558.89,-19.4 561.31,-18.79 558.34,-17.22 563.74,-18.17 563.74,-18.17"/>
</a>
</g>
<g id="a_edge7&#45;headlabel"><a xlink:href="dir_000104_000070.html" target="_top" xlink:title="9">
<text text-anchor="middle" x="552.12" y="-25.16" font-family="Helvetica,sans-Serif" font-size="10.00" fill="#63b8ff">9</text>
</a>
</g>
</g>
<!-- dir_ea8d64982b5609019074a0f83466341a -->
<g id="node9" class="node">
<title>dir_ea8d64982b5609019074a0f83466341a</title>
<g id="a_node9"><a xlink:href="dir_ea8d64982b5609019074a0f83466341a.html" target="_top" xlink:title="libcockatrice_utility">
<polygon fill="#efefef" stroke="red" points="754,-19 642,-19 642,0 754,0 754,-19"/>
<text text-anchor="middle" x="698" y="-7" font-family="Helvetica,sans-Serif" font-size="10.00">libcockatrice_utility</text>
</a>
</g>
</g>
<!-- dir_85087b01671e13bfab1087d39133ec22&#45;&gt;dir_ea8d64982b5609019074a0f83466341a -->
<g id="edge8" class="edge">
<title>dir_85087b01671e13bfab1087d39133ec22&#45;&gt;dir_ea8d64982b5609019074a0f83466341a</title>
<g id="a_edge8"><a xlink:href="dir_000104_000094.html" target="_top">
<path fill="none" stroke="#63b8ff" d="M407.01,-59.77C455.52,-51.56 572.89,-31.69 642.85,-19.84"/>
<polygon fill="#63b8ff" stroke="#63b8ff" points="647.8,-19 643.25,-22.05 645.33,-19.42 642.87,-19.84 642.87,-19.84 642.87,-19.84 645.33,-19.42 642.49,-17.62 647.8,-19 647.8,-19"/>
</a>
</g>
<g id="a_edge8&#45;headlabel"><a xlink:href="dir_000104_000094.html" target="_top" xlink:title="4">
<text text-anchor="middle" x="635.45" y="-25.02" font-family="Helvetica,sans-Serif" font-size="10.00" fill="#63b8ff">4</text>
</a>
</g>
</g>
</g>
</svg>
