<?xml version="1.0" encoding="UTF-8" standalone="no"?>
<!DOCTYPE svg PUBLIC "-//W3C//DTD SVG 1.1//EN"
 "http://www.w3.org/Graphics/SVG/1.1/DTD/svg11.dtd">
<!-- Generated by graphviz version 2.43.0 (0)
 -->
<!-- Title: cockatrice/src/interface/widgets/tabs/api/edhrec/display/cards/edhrec_api_response_card_inclusion_display_widget.cpp Pages: 1 -->
<svg width="538pt" height="280pt"
 viewBox="0.00 0.00 537.50 280.00" xmlns="http://www.w3.org/2000/svg" xmlns:xlink="http://www.w3.org/1999/xlink">
<g id="graph0" class="graph" transform="scale(1 1) rotate(0) translate(4 276)">
<title>cockatrice/src/interface/widgets/tabs/api/edhrec/display/cards/edhrec_api_response_card_inclusion_display_widget.cpp</title>
<!-- Node1 -->
<g id="Node000001" class="node">
<title>Node1</title>
<g id="a_Node000001"><a xlink:title=" ">
<polygon fill="#999999" stroke="#666666" points="375,-272 193,-272 193,-209 375,-209 375,-272"/>
<text text-anchor="start" x="201" y="-260" font-family="Helvetica,sans-Serif" font-size="10.00">cockatrice/src/interface</text>
<text text-anchor="start" x="201" y="-249" font-family="Helvetica,sans-Serif" font-size="10.00">/widgets/tabs/api/edhrec</text>
<text text-anchor="start" x="201" y="-238" font-family="Helvetica,sans-Serif" font-size="10.00">/display/cards/edhrec_api</text>
<text text-anchor="start" x="201" y="-227" font-family="Helvetica,sans-Serif" font-size="10.00">_response_card_inclusion_display</text>
<text text-anchor="middle" x="284" y="-216" font-family="Helvetica,sans-Serif" font-size="10.00">_widget.cpp</text>
</a>
</g>
</g>
<!-- Node2 -->
<g id="Node000002" class="node">
<title>Node2</title>
<g id="a_Node000002"><a xlink:href="../../d9/d62/edhrec__api__response__card__inclusion__display__widget_8h.html" target="_top" xlink:title="TODO: Document this.">
<polygon fill="white" stroke="#666666" points="350,-173 218,-173 218,-132 350,-132 350,-173"/>
<text text-anchor="start" x="226" y="-161" font-family="Helvetica,sans-Serif" font-size="10.00">edhrec_api_response</text>
<text text-anchor="start" x="226" y="-150" font-family="Helvetica,sans-Serif" font-size="10.00">_card_inclusion_display</text>
<text text-anchor="middle" x="284" y="-139" font-family="Helvetica,sans-Serif" font-size="10.00">_widget.h</text>
</a>
</g>
</g>
<!-- Node1&#45;&gt;Node2 -->
<g id="edge1_Node000001_Node000002" class="edge">
<title>Node1&#45;&gt;Node2</title>
<g id="a_edge1_Node000001_Node000002"><a xlink:title=" ">
<path fill="none" stroke="#63b8ff" d="M284,-208.94C284,-198.92 284,-187.91 284,-178.36"/>
<polygon fill="#63b8ff" stroke="#63b8ff" points="284,-173.23 286.25,-178.23 284,-175.73 284,-178.23 284,-178.23 284,-178.23 284,-175.73 281.75,-178.23 284,-173.23 284,-173.23"/>
</a>
</g>
</g>
<!-- Node3 -->
<g id="Node000003" class="node">
<title>Node3</title>
<g id="a_Node000003"><a xlink:href="../../dd/dd8/percent__bar__widget_8h.html" target="_top" xlink:title="TODO: Document this.">
<polygon fill="white" stroke="#666666" points="152,-96 0,-96 0,-55 152,-55 152,-96"/>
<text text-anchor="start" x="8" y="-84" font-family="Helvetica,sans-Serif" font-size="10.00">../../../../../general</text>
<text text-anchor="start" x="8" y="-73" font-family="Helvetica,sans-Serif" font-size="10.00">/display/charts/bars/percent</text>
<text text-anchor="middle" x="76" y="-62" font-family="Helvetica,sans-Serif" font-size="10.00">_bar_widget.h</text>
</a>
</g>
</g>
<!-- Node2&#45;&gt;Node3 -->
<g id="edge2_Node000002_Node000003" class="edge">
<title>Node2&#45;&gt;Node3</title>
<g id="a_edge2_Node000002_Node000003"><a xlink:title=" ">
<path fill="none" stroke="#63b8ff" d="M229.89,-131.99C200.76,-121.48 164.78,-108.51 134.93,-97.75"/>
<polygon fill="#63b8ff" stroke="#63b8ff" points="130.2,-96.04 135.66,-95.62 132.55,-96.89 134.9,-97.74 134.9,-97.74 134.9,-97.74 132.55,-96.89 134.14,-99.85 130.2,-96.04 130.2,-96.04"/>
</a>
</g>
</g>
<!-- Node5 -->
<g id="Node000005" class="node">
<title>Node5</title>
<g id="a_Node000005"><a xlink:title=" ">
<polygon fill="#e0e0e0" stroke="#999999" points="195.5,-19 136.5,-19 136.5,0 195.5,0 195.5,-19"/>
<text text-anchor="middle" x="166" y="-7" font-family="Helvetica,sans-Serif" font-size="10.00">QWidget</text>
</a>
</g>
</g>
<!-- Node2&#45;&gt;Node5 -->
<g id="edge10_Node000002_Node000005" class="edge">
<title>Node2&#45;&gt;Node5</title>
<g id="a_edge10_Node000002_Node000005"><a xlink:title=" ">
<path fill="none" stroke="#63b8ff" d="M243.19,-131.88C227.66,-122.76 210.86,-110.66 199,-96 181.49,-74.37 172.5,-42.38 168.57,-24.29"/>
<polygon fill="#63b8ff" stroke="#63b8ff" points="167.5,-19.15 170.72,-23.59 168.01,-21.6 168.52,-24.04 168.52,-24.04 168.52,-24.04 168.01,-21.6 166.31,-24.5 167.5,-19.15 167.5,-19.15"/>
</a>
</g>
</g>
<!-- Node6 -->
<g id="Node000006" class="node">
<title>Node6</title>
<g id="a_Node000006"><a xlink:href="../../d6/de1/edhrec__api__response__card__details_8h.html" target="_top" xlink:title="TODO: Document this.">
<polygon fill="white" stroke="#666666" points="360,-96 208,-96 208,-55 360,-55 360,-96"/>
<text text-anchor="start" x="216" y="-84" font-family="Helvetica,sans-Serif" font-size="10.00">../../api_response</text>
<text text-anchor="start" x="216" y="-73" font-family="Helvetica,sans-Serif" font-size="10.00">/cards/edhrec_api_response</text>
<text text-anchor="middle" x="284" y="-62" font-family="Helvetica,sans-Serif" font-size="10.00">_card_details.h</text>
</a>
</g>
</g>
<!-- Node2&#45;&gt;Node6 -->
<g id="edge5_Node000002_Node000006" class="edge">
<title>Node2&#45;&gt;Node6</title>
<g id="a_edge5_Node000002_Node000006"><a xlink:title=" ">
<path fill="none" stroke="#63b8ff" d="M284,-131.79C284,-122.41 284,-111.08 284,-101.13"/>
<polygon fill="#63b8ff" stroke="#63b8ff" points="284,-96.07 286.25,-101.07 284,-98.57 284,-101.07 284,-101.07 284,-101.07 284,-98.57 281.75,-101.07 284,-96.07 284,-96.07"/>
</a>
</g>
</g>
<!-- Node9 -->
<g id="Node000009" class="node">
<title>Node9</title>
<g id="a_Node000009"><a xlink:title=" ">
<polygon fill="#e0e0e0" stroke="#999999" points="428,-85 378,-85 378,-66 428,-66 428,-85"/>
<text text-anchor="middle" x="403" y="-73" font-family="Helvetica,sans-Serif" font-size="10.00">QLabel</text>
</a>
</g>
</g>
<!-- Node2&#45;&gt;Node9 -->
<g id="edge8_Node000002_Node000009" class="edge">
<title>Node2&#45;&gt;Node9</title>
<g id="a_edge8_Node000002_Node000009"><a xlink:title=" ">
<path fill="none" stroke="#63b8ff" d="M314.96,-131.99C337.18,-117.99 366.36,-99.6 384.9,-87.91"/>
<polygon fill="#63b8ff" stroke="#63b8ff" points="389.37,-85.09 386.34,-89.66 387.26,-86.42 385.14,-87.75 385.14,-87.75 385.14,-87.75 387.26,-86.42 383.94,-85.85 389.37,-85.09 389.37,-85.09"/>
</a>
</g>
</g>
<!-- Node10 -->
<g id="Node000010" class="node">
<title>Node10</title>
<g id="a_Node000010"><a xlink:title=" ">
<polygon fill="#e0e0e0" stroke="#999999" points="529.5,-85 446.5,-85 446.5,-66 529.5,-66 529.5,-85"/>
<text text-anchor="middle" x="488" y="-73" font-family="Helvetica,sans-Serif" font-size="10.00">QVBoxLayout</text>
</a>
</g>
</g>
<!-- Node2&#45;&gt;Node10 -->
<g id="edge9_Node000002_Node000010" class="edge">
<title>Node2&#45;&gt;Node10</title>
<g id="a_edge9_Node000002_Node000010"><a xlink:title=" ">
<path fill="none" stroke="#63b8ff" d="M338.61,-131.95C367.84,-121.42 404.43,-108.13 437,-96 444.87,-93.07 453.4,-89.83 461.2,-86.85"/>
<polygon fill="#63b8ff" stroke="#63b8ff" points="465.94,-85.03 462.08,-88.92 463.61,-85.92 461.27,-86.82 461.27,-86.82 461.27,-86.82 463.61,-85.92 460.47,-84.72 465.94,-85.03 465.94,-85.03"/>
</a>
</g>
</g>
<!-- Node4 -->
<g id="Node000004" class="node">
<title>Node4</title>
<g id="a_Node000004"><a xlink:title=" ">
<polygon fill="#e0e0e0" stroke="#999999" points="105,-19 47,-19 47,0 105,0 105,-19"/>
<text text-anchor="middle" x="76" y="-7" font-family="Helvetica,sans-Serif" font-size="10.00">QPainter</text>
</a>
</g>
</g>
<!-- Node3&#45;&gt;Node4 -->
<g id="edge3_Node000003_Node000004" class="edge">
<title>Node3&#45;&gt;Node4</title>
<g id="a_edge3_Node000003_Node000004"><a xlink:title=" ">
<path fill="none" stroke="#63b8ff" d="M76,-54.95C76,-45.09 76,-33.35 76,-24.42"/>
<polygon fill="#63b8ff" stroke="#63b8ff" points="76,-19.26 78.25,-24.26 76,-21.76 76,-24.26 76,-24.26 76,-24.26 76,-21.76 73.75,-24.26 76,-19.26 76,-19.26"/>
</a>
</g>
</g>
<!-- Node3&#45;&gt;Node5 -->
<g id="edge4_Node000003_Node000005" class="edge">
<title>Node3&#45;&gt;Node5</title>
<g id="a_edge4_Node000003_Node000005"><a xlink:title=" ">
<path fill="none" stroke="#63b8ff" d="M103.49,-54.95C118.54,-44.25 136.68,-31.35 149.54,-22.21"/>
<polygon fill="#63b8ff" stroke="#63b8ff" points="153.68,-19.26 150.91,-23.99 151.64,-20.71 149.61,-22.16 149.61,-22.16 149.61,-22.16 151.64,-20.71 148.3,-20.32 153.68,-19.26 153.68,-19.26"/>
</a>
</g>
</g>
<!-- Node7 -->
<g id="Node000007" class="node">
<title>Node7</title>
<g id="a_Node000007"><a xlink:title=" ">
<polygon fill="#e0e0e0" stroke="#999999" points="306,-19 230,-19 230,0 306,0 306,-19"/>
<text text-anchor="middle" x="268" y="-7" font-family="Helvetica,sans-Serif" font-size="10.00">QJsonObject</text>
</a>
</g>
</g>
<!-- Node6&#45;&gt;Node7 -->
<g id="edge6_Node000006_Node000007" class="edge">
<title>Node6&#45;&gt;Node7</title>
<g id="a_edge6_Node000006_Node000007"><a xlink:title=" ">
<path fill="none" stroke="#63b8ff" d="M279.11,-54.95C276.62,-44.99 273.66,-33.13 271.42,-24.17"/>
<polygon fill="#63b8ff" stroke="#63b8ff" points="270.19,-19.26 273.59,-23.57 270.8,-21.69 271.4,-24.11 271.4,-24.11 271.4,-24.11 270.8,-21.69 269.22,-24.66 270.19,-19.26 270.19,-19.26"/>
</a>
</g>
</g>
<!-- Node8 -->
<g id="Node000008" class="node">
<title>Node8</title>
<g id="a_Node000008"><a xlink:title=" ">
<polygon fill="#e0e0e0" stroke="#999999" points="377.5,-19 324.5,-19 324.5,0 377.5,0 377.5,-19"/>
<text text-anchor="middle" x="351" y="-7" font-family="Helvetica,sans-Serif" font-size="10.00">QString</text>
</a>
</g>
</g>
<!-- Node6&#45;&gt;Node8 -->
<g id="edge7_Node000006_Node000008" class="edge">
<title>Node6&#45;&gt;Node8</title>
<g id="a_edge7_Node000006_Node000008"><a xlink:title=" ">
<path fill="none" stroke="#63b8ff" d="M304.47,-54.95C315.38,-44.53 328.47,-32.02 337.99,-22.93"/>
<polygon fill="#63b8ff" stroke="#63b8ff" points="341.83,-19.26 339.77,-24.34 340.02,-20.99 338.21,-22.71 338.21,-22.71 338.21,-22.71 340.02,-20.99 336.66,-21.09 341.83,-19.26 341.83,-19.26"/>
</a>
</g>
</g>
</g>
</svg>
