<?xml version="1.0" encoding="UTF-8" standalone="no"?>
<!DOCTYPE svg PUBLIC "-//W3C//DTD SVG 1.1//EN"
 "http://www.w3.org/Graphics/SVG/1.1/DTD/svg11.dtd">
<!-- Generated by graphviz version 2.43.0 (0)
 -->
<!-- Title: ReplayManager::replayNextEvent Pages: 1 -->
<svg width="373pt" height="38pt"
 viewBox="0.00 0.00 373.00 38.00" xmlns="http://www.w3.org/2000/svg" xmlns:xlink="http://www.w3.org/1999/xlink">
<g id="graph0" class="graph" transform="scale(1 1) rotate(0) translate(4 34)">
<title>ReplayManager::replayNextEvent</title>
<!-- Node1 -->
<g id="Node000001" class="node">
<title>Node1</title>
<g id="a_Node000001"><a xlink:title=" ">
<polygon fill="#999999" stroke="#666666" points="365,-30 212,-30 212,0 365,0 365,-30"/>
<text text-anchor="start" x="220" y="-18" font-family="Helvetica,sans-Serif" font-size="10.00">ReplayManager::replayNext</text>
<text text-anchor="middle" x="288.5" y="-7" font-family="Helvetica,sans-Serif" font-size="10.00">Event</text>
</a>
</g>
</g>
<!-- Node2 -->
<g id="Node000002" class="node">
<title>Node2</title>
<g id="a_Node000002"><a xlink:href="../../da/de9/classReplayManager.html#afb3cad9876028dfafcd64078fce5af0a" target="_top" xlink:title=" ">
<polygon fill="white" stroke="#666666" points="176,-24.5 0,-24.5 0,-5.5 176,-5.5 176,-24.5"/>
<text text-anchor="middle" x="88" y="-12.5" font-family="Helvetica,sans-Serif" font-size="10.00">ReplayManager::ReplayManager</text>
</a>
</g>
</g>
<!-- Node1&#45;&gt;Node2 -->
<g id="edge1_Node000001_Node000002" class="edge">
<title>Node1&#45;&gt;Node2</title>
<g id="a_edge1_Node000001_Node000002"><a xlink:title=" ">
<path fill="none" stroke="#63b8ff" d="M206.64,-15C196.55,-15 186.2,-15 176.03,-15"/>
<polygon fill="#63b8ff" stroke="#63b8ff" points="211.89,-15 206.89,-17.25 209.39,-15 206.89,-15 206.89,-15 206.89,-15 209.39,-15 206.89,-12.75 211.89,-15 211.89,-15"/>
</a>
</g>
</g>
</g>
</svg>
