<?xml version="1.0" encoding="UTF-8" standalone="no"?>
<!DOCTYPE svg PUBLIC "-//W3C//DTD SVG 1.1//EN"
 "http://www.w3.org/Graphics/SVG/1.1/DTD/svg11.dtd">
<!-- Generated by graphviz version 2.43.0 (0)
 -->
<!-- Title: ZoneViewZone::zoneDumpReceived Pages: 1 -->
<svg width="924pt" height="247pt"
 viewBox="0.00 0.00 924.00 247.00" xmlns="http://www.w3.org/2000/svg" xmlns:xlink="http://www.w3.org/1999/xlink">
<g id="graph0" class="graph" transform="scale(1 1) rotate(0) translate(4 243)">
<title>ZoneViewZone::zoneDumpReceived</title>
<!-- Node1 -->
<g id="Node000001" class="node">
<title>Node1</title>
<g id="a_Node000001"><a xlink:title=" ">
<polygon fill="#999999" stroke="#666666" points="194,-171.5 0,-171.5 0,-152.5 194,-152.5 194,-171.5"/>
<text text-anchor="middle" x="97" y="-159.5" font-family="Helvetica,sans-Serif" font-size="10.00">ZoneViewZone::zoneDumpReceived</text>
</a>
</g>
</g>
<!-- Node2 -->
<g id="Node000002" class="node">
<title>Node2</title>
<g id="a_Node000002"><a xlink:href="../../d1/df9/classCardZoneLogic.html#a26ef07a1384ffdd55bcdd10ac72423b9" target="_top" xlink:title=" ">
<polygon fill="white" stroke="#666666" points="384.5,-239 239.5,-239 239.5,-209 384.5,-209 384.5,-239"/>
<text text-anchor="start" x="247.5" y="-227" font-family="Helvetica,sans-Serif" font-size="10.00">CardZoneLogic::cardCount</text>
<text text-anchor="middle" x="312" y="-216" font-family="Helvetica,sans-Serif" font-size="10.00">Changed</text>
</a>
</g>
</g>
<!-- Node1&#45;&gt;Node2 -->
<g id="edge1_Node000001_Node000002" class="edge">
<title>Node1&#45;&gt;Node2</title>
<g id="a_edge1_Node000001_Node000002"><a xlink:title=" ">
<path fill="none" stroke="#63b8ff" d="M130.81,-171.55C163.54,-181.08 214.46,-195.9 253.84,-207.36"/>
<polygon fill="#63b8ff" stroke="#63b8ff" points="259.07,-208.88 253.64,-209.65 256.67,-208.19 254.27,-207.49 254.27,-207.49 254.27,-207.49 256.67,-208.19 254.9,-205.33 259.07,-208.88 259.07,-208.88"/>
</a>
</g>
</g>
<!-- Node3 -->
<g id="Node000003" class="node">
<title>Node3</title>
<g id="a_Node000003"><a xlink:href="../../de/da1/classCardZone.html#a22f29aafd7f6af1015ad46f84636ae5d" target="_top" xlink:title=" ">
<polygon fill="white" stroke="#666666" points="567,-190.5 456,-190.5 456,-171.5 567,-171.5 567,-190.5"/>
<text text-anchor="middle" x="511.5" y="-178.5" font-family="Helvetica,sans-Serif" font-size="10.00">CardZone::getLogic</text>
</a>
</g>
</g>
<!-- Node1&#45;&gt;Node3 -->
<g id="edge2_Node000001_Node000003" class="edge">
<title>Node1&#45;&gt;Node3</title>
<g id="a_edge2_Node000001_Node000003"><a xlink:title=" ">
<path fill="none" stroke="#63b8ff" d="M194.19,-166.43C273.54,-170.09 383.63,-175.16 450.81,-178.25"/>
<polygon fill="#63b8ff" stroke="#63b8ff" points="455.97,-178.49 450.87,-180.51 453.47,-178.37 450.98,-178.26 450.98,-178.26 450.98,-178.26 453.47,-178.37 451.08,-176.01 455.97,-178.49 455.97,-178.49"/>
</a>
</g>
</g>
<!-- Node4 -->
<g id="Node000004" class="node">
<title>Node4</title>
<g id="a_Node000004"><a xlink:href="../../d1/df9/classCardZoneLogic.html#a269aac11c40041eeea1543a902d5f4f4" target="_top" xlink:title=" ">
<polygon fill="white" stroke="#666666" points="394,-152.5 230,-152.5 230,-133.5 394,-133.5 394,-152.5"/>
<text text-anchor="middle" x="312" y="-140.5" font-family="Helvetica,sans-Serif" font-size="10.00">CardZoneLogic::rawInsertCard</text>
</a>
</g>
</g>
<!-- Node1&#45;&gt;Node4 -->
<g id="edge3_Node000001_Node000004" class="edge">
<title>Node1&#45;&gt;Node4</title>
<g id="a_edge3_Node000001_Node000004"><a xlink:title=" ">
<path fill="none" stroke="#63b8ff" d="M194.22,-153.42C204.36,-152.51 214.62,-151.6 224.64,-150.7"/>
<polygon fill="#63b8ff" stroke="#63b8ff" points="229.85,-150.24 225.07,-152.92 227.36,-150.46 224.87,-150.68 224.87,-150.68 224.87,-150.68 227.36,-150.46 224.67,-148.44 229.85,-150.24 229.85,-150.24"/>
</a>
</g>
</g>
<!-- Node5 -->
<g id="Node000005" class="node">
<title>Node5</title>
<g id="a_Node000005"><a xlink:href="../../d0/db5/classZoneViewZone.html#a93f4834b21934b96afffc47d93e7623d" target="_top" xlink:title=" ">
<polygon fill="white" stroke="#666666" points="386,-115 238,-115 238,-85 386,-85 386,-115"/>
<text text-anchor="start" x="246" y="-103" font-family="Helvetica,sans-Serif" font-size="10.00">ZoneViewZone::reorganize</text>
<text text-anchor="middle" x="312" y="-92" font-family="Helvetica,sans-Serif" font-size="10.00">Cards</text>
</a>
</g>
</g>
<!-- Node1&#45;&gt;Node5 -->
<g id="edge4_Node000001_Node000005" class="edge">
<title>Node1&#45;&gt;Node5</title>
<g id="a_edge4_Node000001_Node000005"><a xlink:title=" ">
<path fill="none" stroke="#63b8ff" d="M130.81,-152.45C163.54,-142.92 214.46,-128.1 253.84,-116.64"/>
<polygon fill="#63b8ff" stroke="#63b8ff" points="259.07,-115.12 254.9,-118.67 256.67,-115.81 254.27,-116.51 254.27,-116.51 254.27,-116.51 256.67,-115.81 253.64,-114.35 259.07,-115.12 259.07,-115.12"/>
</a>
</g>
</g>
<!-- Node5&#45;&gt;Node3 -->
<g id="edge6_Node000005_Node000003" class="edge">
<title>Node5&#45;&gt;Node3</title>
<g id="a_edge6_Node000005_Node000003"><a xlink:title=" ">
<path fill="none" stroke="#63b8ff" d="M374.22,-115.14C381.13,-117.93 387.87,-121.19 394,-125 413.76,-137.28 409.77,-151.52 430,-163 436.38,-166.62 443.42,-169.51 450.61,-171.82"/>
<polygon fill="#63b8ff" stroke="#63b8ff" points="455.61,-173.33 450.17,-174.04 453.21,-172.6 450.82,-171.88 450.82,-171.88 450.82,-171.88 453.21,-172.6 451.47,-169.73 455.61,-173.33 455.61,-173.33"/>
</a>
</g>
</g>
<!-- Node6 -->
<g id="Node000006" class="node">
<title>Node6</title>
<g id="a_Node000006"><a xlink:href="../../d1/df9/classCardZoneLogic.html#a01bc8f22df2cf2b943084b40ffc95a2d" target="_top" xlink:title=" ">
<polygon fill="white" stroke="#666666" points="581,-153.5 442,-153.5 442,-134.5 581,-134.5 581,-153.5"/>
<text text-anchor="middle" x="511.5" y="-141.5" font-family="Helvetica,sans-Serif" font-size="10.00">CardZoneLogic::getCards</text>
</a>
</g>
</g>
<!-- Node5&#45;&gt;Node6 -->
<g id="edge5_Node000005_Node000006" class="edge">
<title>Node5&#45;&gt;Node6</title>
<g id="a_edge5_Node000005_Node000006"><a xlink:title=" ">
<path fill="none" stroke="#63b8ff" d="M380.42,-115.02C407.44,-121.04 437.95,-127.84 462.63,-133.33"/>
<polygon fill="#63b8ff" stroke="#63b8ff" points="467.8,-134.49 462.43,-135.6 465.36,-133.94 462.92,-133.4 462.92,-133.4 462.92,-133.4 465.36,-133.94 463.41,-131.2 467.8,-134.49 467.8,-134.49"/>
</a>
</g>
</g>
<!-- Node7 -->
<g id="Node000007" class="node">
<title>Node7</title>
<g id="a_Node000007"><a xlink:href="../../d0/db5/classZoneViewZone.html#ad504ac41ff4894482412bdee352e1361" target="_top" xlink:title=" ">
<polygon fill="white" stroke="#666666" points="592.5,-116 430.5,-116 430.5,-86 592.5,-86 592.5,-116"/>
<text text-anchor="start" x="438.5" y="-104" font-family="Helvetica,sans-Serif" font-size="10.00">ZoneViewZone::optimumRect</text>
<text text-anchor="middle" x="511.5" y="-93" font-family="Helvetica,sans-Serif" font-size="10.00">Changed</text>
</a>
</g>
</g>
<!-- Node5&#45;&gt;Node7 -->
<g id="edge7_Node000005_Node000007" class="edge">
<title>Node5&#45;&gt;Node7</title>
<g id="a_edge7_Node000005_Node000007"><a xlink:title=" ">
<path fill="none" stroke="#63b8ff" d="M386.26,-100.37C398.96,-100.44 412.26,-100.5 425.24,-100.57"/>
<polygon fill="#63b8ff" stroke="#63b8ff" points="430.39,-100.59 425.38,-102.82 427.89,-100.58 425.39,-100.57 425.39,-100.57 425.39,-100.57 427.89,-100.58 425.4,-98.32 430.39,-100.59 430.39,-100.59"/>
</a>
</g>
</g>
<!-- Node8 -->
<g id="Node000008" class="node">
<title>Node8</title>
<g id="a_Node000008"><a xlink:href="../../d0/db5/classZoneViewZone.html#a8537daa60242da80617ee782809219fd" target="_top" xlink:title="Sets the position of each card to the proper position for the view.">
<polygon fill="white" stroke="#666666" points="593,-30 430,-30 430,0 593,0 593,-30"/>
<text text-anchor="start" x="438" y="-18" font-family="Helvetica,sans-Serif" font-size="10.00">ZoneViewZone::positionCards</text>
<text text-anchor="middle" x="511.5" y="-7" font-family="Helvetica,sans-Serif" font-size="10.00">ForDisplay</text>
</a>
</g>
</g>
<!-- Node5&#45;&gt;Node8 -->
<g id="edge8_Node000005_Node000008" class="edge">
<title>Node5&#45;&gt;Node8</title>
<g id="a_edge8_Node000005_Node000008"><a xlink:title=" ">
<path fill="none" stroke="#63b8ff" d="M338.35,-84.98C361.61,-71.64 397.31,-52.25 430,-39 436.48,-36.37 443.35,-33.89 450.25,-31.59"/>
<polygon fill="#63b8ff" stroke="#63b8ff" points="455.02,-30.02 450.97,-33.72 452.65,-30.8 450.27,-31.58 450.27,-31.58 450.27,-31.58 452.65,-30.8 449.57,-29.44 455.02,-30.02 455.02,-30.02"/>
</a>
</g>
</g>
<!-- Node12 -->
<g id="Node000012" class="node">
<title>Node12</title>
<g id="a_Node000012"><a xlink:href="../../d4/d71/classCardList.html#a2cb6e2096d50e4cfe8dccdec39cb5d2e" target="_top" xlink:title="sorts the list by using string comparison on properties extracted from the CardItem The cards are com...">
<polygon fill="white" stroke="#666666" points="558.5,-67.5 464.5,-67.5 464.5,-48.5 558.5,-48.5 558.5,-67.5"/>
<text text-anchor="middle" x="511.5" y="-55.5" font-family="Helvetica,sans-Serif" font-size="10.00">CardList::sortBy</text>
</a>
</g>
</g>
<!-- Node5&#45;&gt;Node12 -->
<g id="edge12_Node000005_Node000012" class="edge">
<title>Node5&#45;&gt;Node12</title>
<g id="a_edge12_Node000005_Node000012"><a xlink:title=" ">
<path fill="none" stroke="#63b8ff" d="M383.74,-84.96C409.27,-79.53 437.51,-73.52 460.85,-68.56"/>
<polygon fill="#63b8ff" stroke="#63b8ff" points="465.75,-67.52 461.33,-70.76 463.31,-68.04 460.86,-68.56 460.86,-68.56 460.86,-68.56 463.31,-68.04 460.39,-66.36 465.75,-67.52 465.75,-67.52"/>
</a>
</g>
</g>
<!-- Node9 -->
<g id="Node000009" class="node">
<title>Node9</title>
<g id="a_Node000009"><a xlink:href="../../d4/d71/classCardList.html#a036e8b64cf5d346acbf59dc0e3fd896d" target="_top" xlink:title="returns the function that extracts the given property from the CardItem.">
<polygon fill="white" stroke="#666666" points="770,-67.5 633,-67.5 633,-48.5 770,-48.5 770,-67.5"/>
<text text-anchor="middle" x="701.5" y="-55.5" font-family="Helvetica,sans-Serif" font-size="10.00">CardList::getExtractorFor</text>
</a>
</g>
</g>
<!-- Node8&#45;&gt;Node9 -->
<g id="edge9_Node000008_Node000009" class="edge">
<title>Node8&#45;&gt;Node9</title>
<g id="a_edge9_Node000008_Node000009"><a xlink:title=" ">
<path fill="none" stroke="#63b8ff" d="M578.25,-30.04C603.16,-35.74 630.98,-42.1 653.78,-47.31"/>
<polygon fill="#63b8ff" stroke="#63b8ff" points="658.87,-48.48 653.49,-49.56 656.43,-47.92 653.99,-47.36 653.99,-47.36 653.99,-47.36 656.43,-47.92 654.5,-45.17 658.87,-48.48 658.87,-48.48"/>
</a>
</g>
</g>
<!-- Node11 -->
<g id="Node000011" class="node">
<title>Node11</title>
<g id="a_Node000011"><a xlink:href="../../d4/db9/classAbstractCardItem.html#a638c37442fe1542dd4349a4fdf2b4148" target="_top" xlink:title=" ">
<polygon fill="white" stroke="#666666" points="774,-30 629,-30 629,0 774,0 774,-30"/>
<text text-anchor="start" x="637" y="-18" font-family="Helvetica,sans-Serif" font-size="10.00">AbstractCardItem::setReal</text>
<text text-anchor="middle" x="701.5" y="-7" font-family="Helvetica,sans-Serif" font-size="10.00">ZValue</text>
</a>
</g>
</g>
<!-- Node8&#45;&gt;Node11 -->
<g id="edge11_Node000008_Node000011" class="edge">
<title>Node8&#45;&gt;Node11</title>
<g id="a_edge11_Node000008_Node000011"><a xlink:title=" ">
<path fill="none" stroke="#63b8ff" d="M593.05,-15C603.15,-15 613.46,-15 623.5,-15"/>
<polygon fill="#63b8ff" stroke="#63b8ff" points="628.72,-15 623.72,-17.25 626.22,-15 623.72,-15 623.72,-15 623.72,-15 626.22,-15 623.72,-12.75 628.72,-15 628.72,-15"/>
</a>
</g>
</g>
<!-- Node10 -->
<g id="Node000010" class="node">
<title>Node10</title>
<g id="a_Node000010"><a xlink:href="../../df/d77/card__list_8cpp.html#ab18840e21d7663c287b8c0d7ce7843a1" target="_top" xlink:title=" ">
<polygon fill="white" stroke="#666666" points="916,-67.5 810,-67.5 810,-48.5 916,-48.5 916,-67.5"/>
<text text-anchor="middle" x="863" y="-55.5" font-family="Helvetica,sans-Serif" font-size="10.00">getColorSortString</text>
</a>
</g>
</g>
<!-- Node9&#45;&gt;Node10 -->
<g id="edge10_Node000009_Node000010" class="edge">
<title>Node9&#45;&gt;Node10</title>
<g id="a_edge10_Node000009_Node000010"><a xlink:title=" ">
<path fill="none" stroke="#63b8ff" d="M770.14,-58C781.63,-58 793.46,-58 804.65,-58"/>
<polygon fill="#63b8ff" stroke="#63b8ff" points="809.74,-58 804.74,-60.25 807.24,-58 804.74,-58 804.74,-58 804.74,-58 807.24,-58 804.74,-55.75 809.74,-58 809.74,-58"/>
</a>
</g>
</g>
<!-- Node12&#45;&gt;Node9 -->
<g id="edge13_Node000012_Node000009" class="edge">
<title>Node12&#45;&gt;Node9</title>
<g id="a_edge13_Node000012_Node000009"><a xlink:title=" ">
<path fill="none" stroke="#63b8ff" d="M558.97,-58C579.7,-58 604.6,-58 627.7,-58"/>
<polygon fill="#63b8ff" stroke="#63b8ff" points="632.91,-58 627.91,-60.25 630.41,-58 627.91,-58 627.91,-58 627.91,-58 630.41,-58 627.91,-55.75 632.91,-58 632.91,-58"/>
</a>
</g>
</g>
</g>
</svg>
