<?xml version="1.0" encoding="UTF-8" standalone="no"?>
<!DOCTYPE svg PUBLIC "-//W3C//DTD SVG 1.1//EN"
 "http://www.w3.org/Graphics/SVG/1.1/DTD/svg11.dtd">
<!-- Generated by graphviz version 2.43.0 (0)
 -->
<!-- Title: ZoneViewZone::positionCardsForDisplay Pages: 1 -->
<svg width="494pt" height="76pt"
 viewBox="0.00 0.00 494.00 75.50" xmlns="http://www.w3.org/2000/svg" xmlns:xlink="http://www.w3.org/1999/xlink">

<svg id="main" version="1.1" xmlns="http://www.w3.org/2000/svg" xmlns:xlink="http://www.w3.org/1999/xlink" xml:space="preserve" onload="init(evt)">
<style type="text/css"><![CDATA[
.node, .edge {opacity: 0.7;}
.node.selected, .edge.selected {opacity: 1;}
.edge:hover path { stroke: red; }
.edge:hover polygon { stroke: red; fill: red; }
]]></style>
<script type="application/ecmascript" xlink:href="../../svg.min.js"/>
<svg id="graph" class="graph">
<g id="graph0" class="graph" transform="scale(1 1) rotate(0) translate(4 71.5)">
<title>ZoneViewZone::positionCardsForDisplay</title>
<!-- Node1 -->
<g id="Node000001" class="node">
<title>Node1</title>
<g id="a_Node000001"><a xlink:title="Sets the position of each card to the proper position for the view.">
<polygon fill="#999999" stroke="#666666" points="163,-51 0,-51 0,-21 163,-21 163,-51"/>
<text text-anchor="start" x="8" y="-39" font-family="Helvetica,sans-Serif" font-size="10.00">ZoneViewZone::positionCards</text>
<text text-anchor="middle" x="81.5" y="-28" font-family="Helvetica,sans-Serif" font-size="10.00">ForDisplay</text>
</a>
</g>
</g>
<!-- Node2 -->
<g id="Node000002" class="node">
<title>Node2</title>
<g id="a_Node000002"><a xlink:href="../../d4/d71/classCardList.html#a036e8b64cf5d346acbf59dc0e3fd896d" target="_top" xlink:title="returns the function that extracts the given property from the CardItem.">
<polygon fill="white" stroke="#666666" points="340,-67.5 203,-67.5 203,-48.5 340,-48.5 340,-67.5"/>
<text text-anchor="middle" x="271.5" y="-55.5" font-family="Helvetica,sans-Serif" font-size="10.00">CardList::getExtractorFor</text>
</a>
</g>
</g>
<!-- Node1&#45;&gt;Node2 -->
<g id="edge1_Node000001_Node000002" class="edge">
<title>Node1&#45;&gt;Node2</title>
<g id="a_edge1_Node000001_Node000002"><a xlink:title=" ">
<path fill="none" stroke="#63b8ff" d="M163.05,-45.43C174.54,-46.77 186.31,-48.15 197.65,-49.47"/>
<polygon fill="#63b8ff" stroke="#63b8ff" points="202.82,-50.08 197.59,-51.73 200.34,-49.79 197.86,-49.5 197.86,-49.5 197.86,-49.5 200.34,-49.79 198.12,-47.26 202.82,-50.08 202.82,-50.08"/>
</a>
</g>
</g>
<!-- Node4 -->
<g id="Node000004" class="node">
<title>Node4</title>
<g id="a_Node000004"><a xlink:href="../../d4/db9/classAbstractCardItem.html#a638c37442fe1542dd4349a4fdf2b4148" target="_top" xlink:title=" ">
<polygon fill="white" stroke="#666666" points="344,-30 199,-30 199,0 344,0 344,-30"/>
<text text-anchor="start" x="207" y="-18" font-family="Helvetica,sans-Serif" font-size="10.00">AbstractCardItem::setReal</text>
<text text-anchor="middle" x="271.5" y="-7" font-family="Helvetica,sans-Serif" font-size="10.00">ZValue</text>
</a>
</g>
</g>
<!-- Node1&#45;&gt;Node4 -->
<g id="edge3_Node000001_Node000004" class="edge">
<title>Node1&#45;&gt;Node4</title>
<g id="a_edge3_Node000001_Node000004"><a xlink:title=" ">
<path fill="none" stroke="#63b8ff" d="M163.05,-27C173.15,-25.87 183.46,-24.72 193.5,-23.6"/>
<polygon fill="#63b8ff" stroke="#63b8ff" points="198.72,-23.02 194.01,-25.81 196.24,-23.3 193.76,-23.57 193.76,-23.57 193.76,-23.57 196.24,-23.3 193.51,-21.34 198.72,-23.02 198.72,-23.02"/>
</a>
</g>
</g>
<!-- Node3 -->
<g id="Node000003" class="node">
<title>Node3</title>
<g id="a_Node000003"><a xlink:href="../../df/d77/card__list_8cpp.html#ab18840e21d7663c287b8c0d7ce7843a1" target="_top" xlink:title=" ">
<polygon fill="white" stroke="#666666" points="486,-67.5 380,-67.5 380,-48.5 486,-48.5 486,-67.5"/>
<text text-anchor="middle" x="433" y="-55.5" font-family="Helvetica,sans-Serif" font-size="10.00">getColorSortString</text>
</a>
</g>
</g>
<!-- Node2&#45;&gt;Node3 -->
<g id="edge2_Node000002_Node000003" class="edge">
<title>Node2&#45;&gt;Node3</title>
<g id="a_edge2_Node000002_Node000003"><a xlink:title=" ">
<path fill="none" stroke="#63b8ff" d="M340.14,-58C351.63,-58 363.46,-58 374.65,-58"/>
<polygon fill="#63b8ff" stroke="#63b8ff" points="379.74,-58 374.74,-60.25 377.24,-58 374.74,-58 374.74,-58 374.74,-58 377.24,-58 374.74,-55.75 379.74,-58 379.74,-58"/>
</a>
</g>
</g>
</g>
</svg>
</svg>

<style type='text/css'>
<![CDATA[
[data-mouse-over-selected='false'] { opacity: 0.7; }
[data-mouse-over-selected='true']  { opacity: 1.0; }
]]>
</style>
<script type="application/ecmascript"><![CDATA[
document.addEventListener('DOMContentLoaded', (event) => {
  highlightEdges();
  highlightAdjacentNodes();
});
]]></script>
</svg>
