<?xml version="1.0" encoding="UTF-8" standalone="no"?>
<!DOCTYPE svg PUBLIC "-//W3C//DTD SVG 1.1//EN"
 "http://www.w3.org/Graphics/SVG/1.1/DTD/svg11.dtd">
<!-- Generated by graphviz version 2.43.0 (0)
 -->
<!-- Title: peg::Dictionary::parse_core Pages: 1 -->
<!--zoomable 332 -->

<svg id="main" version="1.1" xmlns="http://www.w3.org/2000/svg" xmlns:xlink="http://www.w3.org/1999/xlink" xml:space="preserve" onload="init(evt)">
<style type="text/css"><![CDATA[
.node, .edge {opacity: 0.7;}
.node.selected, .edge.selected {opacity: 1;}
.edge:hover path { stroke: red; }
.edge:hover polygon { stroke: red; fill: red; }
]]></style>

<defs>
  <circle id="rim" cx="0" cy="0" r="7"/>
  <circle id="rim2" cx="0" cy="0" r="3.5"/>
  <g id="zoomPlus">
    <use xlink:href="#rim" fill="#404040"><set attributeName="fill" to="#808080" begin="zoomplus.mouseover" end="zoomplus.mouseout"/></use>
    <path d="M-4,0h8M0,-4v8" fill="none" stroke="white" stroke-width="1.5" pointer-events="none"/>
  </g>
  <g id="zoomMin">
    <use xlink:href="#rim" fill="#404040"><set attributeName="fill" to="#808080" begin="zoomminus.mouseover" end="zoomminus.mouseout"/></use>
    <path d="M-4,0h8" fill="none" stroke="white" stroke-width="1.5" pointer-events="none"/>
  </g>
  <g id="arrowUp" transform="translate(30 24)">
    <use xlink:href="#rim"/>
    <path pointer-events="none" fill="none" stroke="white" stroke-width="1.5" d="M0,-3.0v7 M-2.5,-0.5L0,-3.0L2.5,-0.5"/>
  </g>
  <g id="arrowRight" transform="rotate(90) translate(36 -43)">
    <use xlink:href="#rim"/>
    <path pointer-events="none" fill="none" stroke="white" stroke-width="1.5" d="M0,-3.0v7 M-2.5,-0.5L0,-3.0L2.5,-0.5"/>
  </g>
  <g id="arrowDown" transform="rotate(180) translate(-30 -48)">
    <use xlink:href="#rim"/>
    <path pointer-events="none" fill="none" stroke="white" stroke-width="1.5" d="M0,-3.0v7 M-2.5,-0.5L0,-3.0L2.5,-0.5"/>
  </g>
  <g id="arrowLeft" transform="rotate(270) translate(-36 17)">
    <use xlink:href="#rim"/>
    <path pointer-events="none" fill="none" stroke="white" stroke-width="1.5" d="M0,-3.0v7 M-2.5,-0.5L0,-3.0L2.5,-0.5"/>
  </g>
  <g id="resetDef">
    <use xlink:href="#rim2" fill="#404040"><set attributeName="fill" to="#808080" begin="reset.mouseover" end="reset.mouseout"/></use>
  </g>
</defs>
<script type="application/ecmascript">
var viewWidth = 658;
var viewHeight = 332;
var sectionId = 'dynsection-3';
</script>
<script type="application/ecmascript" xlink:href="../../svg.min.js"/>
<svg id="graph" class="graph">
<g id="viewport">
<title>peg::Dictionary::parse_core</title>
<!-- Node1 -->
<g id="Node000001" class="node">
<title>Node1</title>
<g id="a_Node000001"><a xlink:title=" ">
<polygon fill="#999999" stroke="#666666" points="149,-206.5 0,-206.5 0,-187.5 149,-187.5 149,-206.5"/>
<text text-anchor="middle" x="74.5" y="-194.5" font-family="Helvetica,sans-Serif" font-size="10.00">peg::Dictionary::parse_core</text>
</a>
</g>
</g>
<!-- Node2 -->
<g id="Node000002" class="node">
<title>Node2</title>
<g id="a_Node000002"><a xlink:href="../../dc/db2/namespacepeg.html#a3cd828a67fc649f6f2d8aca875589a7f" target="_top" xlink:title=" ">
<polygon fill="white" stroke="#666666" points="288.5,-280.5 232.5,-280.5 232.5,-261.5 288.5,-261.5 288.5,-280.5"/>
<text text-anchor="middle" x="260.5" y="-268.5" font-family="Helvetica,sans-Serif" font-size="10.00">peg::fail</text>
</a>
</g>
</g>
<!-- Node1&#45;&gt;Node2 -->
<g id="edge1_Node000001_Node000002" class="edge">
<title>Node1&#45;&gt;Node2</title>
<g id="a_edge1_Node000001_Node000002"><a xlink:title=" ">
<path fill="none" stroke="#63b8ff" d="M91.28,-206.58C112.1,-218.86 150.16,-240.09 185,-253 198.55,-258.02 214.01,-262.02 227.32,-264.96"/>
<polygon fill="#63b8ff" stroke="#63b8ff" points="232.5,-266.08 227.13,-267.22 230.05,-265.55 227.61,-265.03 227.61,-265.03 227.61,-265.03 230.05,-265.55 228.08,-262.83 232.5,-266.08 232.5,-266.08"/>
</a>
</g>
</g>
<!-- Node3 -->
<g id="Node000003" class="node">
<title>Node3</title>
<g id="a_Node000003"><a xlink:href="../../d4/da5/classpeg_1_1Trie.html#a9a252266af52a133dedff28fe06ce895" target="_top" xlink:title=" ">
<polygon fill="white" stroke="#666666" points="308,-243.5 213,-243.5 213,-224.5 308,-224.5 308,-243.5"/>
<text text-anchor="middle" x="260.5" y="-231.5" font-family="Helvetica,sans-Serif" font-size="10.00">peg::Trie::match</text>
</a>
</g>
</g>
<!-- Node1&#45;&gt;Node3 -->
<g id="edge2_Node000001_Node000003" class="edge">
<title>Node1&#45;&gt;Node3</title>
<g id="a_edge2_Node000001_Node000003"><a xlink:title=" ">
<path fill="none" stroke="#63b8ff" d="M122.88,-206.53C148.95,-211.77 181.31,-218.28 208,-223.64"/>
<polygon fill="#63b8ff" stroke="#63b8ff" points="212.91,-224.63 207.57,-225.85 210.46,-224.14 208.01,-223.65 208.01,-223.65 208.01,-223.65 210.46,-224.14 208.45,-221.44 212.91,-224.63 212.91,-224.63"/>
</a>
</g>
</g>
<!-- Node5 -->
<g id="Node000005" class="node">
<title>Node5</title>
<g id="a_Node000005"><a xlink:href="../../d2/d66/classpeg_1_1Ope.html#ad41087e2184b1f1d65589a762ab7eaf5" target="_top" xlink:title=" ">
<polygon fill="white" stroke="#666666" points="307,-206.5 214,-206.5 214,-187.5 307,-187.5 307,-206.5"/>
<text text-anchor="middle" x="260.5" y="-194.5" font-family="Helvetica,sans-Serif" font-size="10.00">peg::Ope::parse</text>
</a>
</g>
</g>
<!-- Node1&#45;&gt;Node5 -->
<g id="edge4_Node000001_Node000005" class="edge">
<title>Node1&#45;&gt;Node5</title>
<g id="a_edge4_Node000001_Node000005"><a xlink:title=" ">
<path fill="none" stroke="#63b8ff" d="M149.01,-197C169.05,-197 190.31,-197 208.77,-197"/>
<polygon fill="#63b8ff" stroke="#63b8ff" points="213.9,-197 208.9,-199.25 211.4,-197 208.9,-197 208.9,-197 208.9,-197 211.4,-197 208.9,-194.75 213.9,-197 213.9,-197"/>
</a>
</g>
</g>
<!-- Node10 -->
<g id="Node000010" class="node">
<title>Node10</title>
<g id="a_Node000010"><a xlink:href="../../df/d94/classpeg_1_1Context.html#ae69d7293d93f27c4aa6e1fa713f9fbc0" target="_top" xlink:title=" ">
<polygon fill="white" stroke="#666666" points="336,-115.5 185,-115.5 185,-96.5 336,-96.5 336,-115.5"/>
<text text-anchor="middle" x="260.5" y="-103.5" font-family="Helvetica,sans-Serif" font-size="10.00">peg::Context::set_error_pos</text>
</a>
</g>
</g>
<!-- Node1&#45;&gt;Node10 -->
<g id="edge9_Node000001_Node000010" class="edge">
<title>Node1&#45;&gt;Node10</title>
<g id="a_edge9_Node000001_Node000010"><a xlink:title=" ">
<path fill="none" stroke="#63b8ff" d="M94.84,-187.43C128.66,-170.71 198.45,-136.19 235.37,-117.93"/>
<polygon fill="#63b8ff" stroke="#63b8ff" points="240.14,-115.57 236.66,-119.81 237.9,-116.68 235.66,-117.79 235.66,-117.79 235.66,-117.79 237.9,-116.68 234.66,-115.77 240.14,-115.57 240.14,-115.57"/>
</a>
</g>
</g>
<!-- Node15 -->
<g id="Node000015" class="node">
<title>Node15</title>
<g id="a_Node000015"><a xlink:href="../../d4/da5/classpeg_1_1Trie.html#acaf75193b32c0165405d090dcf75a8b6" target="_top" xlink:title=" ">
<polygon fill="white" stroke="#666666" points="302,-78.5 219,-78.5 219,-59.5 302,-59.5 302,-78.5"/>
<text text-anchor="middle" x="260.5" y="-66.5" font-family="Helvetica,sans-Serif" font-size="10.00">peg::Trie::size</text>
</a>
</g>
</g>
<!-- Node1&#45;&gt;Node15 -->
<g id="edge14_Node000001_Node000015" class="edge">
<title>Node1&#45;&gt;Node15</title>
<g id="a_edge14_Node000001_Node000015"><a xlink:title=" ">
<path fill="none" stroke="#63b8ff" d="M82.23,-187.44C97.76,-166.12 138.35,-114.49 185,-88 193.88,-82.96 204.1,-79.23 214.07,-76.49"/>
<polygon fill="#63b8ff" stroke="#63b8ff" points="218.94,-75.22 214.67,-78.66 216.52,-75.85 214.1,-76.48 214.1,-76.48 214.1,-76.48 216.52,-75.85 213.53,-74.3 218.94,-75.22 218.94,-75.22"/>
</a>
</g>
</g>
<!-- Node4 -->
<g id="Node000004" class="node">
<title>Node4</title>
<g id="a_Node000004"><a xlink:href="../../d4/da5/classpeg_1_1Trie.html#ab2e5d54f1badf831619261e02685943d" target="_top" xlink:title=" ">
<polygon fill="white" stroke="#666666" points="497,-323.5 391,-323.5 391,-304.5 497,-304.5 497,-323.5"/>
<text text-anchor="middle" x="444" y="-311.5" font-family="Helvetica,sans-Serif" font-size="10.00">peg::Trie::to_lower</text>
</a>
</g>
</g>
<!-- Node3&#45;&gt;Node4 -->
<g id="edge3_Node000003_Node000004" class="edge">
<title>Node3&#45;&gt;Node4</title>
<g id="a_edge3_Node000003_Node000004"><a xlink:title=" ">
<path fill="none" stroke="#63b8ff" d="M308.25,-241.18C317.89,-243.93 327.64,-247.74 336,-253 357.09,-266.28 350.9,-282.74 372,-296 376.28,-298.69 380.94,-300.98 385.77,-302.92"/>
<polygon fill="#63b8ff" stroke="#63b8ff" points="390.63,-304.76 385.16,-305.1 388.29,-303.88 385.96,-303 385.96,-303 385.96,-303 388.29,-303.88 386.75,-300.89 390.63,-304.76 390.63,-304.76"/>
</a>
</g>
</g>
<!-- Node6 -->
<g id="Node000006" class="node">
<title>Node6</title>
<g id="a_Node000006"><a xlink:href="../../df/d94/classpeg_1_1Context.html#a7f07f38fd6411be0283388c46703faa6" target="_top" xlink:title=" ">
<polygon fill="white" stroke="#666666" points="516,-286.5 372,-286.5 372,-267.5 516,-267.5 516,-286.5"/>
<text text-anchor="middle" x="444" y="-274.5" font-family="Helvetica,sans-Serif" font-size="10.00">peg::Context::is_traceable</text>
</a>
</g>
</g>
<!-- Node5&#45;&gt;Node6 -->
<g id="edge5_Node000005_Node000006" class="edge">
<title>Node5&#45;&gt;Node6</title>
<g id="a_edge5_Node000005_Node000006"><a xlink:title=" ">
<path fill="none" stroke="#63b8ff" d="M307.08,-203.85C317.1,-206.63 327.3,-210.53 336,-216 357.09,-229.28 350.9,-245.74 372,-259 376.12,-261.59 380.59,-263.8 385.22,-265.7"/>
<polygon fill="#63b8ff" stroke="#63b8ff" points="389.89,-267.5 384.42,-267.81 387.56,-266.6 385.23,-265.7 385.23,-265.7 385.23,-265.7 387.56,-266.6 386.03,-263.6 389.89,-267.5 389.89,-267.5"/>
</a>
</g>
</g>
<!-- Node7 -->
<g id="Node000007" class="node">
<title>Node7</title>
<g id="a_Node000007"><a xlink:href="../../d2/d66/classpeg_1_1Ope.html#ad89a7be51f37cce8c940ff6fafdcb4f5" target="_top" xlink:title=" ">
<polygon fill="white" stroke="#666666" points="503.5,-249.5 384.5,-249.5 384.5,-230.5 503.5,-230.5 503.5,-249.5"/>
<text text-anchor="middle" x="444" y="-237.5" font-family="Helvetica,sans-Serif" font-size="10.00">peg::Ope::parse_core</text>
</a>
</g>
</g>
<!-- Node5&#45;&gt;Node7 -->
<g id="edge6_Node000005_Node000007" class="edge">
<title>Node5&#45;&gt;Node7</title>
<g id="a_edge6_Node000005_Node000007"><a xlink:title=" ">
<path fill="none" stroke="#63b8ff" d="M301.78,-206.54C330.21,-213.28 368.34,-222.31 397.81,-229.29"/>
<polygon fill="#63b8ff" stroke="#63b8ff" points="402.83,-230.48 397.45,-231.52 400.4,-229.91 397.97,-229.33 397.97,-229.33 397.97,-229.33 400.4,-229.91 398.49,-227.14 402.83,-230.48 402.83,-230.48"/>
</a>
</g>
</g>
<!-- Node8 -->
<g id="Node000008" class="node">
<title>Node8</title>
<g id="a_Node000008"><a xlink:href="../../df/d94/classpeg_1_1Context.html#a1ba31bec6a97909a7a21aed3c603ec14" target="_top" xlink:title=" ">
<polygon fill="white" stroke="#666666" points="499,-212 389,-212 389,-182 499,-182 499,-212"/>
<text text-anchor="start" x="397" y="-200" font-family="Helvetica,sans-Serif" font-size="10.00">peg::Context::trace</text>
<text text-anchor="middle" x="444" y="-189" font-family="Helvetica,sans-Serif" font-size="10.00">_enter</text>
</a>
</g>
</g>
<!-- Node5&#45;&gt;Node8 -->
<g id="edge7_Node000005_Node000008" class="edge">
<title>Node5&#45;&gt;Node8</title>
<g id="a_edge7_Node000005_Node000008"><a xlink:title=" ">
<path fill="none" stroke="#63b8ff" d="M307.3,-197C330.44,-197 358.79,-197 383.59,-197"/>
<polygon fill="#63b8ff" stroke="#63b8ff" points="388.82,-197 383.82,-199.25 386.32,-197 383.82,-197 383.82,-197 383.82,-197 386.32,-197 383.82,-194.75 388.82,-197 388.82,-197"/>
</a>
</g>
</g>
<!-- Node9 -->
<g id="Node000009" class="node">
<title>Node9</title>
<g id="a_Node000009"><a xlink:href="../../df/d94/classpeg_1_1Context.html#a13de48627133b0e2a7700543a220da15" target="_top" xlink:title=" ">
<polygon fill="white" stroke="#666666" points="499,-164 389,-164 389,-134 499,-134 499,-164"/>
<text text-anchor="start" x="397" y="-152" font-family="Helvetica,sans-Serif" font-size="10.00">peg::Context::trace</text>
<text text-anchor="middle" x="444" y="-141" font-family="Helvetica,sans-Serif" font-size="10.00">_leave</text>
</a>
</g>
</g>
<!-- Node5&#45;&gt;Node9 -->
<g id="edge8_Node000005_Node000009" class="edge">
<title>Node5&#45;&gt;Node9</title>
<g id="a_edge8_Node000005_Node000009"><a xlink:title=" ">
<path fill="none" stroke="#63b8ff" d="M297.79,-187.4C322.44,-180.88 355.58,-172.12 383.98,-164.61"/>
<polygon fill="#63b8ff" stroke="#63b8ff" points="388.86,-163.32 384.6,-166.77 386.45,-163.96 384.03,-164.6 384.03,-164.6 384.03,-164.6 386.45,-163.96 383.45,-162.42 388.86,-163.32 388.86,-163.32"/>
</a>
</g>
</g>
<!-- Node11 -->
<g id="Node000011" class="node">
<title>Node11</title>
<g id="a_Node000011"><a xlink:href="../../db/da9/structpeg_1_1ErrorInfo.html#ac16bb668295c62acfa8ca90f6a60acdd" target="_top" xlink:title=" ">
<polygon fill="white" stroke="#666666" points="497.5,-115.5 390.5,-115.5 390.5,-96.5 497.5,-96.5 497.5,-115.5"/>
<text text-anchor="middle" x="444" y="-103.5" font-family="Helvetica,sans-Serif" font-size="10.00">peg::ErrorInfo::add</text>
</a>
</g>
</g>
<!-- Node10&#45;&gt;Node11 -->
<g id="edge10_Node000010_Node000011" class="edge">
<title>Node10&#45;&gt;Node11</title>
<g id="a_edge10_Node000010_Node000011"><a xlink:title=" ">
<path fill="none" stroke="#63b8ff" d="M336.11,-106C352.45,-106 369.51,-106 385.08,-106"/>
<polygon fill="#63b8ff" stroke="#63b8ff" points="390.3,-106 385.3,-108.25 387.8,-106 385.3,-106 385.3,-106 385.3,-106 387.8,-106 385.3,-103.75 390.3,-106 390.3,-106"/>
</a>
</g>
</g>
<!-- Node12 -->
<g id="Node000012" class="node">
<title>Node12</title>
<g id="a_Node000012"><a xlink:href="../../d8/d94/classpeg_1_1Definition.html#af29e29263e5c23c7e3f866ddb2ea2388" target="_top" xlink:title=" ">
<polygon fill="white" stroke="#666666" points="499,-78 389,-78 389,-48 499,-48 499,-78"/>
<text text-anchor="start" x="397" y="-66" font-family="Helvetica,sans-Serif" font-size="10.00">peg::Definition::get</text>
<text text-anchor="middle" x="444" y="-55" font-family="Helvetica,sans-Serif" font-size="10.00">_core_operator</text>
</a>
</g>
</g>
<!-- Node10&#45;&gt;Node12 -->
<g id="edge11_Node000010_Node000012" class="edge">
<title>Node10&#45;&gt;Node12</title>
<g id="a_edge11_Node000010_Node000012"><a xlink:title=" ">
<path fill="none" stroke="#63b8ff" d="M301.78,-96.46C325.87,-90.75 356.91,-83.4 383.76,-77.04"/>
<polygon fill="#63b8ff" stroke="#63b8ff" points="388.72,-75.86 384.37,-79.2 386.28,-76.44 383.85,-77.01 383.85,-77.01 383.85,-77.01 386.28,-76.44 383.33,-74.82 388.72,-75.86 388.72,-75.86"/>
</a>
</g>
</g>
<!-- Node13 -->
<g id="Node000013" class="node">
<title>Node13</title>
<g id="a_Node000013"><a xlink:href="../../dd/dfd/structpeg_1_1FindLiteralToken.html#a912e90ec650af4a4e7cf7b35820499de" target="_top" xlink:title=" ">
<polygon fill="white" stroke="#666666" points="503.5,-30 384.5,-30 384.5,0 503.5,0 503.5,-30"/>
<text text-anchor="start" x="392.5" y="-18" font-family="Helvetica,sans-Serif" font-size="10.00">peg::FindLiteralToken</text>
<text text-anchor="middle" x="444" y="-7" font-family="Helvetica,sans-Serif" font-size="10.00">::token</text>
</a>
</g>
</g>
<!-- Node10&#45;&gt;Node13 -->
<g id="edge12_Node000010_Node000013" class="edge">
<title>Node10&#45;&gt;Node13</title>
<g id="a_edge12_Node000010_Node000013"><a xlink:title=" ">
<path fill="none" stroke="#63b8ff" d="M319.36,-96.38C325.23,-94.14 330.9,-91.39 336,-88 358.5,-73.03 350.19,-54.95 372,-39 375.18,-36.68 378.59,-34.57 382.15,-32.65"/>
<polygon fill="#63b8ff" stroke="#63b8ff" points="387.08,-30.16 383.63,-34.43 384.85,-31.29 382.62,-32.42 382.62,-32.42 382.62,-32.42 384.85,-31.29 381.6,-30.41 387.08,-30.16 387.08,-30.16"/>
</a>
</g>
</g>
<!-- Node14 -->
<g id="Node000014" class="node">
<title>Node14</title>
<g id="a_Node000014"><a xlink:href="../../d2/d66/classpeg_1_1Ope.html#af57615cfe8938c0f4c9a0dd6df9da560" target="_top" xlink:title=" ">
<polygon fill="white" stroke="#666666" points="650,-24.5 552,-24.5 552,-5.5 650,-5.5 650,-24.5"/>
<text text-anchor="middle" x="601" y="-12.5" font-family="Helvetica,sans-Serif" font-size="10.00">peg::Ope::accept</text>
</a>
</g>
</g>
<!-- Node13&#45;&gt;Node14 -->
<g id="edge13_Node000013_Node000014" class="edge">
<title>Node13&#45;&gt;Node14</title>
<g id="a_edge13_Node000013_Node000014"><a xlink:title=" ">
<path fill="none" stroke="#63b8ff" d="M503.6,-15C517.8,-15 532.9,-15 546.84,-15"/>
<polygon fill="#63b8ff" stroke="#63b8ff" points="551.92,-15 546.92,-17.25 549.42,-15 546.92,-15 546.92,-15 546.92,-15 549.42,-15 546.92,-12.75 551.92,-15 551.92,-15"/>
</a>
</g>
</g>
</g>
</svg>

<g id="navigator" transform="translate(0 0)" fill="#404254">
  <rect fill="#f2f5e9" fill-opacity="0.5" stroke="#606060" stroke-width=".5" x="0" y="0" width="60" height="60"/>
  <use id="zoomplus" xlink:href="#zoomPlus" x="17" y="9" onmousedown="handleZoom(evt,'in')"/>
  <use id="zoomminus" xlink:href="#zoomMin" x="42" y="9" onmousedown="handleZoom(evt,'out')"/>
  <use id="reset" xlink:href="#resetDef" x="30" y="36" onmousedown="handleReset()"/>
   <use id="arrowup" xlink:href="#arrowUp" x="0" y="0" onmousedown="handlePan(0,-1)"/>
  <use id="arrowright" xlink:href="#arrowRight" x="0" y="0" onmousedown="handlePan(1,0)"/>
  <use id="arrowdown" xlink:href="#arrowDown" x="0" y="0" onmousedown="handlePan(0,1)"/>
  <use id="arrowleft" xlink:href="#arrowLeft" x="0" y="0" onmousedown="handlePan(-1,0)"/>
</g>
<svg viewBox="0 0 15 15" width="100%" height="30px" preserveAspectRatio="xMaxYMin meet">
 <g id="arrow_out" transform="scale(0.3 0.3)">
  <a xlink:href="classpeg_1_1Dictionary_a9d32f2e78fe7878112ddf022fa9c1a1e_cgraph_org.svg" target="_base">
   <rect id="button" ry="5" rx="5" y="6" x="6" height="38" width="38"
        fill="#f2f5e9" fill-opacity="0.5" stroke="#606060" stroke-width="1.0"/>
   <path id="arrow"
     d="M 11.500037,31.436501 C 11.940474,20.09759 22.043105,11.32322 32.158766,21.979434 L 37.068811,17.246167 C 37.068811,17.246167 37.088388,32 37.088388,32 L 22.160133,31.978069 C 22.160133,31.978069 26.997745,27.140456 26.997745,27.140456 C 18.528582,18.264221 13.291696,25.230495 11.500037,31.436501 z"
     style="fill:#404040;"/>
  </a>
 </g>
</svg>

<style type='text/css'>
<![CDATA[
[data-mouse-over-selected='false'] { opacity: 0.7; }
[data-mouse-over-selected='true']  { opacity: 1.0; }
]]>
</style>
<script type="application/ecmascript"><![CDATA[
document.addEventListener('DOMContentLoaded', (event) => {
  highlightEdges();
  highlightAdjacentNodes();
});
]]></script>
</svg>
