<?xml version="1.0" encoding="UTF-8" standalone="no"?>
<!DOCTYPE svg PUBLIC "-//W3C//DTD SVG 1.1//EN"
 "http://www.w3.org/Graphics/SVG/1.1/DTD/svg11.dtd">
<!-- Generated by graphviz version 2.43.0 (0)
 -->
<!-- Title: cockatrice/src/card/card_set.cpp Pages: 1 -->
<svg width="1887pt" height="258pt"
 viewBox="0.00 0.00 1886.66 258.00" xmlns="http://www.w3.org/2000/svg" xmlns:xlink="http://www.w3.org/1999/xlink">
<g id="graph0" class="graph" transform="scale(1 1) rotate(0) translate(4 254)">
<title>cockatrice/src/card/card_set.cpp</title>
<!-- Node1 -->
<g id="Node000001" class="node">
<title>Node1</title>
<g id="a_Node000001"><a xlink:title=" ">
<polygon fill="#999999" stroke="#666666" points="686,-250 579,-250 579,-220 686,-220 686,-250"/>
<text text-anchor="start" x="587" y="-238" font-family="Helvetica,sans-Serif" font-size="10.00">cockatrice/src/card</text>
<text text-anchor="middle" x="632.5" y="-227" font-family="Helvetica,sans-Serif" font-size="10.00">/card_set.cpp</text>
</a>
</g>
</g>
<!-- Node2 -->
<g id="Node000002" class="node">
<title>Node2</title>
<g id="a_Node000002"><a xlink:href="../../d3/dda/card__set_8h.html" target="_top" xlink:title=" ">
<polygon fill="white" stroke="#666666" points="210,-184 143,-184 143,-165 210,-165 210,-184"/>
<text text-anchor="middle" x="176.5" y="-172" font-family="Helvetica,sans-Serif" font-size="10.00">card_set.h</text>
</a>
</g>
</g>
<!-- Node1&#45;&gt;Node2 -->
<g id="edge1_Node000001_Node000002" class="edge">
<title>Node1&#45;&gt;Node2</title>
<g id="a_edge1_Node000001_Node000002"><a xlink:title=" ">
<path fill="none" stroke="#63b8ff" d="M578.85,-227.12C485.9,-215.19 297.04,-190.96 215.47,-180.5"/>
<polygon fill="#63b8ff" stroke="#63b8ff" points="210.25,-179.83 215.5,-178.23 212.73,-180.15 215.21,-180.47 215.21,-180.47 215.21,-180.47 212.73,-180.15 214.92,-182.7 210.25,-179.83 210.25,-179.83"/>
</a>
</g>
</g>
<!-- Node7 -->
<g id="Node000007" class="node">
<title>Node7</title>
<g id="a_Node000007"><a xlink:href="../../dc/db3/cache__settings_8h.html" target="_top" xlink:title="TODO: Document this.">
<polygon fill="white" stroke="#666666" points="1163,-184 1014,-184 1014,-165 1163,-165 1163,-184"/>
<text text-anchor="middle" x="1088.5" y="-172" font-family="Helvetica,sans-Serif" font-size="10.00">../settings/cache_settings.h</text>
</a>
</g>
</g>
<!-- Node1&#45;&gt;Node7 -->
<g id="edge6_Node000001_Node000007" class="edge">
<title>Node1&#45;&gt;Node7</title>
<g id="a_edge6_Node000001_Node000007"><a xlink:title=" ">
<path fill="none" stroke="#63b8ff" d="M686.15,-227.12C768.29,-216.58 925.32,-196.43 1017.03,-184.67"/>
<polygon fill="#63b8ff" stroke="#63b8ff" points="1022.16,-184.01 1017.49,-186.88 1019.68,-184.33 1017.21,-184.65 1017.21,-184.65 1017.21,-184.65 1019.68,-184.33 1016.92,-182.41 1022.16,-184.01 1022.16,-184.01"/>
</a>
</g>
</g>
<!-- Node3 -->
<g id="Node000003" class="node">
<title>Node3</title>
<g id="a_Node000003"><a xlink:title=" ">
<polygon fill="#e0e0e0" stroke="#999999" points="288,-129 241,-129 241,-110 288,-110 288,-129"/>
<text text-anchor="middle" x="264.5" y="-117" font-family="Helvetica,sans-Serif" font-size="10.00">QDate</text>
</a>
</g>
</g>
<!-- Node2&#45;&gt;Node3 -->
<g id="edge2_Node000002_Node000003" class="edge">
<title>Node2&#45;&gt;Node3</title>
<g id="a_edge2_Node000002_Node000003"><a xlink:title=" ">
<path fill="none" stroke="#63b8ff" d="M190.64,-164.98C205.56,-156 229.16,-141.79 245.65,-131.85"/>
<polygon fill="#63b8ff" stroke="#63b8ff" points="250.1,-129.17 246.98,-133.68 247.96,-130.46 245.82,-131.75 245.82,-131.75 245.82,-131.75 247.96,-130.46 244.66,-129.82 250.1,-129.17 250.1,-129.17"/>
</a>
</g>
</g>
<!-- Node4 -->
<g id="Node000004" class="node">
<title>Node4</title>
<g id="a_Node000004"><a xlink:title=" ">
<polygon fill="#e0e0e0" stroke="#999999" points="112,-129 71,-129 71,-110 112,-110 112,-129"/>
<text text-anchor="middle" x="91.5" y="-117" font-family="Helvetica,sans-Serif" font-size="10.00">QList</text>
</a>
</g>
</g>
<!-- Node2&#45;&gt;Node4 -->
<g id="edge3_Node000002_Node000004" class="edge">
<title>Node2&#45;&gt;Node4</title>
<g id="a_edge3_Node000002_Node000004"><a xlink:title=" ">
<path fill="none" stroke="#63b8ff" d="M162.84,-164.98C148.43,-156 125.64,-141.79 109.7,-131.85"/>
<polygon fill="#63b8ff" stroke="#63b8ff" points="105.41,-129.17 110.84,-129.91 107.53,-130.49 109.65,-131.82 109.65,-131.82 109.65,-131.82 107.53,-130.49 108.46,-133.73 105.41,-129.17 105.41,-129.17"/>
</a>
</g>
</g>
<!-- Node5 -->
<g id="Node000005" class="node">
<title>Node5</title>
<g id="a_Node000005"><a xlink:title=" ">
<polygon fill="#e0e0e0" stroke="#999999" points="222.5,-129 130.5,-129 130.5,-110 222.5,-110 222.5,-129"/>
<text text-anchor="middle" x="176.5" y="-117" font-family="Helvetica,sans-Serif" font-size="10.00">QSharedPointer</text>
</a>
</g>
</g>
<!-- Node2&#45;&gt;Node5 -->
<g id="edge4_Node000002_Node000005" class="edge">
<title>Node2&#45;&gt;Node5</title>
<g id="a_edge4_Node000002_Node000005"><a xlink:title=" ">
<path fill="none" stroke="#63b8ff" d="M176.5,-164.75C176.5,-156.41 176.5,-143.74 176.5,-134.09"/>
<polygon fill="#63b8ff" stroke="#63b8ff" points="176.5,-129.09 178.75,-134.09 176.5,-131.59 176.5,-134.09 176.5,-134.09 176.5,-134.09 176.5,-131.59 174.25,-134.09 176.5,-129.09 176.5,-129.09"/>
</a>
</g>
</g>
<!-- Node6 -->
<g id="Node000006" class="node">
<title>Node6</title>
<g id="a_Node000006"><a xlink:title=" ">
<polygon fill="#e0e0e0" stroke="#999999" points="53,-129 0,-129 0,-110 53,-110 53,-129"/>
<text text-anchor="middle" x="26.5" y="-117" font-family="Helvetica,sans-Serif" font-size="10.00">QString</text>
</a>
</g>
</g>
<!-- Node2&#45;&gt;Node6 -->
<g id="edge5_Node000002_Node000006" class="edge">
<title>Node2&#45;&gt;Node6</title>
<g id="a_edge5_Node000002_Node000006"><a xlink:title=" ">
<path fill="none" stroke="#63b8ff" d="M152.4,-164.98C126.1,-155.69 83.98,-140.81 55.79,-130.85"/>
<polygon fill="#63b8ff" stroke="#63b8ff" points="51.04,-129.17 56.5,-128.71 53.4,-130 55.75,-130.84 55.75,-130.84 55.75,-130.84 53.4,-130 55,-132.96 51.04,-129.17 51.04,-129.17"/>
</a>
</g>
</g>
<!-- Node7&#45;&gt;Node3 -->
<g id="edge45_Node000007_Node000003" class="edge">
<title>Node7&#45;&gt;Node3</title>
<g id="a_edge45_Node000007_Node000003"><a xlink:title=" ">
<path fill="none" stroke="#63b8ff" d="M1013.99,-174.34C872.97,-174.82 557.8,-170.6 296.5,-129 295.39,-128.82 294.27,-128.63 293.14,-128.41"/>
<polygon fill="#63b8ff" stroke="#63b8ff" points="288.15,-127.36 293.51,-126.19 290.6,-127.87 293.04,-128.39 293.04,-128.39 293.04,-128.39 290.6,-127.87 292.58,-130.59 288.15,-127.36 288.15,-127.36"/>
</a>
</g>
</g>
<!-- Node8 -->
<g id="Node000008" class="node">
<title>Node8</title>
<g id="a_Node000008"><a xlink:href="../../de/d3c/macros_8h.html" target="_top" xlink:title=" ">
<polygon fill="white" stroke="#666666" points="579.5,-129 477.5,-129 477.5,-110 579.5,-110 579.5,-129"/>
<text text-anchor="middle" x="528.5" y="-117" font-family="Helvetica,sans-Serif" font-size="10.00">../utility/macros.h</text>
</a>
</g>
</g>
<!-- Node7&#45;&gt;Node8 -->
<g id="edge7_Node000007_Node000008" class="edge">
<title>Node7&#45;&gt;Node8</title>
<g id="a_edge7_Node000007_Node000008"><a xlink:title=" ">
<path fill="none" stroke="#63b8ff" d="M1013.83,-168.07C915.99,-160.68 739.14,-146.36 588.5,-129 587.22,-128.85 585.92,-128.7 584.62,-128.54"/>
<polygon fill="#63b8ff" stroke="#63b8ff" points="579.54,-127.91 584.78,-126.29 582.02,-128.22 584.5,-128.53 584.5,-128.53 584.5,-128.53 582.02,-128.22 584.23,-130.76 579.54,-127.91 579.54,-127.91"/>
</a>
</g>
</g>
<!-- Node10 -->
<g id="Node000010" class="node">
<title>Node10</title>
<g id="a_Node000010"><a xlink:href="../../d6/d0c/card__database__settings_8h.html" target="_top" xlink:title="TODO: Document this.">
<polygon fill="white" stroke="#666666" points="739,-129 598,-129 598,-110 739,-110 739,-129"/>
<text text-anchor="middle" x="668.5" y="-117" font-family="Helvetica,sans-Serif" font-size="10.00">card_database_settings.h</text>
</a>
</g>
</g>
<!-- Node7&#45;&gt;Node10 -->
<g id="edge9_Node000007_Node000010" class="edge">
<title>Node7&#45;&gt;Node10</title>
<g id="a_edge9_Node000007_Node000010"><a xlink:title=" ">
<path fill="none" stroke="#63b8ff" d="M1021.02,-164.98C944.44,-155.32 819.99,-139.62 741.28,-129.68"/>
<polygon fill="#63b8ff" stroke="#63b8ff" points="736.16,-129.04 741.4,-127.43 738.64,-129.35 741.12,-129.66 741.12,-129.66 741.12,-129.66 738.64,-129.35 740.84,-131.9 736.16,-129.04 736.16,-129.04"/>
</a>
</g>
</g>
<!-- Node12 -->
<g id="Node000012" class="node">
<title>Node12</title>
<g id="a_Node000012"><a xlink:title=" ">
<polygon fill="#e0e0e0" stroke="#999999" points="1327.5,-19 1271.5,-19 1271.5,0 1327.5,0 1327.5,-19"/>
<text text-anchor="middle" x="1299.5" y="-7" font-family="Helvetica,sans-Serif" font-size="10.00">QObject</text>
</a>
</g>
</g>
<!-- Node7&#45;&gt;Node12 -->
<g id="edge47_Node000007_Node000012" class="edge">
<title>Node7&#45;&gt;Node12</title>
<g id="a_edge47_Node000007_Node000012"><a xlink:title=" ">
<path fill="none" stroke="#63b8ff" d="M1163.03,-171.88C1350.27,-167.44 1827.14,-153.76 1850.5,-129 1863.85,-114.85 1867.29,-78.79 1841.5,-55 1804.1,-20.49 1445.34,-12.55 1332.97,-10.9"/>
<polygon fill="#63b8ff" stroke="#63b8ff" points="1327.81,-10.82 1332.84,-8.65 1330.31,-10.86 1332.81,-10.89 1332.81,-10.89 1332.81,-10.89 1330.31,-10.86 1332.78,-13.14 1327.81,-10.82 1327.81,-10.82"/>
</a>
</g>
</g>
<!-- Node14 -->
<g id="Node000014" class="node">
<title>Node14</title>
<g id="a_Node000014"><a xlink:title=" ">
<polygon fill="#e0e0e0" stroke="#999999" points="1720.5,-19 1650.5,-19 1650.5,0 1720.5,0 1720.5,-19"/>
<text text-anchor="middle" x="1685.5" y="-7" font-family="Helvetica,sans-Serif" font-size="10.00">QStringList</text>
</a>
</g>
</g>
<!-- Node7&#45;&gt;Node14 -->
<g id="edge49_Node000007_Node000014" class="edge">
<title>Node7&#45;&gt;Node14</title>
<g id="a_edge49_Node000007_Node000014"><a xlink:title=" ">
<path fill="none" stroke="#63b8ff" d="M1163.05,-171.98C1353.47,-167.75 1844.5,-154.41 1868.5,-129 1880.38,-116.42 1885.78,-82.41 1861.5,-55 1843.74,-34.95 1772,-21.91 1725.77,-15.41"/>
<polygon fill="#63b8ff" stroke="#63b8ff" points="1720.54,-14.69 1725.8,-13.14 1723.02,-15.03 1725.5,-15.37 1725.5,-15.37 1725.5,-15.37 1723.02,-15.03 1725.19,-17.6 1720.54,-14.69 1720.54,-14.69"/>
</a>
</g>
</g>
<!-- Node16 -->
<g id="Node000016" class="node">
<title>Node16</title>
<g id="a_Node000016"><a xlink:href="../../d4/d33/card__override__settings_8h.html" target="_top" xlink:title="TODO: Document this.">
<polygon fill="white" stroke="#666666" points="1841,-129 1704,-129 1704,-110 1841,-110 1841,-129"/>
<text text-anchor="middle" x="1772.5" y="-117" font-family="Helvetica,sans-Serif" font-size="10.00">card_override_settings.h</text>
</a>
</g>
</g>
<!-- Node7&#45;&gt;Node16 -->
<g id="edge18_Node000007_Node000016" class="edge">
<title>Node7&#45;&gt;Node16</title>
<g id="a_edge18_Node000007_Node000016"><a xlink:title=" ">
<path fill="none" stroke="#63b8ff" d="M1163.04,-168.66C1276.69,-161.12 1500.08,-145.71 1689.5,-129 1692.39,-128.75 1695.33,-128.48 1698.3,-128.2"/>
<polygon fill="#63b8ff" stroke="#63b8ff" points="1703.67,-127.7 1698.9,-130.41 1701.18,-127.93 1698.69,-128.17 1698.69,-128.17 1698.69,-128.17 1701.18,-127.93 1698.48,-125.93 1703.67,-127.7 1703.67,-127.7"/>
</a>
</g>
</g>
<!-- Node18 -->
<g id="Node000018" class="node">
<title>Node18</title>
<g id="a_Node000018"><a xlink:href="../../d9/d91/debug__settings_8h.html" target="_top" xlink:title="TODO: Document this.">
<polygon fill="white" stroke="#666666" points="1387.5,-129 1287.5,-129 1287.5,-110 1387.5,-110 1387.5,-129"/>
<text text-anchor="middle" x="1337.5" y="-117" font-family="Helvetica,sans-Serif" font-size="10.00">debug_settings.h</text>
</a>
</g>
</g>
<!-- Node7&#45;&gt;Node18 -->
<g id="edge22_Node000007_Node000018" class="edge">
<title>Node7&#45;&gt;Node18</title>
<g id="a_edge22_Node000007_Node000018"><a xlink:title=" ">
<path fill="none" stroke="#63b8ff" d="M1128.51,-164.98C1173.21,-155.47 1245.42,-140.1 1292.17,-130.15"/>
<polygon fill="#63b8ff" stroke="#63b8ff" points="1297.18,-129.08 1292.76,-132.32 1294.74,-129.6 1292.29,-130.12 1292.29,-130.12 1292.29,-130.12 1294.74,-129.6 1291.82,-127.92 1297.18,-129.08 1297.18,-129.08"/>
</a>
</g>
</g>
<!-- Node19 -->
<g id="Node000019" class="node">
<title>Node19</title>
<g id="a_Node000019"><a xlink:href="../../d0/de1/download__settings_8h.html" target="_top" xlink:title="TODO: Document this.">
<polygon fill="white" stroke="#666666" points="1523,-129 1406,-129 1406,-110 1523,-110 1523,-129"/>
<text text-anchor="middle" x="1464.5" y="-117" font-family="Helvetica,sans-Serif" font-size="10.00">download_settings.h</text>
</a>
</g>
</g>
<!-- Node7&#45;&gt;Node19 -->
<g id="edge24_Node000007_Node000019" class="edge">
<title>Node7&#45;&gt;Node19</title>
<g id="a_edge24_Node000007_Node000019"><a xlink:title=" ">
<path fill="none" stroke="#63b8ff" d="M1148.91,-164.98C1217.94,-155.25 1330.42,-139.4 1400.79,-129.48"/>
<polygon fill="#63b8ff" stroke="#63b8ff" points="1405.79,-128.78 1401.15,-131.7 1403.31,-129.13 1400.84,-129.47 1400.84,-129.47 1400.84,-129.47 1403.31,-129.13 1400.52,-127.25 1405.79,-128.78 1405.79,-128.78"/>
</a>
</g>
</g>
<!-- Node20 -->
<g id="Node000020" class="node">
<title>Node20</title>
<g id="a_Node000020"><a xlink:href="../../d9/dfd/game__filters__settings_8h.html" target="_top" xlink:title="TODO: Document this.">
<polygon fill="white" stroke="#666666" points="1013,-129 882,-129 882,-110 1013,-110 1013,-129"/>
<text text-anchor="middle" x="947.5" y="-117" font-family="Helvetica,sans-Serif" font-size="10.00">game_filters_settings.h</text>
</a>
</g>
</g>
<!-- Node7&#45;&gt;Node20 -->
<g id="edge27_Node000007_Node000020" class="edge">
<title>Node7&#45;&gt;Node20</title>
<g id="a_edge27_Node000007_Node000020"><a xlink:title=" ">
<path fill="none" stroke="#63b8ff" d="M1065.85,-164.98C1041.22,-155.73 1001.85,-140.93 975.36,-130.97"/>
<polygon fill="#63b8ff" stroke="#63b8ff" points="970.57,-129.17 976.04,-128.82 972.91,-130.05 975.25,-130.93 975.25,-130.93 975.25,-130.93 972.91,-130.05 974.45,-133.04 970.57,-129.17 970.57,-129.17"/>
</a>
</g>
</g>
<!-- Node21 -->
<g id="Node000021" class="node">
<title>Node21</title>
<g id="a_Node000021"><a xlink:href="../../d9/df1/layouts__settings_8h.html" target="_top" xlink:title="TODO: Document this.">
<polygon fill="white" stroke="#666666" points="1647.5,-129 1541.5,-129 1541.5,-110 1647.5,-110 1647.5,-129"/>
<text text-anchor="middle" x="1594.5" y="-117" font-family="Helvetica,sans-Serif" font-size="10.00">layouts_settings.h</text>
</a>
</g>
</g>
<!-- Node7&#45;&gt;Node21 -->
<g id="edge29_Node000007_Node000021" class="edge">
<title>Node7&#45;&gt;Node21</title>
<g id="a_edge29_Node000007_Node000021"><a xlink:title=" ">
<path fill="none" stroke="#63b8ff" d="M1163.22,-166.85C1251.53,-158.79 1402.87,-144.38 1532.5,-129 1533.77,-128.85 1535.06,-128.69 1536.36,-128.53"/>
<polygon fill="#63b8ff" stroke="#63b8ff" points="1541.42,-127.91 1536.73,-130.76 1538.94,-128.22 1536.45,-128.52 1536.45,-128.52 1536.45,-128.52 1538.94,-128.22 1536.18,-126.29 1541.42,-127.91 1541.42,-127.91"/>
</a>
</g>
</g>
<!-- Node22 -->
<g id="Node000022" class="node">
<title>Node22</title>
<g id="a_Node000022"><a xlink:title=" ">
<polygon fill="#e0e0e0" stroke="#999999" points="1626.5,-74 1582.5,-74 1582.5,-55 1626.5,-55 1626.5,-74"/>
<text text-anchor="middle" x="1604.5" y="-62" font-family="Helvetica,sans-Serif" font-size="10.00">QSize</text>
</a>
</g>
</g>
<!-- Node7&#45;&gt;Node22 -->
<g id="edge48_Node000007_Node000022" class="edge">
<title>Node7&#45;&gt;Node22</title>
<g id="a_edge48_Node000007_Node000022"><a xlink:title=" ">
<path fill="none" stroke="#63b8ff" d="M1163.18,-173.17C1309.73,-171.73 1623.68,-164.49 1656.5,-129 1672.67,-111.52 1645.57,-89.8 1624.8,-76.83"/>
<polygon fill="#63b8ff" stroke="#63b8ff" points="1620.48,-74.2 1625.92,-74.88 1622.62,-75.5 1624.75,-76.8 1624.75,-76.8 1624.75,-76.8 1622.62,-75.5 1623.58,-78.72 1620.48,-74.2 1620.48,-74.2"/>
</a>
</g>
</g>
<!-- Node23 -->
<g id="Node000023" class="node">
<title>Node23</title>
<g id="a_Node000023"><a xlink:href="../../db/d2c/message__settings_8h.html" target="_top" xlink:title="TODO: Document this.">
<polygon fill="white" stroke="#666666" points="1145.5,-129 1031.5,-129 1031.5,-110 1145.5,-110 1145.5,-129"/>
<text text-anchor="middle" x="1088.5" y="-117" font-family="Helvetica,sans-Serif" font-size="10.00">message_settings.h</text>
</a>
</g>
</g>
<!-- Node7&#45;&gt;Node23 -->
<g id="edge32_Node000007_Node000023" class="edge">
<title>Node7&#45;&gt;Node23</title>
<g id="a_edge32_Node000007_Node000023"><a xlink:title=" ">
<path fill="none" stroke="#63b8ff" d="M1088.5,-164.75C1088.5,-156.41 1088.5,-143.74 1088.5,-134.09"/>
<polygon fill="#63b8ff" stroke="#63b8ff" points="1088.5,-129.09 1090.75,-134.09 1088.5,-131.59 1088.5,-134.09 1088.5,-134.09 1088.5,-134.09 1088.5,-131.59 1086.25,-134.09 1088.5,-129.09 1088.5,-129.09"/>
</a>
</g>
</g>
<!-- Node24 -->
<g id="Node000024" class="node">
<title>Node24</title>
<g id="a_Node000024"><a xlink:href="../../db/daf/recents__settings_8h.html" target="_top" xlink:title="TODO: Document this.">
<polygon fill="white" stroke="#666666" points="1269.5,-129 1163.5,-129 1163.5,-110 1269.5,-110 1269.5,-129"/>
<text text-anchor="middle" x="1216.5" y="-117" font-family="Helvetica,sans-Serif" font-size="10.00">recents_settings.h</text>
</a>
</g>
</g>
<!-- Node7&#45;&gt;Node24 -->
<g id="edge34_Node000007_Node000024" class="edge">
<title>Node7&#45;&gt;Node24</title>
<g id="a_edge34_Node000007_Node000024"><a xlink:title=" ">
<path fill="none" stroke="#63b8ff" d="M1109.07,-164.98C1131.33,-155.77 1166.86,-141.05 1190.91,-131.1"/>
<polygon fill="#63b8ff" stroke="#63b8ff" points="1195.56,-129.17 1191.8,-133.16 1193.25,-130.13 1190.94,-131.08 1190.94,-131.08 1190.94,-131.08 1193.25,-130.13 1190.08,-129 1195.56,-129.17 1195.56,-129.17"/>
</a>
</g>
</g>
<!-- Node25 -->
<g id="Node000025" class="node">
<title>Node25</title>
<g id="a_Node000025"><a xlink:href="../../db/db0/servers__settings_8h.html" target="_top" xlink:title="TODO: Document this.">
<polygon fill="white" stroke="#666666" points="863.5,-129 757.5,-129 757.5,-110 863.5,-110 863.5,-129"/>
<text text-anchor="middle" x="810.5" y="-117" font-family="Helvetica,sans-Serif" font-size="10.00">servers_settings.h</text>
</a>
</g>
</g>
<!-- Node7&#45;&gt;Node25 -->
<g id="edge36_Node000007_Node000025" class="edge">
<title>Node7&#45;&gt;Node25</title>
<g id="a_edge36_Node000007_Node000025"><a xlink:title=" ">
<path fill="none" stroke="#63b8ff" d="M1043.83,-164.98C993.73,-155.43 912.65,-139.97 860.47,-130.03"/>
<polygon fill="#63b8ff" stroke="#63b8ff" points="855.52,-129.08 860.85,-127.81 857.97,-129.55 860.43,-130.02 860.43,-130.02 860.43,-130.02 857.97,-129.55 860.01,-132.23 855.52,-129.08 855.52,-129.08"/>
</a>
</g>
</g>
<!-- Node26 -->
<g id="Node000026" class="node">
<title>Node26</title>
<g id="a_Node000026"><a xlink:title=" ">
<polygon fill="#e0e0e0" stroke="#999999" points="548,-74 441,-74 441,-55 548,-55 548,-74"/>
<text text-anchor="middle" x="494.5" y="-62" font-family="Helvetica,sans-Serif" font-size="10.00">QLoggingCategory</text>
</a>
</g>
</g>
<!-- Node7&#45;&gt;Node26 -->
<g id="edge46_Node000007_Node000026" class="edge">
<title>Node7&#45;&gt;Node26</title>
<g id="a_edge46_Node000007_Node000026"><a xlink:title=" ">
<path fill="none" stroke="#63b8ff" d="M1013.94,-173.71C857.21,-173.36 504.96,-168.18 468.5,-129 455.11,-114.62 469.77,-92.41 481.89,-78.43"/>
<polygon fill="#63b8ff" stroke="#63b8ff" points="485.54,-74.37 483.87,-79.59 483.86,-76.23 482.19,-78.09 482.19,-78.09 482.19,-78.09 483.86,-76.23 480.52,-76.59 485.54,-74.37 485.54,-74.37"/>
</a>
</g>
</g>
<!-- Node27 -->
<g id="Node000027" class="node">
<title>Node27</title>
<g id="a_Node000027"><a xlink:href="../../d0/dfd/shortcuts__settings_8h.html" target="_top" xlink:title="TODO: Document this.">
<polygon fill="white" stroke="#666666" points="421,-129 306,-129 306,-110 421,-110 421,-129"/>
<text text-anchor="middle" x="363.5" y="-117" font-family="Helvetica,sans-Serif" font-size="10.00">shortcuts_settings.h</text>
</a>
</g>
</g>
<!-- Node7&#45;&gt;Node27 -->
<g id="edge40_Node000007_Node000027" class="edge">
<title>Node7&#45;&gt;Node27</title>
<g id="a_edge40_Node000007_Node000027"><a xlink:title=" ">
<path fill="none" stroke="#63b8ff" d="M1013.98,-169.62C892.62,-163.04 644.81,-148.48 435.5,-129 432.6,-128.73 429.64,-128.44 426.65,-128.14"/>
<polygon fill="#63b8ff" stroke="#63b8ff" points="421.24,-127.57 426.45,-125.85 423.73,-127.83 426.22,-128.09 426.22,-128.09 426.22,-128.09 423.73,-127.83 425.98,-130.33 421.24,-127.57 421.24,-127.57"/>
</a>
</g>
</g>
<!-- Node9 -->
<g id="Node000009" class="node">
<title>Node9</title>
<g id="a_Node000009"><a xlink:title=" ">
<polygon fill="#e0e0e0" stroke="#999999" points="625,-74 566,-74 566,-55 625,-55 625,-74"/>
<text text-anchor="middle" x="595.5" y="-62" font-family="Helvetica,sans-Serif" font-size="10.00">QtGlobal</text>
</a>
</g>
</g>
<!-- Node8&#45;&gt;Node9 -->
<g id="edge8_Node000008_Node000009" class="edge">
<title>Node8&#45;&gt;Node9</title>
<g id="a_edge8_Node000008_Node000009"><a xlink:title=" ">
<path fill="none" stroke="#63b8ff" d="M539.26,-109.98C550.43,-101.15 567.98,-87.27 580.5,-77.36"/>
<polygon fill="#63b8ff" stroke="#63b8ff" points="584.54,-74.17 582.01,-79.04 582.58,-75.72 580.62,-77.27 580.62,-77.27 580.62,-77.27 582.58,-75.72 579.22,-75.51 584.54,-74.17 584.54,-74.17"/>
</a>
</g>
</g>
<!-- Node11 -->
<g id="Node000011" class="node">
<title>Node11</title>
<g id="a_Node000011"><a xlink:href="../../d2/d62/settings__manager_8h.html" target="_top" xlink:title="TODO: Document this.">
<polygon fill="white" stroke="#666666" points="1273,-74 1160,-74 1160,-55 1273,-55 1273,-74"/>
<text text-anchor="middle" x="1216.5" y="-62" font-family="Helvetica,sans-Serif" font-size="10.00">settings_manager.h</text>
</a>
</g>
</g>
<!-- Node10&#45;&gt;Node11 -->
<g id="edge10_Node000010_Node000011" class="edge">
<title>Node10&#45;&gt;Node11</title>
<g id="a_edge10_Node000010_Node000011"><a xlink:title=" ">
<path fill="none" stroke="#63b8ff" d="M739.17,-110.95C742.32,-110.63 745.44,-110.31 748.5,-110 894.15,-95.34 1065.44,-79.38 1154.94,-71.13"/>
<polygon fill="#63b8ff" stroke="#63b8ff" points="1159.93,-70.68 1155.16,-73.37 1157.44,-70.9 1154.95,-71.13 1154.95,-71.13 1154.95,-71.13 1157.44,-70.9 1154.74,-68.89 1159.93,-70.68 1159.93,-70.68"/>
</a>
</g>
</g>
<!-- Node10&#45;&gt;Node12 -->
<g id="edge15_Node000010_Node000012" class="edge">
<title>Node10&#45;&gt;Node12</title>
<g id="a_edge15_Node000010_Node000012"><a xlink:title=" ">
<path fill="none" stroke="#63b8ff" d="M714.56,-109.96C782.06,-97.51 911.85,-73.81 1022.5,-55 1110.24,-40.08 1213.85,-23.79 1265.97,-15.68"/>
<polygon fill="#63b8ff" stroke="#63b8ff" points="1271.16,-14.88 1266.56,-17.87 1268.69,-15.26 1266.22,-15.65 1266.22,-15.65 1266.22,-15.65 1268.69,-15.26 1265.87,-13.42 1271.16,-14.88 1271.16,-14.88"/>
</a>
</g>
</g>
<!-- Node13 -->
<g id="Node000013" class="node">
<title>Node13</title>
<g id="a_Node000013"><a xlink:title=" ">
<polygon fill="#e0e0e0" stroke="#999999" points="700.5,-19 636.5,-19 636.5,0 700.5,0 700.5,-19"/>
<text text-anchor="middle" x="668.5" y="-7" font-family="Helvetica,sans-Serif" font-size="10.00">QSettings</text>
</a>
</g>
</g>
<!-- Node10&#45;&gt;Node13 -->
<g id="edge16_Node000010_Node000013" class="edge">
<title>Node10&#45;&gt;Node13</title>
<g id="a_edge16_Node000010_Node000013"><a xlink:title=" ">
<path fill="none" stroke="#63b8ff" d="M668.5,-109.66C668.5,-90.9 668.5,-46.96 668.5,-24.4"/>
<polygon fill="#63b8ff" stroke="#63b8ff" points="668.5,-19.16 670.75,-24.16 668.5,-21.66 668.5,-24.16 668.5,-24.16 668.5,-24.16 668.5,-21.66 666.25,-24.16 668.5,-19.16 668.5,-19.16"/>
</a>
</g>
</g>
<!-- Node15 -->
<g id="Node000015" class="node">
<title>Node15</title>
<g id="a_Node000015"><a xlink:title=" ">
<polygon fill="#e0e0e0" stroke="#999999" points="1031,-19 972,-19 972,0 1031,0 1031,-19"/>
<text text-anchor="middle" x="1001.5" y="-7" font-family="Helvetica,sans-Serif" font-size="10.00">QVariant</text>
</a>
</g>
</g>
<!-- Node10&#45;&gt;Node15 -->
<g id="edge17_Node000010_Node000015" class="edge">
<title>Node10&#45;&gt;Node15</title>
<g id="a_edge17_Node000010_Node000015"><a xlink:title=" ">
<path fill="none" stroke="#63b8ff" d="M691.51,-109.99C725.77,-97.42 792.28,-73.4 849.5,-55 889.63,-42.1 936.2,-28.69 967.11,-20.01"/>
<polygon fill="#63b8ff" stroke="#63b8ff" points="971.94,-18.66 967.73,-22.17 969.53,-19.33 967.12,-20.01 967.12,-20.01 967.12,-20.01 969.53,-19.33 966.51,-17.84 971.94,-18.66 971.94,-18.66"/>
</a>
</g>
</g>
<!-- Node11&#45;&gt;Node12 -->
<g id="edge11_Node000011_Node000012" class="edge">
<title>Node11&#45;&gt;Node12</title>
<g id="a_edge11_Node000011_Node000012"><a xlink:title=" ">
<path fill="none" stroke="#63b8ff" d="M1229.84,-54.98C1243.79,-46.07 1265.79,-32.03 1281.32,-22.11"/>
<polygon fill="#63b8ff" stroke="#63b8ff" points="1285.92,-19.17 1282.92,-23.76 1283.81,-20.52 1281.71,-21.86 1281.71,-21.86 1281.71,-21.86 1283.81,-20.52 1280.5,-19.96 1285.92,-19.17 1285.92,-19.17"/>
</a>
</g>
</g>
<!-- Node11&#45;&gt;Node13 -->
<g id="edge12_Node000011_Node000013" class="edge">
<title>Node11&#45;&gt;Node13</title>
<g id="a_edge12_Node000011_Node000013"><a xlink:title=" ">
<path fill="none" stroke="#63b8ff" d="M1159.92,-58.03C1047.73,-47.18 799.83,-23.2 705.72,-14.1"/>
<polygon fill="#63b8ff" stroke="#63b8ff" points="700.55,-13.6 705.74,-11.84 703.04,-13.84 705.53,-14.08 705.53,-14.08 705.53,-14.08 703.04,-13.84 705.31,-16.32 700.55,-13.6 700.55,-13.6"/>
</a>
</g>
</g>
<!-- Node11&#45;&gt;Node14 -->
<g id="edge13_Node000011_Node000014" class="edge">
<title>Node11&#45;&gt;Node14</title>
<g id="a_edge13_Node000011_Node000014"><a xlink:title=" ">
<path fill="none" stroke="#63b8ff" d="M1273.07,-57.11C1369.03,-46.26 1561.4,-24.52 1645.08,-15.07"/>
<polygon fill="#63b8ff" stroke="#63b8ff" points="1650.43,-14.46 1645.72,-17.26 1647.95,-14.74 1645.46,-15.02 1645.46,-15.02 1645.46,-15.02 1647.95,-14.74 1645.21,-12.79 1650.43,-14.46 1650.43,-14.46"/>
</a>
</g>
</g>
<!-- Node11&#45;&gt;Node15 -->
<g id="edge14_Node000011_Node000015" class="edge">
<title>Node11&#45;&gt;Node15</title>
<g id="a_edge14_Node000011_Node000015"><a xlink:title=" ">
<path fill="none" stroke="#63b8ff" d="M1181.96,-54.98C1141.97,-45.13 1076.48,-28.98 1036.36,-19.09"/>
<polygon fill="#63b8ff" stroke="#63b8ff" points="1031.11,-17.8 1036.51,-16.81 1033.54,-18.4 1035.97,-19 1035.97,-19 1035.97,-19 1033.54,-18.4 1035.43,-21.18 1031.11,-17.8 1031.11,-17.8"/>
</a>
</g>
</g>
<!-- Node16&#45;&gt;Node11 -->
<g id="edge20_Node000016_Node000011" class="edge">
<title>Node16&#45;&gt;Node11</title>
<g id="a_edge20_Node000016_Node000011"><a xlink:title=" ">
<path fill="none" stroke="#63b8ff" d="M1703.77,-111.95C1594.62,-101.54 1383.33,-81.4 1278.54,-71.41"/>
<polygon fill="#63b8ff" stroke="#63b8ff" points="1273.32,-70.92 1278.51,-69.15 1275.81,-71.15 1278.3,-71.39 1278.3,-71.39 1278.3,-71.39 1275.81,-71.15 1278.09,-73.63 1273.32,-70.92 1273.32,-70.92"/>
</a>
</g>
</g>
<!-- Node16&#45;&gt;Node12 -->
<g id="edge21_Node000016_Node000012" class="edge">
<title>Node16&#45;&gt;Node12</title>
<g id="a_edge21_Node000016_Node000012"><a xlink:title=" ">
<path fill="none" stroke="#63b8ff" d="M1757.87,-109.91C1733.43,-95.96 1682.32,-68.61 1635.5,-55 1527.72,-23.67 1394.02,-14.33 1332.86,-11.59"/>
<polygon fill="#63b8ff" stroke="#63b8ff" points="1327.52,-11.36 1332.61,-9.33 1330.02,-11.47 1332.52,-11.58 1332.52,-11.58 1332.52,-11.58 1330.02,-11.47 1332.42,-13.83 1327.52,-11.36 1327.52,-11.36"/>
</a>
</g>
</g>
<!-- Node17 -->
<g id="Node000017" class="node">
<title>Node17</title>
<g id="a_Node000017"><a xlink:title=" ">
<polygon fill="#e0e0e0" stroke="#999999" points="1832,-74 1713,-74 1713,-55 1832,-55 1832,-74"/>
<text text-anchor="middle" x="1772.5" y="-62" font-family="Helvetica,sans-Serif" font-size="10.00">../common/card_ref.h</text>
</a>
</g>
</g>
<!-- Node16&#45;&gt;Node17 -->
<g id="edge19_Node000016_Node000017" class="edge">
<title>Node16&#45;&gt;Node17</title>
<g id="a_edge19_Node000016_Node000017"><a xlink:title=" ">
<path fill="none" stroke="#63b8ff" d="M1772.5,-109.75C1772.5,-101.41 1772.5,-88.74 1772.5,-79.09"/>
<polygon fill="#63b8ff" stroke="#63b8ff" points="1772.5,-74.09 1774.75,-79.09 1772.5,-76.59 1772.5,-79.09 1772.5,-79.09 1772.5,-79.09 1772.5,-76.59 1770.25,-79.09 1772.5,-74.09 1772.5,-74.09"/>
</a>
</g>
</g>
<!-- Node18&#45;&gt;Node11 -->
<g id="edge23_Node000018_Node000011" class="edge">
<title>Node18&#45;&gt;Node11</title>
<g id="a_edge23_Node000018_Node000011"><a xlink:title=" ">
<path fill="none" stroke="#63b8ff" d="M1318.06,-109.98C1297.1,-100.81 1263.7,-86.18 1240.97,-76.22"/>
<polygon fill="#63b8ff" stroke="#63b8ff" points="1236.29,-74.17 1241.78,-74.12 1238.58,-75.17 1240.87,-76.18 1240.87,-76.18 1240.87,-76.18 1238.58,-75.17 1239.97,-78.24 1236.29,-74.17 1236.29,-74.17"/>
</a>
</g>
</g>
<!-- Node19&#45;&gt;Node11 -->
<g id="edge25_Node000019_Node000011" class="edge">
<title>Node19&#45;&gt;Node11</title>
<g id="a_edge25_Node000019_Node000011"><a xlink:title=" ">
<path fill="none" stroke="#63b8ff" d="M1424.65,-109.98C1380.13,-100.47 1308.21,-85.1 1261.64,-75.15"/>
<polygon fill="#63b8ff" stroke="#63b8ff" points="1256.66,-74.08 1262.02,-72.93 1259.1,-74.6 1261.55,-75.13 1261.55,-75.13 1261.55,-75.13 1259.1,-74.6 1261.08,-77.33 1256.66,-74.08 1256.66,-74.08"/>
</a>
</g>
</g>
<!-- Node19&#45;&gt;Node12 -->
<g id="edge26_Node000019_Node000012" class="edge">
<title>Node19&#45;&gt;Node12</title>
<g id="a_edge26_Node000019_Node000012"><a xlink:title=" ">
<path fill="none" stroke="#63b8ff" d="M1451.28,-109.84C1421.71,-90.49 1350.25,-43.72 1317.02,-21.97"/>
<polygon fill="#63b8ff" stroke="#63b8ff" points="1312.79,-19.2 1318.2,-20.05 1314.88,-20.57 1316.97,-21.94 1316.97,-21.94 1316.97,-21.94 1314.88,-20.57 1315.74,-23.82 1312.79,-19.2 1312.79,-19.2"/>
</a>
</g>
</g>
<!-- Node20&#45;&gt;Node11 -->
<g id="edge28_Node000020_Node000011" class="edge">
<title>Node20&#45;&gt;Node11</title>
<g id="a_edge28_Node000020_Node000011"><a xlink:title=" ">
<path fill="none" stroke="#63b8ff" d="M990.72,-109.98C1039.11,-100.45 1117.34,-85.04 1167.84,-75.09"/>
<polygon fill="#63b8ff" stroke="#63b8ff" points="1172.94,-74.08 1168.47,-77.26 1170.49,-74.57 1168.04,-75.05 1168.04,-75.05 1168.04,-75.05 1170.49,-74.57 1167.6,-72.84 1172.94,-74.08 1172.94,-74.08"/>
</a>
</g>
</g>
<!-- Node21&#45;&gt;Node11 -->
<g id="edge30_Node000021_Node000011" class="edge">
<title>Node21&#45;&gt;Node11</title>
<g id="a_edge30_Node000021_Node000011"><a xlink:title=" ">
<path fill="none" stroke="#63b8ff" d="M1541.14,-111.02C1471.98,-101.32 1351.6,-84.44 1278.47,-74.19"/>
<polygon fill="#63b8ff" stroke="#63b8ff" points="1273.29,-73.46 1278.55,-71.93 1275.76,-73.81 1278.24,-74.16 1278.24,-74.16 1278.24,-74.16 1275.76,-73.81 1277.93,-76.38 1273.29,-73.46 1273.29,-73.46"/>
</a>
</g>
</g>
<!-- Node21&#45;&gt;Node22 -->
<g id="edge31_Node000021_Node000022" class="edge">
<title>Node21&#45;&gt;Node22</title>
<g id="a_edge31_Node000021_Node000022"><a xlink:title=" ">
<path fill="none" stroke="#63b8ff" d="M1596.15,-109.75C1597.72,-101.41 1600.11,-88.74 1601.94,-79.09"/>
<polygon fill="#63b8ff" stroke="#63b8ff" points="1602.88,-74.09 1604.16,-79.42 1602.42,-76.55 1601.95,-79 1601.95,-79 1601.95,-79 1602.42,-76.55 1599.74,-78.59 1602.88,-74.09 1602.88,-74.09"/>
</a>
</g>
</g>
<!-- Node23&#45;&gt;Node11 -->
<g id="edge33_Node000023_Node000011" class="edge">
<title>Node23&#45;&gt;Node11</title>
<g id="a_edge33_Node000023_Node000011"><a xlink:title=" ">
<path fill="none" stroke="#63b8ff" d="M1109.07,-109.98C1131.33,-100.77 1166.86,-86.05 1190.91,-76.1"/>
<polygon fill="#63b8ff" stroke="#63b8ff" points="1195.56,-74.17 1191.8,-78.16 1193.25,-75.13 1190.94,-76.08 1190.94,-76.08 1190.94,-76.08 1193.25,-75.13 1190.08,-74 1195.56,-74.17 1195.56,-74.17"/>
</a>
</g>
</g>
<!-- Node24&#45;&gt;Node11 -->
<g id="edge35_Node000024_Node000011" class="edge">
<title>Node24&#45;&gt;Node11</title>
<g id="a_edge35_Node000024_Node000011"><a xlink:title=" ">
<path fill="none" stroke="#63b8ff" d="M1216.5,-109.75C1216.5,-101.41 1216.5,-88.74 1216.5,-79.09"/>
<polygon fill="#63b8ff" stroke="#63b8ff" points="1216.5,-74.09 1218.75,-79.09 1216.5,-76.59 1216.5,-79.09 1216.5,-79.09 1216.5,-79.09 1216.5,-76.59 1214.25,-79.09 1216.5,-74.09 1216.5,-74.09"/>
</a>
</g>
</g>
<!-- Node25&#45;&gt;Node11 -->
<g id="edge37_Node000025_Node000011" class="edge">
<title>Node25&#45;&gt;Node11</title>
<g id="a_edge37_Node000025_Node000011"><a xlink:title=" ">
<path fill="none" stroke="#63b8ff" d="M863.6,-111.19C866.61,-110.79 869.59,-110.39 872.5,-110 971.11,-96.86 1085.7,-82.15 1154.58,-73.37"/>
<polygon fill="#63b8ff" stroke="#63b8ff" points="1159.87,-72.69 1155.2,-75.56 1157.39,-73.01 1154.91,-73.32 1154.91,-73.32 1154.91,-73.32 1157.39,-73.01 1154.63,-71.09 1159.87,-72.69 1159.87,-72.69"/>
</a>
</g>
</g>
<!-- Node25&#45;&gt;Node12 -->
<g id="edge39_Node000025_Node000012" class="edge">
<title>Node25&#45;&gt;Node12</title>
<g id="a_edge39_Node000025_Node000012"><a xlink:title=" ">
<path fill="none" stroke="#63b8ff" d="M849.28,-109.94C942.75,-89.29 1179.17,-37.08 1266.46,-17.8"/>
<polygon fill="#63b8ff" stroke="#63b8ff" points="1271.49,-16.69 1267.1,-19.96 1269.05,-17.22 1266.61,-17.76 1266.61,-17.76 1266.61,-17.76 1269.05,-17.22 1266.13,-15.57 1271.49,-16.69 1271.49,-16.69"/>
</a>
</g>
</g>
<!-- Node25&#45;&gt;Node26 -->
<g id="edge38_Node000025_Node000026" class="edge">
<title>Node25&#45;&gt;Node26</title>
<g id="a_edge38_Node000025_Node000026"><a xlink:title=" ">
<path fill="none" stroke="#63b8ff" d="M759.73,-109.98C702.57,-100.4 609.97,-84.87 550.68,-74.92"/>
<polygon fill="#63b8ff" stroke="#63b8ff" points="545.41,-74.04 550.71,-72.65 547.87,-74.45 550.34,-74.87 550.34,-74.87 550.34,-74.87 547.87,-74.45 549.97,-77.08 545.41,-74.04 545.41,-74.04"/>
</a>
</g>
</g>
<!-- Node27&#45;&gt;Node13 -->
<g id="edge44_Node000027_Node000013" class="edge">
<title>Node27&#45;&gt;Node13</title>
<g id="a_edge44_Node000027_Node000013"><a xlink:title=" ">
<path fill="none" stroke="#63b8ff" d="M305.9,-110.97C257.43,-102.35 200.06,-85.35 227.5,-55 254.37,-25.28 529.41,-14.46 631.03,-11.46"/>
<polygon fill="#63b8ff" stroke="#63b8ff" points="636.32,-11.31 631.39,-13.71 633.82,-11.38 631.32,-11.46 631.32,-11.46 631.32,-11.46 633.82,-11.38 631.26,-9.21 636.32,-11.31 636.32,-11.31"/>
</a>
</g>
</g>
<!-- Node27&#45;&gt;Node26 -->
<g id="edge43_Node000027_Node000026" class="edge">
<title>Node27&#45;&gt;Node26</title>
<g id="a_edge43_Node000027_Node000026"><a xlink:title=" ">
<path fill="none" stroke="#63b8ff" d="M384.55,-109.98C407.33,-100.77 443.7,-86.05 468.31,-76.1"/>
<polygon fill="#63b8ff" stroke="#63b8ff" points="473.07,-74.17 469.28,-78.13 470.75,-75.11 468.43,-76.05 468.43,-76.05 468.43,-76.05 470.75,-75.11 467.59,-73.96 473.07,-74.17 473.07,-74.17"/>
</a>
</g>
</g>
<!-- Node28 -->
<g id="Node000028" class="node">
<title>Node28</title>
<g id="a_Node000028"><a xlink:title=" ">
<polygon fill="#e0e0e0" stroke="#999999" points="316,-74 237,-74 237,-55 316,-55 316,-74"/>
<text text-anchor="middle" x="276.5" y="-62" font-family="Helvetica,sans-Serif" font-size="10.00">QApplication</text>
</a>
</g>
</g>
<!-- Node27&#45;&gt;Node28 -->
<g id="edge41_Node000027_Node000028" class="edge">
<title>Node27&#45;&gt;Node28</title>
<g id="a_edge41_Node000027_Node000028"><a xlink:title=" ">
<path fill="none" stroke="#63b8ff" d="M349.52,-109.98C334.77,-101 311.44,-86.79 295.13,-76.85"/>
<polygon fill="#63b8ff" stroke="#63b8ff" points="290.73,-74.17 296.17,-74.85 292.87,-75.47 295,-76.77 295,-76.77 295,-76.77 292.87,-75.47 293.83,-78.69 290.73,-74.17 290.73,-74.17"/>
</a>
</g>
</g>
<!-- Node29 -->
<g id="Node000029" class="node">
<title>Node29</title>
<g id="a_Node000029"><a xlink:title=" ">
<polygon fill="#e0e0e0" stroke="#999999" points="423,-74 334,-74 334,-55 423,-55 423,-74"/>
<text text-anchor="middle" x="378.5" y="-62" font-family="Helvetica,sans-Serif" font-size="10.00">QKeySequence</text>
</a>
</g>
</g>
<!-- Node27&#45;&gt;Node29 -->
<g id="edge42_Node000027_Node000029" class="edge">
<title>Node27&#45;&gt;Node29</title>
<g id="a_edge42_Node000027_Node000029"><a xlink:title=" ">
<path fill="none" stroke="#63b8ff" d="M365.98,-109.75C368.34,-101.41 371.92,-88.74 374.65,-79.09"/>
<polygon fill="#63b8ff" stroke="#63b8ff" points="376.07,-74.09 376.87,-79.51 375.39,-76.49 374.71,-78.9 374.71,-78.9 374.71,-78.9 375.39,-76.49 372.54,-78.29 376.07,-74.09 376.07,-74.09"/>
</a>
</g>
</g>
</g>
</svg>
