<?xml version="1.0" encoding="UTF-8" standalone="no"?>
<!DOCTYPE svg PUBLIC "-//W3C//DTD SVG 1.1//EN"
 "http://www.w3.org/Graphics/SVG/1.1/DTD/svg11.dtd">
<!-- Generated by graphviz version 2.43.0 (0)
 -->
<!-- Title: peg::Holder::parse_core Pages: 1 -->
<svg width="475pt" height="286pt"
 viewBox="0.00 0.00 475.00 285.50" xmlns="http://www.w3.org/2000/svg" xmlns:xlink="http://www.w3.org/1999/xlink">
<g id="graph0" class="graph" transform="scale(1 1) rotate(0) translate(4 281.5)">
<title>peg::Holder::parse_core</title>
<!-- Node1 -->
<g id="Node000001" class="node">
<title>Node1</title>
<g id="a_Node000001"><a xlink:title=" ">
<polygon fill="#999999" stroke="#666666" points="132,-153 0,-153 0,-134 132,-134 132,-153"/>
<text text-anchor="middle" x="66" y="-141" font-family="Helvetica,sans-Serif" font-size="10.00">peg::Holder::parse_core</text>
</a>
</g>
</g>
<!-- Node2 -->
<g id="Node000002" class="node">
<title>Node2</title>
<g id="a_Node000002"><a xlink:href="../../df/d94/classpeg_1_1Context.html#a41352aee27b200251fe44518c30bdccb" target="_top" xlink:title=" ">
<polygon fill="white" stroke="#666666" points="299,-277.5 190,-277.5 190,-247.5 299,-247.5 299,-277.5"/>
<text text-anchor="start" x="198" y="-265.5" font-family="Helvetica,sans-Serif" font-size="10.00">peg::Context::clear</text>
<text text-anchor="middle" x="244.5" y="-254.5" font-family="Helvetica,sans-Serif" font-size="10.00">_packrat_cache</text>
</a>
</g>
</g>
<!-- Node1&#45;&gt;Node2 -->
<g id="edge1_Node000001_Node000002" class="edge">
<title>Node1&#45;&gt;Node2</title>
<g id="a_edge1_Node000001_Node000002"><a xlink:title=" ">
<path fill="none" stroke="#63b8ff" d="M75.56,-153.16C91.93,-171.14 129.49,-210.03 168,-233.5 175.25,-237.92 183.28,-241.87 191.33,-245.32"/>
<polygon fill="#63b8ff" stroke="#63b8ff" points="196.33,-247.41 190.85,-247.56 194.03,-246.44 191.72,-245.48 191.72,-245.48 191.72,-245.48 194.03,-246.44 192.59,-243.41 196.33,-247.41 196.33,-247.41"/>
</a>
</g>
</g>
<!-- Node3 -->
<g id="Node000003" class="node">
<title>Node3</title>
<g id="a_Node000003"><a xlink:href="../../df/d94/classpeg_1_1Context.html#ad4f1bebee5dfe9798b2c29bc1ab7877f" target="_top" xlink:title=" ">
<polygon fill="white" stroke="#666666" points="305.5,-191 183.5,-191 183.5,-172 305.5,-172 305.5,-191"/>
<text text-anchor="middle" x="244.5" y="-179" font-family="Helvetica,sans-Serif" font-size="10.00">peg::Context::packrat</text>
</a>
</g>
</g>
<!-- Node1&#45;&gt;Node3 -->
<g id="edge2_Node000001_Node000003" class="edge">
<title>Node1&#45;&gt;Node3</title>
<g id="a_edge2_Node000001_Node000003"><a xlink:title=" ">
<path fill="none" stroke="#63b8ff" d="M111.54,-153.09C136.72,-158.51 168.25,-165.3 194.17,-170.88"/>
<polygon fill="#63b8ff" stroke="#63b8ff" points="199.28,-171.98 193.92,-173.13 196.84,-171.45 194.39,-170.93 194.39,-170.93 194.39,-170.93 196.84,-171.45 194.87,-168.73 199.28,-171.98 199.28,-171.98"/>
</a>
</g>
</g>
<!-- Node4 -->
<g id="Node000004" class="node">
<title>Node4</title>
<g id="a_Node000004"><a xlink:href="../../dc/db2/namespacepeg.html#abb0779cb4c0b5f8e157e81bac9686c8a" target="_top" xlink:title=" ">
<polygon fill="white" stroke="#666666" points="451.5,-220 372.5,-220 372.5,-201 451.5,-201 451.5,-220"/>
<text text-anchor="middle" x="412" y="-208" font-family="Helvetica,sans-Serif" font-size="10.00">peg::success</text>
</a>
</g>
</g>
<!-- Node1&#45;&gt;Node4 -->
<g id="edge8_Node000001_Node000004" class="edge">
<title>Node1&#45;&gt;Node4</title>
<g id="a_edge8_Node000001_Node000004"><a xlink:title=" ">
<path fill="none" stroke="#63b8ff" d="M79.51,-153.19C97.77,-166.69 133.34,-190.63 168,-200.5 235.39,-219.69 317.53,-218.2 366.97,-214.78"/>
<polygon fill="#63b8ff" stroke="#63b8ff" points="372.24,-214.4 367.42,-217.01 369.75,-214.58 367.25,-214.76 367.25,-214.76 367.25,-214.76 369.75,-214.58 367.09,-212.52 372.24,-214.4 372.24,-214.4"/>
</a>
</g>
</g>
<!-- Node5 -->
<g id="Node000005" class="node">
<title>Node5</title>
<g id="a_Node000005"><a xlink:href="../../df/d94/classpeg_1_1Context.html#aa14baf3e67cfb0412f0a263aea2babfe" target="_top" xlink:title=" ">
<polygon fill="white" stroke="#666666" points="467,-174.5 357,-174.5 357,-144.5 467,-144.5 467,-174.5"/>
<text text-anchor="start" x="365" y="-162.5" font-family="Helvetica,sans-Serif" font-size="10.00">peg::Context::write</text>
<text text-anchor="middle" x="412" y="-151.5" font-family="Helvetica,sans-Serif" font-size="10.00">_packrat_cache</text>
</a>
</g>
</g>
<!-- Node1&#45;&gt;Node5 -->
<g id="edge9_Node000001_Node000005" class="edge">
<title>Node1&#45;&gt;Node5</title>
<g id="a_edge9_Node000001_Node000005"><a xlink:title=" ">
<path fill="none" stroke="#63b8ff" d="M132.11,-146.53C195.39,-149.47 290.65,-153.9 351.83,-156.75"/>
<polygon fill="#63b8ff" stroke="#63b8ff" points="356.9,-156.98 351.8,-159 354.41,-156.87 351.91,-156.75 351.91,-156.75 351.91,-156.75 354.41,-156.87 352.01,-154.5 356.9,-156.98 356.9,-156.98"/>
</a>
</g>
</g>
<!-- Node6 -->
<g id="Node000006" class="node">
<title>Node6</title>
<g id="a_Node000006"><a xlink:href="../../df/d94/classpeg_1_1Context.html#a78f5d8fd58c55ae4728924de39091009" target="_top" xlink:title=" ">
<polygon fill="white" stroke="#666666" points="321,-115.5 168,-115.5 168,-85.5 321,-85.5 321,-115.5"/>
<text text-anchor="start" x="176" y="-103.5" font-family="Helvetica,sans-Serif" font-size="10.00">peg::Context::pop_semantic</text>
<text text-anchor="middle" x="244.5" y="-92.5" font-family="Helvetica,sans-Serif" font-size="10.00">_values_scope</text>
</a>
</g>
</g>
<!-- Node1&#45;&gt;Node6 -->
<g id="edge5_Node000001_Node000006" class="edge">
<title>Node1&#45;&gt;Node6</title>
<g id="a_edge5_Node000001_Node000006"><a xlink:title=" ">
<path fill="none" stroke="#63b8ff" d="M106.17,-133.96C126.94,-128.9 153.02,-122.54 176.85,-116.74"/>
<polygon fill="#63b8ff" stroke="#63b8ff" points="181.9,-115.51 177.58,-118.88 179.48,-116.1 177.05,-116.69 177.05,-116.69 177.05,-116.69 179.48,-116.1 176.51,-114.5 181.9,-115.51 181.9,-115.51"/>
</a>
</g>
</g>
<!-- Node7 -->
<g id="Node000007" class="node">
<title>Node7</title>
<g id="a_Node000007"><a xlink:href="../../df/d94/classpeg_1_1Context.html#a75ad7dc2e705646eaeaf2370571726b0" target="_top" xlink:title=" ">
<polygon fill="white" stroke="#666666" points="313.5,-67.5 175.5,-67.5 175.5,-37.5 313.5,-37.5 313.5,-67.5"/>
<text text-anchor="start" x="183.5" y="-55.5" font-family="Helvetica,sans-Serif" font-size="10.00">peg::Context::push</text>
<text text-anchor="middle" x="244.5" y="-44.5" font-family="Helvetica,sans-Serif" font-size="10.00">_semantic_values_scope</text>
</a>
</g>
</g>
<!-- Node1&#45;&gt;Node7 -->
<g id="edge6_Node000001_Node000007" class="edge">
<title>Node1&#45;&gt;Node7</title>
<g id="a_edge6_Node000001_Node000007"><a xlink:title=" ">
<path fill="none" stroke="#63b8ff" d="M79.08,-133.85C97.38,-119.63 133.65,-92.95 168,-76.5 173.33,-73.95 179,-71.57 184.74,-69.39"/>
<polygon fill="#63b8ff" stroke="#63b8ff" points="189.57,-67.61 185.66,-71.45 187.23,-68.47 184.88,-69.34 184.88,-69.34 184.88,-69.34 187.23,-68.47 184.1,-67.23 189.57,-67.61 189.57,-67.61"/>
</a>
</g>
</g>
<!-- Node8 -->
<g id="Node000008" class="node">
<title>Node8</title>
<g id="a_Node000008"><a xlink:href="../../da/dab/classpeg_1_1Holder.html#ab3e7c9e2936525401dc05f6e516df6ef" target="_top" xlink:title=" ">
<polygon fill="white" stroke="#666666" points="300.5,-19 188.5,-19 188.5,0 300.5,0 300.5,-19"/>
<text text-anchor="middle" x="244.5" y="-7" font-family="Helvetica,sans-Serif" font-size="10.00">peg::Holder::reduce</text>
</a>
</g>
</g>
<!-- Node1&#45;&gt;Node8 -->
<g id="edge7_Node000001_Node000008" class="edge">
<title>Node1&#45;&gt;Node8</title>
<g id="a_edge7_Node000001_Node000008"><a xlink:title=" ">
<path fill="none" stroke="#63b8ff" d="M72.67,-133.71C86.15,-111.36 122.42,-56.34 168,-28.5 172.96,-25.47 178.38,-22.93 183.96,-20.78"/>
<polygon fill="#63b8ff" stroke="#63b8ff" points="188.69,-19.08 184.75,-22.89 186.34,-19.93 183.99,-20.78 183.99,-20.78 183.99,-20.78 186.34,-19.93 183.22,-18.66 188.69,-19.08 188.69,-19.08"/>
</a>
</g>
</g>
<!-- Node3&#45;&gt;Node4 -->
<g id="edge3_Node000003_Node000004" class="edge">
<title>Node3&#45;&gt;Node4</title>
<g id="a_edge3_Node000003_Node000004"><a xlink:title=" ">
<path fill="none" stroke="#63b8ff" d="M300.15,-191.08C321.94,-194.89 346.67,-199.23 367.24,-202.83"/>
<polygon fill="#63b8ff" stroke="#63b8ff" points="372.37,-203.73 367.06,-205.08 369.91,-203.3 367.45,-202.87 367.45,-202.87 367.45,-202.87 369.91,-203.3 367.84,-200.65 372.37,-203.73 372.37,-203.73"/>
</a>
</g>
</g>
<!-- Node3&#45;&gt;Node5 -->
<g id="edge4_Node000003_Node000005" class="edge">
<title>Node3&#45;&gt;Node5</title>
<g id="a_edge4_Node000003_Node000005"><a xlink:title=" ">
<path fill="none" stroke="#63b8ff" d="M305.72,-173.5C320.75,-171.5 336.85,-169.36 351.83,-167.37"/>
<polygon fill="#63b8ff" stroke="#63b8ff" points="356.86,-166.7 352.2,-169.59 354.38,-167.03 351.91,-167.36 351.91,-167.36 351.91,-167.36 354.38,-167.03 351.61,-165.13 356.86,-166.7 356.86,-166.7"/>
</a>
</g>
</g>
</g>
</svg>
