<?xml version="1.0" encoding="UTF-8" standalone="no"?>
<!DOCTYPE svg PUBLIC "-//W3C//DTD SVG 1.1//EN"
 "http://www.w3.org/Graphics/SVG/1.1/DTD/svg11.dtd">
<!-- Generated by graphviz version 2.43.0 (0)
 -->
<!-- Title: AbstractServerSocketInterface::getAddress Pages: 1 -->
<!--zoomable 134 -->

<svg id="main" version="1.1" xmlns="http://www.w3.org/2000/svg" xmlns:xlink="http://www.w3.org/1999/xlink" xml:space="preserve" onload="init(evt)">

<style type="text/css"><![CDATA[
.node, .edge {opacity: 0.7;}
.node.selected, .edge.selected {opacity: 1;}
.edge:hover path { stroke: red; }
.edge:hover polygon { stroke: red; fill: red; }
]]></style>

<defs>
  <circle id="rim" cx="0" cy="0" r="7"/>
  <circle id="rim2" cx="0" cy="0" r="3.5"/>
  <g id="zoomPlus">
    <use xlink:href="#rim" fill="#404040"><set attributeName="fill" to="#808080" begin="zoomplus.mouseover" end="zoomplus.mouseout"/></use>
    <path d="M-4,0h8M0,-4v8" fill="none" stroke="white" stroke-width="1.5" pointer-events="none"/>
  </g>
  <g id="zoomMin">
    <use xlink:href="#rim" fill="#404040"><set attributeName="fill" to="#808080" begin="zoomminus.mouseover" end="zoomminus.mouseout"/></use>
    <path d="M-4,0h8" fill="none" stroke="white" stroke-width="1.5" pointer-events="none"/>
  </g>
  <g id="arrowUp" transform="translate(30 24)">
    <use xlink:href="#rim"/>
    <path pointer-events="none" fill="none" stroke="white" stroke-width="1.5" d="M0,-3.0v7 M-2.5,-0.5L0,-3.0L2.5,-0.5"/>
  </g>
  <g id="arrowRight" transform="rotate(90) translate(36 -43)">
    <use xlink:href="#rim"/>
    <path pointer-events="none" fill="none" stroke="white" stroke-width="1.5" d="M0,-3.0v7 M-2.5,-0.5L0,-3.0L2.5,-0.5"/>
  </g>
  <g id="arrowDown" transform="rotate(180) translate(-30 -48)">
    <use xlink:href="#rim"/>
    <path pointer-events="none" fill="none" stroke="white" stroke-width="1.5" d="M0,-3.0v7 M-2.5,-0.5L0,-3.0L2.5,-0.5"/>
  </g>
  <g id="arrowLeft" transform="rotate(270) translate(-36 17)">
    <use xlink:href="#rim"/>
    <path pointer-events="none" fill="none" stroke="white" stroke-width="1.5" d="M0,-3.0v7 M-2.5,-0.5L0,-3.0L2.5,-0.5"/>
  </g>
  <g id="resetDef">
    <use xlink:href="#rim2" fill="#404040"><set attributeName="fill" to="#808080" begin="reset.mouseover" end="reset.mouseout"/></use>
  </g>
</defs>
<script type="application/ecmascript">
var viewWidth = 996;
var viewHeight = 134;
var sectionId = 'dynsection-85';
</script>
<script type="application/ecmascript" xlink:href="../../svg.min.js"/>
<svg id="graph" class="graph">
<g id="viewport">
<title>AbstractServerSocketInterface::getAddress</title>
<!-- Node1 -->
<g id="Node000001" class="node">
<title>Node1</title>
<g id="a_Node000001"><a xlink:title=" ">
<polygon fill="#999999" stroke="#666666" points="988,-102 824,-102 824,-72 988,-72 988,-102"/>
<text text-anchor="start" x="832" y="-90" font-family="Helvetica,sans-Serif" font-size="10.00">AbstractServerSocketInterface</text>
<text text-anchor="middle" x="906" y="-79" font-family="Helvetica,sans-Serif" font-size="10.00">::getAddress</text>
</a>
</g>
</g>
<!-- Node2 -->
<g id="Node000002" class="node">
<title>Node2</title>
<g id="a_Node000002"><a xlink:href="../../dd/dea/classAbstractServerSocketInterface.html#a0d92d407ae6471003d73f484db54c718" target="_top" xlink:title=" ">
<polygon fill="white" stroke="#666666" points="788,-126 624,-126 624,-96 788,-96 788,-126"/>
<text text-anchor="start" x="632" y="-114" font-family="Helvetica,sans-Serif" font-size="10.00">AbstractServerSocketInterface</text>
<text text-anchor="middle" x="706" y="-103" font-family="Helvetica,sans-Serif" font-size="10.00">::cmdRegisterAccount</text>
</a>
</g>
</g>
<!-- Node1&#45;&gt;Node2 -->
<g id="edge1_Node000001_Node000002" class="edge">
<title>Node1&#45;&gt;Node2</title>
<g id="a_edge1_Node000001_Node000002"><a xlink:title=" ">
<path fill="none" stroke="#63b8ff" d="M818.92,-97.43C808.75,-98.67 798.4,-99.92 788.3,-101.15"/>
<polygon fill="#63b8ff" stroke="#63b8ff" points="823.89,-96.83 819.2,-99.67 821.41,-97.13 818.93,-97.43 818.93,-97.43 818.93,-97.43 821.41,-97.13 818.66,-95.2 823.89,-96.83 823.89,-96.83"/>
</a>
</g>
</g>
<!-- Node4 -->
<g id="Node000004" class="node">
<title>Node4</title>
<g id="a_Node000004"><a xlink:href="../../dd/dea/classAbstractServerSocketInterface.html#aa971b9ef9acb9c4ff9fbd0d0585dcbd1" target="_top" xlink:title=" ">
<polygon fill="white" stroke="#666666" points="788,-78 624,-78 624,-48 788,-48 788,-78"/>
<text text-anchor="start" x="632" y="-66" font-family="Helvetica,sans-Serif" font-size="10.00">AbstractServerSocketInterface</text>
<text text-anchor="middle" x="706" y="-55" font-family="Helvetica,sans-Serif" font-size="10.00">::initSession</text>
</a>
</g>
</g>
<!-- Node1&#45;&gt;Node4 -->
<g id="edge3_Node000001_Node000004" class="edge">
<title>Node1&#45;&gt;Node4</title>
<g id="a_edge3_Node000001_Node000004"><a xlink:title=" ">
<path fill="none" stroke="#63b8ff" d="M818.92,-76.57C808.75,-75.33 798.4,-74.08 788.3,-72.85"/>
<polygon fill="#63b8ff" stroke="#63b8ff" points="823.89,-77.17 818.66,-78.8 821.41,-76.87 818.93,-76.57 818.93,-76.57 818.93,-76.57 821.41,-76.87 819.2,-74.33 823.89,-77.17 823.89,-77.17"/>
</a>
</g>
</g>
<!-- Node3 -->
<g id="Node000003" class="node">
<title>Node3</title>
<g id="a_Node000003"><a xlink:href="../../dd/dea/classAbstractServerSocketInterface.html#a108f2aeec6a9aa4cf7cc58903d5d4b50" target="_top" xlink:title=" ">
<polygon fill="white" stroke="#666666" points="588,-126 394,-126 394,-96 588,-96 588,-126"/>
<text text-anchor="start" x="402" y="-114" font-family="Helvetica,sans-Serif" font-size="10.00">AbstractServerSocketInterface</text>
<text text-anchor="middle" x="491" y="-103" font-family="Helvetica,sans-Serif" font-size="10.00">::processExtendedSessionCommand</text>
</a>
</g>
</g>
<!-- Node2&#45;&gt;Node3 -->
<g id="edge2_Node000002_Node000003" class="edge">
<title>Node2&#45;&gt;Node3</title>
<g id="a_edge2_Node000002_Node000003"><a xlink:title=" ">
<path fill="none" stroke="#63b8ff" d="M618.66,-111C608.65,-111 598.39,-111 588.26,-111"/>
<polygon fill="#63b8ff" stroke="#63b8ff" points="623.87,-111 618.87,-113.25 621.37,-111 618.87,-111 618.87,-111 618.87,-111 621.37,-111 618.87,-108.75 623.87,-111 623.87,-111"/>
</a>
</g>
</g>
<!-- Node5 -->
<g id="Node000005" class="node">
<title>Node5</title>
<g id="a_Node000005"><a xlink:href="../../dd/d13/classTcpServerSocketInterface.html#aff7b8923211e2e50f5e841b30766bd7d" target="_top" xlink:title=" ">
<polygon fill="white" stroke="#666666" points="561,-78 421,-78 421,-48 561,-48 561,-78"/>
<text text-anchor="start" x="429" y="-66" font-family="Helvetica,sans-Serif" font-size="10.00">TcpServerSocketInterface</text>
<text text-anchor="middle" x="491" y="-55" font-family="Helvetica,sans-Serif" font-size="10.00">::initTcpSession</text>
</a>
</g>
</g>
<!-- Node4&#45;&gt;Node5 -->
<g id="edge4_Node000004_Node000005" class="edge">
<title>Node4&#45;&gt;Node5</title>
<g id="a_edge4_Node000004_Node000005"><a xlink:title=" ">
<path fill="none" stroke="#63b8ff" d="M618.5,-63C599.4,-63 579.41,-63 561.1,-63"/>
<polygon fill="#63b8ff" stroke="#63b8ff" points="623.87,-63 618.87,-65.25 621.37,-63 618.87,-63 618.87,-63 618.87,-63 621.37,-63 618.87,-60.75 623.87,-63 623.87,-63"/>
</a>
</g>
</g>
<!-- Node8 -->
<g id="Node000008" class="node">
<title>Node8</title>
<g id="a_Node000008"><a xlink:href="../../de/db1/classWebsocketServerSocketInterface.html#ae43fc511b850a973e203535fe2710c37" target="_top" xlink:title=" ">
<polygon fill="white" stroke="#666666" points="579,-30 403,-30 403,0 579,0 579,-30"/>
<text text-anchor="start" x="411" y="-18" font-family="Helvetica,sans-Serif" font-size="10.00">WebsocketServerSocketInterface</text>
<text text-anchor="middle" x="491" y="-7" font-family="Helvetica,sans-Serif" font-size="10.00">::initWebsocketSession</text>
</a>
</g>
</g>
<!-- Node4&#45;&gt;Node8 -->
<g id="edge7_Node000004_Node000008" class="edge">
<title>Node4&#45;&gt;Node8</title>
<g id="a_edge7_Node000004_Node000008"><a xlink:title=" ">
<path fill="none" stroke="#63b8ff" d="M633.09,-46.79C608.99,-41.36 582.24,-35.34 558.57,-30"/>
<polygon fill="#63b8ff" stroke="#63b8ff" points="638.19,-47.94 632.82,-49.04 635.75,-47.39 633.31,-46.84 633.31,-46.84 633.31,-46.84 635.75,-47.39 633.81,-44.65 638.19,-47.94 638.19,-47.94"/>
</a>
</g>
</g>
<!-- Node6 -->
<g id="Node000006" class="node">
<title>Node6</title>
<g id="a_Node000006"><a xlink:href="../../dd/d13/classTcpServerSocketInterface.html#a3154613eadb2b50691fb77b7827fb733" target="_top" xlink:title=" ">
<polygon fill="white" stroke="#666666" points="340,-78 200,-78 200,-48 340,-48 340,-78"/>
<text text-anchor="start" x="208" y="-66" font-family="Helvetica,sans-Serif" font-size="10.00">TcpServerSocketInterface</text>
<text text-anchor="middle" x="270" y="-55" font-family="Helvetica,sans-Serif" font-size="10.00">::readClient</text>
</a>
</g>
</g>
<!-- Node5&#45;&gt;Node6 -->
<g id="edge5_Node000005_Node000006" class="edge">
<title>Node5&#45;&gt;Node6</title>
<g id="a_edge5_Node000005_Node000006"><a xlink:title=" ">
<path fill="none" stroke="#63b8ff" d="M415.55,-63C391.17,-63 364.19,-63 340.22,-63"/>
<polygon fill="#63b8ff" stroke="#63b8ff" points="420.71,-63 415.71,-65.25 418.21,-63 415.71,-63 415.71,-63 415.71,-63 418.21,-63 415.71,-60.75 420.71,-63 420.71,-63"/>
</a>
</g>
</g>
<!-- Node7 -->
<g id="Node000007" class="node">
<title>Node7</title>
<g id="a_Node000007"><a xlink:href="../../dd/d13/classTcpServerSocketInterface.html#a076f21dfced18c70a378fd3010683915" target="_top" xlink:title=" ">
<polygon fill="white" stroke="#666666" points="146,-78 0,-78 0,-48 146,-48 146,-78"/>
<text text-anchor="start" x="8" y="-66" font-family="Helvetica,sans-Serif" font-size="10.00">TcpServerSocketInterface</text>
<text text-anchor="middle" x="73" y="-55" font-family="Helvetica,sans-Serif" font-size="10.00">::TcpServerSocketInterface</text>
</a>
</g>
</g>
<!-- Node6&#45;&gt;Node7 -->
<g id="edge6_Node000006_Node000007" class="edge">
<title>Node6&#45;&gt;Node7</title>
<g id="a_edge6_Node000006_Node000007"><a xlink:title=" ">
<path fill="none" stroke="#63b8ff" d="M194.63,-63C178.76,-63 162.02,-63 146.23,-63"/>
<polygon fill="#63b8ff" stroke="#63b8ff" points="199.98,-63 194.98,-65.25 197.48,-63 194.98,-63 194.98,-63 194.98,-63 197.48,-63 194.98,-60.75 199.98,-63 199.98,-63"/>
</a>
</g>
</g>
<!-- Node9 -->
<g id="Node000009" class="node">
<title>Node9</title>
<g id="a_Node000009"><a xlink:href="../../de/db1/classWebsocketServerSocketInterface.html#a8dbc72a33ea9c1ce299a7fa7a2a21744" target="_top" xlink:title=" ">
<polygon fill="white" stroke="#666666" points="358,-30 182,-30 182,0 358,0 358,-30"/>
<text text-anchor="start" x="190" y="-18" font-family="Helvetica,sans-Serif" font-size="10.00">WebsocketServerSocketInterface</text>
<text text-anchor="middle" x="270" y="-7" font-family="Helvetica,sans-Serif" font-size="10.00">::initConnection</text>
</a>
</g>
</g>
<!-- Node8&#45;&gt;Node9 -->
<g id="edge8_Node000008_Node000009" class="edge">
<title>Node8&#45;&gt;Node9</title>
<g id="a_edge8_Node000008_Node000009"><a xlink:title=" ">
<path fill="none" stroke="#63b8ff" d="M397.64,-15C384.58,-15 371.2,-15 358.24,-15"/>
<polygon fill="#63b8ff" stroke="#63b8ff" points="402.82,-15 397.82,-17.25 400.32,-15 397.82,-15 397.82,-15 397.82,-15 400.32,-15 397.82,-12.75 402.82,-15 402.82,-15"/>
</a>
</g>
</g>
</g>
</svg>

<g id="navigator" transform="translate(0 0)" fill="#404254">
  <rect fill="#f2f5e9" fill-opacity="0.5" stroke="#606060" stroke-width=".5" x="0" y="0" width="60" height="60"/>
  <use id="zoomplus" xlink:href="#zoomPlus" x="17" y="9" onmousedown="handleZoom(evt,'in')"/>
  <use id="zoomminus" xlink:href="#zoomMin" x="42" y="9" onmousedown="handleZoom(evt,'out')"/>
  <use id="reset" xlink:href="#resetDef" x="30" y="36" onmousedown="handleReset()"/>
   <use id="arrowup" xlink:href="#arrowUp" x="0" y="0" onmousedown="handlePan(0,-1)"/>
  <use id="arrowright" xlink:href="#arrowRight" x="0" y="0" onmousedown="handlePan(1,0)"/>
  <use id="arrowdown" xlink:href="#arrowDown" x="0" y="0" onmousedown="handlePan(0,1)"/>
  <use id="arrowleft" xlink:href="#arrowLeft" x="0" y="0" onmousedown="handlePan(-1,0)"/>
</g>
<svg viewBox="0 0 15 15" width="100%" height="30px" preserveAspectRatio="xMaxYMin meet">
 <g id="arrow_out" transform="scale(0.3 0.3)">
  <a xlink:href="classAbstractServerSocketInterface_a234a8b804690f2b4ae0fe7ce5512ee1d_icgraph_org.svg" target="_base">
   <rect id="button" ry="5" rx="5" y="6" x="6" height="38" width="38"
        fill="#f2f5e9" fill-opacity="0.5" stroke="#606060" stroke-width="1.0"/>
   <path id="arrow"
     d="M 11.500037,31.436501 C 11.940474,20.09759 22.043105,11.32322 32.158766,21.979434 L 37.068811,17.246167 C 37.068811,17.246167 37.088388,32 37.088388,32 L 22.160133,31.978069 C 22.160133,31.978069 26.997745,27.140456 26.997745,27.140456 C 18.528582,18.264221 13.291696,25.230495 11.500037,31.436501 z"
     style="fill:#404040;"/>
  </a>
 </g>
</svg>

<style type='text/css'>
<![CDATA[
[data-mouse-over-selected='false'] { opacity: 0.7; }
[data-mouse-over-selected='true']  { opacity: 1.0; }
]]>
</style>
<script type="application/ecmascript"><![CDATA[
document.addEventListener('DOMContentLoaded', (event) => {
  highlightEdges();
  highlightAdjacentNodes();
});
]]></script>
</svg>
