<?xml version="1.0" encoding="UTF-8" standalone="no"?>
<!DOCTYPE svg PUBLIC "-//W3C//DTD SVG 1.1//EN"
 "http://www.w3.org/Graphics/SVG/1.1/DTD/svg11.dtd">
<!-- Generated by graphviz version 2.43.0 (0)
 -->
<!-- Title: AbstractServerSocketInterface::cmdGetBanHistory Pages: 1 -->
<svg width="335pt" height="76pt"
 viewBox="0.00 0.00 335.00 75.50" xmlns="http://www.w3.org/2000/svg" xmlns:xlink="http://www.w3.org/1999/xlink">

<svg id="main" version="1.1" xmlns="http://www.w3.org/2000/svg" xmlns:xlink="http://www.w3.org/1999/xlink" xml:space="preserve">

<style type="text/css"><![CDATA[
.node, .edge {opacity: 0.7;}
.node.selected, .edge.selected {opacity: 1;}
.edge:hover path { stroke: red; }
.edge:hover polygon { stroke: red; fill: red; }
]]></style>
<script type="application/ecmascript" xlink:href="../../svg.min.js"/>
<svg id="graph" class="graph">
<g id="graph0" class="graph" transform="scale(1 1) rotate(0) translate(4 71.5)">
<title>AbstractServerSocketInterface::cmdGetBanHistory</title>
<!-- Node1 -->
<g id="Node000001" class="node">
<title>Node1</title>
<g id="a_Node000001"><a xlink:title=" ">
<polygon fill="#999999" stroke="#666666" points="164,-51 0,-51 0,-21 164,-21 164,-51"/>
<text text-anchor="start" x="8" y="-39" font-family="Helvetica,sans-Serif" font-size="10.00">AbstractServerSocketInterface</text>
<text text-anchor="middle" x="82" y="-28" font-family="Helvetica,sans-Serif" font-size="10.00">::cmdGetBanHistory</text>
</a>
</g>
</g>
<!-- Node2 -->
<g id="Node000002" class="node">
<title>Node2</title>
<g id="a_Node000002"><a xlink:href="../../da/d4b/trice__limits_8h.html#a95db897f5efddbef085caad2416229bc" target="_top" xlink:title=" ">
<polygon fill="white" stroke="#666666" points="320,-67.5 207,-67.5 207,-48.5 320,-48.5 320,-67.5"/>
<text text-anchor="middle" x="263.5" y="-55.5" font-family="Helvetica,sans-Serif" font-size="10.00">nameFromStdString</text>
</a>
</g>
</g>
<!-- Node1&#45;&gt;Node2 -->
<g id="edge1_Node000001_Node000002" class="edge">
<title>Node1&#45;&gt;Node2</title>
<g id="a_edge1_Node000001_Node000002"><a xlink:title=" ">
<path fill="none" stroke="#63b8ff" d="M164.09,-45.94C176.77,-47.49 189.68,-49.08 201.8,-50.56"/>
<polygon fill="#63b8ff" stroke="#63b8ff" points="206.95,-51.19 201.71,-52.82 204.47,-50.89 201.98,-50.58 201.98,-50.58 201.98,-50.58 204.47,-50.89 202.26,-48.35 206.95,-51.19 206.95,-51.19"/>
</a>
</g>
</g>
<!-- Node3 -->
<g id="Node000003" class="node">
<title>Node3</title>
<g id="a_Node000003"><a xlink:href="../../db/d74/classResponseContainer.html#a2eb6cf6c416ce423b1d4025c3399e2ee" target="_top" xlink:title=" ">
<polygon fill="white" stroke="#666666" points="327,-30 200,-30 200,0 327,0 327,-30"/>
<text text-anchor="start" x="208" y="-18" font-family="Helvetica,sans-Serif" font-size="10.00">ResponseContainer::</text>
<text text-anchor="middle" x="263.5" y="-7" font-family="Helvetica,sans-Serif" font-size="10.00">setResponseExtension</text>
</a>
</g>
</g>
<!-- Node1&#45;&gt;Node3 -->
<g id="edge2_Node000001_Node000003" class="edge">
<title>Node1&#45;&gt;Node3</title>
<g id="a_edge2_Node000001_Node000003"><a xlink:title=" ">
<path fill="none" stroke="#63b8ff" d="M164.09,-26.51C174.29,-25.32 184.65,-24.11 194.62,-22.94"/>
<polygon fill="#63b8ff" stroke="#63b8ff" points="199.8,-22.34 195.09,-25.15 197.32,-22.63 194.83,-22.92 194.83,-22.92 194.83,-22.92 197.32,-22.63 194.57,-20.68 199.8,-22.34 199.8,-22.34"/>
</a>
</g>
</g>
</g>
</svg>
</svg>

<style type='text/css'>
<![CDATA[
[data-mouse-over-selected='false'] { opacity: 0.7; }
[data-mouse-over-selected='true']  { opacity: 1.0; }
]]>
</style>
<script type="application/ecmascript"><![CDATA[
document.addEventListener('DOMContentLoaded', (event) => {
  highlightEdges();
  highlightAdjacentNodes();
});
]]></script>
</svg>
