<?xml version="1.0" encoding="UTF-8" standalone="no"?>
<!DOCTYPE svg PUBLIC "-//W3C//DTD SVG 1.1//EN"
 "http://www.w3.org/Graphics/SVG/1.1/DTD/svg11.dtd">
<!-- Generated by graphviz version 2.43.0 (0)
 -->
<!-- Title: TabEdhRecMain::processAverageDeckResponse Pages: 1 -->
<svg width="605pt" height="38pt"
 viewBox="0.00 0.00 605.00 38.00" xmlns="http://www.w3.org/2000/svg" xmlns:xlink="http://www.w3.org/1999/xlink">
<g id="graph0" class="graph" transform="scale(1 1) rotate(0) translate(4 34)">
<title>TabEdhRecMain::processAverageDeckResponse</title>
<!-- Node1 -->
<g id="Node000001" class="node">
<title>Node1</title>
<g id="a_Node000001"><a xlink:title=" ">
<polygon fill="#999999" stroke="#666666" points="597,-30 421,-30 421,0 597,0 597,-30"/>
<text text-anchor="start" x="429" y="-18" font-family="Helvetica,sans-Serif" font-size="10.00">TabEdhRecMain::processAverage</text>
<text text-anchor="middle" x="509" y="-7" font-family="Helvetica,sans-Serif" font-size="10.00">DeckResponse</text>
</a>
</g>
</g>
<!-- Node2 -->
<g id="Node000002" class="node">
<title>Node2</title>
<g id="a_Node000002"><a xlink:href="../../de/df3/classTabEdhRecMain.html#aa3c717a93160bfca7003831c224734a3" target="_top" xlink:title=" ">
<polygon fill="white" stroke="#666666" points="385,-24.5 212,-24.5 212,-5.5 385,-5.5 385,-24.5"/>
<text text-anchor="middle" x="298.5" y="-12.5" font-family="Helvetica,sans-Serif" font-size="10.00">TabEdhRecMain::processApiJson</text>
</a>
</g>
</g>
<!-- Node1&#45;&gt;Node2 -->
<g id="edge1_Node000001_Node000002" class="edge">
<title>Node1&#45;&gt;Node2</title>
<g id="a_edge1_Node000001_Node000002"><a xlink:title=" ">
<path fill="none" stroke="#63b8ff" d="M415.78,-15C405.55,-15 395.17,-15 385.03,-15"/>
<polygon fill="#63b8ff" stroke="#63b8ff" points="420.79,-15 415.79,-17.25 418.29,-15 415.79,-15 415.79,-15 415.79,-15 418.29,-15 415.79,-12.75 420.79,-15 420.79,-15"/>
</a>
</g>
</g>
<!-- Node3 -->
<g id="Node000003" class="node">
<title>Node3</title>
<g id="a_Node000003"><a xlink:href="../../de/df3/classTabEdhRecMain.html#a054d13a0cc2607423bbf05f1753c9f69" target="_top" xlink:title=" ">
<polygon fill="white" stroke="#666666" points="176,-24.5 0,-24.5 0,-5.5 176,-5.5 176,-24.5"/>
<text text-anchor="middle" x="88" y="-12.5" font-family="Helvetica,sans-Serif" font-size="10.00">TabEdhRecMain::TabEdhRecMain</text>
</a>
</g>
</g>
<!-- Node2&#45;&gt;Node3 -->
<g id="edge2_Node000002_Node000003" class="edge">
<title>Node2&#45;&gt;Node3</title>
<g id="a_edge2_Node000002_Node000003"><a xlink:title=" ">
<path fill="none" stroke="#63b8ff" d="M206.52,-15C196.41,-15 186.12,-15 176.06,-15"/>
<polygon fill="#63b8ff" stroke="#63b8ff" points="211.79,-15 206.79,-17.25 209.29,-15 206.79,-15 206.79,-15 206.79,-15 209.29,-15 206.79,-12.75 211.79,-15 211.79,-15"/>
</a>
</g>
</g>
</g>
</svg>
