<?xml version="1.0" encoding="UTF-8" standalone="no"?>
<!DOCTYPE svg PUBLIC "-//W3C//DTD SVG 1.1//EN"
 "http://www.w3.org/Graphics/SVG/1.1/DTD/svg11.dtd">
<!-- Generated by graphviz version 2.43.0 (0)
 -->
<!-- Title: libcockatrice_protocol/libcockatrice/protocol/get_pb_extension.cpp Pages: 1 -->
<svg width="460pt" height="104pt"
 viewBox="0.00 0.00 460.00 104.00" xmlns="http://www.w3.org/2000/svg" xmlns:xlink="http://www.w3.org/1999/xlink">

<svg id="main" version="1.1" xmlns="http://www.w3.org/2000/svg" xmlns:xlink="http://www.w3.org/1999/xlink" xml:space="preserve">

<style type="text/css"><![CDATA[
.node, .edge {opacity: 0.7;}
.node.selected, .edge.selected {opacity: 1;}
.edge:hover path { stroke: red; }
.edge:hover polygon { stroke: red; fill: red; }
]]></style>
<script type="application/ecmascript" xlink:href="../../svg.min.js"/>
<svg id="graph" class="graph">
<g id="graph0" class="graph" transform="scale(1 1) rotate(0) translate(4 100)">
<title>libcockatrice_protocol/libcockatrice/protocol/get_pb_extension.cpp</title>
<!-- Node1 -->
<g id="Node000001" class="node">
<title>Node1</title>
<g id="a_Node000001"><a xlink:title=" ">
<polygon fill="#999999" stroke="#666666" points="270,-96 144,-96 144,-55 270,-55 270,-96"/>
<text text-anchor="start" x="152" y="-84" font-family="Helvetica,sans-Serif" font-size="10.00">libcockatrice_protocol</text>
<text text-anchor="start" x="152" y="-73" font-family="Helvetica,sans-Serif" font-size="10.00">/libcockatrice/protocol</text>
<text text-anchor="middle" x="207" y="-62" font-family="Helvetica,sans-Serif" font-size="10.00">/get_pb_extension.cpp</text>
</a>
</g>
</g>
<!-- Node2 -->
<g id="Node000002" class="node">
<title>Node2</title>
<g id="a_Node000002"><a xlink:href="../../d2/d8b/get__pb__extension_8h.html" target="_top" xlink:title=" ">
<polygon fill="white" stroke="#666666" points="112,-19 0,-19 0,0 112,0 112,-19"/>
<text text-anchor="middle" x="56" y="-7" font-family="Helvetica,sans-Serif" font-size="10.00">get_pb_extension.h</text>
</a>
</g>
</g>
<!-- Node1&#45;&gt;Node2 -->
<g id="edge1_Node000001_Node000002" class="edge">
<title>Node1&#45;&gt;Node2</title>
<g id="a_edge1_Node000001_Node000002"><a xlink:title=" ">
<path fill="none" stroke="#63b8ff" d="M160.87,-54.95C134.59,-43.81 102.67,-30.28 81.01,-21.1"/>
<polygon fill="#63b8ff" stroke="#63b8ff" points="76.27,-19.09 81.75,-18.97 78.57,-20.07 80.88,-21.04 80.88,-21.04 80.88,-21.04 78.57,-20.07 80,-23.11 76.27,-19.09 76.27,-19.09"/>
</a>
</g>
</g>
<!-- Node3 -->
<g id="Node000003" class="node">
<title>Node3</title>
<g id="a_Node000003"><a xlink:title=" ">
<polygon fill="#e0e0e0" stroke="#999999" points="284,-19 130,-19 130,0 284,0 284,-19"/>
<text text-anchor="middle" x="207" y="-7" font-family="Helvetica,sans-Serif" font-size="10.00">google/protobuf/descriptor.h</text>
</a>
</g>
</g>
<!-- Node1&#45;&gt;Node3 -->
<g id="edge2_Node000001_Node000003" class="edge">
<title>Node1&#45;&gt;Node3</title>
<g id="a_edge2_Node000001_Node000003"><a xlink:title=" ">
<path fill="none" stroke="#63b8ff" d="M207,-54.95C207,-45.09 207,-33.35 207,-24.42"/>
<polygon fill="#63b8ff" stroke="#63b8ff" points="207,-19.26 209.25,-24.26 207,-21.76 207,-24.26 207,-24.26 207,-24.26 207,-21.76 204.75,-24.26 207,-19.26 207,-19.26"/>
</a>
</g>
</g>
<!-- Node4 -->
<g id="Node000004" class="node">
<title>Node4</title>
<g id="a_Node000004"><a xlink:title=" ">
<polygon fill="#e0e0e0" stroke="#999999" points="452,-19 302,-19 302,0 452,0 452,-19"/>
<text text-anchor="middle" x="377" y="-7" font-family="Helvetica,sans-Serif" font-size="10.00">google/protobuf/message.h</text>
</a>
</g>
</g>
<!-- Node1&#45;&gt;Node4 -->
<g id="edge3_Node000001_Node000004" class="edge">
<title>Node1&#45;&gt;Node4</title>
<g id="a_edge3_Node000001_Node000004"><a xlink:title=" ">
<path fill="none" stroke="#63b8ff" d="M258.93,-54.95C288.77,-43.72 325.06,-30.05 349.46,-20.87"/>
<polygon fill="#63b8ff" stroke="#63b8ff" points="354.18,-19.09 350.29,-22.96 351.84,-19.97 349.5,-20.85 349.5,-20.85 349.5,-20.85 351.84,-19.97 348.71,-18.75 354.18,-19.09 354.18,-19.09"/>
</a>
</g>
</g>
</g>
</svg>
</svg>

<style type='text/css'>
<![CDATA[
[data-mouse-over-selected='false'] { opacity: 0.7; }
[data-mouse-over-selected='true']  { opacity: 1.0; }
]]>
</style>
<script type="application/ecmascript"><![CDATA[
document.addEventListener('DOMContentLoaded', (event) => {
  highlightEdges();
  highlightAdjacentNodes();
});
]]></script>
</svg>
