<?xml version="1.0" encoding="UTF-8" standalone="no"?>
<!DOCTYPE svg PUBLIC "-//W3C//DTD SVG 1.1//EN"
 "http://www.w3.org/Graphics/SVG/1.1/DTD/svg11.dtd">
<!-- Generated by graphviz version 2.43.0 (0)
 -->
<!-- Title: cockatrice/src/interface/widgets/general/display/background_plate_widget.cpp Pages: 1 -->
<svg width="434pt" height="159pt"
 viewBox="0.00 0.00 433.50 159.00" xmlns="http://www.w3.org/2000/svg" xmlns:xlink="http://www.w3.org/1999/xlink">

<svg id="main" version="1.1" xmlns="http://www.w3.org/2000/svg" xmlns:xlink="http://www.w3.org/1999/xlink" xml:space="preserve">

<style type="text/css"><![CDATA[
.node, .edge {opacity: 0.7;}
.node.selected, .edge.selected {opacity: 1;}
.edge:hover path { stroke: red; }
.edge:hover polygon { stroke: red; fill: red; }
]]></style>
<script type="application/ecmascript" xlink:href="../../svg.min.js"/>
<svg id="graph" class="graph">
<g id="graph0" class="graph" transform="scale(1 1) rotate(0) translate(4 155)">
<title>cockatrice/src/interface/widgets/general/display/background_plate_widget.cpp</title>
<!-- Node1 -->
<g id="Node000001" class="node">
<title>Node1</title>
<g id="a_Node000001"><a xlink:title=" ">
<polygon fill="#999999" stroke="#666666" points="347,-151 182,-151 182,-110 347,-110 347,-151"/>
<text text-anchor="start" x="190" y="-139" font-family="Helvetica,sans-Serif" font-size="10.00">cockatrice/src/interface</text>
<text text-anchor="start" x="190" y="-128" font-family="Helvetica,sans-Serif" font-size="10.00">/widgets/general/display</text>
<text text-anchor="middle" x="264.5" y="-117" font-family="Helvetica,sans-Serif" font-size="10.00">/background_plate_widget.cpp</text>
</a>
</g>
</g>
<!-- Node2 -->
<g id="Node000002" class="node">
<title>Node2</title>
<g id="a_Node000002"><a xlink:href="../../d3/d40/background__plate__widget_8h.html" target="_top" xlink:title=" ">
<polygon fill="white" stroke="#666666" points="151,-74 0,-74 0,-55 151,-55 151,-74"/>
<text text-anchor="middle" x="75.5" y="-62" font-family="Helvetica,sans-Serif" font-size="10.00">background_plate_widget.h</text>
</a>
</g>
</g>
<!-- Node1&#45;&gt;Node2 -->
<g id="edge1_Node000001_Node000002" class="edge">
<title>Node1&#45;&gt;Node2</title>
<g id="a_edge1_Node000001_Node000002"><a xlink:title=" ">
<path fill="none" stroke="#63b8ff" d="M206.77,-109.95C173.45,-98.67 132.91,-84.94 105.78,-75.75"/>
<polygon fill="#63b8ff" stroke="#63b8ff" points="100.87,-74.09 106.33,-73.56 103.24,-74.89 105.61,-75.7 105.61,-75.7 105.61,-75.7 103.24,-74.89 104.89,-77.83 100.87,-74.09 100.87,-74.09"/>
</a>
</g>
</g>
<!-- Node4 -->
<g id="Node000004" class="node">
<title>Node4</title>
<g id="a_Node000004"><a xlink:title=" ">
<polygon fill="#e0e0e0" stroke="#999999" points="221.5,-74 169.5,-74 169.5,-55 221.5,-55 221.5,-74"/>
<text text-anchor="middle" x="195.5" y="-62" font-family="Helvetica,sans-Serif" font-size="10.00">QBrush</text>
</a>
</g>
</g>
<!-- Node1&#45;&gt;Node4 -->
<g id="edge3_Node000001_Node000004" class="edge">
<title>Node1&#45;&gt;Node4</title>
<g id="a_edge3_Node000001_Node000004"><a xlink:title=" ">
<path fill="none" stroke="#63b8ff" d="M243.42,-109.95C232.09,-99.44 218.46,-86.8 208.64,-77.69"/>
<polygon fill="#63b8ff" stroke="#63b8ff" points="204.94,-74.26 210.14,-76.01 206.78,-75.96 208.61,-77.66 208.61,-77.66 208.61,-77.66 206.78,-75.96 207.08,-79.31 204.94,-74.26 204.94,-74.26"/>
</a>
</g>
</g>
<!-- Node5 -->
<g id="Node000005" class="node">
<title>Node5</title>
<g id="a_Node000005"><a xlink:title=" ">
<polygon fill="#e0e0e0" stroke="#999999" points="289.5,-74 239.5,-74 239.5,-55 289.5,-55 289.5,-74"/>
<text text-anchor="middle" x="264.5" y="-62" font-family="Helvetica,sans-Serif" font-size="10.00">QColor</text>
</a>
</g>
</g>
<!-- Node1&#45;&gt;Node5 -->
<g id="edge4_Node000001_Node000005" class="edge">
<title>Node1&#45;&gt;Node5</title>
<g id="a_edge4_Node000001_Node000005"><a xlink:title=" ">
<path fill="none" stroke="#63b8ff" d="M264.5,-109.95C264.5,-100.09 264.5,-88.35 264.5,-79.42"/>
<polygon fill="#63b8ff" stroke="#63b8ff" points="264.5,-74.26 266.75,-79.26 264.5,-76.76 264.5,-79.26 264.5,-79.26 264.5,-79.26 264.5,-76.76 262.25,-79.26 264.5,-74.26 264.5,-74.26"/>
</a>
</g>
</g>
<!-- Node6 -->
<g id="Node000006" class="node">
<title>Node6</title>
<g id="a_Node000006"><a xlink:title=" ">
<polygon fill="#e0e0e0" stroke="#999999" points="365.5,-74 307.5,-74 307.5,-55 365.5,-55 365.5,-74"/>
<text text-anchor="middle" x="336.5" y="-62" font-family="Helvetica,sans-Serif" font-size="10.00">QPainter</text>
</a>
</g>
</g>
<!-- Node1&#45;&gt;Node6 -->
<g id="edge5_Node000001_Node000006" class="edge">
<title>Node1&#45;&gt;Node6</title>
<g id="a_edge5_Node000001_Node000006"><a xlink:title=" ">
<path fill="none" stroke="#63b8ff" d="M286.49,-109.95C298.32,-99.44 312.54,-86.8 322.79,-77.69"/>
<polygon fill="#63b8ff" stroke="#63b8ff" points="326.64,-74.26 324.4,-79.26 324.78,-75.92 322.91,-77.58 322.91,-77.58 322.91,-77.58 324.78,-75.92 321.41,-75.9 326.64,-74.26 326.64,-74.26"/>
</a>
</g>
</g>
<!-- Node7 -->
<g id="Node000007" class="node">
<title>Node7</title>
<g id="a_Node000007"><a xlink:title=" ">
<polygon fill="#e0e0e0" stroke="#999999" points="425.5,-74 383.5,-74 383.5,-55 425.5,-55 425.5,-74"/>
<text text-anchor="middle" x="404.5" y="-62" font-family="Helvetica,sans-Serif" font-size="10.00">QPen</text>
</a>
</g>
</g>
<!-- Node1&#45;&gt;Node7 -->
<g id="edge6_Node000001_Node000007" class="edge">
<title>Node1&#45;&gt;Node7</title>
<g id="a_edge6_Node000001_Node000007"><a xlink:title=" ">
<path fill="none" stroke="#63b8ff" d="M307.27,-109.95C331.53,-98.86 360.98,-85.4 381.06,-76.21"/>
<polygon fill="#63b8ff" stroke="#63b8ff" points="385.71,-74.09 382.09,-78.22 383.43,-75.13 381.16,-76.17 381.16,-76.17 381.16,-76.17 383.43,-75.13 380.22,-74.12 385.71,-74.09 385.71,-74.09"/>
</a>
</g>
</g>
<!-- Node3 -->
<g id="Node000003" class="node">
<title>Node3</title>
<g id="a_Node000003"><a xlink:title=" ">
<polygon fill="#e0e0e0" stroke="#999999" points="105,-19 46,-19 46,0 105,0 105,-19"/>
<text text-anchor="middle" x="75.5" y="-7" font-family="Helvetica,sans-Serif" font-size="10.00">QWidget</text>
</a>
</g>
</g>
<!-- Node2&#45;&gt;Node3 -->
<g id="edge2_Node000002_Node000003" class="edge">
<title>Node2&#45;&gt;Node3</title>
<g id="a_edge2_Node000002_Node000003"><a xlink:title=" ">
<path fill="none" stroke="#63b8ff" d="M75.5,-54.75C75.5,-46.41 75.5,-33.74 75.5,-24.09"/>
<polygon fill="#63b8ff" stroke="#63b8ff" points="75.5,-19.09 77.75,-24.09 75.5,-21.59 75.5,-24.09 75.5,-24.09 75.5,-24.09 75.5,-21.59 73.25,-24.09 75.5,-19.09 75.5,-19.09"/>
</a>
</g>
</g>
</g>
</svg>
</svg>

<style type='text/css'>
<![CDATA[
[data-mouse-over-selected='false'] { opacity: 0.7; }
[data-mouse-over-selected='true']  { opacity: 1.0; }
]]>
</style>
<script type="application/ecmascript"><![CDATA[
document.addEventListener('DOMContentLoaded', (event) => {
  highlightEdges();
  highlightAdjacentNodes();
});
]]></script>
</svg>
