<?xml version="1.0" encoding="UTF-8" standalone="no"?>
<!DOCTYPE svg PUBLIC "-//W3C//DTD SVG 1.1//EN"
 "http://www.w3.org/Graphics/SVG/1.1/DTD/svg11.dtd">
<!-- Generated by graphviz version 2.43.0 (0)
 -->
<!-- Title: common/debug_pb_message.cpp Pages: 1 -->
<svg width="800pt" height="148pt"
 viewBox="0.00 0.00 800.00 148.00" xmlns="http://www.w3.org/2000/svg" xmlns:xlink="http://www.w3.org/1999/xlink">
<g id="graph0" class="graph" transform="scale(1 1) rotate(0) translate(4 144)">
<title>common/debug_pb_message.cpp</title>
<!-- Node1 -->
<g id="Node000001" class="node">
<title>Node1</title>
<g id="a_Node000001"><a xlink:title=" ">
<polygon fill="#999999" stroke="#666666" points="386.5,-140 207.5,-140 207.5,-121 386.5,-121 386.5,-140"/>
<text text-anchor="middle" x="297" y="-128" font-family="Helvetica,sans-Serif" font-size="10.00">common/debug_pb_message.cpp</text>
</a>
</g>
</g>
<!-- Node2 -->
<g id="Node000002" class="node">
<title>Node2</title>
<g id="a_Node000002"><a xlink:href="../../de/d76/debug__pb__message_8h.html" target="_top" xlink:title=" ">
<polygon fill="white" stroke="#666666" points="122,-79.5 0,-79.5 0,-60.5 122,-60.5 122,-79.5"/>
<text text-anchor="middle" x="61" y="-67.5" font-family="Helvetica,sans-Serif" font-size="10.00">debug_pb_message.h</text>
</a>
</g>
</g>
<!-- Node1&#45;&gt;Node2 -->
<g id="edge1_Node000001_Node000002" class="edge">
<title>Node1&#45;&gt;Node2</title>
<g id="a_edge1_Node000001_Node000002"><a xlink:title=" ">
<path fill="none" stroke="#63b8ff" d="M262.68,-120.99C219.6,-110.31 145.85,-92.03 100.47,-80.79"/>
<polygon fill="#63b8ff" stroke="#63b8ff" points="95.36,-79.52 100.75,-78.54 97.78,-80.12 100.21,-80.72 100.21,-80.72 100.21,-80.72 97.78,-80.12 99.67,-82.9 95.36,-79.52 95.36,-79.52"/>
</a>
</g>
</g>
<!-- Node3 -->
<g id="Node000003" class="node">
<title>Node3</title>
<g id="a_Node000003"><a xlink:href="../../da/d4b/trice__limits_8h.html" target="_top" xlink:title=" ">
<polygon fill="white" stroke="#666666" points="220,-79.5 140,-79.5 140,-60.5 220,-60.5 220,-79.5"/>
<text text-anchor="middle" x="180" y="-67.5" font-family="Helvetica,sans-Serif" font-size="10.00">trice_limits.h</text>
</a>
</g>
</g>
<!-- Node1&#45;&gt;Node3 -->
<g id="edge2_Node000001_Node000003" class="edge">
<title>Node1&#45;&gt;Node3</title>
<g id="a_edge2_Node000001_Node000003"><a xlink:title=" ">
<path fill="none" stroke="#63b8ff" d="M279.99,-120.99C259.28,-110.64 224.28,-93.14 201.66,-81.83"/>
<polygon fill="#63b8ff" stroke="#63b8ff" points="197.03,-79.52 202.51,-79.74 199.27,-80.63 201.51,-81.75 201.51,-81.75 201.51,-81.75 199.27,-80.63 200.5,-83.77 197.03,-79.52 197.03,-79.52"/>
</a>
</g>
</g>
<!-- Node4 -->
<g id="Node000004" class="node">
<title>Node4</title>
<g id="a_Node000004"><a xlink:title=" ">
<polygon fill="#e0e0e0" stroke="#999999" points="240.5,-19 187.5,-19 187.5,0 240.5,0 240.5,-19"/>
<text text-anchor="middle" x="214" y="-7" font-family="Helvetica,sans-Serif" font-size="10.00">QString</text>
</a>
</g>
</g>
<!-- Node1&#45;&gt;Node4 -->
<g id="edge5_Node000001_Node000004" class="edge">
<title>Node1&#45;&gt;Node4</title>
<g id="a_edge5_Node000001_Node000004"><a xlink:title=" ">
<path fill="none" stroke="#63b8ff" d="M291.03,-120.94C276.68,-100.37 240.19,-48.05 223.1,-23.54"/>
<polygon fill="#63b8ff" stroke="#63b8ff" points="220.14,-19.3 224.84,-22.12 221.57,-21.35 223,-23.4 223,-23.4 223,-23.4 221.57,-21.35 221.15,-24.69 220.14,-19.3 220.14,-19.3"/>
</a>
</g>
</g>
<!-- Node5 -->
<g id="Node000005" class="node">
<title>Node5</title>
<g id="a_Node000005"><a xlink:title=" ">
<polygon fill="#e0e0e0" stroke="#999999" points="317.5,-79.5 276.5,-79.5 276.5,-60.5 317.5,-60.5 317.5,-79.5"/>
<text text-anchor="middle" x="297" y="-67.5" font-family="Helvetica,sans-Serif" font-size="10.00">QList</text>
</a>
</g>
</g>
<!-- Node1&#45;&gt;Node5 -->
<g id="edge4_Node000001_Node000005" class="edge">
<title>Node1&#45;&gt;Node5</title>
<g id="a_edge4_Node000001_Node000005"><a xlink:title=" ">
<path fill="none" stroke="#63b8ff" d="M297,-120.87C297,-111.36 297,-95.95 297,-84.77"/>
<polygon fill="#63b8ff" stroke="#63b8ff" points="297,-79.67 299.25,-84.67 297,-82.17 297,-84.67 297,-84.67 297,-84.67 297,-82.17 294.75,-84.67 297,-79.67 297,-79.67"/>
</a>
</g>
</g>
<!-- Node6 -->
<g id="Node000006" class="node">
<title>Node6</title>
<g id="a_Node000006"><a xlink:title=" ">
<polygon fill="#e0e0e0" stroke="#999999" points="490,-79.5 336,-79.5 336,-60.5 490,-60.5 490,-79.5"/>
<text text-anchor="middle" x="413" y="-67.5" font-family="Helvetica,sans-Serif" font-size="10.00">google/protobuf/descriptor.h</text>
</a>
</g>
</g>
<!-- Node1&#45;&gt;Node6 -->
<g id="edge6_Node000001_Node000006" class="edge">
<title>Node1&#45;&gt;Node6</title>
<g id="a_edge6_Node000001_Node000006"><a xlink:title=" ">
<path fill="none" stroke="#63b8ff" d="M314.12,-120.87C334.59,-110.54 368.9,-93.24 391.24,-81.98"/>
<polygon fill="#63b8ff" stroke="#63b8ff" points="395.81,-79.67 392.36,-83.93 393.58,-80.79 391.35,-81.92 391.35,-81.92 391.35,-81.92 393.58,-80.79 390.34,-79.91 395.81,-79.67 395.81,-79.67"/>
</a>
</g>
</g>
<!-- Node7 -->
<g id="Node000007" class="node">
<title>Node7</title>
<g id="a_Node000007"><a xlink:title=" ">
<polygon fill="#e0e0e0" stroke="#999999" points="658,-79.5 508,-79.5 508,-60.5 658,-60.5 658,-79.5"/>
<text text-anchor="middle" x="583" y="-67.5" font-family="Helvetica,sans-Serif" font-size="10.00">google/protobuf/message.h</text>
</a>
</g>
</g>
<!-- Node1&#45;&gt;Node7 -->
<g id="edge7_Node000001_Node000007" class="edge">
<title>Node1&#45;&gt;Node7</title>
<g id="a_edge7_Node000001_Node000007"><a xlink:title=" ">
<path fill="none" stroke="#63b8ff" d="M338.59,-120.99C391.12,-110.25 481.26,-91.81 536.16,-80.58"/>
<polygon fill="#63b8ff" stroke="#63b8ff" points="541.36,-79.52 536.92,-82.72 538.91,-80.02 536.46,-80.52 536.46,-80.52 536.46,-80.52 538.91,-80.02 536.01,-78.31 541.36,-79.52 541.36,-79.52"/>
</a>
</g>
</g>
<!-- Node8 -->
<g id="Node000008" class="node">
<title>Node8</title>
<g id="a_Node000008"><a xlink:title=" ">
<polygon fill="#e0e0e0" stroke="#999999" points="792,-85 676,-85 676,-55 792,-55 792,-85"/>
<text text-anchor="start" x="684" y="-73" font-family="Helvetica,sans-Serif" font-size="10.00">google/protobuf/text</text>
<text text-anchor="middle" x="734" y="-62" font-family="Helvetica,sans-Serif" font-size="10.00">_format.h</text>
</a>
</g>
</g>
<!-- Node1&#45;&gt;Node8 -->
<g id="edge8_Node000001_Node000008" class="edge">
<title>Node1&#45;&gt;Node8</title>
<g id="a_edge8_Node000001_Node000008"><a xlink:title=" ">
<path fill="none" stroke="#63b8ff" d="M385.89,-120.98C461.03,-113.27 571.39,-100.71 667,-85 668.28,-84.79 669.58,-84.57 670.88,-84.35"/>
<polygon fill="#63b8ff" stroke="#63b8ff" points="675.95,-83.45 671.42,-86.54 673.49,-83.88 671.03,-84.32 671.03,-84.32 671.03,-84.32 673.49,-83.88 670.64,-82.1 675.95,-83.45 675.95,-83.45"/>
</a>
</g>
</g>
<!-- Node3&#45;&gt;Node4 -->
<g id="edge3_Node000003_Node000004" class="edge">
<title>Node3&#45;&gt;Node4</title>
<g id="a_edge3_Node000003_Node000004"><a xlink:title=" ">
<path fill="none" stroke="#63b8ff" d="M185.02,-60.37C190.64,-50.69 199.83,-34.89 206.35,-23.66"/>
<polygon fill="#63b8ff" stroke="#63b8ff" points="208.96,-19.17 208.4,-24.62 207.71,-21.33 206.45,-23.49 206.45,-23.49 206.45,-23.49 207.71,-21.33 204.5,-22.36 208.96,-19.17 208.96,-19.17"/>
</a>
</g>
</g>
</g>
</svg>
