<?xml version="1.0" encoding="UTF-8" standalone="no"?>
<!DOCTYPE svg PUBLIC "-//W3C//DTD SVG 1.1//EN"
 "http://www.w3.org/Graphics/SVG/1.1/DTD/svg11.dtd">
<!-- Generated by graphviz version 2.43.0 (0)
 -->
<!-- Title: isASCII Pages: 1 -->
<svg width="776pt" height="76pt"
 viewBox="0.00 0.00 776.00 75.50" xmlns="http://www.w3.org/2000/svg" xmlns:xlink="http://www.w3.org/1999/xlink">
<g id="graph0" class="graph" transform="scale(1 1) rotate(0) translate(4 71.5)">
<title>isASCII</title>
<!-- Node1 -->
<g id="Node000001" class="node">
<title>Node1</title>
<g id="a_Node000001"><a xlink:title=" ">
<polygon fill="#999999" stroke="#666666" points="768,-38 718,-38 718,-19 768,-19 768,-38"/>
<text text-anchor="middle" x="743" y="-26" font-family="Helvetica,sans-Serif" font-size="10.00">isASCII</text>
</a>
</g>
</g>
<!-- Node2 -->
<g id="Node000002" class="node">
<title>Node2</title>
<g id="a_Node000002"><a xlink:href="../../dc/d18/qxtmailmessage_8cpp.html#adc7e7f4856fb929b0ac4572fc63f8217" target="_top" xlink:title=" ">
<polygon fill="white" stroke="#666666" points="682,-57 553,-57 553,-38 682,-38 682,-57"/>
<text text-anchor="middle" x="617.5" y="-45" font-family="Helvetica,sans-Serif" font-size="10.00">qxt_fold_mime_header</text>
</a>
</g>
</g>
<!-- Node1&#45;&gt;Node2 -->
<g id="edge1_Node000001_Node000002" class="edge">
<title>Node1&#45;&gt;Node2</title>
<g id="a_edge1_Node000001_Node000002"><a xlink:title=" ">
<path fill="none" stroke="#63b8ff" d="M712.92,-32.97C703.14,-34.48 691.81,-36.22 680.47,-37.97"/>
<polygon fill="#63b8ff" stroke="#63b8ff" points="717.89,-32.21 713.3,-35.19 715.42,-32.59 712.95,-32.97 712.95,-32.97 712.95,-32.97 715.42,-32.59 712.61,-30.75 717.89,-32.21 717.89,-32.21"/>
</a>
</g>
</g>
<!-- Node4 -->
<g id="Node000004" class="node">
<title>Node4</title>
<g id="a_Node000004"><a xlink:href="../../d5/dff/classQxtMailMessage.html#a09f8677449b51a988d255391085059bf" target="_top" xlink:title=" ">
<polygon fill="white" stroke="#666666" points="517,-19 376,-19 376,0 517,0 517,-19"/>
<text text-anchor="middle" x="446.5" y="-7" font-family="Helvetica,sans-Serif" font-size="10.00">QxtMailMessage::rfc2822</text>
</a>
</g>
</g>
<!-- Node1&#45;&gt;Node4 -->
<g id="edge6_Node000001_Node000004" class="edge">
<title>Node1&#45;&gt;Node4</title>
<g id="a_edge6_Node000001_Node000004"><a xlink:title=" ">
<path fill="none" stroke="#63b8ff" d="M712.88,-26.62C667.72,-23.71 579.56,-18.02 517.26,-14"/>
<polygon fill="#63b8ff" stroke="#63b8ff" points="717.9,-26.95 712.77,-28.87 715.41,-26.78 712.91,-26.62 712.91,-26.62 712.91,-26.62 715.41,-26.78 713.06,-24.38 717.9,-26.95 717.9,-26.95"/>
</a>
</g>
</g>
<!-- Node3 -->
<g id="Node000003" class="node">
<title>Node3</title>
<g id="a_Node000003"><a xlink:href="../../d5/db4/classQxtMailAttachment.html#a453ac6894fe6bb0f7f2e446edd663675" target="_top" xlink:title=" ">
<polygon fill="white" stroke="#666666" points="505.5,-67.5 387.5,-67.5 387.5,-37.5 505.5,-37.5 505.5,-67.5"/>
<text text-anchor="start" x="395.5" y="-55.5" font-family="Helvetica,sans-Serif" font-size="10.00">QxtMailAttachment::</text>
<text text-anchor="middle" x="446.5" y="-44.5" font-family="Helvetica,sans-Serif" font-size="10.00">mimeData</text>
</a>
</g>
</g>
<!-- Node2&#45;&gt;Node3 -->
<g id="edge2_Node000002_Node000003" class="edge">
<title>Node2&#45;&gt;Node3</title>
<g id="a_edge2_Node000002_Node000003"><a xlink:title=" ">
<path fill="none" stroke="#63b8ff" d="M547.52,-49.54C533.61,-49.95 519.13,-50.38 505.64,-50.78"/>
<polygon fill="#63b8ff" stroke="#63b8ff" points="552.61,-49.39 547.68,-51.79 550.11,-49.46 547.61,-49.54 547.61,-49.54 547.61,-49.54 550.11,-49.46 547.54,-47.29 552.61,-49.39 552.61,-49.39"/>
</a>
</g>
</g>
<!-- Node2&#45;&gt;Node4 -->
<g id="edge3_Node000002_Node000004" class="edge">
<title>Node2&#45;&gt;Node4</title>
<g id="a_edge3_Node000002_Node000004"><a xlink:title=" ">
<path fill="none" stroke="#63b8ff" d="M568.95,-36.81C544.08,-31.22 513.9,-24.43 489.84,-19.02"/>
<polygon fill="#63b8ff" stroke="#63b8ff" points="573.85,-37.91 568.48,-39.01 571.42,-37.36 568.98,-36.81 568.98,-36.81 568.98,-36.81 571.42,-37.36 569.47,-34.62 573.85,-37.91 573.85,-37.91"/>
</a>
</g>
</g>
<!-- Node5 -->
<g id="Node000005" class="node">
<title>Node5</title>
<g id="a_Node000005"><a xlink:href="../../d6/deb/classQxtSmtpPrivate.html#a03fa60815b1b4cb6825e09017c60d719" target="_top" xlink:title=" ">
<polygon fill="white" stroke="#666666" points="340,-19 192,-19 192,0 340,0 340,-19"/>
<text text-anchor="middle" x="266" y="-7" font-family="Helvetica,sans-Serif" font-size="10.00">QxtSmtpPrivate::sendBody</text>
</a>
</g>
</g>
<!-- Node4&#45;&gt;Node5 -->
<g id="edge4_Node000004_Node000005" class="edge">
<title>Node4&#45;&gt;Node5</title>
<g id="a_edge4_Node000004_Node000005"><a xlink:title=" ">
<path fill="none" stroke="#63b8ff" d="M370.72,-9.5C360.61,-9.5 350.25,-9.5 340.17,-9.5"/>
<polygon fill="#63b8ff" stroke="#63b8ff" points="375.98,-9.5 370.98,-11.75 373.48,-9.5 370.98,-9.5 370.98,-9.5 370.98,-9.5 373.48,-9.5 370.98,-7.25 375.98,-9.5 375.98,-9.5"/>
</a>
</g>
</g>
<!-- Node6 -->
<g id="Node000006" class="node">
<title>Node6</title>
<g id="a_Node000006"><a xlink:href="../../d6/deb/classQxtSmtpPrivate.html#a97e60e4218d6314ed68497bcabbe33b5" target="_top" xlink:title=" ">
<polygon fill="white" stroke="#666666" points="156,-19 0,-19 0,0 156,0 156,-19"/>
<text text-anchor="middle" x="78" y="-7" font-family="Helvetica,sans-Serif" font-size="10.00">QxtSmtpPrivate::socketRead</text>
</a>
</g>
</g>
<!-- Node5&#45;&gt;Node6 -->
<g id="edge5_Node000005_Node000006" class="edge">
<title>Node5&#45;&gt;Node6</title>
<g id="a_edge5_Node000005_Node000006"><a xlink:title=" ">
<path fill="none" stroke="#63b8ff" d="M186.52,-9.5C176.47,-9.5 166.19,-9.5 156.16,-9.5"/>
<polygon fill="#63b8ff" stroke="#63b8ff" points="191.75,-9.5 186.75,-11.75 189.25,-9.5 186.75,-9.5 186.75,-9.5 186.75,-9.5 189.25,-9.5 186.75,-7.25 191.75,-9.5 191.75,-9.5"/>
</a>
</g>
</g>
</g>
</svg>
