<?xml version="1.0" encoding="UTF-8" standalone="no"?>
<!DOCTYPE svg PUBLIC "-//W3C//DTD SVG 1.1//EN"
 "http://www.w3.org/Graphics/SVG/1.1/DTD/svg11.dtd">
<!-- Generated by graphviz version 2.43.0 (0)
 -->
<!-- Title: LibraryMenu::onRevealLibraryTriggered Pages: 1 -->
<!--zoomable 374 -->

<svg id="main" version="1.1" xmlns="http://www.w3.org/2000/svg" xmlns:xlink="http://www.w3.org/1999/xlink" xml:space="preserve" onload="init(evt)">
<style type="text/css"><![CDATA[
.node, .edge {opacity: 0.7;}
.node.selected, .edge.selected {opacity: 1;}
.edge:hover path { stroke: red; }
.edge:hover polygon { stroke: red; fill: red; }
]]></style>

<defs>
  <circle id="rim" cx="0" cy="0" r="7"/>
  <circle id="rim2" cx="0" cy="0" r="3.5"/>
  <g id="zoomPlus">
    <use xlink:href="#rim" fill="#404040"><set attributeName="fill" to="#808080" begin="zoomplus.mouseover" end="zoomplus.mouseout"/></use>
    <path d="M-4,0h8M0,-4v8" fill="none" stroke="white" stroke-width="1.5" pointer-events="none"/>
  </g>
  <g id="zoomMin">
    <use xlink:href="#rim" fill="#404040"><set attributeName="fill" to="#808080" begin="zoomminus.mouseover" end="zoomminus.mouseout"/></use>
    <path d="M-4,0h8" fill="none" stroke="white" stroke-width="1.5" pointer-events="none"/>
  </g>
  <g id="arrowUp" transform="translate(30 24)">
    <use xlink:href="#rim"/>
    <path pointer-events="none" fill="none" stroke="white" stroke-width="1.5" d="M0,-3.0v7 M-2.5,-0.5L0,-3.0L2.5,-0.5"/>
  </g>
  <g id="arrowRight" transform="rotate(90) translate(36 -43)">
    <use xlink:href="#rim"/>
    <path pointer-events="none" fill="none" stroke="white" stroke-width="1.5" d="M0,-3.0v7 M-2.5,-0.5L0,-3.0L2.5,-0.5"/>
  </g>
  <g id="arrowDown" transform="rotate(180) translate(-30 -48)">
    <use xlink:href="#rim"/>
    <path pointer-events="none" fill="none" stroke="white" stroke-width="1.5" d="M0,-3.0v7 M-2.5,-0.5L0,-3.0L2.5,-0.5"/>
  </g>
  <g id="arrowLeft" transform="rotate(270) translate(-36 17)">
    <use xlink:href="#rim"/>
    <path pointer-events="none" fill="none" stroke="white" stroke-width="1.5" d="M0,-3.0v7 M-2.5,-0.5L0,-3.0L2.5,-0.5"/>
  </g>
  <g id="resetDef">
    <use xlink:href="#rim2" fill="#404040"><set attributeName="fill" to="#808080" begin="reset.mouseover" end="reset.mouseout"/></use>
  </g>
</defs>
<script type="application/ecmascript">
var viewWidth = 1358;
var viewHeight = 374;
var sectionId = 'dynsection-16';
</script>
<script type="application/ecmascript" xlink:href="../../svg.min.js"/>
<svg id="graph" class="graph">
<g id="viewport">
<title>LibraryMenu::onRevealLibraryTriggered</title>
<!-- Node1 -->
<g id="Node000001" class="node">
<title>Node1</title>
<g id="a_Node000001"><a xlink:title=" ">
<polygon fill="#999999" stroke="#666666" points="163,-263.5 0,-263.5 0,-233.5 163,-233.5 163,-263.5"/>
<text text-anchor="start" x="8" y="-251.5" font-family="Helvetica,sans-Serif" font-size="10.00">LibraryMenu::onRevealLibrary</text>
<text text-anchor="middle" x="81.5" y="-240.5" font-family="Helvetica,sans-Serif" font-size="10.00">Triggered</text>
</a>
</g>
</g>
<!-- Node2 -->
<g id="Node000002" class="node">
<title>Node2</title>
<g id="a_Node000002"><a xlink:href="../../d2/d23/classPlayerActions.html#a05c15fceb123ef0e82fdf004d6420796" target="_top" xlink:title=" ">
<polygon fill="white" stroke="#666666" points="337,-285.5 199,-285.5 199,-255.5 337,-255.5 337,-285.5"/>
<text text-anchor="start" x="207" y="-273.5" font-family="Helvetica,sans-Serif" font-size="10.00">PlayerActions::actReveal</text>
<text text-anchor="middle" x="268" y="-262.5" font-family="Helvetica,sans-Serif" font-size="10.00">Library</text>
</a>
</g>
</g>
<!-- Node1&#45;&gt;Node2 -->
<g id="edge1_Node000001_Node000002" class="edge">
<title>Node1&#45;&gt;Node2</title>
<g id="a_edge1_Node000001_Node000002"><a xlink:title=" ">
<path fill="none" stroke="#63b8ff" d="M163.16,-258.12C173.31,-259.33 183.66,-260.56 193.69,-261.76"/>
<polygon fill="#63b8ff" stroke="#63b8ff" points="198.91,-262.38 193.68,-264.02 196.43,-262.08 193.94,-261.79 193.94,-261.79 193.94,-261.79 196.43,-262.08 194.21,-259.55 198.91,-262.38 198.91,-262.38"/>
</a>
</g>
</g>
<!-- Node18 -->
<g id="Node000018" class="node">
<title>Node18</title>
<g id="a_Node000018"><a xlink:href="../../d2/d4b/classPlayer.html#ad46281e97b39abd661c138d30646f879" target="_top" xlink:title=" ">
<polygon fill="white" stroke="#666666" points="336,-237 200,-237 200,-218 336,-218 336,-237"/>
<text text-anchor="middle" x="268" y="-225" font-family="Helvetica,sans-Serif" font-size="10.00">Player::getPlayerActions</text>
</a>
</g>
</g>
<!-- Node1&#45;&gt;Node18 -->
<g id="edge21_Node000001_Node000018" class="edge">
<title>Node1&#45;&gt;Node18</title>
<g id="a_edge21_Node000001_Node000018"><a xlink:title=" ">
<path fill="none" stroke="#63b8ff" d="M163.16,-239.32C173.66,-238.12 184.36,-236.91 194.71,-235.73"/>
<polygon fill="#63b8ff" stroke="#63b8ff" points="199.76,-235.15 195.05,-237.95 197.28,-235.44 194.79,-235.72 194.79,-235.72 194.79,-235.72 197.28,-235.44 194.54,-233.48 199.76,-235.15 199.76,-235.15"/>
</a>
</g>
</g>
<!-- Node3 -->
<g id="Node000003" class="node">
<title>Node3</title>
<g id="a_Node000003"><a xlink:href="../../d2/d23/classPlayerActions.html#a24052faefdf622e1bea1afb4c601644b" target="_top" xlink:title=" ">
<polygon fill="white" stroke="#666666" points="565,-280 373,-280 373,-261 565,-261 565,-280"/>
<text text-anchor="middle" x="469" y="-268" font-family="Helvetica,sans-Serif" font-size="10.00">PlayerActions::sendGameCommand</text>
</a>
</g>
</g>
<!-- Node2&#45;&gt;Node3 -->
<g id="edge2_Node000002_Node000003" class="edge">
<title>Node2&#45;&gt;Node3</title>
<g id="a_edge2_Node000002_Node000003"><a xlink:title=" ">
<path fill="none" stroke="#63b8ff" d="M337.21,-270.5C347.07,-270.5 357.39,-270.5 367.72,-270.5"/>
<polygon fill="#63b8ff" stroke="#63b8ff" points="372.79,-270.5 367.79,-272.75 370.29,-270.5 367.79,-270.5 367.79,-270.5 367.79,-270.5 370.29,-270.5 367.79,-268.25 372.79,-270.5 372.79,-270.5"/>
</a>
</g>
</g>
<!-- Node4 -->
<g id="Node000004" class="node">
<title>Node4</title>
<g id="a_Node000004"><a xlink:href="../../d2/d4b/classPlayer.html#af7cfc2b66a72002d9f290285499a0a3b" target="_top" xlink:title=" ">
<polygon fill="white" stroke="#666666" points="735,-366 637,-366 637,-347 735,-347 735,-366"/>
<text text-anchor="middle" x="686" y="-354" font-family="Helvetica,sans-Serif" font-size="10.00">Player::getGame</text>
</a>
</g>
</g>
<!-- Node3&#45;&gt;Node4 -->
<g id="edge3_Node000003_Node000004" class="edge">
<title>Node3&#45;&gt;Node4</title>
<g id="a_edge3_Node000003_Node000004"><a xlink:title=" ">
<path fill="none" stroke="#63b8ff" d="M485.55,-280.09C509.52,-294.48 557.29,-321.66 601,-337.5 610.79,-341.05 621.46,-344.07 631.82,-346.59"/>
<polygon fill="#63b8ff" stroke="#63b8ff" points="636.87,-347.79 631.49,-348.82 634.44,-347.21 632,-346.63 632,-346.63 632,-346.63 634.44,-347.21 632.52,-344.44 636.87,-347.79 636.87,-347.79"/>
</a>
</g>
</g>
<!-- Node5 -->
<g id="Node000005" class="node">
<title>Node5</title>
<g id="a_Node000005"><a xlink:href="../../d3/d44/classAbstractGame.html#a32105d86255d5dc46c72d290fdfce9c3" target="_top" xlink:title=" ">
<polygon fill="white" stroke="#666666" points="768.5,-328.5 603.5,-328.5 603.5,-298.5 768.5,-298.5 768.5,-328.5"/>
<text text-anchor="start" x="611.5" y="-316.5" font-family="Helvetica,sans-Serif" font-size="10.00">AbstractGame::getGameEvent</text>
<text text-anchor="middle" x="686" y="-305.5" font-family="Helvetica,sans-Serif" font-size="10.00">Handler</text>
</a>
</g>
</g>
<!-- Node3&#45;&gt;Node5 -->
<g id="edge4_Node000003_Node000005" class="edge">
<title>Node3&#45;&gt;Node5</title>
<g id="a_edge4_Node000003_Node000005"><a xlink:title=" ">
<path fill="none" stroke="#63b8ff" d="M517.72,-280.04C543.33,-285.17 575.58,-291.62 604.91,-297.48"/>
<polygon fill="#63b8ff" stroke="#63b8ff" points="609.97,-298.49 604.62,-299.72 607.52,-298 605.07,-297.51 605.07,-297.51 605.07,-297.51 607.52,-298 605.51,-295.31 609.97,-298.49 609.97,-298.49"/>
</a>
</g>
</g>
<!-- Node6 -->
<g id="Node000006" class="node">
<title>Node6</title>
<g id="a_Node000006"><a xlink:href="../../df/df7/classPlayerInfo.html#a7f05edab50309334350d183e000f4b6c" target="_top" xlink:title=" ">
<polygon fill="white" stroke="#666666" points="1151,-242 1054,-242 1054,-223 1151,-223 1151,-242"/>
<text text-anchor="middle" x="1102.5" y="-230" font-family="Helvetica,sans-Serif" font-size="10.00">PlayerInfo::getId</text>
</a>
</g>
</g>
<!-- Node3&#45;&gt;Node6 -->
<g id="edge5_Node000003_Node000006" class="edge">
<title>Node3&#45;&gt;Node6</title>
<g id="a_edge5_Node000003_Node000006"><a xlink:title=" ">
<path fill="none" stroke="#63b8ff" d="M552.04,-260.99C568.25,-259.32 585.15,-257.73 601,-256.5 764.01,-243.89 957.44,-236.86 1048.76,-234.01"/>
<polygon fill="#63b8ff" stroke="#63b8ff" points="1053.83,-233.86 1048.9,-236.26 1051.33,-233.93 1048.83,-234.01 1048.83,-234.01 1048.83,-234.01 1051.33,-233.93 1048.76,-231.76 1053.83,-233.86 1053.83,-233.86"/>
</a>
</g>
</g>
<!-- Node7 -->
<g id="Node000007" class="node">
<title>Node7</title>
<g id="a_Node000007"><a xlink:href="../../d2/d4b/classPlayer.html#ae518d19009a8604a8538f9c5fb083474" target="_top" xlink:title=" ">
<polygon fill="white" stroke="#666666" points="1350,-204 1231,-204 1231,-185 1350,-185 1350,-204"/>
<text text-anchor="middle" x="1290.5" y="-192" font-family="Helvetica,sans-Serif" font-size="10.00">Player::getPlayerInfo</text>
</a>
</g>
</g>
<!-- Node3&#45;&gt;Node7 -->
<g id="edge6_Node000003_Node000007" class="edge">
<title>Node3&#45;&gt;Node7</title>
<g id="a_edge6_Node000003_Node000007"><a xlink:title=" ">
<path fill="none" stroke="#63b8ff" d="M565.16,-274.01C734.18,-279.24 1079.81,-285.18 1195,-251.5 1225.52,-242.58 1256.18,-221.27 1273.97,-207.39"/>
<polygon fill="#63b8ff" stroke="#63b8ff" points="1278.21,-204.03 1275.69,-208.9 1276.25,-205.58 1274.29,-207.13 1274.29,-207.13 1274.29,-207.13 1276.25,-205.58 1272.89,-205.37 1278.21,-204.03 1278.21,-204.03"/>
</a>
</g>
</g>
<!-- Node8 -->
<g id="Node000008" class="node">
<title>Node8</title>
<g id="a_Node000008"><a xlink:href="../../d7/db2/classGameEventHandler.html#aa284e089a86d0e58970b0f9069ba1f00" target="_top" xlink:title=" ">
<polygon fill="white" stroke="#666666" points="771,-110.5 601,-110.5 601,-80.5 771,-80.5 771,-110.5"/>
<text text-anchor="start" x="609" y="-98.5" font-family="Helvetica,sans-Serif" font-size="10.00">GameEventHandler::sendGame</text>
<text text-anchor="middle" x="686" y="-87.5" font-family="Helvetica,sans-Serif" font-size="10.00">Command</text>
</a>
</g>
</g>
<!-- Node3&#45;&gt;Node8 -->
<g id="edge7_Node000003_Node000008" class="edge">
<title>Node3&#45;&gt;Node8</title>
<g id="a_edge7_Node000003_Node000008"><a xlink:title=" ">
<path fill="none" stroke="#63b8ff" d="M481.87,-260.84C516.39,-232.74 617.2,-150.69 662.5,-113.81"/>
<polygon fill="#63b8ff" stroke="#63b8ff" points="666.45,-110.6 663.99,-115.5 664.51,-112.18 662.57,-113.76 662.57,-113.76 662.57,-113.76 664.51,-112.18 661.15,-112.01 666.45,-110.6 666.45,-110.6"/>
</a>
</g>
</g>
<!-- Node9 -->
<g id="Node000009" class="node">
<title>Node9</title>
<g id="a_Node000009"><a xlink:href="../../d7/db2/classGameEventHandler.html#a13205be722399533ef81b039cd22a3ca" target="_top" xlink:title=" ">
<polygon fill="white" stroke="#666666" points="974,-67.5 807,-67.5 807,-37.5 974,-37.5 974,-67.5"/>
<text text-anchor="start" x="815" y="-55.5" font-family="Helvetica,sans-Serif" font-size="10.00">GameEventHandler::command</text>
<text text-anchor="middle" x="890.5" y="-44.5" font-family="Helvetica,sans-Serif" font-size="10.00">Finished</text>
</a>
</g>
</g>
<!-- Node8&#45;&gt;Node9 -->
<g id="edge8_Node000008_Node000009" class="edge">
<title>Node8&#45;&gt;Node9</title>
<g id="a_edge8_Node000008_Node000009"><a xlink:title=" ">
<path fill="none" stroke="#63b8ff" d="M757.82,-80.46C775.86,-76.63 795.32,-72.5 813.59,-68.62"/>
<polygon fill="#63b8ff" stroke="#63b8ff" points="818.72,-67.53 814.29,-70.77 816.27,-68.05 813.82,-68.57 813.82,-68.57 813.82,-68.57 816.27,-68.05 813.36,-66.37 818.72,-67.53 818.72,-67.53"/>
</a>
</g>
</g>
<!-- Node11 -->
<g id="Node000011" class="node">
<title>Node11</title>
<g id="a_Node000011"><a xlink:href="../../d8/d62/classPendingCommand.html#a592d604b15abf4153c4b401484396324" target="_top" xlink:title=" ">
<polygon fill="white" stroke="#666666" points="965.5,-19 815.5,-19 815.5,0 965.5,0 965.5,-19"/>
<text text-anchor="middle" x="890.5" y="-7" font-family="Helvetica,sans-Serif" font-size="10.00">PendingCommand::finished</text>
</a>
</g>
</g>
<!-- Node8&#45;&gt;Node11 -->
<g id="edge10_Node000008_Node000011" class="edge">
<title>Node8&#45;&gt;Node11</title>
<g id="a_edge10_Node000008_Node000011"><a xlink:title=" ">
<path fill="none" stroke="#63b8ff" d="M709.5,-80.37C732.93,-65.25 771.15,-42.31 807,-28.5 815.22,-25.33 824.1,-22.61 832.9,-20.29"/>
<polygon fill="#63b8ff" stroke="#63b8ff" points="837.77,-19.05 833.49,-22.47 835.35,-19.67 832.93,-20.29 832.93,-20.29 832.93,-20.29 835.35,-19.67 832.37,-18.11 837.77,-19.05 837.77,-19.05"/>
</a>
</g>
</g>
<!-- Node12 -->
<g id="Node000012" class="node">
<title>Node12</title>
<g id="a_Node000012"><a xlink:href="../../d3/d44/classAbstractGame.html#ad5dd70c2cea1b0525d3ba2ae1092ec2f" target="_top" xlink:title=" ">
<polygon fill="white" stroke="#666666" points="966.5,-171.5 814.5,-171.5 814.5,-141.5 966.5,-141.5 966.5,-171.5"/>
<text text-anchor="start" x="822.5" y="-159.5" font-family="Helvetica,sans-Serif" font-size="10.00">AbstractGame::getClientFor</text>
<text text-anchor="middle" x="890.5" y="-148.5" font-family="Helvetica,sans-Serif" font-size="10.00">Player</text>
</a>
</g>
</g>
<!-- Node8&#45;&gt;Node12 -->
<g id="edge11_Node000008_Node000012" class="edge">
<title>Node8&#45;&gt;Node12</title>
<g id="a_edge11_Node000008_Node000012"><a xlink:title=" ">
<path fill="none" stroke="#63b8ff" d="M735.12,-110.53C757.02,-117.32 783.3,-125.4 807,-132.5 815.05,-134.91 823.55,-137.42 831.91,-139.87"/>
<polygon fill="#63b8ff" stroke="#63b8ff" points="837.09,-141.39 831.66,-142.15 834.69,-140.69 832.29,-139.99 832.29,-139.99 832.29,-139.99 834.69,-140.69 832.92,-137.83 837.09,-141.39 837.09,-141.39"/>
</a>
</g>
</g>
<!-- Node17 -->
<g id="Node000017" class="node">
<title>Node17</title>
<g id="a_Node000017"><a xlink:href="../../dc/d86/classAbstractClient.html#a759acefdf58266cafdf63284c55c5711" target="_top" xlink:title=" ">
<polygon fill="white" stroke="#666666" points="973,-105 808,-105 808,-86 973,-86 973,-105"/>
<text text-anchor="middle" x="890.5" y="-93" font-family="Helvetica,sans-Serif" font-size="10.00">AbstractClient::sendCommand</text>
</a>
</g>
</g>
<!-- Node8&#45;&gt;Node17 -->
<g id="edge19_Node000008_Node000017" class="edge">
<title>Node8&#45;&gt;Node17</title>
<g id="a_edge19_Node000008_Node000017"><a xlink:title=" ">
<path fill="none" stroke="#63b8ff" d="M771.12,-95.5C781.58,-95.5 792.29,-95.5 802.79,-95.5"/>
<polygon fill="#63b8ff" stroke="#63b8ff" points="807.92,-95.5 802.92,-97.75 805.42,-95.5 802.92,-95.5 802.92,-95.5 802.92,-95.5 805.42,-95.5 802.92,-93.25 807.92,-95.5 807.92,-95.5"/>
</a>
</g>
</g>
<!-- Node10 -->
<g id="Node000010" class="node">
<title>Node10</title>
<g id="a_Node000010"><a xlink:href="../../d7/db2/classGameEventHandler.html#a2273d849f249f181eed3e812205226e2" target="_top" xlink:title=" ">
<polygon fill="white" stroke="#666666" points="1195,-43 1010,-43 1010,-24 1195,-24 1195,-43"/>
<text text-anchor="middle" x="1102.5" y="-31" font-family="Helvetica,sans-Serif" font-size="10.00">GameEventHandler::gameFlooded</text>
</a>
</g>
</g>
<!-- Node9&#45;&gt;Node10 -->
<g id="edge9_Node000009_Node000010" class="edge">
<title>Node9&#45;&gt;Node10</title>
<g id="a_edge9_Node000009_Node000010"><a xlink:title=" ">
<path fill="none" stroke="#63b8ff" d="M974.2,-45.02C984.26,-44.11 994.6,-43.17 1004.85,-42.24"/>
<polygon fill="#63b8ff" stroke="#63b8ff" points="1009.86,-41.79 1005.09,-44.48 1007.37,-42.02 1004.88,-42.24 1004.88,-42.24 1004.88,-42.24 1007.37,-42.02 1004.68,-40 1009.86,-41.79 1009.86,-41.79"/>
</a>
</g>
</g>
<!-- Node12&#45;&gt;Node6 -->
<g id="edge17_Node000012_Node000006" class="edge">
<title>Node12&#45;&gt;Node6</title>
<g id="a_edge17_Node000012_Node000006"><a xlink:title=" ">
<path fill="none" stroke="#63b8ff" d="M922.15,-171.54C945.77,-182.74 979.45,-197.86 1010,-208.5 1024.35,-213.5 1040.28,-218.02 1054.78,-221.75"/>
<polygon fill="#63b8ff" stroke="#63b8ff" points="1059.64,-222.99 1054.24,-223.94 1057.21,-222.37 1054.79,-221.76 1054.79,-221.76 1054.79,-221.76 1057.21,-222.37 1055.35,-219.57 1059.64,-222.99 1059.64,-222.99"/>
</a>
</g>
</g>
<!-- Node12&#45;&gt;Node7 -->
<g id="edge18_Node000012_Node000007" class="edge">
<title>Node12&#45;&gt;Node7</title>
<g id="a_edge18_Node000012_Node000007"><a xlink:title=" ">
<path fill="none" stroke="#63b8ff" d="M966.58,-169.6C980.96,-171.8 995.92,-173.9 1010,-175.5 1083.76,-183.9 1168.93,-189.04 1225.68,-191.82"/>
<polygon fill="#63b8ff" stroke="#63b8ff" points="1230.74,-192.06 1225.64,-194.07 1228.24,-191.94 1225.75,-191.82 1225.75,-191.82 1225.75,-191.82 1228.24,-191.94 1225.85,-189.57 1230.74,-192.06 1230.74,-192.06"/>
</a>
</g>
</g>
<!-- Node13 -->
<g id="Node000013" class="node">
<title>Node13</title>
<g id="a_Node000013"><a xlink:href="../../dc/d5d/classPlayerManager.html#a4d7fbb7c94f87153815c698a9b80d2a9" target="_top" xlink:title=" ">
<polygon fill="white" stroke="#666666" points="1174,-91.5 1031,-91.5 1031,-61.5 1174,-61.5 1174,-91.5"/>
<text text-anchor="start" x="1039" y="-79.5" font-family="Helvetica,sans-Serif" font-size="10.00">PlayerManager::getActive</text>
<text text-anchor="middle" x="1102.5" y="-68.5" font-family="Helvetica,sans-Serif" font-size="10.00">LocalPlayer</text>
</a>
</g>
</g>
<!-- Node12&#45;&gt;Node13 -->
<g id="edge12_Node000012_Node000013" class="edge">
<title>Node12&#45;&gt;Node13</title>
<g id="a_edge12_Node000012_Node000013"><a xlink:title=" ">
<path fill="none" stroke="#63b8ff" d="M953.92,-141.48C960.87,-138.89 967.71,-135.91 974,-132.5 992.56,-122.43 991.36,-111.41 1010,-101.5 1015.79,-98.42 1022,-95.69 1028.35,-93.28"/>
<polygon fill="#63b8ff" stroke="#63b8ff" points="1033.23,-91.5 1029.3,-95.33 1030.88,-92.36 1028.53,-93.22 1028.53,-93.22 1028.53,-93.22 1030.88,-92.36 1027.76,-91.1 1033.23,-91.5 1033.23,-91.5"/>
</a>
</g>
</g>
<!-- Node15 -->
<g id="Node000015" class="node">
<title>Node15</title>
<g id="a_Node000015"><a xlink:href="../../d3/df3/classGameState.html#a958f53c63698cc7c9c635626b792d365" target="_top" xlink:title=" ">
<polygon fill="white" stroke="#666666" points="1180,-166 1025,-166 1025,-147 1180,-147 1180,-166"/>
<text text-anchor="middle" x="1102.5" y="-154" font-family="Helvetica,sans-Serif" font-size="10.00">GameState::getActivePlayer</text>
</a>
</g>
</g>
<!-- Node12&#45;&gt;Node15 -->
<g id="edge15_Node000012_Node000015" class="edge">
<title>Node12&#45;&gt;Node15</title>
<g id="a_edge15_Node000012_Node000015"><a xlink:title=" ">
<path fill="none" stroke="#63b8ff" d="M966.72,-156.5C983.79,-156.5 1002,-156.5 1019.33,-156.5"/>
<polygon fill="#63b8ff" stroke="#63b8ff" points="1024.68,-156.5 1019.68,-158.75 1022.18,-156.5 1019.68,-156.5 1019.68,-156.5 1019.68,-156.5 1022.18,-156.5 1019.68,-154.25 1024.68,-156.5 1024.68,-156.5"/>
</a>
</g>
</g>
<!-- Node16 -->
<g id="Node000016" class="node">
<title>Node16</title>
<g id="a_Node000016"><a xlink:href="../../d3/df3/classGameState.html#a74cfe4dabf987cdbbdb2a9b27913a38f" target="_top" xlink:title=" ">
<polygon fill="white" stroke="#666666" points="1166,-129 1039,-129 1039,-110 1166,-110 1166,-129"/>
<text text-anchor="middle" x="1102.5" y="-117" font-family="Helvetica,sans-Serif" font-size="10.00">GameState::getClients</text>
</a>
</g>
</g>
<!-- Node12&#45;&gt;Node16 -->
<g id="edge16_Node000012_Node000016" class="edge">
<title>Node12&#45;&gt;Node16</title>
<g id="a_edge16_Node000012_Node000016"><a xlink:title=" ">
<path fill="none" stroke="#63b8ff" d="M966.72,-143.25C991.66,-138.85 1019.05,-134.03 1042.58,-129.88"/>
<polygon fill="#63b8ff" stroke="#63b8ff" points="1047.54,-129.01 1043.01,-132.09 1045.08,-129.44 1042.62,-129.87 1042.62,-129.87 1042.62,-129.87 1045.08,-129.44 1042.23,-127.66 1047.54,-129.01 1047.54,-129.01"/>
</a>
</g>
</g>
<!-- Node13&#45;&gt;Node7 -->
<g id="edge14_Node000013_Node000007" class="edge">
<title>Node13&#45;&gt;Node7</title>
<g id="a_edge14_Node000013_Node000007"><a xlink:title=" ">
<path fill="none" stroke="#63b8ff" d="M1173.47,-91.56C1180.96,-94.36 1188.29,-97.64 1195,-101.5 1231.32,-122.4 1263.78,-160.6 1279.49,-180.93"/>
<polygon fill="#63b8ff" stroke="#63b8ff" points="1282.59,-184.99 1277.77,-182.38 1281.07,-183 1279.55,-181.01 1279.55,-181.01 1279.55,-181.01 1281.07,-183 1281.34,-179.65 1282.59,-184.99 1282.59,-184.99"/>
</a>
</g>
</g>
<!-- Node14 -->
<g id="Node000014" class="node">
<title>Node14</title>
<g id="a_Node000014"><a xlink:href="../../df/df7/classPlayerInfo.html#a97bd8b8d7ecf30c076f3b38f1b28e45a" target="_top" xlink:title=" ">
<polygon fill="white" stroke="#666666" points="1347,-86 1234,-86 1234,-67 1347,-67 1347,-86"/>
<text text-anchor="middle" x="1290.5" y="-74" font-family="Helvetica,sans-Serif" font-size="10.00">PlayerInfo::getLocal</text>
</a>
</g>
</g>
<!-- Node13&#45;&gt;Node14 -->
<g id="edge13_Node000013_Node000014" class="edge">
<title>Node13&#45;&gt;Node14</title>
<g id="a_edge13_Node000013_Node000014"><a xlink:title=" ">
<path fill="none" stroke="#63b8ff" d="M1174.08,-76.5C1191.97,-76.5 1211.02,-76.5 1228.39,-76.5"/>
<polygon fill="#63b8ff" stroke="#63b8ff" points="1233.73,-76.5 1228.73,-78.75 1231.23,-76.5 1228.73,-76.5 1228.73,-76.5 1228.73,-76.5 1231.23,-76.5 1228.73,-74.25 1233.73,-76.5 1233.73,-76.5"/>
</a>
</g>
</g>
<!-- Node17&#45;&gt;Node17 -->
<g id="edge20_Node000017_Node000017" class="edge">
<title>Node17&#45;&gt;Node17</title>
<g id="a_edge20_Node000017_Node000017"><a xlink:title=" ">
<path fill="none" stroke="#63b8ff" d="M859.06,-105.08C843.76,-113.73 854.24,-123 890.5,-123 922.23,-123 934.22,-115.91 926.47,-108.34"/>
<polygon fill="#63b8ff" stroke="#63b8ff" points="921.94,-105.08 927.32,-106.17 923.97,-106.54 926,-108 926,-108 926,-108 923.97,-106.54 924.69,-109.83 921.94,-105.08 921.94,-105.08"/>
</a>
</g>
</g>
</g>
</svg>

<g id="navigator" transform="translate(0 0)" fill="#404254">
  <rect fill="#f2f5e9" fill-opacity="0.5" stroke="#606060" stroke-width=".5" x="0" y="0" width="60" height="60"/>
  <use id="zoomplus" xlink:href="#zoomPlus" x="17" y="9" onmousedown="handleZoom(evt,'in')"/>
  <use id="zoomminus" xlink:href="#zoomMin" x="42" y="9" onmousedown="handleZoom(evt,'out')"/>
  <use id="reset" xlink:href="#resetDef" x="30" y="36" onmousedown="handleReset()"/>
   <use id="arrowup" xlink:href="#arrowUp" x="0" y="0" onmousedown="handlePan(0,-1)"/>
  <use id="arrowright" xlink:href="#arrowRight" x="0" y="0" onmousedown="handlePan(1,0)"/>
  <use id="arrowdown" xlink:href="#arrowDown" x="0" y="0" onmousedown="handlePan(0,1)"/>
  <use id="arrowleft" xlink:href="#arrowLeft" x="0" y="0" onmousedown="handlePan(-1,0)"/>
</g>
<svg viewBox="0 0 15 15" width="100%" height="30px" preserveAspectRatio="xMaxYMin meet">
 <g id="arrow_out" transform="scale(0.3 0.3)">
  <a xlink:href="classLibraryMenu_a94a036940d1110d03537bdcb16e422d9_cgraph_org.svg" target="_base">
   <rect id="button" ry="5" rx="5" y="6" x="6" height="38" width="38"
        fill="#f2f5e9" fill-opacity="0.5" stroke="#606060" stroke-width="1.0"/>
   <path id="arrow"
     d="M 11.500037,31.436501 C 11.940474,20.09759 22.043105,11.32322 32.158766,21.979434 L 37.068811,17.246167 C 37.068811,17.246167 37.088388,32 37.088388,32 L 22.160133,31.978069 C 22.160133,31.978069 26.997745,27.140456 26.997745,27.140456 C 18.528582,18.264221 13.291696,25.230495 11.500037,31.436501 z"
     style="fill:#404040;"/>
  </a>
 </g>
</svg>

<style type='text/css'>
<![CDATA[
[data-mouse-over-selected='false'] { opacity: 0.7; }
[data-mouse-over-selected='true']  { opacity: 1.0; }
]]>
</style>
<script type="application/ecmascript"><![CDATA[
document.addEventListener('DOMContentLoaded', (event) => {
  highlightEdges();
  highlightAdjacentNodes();
});
]]></script>
</svg>
