<?xml version="1.0" encoding="UTF-8" standalone="no"?>
<!DOCTYPE svg PUBLIC "-//W3C//DTD SVG 1.1//EN"
 "http://www.w3.org/Graphics/SVG/1.1/DTD/svg11.dtd">
<!-- Generated by graphviz version 2.43.0 (0)
 -->
<!-- Title: LibraryMenu::createShuffleActions Pages: 1 -->
<!--zoomable 510 -->

<svg id="main" version="1.1" xmlns="http://www.w3.org/2000/svg" xmlns:xlink="http://www.w3.org/1999/xlink" xml:space="preserve" onload="init(evt)">
<style type="text/css"><![CDATA[
.node, .edge {opacity: 0.7;}
.node.selected, .edge.selected {opacity: 1;}
.edge:hover path { stroke: red; }
.edge:hover polygon { stroke: red; fill: red; }
]]></style>

<defs>
  <circle id="rim" cx="0" cy="0" r="7"/>
  <circle id="rim2" cx="0" cy="0" r="3.5"/>
  <g id="zoomPlus">
    <use xlink:href="#rim" fill="#404040"><set attributeName="fill" to="#808080" begin="zoomplus.mouseover" end="zoomplus.mouseout"/></use>
    <path d="M-4,0h8M0,-4v8" fill="none" stroke="white" stroke-width="1.5" pointer-events="none"/>
  </g>
  <g id="zoomMin">
    <use xlink:href="#rim" fill="#404040"><set attributeName="fill" to="#808080" begin="zoomminus.mouseover" end="zoomminus.mouseout"/></use>
    <path d="M-4,0h8" fill="none" stroke="white" stroke-width="1.5" pointer-events="none"/>
  </g>
  <g id="arrowUp" transform="translate(30 24)">
    <use xlink:href="#rim"/>
    <path pointer-events="none" fill="none" stroke="white" stroke-width="1.5" d="M0,-3.0v7 M-2.5,-0.5L0,-3.0L2.5,-0.5"/>
  </g>
  <g id="arrowRight" transform="rotate(90) translate(36 -43)">
    <use xlink:href="#rim"/>
    <path pointer-events="none" fill="none" stroke="white" stroke-width="1.5" d="M0,-3.0v7 M-2.5,-0.5L0,-3.0L2.5,-0.5"/>
  </g>
  <g id="arrowDown" transform="rotate(180) translate(-30 -48)">
    <use xlink:href="#rim"/>
    <path pointer-events="none" fill="none" stroke="white" stroke-width="1.5" d="M0,-3.0v7 M-2.5,-0.5L0,-3.0L2.5,-0.5"/>
  </g>
  <g id="arrowLeft" transform="rotate(270) translate(-36 17)">
    <use xlink:href="#rim"/>
    <path pointer-events="none" fill="none" stroke="white" stroke-width="1.5" d="M0,-3.0v7 M-2.5,-0.5L0,-3.0L2.5,-0.5"/>
  </g>
  <g id="resetDef">
    <use xlink:href="#rim2" fill="#404040"><set attributeName="fill" to="#808080" begin="reset.mouseover" end="reset.mouseout"/></use>
  </g>
</defs>
<script type="application/ecmascript">
var viewWidth = 1360;
var viewHeight = 510;
var sectionId = 'dynsection-7';
</script>
<script type="application/ecmascript" xlink:href="../../svg.min.js"/>
<svg id="graph" class="graph">
<g id="viewport">
<title>LibraryMenu::createShuffleActions</title>
<!-- Node1 -->
<g id="Node000001" class="node">
<title>Node1</title>
<g id="a_Node000001"><a xlink:title=" ">
<polygon fill="#999999" stroke="#666666" points="148,-169.5 0,-169.5 0,-139.5 148,-139.5 148,-169.5"/>
<text text-anchor="start" x="8" y="-157.5" font-family="Helvetica,sans-Serif" font-size="10.00">LibraryMenu::createShuffle</text>
<text text-anchor="middle" x="74" y="-146.5" font-family="Helvetica,sans-Serif" font-size="10.00">Actions</text>
</a>
</g>
</g>
<!-- Node2 -->
<g id="Node000002" class="node">
<title>Node2</title>
<g id="a_Node000002"><a xlink:href="../../d2/d23/classPlayerActions.html#a67db378851c3819c698397782f0e2b6c" target="_top" xlink:title=" ">
<polygon fill="white" stroke="#666666" points="330.5,-263 192.5,-263 192.5,-244 330.5,-244 330.5,-263"/>
<text text-anchor="middle" x="261.5" y="-251" font-family="Helvetica,sans-Serif" font-size="10.00">PlayerActions::actShuffle</text>
</a>
</g>
</g>
<!-- Node1&#45;&gt;Node2 -->
<g id="edge1_Node000001_Node000002" class="edge">
<title>Node1&#45;&gt;Node2</title>
<g id="a_edge1_Node000001_Node000002"><a xlink:title=" ">
<path fill="none" stroke="#63b8ff" d="M101.23,-169.66C123.19,-182.23 155.42,-200.42 184,-215.5 201.23,-224.6 220.93,-234.37 236.02,-241.72"/>
<polygon fill="#63b8ff" stroke="#63b8ff" points="240.55,-243.92 235.07,-243.76 238.3,-242.83 236.05,-241.74 236.05,-241.74 236.05,-241.74 238.3,-242.83 237.04,-239.71 240.55,-243.92 240.55,-243.92"/>
</a>
</g>
</g>
<!-- Node7 -->
<g id="Node000007" class="node">
<title>Node7</title>
<g id="a_Node000007"><a xlink:href="../../d2/d4b/classPlayer.html#ae518d19009a8604a8538f9c5fb083474" target="_top" xlink:title=" ">
<polygon fill="white" stroke="#666666" points="1352,-317 1233,-317 1233,-298 1352,-298 1352,-317"/>
<text text-anchor="middle" x="1292.5" y="-305" font-family="Helvetica,sans-Serif" font-size="10.00">Player::getPlayerInfo</text>
</a>
</g>
</g>
<!-- Node1&#45;&gt;Node7 -->
<g id="edge34_Node000001_Node000007" class="edge">
<title>Node1&#45;&gt;Node7</title>
<g id="a_edge34_Node000001_Node000007"><a xlink:title=" ">
<path fill="none" stroke="#63b8ff" d="M107.48,-139.4C173.99,-109.9 331.1,-47.5 470,-47.5 470,-47.5 470,-47.5 893.5,-47.5 1075.33,-47.5 1238.96,-240.05 1281.05,-293.75"/>
<polygon fill="#63b8ff" stroke="#63b8ff" points="1284.31,-297.94 1279.46,-295.37 1282.78,-295.96 1281.24,-293.99 1281.24,-293.99 1281.24,-293.99 1282.78,-295.96 1283.02,-292.61 1284.31,-297.94 1284.31,-297.94"/>
</a>
</g>
</g>
<!-- Node18 -->
<g id="Node000018" class="node">
<title>Node18</title>
<g id="a_Node000018"><a xlink:href="../../d2/d23/classPlayerActions.html#ad71575eb03a0bff843a98f3282e6f19a" target="_top" xlink:title=" ">
<polygon fill="white" stroke="#666666" points="330.5,-169.5 192.5,-169.5 192.5,-139.5 330.5,-139.5 330.5,-169.5"/>
<text text-anchor="start" x="200.5" y="-157.5" font-family="Helvetica,sans-Serif" font-size="10.00">PlayerActions::actShuffle</text>
<text text-anchor="middle" x="261.5" y="-146.5" font-family="Helvetica,sans-Serif" font-size="10.00">Bottom</text>
</a>
</g>
</g>
<!-- Node1&#45;&gt;Node18 -->
<g id="edge21_Node000001_Node000018" class="edge">
<title>Node1&#45;&gt;Node18</title>
<g id="a_edge21_Node000001_Node000018"><a xlink:title=" ">
<path fill="none" stroke="#63b8ff" d="M148.05,-154.5C160.94,-154.5 174.36,-154.5 187.25,-154.5"/>
<polygon fill="#63b8ff" stroke="#63b8ff" points="192.36,-154.5 187.36,-156.75 189.86,-154.5 187.36,-154.5 187.36,-154.5 187.36,-154.5 189.86,-154.5 187.36,-152.25 192.36,-154.5 192.36,-154.5"/>
</a>
</g>
</g>
<!-- Node22 -->
<g id="Node000022" class="node">
<title>Node22</title>
<g id="a_Node000022"><a xlink:href="../../d2/d23/classPlayerActions.html#a1756576dc02f64c184b08931dd499188" target="_top" xlink:title=" ">
<polygon fill="white" stroke="#666666" points="339,-207 184,-207 184,-188 339,-188 339,-207"/>
<text text-anchor="middle" x="261.5" y="-195" font-family="Helvetica,sans-Serif" font-size="10.00">PlayerActions::actShuffleTop</text>
</a>
</g>
</g>
<!-- Node1&#45;&gt;Node22 -->
<g id="edge27_Node000001_Node000022" class="edge">
<title>Node1&#45;&gt;Node22</title>
<g id="a_edge27_Node000001_Node000022"><a xlink:title=" ">
<path fill="none" stroke="#63b8ff" d="M139.88,-169.54C164.45,-175.24 191.91,-181.6 214.4,-186.81"/>
<polygon fill="#63b8ff" stroke="#63b8ff" points="219.42,-187.98 214.04,-189.04 216.99,-187.41 214.55,-186.85 214.55,-186.85 214.55,-186.85 216.99,-187.41 215.06,-184.66 219.42,-187.98 219.42,-187.98"/>
</a>
</g>
</g>
<!-- Node23 -->
<g id="Node000023" class="node">
<title>Node23</title>
<g id="a_Node000023"><a xlink:href="../../d2/d4b/classPlayer.html#ad46281e97b39abd661c138d30646f879" target="_top" xlink:title=" ">
<polygon fill="white" stroke="#666666" points="329.5,-19 193.5,-19 193.5,0 329.5,0 329.5,-19"/>
<text text-anchor="middle" x="261.5" y="-7" font-family="Helvetica,sans-Serif" font-size="10.00">Player::getPlayerActions</text>
</a>
</g>
</g>
<!-- Node1&#45;&gt;Node23 -->
<g id="edge33_Node000001_Node000023" class="edge">
<title>Node1&#45;&gt;Node23</title>
<g id="a_edge33_Node000001_Node000023"><a xlink:title=" ">
<path fill="none" stroke="#63b8ff" d="M84.79,-139.09C101.86,-113.46 139.51,-62.07 184,-33.5 192.28,-28.18 201.82,-23.97 211.29,-20.67"/>
<polygon fill="#63b8ff" stroke="#63b8ff" points="216.23,-19.02 212.2,-22.73 213.86,-19.81 211.49,-20.6 211.49,-20.6 211.49,-20.6 213.86,-19.81 210.77,-18.47 216.23,-19.02 216.23,-19.02"/>
</a>
</g>
</g>
<!-- Node3 -->
<g id="Node000003" class="node">
<title>Node3</title>
<g id="a_Node000003"><a xlink:href="../../d2/d23/classPlayerActions.html#a24052faefdf622e1bea1afb4c601644b" target="_top" xlink:title=" ">
<polygon fill="white" stroke="#666666" points="567,-283 375,-283 375,-264 567,-264 567,-283"/>
<text text-anchor="middle" x="471" y="-271" font-family="Helvetica,sans-Serif" font-size="10.00">PlayerActions::sendGameCommand</text>
</a>
</g>
</g>
<!-- Node2&#45;&gt;Node3 -->
<g id="edge2_Node000002_Node000003" class="edge">
<title>Node2&#45;&gt;Node3</title>
<g id="a_edge2_Node000002_Node000003"><a xlink:title=" ">
<path fill="none" stroke="#63b8ff" d="M330.73,-260.08C343.14,-261.27 356.32,-262.54 369.43,-263.81"/>
<polygon fill="#63b8ff" stroke="#63b8ff" points="374.65,-264.31 369.46,-266.07 372.16,-264.07 369.67,-263.83 369.67,-263.83 369.67,-263.83 372.16,-264.07 369.89,-261.59 374.65,-264.31 374.65,-264.31"/>
</a>
</g>
</g>
<!-- Node4 -->
<g id="Node000004" class="node">
<title>Node4</title>
<g id="a_Node000004"><a xlink:href="../../d2/d4b/classPlayer.html#af7cfc2b66a72002d9f290285499a0a3b" target="_top" xlink:title=" ">
<polygon fill="white" stroke="#666666" points="737,-180 639,-180 639,-161 737,-161 737,-180"/>
<text text-anchor="middle" x="688" y="-168" font-family="Helvetica,sans-Serif" font-size="10.00">Player::getGame</text>
</a>
</g>
</g>
<!-- Node3&#45;&gt;Node4 -->
<g id="edge3_Node000003_Node000004" class="edge">
<title>Node3&#45;&gt;Node4</title>
<g id="a_edge3_Node000003_Node000004"><a xlink:title=" ">
<path fill="none" stroke="#63b8ff" d="M537.2,-263.92C547.76,-260.48 558.13,-255.82 567,-249.5 590.79,-232.54 579.48,-211.82 603,-194.5 612.11,-187.79 623.04,-182.96 633.96,-179.47"/>
<polygon fill="#63b8ff" stroke="#63b8ff" points="638.96,-177.96 634.83,-181.56 636.57,-178.68 634.18,-179.4 634.18,-179.4 634.18,-179.4 636.57,-178.68 633.53,-177.25 638.96,-177.96 638.96,-177.96"/>
</a>
</g>
</g>
<!-- Node5 -->
<g id="Node000005" class="node">
<title>Node5</title>
<g id="a_Node000005"><a xlink:href="../../d3/d44/classAbstractGame.html#a32105d86255d5dc46c72d290fdfce9c3" target="_top" xlink:title=" ">
<polygon fill="white" stroke="#666666" points="770.5,-266.5 605.5,-266.5 605.5,-236.5 770.5,-236.5 770.5,-266.5"/>
<text text-anchor="start" x="613.5" y="-254.5" font-family="Helvetica,sans-Serif" font-size="10.00">AbstractGame::getGameEvent</text>
<text text-anchor="middle" x="688" y="-243.5" font-family="Helvetica,sans-Serif" font-size="10.00">Handler</text>
</a>
</g>
</g>
<!-- Node3&#45;&gt;Node5 -->
<g id="edge4_Node000003_Node000005" class="edge">
<title>Node3&#45;&gt;Node5</title>
<g id="a_edge4_Node000003_Node000005"><a xlink:title=" ">
<path fill="none" stroke="#63b8ff" d="M565.05,-263.98C576.66,-262.79 588.51,-261.58 600.02,-260.4"/>
<polygon fill="#63b8ff" stroke="#63b8ff" points="605.29,-259.86 600.54,-262.61 602.8,-260.12 600.31,-260.37 600.31,-260.37 600.31,-260.37 602.8,-260.12 600.09,-258.13 605.29,-259.86 605.29,-259.86"/>
</a>
</g>
</g>
<!-- Node6 -->
<g id="Node000006" class="node">
<title>Node6</title>
<g id="a_Node000006"><a xlink:href="../../df/df7/classPlayerInfo.html#a7f05edab50309334350d183e000f4b6c" target="_top" xlink:title=" ">
<polygon fill="white" stroke="#666666" points="1153,-304 1056,-304 1056,-285 1153,-285 1153,-304"/>
<text text-anchor="middle" x="1104.5" y="-292" font-family="Helvetica,sans-Serif" font-size="10.00">PlayerInfo::getId</text>
</a>
</g>
</g>
<!-- Node3&#45;&gt;Node6 -->
<g id="edge5_Node000003_Node000006" class="edge">
<title>Node3&#45;&gt;Node6</title>
<g id="a_edge5_Node000003_Node000006"><a xlink:title=" ">
<path fill="none" stroke="#63b8ff" d="M567.23,-276.67C702.08,-281.15 944.14,-289.2 1050.7,-292.74"/>
<polygon fill="#63b8ff" stroke="#63b8ff" points="1055.98,-292.92 1050.9,-295 1053.48,-292.84 1050.98,-292.75 1050.98,-292.75 1050.98,-292.75 1053.48,-292.84 1051.05,-290.5 1055.98,-292.92 1055.98,-292.92"/>
</a>
</g>
</g>
<!-- Node3&#45;&gt;Node7 -->
<g id="edge6_Node000003_Node000007" class="edge">
<title>Node3&#45;&gt;Node7</title>
<g id="a_edge6_Node000003_Node000007"><a xlink:title=" ">
<path fill="none" stroke="#63b8ff" d="M495.99,-263.98C527.71,-251.59 582.03,-231.07 603,-227.5 864.09,-182.99 938.5,-217.8 1197,-275.5 1219.56,-280.54 1244.28,-289.02 1262.78,-295.98"/>
<polygon fill="#63b8ff" stroke="#63b8ff" points="1267.82,-297.9 1262.35,-298.23 1265.49,-297.01 1263.15,-296.13 1263.15,-296.13 1263.15,-296.13 1265.49,-297.01 1263.95,-294.02 1267.82,-297.9 1267.82,-297.9"/>
</a>
</g>
</g>
<!-- Node8 -->
<g id="Node000008" class="node">
<title>Node8</title>
<g id="a_Node000008"><a xlink:href="../../d7/db2/classGameEventHandler.html#aa284e089a86d0e58970b0f9069ba1f00" target="_top" xlink:title=" ">
<polygon fill="white" stroke="#666666" points="773,-402.5 603,-402.5 603,-372.5 773,-372.5 773,-402.5"/>
<text text-anchor="start" x="611" y="-390.5" font-family="Helvetica,sans-Serif" font-size="10.00">GameEventHandler::sendGame</text>
<text text-anchor="middle" x="688" y="-379.5" font-family="Helvetica,sans-Serif" font-size="10.00">Command</text>
</a>
</g>
</g>
<!-- Node3&#45;&gt;Node8 -->
<g id="edge7_Node000003_Node000008" class="edge">
<title>Node3&#45;&gt;Node8</title>
<g id="a_edge7_Node000003_Node000008"><a xlink:title=" ">
<path fill="none" stroke="#63b8ff" d="M489.96,-283.02C526.06,-302.17 607.9,-345.56 653.94,-369.97"/>
<polygon fill="#63b8ff" stroke="#63b8ff" points="658.56,-372.42 653.08,-372.06 656.35,-371.25 654.14,-370.08 654.14,-370.08 654.14,-370.08 656.35,-371.25 655.19,-368.09 658.56,-372.42 658.56,-372.42"/>
</a>
</g>
</g>
<!-- Node9 -->
<g id="Node000009" class="node">
<title>Node9</title>
<g id="a_Node000009"><a xlink:href="../../d7/db2/classGameEventHandler.html#a13205be722399533ef81b039cd22a3ca" target="_top" xlink:title=" ">
<polygon fill="white" stroke="#666666" points="976,-500.5 809,-500.5 809,-470.5 976,-470.5 976,-500.5"/>
<text text-anchor="start" x="817" y="-488.5" font-family="Helvetica,sans-Serif" font-size="10.00">GameEventHandler::command</text>
<text text-anchor="middle" x="892.5" y="-477.5" font-family="Helvetica,sans-Serif" font-size="10.00">Finished</text>
</a>
</g>
</g>
<!-- Node8&#45;&gt;Node9 -->
<g id="edge8_Node000008_Node000009" class="edge">
<title>Node8&#45;&gt;Node9</title>
<g id="a_edge8_Node000008_Node000009"><a xlink:title=" ">
<path fill="none" stroke="#63b8ff" d="M713.71,-402.74C737.58,-417.11 775.02,-438.74 809,-454.5 819.81,-459.51 831.68,-464.35 842.96,-468.64"/>
<polygon fill="#63b8ff" stroke="#63b8ff" points="847.75,-470.45 842.28,-470.79 845.41,-469.57 843.07,-468.69 843.07,-468.69 843.07,-468.69 845.41,-469.57 843.87,-466.58 847.75,-470.45 847.75,-470.45"/>
</a>
</g>
</g>
<!-- Node11 -->
<g id="Node000011" class="node">
<title>Node11</title>
<g id="a_Node000011"><a xlink:href="../../d8/d62/classPendingCommand.html#a592d604b15abf4153c4b401484396324" target="_top" xlink:title=" ">
<polygon fill="white" stroke="#666666" points="967.5,-397 817.5,-397 817.5,-378 967.5,-378 967.5,-397"/>
<text text-anchor="middle" x="892.5" y="-385" font-family="Helvetica,sans-Serif" font-size="10.00">PendingCommand::finished</text>
</a>
</g>
</g>
<!-- Node8&#45;&gt;Node11 -->
<g id="edge10_Node000008_Node000011" class="edge">
<title>Node8&#45;&gt;Node11</title>
<g id="a_edge10_Node000008_Node000011"><a xlink:title=" ">
<path fill="none" stroke="#63b8ff" d="M773.12,-387.5C786.07,-387.5 799.41,-387.5 812.25,-387.5"/>
<polygon fill="#63b8ff" stroke="#63b8ff" points="817.33,-387.5 812.33,-389.75 814.83,-387.5 812.33,-387.5 812.33,-387.5 812.33,-387.5 814.83,-387.5 812.33,-385.25 817.33,-387.5 817.33,-387.5"/>
</a>
</g>
</g>
<!-- Node12 -->
<g id="Node000012" class="node">
<title>Node12</title>
<g id="a_Node000012"><a xlink:href="../../d3/d44/classAbstractGame.html#ad5dd70c2cea1b0525d3ba2ae1092ec2f" target="_top" xlink:title=" ">
<polygon fill="white" stroke="#666666" points="968.5,-445.5 816.5,-445.5 816.5,-415.5 968.5,-415.5 968.5,-445.5"/>
<text text-anchor="start" x="824.5" y="-433.5" font-family="Helvetica,sans-Serif" font-size="10.00">AbstractGame::getClientFor</text>
<text text-anchor="middle" x="892.5" y="-422.5" font-family="Helvetica,sans-Serif" font-size="10.00">Player</text>
</a>
</g>
</g>
<!-- Node8&#45;&gt;Node12 -->
<g id="edge11_Node000008_Node000012" class="edge">
<title>Node8&#45;&gt;Node12</title>
<g id="a_edge11_Node000008_Node000012"><a xlink:title=" ">
<path fill="none" stroke="#63b8ff" d="M759.82,-402.54C777.86,-406.37 797.32,-410.5 815.59,-414.38"/>
<polygon fill="#63b8ff" stroke="#63b8ff" points="820.72,-415.47 815.36,-416.63 818.27,-414.95 815.82,-414.43 815.82,-414.43 815.82,-414.43 818.27,-414.95 816.29,-412.23 820.72,-415.47 820.72,-415.47"/>
</a>
</g>
</g>
<!-- Node17 -->
<g id="Node000017" class="node">
<title>Node17</title>
<g id="a_Node000017"><a xlink:href="../../dc/d86/classAbstractClient.html#a759acefdf58266cafdf63284c55c5711" target="_top" xlink:title=" ">
<polygon fill="white" stroke="#666666" points="975,-342 810,-342 810,-323 975,-323 975,-342"/>
<text text-anchor="middle" x="892.5" y="-330" font-family="Helvetica,sans-Serif" font-size="10.00">AbstractClient::sendCommand</text>
</a>
</g>
</g>
<!-- Node8&#45;&gt;Node17 -->
<g id="edge19_Node000008_Node000017" class="edge">
<title>Node8&#45;&gt;Node17</title>
<g id="a_edge19_Node000008_Node000017"><a xlink:title=" ">
<path fill="none" stroke="#63b8ff" d="M744.33,-372.47C778.1,-363.3 820.5,-351.78 851.11,-343.47"/>
<polygon fill="#63b8ff" stroke="#63b8ff" points="856.3,-342.06 852.06,-345.54 853.89,-342.72 851.47,-343.37 851.47,-343.37 851.47,-343.37 853.89,-342.72 850.88,-341.2 856.3,-342.06 856.3,-342.06"/>
</a>
</g>
</g>
<!-- Node10 -->
<g id="Node000010" class="node">
<title>Node10</title>
<g id="a_Node000010"><a xlink:href="../../d7/db2/classGameEventHandler.html#a2273d849f249f181eed3e812205226e2" target="_top" xlink:title=" ">
<polygon fill="white" stroke="#666666" points="1197,-502 1012,-502 1012,-483 1197,-483 1197,-502"/>
<text text-anchor="middle" x="1104.5" y="-490" font-family="Helvetica,sans-Serif" font-size="10.00">GameEventHandler::gameFlooded</text>
</a>
</g>
</g>
<!-- Node9&#45;&gt;Node10 -->
<g id="edge9_Node000009_Node000010" class="edge">
<title>Node9&#45;&gt;Node10</title>
<g id="a_edge9_Node000009_Node000010"><a xlink:title=" ">
<path fill="none" stroke="#63b8ff" d="M976.2,-488.26C986.26,-488.59 996.6,-488.94 1006.85,-489.28"/>
<polygon fill="#63b8ff" stroke="#63b8ff" points="1011.86,-489.45 1006.79,-491.53 1009.36,-489.36 1006.87,-489.28 1006.87,-489.28 1006.87,-489.28 1009.36,-489.36 1006.94,-487.03 1011.86,-489.45 1011.86,-489.45"/>
</a>
</g>
</g>
<!-- Node12&#45;&gt;Node6 -->
<g id="edge17_Node000012_Node000006" class="edge">
<title>Node12&#45;&gt;Node6</title>
<g id="a_edge17_Node000012_Node000006"><a xlink:title=" ">
<path fill="none" stroke="#63b8ff" d="M963.6,-415.41C968.07,-412.88 972.27,-409.93 976,-406.5 1008.91,-376.2 977.77,-341.31 1012,-312.5 1022.81,-303.4 1036.89,-298.41 1050.74,-295.79"/>
<polygon fill="#63b8ff" stroke="#63b8ff" points="1055.83,-294.93 1051.28,-297.98 1053.37,-295.35 1050.9,-295.77 1050.9,-295.77 1050.9,-295.77 1053.37,-295.35 1050.53,-293.55 1055.83,-294.93 1055.83,-294.93"/>
</a>
</g>
</g>
<!-- Node12&#45;&gt;Node7 -->
<g id="edge18_Node000012_Node000007" class="edge">
<title>Node12&#45;&gt;Node7</title>
<g id="a_edge18_Node000012_Node000007"><a xlink:title=" ">
<path fill="none" stroke="#63b8ff" d="M968.54,-424.66C1044.86,-417.87 1157.37,-405.28 1197,-387.5 1231.83,-371.88 1263.81,-339.44 1280.13,-321.03"/>
<polygon fill="#63b8ff" stroke="#63b8ff" points="1283.56,-317.1 1281.97,-322.35 1281.92,-318.99 1280.27,-320.87 1280.27,-320.87 1280.27,-320.87 1281.92,-318.99 1278.58,-319.39 1283.56,-317.1 1283.56,-317.1"/>
</a>
</g>
</g>
<!-- Node13 -->
<g id="Node000013" class="node">
<title>Node13</title>
<g id="a_Node000013"><a xlink:href="../../dc/d5d/classPlayerManager.html#a4d7fbb7c94f87153815c698a9b80d2a9" target="_top" xlink:title=" ">
<polygon fill="white" stroke="#666666" points="1176,-464.5 1033,-464.5 1033,-434.5 1176,-434.5 1176,-464.5"/>
<text text-anchor="start" x="1041" y="-452.5" font-family="Helvetica,sans-Serif" font-size="10.00">PlayerManager::getActive</text>
<text text-anchor="middle" x="1104.5" y="-441.5" font-family="Helvetica,sans-Serif" font-size="10.00">LocalPlayer</text>
</a>
</g>
</g>
<!-- Node12&#45;&gt;Node13 -->
<g id="edge12_Node000012_Node000013" class="edge">
<title>Node12&#45;&gt;Node13</title>
<g id="a_edge12_Node000012_Node000013"><a xlink:title=" ">
<path fill="none" stroke="#63b8ff" d="M968.72,-437.31C987.76,-439.03 1008.23,-440.88 1027.32,-442.61"/>
<polygon fill="#63b8ff" stroke="#63b8ff" points="1032.66,-443.09 1027.48,-444.88 1030.17,-442.87 1027.68,-442.64 1027.68,-442.64 1027.68,-442.64 1030.17,-442.87 1027.88,-440.4 1032.66,-443.09 1032.66,-443.09"/>
</a>
</g>
</g>
<!-- Node15 -->
<g id="Node000015" class="node">
<title>Node15</title>
<g id="a_Node000015"><a xlink:href="../../d3/df3/classGameState.html#a958f53c63698cc7c9c635626b792d365" target="_top" xlink:title=" ">
<polygon fill="white" stroke="#666666" points="1182,-378 1027,-378 1027,-359 1182,-359 1182,-378"/>
<text text-anchor="middle" x="1104.5" y="-366" font-family="Helvetica,sans-Serif" font-size="10.00">GameState::getActivePlayer</text>
</a>
</g>
</g>
<!-- Node12&#45;&gt;Node15 -->
<g id="edge15_Node000012_Node000015" class="edge">
<title>Node12&#45;&gt;Node15</title>
<g id="a_edge15_Node000012_Node000015"><a xlink:title=" ">
<path fill="none" stroke="#63b8ff" d="M947.85,-415.42C957.28,-412.6 966.96,-409.57 976,-406.5 992.26,-400.99 995.67,-397.8 1012,-392.5 1026.88,-387.67 1043.35,-383.12 1058.17,-379.3"/>
<polygon fill="#63b8ff" stroke="#63b8ff" points="1063.13,-378.03 1058.84,-381.45 1060.7,-378.65 1058.28,-379.27 1058.28,-379.27 1058.28,-379.27 1060.7,-378.65 1057.72,-377.09 1063.13,-378.03 1063.13,-378.03"/>
</a>
</g>
</g>
<!-- Node16 -->
<g id="Node000016" class="node">
<title>Node16</title>
<g id="a_Node000016"><a xlink:href="../../d3/df3/classGameState.html#a74cfe4dabf987cdbbdb2a9b27913a38f" target="_top" xlink:title=" ">
<polygon fill="white" stroke="#666666" points="1168,-341 1041,-341 1041,-322 1168,-322 1168,-341"/>
<text text-anchor="middle" x="1104.5" y="-329" font-family="Helvetica,sans-Serif" font-size="10.00">GameState::getClients</text>
</a>
</g>
</g>
<!-- Node12&#45;&gt;Node16 -->
<g id="edge16_Node000012_Node000016" class="edge">
<title>Node12&#45;&gt;Node16</title>
<g id="a_edge16_Node000012_Node000016"><a xlink:title=" ">
<path fill="none" stroke="#63b8ff" d="M961.2,-415.31C966.45,-412.8 971.46,-409.89 976,-406.5 999.71,-388.8 987.62,-367.26 1012,-350.5 1019.09,-345.63 1027.16,-341.96 1035.51,-339.21"/>
<polygon fill="#63b8ff" stroke="#63b8ff" points="1040.74,-337.61 1036.62,-341.22 1038.35,-338.34 1035.96,-339.07 1035.96,-339.07 1035.96,-339.07 1038.35,-338.34 1035.3,-336.92 1040.74,-337.61 1040.74,-337.61"/>
</a>
</g>
</g>
<!-- Node13&#45;&gt;Node7 -->
<g id="edge14_Node000013_Node000007" class="edge">
<title>Node13&#45;&gt;Node7</title>
<g id="a_edge14_Node000013_Node000007"><a xlink:title=" ">
<path fill="none" stroke="#63b8ff" d="M1169.67,-434.32C1179.26,-430.62 1188.7,-426.07 1197,-420.5 1236.83,-393.8 1269.01,-345.59 1283.38,-321.71"/>
<polygon fill="#63b8ff" stroke="#63b8ff" points="1286.01,-317.27 1285.4,-322.72 1284.74,-319.42 1283.46,-321.57 1283.46,-321.57 1283.46,-321.57 1284.74,-319.42 1281.52,-320.42 1286.01,-317.27 1286.01,-317.27"/>
</a>
</g>
</g>
<!-- Node14 -->
<g id="Node000014" class="node">
<title>Node14</title>
<g id="a_Node000014"><a xlink:href="../../df/df7/classPlayerInfo.html#a97bd8b8d7ecf30c076f3b38f1b28e45a" target="_top" xlink:title=" ">
<polygon fill="white" stroke="#666666" points="1349,-459 1236,-459 1236,-440 1349,-440 1349,-459"/>
<text text-anchor="middle" x="1292.5" y="-447" font-family="Helvetica,sans-Serif" font-size="10.00">PlayerInfo::getLocal</text>
</a>
</g>
</g>
<!-- Node13&#45;&gt;Node14 -->
<g id="edge13_Node000013_Node000014" class="edge">
<title>Node13&#45;&gt;Node14</title>
<g id="a_edge13_Node000013_Node000014"><a xlink:title=" ">
<path fill="none" stroke="#63b8ff" d="M1176.08,-449.5C1193.97,-449.5 1213.02,-449.5 1230.39,-449.5"/>
<polygon fill="#63b8ff" stroke="#63b8ff" points="1235.73,-449.5 1230.73,-451.75 1233.23,-449.5 1230.73,-449.5 1230.73,-449.5 1230.73,-449.5 1233.23,-449.5 1230.73,-447.25 1235.73,-449.5 1235.73,-449.5"/>
</a>
</g>
</g>
<!-- Node17&#45;&gt;Node17 -->
<g id="edge20_Node000017_Node000017" class="edge">
<title>Node17&#45;&gt;Node17</title>
<g id="a_edge20_Node000017_Node000017"><a xlink:title=" ">
<path fill="none" stroke="#63b8ff" d="M861.06,-342.08C845.76,-350.73 856.24,-360 892.5,-360 924.23,-360 936.22,-352.91 928.47,-345.34"/>
<polygon fill="#63b8ff" stroke="#63b8ff" points="923.94,-342.08 929.32,-343.17 925.97,-343.54 928,-345 928,-345 928,-345 925.97,-343.54 926.69,-346.83 923.94,-342.08 923.94,-342.08"/>
</a>
</g>
</g>
<!-- Node18&#45;&gt;Node3 -->
<g id="edge26_Node000018_Node000003" class="edge">
<title>Node18&#45;&gt;Node3</title>
<g id="a_edge26_Node000018_Node000003"><a xlink:title=" ">
<path fill="none" stroke="#63b8ff" d="M321.07,-169.52C327.32,-172.09 333.43,-175.07 339,-178.5 358.54,-190.52 357.07,-201.19 375,-215.5 397.79,-233.69 426.72,-250.59 446.64,-261.4"/>
<polygon fill="#63b8ff" stroke="#63b8ff" points="451.24,-263.88 445.77,-263.49 449.04,-262.69 446.84,-261.51 446.84,-261.51 446.84,-261.51 449.04,-262.69 447.91,-259.53 451.24,-263.88 451.24,-263.88"/>
</a>
</g>
</g>
<!-- Node18&#45;&gt;Node4 -->
<g id="edge24_Node000018_Node000004" class="edge">
<title>Node18&#45;&gt;Node4</title>
<g id="a_edge24_Node000018_Node000004"><a xlink:title=" ">
<path fill="none" stroke="#63b8ff" d="M288.26,-139.31C310.4,-127.18 343.64,-111.16 375,-104.5 458.47,-86.79 484.35,-83.27 567,-104.5 607.16,-114.81 648.28,-141.7 670.43,-157.8"/>
<polygon fill="#63b8ff" stroke="#63b8ff" points="674.6,-160.86 669.24,-159.71 672.58,-159.38 670.57,-157.9 670.57,-157.9 670.57,-157.9 672.58,-159.38 671.9,-156.09 674.6,-160.86 674.6,-160.86"/>
</a>
</g>
</g>
<!-- Node19 -->
<g id="Node000019" class="node">
<title>Node19</title>
<g id="a_Node000019"><a xlink:href="../../d1/df9/classCardZoneLogic.html#a01bc8f22df2cf2b943084b40ffc95a2d" target="_top" xlink:title=" ">
<polygon fill="white" stroke="#666666" points="540.5,-207 401.5,-207 401.5,-188 540.5,-188 540.5,-207"/>
<text text-anchor="middle" x="471" y="-195" font-family="Helvetica,sans-Serif" font-size="10.00">CardZoneLogic::getCards</text>
</a>
</g>
</g>
<!-- Node18&#45;&gt;Node19 -->
<g id="edge22_Node000018_Node000019" class="edge">
<title>Node18&#45;&gt;Node19</title>
<g id="a_edge22_Node000018_Node000019"><a xlink:title=" ">
<path fill="none" stroke="#63b8ff" d="M330.59,-169.17C345.23,-172.29 360.63,-175.53 375,-178.5 388.5,-181.29 403.09,-184.24 416.69,-186.96"/>
<polygon fill="#63b8ff" stroke="#63b8ff" points="421.65,-187.95 416.3,-189.18 419.2,-187.46 416.74,-186.97 416.74,-186.97 416.74,-186.97 419.2,-187.46 417.18,-184.77 421.65,-187.95 421.65,-187.95"/>
</a>
</g>
</g>
<!-- Node20 -->
<g id="Node000020" class="node">
<title>Node20</title>
<g id="a_Node000020"><a xlink:href="../../d2/d4b/classPlayer.html#a637514c84aa72b53d01c7dbfcd75c934" target="_top" xlink:title=" ">
<polygon fill="white" stroke="#666666" points="530.5,-170 411.5,-170 411.5,-151 530.5,-151 530.5,-170"/>
<text text-anchor="middle" x="471" y="-158" font-family="Helvetica,sans-Serif" font-size="10.00">Player::getDeckZone</text>
</a>
</g>
</g>
<!-- Node18&#45;&gt;Node20 -->
<g id="edge23_Node000018_Node000020" class="edge">
<title>Node18&#45;&gt;Node20</title>
<g id="a_edge23_Node000018_Node000020"><a xlink:title=" ">
<path fill="none" stroke="#63b8ff" d="M330.73,-156.47C355.1,-157.18 382.45,-157.97 406.41,-158.66"/>
<polygon fill="#63b8ff" stroke="#63b8ff" points="411.47,-158.81 406.41,-160.91 408.97,-158.74 406.47,-158.66 406.47,-158.66 406.47,-158.66 408.97,-158.74 406.54,-156.41 411.47,-158.81 411.47,-158.81"/>
</a>
</g>
</g>
<!-- Node21 -->
<g id="Node000021" class="node">
<title>Node21</title>
<g id="a_Node000021"><a xlink:href="../../d3/d44/classAbstractGame.html#a951e28ed8a577fc0ac7e1d13a98b77f6" target="_top" xlink:title=" ">
<polygon fill="white" stroke="#666666" points="533.5,-133 408.5,-133 408.5,-114 533.5,-114 533.5,-133"/>
<text text-anchor="middle" x="471" y="-121" font-family="Helvetica,sans-Serif" font-size="10.00">AbstractGame::getTab</text>
</a>
</g>
</g>
<!-- Node18&#45;&gt;Node21 -->
<g id="edge25_Node000018_Node000021" class="edge">
<title>Node18&#45;&gt;Node21</title>
<g id="a_edge25_Node000018_Node000021"><a xlink:title=" ">
<path fill="none" stroke="#63b8ff" d="M330.73,-144.31C354.01,-140.83 380.01,-136.94 403.18,-133.48"/>
<polygon fill="#63b8ff" stroke="#63b8ff" points="408.38,-132.71 403.77,-135.67 405.91,-133.08 403.44,-133.44 403.44,-133.44 403.44,-133.44 405.91,-133.08 403.1,-131.22 408.38,-132.71 408.38,-132.71"/>
</a>
</g>
</g>
<!-- Node22&#45;&gt;Node3 -->
<g id="edge32_Node000022_Node000003" class="edge">
<title>Node22&#45;&gt;Node3</title>
<g id="a_edge32_Node000022_Node000003"><a xlink:title=" ">
<path fill="none" stroke="#63b8ff" d="M281.98,-207.04C309.08,-220.21 356.85,-243.07 375,-249.5 389.41,-254.6 405.4,-259.08 420.1,-262.74"/>
<polygon fill="#63b8ff" stroke="#63b8ff" points="425.03,-263.95 419.63,-264.94 422.6,-263.35 420.17,-262.76 420.17,-262.76 420.17,-262.76 422.6,-263.35 420.71,-260.57 425.03,-263.95 425.03,-263.95"/>
</a>
</g>
</g>
<!-- Node22&#45;&gt;Node4 -->
<g id="edge30_Node000022_Node000004" class="edge">
<title>Node22&#45;&gt;Node4</title>
<g id="a_edge30_Node000022_Node000004"><a xlink:title=" ">
<path fill="none" stroke="#63b8ff" d="M298.89,-207.01C356.78,-220.51 472.94,-240.93 567,-215.5 584.88,-210.67 585.96,-201.77 603,-194.5 614.95,-189.4 628.3,-185.03 640.78,-181.47"/>
<polygon fill="#63b8ff" stroke="#63b8ff" points="645.7,-180.09 641.49,-183.61 643.29,-180.77 640.89,-181.44 640.89,-181.44 640.89,-181.44 643.29,-180.77 640.28,-179.27 645.7,-180.09 645.7,-180.09"/>
</a>
</g>
</g>
<!-- Node22&#45;&gt;Node19 -->
<g id="edge28_Node000022_Node000019" class="edge">
<title>Node22&#45;&gt;Node19</title>
<g id="a_edge28_Node000022_Node000019"><a xlink:title=" ">
<path fill="none" stroke="#63b8ff" d="M339.18,-197.5C357.75,-197.5 377.57,-197.5 396.01,-197.5"/>
<polygon fill="#63b8ff" stroke="#63b8ff" points="401.18,-197.5 396.18,-199.75 398.68,-197.5 396.18,-197.5 396.18,-197.5 396.18,-197.5 398.68,-197.5 396.18,-195.25 401.18,-197.5 401.18,-197.5"/>
</a>
</g>
</g>
<!-- Node22&#45;&gt;Node20 -->
<g id="edge29_Node000022_Node000020" class="edge">
<title>Node22&#45;&gt;Node20</title>
<g id="a_edge29_Node000022_Node000020"><a xlink:title=" ">
<path fill="none" stroke="#63b8ff" d="M315.94,-187.97C345.11,-182.77 381.28,-176.32 411.25,-170.98"/>
<polygon fill="#63b8ff" stroke="#63b8ff" points="416.38,-170.06 411.86,-173.15 413.92,-170.5 411.46,-170.94 411.46,-170.94 411.46,-170.94 413.92,-170.5 411.07,-168.72 416.38,-170.06 416.38,-170.06"/>
</a>
</g>
</g>
<!-- Node22&#45;&gt;Node21 -->
<g id="edge31_Node000022_Node000021" class="edge">
<title>Node22&#45;&gt;Node21</title>
<g id="a_edge31_Node000022_Node000021"><a xlink:title=" ">
<path fill="none" stroke="#63b8ff" d="M317.05,-187.95C324.69,-185.48 332.24,-182.38 339,-178.5 358.9,-167.07 354.79,-152.36 375,-141.5 383.77,-136.79 393.57,-133.29 403.46,-130.7"/>
<polygon fill="#63b8ff" stroke="#63b8ff" points="408.32,-129.5 404,-132.89 405.89,-130.1 403.46,-130.7 403.46,-130.7 403.46,-130.7 405.89,-130.1 402.92,-128.52 408.32,-129.5 408.32,-129.5"/>
</a>
</g>
</g>
</g>
</svg>

<g id="navigator" transform="translate(0 0)" fill="#404254">
  <rect fill="#f2f5e9" fill-opacity="0.5" stroke="#606060" stroke-width=".5" x="0" y="0" width="60" height="60"/>
  <use id="zoomplus" xlink:href="#zoomPlus" x="17" y="9" onmousedown="handleZoom(evt,'in')"/>
  <use id="zoomminus" xlink:href="#zoomMin" x="42" y="9" onmousedown="handleZoom(evt,'out')"/>
  <use id="reset" xlink:href="#resetDef" x="30" y="36" onmousedown="handleReset()"/>
   <use id="arrowup" xlink:href="#arrowUp" x="0" y="0" onmousedown="handlePan(0,-1)"/>
  <use id="arrowright" xlink:href="#arrowRight" x="0" y="0" onmousedown="handlePan(1,0)"/>
  <use id="arrowdown" xlink:href="#arrowDown" x="0" y="0" onmousedown="handlePan(0,1)"/>
  <use id="arrowleft" xlink:href="#arrowLeft" x="0" y="0" onmousedown="handlePan(-1,0)"/>
</g>
<svg viewBox="0 0 15 15" width="100%" height="30px" preserveAspectRatio="xMaxYMin meet">
 <g id="arrow_out" transform="scale(0.3 0.3)">
  <a xlink:href="classLibraryMenu_a0dfe7268cac55b61a75deafde722d0bf_cgraph_org.svg" target="_base">
   <rect id="button" ry="5" rx="5" y="6" x="6" height="38" width="38"
        fill="#f2f5e9" fill-opacity="0.5" stroke="#606060" stroke-width="1.0"/>
   <path id="arrow"
     d="M 11.500037,31.436501 C 11.940474,20.09759 22.043105,11.32322 32.158766,21.979434 L 37.068811,17.246167 C 37.068811,17.246167 37.088388,32 37.088388,32 L 22.160133,31.978069 C 22.160133,31.978069 26.997745,27.140456 26.997745,27.140456 C 18.528582,18.264221 13.291696,25.230495 11.500037,31.436501 z"
     style="fill:#404040;"/>
  </a>
 </g>
</svg>

<style type='text/css'>
<![CDATA[
[data-mouse-over-selected='false'] { opacity: 0.7; }
[data-mouse-over-selected='true']  { opacity: 1.0; }
]]>
</style>
<script type="application/ecmascript"><![CDATA[
document.addEventListener('DOMContentLoaded', (event) => {
  highlightEdges();
  highlightAdjacentNodes();
});
]]></script>
</svg>
