<?xml version="1.0" encoding="UTF-8" standalone="no"?>
<!DOCTYPE svg PUBLIC "-//W3C//DTD SVG 1.1//EN"
 "http://www.w3.org/Graphics/SVG/1.1/DTD/svg11.dtd">
<!-- Generated by graphviz version 2.43.0 (0)
 -->
<!-- Title: cockatrice/src/deck/deck_loader.h Pages: 1 -->
<!--zoomable 280 -->

<svg id="main" version="1.1" xmlns="http://www.w3.org/2000/svg" xmlns:xlink="http://www.w3.org/1999/xlink" xml:space="preserve" onload="init(evt)">
<style type="text/css"><![CDATA[
.node, .edge {opacity: 0.7;}
.node.selected, .edge.selected {opacity: 1;}
.edge:hover path { stroke: red; }
.edge:hover polygon { stroke: red; fill: red; }
]]></style>

<defs>
  <circle id="rim" cx="0" cy="0" r="7"/>
  <circle id="rim2" cx="0" cy="0" r="3.5"/>
  <g id="zoomPlus">
    <use xlink:href="#rim" fill="#404040"><set attributeName="fill" to="#808080" begin="zoomplus.mouseover" end="zoomplus.mouseout"/></use>
    <path d="M-4,0h8M0,-4v8" fill="none" stroke="white" stroke-width="1.5" pointer-events="none"/>
  </g>
  <g id="zoomMin">
    <use xlink:href="#rim" fill="#404040"><set attributeName="fill" to="#808080" begin="zoomminus.mouseover" end="zoomminus.mouseout"/></use>
    <path d="M-4,0h8" fill="none" stroke="white" stroke-width="1.5" pointer-events="none"/>
  </g>
  <g id="arrowUp" transform="translate(30 24)">
    <use xlink:href="#rim"/>
    <path pointer-events="none" fill="none" stroke="white" stroke-width="1.5" d="M0,-3.0v7 M-2.5,-0.5L0,-3.0L2.5,-0.5"/>
  </g>
  <g id="arrowRight" transform="rotate(90) translate(36 -43)">
    <use xlink:href="#rim"/>
    <path pointer-events="none" fill="none" stroke="white" stroke-width="1.5" d="M0,-3.0v7 M-2.5,-0.5L0,-3.0L2.5,-0.5"/>
  </g>
  <g id="arrowDown" transform="rotate(180) translate(-30 -48)">
    <use xlink:href="#rim"/>
    <path pointer-events="none" fill="none" stroke="white" stroke-width="1.5" d="M0,-3.0v7 M-2.5,-0.5L0,-3.0L2.5,-0.5"/>
  </g>
  <g id="arrowLeft" transform="rotate(270) translate(-36 17)">
    <use xlink:href="#rim"/>
    <path pointer-events="none" fill="none" stroke="white" stroke-width="1.5" d="M0,-3.0v7 M-2.5,-0.5L0,-3.0L2.5,-0.5"/>
  </g>
  <g id="resetDef">
    <use xlink:href="#rim2" fill="#404040"><set attributeName="fill" to="#808080" begin="reset.mouseover" end="reset.mouseout"/></use>
  </g>
</defs>
<script type="application/ecmascript">
var viewWidth = 581;
var viewHeight = 280;
var sectionId = 'dynsection-0';
</script>
<script type="application/ecmascript" xlink:href="../../svg.min.js"/>
<svg id="graph" class="graph">
<g id="viewport">
<title>cockatrice/src/deck/deck_loader.h</title>
<!-- Node1 -->
<g id="Node000001" class="node">
<title>Node1</title>
<g id="a_Node000001"><a xlink:title=" ">
<polygon fill="#999999" stroke="#666666" points="385.5,-272 275.5,-272 275.5,-242 385.5,-242 385.5,-272"/>
<text text-anchor="start" x="283.5" y="-260" font-family="Helvetica,sans-Serif" font-size="10.00">cockatrice/src/deck</text>
<text text-anchor="middle" x="330.5" y="-249" font-family="Helvetica,sans-Serif" font-size="10.00">/deck_loader.h</text>
</a>
</g>
</g>
<!-- Node2 -->
<g id="Node000002" class="node">
<title>Node2</title>
<g id="a_Node000002"><a xlink:href="../../d7/d1a/deck__list_8h.html" target="_top" xlink:title=" ">
<polygon fill="white" stroke="#666666" points="312,-206 243,-206 243,-187 312,-187 312,-206"/>
<text text-anchor="middle" x="277.5" y="-194" font-family="Helvetica,sans-Serif" font-size="10.00">deck_list.h</text>
</a>
</g>
</g>
<!-- Node1&#45;&gt;Node2 -->
<g id="edge1_Node000001_Node000002" class="edge">
<title>Node1&#45;&gt;Node2</title>
<g id="a_edge1_Node000001_Node000002"><a xlink:title=" ">
<path fill="none" stroke="#63b8ff" d="M317.67,-241.84C308.88,-232.13 297.32,-219.38 288.86,-210.04"/>
<polygon fill="#63b8ff" stroke="#63b8ff" points="285.44,-206.27 290.47,-208.46 287.12,-208.12 288.8,-209.97 288.8,-209.97 288.8,-209.97 287.12,-208.12 287.13,-211.48 285.44,-206.27 285.44,-206.27"/>
</a>
</g>
</g>
<!-- Node12 -->
<g id="Node000012" class="node">
<title>Node12</title>
<g id="a_Node000012"><a xlink:title=" ">
<polygon fill="#e0e0e0" stroke="#999999" points="437,-206 330,-206 330,-187 437,-187 437,-206"/>
<text text-anchor="middle" x="383.5" y="-194" font-family="Helvetica,sans-Serif" font-size="10.00">QLoggingCategory</text>
</a>
</g>
</g>
<!-- Node1&#45;&gt;Node12 -->
<g id="edge13_Node000001_Node000012" class="edge">
<title>Node1&#45;&gt;Node12</title>
<g id="a_edge13_Node000001_Node000012"><a xlink:title=" ">
<path fill="none" stroke="#63b8ff" d="M343.33,-241.84C352.12,-232.13 363.68,-219.38 372.14,-210.04"/>
<polygon fill="#63b8ff" stroke="#63b8ff" points="375.56,-206.27 373.87,-211.48 373.88,-208.12 372.2,-209.97 372.2,-209.97 372.2,-209.97 373.88,-208.12 370.53,-208.46 375.56,-206.27 375.56,-206.27"/>
</a>
</g>
</g>
<!-- Node3 -->
<g id="Node000003" class="node">
<title>Node3</title>
<g id="a_Node000003"><a xlink:href="../../dc/d89/card__ref_8h.html" target="_top" xlink:title=" ">
<polygon fill="white" stroke="#666666" points="65,-145.5 0,-145.5 0,-126.5 65,-126.5 65,-145.5"/>
<text text-anchor="middle" x="32.5" y="-133.5" font-family="Helvetica,sans-Serif" font-size="10.00">card_ref.h</text>
</a>
</g>
</g>
<!-- Node2&#45;&gt;Node3 -->
<g id="edge2_Node000002_Node000003" class="edge">
<title>Node2&#45;&gt;Node3</title>
<g id="a_edge2_Node000002_Node000003"><a xlink:title=" ">
<path fill="none" stroke="#63b8ff" d="M242.99,-188.49C203.34,-180.27 136.43,-165.86 79.5,-151 74.9,-149.8 70.08,-148.46 65.34,-147.09"/>
<polygon fill="#63b8ff" stroke="#63b8ff" points="60.25,-145.61 65.68,-144.85 62.65,-146.31 65.05,-147.01 65.05,-147.01 65.05,-147.01 62.65,-146.31 64.42,-149.17 60.25,-145.61 60.25,-145.61"/>
</a>
</g>
</g>
<!-- Node5 -->
<g id="Node000005" class="node">
<title>Node5</title>
<g id="a_Node000005"><a xlink:href="../../d9/d65/inner__deck__list__node_8h.html" target="_top" xlink:title="Defines the InnerDecklistNode class, which represents structural nodes (zones and groups) in the deck...">
<polygon fill="white" stroke="#666666" points="249.5,-145.5 121.5,-145.5 121.5,-126.5 249.5,-126.5 249.5,-145.5"/>
<text text-anchor="middle" x="185.5" y="-133.5" font-family="Helvetica,sans-Serif" font-size="10.00">inner_deck_list_node.h</text>
</a>
</g>
</g>
<!-- Node2&#45;&gt;Node5 -->
<g id="edge4_Node000002_Node000005" class="edge">
<title>Node2&#45;&gt;Node5</title>
<g id="a_edge4_Node000002_Node000005"><a xlink:title=" ">
<path fill="none" stroke="#63b8ff" d="M263.93,-186.87C247.89,-176.67 221.16,-159.67 203.43,-148.4"/>
<polygon fill="#63b8ff" stroke="#63b8ff" points="199.13,-145.67 204.56,-146.45 201.24,-147.01 203.35,-148.35 203.35,-148.35 203.35,-148.35 201.24,-147.01 202.14,-150.25 199.13,-145.67 199.13,-145.67"/>
</a>
</g>
</g>
<!-- Node7 -->
<g id="Node000007" class="node">
<title>Node7</title>
<g id="a_Node000007"><a xlink:title=" ">
<polygon fill="#e0e0e0" stroke="#999999" points="173.5,-19 23.5,-19 23.5,0 173.5,0 173.5,-19"/>
<text text-anchor="middle" x="98.5" y="-7" font-family="Helvetica,sans-Serif" font-size="10.00">QtCore/QXmlStreamReader</text>
</a>
</g>
</g>
<!-- Node2&#45;&gt;Node7 -->
<g id="edge10_Node000002_Node000007" class="edge">
<title>Node2&#45;&gt;Node7</title>
<g id="a_edge10_Node000002_Node000007"><a xlink:title=" ">
<path fill="none" stroke="#63b8ff" d="M242.7,-190.79C199.42,-184.17 129.19,-170.69 112.5,-151 81.44,-114.37 89.72,-51.5 95.32,-24.02"/>
<polygon fill="#63b8ff" stroke="#63b8ff" points="96.39,-19.02 97.55,-24.38 95.87,-21.46 95.35,-23.91 95.35,-23.91 95.35,-23.91 95.87,-21.46 93.15,-23.44 96.39,-19.02 96.39,-19.02"/>
</a>
</g>
</g>
<!-- Node8 -->
<g id="Node000008" class="node">
<title>Node8</title>
<g id="a_Node000008"><a xlink:title=" ">
<polygon fill="#e0e0e0" stroke="#999999" points="346.5,-19 200.5,-19 200.5,0 346.5,0 346.5,-19"/>
<text text-anchor="middle" x="273.5" y="-7" font-family="Helvetica,sans-Serif" font-size="10.00">QtCore/QXmlStreamWriter</text>
</a>
</g>
</g>
<!-- Node2&#45;&gt;Node8 -->
<g id="edge11_Node000002_Node000008" class="edge">
<title>Node2&#45;&gt;Node8</title>
<g id="a_edge11_Node000002_Node000008"><a xlink:title=" ">
<path fill="none" stroke="#63b8ff" d="M277.31,-186.58C276.66,-156.84 274.59,-60.97 273.81,-24.63"/>
<polygon fill="#63b8ff" stroke="#63b8ff" points="273.69,-19.33 276.05,-24.28 273.75,-21.83 273.8,-24.33 273.8,-24.33 273.8,-24.33 273.75,-21.83 271.55,-24.38 273.69,-19.33 273.69,-19.33"/>
</a>
</g>
</g>
<!-- Node9 -->
<g id="Node000009" class="node">
<title>Node9</title>
<g id="a_Node000009"><a xlink:title=" ">
<polygon fill="#e0e0e0" stroke="#999999" points="351,-145.5 306,-145.5 306,-126.5 351,-126.5 351,-145.5"/>
<text text-anchor="middle" x="328.5" y="-133.5" font-family="Helvetica,sans-Serif" font-size="10.00">QMap</text>
</a>
</g>
</g>
<!-- Node2&#45;&gt;Node9 -->
<g id="edge8_Node000002_Node000009" class="edge">
<title>Node2&#45;&gt;Node9</title>
<g id="a_edge8_Node000002_Node000009"><a xlink:title=" ">
<path fill="none" stroke="#63b8ff" d="M285.03,-186.87C293.61,-177.02 307.73,-160.82 317.54,-149.57"/>
<polygon fill="#63b8ff" stroke="#63b8ff" points="320.94,-145.67 319.35,-150.91 319.3,-147.55 317.66,-149.44 317.66,-149.44 317.66,-149.44 319.3,-147.55 315.96,-147.96 320.94,-145.67 320.94,-145.67"/>
</a>
</g>
</g>
<!-- Node10 -->
<g id="Node000010" class="node">
<title>Node10</title>
<g id="a_Node000010"><a xlink:title=" ">
<polygon fill="#e0e0e0" stroke="#999999" points="424,-145.5 369,-145.5 369,-126.5 424,-126.5 424,-145.5"/>
<text text-anchor="middle" x="396.5" y="-133.5" font-family="Helvetica,sans-Serif" font-size="10.00">QVector</text>
</a>
</g>
</g>
<!-- Node2&#45;&gt;Node10 -->
<g id="edge9_Node000002_Node000010" class="edge">
<title>Node2&#45;&gt;Node10</title>
<g id="a_edge9_Node000002_Node000010"><a xlink:title=" ">
<path fill="none" stroke="#63b8ff" d="M294.8,-186.99C315.87,-176.64 351.47,-159.14 374.47,-147.83"/>
<polygon fill="#63b8ff" stroke="#63b8ff" points="379.18,-145.52 375.68,-149.74 376.93,-146.62 374.69,-147.72 374.69,-147.72 374.69,-147.72 376.93,-146.62 373.7,-145.7 379.18,-145.52 379.18,-145.52"/>
</a>
</g>
</g>
<!-- Node11 -->
<g id="Node000011" class="node">
<title>Node11</title>
<g id="a_Node000011"><a xlink:title=" ">
<polygon fill="#e0e0e0" stroke="#999999" points="573,-151 442,-151 442,-121 573,-121 573,-151"/>
<text text-anchor="start" x="450" y="-139" font-family="Helvetica,sans-Serif" font-size="10.00">common/pb/move_card</text>
<text text-anchor="middle" x="507.5" y="-128" font-family="Helvetica,sans-Serif" font-size="10.00">_to_zone.pb.h</text>
</a>
</g>
</g>
<!-- Node2&#45;&gt;Node11 -->
<g id="edge12_Node000002_Node000011" class="edge">
<title>Node2&#45;&gt;Node11</title>
<g id="a_edge12_Node000002_Node000011"><a xlink:title=" ">
<path fill="none" stroke="#63b8ff" d="M310.94,-186.99C346.57,-177.93 403.72,-163.4 447.24,-152.33"/>
<polygon fill="#63b8ff" stroke="#63b8ff" points="452.2,-151.06 447.91,-154.48 449.78,-151.68 447.36,-152.3 447.36,-152.3 447.36,-152.3 449.78,-151.68 446.8,-150.12 452.2,-151.06 452.2,-151.06"/>
</a>
</g>
</g>
<!-- Node4 -->
<g id="Node000004" class="node">
<title>Node4</title>
<g id="a_Node000004"><a xlink:title=" ">
<polygon fill="#e0e0e0" stroke="#999999" points="59,-79.5 6,-79.5 6,-60.5 59,-60.5 59,-79.5"/>
<text text-anchor="middle" x="32.5" y="-67.5" font-family="Helvetica,sans-Serif" font-size="10.00">QString</text>
</a>
</g>
</g>
<!-- Node3&#45;&gt;Node4 -->
<g id="edge3_Node000003_Node000004" class="edge">
<title>Node3&#45;&gt;Node4</title>
<g id="a_edge3_Node000003_Node000004"><a xlink:title=" ">
<path fill="none" stroke="#63b8ff" d="M32.5,-126.37C32.5,-115.74 32.5,-97.55 32.5,-84.93"/>
<polygon fill="#63b8ff" stroke="#63b8ff" points="32.5,-79.91 34.75,-84.91 32.5,-82.41 32.5,-84.91 32.5,-84.91 32.5,-84.91 32.5,-82.41 30.25,-84.91 32.5,-79.91 32.5,-79.91"/>
</a>
</g>
</g>
<!-- Node6 -->
<g id="Node000006" class="node">
<title>Node6</title>
<g id="a_Node000006"><a xlink:href="../../d8/d7d/abstract__deck__list__node_8h.html" target="_top" xlink:title="Defines the AbstractDecklistNode base class used as the foundation for all nodes in the deck list tre...">
<polygon fill="white" stroke="#666666" points="238,-85 133,-85 133,-55 238,-55 238,-85"/>
<text text-anchor="start" x="141" y="-73" font-family="Helvetica,sans-Serif" font-size="10.00">abstract_deck_list</text>
<text text-anchor="middle" x="185.5" y="-62" font-family="Helvetica,sans-Serif" font-size="10.00">_node.h</text>
</a>
</g>
</g>
<!-- Node5&#45;&gt;Node6 -->
<g id="edge5_Node000005_Node000006" class="edge">
<title>Node5&#45;&gt;Node6</title>
<g id="a_edge5_Node000005_Node000006"><a xlink:title=" ">
<path fill="none" stroke="#63b8ff" d="M185.5,-126.37C185.5,-117.26 185.5,-102.58 185.5,-90.63"/>
<polygon fill="#63b8ff" stroke="#63b8ff" points="185.5,-85.36 187.75,-90.36 185.5,-87.86 185.5,-90.36 185.5,-90.36 185.5,-90.36 185.5,-87.86 183.25,-90.36 185.5,-85.36 185.5,-85.36"/>
</a>
</g>
</g>
<!-- Node6&#45;&gt;Node7 -->
<g id="edge6_Node000006_Node000007" class="edge">
<title>Node6&#45;&gt;Node7</title>
<g id="a_edge6_Node000006_Node000007"><a xlink:title=" ">
<path fill="none" stroke="#63b8ff" d="M164.44,-54.84C149.53,-44.81 129.78,-31.53 115.79,-22.13"/>
<polygon fill="#63b8ff" stroke="#63b8ff" points="111.28,-19.09 116.69,-20.02 113.36,-20.49 115.43,-21.88 115.43,-21.88 115.43,-21.88 113.36,-20.49 114.18,-23.75 111.28,-19.09 111.28,-19.09"/>
</a>
</g>
</g>
<!-- Node6&#45;&gt;Node8 -->
<g id="edge7_Node000006_Node000008" class="edge">
<title>Node6&#45;&gt;Node8</title>
<g id="a_edge7_Node000006_Node000008"><a xlink:title=" ">
<path fill="none" stroke="#63b8ff" d="M206.8,-54.84C222.01,-44.73 242.21,-31.3 256.38,-21.88"/>
<polygon fill="#63b8ff" stroke="#63b8ff" points="260.57,-19.09 257.65,-23.74 258.49,-20.48 256.41,-21.86 256.41,-21.86 256.41,-21.86 258.49,-20.48 255.16,-19.99 260.57,-19.09 260.57,-19.09"/>
</a>
</g>
</g>
</g>
</svg>

<g id="navigator" transform="translate(0 0)" fill="#404254">
  <rect fill="#f2f5e9" fill-opacity="0.5" stroke="#606060" stroke-width=".5" x="0" y="0" width="60" height="60"/>
  <use id="zoomplus" xlink:href="#zoomPlus" x="17" y="9" onmousedown="handleZoom(evt,'in')"/>
  <use id="zoomminus" xlink:href="#zoomMin" x="42" y="9" onmousedown="handleZoom(evt,'out')"/>
  <use id="reset" xlink:href="#resetDef" x="30" y="36" onmousedown="handleReset()"/>
   <use id="arrowup" xlink:href="#arrowUp" x="0" y="0" onmousedown="handlePan(0,-1)"/>
  <use id="arrowright" xlink:href="#arrowRight" x="0" y="0" onmousedown="handlePan(1,0)"/>
  <use id="arrowdown" xlink:href="#arrowDown" x="0" y="0" onmousedown="handlePan(0,1)"/>
  <use id="arrowleft" xlink:href="#arrowLeft" x="0" y="0" onmousedown="handlePan(-1,0)"/>
</g>
<svg viewBox="0 0 15 15" width="100%" height="30px" preserveAspectRatio="xMaxYMin meet">
 <g id="arrow_out" transform="scale(0.3 0.3)">
  <a xlink:href="deck__loader_8h__incl_org.svg" target="_base">
   <rect id="button" ry="5" rx="5" y="6" x="6" height="38" width="38"
        fill="#f2f5e9" fill-opacity="0.5" stroke="#606060" stroke-width="1.0"/>
   <path id="arrow"
     d="M 11.500037,31.436501 C 11.940474,20.09759 22.043105,11.32322 32.158766,21.979434 L 37.068811,17.246167 C 37.068811,17.246167 37.088388,32 37.088388,32 L 22.160133,31.978069 C 22.160133,31.978069 26.997745,27.140456 26.997745,27.140456 C 18.528582,18.264221 13.291696,25.230495 11.500037,31.436501 z"
     style="fill:#404040;"/>
  </a>
 </g>
</svg>

<style type='text/css'>
<![CDATA[
[data-mouse-over-selected='false'] { opacity: 0.7; }
[data-mouse-over-selected='true']  { opacity: 1.0; }
]]>
</style>
<script type="application/ecmascript"><![CDATA[
document.addEventListener('DOMContentLoaded', (event) => {
  highlightEdges();
  highlightAdjacentNodes();
});
]]></script>
</svg>
