<?xml version="1.0" encoding="UTF-8" standalone="no"?>
<!DOCTYPE svg PUBLIC "-//W3C//DTD SVG 1.1//EN"
 "http://www.w3.org/Graphics/SVG/1.1/DTD/svg11.dtd">
<!-- Generated by graphviz version 2.43.0 (0)
 -->
<!-- Title: CardFilter::attr Pages: 1 -->
<svg width="1263pt" height="149pt"
 viewBox="0.00 0.00 1263.00 148.50" xmlns="http://www.w3.org/2000/svg" xmlns:xlink="http://www.w3.org/1999/xlink">
<g id="graph0" class="graph" transform="scale(1 1) rotate(0) translate(4 144.5)">
<title>CardFilter::attr</title>
<!-- Node1 -->
<g id="Node000001" class="node">
<title>Node1</title>
<g id="a_Node000001"><a xlink:title=" ">
<polygon fill="#999999" stroke="#666666" points="1255,-75 1168,-75 1168,-56 1255,-56 1255,-75"/>
<text text-anchor="middle" x="1211.5" y="-63" font-family="Helvetica,sans-Serif" font-size="10.00">CardFilter::attr</text>
</a>
</g>
</g>
<!-- Node2 -->
<g id="Node000002" class="node">
<title>Node2</title>
<g id="a_Node000002"><a xlink:href="../../d7/dfc/classCardFilter.html#adaa107305dab9419bdb23aff9dd16b66" target="_top" xlink:title=" ">
<polygon fill="white" stroke="#666666" points="1125.5,-132 1008.5,-132 1008.5,-113 1125.5,-113 1125.5,-132"/>
<text text-anchor="middle" x="1067" y="-120" font-family="Helvetica,sans-Serif" font-size="10.00">CardFilter::CardFilter</text>
</a>
</g>
</g>
<!-- Node1&#45;&gt;Node2 -->
<g id="edge1_Node000001_Node000002" class="edge">
<title>Node1&#45;&gt;Node2</title>
<g id="a_edge1_Node000001_Node000002"><a xlink:title=" ">
<path fill="none" stroke="#63b8ff" d="M1183.32,-77.24C1168.26,-83.66 1149.16,-91.68 1132,-98.5 1119.65,-103.41 1105.86,-108.62 1094.25,-112.92"/>
<polygon fill="#63b8ff" stroke="#63b8ff" points="1188.26,-75.12 1184.55,-79.16 1185.96,-76.1 1183.67,-77.09 1183.67,-77.09 1183.67,-77.09 1185.96,-76.1 1182.78,-75.02 1188.26,-75.12 1188.26,-75.12"/>
</a>
</g>
</g>
<!-- Node3 -->
<g id="Node000003" class="node">
<title>Node3</title>
<g id="a_Node000003"><a xlink:href="../../d7/dfc/classCardFilter.html#a50cdd943b9445afa6e5e3c443638768b" target="_top" xlink:title=" ">
<polygon fill="white" stroke="#666666" points="966,-113 853,-113 853,-94 966,-94 966,-113"/>
<text text-anchor="middle" x="909.5" y="-101" font-family="Helvetica,sans-Serif" font-size="10.00">CardFilter::fromJson</text>
</a>
</g>
</g>
<!-- Node1&#45;&gt;Node3 -->
<g id="edge9_Node000001_Node000003" class="edge">
<title>Node1&#45;&gt;Node3</title>
<g id="a_edge9_Node000001_Node000003"><a xlink:title=" ">
<path fill="none" stroke="#63b8ff" d="M1162.76,-71.55C1109.23,-78.33 1022.54,-89.31 966.03,-96.47"/>
<polygon fill="#63b8ff" stroke="#63b8ff" points="1167.84,-70.9 1163.16,-73.76 1165.36,-71.22 1162.88,-71.53 1162.88,-71.53 1162.88,-71.53 1165.36,-71.22 1162.59,-69.3 1167.84,-70.9 1167.84,-70.9"/>
</a>
</g>
</g>
<!-- Node8 -->
<g id="Node000008" class="node">
<title>Node8</title>
<g id="a_Node000008"><a xlink:href="../../d8/d95/classFilterTree.html#a69ace2c797b4a495093a060a2fd7906c" target="_top" xlink:title=" ">
<polygon fill="white" stroke="#666666" points="1132,-56 1002,-56 1002,-37 1132,-37 1132,-56"/>
<text text-anchor="middle" x="1067" y="-44" font-family="Helvetica,sans-Serif" font-size="10.00">FilterTree::removeFilter</text>
</a>
</g>
</g>
<!-- Node1&#45;&gt;Node8 -->
<g id="edge10_Node000001_Node000008" class="edge">
<title>Node1&#45;&gt;Node8</title>
<g id="a_edge10_Node000001_Node000008"><a xlink:title=" ">
<path fill="none" stroke="#63b8ff" d="M1162.67,-59.12C1152.85,-57.81 1142.36,-56.41 1132.07,-55.04"/>
<polygon fill="#63b8ff" stroke="#63b8ff" points="1167.75,-59.8 1162.49,-61.37 1165.27,-59.47 1162.79,-59.14 1162.79,-59.14 1162.79,-59.14 1165.27,-59.47 1163.09,-56.91 1167.75,-59.8 1167.75,-59.8"/>
</a>
</g>
</g>
<!-- Node9 -->
<g id="Node000009" class="node">
<title>Node9</title>
<g id="a_Node000009"><a xlink:href="../../d8/d95/classFilterTree.html#afc8bda07596a380241767388bc2e7270" target="_top" xlink:title=" ">
<polygon fill="white" stroke="#666666" points="1125,-19 1009,-19 1009,0 1125,0 1125,-19"/>
<text text-anchor="middle" x="1067" y="-7" font-family="Helvetica,sans-Serif" font-size="10.00">FilterTree::termNode</text>
</a>
</g>
</g>
<!-- Node1&#45;&gt;Node9 -->
<g id="edge11_Node000001_Node000009" class="edge">
<title>Node1&#45;&gt;Node9</title>
<g id="a_edge11_Node000001_Node000009"><a xlink:title=" ">
<path fill="none" stroke="#63b8ff" d="M1187.52,-53.54C1172.08,-45.78 1151.14,-35.8 1132,-28.5 1122.9,-25.03 1112.89,-21.79 1103.53,-19.01"/>
<polygon fill="#63b8ff" stroke="#63b8ff" points="1192.13,-55.87 1186.65,-55.62 1189.9,-54.74 1187.67,-53.61 1187.67,-53.61 1187.67,-53.61 1189.9,-54.74 1188.68,-51.6 1192.13,-55.87 1192.13,-55.87"/>
</a>
</g>
</g>
<!-- Node2&#45;&gt;Node3 -->
<g id="edge2_Node000002_Node000003" class="edge">
<title>Node2&#45;&gt;Node3</title>
<g id="a_edge2_Node000002_Node000003"><a xlink:title=" ">
<path fill="none" stroke="#63b8ff" d="M1002.91,-114.79C990.73,-113.3 978.05,-111.75 966.13,-110.3"/>
<polygon fill="#63b8ff" stroke="#63b8ff" points="1008.1,-115.43 1002.86,-117.05 1005.62,-115.12 1003.13,-114.82 1003.13,-114.82 1003.13,-114.82 1005.62,-115.12 1003.41,-112.59 1008.1,-115.43 1008.1,-115.43"/>
</a>
</g>
</g>
<!-- Node4 -->
<g id="Node000004" class="node">
<title>Node4</title>
<g id="a_Node000004"><a xlink:href="../../d5/d32/classVisualDatabaseDisplayFilterSaveLoadWidget.html#ae3e9f737ad9075bd9cc5b899ad662ff1" target="_top" xlink:title=" ">
<polygon fill="white" stroke="#666666" points="817,-118.5 662,-118.5 662,-88.5 817,-88.5 817,-118.5"/>
<text text-anchor="start" x="670" y="-106.5" font-family="Helvetica,sans-Serif" font-size="10.00">VisualDatabaseDisplayFilter</text>
<text text-anchor="middle" x="739.5" y="-95.5" font-family="Helvetica,sans-Serif" font-size="10.00">SaveLoadWidget::loadFilter</text>
</a>
</g>
</g>
<!-- Node3&#45;&gt;Node4 -->
<g id="edge3_Node000003_Node000004" class="edge">
<title>Node3&#45;&gt;Node4</title>
<g id="a_edge3_Node000003_Node000004"><a xlink:title=" ">
<path fill="none" stroke="#63b8ff" d="M847.45,-103.5C837.6,-103.5 827.3,-103.5 817.14,-103.5"/>
<polygon fill="#63b8ff" stroke="#63b8ff" points="852.56,-103.5 847.56,-105.75 850.06,-103.5 847.56,-103.5 847.56,-103.5 847.56,-103.5 850.06,-103.5 847.56,-101.25 852.56,-103.5 852.56,-103.5"/>
</a>
</g>
</g>
<!-- Node5 -->
<g id="Node000005" class="node">
<title>Node5</title>
<g id="a_Node000005"><a xlink:href="../../d5/d32/classVisualDatabaseDisplayFilterSaveLoadWidget.html#a5181a7c32722708536f8a2d92127f585" target="_top" xlink:title=" ">
<polygon fill="white" stroke="#666666" points="626,-118.5 445,-118.5 445,-88.5 626,-88.5 626,-118.5"/>
<text text-anchor="start" x="453" y="-106.5" font-family="Helvetica,sans-Serif" font-size="10.00">VisualDatabaseDisplayFilter</text>
<text text-anchor="middle" x="535.5" y="-95.5" font-family="Helvetica,sans-Serif" font-size="10.00">SaveLoadWidget::refreshFilterList</text>
</a>
</g>
</g>
<!-- Node4&#45;&gt;Node5 -->
<g id="edge4_Node000004_Node000005" class="edge">
<title>Node4&#45;&gt;Node5</title>
<g id="a_edge4_Node000004_Node000005"><a xlink:title=" ">
<path fill="none" stroke="#63b8ff" d="M656.65,-103.5C646.66,-103.5 636.41,-103.5 626.32,-103.5"/>
<polygon fill="#63b8ff" stroke="#63b8ff" points="661.84,-103.5 656.84,-105.75 659.34,-103.5 656.84,-103.5 656.84,-103.5 656.84,-103.5 659.34,-103.5 656.84,-101.25 661.84,-103.5 661.84,-103.5"/>
</a>
</g>
</g>
<!-- Node5&#45;&gt;Node5 -->
<g id="edge5_Node000005_Node000005" class="edge">
<title>Node5&#45;&gt;Node5</title>
<g id="a_edge5_Node000005_Node000005"><a xlink:title=" ">
<path fill="none" stroke="#63b8ff" d="M573.7,-123.39C574.63,-130.61 561.9,-136.5 535.5,-136.5 503.62,-136.5 491.67,-127.91 499.64,-118.78"/>
<polygon fill="#63b8ff" stroke="#63b8ff" points="571.36,-118.78 575.63,-122.22 572.49,-121 573.62,-123.23 573.62,-123.23 573.62,-123.23 572.49,-121 571.61,-124.25 571.36,-118.78 571.36,-118.78"/>
</a>
</g>
</g>
<!-- Node6 -->
<g id="Node000006" class="node">
<title>Node6</title>
<g id="a_Node000006"><a xlink:href="../../d5/d32/classVisualDatabaseDisplayFilterSaveLoadWidget.html#a6f498eec152a7a7e6bd9ba1946da7f58" target="_top" xlink:title=" ">
<polygon fill="white" stroke="#666666" points="409,-140.5 254,-140.5 254,-110.5 409,-110.5 409,-140.5"/>
<text text-anchor="start" x="262" y="-128.5" font-family="Helvetica,sans-Serif" font-size="10.00">VisualDatabaseDisplayFilter</text>
<text text-anchor="middle" x="331.5" y="-117.5" font-family="Helvetica,sans-Serif" font-size="10.00">SaveLoadWidget::saveFilter</text>
</a>
</g>
</g>
<!-- Node5&#45;&gt;Node6 -->
<g id="edge6_Node000005_Node000006" class="edge">
<title>Node5&#45;&gt;Node6</title>
<g id="a_edge6_Node000005_Node000006"><a xlink:title=" ">
<path fill="none" stroke="#63b8ff" d="M439.69,-113.83C429.42,-114.94 419.06,-116.07 409.04,-117.16"/>
<polygon fill="#63b8ff" stroke="#63b8ff" points="444.72,-113.28 440,-116.06 442.24,-113.55 439.75,-113.82 439.75,-113.82 439.75,-113.82 442.24,-113.55 439.51,-111.58 444.72,-113.28 444.72,-113.28"/>
</a>
</g>
</g>
<!-- Node7 -->
<g id="Node000007" class="node">
<title>Node7</title>
<g id="a_Node000007"><a xlink:href="../../d5/d32/classVisualDatabaseDisplayFilterSaveLoadWidget.html#a440009085398cc5c4cc664dd7020c0be" target="_top" xlink:title=" ">
<polygon fill="white" stroke="#666666" points="218,-124 0,-124 0,-83 218,-83 218,-124"/>
<text text-anchor="start" x="8" y="-112" font-family="Helvetica,sans-Serif" font-size="10.00">VisualDatabaseDisplayFilter</text>
<text text-anchor="start" x="8" y="-101" font-family="Helvetica,sans-Serif" font-size="10.00">SaveLoadWidget::VisualDatabaseDisplay</text>
<text text-anchor="middle" x="109" y="-90" font-family="Helvetica,sans-Serif" font-size="10.00">FilterSaveLoadWidget</text>
</a>
</g>
</g>
<!-- Node5&#45;&gt;Node7 -->
<g id="edge8_Node000005_Node000007" class="edge">
<title>Node5&#45;&gt;Node7</title>
<g id="a_edge8_Node000005_Node000007"><a xlink:title=" ">
<path fill="none" stroke="#63b8ff" d="M439.63,-101.83C429.29,-101.69 418.92,-101.58 409,-101.5 340.11,-100.95 322.89,-101.02 254,-101.5 242.37,-101.58 230.22,-101.7 218.11,-101.84"/>
<polygon fill="#63b8ff" stroke="#63b8ff" points="444.7,-101.9 439.67,-104.08 442.2,-101.86 439.7,-101.83 439.7,-101.83 439.7,-101.83 442.2,-101.86 439.73,-99.58 444.7,-101.9 444.7,-101.9"/>
</a>
</g>
</g>
<!-- Node6&#45;&gt;Node7 -->
<g id="edge7_Node000006_Node000007" class="edge">
<title>Node6&#45;&gt;Node7</title>
<g id="a_edge7_Node000006_Node000007"><a xlink:title=" ">
<path fill="none" stroke="#63b8ff" d="M248.81,-117.35C238.83,-116.35 228.52,-115.33 218.23,-114.3"/>
<polygon fill="#63b8ff" stroke="#63b8ff" points="254,-117.87 248.8,-119.61 251.51,-117.62 249.02,-117.37 249.02,-117.37 249.02,-117.37 251.51,-117.62 249.25,-115.13 254,-117.87 254,-117.87"/>
</a>
</g>
</g>
</g>
</svg>
