<?xml version="1.0" encoding="UTF-8" standalone="no"?>
<!DOCTYPE svg PUBLIC "-//W3C//DTD SVG 1.1//EN"
 "http://www.w3.org/Graphics/SVG/1.1/DTD/svg11.dtd">
<!-- Generated by graphviz version 2.43.0 (0)
 -->
<!-- Title: cockatrice/src/interface/widgets/replay/replay_timeline_widget.cpp Pages: 1 -->
<!--zoomable 324 -->

<svg id="main" version="1.1" xmlns="http://www.w3.org/2000/svg" xmlns:xlink="http://www.w3.org/1999/xlink" xml:space="preserve" onload="init(evt)">

<style type="text/css"><![CDATA[
.node, .edge {opacity: 0.7;}
.node.selected, .edge.selected {opacity: 1;}
.edge:hover path { stroke: red; }
.edge:hover polygon { stroke: red; fill: red; }
]]></style>

<defs>
  <circle id="rim" cx="0" cy="0" r="7"/>
  <circle id="rim2" cx="0" cy="0" r="3.5"/>
  <g id="zoomPlus">
    <use xlink:href="#rim" fill="#404040"><set attributeName="fill" to="#808080" begin="zoomplus.mouseover" end="zoomplus.mouseout"/></use>
    <path d="M-4,0h8M0,-4v8" fill="none" stroke="white" stroke-width="1.5" pointer-events="none"/>
  </g>
  <g id="zoomMin">
    <use xlink:href="#rim" fill="#404040"><set attributeName="fill" to="#808080" begin="zoomminus.mouseover" end="zoomminus.mouseout"/></use>
    <path d="M-4,0h8" fill="none" stroke="white" stroke-width="1.5" pointer-events="none"/>
  </g>
  <g id="arrowUp" transform="translate(30 24)">
    <use xlink:href="#rim"/>
    <path pointer-events="none" fill="none" stroke="white" stroke-width="1.5" d="M0,-3.0v7 M-2.5,-0.5L0,-3.0L2.5,-0.5"/>
  </g>
  <g id="arrowRight" transform="rotate(90) translate(36 -43)">
    <use xlink:href="#rim"/>
    <path pointer-events="none" fill="none" stroke="white" stroke-width="1.5" d="M0,-3.0v7 M-2.5,-0.5L0,-3.0L2.5,-0.5"/>
  </g>
  <g id="arrowDown" transform="rotate(180) translate(-30 -48)">
    <use xlink:href="#rim"/>
    <path pointer-events="none" fill="none" stroke="white" stroke-width="1.5" d="M0,-3.0v7 M-2.5,-0.5L0,-3.0L2.5,-0.5"/>
  </g>
  <g id="arrowLeft" transform="rotate(270) translate(-36 17)">
    <use xlink:href="#rim"/>
    <path pointer-events="none" fill="none" stroke="white" stroke-width="1.5" d="M0,-3.0v7 M-2.5,-0.5L0,-3.0L2.5,-0.5"/>
  </g>
  <g id="resetDef">
    <use xlink:href="#rim2" fill="#404040"><set attributeName="fill" to="#808080" begin="reset.mouseover" end="reset.mouseout"/></use>
  </g>
</defs>
<script type="application/ecmascript">
var viewWidth = 2281;
var viewHeight = 324;
var sectionId = 'dynsection-0';
</script>
<script type="application/ecmascript" xlink:href="../../svg.min.js"/>
<svg id="graph" class="graph">
<g id="viewport">
<title>cockatrice/src/interface/widgets/replay/replay_timeline_widget.cpp</title>
<!-- Node1 -->
<g id="Node000001" class="node">
<title>Node1</title>
<g id="a_Node000001"><a xlink:title=" ">
<polygon fill="#999999" stroke="#666666" points="1562.5,-316 1432.5,-316 1432.5,-275 1562.5,-275 1562.5,-316"/>
<text text-anchor="start" x="1440.5" y="-304" font-family="Helvetica,sans-Serif" font-size="10.00">cockatrice/src/interface</text>
<text text-anchor="start" x="1440.5" y="-293" font-family="Helvetica,sans-Serif" font-size="10.00">/widgets/replay/replay</text>
<text text-anchor="middle" x="1497.5" y="-282" font-family="Helvetica,sans-Serif" font-size="10.00">_timeline_widget.cpp</text>
</a>
</g>
</g>
<!-- Node2 -->
<g id="Node000002" class="node">
<title>Node2</title>
<g id="a_Node000002"><a xlink:href="../../dc/dbf/replay__timeline__widget_8h.html" target="_top" xlink:title="TODO: Document this.">
<polygon fill="white" stroke="#666666" points="330.5,-233.5 190.5,-233.5 190.5,-214.5 330.5,-214.5 330.5,-233.5"/>
<text text-anchor="middle" x="260.5" y="-221.5" font-family="Helvetica,sans-Serif" font-size="10.00">replay_timeline_widget.h</text>
</a>
</g>
</g>
<!-- Node1&#45;&gt;Node2 -->
<g id="edge1_Node000001_Node000002" class="edge">
<title>Node1&#45;&gt;Node2</title>
<g id="a_edge1_Node000001_Node000002"><a xlink:title=" ">
<path fill="none" stroke="#63b8ff" d="M1432.3,-290.84C1221.69,-279 560.22,-241.84 335.83,-229.23"/>
<polygon fill="#63b8ff" stroke="#63b8ff" points="330.61,-228.94 335.73,-226.97 333.1,-229.08 335.6,-229.22 335.6,-229.22 335.6,-229.22 333.1,-229.08 335.47,-231.47 330.61,-228.94 330.61,-228.94"/>
</a>
</g>
</g>
<!-- Node7 -->
<g id="Node000007" class="node">
<title>Node7</title>
<g id="a_Node000007"><a xlink:href="../../dc/db3/cache__settings_8h.html" target="_top" xlink:title="TODO: Document this.">
<polygon fill="white" stroke="#666666" points="1450,-239 1337,-239 1337,-209 1450,-209 1450,-239"/>
<text text-anchor="start" x="1345" y="-227" font-family="Helvetica,sans-Serif" font-size="10.00">../../../client/settings</text>
<text text-anchor="middle" x="1393.5" y="-216" font-family="Helvetica,sans-Serif" font-size="10.00">/cache_settings.h</text>
</a>
</g>
</g>
<!-- Node1&#45;&gt;Node7 -->
<g id="edge6_Node000001_Node000007" class="edge">
<title>Node1&#45;&gt;Node7</title>
<g id="a_edge6_Node000001_Node000007"><a xlink:title=" ">
<path fill="none" stroke="#63b8ff" d="M1468.25,-274.96C1452.79,-264.62 1433.98,-252.05 1419.1,-242.11"/>
<polygon fill="#63b8ff" stroke="#63b8ff" points="1414.62,-239.11 1420.03,-240.02 1416.7,-240.5 1418.78,-241.89 1418.78,-241.89 1418.78,-241.89 1416.7,-240.5 1417.53,-243.76 1414.62,-239.11 1414.62,-239.11"/>
</a>
</g>
</g>
<!-- Node35 -->
<g id="Node000035" class="node">
<title>Node35</title>
<g id="a_Node000035"><a xlink:title=" ">
<polygon fill="#e0e0e0" stroke="#999999" points="1526.5,-233.5 1468.5,-233.5 1468.5,-214.5 1526.5,-214.5 1526.5,-233.5"/>
<text text-anchor="middle" x="1497.5" y="-221.5" font-family="Helvetica,sans-Serif" font-size="10.00">QPainter</text>
</a>
</g>
</g>
<!-- Node1&#45;&gt;Node35 -->
<g id="edge51_Node000001_Node000035" class="edge">
<title>Node1&#45;&gt;Node35</title>
<g id="a_edge51_Node000001_Node000035"><a xlink:title=" ">
<path fill="none" stroke="#63b8ff" d="M1497.5,-274.77C1497.5,-263.39 1497.5,-249.36 1497.5,-239.09"/>
<polygon fill="#63b8ff" stroke="#63b8ff" points="1497.5,-233.82 1499.75,-238.82 1497.5,-236.32 1497.5,-238.82 1497.5,-238.82 1497.5,-238.82 1497.5,-236.32 1495.25,-238.82 1497.5,-233.82 1497.5,-233.82"/>
</a>
</g>
</g>
<!-- Node36 -->
<g id="Node000036" class="node">
<title>Node36</title>
<g id="a_Node000036"><a xlink:title=" ">
<polygon fill="#e0e0e0" stroke="#999999" points="1624,-233.5 1545,-233.5 1545,-214.5 1624,-214.5 1624,-233.5"/>
<text text-anchor="middle" x="1584.5" y="-221.5" font-family="Helvetica,sans-Serif" font-size="10.00">QPainterPath</text>
</a>
</g>
</g>
<!-- Node1&#45;&gt;Node36 -->
<g id="edge52_Node000001_Node000036" class="edge">
<title>Node1&#45;&gt;Node36</title>
<g id="a_edge52_Node000001_Node000036"><a xlink:title=" ">
<path fill="none" stroke="#63b8ff" d="M1522.2,-274.77C1537.36,-262.66 1556.3,-247.52 1569.3,-237.15"/>
<polygon fill="#63b8ff" stroke="#63b8ff" points="1573.46,-233.82 1570.96,-238.7 1571.51,-235.38 1569.55,-236.94 1569.55,-236.94 1569.55,-236.94 1571.51,-235.38 1568.15,-235.18 1573.46,-233.82 1573.46,-233.82"/>
</a>
</g>
</g>
<!-- Node37 -->
<g id="Node000037" class="node">
<title>Node37</title>
<g id="a_Node000037"><a xlink:title=" ">
<polygon fill="#e0e0e0" stroke="#999999" points="1695,-233.5 1642,-233.5 1642,-214.5 1695,-214.5 1695,-233.5"/>
<text text-anchor="middle" x="1668.5" y="-221.5" font-family="Helvetica,sans-Serif" font-size="10.00">QTimer</text>
</a>
</g>
</g>
<!-- Node1&#45;&gt;Node37 -->
<g id="edge53_Node000001_Node000037" class="edge">
<title>Node1&#45;&gt;Node37</title>
<g id="a_edge53_Node000001_Node000037"><a xlink:title=" ">
<path fill="none" stroke="#63b8ff" d="M1545.59,-274.96C1577.08,-262.16 1617,-245.93 1642.64,-235.51"/>
<polygon fill="#63b8ff" stroke="#63b8ff" points="1647.58,-233.5 1643.79,-237.47 1645.26,-234.44 1642.95,-235.39 1642.95,-235.39 1642.95,-235.39 1645.26,-234.44 1642.1,-233.3 1647.58,-233.5 1647.58,-233.5"/>
</a>
</g>
</g>
<!-- Node3 -->
<g id="Node000003" class="node">
<title>Node3</title>
<g id="a_Node000003"><a xlink:href="../../d6/d03/event__processing__options_8h.html" target="_top" xlink:title="TODO: Document this.">
<polygon fill="white" stroke="#666666" points="155,-167.5 0,-167.5 0,-137.5 155,-137.5 155,-167.5"/>
<text text-anchor="start" x="8" y="-155.5" font-family="Helvetica,sans-Serif" font-size="10.00">../../../game/player</text>
<text text-anchor="middle" x="77.5" y="-144.5" font-family="Helvetica,sans-Serif" font-size="10.00">/event_processing_options.h</text>
</a>
</g>
</g>
<!-- Node2&#45;&gt;Node3 -->
<g id="edge2_Node000002_Node000003" class="edge">
<title>Node2&#45;&gt;Node3</title>
<g id="a_edge2_Node000002_Node000003"><a xlink:title=" ">
<path fill="none" stroke="#63b8ff" d="M238.06,-214.48C208.56,-203.27 156.15,-183.37 119.25,-169.36"/>
<polygon fill="#63b8ff" stroke="#63b8ff" points="114.38,-167.51 119.85,-167.18 116.72,-168.39 119.06,-169.28 119.06,-169.28 119.06,-169.28 116.72,-168.39 118.26,-171.39 114.38,-167.51 114.38,-167.51"/>
</a>
</g>
</g>
<!-- Node5 -->
<g id="Node000005" class="node">
<title>Node5</title>
<g id="a_Node000005"><a xlink:title=" ">
<polygon fill="#e0e0e0" stroke="#999999" points="257.5,-162 173.5,-162 173.5,-143 257.5,-143 257.5,-162"/>
<text text-anchor="middle" x="215.5" y="-150" font-family="Helvetica,sans-Serif" font-size="10.00">QMouseEvent</text>
</a>
</g>
</g>
<!-- Node2&#45;&gt;Node5 -->
<g id="edge4_Node000002_Node000005" class="edge">
<title>Node2&#45;&gt;Node5</title>
<g id="a_edge4_Node000002_Node000005"><a xlink:title=" ">
<path fill="none" stroke="#63b8ff" d="M254.98,-214.48C247.22,-202.49 233.02,-180.56 223.93,-166.52"/>
<polygon fill="#63b8ff" stroke="#63b8ff" points="221.06,-162.09 225.67,-165.07 222.42,-164.19 223.78,-166.29 223.78,-166.29 223.78,-166.29 222.42,-164.19 221.89,-167.51 221.06,-162.09 221.06,-162.09"/>
</a>
</g>
</g>
<!-- Node6 -->
<g id="Node000006" class="node">
<title>Node6</title>
<g id="a_Node000006"><a xlink:title=" ">
<polygon fill="#e0e0e0" stroke="#999999" points="335,-162 276,-162 276,-143 335,-143 335,-162"/>
<text text-anchor="middle" x="305.5" y="-150" font-family="Helvetica,sans-Serif" font-size="10.00">QWidget</text>
</a>
</g>
</g>
<!-- Node2&#45;&gt;Node6 -->
<g id="edge5_Node000002_Node000006" class="edge">
<title>Node2&#45;&gt;Node6</title>
<g id="a_edge5_Node000002_Node000006"><a xlink:title=" ">
<path fill="none" stroke="#63b8ff" d="M266.02,-214.48C273.78,-202.49 287.98,-180.56 297.07,-166.52"/>
<polygon fill="#63b8ff" stroke="#63b8ff" points="299.94,-162.09 299.11,-167.51 298.58,-164.19 297.22,-166.29 297.22,-166.29 297.22,-166.29 298.58,-164.19 295.33,-165.07 299.94,-162.09 299.94,-162.09"/>
</a>
</g>
</g>
<!-- Node4 -->
<g id="Node000004" class="node">
<title>Node4</title>
<g id="a_Node000004"><a xlink:title=" ">
<polygon fill="#e0e0e0" stroke="#999999" points="102.5,-85 52.5,-85 52.5,-66 102.5,-66 102.5,-85"/>
<text text-anchor="middle" x="77.5" y="-73" font-family="Helvetica,sans-Serif" font-size="10.00">QFlags</text>
</a>
</g>
</g>
<!-- Node3&#45;&gt;Node4 -->
<g id="edge3_Node000003_Node000004" class="edge">
<title>Node3&#45;&gt;Node4</title>
<g id="a_edge3_Node000003_Node000004"><a xlink:title=" ">
<path fill="none" stroke="#63b8ff" d="M77.5,-137.39C77.5,-124.03 77.5,-104.06 77.5,-90.67"/>
<polygon fill="#63b8ff" stroke="#63b8ff" points="77.5,-85.37 79.75,-90.37 77.5,-87.87 77.5,-90.37 77.5,-90.37 77.5,-90.37 77.5,-87.87 75.25,-90.37 77.5,-85.37 77.5,-85.37"/>
</a>
</g>
</g>
<!-- Node8 -->
<g id="Node000008" class="node">
<title>Node8</title>
<g id="a_Node000008"><a xlink:href="../../d0/dfd/shortcuts__settings_8h.html" target="_top" xlink:title="TODO: Document this.">
<polygon fill="white" stroke="#666666" points="468,-162 353,-162 353,-143 468,-143 468,-162"/>
<text text-anchor="middle" x="410.5" y="-150" font-family="Helvetica,sans-Serif" font-size="10.00">shortcuts_settings.h</text>
</a>
</g>
</g>
<!-- Node7&#45;&gt;Node8 -->
<g id="edge7_Node000007_Node000008" class="edge">
<title>Node7&#45;&gt;Node8</title>
<g id="a_edge7_Node000007_Node000008"><a xlink:title=" ">
<path fill="none" stroke="#63b8ff" d="M1336.71,-221.44C1164.24,-216.47 648.27,-199.69 482.5,-173 468.96,-170.82 454.29,-167.1 441.75,-163.5"/>
<polygon fill="#63b8ff" stroke="#63b8ff" points="436.88,-162.07 442.31,-161.32 439.28,-162.77 441.68,-163.48 441.68,-163.48 441.68,-163.48 439.28,-162.77 441.05,-165.64 436.88,-162.07 436.88,-162.07"/>
</a>
</g>
</g>
<!-- Node11 -->
<g id="Node000011" class="node">
<title>Node11</title>
<g id="a_Node000011"><a xlink:title=" ">
<polygon fill="#e0e0e0" stroke="#999999" points="619,-85 512,-85 512,-66 619,-66 619,-85"/>
<text text-anchor="middle" x="565.5" y="-73" font-family="Helvetica,sans-Serif" font-size="10.00">QLoggingCategory</text>
</a>
</g>
</g>
<!-- Node7&#45;&gt;Node11 -->
<g id="edge13_Node000007_Node000011" class="edge">
<title>Node7&#45;&gt;Node11</title>
<g id="a_edge13_Node000007_Node000011"><a xlink:title=" ">
<path fill="none" stroke="#63b8ff" d="M1336.98,-221.89C1147.31,-217.91 543.76,-202.91 515.5,-173 491.47,-147.56 528.5,-108.34 550.73,-88.65"/>
<polygon fill="#63b8ff" stroke="#63b8ff" points="554.69,-85.21 552.39,-90.19 552.8,-86.85 550.91,-88.49 550.91,-88.49 550.91,-88.49 552.8,-86.85 549.44,-86.79 554.69,-85.21 554.69,-85.21"/>
</a>
</g>
</g>
<!-- Node13 -->
<g id="Node000013" class="node">
<title>Node13</title>
<g id="a_Node000013"><a xlink:title=" ">
<polygon fill="#e0e0e0" stroke="#999999" points="2144,-162 2097,-162 2097,-143 2144,-143 2144,-162"/>
<text text-anchor="middle" x="2120.5" y="-150" font-family="Helvetica,sans-Serif" font-size="10.00">QDate</text>
</a>
</g>
</g>
<!-- Node7&#45;&gt;Node13 -->
<g id="edge12_Node000007_Node000013" class="edge">
<title>Node7&#45;&gt;Node13</title>
<g id="a_edge12_Node000007_Node000013"><a xlink:title=" ">
<path fill="none" stroke="#63b8ff" d="M1450.29,-210.38C1453.4,-209.87 1456.48,-209.4 1459.5,-209 1734.39,-172.12 1814.9,-245.89 2082.5,-173 2089.34,-171.14 2096.37,-167.94 2102.5,-164.68"/>
<polygon fill="#63b8ff" stroke="#63b8ff" points="2106.99,-162.18 2103.71,-166.58 2104.8,-163.4 2102.62,-164.61 2102.62,-164.61 2102.62,-164.61 2104.8,-163.4 2101.53,-162.64 2106.99,-162.18 2106.99,-162.18"/>
</a>
</g>
</g>
<!-- Node14 -->
<g id="Node000014" class="node">
<title>Node14</title>
<g id="a_Node000014"><a xlink:title=" ">
<polygon fill="#e0e0e0" stroke="#999999" points="2129.5,-85 2085.5,-85 2085.5,-66 2129.5,-66 2129.5,-85"/>
<text text-anchor="middle" x="2107.5" y="-73" font-family="Helvetica,sans-Serif" font-size="10.00">QSize</text>
</a>
</g>
</g>
<!-- Node7&#45;&gt;Node14 -->
<g id="edge14_Node000007_Node000014" class="edge">
<title>Node7&#45;&gt;Node14</title>
<g id="a_edge14_Node000007_Node000014"><a xlink:title=" ">
<path fill="none" stroke="#63b8ff" d="M1450.29,-210.41C1453.4,-209.89 1456.48,-209.41 1459.5,-209 1584.36,-191.88 1912.85,-229.51 2025.5,-173 2062.22,-154.58 2089.02,-111.63 2100.82,-89.78"/>
<polygon fill="#63b8ff" stroke="#63b8ff" points="2103.24,-85.2 2102.9,-90.68 2102.07,-87.42 2100.91,-89.63 2100.91,-89.63 2100.91,-89.63 2102.07,-87.42 2098.92,-88.57 2103.24,-85.2 2103.24,-85.2"/>
</a>
</g>
</g>
<!-- Node15 -->
<g id="Node000015" class="node">
<title>Node15</title>
<g id="a_Node000015"><a xlink:title=" ">
<polygon fill="#e0e0e0" stroke="#999999" points="1552.5,-19 1482.5,-19 1482.5,0 1552.5,0 1552.5,-19"/>
<text text-anchor="middle" x="1517.5" y="-7" font-family="Helvetica,sans-Serif" font-size="10.00">QStringList</text>
</a>
</g>
</g>
<!-- Node7&#45;&gt;Node15 -->
<g id="edge15_Node000007_Node000015" class="edge">
<title>Node7&#45;&gt;Node15</title>
<g id="a_edge15_Node000007_Node000015"><a xlink:title=" ">
<path fill="none" stroke="#63b8ff" d="M1450.29,-210.43C1453.4,-209.91 1456.48,-209.42 1459.5,-209 1516.2,-201.04 1934.46,-214.87 1973.5,-173 1985.93,-159.67 1985.73,-145.51 1973.5,-132 1919.08,-71.92 1684.48,-129.14 1610.5,-96 1573.84,-79.58 1542.04,-42.89 1526.9,-23.34"/>
<polygon fill="#63b8ff" stroke="#63b8ff" points="1523.76,-19.22 1528.58,-21.83 1525.27,-21.21 1526.79,-23.19 1526.79,-23.19 1526.79,-23.19 1525.27,-21.21 1525,-24.56 1523.76,-19.22 1523.76,-19.22"/>
</a>
</g>
</g>
<!-- Node16 -->
<g id="Node000016" class="node">
<title>Node16</title>
<g id="a_Node000016"><a xlink:href="../../d0/d7f/interface__card__database__path__provider_8h.html" target="_top" xlink:title=" ">
<polygon fill="white" stroke="#666666" points="802.5,-173 662.5,-173 662.5,-132 802.5,-132 802.5,-173"/>
<text text-anchor="start" x="670.5" y="-161" font-family="Helvetica,sans-Serif" font-size="10.00">libcockatrice/interfaces</text>
<text text-anchor="start" x="670.5" y="-150" font-family="Helvetica,sans-Serif" font-size="10.00">/interface_card_database</text>
<text text-anchor="middle" x="732.5" y="-139" font-family="Helvetica,sans-Serif" font-size="10.00">_path_provider.h</text>
</a>
</g>
</g>
<!-- Node7&#45;&gt;Node16 -->
<g id="edge16_Node000007_Node000016" class="edge">
<title>Node7&#45;&gt;Node16</title>
<g id="a_edge16_Node000007_Node000016"><a xlink:title=" ">
<path fill="none" stroke="#63b8ff" d="M1336.95,-221.08C1232.52,-216.88 1002.61,-204.6 811.5,-173 810.22,-172.79 808.93,-172.57 807.63,-172.34"/>
<polygon fill="#63b8ff" stroke="#63b8ff" points="802.59,-171.4 807.92,-170.1 805.05,-171.86 807.51,-172.31 807.51,-172.31 807.51,-172.31 805.05,-171.86 807.1,-174.53 802.59,-171.4 802.59,-171.4"/>
</a>
</g>
</g>
<!-- Node18 -->
<g id="Node000018" class="node">
<title>Node18</title>
<g id="a_Node000018"><a xlink:href="../../de/d51/interface__network__settings__provider_8h.html" target="_top" xlink:title=" ">
<polygon fill="white" stroke="#666666" points="2067.5,-96 1915.5,-96 1915.5,-55 2067.5,-55 2067.5,-96"/>
<text text-anchor="start" x="1923.5" y="-84" font-family="Helvetica,sans-Serif" font-size="10.00">libcockatrice/interfaces</text>
<text text-anchor="start" x="1923.5" y="-73" font-family="Helvetica,sans-Serif" font-size="10.00">/interface_network_settings</text>
<text text-anchor="middle" x="1991.5" y="-62" font-family="Helvetica,sans-Serif" font-size="10.00">_provider.h</text>
</a>
</g>
</g>
<!-- Node7&#45;&gt;Node18 -->
<g id="edge18_Node000007_Node000018" class="edge">
<title>Node7&#45;&gt;Node18</title>
<g id="a_edge18_Node000007_Node000018"><a xlink:title=" ">
<path fill="none" stroke="#63b8ff" d="M1450.29,-210.41C1453.4,-209.89 1456.48,-209.42 1459.5,-209 1519.84,-200.66 1964.87,-217.46 2006.5,-173 2024.38,-153.9 2015.25,-122.76 2005.18,-101.04"/>
<polygon fill="#63b8ff" stroke="#63b8ff" points="2002.89,-96.28 2007.09,-99.81 2003.98,-98.53 2005.06,-100.78 2005.06,-100.78 2005.06,-100.78 2003.98,-98.53 2003.03,-101.76 2002.89,-96.28 2002.89,-96.28"/>
</a>
</g>
</g>
<!-- Node20 -->
<g id="Node000020" class="node">
<title>Node20</title>
<g id="a_Node000020"><a xlink:href="../../d6/d0c/card__database__settings_8h.html" target="_top" xlink:title="TODO: Document this.">
<polygon fill="white" stroke="#666666" points="1826.5,-167.5 1682.5,-167.5 1682.5,-137.5 1826.5,-137.5 1826.5,-167.5"/>
<text text-anchor="start" x="1690.5" y="-155.5" font-family="Helvetica,sans-Serif" font-size="10.00">libcockatrice/settings</text>
<text text-anchor="middle" x="1754.5" y="-144.5" font-family="Helvetica,sans-Serif" font-size="10.00">/card_database_settings.h</text>
</a>
</g>
</g>
<!-- Node7&#45;&gt;Node20 -->
<g id="edge20_Node000007_Node000020" class="edge">
<title>Node7&#45;&gt;Node20</title>
<g id="a_edge20_Node000007_Node000020"><a xlink:title=" ">
<path fill="none" stroke="#63b8ff" d="M1450.35,-210.78C1453.44,-210.17 1456.51,-209.57 1459.5,-209 1554.25,-190.99 1579,-192.3 1673.5,-173 1679.94,-171.69 1686.64,-170.22 1693.31,-168.71"/>
<polygon fill="#63b8ff" stroke="#63b8ff" points="1698.4,-167.54 1694.03,-170.85 1695.97,-168.1 1693.53,-168.66 1693.53,-168.66 1693.53,-168.66 1695.97,-168.1 1693.03,-166.46 1698.4,-167.54 1698.4,-167.54"/>
</a>
</g>
</g>
<!-- Node24 -->
<g id="Node000024" class="node">
<title>Node24</title>
<g id="a_Node000024"><a xlink:href="../../d4/d33/card__override__settings_8h.html" target="_top" xlink:title="TODO: Document this.">
<polygon fill="white" stroke="#666666" points="960.5,-167.5 820.5,-167.5 820.5,-137.5 960.5,-137.5 960.5,-167.5"/>
<text text-anchor="start" x="828.5" y="-155.5" font-family="Helvetica,sans-Serif" font-size="10.00">libcockatrice/settings</text>
<text text-anchor="middle" x="890.5" y="-144.5" font-family="Helvetica,sans-Serif" font-size="10.00">/card_override_settings.h</text>
</a>
</g>
</g>
<!-- Node7&#45;&gt;Node24 -->
<g id="edge27_Node000007_Node000024" class="edge">
<title>Node7&#45;&gt;Node24</title>
<g id="a_edge27_Node000007_Node000024"><a xlink:title=" ">
<path fill="none" stroke="#63b8ff" d="M1336.93,-218.59C1255.32,-211.71 1100.04,-196.71 969.5,-173 962.61,-171.75 955.43,-170.25 948.32,-168.65"/>
<polygon fill="#63b8ff" stroke="#63b8ff" points="943.42,-167.53 948.8,-166.45 945.86,-168.08 948.3,-168.64 948.3,-168.64 948.3,-168.64 945.86,-168.08 947.79,-170.84 943.42,-167.53 943.42,-167.53"/>
</a>
</g>
</g>
<!-- Node26 -->
<g id="Node000026" class="node">
<title>Node26</title>
<g id="a_Node000026"><a xlink:href="../../d9/d91/debug__settings_8h.html" target="_top" xlink:title="TODO: Document this.">
<polygon fill="white" stroke="#666666" points="1098.5,-167.5 978.5,-167.5 978.5,-137.5 1098.5,-137.5 1098.5,-167.5"/>
<text text-anchor="start" x="986.5" y="-155.5" font-family="Helvetica,sans-Serif" font-size="10.00">libcockatrice/settings</text>
<text text-anchor="middle" x="1038.5" y="-144.5" font-family="Helvetica,sans-Serif" font-size="10.00">/debug_settings.h</text>
</a>
</g>
</g>
<!-- Node7&#45;&gt;Node26 -->
<g id="edge32_Node000007_Node000026" class="edge">
<title>Node7&#45;&gt;Node26</title>
<g id="a_edge32_Node000007_Node000026"><a xlink:title=" ">
<path fill="none" stroke="#63b8ff" d="M1336.99,-214.87C1279.05,-206.12 1186.5,-191.02 1107.5,-173 1102.11,-171.77 1096.51,-170.38 1090.95,-168.92"/>
<polygon fill="#63b8ff" stroke="#63b8ff" points="1085.85,-167.57 1091.26,-166.68 1088.26,-168.21 1090.68,-168.85 1090.68,-168.85 1090.68,-168.85 1088.26,-168.21 1090.1,-171.03 1085.85,-167.57 1085.85,-167.57"/>
</a>
</g>
</g>
<!-- Node27 -->
<g id="Node000027" class="node">
<title>Node27</title>
<g id="a_Node000027"><a xlink:href="../../d0/de1/download__settings_8h.html" target="_top" xlink:title="TODO: Document this.">
<polygon fill="white" stroke="#666666" points="1236.5,-167.5 1116.5,-167.5 1116.5,-137.5 1236.5,-137.5 1236.5,-167.5"/>
<text text-anchor="start" x="1124.5" y="-155.5" font-family="Helvetica,sans-Serif" font-size="10.00">libcockatrice/settings</text>
<text text-anchor="middle" x="1176.5" y="-144.5" font-family="Helvetica,sans-Serif" font-size="10.00">/download_settings.h</text>
</a>
</g>
</g>
<!-- Node7&#45;&gt;Node27 -->
<g id="edge34_Node000007_Node000027" class="edge">
<title>Node7&#45;&gt;Node27</title>
<g id="a_edge34_Node000007_Node000027"><a xlink:title=" ">
<path fill="none" stroke="#63b8ff" d="M1349.59,-208.94C1313.56,-197.4 1262.58,-181.07 1225.29,-169.13"/>
<polygon fill="#63b8ff" stroke="#63b8ff" points="1220.35,-167.54 1225.8,-166.93 1222.73,-168.31 1225.11,-169.07 1225.11,-169.07 1225.11,-169.07 1222.73,-168.31 1224.42,-171.21 1220.35,-167.54 1220.35,-167.54"/>
</a>
</g>
</g>
<!-- Node28 -->
<g id="Node000028" class="node">
<title>Node28</title>
<g id="a_Node000028"><a xlink:href="../../d9/dfd/game__filters__settings_8h.html" target="_top" xlink:title="TODO: Document this.">
<polygon fill="white" stroke="#666666" points="1388.5,-167.5 1254.5,-167.5 1254.5,-137.5 1388.5,-137.5 1388.5,-167.5"/>
<text text-anchor="start" x="1262.5" y="-155.5" font-family="Helvetica,sans-Serif" font-size="10.00">libcockatrice/settings</text>
<text text-anchor="middle" x="1321.5" y="-144.5" font-family="Helvetica,sans-Serif" font-size="10.00">/game_filters_settings.h</text>
</a>
</g>
</g>
<!-- Node7&#45;&gt;Node28 -->
<g id="edge36_Node000007_Node000028" class="edge">
<title>Node7&#45;&gt;Node28</title>
<g id="a_edge36_Node000007_Node000028"><a xlink:title=" ">
<path fill="none" stroke="#63b8ff" d="M1378.93,-208.94C1367.61,-198.01 1351.84,-182.79 1339.69,-171.06"/>
<polygon fill="#63b8ff" stroke="#63b8ff" points="1336.05,-167.54 1341.21,-169.4 1337.85,-169.28 1339.65,-171.02 1339.65,-171.02 1339.65,-171.02 1337.85,-169.28 1338.08,-172.63 1336.05,-167.54 1336.05,-167.54"/>
</a>
</g>
</g>
<!-- Node29 -->
<g id="Node000029" class="node">
<title>Node29</title>
<g id="a_Node000029"><a xlink:href="../../d9/df1/layouts__settings_8h.html" target="_top" xlink:title="TODO: Document this.">
<polygon fill="white" stroke="#666666" points="1964.5,-167.5 1844.5,-167.5 1844.5,-137.5 1964.5,-137.5 1964.5,-167.5"/>
<text text-anchor="start" x="1852.5" y="-155.5" font-family="Helvetica,sans-Serif" font-size="10.00">libcockatrice/settings</text>
<text text-anchor="middle" x="1904.5" y="-144.5" font-family="Helvetica,sans-Serif" font-size="10.00">/layouts_settings.h</text>
</a>
</g>
</g>
<!-- Node7&#45;&gt;Node29 -->
<g id="edge38_Node000007_Node000029" class="edge">
<title>Node7&#45;&gt;Node29</title>
<g id="a_edge38_Node000007_Node000029"><a xlink:title=" ">
<path fill="none" stroke="#63b8ff" d="M1450.31,-210.52C1453.41,-209.97 1456.49,-209.46 1459.5,-209 1625.43,-183.54 1670.5,-203.95 1835.5,-173 1841.52,-171.87 1847.78,-170.45 1853.96,-168.9"/>
<polygon fill="#63b8ff" stroke="#63b8ff" points="1859.12,-167.57 1854.84,-171 1856.7,-168.2 1854.28,-168.82 1854.28,-168.82 1854.28,-168.82 1856.7,-168.2 1853.72,-166.64 1859.12,-167.57 1859.12,-167.57"/>
</a>
</g>
</g>
<!-- Node30 -->
<g id="Node000030" class="node">
<title>Node30</title>
<g id="a_Node000030"><a xlink:href="../../db/d2c/message__settings_8h.html" target="_top" xlink:title="TODO: Document this.">
<polygon fill="white" stroke="#666666" points="1526.5,-167.5 1406.5,-167.5 1406.5,-137.5 1526.5,-137.5 1526.5,-167.5"/>
<text text-anchor="start" x="1414.5" y="-155.5" font-family="Helvetica,sans-Serif" font-size="10.00">libcockatrice/settings</text>
<text text-anchor="middle" x="1466.5" y="-144.5" font-family="Helvetica,sans-Serif" font-size="10.00">/message_settings.h</text>
</a>
</g>
</g>
<!-- Node7&#45;&gt;Node30 -->
<g id="edge41_Node000007_Node000030" class="edge">
<title>Node7&#45;&gt;Node30</title>
<g id="a_edge41_Node000007_Node000030"><a xlink:title=" ">
<path fill="none" stroke="#63b8ff" d="M1408.27,-208.94C1419.75,-198.01 1435.74,-182.79 1448.05,-171.06"/>
<polygon fill="#63b8ff" stroke="#63b8ff" points="1451.75,-167.54 1449.68,-172.62 1449.94,-169.27 1448.13,-170.99 1448.13,-170.99 1448.13,-170.99 1449.94,-169.27 1446.58,-169.36 1451.75,-167.54 1451.75,-167.54"/>
</a>
</g>
</g>
<!-- Node31 -->
<g id="Node000031" class="node">
<title>Node31</title>
<g id="a_Node000031"><a xlink:href="../../db/daf/recents__settings_8h.html" target="_top" xlink:title="TODO: Document this.">
<polygon fill="white" stroke="#666666" points="1664.5,-167.5 1544.5,-167.5 1544.5,-137.5 1664.5,-137.5 1664.5,-167.5"/>
<text text-anchor="start" x="1552.5" y="-155.5" font-family="Helvetica,sans-Serif" font-size="10.00">libcockatrice/settings</text>
<text text-anchor="middle" x="1604.5" y="-144.5" font-family="Helvetica,sans-Serif" font-size="10.00">/recents_settings.h</text>
</a>
</g>
</g>
<!-- Node7&#45;&gt;Node31 -->
<g id="edge43_Node000007_Node000031" class="edge">
<title>Node7&#45;&gt;Node31</title>
<g id="a_edge43_Node000007_Node000031"><a xlink:title=" ">
<path fill="none" stroke="#63b8ff" d="M1436.2,-208.94C1471.23,-197.4 1520.8,-181.07 1557.06,-169.13"/>
<polygon fill="#63b8ff" stroke="#63b8ff" points="1561.86,-167.54 1557.82,-171.24 1559.49,-168.33 1557.12,-169.11 1557.12,-169.11 1557.12,-169.11 1559.49,-168.33 1556.41,-166.97 1561.86,-167.54 1561.86,-167.54"/>
</a>
</g>
</g>
<!-- Node32 -->
<g id="Node000032" class="node">
<title>Node32</title>
<g id="a_Node000032"><a xlink:href="../../db/db0/servers__settings_8h.html" target="_top" xlink:title="TODO: Document this.">
<polygon fill="white" stroke="#666666" points="644.5,-167.5 524.5,-167.5 524.5,-137.5 644.5,-137.5 644.5,-167.5"/>
<text text-anchor="start" x="532.5" y="-155.5" font-family="Helvetica,sans-Serif" font-size="10.00">libcockatrice/settings</text>
<text text-anchor="middle" x="584.5" y="-144.5" font-family="Helvetica,sans-Serif" font-size="10.00">/servers_settings.h</text>
</a>
</g>
</g>
<!-- Node7&#45;&gt;Node32 -->
<g id="edge45_Node000007_Node000032" class="edge">
<title>Node7&#45;&gt;Node32</title>
<g id="a_edge45_Node000007_Node000032"><a xlink:title=" ">
<path fill="none" stroke="#63b8ff" d="M1336.86,-223.17C1212.32,-222.67 905.67,-216.66 653.5,-173 647.15,-171.9 640.54,-170.45 634.04,-168.83"/>
<polygon fill="#63b8ff" stroke="#63b8ff" points="629.1,-167.56 634.5,-166.62 631.52,-168.18 633.94,-168.8 633.94,-168.8 633.94,-168.8 631.52,-168.18 633.38,-170.98 629.1,-167.56 629.1,-167.56"/>
</a>
</g>
</g>
<!-- Node33 -->
<g id="Node000033" class="node">
<title>Node33</title>
<g id="a_Node000033"><a xlink:href="../../de/d3c/macros_8h.html" target="_top" xlink:title=" ">
<polygon fill="white" stroke="#666666" points="2272.5,-167.5 2162.5,-167.5 2162.5,-137.5 2272.5,-137.5 2272.5,-167.5"/>
<text text-anchor="start" x="2170.5" y="-155.5" font-family="Helvetica,sans-Serif" font-size="10.00">libcockatrice/utility</text>
<text text-anchor="middle" x="2217.5" y="-144.5" font-family="Helvetica,sans-Serif" font-size="10.00">/macros.h</text>
</a>
</g>
</g>
<!-- Node7&#45;&gt;Node33 -->
<g id="edge49_Node000007_Node000033" class="edge">
<title>Node7&#45;&gt;Node33</title>
<g id="a_edge49_Node000007_Node000033"><a xlink:title=" ">
<path fill="none" stroke="#63b8ff" d="M1450.28,-210.36C1453.39,-209.86 1456.48,-209.4 1459.5,-209 1765.74,-168.83 1849.29,-226.41 2153.5,-173 2159.4,-171.96 2165.52,-170.55 2171.53,-168.96"/>
<polygon fill="#63b8ff" stroke="#63b8ff" points="2176.55,-167.59 2172.32,-171.08 2174.13,-168.25 2171.72,-168.91 2171.72,-168.91 2171.72,-168.91 2174.13,-168.25 2171.13,-166.74 2176.55,-167.59 2176.55,-167.59"/>
</a>
</g>
</g>
<!-- Node9 -->
<g id="Node000009" class="node">
<title>Node9</title>
<g id="a_Node000009"><a xlink:title=" ">
<polygon fill="#e0e0e0" stroke="#999999" points="348,-85 269,-85 269,-66 348,-66 348,-85"/>
<text text-anchor="middle" x="308.5" y="-73" font-family="Helvetica,sans-Serif" font-size="10.00">QApplication</text>
</a>
</g>
</g>
<!-- Node8&#45;&gt;Node9 -->
<g id="edge8_Node000008_Node000009" class="edge">
<title>Node8&#45;&gt;Node9</title>
<g id="a_edge8_Node000008_Node000009"><a xlink:title=" ">
<path fill="none" stroke="#63b8ff" d="M398.8,-142.9C380.43,-129.39 344.8,-103.19 324.22,-88.06"/>
<polygon fill="#63b8ff" stroke="#63b8ff" points="320.06,-85 325.43,-86.15 322.08,-86.48 324.09,-87.97 324.09,-87.97 324.09,-87.97 322.08,-86.48 322.76,-89.78 320.06,-85 320.06,-85"/>
</a>
</g>
</g>
<!-- Node10 -->
<g id="Node000010" class="node">
<title>Node10</title>
<g id="a_Node000010"><a xlink:title=" ">
<polygon fill="#e0e0e0" stroke="#999999" points="455,-85 366,-85 366,-66 455,-66 455,-85"/>
<text text-anchor="middle" x="410.5" y="-73" font-family="Helvetica,sans-Serif" font-size="10.00">QKeySequence</text>
</a>
</g>
</g>
<!-- Node8&#45;&gt;Node10 -->
<g id="edge9_Node000008_Node000010" class="edge">
<title>Node8&#45;&gt;Node10</title>
<g id="a_edge9_Node000008_Node000010"><a xlink:title=" ">
<path fill="none" stroke="#63b8ff" d="M410.5,-142.9C410.5,-130.01 410.5,-105.58 410.5,-90.21"/>
<polygon fill="#63b8ff" stroke="#63b8ff" points="410.5,-85 412.75,-90 410.5,-87.5 410.5,-90 410.5,-90 410.5,-90 410.5,-87.5 408.25,-90 410.5,-85 410.5,-85"/>
</a>
</g>
</g>
<!-- Node8&#45;&gt;Node11 -->
<g id="edge10_Node000008_Node000011" class="edge">
<title>Node8&#45;&gt;Node11</title>
<g id="a_edge10_Node000008_Node000011"><a xlink:title=" ">
<path fill="none" stroke="#63b8ff" d="M428.28,-142.9C456.66,-129.16 512.15,-102.31 543.17,-87.31"/>
<polygon fill="#63b8ff" stroke="#63b8ff" points="547.93,-85 544.41,-89.21 545.68,-86.09 543.43,-87.18 543.43,-87.18 543.43,-87.18 545.68,-86.09 542.45,-85.16 547.93,-85 547.93,-85"/>
</a>
</g>
</g>
<!-- Node12 -->
<g id="Node000012" class="node">
<title>Node12</title>
<g id="a_Node000012"><a xlink:title=" ">
<polygon fill="#e0e0e0" stroke="#999999" points="894.5,-19 830.5,-19 830.5,0 894.5,0 894.5,-19"/>
<text text-anchor="middle" x="862.5" y="-7" font-family="Helvetica,sans-Serif" font-size="10.00">QSettings</text>
</a>
</g>
</g>
<!-- Node8&#45;&gt;Node12 -->
<g id="edge11_Node000008_Node000012" class="edge">
<title>Node8&#45;&gt;Node12</title>
<g id="a_edge11_Node000008_Node000012"><a xlink:title=" ">
<path fill="none" stroke="#63b8ff" d="M418.77,-142.85C429.2,-131.94 447.69,-112.59 463.5,-96 480.85,-77.79 480.04,-66.32 502.5,-55 558.43,-26.82 744.74,-15.57 825.09,-11.95"/>
<polygon fill="#63b8ff" stroke="#63b8ff" points="830.22,-11.72 825.33,-14.19 827.73,-11.83 825.23,-11.94 825.23,-11.94 825.23,-11.94 827.73,-11.83 825.13,-9.7 830.22,-11.72 830.22,-11.72"/>
</a>
</g>
</g>
<!-- Node17 -->
<g id="Node000017" class="node">
<title>Node17</title>
<g id="a_Node000017"><a xlink:title=" ">
<polygon fill="#e0e0e0" stroke="#999999" points="760.5,-85 704.5,-85 704.5,-66 760.5,-66 760.5,-85"/>
<text text-anchor="middle" x="732.5" y="-73" font-family="Helvetica,sans-Serif" font-size="10.00">QObject</text>
</a>
</g>
</g>
<!-- Node16&#45;&gt;Node17 -->
<g id="edge17_Node000016_Node000017" class="edge">
<title>Node16&#45;&gt;Node17</title>
<g id="a_edge17_Node000016_Node000017"><a xlink:title=" ">
<path fill="none" stroke="#63b8ff" d="M732.5,-131.79C732.5,-118.82 732.5,-102.13 732.5,-90.5"/>
<polygon fill="#63b8ff" stroke="#63b8ff" points="732.5,-85.24 734.75,-90.24 732.5,-87.74 732.5,-90.24 732.5,-90.24 732.5,-90.24 732.5,-87.74 730.25,-90.24 732.5,-85.24 732.5,-85.24"/>
</a>
</g>
</g>
<!-- Node19 -->
<g id="Node000019" class="node">
<title>Node19</title>
<g id="a_Node000019"><a xlink:title=" ">
<polygon fill="#e0e0e0" stroke="#999999" points="1849,-19 1796,-19 1796,0 1849,0 1849,-19"/>
<text text-anchor="middle" x="1822.5" y="-7" font-family="Helvetica,sans-Serif" font-size="10.00">QString</text>
</a>
</g>
</g>
<!-- Node18&#45;&gt;Node19 -->
<g id="edge19_Node000018_Node000019" class="edge">
<title>Node18&#45;&gt;Node19</title>
<g id="a_edge19_Node000018_Node000019"><a xlink:title=" ">
<path fill="none" stroke="#63b8ff" d="M1939.88,-54.95C1910.21,-43.72 1874.14,-30.05 1849.88,-20.87"/>
<polygon fill="#63b8ff" stroke="#63b8ff" points="1845.19,-19.09 1850.66,-18.76 1847.53,-19.98 1849.86,-20.86 1849.86,-20.86 1849.86,-20.86 1847.53,-19.98 1849.07,-22.97 1845.19,-19.09 1845.19,-19.09"/>
</a>
</g>
</g>
<!-- Node21 -->
<g id="Node000021" class="node">
<title>Node21</title>
<g id="a_Node000021"><a xlink:href="../../d2/d62/settings__manager_8h.html" target="_top" xlink:title="TODO: Document this.">
<polygon fill="white" stroke="#666666" points="1378,-85 1265,-85 1265,-66 1378,-66 1378,-85"/>
<text text-anchor="middle" x="1321.5" y="-73" font-family="Helvetica,sans-Serif" font-size="10.00">settings_manager.h</text>
</a>
</g>
</g>
<!-- Node20&#45;&gt;Node21 -->
<g id="edge21_Node000020_Node000021" class="edge">
<title>Node20&#45;&gt;Node21</title>
<g id="a_edge21_Node000020_Node000021"><a xlink:title=" ">
<path fill="none" stroke="#63b8ff" d="M1698.86,-137.49C1690.39,-135.53 1681.73,-133.64 1673.5,-132 1572.32,-111.88 1453.61,-94.42 1383.13,-84.7"/>
<polygon fill="#63b8ff" stroke="#63b8ff" points="1378.14,-84.01 1383.4,-82.46 1380.61,-84.35 1383.09,-84.69 1383.09,-84.69 1383.09,-84.69 1380.61,-84.35 1382.78,-86.92 1378.14,-84.01 1378.14,-84.01"/>
</a>
</g>
</g>
<!-- Node23 -->
<g id="Node000023" class="node">
<title>Node23</title>
<g id="a_Node000023"><a xlink:href="../../d7/de6/interface__card__set__priority__controller_8h.html" target="_top" xlink:title=" ">
<polygon fill="white" stroke="#666666" points="1897.5,-96 1747.5,-96 1747.5,-55 1897.5,-55 1897.5,-96"/>
<text text-anchor="start" x="1755.5" y="-84" font-family="Helvetica,sans-Serif" font-size="10.00">libcockatrice/interfaces</text>
<text text-anchor="start" x="1755.5" y="-73" font-family="Helvetica,sans-Serif" font-size="10.00">/interface_card_set_priority</text>
<text text-anchor="middle" x="1822.5" y="-62" font-family="Helvetica,sans-Serif" font-size="10.00">_controller.h</text>
</a>
</g>
</g>
<!-- Node20&#45;&gt;Node23 -->
<g id="edge25_Node000020_Node000023" class="edge">
<title>Node20&#45;&gt;Node23</title>
<g id="a_edge25_Node000020_Node000023"><a xlink:title=" ">
<path fill="none" stroke="#63b8ff" d="M1767.29,-137.39C1776.84,-126.86 1790.12,-112.22 1801.25,-99.93"/>
<polygon fill="#63b8ff" stroke="#63b8ff" points="1804.64,-96.2 1802.94,-101.42 1802.96,-98.06 1801.28,-99.91 1801.28,-99.91 1801.28,-99.91 1802.96,-98.06 1799.61,-98.4 1804.64,-96.2 1804.64,-96.2"/>
</a>
</g>
</g>
<!-- Node21&#45;&gt;Node12 -->
<g id="edge22_Node000021_Node000012" class="edge">
<title>Node21&#45;&gt;Node12</title>
<g id="a_edge22_Node000021_Node000012"><a xlink:title=" ">
<path fill="none" stroke="#63b8ff" d="M1264.76,-66.59C1169.47,-53.3 979.87,-26.86 899.68,-15.68"/>
<polygon fill="#63b8ff" stroke="#63b8ff" points="894.56,-14.97 899.83,-13.43 897.04,-15.32 899.52,-15.66 899.52,-15.66 899.52,-15.66 897.04,-15.32 899.21,-17.89 894.56,-14.97 894.56,-14.97"/>
</a>
</g>
</g>
<!-- Node21&#45;&gt;Node15 -->
<g id="edge23_Node000021_Node000015" class="edge">
<title>Node21&#45;&gt;Node15</title>
<g id="a_edge23_Node000021_Node000015"><a xlink:title=" ">
<path fill="none" stroke="#63b8ff" d="M1347.93,-65.87C1383.83,-54.15 1447.91,-33.22 1486.18,-20.73"/>
<polygon fill="#63b8ff" stroke="#63b8ff" points="1491.17,-19.1 1487.12,-22.79 1488.8,-19.87 1486.42,-20.65 1486.42,-20.65 1486.42,-20.65 1488.8,-19.87 1485.72,-18.51 1491.17,-19.1 1491.17,-19.1"/>
</a>
</g>
</g>
<!-- Node22 -->
<g id="Node000022" class="node">
<title>Node22</title>
<g id="a_Node000022"><a xlink:title=" ">
<polygon fill="#e0e0e0" stroke="#999999" points="1351,-19 1292,-19 1292,0 1351,0 1351,-19"/>
<text text-anchor="middle" x="1321.5" y="-7" font-family="Helvetica,sans-Serif" font-size="10.00">QVariant</text>
</a>
</g>
</g>
<!-- Node21&#45;&gt;Node22 -->
<g id="edge24_Node000021_Node000022" class="edge">
<title>Node21&#45;&gt;Node22</title>
<g id="a_edge24_Node000021_Node000022"><a xlink:title=" ">
<path fill="none" stroke="#63b8ff" d="M1321.5,-65.87C1321.5,-55.24 1321.5,-37.05 1321.5,-24.43"/>
<polygon fill="#63b8ff" stroke="#63b8ff" points="1321.5,-19.41 1323.75,-24.41 1321.5,-21.91 1321.5,-24.41 1321.5,-24.41 1321.5,-24.41 1321.5,-21.91 1319.25,-24.41 1321.5,-19.41 1321.5,-19.41"/>
</a>
</g>
</g>
<!-- Node23&#45;&gt;Node19 -->
<g id="edge26_Node000023_Node000019" class="edge">
<title>Node23&#45;&gt;Node19</title>
<g id="a_edge26_Node000023_Node000019"><a xlink:title=" ">
<path fill="none" stroke="#63b8ff" d="M1822.5,-54.95C1822.5,-45.09 1822.5,-33.35 1822.5,-24.42"/>
<polygon fill="#63b8ff" stroke="#63b8ff" points="1822.5,-19.26 1824.75,-24.26 1822.5,-21.76 1822.5,-24.26 1822.5,-24.26 1822.5,-24.26 1822.5,-21.76 1820.25,-24.26 1822.5,-19.26 1822.5,-19.26"/>
</a>
</g>
</g>
<!-- Node24&#45;&gt;Node17 -->
<g id="edge29_Node000024_Node000017" class="edge">
<title>Node24&#45;&gt;Node17</title>
<g id="a_edge29_Node000024_Node000017"><a xlink:title=" ">
<path fill="none" stroke="#63b8ff" d="M860.78,-137.39C830.19,-122.87 783.19,-100.56 755.37,-87.36"/>
<polygon fill="#63b8ff" stroke="#63b8ff" points="750.75,-85.16 756.23,-85.27 753.01,-86.23 755.26,-87.31 755.26,-87.31 755.26,-87.31 753.01,-86.23 754.3,-89.34 750.75,-85.16 750.75,-85.16"/>
</a>
</g>
</g>
<!-- Node24&#45;&gt;Node21 -->
<g id="edge28_Node000024_Node000021" class="edge">
<title>Node24&#45;&gt;Node21</title>
<g id="a_edge28_Node000024_Node000021"><a xlink:title=" ">
<path fill="none" stroke="#63b8ff" d="M944.76,-137.46C953.02,-135.51 961.47,-133.62 969.5,-132 1070.62,-111.59 1189.35,-94.22 1259.85,-84.59"/>
<polygon fill="#63b8ff" stroke="#63b8ff" points="1264.84,-83.91 1260.19,-86.82 1262.36,-84.25 1259.89,-84.59 1259.89,-84.59 1259.89,-84.59 1262.36,-84.25 1259.58,-82.36 1264.84,-83.91 1264.84,-83.91"/>
</a>
</g>
</g>
<!-- Node25 -->
<g id="Node000025" class="node">
<title>Node25</title>
<g id="a_Node000025"><a xlink:href="../../dc/d89/card__ref_8h.html" target="_top" xlink:title=" ">
<polygon fill="white" stroke="#666666" points="1729.5,-90.5 1619.5,-90.5 1619.5,-60.5 1729.5,-60.5 1729.5,-90.5"/>
<text text-anchor="start" x="1627.5" y="-78.5" font-family="Helvetica,sans-Serif" font-size="10.00">libcockatrice/utility</text>
<text text-anchor="middle" x="1674.5" y="-67.5" font-family="Helvetica,sans-Serif" font-size="10.00">/card_ref.h</text>
</a>
</g>
</g>
<!-- Node24&#45;&gt;Node25 -->
<g id="edge30_Node000024_Node000025" class="edge">
<title>Node24&#45;&gt;Node25</title>
<g id="a_edge30_Node000024_Node000025"><a xlink:title=" ">
<path fill="none" stroke="#63b8ff" d="M942.09,-137.48C951.17,-135.38 960.57,-133.44 969.5,-132 1032.3,-121.85 1455.47,-91.76 1614.37,-80.67"/>
<polygon fill="#63b8ff" stroke="#63b8ff" points="1619.45,-80.31 1614.62,-82.91 1616.96,-80.49 1614.46,-80.66 1614.46,-80.66 1614.46,-80.66 1616.96,-80.49 1614.31,-78.42 1619.45,-80.31 1619.45,-80.31"/>
</a>
</g>
</g>
<!-- Node25&#45;&gt;Node19 -->
<g id="edge31_Node000025_Node000019" class="edge">
<title>Node25&#45;&gt;Node19</title>
<g id="a_edge31_Node000025_Node000019"><a xlink:title=" ">
<path fill="none" stroke="#63b8ff" d="M1706.98,-60.45C1734.42,-48.59 1773.13,-31.85 1798.02,-21.09"/>
<polygon fill="#63b8ff" stroke="#63b8ff" points="1802.8,-19.02 1799.11,-23.07 1800.51,-20.01 1798.21,-21 1798.21,-21 1798.21,-21 1800.51,-20.01 1797.32,-18.94 1802.8,-19.02 1802.8,-19.02"/>
</a>
</g>
</g>
<!-- Node26&#45;&gt;Node21 -->
<g id="edge33_Node000026_Node000021" class="edge">
<title>Node26&#45;&gt;Node21</title>
<g id="a_edge33_Node000026_Node000021"><a xlink:title=" ">
<path fill="none" stroke="#63b8ff" d="M1087.84,-137.42C1094.44,-135.57 1101.13,-133.73 1107.5,-132 1168.55,-115.46 1239.68,-97.21 1282.62,-86.31"/>
<polygon fill="#63b8ff" stroke="#63b8ff" points="1287.71,-85.02 1283.42,-88.43 1285.29,-85.64 1282.87,-86.25 1282.87,-86.25 1282.87,-86.25 1285.29,-85.64 1282.31,-84.07 1287.71,-85.02 1287.71,-85.02"/>
</a>
</g>
</g>
<!-- Node27&#45;&gt;Node21 -->
<g id="edge35_Node000027_Node000021" class="edge">
<title>Node27&#45;&gt;Node21</title>
<g id="a_edge35_Node000027_Node000021"><a xlink:title=" ">
<path fill="none" stroke="#63b8ff" d="M1203.77,-137.39C1231.73,-122.93 1274.63,-100.74 1300.19,-87.52"/>
<polygon fill="#63b8ff" stroke="#63b8ff" points="1304.75,-85.16 1301.35,-89.46 1302.53,-86.31 1300.31,-87.46 1300.31,-87.46 1300.31,-87.46 1302.53,-86.31 1299.28,-85.46 1304.75,-85.16 1304.75,-85.16"/>
</a>
</g>
</g>
<!-- Node28&#45;&gt;Node21 -->
<g id="edge37_Node000028_Node000021" class="edge">
<title>Node28&#45;&gt;Node21</title>
<g id="a_edge37_Node000028_Node000021"><a xlink:title=" ">
<path fill="none" stroke="#63b8ff" d="M1321.5,-137.39C1321.5,-124.03 1321.5,-104.06 1321.5,-90.67"/>
<polygon fill="#63b8ff" stroke="#63b8ff" points="1321.5,-85.37 1323.75,-90.37 1321.5,-87.87 1321.5,-90.37 1321.5,-90.37 1321.5,-90.37 1321.5,-87.87 1319.25,-90.37 1321.5,-85.37 1321.5,-85.37"/>
</a>
</g>
</g>
<!-- Node29&#45;&gt;Node14 -->
<g id="edge40_Node000029_Node000014" class="edge">
<title>Node29&#45;&gt;Node14</title>
<g id="a_edge40_Node000029_Node000014"><a xlink:title=" ">
<path fill="none" stroke="#63b8ff" d="M1959.67,-137.49C1994.08,-127.84 2038.83,-113.59 2076.5,-96 2081.43,-93.7 2086.52,-90.76 2091.12,-87.87"/>
<polygon fill="#63b8ff" stroke="#63b8ff" points="2095.53,-85.01 2092.55,-89.62 2093.43,-86.37 2091.33,-87.73 2091.33,-87.73 2091.33,-87.73 2093.43,-86.37 2090.11,-85.84 2095.53,-85.01 2095.53,-85.01"/>
</a>
</g>
</g>
<!-- Node29&#45;&gt;Node21 -->
<g id="edge39_Node000029_Node000021" class="edge">
<title>Node29&#45;&gt;Node21</title>
<g id="a_edge39_Node000029_Node000021"><a xlink:title=" ">
<path fill="none" stroke="#63b8ff" d="M1858.73,-137.41C1851.03,-135.37 1843.08,-133.47 1835.5,-132 1750.3,-115.48 1500.54,-92.25 1383.43,-81.87"/>
<polygon fill="#63b8ff" stroke="#63b8ff" points="1378.3,-81.42 1383.48,-79.62 1380.79,-81.64 1383.28,-81.86 1383.28,-81.86 1383.28,-81.86 1380.79,-81.64 1383.08,-84.1 1378.3,-81.42 1378.3,-81.42"/>
</a>
</g>
</g>
<!-- Node30&#45;&gt;Node21 -->
<g id="edge42_Node000030_Node000021" class="edge">
<title>Node30&#45;&gt;Node21</title>
<g id="a_edge42_Node000030_Node000021"><a xlink:title=" ">
<path fill="none" stroke="#63b8ff" d="M1439.23,-137.39C1411.27,-122.93 1368.37,-100.74 1342.81,-87.52"/>
<polygon fill="#63b8ff" stroke="#63b8ff" points="1338.25,-85.16 1343.72,-85.46 1340.47,-86.31 1342.69,-87.46 1342.69,-87.46 1342.69,-87.46 1340.47,-86.31 1341.65,-89.46 1338.25,-85.16 1338.25,-85.16"/>
</a>
</g>
</g>
<!-- Node31&#45;&gt;Node21 -->
<g id="edge44_Node000031_Node000021" class="edge">
<title>Node31&#45;&gt;Node21</title>
<g id="a_edge44_Node000031_Node000021"><a xlink:title=" ">
<path fill="none" stroke="#63b8ff" d="M1555.16,-137.42C1548.56,-135.57 1541.87,-133.73 1535.5,-132 1474.45,-115.46 1403.32,-97.21 1360.38,-86.31"/>
<polygon fill="#63b8ff" stroke="#63b8ff" points="1355.29,-85.02 1360.69,-84.07 1357.71,-85.64 1360.13,-86.25 1360.13,-86.25 1360.13,-86.25 1357.71,-85.64 1359.58,-88.43 1355.29,-85.02 1355.29,-85.02"/>
</a>
</g>
</g>
<!-- Node32&#45;&gt;Node11 -->
<g id="edge47_Node000032_Node000011" class="edge">
<title>Node32&#45;&gt;Node11</title>
<g id="a_edge47_Node000032_Node000011"><a xlink:title=" ">
<path fill="none" stroke="#63b8ff" d="M580.93,-137.39C577.51,-123.91 572.39,-103.7 569,-90.31"/>
<polygon fill="#63b8ff" stroke="#63b8ff" points="567.75,-85.37 571.16,-89.67 568.36,-87.8 568.98,-90.22 568.98,-90.22 568.98,-90.22 568.36,-87.8 566.8,-90.77 567.75,-85.37 567.75,-85.37"/>
</a>
</g>
</g>
<!-- Node32&#45;&gt;Node17 -->
<g id="edge48_Node000032_Node000017" class="edge">
<title>Node32&#45;&gt;Node17</title>
<g id="a_edge48_Node000032_Node000017"><a xlink:title=" ">
<path fill="none" stroke="#63b8ff" d="M612.34,-137.39C640.87,-122.93 684.66,-100.74 710.75,-87.52"/>
<polygon fill="#63b8ff" stroke="#63b8ff" points="715.41,-85.16 711.96,-89.43 713.18,-86.29 710.95,-87.42 710.95,-87.42 710.95,-87.42 713.18,-86.29 709.93,-85.42 715.41,-85.16 715.41,-85.16"/>
</a>
</g>
</g>
<!-- Node32&#45;&gt;Node21 -->
<g id="edge46_Node000032_Node000021" class="edge">
<title>Node32&#45;&gt;Node21</title>
<g id="a_edge46_Node000032_Node000021"><a xlink:title=" ">
<path fill="none" stroke="#63b8ff" d="M629.49,-137.44C637.43,-135.35 645.66,-133.42 653.5,-132 874.09,-92.05 1140.94,-80.8 1259.53,-77.68"/>
<polygon fill="#63b8ff" stroke="#63b8ff" points="1264.72,-77.54 1259.78,-79.92 1262.22,-77.61 1259.72,-77.67 1259.72,-77.67 1259.72,-77.67 1262.22,-77.61 1259.66,-75.42 1264.72,-77.54 1264.72,-77.54"/>
</a>
</g>
</g>
<!-- Node34 -->
<g id="Node000034" class="node">
<title>Node34</title>
<g id="a_Node000034"><a xlink:title=" ">
<polygon fill="#e0e0e0" stroke="#999999" points="2247,-85 2188,-85 2188,-66 2247,-66 2247,-85"/>
<text text-anchor="middle" x="2217.5" y="-73" font-family="Helvetica,sans-Serif" font-size="10.00">QtGlobal</text>
</a>
</g>
</g>
<!-- Node33&#45;&gt;Node34 -->
<g id="edge50_Node000033_Node000034" class="edge">
<title>Node33&#45;&gt;Node34</title>
<g id="a_edge50_Node000033_Node000034"><a xlink:title=" ">
<path fill="none" stroke="#63b8ff" d="M2217.5,-137.39C2217.5,-124.03 2217.5,-104.06 2217.5,-90.67"/>
<polygon fill="#63b8ff" stroke="#63b8ff" points="2217.5,-85.37 2219.75,-90.37 2217.5,-87.87 2217.5,-90.37 2217.5,-90.37 2217.5,-90.37 2217.5,-87.87 2215.25,-90.37 2217.5,-85.37 2217.5,-85.37"/>
</a>
</g>
</g>
</g>
</svg>

<g id="navigator" transform="translate(0 0)" fill="#404254">
  <rect fill="#f2f5e9" fill-opacity="0.5" stroke="#606060" stroke-width=".5" x="0" y="0" width="60" height="60"/>
  <use id="zoomplus" xlink:href="#zoomPlus" x="17" y="9" onmousedown="handleZoom(evt,'in')"/>
  <use id="zoomminus" xlink:href="#zoomMin" x="42" y="9" onmousedown="handleZoom(evt,'out')"/>
  <use id="reset" xlink:href="#resetDef" x="30" y="36" onmousedown="handleReset()"/>
   <use id="arrowup" xlink:href="#arrowUp" x="0" y="0" onmousedown="handlePan(0,-1)"/>
  <use id="arrowright" xlink:href="#arrowRight" x="0" y="0" onmousedown="handlePan(1,0)"/>
  <use id="arrowdown" xlink:href="#arrowDown" x="0" y="0" onmousedown="handlePan(0,1)"/>
  <use id="arrowleft" xlink:href="#arrowLeft" x="0" y="0" onmousedown="handlePan(-1,0)"/>
</g>
<svg viewBox="0 0 15 15" width="100%" height="30px" preserveAspectRatio="xMaxYMin meet">
 <g id="arrow_out" transform="scale(0.3 0.3)">
  <a xlink:href="replay__timeline__widget_8cpp__incl_org.svg" target="_base">
   <rect id="button" ry="5" rx="5" y="6" x="6" height="38" width="38"
        fill="#f2f5e9" fill-opacity="0.5" stroke="#606060" stroke-width="1.0"/>
   <path id="arrow"
     d="M 11.500037,31.436501 C 11.940474,20.09759 22.043105,11.32322 32.158766,21.979434 L 37.068811,17.246167 C 37.068811,17.246167 37.088388,32 37.088388,32 L 22.160133,31.978069 C 22.160133,31.978069 26.997745,27.140456 26.997745,27.140456 C 18.528582,18.264221 13.291696,25.230495 11.500037,31.436501 z"
     style="fill:#404040;"/>
  </a>
 </g>
</svg>

<style type='text/css'>
<![CDATA[
[data-mouse-over-selected='false'] { opacity: 0.7; }
[data-mouse-over-selected='true']  { opacity: 1.0; }
]]>
</style>
<script type="application/ecmascript"><![CDATA[
document.addEventListener('DOMContentLoaded', (event) => {
  highlightEdges();
  highlightAdjacentNodes();
});
]]></script>
</svg>
