<?xml version="1.0" encoding="UTF-8" standalone="no"?>
<!DOCTYPE svg PUBLIC "-//W3C//DTD SVG 1.1//EN"
 "http://www.w3.org/Graphics/SVG/1.1/DTD/svg11.dtd">
<!-- Generated by graphviz version 2.43.0 (0)
 -->
<!-- Title: FilterTreeModel Pages: 1 -->
<svg width="355pt" height="211pt"
 viewBox="0.00 0.00 355.00 211.00" xmlns="http://www.w3.org/2000/svg" xmlns:xlink="http://www.w3.org/1999/xlink">
<g id="graph0" class="graph" transform="scale(1 1) rotate(0) translate(4 207)">
<title>FilterTreeModel</title>
<!-- Node1 -->
<g id="Node000001" class="node">
<title>Node1</title>
<g id="a_Node000001"><a xlink:title=" ">
<polygon fill="#999999" stroke="#666666" points="120.5,-19 28.5,-19 28.5,0 120.5,0 120.5,-19"/>
<text text-anchor="middle" x="74.5" y="-7" font-family="Helvetica,sans-Serif" font-size="10.00">FilterTreeModel</text>
</a>
</g>
</g>
<!-- Node2 -->
<g id="Node000002" class="node">
<title>Node2</title>
<g id="a_Node000002"><a xlink:title=" ">
<polygon fill="white" stroke="#666666" points="117,-91 0,-91 0,-72 117,-72 117,-91"/>
<text text-anchor="middle" x="58.5" y="-79" font-family="Helvetica,sans-Serif" font-size="10.00">QAbstractItemModel</text>
</a>
</g>
</g>
<!-- Node2&#45;&gt;Node1 -->
<g id="edge1_Node000001_Node000002" class="edge">
<title>Node2&#45;&gt;Node1</title>
<g id="a_edge1_Node000001_Node000002"><a xlink:title=" ">
<path fill="none" stroke="#63b8ff" d="M61.65,-66.72C64.88,-52.59 69.8,-31.05 72.52,-19.15"/>
<polygon fill="#63b8ff" stroke="#63b8ff" points="60.46,-71.92 59.38,-66.54 61.02,-69.48 61.58,-67.04 61.58,-67.04 61.58,-67.04 61.02,-69.48 63.77,-67.54 60.46,-71.92 60.46,-71.92"/>
</a>
</g>
</g>
<!-- Node3 -->
<g id="Node000003" class="node">
<title>Node3</title>
<g id="a_Node000003"><a xlink:href="../../d8/d95/classFilterTree.html" target="_top" xlink:title=" ">
<polygon fill="white" stroke="#666666" points="197.5,-91 135.5,-91 135.5,-72 197.5,-72 197.5,-91"/>
<text text-anchor="middle" x="166.5" y="-79" font-family="Helvetica,sans-Serif" font-size="10.00">FilterTree</text>
</a>
</g>
</g>
<!-- Node3&#45;&gt;Node1 -->
<g id="edge2_Node000001_Node000003" class="edge">
<title>Node3&#45;&gt;Node1</title>
<g id="a_edge2_Node000001_Node000003"><a xlink:title=" ">
<path fill="none" stroke="#9a32cd" stroke-dasharray="5,2" d="M150.8,-68.55C132.35,-54.52 102.2,-31.58 85.87,-19.15"/>
<polygon fill="#9a32cd" stroke="#9a32cd" points="155.22,-71.92 149.88,-70.68 153.23,-70.4 151.24,-68.89 151.24,-68.89 151.24,-68.89 153.23,-70.4 152.6,-67.1 155.22,-71.92 155.22,-71.92"/>
</a>
</g>
<text text-anchor="start" x="135" y="-42.5" font-family="Helvetica,sans-Serif" font-size="10.00" fill="grey">fTree</text>
</g>
<!-- Node4 -->
<g id="Node000004" class="node">
<title>Node4</title>
<g id="a_Node000004"><a xlink:title=" ">
<polygon fill="white" stroke="#666666" points="155.5,-147 99.5,-147 99.5,-128 155.5,-128 155.5,-147"/>
<text text-anchor="middle" x="127.5" y="-135" font-family="Helvetica,sans-Serif" font-size="10.00">QObject</text>
</a>
</g>
</g>
<!-- Node4&#45;&gt;Node3 -->
<g id="edge3_Node000003_Node000004" class="edge">
<title>Node4&#45;&gt;Node3</title>
<g id="a_edge3_Node000003_Node000004"><a xlink:title=" ">
<path fill="none" stroke="#63b8ff" d="M137.05,-123.27C144.25,-113.31 153.92,-99.92 160.18,-91.25"/>
<polygon fill="#63b8ff" stroke="#63b8ff" points="133.94,-127.58 135.04,-122.21 135.4,-125.56 136.87,-123.53 136.87,-123.53 136.87,-123.53 135.4,-125.56 138.69,-124.85 133.94,-127.58 133.94,-127.58"/>
</a>
</g>
</g>
<!-- Node5 -->
<g id="Node000005" class="node">
<title>Node5</title>
<g id="a_Node000005"><a xlink:href="../../d0/d92/classFilterTreeBranch.html" target="_top" xlink:title=" ">
<polygon fill="white" stroke="#666666" points="347,-147 174,-147 174,-128 347,-128 347,-147"/>
<text text-anchor="middle" x="260.5" y="-135" font-family="Helvetica,sans-Serif" font-size="10.00">FilterTreeBranch&lt; LogicMap * &gt;</text>
</a>
</g>
</g>
<!-- Node5&#45;&gt;Node3 -->
<g id="edge4_Node000003_Node000005" class="edge">
<title>Node5&#45;&gt;Node3</title>
<g id="a_edge4_Node000003_Node000005"><a xlink:title=" ">
<path fill="none" stroke="#63b8ff" d="M240.64,-125.09C222.99,-114.95 197.58,-100.36 181.57,-91.15"/>
<polygon fill="#63b8ff" stroke="#63b8ff" points="245.4,-127.82 239.94,-127.28 243.23,-126.58 241.06,-125.33 241.06,-125.33 241.06,-125.33 243.23,-126.58 242.18,-123.38 245.4,-127.82 245.4,-127.82"/>
</a>
</g>
</g>
<!-- Node6 -->
<g id="Node000006" class="node">
<title>Node6</title>
<g id="a_Node000006"><a xlink:href="../../db/d51/classFilterTreeNode.html" target="_top" xlink:title=" ">
<polygon fill="white" stroke="#666666" points="304,-203 217,-203 217,-184 304,-184 304,-203"/>
<text text-anchor="middle" x="260.5" y="-191" font-family="Helvetica,sans-Serif" font-size="10.00">FilterTreeNode</text>
</a>
</g>
</g>
<!-- Node6&#45;&gt;Node5 -->
<g id="edge5_Node000005_Node000006" class="edge">
<title>Node6&#45;&gt;Node5</title>
<g id="a_edge5_Node000005_Node000006"><a xlink:title=" ">
<path fill="none" stroke="#63b8ff" d="M260.5,-178.46C260.5,-168.59 260.5,-155.69 260.5,-147.25"/>
<polygon fill="#63b8ff" stroke="#63b8ff" points="260.5,-183.58 258.25,-178.58 260.5,-181.08 260.5,-178.58 260.5,-178.58 260.5,-178.58 260.5,-181.08 262.75,-178.58 260.5,-183.58 260.5,-183.58"/>
</a>
</g>
</g>
</g>
</svg>
