<?xml version="1.0" encoding="UTF-8" standalone="no"?>
<!DOCTYPE svg PUBLIC "-//W3C//DTD SVG 1.1//EN"
 "http://www.w3.org/Graphics/SVG/1.1/DTD/svg11.dtd">
<!-- Generated by graphviz version 2.43.0 (0)
 -->
<!-- Title: Server_CardZone::getPlayer Pages: 1 -->
<svg width="1030pt" height="275pt"
 viewBox="0.00 0.00 1030.00 275.00" xmlns="http://www.w3.org/2000/svg" xmlns:xlink="http://www.w3.org/1999/xlink">
<g id="graph0" class="graph" transform="scale(1 1) rotate(0) translate(4 271)">
<title>Server_CardZone::getPlayer</title>
<!-- Node1 -->
<g id="Node000001" class="node">
<title>Node1</title>
<g id="a_Node000001"><a xlink:title=" ">
<polygon fill="#999999" stroke="#666666" points="1022,-189.5 869,-189.5 869,-170.5 1022,-170.5 1022,-189.5"/>
<text text-anchor="middle" x="945.5" y="-177.5" font-family="Helvetica,sans-Serif" font-size="10.00">Server_CardZone::getPlayer</text>
</a>
</g>
</g>
<!-- Node2 -->
<g id="Node000002" class="node">
<title>Node2</title>
<g id="a_Node000002"><a xlink:href="../../da/d99/classServer__AbstractPlayer.html#a7747ca8a54aa8e4de4791e166423d290" target="_top" xlink:title=" ">
<polygon fill="white" stroke="#666666" points="125,-260 0,-260 0,-230 125,-230 125,-260"/>
<text text-anchor="start" x="8" y="-248" font-family="Helvetica,sans-Serif" font-size="10.00">Server_AbstractPlayer</text>
<text text-anchor="middle" x="62.5" y="-237" font-family="Helvetica,sans-Serif" font-size="10.00">::cmdCreateToken</text>
</a>
</g>
</g>
<!-- Node1&#45;&gt;Node2 -->
<g id="edge1_Node000001_Node000002" class="edge">
<title>Node1&#45;&gt;Node2</title>
<g id="a_edge1_Node000001_Node000002"><a xlink:title=" ">
<path fill="none" stroke="#63b8ff" d="M920.27,-191.81C898.05,-202.2 863.99,-217.03 833,-226 730.73,-255.59 703.46,-267 597,-267 597,-267 597,-267 402,-267 305.12,-267 192.98,-257.92 125.19,-251.42"/>
<polygon fill="#63b8ff" stroke="#63b8ff" points="924.83,-189.66 921.27,-193.83 922.57,-190.73 920.31,-191.8 920.31,-191.8 920.31,-191.8 922.57,-190.73 919.35,-189.76 924.83,-189.66 924.83,-189.66"/>
</a>
</g>
</g>
<!-- Node3 -->
<g id="Node000003" class="node">
<title>Node3</title>
<g id="a_Node000003"><a xlink:href="../../da/d99/classServer__AbstractPlayer.html#a38a99a4a43dadcc15638720e3d72c211" target="_top" xlink:title=" ">
<polygon fill="white" stroke="#666666" points="833,-217 708,-217 708,-187 833,-187 833,-217"/>
<text text-anchor="start" x="716" y="-205" font-family="Helvetica,sans-Serif" font-size="10.00">Server_AbstractPlayer</text>
<text text-anchor="middle" x="770.5" y="-194" font-family="Helvetica,sans-Serif" font-size="10.00">::cmdDumpZone</text>
</a>
</g>
</g>
<!-- Node1&#45;&gt;Node3 -->
<g id="edge2_Node000001_Node000003" class="edge">
<title>Node1&#45;&gt;Node3</title>
<g id="a_edge2_Node000001_Node000003"><a xlink:title=" ">
<path fill="none" stroke="#63b8ff" d="M864.49,-190.18C853.99,-191.51 843.37,-192.86 833.24,-194.15"/>
<polygon fill="#63b8ff" stroke="#63b8ff" points="869.63,-189.52 864.95,-192.38 867.15,-189.84 864.67,-190.15 864.67,-190.15 864.67,-190.15 867.15,-189.84 864.38,-187.92 869.63,-189.52 869.63,-189.52"/>
</a>
</g>
</g>
<!-- Node4 -->
<g id="Node000004" class="node">
<title>Node4</title>
<g id="a_Node000004"><a xlink:href="../../da/d99/classServer__AbstractPlayer.html#aae9b5d4a87368a98428c9b1c8f50d180" target="_top" xlink:title=" ">
<polygon fill="white" stroke="#666666" points="658.5,-153 533.5,-153 533.5,-123 658.5,-123 658.5,-153"/>
<text text-anchor="start" x="541.5" y="-141" font-family="Helvetica,sans-Serif" font-size="10.00">Server_AbstractPlayer</text>
<text text-anchor="middle" x="596" y="-130" font-family="Helvetica,sans-Serif" font-size="10.00">::moveCard</text>
</a>
</g>
</g>
<!-- Node1&#45;&gt;Node4 -->
<g id="edge3_Node000001_Node000004" class="edge">
<title>Node1&#45;&gt;Node4</title>
<g id="a_edge3_Node000001_Node000004"><a xlink:title=" ">
<path fill="none" stroke="#63b8ff" d="M863.45,-170.2C800.95,-162.65 715.83,-152.36 658.77,-145.47"/>
<polygon fill="#63b8ff" stroke="#63b8ff" points="868.67,-170.83 863.44,-172.47 866.19,-170.53 863.71,-170.23 863.71,-170.23 863.71,-170.23 866.19,-170.53 863.98,-168 868.67,-170.83 868.67,-170.83"/>
</a>
</g>
</g>
<!-- Node11 -->
<g id="Node000011" class="node">
<title>Node11</title>
<g id="a_Node000011"><a xlink:href="../../da/d99/classServer__AbstractPlayer.html#a9123f3b066d6661e4f5a923c32cebaf2" target="_top" xlink:title=" ">
<polygon fill="white" stroke="#666666" points="833,-131 708,-131 708,-101 833,-101 833,-131"/>
<text text-anchor="start" x="716" y="-119" font-family="Helvetica,sans-Serif" font-size="10.00">Server_AbstractPlayer</text>
<text text-anchor="middle" x="770.5" y="-108" font-family="Helvetica,sans-Serif" font-size="10.00">::onCardBeingMoved</text>
</a>
</g>
</g>
<!-- Node1&#45;&gt;Node11 -->
<g id="edge12_Node000001_Node000011" class="edge">
<title>Node1&#45;&gt;Node11</title>
<g id="a_edge12_Node000001_Node000011"><a xlink:title=" ">
<path fill="none" stroke="#63b8ff" d="M913.83,-168.65C885.48,-158.17 843.18,-142.52 812.06,-131"/>
<polygon fill="#63b8ff" stroke="#63b8ff" points="918.6,-170.42 913.13,-170.79 916.26,-169.55 913.91,-168.68 913.91,-168.68 913.91,-168.68 916.26,-169.55 914.69,-166.57 918.6,-170.42 918.6,-170.42"/>
</a>
</g>
</g>
<!-- Node5 -->
<g id="Node000005" class="node">
<title>Node5</title>
<g id="a_Node000005"><a xlink:href="../../da/d99/classServer__AbstractPlayer.html#aec16950f506fd0e79497295e9e2a8a57" target="_top" xlink:title=" ">
<polygon fill="white" stroke="#666666" points="286,-239 161,-239 161,-209 286,-209 286,-239"/>
<text text-anchor="start" x="169" y="-227" font-family="Helvetica,sans-Serif" font-size="10.00">Server_AbstractPlayer</text>
<text text-anchor="middle" x="223.5" y="-216" font-family="Helvetica,sans-Serif" font-size="10.00">::cmdAttachCard</text>
</a>
</g>
</g>
<!-- Node4&#45;&gt;Node5 -->
<g id="edge4_Node000004_Node000005" class="edge">
<title>Node4&#45;&gt;Node5</title>
<g id="a_edge4_Node000004_Node000005"><a xlink:title=" ">
<path fill="none" stroke="#63b8ff" d="M574,-156.49C552.89,-173.84 518.61,-198.74 484,-210 418.9,-231.19 339.79,-232.18 286.16,-229.47"/>
<polygon fill="#63b8ff" stroke="#63b8ff" points="578.04,-153.13 575.64,-158.06 576.12,-154.73 574.2,-156.33 574.2,-156.33 574.2,-156.33 576.12,-154.73 572.76,-154.6 578.04,-153.13 578.04,-153.13"/>
</a>
</g>
</g>
<!-- Node6 -->
<g id="Node000006" class="node">
<title>Node6</title>
<g id="a_Node000006"><a xlink:href="../../da/d99/classServer__AbstractPlayer.html#a9064bd54618f3ddaad2e60ff4f43125e" target="_top" xlink:title=" ">
<polygon fill="white" stroke="#666666" points="465.5,-201 340.5,-201 340.5,-171 465.5,-171 465.5,-201"/>
<text text-anchor="start" x="348.5" y="-189" font-family="Helvetica,sans-Serif" font-size="10.00">Server_AbstractPlayer</text>
<text text-anchor="middle" x="403" y="-178" font-family="Helvetica,sans-Serif" font-size="10.00">::cmdConcede</text>
</a>
</g>
</g>
<!-- Node4&#45;&gt;Node6 -->
<g id="edge6_Node000004_Node000006" class="edge">
<title>Node4&#45;&gt;Node6</title>
<g id="a_edge6_Node000004_Node000006"><a xlink:title=" ">
<path fill="none" stroke="#63b8ff" d="M529.97,-154.34C508.51,-159.74 484.75,-165.71 463.7,-171"/>
<polygon fill="#63b8ff" stroke="#63b8ff" points="535.09,-153.06 530.79,-156.46 532.67,-153.67 530.24,-154.27 530.24,-154.27 530.24,-154.27 532.67,-153.67 529.69,-152.09 535.09,-153.06 535.09,-153.06"/>
</a>
</g>
</g>
<!-- Node7 -->
<g id="Node000007" class="node">
<title>Node7</title>
<g id="a_Node000007"><a xlink:href="../../da/d99/classServer__AbstractPlayer.html#a437acecfbf84b5dea39cbdffdacbaca2" target="_top" xlink:title=" ">
<polygon fill="white" stroke="#666666" points="465.5,-153 340.5,-153 340.5,-123 465.5,-123 465.5,-153"/>
<text text-anchor="start" x="348.5" y="-141" font-family="Helvetica,sans-Serif" font-size="10.00">Server_AbstractPlayer</text>
<text text-anchor="middle" x="403" y="-130" font-family="Helvetica,sans-Serif" font-size="10.00">::cmdMoveCard</text>
</a>
</g>
</g>
<!-- Node4&#45;&gt;Node7 -->
<g id="edge7_Node000004_Node000007" class="edge">
<title>Node4&#45;&gt;Node7</title>
<g id="a_edge7_Node000004_Node000007"><a xlink:title=" ">
<path fill="none" stroke="#63b8ff" d="M528.12,-138C507.77,-138 485.51,-138 465.54,-138"/>
<polygon fill="#63b8ff" stroke="#63b8ff" points="533.25,-138 528.25,-140.25 530.75,-138 528.25,-138 528.25,-138 528.25,-138 530.75,-138 528.25,-135.75 533.25,-138 533.25,-138"/>
</a>
</g>
</g>
<!-- Node8 -->
<g id="Node000008" class="node">
<title>Node8</title>
<g id="a_Node000008"><a xlink:href="../../d8/d21/classServer__Player.html#ad507b89d67a2f11f159bda36966b644e" target="_top" xlink:title=" ">
<polygon fill="white" stroke="#666666" points="479.5,-104.5 326.5,-104.5 326.5,-85.5 479.5,-85.5 479.5,-104.5"/>
<text text-anchor="middle" x="403" y="-92.5" font-family="Helvetica,sans-Serif" font-size="10.00">Server_Player::cmdMulligan</text>
</a>
</g>
</g>
<!-- Node4&#45;&gt;Node8 -->
<g id="edge8_Node000004_Node000008" class="edge">
<title>Node4&#45;&gt;Node8</title>
<g id="a_edge8_Node000004_Node000008"><a xlink:title=" ">
<path fill="none" stroke="#63b8ff" d="M528.21,-122.96C500.96,-116.83 470.28,-109.92 446.22,-104.51"/>
<polygon fill="#63b8ff" stroke="#63b8ff" points="533.25,-124.1 527.88,-125.2 530.81,-123.55 528.37,-123 528.37,-123 528.37,-123 530.81,-123.55 528.87,-120.81 533.25,-124.1 533.25,-124.1"/>
</a>
</g>
</g>
<!-- Node9 -->
<g id="Node000009" class="node">
<title>Node9</title>
<g id="a_Node000009"><a xlink:href="../../d8/d21/classServer__Player.html#a00158ff0f645f30323164035f7f422ea" target="_top" xlink:title=" ">
<polygon fill="white" stroke="#666666" points="484,-67.5 322,-67.5 322,-48.5 484,-48.5 484,-67.5"/>
<text text-anchor="middle" x="403" y="-55.5" font-family="Helvetica,sans-Serif" font-size="10.00">Server_Player::cmdUndoDraw</text>
</a>
</g>
</g>
<!-- Node4&#45;&gt;Node9 -->
<g id="edge9_Node000004_Node000009" class="edge">
<title>Node4&#45;&gt;Node9</title>
<g id="a_edge9_Node000004_Node000009"><a xlink:title=" ">
<path fill="none" stroke="#63b8ff" d="M532.69,-120.83C528.28,-118.78 524,-116.51 520,-114 500.3,-101.62 504.23,-87.5 484,-76 477.94,-72.55 471.26,-69.77 464.43,-67.51"/>
<polygon fill="#63b8ff" stroke="#63b8ff" points="537.53,-122.97 532.05,-123 535.25,-121.96 532.96,-120.95 532.96,-120.95 532.96,-120.95 535.25,-121.96 533.87,-118.89 537.53,-122.97 537.53,-122.97"/>
</a>
</g>
</g>
<!-- Node10 -->
<g id="Node000010" class="node">
<title>Node10</title>
<g id="a_Node000010"><a xlink:href="../../da/d99/classServer__AbstractPlayer.html#a6491fc2b2bd57681dcda4d06295762fd" target="_top" xlink:title=" ">
<polygon fill="white" stroke="#666666" points="465.5,-30 340.5,-30 340.5,0 465.5,0 465.5,-30"/>
<text text-anchor="start" x="348.5" y="-18" font-family="Helvetica,sans-Serif" font-size="10.00">Server_AbstractPlayer</text>
<text text-anchor="middle" x="403" y="-7" font-family="Helvetica,sans-Serif" font-size="10.00">::unattachCard</text>
</a>
</g>
</g>
<!-- Node4&#45;&gt;Node10 -->
<g id="edge10_Node000004_Node000010" class="edge">
<title>Node4&#45;&gt;Node10</title>
<g id="a_edge10_Node000004_Node000010"><a xlink:title=" ">
<path fill="none" stroke="#63b8ff" d="M528.94,-120.52C525.77,-118.57 522.76,-116.41 520,-114 492.12,-89.72 512.1,-63.03 484,-39 478.6,-34.38 472.34,-30.65 465.74,-27.64"/>
<polygon fill="#63b8ff" stroke="#63b8ff" points="533.36,-123.05 527.9,-122.52 531.19,-121.81 529.02,-120.57 529.02,-120.57 529.02,-120.57 531.19,-121.81 530.14,-118.61 533.36,-123.05 533.36,-123.05"/>
</a>
</g>
</g>
<!-- Node5&#45;&gt;Node2 -->
<g id="edge5_Node000005_Node000002" class="edge">
<title>Node5&#45;&gt;Node2</title>
<g id="a_edge5_Node000005_Node000002"><a xlink:title=" ">
<path fill="none" stroke="#63b8ff" d="M155.38,-232.87C145.39,-234.18 135.13,-235.54 125.26,-236.84"/>
<polygon fill="#63b8ff" stroke="#63b8ff" points="160.57,-232.18 155.91,-235.06 158.09,-232.51 155.61,-232.83 155.61,-232.83 155.61,-232.83 158.09,-232.51 155.32,-230.6 160.57,-232.18 160.57,-232.18"/>
</a>
</g>
</g>
<!-- Node10&#45;&gt;Node5 -->
<g id="edge11_Node000010_Node000005" class="edge">
<title>Node10&#45;&gt;Node5</title>
<g id="a_edge11_Node000010_Node000005"><a xlink:title=" ">
<path fill="none" stroke="#63b8ff" d="M335.83,-30.05C330.89,-32.58 326.2,-35.54 322,-39 265.37,-85.6 237.41,-173.85 228.13,-209"/>
<polygon fill="#63b8ff" stroke="#63b8ff" points="340.43,-27.84 336.9,-32.03 338.18,-28.92 335.92,-30.01 335.92,-30.01 335.92,-30.01 338.18,-28.92 334.95,-27.98 340.43,-27.84 340.43,-27.84"/>
</a>
</g>
</g>
<!-- Node11&#45;&gt;Node4 -->
<g id="edge13_Node000011_Node000004" class="edge">
<title>Node11&#45;&gt;Node4</title>
<g id="a_edge13_Node000011_Node000004"><a xlink:title=" ">
<path fill="none" stroke="#63b8ff" d="M702.44,-124.55C688.02,-126.39 672.85,-128.33 658.65,-130.14"/>
<polygon fill="#63b8ff" stroke="#63b8ff" points="707.71,-123.88 703.04,-126.74 705.23,-124.2 702.75,-124.51 702.75,-124.51 702.75,-124.51 705.23,-124.2 702.47,-122.28 707.71,-123.88 707.71,-123.88"/>
</a>
</g>
</g>
<!-- Node12 -->
<g id="Node000012" class="node">
<title>Node12</title>
<g id="a_Node000012"><a xlink:href="../../d8/d21/classServer__Player.html#a263a8e85a700728dc5c726131045ab67" target="_top" xlink:title=" ">
<polygon fill="white" stroke="#666666" points="672,-105 520,-105 520,-75 672,-75 672,-105"/>
<text text-anchor="start" x="528" y="-93" font-family="Helvetica,sans-Serif" font-size="10.00">Server_Player::onCardBeing</text>
<text text-anchor="middle" x="596" y="-82" font-family="Helvetica,sans-Serif" font-size="10.00">Moved</text>
</a>
</g>
</g>
<!-- Node11&#45;&gt;Node12 -->
<g id="edge14_Node000011_Node000012" class="edge">
<title>Node11&#45;&gt;Node12</title>
<g id="a_edge14_Node000011_Node000012"><a xlink:title=" ">
<path fill="none" stroke="#63b8ff" d="M702.55,-105.91C692.61,-104.41 682.31,-102.86 672.22,-101.34"/>
<polygon fill="#63b8ff" stroke="#63b8ff" points="707.71,-106.69 702.43,-108.17 705.24,-106.31 702.77,-105.94 702.77,-105.94 702.77,-105.94 705.24,-106.31 703.1,-103.72 707.71,-106.69 707.71,-106.69"/>
</a>
</g>
</g>
</g>
</svg>
