<?xml version="1.0" encoding="UTF-8" standalone="no"?>
<!DOCTYPE svg PUBLIC "-//W3C//DTD SVG 1.1//EN"
 "http://www.w3.org/Graphics/SVG/1.1/DTD/svg11.dtd">
<!-- Generated by graphviz version 2.43.0 (0)
 -->
<!-- Title: libcockatrice_rng/libcockatrice/rng/rng_abstract.h Pages: 1 -->
<svg width="1084pt" height="203pt"
 viewBox="0.00 0.00 1083.50 203.00" xmlns="http://www.w3.org/2000/svg" xmlns:xlink="http://www.w3.org/1999/xlink">
<g id="graph0" class="graph" transform="scale(1 1) rotate(0) translate(4 199)">
<title>libcockatrice_rng/libcockatrice/rng/rng_abstract.h</title>
<!-- Node1 -->
<g id="Node000001" class="node">
<title>Node1</title>
<g id="a_Node000001"><a xlink:title=" ">
<polygon fill="#999999" stroke="#666666" points="677.5,-195 513.5,-195 513.5,-165 677.5,-165 677.5,-195"/>
<text text-anchor="start" x="521.5" y="-183" font-family="Helvetica,sans-Serif" font-size="10.00">libcockatrice_rng/libcockatrice</text>
<text text-anchor="middle" x="595.5" y="-172" font-family="Helvetica,sans-Serif" font-size="10.00">/rng/rng_abstract.h</text>
</a>
</g>
</g>
<!-- Node2 -->
<g id="Node000002" class="node">
<title>Node2</title>
<g id="a_Node000002"><a xlink:href="../../dd/d6f/server__abstract__player_8cpp.html" target="_top" xlink:title=" ">
<polygon fill="white" stroke="#666666" points="153,-129 0,-129 0,-77 153,-77 153,-129"/>
<text text-anchor="start" x="8" y="-117" font-family="Helvetica,sans-Serif" font-size="10.00">libcockatrice_network</text>
<text text-anchor="start" x="8" y="-106" font-family="Helvetica,sans-Serif" font-size="10.00">/libcockatrice/network</text>
<text text-anchor="start" x="8" y="-95" font-family="Helvetica,sans-Serif" font-size="10.00">/server/remote/game/server</text>
<text text-anchor="middle" x="76.5" y="-84" font-family="Helvetica,sans-Serif" font-size="10.00">_abstract_player.cpp</text>
</a>
</g>
</g>
<!-- Node1&#45;&gt;Node2 -->
<g id="edge1_Node000001_Node000002" class="edge">
<title>Node1&#45;&gt;Node2</title>
<g id="a_edge1_Node000001_Node000002"><a xlink:title=" ">
<path fill="none" stroke="#63b8ff" d="M508.05,-173.35C419.9,-166.62 280.29,-153.13 161.5,-129 158.79,-128.45 156.03,-127.85 153.26,-127.22"/>
<polygon fill="#63b8ff" stroke="#63b8ff" points="513.25,-173.74 508.1,-175.61 510.76,-173.55 508.27,-173.36 508.27,-173.36 508.27,-173.36 510.76,-173.55 508.44,-171.12 513.25,-173.74 513.25,-173.74"/>
</a>
</g>
</g>
<!-- Node3 -->
<g id="Node000003" class="node">
<title>Node3</title>
<g id="a_Node000003"><a xlink:href="../../d1/de2/server__cardzone_8cpp.html" target="_top" xlink:title=" ">
<polygon fill="white" stroke="#666666" points="324,-129 171,-129 171,-77 324,-77 324,-129"/>
<text text-anchor="start" x="179" y="-117" font-family="Helvetica,sans-Serif" font-size="10.00">libcockatrice_network</text>
<text text-anchor="start" x="179" y="-106" font-family="Helvetica,sans-Serif" font-size="10.00">/libcockatrice/network</text>
<text text-anchor="start" x="179" y="-95" font-family="Helvetica,sans-Serif" font-size="10.00">/server/remote/game/server</text>
<text text-anchor="middle" x="247.5" y="-84" font-family="Helvetica,sans-Serif" font-size="10.00">_cardzone.cpp</text>
</a>
</g>
</g>
<!-- Node1&#45;&gt;Node3 -->
<g id="edge2_Node000001_Node000003" class="edge">
<title>Node1&#45;&gt;Node3</title>
<g id="a_edge2_Node000001_Node000003"><a xlink:title=" ">
<path fill="none" stroke="#63b8ff" d="M508.38,-164.65C456.95,-155.63 390.71,-143.06 332.5,-129 329.81,-128.35 327.08,-127.67 324.32,-126.96"/>
<polygon fill="#63b8ff" stroke="#63b8ff" points="513.31,-165.51 508,-166.87 510.85,-165.08 508.39,-164.65 508.39,-164.65 508.39,-164.65 510.85,-165.08 508.78,-162.44 513.31,-165.51 513.31,-165.51"/>
</a>
</g>
</g>
<!-- Node4 -->
<g id="Node000004" class="node">
<title>Node4</title>
<g id="a_Node000004"><a xlink:href="../../d9/dfe/server__player_8cpp.html" target="_top" xlink:title=" ">
<polygon fill="white" stroke="#666666" points="495,-129 342,-129 342,-77 495,-77 495,-129"/>
<text text-anchor="start" x="350" y="-117" font-family="Helvetica,sans-Serif" font-size="10.00">libcockatrice_network</text>
<text text-anchor="start" x="350" y="-106" font-family="Helvetica,sans-Serif" font-size="10.00">/libcockatrice/network</text>
<text text-anchor="start" x="350" y="-95" font-family="Helvetica,sans-Serif" font-size="10.00">/server/remote/game/server</text>
<text text-anchor="middle" x="418.5" y="-84" font-family="Helvetica,sans-Serif" font-size="10.00">_player.cpp</text>
</a>
</g>
</g>
<!-- Node1&#45;&gt;Node4 -->
<g id="edge3_Node000001_Node000004" class="edge">
<title>Node1&#45;&gt;Node4</title>
<g id="a_edge3_Node000001_Node000004"><a xlink:title=" ">
<path fill="none" stroke="#63b8ff" d="M557.37,-162.84C534.17,-153.01 504.05,-140.25 477.8,-129.13"/>
<polygon fill="#63b8ff" stroke="#63b8ff" points="562.21,-164.89 556.73,-165.01 559.91,-163.92 557.6,-162.94 557.6,-162.94 557.6,-162.94 559.91,-163.92 558.48,-160.87 562.21,-164.89 562.21,-164.89"/>
</a>
</g>
</g>
<!-- Node5 -->
<g id="Node000005" class="node">
<title>Node5</title>
<g id="a_Node000005"><a xlink:href="../../d5/d12/rng__abstract_8cpp.html" target="_top" xlink:title=" ">
<polygon fill="white" stroke="#666666" points="677.5,-118 513.5,-118 513.5,-88 677.5,-88 677.5,-118"/>
<text text-anchor="start" x="521.5" y="-106" font-family="Helvetica,sans-Serif" font-size="10.00">libcockatrice_rng/libcockatrice</text>
<text text-anchor="middle" x="595.5" y="-95" font-family="Helvetica,sans-Serif" font-size="10.00">/rng/rng_abstract.cpp</text>
</a>
</g>
</g>
<!-- Node1&#45;&gt;Node5 -->
<g id="edge4_Node000001_Node000005" class="edge">
<title>Node1&#45;&gt;Node5</title>
<g id="a_edge4_Node000001_Node000005"><a xlink:title=" ">
<path fill="none" stroke="#63b8ff" d="M595.5,-159.58C595.5,-146.58 595.5,-129.76 595.5,-118.04"/>
<polygon fill="#63b8ff" stroke="#63b8ff" points="595.5,-164.89 593.25,-159.89 595.5,-162.39 595.5,-159.89 595.5,-159.89 595.5,-159.89 595.5,-162.39 597.75,-159.89 595.5,-164.89 595.5,-164.89"/>
</a>
</g>
</g>
<!-- Node6 -->
<g id="Node000006" class="node">
<title>Node6</title>
<g id="a_Node000006"><a xlink:href="../../d3/dfe/rng__sfmt_8h.html" target="_top" xlink:title=" ">
<polygon fill="white" stroke="#666666" points="859.5,-118 695.5,-118 695.5,-88 859.5,-88 859.5,-118"/>
<text text-anchor="start" x="703.5" y="-106" font-family="Helvetica,sans-Serif" font-size="10.00">libcockatrice_rng/libcockatrice</text>
<text text-anchor="middle" x="777.5" y="-95" font-family="Helvetica,sans-Serif" font-size="10.00">/rng/rng_sfmt.h</text>
</a>
</g>
</g>
<!-- Node1&#45;&gt;Node6 -->
<g id="edge5_Node000001_Node000006" class="edge">
<title>Node1&#45;&gt;Node6</title>
<g id="a_edge5_Node000001_Node000006"><a xlink:title=" ">
<path fill="none" stroke="#63b8ff" d="M634.41,-162.97C666.8,-149.62 712.46,-130.8 743.42,-118.04"/>
<polygon fill="#63b8ff" stroke="#63b8ff" points="629.73,-164.89 633.5,-160.91 632.04,-163.94 634.36,-162.99 634.36,-162.99 634.36,-162.99 632.04,-163.94 635.21,-165.07 629.73,-164.89 629.73,-164.89"/>
</a>
</g>
</g>
<!-- Node11 -->
<g id="Node000011" class="node">
<title>Node11</title>
<g id="a_Node000011"><a xlink:href="../../d5/d3d/password__hash__test_8cpp.html" target="_top" xlink:title=" ">
<polygon fill="white" stroke="#666666" points="1051,-35.5 932,-35.5 932,-5.5 1051,-5.5 1051,-35.5"/>
<text text-anchor="start" x="940" y="-23.5" font-family="Helvetica,sans-Serif" font-size="10.00">tests/password_hash</text>
<text text-anchor="middle" x="991.5" y="-12.5" font-family="Helvetica,sans-Serif" font-size="10.00">_test.cpp</text>
</a>
</g>
</g>
<!-- Node1&#45;&gt;Node11 -->
<g id="edge12_Node000001_Node000011" class="edge">
<title>Node1&#45;&gt;Node11</title>
<g id="a_edge12_Node000001_Node000011"><a xlink:title=" ">
<path fill="none" stroke="#63b8ff" d="M682.95,-170.08C750.75,-161.86 838.12,-148.06 868.5,-129 892.75,-113.78 885.73,-96.7 906.5,-77 924.02,-60.38 947.13,-45.66 964.83,-35.56"/>
<polygon fill="#63b8ff" stroke="#63b8ff" points="677.69,-170.71 682.39,-167.88 680.17,-170.41 682.66,-170.11 682.66,-170.11 682.66,-170.11 680.17,-170.41 682.92,-172.35 677.69,-170.71 677.69,-170.71"/>
</a>
</g>
</g>
<!-- Node12 -->
<g id="Node000012" class="node">
<title>Node12</title>
<g id="a_Node000012"><a xlink:href="../../da/d2a/reverse__card__move__test_8cpp.html" target="_top" xlink:title=" ">
<polygon fill="white" stroke="#666666" points="1075.5,-118 915.5,-118 915.5,-88 1075.5,-88 1075.5,-118"/>
<text text-anchor="start" x="923.5" y="-106" font-family="Helvetica,sans-Serif" font-size="10.00">tests/movecard_tests</text>
<text text-anchor="middle" x="995.5" y="-95" font-family="Helvetica,sans-Serif" font-size="10.00">/reverse_card_move_test.cpp</text>
</a>
</g>
</g>
<!-- Node1&#45;&gt;Node12 -->
<g id="edge11_Node000001_Node000012" class="edge">
<title>Node1&#45;&gt;Node12</title>
<g id="a_edge11_Node000001_Node000012"><a xlink:title=" ">
<path fill="none" stroke="#63b8ff" d="M682.86,-167.05C744.3,-158.08 828.29,-144.68 901.5,-129 916.2,-125.85 932.04,-121.87 946.45,-118.02"/>
<polygon fill="#63b8ff" stroke="#63b8ff" points="677.73,-167.8 682.36,-164.85 680.21,-167.44 682.68,-167.08 682.68,-167.08 682.68,-167.08 680.21,-167.44 683,-169.3 677.73,-167.8 677.73,-167.8"/>
</a>
</g>
</g>
<!-- Node7 -->
<g id="Node000007" class="node">
<title>Node7</title>
<g id="a_Node000007"><a xlink:href="../../d8/da8/cockatrice_2src_2main_8cpp.html" target="_top" xlink:title=" ">
<polygon fill="white" stroke="#666666" points="445,-30 314,-30 314,-11 445,-11 445,-30"/>
<text text-anchor="middle" x="379.5" y="-18" font-family="Helvetica,sans-Serif" font-size="10.00">cockatrice/src/main.cpp</text>
</a>
</g>
</g>
<!-- Node6&#45;&gt;Node7 -->
<g id="edge6_Node000006_Node000007" class="edge">
<title>Node6&#45;&gt;Node7</title>
<g id="a_edge6_Node000006_Node000007"><a xlink:title=" ">
<path fill="none" stroke="#63b8ff" d="M725.52,-86.62C712.82,-83.17 699.23,-79.73 686.5,-77 584.47,-55.14 556.68,-62.16 454.5,-41 439.61,-37.92 423.26,-33.76 409.63,-30.07"/>
<polygon fill="#63b8ff" stroke="#63b8ff" points="730.52,-87.99 725.1,-88.84 728.11,-87.33 725.7,-86.67 725.7,-86.67 725.7,-86.67 728.11,-87.33 726.29,-84.5 730.52,-87.99 730.52,-87.99"/>
</a>
</g>
</g>
<!-- Node8 -->
<g id="Node000008" class="node">
<title>Node8</title>
<g id="a_Node000008"><a xlink:href="../../d6/d7d/rng__sfmt_8cpp.html" target="_top" xlink:title=" ">
<polygon fill="white" stroke="#666666" points="627.5,-35.5 463.5,-35.5 463.5,-5.5 627.5,-5.5 627.5,-35.5"/>
<text text-anchor="start" x="471.5" y="-23.5" font-family="Helvetica,sans-Serif" font-size="10.00">libcockatrice_rng/libcockatrice</text>
<text text-anchor="middle" x="545.5" y="-12.5" font-family="Helvetica,sans-Serif" font-size="10.00">/rng/rng_sfmt.cpp</text>
</a>
</g>
</g>
<!-- Node6&#45;&gt;Node8 -->
<g id="edge7_Node000006_Node000008" class="edge">
<title>Node6&#45;&gt;Node8</title>
<g id="a_edge7_Node000006_Node000008"><a xlink:title=" ">
<path fill="none" stroke="#63b8ff" d="M732.28,-86.31C689.89,-71.6 627.09,-49.81 586.23,-35.63"/>
<polygon fill="#63b8ff" stroke="#63b8ff" points="737.09,-87.98 731.63,-88.46 734.73,-87.16 732.36,-86.34 732.36,-86.34 732.36,-86.34 734.73,-87.16 733.1,-84.21 737.09,-87.98 737.09,-87.98"/>
</a>
</g>
</g>
<!-- Node9 -->
<g id="Node000009" class="node">
<title>Node9</title>
<g id="a_Node000009"><a xlink:href="../../dc/df0/passwordhasher_8cpp.html" target="_top" xlink:title=" ">
<polygon fill="white" stroke="#666666" points="765,-41 646,-41 646,0 765,0 765,-41"/>
<text text-anchor="start" x="654" y="-29" font-family="Helvetica,sans-Serif" font-size="10.00">libcockatrice_utility</text>
<text text-anchor="start" x="654" y="-18" font-family="Helvetica,sans-Serif" font-size="10.00">/libcockatrice/utility</text>
<text text-anchor="middle" x="705.5" y="-7" font-family="Helvetica,sans-Serif" font-size="10.00">/passwordhasher.cpp</text>
</a>
</g>
</g>
<!-- Node6&#45;&gt;Node9 -->
<g id="edge8_Node000006_Node000009" class="edge">
<title>Node6&#45;&gt;Node9</title>
<g id="a_edge8_Node000006_Node000009"><a xlink:title=" ">
<path fill="none" stroke="#63b8ff" d="M761.55,-84.17C750.14,-71.41 734.78,-54.23 723.02,-41.09"/>
<polygon fill="#63b8ff" stroke="#63b8ff" points="764.96,-87.98 759.95,-85.75 763.29,-86.11 761.63,-84.25 761.63,-84.25 761.63,-84.25 763.29,-86.11 763.3,-82.75 764.96,-87.98 764.96,-87.98"/>
</a>
</g>
</g>
<!-- Node10 -->
<g id="Node000010" class="node">
<title>Node10</title>
<g id="a_Node000010"><a xlink:href="../../d0/d8b/servatrice_2src_2main_8cpp.html" target="_top" xlink:title=" ">
<polygon fill="white" stroke="#666666" points="914,-30 783,-30 783,-11 914,-11 914,-30"/>
<text text-anchor="middle" x="848.5" y="-18" font-family="Helvetica,sans-Serif" font-size="10.00">servatrice/src/main.cpp</text>
</a>
</g>
</g>
<!-- Node6&#45;&gt;Node10 -->
<g id="edge9_Node000006_Node000010" class="edge">
<title>Node6&#45;&gt;Node10</title>
<g id="a_edge9_Node000006_Node000010"><a xlink:title=" ">
<path fill="none" stroke="#63b8ff" d="M793.45,-83.91C808.15,-67.25 829.34,-43.22 840.66,-30.38"/>
<polygon fill="#63b8ff" stroke="#63b8ff" points="789.87,-87.98 791.49,-82.74 791.52,-86.1 793.17,-84.23 793.17,-84.23 793.17,-84.23 791.52,-86.1 794.86,-85.72 789.87,-87.98 789.87,-87.98"/>
</a>
</g>
</g>
<!-- Node6&#45;&gt;Node11 -->
<g id="edge10_Node000006_Node000011" class="edge">
<title>Node6&#45;&gt;Node11</title>
<g id="a_edge10_Node000006_Node000011"><a xlink:title=" ">
<path fill="none" stroke="#63b8ff" d="M819.93,-86.04C859.01,-71.34 916.47,-49.72 953.93,-35.63"/>
<polygon fill="#63b8ff" stroke="#63b8ff" points="814.78,-87.98 818.66,-84.11 817.12,-87.1 819.46,-86.22 819.46,-86.22 819.46,-86.22 817.12,-87.1 820.25,-88.32 814.78,-87.98 814.78,-87.98"/>
</a>
</g>
</g>
</g>
</svg>
