<?xml version="1.0" encoding="UTF-8" standalone="no"?>
<!DOCTYPE svg PUBLIC "-//W3C//DTD SVG 1.1//EN"
 "http://www.w3.org/Graphics/SVG/1.1/DTD/svg11.dtd">
<!-- Generated by graphviz version 2.43.0 (0)
 -->
<!-- Title: cockatrice/src/interface/window_main.h Pages: 1 -->
<svg width="977pt" height="159pt"
 viewBox="0.00 0.00 976.50 159.00" xmlns="http://www.w3.org/2000/svg" xmlns:xlink="http://www.w3.org/1999/xlink">
<g id="graph0" class="graph" transform="scale(1 1) rotate(0) translate(4 155)">
<title>cockatrice/src/interface/window_main.h</title>
<!-- Node1 -->
<g id="Node000001" class="node">
<title>Node1</title>
<g id="a_Node000001"><a xlink:title="TODO: Document this.">
<polygon fill="#999999" stroke="#666666" points="599,-151 469,-151 469,-121 599,-121 599,-151"/>
<text text-anchor="start" x="477" y="-139" font-family="Helvetica,sans-Serif" font-size="10.00">cockatrice/src/interface</text>
<text text-anchor="middle" x="534" y="-128" font-family="Helvetica,sans-Serif" font-size="10.00">/window_main.h</text>
</a>
</g>
</g>
<!-- Node2 -->
<g id="Node000002" class="node">
<title>Node2</title>
<g id="a_Node000002"><a xlink:href="../../d5/db3/abstract__client_8h.html" target="_top" xlink:title="TODO: Document this.">
<polygon fill="white" stroke="#666666" points="288.5,-85 189.5,-85 189.5,-55 288.5,-55 288.5,-85"/>
<text text-anchor="start" x="197.5" y="-73" font-family="Helvetica,sans-Serif" font-size="10.00">../server/abstract</text>
<text text-anchor="middle" x="239" y="-62" font-family="Helvetica,sans-Serif" font-size="10.00">_client.h</text>
</a>
</g>
</g>
<!-- Node1&#45;&gt;Node2 -->
<g id="edge1_Node000001_Node000002" class="edge">
<title>Node1&#45;&gt;Node2</title>
<g id="a_edge1_Node000001_Node000002"><a xlink:title=" ">
<path fill="none" stroke="#63b8ff" d="M468.8,-121.63C421.36,-111.79 355.62,-97.94 298,-85 296.56,-84.68 295.09,-84.34 293.62,-84.01"/>
<polygon fill="#63b8ff" stroke="#63b8ff" points="288.55,-82.85 293.93,-81.77 290.99,-83.41 293.43,-83.97 293.43,-83.97 293.43,-83.97 290.99,-83.41 292.93,-86.16 288.55,-82.85 288.55,-82.85"/>
</a>
</g>
</g>
<!-- Node3 -->
<g id="Node000003" class="node">
<title>Node3</title>
<g id="a_Node000003"><a xlink:title=" ">
<polygon fill="#e0e0e0" stroke="#999999" points="100,-19 0,-19 0,0 100,0 100,-19"/>
<text text-anchor="middle" x="50" y="-7" font-family="Helvetica,sans-Serif" font-size="10.00">pb/response.pb.h</text>
</a>
</g>
</g>
<!-- Node1&#45;&gt;Node3 -->
<g id="edge7_Node000001_Node000003" class="edge">
<title>Node1&#45;&gt;Node3</title>
<g id="a_edge7_Node000001_Node000003"><a xlink:title=" ">
<path fill="none" stroke="#63b8ff" d="M468.86,-133.06C396.72,-129.26 277.8,-118.04 181,-85 136.24,-69.73 89.38,-38.88 65.7,-22.07"/>
<polygon fill="#63b8ff" stroke="#63b8ff" points="61.55,-19.1 66.93,-20.18 63.59,-20.55 65.62,-22.01 65.62,-22.01 65.62,-22.01 63.59,-20.55 64.31,-23.84 61.55,-19.1 61.55,-19.1"/>
</a>
</g>
</g>
<!-- Node8 -->
<g id="Node000008" class="node">
<title>Node8</title>
<g id="a_Node000008"><a xlink:title=" ">
<polygon fill="#e0e0e0" stroke="#999999" points="347.5,-79.5 306.5,-79.5 306.5,-60.5 347.5,-60.5 347.5,-79.5"/>
<text text-anchor="middle" x="327" y="-67.5" font-family="Helvetica,sans-Serif" font-size="10.00">QList</text>
</a>
</g>
</g>
<!-- Node1&#45;&gt;Node8 -->
<g id="edge8_Node000001_Node000008" class="edge">
<title>Node1&#45;&gt;Node8</title>
<g id="a_edge8_Node000001_Node000008"><a xlink:title=" ">
<path fill="none" stroke="#63b8ff" d="M475.45,-121C440.6,-112.04 395.76,-99.41 357,-85 354.37,-84.02 351.66,-82.91 348.99,-81.75"/>
<polygon fill="#63b8ff" stroke="#63b8ff" points="344.25,-79.63 349.73,-79.62 346.53,-80.65 348.81,-81.67 348.81,-81.67 348.81,-81.67 346.53,-80.65 347.89,-83.72 344.25,-79.63 344.25,-79.63"/>
</a>
</g>
</g>
<!-- Node9 -->
<g id="Node000009" class="node">
<title>Node9</title>
<g id="a_Node000009"><a xlink:title=" ">
<polygon fill="#e0e0e0" stroke="#999999" points="472.5,-79.5 365.5,-79.5 365.5,-60.5 472.5,-60.5 472.5,-79.5"/>
<text text-anchor="middle" x="419" y="-67.5" font-family="Helvetica,sans-Serif" font-size="10.00">QLoggingCategory</text>
</a>
</g>
</g>
<!-- Node1&#45;&gt;Node9 -->
<g id="edge9_Node000001_Node000009" class="edge">
<title>Node1&#45;&gt;Node9</title>
<g id="a_edge9_Node000001_Node000009"><a xlink:title=" ">
<path fill="none" stroke="#63b8ff" d="M508.76,-120.95C487.8,-109.29 458.37,-92.91 439,-82.13"/>
<polygon fill="#63b8ff" stroke="#63b8ff" points="434.3,-79.52 439.77,-79.98 436.49,-80.73 438.67,-81.95 438.67,-81.95 438.67,-81.95 436.49,-80.73 437.58,-83.91 434.3,-79.52 434.3,-79.52"/>
</a>
</g>
</g>
<!-- Node10 -->
<g id="Node000010" class="node">
<title>Node10</title>
<g id="a_Node000010"><a xlink:title=" ">
<polygon fill="#e0e0e0" stroke="#999999" points="577.5,-79.5 490.5,-79.5 490.5,-60.5 577.5,-60.5 577.5,-79.5"/>
<text text-anchor="middle" x="534" y="-67.5" font-family="Helvetica,sans-Serif" font-size="10.00">QMainWindow</text>
</a>
</g>
</g>
<!-- Node1&#45;&gt;Node10 -->
<g id="edge10_Node000001_Node000010" class="edge">
<title>Node1&#45;&gt;Node10</title>
<g id="a_edge10_Node000001_Node000010"><a xlink:title=" ">
<path fill="none" stroke="#63b8ff" d="M534,-120.8C534,-110.13 534,-95.61 534,-85"/>
<polygon fill="#63b8ff" stroke="#63b8ff" points="534,-79.84 536.25,-84.84 534,-82.34 534,-84.84 534,-84.84 534,-84.84 534,-82.34 531.75,-84.84 534,-79.84 534,-79.84"/>
</a>
</g>
</g>
<!-- Node11 -->
<g id="Node000011" class="node">
<title>Node11</title>
<g id="a_Node000011"><a xlink:title=" ">
<polygon fill="#e0e0e0" stroke="#999999" points="682,-79.5 596,-79.5 596,-60.5 682,-60.5 682,-79.5"/>
<text text-anchor="middle" x="639" y="-67.5" font-family="Helvetica,sans-Serif" font-size="10.00">QMessageBox</text>
</a>
</g>
</g>
<!-- Node1&#45;&gt;Node11 -->
<g id="edge11_Node000001_Node000011" class="edge">
<title>Node1&#45;&gt;Node11</title>
<g id="a_edge11_Node000001_Node000011"><a xlink:title=" ">
<path fill="none" stroke="#63b8ff" d="M557.04,-120.95C576.19,-109.29 603.06,-92.91 620.74,-82.13"/>
<polygon fill="#63b8ff" stroke="#63b8ff" points="625.03,-79.52 621.93,-84.04 622.89,-80.82 620.76,-82.12 620.76,-82.12 620.76,-82.12 622.89,-80.82 619.59,-80.2 625.03,-79.52 625.03,-79.52"/>
</a>
</g>
</g>
<!-- Node12 -->
<g id="Node000012" class="node">
<title>Node12</title>
<g id="a_Node000012"><a xlink:title=" ">
<polygon fill="#e0e0e0" stroke="#999999" points="762,-79.5 700,-79.5 700,-60.5 762,-60.5 762,-79.5"/>
<text text-anchor="middle" x="731" y="-67.5" font-family="Helvetica,sans-Serif" font-size="10.00">QProcess</text>
</a>
</g>
</g>
<!-- Node1&#45;&gt;Node12 -->
<g id="edge12_Node000001_Node000012" class="edge">
<title>Node1&#45;&gt;Node12</title>
<g id="a_edge12_Node000001_Node000012"><a xlink:title=" ">
<path fill="none" stroke="#63b8ff" d="M579.46,-120.9C610.86,-111.06 653.56,-97.51 691,-85 694.63,-83.79 698.44,-82.49 702.2,-81.19"/>
<polygon fill="#63b8ff" stroke="#63b8ff" points="706.92,-79.55 702.94,-83.32 704.56,-80.37 702.2,-81.19 702.2,-81.19 702.2,-81.19 704.56,-80.37 701.46,-79.06 706.92,-79.55 706.92,-79.55"/>
</a>
</g>
</g>
<!-- Node13 -->
<g id="Node000013" class="node">
<title>Node13</title>
<g id="a_Node000013"><a xlink:title=" ">
<polygon fill="#e0e0e0" stroke="#999999" points="881.5,-79.5 780.5,-79.5 780.5,-60.5 881.5,-60.5 881.5,-79.5"/>
<text text-anchor="middle" x="831" y="-67.5" font-family="Helvetica,sans-Serif" font-size="10.00">QSystemTrayIcon</text>
</a>
</g>
</g>
<!-- Node1&#45;&gt;Node13 -->
<g id="edge13_Node000001_Node000013" class="edge">
<title>Node1&#45;&gt;Node13</title>
<g id="a_edge13_Node000001_Node000013"><a xlink:title=" ">
<path fill="none" stroke="#63b8ff" d="M599.21,-121.63C646.87,-111.77 713.02,-97.88 771,-85 777.04,-83.66 783.41,-82.21 789.65,-80.77"/>
<polygon fill="#63b8ff" stroke="#63b8ff" points="794.86,-79.56 790.49,-82.88 792.42,-80.13 789.99,-80.69 789.99,-80.69 789.99,-80.69 792.42,-80.13 789.48,-78.5 794.86,-79.56 794.86,-79.56"/>
</a>
</g>
</g>
<!-- Node14 -->
<g id="Node000014" class="node">
<title>Node14</title>
<g id="a_Node000014"><a xlink:title=" ">
<polygon fill="#e0e0e0" stroke="#999999" points="968.5,-79.5 899.5,-79.5 899.5,-60.5 968.5,-60.5 968.5,-79.5"/>
<text text-anchor="middle" x="934" y="-67.5" font-family="Helvetica,sans-Serif" font-size="10.00">QtNetwork</text>
</a>
</g>
</g>
<!-- Node1&#45;&gt;Node14 -->
<g id="edge14_Node000001_Node000014" class="edge">
<title>Node1&#45;&gt;Node14</title>
<g id="a_edge14_Node000001_Node000014"><a xlink:title=" ">
<path fill="none" stroke="#63b8ff" d="M599.12,-129.35C671.16,-122.29 790.38,-108.24 891,-85 895.61,-83.94 900.43,-82.6 905.1,-81.17"/>
<polygon fill="#63b8ff" stroke="#63b8ff" points="910.1,-79.6 906.01,-83.25 907.72,-80.35 905.33,-81.1 905.33,-81.1 905.33,-81.1 907.72,-80.35 904.66,-78.95 910.1,-79.6 910.1,-79.6"/>
</a>
</g>
</g>
<!-- Node2&#45;&gt;Node3 -->
<g id="edge2_Node000002_Node000003" class="edge">
<title>Node2&#45;&gt;Node3</title>
<g id="a_edge2_Node000002_Node000003"><a xlink:title=" ">
<path fill="none" stroke="#63b8ff" d="M193.73,-54.99C159.42,-44.37 113.09,-30.03 82.42,-20.53"/>
<polygon fill="#63b8ff" stroke="#63b8ff" points="77.63,-19.05 83.08,-18.38 80.02,-19.79 82.41,-20.53 82.41,-20.53 82.41,-20.53 80.02,-19.79 81.75,-22.68 77.63,-19.05 77.63,-19.05"/>
</a>
</g>
</g>
<!-- Node4 -->
<g id="Node000004" class="node">
<title>Node4</title>
<g id="a_Node000004"><a xlink:title=" ">
<polygon fill="#e0e0e0" stroke="#999999" points="249.5,-19 118.5,-19 118.5,0 249.5,0 249.5,-19"/>
<text text-anchor="middle" x="184" y="-7" font-family="Helvetica,sans-Serif" font-size="10.00">pb/serverinfo_user.pb.h</text>
</a>
</g>
</g>
<!-- Node2&#45;&gt;Node4 -->
<g id="edge3_Node000002_Node000004" class="edge">
<title>Node2&#45;&gt;Node4</title>
<g id="a_edge3_Node000002_Node000004"><a xlink:title=" ">
<path fill="none" stroke="#63b8ff" d="M225.69,-54.84C216.56,-45.13 204.57,-32.38 195.79,-23.04"/>
<polygon fill="#63b8ff" stroke="#63b8ff" points="192.24,-19.27 197.31,-21.37 193.95,-21.09 195.67,-22.91 195.67,-22.91 195.67,-22.91 193.95,-21.09 194.03,-24.45 192.24,-19.27 192.24,-19.27"/>
</a>
</g>
</g>
<!-- Node5 -->
<g id="Node000005" class="node">
<title>Node5</title>
<g id="a_Node000005"><a xlink:title=" ">
<polygon fill="#e0e0e0" stroke="#999999" points="322.5,-19 267.5,-19 267.5,0 322.5,0 322.5,-19"/>
<text text-anchor="middle" x="295" y="-7" font-family="Helvetica,sans-Serif" font-size="10.00">QMutex</text>
</a>
</g>
</g>
<!-- Node2&#45;&gt;Node5 -->
<g id="edge4_Node000002_Node000005" class="edge">
<title>Node2&#45;&gt;Node5</title>
<g id="a_edge4_Node000002_Node000005"><a xlink:title=" ">
<path fill="none" stroke="#63b8ff" d="M252.56,-54.84C261.85,-45.13 274.06,-32.38 283,-23.04"/>
<polygon fill="#63b8ff" stroke="#63b8ff" points="286.61,-19.27 284.78,-24.43 284.88,-21.07 283.15,-22.88 283.15,-22.88 283.15,-22.88 284.88,-21.07 281.53,-21.32 286.61,-19.27 286.61,-19.27"/>
</a>
</g>
</g>
<!-- Node6 -->
<g id="Node000006" class="node">
<title>Node6</title>
<g id="a_Node000006"><a xlink:title=" ">
<polygon fill="#e0e0e0" stroke="#999999" points="397,-19 341,-19 341,0 397,0 397,-19"/>
<text text-anchor="middle" x="369" y="-7" font-family="Helvetica,sans-Serif" font-size="10.00">QObject</text>
</a>
</g>
</g>
<!-- Node2&#45;&gt;Node6 -->
<g id="edge5_Node000002_Node000006" class="edge">
<title>Node2&#45;&gt;Node6</title>
<g id="a_edge5_Node000002_Node000006"><a xlink:title=" ">
<path fill="none" stroke="#63b8ff" d="M270.14,-54.99C293.18,-44.62 324.11,-30.7 345.19,-21.21"/>
<polygon fill="#63b8ff" stroke="#63b8ff" points="349.8,-19.14 346.17,-23.24 347.52,-20.17 345.24,-21.19 345.24,-21.19 345.24,-21.19 347.52,-20.17 344.32,-19.14 349.8,-19.14 349.8,-19.14"/>
</a>
</g>
</g>
<!-- Node7 -->
<g id="Node000007" class="node">
<title>Node7</title>
<g id="a_Node000007"><a xlink:title=" ">
<polygon fill="#e0e0e0" stroke="#999999" points="474.5,-19 415.5,-19 415.5,0 474.5,0 474.5,-19"/>
<text text-anchor="middle" x="445" y="-7" font-family="Helvetica,sans-Serif" font-size="10.00">QVariant</text>
</a>
</g>
</g>
<!-- Node2&#45;&gt;Node7 -->
<g id="edge6_Node000002_Node000007" class="edge">
<title>Node2&#45;&gt;Node7</title>
<g id="a_edge6_Node000002_Node000007"><a xlink:title=" ">
<path fill="none" stroke="#63b8ff" d="M288.34,-54.99C325.97,-44.3 376.84,-29.86 410.27,-20.36"/>
<polygon fill="#63b8ff" stroke="#63b8ff" points="415.48,-18.88 411.28,-22.41 413.07,-19.57 410.67,-20.25 410.67,-20.25 410.67,-20.25 413.07,-19.57 410.05,-18.08 415.48,-18.88 415.48,-18.88"/>
</a>
</g>
</g>
</g>
</svg>
