<?xml version="1.0" encoding="UTF-8" standalone="no"?>
<!DOCTYPE svg PUBLIC "-//W3C//DTD SVG 1.1//EN"
 "http://www.w3.org/Graphics/SVG/1.1/DTD/svg11.dtd">
<!-- Generated by graphviz version 2.43.0 (0)
 -->
<!-- Title: Servatrice::setRequiredFeatures Pages: 1 -->
<svg width="385pt" height="76pt"
 viewBox="0.00 0.00 385.00 75.50" xmlns="http://www.w3.org/2000/svg" xmlns:xlink="http://www.w3.org/1999/xlink">
<g id="graph0" class="graph" transform="scale(1 1) rotate(0) translate(4 71.5)">
<title>Servatrice::setRequiredFeatures</title>
<!-- Node1 -->
<g id="Node000001" class="node">
<title>Node1</title>
<g id="a_Node000001"><a xlink:title=" ">
<polygon fill="#999999" stroke="#666666" points="173,-40 0,-40 0,-21 173,-21 173,-40"/>
<text text-anchor="middle" x="86.5" y="-28" font-family="Helvetica,sans-Serif" font-size="10.00">Servatrice::setRequiredFeatures</text>
</a>
</g>
</g>
<!-- Node2 -->
<g id="Node000002" class="node">
<title>Node2</title>
<g id="a_Node000002"><a xlink:href="../../d1/dfd/classFeatureSet.html#a904078f09603e856aa00f4de22508e9c" target="_top" xlink:title=" ">
<polygon fill="white" stroke="#666666" points="369,-67.5 217,-67.5 217,-37.5 369,-37.5 369,-67.5"/>
<text text-anchor="start" x="225" y="-55.5" font-family="Helvetica,sans-Serif" font-size="10.00">FeatureSet::enableRequired</text>
<text text-anchor="middle" x="293" y="-44.5" font-family="Helvetica,sans-Serif" font-size="10.00">Feature</text>
</a>
</g>
</g>
<!-- Node1&#45;&gt;Node2 -->
<g id="edge1_Node000001_Node000002" class="edge">
<title>Node1&#45;&gt;Node2</title>
<g id="a_edge1_Node000001_Node000002"><a xlink:title=" ">
<path fill="none" stroke="#63b8ff" d="M173.04,-39.7C185.89,-41.09 199.11,-42.51 211.84,-43.88"/>
<polygon fill="#63b8ff" stroke="#63b8ff" points="216.88,-44.42 211.67,-46.12 214.4,-44.15 211.91,-43.88 211.91,-43.88 211.91,-43.88 214.4,-44.15 212.15,-41.65 216.88,-44.42 216.88,-44.42"/>
</a>
</g>
</g>
<!-- Node3 -->
<g id="Node000003" class="node">
<title>Node3</title>
<g id="a_Node000003"><a xlink:href="../../d1/dfd/classFeatureSet.html#a99a6d70530dc8ded9b87dae575088974" target="_top" xlink:title=" ">
<polygon fill="white" stroke="#666666" points="377,-19 209,-19 209,0 377,0 377,-19"/>
<text text-anchor="middle" x="293" y="-7" font-family="Helvetica,sans-Serif" font-size="10.00">FeatureSet::initalizeFeatureList</text>
</a>
</g>
</g>
<!-- Node1&#45;&gt;Node3 -->
<g id="edge2_Node000001_Node000003" class="edge">
<title>Node1&#45;&gt;Node3</title>
<g id="a_edge2_Node000001_Node000003"><a xlink:title=" ">
<path fill="none" stroke="#63b8ff" d="M173.04,-21.72C183.2,-20.67 193.58,-19.61 203.78,-18.56"/>
<polygon fill="#63b8ff" stroke="#63b8ff" points="208.77,-18.05 204.02,-20.8 206.28,-18.3 203.79,-18.56 203.79,-18.56 203.79,-18.56 206.28,-18.3 203.56,-16.32 208.77,-18.05 208.77,-18.05"/>
</a>
</g>
</g>
</g>
</svg>
