<?xml version="1.0" encoding="UTF-8" standalone="no"?>
<!DOCTYPE svg PUBLIC "-//W3C//DTD SVG 1.1//EN"
 "http://www.w3.org/Graphics/SVG/1.1/DTD/svg11.dtd">
<!-- Generated by graphviz version 2.43.0 (0)
 -->
<!-- Title: Servatrice::getServerID Pages: 1 -->
<svg width="982pt" height="505pt"
 viewBox="0.00 0.00 982.00 504.90" xmlns="http://www.w3.org/2000/svg" xmlns:xlink="http://www.w3.org/1999/xlink">
<g id="graph0" class="graph" transform="scale(1 1) rotate(0) translate(4 500.9)">
<title>Servatrice::getServerID</title>
<!-- Node1 -->
<g id="Node000001" class="node">
<title>Node1</title>
<g id="a_Node000001"><a xlink:title=" ">
<polygon fill="#999999" stroke="#666666" points="974,-158.5 844,-158.5 844,-139.5 974,-139.5 974,-158.5"/>
<text text-anchor="middle" x="909" y="-146.5" font-family="Helvetica,sans-Serif" font-size="10.00">Servatrice::getServerID</text>
</a>
</g>
</g>
<!-- Node2 -->
<g id="Node000002" class="node">
<title>Node2</title>
<g id="a_Node000002"><a xlink:href="../../d3/d76/classServatrice__DatabaseInterface.html#ae7e553245fcea80e8efd98c0bf442ff5" target="_top" xlink:title=" ">
<polygon fill="white" stroke="#666666" points="808,-353 647,-353 647,-323 808,-323 808,-353"/>
<text text-anchor="start" x="655" y="-341" font-family="Helvetica,sans-Serif" font-size="10.00">Servatrice_DatabaseInterface</text>
<text text-anchor="middle" x="727.5" y="-330" font-family="Helvetica,sans-Serif" font-size="10.00">::addAuditRecord</text>
</a>
</g>
</g>
<!-- Node1&#45;&gt;Node2 -->
<g id="edge1_Node000001_Node000002" class="edge">
<title>Node1&#45;&gt;Node2</title>
<g id="a_edge1_Node000001_Node000002"><a xlink:title=" ">
<path fill="none" stroke="#63b8ff" d="M896.15,-162.47C877.64,-183.41 840.61,-224.9 808,-259 786.35,-281.64 760.48,-307.05 744.27,-322.79"/>
<polygon fill="#63b8ff" stroke="#63b8ff" points="899.6,-158.57 897.98,-163.8 897.94,-160.44 896.29,-162.31 896.29,-162.31 896.29,-162.31 897.94,-160.44 894.6,-160.82 899.6,-158.57 899.6,-158.57"/>
</a>
</g>
</g>
<!-- Node12 -->
<g id="Node000012" class="node">
<title>Node12</title>
<g id="a_Node000012"><a xlink:href="../../d3/d76/classServatrice__DatabaseInterface.html#af4df6701fd79e20df9e13bbe19f0f089" target="_top" xlink:title=" ">
<polygon fill="white" stroke="#666666" points="808,-250 647,-250 647,-220 808,-220 808,-250"/>
<text text-anchor="start" x="655" y="-238" font-family="Helvetica,sans-Serif" font-size="10.00">Servatrice_DatabaseInterface</text>
<text text-anchor="middle" x="727.5" y="-227" font-family="Helvetica,sans-Serif" font-size="10.00">::clearSessionTables</text>
</a>
</g>
</g>
<!-- Node1&#45;&gt;Node12 -->
<g id="edge18_Node000001_Node000012" class="edge">
<title>Node1&#45;&gt;Node12</title>
<g id="a_edge18_Node000001_Node000012"><a xlink:title=" ">
<path fill="none" stroke="#63b8ff" d="M888.91,-161.17C869.15,-173.45 837.16,-192.49 808,-206 797.2,-211 785.28,-215.74 774.02,-219.89"/>
<polygon fill="#63b8ff" stroke="#63b8ff" points="893.17,-158.51 890.12,-163.06 891.05,-159.83 888.93,-161.16 888.93,-161.16 888.93,-161.16 891.05,-159.83 887.74,-159.25 893.17,-158.51 893.17,-158.51"/>
</a>
</g>
</g>
<!-- Node13 -->
<g id="Node000013" class="node">
<title>Node13</title>
<g id="a_Node000013"><a xlink:href="../../d5/d0e/classServatrice.html#a02e7c7603e41e4819c3820e9336b3a3e" target="_top" xlink:title=" ">
<polygon fill="white" stroke="#666666" points="588.5,-201.5 469.5,-201.5 469.5,-182.5 588.5,-182.5 588.5,-201.5"/>
<text text-anchor="middle" x="529" y="-189.5" font-family="Helvetica,sans-Serif" font-size="10.00">Servatrice::initServer</text>
</a>
</g>
</g>
<!-- Node1&#45;&gt;Node13 -->
<g id="edge22_Node000001_Node000013" class="edge">
<title>Node1&#45;&gt;Node13</title>
<g id="a_edge22_Node000001_Node000013"><a xlink:title=" ">
<path fill="none" stroke="#63b8ff" d="M869.4,-159.86C850.96,-164.64 828.49,-169.86 808,-173 732.8,-184.51 645.09,-189.05 588.62,-190.84"/>
<polygon fill="#63b8ff" stroke="#63b8ff" points="874.49,-158.53 870.22,-161.97 872.07,-159.16 869.65,-159.79 869.65,-159.79 869.65,-159.79 872.07,-159.16 869.08,-157.62 874.49,-158.53 874.49,-158.53"/>
</a>
</g>
</g>
<!-- Node14 -->
<g id="Node000014" class="node">
<title>Node14</title>
<g id="a_Node000014"><a xlink:href="../../d3/d76/classServatrice__DatabaseInterface.html#a98aff5c68f5f10db47fb871564ecf25b" target="_top" xlink:title=" ">
<polygon fill="white" stroke="#666666" points="808,-164 647,-164 647,-134 808,-134 808,-164"/>
<text text-anchor="start" x="655" y="-152" font-family="Helvetica,sans-Serif" font-size="10.00">Servatrice_DatabaseInterface</text>
<text text-anchor="middle" x="727.5" y="-141" font-family="Helvetica,sans-Serif" font-size="10.00">::getActiveUserCount</text>
</a>
</g>
</g>
<!-- Node1&#45;&gt;Node14 -->
<g id="edge20_Node000001_Node000014" class="edge">
<title>Node1&#45;&gt;Node14</title>
<g id="a_edge20_Node000001_Node000014"><a xlink:title=" ">
<path fill="none" stroke="#63b8ff" d="M838.76,-149C828.76,-149 818.4,-149 808.21,-149"/>
<polygon fill="#63b8ff" stroke="#63b8ff" points="843.96,-149 838.96,-151.25 841.46,-149 838.96,-149 838.96,-149 838.96,-149 841.46,-149 838.96,-146.75 843.96,-149 843.96,-149"/>
</a>
</g>
</g>
<!-- Node15 -->
<g id="Node000015" class="node">
<title>Node15</title>
<g id="a_Node000015"><a xlink:href="../../d0/de8/classIslInterface.html#a9ce4eacbf440122d6f6fb24fa02b2835" target="_top" xlink:title=" ">
<polygon fill="white" stroke="#666666" points="790,-115.5 665,-115.5 665,-96.5 790,-96.5 790,-115.5"/>
<text text-anchor="middle" x="727.5" y="-103.5" font-family="Helvetica,sans-Serif" font-size="10.00">IslInterface::initServer</text>
</a>
</g>
</g>
<!-- Node1&#45;&gt;Node15 -->
<g id="edge21_Node000001_Node000015" class="edge">
<title>Node1&#45;&gt;Node15</title>
<g id="a_edge21_Node000001_Node000015"><a xlink:title=" ">
<path fill="none" stroke="#63b8ff" d="M862.86,-138.16C845.68,-134.03 825.94,-129.3 808,-125 795.17,-121.93 781.16,-118.58 768.54,-115.56"/>
<polygon fill="#63b8ff" stroke="#63b8ff" points="868.1,-139.41 862.71,-140.44 865.67,-138.83 863.24,-138.25 863.24,-138.25 863.24,-138.25 865.67,-138.83 863.76,-136.06 868.1,-139.41 868.1,-139.41"/>
</a>
</g>
</g>
<!-- Node16 -->
<g id="Node000016" class="node">
<title>Node16</title>
<g id="a_Node000016"><a xlink:href="../../d3/d76/classServatrice__DatabaseInterface.html#a2cea8122a6fa7c88874e6368df561a85" target="_top" xlink:title=" ">
<polygon fill="white" stroke="#666666" points="808,-78 647,-78 647,-48 808,-48 808,-78"/>
<text text-anchor="start" x="655" y="-66" font-family="Helvetica,sans-Serif" font-size="10.00">Servatrice_DatabaseInterface</text>
<text text-anchor="middle" x="727.5" y="-55" font-family="Helvetica,sans-Serif" font-size="10.00">::startSession</text>
</a>
</g>
</g>
<!-- Node1&#45;&gt;Node16 -->
<g id="edge23_Node000001_Node000016" class="edge">
<title>Node1&#45;&gt;Node16</title>
<g id="a_edge23_Node000001_Node000016"><a xlink:title=" ">
<path fill="none" stroke="#63b8ff" d="M890.89,-136.45C871.57,-122.74 838.81,-100.91 808,-87 800.77,-83.74 792.98,-80.77 785.2,-78.12"/>
<polygon fill="#63b8ff" stroke="#63b8ff" points="895.04,-139.41 889.66,-138.33 893,-137.95 890.97,-136.5 890.97,-136.5 890.97,-136.5 893,-137.95 892.28,-134.67 895.04,-139.41 895.04,-139.41"/>
</a>
</g>
</g>
<!-- Node17 -->
<g id="Node000017" class="node">
<title>Node17</title>
<g id="a_Node000017"><a xlink:href="../../d3/d76/classServatrice__DatabaseInterface.html#a3aab0c7a13115e5d2ff52046e31f4a82" target="_top" xlink:title=" ">
<polygon fill="white" stroke="#666666" points="808,-30 647,-30 647,0 808,0 808,-30"/>
<text text-anchor="start" x="655" y="-18" font-family="Helvetica,sans-Serif" font-size="10.00">Servatrice_DatabaseInterface</text>
<text text-anchor="middle" x="727.5" y="-7" font-family="Helvetica,sans-Serif" font-size="10.00">::userSessionExists</text>
</a>
</g>
</g>
<!-- Node1&#45;&gt;Node17 -->
<g id="edge24_Node000001_Node000017" class="edge">
<title>Node1&#45;&gt;Node17</title>
<g id="a_edge24_Node000001_Node000017"><a xlink:title=" ">
<path fill="none" stroke="#63b8ff" d="M899.14,-135.14C883.54,-111.83 848.92,-64.83 808,-39 802.64,-35.61 796.77,-32.68 790.73,-30.15"/>
<polygon fill="#63b8ff" stroke="#63b8ff" points="902,-139.47 897.37,-136.54 900.63,-137.38 899.25,-135.3 899.25,-135.3 899.25,-135.3 900.63,-137.38 901.12,-134.06 902,-139.47 902,-139.47"/>
</a>
</g>
</g>
<!-- Node3 -->
<g id="Node000003" class="node">
<title>Node3</title>
<g id="a_Node000003"><a xlink:href="../../dd/dea/classAbstractServerSocketInterface.html#acbf7073a5aa7254a07b13fde1ac5b472" target="_top" xlink:title=" ">
<polygon fill="white" stroke="#666666" points="611,-460 447,-460 447,-430 611,-430 611,-460"/>
<text text-anchor="start" x="455" y="-448" font-family="Helvetica,sans-Serif" font-size="10.00">AbstractServerSocketInterface</text>
<text text-anchor="middle" x="529" y="-437" font-family="Helvetica,sans-Serif" font-size="10.00">::cmdActivateAccount</text>
</a>
</g>
</g>
<!-- Node2&#45;&gt;Node3 -->
<g id="edge2_Node000002_Node000003" class="edge">
<title>Node2&#45;&gt;Node3</title>
<g id="a_edge2_Node000002_Node000003"><a xlink:title=" ">
<path fill="none" stroke="#63b8ff" d="M703.34,-356.2C680.75,-373.32 644.93,-398.81 611,-416 600.74,-421.2 589.32,-425.89 578.38,-429.92"/>
<polygon fill="#63b8ff" stroke="#63b8ff" points="707.4,-353.11 704.78,-357.93 705.41,-354.62 703.42,-356.14 703.42,-356.14 703.42,-356.14 705.41,-354.62 702.06,-354.35 707.4,-353.11 707.4,-353.11"/>
</a>
</g>
</g>
<!-- Node4 -->
<g id="Node000004" class="node">
<title>Node4</title>
<g id="a_Node000004"><a xlink:href="../../dd/dea/classAbstractServerSocketInterface.html#a2881e8a438fb6795e20563c2f88c32f1" target="_top" xlink:title=" ">
<polygon fill="white" stroke="#666666" points="408.5,-496 244.5,-496 244.5,-466 408.5,-466 408.5,-496"/>
<text text-anchor="start" x="252.5" y="-484" font-family="Helvetica,sans-Serif" font-size="10.00">AbstractServerSocketInterface</text>
<text text-anchor="middle" x="326.5" y="-473" font-family="Helvetica,sans-Serif" font-size="10.00">::cmdForceActivateUser</text>
</a>
</g>
</g>
<!-- Node2&#45;&gt;Node4 -->
<g id="edge6_Node000002_Node000004" class="edge">
<title>Node2&#45;&gt;Node4</title>
<g id="a_edge6_Node000002_Node000004"><a xlink:title=" ">
<path fill="none" stroke="#63b8ff" d="M715.95,-357.95C698.66,-388.31 661.13,-445.08 611,-469 547.87,-499.13 467.55,-499.52 408.53,-493.9"/>
<polygon fill="#63b8ff" stroke="#63b8ff" points="718.55,-353.32 718.07,-358.78 717.33,-355.5 716.11,-357.68 716.11,-357.68 716.11,-357.68 717.33,-355.5 714.14,-356.58 718.55,-353.32 718.55,-353.32"/>
</a>
</g>
</g>
<!-- Node7 -->
<g id="Node000007" class="node">
<title>Node7</title>
<g id="a_Node000007"><a xlink:href="../../dd/dea/classAbstractServerSocketInterface.html#a80bbb9176de96d50819977e94a77b50a" target="_top" xlink:title=" ">
<polygon fill="white" stroke="#666666" points="411,-389 242,-389 242,-359 411,-359 411,-389"/>
<text text-anchor="start" x="250" y="-377" font-family="Helvetica,sans-Serif" font-size="10.00">AbstractServerSocketInterface</text>
<text text-anchor="middle" x="326.5" y="-366" font-family="Helvetica,sans-Serif" font-size="10.00">::cmdForgotPasswordChallenge</text>
</a>
</g>
</g>
<!-- Node2&#45;&gt;Node7 -->
<g id="edge7_Node000002_Node000007" class="edge">
<title>Node2&#45;&gt;Node7</title>
<g id="a_edge7_Node000002_Node000007"><a xlink:title=" ">
<path fill="none" stroke="#63b8ff" d="M692.34,-355.19C669.86,-365.52 639.43,-377.66 611,-383 544.58,-395.48 467.89,-391.99 411.03,-386.07"/>
<polygon fill="#63b8ff" stroke="#63b8ff" points="697.01,-353.02 693.42,-357.17 694.74,-354.07 692.48,-355.12 692.48,-355.12 692.48,-355.12 694.74,-354.07 691.53,-353.08 697.01,-353.02 697.01,-353.02"/>
</a>
</g>
</g>
<!-- Node8 -->
<g id="Node000008" class="node">
<title>Node8</title>
<g id="a_Node000008"><a xlink:href="../../dd/dea/classAbstractServerSocketInterface.html#a9427490c50a0248c8c4f7edc36e56159" target="_top" xlink:title=" ">
<polygon fill="white" stroke="#666666" points="408.5,-341 244.5,-341 244.5,-311 408.5,-311 408.5,-341"/>
<text text-anchor="start" x="252.5" y="-329" font-family="Helvetica,sans-Serif" font-size="10.00">AbstractServerSocketInterface</text>
<text text-anchor="middle" x="326.5" y="-318" font-family="Helvetica,sans-Serif" font-size="10.00">::cmdForgotPasswordRequest</text>
</a>
</g>
</g>
<!-- Node2&#45;&gt;Node8 -->
<g id="edge9_Node000002_Node000008" class="edge">
<title>Node2&#45;&gt;Node8</title>
<g id="a_edge9_Node000002_Node000008"><a xlink:title=" ">
<path fill="none" stroke="#63b8ff" d="M641.39,-335.44C572.54,-333.37 476.24,-330.47 408.51,-328.44"/>
<polygon fill="#63b8ff" stroke="#63b8ff" points="646.72,-335.6 641.65,-337.7 644.22,-335.53 641.72,-335.45 641.72,-335.45 641.72,-335.45 644.22,-335.53 641.79,-333.2 646.72,-335.6 646.72,-335.6"/>
</a>
</g>
</g>
<!-- Node9 -->
<g id="Node000009" class="node">
<title>Node9</title>
<g id="a_Node000009"><a xlink:href="../../dd/dea/classAbstractServerSocketInterface.html#acfc7c63d6755bacc618b1bd1a6c0a1bb" target="_top" xlink:title=" ">
<polygon fill="white" stroke="#666666" points="408.5,-293 244.5,-293 244.5,-263 408.5,-263 408.5,-293"/>
<text text-anchor="start" x="252.5" y="-281" font-family="Helvetica,sans-Serif" font-size="10.00">AbstractServerSocketInterface</text>
<text text-anchor="middle" x="326.5" y="-270" font-family="Helvetica,sans-Serif" font-size="10.00">::cmdForgotPasswordReset</text>
</a>
</g>
</g>
<!-- Node2&#45;&gt;Node9 -->
<g id="edge11_Node000002_Node000009" class="edge">
<title>Node2&#45;&gt;Node9</title>
<g id="a_edge11_Node000002_Node000009"><a xlink:title=" ">
<path fill="none" stroke="#63b8ff" d="M641.39,-325.2C572.54,-314.85 476.24,-300.37 408.51,-290.18"/>
<polygon fill="#63b8ff" stroke="#63b8ff" points="646.72,-326 641.44,-327.48 644.24,-325.63 641.77,-325.26 641.77,-325.26 641.77,-325.26 644.24,-325.63 642.11,-323.03 646.72,-326 646.72,-326"/>
</a>
</g>
</g>
<!-- Node10 -->
<g id="Node000010" class="node">
<title>Node10</title>
<g id="a_Node000010"><a xlink:href="../../dd/dea/classAbstractServerSocketInterface.html#a0d92d407ae6471003d73f484db54c718" target="_top" xlink:title=" ">
<polygon fill="white" stroke="#666666" points="611,-250 447,-250 447,-220 611,-220 611,-250"/>
<text text-anchor="start" x="455" y="-238" font-family="Helvetica,sans-Serif" font-size="10.00">AbstractServerSocketInterface</text>
<text text-anchor="middle" x="529" y="-227" font-family="Helvetica,sans-Serif" font-size="10.00">::cmdRegisterAccount</text>
</a>
</g>
</g>
<!-- Node2&#45;&gt;Node10 -->
<g id="edge13_Node000002_Node000010" class="edge">
<title>Node2&#45;&gt;Node10</title>
<g id="a_edge13_Node000002_Node000010"><a xlink:title=" ">
<path fill="none" stroke="#63b8ff" d="M701.95,-319.95C679.2,-303.79 644,-280.22 611,-264 600.54,-258.86 588.94,-254.16 577.86,-250.11"/>
<polygon fill="#63b8ff" stroke="#63b8ff" points="706.05,-322.87 700.67,-321.8 704.02,-321.42 701.98,-319.97 701.98,-319.97 701.98,-319.97 704.02,-321.42 703.29,-318.14 706.05,-322.87 706.05,-322.87"/>
</a>
</g>
</g>
<!-- Node11 -->
<g id="Node000011" class="node">
<title>Node11</title>
<g id="a_Node000011"><a xlink:href="../../dd/dea/classAbstractServerSocketInterface.html#ae1b687fb9b598c55872a26fc8c81a413" target="_top" xlink:title=" ">
<polygon fill="white" stroke="#666666" points="611,-374 447,-374 447,-344 611,-344 611,-374"/>
<text text-anchor="start" x="455" y="-362" font-family="Helvetica,sans-Serif" font-size="10.00">AbstractServerSocketInterface</text>
<text text-anchor="middle" x="529" y="-351" font-family="Helvetica,sans-Serif" font-size="10.00">::continuePasswordRequest</text>
</a>
</g>
</g>
<!-- Node2&#45;&gt;Node11 -->
<g id="edge15_Node000002_Node000011" class="edge">
<title>Node2&#45;&gt;Node11</title>
<g id="a_edge15_Node000002_Node000011"><a xlink:title=" ">
<path fill="none" stroke="#63b8ff" d="M641.86,-347.05C631.63,-348.14 621.2,-349.25 611.03,-350.34"/>
<polygon fill="#63b8ff" stroke="#63b8ff" points="646.86,-346.51 642.13,-349.28 644.37,-346.78 641.89,-347.04 641.89,-347.04 641.89,-347.04 644.37,-346.78 641.65,-344.81 646.86,-346.51 646.86,-346.51"/>
</a>
</g>
</g>
<!-- Node3&#45;&gt;Node4 -->
<g id="edge3_Node000003_Node000004" class="edge">
<title>Node3&#45;&gt;Node4</title>
<g id="a_edge3_Node000003_Node000004"><a xlink:title=" ">
<path fill="none" stroke="#63b8ff" d="M441.7,-460.5C430.7,-462.47 419.47,-464.49 408.55,-466.45"/>
<polygon fill="#63b8ff" stroke="#63b8ff" points="446.74,-459.59 442.21,-462.69 444.28,-460.03 441.82,-460.47 441.82,-460.47 441.82,-460.47 444.28,-460.03 441.42,-458.26 446.74,-459.59 446.74,-459.59"/>
</a>
</g>
</g>
<!-- Node6 -->
<g id="Node000006" class="node">
<title>Node6</title>
<g id="a_Node000006"><a xlink:href="../../dd/dea/classAbstractServerSocketInterface.html#a108f2aeec6a9aa4cf7cc58903d5d4b50" target="_top" xlink:title=" ">
<polygon fill="white" stroke="#666666" points="200,-341 6,-341 6,-311 200,-311 200,-341"/>
<text text-anchor="start" x="14" y="-329" font-family="Helvetica,sans-Serif" font-size="10.00">AbstractServerSocketInterface</text>
<text text-anchor="middle" x="103" y="-318" font-family="Helvetica,sans-Serif" font-size="10.00">::processExtendedSessionCommand</text>
</a>
</g>
</g>
<!-- Node3&#45;&gt;Node6 -->
<g id="edge5_Node000003_Node000006" class="edge">
<title>Node3&#45;&gt;Node6</title>
<g id="a_edge5_Node000003_Node000006"><a xlink:title=" ">
<path fill="none" stroke="#63b8ff" d="M441.67,-438.03C384.01,-431.63 307.1,-419.71 242,-398 199.45,-383.81 154.05,-357.75 127.4,-341.18"/>
<polygon fill="#63b8ff" stroke="#63b8ff" points="446.84,-438.59 441.62,-440.28 444.35,-438.32 441.87,-438.05 441.87,-438.05 441.87,-438.05 444.35,-438.32 442.11,-435.81 446.84,-438.59 446.84,-438.59"/>
</a>
</g>
</g>
<!-- Node5 -->
<g id="Node000005" class="node">
<title>Node5</title>
<g id="a_Node000005"><a xlink:href="../../dd/dea/classAbstractServerSocketInterface.html#abcaba2fb39dce3419f90e2c61c898c66" target="_top" xlink:title=" ">
<polygon fill="white" stroke="#666666" points="206,-496 0,-496 0,-466 206,-466 206,-496"/>
<text text-anchor="start" x="8" y="-484" font-family="Helvetica,sans-Serif" font-size="10.00">AbstractServerSocketInterface</text>
<text text-anchor="middle" x="103" y="-473" font-family="Helvetica,sans-Serif" font-size="10.00">::processExtendedModeratorCommand</text>
</a>
</g>
</g>
<!-- Node4&#45;&gt;Node5 -->
<g id="edge4_Node000004_Node000005" class="edge">
<title>Node4&#45;&gt;Node5</title>
<g id="a_edge4_Node000004_Node000005"><a xlink:title=" ">
<path fill="none" stroke="#63b8ff" d="M239.04,-481C228.31,-481 217.27,-481 206.33,-481"/>
<polygon fill="#63b8ff" stroke="#63b8ff" points="244.28,-481 239.28,-483.25 241.78,-481 239.28,-481 239.28,-481 239.28,-481 241.78,-481 239.28,-478.75 244.28,-481 244.28,-481"/>
</a>
</g>
</g>
<!-- Node7&#45;&gt;Node6 -->
<g id="edge8_Node000007_Node000006" class="edge">
<title>Node7&#45;&gt;Node6</title>
<g id="a_edge8_Node000007_Node000006"><a xlink:title=" ">
<path fill="none" stroke="#63b8ff" d="M251.03,-357.86C225.89,-352.41 197.95,-346.36 173.23,-341"/>
<polygon fill="#63b8ff" stroke="#63b8ff" points="256.02,-358.94 250.66,-360.08 253.58,-358.41 251.14,-357.89 251.14,-357.89 251.14,-357.89 253.58,-358.41 251.61,-355.69 256.02,-358.94 256.02,-358.94"/>
</a>
</g>
</g>
<!-- Node8&#45;&gt;Node6 -->
<g id="edge10_Node000008_Node000006" class="edge">
<title>Node8&#45;&gt;Node6</title>
<g id="a_edge10_Node000008_Node000006"><a xlink:title=" ">
<path fill="none" stroke="#63b8ff" d="M239.22,-326C226.44,-326 213.2,-326 200.24,-326"/>
<polygon fill="#63b8ff" stroke="#63b8ff" points="244.28,-326 239.28,-328.25 241.78,-326 239.28,-326 239.28,-326 239.28,-326 241.78,-326 239.28,-323.75 244.28,-326 244.28,-326"/>
</a>
</g>
</g>
<!-- Node9&#45;&gt;Node6 -->
<g id="edge12_Node000009_Node000006" class="edge">
<title>Node9&#45;&gt;Node6</title>
<g id="a_edge12_Node000009_Node000006"><a xlink:title=" ">
<path fill="none" stroke="#63b8ff" d="M251.03,-294.14C225.89,-299.59 197.95,-305.64 173.23,-311"/>
<polygon fill="#63b8ff" stroke="#63b8ff" points="256.02,-293.06 251.61,-296.31 253.58,-293.59 251.14,-294.11 251.14,-294.11 251.14,-294.11 253.58,-293.59 250.66,-291.92 256.02,-293.06 256.02,-293.06"/>
</a>
</g>
</g>
<!-- Node10&#45;&gt;Node6 -->
<g id="edge14_Node000010_Node000006" class="edge">
<title>Node10&#45;&gt;Node6</title>
<g id="a_edge14_Node000010_Node000006"><a xlink:title=" ">
<path fill="none" stroke="#63b8ff" d="M441.83,-231.56C384.24,-231.47 307.34,-235.66 242,-254 198.03,-266.34 151.97,-293.77 125.75,-310.98"/>
<polygon fill="#63b8ff" stroke="#63b8ff" points="446.99,-231.58 441.98,-233.81 444.49,-231.57 441.99,-231.56 441.99,-231.56 441.99,-231.56 444.49,-231.57 442,-229.31 446.99,-231.58 446.99,-231.58"/>
</a>
</g>
</g>
<!-- Node11&#45;&gt;Node7 -->
<g id="edge16_Node000011_Node000007" class="edge">
<title>Node11&#45;&gt;Node7</title>
<g id="a_edge16_Node000011_Node000007"><a xlink:title=" ">
<path fill="none" stroke="#63b8ff" d="M441.5,-365.47C431.43,-366.22 421.18,-366.99 411.16,-367.74"/>
<polygon fill="#63b8ff" stroke="#63b8ff" points="446.74,-365.08 441.92,-367.7 444.24,-365.27 441.75,-365.45 441.75,-365.45 441.75,-365.45 444.24,-365.27 441.58,-363.21 446.74,-365.08 446.74,-365.08"/>
</a>
</g>
</g>
<!-- Node11&#45;&gt;Node8 -->
<g id="edge17_Node000011_Node000008" class="edge">
<title>Node11&#45;&gt;Node8</title>
<g id="a_edge17_Node000011_Node000008"><a xlink:title=" ">
<path fill="none" stroke="#63b8ff" d="M441.7,-344.8C430.7,-342.99 419.47,-341.14 408.55,-339.34"/>
<polygon fill="#63b8ff" stroke="#63b8ff" points="446.74,-345.63 441.44,-347.03 444.27,-345.22 441.8,-344.81 441.8,-344.81 441.8,-344.81 444.27,-345.22 442.17,-342.59 446.74,-345.63 446.74,-345.63"/>
</a>
</g>
</g>
<!-- Node12&#45;&gt;Node13 -->
<g id="edge19_Node000012_Node000013" class="edge">
<title>Node12&#45;&gt;Node13</title>
<g id="a_edge19_Node000012_Node000013"><a xlink:title=" ">
<path fill="none" stroke="#63b8ff" d="M652.82,-218.88C626.1,-213.03 596.8,-206.62 573.51,-201.52"/>
<polygon fill="#63b8ff" stroke="#63b8ff" points="657.77,-219.96 652.41,-221.09 655.33,-219.43 652.89,-218.89 652.89,-218.89 652.89,-218.89 655.33,-219.43 653.37,-216.69 657.77,-219.96 657.77,-219.96"/>
</a>
</g>
</g>
</g>
</svg>
