<?xml version="1.0" encoding="UTF-8" standalone="no"?>
<!DOCTYPE svg PUBLIC "-//W3C//DTD SVG 1.1//EN"
 "http://www.w3.org/Graphics/SVG/1.1/DTD/svg11.dtd">
<!-- Generated by graphviz version 2.43.0 (0)
 -->
<!-- Title: FilterTree::preInsertRow Pages: 1 -->
<svg width="951pt" height="76pt"
 viewBox="0.00 0.00 951.00 75.50" xmlns="http://www.w3.org/2000/svg" xmlns:xlink="http://www.w3.org/1999/xlink">
<g id="graph0" class="graph" transform="scale(1 1) rotate(0) translate(4 71.5)">
<title>FilterTree::preInsertRow</title>
<!-- Node1 -->
<g id="Node000001" class="node">
<title>Node1</title>
<g id="a_Node000001"><a xlink:title=" ">
<polygon fill="#999999" stroke="#666666" points="943,-40 811,-40 811,-21 943,-21 943,-40"/>
<text text-anchor="middle" x="877" y="-28" font-family="Helvetica,sans-Serif" font-size="10.00">FilterTree::preInsertRow</text>
</a>
</g>
</g>
<!-- Node2 -->
<g id="Node000002" class="node">
<title>Node2</title>
<g id="a_Node000002"><a xlink:href="../../d7/d62/classFilterTreeModel.html#a1a32b767efd768fcabe098b6c64e1e10" target="_top" xlink:title=" ">
<polygon fill="white" stroke="#666666" points="775,-67.5 632,-67.5 632,-37.5 775,-37.5 775,-67.5"/>
<text text-anchor="start" x="640" y="-55.5" font-family="Helvetica,sans-Serif" font-size="10.00">FilterTreeModel::FilterTree</text>
<text text-anchor="middle" x="703.5" y="-44.5" font-family="Helvetica,sans-Serif" font-size="10.00">Model</text>
</a>
</g>
</g>
<!-- Node1&#45;&gt;Node2 -->
<g id="edge1_Node000001_Node000002" class="edge">
<title>Node1&#45;&gt;Node2</title>
<g id="a_edge1_Node000001_Node000002"><a xlink:title=" ">
<path fill="none" stroke="#63b8ff" d="M805.46,-39.55C795.42,-40.84 785.11,-42.16 775.07,-43.45"/>
<polygon fill="#63b8ff" stroke="#63b8ff" points="810.67,-38.88 806,-41.75 808.19,-39.2 805.71,-39.52 805.71,-39.52 805.71,-39.52 808.19,-39.2 805.43,-37.28 810.67,-38.88 810.67,-38.88"/>
</a>
</g>
</g>
<!-- Node3 -->
<g id="Node000003" class="node">
<title>Node3</title>
<g id="a_Node000003"><a xlink:href="../../d8/d95/classFilterTree.html#a52695bc306a777ca8940cc7f0766dbb0" target="_top" xlink:title=" ">
<polygon fill="white" stroke="#666666" points="771.5,-19 635.5,-19 635.5,0 771.5,0 771.5,-19"/>
<text text-anchor="middle" x="703.5" y="-7" font-family="Helvetica,sans-Serif" font-size="10.00">FilterTree::preInsertChild</text>
</a>
</g>
</g>
<!-- Node1&#45;&gt;Node3 -->
<g id="edge2_Node000001_Node000003" class="edge">
<title>Node1&#45;&gt;Node3</title>
<g id="a_edge2_Node000001_Node000003"><a xlink:title=" ">
<path fill="none" stroke="#63b8ff" d="M805.55,-21.87C794.34,-20.5 782.77,-19.08 771.64,-17.72"/>
<polygon fill="#63b8ff" stroke="#63b8ff" points="810.67,-22.5 805.44,-24.13 808.19,-22.2 805.71,-21.89 805.71,-21.89 805.71,-21.89 808.19,-22.2 805.98,-19.66 810.67,-22.5 810.67,-22.5"/>
</a>
</g>
</g>
<!-- Node4 -->
<g id="Node000004" class="node">
<title>Node4</title>
<g id="a_Node000004"><a xlink:href="../../d8/d95/classFilterTree.html#a815da2affead176aedfbed917b66b7e4" target="_top" xlink:title=" ">
<polygon fill="white" stroke="#666666" points="596,-19 465,-19 465,0 596,0 596,-19"/>
<text text-anchor="middle" x="530.5" y="-7" font-family="Helvetica,sans-Serif" font-size="10.00">FilterTree::attrLogicMap</text>
</a>
</g>
</g>
<!-- Node3&#45;&gt;Node4 -->
<g id="edge3_Node000003_Node000004" class="edge">
<title>Node3&#45;&gt;Node4</title>
<g id="a_edge3_Node000003_Node000004"><a xlink:title=" ">
<path fill="none" stroke="#63b8ff" d="M630.23,-9.5C618.92,-9.5 607.29,-9.5 596.16,-9.5"/>
<polygon fill="#63b8ff" stroke="#63b8ff" points="635.41,-9.5 630.41,-11.75 632.91,-9.5 630.41,-9.5 630.41,-9.5 630.41,-9.5 632.91,-9.5 630.41,-7.25 635.41,-9.5 635.41,-9.5"/>
</a>
</g>
</g>
<!-- Node5 -->
<g id="Node000005" class="node">
<title>Node5</title>
<g id="a_Node000005"><a xlink:href="../../d8/d95/classFilterTree.html#ad623e0580be3080e8ad2c77876b64e2d" target="_top" xlink:title=" ">
<polygon fill="white" stroke="#666666" points="429,-19 304,-19 304,0 429,0 429,-19"/>
<text text-anchor="middle" x="366.5" y="-7" font-family="Helvetica,sans-Serif" font-size="10.00">FilterTree::attrTypeList</text>
</a>
</g>
</g>
<!-- Node4&#45;&gt;Node5 -->
<g id="edge4_Node000004_Node000005" class="edge">
<title>Node4&#45;&gt;Node5</title>
<g id="a_edge4_Node000004_Node000005"><a xlink:title=" ">
<path fill="none" stroke="#63b8ff" d="M459.3,-9.5C449.23,-9.5 438.94,-9.5 429.05,-9.5"/>
<polygon fill="#63b8ff" stroke="#63b8ff" points="464.54,-9.5 459.54,-11.75 462.04,-9.5 459.54,-9.5 459.54,-9.5 459.54,-9.5 462.04,-9.5 459.54,-7.25 464.54,-9.5 464.54,-9.5"/>
</a>
</g>
</g>
<!-- Node6 -->
<g id="Node000006" class="node">
<title>Node6</title>
<g id="a_Node000006"><a xlink:href="../../d8/d95/classFilterTree.html#a7d145d49a0d1782bce296712bac05ddb" target="_top" xlink:title=" ">
<polygon fill="white" stroke="#666666" points="268,-19 152,-19 152,0 268,0 268,-19"/>
<text text-anchor="middle" x="210" y="-7" font-family="Helvetica,sans-Serif" font-size="10.00">FilterTree::termNode</text>
</a>
</g>
</g>
<!-- Node5&#45;&gt;Node6 -->
<g id="edge5_Node000005_Node000006" class="edge">
<title>Node5&#45;&gt;Node6</title>
<g id="a_edge5_Node000005_Node000006"><a xlink:title=" ">
<path fill="none" stroke="#63b8ff" d="M298.72,-9.5C288.58,-9.5 278.19,-9.5 268.28,-9.5"/>
<polygon fill="#63b8ff" stroke="#63b8ff" points="303.99,-9.5 298.99,-11.75 301.49,-9.5 298.99,-9.5 298.99,-9.5 298.99,-9.5 301.49,-9.5 298.99,-7.25 303.99,-9.5 303.99,-9.5"/>
</a>
</g>
</g>
<!-- Node7 -->
<g id="Node000007" class="node">
<title>Node7</title>
<g id="a_Node000007"><a xlink:href="../../d8/d95/classFilterTree.html#afc8bda07596a380241767388bc2e7270" target="_top" xlink:title=" ">
<polygon fill="white" stroke="#666666" points="116,-19 0,-19 0,0 116,0 116,-19"/>
<text text-anchor="middle" x="58" y="-7" font-family="Helvetica,sans-Serif" font-size="10.00">FilterTree::termNode</text>
</a>
</g>
</g>
<!-- Node6&#45;&gt;Node7 -->
<g id="edge6_Node000006_Node000007" class="edge">
<title>Node6&#45;&gt;Node7</title>
<g id="a_edge6_Node000006_Node000007"><a xlink:title=" ">
<path fill="none" stroke="#63b8ff" d="M146.67,-9.5C136.67,-9.5 126.35,-9.5 116.47,-9.5"/>
<polygon fill="#63b8ff" stroke="#63b8ff" points="151.86,-9.5 146.86,-11.75 149.36,-9.5 146.86,-9.5 146.86,-9.5 146.86,-9.5 149.36,-9.5 146.86,-7.25 151.86,-9.5 151.86,-9.5"/>
</a>
</g>
</g>
</g>
</svg>
