<?xml version="1.0" encoding="UTF-8" standalone="no"?>
<!DOCTYPE svg PUBLIC "-//W3C//DTD SVG 1.1//EN"
 "http://www.w3.org/Graphics/SVG/1.1/DTD/svg11.dtd">
<!-- Generated by graphviz version 2.43.0 (0)
 -->
<!-- Title: ServerInfo_User_Container Pages: 1 -->
<svg width="957pt" height="138pt"
 viewBox="0.00 0.00 957.00 138.00" xmlns="http://www.w3.org/2000/svg" xmlns:xlink="http://www.w3.org/1999/xlink">
<g id="graph0" class="graph" transform="scale(1 1) rotate(0) translate(4 134)">
<title>ServerInfo_User_Container</title>
<!-- Node1 -->
<g id="Node000001" class="node">
<title>Node1</title>
<g id="a_Node000001"><a xlink:title=" ">
<polygon fill="#999999" stroke="#666666" points="147,-74 0,-74 0,-55 147,-55 147,-74"/>
<text text-anchor="middle" x="73.5" y="-62" font-family="Helvetica,sans-Serif" font-size="10.00">ServerInfo_User_Container</text>
</a>
</g>
</g>
<!-- Node2 -->
<g id="Node000002" class="node">
<title>Node2</title>
<g id="a_Node000002"><a xlink:href="../../d0/d00/classServer__AbstractParticipant.html" target="_top" xlink:title=" ">
<polygon fill="white" stroke="#666666" points="336,-93 190,-93 190,-74 336,-74 336,-93"/>
<text text-anchor="middle" x="263" y="-81" font-family="Helvetica,sans-Serif" font-size="10.00">Server_AbstractParticipant</text>
</a>
</g>
</g>
<!-- Node1&#45;&gt;Node2 -->
<g id="edge1_Node000001_Node000002" class="edge">
<title>Node1&#45;&gt;Node2</title>
<g id="a_edge1_Node000001_Node000002"><a xlink:title=" ">
<path fill="none" stroke="#63b8ff" d="M152.54,-72.41C164.91,-73.66 177.67,-74.95 189.9,-76.19"/>
<polygon fill="#63b8ff" stroke="#63b8ff" points="147.26,-71.87 152.46,-70.14 149.75,-72.13 152.24,-72.38 152.24,-72.38 152.24,-72.38 149.75,-72.13 152.01,-74.62 147.26,-71.87 147.26,-71.87"/>
</a>
</g>
</g>
<!-- Node6 -->
<g id="Node000006" class="node">
<title>Node6</title>
<g id="a_Node000006"><a xlink:href="../../d5/d9c/classServer__AbstractUserInterface.html" target="_top" xlink:title=" ">
<polygon fill="white" stroke="#666666" points="343,-56 183,-56 183,-37 343,-37 343,-56"/>
<text text-anchor="middle" x="263" y="-44" font-family="Helvetica,sans-Serif" font-size="10.00">Server_AbstractUserInterface</text>
</a>
</g>
</g>
<!-- Node1&#45;&gt;Node6 -->
<g id="edge5_Node000001_Node000006" class="edge">
<title>Node1&#45;&gt;Node6</title>
<g id="a_edge5_Node000001_Node000006"><a xlink:title=" ">
<path fill="none" stroke="#63b8ff" d="M152.47,-57.02C162.47,-56.05 172.73,-55.07 182.75,-54.11"/>
<polygon fill="#63b8ff" stroke="#63b8ff" points="147.26,-57.51 152.02,-54.8 149.75,-57.28 152.24,-57.04 152.24,-57.04 152.24,-57.04 149.75,-57.28 152.45,-59.28 147.26,-57.51 147.26,-57.51"/>
</a>
</g>
</g>
<!-- Node3 -->
<g id="Node000003" class="node">
<title>Node3</title>
<g id="a_Node000003"><a xlink:href="../../da/d99/classServer__AbstractPlayer.html" target="_top" xlink:title=" ">
<polygon fill="white" stroke="#666666" points="520.5,-130 395.5,-130 395.5,-111 520.5,-111 520.5,-130"/>
<text text-anchor="middle" x="458" y="-118" font-family="Helvetica,sans-Serif" font-size="10.00">Server_AbstractPlayer</text>
</a>
</g>
</g>
<!-- Node2&#45;&gt;Node3 -->
<g id="edge2_Node000002_Node000003" class="edge">
<title>Node2&#45;&gt;Node3</title>
<g id="a_edge2_Node000002_Node000003"><a xlink:title=" ">
<path fill="none" stroke="#63b8ff" d="M318.82,-94.01C346.6,-99.34 380.08,-105.75 407.13,-110.94"/>
<polygon fill="#63b8ff" stroke="#63b8ff" points="313.7,-93.03 319.04,-91.76 316.16,-93.5 318.61,-93.97 318.61,-93.97 318.61,-93.97 316.16,-93.5 318.19,-96.18 313.7,-93.03 313.7,-93.03"/>
</a>
</g>
</g>
<!-- Node5 -->
<g id="Node000005" class="node">
<title>Node5</title>
<g id="a_Node000005"><a xlink:href="../../d3/d2c/classServer__Spectator.html" target="_top" xlink:title=" ">
<polygon fill="white" stroke="#666666" points="508,-93 408,-93 408,-74 508,-74 508,-93"/>
<text text-anchor="middle" x="458" y="-81" font-family="Helvetica,sans-Serif" font-size="10.00">Server_Spectator</text>
</a>
</g>
</g>
<!-- Node2&#45;&gt;Node5 -->
<g id="edge4_Node000002_Node000005" class="edge">
<title>Node2&#45;&gt;Node5</title>
<g id="a_edge4_Node000002_Node000005"><a xlink:title=" ">
<path fill="none" stroke="#63b8ff" d="M341.21,-83.5C363.65,-83.5 387.55,-83.5 407.77,-83.5"/>
<polygon fill="#63b8ff" stroke="#63b8ff" points="336.14,-83.5 341.14,-81.25 338.64,-83.5 341.14,-83.5 341.14,-83.5 341.14,-83.5 338.64,-83.5 341.14,-85.75 336.14,-83.5 336.14,-83.5"/>
</a>
</g>
</g>
<!-- Node4 -->
<g id="Node000004" class="node">
<title>Node4</title>
<g id="a_Node000004"><a xlink:href="../../d8/d21/classServer__Player.html" target="_top" xlink:title=" ">
<polygon fill="white" stroke="#666666" points="697,-130 613,-130 613,-111 697,-111 697,-130"/>
<text text-anchor="middle" x="655" y="-118" font-family="Helvetica,sans-Serif" font-size="10.00">Server_Player</text>
</a>
</g>
</g>
<!-- Node3&#45;&gt;Node4 -->
<g id="edge3_Node000003_Node000004" class="edge">
<title>Node3&#45;&gt;Node4</title>
<g id="a_edge3_Node000003_Node000004"><a xlink:title=" ">
<path fill="none" stroke="#63b8ff" d="M526.03,-120.5C554.82,-120.5 587.55,-120.5 612.71,-120.5"/>
<polygon fill="#63b8ff" stroke="#63b8ff" points="520.7,-120.5 525.7,-118.25 523.2,-120.5 525.7,-120.5 525.7,-120.5 525.7,-120.5 523.2,-120.5 525.7,-122.75 520.7,-120.5 520.7,-120.5"/>
</a>
</g>
</g>
<!-- Node7 -->
<g id="Node000007" class="node">
<title>Node7</title>
<g id="a_Node000007"><a xlink:href="../../d0/d23/classServer__ProtocolHandler.html" target="_top" xlink:title=" ">
<polygon fill="white" stroke="#666666" points="523.5,-56 392.5,-56 392.5,-37 523.5,-37 523.5,-56"/>
<text text-anchor="middle" x="458" y="-44" font-family="Helvetica,sans-Serif" font-size="10.00">Server_ProtocolHandler</text>
</a>
</g>
</g>
<!-- Node6&#45;&gt;Node7 -->
<g id="edge6_Node000006_Node000007" class="edge">
<title>Node6&#45;&gt;Node7</title>
<g id="a_edge6_Node000006_Node000007"><a xlink:title=" ">
<path fill="none" stroke="#63b8ff" d="M348.44,-46.5C363.11,-46.5 378.16,-46.5 392.2,-46.5"/>
<polygon fill="#63b8ff" stroke="#63b8ff" points="343.06,-46.5 348.06,-44.25 345.56,-46.5 348.06,-46.5 348.06,-46.5 348.06,-46.5 345.56,-46.5 348.06,-48.75 343.06,-46.5 343.06,-46.5"/>
</a>
</g>
</g>
<!-- Node12 -->
<g id="Node000012" class="node">
<title>Node12</title>
<g id="a_Node000012"><a xlink:href="../../d8/d6a/classServer__RemoteUserInterface.html" target="_top" xlink:title=" ">
<polygon fill="white" stroke="#666666" points="537,-19 379,-19 379,0 537,0 537,-19"/>
<text text-anchor="middle" x="458" y="-7" font-family="Helvetica,sans-Serif" font-size="10.00">Server_RemoteUserInterface</text>
</a>
</g>
</g>
<!-- Node6&#45;&gt;Node12 -->
<g id="edge11_Node000006_Node000012" class="edge">
<title>Node6&#45;&gt;Node12</title>
<g id="a_edge11_Node000006_Node000012"><a xlink:title=" ">
<path fill="none" stroke="#63b8ff" d="M318.82,-35.99C346.6,-30.66 380.08,-24.25 407.13,-19.06"/>
<polygon fill="#63b8ff" stroke="#63b8ff" points="313.7,-36.97 318.19,-33.82 316.16,-36.5 318.61,-36.03 318.61,-36.03 318.61,-36.03 316.16,-36.5 319.04,-38.24 313.7,-36.97 313.7,-36.97"/>
</a>
</g>
</g>
<!-- Node8 -->
<g id="Node000008" class="node">
<title>Node8</title>
<g id="a_Node000008"><a xlink:href="../../dd/dea/classAbstractServerSocketInterface.html" target="_top" xlink:title=" ">
<polygon fill="white" stroke="#666666" points="737,-75 573,-75 573,-56 737,-56 737,-75"/>
<text text-anchor="middle" x="655" y="-63" font-family="Helvetica,sans-Serif" font-size="10.00">AbstractServerSocketInterface</text>
</a>
</g>
</g>
<!-- Node7&#45;&gt;Node8 -->
<g id="edge7_Node000007_Node000008" class="edge">
<title>Node7&#45;&gt;Node8</title>
<g id="a_edge7_Node000007_Node000008"><a xlink:title=" ">
<path fill="none" stroke="#63b8ff" d="M528.87,-53.31C543.12,-54.7 558.23,-56.17 572.84,-57.59"/>
<polygon fill="#63b8ff" stroke="#63b8ff" points="523.66,-52.8 528.86,-51.05 526.15,-53.04 528.64,-53.29 528.64,-53.29 528.64,-53.29 526.15,-53.04 528.42,-55.52 523.66,-52.8 523.66,-52.8"/>
</a>
</g>
</g>
<!-- Node11 -->
<g id="Node000011" class="node">
<title>Node11</title>
<g id="a_Node000011"><a xlink:href="../../d0/dc3/classLocalServerInterface.html" target="_top" xlink:title=" ">
<polygon fill="white" stroke="#666666" points="713.5,-38 596.5,-38 596.5,-19 713.5,-19 713.5,-38"/>
<text text-anchor="middle" x="655" y="-26" font-family="Helvetica,sans-Serif" font-size="10.00">LocalServerInterface</text>
</a>
</g>
</g>
<!-- Node7&#45;&gt;Node11 -->
<g id="edge10_Node000007_Node000011" class="edge">
<title>Node7&#45;&gt;Node11</title>
<g id="a_edge10_Node000007_Node000011"><a xlink:title=" ">
<path fill="none" stroke="#63b8ff" d="M528.66,-40.07C550.86,-38.02 575.16,-35.78 596.4,-33.82"/>
<polygon fill="#63b8ff" stroke="#63b8ff" points="523.66,-40.53 528.43,-37.83 526.15,-40.3 528.64,-40.07 528.64,-40.07 528.64,-40.07 526.15,-40.3 528.85,-42.31 523.66,-40.53 523.66,-40.53"/>
</a>
</g>
</g>
<!-- Node9 -->
<g id="Node000009" class="node">
<title>Node9</title>
<g id="a_Node000009"><a xlink:href="../../dd/d13/classTcpServerSocketInterface.html" target="_top" xlink:title=" ">
<polygon fill="white" stroke="#666666" points="931,-93 791,-93 791,-74 931,-74 931,-93"/>
<text text-anchor="middle" x="861" y="-81" font-family="Helvetica,sans-Serif" font-size="10.00">TcpServerSocketInterface</text>
</a>
</g>
</g>
<!-- Node8&#45;&gt;Node9 -->
<g id="edge8_Node000008_Node000009" class="edge">
<title>Node8&#45;&gt;Node9</title>
<g id="a_edge8_Node000008_Node000009"><a xlink:title=" ">
<path fill="none" stroke="#63b8ff" d="M742.23,-73.11C758.48,-74.54 775.27,-76.02 790.9,-77.4"/>
<polygon fill="#63b8ff" stroke="#63b8ff" points="737.21,-72.67 742.39,-70.86 739.7,-72.89 742.19,-73.11 742.19,-73.11 742.19,-73.11 739.7,-72.89 742,-75.35 737.21,-72.67 737.21,-72.67"/>
</a>
</g>
</g>
<!-- Node10 -->
<g id="Node000010" class="node">
<title>Node10</title>
<g id="a_Node000010"><a xlink:href="../../de/db1/classWebsocketServerSocketInterface.html" target="_top" xlink:title=" ">
<polygon fill="white" stroke="#666666" points="949,-56 773,-56 773,-37 949,-37 949,-56"/>
<text text-anchor="middle" x="861" y="-44" font-family="Helvetica,sans-Serif" font-size="10.00">WebsocketServerSocketInterface</text>
</a>
</g>
</g>
<!-- Node8&#45;&gt;Node10 -->
<g id="edge9_Node000008_Node000010" class="edge">
<title>Node8&#45;&gt;Node10</title>
<g id="a_edge9_Node000008_Node000010"><a xlink:title=" ">
<path fill="none" stroke="#63b8ff" d="M742.43,-57.45C752.45,-56.52 762.67,-55.56 772.7,-54.63"/>
<polygon fill="#63b8ff" stroke="#63b8ff" points="737.21,-57.94 741.98,-55.23 739.7,-57.7 742.19,-57.47 742.19,-57.47 742.19,-57.47 739.7,-57.7 742.4,-59.71 737.21,-57.94 737.21,-57.94"/>
</a>
</g>
</g>
</g>
</svg>
